<svg xmlns="http://www.w3.org/2000/svg" width="720" height="900"><path d="m16.75 22.16-2.75-3L15.16 18l1.59 1.59L20.34 16l1.16 1.41-4.75 4.75M17 4v6l-2-2-2 2V4H9v16h3.08c.12.72.37 1.39.72 2H7c-1.05 0-2-.95-2-2v-1H3v-2h2v-4H3v-2h2V7H3V5h2V4a2 2 0 0 1 2-2h12c1.05 0 2 .95 2 2v9.8c-.61-.35-1.28-.6-2-.72V4h-2M5 19h2v-2H5v2m0-6h2v-2H5v2m0-6h2V5H5v2Z" transform="scale(1.5)" id="mdi-notebook-check-outline" fill="#555"/><path d="m16.75 22.16-2.75-3L15.16 18l1.59 1.59L20.34 16l1.16 1.41-4.75 4.75M17 4v6l-2-2-2 2V4H9v16h3.08c.12.72.37 1.39.72 2H7c-1.05 0-2-.95-2-2v-1H3v-2h2v-4H3v-2h2V7H3V5h2V4a2 2 0 0 1 2-2h12c1.05 0 2 .95 2 2v9.8c-.61-.35-1.28-.6-2-.72V4h-2M5 19h2v-2H5v2m0-6h2v-2H5v2m0-6h2V5H5v2Z" transform="translate(36) scale(1.5)" id="mdi-notebook-check-outline" fill="#fff"/><path d="M21.04 13.13c.14 0 .27.06.38.17l1.28 1.28c.22.21.22.56 0 .77l-1 1-2.05-2.05 1-1c.11-.11.25-.17.39-.17m-1.97 1.75 2.05 2.05L15.06 23H13v-2.06l6.07-6.06M3 7V5h2V4a2 2 0 0 1 2-2h6v7l2.5-1.5L18 9V2h1c1.05 0 2 .95 2 2v6L11 20v2H7c-1.05 0-2-.95-2-2v-1H3v-2h2v-4H3v-2h2V7H3m2 0h2V5H5v2m0 4v2h2v-2H5m0 6v2h2v-2H5Z" transform="translate(72) scale(1.5)" id="mdi-notebook-edit" fill="#555"/><path d="M21.04 13.13c.14 0 .27.06.38.17l1.28 1.28c.22.21.22.56 0 .77l-1 1-2.05-2.05 1-1c.11-.11.25-.17.39-.17m-1.97 1.75 2.05 2.05L15.06 23H13v-2.06l6.07-6.06M3 7V5h2V4a2 2 0 0 1 2-2h6v7l2.5-1.5L18 9V2h1c1.05 0 2 .95 2 2v6L11 20v2H7c-1.05 0-2-.95-2-2v-1H3v-2h2v-4H3v-2h2V7H3m2 0h2V5H5v2m0 4v2h2v-2H5m0 6v2h2v-2H5Z" transform="translate(108) scale(1.5)" id="mdi-notebook-edit" fill="#fff"/><path d="m19.07 14.88 2.05 2.05L15.06 23H13v-2.06l6.07-6.06m1.97-1.75c.14 0 .27.06.38.17l1.28 1.28c.22.21.22.56 0 .77l-1 1-2.05-2.05 1-1c.11-.11.25-.17.39-.17M17 4v6l-2-2-2 2V4H9v16h2v2H7c-1.05 0-2-.95-2-2v-1H3v-2h2v-4H3v-2h2V7H3V5h2V4a2 2 0 0 1 2-2h12c1.05 0 2 .95 2 2v6l-2 2V4h-2M5 5v2h2V5H5m0 6v2h2v-2H5m0 6v2h2v-2H5Z" transform="translate(144) scale(1.5)" id="mdi-notebook-edit-outline" fill="#555"/><path d="m19.07 14.88 2.05 2.05L15.06 23H13v-2.06l6.07-6.06m1.97-1.75c.14 0 .27.06.38.17l1.28 1.28c.22.21.22.56 0 .77l-1 1-2.05-2.05 1-1c.11-.11.25-.17.39-.17M17 4v6l-2-2-2 2V4H9v16h2v2H7c-1.05 0-2-.95-2-2v-1H3v-2h2v-4H3v-2h2V7H3V5h2V4a2 2 0 0 1 2-2h12c1.05 0 2 .95 2 2v6l-2 2V4h-2M5 5v2h2V5H5m0 6v2h2v-2H5m0 6v2h2v-2H5Z" transform="translate(180) scale(1.5)" id="mdi-notebook-edit-outline" fill="#fff"/><path d="m19 23.3-.6-.5c-2-1.9-3.4-3.1-3.4-4.6 0-1.2 1-2.2 2.2-2.2.7 0 1.4.3 1.8.8.4-.5 1.1-.8 1.8-.8 1.2 0 2.2.9 2.2 2.2 0 1.5-1.4 2.7-3.4 4.6l-.6.5M3 7V5h2V4a2 2 0 0 1 2-2h6v7l2.5-1.5L18 9V2h1c1.05 0 2 .95 2 2v9.34A6.005 6.005 0 0 0 13.8 22H7c-1.05 0-2-.95-2-2v-1H3v-2h2v-4H3v-2h2V7H3m2-2v2h2V5H5m0 14h2v-2H5v2m0-6h2v-2H5v2Z" transform="translate(216) scale(1.5)" id="mdi-notebook-heart" fill="#555"/><path d="m19 23.3-.6-.5c-2-1.9-3.4-3.1-3.4-4.6 0-1.2 1-2.2 2.2-2.2.7 0 1.4.3 1.8.8.4-.5 1.1-.8 1.8-.8 1.2 0 2.2.9 2.2 2.2 0 1.5-1.4 2.7-3.4 4.6l-.6.5M3 7V5h2V4a2 2 0 0 1 2-2h6v7l2.5-1.5L18 9V2h1c1.05 0 2 .95 2 2v9.34A6.005 6.005 0 0 0 13.8 22H7c-1.05 0-2-.95-2-2v-1H3v-2h2v-4H3v-2h2V7H3m2-2v2h2V5H5m0 14h2v-2H5v2m0-6h2v-2H5v2Z" transform="translate(252) scale(1.5)" id="mdi-notebook-heart" fill="#fff"/><path d="m19 23.3-.6-.5c-2-1.9-3.4-3.1-3.4-4.6 0-1.2 1-2.2 2.2-2.2.7 0 1.4.3 1.8.8.4-.5 1.1-.8 1.8-.8 1.2 0 2.2.9 2.2 2.2 0 1.5-1.4 2.7-3.4 4.6l-.6.5M17 4v6l-2-2-2 2V4H9v16h4.08c.12.72.37 1.39.72 2H7c-1.05 0-2-.95-2-2v-1H3v-2h2v-4H3v-2h2V7H3V5h2V4a2 2 0 0 1 2-2h12c1.05 0 2 .95 2 2v9.34c-.63-.22-1.3-.34-2-.34V4h-2M5 19h2v-2H5v2m0-6h2v-2H5v2m0-6h2V5H5v2Z" transform="translate(288) scale(1.5)" id="mdi-notebook-heart-outline" fill="#555"/><path d="m19 23.3-.6-.5c-2-1.9-3.4-3.1-3.4-4.6 0-1.2 1-2.2 2.2-2.2.7 0 1.4.3 1.8.8.4-.5 1.1-.8 1.8-.8 1.2 0 2.2.9 2.2 2.2 0 1.5-1.4 2.7-3.4 4.6l-.6.5M17 4v6l-2-2-2 2V4H9v16h4.08c.12.72.37 1.39.72 2H7c-1.05 0-2-.95-2-2v-1H3v-2h2v-4H3v-2h2V7H3V5h2V4a2 2 0 0 1 2-2h12c1.05 0 2 .95 2 2v9.34c-.63-.22-1.3-.34-2-.34V4h-2M5 19h2v-2H5v2m0-6h2v-2H5v2m0-6h2V5H5v2Z" transform="translate(324) scale(1.5)" id="mdi-notebook-heart-outline" fill="#fff"/><path d="M3 7V5h2V4c0-1.1.9-2 2-2h6v7l2.5-1.5L18 9V2h1c1 0 2 1 2 2v9.8c-.9-.5-1.9-.8-3-.8-3.3 0-6 2.7-6 6 0 1.1.3 2.1.8 3H7c-1.1 0-2-1-2-2v-1H3v-2h2v-4H3v-2h2V7H3m2-2v2h2V5H5m0 14h2v-2H5v2m0-6h2v-2H5v2m9 5v2h8v-2h-8Z" transform="translate(360) scale(1.5)" id="mdi-notebook-minus" fill="#555"/><path d="M3 7V5h2V4c0-1.1.9-2 2-2h6v7l2.5-1.5L18 9V2h1c1 0 2 1 2 2v9.8c-.9-.5-1.9-.8-3-.8-3.3 0-6 2.7-6 6 0 1.1.3 2.1.8 3H7c-1.1 0-2-1-2-2v-1H3v-2h2v-4H3v-2h2V7H3m2-2v2h2V5H5m0 14h2v-2H5v2m0-6h2v-2H5v2m9 5v2h8v-2h-8Z" transform="translate(396) scale(1.5)" id="mdi-notebook-minus" fill="#fff"/><path d="M17 4v6l-2-2-2 2V4H9v16h3.1c.1.7.4 1.4.7 2H7c-1.1 0-2-1-2-2v-1H3v-2h2v-4H3v-2h2V7H3V5h2V4c0-1.1.9-2 2-2h12c1 0 2 1 2 2v9.8c-.6-.4-1.3-.6-2-.7V4h-2M5 19h2v-2H5v2m0-6h2v-2H5v2m0-6h2V5H5v2m9 11v2h8v-2h-8Z" transform="translate(432) scale(1.5)" id="mdi-notebook-minus-outline" fill="#555"/><path d="M17 4v6l-2-2-2 2V4H9v16h3.1c.1.7.4 1.4.7 2H7c-1.1 0-2-1-2-2v-1H3v-2h2v-4H3v-2h2V7H3V5h2V4c0-1.1.9-2 2-2h12c1 0 2 1 2 2v9.8c-.6-.4-1.3-.6-2-.7V4h-2M5 19h2v-2H5v2m0-6h2v-2H5v2m0-6h2V5H5v2m9 11v2h8v-2h-8Z" transform="translate(468) scale(1.5)" id="mdi-notebook-minus-outline" fill="#fff"/><path d="M9.05 9H7.06V6h1.99V4.03H7.06v-1c0-1.11.89-1.99 1.99-1.99h5.98V8l2.47-1.5L20 8V1.04h1c1.05 0 2 .96 2 1.99V17c0 1.03-.95 2-2 2H9.05c-1.05 0-1.99-.95-1.99-2v-1h1.99v-2H7.06v-3h1.99V9M1 18h2v-3H1v-2h2v-3H1V8h2V5h2v3H3v2h2v3H3v2h2v3H3v2h2v1h16v2H5a2 2 0 0 1-2-2v-1H1v-2Z" transform="translate(504) scale(1.5)" id="mdi-notebook-multiple" fill="#555"/><path d="M9.05 9H7.06V6h1.99V4.03H7.06v-1c0-1.11.89-1.99 1.99-1.99h5.98V8l2.47-1.5L20 8V1.04h1c1.05 0 2 .96 2 1.99V17c0 1.03-.95 2-2 2H9.05c-1.05 0-1.99-.95-1.99-2v-1h1.99v-2H7.06v-3h1.99V9M1 18h2v-3H1v-2h2v-3H1V8h2V5h2v3H3v2h2v3H3v2h2v3H3v2h2v1h16v2H5a2 2 0 0 1-2-2v-1H1v-2Z" transform="translate(540) scale(1.5)" id="mdi-notebook-multiple" fill="#fff"/><path d="M17 4v6l-2-2-2 2V4H9v16h10V4h-2M3 7V5h2V4a2 2 0 0 1 2-2h12c1.05 0 2 .95 2 2v16c0 1.05-.95 2-2 2H7c-1.05 0-2-.95-2-2v-1H3v-2h2v-4H3v-2h2V7H3m2-2v2h2V5H5m0 14h2v-2H5v2m0-6h2v-2H5v2Z" transform="translate(576) scale(1.5)" id="mdi-notebook-outline" fill="#555"/><path d="M17 4v6l-2-2-2 2V4H9v16h10V4h-2M3 7V5h2V4a2 2 0 0 1 2-2h12c1.05 0 2 .95 2 2v16c0 1.05-.95 2-2 2H7c-1.05 0-2-.95-2-2v-1H3v-2h2v-4H3v-2h2V7H3m2-2v2h2V5H5m0 14h2v-2H5v2m0-6h2v-2H5v2Z" transform="translate(612) scale(1.5)" id="mdi-notebook-outline" fill="#fff"/><path d="M3 7V5h2V4c0-1.1.9-2 2-2h6v7l2.5-1.5L18 9V2h1c1 0 2 1 2 2v9.8c-.9-.5-1.9-.8-3-.8-3.3 0-6 2.7-6 6 0 1.1.3 2.1.8 3H7c-1.1 0-2-1-2-2v-1H3v-2h2v-4H3v-2h2V7H3m2-2v2h2V5H5m0 14h2v-2H5v2m0-6h2v-2H5v2m12 2v3h-3v2h3v3h2v-3h3v-2h-3v-3h-2Z" transform="translate(648) scale(1.5)" id="mdi-notebook-plus" fill="#555"/><path d="M3 7V5h2V4c0-1.1.9-2 2-2h6v7l2.5-1.5L18 9V2h1c1 0 2 1 2 2v9.8c-.9-.5-1.9-.8-3-.8-3.3 0-6 2.7-6 6 0 1.1.3 2.1.8 3H7c-1.1 0-2-1-2-2v-1H3v-2h2v-4H3v-2h2V7H3m2-2v2h2V5H5m0 14h2v-2H5v2m0-6h2v-2H5v2m12 2v3h-3v2h3v3h2v-3h3v-2h-3v-3h-2Z" transform="translate(684) scale(1.5)" id="mdi-notebook-plus" fill="#fff"/><path d="M17 4v6l-2-2-2 2V4H9v16h3.1c.1.7.4 1.4.7 2H7c-1.1 0-2-1-2-2v-1H3v-2h2v-4H3v-2h2V7H3V5h2V4c0-1.1.9-2 2-2h12c1 0 2 1 2 2v9.8c-.6-.4-1.3-.6-2-.7V4h-2M5 19h2v-2H5v2m0-6h2v-2H5v2m0-6h2V5H5v2m12 8v3h-3v2h3v3h2v-3h3v-2h-3v-3h-2Z" transform="matrix(1.5 0 0 1.5 0 36)" id="mdi-notebook-plus-outline" fill="#555"/><path d="M17 4v6l-2-2-2 2V4H9v16h3.1c.1.7.4 1.4.7 2H7c-1.1 0-2-1-2-2v-1H3v-2h2v-4H3v-2h2V7H3V5h2V4c0-1.1.9-2 2-2h12c1 0 2 1 2 2v9.8c-.6-.4-1.3-.6-2-.7V4h-2M5 19h2v-2H5v2m0-6h2v-2H5v2m0-6h2V5H5v2m12 8v3h-3v2h3v3h2v-3h3v-2h-3v-3h-2Z" transform="matrix(1.5 0 0 1.5 36 36)" id="mdi-notebook-plus-outline" fill="#fff"/><path d="M3 7V5h2V4c0-1.1.9-2 2-2h6v7l2.5-1.5L18 9V2h1c1 0 2 1 2 2v9.8c-.9-.5-1.9-.8-3-.8-3.3 0-6 2.7-6 6 0 1.1.3 2.1.8 3H7c-1.1 0-2-1-2-2v-1H3v-2h2v-4H3v-2h2V7H3m2-2v2h2V5H5m0 14h2v-2H5v2m0-6h2v-2H5v2m15.1 2.5L18 17.6l-2.1-2.1-1.4 1.4 2.1 2.1-2.1 2.1 1.4 1.4 2.1-2.1 2.1 2.1 1.4-1.4-2.1-2.1 2.1-2.1-1.4-1.4Z" transform="matrix(1.5 0 0 1.5 72 36)" id="mdi-notebook-remove" fill="#555"/><path d="M3 7V5h2V4c0-1.1.9-2 2-2h6v7l2.5-1.5L18 9V2h1c1 0 2 1 2 2v9.8c-.9-.5-1.9-.8-3-.8-3.3 0-6 2.7-6 6 0 1.1.3 2.1.8 3H7c-1.1 0-2-1-2-2v-1H3v-2h2v-4H3v-2h2V7H3m2-2v2h2V5H5m0 14h2v-2H5v2m0-6h2v-2H5v2m15.1 2.5L18 17.6l-2.1-2.1-1.4 1.4 2.1 2.1-2.1 2.1 1.4 1.4 2.1-2.1 2.1 2.1 1.4-1.4-2.1-2.1 2.1-2.1-1.4-1.4Z" transform="matrix(1.5 0 0 1.5 108 36)" id="mdi-notebook-remove" fill="#fff"/><path d="M17 4v6l-2-2-2 2V4H9v16h3.1c.1.7.4 1.4.7 2H7c-1.1 0-2-1-2-2v-1H3v-2h2v-4H3v-2h2V7H3V5h2V4c0-1.1.9-2 2-2h12c1 0 2 1 2 2v9.8c-.6-.4-1.3-.6-2-.7V4h-2M5 19h2v-2H5v2m0-6h2v-2H5v2m0-6h2V5H5v2m15.1 8.5L18 17.6l-2.1-2.1-1.4 1.4 2.1 2.1-2.1 2.1 1.4 1.4 2.1-2.1 2.1 2.1 1.4-1.4-2.1-2.1 2.1-2.1-1.4-1.4Z" transform="matrix(1.5 0 0 1.5 144 36)" id="mdi-notebook-remove-outline" fill="#555"/><path d="M17 4v6l-2-2-2 2V4H9v16h3.1c.1.7.4 1.4.7 2H7c-1.1 0-2-1-2-2v-1H3v-2h2v-4H3v-2h2V7H3V5h2V4c0-1.1.9-2 2-2h12c1 0 2 1 2 2v9.8c-.6-.4-1.3-.6-2-.7V4h-2M5 19h2v-2H5v2m0-6h2v-2H5v2m0-6h2V5H5v2m15.1 8.5L18 17.6l-2.1-2.1-1.4 1.4 2.1 2.1-2.1 2.1 1.4 1.4 2.1-2.1 2.1 2.1 1.4-1.4-2.1-2.1 2.1-2.1-1.4-1.4Z" transform="matrix(1.5 0 0 1.5 180 36)" id="mdi-notebook-remove-outline" fill="#fff"/><path d="M5 13h14v-2H5m-2 6h14v-2H3m4-8v2h14V7" transform="matrix(1.5 0 0 1.5 216 36)" id="mdi-notification-clear-all" fill="#555"/><path d="M5 13h14v-2H5m-2 6h14v-2H3m4-8v2h14V7" transform="matrix(1.5 0 0 1.5 252 36)" id="mdi-notification-clear-all" fill="#fff"/><path d="M4 10v4h2v-3h1v3h1v-4H4m5 0v5h2v-1h2v-4H9m3 1v2h-1v-2h1m2-1v4h2v-3h1v3h1v-3h1v3h1v-4h-6M3 9h18v6h-9v1H8v-1H3V9Z" transform="matrix(1.5 0 0 1.5 288 36)" id="mdi-npm" fill="#555"/><path d="M4 10v4h2v-3h1v3h1v-4H4m5 0v5h2v-1h2v-4H9m3 1v2h-1v-2h1m2-1v4h2v-3h1v3h1v-3h1v3h1v-4h-6M3 9h18v6h-9v1H8v-1H3V9Z" transform="matrix(1.5 0 0 1.5 324 36)" id="mdi-npm" fill="#fff"/><path d="M14.04 12H10v-1H5.5A3.5 3.5 0 0 1 2 7.5 3.5 3.5 0 0 1 5.5 4c1.03 0 1.95.44 2.59 1.15C8.5 3.35 10.08 2 12 2c1.92 0 3.5 1.35 3.91 3.15C16.55 4.44 17.47 4 18.5 4A3.5 3.5 0 0 1 22 7.5a3.5 3.5 0 0 1-3.5 3.5h-4.46v1M10 16.9v-1.14H5v-2h14v2h-4.96v1.16L20 19.08c.58.21 1 .76 1 1.42a1.5 1.5 0 0 1-1.5 1.5h-15A1.5 1.5 0 0 1 3 20.5c0-.66.42-1.21 1-1.42l6-2.18Z" transform="matrix(1.5 0 0 1.5 360 36)" id="mdi-nuke" fill="#555"/><path d="M14.04 12H10v-1H5.5A3.5 3.5 0 0 1 2 7.5 3.5 3.5 0 0 1 5.5 4c1.03 0 1.95.44 2.59 1.15C8.5 3.35 10.08 2 12 2c1.92 0 3.5 1.35 3.91 3.15C16.55 4.44 17.47 4 18.5 4A3.5 3.5 0 0 1 22 7.5a3.5 3.5 0 0 1-3.5 3.5h-4.46v1M10 16.9v-1.14H5v-2h14v2h-4.96v1.16L20 19.08c.58.21 1 .76 1 1.42a1.5 1.5 0 0 1-1.5 1.5h-15A1.5 1.5 0 0 1 3 20.5c0-.66.42-1.21 1-1.42l6-2.18Z" transform="matrix(1.5 0 0 1.5 396 36)" id="mdi-nuke" fill="#fff"/><path d="M12 2c1.85 0 3.55.78 4.9 2.1l1.7-2.17 1.58 1.23-1.98 2.52C19.33 7.41 20 9.6 20 12c0 5.5-3.58 10-8 10-1.85 0-3.55-.78-4.9-2.1l-1.7 2.17-1.58-1.23 1.98-2.52C4.67 16.59 4 14.4 4 12 4 6.5 7.58 2 12 2m0 2c-3.31 0-6 3.58-6 8 0 1.73.41 3.33 1.11 4.64l8.56-10.97C14.66 4.62 13.38 4 12 4m0 16c3.31 0 6-3.58 6-8 0-1.73-.41-3.33-1.11-4.64L8.33 18.33C9.34 19.38 10.62 20 12 20Z" transform="matrix(1.5 0 0 1.5 432 36)" id="mdi-null" fill="#555"/><path d="M12 2c1.85 0 3.55.78 4.9 2.1l1.7-2.17 1.58 1.23-1.98 2.52C19.33 7.41 20 9.6 20 12c0 5.5-3.58 10-8 10-1.85 0-3.55-.78-4.9-2.1l-1.7 2.17-1.58-1.23 1.98-2.52C4.67 16.59 4 14.4 4 12 4 6.5 7.58 2 12 2m0 2c-3.31 0-6 3.58-6 8 0 1.73.41 3.33 1.11 4.64l8.56-10.97C14.66 4.62 13.38 4 12 4m0 16c3.31 0 6-3.58 6-8 0-1.73-.41-3.33-1.11-4.64L8.33 18.33C9.34 19.38 10.62 20 12 20Z" transform="matrix(1.5 0 0 1.5 468 36)" id="mdi-null" fill="#fff"/><path d="M4 17V9H2V7h4v10H4m18-2a2 2 0 0 1-2 2h-4v-2h4v-2h-2v-2h2V9h-4V7h4a2 2 0 0 1 2 2v1.5a1.5 1.5 0 0 1-1.5 1.5 1.5 1.5 0 0 1 1.5 1.5V15m-8 0v2H8v-4a2 2 0 0 1 2-2h2V9H8V7h4a2 2 0 0 1 2 2v2a2 2 0 0 1-2 2h-2v2h4Z" transform="matrix(1.5 0 0 1.5 504 36)" id="mdi-numeric" fill="#555"/><path d="M4 17V9H2V7h4v10H4m18-2a2 2 0 0 1-2 2h-4v-2h4v-2h-2v-2h2V9h-4V7h4a2 2 0 0 1 2 2v1.5a1.5 1.5 0 0 1-1.5 1.5 1.5 1.5 0 0 1 1.5 1.5V15m-8 0v2H8v-4a2 2 0 0 1 2-2h2V9H8V7h4a2 2 0 0 1 2 2v2a2 2 0 0 1-2 2h-2v2h4Z" transform="matrix(1.5 0 0 1.5 540 36)" id="mdi-numeric" fill="#fff"/><path d="M11 7a2 2 0 0 0-2 2v6a2 2 0 0 0 2 2h2a2 2 0 0 0 2-2V9a2 2 0 0 0-2-2h-2m0 2h2v6h-2V9Z" transform="matrix(1.5 0 0 1.5 576 36)" id="mdi-numeric-0" fill="#555"/><path d="M11 7a2 2 0 0 0-2 2v6a2 2 0 0 0 2 2h2a2 2 0 0 0 2-2V9a2 2 0 0 0-2-2h-2m0 2h2v6h-2V9Z" transform="matrix(1.5 0 0 1.5 612 36)" id="mdi-numeric-0" fill="#fff"/><path d="M19 3a2 2 0 0 1 2 2v14a2 2 0 0 1-2 2H5a2 2 0 0 1-2-2V5a2 2 0 0 1 2-2h14m-8 4a2 2 0 0 0-2 2v6a2 2 0 0 0 2 2h2a2 2 0 0 0 2-2V9a2 2 0 0 0-2-2h-2m0 2h2v6h-2V9Z" transform="matrix(1.5 0 0 1.5 648 36)" id="mdi-numeric-0-box" fill="#555"/><path d="M19 3a2 2 0 0 1 2 2v14a2 2 0 0 1-2 2H5a2 2 0 0 1-2-2V5a2 2 0 0 1 2-2h14m-8 4a2 2 0 0 0-2 2v6a2 2 0 0 0 2 2h2a2 2 0 0 0 2-2V9a2 2 0 0 0-2-2h-2m0 2h2v6h-2V9Z" transform="matrix(1.5 0 0 1.5 684 36)" id="mdi-numeric-0-box" fill="#fff"/><path d="M3 5v16h16v2H3a2 2 0 0 1-2-2V5h2m18-4a2 2 0 0 1 2 2v14a2 2 0 0 1-2 2H7a2 2 0 0 1-2-2V3a2 2 0 0 1 2-2h14m-8 4a2 2 0 0 0-2 2v6a2 2 0 0 0 2 2h2a2 2 0 0 0 2-2V7a2 2 0 0 0-2-2h-2m0 2h2v6h-2V7Z" transform="matrix(1.5 0 0 1.5 0 72)" id="mdi-numeric-0-box-multiple" fill="#555"/><path d="M3 5v16h16v2H3a2 2 0 0 1-2-2V5h2m18-4a2 2 0 0 1 2 2v14a2 2 0 0 1-2 2H7a2 2 0 0 1-2-2V3a2 2 0 0 1 2-2h14m-8 4a2 2 0 0 0-2 2v6a2 2 0 0 0 2 2h2a2 2 0 0 0 2-2V7a2 2 0 0 0-2-2h-2m0 2h2v6h-2V7Z" transform="matrix(1.5 0 0 1.5 36 72)" id="mdi-numeric-0-box-multiple" fill="#fff"/><path d="M21 17V3H7v14h14m0-16a2 2 0 0 1 2 2v14a2 2 0 0 1-2 2H7a2 2 0 0 1-2-2V3a2 2 0 0 1 2-2h14M3 5v16h16v2H3a2 2 0 0 1-2-2V5h2m10 0h2a2 2 0 0 1 2 2v6a2 2 0 0 1-2 2h-2a2 2 0 0 1-2-2V7a2 2 0 0 1 2-2m0 2v6h2V7h-2Z" transform="matrix(1.5 0 0 1.5 72 72)" id="mdi-numeric-0-box-multiple-outline" fill="#555"/><path d="M21 17V3H7v14h14m0-16a2 2 0 0 1 2 2v14a2 2 0 0 1-2 2H7a2 2 0 0 1-2-2V3a2 2 0 0 1 2-2h14M3 5v16h16v2H3a2 2 0 0 1-2-2V5h2m10 0h2a2 2 0 0 1 2 2v6a2 2 0 0 1-2 2h-2a2 2 0 0 1-2-2V7a2 2 0 0 1 2-2m0 2v6h2V7h-2Z" transform="matrix(1.5 0 0 1.5 108 72)" id="mdi-numeric-0-box-multiple-outline" fill="#fff"/><path d="M19 19V5H5v14h14m0-16a2 2 0 0 1 2 2v14a2 2 0 0 1-2 2H5a2 2 0 0 1-2-2V5a2 2 0 0 1 2-2h14m-8 4h2a2 2 0 0 1 2 2v6a2 2 0 0 1-2 2h-2a2 2 0 0 1-2-2V9a2 2 0 0 1 2-2m0 2v6h2V9h-2Z" transform="matrix(1.5 0 0 1.5 144 72)" id="mdi-numeric-0-box-outline" fill="#555"/><path d="M19 19V5H5v14h14m0-16a2 2 0 0 1 2 2v14a2 2 0 0 1-2 2H5a2 2 0 0 1-2-2V5a2 2 0 0 1 2-2h14m-8 4h2a2 2 0 0 1 2 2v6a2 2 0 0 1-2 2h-2a2 2 0 0 1-2-2V9a2 2 0 0 1 2-2m0 2v6h2V9h-2Z" transform="matrix(1.5 0 0 1.5 180 72)" id="mdi-numeric-0-box-outline" fill="#fff"/><path d="M11 7a2 2 0 0 0-2 2v6a2 2 0 0 0 2 2h2a2 2 0 0 0 2-2V9a2 2 0 0 0-2-2h-2m0 2h2v6h-2V9m1-7a10 10 0 0 1 10 10 10 10 0 0 1-10 10A10 10 0 0 1 2 12 10 10 0 0 1 12 2Z" transform="matrix(1.5 0 0 1.5 216 72)" id="mdi-numeric-0-circle" fill="#555"/><path d="M11 7a2 2 0 0 0-2 2v6a2 2 0 0 0 2 2h2a2 2 0 0 0 2-2V9a2 2 0 0 0-2-2h-2m0 2h2v6h-2V9m1-7a10 10 0 0 1 10 10 10 10 0 0 1-10 10A10 10 0 0 1 2 12 10 10 0 0 1 12 2Z" transform="matrix(1.5 0 0 1.5 252 72)" id="mdi-numeric-0-circle" fill="#fff"/><path d="M11 7h2a2 2 0 0 1 2 2v6a2 2 0 0 1-2 2h-2a2 2 0 0 1-2-2V9a2 2 0 0 1 2-2m0 2v6h2V9h-2m1-7a10 10 0 0 1 10 10 10 10 0 0 1-10 10A10 10 0 0 1 2 12 10 10 0 0 1 12 2m0 2a8 8 0 0 0-8 8 8 8 0 0 0 8 8 8 8 0 0 0 8-8 8 8 0 0 0-8-8Z" transform="matrix(1.5 0 0 1.5 288 72)" id="mdi-numeric-0-circle-outline" fill="#555"/><path d="M11 7h2a2 2 0 0 1 2 2v6a2 2 0 0 1-2 2h-2a2 2 0 0 1-2-2V9a2 2 0 0 1 2-2m0 2v6h2V9h-2m1-7a10 10 0 0 1 10 10 10 10 0 0 1-10 10A10 10 0 0 1 2 12 10 10 0 0 1 12 2m0 2a8 8 0 0 0-8 8 8 8 0 0 0 8 8 8 8 0 0 0 8-8 8 8 0 0 0-8-8Z" transform="matrix(1.5 0 0 1.5 324 72)" id="mdi-numeric-0-circle-outline" fill="#fff"/><path d="M10 7v2h2v8h2V7h-4Z" transform="matrix(1.5 0 0 1.5 360 72)" id="mdi-numeric-1" fill="#555"/><path d="M10 7v2h2v8h2V7h-4Z" transform="matrix(1.5 0 0 1.5 396 72)" id="mdi-numeric-1" fill="#fff"/><path d="M14 17h-2V9h-2V7h4m5-4H5a2 2 0 0 0-2 2v14a2 2 0 0 0 2 2h14a2 2 0 0 0 2-2V5a2 2 0 0 0-2-2Z" transform="matrix(1.5 0 0 1.5 432 72)" id="mdi-numeric-1-box" fill="#555"/><path d="M14 17h-2V9h-2V7h4m5-4H5a2 2 0 0 0-2 2v14a2 2 0 0 0 2 2h14a2 2 0 0 0 2-2V5a2 2 0 0 0-2-2Z" transform="matrix(1.5 0 0 1.5 468 72)" id="mdi-numeric-1-box" fill="#fff"/><path d="M3 5v16h16v2H3a2 2 0 0 1-2-2V5h2m18-4a2 2 0 0 1 2 2v14a2 2 0 0 1-2 2H7a2 2 0 0 1-2-2V3a2 2 0 0 1 2-2h14m-7 14h2V5h-4v2h2v8Z" transform="matrix(1.5 0 0 1.5 504 72)" id="mdi-numeric-1-box-multiple" fill="#555"/><path d="M3 5v16h16v2H3a2 2 0 0 1-2-2V5h2m18-4a2 2 0 0 1 2 2v14a2 2 0 0 1-2 2H7a2 2 0 0 1-2-2V3a2 2 0 0 1 2-2h14m-7 14h2V5h-4v2h2v8Z" transform="matrix(1.5 0 0 1.5 540 72)" id="mdi-numeric-1-box-multiple" fill="#fff"/><path d="M21 17H7V3h14m0-2H7a2 2 0 0 0-2 2v14a2 2 0 0 0 2 2h14a2 2 0 0 0 2-2V3a2 2 0 0 0-2-2m-7 14h2V5h-4v2h2M3 5H1v16a2 2 0 0 0 2 2h16v-2H3V5Z" transform="matrix(1.5 0 0 1.5 576 72)" id="mdi-numeric-1-box-multiple-outline" fill="#555"/><path d="M21 17H7V3h14m0-2H7a2 2 0 0 0-2 2v14a2 2 0 0 0 2 2h14a2 2 0 0 0 2-2V3a2 2 0 0 0-2-2m-7 14h2V5h-4v2h2M3 5H1v16a2 2 0 0 0 2 2h16v-2H3V5Z" transform="matrix(1.5 0 0 1.5 612 72)" id="mdi-numeric-1-box-multiple-outline" fill="#fff"/><path d="M19 19H5V5h14m0-2H5a2 2 0 0 0-2 2v14a2 2 0 0 0 2 2h14a2 2 0 0 0 2-2V5a2 2 0 0 0-2-2m-7 14h2V7h-4v2h2" transform="matrix(1.5 0 0 1.5 648 72)" id="mdi-numeric-1-box-outline" fill="#555"/><path d="M19 19H5V5h14m0-2H5a2 2 0 0 0-2 2v14a2 2 0 0 0 2 2h14a2 2 0 0 0 2-2V5a2 2 0 0 0-2-2m-7 14h2V7h-4v2h2" transform="matrix(1.5 0 0 1.5 684 72)" id="mdi-numeric-1-box-outline" fill="#fff"/><path d="M10 7v2h2v8h2V7h-4m2-5a10 10 0 0 1 10 10 10 10 0 0 1-10 10A10 10 0 0 1 2 12 10 10 0 0 1 12 2Z" transform="matrix(1.5 0 0 1.5 0 108)" id="mdi-numeric-1-circle" fill="#555"/><path d="M10 7v2h2v8h2V7h-4m2-5a10 10 0 0 1 10 10 10 10 0 0 1-10 10A10 10 0 0 1 2 12 10 10 0 0 1 12 2Z" transform="matrix(1.5 0 0 1.5 36 108)" id="mdi-numeric-1-circle" fill="#fff"/><path d="M10 7h4v10h-2V9h-2V7m2-5a10 10 0 0 1 10 10 10 10 0 0 1-10 10A10 10 0 0 1 2 12 10 10 0 0 1 12 2m0 2a8 8 0 0 0-8 8 8 8 0 0 0 8 8 8 8 0 0 0 8-8 8 8 0 0 0-8-8Z" transform="matrix(1.5 0 0 1.5 72 108)" id="mdi-numeric-1-circle-outline" fill="#555"/><path d="M10 7h4v10h-2V9h-2V7m2-5a10 10 0 0 1 10 10 10 10 0 0 1-10 10A10 10 0 0 1 2 12 10 10 0 0 1 12 2m0 2a8 8 0 0 0-8 8 8 8 0 0 0 8 8 8 8 0 0 0 8-8 8 8 0 0 0-8-8Z" transform="matrix(1.5 0 0 1.5 108 108)" id="mdi-numeric-1-circle-outline" fill="#fff"/><path d="M10 7H6v2h2v8h2V7m6 0h-2c-1.1 0-2 .9-2 2v6a2 2 0 0 0 2 2h2c1.11 0 2-.89 2-2V9a2 2 0 0 0-2-2m0 8h-2V9h2v6Z" transform="matrix(1.5 0 0 1.5 144 108)" id="mdi-numeric-10" fill="#555"/><path d="M10 7H6v2h2v8h2V7m6 0h-2c-1.1 0-2 .9-2 2v6a2 2 0 0 0 2 2h2c1.11 0 2-.89 2-2V9a2 2 0 0 0-2-2m0 8h-2V9h2v6Z" transform="matrix(1.5 0 0 1.5 180 108)" id="mdi-numeric-10" fill="#fff"/><path d="M14 9h2v6h-2V9m7-4v14c0 1.11-.89 2-2 2H5a2 2 0 0 1-2-2V5a2 2 0 0 1 2-2h14a2 2 0 0 1 2 2M10 7H6v2h2v8h2V7m8 2a2 2 0 0 0-2-2h-2a2 2 0 0 0-2 2v6a2 2 0 0 0 2 2h2c1.11 0 2-.89 2-2V9Z" transform="matrix(1.5 0 0 1.5 216 108)" id="mdi-numeric-10-box" fill="#555"/><path d="M14 9h2v6h-2V9m7-4v14c0 1.11-.89 2-2 2H5a2 2 0 0 1-2-2V5a2 2 0 0 1 2-2h14a2 2 0 0 1 2 2M10 7H6v2h2v8h2V7m8 2a2 2 0 0 0-2-2h-2a2 2 0 0 0-2 2v6a2 2 0 0 0 2 2h2c1.11 0 2-.89 2-2V9Z" transform="matrix(1.5 0 0 1.5 252 108)" id="mdi-numeric-10-box" fill="#fff"/><path d="M3 5v16h16v2H3a2 2 0 0 1-2-2V5h2m13 8h2V7h-2v6m5-12H7c-1.1 0-2 .9-2 2v14a2 2 0 0 0 2 2h14c1.11 0 2-.89 2-2V3a2 2 0 0 0-2-2m-9 14h-2V7H8V5h4v10m8-2c0 1.11-.89 2-2 2h-2a2 2 0 0 1-2-2V7c0-1.1.9-2 2-2h2a2 2 0 0 1 2 2v6Z" transform="matrix(1.5 0 0 1.5 288 108)" id="mdi-numeric-10-box-multiple" fill="#555"/><path d="M3 5v16h16v2H3a2 2 0 0 1-2-2V5h2m13 8h2V7h-2v6m5-12H7c-1.1 0-2 .9-2 2v14a2 2 0 0 0 2 2h14c1.11 0 2-.89 2-2V3a2 2 0 0 0-2-2m-9 14h-2V7H8V5h4v10m8-2c0 1.11-.89 2-2 2h-2a2 2 0 0 1-2-2V7c0-1.1.9-2 2-2h2a2 2 0 0 1 2 2v6Z" transform="matrix(1.5 0 0 1.5 324 108)" id="mdi-numeric-10-box-multiple" fill="#fff"/><path d="M21 17V3H7v14h14m0-16a2 2 0 0 1 2 2v14c0 1.11-.89 2-2 2H7a2 2 0 0 1-2-2V3c0-1.1.9-2 2-2h14M3 5v16h16v2H3a2 2 0 0 1-2-2V5h2m9 0H8v2h2v8h2V5m6 0h-2c-1.1 0-2 .9-2 2v6a2 2 0 0 0 2 2h2c1.11 0 2-.89 2-2V7a2 2 0 0 0-2-2m0 8h-2V7h2v6Z" transform="matrix(1.5 0 0 1.5 360 108)" id="mdi-numeric-10-box-multiple-outline" fill="#555"/><path d="M21 17V3H7v14h14m0-16a2 2 0 0 1 2 2v14c0 1.11-.89 2-2 2H7a2 2 0 0 1-2-2V3c0-1.1.9-2 2-2h14M3 5v16h16v2H3a2 2 0 0 1-2-2V5h2m9 0H8v2h2v8h2V5m6 0h-2c-1.1 0-2 .9-2 2v6a2 2 0 0 0 2 2h2c1.11 0 2-.89 2-2V7a2 2 0 0 0-2-2m0 8h-2V7h2v6Z" transform="matrix(1.5 0 0 1.5 396 108)" id="mdi-numeric-10-box-multiple-outline" fill="#fff"/><path d="M19 19H5V5h14m0-2H5a2 2 0 0 0-2 2v14a2 2 0 0 0 2 2h14c1.11 0 2-.89 2-2V5a2 2 0 0 0-2-2M8 17h2V7H6v2h2m6-2h2a2 2 0 0 1 2 2v6c0 1.11-.89 2-2 2h-2a2 2 0 0 1-2-2V9a2 2 0 0 1 2-2m0 2v6h2V9h-2Z" transform="matrix(1.5 0 0 1.5 432 108)" id="mdi-numeric-10-box-outline" fill="#555"/><path d="M19 19H5V5h14m0-2H5a2 2 0 0 0-2 2v14a2 2 0 0 0 2 2h14c1.11 0 2-.89 2-2V5a2 2 0 0 0-2-2M8 17h2V7H6v2h2m6-2h2a2 2 0 0 1 2 2v6c0 1.11-.89 2-2 2h-2a2 2 0 0 1-2-2V9a2 2 0 0 1 2-2m0 2v6h2V9h-2Z" transform="matrix(1.5 0 0 1.5 468 108)" id="mdi-numeric-10-box-outline" fill="#fff"/><path d="M14 9h2v6h-2V9m8 3c0 5.5-4.5 10-10 10S2 17.5 2 12 6.5 2 12 2s10 4.5 10 10M10 7H6v2h2v8h2V7m8 2a2 2 0 0 0-2-2h-2c-1.1 0-2 .9-2 2v6a2 2 0 0 0 2 2h2c1.11 0 2-.89 2-2V9Z" transform="matrix(1.5 0 0 1.5 504 108)" id="mdi-numeric-10-circle" fill="#555"/><path d="M14 9h2v6h-2V9m8 3c0 5.5-4.5 10-10 10S2 17.5 2 12 6.5 2 12 2s10 4.5 10 10M10 7H6v2h2v8h2V7m8 2a2 2 0 0 0-2-2h-2c-1.1 0-2 .9-2 2v6a2 2 0 0 0 2 2h2c1.11 0 2-.89 2-2V9Z" transform="matrix(1.5 0 0 1.5 540 108)" id="mdi-numeric-10-circle" fill="#fff"/><path d="M12 2c5.5 0 10 4.5 10 10s-4.5 10-10 10S2 17.5 2 12 6.5 2 12 2m0 2c-4.42 0-8 3.58-8 8s3.58 8 8 8 8-3.58 8-8-3.58-8-8-8m-2 3H6v2h2v8h2V7m6 0h-2c-1.1 0-2 .9-2 2v6a2 2 0 0 0 2 2h2c1.11 0 2-.89 2-2V9a2 2 0 0 0-2-2m0 8h-2V9h2v6Z" transform="matrix(1.5 0 0 1.5 576 108)" id="mdi-numeric-10-circle-outline" fill="#555"/><path d="M12 2c5.5 0 10 4.5 10 10s-4.5 10-10 10S2 17.5 2 12 6.5 2 12 2m0 2c-4.42 0-8 3.58-8 8s3.58 8 8 8 8-3.58 8-8-3.58-8-8-8m-2 3H6v2h2v8h2V7m6 0h-2c-1.1 0-2 .9-2 2v6a2 2 0 0 0 2 2h2c1.11 0 2-.89 2-2V9a2 2 0 0 0-2-2m0 8h-2V9h2v6Z" transform="matrix(1.5 0 0 1.5 612 108)" id="mdi-numeric-10-circle-outline" fill="#fff"/><path d="M9 7v2h4v2h-2a2 2 0 0 0-2 2v4h6v-2h-4v-2h2a2 2 0 0 0 2-2V9a2 2 0 0 0-2-2H9Z" transform="matrix(1.5 0 0 1.5 648 108)" id="mdi-numeric-2" fill="#555"/><path d="M9 7v2h4v2h-2a2 2 0 0 0-2 2v4h6v-2h-4v-2h2a2 2 0 0 0 2-2V9a2 2 0 0 0-2-2H9Z" transform="matrix(1.5 0 0 1.5 684 108)" id="mdi-numeric-2" fill="#fff"/><path d="M15 11a2 2 0 0 1-2 2h-2v2h4v2H9v-4a2 2 0 0 1 2-2h2V9H9V7h4a2 2 0 0 1 2 2m4-6H5a2 2 0 0 0-2 2v14a2 2 0 0 0 2 2h14a2 2 0 0 0 2-2V5a2 2 0 0 0-2-2Z" transform="matrix(1.5 0 0 1.5 0 144)" id="mdi-numeric-2-box" fill="#555"/><path d="M15 11a2 2 0 0 1-2 2h-2v2h4v2H9v-4a2 2 0 0 1 2-2h2V9H9V7h4a2 2 0 0 1 2 2m4-6H5a2 2 0 0 0-2 2v14a2 2 0 0 0 2 2h14a2 2 0 0 0 2-2V5a2 2 0 0 0-2-2Z" transform="matrix(1.5 0 0 1.5 36 144)" id="mdi-numeric-2-box" fill="#fff"/><path d="M3 5v16h16v2H3a2 2 0 0 1-2-2V5h2m14 8h-4v-2h2a2 2 0 0 0 2-2V7a2 2 0 0 0-2-2h-4v2h4v2h-2a2 2 0 0 0-2 2v4h6v-2m4-12a2 2 0 0 1 2 2v14a2 2 0 0 1-2 2H7a2 2 0 0 1-2-2V3a2 2 0 0 1 2-2h14Z" transform="matrix(1.5 0 0 1.5 72 144)" id="mdi-numeric-2-box-multiple" fill="#555"/><path d="M3 5v16h16v2H3a2 2 0 0 1-2-2V5h2m14 8h-4v-2h2a2 2 0 0 0 2-2V7a2 2 0 0 0-2-2h-4v2h4v2h-2a2 2 0 0 0-2 2v4h6v-2m4-12a2 2 0 0 1 2 2v14a2 2 0 0 1-2 2H7a2 2 0 0 1-2-2V3a2 2 0 0 1 2-2h14Z" transform="matrix(1.5 0 0 1.5 108 144)" id="mdi-numeric-2-box-multiple" fill="#fff"/><path d="M17 13h-4v-2h2a2 2 0 0 0 2-2V7a2 2 0 0 0-2-2h-4v2h4v2h-2a2 2 0 0 0-2 2v4h6m4 2H7V3h14m0-2H7a2 2 0 0 0-2 2v14a2 2 0 0 0 2 2h14a2 2 0 0 0 2-2V3a2 2 0 0 0-2-2M3 5H1v16a2 2 0 0 0 2 2h16v-2H3V5Z" transform="matrix(1.5 0 0 1.5 144 144)" id="mdi-numeric-2-box-multiple-outline" fill="#555"/><path d="M17 13h-4v-2h2a2 2 0 0 0 2-2V7a2 2 0 0 0-2-2h-4v2h4v2h-2a2 2 0 0 0-2 2v4h6m4 2H7V3h14m0-2H7a2 2 0 0 0-2 2v14a2 2 0 0 0 2 2h14a2 2 0 0 0 2-2V3a2 2 0 0 0-2-2M3 5H1v16a2 2 0 0 0 2 2h16v-2H3V5Z" transform="matrix(1.5 0 0 1.5 180 144)" id="mdi-numeric-2-box-multiple-outline" fill="#fff"/><path d="M15 15h-4v-2h2a2 2 0 0 0 2-2V9a2 2 0 0 0-2-2H9v2h4v2h-2a2 2 0 0 0-2 2v4h6m4 2H5V5h14m0-2H5a2 2 0 0 0-2 2v14a2 2 0 0 0 2 2h14a2 2 0 0 0 2-2V5a2 2 0 0 0-2-2Z" transform="matrix(1.5 0 0 1.5 216 144)" id="mdi-numeric-2-box-outline" fill="#555"/><path d="M15 15h-4v-2h2a2 2 0 0 0 2-2V9a2 2 0 0 0-2-2H9v2h4v2h-2a2 2 0 0 0-2 2v4h6m4 2H5V5h14m0-2H5a2 2 0 0 0-2 2v14a2 2 0 0 0 2 2h14a2 2 0 0 0 2-2V5a2 2 0 0 0-2-2Z" transform="matrix(1.5 0 0 1.5 252 144)" id="mdi-numeric-2-box-outline" fill="#fff"/><path d="M9 7v2h4v2h-2a2 2 0 0 0-2 2v4h6v-2h-4v-2h2a2 2 0 0 0 2-2V9a2 2 0 0 0-2-2H9m3-5a10 10 0 0 1 10 10 10 10 0 0 1-10 10A10 10 0 0 1 2 12 10 10 0 0 1 12 2Z" transform="matrix(1.5 0 0 1.5 288 144)" id="mdi-numeric-2-circle" fill="#555"/><path d="M9 7v2h4v2h-2a2 2 0 0 0-2 2v4h6v-2h-4v-2h2a2 2 0 0 0 2-2V9a2 2 0 0 0-2-2H9m3-5a10 10 0 0 1 10 10 10 10 0 0 1-10 10A10 10 0 0 1 2 12 10 10 0 0 1 12 2Z" transform="matrix(1.5 0 0 1.5 324 144)" id="mdi-numeric-2-circle" fill="#fff"/><path d="M9 7h4a2 2 0 0 1 2 2v2a2 2 0 0 1-2 2h-2v2h4v2H9v-4a2 2 0 0 1 2-2h2V9H9V7m3-5a10 10 0 0 1 10 10 10 10 0 0 1-10 10A10 10 0 0 1 2 12 10 10 0 0 1 12 2m0 2a8 8 0 0 0-8 8 8 8 0 0 0 8 8 8 8 0 0 0 8-8 8 8 0 0 0-8-8Z" transform="matrix(1.5 0 0 1.5 360 144)" id="mdi-numeric-2-circle-outline" fill="#555"/><path d="M9 7h4a2 2 0 0 1 2 2v2a2 2 0 0 1-2 2h-2v2h4v2H9v-4a2 2 0 0 1 2-2h2V9H9V7m3-5a10 10 0 0 1 10 10 10 10 0 0 1-10 10A10 10 0 0 1 2 12 10 10 0 0 1 12 2m0 2a8 8 0 0 0-8 8 8 8 0 0 0 8 8 8 8 0 0 0 8-8 8 8 0 0 0-8-8Z" transform="matrix(1.5 0 0 1.5 396 144)" id="mdi-numeric-2-circle-outline" fill="#fff"/><path d="M15 15v-1.5a1.5 1.5 0 0 0-1.5-1.5 1.5 1.5 0 0 0 1.5-1.5V9a2 2 0 0 0-2-2H9v2h4v2h-2v2h2v2H9v2h4a2 2 0 0 0 2-2" transform="matrix(1.5 0 0 1.5 432 144)" id="mdi-numeric-3" fill="#555"/><path d="M15 15v-1.5a1.5 1.5 0 0 0-1.5-1.5 1.5 1.5 0 0 0 1.5-1.5V9a2 2 0 0 0-2-2H9v2h4v2h-2v2h2v2H9v2h4a2 2 0 0 0 2-2" transform="matrix(1.5 0 0 1.5 468 144)" id="mdi-numeric-3" fill="#fff"/><path d="M15 10.5a1.5 1.5 0 0 1-1.5 1.5c.84 0 1.5.67 1.5 1.5V15c0 1.11-.89 2-2 2H9v-2h4v-2h-2v-2h2V9H9V7h4c1.11 0 2 .89 2 2m4-6H5c-1.09 0-2 .9-2 2v14a2 2 0 0 0 2 2h14a2 2 0 0 0 2-2V5a2 2 0 0 0-2-2Z" transform="matrix(1.5 0 0 1.5 504 144)" id="mdi-numeric-3-box" fill="#555"/><path d="M15 10.5a1.5 1.5 0 0 1-1.5 1.5c.84 0 1.5.67 1.5 1.5V15c0 1.11-.89 2-2 2H9v-2h4v-2h-2v-2h2V9H9V7h4c1.11 0 2 .89 2 2m4-6H5c-1.09 0-2 .9-2 2v14a2 2 0 0 0 2 2h14a2 2 0 0 0 2-2V5a2 2 0 0 0-2-2Z" transform="matrix(1.5 0 0 1.5 540 144)" id="mdi-numeric-3-box" fill="#fff"/><path d="M3 5v16h16v2H3a2 2 0 0 1-2-2V5h2m14 8v-1.5a1.5 1.5 0 0 0-1.5-1.5A1.5 1.5 0 0 0 17 8.5V7a2 2 0 0 0-2-2h-4v2h4v2h-2v2h2v2h-4v2h4a2 2 0 0 0 2-2m4-12a2 2 0 0 1 2 2v14a2 2 0 0 1-2 2H7a2 2 0 0 1-2-2V3a2 2 0 0 1 2-2h14Z" transform="matrix(1.5 0 0 1.5 576 144)" id="mdi-numeric-3-box-multiple" fill="#555"/><path d="M3 5v16h16v2H3a2 2 0 0 1-2-2V5h2m14 8v-1.5a1.5 1.5 0 0 0-1.5-1.5A1.5 1.5 0 0 0 17 8.5V7a2 2 0 0 0-2-2h-4v2h4v2h-2v2h2v2h-4v2h4a2 2 0 0 0 2-2m4-12a2 2 0 0 1 2 2v14a2 2 0 0 1-2 2H7a2 2 0 0 1-2-2V3a2 2 0 0 1 2-2h14Z" transform="matrix(1.5 0 0 1.5 612 144)" id="mdi-numeric-3-box-multiple" fill="#fff"/><path d="M17 13v-1.5a1.5 1.5 0 0 0-1.5-1.5A1.5 1.5 0 0 0 17 8.5V7a2 2 0 0 0-2-2h-4v2h4v2h-2v2h2v2h-4v2h4a2 2 0 0 0 2-2M3 5H1v16a2 2 0 0 0 2 2h16v-2H3m18-4H7V3h14m0-2H7a2 2 0 0 0-2 2v14a2 2 0 0 0 2 2h14a2 2 0 0 0 2-2V3a2 2 0 0 0-2-2Z" transform="matrix(1.5 0 0 1.5 648 144)" id="mdi-numeric-3-box-multiple-outline" fill="#555"/><path d="M17 13v-1.5a1.5 1.5 0 0 0-1.5-1.5A1.5 1.5 0 0 0 17 8.5V7a2 2 0 0 0-2-2h-4v2h4v2h-2v2h2v2h-4v2h4a2 2 0 0 0 2-2M3 5H1v16a2 2 0 0 0 2 2h16v-2H3m18-4H7V3h14m0-2H7a2 2 0 0 0-2 2v14a2 2 0 0 0 2 2h14a2 2 0 0 0 2-2V3a2 2 0 0 0-2-2Z" transform="matrix(1.5 0 0 1.5 684 144)" id="mdi-numeric-3-box-multiple-outline" fill="#fff"/><path d="M15 15v-1.5a1.5 1.5 0 0 0-1.5-1.5 1.5 1.5 0 0 0 1.5-1.5V9a2 2 0 0 0-2-2H9v2h4v2h-2v2h2v2H9v2h4a2 2 0 0 0 2-2m4 4H5V5h14m0-2H5a2 2 0 0 0-2 2v14a2 2 0 0 0 2 2h14a2 2 0 0 0 2-2V5a2 2 0 0 0-2-2Z" transform="matrix(1.5 0 0 1.5 0 180)" id="mdi-numeric-3-box-outline" fill="#555"/><path d="M15 15v-1.5a1.5 1.5 0 0 0-1.5-1.5 1.5 1.5 0 0 0 1.5-1.5V9a2 2 0 0 0-2-2H9v2h4v2h-2v2h2v2H9v2h4a2 2 0 0 0 2-2m4 4H5V5h14m0-2H5a2 2 0 0 0-2 2v14a2 2 0 0 0 2 2h14a2 2 0 0 0 2-2V5a2 2 0 0 0-2-2Z" transform="matrix(1.5 0 0 1.5 36 180)" id="mdi-numeric-3-box-outline" fill="#fff"/><path d="M15 15v-1.5a1.5 1.5 0 0 0-1.5-1.5 1.5 1.5 0 0 0 1.5-1.5V9a2 2 0 0 0-2-2H9v2h4v2h-2v2h2v2H9v2h4a2 2 0 0 0 2-2M12 2a10 10 0 0 1 10 10 10 10 0 0 1-10 10A10 10 0 0 1 2 12 10 10 0 0 1 12 2Z" transform="matrix(1.5 0 0 1.5 72 180)" id="mdi-numeric-3-circle" fill="#555"/><path d="M15 15v-1.5a1.5 1.5 0 0 0-1.5-1.5 1.5 1.5 0 0 0 1.5-1.5V9a2 2 0 0 0-2-2H9v2h4v2h-2v2h2v2H9v2h4a2 2 0 0 0 2-2M12 2a10 10 0 0 1 10 10 10 10 0 0 1-10 10A10 10 0 0 1 2 12 10 10 0 0 1 12 2Z" transform="matrix(1.5 0 0 1.5 108 180)" id="mdi-numeric-3-circle" fill="#fff"/><path d="M15 15a2 2 0 0 1-2 2H9v-2h4v-2h-2v-2h2V9H9V7h4a2 2 0 0 1 2 2v1.5a1.5 1.5 0 0 1-1.5 1.5 1.5 1.5 0 0 1 1.5 1.5V15M12 2a10 10 0 0 1 10 10 10 10 0 0 1-10 10A10 10 0 0 1 2 12 10 10 0 0 1 12 2m0 2a8 8 0 0 0-8 8 8 8 0 0 0 8 8 8 8 0 0 0 8-8 8 8 0 0 0-8-8Z" transform="matrix(1.5 0 0 1.5 144 180)" id="mdi-numeric-3-circle-outline" fill="#555"/><path d="M15 15a2 2 0 0 1-2 2H9v-2h4v-2h-2v-2h2V9H9V7h4a2 2 0 0 1 2 2v1.5a1.5 1.5 0 0 1-1.5 1.5 1.5 1.5 0 0 1 1.5 1.5V15M12 2a10 10 0 0 1 10 10 10 10 0 0 1-10 10A10 10 0 0 1 2 12 10 10 0 0 1 12 2m0 2a8 8 0 0 0-8 8 8 8 0 0 0 8 8 8 8 0 0 0 8-8 8 8 0 0 0-8-8Z" transform="matrix(1.5 0 0 1.5 180 180)" id="mdi-numeric-3-circle-outline" fill="#fff"/><path d="M9 7v6h4v4h2V7h-2v4h-2V7H9Z" transform="matrix(1.5 0 0 1.5 216 180)" id="mdi-numeric-4" fill="#555"/><path d="M9 7v6h4v4h2V7h-2v4h-2V7H9Z" transform="matrix(1.5 0 0 1.5 252 180)" id="mdi-numeric-4" fill="#fff"/><path d="M15 17h-2v-4H9V7h2v4h2V7h2m4-4H5a2 2 0 0 0-2 2v14a2 2 0 0 0 2 2h14a2 2 0 0 0 2-2V5a2 2 0 0 0-2-2Z" transform="matrix(1.5 0 0 1.5 288 180)" id="mdi-numeric-4-box" fill="#555"/><path d="M15 17h-2v-4H9V7h2v4h2V7h2m4-4H5a2 2 0 0 0-2 2v14a2 2 0 0 0 2 2h14a2 2 0 0 0 2-2V5a2 2 0 0 0-2-2Z" transform="matrix(1.5 0 0 1.5 324 180)" id="mdi-numeric-4-box" fill="#fff"/><path d="M3 5v16h16v2H3a2 2 0 0 1-2-2V5h2m18-4a2 2 0 0 1 2 2v14a2 2 0 0 1-2 2H7a2 2 0 0 1-2-2V3a2 2 0 0 1 2-2h14m-6 14h2V5h-2v4h-2V5h-2v6h4v4Z" transform="matrix(1.5 0 0 1.5 360 180)" id="mdi-numeric-4-box-multiple" fill="#555"/><path d="M3 5v16h16v2H3a2 2 0 0 1-2-2V5h2m18-4a2 2 0 0 1 2 2v14a2 2 0 0 1-2 2H7a2 2 0 0 1-2-2V3a2 2 0 0 1 2-2h14m-6 14h2V5h-2v4h-2V5h-2v6h4v4Z" transform="matrix(1.5 0 0 1.5 396 180)" id="mdi-numeric-4-box-multiple" fill="#fff"/><path d="M21 17H7V3h14m0-2H7a2 2 0 0 0-2 2v14a2 2 0 0 0 2 2h14a2 2 0 0 0 2-2V3a2 2 0 0 0-2-2m-6 14h2V5h-2v4h-2V5h-2v6h4M3 5H1v16a2 2 0 0 0 2 2h16v-2H3V5Z" transform="matrix(1.5 0 0 1.5 432 180)" id="mdi-numeric-4-box-multiple-outline" fill="#555"/><path d="M21 17H7V3h14m0-2H7a2 2 0 0 0-2 2v14a2 2 0 0 0 2 2h14a2 2 0 0 0 2-2V3a2 2 0 0 0-2-2m-6 14h2V5h-2v4h-2V5h-2v6h4M3 5H1v16a2 2 0 0 0 2 2h16v-2H3V5Z" transform="matrix(1.5 0 0 1.5 468 180)" id="mdi-numeric-4-box-multiple-outline" fill="#fff"/><path d="M19 19H5V5h14m0-2H5a2 2 0 0 0-2 2v14a2 2 0 0 0 2 2h14a2 2 0 0 0 2-2V5a2 2 0 0 0-2-2m-6 14h2V7h-2v4h-2V7H9v6h4" transform="matrix(1.5 0 0 1.5 504 180)" id="mdi-numeric-4-box-outline" fill="#555"/><path d="M19 19H5V5h14m0-2H5a2 2 0 0 0-2 2v14a2 2 0 0 0 2 2h14a2 2 0 0 0 2-2V5a2 2 0 0 0-2-2m-6 14h2V7h-2v4h-2V7H9v6h4" transform="matrix(1.5 0 0 1.5 540 180)" id="mdi-numeric-4-box-outline" fill="#fff"/><path d="M9 7v6h4v4h2V7h-2v4h-2V7H9m3-5a10 10 0 0 1 10 10 10 10 0 0 1-10 10A10 10 0 0 1 2 12 10 10 0 0 1 12 2Z" transform="matrix(1.5 0 0 1.5 576 180)" id="mdi-numeric-4-circle" fill="#555"/><path d="M9 7v6h4v4h2V7h-2v4h-2V7H9m3-5a10 10 0 0 1 10 10 10 10 0 0 1-10 10A10 10 0 0 1 2 12 10 10 0 0 1 12 2Z" transform="matrix(1.5 0 0 1.5 612 180)" id="mdi-numeric-4-circle" fill="#fff"/><path d="M9 7h2v4h2V7h2v10h-2v-4H9V7m3-5a10 10 0 0 1 10 10 10 10 0 0 1-10 10A10 10 0 0 1 2 12 10 10 0 0 1 12 2m0 2a8 8 0 0 0-8 8 8 8 0 0 0 8 8 8 8 0 0 0 8-8 8 8 0 0 0-8-8Z" transform="matrix(1.5 0 0 1.5 648 180)" id="mdi-numeric-4-circle-outline" fill="#555"/><path d="M9 7h2v4h2V7h2v10h-2v-4H9V7m3-5a10 10 0 0 1 10 10 10 10 0 0 1-10 10A10 10 0 0 1 2 12 10 10 0 0 1 12 2m0 2a8 8 0 0 0-8 8 8 8 0 0 0 8 8 8 8 0 0 0 8-8 8 8 0 0 0-8-8Z" transform="matrix(1.5 0 0 1.5 684 180)" id="mdi-numeric-4-circle-outline" fill="#fff"/><path d="M9 7v6h4v2H9v2h4a2 2 0 0 0 2-2v-2a2 2 0 0 0-2-2h-2V9h4V7H9Z" transform="matrix(1.5 0 0 1.5 0 216)" id="mdi-numeric-5" fill="#555"/><path d="M9 7v6h4v2H9v2h4a2 2 0 0 0 2-2v-2a2 2 0 0 0-2-2h-2V9h4V7H9Z" transform="matrix(1.5 0 0 1.5 36 216)" id="mdi-numeric-5" fill="#fff"/><path d="M15 9h-4v2h2a2 2 0 0 1 2 2v2a2 2 0 0 1-2 2H9v-2h4v-2H9V7h6m4-4H5a2 2 0 0 0-2 2v14a2 2 0 0 0 2 2h14a2 2 0 0 0 2-2V5a2 2 0 0 0-2-2Z" transform="matrix(1.5 0 0 1.5 72 216)" id="mdi-numeric-5-box" fill="#555"/><path d="M15 9h-4v2h2a2 2 0 0 1 2 2v2a2 2 0 0 1-2 2H9v-2h4v-2H9V7h6m4-4H5a2 2 0 0 0-2 2v14a2 2 0 0 0 2 2h14a2 2 0 0 0 2-2V5a2 2 0 0 0-2-2Z" transform="matrix(1.5 0 0 1.5 108 216)" id="mdi-numeric-5-box" fill="#fff"/><path d="M3 5v16h16v2H3a2 2 0 0 1-2-2V5h2m18-4a2 2 0 0 1 2 2v14a2 2 0 0 1-2 2H7a2 2 0 0 1-2-2V3a2 2 0 0 1 2-2h14m-4 12v-2a2 2 0 0 0-2-2h-2V7h4V5h-6v6h4v2h-4v2h4a2 2 0 0 0 2-2Z" transform="matrix(1.5 0 0 1.5 144 216)" id="mdi-numeric-5-box-multiple" fill="#555"/><path d="M3 5v16h16v2H3a2 2 0 0 1-2-2V5h2m18-4a2 2 0 0 1 2 2v14a2 2 0 0 1-2 2H7a2 2 0 0 1-2-2V3a2 2 0 0 1 2-2h14m-4 12v-2a2 2 0 0 0-2-2h-2V7h4V5h-6v6h4v2h-4v2h4a2 2 0 0 0 2-2Z" transform="matrix(1.5 0 0 1.5 180 216)" id="mdi-numeric-5-box-multiple" fill="#fff"/><path d="M17 13v-2a2 2 0 0 0-2-2h-2V7h4V5h-6v6h4v2h-4v2h4a2 2 0 0 0 2-2M3 5H1v16a2 2 0 0 0 2 2h16v-2H3m18-4H7V3h14m0-2H7a2 2 0 0 0-2 2v14a2 2 0 0 0 2 2h14a2 2 0 0 0 2-2V3a2 2 0 0 0-2-2Z" transform="matrix(1.5 0 0 1.5 216 216)" id="mdi-numeric-5-box-multiple-outline" fill="#555"/><path d="M17 13v-2a2 2 0 0 0-2-2h-2V7h4V5h-6v6h4v2h-4v2h4a2 2 0 0 0 2-2M3 5H1v16a2 2 0 0 0 2 2h16v-2H3m18-4H7V3h14m0-2H7a2 2 0 0 0-2 2v14a2 2 0 0 0 2 2h14a2 2 0 0 0 2-2V3a2 2 0 0 0-2-2Z" transform="matrix(1.5 0 0 1.5 252 216)" id="mdi-numeric-5-box-multiple-outline" fill="#fff"/><path d="M15 15v-2a2 2 0 0 0-2-2h-2V9h4V7H9v6h4v2H9v2h4a2 2 0 0 0 2-2m4 4H5V5h14m0-2H5a2 2 0 0 0-2 2v14a2 2 0 0 0 2 2h14a2 2 0 0 0 2-2V5a2 2 0 0 0-2-2Z" transform="matrix(1.5 0 0 1.5 288 216)" id="mdi-numeric-5-box-outline" fill="#555"/><path d="M15 15v-2a2 2 0 0 0-2-2h-2V9h4V7H9v6h4v2H9v2h4a2 2 0 0 0 2-2m4 4H5V5h14m0-2H5a2 2 0 0 0-2 2v14a2 2 0 0 0 2 2h14a2 2 0 0 0 2-2V5a2 2 0 0 0-2-2Z" transform="matrix(1.5 0 0 1.5 324 216)" id="mdi-numeric-5-box-outline" fill="#fff"/><path d="M9 7v6h4v2H9v2h4a2 2 0 0 0 2-2v-2a2 2 0 0 0-2-2h-2V9h4V7H9m3-5a10 10 0 0 1 10 10 10 10 0 0 1-10 10A10 10 0 0 1 2 12 10 10 0 0 1 12 2Z" transform="matrix(1.5 0 0 1.5 360 216)" id="mdi-numeric-5-circle" fill="#555"/><path d="M9 7v6h4v2H9v2h4a2 2 0 0 0 2-2v-2a2 2 0 0 0-2-2h-2V9h4V7H9m3-5a10 10 0 0 1 10 10 10 10 0 0 1-10 10A10 10 0 0 1 2 12 10 10 0 0 1 12 2Z" transform="matrix(1.5 0 0 1.5 396 216)" id="mdi-numeric-5-circle" fill="#fff"/><path d="M9 7h6v2h-4v2h2a2 2 0 0 1 2 2v2a2 2 0 0 1-2 2H9v-2h4v-2H9V7m3-5a10 10 0 0 1 10 10 10 10 0 0 1-10 10A10 10 0 0 1 2 12 10 10 0 0 1 12 2m0 2a8 8 0 0 0-8 8 8 8 0 0 0 8 8 8 8 0 0 0 8-8 8 8 0 0 0-8-8Z" transform="matrix(1.5 0 0 1.5 432 216)" id="mdi-numeric-5-circle-outline" fill="#555"/><path d="M9 7h6v2h-4v2h2a2 2 0 0 1 2 2v2a2 2 0 0 1-2 2H9v-2h4v-2H9V7m3-5a10 10 0 0 1 10 10 10 10 0 0 1-10 10A10 10 0 0 1 2 12 10 10 0 0 1 12 2m0 2a8 8 0 0 0-8 8 8 8 0 0 0 8 8 8 8 0 0 0 8-8 8 8 0 0 0-8-8Z" transform="matrix(1.5 0 0 1.5 468 216)" id="mdi-numeric-5-circle-outline" fill="#fff"/><path d="M11 7a2 2 0 0 0-2 2v6a2 2 0 0 0 2 2h2a2 2 0 0 0 2-2v-2a2 2 0 0 0-2-2h-2V9h4V7h-4m0 6h2v2h-2v-2Z" transform="matrix(1.5 0 0 1.5 504 216)" id="mdi-numeric-6" fill="#555"/><path d="M11 7a2 2 0 0 0-2 2v6a2 2 0 0 0 2 2h2a2 2 0 0 0 2-2v-2a2 2 0 0 0-2-2h-2V9h4V7h-4m0 6h2v2h-2v-2Z" transform="matrix(1.5 0 0 1.5 540 216)" id="mdi-numeric-6" fill="#fff"/><path d="M15 9h-4v2h2a2 2 0 0 1 2 2v2a2 2 0 0 1-2 2h-2a2 2 0 0 1-2-2V9a2 2 0 0 1 2-2h4m4-4H5a2 2 0 0 0-2 2v14a2 2 0 0 0 2 2h14a2 2 0 0 0 2-2V5a2 2 0 0 0-2-2m-8 12h2v-2h-2v2Z" transform="matrix(1.5 0 0 1.5 576 216)" id="mdi-numeric-6-box" fill="#555"/><path d="M15 9h-4v2h2a2 2 0 0 1 2 2v2a2 2 0 0 1-2 2h-2a2 2 0 0 1-2-2V9a2 2 0 0 1 2-2h4m4-4H5a2 2 0 0 0-2 2v14a2 2 0 0 0 2 2h14a2 2 0 0 0 2-2V5a2 2 0 0 0-2-2m-8 12h2v-2h-2v2Z" transform="matrix(1.5 0 0 1.5 612 216)" id="mdi-numeric-6-box" fill="#fff"/><path d="M13 11h2v2h-2v-2M3 5v16h16v2H3a2 2 0 0 1-2-2V5h2m18-4a2 2 0 0 1 2 2v14a2 2 0 0 1-2 2H7a2 2 0 0 1-2-2V3a2 2 0 0 1 2-2h14m-8 14h2a2 2 0 0 0 2-2v-2a2 2 0 0 0-2-2h-2V7h4V5h-4a2 2 0 0 0-2 2v6a2 2 0 0 0 2 2Z" transform="matrix(1.5 0 0 1.5 648 216)" id="mdi-numeric-6-box-multiple" fill="#555"/><path d="M13 11h2v2h-2v-2M3 5v16h16v2H3a2 2 0 0 1-2-2V5h2m18-4a2 2 0 0 1 2 2v14a2 2 0 0 1-2 2H7a2 2 0 0 1-2-2V3a2 2 0 0 1 2-2h14m-8 14h2a2 2 0 0 0 2-2v-2a2 2 0 0 0-2-2h-2V7h4V5h-4a2 2 0 0 0-2 2v6a2 2 0 0 0 2 2Z" transform="matrix(1.5 0 0 1.5 684 216)" id="mdi-numeric-6-box-multiple" fill="#fff"/><path d="M13 11h2v2h-2m0 2h2a2 2 0 0 0 2-2v-2a2 2 0 0 0-2-2h-2V7h4V5h-4a2 2 0 0 0-2 2v6a2 2 0 0 0 2 2m8 2H7V3h14m0-2H7a2 2 0 0 0-2 2v14a2 2 0 0 0 2 2h14a2 2 0 0 0 2-2V3a2 2 0 0 0-2-2M3 5H1v16a2 2 0 0 0 2 2h16v-2H3V5Z" transform="matrix(1.5 0 0 1.5 0 252)" id="mdi-numeric-6-box-multiple-outline" fill="#555"/><path d="M13 11h2v2h-2m0 2h2a2 2 0 0 0 2-2v-2a2 2 0 0 0-2-2h-2V7h4V5h-4a2 2 0 0 0-2 2v6a2 2 0 0 0 2 2m8 2H7V3h14m0-2H7a2 2 0 0 0-2 2v14a2 2 0 0 0 2 2h14a2 2 0 0 0 2-2V3a2 2 0 0 0-2-2M3 5H1v16a2 2 0 0 0 2 2h16v-2H3V5Z" transform="matrix(1.5 0 0 1.5 36 252)" id="mdi-numeric-6-box-multiple-outline" fill="#fff"/><path d="M11 13h2v2h-2m0 2h2a2 2 0 0 0 2-2v-2a2 2 0 0 0-2-2h-2V9h4V7h-4a2 2 0 0 0-2 2v6a2 2 0 0 0 2 2m8 2H5V5h14m0-2H5a2 2 0 0 0-2 2v14a2 2 0 0 0 2 2h14a2 2 0 0 0 2-2V5a2 2 0 0 0-2-2Z" transform="matrix(1.5 0 0 1.5 72 252)" id="mdi-numeric-6-box-outline" fill="#555"/><path d="M11 13h2v2h-2m0 2h2a2 2 0 0 0 2-2v-2a2 2 0 0 0-2-2h-2V9h4V7h-4a2 2 0 0 0-2 2v6a2 2 0 0 0 2 2m8 2H5V5h14m0-2H5a2 2 0 0 0-2 2v14a2 2 0 0 0 2 2h14a2 2 0 0 0 2-2V5a2 2 0 0 0-2-2Z" transform="matrix(1.5 0 0 1.5 108 252)" id="mdi-numeric-6-box-outline" fill="#fff"/><path d="M11 7a2 2 0 0 0-2 2v6a2 2 0 0 0 2 2h2a2 2 0 0 0 2-2v-2a2 2 0 0 0-2-2h-2V9h4V7h-4m0 6h2v2h-2v-2m1-11a10 10 0 0 1 10 10 10 10 0 0 1-10 10A10 10 0 0 1 2 12 10 10 0 0 1 12 2Z" transform="matrix(1.5 0 0 1.5 144 252)" id="mdi-numeric-6-circle" fill="#555"/><path d="M11 7a2 2 0 0 0-2 2v6a2 2 0 0 0 2 2h2a2 2 0 0 0 2-2v-2a2 2 0 0 0-2-2h-2V9h4V7h-4m0 6h2v2h-2v-2m1-11a10 10 0 0 1 10 10 10 10 0 0 1-10 10A10 10 0 0 1 2 12 10 10 0 0 1 12 2Z" transform="matrix(1.5 0 0 1.5 180 252)" id="mdi-numeric-6-circle" fill="#fff"/><path d="M11 7h4v2h-4v2h2a2 2 0 0 1 2 2v2a2 2 0 0 1-2 2h-2a2 2 0 0 1-2-2V9a2 2 0 0 1 2-2m0 6v2h2v-2h-2m1-11a10 10 0 0 1 10 10 10 10 0 0 1-10 10A10 10 0 0 1 2 12 10 10 0 0 1 12 2m0 2a8 8 0 0 0-8 8 8 8 0 0 0 8 8 8 8 0 0 0 8-8 8 8 0 0 0-8-8Z" transform="matrix(1.5 0 0 1.5 216 252)" id="mdi-numeric-6-circle-outline" fill="#555"/><path d="M11 7h4v2h-4v2h2a2 2 0 0 1 2 2v2a2 2 0 0 1-2 2h-2a2 2 0 0 1-2-2V9a2 2 0 0 1 2-2m0 6v2h2v-2h-2m1-11a10 10 0 0 1 10 10 10 10 0 0 1-10 10A10 10 0 0 1 2 12 10 10 0 0 1 12 2m0 2a8 8 0 0 0-8 8 8 8 0 0 0 8 8 8 8 0 0 0 8-8 8 8 0 0 0-8-8Z" transform="matrix(1.5 0 0 1.5 252 252)" id="mdi-numeric-6-circle-outline" fill="#fff"/><path d="m11 17 4-8V7H9v2h4l-4 8" transform="matrix(1.5 0 0 1.5 288 252)" id="mdi-numeric-7" fill="#555"/><path d="m11 17 4-8V7H9v2h4l-4 8" transform="matrix(1.5 0 0 1.5 324 252)" id="mdi-numeric-7" fill="#fff"/><path d="M19 3a2 2 0 0 1 2 2v14a2 2 0 0 1-2 2H5a2 2 0 0 1-2-2V5a2 2 0 0 1 2-2h14m-8 14 4-8V7H9v2h4l-4 8h2Z" transform="matrix(1.5 0 0 1.5 360 252)" id="mdi-numeric-7-box" fill="#555"/><path d="M19 3a2 2 0 0 1 2 2v14a2 2 0 0 1-2 2H5a2 2 0 0 1-2-2V5a2 2 0 0 1 2-2h14m-8 14 4-8V7H9v2h4l-4 8h2Z" transform="matrix(1.5 0 0 1.5 396 252)" id="mdi-numeric-7-box" fill="#fff"/><path d="M3 5v16h16v2H3a2 2 0 0 1-2-2V5h2m10 10 4-8V5h-6v2h4l-4 8h2m8-14a2 2 0 0 1 2 2v14a2 2 0 0 1-2 2H7a2 2 0 0 1-2-2V3a2 2 0 0 1 2-2h14Z" transform="matrix(1.5 0 0 1.5 432 252)" id="mdi-numeric-7-box-multiple" fill="#555"/><path d="M3 5v16h16v2H3a2 2 0 0 1-2-2V5h2m10 10 4-8V5h-6v2h4l-4 8h2m8-14a2 2 0 0 1 2 2v14a2 2 0 0 1-2 2H7a2 2 0 0 1-2-2V3a2 2 0 0 1 2-2h14Z" transform="matrix(1.5 0 0 1.5 468 252)" id="mdi-numeric-7-box-multiple" fill="#fff"/><path d="m13 15 4-8V5h-6v2h4l-4 8m10 2H7V3h14m0-2H7a2 2 0 0 0-2 2v14a2 2 0 0 0 2 2h14a2 2 0 0 0 2-2V3a2 2 0 0 0-2-2M3 5H1v16a2 2 0 0 0 2 2h16v-2H3V5Z" transform="matrix(1.5 0 0 1.5 504 252)" id="mdi-numeric-7-box-multiple-outline" fill="#555"/><path d="m13 15 4-8V5h-6v2h4l-4 8m10 2H7V3h14m0-2H7a2 2 0 0 0-2 2v14a2 2 0 0 0 2 2h14a2 2 0 0 0 2-2V3a2 2 0 0 0-2-2M3 5H1v16a2 2 0 0 0 2 2h16v-2H3V5Z" transform="matrix(1.5 0 0 1.5 540 252)" id="mdi-numeric-7-box-multiple-outline" fill="#fff"/><path d="m11 17 4-8V7H9v2h4l-4 8m10 2H5V5h14m0-2H5a2 2 0 0 0-2 2v14a2 2 0 0 0 2 2h14a2 2 0 0 0 2-2V5a2 2 0 0 0-2-2Z" transform="matrix(1.5 0 0 1.5 576 252)" id="mdi-numeric-7-box-outline" fill="#555"/><path d="m11 17 4-8V7H9v2h4l-4 8m10 2H5V5h14m0-2H5a2 2 0 0 0-2 2v14a2 2 0 0 0 2 2h14a2 2 0 0 0 2-2V5a2 2 0 0 0-2-2Z" transform="matrix(1.5 0 0 1.5 612 252)" id="mdi-numeric-7-box-outline" fill="#fff"/><path d="m11 17 4-8V7H9v2h4l-4 8h2m1-15a10 10 0 0 1 10 10 10 10 0 0 1-10 10A10 10 0 0 1 2 12 10 10 0 0 1 12 2Z" transform="matrix(1.5 0 0 1.5 648 252)" id="mdi-numeric-7-circle" fill="#555"/><path d="m11 17 4-8V7H9v2h4l-4 8h2m1-15a10 10 0 0 1 10 10 10 10 0 0 1-10 10A10 10 0 0 1 2 12 10 10 0 0 1 12 2Z" transform="matrix(1.5 0 0 1.5 684 252)" id="mdi-numeric-7-circle" fill="#fff"/><path d="M11 17H9l4-8H9V7h6v2l-4 8m1-15a10 10 0 0 1 10 10 10 10 0 0 1-10 10A10 10 0 0 1 2 12 10 10 0 0 1 12 2m0 2a8 8 0 0 0-8 8 8 8 0 0 0 8 8 8 8 0 0 0 8-8 8 8 0 0 0-8-8Z" transform="matrix(1.5 0 0 1.5 0 288)" id="mdi-numeric-7-circle-outline" fill="#555"/><path d="M11 17H9l4-8H9V7h6v2l-4 8m1-15a10 10 0 0 1 10 10 10 10 0 0 1-10 10A10 10 0 0 1 2 12 10 10 0 0 1 12 2m0 2a8 8 0 0 0-8 8 8 8 0 0 0 8 8 8 8 0 0 0 8-8 8 8 0 0 0-8-8Z" transform="matrix(1.5 0 0 1.5 36 288)" id="mdi-numeric-7-circle-outline" fill="#fff"/><path d="M11 13h2v2h-2m0-6h2v2h-2m0 6h2a2 2 0 0 0 2-2v-1.5a1.5 1.5 0 0 0-1.5-1.5 1.5 1.5 0 0 0 1.5-1.5V9a2 2 0 0 0-2-2h-2a2 2 0 0 0-2 2v1.5a1.5 1.5 0 0 0 1.5 1.5A1.5 1.5 0 0 0 9 13.5V15a2 2 0 0 0 2 2" transform="matrix(1.5 0 0 1.5 72 288)" id="mdi-numeric-8" fill="#555"/><path d="M11 13h2v2h-2m0-6h2v2h-2m0 6h2a2 2 0 0 0 2-2v-1.5a1.5 1.5 0 0 0-1.5-1.5 1.5 1.5 0 0 0 1.5-1.5V9a2 2 0 0 0-2-2h-2a2 2 0 0 0-2 2v1.5a1.5 1.5 0 0 0 1.5 1.5A1.5 1.5 0 0 0 9 13.5V15a2 2 0 0 0 2 2" transform="matrix(1.5 0 0 1.5 108 288)" id="mdi-numeric-8" fill="#fff"/><path d="M19 3a2 2 0 0 1 2 2v14a2 2 0 0 1-2 2H5a2 2 0 0 1-2-2V5a2 2 0 0 1 2-2h14m-8 14h2a2 2 0 0 0 2-2v-1.5a1.5 1.5 0 0 0-1.5-1.5 1.5 1.5 0 0 0 1.5-1.5V9a2 2 0 0 0-2-2h-2a2 2 0 0 0-2 2v1.5a1.5 1.5 0 0 0 1.5 1.5A1.5 1.5 0 0 0 9 13.5V15a2 2 0 0 0 2 2m0-4h2v2h-2v-2m0-4h2v2h-2V9Z" transform="matrix(1.5 0 0 1.5 144 288)" id="mdi-numeric-8-box" fill="#555"/><path d="M19 3a2 2 0 0 1 2 2v14a2 2 0 0 1-2 2H5a2 2 0 0 1-2-2V5a2 2 0 0 1 2-2h14m-8 14h2a2 2 0 0 0 2-2v-1.5a1.5 1.5 0 0 0-1.5-1.5 1.5 1.5 0 0 0 1.5-1.5V9a2 2 0 0 0-2-2h-2a2 2 0 0 0-2 2v1.5a1.5 1.5 0 0 0 1.5 1.5A1.5 1.5 0 0 0 9 13.5V15a2 2 0 0 0 2 2m0-4h2v2h-2v-2m0-4h2v2h-2V9Z" transform="matrix(1.5 0 0 1.5 180 288)" id="mdi-numeric-8-box" fill="#fff"/><path d="M13 11h2v2h-2v-2m0-4h2v2h-2V7M3 5v16h16v2H3a2 2 0 0 1-2-2V5h2m10 10h2a2 2 0 0 0 2-2v-1.5a1.5 1.5 0 0 0-1.5-1.5A1.5 1.5 0 0 0 17 8.5V7a2 2 0 0 0-2-2h-2a2 2 0 0 0-2 2v1.5a1.5 1.5 0 0 0 1.5 1.5 1.5 1.5 0 0 0-1.5 1.5V13a2 2 0 0 0 2 2m8-14a2 2 0 0 1 2 2v14a2 2 0 0 1-2 2H7a2 2 0 0 1-2-2V3a2 2 0 0 1 2-2h14Z" transform="matrix(1.5 0 0 1.5 216 288)" id="mdi-numeric-8-box-multiple" fill="#555"/><path d="M13 11h2v2h-2v-2m0-4h2v2h-2V7M3 5v16h16v2H3a2 2 0 0 1-2-2V5h2m10 10h2a2 2 0 0 0 2-2v-1.5a1.5 1.5 0 0 0-1.5-1.5A1.5 1.5 0 0 0 17 8.5V7a2 2 0 0 0-2-2h-2a2 2 0 0 0-2 2v1.5a1.5 1.5 0 0 0 1.5 1.5 1.5 1.5 0 0 0-1.5 1.5V13a2 2 0 0 0 2 2m8-14a2 2 0 0 1 2 2v14a2 2 0 0 1-2 2H7a2 2 0 0 1-2-2V3a2 2 0 0 1 2-2h14Z" transform="matrix(1.5 0 0 1.5 252 288)" id="mdi-numeric-8-box-multiple" fill="#fff"/><path d="M13 11h2v2h-2m0-6h2v2h-2m0 6h2a2 2 0 0 0 2-2v-1.5a1.5 1.5 0 0 0-1.5-1.5A1.5 1.5 0 0 0 17 8.5V7a2 2 0 0 0-2-2h-2a2 2 0 0 0-2 2v1.5a1.5 1.5 0 0 0 1.5 1.5 1.5 1.5 0 0 0-1.5 1.5V13a2 2 0 0 0 2 2m8 2H7V3h14m0-2H7a2 2 0 0 0-2 2v14a2 2 0 0 0 2 2h14a2 2 0 0 0 2-2V3a2 2 0 0 0-2-2M3 5H1v16a2 2 0 0 0 2 2h16v-2H3V5Z" transform="matrix(1.5 0 0 1.5 288 288)" id="mdi-numeric-8-box-multiple-outline" fill="#555"/><path d="M13 11h2v2h-2m0-6h2v2h-2m0 6h2a2 2 0 0 0 2-2v-1.5a1.5 1.5 0 0 0-1.5-1.5A1.5 1.5 0 0 0 17 8.5V7a2 2 0 0 0-2-2h-2a2 2 0 0 0-2 2v1.5a1.5 1.5 0 0 0 1.5 1.5 1.5 1.5 0 0 0-1.5 1.5V13a2 2 0 0 0 2 2m8 2H7V3h14m0-2H7a2 2 0 0 0-2 2v14a2 2 0 0 0 2 2h14a2 2 0 0 0 2-2V3a2 2 0 0 0-2-2M3 5H1v16a2 2 0 0 0 2 2h16v-2H3V5Z" transform="matrix(1.5 0 0 1.5 324 288)" id="mdi-numeric-8-box-multiple-outline" fill="#fff"/><path d="M11 13h2v2h-2m0-6h2v2h-2m0 6h2a2 2 0 0 0 2-2v-1.5a1.5 1.5 0 0 0-1.5-1.5 1.5 1.5 0 0 0 1.5-1.5V9a2 2 0 0 0-2-2h-2a2 2 0 0 0-2 2v1.5a1.5 1.5 0 0 0 1.5 1.5A1.5 1.5 0 0 0 9 13.5V15a2 2 0 0 0 2 2m8 2H5V5h14m0-2H5a2 2 0 0 0-2 2v14a2 2 0 0 0 2 2h14a2 2 0 0 0 2-2V5a2 2 0 0 0-2-2Z" transform="matrix(1.5 0 0 1.5 360 288)" id="mdi-numeric-8-box-outline" fill="#555"/><path d="M11 13h2v2h-2m0-6h2v2h-2m0 6h2a2 2 0 0 0 2-2v-1.5a1.5 1.5 0 0 0-1.5-1.5 1.5 1.5 0 0 0 1.5-1.5V9a2 2 0 0 0-2-2h-2a2 2 0 0 0-2 2v1.5a1.5 1.5 0 0 0 1.5 1.5A1.5 1.5 0 0 0 9 13.5V15a2 2 0 0 0 2 2m8 2H5V5h14m0-2H5a2 2 0 0 0-2 2v14a2 2 0 0 0 2 2h14a2 2 0 0 0 2-2V5a2 2 0 0 0-2-2Z" transform="matrix(1.5 0 0 1.5 396 288)" id="mdi-numeric-8-box-outline" fill="#fff"/><path d="M11 13h2v2h-2v-2m0-4h2v2h-2V9m0 8h2a2 2 0 0 0 2-2v-1.5a1.5 1.5 0 0 0-1.5-1.5 1.5 1.5 0 0 0 1.5-1.5V9a2 2 0 0 0-2-2h-2a2 2 0 0 0-2 2v1.5a1.5 1.5 0 0 0 1.5 1.5A1.5 1.5 0 0 0 9 13.5V15a2 2 0 0 0 2 2m1-15a10 10 0 0 1 10 10 10 10 0 0 1-10 10A10 10 0 0 1 2 12 10 10 0 0 1 12 2Z" transform="matrix(1.5 0 0 1.5 432 288)" id="mdi-numeric-8-circle" fill="#555"/><path d="M11 13h2v2h-2v-2m0-4h2v2h-2V9m0 8h2a2 2 0 0 0 2-2v-1.5a1.5 1.5 0 0 0-1.5-1.5 1.5 1.5 0 0 0 1.5-1.5V9a2 2 0 0 0-2-2h-2a2 2 0 0 0-2 2v1.5a1.5 1.5 0 0 0 1.5 1.5A1.5 1.5 0 0 0 9 13.5V15a2 2 0 0 0 2 2m1-15a10 10 0 0 1 10 10 10 10 0 0 1-10 10A10 10 0 0 1 2 12 10 10 0 0 1 12 2Z" transform="matrix(1.5 0 0 1.5 468 288)" id="mdi-numeric-8-circle" fill="#fff"/><path d="M11 13v2h2v-2h-2m0-4v2h2V9h-2m0 8a2 2 0 0 1-2-2v-1.5a1.5 1.5 0 0 1 1.5-1.5A1.5 1.5 0 0 1 9 10.5V9a2 2 0 0 1 2-2h2a2 2 0 0 1 2 2v1.5a1.5 1.5 0 0 1-1.5 1.5 1.5 1.5 0 0 1 1.5 1.5V15a2 2 0 0 1-2 2h-2m1-15a10 10 0 0 1 10 10 10 10 0 0 1-10 10A10 10 0 0 1 2 12 10 10 0 0 1 12 2m0 2a8 8 0 0 0-8 8 8 8 0 0 0 8 8 8 8 0 0 0 8-8 8 8 0 0 0-8-8Z" transform="matrix(1.5 0 0 1.5 504 288)" id="mdi-numeric-8-circle-outline" fill="#555"/><path d="M11 13v2h2v-2h-2m0-4v2h2V9h-2m0 8a2 2 0 0 1-2-2v-1.5a1.5 1.5 0 0 1 1.5-1.5A1.5 1.5 0 0 1 9 10.5V9a2 2 0 0 1 2-2h2a2 2 0 0 1 2 2v1.5a1.5 1.5 0 0 1-1.5 1.5 1.5 1.5 0 0 1 1.5 1.5V15a2 2 0 0 1-2 2h-2m1-15a10 10 0 0 1 10 10 10 10 0 0 1-10 10A10 10 0 0 1 2 12 10 10 0 0 1 12 2m0 2a8 8 0 0 0-8 8 8 8 0 0 0 8 8 8 8 0 0 0 8-8 8 8 0 0 0-8-8Z" transform="matrix(1.5 0 0 1.5 540 288)" id="mdi-numeric-8-circle-outline" fill="#fff"/><path d="M13 17a2 2 0 0 0 2-2V9a2 2 0 0 0-2-2h-2a2 2 0 0 0-2 2v2a2 2 0 0 0 2 2h2v2H9v2h4m0-6h-2V9h2v2Z" transform="matrix(1.5 0 0 1.5 576 288)" id="mdi-numeric-9" fill="#555"/><path d="M13 17a2 2 0 0 0 2-2V9a2 2 0 0 0-2-2h-2a2 2 0 0 0-2 2v2a2 2 0 0 0 2 2h2v2H9v2h4m0-6h-2V9h2v2Z" transform="matrix(1.5 0 0 1.5 612 288)" id="mdi-numeric-9" fill="#fff"/><path d="M19 3a2 2 0 0 1 2 2v14a2 2 0 0 1-2 2H5a2 2 0 0 1-2-2V5a2 2 0 0 1 2-2h14m-6 8h-2V9h2v2m0-4h-2a2 2 0 0 0-2 2v2a2 2 0 0 0 2 2h2v2H9v2h4a2 2 0 0 0 2-2V9a2 2 0 0 0-2-2Z" transform="matrix(1.5 0 0 1.5 648 288)" id="mdi-numeric-9-box" fill="#555"/><path d="M19 3a2 2 0 0 1 2 2v14a2 2 0 0 1-2 2H5a2 2 0 0 1-2-2V5a2 2 0 0 1 2-2h14m-6 8h-2V9h2v2m0-4h-2a2 2 0 0 0-2 2v2a2 2 0 0 0 2 2h2v2H9v2h4a2 2 0 0 0 2-2V9a2 2 0 0 0-2-2Z" transform="matrix(1.5 0 0 1.5 684 288)" id="mdi-numeric-9-box" fill="#fff"/><path d="M15 9h-2V7h2v2M3 5v16h16v2H3a2 2 0 0 1-2-2V5h2m12 0h-2a2 2 0 0 0-2 2v2a2 2 0 0 0 2 2h2v2h-4v2h4a2 2 0 0 0 2-2V7a2 2 0 0 0-2-2m6-4a2 2 0 0 1 2 2v14a2 2 0 0 1-2 2H7a2 2 0 0 1-2-2V3a2 2 0 0 1 2-2h14Z" transform="matrix(1.5 0 0 1.5 0 324)" id="mdi-numeric-9-box-multiple" fill="#555"/><path d="M15 9h-2V7h2v2M3 5v16h16v2H3a2 2 0 0 1-2-2V5h2m12 0h-2a2 2 0 0 0-2 2v2a2 2 0 0 0 2 2h2v2h-4v2h4a2 2 0 0 0 2-2V7a2 2 0 0 0-2-2m6-4a2 2 0 0 1 2 2v14a2 2 0 0 1-2 2H7a2 2 0 0 1-2-2V3a2 2 0 0 1 2-2h14Z" transform="matrix(1.5 0 0 1.5 36 324)" id="mdi-numeric-9-box-multiple" fill="#fff"/><path d="M15 9h-2V7h2m0-2h-2a2 2 0 0 0-2 2v2a2 2 0 0 0 2 2h2v2h-4v2h4a2 2 0 0 0 2-2V7a2 2 0 0 0-2-2m6 12H7V3h14m0-2H7a2 2 0 0 0-2 2v14a2 2 0 0 0 2 2h14a2 2 0 0 0 2-2V3a2 2 0 0 0-2-2M3 5H1v16a2 2 0 0 0 2 2h16v-2H3V5Z" transform="matrix(1.5 0 0 1.5 72 324)" id="mdi-numeric-9-box-multiple-outline" fill="#555"/><path d="M15 9h-2V7h2m0-2h-2a2 2 0 0 0-2 2v2a2 2 0 0 0 2 2h2v2h-4v2h4a2 2 0 0 0 2-2V7a2 2 0 0 0-2-2m6 12H7V3h14m0-2H7a2 2 0 0 0-2 2v14a2 2 0 0 0 2 2h14a2 2 0 0 0 2-2V3a2 2 0 0 0-2-2M3 5H1v16a2 2 0 0 0 2 2h16v-2H3V5Z" transform="matrix(1.5 0 0 1.5 108 324)" id="mdi-numeric-9-box-multiple-outline" fill="#fff"/><path d="M13 11h-2V9h2m0-2h-2a2 2 0 0 0-2 2v2a2 2 0 0 0 2 2h2v2H9v2h4a2 2 0 0 0 2-2V9a2 2 0 0 0-2-2m6 12H5V5h14m0-2H5a2 2 0 0 0-2 2v14a2 2 0 0 0 2 2h14a2 2 0 0 0 2-2V5a2 2 0 0 0-2-2Z" transform="matrix(1.5 0 0 1.5 144 324)" id="mdi-numeric-9-box-outline" fill="#555"/><path d="M13 11h-2V9h2m0-2h-2a2 2 0 0 0-2 2v2a2 2 0 0 0 2 2h2v2H9v2h4a2 2 0 0 0 2-2V9a2 2 0 0 0-2-2m6 12H5V5h14m0-2H5a2 2 0 0 0-2 2v14a2 2 0 0 0 2 2h14a2 2 0 0 0 2-2V5a2 2 0 0 0-2-2Z" transform="matrix(1.5 0 0 1.5 180 324)" id="mdi-numeric-9-box-outline" fill="#fff"/><path d="M12 2a10 10 0 0 1 10 10 10 10 0 0 1-10 10A10 10 0 0 1 2 12 10 10 0 0 1 12 2m1 15a2 2 0 0 0 2-2V9a2 2 0 0 0-2-2h-2a2 2 0 0 0-2 2v2a2 2 0 0 0 2 2h2v2H9v2h4m0-6h-2V9h2v2Z" transform="matrix(1.5 0 0 1.5 216 324)" id="mdi-numeric-9-circle" fill="#555"/><path d="M12 2a10 10 0 0 1 10 10 10 10 0 0 1-10 10A10 10 0 0 1 2 12 10 10 0 0 1 12 2m1 15a2 2 0 0 0 2-2V9a2 2 0 0 0-2-2h-2a2 2 0 0 0-2 2v2a2 2 0 0 0 2 2h2v2H9v2h4m0-6h-2V9h2v2Z" transform="matrix(1.5 0 0 1.5 252 324)" id="mdi-numeric-9-circle" fill="#fff"/><path d="M13 17H9v-2h4v-2h-2a2 2 0 0 1-2-2V9a2 2 0 0 1 2-2h2a2 2 0 0 1 2 2v6a2 2 0 0 1-2 2m0-6V9h-2v2h2m-1-9a10 10 0 0 1 10 10 10 10 0 0 1-10 10A10 10 0 0 1 2 12 10 10 0 0 1 12 2m0 2a8 8 0 0 0-8 8 8 8 0 0 0 8 8 8 8 0 0 0 8-8 8 8 0 0 0-8-8Z" transform="matrix(1.5 0 0 1.5 288 324)" id="mdi-numeric-9-circle-outline" fill="#555"/><path d="M13 17H9v-2h4v-2h-2a2 2 0 0 1-2-2V9a2 2 0 0 1 2-2h2a2 2 0 0 1 2 2v6a2 2 0 0 1-2 2m0-6V9h-2v2h2m-1-9a10 10 0 0 1 10 10 10 10 0 0 1-10 10A10 10 0 0 1 2 12 10 10 0 0 1 12 2m0 2a8 8 0 0 0-8 8 8 8 0 0 0 8 8 8 8 0 0 0 8-8 8 8 0 0 0-8-8Z" transform="matrix(1.5 0 0 1.5 324 324)" id="mdi-numeric-9-circle-outline" fill="#fff"/><path d="M19 11h-2V9h-2v2h-2v2h2v2h2v-2h2v-2m-9-4H8c-1.1 0-2 .9-2 2v2a2 2 0 0 0 2 2h2v2H6v2h4c1.11 0 2-.89 2-2V9a2 2 0 0 0-2-2m0 4H8V9h2v2Z" transform="matrix(1.5 0 0 1.5 360 324)" id="mdi-numeric-9-plus" fill="#555"/><path d="M19 11h-2V9h-2v2h-2v2h2v2h2v-2h2v-2m-9-4H8c-1.1 0-2 .9-2 2v2a2 2 0 0 0 2 2h2v2H6v2h4c1.11 0 2-.89 2-2V9a2 2 0 0 0-2-2m0 4H8V9h2v2Z" transform="matrix(1.5 0 0 1.5 396 324)" id="mdi-numeric-9-plus" fill="#fff"/><path d="M21 5v14a2 2 0 0 1-2 2H5a2 2 0 0 1-2-2V5a2 2 0 0 1 2-2h14a2 2 0 0 1 2 2m-2 6h-2V9h-2v2h-2v2h2v2h2v-2h2v-2m-9-4H8a2 2 0 0 0-2 2v2a2 2 0 0 0 2 2h2v2H6v2h4a2 2 0 0 0 2-2V9a2 2 0 0 0-2-2M8 9h2v2H8V9Z" transform="matrix(1.5 0 0 1.5 432 324)" id="mdi-numeric-9-plus-box" fill="#555"/><path d="M21 5v14a2 2 0 0 1-2 2H5a2 2 0 0 1-2-2V5a2 2 0 0 1 2-2h14a2 2 0 0 1 2 2m-2 6h-2V9h-2v2h-2v2h2v2h2v-2h2v-2m-9-4H8a2 2 0 0 0-2 2v2a2 2 0 0 0 2 2h2v2H6v2h4a2 2 0 0 0 2-2V9a2 2 0 0 0-2-2M8 9h2v2H8V9Z" transform="matrix(1.5 0 0 1.5 468 324)" id="mdi-numeric-9-plus-box" fill="#fff"/><path d="M11 9V8h1v1h-1m10-8a2 2 0 0 1 2 2v14a2 2 0 0 1-2 2H7a2 2 0 0 1-2-2V3a2 2 0 0 1 2-2h14M3 5v16h16v2H3a2 2 0 0 1-2-2V5h2m12 4v2h2v2h2v-2h2V9h-2V7h-2v2h-2m-1 3V8a2 2 0 0 0-2-2h-1a2 2 0 0 0-2 2v1a2 2 0 0 0 2 2h1v1H9v2h3a2 2 0 0 0 2-2Z" transform="matrix(1.5 0 0 1.5 504 324)" id="mdi-numeric-9-plus-box-multiple" fill="#555"/><path d="M11 9V8h1v1h-1m10-8a2 2 0 0 1 2 2v14a2 2 0 0 1-2 2H7a2 2 0 0 1-2-2V3a2 2 0 0 1 2-2h14M3 5v16h16v2H3a2 2 0 0 1-2-2V5h2m12 4v2h2v2h2v-2h2V9h-2V7h-2v2h-2m-1 3V8a2 2 0 0 0-2-2h-1a2 2 0 0 0-2 2v1a2 2 0 0 0 2 2h1v1H9v2h3a2 2 0 0 0 2-2Z" transform="matrix(1.5 0 0 1.5 540 324)" id="mdi-numeric-9-plus-box-multiple" fill="#fff"/><path d="M21 9h-2V7h-2v2h-2v2h2v2h2v-2h2v6H7V3h14m0-2H7a2 2 0 0 0-2 2v14a2 2 0 0 0 2 2h14a2 2 0 0 0 2-2V3a2 2 0 0 0-2-2M11 9V8h1v1m2 3V8a2 2 0 0 0-2-2h-1a2 2 0 0 0-2 2v1a2 2 0 0 0 2 2h1v1H9v2h3a2 2 0 0 0 2-2M3 5H1v16a2 2 0 0 0 2 2h16v-2H3V5Z" transform="matrix(1.5 0 0 1.5 576 324)" id="mdi-numeric-9-plus-box-multiple-outline" fill="#555"/><path d="M21 9h-2V7h-2v2h-2v2h2v2h2v-2h2v6H7V3h14m0-2H7a2 2 0 0 0-2 2v14a2 2 0 0 0 2 2h14a2 2 0 0 0 2-2V3a2 2 0 0 0-2-2M11 9V8h1v1m2 3V8a2 2 0 0 0-2-2h-1a2 2 0 0 0-2 2v1a2 2 0 0 0 2 2h1v1H9v2h3a2 2 0 0 0 2-2M3 5H1v16a2 2 0 0 0 2 2h16v-2H3V5Z" transform="matrix(1.5 0 0 1.5 612 324)" id="mdi-numeric-9-plus-box-multiple-outline" fill="#fff"/><path d="M19 11h-2V9h-2v2h-2v2h2v2h2v-2h2v6H5V5h14m0-2H5a2 2 0 0 0-2 2v14a2 2 0 0 0 2 2h14a2 2 0 0 0 2-2V5a2 2 0 0 0-2-2M9 11v-1h1v1m2 3v-4a2 2 0 0 0-2-2H9a2 2 0 0 0-2 2v1a2 2 0 0 0 2 2h1v1H7v2h3a2 2 0 0 0 2-2Z" transform="matrix(1.5 0 0 1.5 648 324)" id="mdi-numeric-9-plus-box-outline" fill="#555"/><path d="M19 11h-2V9h-2v2h-2v2h2v2h2v-2h2v6H5V5h14m0-2H5a2 2 0 0 0-2 2v14a2 2 0 0 0 2 2h14a2 2 0 0 0 2-2V5a2 2 0 0 0-2-2M9 11v-1h1v1m2 3v-4a2 2 0 0 0-2-2H9a2 2 0 0 0-2 2v1a2 2 0 0 0 2 2h1v1H7v2h3a2 2 0 0 0 2-2Z" transform="matrix(1.5 0 0 1.5 684 324)" id="mdi-numeric-9-plus-box-outline" fill="#fff"/></svg>