<svg xmlns="http://www.w3.org/2000/svg" width="720" height="900"><path d="m14.46 15.88 1.42-1.42L18 16.59l2.12-2.12 1.42 1.41L19.41 18l2.13 2.12-1.42 1.42L18 19.41l-2.12 2.13-1.42-1.42L16.59 18l-2.12-2.12M20 12c0-3.36-2.07-6.23-5-7.41V5c0 1.1-.9 2-2 2h-2v2c0 .55-.45 1-1 1H8v2h6c.5 0 .9.35 1 .81-1.8 1.04-3 2.98-3 5.19 0 1.5.54 2.85 1.44 3.9L12 22C6.5 22 2 17.5 2 12S6.5 2 12 2s10 4.5 10 10l-.1 1.44c-.56-.48-1.2-.85-1.9-1.1V12m-9 7.93V18c-1.1 0-2-.9-2-2v-1l-4.79-4.79C4.08 10.78 4 11.38 4 12c0 4.08 3.06 7.44 7 7.93Z" transform="scale(1.5)" id="mdi-earth-remove" fill="#555"/><path d="m14.46 15.88 1.42-1.42L18 16.59l2.12-2.12 1.42 1.41L19.41 18l2.13 2.12-1.42 1.42L18 19.41l-2.12 2.13-1.42-1.42L16.59 18l-2.12-2.12M20 12c0-3.36-2.07-6.23-5-7.41V5c0 1.1-.9 2-2 2h-2v2c0 .55-.45 1-1 1H8v2h6c.5 0 .9.35 1 .81-1.8 1.04-3 2.98-3 5.19 0 1.5.54 2.85 1.44 3.9L12 22C6.5 22 2 17.5 2 12S6.5 2 12 2s10 4.5 10 10l-.1 1.44c-.56-.48-1.2-.85-1.9-1.1V12m-9 7.93V18c-1.1 0-2-.9-2-2v-1l-4.79-4.79C4.08 10.78 4 11.38 4 12c0 4.08 3.06 7.44 7 7.93Z" transform="translate(36) scale(1.5)" id="mdi-earth-remove" fill="#fff"/><path d="M19.5 14.5A7.5 7.5 0 0 1 12 22a7.5 7.5 0 0 1-7.5-7.5C4.5 10.36 7.86 2 12 2c4.14 0 7.5 8.36 7.5 12.5Z" transform="translate(72) scale(1.5)" id="mdi-egg" fill="#555"/><path d="M19.5 14.5A7.5 7.5 0 0 1 12 22a7.5 7.5 0 0 1-7.5-7.5C4.5 10.36 7.86 2 12 2c4.14 0 7.5 8.36 7.5 12.5Z" transform="translate(108) scale(1.5)" id="mdi-egg" fill="#fff"/><path d="M6.89 6.36C8.23 3.91 10 2 12 2c2 0 3.77 1.91 5.11 4.36-.85.21-1.61.71-2.11 1.41a3.712 3.712 0 0 0-5.2-.8c-.3.22-.58.49-.8.8-.5-.7-1.26-1.2-2.11-1.41M15 18.06l-3-3-3 3-3-3-1.27 1.27a7.504 7.504 0 0 0 9.11 5.43 7.529 7.529 0 0 0 5.43-5.43L18 15.06l-3 3m-6-2.12 3-3 3 3 3-3 1.5 1.5c-.13-2.31-.7-4.58-1.69-6.68-1.16.1-2.06 1.07-2.06 2.24h-1.5A2.25 2.25 0 0 0 12 7.75 2.25 2.25 0 0 0 9.75 10h-1.5c0-1.17-.9-2.14-2.06-2.24-.99 2.1-1.56 4.37-1.69 6.68l1.5-1.5 3 3Z" transform="translate(144) scale(1.5)" id="mdi-egg-easter" fill="#555"/><path d="M6.89 6.36C8.23 3.91 10 2 12 2c2 0 3.77 1.91 5.11 4.36-.85.21-1.61.71-2.11 1.41a3.712 3.712 0 0 0-5.2-.8c-.3.22-.58.49-.8.8-.5-.7-1.26-1.2-2.11-1.41M15 18.06l-3-3-3 3-3-3-1.27 1.27a7.504 7.504 0 0 0 9.11 5.43 7.529 7.529 0 0 0 5.43-5.43L18 15.06l-3 3m-6-2.12 3-3 3 3 3-3 1.5 1.5c-.13-2.31-.7-4.58-1.69-6.68-1.16.1-2.06 1.07-2.06 2.24h-1.5A2.25 2.25 0 0 0 12 7.75 2.25 2.25 0 0 0 9.75 10h-1.5c0-1.17-.9-2.14-2.06-2.24-.99 2.1-1.56 4.37-1.69 6.68l1.5-1.5 3 3Z" transform="translate(180) scale(1.5)" id="mdi-egg-easter" fill="#fff"/><path d="M12 4.5c2.17 0 2.58.57 3.5 1.82.38.53.82 1.12 1.44 1.74.49.49.92.87 1.27 1.18 1.09.95 1.29 1.12 1.29 2.76 0 2.93 0 3.38-1.56 4.94C16 18.86 15.38 19.5 13 19.5c-1.12 0-1.5-.32-2.11-.81-.62-.5-1.46-1.19-2.89-1.19-3.04 0-3.5-3.45-3.5-5.5 0-1.35.5-3.09 1.97-3.58 1.78-.59 2.73-1.71 3.49-2.61.79-.93 1.15-1.31 2.04-1.31M12 3C9 3 9 6 6 7c-2.12.71-3 3-3 5 0 3 1 7 5 7 2 0 2 2 5 2s4-1 6-3 2-3 2-6-1-3-3-5-2-4-6-4m0 5c-2.21 0-4 1.79-4 4s1.79 4 4 4 4-1.79 4-4-1.79-4-4-4m0 2c-1.1 0-2 .9-2 2H9c0-1.65 1.35-3 3-3v1Z" transform="translate(216) scale(1.5)" id="mdi-egg-fried" fill="#555"/><path d="M12 4.5c2.17 0 2.58.57 3.5 1.82.38.53.82 1.12 1.44 1.74.49.49.92.87 1.27 1.18 1.09.95 1.29 1.12 1.29 2.76 0 2.93 0 3.38-1.56 4.94C16 18.86 15.38 19.5 13 19.5c-1.12 0-1.5-.32-2.11-.81-.62-.5-1.46-1.19-2.89-1.19-3.04 0-3.5-3.45-3.5-5.5 0-1.35.5-3.09 1.97-3.58 1.78-.59 2.73-1.71 3.49-2.61.79-.93 1.15-1.31 2.04-1.31M12 3C9 3 9 6 6 7c-2.12.71-3 3-3 5 0 3 1 7 5 7 2 0 2 2 5 2s4-1 6-3 2-3 2-6-1-3-3-5-2-4-6-4m0 5c-2.21 0-4 1.79-4 4s1.79 4 4 4 4-1.79 4-4-1.79-4-4-4m0 2c-1.1 0-2 .9-2 2H9c0-1.65 1.35-3 3-3v1Z" transform="translate(252) scale(1.5)" id="mdi-egg-fried" fill="#fff"/><path d="M22.1 21.5 2.4 1.7 1.1 3l5 5c-1 2.3-1.6 4.8-1.6 6.5 0 4.1 3.4 7.5 7.5 7.5 2.2 0 4.2-1 5.6-2.5l3.2 3.2 1.3-1.2m-2.6-7C19.5 10.4 16.1 2 12 2c-1.5 0-2.9 1.1-4.1 2.7l11.4 11.4c.1-.5.2-1 .2-1.6Z" transform="translate(288) scale(1.5)" id="mdi-egg-off" fill="#555"/><path d="M22.1 21.5 2.4 1.7 1.1 3l5 5c-1 2.3-1.6 4.8-1.6 6.5 0 4.1 3.4 7.5 7.5 7.5 2.2 0 4.2-1 5.6-2.5l3.2 3.2 1.3-1.2m-2.6-7C19.5 10.4 16.1 2 12 2c-1.5 0-2.9 1.1-4.1 2.7l11.4 11.4c.1-.5.2-1 .2-1.6Z" transform="translate(324) scale(1.5)" id="mdi-egg-off" fill="#fff"/><path d="M22.11 21.46 2.39 1.73 1.11 3 6.1 8c-1 2.28-1.6 4.76-1.6 6.5 0 4.14 3.36 7.5 7.5 7.5 2.23 0 4.22-1 5.59-2.5l3.25 3.23 1.27-1.27M12 20a5.51 5.51 0 0 1-5.5-5.5c0-1.42.45-3.25 1.13-5l8.54 8.56C15.16 19.24 13.67 20 12 20M9.36 6.16 7.92 4.72C9.1 3.11 10.5 2 12 2c4.14 0 7.5 8.36 7.5 12.5 0 .56-.07 1.1-.18 1.62l-1.82-1.83C17.38 10.46 14.28 4 12 4c-.83 0-1.78.87-2.64 2.16Z" transform="translate(360) scale(1.5)" id="mdi-egg-off-outline" fill="#555"/><path d="M22.11 21.46 2.39 1.73 1.11 3 6.1 8c-1 2.28-1.6 4.76-1.6 6.5 0 4.14 3.36 7.5 7.5 7.5 2.23 0 4.22-1 5.59-2.5l3.25 3.23 1.27-1.27M12 20a5.51 5.51 0 0 1-5.5-5.5c0-1.42.45-3.25 1.13-5l8.54 8.56C15.16 19.24 13.67 20 12 20M9.36 6.16 7.92 4.72C9.1 3.11 10.5 2 12 2c4.14 0 7.5 8.36 7.5 12.5 0 .56-.07 1.1-.18 1.62l-1.82-1.83C17.38 10.46 14.28 4 12 4c-.83 0-1.78.87-2.64 2.16Z" transform="translate(396) scale(1.5)" id="mdi-egg-off-outline" fill="#fff"/><path d="M12 4c2.32 0 5.5 6.7 5.5 10.5 0 3.03-2.47 5.5-5.5 5.5s-5.5-2.47-5.5-5.5C6.5 10.7 9.68 4 12 4m0-2c-4.14 0-7.5 8.36-7.5 12.5 0 4.14 3.36 7.5 7.5 7.5s7.5-3.36 7.5-7.5C19.5 10.36 16.14 2 12 2Z" transform="translate(432) scale(1.5)" id="mdi-egg-outline" fill="#555"/><path d="M12 4c2.32 0 5.5 6.7 5.5 10.5 0 3.03-2.47 5.5-5.5 5.5s-5.5-2.47-5.5-5.5C6.5 10.7 9.68 4 12 4m0-2c-4.14 0-7.5 8.36-7.5 12.5 0 4.14 3.36 7.5 7.5 7.5s7.5-3.36 7.5-7.5C19.5 10.36 16.14 2 12 2Z" transform="translate(468) scale(1.5)" id="mdi-egg-outline" fill="#fff"/><path d="M8.21 17c.44-.85.85-1.84 1.23-3H9v-2h1c.61-2.6 1-5.87 1-10h2c0 4.13.4 7.4 1 10h1v2h-.44c.38 1.16.79 2.15 1.23 3H17v2l2 3h-2.42c-.77-1.76-2.53-3-4.58-3-2.05 0-3.81 1.24-4.58 3H5l2-3-.03-2h1.24m4.38-3h-1.18a21.77 21.77 0 0 1-1.13 3h3.44c-.4-.87-.79-1.87-1.13-3Z" transform="translate(504) scale(1.5)" id="mdi-eiffel-tower" fill="#555"/><path d="M8.21 17c.44-.85.85-1.84 1.23-3H9v-2h1c.61-2.6 1-5.87 1-10h2c0 4.13.4 7.4 1 10h1v2h-.44c.38 1.16.79 2.15 1.23 3H17v2l2 3h-2.42c-.77-1.76-2.53-3-4.58-3-2.05 0-3.81 1.24-4.58 3H5l2-3-.03-2h1.24m4.38-3h-1.18a21.77 21.77 0 0 1-1.13 3h3.44c-.4-.87-.79-1.87-1.13-3Z" transform="translate(540) scale(1.5)" id="mdi-eiffel-tower" fill="#fff"/><path d="M7 2 5 5v11l1 4c.27 1.07.9 2 2 2h8a2 2 0 0 0 2-2l1-4V5l-2-3h-2v1h-2V2H7m0 4h10v10H7V6Z" transform="translate(576) scale(1.5)" id="mdi-eight-track" fill="#555"/><path d="M7 2 5 5v11l1 4c.27 1.07.9 2 2 2h8a2 2 0 0 0 2-2l1-4V5l-2-3h-2v1h-2V2H7m0 4h10v10H7V6Z" transform="translate(612) scale(1.5)" id="mdi-eight-track" fill="#fff"/><path d="M12 5 5.33 15h13.34M5 17h14v2H5v-2Z" transform="translate(648) scale(1.5)" id="mdi-eject" fill="#555"/><path d="M12 5 5.33 15h13.34M5 17h14v2H5v-2Z" transform="translate(684) scale(1.5)" id="mdi-eject" fill="#fff"/><path d="M5 17h14v2H5v-2m7-12L5.33 15h13.34L12 5m0 3.6 2.93 4.4H9.07L12 8.6Z" transform="matrix(1.5 0 0 1.5 0 36)" id="mdi-eject-outline" fill="#555"/><path d="M5 17h14v2H5v-2m7-12L5.33 15h13.34L12 5m0 3.6 2.93 4.4H9.07L12 8.6Z" transform="matrix(1.5 0 0 1.5 36 36)" id="mdi-eject-outline" fill="#fff"/><path d="M1 11h2.17C3.58 9.83 4.69 9 6 9c.65 0 1.25.21 1.74.56l6.7-4.69 1.14 1.63-6.69 4.7c.07.25.11.52.11.8a3 3 0 0 1-3 3 2.99 2.99 0 0 1-2.83-2H1v-2m22 0v2h-2.17A2.99 2.99 0 0 1 18 15a3 3 0 0 1-3-3 3 3 0 0 1 3-3c1.31 0 2.42.83 2.83 2H23M6 11a1 1 0 0 0-1 1 1 1 0 0 0 1 1 1 1 0 0 0 1-1 1 1 0 0 0-1-1m12 0a1 1 0 0 0-1 1 1 1 0 0 0 1 1 1 1 0 0 0 1-1 1 1 0 0 0-1-1Z" transform="matrix(1.5 0 0 1.5 72 36)" id="mdi-electric-switch" fill="#555"/><path d="M1 11h2.17C3.58 9.83 4.69 9 6 9c.65 0 1.25.21 1.74.56l6.7-4.69 1.14 1.63-6.69 4.7c.07.25.11.52.11.8a3 3 0 0 1-3 3 2.99 2.99 0 0 1-2.83-2H1v-2m22 0v2h-2.17A2.99 2.99 0 0 1 18 15a3 3 0 0 1-3-3 3 3 0 0 1 3-3c1.31 0 2.42.83 2.83 2H23M6 11a1 1 0 0 0-1 1 1 1 0 0 0 1 1 1 1 0 0 0 1-1 1 1 0 0 0-1-1m12 0a1 1 0 0 0-1 1 1 1 0 0 0 1 1 1 1 0 0 0 1-1 1 1 0 0 0-1-1Z" transform="matrix(1.5 0 0 1.5 108 36)" id="mdi-electric-switch" fill="#fff"/><path d="M20.83 11a3 3 0 0 0-5.65 0H8.82a3 3 0 0 0-5.65 0H1v2h2.17a3 3 0 0 0 5.65 0h6.36a3 3 0 0 0 5.65 0H23v-2M6 13a1 1 0 1 1 1-1 1 1 0 0 1-1 1m12 0a1 1 0 1 1 1-1 1 1 0 0 1-1 1Z" transform="matrix(1.5 0 0 1.5 144 36)" id="mdi-electric-switch-closed" fill="#555"/><path d="M20.83 11a3 3 0 0 0-5.65 0H8.82a3 3 0 0 0-5.65 0H1v2h2.17a3 3 0 0 0 5.65 0h6.36a3 3 0 0 0 5.65 0H23v-2M6 13a1 1 0 1 1 1-1 1 1 0 0 1-1 1m12 0a1 1 0 1 1 1-1 1 1 0 0 1-1 1Z" transform="matrix(1.5 0 0 1.5 180 36)" id="mdi-electric-switch-closed" fill="#fff"/><path d="M12 22c-1.67 0-3.16-1.5-4.1-4.07-.07-.2.03-.43.24-.49.2-.08.42.03.49.23.81 2.23 2.07 3.56 3.37 3.56.94 0 1.87-.68 2.62-1.92a.386.386 0 0 1 .66.4C14.38 21.19 13.22 22 12 22m3.91-4.28a.36.36 0 0 1-.11-.02c-.21-.07-.3-.28-.26-.49.46-1.4.68-3.03.68-4.71 0-3.85-1.25-7.26-3.03-8.36-.25.36-.69.64-1.19.64-.76 0-1.39-.62-1.39-1.39 0-.77.63-1.39 1.39-1.39.77 0 1.4.61 1.41 1.37C15.53 4.5 17 8.21 17 12.5c0 1.75-.25 3.46-.72 4.95-.05.16-.2.27-.37.27M12 2.77c-.34 0-.62.28-.62.62 0 .34.29.61.62.61.35 0 .64-.27.64-.61 0-.34-.29-.62-.64-.62M4.08 18.54c-.77 0-1.4-.63-1.4-1.39 0-.49.26-.93.65-1.18-.14-2.41 2.35-5.56 6.17-7.75 1.59-.9 3.25-1.55 4.82-1.88.18-.05.41.08.45.29.05.21-.08.42-.27.46-1.5.32-3.09.94-4.6 1.8-3.44 1.97-5.8 4.79-5.8 6.87.76.01 1.4.63 1.4 1.39 0 .77-.65 1.39-1.42 1.39m0-2.01c-.34 0-.62.28-.62.62 0 .35.28.62.62.62s.63-.27.63-.62c0-.34-.29-.62-.63-.62m14.42-3.09c-.07 0-.16-.03-.23-.09a.393.393 0 0 1-.04-.55c1.54-1.8 2.07-3.54 1.41-4.66-.47-.81-1.54-1.26-3.01-1.28-.22 0-.39-.18-.38-.39 0-.21.18-.37.39-.38 1.75.02 3.06.61 3.67 1.66.84 1.44.29 3.46-1.49 5.55-.08.09-.19.14-.32.14m-2 5.46c-2 0-4.56-.74-7-2.13-1.55-.89-2.93-1.98-4-3.14a.402.402 0 0 1 0-.55c.18-.14.42-.13.57.03 1.01 1.1 2.33 2.14 3.82 2.99 3.31 1.9 6.88 2.53 8.76 1.62-.08-.17-.15-.37-.15-.57 0-.77.65-1.39 1.42-1.39.77 0 1.4.62 1.4 1.39a1.396 1.396 0 0 1-2.15 1.17c-.7.39-1.61.58-2.67.58m3-1.27c.13.08.27.14.42.14a.619.619 0 1 0 0-1.24c-.35 0-.62.28-.62.62 0 .14.05.27.13.38.04.02.07.06.07.1M4.46 12c-.13 0-.26-.08-.33-.2-.9-1.55-1.05-2.99-.43-4.06.84-1.44 2.88-1.98 5.61-1.49.19.04.35.25.31.45-.03.21-.23.35-.44.3C6.82 6.59 5 7 4.37 8.13c-.48.82-.33 1.98.43 3.28.1.19.04.42-.15.53-.06.03-.12.06-.19.06m7.75 1.4a.92.92 0 0 1-.4-1.8c.5-.1 1 .21 1.1.71.09.49-.21.98-.7 1.09Z" transform="matrix(1.5 0 0 1.5 216 36)" id="mdi-electron-framework" fill="#555"/><path d="M12 22c-1.67 0-3.16-1.5-4.1-4.07-.07-.2.03-.43.24-.49.2-.08.42.03.49.23.81 2.23 2.07 3.56 3.37 3.56.94 0 1.87-.68 2.62-1.92a.386.386 0 0 1 .66.4C14.38 21.19 13.22 22 12 22m3.91-4.28a.36.36 0 0 1-.11-.02c-.21-.07-.3-.28-.26-.49.46-1.4.68-3.03.68-4.71 0-3.85-1.25-7.26-3.03-8.36-.25.36-.69.64-1.19.64-.76 0-1.39-.62-1.39-1.39 0-.77.63-1.39 1.39-1.39.77 0 1.4.61 1.41 1.37C15.53 4.5 17 8.21 17 12.5c0 1.75-.25 3.46-.72 4.95-.05.16-.2.27-.37.27M12 2.77c-.34 0-.62.28-.62.62 0 .34.29.61.62.61.35 0 .64-.27.64-.61 0-.34-.29-.62-.64-.62M4.08 18.54c-.77 0-1.4-.63-1.4-1.39 0-.49.26-.93.65-1.18-.14-2.41 2.35-5.56 6.17-7.75 1.59-.9 3.25-1.55 4.82-1.88.18-.05.41.08.45.29.05.21-.08.42-.27.46-1.5.32-3.09.94-4.6 1.8-3.44 1.97-5.8 4.79-5.8 6.87.76.01 1.4.63 1.4 1.39 0 .77-.65 1.39-1.42 1.39m0-2.01c-.34 0-.62.28-.62.62 0 .35.28.62.62.62s.63-.27.63-.62c0-.34-.29-.62-.63-.62m14.42-3.09c-.07 0-.16-.03-.23-.09a.393.393 0 0 1-.04-.55c1.54-1.8 2.07-3.54 1.41-4.66-.47-.81-1.54-1.26-3.01-1.28-.22 0-.39-.18-.38-.39 0-.21.18-.37.39-.38 1.75.02 3.06.61 3.67 1.66.84 1.44.29 3.46-1.49 5.55-.08.09-.19.14-.32.14m-2 5.46c-2 0-4.56-.74-7-2.13-1.55-.89-2.93-1.98-4-3.14a.402.402 0 0 1 0-.55c.18-.14.42-.13.57.03 1.01 1.1 2.33 2.14 3.82 2.99 3.31 1.9 6.88 2.53 8.76 1.62-.08-.17-.15-.37-.15-.57 0-.77.65-1.39 1.42-1.39.77 0 1.4.62 1.4 1.39a1.396 1.396 0 0 1-2.15 1.17c-.7.39-1.61.58-2.67.58m3-1.27c.13.08.27.14.42.14a.619.619 0 1 0 0-1.24c-.35 0-.62.28-.62.62 0 .14.05.27.13.38.04.02.07.06.07.1M4.46 12c-.13 0-.26-.08-.33-.2-.9-1.55-1.05-2.99-.43-4.06.84-1.44 2.88-1.98 5.61-1.49.19.04.35.25.31.45-.03.21-.23.35-.44.3C6.82 6.59 5 7 4.37 8.13c-.48.82-.33 1.98.43 3.28.1.19.04.42-.15.53-.06.03-.12.06-.19.06m7.75 1.4a.92.92 0 0 1-.4-1.8c.5-.1 1 .21 1.1.71.09.49-.21.98-.7 1.09Z" transform="matrix(1.5 0 0 1.5 252 36)" id="mdi-electron-framework" fill="#fff"/><path d="M19.5 15.5a.5.5 0 0 1-.5.5.5.5 0 0 1-.5-.5v-7c0-1.93-2.07-3.5-4-3.5H6a4 4 0 0 0-4 4v10h4v-4h5v4h4v-4.5a.5.5 0 0 1 .5-.5.5.5 0 0 1 .5.5V16a3 3 0 0 0 3 3 3 3 0 0 0 3-3v-2h-2.5v1.5Z" transform="matrix(1.5 0 0 1.5 288 36)" id="mdi-elephant" fill="#555"/><path d="M19.5 15.5a.5.5 0 0 1-.5.5.5.5 0 0 1-.5-.5v-7c0-1.93-2.07-3.5-4-3.5H6a4 4 0 0 0-4 4v10h4v-4h5v4h4v-4.5a.5.5 0 0 1 .5-.5.5.5 0 0 1 .5.5V16a3 3 0 0 0 3 3 3 3 0 0 0 3-3v-2h-2.5v1.5Z" transform="matrix(1.5 0 0 1.5 324 36)" id="mdi-elephant" fill="#fff"/><path d="M21 21H3v-9.75L9.45 15l3.77-2.2L21 17.29V21M3 8.94V6.75l6.45 3.75 3.77-2.2L21 12.79V15l-7.78-4.5-3.77 2.17L3 8.94Z" transform="matrix(1.5 0 0 1.5 360 36)" id="mdi-elevation-decline" fill="#555"/><path d="M21 21H3v-9.75L9.45 15l3.77-2.2L21 17.29V21M3 8.94V6.75l6.45 3.75 3.77-2.2L21 12.79V15l-7.78-4.5-3.77 2.17L3 8.94Z" transform="matrix(1.5 0 0 1.5 396 36)" id="mdi-elevation-decline" fill="#fff"/><path d="M3 21v-3.71l7.78-4.49 3.77 2.2L21 11.25V21H3M21 8.94l-6.45 3.73-3.77-2.17L3 15v-2.21l7.78-4.49 3.77 2.2L21 6.75v2.19Z" transform="matrix(1.5 0 0 1.5 432 36)" id="mdi-elevation-rise" fill="#555"/><path d="M3 21v-3.71l7.78-4.49 3.77 2.2L21 11.25V21H3M21 8.94l-6.45 3.73-3.77-2.17L3 15v-2.21l7.78-4.49 3.77 2.2L21 6.75v2.19Z" transform="matrix(1.5 0 0 1.5 468 36)" id="mdi-elevation-rise" fill="#fff"/><path d="m7 2 4 4H8v4H6V6H3l4-4m10 8-4-4h3V2h2v4h3l-4 4M7 12h10a2 2 0 0 1 2 2v6a2 2 0 0 1-2 2H7a2 2 0 0 1-2-2v-6a2 2 0 0 1 2-2m0 2v6h10v-6H7Z" transform="matrix(1.5 0 0 1.5 504 36)" id="mdi-elevator" fill="#555"/><path d="m7 2 4 4H8v4H6V6H3l4-4m10 8-4-4h3V2h2v4h3l-4 4M7 12h10a2 2 0 0 1 2 2v6a2 2 0 0 1-2 2H7a2 2 0 0 1-2-2v-6a2 2 0 0 1 2-2m0 2v6h10v-6H7Z" transform="matrix(1.5 0 0 1.5 540 36)" id="mdi-elevator" fill="#fff"/><path d="m7 10 4-4H8V2H6v4H3l4 4m10 0-4-4h3V2h2v4h3l-4 4M7 12h10a2 2 0 0 1 2 2v6c0 1.11-.89 2-2 2H7a2 2 0 0 1-2-2v-6c0-1.1.9-2 2-2m0 2v6h10v-6H7Z" transform="matrix(1.5 0 0 1.5 576 36)" id="mdi-elevator-down" fill="#555"/><path d="m7 10 4-4H8V2H6v4H3l4 4m10 0-4-4h3V2h2v4h3l-4 4M7 12h10a2 2 0 0 1 2 2v6c0 1.11-.89 2-2 2H7a2 2 0 0 1-2-2v-6c0-1.1.9-2 2-2m0 2v6h10v-6H7Z" transform="matrix(1.5 0 0 1.5 612 36)" id="mdi-elevator-down" fill="#fff"/><path d="M19 3H5c-1.1 0-2 .9-2 2v14c0 1.1.9 2 2 2h14c1.1 0 2-.9 2-2V5c0-1.1-.9-2-2-2M8.5 6a1.25 1.25 0 1 1 0 2.5 1.25 1.25 0 0 1 0-2.5m2.5 8h-1v4H7v-4H6v-2.5c0-1.1.9-2 2-2h1c1.1 0 2 .9 2 2V14m4.5 3L13 13h5l-2.5 4M13 11l2.5-4 2.5 4h-5Z" transform="matrix(1.5 0 0 1.5 648 36)" id="mdi-elevator-passenger" fill="#555"/><path d="M19 3H5c-1.1 0-2 .9-2 2v14c0 1.1.9 2 2 2h14c1.1 0 2-.9 2-2V5c0-1.1-.9-2-2-2M8.5 6a1.25 1.25 0 1 1 0 2.5 1.25 1.25 0 0 1 0-2.5m2.5 8h-1v4H7v-4H6v-2.5c0-1.1.9-2 2-2h1c1.1 0 2 .9 2 2V14m4.5 3L13 13h5l-2.5 4M13 11l2.5-4 2.5 4h-5Z" transform="matrix(1.5 0 0 1.5 684 36)" id="mdi-elevator-passenger" fill="#fff"/><path d="m22.11 21.46-1.41-1.41v-.01L2.39 1.73 1.11 3 3 4.9V19c0 1.1.9 2 2 2h14.1l1.74 1.73 1.27-1.27M11 14h-1v4H7v-4H6v-2.5c0-1 .71-1.79 1.65-1.96L11 12.89V14m2.46-3.74L6.2 3H19c1.1 0 2 .9 2 2v12.8l-3.69-3.69L18 13h-1.8l-2-2H18l-2.5-4-2.04 3.26Z" transform="matrix(1.5 0 0 1.5 0 72)" id="mdi-elevator-passenger-off" fill="#555"/><path d="m22.11 21.46-1.41-1.41v-.01L2.39 1.73 1.11 3 3 4.9V19c0 1.1.9 2 2 2h14.1l1.74 1.73 1.27-1.27M11 14h-1v4H7v-4H6v-2.5c0-1 .71-1.79 1.65-1.96L11 12.89V14m2.46-3.74L6.2 3H19c1.1 0 2 .9 2 2v12.8l-3.69-3.69L18 13h-1.8l-2-2H18l-2.5-4-2.04 3.26Z" transform="matrix(1.5 0 0 1.5 36 72)" id="mdi-elevator-passenger-off" fill="#fff"/><path d="M22.11 21.46 2.39 1.73 1.11 3 3 4.9V19c0 1.1.9 2 2 2h14.1l1.74 1.73 1.27-1.27M5 19V6.89l2.65 2.65C6.71 9.71 6 10.5 6 11.5V14h1v4h3v-4h1v-1.11L17.11 19H5M8.2 5l-2-2H19c1.1 0 2 .9 2 2v12.8l-2-2V5H8.2m9.8 6h-3.8l-.74-.74L15.5 7l2.5 4m-.69 3.11L16.2 13H18l-.69 1.11Z" transform="matrix(1.5 0 0 1.5 72 72)" id="mdi-elevator-passenger-off-outline" fill="#555"/><path d="M22.11 21.46 2.39 1.73 1.11 3 3 4.9V19c0 1.1.9 2 2 2h14.1l1.74 1.73 1.27-1.27M5 19V6.89l2.65 2.65C6.71 9.71 6 10.5 6 11.5V14h1v4h3v-4h1v-1.11L17.11 19H5M8.2 5l-2-2H19c1.1 0 2 .9 2 2v12.8l-2-2V5H8.2m9.8 6h-3.8l-.74-.74L15.5 7l2.5 4m-.69 3.11L16.2 13H18l-.69 1.11Z" transform="matrix(1.5 0 0 1.5 108 72)" id="mdi-elevator-passenger-off-outline" fill="#fff"/><path d="M19 5v14H5V5h14m0-2H5c-1.1 0-2 .9-2 2v14c0 1.1.9 2 2 2h14c1.1 0 2-.9 2-2V5c0-1.1-.9-2-2-2m-9 15v-4h1v-2.5c0-1.1-.9-2-2-2H8c-1.1 0-2 .9-2 2V14h1v4h3M8.5 8.5a1.25 1.25 0 1 0 0-2.5 1.25 1.25 0 0 0 0 2.5M18 11l-2.5-4-2.5 4h5m-5 2 2.5 4 2.5-4h-5Z" transform="matrix(1.5 0 0 1.5 144 72)" id="mdi-elevator-passenger-outline" fill="#555"/><path d="M19 5v14H5V5h14m0-2H5c-1.1 0-2 .9-2 2v14c0 1.1.9 2 2 2h14c1.1 0 2-.9 2-2V5c0-1.1-.9-2-2-2m-9 15v-4h1v-2.5c0-1.1-.9-2-2-2H8c-1.1 0-2 .9-2 2V14h1v4h3M8.5 8.5a1.25 1.25 0 1 0 0-2.5 1.25 1.25 0 0 0 0 2.5M18 11l-2.5-4-2.5 4h5m-5 2 2.5 4 2.5-4h-5Z" transform="matrix(1.5 0 0 1.5 180 72)" id="mdi-elevator-passenger-outline" fill="#fff"/><path d="m7 2 4 4H8v4H6V6H3l4-4m10 0-4 4h3v4h2V6h3l-4-4M7 12h10a2 2 0 0 1 2 2v6c0 1.11-.89 2-2 2H7a2 2 0 0 1-2-2v-6c0-1.1.9-2 2-2m0 2v6h10v-6H7Z" transform="matrix(1.5 0 0 1.5 216 72)" id="mdi-elevator-up" fill="#555"/><path d="m7 2 4 4H8v4H6V6H3l4-4m10 0-4 4h3v4h2V6h3l-4-4M7 12h10a2 2 0 0 1 2 2v6c0 1.11-.89 2-2 2H7a2 2 0 0 1-2-2v-6c0-1.1.9-2 2-2m0 2v6h10v-6H7Z" transform="matrix(1.5 0 0 1.5 252 72)" id="mdi-elevator-up" fill="#fff"/><path d="M12 4C6.5 4 2 7.58 2 12s4.5 8 10 8 10-3.58 10-8-4.5-8-10-8Z" transform="matrix(1.5 0 0 1.5 288 72)" id="mdi-ellipse" fill="#555"/><path d="M12 4C6.5 4 2 7.58 2 12s4.5 8 10 8 10-3.58 10-8-4.5-8-10-8Z" transform="matrix(1.5 0 0 1.5 324 72)" id="mdi-ellipse" fill="#fff"/><path d="M12 6c4.41 0 8 2.69 8 6s-3.59 6-8 6-8-2.69-8-6 3.59-6 8-6m0-2C6.5 4 2 7.58 2 12s4.5 8 10 8 10-3.58 10-8-4.5-8-10-8Z" transform="matrix(1.5 0 0 1.5 360 72)" id="mdi-ellipse-outline" fill="#555"/><path d="M12 6c4.41 0 8 2.69 8 6s-3.59 6-8 6-8-2.69-8-6 3.59-6 8-6m0-2C6.5 4 2 7.58 2 12s4.5 8 10 8 10-3.58 10-8-4.5-8-10-8Z" transform="matrix(1.5 0 0 1.5 396 72)" id="mdi-ellipse-outline" fill="#fff"/><path d="m20 8-8 5-8-5V6l8 5 8-5m0-2H4c-1.11 0-2 .89-2 2v12a2 2 0 0 0 2 2h16a2 2 0 0 0 2-2V6a2 2 0 0 0-2-2Z" transform="matrix(1.5 0 0 1.5 432 72)" id="mdi-email" fill="#555"/><path d="m20 8-8 5-8-5V6l8 5 8-5m0-2H4c-1.11 0-2 .89-2 2v12a2 2 0 0 0 2 2h16a2 2 0 0 0 2-2V6a2 2 0 0 0-2-2Z" transform="matrix(1.5 0 0 1.5 468 72)" id="mdi-email" fill="#fff"/><path d="m18 8-8 5-8-5V6l8 5 8-5m0-2H2C.9 4 0 4.9 0 6v12c0 1.1.9 2 2 2h16c1.1 0 2-.9 2-2V6c0-1.1-.9-2-2-2m6 3h-2v6h2V7m0 8h-2v2h2v-2Z" transform="matrix(1.5 0 0 1.5 504 72)" id="mdi-email-alert" fill="#555"/><path d="m18 8-8 5-8-5V6l8 5 8-5m0-2H2C.9 4 0 4.9 0 6v12c0 1.1.9 2 2 2h16c1.1 0 2-.9 2-2V6c0-1.1-.9-2-2-2m6 3h-2v6h2V7m0 8h-2v2h2v-2Z" transform="matrix(1.5 0 0 1.5 540 72)" id="mdi-email-alert" fill="#fff"/><path d="M24 7h-2v6h2V7m0 8h-2v2h2v-2m-4-9c0-1.1-.9-2-2-2H2C.9 4 0 4.9 0 6v12c0 1.1.9 2 2 2h16c1.1 0 2-.9 2-2V6m-2 0-8 5-8-5h16m0 12H2V8l8 5 8-5v10Z" transform="matrix(1.5 0 0 1.5 576 72)" id="mdi-email-alert-outline" fill="#555"/><path d="M24 7h-2v6h2V7m0 8h-2v2h2v-2m-4-9c0-1.1-.9-2-2-2H2C.9 4 0 4.9 0 6v12c0 1.1.9 2 2 2h16c1.1 0 2-.9 2-2V6m-2 0-8 5-8-5h16m0 12H2V8l8 5 8-5v10Z" transform="matrix(1.5 0 0 1.5 612 72)" id="mdi-email-alert-outline" fill="#fff"/><path d="M5 3a2 2 0 0 0-2 2v14a2 2 0 0 0 2 2h14a2 2 0 0 0 2-2V5a2 2 0 0 0-2-2H5m1.4 3.5h11.2c.77 0 1.4.62 1.4 1.4v8.2a1.4 1.4 0 0 1-1.4 1.4H6.4c-.77 0-1.4-.63-1.4-1.4V7.9c0-.78.62-1.4 1.4-1.4M6 8v2l6 4 6-4V8l-6 4-6-4Z" transform="matrix(1.5 0 0 1.5 648 72)" id="mdi-email-box" fill="#555"/><path d="M5 3a2 2 0 0 0-2 2v14a2 2 0 0 0 2 2h14a2 2 0 0 0 2-2V5a2 2 0 0 0-2-2H5m1.4 3.5h11.2c.77 0 1.4.62 1.4 1.4v8.2a1.4 1.4 0 0 1-1.4 1.4H6.4c-.77 0-1.4-.63-1.4-1.4V7.9c0-.78.62-1.4 1.4-1.4M6 8v2l6 4 6-4V8l-6 4-6-4Z" transform="matrix(1.5 0 0 1.5 684 72)" id="mdi-email-box" fill="#fff"/><path d="M21 13.34c-.63-.22-1.3-.34-2-.34a6 6 0 0 0-6 6c0 .34.03.67.08 1H3a2 2 0 0 1-2-2V6c0-1.11.89-2 2-2h16a2 2 0 0 1 2 2v7.34M23.5 17l-5 5-3.5-3.5 1.5-1.5 2 2 3.5-3.5 1.5 1.5M3 6v2l8 5 8-5V6l-8 5-8-5Z" transform="matrix(1.5 0 0 1.5 0 108)" id="mdi-email-check" fill="#555"/><path d="M21 13.34c-.63-.22-1.3-.34-2-.34a6 6 0 0 0-6 6c0 .34.03.67.08 1H3a2 2 0 0 1-2-2V6c0-1.11.89-2 2-2h16a2 2 0 0 1 2 2v7.34M23.5 17l-5 5-3.5-3.5 1.5-1.5 2 2 3.5-3.5 1.5 1.5M3 6v2l8 5 8-5V6l-8 5-8-5Z" transform="matrix(1.5 0 0 1.5 36 108)" id="mdi-email-check" fill="#fff"/><path d="m23.5 17-5 5-3.5-3.5 1.5-1.5 2 2 3.5-3.5 1.5 1.5M13 18H3V8l8 5 8-5v5h2V6c0-1.1-.9-2-2-2H3c-1.1 0-2 .9-2 2v12c0 1.1.9 2 2 2h10v-2m6-12-8 5-8-5h16Z" transform="matrix(1.5 0 0 1.5 72 108)" id="mdi-email-check-outline" fill="#555"/><path d="m23.5 17-5 5-3.5-3.5 1.5-1.5 2 2 3.5-3.5 1.5 1.5M13 18H3V8l8 5 8-5v5h2V6c0-1.1-.9-2-2-2H3c-1.1 0-2 .9-2 2v12c0 1.1.9 2 2 2h10v-2m6-12-8 5-8-5h16Z" transform="matrix(1.5 0 0 1.5 108 108)" id="mdi-email-check-outline" fill="#fff"/><path d="M21 12.13c-.15.01-.29.06-.39.17l-1 1 2.05 2 1-1c.22-.21.22-.56 0-.77l-1.24-1.23a.557.557 0 0 0-.38-.17m-2 1.75L13 19.94V22h2.06l6.06-6.07M20 4H4a2 2 0 0 0-2 2v12a2 2 0 0 0 2 2h7v-.89l8.24-8.22c.47-.49 1.12-.76 1.8-.76.34 0 .68.06 1 .19V6c0-1.12-.92-2-2.04-2m0 4-8 5-8-5V6l8 5 8-5" transform="matrix(1.5 0 0 1.5 144 108)" id="mdi-email-edit" fill="#555"/><path d="M21 12.13c-.15.01-.29.06-.39.17l-1 1 2.05 2 1-1c.22-.21.22-.56 0-.77l-1.24-1.23a.557.557 0 0 0-.38-.17m-2 1.75L13 19.94V22h2.06l6.06-6.07M20 4H4a2 2 0 0 0-2 2v12a2 2 0 0 0 2 2h7v-.89l8.24-8.22c.47-.49 1.12-.76 1.8-.76.34 0 .68.06 1 .19V6c0-1.12-.92-2-2.04-2m0 4-8 5-8-5V6l8 5 8-5" transform="matrix(1.5 0 0 1.5 180 108)" id="mdi-email-edit" fill="#fff"/><path d="M19.07 13.88 13 19.94V22h2.06l6.06-6.07m1.58-2.35-1.28-1.28a.517.517 0 0 0-.38-.17c-.15.01-.29.06-.39.17l-1 1 2.05 2 1-1c.19-.2.19-.52 0-.72M11 18H4V8l8 5 8-5v2h2V6c0-1.1-.9-2-2-2H4c-1.1 0-2 .9-2 2v12c0 1.1.9 2 2 2h7v-2m9-12-8 5-8-5h16Z" transform="matrix(1.5 0 0 1.5 216 108)" id="mdi-email-edit-outline" fill="#555"/><path d="M19.07 13.88 13 19.94V22h2.06l6.06-6.07m1.58-2.35-1.28-1.28a.517.517 0 0 0-.38-.17c-.15.01-.29.06-.39.17l-1 1 2.05 2 1-1c.19-.2.19-.52 0-.72M11 18H4V8l8 5 8-5v2h2V6c0-1.1-.9-2-2-2H4c-1.1 0-2 .9-2 2v12c0 1.1.9 2 2 2h7v-2m9-12-8 5-8-5h16Z" transform="matrix(1.5 0 0 1.5 252 108)" id="mdi-email-edit-outline" fill="#fff"/><path d="M22 5.5H9c-1.1 0-2 .9-2 2v9a2 2 0 0 0 2 2h13c1.11 0 2-.89 2-2v-9a2 2 0 0 0-2-2m0 3.67-6.5 3.33L9 9.17V7.5l6.5 3.31L22 7.5v1.67M5 16.5c0 .17.03.33.05.5H1c-.552 0-1-.45-1-1s.448-1 1-1h4v1.5M3 7h2.05c-.02.17-.05.33-.05.5V9H3c-.55 0-1-.45-1-1s.45-1 1-1m-2 5c0-.55.45-1 1-1h3v2H2c-.55 0-1-.45-1-1Z" transform="matrix(1.5 0 0 1.5 288 108)" id="mdi-email-fast" fill="#555"/><path d="M22 5.5H9c-1.1 0-2 .9-2 2v9a2 2 0 0 0 2 2h13c1.11 0 2-.89 2-2v-9a2 2 0 0 0-2-2m0 3.67-6.5 3.33L9 9.17V7.5l6.5 3.31L22 7.5v1.67M5 16.5c0 .17.03.33.05.5H1c-.552 0-1-.45-1-1s.448-1 1-1h4v1.5M3 7h2.05c-.02.17-.05.33-.05.5V9H3c-.55 0-1-.45-1-1s.45-1 1-1m-2 5c0-.55.45-1 1-1h3v2H2c-.55 0-1-.45-1-1Z" transform="matrix(1.5 0 0 1.5 324 108)" id="mdi-email-fast" fill="#fff"/><path d="M22 5.5H9c-1.1 0-2 .9-2 2v9a2 2 0 0 0 2 2h13c1.11 0 2-.89 2-2v-9a2 2 0 0 0-2-2m0 11H9V9.17l6.5 3.33L22 9.17v7.33m-6.5-5.69L9 7.5h13l-6.5 3.31M5 16.5c0 .17.03.33.05.5H1c-.552 0-1-.45-1-1s.448-1 1-1h4v1.5M3 7h2.05c-.02.17-.05.33-.05.5V9H3c-.55 0-1-.45-1-1s.45-1 1-1m-2 5c0-.55.45-1 1-1h3v2H2c-.55 0-1-.45-1-1Z" transform="matrix(1.5 0 0 1.5 360 108)" id="mdi-email-fast-outline" fill="#555"/><path d="M22 5.5H9c-1.1 0-2 .9-2 2v9a2 2 0 0 0 2 2h13c1.11 0 2-.89 2-2v-9a2 2 0 0 0-2-2m0 11H9V9.17l6.5 3.33L22 9.17v7.33m-6.5-5.69L9 7.5h13l-6.5 3.31M5 16.5c0 .17.03.33.05.5H1c-.552 0-1-.45-1-1s.448-1 1-1h4v1.5M3 7h2.05c-.02.17-.05.33-.05.5V9H3c-.55 0-1-.45-1-1s.45-1 1-1m-2 5c0-.55.45-1 1-1h3v2H2c-.55 0-1-.45-1-1Z" transform="matrix(1.5 0 0 1.5 396 108)" id="mdi-email-fast-outline" fill="#fff"/><path d="M20.5 0A2.5 2.5 0 0 1 23 2.5V3a1 1 0 0 1 1 1v4a1 1 0 0 1-1 1h-5a1 1 0 0 1-1-1V4a1 1 0 0 1 1-1v-.5A2.5 2.5 0 0 1 20.5 0M12 11 4 6v2l8 5 4.18-2.61c.51.38 1.14.61 1.82.61h4v7a2 2 0 0 1-2 2H4a2 2 0 0 1-2-2V6a2 2 0 0 1 2-2h11v4c0 .36.06.7.18 1L12 11m8.5-10A1.5 1.5 0 0 0 19 2.5V3h3v-.5A1.5 1.5 0 0 0 20.5 1Z" transform="matrix(1.5 0 0 1.5 432 108)" id="mdi-email-lock" fill="#555"/><path d="M20.5 0A2.5 2.5 0 0 1 23 2.5V3a1 1 0 0 1 1 1v4a1 1 0 0 1-1 1h-5a1 1 0 0 1-1-1V4a1 1 0 0 1 1-1v-.5A2.5 2.5 0 0 1 20.5 0M12 11 4 6v2l8 5 4.18-2.61c.51.38 1.14.61 1.82.61h4v7a2 2 0 0 1-2 2H4a2 2 0 0 1-2-2V6a2 2 0 0 1 2-2h11v4c0 .36.06.7.18 1L12 11m8.5-10A1.5 1.5 0 0 0 19 2.5V3h3v-.5A1.5 1.5 0 0 0 20.5 1Z" transform="matrix(1.5 0 0 1.5 468 108)" id="mdi-email-lock" fill="#fff"/><path d="M18.84 7h-2.62L10.5 4 4 7.41V17a2 2 0 0 1-2-2V7.17c0-.67.28-1.11.81-1.36L10.5 2l7.55 3.81c.45.28.73.69.79 1.19M7 8h13a2 2 0 0 1 2 2v9a2 2 0 0 1-2 2H7a2 2 0 0 1-2-2v-9a2 2 0 0 1 2-2m13 3.67V10l-6.5 3.31L7 10v1.67L13.5 15l6.5-3.33Z" transform="matrix(1.5 0 0 1.5 504 108)" id="mdi-email-mark-as-unread" fill="#555"/><path d="M18.84 7h-2.62L10.5 4 4 7.41V17a2 2 0 0 1-2-2V7.17c0-.67.28-1.11.81-1.36L10.5 2l7.55 3.81c.45.28.73.69.79 1.19M7 8h13a2 2 0 0 1 2 2v9a2 2 0 0 1-2 2H7a2 2 0 0 1-2-2v-9a2 2 0 0 1 2-2m13 3.67V10l-6.5 3.31L7 10v1.67L13.5 15l6.5-3.33Z" transform="matrix(1.5 0 0 1.5 540 108)" id="mdi-email-mark-as-unread" fill="#fff"/><path d="M3 4c-1.11 0-2 .89-2 2v12a2 2 0 0 0 2 2h11.09c-.06-.33-.09-.66-.09-1a6 6 0 0 1 6-6c.34 0 .67.03 1 .09V6a2 2 0 0 0-2-2H3m0 2 8 5 8-5v2l-8 5-8-5V6m13 12v2h8v-2h-8Z" transform="matrix(1.5 0 0 1.5 576 108)" id="mdi-email-minus" fill="#555"/><path d="M3 4c-1.11 0-2 .89-2 2v12a2 2 0 0 0 2 2h11.09c-.06-.33-.09-.66-.09-1a6 6 0 0 1 6-6c.34 0 .67.03 1 .09V6a2 2 0 0 0-2-2H3m0 2 8 5 8-5v2l-8 5-8-5V6m13 12v2h8v-2h-8Z" transform="matrix(1.5 0 0 1.5 612 108)" id="mdi-email-minus" fill="#fff"/><path d="M16 18v2h8v-2h-8m-2 1c0-.34.04-.67.09-1H3V8l8 5 8-5v5.09c.33-.05.66-.09 1-.09s.67.04 1 .09V6c0-1.1-.9-2-2-2H3c-1.1 0-2 .9-2 2v12c0 1.1.9 2 2 2h11.09c-.05-.33-.09-.66-.09-1m5-13-8 5-8-5h16Z" transform="matrix(1.5 0 0 1.5 648 108)" id="mdi-email-minus-outline" fill="#555"/><path d="M16 18v2h8v-2h-8m-2 1c0-.34.04-.67.09-1H3V8l8 5 8-5v5.09c.33-.05.66-.09 1-.09s.67.04 1 .09V6c0-1.1-.9-2-2-2H3c-1.1 0-2 .9-2 2v12c0 1.1.9 2 2 2h11.09c-.05-.33-.09-.66-.09-1m5-13-8 5-8-5h16Z" transform="matrix(1.5 0 0 1.5 684 108)" id="mdi-email-minus-outline" fill="#fff"/><path d="M22 6V4l-8 5-8-5v2l8 5 8-5m0-4a2 2 0 0 1 2 2v12a2 2 0 0 1-2 2H6a2 2 0 0 1-2-2V4c0-1.11.89-2 2-2h16M2 6v14h18v2H2a2 2 0 0 1-2-2V6h2Z" transform="matrix(1.5 0 0 1.5 0 144)" id="mdi-email-multiple" fill="#555"/><path d="M22 6V4l-8 5-8-5v2l8 5 8-5m0-4a2 2 0 0 1 2 2v12a2 2 0 0 1-2 2H6a2 2 0 0 1-2-2V4c0-1.11.89-2 2-2h16M2 6v14h18v2H2a2 2 0 0 1-2-2V6h2Z" transform="matrix(1.5 0 0 1.5 36 144)" id="mdi-email-multiple" fill="#fff"/><path d="M2 6v14h18v2H2c-1.105 0-2-.89-2-2V6h2m22-2c0-1.1-.9-2-2-2H6c-1.1 0-2 .9-2 2v12c0 1.1.9 2 2 2h16c1.1 0 2-.9 2-2V4m-2 0-8 5-8-5h16m0 12H6V6l8 5 8-5v10Z" transform="matrix(1.5 0 0 1.5 72 144)" id="mdi-email-multiple-outline" fill="#555"/><path d="M2 6v14h18v2H2c-1.105 0-2-.89-2-2V6h2m22-2c0-1.1-.9-2-2-2H6c-1.1 0-2 .9-2 2v12c0 1.1.9 2 2 2h16c1.1 0 2-.9 2-2V4m-2 0-8 5-8-5h16m0 12H6V6l8 5 8-5v10Z" transform="matrix(1.5 0 0 1.5 108 144)" id="mdi-email-multiple-outline" fill="#fff"/><path d="M12 .64 8.23 3H5v2L2.97 6.29C2.39 6.64 2 7.27 2 8v10a2 2 0 0 0 2 2h16c1.11 0 2-.89 2-2V8c0-.73-.39-1.36-.97-1.71L19 5V3h-3.23M7 5h10v4.88L12 13 7 9.88M8 6v1.5h8V6M5 7.38v1.25L4 8m15-.62L20 8l-1 .63M8 8.5V10h8V8.5Z" transform="matrix(1.5 0 0 1.5 144 144)" id="mdi-email-newsletter" fill="#555"/><path d="M12 .64 8.23 3H5v2L2.97 6.29C2.39 6.64 2 7.27 2 8v10a2 2 0 0 0 2 2h16c1.11 0 2-.89 2-2V8c0-.73-.39-1.36-.97-1.71L19 5V3h-3.23M7 5h10v4.88L12 13 7 9.88M8 6v1.5h8V6M5 7.38v1.25L4 8m15-.62L20 8l-1 .63M8 8.5V10h8V8.5Z" transform="matrix(1.5 0 0 1.5 180 144)" id="mdi-email-newsletter" fill="#fff"/><path d="M22.1 21.5 2.4 1.7 1.1 3l1.5 1.5c-.4.4-.6.9-.6 1.5v12c0 1.1.9 2 2 2h14.1l2.7 2.7 1.3-1.2M4 8V6l.3.2 5.3 5.3L4 8m9.4 2.2L7.2 4H20c1.1 0 2 .9 2 2v12c0 .2 0 .5-.1.7l-7.3-7.3L20 8V6l-6.6 4.2Z" transform="matrix(1.5 0 0 1.5 216 144)" id="mdi-email-off" fill="#555"/><path d="M22.1 21.5 2.4 1.7 1.1 3l1.5 1.5c-.4.4-.6.9-.6 1.5v12c0 1.1.9 2 2 2h14.1l2.7 2.7 1.3-1.2M4 8V6l.3.2 5.3 5.3L4 8m9.4 2.2L7.2 4H20c1.1 0 2 .9 2 2v12c0 .2 0 .5-.1.7l-7.3-7.3L20 8V6l-6.6 4.2Z" transform="matrix(1.5 0 0 1.5 252 144)" id="mdi-email-off" fill="#fff"/><path d="M22.1 21.5 2.4 1.7 1.1 3l1.5 1.5c-.3.4-.6.9-.6 1.5v12c0 1.1.9 2 2 2h14.1l2.7 2.7 1.3-1.2M4 18V8l5.6 3.5 6.5 6.5H4M9.2 6l-2-2H20c1.1 0 2 .9 2 2v12c0 .2 0 .5-.1.7L20 16.8V8l-5.4 3.4-1.2-1.2L20 6H9.2Z" transform="matrix(1.5 0 0 1.5 288 144)" id="mdi-email-off-outline" fill="#555"/><path d="M22.1 21.5 2.4 1.7 1.1 3l1.5 1.5c-.3.4-.6.9-.6 1.5v12c0 1.1.9 2 2 2h14.1l2.7 2.7 1.3-1.2M4 18V8l5.6 3.5 6.5 6.5H4M9.2 6l-2-2H20c1.1 0 2 .9 2 2v12c0 .2 0 .5-.1.7L20 16.8V8l-5.4 3.4-1.2-1.2L20 6H9.2Z" transform="matrix(1.5 0 0 1.5 324 144)" id="mdi-email-off-outline" fill="#fff"/><path d="m4 8 8 5 8-5-8-5-8 5m18 0v10a2 2 0 0 1-2 2H4a2 2 0 0 1-2-2V8c0-.73.39-1.36.97-1.71L12 .64l9.03 5.65c.58.35.97.98.97 1.71Z" transform="matrix(1.5 0 0 1.5 360 144)" id="mdi-email-open" fill="#555"/><path d="m4 8 8 5 8-5-8-5-8 5m18 0v10a2 2 0 0 1-2 2H4a2 2 0 0 1-2-2V8c0-.73.39-1.36.97-1.71L12 .64l9.03 5.65c.58.35.97.98.97 1.71Z" transform="matrix(1.5 0 0 1.5 396 144)" id="mdi-email-open" fill="#fff"/><path d="m6 8 8 5 8-5-8-5-8 5m18 0v10a2 2 0 0 1-2 2H6a2 2 0 0 1-2-2V8c0-.73.39-1.36.97-1.71L14 .64l9.03 5.65c.58.35.97.98.97 1.71M2 8v14h18v2H2a2 2 0 0 1-2-2V8h2Z" transform="matrix(1.5 0 0 1.5 432 144)" id="mdi-email-open-multiple" fill="#555"/><path d="m6 8 8 5 8-5-8-5-8 5m18 0v10a2 2 0 0 1-2 2H6a2 2 0 0 1-2-2V8c0-.73.39-1.36.97-1.71L14 .64l9.03 5.65c.58.35.97.98.97 1.71M2 8v14h18v2H2a2 2 0 0 1-2-2V8h2Z" transform="matrix(1.5 0 0 1.5 468 144)" id="mdi-email-open-multiple" fill="#fff"/><path d="M2 8v14h18v2H2c-1.105 0-2-.89-2-2V8h2m21.03-1.71L14 .64 4.97 6.29C4.39 6.64 4 7.27 4 8v10c0 1.1.9 2 2 2h16c1.1 0 2-.9 2-2V8c0-.73-.39-1.36-.97-1.71M22 18H6v-8l8 5 8-5v8m-8-5L6 8l8-5 8 5-8 5Z" transform="matrix(1.5 0 0 1.5 504 144)" id="mdi-email-open-multiple-outline" fill="#555"/><path d="M2 8v14h18v2H2c-1.105 0-2-.89-2-2V8h2m21.03-1.71L14 .64 4.97 6.29C4.39 6.64 4 7.27 4 8v10c0 1.1.9 2 2 2h16c1.1 0 2-.9 2-2V8c0-.73-.39-1.36-.97-1.71M22 18H6v-8l8 5 8-5v8m-8-5L6 8l8-5 8 5-8 5Z" transform="matrix(1.5 0 0 1.5 540 144)" id="mdi-email-open-multiple-outline" fill="#fff"/><path d="M21.03 6.29 12 .64 2.97 6.29C2.39 6.64 2 7.27 2 8v10c0 1.1.9 2 2 2h16c1.1 0 2-.9 2-2V8c0-.73-.39-1.36-.97-1.71M20 18H4v-8l8 5 8-5v8m-8-5L4 8l8-5 8 5-8 5Z" transform="matrix(1.5 0 0 1.5 576 144)" id="mdi-email-open-outline" fill="#555"/><path d="M21.03 6.29 12 .64 2.97 6.29C2.39 6.64 2 7.27 2 8v10c0 1.1.9 2 2 2h16c1.1 0 2-.9 2-2V8c0-.73-.39-1.36-.97-1.71M20 18H4v-8l8 5 8-5v8m-8-5L4 8l8-5 8 5-8 5Z" transform="matrix(1.5 0 0 1.5 612 144)" id="mdi-email-open-outline" fill="#fff"/><path d="M22 6c0-1.1-.9-2-2-2H4c-1.1 0-2 .9-2 2v12c0 1.1.9 2 2 2h16c1.1 0 2-.9 2-2V6m-2 0-8 5-8-5h16m0 12H4V8l8 5 8-5v10Z" transform="matrix(1.5 0 0 1.5 648 144)" id="mdi-email-outline" fill="#555"/><path d="M22 6c0-1.1-.9-2-2-2H4c-1.1 0-2 .9-2 2v12c0 1.1.9 2 2 2h16c1.1 0 2-.9 2-2V6m-2 0-8 5-8-5h16m0 12H4V8l8 5 8-5v10Z" transform="matrix(1.5 0 0 1.5 684 144)" id="mdi-email-outline" fill="#fff"/><path d="M3 4c-1.11 0-2 .89-2 2v12a2 2 0 0 0 2 2h11.09c-.06-.33-.09-.66-.09-1a6 6 0 0 1 6-6c.34 0 .67.03 1 .09V6a2 2 0 0 0-2-2H3m0 2 8 5 8-5v2l-8 5-8-5V6m16 9v3h-3v2h3v3h2v-3h3v-2h-3v-3h-2Z" transform="matrix(1.5 0 0 1.5 0 180)" id="mdi-email-plus" fill="#555"/><path d="M3 4c-1.11 0-2 .89-2 2v12a2 2 0 0 0 2 2h11.09c-.06-.33-.09-.66-.09-1a6 6 0 0 1 6-6c.34 0 .67.03 1 .09V6a2 2 0 0 0-2-2H3m0 2 8 5 8-5v2l-8 5-8-5V6m16 9v3h-3v2h3v3h2v-3h3v-2h-3v-3h-2Z" transform="matrix(1.5 0 0 1.5 36 180)" id="mdi-email-plus" fill="#fff"/><path d="M19 15v3h-3v2h3v3h2v-3h3v-2h-3v-3h-2m-5 3H3V8l8 5 8-5v5h2V6c0-1.1-.9-2-2-2H3c-1.1 0-2 .9-2 2v12c0 1.1.9 2 2 2h11v-2m5-12-8 5-8-5h16Z" transform="matrix(1.5 0 0 1.5 72 180)" id="mdi-email-plus-outline" fill="#555"/><path d="M19 15v3h-3v2h3v3h2v-3h3v-2h-3v-3h-2m-5 3H3V8l8 5 8-5v5h2V6c0-1.1-.9-2-2-2H3c-1.1 0-2 .9-2 2v12c0 1.1.9 2 2 2h11v-2m5-12-8 5-8-5h16Z" transform="matrix(1.5 0 0 1.5 108 180)" id="mdi-email-plus-outline" fill="#fff"/><path d="M22 20h-4v3l-5-4.5 5-4.5v3h4v3M20 4H4a2 2 0 0 0-2 2v12a2 2 0 0 0 2 2h7.35a5.8 5.8 0 0 1-.35-2 6 6 0 0 1 11-3.31V6a2 2 0 0 0-2-2m0 4-8 5-8-5V6l8 5 8-5Z" transform="matrix(1.5 0 0 1.5 144 180)" id="mdi-email-receive" fill="#555"/><path d="M22 20h-4v3l-5-4.5 5-4.5v3h4v3M20 4H4a2 2 0 0 0-2 2v12a2 2 0 0 0 2 2h7.35a5.8 5.8 0 0 1-.35-2 6 6 0 0 1 11-3.31V6a2 2 0 0 0-2-2m0 4-8 5-8-5V6l8 5 8-5Z" transform="matrix(1.5 0 0 1.5 180 180)" id="mdi-email-receive" fill="#fff"/><path d="M22 20h-4v3l-5-4.5 5-4.5v3h4v3M20 4H4a2 2 0 0 0-2 2v12a2 2 0 0 0 2 2h7v-2H4V8l8 5 8-5v7h2V6a2 2 0 0 0-2-2m-8 7L4 6h16Z" transform="matrix(1.5 0 0 1.5 216 180)" id="mdi-email-receive-outline" fill="#555"/><path d="M22 20h-4v3l-5-4.5 5-4.5v3h4v3M20 4H4a2 2 0 0 0-2 2v12a2 2 0 0 0 2 2h7v-2H4V8l8 5 8-5v7h2V6a2 2 0 0 0-2-2m-8 7L4 6h16Z" transform="matrix(1.5 0 0 1.5 252 180)" id="mdi-email-receive-outline" fill="#fff"/><path d="m20.41 19 2.13 2.12-1.42 1.42L19 20.41l-2.12 2.13-1.41-1.42L17.59 19l-2.12-2.12 1.41-1.41L19 17.59l2.12-2.12 1.42 1.41L20.41 19M13 19c0 .34.04.67.09 1H4a2 2 0 0 1-2-2V6c0-1.11.89-2 2-2h16a2 2 0 0 1 2 2v7.81c-.88-.51-1.9-.81-3-.81-3.31 0-6 2.69-6 6m7-11V6l-8 5-8-5v2l8 5 8-5Z" transform="matrix(1.5 0 0 1.5 288 180)" id="mdi-email-remove" fill="#555"/><path d="m20.41 19 2.13 2.12-1.42 1.42L19 20.41l-2.12 2.13-1.41-1.42L17.59 19l-2.12-2.12 1.41-1.41L19 17.59l2.12-2.12 1.42 1.41L20.41 19M13 19c0 .34.04.67.09 1H4a2 2 0 0 1-2-2V6c0-1.11.89-2 2-2h16a2 2 0 0 1 2 2v7.81c-.88-.51-1.9-.81-3-.81-3.31 0-6 2.69-6 6m7-11V6l-8 5-8-5v2l8 5 8-5Z" transform="matrix(1.5 0 0 1.5 324 180)" id="mdi-email-remove" fill="#fff"/><path d="M13.09 18H4V8l8 5 8-5v5.09c.72.12 1.39.37 2 .72V6c0-1.1-.9-2-2-2H4c-1.1 0-2 .9-2 2v12c0 1.1.9 2 2 2h9.09c-.05-.33-.09-.66-.09-1 0-.34.04-.67.09-1M20 6l-8 5-8-5h16m.41 13 2.13 2.12-1.42 1.42L19 20.41l-2.12 2.13-1.41-1.42L17.59 19l-2.12-2.12 1.41-1.41L19 17.59l2.12-2.12 1.42 1.41L20.41 19Z" transform="matrix(1.5 0 0 1.5 360 180)" id="mdi-email-remove-outline" fill="#555"/><path d="M13.09 18H4V8l8 5 8-5v5.09c.72.12 1.39.37 2 .72V6c0-1.1-.9-2-2-2H4c-1.1 0-2 .9-2 2v12c0 1.1.9 2 2 2h9.09c-.05-.33-.09-.66-.09-1 0-.34.04-.67.09-1M20 6l-8 5-8-5h16m.41 13 2.13 2.12-1.42 1.42L19 20.41l-2.12 2.13-1.41-1.42L17.59 19l-2.12-2.12 1.41-1.41L19 17.59l2.12-2.12 1.42 1.41L20.41 19Z" transform="matrix(1.5 0 0 1.5 396 180)" id="mdi-email-remove-outline" fill="#fff"/><path d="M12.5 13.3c-.3-.9-.1-1.6 0-2-.1-.4-.3-1-.1-1.9.3-.8.8-1.2 1.1-1.5.1-.4.3-1 1.1-1.6.7-.5 1.4-.5 1.8-.5.1-.1.3-.2.5-.3V2.6c.1-.9-.6-1.6-1.5-1.6H2.6C1.7 1 1 1.7 1 2.6v9.8c0 .9.7 1.6 1.6 1.6h10.3c-.2-.2-.3-.4-.4-.7M3 5V3l6 3 6-3v2L9 8 3 5m19.6 4.9c-.2-.6-.7-.7-1-1-.2-.3-.2-.9-.7-1.2-.5-.4-1-.2-1.4-.3-.4-.1-.7-.6-1.3-.6s-.9.4-1.3.6c-.4.1-.9-.1-1.4.3-.5.3-.4.8-.7 1.2-.3.3-.8.5-1 1-.2.6.2 1 .2 1.4 0 .4-.4.8-.2 1.4.2.6.7.7 1 1 .2.3.2.9.7 1.2.5.4 1 .2 1.4.3.4.1.7.6 1.3.6s.9-.4 1.3-.6c.4-.1.9.1 1.4-.3.5-.4.5-.9.7-1.2.3-.3.8-.5 1-1 .2-.6-.2-1-.2-1.4 0-.4.4-.8.2-1.4m-4.4 4.5c-1.7 0-3-1.4-3-3s1.4-3 3-3 3 1.4 3 3-1.3 3-3 3m1.5-3.1c0 .8-.7 1.5-1.5 1.5s-1.5-.7-1.5-1.5.7-1.5 1.5-1.5 1.5.7 1.5 1.5m-.2 5.8-.5 2.7-.6 3.1-2-1.9-2.4 1.1 1-5.7c.4.2.9.3 1.4.3.3.2.7.4 1 .5.2.1.5.1.8.1.5.1.9 0 1.3-.2m3.2 2.4-2-.7.4-2.2.6-.3.1-.1.9 3.3Z" transform="matrix(1.5 0 0 1.5 432 180)" id="mdi-email-seal" fill="#555"/><path d="M12.5 13.3c-.3-.9-.1-1.6 0-2-.1-.4-.3-1-.1-1.9.3-.8.8-1.2 1.1-1.5.1-.4.3-1 1.1-1.6.7-.5 1.4-.5 1.8-.5.1-.1.3-.2.5-.3V2.6c.1-.9-.6-1.6-1.5-1.6H2.6C1.7 1 1 1.7 1 2.6v9.8c0 .9.7 1.6 1.6 1.6h10.3c-.2-.2-.3-.4-.4-.7M3 5V3l6 3 6-3v2L9 8 3 5m19.6 4.9c-.2-.6-.7-.7-1-1-.2-.3-.2-.9-.7-1.2-.5-.4-1-.2-1.4-.3-.4-.1-.7-.6-1.3-.6s-.9.4-1.3.6c-.4.1-.9-.1-1.4.3-.5.3-.4.8-.7 1.2-.3.3-.8.5-1 1-.2.6.2 1 .2 1.4 0 .4-.4.8-.2 1.4.2.6.7.7 1 1 .2.3.2.9.7 1.2.5.4 1 .2 1.4.3.4.1.7.6 1.3.6s.9-.4 1.3-.6c.4-.1.9.1 1.4-.3.5-.4.5-.9.7-1.2.3-.3.8-.5 1-1 .2-.6-.2-1-.2-1.4 0-.4.4-.8.2-1.4m-4.4 4.5c-1.7 0-3-1.4-3-3s1.4-3 3-3 3 1.4 3 3-1.3 3-3 3m1.5-3.1c0 .8-.7 1.5-1.5 1.5s-1.5-.7-1.5-1.5.7-1.5 1.5-1.5 1.5.7 1.5 1.5m-.2 5.8-.5 2.7-.6 3.1-2-1.9-2.4 1.1 1-5.7c.4.2.9.3 1.4.3.3.2.7.4 1 .5.2.1.5.1.8.1.5.1.9 0 1.3-.2m3.2 2.4-2-.7.4-2.2.6-.3.1-.1.9 3.3Z" transform="matrix(1.5 0 0 1.5 468 180)" id="mdi-email-seal" fill="#fff"/><path d="M12.5 13.3c-.2-.5-.2-.9-.1-1.3H3V4.5l6 4 6-4v1.7c.6-.3 1.1-.3 1.4-.3.1-.1.3-.2.5-.3v-3c.1-.9-.6-1.6-1.5-1.6H2.6C1.7 1 1 1.7 1 2.6v9.8c0 .9.7 1.6 1.6 1.6h10.3c-.2-.2-.3-.4-.4-.7M15 3 9 7 3 3h12m7.6 6.9c-.2-.6-.7-.7-1-1-.2-.3-.2-.9-.7-1.2-.5-.4-1-.2-1.4-.3-.4-.1-.7-.6-1.3-.6s-.9.4-1.3.6c-.4.1-.9-.1-1.4.3-.5.3-.4.8-.7 1.2-.3.3-.8.5-1 1-.2.6.2 1 .2 1.4 0 .4-.4.8-.2 1.4.2.6.7.7 1 1 .2.3.2.9.7 1.2.5.4 1 .2 1.4.3.4.1.7.6 1.3.6s.9-.4 1.3-.6c.4-.1.9.1 1.4-.3.5-.4.5-.9.7-1.2.3-.3.8-.5 1-1 .2-.6-.2-1-.2-1.4 0-.4.4-.8.2-1.4m-4.4 4.5c-1.7 0-3-1.4-3-3s1.4-3 3-3 3 1.4 3 3-1.3 3-3 3m1.5-3.1c0 .8-.7 1.5-1.5 1.5s-1.5-.7-1.5-1.5.7-1.5 1.5-1.5 1.5.7 1.5 1.5m-.2 5.8-.5 2.7-.6 3.1-2-1.9-2.4 1.1 1-5.7c.4.2.9.3 1.4.3.3.2.7.4 1 .5.2.1.5.1.8.1.5.1.9 0 1.3-.2m3.2 2.4-2-.7.4-2.2.6-.3.1-.1.9 3.3Z" transform="matrix(1.5 0 0 1.5 504 180)" id="mdi-email-seal-outline" fill="#555"/><path d="M12.5 13.3c-.2-.5-.2-.9-.1-1.3H3V4.5l6 4 6-4v1.7c.6-.3 1.1-.3 1.4-.3.1-.1.3-.2.5-.3v-3c.1-.9-.6-1.6-1.5-1.6H2.6C1.7 1 1 1.7 1 2.6v9.8c0 .9.7 1.6 1.6 1.6h10.3c-.2-.2-.3-.4-.4-.7M15 3 9 7 3 3h12m7.6 6.9c-.2-.6-.7-.7-1-1-.2-.3-.2-.9-.7-1.2-.5-.4-1-.2-1.4-.3-.4-.1-.7-.6-1.3-.6s-.9.4-1.3.6c-.4.1-.9-.1-1.4.3-.5.3-.4.8-.7 1.2-.3.3-.8.5-1 1-.2.6.2 1 .2 1.4 0 .4-.4.8-.2 1.4.2.6.7.7 1 1 .2.3.2.9.7 1.2.5.4 1 .2 1.4.3.4.1.7.6 1.3.6s.9-.4 1.3-.6c.4-.1.9.1 1.4-.3.5-.4.5-.9.7-1.2.3-.3.8-.5 1-1 .2-.6-.2-1-.2-1.4 0-.4.4-.8.2-1.4m-4.4 4.5c-1.7 0-3-1.4-3-3s1.4-3 3-3 3 1.4 3 3-1.3 3-3 3m1.5-3.1c0 .8-.7 1.5-1.5 1.5s-1.5-.7-1.5-1.5.7-1.5 1.5-1.5 1.5.7 1.5 1.5m-.2 5.8-.5 2.7-.6 3.1-2-1.9-2.4 1.1 1-5.7c.4.2.9.3 1.4.3.3.2.7.4 1 .5.2.1.5.1.8.1.5.1.9 0 1.3-.2m3.2 2.4-2-.7.4-2.2.6-.3.1-.1.9 3.3Z" transform="matrix(1.5 0 0 1.5 540 180)" id="mdi-email-seal-outline" fill="#fff"/><path d="M3 4h16a2 2 0 0 1 2 2v4.82c-1-.97-2.3-1.59-3.69-1.76L19 8V6l-8 5-8-5v2l7.62 4.76c-.41.86-.62 1.79-.62 2.74a6.5 6.5 0 0 0 1.81 4.5H3a2 2 0 0 1-2-2V6c0-1.11.89-2 2-2m13.5 7c2.5 0 4.5 2 4.5 4.5 0 .88-.25 1.71-.69 2.4l3.08 3.1L22 22.39l-3.12-3.07c-.69.43-1.51.68-2.38.68-2.5 0-4.5-2-4.5-4.5s2-4.5 4.5-4.5m0 2a2.5 2.5 0 0 0-2.5 2.5 2.5 2.5 0 0 0 2.5 2.5 2.5 2.5 0 0 0 2.5-2.5 2.5 2.5 0 0 0-2.5-2.5Z" transform="matrix(1.5 0 0 1.5 576 180)" id="mdi-email-search" fill="#555"/><path d="M3 4h16a2 2 0 0 1 2 2v4.82c-1-.97-2.3-1.59-3.69-1.76L19 8V6l-8 5-8-5v2l7.62 4.76c-.41.86-.62 1.79-.62 2.74a6.5 6.5 0 0 0 1.81 4.5H3a2 2 0 0 1-2-2V6c0-1.11.89-2 2-2m13.5 7c2.5 0 4.5 2 4.5 4.5 0 .88-.25 1.71-.69 2.4l3.08 3.1L22 22.39l-3.12-3.07c-.69.43-1.51.68-2.38.68-2.5 0-4.5-2-4.5-4.5s2-4.5 4.5-4.5m0 2a2.5 2.5 0 0 0-2.5 2.5 2.5 2.5 0 0 0 2.5 2.5 2.5 2.5 0 0 0 2.5-2.5 2.5 2.5 0 0 0-2.5-2.5Z" transform="matrix(1.5 0 0 1.5 612 180)" id="mdi-email-search" fill="#fff"/><path d="M16.5 11c2.5 0 4.5 2 4.5 4.5 0 .88-.25 1.71-.69 2.4l3.08 3.1L22 22.39l-3.12-3.07c-.69.43-1.51.68-2.38.68-2.5 0-4.5-2-4.5-4.5s2-4.5 4.5-4.5m0 2a2.5 2.5 0 0 0 0 5 2.5 2.5 0 0 0 0-5m-6 5H3V8l7.62 4.76A6.486 6.486 0 0 1 16.5 9c.27 0 .54 0 .81.06L19 8v1.5c.75.31 1.42.77 2 1.32V6c0-1.1-.9-2-2-2H3c-1.1 0-2 .9-2 2v12c0 1.1.9 2 2 2h8.82c-.55-.58-1-1.25-1.32-2M19 6l-8 5-8-5h16Z" transform="matrix(1.5 0 0 1.5 648 180)" id="mdi-email-search-outline" fill="#555"/><path d="M16.5 11c2.5 0 4.5 2 4.5 4.5 0 .88-.25 1.71-.69 2.4l3.08 3.1L22 22.39l-3.12-3.07c-.69.43-1.51.68-2.38.68-2.5 0-4.5-2-4.5-4.5s2-4.5 4.5-4.5m0 2a2.5 2.5 0 0 0 0 5 2.5 2.5 0 0 0 0-5m-6 5H3V8l7.62 4.76A6.486 6.486 0 0 1 16.5 9c.27 0 .54 0 .81.06L19 8v1.5c.75.31 1.42.77 2 1.32V6c0-1.1-.9-2-2-2H3c-1.1 0-2 .9-2 2v12c0 1.1.9 2 2 2h8.82c-.55-.58-1-1.25-1.32-2M19 6l-8 5-8-5h16Z" transform="matrix(1.5 0 0 1.5 684 180)" id="mdi-email-search-outline" fill="#fff"/><path d="M13 17h4v-3l5 4.5-5 4.5v-3h-4v-3m7-13H4a2 2 0 0 0-2 2v12a2 2 0 0 0 2 2h7.35a5.8 5.8 0 0 1-.35-2 6 6 0 0 1 11-3.31V6a2 2 0 0 0-2-2m0 4-8 5-8-5V6l8 5 8-5Z" transform="matrix(1.5 0 0 1.5 0 216)" id="mdi-email-send" fill="#555"/><path d="M13 17h4v-3l5 4.5-5 4.5v-3h-4v-3m7-13H4a2 2 0 0 0-2 2v12a2 2 0 0 0 2 2h7.35a5.8 5.8 0 0 1-.35-2 6 6 0 0 1 11-3.31V6a2 2 0 0 0-2-2m0 4-8 5-8-5V6l8 5 8-5Z" transform="matrix(1.5 0 0 1.5 36 216)" id="mdi-email-send" fill="#fff"/><path d="M13 17h4v-3l5 4.5-5 4.5v-3h-4v-3m7-13H4a2 2 0 0 0-2 2v12a2 2 0 0 0 2 2h7v-2H4V8l8 5 8-5v6h2V6a2 2 0 0 0-2-2m-8 7L4 6h16Z" transform="matrix(1.5 0 0 1.5 72 216)" id="mdi-email-send-outline" fill="#555"/><path d="M13 17h4v-3l5 4.5-5 4.5v-3h-4v-3m7-13H4a2 2 0 0 0-2 2v12a2 2 0 0 0 2 2h7v-2H4V8l8 5 8-5v6h2V6a2 2 0 0 0-2-2m-8 7L4 6h16Z" transform="matrix(1.5 0 0 1.5 108 216)" id="mdi-email-send-outline" fill="#fff"/><path d="M3 4c-1.11 0-2 .89-2 2v12a2 2 0 0 0 2 2h10.5a6.5 6.5 0 0 1-.5-2.5 6.5 6.5 0 0 1 6.5-6.5 6.5 6.5 0 0 1 1.5.18V6a2 2 0 0 0-2-2H3m0 2 8 5 8-5v2l-8 5-8-5V6m16 6-2.25 2.25L19 16.5V15a2.5 2.5 0 0 1 2.5 2.5c0 .4-.09.78-.26 1.12l1.09 1.09c.42-.63.67-1.39.67-2.21 0-2.21-1.79-4-4-4V12m-3.33 3.29c-.42.63-.67 1.39-.67 2.21 0 2.21 1.79 4 4 4V23l2.25-2.25L19 18.5V20a2.5 2.5 0 0 1-2.5-2.5c0-.4.09-.78.26-1.12l-1.09-1.09Z" transform="matrix(1.5 0 0 1.5 144 216)" id="mdi-email-sync" fill="#555"/><path d="M3 4c-1.11 0-2 .89-2 2v12a2 2 0 0 0 2 2h10.5a6.5 6.5 0 0 1-.5-2.5 6.5 6.5 0 0 1 6.5-6.5 6.5 6.5 0 0 1 1.5.18V6a2 2 0 0 0-2-2H3m0 2 8 5 8-5v2l-8 5-8-5V6m16 6-2.25 2.25L19 16.5V15a2.5 2.5 0 0 1 2.5 2.5c0 .4-.09.78-.26 1.12l1.09 1.09c.42-.63.67-1.39.67-2.21 0-2.21-1.79-4-4-4V12m-3.33 3.29c-.42.63-.67 1.39-.67 2.21 0 2.21 1.79 4 4 4V23l2.25-2.25L19 18.5V20a2.5 2.5 0 0 1-2.5-2.5c0-.4.09-.78.26-1.12l-1.09-1.09Z" transform="matrix(1.5 0 0 1.5 180 216)" id="mdi-email-sync" fill="#fff"/><path d="M3 4c-1.1 0-2 .9-2 2v12c0 1.1.9 2 2 2h10.5a6.5 6.5 0 0 1-.5-2H3V8l8 5 8-5v3a6.5 6.5 0 0 1 .5 0 6.5 6.5 0 0 1 1.5.18V6c0-1.1-.9-2-2-2H3m0 2h16l-8 5-8-5m16 6-2.25 2.25L19 16.5V15a2.5 2.5 0 0 1 2.5 2.5c0 .4-.09.78-.26 1.12l1.09 1.09c.42-.63.67-1.39.67-2.21 0-2.21-1.79-4-4-4V12m-3.33 3.29c-.42.63-.67 1.39-.67 2.21 0 2.21 1.79 4 4 4V23l2.25-2.25L19 18.5V20a2.5 2.5 0 0 1-2.5-2.5c0-.4.09-.78.26-1.12l-1.09-1.09Z" transform="matrix(1.5 0 0 1.5 216 216)" id="mdi-email-sync-outline" fill="#555"/><path d="M3 4c-1.1 0-2 .9-2 2v12c0 1.1.9 2 2 2h10.5a6.5 6.5 0 0 1-.5-2H3V8l8 5 8-5v3a6.5 6.5 0 0 1 .5 0 6.5 6.5 0 0 1 1.5.18V6c0-1.1-.9-2-2-2H3m0 2h16l-8 5-8-5m16 6-2.25 2.25L19 16.5V15a2.5 2.5 0 0 1 2.5 2.5c0 .4-.09.78-.26 1.12l1.09 1.09c.42-.63.67-1.39.67-2.21 0-2.21-1.79-4-4-4V12m-3.33 3.29c-.42.63-.67 1.39-.67 2.21 0 2.21 1.79 4 4 4V23l2.25-2.25L19 18.5V20a2.5 2.5 0 0 1-2.5-2.5c0-.4.09-.78.26-1.12l-1.09-1.09Z" transform="matrix(1.5 0 0 1.5 252 216)" id="mdi-email-sync-outline" fill="#fff"/><path d="M12 13 2 6.76V6c0-1.11.89-2 2-2h16a2 2 0 0 1 2 2v.75L12 13m10 5a2 2 0 0 1-2 2H4a2 2 0 0 1-2-2V9.11l2 1.25V18h16v-7.64l2-1.25V18Z" transform="matrix(1.5 0 0 1.5 288 216)" id="mdi-email-variant" fill="#555"/><path d="M12 13 2 6.76V6c0-1.11.89-2 2-2h16a2 2 0 0 1 2 2v.75L12 13m10 5a2 2 0 0 1-2 2H4a2 2 0 0 1-2-2V9.11l2 1.25V18h16v-7.64l2-1.25V18Z" transform="matrix(1.5 0 0 1.5 324 216)" id="mdi-email-variant" fill="#fff"/><path d="M22 14.22s-4.39 3.13-7.28 3.17c-2.88.05-2.59-1.83-2.59-1.83s10.58-3.62 7.7-10.77c-1.3-1.84-2.83-2.42-4.94-2.37-2.13.04-4.72 1.34-6.43 5.18-.82 1.84-1.05 3.58-1.22 4.9 0 0-1.92.38-2.92-.46-1-.84-1.55 0-1.55 0s-1.74 2.16-.02 2.83c1.71.67 4.37.95 4.37.95.24 1.18.96 3.18 3.05 4.78 3.13 2.4 9.15-.2 9.15-.2m-7.69-8.07c.13-4.97 3.37-7.15 4.52-6.06 1.12 1.09.71 3.43-1.43 4.89-2.13 1.47-3.09 1.17-3.09 1.17Z" transform="matrix(1.5 0 0 1.5 360 216)" id="mdi-ember" fill="#555"/><path d="M22 14.22s-4.39 3.13-7.28 3.17c-2.88.05-2.59-1.83-2.59-1.83s10.58-3.62 7.7-10.77c-1.3-1.84-2.83-2.42-4.94-2.37-2.13.04-4.72 1.34-6.43 5.18-.82 1.84-1.05 3.58-1.22 4.9 0 0-1.92.38-2.92-.46-1-.84-1.55 0-1.55 0s-1.74 2.16-.02 2.83c1.71.67 4.37.95 4.37.95.24 1.18.96 3.18 3.05 4.78 3.13 2.4 9.15-.2 9.15-.2m-7.69-8.07c.13-4.97 3.37-7.15 4.52-6.06 1.12 1.09.71 3.43-1.43 4.89-2.13 1.47-3.09 1.17-3.09 1.17Z" transform="matrix(1.5 0 0 1.5 396 216)" id="mdi-ember" fill="#fff"/><path d="M11 2 6 7l1 1-5 5 5 5 1-1 5 5 5-5-1-1 5-5-5-5-1 1-5-5m-1 6.5 6 3.5-6 3.5v-7Z" transform="matrix(1.5 0 0 1.5 432 216)" id="mdi-emby" fill="#555"/><path d="M11 2 6 7l1 1-5 5 5 5 1-1 5 5 5-5-1-1 5-5-5-5-1 1-5-5m-1 6.5 6 3.5-6 3.5v-7Z" transform="matrix(1.5 0 0 1.5 468 216)" id="mdi-emby" fill="#fff"/><path d="M12 2C6.47 2 2 6.5 2 12a10 10 0 0 0 10 10 10 10 0 0 0 10-10A10 10 0 0 0 12 2m3.5 6A1.5 1.5 0 0 1 17 9.5a1.5 1.5 0 0 1-1.5 1.5A1.5 1.5 0 0 1 14 9.5 1.5 1.5 0 0 1 15.5 8m-7 0A1.5 1.5 0 0 1 10 9.5 1.5 1.5 0 0 1 8.5 11 1.5 1.5 0 0 1 7 9.5 1.5 1.5 0 0 1 8.5 8m3.5 9.5c-2.33 0-4.31-1.46-5.11-3.5h10.22c-.81 2.04-2.78 3.5-5.11 3.5Z" transform="matrix(1.5 0 0 1.5 504 216)" id="mdi-emoticon" fill="#555"/><path d="M12 2C6.47 2 2 6.5 2 12a10 10 0 0 0 10 10 10 10 0 0 0 10-10A10 10 0 0 0 12 2m3.5 6A1.5 1.5 0 0 1 17 9.5a1.5 1.5 0 0 1-1.5 1.5A1.5 1.5 0 0 1 14 9.5 1.5 1.5 0 0 1 15.5 8m-7 0A1.5 1.5 0 0 1 10 9.5 1.5 1.5 0 0 1 8.5 11 1.5 1.5 0 0 1 7 9.5 1.5 1.5 0 0 1 8.5 8m3.5 9.5c-2.33 0-4.31-1.46-5.11-3.5h10.22c-.81 2.04-2.78 3.5-5.11 3.5Z" transform="matrix(1.5 0 0 1.5 540 216)" id="mdi-emoticon" fill="#fff"/><path d="M12 2A10 10 0 0 0 2 12a10 10 0 0 0 10 10 10 10 0 0 0 10-10A10 10 0 0 0 12 2M7 9.5V8l3 1.5c0 .8-.7 1.5-1.5 1.5S7 10.3 7 9.5m7.77 7.73C14.32 16.5 13.25 16 12 16s-2.32.5-2.77 1.23l-1.42-1.42C8.71 14.72 10.25 14 12 14c1.75 0 3.29.72 4.19 1.81l-1.42 1.42M17 9.5c0 .8-.7 1.5-1.5 1.5S14 10.3 14 9.5L17 8v1.5Z" transform="matrix(1.5 0 0 1.5 576 216)" id="mdi-emoticon-angry" fill="#555"/><path d="M12 2A10 10 0 0 0 2 12a10 10 0 0 0 10 10 10 10 0 0 0 10-10A10 10 0 0 0 12 2M7 9.5V8l3 1.5c0 .8-.7 1.5-1.5 1.5S7 10.3 7 9.5m7.77 7.73C14.32 16.5 13.25 16 12 16s-2.32.5-2.77 1.23l-1.42-1.42C8.71 14.72 10.25 14 12 14c1.75 0 3.29.72 4.19 1.81l-1.42 1.42M17 9.5c0 .8-.7 1.5-1.5 1.5S14 10.3 14 9.5L17 8v1.5Z" transform="matrix(1.5 0 0 1.5 612 216)" id="mdi-emoticon-angry" fill="#fff"/><path d="M12 2A10 10 0 0 0 2 12a10 10 0 0 0 10 10 10 10 0 0 0 10-10A10 10 0 0 0 12 2m0 18a8 8 0 0 1-8-8 8 8 0 0 1 8-8 8 8 0 0 1 8 8 8 8 0 0 1-8 8m0-6c1.75 0 3.29.72 4.19 1.81l-1.42 1.42C14.32 16.5 13.25 16 12 16s-2.32.5-2.77 1.23l-1.42-1.42C8.71 14.72 10.25 14 12 14m-2-4.5c0 .8-.7 1.5-1.5 1.5S7 10.3 7 9.5V8l3 1.5m7 0c0 .8-.7 1.5-1.5 1.5S14 10.3 14 9.5L17 8v1.5" transform="matrix(1.5 0 0 1.5 648 216)" id="mdi-emoticon-angry-outline" fill="#555"/><path d="M12 2A10 10 0 0 0 2 12a10 10 0 0 0 10 10 10 10 0 0 0 10-10A10 10 0 0 0 12 2m0 18a8 8 0 0 1-8-8 8 8 0 0 1 8-8 8 8 0 0 1 8 8 8 8 0 0 1-8 8m0-6c1.75 0 3.29.72 4.19 1.81l-1.42 1.42C14.32 16.5 13.25 16 12 16s-2.32.5-2.77 1.23l-1.42-1.42C8.71 14.72 10.25 14 12 14m-2-4.5c0 .8-.7 1.5-1.5 1.5S7 10.3 7 9.5V8l3 1.5m7 0c0 .8-.7 1.5-1.5 1.5S14 10.3 14 9.5L17 8v1.5" transform="matrix(1.5 0 0 1.5 684 216)" id="mdi-emoticon-angry-outline" fill="#fff"/><path d="M12 2a10 10 0 1 0 10 10A10 10 0 0 0 12 2M8.5 8A1.5 1.5 0 1 1 7 9.5 1.54 1.54 0 0 1 8.5 8m8.5 8h-4a4 4 0 0 0-3.47 2L7.8 17a6 6 0 0 1 5.2-3h4m-1.5-3A1.5 1.5 0 1 1 17 9.5a1.54 1.54 0 0 1-1.5 1.5Z" transform="matrix(1.5 0 0 1.5 0 252)" id="mdi-emoticon-confused" fill="#555"/><path d="M12 2a10 10 0 1 0 10 10A10 10 0 0 0 12 2M8.5 8A1.5 1.5 0 1 1 7 9.5 1.54 1.54 0 0 1 8.5 8m8.5 8h-4a4 4 0 0 0-3.47 2L7.8 17a6 6 0 0 1 5.2-3h4m-1.5-3A1.5 1.5 0 1 1 17 9.5a1.54 1.54 0 0 1-1.5 1.5Z" transform="matrix(1.5 0 0 1.5 36 252)" id="mdi-emoticon-confused" fill="#fff"/><path d="M20 12a8 8 0 1 0-8 8 8 8 0 0 0 8-8m2 0A10 10 0 1 1 12 2a10 10 0 0 1 10 10m-6.5-4A1.5 1.5 0 1 1 14 9.5 1.54 1.54 0 0 1 15.5 8M10 9.5A1.5 1.5 0 1 1 8.5 8 1.54 1.54 0 0 1 10 9.5m7 5.5h-4a4 4 0 0 0-3.47 2L7.8 16a6 6 0 0 1 5.2-3h4Z" transform="matrix(1.5 0 0 1.5 72 252)" id="mdi-emoticon-confused-outline" fill="#555"/><path d="M20 12a8 8 0 1 0-8 8 8 8 0 0 0 8-8m2 0A10 10 0 1 1 12 2a10 10 0 0 1 10 10m-6.5-4A1.5 1.5 0 1 1 14 9.5 1.54 1.54 0 0 1 15.5 8M10 9.5A1.5 1.5 0 1 1 8.5 8 1.54 1.54 0 0 1 10 9.5m7 5.5h-4a4 4 0 0 0-3.47 2L7.8 16a6 6 0 0 1 5.2-3h4Z" transform="matrix(1.5 0 0 1.5 108 252)" id="mdi-emoticon-confused-outline" fill="#fff"/><path d="M3.22 7.22A9.984 9.984 0 0 1 12 2c3.79 0 7.09 2.11 8.78 5.22L20 8H4l-.78-.78M21.4 8.6c.38 1.07.6 2.21.6 3.4a10 10 0 0 1-10 10A10 10 0 0 1 2 12c0-1.19.22-2.33.6-3.4L4 10h1c0 1.38 2.12 2.5 3.5 2.5s2.75-1.12 2.75-2.5h1.5c0 1.38 1.37 2.5 2.75 2.5S19 11.38 19 10h1l1.4-1.4m-5.21 6.82L14.77 14c-.45.72-1.52 1.23-2.77 1.23S9.68 14.72 9.23 14l-1.42 1.42c.9 1.08 2.44 1.81 4.19 1.81 1.75 0 3.29-.73 4.19-1.81Z" transform="matrix(1.5 0 0 1.5 144 252)" id="mdi-emoticon-cool" fill="#555"/><path d="M3.22 7.22A9.984 9.984 0 0 1 12 2c3.79 0 7.09 2.11 8.78 5.22L20 8H4l-.78-.78M21.4 8.6c.38 1.07.6 2.21.6 3.4a10 10 0 0 1-10 10A10 10 0 0 1 2 12c0-1.19.22-2.33.6-3.4L4 10h1c0 1.38 2.12 2.5 3.5 2.5s2.75-1.12 2.75-2.5h1.5c0 1.38 1.37 2.5 2.75 2.5S19 11.38 19 10h1l1.4-1.4m-5.21 6.82L14.77 14c-.45.72-1.52 1.23-2.77 1.23S9.68 14.72 9.23 14l-1.42 1.42c.9 1.08 2.44 1.81 4.19 1.81 1.75 0 3.29-.73 4.19-1.81Z" transform="matrix(1.5 0 0 1.5 180 252)" id="mdi-emoticon-cool" fill="#fff"/><path d="M19 10c0 1.38-2.12 2.5-3.5 2.5s-2.75-1.12-2.75-2.5h-1.5c0 1.38-1.37 2.5-2.75 2.5S5 11.38 5 10h-.75c-.16.64-.25 1.31-.25 2a8 8 0 0 0 8 8 8 8 0 0 0 8-8c0-.69-.09-1.36-.25-2H19m-7-6C9.04 4 6.45 5.61 5.07 8h13.86C17.55 5.61 14.96 4 12 4m10 8a10 10 0 0 1-10 10A10 10 0 0 1 2 12 10 10 0 0 1 12 2a10 10 0 0 1 10 10m-10 5.23c-1.75 0-3.29-.73-4.19-1.81L9.23 14c.45.72 1.52 1.23 2.77 1.23s2.32-.51 2.77-1.23l1.42 1.42c-.9 1.08-2.44 1.81-4.19 1.81Z" transform="matrix(1.5 0 0 1.5 216 252)" id="mdi-emoticon-cool-outline" fill="#555"/><path d="M19 10c0 1.38-2.12 2.5-3.5 2.5s-2.75-1.12-2.75-2.5h-1.5c0 1.38-1.37 2.5-2.75 2.5S5 11.38 5 10h-.75c-.16.64-.25 1.31-.25 2a8 8 0 0 0 8 8 8 8 0 0 0 8-8c0-.69-.09-1.36-.25-2H19m-7-6C9.04 4 6.45 5.61 5.07 8h13.86C17.55 5.61 14.96 4 12 4m10 8a10 10 0 0 1-10 10A10 10 0 0 1 2 12 10 10 0 0 1 12 2a10 10 0 0 1 10 10m-10 5.23c-1.75 0-3.29-.73-4.19-1.81L9.23 14c.45.72 1.52 1.23 2.77 1.23s2.32-.51 2.77-1.23l1.42 1.42c-.9 1.08-2.44 1.81-4.19 1.81Z" transform="matrix(1.5 0 0 1.5 252 252)" id="mdi-emoticon-cool-outline" fill="#fff"/><path d="M5.14 17.57c0-1.07 1.18-3.07 2.43-4.76C8.82 14.5 10 16.5 10 17.57A2.43 2.43 0 0 1 7.57 20c-1.34 0-2.43-1.09-2.43-2.43M22 12a10 10 0 0 1-10 10c-.92 0-1.82-.14-2.67-.37A4.424 4.424 0 0 0 12 17.57c0-.45-.11-.97-.31-1.57H12c1.25 0 2.32.5 2.77 1.23l1.42-1.42C15.29 14.72 13.75 14 12 14c-.41 0-.81.04-1.19.12-.43-.76-.96-1.59-1.62-2.49L8.71 11c.71-.13 1.29-.77 1.29-1.5C10 8.7 9.3 8 8.5 8S7 8.7 7 9.5c0 .19.04.37.11.54l-1.15 1.59C4.4 13.75 3.5 15.5 3.23 16.81 2.45 15.38 2 13.74 2 12A10 10 0 0 1 12 2a10 10 0 0 1 10 10m-5-2.5c0-.8-.7-1.5-1.5-1.5S14 8.7 14 9.5s.7 1.5 1.5 1.5 1.5-.7 1.5-1.5Z" transform="matrix(1.5 0 0 1.5 288 252)" id="mdi-emoticon-cry" fill="#555"/><path d="M5.14 17.57c0-1.07 1.18-3.07 2.43-4.76C8.82 14.5 10 16.5 10 17.57A2.43 2.43 0 0 1 7.57 20c-1.34 0-2.43-1.09-2.43-2.43M22 12a10 10 0 0 1-10 10c-.92 0-1.82-.14-2.67-.37A4.424 4.424 0 0 0 12 17.57c0-.45-.11-.97-.31-1.57H12c1.25 0 2.32.5 2.77 1.23l1.42-1.42C15.29 14.72 13.75 14 12 14c-.41 0-.81.04-1.19.12-.43-.76-.96-1.59-1.62-2.49L8.71 11c.71-.13 1.29-.77 1.29-1.5C10 8.7 9.3 8 8.5 8S7 8.7 7 9.5c0 .19.04.37.11.54l-1.15 1.59C4.4 13.75 3.5 15.5 3.23 16.81 2.45 15.38 2 13.74 2 12A10 10 0 0 1 12 2a10 10 0 0 1 10 10m-5-2.5c0-.8-.7-1.5-1.5-1.5S14 8.7 14 9.5s.7 1.5 1.5 1.5 1.5-.7 1.5-1.5Z" transform="matrix(1.5 0 0 1.5 324 252)" id="mdi-emoticon-cry" fill="#fff"/><path d="M7.57 20c-1.34 0-2.43-1.09-2.43-2.43 0-1.07 1.18-3.07 2.43-4.76C8.82 14.5 10 16.5 10 17.57A2.43 2.43 0 0 1 7.57 20M12 2A10 10 0 0 0 2 12c0 1.75.45 3.38 1.24 4.81.16-.81.57-1.74 1.07-2.64A7.69 7.69 0 0 1 4 12a8 8 0 0 1 8-8 8 8 0 0 1 8 8 8 8 0 0 1-8 8c-.24 0-.47 0-.71-.04-.47.74-1.15 1.32-1.95 1.67.85.24 1.74.37 2.66.37a10 10 0 0 0 10-10A10 10 0 0 0 12 2m0 12c-.41 0-.81.04-1.19.12.35.63.66 1.28.88 1.88H12c1.25 0 2.32.5 2.77 1.23l1.42-1.42C15.29 14.72 13.75 14 12 14m3.5-6c-.8 0-1.5.7-1.5 1.5s.7 1.5 1.5 1.5 1.5-.7 1.5-1.5S16.3 8 15.5 8M10 9.5C10 8.7 9.3 8 8.5 8S7 8.7 7 9.5 7.7 11 8.5 11s1.5-.7 1.5-1.5" transform="matrix(1.5 0 0 1.5 360 252)" id="mdi-emoticon-cry-outline" fill="#555"/><path d="M7.57 20c-1.34 0-2.43-1.09-2.43-2.43 0-1.07 1.18-3.07 2.43-4.76C8.82 14.5 10 16.5 10 17.57A2.43 2.43 0 0 1 7.57 20M12 2A10 10 0 0 0 2 12c0 1.75.45 3.38 1.24 4.81.16-.81.57-1.74 1.07-2.64A7.69 7.69 0 0 1 4 12a8 8 0 0 1 8-8 8 8 0 0 1 8 8 8 8 0 0 1-8 8c-.24 0-.47 0-.71-.04-.47.74-1.15 1.32-1.95 1.67.85.24 1.74.37 2.66.37a10 10 0 0 0 10-10A10 10 0 0 0 12 2m0 12c-.41 0-.81.04-1.19.12.35.63.66 1.28.88 1.88H12c1.25 0 2.32.5 2.77 1.23l1.42-1.42C15.29 14.72 13.75 14 12 14m3.5-6c-.8 0-1.5.7-1.5 1.5s.7 1.5 1.5 1.5 1.5-.7 1.5-1.5S16.3 8 15.5 8M10 9.5C10 8.7 9.3 8 8.5 8S7 8.7 7 9.5 7.7 11 8.5 11s1.5-.7 1.5-1.5" transform="matrix(1.5 0 0 1.5 396 252)" id="mdi-emoticon-cry-outline" fill="#fff"/><path d="M12 2C6.47 2 2 6.47 2 12s4.47 10 10 10a10 10 0 0 0 10-10c0-5.53-4.5-10-10-10M6.76 8.82l1.06-1.06 1.06 1.06 1.06-1.06L11 8.82 9.94 9.88 11 10.94 9.94 12l-1.06-1.06L7.82 12l-1.06-1.06 1.06-1.06-1.06-1.06m.13 8.68C7.69 15.46 9.67 14 12 14c2.33 0 4.31 1.46 5.11 3.5H6.89m10.35-6.56L16.18 12l-1.06-1.06L14.06 12 13 10.94l1.06-1.06L13 8.82l1.06-1.06 1.06 1.06 1.06-1.06 1.06 1.06-1.06 1.06 1.06 1.06Z" transform="matrix(1.5 0 0 1.5 432 252)" id="mdi-emoticon-dead" fill="#555"/><path d="M12 2C6.47 2 2 6.47 2 12s4.47 10 10 10a10 10 0 0 0 10-10c0-5.53-4.5-10-10-10M6.76 8.82l1.06-1.06 1.06 1.06 1.06-1.06L11 8.82 9.94 9.88 11 10.94 9.94 12l-1.06-1.06L7.82 12l-1.06-1.06 1.06-1.06-1.06-1.06m.13 8.68C7.69 15.46 9.67 14 12 14c2.33 0 4.31 1.46 5.11 3.5H6.89m10.35-6.56L16.18 12l-1.06-1.06L14.06 12 13 10.94l1.06-1.06L13 8.82l1.06-1.06 1.06 1.06 1.06-1.06 1.06 1.06-1.06 1.06 1.06 1.06Z" transform="matrix(1.5 0 0 1.5 468 252)" id="mdi-emoticon-dead" fill="#fff"/><path d="M12 2C6.47 2 2 6.47 2 12s4.47 10 10 10a10 10 0 0 0 10-10c0-5.53-4.5-10-10-10m0 18a8 8 0 0 1-8-8 8 8 0 0 1 8-8 8 8 0 0 1 8 8 8 8 0 0 1-8 8m4.18-12.24-1.06 1.06-1.06-1.06L13 8.82l1.06 1.06L13 10.94 14.06 12l1.06-1.06L16.18 12l1.06-1.06-1.06-1.06 1.06-1.06-1.06-1.06M7.82 12l1.06-1.06L9.94 12 11 10.94 9.94 9.88 11 8.82 9.94 7.76 8.88 8.82 7.82 7.76 6.76 8.82l1.06 1.06-1.06 1.06L7.82 12M12 14c-2.33 0-4.31 1.46-5.11 3.5h10.22c-.8-2.04-2.78-3.5-5.11-3.5Z" transform="matrix(1.5 0 0 1.5 504 252)" id="mdi-emoticon-dead-outline" fill="#555"/><path d="M12 2C6.47 2 2 6.47 2 12s4.47 10 10 10a10 10 0 0 0 10-10c0-5.53-4.5-10-10-10m0 18a8 8 0 0 1-8-8 8 8 0 0 1 8-8 8 8 0 0 1 8 8 8 8 0 0 1-8 8m4.18-12.24-1.06 1.06-1.06-1.06L13 8.82l1.06 1.06L13 10.94 14.06 12l1.06-1.06L16.18 12l1.06-1.06-1.06-1.06 1.06-1.06-1.06-1.06M7.82 12l1.06-1.06L9.94 12 11 10.94 9.94 9.88 11 8.82 9.94 7.76 8.88 8.82 7.82 7.76 6.76 8.82l1.06 1.06-1.06 1.06L7.82 12M12 14c-2.33 0-4.31 1.46-5.11 3.5h10.22c-.8-2.04-2.78-3.5-5.11-3.5Z" transform="matrix(1.5 0 0 1.5 540 252)" id="mdi-emoticon-dead-outline" fill="#fff"/><path d="M22.5 2.09c-.9.91-2.37 1.64-4.19 2.16A9.92 9.92 0 0 0 12 2c-2.39 0-4.59.84-6.31 2.25C3.87 3.73 2.4 3 1.5 2.09c.03 1.63.85 3.12 2.22 4.31A9.89 9.89 0 0 0 2 12a10 10 0 0 0 10 10 10 10 0 0 0 10-10c0-2.08-.63-4-1.72-5.6 1.37-1.19 2.19-2.68 2.22-4.31M7.5 8.5l3 1.5c0 .8-.7 1.5-1.5 1.5s-1.5-.7-1.5-1.5V8.5m4.5 8.73c-1.75 0-3.29-.73-4.19-1.81L9.23 14c.45.72 1.52 1.23 2.77 1.23s2.32-.51 2.77-1.23l1.42 1.42c-.9 1.08-2.44 1.81-4.19 1.81M16.5 10c0 .8-.7 1.5-1.5 1.5s-1.5-.7-1.5-1.5l3-1.5V10Z" transform="matrix(1.5 0 0 1.5 576 252)" id="mdi-emoticon-devil" fill="#555"/><path d="M22.5 2.09c-.9.91-2.37 1.64-4.19 2.16A9.92 9.92 0 0 0 12 2c-2.39 0-4.59.84-6.31 2.25C3.87 3.73 2.4 3 1.5 2.09c.03 1.63.85 3.12 2.22 4.31A9.89 9.89 0 0 0 2 12a10 10 0 0 0 10 10 10 10 0 0 0 10-10c0-2.08-.63-4-1.72-5.6 1.37-1.19 2.19-2.68 2.22-4.31M7.5 8.5l3 1.5c0 .8-.7 1.5-1.5 1.5s-1.5-.7-1.5-1.5V8.5m4.5 8.73c-1.75 0-3.29-.73-4.19-1.81L9.23 14c.45.72 1.52 1.23 2.77 1.23s2.32-.51 2.77-1.23l1.42 1.42c-.9 1.08-2.44 1.81-4.19 1.81M16.5 10c0 .8-.7 1.5-1.5 1.5s-1.5-.7-1.5-1.5l3-1.5V10Z" transform="matrix(1.5 0 0 1.5 612 252)" id="mdi-emoticon-devil" fill="#fff"/><path d="M1.5 2.09c.9.91 2.37 1.64 4.19 2.16A9.92 9.92 0 0 1 12 2c2.39 0 4.59.84 6.31 2.25C20.13 3.73 21.6 3 22.5 2.09c-.03 1.63-.85 3.12-2.22 4.31A9.89 9.89 0 0 1 22 12a10 10 0 0 1-10 10A10 10 0 0 1 2 12c0-2.08.63-4 1.72-5.6C2.35 5.21 1.53 3.72 1.5 2.09M20 12a8 8 0 0 0-8-8 8 8 0 0 0-8 8 8 8 0 0 0 8 8 8 8 0 0 0 8-8m-9.5-2c0 .8-.7 1.5-1.5 1.5s-1.5-.7-1.5-1.5V8.5l3 1.5m6 0c0 .8-.7 1.5-1.5 1.5s-1.5-.7-1.5-1.5l3-1.5V10M12 17.23c-1.75 0-3.29-.73-4.19-1.81L9.23 14c.45.72 1.52 1.23 2.77 1.23s2.32-.51 2.77-1.23l1.42 1.42c-.9 1.08-2.44 1.81-4.19 1.81Z" transform="matrix(1.5 0 0 1.5 648 252)" id="mdi-emoticon-devil-outline" fill="#555"/><path d="M1.5 2.09c.9.91 2.37 1.64 4.19 2.16A9.92 9.92 0 0 1 12 2c2.39 0 4.59.84 6.31 2.25C20.13 3.73 21.6 3 22.5 2.09c-.03 1.63-.85 3.12-2.22 4.31A9.89 9.89 0 0 1 22 12a10 10 0 0 1-10 10A10 10 0 0 1 2 12c0-2.08.63-4 1.72-5.6C2.35 5.21 1.53 3.72 1.5 2.09M20 12a8 8 0 0 0-8-8 8 8 0 0 0-8 8 8 8 0 0 0 8 8 8 8 0 0 0 8-8m-9.5-2c0 .8-.7 1.5-1.5 1.5s-1.5-.7-1.5-1.5V8.5l3 1.5m6 0c0 .8-.7 1.5-1.5 1.5s-1.5-.7-1.5-1.5l3-1.5V10M12 17.23c-1.75 0-3.29-.73-4.19-1.81L9.23 14c.45.72 1.52 1.23 2.77 1.23s2.32-.51 2.77-1.23l1.42 1.42c-.9 1.08-2.44 1.81-4.19 1.81Z" transform="matrix(1.5 0 0 1.5 684 252)" id="mdi-emoticon-devil-outline" fill="#fff"/><path d="M12 2C6.47 2 2 6.47 2 12s4.47 10 10 10a10 10 0 0 0 10-10c0-5.53-4.5-10-10-10M8.88 7.82 11 9.94 9.94 11 8.88 9.94 7.82 11 6.76 9.94l2.12-2.12M12 17.5c-2.33 0-4.31-1.46-5.11-3.5h10.22c-.8 2.04-2.78 3.5-5.11 3.5m4.18-6.5-1.06-1.06L14.06 11 13 9.94l2.12-2.12 2.12 2.12L16.18 11Z" transform="matrix(1.5 0 0 1.5 0 288)" id="mdi-emoticon-excited" fill="#555"/><path d="M12 2C6.47 2 2 6.47 2 12s4.47 10 10 10a10 10 0 0 0 10-10c0-5.53-4.5-10-10-10M8.88 7.82 11 9.94 9.94 11 8.88 9.94 7.82 11 6.76 9.94l2.12-2.12M12 17.5c-2.33 0-4.31-1.46-5.11-3.5h10.22c-.8 2.04-2.78 3.5-5.11 3.5m4.18-6.5-1.06-1.06L14.06 11 13 9.94l2.12-2.12 2.12 2.12L16.18 11Z" transform="matrix(1.5 0 0 1.5 36 288)" id="mdi-emoticon-excited" fill="#fff"/><path d="M12 2C6.47 2 2 6.47 2 12s4.47 10 10 10a10 10 0 0 0 10-10c0-5.53-4.5-10-10-10m0 18a8 8 0 0 1-8-8 8 8 0 0 1 8-8 8 8 0 0 1 8 8 8 8 0 0 1-8 8m1-10.06L14.06 11l1.06-1.06L16.18 11l1.06-1.06-2.12-2.12L13 9.94m-4.12 0L9.94 11 11 9.94 8.88 7.82 6.76 9.94 7.82 11l1.06-1.06M12 17.5c2.33 0 4.31-1.46 5.11-3.5H6.89c.8 2.04 2.78 3.5 5.11 3.5Z" transform="matrix(1.5 0 0 1.5 72 288)" id="mdi-emoticon-excited-outline" fill="#555"/><path d="M12 2C6.47 2 2 6.47 2 12s4.47 10 10 10a10 10 0 0 0 10-10c0-5.53-4.5-10-10-10m0 18a8 8 0 0 1-8-8 8 8 0 0 1 8-8 8 8 0 0 1 8 8 8 8 0 0 1-8 8m1-10.06L14.06 11l1.06-1.06L16.18 11l1.06-1.06-2.12-2.12L13 9.94m-4.12 0L9.94 11 11 9.94 8.88 7.82 6.76 9.94 7.82 11l1.06-1.06M12 17.5c2.33 0 4.31-1.46 5.11-3.5H6.89c.8 2.04 2.78 3.5 5.11 3.5Z" transform="matrix(1.5 0 0 1.5 108 288)" id="mdi-emoticon-excited-outline" fill="#fff"/><path d="M12 2C6.47 2 2 6.5 2 12s4.47 10 10 10c5.5 0 10-4.5 10-10S17.5 2 12 2m3.5 6c.83 0 1.5.67 1.5 1.5s-.67 1.5-1.5 1.5-1.5-.67-1.5-1.5.67-1.5 1.5-1.5m-7 0c.83 0 1.5.67 1.5 1.5S9.33 11 8.5 11 7 10.33 7 9.5 7.67 8 8.5 8m-1.61 9c.8-2.04 2.78-3.5 5.11-3.5s4.31 1.46 5.11 3.5H6.89Z" transform="matrix(1.5 0 0 1.5 144 288)" id="mdi-emoticon-frown" fill="#555"/><path d="M12 2C6.47 2 2 6.5 2 12s4.47 10 10 10c5.5 0 10-4.5 10-10S17.5 2 12 2m3.5 6c.83 0 1.5.67 1.5 1.5s-.67 1.5-1.5 1.5-1.5-.67-1.5-1.5.67-1.5 1.5-1.5m-7 0c.83 0 1.5.67 1.5 1.5S9.33 11 8.5 11 7 10.33 7 9.5 7.67 8 8.5 8m-1.61 9c.8-2.04 2.78-3.5 5.11-3.5s4.31 1.46 5.11 3.5H6.89Z" transform="matrix(1.5 0 0 1.5 180 288)" id="mdi-emoticon-frown" fill="#fff"/><path d="M12 2C6.47 2 2 6.5 2 12s4.47 10 10 10c5.5 0 10-4.5 10-10S17.5 2 12 2m0 18c-4.42 0-8-3.58-8-8s3.58-8 8-8 8 3.58 8 8-3.58 8-8 8m3.5-9c.83 0 1.5-.67 1.5-1.5S16.33 8 15.5 8 14 8.67 14 9.5s.67 1.5 1.5 1.5m-7 0c.83 0 1.5-.67 1.5-1.5S9.33 8 8.5 8 7 8.67 7 9.5 7.67 11 8.5 11m3.5 2.5c-2.33 0-4.31 1.46-5.11 3.5h10.22c-.8-2.04-2.78-3.5-5.11-3.5Z" transform="matrix(1.5 0 0 1.5 216 288)" id="mdi-emoticon-frown-outline" fill="#555"/><path d="M12 2C6.47 2 2 6.5 2 12s4.47 10 10 10c5.5 0 10-4.5 10-10S17.5 2 12 2m0 18c-4.42 0-8-3.58-8-8s3.58-8 8-8 8 3.58 8 8-3.58 8-8 8m3.5-9c.83 0 1.5-.67 1.5-1.5S16.33 8 15.5 8 14 8.67 14 9.5s.67 1.5 1.5 1.5m-7 0c.83 0 1.5-.67 1.5-1.5S9.33 8 8.5 8 7 8.67 7 9.5 7.67 11 8.5 11m3.5 2.5c-2.33 0-4.31 1.46-5.11 3.5h10.22c-.8-2.04-2.78-3.5-5.11-3.5Z" transform="matrix(1.5 0 0 1.5 252 288)" id="mdi-emoticon-frown-outline" fill="#fff"/><path d="M12 2A10 10 0 0 0 2 12a10 10 0 0 0 10 10 10 10 0 0 0 10-10A10 10 0 0 0 12 2M7 9.5C7 8.7 7.7 8 8.5 8s1.5.7 1.5 1.5S9.3 11 8.5 11 7 10.3 7 9.5m5 7.73c-1.75 0-3.29-.73-4.19-1.81L9.23 14c.45.72 1.52 1.23 2.77 1.23s2.32-.51 2.77-1.23l1.42 1.42c-.9 1.08-2.44 1.81-4.19 1.81M15.5 11c-.8 0-1.5-.7-1.5-1.5S14.7 8 15.5 8s1.5.7 1.5 1.5-.7 1.5-1.5 1.5Z" transform="matrix(1.5 0 0 1.5 288 288)" id="mdi-emoticon-happy" fill="#555"/><path d="M12 2A10 10 0 0 0 2 12a10 10 0 0 0 10 10 10 10 0 0 0 10-10A10 10 0 0 0 12 2M7 9.5C7 8.7 7.7 8 8.5 8s1.5.7 1.5 1.5S9.3 11 8.5 11 7 10.3 7 9.5m5 7.73c-1.75 0-3.29-.73-4.19-1.81L9.23 14c.45.72 1.52 1.23 2.77 1.23s2.32-.51 2.77-1.23l1.42 1.42c-.9 1.08-2.44 1.81-4.19 1.81M15.5 11c-.8 0-1.5-.7-1.5-1.5S14.7 8 15.5 8s1.5.7 1.5 1.5-.7 1.5-1.5 1.5Z" transform="matrix(1.5 0 0 1.5 324 288)" id="mdi-emoticon-happy" fill="#fff"/><path d="M20 12a8 8 0 0 0-8-8 8 8 0 0 0-8 8 8 8 0 0 0 8 8 8 8 0 0 0 8-8m2 0a10 10 0 0 1-10 10A10 10 0 0 1 2 12 10 10 0 0 1 12 2a10 10 0 0 1 10 10M10 9.5c0 .8-.7 1.5-1.5 1.5S7 10.3 7 9.5 7.7 8 8.5 8s1.5.7 1.5 1.5m7 0c0 .8-.7 1.5-1.5 1.5S14 10.3 14 9.5 14.7 8 15.5 8s1.5.7 1.5 1.5m-5 7.73c-1.75 0-3.29-.73-4.19-1.81L9.23 14c.45.72 1.52 1.23 2.77 1.23s2.32-.51 2.77-1.23l1.42 1.42c-.9 1.08-2.44 1.81-4.19 1.81Z" transform="matrix(1.5 0 0 1.5 360 288)" id="mdi-emoticon-happy-outline" fill="#555"/><path d="M20 12a8 8 0 0 0-8-8 8 8 0 0 0-8 8 8 8 0 0 0 8 8 8 8 0 0 0 8-8m2 0a10 10 0 0 1-10 10A10 10 0 0 1 2 12 10 10 0 0 1 12 2a10 10 0 0 1 10 10M10 9.5c0 .8-.7 1.5-1.5 1.5S7 10.3 7 9.5 7.7 8 8.5 8s1.5.7 1.5 1.5m7 0c0 .8-.7 1.5-1.5 1.5S14 10.3 14 9.5 14.7 8 15.5 8s1.5.7 1.5 1.5m-5 7.73c-1.75 0-3.29-.73-4.19-1.81L9.23 14c.45.72 1.52 1.23 2.77 1.23s2.32-.51 2.77-1.23l1.42 1.42c-.9 1.08-2.44 1.81-4.19 1.81Z" transform="matrix(1.5 0 0 1.5 396 288)" id="mdi-emoticon-happy-outline" fill="#fff"/><path d="M18.9 18.94 15.94 16c-.18-.21-.39-.5-.39-.95a1.3 1.3 0 0 1 1.3-1.3c.34 0 .68.14.92.4l1.14 1.11 1.12-1.13c.24-.24.58-.38.92-.38a1.3 1.3 0 0 1 1.3 1.3c0 .34-.14.68-.38.92l-2.97 2.97m-1.44.68A9.931 9.931 0 0 1 11 22 10 10 0 0 1 1 12 10 10 0 0 1 11 2a10 10 0 0 1 10 10c0 .09 0 .17-.05.25-.74 0-1.45.3-1.98.82l-.07.07-.06-.05a2.76 2.76 0 0 0-1.99-.84 2.8 2.8 0 0 0-2.8 2.8c0 .73.29 1.45.82 1.98l2.59 2.59M13 9.5c0 .8.7 1.5 1.5 1.5s1.5-.7 1.5-1.5S15.3 8 14.5 8 13 8.7 13 9.5m-4 0C9 8.7 8.3 8 7.5 8S6 8.7 6 9.5 6.7 11 7.5 11 9 10.3 9 9.5m3.94 5.68L14 14.12 11.88 12l-1.06 1.06 1.06 1.06-1.06 1.06 1.06 1.06-1.06 1.06 1.06 1.06L14 16.24l-1.06-1.06Z" transform="matrix(1.5 0 0 1.5 432 288)" id="mdi-emoticon-kiss" fill="#555"/><path d="M18.9 18.94 15.94 16c-.18-.21-.39-.5-.39-.95a1.3 1.3 0 0 1 1.3-1.3c.34 0 .68.14.92.4l1.14 1.11 1.12-1.13c.24-.24.58-.38.92-.38a1.3 1.3 0 0 1 1.3 1.3c0 .34-.14.68-.38.92l-2.97 2.97m-1.44.68A9.931 9.931 0 0 1 11 22 10 10 0 0 1 1 12 10 10 0 0 1 11 2a10 10 0 0 1 10 10c0 .09 0 .17-.05.25-.74 0-1.45.3-1.98.82l-.07.07-.06-.05a2.76 2.76 0 0 0-1.99-.84 2.8 2.8 0 0 0-2.8 2.8c0 .73.29 1.45.82 1.98l2.59 2.59M13 9.5c0 .8.7 1.5 1.5 1.5s1.5-.7 1.5-1.5S15.3 8 14.5 8 13 8.7 13 9.5m-4 0C9 8.7 8.3 8 7.5 8S6 8.7 6 9.5 6.7 11 7.5 11 9 10.3 9 9.5m3.94 5.68L14 14.12 11.88 12l-1.06 1.06 1.06 1.06-1.06 1.06 1.06 1.06-1.06 1.06 1.06 1.06L14 16.24l-1.06-1.06Z" transform="matrix(1.5 0 0 1.5 468 288)" id="mdi-emoticon-kiss" fill="#fff"/><path d="M9 9.5c0 .8-.7 1.5-1.5 1.5S6 10.3 6 9.5 6.7 8 7.5 8 9 8.7 9 9.5m7 0c0 .8-.7 1.5-1.5 1.5S13 10.3 13 9.5 13.7 8 14.5 8s1.5.7 1.5 1.5m-2 4.62L11.88 12l-1.06 1.06 1.06 1.06-1.06 1.06 1.06 1.06-1.06 1.06 1.06 1.06L14 16.24l-1.06-1.06L14 14.12M16.85 13a2.05 2.05 0 0 0-2.05 2.05c0 .57.23 1.07.6 1.45l3.5 3.5 3.5-3.5c.37-.37.6-.89.6-1.45A2.05 2.05 0 0 0 20.95 13c-.55 0-1.08.23-1.45.6l-.6.6-.6-.59c-.37-.38-.9-.61-1.45-.61M15 18.92A7.979 7.979 0 0 1 11 20a8 8 0 0 1-8-8 8 8 0 0 1 8-8c4.26 0 7.73 3.33 8 7.5.58-.31 1.26-.5 1.95-.5-.5-5.05-4.77-9-9.95-9A10 10 0 0 0 1 12a10 10 0 0 0 10 10c2 0 3.88-.6 5.45-1.62L15 18.92Z" transform="matrix(1.5 0 0 1.5 504 288)" id="mdi-emoticon-kiss-outline" fill="#555"/><path d="M9 9.5c0 .8-.7 1.5-1.5 1.5S6 10.3 6 9.5 6.7 8 7.5 8 9 8.7 9 9.5m7 0c0 .8-.7 1.5-1.5 1.5S13 10.3 13 9.5 13.7 8 14.5 8s1.5.7 1.5 1.5m-2 4.62L11.88 12l-1.06 1.06 1.06 1.06-1.06 1.06 1.06 1.06-1.06 1.06 1.06 1.06L14 16.24l-1.06-1.06L14 14.12M16.85 13a2.05 2.05 0 0 0-2.05 2.05c0 .57.23 1.07.6 1.45l3.5 3.5 3.5-3.5c.37-.37.6-.89.6-1.45A2.05 2.05 0 0 0 20.95 13c-.55 0-1.08.23-1.45.6l-.6.6-.6-.59c-.37-.38-.9-.61-1.45-.61M15 18.92A7.979 7.979 0 0 1 11 20a8 8 0 0 1-8-8 8 8 0 0 1 8-8c4.26 0 7.73 3.33 8 7.5.58-.31 1.26-.5 1.95-.5-.5-5.05-4.77-9-9.95-9A10 10 0 0 0 1 12a10 10 0 0 0 10 10c2 0 3.88-.6 5.45-1.62L15 18.92Z" transform="matrix(1.5 0 0 1.5 540 288)" id="mdi-emoticon-kiss-outline" fill="#fff"/><path d="M15.07 8.93v-4a4.06 4.06 0 0 1 .66-2.21 10 10 0 0 0-13 13 4.06 4.06 0 0 1 2.21-.66h4v4a4.06 4.06 0 0 1-.66 2.21 10 10 0 0 0 13-13 4.06 4.06 0 0 1-2.21.66M11 6h1.5v1.5H14V9h-3m-3.5 5v-1.5H6V11h3v3m6.89 1.9A5.5 5.5 0 0 1 9.8 17L17 9.8a5.5 5.5 0 0 1-1.11 6.09m-11 5.19a2 2 0 0 1-2-2 2 2 0 0 1 2-2h2v2a2 2 0 0 1-1.96 1.99M19.07 2.93a2 2 0 0 1 2 2 2 2 0 0 1-2 2h-2v-2a2 2 0 0 1 2-2Z" transform="matrix(1.5 0 0 1.5 576 288)" id="mdi-emoticon-lol" fill="#555"/><path d="M15.07 8.93v-4a4.06 4.06 0 0 1 .66-2.21 10 10 0 0 0-13 13 4.06 4.06 0 0 1 2.21-.66h4v4a4.06 4.06 0 0 1-.66 2.21 10 10 0 0 0 13-13 4.06 4.06 0 0 1-2.21.66M11 6h1.5v1.5H14V9h-3m-3.5 5v-1.5H6V11h3v3m6.89 1.9A5.5 5.5 0 0 1 9.8 17L17 9.8a5.5 5.5 0 0 1-1.11 6.09m-11 5.19a2 2 0 0 1-2-2 2 2 0 0 1 2-2h2v2a2 2 0 0 1-1.96 1.99M19.07 2.93a2 2 0 0 1 2 2 2 2 0 0 1-2 2h-2v-2a2 2 0 0 1 2-2Z" transform="matrix(1.5 0 0 1.5 612 288)" id="mdi-emoticon-lol" fill="#fff"/><path d="M6 11v1.5h1.5V14H9v-3m3.5-5H11v3h3V7.5h-1.5M9.8 17A5.5 5.5 0 0 0 17 9.8M6.34 6.34a8 8 0 0 1 8.74-1.72 4.11 4.11 0 0 1 .65-1.9 10 10 0 0 0-13 13 4.11 4.11 0 0 1 1.9-.65 8 8 0 0 1 1.71-8.73m11.32 11.32a8 8 0 0 1-8.74 1.72 4.11 4.11 0 0 1-.65 1.9 10 10 0 0 0 13-13 4.11 4.11 0 0 1-1.9.65 8 8 0 0 1-1.71 8.73M6 11v1.5h1.5V14H9v-3m.8 6A5.5 5.5 0 0 0 17 9.8M12.5 6H11v3h3V7.5h-1.5M6 11v1.5h1.5V14H9v-3m3.5-5H11v3h3V7.5h-1.5M9.8 17A5.5 5.5 0 0 0 17 9.8M4.93 21a2 2 0 0 1-2-2 2 2 0 0 1 2-2h2v2a2 2 0 0 1-2 2.07M19.07 2.93a2 2 0 0 1 2 2 2 2 0 0 1-2 2h-2v-2a2 2 0 0 1 2-2Z" transform="matrix(1.5 0 0 1.5 648 288)" id="mdi-emoticon-lol-outline" fill="#555"/><path d="M6 11v1.5h1.5V14H9v-3m3.5-5H11v3h3V7.5h-1.5M9.8 17A5.5 5.5 0 0 0 17 9.8M6.34 6.34a8 8 0 0 1 8.74-1.72 4.11 4.11 0 0 1 .65-1.9 10 10 0 0 0-13 13 4.11 4.11 0 0 1 1.9-.65 8 8 0 0 1 1.71-8.73m11.32 11.32a8 8 0 0 1-8.74 1.72 4.11 4.11 0 0 1-.65 1.9 10 10 0 0 0 13-13 4.11 4.11 0 0 1-1.9.65 8 8 0 0 1-1.71 8.73M6 11v1.5h1.5V14H9v-3m.8 6A5.5 5.5 0 0 0 17 9.8M12.5 6H11v3h3V7.5h-1.5M6 11v1.5h1.5V14H9v-3m3.5-5H11v3h3V7.5h-1.5M9.8 17A5.5 5.5 0 0 0 17 9.8M4.93 21a2 2 0 0 1-2-2 2 2 0 0 1 2-2h2v2a2 2 0 0 1-2 2.07M19.07 2.93a2 2 0 0 1 2 2 2 2 0 0 1-2 2h-2v-2a2 2 0 0 1 2-2Z" transform="matrix(1.5 0 0 1.5 684 288)" id="mdi-emoticon-lol-outline" fill="#fff"/><path d="M12 2A10 10 0 0 0 2 12a10 10 0 0 0 10 10 10 10 0 0 0 10-10A10 10 0 0 0 12 2M7 9.5A1.5 1.5 0 0 1 8.5 8 1.5 1.5 0 0 1 10 9.5 1.5 1.5 0 0 1 8.5 11 1.5 1.5 0 0 1 7 9.5m9 6.5H8v-2h8v2m-.5-5A1.5 1.5 0 0 1 14 9.5 1.5 1.5 0 0 1 15.5 8 1.5 1.5 0 0 1 17 9.5a1.5 1.5 0 0 1-1.5 1.5Z" transform="matrix(1.5 0 0 1.5 0 324)" id="mdi-emoticon-neutral" fill="#555"/><path d="M12 2A10 10 0 0 0 2 12a10 10 0 0 0 10 10 10 10 0 0 0 10-10A10 10 0 0 0 12 2M7 9.5A1.5 1.5 0 0 1 8.5 8 1.5 1.5 0 0 1 10 9.5 1.5 1.5 0 0 1 8.5 11 1.5 1.5 0 0 1 7 9.5m9 6.5H8v-2h8v2m-.5-5A1.5 1.5 0 0 1 14 9.5 1.5 1.5 0 0 1 15.5 8 1.5 1.5 0 0 1 17 9.5a1.5 1.5 0 0 1-1.5 1.5Z" transform="matrix(1.5 0 0 1.5 36 324)" id="mdi-emoticon-neutral" fill="#fff"/><path d="M12 2A10 10 0 0 0 2 12a10 10 0 0 0 10 10 10 10 0 0 0 10-10A10 10 0 0 0 12 2m0 18a8 8 0 0 1-8-8 8 8 0 0 1 8-8 8 8 0 0 1 8 8 8 8 0 0 1-8 8m-3.5-9A1.5 1.5 0 0 1 7 9.5 1.5 1.5 0 0 1 8.5 8 1.5 1.5 0 0 1 10 9.5 1.5 1.5 0 0 1 8.5 11M17 9.5a1.5 1.5 0 0 1-1.5 1.5A1.5 1.5 0 0 1 14 9.5 1.5 1.5 0 0 1 15.5 8 1.5 1.5 0 0 1 17 9.5M16 14v2H8v-2h8Z" transform="matrix(1.5 0 0 1.5 72 324)" id="mdi-emoticon-neutral-outline" fill="#555"/><path d="M12 2A10 10 0 0 0 2 12a10 10 0 0 0 10 10 10 10 0 0 0 10-10A10 10 0 0 0 12 2m0 18a8 8 0 0 1-8-8 8 8 0 0 1 8-8 8 8 0 0 1 8 8 8 8 0 0 1-8 8m-3.5-9A1.5 1.5 0 0 1 7 9.5 1.5 1.5 0 0 1 8.5 8 1.5 1.5 0 0 1 10 9.5 1.5 1.5 0 0 1 8.5 11M17 9.5a1.5 1.5 0 0 1-1.5 1.5A1.5 1.5 0 0 1 14 9.5 1.5 1.5 0 0 1 15.5 8 1.5 1.5 0 0 1 17 9.5M16 14v2H8v-2h8Z" transform="matrix(1.5 0 0 1.5 108 324)" id="mdi-emoticon-neutral-outline" fill="#fff"/><path d="M12 17.5c2.33 0 4.3-1.46 5.11-3.5H6.89c.8 2.04 2.78 3.5 5.11 3.5M8.5 11A1.5 1.5 0 0 0 10 9.5 1.5 1.5 0 0 0 8.5 8 1.5 1.5 0 0 0 7 9.5 1.5 1.5 0 0 0 8.5 11m7 0A1.5 1.5 0 0 0 17 9.5 1.5 1.5 0 0 0 15.5 8 1.5 1.5 0 0 0 14 9.5a1.5 1.5 0 0 0 1.5 1.5M12 20a8 8 0 0 1-8-8 8 8 0 0 1 8-8 8 8 0 0 1 8 8 8 8 0 0 1-8 8m0-18C6.47 2 2 6.5 2 12a10 10 0 0 0 10 10 10 10 0 0 0 10-10A10 10 0 0 0 12 2Z" transform="matrix(1.5 0 0 1.5 144 324)" id="mdi-emoticon-outline" fill="#555"/><path d="M12 17.5c2.33 0 4.3-1.46 5.11-3.5H6.89c.8 2.04 2.78 3.5 5.11 3.5M8.5 11A1.5 1.5 0 0 0 10 9.5 1.5 1.5 0 0 0 8.5 8 1.5 1.5 0 0 0 7 9.5 1.5 1.5 0 0 0 8.5 11m7 0A1.5 1.5 0 0 0 17 9.5 1.5 1.5 0 0 0 15.5 8 1.5 1.5 0 0 0 14 9.5a1.5 1.5 0 0 0 1.5 1.5M12 20a8 8 0 0 1-8-8 8 8 0 0 1 8-8 8 8 0 0 1 8 8 8 8 0 0 1-8 8m0-18C6.47 2 2 6.5 2 12a10 10 0 0 0 10 10 10 10 0 0 0 10-10A10 10 0 0 0 12 2Z" transform="matrix(1.5 0 0 1.5 180 324)" id="mdi-emoticon-outline" fill="#fff"/><path d="M11.36 2c-.21 0-.49.12-.79.32C10 2.7 8.85 3.9 8.4 5.1c-.34.9-.35 1.72-.21 2.33-.56.1-.97.28-1.13.35-.51.22-1.59 1.18-1.69 2.67-.03.52.04 1.05.2 1.55-.66.19-1.04.43-1.07.44-.32.12-.85.49-1 .69-.35.4-.58.87-.71 1.37-.29 1.09-.19 2.33.34 3.33.29.56.69 1.17 1.13 1.6 1.44 1.48 3.92 2.04 5.88 2.36 2.39.4 4.89.26 7.12-.66 3.35-1.39 4.24-3.63 4.38-4.24.29-1.39-.07-2.7-.22-3.02-.22-.46-.58-.93-1.17-1.23-.4-.25-.75-.38-1.01-.44.26-.95-.11-1.7-.62-2.26-.77-.82-1.56-.94-1.56-.94.26-.5.36-1.1.22-1.68-.16-.71-.55-1.16-1.06-1.46-.52-.31-1.16-.46-1.82-.58-.32-.06-1.65-.25-2.2-1.01-.45-.62-.46-1.74-.58-2.07-.05-.13-.12-.2-.26-.2M16 9.61c.07 0 .13.01.19.01 1.43.16 2.45 1.54 2.28 3.07-.17 1.53-1.47 2.65-2.9 2.49-1.43-.18-2.45-1.53-2.28-3.07.16-1.45 1.35-2.55 2.71-2.5m-7.38 0c1.33.04 2.44 1.17 2.54 2.6.12 1.54-.95 2.87-2.38 2.98h-.01c-1.43.11-2.69-1.05-2.81-2.59-.11-1.54.96-2.87 2.39-2.98.09-.01.18-.01.27-.01m.02 1.7c-.04 0-.07 0-.11.01-.56.07-.96.58-.89 1.13a1 1 0 0 0 1.13.87c.56-.07.96-.58.9-1.13a1.01 1.01 0 0 0-1.03-.88m7.3.02c-.52.02-.94.42-.98.95a1 1 0 0 0 .95 1.06 1.008 1.008 0 1 0 .14-2.01h-.11m-7.23 4.82c.29-.01.55.08.79.13 1.18.22 2.2.25 2.69.25.49 0 1.5-.03 2.67-.25.41-.08.88-.25 1.25 0 .48.32.13 1.47-.61 2.25a4.53 4.53 0 0 1-3.31 1.38c-1.78 0-2.86-.91-3.31-1.38-.74-.78-1.09-1.93-.62-2.25.14-.09.29-.13.45-.13Z" transform="matrix(1.5 0 0 1.5 216 324)" id="mdi-emoticon-poop" fill="#555"/><path d="M11.36 2c-.21 0-.49.12-.79.32C10 2.7 8.85 3.9 8.4 5.1c-.34.9-.35 1.72-.21 2.33-.56.1-.97.28-1.13.35-.51.22-1.59 1.18-1.69 2.67-.03.52.04 1.05.2 1.55-.66.19-1.04.43-1.07.44-.32.12-.85.49-1 .69-.35.4-.58.87-.71 1.37-.29 1.09-.19 2.33.34 3.33.29.56.69 1.17 1.13 1.6 1.44 1.48 3.92 2.04 5.88 2.36 2.39.4 4.89.26 7.12-.66 3.35-1.39 4.24-3.63 4.38-4.24.29-1.39-.07-2.7-.22-3.02-.22-.46-.58-.93-1.17-1.23-.4-.25-.75-.38-1.01-.44.26-.95-.11-1.7-.62-2.26-.77-.82-1.56-.94-1.56-.94.26-.5.36-1.1.22-1.68-.16-.71-.55-1.16-1.06-1.46-.52-.31-1.16-.46-1.82-.58-.32-.06-1.65-.25-2.2-1.01-.45-.62-.46-1.74-.58-2.07-.05-.13-.12-.2-.26-.2M16 9.61c.07 0 .13.01.19.01 1.43.16 2.45 1.54 2.28 3.07-.17 1.53-1.47 2.65-2.9 2.49-1.43-.18-2.45-1.53-2.28-3.07.16-1.45 1.35-2.55 2.71-2.5m-7.38 0c1.33.04 2.44 1.17 2.54 2.6.12 1.54-.95 2.87-2.38 2.98h-.01c-1.43.11-2.69-1.05-2.81-2.59-.11-1.54.96-2.87 2.39-2.98.09-.01.18-.01.27-.01m.02 1.7c-.04 0-.07 0-.11.01-.56.07-.96.58-.89 1.13a1 1 0 0 0 1.13.87c.56-.07.96-.58.9-1.13a1.01 1.01 0 0 0-1.03-.88m7.3.02c-.52.02-.94.42-.98.95a1 1 0 0 0 .95 1.06 1.008 1.008 0 1 0 .14-2.01h-.11m-7.23 4.82c.29-.01.55.08.79.13 1.18.22 2.2.25 2.69.25.49 0 1.5-.03 2.67-.25.41-.08.88-.25 1.25 0 .48.32.13 1.47-.61 2.25a4.53 4.53 0 0 1-3.31 1.38c-1.78 0-2.86-.91-3.31-1.38-.74-.78-1.09-1.93-.62-2.25.14-.09.29-.13.45-.13Z" transform="matrix(1.5 0 0 1.5 252 324)" id="mdi-emoticon-poop" fill="#fff"/><path d="M21.42 13.87c-.22-.46-.58-.93-1.17-1.23-.4-.25-.75-.38-1.01-.44.26-.95-.11-1.7-.62-2.26-.77-.82-1.56-.94-1.56-.94.26-.5.36-1.1.22-1.68-.16-.71-.55-1.16-1.06-1.46-.52-.31-1.16-.46-1.82-.58-.32-.06-1.65-.25-2.2-1.01-.45-.62-.46-1.74-.58-2.07-.05-.13-.12-.2-.26-.2-.21 0-.49.12-.79.32C10 2.7 8.85 3.9 8.4 5.1c-.34.9-.35 1.72-.21 2.33-.56.1-.97.28-1.13.35-.51.22-1.59 1.18-1.69 2.67-.03.44.04.89.13 1.33v.25c-.62.19-.97.4-1 .41-.32.12-.85.49-1 .69-.35.4-.58.87-.71 1.37-.29 1.09-.19 2.33.34 3.33.29.56.69 1.17 1.13 1.6 1.44 1.48 3.92 2.04 5.88 2.36.82.14 1.66.21 2.49.21 1.59 0 3.17-.27 4.63-.87 3.35-1.39 4.24-3.63 4.38-4.24.29-1.39-.07-2.7-.22-3.02m-5.37-2.54a1.008 1.008 0 1 1-.14 2.01 1 1 0 0 1-.95-1.06c.04-.53.46-.93.98-.95h.11m4.13 5.22c-.01.02-.48 1.95-3.49 3.19-1.22.51-2.59.76-4.06.76-.73 0-1.49-.06-2.25-.19-1.62-.26-3.88-.75-5.07-1.95-.27-.27-.59-.73-.85-1.23-.34-.63-.42-1.48-.22-2.25.08-.3.21-.56.39-.76l.02-.03c.09-.09.3-.21.38-.25l.11-.04.12-.06c.06-.04.2-.11.41-.19.46 1.26 1.61 2.15 2.92 2.15.08 0 .15-.01.23-.01a2.97 2.97 0 0 0 2.12-1.14c.53-.66.79-1.51.72-2.38-.12-1.67-1.44-3.01-3.02-3.06h-.02c-.12 0-.22 0-.31.01-.31.03-.58.11-.85.22.09-.1.17-.17.2-.19.13-.05.41-.15.79-.24L10 8.63l-.35-1.54c-.04-.19-.12-.74.16-1.46.15-.43.46-.87.77-1.25.1.27.23.53.42.77.77 1.08 2.12 1.43 3.06 1.59l.07.02c.47.08 1 .19 1.33.39.21.13.3.26.36.52.05.2.02.43-.09.64l-.52.89c-1.26.3-2.26 1.44-2.42 2.86-.2 1.81.99 3.4 2.71 3.62.12.01.24.02.35.02.71 0 1.4-.26 1.97-.75.41-.36.72-.82.92-1.33l.16.04c.1.02.27.08.55.25l.05.04.07.05c.21.08.37.26.48.5.08.17.33 1.1.13 2.05m-12.54-4.1c-.07-.55.33-1.06.89-1.13.04-.01.07-.01.11-.01.51-.01.97.36 1.03.88.06.55-.34 1.06-.9 1.13a1 1 0 0 1-1.13-.87m1.07 3.7c.29-.01.55.08.79.13 1.18.22 2.2.25 2.69.25.49 0 1.5-.03 2.67-.25.41-.08.88-.25 1.25 0 .48.32.13 1.47-.61 2.25a4.53 4.53 0 0 1-3.31 1.38c-1.78 0-2.86-.91-3.31-1.38-.74-.78-1.09-1.93-.62-2.25.14-.09.29-.13.45-.13Z" transform="matrix(1.5 0 0 1.5 288 324)" id="mdi-emoticon-poop-outline" fill="#555"/><path d="M21.42 13.87c-.22-.46-.58-.93-1.17-1.23-.4-.25-.75-.38-1.01-.44.26-.95-.11-1.7-.62-2.26-.77-.82-1.56-.94-1.56-.94.26-.5.36-1.1.22-1.68-.16-.71-.55-1.16-1.06-1.46-.52-.31-1.16-.46-1.82-.58-.32-.06-1.65-.25-2.2-1.01-.45-.62-.46-1.74-.58-2.07-.05-.13-.12-.2-.26-.2-.21 0-.49.12-.79.32C10 2.7 8.85 3.9 8.4 5.1c-.34.9-.35 1.72-.21 2.33-.56.1-.97.28-1.13.35-.51.22-1.59 1.18-1.69 2.67-.03.44.04.89.13 1.33v.25c-.62.19-.97.4-1 .41-.32.12-.85.49-1 .69-.35.4-.58.87-.71 1.37-.29 1.09-.19 2.33.34 3.33.29.56.69 1.17 1.13 1.6 1.44 1.48 3.92 2.04 5.88 2.36.82.14 1.66.21 2.49.21 1.59 0 3.17-.27 4.63-.87 3.35-1.39 4.24-3.63 4.38-4.24.29-1.39-.07-2.7-.22-3.02m-5.37-2.54a1.008 1.008 0 1 1-.14 2.01 1 1 0 0 1-.95-1.06c.04-.53.46-.93.98-.95h.11m4.13 5.22c-.01.02-.48 1.95-3.49 3.19-1.22.51-2.59.76-4.06.76-.73 0-1.49-.06-2.25-.19-1.62-.26-3.88-.75-5.07-1.95-.27-.27-.59-.73-.85-1.23-.34-.63-.42-1.48-.22-2.25.08-.3.21-.56.39-.76l.02-.03c.09-.09.3-.21.38-.25l.11-.04.12-.06c.06-.04.2-.11.41-.19.46 1.26 1.61 2.15 2.92 2.15.08 0 .15-.01.23-.01a2.97 2.97 0 0 0 2.12-1.14c.53-.66.79-1.51.72-2.38-.12-1.67-1.44-3.01-3.02-3.06h-.02c-.12 0-.22 0-.31.01-.31.03-.58.11-.85.22.09-.1.17-.17.2-.19.13-.05.41-.15.79-.24L10 8.63l-.35-1.54c-.04-.19-.12-.74.16-1.46.15-.43.46-.87.77-1.25.1.27.23.53.42.77.77 1.08 2.12 1.43 3.06 1.59l.07.02c.47.08 1 .19 1.33.39.21.13.3.26.36.52.05.2.02.43-.09.64l-.52.89c-1.26.3-2.26 1.44-2.42 2.86-.2 1.81.99 3.4 2.71 3.62.12.01.24.02.35.02.71 0 1.4-.26 1.97-.75.41-.36.72-.82.92-1.33l.16.04c.1.02.27.08.55.25l.05.04.07.05c.21.08.37.26.48.5.08.17.33 1.1.13 2.05m-12.54-4.1c-.07-.55.33-1.06.89-1.13.04-.01.07-.01.11-.01.51-.01.97.36 1.03.88.06.55-.34 1.06-.9 1.13a1 1 0 0 1-1.13-.87m1.07 3.7c.29-.01.55.08.79.13 1.18.22 2.2.25 2.69.25.49 0 1.5-.03 2.67-.25.41-.08.88-.25 1.25 0 .48.32.13 1.47-.61 2.25a4.53 4.53 0 0 1-3.31 1.38c-1.78 0-2.86-.91-3.31-1.38-.74-.78-1.09-1.93-.62-2.25.14-.09.29-.13.45-.13Z" transform="matrix(1.5 0 0 1.5 324 324)" id="mdi-emoticon-poop-outline" fill="#fff"/><path d="M12 2A10 10 0 0 0 2 12a10 10 0 0 0 10 10 10 10 0 0 0 10-10A10 10 0 0 0 12 2M7 9.5C7 8.7 7.7 8 8.5 8s1.5.7 1.5 1.5S9.3 11 8.5 11 7 10.3 7 9.5m7.77 7.73C14.32 16.5 13.25 16 12 16s-2.32.5-2.77 1.23l-1.42-1.42C8.71 14.72 10.25 14 12 14c1.75 0 3.29.72 4.19 1.81l-1.42 1.42M15.5 11c-.8 0-1.5-.7-1.5-1.5S14.7 8 15.5 8s1.5.7 1.5 1.5-.7 1.5-1.5 1.5Z" transform="matrix(1.5 0 0 1.5 360 324)" id="mdi-emoticon-sad" fill="#555"/><path d="M12 2A10 10 0 0 0 2 12a10 10 0 0 0 10 10 10 10 0 0 0 10-10A10 10 0 0 0 12 2M7 9.5C7 8.7 7.7 8 8.5 8s1.5.7 1.5 1.5S9.3 11 8.5 11 7 10.3 7 9.5m7.77 7.73C14.32 16.5 13.25 16 12 16s-2.32.5-2.77 1.23l-1.42-1.42C8.71 14.72 10.25 14 12 14c1.75 0 3.29.72 4.19 1.81l-1.42 1.42M15.5 11c-.8 0-1.5-.7-1.5-1.5S14.7 8 15.5 8s1.5.7 1.5 1.5-.7 1.5-1.5 1.5Z" transform="matrix(1.5 0 0 1.5 396 324)" id="mdi-emoticon-sad" fill="#fff"/><path d="M20 12a8 8 0 0 0-8-8 8 8 0 0 0-8 8 8 8 0 0 0 8 8 8 8 0 0 0 8-8m2 0a10 10 0 0 1-10 10A10 10 0 0 1 2 12 10 10 0 0 1 12 2a10 10 0 0 1 10 10m-6.5-4c.8 0 1.5.7 1.5 1.5s-.7 1.5-1.5 1.5-1.5-.7-1.5-1.5.7-1.5 1.5-1.5M10 9.5c0 .8-.7 1.5-1.5 1.5S7 10.3 7 9.5 7.7 8 8.5 8s1.5.7 1.5 1.5m2 4.5c1.75 0 3.29.72 4.19 1.81l-1.42 1.42C14.32 16.5 13.25 16 12 16s-2.32.5-2.77 1.23l-1.42-1.42C8.71 14.72 10.25 14 12 14Z" transform="matrix(1.5 0 0 1.5 432 324)" id="mdi-emoticon-sad-outline" fill="#555"/><path d="M20 12a8 8 0 0 0-8-8 8 8 0 0 0-8 8 8 8 0 0 0 8 8 8 8 0 0 0 8-8m2 0a10 10 0 0 1-10 10A10 10 0 0 1 2 12 10 10 0 0 1 12 2a10 10 0 0 1 10 10m-6.5-4c.8 0 1.5.7 1.5 1.5s-.7 1.5-1.5 1.5-1.5-.7-1.5-1.5.7-1.5 1.5-1.5M10 9.5c0 .8-.7 1.5-1.5 1.5S7 10.3 7 9.5 7.7 8 8.5 8s1.5.7 1.5 1.5m2 4.5c1.75 0 3.29.72 4.19 1.81l-1.42 1.42C14.32 16.5 13.25 16 12 16s-2.32.5-2.77 1.23l-1.42-1.42C8.71 14.72 10.25 14 12 14Z" transform="matrix(1.5 0 0 1.5 468 324)" id="mdi-emoticon-sad-outline" fill="#fff"/><path d="M21 9c-1.1 0-2-.9-2-2s2-4 2-4 2 2.9 2 4-.9 2-2 2m-3.5-2c0-.73.41-1.71.92-2.66A9.958 9.958 0 0 0 12 2C6.47 2 2 6.5 2 12s4.47 10 10 10c5.5 0 10-4.5 10-10 0-.55-.06-1.09-.14-1.62a3.5 3.5 0 0 1-.86.12c-1.93 0-3.5-1.57-3.5-3.5m-1.88.38 1.06 1.06-1.06 1.06 1.06 1.06-1.06 1.06L13.5 9.5l2.12-2.12m-8.3 1.06 1.06-1.06L10.5 9.5l-2.12 2.12-1.06-1.06L8.38 9.5 7.32 8.44M15.44 17c-.69-1.19-1.97-2-3.44-2s-2.75.81-3.44 2H6.88c.3-.76.76-1.43 1.34-2l-2.98-1.7c-.45.26-1.01.28-1.49 0a1.501 1.501 0 0 1 1.5-2.6c.48.3.75.8.75 1.3l3.57 2.06c.73-.36 1.55-.56 2.43-.56 2.33 0 4.32 1.45 5.12 3.5h-1.68Z" transform="matrix(1.5 0 0 1.5 504 324)" id="mdi-emoticon-sick" fill="#555"/><path d="M21 9c-1.1 0-2-.9-2-2s2-4 2-4 2 2.9 2 4-.9 2-2 2m-3.5-2c0-.73.41-1.71.92-2.66A9.958 9.958 0 0 0 12 2C6.47 2 2 6.5 2 12s4.47 10 10 10c5.5 0 10-4.5 10-10 0-.55-.06-1.09-.14-1.62a3.5 3.5 0 0 1-.86.12c-1.93 0-3.5-1.57-3.5-3.5m-1.88.38 1.06 1.06-1.06 1.06 1.06 1.06-1.06 1.06L13.5 9.5l2.12-2.12m-8.3 1.06 1.06-1.06L10.5 9.5l-2.12 2.12-1.06-1.06L8.38 9.5 7.32 8.44M15.44 17c-.69-1.19-1.97-2-3.44-2s-2.75.81-3.44 2H6.88c.3-.76.76-1.43 1.34-2l-2.98-1.7c-.45.26-1.01.28-1.49 0a1.501 1.501 0 0 1 1.5-2.6c.48.3.75.8.75 1.3l3.57 2.06c.73-.36 1.55-.56 2.43-.56 2.33 0 4.32 1.45 5.12 3.5h-1.68Z" transform="matrix(1.5 0 0 1.5 540 324)" id="mdi-emoticon-sick" fill="#fff"/><path d="M7.32 10.56 8.38 9.5 7.32 8.44l1.06-1.06L10.5 9.5l-2.12 2.12-1.06-1.06M4.5 9h.08C5.77 6.07 8.64 4 12 4c2.19 0 4.16.88 5.61 2.3.15-.6.45-1.3.81-1.96A9.958 9.958 0 0 0 12 2c-4.89 0-8.95 3.5-9.82 8.14C2.74 9.44 3.59 9 4.5 9M21 10.5c-.42 0-.82-.09-1.19-.22.12.55.19 1.13.19 1.72 0 4.42-3.58 8-8 8-3.36 0-6.23-2.07-7.42-5H4.5c-.5 0-1.04-.14-1.5-.4-.32-.18-.59-.42-.82-.7C3.07 18.5 7.11 22 12 22c5.5 0 10-4.5 10-10 0-.55-.06-1.09-.14-1.62a3.5 3.5 0 0 1-.86.12M21 3s-2 2.9-2 4 .9 2 2 2 2-.9 2-2-2-4-2-4m-5.38 4.38L13.5 9.5l2.12 2.12 1.06-1.06-1.06-1.06 1.06-1.06-1.06-1.06M8.56 17c.69-1.19 1.97-2 3.44-2s2.75.81 3.44 2h1.68c-.8-2.05-2.79-3.5-5.12-3.5-.87 0-1.7.2-2.43.57L6 12c0-.5-.27-1-.75-1.29-.72-.41-1.63-.17-2.05.55-.41.74-.17 1.63.55 2.05.48.28 1.05.25 1.49 0l2.97 1.72c-.57.53-1.03 1.21-1.33 1.97h1.68Z" transform="matrix(1.5 0 0 1.5 576 324)" id="mdi-emoticon-sick-outline" fill="#555"/><path d="M7.32 10.56 8.38 9.5 7.32 8.44l1.06-1.06L10.5 9.5l-2.12 2.12-1.06-1.06M4.5 9h.08C5.77 6.07 8.64 4 12 4c2.19 0 4.16.88 5.61 2.3.15-.6.45-1.3.81-1.96A9.958 9.958 0 0 0 12 2c-4.89 0-8.95 3.5-9.82 8.14C2.74 9.44 3.59 9 4.5 9M21 10.5c-.42 0-.82-.09-1.19-.22.12.55.19 1.13.19 1.72 0 4.42-3.58 8-8 8-3.36 0-6.23-2.07-7.42-5H4.5c-.5 0-1.04-.14-1.5-.4-.32-.18-.59-.42-.82-.7C3.07 18.5 7.11 22 12 22c5.5 0 10-4.5 10-10 0-.55-.06-1.09-.14-1.62a3.5 3.5 0 0 1-.86.12M21 3s-2 2.9-2 4 .9 2 2 2 2-.9 2-2-2-4-2-4m-5.38 4.38L13.5 9.5l2.12 2.12 1.06-1.06-1.06-1.06 1.06-1.06-1.06-1.06M8.56 17c.69-1.19 1.97-2 3.44-2s2.75.81 3.44 2h1.68c-.8-2.05-2.79-3.5-5.12-3.5-.87 0-1.7.2-2.43.57L6 12c0-.5-.27-1-.75-1.29-.72-.41-1.63-.17-2.05.55-.41.74-.17 1.63.55 2.05.48.28 1.05.25 1.49 0l2.97 1.72c-.57.53-1.03 1.21-1.33 1.97h1.68Z" transform="matrix(1.5 0 0 1.5 612 324)" id="mdi-emoticon-sick-outline" fill="#fff"/><path d="M12 2A10 10 0 0 0 2 12a10 10 0 0 0 10 10 10 10 0 0 0 10-10A10 10 0 0 0 12 2m-4.73 9c-.17-.29-.27-.64-.27-1 0-1.11.89-2 2-2a2 2 0 0 1 2 2c0 .36-.1.71-.27 1-.34-.6-.99-1-1.73-1s-1.39.4-1.73 1M16 15h-1c0 2-.9 3-2 3s-2-1-2-3H8v-2h8v2m.73-4c-.34-.6-.99-1-1.73-1s-1.39.4-1.73 1c-.17-.29-.27-.64-.27-1 0-1.11.89-2 2-2a2 2 0 0 1 2 2c0 .36-.1.71-.27 1Z" transform="matrix(1.5 0 0 1.5 648 324)" id="mdi-emoticon-tongue" fill="#555"/><path d="M12 2A10 10 0 0 0 2 12a10 10 0 0 0 10 10 10 10 0 0 0 10-10A10 10 0 0 0 12 2m-4.73 9c-.17-.29-.27-.64-.27-1 0-1.11.89-2 2-2a2 2 0 0 1 2 2c0 .36-.1.71-.27 1-.34-.6-.99-1-1.73-1s-1.39.4-1.73 1M16 15h-1c0 2-.9 3-2 3s-2-1-2-3H8v-2h8v2m.73-4c-.34-.6-.99-1-1.73-1s-1.39.4-1.73 1c-.17-.29-.27-.64-.27-1 0-1.11.89-2 2-2a2 2 0 0 1 2 2c0 .36-.1.71-.27 1Z" transform="matrix(1.5 0 0 1.5 684 324)" id="mdi-emoticon-tongue" fill="#fff"/></svg>