<svg xmlns="http://www.w3.org/2000/svg" width="720" height="900"><path d="m19 12-7 10-7-10 7-10" transform="scale(1.5)" id="mdi-cards-diamond" fill="#555"/><path d="m19 12-7 10-7-10 7-10" transform="translate(36) scale(1.5)" id="mdi-cards-diamond" fill="#fff"/><path d="M12 2 5 12l7 10 7-10M7.44 12 12 5.5l4.56 6.5L12 18.5" transform="translate(72) scale(1.5)" id="mdi-cards-diamond-outline" fill="#555"/><path d="M12 2 5 12l7 10 7-10M7.44 12 12 5.5l4.56 6.5L12 18.5" transform="translate(108) scale(1.5)" id="mdi-cards-diamond-outline" fill="#fff"/><path d="m12 21.35-1.45-1.32C5.4 15.36 2 12.27 2 8.5 2 5.41 4.42 3 7.5 3c1.74 0 3.41.81 4.5 2.08C13.09 3.81 14.76 3 16.5 3 19.58 3 22 5.41 22 8.5c0 3.77-3.4 6.86-8.55 11.53L12 21.35Z" transform="translate(144) scale(1.5)" id="mdi-cards-heart" fill="#555"/><path d="m12 21.35-1.45-1.32C5.4 15.36 2 12.27 2 8.5 2 5.41 4.42 3 7.5 3c1.74 0 3.41.81 4.5 2.08C13.09 3.81 14.76 3 16.5 3 19.58 3 22 5.41 22 8.5c0 3.77-3.4 6.86-8.55 11.53L12 21.35Z" transform="translate(180) scale(1.5)" id="mdi-cards-heart" fill="#fff"/><path d="m12.1 18.55-.1.1-.11-.1C7.14 14.24 4 11.39 4 8.5 4 6.5 5.5 5 7.5 5c1.54 0 3.04 1 3.57 2.36h1.86C13.46 6 14.96 5 16.5 5c2 0 3.5 1.5 3.5 3.5 0 2.89-3.14 5.74-7.9 10.05M16.5 3c-1.74 0-3.41.81-4.5 2.08C10.91 3.81 9.24 3 7.5 3 4.42 3 2 5.41 2 8.5c0 3.77 3.4 6.86 8.55 11.53L12 21.35l1.45-1.32C18.6 15.36 22 12.27 22 8.5 22 5.41 19.58 3 16.5 3Z" transform="translate(216) scale(1.5)" id="mdi-cards-heart-outline" fill="#555"/><path d="m12.1 18.55-.1.1-.11-.1C7.14 14.24 4 11.39 4 8.5 4 6.5 5.5 5 7.5 5c1.54 0 3.04 1 3.57 2.36h1.86C13.46 6 14.96 5 16.5 5c2 0 3.5 1.5 3.5 3.5 0 2.89-3.14 5.74-7.9 10.05M16.5 3c-1.74 0-3.41.81-4.5 2.08C10.91 3.81 9.24 3 7.5 3 4.42 3 2 5.41 2 8.5c0 3.77 3.4 6.86 8.55 11.53L12 21.35l1.45-1.32C18.6 15.36 22 12.27 22 8.5 22 5.41 19.58 3 16.5 3Z" transform="translate(252) scale(1.5)" id="mdi-cards-heart-outline" fill="#fff"/><path d="M11.19 2.25c-.26 0-.52.06-.77.15L3.06 5.45a1.994 1.994 0 0 0-1.09 2.6L6.93 20a2 2 0 0 0 1.81 1.25c.26 0 .53-.03.79-.15l7.37-3.05a2.02 2.02 0 0 0 1.23-1.8c.01-.25-.04-.54-.13-.8L13 3.5a1.954 1.954 0 0 0-1.81-1.25m3.48 0 3.45 8.35V4.25a2 2 0 0 0-2-2m4.01 1.54v9.03l2.43-5.86a1.99 1.99 0 0 0-1.09-2.6m-10.28-.14 4.98 12.02-7.39 3.06L3.8 7.29" transform="translate(288) scale(1.5)" id="mdi-cards-outline" fill="#555"/><path d="M11.19 2.25c-.26 0-.52.06-.77.15L3.06 5.45a1.994 1.994 0 0 0-1.09 2.6L6.93 20a2 2 0 0 0 1.81 1.25c.26 0 .53-.03.79-.15l7.37-3.05a2.02 2.02 0 0 0 1.23-1.8c.01-.25-.04-.54-.13-.8L13 3.5a1.954 1.954 0 0 0-1.81-1.25m3.48 0 3.45 8.35V4.25a2 2 0 0 0-2-2m4.01 1.54v9.03l2.43-5.86a1.99 1.99 0 0 0-1.09-2.6m-10.28-.14 4.98 12.02-7.39 3.06L3.8 7.29" transform="translate(324) scale(1.5)" id="mdi-cards-outline" fill="#fff"/><path d="M14.7 2.2h1.5c1.1 0 2 .9 2 2v6.4l-3.5-8.4m5.4 1.6 1.3.6c1 .4 1.5 1.6 1.1 2.6l-2.4 5.9V3.8M18 15.5l-5-12c-.3-.8-1-1.2-1.8-1.2-.3 0-.5.1-.8.2L3 5.5C2 5.9 1.5 7 2 8l5 12c.3.8 1 1.2 1.8 1.2.3 0 .5 0 .8-.2l7.4-3c.8-.3 1.2-1 1.2-1.8-.1-.2-.1-.5-.2-.7m-6.6-.5-3.2-2.4.4-4 3.2 2.4-.4 4" transform="translate(360) scale(1.5)" id="mdi-cards-playing" fill="#555"/><path d="M14.7 2.2h1.5c1.1 0 2 .9 2 2v6.4l-3.5-8.4m5.4 1.6 1.3.6c1 .4 1.5 1.6 1.1 2.6l-2.4 5.9V3.8M18 15.5l-5-12c-.3-.8-1-1.2-1.8-1.2-.3 0-.5.1-.8.2L3 5.5C2 5.9 1.5 7 2 8l5 12c.3.8 1 1.2 1.8 1.2.3 0 .5 0 .8-.2l7.4-3c.8-.3 1.2-1 1.2-1.8-.1-.2-.1-.5-.2-.7m-6.6-.5-3.2-2.4.4-4 3.2 2.4-.4 4" transform="translate(396) scale(1.5)" id="mdi-cards-playing" fill="#fff"/><path d="M17 2H7c-1.1 0-2 .9-2 2v16c0 1.1.9 2 2 2h10c1.1 0 2-.9 2-2V4c0-1.1-.9-2-2-2m-3 13c-.6 0-1.1-.3-1.5-.7l1 2.7h-3l1-2.7c-.4.4-.9.7-1.5.7-1.1 0-2-.9-2-2s.9-2 2-2h.3c-.2-.3-.3-.7-.3-1 0-1.1.9-2 2-2s2 .9 2 2c0 .4-.1.7-.3 1h.3c1.1 0 2 .9 2 2s-.9 2-2 2Z" transform="translate(432) scale(1.5)" id="mdi-cards-playing-club" fill="#555"/><path d="M17 2H7c-1.1 0-2 .9-2 2v16c0 1.1.9 2 2 2h10c1.1 0 2-.9 2-2V4c0-1.1-.9-2-2-2m-3 13c-.6 0-1.1-.3-1.5-.7l1 2.7h-3l1-2.7c-.4.4-.9.7-1.5.7-1.1 0-2-.9-2-2s.9-2 2-2h.3c-.2-.3-.3-.7-.3-1 0-1.1.9-2 2-2s2 .9 2 2c0 .4-.1.7-.3 1h.3c1.1 0 2 .9 2 2s-.9 2-2 2Z" transform="translate(468) scale(1.5)" id="mdi-cards-playing-club" fill="#fff"/><path d="M3 4v18c0 1.1.9 2 2 2h12v-2H5V4H3m16-4H9C7.9 0 7 .9 7 2v16c0 1.1.9 2 2 2h10c1.1 0 2-.9 2-2V2c0-1.1-.9-2-2-2m-3 13c-.6 0-1.1-.3-1.5-.7l1 2.7h-3l1-2.7c-.4.4-.9.7-1.5.7-1.1 0-2-.9-2-2s.9-2 2-2h.3c-.2-.3-.3-.6-.3-1 0-1.1.9-2 2-2s2 .9 2 2c0 .4-.1.7-.3 1h.3c1.1 0 2 .9 2 2s-.9 2-2 2Z" transform="translate(504) scale(1.5)" id="mdi-cards-playing-club-multiple" fill="#555"/><path d="M3 4v18c0 1.1.9 2 2 2h12v-2H5V4H3m16-4H9C7.9 0 7 .9 7 2v16c0 1.1.9 2 2 2h10c1.1 0 2-.9 2-2V2c0-1.1-.9-2-2-2m-3 13c-.6 0-1.1-.3-1.5-.7l1 2.7h-3l1-2.7c-.4.4-.9.7-1.5.7-1.1 0-2-.9-2-2s.9-2 2-2h.3c-.2-.3-.3-.6-.3-1 0-1.1.9-2 2-2s2 .9 2 2c0 .4-.1.7-.3 1h.3c1.1 0 2 .9 2 2s-.9 2-2 2Z" transform="translate(540) scale(1.5)" id="mdi-cards-playing-club-multiple" fill="#fff"/><path d="M19 0H9C7.9 0 7 .9 7 2v16c0 1.1.9 2 2 2h10c1.1 0 2-.9 2-2V2c0-1.1-.9-2-2-2m0 18H9V2h10v16M3 4v18c0 1.1.9 2 2 2h12v-2H5V4H3m11 2c-1.1 0-2 .9-2 2 0 .4.1.7.3 1H12c-1.1 0-2 .9-2 2s.9 2 2 2c.6 0 1.1-.3 1.5-.7l-1 2.7h3l-1-2.7c.4.4.9.7 1.5.7 1.1 0 2-.9 2-2s-.9-2-2-2h-.3c.2-.3.3-.6.3-1 0-1.1-.9-2-2-2Z" transform="translate(576) scale(1.5)" id="mdi-cards-playing-club-multiple-outline" fill="#555"/><path d="M19 0H9C7.9 0 7 .9 7 2v16c0 1.1.9 2 2 2h10c1.1 0 2-.9 2-2V2c0-1.1-.9-2-2-2m0 18H9V2h10v16M3 4v18c0 1.1.9 2 2 2h12v-2H5V4H3m11 2c-1.1 0-2 .9-2 2 0 .4.1.7.3 1H12c-1.1 0-2 .9-2 2s.9 2 2 2c.6 0 1.1-.3 1.5-.7l-1 2.7h3l-1-2.7c.4.4.9.7 1.5.7 1.1 0 2-.9 2-2s-.9-2-2-2h-.3c.2-.3.3-.6.3-1 0-1.1-.9-2-2-2Z" transform="translate(612) scale(1.5)" id="mdi-cards-playing-club-multiple-outline" fill="#fff"/><path d="M17 2H7c-1.1 0-2 .9-2 2v16c0 1.1.9 2 2 2h10c1.1 0 2-.9 2-2V4c0-1.1-.9-2-2-2m0 18H7V4h10v16M12 8c-1.1 0-2 .9-2 2 0 .4.1.7.3 1H10c-1.1 0-2 .9-2 2s.9 2 2 2c.6 0 1.1-.3 1.5-.7l-1 2.7h3l-1-2.7c.4.4.9.7 1.5.7 1.1 0 2-.9 2-2s-.9-2-2-2h-.3c.2-.3.3-.7.3-1 0-1.1-.9-2-2-2Z" transform="translate(648) scale(1.5)" id="mdi-cards-playing-club-outline" fill="#555"/><path d="M17 2H7c-1.1 0-2 .9-2 2v16c0 1.1.9 2 2 2h10c1.1 0 2-.9 2-2V4c0-1.1-.9-2-2-2m0 18H7V4h10v16M12 8c-1.1 0-2 .9-2 2 0 .4.1.7.3 1H10c-1.1 0-2 .9-2 2s.9 2 2 2c.6 0 1.1-.3 1.5-.7l-1 2.7h3l-1-2.7c.4.4.9.7 1.5.7 1.1 0 2-.9 2-2s-.9-2-2-2h-.3c.2-.3.3-.7.3-1 0-1.1-.9-2-2-2Z" transform="translate(684) scale(1.5)" id="mdi-cards-playing-club-outline" fill="#fff"/><path d="M17 2H7c-1.1 0-2 .9-2 2v16c0 1.1.9 2 2 2h10c1.1 0 2-.9 2-2V4c0-1.1-.9-2-2-2m-5 15-3-5 3-5 3 5-3 5Z" transform="matrix(1.5 0 0 1.5 0 36)" id="mdi-cards-playing-diamond" fill="#555"/><path d="M17 2H7c-1.1 0-2 .9-2 2v16c0 1.1.9 2 2 2h10c1.1 0 2-.9 2-2V4c0-1.1-.9-2-2-2m-5 15-3-5 3-5 3 5-3 5Z" transform="matrix(1.5 0 0 1.5 36 36)" id="mdi-cards-playing-diamond" fill="#fff"/><path d="M3 4v18c0 1.1.9 2 2 2h12v-2H5V4H3m16-4H9C7.9 0 7 .9 7 2v16c0 1.1.9 2 2 2h10c1.1 0 2-.9 2-2V2c0-1.1-.9-2-2-2m-5 15-3-5 3-5 3 5-3 5Z" transform="matrix(1.5 0 0 1.5 72 36)" id="mdi-cards-playing-diamond-multiple" fill="#555"/><path d="M3 4v18c0 1.1.9 2 2 2h12v-2H5V4H3m16-4H9C7.9 0 7 .9 7 2v16c0 1.1.9 2 2 2h10c1.1 0 2-.9 2-2V2c0-1.1-.9-2-2-2m-5 15-3-5 3-5 3 5-3 5Z" transform="matrix(1.5 0 0 1.5 108 36)" id="mdi-cards-playing-diamond-multiple" fill="#fff"/><path d="M19 0H9C7.9 0 7 .9 7 2v16c0 1.1.9 2 2 2h10c1.1 0 2-.9 2-2V2c0-1.1-.9-2-2-2m0 18H9V2h10v16M3 4v18c0 1.1.9 2 2 2h12v-2H5V4H3m11 1-3 5 3 5 3-5-3-5Z" transform="matrix(1.5 0 0 1.5 144 36)" id="mdi-cards-playing-diamond-multiple-outline" fill="#555"/><path d="M19 0H9C7.9 0 7 .9 7 2v16c0 1.1.9 2 2 2h10c1.1 0 2-.9 2-2V2c0-1.1-.9-2-2-2m0 18H9V2h10v16M3 4v18c0 1.1.9 2 2 2h12v-2H5V4H3m11 1-3 5 3 5 3-5-3-5Z" transform="matrix(1.5 0 0 1.5 180 36)" id="mdi-cards-playing-diamond-multiple-outline" fill="#fff"/><path d="M17 2H7c-1.1 0-2 .9-2 2v16c0 1.1.9 2 2 2h10c1.1 0 2-.9 2-2V4c0-1.1-.9-2-2-2m0 18H7V4h10v16M12 7l-3 5 3 5 3-5-3-5Z" transform="matrix(1.5 0 0 1.5 216 36)" id="mdi-cards-playing-diamond-outline" fill="#555"/><path d="M17 2H7c-1.1 0-2 .9-2 2v16c0 1.1.9 2 2 2h10c1.1 0 2-.9 2-2V4c0-1.1-.9-2-2-2m0 18H7V4h10v16M12 7l-3 5 3 5 3-5-3-5Z" transform="matrix(1.5 0 0 1.5 252 36)" id="mdi-cards-playing-diamond-outline" fill="#fff"/><path d="M17 2H7c-1.1 0-2 .9-2 2v16c0 1.1.9 2 2 2h10c1.1 0 2-.9 2-2V4c0-1.1-.9-2-2-2m-4.4 13.8-.6.5-.6-.5c-2-1.9-3.4-3.1-3.4-4.6C8 10 9 9 10.2 9c.7 0 1.4.3 1.8.8.4-.5 1.1-.8 1.8-.8 1.2 0 2.2.9 2.2 2.2 0 1.5-1.4 2.7-3.4 4.6Z" transform="matrix(1.5 0 0 1.5 288 36)" id="mdi-cards-playing-heart" fill="#555"/><path d="M17 2H7c-1.1 0-2 .9-2 2v16c0 1.1.9 2 2 2h10c1.1 0 2-.9 2-2V4c0-1.1-.9-2-2-2m-4.4 13.8-.6.5-.6-.5c-2-1.9-3.4-3.1-3.4-4.6C8 10 9 9 10.2 9c.7 0 1.4.3 1.8.8.4-.5 1.1-.8 1.8-.8 1.2 0 2.2.9 2.2 2.2 0 1.5-1.4 2.7-3.4 4.6Z" transform="matrix(1.5 0 0 1.5 324 36)" id="mdi-cards-playing-heart" fill="#fff"/><path d="M3 4v18c0 1.1.9 2 2 2h12v-2H5V4H3m16-4H9C7.9 0 7 .9 7 2v16c0 1.1.9 2 2 2h10c1.1 0 2-.9 2-2V2c0-1.1-.9-2-2-2m-4.4 13.8-.6.5-.6-.5c-2-1.9-3.4-3.1-3.4-4.6C10 8 11 7 12.2 7c.7 0 1.4.3 1.8.8.4-.5 1.1-.8 1.8-.8C17 7 18 7.9 18 9.2c0 1.5-1.4 2.7-3.4 4.6Z" transform="matrix(1.5 0 0 1.5 360 36)" id="mdi-cards-playing-heart-multiple" fill="#555"/><path d="M3 4v18c0 1.1.9 2 2 2h12v-2H5V4H3m16-4H9C7.9 0 7 .9 7 2v16c0 1.1.9 2 2 2h10c1.1 0 2-.9 2-2V2c0-1.1-.9-2-2-2m-4.4 13.8-.6.5-.6-.5c-2-1.9-3.4-3.1-3.4-4.6C10 8 11 7 12.2 7c.7 0 1.4.3 1.8.8.4-.5 1.1-.8 1.8-.8C17 7 18 7.9 18 9.2c0 1.5-1.4 2.7-3.4 4.6Z" transform="matrix(1.5 0 0 1.5 396 36)" id="mdi-cards-playing-heart-multiple" fill="#fff"/><path d="M19 0H9C7.9 0 7 .9 7 2v16c0 1.1.9 2 2 2h10c1.1 0 2-.9 2-2V2c0-1.1-.9-2-2-2m0 18H9V2h10v16M3 4v18c0 1.1.9 2 2 2h12v-2H5V4H3m9.2 3C11 7 10 8 10 9.2c0 1.5 1.4 2.7 3.4 4.6l.6.5.6-.5c2-1.9 3.4-3.1 3.4-4.6C18 7.9 17 7 15.8 7c-.7 0-1.4.3-1.8.8-.4-.5-1.1-.8-1.8-.8Z" transform="matrix(1.5 0 0 1.5 432 36)" id="mdi-cards-playing-heart-multiple-outline" fill="#555"/><path d="M19 0H9C7.9 0 7 .9 7 2v16c0 1.1.9 2 2 2h10c1.1 0 2-.9 2-2V2c0-1.1-.9-2-2-2m0 18H9V2h10v16M3 4v18c0 1.1.9 2 2 2h12v-2H5V4H3m9.2 3C11 7 10 8 10 9.2c0 1.5 1.4 2.7 3.4 4.6l.6.5.6-.5c2-1.9 3.4-3.1 3.4-4.6C18 7.9 17 7 15.8 7c-.7 0-1.4.3-1.8.8-.4-.5-1.1-.8-1.8-.8Z" transform="matrix(1.5 0 0 1.5 468 36)" id="mdi-cards-playing-heart-multiple-outline" fill="#fff"/><path d="M17 2H7c-1.1 0-2 .9-2 2v16c0 1.1.9 2 2 2h10c1.1 0 2-.9 2-2V4c0-1.1-.9-2-2-2m0 18H7V4h10v16M10.2 9C9 9 8 10 8 11.2c0 1.5 1.4 2.7 3.4 4.6l.6.5.6-.5c2-1.9 3.4-3.1 3.4-4.6C16 9.9 15 9 13.8 9c-.7 0-1.4.3-1.8.8-.4-.5-1.1-.8-1.8-.8Z" transform="matrix(1.5 0 0 1.5 504 36)" id="mdi-cards-playing-heart-outline" fill="#555"/><path d="M17 2H7c-1.1 0-2 .9-2 2v16c0 1.1.9 2 2 2h10c1.1 0 2-.9 2-2V4c0-1.1-.9-2-2-2m0 18H7V4h10v16M10.2 9C9 9 8 10 8 11.2c0 1.5 1.4 2.7 3.4 4.6l.6.5.6-.5c2-1.9 3.4-3.1 3.4-4.6C16 9.9 15 9 13.8 9c-.7 0-1.4.3-1.8.8-.4-.5-1.1-.8-1.8-.8Z" transform="matrix(1.5 0 0 1.5 540 36)" id="mdi-cards-playing-heart-outline" fill="#fff"/><path d="M11.19 2.25c.78.01 1.52.48 1.81 1.25l5 11.95c.09.26.14.55.13.8a2.02 2.02 0 0 1-1.23 1.8L9.53 21.1c-.26.12-.53.15-.79.15A2 2 0 0 1 6.93 20L1.97 8.05c-.42-1.01.07-2.18 1.09-2.6l7.36-3.05c.25-.09.51-.15.77-.15m3.48 0h1.45a2 2 0 0 1 2 2v6.35l-3.45-8.35m5.46 1.54 1.34.57a1.99 1.99 0 0 1 1.09 2.6l-2.43 5.86V3.79m-8.94.43L3.8 7.29 8.77 19.3l7.4-3.06-4.98-12.02M8.65 8.54l3.23 2.41-.44 4.01-3.23-2.42.44-4Z" transform="matrix(1.5 0 0 1.5 576 36)" id="mdi-cards-playing-outline" fill="#555"/><path d="M11.19 2.25c.78.01 1.52.48 1.81 1.25l5 11.95c.09.26.14.55.13.8a2.02 2.02 0 0 1-1.23 1.8L9.53 21.1c-.26.12-.53.15-.79.15A2 2 0 0 1 6.93 20L1.97 8.05c-.42-1.01.07-2.18 1.09-2.6l7.36-3.05c.25-.09.51-.15.77-.15m3.48 0h1.45a2 2 0 0 1 2 2v6.35l-3.45-8.35m5.46 1.54 1.34.57a1.99 1.99 0 0 1 1.09 2.6l-2.43 5.86V3.79m-8.94.43L3.8 7.29 8.77 19.3l7.4-3.06-4.98-12.02M8.65 8.54l3.23 2.41-.44 4.01-3.23-2.42.44-4Z" transform="matrix(1.5 0 0 1.5 612 36)" id="mdi-cards-playing-outline" fill="#fff"/><path d="M17 2H7c-1.1 0-2 .9-2 2v16c0 1.1.9 2 2 2h10c1.1 0 2-.9 2-2V4c0-1.1-.9-2-2-2m-3.2 13c-.4 0-.8-.1-1.2-.3l.9 2.3h-3l.9-2.3c-.4.2-.8.3-1.2.3C9 15 8 14 8 12.8c0-1.5 1.4-2.7 3.4-4.6l.6-.5.6.5c2 1.9 3.4 3.1 3.4 4.6 0 1.3-1 2.2-2.2 2.2Z" transform="matrix(1.5 0 0 1.5 648 36)" id="mdi-cards-playing-spade" fill="#555"/><path d="M17 2H7c-1.1 0-2 .9-2 2v16c0 1.1.9 2 2 2h10c1.1 0 2-.9 2-2V4c0-1.1-.9-2-2-2m-3.2 13c-.4 0-.8-.1-1.2-.3l.9 2.3h-3l.9-2.3c-.4.2-.8.3-1.2.3C9 15 8 14 8 12.8c0-1.5 1.4-2.7 3.4-4.6l.6-.5.6.5c2 1.9 3.4 3.1 3.4 4.6 0 1.3-1 2.2-2.2 2.2Z" transform="matrix(1.5 0 0 1.5 684 36)" id="mdi-cards-playing-spade" fill="#fff"/><path d="M3 4v18c0 1.1.9 2 2 2h12v-2H5V4H3m16-4H9C7.9 0 7 .9 7 2v16c0 1.1.9 2 2 2h10c1.1 0 2-.9 2-2V2c0-1.1-.9-2-2-2m-3.2 13c-.4 0-.8-.1-1.2-.3l.9 2.3h-3l.9-2.3c-.4.2-.8.3-1.2.3-1.2 0-2.2-1-2.2-2.2 0-1.5 1.4-2.7 3.4-4.6l.6-.5.6.5c2 1.9 3.4 3.1 3.4 4.6 0 1.3-1 2.2-2.2 2.2Z" transform="matrix(1.5 0 0 1.5 0 72)" id="mdi-cards-playing-spade-multiple" fill="#555"/><path d="M3 4v18c0 1.1.9 2 2 2h12v-2H5V4H3m16-4H9C7.9 0 7 .9 7 2v16c0 1.1.9 2 2 2h10c1.1 0 2-.9 2-2V2c0-1.1-.9-2-2-2m-3.2 13c-.4 0-.8-.1-1.2-.3l.9 2.3h-3l.9-2.3c-.4.2-.8.3-1.2.3-1.2 0-2.2-1-2.2-2.2 0-1.5 1.4-2.7 3.4-4.6l.6-.5.6.5c2 1.9 3.4 3.1 3.4 4.6 0 1.3-1 2.2-2.2 2.2Z" transform="matrix(1.5 0 0 1.5 36 72)" id="mdi-cards-playing-spade-multiple" fill="#fff"/><path d="M19 0H9C7.9 0 7 .9 7 2v16c0 1.1.9 2 2 2h10c1.1 0 2-.9 2-2V2c0-1.1-.9-2-2-2m0 18H9V2h10v16M3 4v18c0 1.1.9 2 2 2h12v-2H5V4H3m11 1.7-.6.5c-2 1.9-3.4 3.1-3.4 4.6 0 1.2 1 2.2 2.2 2.2.4 0 .8-.1 1.2-.3l-.9 2.3h3l-.9-2.3c.3.2.8.3 1.2.3 1.2 0 2.2-.9 2.2-2.2 0-1.5-1.4-2.7-3.4-4.6l-.6-.5Z" transform="matrix(1.5 0 0 1.5 72 72)" id="mdi-cards-playing-spade-multiple-outline" fill="#555"/><path d="M19 0H9C7.9 0 7 .9 7 2v16c0 1.1.9 2 2 2h10c1.1 0 2-.9 2-2V2c0-1.1-.9-2-2-2m0 18H9V2h10v16M3 4v18c0 1.1.9 2 2 2h12v-2H5V4H3m11 1.7-.6.5c-2 1.9-3.4 3.1-3.4 4.6 0 1.2 1 2.2 2.2 2.2.4 0 .8-.1 1.2-.3l-.9 2.3h3l-.9-2.3c.3.2.8.3 1.2.3 1.2 0 2.2-.9 2.2-2.2 0-1.5-1.4-2.7-3.4-4.6l-.6-.5Z" transform="matrix(1.5 0 0 1.5 108 72)" id="mdi-cards-playing-spade-multiple-outline" fill="#fff"/><path d="M17 2H7c-1.1 0-2 .9-2 2v16c0 1.1.9 2 2 2h10c1.1 0 2-.9 2-2V4c0-1.1-.9-2-2-2m0 18H7V4h10v16M12 7.7l-.6.5c-2 1.9-3.4 3.1-3.4 4.6C8 14 9 15 10.2 15c.4 0 .8-.1 1.2-.3l-.9 2.3h3l-.9-2.3c.3.2.8.3 1.2.3 1.2 0 2.2-.9 2.2-2.2 0-1.5-1.4-2.7-3.4-4.6l-.6-.5Z" transform="matrix(1.5 0 0 1.5 144 72)" id="mdi-cards-playing-spade-outline" fill="#555"/><path d="M17 2H7c-1.1 0-2 .9-2 2v16c0 1.1.9 2 2 2h10c1.1 0 2-.9 2-2V4c0-1.1-.9-2-2-2m0 18H7V4h10v16M12 7.7l-.6.5c-2 1.9-3.4 3.1-3.4 4.6C8 14 9 15 10.2 15c.4 0 .8-.1 1.2-.3l-.9 2.3h3l-.9-2.3c.3.2.8.3 1.2.3 1.2 0 2.2-.9 2.2-2.2 0-1.5-1.4-2.7-3.4-4.6l-.6-.5Z" transform="matrix(1.5 0 0 1.5 180 72)" id="mdi-cards-playing-spade-outline" fill="#fff"/><path d="M12 2C9 7 4 9 4 14c0 2 2 4 4 4 1 0 2 0 3-1 0 0 .32 2-2 5h6c-2-3-2-5-2-5 1 1 2 1 3 1 2 0 4-2 4-4 0-5-5-7-8-12Z" transform="matrix(1.5 0 0 1.5 216 72)" id="mdi-cards-spade" fill="#555"/><path d="M12 2C9 7 4 9 4 14c0 2 2 4 4 4 1 0 2 0 3-1 0 0 .32 2-2 5h6c-2-3-2-5-2-5 1 1 2 1 3 1 2 0 4-2 4-4 0-5-5-7-8-12Z" transform="matrix(1.5 0 0 1.5 252 72)" id="mdi-cards-spade" fill="#fff"/><path d="M11 17s.3 2-2 5h6c-2.3-3-2-5-2-5s1 1 3 1 4-2 4-4c0-5-5-7-8-12-3 5-8 7-8 12 0 2 2 4 4 4s3-1 3-1m2-3h-2s-1 2-3 2c-.9 0-2-1.1-2-2-.2-3 3.9-5.8 6-8.6 2.1 2.7 6.2 5.5 6 8.6 0 .9-1.1 2-2 2-2 0-3-2-3-2Z" transform="matrix(1.5 0 0 1.5 288 72)" id="mdi-cards-spade-outline" fill="#555"/><path d="M11 17s.3 2-2 5h6c-2.3-3-2-5-2-5s1 1 3 1 4-2 4-4c0-5-5-7-8-12-3 5-8 7-8 12 0 2 2 4 4 4s3-1 3-1m2-3h-2s-1 2-3 2c-.9 0-2-1.1-2-2-.2-3 3.9-5.8 6-8.6 2.1 2.7 6.2 5.5 6 8.6 0 .9-1.1 2-2 2-2 0-3-2-3-2Z" transform="matrix(1.5 0 0 1.5 324 72)" id="mdi-cards-spade-outline" fill="#fff"/><path d="M5 2h14a1 1 0 0 1 1 1v10a1 1 0 0 1-1 1H5a1 1 0 0 1-1-1V3a1 1 0 0 1 1-1m1 2v8h12V4H6m14 13a1 1 0 0 1-1 1H5a1 1 0 0 1-1-1v-1h16v1m0 4a1 1 0 0 1-1 1H5a1 1 0 0 1-1-1v-1h16v1Z" transform="matrix(1.5 0 0 1.5 360 72)" id="mdi-cards-variant" fill="#555"/><path d="M5 2h14a1 1 0 0 1 1 1v10a1 1 0 0 1-1 1H5a1 1 0 0 1-1-1V3a1 1 0 0 1 1-1m1 2v8h12V4H6m14 13a1 1 0 0 1-1 1H5a1 1 0 0 1-1-1v-1h16v1m0 4a1 1 0 0 1-1 1H5a1 1 0 0 1-1-1v-1h16v1Z" transform="matrix(1.5 0 0 1.5 396 72)" id="mdi-cards-variant" fill="#fff"/><path d="m16 10-.2 1h-2.3a.5.5 0 0 0-.5.5.5.5 0 0 0 .5.5h2.1l-1 5h-2.1a.5.5 0 0 0-.5.5.5.5 0 0 0 .5.5h1.9l-.4 2a2 2 0 0 1-2 2 2 2 0 0 1-2-2l-1-5h1.5a.5.5 0 0 0 .5-.5.5.5 0 0 0-.5-.5H8.8L8 10c0-1.2.93-2.23 2.29-2.71L8.9 5.28a.997.997 0 0 1 .26-1.39.998.998 0 0 1 1.39.25l.45.66V3a1 1 0 0 1 1-1 1 1 0 0 1 1 1v2.28l1.5-1.74c.33-.42.97-.47 1.39-.11.42.35.47.98.11 1.41l-2.13 2.51C15.14 7.85 16 8.85 16 10Z" transform="matrix(1.5 0 0 1.5 432 72)" id="mdi-carrot" fill="#555"/><path d="m16 10-.2 1h-2.3a.5.5 0 0 0-.5.5.5.5 0 0 0 .5.5h2.1l-1 5h-2.1a.5.5 0 0 0-.5.5.5.5 0 0 0 .5.5h1.9l-.4 2a2 2 0 0 1-2 2 2 2 0 0 1-2-2l-1-5h1.5a.5.5 0 0 0 .5-.5.5.5 0 0 0-.5-.5H8.8L8 10c0-1.2.93-2.23 2.29-2.71L8.9 5.28a.997.997 0 0 1 .26-1.39.998.998 0 0 1 1.39.25l.45.66V3a1 1 0 0 1 1-1 1 1 0 0 1 1 1v2.28l1.5-1.74c.33-.42.97-.47 1.39-.11.42.35.47.98.11 1.41l-2.13 2.51C15.14 7.85 16 8.85 16 10Z" transform="matrix(1.5 0 0 1.5 468 72)" id="mdi-carrot" fill="#fff"/><path d="M17 18c-1.11 0-2 .89-2 2a2 2 0 0 0 2 2 2 2 0 0 0 2-2 2 2 0 0 0-2-2M1 2v2h2l3.6 7.59-1.36 2.45c-.15.28-.24.61-.24.96a2 2 0 0 0 2 2h12v-2H7.42a.25.25 0 0 1-.25-.25c0-.05.01-.09.03-.12L8.1 13h7.45c.75 0 1.41-.42 1.75-1.03l3.58-6.47c.07-.16.12-.33.12-.5a1 1 0 0 0-1-1H5.21l-.94-2M7 18c-1.11 0-2 .89-2 2a2 2 0 0 0 2 2 2 2 0 0 0 2-2 2 2 0 0 0-2-2Z" transform="matrix(1.5 0 0 1.5 504 72)" id="mdi-cart" fill="#555"/><path d="M17 18c-1.11 0-2 .89-2 2a2 2 0 0 0 2 2 2 2 0 0 0 2-2 2 2 0 0 0-2-2M1 2v2h2l3.6 7.59-1.36 2.45c-.15.28-.24.61-.24.96a2 2 0 0 0 2 2h12v-2H7.42a.25.25 0 0 1-.25-.25c0-.05.01-.09.03-.12L8.1 13h7.45c.75 0 1.41-.42 1.75-1.03l3.58-6.47c.07-.16.12-.33.12-.5a1 1 0 0 0-1-1H5.21l-.94-2M7 18c-1.11 0-2 .89-2 2a2 2 0 0 0 2 2 2 2 0 0 0 2-2 2 2 0 0 0-2-2Z" transform="matrix(1.5 0 0 1.5 540 72)" id="mdi-cart" fill="#fff"/><path d="M10 0v4H8l4 4 4-4h-2V0M1 2v2h2l3.6 7.59-1.35 2.45c-.16.28-.25.61-.25.96a2 2 0 0 0 2 2h12v-2H7.42c-.13 0-.25-.11-.25-.25l.03-.12.9-1.63h7.45c.75 0 1.41-.41 1.75-1.03l3.86-7.01L19.42 4h-.01l-1.1 2-2.76 5H8.53l-.13-.27L6.16 6l-.95-2-.94-2M7 18a2 2 0 0 0-2 2 2 2 0 0 0 2 2 2 2 0 0 0 2-2 2 2 0 0 0-2-2m10 0a2 2 0 0 0-2 2 2 2 0 0 0 2 2 2 2 0 0 0 2-2 2 2 0 0 0-2-2Z" transform="matrix(1.5 0 0 1.5 576 72)" id="mdi-cart-arrow-down" fill="#555"/><path d="M10 0v4H8l4 4 4-4h-2V0M1 2v2h2l3.6 7.59-1.35 2.45c-.16.28-.25.61-.25.96a2 2 0 0 0 2 2h12v-2H7.42c-.13 0-.25-.11-.25-.25l.03-.12.9-1.63h7.45c.75 0 1.41-.41 1.75-1.03l3.86-7.01L19.42 4h-.01l-1.1 2-2.76 5H8.53l-.13-.27L6.16 6l-.95-2-.94-2M7 18a2 2 0 0 0-2 2 2 2 0 0 0 2 2 2 2 0 0 0 2-2 2 2 0 0 0-2-2m10 0a2 2 0 0 0-2 2 2 2 0 0 0 2 2 2 2 0 0 0 2-2 2 2 0 0 0-2-2Z" transform="matrix(1.5 0 0 1.5 612 72)" id="mdi-cart-arrow-down" fill="#fff"/><path d="M9 20a2 2 0 0 1-2 2 2 2 0 0 1-2-2 2 2 0 0 1 2-2 2 2 0 0 1 2 2m8-2a2 2 0 0 0-2 2 2 2 0 0 0 2 2 2 2 0 0 0 2-2 2 2 0 0 0-2-2m-9.8-3.37c-.01.04-.01.08 0 .12a.25.25 0 0 0 .25.25H19v2H7a2 2 0 0 1-2-2c0-.35.07-.69.24-1l1.36-2.41L3 4H1V2h3.27l.94 2H20a1 1 0 0 1 1 1c0 .17-.05.34-.12.5L17.3 12c-.36.62-1.03 1-1.75 1H8.1l-.9 1.63M9 9.5h4v2l3-3-3-3v2H9v2Z" transform="matrix(1.5 0 0 1.5 648 72)" id="mdi-cart-arrow-right" fill="#555"/><path d="M9 20a2 2 0 0 1-2 2 2 2 0 0 1-2-2 2 2 0 0 1 2-2 2 2 0 0 1 2 2m8-2a2 2 0 0 0-2 2 2 2 0 0 0 2 2 2 2 0 0 0 2-2 2 2 0 0 0-2-2m-9.8-3.37c-.01.04-.01.08 0 .12a.25.25 0 0 0 .25.25H19v2H7a2 2 0 0 1-2-2c0-.35.07-.69.24-1l1.36-2.41L3 4H1V2h3.27l.94 2H20a1 1 0 0 1 1 1c0 .17-.05.34-.12.5L17.3 12c-.36.62-1.03 1-1.75 1H8.1l-.9 1.63M9 9.5h4v2l3-3-3-3v2H9v2Z" transform="matrix(1.5 0 0 1.5 684 72)" id="mdi-cart-arrow-right" fill="#fff"/><path d="M12 0 8 4h2v4h4V4h2M1 2v2h2l3.6 7.59-1.35 2.45c-.16.28-.25.61-.25.96a2 2 0 0 0 2 2h12v-2H7.42c-.13 0-.25-.11-.25-.25l.03-.12.9-1.63h7.45c.75 0 1.41-.41 1.75-1.03l3.86-7.01L19.42 4h-.01l-1.1 2-2.76 5H8.53l-.13-.27L6.16 6l-.95-2-.94-2M7 18a2 2 0 0 0-2 2 2 2 0 0 0 2 2 2 2 0 0 0 2-2 2 2 0 0 0-2-2m10 0a2 2 0 0 0-2 2 2 2 0 0 0 2 2 2 2 0 0 0 2-2 2 2 0 0 0-2-2Z" transform="matrix(1.5 0 0 1.5 0 108)" id="mdi-cart-arrow-up" fill="#555"/><path d="M12 0 8 4h2v4h4V4h2M1 2v2h2l3.6 7.59-1.35 2.45c-.16.28-.25.61-.25.96a2 2 0 0 0 2 2h12v-2H7.42c-.13 0-.25-.11-.25-.25l.03-.12.9-1.63h7.45c.75 0 1.41-.41 1.75-1.03l3.86-7.01L19.42 4h-.01l-1.1 2-2.76 5H8.53l-.13-.27L6.16 6l-.95-2-.94-2M7 18a2 2 0 0 0-2 2 2 2 0 0 0 2 2 2 2 0 0 0 2-2 2 2 0 0 0-2-2m10 0a2 2 0 0 0-2 2 2 2 0 0 0 2 2 2 2 0 0 0 2-2 2 2 0 0 0-2-2Z" transform="matrix(1.5 0 0 1.5 36 108)" id="mdi-cart-arrow-up" fill="#fff"/><path d="M9 20c0 1.11-.89 2-2 2s-2-.89-2-2 .9-2 2-2 2 .9 2 2m8-2c-1.1 0-2 .9-2 2s.9 2 2 2 2-.89 2-2-.89-2-2-2m-9.83-3.25.03-.12.9-1.63h7.45c.75 0 1.41-.41 1.75-1.03l3.86-7.01L19.42 4h-.01l-1.1 2-2.76 5H8.53l-.13-.27L6.16 6l-.95-2-.94-2H1v2h2l3.6 7.59-1.35 2.45c-.16.28-.25.61-.25.96a2 2 0 0 0 2 2h12v-2H7.42c-.13 0-.25-.11-.25-.25M18 2.76l-1.41-1.42-4.84 4.84-2.59-2.59L7.75 5l4 4L18 2.76Z" transform="matrix(1.5 0 0 1.5 72 108)" id="mdi-cart-check" fill="#555"/><path d="M9 20c0 1.11-.89 2-2 2s-2-.89-2-2 .9-2 2-2 2 .9 2 2m8-2c-1.1 0-2 .9-2 2s.9 2 2 2 2-.89 2-2-.89-2-2-2m-9.83-3.25.03-.12.9-1.63h7.45c.75 0 1.41-.41 1.75-1.03l3.86-7.01L19.42 4h-.01l-1.1 2-2.76 5H8.53l-.13-.27L6.16 6l-.95-2-.94-2H1v2h2l3.6 7.59-1.35 2.45c-.16.28-.25.61-.25.96a2 2 0 0 0 2 2h12v-2H7.42c-.13 0-.25-.11-.25-.25M18 2.76l-1.41-1.42-4.84 4.84-2.59-2.59L7.75 5l4 4L18 2.76Z" transform="matrix(1.5 0 0 1.5 108 108)" id="mdi-cart-check" fill="#fff"/><path d="M9 20c0 1.11-.89 2-2 2s-2-.89-2-2 .9-2 2-2 2 .9 2 2m8-2c-1.1 0-2 .9-2 2s.9 2 2 2 2-.89 2-2-.89-2-2-2m-9.83-3.25.03-.12.9-1.63h7.45c.75 0 1.41-.41 1.75-1.03l3.86-7.01L19.42 4h-.01l-1.1 2-2.76 5H8.53l-.13-.27L6.16 6l-.95-2-.94-2H1v2h2l3.6 7.59-1.35 2.45c-.16.28-.25.61-.25.96a2 2 0 0 0 2 2h12v-2H7.42c-.13 0-.25-.11-.25-.25M12 9.3l-.6-.5C9.4 6.9 8 5.7 8 4.2 8 3 9 2 10.2 2c.7 0 1.4.3 1.8.8.4-.5 1.1-.8 1.8-.8C15 2 16 2.9 16 4.2c0 1.5-1.4 2.7-3.4 4.6l-.6.5Z" transform="matrix(1.5 0 0 1.5 144 108)" id="mdi-cart-heart" fill="#555"/><path d="M9 20c0 1.11-.89 2-2 2s-2-.89-2-2 .9-2 2-2 2 .9 2 2m8-2c-1.1 0-2 .9-2 2s.9 2 2 2 2-.89 2-2-.89-2-2-2m-9.83-3.25.03-.12.9-1.63h7.45c.75 0 1.41-.41 1.75-1.03l3.86-7.01L19.42 4h-.01l-1.1 2-2.76 5H8.53l-.13-.27L6.16 6l-.95-2-.94-2H1v2h2l3.6 7.59-1.35 2.45c-.16.28-.25.61-.25.96a2 2 0 0 0 2 2h12v-2H7.42c-.13 0-.25-.11-.25-.25M12 9.3l-.6-.5C9.4 6.9 8 5.7 8 4.2 8 3 9 2 10.2 2c.7 0 1.4.3 1.8.8.4-.5 1.1-.8 1.8-.8C15 2 16 2.9 16 4.2c0 1.5-1.4 2.7-3.4 4.6l-.6.5Z" transform="matrix(1.5 0 0 1.5 180 108)" id="mdi-cart-heart" fill="#fff"/><path d="M16 6V4H8v2M7 18a2 2 0 0 0-2 2 2 2 0 0 0 2 2 2 2 0 0 0 2-2 2 2 0 0 0-2-2m10 0a2 2 0 0 0-2 2 2 2 0 0 0 2 2 2 2 0 0 0 2-2 2 2 0 0 0-2-2m-9.83-3.25.03-.12.9-1.63h7.45c.75 0 1.41-.41 1.75-1.03l3.86-7.01L19.42 4h-.01l-1.1 2-2.76 5H8.53l-.13-.27L6.16 6l-.95-2-.94-2H1v2h2l3.6 7.59-1.35 2.45c-.16.28-.25.61-.25.96a2 2 0 0 0 2 2h12v-2H7.42c-.13 0-.25-.11-.25-.25Z" transform="matrix(1.5 0 0 1.5 216 108)" id="mdi-cart-minus" fill="#555"/><path d="M16 6V4H8v2M7 18a2 2 0 0 0-2 2 2 2 0 0 0 2 2 2 2 0 0 0 2-2 2 2 0 0 0-2-2m10 0a2 2 0 0 0-2 2 2 2 0 0 0 2 2 2 2 0 0 0 2-2 2 2 0 0 0-2-2m-9.83-3.25.03-.12.9-1.63h7.45c.75 0 1.41-.41 1.75-1.03l3.86-7.01L19.42 4h-.01l-1.1 2-2.76 5H8.53l-.13-.27L6.16 6l-.95-2-.94-2H1v2h2l3.6 7.59-1.35 2.45c-.16.28-.25.61-.25.96a2 2 0 0 0 2 2h12v-2H7.42c-.13 0-.25-.11-.25-.25Z" transform="matrix(1.5 0 0 1.5 252 108)" id="mdi-cart-minus" fill="#fff"/><path d="M22.73 22.73 1.27 1.27 0 2.54l4.39 4.39 2.21 4.66-1.35 2.45c-.16.28-.25.61-.25.96a2 2 0 0 0 2 2h7.46l1.38 1.38c-.5.36-.84.95-.84 1.62a2 2 0 0 0 2 2c.67 0 1.26-.33 1.62-.84L21.46 24l1.27-1.27M7.42 15a.25.25 0 0 1-.25-.25l.03-.12.9-1.63h2.36l2 2H7.42m8.13-2c.75 0 1.41-.41 1.75-1.03l3.58-6.47c.08-.16.12-.33.12-.5a1 1 0 0 0-1-1H6.54l9.01 9M7 18a2 2 0 0 0-2 2 2 2 0 0 0 2 2 2 2 0 0 0 2-2 2 2 0 0 0-2-2Z" transform="matrix(1.5 0 0 1.5 288 108)" id="mdi-cart-off" fill="#555"/><path d="M22.73 22.73 1.27 1.27 0 2.54l4.39 4.39 2.21 4.66-1.35 2.45c-.16.28-.25.61-.25.96a2 2 0 0 0 2 2h7.46l1.38 1.38c-.5.36-.84.95-.84 1.62a2 2 0 0 0 2 2c.67 0 1.26-.33 1.62-.84L21.46 24l1.27-1.27M7.42 15a.25.25 0 0 1-.25-.25l.03-.12.9-1.63h2.36l2 2H7.42m8.13-2c.75 0 1.41-.41 1.75-1.03l3.58-6.47c.08-.16.12-.33.12-.5a1 1 0 0 0-1-1H6.54l9.01 9M7 18a2 2 0 0 0-2 2 2 2 0 0 0 2 2 2 2 0 0 0 2-2 2 2 0 0 0-2-2Z" transform="matrix(1.5 0 0 1.5 324 108)" id="mdi-cart-off" fill="#fff"/><path d="M17 18a2 2 0 0 1 2 2 2 2 0 0 1-2 2 2 2 0 0 1-2-2c0-1.11.89-2 2-2M1 2h3.27l.94 2H20a1 1 0 0 1 1 1c0 .17-.05.34-.12.5l-3.58 6.47c-.34.61-1 1.03-1.75 1.03H8.1l-.9 1.63-.03.12a.25.25 0 0 0 .25.25H19v2H7a2 2 0 0 1-2-2c0-.35.09-.68.24-.96l1.36-2.45L3 4H1V2m6 16a2 2 0 0 1 2 2 2 2 0 0 1-2 2 2 2 0 0 1-2-2c0-1.11.89-2 2-2m9-7 2.78-5H6.14l2.36 5H16Z" transform="matrix(1.5 0 0 1.5 360 108)" id="mdi-cart-outline" fill="#555"/><path d="M17 18a2 2 0 0 1 2 2 2 2 0 0 1-2 2 2 2 0 0 1-2-2c0-1.11.89-2 2-2M1 2h3.27l.94 2H20a1 1 0 0 1 1 1c0 .17-.05.34-.12.5l-3.58 6.47c-.34.61-1 1.03-1.75 1.03H8.1l-.9 1.63-.03.12a.25.25 0 0 0 .25.25H19v2H7a2 2 0 0 1-2-2c0-.35.09-.68.24-.96l1.36-2.45L3 4H1V2m6 16a2 2 0 0 1 2 2 2 2 0 0 1-2 2 2 2 0 0 1-2-2c0-1.11.89-2 2-2m9-7 2.78-5H6.14l2.36 5H16Z" transform="matrix(1.5 0 0 1.5 396 108)" id="mdi-cart-outline" fill="#fff"/><path d="M11 9h2V6h3V4h-3V1h-2v3H8v2h3M7 18a2 2 0 0 0-2 2 2 2 0 0 0 2 2 2 2 0 0 0 2-2 2 2 0 0 0-2-2m10 0a2 2 0 0 0-2 2 2 2 0 0 0 2 2 2 2 0 0 0 2-2 2 2 0 0 0-2-2m-9.83-3.25.03-.12.9-1.63h7.45c.75 0 1.41-.41 1.75-1.03l3.86-7.01L19.42 4h-.01l-1.1 2-2.76 5H8.53l-.13-.27L6.16 6l-.95-2-.94-2H1v2h2l3.6 7.59-1.35 2.45c-.16.28-.25.61-.25.96a2 2 0 0 0 2 2h12v-2H7.42c-.13 0-.25-.11-.25-.25Z" transform="matrix(1.5 0 0 1.5 432 108)" id="mdi-cart-plus" fill="#555"/><path d="M11 9h2V6h3V4h-3V1h-2v3H8v2h3M7 18a2 2 0 0 0-2 2 2 2 0 0 0 2 2 2 2 0 0 0 2-2 2 2 0 0 0-2-2m10 0a2 2 0 0 0-2 2 2 2 0 0 0 2 2 2 2 0 0 0 2-2 2 2 0 0 0-2-2m-9.83-3.25.03-.12.9-1.63h7.45c.75 0 1.41-.41 1.75-1.03l3.86-7.01L19.42 4h-.01l-1.1 2-2.76 5H8.53l-.13-.27L6.16 6l-.95-2-.94-2H1v2h2l3.6 7.59-1.35 2.45c-.16.28-.25.61-.25.96a2 2 0 0 0 2 2h12v-2H7.42c-.13 0-.25-.11-.25-.25Z" transform="matrix(1.5 0 0 1.5 468 108)" id="mdi-cart-plus" fill="#fff"/><path d="M14.12 8.53 12 6.41 9.88 8.54 8.46 7.12 10.59 5 8.47 2.88l1.41-1.41L12 3.59l2.12-2.13 1.42 1.42L13.41 5l2.12 2.12-1.41 1.41M7 18a2 2 0 0 1 2 2 2 2 0 0 1-2 2 2 2 0 0 1-2-2 2 2 0 0 1 2-2m10 0a2 2 0 0 1 2 2 2 2 0 0 1-2 2 2 2 0 0 1-2-2 2 2 0 0 1 2-2m-9.83-3.25a.25.25 0 0 0 .25.25H19v2H7a2 2 0 0 1-2-2c0-.35.09-.68.25-.96l1.35-2.45L3 4H1V2h3.27l.94 2 .95 2 2.24 4.73.13.27h7.02l2.76-5 1.1-2h.01l1.74.96-3.86 7.01c-.34.62-1 1.03-1.75 1.03H8.1l-.9 1.63-.03.12Z" transform="matrix(1.5 0 0 1.5 504 108)" id="mdi-cart-remove" fill="#555"/><path d="M14.12 8.53 12 6.41 9.88 8.54 8.46 7.12 10.59 5 8.47 2.88l1.41-1.41L12 3.59l2.12-2.13 1.42 1.42L13.41 5l2.12 2.12-1.41 1.41M7 18a2 2 0 0 1 2 2 2 2 0 0 1-2 2 2 2 0 0 1-2-2 2 2 0 0 1 2-2m10 0a2 2 0 0 1 2 2 2 2 0 0 1-2 2 2 2 0 0 1-2-2 2 2 0 0 1 2-2m-9.83-3.25a.25.25 0 0 0 .25.25H19v2H7a2 2 0 0 1-2-2c0-.35.09-.68.25-.96l1.35-2.45L3 4H1V2h3.27l.94 2 .95 2 2.24 4.73.13.27h7.02l2.76-5 1.1-2h.01l1.74.96-3.86 7.01c-.34.62-1 1.03-1.75 1.03H8.1l-.9 1.63-.03.12Z" transform="matrix(1.5 0 0 1.5 540 108)" id="mdi-cart-remove" fill="#fff"/><path d="M19 20c0 1.11-.89 2-2 2a2 2 0 0 1-2-2c0-1.11.89-2 2-2a2 2 0 0 1 2 2M7 18c-1.11 0-2 .89-2 2a2 2 0 0 0 2 2c1.11 0 2-.89 2-2s-.89-2-2-2m.2-3.37-.03.12c0 .14.11.25.25.25H19v2H7a2 2 0 0 1-2-2c0-.35.09-.68.24-.96l1.36-2.45L3 4H1V2h3.27l.94 2H20c.55 0 1 .45 1 1 0 .17-.05.34-.12.5l-3.58 6.47c-.34.61-1 1.03-1.75 1.03H8.1l-.9 1.63M8.5 11H10V9H7.56l.94 2M11 9v2h3V9h-3m3-1V6h-3v2h3m3.11 1H15v2h1l1.11-2m1.67-3H15v2h2.67l1.11-2M6.14 6l.94 2H10V6H6.14Z" transform="matrix(1.5 0 0 1.5 576 108)" id="mdi-cart-variant" fill="#555"/><path d="M19 20c0 1.11-.89 2-2 2a2 2 0 0 1-2-2c0-1.11.89-2 2-2a2 2 0 0 1 2 2M7 18c-1.11 0-2 .89-2 2a2 2 0 0 0 2 2c1.11 0 2-.89 2-2s-.89-2-2-2m.2-3.37-.03.12c0 .14.11.25.25.25H19v2H7a2 2 0 0 1-2-2c0-.35.09-.68.24-.96l1.36-2.45L3 4H1V2h3.27l.94 2H20c.55 0 1 .45 1 1 0 .17-.05.34-.12.5l-3.58 6.47c-.34.61-1 1.03-1.75 1.03H8.1l-.9 1.63M8.5 11H10V9H7.56l.94 2M11 9v2h3V9h-3m3-1V6h-3v2h3m3.11 1H15v2h1l1.11-2m1.67-3H15v2h2.67l1.11-2M6.14 6l.94 2H10V6H6.14Z" transform="matrix(1.5 0 0 1.5 612 108)" id="mdi-cart-variant" fill="#fff"/><path d="M20 14c0-1.5-.5-2-2-2h-2v-1c0-1 0-1-2-1v9h4c1.5 0 2-.53 2-2v-3m-8-2c0-1.5-.53-2-2-2H6c-1.5 0-2 .5-2 2v7h2v-3h4v3h2v-7m-2-5h4V5h-4v2m12 2v11c0 1.11-.89 2-2 2H4a2 2 0 0 1-2-2V9c0-1.11.89-2 2-2h4V5l2-2h4l2 2v2h4a2 2 0 0 1 2 2m-6 8h2v-3h-2v3M6 12h4v2H6v-2Z" transform="matrix(1.5 0 0 1.5 648 108)" id="mdi-case-sensitive-alt" fill="#555"/><path d="M20 14c0-1.5-.5-2-2-2h-2v-1c0-1 0-1-2-1v9h4c1.5 0 2-.53 2-2v-3m-8-2c0-1.5-.53-2-2-2H6c-1.5 0-2 .5-2 2v7h2v-3h4v3h2v-7m-2-5h4V5h-4v2m12 2v11c0 1.11-.89 2-2 2H4a2 2 0 0 1-2-2V9c0-1.11.89-2 2-2h4V5l2-2h4l2 2v2h4a2 2 0 0 1 2 2m-6 8h2v-3h-2v3M6 12h4v2H6v-2Z" transform="matrix(1.5 0 0 1.5 684 108)" id="mdi-case-sensitive-alt" fill="#fff"/><path d="M3 6h18v12H3V6m9 3a3 3 0 0 1 3 3 3 3 0 0 1-3 3 3 3 0 0 1-3-3 3 3 0 0 1 3-3M7 8a2 2 0 0 1-2 2v4a2 2 0 0 1 2 2h10a2 2 0 0 1 2-2v-4a2 2 0 0 1-2-2H7Z" transform="matrix(1.5 0 0 1.5 0 144)" id="mdi-cash" fill="#555"/><path d="M3 6h18v12H3V6m9 3a3 3 0 0 1 3 3 3 3 0 0 1-3 3 3 3 0 0 1-3-3 3 3 0 0 1 3-3M7 8a2 2 0 0 1-2 2v4a2 2 0 0 1 2 2h10a2 2 0 0 1 2-2v-4a2 2 0 0 1-2-2H7Z" transform="matrix(1.5 0 0 1.5 36 144)" id="mdi-cash" fill="#fff"/><path d="M2 5h20v15H2V5m18 13V7H4v11h16M17 8a2 2 0 0 0 2 2v5a2 2 0 0 0-2 2H7a2 2 0 0 0-2-2v-5a2 2 0 0 0 2-2h10m0 5v-1c0-1.1-.67-2-1.5-2s-1.5.9-1.5 2v1c0 1.1.67 2 1.5 2s1.5-.9 1.5-2m-1.5-2a.5.5 0 0 1 .5.5v2a.5.5 0 0 1-.5.5.5.5 0 0 1-.5-.5v-2a.5.5 0 0 1 .5-.5M13 13v-1c0-1.1-.67-2-1.5-2s-1.5.9-1.5 2v1c0 1.1.67 2 1.5 2s1.5-.9 1.5-2m-1.5-2a.5.5 0 0 1 .5.5v2a.5.5 0 0 1-.5.5.5.5 0 0 1-.5-.5v-2a.5.5 0 0 1 .5-.5M8 15h1v-5H8l-1 .5v1l1-.5v4Z" transform="matrix(1.5 0 0 1.5 72 144)" id="mdi-cash-100" fill="#555"/><path d="M2 5h20v15H2V5m18 13V7H4v11h16M17 8a2 2 0 0 0 2 2v5a2 2 0 0 0-2 2H7a2 2 0 0 0-2-2v-5a2 2 0 0 0 2-2h10m0 5v-1c0-1.1-.67-2-1.5-2s-1.5.9-1.5 2v1c0 1.1.67 2 1.5 2s1.5-.9 1.5-2m-1.5-2a.5.5 0 0 1 .5.5v2a.5.5 0 0 1-.5.5.5.5 0 0 1-.5-.5v-2a.5.5 0 0 1 .5-.5M13 13v-1c0-1.1-.67-2-1.5-2s-1.5.9-1.5 2v1c0 1.1.67 2 1.5 2s1.5-.9 1.5-2m-1.5-2a.5.5 0 0 1 .5.5v2a.5.5 0 0 1-.5.5.5.5 0 0 1-.5-.5v-2a.5.5 0 0 1 .5-.5M8 15h1v-5H8l-1 .5v1l1-.5v4Z" transform="matrix(1.5 0 0 1.5 108 144)" id="mdi-cash-100" fill="#fff"/><path d="M3 6v12h10.32a6.38 6.38 0 0 1-.32-2H7a2 2 0 0 0-2-2v-4c1.11 0 2-.89 2-2h10a2 2 0 0 0 2 2v.06c.67 0 1.34.12 2 .34V6H3m9 3c-1.7.03-3 1.3-3 3s1.3 2.94 3 3c.38 0 .77-.08 1.14-.23.27-1.1.72-2.14 1.83-3.16C14.85 10.28 13.59 8.97 12 9m9.63 3.27-3.87 3.9-1.35-1.37L15 16.22 17.75 19l5.28-5.32-1.4-1.41Z" transform="matrix(1.5 0 0 1.5 144 144)" id="mdi-cash-check" fill="#555"/><path d="M3 6v12h10.32a6.38 6.38 0 0 1-.32-2H7a2 2 0 0 0-2-2v-4c1.11 0 2-.89 2-2h10a2 2 0 0 0 2 2v.06c.67 0 1.34.12 2 .34V6H3m9 3c-1.7.03-3 1.3-3 3s1.3 2.94 3 3c.38 0 .77-.08 1.14-.23.27-1.1.72-2.14 1.83-3.16C14.85 10.28 13.59 8.97 12 9m9.63 3.27-3.87 3.9-1.35-1.37L15 16.22 17.75 19l5.28-5.32-1.4-1.41Z" transform="matrix(1.5 0 0 1.5 180 144)" id="mdi-cash-check" fill="#fff"/><path d="M17.12 9.88a2.997 2.997 0 1 0-4.24 4.24 2.997 2.997 0 1 0 4.24-4.24M7 6v12h16V6H7m14 8c-.53 0-1.04.21-1.41.59-.38.37-.59.88-.59 1.41h-8c0-.53-.21-1.04-.59-1.41-.37-.38-.88-.59-1.41-.59v-4c.53 0 1.04-.21 1.41-.59.38-.37.59-.88.59-1.41h8c0 .53.21 1.04.59 1.41.37.38.88.59 1.41.59v4M5 8H3c-.55 0-1-.45-1-1s.45-1 1-1h2v2m0 5H2c-.55 0-1-.45-1-1s.45-1 1-1h3v2m0 5H1c-.552 0-1-.45-1-1s.448-1 1-1h4v2Z" transform="matrix(1.5 0 0 1.5 216 144)" id="mdi-cash-fast" fill="#555"/><path d="M17.12 9.88a2.997 2.997 0 1 0-4.24 4.24 2.997 2.997 0 1 0 4.24-4.24M7 6v12h16V6H7m14 8c-.53 0-1.04.21-1.41.59-.38.37-.59.88-.59 1.41h-8c0-.53-.21-1.04-.59-1.41-.37-.38-.88-.59-1.41-.59v-4c.53 0 1.04-.21 1.41-.59.38-.37.59-.88.59-1.41h8c0 .53.21 1.04.59 1.41.37.38.88.59 1.41.59v4M5 8H3c-.55 0-1-.45-1-1s.45-1 1-1h2v2m0 5H2c-.55 0-1-.45-1-1s.45-1 1-1h3v2m0 5H1c-.552 0-1-.45-1-1s.448-1 1-1h4v2Z" transform="matrix(1.5 0 0 1.5 252 144)" id="mdi-cash-fast" fill="#fff"/><path d="M21.8 15c.6 0 1.2.6 1.2 1.3v3.5c0 .6-.6 1.2-1.3 1.2h-5.5c-.6 0-1.2-.6-1.2-1.3v-3.5c0-.6.6-1.2 1.2-1.2v-1.5c0-1.4 1.4-2.5 2.8-2.5s2.8 1.1 2.8 2.5V15m-1.3 0v-1.5c0-.8-.7-1.3-1.5-1.3s-1.5.5-1.5 1.3V15h3M2 6h18v3.1L19 9c-.82 0-1.59.2-2.27.54C16.28 9.18 16 8.62 16 8H6c0 1.11-.89 2-2 2v4a2 2 0 0 1 2 2h7.04l-.04.5V18H2V6m9 3c1.66 0 3 1.34 3 3s-1.34 3-3 3-3-1.34-3-3 1.34-3 3-3Z" transform="matrix(1.5 0 0 1.5 288 144)" id="mdi-cash-lock" fill="#555"/><path d="M21.8 15c.6 0 1.2.6 1.2 1.3v3.5c0 .6-.6 1.2-1.3 1.2h-5.5c-.6 0-1.2-.6-1.2-1.3v-3.5c0-.6.6-1.2 1.2-1.2v-1.5c0-1.4 1.4-2.5 2.8-2.5s2.8 1.1 2.8 2.5V15m-1.3 0v-1.5c0-.8-.7-1.3-1.5-1.3s-1.5.5-1.5 1.3V15h3M2 6h18v3.1L19 9c-.82 0-1.59.2-2.27.54C16.28 9.18 16 8.62 16 8H6c0 1.11-.89 2-2 2v4a2 2 0 0 1 2 2h7.04l-.04.5V18H2V6m9 3c1.66 0 3 1.34 3 3s-1.34 3-3 3-3-1.34-3-3 1.34-3 3-3Z" transform="matrix(1.5 0 0 1.5 324 144)" id="mdi-cash-lock" fill="#fff"/><path d="M21.8 16c.6 0 1.2.6 1.2 1.3v3.5c0 .6-.6 1.2-1.3 1.2h-5.5c-.6 0-1.2-.6-1.2-1.3v-3.5c0-.6.6-1.2 1.2-1.2v-2.5c0-1.4 1.4-2.5 2.8-2.5s2.8 1.1 2.8 2.5v.5h-1.3v-.5c0-.8-.7-1.3-1.5-1.3s-1.5.5-1.5 1.3V16h4.3M2 6h18v3.1L19 9c-.82 0-1.59.2-2.27.54C16.28 9.18 16 8.62 16 8H6c0 1.11-.89 2-2 2v4a2 2 0 0 1 2 2h7.04l-.04.5V18H2V6m9 3c1.66 0 3 1.34 3 3s-1.34 3-3 3-3-1.34-3-3 1.34-3 3-3Z" transform="matrix(1.5 0 0 1.5 360 144)" id="mdi-cash-lock-open" fill="#555"/><path d="M21.8 16c.6 0 1.2.6 1.2 1.3v3.5c0 .6-.6 1.2-1.3 1.2h-5.5c-.6 0-1.2-.6-1.2-1.3v-3.5c0-.6.6-1.2 1.2-1.2v-2.5c0-1.4 1.4-2.5 2.8-2.5s2.8 1.1 2.8 2.5v.5h-1.3v-.5c0-.8-.7-1.3-1.5-1.3s-1.5.5-1.5 1.3V16h4.3M2 6h18v3.1L19 9c-.82 0-1.59.2-2.27.54C16.28 9.18 16 8.62 16 8H6c0 1.11-.89 2-2 2v4a2 2 0 0 1 2 2h7.04l-.04.5V18H2V6m9 3c1.66 0 3 1.34 3 3s-1.34 3-3 3-3-1.34-3-3 1.34-3 3-3Z" transform="matrix(1.5 0 0 1.5 396 144)" id="mdi-cash-lock-open" fill="#fff"/><path d="M18.5 16.8c-.7 0-1.2-.6-1.2-1.2 0-.7.6-1.2 1.2-1.2s1.2.6 1.2 1.2c.1.6-.5 1.2-1.2 1.2m0-4.8c-1.9 0-3.5 1.6-3.5 3.5 0 2.6 3.5 6.5 3.5 6.5s3.5-3.9 3.5-6.5c0-1.9-1.6-3.5-3.5-3.5m-3.6-.7C14.6 10 13.4 9 12 9c-1.7 0-3 1.3-3 3s1.3 3 3 3c.4 0 .7-.1 1-.2.2-1.4.9-2.6 1.9-3.5M13 16H7a2 2 0 0 0-2-2v-4a2 2 0 0 0 2-2h10a2 2 0 0 0 2 2s1 0 2 .6V6H3v12h10.5c-.2-.7-.4-1.3-.5-2Z" transform="matrix(1.5 0 0 1.5 432 144)" id="mdi-cash-marker" fill="#555"/><path d="M18.5 16.8c-.7 0-1.2-.6-1.2-1.2 0-.7.6-1.2 1.2-1.2s1.2.6 1.2 1.2c.1.6-.5 1.2-1.2 1.2m0-4.8c-1.9 0-3.5 1.6-3.5 3.5 0 2.6 3.5 6.5 3.5 6.5s3.5-3.9 3.5-6.5c0-1.9-1.6-3.5-3.5-3.5m-3.6-.7C14.6 10 13.4 9 12 9c-1.7 0-3 1.3-3 3s1.3 3 3 3c.4 0 .7-.1 1-.2.2-1.4.9-2.6 1.9-3.5M13 16H7a2 2 0 0 0-2-2v-4a2 2 0 0 0 2-2h10a2 2 0 0 0 2 2s1 0 2 .6V6H3v12h10.5c-.2-.7-.4-1.3-.5-2Z" transform="matrix(1.5 0 0 1.5 468 144)" id="mdi-cash-marker" fill="#fff"/><path d="M15 15v2h8v-2m-8.03-3.39C14.85 10.28 13.59 8.97 12 9c-1.7.03-3 1.3-3 3s1.3 2.94 3 3c.38 0 .77-.08 1.14-.23.27-1.1.72-2.14 1.83-3.16M13 16H7a2 2 0 0 0-2-2v-4c1.11 0 2-.89 2-2h10a2 2 0 0 0 2 2v.06c.67 0 1.34.12 2 .34V6H3v12h10.32a6.38 6.38 0 0 1-.32-2Z" transform="matrix(1.5 0 0 1.5 504 144)" id="mdi-cash-minus" fill="#555"/><path d="M15 15v2h8v-2m-8.03-3.39C14.85 10.28 13.59 8.97 12 9c-1.7.03-3 1.3-3 3s1.3 2.94 3 3c.38 0 .77-.08 1.14-.23.27-1.1.72-2.14 1.83-3.16M13 16H7a2 2 0 0 0-2-2v-4c1.11 0 2-.89 2-2h10a2 2 0 0 0 2 2v.06c.67 0 1.34.12 2 .34V6H3v12h10.32a6.38 6.38 0 0 1-.32-2Z" transform="matrix(1.5 0 0 1.5 540 144)" id="mdi-cash-minus" fill="#fff"/><path d="M5 6h18v12H5V6m9 3a3 3 0 0 1 3 3 3 3 0 0 1-3 3 3 3 0 0 1-3-3 3 3 0 0 1 3-3M9 8a2 2 0 0 1-2 2v4a2 2 0 0 1 2 2h10a2 2 0 0 1 2-2v-4a2 2 0 0 1-2-2H9m-8 2h2v10h16v2H1V10Z" transform="matrix(1.5 0 0 1.5 576 144)" id="mdi-cash-multiple" fill="#555"/><path d="M5 6h18v12H5V6m9 3a3 3 0 0 1 3 3 3 3 0 0 1-3 3 3 3 0 0 1-3-3 3 3 0 0 1 3-3M9 8a2 2 0 0 1-2 2v4a2 2 0 0 1 2 2h10a2 2 0 0 1 2-2v-4a2 2 0 0 1-2-2H9m-8 2h2v10h16v2H1V10Z" transform="matrix(1.5 0 0 1.5 612 144)" id="mdi-cash-multiple" fill="#fff"/><path d="M15 15v2h3v3h2v-3h3v-2h-3v-3h-2v3m-3.03-3.39C14.85 10.28 13.59 8.97 12 9c-1.7.03-3 1.3-3 3s1.3 2.94 3 3c.38 0 .77-.08 1.14-.23.27-1.1.72-2.14 1.83-3.16M13 16H7a2 2 0 0 0-2-2v-4c1.11 0 2-.89 2-2h10a2 2 0 0 0 2 2v.06c.67 0 1.34.12 2 .34V6H3v12h10.32a6.38 6.38 0 0 1-.32-2Z" transform="matrix(1.5 0 0 1.5 648 144)" id="mdi-cash-plus" fill="#555"/><path d="M15 15v2h3v3h2v-3h3v-2h-3v-3h-2v3m-3.03-3.39C14.85 10.28 13.59 8.97 12 9c-1.7.03-3 1.3-3 3s1.3 2.94 3 3c.38 0 .77-.08 1.14-.23.27-1.1.72-2.14 1.83-3.16M13 16H7a2 2 0 0 0-2-2v-4c1.11 0 2-.89 2-2h10a2 2 0 0 0 2 2v.06c.67 0 1.34.12 2 .34V6H3v12h10.32a6.38 6.38 0 0 1-.32-2Z" transform="matrix(1.5 0 0 1.5 684 144)" id="mdi-cash-plus" fill="#fff"/><path d="M12.3 8.93 9.88 6.5h5.62V10H17V5H9.88l2.42-2.43-1.06-1.07L7 5.75 11.24 10l1.06-1.07M12 14a3 3 0 1 0 3 3 3 3 0 0 0-3-3m-9-3v12h18V11m-2 8a2 2 0 0 0-2 2H7a2 2 0 0 0-2-2v-4a2 2 0 0 0 2-2h10a2 2 0 0 0 2 2Z" transform="matrix(1.5 0 0 1.5 0 180)" id="mdi-cash-refund" fill="#555"/><path d="M12.3 8.93 9.88 6.5h5.62V10H17V5H9.88l2.42-2.43-1.06-1.07L7 5.75 11.24 10l1.06-1.07M12 14a3 3 0 1 0 3 3 3 3 0 0 0-3-3m-9-3v12h18V11m-2 8a2 2 0 0 0-2 2H7a2 2 0 0 0-2-2v-4a2 2 0 0 0 2-2h10a2 2 0 0 0 2 2Z" transform="matrix(1.5 0 0 1.5 36 180)" id="mdi-cash-refund" fill="#fff"/><path d="M2 17h20v4H2v-4M6.25 7H9V6H6V3h8v3h-3v1h6.8c1 0 2 1 2.2 2l.5 7h-17l.55-7c0-1 1-2 2.2-2M13 9v2h5V9h-5M6 9v1h2V9H6m3 0v1h2V9H9m-3 2v1h2v-1H6m3 0v1h2v-1H9m-3 2v1h2v-1H6m3 0v1h2v-1H9M7 4v1h6V4H7Z" transform="matrix(1.5 0 0 1.5 72 180)" id="mdi-cash-register" fill="#555"/><path d="M2 17h20v4H2v-4M6.25 7H9V6H6V3h8v3h-3v1h6.8c1 0 2 1 2.2 2l.5 7h-17l.55-7c0-1 1-2 2.2-2M13 9v2h5V9h-5M6 9v1h2V9H6m3 0v1h2V9H9m-3 2v1h2v-1H6m3 0v1h2v-1H9m-3 2v1h2v-1H6m3 0v1h2v-1H9M7 4v1h6V4H7Z" transform="matrix(1.5 0 0 1.5 108 180)" id="mdi-cash-register" fill="#fff"/><path d="m15.46 18.12 1.42 1.42L19 17.41l2.12 2.13 1.42-1.42L20.41 16l2.13-2.12-1.42-1.42L19 14.59l-2.12-2.13-1.42 1.42L17.59 16m-2.62-4.38C14.86 10.28 13.58 8.97 12 9c-1.7.04-3 1.3-3 3s1.3 2.94 3 3c.39 0 .77-.08 1.14-.23.27-1.1.72-2.14 1.83-3.15M13 16H7c0-1.1-.9-2-2-2v-4c1.1 0 2-.9 2-2h10c0 1.1.9 2 2 2v.05c.67.01 1.34.13 2 .35V6H3v12h10.32a6.38 6.38 0 0 1-.32-2Z" transform="matrix(1.5 0 0 1.5 144 180)" id="mdi-cash-remove" fill="#555"/><path d="m15.46 18.12 1.42 1.42L19 17.41l2.12 2.13 1.42-1.42L20.41 16l2.13-2.12-1.42-1.42L19 14.59l-2.12-2.13-1.42 1.42L17.59 16m-2.62-4.38C14.86 10.28 13.58 8.97 12 9c-1.7.04-3 1.3-3 3s1.3 2.94 3 3c.39 0 .77-.08 1.14-.23.27-1.1.72-2.14 1.83-3.15M13 16H7c0-1.1-.9-2-2-2v-4c1.1 0 2-.9 2-2h10c0 1.1.9 2 2 2v.05c.67.01 1.34.13 2 .35V6H3v12h10.32a6.38 6.38 0 0 1-.32-2Z" transform="matrix(1.5 0 0 1.5 180 180)" id="mdi-cash-remove" fill="#fff"/><path d="M4 5a2 2 0 0 0-2 2v10a2 2 0 0 0 2 2h2l1-2h10l1 2h2a2 2 0 0 0 2-2V7a2 2 0 0 0-2-2H4m2.5 5A1.5 1.5 0 0 1 8 11.5 1.5 1.5 0 0 1 6.5 13 1.5 1.5 0 0 1 5 11.5 1.5 1.5 0 0 1 6.5 10M9 10h6v3H9v-3m8.5 0a1.5 1.5 0 0 1 1.5 1.5 1.5 1.5 0 0 1-1.5 1.5 1.5 1.5 0 0 1-1.5-1.5 1.5 1.5 0 0 1 1.5-1.5Z" transform="matrix(1.5 0 0 1.5 216 180)" id="mdi-cassette" fill="#555"/><path d="M4 5a2 2 0 0 0-2 2v10a2 2 0 0 0 2 2h2l1-2h10l1 2h2a2 2 0 0 0 2-2V7a2 2 0 0 0-2-2H4m2.5 5A1.5 1.5 0 0 1 8 11.5 1.5 1.5 0 0 1 6.5 13 1.5 1.5 0 0 1 5 11.5 1.5 1.5 0 0 1 6.5 10M9 10h6v3H9v-3m8.5 0a1.5 1.5 0 0 1 1.5 1.5 1.5 1.5 0 0 1-1.5 1.5 1.5 1.5 0 0 1-1.5-1.5 1.5 1.5 0 0 1 1.5-1.5Z" transform="matrix(1.5 0 0 1.5 252 180)" id="mdi-cassette" fill="#fff"/><path d="M1 10v2a9 9 0 0 1 9 9h2c0-6.08-4.93-11-11-11m0 4v2a5 5 0 0 1 5 5h2a7 7 0 0 0-7-7m0 4v3h3a3 3 0 0 0-3-3M21 3H3c-1.11 0-2 .89-2 2v3h2V5h18v14h-7v2h7a2 2 0 0 0 2-2V5a2 2 0 0 0-2-2Z" transform="matrix(1.5 0 0 1.5 288 180)" id="mdi-cast" fill="#555"/><path d="M1 10v2a9 9 0 0 1 9 9h2c0-6.08-4.93-11-11-11m0 4v2a5 5 0 0 1 5 5h2a7 7 0 0 0-7-7m0 4v3h3a3 3 0 0 0-3-3M21 3H3c-1.11 0-2 .89-2 2v3h2V5h18v14h-7v2h7a2 2 0 0 0 2-2V5a2 2 0 0 0-2-2Z" transform="matrix(1.5 0 0 1.5 324 180)" id="mdi-cast" fill="#fff"/><path d="M2 11v2c5 0 9 4 9 9h2c0-6.1-4.9-11-11-11m18-9H10c-1.1 0-2 .9-2 2v6.5c1 .5 1.9 1.2 2.7 1.9.9-1.4 2.5-2.4 4.3-2.4 2.8 0 5 2.2 5 5s-2.2 5-5 5h-.2c.1.7.2 1.3.2 2h5c1.1 0 2-.9 2-2V4c0-1.1-.9-2-2-2m-5 6c-1.1 0-2-.9-2-2s.9-2 2-2 2 .9 2 2-.9 2-2 2m0 10c-.2 0-.5 0-.7-.1-.5-1.5-1.2-2.8-2.1-4 .4-1.1 1.5-2 2.8-2 1.7 0 3 1.3 3 3S16.7 18 15 18M2 15v2c2.8 0 5 2.2 5 5h2c0-3.9-3.1-7-7-7m0 4v3h3c0-1.7-1.3-3-3-3" transform="matrix(1.5 0 0 1.5 360 180)" id="mdi-cast-audio" fill="#555"/><path d="M2 11v2c5 0 9 4 9 9h2c0-6.1-4.9-11-11-11m18-9H10c-1.1 0-2 .9-2 2v6.5c1 .5 1.9 1.2 2.7 1.9.9-1.4 2.5-2.4 4.3-2.4 2.8 0 5 2.2 5 5s-2.2 5-5 5h-.2c.1.7.2 1.3.2 2h5c1.1 0 2-.9 2-2V4c0-1.1-.9-2-2-2m-5 6c-1.1 0-2-.9-2-2s.9-2 2-2 2 .9 2 2-.9 2-2 2m0 10c-.2 0-.5 0-.7-.1-.5-1.5-1.2-2.8-2.1-4 .4-1.1 1.5-2 2.8-2 1.7 0 3 1.3 3 3S16.7 18 15 18M2 15v2c2.8 0 5 2.2 5 5h2c0-3.9-3.1-7-7-7m0 4v3h3c0-1.7-1.3-3-3-3" transform="matrix(1.5 0 0 1.5 396 180)" id="mdi-cast-audio" fill="#fff"/><path d="M14.5 12a2.5 2.5 0 0 0-5 0c0 1 .59 1.84 1.43 2.25l-1.11 1.1A3.999 3.999 0 0 1 12 8a3.999 3.999 0 0 1 2.18 7.35l-1.1-1.1c.84-.41 1.42-1.25 1.42-2.25M12 2C6.5 2 2 6.5 2 12c0 3.06 1.38 5.8 3.54 7.63l1.07-1.06C4.71 17 3.5 14.64 3.5 12c0-4.69 3.81-8.5 8.5-8.5 4.69 0 8.5 3.81 8.5 8.5 0 2.64-1.21 5-3.11 6.57l1.07 1.06C20.62 17.79 22 15.06 22 12c0-5.5-4.5-10-10-10m7 10c0-3.87-3.13-7-7-7a6.995 6.995 0 0 0-4.32 12.5l1.07-1.07C7.39 15.42 6.5 13.82 6.5 12c0-3.03 2.47-5.5 5.5-5.5s5.5 2.47 5.5 5.5c0 1.82-.89 3.42-2.25 4.43l1.08 1.07A7.004 7.004 0 0 0 19 12M6 22h12l-6-6-6 6Z" transform="matrix(1.5 0 0 1.5 432 180)" id="mdi-cast-audio-variant" fill="#555"/><path d="M14.5 12a2.5 2.5 0 0 0-5 0c0 1 .59 1.84 1.43 2.25l-1.11 1.1A3.999 3.999 0 0 1 12 8a3.999 3.999 0 0 1 2.18 7.35l-1.1-1.1c.84-.41 1.42-1.25 1.42-2.25M12 2C6.5 2 2 6.5 2 12c0 3.06 1.38 5.8 3.54 7.63l1.07-1.06C4.71 17 3.5 14.64 3.5 12c0-4.69 3.81-8.5 8.5-8.5 4.69 0 8.5 3.81 8.5 8.5 0 2.64-1.21 5-3.11 6.57l1.07 1.06C20.62 17.79 22 15.06 22 12c0-5.5-4.5-10-10-10m7 10c0-3.87-3.13-7-7-7a6.995 6.995 0 0 0-4.32 12.5l1.07-1.07C7.39 15.42 6.5 13.82 6.5 12c0-3.03 2.47-5.5 5.5-5.5s5.5 2.47 5.5 5.5c0 1.82-.89 3.42-2.25 4.43l1.08 1.07A7.004 7.004 0 0 0 19 12M6 22h12l-6-6-6 6Z" transform="matrix(1.5 0 0 1.5 468 180)" id="mdi-cast-audio-variant" fill="#fff"/><path d="M21 3H3c-1.11 0-2 .89-2 2v3h2V5h18v14h-7v2h7a2 2 0 0 0 2-2V5a2 2 0 0 0-2-2M1 10v2a9 9 0 0 1 9 9h2c0-6.08-4.93-11-11-11m18-3H5v1.63c3.96 1.28 7.09 4.41 8.37 8.37H19M1 14v2a5 5 0 0 1 5 5h2a7 7 0 0 0-7-7m0 4v3h3a3 3 0 0 0-3-3Z" transform="matrix(1.5 0 0 1.5 504 180)" id="mdi-cast-connected" fill="#555"/><path d="M21 3H3c-1.11 0-2 .89-2 2v3h2V5h18v14h-7v2h7a2 2 0 0 0 2-2V5a2 2 0 0 0-2-2M1 10v2a9 9 0 0 1 9 9h2c0-6.08-4.93-11-11-11m18-3H5v1.63c3.96 1.28 7.09 4.41 8.37 8.37H19M1 14v2a5 5 0 0 1 5 5h2a7 7 0 0 0-7-7m0 4v3h3a3 3 0 0 0-3-3Z" transform="matrix(1.5 0 0 1.5 540 180)" id="mdi-cast-connected" fill="#fff"/><path d="M21 3H3a2 2 0 0 0-2 2v3h2V5h18v14h-7v2h7a2 2 0 0 0 2-2V5a2 2 0 0 0-2-2M1 18v3h3a3 3 0 0 0-3-3m0-4v2a5 5 0 0 1 5 5h2a7 7 0 0 0-7-7m0-4v2a9 9 0 0 1 9 9h2c0-6.08-4.93-11-11-11m10 1.09v2L14.5 15l3.5-1.91v-2L14.5 13 11 11.09M14.5 6 9 9l5.5 3L20 9l-5.5-3Z" transform="matrix(1.5 0 0 1.5 576 180)" id="mdi-cast-education" fill="#555"/><path d="M21 3H3a2 2 0 0 0-2 2v3h2V5h18v14h-7v2h7a2 2 0 0 0 2-2V5a2 2 0 0 0-2-2M1 18v3h3a3 3 0 0 0-3-3m0-4v2a5 5 0 0 1 5 5h2a7 7 0 0 0-7-7m0-4v2a9 9 0 0 1 9 9h2c0-6.08-4.93-11-11-11m10 1.09v2L14.5 15l3.5-1.91v-2L14.5 13 11 11.09M14.5 6 9 9l5.5 3L20 9l-5.5-3Z" transform="matrix(1.5 0 0 1.5 612 180)" id="mdi-cast-education" fill="#fff"/><path d="M1.6 1.27.25 2.75 1.41 3.8C1.16 4.13 1 4.55 1 5v3h2V5.23L18.2 19H14v2h6.41l1.9 1.72 1.34-1.48M6.5 3l2.2 2H21v11.14l2 1.81V5a2 2 0 0 0-2-2M1 10v2a9 9 0 0 1 9 9h2c0-6.08-4.92-11-11-11m0 4v2a5 5 0 0 1 5 5h2a7 7 0 0 0-7-7m0 4v3h3a3 3 0 0 0-3-3Z" transform="matrix(1.5 0 0 1.5 648 180)" id="mdi-cast-off" fill="#555"/><path d="M1.6 1.27.25 2.75 1.41 3.8C1.16 4.13 1 4.55 1 5v3h2V5.23L18.2 19H14v2h6.41l1.9 1.72 1.34-1.48M6.5 3l2.2 2H21v11.14l2 1.81V5a2 2 0 0 0-2-2M1 10v2a9 9 0 0 1 9 9h2c0-6.08-4.92-11-11-11m0 4v2a5 5 0 0 1 5 5h2a7 7 0 0 0-7-7m0 4v3h3a3 3 0 0 0-3-3Z" transform="matrix(1.5 0 0 1.5 684 180)" id="mdi-cast-off" fill="#fff"/><path d="M6 22h12l-6-6m9-13H3a2 2 0 0 0-2 2v12a2 2 0 0 0 2 2h4v-2H3V5h18v12h-4v2h4a2 2 0 0 0 2-2V5a2 2 0 0 0-2-2Z" transform="matrix(1.5 0 0 1.5 0 216)" id="mdi-cast-variant" fill="#555"/><path d="M6 22h12l-6-6m9-13H3a2 2 0 0 0-2 2v12a2 2 0 0 0 2 2h4v-2H3V5h18v12h-4v2h4a2 2 0 0 0 2-2V5a2 2 0 0 0-2-2Z" transform="matrix(1.5 0 0 1.5 36 216)" id="mdi-cast-variant" fill="#fff"/><path d="M2 13h2v2h2v-2h2v2h2v-2h2v2h2v-5l3-3V1h2l4 2-4 2v2l3 3v12H11v-3a2 2 0 0 0-2-2 2 2 0 0 0-2 2v3H2v-9m16-3c-.55 0-1 .54-1 1.2V13h2v-1.8c0-.66-.45-1.2-1-1.2Z" transform="matrix(1.5 0 0 1.5 72 216)" id="mdi-castle" fill="#555"/><path d="M2 13h2v2h2v-2h2v2h2v-2h2v2h2v-5l3-3V1h2l4 2-4 2v2l3 3v12H11v-3a2 2 0 0 0-2-2 2 2 0 0 0-2 2v3H2v-9m16-3c-.55 0-1 .54-1 1.2V13h2v-1.8c0-.66-.45-1.2-1-1.2Z" transform="matrix(1.5 0 0 1.5 108 216)" id="mdi-castle" fill="#fff"/><path d="m12 8-1.33.09C9.81 7.07 7.4 4.5 5 4.5c0 0-1.97 2.96-.04 6.91-.55.83-.89 1.26-.96 2.25l-1.93.29.21.98 1.76-.26.14.71-1.57.94.47.89 1.45-.89C5.68 18.76 8.59 20 12 20s6.32-1.24 7.47-3.68l1.45.89.47-.89-1.57-.94.14-.71 1.76.26.21-.98-1.93-.29c-.07-.99-.41-1.42-.96-2.25C20.97 7.46 19 4.5 19 4.5c-2.4 0-4.81 2.57-5.67 3.59L12 8m-3 3a1 1 0 0 1 1 1 1 1 0 0 1-1 1 1 1 0 0 1-1-1 1 1 0 0 1 1-1m6 0a1 1 0 0 1 1 1 1 1 0 0 1-1 1 1 1 0 0 1-1-1 1 1 0 0 1 1-1m-4 3h2l-.7 1.39c.2.64.76 1.11 1.45 1.11a1.5 1.5 0 0 0 1.5-1.5h.5a2 2 0 0 1-2 2c-.75 0-1.4-.41-1.75-1-.35.59-1 1-1.75 1a2 2 0 0 1-2-2h.5a1.5 1.5 0 0 0 1.5 1.5c.69 0 1.25-.47 1.45-1.11L11 14Z" transform="matrix(1.5 0 0 1.5 144 216)" id="mdi-cat" fill="#555"/><path d="m12 8-1.33.09C9.81 7.07 7.4 4.5 5 4.5c0 0-1.97 2.96-.04 6.91-.55.83-.89 1.26-.96 2.25l-1.93.29.21.98 1.76-.26.14.71-1.57.94.47.89 1.45-.89C5.68 18.76 8.59 20 12 20s6.32-1.24 7.47-3.68l1.45.89.47-.89-1.57-.94.14-.71 1.76.26.21-.98-1.93-.29c-.07-.99-.41-1.42-.96-2.25C20.97 7.46 19 4.5 19 4.5c-2.4 0-4.81 2.57-5.67 3.59L12 8m-3 3a1 1 0 0 1 1 1 1 1 0 0 1-1 1 1 1 0 0 1-1-1 1 1 0 0 1 1-1m6 0a1 1 0 0 1 1 1 1 1 0 0 1-1 1 1 1 0 0 1-1-1 1 1 0 0 1 1-1m-4 3h2l-.7 1.39c.2.64.76 1.11 1.45 1.11a1.5 1.5 0 0 0 1.5-1.5h.5a2 2 0 0 1-2 2c-.75 0-1.4-.41-1.75-1-.35.59-1 1-1.75 1a2 2 0 0 1-2-2h.5a1.5 1.5 0 0 0 1.5 1.5c.69 0 1.25-.47 1.45-1.11L11 14Z" transform="matrix(1.5 0 0 1.5 180 216)" id="mdi-cat" fill="#fff"/><path d="m6.03 12.03 2 3.47-2.53 3.18L2 12.62l4.03-.59M17 18v-2.71c.88-.39 1.5-1.26 1.5-2.29 0-.57-.2-1.1-.53-1.5l1.97-1.15c1.01-.59 1.36-1.88.77-2.89l-1.38-2.4a2.125 2.125 0 0 0-2.89-.78L8.31 9c-.95.53-1.28 1.75-.73 2.71l1.5 2.6c.55.95 1.78 1.28 2.73.73l1.88-1.08c.25.59.72 1.07 1.31 1.33V18c0 1.1.9 2 2 2h5v-2h-5Z" transform="matrix(1.5 0 0 1.5 216 216)" id="mdi-cctv" fill="#555"/><path d="m6.03 12.03 2 3.47-2.53 3.18L2 12.62l4.03-.59M17 18v-2.71c.88-.39 1.5-1.26 1.5-2.29 0-.57-.2-1.1-.53-1.5l1.97-1.15c1.01-.59 1.36-1.88.77-2.89l-1.38-2.4a2.125 2.125 0 0 0-2.89-.78L8.31 9c-.95.53-1.28 1.75-.73 2.71l1.5 2.6c.55.95 1.78 1.28 2.73.73l1.88-1.08c.25.59.72 1.07 1.31 1.33V18c0 1.1.9 2 2 2h5v-2h-5Z" transform="matrix(1.5 0 0 1.5 252 216)" id="mdi-cctv" fill="#fff"/><path d="M20.84 22.73 18.11 20H17c-1.1 0-2-.9-2-2v-1.11l-2.34-2.34-.85.49c-.95.55-2.18.22-2.73-.73l-1.5-2.6c-.4-.71-.33-1.53.1-2.14L1.11 3l1.28-1.27 19.72 19.73-1.27 1.27M18.5 13c0-.57-.2-1.1-.53-1.5l1.97-1.15c1.01-.59 1.36-1.88.77-2.89l-1.38-2.4a2.125 2.125 0 0 0-2.89-.78l-5.67 3.29 7.09 7.09c.4-.44.64-1.02.64-1.66M2 12.62l3.5 6.06 2.53-3.18-2-3.47-4.03.59Z" transform="matrix(1.5 0 0 1.5 288 216)" id="mdi-cctv-off" fill="#555"/><path d="M20.84 22.73 18.11 20H17c-1.1 0-2-.9-2-2v-1.11l-2.34-2.34-.85.49c-.95.55-2.18.22-2.73-.73l-1.5-2.6c-.4-.71-.33-1.53.1-2.14L1.11 3l1.28-1.27 19.72 19.73-1.27 1.27M18.5 13c0-.57-.2-1.1-.53-1.5l1.97-1.15c1.01-.59 1.36-1.88.77-2.89l-1.38-2.4a2.125 2.125 0 0 0-2.89-.78l-5.67 3.29 7.09 7.09c.4-.44.64-1.02.64-1.66M2 12.62l3.5 6.06 2.53-3.18-2-3.47-4.03.59Z" transform="matrix(1.5 0 0 1.5 324 216)" id="mdi-cctv-off" fill="#fff"/><path d="M8 3v2h3v5.27c-.62.36-1 1.02-1 1.73v1h4v-1c0-.71-.38-1.37-1-1.73V5h3V3H8m-2 9c-2.21 0-4 .67-4 1.5S3.79 15 6 15s4-.67 4-1.5S8.21 12 6 12m12 0c-2.21 0-4 .67-4 1.5s1.79 1.5 4 1.5 4-.67 4-1.5-1.79-1.5-4-1.5m-8 2v1c0 .72.38 1.38 1 1.73.62.36 1.38.36 2 0 .62-.35 1-1.02 1-1.73v-1h-4Z" transform="matrix(1.5 0 0 1.5 360 216)" id="mdi-ceiling-fan" fill="#555"/><path d="M8 3v2h3v5.27c-.62.36-1 1.02-1 1.73v1h4v-1c0-.71-.38-1.37-1-1.73V5h3V3H8m-2 9c-2.21 0-4 .67-4 1.5S3.79 15 6 15s4-.67 4-1.5S8.21 12 6 12m12 0c-2.21 0-4 .67-4 1.5s1.79 1.5 4 1.5 4-.67 4-1.5-1.79-1.5-4-1.5m-8 2v1c0 .72.38 1.38 1 1.73.62.36 1.38.36 2 0 .62-.35 1-1.02 1-1.73v-1h-4Z" transform="matrix(1.5 0 0 1.5 396 216)" id="mdi-ceiling-fan" fill="#fff"/><path d="M8 3v2h3v5.27c-.62.36-1 1.02-1 1.73v1h4v-1c0-.71-.38-1.37-1-1.73V5h3V3H8m-2 9c-2.21 0-4 .67-4 1.5S3.79 15 6 15s4-.67 4-1.5S8.21 12 6 12m12 0c-2.21 0-4 .67-4 1.5s1.79 1.5 4 1.5 4-.67 4-1.5-1.79-1.5-4-1.5m-8 2v1c0 .72.38 1.38 1 1.73.62.36 1.38.36 2 0 .62-.35 1-1.02 1-1.73v-1h-4m3 5v3h-2v-3h2m2.88-2.54L18 18.59 16.59 20l-2.12-2.12 1.41-1.42m-6.34 1.42L7.41 20 6 18.59l2.12-2.12 1.42 1.41" transform="matrix(1.5 0 0 1.5 432 216)" id="mdi-ceiling-fan-light" fill="#555"/><path d="M8 3v2h3v5.27c-.62.36-1 1.02-1 1.73v1h4v-1c0-.71-.38-1.37-1-1.73V5h3V3H8m-2 9c-2.21 0-4 .67-4 1.5S3.79 15 6 15s4-.67 4-1.5S8.21 12 6 12m12 0c-2.21 0-4 .67-4 1.5s1.79 1.5 4 1.5 4-.67 4-1.5-1.79-1.5-4-1.5m-8 2v1c0 .72.38 1.38 1 1.73.62.36 1.38.36 2 0 .62-.35 1-1.02 1-1.73v-1h-4m3 5v3h-2v-3h2m2.88-2.54L18 18.59 16.59 20l-2.12-2.12 1.41-1.42m-6.34 1.42L7.41 20 6 18.59l2.12-2.12 1.42 1.41" transform="matrix(1.5 0 0 1.5 468 216)" id="mdi-ceiling-fan-light" fill="#fff"/><path d="M8 9h3V4h2v5h3l4 8H4l4-8m6 9a2 2 0 0 1-2 2 2 2 0 0 1-2-2h4Z" transform="matrix(1.5 0 0 1.5 504 216)" id="mdi-ceiling-light" fill="#555"/><path d="M8 9h3V4h2v5h3l4 8H4l4-8m6 9a2 2 0 0 1-2 2 2 2 0 0 1-2-2h4Z" transform="matrix(1.5 0 0 1.5 540 216)" id="mdi-ceiling-light" fill="#fff"/><path d="M10 11h3V6h2v5h3l4 8H6l4-8m6 9c0 1.11-.89 2-2 2s-2-.89-2-2h4m-7.79-9.89L8.76 9H11V2H9v5H6l-4 8h3.76l2.45-4.89Z" transform="matrix(1.5 0 0 1.5 576 216)" id="mdi-ceiling-light-multiple" fill="#555"/><path d="M10 11h3V6h2v5h3l4 8H6l4-8m6 9c0 1.11-.89 2-2 2s-2-.89-2-2h4m-7.79-9.89L8.76 9H11V2H9v5H6l-4 8h3.76l2.45-4.89Z" transform="matrix(1.5 0 0 1.5 612 216)" id="mdi-ceiling-light-multiple" fill="#fff"/><path d="m16.76 13 2 4H9.24l2-4h5.52M15 6h-2v5h-3l-4 8h16l-4-8h-3V6m1 14c0 1.11-.89 2-2 2s-2-.89-2-2h4m-7.79-9.89L8.76 9H11V2H9v5H6l-4 8h3.76l2.45-4.89Z" transform="matrix(1.5 0 0 1.5 648 216)" id="mdi-ceiling-light-multiple-outline" fill="#555"/><path d="m16.76 13 2 4H9.24l2-4h5.52M15 6h-2v5h-3l-4 8h16l-4-8h-3V6m1 14c0 1.11-.89 2-2 2s-2-.89-2-2h4m-7.79-9.89L8.76 9H11V2H9v5H6l-4 8h3.76l2.45-4.89Z" transform="matrix(1.5 0 0 1.5 684 216)" id="mdi-ceiling-light-multiple-outline" fill="#fff"/><path d="m14.76 11 2 4H7.24l2-4h5.52M13 4h-2v5H8l-4 8h16l-4-8h-3V4m1 14h-4a2 2 0 1 0 4 0Z" transform="matrix(1.5 0 0 1.5 0 252)" id="mdi-ceiling-light-outline" fill="#555"/><path d="m14.76 11 2 4H7.24l2-4h5.52M13 4h-2v5H8l-4 8h16l-4-8h-3V4m1 14h-4a2 2 0 1 0 4 0Z" transform="matrix(1.5 0 0 1.5 36 252)" id="mdi-ceiling-light-outline" fill="#fff"/><path d="M17 19H7V5h10m0-4H7c-1.11 0-2 .89-2 2v18a2 2 0 0 0 2 2h10a2 2 0 0 0 2-2V3a2 2 0 0 0-2-2Z" transform="matrix(1.5 0 0 1.5 72 252)" id="mdi-cellphone" fill="#555"/><path d="M17 19H7V5h10m0-4H7c-1.11 0-2 .89-2 2v18a2 2 0 0 0 2 2h10a2 2 0 0 0 2-2V3a2 2 0 0 0-2-2Z" transform="matrix(1.5 0 0 1.5 108 252)" id="mdi-cellphone" fill="#fff"/><path d="M17 1H7a2 2 0 0 0-2 2v18a2 2 0 0 0 2 2h10a2 2 0 0 0 2-2V3a2 2 0 0 0-2-2m0 18H7V5h10v14m-1-6h-3V8h-2v5H8l4 4 4-4Z" transform="matrix(1.5 0 0 1.5 144 252)" id="mdi-cellphone-arrow-down" fill="#555"/><path d="M17 1H7a2 2 0 0 0-2 2v18a2 2 0 0 0 2 2h10a2 2 0 0 0 2-2V3a2 2 0 0 0-2-2m0 18H7V5h10v14m-1-6h-3V8h-2v5H8l4 4 4-4Z" transform="matrix(1.5 0 0 1.5 180 252)" id="mdi-cellphone-arrow-down" fill="#fff"/><path d="m18 14 5-5-1.4-1.4-2.6 2.6V3h-2v7.2l-2.6-2.6L13 9l5 5m1 2v5c0 1.1-.9 2-2 2H7c-1.1 0-2-.9-2-2V3c0-1.1.9-2 2-2h7v4H7v14h10v-3h2Z" transform="matrix(1.5 0 0 1.5 216 252)" id="mdi-cellphone-arrow-down-variant" fill="#555"/><path d="m18 14 5-5-1.4-1.4-2.6 2.6V3h-2v7.2l-2.6-2.6L13 9l5 5m1 2v5c0 1.1-.9 2-2 2H7c-1.1 0-2-.9-2-2V3c0-1.1.9-2 2-2h7v4H7v14h10v-3h2Z" transform="matrix(1.5 0 0 1.5 252 252)" id="mdi-cellphone-arrow-down-variant" fill="#fff"/><path d="M15 2a1 1 0 0 0-1 1v3h-4c-1.11 0-2 .89-2 2v12c0 1.11.89 2 2 2h5c1.11 0 2-.89 2-2V8c0-.74-.4-1.38-1-1.72V3a1 1 0 0 0-1-1m-5 6h5v5h-5V8m0 7h1v1h-1v-1m2 0h1v1h-1v-1m2 0h1v1h-1v-1m-4 2h1v1h-1v-1m2 0h1v1h-1v-1m2 0h1v1h-1v-1m-4 2h1v1h-1v-1m2 0h1v1h-1v-1m2 0h1v1h-1v-1Z" transform="matrix(1.5 0 0 1.5 288 252)" id="mdi-cellphone-basic" fill="#555"/><path d="M15 2a1 1 0 0 0-1 1v3h-4c-1.11 0-2 .89-2 2v12c0 1.11.89 2 2 2h5c1.11 0 2-.89 2-2V8c0-.74-.4-1.38-1-1.72V3a1 1 0 0 0-1-1m-5 6h5v5h-5V8m0 7h1v1h-1v-1m2 0h1v1h-1v-1m2 0h1v1h-1v-1m-4 2h1v1h-1v-1m2 0h1v1h-1v-1m2 0h1v1h-1v-1m-4 2h1v1h-1v-1m2 0h1v1h-1v-1m2 0h1v1h-1v-1Z" transform="matrix(1.5 0 0 1.5 324 252)" id="mdi-cellphone-basic" fill="#fff"/><path d="M11 18.5V13H9l4-7.5V11h2m2 8H7V5h10m0-4H7c-1.11 0-2 .89-2 2v18a2 2 0 0 0 2 2h10a2 2 0 0 0 2-2V3a2 2 0 0 0-2-2Z" transform="matrix(1.5 0 0 1.5 360 252)" id="mdi-cellphone-charging" fill="#555"/><path d="M11 18.5V13H9l4-7.5V11h2m2 8H7V5h10m0-4H7c-1.11 0-2 .89-2 2v18a2 2 0 0 0 2 2h10a2 2 0 0 0 2-2V3a2 2 0 0 0-2-2Z" transform="matrix(1.5 0 0 1.5 396 252)" id="mdi-cellphone-charging" fill="#fff"/><path d="M14.54 23H7a2 2 0 0 1-2-2V3c0-1.11.89-2 2-2h10a2 2 0 0 1 2 2v10c-.7 0-1.37.13-2 .35V5H7v14h6c0 1.54.58 2.94 1.54 4m3.21-.84-2.75-3L16.16 18l1.59 1.59L21.34 16l1.16 1.41-4.75 4.75" transform="matrix(1.5 0 0 1.5 432 252)" id="mdi-cellphone-check" fill="#555"/><path d="M14.54 23H7a2 2 0 0 1-2-2V3c0-1.11.89-2 2-2h10a2 2 0 0 1 2 2v10c-.7 0-1.37.13-2 .35V5H7v14h6c0 1.54.58 2.94 1.54 4m3.21-.84-2.75-3L16.16 18l1.59 1.59L21.34 16l1.16 1.41-4.75 4.75" transform="matrix(1.5 0 0 1.5 468 252)" id="mdi-cellphone-check" fill="#fff"/><path d="M9.82 12.5c.02-.17.04-.33.04-.5 0-.17-.02-.33-.04-.5l1.08-.81c.1-.07.1-.19.06-.32L9.93 8.64c-.06-.11-.2-.14-.31-.11l-1.28.5c-.27-.2-.56-.36-.87-.49l-.2-1.33c0-.12-.11-.21-.24-.21H5c-.15 0-.26.09-.28.21L4.5 8.53c-.29.12-.58.3-.85.47l-1.28-.5c-.12-.03-.25 0-.31.13l-1.03 1.73c-.06.14-.03.25.07.33l1.08.81c-.02.17-.03.34-.03.5 0 .17.02.33.04.5l-1.09.82c-.1.07-.1.21-.06.32l1.03 1.73c.06.13.2.13.31.13l1.28-.5c.27.18.56.34.87.47l.2 1.32c.01.12.12.21.27.21h2.04c.13 0 .24-.09.25-.21l.21-1.32c.3-.12.59-.3.86-.47l1.28.5c.12.03.25 0 .31-.13L11 13.64c.04-.11 0-.24-.08-.32l-1.1-.82M6 13.75c-1 0-1.8-.78-1.8-1.75S5 10.25 6 10.25s1.8.78 1.8 1.75S7 13.75 6 13.75M17 1H7a2 2 0 0 0-2 2v3h2V4h10v16H7v-2H5v3a2 2 0 0 0 2 2h10a2 2 0 0 0 2-2V3a2 2 0 0 0-2-2Z" transform="matrix(1.5 0 0 1.5 504 252)" id="mdi-cellphone-cog" fill="#555"/><path d="M9.82 12.5c.02-.17.04-.33.04-.5 0-.17-.02-.33-.04-.5l1.08-.81c.1-.07.1-.19.06-.32L9.93 8.64c-.06-.11-.2-.14-.31-.11l-1.28.5c-.27-.2-.56-.36-.87-.49l-.2-1.33c0-.12-.11-.21-.24-.21H5c-.15 0-.26.09-.28.21L4.5 8.53c-.29.12-.58.3-.85.47l-1.28-.5c-.12-.03-.25 0-.31.13l-1.03 1.73c-.06.14-.03.25.07.33l1.08.81c-.02.17-.03.34-.03.5 0 .17.02.33.04.5l-1.09.82c-.1.07-.1.21-.06.32l1.03 1.73c.06.13.2.13.31.13l1.28-.5c.27.18.56.34.87.47l.2 1.32c.01.12.12.21.27.21h2.04c.13 0 .24-.09.25-.21l.21-1.32c.3-.12.59-.3.86-.47l1.28.5c.12.03.25 0 .31-.13L11 13.64c.04-.11 0-.24-.08-.32l-1.1-.82M6 13.75c-1 0-1.8-.78-1.8-1.75S5 10.25 6 10.25s1.8.78 1.8 1.75S7 13.75 6 13.75M17 1H7a2 2 0 0 0-2 2v3h2V4h10v16H7v-2H5v3a2 2 0 0 0 2 2h10a2 2 0 0 0 2-2V3a2 2 0 0 0-2-2Z" transform="matrix(1.5 0 0 1.5 540 252)" id="mdi-cellphone-cog" fill="#fff"/><path d="M16 15H8V5h8m0-4H8c-1.11 0-2 .89-2 2v14a2 2 0 0 0 2 2h8a2 2 0 0 0 2-2V3a2 2 0 0 0-2-2M8 23h8v-2H8v2Z" transform="matrix(1.5 0 0 1.5 576 252)" id="mdi-cellphone-dock" fill="#555"/><path d="M16 15H8V5h8m0-4H8c-1.11 0-2 .89-2 2v14a2 2 0 0 0 2 2h8a2 2 0 0 0 2-2V3a2 2 0 0 0-2-2M8 23h8v-2H8v2Z" transform="matrix(1.5 0 0 1.5 612 252)" id="mdi-cellphone-dock" fill="#fff"/><path d="M13 7h-2v2h2V7m0 4h-2v6h2v-6m4-10H7c-1.1 0-2 .9-2 2v18c0 1.1.9 2 2 2h10c1.1 0 2-.9 2-2V3c0-1.1-.9-2-2-2m0 18H7V5h10v14Z" transform="matrix(1.5 0 0 1.5 648 252)" id="mdi-cellphone-information" fill="#555"/><path d="M13 7h-2v2h2V7m0 4h-2v6h2v-6m4-10H7c-1.1 0-2 .9-2 2v18c0 1.1.9 2 2 2h10c1.1 0 2-.9 2-2V3c0-1.1-.9-2-2-2m0 18H7V5h10v14Z" transform="matrix(1.5 0 0 1.5 684 252)" id="mdi-cellphone-information" fill="#fff"/><path d="M7 1c-1.1 0-2 .9-2 2v4h2V4h10v16H7v-3H5v4c0 1.1.9 2 2 2h10c1.1 0 2-.9 2-2V3c0-1.1-.9-2-2-2H7M6 9c-1.7 0-3 1.3-3 3s1.3 3 3 3c1.3 0 2.4-.8 2.8-2H11v2h2v-2h2v-2H8.8C8.4 9.8 7.3 9 6 9m0 2c.6 0 1 .4 1 1s-.4 1-1 1-1-.4-1-1 .4-1 1-1Z" transform="matrix(1.5 0 0 1.5 0 288)" id="mdi-cellphone-key" fill="#555"/><path d="M7 1c-1.1 0-2 .9-2 2v4h2V4h10v16H7v-3H5v4c0 1.1.9 2 2 2h10c1.1 0 2-.9 2-2V3c0-1.1-.9-2-2-2H7M6 9c-1.7 0-3 1.3-3 3s1.3 3 3 3c1.3 0 2.4-.8 2.8-2H11v2h2v-2h2v-2H8.8C8.4 9.8 7.3 9 6 9m0 2c.6 0 1 .4 1 1s-.4 1-1 1-1-.4-1-1 .4-1 1-1Z" transform="matrix(1.5 0 0 1.5 36 288)" id="mdi-cellphone-key" fill="#fff"/><path d="M22 17h-4v-7h4m1-2h-6a1 1 0 0 0-1 1v10a1 1 0 0 0 1 1h6a1 1 0 0 0 1-1V9a1 1 0 0 0-1-1M4 6h18V4H4a2 2 0 0 0-2 2v11H0v3h14v-3H4V6Z" transform="matrix(1.5 0 0 1.5 72 288)" id="mdi-cellphone-link" fill="#555"/><path d="M22 17h-4v-7h4m1-2h-6a1 1 0 0 0-1 1v10a1 1 0 0 0 1 1h6a1 1 0 0 0 1-1V9a1 1 0 0 0-1-1M4 6h18V4H4a2 2 0 0 0-2 2v11H0v3h14v-3H4V6Z" transform="matrix(1.5 0 0 1.5 108 288)" id="mdi-cellphone-link" fill="#fff"/><path d="M23 8h-6a1 1 0 0 0-1 1v4.18l2 2V10h4v7h-2.18l3 3H23a1 1 0 0 0 1-1V9a1 1 0 0 0-1-1M4 6.27 14.73 17H4V6.27M1.92 1.65.65 2.92l1.82 1.82A1.9 1.9 0 0 0 2 6v11H0v3h17.73l2.35 2.35 1.27-1.27L3.89 3.62 1.92 1.65M22 6V4H6.82l2 2H22Z" transform="matrix(1.5 0 0 1.5 144 288)" id="mdi-cellphone-link-off" fill="#555"/><path d="M23 8h-6a1 1 0 0 0-1 1v4.18l2 2V10h4v7h-2.18l3 3H23a1 1 0 0 0 1-1V9a1 1 0 0 0-1-1M4 6.27 14.73 17H4V6.27M1.92 1.65.65 2.92l1.82 1.82A1.9 1.9 0 0 0 2 6v11H0v3h17.73l2.35 2.35 1.27-1.27L3.89 3.62 1.92 1.65M22 6V4H6.82l2 2H22Z" transform="matrix(1.5 0 0 1.5 180 288)" id="mdi-cellphone-link-off" fill="#fff"/><path d="M17 1H7a2 2 0 0 0-2 2v3h2V4h10v16H7v-2H5v3a2 2 0 0 0 2 2h10a2 2 0 0 0 2-2V3a2 2 0 0 0-2-2M8.8 11V9.5C8.8 8.1 7.4 7 6 7S3.2 8.1 3.2 9.5V11c-.6 0-1.2.6-1.2 1.2v3.5c0 .7.6 1.3 1.2 1.3h5.5c.7 0 1.3-.6 1.3-1.2v-3.5c0-.7-.6-1.3-1.2-1.3m-1.3 0h-3V9.5c0-.8.7-1.3 1.5-1.3s1.5.5 1.5 1.3V11Z" transform="matrix(1.5 0 0 1.5 216 288)" id="mdi-cellphone-lock" fill="#555"/><path d="M17 1H7a2 2 0 0 0-2 2v3h2V4h10v16H7v-2H5v3a2 2 0 0 0 2 2h10a2 2 0 0 0 2-2V3a2 2 0 0 0-2-2M8.8 11V9.5C8.8 8.1 7.4 7 6 7S3.2 8.1 3.2 9.5V11c-.6 0-1.2.6-1.2 1.2v3.5c0 .7.6 1.3 1.2 1.3h5.5c.7 0 1.3-.6 1.3-1.2v-3.5c0-.7-.6-1.3-1.2-1.3m-1.3 0h-3V9.5c0-.8.7-1.3 1.5-1.3s1.5.5 1.5 1.3V11Z" transform="matrix(1.5 0 0 1.5 252 288)" id="mdi-cellphone-lock" fill="#fff"/><path d="M18.5 13c-1.9 0-3.5 1.61-3.5 3.5 0 2.61 3.5 6.5 3.5 6.5s3.5-3.89 3.5-6.5c0-1.89-1.6-3.5-3.5-3.5m0 4.81c-.7 0-1.2-.6-1.2-1.2 0-.7.6-1.2 1.2-1.2s1.2.59 1.2 1.2c.1.6-.5 1.2-1.2 1.2M15.91 23H7a2 2 0 0 1-2-2V3c0-1.11.89-2 2-2h10a2 2 0 0 1 2 2v8.03c-.16-.03-.33-.03-.5-.03-.5 0-1 .08-1.5.22V5H7v14h6.54c.6 1.5 1.58 2.97 2.37 4Z" transform="matrix(1.5 0 0 1.5 288 288)" id="mdi-cellphone-marker" fill="#555"/><path d="M18.5 13c-1.9 0-3.5 1.61-3.5 3.5 0 2.61 3.5 6.5 3.5 6.5s3.5-3.89 3.5-6.5c0-1.89-1.6-3.5-3.5-3.5m0 4.81c-.7 0-1.2-.6-1.2-1.2 0-.7.6-1.2 1.2-1.2s1.2.59 1.2 1.2c.1.6-.5 1.2-1.2 1.2M15.91 23H7a2 2 0 0 1-2-2V3c0-1.11.89-2 2-2h10a2 2 0 0 1 2 2v8.03c-.16-.03-.33-.03-.5-.03-.5 0-1 .08-1.5.22V5H7v14h6.54c.6 1.5 1.58 2.97 2.37 4Z" transform="matrix(1.5 0 0 1.5 324 288)" id="mdi-cellphone-marker" fill="#fff"/><path d="M11 17V7H4v10h7m0-14a2 2 0 0 1 2 2v14a2 2 0 0 1-2 2H4a2 2 0 0 1-2-2V5a2 2 0 0 1 2-2h7m5.5 0h5A1.5 1.5 0 0 1 23 4.5v3A1.5 1.5 0 0 1 21.5 9H18l-3 3V4.5A1.5 1.5 0 0 1 16.5 3Z" transform="matrix(1.5 0 0 1.5 360 288)" id="mdi-cellphone-message" fill="#555"/><path d="M11 17V7H4v10h7m0-14a2 2 0 0 1 2 2v14a2 2 0 0 1-2 2H4a2 2 0 0 1-2-2V5a2 2 0 0 1 2-2h7m5.5 0h5A1.5 1.5 0 0 1 23 4.5v3A1.5 1.5 0 0 1 21.5 9H18l-3 3V4.5A1.5 1.5 0 0 1 16.5 3Z" transform="matrix(1.5 0 0 1.5 396 288)" id="mdi-cellphone-message" fill="#fff"/><path d="M2.39 1.73 1.11 3l1.11 1.11C2.08 4.38 2 4.68 2 5v14a2 2 0 0 0 2 2h7c1.1 0 2-.9 2-2v-4.11l7.84 7.84 1.27-1.27L2.39 1.73M11 17H4V7h1.11L11 12.89V17M23 4.5v3c0 .83-.67 1.5-1.5 1.5H18l-2.9 2.9-.1-.1V4.5c0-.83.67-1.5 1.5-1.5h5c.83 0 1.5.67 1.5 1.5M10.2 7l-4-4H11c1.1 0 2 .9 2 2v4.8l-2-2V7h-.8" transform="matrix(1.5 0 0 1.5 432 288)" id="mdi-cellphone-message-off" fill="#555"/><path d="M2.39 1.73 1.11 3l1.11 1.11C2.08 4.38 2 4.68 2 5v14a2 2 0 0 0 2 2h7c1.1 0 2-.9 2-2v-4.11l7.84 7.84 1.27-1.27L2.39 1.73M11 17H4V7h1.11L11 12.89V17M23 4.5v3c0 .83-.67 1.5-1.5 1.5H18l-2.9 2.9-.1-.1V4.5c0-.83.67-1.5 1.5-1.5h5c.83 0 1.5.67 1.5 1.5M10.2 7l-4-4H11c1.1 0 2 .9 2 2v4.8l-2-2V7h-.8" transform="matrix(1.5 0 0 1.5 468 288)" id="mdi-cellphone-message-off" fill="#fff"/><path d="M2 16v2a5 5 0 0 1 5 5h2a7 7 0 0 0-7-7m0 4v3h3a3 3 0 0 0-3-3m0-8v2a9 9 0 0 1 9 9h2c0-6.08-4.92-11-11-11M17 1H7a2 2 0 0 0-2 2v7.37c.69.16 1.36.37 2 .63V5h10v13h-3.03c.53 1.25.84 2.59.95 4H17a2 2 0 0 0 2-2V3a2 2 0 0 0-2-2Z" transform="matrix(1.5 0 0 1.5 504 288)" id="mdi-cellphone-nfc" fill="#555"/><path d="M2 16v2a5 5 0 0 1 5 5h2a7 7 0 0 0-7-7m0 4v3h3a3 3 0 0 0-3-3m0-8v2a9 9 0 0 1 9 9h2c0-6.08-4.92-11-11-11M17 1H7a2 2 0 0 0-2 2v7.37c.69.16 1.36.37 2 .63V5h10v13h-3.03c.53 1.25.84 2.59.95 4H17a2 2 0 0 0 2-2V3a2 2 0 0 0-2-2Z" transform="matrix(1.5 0 0 1.5 540 288)" id="mdi-cellphone-nfc" fill="#fff"/><path d="m20.84 22.73-1.99-1.99C18.56 21.5 17.84 22 17 22h-2.08c-.11-1.41-.42-2.75-.95-4h2.14L7 8.89V11c-.64-.26-1.31-.47-2-.63V6.89L1.11 3l1.28-1.27 19.72 19.73-1.27 1.27M17 5v8.8l2 2V3a2 2 0 0 0-2-2H7c-.76 0-1.41.43-1.75 1.05L8.2 5H17M2 20v3h3c0-1.66-1.34-3-3-3m0-4v2c2.76 0 5 2.24 5 5h2c0-3.87-3.13-7-7-7m0-4v2a9 9 0 0 1 9 9h2c0-6.08-4.92-11-11-11Z" transform="matrix(1.5 0 0 1.5 576 288)" id="mdi-cellphone-nfc-off" fill="#555"/><path d="m20.84 22.73-1.99-1.99C18.56 21.5 17.84 22 17 22h-2.08c-.11-1.41-.42-2.75-.95-4h2.14L7 8.89V11c-.64-.26-1.31-.47-2-.63V6.89L1.11 3l1.28-1.27 19.72 19.73-1.27 1.27M17 5v8.8l2 2V3a2 2 0 0 0-2-2H7c-.76 0-1.41.43-1.75 1.05L8.2 5H17M2 20v3h3c0-1.66-1.34-3-3-3m0-4v2c2.76 0 5 2.24 5 5h2c0-3.87-3.13-7-7-7m0-4v2a9 9 0 0 1 9 9h2c0-6.08-4.92-11-11-11Z" transform="matrix(1.5 0 0 1.5 612 288)" id="mdi-cellphone-nfc-off" fill="#fff"/><path d="M2.38 1.73 1.11 3 5 6.89V21a2 2 0 0 0 2 2h10a2 2 0 0 0 2-2v-.11l1.84 1.84 1.27-1.27M17 19H7V8.89l10 10V19m0-14v8.8l2 2V3a2 2 0 0 0-2-2H7c-.72 0-1.4.37-1.76 1l3 3H17Z" transform="matrix(1.5 0 0 1.5 648 288)" id="mdi-cellphone-off" fill="#555"/><path d="M2.38 1.73 1.11 3 5 6.89V21a2 2 0 0 0 2 2h10a2 2 0 0 0 2-2v-.11l1.84 1.84 1.27-1.27M17 19H7V8.89l10 10V19m0-14v8.8l2 2V3a2 2 0 0 0-2-2H7c-.72 0-1.4.37-1.76 1l3 3H17Z" transform="matrix(1.5 0 0 1.5 684 288)" id="mdi-cellphone-off" fill="#fff"/><path d="M17 19H7V5h10m0-4H7c-1.11 0-2 .89-2 2v18c0 1.1.9 2 2 2h10c1.1 0 2-.9 2-2V3a2 2 0 0 0-2-2m-7 8v6l4-3-4-3Z" transform="matrix(1.5 0 0 1.5 0 324)" id="mdi-cellphone-play" fill="#555"/><path d="M17 19H7V5h10m0-4H7c-1.11 0-2 .89-2 2v18c0 1.1.9 2 2 2h10c1.1 0 2-.9 2-2V3a2 2 0 0 0-2-2m-7 8v6l4-3-4-3Z" transform="matrix(1.5 0 0 1.5 36 324)" id="mdi-cellphone-play" fill="#fff"/><path d="m22.54 16.88-1.42-1.41L19 17.59l-2.12-2.12-1.41 1.41L17.59 19l-2.12 2.12 1.41 1.42L19 20.41l2.12 2.13 1.42-1.42L20.41 19l2.13-2.12m-8 6.12H7a2 2 0 0 1-2-2V3c0-1.11.89-2 2-2h10a2 2 0 0 1 2 2v10c-.7 0-1.37.13-2 .35V5H7v14h6c0 1.54.58 2.94 1.54 4Z" transform="matrix(1.5 0 0 1.5 72 324)" id="mdi-cellphone-remove" fill="#555"/><path d="m22.54 16.88-1.42-1.41L19 17.59l-2.12-2.12-1.41 1.41L17.59 19l-2.12 2.12 1.41 1.42L19 20.41l2.12 2.13 1.42-1.42L20.41 19l2.13-2.12m-8 6.12H7a2 2 0 0 1-2-2V3c0-1.11.89-2 2-2h10a2 2 0 0 1 2 2v10c-.7 0-1.37.13-2 .35V5H7v14h6c0 1.54.58 2.94 1.54 4Z" transform="matrix(1.5 0 0 1.5 108 324)" id="mdi-cellphone-remove" fill="#fff"/><path d="M7 1a2 2 0 0 0-2 2v18a2 2 0 0 0 2 2h10a2 2 0 0 0 2-2V3a2 2 0 0 0-2-2H7m0 3h10v16H7V4m2 2v4h1.5V7.5H13V6H9m4.5 8v2.5H11V18h4v-4h-1.5Z" transform="matrix(1.5 0 0 1.5 144 324)" id="mdi-cellphone-screenshot" fill="#555"/><path d="M7 1a2 2 0 0 0-2 2v18a2 2 0 0 0 2 2h10a2 2 0 0 0 2-2V3a2 2 0 0 0-2-2H7m0 3h10v16H7V4m2 2v4h1.5V7.5H13V6H9m4.5 8v2.5H11V18h4v-4h-1.5Z" transform="matrix(1.5 0 0 1.5 180 324)" id="mdi-cellphone-screenshot" fill="#fff"/><path d="M16 16H8V4h8m0-4H8a2 2 0 0 0-2 2v16a2 2 0 0 0 2 2h8a2 2 0 0 0 2-2V2a2 2 0 0 0-2-2m-1 24h2v-2h-2m-4 2h2v-2h-2m-4 2h2v-2H7v2Z" transform="matrix(1.5 0 0 1.5 216 324)" id="mdi-cellphone-settings" fill="#555"/><path d="M16 16H8V4h8m0-4H8a2 2 0 0 0-2 2v16a2 2 0 0 0 2 2h8a2 2 0 0 0 2-2V2a2 2 0 0 0-2-2m-1 24h2v-2h-2m-4 2h2v-2h-2m-4 2h2v-2H7v2Z" transform="matrix(1.5 0 0 1.5 252 324)" id="mdi-cellphone-settings" fill="#fff"/><path d="M19.1 8.7c1.8 1.8 1.8 4.6 0 6.5l1 1c2.5-2.3 2.5-6.1 0-8.5l-1 1M18 9.8l-1 1c.5.7.5 1.6 0 2.3l1 1c1.2-1.2 1.2-3 0-4.3M14 1H4a2 2 0 0 0-2 2v18a2 2 0 0 0 2 2h10a2 2 0 0 0 2-2V3a2 2 0 0 0-2-2m0 19H4V4h10v16Z" transform="matrix(1.5 0 0 1.5 288 324)" id="mdi-cellphone-sound" fill="#555"/><path d="M19.1 8.7c1.8 1.8 1.8 4.6 0 6.5l1 1c2.5-2.3 2.5-6.1 0-8.5l-1 1M18 9.8l-1 1c.5.7.5 1.6 0 2.3l1 1c1.2-1.2 1.2-3 0-4.3M14 1H4a2 2 0 0 0-2 2v18a2 2 0 0 0 2 2h10a2 2 0 0 0 2-2V3a2 2 0 0 0-2-2m0 19H4V4h10v16Z" transform="matrix(1.5 0 0 1.5 324 324)" id="mdi-cellphone-sound" fill="#fff"/><path d="M17 19V5H7v14h10m0-18a2 2 0 0 1 2 2v18a2 2 0 0 1-2 2H7a2 2 0 0 1-2-2V3c0-1.11.89-2 2-2h10M9 7h6v2H9V7m0 4h4v2H9v-2Z" transform="matrix(1.5 0 0 1.5 360 324)" id="mdi-cellphone-text" fill="#555"/><path d="M17 19V5H7v14h10m0-18a2 2 0 0 1 2 2v18a2 2 0 0 1-2 2H7a2 2 0 0 1-2-2V3c0-1.11.89-2 2-2h10M9 7h6v2H9V7m0 4h4v2H9v-2Z" transform="matrix(1.5 0 0 1.5 396 324)" id="mdi-cellphone-text" fill="#fff"/><path d="M20.07 4.93A9.969 9.969 0 0 1 23 12c0 2.76-1.12 5.26-2.93 7.07l-1.41-1.41A7.938 7.938 0 0 0 21 12c0-2.21-.89-4.22-2.34-5.66l1.41-1.41m-2.83 2.83A5.98 5.98 0 0 1 19 12c0 1.65-.67 3.15-1.76 4.24l-1.41-1.41A3.99 3.99 0 0 0 17 12c0-1.11-.45-2.11-1.17-2.83l1.41-1.41M13 10a2 2 0 0 1 2 2 2 2 0 0 1-2 2 2 2 0 0 1-2-2 2 2 0 0 1 2-2m-1.5-9A2.5 2.5 0 0 1 14 3.5V8h-2V4H3v15h9v-3h2v4.5a2.5 2.5 0 0 1-2.5 2.5h-8A2.5 2.5 0 0 1 1 20.5v-17A2.5 2.5 0 0 1 3.5 1h8Z" transform="matrix(1.5 0 0 1.5 432 324)" id="mdi-cellphone-wireless" fill="#555"/><path d="M20.07 4.93A9.969 9.969 0 0 1 23 12c0 2.76-1.12 5.26-2.93 7.07l-1.41-1.41A7.938 7.938 0 0 0 21 12c0-2.21-.89-4.22-2.34-5.66l1.41-1.41m-2.83 2.83A5.98 5.98 0 0 1 19 12c0 1.65-.67 3.15-1.76 4.24l-1.41-1.41A3.99 3.99 0 0 0 17 12c0-1.11-.45-2.11-1.17-2.83l1.41-1.41M13 10a2 2 0 0 1 2 2 2 2 0 0 1-2 2 2 2 0 0 1-2-2 2 2 0 0 1 2-2m-1.5-9A2.5 2.5 0 0 1 14 3.5V8h-2V4H3v15h9v-3h2v4.5a2.5 2.5 0 0 1-2.5 2.5h-8A2.5 2.5 0 0 1 1 20.5v-17A2.5 2.5 0 0 1 3.5 1h8Z" transform="matrix(1.5 0 0 1.5 468 324)" id="mdi-cellphone-wireless" fill="#fff"/><path d="M19.07 14.93 22 12l-2.93-2.93V4.93h-4.14L12 2 9.07 4.93H4.93v4.14L2 12l2.93 2.93v4.14h4.14L12 22l2.93-2.93h4.14v-4.14M21.41 12l-2.34 2.34v-1.88h-5.38l-.46-.46.46-.46h5.38V9.66L21.41 12m-2.75 2.76-1.34 1.33-3.21-3.22h4.55v1.89m-6.2-1.66-.46-.45-.46.45v-.64h-.64l.46-.46-.46-.46h.64v-.64l.46.46.46-.46v.64h.64l-.45.46.45.46h-.64v.64m1.65-1.97 3.21-3.22 1.34 1.33v1.89h-4.55m4.55-5.78v3.3l-1.34-1.33-3.82 3.81h-.63v-.63l3.81-3.82-1.33-1.33h3.31m-5.79 4.54V5.35h1.89l1.33 1.33-3.22 3.21M12 2.59l2.34 2.34h-1.88v5.38l-.46.46-.46-.46V4.93H9.66L12 2.59m-.87 7.3L7.91 6.68l1.33-1.33h1.89v4.54M5.35 5.35h3.3L7.32 6.68l3.81 3.82v.63h-.63L6.68 7.32 5.35 8.65v-3.3m0 3.89 1.33-1.33 3.21 3.22H5.35V9.24M2.59 12l2.34-2.34v1.88h5.38l.46.46-.46.46H4.93v1.88L2.59 12m7.3.87-3.21 3.22-1.33-1.33v-1.89h4.54m-4.54 5.79v-3.31l1.33 1.33 3.82-3.81h.63v.63l-3.81 3.82 1.33 1.33h-3.3m5.78-4.54v4.55H9.24l-1.33-1.34 3.22-3.21m.87 7.3-2.34-2.34h1.88v-5.38l.46-.46.46.46v5.38h1.88L12 21.41m.87-7.3 3.22 3.21-1.33 1.34h-1.89v-4.55m2.48 4.55 1.33-1.34-3.81-3.82v-.63h.63l3.82 3.81 1.33-1.33v3.31h-3.3Z" transform="matrix(1.5 0 0 1.5 504 324)" id="mdi-centos" fill="#555"/><path d="M19.07 14.93 22 12l-2.93-2.93V4.93h-4.14L12 2 9.07 4.93H4.93v4.14L2 12l2.93 2.93v4.14h4.14L12 22l2.93-2.93h4.14v-4.14M21.41 12l-2.34 2.34v-1.88h-5.38l-.46-.46.46-.46h5.38V9.66L21.41 12m-2.75 2.76-1.34 1.33-3.21-3.22h4.55v1.89m-6.2-1.66-.46-.45-.46.45v-.64h-.64l.46-.46-.46-.46h.64v-.64l.46.46.46-.46v.64h.64l-.45.46.45.46h-.64v.64m1.65-1.97 3.21-3.22 1.34 1.33v1.89h-4.55m4.55-5.78v3.3l-1.34-1.33-3.82 3.81h-.63v-.63l3.81-3.82-1.33-1.33h3.31m-5.79 4.54V5.35h1.89l1.33 1.33-3.22 3.21M12 2.59l2.34 2.34h-1.88v5.38l-.46.46-.46-.46V4.93H9.66L12 2.59m-.87 7.3L7.91 6.68l1.33-1.33h1.89v4.54M5.35 5.35h3.3L7.32 6.68l3.81 3.82v.63h-.63L6.68 7.32 5.35 8.65v-3.3m0 3.89 1.33-1.33 3.21 3.22H5.35V9.24M2.59 12l2.34-2.34v1.88h5.38l.46.46-.46.46H4.93v1.88L2.59 12m7.3.87-3.21 3.22-1.33-1.33v-1.89h4.54m-4.54 5.79v-3.31l1.33 1.33 3.82-3.81h.63v.63l-3.81 3.82 1.33 1.33h-3.3m5.78-4.54v4.55H9.24l-1.33-1.34 3.22-3.21m.87 7.3-2.34-2.34h1.88v-5.38l.46-.46.46.46v5.38h1.88L12 21.41m.87-7.3 3.22 3.21-1.33 1.34h-1.89v-4.55m2.48 4.55 1.33-1.34-3.81-3.82v-.63h.63l3.82 3.81 1.33-1.33v3.31h-3.3Z" transform="matrix(1.5 0 0 1.5 540 324)" id="mdi-centos" fill="#fff"/><path d="M4 3c-1.11 0-2 .89-2 2v10a2 2 0 0 0 2 2h8v5l3-3 3 3v-5h2a2 2 0 0 0 2-2V5a2 2 0 0 0-2-2H4m8 2 3 2 3-2v3.5l3 1.5-3 1.5V15l-3-2-3 2v-3.5L9 10l3-1.5V5M4 5h5v2H4V5m0 4h3v2H4V9m0 4h5v2H4v-2Z" transform="matrix(1.5 0 0 1.5 576 324)" id="mdi-certificate" fill="#555"/><path d="M4 3c-1.11 0-2 .89-2 2v10a2 2 0 0 0 2 2h8v5l3-3 3 3v-5h2a2 2 0 0 0 2-2V5a2 2 0 0 0-2-2H4m8 2 3 2 3-2v3.5l3 1.5-3 1.5V15l-3-2-3 2v-3.5L9 10l3-1.5V5M4 5h5v2H4V5m0 4h3v2H4V9m0 4h5v2H4v-2Z" transform="matrix(1.5 0 0 1.5 612 324)" id="mdi-certificate" fill="#fff"/><path d="m13 21 2-1 2 1v-7h-4m4-5V7l-2 1-2-1v2l-2 1 2 1v2l2-1 2 1v-2l2-1m1-7H4a2 2 0 0 0-2 2v10a2 2 0 0 0 2 2h7v-2H4V5h16v10h-1v2h1a2 2 0 0 0 2-2V5a2 2 0 0 0-2-2m-9 5H5V6h6m-2 5H5V9h4m2 5H5v-2h6Z" transform="matrix(1.5 0 0 1.5 648 324)" id="mdi-certificate-outline" fill="#555"/><path d="m13 21 2-1 2 1v-7h-4m4-5V7l-2 1-2-1v2l-2 1 2 1v2l2-1 2 1v-2l2-1m1-7H4a2 2 0 0 0-2 2v10a2 2 0 0 0 2 2h7v-2H4V5h16v10h-1v2h1a2 2 0 0 0 2-2V5a2 2 0 0 0-2-2m-9 5H5V6h6m-2 5H5V9h4m2 5H5v-2h6Z" transform="matrix(1.5 0 0 1.5 684 324)" id="mdi-certificate-outline" fill="#fff"/></svg>