<svg xmlns="http://www.w3.org/2000/svg" width="720" height="900"><path d="M13 9.8v.9l-1.7.2c-2.6.4-4.5 1.4-5.9 2.7 1.7-.5 3.5-.8 5.6-.8h2v1.3l2.2-2.1L13 9.8M11 5l7 7-7 7v-4.1c-5 0-8.5 1.6-11 5.1 1-5 4-10 11-11m6-1V5l7 7-7 7v-3l4-4" transform="scale(1.5)" id="mdi-share-all-outline" fill="#555"/><path d="M13 9.8v.9l-1.7.2c-2.6.4-4.5 1.4-5.9 2.7 1.7-.5 3.5-.8 5.6-.8h2v1.3l2.2-2.1L13 9.8M11 5l7 7-7 7v-4.1c-5 0-8.5 1.6-11 5.1 1-5 4-10 11-11m6-1V5l7 7-7 7v-3l4-4" transform="translate(36) scale(1.5)" id="mdi-share-all-outline" fill="#fff"/><path d="M12 2C6.5 2 2 6.5 2 12s4.5 10 10 10 10-4.5 10-10S17.5 2 12 2m2 14v-3c-3.61 0-6.19 1.43-8 4 .72-3.67 2.94-7.27 8-8V6l5 5-5 5Z" transform="translate(72) scale(1.5)" id="mdi-share-circle" fill="#555"/><path d="M12 2C6.5 2 2 6.5 2 12s4.5 10 10 10 10-4.5 10-10S17.5 2 12 2m2 14v-3c-3.61 0-6.19 1.43-8 4 .72-3.67 2.94-7.27 8-8V6l5 5-5 5Z" transform="translate(108) scale(1.5)" id="mdi-share-circle" fill="#fff"/><path d="m20.8 22.7-5.2-5.2L14 19v-3.1l-.9-1c-4.5.3-7.7 1.9-10.1 5.2.58-3.79 2.72-7.16 5.9-9.3L1.1 3l1.3-1.3 19.7 19.8m-4-6.6L21 12l-7-7v4l-1.5.3" transform="translate(144) scale(1.5)" id="mdi-share-off" fill="#555"/><path d="m20.8 22.7-5.2-5.2L14 19v-3.1l-.9-1c-4.5.3-7.7 1.9-10.1 5.2.58-3.79 2.72-7.16 5.9-9.3L1.1 3l1.3-1.3 19.7 19.8m-4-6.6L21 12l-7-7v4l-1.5.3" transform="translate(180) scale(1.5)" id="mdi-share-off" fill="#fff"/><path d="M22.1 21.5 2.4 1.7 1.1 3l7.8 7.8C5.4 12.9 3.7 16.4 3 20c2.3-3.3 5.6-4.9 10-5.1l1 1V19l1.6-1.6 5.2 5.3M8.3 13.8c.64-.58 1.35-1.09 2.1-1.5l.9.8m2.9-2.1-1.7-1.7L14 9V5l7 7-2.9 2.9-1.4-1.4 1.5-1.5L16 9.8v.9" transform="translate(216) scale(1.5)" id="mdi-share-off-outline" fill="#555"/><path d="M22.1 21.5 2.4 1.7 1.1 3l7.8 7.8C5.4 12.9 3.7 16.4 3 20c2.3-3.3 5.6-4.9 10-5.1l1 1V19l1.6-1.6 5.2 5.3M8.3 13.8c.64-.58 1.35-1.09 2.1-1.5l.9.8m2.9-2.1-1.7-1.7L14 9V5l7 7-2.9 2.9-1.4-1.4 1.5-1.5L16 9.8v.9" transform="translate(252) scale(1.5)" id="mdi-share-off-outline" fill="#fff"/><path d="M14 5v4C7 10 4 15 3 20c2.5-3.5 6-5.1 11-5.1V19l7-7-7-7m2 4.83L18.17 12 16 14.17V12.9h-2c-2.07 0-3.93.38-5.66.95 1.4-1.39 3.2-2.48 5.94-2.85l1.72-.27v-.9Z" transform="translate(288) scale(1.5)" id="mdi-share-outline" fill="#555"/><path d="M14 5v4C7 10 4 15 3 20c2.5-3.5 6-5.1 11-5.1V19l7-7-7-7m2 4.83L18.17 12 16 14.17V12.9h-2c-2.07 0-3.93.38-5.66.95 1.4-1.39 3.2-2.48 5.94-2.85l1.72-.27v-.9Z" transform="translate(324) scale(1.5)" id="mdi-share-outline" fill="#fff"/><path d="M18 16.08c-.76 0-1.44.3-1.96.77L8.91 12.7c.05-.23.09-.46.09-.7 0-.24-.04-.47-.09-.7l7.05-4.11c.54.5 1.25.81 2.04.81a3 3 0 0 0 3-3 3 3 0 0 0-3-3 3 3 0 0 0-3 3c0 .24.04.47.09.7L8.04 9.81C7.5 9.31 6.79 9 6 9a3 3 0 0 0-3 3 3 3 0 0 0 3 3c.79 0 1.5-.31 2.04-.81l7.12 4.15c-.05.21-.08.43-.08.66 0 1.61 1.31 2.91 2.92 2.91 1.61 0 2.92-1.3 2.92-2.91A2.92 2.92 0 0 0 18 16.08Z" transform="translate(360) scale(1.5)" id="mdi-share-variant" fill="#555"/><path d="M18 16.08c-.76 0-1.44.3-1.96.77L8.91 12.7c.05-.23.09-.46.09-.7 0-.24-.04-.47-.09-.7l7.05-4.11c.54.5 1.25.81 2.04.81a3 3 0 0 0 3-3 3 3 0 0 0-3-3 3 3 0 0 0-3 3c0 .24.04.47.09.7L8.04 9.81C7.5 9.31 6.79 9 6 9a3 3 0 0 0-3 3 3 3 0 0 0 3 3c.79 0 1.5-.31 2.04-.81l7.12 4.15c-.05.21-.08.43-.08.66 0 1.61 1.31 2.91 2.92 2.91 1.61 0 2.92-1.3 2.92-2.91A2.92 2.92 0 0 0 18 16.08Z" transform="translate(396) scale(1.5)" id="mdi-share-variant" fill="#fff"/><path d="M18 16.08c-.76 0-1.44.3-1.96.77L8.91 12.7c.05-.23.09-.46.09-.7s-.04-.47-.09-.7l7.05-4.11c.54.5 1.25.81 2.04.81 1.66 0 3-1.34 3-3s-1.34-3-3-3-3 1.34-3 3c0 .24.04.47.09.7L8.04 9.81C7.5 9.31 6.79 9 6 9c-1.66 0-3 1.34-3 3s1.34 3 3 3c.79 0 1.5-.31 2.04-.81l7.12 4.15c-.05.21-.08.43-.08.66 0 1.61 1.31 2.91 2.92 2.91s2.92-1.3 2.92-2.91-1.31-2.92-2.92-2.92M18 4c.55 0 1 .45 1 1s-.45 1-1 1-1-.45-1-1 .45-1 1-1M6 13c-.55 0-1-.45-1-1s.45-1 1-1 1 .45 1 1-.45 1-1 1m12 7c-.55 0-1-.45-1-1s.45-1 1-1 1 .45 1 1-.45 1-1 1Z" transform="translate(432) scale(1.5)" id="mdi-share-variant-outline" fill="#555"/><path d="M18 16.08c-.76 0-1.44.3-1.96.77L8.91 12.7c.05-.23.09-.46.09-.7s-.04-.47-.09-.7l7.05-4.11c.54.5 1.25.81 2.04.81 1.66 0 3-1.34 3-3s-1.34-3-3-3-3 1.34-3 3c0 .24.04.47.09.7L8.04 9.81C7.5 9.31 6.79 9 6 9c-1.66 0-3 1.34-3 3s1.34 3 3 3c.79 0 1.5-.31 2.04-.81l7.12 4.15c-.05.21-.08.43-.08.66 0 1.61 1.31 2.91 2.92 2.91s2.92-1.3 2.92-2.91-1.31-2.92-2.92-2.92M18 4c.55 0 1 .45 1 1s-.45 1-1 1-1-.45-1-1 .45-1 1-1M6 13c-.55 0-1-.45-1-1s.45-1 1-1 1 .45 1 1-.45 1-1 1m12 7c-.55 0-1-.45-1-1s.45-1 1-1 1 .45 1 1-.45 1-1 1Z" transform="translate(468) scale(1.5)" id="mdi-share-variant-outline" fill="#fff"/><path d="M15.56 9.09C14.66 7.18 12.54 6 11 6c.47 1.4.28 2.57-.05 3.43C8.45 10 6 11 6 11S3 7 1 7l2 6-1 4c2 0 4-3 4-3s5 2 8 2v2c.65 0 1.91-.83 2.73-2.23 1.24-.21 2.27-.56 3.14-.96-.15-.18-.34-.37-.59-.51-.65-.39-1.46-.63-2.28-.8.82-.16 1.67-.28 2.59-.15.46.06.95.19 1.41.51.1.06.17.14.24.19C22.4 13.26 23 12.44 23 12c0-.87-3.81-2.5-7.44-2.91M18 12c-.55 0-1-.45-1-1 0-.24.1-.45.23-.62.61.12 1.2.29 1.74.46.03.05.03.1.03.16 0 .55-.45 1-1 1Z" transform="translate(504) scale(1.5)" id="mdi-shark" fill="#555"/><path d="M15.56 9.09C14.66 7.18 12.54 6 11 6c.47 1.4.28 2.57-.05 3.43C8.45 10 6 11 6 11S3 7 1 7l2 6-1 4c2 0 4-3 4-3s5 2 8 2v2c.65 0 1.91-.83 2.73-2.23 1.24-.21 2.27-.56 3.14-.96-.15-.18-.34-.37-.59-.51-.65-.39-1.46-.63-2.28-.8.82-.16 1.67-.28 2.59-.15.46.06.95.19 1.41.51.1.06.17.14.24.19C22.4 13.26 23 12.44 23 12c0-.87-3.81-2.5-7.44-2.91M18 12c-.55 0-1-.45-1-1 0-.24.1-.45.23-.62.61.12 1.2.29 1.74.46.03.05.03.1.03.16 0 .55-.45 1-1 1Z" transform="translate(540) scale(1.5)" id="mdi-shark" fill="#fff"/><path d="M22 16v2h-2c-1.4 0-2.8-.4-4-1-2.5 1.3-5.5 1.3-8 0-1.2.6-2.6 1-4 1H2v-2h2c1.4 0 2.8-.5 4-1.3 2.4 1.7 5.6 1.7 8 0 1.2.8 2.6 1.3 4 1.3h2M5.28 13.79c.54-.16 1.09-.41 1.61-.75l1.14-.77 1.13.8C10 13.66 11 14 12 14c1 0 2-.34 2.84-.93l1.13-.8 1.14.77c.82.55 1.72.86 2.56.93C18.24 7.4 12.37 2 6 2c-.35 0-.67.18-.85.47-.18.3-.2.67-.04.98 2.17 4.34 1.5 7.84.17 10.34M16 18.7c-2.4 1.7-5.6 1.7-8 0-1.2.8-2.6 1.3-4 1.3H2v2h2c1.4 0 2.8-.4 4-1 2.5 1.3 5.5 1.3 8 0 1.2.6 2.6 1 4 1h2v-2h-2c-1.4 0-2.8-.5-4-1.3Z" transform="translate(576) scale(1.5)" id="mdi-shark-fin" fill="#555"/><path d="M22 16v2h-2c-1.4 0-2.8-.4-4-1-2.5 1.3-5.5 1.3-8 0-1.2.6-2.6 1-4 1H2v-2h2c1.4 0 2.8-.5 4-1.3 2.4 1.7 5.6 1.7 8 0 1.2.8 2.6 1.3 4 1.3h2M5.28 13.79c.54-.16 1.09-.41 1.61-.75l1.14-.77 1.13.8C10 13.66 11 14 12 14c1 0 2-.34 2.84-.93l1.13-.8 1.14.77c.82.55 1.72.86 2.56.93C18.24 7.4 12.37 2 6 2c-.35 0-.67.18-.85.47-.18.3-.2.67-.04.98 2.17 4.34 1.5 7.84.17 10.34M16 18.7c-2.4 1.7-5.6 1.7-8 0-1.2.8-2.6 1.3-4 1.3H2v2h2c1.4 0 2.8-.4 4-1 2.5 1.3 5.5 1.3 8 0 1.2.6 2.6 1 4 1h2v-2h-2c-1.4 0-2.8-.5-4-1.3Z" transform="translate(612) scale(1.5)" id="mdi-shark-fin" fill="#fff"/><path d="M22 16v2h-2c-1.4 0-2.8-.4-4-1-2.5 1.3-5.5 1.3-8 0-1.2.6-2.6 1-4 1H2v-2h2c1.4 0 2.8-.5 4-1.3 2.4 1.7 5.6 1.7 8 0 1.2.8 2.6 1.3 4 1.3h2M5.28 13.79c.54-.16 1.09-.41 1.61-.75L8 12.28c.69-2.28.78-5.01-.41-8.14 4.36.75 8.3 4.51 9.78 9.05.75.45 1.54.72 2.29.78C18.24 7.4 12.37 2 6 2c-.35 0-.67.18-.85.47-.18.3-.2.67-.04.98 2.17 4.34 1.5 7.84.17 10.34M16 18.7c-2.4 1.7-5.6 1.7-8 0-1.2.8-2.6 1.3-4 1.3H2v2h2c1.4 0 2.8-.4 4-1 2.5 1.3 5.5 1.3 8 0 1.2.6 2.6 1 4 1h2v-2h-2c-1.4 0-2.8-.5-4-1.3Z" transform="translate(648) scale(1.5)" id="mdi-shark-fin-outline" fill="#555"/><path d="M22 16v2h-2c-1.4 0-2.8-.4-4-1-2.5 1.3-5.5 1.3-8 0-1.2.6-2.6 1-4 1H2v-2h2c1.4 0 2.8-.5 4-1.3 2.4 1.7 5.6 1.7 8 0 1.2.8 2.6 1.3 4 1.3h2M5.28 13.79c.54-.16 1.09-.41 1.61-.75L8 12.28c.69-2.28.78-5.01-.41-8.14 4.36.75 8.3 4.51 9.78 9.05.75.45 1.54.72 2.29.78C18.24 7.4 12.37 2 6 2c-.35 0-.67.18-.85.47-.18.3-.2.67-.04.98 2.17 4.34 1.5 7.84.17 10.34M16 18.7c-2.4 1.7-5.6 1.7-8 0-1.2.8-2.6 1.3-4 1.3H2v2h2c1.4 0 2.8-.4 4-1 2.5 1.3 5.5 1.3 8 0 1.2.6 2.6 1 4 1h2v-2h-2c-1.4 0-2.8-.5-4-1.3Z" transform="translate(684) scale(1.5)" id="mdi-shark-fin-outline" fill="#fff"/><path d="m11.26 8.06 7.27 7.27c.47-.16.93-.33 1.34-.52-.15-.18-.34-.37-.59-.51-.65-.39-1.46-.63-2.28-.8.82-.16 1.67-.28 2.59-.15.46.06.95.19 1.41.51.1.06.17.14.24.19C22.4 13.26 23 12.44 23 12c0-.87-3.81-2.5-7.44-2.91C14.66 7.18 12.54 6 11 6c.25.76.31 1.45.26 2.06m5.97 2.32c.61.12 1.2.29 1.74.46.03.05.03.1.03.16 0 .55-.45 1-1 1s-1-.45-1-1c0-.24.1-.45.23-.62m4.88 11.08-1.27 1.27-5.42-5.42c-.54.44-1.07.69-1.42.69v-2c-3 0-8-2-8-2s-2 3-4 3l1-4-2-6c2 0 5 4 5 4s.96-.38 2.3-.81L1.11 3l1.28-1.27 19.72 19.73Z" transform="matrix(1.5 0 0 1.5 0 36)" id="mdi-shark-off" fill="#555"/><path d="m11.26 8.06 7.27 7.27c.47-.16.93-.33 1.34-.52-.15-.18-.34-.37-.59-.51-.65-.39-1.46-.63-2.28-.8.82-.16 1.67-.28 2.59-.15.46.06.95.19 1.41.51.1.06.17.14.24.19C22.4 13.26 23 12.44 23 12c0-.87-3.81-2.5-7.44-2.91C14.66 7.18 12.54 6 11 6c.25.76.31 1.45.26 2.06m5.97 2.32c.61.12 1.2.29 1.74.46.03.05.03.1.03.16 0 .55-.45 1-1 1s-1-.45-1-1c0-.24.1-.45.23-.62m4.88 11.08-1.27 1.27-5.42-5.42c-.54.44-1.07.69-1.42.69v-2c-3 0-8-2-8-2s-2 3-4 3l1-4-2-6c2 0 5 4 5 4s.96-.38 2.3-.81L1.11 3l1.28-1.27 19.72 19.73Z" transform="matrix(1.5 0 0 1.5 36 36)" id="mdi-shark-off" fill="#fff"/><path d="M20 8.5a2.5 2.5 0 0 1-2.5 2.5c-1.08 0-2-.69-2.34-1.64-.44.39-1.02.64-1.66.64-.56 0-1.08-.19-1.5-.5-.42.31-.93.5-1.5.5-.64 0-1.22-.25-1.66-.64C8.5 10.31 7.58 11 6.5 11A2.5 2.5 0 0 1 4 8.5c0-1.24.91-2.27 2.1-2.46-.06-.17-.1-.35-.1-.54A1.5 1.5 0 0 1 7.5 4c.2 0 .39.04.56.11C8.23 3.47 8.81 3 9.5 3c.25 0 .5.07.68.17C10.5 2.5 11.19 2 12 2s1.5.5 1.82 1.17c.18-.1.43-.17.68-.17.69 0 1.27.47 1.44 1.11.17-.07.36-.11.56-.11A1.5 1.5 0 0 1 18 5.5c0 .19-.04.37-.1.54 1.19.19 2.1 1.22 2.1 2.46M10 12a1 1 0 0 0-1 1 1 1 0 0 0 1 1 1 1 0 0 0 1-1 1 1 0 0 0-1-1m4 0a1 1 0 0 0-1 1 1 1 0 0 0 1 1 1 1 0 0 0 1-1 1 1 0 0 0-1-1m6.23-1.34c-.64.81-1.62 1.34-2.73 1.34-.45 0-.88-.1-1.29-.27-.01 2.55-.38 5.63-1.76 7.22-.52.59-1.15.91-1.95 1.01V18h-1v1.96c-.8-.1-1.43-.41-1.95-1.01-1.39-1.6-1.76-4.66-1.77-7.21-.4.16-.83.26-1.28.26-1.11 0-2.09-.53-2.73-1.34C2.88 11.55 2 12 2 12s1 2 3 2c.36 0 .64-.04.88-.09C6.22 17.73 7.58 22 12 22s5.78-4.27 6.12-8.09c.24.05.52.09.88.09 2 0 3-2 3-2s-.88-.45-1.77-1.34Z" transform="matrix(1.5 0 0 1.5 72 36)" id="mdi-sheep" fill="#555"/><path d="M20 8.5a2.5 2.5 0 0 1-2.5 2.5c-1.08 0-2-.69-2.34-1.64-.44.39-1.02.64-1.66.64-.56 0-1.08-.19-1.5-.5-.42.31-.93.5-1.5.5-.64 0-1.22-.25-1.66-.64C8.5 10.31 7.58 11 6.5 11A2.5 2.5 0 0 1 4 8.5c0-1.24.91-2.27 2.1-2.46-.06-.17-.1-.35-.1-.54A1.5 1.5 0 0 1 7.5 4c.2 0 .39.04.56.11C8.23 3.47 8.81 3 9.5 3c.25 0 .5.07.68.17C10.5 2.5 11.19 2 12 2s1.5.5 1.82 1.17c.18-.1.43-.17.68-.17.69 0 1.27.47 1.44 1.11.17-.07.36-.11.56-.11A1.5 1.5 0 0 1 18 5.5c0 .19-.04.37-.1.54 1.19.19 2.1 1.22 2.1 2.46M10 12a1 1 0 0 0-1 1 1 1 0 0 0 1 1 1 1 0 0 0 1-1 1 1 0 0 0-1-1m4 0a1 1 0 0 0-1 1 1 1 0 0 0 1 1 1 1 0 0 0 1-1 1 1 0 0 0-1-1m6.23-1.34c-.64.81-1.62 1.34-2.73 1.34-.45 0-.88-.1-1.29-.27-.01 2.55-.38 5.63-1.76 7.22-.52.59-1.15.91-1.95 1.01V18h-1v1.96c-.8-.1-1.43-.41-1.95-1.01-1.39-1.6-1.76-4.66-1.77-7.21-.4.16-.83.26-1.28.26-1.11 0-2.09-.53-2.73-1.34C2.88 11.55 2 12 2 12s1 2 3 2c.36 0 .64-.04.88-.09C6.22 17.73 7.58 22 12 22s5.78-4.27 6.12-8.09c.24.05.52.09.88.09 2 0 3-2 3-2s-.88-.45-1.77-1.34Z" transform="matrix(1.5 0 0 1.5 108 36)" id="mdi-sheep" fill="#fff"/><path d="M12 1 3 5v6c0 5.55 3.84 10.74 9 12 5.16-1.26 9-6.45 9-12V5l-9-4Z" transform="matrix(1.5 0 0 1.5 144 36)" id="mdi-shield" fill="#555"/><path d="M12 1 3 5v6c0 5.55 3.84 10.74 9 12 5.16-1.26 9-6.45 9-12V5l-9-4Z" transform="matrix(1.5 0 0 1.5 180 36)" id="mdi-shield" fill="#fff"/><path d="M12 1 3 5v6c0 5.55 3.84 10.74 9 12 5.16-1.26 9-6.45 9-12V5l-9-4m0 4a3 3 0 0 1 3 3 3 3 0 0 1-3 3 3 3 0 0 1-3-3 3 3 0 0 1 3-3m5.13 12A9.69 9.69 0 0 1 12 20.92 9.69 9.69 0 0 1 6.87 17c-.34-.5-.63-1-.87-1.53 0-1.65 2.71-3 6-3s6 1.32 6 3c-.24.53-.53 1.03-.87 1.53Z" transform="matrix(1.5 0 0 1.5 216 36)" id="mdi-shield-account" fill="#555"/><path d="M12 1 3 5v6c0 5.55 3.84 10.74 9 12 5.16-1.26 9-6.45 9-12V5l-9-4m0 4a3 3 0 0 1 3 3 3 3 0 0 1-3 3 3 3 0 0 1-3-3 3 3 0 0 1 3-3m5.13 12A9.69 9.69 0 0 1 12 20.92 9.69 9.69 0 0 1 6.87 17c-.34-.5-.63-1-.87-1.53 0-1.65 2.71-3 6-3s6 1.32 6 3c-.24.53-.53 1.03-.87 1.53Z" transform="matrix(1.5 0 0 1.5 252 36)" id="mdi-shield-account" fill="#fff"/><path d="M12 1 3 5v6c0 5.55 3.84 10.74 9 12 5.16-1.26 9-6.45 9-12V5l-9-4m0 2.18 7 3.12v4.92c0 1.7-.5 3.43-1.35 4.95C16 14.94 13.26 14.5 12 14.5c-1.26 0-4 .44-5.65 1.67C5.5 14.65 5 12.92 5 11.22V6.3l7-3.12M12 6a3.5 3.5 0 0 0-3.5 3.5A3.5 3.5 0 0 0 12 13a3.5 3.5 0 0 0 3.5-3.5A3.5 3.5 0 0 0 12 6m0 2a1.5 1.5 0 0 1 1.5 1.5A1.5 1.5 0 0 1 12 11a1.5 1.5 0 0 1-1.5-1.5A1.5 1.5 0 0 1 12 8m0 8.5c1.57 0 3.64.61 4.53 1.34C15.29 19.38 13.7 20.55 12 21c-1.7-.45-3.29-1.62-4.53-3.16.9-.73 2.96-1.34 4.53-1.34Z" transform="matrix(1.5 0 0 1.5 288 36)" id="mdi-shield-account-outline" fill="#555"/><path d="M12 1 3 5v6c0 5.55 3.84 10.74 9 12 5.16-1.26 9-6.45 9-12V5l-9-4m0 2.18 7 3.12v4.92c0 1.7-.5 3.43-1.35 4.95C16 14.94 13.26 14.5 12 14.5c-1.26 0-4 .44-5.65 1.67C5.5 14.65 5 12.92 5 11.22V6.3l7-3.12M12 6a3.5 3.5 0 0 0-3.5 3.5A3.5 3.5 0 0 0 12 13a3.5 3.5 0 0 0 3.5-3.5A3.5 3.5 0 0 0 12 6m0 2a1.5 1.5 0 0 1 1.5 1.5A1.5 1.5 0 0 1 12 11a1.5 1.5 0 0 1-1.5-1.5A1.5 1.5 0 0 1 12 8m0 8.5c1.57 0 3.64.61 4.53 1.34C15.29 19.38 13.7 20.55 12 21c-1.7-.45-3.29-1.62-4.53-3.16.9-.73 2.96-1.34 4.53-1.34Z" transform="matrix(1.5 0 0 1.5 324 36)" id="mdi-shield-account-outline" fill="#fff"/><path d="M17 11c.3 0 .7 0 1 .1V6.3L10.5 3 3 6.3v4.9c0 4.5 3.2 8.8 7.5 9.8.6-.1 1.1-.3 1.6-.5-.7-1-1.1-2.2-1.1-3.5 0-3.3 2.7-6 6-6m0 2c-2.2 0-4 1.8-4 4s1.8 4 4 4 4-1.8 4-4-1.8-4-4-4m0 1.4c.6 0 1.1.5 1.1 1.1 0 .6-.5 1.1-1.1 1.1s-1.1-.5-1.1-1.1.5-1.1 1.1-1.1m0 5.4c-.9 0-1.7-.5-2.2-1.2.1-.7 1.5-1.1 2.2-1.1s2.2.4 2.2 1.1c-.5.7-1.3 1.2-2.2 1.2Z" transform="matrix(1.5 0 0 1.5 360 36)" id="mdi-shield-account-variant" fill="#555"/><path d="M17 11c.3 0 .7 0 1 .1V6.3L10.5 3 3 6.3v4.9c0 4.5 3.2 8.8 7.5 9.8.6-.1 1.1-.3 1.6-.5-.7-1-1.1-2.2-1.1-3.5 0-3.3 2.7-6 6-6m0 2c-2.2 0-4 1.8-4 4s1.8 4 4 4 4-1.8 4-4-1.8-4-4-4m0 1.4c.6 0 1.1.5 1.1 1.1 0 .6-.5 1.1-1.1 1.1s-1.1-.5-1.1-1.1.5-1.1 1.1-1.1m0 5.4c-.9 0-1.7-.5-2.2-1.2.1-.7 1.5-1.1 2.2-1.1s2.2.4 2.2 1.1c-.5.7-1.3 1.2-2.2 1.2Z" transform="matrix(1.5 0 0 1.5 396 36)" id="mdi-shield-account-variant" fill="#fff"/><path d="M17 14.4c.6 0 1.1.5 1.1 1.1s-.5 1.1-1.1 1.1-1.1-.5-1.1-1.1.5-1.1 1.1-1.1m0 3.1c-.7 0-2.2.4-2.2 1.1.5.7 1.3 1.2 2.2 1.2s1.7-.5 2.2-1.2c0-.7-1.5-1.1-2.2-1.1m1-6.4V6.3L10.5 3 3 6.3v4.9c0 4.5 3.2 8.8 7.5 9.8.6-.1 1.1-.3 1.6-.5C13.2 22 15 23 17 23c3.3 0 6-2.7 6-6 0-3-2.2-5.4-5-5.9M11 17c0 .6.1 1.1.2 1.6-.2.1-.5.2-.7.3-3.2-1-5.5-4.2-5.5-7.7V7.6l5.5-2.4L16 7.6v3.5c-2.8.5-5 2.9-5 5.9m6 4c-2.2 0-4-1.8-4-4s1.8-4 4-4 4 1.8 4 4-1.8 4-4 4Z" transform="matrix(1.5 0 0 1.5 432 36)" id="mdi-shield-account-variant-outline" fill="#555"/><path d="M17 14.4c.6 0 1.1.5 1.1 1.1s-.5 1.1-1.1 1.1-1.1-.5-1.1-1.1.5-1.1 1.1-1.1m0 3.1c-.7 0-2.2.4-2.2 1.1.5.7 1.3 1.2 2.2 1.2s1.7-.5 2.2-1.2c0-.7-1.5-1.1-2.2-1.1m1-6.4V6.3L10.5 3 3 6.3v4.9c0 4.5 3.2 8.8 7.5 9.8.6-.1 1.1-.3 1.6-.5C13.2 22 15 23 17 23c3.3 0 6-2.7 6-6 0-3-2.2-5.4-5-5.9M11 17c0 .6.1 1.1.2 1.6-.2.1-.5.2-.7.3-3.2-1-5.5-4.2-5.5-7.7V7.6l5.5-2.4L16 7.6v3.5c-2.8.5-5 2.9-5 5.9m6 4c-2.2 0-4-1.8-4-4s1.8-4 4-4 4 1.8 4 4-1.8 4-4 4Z" transform="matrix(1.5 0 0 1.5 468 36)" id="mdi-shield-account-variant-outline" fill="#fff"/><path d="M12 1 3 5v6c0 5.55 3.84 10.74 9 12 5.16-1.26 9-6.45 9-12V5l-9-4m0 4.68c.5 0 .95.43.95.95v3.48L18 13.26v1.27l-5.05-1.58v3.47l1.26.95v.95L12 17.68l-2.21.64v-.95l1.26-.95v-3.47L6 14.53v-1.27l5.05-3.15V6.63c0-.52.45-.95.95-.95Z" transform="matrix(1.5 0 0 1.5 504 36)" id="mdi-shield-airplane" fill="#555"/><path d="M12 1 3 5v6c0 5.55 3.84 10.74 9 12 5.16-1.26 9-6.45 9-12V5l-9-4m0 4.68c.5 0 .95.43.95.95v3.48L18 13.26v1.27l-5.05-1.58v3.47l1.26.95v.95L12 17.68l-2.21.64v-.95l1.26-.95v-3.47L6 14.53v-1.27l5.05-3.15V6.63c0-.52.45-.95.95-.95Z" transform="matrix(1.5 0 0 1.5 540 36)" id="mdi-shield-airplane" fill="#fff"/><path d="M21 11c0 5.55-3.84 10.74-9 12-5.16-1.26-9-6.45-9-12V5l9-4 9 4v6m-9 10c3.75-1 7-5.46 7-9.78V6.3l-7-3.12L5 6.3v4.92C5 15.54 8.25 20 12 21m0-15.32c.5 0 .95.43.95.95v3.48L18 13.26v1.27l-5.05-1.58v3.47l1.26.95v.95L12 17.68l-2.21.64v-.95l1.26-.95v-3.47L6 14.53v-1.27l5.05-3.15V6.63c0-.52.45-.95.95-.95Z" transform="matrix(1.5 0 0 1.5 576 36)" id="mdi-shield-airplane-outline" fill="#555"/><path d="M21 11c0 5.55-3.84 10.74-9 12-5.16-1.26-9-6.45-9-12V5l9-4 9 4v6m-9 10c3.75-1 7-5.46 7-9.78V6.3l-7-3.12L5 6.3v4.92C5 15.54 8.25 20 12 21m0-15.32c.5 0 .95.43.95.95v3.48L18 13.26v1.27l-5.05-1.58v3.47l1.26.95v.95L12 17.68l-2.21.64v-.95l1.26-.95v-3.47L6 14.53v-1.27l5.05-3.15V6.63c0-.52.45-.95.95-.95Z" transform="matrix(1.5 0 0 1.5 612 36)" id="mdi-shield-airplane-outline" fill="#fff"/><path d="M12 1 3 5v6c0 5.55 3.84 10.74 9 12 5.16-1.26 9-6.45 9-12V5M11 7h2v6h-2m0 2h2v2h-2" transform="matrix(1.5 0 0 1.5 648 36)" id="mdi-shield-alert" fill="#555"/><path d="M12 1 3 5v6c0 5.55 3.84 10.74 9 12 5.16-1.26 9-6.45 9-12V5M11 7h2v6h-2m0 2h2v2h-2" transform="matrix(1.5 0 0 1.5 684 36)" id="mdi-shield-alert" fill="#fff"/><path d="M21 11c0 5.55-3.84 10.74-9 12-5.16-1.26-9-6.45-9-12V5l9-4 9 4v6m-9 10c3.75-1 7-5.46 7-9.78V6.3l-7-3.12L5 6.3v4.92C5 15.54 8.25 20 12 21M11 7h2v6h-2V7m0 8h2v2h-2v-2Z" transform="matrix(1.5 0 0 1.5 0 72)" id="mdi-shield-alert-outline" fill="#555"/><path d="M21 11c0 5.55-3.84 10.74-9 12-5.16-1.26-9-6.45-9-12V5l9-4 9 4v6m-9 10c3.75-1 7-5.46 7-9.78V6.3l-7-3.12L5 6.3v4.92C5 15.54 8.25 20 12 21M11 7h2v6h-2V7m0 8h2v2h-2v-2Z" transform="matrix(1.5 0 0 1.5 36 72)" id="mdi-shield-alert-outline" fill="#fff"/><path d="M11 13h2v1h-2v-1m10-8v6c0 5.5-3.8 10.7-9 12-5.2-1.3-9-6.5-9-12V5l9-4 9 4m-4 5h-2.2c-.2-.6-.6-1.1-1.1-1.5l1.2-1.2-.7-.7L12.8 8H12c-.2 0-.5 0-.7.1L9.9 6.6l-.8.8 1.2 1.2c-.5.3-.9.8-1.1 1.4H7v1h2v1H7v1h2v1H7v1h2.2c.4 1.2 1.5 2 2.8 2s2.4-.8 2.8-2H17v-1h-2v-1h2v-1h-2v-1h2v-1m-6 2h2v-1h-2v1Z" transform="matrix(1.5 0 0 1.5 72 72)" id="mdi-shield-bug" fill="#555"/><path d="M11 13h2v1h-2v-1m10-8v6c0 5.5-3.8 10.7-9 12-5.2-1.3-9-6.5-9-12V5l9-4 9 4m-4 5h-2.2c-.2-.6-.6-1.1-1.1-1.5l1.2-1.2-.7-.7L12.8 8H12c-.2 0-.5 0-.7.1L9.9 6.6l-.8.8 1.2 1.2c-.5.3-.9.8-1.1 1.4H7v1h2v1H7v1h2v1H7v1h2.2c.4 1.2 1.5 2 2.8 2s2.4-.8 2.8-2H17v-1h-2v-1h2v-1h-2v-1h2v-1m-6 2h2v-1h-2v1Z" transform="matrix(1.5 0 0 1.5 108 72)" id="mdi-shield-bug" fill="#fff"/><path d="m9.9 6.6-.8.8 1.2 1.2c-.5.3-.9.8-1.1 1.4H7v1h2v1H7v1h2v1H7v1h2.2c.4 1.2 1.5 2 2.8 2s2.4-.8 2.8-2H17v-1h-2v-1h2v-1h-2v-1h2v-1h-2.2c-.2-.6-.6-1.1-1.1-1.5l1.2-1.2-.7-.7L12.8 8H12c-.2 0-.5 0-.7.1L9.9 6.6M11 11h2v1h-2v-1m0 2h2v1h-2v-1m10-2c0 5.5-3.8 10.7-9 12-5.2-1.3-9-6.5-9-12V5l9-4 9 4v6m-9 10c3.8-1 7-5.5 7-9.8V6.3l-7-3.1-7 3.1v4.9c0 4.3 3.2 8.8 7 9.8Z" transform="matrix(1.5 0 0 1.5 144 72)" id="mdi-shield-bug-outline" fill="#555"/><path d="m9.9 6.6-.8.8 1.2 1.2c-.5.3-.9.8-1.1 1.4H7v1h2v1H7v1h2v1H7v1h2.2c.4 1.2 1.5 2 2.8 2s2.4-.8 2.8-2H17v-1h-2v-1h2v-1h-2v-1h2v-1h-2.2c-.2-.6-.6-1.1-1.1-1.5l1.2-1.2-.7-.7L12.8 8H12c-.2 0-.5 0-.7.1L9.9 6.6M11 11h2v1h-2v-1m0 2h2v1h-2v-1m10-2c0 5.5-3.8 10.7-9 12-5.2-1.3-9-6.5-9-12V5l9-4 9 4v6m-9 10c3.8-1 7-5.5 7-9.8V6.3l-7-3.1-7 3.1v4.9c0 4.3 3.2 8.8 7 9.8Z" transform="matrix(1.5 0 0 1.5 180 72)" id="mdi-shield-bug-outline" fill="#fff"/><path d="M14.42 7.5 16 11H8l1.42-3.5h5M9 12c-.55 0-1 .45-1 1s.45 1 1 1 1-.45 1-1-.45-1-1-1m6 0c-.55 0-1 .45-1 1s.45 1 1 1 1-.45 1-1-.45-1-1-1m6-7v6c0 5.55-3.84 10.74-9 12-5.16-1.26-9-6.45-9-12V5l9-4 9 4m-3 7-2.16-5c-.2-.58-.76-1-1.42-1h-5C8.76 6 8.2 6.42 8 7l-2 5v4c0 .55.45 1 1 1h1c.55 0 1-.45 1-1v-1h6v1c0 .55.45 1 1 1h1c.55 0 1-.45 1-1v-4Z" transform="matrix(1.5 0 0 1.5 216 72)" id="mdi-shield-car" fill="#555"/><path d="M14.42 7.5 16 11H8l1.42-3.5h5M9 12c-.55 0-1 .45-1 1s.45 1 1 1 1-.45 1-1-.45-1-1-1m6 0c-.55 0-1 .45-1 1s.45 1 1 1 1-.45 1-1-.45-1-1-1m6-7v6c0 5.55-3.84 10.74-9 12-5.16-1.26-9-6.45-9-12V5l9-4 9 4m-3 7-2.16-5c-.2-.58-.76-1-1.42-1h-5C8.76 6 8.2 6.42 8 7l-2 5v4c0 .55.45 1 1 1h1c.55 0 1-.45 1-1v-1h6v1c0 .55.45 1 1 1h1c.55 0 1-.45 1-1v-4Z" transform="matrix(1.5 0 0 1.5 252 72)" id="mdi-shield-car" fill="#fff"/><path d="m10 17-4-4 1.41-1.41L10 14.17l6.59-6.59L18 9m-6-8L3 5v6c0 5.55 3.84 10.74 9 12 5.16-1.26 9-6.45 9-12V5l-9-4Z" transform="matrix(1.5 0 0 1.5 288 72)" id="mdi-shield-check" fill="#555"/><path d="m10 17-4-4 1.41-1.41L10 14.17l6.59-6.59L18 9m-6-8L3 5v6c0 5.55 3.84 10.74 9 12 5.16-1.26 9-6.45 9-12V5l-9-4Z" transform="matrix(1.5 0 0 1.5 324 72)" id="mdi-shield-check" fill="#fff"/><path d="M21 11c0 5.55-3.84 10.74-9 12-5.16-1.26-9-6.45-9-12V5l9-4 9 4v6m-9 10c3.75-1 7-5.46 7-9.78V6.3l-7-3.12L5 6.3v4.92C5 15.54 8.25 20 12 21m-2-4-4-4 1.41-1.41L10 14.17l6.59-6.59L18 9" transform="matrix(1.5 0 0 1.5 360 72)" id="mdi-shield-check-outline" fill="#555"/><path d="M21 11c0 5.55-3.84 10.74-9 12-5.16-1.26-9-6.45-9-12V5l9-4 9 4v6m-9 10c3.75-1 7-5.46 7-9.78V6.3l-7-3.12L5 6.3v4.92C5 15.54 8.25 20 12 21m-2-4-4-4 1.41-1.41L10 14.17l6.59-6.59L18 9" transform="matrix(1.5 0 0 1.5 396 72)" id="mdi-shield-check-outline" fill="#fff"/><path d="M12 1 3 5v6c0 5.5 3.8 10.7 9 12 5.2-1.3 9-6.5 9-12V5l-9-4m4 9h-3v8h-2v-8H8V8h3V5h2v3h3v2Z" transform="matrix(1.5 0 0 1.5 432 72)" id="mdi-shield-cross" fill="#555"/><path d="M12 1 3 5v6c0 5.5 3.8 10.7 9 12 5.2-1.3 9-6.5 9-12V5l-9-4m4 9h-3v8h-2v-8H8V8h3V5h2v3h3v2Z" transform="matrix(1.5 0 0 1.5 468 72)" id="mdi-shield-cross" fill="#fff"/><path d="M21 11c0 5.5-3.8 10.7-9 12-5.2-1.3-9-6.5-9-12V5l9-4 9 4v6m-9 10c3.8-1 7-5.5 7-9.8V6.3l-7-3.1-7 3.1v4.9c0 4.3 3.3 8.8 7 9.8m4-12h-3V6h-2v3H8v2h3v8h2v-8h3V9Z" transform="matrix(1.5 0 0 1.5 504 72)" id="mdi-shield-cross-outline" fill="#555"/><path d="M21 11c0 5.5-3.8 10.7-9 12-5.2-1.3-9-6.5-9-12V5l9-4 9 4v6m-9 10c3.8-1 7-5.5 7-9.8V6.3l-7-3.1-7 3.1v4.9c0 4.3 3.3 8.8 7 9.8m4-12h-3V6h-2v3H8v2h3v8h2v-8h3V9Z" transform="matrix(1.5 0 0 1.5 540 72)" id="mdi-shield-cross-outline" fill="#fff"/><path d="m12 1 9 4v6c0 5.55-3.84 10.74-9 12-5.16-1.26-9-6.45-9-12V5l9-4m4 13H8v1.5c0 .27.19.46.47.5h6.96c.31 0 .52-.16.57-.41V14m1-6-2.67 2.67L12 8.34l-2.33 2.33L7 8l1 5h8l1-5Z" transform="matrix(1.5 0 0 1.5 576 72)" id="mdi-shield-crown" fill="#555"/><path d="m12 1 9 4v6c0 5.55-3.84 10.74-9 12-5.16-1.26-9-6.45-9-12V5l9-4m4 13H8v1.5c0 .27.19.46.47.5h6.96c.31 0 .52-.16.57-.41V14m1-6-2.67 2.67L12 8.34l-2.33 2.33L7 8l1 5h8l1-5Z" transform="matrix(1.5 0 0 1.5 612 72)" id="mdi-shield-crown" fill="#fff"/><path d="m12 1 9 4v6c0 5.55-3.84 10.74-9 12-5.16-1.26-9-6.45-9-12V5l9-4m0 2.18L5 6.3v4.92C5 15.54 8.25 20 12 21c3.75-1 7-5.46 7-9.78V6.3l-7-3.12M16 14v1.59c-.04.22-.22.37-.47.41H8.47c-.25-.04-.43-.19-.47-.41V14h8m1-6-1 5H8L7 8l2.67 2.67L12 8.34l2.33 2.33L17 8Z" transform="matrix(1.5 0 0 1.5 648 72)" id="mdi-shield-crown-outline" fill="#555"/><path d="m12 1 9 4v6c0 5.55-3.84 10.74-9 12-5.16-1.26-9-6.45-9-12V5l9-4m0 2.18L5 6.3v4.92C5 15.54 8.25 20 12 21c3.75-1 7-5.46 7-9.78V6.3l-7-3.12M16 14v1.59c-.04.22-.22.37-.47.41H8.47c-.25-.04-.43-.19-.47-.41V14h8m1-6-1 5H8L7 8l2.67 2.67L12 8.34l2.33 2.33L17 8Z" transform="matrix(1.5 0 0 1.5 684 72)" id="mdi-shield-crown-outline" fill="#fff"/><path d="m21.7 14.4-1 1-2.1-2.1 1-1c.2-.2.6-.2.8 0l1.3 1.3c.2.2.2.5 0 .8M12 19.9l6.1-6.1 2.1 2.1-6.1 6.1H12v-2.1m-2-.8 11-11V5l-9-4-9 4v6c0 4.8 2.9 9.3 7 11.3v-3.2Z" transform="matrix(1.5 0 0 1.5 0 108)" id="mdi-shield-edit" fill="#555"/><path d="m21.7 14.4-1 1-2.1-2.1 1-1c.2-.2.6-.2.8 0l1.3 1.3c.2.2.2.5 0 .8M12 19.9l6.1-6.1 2.1 2.1-6.1 6.1H12v-2.1m-2-.8 11-11V5l-9-4-9 4v6c0 4.8 2.9 9.3 7 11.3v-3.2Z" transform="matrix(1.5 0 0 1.5 36 108)" id="mdi-shield-edit" fill="#fff"/><path d="m21.7 13.6-1.3-1.3c-.1-.1-.2-.2-.4-.2-.1 0-.3.1-.4.2l-1 1 2 2 1-1c.3-.2.3-.5.1-.7M12 19.9V22h2.1l6.1-6.1-2-2.1-6.2 6.1m-2 2.4c-4.1-2-7-6.5-7-11.3V5l9-4 9 4v3.1l-2 2V6.3l-7-3.1-7 3.1v4.9c0 3.5 2.2 7.1 5 8.9v2.2Z" transform="matrix(1.5 0 0 1.5 72 108)" id="mdi-shield-edit-outline" fill="#555"/><path d="m21.7 13.6-1.3-1.3c-.1-.1-.2-.2-.4-.2-.1 0-.3.1-.4.2l-1 1 2 2 1-1c.3-.2.3-.5.1-.7M12 19.9V22h2.1l6.1-6.1-2-2.1-6.2 6.1m-2 2.4c-4.1-2-7-6.5-7-11.3V5l9-4 9 4v3.1l-2 2V6.3l-7-3.1-7 3.1v4.9c0 3.5 2.2 7.1 5 8.9v2.2Z" transform="matrix(1.5 0 0 1.5 108 108)" id="mdi-shield-edit-outline" fill="#fff"/><path d="M12 1 3 5v6c0 5.5 3.8 10.7 9 12V1Z" transform="matrix(1.5 0 0 1.5 144 108)" id="mdi-shield-half" fill="#555"/><path d="M12 1 3 5v6c0 5.5 3.8 10.7 9 12V1Z" transform="matrix(1.5 0 0 1.5 180 108)" id="mdi-shield-half" fill="#fff"/><path d="M21 11c0 5.55-3.84 10.74-9 12-5.16-1.26-9-6.45-9-12V5l9-4 9 4v6m-9 10c3.75-1 7-5.46 7-9.78V6.3l-7-3.12V21Z" transform="matrix(1.5 0 0 1.5 216 108)" id="mdi-shield-half-full" fill="#555"/><path d="M21 11c0 5.55-3.84 10.74-9 12-5.16-1.26-9-6.45-9-12V5l9-4 9 4v6m-9 10c3.75-1 7-5.46 7-9.78V6.3l-7-3.12V21Z" transform="matrix(1.5 0 0 1.5 252 108)" id="mdi-shield-half-full" fill="#fff"/><path d="M11 13h2v3h3v-5h2l-6-5-6 5h2v5h3v-3m1-12 9 4v6c0 5.55-3.84 10.74-9 12-5.16-1.26-9-6.45-9-12V5l9-4Z" transform="matrix(1.5 0 0 1.5 288 108)" id="mdi-shield-home" fill="#555"/><path d="M11 13h2v3h3v-5h2l-6-5-6 5h2v5h3v-3m1-12 9 4v6c0 5.55-3.84 10.74-9 12-5.16-1.26-9-6.45-9-12V5l9-4Z" transform="matrix(1.5 0 0 1.5 324 108)" id="mdi-shield-home" fill="#fff"/><path d="M21 11c0 5.55-3.84 10.74-9 12-5.16-1.26-9-6.45-9-12V5l9-4 9 4v6m-9 10c3.75-1 7-5.46 7-9.78V6.3l-7-3.12L5 6.3v4.92C5 15.54 8.25 20 12 21m-1-7h2v3h3v-5h2l-6-5-6 5h2v5h3v-3" transform="matrix(1.5 0 0 1.5 360 108)" id="mdi-shield-home-outline" fill="#555"/><path d="M21 11c0 5.55-3.84 10.74-9 12-5.16-1.26-9-6.45-9-12V5l9-4 9 4v6m-9 10c3.75-1 7-5.46 7-9.78V6.3l-7-3.12L5 6.3v4.92C5 15.54 8.25 20 12 21m-1-7h2v3h3v-5h2l-6-5-6 5h2v5h3v-3" transform="matrix(1.5 0 0 1.5 396 108)" id="mdi-shield-home-outline" fill="#fff"/><path d="M12 8a1 1 0 0 1 1 1 1 1 0 0 1-1 1 1 1 0 0 1-1-1 1 1 0 0 1 1-1m9 3c0 5.55-3.84 10.74-9 12-5.16-1.26-9-6.45-9-12V5l9-4 9 4v6m-9-5a3 3 0 0 0-3 3c0 1.31.83 2.42 2 2.83V18h2v-2h2v-2h-2v-2.17c1.17-.41 2-1.52 2-2.83a3 3 0 0 0-3-3Z" transform="matrix(1.5 0 0 1.5 432 108)" id="mdi-shield-key" fill="#555"/><path d="M12 8a1 1 0 0 1 1 1 1 1 0 0 1-1 1 1 1 0 0 1-1-1 1 1 0 0 1 1-1m9 3c0 5.55-3.84 10.74-9 12-5.16-1.26-9-6.45-9-12V5l9-4 9 4v6m-9-5a3 3 0 0 0-3 3c0 1.31.83 2.42 2 2.83V18h2v-2h2v-2h-2v-2.17c1.17-.41 2-1.52 2-2.83a3 3 0 0 0-3-3Z" transform="matrix(1.5 0 0 1.5 468 108)" id="mdi-shield-key" fill="#fff"/><path d="M21 11c0 5.55-3.84 10.74-9 12-5.16-1.26-9-6.45-9-12V5l9-4 9 4v6m-9 10c3.75-1 7-5.46 7-9.78V6.3l-7-3.12L5 6.3v4.92C5 15.54 8.25 20 12 21m0-15a3 3 0 0 1 3 3c0 1.31-.83 2.42-2 2.83V14h2v2h-2v2h-2v-6.17A2.99 2.99 0 0 1 9 9a3 3 0 0 1 3-3m0 2a1 1 0 0 0-1 1 1 1 0 0 0 1 1 1 1 0 0 0 1-1 1 1 0 0 0-1-1Z" transform="matrix(1.5 0 0 1.5 504 108)" id="mdi-shield-key-outline" fill="#555"/><path d="M21 11c0 5.55-3.84 10.74-9 12-5.16-1.26-9-6.45-9-12V5l9-4 9 4v6m-9 10c3.75-1 7-5.46 7-9.78V6.3l-7-3.12L5 6.3v4.92C5 15.54 8.25 20 12 21m0-15a3 3 0 0 1 3 3c0 1.31-.83 2.42-2 2.83V14h2v2h-2v2h-2v-6.17A2.99 2.99 0 0 1 9 9a3 3 0 0 1 3-3m0 2a1 1 0 0 0-1 1 1 1 0 0 0 1 1 1 1 0 0 0 1-1 1 1 0 0 0-1-1Z" transform="matrix(1.5 0 0 1.5 540 108)" id="mdi-shield-key-outline" fill="#fff"/><path d="M12 1 3 5v6c0 5.55 3.84 10.74 9 12 5.16-1.26 9-6.45 9-12V5l-9-4m2.28 13.08-2.02 2.02c-.6.6-1.39.9-2.18.9-.79 0-1.58-.3-2.18-.9a3.09 3.09 0 0 1 0-4.36l1.25-1.24-.01.56c0 .44.07.89.22 1.31l.05.13-.37.37c-.28.28-.44.66-.44 1.05 0 .4.16.77.44 1.05.56.56 1.53.56 2.09 0l2.01-2.01c.29-.29.44-.66.44-1.05 0-.41-.15-.77-.43-1.05a.83.83 0 0 1-.25-.57c0-.21.1-.41.25-.56.3-.31.85-.3 1.13 0 .58.58.9 1.35.9 2.17 0 .83-.32 1.6-.9 2.18m2.82-2.82-1.25 1.24.01-.56c0-.44-.07-.88-.22-1.3l-.04-.14.36-.37c.29-.28.44-.63.44-1.05 0-.39-.15-.76-.43-1.04-.57-.57-1.54-.57-2.1 0l-2.01 2.01c-.28.28-.44.65-.44 1.05s.15.76.44 1.04c.14.15.24.36.24.57 0 .22-.1.42-.25.57-.15.16-.35.22-.56.22-.2 0-.41-.07-.57-.22a3.054 3.054 0 0 1 0-4.36l2.02-2.02a3.09 3.09 0 0 1 4.36 0c.58.6.9 1.36.9 2.18 0 .82-.32 1.6-.9 2.18Z" transform="matrix(1.5 0 0 1.5 576 108)" id="mdi-shield-link-variant" fill="#555"/><path d="M12 1 3 5v6c0 5.55 3.84 10.74 9 12 5.16-1.26 9-6.45 9-12V5l-9-4m2.28 13.08-2.02 2.02c-.6.6-1.39.9-2.18.9-.79 0-1.58-.3-2.18-.9a3.09 3.09 0 0 1 0-4.36l1.25-1.24-.01.56c0 .44.07.89.22 1.31l.05.13-.37.37c-.28.28-.44.66-.44 1.05 0 .4.16.77.44 1.05.56.56 1.53.56 2.09 0l2.01-2.01c.29-.29.44-.66.44-1.05 0-.41-.15-.77-.43-1.05a.83.83 0 0 1-.25-.57c0-.21.1-.41.25-.56.3-.31.85-.3 1.13 0 .58.58.9 1.35.9 2.17 0 .83-.32 1.6-.9 2.18m2.82-2.82-1.25 1.24.01-.56c0-.44-.07-.88-.22-1.3l-.04-.14.36-.37c.29-.28.44-.63.44-1.05 0-.39-.15-.76-.43-1.04-.57-.57-1.54-.57-2.1 0l-2.01 2.01c-.28.28-.44.65-.44 1.05s.15.76.44 1.04c.14.15.24.36.24.57 0 .22-.1.42-.25.57-.15.16-.35.22-.56.22-.2 0-.41-.07-.57-.22a3.054 3.054 0 0 1 0-4.36l2.02-2.02a3.09 3.09 0 0 1 4.36 0c.58.6.9 1.36.9 2.18 0 .82-.32 1.6-.9 2.18Z" transform="matrix(1.5 0 0 1.5 612 108)" id="mdi-shield-link-variant" fill="#fff"/><path d="M21 11c0 5.55-3.84 10.74-9 12-5.16-1.26-9-6.45-9-12V5l9-4 9 4v6m-9 10c3.75-1 7-5.46 7-9.78V6.3l-7-3.12L5 6.3v4.92C5 15.54 8.25 20 12 21m2.28-11.27c.58.58.9 1.35.9 2.17 0 .83-.32 1.6-.9 2.18l-2.02 2.02c-.6.6-1.39.9-2.18.9-.79 0-1.58-.3-2.18-.9a3.09 3.09 0 0 1 0-4.36l1.25-1.24-.01.56c0 .44.07.89.22 1.3l.04.14-.36.37c-.29.28-.44.63-.44 1.05 0 .39.15.76.43 1.04.57.57 1.54.57 2.1.01l2.01-2.02c.29-.28.44-.65.44-1.04 0-.41-.15-.77-.44-1.05a.866.866 0 0 1-.24-.57c0-.21.1-.42.24-.57.31-.3.86-.3 1.14.01M18 9.08c0 .82-.32 1.6-.9 2.18l-1.25 1.24.01-.56c0-.44-.07-.88-.22-1.3l-.05-.14.37-.37c.29-.28.44-.63.44-1.05 0-.39-.15-.76-.44-1.04-.56-.57-1.53-.57-2.09-.01l-2.01 2.02c-.29.28-.44.65-.44 1.05s.15.76.43 1.04c.15.15.25.36.25.57 0 .22-.1.42-.25.57-.15.15-.35.22-.56.22-.2 0-.41-.07-.57-.22a3.054 3.054 0 0 1 0-4.36l2.02-2.02a3.09 3.09 0 0 1 4.36 0c.58.6.9 1.36.9 2.18Z" transform="matrix(1.5 0 0 1.5 648 108)" id="mdi-shield-link-variant-outline" fill="#555"/><path d="M21 11c0 5.55-3.84 10.74-9 12-5.16-1.26-9-6.45-9-12V5l9-4 9 4v6m-9 10c3.75-1 7-5.46 7-9.78V6.3l-7-3.12L5 6.3v4.92C5 15.54 8.25 20 12 21m2.28-11.27c.58.58.9 1.35.9 2.17 0 .83-.32 1.6-.9 2.18l-2.02 2.02c-.6.6-1.39.9-2.18.9-.79 0-1.58-.3-2.18-.9a3.09 3.09 0 0 1 0-4.36l1.25-1.24-.01.56c0 .44.07.89.22 1.3l.04.14-.36.37c-.29.28-.44.63-.44 1.05 0 .39.15.76.43 1.04.57.57 1.54.57 2.1.01l2.01-2.02c.29-.28.44-.65.44-1.04 0-.41-.15-.77-.44-1.05a.866.866 0 0 1-.24-.57c0-.21.1-.42.24-.57.31-.3.86-.3 1.14.01M18 9.08c0 .82-.32 1.6-.9 2.18l-1.25 1.24.01-.56c0-.44-.07-.88-.22-1.3l-.05-.14.37-.37c.29-.28.44-.63.44-1.05 0-.39-.15-.76-.44-1.04-.56-.57-1.53-.57-2.09-.01l-2.01 2.02c-.29.28-.44.65-.44 1.05s.15.76.43 1.04c.15.15.25.36.25.57 0 .22-.1.42-.25.57-.15.15-.35.22-.56.22-.2 0-.41-.07-.57-.22a3.054 3.054 0 0 1 0-4.36l2.02-2.02a3.09 3.09 0 0 1 4.36 0c.58.6.9 1.36.9 2.18Z" transform="matrix(1.5 0 0 1.5 684 108)" id="mdi-shield-link-variant-outline" fill="#fff"/><path d="M12 1 3 5v6c0 5.55 3.84 10.74 9 12 5.16-1.26 9-6.45 9-12V5l-9-4m0 6c1.4 0 2.8 1.1 2.8 2.5V11c.6 0 1.2.6 1.2 1.3v3.5c0 .6-.6 1.2-1.3 1.2H9.2c-.6 0-1.2-.6-1.2-1.3v-3.5c0-.6.6-1.2 1.2-1.2V9.5C9.2 8.1 10.6 7 12 7m0 1.2c-.8 0-1.5.5-1.5 1.3V11h3V9.5c0-.8-.7-1.3-1.5-1.3Z" transform="matrix(1.5 0 0 1.5 0 144)" id="mdi-shield-lock" fill="#555"/><path d="M12 1 3 5v6c0 5.55 3.84 10.74 9 12 5.16-1.26 9-6.45 9-12V5l-9-4m0 6c1.4 0 2.8 1.1 2.8 2.5V11c.6 0 1.2.6 1.2 1.3v3.5c0 .6-.6 1.2-1.3 1.2H9.2c-.6 0-1.2-.6-1.2-1.3v-3.5c0-.6.6-1.2 1.2-1.2V9.5C9.2 8.1 10.6 7 12 7m0 1.2c-.8 0-1.5.5-1.5 1.3V11h3V9.5c0-.8-.7-1.3-1.5-1.3Z" transform="matrix(1.5 0 0 1.5 36 144)" id="mdi-shield-lock" fill="#fff"/><path d="M12 1 3 5v6c0 5.5 3.8 10.7 9 12 5.2-1.3 9-6.5 9-12V5l-9-4m4 14.8c0 .6-.6 1.2-1.3 1.2H9.2c-.6 0-1.2-.6-1.2-1.3v-3.5c0-.6.6-1.2 1.2-1.2V8.5C9.2 7.1 10.6 6 12 6s2.8 1.1 2.8 2.5V9h-1.3v-.5c0-.8-.7-1.3-1.5-1.3s-1.5.5-1.5 1.3V11h4.3c.6 0 1.2.6 1.2 1.3v3.5Z" transform="matrix(1.5 0 0 1.5 72 144)" id="mdi-shield-lock-open" fill="#555"/><path d="M12 1 3 5v6c0 5.5 3.8 10.7 9 12 5.2-1.3 9-6.5 9-12V5l-9-4m4 14.8c0 .6-.6 1.2-1.3 1.2H9.2c-.6 0-1.2-.6-1.2-1.3v-3.5c0-.6.6-1.2 1.2-1.2V8.5C9.2 7.1 10.6 6 12 6s2.8 1.1 2.8 2.5V9h-1.3v-.5c0-.8-.7-1.3-1.5-1.3s-1.5.5-1.5 1.3V11h4.3c.6 0 1.2.6 1.2 1.3v3.5Z" transform="matrix(1.5 0 0 1.5 108 144)" id="mdi-shield-lock-open" fill="#fff"/><path d="M21 11c0 5.5-3.8 10.7-9 12-5.2-1.3-9-6.5-9-12V5l9-4 9 4v6m-9 10c3.8-1 7-5.5 7-9.8V6.3l-7-3.1-7 3.1v4.9c0 4.3 3.2 8.8 7 9.8m2.8-10h-4.3V8.5c0-.8.7-1.3 1.5-1.3s1.5.5 1.5 1.3V9h1.3v-.5C14.8 7.1 13.4 6 12 6S9.2 7.1 9.2 8.5V11c-.6 0-1.2.6-1.2 1.2v3.5c0 .7.6 1.3 1.2 1.3h5.5c.7 0 1.3-.6 1.3-1.2v-3.5c0-.7-.6-1.3-1.2-1.3Z" transform="matrix(1.5 0 0 1.5 144 144)" id="mdi-shield-lock-open-outline" fill="#555"/><path d="M21 11c0 5.5-3.8 10.7-9 12-5.2-1.3-9-6.5-9-12V5l9-4 9 4v6m-9 10c3.8-1 7-5.5 7-9.8V6.3l-7-3.1-7 3.1v4.9c0 4.3 3.2 8.8 7 9.8m2.8-10h-4.3V8.5c0-.8.7-1.3 1.5-1.3s1.5.5 1.5 1.3V9h1.3v-.5C14.8 7.1 13.4 6 12 6S9.2 7.1 9.2 8.5V11c-.6 0-1.2.6-1.2 1.2v3.5c0 .7.6 1.3 1.2 1.3h5.5c.7 0 1.3-.6 1.3-1.2v-3.5c0-.7-.6-1.3-1.2-1.3Z" transform="matrix(1.5 0 0 1.5 180 144)" id="mdi-shield-lock-open-outline" fill="#fff"/><path d="M21 11c0 5.55-3.84 10.74-9 12-5.16-1.26-9-6.45-9-12V5l9-4 9 4v6m-9 10c3.75-1 7-5.46 7-9.78V6.3l-7-3.12L5 6.3v4.92C5 15.54 8.25 20 12 21m2.8-10V9.5C14.8 8.1 13.4 7 12 7S9.2 8.1 9.2 9.5V11c-.6 0-1.2.6-1.2 1.2v3.5c0 .7.6 1.3 1.2 1.3h5.5c.7 0 1.3-.6 1.3-1.2v-3.5c0-.7-.6-1.3-1.2-1.3m-1.3 0h-3V9.5c0-.8.7-1.3 1.5-1.3s1.5.5 1.5 1.3V11Z" transform="matrix(1.5 0 0 1.5 216 144)" id="mdi-shield-lock-outline" fill="#555"/><path d="M21 11c0 5.55-3.84 10.74-9 12-5.16-1.26-9-6.45-9-12V5l9-4 9 4v6m-9 10c3.75-1 7-5.46 7-9.78V6.3l-7-3.12L5 6.3v4.92C5 15.54 8.25 20 12 21m2.8-10V9.5C14.8 8.1 13.4 7 12 7S9.2 8.1 9.2 9.5V11c-.6 0-1.2.6-1.2 1.2v3.5c0 .7.6 1.3 1.2 1.3h5.5c.7 0 1.3-.6 1.3-1.2v-3.5c0-.7-.6-1.3-1.2-1.3m-1.3 0h-3V9.5c0-.8.7-1.3 1.5-1.3s1.5.5 1.5 1.3V11Z" transform="matrix(1.5 0 0 1.5 252 144)" id="mdi-shield-lock-outline" fill="#fff"/><path d="M12 1 3 5v6c0 5.55 3.84 10.74 9 12 5.16-1.26 9-6.45 9-12V5l-9-4m3.97 13.41c-1.84 2.17-5.21 2.09-6.97-.07-2.18-2.72-.64-6.72 2.7-7.34.34-.05.63.28.51.61-.46 1.23-.39 2.64.32 3.86a4.51 4.51 0 0 0 3.18 2.2c.34.05.49.47.26.74Z" transform="matrix(1.5 0 0 1.5 288 144)" id="mdi-shield-moon" fill="#555"/><path d="M12 1 3 5v6c0 5.55 3.84 10.74 9 12 5.16-1.26 9-6.45 9-12V5l-9-4m3.97 13.41c-1.84 2.17-5.21 2.09-6.97-.07-2.18-2.72-.64-6.72 2.7-7.34.34-.05.63.28.51.61-.46 1.23-.39 2.64.32 3.86a4.51 4.51 0 0 0 3.18 2.2c.34.05.49.47.26.74Z" transform="matrix(1.5 0 0 1.5 324 144)" id="mdi-shield-moon" fill="#fff"/><path d="M21 11c0 5.55-3.84 10.74-9 12-5.16-1.26-9-6.45-9-12V5l9-4 9 4v6m-9 10c3.75-1 7-5.46 7-9.78V6.3l-7-3.12L5 6.3v4.92C5 15.54 8.25 20 12 21m-3-6.67c1.76 2.17 5.13 2.24 6.97.07.23-.27.08-.68-.26-.74a4.491 4.491 0 0 1-3.18-2.2 4.503 4.503 0 0 1-.32-3.86.453.453 0 0 0-.51-.6c-3.34.62-4.89 4.61-2.7 7.33" transform="matrix(1.5 0 0 1.5 360 144)" id="mdi-shield-moon-outline" fill="#555"/><path d="M21 11c0 5.55-3.84 10.74-9 12-5.16-1.26-9-6.45-9-12V5l9-4 9 4v6m-9 10c3.75-1 7-5.46 7-9.78V6.3l-7-3.12L5 6.3v4.92C5 15.54 8.25 20 12 21m-3-6.67c1.76 2.17 5.13 2.24 6.97.07.23-.27.08-.68-.26-.74a4.491 4.491 0 0 1-3.18-2.2 4.503 4.503 0 0 1-.32-3.86.453.453 0 0 0-.51-.6c-3.34.62-4.89 4.61-2.7 7.33" transform="matrix(1.5 0 0 1.5 396 144)" id="mdi-shield-moon-outline" fill="#fff"/><path d="M1 4.27 2.28 3 20.5 21.22l-1.27 1.28L17 20.25c-1.43 1.32-3.13 2.29-5 2.75-5.16-1.26-9-6.45-9-12V6.27l-2-2M12 1l9 4v6c0 2.28-.65 4.5-1.77 6.41L5.65 3.82 12 1Z" transform="matrix(1.5 0 0 1.5 432 144)" id="mdi-shield-off" fill="#555"/><path d="M1 4.27 2.28 3 20.5 21.22l-1.27 1.28L17 20.25c-1.43 1.32-3.13 2.29-5 2.75-5.16-1.26-9-6.45-9-12V6.27l-2-2M12 1l9 4v6c0 2.28-.65 4.5-1.77 6.41L5.65 3.82 12 1Z" transform="matrix(1.5 0 0 1.5 468 144)" id="mdi-shield-off" fill="#fff"/><path d="m1 4.27 2 2V11c0 5.55 3.84 10.74 9 12 1.87-.46 3.57-1.44 4.97-2.76l2.26 2.26 1.27-1.28L2.28 3 1 4.27M12 21c-3.75-1-7-5.46-7-9.78V8.27l10.59 10.59C14.53 19.89 13.3 20.65 12 21m9-16v6c0 2.28-.65 4.5-1.77 6.4l-1.46-1.45c.77-1.45 1.23-3.11 1.23-4.73V6.3l-7-3.12-4.84 2.16-1.51-1.52L12 1l9 4Z" transform="matrix(1.5 0 0 1.5 504 144)" id="mdi-shield-off-outline" fill="#555"/><path d="m1 4.27 2 2V11c0 5.55 3.84 10.74 9 12 1.87-.46 3.57-1.44 4.97-2.76l2.26 2.26 1.27-1.28L2.28 3 1 4.27M12 21c-3.75-1-7-5.46-7-9.78V8.27l10.59 10.59C14.53 19.89 13.3 20.65 12 21m9-16v6c0 2.28-.65 4.5-1.77 6.4l-1.46-1.45c.77-1.45 1.23-3.11 1.23-4.73V6.3l-7-3.12-4.84 2.16-1.51-1.52L12 1l9 4Z" transform="matrix(1.5 0 0 1.5 540 144)" id="mdi-shield-off-outline" fill="#fff"/><path d="M21 11c0 5.55-3.84 10.74-9 12-5.16-1.26-9-6.45-9-12V5l9-4 9 4v6m-9 10c3.75-1 7-5.46 7-9.78V6.3l-7-3.12L5 6.3v4.92C5 15.54 8.25 20 12 21Z" transform="matrix(1.5 0 0 1.5 576 144)" id="mdi-shield-outline" fill="#555"/><path d="M21 11c0 5.55-3.84 10.74-9 12-5.16-1.26-9-6.45-9-12V5l9-4 9 4v6m-9 10c3.75-1 7-5.46 7-9.78V6.3l-7-3.12L5 6.3v4.92C5 15.54 8.25 20 12 21Z" transform="matrix(1.5 0 0 1.5 612 144)" id="mdi-shield-outline" fill="#fff"/><path d="M19 20v2.97h-2V20h-3v-2h3v-3h2v3h3v2h-3M12 1l9 4v6c0 .9-.1 1.78-.29 2.65A5.8 5.8 0 0 0 18 13a6 6 0 0 0-6 6c0 1.36.45 2.62 1.22 3.62L12 23c-5.16-1.26-9-6.45-9-12V5l9-4Z" transform="matrix(1.5 0 0 1.5 648 144)" id="mdi-shield-plus" fill="#555"/><path d="M19 20v2.97h-2V20h-3v-2h3v-3h2v3h3v2h-3M12 1l9 4v6c0 .9-.1 1.78-.29 2.65A5.8 5.8 0 0 0 18 13a6 6 0 0 0-6 6c0 1.36.45 2.62 1.22 3.62L12 23c-5.16-1.26-9-6.45-9-12V5l9-4Z" transform="matrix(1.5 0 0 1.5 684 144)" id="mdi-shield-plus" fill="#fff"/><path d="M19 20v2.97h-2V20h-3v-2h3v-3h2v3h3v2h-3m2-9c0 .9-.1 1.78-.29 2.65-.58-.3-1.21-.5-1.9-.6.12-.6.19-1.22.19-1.83V6.3l-7-3.12L5 6.3v4.92C5 15.54 8.25 20 12 21l.31-.09c.19.62.52 1.2.91 1.71L12 23c-5.16-1.26-9-6.45-9-12V5l9-4 9 4v6Z" transform="matrix(1.5 0 0 1.5 0 180)" id="mdi-shield-plus-outline" fill="#555"/><path d="M19 20v2.97h-2V20h-3v-2h3v-3h2v3h3v2h-3m2-9c0 .9-.1 1.78-.29 2.65-.58-.3-1.21-.5-1.9-.6.12-.6.19-1.22.19-1.83V6.3l-7-3.12L5 6.3v4.92C5 15.54 8.25 20 12 21l.31-.09c.19.62.52 1.2.91 1.71L12 23c-5.16-1.26-9-6.45-9-12V5l9-4 9 4v6Z" transform="matrix(1.5 0 0 1.5 36 180)" id="mdi-shield-plus-outline" fill="#fff"/><path d="M18 12c1 0 2 .2 2.9.7.1-.6.1-1.1.1-1.7V5l-9-4-9 4v6c0 5.5 3.8 10.7 9 12 .4-.1.7-.2 1-.3-1-1.2-1.5-2.7-1.5-4.2 0-3.6 2.9-6.5 6.5-6.5m0 2.5c1.1 0 2.1.4 2.8 1.2l1.2-1.2v4h-4l1.8-1.8c-.5-.4-1.1-.7-1.8-.7-1.4 0-2.5 1.1-2.5 2.5S16.6 21 18 21c.8 0 1.5-.4 2-1h1.7c-.6 1.5-2 2.5-3.7 2.5-2.2 0-4-1.8-4-4s1.8-4 4-4Z" transform="matrix(1.5 0 0 1.5 72 180)" id="mdi-shield-refresh" fill="#555"/><path d="M18 12c1 0 2 .2 2.9.7.1-.6.1-1.1.1-1.7V5l-9-4-9 4v6c0 5.5 3.8 10.7 9 12 .4-.1.7-.2 1-.3-1-1.2-1.5-2.7-1.5-4.2 0-3.6 2.9-6.5 6.5-6.5m0 2.5c1.1 0 2.1.4 2.8 1.2l1.2-1.2v4h-4l1.8-1.8c-.5-.4-1.1-.7-1.8-.7-1.4 0-2.5 1.1-2.5 2.5S16.6 21 18 21c.8 0 1.5-.4 2-1h1.7c-.6 1.5-2 2.5-3.7 2.5-2.2 0-4-1.8-4-4s1.8-4 4-4Z" transform="matrix(1.5 0 0 1.5 108 180)" id="mdi-shield-refresh" fill="#fff"/><path d="M12 21c-3.8-1-7-5.5-7-9.8V6.3l7-3.1 7 3.1v5.8c.7.1 1.3.3 1.9.6.1-.6.1-1.1.1-1.7V5l-9-4-9 4v6c0 5.5 3.8 10.7 9 12 .4-.1.7-.2 1-.3-.4-.5-.8-1.1-1-1.7m6-6.5c1.1 0 2.1.4 2.8 1.2l1.2-1.2v4h-4l1.8-1.8c-.5-.4-1.1-.7-1.8-.7-1.4 0-2.5 1.1-2.5 2.5S16.6 21 18 21c.8 0 1.5-.4 2-1h1.7c-.6 1.5-2 2.5-3.7 2.5-2.2 0-4-1.8-4-4s1.8-4 4-4Z" transform="matrix(1.5 0 0 1.5 144 180)" id="mdi-shield-refresh-outline" fill="#555"/><path d="M12 21c-3.8-1-7-5.5-7-9.8V6.3l7-3.1 7 3.1v5.8c.7.1 1.3.3 1.9.6.1-.6.1-1.1.1-1.7V5l-9-4-9 4v6c0 5.5 3.8 10.7 9 12 .4-.1.7-.2 1-.3-.4-.5-.8-1.1-1-1.7m6-6.5c1.1 0 2.1.4 2.8 1.2l1.2-1.2v4h-4l1.8-1.8c-.5-.4-1.1-.7-1.8-.7-1.4 0-2.5 1.1-2.5 2.5S16.6 21 18 21c.8 0 1.5-.4 2-1h1.7c-.6 1.5-2 2.5-3.7 2.5-2.2 0-4-1.8-4-4s1.8-4 4-4Z" transform="matrix(1.5 0 0 1.5 180 180)" id="mdi-shield-refresh-outline" fill="#fff"/><path d="m19.43 19 2.07 2.11-1.38 1.39-2.09-2.09-2.12 2.12-1.41-1.42L16.61 19l-2.11-2.14 1.38-1.39L18 17.59l2.12-2.12 1.43 1.43-2.12 2.1M12 1l9 4v6c0 .9-.1 1.78-.29 2.65A5.8 5.8 0 0 0 18 13a6 6 0 0 0-6 6c0 1.36.45 2.62 1.22 3.62L12 23c-5.16-1.26-9-6.45-9-12V5l9-4Z" transform="matrix(1.5 0 0 1.5 216 180)" id="mdi-shield-remove" fill="#555"/><path d="m19.43 19 2.07 2.11-1.38 1.39-2.09-2.09-2.12 2.12-1.41-1.42L16.61 19l-2.11-2.14 1.38-1.39L18 17.59l2.12-2.12 1.43 1.43-2.12 2.1M12 1l9 4v6c0 .9-.1 1.78-.29 2.65A5.8 5.8 0 0 0 18 13a6 6 0 0 0-6 6c0 1.36.45 2.62 1.22 3.62L12 23c-5.16-1.26-9-6.45-9-12V5l9-4Z" transform="matrix(1.5 0 0 1.5 252 180)" id="mdi-shield-remove" fill="#fff"/><path d="m19.43 19 2.07 2.11-1.38 1.39-2.09-2.09-2.12 2.12-1.41-1.42L16.61 19l-2.11-2.14 1.38-1.39L18 17.59l2.12-2.12 1.43 1.43-2.12 2.1M21 11c0 .9-.1 1.78-.29 2.65-.58-.3-1.21-.5-1.9-.6.12-.6.19-1.22.19-1.83V6.3l-7-3.12L5 6.3v4.92C5 15.54 8.25 20 12 21l.31-.09c.19.62.52 1.2.91 1.71L12 23c-5.16-1.26-9-6.45-9-12V5l9-4 9 4v6Z" transform="matrix(1.5 0 0 1.5 288 180)" id="mdi-shield-remove-outline" fill="#555"/><path d="m19.43 19 2.07 2.11-1.38 1.39-2.09-2.09-2.12 2.12-1.41-1.42L16.61 19l-2.11-2.14 1.38-1.39L18 17.59l2.12-2.12 1.43 1.43-2.12 2.1M21 11c0 .9-.1 1.78-.29 2.65-.58-.3-1.21-.5-1.9-.6.12-.6.19-1.22.19-1.83V6.3l-7-3.12L5 6.3v4.92C5 15.54 8.25 20 12 21l.31-.09c.19.62.52 1.2.91 1.71L12 23c-5.16-1.26-9-6.45-9-12V5l9-4 9 4v6Z" transform="matrix(1.5 0 0 1.5 324 180)" id="mdi-shield-remove-outline" fill="#fff"/><path d="M12 9a3 3 0 0 1 3 3 3 3 0 0 1-3 3 3 3 0 0 1-3-3 3 3 0 0 1 3-3m5.86 10.31C16.23 21.22 14.28 22.45 12 23c-2.56-.61-4.7-2.07-6.42-4.37C3.86 16.34 3 13.8 3 11V5l9-4 9 4v6c0 2.39-.64 4.61-1.92 6.67l-2.91-2.91c.52-.79.83-1.76.83-2.76a5 5 0 0 0-5-5 5 5 0 0 0-5 5 5 5 0 0 0 5 5c1 0 1.97-.31 2.76-.83l3.1 3.14Z" transform="matrix(1.5 0 0 1.5 360 180)" id="mdi-shield-search" fill="#555"/><path d="M12 9a3 3 0 0 1 3 3 3 3 0 0 1-3 3 3 3 0 0 1-3-3 3 3 0 0 1 3-3m5.86 10.31C16.23 21.22 14.28 22.45 12 23c-2.56-.61-4.7-2.07-6.42-4.37C3.86 16.34 3 13.8 3 11V5l9-4 9 4v6c0 2.39-.64 4.61-1.92 6.67l-2.91-2.91c.52-.79.83-1.76.83-2.76a5 5 0 0 0-5-5 5 5 0 0 0-5 5 5 5 0 0 0 5 5c1 0 1.97-.31 2.76-.83l3.1 3.14Z" transform="matrix(1.5 0 0 1.5 396 180)" id="mdi-shield-search" fill="#fff"/><path d="M12 1 3 5v6c0 5.55 3.84 10.74 9 12 5.16-1.26 9-6.45 9-12V5l-9-4m3.08 15L12 14.15 8.93 16l.81-3.5-2.71-2.34 3.58-.31L12 6.55l1.39 3.29 3.58.31-2.71 2.35.82 3.5Z" transform="matrix(1.5 0 0 1.5 432 180)" id="mdi-shield-star" fill="#555"/><path d="M12 1 3 5v6c0 5.55 3.84 10.74 9 12 5.16-1.26 9-6.45 9-12V5l-9-4m3.08 15L12 14.15 8.93 16l.81-3.5-2.71-2.34 3.58-.31L12 6.55l1.39 3.29 3.58.31-2.71 2.35.82 3.5Z" transform="matrix(1.5 0 0 1.5 468 180)" id="mdi-shield-star" fill="#fff"/><path d="M21 11c0 5.55-3.84 10.74-9 12-5.16-1.26-9-6.45-9-12V5l9-4 9 4v6m-9 10c3.75-1 7-5.46 7-9.78V6.3l-7-3.12L5 6.3v4.92C5 15.54 8.25 20 12 21m3.05-5-3.08-1.85L8.9 16l.81-3.5L7 10.16l3.58-.31 1.39-3.3 1.4 3.29 3.58.31-2.72 2.35.82 3.5" transform="matrix(1.5 0 0 1.5 504 180)" id="mdi-shield-star-outline" fill="#555"/><path d="M21 11c0 5.55-3.84 10.74-9 12-5.16-1.26-9-6.45-9-12V5l9-4 9 4v6m-9 10c3.75-1 7-5.46 7-9.78V6.3l-7-3.12L5 6.3v4.92C5 15.54 8.25 20 12 21m3.05-5-3.08-1.85L8.9 16l.81-3.5L7 10.16l3.58-.31 1.39-3.3 1.4 3.29 3.58.31-2.72 2.35.82 3.5" transform="matrix(1.5 0 0 1.5 540 180)" id="mdi-shield-star-outline" fill="#fff"/><path d="M12 1 3 5v6c0 5.55 3.84 10.74 9 12 5.16-1.26 9-6.45 9-12V5l-9-4m0 7.89c1.6 0 2.89 1.29 2.89 2.89S13.6 14.67 12 14.67s-2.89-1.3-2.89-2.89 1.3-2.89 2.89-2.89M12 6l1.38 2c-.42-.18-.88-.27-1.38-.27s-.95.09-1.38.27L12 6M7 8.89l2.4-.2c-.34.31-.66.65-.9 1.07-.25.42-.4.86-.5 1.32L7 8.89m0 5.78 1.03-2.17c.08.43.24.88.47 1.3.25.43.56.79.9 1.08L7 14.67m10-5.78-1 2.19c-.1-.46-.26-.9-.5-1.32-.24-.42-.55-.76-.9-1.08l2.4.21m0 5.78-2.4.2c.34-.29.65-.65.9-1.07.24-.42.39-.87.47-1.3L17 14.67m-5 2.88-1.39-1.98c.43.15.89.25 1.39.25.5 0 .95-.1 1.37-.25L12 17.55Z" transform="matrix(1.5 0 0 1.5 576 180)" id="mdi-shield-sun" fill="#555"/><path d="M12 1 3 5v6c0 5.55 3.84 10.74 9 12 5.16-1.26 9-6.45 9-12V5l-9-4m0 7.89c1.6 0 2.89 1.29 2.89 2.89S13.6 14.67 12 14.67s-2.89-1.3-2.89-2.89 1.3-2.89 2.89-2.89M12 6l1.38 2c-.42-.18-.88-.27-1.38-.27s-.95.09-1.38.27L12 6M7 8.89l2.4-.2c-.34.31-.66.65-.9 1.07-.25.42-.4.86-.5 1.32L7 8.89m0 5.78 1.03-2.17c.08.43.24.88.47 1.3.25.43.56.79.9 1.08L7 14.67m10-5.78-1 2.19c-.1-.46-.26-.9-.5-1.32-.24-.42-.55-.76-.9-1.08l2.4.21m0 5.78-2.4.2c.34-.29.65-.65.9-1.07.24-.42.39-.87.47-1.3L17 14.67m-5 2.88-1.39-1.98c.43.15.89.25 1.39.25.5 0 .95-.1 1.37-.25L12 17.55Z" transform="matrix(1.5 0 0 1.5 612 180)" id="mdi-shield-sun" fill="#fff"/><path d="M21 11c0 5.55-3.84 10.74-9 12-5.16-1.26-9-6.45-9-12V5l9-4 9 4v6m-9 10c3.75-1 7-5.46 7-9.78V6.3l-7-3.12L5 6.3v4.92C5 15.54 8.25 20 12 21m0-12.11c1.6 0 2.89 1.29 2.89 2.89S13.6 14.67 12 14.67s-2.89-1.3-2.89-2.89 1.3-2.89 2.89-2.89M12 6l1.38 2c-.42-.18-.88-.27-1.38-.27s-.95.09-1.38.27L12 6M7 8.89l2.4-.2c-.34.31-.66.65-.9 1.07-.25.42-.4.86-.5 1.32L7 8.89m0 5.78 1.03-2.17c.08.43.24.88.47 1.3.25.43.56.79.9 1.08L7 14.67m10-5.78-1 2.19c-.1-.46-.26-.9-.5-1.32-.24-.42-.55-.76-.9-1.08l2.4.21m0 5.78-2.4.2c.34-.29.65-.65.9-1.07.24-.42.39-.87.47-1.3L17 14.67m-5 2.88-1.39-1.98c.43.15.89.25 1.39.25.5 0 .95-.1 1.37-.25L12 17.55Z" transform="matrix(1.5 0 0 1.5 648 180)" id="mdi-shield-sun-outline" fill="#555"/><path d="M21 11c0 5.55-3.84 10.74-9 12-5.16-1.26-9-6.45-9-12V5l9-4 9 4v6m-9 10c3.75-1 7-5.46 7-9.78V6.3l-7-3.12L5 6.3v4.92C5 15.54 8.25 20 12 21m0-12.11c1.6 0 2.89 1.29 2.89 2.89S13.6 14.67 12 14.67s-2.89-1.3-2.89-2.89 1.3-2.89 2.89-2.89M12 6l1.38 2c-.42-.18-.88-.27-1.38-.27s-.95.09-1.38.27L12 6M7 8.89l2.4-.2c-.34.31-.66.65-.9 1.07-.25.42-.4.86-.5 1.32L7 8.89m0 5.78 1.03-2.17c.08.43.24.88.47 1.3.25.43.56.79.9 1.08L7 14.67m10-5.78-1 2.19c-.1-.46-.26-.9-.5-1.32-.24-.42-.55-.76-.9-1.08l2.4.21m0 5.78-2.4.2c.34-.29.65-.65.9-1.07.24-.42.39-.87.47-1.3L17 14.67m-5 2.88-1.39-1.98c.43.15.89.25 1.39.25.5 0 .95-.1 1.37-.25L12 17.55Z" transform="matrix(1.5 0 0 1.5 684 180)" id="mdi-shield-sun-outline" fill="#fff"/><path d="M12 1 3 5v6c0 5.5 3.8 10.7 9 12 5.2-1.3 9-6.5 9-12V5l-9-4m3 14h-2v3h-2v-3H9v-2h2l-1-5.9 2-1.6 2 1.6-1 5.9h2v2Z" transform="matrix(1.5 0 0 1.5 0 216)" id="mdi-shield-sword" fill="#555"/><path d="M12 1 3 5v6c0 5.5 3.8 10.7 9 12 5.2-1.3 9-6.5 9-12V5l-9-4m3 14h-2v3h-2v-3H9v-2h2l-1-5.9 2-1.6 2 1.6-1 5.9h2v2Z" transform="matrix(1.5 0 0 1.5 36 216)" id="mdi-shield-sword" fill="#fff"/><path d="m12 1 9 4v6c0 5.5-3.8 10.7-9 12-5.2-1.3-9-6.5-9-12V5l9-4m0 2.2L5 6.3v4.9c0 4.3 3.2 8.8 7 9.8 3.8-1 7-5.5 7-9.8V6.3l-7-3.1m0 2.3 2 1.6-1 5.9h2v2h-2v3h-2v-3H9v-2h2l-1-5.9 2-1.6Z" transform="matrix(1.5 0 0 1.5 72 216)" id="mdi-shield-sword-outline" fill="#555"/><path d="m12 1 9 4v6c0 5.5-3.8 10.7-9 12-5.2-1.3-9-6.5-9-12V5l9-4m0 2.2L5 6.3v4.9c0 4.3 3.2 8.8 7 9.8 3.8-1 7-5.5 7-9.8V6.3l-7-3.1m0 2.3 2 1.6-1 5.9h2v2h-2v3h-2v-3H9v-2h2l-1-5.9 2-1.6Z" transform="matrix(1.5 0 0 1.5 108 216)" id="mdi-shield-sword-outline" fill="#fff"/><path d="M18 12a6.41 6.41 0 0 1 2.87.67A11.63 11.63 0 0 0 21 11V5l-9-4-9 4v6c0 5.55 3.84 10.74 9 12 .35-.09.7-.2 1-.32a6.42 6.42 0 0 1-1.5-4.18A6.5 6.5 0 0 1 18 12m0 2.5V13l-2.25 2.25L18 17.5V16a2.5 2.5 0 0 1 2.24 3.62l1.09 1.09A4 4 0 0 0 18 14.5m0 6.5a2.5 2.5 0 0 1-2.24-3.62l-1.09-1.09A4 4 0 0 0 18 22.5V24l2.25-2.25L18 19.5Z" transform="matrix(1.5 0 0 1.5 144 216)" id="mdi-shield-sync" fill="#555"/><path d="M18 12a6.41 6.41 0 0 1 2.87.67A11.63 11.63 0 0 0 21 11V5l-9-4-9 4v6c0 5.55 3.84 10.74 9 12 .35-.09.7-.2 1-.32a6.42 6.42 0 0 1-1.5-4.18A6.5 6.5 0 0 1 18 12m0 2.5V13l-2.25 2.25L18 17.5V16a2.5 2.5 0 0 1 2.24 3.62l1.09 1.09A4 4 0 0 0 18 14.5m0 6.5a2.5 2.5 0 0 1-2.24-3.62l-1.09-1.09A4 4 0 0 0 18 22.5V24l2.25-2.25L18 19.5Z" transform="matrix(1.5 0 0 1.5 180 216)" id="mdi-shield-sync" fill="#fff"/><path d="M12 21c-3.75-1-7-5.46-7-9.78V6.3l7-3.12 7 3.12v5.77a6.45 6.45 0 0 1 1.91.6A11.63 11.63 0 0 0 21 11V5l-9-4-9 4v6c0 5.55 3.84 10.74 9 12 .35-.09.7-.2 1-.32A6.3 6.3 0 0 1 12 21m6-6.5V13l-2.25 2.25L18 17.5V16a2.5 2.5 0 0 1 2.24 3.62l1.09 1.09A4 4 0 0 0 18 14.5m0 6.5a2.5 2.5 0 0 1-2.24-3.62l-1.09-1.09A4 4 0 0 0 18 22.5V24l2.25-2.25L18 19.5Z" transform="matrix(1.5 0 0 1.5 216 216)" id="mdi-shield-sync-outline" fill="#555"/><path d="M12 21c-3.75-1-7-5.46-7-9.78V6.3l7-3.12 7 3.12v5.77a6.45 6.45 0 0 1 1.91.6A11.63 11.63 0 0 0 21 11V5l-9-4-9 4v6c0 5.55 3.84 10.74 9 12 .35-.09.7-.2 1-.32A6.3 6.3 0 0 1 12 21m6-6.5V13l-2.25 2.25L18 17.5V16a2.5 2.5 0 0 1 2.24 3.62l1.09 1.09A4 4 0 0 0 18 14.5m0 6.5a2.5 2.5 0 0 1-2.24-3.62l-1.09-1.09A4 4 0 0 0 18 22.5V24l2.25-2.25L18 19.5Z" transform="matrix(1.5 0 0 1.5 252 216)" id="mdi-shield-sync-outline" fill="#fff"/><path d="M10.6 9.6 9 15 7.4 9.6 2 8l5.4-1.6L9 1l1.6 5.4L16 8l-5.4 1.6m6.4 4.6 4-2.2-2.2 4 2.2 4-4-2.2-4 2.2 2.2-4-2.2-4 4 2.2M10 16l-1.7 3 1.7 3-3-1.7L4 22l1.7-3L4 16l3 1.7 3-1.7" transform="matrix(1.5 0 0 1.5 288 216)" id="mdi-shimmer" fill="#555"/><path d="M10.6 9.6 9 15 7.4 9.6 2 8l5.4-1.6L9 1l1.6 5.4L16 8l-5.4 1.6m6.4 4.6 4-2.2-2.2 4 2.2 4-4-2.2-4 2.2 2.2-4-2.2-4 4 2.2M10 16l-1.7 3 1.7 3-3-1.7L4 22l1.7-3L4 16l3 1.7 3-1.7" transform="matrix(1.5 0 0 1.5 324 216)" id="mdi-shimmer" fill="#fff"/><path d="m2 11 2.05.1a7.96 7.96 0 0 1 3.2-5.54L6.13 3.84c-.27-.48-.13-1.09.37-1.37.5-.27 1.09-.11 1.37.37l.93 1.82a8.102 8.102 0 0 1 6.4 0l.93-1.82c.28-.48.87-.64 1.37-.37.5.28.64.89.37 1.37l-1.12 1.72a7.96 7.96 0 0 1 3.2 5.54L22 11a1 1 0 0 1 1 1 1 1 0 0 1-1 1l-2.05-.1a7.96 7.96 0 0 1-3.2 5.54l1.12 1.72c.27.48.13 1.09-.37 1.37-.5.27-1.09.11-1.37-.37l-.93-1.82a8.102 8.102 0 0 1-6.4 0l-.93 1.82c-.28.48-.87.64-1.37.37-.5-.28-.64-.89-.37-1.37l1.12-1.72a7.96 7.96 0 0 1-3.2-5.54L2 13a1 1 0 0 1-1-1 1 1 0 0 1 1-1m7.07.35c.13-.61.46-1.15.93-1.56L8.34 7.25a5.993 5.993 0 0 0-2.29 3.95l3.02.15M12 9c.32 0 .62.05.9.14l1.38-2.69C13.58 6.16 12.81 6 12 6c-.81 0-1.58.16-2.28.45l1.38 2.69c.28-.09.58-.14.9-.14m2.93 2.35 3.02-.15a5.993 5.993 0 0 0-2.29-3.95L14 9.79c.47.41.8.95.93 1.56m0 1.3c-.13.61-.46 1.15-.93 1.56l1.66 2.54a5.993 5.993 0 0 0 2.29-3.95l-3.02-.15M12 15c-.32 0-.62-.05-.91-.14l-1.37 2.69c.7.29 1.47.45 2.28.45.81 0 1.58-.16 2.28-.45l-1.37-2.69c-.29.09-.59.14-.91.14m-2.93-2.35-3.02.15c.22 1.6 1.06 3.01 2.29 3.95L10 14.21c-.47-.41-.8-.95-.93-1.56Z" transform="matrix(1.5 0 0 1.5 360 216)" id="mdi-ship-wheel" fill="#555"/><path d="m2 11 2.05.1a7.96 7.96 0 0 1 3.2-5.54L6.13 3.84c-.27-.48-.13-1.09.37-1.37.5-.27 1.09-.11 1.37.37l.93 1.82a8.102 8.102 0 0 1 6.4 0l.93-1.82c.28-.48.87-.64 1.37-.37.5.28.64.89.37 1.37l-1.12 1.72a7.96 7.96 0 0 1 3.2 5.54L22 11a1 1 0 0 1 1 1 1 1 0 0 1-1 1l-2.05-.1a7.96 7.96 0 0 1-3.2 5.54l1.12 1.72c.27.48.13 1.09-.37 1.37-.5.27-1.09.11-1.37-.37l-.93-1.82a8.102 8.102 0 0 1-6.4 0l-.93 1.82c-.28.48-.87.64-1.37.37-.5-.28-.64-.89-.37-1.37l1.12-1.72a7.96 7.96 0 0 1-3.2-5.54L2 13a1 1 0 0 1-1-1 1 1 0 0 1 1-1m7.07.35c.13-.61.46-1.15.93-1.56L8.34 7.25a5.993 5.993 0 0 0-2.29 3.95l3.02.15M12 9c.32 0 .62.05.9.14l1.38-2.69C13.58 6.16 12.81 6 12 6c-.81 0-1.58.16-2.28.45l1.38 2.69c.28-.09.58-.14.9-.14m2.93 2.35 3.02-.15a5.993 5.993 0 0 0-2.29-3.95L14 9.79c.47.41.8.95.93 1.56m0 1.3c-.13.61-.46 1.15-.93 1.56l1.66 2.54a5.993 5.993 0 0 0 2.29-3.95l-3.02-.15M12 15c-.32 0-.62-.05-.91-.14l-1.37 2.69c.7.29 1.47.45 2.28.45.81 0 1.58-.16 2.28-.45l-1.37-2.69c-.29.09-.59.14-.91.14m-2.93-2.35-3.02.15c.22 1.6 1.06 3.01 2.29 3.95L10 14.21c-.47-.41-.8-.95-.93-1.56Z" transform="matrix(1.5 0 0 1.5 396 216)" id="mdi-ship-wheel" fill="#fff"/><path d="M3 20h2v-2h6v2h2v-2h6v2h2v-5h-2v1h-2v-1h-2v1h-2v-1h-2v1H9v-1H7v1H5v-1H3m2-2h14V4H5Z" transform="matrix(1.5 0 0 1.5 432 216)" id="mdi-shipping-pallet" fill="#555"/><path d="M3 20h2v-2h6v2h2v-2h6v2h2v-5h-2v1h-2v-1h-2v1h-2v-1h-2v1H9v-1H7v1H5v-1H3m2-2h14V4H5Z" transform="matrix(1.5 0 0 1.5 468 216)" id="mdi-shipping-pallet" fill="#fff"/><path d="M12.78 11.97C12.27 8.54 10.86 2 7.53 2S2.8 8.54 2.28 11.97c-.21 1.45-.28 2.92-.12 4.38.34 3.04 1.39 4.49 2.11 5.15.37.33.84.5 1.33.5h3.87c.49 0 .96-.17 1.33-.5.7-.66 1.75-2.11 2.11-5.15.17-1.46.09-2.93-.13-4.38M7.53 4c.36-.13 1.06.73 1.74 2.31l-4.69 4.02C5.41 6.26 6.94 3.79 7.53 4m2.22 9H5.31a.96.96 0 0 1-.55-.19L10 8.33c.29 1.02.56 2.17.75 3.5.09.61-.38 1.17-1 1.17m12.03-1.03C21.27 8.54 19.86 2 16.53 2c-1.49 0-2.59 1.32-3.4 3.08.37.96.71 2.06 1 3.29l5.18 4.44c-.16.11-.34.19-.56.19h-3.83c.12 1.27.11 2.45-.03 3.59-.27 2.28-.89 3.86-1.57 4.94.36.31.81.47 1.28.47h3.87c.49 0 .96-.17 1.33-.5.7-.66 1.75-2.11 2.11-5.15.17-1.46.09-2.93-.13-4.38M14.8 6.31c.7-1.58 1.38-2.44 1.73-2.31.6-.21 2.12 2.26 2.97 6.33l-4.7-4.02Z" transform="matrix(1.5 0 0 1.5 504 216)" id="mdi-shoe-ballet" fill="#555"/><path d="M12.78 11.97C12.27 8.54 10.86 2 7.53 2S2.8 8.54 2.28 11.97c-.21 1.45-.28 2.92-.12 4.38.34 3.04 1.39 4.49 2.11 5.15.37.33.84.5 1.33.5h3.87c.49 0 .96-.17 1.33-.5.7-.66 1.75-2.11 2.11-5.15.17-1.46.09-2.93-.13-4.38M7.53 4c.36-.13 1.06.73 1.74 2.31l-4.69 4.02C5.41 6.26 6.94 3.79 7.53 4m2.22 9H5.31a.96.96 0 0 1-.55-.19L10 8.33c.29 1.02.56 2.17.75 3.5.09.61-.38 1.17-1 1.17m12.03-1.03C21.27 8.54 19.86 2 16.53 2c-1.49 0-2.59 1.32-3.4 3.08.37.96.71 2.06 1 3.29l5.18 4.44c-.16.11-.34.19-.56.19h-3.83c.12 1.27.11 2.45-.03 3.59-.27 2.28-.89 3.86-1.57 4.94.36.31.81.47 1.28.47h3.87c.49 0 .96-.17 1.33-.5.7-.66 1.75-2.11 2.11-5.15.17-1.46.09-2.93-.13-4.38M14.8 6.31c.7-1.58 1.38-2.44 1.73-2.31.6-.21 2.12 2.26 2.97 6.33l-4.7-4.02Z" transform="matrix(1.5 0 0 1.5 540 216)" id="mdi-shoe-ballet" fill="#fff"/><path d="M21 8h-.7l-.05-.03c-2.11-.13-3.87-.8-4.72-1.74L14 7c-.05.1-.11.19-.16.28.71.61 1.16 1.37 1.16 2.22 0 .33-.09.64-.21.95l-1.87-1.87c-.22.25-.45.49-.7.71l2.03 2.03c-.21.25-.45.47-.75.68l-2.07-2.09c-.29.2-.58.37-.88.54l2.03 2.05c-.33.13-.69.24-1.08.32l-1.91-1.91c-.34.14-.68.27-1.03.38l1.7 1.71H10c-1.5 0-2.8-.46-3.72-1.18-.82.13-1.6.18-2.28.18-2 0-2 3-2 3 0 1.11.89 2 2 2v1c0 .55.45 1 1 1s1-.45 1-1v-1h1v1c0 .55.45 1 1 1s1-.45 1-1v-1h1v1c0 .55.45 1 1 1s1-.45 1-1v-1h3v1c0 .55.45 1 1 1s1-.45 1-1v-1h1v1c0 .55.45 1 1 1s1-.45 1-1v-1h1s1 0 1-4.5C22 9 21 8 21 8Z" transform="matrix(1.5 0 0 1.5 576 216)" id="mdi-shoe-cleat" fill="#555"/><path d="M21 8h-.7l-.05-.03c-2.11-.13-3.87-.8-4.72-1.74L14 7c-.05.1-.11.19-.16.28.71.61 1.16 1.37 1.16 2.22 0 .33-.09.64-.21.95l-1.87-1.87c-.22.25-.45.49-.7.71l2.03 2.03c-.21.25-.45.47-.75.68l-2.07-2.09c-.29.2-.58.37-.88.54l2.03 2.05c-.33.13-.69.24-1.08.32l-1.91-1.91c-.34.14-.68.27-1.03.38l1.7 1.71H10c-1.5 0-2.8-.46-3.72-1.18-.82.13-1.6.18-2.28.18-2 0-2 3-2 3 0 1.11.89 2 2 2v1c0 .55.45 1 1 1s1-.45 1-1v-1h1v1c0 .55.45 1 1 1s1-.45 1-1v-1h1v1c0 .55.45 1 1 1s1-.45 1-1v-1h3v1c0 .55.45 1 1 1s1-.45 1-1v-1h1v1c0 .55.45 1 1 1s1-.45 1-1v-1h1s1 0 1-4.5C22 9 21 8 21 8Z" transform="matrix(1.5 0 0 1.5 612 216)" id="mdi-shoe-cleat" fill="#fff"/><path d="M21.5 9V8h-1l-1 1H15l-1-1h-1l-6 4H4a2 2 0 0 0-2 2v2h8l3-1h2v1h6.5v-2s.5-1 .5-2.5-.5-2.5-.5-2.5Z" transform="matrix(1.5 0 0 1.5 648 216)" id="mdi-shoe-formal" fill="#555"/><path d="M21.5 9V8h-1l-1 1H15l-1-1h-1l-6 4H4a2 2 0 0 0-2 2v2h8l3-1h2v1h6.5v-2s.5-1 .5-2.5-.5-2.5-.5-2.5Z" transform="matrix(1.5 0 0 1.5 684 216)" id="mdi-shoe-formal" fill="#fff"/><path d="M3 18h8.7l5.3-4h1v4h2v-4s1-2 1-4-.5-4-.5-4h-2L18 7l-8 7H8l-5 2v2Z" transform="matrix(1.5 0 0 1.5 0 252)" id="mdi-shoe-heel" fill="#555"/><path d="M3 18h8.7l5.3-4h1v4h2v-4s1-2 1-4-.5-4-.5-4h-2L18 7l-8 7H8l-5 2v2Z" transform="matrix(1.5 0 0 1.5 36 252)" id="mdi-shoe-heel" fill="#fff"/><path d="M10.74 11.72c.47 1.23.42 2.51-.99 3.02-2.9 1.07-3.55-1.74-3.59-1.88l4.58-1.14m-5.03-.81 4.32-1.07c-.19-1.05.1-2.1.1-3.34 0-1.68-1.33-4.97-3.45-4.44-2.42.6-2.77 3.29-2.68 4.59.12 1.3 1.64 4.08 1.71 4.26m12.14 8.94c-.03.15-.69 2.95-3.59 1.89-1.4-.52-1.46-1.8-.99-3.03l4.58 1.14m2.15-6.2c.1-1.3-.24-4-2.67-4.6-2.11-.55-3.44 2.76-3.44 4.45 0 1.23.28 2.28.11 3.33l4.3 1.07c.08-.18 1.59-2.96 1.7-4.25Z" transform="matrix(1.5 0 0 1.5 72 252)" id="mdi-shoe-print" fill="#555"/><path d="M10.74 11.72c.47 1.23.42 2.51-.99 3.02-2.9 1.07-3.55-1.74-3.59-1.88l4.58-1.14m-5.03-.81 4.32-1.07c-.19-1.05.1-2.1.1-3.34 0-1.68-1.33-4.97-3.45-4.44-2.42.6-2.77 3.29-2.68 4.59.12 1.3 1.64 4.08 1.71 4.26m12.14 8.94c-.03.15-.69 2.95-3.59 1.89-1.4-.52-1.46-1.8-.99-3.03l4.58 1.14m2.15-6.2c.1-1.3-.24-4-2.67-4.6-2.11-.55-3.44 2.76-3.44 4.45 0 1.23.28 2.28.11 3.33l4.3 1.07c.08-.18 1.59-2.96 1.7-4.25Z" transform="matrix(1.5 0 0 1.5 108 252)" id="mdi-shoe-print" fill="#fff"/><path d="M2 15s0-3 2-3c.68 0 1.46-.05 2.28-.18C7.2 12.54 8.5 13 10 13h.25l-1.69-1.71c.35-.11.69-.24 1.03-.38l1.91 1.91c.39-.08.75-.19 1.08-.32l-2.03-2.05c.3-.17.59-.34.88-.54L13.5 12c.3-.21.54-.44.75-.68l-2.03-2.03c.24-.22.48-.46.7-.71l1.87 1.87c.12-.31.21-.62.21-.95 0-.85-.45-1.61-1.16-2.22.05-.09.11-.18.16-.28l1.53-.77c.85.94 2.61 1.61 4.72 1.74l.05.03h.7s1 1 1 4.5c0 .57 0 1.07-.04 1.5H19c-1.1 0-2.42.26-3.7.5-1.18.26-2.4.5-3.3.5H2m19 2s.58 0 .86-2H19c-2 0-5 1-7 1H2.28c.34.6.98 1 1.72 1h17Z" transform="matrix(1.5 0 0 1.5 144 252)" id="mdi-shoe-sneaker" fill="#555"/><path d="M2 15s0-3 2-3c.68 0 1.46-.05 2.28-.18C7.2 12.54 8.5 13 10 13h.25l-1.69-1.71c.35-.11.69-.24 1.03-.38l1.91 1.91c.39-.08.75-.19 1.08-.32l-2.03-2.05c.3-.17.59-.34.88-.54L13.5 12c.3-.21.54-.44.75-.68l-2.03-2.03c.24-.22.48-.46.7-.71l1.87 1.87c.12-.31.21-.62.21-.95 0-.85-.45-1.61-1.16-2.22.05-.09.11-.18.16-.28l1.53-.77c.85.94 2.61 1.61 4.72 1.74l.05.03h.7s1 1 1 4.5c0 .57 0 1.07-.04 1.5H19c-1.1 0-2.42.26-3.7.5-1.18.26-2.4.5-3.3.5H2m19 2s.58 0 .86-2H19c-2 0-5 1-7 1H2.28c.34.6.98 1 1.72 1h17Z" transform="matrix(1.5 0 0 1.5 180 252)" id="mdi-shoe-sneaker" fill="#fff"/><path d="M12 13a5 5 0 0 1-5-5h2a3 3 0 0 0 3 3 3 3 0 0 0 3-3h2a5 5 0 0 1-5 5m0-10a3 3 0 0 1 3 3H9a3 3 0 0 1 3-3m7 3h-2a5 5 0 0 0-5-5 5 5 0 0 0-5 5H5c-1.11 0-2 .89-2 2v12a2 2 0 0 0 2 2h14a2 2 0 0 0 2-2V8a2 2 0 0 0-2-2Z" transform="matrix(1.5 0 0 1.5 216 252)" id="mdi-shopping" fill="#555"/><path d="M12 13a5 5 0 0 1-5-5h2a3 3 0 0 0 3 3 3 3 0 0 0 3-3h2a5 5 0 0 1-5 5m0-10a3 3 0 0 1 3 3H9a3 3 0 0 1 3-3m7 3h-2a5 5 0 0 0-5-5 5 5 0 0 0-5 5H5c-1.11 0-2 .89-2 2v12a2 2 0 0 0 2 2h14a2 2 0 0 0 2-2V8a2 2 0 0 0-2-2Z" transform="matrix(1.5 0 0 1.5 252 252)" id="mdi-shopping" fill="#fff"/><path d="M12 3a3 3 0 0 0-3 3h6a3 3 0 0 0-3-3m7 3a2 2 0 0 1 2 2v12a2 2 0 0 1-2 2H5a2 2 0 0 1-2-2V8c0-1.11.89-2 2-2h2a5 5 0 0 1 5-5 5 5 0 0 1 5 5h2M9 19l7.5-5L9 10v9Z" transform="matrix(1.5 0 0 1.5 288 252)" id="mdi-shopping-music" fill="#555"/><path d="M12 3a3 3 0 0 0-3 3h6a3 3 0 0 0-3-3m7 3a2 2 0 0 1 2 2v12a2 2 0 0 1-2 2H5a2 2 0 0 1-2-2V8c0-1.11.89-2 2-2h2a5 5 0 0 1 5-5 5 5 0 0 1 5 5h2M9 19l7.5-5L9 10v9Z" transform="matrix(1.5 0 0 1.5 324 252)" id="mdi-shopping-music" fill="#fff"/><path d="M19 6h-2c0-2.8-2.2-5-5-5S7 3.2 7 6H5c-1.1 0-2 .9-2 2v12c0 1.1.9 2 2 2h14c1.1 0 2-.9 2-2V8c0-1.1-.9-2-2-2m-7-3c1.7 0 3 1.3 3 3H9c0-1.7 1.3-3 3-3m7 17H5V8h14v12m-7-8c-1.7 0-3-1.3-3-3H7c0 2.8 2.2 5 5 5s5-2.2 5-5h-2c0 1.7-1.3 3-3 3Z" transform="matrix(1.5 0 0 1.5 360 252)" id="mdi-shopping-outline" fill="#555"/><path d="M19 6h-2c0-2.8-2.2-5-5-5S7 3.2 7 6H5c-1.1 0-2 .9-2 2v12c0 1.1.9 2 2 2h14c1.1 0 2-.9 2-2V8c0-1.1-.9-2-2-2m-7-3c1.7 0 3 1.3 3 3H9c0-1.7 1.3-3 3-3m7 17H5V8h14v12m-7-8c-1.7 0-3-1.3-3-3H7c0 2.8 2.2 5 5 5s5-2.2 5-5h-2c0 1.7-1.3 3-3 3Z" transform="matrix(1.5 0 0 1.5 396 252)" id="mdi-shopping-outline" fill="#fff"/><path d="M19 6h-2A5 5 0 0 0 7 6H5a2 2 0 0 0-2 2v12a2 2 0 0 0 2 2h7.05A6.5 6.5 0 0 1 9 16.5a6.4 6.4 0 0 1 1.25-3.82A5 5 0 0 1 7 8h2a3 3 0 0 0 3 3h.06a6.22 6.22 0 0 1 2-.84A3 3 0 0 0 15 8h2a4.88 4.88 0 0 1-.46 2.09 6.5 6.5 0 0 1 4.46 3V8a2 2 0 0 0-2-2M9 6a3 3 0 0 1 6 0m4.31 12.9a4.5 4.5 0 1 0-1.43 1.42L21 23.39 22.39 22m-6.89-3a2.5 2.5 0 1 1 2.5-2.5 2.5 2.5 0 0 1-2.5 2.5Z" transform="matrix(1.5 0 0 1.5 432 252)" id="mdi-shopping-search" fill="#555"/><path d="M19 6h-2A5 5 0 0 0 7 6H5a2 2 0 0 0-2 2v12a2 2 0 0 0 2 2h7.05A6.5 6.5 0 0 1 9 16.5a6.4 6.4 0 0 1 1.25-3.82A5 5 0 0 1 7 8h2a3 3 0 0 0 3 3h.06a6.22 6.22 0 0 1 2-.84A3 3 0 0 0 15 8h2a4.88 4.88 0 0 1-.46 2.09 6.5 6.5 0 0 1 4.46 3V8a2 2 0 0 0-2-2M9 6a3 3 0 0 1 6 0m4.31 12.9a4.5 4.5 0 1 0-1.43 1.42L21 23.39 22.39 22m-6.89-3a2.5 2.5 0 1 1 2.5-2.5 2.5 2.5 0 0 1-2.5 2.5Z" transform="matrix(1.5 0 0 1.5 468 252)" id="mdi-shopping-search" fill="#fff"/><path d="M20 12h2v2h-2c-1.4 0-2.7-.4-4-1-2.5 1.3-5.5 1.3-8 0-1.3.6-2.6 1-4 1H2v-2h2c1.4 0 2.8-.5 4-1.3 2.4 1.7 5.6 1.7 8 0 1.2.8 2.6 1.3 4 1.3m0-6h2v2h-2c-1.4 0-2.7-.3-4-1-2.5 1.3-5.5 1.3-8 0-1.3.7-2.6 1-4 1H2V6h2c1.4 0 2.8-.5 4-1.3 2.4 1.7 5.6 1.7 8 0 1.2.8 2.6 1.3 4 1.3m2 14H2v-2h20" transform="matrix(1.5 0 0 1.5 504 252)" id="mdi-shore" fill="#555"/><path d="M20 12h2v2h-2c-1.4 0-2.7-.4-4-1-2.5 1.3-5.5 1.3-8 0-1.3.6-2.6 1-4 1H2v-2h2c1.4 0 2.8-.5 4-1.3 2.4 1.7 5.6 1.7 8 0 1.2.8 2.6 1.3 4 1.3m0-6h2v2h-2c-1.4 0-2.7-.3-4-1-2.5 1.3-5.5 1.3-8 0-1.3.7-2.6 1-4 1H2V6h2c1.4 0 2.8-.5 4-1.3 2.4 1.7 5.6 1.7 8 0 1.2.8 2.6 1.3 4 1.3m2 14H2v-2h20" transform="matrix(1.5 0 0 1.5 540 252)" id="mdi-shore" fill="#fff"/><path d="m15.1 1.81-2.83 2.83c-.77.78-.77 2.05 0 2.83l1.41 1.41-4.55 4.55-2.82-2.83L4.89 12c-4.95 5-1.39 8.5-1.39 8.5S7 24 12 19.09l1.41-1.41-2.8-2.8 4.54-4.54 1.39 1.39c.78.77 2.05.77 2.83 0L22.2 8.9l-7.1-7.09m2.83 8.47L16.55 8.9l-1.44-1.44-1.4-1.4 1.41-1.41 4.23 4.23-1.42 1.4Z" transform="matrix(1.5 0 0 1.5 576 252)" id="mdi-shovel" fill="#555"/><path d="m15.1 1.81-2.83 2.83c-.77.78-.77 2.05 0 2.83l1.41 1.41-4.55 4.55-2.82-2.83L4.89 12c-4.95 5-1.39 8.5-1.39 8.5S7 24 12 19.09l1.41-1.41-2.8-2.8 4.54-4.54 1.39 1.39c.78.77 2.05.77 2.83 0L22.2 8.9l-7.1-7.09m2.83 8.47L16.55 8.9l-1.44-1.44-1.4-1.4 1.41-1.41 4.23 4.23-1.42 1.4Z" transform="matrix(1.5 0 0 1.5 612 252)" id="mdi-shovel" fill="#fff"/><path d="m15.1 1.81-2.83 2.84a2.01 2.01 0 0 0 0 2.82l1.41 1.42-.68.73 1.44 1.44.73-.73 1.39 1.39c.78.78 2.05.78 2.83 0l2.83-2.84-7.12-7.07m2.83 8.47L13.7 6.06l1.41-1.41 4.23 4.23-1.41 1.4m2.77 9.96-1.41 1.41-7.79-7.77-1 1 2.83 2.81-1.33 1.4C7 24 3.5 20.5 3.5 20.5S-.06 17 4.89 12l1.42-1.4 2.82 2.83 1-1-7.78-7.75 1.42-1.42L20.7 20.24Z" transform="matrix(1.5 0 0 1.5 648 252)" id="mdi-shovel-off" fill="#555"/><path d="m15.1 1.81-2.83 2.84a2.01 2.01 0 0 0 0 2.82l1.41 1.42-.68.73 1.44 1.44.73-.73 1.39 1.39c.78.78 2.05.78 2.83 0l2.83-2.84-7.12-7.07m2.83 8.47L13.7 6.06l1.41-1.41 4.23 4.23-1.41 1.4m2.77 9.96-1.41 1.41-7.79-7.77-1 1 2.83 2.81-1.33 1.4C7 24 3.5 20.5 3.5 20.5S-.06 17 4.89 12l1.42-1.4 2.82 2.83 1-1-7.78-7.75 1.42-1.42L20.7 20.24Z" transform="matrix(1.5 0 0 1.5 684 252)" id="mdi-shovel-off" fill="#fff"/><path d="M21 14v1c0 1.91-1.07 3.57-2.65 4.41L19 22h-2l-.5-2h-9L7 22H5l.65-2.59A4.987 4.987 0 0 1 3 15v-1H2v-2h18V5a1 1 0 0 0-1-1c-.5 0-.88.34-1 .79.63.54 1 1.34 1 2.21h-6a3 3 0 0 1 3-3h.17c.41-1.16 1.52-2 2.83-2a3 3 0 0 1 3 3v9h-1m-2 0H5v1a3 3 0 0 0 3 3h8a3 3 0 0 0 3-3v-1Z" transform="matrix(1.5 0 0 1.5 0 288)" id="mdi-shower" fill="#555"/><path d="M21 14v1c0 1.91-1.07 3.57-2.65 4.41L19 22h-2l-.5-2h-9L7 22H5l.65-2.59A4.987 4.987 0 0 1 3 15v-1H2v-2h18V5a1 1 0 0 0-1-1c-.5 0-.88.34-1 .79.63.54 1 1.34 1 2.21h-6a3 3 0 0 1 3-3h.17c.41-1.16 1.52-2 2.83-2a3 3 0 0 1 3 3v9h-1m-2 0H5v1a3 3 0 0 0 3 3h8a3 3 0 0 0 3-3v-1Z" transform="matrix(1.5 0 0 1.5 36 288)" id="mdi-shower" fill="#fff"/><path d="M20 20a1 1 0 0 1 1 1 1 1 0 0 1-1 1 1 1 0 0 1-1-1 1 1 0 0 1 1-1m-4 0a1 1 0 0 1 1 1 1 1 0 0 1-1 1 1 1 0 0 1-1-1 1 1 0 0 1 1-1m-4 0a1 1 0 0 1 1 1 1 1 0 0 1-1 1 1 1 0 0 1-1-1 1 1 0 0 1 1-1m-4 0a1 1 0 0 1 1 1 1 1 0 0 1-1 1 1 1 0 0 1-1-1 1 1 0 0 1 1-1m-4 0a1 1 0 0 1 1 1 1 1 0 0 1-1 1 1 1 0 0 1-1-1 1 1 0 0 1 1-1m2-3a1 1 0 0 1 1 1 1 1 0 0 1-1 1 1 1 0 0 1-1-1 1 1 0 0 1 1-1m4 0a1 1 0 0 1 1 1 1 1 0 0 1-1 1 1 1 0 0 1-1-1 1 1 0 0 1 1-1m4 0a1 1 0 0 1 1 1 1 1 0 0 1-1 1 1 1 0 0 1-1-1 1 1 0 0 1 1-1m4 0a1 1 0 0 1 1 1 1 1 0 0 1-1 1 1 1 0 0 1-1-1 1 1 0 0 1 1-1M8 14a1 1 0 0 1 1 1 1 1 0 0 1-1 1 1 1 0 0 1-1-1 1 1 0 0 1 1-1m4 0a1 1 0 0 1 1 1 1 1 0 0 1-1 1 1 1 0 0 1-1-1 1 1 0 0 1 1-1m4 0a1 1 0 0 1 1 1 1 1 0 0 1-1 1 1 1 0 0 1-1-1 1 1 0 0 1 1-1m3-2H5v-2h14v2m-1.08-3H6.08C6.5 6.5 8.5 4.5 11 4.08V2h2v2.08c2.5.42 4.5 2.42 4.92 4.92Z" transform="matrix(1.5 0 0 1.5 72 288)" id="mdi-shower-head" fill="#555"/><path d="M20 20a1 1 0 0 1 1 1 1 1 0 0 1-1 1 1 1 0 0 1-1-1 1 1 0 0 1 1-1m-4 0a1 1 0 0 1 1 1 1 1 0 0 1-1 1 1 1 0 0 1-1-1 1 1 0 0 1 1-1m-4 0a1 1 0 0 1 1 1 1 1 0 0 1-1 1 1 1 0 0 1-1-1 1 1 0 0 1 1-1m-4 0a1 1 0 0 1 1 1 1 1 0 0 1-1 1 1 1 0 0 1-1-1 1 1 0 0 1 1-1m-4 0a1 1 0 0 1 1 1 1 1 0 0 1-1 1 1 1 0 0 1-1-1 1 1 0 0 1 1-1m2-3a1 1 0 0 1 1 1 1 1 0 0 1-1 1 1 1 0 0 1-1-1 1 1 0 0 1 1-1m4 0a1 1 0 0 1 1 1 1 1 0 0 1-1 1 1 1 0 0 1-1-1 1 1 0 0 1 1-1m4 0a1 1 0 0 1 1 1 1 1 0 0 1-1 1 1 1 0 0 1-1-1 1 1 0 0 1 1-1m4 0a1 1 0 0 1 1 1 1 1 0 0 1-1 1 1 1 0 0 1-1-1 1 1 0 0 1 1-1M8 14a1 1 0 0 1 1 1 1 1 0 0 1-1 1 1 1 0 0 1-1-1 1 1 0 0 1 1-1m4 0a1 1 0 0 1 1 1 1 1 0 0 1-1 1 1 1 0 0 1-1-1 1 1 0 0 1 1-1m4 0a1 1 0 0 1 1 1 1 1 0 0 1-1 1 1 1 0 0 1-1-1 1 1 0 0 1 1-1m3-2H5v-2h14v2m-1.08-3H6.08C6.5 6.5 8.5 4.5 11 4.08V2h2v2.08c2.5.42 4.5 2.42 4.92 4.92Z" transform="matrix(1.5 0 0 1.5 108 288)" id="mdi-shower-head" fill="#fff"/><path d="M6 3v4h2V5h8v2h2V3H6M5 8a3 3 0 0 0-3 3v6h3v-3h14v3h3v-6a3 3 0 0 0-3-3H5m13 2a1 1 0 0 1 1 1 1 1 0 0 1-1 1 1 1 0 0 1-1-1 1 1 0 0 1 1-1M7 16v5h2v-5H7m4 0v4h2v-4h-2m4 0v5h2v-5h-2Z" transform="matrix(1.5 0 0 1.5 144 288)" id="mdi-shredder" fill="#555"/><path d="M6 3v4h2V5h8v2h2V3H6M5 8a3 3 0 0 0-3 3v6h3v-3h14v3h3v-6a3 3 0 0 0-3-3H5m13 2a1 1 0 0 1 1 1 1 1 0 0 1-1 1 1 1 0 0 1-1-1 1 1 0 0 1 1-1M7 16v5h2v-5H7m4 0v4h2v-4h-2m4 0v5h2v-5h-2Z" transform="matrix(1.5 0 0 1.5 180 288)" id="mdi-shredder" fill="#fff"/><path d="m14.83 13.41-1.41 1.41 3.13 3.13L14.5 20H20v-5.5l-2.04 2.04-3.13-3.13M14.5 4l2.04 2.04L4 18.59 5.41 20 17.96 7.46 20 9.5V4m-9.41 5.17L5.41 4 4 5.41l5.17 5.17 1.42-1.41Z" transform="matrix(1.5 0 0 1.5 216 288)" id="mdi-shuffle" fill="#555"/><path d="m14.83 13.41-1.41 1.41 3.13 3.13L14.5 20H20v-5.5l-2.04 2.04-3.13-3.13M14.5 4l2.04 2.04L4 18.59 5.41 20 17.96 7.46 20 9.5V4m-9.41 5.17L5.41 4 4 5.41l5.17 5.17 1.42-1.41Z" transform="matrix(1.5 0 0 1.5 252 288)" id="mdi-shuffle" fill="#fff"/><path d="M16 4.5V7H5v2h11v2.5L19.5 8M16 12.5V15H5v2h11v2.5l3.5-3.5" transform="matrix(1.5 0 0 1.5 288 288)" id="mdi-shuffle-disabled" fill="#555"/><path d="M16 4.5V7H5v2h11v2.5L19.5 8M16 12.5V15H5v2h11v2.5l3.5-3.5" transform="matrix(1.5 0 0 1.5 324 288)" id="mdi-shuffle-disabled" fill="#fff"/><path d="m17 3 5.25 4.5L17 12l5.25 4.5L17 21v-3h-2.74l-2.82-2.82 2.12-2.12L15.5 15H17V9h-1.5l-9 9H2v-3h3.26l9-9H17V3M2 6h4.5l2.82 2.82-2.12 2.12L5.26 9H2V6Z" transform="matrix(1.5 0 0 1.5 360 288)" id="mdi-shuffle-variant" fill="#555"/><path d="m17 3 5.25 4.5L17 12l5.25 4.5L17 21v-3h-2.74l-2.82-2.82 2.12-2.12L15.5 15H17V9h-1.5l-9 9H2v-3h3.26l9-9H17V3M2 6h4.5l2.82 2.82-2.12 2.12L5.26 9H2V6Z" transform="matrix(1.5 0 0 1.5 396 288)" id="mdi-shuffle-variant" fill="#fff"/><path d="M14.5 9.5 12 2 9.5 9.5 2 12l7.5 2.5L12 22l2.5-7.5L22 12l-7.5-2.5M12 13.7c-.9 0-1.7-.7-1.7-1.7 0-.9.7-1.7 1.7-1.7.9 0 1.7.7 1.7 1.7 0 .9-.8 1.7-1.7 1.7Z" transform="matrix(1.5 0 0 1.5 432 288)" id="mdi-shuriken" fill="#555"/><path d="M14.5 9.5 12 2 9.5 9.5 2 12l7.5 2.5L12 22l2.5-7.5L22 12l-7.5-2.5M12 13.7c-.9 0-1.7-.7-1.7-1.7 0-.9.7-1.7 1.7-1.7.9 0 1.7.7 1.7 1.7 0 .9-.8 1.7-1.7 1.7Z" transform="matrix(1.5 0 0 1.5 468 288)" id="mdi-shuriken" fill="#fff"/><path d="M19.3 7.2C17.5 4.7 14.9 3 12 2c14.2 8.5 3.4 20.9-3.5 13.5l-2.6.5-3.4 3.4c-.6.6-.6 1.6 0 2.1.6.6 1.6.6 2.1 0l3.2-3.2c7.5 6 17.2-3.3 11.5-11.1Z" transform="matrix(1.5 0 0 1.5 504 288)" id="mdi-sickle" fill="#555"/><path d="M19.3 7.2C17.5 4.7 14.9 3 12 2c14.2 8.5 3.4 20.9-3.5 13.5l-2.6.5-3.4 3.4c-.6.6-.6 1.6 0 2.1.6.6 1.6.6 2.1 0l3.2-3.2c7.5 6 17.2-3.3 11.5-11.1Z" transform="matrix(1.5 0 0 1.5 540 288)" id="mdi-sickle" fill="#fff"/><path d="M18 6H8.83l6 6-6 6H18v2H6v-2l6-6-6-6V4h12v2Z" transform="matrix(1.5 0 0 1.5 576 288)" id="mdi-sigma" fill="#555"/><path d="M18 6H8.83l6 6-6 6H18v2H6v-2l6-6-6-6V4h12v2Z" transform="matrix(1.5 0 0 1.5 612 288)" id="mdi-sigma" fill="#fff"/><path d="M19 12c0 4.42-3.36 8-7.5 8C7.36 20 4 16.42 4 12s3.36-8 7.5-8H20v2h-3.54A8.291 8.291 0 0 1 19 12m-7.5-6C8.46 6 6 8.69 6 12s2.46 6 5.5 6 5.5-2.69 5.5-6-2.46-6-5.5-6Z" transform="matrix(1.5 0 0 1.5 648 288)" id="mdi-sigma-lower" fill="#555"/><path d="M19 12c0 4.42-3.36 8-7.5 8C7.36 20 4 16.42 4 12s3.36-8 7.5-8H20v2h-3.54A8.291 8.291 0 0 1 19 12m-7.5-6C8.46 6 6 8.69 6 12s2.46 6 5.5 6 5.5-2.69 5.5-6-2.46-6-5.5-6Z" transform="matrix(1.5 0 0 1.5 684 288)" id="mdi-sigma-lower" fill="#fff"/><path d="M2 3h20v10h-4v8h-2v-8H8v8H6v-8H2V3m16.97 8L20 9.97V7.15L16.15 11h2.82m-5.65 0 6-6H16.5l-6 6h2.82m-5.66 0 6-6h-2.83l-6 6h2.83M5.18 5 4 6.18V9l4-4H5.18Z" transform="matrix(1.5 0 0 1.5 0 324)" id="mdi-sign-caution" fill="#555"/><path d="M2 3h20v10h-4v8h-2v-8H8v8H6v-8H2V3m16.97 8L20 9.97V7.15L16.15 11h2.82m-5.65 0 6-6H16.5l-6 6h2.82m-5.66 0 6-6h-2.83l-6 6h2.83M5.18 5 4 6.18V9l4-4H5.18Z" transform="matrix(1.5 0 0 1.5 36 324)" id="mdi-sign-caution" fill="#fff"/><path d="M11 12H3.5L6 9.5 3.5 7H11V3l1-1 1 1v4h5l2.5 2.5L18 12h-5v8a2 2 0 0 1 2 2H9a2 2 0 0 1 2-2v-8Z" transform="matrix(1.5 0 0 1.5 72 324)" id="mdi-sign-direction" fill="#555"/><path d="M11 12H3.5L6 9.5 3.5 7H11V3l1-1 1 1v4h5l2.5 2.5L18 12h-5v8a2 2 0 0 1 2 2H9a2 2 0 0 1 2-2v-8Z" transform="matrix(1.5 0 0 1.5 108 324)" id="mdi-sign-direction" fill="#fff"/><path d="M20.5 9.5 18 12h-5v10H9a2 2 0 0 1 2-2v-8H3.5L6 9.5 3.5 7H11V3l1-1 1 1v4h5m5 11h-8v2h8Z" transform="matrix(1.5 0 0 1.5 144 324)" id="mdi-sign-direction-minus" fill="#555"/><path d="M20.5 9.5 18 12h-5v10H9a2 2 0 0 1 2-2v-8H3.5L6 9.5 3.5 7H11V3l1-1 1 1v4h5m5 11h-8v2h8Z" transform="matrix(1.5 0 0 1.5 180 324)" id="mdi-sign-direction-minus" fill="#fff"/><path d="M13 20h.09a5.5 5.5 0 0 0 .72 2H9a2 2 0 0 1 2-2v-8H3.5L6 9.5 3.5 7H11V3l1-1 1 1v4h5l2.5 2.5L18 12h-5m5 3v3h-3v2h3v3h2v-3h3v-2h-3v-3Z" transform="matrix(1.5 0 0 1.5 216 324)" id="mdi-sign-direction-plus" fill="#555"/><path d="M13 20h.09a5.5 5.5 0 0 0 .72 2H9a2 2 0 0 1 2-2v-8H3.5L6 9.5 3.5 7H11V3l1-1 1 1v4h5l2.5 2.5L18 12h-5m5 3v3h-3v2h3v3h2v-3h3v-2h-3v-3Z" transform="matrix(1.5 0 0 1.5 252 324)" id="mdi-sign-direction-plus" fill="#fff"/><path d="M13 20h.09a5.5 5.5 0 0 0 .72 2H9a2 2 0 0 1 2-2v-8H3.5L6 9.5 3.5 7H11V3l1-1 1 1v4h5l2.5 2.5L18 12h-5m8.12 3.46L19 17.59l-2.12-2.13-1.42 1.42L17.59 19l-2.13 2.12 1.42 1.42L19 20.41l2.12 2.13 1.42-1.42L20.41 19l2.13-2.12Z" transform="matrix(1.5 0 0 1.5 288 324)" id="mdi-sign-direction-remove" fill="#555"/><path d="M13 20h.09a5.5 5.5 0 0 0 .72 2H9a2 2 0 0 1 2-2v-8H3.5L6 9.5 3.5 7H11V3l1-1 1 1v4h5l2.5 2.5L18 12h-5m8.12 3.46L19 17.59l-2.12-2.13-1.42 1.42L17.59 19l-2.13 2.12 1.42 1.42L19 20.41l2.12 2.13 1.42-1.42L20.41 19l2.13-2.12Z" transform="matrix(1.5 0 0 1.5 324 324)" id="mdi-sign-direction-remove" fill="#fff"/><path d="m11 3 1-1 1 1v17a2 2 0 0 1 2 2H9c0-1.1.9-2 2-2V3Z" transform="matrix(1.5 0 0 1.5 360 324)" id="mdi-sign-pole" fill="#555"/><path d="m11 3 1-1 1 1v17a2 2 0 0 1 2 2H9c0-1.1.9-2 2-2V3Z" transform="matrix(1.5 0 0 1.5 396 324)" id="mdi-sign-pole" fill="#fff"/><path d="M18 8H8c-1.1 0-2 .9-2 2v6a2 2 0 0 0 2 2h10c1.11 0 2-.89 2-2v-6a2 2 0 0 0-2-2m-4 8H8v-2h6v2m4-4H8v-2h10v2m4-6H4v16H2V2h2v2h18v2Z" transform="matrix(1.5 0 0 1.5 432 324)" id="mdi-sign-real-estate" fill="#555"/><path d="M18 8H8c-1.1 0-2 .9-2 2v6a2 2 0 0 0 2 2h10c1.11 0 2-.89 2-2v-6a2 2 0 0 0-2-2m-4 8H8v-2h6v2m4-4H8v-2h10v2m4-6H4v16H2V2h2v2h18v2Z" transform="matrix(1.5 0 0 1.5 468 324)" id="mdi-sign-real-estate" fill="#fff"/><path d="m11 3 1-1 1 1v2h7a1 1 0 0 1 1 1v10a1 1 0 0 1-1 1h-7v3a2 2 0 0 1 2 2H9a2 2 0 0 1 2-2v-3H4a1 1 0 0 1-1-1V6a1 1 0 0 1 1-1h7V3M6 8v2h12V8H6m0 4v2h7v-2H6Z" transform="matrix(1.5 0 0 1.5 504 324)" id="mdi-sign-text" fill="#555"/><path d="m11 3 1-1 1 1v2h7a1 1 0 0 1 1 1v10a1 1 0 0 1-1 1h-7v3a2 2 0 0 1 2 2H9a2 2 0 0 1 2-2v-3H4a1 1 0 0 1-1-1V6a1 1 0 0 1 1-1h7V3M6 8v2h12V8H6m0 4v2h7v-2H6Z" transform="matrix(1.5 0 0 1.5 540 324)" id="mdi-sign-text" fill="#fff"/><path d="M3 21h3v-3H3m5 3h3v-7H8m5 7h3V9h-3m5 12h3V3h-3v18Z" transform="matrix(1.5 0 0 1.5 576 324)" id="mdi-signal" fill="#555"/><path d="M3 21h3v-3H3m5 3h3v-7H8m5 7h3V9h-3m5 12h3V3h-3v18Z" transform="matrix(1.5 0 0 1.5 612 324)" id="mdi-signal" fill="#fff"/></svg>