<svg xmlns="http://www.w3.org/2000/svg" width="720" height="900"><path d="M11 9.8v.9l1.7.2c2.6.4 4.5 1.4 5.9 2.7-1.7-.5-3.5-.8-5.6-.8h-2v1.3L8.8 12 11 9.8M13 5l-7 7 7 7v-4.1c5 0 8.5 1.6 11 5.1-1-5-4-10-11-11M7 8V5l-7 7 7 7v-3l-4-4" transform="scale(1.5)" id="mdi-reply-all-outline" fill="#555"/><path d="M11 9.8v.9l1.7.2c2.6.4 4.5 1.4 5.9 2.7-1.7-.5-3.5-.8-5.6-.8h-2v1.3L8.8 12 11 9.8M13 5l-7 7 7 7v-4.1c5 0 8.5 1.6 11 5.1-1-5-4-10-11-11M7 8V5l-7 7 7 7v-3l-4-4" transform="translate(36) scale(1.5)" id="mdi-reply-all-outline" fill="#fff"/><path d="M2 12c0 5.5 4.5 10 10 10s10-4.5 10-10S17.5 2 12 2 2 6.5 2 12m3-1 5-5v3c5.06.73 7.28 4.33 8 8-1.81-2.57-4.39-4-8-4v3l-5-5Z" transform="translate(72) scale(1.5)" id="mdi-reply-circle" fill="#555"/><path d="M2 12c0 5.5 4.5 10 10 10s10-4.5 10-10S17.5 2 12 2 2 6.5 2 12m3-1 5-5v3c5.06.73 7.28 4.33 8 8-1.81-2.57-4.39-4-8-4v3l-5-5Z" transform="translate(108) scale(1.5)" id="mdi-reply-circle" fill="#fff"/><path d="M8 9.8v.9l1.7.3c2.6.4 4.5 1.4 5.9 2.7-1.7-.5-3.5-.8-5.6-.8H8v1.3L5.8 12 8 9.8M10 5l-7 7 7 7v-4.1c5 0 8.5 1.6 11 5.1-1-5-4-10-11-11" transform="translate(144) scale(1.5)" id="mdi-reply-outline" fill="#555"/><path d="M8 9.8v.9l1.7.3c2.6.4 4.5 1.4 5.9 2.7-1.7-.5-3.5-.8-5.6-.8H8v1.3L5.8 12 8 9.8M10 5l-7 7 7 7v-4.1c5 0 8.5 1.6 11 5.1-1-5-4-10-11-11" transform="translate(180) scale(1.5)" id="mdi-reply-outline" fill="#fff"/><path d="m12.72 13.15.9-.89c-.02-1.26.69-2.82 2-4.12 1.95-1.96 4.49-2.59 5.66-1.42s.54 3.71-1.42 5.66c-1.3 1.31-2.86 2.02-4.12 2l-.89.9c-.35.33-.85.38-1.25.13-.84.3-1.6.67-2.04 1.39-.53.88-.53 2.3-1.09 3.15-.56.86-1.68 1.15-2.86 1.15S5 21 3.95 19.5l2.48.42c.57.08 2.07-.53 2.62-1.38.56-.86.56-2.27 1.09-3.16.47-.78 1.36-1.15 2.29-1.47-.01-.27.07-.55.29-.76M7 2a5 5 0 0 1 5 5 5 5 0 0 1-5 5 5 5 0 0 1-5-5 5 5 0 0 1 5-5m0 2a3 3 0 0 0-3 3 3 3 0 0 0 3 3 3 3 0 0 0 3-3 3 3 0 0 0-3-3Z" transform="translate(216) scale(1.5)" id="mdi-reproduction" fill="#555"/><path d="m12.72 13.15.9-.89c-.02-1.26.69-2.82 2-4.12 1.95-1.96 4.49-2.59 5.66-1.42s.54 3.71-1.42 5.66c-1.3 1.31-2.86 2.02-4.12 2l-.89.9c-.35.33-.85.38-1.25.13-.84.3-1.6.67-2.04 1.39-.53.88-.53 2.3-1.09 3.15-.56.86-1.68 1.15-2.86 1.15S5 21 3.95 19.5l2.48.42c.57.08 2.07-.53 2.62-1.38.56-.86.56-2.27 1.09-3.16.47-.78 1.36-1.15 2.29-1.47-.01-.27.07-.55.29-.76M7 2a5 5 0 0 1 5 5 5 5 0 0 1-5 5 5 5 0 0 1-5-5 5 5 0 0 1 5-5m0 2a3 3 0 0 0-3 3 3 3 0 0 0 3 3 3 3 0 0 0 3-3 3 3 0 0 0-3-3Z" transform="translate(252) scale(1.5)" id="mdi-reproduction" fill="#fff"/><path d="M2 11h5l3.07 4.35L13.11 4 18 11h4v2h-5l-3.07-4.35L10.89 20 6 13H2v-2Z" transform="translate(288) scale(1.5)" id="mdi-resistor" fill="#555"/><path d="M2 11h5l3.07 4.35L13.11 4 18 11h4v2h-5l-3.07-4.35L10.89 20 6 13H2v-2Z" transform="translate(324) scale(1.5)" id="mdi-resistor" fill="#fff"/><path d="M2 11h1.67c.41-1.17 1.52-2 2.83-2a3 3 0 0 1 3 3c0 .65-.21 1.25-.56 1.74l1.13 1.61L13.11 4l1.5 2.13 2.09 2.98.8-.11c1.31 0 2.42.83 2.83 2H22v2h-1.67a2.99 2.99 0 0 1-2.83 2 3 3 0 0 1-3-3c0-.65.21-1.25.56-1.74l-1.13-1.61L10.89 20 7.3 14.89A2.99 2.99 0 0 1 3.67 13H2v-2m15.5-.5A1.5 1.5 0 0 0 16 12a1.5 1.5 0 0 0 1.5 1.5A1.5 1.5 0 0 0 19 12a1.5 1.5 0 0 0-1.5-1.5m-11 0A1.5 1.5 0 0 0 5 12a1.5 1.5 0 0 0 1.5 1.5A1.5 1.5 0 0 0 8 12a1.5 1.5 0 0 0-1.5-1.5Z" transform="translate(360) scale(1.5)" id="mdi-resistor-nodes" fill="#555"/><path d="M2 11h1.67c.41-1.17 1.52-2 2.83-2a3 3 0 0 1 3 3c0 .65-.21 1.25-.56 1.74l1.13 1.61L13.11 4l1.5 2.13 2.09 2.98.8-.11c1.31 0 2.42.83 2.83 2H22v2h-1.67a2.99 2.99 0 0 1-2.83 2 3 3 0 0 1-3-3c0-.65.21-1.25.56-1.74l-1.13-1.61L10.89 20 7.3 14.89A2.99 2.99 0 0 1 3.67 13H2v-2m15.5-.5A1.5 1.5 0 0 0 16 12a1.5 1.5 0 0 0 1.5 1.5A1.5 1.5 0 0 0 19 12a1.5 1.5 0 0 0-1.5-1.5m-11 0A1.5 1.5 0 0 0 5 12a1.5 1.5 0 0 0 1.5 1.5A1.5 1.5 0 0 0 8 12a1.5 1.5 0 0 0-1.5-1.5Z" transform="translate(396) scale(1.5)" id="mdi-resistor-nodes" fill="#fff"/><path d="m10.59 12 4-4H11V6h7v7h-2V9.41l-4 4V16h8V4H8v8h2.59M22 2v16H12v4H2V12h4V2h16M10 14H4v6h6v-6Z" transform="translate(432) scale(1.5)" id="mdi-resize" fill="#555"/><path d="m10.59 12 4-4H11V6h7v7h-2V9.41l-4 4V16h8V4H8v8h2.59M22 2v16H12v4H2V12h4V2h16M10 14H4v6h6v-6Z" transform="translate(468) scale(1.5)" id="mdi-resize" fill="#fff"/><path d="M22 22h-2v-2h2v2m0-4h-2v-2h2v2m-4 4h-2v-2h2v2m0-4h-2v-2h2v2m-4 4h-2v-2h2v2m8-8h-2v-2h2v2Z" transform="translate(504) scale(1.5)" id="mdi-resize-bottom-right" fill="#555"/><path d="M22 22h-2v-2h2v2m0-4h-2v-2h2v2m-4 4h-2v-2h2v2m0-4h-2v-2h2v2m-4 4h-2v-2h2v2m8-8h-2v-2h2v2Z" transform="translate(540) scale(1.5)" id="mdi-resize-bottom-right" fill="#fff"/><path d="M4 6v10h5v-4a2 2 0 0 1 2-2h5a2 2 0 0 1 2 2v4h2V6H4M0 20v-2h4a2 2 0 0 1-2-2V6a2 2 0 0 1 2-2h16a2 2 0 0 1 2 2v10a2 2 0 0 1-2 2h4v2h-6a2 2 0 0 1-2 2h-5a2 2 0 0 1-2-2H0m11.5 0a.5.5 0 0 0-.5.5.5.5 0 0 0 .5.5.5.5 0 0 0 .5-.5.5.5 0 0 0-.5-.5m4 0a.5.5 0 0 0-.5.5.5.5 0 0 0 .5.5.5.5 0 0 0 .5-.5.5.5 0 0 0-.5-.5M13 20v1h1v-1h-1m-2-8v7h5v-7h-5Z" transform="translate(576) scale(1.5)" id="mdi-responsive" fill="#555"/><path d="M4 6v10h5v-4a2 2 0 0 1 2-2h5a2 2 0 0 1 2 2v4h2V6H4M0 20v-2h4a2 2 0 0 1-2-2V6a2 2 0 0 1 2-2h16a2 2 0 0 1 2 2v10a2 2 0 0 1-2 2h4v2h-6a2 2 0 0 1-2 2h-5a2 2 0 0 1-2-2H0m11.5 0a.5.5 0 0 0-.5.5.5.5 0 0 0 .5.5.5.5 0 0 0 .5-.5.5.5 0 0 0-.5-.5m4 0a.5.5 0 0 0-.5.5.5.5 0 0 0 .5.5.5.5 0 0 0 .5-.5.5.5 0 0 0-.5-.5M13 20v1h1v-1h-1m-2-8v7h5v-7h-5Z" transform="translate(612) scale(1.5)" id="mdi-responsive" fill="#fff"/><path d="M12 4c2.1 0 4.1.8 5.6 2.3 3.1 3.1 3.1 8.2 0 11.3-1.8 1.9-4.3 2.6-6.7 2.3l.5-2c1.7.2 3.5-.4 4.8-1.7 2.3-2.3 2.3-6.1 0-8.5C15.1 6.6 13.5 6 12 6v4.6l-5-5 5-5V4M6.3 17.6C3.7 15 3.3 11 5.1 7.9l1.5 1.5c-1.1 2.2-.7 5 1.2 6.8.5.5 1.1.9 1.8 1.2l-.6 2c-1-.4-1.9-1-2.7-1.8Z" transform="translate(648) scale(1.5)" id="mdi-restart" fill="#555"/><path d="M12 4c2.1 0 4.1.8 5.6 2.3 3.1 3.1 3.1 8.2 0 11.3-1.8 1.9-4.3 2.6-6.7 2.3l.5-2c1.7.2 3.5-.4 4.8-1.7 2.3-2.3 2.3-6.1 0-8.5C15.1 6.6 13.5 6 12 6v4.6l-5-5 5-5V4M6.3 17.6C3.7 15 3.3 11 5.1 7.9l1.5 1.5c-1.1 2.2-.7 5 1.2 6.8.5.5 1.1.9 1.8 1.2l-.6 2c-1-.4-1.9-1-2.7-1.8Z" transform="translate(684) scale(1.5)" id="mdi-restart" fill="#fff"/><path d="M10 4.03V.633L5 5.63l5 5v-4.6c1.5 0 3.11.6 4.21 1.7 2.29 2.4 2.29 6.2 0 8.5-1.3 1.3-3.1 1.9-4.81 1.7l-.5 2c2.41.3 4.91-.4 6.71-2.3 3.09-3.1 3.09-8.2 0-11.3-1.5-1.5-3.5-2.3-5.61-2.3m-5.69 13.6c.8.8 1.69 1.4 2.69 1.8l.61-2c-.7-.3-1.3-.7-1.8-1.2-1.9-1.8-2.31-4.6-1.2-6.8l-1.5-1.5c-1.8 3.1-1.4 7.1 1.2 9.7M20 13h2V7h-2v6m0 4h2v-2h-2v2Z" transform="matrix(1.5 0 0 1.5 0 36)" id="mdi-restart-alert" fill="#555"/><path d="M10 4.03V.633L5 5.63l5 5v-4.6c1.5 0 3.11.6 4.21 1.7 2.29 2.4 2.29 6.2 0 8.5-1.3 1.3-3.1 1.9-4.81 1.7l-.5 2c2.41.3 4.91-.4 6.71-2.3 3.09-3.1 3.09-8.2 0-11.3-1.5-1.5-3.5-2.3-5.61-2.3m-5.69 13.6c.8.8 1.69 1.4 2.69 1.8l.61-2c-.7-.3-1.3-.7-1.8-1.2-1.9-1.8-2.31-4.6-1.2-6.8l-1.5-1.5c-1.8 3.1-1.4 7.1 1.2 9.7M20 13h2V7h-2v6m0 4h2v-2h-2v2Z" transform="matrix(1.5 0 0 1.5 36 36)" id="mdi-restart-alert" fill="#fff"/><path d="m20.8 22.7-4.2-4.2c-1.7 1.2-3.7 1.7-5.7 1.4l.5-2c1.3.1 2.6-.2 3.7-.9L1.1 3l1.3-1.3 14.1 14.1 1.4 1.4 4.2 4.2-1.3 1.3M12 6c1.5 0 3.1.6 4.2 1.8 1.8 1.8 2.2 4.4 1.3 6.6l1.5 1.5c1.7-3 1.2-6.9-1.4-9.5C16.1 4.8 14 4 12 4V.7l-4.1 4L12 8.8V6M6.6 9.4 5.1 7.9C3.3 11 3.7 15 6.3 17.7c.8.7 1.7 1.3 2.7 1.7l.5-2c-.6-.3-1.2-.7-1.8-1.2-1.8-1.8-2.2-4.6-1.1-6.8Z" transform="matrix(1.5 0 0 1.5 72 36)" id="mdi-restart-off" fill="#555"/><path d="m20.8 22.7-4.2-4.2c-1.7 1.2-3.7 1.7-5.7 1.4l.5-2c1.3.1 2.6-.2 3.7-.9L1.1 3l1.3-1.3 14.1 14.1 1.4 1.4 4.2 4.2-1.3 1.3M12 6c1.5 0 3.1.6 4.2 1.8 1.8 1.8 2.2 4.4 1.3 6.6l1.5 1.5c1.7-3 1.2-6.9-1.4-9.5C16.1 4.8 14 4 12 4V.7l-4.1 4L12 8.8V6M6.6 9.4 5.1 7.9C3.3 11 3.7 15 6.3 17.7c.8.7 1.7 1.3 2.7 1.7l.5-2c-.6-.3-1.2-.7-1.8-1.2-1.8-1.8-2.2-4.6-1.1-6.8Z" transform="matrix(1.5 0 0 1.5 108 36)" id="mdi-restart-off" fill="#fff"/><path d="M13 3a9 9 0 0 0-9 9H1l3.89 3.89.07.14L9 12H6a7 7 0 0 1 7-7 7 7 0 0 1 7 7 7 7 0 0 1-7 7c-1.93 0-3.68-.79-4.94-2.06l-1.42 1.42A8.896 8.896 0 0 0 13 21a9 9 0 0 0 9-9 9 9 0 0 0-9-9Z" transform="matrix(1.5 0 0 1.5 144 36)" id="mdi-restore" fill="#555"/><path d="M13 3a9 9 0 0 0-9 9H1l3.89 3.89.07.14L9 12H6a7 7 0 0 1 7-7 7 7 0 0 1 7 7 7 7 0 0 1-7 7c-1.93 0-3.68-.79-4.94-2.06l-1.42 1.42A8.896 8.896 0 0 0 13 21a9 9 0 0 0 9-9 9 9 0 0 0-9-9Z" transform="matrix(1.5 0 0 1.5 180 36)" id="mdi-restore" fill="#fff"/><path d="M13 3c-5 0-9 4-9 9H1l3.9 3.9.1.1 4-4H6c0-3.9 3.1-7 7-7s7 3.1 7 7-3.1 7-7 7c-1.9 0-3.7-.8-4.9-2.1l-1.4 1.4C8.3 20 10.5 21 13 21c5 0 9-4 9-9s-4-9-9-9m-1 12h2v2h-2v-2m0-8h2v6h-2V7" transform="matrix(1.5 0 0 1.5 216 36)" id="mdi-restore-alert" fill="#555"/><path d="M13 3c-5 0-9 4-9 9H1l3.9 3.9.1.1 4-4H6c0-3.9 3.1-7 7-7s7 3.1 7 7-3.1 7-7 7c-1.9 0-3.7-.8-4.9-2.1l-1.4 1.4C8.3 20 10.5 21 13 21c5 0 9-4 9-9s-4-9-9-9m-1 12h2v2h-2v-2m0-8h2v6h-2V7" transform="matrix(1.5 0 0 1.5 252 36)" id="mdi-restore-alert" fill="#fff"/><path d="m11.5 12 8.5 6V6m-9 12V6l-8.5 6 8.5 6Z" transform="matrix(1.5 0 0 1.5 288 36)" id="mdi-rewind" fill="#555"/><path d="m11.5 12 8.5 6V6m-9 12V6l-8.5 6 8.5 6Z" transform="matrix(1.5 0 0 1.5 324 36)" id="mdi-rewind" fill="#fff"/><path d="M12.5 3c4.65 0 8.58 3.03 9.97 7.22L20.1 11c-1.05-3.19-4.06-5.5-7.6-5.5-1.96 0-3.73.72-5.12 1.88L10 10H3V3l2.6 2.6C7.45 4 9.85 3 12.5 3M10 12v10H8v-8H6v-2h4m8 2v6c0 1.11-.89 2-2 2h-2a2 2 0 0 1-2-2v-6a2 2 0 0 1 2-2h2a2 2 0 0 1 2 2m-4 0v6h2v-6h-2Z" transform="matrix(1.5 0 0 1.5 360 36)" id="mdi-rewind-10" fill="#555"/><path d="M12.5 3c4.65 0 8.58 3.03 9.97 7.22L20.1 11c-1.05-3.19-4.06-5.5-7.6-5.5-1.96 0-3.73.72-5.12 1.88L10 10H3V3l2.6 2.6C7.45 4 9.85 3 12.5 3M10 12v10H8v-8H6v-2h4m8 2v6c0 1.11-.89 2-2 2h-2a2 2 0 0 1-2-2v-6a2 2 0 0 1 2-2h2a2 2 0 0 1 2 2m-4 0v6h2v-6h-2Z" transform="matrix(1.5 0 0 1.5 396 36)" id="mdi-rewind-10" fill="#fff"/><path d="M12.5 3c4.65 0 8.58 3.03 9.97 7.22L20.1 11c-1.05-3.19-4.06-5.5-7.6-5.5-1.96 0-3.73.72-5.12 1.88L10 10H3V3l2.6 2.6C7.45 4 9.85 3 12.5 3M10 12v10H8v-8H6v-2h4m2 0h6v2h-4v2h2a2 2 0 0 1 2 2v2c0 1.11-.89 2-2 2h-4v-2h4v-2h-4v-6Z" transform="matrix(1.5 0 0 1.5 432 36)" id="mdi-rewind-15" fill="#555"/><path d="M12.5 3c4.65 0 8.58 3.03 9.97 7.22L20.1 11c-1.05-3.19-4.06-5.5-7.6-5.5-1.96 0-3.73.72-5.12 1.88L10 10H3V3l2.6 2.6C7.45 4 9.85 3 12.5 3M10 12v10H8v-8H6v-2h4m2 0h6v2h-4v2h2a2 2 0 0 1 2 2v2c0 1.11-.89 2-2 2h-4v-2h4v-2h-4v-6Z" transform="matrix(1.5 0 0 1.5 468 36)" id="mdi-rewind-15" fill="#fff"/><path d="M19 14v6c0 1.11-.89 2-2 2h-2a2 2 0 0 1-2-2v-6a2 2 0 0 1 2-2h2a2 2 0 0 1 2 2m-4 0v6h2v-6h-2m-4 6a2 2 0 0 1-2 2H5v-2h4v-2H7v-2h2v-2H5v-2h4a2 2 0 0 1 2 2v1.5A1.5 1.5 0 0 1 9.5 17a1.5 1.5 0 0 1 1.5 1.5V20m1.5-17c4.65 0 8.58 3.03 9.97 7.22L20.1 11c-1.05-3.19-4.06-5.5-7.6-5.5-1.96 0-3.73.72-5.12 1.88L10 10H3V3l2.6 2.6C7.45 4 9.85 3 12.5 3Z" transform="matrix(1.5 0 0 1.5 504 36)" id="mdi-rewind-30" fill="#555"/><path d="M19 14v6c0 1.11-.89 2-2 2h-2a2 2 0 0 1-2-2v-6a2 2 0 0 1 2-2h2a2 2 0 0 1 2 2m-4 0v6h2v-6h-2m-4 6a2 2 0 0 1-2 2H5v-2h4v-2H7v-2h2v-2H5v-2h4a2 2 0 0 1 2 2v1.5A1.5 1.5 0 0 1 9.5 17a1.5 1.5 0 0 1 1.5 1.5V20m1.5-17c4.65 0 8.58 3.03 9.97 7.22L20.1 11c-1.05-3.19-4.06-5.5-7.6-5.5-1.96 0-3.73.72-5.12 1.88L10 10H3V3l2.6 2.6C7.45 4 9.85 3 12.5 3Z" transform="matrix(1.5 0 0 1.5 540 36)" id="mdi-rewind-30" fill="#fff"/><path d="M12.5 3c4.65 0 8.58 3.03 9.97 7.22L20.1 11c-1.05-3.19-4.06-5.5-7.6-5.5-1.96 0-3.73.72-5.12 1.88L10 10H3V3l2.6 2.6C7.45 4 9.85 3 12.5 3M9 12h6v2h-4v2h2a2 2 0 0 1 2 2v2c0 1.11-.89 2-2 2H9v-2h4v-2H9v-6Z" transform="matrix(1.5 0 0 1.5 576 36)" id="mdi-rewind-5" fill="#555"/><path d="M12.5 3c4.65 0 8.58 3.03 9.97 7.22L20.1 11c-1.05-3.19-4.06-5.5-7.6-5.5-1.96 0-3.73.72-5.12 1.88L10 10H3V3l2.6 2.6C7.45 4 9.85 3 12.5 3M9 12h6v2h-4v2h2a2 2 0 0 1 2 2v2c0 1.11-.89 2-2 2H9v-2h4v-2H9v-6Z" transform="matrix(1.5 0 0 1.5 612 36)" id="mdi-rewind-5" fill="#fff"/><path d="M19 14v6c0 1.1-.9 2-2 2h-2c-1.1 0-2-.9-2-2v-6c0-1.1.9-2 2-2h2c1.1 0 2 .9 2 2m-4 0v6h2v-6h-2M12.5 3c4.6 0 8.6 3 10 7.2l-2.4.8C19 7.8 16 5.5 12.5 5.5c-2 0-3.7.7-5.1 1.9L10 10H3V3l2.6 2.6C7.4 4 9.9 3 12.5 3M7 12c-1.1 0-2 .9-2 2v6c0 1.1.9 2 2 2h2c1.1 0 2-.9 2-2v-2c0-1.1-.9-2-2-2H7v-2h4v-2H7m0 6h2v2H7v-2Z" transform="matrix(1.5 0 0 1.5 648 36)" id="mdi-rewind-60" fill="#555"/><path d="M19 14v6c0 1.1-.9 2-2 2h-2c-1.1 0-2-.9-2-2v-6c0-1.1.9-2 2-2h2c1.1 0 2 .9 2 2m-4 0v6h2v-6h-2M12.5 3c4.6 0 8.6 3 10 7.2l-2.4.8C19 7.8 16 5.5 12.5 5.5c-2 0-3.7.7-5.1 1.9L10 10H3V3l2.6 2.6C7.4 4 9.9 3 12.5 3M7 12c-1.1 0-2 .9-2 2v6c0 1.1.9 2 2 2h2c1.1 0 2-.9 2-2v-2c0-1.1-.9-2-2-2H7v-2h4v-2H7m0 6h2v2H7v-2Z" transform="matrix(1.5 0 0 1.5 684 36)" id="mdi-rewind-60" fill="#fff"/><path d="M10 9.9 7 12l3 2.1V9.9m9 0L16 12l3 2.1V9.9M12 6v12l-8.5-6L12 6m9 0v12l-8.5-6L21 6Z" transform="matrix(1.5 0 0 1.5 0 72)" id="mdi-rewind-outline" fill="#555"/><path d="M10 9.9 7 12l3 2.1V9.9m9 0L16 12l3 2.1V9.9M12 6v12l-8.5-6L12 6m9 0v12l-8.5-6L21 6Z" transform="matrix(1.5 0 0 1.5 36 72)" id="mdi-rewind-outline" fill="#fff"/><path d="M12 2c-.5 0-1 .19-1.41.59l-8 8c-.79.78-.79 2.04 0 2.82l8 8c.78.79 2.04.79 2.82 0l8-8c.79-.78.79-2.04 0-2.82l-8-8C13 2.19 12.5 2 12 2Z" transform="matrix(1.5 0 0 1.5 72 72)" id="mdi-rhombus" fill="#555"/><path d="M12 2c-.5 0-1 .19-1.41.59l-8 8c-.79.78-.79 2.04 0 2.82l8 8c.78.79 2.04.79 2.82 0l8-8c.79-.78.79-2.04 0-2.82l-8-8C13 2.19 12.5 2 12 2Z" transform="matrix(1.5 0 0 1.5 108 72)" id="mdi-rhombus" fill="#fff"/><path d="M12 6.46c-.28 0-.56.1-.78.32l-4.44 4.44c-.43.43-.43 1.13 0 1.56l4.44 4.44c.43.43 1.13.43 1.56 0l4.44-4.44c.43-.43.43-1.13 0-1.56l-4.44-4.44c-.22-.22-.5-.32-.78-.32Z" transform="matrix(1.5 0 0 1.5 144 72)" id="mdi-rhombus-medium" fill="#555"/><path d="M12 6.46c-.28 0-.56.1-.78.32l-4.44 4.44c-.43.43-.43 1.13 0 1.56l4.44 4.44c.43.43 1.13.43 1.56 0l4.44-4.44c.43-.43.43-1.13 0-1.56l-4.44-4.44c-.22-.22-.5-.32-.78-.32Z" transform="matrix(1.5 0 0 1.5 180 72)" id="mdi-rhombus-medium" fill="#fff"/><path d="M12 6.46c-.28 0-.56.1-.78.32l-4.44 4.44c-.43.43-.43 1.13 0 1.56l4.44 4.44c.43.43 1.13.43 1.56 0l4.44-4.44c.43-.43.43-1.13 0-1.56l-4.44-4.44c-.22-.22-.5-.32-.78-.32m0 2.37L15.17 12 12 15.17 8.83 12 12 8.83Z" transform="matrix(1.5 0 0 1.5 216 72)" id="mdi-rhombus-medium-outline" fill="#555"/><path d="M12 6.46c-.28 0-.56.1-.78.32l-4.44 4.44c-.43.43-.43 1.13 0 1.56l4.44 4.44c.43.43 1.13.43 1.56 0l4.44-4.44c.43-.43.43-1.13 0-1.56l-4.44-4.44c-.22-.22-.5-.32-.78-.32m0 2.37L15.17 12 12 15.17 8.83 12 12 8.83Z" transform="matrix(1.5 0 0 1.5 252 72)" id="mdi-rhombus-medium-outline" fill="#fff"/><path d="M12 2c-.5 0-1 .19-1.41.59l-8 8c-.79.78-.79 2.04 0 2.82l8 8c.78.79 2.04.79 2.82 0l8-8c.79-.78.79-2.04 0-2.82l-8-8C13 2.19 12.5 2 12 2m0 2 8 8-8 8-8-8Z" transform="matrix(1.5 0 0 1.5 288 72)" id="mdi-rhombus-outline" fill="#555"/><path d="M12 2c-.5 0-1 .19-1.41.59l-8 8c-.79.78-.79 2.04 0 2.82l8 8c.78.79 2.04.79 2.82 0l8-8c.79-.78.79-2.04 0-2.82l-8-8C13 2.19 12.5 2 12 2m0 2 8 8-8 8-8-8Z" transform="matrix(1.5 0 0 1.5 324 72)" id="mdi-rhombus-outline" fill="#fff"/><path d="M12 2c-.5 0-1 .19-1.41.59l-3.3 3.29 4.71 4.7 4.71-4.7-3.3-3.29C13 2.19 12.5 2 12 2M5.88 7.29l-3.29 3.3c-.79.78-.79 2.04 0 2.82l3.29 3.3 4.7-4.71-4.7-4.71m12.24 0L13.42 12l4.7 4.71 3.29-3.3c.79-.78.79-2.04 0-2.82l-3.29-3.3M12 13.42l-4.71 4.7 3.3 3.29c.78.79 2.04.79 2.82 0l3.3-3.29-4.71-4.7Z" transform="matrix(1.5 0 0 1.5 360 72)" id="mdi-rhombus-split" fill="#555"/><path d="M12 2c-.5 0-1 .19-1.41.59l-3.3 3.29 4.71 4.7 4.71-4.7-3.3-3.29C13 2.19 12.5 2 12 2M5.88 7.29l-3.29 3.3c-.79.78-.79 2.04 0 2.82l3.29 3.3 4.7-4.71-4.7-4.71m12.24 0L13.42 12l4.7 4.71 3.29-3.3c.79-.78.79-2.04 0-2.82l-3.29-3.3M12 13.42l-4.71 4.7 3.3 3.29c.78.79 2.04.79 2.82 0l3.3-3.29-4.71-4.7Z" transform="matrix(1.5 0 0 1.5 396 72)" id="mdi-rhombus-split" fill="#fff"/><path d="M12 2c-.5 0-1 .19-1.41.59l-8 8c-.79.78-.79 2.04 0 2.82l8 8c.78.79 2.04.79 2.82 0l8-8c.79-.78.79-2.04 0-2.82l-8-8C13 2.19 12.5 2 12 2m0 2 3.29 3.29-3.29 3.3-3.29-3.3L12 4M7.29 8.71l3.3 3.29-3.3 3.29L4 12l3.29-3.29m9.42 0L20 12l-3.29 3.29-3.3-3.29 3.3-3.29M12 13.41l3.29 3.3L12 20l-3.29-3.29 3.29-3.3Z" transform="matrix(1.5 0 0 1.5 432 72)" id="mdi-rhombus-split-outline" fill="#555"/><path d="M12 2c-.5 0-1 .19-1.41.59l-8 8c-.79.78-.79 2.04 0 2.82l8 8c.78.79 2.04.79 2.82 0l8-8c.79-.78.79-2.04 0-2.82l-8-8C13 2.19 12.5 2 12 2m0 2 3.29 3.29-3.29 3.3-3.29-3.3L12 4M7.29 8.71l3.3 3.29-3.3 3.29L4 12l3.29-3.29m9.42 0L20 12l-3.29 3.29-3.3-3.29 3.3-3.29M12 13.41l3.29 3.3L12 20l-3.29-3.29 3.29-3.3Z" transform="matrix(1.5 0 0 1.5 468 72)" id="mdi-rhombus-split-outline" fill="#fff"/><path d="m13.41 19.31 3.18 3.19L18 21.07l-3.17-3.17m.71-6.37h-.01L12 15.07l-3.53-3.54h-.01A4.98 4.98 0 0 1 7 8a5 5 0 0 1 5-5 5 5 0 0 1 5 5c0 1.38-.56 2.63-1.46 3.53M16.9 13A6.96 6.96 0 0 0 19 8a7 7 0 0 0-7-7 7 7 0 0 0-7 7c0 1.96.81 3.73 2.1 5l3.49 3.5L6 21.07l1.41 1.43L16.9 13Z" transform="matrix(1.5 0 0 1.5 504 72)" id="mdi-ribbon" fill="#555"/><path d="m13.41 19.31 3.18 3.19L18 21.07l-3.17-3.17m.71-6.37h-.01L12 15.07l-3.53-3.54h-.01A4.98 4.98 0 0 1 7 8a5 5 0 0 1 5-5 5 5 0 0 1 5 5c0 1.38-.56 2.63-1.46 3.53M16.9 13A6.96 6.96 0 0 0 19 8a7 7 0 0 0-7-7 7 7 0 0 0-7 7c0 1.96.81 3.73 2.1 5l3.49 3.5L6 21.07l1.41 1.43L16.9 13Z" transform="matrix(1.5 0 0 1.5 540 72)" id="mdi-ribbon" fill="#fff"/><path d="M22 11h-2.3c-.3-1.1-.8-2.2-1.5-3l3.4-5.4-1.7-1.1-3.2 5.1c-.4-.3-.7-.5-1.2-.7l.9-3.6-1.9-.5-.8 3.4c-.6-.1-1.1-.2-1.7-.2-3.7 0-6.8 2.6-7.7 6H2c0 4.1 2.5 7.6 6 9.2V22h8v-1.8c3.5-1.6 6-5.1 6-9.2M12 7c2.6 0 4.8 1.7 5.6 4H6.4c.8-2.3 3-4 5.6-4Z" transform="matrix(1.5 0 0 1.5 576 72)" id="mdi-rice" fill="#555"/><path d="M22 11h-2.3c-.3-1.1-.8-2.2-1.5-3l3.4-5.4-1.7-1.1-3.2 5.1c-.4-.3-.7-.5-1.2-.7l.9-3.6-1.9-.5-.8 3.4c-.6-.1-1.1-.2-1.7-.2-3.7 0-6.8 2.6-7.7 6H2c0 4.1 2.5 7.6 6 9.2V22h8v-1.8c3.5-1.6 6-5.1 6-9.2M12 7c2.6 0 4.8 1.7 5.6 4H6.4c.8-2.3 3-4 5.6-4Z" transform="matrix(1.5 0 0 1.5 612 72)" id="mdi-rice" fill="#fff"/><path d="M20 14.05v-1.32c0-.47-.16-.93-.46-1.29L15.6 6.72c-.38-.46-.94-.72-1.54-.72H4c-1.1 0-2 .9-2 2v7c0 1.1.9 2 2 2h.05a2.5 2.5 0 0 0 4.9 0h8.1A2.5 2.5 0 1 0 20 14.05M3.5 8c0-.27.23-.5.5-.5h3V12H3.5V8m3 9.5c-.55 0-1-.45-1-1s.45-1 1-1 1 .45 1 1-.45 1-1 1m6.5-2H9V14h2v-2H9V7.5h4v8m2-7.16L18.05 12H15V8.34m4.5 9.16c-.55 0-1-.45-1-1s.45-1 1-1 1 .45 1 1-.45 1-1 1Z" transform="matrix(1.5 0 0 1.5 648 72)" id="mdi-rickshaw" fill="#555"/><path d="M20 14.05v-1.32c0-.47-.16-.93-.46-1.29L15.6 6.72c-.38-.46-.94-.72-1.54-.72H4c-1.1 0-2 .9-2 2v7c0 1.1.9 2 2 2h.05a2.5 2.5 0 0 0 4.9 0h8.1A2.5 2.5 0 1 0 20 14.05M3.5 8c0-.27.23-.5.5-.5h3V12H3.5V8m3 9.5c-.55 0-1-.45-1-1s.45-1 1-1 1 .45 1 1-.45 1-1 1m6.5-2H9V14h2v-2H9V7.5h4v8m2-7.16L18.05 12H15V8.34m4.5 9.16c-.55 0-1-.45-1-1s.45-1 1-1 1 .45 1 1-.45 1-1 1Z" transform="matrix(1.5 0 0 1.5 684 72)" id="mdi-rickshaw" fill="#fff"/><path d="M20 12.05v-1.32c0-.47-.16-.93-.46-1.29L15.6 4.72c-.38-.46-.94-.72-1.54-.72H4c-1.1 0-2 .9-2 2v7c0 1.1.9 2 2 2h.05a2.5 2.5 0 0 0 4.9 0h8.1A2.5 2.5 0 1 0 20 12.05M3.5 6c0-.27.23-.5.5-.5h3V10H3.5V6m3 9.5c-.55 0-1-.45-1-1s.45-1 1-1 1 .45 1 1-.45 1-1 1m6.5-2H9V12h2v-2H9V5.5h4v8m2-7.16L18.05 10H15V6.34m4.5 9.16c-.55 0-1-.45-1-1s.45-1 1-1 1 .45 1 1-.45 1-1 1M11 20H7l6 3v-2h4l-6-3v2Z" transform="matrix(1.5 0 0 1.5 0 108)" id="mdi-rickshaw-electric" fill="#555"/><path d="M20 12.05v-1.32c0-.47-.16-.93-.46-1.29L15.6 4.72c-.38-.46-.94-.72-1.54-.72H4c-1.1 0-2 .9-2 2v7c0 1.1.9 2 2 2h.05a2.5 2.5 0 0 0 4.9 0h8.1A2.5 2.5 0 1 0 20 12.05M3.5 6c0-.27.23-.5.5-.5h3V10H3.5V6m3 9.5c-.55 0-1-.45-1-1s.45-1 1-1 1 .45 1 1-.45 1-1 1m6.5-2H9V12h2v-2H9V5.5h4v8m2-7.16L18.05 10H15V6.34m4.5 9.16c-.55 0-1-.45-1-1s.45-1 1-1 1 .45 1 1-.45 1-1 1M11 20H7l6 3v-2h4l-6-3v2Z" transform="matrix(1.5 0 0 1.5 36 108)" id="mdi-rickshaw-electric" fill="#fff"/><path d="M12 10 8 4.4 9.6 2h4.8L16 4.4 12 10m3.5-3.2-1.2 1.7c2.2.9 3.7 3 3.7 5.5a6 6 0 0 1-6 6 6 6 0 0 1-6-6c0-2.5 1.5-4.6 3.7-5.5L8.5 6.8C5.8 8.1 4 10.8 4 14a8 8 0 0 0 8 8 8 8 0 0 0 8-8c0-3.2-1.8-5.9-4.5-7.2Z" transform="matrix(1.5 0 0 1.5 72 108)" id="mdi-ring" fill="#555"/><path d="M12 10 8 4.4 9.6 2h4.8L16 4.4 12 10m3.5-3.2-1.2 1.7c2.2.9 3.7 3 3.7 5.5a6 6 0 0 1-6 6 6 6 0 0 1-6-6c0-2.5 1.5-4.6 3.7-5.5L8.5 6.8C5.8 8.1 4 10.8 4 14a8 8 0 0 0 8 8 8 8 0 0 0 8-8c0-3.2-1.8-5.9-4.5-7.2Z" transform="matrix(1.5 0 0 1.5 108 108)" id="mdi-ring" fill="#fff"/><path d="M11.43 2c-.82 0-1.49.65-1.49 1.5v3.46H7.95v.99h7.96v-.99h-1.99V3.5c0-.85-.67-1.5-1.49-1.5h-1m-.49 6.95v12.92l.99 1 .99-1V8.95h-1.98Z" transform="matrix(1.5 0 0 1.5 144 108)" id="mdi-rivet" fill="#555"/><path d="M11.43 2c-.82 0-1.49.65-1.49 1.5v3.46H7.95v.99h7.96v-.99h-1.99V3.5c0-.85-.67-1.5-1.49-1.5h-1m-.49 6.95v12.92l.99 1 .99-1V8.95h-1.98Z" transform="matrix(1.5 0 0 1.5 180 108)" id="mdi-rivet" fill="#fff"/><path d="M11 16h2v4h-2m0-10h2v4h-2m0-10h2v4h-2M4 22h16V2H4v20Z" transform="matrix(1.5 0 0 1.5 216 108)" id="mdi-road" fill="#555"/><path d="M11 16h2v4h-2m0-10h2v4h-2m0-10h2v4h-2M4 22h16V2H4v20Z" transform="matrix(1.5 0 0 1.5 252 108)" id="mdi-road" fill="#fff"/><path d="M18.1 4.8c-.1-.5-.5-.8-1-.8H13l.2 3h-2.4l.2-3H6.8c-.5 0-.9.4-1 .8l-2.7 14c-.1.6.4 1.2 1 1.2H10l.3-5h3.4l.3 5h5.8c.6 0 1.1-.6 1-1.2l-2.7-14M10.4 13l.2-4h2.6l.2 4h-3Z" transform="matrix(1.5 0 0 1.5 288 108)" id="mdi-road-variant" fill="#555"/><path d="M18.1 4.8c-.1-.5-.5-.8-1-.8H13l.2 3h-2.4l.2-3H6.8c-.5 0-.9.4-1 .8l-2.7 14c-.1.6.4 1.2 1 1.2H10l.3-5h3.4l.3 5h5.8c.6 0 1.1-.6 1-1.2l-2.7-14M10.4 13l.2-4h2.6l.2 4h-3Z" transform="matrix(1.5 0 0 1.5 324 108)" id="mdi-road-variant" fill="#fff"/><path d="M10.7 12.5c0 .3-1.3.7-2.3.7s-2.1-.7-2.1-.9c0-.3.7-1.2 2.3-1.3.9-.1 1.9.5 2.1 1.5m4.7-1.5c-1-.1-1.9.5-2.1 1.5 0 .3 1.2.7 2.3.7 1.1 0 2.1-.7 2.1-.9s-.7-1.2-2.3-1.3m6.6 1c0 5.5-4.5 10-10 10S2 17.5 2 12 6.5 2 12 2s10 4.5 10 10m-2-.8c0-2-.7-2.7-3.3-2.7-2.6 0-3.4 1.1-4.7 1.1s-2-1.1-4.7-1.1S4 9.1 4 11.2c0 3.4 1.5 5.3 3.6 5.3 1.6 0 2.8-2 4.4-2s2.7 2 4.4 2c2.1 0 3.6-1.9 3.6-5.3Z" transform="matrix(1.5 0 0 1.5 360 108)" id="mdi-robber" fill="#555"/><path d="M10.7 12.5c0 .3-1.3.7-2.3.7s-2.1-.7-2.1-.9c0-.3.7-1.2 2.3-1.3.9-.1 1.9.5 2.1 1.5m4.7-1.5c-1-.1-1.9.5-2.1 1.5 0 .3 1.2.7 2.3.7 1.1 0 2.1-.7 2.1-.9s-.7-1.2-2.3-1.3m6.6 1c0 5.5-4.5 10-10 10S2 17.5 2 12 6.5 2 12 2s10 4.5 10 10m-2-.8c0-2-.7-2.7-3.3-2.7-2.6 0-3.4 1.1-4.7 1.1s-2-1.1-4.7-1.1S4 9.1 4 11.2c0 3.4 1.5 5.3 3.6 5.3 1.6 0 2.8-2 4.4-2s2.7 2 4.4 2c2.1 0 3.6-1.9 3.6-5.3Z" transform="matrix(1.5 0 0 1.5 396 108)" id="mdi-robber" fill="#fff"/><path d="M12 2a2 2 0 0 1 2 2c0 .74-.4 1.39-1 1.73V7h1a7 7 0 0 1 7 7h1a1 1 0 0 1 1 1v3a1 1 0 0 1-1 1h-1v1a2 2 0 0 1-2 2H5a2 2 0 0 1-2-2v-1H2a1 1 0 0 1-1-1v-3a1 1 0 0 1 1-1h1a7 7 0 0 1 7-7h1V5.73c-.6-.34-1-.99-1-1.73a2 2 0 0 1 2-2M7.5 13A2.5 2.5 0 0 0 5 15.5 2.5 2.5 0 0 0 7.5 18a2.5 2.5 0 0 0 2.5-2.5A2.5 2.5 0 0 0 7.5 13m9 0a2.5 2.5 0 0 0-2.5 2.5 2.5 2.5 0 0 0 2.5 2.5 2.5 2.5 0 0 0 2.5-2.5 2.5 2.5 0 0 0-2.5-2.5Z" transform="matrix(1.5 0 0 1.5 432 108)" id="mdi-robot" fill="#555"/><path d="M12 2a2 2 0 0 1 2 2c0 .74-.4 1.39-1 1.73V7h1a7 7 0 0 1 7 7h1a1 1 0 0 1 1 1v3a1 1 0 0 1-1 1h-1v1a2 2 0 0 1-2 2H5a2 2 0 0 1-2-2v-1H2a1 1 0 0 1-1-1v-3a1 1 0 0 1 1-1h1a7 7 0 0 1 7-7h1V5.73c-.6-.34-1-.99-1-1.73a2 2 0 0 1 2-2M7.5 13A2.5 2.5 0 0 0 5 15.5 2.5 2.5 0 0 0 7.5 18a2.5 2.5 0 0 0 2.5-2.5A2.5 2.5 0 0 0 7.5 13m9 0a2.5 2.5 0 0 0-2.5 2.5 2.5 2.5 0 0 0 2.5 2.5 2.5 2.5 0 0 0 2.5-2.5 2.5 2.5 0 0 0-2.5-2.5Z" transform="matrix(1.5 0 0 1.5 468 108)" id="mdi-robot" fill="#fff"/><path d="M22 14h-1c0-3.87-3.13-7-7-7h-1V5.73A2 2 0 1 0 10 4c0 .74.4 1.39 1 1.73V7h-1c-3.87 0-7 3.13-7 7H2c-.55 0-1 .45-1 1v3c0 .55.45 1 1 1h1v1a2 2 0 0 0 2 2h14c1.11 0 2-.89 2-2v-1h1c.55 0 1-.45 1-1v-3c0-.55-.45-1-1-1M7.5 18A2.5 2.5 0 0 1 5 15.5c0-.82.4-1.54 1-2l3.83 2.88C9.5 17.32 8.57 18 7.5 18m9 0c-1.07 0-2-.68-2.33-1.62L18 13.5c.6.46 1 1.18 1 2a2.5 2.5 0 0 1-2.5 2.5Z" transform="matrix(1.5 0 0 1.5 504 108)" id="mdi-robot-angry" fill="#555"/><path d="M22 14h-1c0-3.87-3.13-7-7-7h-1V5.73A2 2 0 1 0 10 4c0 .74.4 1.39 1 1.73V7h-1c-3.87 0-7 3.13-7 7H2c-.55 0-1 .45-1 1v3c0 .55.45 1 1 1h1v1a2 2 0 0 0 2 2h14c1.11 0 2-.89 2-2v-1h1c.55 0 1-.45 1-1v-3c0-.55-.45-1-1-1M7.5 18A2.5 2.5 0 0 1 5 15.5c0-.82.4-1.54 1-2l3.83 2.88C9.5 17.32 8.57 18 7.5 18m9 0c-1.07 0-2-.68-2.33-1.62L18 13.5c.6.46 1 1.18 1 2a2.5 2.5 0 0 1-2.5 2.5Z" transform="matrix(1.5 0 0 1.5 540 108)" id="mdi-robot-angry" fill="#fff"/><path d="M22 14h-1c0-3.87-3.13-7-7-7h-1V5.73A2 2 0 1 0 10 4c0 .74.4 1.39 1 1.73V7h-1c-3.87 0-7 3.13-7 7H2c-.55 0-1 .45-1 1v3c0 .55.45 1 1 1h1v1a2 2 0 0 0 2 2h14c1.11 0 2-.89 2-2v-1h1c.55 0 1-.45 1-1v-3c0-.55-.45-1-1-1m-1 3h-2v3H5v-3H3v-1h2v-2c0-2.76 2.24-5 5-5h4c2.76 0 5 2.24 5 5v2h2v1m-3.5-1.5c0 1.11-.89 2-2 2-.97 0-1.77-.69-1.96-1.6l2.96-2.12c.6.35 1 .98 1 1.72m-10-1.72 2.96 2.12c-.18.91-.99 1.6-1.96 1.6a2 2 0 0 1-2-2c0-.74.4-1.37 1-1.72Z" transform="matrix(1.5 0 0 1.5 576 108)" id="mdi-robot-angry-outline" fill="#555"/><path d="M22 14h-1c0-3.87-3.13-7-7-7h-1V5.73A2 2 0 1 0 10 4c0 .74.4 1.39 1 1.73V7h-1c-3.87 0-7 3.13-7 7H2c-.55 0-1 .45-1 1v3c0 .55.45 1 1 1h1v1a2 2 0 0 0 2 2h14c1.11 0 2-.89 2-2v-1h1c.55 0 1-.45 1-1v-3c0-.55-.45-1-1-1m-1 3h-2v3H5v-3H3v-1h2v-2c0-2.76 2.24-5 5-5h4c2.76 0 5 2.24 5 5v2h2v1m-3.5-1.5c0 1.11-.89 2-2 2-.97 0-1.77-.69-1.96-1.6l2.96-2.12c.6.35 1 .98 1 1.72m-10-1.72 2.96 2.12c-.18.91-.99 1.6-1.96 1.6a2 2 0 0 1-2-2c0-.74.4-1.37 1-1.72Z" transform="matrix(1.5 0 0 1.5 612 108)" id="mdi-robot-angry-outline" fill="#fff"/><path d="M20 4h-2V3h2.5c.28 0 .5.22.5.5v2c0 .28-.22.5-.5.5H20v1h-1V5h1V4m-1 5h1V8h-1v1m-2-6h-1v4h1V3m6 12v3c0 .55-.45 1-1 1h-1v1c0 1.11-.89 2-2 2H5a2 2 0 0 1-2-2v-1H2c-.55 0-1-.45-1-1v-3c0-.55.45-1 1-1h1c0-3.87 3.13-7 7-7h1V5.73c-.6-.34-1-.99-1-1.73 0-1.1.9-2 2-2s2 .9 2 2c0 .74-.4 1.39-1 1.73V7h1c.34 0 .67.03 1 .08V10h4.74A6.94 6.94 0 0 1 21 14h1c.55 0 1 .45 1 1m-13 .5a2.5 2.5 0 0 0-5 0 2.5 2.5 0 0 0 5 0m9 0a2.5 2.5 0 0 0-5 0 2.5 2.5 0 0 0 5 0M17 8h-1v1h1V8Z" transform="matrix(1.5 0 0 1.5 648 108)" id="mdi-robot-confused" fill="#555"/><path d="M20 4h-2V3h2.5c.28 0 .5.22.5.5v2c0 .28-.22.5-.5.5H20v1h-1V5h1V4m-1 5h1V8h-1v1m-2-6h-1v4h1V3m6 12v3c0 .55-.45 1-1 1h-1v1c0 1.11-.89 2-2 2H5a2 2 0 0 1-2-2v-1H2c-.55 0-1-.45-1-1v-3c0-.55.45-1 1-1h1c0-3.87 3.13-7 7-7h1V5.73c-.6-.34-1-.99-1-1.73 0-1.1.9-2 2-2s2 .9 2 2c0 .74-.4 1.39-1 1.73V7h1c.34 0 .67.03 1 .08V10h4.74A6.94 6.94 0 0 1 21 14h1c.55 0 1 .45 1 1m-13 .5a2.5 2.5 0 0 0-5 0 2.5 2.5 0 0 0 5 0m9 0a2.5 2.5 0 0 0-5 0 2.5 2.5 0 0 0 5 0M17 8h-1v1h1V8Z" transform="matrix(1.5 0 0 1.5 684 108)" id="mdi-robot-confused" fill="#fff"/><path d="M19 8h1v1h-1V8m1-3h-1v2h1V6h.5c.28 0 .5-.22.5-.5v-2c0-.28-.22-.5-.5-.5H18v1h2v1m-3-2h-1v4h1V3m-3.5 12.5a2 2 0 1 0 4 0c0-1.11-.89-2-2-2s-2 .9-2 2M17 8h-1v1h1V8m5 6h-1c0-1.5-.47-2.87-1.26-4h-2.77c1.22.91 2.03 2.36 2.03 4v2h2v1h-2v3H5v-3H3v-1h2v-2c0-2.76 2.24-5 5-5h4c.34 0 .68.04 1 .1V7.08c-.33-.05-.66-.08-1-.08h-1V5.73A2 2 0 1 0 10 4c0 .74.4 1.39 1 1.73V7h-1c-3.87 0-7 3.13-7 7H2c-.55 0-1 .45-1 1v3c0 .55.45 1 1 1h1v1a2 2 0 0 0 2 2h14c1.11 0 2-.89 2-2v-1h1c.55 0 1-.45 1-1v-3c0-.55-.45-1-1-1m-13.5-.5c-1.1 0-2 .9-2 2s.9 2 2 2 2-.89 2-2-.89-2-2-2Z" transform="matrix(1.5 0 0 1.5 0 144)" id="mdi-robot-confused-outline" fill="#555"/><path d="M19 8h1v1h-1V8m1-3h-1v2h1V6h.5c.28 0 .5-.22.5-.5v-2c0-.28-.22-.5-.5-.5H18v1h2v1m-3-2h-1v4h1V3m-3.5 12.5a2 2 0 1 0 4 0c0-1.11-.89-2-2-2s-2 .9-2 2M17 8h-1v1h1V8m5 6h-1c0-1.5-.47-2.87-1.26-4h-2.77c1.22.91 2.03 2.36 2.03 4v2h2v1h-2v3H5v-3H3v-1h2v-2c0-2.76 2.24-5 5-5h4c.34 0 .68.04 1 .1V7.08c-.33-.05-.66-.08-1-.08h-1V5.73A2 2 0 1 0 10 4c0 .74.4 1.39 1 1.73V7h-1c-3.87 0-7 3.13-7 7H2c-.55 0-1 .45-1 1v3c0 .55.45 1 1 1h1v1a2 2 0 0 0 2 2h14c1.11 0 2-.89 2-2v-1h1c.55 0 1-.45 1-1v-3c0-.55-.45-1-1-1m-13.5-.5c-1.1 0-2 .9-2 2s.9 2 2 2 2-.89 2-2-.89-2-2-2Z" transform="matrix(1.5 0 0 1.5 36 144)" id="mdi-robot-confused-outline" fill="#fff"/><path d="M22 14h-1c0-3.87-3.13-7-7-7h-1V5.73A2 2 0 1 0 10 4c0 .74.4 1.39 1 1.73V7h-1c-3.87 0-7 3.13-7 7H2c-.55 0-1 .45-1 1v3c0 .55.45 1 1 1h1v1a2 2 0 0 0 2 2h14c1.11 0 2-.89 2-2v-1h1c.55 0 1-.45 1-1v-3c0-.55-.45-1-1-1M9.86 16.68l-1.18 1.18-1.18-1.18-1.18 1.18-1.18-1.18 1.18-1.18-1.18-1.18 1.18-1.18 1.18 1.18 1.18-1.18 1.18 1.18-1.18 1.18 1.18 1.18m9 0-1.18 1.18-1.18-1.18-1.18 1.18-1.18-1.18 1.18-1.18-1.18-1.18 1.18-1.18 1.18 1.18 1.18-1.18 1.18 1.18-1.18 1.18 1.18 1.18Z" transform="matrix(1.5 0 0 1.5 72 144)" id="mdi-robot-dead" fill="#555"/><path d="M22 14h-1c0-3.87-3.13-7-7-7h-1V5.73A2 2 0 1 0 10 4c0 .74.4 1.39 1 1.73V7h-1c-3.87 0-7 3.13-7 7H2c-.55 0-1 .45-1 1v3c0 .55.45 1 1 1h1v1a2 2 0 0 0 2 2h14c1.11 0 2-.89 2-2v-1h1c.55 0 1-.45 1-1v-3c0-.55-.45-1-1-1M9.86 16.68l-1.18 1.18-1.18-1.18-1.18 1.18-1.18-1.18 1.18-1.18-1.18-1.18 1.18-1.18 1.18 1.18 1.18-1.18 1.18 1.18-1.18 1.18 1.18 1.18m9 0-1.18 1.18-1.18-1.18-1.18 1.18-1.18-1.18 1.18-1.18-1.18-1.18 1.18-1.18 1.18 1.18 1.18-1.18 1.18 1.18-1.18 1.18 1.18 1.18Z" transform="matrix(1.5 0 0 1.5 108 144)" id="mdi-robot-dead" fill="#fff"/><path d="M10.62 14.44 9.56 15.5l1.06 1.06-1.06 1.06-1.06-1.06-1.06 1.06-1.06-1.06 1.06-1.06-1.06-1.06 1.06-1.06 1.06 1.06 1.06-1.06 1.06 1.06m5.94-1.06-1.06 1.06-1.06-1.06-1.06 1.06 1.06 1.06-1.06 1.06 1.06 1.06 1.06-1.06 1.06 1.06 1.06-1.06-1.06-1.06 1.06-1.06-1.06-1.06M23 15v3c0 .55-.45 1-1 1h-1v1c0 1.11-.89 2-2 2H5a2 2 0 0 1-2-2v-1H2c-.55 0-1-.45-1-1v-3c0-.55.45-1 1-1h1c0-3.87 3.13-7 7-7h1V5.73c-.6-.34-1-.99-1-1.73 0-1.1.9-2 2-2s2 .9 2 2c0 .74-.4 1.39-1 1.73V7h1c3.87 0 7 3.13 7 7h1c.55 0 1 .45 1 1m-2 1h-2v-2c0-2.76-2.24-5-5-5h-4c-2.76 0-5 2.24-5 5v2H3v1h2v3h14v-3h2v-1Z" transform="matrix(1.5 0 0 1.5 144 144)" id="mdi-robot-dead-outline" fill="#555"/><path d="M10.62 14.44 9.56 15.5l1.06 1.06-1.06 1.06-1.06-1.06-1.06 1.06-1.06-1.06 1.06-1.06-1.06-1.06 1.06-1.06 1.06 1.06 1.06-1.06 1.06 1.06m5.94-1.06-1.06 1.06-1.06-1.06-1.06 1.06 1.06 1.06-1.06 1.06 1.06 1.06 1.06-1.06 1.06 1.06 1.06-1.06-1.06-1.06 1.06-1.06-1.06-1.06M23 15v3c0 .55-.45 1-1 1h-1v1c0 1.11-.89 2-2 2H5a2 2 0 0 1-2-2v-1H2c-.55 0-1-.45-1-1v-3c0-.55.45-1 1-1h1c0-3.87 3.13-7 7-7h1V5.73c-.6-.34-1-.99-1-1.73 0-1.1.9-2 2-2s2 .9 2 2c0 .74-.4 1.39-1 1.73V7h1c3.87 0 7 3.13 7 7h1c.55 0 1 .45 1 1m-2 1h-2v-2c0-2.76-2.24-5-5-5h-4c-2.76 0-5 2.24-5 5v2H3v1h2v3h14v-3h2v-1Z" transform="matrix(1.5 0 0 1.5 180 144)" id="mdi-robot-dead-outline" fill="#fff"/><path d="M22 14h-1c0-3.87-3.13-7-7-7h-1V5.73A2 2 0 1 0 10 4c0 .74.4 1.39 1 1.73V7h-1c-3.87 0-7 3.13-7 7H2c-.55 0-1 .45-1 1v3c0 .55.45 1 1 1h1v1a2 2 0 0 0 2 2h14c1.11 0 2-.89 2-2v-1h1c.55 0 1-.45 1-1v-3c0-.55-.45-1-1-1M8.68 17.04 7.5 15.86l-1.18 1.18-1.18-1.18L7.5 13.5l2.36 2.36-1.18 1.18m9 0-1.18-1.18-1.18 1.18-1.18-1.18 2.36-2.36 2.36 2.36-1.18 1.18Z" transform="matrix(1.5 0 0 1.5 216 144)" id="mdi-robot-excited" fill="#555"/><path d="M22 14h-1c0-3.87-3.13-7-7-7h-1V5.73A2 2 0 1 0 10 4c0 .74.4 1.39 1 1.73V7h-1c-3.87 0-7 3.13-7 7H2c-.55 0-1 .45-1 1v3c0 .55.45 1 1 1h1v1a2 2 0 0 0 2 2h14c1.11 0 2-.89 2-2v-1h1c.55 0 1-.45 1-1v-3c0-.55-.45-1-1-1M8.68 17.04 7.5 15.86l-1.18 1.18-1.18-1.18L7.5 13.5l2.36 2.36-1.18 1.18m9 0-1.18-1.18-1.18 1.18-1.18-1.18 2.36-2.36 2.36 2.36-1.18 1.18Z" transform="matrix(1.5 0 0 1.5 252 144)" id="mdi-robot-excited" fill="#fff"/><path d="M22 14h-1c0-3.87-3.13-7-7-7h-1V5.73A2 2 0 1 0 10 4c0 .74.4 1.39 1 1.73V7h-1c-3.87 0-7 3.13-7 7H2c-.55 0-1 .45-1 1v3c0 .55.45 1 1 1h1v1a2 2 0 0 0 2 2h14c1.11 0 2-.89 2-2v-1h1c.55 0 1-.45 1-1v-3c0-.55-.45-1-1-1m-1 3h-2v3H5v-3H3v-1h2v-2c0-2.76 2.24-5 5-5h4c2.76 0 5 2.24 5 5v2h2v1M8.5 13.5l2.36 2.36-1.18 1.18-1.18-1.18-1.18 1.18-1.18-1.18L8.5 13.5m7 0 2.36 2.36-1.18 1.18-1.18-1.18-1.18 1.18-1.18-1.18 2.36-2.36Z" transform="matrix(1.5 0 0 1.5 288 144)" id="mdi-robot-excited-outline" fill="#555"/><path d="M22 14h-1c0-3.87-3.13-7-7-7h-1V5.73A2 2 0 1 0 10 4c0 .74.4 1.39 1 1.73V7h-1c-3.87 0-7 3.13-7 7H2c-.55 0-1 .45-1 1v3c0 .55.45 1 1 1h1v1a2 2 0 0 0 2 2h14c1.11 0 2-.89 2-2v-1h1c.55 0 1-.45 1-1v-3c0-.55-.45-1-1-1m-1 3h-2v3H5v-3H3v-1h2v-2c0-2.76 2.24-5 5-5h4c2.76 0 5 2.24 5 5v2h2v1M8.5 13.5l2.36 2.36-1.18 1.18-1.18-1.18-1.18 1.18-1.18-1.18L8.5 13.5m7 0 2.36 2.36-1.18 1.18-1.18-1.18-1.18 1.18-1.18-1.18 2.36-2.36Z" transform="matrix(1.5 0 0 1.5 324 144)" id="mdi-robot-excited-outline" fill="#fff"/><path d="M22 14h-1c0-3.87-3.13-7-7-7h-1V5.73A2 2 0 1 0 10 4c0 .74.4 1.39 1 1.73V7h-1c-3.87 0-7 3.13-7 7H2c-.55 0-1 .45-1 1v3c0 .55.45 1 1 1h1v1a2 2 0 0 0 2 2h14c1.11 0 2-.89 2-2v-1h1c.55 0 1-.45 1-1v-3c0-.55-.45-1-1-1M9.79 16.5C9.4 15.62 8.53 15 7.5 15s-1.9.62-2.29 1.5c-.13-.31-.21-.64-.21-1a2.5 2.5 0 0 1 5 0c0 .36-.08.69-.21 1m9 0c-.39-.88-1.29-1.5-2.29-1.5s-1.9.62-2.29 1.5c-.13-.31-.21-.64-.21-1a2.5 2.5 0 0 1 5 0c0 .36-.08.69-.21 1Z" transform="matrix(1.5 0 0 1.5 360 144)" id="mdi-robot-happy" fill="#555"/><path d="M22 14h-1c0-3.87-3.13-7-7-7h-1V5.73A2 2 0 1 0 10 4c0 .74.4 1.39 1 1.73V7h-1c-3.87 0-7 3.13-7 7H2c-.55 0-1 .45-1 1v3c0 .55.45 1 1 1h1v1a2 2 0 0 0 2 2h14c1.11 0 2-.89 2-2v-1h1c.55 0 1-.45 1-1v-3c0-.55-.45-1-1-1M9.79 16.5C9.4 15.62 8.53 15 7.5 15s-1.9.62-2.29 1.5c-.13-.31-.21-.64-.21-1a2.5 2.5 0 0 1 5 0c0 .36-.08.69-.21 1m9 0c-.39-.88-1.29-1.5-2.29-1.5s-1.9.62-2.29 1.5c-.13-.31-.21-.64-.21-1a2.5 2.5 0 0 1 5 0c0 .36-.08.69-.21 1Z" transform="matrix(1.5 0 0 1.5 396 144)" id="mdi-robot-happy" fill="#fff"/><path d="M10.5 15.5c0 .37-.1.7-.28 1-.34-.59-.98-1-1.72-1s-1.38.41-1.72 1c-.17-.3-.28-.63-.28-1 0-1.1.9-2 2-2s2 .9 2 2M23 15v3c0 .55-.45 1-1 1h-1v1c0 1.11-.89 2-2 2H5a2 2 0 0 1-2-2v-1H2c-.55 0-1-.45-1-1v-3c0-.55.45-1 1-1h1c0-3.87 3.13-7 7-7h1V5.73c-.6-.34-1-.99-1-1.73 0-1.1.9-2 2-2s2 .9 2 2c0 .74-.4 1.39-1 1.73V7h1c3.87 0 7 3.13 7 7h1c.55 0 1 .45 1 1m-2 1h-2v-2c0-2.76-2.24-5-5-5h-4c-2.76 0-5 2.24-5 5v2H3v1h2v3h14v-3h2v-1m-5.5-2.5c-1.1 0-2 .9-2 2 0 .37.11.7.28 1 .34-.59.98-1 1.72-1s1.38.41 1.72 1c.18-.3.28-.63.28-1a2 2 0 0 0-2-2Z" transform="matrix(1.5 0 0 1.5 432 144)" id="mdi-robot-happy-outline" fill="#555"/><path d="M10.5 15.5c0 .37-.1.7-.28 1-.34-.59-.98-1-1.72-1s-1.38.41-1.72 1c-.17-.3-.28-.63-.28-1 0-1.1.9-2 2-2s2 .9 2 2M23 15v3c0 .55-.45 1-1 1h-1v1c0 1.11-.89 2-2 2H5a2 2 0 0 1-2-2v-1H2c-.55 0-1-.45-1-1v-3c0-.55.45-1 1-1h1c0-3.87 3.13-7 7-7h1V5.73c-.6-.34-1-.99-1-1.73 0-1.1.9-2 2-2s2 .9 2 2c0 .74-.4 1.39-1 1.73V7h1c3.87 0 7 3.13 7 7h1c.55 0 1 .45 1 1m-2 1h-2v-2c0-2.76-2.24-5-5-5h-4c-2.76 0-5 2.24-5 5v2H3v1h2v3h14v-3h2v-1m-5.5-2.5c-1.1 0-2 .9-2 2 0 .37.11.7.28 1 .34-.59.98-1 1.72-1s1.38.41 1.72 1c.18-.3.28-.63.28-1a2 2 0 0 0-2-2Z" transform="matrix(1.5 0 0 1.5 468 144)" id="mdi-robot-happy-outline" fill="#fff"/><path d="M18.41 4 16 6.41v.18L18.41 9H22v2h-4.41L16 9.41V12h-1a2 2 0 0 1-2-2V7.5H9.86c-.09.37-.24.72-.44 1.05L15.18 19H20a2 2 0 0 1 2 2v1H2v-1a2 2 0 0 1 2-2h6.61l-4.69-8.5a4.006 4.006 0 0 1-3.81-3A4 4 0 0 1 5 2.63c2.13-.55 4.31.73 4.86 2.87H13V3a2 2 0 0 1 2-2h1v2.59L17.59 2H22v2h-3.59M6 4.5a2 2 0 0 0-2 2 2 2 0 0 0 2 2 2 2 0 0 0 2-2 2 2 0 0 0-2-2Z" transform="matrix(1.5 0 0 1.5 504 144)" id="mdi-robot-industrial" fill="#555"/><path d="M18.41 4 16 6.41v.18L18.41 9H22v2h-4.41L16 9.41V12h-1a2 2 0 0 1-2-2V7.5H9.86c-.09.37-.24.72-.44 1.05L15.18 19H20a2 2 0 0 1 2 2v1H2v-1a2 2 0 0 1 2-2h6.61l-4.69-8.5a4.006 4.006 0 0 1-3.81-3A4 4 0 0 1 5 2.63c2.13-.55 4.31.73 4.86 2.87H13V3a2 2 0 0 1 2-2h1v2.59L17.59 2H22v2h-3.59M6 4.5a2 2 0 0 0-2 2 2 2 0 0 0 2 2 2 2 0 0 0 2-2 2 2 0 0 0-2-2Z" transform="matrix(1.5 0 0 1.5 540 144)" id="mdi-robot-industrial" fill="#fff"/><path d="M4 19h4.6L2.62 8.64C2.23 8 2 7.29 2 6.5a3.999 3.999 0 0 1 7.87-1H14V3c0-1.1.9-2 2-2v2.59L17.59 2H22v2h-3.59L16 6.41v.18L18.41 9H22v2h-4.41L16 9.41V12a2 2 0 0 1-2-2V7.5H9.87c-.1.39-.26.76-.46 1.1l6 10.4H20a2 2 0 0 1 2 2v1H2v-1c0-1.1.9-2 2-2m3.91-9c-.56.32-1.21.5-1.91.5l4.91 8.5h2.19l-5.19-9M6 4.5a2 2 0 0 0-2 2c0 1.11.89 2 2 2 1.11 0 2-.89 2-2a2 2 0 0 0-2-2Z" transform="matrix(1.5 0 0 1.5 576 144)" id="mdi-robot-industrial-outline" fill="#555"/><path d="M4 19h4.6L2.62 8.64C2.23 8 2 7.29 2 6.5a3.999 3.999 0 0 1 7.87-1H14V3c0-1.1.9-2 2-2v2.59L17.59 2H22v2h-3.59L16 6.41v.18L18.41 9H22v2h-4.41L16 9.41V12a2 2 0 0 1-2-2V7.5H9.87c-.1.39-.26.76-.46 1.1l6 10.4H20a2 2 0 0 1 2 2v1H2v-1c0-1.1.9-2 2-2m3.91-9c-.56.32-1.21.5-1.91.5l4.91 8.5h2.19l-5.19-9M6 4.5a2 2 0 0 0-2 2c0 1.11.89 2 2 2 1.11 0 2-.89 2-2a2 2 0 0 0-2-2Z" transform="matrix(1.5 0 0 1.5 612 144)" id="mdi-robot-industrial-outline" fill="#fff"/><path d="M22 14h-1c0-3.87-3.13-7-7-7h-1V5.73A2 2 0 1 0 10 4c0 .74.4 1.39 1 1.73V7h-1c-3.87 0-7 3.13-7 7H2c-.55 0-1 .45-1 1v3c0 .55.45 1 1 1h1v1a2 2 0 0 0 2 2h14c1.11 0 2-.89 2-2v-1h1c.55 0 1-.45 1-1v-3c0-.55-.45-1-1-1M9.7 15.45l-.73.73-1.47 1.47-2.2-2.2c-.4-.4-.4-1.06 0-1.45.41-.42 1.06-.42 1.47 0l.73.72.73-.72c.41-.42 1.06-.42 1.47 0 .4.39.4 1.05 0 1.45m9 0-.73.73-1.47 1.47-2.2-2.2c-.4-.4-.4-1.06 0-1.45.41-.42 1.06-.42 1.47 0l.73.72.73-.72c.41-.42 1.06-.42 1.47 0 .4.39.4 1.05 0 1.45Z" transform="matrix(1.5 0 0 1.5 648 144)" id="mdi-robot-love" fill="#555"/><path d="M22 14h-1c0-3.87-3.13-7-7-7h-1V5.73A2 2 0 1 0 10 4c0 .74.4 1.39 1 1.73V7h-1c-3.87 0-7 3.13-7 7H2c-.55 0-1 .45-1 1v3c0 .55.45 1 1 1h1v1a2 2 0 0 0 2 2h14c1.11 0 2-.89 2-2v-1h1c.55 0 1-.45 1-1v-3c0-.55-.45-1-1-1M9.7 15.45l-.73.73-1.47 1.47-2.2-2.2c-.4-.4-.4-1.06 0-1.45.41-.42 1.06-.42 1.47 0l.73.72.73-.72c.41-.42 1.06-.42 1.47 0 .4.39.4 1.05 0 1.45m9 0-.73.73-1.47 1.47-2.2-2.2c-.4-.4-.4-1.06 0-1.45.41-.42 1.06-.42 1.47 0l.73.72.73-.72c.41-.42 1.06-.42 1.47 0 .4.39.4 1.05 0 1.45Z" transform="matrix(1.5 0 0 1.5 684 144)" id="mdi-robot-love" fill="#fff"/><path d="M22 14h-1c0-3.87-3.13-7-7-7h-1V5.73A2 2 0 1 0 10 4c0 .74.4 1.39 1 1.73V7h-1c-3.87 0-7 3.13-7 7H2c-.55 0-1 .45-1 1v3c0 .55.45 1 1 1h1v1a2 2 0 0 0 2 2h14c1.11 0 2-.89 2-2v-1h1c.55 0 1-.45 1-1v-3c0-.55-.45-1-1-1m-1 3h-2v3H5v-3H3v-1h2v-2c0-2.76 2.24-5 5-5h4c2.76 0 5 2.24 5 5v2h2v1m-10.3-3c.4.39.4 1.05 0 1.45l-.73.73-1.47 1.47-2.2-2.2c-.4-.4-.4-1.06 0-1.45.41-.42 1.06-.42 1.47 0l.73.72.73-.72c.41-.42 1.06-.42 1.47 0m7 0c.4.39.4 1.05 0 1.45l-.73.73-1.47 1.47-2.2-2.2c-.4-.4-.4-1.06 0-1.45.41-.42 1.06-.42 1.47 0l.73.72.73-.72c.41-.42 1.06-.42 1.47 0Z" transform="matrix(1.5 0 0 1.5 0 180)" id="mdi-robot-love-outline" fill="#555"/><path d="M22 14h-1c0-3.87-3.13-7-7-7h-1V5.73A2 2 0 1 0 10 4c0 .74.4 1.39 1 1.73V7h-1c-3.87 0-7 3.13-7 7H2c-.55 0-1 .45-1 1v3c0 .55.45 1 1 1h1v1a2 2 0 0 0 2 2h14c1.11 0 2-.89 2-2v-1h1c.55 0 1-.45 1-1v-3c0-.55-.45-1-1-1m-1 3h-2v3H5v-3H3v-1h2v-2c0-2.76 2.24-5 5-5h4c2.76 0 5 2.24 5 5v2h2v1m-10.3-3c.4.39.4 1.05 0 1.45l-.73.73-1.47 1.47-2.2-2.2c-.4-.4-.4-1.06 0-1.45.41-.42 1.06-.42 1.47 0l.73.72.73-.72c.41-.42 1.06-.42 1.47 0m7 0c.4.39.4 1.05 0 1.45l-.73.73-1.47 1.47-2.2-2.2c-.4-.4-.4-1.06 0-1.45.41-.42 1.06-.42 1.47 0l.73.72.73-.72c.41-.42 1.06-.42 1.47 0Z" transform="matrix(1.5 0 0 1.5 36 180)" id="mdi-robot-love-outline" fill="#fff"/><path d="M1 14V5h12c5.5 0 10 4.5 10 10v2h-2.17A2.99 2.99 0 0 1 18 19a2.99 2.99 0 0 1-2.83-2H10a5.002 5.002 0 0 1-9-3m5-3c-1.66 0-3 1.34-3 3s1.34 3 3 3 3-1.34 3-3-1.34-3-3-3m9-1v2h5.25c-.33-.73-.75-1.4-1.25-2h-4Z" transform="matrix(1.5 0 0 1.5 72 180)" id="mdi-robot-mower" fill="#555"/><path d="M1 14V5h12c5.5 0 10 4.5 10 10v2h-2.17A2.99 2.99 0 0 1 18 19a2.99 2.99 0 0 1-2.83-2H10a5.002 5.002 0 0 1-9-3m5-3c-1.66 0-3 1.34-3 3s1.34 3 3 3 3-1.34 3-3-1.34-3-3-3m9-1v2h5.25c-.33-.73-.75-1.4-1.25-2h-4Z" transform="matrix(1.5 0 0 1.5 108 180)" id="mdi-robot-mower" fill="#fff"/><path d="M1 14a5.002 5.002 0 0 0 9 3h5.17A3 3 0 0 0 18 19c1.31 0 2.42-.83 2.83-2H23v-2c0-5.5-4.5-10-10-10H1v9m20 1H10.9A5.002 5.002 0 0 0 3 10V7h9.5c2.6 0 4.92 1.16 6.5 3h-4v2h5.25c.42.92.67 1.94.75 3M6 11c1.66 0 3 1.34 3 3s-1.34 3-3 3-3-1.34-3-3 1.34-3 3-3Z" transform="matrix(1.5 0 0 1.5 144 180)" id="mdi-robot-mower-outline" fill="#555"/><path d="M1 14a5.002 5.002 0 0 0 9 3h5.17A3 3 0 0 0 18 19c1.31 0 2.42-.83 2.83-2H23v-2c0-5.5-4.5-10-10-10H1v9m20 1H10.9A5.002 5.002 0 0 0 3 10V7h9.5c2.6 0 4.92 1.16 6.5 3h-4v2h5.25c.42.92.67 1.94.75 3M6 11c1.66 0 3 1.34 3 3s-1.34 3-3 3-3-1.34-3-3 1.34-3 3-3Z" transform="matrix(1.5 0 0 1.5 180 180)" id="mdi-robot-mower-outline" fill="#fff"/><path d="M23 15v3c0 .5-.36.88-.83.97l-3.2-3.2c.03-.09.03-.18.03-.27a2.5 2.5 0 0 0-2.5-2.5c-.09 0-.18 0-.27.03L10.2 7h.8V5.73c-.6-.34-1-.99-1-1.73 0-1.1.9-2 2-2s2 .9 2 2c0 .74-.4 1.39-1 1.73V7h1c3.87 0 7 3.13 7 7h1c.55 0 1 .45 1 1m-.89 6.46-1.27 1.27-.95-.95c-.27.14-.57.22-.89.22H5a2 2 0 0 1-2-2v-1H2c-.55 0-1-.45-1-1v-3c0-.55.45-1 1-1h1c0-2.47 1.29-4.64 3.22-5.89L1.11 3l1.28-1.27 19.72 19.73M10 15.5a2.5 2.5 0 0 0-5 0 2.5 2.5 0 0 0 5 0m6.07 2.46-2.03-2.03c.19 1.04 1 1.84 2.03 2.03Z" transform="matrix(1.5 0 0 1.5 216 180)" id="mdi-robot-off" fill="#555"/><path d="M23 15v3c0 .5-.36.88-.83.97l-3.2-3.2c.03-.09.03-.18.03-.27a2.5 2.5 0 0 0-2.5-2.5c-.09 0-.18 0-.27.03L10.2 7h.8V5.73c-.6-.34-1-.99-1-1.73 0-1.1.9-2 2-2s2 .9 2 2c0 .74-.4 1.39-1 1.73V7h1c3.87 0 7 3.13 7 7h1c.55 0 1 .45 1 1m-.89 6.46-1.27 1.27-.95-.95c-.27.14-.57.22-.89.22H5a2 2 0 0 1-2-2v-1H2c-.55 0-1-.45-1-1v-3c0-.55.45-1 1-1h1c0-2.47 1.29-4.64 3.22-5.89L1.11 3l1.28-1.27 19.72 19.73M10 15.5a2.5 2.5 0 0 0-5 0 2.5 2.5 0 0 0 5 0m6.07 2.46-2.03-2.03c.19 1.04 1 1.84 2.03 2.03Z" transform="matrix(1.5 0 0 1.5 252 180)" id="mdi-robot-off" fill="#fff"/><path d="M23 15v3c0 .5-.36.88-.83.97L20.2 17h.8v-1h-1.8l-.2-.2V14c0-2.76-2.24-5-5-5h-1.8l-2-2h.8V5.73c-.6-.34-1-.99-1-1.73 0-1.1.9-2 2-2s2 .9 2 2c0 .74-.4 1.39-1 1.73V7h1c3.87 0 7 3.13 7 7h1c.55 0 1 .45 1 1M8.5 13.5c-1.1 0-2 .9-2 2s.9 2 2 2 2-.89 2-2-.89-2-2-2m13.61 7.96-1.27 1.27-.95-.95c-.27.14-.57.22-.89.22H5a2 2 0 0 1-2-2v-1H2c-.55 0-1-.45-1-1v-3c0-.55.45-1 1-1h1c0-2.47 1.29-4.64 3.22-5.89L1.11 3l1.28-1.27 19.72 19.73m-4-1.46-2.51-2.5h-.1a2 2 0 0 1-2-2v-.1L7.7 9.59C6.1 10.42 5 12.08 5 14v2H3v1h2v3h13.11Z" transform="matrix(1.5 0 0 1.5 288 180)" id="mdi-robot-off-outline" fill="#555"/><path d="M23 15v3c0 .5-.36.88-.83.97L20.2 17h.8v-1h-1.8l-.2-.2V14c0-2.76-2.24-5-5-5h-1.8l-2-2h.8V5.73c-.6-.34-1-.99-1-1.73 0-1.1.9-2 2-2s2 .9 2 2c0 .74-.4 1.39-1 1.73V7h1c3.87 0 7 3.13 7 7h1c.55 0 1 .45 1 1M8.5 13.5c-1.1 0-2 .9-2 2s.9 2 2 2 2-.89 2-2-.89-2-2-2m13.61 7.96-1.27 1.27-.95-.95c-.27.14-.57.22-.89.22H5a2 2 0 0 1-2-2v-1H2c-.55 0-1-.45-1-1v-3c0-.55.45-1 1-1h1c0-2.47 1.29-4.64 3.22-5.89L1.11 3l1.28-1.27 19.72 19.73m-4-1.46-2.51-2.5h-.1a2 2 0 0 1-2-2v-.1L7.7 9.59C6.1 10.42 5 12.08 5 14v2H3v1h2v3h13.11Z" transform="matrix(1.5 0 0 1.5 324 180)" id="mdi-robot-off-outline" fill="#fff"/><path d="M17.5 15.5c0 1.11-.89 2-2 2s-2-.89-2-2 .9-2 2-2 2 .9 2 2m-9-2c-1.1 0-2 .9-2 2s.9 2 2 2 2-.89 2-2-.89-2-2-2M23 15v3c0 .55-.45 1-1 1h-1v1c0 1.11-.89 2-2 2H5a2 2 0 0 1-2-2v-1H2c-.55 0-1-.45-1-1v-3c0-.55.45-1 1-1h1c0-3.87 3.13-7 7-7h1V5.73c-.6-.34-1-.99-1-1.73 0-1.1.9-2 2-2s2 .9 2 2c0 .74-.4 1.39-1 1.73V7h1c3.87 0 7 3.13 7 7h1c.55 0 1 .45 1 1m-2 1h-2v-2c0-2.76-2.24-5-5-5h-4c-2.76 0-5 2.24-5 5v2H3v1h2v3h14v-3h2v-1Z" transform="matrix(1.5 0 0 1.5 360 180)" id="mdi-robot-outline" fill="#555"/><path d="M17.5 15.5c0 1.11-.89 2-2 2s-2-.89-2-2 .9-2 2-2 2 .9 2 2m-9-2c-1.1 0-2 .9-2 2s.9 2 2 2 2-.89 2-2-.89-2-2-2M23 15v3c0 .55-.45 1-1 1h-1v1c0 1.11-.89 2-2 2H5a2 2 0 0 1-2-2v-1H2c-.55 0-1-.45-1-1v-3c0-.55.45-1 1-1h1c0-3.87 3.13-7 7-7h1V5.73c-.6-.34-1-.99-1-1.73 0-1.1.9-2 2-2s2 .9 2 2c0 .74-.4 1.39-1 1.73V7h1c3.87 0 7 3.13 7 7h1c.55 0 1 .45 1 1m-2 1h-2v-2c0-2.76-2.24-5-5-5h-4c-2.76 0-5 2.24-5 5v2H3v1h2v3h14v-3h2v-1Z" transform="matrix(1.5 0 0 1.5 396 180)" id="mdi-robot-outline" fill="#fff"/><path d="M12 2c2.65 0 5.19 1.06 7.07 2.93l-1.42 1.42A7.994 7.994 0 0 0 12 4c-2.12 0-4.16.84-5.65 2.35L4.93 4.93C6.81 3.06 9.35 2 12 2M3.66 6.5l1.45 1.44A8.043 8.043 0 0 0 4 12a8 8 0 0 0 8 8 8 8 0 0 0 8-8c0-1.43-.39-2.83-1.12-4.06l1.46-1.44A9.93 9.93 0 0 1 22 12a10 10 0 0 1-10 10A10 10 0 0 1 2 12c0-1.96.58-3.88 1.66-5.5M12 6a6 6 0 0 1 6 6c0 1.59-.63 3.12-1.76 4.24l-1.41-1.41a4.004 4.004 0 0 1-5.66 0l-1.41 1.41A5.97 5.97 0 0 1 6 12a6 6 0 0 1 6-6m0 2a1 1 0 0 0-1 1 1 1 0 0 0 1 1 1 1 0 0 0 1-1 1 1 0 0 0-1-1Z" transform="matrix(1.5 0 0 1.5 432 180)" id="mdi-robot-vacuum" fill="#555"/><path d="M12 2c2.65 0 5.19 1.06 7.07 2.93l-1.42 1.42A7.994 7.994 0 0 0 12 4c-2.12 0-4.16.84-5.65 2.35L4.93 4.93C6.81 3.06 9.35 2 12 2M3.66 6.5l1.45 1.44A8.043 8.043 0 0 0 4 12a8 8 0 0 0 8 8 8 8 0 0 0 8-8c0-1.43-.39-2.83-1.12-4.06l1.46-1.44A9.93 9.93 0 0 1 22 12a10 10 0 0 1-10 10A10 10 0 0 1 2 12c0-1.96.58-3.88 1.66-5.5M12 6a6 6 0 0 1 6 6c0 1.59-.63 3.12-1.76 4.24l-1.41-1.41a4.004 4.004 0 0 1-5.66 0l-1.41 1.41A5.97 5.97 0 0 1 6 12a6 6 0 0 1 6-6m0 2a1 1 0 0 0-1 1 1 1 0 0 0 1 1 1 1 0 0 0 1-1 1 1 0 0 0-1-1Z" transform="matrix(1.5 0 0 1.5 468 180)" id="mdi-robot-vacuum" fill="#fff"/><path d="M5 3a2 2 0 0 0-2 2v2h2V5h14v2h2V5a2 2 0 0 0-2-2H5m3 4v2h8V7H8M3 9v3a9 9 0 0 0 9 9 9 9 0 0 0 9-9V9h-2v3a7 7 0 0 1-7 7 7 7 0 0 1-7-7V9H3m9 3a2.5 2.5 0 0 0-2.5 2.5A2.5 2.5 0 0 0 12 17a2.5 2.5 0 0 0 2.5-2.5A2.5 2.5 0 0 0 12 12Z" transform="matrix(1.5 0 0 1.5 504 180)" id="mdi-robot-vacuum-variant" fill="#555"/><path d="M5 3a2 2 0 0 0-2 2v2h2V5h14v2h2V5a2 2 0 0 0-2-2H5m3 4v2h8V7H8M3 9v3a9 9 0 0 0 9 9 9 9 0 0 0 9-9V9h-2v3a7 7 0 0 1-7 7 7 7 0 0 1-7-7V9H3m9 3a2.5 2.5 0 0 0-2.5 2.5A2.5 2.5 0 0 0 12 17a2.5 2.5 0 0 0 2.5-2.5A2.5 2.5 0 0 0 12 12Z" transform="matrix(1.5 0 0 1.5 540 180)" id="mdi-robot-vacuum-variant" fill="#fff"/><path d="m20 22-3.86-1.55c.7-1.53 1.2-3.11 1.51-4.72L20 22M7.86 20.45 4 22l2.35-6.27c.31 1.61.81 3.19 1.51 4.72M12 2s5 2 5 10c0 3.1-.75 5.75-1.67 7.83A2 2 0 0 1 13.5 21h-3a2 2 0 0 1-1.83-1.17C7.76 17.75 7 15.1 7 12c0-8 5-10 5-10m0 10c1.1 0 2-.9 2-2s-.9-2-2-2-2 .9-2 2 .9 2 2 2Z" transform="matrix(1.5 0 0 1.5 576 180)" id="mdi-rocket" fill="#555"/><path d="m20 22-3.86-1.55c.7-1.53 1.2-3.11 1.51-4.72L20 22M7.86 20.45 4 22l2.35-6.27c.31 1.61.81 3.19 1.51 4.72M12 2s5 2 5 10c0 3.1-.75 5.75-1.67 7.83A2 2 0 0 1 13.5 21h-3a2 2 0 0 1-1.83-1.17C7.76 17.75 7 15.1 7 12c0-8 5-10 5-10m0 10c1.1 0 2-.9 2-2s-.9-2-2-2-2 .9-2 2 .9 2 2 2Z" transform="matrix(1.5 0 0 1.5 612 180)" id="mdi-rocket" fill="#fff"/><path d="m13.13 22.19-1.63-3.83c1.57-.58 3.04-1.36 4.4-2.27l-2.77 6.1M5.64 12.5l-3.83-1.63 6.1-2.77C7 9.46 6.22 10.93 5.64 12.5M21.61 2.39S16.66.269 11 5.93c-2.19 2.19-3.5 4.6-4.35 6.71-.28.75-.09 1.57.46 2.13l2.13 2.12c.55.56 1.37.74 2.12.46A19.1 19.1 0 0 0 18.07 13c5.66-5.66 3.54-10.61 3.54-10.61m-7.07 7.07c-.78-.78-.78-2.05 0-2.83s2.05-.78 2.83 0c.77.78.78 2.05 0 2.83-.78.78-2.05.78-2.83 0m-5.66 7.07-1.41-1.41 1.41 1.41M6.24 22l3.64-3.64c-.34-.09-.67-.24-.97-.45L4.83 22h1.41M2 22h1.41l4.77-4.76-1.42-1.41L2 20.59V22m0-2.83 4.09-4.08c-.21-.3-.36-.62-.45-.97L2 17.76v1.41Z" transform="matrix(1.5 0 0 1.5 648 180)" id="mdi-rocket-launch" fill="#555"/><path d="m13.13 22.19-1.63-3.83c1.57-.58 3.04-1.36 4.4-2.27l-2.77 6.1M5.64 12.5l-3.83-1.63 6.1-2.77C7 9.46 6.22 10.93 5.64 12.5M21.61 2.39S16.66.269 11 5.93c-2.19 2.19-3.5 4.6-4.35 6.71-.28.75-.09 1.57.46 2.13l2.13 2.12c.55.56 1.37.74 2.12.46A19.1 19.1 0 0 0 18.07 13c5.66-5.66 3.54-10.61 3.54-10.61m-7.07 7.07c-.78-.78-.78-2.05 0-2.83s2.05-.78 2.83 0c.77.78.78 2.05 0 2.83-.78.78-2.05.78-2.83 0m-5.66 7.07-1.41-1.41 1.41 1.41M6.24 22l3.64-3.64c-.34-.09-.67-.24-.97-.45L4.83 22h1.41M2 22h1.41l4.77-4.76-1.42-1.41L2 20.59V22m0-2.83 4.09-4.08c-.21-.3-.36-.62-.45-.97L2 17.76v1.41Z" transform="matrix(1.5 0 0 1.5 684 180)" id="mdi-rocket-launch" fill="#fff"/><path d="m13.13 22.19-1.63-3.83c1.57-.58 3.04-1.36 4.4-2.27l-2.77 6.1M5.64 12.5l-3.83-1.63 6.1-2.77C7 9.46 6.22 10.93 5.64 12.5M19.22 4c.28 0 .53 0 .74.05.17 1.39-.02 4.25-3.3 7.53-1.7 1.71-3.73 3.02-6.01 3.89l-2.15-2.1c.92-2.31 2.23-4.34 3.92-6.03C15.18 4.58 17.64 4 19.22 4m0-2c-1.98 0-4.98.69-8.22 3.93-2.19 2.19-3.5 4.6-4.35 6.71-.28.75-.09 1.57.46 2.13l2.13 2.12c.38.38.89.61 1.42.61.23 0 .47-.06.7-.15A19.1 19.1 0 0 0 18.07 13c5.66-5.66 3.54-10.61 3.54-10.61S20.7 2 19.22 2m-4.68 7.46c-.78-.78-.78-2.05 0-2.83s2.05-.78 2.83 0c.77.78.78 2.05 0 2.83-.78.78-2.05.78-2.83 0m-5.66 7.07-1.41-1.41 1.41 1.41M6.24 22l3.64-3.64c-.34-.09-.67-.24-.97-.45L4.83 22h1.41M2 22h1.41l4.77-4.76-1.42-1.41L2 20.59V22m0-2.83 4.09-4.08c-.21-.3-.36-.62-.45-.97L2 17.76v1.41Z" transform="matrix(1.5 0 0 1.5 0 216)" id="mdi-rocket-launch-outline" fill="#555"/><path d="m13.13 22.19-1.63-3.83c1.57-.58 3.04-1.36 4.4-2.27l-2.77 6.1M5.64 12.5l-3.83-1.63 6.1-2.77C7 9.46 6.22 10.93 5.64 12.5M19.22 4c.28 0 .53 0 .74.05.17 1.39-.02 4.25-3.3 7.53-1.7 1.71-3.73 3.02-6.01 3.89l-2.15-2.1c.92-2.31 2.23-4.34 3.92-6.03C15.18 4.58 17.64 4 19.22 4m0-2c-1.98 0-4.98.69-8.22 3.93-2.19 2.19-3.5 4.6-4.35 6.71-.28.75-.09 1.57.46 2.13l2.13 2.12c.38.38.89.61 1.42.61.23 0 .47-.06.7-.15A19.1 19.1 0 0 0 18.07 13c5.66-5.66 3.54-10.61 3.54-10.61S20.7 2 19.22 2m-4.68 7.46c-.78-.78-.78-2.05 0-2.83s2.05-.78 2.83 0c.77.78.78 2.05 0 2.83-.78.78-2.05.78-2.83 0m-5.66 7.07-1.41-1.41 1.41 1.41M6.24 22l3.64-3.64c-.34-.09-.67-.24-.97-.45L4.83 22h1.41M2 22h1.41l4.77-4.76-1.42-1.41L2 20.59V22m0-2.83 4.09-4.08c-.21-.3-.36-.62-.45-.97L2 17.76v1.41Z" transform="matrix(1.5 0 0 1.5 36 216)" id="mdi-rocket-launch-outline" fill="#fff"/><path d="M12 2S7 4 7 12c0 3.1.76 5.75 1.67 7.83A2 2 0 0 0 10.5 21h3a2 2 0 0 0 1.83-1.17C16.25 17.75 17 15.1 17 12c0-8-5-10-5-10m1.5 17h-3c-1-2.24-1.5-4.59-1.5-7 0-4.64 1.9-6.8 3-7.67 1.1.87 3 3.03 3 7.67 0 2.41-.5 4.76-1.5 7m6.5 3-3.86-1.55c.7-1.53 1.2-3.11 1.51-4.72m-9.79 4.72L4 22l2.35-6.27c.31 1.61.81 3.19 1.51 4.72M12 12c-1.1 0-2-.9-2-2s.9-2 2-2 2 .9 2 2-.9 2-2 2Z" transform="matrix(1.5 0 0 1.5 72 216)" id="mdi-rocket-outline" fill="#555"/><path d="M12 2S7 4 7 12c0 3.1.76 5.75 1.67 7.83A2 2 0 0 0 10.5 21h3a2 2 0 0 0 1.83-1.17C16.25 17.75 17 15.1 17 12c0-8-5-10-5-10m1.5 17h-3c-1-2.24-1.5-4.59-1.5-7 0-4.64 1.9-6.8 3-7.67 1.1.87 3 3.03 3 7.67 0 2.41-.5 4.76-1.5 7m6.5 3-3.86-1.55c.7-1.53 1.2-3.11 1.51-4.72m-9.79 4.72L4 22l2.35-6.27c.31 1.61.81 3.19 1.51 4.72M12 12c-1.1 0-2-.9-2-2s.9-2 2-2 2 .9 2 2-.9 2-2 2Z" transform="matrix(1.5 0 0 1.5 108 216)" id="mdi-rocket-outline" fill="#fff"/><path d="M21.33 17.39c1.4 1.27.47 3.61-1.41 3.61h-8.86A5.04 5.04 0 0 1 6 15.94v-.05c-2.3-.47-4-2.48-4-4.89 0-2.75 2.22-5 5-5h2.5c.3 0 .5-.23.5-.5S9.8 5 9.5 5H7V3h2.5C10.88 3 12 4.13 12 5.5 12 6.89 10.88 8 9.5 8H7c-1.66 0-3 1.33-3 3 0 1.37.92 2.5 2.14 2.87.56-2.2 2.53-3.87 4.92-3.87.8 0 1.6.22 2.3.55-1.41.79-2.36 2.25-2.36 3.95 0 1.25.5 2.37 1.33 3.17l.7-.7c-.65-.61-1.03-1.5-1.03-2.47 0-2.59 2.34-3.5 3.5-3.5 2.08 0 3.95 1.89 3.44 4.23l2.39 2.16M18 19c.56 0 1-.44 1-1s-.44-1-1-1-1 .44-1 1 .44 1 1 1Z" transform="matrix(1.5 0 0 1.5 144 216)" id="mdi-rodent" fill="#555"/><path d="M21.33 17.39c1.4 1.27.47 3.61-1.41 3.61h-8.86A5.04 5.04 0 0 1 6 15.94v-.05c-2.3-.47-4-2.48-4-4.89 0-2.75 2.22-5 5-5h2.5c.3 0 .5-.23.5-.5S9.8 5 9.5 5H7V3h2.5C10.88 3 12 4.13 12 5.5 12 6.89 10.88 8 9.5 8H7c-1.66 0-3 1.33-3 3 0 1.37.92 2.5 2.14 2.87.56-2.2 2.53-3.87 4.92-3.87.8 0 1.6.22 2.3.55-1.41.79-2.36 2.25-2.36 3.95 0 1.25.5 2.37 1.33 3.17l.7-.7c-.65-.61-1.03-1.5-1.03-2.47 0-2.59 2.34-3.5 3.5-3.5 2.08 0 3.95 1.89 3.44 4.23l2.39 2.16M18 19c.56 0 1-.44 1-1s-.44-1-1-1-1 .44-1 1 .44 1 1 1Z" transform="matrix(1.5 0 0 1.5 180 216)" id="mdi-rodent" fill="#fff"/><path d="M20 19V3H4v16H2v2h20v-2h-2M6 19v-6h5v1.8c-.4.3-.8.8-.8 1.4 0 1 .8 1.8 1.8 1.8s1.8-.8 1.8-1.8c0-.6-.3-1.1-.8-1.4V13h5v6H6Z" transform="matrix(1.5 0 0 1.5 216 216)" id="mdi-roller-shade" fill="#555"/><path d="M20 19V3H4v16H2v2h20v-2h-2M6 19v-6h5v1.8c-.4.3-.8.8-.8 1.4 0 1 .8 1.8 1.8 1.8s1.8-.8 1.8-1.8c0-.6-.3-1.1-.8-1.4V13h5v6H6Z" transform="matrix(1.5 0 0 1.5 252 216)" id="mdi-roller-shade" fill="#fff"/><path d="M20 19V3H4v16H2v2h8.25c0 .97.78 1.75 1.75 1.75s1.75-.78 1.75-1.75H22v-2h-2M6 19v-2h5v2H6m7 0v-2h5v2h-5Z" transform="matrix(1.5 0 0 1.5 288 216)" id="mdi-roller-shade-closed" fill="#555"/><path d="M20 19V3H4v16H2v2h8.25c0 .97.78 1.75 1.75 1.75s1.75-.78 1.75-1.75H22v-2h-2M6 19v-2h5v2H6m7 0v-2h5v2h-5Z" transform="matrix(1.5 0 0 1.5 324 216)" id="mdi-roller-shade-closed" fill="#fff"/><path d="M6.5 18C5.1 18 4 19.12 4 20.5S5.1 23 6.5 23 9 21.88 9 20.5 7.86 18 6.5 18m10 0c-1.4 0-2.5 1.12-2.5 2.5s1.1 2.5 2.5 2.5 2.5-1.12 2.5-2.5-1.14-2.5-2.5-2.5m3.5-1c0-1.37.09-3.19-.5-4.05-.95-2.05-3.68-2.39-5.59-2.9C13 10 12 9 11.82 8H9a.49.49 0 0 1-.5-.5c0-.28.21-.5.5-.5h2.5V6H9a.49.49 0 0 1-.5-.5c0-.28.21-.5.5-.5h2.5V2H3v15h17Z" transform="matrix(1.5 0 0 1.5 360 216)" id="mdi-roller-skate" fill="#555"/><path d="M6.5 18C5.1 18 4 19.12 4 20.5S5.1 23 6.5 23 9 21.88 9 20.5 7.86 18 6.5 18m10 0c-1.4 0-2.5 1.12-2.5 2.5s1.1 2.5 2.5 2.5 2.5-1.12 2.5-2.5-1.14-2.5-2.5-2.5m3.5-1c0-1.37.09-3.19-.5-4.05-.95-2.05-3.68-2.39-5.59-2.9C13 10 12 9 11.82 8H9a.49.49 0 0 1-.5-.5c0-.28.21-.5.5-.5h2.5V6H9a.49.49 0 0 1-.5-.5c0-.28.21-.5.5-.5h2.5V2H3v15h17Z" transform="matrix(1.5 0 0 1.5 396 216)" id="mdi-roller-skate" fill="#fff"/><path d="m20.84 22.73-1.89-1.89c-.17 1.22-1.2 2.16-2.45 2.16-1.4 0-2.5-1.12-2.5-2.5 0-1.26.93-2.3 2.14-2.47L15.11 17H3V4.9L1.11 3l1.28-1.27 19.72 19.73-1.27 1.27M9 5h2.5V2H5.2l3.3 3.32c.09-.19.27-.32.5-.32m3.56 4.36C12.18 9 11.9 8.5 11.82 8h-.62l1.36 1.36m6.94 3.59c-.95-2.05-3.68-2.39-5.59-2.9-.46-.02-.91-.28-1.31-.65l7.4 7.39c0-1.34.06-3.03-.5-3.84M9.2 6l1 1h1.3V6H9.2M6.5 18C5.1 18 4 19.12 4 20.5S5.1 23 6.5 23 9 21.88 9 20.5 7.86 18 6.5 18Z" transform="matrix(1.5 0 0 1.5 432 216)" id="mdi-roller-skate-off" fill="#555"/><path d="m20.84 22.73-1.89-1.89c-.17 1.22-1.2 2.16-2.45 2.16-1.4 0-2.5-1.12-2.5-2.5 0-1.26.93-2.3 2.14-2.47L15.11 17H3V4.9L1.11 3l1.28-1.27 19.72 19.73-1.27 1.27M9 5h2.5V2H5.2l3.3 3.32c.09-.19.27-.32.5-.32m3.56 4.36C12.18 9 11.9 8.5 11.82 8h-.62l1.36 1.36m6.94 3.59c-.95-2.05-3.68-2.39-5.59-2.9-.46-.02-.91-.28-1.31-.65l7.4 7.39c0-1.34.06-3.03-.5-3.84M9.2 6l1 1h1.3V6H9.2M6.5 18C5.1 18 4 19.12 4 20.5S5.1 23 6.5 23 9 21.88 9 20.5 7.86 18 6.5 18Z" transform="matrix(1.5 0 0 1.5 468 216)" id="mdi-roller-skate-off" fill="#fff"/><path d="M4.5 18a2.5 2.5 0 0 0 0 5 2.5 2.5 0 0 0 0-5m14 0a2.5 2.5 0 0 0 0 5 2.5 2.5 0 0 0 0-5m1.5-1c0-1.37.09-3.19-.5-4.05-.95-2.05-3.68-2.39-5.59-2.9C13 10 12 9 11.82 8H9a.49.49 0 0 1-.5-.5c0-.28.21-.5.5-.5h2.5V6H9a.49.49 0 0 1-.5-.5c0-.28.21-.5.5-.5h2.5V2H3v15h17m-8.5 1a2.5 2.5 0 0 0 0 5 2.5 2.5 0 0 0 0-5Z" transform="matrix(1.5 0 0 1.5 504 216)" id="mdi-rollerblade" fill="#555"/><path d="M4.5 18a2.5 2.5 0 0 0 0 5 2.5 2.5 0 0 0 0-5m14 0a2.5 2.5 0 0 0 0 5 2.5 2.5 0 0 0 0-5m1.5-1c0-1.37.09-3.19-.5-4.05-.95-2.05-3.68-2.39-5.59-2.9C13 10 12 9 11.82 8H9a.49.49 0 0 1-.5-.5c0-.28.21-.5.5-.5h2.5V6H9a.49.49 0 0 1-.5-.5c0-.28.21-.5.5-.5h2.5V2H3v15h17m-8.5 1a2.5 2.5 0 0 0 0 5 2.5 2.5 0 0 0 0-5Z" transform="matrix(1.5 0 0 1.5 540 216)" id="mdi-rollerblade" fill="#fff"/><path d="m20.84 22.73-.52-.52c-.46.48-1.1.79-1.82.79a2.5 2.5 0 0 1-2.5-2.5c0-.72.31-1.36.79-1.82L15.11 17H3V4.9L1.11 3l1.28-1.27 19.72 19.73-1.27 1.27m-1.34-9.78c-.95-2.05-3.68-2.39-5.59-2.9-.46-.02-.91-.28-1.31-.65l7.4 7.39c0-1.34.06-3.03-.5-3.84M9.2 6l1 1h1.3V6H9.2m3.36 3.36C12.18 9 11.9 8.5 11.82 8h-.62l1.36 1.36M11.5 18a2.5 2.5 0 0 0 0 5 2.5 2.5 0 0 0 0-5M9 5h2.5V2H5.2l3.3 3.32c.09-.19.27-.32.5-.32M4.5 18a2.5 2.5 0 0 0 0 5 2.5 2.5 0 0 0 0-5Z" transform="matrix(1.5 0 0 1.5 576 216)" id="mdi-rollerblade-off" fill="#555"/><path d="m20.84 22.73-.52-.52c-.46.48-1.1.79-1.82.79a2.5 2.5 0 0 1-2.5-2.5c0-.72.31-1.36.79-1.82L15.11 17H3V4.9L1.11 3l1.28-1.27 19.72 19.73-1.27 1.27m-1.34-9.78c-.95-2.05-3.68-2.39-5.59-2.9-.46-.02-.91-.28-1.31-.65l7.4 7.39c0-1.34.06-3.03-.5-3.84M9.2 6l1 1h1.3V6H9.2m3.36 3.36C12.18 9 11.9 8.5 11.82 8h-.62l1.36 1.36M11.5 18a2.5 2.5 0 0 0 0 5 2.5 2.5 0 0 0 0-5M9 5h2.5V2H5.2l3.3 3.32c.09-.19.27-.32.5-.32M4.5 18a2.5 2.5 0 0 0 0 5 2.5 2.5 0 0 0 0-5Z" transform="matrix(1.5 0 0 1.5 612 216)" id="mdi-rollerblade-off" fill="#fff"/><path d="M19.46 8.64c0 2.47-1.35 4.62-3.34 5.76-.12.1-.19.26-.12.41l3.41 6.74c.09.21-.05.45-.28.45H6.1l.07-.04c.49-.28 3.89-6.99 7.21-10.17 3.32-3.18 3.74-2.12 1.91-5.58 0 0 1.41 2.75.21 2.96-.94.17-3.1-1.92-2.3-3.8.8-1.84 3.95-1.49 5.4.01.55.96.86 2.07.86 3.26m-12.3 4.49c-1.32 2.43-2.16 4.2-2.62 5.44V2.31c0-.17.14-.31.31-.31h8.07a6.62 6.62 0 0 1 5.54 3.15C17.62 4.1 16.3 3.5 15 3.5c-2.47 0-3.09.9-7.84 9.63Z" transform="matrix(1.5 0 0 1.5 648 216)" id="mdi-rollupjs" fill="#555"/><path d="M19.46 8.64c0 2.47-1.35 4.62-3.34 5.76-.12.1-.19.26-.12.41l3.41 6.74c.09.21-.05.45-.28.45H6.1l.07-.04c.49-.28 3.89-6.99 7.21-10.17 3.32-3.18 3.74-2.12 1.91-5.58 0 0 1.41 2.75.21 2.96-.94.17-3.1-1.92-2.3-3.8.8-1.84 3.95-1.49 5.4.01.55.96.86 2.07.86 3.26m-12.3 4.49c-1.32 2.43-2.16 4.2-2.62 5.44V2.31c0-.17.14-.31.31-.31h8.07a6.62 6.62 0 0 1 5.54 3.15C17.62 4.1 16.3 3.5 15 3.5c-2.47 0-3.09.9-7.84 9.63Z" transform="matrix(1.5 0 0 1.5 684 216)" id="mdi-rollupjs" fill="#fff"/><path d="M14 7v2h-1v6h1v2h-4v-2h1V9h-1V7h4Z" transform="matrix(1.5 0 0 1.5 0 252)" id="mdi-roman-numeral-1" fill="#555"/><path d="M14 7v2h-1v6h1v2h-4v-2h1V9h-1V7h4Z" transform="matrix(1.5 0 0 1.5 36 252)" id="mdi-roman-numeral-1" fill="#fff"/><path d="m9 7 2 5-2 5h2l1-2.5 1 2.5h2l-2-5 2-5h-2l-1 2.5L11 7H9Z" transform="matrix(1.5 0 0 1.5 72 252)" id="mdi-roman-numeral-10" fill="#555"/><path d="m9 7 2 5-2 5h2l1-2.5 1 2.5h2l-2-5 2-5h-2l-1 2.5L11 7H9Z" transform="matrix(1.5 0 0 1.5 108 252)" id="mdi-roman-numeral-10" fill="#fff"/><path d="M11 7v2h-1v6h1v2H7v-2h1V9H7V7h4m6 0v2h-1v6h1v2h-4v-2h1V9h-1V7h4Z" transform="matrix(1.5 0 0 1.5 144 252)" id="mdi-roman-numeral-2" fill="#555"/><path d="M11 7v2h-1v6h1v2H7v-2h1V9H7V7h4m6 0v2h-1v6h1v2h-4v-2h1V9h-1V7h4Z" transform="matrix(1.5 0 0 1.5 180 252)" id="mdi-roman-numeral-2" fill="#fff"/><path d="M9 7v2H8v6h1v2H5v-2h1V9H5V7h4m5 0v2h-1v6h1v2h-4v-2h1V9h-1V7h4m5 0v2h-1v6h1v2h-4v-2h1V9h-1V7h4Z" transform="matrix(1.5 0 0 1.5 216 252)" id="mdi-roman-numeral-3" fill="#555"/><path d="M9 7v2H8v6h1v2H5v-2h1V9H5V7h4m5 0v2h-1v6h1v2h-4v-2h1V9h-1V7h4m5 0v2h-1v6h1v2h-4v-2h1V9h-1V7h4Z" transform="matrix(1.5 0 0 1.5 252 252)" id="mdi-roman-numeral-3" fill="#fff"/><path d="m12 7 2 10h2l2-10h-2l-1 5-1-5h-2m-1 0v2h-1v6h1v2H7v-2h1V9H7V7h4Z" transform="matrix(1.5 0 0 1.5 288 252)" id="mdi-roman-numeral-4" fill="#555"/><path d="m12 7 2 10h2l2-10h-2l-1 5-1-5h-2m-1 0v2h-1v6h1v2H7v-2h1V9H7V7h4Z" transform="matrix(1.5 0 0 1.5 324 252)" id="mdi-roman-numeral-4" fill="#fff"/><path d="m9 7 2 10h2l2-10h-2l-1 5-1-5H9Z" transform="matrix(1.5 0 0 1.5 360 252)" id="mdi-roman-numeral-5" fill="#555"/><path d="m9 7 2 10h2l2-10h-2l-1 5-1-5H9Z" transform="matrix(1.5 0 0 1.5 396 252)" id="mdi-roman-numeral-5" fill="#fff"/><path d="m6 7 2 10h2l2-10h-2l-1 5-1-5H6m11 0v2h-1v6h1v2h-4v-2h1V9h-1V7h4Z" transform="matrix(1.5 0 0 1.5 432 252)" id="mdi-roman-numeral-6" fill="#555"/><path d="m6 7 2 10h2l2-10h-2l-1 5-1-5H6m11 0v2h-1v6h1v2h-4v-2h1V9h-1V7h4Z" transform="matrix(1.5 0 0 1.5 468 252)" id="mdi-roman-numeral-6" fill="#fff"/><path d="m4 7 2 10h2l2-10H8l-1 5-1-5H4m11 0v2h-1v6h1v2h-4v-2h1V9h-1V7h4m5 0v2h-1v6h1v2h-4v-2h1V9h-1V7h4Z" transform="matrix(1.5 0 0 1.5 504 252)" id="mdi-roman-numeral-7" fill="#555"/><path d="m4 7 2 10h2l2-10H8l-1 5-1-5H4m11 0v2h-1v6h1v2h-4v-2h1V9h-1V7h4m5 0v2h-1v6h1v2h-4v-2h1V9h-1V7h4Z" transform="matrix(1.5 0 0 1.5 540 252)" id="mdi-roman-numeral-7" fill="#fff"/><path d="m1 7 2 10h2L7 7H5l-1 5-1-5H1m11 0v2h-1v6h1v2H8v-2h1V9H8V7h4m5 0v2h-1v6h1v2h-4v-2h1V9h-1V7h4m5 0v2h-1v6h1v2h-4v-2h1V9h-1V7h4Z" transform="matrix(1.5 0 0 1.5 576 252)" id="mdi-roman-numeral-8" fill="#555"/><path d="m1 7 2 10h2L7 7H5l-1 5-1-5H1m11 0v2h-1v6h1v2H8v-2h1V9H8V7h4m5 0v2h-1v6h1v2h-4v-2h1V9h-1V7h4m5 0v2h-1v6h1v2h-4v-2h1V9h-1V7h4Z" transform="matrix(1.5 0 0 1.5 612 252)" id="mdi-roman-numeral-8" fill="#fff"/><path d="M11 7v2h-1v6h1v2H7v-2h1V9H7V7h4m1 0 2 5-2 5h2l1-2.5 1 2.5h2l-2-5 2-5h-2l-1 2.5L14 7h-2Z" transform="matrix(1.5 0 0 1.5 648 252)" id="mdi-roman-numeral-9" fill="#555"/><path d="M11 7v2h-1v6h1v2H7v-2h1V9H7V7h4m1 0 2 5-2 5h2l1-2.5 1 2.5h2l-2-5 2-5h-2l-1 2.5L14 7h-2Z" transform="matrix(1.5 0 0 1.5 684 252)" id="mdi-roman-numeral-9" fill="#fff"/><path d="M12 5a2 2 0 0 1 2 2c0 .24-.04.47-.12.69C17.95 8.5 21 11.91 21 16H3c0-4.09 3.05-7.5 7.12-8.31-.08-.22-.12-.45-.12-.69a2 2 0 0 1 2-2m10 14H2v-2h20v2Z" transform="matrix(1.5 0 0 1.5 0 288)" id="mdi-room-service" fill="#555"/><path d="M12 5a2 2 0 0 1 2 2c0 .24-.04.47-.12.69C17.95 8.5 21 11.91 21 16H3c0-4.09 3.05-7.5 7.12-8.31-.08-.22-.12-.45-.12-.69a2 2 0 0 1 2-2m10 14H2v-2h20v2Z" transform="matrix(1.5 0 0 1.5 36 288)" id="mdi-room-service" fill="#fff"/><path d="M12 5a2 2 0 0 1 2 2c0 .24-.04.47-.12.69C17.95 8.5 21 11.91 21 16H3c0-4.09 3.05-7.5 7.12-8.31-.08-.22-.12-.45-.12-.69a2 2 0 0 1 2-2m10 14H2v-2h20v2M12 9.5c-3.11 0-5.75 1.89-6.66 4.5h13.32c-.91-2.61-3.55-4.5-6.66-4.5Z" transform="matrix(1.5 0 0 1.5 72 288)" id="mdi-room-service-outline" fill="#555"/><path d="M12 5a2 2 0 0 1 2 2c0 .24-.04.47-.12.69C17.95 8.5 21 11.91 21 16H3c0-4.09 3.05-7.5 7.12-8.31-.08-.22-.12-.45-.12-.69a2 2 0 0 1 2-2m10 14H2v-2h20v2M12 9.5c-3.11 0-5.75 1.89-6.66 4.5h13.32c-.91-2.61-3.55-4.5-6.66-4.5Z" transform="matrix(1.5 0 0 1.5 108 288)" id="mdi-room-service-outline" fill="#fff"/><path d="M12 7C6.5 7 2 9.2 2 12c0 2.2 2.9 4.1 7 4.8V20l4-4-4-4v2.7c-3.2-.6-5-1.9-5-2.7 0-1.1 3-3 8-3s8 1.9 8 3c0 .7-1.5 1.9-4 2.5v2.1c3.5-.8 6-2.5 6-4.6 0-2.8-4.5-5-10-5Z" transform="matrix(1.5 0 0 1.5 144 288)" id="mdi-rotate-360" fill="#555"/><path d="M12 7C6.5 7 2 9.2 2 12c0 2.2 2.9 4.1 7 4.8V20l4-4-4-4v2.7c-3.2-.6-5-1.9-5-2.7 0-1.1 3-3 8-3s8 1.9 8 3c0 .7-1.5 1.9-4 2.5v2.1c3.5-.8 6-2.5 6-4.6 0-2.8-4.5-5-10-5Z" transform="matrix(1.5 0 0 1.5 180 288)" id="mdi-rotate-360" fill="#fff"/><path d="M7.47 21.5C4.2 19.94 1.86 16.76 1.5 13H0c.5 6.16 5.66 11 11.95 11l.66-.03-3.81-3.81-1.33 1.34m.89-6.54c-.19 0-.36-.03-.52-.08a1.07 1.07 0 0 1-.4-.24c-.11-.1-.2-.22-.26-.37-.06-.14-.09-.3-.09-.47h-1.3c0 .36.07.7.21.95.14.25.33.5.56.69.24.18.51.32.82.41.3.1.62.15.96.15.37 0 .72-.05 1.03-.15.32-.1.6-.25.83-.44.23-.19.42-.41.55-.72.13-.29.2-.61.2-.97 0-.19-.02-.38-.07-.56-.05-.16-.12-.35-.23-.51-.1-.15-.24-.3-.4-.43-.17-.13-.37-.22-.61-.31a2.067 2.067 0 0 0 .89-.75c.1-.16.17-.3.22-.46.05-.16.07-.32.07-.48 0-.36-.06-.68-.18-.96-.14-.26-.29-.51-.51-.69-.2-.19-.47-.33-.77-.43C9.05 8.05 8.71 8 8.34 8c-.34 0-.69.05-1 .16-.3.11-.57.26-.79.45-.21.19-.38.39-.51.67-.12.26-.18.54-.18.85h1.3c0-.17.03-.32.09-.45a.94.94 0 0 1 .25-.34c.11-.09.23-.17.38-.22.15-.05.3-.08.48-.08.4 0 .7.1.89.31.19.2.29.49.29.86 0 .18-.04.34-.08.49a.87.87 0 0 1-.25.37c-.11.1-.25.18-.41.24-.16.06-.36.09-.58.09h-.77v1.03h.77c.22 0 .42.02.6.07s.33.13.45.23c.12.11.23.24.29.4.07.16.1.37.1.57 0 .41-.12.72-.35.93-.23.23-.55.33-.95.33m8.55-5.92c-.32-.33-.7-.59-1.14-.77-.43-.18-.92-.27-1.46-.27h-2.36v8h2.3c.55 0 1.06-.09 1.51-.27.45-.18.84-.43 1.16-.76.32-.33.58-.73.74-1.19.17-.47.26-.99.26-1.57v-.4c0-.58-.09-1.1-.26-1.57-.16-.47-.43-.87-.75-1.2m-.41 3.16c0 .42-.03.8-.12 1.13-.1.33-.24.62-.43.85-.19.23-.45.41-.71.53-.29.12-.62.18-.99.18h-.91V9.12h.97c.72 0 1.27.23 1.64.69.38.46.55 1.12.55 1.99M11.95 0l-.66.03 3.81 3.81 1.33-1.34c3.27 1.56 5.61 4.73 5.96 8.5h1.5c-.5-6.16-5.65-11-11.94-11Z" transform="matrix(1.5 0 0 1.5 216 288)" id="mdi-rotate-3d" fill="#555"/><path d="M7.47 21.5C4.2 19.94 1.86 16.76 1.5 13H0c.5 6.16 5.66 11 11.95 11l.66-.03-3.81-3.81-1.33 1.34m.89-6.54c-.19 0-.36-.03-.52-.08a1.07 1.07 0 0 1-.4-.24c-.11-.1-.2-.22-.26-.37-.06-.14-.09-.3-.09-.47h-1.3c0 .36.07.7.21.95.14.25.33.5.56.69.24.18.51.32.82.41.3.1.62.15.96.15.37 0 .72-.05 1.03-.15.32-.1.6-.25.83-.44.23-.19.42-.41.55-.72.13-.29.2-.61.2-.97 0-.19-.02-.38-.07-.56-.05-.16-.12-.35-.23-.51-.1-.15-.24-.3-.4-.43-.17-.13-.37-.22-.61-.31a2.067 2.067 0 0 0 .89-.75c.1-.16.17-.3.22-.46.05-.16.07-.32.07-.48 0-.36-.06-.68-.18-.96-.14-.26-.29-.51-.51-.69-.2-.19-.47-.33-.77-.43C9.05 8.05 8.71 8 8.34 8c-.34 0-.69.05-1 .16-.3.11-.57.26-.79.45-.21.19-.38.39-.51.67-.12.26-.18.54-.18.85h1.3c0-.17.03-.32.09-.45a.94.94 0 0 1 .25-.34c.11-.09.23-.17.38-.22.15-.05.3-.08.48-.08.4 0 .7.1.89.31.19.2.29.49.29.86 0 .18-.04.34-.08.49a.87.87 0 0 1-.25.37c-.11.1-.25.18-.41.24-.16.06-.36.09-.58.09h-.77v1.03h.77c.22 0 .42.02.6.07s.33.13.45.23c.12.11.23.24.29.4.07.16.1.37.1.57 0 .41-.12.72-.35.93-.23.23-.55.33-.95.33m8.55-5.92c-.32-.33-.7-.59-1.14-.77-.43-.18-.92-.27-1.46-.27h-2.36v8h2.3c.55 0 1.06-.09 1.51-.27.45-.18.84-.43 1.16-.76.32-.33.58-.73.74-1.19.17-.47.26-.99.26-1.57v-.4c0-.58-.09-1.1-.26-1.57-.16-.47-.43-.87-.75-1.2m-.41 3.16c0 .42-.03.8-.12 1.13-.1.33-.24.62-.43.85-.19.23-.45.41-.71.53-.29.12-.62.18-.99.18h-.91V9.12h.97c.72 0 1.27.23 1.64.69.38.46.55 1.12.55 1.99M11.95 0l-.66.03 3.81 3.81 1.33-1.34c3.27 1.56 5.61 4.73 5.96 8.5h1.5c-.5-6.16-5.65-11-11.94-11Z" transform="matrix(1.5 0 0 1.5 252 288)" id="mdi-rotate-3d" fill="#fff"/><path d="M12 5c4.97 0 9 2.69 9 6 0 1.68-1.04 3.2-2.71 4.29 1.07-.87 1.71-1.97 1.71-3.16C20 9.29 16.42 7 12 7v3L8 6l4-4v3m0 14c-4.97 0-9-2.69-9-6 0-1.68 1.04-3.2 2.71-4.29C4.64 9.58 4 10.68 4 11.88 4 14.71 7.58 17 12 17v-3l4 4-4 4v-3Z" transform="matrix(1.5 0 0 1.5 288 288)" id="mdi-rotate-3d-variant" fill="#555"/><path d="M12 5c4.97 0 9 2.69 9 6 0 1.68-1.04 3.2-2.71 4.29 1.07-.87 1.71-1.97 1.71-3.16C20 9.29 16.42 7 12 7v3L8 6l4-4v3m0 14c-4.97 0-9-2.69-9-6 0-1.68 1.04-3.2 2.71-4.29C4.64 9.58 4 10.68 4 11.88 4 14.71 7.58 17 12 17v-3l4 4-4 4v-3Z" transform="matrix(1.5 0 0 1.5 324 288)" id="mdi-rotate-3d-variant" fill="#fff"/><path d="M13 4.07V1L8.45 5.55 13 10V6.09c2.84.48 5 2.94 5 5.91s-2.16 5.43-5 5.91v2.02c3.95-.49 7-3.85 7-7.93s-3.05-7.44-7-7.93M7.1 18.32c1.16.9 2.51 1.44 3.9 1.61V17.9c-.87-.15-1.71-.49-2.46-1.03L7.1 18.32M6.09 13H4.07c.17 1.39.72 2.73 1.62 3.89l1.41-1.42c-.52-.75-.87-1.59-1.01-2.47m1.02-4.47L5.7 7.11C4.8 8.27 4.24 9.61 4.07 11h2.02c.14-.87.49-1.72 1.02-2.47Z" transform="matrix(1.5 0 0 1.5 360 288)" id="mdi-rotate-left" fill="#555"/><path d="M13 4.07V1L8.45 5.55 13 10V6.09c2.84.48 5 2.94 5 5.91s-2.16 5.43-5 5.91v2.02c3.95-.49 7-3.85 7-7.93s-3.05-7.44-7-7.93M7.1 18.32c1.16.9 2.51 1.44 3.9 1.61V17.9c-.87-.15-1.71-.49-2.46-1.03L7.1 18.32M6.09 13H4.07c.17 1.39.72 2.73 1.62 3.89l1.41-1.42c-.52-.75-.87-1.59-1.01-2.47m1.02-4.47L5.7 7.11C4.8 8.27 4.24 9.61 4.07 11h2.02c.14-.87.49-1.72 1.02-2.47Z" transform="matrix(1.5 0 0 1.5 396 288)" id="mdi-rotate-left" fill="#fff"/><path d="M4 2h3a2 2 0 0 1 2 2v16a2 2 0 0 1-2 2H4a2 2 0 0 1-2-2V4a2 2 0 0 1 2-2m16 13a2 2 0 0 1 2 2v3a2 2 0 0 1-2 2h-9v-7h9M14 4a8 8 0 0 1 8 8l-.06 1h-2.02l.08-1a6 6 0 0 0-6-6v3l-4-4 4-4v3Z" transform="matrix(1.5 0 0 1.5 432 288)" id="mdi-rotate-left-variant" fill="#555"/><path d="M4 2h3a2 2 0 0 1 2 2v16a2 2 0 0 1-2 2H4a2 2 0 0 1-2-2V4a2 2 0 0 1 2-2m16 13a2 2 0 0 1 2 2v3a2 2 0 0 1-2 2h-9v-7h9M14 4a8 8 0 0 1 8 8l-.06 1h-2.02l.08-1a6 6 0 0 0-6-6v3l-4-4 4-4v3Z" transform="matrix(1.5 0 0 1.5 468 288)" id="mdi-rotate-left-variant" fill="#fff"/><path d="M8 14.25 4.75 11H7c.25-5.61 2.39-10 5-10 2 0 3.77 2.64 4.55 6.45C20.36 8.23 23 10 23 12c0 1.83-2.17 3.43-5.4 4.3l.29-2.03C19.8 13.72 21 12.91 21 12c0-1.06-1.65-2-4.13-2.5.08.79.13 1.63.13 2.5 0 6.08-2.24 11-5 11-1.83 0-3.43-2.17-4.3-5.4l2.03.29C10.28 19.8 11.09 21 12 21c1.66 0 3-4.03 3-9 0-1-.05-1.95-.15-2.85C13.95 9.05 13 9 12 9l-1.86.06.29-2.01L12 7c.87 0 1.71.05 2.5.13C14 4.65 13.06 3 12 3c-1.54 0-2.82 3.5-3 8h2.25L8 14.25M14.25 16 11 19.25V17c-5.61-.25-10-2.39-10-5 0-1.83 2.17-3.43 5.4-4.3l-.29 2.03C4.2 10.28 3 11.09 3 12c0 1.54 3.5 2.82 8 3v-2.25L14.25 16Z" transform="matrix(1.5 0 0 1.5 504 288)" id="mdi-rotate-orbit" fill="#555"/><path d="M8 14.25 4.75 11H7c.25-5.61 2.39-10 5-10 2 0 3.77 2.64 4.55 6.45C20.36 8.23 23 10 23 12c0 1.83-2.17 3.43-5.4 4.3l.29-2.03C19.8 13.72 21 12.91 21 12c0-1.06-1.65-2-4.13-2.5.08.79.13 1.63.13 2.5 0 6.08-2.24 11-5 11-1.83 0-3.43-2.17-4.3-5.4l2.03.29C10.28 19.8 11.09 21 12 21c1.66 0 3-4.03 3-9 0-1-.05-1.95-.15-2.85C13.95 9.05 13 9 12 9l-1.86.06.29-2.01L12 7c.87 0 1.71.05 2.5.13C14 4.65 13.06 3 12 3c-1.54 0-2.82 3.5-3 8h2.25L8 14.25M14.25 16 11 19.25V17c-5.61-.25-10-2.39-10-5 0-1.83 2.17-3.43 5.4-4.3l-.29 2.03C4.2 10.28 3 11.09 3 12c0 1.54 3.5 2.82 8 3v-2.25L14.25 16Z" transform="matrix(1.5 0 0 1.5 540 288)" id="mdi-rotate-orbit" fill="#fff"/><path d="m16.89 15.5 1.42 1.39c.9-1.16 1.45-2.5 1.62-3.89h-2.02c-.14.87-.48 1.72-1.02 2.5M13 17.9v2.02c1.39-.17 2.74-.71 3.9-1.61l-1.44-1.44c-.75.54-1.59.89-2.46 1.03m6.93-6.9a7.906 7.906 0 0 0-1.62-3.89l-1.42 1.42c.54.75.88 1.6 1.02 2.47m-2.36-5.45L11 1v3.07C7.06 4.56 4 7.92 4 12s3.05 7.44 7 7.93v-2.02c-2.84-.48-5-2.94-5-5.91s2.16-5.43 5-5.91V10l4.55-4.45Z" transform="matrix(1.5 0 0 1.5 576 288)" id="mdi-rotate-right" fill="#555"/><path d="m16.89 15.5 1.42 1.39c.9-1.16 1.45-2.5 1.62-3.89h-2.02c-.14.87-.48 1.72-1.02 2.5M13 17.9v2.02c1.39-.17 2.74-.71 3.9-1.61l-1.44-1.44c-.75.54-1.59.89-2.46 1.03m6.93-6.9a7.906 7.906 0 0 0-1.62-3.89l-1.42 1.42c.54.75.88 1.6 1.02 2.47m-2.36-5.45L11 1v3.07C7.06 4.56 4 7.92 4 12s3.05 7.44 7 7.93v-2.02c-2.84-.48-5-2.94-5-5.91s2.16-5.43 5-5.91V10l4.55-4.45Z" transform="matrix(1.5 0 0 1.5 612 288)" id="mdi-rotate-right" fill="#fff"/><path d="M10 4V1l4 4-4 4V6a6 6 0 0 0-6 6l.08 1H2.06L2 12a8 8 0 0 1 8-8m7-2h3a2 2 0 0 1 2 2v16a2 2 0 0 1-2 2h-3a2 2 0 0 1-2-2V4a2 2 0 0 1 2-2M4 15h9v7H4a2 2 0 0 1-2-2v-3a2 2 0 0 1 2-2Z" transform="matrix(1.5 0 0 1.5 648 288)" id="mdi-rotate-right-variant" fill="#555"/><path d="M10 4V1l4 4-4 4V6a6 6 0 0 0-6 6l.08 1H2.06L2 12a8 8 0 0 1 8-8m7-2h3a2 2 0 0 1 2 2v16a2 2 0 0 1-2 2h-3a2 2 0 0 1-2-2V4a2 2 0 0 1 2-2M4 15h9v7H4a2 2 0 0 1-2-2v-3a2 2 0 0 1 2-2Z" transform="matrix(1.5 0 0 1.5 684 288)" id="mdi-rotate-right-variant" fill="#fff"/><path d="M19 19h2v2h-2v-2m0-2h2v-2h-2v2M3 13h2v-2H3v2m0 4h2v-2H3v2m0-8h2V7H3v2m0-4h2V3H3v2m4 0h2V3H7v2m8 16h2v-2h-2v2m-4 0h2v-2h-2v2m4 0h2v-2h-2v2m-8 0h2v-2H7v2m-4 0h2v-2H3v2M21 8a5 5 0 0 0-5-5h-5v2h5a3 3 0 0 1 3 3v5h2V8Z" transform="matrix(1.5 0 0 1.5 0 324)" id="mdi-rounded-corner" fill="#555"/><path d="M19 19h2v2h-2v-2m0-2h2v-2h-2v2M3 13h2v-2H3v2m0 4h2v-2H3v2m0-8h2V7H3v2m0-4h2V3H3v2m4 0h2V3H7v2m8 16h2v-2h-2v2m-4 0h2v-2h-2v2m4 0h2v-2h-2v2m-8 0h2v-2H7v2m-4 0h2v-2H3v2M21 8a5 5 0 0 0-5-5h-5v2h5a3 3 0 0 1 3 3v5h2V8Z" transform="matrix(1.5 0 0 1.5 36 324)" id="mdi-rounded-corner" fill="#fff"/><path d="M12 2C6.5 2 2 6.5 2 12s4.5 10 10 10 10-4.5 10-10S17.5 2 12 2m0 18c-4.42 0-8-3.58-8-8s3.58-8 8-8 8 3.58 8 8-3.58 8-8 8m1-7v3h2l-3 3-3-3h2v-3m-6 0h3v2l3-3-3-3v2H5m6 0V8H9l3-3 3 3h-2v3m6 0h-3V9l-3 3 3 3v-2h3" transform="matrix(1.5 0 0 1.5 72 324)" id="mdi-router" fill="#555"/><path d="M12 2C6.5 2 2 6.5 2 12s4.5 10 10 10 10-4.5 10-10S17.5 2 12 2m0 18c-4.42 0-8-3.58-8-8s3.58-8 8-8 8 3.58 8 8-3.58 8-8 8m1-7v3h2l-3 3-3-3h2v-3m-6 0h3v2l3-3-3-3v2H5m6 0V8H9l3-3 3 3h-2v3m6 0h-3V9l-3 3 3 3v-2h3" transform="matrix(1.5 0 0 1.5 108 324)" id="mdi-router" fill="#fff"/><path d="M5 9c-1.1 0-2 .9-2 2v4a2 2 0 0 0 2 2h6v2h-1c-.55 0-1 .45-1 1H2v2h7c0 .55.45 1 1 1h4c.55 0 1-.45 1-1h7v-2h-7c0-.55-.45-1-1-1h-1v-2h6c1.11 0 2-.89 2-2v-4a2 2 0 0 0-2-2H5m1 3h2v2H6v-2m3.5 0h2v2h-2v-2m3.5 0h2v2h-2v-2Z" transform="matrix(1.5 0 0 1.5 144 324)" id="mdi-router-network" fill="#555"/><path d="M5 9c-1.1 0-2 .9-2 2v4a2 2 0 0 0 2 2h6v2h-1c-.55 0-1 .45-1 1H2v2h7c0 .55.45 1 1 1h4c.55 0 1-.45 1-1h7v-2h-7c0-.55-.45-1-1-1h-1v-2h6c1.11 0 2-.89 2-2v-4a2 2 0 0 0-2-2H5m1 3h2v2H6v-2m3.5 0h2v2h-2v-2m3.5 0h2v2h-2v-2Z" transform="matrix(1.5 0 0 1.5 180 324)" id="mdi-router-network" fill="#fff"/><path d="m20.2 5.9.8-.8C19.6 3.7 17.8 3 16 3c-1.8 0-3.6.7-5 2.1l.8.8C13 4.8 14.5 4.2 16 4.2s3 .6 4.2 1.7m-.9.8c-.9-.9-2.1-1.4-3.3-1.4-1.2 0-2.4.5-3.3 1.4l.8.8c.7-.7 1.6-1 2.5-1 .9 0 1.8.3 2.5 1l.8-.8M19 13h-2V9h-2v4H5a2 2 0 0 0-2 2v4a2 2 0 0 0 2 2h14a2 2 0 0 0 2-2v-4a2 2 0 0 0-2-2M8 18H6v-2h2v2m3.5 0h-2v-2h2v2m3.5 0h-2v-2h2v2Z" transform="matrix(1.5 0 0 1.5 216 324)" id="mdi-router-wireless" fill="#555"/><path d="m20.2 5.9.8-.8C19.6 3.7 17.8 3 16 3c-1.8 0-3.6.7-5 2.1l.8.8C13 4.8 14.5 4.2 16 4.2s3 .6 4.2 1.7m-.9.8c-.9-.9-2.1-1.4-3.3-1.4-1.2 0-2.4.5-3.3 1.4l.8.8c.7-.7 1.6-1 2.5-1 .9 0 1.8.3 2.5 1l.8-.8M19 13h-2V9h-2v4H5a2 2 0 0 0-2 2v4a2 2 0 0 0 2 2h14a2 2 0 0 0 2-2v-4a2 2 0 0 0-2-2M8 18H6v-2h2v2m3.5 0h-2v-2h2v2m3.5 0h-2v-2h2v2Z" transform="matrix(1.5 0 0 1.5 252 324)" id="mdi-router-wireless" fill="#fff"/><path d="m11.8 5.9-.8-.8C12.4 3.7 14.2 3 16 3s3.6.7 5 2.1l-.8.8C19 4.8 17.5 4.2 16 4.2s-3 .6-4.2 1.7M21 15c0-1.1-.9-2-2-2h-2V9h-2v2.8l6 6V15m-2.5-7.5.8-.8c-.9-.9-2.1-1.4-3.3-1.4s-2.4.5-3.3 1.4l.8.8c.7-.7 1.6-1 2.5-1 .9 0 1.8.3 2.5 1m3.6 14-1.3 1.3-1.7-1.8H5c-1.1 0-2-.9-2-2v-4c0-1.1.9-2 2-2h6.1L1.1 3l1.3-1.3 19.7 19.8M8 16H6v2h2v-2m3.5 0h-2v2h2v-2m3.5.9-.9-.9H13v2h2v-1.1Z" transform="matrix(1.5 0 0 1.5 288 324)" id="mdi-router-wireless-off" fill="#555"/><path d="m11.8 5.9-.8-.8C12.4 3.7 14.2 3 16 3s3.6.7 5 2.1l-.8.8C19 4.8 17.5 4.2 16 4.2s-3 .6-4.2 1.7M21 15c0-1.1-.9-2-2-2h-2V9h-2v2.8l6 6V15m-2.5-7.5.8-.8c-.9-.9-2.1-1.4-3.3-1.4s-2.4.5-3.3 1.4l.8.8c.7-.7 1.6-1 2.5-1 .9 0 1.8.3 2.5 1m3.6 14-1.3 1.3-1.7-1.8H5c-1.1 0-2-.9-2-2v-4c0-1.1.9-2 2-2h6.1L1.1 3l1.3-1.3 19.7 19.8M8 16H6v2h2v-2m3.5 0h-2v2h2v-2m3.5.9-.9-.9H13v2h2v-1.1Z" transform="matrix(1.5 0 0 1.5 324 324)" id="mdi-router-wireless-off" fill="#fff"/><path d="M20.2 4.9C19 3.8 17.5 3.2 16 3.2s-3 .6-4.2 1.7l-.8-.8C12.4 2.7 14.2 2 16 2c1.8 0 3.6.7 5 2.1l-.8.8m-.9.8-.8.8c-.7-.7-1.6-1-2.5-1-.9 0-1.8.3-2.5 1l-.8-.8c.9-.9 2.1-1.4 3.3-1.4 1.2 0 2.4.5 3.3 1.4M19 12a2 2 0 0 1 2 2v4a2 2 0 0 1-2 2H5a2 2 0 0 1-2-2v-4a2 2 0 0 1 2-2h10V8h2v4h2M8 17v-2H6v2h2m3.5 0v-2h-2v2h2m3.5 0v-2h-2v2h2m-8 5h2v2H7v-2m4 0h2v2h-2v-2m4 0h2v2h-2v-2Z" transform="matrix(1.5 0 0 1.5 360 324)" id="mdi-router-wireless-settings" fill="#555"/><path d="M20.2 4.9C19 3.8 17.5 3.2 16 3.2s-3 .6-4.2 1.7l-.8-.8C12.4 2.7 14.2 2 16 2c1.8 0 3.6.7 5 2.1l-.8.8m-.9.8-.8.8c-.7-.7-1.6-1-2.5-1-.9 0-1.8.3-2.5 1l-.8-.8c.9-.9 2.1-1.4 3.3-1.4 1.2 0 2.4.5 3.3 1.4M19 12a2 2 0 0 1 2 2v4a2 2 0 0 1-2 2H5a2 2 0 0 1-2-2v-4a2 2 0 0 1 2-2h10V8h2v4h2M8 17v-2H6v2h2m3.5 0v-2h-2v2h2m3.5 0v-2h-2v2h2m-8 5h2v2H7v-2m4 0h2v2h-2v-2m4 0h2v2h-2v-2Z" transform="matrix(1.5 0 0 1.5 396 324)" id="mdi-router-wireless-settings" fill="#fff"/><path d="M11 10H5L3 8l2-2h6V3l1-1 1 1v1h6l2 2-2 2h-6v2h6l2 2-2 2h-6v6a2 2 0 0 1 2 2H9a2 2 0 0 1 2-2V10Z" transform="matrix(1.5 0 0 1.5 432 324)" id="mdi-routes" fill="#555"/><path d="M11 10H5L3 8l2-2h6V3l1-1 1 1v1h6l2 2-2 2h-6v2h6l2 2-2 2h-6v6a2 2 0 0 1 2 2H9a2 2 0 0 1 2-2V10Z" transform="matrix(1.5 0 0 1.5 468 324)" id="mdi-routes" fill="#fff"/><path d="M16.5 13H15v3.69l3.19 1.84.75-1.3-2.44-1.41V13M16 9c-1.96 0-3.73.82-5 2.12V7h6l2-2-2-2h-6V2l-1-1-1 1v4H3L1 8l2 2h6v10c-1.1 0-2 .9-2 2h5.41c1.05.63 2.28 1 3.59 1 3.87 0 7-3.13 7-7s-3.13-7-7-7m0 11.85c-2.68 0-4.85-2.17-4.85-4.85s2.17-4.85 4.85-4.85 4.85 2.17 4.85 4.85-2.17 4.85-4.85 4.85Z" transform="matrix(1.5 0 0 1.5 504 324)" id="mdi-routes-clock" fill="#555"/><path d="M16.5 13H15v3.69l3.19 1.84.75-1.3-2.44-1.41V13M16 9c-1.96 0-3.73.82-5 2.12V7h6l2-2-2-2h-6V2l-1-1-1 1v4H3L1 8l2 2h6v10c-1.1 0-2 .9-2 2h5.41c1.05.63 2.28 1 3.59 1 3.87 0 7-3.13 7-7s-3.13-7-7-7m0 11.85c-2.68 0-4.85-2.17-4.85-4.85s2.17-4.85 4.85-4.85 4.85 2.17 4.85 4.85-2.17 4.85-4.85 4.85Z" transform="matrix(1.5 0 0 1.5 540 324)" id="mdi-routes-clock" fill="#fff"/><path d="M8.5 14.5 4 19l1.5 1.5L9 17h2l-2.5-2.5M15 1a2 2 0 0 0-2 2 2 2 0 0 0 2 2 2 2 0 0 0 2-2 2 2 0 0 0-2-2m6 20-3 3-3-3v-1.5l-7.09-7.09c-.31.05-.61.09-.91.09v-2.18c1.66.03 3.61-.87 4.67-2.04l1.4-1.55c.19-.23.43-.38.69-.5.29-.14.62-.23.96-.23h.03C16 6 17 7 17 8.26V14c0 .85-.35 1.62-.92 2.17l-3.58-3.58v-2.27c-.63.52-1.43 1.02-2.29 1.39L16.5 18H18l3 3Z" transform="matrix(1.5 0 0 1.5 576 324)" id="mdi-rowing" fill="#555"/><path d="M8.5 14.5 4 19l1.5 1.5L9 17h2l-2.5-2.5M15 1a2 2 0 0 0-2 2 2 2 0 0 0 2 2 2 2 0 0 0 2-2 2 2 0 0 0-2-2m6 20-3 3-3-3v-1.5l-7.09-7.09c-.31.05-.61.09-.91.09v-2.18c1.66.03 3.61-.87 4.67-2.04l1.4-1.55c.19-.23.43-.38.69-.5.29-.14.62-.23.96-.23h.03C16 6 17 7 17 8.26V14c0 .85-.35 1.62-.92 2.17l-3.58-3.58v-2.27c-.63.52-1.43 1.02-2.29 1.39L16.5 18H18l3 3Z" transform="matrix(1.5 0 0 1.5 612 324)" id="mdi-rowing" fill="#fff"/><path d="M6.18 15.64a2.18 2.18 0 0 1 2.18 2.18C8.36 19 7.38 20 6.18 20 5 20 4 19 4 17.82a2.18 2.18 0 0 1 2.18-2.18M4 4.44A15.56 15.56 0 0 1 19.56 20h-2.83A12.73 12.73 0 0 0 4 7.27V4.44m0 5.66a9.9 9.9 0 0 1 9.9 9.9h-2.83A7.07 7.07 0 0 0 4 12.93V10.1Z" transform="matrix(1.5 0 0 1.5 648 324)" id="mdi-rss" fill="#555"/><path d="M6.18 15.64a2.18 2.18 0 0 1 2.18 2.18C8.36 19 7.38 20 6.18 20 5 20 4 19 4 17.82a2.18 2.18 0 0 1 2.18-2.18M4 4.44A15.56 15.56 0 0 1 19.56 20h-2.83A12.73 12.73 0 0 0 4 7.27V4.44m0 5.66a9.9 9.9 0 0 1 9.9 9.9h-2.83A7.07 7.07 0 0 0 4 12.93V10.1Z" transform="matrix(1.5 0 0 1.5 684 324)" id="mdi-rss" fill="#fff"/></svg>