<svg xmlns="http://www.w3.org/2000/svg" width="720" height="900"><path d="M16 15H9v-2h7m3-2H9V9h10m0-2H9V5h10m2-4H7c-1.11 0-2 .89-2 2v14a2 2 0 0 0 2 2h14c1.11 0 2-.89 2-2V3a2 2 0 0 0-2-2M3 5v16h16v2H3a2 2 0 0 1-2-2V5h2Z" transform="scale(1.5)" id="mdi-text-box-multiple" fill="#555"/><path d="M16 15H9v-2h7m3-2H9V9h10m0-2H9V5h10m2-4H7c-1.11 0-2 .89-2 2v14a2 2 0 0 0 2 2h14c1.11 0 2-.89 2-2V3a2 2 0 0 0-2-2M3 5v16h16v2H3a2 2 0 0 1-2-2V5h2Z" transform="translate(36) scale(1.5)" id="mdi-text-box-multiple" fill="#fff"/><path d="M16 15H9v-2h7v2m3-4H9V9h10v2m0-4H9V5h10v2M3 5v16h16v2H3a2 2 0 0 1-2-2V5h2m18-4a2 2 0 0 1 2 2v14c0 1.11-.89 2-2 2H7a2 2 0 0 1-2-2V3c0-1.11.89-2 2-2h14M7 3v14h14V3H7Z" transform="translate(72) scale(1.5)" id="mdi-text-box-multiple-outline" fill="#555"/><path d="M16 15H9v-2h7v2m3-4H9V9h10v2m0-4H9V5h10v2M3 5v16h16v2H3a2 2 0 0 1-2-2V5h2m18-4a2 2 0 0 1 2 2v14c0 1.11-.89 2-2 2H7a2 2 0 0 1-2-2V3c0-1.11.89-2 2-2h14M7 3v14h14V3H7Z" transform="translate(108) scale(1.5)" id="mdi-text-box-multiple-outline" fill="#fff"/><path d="M5 3c-1.11 0-2 .89-2 2v14c0 1.11.89 2 2 2h14c1.11 0 2-.89 2-2V5c0-1.11-.89-2-2-2H5m0 2h14v14H5V5m2 2v2h10V7H7m0 4v2h10v-2H7m0 4v2h7v-2H7Z" transform="translate(144) scale(1.5)" id="mdi-text-box-outline" fill="#555"/><path d="M5 3c-1.11 0-2 .89-2 2v14c0 1.11.89 2 2 2h14c1.11 0 2-.89 2-2V5c0-1.11-.89-2-2-2H5m0 2h14v14H5V5m2 2v2h10V7H7m0 4v2h10v-2H7m0 4v2h7v-2H7Z" transform="translate(180) scale(1.5)" id="mdi-text-box-outline" fill="#fff"/><path d="M17 14h2v3h3v2h-3v3h-2v-3h-3v-2h3v-3m-5 3v-2H7v2h5m5-6H7v2h7.69A5.983 5.983 0 0 0 12 18c0 1.09.29 2.12.8 3H5a2 2 0 0 1-2-2V5c0-1.11.89-2 2-2h14a2 2 0 0 1 2 2v7.8c-.88-.51-1.91-.8-3-.8l-1 .08V11m0-2V7H7v2h10Z" transform="translate(216) scale(1.5)" id="mdi-text-box-plus" fill="#555"/><path d="M17 14h2v3h3v2h-3v3h-2v-3h-3v-2h3v-3m-5 3v-2H7v2h5m5-6H7v2h7.69A5.983 5.983 0 0 0 12 18c0 1.09.29 2.12.8 3H5a2 2 0 0 1-2-2V5c0-1.11.89-2 2-2h14a2 2 0 0 1 2 2v7.8c-.88-.51-1.91-.8-3-.8l-1 .08V11m0-2V7H7v2h10Z" transform="translate(252) scale(1.5)" id="mdi-text-box-plus" fill="#fff"/><path d="M17 14h2v3h3v2h-3v3h-2v-3h-3v-2h3v-3M5 3h14c1.11 0 2 .89 2 2v7.8c-.61-.35-1.28-.6-2-.72V5H5v14h7.08c.12.72.37 1.39.72 2H5c-1.11 0-2-.89-2-2V5c0-1.11.89-2 2-2m2 4h10v2H7V7m0 4h10v1.08c-.85.14-1.63.46-2.32.92H7v-2m0 4h5v2H7v-2Z" transform="translate(288) scale(1.5)" id="mdi-text-box-plus-outline" fill="#555"/><path d="M17 14h2v3h3v2h-3v3h-2v-3h-3v-2h3v-3M5 3h14c1.11 0 2 .89 2 2v7.8c-.61-.35-1.28-.6-2-.72V5H5v14h7.08c.12.72.37 1.39.72 2H5c-1.11 0-2-.89-2-2V5c0-1.11.89-2 2-2m2 4h10v2H7V7m0 4h10v1.08c-.85.14-1.63.46-2.32.92H7v-2m0 4h5v2H7v-2Z" transform="translate(324) scale(1.5)" id="mdi-text-box-plus-outline" fill="#fff"/><path d="m14.46 15.88 1.42-1.42L18 16.59l2.12-2.13 1.42 1.42L19.41 18l2.13 2.12-1.42 1.42L18 19.41l-2.12 2.13-1.42-1.42L16.59 18l-2.13-2.12M12 17v-2H7v2h5m5-6H7v2h7.69A5.983 5.983 0 0 0 12 18c0 1.09.29 2.12.8 3H5a2 2 0 0 1-2-2V5c0-1.11.89-2 2-2h14a2 2 0 0 1 2 2v7.8c-.88-.51-1.91-.8-3-.8l-1 .08V11m0-2V7H7v2h10Z" transform="translate(360) scale(1.5)" id="mdi-text-box-remove" fill="#555"/><path d="m14.46 15.88 1.42-1.42L18 16.59l2.12-2.13 1.42 1.42L19.41 18l2.13 2.12-1.42 1.42L18 19.41l-2.12 2.13-1.42-1.42L16.59 18l-2.13-2.12M12 17v-2H7v2h5m5-6H7v2h7.69A5.983 5.983 0 0 0 12 18c0 1.09.29 2.12.8 3H5a2 2 0 0 1-2-2V5c0-1.11.89-2 2-2h14a2 2 0 0 1 2 2v7.8c-.88-.51-1.91-.8-3-.8l-1 .08V11m0-2V7H7v2h10Z" transform="translate(396) scale(1.5)" id="mdi-text-box-remove" fill="#fff"/><path d="m14.46 15.88 1.42-1.42L18 16.59l2.12-2.13 1.42 1.42L19.41 18l2.13 2.12-1.42 1.42L18 19.41l-2.12 2.13-1.42-1.42L16.59 18l-2.13-2.12M5 3h14c1.11 0 2 .89 2 2v7.8c-.61-.35-1.28-.6-2-.72V5H5v14h7.08c.12.72.37 1.39.72 2H5c-1.11 0-2-.89-2-2V5c0-1.11.89-2 2-2m2 4h10v2H7V7m0 4h10v1.08c-.85.14-1.63.46-2.32.92H7v-2m0 4h5v2H7v-2Z" transform="translate(432) scale(1.5)" id="mdi-text-box-remove-outline" fill="#555"/><path d="m14.46 15.88 1.42-1.42L18 16.59l2.12-2.13 1.42 1.42L19.41 18l2.13 2.12-1.42 1.42L18 19.41l-2.12 2.13-1.42-1.42L16.59 18l-2.13-2.12M5 3h14c1.11 0 2 .89 2 2v7.8c-.61-.35-1.28-.6-2-.72V5H5v14h7.08c.12.72.37 1.39.72 2H5c-1.11 0-2-.89-2-2V5c0-1.11.89-2 2-2m2 4h10v2H7V7m0 4h10v1.08c-.85.14-1.63.46-2.32.92H7v-2m0 4h5v2H7v-2Z" transform="translate(468) scale(1.5)" id="mdi-text-box-remove-outline" fill="#fff"/><path d="M15.5 12c2.5 0 4.5 2 4.5 4.5 0 .88-.25 1.71-.69 2.4l3.08 3.1L21 23.39l-3.12-3.07c-.69.43-1.51.68-2.38.68-2.5 0-4.5-2-4.5-4.5s2-4.5 4.5-4.5m0 2a2.5 2.5 0 0 0-2.5 2.5 2.5 2.5 0 0 0 2.5 2.5 2.5 2.5 0 0 0 2.5-2.5 2.5 2.5 0 0 0-2.5-2.5M7 15v2h2c.14 1.55.8 2.94 1.81 4H5a2 2 0 0 1-2-2V5c0-1.11.89-2 2-2h14a2 2 0 0 1 2 2v8.03A6.492 6.492 0 0 0 15.5 10c-1.27 0-2.46.37-3.46 1H7v2h3c-.36.6-.66 1.28-.83 2H7m10-6V7H7v2h10Z" transform="translate(504) scale(1.5)" id="mdi-text-box-search" fill="#555"/><path d="M15.5 12c2.5 0 4.5 2 4.5 4.5 0 .88-.25 1.71-.69 2.4l3.08 3.1L21 23.39l-3.12-3.07c-.69.43-1.51.68-2.38.68-2.5 0-4.5-2-4.5-4.5s2-4.5 4.5-4.5m0 2a2.5 2.5 0 0 0-2.5 2.5 2.5 2.5 0 0 0 2.5 2.5 2.5 2.5 0 0 0 2.5-2.5 2.5 2.5 0 0 0-2.5-2.5M7 15v2h2c.14 1.55.8 2.94 1.81 4H5a2 2 0 0 1-2-2V5c0-1.11.89-2 2-2h14a2 2 0 0 1 2 2v8.03A6.492 6.492 0 0 0 15.5 10c-1.27 0-2.46.37-3.46 1H7v2h3c-.36.6-.66 1.28-.83 2H7m10-6V7H7v2h10Z" transform="translate(540) scale(1.5)" id="mdi-text-box-search" fill="#fff"/><path d="M15.5 12c2.5 0 4.5 2 4.5 4.5 0 .88-.25 1.71-.69 2.4l3.08 3.1L21 23.39l-3.12-3.07c-.69.43-1.51.68-2.38.68-2.5 0-4.5-2-4.5-4.5s2-4.5 4.5-4.5m0 2a2.5 2.5 0 0 0-2.5 2.5 2.5 2.5 0 0 0 2.5 2.5 2.5 2.5 0 0 0 2.5-2.5 2.5 2.5 0 0 0-2.5-2.5M5 3h14c1.11 0 2 .89 2 2v8.03c-.5-.8-1.19-1.49-2-2.03V5H5v14h4.5c.31.75.76 1.42 1.31 2H5c-1.11 0-2-.89-2-2V5c0-1.11.89-2 2-2m2 4h10v2H7V7m0 4h5.03c-.8.5-1.49 1.19-2.03 2H7v-2m0 4h2.17c-.11.5-.17 1-.17 1.5v.5H7v-2Z" transform="translate(576) scale(1.5)" id="mdi-text-box-search-outline" fill="#555"/><path d="M15.5 12c2.5 0 4.5 2 4.5 4.5 0 .88-.25 1.71-.69 2.4l3.08 3.1L21 23.39l-3.12-3.07c-.69.43-1.51.68-2.38.68-2.5 0-4.5-2-4.5-4.5s2-4.5 4.5-4.5m0 2a2.5 2.5 0 0 0-2.5 2.5 2.5 2.5 0 0 0 2.5 2.5 2.5 2.5 0 0 0 2.5-2.5 2.5 2.5 0 0 0-2.5-2.5M5 3h14c1.11 0 2 .89 2 2v8.03c-.5-.8-1.19-1.49-2-2.03V5H5v14h4.5c.31.75.76 1.42 1.31 2H5c-1.11 0-2-.89-2-2V5c0-1.11.89-2 2-2m2 4h10v2H7V7m0 4h5.03c-.8.5-1.49 1.19-2.03 2H7v-2m0 4h2.17c-.11.5-.17 1-.17 1.5v.5H7v-2Z" transform="translate(612) scale(1.5)" id="mdi-text-box-search-outline" fill="#fff"/><path d="M4 5h16v2H4V5m0 4h16v2H4V9m0 4h16v2H4v-2m0 4h10v2H4v-2Z" transform="translate(648) scale(1.5)" id="mdi-text-long" fill="#555"/><path d="M4 5h16v2H4V5m0 4h16v2H4V9m0 4h16v2H4v-2m0 4h10v2H4v-2Z" transform="translate(684) scale(1.5)" id="mdi-text-long" fill="#fff"/><path d="M2 4c0-1.1.9-2 2-2h4v2H4v4H2V4m20 16c0 1.11-.89 2-2 2h-4v-2h4v-4h2v4M4 22a2 2 0 0 1-2-2v-4h2v4h4v2H4M20 2a2 2 0 0 1 2 2v4h-2V4h-4V2h4M9 7v2h2v8h2V9h2V7H9Z" transform="matrix(1.5 0 0 1.5 0 36)" id="mdi-text-recognition" fill="#555"/><path d="M2 4c0-1.1.9-2 2-2h4v2H4v4H2V4m20 16c0 1.11-.89 2-2 2h-4v-2h4v-4h2v4M4 22a2 2 0 0 1-2-2v-4h2v4h4v2H4M20 2a2 2 0 0 1 2 2v4h-2V4h-4V2h4M9 7v2h2v8h2V9h2V7H9Z" transform="matrix(1.5 0 0 1.5 36 36)" id="mdi-text-recognition" fill="#fff"/><path d="m19.31 18.9 3.08 3.1L21 23.39l-3.12-3.07c-.69.43-1.51.68-2.38.68-2.5 0-4.5-2-4.5-4.5s2-4.5 4.5-4.5 4.5 2 4.5 4.5c0 .88-.25 1.71-.69 2.4m-3.81.1a2.5 2.5 0 0 0 0-5 2.5 2.5 0 0 0 0 5M21 4v2H3V4h18M3 16v-2h6v2H3m0-5V9h18v2h-2.03c-1.01-.63-2.2-1-3.47-1s-2.46.37-3.47 1H3Z" transform="matrix(1.5 0 0 1.5 72 36)" id="mdi-text-search" fill="#555"/><path d="m19.31 18.9 3.08 3.1L21 23.39l-3.12-3.07c-.69.43-1.51.68-2.38.68-2.5 0-4.5-2-4.5-4.5s2-4.5 4.5-4.5 4.5 2 4.5 4.5c0 .88-.25 1.71-.69 2.4m-3.81.1a2.5 2.5 0 0 0 0-5 2.5 2.5 0 0 0 0 5M21 4v2H3V4h18M3 16v-2h6v2H3m0-5V9h18v2h-2.03c-1.01-.63-2.2-1-3.47-1s-2.46.37-3.47 1H3Z" transform="matrix(1.5 0 0 1.5 108 36)" id="mdi-text-search" fill="#fff"/><path d="M9 6v2H2V6h7m0 5v2H2v-2h7m9 5v2H2v-2h16m1.31-4.5c.44-.68.69-1.5.69-2.39 0-2.5-2-4.5-4.5-4.5s-4.5 2-4.5 4.5 2 4.5 4.5 4.5c.87 0 1.69-.25 2.38-.68L21 16l1.39-1.39-3.08-3.11m-3.81.11c-1.38 0-2.5-1.11-2.5-2.5s1.12-2.5 2.5-2.5a2.5 2.5 0 0 1 0 5Z" transform="matrix(1.5 0 0 1.5 144 36)" id="mdi-text-search-variant" fill="#555"/><path d="M9 6v2H2V6h7m0 5v2H2v-2h7m9 5v2H2v-2h16m1.31-4.5c.44-.68.69-1.5.69-2.39 0-2.5-2-4.5-4.5-4.5s-4.5 2-4.5 4.5 2 4.5 4.5 4.5c.87 0 1.69-.25 2.38-.68L21 16l1.39-1.39-3.08-3.11m-3.81.11c-1.38 0-2.5-1.11-2.5-2.5s1.12-2.5 2.5-2.5a2.5 2.5 0 0 1 0 5Z" transform="matrix(1.5 0 0 1.5 180 36)" id="mdi-text-search-variant" fill="#fff"/><path d="M3 3h13v3h-5v12H8V6H3V3m9 4h2v2h-2V7m3 0h2v2h-2V7m3 0h2v2h-2V7m-6 3h2v2h-2v-2m0 3h2v2h-2v-2m0 3h2v2h-2v-2m0 3h2v2h-2v-2Z" transform="matrix(1.5 0 0 1.5 216 36)" id="mdi-text-shadow" fill="#555"/><path d="M3 3h13v3h-5v12H8V6H3V3m9 4h2v2h-2V7m3 0h2v2h-2V7m3 0h2v2h-2V7m-6 3h2v2h-2v-2m0 3h2v2h-2v-2m0 3h2v2h-2v-2m0 3h2v2h-2v-2Z" transform="matrix(1.5 0 0 1.5 252 36)" id="mdi-text-shadow" fill="#fff"/><path d="M4 9h16v2H4V9m0 4h10v2H4v-2Z" transform="matrix(1.5 0 0 1.5 288 36)" id="mdi-text-short" fill="#555"/><path d="M4 9h16v2H4V9m0 4h10v2H4v-2Z" transform="matrix(1.5 0 0 1.5 324 36)" id="mdi-text-short" fill="#fff"/><path d="M8 7a2 2 0 0 1 2 2v5a2 2 0 0 1-2 2 2 2 0 0 1-2-2V9a2 2 0 0 1 2-2m6 7c0 2.97-2.16 5.44-5 5.92V22H7v-2.08c-2.84-.48-5-2.95-5-5.92h2a4 4 0 0 0 4 4 4 4 0 0 0 4-4h2m7.41-4.59-4.24 4.25L18.18 10H14a2 2 0 0 1-2-2V4a2 2 0 0 1 2-2h6a2 2 0 0 1 2 2v4c0 .55-.22 1.05-.59 1.41Z" transform="matrix(1.5 0 0 1.5 360 36)" id="mdi-text-to-speech" fill="#555"/><path d="M8 7a2 2 0 0 1 2 2v5a2 2 0 0 1-2 2 2 2 0 0 1-2-2V9a2 2 0 0 1 2-2m6 7c0 2.97-2.16 5.44-5 5.92V22H7v-2.08c-2.84-.48-5-2.95-5-5.92h2a4 4 0 0 0 4 4 4 4 0 0 0 4-4h2m7.41-4.59-4.24 4.25L18.18 10H14a2 2 0 0 1-2-2V4a2 2 0 0 1 2-2h6a2 2 0 0 1 2 2v4c0 .55-.22 1.05-.59 1.41Z" transform="matrix(1.5 0 0 1.5 396 36)" id="mdi-text-to-speech" fill="#fff"/><path d="M2 5.27 3.28 4 20 20.72 18.73 22l-5.35-5.35A6 6 0 0 1 9 19.92V22H7v-2.08c-2.84-.48-5-2.95-5-5.92h2a4 4 0 0 0 4 4c1.82 0 3.36-1.22 3.84-2.89L10 13.27V14a2 2 0 0 1-2 2 2 2 0 0 1-2-2V9.27l-4-4m19.41 4.14-4.24 4.25L18.18 10H14a2 2 0 0 1-2-2V4a2 2 0 0 1 2-2h6a2 2 0 0 1 2 2v4c0 .55-.22 1.05-.59 1.41Z" transform="matrix(1.5 0 0 1.5 432 36)" id="mdi-text-to-speech-off" fill="#555"/><path d="M2 5.27 3.28 4 20 20.72 18.73 22l-5.35-5.35A6 6 0 0 1 9 19.92V22H7v-2.08c-2.84-.48-5-2.95-5-5.92h2a4 4 0 0 0 4 4c1.82 0 3.36-1.22 3.84-2.89L10 13.27V14a2 2 0 0 1-2 2 2 2 0 0 1-2-2V9.27l-4-4m19.41 4.14-4.24 4.25L18.18 10H14a2 2 0 0 1-2-2V4a2 2 0 0 1 2-2h6a2 2 0 0 1 2 2v4c0 .55-.22 1.05-.59 1.41Z" transform="matrix(1.5 0 0 1.5 468 36)" id="mdi-text-to-speech-off" fill="#fff"/><path d="M9.29 21h2.83L21 12.12V9.29M19 21c.55 0 1.05-.22 1.41-.59.37-.36.59-.86.59-1.41v-2l-4 4M5 3a2 2 0 0 0-2 2v2l4-4m4.88 0L3 11.88v2.83L14.71 3m4.79.08L3.08 19.5c.09.35.27.66.51.91.25.24.56.42.91.51L20.93 4.5c-.19-.7-.73-1.24-1.43-1.42Z" transform="matrix(1.5 0 0 1.5 504 36)" id="mdi-texture" fill="#555"/><path d="M9.29 21h2.83L21 12.12V9.29M19 21c.55 0 1.05-.22 1.41-.59.37-.36.59-.86.59-1.41v-2l-4 4M5 3a2 2 0 0 0-2 2v2l4-4m4.88 0L3 11.88v2.83L14.71 3m4.79.08L3.08 19.5c.09.35.27.66.51.91.25.24.56.42.91.51L20.93 4.5c-.19-.7-.73-1.24-1.43-1.42Z" transform="matrix(1.5 0 0 1.5 540 36)" id="mdi-texture" fill="#fff"/><path d="M20 2H4c-1.1 0-2 .9-2 2v16a2 2 0 0 0 2 2h16c1.11 0 2-.89 2-2V4a2 2 0 0 0-2-2M4 6l2-2h4.9L4 10.9V6m0 7.7L13.7 4h4.9L4 18.6v-4.9M20 18l-2 2h-4.9l6.9-6.9V18m0-7.7L10.3 20H5.4L20 5.4v4.9Z" transform="matrix(1.5 0 0 1.5 576 36)" id="mdi-texture-box" fill="#555"/><path d="M20 2H4c-1.1 0-2 .9-2 2v16a2 2 0 0 0 2 2h16c1.11 0 2-.89 2-2V4a2 2 0 0 0-2-2M4 6l2-2h4.9L4 10.9V6m0 7.7L13.7 4h4.9L4 18.6v-4.9M20 18l-2 2h-4.9l6.9-6.9V18m0-7.7L10.3 20H5.4L20 5.4v4.9Z" transform="matrix(1.5 0 0 1.5 612 36)" id="mdi-texture-box" fill="#fff"/><path d="M4 15h2a2 2 0 0 1 2 2v2h1v-2a2 2 0 0 1 2-2h2a2 2 0 0 1 2 2v2h1v-2a2 2 0 0 1 2-2h2a2 2 0 0 1 2 2v2h1v3H1v-3h1v-2a2 2 0 0 1 2-2m7-8 4 3-4 3V7M4 2h16a2 2 0 0 1 2 2v9.54a3.89 3.89 0 0 0-2-.54V4H4v9c-.73 0-1.41.19-2 .54V4a2 2 0 0 1 2-2Z" transform="matrix(1.5 0 0 1.5 648 36)" id="mdi-theater" fill="#555"/><path d="M4 15h2a2 2 0 0 1 2 2v2h1v-2a2 2 0 0 1 2-2h2a2 2 0 0 1 2 2v2h1v-2a2 2 0 0 1 2-2h2a2 2 0 0 1 2 2v2h1v3H1v-3h1v-2a2 2 0 0 1 2-2m7-8 4 3-4 3V7M4 2h16a2 2 0 0 1 2 2v9.54a3.89 3.89 0 0 0-2-.54V4H4v9c-.73 0-1.41.19-2 .54V4a2 2 0 0 1 2-2Z" transform="matrix(1.5 0 0 1.5 684 36)" id="mdi-theater" fill="#fff"/><path d="M7.5 2c-1.79 1.15-3 3.18-3 5.5s1.21 4.35 3.03 5.5C4.46 13 2 10.54 2 7.5A5.5 5.5 0 0 1 7.5 2m11.57 1.5 1.43 1.43L4.93 20.5 3.5 19.07 19.07 3.5m-6.18 2.43L11.41 5 9.97 6l.42-1.7L9 3.24l1.75-.12.58-1.65L12 3.1l1.73.03-1.35 1.13.51 1.67m-3.3 3.61-1.16-.73-1.12.78.34-1.32-1.09-.83 1.36-.09.45-1.29.51 1.27 1.36.03-1.05.87.4 1.31M19 13.5a5.5 5.5 0 0 1-5.5 5.5c-1.22 0-2.35-.4-3.26-1.07l7.69-7.69c.67.91 1.07 2.04 1.07 3.26m-4.4 6.58 2.77-1.15-.24 3.35-2.53-2.2m4.33-2.7 1.15-2.77 2.2 2.54-3.35.23m1.15-4.96-1.14-2.78 3.34.24-2.2 2.54M9.63 18.93l2.77 1.15-2.53 2.19-.24-3.34Z" transform="matrix(1.5 0 0 1.5 0 72)" id="mdi-theme-light-dark" fill="#555"/><path d="M7.5 2c-1.79 1.15-3 3.18-3 5.5s1.21 4.35 3.03 5.5C4.46 13 2 10.54 2 7.5A5.5 5.5 0 0 1 7.5 2m11.57 1.5 1.43 1.43L4.93 20.5 3.5 19.07 19.07 3.5m-6.18 2.43L11.41 5 9.97 6l.42-1.7L9 3.24l1.75-.12.58-1.65L12 3.1l1.73.03-1.35 1.13.51 1.67m-3.3 3.61-1.16-.73-1.12.78.34-1.32-1.09-.83 1.36-.09.45-1.29.51 1.27 1.36.03-1.05.87.4 1.31M19 13.5a5.5 5.5 0 0 1-5.5 5.5c-1.22 0-2.35-.4-3.26-1.07l7.69-7.69c.67.91 1.07 2.04 1.07 3.26m-4.4 6.58 2.77-1.15-.24 3.35-2.53-2.2m4.33-2.7 1.15-2.77 2.2 2.54-3.35.23m1.15-4.96-1.14-2.78 3.34.24-2.2 2.54M9.63 18.93l2.77 1.15-2.53 2.19-.24-3.34Z" transform="matrix(1.5 0 0 1.5 36 72)" id="mdi-theme-light-dark" fill="#fff"/><path d="M15 13V5a3 3 0 0 0-6 0v8a5 5 0 1 0 6 0m-3-9a1 1 0 0 1 1 1v3h-2V5a1 1 0 0 1 1-1Z" transform="matrix(1.5 0 0 1.5 72 72)" id="mdi-thermometer" fill="#555"/><path d="M15 13V5a3 3 0 0 0-6 0v8a5 5 0 1 0 6 0m-3-9a1 1 0 0 1 1 1v3h-2V5a1 1 0 0 1 1-1Z" transform="matrix(1.5 0 0 1.5 108 72)" id="mdi-thermometer" fill="#fff"/><path d="M17 13V7h2v6h-2m0 4v-2h2v2h-2m-4-4V5c0-1.7-1.3-3-3-3S7 3.3 7 5v8c-2.2 1.7-2.7 4.8-1 7s4.8 2.7 7 1 2.7-4.8 1-7c-.3-.4-.6-.7-1-1m-3-9c.6 0 1 .4 1 1v3H9V5c0-.6.4-1 1-1Z" transform="matrix(1.5 0 0 1.5 144 72)" id="mdi-thermometer-alert" fill="#555"/><path d="M17 13V7h2v6h-2m0 4v-2h2v2h-2m-4-4V5c0-1.7-1.3-3-3-3S7 3.3 7 5v8c-2.2 1.7-2.7 4.8-1 7s4.8 2.7 7 1 2.7-4.8 1-7c-.3-.4-.6-.7-1-1m-3-9c.6 0 1 .4 1 1v3H9V5c0-.6.4-1 1-1Z" transform="matrix(1.5 0 0 1.5 180 72)" id="mdi-thermometer-alert" fill="#fff"/><path d="M11 13V5c0-1.66-1.34-3-3-3S5 3.34 5 5v8c-2.21 1.66-2.66 4.79-1 7s4.79 2.66 7 1 2.66-4.79 1-7a4.74 4.74 0 0 0-1-1M8 4c.55 0 1 .45 1 1v3H7V5c0-.55.45-1 1-1m10 4v3.79L15.71 9.5l-.71.71L17.79 13 15 15.79l.71.71L18 14.21V18h.5l2.85-2.86L19.21 13l2.14-2.15L18.5 8H18m1 1.91.94.94-.94.94V9.91m0 4.3.94.93-.94.94v-1.87Z" transform="matrix(1.5 0 0 1.5 216 72)" id="mdi-thermometer-bluetooth" fill="#555"/><path d="M11 13V5c0-1.66-1.34-3-3-3S5 3.34 5 5v8c-2.21 1.66-2.66 4.79-1 7s4.79 2.66 7 1 2.66-4.79 1-7a4.74 4.74 0 0 0-1-1M8 4c.55 0 1 .45 1 1v3H7V5c0-.55.45-1 1-1m10 4v3.79L15.71 9.5l-.71.71L17.79 13 15 15.79l.71.71L18 14.21V18h.5l2.85-2.86L19.21 13l2.14-2.15L18.5 8H18m1 1.91.94.94-.94.94V9.91m0 4.3.94.93-.94.94v-1.87Z" transform="matrix(1.5 0 0 1.5 252 72)" id="mdi-thermometer-bluetooth" fill="#fff"/><path d="M10 13V5c0-1.66-1.34-3-3-3S4 3.34 4 5v8c-2.21 1.66-2.66 4.79-1 7s4.79 2.66 7 1 2.66-4.79 1-7a4.74 4.74 0 0 0-1-1M7 4c.55 0 1 .45 1 1v3H6V5c0-.55.45-1 1-1m9.25 11.16-2.75-3L14.66 11l1.59 1.59L19.84 9 21 10.41l-4.75 4.75" transform="matrix(1.5 0 0 1.5 288 72)" id="mdi-thermometer-check" fill="#555"/><path d="M10 13V5c0-1.66-1.34-3-3-3S4 3.34 4 5v8c-2.21 1.66-2.66 4.79-1 7s4.79 2.66 7 1 2.66-4.79 1-7a4.74 4.74 0 0 0-1-1M7 4c.55 0 1 .45 1 1v3H6V5c0-.55.45-1 1-1m9.25 11.16-2.75-3L14.66 11l1.59 1.59L19.84 9 21 10.41l-4.75 4.75" transform="matrix(1.5 0 0 1.5 324 72)" id="mdi-thermometer-check" fill="#fff"/><path d="M17.41 12.17 14.24 9l-1.41 1.41L17.41 15 22 10.41 20.58 9M10 13V5c0-1.66-1.34-3-3-3S4 3.34 4 5v8c-2.21 1.66-2.66 4.79-1 7s4.79 2.66 7 1 2.66-4.79 1-7a4.74 4.74 0 0 0-1-1M7 4c.55 0 1 .45 1 1v3H6V5c0-.55.45-1 1-1Z" transform="matrix(1.5 0 0 1.5 360 72)" id="mdi-thermometer-chevron-down" fill="#555"/><path d="M17.41 12.17 14.24 9l-1.41 1.41L17.41 15 22 10.41 20.58 9M10 13V5c0-1.66-1.34-3-3-3S4 3.34 4 5v8c-2.21 1.66-2.66 4.79-1 7s4.79 2.66 7 1 2.66-4.79 1-7a4.74 4.74 0 0 0-1-1M7 4c.55 0 1 .45 1 1v3H6V5c0-.55.45-1 1-1Z" transform="matrix(1.5 0 0 1.5 396 72)" id="mdi-thermometer-chevron-down" fill="#fff"/><path d="M17.41 11.83 20.58 15 22 13.59 17.41 9l-4.59 4.59L14.24 15l3.17-3.17M10 13V5c0-1.66-1.34-3-3-3S4 3.34 4 5v8c-2.21 1.66-2.66 4.79-1 7s4.79 2.66 7 1 2.66-4.79 1-7a4.74 4.74 0 0 0-1-1M7 4c.55 0 1 .45 1 1v3H6V5c0-.55.45-1 1-1Z" transform="matrix(1.5 0 0 1.5 432 72)" id="mdi-thermometer-chevron-up" fill="#555"/><path d="M17.41 11.83 20.58 15 22 13.59 17.41 9l-4.59 4.59L14.24 15l3.17-3.17M10 13V5c0-1.66-1.34-3-3-3S4 3.34 4 5v8c-2.21 1.66-2.66 4.79-1 7s4.79 2.66 7 1 2.66-4.79 1-7a4.74 4.74 0 0 0-1-1M7 4c.55 0 1 .45 1 1v3H6V5c0-.55.45-1 1-1Z" transform="matrix(1.5 0 0 1.5 468 72)" id="mdi-thermometer-chevron-up" fill="#fff"/><path d="M15 13V5a3 3 0 0 0-6 0v8a5 5 0 1 0 6 0m-3-9a1 1 0 0 1 1 1h-2a1 1 0 0 1 1-1Z" transform="matrix(1.5 0 0 1.5 504 72)" id="mdi-thermometer-high" fill="#555"/><path d="M15 13V5a3 3 0 0 0-6 0v8a5 5 0 1 0 6 0m-3-9a1 1 0 0 1 1 1h-2a1 1 0 0 1 1-1Z" transform="matrix(1.5 0 0 1.5 540 72)" id="mdi-thermometer-high" fill="#fff"/><path d="M17 3h4v2h-4V3m0 4h4v2h-4V7m0 4h4v2h-3.25l-.75-.9V11m4 4v2h-2c0-.69-.1-1.37-.29-2H21M7 3v2H3V3h4m0 4v2H3V7h4m0 4v1.1l-.75.9H3v-2h4m-4 4h2.29c-.19.63-.29 1.31-.29 2H3v-2m12-2V5c0-1.66-1.34-3-3-3S9 3.34 9 5v8c-2.21 1.66-2.66 4.79-1 7s4.79 2.66 7 1 2.66-4.79 1-7a4.74 4.74 0 0 0-1-1m-3-9c.55 0 1 .45 1 1v3h-2V5c0-.55.45-1 1-1Z" transform="matrix(1.5 0 0 1.5 576 72)" id="mdi-thermometer-lines" fill="#555"/><path d="M17 3h4v2h-4V3m0 4h4v2h-4V7m0 4h4v2h-3.25l-.75-.9V11m4 4v2h-2c0-.69-.1-1.37-.29-2H21M7 3v2H3V3h4m0 4v2H3V7h4m0 4v1.1l-.75.9H3v-2h4m-4 4h2.29c-.19.63-.29 1.31-.29 2H3v-2m12-2V5c0-1.66-1.34-3-3-3S9 3.34 9 5v8c-2.21 1.66-2.66 4.79-1 7s4.79 2.66 7 1 2.66-4.79 1-7a4.74 4.74 0 0 0-1-1m-3-9c.55 0 1 .45 1 1v3h-2V5c0-.55.45-1 1-1Z" transform="matrix(1.5 0 0 1.5 612 72)" id="mdi-thermometer-lines" fill="#fff"/><path d="M15 13V5a3 3 0 0 0-6 0v8a5 5 0 1 0 6 0m-3-9a1 1 0 0 1 1 1v7h-2V5a1 1 0 0 1 1-1Z" transform="matrix(1.5 0 0 1.5 648 72)" id="mdi-thermometer-low" fill="#555"/><path d="M15 13V5a3 3 0 0 0-6 0v8a5 5 0 1 0 6 0m-3-9a1 1 0 0 1 1 1v7h-2V5a1 1 0 0 1 1-1Z" transform="matrix(1.5 0 0 1.5 684 72)" id="mdi-thermometer-low" fill="#fff"/><path d="M22 11h-8v2h8v-2m-11 2V5c0-1.66-1.34-3-3-3S5 3.34 5 5v8c-2.21 1.66-2.66 4.79-1 7s4.79 2.66 7 1 2.66-4.79 1-7a4.74 4.74 0 0 0-1-1M8 4c.55 0 1 .45 1 1v3H7V5c0-.55.45-1 1-1Z" transform="matrix(1.5 0 0 1.5 0 108)" id="mdi-thermometer-minus" fill="#555"/><path d="M22 11h-8v2h8v-2m-11 2V5c0-1.66-1.34-3-3-3S5 3.34 5 5v8c-2.21 1.66-2.66 4.79-1 7s4.79 2.66 7 1 2.66-4.79 1-7a4.74 4.74 0 0 0-1-1M8 4c.55 0 1 .45 1 1v3H7V5c0-.55.45-1 1-1Z" transform="matrix(1.5 0 0 1.5 36 108)" id="mdi-thermometer-minus" fill="#fff"/><path d="m11 7.8-2-2V5c0-1.66 1.34-3 3-3s3 1.34 3 3v6.8L11.2 8H13V5c0-.55-.45-1-1-1s-1 .45-1 1v2.8m11.11 13.66L2.39 1.73 1.11 3 9 10.89V13a4.997 4.997 0 0 0-1 7 4.997 4.997 0 0 0 7 1c.84-.63 1.4-1.5 1.71-2.4l4.13 4.13 1.27-1.27Z" transform="matrix(1.5 0 0 1.5 72 108)" id="mdi-thermometer-off" fill="#555"/><path d="m11 7.8-2-2V5c0-1.66 1.34-3 3-3s3 1.34 3 3v6.8L11.2 8H13V5c0-.55-.45-1-1-1s-1 .45-1 1v2.8m11.11 13.66L2.39 1.73 1.11 3 9 10.89V13a4.997 4.997 0 0 0-1 7 4.997 4.997 0 0 0 7 1c.84-.63 1.4-1.5 1.71-2.4l4.13 4.13 1.27-1.27Z" transform="matrix(1.5 0 0 1.5 108 108)" id="mdi-thermometer-off" fill="#fff"/><path d="M19 11V8h-2v3h-3v2h3v3h2v-3h3v-2m-11 2V5c0-1.66-1.34-3-3-3S5 3.34 5 5v8c-2.21 1.66-2.66 4.79-1 7s4.79 2.66 7 1 2.66-4.79 1-7a4.74 4.74 0 0 0-1-1M8 4c.55 0 1 .45 1 1v3H7V5c0-.55.45-1 1-1Z" transform="matrix(1.5 0 0 1.5 144 108)" id="mdi-thermometer-plus" fill="#555"/><path d="M19 11V8h-2v3h-3v2h3v3h2v-3h3v-2m-11 2V5c0-1.66-1.34-3-3-3S5 3.34 5 5v8c-2.21 1.66-2.66 4.79-1 7s4.79 2.66 7 1 2.66-4.79 1-7a4.74 4.74 0 0 0-1-1M8 4c.55 0 1 .45 1 1v3H7V5c0-.55.45-1 1-1Z" transform="matrix(1.5 0 0 1.5 180 108)" id="mdi-thermometer-plus" fill="#fff"/><path d="M10 13V5c0-1.66-1.34-3-3-3S4 3.34 4 5v8c-2.21 1.66-2.66 4.79-1 7s4.79 2.66 7 1 2.66-4.79 1-7a4.74 4.74 0 0 0-1-1M7 4c.55 0 1 .45 1 1v3H6V5c0-.55.45-1 1-1m11 3s-4 4.34-4 7.07c0 5.24 8 5.24 8 0C22 11.34 18 7 18 7Z" transform="matrix(1.5 0 0 1.5 216 108)" id="mdi-thermometer-water" fill="#555"/><path d="M10 13V5c0-1.66-1.34-3-3-3S4 3.34 4 5v8c-2.21 1.66-2.66 4.79-1 7s4.79 2.66 7 1 2.66-4.79 1-7a4.74 4.74 0 0 0-1-1M7 4c.55 0 1 .45 1 1v3H6V5c0-.55.45-1 1-1m11 3s-4 4.34-4 7.07c0 5.24 8 5.24 8 0C22 11.34 18 7 18 7Z" transform="matrix(1.5 0 0 1.5 252 108)" id="mdi-thermometer-water" fill="#fff"/><path d="m16.95 16.95-2.12-2.12C15.55 14.1 16 13.1 16 12c0-.74-.21-1.43-.57-2l2.17-2.19A6.86 6.86 0 0 1 19 12c0 1.93-.78 3.68-2.05 4.95M12 5c1.57 0 3 .5 4.19 1.4L14 8.56c-.57-.35-1.26-.56-2-.56a4 4 0 0 0-4 4c0 1.1.45 2.1 1.17 2.83l-2.12 2.12A6.976 6.976 0 0 1 5 12a7 7 0 0 1 7-7m0-3A10 10 0 0 0 2 12a10 10 0 0 0 10 10 10 10 0 0 0 10-10c0-5.53-4.5-10-10-10Z" transform="matrix(1.5 0 0 1.5 288 108)" id="mdi-thermostat" fill="#555"/><path d="m16.95 16.95-2.12-2.12C15.55 14.1 16 13.1 16 12c0-.74-.21-1.43-.57-2l2.17-2.19A6.86 6.86 0 0 1 19 12c0 1.93-.78 3.68-2.05 4.95M12 5c1.57 0 3 .5 4.19 1.4L14 8.56c-.57-.35-1.26-.56-2-.56a4 4 0 0 0-4 4c0 1.1.45 2.1 1.17 2.83l-2.12 2.12A6.976 6.976 0 0 1 5 12a7 7 0 0 1 7-7m0-3A10 10 0 0 0 2 12a10 10 0 0 0 10 10 10 10 0 0 0 10-10c0-5.53-4.5-10-10-10Z" transform="matrix(1.5 0 0 1.5 324 108)" id="mdi-thermostat" fill="#fff"/><path d="M5 3a2 2 0 0 0-2 2v14a2 2 0 0 0 2 2h14a2 2 0 0 0 2-2V5a2 2 0 0 0-2-2H5m7 2c1.57 0 3 .5 4.19 1.4L14 8.56c-.57-.35-1.26-.56-2-.56a4 4 0 0 0-4 4c0 1.1.45 2.1 1.17 2.83l-2.12 2.12A6.976 6.976 0 0 1 5 12a7 7 0 0 1 7-7m5.6 2.81A6.86 6.86 0 0 1 19 12c0 1.93-.78 3.68-2.05 4.95l-2.12-2.12C15.55 14.1 16 13.1 16 12c0-.74-.21-1.43-.57-2l2.17-2.19Z" transform="matrix(1.5 0 0 1.5 360 108)" id="mdi-thermostat-box" fill="#555"/><path d="M5 3a2 2 0 0 0-2 2v14a2 2 0 0 0 2 2h14a2 2 0 0 0 2-2V5a2 2 0 0 0-2-2H5m7 2c1.57 0 3 .5 4.19 1.4L14 8.56c-.57-.35-1.26-.56-2-.56a4 4 0 0 0-4 4c0 1.1.45 2.1 1.17 2.83l-2.12 2.12A6.976 6.976 0 0 1 5 12a7 7 0 0 1 7-7m5.6 2.81A6.86 6.86 0 0 1 19 12c0 1.93-.78 3.68-2.05 4.95l-2.12-2.12C15.55 14.1 16 13.1 16 12c0-.74-.21-1.43-.57-2l2.17-2.19Z" transform="matrix(1.5 0 0 1.5 396 108)" id="mdi-thermostat-box" fill="#fff"/><path d="M3.5 19A1.5 1.5 0 0 1 5 20.5 1.5 1.5 0 0 1 3.5 22 1.5 1.5 0 0 1 2 20.5 1.5 1.5 0 0 1 3.5 19m5-3a2.5 2.5 0 0 1 2.5 2.5A2.5 2.5 0 0 1 8.5 21 2.5 2.5 0 0 1 6 18.5 2.5 2.5 0 0 1 8.5 16m6-1c-1.19 0-2.27-.5-3-1.35-.73.85-1.81 1.35-3 1.35-1.96 0-3.59-1.41-3.93-3.26A4.02 4.02 0 0 1 2 8a4 4 0 0 1 4-4c.26 0 .5.03.77.07C7.5 3.41 8.45 3 9.5 3c1.19 0 2.27.5 3 1.35.73-.85 1.81-1.35 3-1.35 1.96 0 3.59 1.41 3.93 3.26A4.02 4.02 0 0 1 22 10a4 4 0 0 1-4 4l-.77-.07c-.73.66-1.68 1.07-2.73 1.07Z" transform="matrix(1.5 0 0 1.5 432 108)" id="mdi-thought-bubble" fill="#555"/><path d="M3.5 19A1.5 1.5 0 0 1 5 20.5 1.5 1.5 0 0 1 3.5 22 1.5 1.5 0 0 1 2 20.5 1.5 1.5 0 0 1 3.5 19m5-3a2.5 2.5 0 0 1 2.5 2.5A2.5 2.5 0 0 1 8.5 21 2.5 2.5 0 0 1 6 18.5 2.5 2.5 0 0 1 8.5 16m6-1c-1.19 0-2.27-.5-3-1.35-.73.85-1.81 1.35-3 1.35-1.96 0-3.59-1.41-3.93-3.26A4.02 4.02 0 0 1 2 8a4 4 0 0 1 4-4c.26 0 .5.03.77.07C7.5 3.41 8.45 3 9.5 3c1.19 0 2.27.5 3 1.35.73-.85 1.81-1.35 3-1.35 1.96 0 3.59 1.41 3.93 3.26A4.02 4.02 0 0 1 22 10a4 4 0 0 1-4 4l-.77-.07c-.73.66-1.68 1.07-2.73 1.07Z" transform="matrix(1.5 0 0 1.5 468 108)" id="mdi-thought-bubble" fill="#fff"/><path d="M3.5 19A1.5 1.5 0 0 1 5 20.5 1.5 1.5 0 0 1 3.5 22 1.5 1.5 0 0 1 2 20.5 1.5 1.5 0 0 1 3.5 19m5-3a2.5 2.5 0 0 1 2.5 2.5A2.5 2.5 0 0 1 8.5 21 2.5 2.5 0 0 1 6 18.5 2.5 2.5 0 0 1 8.5 16m6-1c-1.19 0-2.27-.5-3-1.35-.73.85-1.81 1.35-3 1.35-1.96 0-3.59-1.41-3.93-3.26A4.02 4.02 0 0 1 2 8a4 4 0 0 1 4-4l.77.07C7.5 3.41 8.45 3 9.5 3c1.19 0 2.27.5 3 1.35.73-.85 1.81-1.35 3-1.35 1.96 0 3.59 1.41 3.93 3.26A4.02 4.02 0 0 1 22 10a4 4 0 0 1-4 4l-.77-.07c-.73.66-1.68 1.07-2.73 1.07M6 6a2 2 0 0 0-2 2 2 2 0 0 0 2 2c.33 0 .64-.08.92-.22A2 2 0 0 0 6.5 11a2 2 0 0 0 2 2c.6 0 1.14-.27 1.5-.69l1.47-1.68L13 12.34c.38.4.91.66 1.5.66 1 0 1.83-.74 2-1.7.34.43.89.7 1.5.7a2 2 0 0 0 2-2 2 2 0 0 0-2-2c-.33 0-.64.08-.92.22A2 2 0 0 0 17.5 7a2 2 0 0 0-2-2c-.59 0-1.12.26-1.5.66l-1.53 1.71L11 5.69c-.36-.42-.9-.69-1.5-.69-1 0-1.83.74-2 1.7C7.16 6.27 6.61 6 6 6m2.5 11.5a1 1 0 0 0-1 1 1 1 0 0 0 1 1 1 1 0 0 0 1-1 1 1 0 0 0-1-1Z" transform="matrix(1.5 0 0 1.5 504 108)" id="mdi-thought-bubble-outline" fill="#555"/><path d="M3.5 19A1.5 1.5 0 0 1 5 20.5 1.5 1.5 0 0 1 3.5 22 1.5 1.5 0 0 1 2 20.5 1.5 1.5 0 0 1 3.5 19m5-3a2.5 2.5 0 0 1 2.5 2.5A2.5 2.5 0 0 1 8.5 21 2.5 2.5 0 0 1 6 18.5 2.5 2.5 0 0 1 8.5 16m6-1c-1.19 0-2.27-.5-3-1.35-.73.85-1.81 1.35-3 1.35-1.96 0-3.59-1.41-3.93-3.26A4.02 4.02 0 0 1 2 8a4 4 0 0 1 4-4l.77.07C7.5 3.41 8.45 3 9.5 3c1.19 0 2.27.5 3 1.35.73-.85 1.81-1.35 3-1.35 1.96 0 3.59 1.41 3.93 3.26A4.02 4.02 0 0 1 22 10a4 4 0 0 1-4 4l-.77-.07c-.73.66-1.68 1.07-2.73 1.07M6 6a2 2 0 0 0-2 2 2 2 0 0 0 2 2c.33 0 .64-.08.92-.22A2 2 0 0 0 6.5 11a2 2 0 0 0 2 2c.6 0 1.14-.27 1.5-.69l1.47-1.68L13 12.34c.38.4.91.66 1.5.66 1 0 1.83-.74 2-1.7.34.43.89.7 1.5.7a2 2 0 0 0 2-2 2 2 0 0 0-2-2c-.33 0-.64.08-.92.22A2 2 0 0 0 17.5 7a2 2 0 0 0-2-2c-.59 0-1.12.26-1.5.66l-1.53 1.71L11 5.69c-.36-.42-.9-.69-1.5-.69-1 0-1.83.74-2 1.7C7.16 6.27 6.61 6 6 6m2.5 11.5a1 1 0 0 0-1 1 1 1 0 0 0 1 1 1 1 0 0 0 1-1 1 1 0 0 0-1-1Z" transform="matrix(1.5 0 0 1.5 540 108)" id="mdi-thought-bubble-outline" fill="#fff"/><path d="M19 15h4V3h-4m-4 0H6c-.83 0-1.54.5-1.84 1.22l-3.02 7.05c-.09.23-.14.47-.14.73v2a2 2 0 0 0 2 2h6.31l-.95 4.57c-.02.1-.03.2-.03.31 0 .42.17.79.44 1.06L9.83 23l6.58-6.59c.37-.36.59-.86.59-1.41V5a2 2 0 0 0-2-2Z" transform="matrix(1.5 0 0 1.5 576 108)" id="mdi-thumb-down" fill="#555"/><path d="M19 15h4V3h-4m-4 0H6c-.83 0-1.54.5-1.84 1.22l-3.02 7.05c-.09.23-.14.47-.14.73v2a2 2 0 0 0 2 2h6.31l-.95 4.57c-.02.1-.03.2-.03.31 0 .42.17.79.44 1.06L9.83 23l6.58-6.59c.37-.36.59-.86.59-1.41V5a2 2 0 0 0-2-2Z" transform="matrix(1.5 0 0 1.5 612 108)" id="mdi-thumb-down" fill="#fff"/><path d="M19 15V3h4v12h-4M15 3a2 2 0 0 1 2 2v10c0 .55-.22 1.05-.59 1.41L9.83 23l-1.06-1.06c-.27-.27-.44-.64-.44-1.06l.03-.31.95-4.57H3a2 2 0 0 1-2-2v-2c0-.26.05-.5.14-.73l3.02-7.05C4.46 3.5 5.17 3 6 3h9m0 2H5.97L3 12v2h8.78l-1.13 5.32L15 14.97V5Z" transform="matrix(1.5 0 0 1.5 648 108)" id="mdi-thumb-down-outline" fill="#555"/><path d="M19 15V3h4v12h-4M15 3a2 2 0 0 1 2 2v10c0 .55-.22 1.05-.59 1.41L9.83 23l-1.06-1.06c-.27-.27-.44-.64-.44-1.06l.03-.31.95-4.57H3a2 2 0 0 1-2-2v-2c0-.26.05-.5.14-.73l3.02-7.05C4.46 3.5 5.17 3 6 3h9m0 2H5.97L3 12v2h8.78l-1.13 5.32L15 14.97V5Z" transform="matrix(1.5 0 0 1.5 684 108)" id="mdi-thumb-down-outline" fill="#fff"/><path d="M23 10a2 2 0 0 0-2-2h-6.32l.96-4.57c.02-.1.03-.21.03-.32 0-.41-.17-.79-.44-1.06L14.17 1 7.59 7.58C7.22 7.95 7 8.45 7 9v10a2 2 0 0 0 2 2h9c.83 0 1.54-.5 1.84-1.22l3.02-7.05c.09-.23.14-.47.14-.73v-2M1 21h4V9H1v12Z" transform="matrix(1.5 0 0 1.5 0 144)" id="mdi-thumb-up" fill="#555"/><path d="M23 10a2 2 0 0 0-2-2h-6.32l.96-4.57c.02-.1.03-.21.03-.32 0-.41-.17-.79-.44-1.06L14.17 1 7.59 7.58C7.22 7.95 7 8.45 7 9v10a2 2 0 0 0 2 2h9c.83 0 1.54-.5 1.84-1.22l3.02-7.05c.09-.23.14-.47.14-.73v-2M1 21h4V9H1v12Z" transform="matrix(1.5 0 0 1.5 36 144)" id="mdi-thumb-up" fill="#fff"/><path d="M5 9v12H1V9h4m4 12a2 2 0 0 1-2-2V9c0-.55.22-1.05.59-1.41L14.17 1l1.06 1.06c.27.27.44.64.44 1.05l-.03.32L14.69 8H21a2 2 0 0 1 2 2v2c0 .26-.05.5-.14.73l-3.02 7.05C19.54 20.5 18.83 21 18 21H9m0-2h9.03L21 12v-2h-8.79l1.13-5.32L9 9.03V19Z" transform="matrix(1.5 0 0 1.5 72 144)" id="mdi-thumb-up-outline" fill="#555"/><path d="M5 9v12H1V9h4m4 12a2 2 0 0 1-2-2V9c0-.55.22-1.05.59-1.41L14.17 1l1.06 1.06c.27.27.44.64.44 1.05l-.03.32L14.69 8H21a2 2 0 0 1 2 2v2c0 .26-.05.5-.14.73l-3.02 7.05C19.54 20.5 18.83 21 18 21H9m0-2h9.03L21 12v-2h-8.79l1.13-5.32L9 9.03V19Z" transform="matrix(1.5 0 0 1.5 108 144)" id="mdi-thumb-up-outline" fill="#fff"/><path d="M22.5 10h-6.75c-.62 0-1.15.38-1.38.91l-2.26 5.29c-.07.17-.11.36-.11.55V18a1 1 0 0 0 1 1h5.18l-.68 3.18v.24c0 .31.13.58.33.8l.79.78 4.94-4.94c.27-.27.44-.65.44-1.06v-6.5a1.5 1.5 0 0 0-1.5-1.5M12 6a1 1 0 0 0-1-1H5.82l.68-3.18v-.23c0-.31-.13-.59-.33-.8L5.38 0 .44 4.94C.17 5.21 0 5.59 0 6v6.5A1.5 1.5 0 0 0 1.5 14h6.75c.62 0 1.15-.38 1.38-.91l2.26-5.29c.07-.17.11-.36.11-.55V6Z" transform="matrix(1.5 0 0 1.5 144 144)" id="mdi-thumbs-up-down" fill="#555"/><path d="M22.5 10h-6.75c-.62 0-1.15.38-1.38.91l-2.26 5.29c-.07.17-.11.36-.11.55V18a1 1 0 0 0 1 1h5.18l-.68 3.18v.24c0 .31.13.58.33.8l.79.78 4.94-4.94c.27-.27.44-.65.44-1.06v-6.5a1.5 1.5 0 0 0-1.5-1.5M12 6a1 1 0 0 0-1-1H5.82l.68-3.18v-.23c0-.31-.13-.59-.33-.8L5.38 0 .44 4.94C.17 5.21 0 5.59 0 6v6.5A1.5 1.5 0 0 0 1.5 14h6.75c.62 0 1.15-.38 1.38-.91l2.26-5.29c.07-.17.11-.36.11-.55V6Z" transform="matrix(1.5 0 0 1.5 180 144)" id="mdi-thumbs-up-down" fill="#fff"/><path d="M12 6c0-.55-.45-1-1-1H5.82l.68-3.18v-.23c0-.31-.13-.59-.33-.8L5.38 0 .44 4.94C.17 5.21 0 5.59 0 6v6.5c0 .83.67 1.5 1.5 1.5h6.75c.62 0 1.15-.38 1.38-.91l2.26-5.29c.07-.17.11-.36.11-.55V6m-2 1.13L7.92 12H2V6.21l1.93-1.93L3.36 7H10v.13M22.5 10h-6.75c-.62 0-1.15.38-1.38.91l-2.26 5.29c-.07.17-.11.36-.11.55V18c0 .55.45 1 1 1h5.18l-.68 3.18v.24c0 .31.13.58.33.8l.79.78 4.94-4.94c.27-.27.44-.65.44-1.06v-6.5c0-.83-.67-1.5-1.5-1.5m-.5 7.79-1.93 1.93.57-2.72H14v-.13L16.08 12H22v5.79Z" transform="matrix(1.5 0 0 1.5 216 144)" id="mdi-thumbs-up-down-outline" fill="#555"/><path d="M12 6c0-.55-.45-1-1-1H5.82l.68-3.18v-.23c0-.31-.13-.59-.33-.8L5.38 0 .44 4.94C.17 5.21 0 5.59 0 6v6.5c0 .83.67 1.5 1.5 1.5h6.75c.62 0 1.15-.38 1.38-.91l2.26-5.29c.07-.17.11-.36.11-.55V6m-2 1.13L7.92 12H2V6.21l1.93-1.93L3.36 7H10v.13M22.5 10h-6.75c-.62 0-1.15.38-1.38.91l-2.26 5.29c-.07.17-.11.36-.11.55V18c0 .55.45 1 1 1h5.18l-.68 3.18v.24c0 .31.13.58.33.8l.79.78 4.94-4.94c.27-.27.44-.65.44-1.06v-6.5c0-.83-.67-1.5-1.5-1.5m-.5 7.79-1.93 1.93.57-2.72H14v-.13L16.08 12H22v5.79Z" transform="matrix(1.5 0 0 1.5 252 144)" id="mdi-thumbs-up-down-outline" fill="#fff"/><path d="M15.58 16.8 12 14.5l-3.58 2.3 1.08-4.12L6.21 10l4.25-.26L12 5.8l1.54 3.94 4.25.26-3.29 2.68M20 12a2 2 0 0 1 2-2V6a2 2 0 0 0-2-2H4a2 2 0 0 0-2 2v4a2 2 0 0 1 2 2 2 2 0 0 1-2 2v4a2 2 0 0 0 2 2h16a2 2 0 0 0 2-2v-4a2 2 0 0 1-2-2Z" transform="matrix(1.5 0 0 1.5 288 144)" id="mdi-ticket" fill="#555"/><path d="M15.58 16.8 12 14.5l-3.58 2.3 1.08-4.12L6.21 10l4.25-.26L12 5.8l1.54 3.94 4.25.26-3.29 2.68M20 12a2 2 0 0 1 2-2V6a2 2 0 0 0-2-2H4a2 2 0 0 0-2 2v4a2 2 0 0 1 2 2 2 2 0 0 1-2 2v4a2 2 0 0 0 2 2h16a2 2 0 0 0 2-2v-4a2 2 0 0 1-2-2Z" transform="matrix(1.5 0 0 1.5 324 144)" id="mdi-ticket" fill="#fff"/><path d="M20 12a2 2 0 0 0 2 2v4a2 2 0 0 1-2 2H4a2 2 0 0 1-2-2v-4a2 2 0 0 0 2-2 2 2 0 0 0-2-2V6a2 2 0 0 1 2-2h16a2 2 0 0 1 2 2v4a2 2 0 0 0-2 2m-3.5 4.25c0-1.5-3-2.25-4.5-2.25s-4.5.75-4.5 2.25V17h9v-.75m-4.5-4A2.25 2.25 0 0 0 14.25 10 2.25 2.25 0 0 0 12 7.75 2.25 2.25 0 0 0 9.75 10 2.25 2.25 0 0 0 12 12.25Z" transform="matrix(1.5 0 0 1.5 360 144)" id="mdi-ticket-account" fill="#555"/><path d="M20 12a2 2 0 0 0 2 2v4a2 2 0 0 1-2 2H4a2 2 0 0 1-2-2v-4a2 2 0 0 0 2-2 2 2 0 0 0-2-2V6a2 2 0 0 1 2-2h16a2 2 0 0 1 2 2v4a2 2 0 0 0-2 2m-3.5 4.25c0-1.5-3-2.25-4.5-2.25s-4.5.75-4.5 2.25V17h9v-.75m-4.5-4A2.25 2.25 0 0 0 14.25 10 2.25 2.25 0 0 0 12 7.75 2.25 2.25 0 0 0 9.75 10 2.25 2.25 0 0 0 12 12.25Z" transform="matrix(1.5 0 0 1.5 396 144)" id="mdi-ticket-account" fill="#fff"/><path d="M13 8.5h-2v-2h2v2m0 4.5h-2v-2h2v2m0 4.5h-2v-2h2v2m9-7.5V6a2 2 0 0 0-2-2H4a2 2 0 0 0-2 2v4a2 2 0 0 1 2 2 2 2 0 0 1-2 2v4a2 2 0 0 0 2 2h16a2 2 0 0 0 2-2v-4a2 2 0 0 1-2-2 2 2 0 0 1 2-2Z" transform="matrix(1.5 0 0 1.5 432 144)" id="mdi-ticket-confirmation" fill="#555"/><path d="M13 8.5h-2v-2h2v2m0 4.5h-2v-2h2v2m0 4.5h-2v-2h2v2m9-7.5V6a2 2 0 0 0-2-2H4a2 2 0 0 0-2 2v4a2 2 0 0 1 2 2 2 2 0 0 1-2 2v4a2 2 0 0 0 2 2h16a2 2 0 0 0 2-2v-4a2 2 0 0 1-2-2 2 2 0 0 1 2-2Z" transform="matrix(1.5 0 0 1.5 468 144)" id="mdi-ticket-confirmation" fill="#fff"/><path d="M22 10V6a2 2 0 0 0-2-2H4a2 2 0 0 0-2 2v4a2 2 0 1 1 0 4v4c0 1.1.9 2 2 2h16c1.1 0 2-.9 2-2v-4c-1.1 0-2-.9-2-2s.9-2 2-2m-2-1.46c-1.19.69-2 1.99-2 3.46s.81 2.77 2 3.46V18H4v-2.54c1.19-.69 2-1.99 2-3.46 0-1.5-.8-2.77-2-3.46V6h16v2.54M11 15h2v2h-2m0-6h2v2h-2m0-6h2v2h-2Z" transform="matrix(1.5 0 0 1.5 504 144)" id="mdi-ticket-confirmation-outline" fill="#555"/><path d="M22 10V6a2 2 0 0 0-2-2H4a2 2 0 0 0-2 2v4a2 2 0 1 1 0 4v4c0 1.1.9 2 2 2h16c1.1 0 2-.9 2-2v-4c-1.1 0-2-.9-2-2s.9-2 2-2m-2-1.46c-1.19.69-2 1.99-2 3.46s.81 2.77 2 3.46V18H4v-2.54c1.19-.69 2-1.99 2-3.46 0-1.5-.8-2.77-2-3.46V6h16v2.54M11 15h2v2h-2m0-6h2v2h-2m0-6h2v2h-2Z" transform="matrix(1.5 0 0 1.5 540 144)" id="mdi-ticket-confirmation-outline" fill="#fff"/><path d="M4 4a2 2 0 0 0-2 2v4a2 2 0 0 1 2 2 2 2 0 0 1-2 2v4a2 2 0 0 0 2 2h16a2 2 0 0 0 2-2v-4a2 2 0 0 1-2-2 2 2 0 0 1 2-2V6a2 2 0 0 0-2-2H4m0 2h16v2.54c-1.24.71-2 2.03-2 3.46 0 1.43.76 2.75 2 3.46V18H4v-2.54c1.24-.71 2-2.03 2-3.46 0-1.43-.76-2.75-2-3.46V6Z" transform="matrix(1.5 0 0 1.5 576 144)" id="mdi-ticket-outline" fill="#555"/><path d="M4 4a2 2 0 0 0-2 2v4a2 2 0 0 1 2 2 2 2 0 0 1-2 2v4a2 2 0 0 0 2 2h16a2 2 0 0 0 2-2v-4a2 2 0 0 1-2-2 2 2 0 0 1 2-2V6a2 2 0 0 0-2-2H4m0 2h16v2.54c-1.24.71-2 2.03-2 3.46 0 1.43.76 2.75 2 3.46V18H4v-2.54c1.24-.71 2-2.03 2-3.46 0-1.43-.76-2.75-2-3.46V6Z" transform="matrix(1.5 0 0 1.5 612 144)" id="mdi-ticket-outline" fill="#fff"/><path d="M4 4a2 2 0 0 0-2 2v4a2 2 0 0 1 2 2 2 2 0 0 1-2 2v4a2 2 0 0 0 2 2h16a2 2 0 0 0 2-2v-4a2 2 0 0 1-2-2 2 2 0 0 1 2-2V6a2 2 0 0 0-2-2H4m11.5 3L17 8.5 8.5 17 7 15.5 15.5 7m-6.69.04c.98 0 1.77.79 1.77 1.77a1.77 1.77 0 0 1-1.77 1.77c-.98 0-1.77-.79-1.77-1.77a1.77 1.77 0 0 1 1.77-1.77m6.38 6.38c.98 0 1.77.79 1.77 1.77a1.77 1.77 0 0 1-1.77 1.77c-.98 0-1.77-.79-1.77-1.77a1.77 1.77 0 0 1 1.77-1.77Z" transform="matrix(1.5 0 0 1.5 648 144)" id="mdi-ticket-percent" fill="#555"/><path d="M4 4a2 2 0 0 0-2 2v4a2 2 0 0 1 2 2 2 2 0 0 1-2 2v4a2 2 0 0 0 2 2h16a2 2 0 0 0 2-2v-4a2 2 0 0 1-2-2 2 2 0 0 1 2-2V6a2 2 0 0 0-2-2H4m11.5 3L17 8.5 8.5 17 7 15.5 15.5 7m-6.69.04c.98 0 1.77.79 1.77 1.77a1.77 1.77 0 0 1-1.77 1.77c-.98 0-1.77-.79-1.77-1.77a1.77 1.77 0 0 1 1.77-1.77m6.38 6.38c.98 0 1.77.79 1.77 1.77a1.77 1.77 0 0 1-1.77 1.77c-.98 0-1.77-.79-1.77-1.77a1.77 1.77 0 0 1 1.77-1.77Z" transform="matrix(1.5 0 0 1.5 684 144)" id="mdi-ticket-percent" fill="#fff"/><path d="M14.8 8 16 9.2 9.2 16 8 14.8 14.8 8M4 4h16c1.11 0 2 .89 2 2v4a2 2 0 1 0 0 4v4c0 1.11-.89 2-2 2H4a2 2 0 0 1-2-2v-4c1.11 0 2-.89 2-2a2 2 0 0 0-2-2V6a2 2 0 0 1 2-2m0 2v2.54a3.994 3.994 0 0 1 0 6.92V18h16v-2.54a3.994 3.994 0 0 1 0-6.92V6H4m5.5 2c.83 0 1.5.67 1.5 1.5S10.33 11 9.5 11 8 10.33 8 9.5 8.67 8 9.5 8m5 5c.83 0 1.5.67 1.5 1.5s-.67 1.5-1.5 1.5-1.5-.67-1.5-1.5.67-1.5 1.5-1.5Z" transform="matrix(1.5 0 0 1.5 0 180)" id="mdi-ticket-percent-outline" fill="#555"/><path d="M14.8 8 16 9.2 9.2 16 8 14.8 14.8 8M4 4h16c1.11 0 2 .89 2 2v4a2 2 0 1 0 0 4v4c0 1.11-.89 2-2 2H4a2 2 0 0 1-2-2v-4c1.11 0 2-.89 2-2a2 2 0 0 0-2-2V6a2 2 0 0 1 2-2m0 2v2.54a3.994 3.994 0 0 1 0 6.92V18h16v-2.54a3.994 3.994 0 0 1 0-6.92V6H4m5.5 2c.83 0 1.5.67 1.5 1.5S10.33 11 9.5 11 8 10.33 8 9.5 8.67 8 9.5 8m5 5c.83 0 1.5.67 1.5 1.5s-.67 1.5-1.5 1.5-1.5-.67-1.5-1.5.67-1.5 1.5-1.5Z" transform="matrix(1.5 0 0 1.5 36 180)" id="mdi-ticket-percent-outline" fill="#fff"/><path d="m6 2 4 4-3 11 5 5 5-5-3-11 4-4Z" transform="matrix(1.5 0 0 1.5 72 180)" id="mdi-tie" fill="#555"/><path d="m6 2 4 4-3 11 5 5 5-5-3-11 4-4Z" transform="matrix(1.5 0 0 1.5 108 180)" id="mdi-tie" fill="#fff"/><path d="M2 15s0-6 6-6c4 0 4.5 3.5 7.5 3.5 4 0 4-3.5 4-3.5H22s0 6-6 6c-4 0-5.5-3.5-7.5-3.5-4 0-4 3.5-4 3.5H2" transform="matrix(1.5 0 0 1.5 144 180)" id="mdi-tilde" fill="#555"/><path d="M2 15s0-6 6-6c4 0 4.5 3.5 7.5 3.5 4 0 4-3.5 4-3.5H22s0 6-6 6c-4 0-5.5-3.5-7.5-3.5-4 0-4 3.5-4 3.5H2" transform="matrix(1.5 0 0 1.5 180 180)" id="mdi-tilde" fill="#fff"/><path d="M20.84 22.73 10.78 12.67C10 12.03 9.27 11.5 8.5 11.5c-4 0-4 3.5-4 3.5H2s0-5.41 5.16-5.95L1.11 3l1.28-1.27 7.64 7.64L15.64 15h-.01l6.48 6.46-1.27 1.27M22 9h-2.5s0 3.38-3.81 3.5l2.26 2.25C22 13.62 22 9 22 9Z" transform="matrix(1.5 0 0 1.5 216 180)" id="mdi-tilde-off" fill="#555"/><path d="M20.84 22.73 10.78 12.67C10 12.03 9.27 11.5 8.5 11.5c-4 0-4 3.5-4 3.5H2s0-5.41 5.16-5.95L1.11 3l1.28-1.27 7.64 7.64L15.64 15h-.01l6.48 6.46-1.27 1.27M22 9h-2.5s0 3.38-3.81 3.5l2.26 2.25C22 13.62 22 9 22 9Z" transform="matrix(1.5 0 0 1.5 252 180)" id="mdi-tilde-off" fill="#fff"/><path d="M12 20a8 8 0 0 1-8-8 8 8 0 0 1 8-8 8 8 0 0 1 8 8 8 8 0 0 1-8 8m0-18A10 10 0 0 0 2 12a10 10 0 0 0 10 10 10 10 0 0 0 10-10A10 10 0 0 0 12 2m4.24 5.76A5.95 5.95 0 0 0 12 6v6l-4.24 4.24a6 6 0 0 0 8.48 0 5.981 5.981 0 0 0 0-8.48Z" transform="matrix(1.5 0 0 1.5 288 180)" id="mdi-timelapse" fill="#555"/><path d="M12 20a8 8 0 0 1-8-8 8 8 0 0 1 8-8 8 8 0 0 1 8 8 8 8 0 0 1-8 8m0-18A10 10 0 0 0 2 12a10 10 0 0 0 10 10 10 10 0 0 0 10-10A10 10 0 0 0 12 2m4.24 5.76A5.95 5.95 0 0 0 12 6v6l-4.24 4.24a6 6 0 0 0 8.48 0 5.981 5.981 0 0 0 0-8.48Z" transform="matrix(1.5 0 0 1.5 324 180)" id="mdi-timelapse" fill="#fff"/><path d="M4 2v6H2V2h2M2 22v-6h2v6H2m3-10c0 1.11-.89 2-2 2a2 2 0 1 1 2-2m19-6v12c0 1.11-.89 2-2 2H10a2 2 0 0 1-2-2v-4l-2-2 2-2V6a2 2 0 0 1 2-2h12c1.11 0 2 .89 2 2Z" transform="matrix(1.5 0 0 1.5 360 180)" id="mdi-timeline" fill="#555"/><path d="M4 2v6H2V2h2M2 22v-6h2v6H2m3-10c0 1.11-.89 2-2 2a2 2 0 1 1 2-2m19-6v12c0 1.11-.89 2-2 2H10a2 2 0 0 1-2-2v-4l-2-2 2-2V6a2 2 0 0 1 2-2h12c1.11 0 2 .89 2 2Z" transform="matrix(1.5 0 0 1.5 396 180)" id="mdi-timeline" fill="#fff"/><path d="M4 2v6H2V2h2M2 22v-6h2v6H2m3-10c0 1.11-.89 2-2 2a2 2 0 1 1 2-2m19-6v12c0 1.11-.89 2-2 2H10a2 2 0 0 1-2-2v-4l-2-2 2-2V6a2 2 0 0 1 2-2h12c1.11 0 2 .89 2 2m-9 1v6h2V7h-2m0 8v2h2v-2h-2Z" transform="matrix(1.5 0 0 1.5 432 180)" id="mdi-timeline-alert" fill="#555"/><path d="M4 2v6H2V2h2M2 22v-6h2v6H2m3-10c0 1.11-.89 2-2 2a2 2 0 1 1 2-2m19-6v12c0 1.11-.89 2-2 2H10a2 2 0 0 1-2-2v-4l-2-2 2-2V6a2 2 0 0 1 2-2h12c1.11 0 2 .89 2 2m-9 1v6h2V7h-2m0 8v2h2v-2h-2Z" transform="matrix(1.5 0 0 1.5 468 180)" id="mdi-timeline-alert" fill="#fff"/><path d="M4 2v6H2V2h2M2 22v-6h2v6H2m3-10c0 1.11-.89 2-2 2a2 2 0 1 1 2-2m19-6v12c0 1.11-.89 2-2 2H10a2 2 0 0 1-2-2v-4l-2-2 2-2V6a2 2 0 0 1 2-2h12c1.11 0 2 .89 2 2M10 6v12h12V6H10m5 1h2v6h-2V7m0 8h2v2h-2v-2Z" transform="matrix(1.5 0 0 1.5 504 180)" id="mdi-timeline-alert-outline" fill="#555"/><path d="M4 2v6H2V2h2M2 22v-6h2v6H2m3-10c0 1.11-.89 2-2 2a2 2 0 1 1 2-2m19-6v12c0 1.11-.89 2-2 2H10a2 2 0 0 1-2-2v-4l-2-2 2-2V6a2 2 0 0 1 2-2h12c1.11 0 2 .89 2 2M10 6v12h12V6H10m5 1h2v6h-2V7m0 8h2v2h-2v-2Z" transform="matrix(1.5 0 0 1.5 540 180)" id="mdi-timeline-alert-outline" fill="#fff"/><path d="M4 8H2V2h2v6M2 22h2v-6H2v6m1-12a2 2 0 1 0 0 4c1.11 0 2-.89 2-2a2 2 0 0 0-2-2m21-4v12c0 1.11-.89 2-2 2H10a2 2 0 0 1-2-2v-4l-2-2 2-2V6a2 2 0 0 1 2-2h12c1.11 0 2 .89 2 2m-4.25 4.33-1.16-1.41L15 12.5l-1.59-1.58-1.16 1.16 2.75 3 4.75-4.75Z" transform="matrix(1.5 0 0 1.5 576 180)" id="mdi-timeline-check" fill="#555"/><path d="M4 8H2V2h2v6M2 22h2v-6H2v6m1-12a2 2 0 1 0 0 4c1.11 0 2-.89 2-2a2 2 0 0 0-2-2m21-4v12c0 1.11-.89 2-2 2H10a2 2 0 0 1-2-2v-4l-2-2 2-2V6a2 2 0 0 1 2-2h12c1.11 0 2 .89 2 2m-4.25 4.33-1.16-1.41L15 12.5l-1.59-1.58-1.16 1.16 2.75 3 4.75-4.75Z" transform="matrix(1.5 0 0 1.5 612 180)" id="mdi-timeline-check" fill="#fff"/><path d="M22 4H10a2 2 0 0 0-2 2v4l-2 2 2 2v4a2 2 0 0 0 2 2h12c1.11 0 2-.89 2-2V6c0-1.11-.89-2-2-2m0 14H10V6h12v12M4 8H2V2h2v6m-2 8h2v6H2v-6m3-4c0 1.11-.89 2-2 2a2 2 0 1 1 2-2m10 3.08-2.75-3 1.16-1.16L15 12.5l3.59-3.58 1.16 1.41L15 15.08Z" transform="matrix(1.5 0 0 1.5 648 180)" id="mdi-timeline-check-outline" fill="#555"/><path d="M22 4H10a2 2 0 0 0-2 2v4l-2 2 2 2v4a2 2 0 0 0 2 2h12c1.11 0 2-.89 2-2V6c0-1.11-.89-2-2-2m0 14H10V6h12v12M4 8H2V2h2v6m-2 8h2v6H2v-6m3-4c0 1.11-.89 2-2 2a2 2 0 1 1 2-2m10 3.08-2.75-3 1.16-1.16L15 12.5l3.59-3.58 1.16 1.41L15 15.08Z" transform="matrix(1.5 0 0 1.5 684 180)" id="mdi-timeline-check-outline" fill="#fff"/><path d="M4 2v6H2V2h2M2 22v-6h2v6H2m3-10c0 1.11-.89 2-2 2a2 2 0 1 1 2-2m11-8c4.42 0 8 3.58 8 8s-3.58 8-8 8c-3.6 0-6.64-2.38-7.65-5.65L6 12l2.35-2.35C9.36 6.38 12.4 4 16 4m-1 9 4.53 2.79.8-1.29-3.83-2.3V7H15v6Z" transform="matrix(1.5 0 0 1.5 0 216)" id="mdi-timeline-clock" fill="#555"/><path d="M4 2v6H2V2h2M2 22v-6h2v6H2m3-10c0 1.11-.89 2-2 2a2 2 0 1 1 2-2m11-8c4.42 0 8 3.58 8 8s-3.58 8-8 8c-3.6 0-6.64-2.38-7.65-5.65L6 12l2.35-2.35C9.36 6.38 12.4 4 16 4m-1 9 4.53 2.79.8-1.29-3.83-2.3V7H15v6Z" transform="matrix(1.5 0 0 1.5 36 216)" id="mdi-timeline-clock" fill="#fff"/><path d="M4 2v6H2V2h2M2 22v-6h2v6H2m3-10c0 1.11-.89 2-2 2a2 2 0 1 1 2-2m11-8c4.42 0 8 3.58 8 8s-3.58 8-8 8c-3.6 0-6.64-2.38-7.65-5.65L6 12l2.35-2.35C9.36 6.38 12.4 4 16 4m0 2c-3.31 0-6 2.69-6 6s2.69 6 6 6 6-2.69 6-6-2.69-6-6-6m-1 7V8h1.5v4.2l3 1.8-.82 1.26L15 13Z" transform="matrix(1.5 0 0 1.5 72 216)" id="mdi-timeline-clock-outline" fill="#555"/><path d="M4 2v6H2V2h2M2 22v-6h2v6H2m3-10c0 1.11-.89 2-2 2a2 2 0 1 1 2-2m11-8c4.42 0 8 3.58 8 8s-3.58 8-8 8c-3.6 0-6.64-2.38-7.65-5.65L6 12l2.35-2.35C9.36 6.38 12.4 4 16 4m0 2c-3.31 0-6 2.69-6 6s2.69 6 6 6 6-2.69 6-6-2.69-6-6-6m-1 7V8h1.5v4.2l3 1.8-.82 1.26L15 13Z" transform="matrix(1.5 0 0 1.5 108 216)" id="mdi-timeline-clock-outline" fill="#fff"/><path d="M4 2v6H2V2h2M2 22v-6h2v6H2m3-10c0 1.11-.89 2-2 2a2 2 0 1 1 2-2m19-6v12c0 1.11-.89 2-2 2H10a2 2 0 0 1-2-2v-4l-2-2 2-2V6a2 2 0 0 1 2-2h12c1.11 0 2 .89 2 2m-7.5 9.5H15V17h1.5v-1.5m-2-5V10c0-.83.67-1.5 1.5-1.5s1.5.68 1.5 1.5c0 .47-.23.9-.62 1.16l-.29.19C15.6 12 15 13.11 15 14.3v.2h1.5v-.2c0-.68.34-1.3.91-1.7l.3-.19C18.5 11.88 19 10.97 19 10c0-1.66-1.34-3-3-3s-3 1.34-3 3v.5h1.5Z" transform="matrix(1.5 0 0 1.5 144 216)" id="mdi-timeline-help" fill="#555"/><path d="M4 2v6H2V2h2M2 22v-6h2v6H2m3-10c0 1.11-.89 2-2 2a2 2 0 1 1 2-2m19-6v12c0 1.11-.89 2-2 2H10a2 2 0 0 1-2-2v-4l-2-2 2-2V6a2 2 0 0 1 2-2h12c1.11 0 2 .89 2 2m-7.5 9.5H15V17h1.5v-1.5m-2-5V10c0-.83.67-1.5 1.5-1.5s1.5.68 1.5 1.5c0 .47-.23.9-.62 1.16l-.29.19C15.6 12 15 13.11 15 14.3v.2h1.5v-.2c0-.68.34-1.3.91-1.7l.3-.19C18.5 11.88 19 10.97 19 10c0-1.66-1.34-3-3-3s-3 1.34-3 3v.5h1.5Z" transform="matrix(1.5 0 0 1.5 180 216)" id="mdi-timeline-help" fill="#fff"/><path d="M5 12c0 1.11-.89 2-2 2a2 2 0 1 1 2-2M4 2v6H2V2h2M2 22v-6h2v6H2M24 6v12c0 1.11-.89 2-2 2H10a2 2 0 0 1-2-2v-4l-2-2 2-2V6a2 2 0 0 1 2-2h12c1.11 0 2 .89 2 2m-2 0H10v4.83L8.83 12 10 13.17V18h12V6m-5.5 9.5V17H15v-1.5h1.5m-2-5H13V10c0-1.66 1.34-3 3-3s3 1.34 3 3c0 .97-.5 1.88-1.29 2.41l-.3.19c-.57.4-.91 1.02-.91 1.7v.2H15v-.2c0-1.19.6-2.3 1.59-2.95l.29-.19c.39-.26.62-.69.62-1.16 0-.82-.67-1.5-1.5-1.5s-1.5.67-1.5 1.5v.5Z" transform="matrix(1.5 0 0 1.5 216 216)" id="mdi-timeline-help-outline" fill="#555"/><path d="M5 12c0 1.11-.89 2-2 2a2 2 0 1 1 2-2M4 2v6H2V2h2M2 22v-6h2v6H2M24 6v12c0 1.11-.89 2-2 2H10a2 2 0 0 1-2-2v-4l-2-2 2-2V6a2 2 0 0 1 2-2h12c1.11 0 2 .89 2 2m-2 0H10v4.83L8.83 12 10 13.17V18h12V6m-5.5 9.5V17H15v-1.5h1.5m-2-5H13V10c0-1.66 1.34-3 3-3s3 1.34 3 3c0 .97-.5 1.88-1.29 2.41l-.3.19c-.57.4-.91 1.02-.91 1.7v.2H15v-.2c0-1.19.6-2.3 1.59-2.95l.29-.19c.39-.26.62-.69.62-1.16 0-.82-.67-1.5-1.5-1.5s-1.5.67-1.5 1.5v.5Z" transform="matrix(1.5 0 0 1.5 252 216)" id="mdi-timeline-help-outline" fill="#fff"/><path d="M4 8H2V2h2v6m20-2v12c0 1.11-.89 2-2 2H10a2 2 0 0 1-2-2v-4l-2-2 2-2V6a2 2 0 0 1 2-2h12c1.11 0 2 .89 2 2m-4 5h-8v2h8v-2M2 22h2v-6H2v6m1-12a2 2 0 1 0 0 4c1.11 0 2-.89 2-2a2 2 0 0 0-2-2Z" transform="matrix(1.5 0 0 1.5 288 216)" id="mdi-timeline-minus" fill="#555"/><path d="M4 8H2V2h2v6m20-2v12c0 1.11-.89 2-2 2H10a2 2 0 0 1-2-2v-4l-2-2 2-2V6a2 2 0 0 1 2-2h12c1.11 0 2 .89 2 2m-4 5h-8v2h8v-2M2 22h2v-6H2v6m1-12a2 2 0 1 0 0 4c1.11 0 2-.89 2-2a2 2 0 0 0-2-2Z" transform="matrix(1.5 0 0 1.5 324 216)" id="mdi-timeline-minus" fill="#fff"/><path d="M2 16h2v6H2v-6M4 2H2v6h2V2m16 9h-8v2h8v-2M3 10a2 2 0 1 0 0 4c1.11 0 2-.89 2-2a2 2 0 0 0-2-2m21-4v12c0 1.11-.89 2-2 2H10a2 2 0 0 1-2-2v-4l-2-2 2-2V6a2 2 0 0 1 2-2h12c1.11 0 2 .89 2 2m-2 0H10v12h12V6Z" transform="matrix(1.5 0 0 1.5 360 216)" id="mdi-timeline-minus-outline" fill="#555"/><path d="M2 16h2v6H2v-6M4 2H2v6h2V2m16 9h-8v2h8v-2M3 10a2 2 0 1 0 0 4c1.11 0 2-.89 2-2a2 2 0 0 0-2-2m21-4v12c0 1.11-.89 2-2 2H10a2 2 0 0 1-2-2v-4l-2-2 2-2V6a2 2 0 0 1 2-2h12c1.11 0 2 .89 2 2m-2 0H10v12h12V6Z" transform="matrix(1.5 0 0 1.5 396 216)" id="mdi-timeline-minus-outline" fill="#fff"/><path d="M4 2v6H2V2h2M2 22v-6h2v6H2m3-10c0 1.11-.89 2-2 2a2 2 0 1 1 2-2m19-6v12c0 1.11-.89 2-2 2H10a2 2 0 0 1-2-2v-4l-2-2 2-2V6a2 2 0 0 1 2-2h12c1.11 0 2 .89 2 2M10 6v12h12V6H10Z" transform="matrix(1.5 0 0 1.5 432 216)" id="mdi-timeline-outline" fill="#555"/><path d="M4 2v6H2V2h2M2 22v-6h2v6H2m3-10c0 1.11-.89 2-2 2a2 2 0 1 1 2-2m19-6v12c0 1.11-.89 2-2 2H10a2 2 0 0 1-2-2v-4l-2-2 2-2V6a2 2 0 0 1 2-2h12c1.11 0 2 .89 2 2M10 6v12h12V6H10Z" transform="matrix(1.5 0 0 1.5 468 216)" id="mdi-timeline-outline" fill="#fff"/><path d="M4 2v6H2V2h2M2 22v-6h2v6H2m3-10c0 1.11-.89 2-2 2a2 2 0 1 1 2-2m19-6v12c0 1.11-.89 2-2 2H10a2 2 0 0 1-2-2v-4l-2-2 2-2V6a2 2 0 0 1 2-2h12c1.11 0 2 .89 2 2m-4 5h-3V8h-2v3h-3v2h3v3h2v-3h3v-2Z" transform="matrix(1.5 0 0 1.5 504 216)" id="mdi-timeline-plus" fill="#555"/><path d="M4 2v6H2V2h2M2 22v-6h2v6H2m3-10c0 1.11-.89 2-2 2a2 2 0 1 1 2-2m19-6v12c0 1.11-.89 2-2 2H10a2 2 0 0 1-2-2v-4l-2-2 2-2V6a2 2 0 0 1 2-2h12c1.11 0 2 .89 2 2m-4 5h-3V8h-2v3h-3v2h3v3h2v-3h3v-2Z" transform="matrix(1.5 0 0 1.5 540 216)" id="mdi-timeline-plus" fill="#fff"/><path d="M4 2v6H2V2h2M2 22v-6h2v6H2m3-10c0 1.11-.89 2-2 2a2 2 0 1 1 2-2m15-1v2h-3v3h-2v-3h-3v-2h3V8h2v3h3m4-5v12c0 1.11-.89 2-2 2H10a2 2 0 0 1-2-2v-4l-2-2 2-2V6a2 2 0 0 1 2-2h12c1.11 0 2 .89 2 2M10 6v12h12V6H10Z" transform="matrix(1.5 0 0 1.5 576 216)" id="mdi-timeline-plus-outline" fill="#555"/><path d="M4 2v6H2V2h2M2 22v-6h2v6H2m3-10c0 1.11-.89 2-2 2a2 2 0 1 1 2-2m15-1v2h-3v3h-2v-3h-3v-2h3V8h2v3h3m4-5v12c0 1.11-.89 2-2 2H10a2 2 0 0 1-2-2v-4l-2-2 2-2V6a2 2 0 0 1 2-2h12c1.11 0 2 .89 2 2M10 6v12h12V6H10Z" transform="matrix(1.5 0 0 1.5 612 216)" id="mdi-timeline-plus-outline" fill="#fff"/><path d="M4 8H2V2h2v6M2 22h2v-6H2v6m1-12a2 2 0 1 0 0 4c1.11 0 2-.89 2-2a2 2 0 0 0-2-2m21-4v12c0 1.11-.89 2-2 2H10a2 2 0 0 1-2-2v-4l-2-2 2-2V6a2 2 0 0 1 2-2h12c1.11 0 2 .89 2 2m-6.59 6 2.12-2.12-1.41-1.41L16 10.59l-2.12-2.12-1.41 1.41L14.59 12l-2.12 2.12 1.41 1.41L16 13.41l2.12 2.12 1.41-1.41L17.41 12Z" transform="matrix(1.5 0 0 1.5 648 216)" id="mdi-timeline-remove" fill="#555"/><path d="M4 8H2V2h2v6M2 22h2v-6H2v6m1-12a2 2 0 1 0 0 4c1.11 0 2-.89 2-2a2 2 0 0 0-2-2m21-4v12c0 1.11-.89 2-2 2H10a2 2 0 0 1-2-2v-4l-2-2 2-2V6a2 2 0 0 1 2-2h12c1.11 0 2 .89 2 2m-6.59 6 2.12-2.12-1.41-1.41L16 10.59l-2.12-2.12-1.41 1.41L14.59 12l-2.12 2.12 1.41 1.41L16 13.41l2.12 2.12 1.41-1.41L17.41 12Z" transform="matrix(1.5 0 0 1.5 684 216)" id="mdi-timeline-remove" fill="#fff"/><path d="M4 8H2V2h2v6M2 22h2v-6H2v6m1-12a2 2 0 1 0 0 4c1.11 0 2-.89 2-2a2 2 0 0 0-2-2m10.88 5.54L16 13.41l2.12 2.12 1.41-1.41L17.41 12l2.12-2.12-1.41-1.41L16 10.59l-2.12-2.12-1.41 1.41L14.59 12l-2.12 2.12 1.41 1.42M24 6v12c0 1.11-.89 2-2 2H10a2 2 0 0 1-2-2v-4l-2-2 2-2V6a2 2 0 0 1 2-2h12c1.11 0 2 .89 2 2m-2 0H10v12h12V6Z" transform="matrix(1.5 0 0 1.5 0 252)" id="mdi-timeline-remove-outline" fill="#555"/><path d="M4 8H2V2h2v6M2 22h2v-6H2v6m1-12a2 2 0 1 0 0 4c1.11 0 2-.89 2-2a2 2 0 0 0-2-2m10.88 5.54L16 13.41l2.12 2.12 1.41-1.41L17.41 12l2.12-2.12-1.41-1.41L16 10.59l-2.12-2.12-1.41 1.41L14.59 12l-2.12 2.12 1.41 1.42M24 6v12c0 1.11-.89 2-2 2H10a2 2 0 0 1-2-2v-4l-2-2 2-2V6a2 2 0 0 1 2-2h12c1.11 0 2 .89 2 2m-2 0H10v12h12V6Z" transform="matrix(1.5 0 0 1.5 36 252)" id="mdi-timeline-remove-outline" fill="#fff"/><path d="M4 2v6H2V2h2M2 22h2v-6H2v6m3-10a2 2 0 1 0-2 2c1.11 0 2-.89 2-2m19-6v12c0 1.11-.89 2-2 2H10a2 2 0 0 1-2-2v-4l-2-2 2-2V6a2 2 0 0 1 2-2h12c1.11 0 2 .89 2 2m-5 7h-8v2h8v-2m2-4H11v2h10V9Z" transform="matrix(1.5 0 0 1.5 72 252)" id="mdi-timeline-text" fill="#555"/><path d="M4 2v6H2V2h2M2 22h2v-6H2v6m3-10a2 2 0 1 0-2 2c1.11 0 2-.89 2-2m19-6v12c0 1.11-.89 2-2 2H10a2 2 0 0 1-2-2v-4l-2-2 2-2V6a2 2 0 0 1 2-2h12c1.11 0 2 .89 2 2m-5 7h-8v2h8v-2m2-4H11v2h10V9Z" transform="matrix(1.5 0 0 1.5 108 252)" id="mdi-timeline-text" fill="#fff"/><path d="M5 12c0 1.11-.89 2-2 2a2 2 0 1 1 2-2M4 2v6H2V2h2M2 22v-6h2v6H2M24 6v12c0 1.11-.89 2-2 2H10a2 2 0 0 1-2-2v-4l-2-2 2-2V6a2 2 0 0 1 2-2h12c1.11 0 2 .89 2 2m-2 0H10v4.83L8.83 12 10 13.17V18h12V6M12 9h8v2h-8V9m0 4h6v2h-6v-2Z" transform="matrix(1.5 0 0 1.5 144 252)" id="mdi-timeline-text-outline" fill="#555"/><path d="M5 12c0 1.11-.89 2-2 2a2 2 0 1 1 2-2M4 2v6H2V2h2M2 22v-6h2v6H2M24 6v12c0 1.11-.89 2-2 2H10a2 2 0 0 1-2-2v-4l-2-2 2-2V6a2 2 0 0 1 2-2h12c1.11 0 2 .89 2 2m-2 0H10v4.83L8.83 12 10 13.17V18h12V6M12 9h8v2h-8V9m0 4h6v2h-6v-2Z" transform="matrix(1.5 0 0 1.5 180 252)" id="mdi-timeline-text-outline" fill="#fff"/><path d="m19.03 7.39 1.42-1.42c-.45-.51-.9-.97-1.41-1.41L17.62 6c-1.55-1.26-3.5-2-5.62-2a9 9 0 0 0 0 18c5 0 9-4.03 9-9 0-2.12-.74-4.07-1.97-5.61M13 14h-2V7h2v7m2-13H9v2h6V1Z" transform="matrix(1.5 0 0 1.5 216 252)" id="mdi-timer" fill="#555"/><path d="m19.03 7.39 1.42-1.42c-.45-.51-.9-.97-1.41-1.41L17.62 6c-1.55-1.26-3.5-2-5.62-2a9 9 0 0 0 0 18c5 0 9-4.03 9-9 0-2.12-.74-4.07-1.97-5.61M13 14h-2V7h2v7m2-13H9v2h6V1Z" transform="matrix(1.5 0 0 1.5 252 252)" id="mdi-timer" fill="#fff"/><path d="M12.9 13.22c0 .6-.04 1.11-.12 1.53-.08.42-.2.75-.36 1.02-.16.26-.36.45-.59.57-.23.12-.51.16-.83.16-.29 0-.57-.04-.81-.16-.24-.12-.44-.31-.6-.57-.16-.27-.29-.6-.38-1.02-.09-.42-.13-.93-.13-1.53v-2.5c0-.6.04-1.11.13-1.52.09-.41.21-.74.38-1 .16-.25.36-.43.6-.55.24-.11.51-.15.81-.15.31 0 .58.04.81.15.24.11.44.29.6.55.16.25.29.58.37.99.08.41.13.92.13 1.52v2.51m.91-6.17c-.32-.4-.75-.7-1.23-.88A4.69 4.69 0 0 0 11 5.9c-.58 0-1.11.1-1.59.27-.48.18-.91.47-1.23.88-.34.41-.6.95-.79 1.59-.18.65-.28 1.45-.28 2.39v1.92c0 .94.09 1.74.28 2.39.19.66.45 1.19.8 1.6.34.41.75.71 1.23.89a4.658 4.658 0 0 0 3.18 0c.48-.18.9-.48 1.22-.89.34-.41.6-.94.78-1.6.18-.65.28-1.45.28-2.39v-1.92c0-.94-.09-1.74-.28-2.39-.18-.64-.44-1.19-.78-1.59m9.96 7.32c-.14-.28-.35-.53-.63-.74-.28-.21-.61-.39-1.01-.53s-.85-.27-1.35-.38c-.35-.07-.64-.15-.87-.22-.23-.09-.42-.17-.55-.26a.717.717 0 0 1-.28-.3.934.934 0 0 1-.09-.39c0-.14.04-.28.1-.41a.82.82 0 0 1 .27-.34c.13-.1.27-.18.45-.24s.4-.09.64-.09c.25 0 .47.03.66.11.19.07.35.17.48.29.13.13.22.26.29.42.06.16.11.32.11.49h1.94c0-.39-.08-.75-.24-1.09-.16-.34-.39-.63-.7-.88-.29-.25-.65-.44-1.08-.59C21.5 9.07 21 9 20.46 9c-.51 0-.96.07-1.39.21-.41.14-.77.33-1.07.57-.28.22-.5.52-.66.84a2.2 2.2 0 0 0-.23 1.01c0 .37.08.69.23.96.16.28.36.52.66.73.25.21.58.38.96.53.38.15.81.26 1.27.36.39.08.71.17.95.26s.43.19.57.29c.13.1.22.24.25.34.07.12.09.25.09.4 0 .31-.13.56-.4.76-.27.2-.66.29-1.19.29-.2 0-.41-.02-.62-.08a1.86 1.86 0 0 1-.56-.24c-.17-.11-.32-.26-.41-.44-.11-.18-.17-.41-.18-.67h-1.89c0 .38.08.71.24 1.05.16.33.39.65.7.93.31.27.69.49 1.15.66.46.17.98.24 1.57.24.54 0 1-.05 1.45-.18.43-.13.8-.32 1.11-.54.31-.23.54-.51.71-.83.17-.32.23-.67.23-1.06s-.07-.74-.22-1.02M0 7.72V9.4l3-1V18h2V6h-.25L0 7.72Z" transform="matrix(1.5 0 0 1.5 288 252)" id="mdi-timer-10" fill="#555"/><path d="M12.9 13.22c0 .6-.04 1.11-.12 1.53-.08.42-.2.75-.36 1.02-.16.26-.36.45-.59.57-.23.12-.51.16-.83.16-.29 0-.57-.04-.81-.16-.24-.12-.44-.31-.6-.57-.16-.27-.29-.6-.38-1.02-.09-.42-.13-.93-.13-1.53v-2.5c0-.6.04-1.11.13-1.52.09-.41.21-.74.38-1 .16-.25.36-.43.6-.55.24-.11.51-.15.81-.15.31 0 .58.04.81.15.24.11.44.29.6.55.16.25.29.58.37.99.08.41.13.92.13 1.52v2.51m.91-6.17c-.32-.4-.75-.7-1.23-.88A4.69 4.69 0 0 0 11 5.9c-.58 0-1.11.1-1.59.27-.48.18-.91.47-1.23.88-.34.41-.6.95-.79 1.59-.18.65-.28 1.45-.28 2.39v1.92c0 .94.09 1.74.28 2.39.19.66.45 1.19.8 1.6.34.41.75.71 1.23.89a4.658 4.658 0 0 0 3.18 0c.48-.18.9-.48 1.22-.89.34-.41.6-.94.78-1.6.18-.65.28-1.45.28-2.39v-1.92c0-.94-.09-1.74-.28-2.39-.18-.64-.44-1.19-.78-1.59m9.96 7.32c-.14-.28-.35-.53-.63-.74-.28-.21-.61-.39-1.01-.53s-.85-.27-1.35-.38c-.35-.07-.64-.15-.87-.22-.23-.09-.42-.17-.55-.26a.717.717 0 0 1-.28-.3.934.934 0 0 1-.09-.39c0-.14.04-.28.1-.41a.82.82 0 0 1 .27-.34c.13-.1.27-.18.45-.24s.4-.09.64-.09c.25 0 .47.03.66.11.19.07.35.17.48.29.13.13.22.26.29.42.06.16.11.32.11.49h1.94c0-.39-.08-.75-.24-1.09-.16-.34-.39-.63-.7-.88-.29-.25-.65-.44-1.08-.59C21.5 9.07 21 9 20.46 9c-.51 0-.96.07-1.39.21-.41.14-.77.33-1.07.57-.28.22-.5.52-.66.84a2.2 2.2 0 0 0-.23 1.01c0 .37.08.69.23.96.16.28.36.52.66.73.25.21.58.38.96.53.38.15.81.26 1.27.36.39.08.71.17.95.26s.43.19.57.29c.13.1.22.24.25.34.07.12.09.25.09.4 0 .31-.13.56-.4.76-.27.2-.66.29-1.19.29-.2 0-.41-.02-.62-.08a1.86 1.86 0 0 1-.56-.24c-.17-.11-.32-.26-.41-.44-.11-.18-.17-.41-.18-.67h-1.89c0 .38.08.71.24 1.05.16.33.39.65.7.93.31.27.69.49 1.15.66.46.17.98.24 1.57.24.54 0 1-.05 1.45-.18.43-.13.8-.32 1.11-.54.31-.23.54-.51.71-.83.17-.32.23-.67.23-1.06s-.07-.74-.22-1.02M0 7.72V9.4l3-1V18h2V6h-.25L0 7.72Z" transform="matrix(1.5 0 0 1.5 324 252)" id="mdi-timer-10" fill="#fff"/><path d="M20.87 14.37c-.14-.28-.37-.53-.63-.74-.28-.21-.61-.39-1.01-.53s-.85-.27-1.35-.38c-.35-.07-.64-.15-.88-.22-.22-.09-.4-.17-.54-.26a.717.717 0 0 1-.28-.3.935.935 0 0 1-.08-.39c0-.15.03-.28.09-.41a.82.82 0 0 1 .27-.34c.12-.1.27-.18.45-.24s.4-.09.64-.09c.25 0 .45.03.66.11.19.07.35.17.48.29.13.13.22.26.31.42.04.16.08.32.08.49h1.95a2.517 2.517 0 0 0-.93-1.97c-.3-.25-.66-.44-1.1-.59-.42-.15-.91-.22-1.45-.22-.51 0-.98.07-1.39.21-.41.14-.77.33-1.06.57-.29.22-.51.52-.67.84a2.2 2.2 0 0 0-.23 1.01c0 .37.08.68.23.96.15.28.37.52.64.73.27.21.6.38.98.53.38.15.81.26 1.27.36.39.08.71.17.95.26.23.09.43.19.57.29.13.1.22.24.27.34.05.12.07.25.07.4 0 .31-.13.56-.4.76-.28.2-.66.29-1.17.29-.22 0-.43-.02-.64-.08-.21-.05-.4-.13-.56-.24a1.333 1.333 0 0 1-.59-1.11h-1.89c0 .38.07.71.24 1.05.16.33.39.65.7.93.31.27.69.49 1.13.66.5.17 1 .24 1.6.24.53 0 1.01-.05 1.44-.18.43-.13.8-.32 1.11-.54.31-.23.54-.51.71-.83.17-.32.25-.67.25-1.06-.02-.39-.11-.74-.24-1.02m-9.26-1.4c-.16-.24-.36-.47-.61-.65a3.6 3.6 0 0 0-.94-.48c.3-.14.57-.3.8-.5.23-.2.42-.41.57-.64.15-.23.27-.46.34-.7.08-.25.11-.5.11-.74 0-.55-.09-1.04-.28-1.46-.18-.42-.44-.77-.78-1.06-.32-.28-.73-.5-1.2-.64-.45-.13-.97-.2-1.53-.2-.55 0-1.06.1-1.52.24-.47.17-.87.4-1.2.69-.33.29-.6.63-.78 1.03-.2.39-.29.83-.29 1.29h1.98c0-.26.05-.49.14-.69.08-.2.22-.38.38-.52.17-.14.36-.25.58-.33.22-.08.46-.11.73-.11.61 0 1.06.15 1.36.46.3.31.44.75.44 1.32 0 .27-.04.52-.12.72-.08.24-.21.43-.38.59-.17.16-.38.28-.63.37-.25.09-.55.13-.89.13H6.72v1.57H7.9c.34 0 .64.04.91.11.27.08.5.19.69.35.19.16.34.38.44.61.1.24.16.54.16.87 0 .62-.18 1.09-.53 1.4-.35.35-.84.5-1.45.5-.29 0-.56-.03-.8-.12-.24-.08-.44-.2-.61-.38-.17-.14-.3-.32-.39-.54-.09-.22-.14-.46-.14-.72H4.19c0 .55.11 1.03.31 1.45.22.42.5.77.87 1.05.36.26.77.49 1.24.63.47.13.96.21 1.48.21.57 0 1.09-.08 1.58-.23.49-.15.91-.38 1.26-.68.36-.3.64-.67.84-1.1.2-.43.3-.93.3-1.48 0-.29-.04-.59-.11-.86-.08-.23-.19-.51-.35-.76Z" transform="matrix(1.5 0 0 1.5 360 252)" id="mdi-timer-3" fill="#555"/><path d="M20.87 14.37c-.14-.28-.37-.53-.63-.74-.28-.21-.61-.39-1.01-.53s-.85-.27-1.35-.38c-.35-.07-.64-.15-.88-.22-.22-.09-.4-.17-.54-.26a.717.717 0 0 1-.28-.3.935.935 0 0 1-.08-.39c0-.15.03-.28.09-.41a.82.82 0 0 1 .27-.34c.12-.1.27-.18.45-.24s.4-.09.64-.09c.25 0 .45.03.66.11.19.07.35.17.48.29.13.13.22.26.31.42.04.16.08.32.08.49h1.95a2.517 2.517 0 0 0-.93-1.97c-.3-.25-.66-.44-1.1-.59-.42-.15-.91-.22-1.45-.22-.51 0-.98.07-1.39.21-.41.14-.77.33-1.06.57-.29.22-.51.52-.67.84a2.2 2.2 0 0 0-.23 1.01c0 .37.08.68.23.96.15.28.37.52.64.73.27.21.6.38.98.53.38.15.81.26 1.27.36.39.08.71.17.95.26.23.09.43.19.57.29.13.1.22.24.27.34.05.12.07.25.07.4 0 .31-.13.56-.4.76-.28.2-.66.29-1.17.29-.22 0-.43-.02-.64-.08-.21-.05-.4-.13-.56-.24a1.333 1.333 0 0 1-.59-1.11h-1.89c0 .38.07.71.24 1.05.16.33.39.65.7.93.31.27.69.49 1.13.66.5.17 1 .24 1.6.24.53 0 1.01-.05 1.44-.18.43-.13.8-.32 1.11-.54.31-.23.54-.51.71-.83.17-.32.25-.67.25-1.06-.02-.39-.11-.74-.24-1.02m-9.26-1.4c-.16-.24-.36-.47-.61-.65a3.6 3.6 0 0 0-.94-.48c.3-.14.57-.3.8-.5.23-.2.42-.41.57-.64.15-.23.27-.46.34-.7.08-.25.11-.5.11-.74 0-.55-.09-1.04-.28-1.46-.18-.42-.44-.77-.78-1.06-.32-.28-.73-.5-1.2-.64-.45-.13-.97-.2-1.53-.2-.55 0-1.06.1-1.52.24-.47.17-.87.4-1.2.69-.33.29-.6.63-.78 1.03-.2.39-.29.83-.29 1.29h1.98c0-.26.05-.49.14-.69.08-.2.22-.38.38-.52.17-.14.36-.25.58-.33.22-.08.46-.11.73-.11.61 0 1.06.15 1.36.46.3.31.44.75.44 1.32 0 .27-.04.52-.12.72-.08.24-.21.43-.38.59-.17.16-.38.28-.63.37-.25.09-.55.13-.89.13H6.72v1.57H7.9c.34 0 .64.04.91.11.27.08.5.19.69.35.19.16.34.38.44.61.1.24.16.54.16.87 0 .62-.18 1.09-.53 1.4-.35.35-.84.5-1.45.5-.29 0-.56-.03-.8-.12-.24-.08-.44-.2-.61-.38-.17-.14-.3-.32-.39-.54-.09-.22-.14-.46-.14-.72H4.19c0 .55.11 1.03.31 1.45.22.42.5.77.87 1.05.36.26.77.49 1.24.63.47.13.96.21 1.48.21.57 0 1.09-.08 1.58-.23.49-.15.91-.38 1.26-.68.36-.3.64-.67.84-1.1.2-.43.3-.93.3-1.48 0-.29-.04-.59-.11-.86-.08-.23-.19-.51-.35-.76Z" transform="matrix(1.5 0 0 1.5 396 252)" id="mdi-timer-3" fill="#fff"/><path d="M22.8 19.4c.1 0 .1.1 0 .2l-1 1.7c-.1.1-.2.1-.3.1l-1.2-.4c-.3.2-.5.3-.8.5l-.2 1.3c0 .1-.1.2-.2.2h-2c-.1 0-.2-.1-.3-.2l-.2-1.3c-.3-.1-.6-.3-.8-.5l-1.2.5c-.1 0-.2 0-.3-.1l-1-1.7c-.1-.1 0-.2.1-.3l1.1-.8v-1l-1.1-.8c-.1-.1-.1-.2-.1-.3l1-1.7c.1-.1.2-.1.3-.1l1.2.5c.3-.2.5-.3.8-.5l.2-1.3c0-.1.1-.2.3-.2h2c.1 0 .2.1.2.2l.2 1.3c.3.1.6.3.9.5l1.2-.5c.1 0 .3 0 .3.1l1 1.7c.1.1 0 .2-.1.3l-1.1.8v1l1.1.8M19.5 18c0-.8-.7-1.5-1.5-1.5s-1.5.7-1.5 1.5.7 1.5 1.5 1.5 1.5-.7 1.5-1.5M11 18c0-1.5.5-2.9 1.3-4H11V7h2v6.1c1.3-1.3 3-2.1 5-2.1 1 0 2 .2 2.9.6-.3-1.6-.9-3-1.9-4.2L20.5 6c-.5-.5-1-1-1.5-1.4L17.6 6c-1.5-1.3-3.5-2-5.6-2-5 0-9 4-9 9s4 9 9 9h.3c-.8-1.1-1.3-2.5-1.3-4m4-17H9v2h6V1Z" transform="matrix(1.5 0 0 1.5 432 252)" id="mdi-timer-cog" fill="#555"/><path d="M22.8 19.4c.1 0 .1.1 0 .2l-1 1.7c-.1.1-.2.1-.3.1l-1.2-.4c-.3.2-.5.3-.8.5l-.2 1.3c0 .1-.1.2-.2.2h-2c-.1 0-.2-.1-.3-.2l-.2-1.3c-.3-.1-.6-.3-.8-.5l-1.2.5c-.1 0-.2 0-.3-.1l-1-1.7c-.1-.1 0-.2.1-.3l1.1-.8v-1l-1.1-.8c-.1-.1-.1-.2-.1-.3l1-1.7c.1-.1.2-.1.3-.1l1.2.5c.3-.2.5-.3.8-.5l.2-1.3c0-.1.1-.2.3-.2h2c.1 0 .2.1.2.2l.2 1.3c.3.1.6.3.9.5l1.2-.5c.1 0 .3 0 .3.1l1 1.7c.1.1 0 .2-.1.3l-1.1.8v1l1.1.8M19.5 18c0-.8-.7-1.5-1.5-1.5s-1.5.7-1.5 1.5.7 1.5 1.5 1.5 1.5-.7 1.5-1.5M11 18c0-1.5.5-2.9 1.3-4H11V7h2v6.1c1.3-1.3 3-2.1 5-2.1 1 0 2 .2 2.9.6-.3-1.6-.9-3-1.9-4.2L20.5 6c-.5-.5-1-1-1.5-1.4L17.6 6c-1.5-1.3-3.5-2-5.6-2-5 0-9 4-9 9s4 9 9 9h.3c-.8-1.1-1.3-2.5-1.3-4m4-17H9v2h6V1Z" transform="matrix(1.5 0 0 1.5 468 252)" id="mdi-timer-cog" fill="#fff"/><path d="M22.8 19.4c.1 0 .1.1 0 .2l-1 1.7c-.1.1-.2.1-.3.1l-1.2-.4c-.3.2-.5.3-.8.5l-.2 1.3c0 .1-.1.2-.2.2h-2c-.1 0-.2-.1-.3-.2l-.2-1.3c-.3-.1-.6-.3-.8-.5l-1.2.5c-.1 0-.2 0-.3-.1l-1-1.7c-.1-.1 0-.2.1-.3l1.1-.8v-1l-1.1-.8c-.1-.1-.1-.2-.1-.3l1-1.7c.1-.1.2-.1.3-.1l1.2.5c.3-.2.5-.3.8-.5l.2-1.3c0-.1.1-.2.3-.2h2c.1 0 .2.1.2.2l.2 1.3c.3.1.6.3.9.5l1.2-.5c.1 0 .3 0 .3.1l1 1.7c.1.1 0 .2-.1.3l-1.1.8v1l1.1.8M19.5 18c0-.8-.7-1.5-1.5-1.5s-1.5.7-1.5 1.5.7 1.5 1.5 1.5 1.5-.7 1.5-1.5M13 14V8h-2v6m4-13H9v2h6V1m-3.7 19C7.8 19.6 5 16.6 5 13c0-3.9 3.1-7 7-7 3.2 0 5.9 2.1 6.7 5 .8.1 1.5.3 2.2.6-.3-1.6-.9-3-1.9-4.2L20.5 6c-.5-.5-1-1-1.5-1.4L17.6 6c-1.5-1.3-3.5-2-5.6-2-5 0-9 4-9 9s4 9 9 9h.3c-.5-.6-.8-1.3-1-2Z" transform="matrix(1.5 0 0 1.5 504 252)" id="mdi-timer-cog-outline" fill="#555"/><path d="M22.8 19.4c.1 0 .1.1 0 .2l-1 1.7c-.1.1-.2.1-.3.1l-1.2-.4c-.3.2-.5.3-.8.5l-.2 1.3c0 .1-.1.2-.2.2h-2c-.1 0-.2-.1-.3-.2l-.2-1.3c-.3-.1-.6-.3-.8-.5l-1.2.5c-.1 0-.2 0-.3-.1l-1-1.7c-.1-.1 0-.2.1-.3l1.1-.8v-1l-1.1-.8c-.1-.1-.1-.2-.1-.3l1-1.7c.1-.1.2-.1.3-.1l1.2.5c.3-.2.5-.3.8-.5l.2-1.3c0-.1.1-.2.3-.2h2c.1 0 .2.1.2.2l.2 1.3c.3.1.6.3.9.5l1.2-.5c.1 0 .3 0 .3.1l1 1.7c.1.1 0 .2-.1.3l-1.1.8v1l1.1.8M19.5 18c0-.8-.7-1.5-1.5-1.5s-1.5.7-1.5 1.5.7 1.5 1.5 1.5 1.5-.7 1.5-1.5M13 14V8h-2v6m4-13H9v2h6V1m-3.7 19C7.8 19.6 5 16.6 5 13c0-3.9 3.1-7 7-7 3.2 0 5.9 2.1 6.7 5 .8.1 1.5.3 2.2.6-.3-1.6-.9-3-1.9-4.2L20.5 6c-.5-.5-1-1-1.5-1.4L17.6 6c-1.5-1.3-3.5-2-5.6-2-5 0-9 4-9 9s4 9 9 9h.3c-.5-.6-.8-1.3-1-2Z" transform="matrix(1.5 0 0 1.5 540 252)" id="mdi-timer-cog-outline" fill="#fff"/><path d="M3 4 1.75 5.27 4.5 8.03A8.905 8.905 0 0 0 3 13a9 9 0 0 0 9 9c1.84 0 3.55-.55 5-1.5l2.5 2.5 1.25-1.27L13.04 14 3 4m12-3H9v2h6m6 10c0 1.83-.55 3.53-1.5 4.94L13 11.45V7h-2v2.45L7.05 5.5C8.47 4.55 10.17 4 12 4c2.12 0 4.07.74 5.62 1.97l1.42-1.42 1.41 1.42-1.42 1.42A8.963 8.963 0 0 1 21 13Z" transform="matrix(1.5 0 0 1.5 576 252)" id="mdi-timer-off" fill="#555"/><path d="M3 4 1.75 5.27 4.5 8.03A8.905 8.905 0 0 0 3 13a9 9 0 0 0 9 9c1.84 0 3.55-.55 5-1.5l2.5 2.5 1.25-1.27L13.04 14 3 4m12-3H9v2h6m6 10c0 1.83-.55 3.53-1.5 4.94L13 11.45V7h-2v2.45L7.05 5.5C8.47 4.55 10.17 4 12 4c2.12 0 4.07.74 5.62 1.97l1.42-1.42 1.41 1.42-1.42 1.42A8.963 8.963 0 0 1 21 13Z" transform="matrix(1.5 0 0 1.5 612 252)" id="mdi-timer-off" fill="#fff"/><path d="M12 20a7 7 0 0 1-7-7c0-1.28.35-2.5.95-3.5l9.55 9.54c-1 .61-2.22.96-3.5.96M3 4 1.75 5.27 4.5 8.03A8.905 8.905 0 0 0 3 13a9 9 0 0 0 9 9c1.84 0 3.55-.55 5-1.5l2.5 2.5 1.25-1.27L13.04 14 3 4m8 5.44 2 2V8h-2m4-7H9v2h6m4.04 1.55-1.42 1.42A9.012 9.012 0 0 0 12 4c-1.83 0-3.53.55-4.95 1.5L8.5 6.94C9.53 6.35 10.73 6 12 6a7 7 0 0 1 7 7c0 1.27-.35 2.47-.94 3.5l1.44 1.44c.95-1.41 1.5-3.11 1.5-4.94 0-2.12-.74-4.07-1.97-5.61l1.42-1.42-1.41-1.42Z" transform="matrix(1.5 0 0 1.5 648 252)" id="mdi-timer-off-outline" fill="#555"/><path d="M12 20a7 7 0 0 1-7-7c0-1.28.35-2.5.95-3.5l9.55 9.54c-1 .61-2.22.96-3.5.96M3 4 1.75 5.27 4.5 8.03A8.905 8.905 0 0 0 3 13a9 9 0 0 0 9 9c1.84 0 3.55-.55 5-1.5l2.5 2.5 1.25-1.27L13.04 14 3 4m8 5.44 2 2V8h-2m4-7H9v2h6m4.04 1.55-1.42 1.42A9.012 9.012 0 0 0 12 4c-1.83 0-3.53.55-4.95 1.5L8.5 6.94C9.53 6.35 10.73 6 12 6a7 7 0 0 1 7 7c0 1.27-.35 2.47-.94 3.5l1.44 1.44c.95-1.41 1.5-3.11 1.5-4.94 0-2.12-.74-4.07-1.97-5.61l1.42-1.42-1.41-1.42Z" transform="matrix(1.5 0 0 1.5 684 252)" id="mdi-timer-off-outline" fill="#fff"/><path d="M12 20a7 7 0 0 1-7-7 7 7 0 0 1 7-7 7 7 0 0 1 7 7 7 7 0 0 1-7 7m7.03-12.61 1.42-1.42c-.45-.51-.9-.97-1.41-1.41L17.62 6c-1.55-1.26-3.5-2-5.62-2a9 9 0 0 0-9 9 9 9 0 0 0 9 9c5 0 9-4.03 9-9 0-2.12-.74-4.07-1.97-5.61M11 14h2V8h-2m4-7H9v2h6V1Z" transform="matrix(1.5 0 0 1.5 0 288)" id="mdi-timer-outline" fill="#555"/><path d="M12 20a7 7 0 0 1-7-7 7 7 0 0 1 7-7 7 7 0 0 1 7 7 7 7 0 0 1-7 7m7.03-12.61 1.42-1.42c-.45-.51-.9-.97-1.41-1.41L17.62 6c-1.55-1.26-3.5-2-5.62-2a9 9 0 0 0-9 9 9 9 0 0 0 9 9c5 0 9-4.03 9-9 0-2.12-.74-4.07-1.97-5.61M11 14h2V8h-2m4-7H9v2h6V1Z" transform="matrix(1.5 0 0 1.5 36 288)" id="mdi-timer-outline" fill="#fff"/><path d="M6 2h12v6l-4 4 4 4v6H6v-6l4-4-4-4V2m10 14.5-4-4-4 4V20h8v-3.5m-4-5 4-4V4H8v3.5l4 4M10 6h4v.75l-2 2-2-2V6Z" transform="matrix(1.5 0 0 1.5 72 288)" id="mdi-timer-sand" fill="#555"/><path d="M6 2h12v6l-4 4 4 4v6H6v-6l4-4-4-4V2m10 14.5-4-4-4 4V20h8v-3.5m-4-5 4-4V4H8v3.5l4 4M10 6h4v.75l-2 2-2-2V6Z" transform="matrix(1.5 0 0 1.5 108 288)" id="mdi-timer-sand" fill="#fff"/><path d="M18 22H6v-6l4-4-4-4V2h12v6l-4 4 4 4M8 7.5l4 4 4-4V4H8m4 8.5-4 4V20h8v-3.5M14 18h-4v-.8l2-2 2 2Z" transform="matrix(1.5 0 0 1.5 144 288)" id="mdi-timer-sand-complete" fill="#555"/><path d="M18 22H6v-6l4-4-4-4V2h12v6l-4 4 4 4M8 7.5l4 4 4-4V4H8m4 8.5-4 4V20h8v-3.5M14 18h-4v-.8l2-2 2 2Z" transform="matrix(1.5 0 0 1.5 180 288)" id="mdi-timer-sand-complete" fill="#fff"/><path d="M6 2v6l4 4-4 4v6h12v-6l-4-4 4-4V2H6m10 14.5V20H8v-3.5l4-4 4 4m-4-5-4-4V4h8v3.5l-4 4Z" transform="matrix(1.5 0 0 1.5 216 288)" id="mdi-timer-sand-empty" fill="#555"/><path d="M6 2v6l4 4-4 4v6h12v-6l-4-4 4-4V2H6m10 14.5V20H8v-3.5l4-4 4 4m-4-5-4-4V4h8v3.5l-4 4Z" transform="matrix(1.5 0 0 1.5 252 288)" id="mdi-timer-sand-empty" fill="#fff"/><path d="M6 2v6l4 4-4 4v6h12v-6l-4-4 4-4V2H6Z" transform="matrix(1.5 0 0 1.5 288 288)" id="mdi-timer-sand-full" fill="#555"/><path d="M6 2v6l4 4-4 4v6h12v-6l-4-4 4-4V2H6Z" transform="matrix(1.5 0 0 1.5 324 288)" id="mdi-timer-sand-full" fill="#fff"/><path d="M22 6v12h-6l-4-4-4 4H2V6h6l4 4 4-4M7.5 16l4-4-4-4H4v8m8.5-4 4 4H20V8h-3.5m1.5 4v2h-.8l-2-2m-6.4 0-2 2H6v-2Z" transform="matrix(1.5 0 0 1.5 360 288)" id="mdi-timer-sand-paused" fill="#555"/><path d="M22 6v12h-6l-4-4-4 4H2V6h6l4 4 4-4M7.5 16l4-4-4-4H4v8m8.5-4 4 4H20V8h-3.5m1.5 4v2h-.8l-2-2m-6.4 0-2 2H6v-2Z" transform="matrix(1.5 0 0 1.5 396 288)" id="mdi-timer-sand-paused" fill="#fff"/><path d="M19 6.4 20.5 5c-.5-.5-1-1-1.5-1.4L17.6 5C16 3.7 14.1 3 12 3c-5 0-9 4-9 9s4 9 9 9 9-4 9-9c0-2.1-.7-4.1-2-5.6M13 13h-2V6h2v7m2-13H9v2h6V0m-2 24h-2v-2h2v2m4 0h-2v-2h2v2m-8 0H7v-2h2v2Z" transform="matrix(1.5 0 0 1.5 432 288)" id="mdi-timer-settings" fill="#555"/><path d="M19 6.4 20.5 5c-.5-.5-1-1-1.5-1.4L17.6 5C16 3.7 14.1 3 12 3c-5 0-9 4-9 9s4 9 9 9 9-4 9-9c0-2.1-.7-4.1-2-5.6M13 13h-2V6h2v7m2-13H9v2h6V0m-2 24h-2v-2h2v2m4 0h-2v-2h2v2m-8 0H7v-2h2v2Z" transform="matrix(1.5 0 0 1.5 468 288)" id="mdi-timer-settings" fill="#fff"/><path d="M12 19c-3.9 0-7-3.1-7-7s3.1-7 7-7 7 3.1 7 7-3.1 7-7 7m7-12.6L20.5 5c-.5-.5-1-1-1.5-1.4L17.6 5C16 3.7 14.1 3 12 3c-5 0-9 4-9 9s4 9 9 9 9-4 9-9c0-2.1-.7-4.1-2-5.6M11 13h2V7h-2m4-7H9v2h6V0m-2 22h-2v2h2v-2m4 0h-2v2h2v-2m-8 0H7v2h2v-2Z" transform="matrix(1.5 0 0 1.5 504 288)" id="mdi-timer-settings-outline" fill="#555"/><path d="M12 19c-3.9 0-7-3.1-7-7s3.1-7 7-7 7 3.1 7 7-3.1 7-7 7m7-12.6L20.5 5c-.5-.5-1-1-1.5-1.4L17.6 5C16 3.7 14.1 3 12 3c-5 0-9 4-9 9s4 9 9 9 9-4 9-9c0-2.1-.7-4.1-2-5.6M11 13h2V7h-2m4-7H9v2h6V0m-2 22h-2v2h2v-2m4 0h-2v2h2v-2m-8 0H7v2h2v-2Z" transform="matrix(1.5 0 0 1.5 540 288)" id="mdi-timer-settings-outline" fill="#fff"/><path d="M14 12h1.5v2.82l2.44 1.41-.75 1.3L14 15.69V12M4 2h14a2 2 0 0 1 2 2v6.1c1.24 1.26 2 2.99 2 4.9a7 7 0 0 1-7 7c-1.91 0-3.64-.76-4.9-2H4a2 2 0 0 1-2-2V4a2 2 0 0 1 2-2m0 13v3h4.67c-.43-.91-.67-1.93-.67-3H4m0-7h6V5H4v3m14 0V5h-6v3h6M4 13h4.29c.34-1.15.97-2.18 1.81-3H4v3m11-2.85A4.85 4.85 0 0 0 10.15 15c0 2.68 2.17 4.85 4.85 4.85A4.85 4.85 0 0 0 19.85 15c0-2.68-2.17-4.85-4.85-4.85Z" transform="matrix(1.5 0 0 1.5 576 288)" id="mdi-timetable" fill="#555"/><path d="M14 12h1.5v2.82l2.44 1.41-.75 1.3L14 15.69V12M4 2h14a2 2 0 0 1 2 2v6.1c1.24 1.26 2 2.99 2 4.9a7 7 0 0 1-7 7c-1.91 0-3.64-.76-4.9-2H4a2 2 0 0 1-2-2V4a2 2 0 0 1 2-2m0 13v3h4.67c-.43-.91-.67-1.93-.67-3H4m0-7h6V5H4v3m14 0V5h-6v3h6M4 13h4.29c.34-1.15.97-2.18 1.81-3H4v3m11-2.85A4.85 4.85 0 0 0 10.15 15c0 2.68 2.17 4.85 4.85 4.85A4.85 4.85 0 0 0 19.85 15c0-2.68-2.17-4.85-4.85-4.85Z" transform="matrix(1.5 0 0 1.5 612 288)" id="mdi-timetable" fill="#fff"/><path d="m19.66 9.64-.36-.94 1.86-.7c-.92-2.12-2.56-3.82-4.62-4.86l-.8 1.78-.92-.42.8-1.8C14.5 2.26 13.28 2 12 2c-1.06 0-2.08.22-3.04.5l.68 1.84-.94.36L8 2.84c-2.12.92-3.82 2.56-4.86 4.62l1.78.8-.42.92-1.8-.8C2.26 9.5 2 10.72 2 12c0 1.06.22 2.08.5 3.04l1.84-.68.36.94-1.86.7c.92 2.12 2.56 3.82 4.62 4.86l.8-1.78.92.42-.8 1.8c1.12.44 2.34.7 3.62.7 1.06 0 2.08-.22 3.04-.5l-.68-1.84.94-.36.7 1.86c2.12-.92 3.82-2.56 4.86-4.62l-1.78-.8.42-.92 1.8.8c.44-1.12.7-2.34.7-3.62 0-1.06-.22-2.08-.5-3.04l-1.84.68m-5.36 7.9c-3.06 1.26-6.58-.18-7.84-3.24s.18-6.58 3.24-7.84 6.58.18 7.84 3.24a5.986 5.986 0 0 1-3.24 7.84Z" transform="matrix(1.5 0 0 1.5 648 288)" id="mdi-tire" fill="#555"/><path d="m19.66 9.64-.36-.94 1.86-.7c-.92-2.12-2.56-3.82-4.62-4.86l-.8 1.78-.92-.42.8-1.8C14.5 2.26 13.28 2 12 2c-1.06 0-2.08.22-3.04.5l.68 1.84-.94.36L8 2.84c-2.12.92-3.82 2.56-4.86 4.62l1.78.8-.42.92-1.8-.8C2.26 9.5 2 10.72 2 12c0 1.06.22 2.08.5 3.04l1.84-.68.36.94-1.86.7c.92 2.12 2.56 3.82 4.62 4.86l.8-1.78.92.42-.8 1.8c1.12.44 2.34.7 3.62.7 1.06 0 2.08-.22 3.04-.5l-.68-1.84.94-.36.7 1.86c2.12-.92 3.82-2.56 4.86-4.62l-1.78-.8.42-.92 1.8.8c.44-1.12.7-2.34.7-3.62 0-1.06-.22-2.08-.5-3.04l-1.84.68m-5.36 7.9c-3.06 1.26-6.58-.18-7.84-3.24s.18-6.58 3.24-7.84 6.58.18 7.84 3.24a5.986 5.986 0 0 1-3.24 7.84Z" transform="matrix(1.5 0 0 1.5 684 288)" id="mdi-tire" fill="#fff"/><path d="M21 11a2 2 0 0 0-2-2H5a2 2 0 0 0-2 2H2v2h1v7h18v-7h1v-2m-5 4a2 2 0 1 1 2-2 2 2 0 0 1-2 2m1-7H6c.33-2.25 2.88-4 6-4s5.63 1.75 6 4Z" transform="matrix(1.5 0 0 1.5 0 324)" id="mdi-toaster" fill="#555"/><path d="M21 11a2 2 0 0 0-2-2H5a2 2 0 0 0-2 2H2v2h1v7h18v-7h1v-2m-5 4a2 2 0 1 1 2-2 2 2 0 0 1-2 2m1-7H6c.33-2.25 2.88-4 6-4s5.63 1.75 6 4Z" transform="matrix(1.5 0 0 1.5 36 324)" id="mdi-toaster" fill="#fff"/><path d="M20.8 22.7 18.1 20H3v-7H2v-2h1c0-1.1.9-2 2-2h2.1l-6-6 1.3-1.3 19.7 19.7-1.3 1.3m-5.5-10.6c.3-.6 1-1.1 1.7-1.1 1.1 0 2 .9 2 2 0 .8-.4 1.4-1.1 1.7l3.1 3.1V13h1v-2h-1c0-1.1-.9-2-2-2h-6.8l3.1 3.1M18 8c-.4-2.2-2.9-4-6-4-1.4 0-2.8.4-3.8 1l3 3H18Z" transform="matrix(1.5 0 0 1.5 72 324)" id="mdi-toaster-off" fill="#555"/><path d="M20.8 22.7 18.1 20H3v-7H2v-2h1c0-1.1.9-2 2-2h2.1l-6-6 1.3-1.3 19.7 19.7-1.3 1.3m-5.5-10.6c.3-.6 1-1.1 1.7-1.1 1.1 0 2 .9 2 2 0 .8-.4 1.4-1.1 1.7l3.1 3.1V13h1v-2h-1c0-1.1-.9-2-2-2h-6.8l3.1 3.1M18 8c-.4-2.2-2.9-4-6-4-1.4 0-2.8.4-3.8 1l3 3H18Z" transform="matrix(1.5 0 0 1.5 108 324)" id="mdi-toaster-off" fill="#fff"/><path d="M4 5a2 2 0 0 0-2 2v10a2 2 0 0 0 2 2h16a2 2 0 0 0 2-2V7a2 2 0 0 0-2-2H4m0 2h12v10H4V7m15 0a1 1 0 0 1 1 1 1 1 0 0 1-1 1 1 1 0 0 1-1-1 1 1 0 0 1 1-1M6 9v2h8V9H6m13 2a1 1 0 0 1 1 1 1 1 0 0 1-1 1 1 1 0 0 1-1-1 1 1 0 0 1 1-1Z" transform="matrix(1.5 0 0 1.5 144 324)" id="mdi-toaster-oven" fill="#555"/><path d="M4 5a2 2 0 0 0-2 2v10a2 2 0 0 0 2 2h16a2 2 0 0 0 2-2V7a2 2 0 0 0-2-2H4m0 2h12v10H4V7m15 0a1 1 0 0 1 1 1 1 1 0 0 1-1 1 1 1 0 0 1-1-1 1 1 0 0 1 1-1M6 9v2h8V9H6m13 2a1 1 0 0 1 1 1 1 1 0 0 1-1 1 1 1 0 0 1-1-1 1 1 0 0 1 1-1Z" transform="matrix(1.5 0 0 1.5 180 324)" id="mdi-toaster-oven" fill="#fff"/><path d="M17 7H7a5 5 0 0 0-5 5 5 5 0 0 0 5 5h10a5 5 0 0 0 5-5 5 5 0 0 0-5-5m0 8a3 3 0 0 1-3-3 3 3 0 0 1 3-3 3 3 0 0 1 3 3 3 3 0 0 1-3 3Z" transform="matrix(1.5 0 0 1.5 216 324)" id="mdi-toggle-switch" fill="#555"/><path d="M17 7H7a5 5 0 0 0-5 5 5 5 0 0 0 5 5h10a5 5 0 0 0 5-5 5 5 0 0 0-5-5m0 8a3 3 0 0 1-3-3 3 3 0 0 1 3-3 3 3 0 0 1 3 3 3 3 0 0 1-3 3Z" transform="matrix(1.5 0 0 1.5 252 324)" id="mdi-toggle-switch" fill="#fff"/><path d="M17 7H7a5 5 0 0 0-5 5 5 5 0 0 0 5 5h10a5 5 0 0 0 5-5 5 5 0 0 0-5-5M7 15a3 3 0 0 1-3-3 3 3 0 0 1 3-3 3 3 0 0 1 3 3 3 3 0 0 1-3 3Z" transform="matrix(1.5 0 0 1.5 288 324)" id="mdi-toggle-switch-off" fill="#555"/><path d="M17 7H7a5 5 0 0 0-5 5 5 5 0 0 0 5 5h10a5 5 0 0 0 5-5 5 5 0 0 0-5-5M7 15a3 3 0 0 1-3-3 3 3 0 0 1 3-3 3 3 0 0 1 3 3 3 3 0 0 1-3 3Z" transform="matrix(1.5 0 0 1.5 324 324)" id="mdi-toggle-switch-off" fill="#fff"/><path d="M17 6H7c-3.31 0-6 2.69-6 6s2.69 6 6 6h10c3.31 0 6-2.69 6-6s-2.69-6-6-6zm0 10H7c-2.21 0-4-1.79-4-4s1.79-4 4-4h10c2.21 0 4 1.79 4 4s-1.79 4-4 4zM7 9c-1.66 0-3 1.34-3 3s1.34 3 3 3 3-1.34 3-3-1.34-3-3-3z" transform="matrix(1.5 0 0 1.5 360 324)" id="mdi-toggle-switch-off-outline" fill="#555"/><path d="M17 6H7c-3.31 0-6 2.69-6 6s2.69 6 6 6h10c3.31 0 6-2.69 6-6s-2.69-6-6-6zm0 10H7c-2.21 0-4-1.79-4-4s1.79-4 4-4h10c2.21 0 4 1.79 4 4s-1.79 4-4 4zM7 9c-1.66 0-3 1.34-3 3s1.34 3 3 3 3-1.34 3-3-1.34-3-3-3z" transform="matrix(1.5 0 0 1.5 396 324)" id="mdi-toggle-switch-off-outline" fill="#fff"/><path d="M17 6H7c-3.31 0-6 2.69-6 6s2.69 6 6 6h10c3.31 0 6-2.69 6-6s-2.69-6-6-6m0 10H7c-2.21 0-4-1.79-4-4s1.79-4 4-4h10c2.21 0 4 1.79 4 4s-1.79 4-4 4m0-7c-1.66 0-3 1.34-3 3s1.34 3 3 3 3-1.34 3-3-1.34-3-3-3Z" transform="matrix(1.5 0 0 1.5 432 324)" id="mdi-toggle-switch-outline" fill="#555"/><path d="M17 6H7c-3.31 0-6 2.69-6 6s2.69 6 6 6h10c3.31 0 6-2.69 6-6s-2.69-6-6-6m0 10H7c-2.21 0-4-1.79-4-4s1.79-4 4-4h10c2.21 0 4 1.79 4 4s-1.79 4-4 4m0-7c-1.66 0-3 1.34-3 3s1.34 3 3 3 3-1.34 3-3-1.34-3-3-3Z" transform="matrix(1.5 0 0 1.5 468 324)" id="mdi-toggle-switch-outline" fill="#fff"/><path d="M18.4 1.6C18 1.2 17.5 1 17 1H7c-.5 0-1 .2-1.4.6C5.2 2 5 2.5 5 3v18c0 .5.2 1 .6 1.4.4.4.9.6 1.4.6h10c.5 0 1-.2 1.4-.6.4-.4.6-.9.6-1.4V3c0-.5-.2-1-.6-1.4M16 7c0 .6-.4 1-1 1H9c-.6 0-1-.4-1-1V5c0-.6.4-1 1-1h6c.6 0 1 .4 1 1v2Z" transform="matrix(1.5 0 0 1.5 504 324)" id="mdi-toggle-switch-variant" fill="#555"/><path d="M18.4 1.6C18 1.2 17.5 1 17 1H7c-.5 0-1 .2-1.4.6C5.2 2 5 2.5 5 3v18c0 .5.2 1 .6 1.4.4.4.9.6 1.4.6h10c.5 0 1-.2 1.4-.6.4-.4.6-.9.6-1.4V3c0-.5-.2-1-.6-1.4M16 7c0 .6-.4 1-1 1H9c-.6 0-1-.4-1-1V5c0-.6.4-1 1-1h6c.6 0 1 .4 1 1v2Z" transform="matrix(1.5 0 0 1.5 540 324)" id="mdi-toggle-switch-variant" fill="#fff"/><path d="M5.6 1.6C6 1.2 6.5 1 7 1h10c.5 0 1 .2 1.4.6.4.4.6.9.6 1.4v18c0 .5-.2 1-.6 1.4-.4.4-.9.6-1.4.6H7c-.5 0-1-.2-1.4-.6-.4-.4-.6-.9-.6-1.4V3c0-.5.2-1 .6-1.4M8 3c-.6 0-1 .4-1 1v16c0 .6.4 1 1 1h8c.6 0 1-.4 1-1V4c0-.6-.4-1-1-1H8m0 14c0-.6.4-1 1-1h6c.6 0 1 .4 1 1v2c0 .6-.4 1-1 1H9c-.6 0-1-.4-1-1v-2Z" transform="matrix(1.5 0 0 1.5 576 324)" id="mdi-toggle-switch-variant-off" fill="#555"/><path d="M5.6 1.6C6 1.2 6.5 1 7 1h10c.5 0 1 .2 1.4.6.4.4.6.9.6 1.4v18c0 .5-.2 1-.6 1.4-.4.4-.9.6-1.4.6H7c-.5 0-1-.2-1.4-.6-.4-.4-.6-.9-.6-1.4V3c0-.5.2-1 .6-1.4M8 3c-.6 0-1 .4-1 1v16c0 .6.4 1 1 1h8c.6 0 1-.4 1-1V4c0-.6-.4-1-1-1H8m0 14c0-.6.4-1 1-1h6c.6 0 1 .4 1 1v2c0 .6-.4 1-1 1H9c-.6 0-1-.4-1-1v-2Z" transform="matrix(1.5 0 0 1.5 612 324)" id="mdi-toggle-switch-variant-off" fill="#fff"/><path d="M9 22h8v-2.5c2.41-1.63 4-4.38 4-7.5V4a2 2 0 0 0-2-2h-4a2 2 0 0 0-2 2v8H3c0 3.09 2 6 6 7.5V22m-3.71-8h13.42A7.017 7.017 0 0 1 15 18.33V20h-4v-1.67C9 18 5.86 15.91 5.29 14M15 4h4v8h-4V4m1 1v3h2V5h-2Z" transform="matrix(1.5 0 0 1.5 648 324)" id="mdi-toilet" fill="#555"/><path d="M9 22h8v-2.5c2.41-1.63 4-4.38 4-7.5V4a2 2 0 0 0-2-2h-4a2 2 0 0 0-2 2v8H3c0 3.09 2 6 6 7.5V22m-3.71-8h13.42A7.017 7.017 0 0 1 15 18.33V20h-4v-1.67C9 18 5.86 15.91 5.29 14M15 4h4v8h-4V4m1 1v3h2V5h-2Z" transform="matrix(1.5 0 0 1.5 684 324)" id="mdi-toilet" fill="#fff"/></svg>