<svg xmlns="http://www.w3.org/2000/svg" width="720" height="900"><path d="M16.5 6v11.5a4 4 0 0 1-4 4 4 4 0 0 1-4-4V5A2.5 2.5 0 0 1 11 2.5 2.5 2.5 0 0 1 13.5 5v10.5a1 1 0 0 1-1 1 1 1 0 0 1-1-1V6H10v9.5a2.5 2.5 0 0 0 2.5 2.5 2.5 2.5 0 0 0 2.5-2.5V5a4 4 0 0 0-4-4 4 4 0 0 0-4 4v12.5a5.5 5.5 0 0 0 5.5 5.5 5.5 5.5 0 0 0 5.5-5.5V6h-1.5Z" transform="scale(1.5)" id="mdi-paperclip" fill="#555"/><path d="M16.5 6v11.5a4 4 0 0 1-4 4 4 4 0 0 1-4-4V5A2.5 2.5 0 0 1 11 2.5 2.5 2.5 0 0 1 13.5 5v10.5a1 1 0 0 1-1 1 1 1 0 0 1-1-1V6H10v9.5a2.5 2.5 0 0 0 2.5 2.5 2.5 2.5 0 0 0 2.5-2.5V5a4 4 0 0 0-4-4 4 4 0 0 0-4 4v12.5a5.5 5.5 0 0 0 5.5 5.5 5.5 5.5 0 0 0 5.5-5.5V6h-1.5Z" transform="translate(36) scale(1.5)" id="mdi-paperclip" fill="#fff"/><path d="M21.2 10.95 12 23 2.78 10.96l.09-.08c.21-.21.46-.38.71-.52l7.15 9.33L8.58 13l.66-1.19L12 20.38l2.73-8.58.67 1.2-2.13 6.69 7.14-9.34c.25.15.49.29.69.5l.1.1M5 9c1.5 0 2.81.86 3.5 2.1A3.97 3.97 0 0 1 12 9c1.5 0 2.8.85 3.5 2.09A3.93 3.93 0 0 1 19 9c1.09 0 2.09.42 2.81 1.14C20.94 5.5 16.88 2 12 2c-4.91 0-8.97 3.5-9.84 8.17C2.89 9.45 3.89 9 5 9Z" transform="translate(72) scale(1.5)" id="mdi-parachute" fill="#555"/><path d="M21.2 10.95 12 23 2.78 10.96l.09-.08c.21-.21.46-.38.71-.52l7.15 9.33L8.58 13l.66-1.19L12 20.38l2.73-8.58.67 1.2-2.13 6.69 7.14-9.34c.25.15.49.29.69.5l.1.1M5 9c1.5 0 2.81.86 3.5 2.1A3.97 3.97 0 0 1 12 9c1.5 0 2.8.85 3.5 2.09A3.93 3.93 0 0 1 19 9c1.09 0 2.09.42 2.81 1.14C20.94 5.5 16.88 2 12 2c-4.91 0-8.97 3.5-9.84 8.17C2.89 9.45 3.89 9 5 9Z" transform="translate(108) scale(1.5)" id="mdi-parachute" fill="#fff"/><path d="M21.2 10.95 12 23 2.78 10.96l.09-.08c.21-.21.46-.38.71-.52l7.15 9.33L8.58 13l.66-1.19L12 20.38l2.73-8.58.67 1.2-2.13 6.69 7.14-9.34c.25.15.49.29.69.5l.1.1M12 4c2.5 0 4.77 1.17 6.25 3.03a5.93 5.93 0 0 0-2.78 1.1C14.47 7.41 13.26 7 12 7c-1.29 0-2.5.41-3.5 1.14-.82-.59-1.78-.97-2.79-1.1A8 8 0 0 1 12 4m0-2c-4.91 0-8.97 3.5-9.84 8.17C2.89 9.45 3.89 9 5 9c1.5 0 2.81.86 3.5 2.1A3.97 3.97 0 0 1 12 9c1.5 0 2.8.85 3.5 2.09A3.93 3.93 0 0 1 19 9c1.09 0 2.09.42 2.81 1.14C20.94 5.5 16.88 2 12 2Z" transform="translate(144) scale(1.5)" id="mdi-parachute-outline" fill="#555"/><path d="M21.2 10.95 12 23 2.78 10.96l.09-.08c.21-.21.46-.38.71-.52l7.15 9.33L8.58 13l.66-1.19L12 20.38l2.73-8.58.67 1.2-2.13 6.69 7.14-9.34c.25.15.49.29.69.5l.1.1M12 4c2.5 0 4.77 1.17 6.25 3.03a5.93 5.93 0 0 0-2.78 1.1C14.47 7.41 13.26 7 12 7c-1.29 0-2.5.41-3.5 1.14-.82-.59-1.78-.97-2.79-1.1A8 8 0 0 1 12 4m0-2c-4.91 0-8.97 3.5-9.84 8.17C2.89 9.45 3.89 9 5 9c1.5 0 2.81.86 3.5 2.1A3.97 3.97 0 0 1 12 9c1.5 0 2.8.85 3.5 2.09A3.93 3.93 0 0 1 19 9c1.09 0 2.09.42 2.81 1.14C20.94 5.5 16.88 2 12 2Z" transform="translate(180) scale(1.5)" id="mdi-parachute-outline" fill="#fff"/><path d="M12 17c-1.1 0-2-.89-2-2s.9-2 2-2 2 .9 2 2-.89 2-2 2m7-3h-2c0 2.76-2.24 5-5 5s-5-2.24-5-5H5c0 2.79 1.64 5.19 4 6.32V23h6v-2.68c2.36-1.13 4-3.53 4-6.32m4-6.24c.04.8-.95 1.3-1.59.84-.14-.14-.25-.16-.41-.28L18.97 13H17l-1.5-6.27c-2.29-.23-4.71-.23-7 0L7 13H5.03L3 8.32c-.16.12-.27.14-.41.28-.64.46-1.631-.04-1.59-.84V4s0-3 11-3 11 3 11 3M6.9 7c-.9.2-1.75.43-2.53.71l1.5 3.56L6.9 7m12.73.71C18.85 7.43 18 7.2 17.1 7l1.03 4.27 1.5-3.56Z" transform="translate(216) scale(1.5)" id="mdi-paragliding" fill="#555"/><path d="M12 17c-1.1 0-2-.89-2-2s.9-2 2-2 2 .9 2 2-.89 2-2 2m7-3h-2c0 2.76-2.24 5-5 5s-5-2.24-5-5H5c0 2.79 1.64 5.19 4 6.32V23h6v-2.68c2.36-1.13 4-3.53 4-6.32m4-6.24c.04.8-.95 1.3-1.59.84-.14-.14-.25-.16-.41-.28L18.97 13H17l-1.5-6.27c-2.29-.23-4.71-.23-7 0L7 13H5.03L3 8.32c-.16.12-.27.14-.41.28-.64.46-1.631-.04-1.59-.84V4s0-3 11-3 11 3 11 3M6.9 7c-.9.2-1.75.43-2.53.71l1.5 3.56L6.9 7m12.73.71C18.85 7.43 18 7.2 17.1 7l1.03 4.27 1.5-3.56Z" transform="translate(252) scale(1.5)" id="mdi-paragliding" fill="#fff"/><path d="M13.2 11H10V7h3.2a2 2 0 0 1 2 2 2 2 0 0 1-2 2M13 3H6v18h4v-6h3a6 6 0 0 0 6-6c0-3.32-2.69-6-6-6Z" transform="translate(288) scale(1.5)" id="mdi-parking" fill="#555"/><path d="M13.2 11H10V7h3.2a2 2 0 0 1 2 2 2 2 0 0 1-2 2M13 3H6v18h4v-6h3a6 6 0 0 0 6-6c0-3.32-2.69-6-6-6Z" transform="translate(324) scale(1.5)" id="mdi-parking" fill="#fff"/><path d="m14.53 1.45-1.08 1.08 1.6 1.6c.22.25.33.54.33.87s-.11.64-.33.86L11.5 9.47l1 1.08 3.63-3.61c.53-.59.79-1.24.79-1.94s-.26-1.36-.79-1.95l-1.6-1.6m-3.98 2.02L9.47 4.55l.61.56c.22.22.33.52.33.89s-.11.67-.33.89l-.61.56 1.08 1.08.56-.61c.53-.59.8-1.23.8-1.92 0-.72-.27-1.37-.8-1.97l-.56-.56M21 5.06c-.69 0-1.33.27-1.92.8l-5.63 5.64 1.08 1 5.58-5.56c.25-.25.55-.38.89-.38s.64.13.89.38l.61.61 1.03-1.08-.56-.61c-.59-.53-1.25-.8-1.97-.8M7 8 2 22l14-5-9-9m12 3.06c-.7 0-1.34.27-1.94.8l-1.59 1.59 1.08 1.08 1.59-1.59c.25-.25.53-.38.86-.38.33 0 .63.13.88.38l1.62 1.59 1.05-1.03-1.6-1.64c-.59-.53-1.25-.8-1.95-.8Z" transform="translate(360) scale(1.5)" id="mdi-party-popper" fill="#555"/><path d="m14.53 1.45-1.08 1.08 1.6 1.6c.22.25.33.54.33.87s-.11.64-.33.86L11.5 9.47l1 1.08 3.63-3.61c.53-.59.79-1.24.79-1.94s-.26-1.36-.79-1.95l-1.6-1.6m-3.98 2.02L9.47 4.55l.61.56c.22.22.33.52.33.89s-.11.67-.33.89l-.61.56 1.08 1.08.56-.61c.53-.59.8-1.23.8-1.92 0-.72-.27-1.37-.8-1.97l-.56-.56M21 5.06c-.69 0-1.33.27-1.92.8l-5.63 5.64 1.08 1 5.58-5.56c.25-.25.55-.38.89-.38s.64.13.89.38l.61.61 1.03-1.08-.56-.61c-.59-.53-1.25-.8-1.97-.8M7 8 2 22l14-5-9-9m12 3.06c-.7 0-1.34.27-1.94.8l-1.59 1.59 1.08 1.08 1.59-1.59c.25-.25.53-.38.86-.38.33 0 .63.13.88.38l1.62 1.59 1.05-1.03-1.6-1.64c-.59-.53-1.25-.8-1.95-.8Z" transform="translate(396) scale(1.5)" id="mdi-party-popper" fill="#fff"/><path d="M6 2a2 2 0 0 0-2 2v16a2 2 0 0 0 2 2h12a2 2 0 0 0 2-2V4a2 2 0 0 0-2-2H6m6 3a5 5 0 0 1 5 5 5 5 0 0 1-5 5 5 5 0 0 1-5-5 5 5 0 0 1 5-5m0 1c-.41.62-.75 1.29-.96 2h1.92A7.23 7.23 0 0 0 12 6m-1.3.22C9.78 6.53 9 7.17 8.54 8H10c.18-.62.4-1.22.7-1.78m2.59 0c.3.56.53 1.16.71 1.78h1.46c-.46-.83-1.25-1.46-2.17-1.78M8.13 9c-.08.32-.13.65-.13 1s.05.68.13 1h1.69c-.04-.33-.07-.66-.07-1 0-.34.03-.67.07-1H8.13m2.7 0c-.05.32-.08.66-.08 1 0 .34.03.67.08 1h2.34c.04-.33.08-.66.08-1 0-.34-.04-.68-.08-1h-2.34m3.35 0c.04.33.07.66.07 1 0 .34-.03.67-.07 1h1.69c.08-.32.13-.65.13-1s-.05-.68-.13-1h-1.69m-5.64 3c.46.83 1.24 1.46 2.16 1.78-.3-.56-.52-1.15-.7-1.78H8.54m2.5 0c.21.72.55 1.38.96 2 .42-.62.75-1.28.96-2h-1.92M14 12c-.18.63-.41 1.22-.71 1.78.92-.32 1.71-.95 2.17-1.78H14m-7 5h10v2H7v-2Z" transform="translate(432) scale(1.5)" id="mdi-passport" fill="#555"/><path d="M6 2a2 2 0 0 0-2 2v16a2 2 0 0 0 2 2h12a2 2 0 0 0 2-2V4a2 2 0 0 0-2-2H6m6 3a5 5 0 0 1 5 5 5 5 0 0 1-5 5 5 5 0 0 1-5-5 5 5 0 0 1 5-5m0 1c-.41.62-.75 1.29-.96 2h1.92A7.23 7.23 0 0 0 12 6m-1.3.22C9.78 6.53 9 7.17 8.54 8H10c.18-.62.4-1.22.7-1.78m2.59 0c.3.56.53 1.16.71 1.78h1.46c-.46-.83-1.25-1.46-2.17-1.78M8.13 9c-.08.32-.13.65-.13 1s.05.68.13 1h1.69c-.04-.33-.07-.66-.07-1 0-.34.03-.67.07-1H8.13m2.7 0c-.05.32-.08.66-.08 1 0 .34.03.67.08 1h2.34c.04-.33.08-.66.08-1 0-.34-.04-.68-.08-1h-2.34m3.35 0c.04.33.07.66.07 1 0 .34-.03.67-.07 1h1.69c.08-.32.13-.65.13-1s-.05-.68-.13-1h-1.69m-5.64 3c.46.83 1.24 1.46 2.16 1.78-.3-.56-.52-1.15-.7-1.78H8.54m2.5 0c.21.72.55 1.38.96 2 .42-.62.75-1.28.96-2h-1.92M14 12c-.18.63-.41 1.22-.71 1.78.92-.32 1.71-.95 2.17-1.78H14m-7 5h10v2H7v-2Z" transform="translate(468) scale(1.5)" id="mdi-passport" fill="#fff"/><path d="M4 4a2 2 0 0 0-2 2v5h6.13c.46-1.76 2.05-3 3.87-3a4.01 4.01 0 0 1 3.87 3H22V6a2 2 0 0 0-2-2H4m8 6a2 2 0 0 0-2 2 2 2 0 0 0 2 2 2 2 0 0 0 2-2 2 2 0 0 0-2-2M2 13v5a2 2 0 0 0 2 2h16a2 2 0 0 0 2-2v-5h-6.13A4.01 4.01 0 0 1 12 16a4.01 4.01 0 0 1-3.87-3H2Z" transform="translate(504) scale(1.5)" id="mdi-passport-biometric" fill="#555"/><path d="M4 4a2 2 0 0 0-2 2v5h6.13c.46-1.76 2.05-3 3.87-3a4.01 4.01 0 0 1 3.87 3H22V6a2 2 0 0 0-2-2H4m8 6a2 2 0 0 0-2 2 2 2 0 0 0 2 2 2 2 0 0 0 2-2 2 2 0 0 0-2-2M2 13v5a2 2 0 0 0 2 2h16a2 2 0 0 0 2-2v-5h-6.13A4.01 4.01 0 0 1 12 16a4.01 4.01 0 0 1-3.87-3H2Z" transform="translate(540) scale(1.5)" id="mdi-passport-biometric" fill="#fff"/><path d="M4 16.5V8H3V7h1V6H3V5h1V4H3V3h6c.5.03.95.24 1.34.63s.61.87.66 1.37h10v1H11c-.05.53-.27 1-.66 1.43S9.5 8.05 9 8H7v7.05c.05 0 .13-.01.24-.05s.2 0 .26 0c.56 0 1.2.14 1.92.42.41-.92 1.11-1.74 2.11-2.42s2-1 3-1c1.53 0 2.83.53 3.89 1.59S20 15.95 20 17.5v.27c0 .13-.03.2-.03.23H3.14c.13-.5.41-1 .86-1.5m2-1.27V8H5v7.7c.5-.25.81-.4 1-.47M9 7V6H7v1h2m0-3H7v1h2V4M5 4v1h1V4H5m0 2v1h1V6H5M2 19h20l-2 2H4l-2-2Z" transform="translate(576) scale(1.5)" id="mdi-pasta" fill="#555"/><path d="M4 16.5V8H3V7h1V6H3V5h1V4H3V3h6c.5.03.95.24 1.34.63s.61.87.66 1.37h10v1H11c-.05.53-.27 1-.66 1.43S9.5 8.05 9 8H7v7.05c.05 0 .13-.01.24-.05s.2 0 .26 0c.56 0 1.2.14 1.92.42.41-.92 1.11-1.74 2.11-2.42s2-1 3-1c1.53 0 2.83.53 3.89 1.59S20 15.95 20 17.5v.27c0 .13-.03.2-.03.23H3.14c.13-.5.41-1 .86-1.5m2-1.27V8H5v7.7c.5-.25.81-.4 1-.47M9 7V6H7v1h2m0-3H7v1h2V4M5 4v1h1V4H5m0 2v1h1V6H5M2 19h20l-2 2H4l-2-2Z" transform="translate(612) scale(1.5)" id="mdi-pasta" fill="#fff"/><path d="M15 22H9v-1h6v1m4-18-4-2H9L5 4h14M8 5l.4 1h7.2l.4-1H8m2 5h1v5c-.6 0-1 .4-1 1v4h4v-4c0-.6-.4-1-1-1v-5h1l.4-1H9.6l.4 1m-.8-2h5.6l.4-1H8.8l.4 1Z" transform="translate(648) scale(1.5)" id="mdi-patio-heater" fill="#555"/><path d="M15 22H9v-1h6v1m4-18-4-2H9L5 4h14M8 5l.4 1h7.2l.4-1H8m2 5h1v5c-.6 0-1 .4-1 1v4h4v-4c0-.6-.4-1-1-1v-5h1l.4-1H9.6l.4 1m-.8-2h5.6l.4-1H8.8l.4 1Z" transform="translate(684) scale(1.5)" id="mdi-patio-heater" fill="#fff"/><path d="M14.82 2.41c3.96 0 7.18 3.24 7.18 7.21 0 3.96-3.22 7.18-7.18 7.18-3.97 0-7.21-3.22-7.21-7.18 0-3.97 3.24-7.21 7.21-7.21M2 21.6h3.5V2.41H2V21.6Z" transform="matrix(1.5 0 0 1.5 0 36)" id="mdi-patreon" fill="#555"/><path d="M14.82 2.41c3.96 0 7.18 3.24 7.18 7.21 0 3.96-3.22 7.18-7.18 7.18-3.97 0-7.21-3.22-7.21-7.18 0-3.97 3.24-7.21 7.21-7.21M2 21.6h3.5V2.41H2V21.6Z" transform="matrix(1.5 0 0 1.5 36 36)" id="mdi-patreon" fill="#fff"/><path d="M14 19h4V5h-4M6 19h4V5H6v14Z" transform="matrix(1.5 0 0 1.5 72 36)" id="mdi-pause" fill="#555"/><path d="M14 19h4V5h-4M6 19h4V5H6v14Z" transform="matrix(1.5 0 0 1.5 108 36)" id="mdi-pause" fill="#fff"/><path d="M15 16h-2V8h2m-4 8H9V8h2m1-6A10 10 0 0 0 2 12a10 10 0 0 0 10 10 10 10 0 0 0 10-10A10 10 0 0 0 12 2Z" transform="matrix(1.5 0 0 1.5 144 36)" id="mdi-pause-circle" fill="#555"/><path d="M15 16h-2V8h2m-4 8H9V8h2m1-6A10 10 0 0 0 2 12a10 10 0 0 0 10 10 10 10 0 0 0 10-10A10 10 0 0 0 12 2Z" transform="matrix(1.5 0 0 1.5 180 36)" id="mdi-pause-circle" fill="#fff"/><path d="M13 16V8h2v8h-2m-4 0V8h2v8H9m3-14a10 10 0 0 1 10 10 10 10 0 0 1-10 10A10 10 0 0 1 2 12 10 10 0 0 1 12 2m0 2a8 8 0 0 0-8 8 8 8 0 0 0 8 8 8 8 0 0 0 8-8 8 8 0 0 0-8-8Z" transform="matrix(1.5 0 0 1.5 216 36)" id="mdi-pause-circle-outline" fill="#555"/><path d="M13 16V8h2v8h-2m-4 0V8h2v8H9m3-14a10 10 0 0 1 10 10 10 10 0 0 1-10 10A10 10 0 0 1 2 12 10 10 0 0 1 12 2m0 2a8 8 0 0 0-8 8 8 8 0 0 0 8 8 8 8 0 0 0 8-8 8 8 0 0 0-8-8Z" transform="matrix(1.5 0 0 1.5 252 36)" id="mdi-pause-circle-outline" fill="#fff"/><path d="M15.73 3 21 8.27v7.46L15.73 21H8.27L3 15.73V8.27L8.27 3h7.46M15 16V8h-2v8h2m-4 0V8H9v8h2Z" transform="matrix(1.5 0 0 1.5 288 36)" id="mdi-pause-octagon" fill="#555"/><path d="M15.73 3 21 8.27v7.46L15.73 21H8.27L3 15.73V8.27L8.27 3h7.46M15 16V8h-2v8h2m-4 0V8H9v8h2Z" transform="matrix(1.5 0 0 1.5 324 36)" id="mdi-pause-octagon" fill="#fff"/><path d="M15 16h-2V8h2v8m-4 0H9V8h2v8m4.73-13L21 8.27v7.46L15.73 21H8.27L3 15.73V8.27L8.27 3h7.46m-.83 2H9.1L5 9.1v5.8L9.1 19h5.8l4.1-4.1V9.1L14.9 5Z" transform="matrix(1.5 0 0 1.5 360 36)" id="mdi-pause-octagon-outline" fill="#555"/><path d="M15 16h-2V8h2v8m-4 0H9V8h2v8m4.73-13L21 8.27v7.46L15.73 21H8.27L3 15.73V8.27L8.27 3h7.46m-.83 2H9.1L5 9.1v5.8L9.1 19h5.8l4.1-4.1V9.1L14.9 5Z" transform="matrix(1.5 0 0 1.5 396 36)" id="mdi-pause-octagon-outline" fill="#fff"/><path d="M8.35 3c1.18-.17 2.43 1.12 2.79 2.9.36 1.77-.29 3.35-1.47 3.53-1.17.18-2.43-1.11-2.8-2.89-.37-1.77.3-3.35 1.48-3.54m7.15 0c1.19.19 1.85 1.77 1.5 3.54-.38 1.78-1.63 3.07-2.81 2.89-1.19-.18-1.84-1.76-1.47-3.53.36-1.78 1.61-3.07 2.78-2.9M3 7.6c1.14-.49 2.69.4 3.5 1.95.76 1.58.5 3.24-.63 3.73-1.13.49-2.67-.39-3.46-1.96C1.62 9.75 1.9 8.08 3 7.6m18 0c1.1.48 1.38 2.15.59 3.72-.79 1.57-2.33 2.45-3.46 1.96-1.13-.49-1.39-2.15-.63-3.73C18.31 8 19.86 7.11 21 7.6m-1.67 10.78c.04.94-.68 1.98-1.54 2.37-1.79.82-3.91-.88-5.9-.88-1.99 0-4.13 1.77-5.89.88-1-.49-1.69-1.79-1.56-2.87.18-1.49 1.97-2.29 3.03-3.38 1.41-1.41 2.41-4.06 4.42-4.06 2 0 3.06 2.61 4.41 4.06 1.11 1.22 2.96 2.25 3.03 3.88Z" transform="matrix(1.5 0 0 1.5 432 36)" id="mdi-paw" fill="#555"/><path d="M8.35 3c1.18-.17 2.43 1.12 2.79 2.9.36 1.77-.29 3.35-1.47 3.53-1.17.18-2.43-1.11-2.8-2.89-.37-1.77.3-3.35 1.48-3.54m7.15 0c1.19.19 1.85 1.77 1.5 3.54-.38 1.78-1.63 3.07-2.81 2.89-1.19-.18-1.84-1.76-1.47-3.53.36-1.78 1.61-3.07 2.78-2.9M3 7.6c1.14-.49 2.69.4 3.5 1.95.76 1.58.5 3.24-.63 3.73-1.13.49-2.67-.39-3.46-1.96C1.62 9.75 1.9 8.08 3 7.6m18 0c1.1.48 1.38 2.15.59 3.72-.79 1.57-2.33 2.45-3.46 1.96-1.13-.49-1.39-2.15-.63-3.73C18.31 8 19.86 7.11 21 7.6m-1.67 10.78c.04.94-.68 1.98-1.54 2.37-1.79.82-3.91-.88-5.9-.88-1.99 0-4.13 1.77-5.89.88-1-.49-1.69-1.79-1.56-2.87.18-1.49 1.97-2.29 3.03-3.38 1.41-1.41 2.41-4.06 4.42-4.06 2 0 3.06 2.61 4.41 4.06 1.11 1.22 2.96 2.25 3.03 3.88Z" transform="matrix(1.5 0 0 1.5 468 36)" id="mdi-paw" fill="#fff"/><path d="M2 4.27 3.28 3 21.5 21.22l-1.27 1.28-2-2c-.14.1-.29.18-.44.25-1.79.82-3.91-.88-5.9-.88-1.99 0-4.13 1.77-5.89.88-1-.49-1.69-1.79-1.56-2.87.18-1.49 1.97-2.29 3.03-3.38.74-.73 1.37-1.81 2.08-2.68L2 4.27M8.35 3c1.18-.17 2.43 1.12 2.79 2.9.18.85.12 1.66-.14 2.29L7.03 4.2c.26-.65.72-1.1 1.32-1.2m7.15 0c1.19.19 1.85 1.77 1.5 3.54-.38 1.78-1.63 3.07-2.81 2.89-1.19-.18-1.84-1.76-1.47-3.53.36-1.78 1.61-3.07 2.78-2.9M3 7.6c1.14-.49 2.69.4 3.5 1.95.76 1.58.5 3.24-.63 3.73-1.13.49-2.67-.39-3.46-1.96C1.62 9.75 1.9 8.08 3 7.6m18 0c1.1.48 1.38 2.15.59 3.72-.79 1.57-2.33 2.45-3.46 1.96-1.13-.49-1.39-2.15-.63-3.73C18.31 8 19.86 7.11 21 7.6Z" transform="matrix(1.5 0 0 1.5 504 36)" id="mdi-paw-off" fill="#555"/><path d="M2 4.27 3.28 3 21.5 21.22l-1.27 1.28-2-2c-.14.1-.29.18-.44.25-1.79.82-3.91-.88-5.9-.88-1.99 0-4.13 1.77-5.89.88-1-.49-1.69-1.79-1.56-2.87.18-1.49 1.97-2.29 3.03-3.38.74-.73 1.37-1.81 2.08-2.68L2 4.27M8.35 3c1.18-.17 2.43 1.12 2.79 2.9.18.85.12 1.66-.14 2.29L7.03 4.2c.26-.65.72-1.1 1.32-1.2m7.15 0c1.19.19 1.85 1.77 1.5 3.54-.38 1.78-1.63 3.07-2.81 2.89-1.19-.18-1.84-1.76-1.47-3.53.36-1.78 1.61-3.07 2.78-2.9M3 7.6c1.14-.49 2.69.4 3.5 1.95.76 1.58.5 3.24-.63 3.73-1.13.49-2.67-.39-3.46-1.96C1.62 9.75 1.9 8.08 3 7.6m18 0c1.1.48 1.38 2.15.59 3.72-.79 1.57-2.33 2.45-3.46 1.96-1.13-.49-1.39-2.15-.63-3.73C18.31 8 19.86 7.11 21 7.6Z" transform="matrix(1.5 0 0 1.5 540 36)" id="mdi-paw-off" fill="#fff"/><path d="M22.83 8.25c-.27-.75-.78-1.29-1.44-1.57-1.17-.5-2.59-.08-3.69.98.11-.29.21-.6.3-.93.25-1.35 0-2.7-.62-3.61-.43-.62-1.05-1.01-1.74-1.12-1.54-.22-3.07 1.08-3.71 3-.65-1.95-2.19-3.24-3.74-3-.69.12-1.31.53-1.74 1.16l-.03.06 1.49 1.49c.05-.17.09-.31.19-.42.12-.17.26-.29.4-.29.5-.09 1.38.69 1.66 2.1.07.34.08.65.06.9l1.66 1.68c.01-.03.03-.06.05-.1.04.11.11.2.16.31l1.34 1.34a2.27 2.27 0 0 0 .98.22c.72 0 1.42-.33 2.02-.88-.43 1.07-.47 2.16-.14 3.06.27.72.78 1.28 1.44 1.57.34.14.7.21 1.07.21 1.38 0 2.86-1.01 3.7-2.64.58-1.19.71-2.47.33-3.52M16 6.33c-.28 1.4-1.17 2.17-1.66 2.11-.06-.01-.22-.03-.4-.29-.25-.36-.44-1.08-.24-2.05.27-1.34 1.1-2.1 1.59-2.1h.07c.14 0 .27.11.39.27.32.46.43 1.27.25 2.06m4.7 4.54c-.58 1.13-1.62 1.73-2.17 1.49-.06-.02-.25-.1-.37-.43-.16-.5-.09-1.25.23-1.93.51-.96 1.35-1.53 1.94-1.53.1 0 .17.03.27.03.15.08.27.22.35.44.14.4.15 1.12-.25 1.93M1.11 3 4.8 6.69c-.74-.28-1.51-.3-2.2-.01-.66.29-1.17.85-1.43 1.59-.377 1.04-.251 2.31.33 3.5.84 1.63 2.32 2.64 3.71 2.64.36 0 .72-.07 1.06-.21.66-.29 1.17-.85 1.44-1.57.29-.84.29-1.86-.07-2.87.19.15.4.27.6.37l1.49 1.49c-.79.88-1.46 2.08-2.26 2.88-1.06 1.09-2.85 1.89-3.03 3.38-.13 1.08.56 2.38 1.56 2.87.35.18.72.25 1.1.25 1.51 0 3.2-1.13 4.79-1.13 1.61 0 3.29 1.1 4.82 1.1.37 0 .73-.06 1.08-.22.21-.1.44-.25.64-.43l2.41 2.41 1.27-1.27L2.39 1.73 1.11 3m10.04 10.04L17 18.9c0 .01-.03.02-.04.03a.56.56 0 0 1-.25.04c-.43 0-1.08-.22-1.71-.43-.92-.31-1.97-.67-3.11-.67s-2.19.37-3.11.69c-.63.21-1.28.44-1.68.44-.13 0-.18 0-.22-.05-.22-.11-.48-.58-.45-.83.07-.23.8-.81 1.16-1.12.44-.32.91-.67 1.3-1.09.55-.55 1-1.18 1.44-1.79.22-.32.53-.74.82-1.08M5.6 10c.33.68.4 1.43.24 1.93-.13.33-.31.41-.37.43-.55.24-1.59-.36-2.17-1.49-.4-.81-.39-1.52-.25-1.93.08-.21.2-.36.35-.44.1 0 .17-.04.28-.04.58 0 1.42.57 1.92 1.54Z" transform="matrix(1.5 0 0 1.5 576 36)" id="mdi-paw-off-outline" fill="#555"/><path d="M22.83 8.25c-.27-.75-.78-1.29-1.44-1.57-1.17-.5-2.59-.08-3.69.98.11-.29.21-.6.3-.93.25-1.35 0-2.7-.62-3.61-.43-.62-1.05-1.01-1.74-1.12-1.54-.22-3.07 1.08-3.71 3-.65-1.95-2.19-3.24-3.74-3-.69.12-1.31.53-1.74 1.16l-.03.06 1.49 1.49c.05-.17.09-.31.19-.42.12-.17.26-.29.4-.29.5-.09 1.38.69 1.66 2.1.07.34.08.65.06.9l1.66 1.68c.01-.03.03-.06.05-.1.04.11.11.2.16.31l1.34 1.34a2.27 2.27 0 0 0 .98.22c.72 0 1.42-.33 2.02-.88-.43 1.07-.47 2.16-.14 3.06.27.72.78 1.28 1.44 1.57.34.14.7.21 1.07.21 1.38 0 2.86-1.01 3.7-2.64.58-1.19.71-2.47.33-3.52M16 6.33c-.28 1.4-1.17 2.17-1.66 2.11-.06-.01-.22-.03-.4-.29-.25-.36-.44-1.08-.24-2.05.27-1.34 1.1-2.1 1.59-2.1h.07c.14 0 .27.11.39.27.32.46.43 1.27.25 2.06m4.7 4.54c-.58 1.13-1.62 1.73-2.17 1.49-.06-.02-.25-.1-.37-.43-.16-.5-.09-1.25.23-1.93.51-.96 1.35-1.53 1.94-1.53.1 0 .17.03.27.03.15.08.27.22.35.44.14.4.15 1.12-.25 1.93M1.11 3 4.8 6.69c-.74-.28-1.51-.3-2.2-.01-.66.29-1.17.85-1.43 1.59-.377 1.04-.251 2.31.33 3.5.84 1.63 2.32 2.64 3.71 2.64.36 0 .72-.07 1.06-.21.66-.29 1.17-.85 1.44-1.57.29-.84.29-1.86-.07-2.87.19.15.4.27.6.37l1.49 1.49c-.79.88-1.46 2.08-2.26 2.88-1.06 1.09-2.85 1.89-3.03 3.38-.13 1.08.56 2.38 1.56 2.87.35.18.72.25 1.1.25 1.51 0 3.2-1.13 4.79-1.13 1.61 0 3.29 1.1 4.82 1.1.37 0 .73-.06 1.08-.22.21-.1.44-.25.64-.43l2.41 2.41 1.27-1.27L2.39 1.73 1.11 3m10.04 10.04L17 18.9c0 .01-.03.02-.04.03a.56.56 0 0 1-.25.04c-.43 0-1.08-.22-1.71-.43-.92-.31-1.97-.67-3.11-.67s-2.19.37-3.11.69c-.63.21-1.28.44-1.68.44-.13 0-.18 0-.22-.05-.22-.11-.48-.58-.45-.83.07-.23.8-.81 1.16-1.12.44-.32.91-.67 1.3-1.09.55-.55 1-1.18 1.44-1.79.22-.32.53-.74.82-1.08M5.6 10c.33.68.4 1.43.24 1.93-.13.33-.31.41-.37.43-.55.24-1.59-.36-2.17-1.49-.4-.81-.39-1.52-.25-1.93.08-.21.2-.36.35-.44.1 0 .17-.04.28-.04.58 0 1.42.57 1.92 1.54Z" transform="matrix(1.5 0 0 1.5 612 36)" id="mdi-paw-off-outline" fill="#fff"/><path d="M22.83 8.25c-.27-.75-.78-1.29-1.43-1.57-1.17-.5-2.59-.08-3.7.98.11-.29.21-.6.3-.93.25-1.35.03-2.7-.62-3.61-.43-.62-1.05-1.01-1.74-1.12-1.54-.22-3.07 1.08-3.71 3-.64-1.95-2.19-3.24-3.74-3-.69.12-1.31.53-1.74 1.16-.64.93-.84 2.23-.56 3.58.05.26.11.5.2.73C5 6.56 3.7 6.2 2.6 6.68c-.66.29-1.16.85-1.43 1.59-.376 1.04-.25 2.31.33 3.5.84 1.63 2.32 2.64 3.71 2.64.36 0 .72-.07 1.06-.21.66-.29 1.17-.85 1.44-1.57.32-.84.29-1.86-.07-2.87.55.43 1.17.69 1.81.69.12 0 .25-.01.37-.03.68-.1 1.3-.5 1.73-1.12.15-.22.28-.46.38-.72.1.26.22.5.37.71.43.62 1.05 1.02 1.74 1.13.12.02.25.03.37.03.72 0 1.42-.33 2.02-.88-.43 1.07-.47 2.16-.14 3.06.27.73.78 1.28 1.44 1.57.34.14.7.21 1.07.21 1.38 0 2.86-1.01 3.7-2.64.58-1.19.71-2.47.33-3.52M5.84 11.93c-.12.33-.31.41-.37.43-.55.24-1.59-.36-2.17-1.49-.4-.81-.39-1.52-.25-1.93.08-.21.2-.36.35-.44.1 0 .18-.04.28-.04.58 0 1.42.57 1.92 1.54.33.68.43 1.43.24 1.93m4.07-3.77c-.12.16-.25.26-.41.28-.5.06-1.36-.71-1.65-2.1-.2-.96 0-1.68.25-2.05.12-.17.26-.29.4-.29.5-.09 1.38.69 1.66 2.1.2.97 0 1.7-.25 2.06M16 6.33c-.28 1.4-1.17 2.17-1.66 2.11-.06-.01-.22-.03-.4-.29-.25-.36-.44-1.08-.24-2.05.27-1.34 1.1-2.1 1.59-2.1h.07c.14 0 .27.11.39.27.32.46.43 1.27.25 2.06m4.7 4.54c-.58 1.13-1.62 1.73-2.17 1.49-.06-.02-.25-.1-.37-.43-.16-.5-.09-1.25.23-1.93.51-.96 1.36-1.53 1.94-1.53.1 0 .17.03.27.03h.01c.15.08.26.22.34.44.15.4.16 1.12-.25 1.93m-4.4 3.63c-1.35-1.45-2.41-4.06-4.41-4.06-2.01 0-3.01 2.65-4.42 4.06-1.06 1.09-2.85 1.89-3.03 3.38-.13 1.08.56 2.38 1.56 2.87.35.18.72.25 1.1.25 1.51 0 3.2-1.13 4.79-1.13 1.61 0 3.29 1.1 4.82 1.1.37 0 .73-.06 1.08-.22.86-.39 1.58-1.43 1.54-2.37-.07-1.63-1.92-2.66-3.03-3.88m.66 4.43a.56.56 0 0 1-.25.04c-.42 0-1.08-.22-1.71-.43-.92-.31-1.97-.67-3.11-.67s-2.19.37-3.11.69c-.63.21-1.28.44-1.68.44-.13 0-.18 0-.22-.05-.22-.11-.48-.58-.45-.83.07-.23.8-.81 1.16-1.12.44-.32.91-.67 1.3-1.09.55-.55 1-1.18 1.44-1.79.45-.62 1.2-1.68 1.56-1.68.4 0 1.19 1.12 1.67 1.78.39.56.8 1.13 1.26 1.63.39.42.8.79 1.18 1.15.54.45 1.32 1.14 1.33 1.44-.01.14-.21.42-.37.49Z" transform="matrix(1.5 0 0 1.5 648 36)" id="mdi-paw-outline" fill="#555"/><path d="M22.83 8.25c-.27-.75-.78-1.29-1.43-1.57-1.17-.5-2.59-.08-3.7.98.11-.29.21-.6.3-.93.25-1.35.03-2.7-.62-3.61-.43-.62-1.05-1.01-1.74-1.12-1.54-.22-3.07 1.08-3.71 3-.64-1.95-2.19-3.24-3.74-3-.69.12-1.31.53-1.74 1.16-.64.93-.84 2.23-.56 3.58.05.26.11.5.2.73C5 6.56 3.7 6.2 2.6 6.68c-.66.29-1.16.85-1.43 1.59-.376 1.04-.25 2.31.33 3.5.84 1.63 2.32 2.64 3.71 2.64.36 0 .72-.07 1.06-.21.66-.29 1.17-.85 1.44-1.57.32-.84.29-1.86-.07-2.87.55.43 1.17.69 1.81.69.12 0 .25-.01.37-.03.68-.1 1.3-.5 1.73-1.12.15-.22.28-.46.38-.72.1.26.22.5.37.71.43.62 1.05 1.02 1.74 1.13.12.02.25.03.37.03.72 0 1.42-.33 2.02-.88-.43 1.07-.47 2.16-.14 3.06.27.73.78 1.28 1.44 1.57.34.14.7.21 1.07.21 1.38 0 2.86-1.01 3.7-2.64.58-1.19.71-2.47.33-3.52M5.84 11.93c-.12.33-.31.41-.37.43-.55.24-1.59-.36-2.17-1.49-.4-.81-.39-1.52-.25-1.93.08-.21.2-.36.35-.44.1 0 .18-.04.28-.04.58 0 1.42.57 1.92 1.54.33.68.43 1.43.24 1.93m4.07-3.77c-.12.16-.25.26-.41.28-.5.06-1.36-.71-1.65-2.1-.2-.96 0-1.68.25-2.05.12-.17.26-.29.4-.29.5-.09 1.38.69 1.66 2.1.2.97 0 1.7-.25 2.06M16 6.33c-.28 1.4-1.17 2.17-1.66 2.11-.06-.01-.22-.03-.4-.29-.25-.36-.44-1.08-.24-2.05.27-1.34 1.1-2.1 1.59-2.1h.07c.14 0 .27.11.39.27.32.46.43 1.27.25 2.06m4.7 4.54c-.58 1.13-1.62 1.73-2.17 1.49-.06-.02-.25-.1-.37-.43-.16-.5-.09-1.25.23-1.93.51-.96 1.36-1.53 1.94-1.53.1 0 .17.03.27.03h.01c.15.08.26.22.34.44.15.4.16 1.12-.25 1.93m-4.4 3.63c-1.35-1.45-2.41-4.06-4.41-4.06-2.01 0-3.01 2.65-4.42 4.06-1.06 1.09-2.85 1.89-3.03 3.38-.13 1.08.56 2.38 1.56 2.87.35.18.72.25 1.1.25 1.51 0 3.2-1.13 4.79-1.13 1.61 0 3.29 1.1 4.82 1.1.37 0 .73-.06 1.08-.22.86-.39 1.58-1.43 1.54-2.37-.07-1.63-1.92-2.66-3.03-3.88m.66 4.43a.56.56 0 0 1-.25.04c-.42 0-1.08-.22-1.71-.43-.92-.31-1.97-.67-3.11-.67s-2.19.37-3.11.69c-.63.21-1.28.44-1.68.44-.13 0-.18 0-.22-.05-.22-.11-.48-.58-.45-.83.07-.23.8-.81 1.16-1.12.44-.32.91-.67 1.3-1.09.55-.55 1-1.18 1.44-1.79.45-.62 1.2-1.68 1.56-1.68.4 0 1.19 1.12 1.67 1.78.39.56.8 1.13 1.26 1.63.39.42.8.79 1.18 1.15.54.45 1.32 1.14 1.33 1.44-.01.14-.21.42-.37.49Z" transform="matrix(1.5 0 0 1.5 684 36)" id="mdi-paw-outline" fill="#fff"/><path d="M12 2A10 10 0 0 0 2 12a10 10 0 0 0 10 10 10 10 0 0 0 10-10A10 10 0 0 0 12 2m-1 12.41v5.52a7.988 7.988 0 0 1-3.9-1.62l3.9-3.9m2 0 3.9 3.9a7.988 7.988 0 0 1-3.9 1.62v-5.52M4 12c0-4.03 3-7.43 7-7.93v7.52L5.69 16.9A7.913 7.913 0 0 1 4 12m14.31 4.9L13 11.59V4.07c4 .5 7 3.9 7 7.93 0 1.78-.59 3.5-1.69 4.9Z" transform="matrix(1.5 0 0 1.5 0 72)" id="mdi-peace" fill="#555"/><path d="M12 2A10 10 0 0 0 2 12a10 10 0 0 0 10 10 10 10 0 0 0 10-10A10 10 0 0 0 12 2m-1 12.41v5.52a7.988 7.988 0 0 1-3.9-1.62l3.9-3.9m2 0 3.9 3.9a7.988 7.988 0 0 1-3.9 1.62v-5.52M4 12c0-4.03 3-7.43 7-7.93v7.52L5.69 16.9A7.913 7.913 0 0 1 4 12m14.31 4.9L13 11.59V4.07c4 .5 7 3.9 7 7.93 0 1.78-.59 3.5-1.69 4.9Z" transform="matrix(1.5 0 0 1.5 36 72)" id="mdi-peace" fill="#fff"/><path d="M16 12.77a2 2 0 0 1-.14-2.65 5 5 0 0 0-2.82-8A5.74 5.74 0 0 0 12 2a5 5 0 0 0-5 5 5 5 0 0 0 1.11 3.12 2 2 0 0 1-.11 2.6 5.5 5.5 0 0 0 2.81 9.15A5.42 5.42 0 0 0 12 22a5.5 5.5 0 0 0 4-9.23M13 5a1 1 0 1 1-1 1 1 1 0 0 1 1-1m-2 13a1 1 0 1 1 1-1 1 1 0 0 1-1 1m1-3a1 1 0 1 1 1 1 1 1 0 0 1-1-1m2 4a1 1 0 1 1 1-1 1 1 0 0 1-1 1Z" transform="matrix(1.5 0 0 1.5 72 72)" id="mdi-peanut" fill="#555"/><path d="M16 12.77a2 2 0 0 1-.14-2.65 5 5 0 0 0-2.82-8A5.74 5.74 0 0 0 12 2a5 5 0 0 0-5 5 5 5 0 0 0 1.11 3.12 2 2 0 0 1-.11 2.6 5.5 5.5 0 0 0 2.81 9.15A5.42 5.42 0 0 0 12 22a5.5 5.5 0 0 0 4-9.23M13 5a1 1 0 1 1-1 1 1 1 0 0 1 1-1m-2 13a1 1 0 1 1 1-1 1 1 0 0 1-1 1m1-3a1 1 0 1 1 1 1 1 1 0 0 1-1-1m2 4a1 1 0 1 1 1-1 1 1 0 0 1-1 1Z" transform="matrix(1.5 0 0 1.5 108 72)" id="mdi-peanut" fill="#fff"/><path d="M15.9 10.12a5 5 0 0 0-2.82-8A5.74 5.74 0 0 0 12 2a5 5 0 0 0-4.32 2.5l8.7 8.68a4.35 4.35 0 0 0-.34-.41 2 2 0 0 1-.14-2.65M13 7a1 1 0 1 1 1-1 1 1 0 0 1-1 1m-6-.61L2.39 1.73 1.11 3 7.8 9.69c.1.15.2.31.31.43a2 2 0 0 1-.11 2.6 5.5 5.5 0 0 0 2.81 9.15A5.42 5.42 0 0 0 12 22a5.5 5.5 0 0 0 5-3.14l3.87 3.87 1.27-1.27M11 18a1 1 0 1 1 1-1 1 1 0 0 1-1 1m3 1a1 1 0 1 1 1-1 1 1 0 0 1-1 1m-1-3a1 1 0 0 1-1-1 1 1 0 0 1 .35-.76l1.41 1.41A1 1 0 0 1 13 16Z" transform="matrix(1.5 0 0 1.5 144 72)" id="mdi-peanut-off" fill="#555"/><path d="M15.9 10.12a5 5 0 0 0-2.82-8A5.74 5.74 0 0 0 12 2a5 5 0 0 0-4.32 2.5l8.7 8.68a4.35 4.35 0 0 0-.34-.41 2 2 0 0 1-.14-2.65M13 7a1 1 0 1 1 1-1 1 1 0 0 1-1 1m-6-.61L2.39 1.73 1.11 3 7.8 9.69c.1.15.2.31.31.43a2 2 0 0 1-.11 2.6 5.5 5.5 0 0 0 2.81 9.15A5.42 5.42 0 0 0 12 22a5.5 5.5 0 0 0 5-3.14l3.87 3.87 1.27-1.27M11 18a1 1 0 1 1 1-1 1 1 0 0 1-1 1m3 1a1 1 0 1 1 1-1 1 1 0 0 1-1 1m-1-3a1 1 0 0 1-1-1 1 1 0 0 1 .35-.76l1.41 1.41A1 1 0 0 1 13 16Z" transform="matrix(1.5 0 0 1.5 180 72)" id="mdi-peanut-off" fill="#fff"/><path d="m22.11 21.46-1.27 1.27-3.15-3.15c-.33.63-.76 1.19-1.28 1.67a6.432 6.432 0 0 1-5.8 1.6c-3.51-.75-5.74-4.21-4.99-7.72.25-1.18.83-2.26 1.66-3.13a.93.93 0 0 0 0-1.28 6.029 6.029 0 0 1-1.24-2.79L1.11 3l1.28-1.27 19.72 19.73m-6.81-1.9c.39-.43.7-.93.89-1.48l-2.44-2.44c-.18.23-.46.36-.75.36-.55 0-1-.45-1-1 0-.29.13-.57.36-.75l-2.81-2.81c-.02.74-.31 1.44-.82 1.97-1.7 1.81-1.6 4.66.21 6.36l.01.01a4.5 4.5 0 0 0 6.35-.22M14 17c-1.29 0-1.28 2 0 2s1.29-2 0-2M6.9 3.7l1.53 1.53c.25-.52.62-.98 1.07-1.34.7-.58 1.59-.89 2.5-.89h.88c.59.14 1.12.41 1.62.79 1.72 1.38 2 3.9.62 5.62a3.01 3.01 0 0 0-.67 1.84l3.87 3.87c-.25-1.15-.82-2.2-1.6-3.06-.35-.36-.39-.93-.1-1.34C16.62 10.72 18 9 18 7S15.97.997 12 .997 6.9 3.7 6.9 3.7M12 17c0-1.29-2-1.28-2 0s2 1.29 2 0m1-12c-1.29 0-1.28 2 0 2s1.29-2 0-2Z" transform="matrix(1.5 0 0 1.5 216 72)" id="mdi-peanut-off-outline" fill="#555"/><path d="m22.11 21.46-1.27 1.27-3.15-3.15c-.33.63-.76 1.19-1.28 1.67a6.432 6.432 0 0 1-5.8 1.6c-3.51-.75-5.74-4.21-4.99-7.72.25-1.18.83-2.26 1.66-3.13a.93.93 0 0 0 0-1.28 6.029 6.029 0 0 1-1.24-2.79L1.11 3l1.28-1.27 19.72 19.73m-6.81-1.9c.39-.43.7-.93.89-1.48l-2.44-2.44c-.18.23-.46.36-.75.36-.55 0-1-.45-1-1 0-.29.13-.57.36-.75l-2.81-2.81c-.02.74-.31 1.44-.82 1.97-1.7 1.81-1.6 4.66.21 6.36l.01.01a4.5 4.5 0 0 0 6.35-.22M14 17c-1.29 0-1.28 2 0 2s1.29-2 0-2M6.9 3.7l1.53 1.53c.25-.52.62-.98 1.07-1.34.7-.58 1.59-.89 2.5-.89h.88c.59.14 1.12.41 1.62.79 1.72 1.38 2 3.9.62 5.62a3.01 3.01 0 0 0-.67 1.84l3.87 3.87c-.25-1.15-.82-2.2-1.6-3.06-.35-.36-.39-.93-.1-1.34C16.62 10.72 18 9 18 7S15.97.997 12 .997 6.9 3.7 6.9 3.7M12 17c0-1.29-2-1.28-2 0s2 1.29 2 0m1-12c-1.29 0-1.28 2 0 2s1.29-2 0-2Z" transform="matrix(1.5 0 0 1.5 252 72)" id="mdi-peanut-off-outline" fill="#fff"/><path d="M12 23c-.47 0-.93-.05-1.39-.15-3.51-.75-5.74-4.21-4.99-7.72.25-1.18.83-2.26 1.66-3.13a.93.93 0 0 0 0-1.28c-2.08-2.58-1.68-6.36.9-8.44s6.36-1.673 8.44.91c1.77 2.19 1.77 5.31 0 7.53-.29.41-.25.98.1 1.34 2.45 2.62 2.32 6.74-.31 9.19A6.443 6.443 0 0 1 12 23m0-20c-.91 0-1.8.31-2.5.89a3.978 3.978 0 0 0-.62 5.61c.96 1.14.89 2.83-.15 3.91-1.7 1.81-1.6 4.66.21 6.36s4.66 1.61 6.36-.21a4.499 4.499 0 0 0 0-6.15 3 3 0 0 1-.18-4 4.002 4.002 0 0 0-.62-5.62c-.5-.38-1.03-.65-1.62-.79H12m0 3c0 .55.45 1 1 1s1-.45 1-1-.45-1-1-1-1 .45-1 1m2 13c.55 0 1-.45 1-1s-.45-1-1-1-1 .45-1 1 .45 1 1 1m-1-3c.55 0 1-.45 1-1s-.45-1-1-1-1 .45-1 1 .45 1 1 1m-2 2c.55 0 1-.45 1-1s-.45-1-1-1-1 .45-1 1 .45 1 1 1Z" transform="matrix(1.5 0 0 1.5 288 72)" id="mdi-peanut-outline" fill="#555"/><path d="M12 23c-.47 0-.93-.05-1.39-.15-3.51-.75-5.74-4.21-4.99-7.72.25-1.18.83-2.26 1.66-3.13a.93.93 0 0 0 0-1.28c-2.08-2.58-1.68-6.36.9-8.44s6.36-1.673 8.44.91c1.77 2.19 1.77 5.31 0 7.53-.29.41-.25.98.1 1.34 2.45 2.62 2.32 6.74-.31 9.19A6.443 6.443 0 0 1 12 23m0-20c-.91 0-1.8.31-2.5.89a3.978 3.978 0 0 0-.62 5.61c.96 1.14.89 2.83-.15 3.91-1.7 1.81-1.6 4.66.21 6.36s4.66 1.61 6.36-.21a4.499 4.499 0 0 0 0-6.15 3 3 0 0 1-.18-4 4.002 4.002 0 0 0-.62-5.62c-.5-.38-1.03-.65-1.62-.79H12m0 3c0 .55.45 1 1 1s1-.45 1-1-.45-1-1-1-1 .45-1 1m2 13c.55 0 1-.45 1-1s-.45-1-1-1-1 .45-1 1 .45 1 1 1m-1-3c.55 0 1-.45 1-1s-.45-1-1-1-1 .45-1 1 .45 1 1 1m-2 2c.55 0 1-.45 1-1s-.45-1-1-1-1 .45-1 1 .45 1 1 1Z" transform="matrix(1.5 0 0 1.5 324 72)" id="mdi-peanut-outline" fill="#fff"/><path d="M20.71 7.04c-.34.34-.67.67-.68 1-.03.32.31.65.63.96.48.5.95.95.93 1.44-.02.49-.53 1-1.04 1.5l-4.13 4.14L15 14.66l4.25-4.24-.96-.96-1.42 1.41-3.75-3.75 3.84-3.83c.39-.39 1.04-.39 1.41 0l2.34 2.34c.39.37.39 1.02 0 1.41M3 17.25l9.56-9.57 3.75 3.75L6.75 21H3v-3.75Z" transform="matrix(1.5 0 0 1.5 360 72)" id="mdi-pen" fill="#555"/><path d="M20.71 7.04c-.34.34-.67.67-.68 1-.03.32.31.65.63.96.48.5.95.95.93 1.44-.02.49-.53 1-1.04 1.5l-4.13 4.14L15 14.66l4.25-4.24-.96-.96-1.42 1.41-3.75-3.75 3.84-3.83c.39-.39 1.04-.39 1.41 0l2.34 2.34c.39.37.39 1.02 0 1.41M3 17.25l9.56-9.57 3.75 3.75L6.75 21H3v-3.75Z" transform="matrix(1.5 0 0 1.5 396 72)" id="mdi-pen" fill="#fff"/><path d="M21.7 7c-.3.4-.7.7-.7 1 0 .3.3.6.6 1 .5.5 1 .9.9 1.4 0 .5-.5 1-1 1.5L17.4 16 16 14.7l4.2-4.2-1-1-1.4 1.4L14 7.1l4-3.8c.4-.4 1-.4 1.4 0l2.3 2.3c.4.4.4 1.1 0 1.4M4 17.2l9.6-9.6 3.7 3.8L7.8 21H4v-3.8M8 5v-.5C8 3.1 6.9 2 5.5 2S3 3.1 3 4.5V5c-.6 0-1 .4-1 1v4c0 .6.4 1 1 1h5c.6 0 1-.4 1-1V6c0-.6-.4-1-1-1M7 5H4v-.5C4 3.7 4.7 3 5.5 3S7 3.7 7 4.5V5Z" transform="matrix(1.5 0 0 1.5 432 72)" id="mdi-pen-lock" fill="#555"/><path d="M21.7 7c-.3.4-.7.7-.7 1 0 .3.3.6.6 1 .5.5 1 .9.9 1.4 0 .5-.5 1-1 1.5L17.4 16 16 14.7l4.2-4.2-1-1-1.4 1.4L14 7.1l4-3.8c.4-.4 1-.4 1.4 0l2.3 2.3c.4.4.4 1.1 0 1.4M4 17.2l9.6-9.6 3.7 3.8L7.8 21H4v-3.8M8 5v-.5C8 3.1 6.9 2 5.5 2S3 3.1 3 4.5V5c-.6 0-1 .4-1 1v4c0 .6.4 1 1 1h5c.6 0 1-.4 1-1V6c0-.6-.4-1-1-1M7 5H4v-.5C4 3.7 4.7 3 5.5 3S7 3.7 7 4.5V5Z" transform="matrix(1.5 0 0 1.5 468 72)" id="mdi-pen-lock" fill="#fff"/><path d="M20.7 7c-.3.4-.7.7-.7 1 0 .3.3.6.6 1 .5.5 1 .9.9 1.4 0 .5-.5 1-1 1.5L16.4 16 15 14.7l4.2-4.2-1-1-1.4 1.4L13 7.1l4-3.8c.4-.4 1-.4 1.4 0l2.3 2.3c.4.4.4 1.1 0 1.4M3 17.2l9.6-9.6 3.7 3.8L6.8 21H3v-3.8M10 5v2H2V5h8Z" transform="matrix(1.5 0 0 1.5 504 72)" id="mdi-pen-minus" fill="#555"/><path d="M20.7 7c-.3.4-.7.7-.7 1 0 .3.3.6.6 1 .5.5 1 .9.9 1.4 0 .5-.5 1-1 1.5L16.4 16 15 14.7l4.2-4.2-1-1-1.4 1.4L13 7.1l4-3.8c.4-.4 1-.4 1.4 0l2.3 2.3c.4.4.4 1.1 0 1.4M3 17.2l9.6-9.6 3.7 3.8L6.8 21H3v-3.8M10 5v2H2V5h8Z" transform="matrix(1.5 0 0 1.5 540 72)" id="mdi-pen-minus" fill="#fff"/><path d="M2.3 5 1 6.3l6.5 6.5L3 17.2V21h3.8l4.5-4.5 6.5 6.5 1.3-1.3L2.3 5m14.6 5.9-3.8-3.8L17 3.3c.4-.4 1-.4 1.4 0l2.3 2.3c.4.4.4 1 0 1.4-.3.4-.7.7-.7 1 0 .3.3.7.6 1 .5.5 1 1 .9 1.4 0 .5-.5 1-1 1.5L16.4 16 15 14.7l4.2-4.2-1-1-1.3 1.4m-6.9-.7 2.5-2.5 3.8 3.8-2.5 2.5-3.8-3.8Z" transform="matrix(1.5 0 0 1.5 576 72)" id="mdi-pen-off" fill="#555"/><path d="M2.3 5 1 6.3l6.5 6.5L3 17.2V21h3.8l4.5-4.5 6.5 6.5 1.3-1.3L2.3 5m14.6 5.9-3.8-3.8L17 3.3c.4-.4 1-.4 1.4 0l2.3 2.3c.4.4.4 1 0 1.4-.3.4-.7.7-.7 1 0 .3.3.7.6 1 .5.5 1 1 .9 1.4 0 .5-.5 1-1 1.5L16.4 16 15 14.7l4.2-4.2-1-1-1.3 1.4m-6.9-.7 2.5-2.5 3.8 3.8-2.5 2.5-3.8-3.8Z" transform="matrix(1.5 0 0 1.5 612 72)" id="mdi-pen-off" fill="#fff"/><path d="M20.7 7c-.3.4-.7.7-.7 1 0 .3.3.6.6 1 .5.5 1 .9.9 1.4 0 .5-.5 1-1 1.5L16.4 16 15 14.7l4.2-4.2-1-1-1.4 1.4L13 7.1l4-3.8c.4-.4 1-.4 1.4 0l2.3 2.3c.4.4.4 1.1 0 1.4M3 17.2l9.6-9.6 3.7 3.8L6.8 21H3v-3.8M7 2v3h3v2H7v3H5V7H2V5h3V2h2Z" transform="matrix(1.5 0 0 1.5 648 72)" id="mdi-pen-plus" fill="#555"/><path d="M20.7 7c-.3.4-.7.7-.7 1 0 .3.3.6.6 1 .5.5 1 .9.9 1.4 0 .5-.5 1-1 1.5L16.4 16 15 14.7l4.2-4.2-1-1-1.4 1.4L13 7.1l4-3.8c.4-.4 1-.4 1.4 0l2.3 2.3c.4.4.4 1.1 0 1.4M3 17.2l9.6-9.6 3.7 3.8L6.8 21H3v-3.8M7 2v3h3v2H7v3H5V7H2V5h3V2h2Z" transform="matrix(1.5 0 0 1.5 684 72)" id="mdi-pen-plus" fill="#fff"/><path d="M20.7 7c-.3.4-.7.7-.7 1 0 .3.3.6.6 1 .5.5 1 .9.9 1.4 0 .5-.5 1-1 1.5L16.4 16 15 14.7l4.2-4.2-1-1-1.4 1.4L13 7.1l4-3.8c.4-.4 1-.4 1.4 0l2.3 2.3c.4.4.4 1.1 0 1.4M3 17.2l9.6-9.6 3.7 3.8L6.8 21H3v-3.8m.88-14.74L6 4.59l2.12-2.13 1.42 1.42L7.41 6l2.13 2.12-1.42 1.42L6 7.41 3.88 9.54 2.46 8.12 4.59 6 2.46 3.88l1.42-1.42Z" transform="matrix(1.5 0 0 1.5 0 108)" id="mdi-pen-remove" fill="#555"/><path d="M20.7 7c-.3.4-.7.7-.7 1 0 .3.3.6.6 1 .5.5 1 .9.9 1.4 0 .5-.5 1-1 1.5L16.4 16 15 14.7l4.2-4.2-1-1-1.4 1.4L13 7.1l4-3.8c.4-.4 1-.4 1.4 0l2.3 2.3c.4.4.4 1.1 0 1.4M3 17.2l9.6-9.6 3.7 3.8L6.8 21H3v-3.8m.88-14.74L6 4.59l2.12-2.13 1.42 1.42L7.41 6l2.13 2.12-1.42 1.42L6 7.41 3.88 9.54 2.46 8.12 4.59 6 2.46 3.88l1.42-1.42Z" transform="matrix(1.5 0 0 1.5 36 108)" id="mdi-pen-remove" fill="#fff"/><path d="M20.71 7.04c.39-.39.39-1.04 0-1.41l-2.34-2.34c-.37-.39-1.02-.39-1.41 0l-1.84 1.83 3.75 3.75M3 17.25V21h3.75L17.81 9.93l-3.75-3.75L3 17.25Z" transform="matrix(1.5 0 0 1.5 72 108)" id="mdi-pencil" fill="#555"/><path d="M20.71 7.04c.39-.39.39-1.04 0-1.41l-2.34-2.34c-.37-.39-1.02-.39-1.41 0l-1.84 1.83 3.75 3.75M3 17.25V21h3.75L17.81 9.93l-3.75-3.75L3 17.25Z" transform="matrix(1.5 0 0 1.5 108 108)" id="mdi-pencil" fill="#fff"/><path d="M19 3a2 2 0 0 1 2 2v14a2 2 0 0 1-2 2H5a2 2 0 0 1-2-2V5a2 2 0 0 1 2-2h14m-2.3 6.35c.22-.21.22-.56 0-.77L15.42 7.3a.532.532 0 0 0-.77 0l-1 1 2.05 2.05 1-1M7 14.94V17h2.06l6.06-6.06-2.06-2.06L7 14.94Z" transform="matrix(1.5 0 0 1.5 144 108)" id="mdi-pencil-box" fill="#555"/><path d="M19 3a2 2 0 0 1 2 2v14a2 2 0 0 1-2 2H5a2 2 0 0 1-2-2V5a2 2 0 0 1 2-2h14m-2.3 6.35c.22-.21.22-.56 0-.77L15.42 7.3a.532.532 0 0 0-.77 0l-1 1 2.05 2.05 1-1M7 14.94V17h2.06l6.06-6.06-2.06-2.06L7 14.94Z" transform="matrix(1.5 0 0 1.5 180 108)" id="mdi-pencil-box" fill="#fff"/><path d="M20.22 2H7.78C6.8 2 6 2.8 6 3.78v12.44C6 17.2 6.8 18 7.78 18h12.44c.98 0 1.78-.79 1.78-1.78V3.78C22 2.8 21.2 2 20.22 2m-9.16 13H9v-2.06l6.06-6.06 2.06 2.06L11.06 15m7.64-7.65-1 1-2.05-2.05 1-1c.21-.22.56-.22.77 0l1.28 1.28c.22.21.22.56 0 .77M4 6H2v14a2 2 0 0 0 2 2h14v-2H4V6Z" transform="matrix(1.5 0 0 1.5 216 108)" id="mdi-pencil-box-multiple" fill="#555"/><path d="M20.22 2H7.78C6.8 2 6 2.8 6 3.78v12.44C6 17.2 6.8 18 7.78 18h12.44c.98 0 1.78-.79 1.78-1.78V3.78C22 2.8 21.2 2 20.22 2m-9.16 13H9v-2.06l6.06-6.06 2.06 2.06L11.06 15m7.64-7.65-1 1-2.05-2.05 1-1c.21-.22.56-.22.77 0l1.28 1.28c.22.21.22.56 0 .77M4 6H2v14a2 2 0 0 0 2 2h14v-2H4V6Z" transform="matrix(1.5 0 0 1.5 252 108)" id="mdi-pencil-box-multiple" fill="#fff"/><path d="M4 6H2v14a2 2 0 0 0 2 2h14v-2H4V6m14.7 1.35-1 1-2.05-2.05 1-1c.21-.22.56-.22.77 0l1.28 1.28c.22.21.22.56 0 .77M9 12.94l6.06-6.06 2.06 2.06L11.06 15H9v-2.06M20 4v12H8V4h12m0-2H8c-1.1 0-2 .9-2 2v12c0 1.1.9 2 2 2h12c1.1 0 2-.9 2-2V4c0-1.1-.9-2-2-2Z" transform="matrix(1.5 0 0 1.5 288 108)" id="mdi-pencil-box-multiple-outline" fill="#555"/><path d="M4 6H2v14a2 2 0 0 0 2 2h14v-2H4V6m14.7 1.35-1 1-2.05-2.05 1-1c.21-.22.56-.22.77 0l1.28 1.28c.22.21.22.56 0 .77M9 12.94l6.06-6.06 2.06 2.06L11.06 15H9v-2.06M20 4v12H8V4h12m0-2H8c-1.1 0-2 .9-2 2v12c0 1.1.9 2 2 2h12c1.1 0 2-.9 2-2V4c0-1.1-.9-2-2-2Z" transform="matrix(1.5 0 0 1.5 324 108)" id="mdi-pencil-box-multiple-outline" fill="#fff"/><path d="M19 19V5H5v14h14m0-16a2 2 0 0 1 2 2v14a2 2 0 0 1-2 2H5a2 2 0 0 1-2-2V5a2 2 0 0 1 2-2h14m-2.3 6.35-1 1-2.05-2.05 1-1c.21-.22.56-.22.77 0l1.28 1.28c.22.21.22.56 0 .77M7 14.94l6.06-6.06 2.06 2.06L9.06 17H7v-2.06Z" transform="matrix(1.5 0 0 1.5 360 108)" id="mdi-pencil-box-outline" fill="#555"/><path d="M19 19V5H5v14h14m0-16a2 2 0 0 1 2 2v14a2 2 0 0 1-2 2H5a2 2 0 0 1-2-2V5a2 2 0 0 1 2-2h14m-2.3 6.35-1 1-2.05-2.05 1-1c.21-.22.56-.22.77 0l1.28 1.28c.22.21.22.56 0 .77M7 14.94l6.06-6.06 2.06 2.06L9.06 17H7v-2.06Z" transform="matrix(1.5 0 0 1.5 396 108)" id="mdi-pencil-box-outline" fill="#fff"/><path d="M12 2C6.47 2 2 6.47 2 12s4.47 10 10 10 10-4.47 10-10S17.53 2 12 2m3.1 5.07c.14 0 .28.05.4.16l1.27 1.27c.23.22.23.57 0 .78l-1 1-2.05-2.05 1-1c.1-.11.24-.16.38-.16m-1.97 1.74 2.06 2.06-6.06 6.06H7.07v-2.06l6.06-6.06Z" transform="matrix(1.5 0 0 1.5 432 108)" id="mdi-pencil-circle" fill="#555"/><path d="M12 2C6.47 2 2 6.47 2 12s4.47 10 10 10 10-4.47 10-10S17.53 2 12 2m3.1 5.07c.14 0 .28.05.4.16l1.27 1.27c.23.22.23.57 0 .78l-1 1-2.05-2.05 1-1c.1-.11.24-.16.38-.16m-1.97 1.74 2.06 2.06-6.06 6.06H7.07v-2.06l6.06-6.06Z" transform="matrix(1.5 0 0 1.5 468 108)" id="mdi-pencil-circle" fill="#fff"/><path d="m7 14.94 6.06-6.06 2.06 2.06L9.06 17H7v-2.06M12 20a8 8 0 0 0 8-8 8 8 0 0 0-8-8 8 8 0 0 0-8 8 8 8 0 0 0 8 8m4.7-10.65-1 1-2.05-2.05 1-1c.21-.22.56-.22.77 0l1.28 1.28c.22.21.22.56 0 .77M12 2a10 10 0 0 1 10 10 10 10 0 0 1-10 10A10 10 0 0 1 2 12 10 10 0 0 1 12 2" transform="matrix(1.5 0 0 1.5 504 108)" id="mdi-pencil-circle-outline" fill="#555"/><path d="m7 14.94 6.06-6.06 2.06 2.06L9.06 17H7v-2.06M12 20a8 8 0 0 0 8-8 8 8 0 0 0-8-8 8 8 0 0 0-8 8 8 8 0 0 0 8 8m4.7-10.65-1 1-2.05-2.05 1-1c.21-.22.56-.22.77 0l1.28 1.28c.22.21.22.56 0 .77M12 2a10 10 0 0 1 10 10 10 10 0 0 1-10 10A10 10 0 0 1 2 12 10 10 0 0 1 12 2" transform="matrix(1.5 0 0 1.5 540 108)" id="mdi-pencil-circle-outline" fill="#fff"/><path d="M5.5 2A2.5 2.5 0 0 0 3 4.5V5a1 1 0 0 0-1 1v4a1 1 0 0 0 1 1h5a1 1 0 0 0 1-1V6a1 1 0 0 0-1-1v-.5A2.5 2.5 0 0 0 5.5 2m0 1A1.5 1.5 0 0 1 7 4.5V5H4v-.5A1.5 1.5 0 0 1 5.5 3m14.16 0c-.26 0-.5.09-.69.28l-1.84 1.85 3.75 3.75 1.84-1.85c.39-.39.39-1.03 0-1.4l-2.34-2.35c-.2-.19-.47-.28-.72-.28m-3.6 3.19L5 17.25V21h3.75L19.81 9.94l-3.75-3.75Z" transform="matrix(1.5 0 0 1.5 576 108)" id="mdi-pencil-lock" fill="#555"/><path d="M5.5 2A2.5 2.5 0 0 0 3 4.5V5a1 1 0 0 0-1 1v4a1 1 0 0 0 1 1h5a1 1 0 0 0 1-1V6a1 1 0 0 0-1-1v-.5A2.5 2.5 0 0 0 5.5 2m0 1A1.5 1.5 0 0 1 7 4.5V5H4v-.5A1.5 1.5 0 0 1 5.5 3m14.16 0c-.26 0-.5.09-.69.28l-1.84 1.85 3.75 3.75 1.84-1.85c.39-.39.39-1.03 0-1.4l-2.34-2.35c-.2-.19-.47-.28-.72-.28m-3.6 3.19L5 17.25V21h3.75L19.81 9.94l-3.75-3.75Z" transform="matrix(1.5 0 0 1.5 612 108)" id="mdi-pencil-lock" fill="#fff"/><path d="m16.1 9 .9.9L7.9 19H7v-.9L16.1 9m3.6-6c-.2 0-.5.1-.7.3l-1.8 1.8 3.7 3.8L22.7 7c.4-.4.4-1 0-1.4l-2.3-2.3c-.2-.2-.5-.3-.7-.3m-3.6 3.2L5 17.2V21h3.8l11-11.1-3.7-3.7M8 5v-.5C8 3.1 6.9 2 5.5 2S3 3.1 3 4.5V5c-.6 0-1 .4-1 1v4c0 .6.4 1 1 1h5c.6 0 1-.4 1-1V6c0-.6-.4-1-1-1M7 5H4v-.5C4 3.7 4.7 3 5.5 3S7 3.7 7 4.5V5Z" transform="matrix(1.5 0 0 1.5 648 108)" id="mdi-pencil-lock-outline" fill="#555"/><path d="m16.1 9 .9.9L7.9 19H7v-.9L16.1 9m3.6-6c-.2 0-.5.1-.7.3l-1.8 1.8 3.7 3.8L22.7 7c.4-.4.4-1 0-1.4l-2.3-2.3c-.2-.2-.5-.3-.7-.3m-3.6 3.2L5 17.2V21h3.8l11-11.1-3.7-3.7M8 5v-.5C8 3.1 6.9 2 5.5 2S3 3.1 3 4.5V5c-.6 0-1 .4-1 1v4c0 .6.4 1 1 1h5c.6 0 1-.4 1-1V6c0-.6-.4-1-1-1M7 5H4v-.5C4 3.7 4.7 3 5.5 3S7 3.7 7 4.5V5Z" transform="matrix(1.5 0 0 1.5 684 108)" id="mdi-pencil-lock-outline" fill="#fff"/><path d="M20.7 7c.4-.4.4-1 0-1.4l-2.3-2.3c-.4-.4-1-.4-1.4 0l-1.8 1.8L19 8.9M3 17.2V21h3.8l11-11.1-3.7-3.8L3 17.2M10 5v2H2V5h8Z" transform="matrix(1.5 0 0 1.5 0 144)" id="mdi-pencil-minus" fill="#555"/><path d="M20.7 7c.4-.4.4-1 0-1.4l-2.3-2.3c-.4-.4-1-.4-1.4 0l-1.8 1.8L19 8.9M3 17.2V21h3.8l11-11.1-3.7-3.8L3 17.2M10 5v2H2V5h8Z" transform="matrix(1.5 0 0 1.5 36 144)" id="mdi-pencil-minus" fill="#fff"/><path d="m14.1 9 .9.9L5.9 19H5v-.9L14.1 9m3.6-6c-.2 0-.5.1-.7.3l-1.8 1.8 3.7 3.8L20.7 7c.4-.4.4-1 0-1.4l-2.3-2.3c-.2-.2-.5-.3-.7-.3m-3.6 3.2L3 17.2V21h3.8l11-11.1-3.7-3.7M10 5v2H2V5h8Z" transform="matrix(1.5 0 0 1.5 72 144)" id="mdi-pencil-minus-outline" fill="#555"/><path d="m14.1 9 .9.9L5.9 19H5v-.9L14.1 9m3.6-6c-.2 0-.5.1-.7.3l-1.8 1.8 3.7 3.8L20.7 7c.4-.4.4-1 0-1.4l-2.3-2.3c-.2-.2-.5-.3-.7-.3m-3.6 3.2L3 17.2V21h3.8l11-11.1-3.7-3.7M10 5v2H2V5h8Z" transform="matrix(1.5 0 0 1.5 108 144)" id="mdi-pencil-minus-outline" fill="#fff"/><path d="M18.66 2c-.26 0-.5.09-.69.28l-1.84 1.85 3.75 3.75 1.84-1.85c.39-.39.39-1.03 0-1.4l-2.34-2.35c-.2-.19-.47-.28-.72-.28M3.28 4 2 5.28l6.5 6.47-4.5 4.5V20h3.75l4.5-4.5 6.47 6.5L20 20.72l-6.5-6.47-3.75-3.75L3.28 4m11.78 1.19-4.03 4.03 3.75 3.75 4.03-4.03-3.75-3.75Z" transform="matrix(1.5 0 0 1.5 144 144)" id="mdi-pencil-off" fill="#555"/><path d="M18.66 2c-.26 0-.5.09-.69.28l-1.84 1.85 3.75 3.75 1.84-1.85c.39-.39.39-1.03 0-1.4l-2.34-2.35c-.2-.19-.47-.28-.72-.28M3.28 4 2 5.28l6.5 6.47-4.5 4.5V20h3.75l4.5-4.5 6.47 6.5L20 20.72l-6.5-6.47-3.75-3.75L3.28 4m11.78 1.19-4.03 4.03 3.75 3.75 4.03-4.03-3.75-3.75Z" transform="matrix(1.5 0 0 1.5 180 144)" id="mdi-pencil-off" fill="#fff"/><path d="m10 10.2 4-4 3.8 3.8-4 4-1.4-1.4L15 9.9l-.9-.9-2.6 2.6-1.5-1.4m10.7-4.6-2.3-2.3c-.2-.2-.5-.3-.7-.3-.2 0-.5.1-.7.3l-1.8 1.8L19 8.9 20.7 7c.4-.3.4-1 0-1.4M19 21.7 17.7 23l-6.5-6.5L6.8 21H3v-3.8l4.5-4.5L1 6.3 2.3 5 19 21.7m-9.2-6.6-.9-.9L5 18.1v.9h.9l3.9-3.9Z" transform="matrix(1.5 0 0 1.5 216 144)" id="mdi-pencil-off-outline" fill="#555"/><path d="m10 10.2 4-4 3.8 3.8-4 4-1.4-1.4L15 9.9l-.9-.9-2.6 2.6-1.5-1.4m10.7-4.6-2.3-2.3c-.2-.2-.5-.3-.7-.3-.2 0-.5.1-.7.3l-1.8 1.8L19 8.9 20.7 7c.4-.3.4-1 0-1.4M19 21.7 17.7 23l-6.5-6.5L6.8 21H3v-3.8l4.5-4.5L1 6.3 2.3 5 19 21.7m-9.2-6.6-.9-.9L5 18.1v.9h.9l3.9-3.9Z" transform="matrix(1.5 0 0 1.5 252 144)" id="mdi-pencil-off-outline" fill="#fff"/><path d="m14.06 9 .94.94L5.92 19H5v-.92L14.06 9m3.6-6c-.25 0-.51.1-.7.29l-1.83 1.83 3.75 3.75 1.83-1.83c.39-.39.39-1.04 0-1.41l-2.34-2.34c-.2-.2-.45-.29-.71-.29m-3.6 3.19L3 17.25V21h3.75L17.81 9.94l-3.75-3.75Z" transform="matrix(1.5 0 0 1.5 288 144)" id="mdi-pencil-outline" fill="#555"/><path d="m14.06 9 .94.94L5.92 19H5v-.92L14.06 9m3.6-6c-.25 0-.51.1-.7.29l-1.83 1.83 3.75 3.75 1.83-1.83c.39-.39.39-1.04 0-1.41l-2.34-2.34c-.2-.2-.45-.29-.71-.29m-3.6 3.19L3 17.25V21h3.75L17.81 9.94l-3.75-3.75Z" transform="matrix(1.5 0 0 1.5 324 144)" id="mdi-pencil-outline" fill="#fff"/><path d="M20.7 7c.4-.4.4-1 0-1.4l-2.3-2.3c-.4-.4-1-.4-1.4 0l-1.8 1.8L19 8.9M3 17.2V21h3.8l11-11.1-3.7-3.8L3 17.2M7 2v3h3v2H7v3H5V7H2V5h3V2h2Z" transform="matrix(1.5 0 0 1.5 360 144)" id="mdi-pencil-plus" fill="#555"/><path d="M20.7 7c.4-.4.4-1 0-1.4l-2.3-2.3c-.4-.4-1-.4-1.4 0l-1.8 1.8L19 8.9M3 17.2V21h3.8l11-11.1-3.7-3.8L3 17.2M7 2v3h3v2H7v3H5V7H2V5h3V2h2Z" transform="matrix(1.5 0 0 1.5 396 144)" id="mdi-pencil-plus" fill="#fff"/><path d="m14.1 9 .9.9L5.9 19H5v-.9L14.1 9m3.6-6c-.2 0-.5.1-.7.3l-1.8 1.8 3.7 3.8L20.7 7c.4-.4.4-1 0-1.4l-2.3-2.3c-.2-.2-.5-.3-.7-.3m-3.6 3.2L3 17.2V21h3.8l11-11.1-3.7-3.7M7 2v3h3v2H7v3H5V7H2V5h3V2h2Z" transform="matrix(1.5 0 0 1.5 432 144)" id="mdi-pencil-plus-outline" fill="#555"/><path d="m14.1 9 .9.9L5.9 19H5v-.9L14.1 9m3.6-6c-.2 0-.5.1-.7.3l-1.8 1.8 3.7 3.8L20.7 7c.4-.4.4-1 0-1.4l-2.3-2.3c-.2-.2-.5-.3-.7-.3m-3.6 3.2L3 17.2V21h3.8l11-11.1-3.7-3.7M7 2v3h3v2H7v3H5V7H2V5h3V2h2Z" transform="matrix(1.5 0 0 1.5 468 144)" id="mdi-pencil-plus-outline" fill="#fff"/><path d="M20.7 7c.4-.4.4-1 0-1.4l-2.3-2.3c-.4-.4-1-.4-1.4 0l-1.8 1.8L19 8.9M3 17.2V21h3.8l11-11.1-3.7-3.8L3 17.2m.9-14.8L6 4.5l2.1-2.1 1.4 1.4-2.1 2.1L9.5 8 8.1 9.5 6 7.4 3.9 9.5 2.5 8.1 4.6 6 2.5 3.8l1.4-1.4Z" transform="matrix(1.5 0 0 1.5 504 144)" id="mdi-pencil-remove" fill="#555"/><path d="M20.7 7c.4-.4.4-1 0-1.4l-2.3-2.3c-.4-.4-1-.4-1.4 0l-1.8 1.8L19 8.9M3 17.2V21h3.8l11-11.1-3.7-3.8L3 17.2m.9-14.8L6 4.5l2.1-2.1 1.4 1.4-2.1 2.1L9.5 8 8.1 9.5 6 7.4 3.9 9.5 2.5 8.1 4.6 6 2.5 3.8l1.4-1.4Z" transform="matrix(1.5 0 0 1.5 540 144)" id="mdi-pencil-remove" fill="#fff"/><path d="M17.7 3c-.2 0-.5.1-.7.3l-1.8 1.8 3.7 3.8L20.7 7c.4-.4.4-1 0-1.4l-2.3-2.3c-.2-.2-.5-.3-.7-.3m-3.6 3.2L3 17.2V21h3.8l11-11.1-3.7-3.7M5.9 19H5v-.9L14.1 9l.9.9L5.9 19m-2-16.5L6 4.6l2.1-2.1 1.4 1.4L7.4 6l2.1 2.1-1.4 1.4L6 7.4 3.9 9.5 2.5 8.1 4.6 6 2.5 3.9l1.4-1.4Z" transform="matrix(1.5 0 0 1.5 576 144)" id="mdi-pencil-remove-outline" fill="#555"/><path d="M17.7 3c-.2 0-.5.1-.7.3l-1.8 1.8 3.7 3.8L20.7 7c.4-.4.4-1 0-1.4l-2.3-2.3c-.2-.2-.5-.3-.7-.3m-3.6 3.2L3 17.2V21h3.8l11-11.1-3.7-3.7M5.9 19H5v-.9L14.1 9l.9.9L5.9 19m-2-16.5L6 4.6l2.1-2.1 1.4 1.4L7.4 6l2.1 2.1-1.4 1.4L6 7.4 3.9 9.5 2.5 8.1 4.6 6 2.5 3.9l1.4-1.4Z" transform="matrix(1.5 0 0 1.5 612 144)" id="mdi-pencil-remove-outline" fill="#fff"/><path d="M3 17.25V21h3.75L17.81 9.93l-3.75-3.75L3 17.25m19.61 1.11-4.25 4.25-5.2-5.2 1.77-1.77 1 1 2.47-2.48 1.42 1.42L18.36 17l1.06 1 1.42-1.4 1.77 1.76m-16-7.53L1.39 5.64l4.25-4.25L7.4 3.16 4.93 5.64 6 6.7l2.46-2.48 1.42 1.42-1.42 1.41 1 1-2.85 2.78M20.71 7c.39-.39.39-1 0-1.41l-2.34-2.3c-.37-.39-1.02-.39-1.41 0l-1.84 1.83 3.75 3.75L20.71 7Z" transform="matrix(1.5 0 0 1.5 648 144)" id="mdi-pencil-ruler" fill="#555"/><path d="M3 17.25V21h3.75L17.81 9.93l-3.75-3.75L3 17.25m19.61 1.11-4.25 4.25-5.2-5.2 1.77-1.77 1 1 2.47-2.48 1.42 1.42L18.36 17l1.06 1 1.42-1.4 1.77 1.76m-16-7.53L1.39 5.64l4.25-4.25L7.4 3.16 4.93 5.64 6 6.7l2.46-2.48 1.42 1.42-1.42 1.41 1 1-2.85 2.78M20.71 7c.39-.39.39-1 0-1.41l-2.34-2.3c-.37-.39-1.02-.39-1.41 0l-1.84 1.83 3.75 3.75L20.71 7Z" transform="matrix(1.5 0 0 1.5 684 144)" id="mdi-pencil-ruler" fill="#fff"/><path d="M19 16c0 1.72-.63 3.3-1.66 4.5.41.39.66.91.66 1.5H6c0-.59.25-1.11.66-1.5A6.902 6.902 0 0 1 5 16H3c0-1.25.57-2.36 1.46-3.09l.01-.02A6.004 6.004 0 0 0 7 8V7a5 5 0 0 1 5-5 5 5 0 0 1 5 5v1c0 2 1 3.81 2.53 4.89l.01.02c.89.73 1.46 1.84 1.46 3.09h-2m-3 0a4 4 0 0 0-4-4 4 4 0 0 0-4 4 4 4 0 0 0 4 4 4 4 0 0 0 4-4m-6-7 2 1.5L14 9l-2-1.5L10 9m0-4a1 1 0 0 0-1 1 1 1 0 0 0 1 1 1 1 0 0 0 1-1 1 1 0 0 0-1-1m4 0a1 1 0 0 0-1 1 1 1 0 0 0 1 1 1 1 0 0 0 1-1 1 1 0 0 0-1-1Z" transform="matrix(1.5 0 0 1.5 0 180)" id="mdi-penguin" fill="#555"/><path d="M19 16c0 1.72-.63 3.3-1.66 4.5.41.39.66.91.66 1.5H6c0-.59.25-1.11.66-1.5A6.902 6.902 0 0 1 5 16H3c0-1.25.57-2.36 1.46-3.09l.01-.02A6.004 6.004 0 0 0 7 8V7a5 5 0 0 1 5-5 5 5 0 0 1 5 5v1c0 2 1 3.81 2.53 4.89l.01.02c.89.73 1.46 1.84 1.46 3.09h-2m-3 0a4 4 0 0 0-4-4 4 4 0 0 0-4 4 4 4 0 0 0 4 4 4 4 0 0 0 4-4m-6-7 2 1.5L14 9l-2-1.5L10 9m0-4a1 1 0 0 0-1 1 1 1 0 0 0 1 1 1 1 0 0 0 1-1 1 1 0 0 0-1-1m4 0a1 1 0 0 0-1 1 1 1 0 0 0 1 1 1 1 0 0 0 1-1 1 1 0 0 0-1-1Z" transform="matrix(1.5 0 0 1.5 36 180)" id="mdi-penguin" fill="#fff"/><path d="M12 2.5 2 9.8l3.8 11.7h12.4L22 9.8 12 2.5Z" transform="matrix(1.5 0 0 1.5 72 180)" id="mdi-pentagon" fill="#555"/><path d="M12 2.5 2 9.8l3.8 11.7h12.4L22 9.8 12 2.5Z" transform="matrix(1.5 0 0 1.5 108 180)" id="mdi-pentagon" fill="#fff"/><path d="m12 5 7.6 5.5-2.9 8.9H7.3l-2.9-8.9L12 5m0-2.5L2 9.8l3.8 11.7h12.3L22 9.8 12 2.5Z" transform="matrix(1.5 0 0 1.5 144 180)" id="mdi-pentagon-outline" fill="#555"/><path d="m12 5 7.6 5.5-2.9 8.9H7.3l-2.9-8.9L12 5m0-2.5L2 9.8l3.8 11.7h12.3L22 9.8 12 2.5Z" transform="matrix(1.5 0 0 1.5 180 180)" id="mdi-pentagon-outline" fill="#fff"/><path d="m16.15 14.4 2.56 7.86L12 17.4l-6.72 4.9 2.57-7.93-6.7-4.87h8.29L12 1.61l2.56 7.89h8.33l-6.74 4.9m-2.85 2.07 2.56 1.86-.98-3.01-1.58 1.15M11 9.5h2l-1-3.03-1 3.03m-.26 6.97L9.13 15.3l-1 3.07 2.61-1.9M18.28 11h-3.23l.62 1.9 2.61-1.9m-7.75 0-.91 2.8L12 15.54l2.39-1.72-.92-2.82h-2.94m-4.77 0 2.58 1.87.61-1.87H5.76Z" transform="matrix(1.5 0 0 1.5 216 180)" id="mdi-pentagram" fill="#555"/><path d="m16.15 14.4 2.56 7.86L12 17.4l-6.72 4.9 2.57-7.93-6.7-4.87h8.29L12 1.61l2.56 7.89h8.33l-6.74 4.9m-2.85 2.07 2.56 1.86-.98-3.01-1.58 1.15M11 9.5h2l-1-3.03-1 3.03m-.26 6.97L9.13 15.3l-1 3.07 2.61-1.9M18.28 11h-3.23l.62 1.9 2.61-1.9m-7.75 0-.91 2.8L12 15.54l2.39-1.72-.92-2.82h-2.94m-4.77 0 2.58 1.87.61-1.87H5.76Z" transform="matrix(1.5 0 0 1.5 252 180)" id="mdi-pentagram" fill="#fff"/><path d="m18.5 3.5-15 15 2 2 15-15M7 4a3 3 0 0 0-3 3 3 3 0 0 0 3 3 3 3 0 0 0 3-3 3 3 0 0 0-3-3m10 10a3 3 0 0 0-3 3 3 3 0 0 0 3 3 3 3 0 0 0 3-3 3 3 0 0 0-3-3Z" transform="matrix(1.5 0 0 1.5 288 180)" id="mdi-percent" fill="#555"/><path d="m18.5 3.5-15 15 2 2 15-15M7 4a3 3 0 0 0-3 3 3 3 0 0 0 3 3 3 3 0 0 0 3-3 3 3 0 0 0-3-3m10 10a3 3 0 0 0-3 3 3 3 0 0 0 3 3 3 3 0 0 0 3-3 3 3 0 0 0-3-3Z" transform="matrix(1.5 0 0 1.5 324 180)" id="mdi-percent" fill="#fff"/><path d="m18.5 3.5 2 2-15 15-2-2 15-15M7 4c1.66 0 3 1.34 3 3s-1.34 3-3 3-3-1.34-3-3 1.34-3 3-3m10 10c1.66 0 3 1.34 3 3s-1.34 3-3 3-3-1.34-3-3 1.34-3 3-3M7 6c-.55 0-1 .45-1 1s.45 1 1 1 1-.45 1-1-.45-1-1-1m10 10c-.55 0-1 .45-1 1s.45 1 1 1 1-.45 1-1-.45-1-1-1Z" transform="matrix(1.5 0 0 1.5 360 180)" id="mdi-percent-outline" fill="#555"/><path d="m18.5 3.5 2 2-15 15-2-2 15-15M7 4c1.66 0 3 1.34 3 3s-1.34 3-3 3-3-1.34-3-3 1.34-3 3-3m10 10c1.66 0 3 1.34 3 3s-1.34 3-3 3-3-1.34-3-3 1.34-3 3-3M7 6c-.55 0-1 .45-1 1s.45 1 1 1 1-.45 1-1-.45-1-1-1m10 10c-.55 0-1 .45-1 1s.45 1 1 1 1-.45 1-1-.45-1-1-1Z" transform="matrix(1.5 0 0 1.5 396 180)" id="mdi-percent-outline" fill="#fff"/><path d="M2 4v2h2V4H2m18 0v2h2V4h-2M2 7v2h2V7H2m3 0v2h2V7H5m9 0v2h2V7h-2m3 0v2h2V7h-2m3 0v2h2V7h-2M2 10v2h2v-2H2m3 0v2h2v-2H5m3 0v2h2v-2H8m3 0v2h2v-2h-2m3 0v2h2v-2h-2m3 0v2h2v-2h-2m3 0v2h2v-2h-2M2 13v2h2v-2H2m3 0v2h2v-2H5m3 0v2h2v-2H8m3 0v2h2v-2h-2m3 0v2h2v-2h-2m3 0v2h2v-2h-2m3 0v2h2v-2h-2M5 17v2h2v-2H5m3 0v2h2v-2H8m3 0v2h2v-2h-2m3 0v2h2v-2h-2m3 0v2h2v-2h-2Z" transform="matrix(1.5 0 0 1.5 432 180)" id="mdi-periodic-table" fill="#555"/><path d="M2 4v2h2V4H2m18 0v2h2V4h-2M2 7v2h2V7H2m3 0v2h2V7H5m9 0v2h2V7h-2m3 0v2h2V7h-2m3 0v2h2V7h-2M2 10v2h2v-2H2m3 0v2h2v-2H5m3 0v2h2v-2H8m3 0v2h2v-2h-2m3 0v2h2v-2h-2m3 0v2h2v-2h-2m3 0v2h2v-2h-2M2 13v2h2v-2H2m3 0v2h2v-2H5m3 0v2h2v-2H8m3 0v2h2v-2h-2m3 0v2h2v-2h-2m3 0v2h2v-2h-2m3 0v2h2v-2h-2M5 17v2h2v-2H5m3 0v2h2v-2H8m3 0v2h2v-2h-2m3 0v2h2v-2h-2m3 0v2h2v-2h-2Z" transform="matrix(1.5 0 0 1.5 468 180)" id="mdi-periodic-table" fill="#fff"/><path d="m16.56 12 2.67 8H4.78l2.66-8h9.12M7 1 3 5l4 4V6h4V4H7V1m10 0v3h-4v2h4v3l4-4-4-4m1 9H6L2 22h20l-4-12Z" transform="matrix(1.5 0 0 1.5 504 180)" id="mdi-perspective-less" fill="#555"/><path d="m16.56 12 2.67 8H4.78l2.66-8h9.12M7 1 3 5l4 4V6h4V4H7V1m10 0v3h-4v2h4v3l4-4-4-4m1 9H6L2 22h20l-4-12Z" transform="matrix(1.5 0 0 1.5 540 180)" id="mdi-perspective-less" fill="#fff"/><path d="m16.56 12 2.67 8H4.78l2.66-8h9.12M17 1l-4 4 4 4V6h4V4h-4V1M7 1v3H3v2h4v3l4-4-4-4m11 9H6L2 22h20l-4-12Z" transform="matrix(1.5 0 0 1.5 576 180)" id="mdi-perspective-more" fill="#555"/><path d="m16.56 12 2.67 8H4.78l2.66-8h9.12M17 1l-4 4 4 4V6h4V4h-4V1M7 1v3H3v2h4v3l4-4-4-4m11 9H6L2 22h20l-4-12Z" transform="matrix(1.5 0 0 1.5 612 180)" id="mdi-perspective-more" fill="#fff"/><path d="M13 7v10h2v-4h2v4h2V7h-2v4h-2V7h-2m-2 8v-2a2 2 0 0 0-2-2H5v10h2v-4h2c1.11 0 2-.89 2-2m-2 0H7v-2h2v2Z" transform="matrix(1.5 0 0 1.5 648 180)" id="mdi-ph" fill="#555"/><path d="M13 7v10h2v-4h2v4h2V7h-2v4h-2V7h-2m-2 8v-2a2 2 0 0 0-2-2H5v10h2v-4h2c1.11 0 2-.89 2-2m-2 0H7v-2h2v2Z" transform="matrix(1.5 0 0 1.5 684 180)" id="mdi-ph" fill="#fff"/><path d="M6.62 10.79c1.44 2.83 3.76 5.15 6.59 6.59l2.2-2.2c.28-.28.67-.36 1.02-.25 1.12.37 2.32.57 3.57.57a1 1 0 0 1 1 1V20a1 1 0 0 1-1 1A17 17 0 0 1 3 4a1 1 0 0 1 1-1h3.5a1 1 0 0 1 1 1c0 1.25.2 2.45.57 3.57.11.35.03.74-.25 1.02l-2.2 2.2Z" transform="matrix(1.5 0 0 1.5 0 216)" id="mdi-phone" fill="#555"/><path d="M6.62 10.79c1.44 2.83 3.76 5.15 6.59 6.59l2.2-2.2c.28-.28.67-.36 1.02-.25 1.12.37 2.32.57 3.57.57a1 1 0 0 1 1 1V20a1 1 0 0 1-1 1A17 17 0 0 1 3 4a1 1 0 0 1 1-1h3.5a1 1 0 0 1 1 1c0 1.25.2 2.45.57 3.57.11.35.03.74-.25 1.02l-2.2 2.2Z" transform="matrix(1.5 0 0 1.5 36 216)" id="mdi-phone" fill="#fff"/><path d="M6.62 10.79c1.44 2.83 3.76 5.15 6.59 6.59l2.2-2.2c.28-.28.67-.36 1.02-.25 1.12.37 2.32.57 3.57.57a1 1 0 0 1 1 1V20a1 1 0 0 1-1 1A17 17 0 0 1 3 4c0-.56.45-1 1-1h3.5a1 1 0 0 1 1 1c0 1.24.2 2.45.57 3.57.11.35.03.74-.25 1.01l-2.2 2.21M17 12v-2h2v2h-2m0-4V2h2v6h-2Z" transform="matrix(1.5 0 0 1.5 72 216)" id="mdi-phone-alert" fill="#555"/><path d="M6.62 10.79c1.44 2.83 3.76 5.15 6.59 6.59l2.2-2.2c.28-.28.67-.36 1.02-.25 1.12.37 2.32.57 3.57.57a1 1 0 0 1 1 1V20a1 1 0 0 1-1 1A17 17 0 0 1 3 4c0-.56.45-1 1-1h3.5a1 1 0 0 1 1 1c0 1.24.2 2.45.57 3.57.11.35.03.74-.25 1.01l-2.2 2.21M17 12v-2h2v2h-2m0-4V2h2v6h-2Z" transform="matrix(1.5 0 0 1.5 108 216)" id="mdi-phone-alert" fill="#fff"/><path d="M20 15.5c-1.2 0-2.5-.2-3.6-.6h-.3c-.3 0-.5.1-.7.3l-2.2 2.2c-2.8-1.5-5.2-3.8-6.6-6.6l2.2-2.2c.3-.3.4-.7.2-1-.3-1.1-.5-2.4-.5-3.6 0-.5-.5-1-1-1H4c-.5 0-1 .5-1 1 0 9.4 7.6 17 17 17 .5 0 1-.5 1-1v-3.5c0-.5-.5-1-1-1M5 5h1.5c.1.9.3 1.8.5 2.6L5.8 8.8C5.4 7.6 5.1 6.3 5 5m14 14c-1.3-.1-2.6-.4-3.8-.8l1.2-1.2c.8.2 1.7.4 2.6.4V19m-2-7v-2h2v2h-2m0-4V2h2v6h-2Z" transform="matrix(1.5 0 0 1.5 144 216)" id="mdi-phone-alert-outline" fill="#555"/><path d="M20 15.5c-1.2 0-2.5-.2-3.6-.6h-.3c-.3 0-.5.1-.7.3l-2.2 2.2c-2.8-1.5-5.2-3.8-6.6-6.6l2.2-2.2c.3-.3.4-.7.2-1-.3-1.1-.5-2.4-.5-3.6 0-.5-.5-1-1-1H4c-.5 0-1 .5-1 1 0 9.4 7.6 17 17 17 .5 0 1-.5 1-1v-3.5c0-.5-.5-1-1-1M5 5h1.5c.1.9.3 1.8.5 2.6L5.8 8.8C5.4 7.6 5.1 6.3 5 5m14 14c-1.3-.1-2.6-.4-3.8-.8l1.2-1.2c.8.2 1.7.4 2.6.4V19m-2-7v-2h2v2h-2m0-4V2h2v6h-2Z" transform="matrix(1.5 0 0 1.5 180 216)" id="mdi-phone-alert-outline" fill="#fff"/><path d="M20 15.5c-1.25 0-2.45-.2-3.57-.57-.35-.11-.74-.03-1.02.25l-2.2 2.2a15.097 15.097 0 0 1-6.59-6.59l2.2-2.2c.28-.28.36-.67.25-1.02A11.36 11.36 0 0 1 8.5 4a1 1 0 0 0-1-1H4a1 1 0 0 0-1 1 17 17 0 0 0 17 17 1 1 0 0 0 1-1v-3.5a1 1 0 0 0-1-1m-2-8.29.94.93-.94.94m0-6.17.94.94-.94.94M14.71 9.5 17 7.21V11h.5l2.85-2.86L18.21 6l2.14-2.15L17.5 1H17v3.79L14.71 2.5l-.71.71L16.79 6 14 8.79l.71.71Z" transform="matrix(1.5 0 0 1.5 216 216)" id="mdi-phone-bluetooth" fill="#555"/><path d="M20 15.5c-1.25 0-2.45-.2-3.57-.57-.35-.11-.74-.03-1.02.25l-2.2 2.2a15.097 15.097 0 0 1-6.59-6.59l2.2-2.2c.28-.28.36-.67.25-1.02A11.36 11.36 0 0 1 8.5 4a1 1 0 0 0-1-1H4a1 1 0 0 0-1 1 17 17 0 0 0 17 17 1 1 0 0 0 1-1v-3.5a1 1 0 0 0-1-1m-2-8.29.94.93-.94.94m0-6.17.94.94-.94.94M14.71 9.5 17 7.21V11h.5l2.85-2.86L18.21 6l2.14-2.15L17.5 1H17v3.79L14.71 2.5l-.71.71L16.79 6 14 8.79l.71.71Z" transform="matrix(1.5 0 0 1.5 252 216)" id="mdi-phone-bluetooth" fill="#fff"/><path d="M20 15.5c-1.2 0-2.5-.2-3.6-.6h-.3c-.3 0-.5.1-.7.3l-2.2 2.2c-2.8-1.5-5.2-3.8-6.6-6.6l2.2-2.2c.3-.3.4-.7.2-1-.3-1.1-.5-2.4-.5-3.6 0-.5-.5-1-1-1H4c-.5 0-1 .5-1 1 0 9.4 7.6 17 17 17 .5 0 1-.5 1-1v-3.5c0-.5-.5-1-1-1M5 5h1.5c.1.9.3 1.8.5 2.6L5.8 8.8C5.4 7.6 5.1 6.3 5 5m14 14c-1.3-.1-2.6-.4-3.8-.8l1.2-1.2c.8.2 1.7.4 2.6.4V19M18 7.21l.94.93-.94.94m0-6.17.94.94-.94.94M14.71 9.5 17 7.21V11h.5l2.85-2.86L18.21 6l2.14-2.15L17.5 1H17v3.79L14.71 2.5l-.71.71L16.79 6 14 8.79l.71.71Z" transform="matrix(1.5 0 0 1.5 288 216)" id="mdi-phone-bluetooth-outline" fill="#555"/><path d="M20 15.5c-1.2 0-2.5-.2-3.6-.6h-.3c-.3 0-.5.1-.7.3l-2.2 2.2c-2.8-1.5-5.2-3.8-6.6-6.6l2.2-2.2c.3-.3.4-.7.2-1-.3-1.1-.5-2.4-.5-3.6 0-.5-.5-1-1-1H4c-.5 0-1 .5-1 1 0 9.4 7.6 17 17 17 .5 0 1-.5 1-1v-3.5c0-.5-.5-1-1-1M5 5h1.5c.1.9.3 1.8.5 2.6L5.8 8.8C5.4 7.6 5.1 6.3 5 5m14 14c-1.3-.1-2.6-.4-3.8-.8l1.2-1.2c.8.2 1.7.4 2.6.4V19M18 7.21l.94.93-.94.94m0-6.17.94.94-.94.94M14.71 9.5 17 7.21V11h.5l2.85-2.86L18.21 6l2.14-2.15L17.5 1H17v3.79L14.71 2.5l-.71.71L16.79 6 14 8.79l.71.71Z" transform="matrix(1.5 0 0 1.5 324 216)" id="mdi-phone-bluetooth-outline" fill="#fff"/><path d="M6.62 10.79c1.44 2.83 3.76 5.15 6.59 6.59l2.2-2.2c.28-.28.67-.36 1.02-.25 1.12.37 2.32.57 3.57.57.55 0 1 .45 1 1V20c0 .55-.45 1-1 1-9.39 0-17-7.61-17-17 0-.55.45-1 1-1h3.5c.55 0 1 .45 1 1 0 1.25.2 2.45.57 3.57.11.35.03.74-.25 1.02l-2.2 2.2M16.5 2C14 2 12 4 12 6.5s2 4.5 4.5 4.5S21 9 21 6.5 19 2 16.5 2m0 7.5c-1.66 0-3-1.34-3-3 0-.56.15-1.08.42-1.5L18 9.08c-.42.27-.94.42-1.5.42M19.08 8 15 3.92c.42-.27.94-.42 1.5-.42 1.66 0 3 1.34 3 3 0 .56-.15 1.08-.42 1.5Z" transform="matrix(1.5 0 0 1.5 360 216)" id="mdi-phone-cancel" fill="#555"/><path d="M6.62 10.79c1.44 2.83 3.76 5.15 6.59 6.59l2.2-2.2c.28-.28.67-.36 1.02-.25 1.12.37 2.32.57 3.57.57.55 0 1 .45 1 1V20c0 .55-.45 1-1 1-9.39 0-17-7.61-17-17 0-.55.45-1 1-1h3.5c.55 0 1 .45 1 1 0 1.25.2 2.45.57 3.57.11.35.03.74-.25 1.02l-2.2 2.2M16.5 2C14 2 12 4 12 6.5s2 4.5 4.5 4.5S21 9 21 6.5 19 2 16.5 2m0 7.5c-1.66 0-3-1.34-3-3 0-.56.15-1.08.42-1.5L18 9.08c-.42.27-.94.42-1.5.42M19.08 8 15 3.92c.42-.27.94-.42 1.5-.42 1.66 0 3 1.34 3 3 0 .56-.15 1.08-.42 1.5Z" transform="matrix(1.5 0 0 1.5 396 216)" id="mdi-phone-cancel" fill="#fff"/><path d="M20 15.5c-1.2 0-2.5-.2-3.6-.6h-.3c-.3 0-.5.1-.7.3l-2.2 2.2c-2.8-1.5-5.2-3.8-6.6-6.6l2.2-2.2c.3-.3.4-.7.2-1-.3-1.1-.5-2.4-.5-3.6 0-.5-.5-1-1-1H4c-.5 0-1 .5-1 1 0 9.4 7.6 17 17 17 .5 0 1-.5 1-1v-3.5c0-.5-.5-1-1-1M5 5h1.5c.1.9.3 1.8.5 2.6L5.8 8.8C5.4 7.6 5.1 6.3 5 5m14 14c-1.3-.1-2.6-.4-3.8-.8l1.2-1.2c.8.2 1.7.4 2.6.4V19M16.5 2C14 2 12 4 12 6.5s2 4.5 4.5 4.5S21 9 21 6.5 19 2 16.5 2m0 7.5c-1.66 0-3-1.34-3-3 0-.56.15-1.08.42-1.5L18 9.08c-.42.27-.94.42-1.5.42M19.08 8 15 3.92c.42-.27.94-.42 1.5-.42 1.66 0 3 1.34 3 3 0 .56-.15 1.08-.42 1.5Z" transform="matrix(1.5 0 0 1.5 432 216)" id="mdi-phone-cancel-outline" fill="#555"/><path d="M20 15.5c-1.2 0-2.5-.2-3.6-.6h-.3c-.3 0-.5.1-.7.3l-2.2 2.2c-2.8-1.5-5.2-3.8-6.6-6.6l2.2-2.2c.3-.3.4-.7.2-1-.3-1.1-.5-2.4-.5-3.6 0-.5-.5-1-1-1H4c-.5 0-1 .5-1 1 0 9.4 7.6 17 17 17 .5 0 1-.5 1-1v-3.5c0-.5-.5-1-1-1M5 5h1.5c.1.9.3 1.8.5 2.6L5.8 8.8C5.4 7.6 5.1 6.3 5 5m14 14c-1.3-.1-2.6-.4-3.8-.8l1.2-1.2c.8.2 1.7.4 2.6.4V19M16.5 2C14 2 12 4 12 6.5s2 4.5 4.5 4.5S21 9 21 6.5 19 2 16.5 2m0 7.5c-1.66 0-3-1.34-3-3 0-.56.15-1.08.42-1.5L18 9.08c-.42.27-.94.42-1.5.42M19.08 8 15 3.92c.42-.27.94-.42 1.5-.42 1.66 0 3 1.34 3 3 0 .56-.15 1.08-.42 1.5Z" transform="matrix(1.5 0 0 1.5 468 216)" id="mdi-phone-cancel-outline" fill="#fff"/><path d="M6.62 10.79a15.1 15.1 0 0 0 6.59 6.59l2.2-2.2a1 1 0 0 1 1-.25 11.36 11.36 0 0 0 3.59.57 1 1 0 0 1 1 1V20a1 1 0 0 1-1 1A17 17 0 0 1 3 4a1 1 0 0 1 1-1h3.5a1 1 0 0 1 1 1 11.36 11.36 0 0 0 .57 3.57 1 1 0 0 1-.25 1m12.89-3.86-1.42-1.42L15 8.59l-2.29-2.3-1.42 1.42 3.71 3.7Z" transform="matrix(1.5 0 0 1.5 504 216)" id="mdi-phone-check" fill="#555"/><path d="M6.62 10.79a15.1 15.1 0 0 0 6.59 6.59l2.2-2.2a1 1 0 0 1 1-.25 11.36 11.36 0 0 0 3.59.57 1 1 0 0 1 1 1V20a1 1 0 0 1-1 1A17 17 0 0 1 3 4a1 1 0 0 1 1-1h3.5a1 1 0 0 1 1 1 11.36 11.36 0 0 0 .57 3.57 1 1 0 0 1-.25 1m12.89-3.86-1.42-1.42L15 8.59l-2.29-2.3-1.42 1.42 3.71 3.7Z" transform="matrix(1.5 0 0 1.5 540 216)" id="mdi-phone-check" fill="#fff"/><path d="M20 15.5a11.36 11.36 0 0 1-3.57-.57 1 1 0 0 0-1 .25l-2.2 2.2a15.1 15.1 0 0 1-6.59-6.59l2.2-2.2a1 1 0 0 0 .25-1A11.36 11.36 0 0 1 8.5 4a1 1 0 0 0-1-1H4a1 1 0 0 0-1 1 17 17 0 0 0 17 17 1 1 0 0 0 1-1v-3.5a1 1 0 0 0-1-1M5 5h1.54A12.54 12.54 0 0 0 7 7.59L5.79 8.8A15 15 0 0 1 5 5m14 14a15 15 0 0 1-3.8-.76L16.41 17a12.31 12.31 0 0 0 2.59.45m-4-6.01-3.71-3.7 1.42-1.42L15 8.59l5.29-5.3 1.42 1.42Z" transform="matrix(1.5 0 0 1.5 576 216)" id="mdi-phone-check-outline" fill="#555"/><path d="M20 15.5a11.36 11.36 0 0 1-3.57-.57 1 1 0 0 0-1 .25l-2.2 2.2a15.1 15.1 0 0 1-6.59-6.59l2.2-2.2a1 1 0 0 0 .25-1A11.36 11.36 0 0 1 8.5 4a1 1 0 0 0-1-1H4a1 1 0 0 0-1 1 17 17 0 0 0 17 17 1 1 0 0 0 1-1v-3.5a1 1 0 0 0-1-1M5 5h1.54A12.54 12.54 0 0 0 7 7.59L5.79 8.8A15 15 0 0 1 5 5m14 14a15 15 0 0 1-3.8-.76L16.41 17a12.31 12.31 0 0 0 2.59.45m-4-6.01-3.71-3.7 1.42-1.42L15 8.59l5.29-5.3 1.42 1.42Z" transform="matrix(1.5 0 0 1.5 612 216)" id="mdi-phone-check-outline" fill="#fff"/><path d="M12 3C7.46 3 3.34 4.78.29 7.67c-.18.18-.29.43-.29.71 0 .28.11.53.29.71l2.48 2.48a1.01 1.01 0 0 0 1.41.01c.79-.74 1.69-1.36 2.66-1.85.33-.16.56-.5.56-.9v-3.1C8.85 5.25 10.39 5 12 5c1.59 0 3.14.25 4.59.72v3.1c0 .39.23.74.56.9.98.49 1.85 1.12 2.67 1.85.18.18.43.28.68.28.3 0 .55-.11.73-.29l2.48-2.48c.18-.18.29-.43.29-.71 0-.28-.12-.52-.3-.7A16.965 16.965 0 0 0 12 3M9 7v3s-6 5-6 8v4h18v-4c0-3-6-8-6-8V7h-2v2h-2V7H9m3 5a4 4 0 0 1 4 4 4 4 0 0 1-4 4 4 4 0 0 1-4-4 4 4 0 0 1 4-4m0 1.5A2.5 2.5 0 0 0 9.5 16a2.5 2.5 0 0 0 2.5 2.5 2.5 2.5 0 0 0 2.5-2.5 2.5 2.5 0 0 0-2.5-2.5Z" transform="matrix(1.5 0 0 1.5 648 216)" id="mdi-phone-classic" fill="#555"/><path d="M12 3C7.46 3 3.34 4.78.29 7.67c-.18.18-.29.43-.29.71 0 .28.11.53.29.71l2.48 2.48a1.01 1.01 0 0 0 1.41.01c.79-.74 1.69-1.36 2.66-1.85.33-.16.56-.5.56-.9v-3.1C8.85 5.25 10.39 5 12 5c1.59 0 3.14.25 4.59.72v3.1c0 .39.23.74.56.9.98.49 1.85 1.12 2.67 1.85.18.18.43.28.68.28.3 0 .55-.11.73-.29l2.48-2.48c.18-.18.29-.43.29-.71 0-.28-.12-.52-.3-.7A16.965 16.965 0 0 0 12 3M9 7v3s-6 5-6 8v4h18v-4c0-3-6-8-6-8V7h-2v2h-2V7H9m3 5a4 4 0 0 1 4 4 4 4 0 0 1-4 4 4 4 0 0 1-4-4 4 4 0 0 1 4-4m0 1.5A2.5 2.5 0 0 0 9.5 16a2.5 2.5 0 0 0 2.5 2.5 2.5 2.5 0 0 0 2.5-2.5 2.5 2.5 0 0 0-2.5-2.5Z" transform="matrix(1.5 0 0 1.5 684 216)" id="mdi-phone-classic" fill="#fff"/><path d="M12 3c4.53 0 8.65 1.78 11.7 4.67.18.18.3.42.3.7 0 .28-.11.53-.29.71l-2.48 2.48c-.18.18-.43.29-.73.29-.25 0-.5-.1-.68-.28-.82-.73-1.69-1.36-2.67-1.85-.33-.16-.56-.51-.56-.9v-3.1C15.14 5.25 13.59 5 12 5c-1.56 0-3.07.24-4.5.69L5.94 4.11C7.82 3.4 9.86 3 12 3M9 7h2v2h2V7h2v3s6 5 6 8v1.18l-12-12V7M1 4.27 2.28 3 21.5 22.22l-1.27 1.28-1.5-1.5H3v-4c0-2.14 3.05-5.29 4.8-6.93L6.59 9.86c-.88.47-1.69 1.04-2.41 1.72a1.015 1.015 0 0 1-1.41-.01L.29 9.09A.997.997 0 0 1 0 8.38c0-.28.11-.53.29-.71C.996 7 2.58 5.85 2.58 5.85L1 4.27M8 16a3.999 3.999 0 0 0 7.17 2.44l-1.07-1.08A2.5 2.5 0 0 1 9.5 16c0-.88.45-1.65 1.14-2.09l-1.08-1.08C8.61 13.56 8 14.71 8 16Z" transform="matrix(1.5 0 0 1.5 0 252)" id="mdi-phone-classic-off" fill="#555"/><path d="M12 3c4.53 0 8.65 1.78 11.7 4.67.18.18.3.42.3.7 0 .28-.11.53-.29.71l-2.48 2.48c-.18.18-.43.29-.73.29-.25 0-.5-.1-.68-.28-.82-.73-1.69-1.36-2.67-1.85-.33-.16-.56-.51-.56-.9v-3.1C15.14 5.25 13.59 5 12 5c-1.56 0-3.07.24-4.5.69L5.94 4.11C7.82 3.4 9.86 3 12 3M9 7h2v2h2V7h2v3s6 5 6 8v1.18l-12-12V7M1 4.27 2.28 3 21.5 22.22l-1.27 1.28-1.5-1.5H3v-4c0-2.14 3.05-5.29 4.8-6.93L6.59 9.86c-.88.47-1.69 1.04-2.41 1.72a1.015 1.015 0 0 1-1.41-.01L.29 9.09A.997.997 0 0 1 0 8.38c0-.28.11-.53.29-.71C.996 7 2.58 5.85 2.58 5.85L1 4.27M8 16a3.999 3.999 0 0 0 7.17 2.44l-1.07-1.08A2.5 2.5 0 0 1 9.5 16c0-.88.45-1.65 1.14-2.09l-1.08-1.08C8.61 13.56 8 14.71 8 16Z" transform="matrix(1.5 0 0 1.5 36 252)" id="mdi-phone-classic-off" fill="#fff"/><path d="M6.6 10.8c1.4 2.8 3.8 5.1 6.6 6.6l2.2-2.2c.3-.3.7-.4 1-.2 1.1.4 2.3.6 3.6.6.6 0 1 .4 1 1V20c0 .6-.4 1-1 1-9.4 0-17-7.6-17-17 0-.6.5-1 1-1h3.5c.6 0 1 .4 1 1 0 1.2.2 2.4.6 3.6.1.3 0 .7-.2 1l-2.3 2.2M14 3c-.6 0-1 .4-1 1s.4 1 1 1 1-.4 1-1-.4-1-1-1m3 0c-.6 0-1 .4-1 1s.4 1 1 1 1-.4 1-1-.4-1-1-1m3 0c-.6 0-1 .4-1 1s.4 1 1 1 1-.4 1-1-.4-1-1-1m-6 3c-.6 0-1 .4-1 1s.4 1 1 1 1-.4 1-1-.4-1-1-1m3 0c-.6 0-1 .4-1 1s.4 1 1 1 1-.4 1-1-.4-1-1-1m3 0c-.6 0-1 .4-1 1s.4 1 1 1 1-.4 1-1-.4-1-1-1m-6 3c-.6 0-1 .4-1 1s.4 1 1 1 1-.4 1-1-.4-1-1-1m3 0c-.6 0-1 .4-1 1s.4 1 1 1 1-.4 1-1-.4-1-1-1m3 0c-.6 0-1 .4-1 1s.4 1 1 1 1-.4 1-1-.4-1-1-1Z" transform="matrix(1.5 0 0 1.5 72 252)" id="mdi-phone-dial" fill="#555"/><path d="M6.6 10.8c1.4 2.8 3.8 5.1 6.6 6.6l2.2-2.2c.3-.3.7-.4 1-.2 1.1.4 2.3.6 3.6.6.6 0 1 .4 1 1V20c0 .6-.4 1-1 1-9.4 0-17-7.6-17-17 0-.6.5-1 1-1h3.5c.6 0 1 .4 1 1 0 1.2.2 2.4.6 3.6.1.3 0 .7-.2 1l-2.3 2.2M14 3c-.6 0-1 .4-1 1s.4 1 1 1 1-.4 1-1-.4-1-1-1m3 0c-.6 0-1 .4-1 1s.4 1 1 1 1-.4 1-1-.4-1-1-1m3 0c-.6 0-1 .4-1 1s.4 1 1 1 1-.4 1-1-.4-1-1-1m-6 3c-.6 0-1 .4-1 1s.4 1 1 1 1-.4 1-1-.4-1-1-1m3 0c-.6 0-1 .4-1 1s.4 1 1 1 1-.4 1-1-.4-1-1-1m3 0c-.6 0-1 .4-1 1s.4 1 1 1 1-.4 1-1-.4-1-1-1m-6 3c-.6 0-1 .4-1 1s.4 1 1 1 1-.4 1-1-.4-1-1-1m3 0c-.6 0-1 .4-1 1s.4 1 1 1 1-.4 1-1-.4-1-1-1m3 0c-.6 0-1 .4-1 1s.4 1 1 1 1-.4 1-1-.4-1-1-1Z" transform="matrix(1.5 0 0 1.5 108 252)" id="mdi-phone-dial" fill="#fff"/><path d="M20 15.5c-1.2 0-2.5-.2-3.6-.6h-.3c-.3 0-.5.1-.7.3l-2.2 2.2c-2.8-1.5-5.2-3.8-6.6-6.6l2.2-2.2c.3-.3.4-.7.2-1-.3-1.1-.5-2.4-.5-3.6 0-.5-.5-1-1-1H4c-.5 0-1 .5-1 1 0 9.4 7.6 17 17 17 .5 0 1-.5 1-1v-3.5c0-.5-.5-1-1-1M5 5h1.5c.1.9.3 1.8.5 2.6L5.8 8.8C5.4 7.6 5.1 6.3 5 5m14 14c-1.3-.1-2.6-.4-3.8-.8l1.2-1.2c.8.2 1.7.4 2.6.4V19M15 4c0 .6-.4 1-1 1s-1-.4-1-1 .4-1 1-1 1 .4 1 1m3 0c0 .6-.4 1-1 1s-1-.4-1-1 .4-1 1-1 1 .4 1 1m3 0c0 .6-.4 1-1 1s-1-.4-1-1 .4-1 1-1 1 .4 1 1m-6 3c0 .6-.4 1-1 1s-1-.4-1-1 .4-1 1-1 1 .4 1 1m3 0c0 .6-.4 1-1 1s-1-.4-1-1 .4-1 1-1 1 .4 1 1m3 0c0 .6-.4 1-1 1s-1-.4-1-1 .4-1 1-1 1 .4 1 1m-6 3c0 .6-.4 1-1 1s-1-.4-1-1 .4-1 1-1 1 .4 1 1m3 0c0 .6-.4 1-1 1s-1-.4-1-1 .4-1 1-1 1 .4 1 1m3 0c0 .6-.4 1-1 1s-1-.4-1-1 .4-1 1-1 1 .4 1 1Z" transform="matrix(1.5 0 0 1.5 144 252)" id="mdi-phone-dial-outline" fill="#555"/><path d="M20 15.5c-1.2 0-2.5-.2-3.6-.6h-.3c-.3 0-.5.1-.7.3l-2.2 2.2c-2.8-1.5-5.2-3.8-6.6-6.6l2.2-2.2c.3-.3.4-.7.2-1-.3-1.1-.5-2.4-.5-3.6 0-.5-.5-1-1-1H4c-.5 0-1 .5-1 1 0 9.4 7.6 17 17 17 .5 0 1-.5 1-1v-3.5c0-.5-.5-1-1-1M5 5h1.5c.1.9.3 1.8.5 2.6L5.8 8.8C5.4 7.6 5.1 6.3 5 5m14 14c-1.3-.1-2.6-.4-3.8-.8l1.2-1.2c.8.2 1.7.4 2.6.4V19M15 4c0 .6-.4 1-1 1s-1-.4-1-1 .4-1 1-1 1 .4 1 1m3 0c0 .6-.4 1-1 1s-1-.4-1-1 .4-1 1-1 1 .4 1 1m3 0c0 .6-.4 1-1 1s-1-.4-1-1 .4-1 1-1 1 .4 1 1m-6 3c0 .6-.4 1-1 1s-1-.4-1-1 .4-1 1-1 1 .4 1 1m3 0c0 .6-.4 1-1 1s-1-.4-1-1 .4-1 1-1 1 .4 1 1m3 0c0 .6-.4 1-1 1s-1-.4-1-1 .4-1 1-1 1 .4 1 1m-6 3c0 .6-.4 1-1 1s-1-.4-1-1 .4-1 1-1 1 .4 1 1m3 0c0 .6-.4 1-1 1s-1-.4-1-1 .4-1 1-1 1 .4 1 1m3 0c0 .6-.4 1-1 1s-1-.4-1-1 .4-1 1-1 1 .4 1 1Z" transform="matrix(1.5 0 0 1.5 180 252)" id="mdi-phone-dial-outline" fill="#fff"/><path d="M20 15.5c-1.25 0-2.45-.2-3.57-.57-.35-.11-.74-.03-1.02.25l-2.2 2.2a15.097 15.097 0 0 1-6.59-6.59l2.2-2.2c.28-.28.36-.67.25-1.02A11.36 11.36 0 0 1 8.5 4a1 1 0 0 0-1-1H4a1 1 0 0 0-1 1 17 17 0 0 0 17 17 1 1 0 0 0 1-1v-3.5a1 1 0 0 0-1-1M18 11l5-5-5-5v3h-4v4h4v3Z" transform="matrix(1.5 0 0 1.5 216 252)" id="mdi-phone-forward" fill="#555"/><path d="M20 15.5c-1.25 0-2.45-.2-3.57-.57-.35-.11-.74-.03-1.02.25l-2.2 2.2a15.097 15.097 0 0 1-6.59-6.59l2.2-2.2c.28-.28.36-.67.25-1.02A11.36 11.36 0 0 1 8.5 4a1 1 0 0 0-1-1H4a1 1 0 0 0-1 1 17 17 0 0 0 17 17 1 1 0 0 0 1-1v-3.5a1 1 0 0 0-1-1M18 11l5-5-5-5v3h-4v4h4v3Z" transform="matrix(1.5 0 0 1.5 252 252)" id="mdi-phone-forward" fill="#fff"/><path d="M20 15.5c-1.2 0-2.5-.2-3.6-.6h-.3c-.3 0-.5.1-.7.3l-2.2 2.2c-2.8-1.5-5.2-3.8-6.6-6.6l2.2-2.2c.3-.3.4-.7.2-1-.3-1.1-.5-2.4-.5-3.6 0-.5-.5-1-1-1H4c-.5 0-1 .5-1 1 0 9.4 7.6 17 17 17 .5 0 1-.5 1-1v-3.5c0-.5-.5-1-1-1M5 5h1.5c.1.9.3 1.8.5 2.6L5.8 8.8C5.4 7.6 5.1 6.3 5 5m14 14c-1.3-.1-2.6-.4-3.8-.8l1.2-1.2c.8.2 1.7.4 2.6.4V19m-1-8 5-5-5-5v3h-4v4h4v3Z" transform="matrix(1.5 0 0 1.5 288 252)" id="mdi-phone-forward-outline" fill="#555"/><path d="M20 15.5c-1.2 0-2.5-.2-3.6-.6h-.3c-.3 0-.5.1-.7.3l-2.2 2.2c-2.8-1.5-5.2-3.8-6.6-6.6l2.2-2.2c.3-.3.4-.7.2-1-.3-1.1-.5-2.4-.5-3.6 0-.5-.5-1-1-1H4c-.5 0-1 .5-1 1 0 9.4 7.6 17 17 17 .5 0 1-.5 1-1v-3.5c0-.5-.5-1-1-1M5 5h1.5c.1.9.3 1.8.5 2.6L5.8 8.8C5.4 7.6 5.1 6.3 5 5m14 14c-1.3-.1-2.6-.4-3.8-.8l1.2-1.2c.8.2 1.7.4 2.6.4V19m-1-8 5-5-5-5v3h-4v4h4v3Z" transform="matrix(1.5 0 0 1.5 324 252)" id="mdi-phone-forward-outline" fill="#fff"/><path d="M12 9c-1.6 0-3.15.25-4.6.72v3.1c0 .4-.23.74-.56.9-.98.49-1.87 1.12-2.67 1.85-.17.18-.42.29-.67.29-.3 0-.55-.12-.73-.3L.29 13.08a.99.99 0 0 1-.29-.7c0-.28.11-.53.29-.71C3.34 8.77 7.46 7 12 7c4.54 0 8.66 1.77 11.71 4.67.18.18.29.43.29.71 0 .27-.11.52-.29.7l-2.48 2.48c-.18.18-.43.3-.73.3a.98.98 0 0 1-.68-.29c-.79-.73-1.68-1.36-2.66-1.85a.996.996 0 0 1-.56-.9v-3.1C15.15 9.25 13.6 9 12 9Z" transform="matrix(1.5 0 0 1.5 360 252)" id="mdi-phone-hangup" fill="#555"/><path d="M12 9c-1.6 0-3.15.25-4.6.72v3.1c0 .4-.23.74-.56.9-.98.49-1.87 1.12-2.67 1.85-.17.18-.42.29-.67.29-.3 0-.55-.12-.73-.3L.29 13.08a.99.99 0 0 1-.29-.7c0-.28.11-.53.29-.71C3.34 8.77 7.46 7 12 7c4.54 0 8.66 1.77 11.71 4.67.18.18.29.43.29.71 0 .27-.11.52-.29.7l-2.48 2.48c-.18.18-.43.3-.73.3a.98.98 0 0 1-.68-.29c-.79-.73-1.68-1.36-2.66-1.85a.996.996 0 0 1-.56-.9v-3.1C15.15 9.25 13.6 9 12 9Z" transform="matrix(1.5 0 0 1.5 396 252)" id="mdi-phone-hangup" fill="#fff"/><path d="M23.71 11.67a17 17 0 0 0-23.42 0 1 1 0 0 0-.29.71 1 1 0 0 0 .29.7l2.48 2.48a1 1 0 0 0 .73.29 1 1 0 0 0 .68-.28 11.5 11.5 0 0 1 2.66-1.85 1 1 0 0 0 .56-.9v-3.1A14.91 14.91 0 0 1 12 9a14.5 14.5 0 0 1 4.59.73v3.1a1 1 0 0 0 .56.9 11.27 11.27 0 0 1 2.67 1.85 1 1 0 0 0 .68.28 1 1 0 0 0 .73-.29l2.48-2.48a1 1 0 0 0 0-1.42m-18.31.55a13.68 13.68 0 0 0-1.87 1.28l-1.07-1.08A15.54 15.54 0 0 1 5.4 10.5m15.1 3a13.75 13.75 0 0 0-1.9-1.27v-1.7a14.26 14.26 0 0 1 2.95 1.9Z" transform="matrix(1.5 0 0 1.5 432 252)" id="mdi-phone-hangup-outline" fill="#555"/><path d="M23.71 11.67a17 17 0 0 0-23.42 0 1 1 0 0 0-.29.71 1 1 0 0 0 .29.7l2.48 2.48a1 1 0 0 0 .73.29 1 1 0 0 0 .68-.28 11.5 11.5 0 0 1 2.66-1.85 1 1 0 0 0 .56-.9v-3.1A14.91 14.91 0 0 1 12 9a14.5 14.5 0 0 1 4.59.73v3.1a1 1 0 0 0 .56.9 11.27 11.27 0 0 1 2.67 1.85 1 1 0 0 0 .68.28 1 1 0 0 0 .73-.29l2.48-2.48a1 1 0 0 0 0-1.42m-18.31.55a13.68 13.68 0 0 0-1.87 1.28l-1.07-1.08A15.54 15.54 0 0 1 5.4 10.5m15.1 3a13.75 13.75 0 0 0-1.9-1.27v-1.7a14.26 14.26 0 0 1 2.95 1.9Z" transform="matrix(1.5 0 0 1.5 468 252)" id="mdi-phone-hangup-outline" fill="#fff"/><path d="M15 12h2a5 5 0 0 0-5-5v2a3 3 0 0 1 3 3m4 0h2c0-5-4.03-9-9-9v2c3.86 0 7 3.13 7 7m1 3.5c-1.25 0-2.45-.2-3.57-.57-.35-.11-.74-.03-1.02.25l-2.2 2.2a15.097 15.097 0 0 1-6.59-6.59l2.2-2.2c.28-.28.36-.67.25-1.02A11.36 11.36 0 0 1 8.5 4a1 1 0 0 0-1-1H4a1 1 0 0 0-1 1 17 17 0 0 0 17 17 1 1 0 0 0 1-1v-3.5a1 1 0 0 0-1-1Z" transform="matrix(1.5 0 0 1.5 504 252)" id="mdi-phone-in-talk" fill="#555"/><path d="M15 12h2a5 5 0 0 0-5-5v2a3 3 0 0 1 3 3m4 0h2c0-5-4.03-9-9-9v2c3.86 0 7 3.13 7 7m1 3.5c-1.25 0-2.45-.2-3.57-.57-.35-.11-.74-.03-1.02.25l-2.2 2.2a15.097 15.097 0 0 1-6.59-6.59l2.2-2.2c.28-.28.36-.67.25-1.02A11.36 11.36 0 0 1 8.5 4a1 1 0 0 0-1-1H4a1 1 0 0 0-1 1 17 17 0 0 0 17 17 1 1 0 0 0 1-1v-3.5a1 1 0 0 0-1-1Z" transform="matrix(1.5 0 0 1.5 540 252)" id="mdi-phone-in-talk" fill="#fff"/><path d="M20 15.5c-1.2 0-2.5-.2-3.6-.6h-.3c-.3 0-.5.1-.7.3l-2.2 2.2c-2.8-1.5-5.2-3.8-6.6-6.6l2.2-2.2c.3-.3.4-.7.2-1-.3-1.1-.5-2.4-.5-3.6 0-.5-.5-1-1-1H4c-.5 0-1 .5-1 1 0 9.4 7.6 17 17 17 .5 0 1-.5 1-1v-3.5c0-.5-.5-1-1-1M5 5h1.5c.1.9.3 1.8.5 2.6L5.8 8.8C5.4 7.6 5.1 6.3 5 5m14 14c-1.3-.1-2.6-.4-3.8-.8l1.2-1.2c.8.2 1.7.4 2.6.4V19m-4-7h2a5 5 0 0 0-5-5v2a3 3 0 0 1 3 3m4 0h2c0-5-4.03-9-9-9v2c3.86 0 7 3.13 7 7Z" transform="matrix(1.5 0 0 1.5 576 252)" id="mdi-phone-in-talk-outline" fill="#555"/><path d="M20 15.5c-1.2 0-2.5-.2-3.6-.6h-.3c-.3 0-.5.1-.7.3l-2.2 2.2c-2.8-1.5-5.2-3.8-6.6-6.6l2.2-2.2c.3-.3.4-.7.2-1-.3-1.1-.5-2.4-.5-3.6 0-.5-.5-1-1-1H4c-.5 0-1 .5-1 1 0 9.4 7.6 17 17 17 .5 0 1-.5 1-1v-3.5c0-.5-.5-1-1-1M5 5h1.5c.1.9.3 1.8.5 2.6L5.8 8.8C5.4 7.6 5.1 6.3 5 5m14 14c-1.3-.1-2.6-.4-3.8-.8l1.2-1.2c.8.2 1.7.4 2.6.4V19m-4-7h2a5 5 0 0 0-5-5v2a3 3 0 0 1 3 3m4 0h2c0-5-4.03-9-9-9v2c3.86 0 7 3.13 7 7Z" transform="matrix(1.5 0 0 1.5 612 252)" id="mdi-phone-in-talk-outline" fill="#fff"/><path d="M4 3a1 1 0 0 0-1 1 17 17 0 0 0 17 17 1 1 0 0 0 1-1v-3.5a1 1 0 0 0-1-1c-1.25 0-2.45-.2-3.57-.57a1.02 1.02 0 0 0-1.02.24l-2.2 2.2a15.045 15.045 0 0 1-6.59-6.59l2.2-2.21a.96.96 0 0 0 .25-1A11.36 11.36 0 0 1 8.5 4a1 1 0 0 0-1-1H4m15 8V9.5h-3.5L21 4l-1-1-5.5 5.5V5H13v6h6Z" transform="matrix(1.5 0 0 1.5 648 252)" id="mdi-phone-incoming" fill="#555"/><path d="M4 3a1 1 0 0 0-1 1 17 17 0 0 0 17 17 1 1 0 0 0 1-1v-3.5a1 1 0 0 0-1-1c-1.25 0-2.45-.2-3.57-.57a1.02 1.02 0 0 0-1.02.24l-2.2 2.2a15.045 15.045 0 0 1-6.59-6.59l2.2-2.21a.96.96 0 0 0 .25-1A11.36 11.36 0 0 1 8.5 4a1 1 0 0 0-1-1H4m15 8V9.5h-3.5L21 4l-1-1-5.5 5.5V5H13v6h6Z" transform="matrix(1.5 0 0 1.5 684 252)" id="mdi-phone-incoming" fill="#fff"/><path d="M20 15.5c-1.2 0-2.5-.2-3.6-.6h-.3c-.3 0-.5.1-.7.3l-2.2 2.2c-2.8-1.5-5.2-3.8-6.6-6.6l2.2-2.2c.3-.3.4-.7.2-1-.3-1.1-.5-2.4-.5-3.6 0-.5-.5-1-1-1H4c-.5 0-1 .5-1 1 0 9.4 7.6 17 17 17 .5 0 1-.5 1-1v-3.5c0-.5-.5-1-1-1M5 5h1.5c.1.9.3 1.8.5 2.6L5.8 8.8C5.4 7.6 5.1 6.3 5 5m14 14c-1.3-.1-2.6-.4-3.8-.8l1.2-1.2c.8.2 1.7.4 2.6.4V19m0-8V9.5h-3.5L21 4l-1-1-5.5 5.5V5H13v6h6Z" transform="matrix(1.5 0 0 1.5 0 288)" id="mdi-phone-incoming-outline" fill="#555"/><path d="M20 15.5c-1.2 0-2.5-.2-3.6-.6h-.3c-.3 0-.5.1-.7.3l-2.2 2.2c-2.8-1.5-5.2-3.8-6.6-6.6l2.2-2.2c.3-.3.4-.7.2-1-.3-1.1-.5-2.4-.5-3.6 0-.5-.5-1-1-1H4c-.5 0-1 .5-1 1 0 9.4 7.6 17 17 17 .5 0 1-.5 1-1v-3.5c0-.5-.5-1-1-1M5 5h1.5c.1.9.3 1.8.5 2.6L5.8 8.8C5.4 7.6 5.1 6.3 5 5m14 14c-1.3-.1-2.6-.4-3.8-.8l1.2-1.2c.8.2 1.7.4 2.6.4V19m0-8V9.5h-3.5L21 4l-1-1-5.5 5.5V5H13v6h6Z" transform="matrix(1.5 0 0 1.5 36 288)" id="mdi-phone-incoming-outline" fill="#fff"/><path d="M19.2 4h-3.4v-.5c0-.94.76-1.7 1.7-1.7s1.7.76 1.7 1.7m.8.5v-.5A2.5 2.5 0 0 0 17.5 1 2.5 2.5 0 0 0 15 3.5V4a1 1 0 0 0-1 1v4a1 1 0 0 0 1 1h5a1 1 0 0 0 1-1V5a1 1 0 0 0-1-1m0 11.5c-1.25 0-2.45-.2-3.57-.57-.35-.11-.74-.03-1.02.25l-2.2 2.2a15.097 15.097 0 0 1-6.59-6.59l2.2-2.2c.28-.28.36-.67.25-1.02A11.36 11.36 0 0 1 8.5 4a1 1 0 0 0-1-1H4a1 1 0 0 0-1 1 17 17 0 0 0 17 17 1 1 0 0 0 1-1v-3.5a1 1 0 0 0-1-1Z" transform="matrix(1.5 0 0 1.5 72 288)" id="mdi-phone-lock" fill="#555"/><path d="M19.2 4h-3.4v-.5c0-.94.76-1.7 1.7-1.7s1.7.76 1.7 1.7m.8.5v-.5A2.5 2.5 0 0 0 17.5 1 2.5 2.5 0 0 0 15 3.5V4a1 1 0 0 0-1 1v4a1 1 0 0 0 1 1h5a1 1 0 0 0 1-1V5a1 1 0 0 0-1-1m0 11.5c-1.25 0-2.45-.2-3.57-.57-.35-.11-.74-.03-1.02.25l-2.2 2.2a15.097 15.097 0 0 1-6.59-6.59l2.2-2.2c.28-.28.36-.67.25-1.02A11.36 11.36 0 0 1 8.5 4a1 1 0 0 0-1-1H4a1 1 0 0 0-1 1 17 17 0 0 0 17 17 1 1 0 0 0 1-1v-3.5a1 1 0 0 0-1-1Z" transform="matrix(1.5 0 0 1.5 108 288)" id="mdi-phone-lock" fill="#fff"/><path d="M20 15.5c-1.2 0-2.5-.2-3.6-.6h-.3c-.3 0-.5.1-.7.3l-2.2 2.2c-2.8-1.5-5.2-3.8-6.6-6.6l2.2-2.2c.3-.3.4-.7.2-1-.3-1.1-.5-2.4-.5-3.6 0-.5-.5-1-1-1H4c-.5 0-1 .5-1 1 0 9.4 7.6 17 17 17 .5 0 1-.5 1-1v-3.5c0-.5-.5-1-1-1M5 5h1.5c.1.9.3 1.8.5 2.6L5.8 8.8C5.4 7.6 5.1 6.3 5 5m14 14c-1.3-.1-2.6-.4-3.8-.8l1.2-1.2c.8.2 1.7.4 2.6.4V19m.2-15h-3.4v-.5c0-.94.76-1.7 1.7-1.7s1.7.76 1.7 1.7m.8.5v-.5A2.5 2.5 0 0 0 17.5 1 2.5 2.5 0 0 0 15 3.5V4a1 1 0 0 0-1 1v4a1 1 0 0 0 1 1h5a1 1 0 0 0 1-1V5a1 1 0 0 0-1-1Z" transform="matrix(1.5 0 0 1.5 144 288)" id="mdi-phone-lock-outline" fill="#555"/><path d="M20 15.5c-1.2 0-2.5-.2-3.6-.6h-.3c-.3 0-.5.1-.7.3l-2.2 2.2c-2.8-1.5-5.2-3.8-6.6-6.6l2.2-2.2c.3-.3.4-.7.2-1-.3-1.1-.5-2.4-.5-3.6 0-.5-.5-1-1-1H4c-.5 0-1 .5-1 1 0 9.4 7.6 17 17 17 .5 0 1-.5 1-1v-3.5c0-.5-.5-1-1-1M5 5h1.5c.1.9.3 1.8.5 2.6L5.8 8.8C5.4 7.6 5.1 6.3 5 5m14 14c-1.3-.1-2.6-.4-3.8-.8l1.2-1.2c.8.2 1.7.4 2.6.4V19m.2-15h-3.4v-.5c0-.94.76-1.7 1.7-1.7s1.7.76 1.7 1.7m.8.5v-.5A2.5 2.5 0 0 0 17.5 1 2.5 2.5 0 0 0 15 3.5V4a1 1 0 0 0-1 1v4a1 1 0 0 0 1 1h5a1 1 0 0 0 1-1V5a1 1 0 0 0-1-1Z" transform="matrix(1.5 0 0 1.5 180 288)" id="mdi-phone-lock-outline" fill="#fff"/><path d="M20 15.5a1 1 0 0 1 1 1V20a1 1 0 0 1-1 1A17 17 0 0 1 3 4a1 1 0 0 1 1-1h3.5a1 1 0 0 1 1 1c0 1.24.2 2.45.57 3.57.11.35.03.74-.25 1.01l-2.2 2.21c1.44 2.83 3.76 5.15 6.59 6.59l2.2-2.2c.28-.28.67-.36 1.02-.25 1.12.37 2.32.57 3.57.57M12 3h2v2h-2m3-2h6v2h-6m-3 1h2v2h-2m3-2h6v2h-6m-3 1h2v2h-2m3-2h6v2h-6" transform="matrix(1.5 0 0 1.5 216 288)" id="mdi-phone-log" fill="#555"/><path d="M20 15.5a1 1 0 0 1 1 1V20a1 1 0 0 1-1 1A17 17 0 0 1 3 4a1 1 0 0 1 1-1h3.5a1 1 0 0 1 1 1c0 1.24.2 2.45.57 3.57.11.35.03.74-.25 1.01l-2.2 2.21c1.44 2.83 3.76 5.15 6.59 6.59l2.2-2.2c.28-.28.67-.36 1.02-.25 1.12.37 2.32.57 3.57.57M12 3h2v2h-2m3-2h6v2h-6m-3 1h2v2h-2m3-2h6v2h-6m-3 1h2v2h-2m3-2h6v2h-6" transform="matrix(1.5 0 0 1.5 252 288)" id="mdi-phone-log" fill="#fff"/><path d="M20 15.5c-1.2 0-2.5-.2-3.6-.6h-.3c-.3 0-.5.1-.7.3l-2.2 2.2c-2.8-1.5-5.2-3.8-6.6-6.6l2.2-2.2c.3-.3.4-.7.2-1-.3-1.1-.5-2.4-.5-3.6 0-.5-.5-1-1-1H4c-.5 0-1 .5-1 1 0 9.4 7.6 17 17 17 .5 0 1-.5 1-1v-3.5c0-.5-.5-1-1-1M5 5h1.5c.1.9.3 1.8.5 2.6L5.8 8.8C5.4 7.6 5.1 6.3 5 5m14 14c-1.3-.1-2.6-.4-3.8-.8l1.2-1.2c.8.2 1.7.4 2.6.4V19M12 3h2v2h-2m3-2h6v2h-6m-3 1h2v2h-2m3-2h6v2h-6m-3 1h2v2h-2m3-2h6v2h-6Z" transform="matrix(1.5 0 0 1.5 288 288)" id="mdi-phone-log-outline" fill="#555"/><path d="M20 15.5c-1.2 0-2.5-.2-3.6-.6h-.3c-.3 0-.5.1-.7.3l-2.2 2.2c-2.8-1.5-5.2-3.8-6.6-6.6l2.2-2.2c.3-.3.4-.7.2-1-.3-1.1-.5-2.4-.5-3.6 0-.5-.5-1-1-1H4c-.5 0-1 .5-1 1 0 9.4 7.6 17 17 17 .5 0 1-.5 1-1v-3.5c0-.5-.5-1-1-1M5 5h1.5c.1.9.3 1.8.5 2.6L5.8 8.8C5.4 7.6 5.1 6.3 5 5m14 14c-1.3-.1-2.6-.4-3.8-.8l1.2-1.2c.8.2 1.7.4 2.6.4V19M12 3h2v2h-2m3-2h6v2h-6m-3 1h2v2h-2m3-2h6v2h-6m-3 1h2v2h-2m3-2h6v2h-6Z" transform="matrix(1.5 0 0 1.5 324 288)" id="mdi-phone-log-outline" fill="#fff"/><path d="M20 15.5c-1.25 0-2.45-.2-3.57-.57a1.02 1.02 0 0 0-1.02.24l-2.2 2.2a15.074 15.074 0 0 1-6.59-6.58l2.2-2.21c.28-.27.36-.66.25-1.01A11.36 11.36 0 0 1 8.5 4c0-.55-.45-1-1-1H4c-.55 0-1 .45-1 1 0 9.39 7.61 17 17 17 .55 0 1-.45 1-1v-3.5c0-.55-.45-1-1-1M12 3v10l3-3h6V3h-9Z" transform="matrix(1.5 0 0 1.5 360 288)" id="mdi-phone-message" fill="#555"/><path d="M20 15.5c-1.25 0-2.45-.2-3.57-.57a1.02 1.02 0 0 0-1.02.24l-2.2 2.2a15.074 15.074 0 0 1-6.59-6.58l2.2-2.21c.28-.27.36-.66.25-1.01A11.36 11.36 0 0 1 8.5 4c0-.55-.45-1-1-1H4c-.55 0-1 .45-1 1 0 9.39 7.61 17 17 17 .55 0 1-.45 1-1v-3.5c0-.55-.45-1-1-1M12 3v10l3-3h6V3h-9Z" transform="matrix(1.5 0 0 1.5 396 288)" id="mdi-phone-message" fill="#fff"/><path d="M20 15.5c-1.25 0-2.45-.2-3.57-.57-.1-.03-.21-.05-.31-.05-.26 0-.51.12-.71.29l-2.2 2.2a15.074 15.074 0 0 1-6.59-6.58l2.2-2.21c.28-.27.36-.66.25-1.01A11.36 11.36 0 0 1 8.5 4c0-.55-.45-1-1-1H4c-.55 0-1 .45-1 1 0 9.39 7.61 17 17 17 .55 0 1-.45 1-1v-3.5c0-.55-.45-1-1-1M5.03 5h1.5c.07.88.22 1.75.47 2.59L5.79 8.8c-.41-1.21-.67-2.48-.76-3.8M19 18.97c-1.32-.09-2.6-.35-3.8-.76L16.4 17c.85.25 1.72.4 2.6.46v1.51M12 3v10l3-3h6V3h-9m7 5h-5V5h5v3Z" transform="matrix(1.5 0 0 1.5 432 288)" id="mdi-phone-message-outline" fill="#555"/><path d="M20 15.5c-1.25 0-2.45-.2-3.57-.57-.1-.03-.21-.05-.31-.05-.26 0-.51.12-.71.29l-2.2 2.2a15.074 15.074 0 0 1-6.59-6.58l2.2-2.21c.28-.27.36-.66.25-1.01A11.36 11.36 0 0 1 8.5 4c0-.55-.45-1-1-1H4c-.55 0-1 .45-1 1 0 9.39 7.61 17 17 17 .55 0 1-.45 1-1v-3.5c0-.55-.45-1-1-1M5.03 5h1.5c.07.88.22 1.75.47 2.59L5.79 8.8c-.41-1.21-.67-2.48-.76-3.8M19 18.97c-1.32-.09-2.6-.35-3.8-.76L16.4 17c.85.25 1.72.4 2.6.46v1.51M12 3v10l3-3h6V3h-9m7 5h-5V5h5v3Z" transform="matrix(1.5 0 0 1.5 468 288)" id="mdi-phone-message-outline" fill="#fff"/><path d="M4 3a1 1 0 0 0-1 1 17 17 0 0 0 17 17 1 1 0 0 0 1-1v-3.5a1 1 0 0 0-1-1c-1.24 0-2.45-.2-3.57-.57-.35-.11-.74-.03-1.02.25l-2.2 2.2a15.149 15.149 0 0 1-6.59-6.59l2.2-2.21c.28-.27.36-.66.25-1.01C8.7 6.45 8.5 5.24 8.5 4a1 1 0 0 0-1-1M13 6v2h8V6" transform="matrix(1.5 0 0 1.5 504 288)" id="mdi-phone-minus" fill="#555"/><path d="M4 3a1 1 0 0 0-1 1 17 17 0 0 0 17 17 1 1 0 0 0 1-1v-3.5a1 1 0 0 0-1-1c-1.24 0-2.45-.2-3.57-.57-.35-.11-.74-.03-1.02.25l-2.2 2.2a15.149 15.149 0 0 1-6.59-6.59l2.2-2.21c.28-.27.36-.66.25-1.01C8.7 6.45 8.5 5.24 8.5 4a1 1 0 0 0-1-1M13 6v2h8V6" transform="matrix(1.5 0 0 1.5 540 288)" id="mdi-phone-minus" fill="#fff"/><path d="M20 15.5c-1.2 0-2.5-.2-3.6-.6h-.3c-.3 0-.5.1-.7.3l-2.2 2.2c-2.8-1.5-5.2-3.8-6.6-6.6l2.2-2.2c.3-.3.4-.7.2-1-.3-1.1-.5-2.4-.5-3.6 0-.5-.5-1-1-1H4c-.5 0-1 .5-1 1 0 9.4 7.6 17 17 17 .5 0 1-.5 1-1v-3.5c0-.5-.5-1-1-1M5 5h1.5c.1.9.3 1.8.5 2.6L5.8 8.8C5.4 7.6 5.1 6.3 5 5m14 14c-1.3-.1-2.6-.4-3.8-.8l1.2-1.2c.8.2 1.7.4 2.6.4V19M13 6v2h8V6Z" transform="matrix(1.5 0 0 1.5 576 288)" id="mdi-phone-minus-outline" fill="#555"/><path d="M20 15.5c-1.2 0-2.5-.2-3.6-.6h-.3c-.3 0-.5.1-.7.3l-2.2 2.2c-2.8-1.5-5.2-3.8-6.6-6.6l2.2-2.2c.3-.3.4-.7.2-1-.3-1.1-.5-2.4-.5-3.6 0-.5-.5-1-1-1H4c-.5 0-1 .5-1 1 0 9.4 7.6 17 17 17 .5 0 1-.5 1-1v-3.5c0-.5-.5-1-1-1M5 5h1.5c.1.9.3 1.8.5 2.6L5.8 8.8C5.4 7.6 5.1 6.3 5 5m14 14c-1.3-.1-2.6-.4-3.8-.8l1.2-1.2c.8.2 1.7.4 2.6.4V19M13 6v2h8V6Z" transform="matrix(1.5 0 0 1.5 612 288)" id="mdi-phone-minus-outline" fill="#fff"/><path d="M23.71 16.67C20.66 13.77 16.54 12 12 12 7.46 12 3.34 13.77.29 16.67c-.18.18-.29.43-.29.71 0 .27.11.52.29.7l2.48 2.48c.18.18.43.3.73.3.25 0 .5-.11.68-.29.79-.74 1.68-1.36 2.66-1.85.33-.16.56-.5.56-.9v-3.1c1.45-.47 2.99-.72 4.6-.72 1.6 0 3.15.25 4.6.72v3.1c0 .4.23.74.56.9.98.49 1.87 1.11 2.66 1.85.18.18.43.29.68.29.3 0 .55-.12.73-.3l2.48-2.48a.99.99 0 0 0 .29-.7c0-.28-.11-.53-.29-.71M6.5 5.5 12 11l7-7-1-1-6 6-4.5-4.5H11V3H5v6h1.5V5.5Z" transform="matrix(1.5 0 0 1.5 648 288)" id="mdi-phone-missed" fill="#555"/><path d="M23.71 16.67C20.66 13.77 16.54 12 12 12 7.46 12 3.34 13.77.29 16.67c-.18.18-.29.43-.29.71 0 .27.11.52.29.7l2.48 2.48c.18.18.43.3.73.3.25 0 .5-.11.68-.29.79-.74 1.68-1.36 2.66-1.85.33-.16.56-.5.56-.9v-3.1c1.45-.47 2.99-.72 4.6-.72 1.6 0 3.15.25 4.6.72v3.1c0 .4.23.74.56.9.98.49 1.87 1.11 2.66 1.85.18.18.43.29.68.29.3 0 .55-.12.73-.3l2.48-2.48a.99.99 0 0 0 .29-.7c0-.28-.11-.53-.29-.71M6.5 5.5 12 11l7-7-1-1-6 6-4.5-4.5H11V3H5v6h1.5V5.5Z" transform="matrix(1.5 0 0 1.5 684 288)" id="mdi-phone-missed" fill="#fff"/><path d="M18.6 15.5v1.8c.7.4 1.3.8 1.9 1.3l1.1-1.1c-.9-.9-1.9-1.5-3-2m-13.2 0c-1 .5-2 1.1-2.9 1.9l1.1 1.1c.6-.5 1.2-.9 1.9-1.3v-1.7M12 12c4.5 0 8.7 1.7 11.7 4.7.2.2.3.4.3.7 0 .3-.1.5-.3.7l-2.5 2.5c-.2.2-.4.3-.7.3-.2 0-.5-.1-.7-.3-.8-.7-1.7-1.4-2.7-1.8-.3-.2-.6-.5-.6-.9v-3.1c-1.5-.5-3-.7-4.6-.7-1.6 0-3.1.2-4.6.7v3.1c0 .4-.2.7-.6.9-1 .5-1.9 1.1-2.7 1.8-.2.2-.4.3-.7.3-.3 0-.5-.1-.7-.3L.1 18.1c0-.2-.1-.5-.1-.7 0-.3.1-.5.3-.7C3.3 13.8 7.5 12 12 12zM6.5 5.5V9H5V3h6v1.5H7.5L12 9l6-6 1 1-7 7-5.5-5.5z" transform="matrix(1.5 0 0 1.5 0 324)" id="mdi-phone-missed-outline" fill="#555"/><path d="M18.6 15.5v1.8c.7.4 1.3.8 1.9 1.3l1.1-1.1c-.9-.9-1.9-1.5-3-2m-13.2 0c-1 .5-2 1.1-2.9 1.9l1.1 1.1c.6-.5 1.2-.9 1.9-1.3v-1.7M12 12c4.5 0 8.7 1.7 11.7 4.7.2.2.3.4.3.7 0 .3-.1.5-.3.7l-2.5 2.5c-.2.2-.4.3-.7.3-.2 0-.5-.1-.7-.3-.8-.7-1.7-1.4-2.7-1.8-.3-.2-.6-.5-.6-.9v-3.1c-1.5-.5-3-.7-4.6-.7-1.6 0-3.1.2-4.6.7v3.1c0 .4-.2.7-.6.9-1 .5-1.9 1.1-2.7 1.8-.2.2-.4.3-.7.3-.3 0-.5-.1-.7-.3L.1 18.1c0-.2-.1-.5-.1-.7 0-.3.1-.5.3-.7C3.3 13.8 7.5 12 12 12zM6.5 5.5V9H5V3h6v1.5H7.5L12 9l6-6 1 1-7 7-5.5-5.5z" transform="matrix(1.5 0 0 1.5 36 324)" id="mdi-phone-missed-outline" fill="#fff"/><path d="M20.22 2.5 2.5 20.22l1.27 1.28 4.88-4.88C11.76 19.43 15.81 21 20 21a1 1 0 0 0 1-1v-3.5a1 1 0 0 0-1-1c-1.25 0-2.45-.2-3.57-.57-.35-.11-.74-.03-1.02.25l-2.2 2.2c-1.15-.58-2.21-1.32-3.15-2.17L21.5 3.77 20.22 2.5M4 3a1 1 0 0 0-1 1c0 3.57 1.14 7.05 3.24 9.94l1.42-1.44a13.9 13.9 0 0 1-1.04-1.71l2.2-2.2c.28-.28.36-.67.25-1.02A11.36 11.36 0 0 1 8.5 4a1 1 0 0 0-1-1H4Z" transform="matrix(1.5 0 0 1.5 72 324)" id="mdi-phone-off" fill="#555"/><path d="M20.22 2.5 2.5 20.22l1.27 1.28 4.88-4.88C11.76 19.43 15.81 21 20 21a1 1 0 0 0 1-1v-3.5a1 1 0 0 0-1-1c-1.25 0-2.45-.2-3.57-.57-.35-.11-.74-.03-1.02.25l-2.2 2.2c-1.15-.58-2.21-1.32-3.15-2.17L21.5 3.77 20.22 2.5M4 3a1 1 0 0 0-1 1c0 3.57 1.14 7.05 3.24 9.94l1.42-1.44a13.9 13.9 0 0 1-1.04-1.71l2.2-2.2c.28-.28.36-.67.25-1.02A11.36 11.36 0 0 1 8.5 4a1 1 0 0 0-1-1H4Z" transform="matrix(1.5 0 0 1.5 108 324)" id="mdi-phone-off" fill="#fff"/><path d="M16.4 17c.8.2 1.7.4 2.6.5V19c-1.3-.1-2.6-.3-3.8-.8l1.2-1.2m3.8-14.5L2.5 20.2l1.3 1.3 4.9-4.9C11.8 19.4 15.8 21 20 21c.6 0 1-.4 1-1v-3.5c0-.6-.4-1-1-1-1.2 0-2.5-.2-3.6-.6h-.3c-.3 0-.5.1-.7.3l-2.2 2.2c-1.1-.6-2.2-1.3-3.1-2.2L21.5 3.8l-1.3-1.3M6.5 5c.1.9.3 1.8.5 2.6L5.8 8.8C5.4 7.6 5.1 6.3 5 5h1.5m1-2H4c-.6 0-1 .4-1 1 0 3.6 1.1 7 3.2 9.9l1.4-1.4c-.4-.5-.7-1.1-1-1.7l2.2-2.2c.3-.3.4-.7.2-1-.3-1.2-.5-2.4-.5-3.6 0-.6-.4-1-1-1Z" transform="matrix(1.5 0 0 1.5 144 324)" id="mdi-phone-off-outline" fill="#555"/><path d="M16.4 17c.8.2 1.7.4 2.6.5V19c-1.3-.1-2.6-.3-3.8-.8l1.2-1.2m3.8-14.5L2.5 20.2l1.3 1.3 4.9-4.9C11.8 19.4 15.8 21 20 21c.6 0 1-.4 1-1v-3.5c0-.6-.4-1-1-1-1.2 0-2.5-.2-3.6-.6h-.3c-.3 0-.5.1-.7.3l-2.2 2.2c-1.1-.6-2.2-1.3-3.1-2.2L21.5 3.8l-1.3-1.3M6.5 5c.1.9.3 1.8.5 2.6L5.8 8.8C5.4 7.6 5.1 6.3 5 5h1.5m1-2H4c-.6 0-1 .4-1 1 0 3.6 1.1 7 3.2 9.9l1.4-1.4c-.4-.5-.7-1.1-1-1.7l2.2-2.2c.3-.3.4-.7.2-1-.3-1.2-.5-2.4-.5-3.6 0-.6-.4-1-1-1Z" transform="matrix(1.5 0 0 1.5 180 324)" id="mdi-phone-off-outline" fill="#fff"/><path d="M4 3a1 1 0 0 0-1 1 17 17 0 0 0 17 17 1 1 0 0 0 1-1v-3.5a1 1 0 0 0-1-1c-1.25 0-2.45-.2-3.57-.57a1.02 1.02 0 0 0-1.02.24l-2.2 2.2a15.045 15.045 0 0 1-6.59-6.59l2.2-2.21a.96.96 0 0 0 .25-1A11.36 11.36 0 0 1 8.5 4a1 1 0 0 0-1-1H4m11 0v1.5h3.5L13 10l1 1 5.5-5.5V9H21V3h-6Z" transform="matrix(1.5 0 0 1.5 216 324)" id="mdi-phone-outgoing" fill="#555"/><path d="M4 3a1 1 0 0 0-1 1 17 17 0 0 0 17 17 1 1 0 0 0 1-1v-3.5a1 1 0 0 0-1-1c-1.25 0-2.45-.2-3.57-.57a1.02 1.02 0 0 0-1.02.24l-2.2 2.2a15.045 15.045 0 0 1-6.59-6.59l2.2-2.21a.96.96 0 0 0 .25-1A11.36 11.36 0 0 1 8.5 4a1 1 0 0 0-1-1H4m11 0v1.5h3.5L13 10l1 1 5.5-5.5V9H21V3h-6Z" transform="matrix(1.5 0 0 1.5 252 324)" id="mdi-phone-outgoing" fill="#fff"/><path d="M20 15.5c-1.2 0-2.5-.2-3.6-.6h-.3c-.3 0-.5.1-.7.3l-2.2 2.2c-2.8-1.5-5.2-3.8-6.6-6.6l2.2-2.2c.3-.3.4-.7.2-1-.3-1.1-.5-2.4-.5-3.6 0-.5-.5-1-1-1H4c-.5 0-1 .5-1 1 0 9.4 7.6 17 17 17 .5 0 1-.5 1-1v-3.5c0-.5-.5-1-1-1M5 5h1.5c.1.9.3 1.8.5 2.6L5.8 8.8C5.4 7.6 5.1 6.3 5 5m14 14c-1.3-.1-2.6-.4-3.8-.8l1.2-1.2c.8.2 1.7.4 2.6.4V19M15 3v1.5h3.5L13 10l1 1 5.5-5.5V9H21V3h-6Z" transform="matrix(1.5 0 0 1.5 288 324)" id="mdi-phone-outgoing-outline" fill="#555"/><path d="M20 15.5c-1.2 0-2.5-.2-3.6-.6h-.3c-.3 0-.5.1-.7.3l-2.2 2.2c-2.8-1.5-5.2-3.8-6.6-6.6l2.2-2.2c.3-.3.4-.7.2-1-.3-1.1-.5-2.4-.5-3.6 0-.5-.5-1-1-1H4c-.5 0-1 .5-1 1 0 9.4 7.6 17 17 17 .5 0 1-.5 1-1v-3.5c0-.5-.5-1-1-1M5 5h1.5c.1.9.3 1.8.5 2.6L5.8 8.8C5.4 7.6 5.1 6.3 5 5m14 14c-1.3-.1-2.6-.4-3.8-.8l1.2-1.2c.8.2 1.7.4 2.6.4V19M15 3v1.5h3.5L13 10l1 1 5.5-5.5V9H21V3h-6Z" transform="matrix(1.5 0 0 1.5 324 324)" id="mdi-phone-outgoing-outline" fill="#fff"/><path d="M20 15.5c-1.2 0-2.5-.2-3.6-.6h-.3c-.3 0-.5.1-.7.3l-2.2 2.2c-2.8-1.5-5.2-3.8-6.6-6.6l2.2-2.2c.3-.3.4-.7.2-1-.3-1.1-.5-2.4-.5-3.6 0-.5-.5-1-1-1H4c-.5 0-1 .5-1 1 0 9.4 7.6 17 17 17 .5 0 1-.5 1-1v-3.5c0-.5-.5-1-1-1M5 5h1.5c.1.9.3 1.8.5 2.6L5.8 8.8C5.4 7.6 5.1 6.3 5 5m14 14c-1.3-.1-2.6-.4-3.8-.8l1.2-1.2c.8.2 1.7.4 2.6.4V19Z" transform="matrix(1.5 0 0 1.5 360 324)" id="mdi-phone-outline" fill="#555"/><path d="M20 15.5c-1.2 0-2.5-.2-3.6-.6h-.3c-.3 0-.5.1-.7.3l-2.2 2.2c-2.8-1.5-5.2-3.8-6.6-6.6l2.2-2.2c.3-.3.4-.7.2-1-.3-1.1-.5-2.4-.5-3.6 0-.5-.5-1-1-1H4c-.5 0-1 .5-1 1 0 9.4 7.6 17 17 17 .5 0 1-.5 1-1v-3.5c0-.5-.5-1-1-1M5 5h1.5c.1.9.3 1.8.5 2.6L5.8 8.8C5.4 7.6 5.1 6.3 5 5m14 14c-1.3-.1-2.6-.4-3.8-.8l1.2-1.2c.8.2 1.7.4 2.6.4V19Z" transform="matrix(1.5 0 0 1.5 396 324)" id="mdi-phone-outline" fill="#fff"/><path d="M19 10h2V3h-2m1 12.5c-1.25 0-2.45-.2-3.57-.57-.35-.11-.74-.03-1.02.25l-2.2 2.2a15.097 15.097 0 0 1-6.59-6.59l2.2-2.2c.28-.28.36-.67.25-1.02A11.36 11.36 0 0 1 8.5 4a1 1 0 0 0-1-1H4a1 1 0 0 0-1 1 17 17 0 0 0 17 17 1 1 0 0 0 1-1v-3.5a1 1 0 0 0-1-1M17 3h-2v7h2V3Z" transform="matrix(1.5 0 0 1.5 432 324)" id="mdi-phone-paused" fill="#555"/><path d="M19 10h2V3h-2m1 12.5c-1.25 0-2.45-.2-3.57-.57-.35-.11-.74-.03-1.02.25l-2.2 2.2a15.097 15.097 0 0 1-6.59-6.59l2.2-2.2c.28-.28.36-.67.25-1.02A11.36 11.36 0 0 1 8.5 4a1 1 0 0 0-1-1H4a1 1 0 0 0-1 1 17 17 0 0 0 17 17 1 1 0 0 0 1-1v-3.5a1 1 0 0 0-1-1M17 3h-2v7h2V3Z" transform="matrix(1.5 0 0 1.5 468 324)" id="mdi-phone-paused" fill="#fff"/><path d="M20 15.5c-1.2 0-2.5-.2-3.6-.6h-.3c-.3 0-.5.1-.7.3l-2.2 2.2c-2.8-1.5-5.2-3.8-6.6-6.6l2.2-2.2c.3-.3.4-.7.2-1-.3-1.1-.5-2.4-.5-3.6 0-.5-.5-1-1-1H4c-.5 0-1 .5-1 1 0 9.4 7.6 17 17 17 .5 0 1-.5 1-1v-3.5c0-.5-.5-1-1-1M5 5h1.5c.1.9.3 1.8.5 2.6L5.8 8.8C5.4 7.6 5.1 6.3 5 5m14 14c-1.3-.1-2.6-.4-3.8-.8l1.2-1.2c.8.2 1.7.4 2.6.4V19m0-9h2V3h-2m-2 0h-2v7h2V3Z" transform="matrix(1.5 0 0 1.5 504 324)" id="mdi-phone-paused-outline" fill="#555"/><path d="M20 15.5c-1.2 0-2.5-.2-3.6-.6h-.3c-.3 0-.5.1-.7.3l-2.2 2.2c-2.8-1.5-5.2-3.8-6.6-6.6l2.2-2.2c.3-.3.4-.7.2-1-.3-1.1-.5-2.4-.5-3.6 0-.5-.5-1-1-1H4c-.5 0-1 .5-1 1 0 9.4 7.6 17 17 17 .5 0 1-.5 1-1v-3.5c0-.5-.5-1-1-1M5 5h1.5c.1.9.3 1.8.5 2.6L5.8 8.8C5.4 7.6 5.1 6.3 5 5m14 14c-1.3-.1-2.6-.4-3.8-.8l1.2-1.2c.8.2 1.7.4 2.6.4V19m0-9h2V3h-2m-2 0h-2v7h2V3Z" transform="matrix(1.5 0 0 1.5 540 324)" id="mdi-phone-paused-outline" fill="#fff"/><path d="M4 3a1 1 0 0 0-1 1 17 17 0 0 0 17 17 1 1 0 0 0 1-1v-3.5a1 1 0 0 0-1-1c-1.24 0-2.45-.2-3.57-.57-.35-.11-.74-.03-1.02.25l-2.2 2.2a15.149 15.149 0 0 1-6.59-6.59l2.2-2.21c.28-.27.36-.66.25-1.01C8.7 6.45 8.5 5.24 8.5 4a1 1 0 0 0-1-1M16 3v3h-3v2h3v3h2V8h3V6h-3V3" transform="matrix(1.5 0 0 1.5 576 324)" id="mdi-phone-plus" fill="#555"/><path d="M4 3a1 1 0 0 0-1 1 17 17 0 0 0 17 17 1 1 0 0 0 1-1v-3.5a1 1 0 0 0-1-1c-1.24 0-2.45-.2-3.57-.57-.35-.11-.74-.03-1.02.25l-2.2 2.2a15.149 15.149 0 0 1-6.59-6.59l2.2-2.21c.28-.27.36-.66.25-1.01C8.7 6.45 8.5 5.24 8.5 4a1 1 0 0 0-1-1M16 3v3h-3v2h3v3h2V8h3V6h-3V3" transform="matrix(1.5 0 0 1.5 612 324)" id="mdi-phone-plus" fill="#fff"/><path d="M20 15.5c-1.2 0-2.5-.2-3.6-.6h-.3c-.3 0-.5.1-.7.3l-2.2 2.2c-2.8-1.5-5.2-3.8-6.6-6.6l2.2-2.2c.3-.3.4-.7.2-1-.3-1.1-.5-2.4-.5-3.6 0-.5-.5-1-1-1H4c-.5 0-1 .5-1 1 0 9.4 7.6 17 17 17 .5 0 1-.5 1-1v-3.5c0-.5-.5-1-1-1M5 5h1.5c.1.9.3 1.8.5 2.6L5.8 8.8C5.4 7.6 5.1 6.3 5 5m14 14c-1.3-.1-2.6-.4-3.8-.8l1.2-1.2c.8.2 1.7.4 2.6.4V19M16 3v3h-3v2h3v3h2V8h3V6h-3V3Z" transform="matrix(1.5 0 0 1.5 648 324)" id="mdi-phone-plus-outline" fill="#555"/><path d="M20 15.5c-1.2 0-2.5-.2-3.6-.6h-.3c-.3 0-.5.1-.7.3l-2.2 2.2c-2.8-1.5-5.2-3.8-6.6-6.6l2.2-2.2c.3-.3.4-.7.2-1-.3-1.1-.5-2.4-.5-3.6 0-.5-.5-1-1-1H4c-.5 0-1 .5-1 1 0 9.4 7.6 17 17 17 .5 0 1-.5 1-1v-3.5c0-.5-.5-1-1-1M5 5h1.5c.1.9.3 1.8.5 2.6L5.8 8.8C5.4 7.6 5.1 6.3 5 5m14 14c-1.3-.1-2.6-.4-3.8-.8l1.2-1.2c.8.2 1.7.4 2.6.4V19M16 3v3h-3v2h3v3h2V8h3V6h-3V3Z" transform="matrix(1.5 0 0 1.5 684 324)" id="mdi-phone-plus-outline" fill="#fff"/></svg>