<svg xmlns="http://www.w3.org/2000/svg" width="720" height="900"><path d="M4 18h9l-2 2H4c-.5 0-1.03-.21-1.41-.59C2.21 19.03 2 18.5 2 18V8h2v10M17.63 4.84C17.27 4.33 16.67 4 16 4H8c-1.1 0-2 .9-2 2v8c0 1.1.9 2 2 2h8c.67 0 1.27-.34 1.63-.85L22 10l-4.37-5.16M16 14H8V6h8l3.55 4Z" transform="scale(1.5)" id="mdi-label-multiple-outline" fill="#555"/><path d="M4 18h9l-2 2H4c-.5 0-1.03-.21-1.41-.59C2.21 19.03 2 18.5 2 18V8h2v10M17.63 4.84C17.27 4.33 16.67 4 16 4H8c-1.1 0-2 .9-2 2v8c0 1.1.9 2 2 2h8c.67 0 1.27-.34 1.63-.85L22 10l-4.37-5.16M16 14H8V6h8l3.55 4Z" transform="translate(36) scale(1.5)" id="mdi-label-multiple-outline" fill="#fff"/><path d="M2 4.27 3.28 3 20 19.72 18.73 21l-2.1-2.1c-.2.06-.41.1-.63.1H5a2 2 0 0 1-2-2V7c0-.5.17-.93.46-1.27L2 4.27m15.63 1.57L22 12l-3 4.2L7.83 5H16c.67 0 1.27.33 1.63.84Z" transform="translate(72) scale(1.5)" id="mdi-label-off" fill="#555"/><path d="M2 4.27 3.28 3 20 19.72 18.73 21l-2.1-2.1c-.2.06-.41.1-.63.1H5a2 2 0 0 1-2-2V7c0-.5.17-.93.46-1.27L2 4.27m15.63 1.57L22 12l-3 4.2L7.83 5H16c.67 0 1.27.33 1.63.84Z" transform="translate(108) scale(1.5)" id="mdi-label-off" fill="#fff"/><path d="M2 4.27 3.28 3 20 19.72 18.73 21l-2.1-2.1c-.2.06-.41.1-.63.1H5a2 2 0 0 1-2-2V7c0-.5.17-.93.46-1.27L2 4.27M5 17h9.73L5 7.27V17m14.55-5L16 7H9.82L7.83 5H16c.67 0 1.27.33 1.63.84L22 12l-3 4.2-1.41-1.44L19.55 12Z" transform="translate(144) scale(1.5)" id="mdi-label-off-outline" fill="#555"/><path d="M2 4.27 3.28 3 20 19.72 18.73 21l-2.1-2.1c-.2.06-.41.1-.63.1H5a2 2 0 0 1-2-2V7c0-.5.17-.93.46-1.27L2 4.27M5 17h9.73L5 7.27V17m14.55-5L16 7H9.82L7.83 5H16c.67 0 1.27.33 1.63.84L22 12l-3 4.2-1.41-1.44L19.55 12Z" transform="translate(180) scale(1.5)" id="mdi-label-off-outline" fill="#fff"/><path d="M16 17H5V7h11l3.55 5m-1.92-6.16C17.27 5.33 16.67 5 16 5H5a2 2 0 0 0-2 2v10a2 2 0 0 0 2 2h11c.67 0 1.27-.34 1.63-.85L22 12l-4.37-6.16Z" transform="translate(216) scale(1.5)" id="mdi-label-outline" fill="#555"/><path d="M16 17H5V7h11l3.55 5m-1.92-6.16C17.27 5.33 16.67 5 16 5H5a2 2 0 0 0-2 2v10a2 2 0 0 0 2 2h11c.67 0 1.27-.34 1.63-.85L22 12l-4.37-6.16Z" transform="translate(252) scale(1.5)" id="mdi-label-outline" fill="#fff"/><path d="M17.63 5.84C17.27 5.33 16.67 5 16 5H5c-1.1 0-2 .9-2 2v10a2 2 0 0 0 2 2h11c.67 0 1.27-.34 1.63-.85L22 12l-4.37-6.16M8.45 8.03c.78 0 1.42.64 1.42 1.42s-.64 1.42-1.42 1.42-1.42-.64-1.42-1.42.64-1.42 1.42-1.42m5.1 7.94c-.78 0-1.42-.64-1.42-1.42s.64-1.42 1.42-1.42 1.42.64 1.42 1.42-.64 1.42-1.42 1.42M8.2 16 7 14.8 13.8 8 15 9.2 8.2 16Z" transform="translate(288) scale(1.5)" id="mdi-label-percent" fill="#555"/><path d="M17.63 5.84C17.27 5.33 16.67 5 16 5H5c-1.1 0-2 .9-2 2v10a2 2 0 0 0 2 2h11c.67 0 1.27-.34 1.63-.85L22 12l-4.37-6.16M8.45 8.03c.78 0 1.42.64 1.42 1.42s-.64 1.42-1.42 1.42-1.42-.64-1.42-1.42.64-1.42 1.42-1.42m5.1 7.94c-.78 0-1.42-.64-1.42-1.42s.64-1.42 1.42-1.42 1.42.64 1.42 1.42-.64 1.42-1.42 1.42M8.2 16 7 14.8 13.8 8 15 9.2 8.2 16Z" transform="translate(324) scale(1.5)" id="mdi-label-percent" fill="#fff"/><path d="M16 17H5V7h11l3.55 5m-1.92-6.16C17.27 5.33 16.67 5 16 5H5c-1.1 0-2 .9-2 2v10a2 2 0 0 0 2 2h11c.67 0 1.27-.34 1.63-.85L22 12l-4.37-6.16M13.8 8 15 9.2 8.2 16 7 14.8m1.45-6.77c.78 0 1.42.64 1.42 1.42s-.64 1.42-1.42 1.42-1.42-.64-1.42-1.42.64-1.42 1.42-1.42m5.1 5.1c.78 0 1.42.64 1.42 1.42 0 .78-.64 1.42-1.42 1.42-.78 0-1.42-.64-1.42-1.42 0-.78.64-1.42 1.42-1.42Z" transform="translate(360) scale(1.5)" id="mdi-label-percent-outline" fill="#555"/><path d="M16 17H5V7h11l3.55 5m-1.92-6.16C17.27 5.33 16.67 5 16 5H5c-1.1 0-2 .9-2 2v10a2 2 0 0 0 2 2h11c.67 0 1.27-.34 1.63-.85L22 12l-4.37-6.16M13.8 8 15 9.2 8.2 16 7 14.8m1.45-6.77c.78 0 1.42.64 1.42 1.42s-.64 1.42-1.42 1.42-1.42-.64-1.42-1.42.64-1.42 1.42-1.42m5.1 5.1c.78 0 1.42.64 1.42 1.42 0 .78-.64 1.42-1.42 1.42-.78 0-1.42-.64-1.42-1.42 0-.78.64-1.42 1.42-1.42Z" transform="translate(396) scale(1.5)" id="mdi-label-percent-outline" fill="#fff"/><path d="m3.5 19 4.84-7L3.5 5h11c.67 0 1.22.3 1.63.86L20.5 12l-4.37 6.14c-.41.56-.96.86-1.63.86h-11Z" transform="translate(432) scale(1.5)" id="mdi-label-variant" fill="#555"/><path d="m3.5 19 4.84-7L3.5 5h11c.67 0 1.22.3 1.63.86L20.5 12l-4.37 6.14c-.41.56-.96.86-1.63.86h-11Z" transform="translate(468) scale(1.5)" id="mdi-label-variant" fill="#fff"/><path d="M6.5 17H15l3.5-5L15 7H6.5l3.5 5-3.5 5m8.5 2H3l4.5-7L3 5h12c.69 0 1.23.3 1.64.86L21 12l-4.36 6.14c-.41.56-.95.86-1.64.86Z" transform="translate(504) scale(1.5)" id="mdi-label-variant-outline" fill="#555"/><path d="M6.5 17H15l3.5-5L15 7H6.5l3.5 5-3.5 5m8.5 2H3l4.5-7L3 5h12c.69 0 1.23.3 1.64.86L21 12l-4.36 6.14c-.41.56-.95.86-1.64.86Z" transform="translate(540) scale(1.5)" id="mdi-label-variant-outline" fill="#fff"/><path d="M14 1v2h-4V1H8v21h2v-2h4v2h2V1h-2m0 4v3h-4V5h4m0 5v3h-4v-3h4m-4 8v-3h4v3h-4Z" transform="translate(576) scale(1.5)" id="mdi-ladder" fill="#555"/><path d="M14 1v2h-4V1H8v21h2v-2h4v2h2V1h-2m0 4v3h-4V5h4m0 5v3h-4v-3h4m-4 8v-3h4v3h-4Z" transform="translate(612) scale(1.5)" id="mdi-ladder" fill="#fff"/><path d="M12 5c.74 0 1.47.1 2.15.29l1.63-2.83c.28-.46.89-.64 1.37-.36.48.27.64.9.35 1.36L16 6.07A8.07 8.07 0 0 1 18.93 9H5.07A8.07 8.07 0 0 1 8 6.07L6.5 3.46a.978.978 0 0 1 .35-1.36c.48-.28 1.09-.1 1.37.36l1.63 2.83C10.53 5.1 11.26 5 12 5m8 8a8 8 0 0 1-7.25 7.97V10.5h6.85c.26.79.4 1.63.4 2.5M4 13c0-.87.14-1.71.4-2.5h6.85v10.47A8 8 0 0 1 4 13Z" transform="translate(648) scale(1.5)" id="mdi-ladybug" fill="#555"/><path d="M12 5c.74 0 1.47.1 2.15.29l1.63-2.83c.28-.46.89-.64 1.37-.36.48.27.64.9.35 1.36L16 6.07A8.07 8.07 0 0 1 18.93 9H5.07A8.07 8.07 0 0 1 8 6.07L6.5 3.46a.978.978 0 0 1 .35-1.36c.48-.28 1.09-.1 1.37.36l1.63 2.83C10.53 5.1 11.26 5 12 5m8 8a8 8 0 0 1-7.25 7.97V10.5h6.85c.26.79.4 1.63.4 2.5M4 13c0-.87.14-1.71.4-2.5h6.85v10.47A8 8 0 0 1 4 13Z" transform="translate(684) scale(1.5)" id="mdi-ladybug" fill="#fff"/><path d="m6 20 4.16-12.09L9.34 6H8V4h2c.42 0 .78.26.93.63L16.66 18H18v2h-2c-.43 0-.79-.27-.93-.64l-3.74-8.71L8.12 20H6Z" transform="matrix(1.5 0 0 1.5 0 36)" id="mdi-lambda" fill="#555"/><path d="m6 20 4.16-12.09L9.34 6H8V4h2c.42 0 .78.26.93.63L16.66 18H18v2h-2c-.43 0-.79-.27-.93-.64l-3.74-8.71L8.12 20H6Z" transform="matrix(1.5 0 0 1.5 36 36)" id="mdi-lambda" fill="#fff"/><path d="M8 2h8l4 12H4L8 2m3 13h2v5h5v2H6v-2h5v-5Z" transform="matrix(1.5 0 0 1.5 72 36)" id="mdi-lamp" fill="#555"/><path d="M8 2h8l4 12H4L8 2m3 13h2v5h5v2H6v-2h5v-5Z" transform="matrix(1.5 0 0 1.5 108 36)" id="mdi-lamp" fill="#fff"/><path d="m14.56 4 2.67 8H6.78l2.66-8h5.12M16 2H8L4 14h16L16 2m-5 13h2v5h5v2H6v-2h5v-5Z" transform="matrix(1.5 0 0 1.5 144 36)" id="mdi-lamp-outline" fill="#555"/><path d="m14.56 4 2.67 8H6.78l2.66-8h5.12M16 2H8L4 14h16L16 2m-5 13h2v5h5v2H6v-2h5v-5Z" transform="matrix(1.5 0 0 1.5 180 36)" id="mdi-lamp-outline" fill="#fff"/><path d="m10 2 2 7H2l2-7m2 8h2v10h3v2H3v-2h3V10m14-2 2 7H12l2-7m2 8h2v4h3v2h-8v-2h3v-4Z" transform="matrix(1.5 0 0 1.5 216 36)" id="mdi-lamps" fill="#555"/><path d="m10 2 2 7H2l2-7m2 8h2v10h3v2H3v-2h3V10m14-2 2 7H12l2-7m2 8h2v4h3v2h-8v-2h3v-4Z" transform="matrix(1.5 0 0 1.5 252 36)" id="mdi-lamps" fill="#fff"/><path d="m8.5 4 .85 3h-4.7l.85-3h3M10 2H4L2 9h10l-2-7m-4 8h2v10h3v2H3v-2h3V10m12.5 0 .85 3h-4.7l.85-3h3M20 8h-6l-2 7h10l-2-7m-4 8h2v4h3v2h-8v-2h3v-4Z" transform="matrix(1.5 0 0 1.5 288 36)" id="mdi-lamps-outline" fill="#555"/><path d="m8.5 4 .85 3h-4.7l.85-3h3M10 2H4L2 9h10l-2-7m-4 8h2v10h3v2H3v-2h3V10m12.5 0 .85 3h-4.7l.85-3h3M20 8h-6l-2 7h10l-2-7m-4 8h2v4h3v2h-8v-2h3v-4Z" transform="matrix(1.5 0 0 1.5 324 36)" id="mdi-lamps-outline" fill="#fff"/><path d="M10 2c-1.11 0-2 .89-2 2v3c0 1.11.89 2 2 2h1v2H2v2h4v2H5c-1.11 0-2 .89-2 2v3c0 1.11.89 2 2 2h4c1.11 0 2-.89 2-2v-3c0-1.11-.89-2-2-2H8v-2h8v2h-1c-1.11 0-2 .89-2 2v3c0 1.11.89 2 2 2h4c1.11 0 2-.89 2-2v-3c0-1.11-.89-2-2-2h-1v-2h4v-2h-9V9h1c1.11 0 2-.89 2-2V4c0-1.11-.89-2-2-2h-4m0 2h4v3h-4V4M5 17h4v3H5v-3m10 0h4v3h-4v-3Z" transform="matrix(1.5 0 0 1.5 360 36)" id="mdi-lan" fill="#555"/><path d="M10 2c-1.11 0-2 .89-2 2v3c0 1.11.89 2 2 2h1v2H2v2h4v2H5c-1.11 0-2 .89-2 2v3c0 1.11.89 2 2 2h4c1.11 0 2-.89 2-2v-3c0-1.11-.89-2-2-2H8v-2h8v2h-1c-1.11 0-2 .89-2 2v3c0 1.11.89 2 2 2h4c1.11 0 2-.89 2-2v-3c0-1.11-.89-2-2-2h-1v-2h4v-2h-9V9h1c1.11 0 2-.89 2-2V4c0-1.11-.89-2-2-2h-4m0 2h4v3h-4V4M5 17h4v3H5v-3m10 0h4v3h-4v-3Z" transform="matrix(1.5 0 0 1.5 396 36)" id="mdi-lan" fill="#fff"/><path d="M4 1c-1.11 0-2 .89-2 2v4c0 1.11.89 2 2 2H1v2h12V9h-3c1.11 0 2-.89 2-2V3c0-1.11-.89-2-2-2H4m0 2h6v4H4V3m10 10c-1.11 0-2 .89-2 2v4c0 1.11.89 2 2 2h-3v2h12v-2h-3c1.11 0 2-.89 2-2v-4c0-1.11-.89-2-2-2h-6m0 2h6v4h-6v-4m-8.5 5.5 5-5L9 14l-3.5 3.5-2-2L2 17l3.5 3.5Z" transform="matrix(1.5 0 0 1.5 432 36)" id="mdi-lan-check" fill="#555"/><path d="M4 1c-1.11 0-2 .89-2 2v4c0 1.11.89 2 2 2H1v2h12V9h-3c1.11 0 2-.89 2-2V3c0-1.11-.89-2-2-2H4m0 2h6v4H4V3m10 10c-1.11 0-2 .89-2 2v4c0 1.11.89 2 2 2h-3v2h12v-2h-3c1.11 0 2-.89 2-2v-4c0-1.11-.89-2-2-2h-6m0 2h6v4h-6v-4m-8.5 5.5 5-5L9 14l-3.5 3.5-2-2L2 17l3.5 3.5Z" transform="matrix(1.5 0 0 1.5 468 36)" id="mdi-lan-check" fill="#fff"/><path d="M4 1c-1.11 0-2 .89-2 2v4c0 1.11.89 2 2 2H1v2h12V9h-3c1.11 0 2-.89 2-2V3c0-1.11-.89-2-2-2H4m0 2h6v4H4V3M3 13v7h7v-2H5v-5H3m11 0c-1.11 0-2 .89-2 2v4c0 1.11.89 2 2 2h-3v2h12v-2h-3c1.11 0 2-.89 2-2v-4c0-1.11-.89-2-2-2h-6m0 2h6v4h-6v-4Z" transform="matrix(1.5 0 0 1.5 504 36)" id="mdi-lan-connect" fill="#555"/><path d="M4 1c-1.11 0-2 .89-2 2v4c0 1.11.89 2 2 2H1v2h12V9h-3c1.11 0 2-.89 2-2V3c0-1.11-.89-2-2-2H4m0 2h6v4H4V3M3 13v7h7v-2H5v-5H3m11 0c-1.11 0-2 .89-2 2v4c0 1.11.89 2 2 2h-3v2h12v-2h-3c1.11 0 2-.89 2-2v-4c0-1.11-.89-2-2-2h-6m0 2h6v4h-6v-4Z" transform="matrix(1.5 0 0 1.5 540 36)" id="mdi-lan-connect" fill="#fff"/><path d="M4 1c-1.11 0-2 .89-2 2v4c0 1.11.89 2 2 2H1v2h12V9h-3c1.11 0 2-.89 2-2V3c0-1.11-.89-2-2-2H4m0 2h6v4H4V3m10 10c-1.11 0-2 .89-2 2v4c0 1.11.89 2 2 2h-3v2h12v-2h-3c1.11 0 2-.89 2-2v-4c0-1.11-.89-2-2-2h-6m-10.12.46-1.42 1.42L4.59 17l-2.13 2.12 1.42 1.42L6 18.41l2.12 2.13 1.42-1.42L7.41 17l2.13-2.12-1.42-1.42L6 15.59l-2.12-2.13M14 15h6v4h-6v-4Z" transform="matrix(1.5 0 0 1.5 576 36)" id="mdi-lan-disconnect" fill="#555"/><path d="M4 1c-1.11 0-2 .89-2 2v4c0 1.11.89 2 2 2H1v2h12V9h-3c1.11 0 2-.89 2-2V3c0-1.11-.89-2-2-2H4m0 2h6v4H4V3m10 10c-1.11 0-2 .89-2 2v4c0 1.11.89 2 2 2h-3v2h12v-2h-3c1.11 0 2-.89 2-2v-4c0-1.11-.89-2-2-2h-6m-10.12.46-1.42 1.42L4.59 17l-2.13 2.12 1.42 1.42L6 18.41l2.12 2.13 1.42-1.42L7.41 17l2.13-2.12-1.42-1.42L6 15.59l-2.12-2.13M14 15h6v4h-6v-4Z" transform="matrix(1.5 0 0 1.5 612 36)" id="mdi-lan-disconnect" fill="#fff"/><path d="M4 1c-1.11 0-2 .89-2 2v4c0 1.11.89 2 2 2H1v2h12V9h-3c1.11 0 2-.89 2-2V3c0-1.11-.89-2-2-2H4m0 2h6v4H4V3m-1 9v2h2v-2H3m11 1c-1.11 0-2 .89-2 2v4c0 1.11.89 2 2 2h-3v2h12v-2h-3c1.11 0 2-.89 2-2v-4c0-1.11-.89-2-2-2h-6M3 15v2h2v-2H3m11 0h6v4h-6v-4M3 18v2h2v-2H3m3 0v2h2v-2H6m3 0v2h2v-2H9Z" transform="matrix(1.5 0 0 1.5 648 36)" id="mdi-lan-pending" fill="#555"/><path d="M4 1c-1.11 0-2 .89-2 2v4c0 1.11.89 2 2 2H1v2h12V9h-3c1.11 0 2-.89 2-2V3c0-1.11-.89-2-2-2H4m0 2h6v4H4V3m-1 9v2h2v-2H3m11 1c-1.11 0-2 .89-2 2v4c0 1.11.89 2 2 2h-3v2h12v-2h-3c1.11 0 2-.89 2-2v-4c0-1.11-.89-2-2-2h-6M3 15v2h2v-2H3m11 0h6v4h-6v-4M3 18v2h2v-2H3m3 0v2h2v-2H6m3 0v2h2v-2H9Z" transform="matrix(1.5 0 0 1.5 684 36)" id="mdi-lan-pending" fill="#fff"/><path d="m15.47 13.79-2.58-1.03L6 15.05 2 13.5v2.11l4 1.34 9.47-3.16m-4.9-2.37L8 8H2v3.61l4 1.34 4.57-1.53M6 19.05l-4-1.33V22h20l-4.97-6.62L6 19.05M17 6V1l-5-1-3 2v4l3 2 5-2m1.5 1L16 9v3l2.5 2 4.5-2V8l-4.5-1Z" transform="matrix(1.5 0 0 1.5 0 72)" id="mdi-landslide" fill="#555"/><path d="m15.47 13.79-2.58-1.03L6 15.05 2 13.5v2.11l4 1.34 9.47-3.16m-4.9-2.37L8 8H2v3.61l4 1.34 4.57-1.53M6 19.05l-4-1.33V22h20l-4.97-6.62L6 19.05M17 6V1l-5-1-3 2v4l3 2 5-2m1.5 1L16 9v3l2.5 2 4.5-2V8l-4.5-1Z" transform="matrix(1.5 0 0 1.5 36 72)" id="mdi-landslide" fill="#fff"/><path d="M11 12 8 8H2v14h20l-6-8-5-2m1.53 2.77L6 16.95l-2-.67v-1.89l2 .67 3.95-1.32 2.58 1.03M7 10l1.57 2.09-2.57.86-2-.67V10h3M4 20v-1.61l2 .67 9.03-3.01L18 20H4M17 6V1l-5-1-3 2v4l3 2 5-2m-6-2.93 1.42-.95 2.58.52v2.01l-2.77 1.11L11 4.93V3.07M18.5 7 16 9v3l2.5 2 4.5-2V8l-4.5-1m2.5 3.7-2.2.98-.8-.64V9.96l1-.8 2 .44v1.1Z" transform="matrix(1.5 0 0 1.5 72 72)" id="mdi-landslide-outline" fill="#555"/><path d="M11 12 8 8H2v14h20l-6-8-5-2m1.53 2.77L6 16.95l-2-.67v-1.89l2 .67 3.95-1.32 2.58 1.03M7 10l1.57 2.09-2.57.86-2-.67V10h3M4 20v-1.61l2 .67 9.03-3.01L18 20H4M17 6V1l-5-1-3 2v4l3 2 5-2m-6-2.93 1.42-.95 2.58.52v2.01l-2.77 1.11L11 4.93V3.07M18.5 7 16 9v3l2.5 2 4.5-2V8l-4.5-1m2.5 3.7-2.2.98-.8-.64V9.96l1-.8 2 .44v1.1Z" transform="matrix(1.5 0 0 1.5 108 72)" id="mdi-landslide-outline" fill="#fff"/><path d="m15.45 15.97.42 2.44c-.26.14-.68.27-1.24.39-.57.13-1.24.2-2.01.2-2.21-.04-3.87-.7-4.98-1.96-1.14-1.27-1.68-2.88-1.68-4.83C6 9.9 6.68 8.13 8 6.89 9.28 5.64 10.92 5 12.9 5c.75 0 1.4.07 1.94.19s.94.25 1.2.4l-.6 2.49-1.04-.34c-.4-.1-.87-.15-1.4-.15-1.15-.01-2.11.36-2.86 1.1-.76.73-1.14 1.85-1.18 3.34.01 1.36.37 2.42 1.08 3.2.71.77 1.7 1.17 2.99 1.18l1.33-.12c.43-.08.79-.19 1.09-.32Z" transform="matrix(1.5 0 0 1.5 144 72)" id="mdi-language-c" fill="#555"/><path d="m15.45 15.97.42 2.44c-.26.14-.68.27-1.24.39-.57.13-1.24.2-2.01.2-2.21-.04-3.87-.7-4.98-1.96-1.14-1.27-1.68-2.88-1.68-4.83C6 9.9 6.68 8.13 8 6.89 9.28 5.64 10.92 5 12.9 5c.75 0 1.4.07 1.94.19s.94.25 1.2.4l-.6 2.49-1.04-.34c-.4-.1-.87-.15-1.4-.15-1.15-.01-2.11.36-2.86 1.1-.76.73-1.14 1.85-1.18 3.34.01 1.36.37 2.42 1.08 3.2.71.77 1.7 1.17 2.99 1.18l1.33-.12c.43-.08.79-.19 1.09-.32Z" transform="matrix(1.5 0 0 1.5 180 72)" id="mdi-language-c" fill="#fff"/><path d="m10.5 15.97.41 2.44c-.26.14-.68.27-1.24.39-.57.13-1.24.2-2.01.2-2.21-.04-3.87-.7-4.98-1.96C1.56 15.77 1 14.16 1 12.21c.05-2.31.72-4.08 2-5.32C4.32 5.64 5.96 5 7.94 5c.75 0 1.4.07 1.94.19s.94.25 1.2.4l-.58 2.49-1.06-.34c-.4-.1-.86-.15-1.39-.15-1.16-.01-2.12.36-2.87 1.1-.76.73-1.15 1.85-1.18 3.34 0 1.36.37 2.42 1.08 3.2.71.77 1.71 1.17 2.99 1.18l1.33-.12c.43-.08.79-.19 1.1-.32M11 11h2V9h2v2h2v2h-2v2h-2v-2h-2v-2m7 0h2V9h2v2h2v2h-2v2h-2v-2h-2v-2Z" transform="matrix(1.5 0 0 1.5 216 72)" id="mdi-language-cpp" fill="#555"/><path d="m10.5 15.97.41 2.44c-.26.14-.68.27-1.24.39-.57.13-1.24.2-2.01.2-2.21-.04-3.87-.7-4.98-1.96C1.56 15.77 1 14.16 1 12.21c.05-2.31.72-4.08 2-5.32C4.32 5.64 5.96 5 7.94 5c.75 0 1.4.07 1.94.19s.94.25 1.2.4l-.58 2.49-1.06-.34c-.4-.1-.86-.15-1.39-.15-1.16-.01-2.12.36-2.87 1.1-.76.73-1.15 1.85-1.18 3.34 0 1.36.37 2.42 1.08 3.2.71.77 1.71 1.17 2.99 1.18l1.33-.12c.43-.08.79-.19 1.1-.32M11 11h2V9h2v2h2v2h-2v2h-2v-2h-2v-2m7 0h2V9h2v2h2v2h-2v2h-2v-2h-2v-2Z" transform="matrix(1.5 0 0 1.5 252 72)" id="mdi-language-cpp" fill="#fff"/><path d="m11.5 15.97.41 2.44c-.26.14-.68.27-1.24.39-.57.13-1.24.2-2.01.2-2.21-.04-3.87-.7-4.98-1.96C2.56 15.77 2 14.16 2 12.21c.05-2.31.72-4.08 2-5.32C5.32 5.64 6.96 5 8.94 5c.75 0 1.4.07 1.94.19s.94.25 1.2.4l-.58 2.49-1.06-.34c-.4-.1-.86-.15-1.39-.15-1.16-.01-2.12.36-2.87 1.1-.76.73-1.15 1.85-1.18 3.34 0 1.36.37 2.42 1.08 3.2.71.77 1.71 1.17 2.99 1.18l1.33-.12c.43-.08.79-.19 1.1-.32M13.89 19l.61-4H13l.34-2h1.5l.32-2h-1.5L14 9h1.5l.61-4h2l-.61 4h1l.61-4h2l-.61 4H22l-.34 2h-1.5l-.32 2h1.5L21 15h-1.5l-.61 4h-2l.61-4h-1l-.61 4h-2m2.95-6h1l.32-2h-1l-.32 2Z" transform="matrix(1.5 0 0 1.5 288 72)" id="mdi-language-csharp" fill="#555"/><path d="m11.5 15.97.41 2.44c-.26.14-.68.27-1.24.39-.57.13-1.24.2-2.01.2-2.21-.04-3.87-.7-4.98-1.96C2.56 15.77 2 14.16 2 12.21c.05-2.31.72-4.08 2-5.32C5.32 5.64 6.96 5 8.94 5c.75 0 1.4.07 1.94.19s.94.25 1.2.4l-.58 2.49-1.06-.34c-.4-.1-.86-.15-1.39-.15-1.16-.01-2.12.36-2.87 1.1-.76.73-1.15 1.85-1.18 3.34 0 1.36.37 2.42 1.08 3.2.71.77 1.71 1.17 2.99 1.18l1.33-.12c.43-.08.79-.19 1.1-.32M13.89 19l.61-4H13l.34-2h1.5l.32-2h-1.5L14 9h1.5l.61-4h2l-.61 4h1l.61-4h2l-.61 4H22l-.34 2h-1.5l-.32 2h1.5L21 15h-1.5l-.61 4h-2l.61-4h-1l-.61 4h-2m2.95-6h1l.32-2h-1l-.32 2Z" transform="matrix(1.5 0 0 1.5 324 72)" id="mdi-language-csharp" fill="#fff"/><path d="m5 3-.65 3.34h13.59L17.5 8.5H3.92l-.66 3.33h13.59l-.76 3.81-5.48 1.81-4.75-1.81.33-1.64H2.85l-.79 4 7.85 3 9.05-3 1.2-6.03.24-1.21L21.94 3H5Z" transform="matrix(1.5 0 0 1.5 360 72)" id="mdi-language-css3" fill="#555"/><path d="m5 3-.65 3.34h13.59L17.5 8.5H3.92l-.66 3.33h13.59l-.76 3.81-5.48 1.81-4.75-1.81.33-1.64H2.85l-.79 4 7.85 3 9.05-3 1.2-6.03.24-1.21L21.94 3H5Z" transform="matrix(1.5 0 0 1.5 396 72)" id="mdi-language-css3" fill="#fff"/><path d="M5 4v2h1c.55 0 1 .45 1 1v10c0 .55-.45 1-1 1H5v2h9v-2h-2c-.55 0-1-.45-1-1v-4h2c.55 0 1 .45 1 1v2h2V8h-2v2c0 .55-.45 1-1 1h-2V6h5c1.11 0 2 1.34 2 3v1h2V4Z" transform="matrix(1.5 0 0 1.5 432 72)" id="mdi-language-fortran" fill="#555"/><path d="M5 4v2h1c.55 0 1 .45 1 1v10c0 .55-.45 1-1 1H5v2h9v-2h-2c-.55 0-1-.45-1-1v-4h2c.55 0 1 .45 1 1v2h2V8h-2v2c0 .55-.45 1-1 1h-2V6h5c1.11 0 2 1.34 2 3v1h2V4Z" transform="matrix(1.5 0 0 1.5 468 72)" id="mdi-language-fortran" fill="#fff"/><path d="m2.64 10.33-.02-.06.22-.27.12-.08H6.8l.03.08-.18.26-.11.06-3.9.01m-1.61.98L1 11.26l.22-.29.12-.06h4.9l.05.09-.08.24-.1.07H1.03m2.6.99-.04-.06.16-.28.1-.06H6l.07.07-.02.25-.08.08H3.63m11.15-2.16-1.78.47c-.19.04-.2.05-.34-.11-.16-.18-.27-.29-.5-.4-.66-.34-1.33-.24-1.94.15-.72.48-1.11 1.17-1.1 2.05.01.86.6 1.57 1.45 1.7.73.09 1.34-.17 1.83-.72l.29-.39h-2.07c-.22 0-.27-.14-.2-.32l.55-1.18c.03-.06.11-.17.27-.17h3.44c.15-.5.41-.96.75-1.41.78-1.03 1.73-1.57 3-1.81 1.07-.18 2.13-.07 3.07.57.84.58 1.37 1.36 1.5 2.39.19 1.45-.24 2.63-1.24 3.65-.71.72-1.58 1.17-2.57 1.39l-.86.08c-.98-.02-1.87-.3-2.62-.95-.52-.45-.88-.99-1.06-1.63-.15.24-.27.47-.44.7-.77 1.02-1.78 1.65-3.06 1.8-1.05.16-2.03-.05-2.89-.69-.79-.6-1.26-1.4-1.36-2.39-.14-1.17.2-2.22.91-3.14.76-1 1.77-1.63 3.01-1.86 1-.18 1.97-.06 2.84.52.57.38.97.9 1.24 1.52.04.09 0 .15-.12.18m6.11 1.6-.03-.36c-.19-1.06-1.17-1.66-2.19-1.43-1.01.22-1.67.85-1.88 1.86-.19.84.21 1.69.98 2.03.59.26 1.19.22 1.76-.06.84-.43 1.31-1.12 1.36-2.04Z" transform="matrix(1.5 0 0 1.5 504 72)" id="mdi-language-go" fill="#555"/><path d="m2.64 10.33-.02-.06.22-.27.12-.08H6.8l.03.08-.18.26-.11.06-3.9.01m-1.61.98L1 11.26l.22-.29.12-.06h4.9l.05.09-.08.24-.1.07H1.03m2.6.99-.04-.06.16-.28.1-.06H6l.07.07-.02.25-.08.08H3.63m11.15-2.16-1.78.47c-.19.04-.2.05-.34-.11-.16-.18-.27-.29-.5-.4-.66-.34-1.33-.24-1.94.15-.72.48-1.11 1.17-1.1 2.05.01.86.6 1.57 1.45 1.7.73.09 1.34-.17 1.83-.72l.29-.39h-2.07c-.22 0-.27-.14-.2-.32l.55-1.18c.03-.06.11-.17.27-.17h3.44c.15-.5.41-.96.75-1.41.78-1.03 1.73-1.57 3-1.81 1.07-.18 2.13-.07 3.07.57.84.58 1.37 1.36 1.5 2.39.19 1.45-.24 2.63-1.24 3.65-.71.72-1.58 1.17-2.57 1.39l-.86.08c-.98-.02-1.87-.3-2.62-.95-.52-.45-.88-.99-1.06-1.63-.15.24-.27.47-.44.7-.77 1.02-1.78 1.65-3.06 1.8-1.05.16-2.03-.05-2.89-.69-.79-.6-1.26-1.4-1.36-2.39-.14-1.17.2-2.22.91-3.14.76-1 1.77-1.63 3.01-1.86 1-.18 1.97-.06 2.84.52.57.38.97.9 1.24 1.52.04.09 0 .15-.12.18m6.11 1.6-.03-.36c-.19-1.06-1.17-1.66-2.19-1.43-1.01.22-1.67.85-1.88 1.86-.19.84.21 1.69.98 2.03.59.26 1.19.22 1.76-.06.84-.43 1.31-1.12 1.36-2.04Z" transform="matrix(1.5 0 0 1.5 540 72)" id="mdi-language-go" fill="#fff"/><path d="m2.08 19 4.67-7-4.67-7h3.5l4.67 7-4.67 7h-3.5m4.67 0 4.67-7-4.67-7h3.5l9.34 14h-3.5l-2.92-4.37L10.25 19h-3.5m11.28-4.08-1.53-2.34h5.42v2.34h-3.89m-2.33-3.5-1.56-2.34h7.78v2.34H15.7Z" transform="matrix(1.5 0 0 1.5 576 72)" id="mdi-language-haskell" fill="#555"/><path d="m2.08 19 4.67-7-4.67-7h3.5l4.67 7-4.67 7h-3.5m4.67 0 4.67-7-4.67-7h3.5l9.34 14h-3.5l-2.92-4.37L10.25 19h-3.5m11.28-4.08-1.53-2.34h5.42v2.34h-3.89m-2.33-3.5-1.56-2.34h7.78v2.34H15.7Z" transform="matrix(1.5 0 0 1.5 612 72)" id="mdi-language-haskell" fill="#fff"/><path d="m12 17.56 4.07-1.13.55-6.1H9.38L9.2 8.3h7.6l.2-1.99H7l.56 6.01h6.89l-.23 2.58-2.22.6-2.22-.6-.14-1.66h-2l.29 3.19L12 17.56M4.07 3h15.86L18.5 19.2 12 21l-6.5-1.8L4.07 3Z" transform="matrix(1.5 0 0 1.5 648 72)" id="mdi-language-html5" fill="#555"/><path d="m12 17.56 4.07-1.13.55-6.1H9.38L9.2 8.3h7.6l.2-1.99H7l.56 6.01h6.89l-.23 2.58-2.22.6-2.22-.6-.14-1.66h-2l.29 3.19L12 17.56M4.07 3h15.86L18.5 19.2 12 21l-6.5-1.8L4.07 3Z" transform="matrix(1.5 0 0 1.5 684 72)" id="mdi-language-html5" fill="#fff"/><path d="M16.5 6.08s-6.84 1.71-3.56 5.48c.97 1.11-.25 2.11-.25 2.11s2.45-1.25 1.31-2.85c-1.06-1.47-1.86-2.2 2.5-4.74m-4.47 1.2C16.08 4.08 14 2 14 2c.84 3.3-2.96 4.3-4.33 6.36-.94 1.4.46 2.91 2.33 4.64-.71-1.7-3.22-3.16.03-5.72M9.37 17.47c-3.08.86 1.88 2.63 5.79.96-.38-.15-.75-.33-1.1-.54-1.36.31-2.76.37-4.14.18-1.31-.16-.55-.6-.55-.6m5.32-1.68c-1.75.38-3.56.47-5.34.26-1.31-.13-.45-.77-.45-.77-3.4 1.13 1.88 2.4 6.6 1.02-.29-.11-.57-.3-.81-.51m3.42 3.3s.57.47-.61.83c-2.28.68-9.43.89-11.41.03-.71-.31.63-.74 1.05-.83.23-.06.46-.08.69-.08-.79-.54-5.13 1.1-2.19 1.56 7.97 1.3 14.54-.6 12.47-1.51m-2.74-4.86c.29-.19.6-.35.92-.49 0 0-1.51.26-3.02.4-1.6.16-3.21.18-4.81.06-2.35-.31 1.29-1.2 1.29-1.2-1.1 0-2.18.26-3.16.75-2.05 1 5.1 1.45 8.78.48m.9 2.42c-.02.04-.04.07-.08.1 5.01-1.31 3.17-4.64.77-3.81-.13.06-.24.14-.31.25.14-.05.28-.09.43-.12 1.2-.24 2.92 1.63-.81 3.58m.13 4.61c-3.01.52-6.09.56-9.12.14 0 0 .46.38 2.81.53 3.6.23 9.13-.13 9.26-1.83.03.01-.23.65-2.95 1.16Z" transform="matrix(1.5 0 0 1.5 0 108)" id="mdi-language-java" fill="#555"/><path d="M16.5 6.08s-6.84 1.71-3.56 5.48c.97 1.11-.25 2.11-.25 2.11s2.45-1.25 1.31-2.85c-1.06-1.47-1.86-2.2 2.5-4.74m-4.47 1.2C16.08 4.08 14 2 14 2c.84 3.3-2.96 4.3-4.33 6.36-.94 1.4.46 2.91 2.33 4.64-.71-1.7-3.22-3.16.03-5.72M9.37 17.47c-3.08.86 1.88 2.63 5.79.96-.38-.15-.75-.33-1.1-.54-1.36.31-2.76.37-4.14.18-1.31-.16-.55-.6-.55-.6m5.32-1.68c-1.75.38-3.56.47-5.34.26-1.31-.13-.45-.77-.45-.77-3.4 1.13 1.88 2.4 6.6 1.02-.29-.11-.57-.3-.81-.51m3.42 3.3s.57.47-.61.83c-2.28.68-9.43.89-11.41.03-.71-.31.63-.74 1.05-.83.23-.06.46-.08.69-.08-.79-.54-5.13 1.1-2.19 1.56 7.97 1.3 14.54-.6 12.47-1.51m-2.74-4.86c.29-.19.6-.35.92-.49 0 0-1.51.26-3.02.4-1.6.16-3.21.18-4.81.06-2.35-.31 1.29-1.2 1.29-1.2-1.1 0-2.18.26-3.16.75-2.05 1 5.1 1.45 8.78.48m.9 2.42c-.02.04-.04.07-.08.1 5.01-1.31 3.17-4.64.77-3.81-.13.06-.24.14-.31.25.14-.05.28-.09.43-.12 1.2-.24 2.92 1.63-.81 3.58m.13 4.61c-3.01.52-6.09.56-9.12.14 0 0 .46.38 2.81.53 3.6.23 9.13-.13 9.26-1.83.03.01-.23.65-2.95 1.16Z" transform="matrix(1.5 0 0 1.5 36 108)" id="mdi-language-java" fill="#fff"/><path d="M3 3h18v18H3V3m4.73 15.04c.4.85 1.19 1.55 2.54 1.55 1.5 0 2.53-.8 2.53-2.55v-5.78h-1.7V17c0 .86-.35 1.08-.9 1.08-.58 0-.82-.4-1.09-.87l-1.38.83m5.98-.18c.5.98 1.51 1.73 3.09 1.73 1.6 0 2.8-.83 2.8-2.36 0-1.41-.81-2.04-2.25-2.66l-.42-.18c-.73-.31-1.04-.52-1.04-1.02 0-.41.31-.73.81-.73.48 0 .8.21 1.09.73l1.31-.87c-.55-.96-1.33-1.33-2.4-1.33-1.51 0-2.48.96-2.48 2.23 0 1.38.81 2.03 2.03 2.55l.42.18c.78.34 1.24.55 1.24 1.13 0 .48-.45.83-1.15.83-.83 0-1.31-.43-1.67-1.03l-1.38.8Z" transform="matrix(1.5 0 0 1.5 72 108)" id="mdi-language-javascript" fill="#555"/><path d="M3 3h18v18H3V3m4.73 15.04c.4.85 1.19 1.55 2.54 1.55 1.5 0 2.53-.8 2.53-2.55v-5.78h-1.7V17c0 .86-.35 1.08-.9 1.08-.58 0-.82-.4-1.09-.87l-1.38.83m5.98-.18c.5.98 1.51 1.73 3.09 1.73 1.6 0 2.8-.83 2.8-2.36 0-1.41-.81-2.04-2.25-2.66l-.42-.18c-.73-.31-1.04-.52-1.04-1.02 0-.41.31-.73.81-.73.48 0 .8.21 1.09.73l1.31-.87c-.55-.96-1.33-1.33-2.4-1.33-1.51 0-2.48.96-2.48 2.23 0 1.38.81 2.03 2.03 2.55l.42.18c.78.34 1.24.55 1.24 1.13 0 .48-.45.83-1.15.83-.83 0-1.31-.43-1.67-1.03l-1.38.8Z" transform="matrix(1.5 0 0 1.5 108 108)" id="mdi-language-javascript" fill="#fff"/><path d="M2 2h20L12 12l10 10H2Z" transform="matrix(1.5 0 0 1.5 144 108)" id="mdi-language-kotlin" fill="#555"/><path d="M2 2h20L12 12l10 10H2Z" transform="matrix(1.5 0 0 1.5 180 108)" id="mdi-language-kotlin" fill="#fff"/><path d="M10.5 5A8.5 8.5 0 0 0 2 13.5a8.5 8.5 0 0 0 8.5 8.5 8.5 8.5 0 0 0 8.5-8.5A8.5 8.5 0 0 0 10.5 5m3 8a2.5 2.5 0 0 1-2.5-2.5A2.5 2.5 0 0 1 13.5 8a2.5 2.5 0 0 1 2.5 2.5 2.5 2.5 0 0 1-2.5 2.5m6-11A2.5 2.5 0 0 0 17 4.5 2.5 2.5 0 0 0 19.5 7 2.5 2.5 0 0 0 22 4.5 2.5 2.5 0 0 0 19.5 2" transform="matrix(1.5 0 0 1.5 216 108)" id="mdi-language-lua" fill="#555"/><path d="M10.5 5A8.5 8.5 0 0 0 2 13.5a8.5 8.5 0 0 0 8.5 8.5 8.5 8.5 0 0 0 8.5-8.5A8.5 8.5 0 0 0 10.5 5m3 8a2.5 2.5 0 0 1-2.5-2.5A2.5 2.5 0 0 1 13.5 8a2.5 2.5 0 0 1 2.5 2.5 2.5 2.5 0 0 1-2.5 2.5m6-11A2.5 2.5 0 0 0 17 4.5 2.5 2.5 0 0 0 19.5 7 2.5 2.5 0 0 0 22 4.5 2.5 2.5 0 0 0 19.5 2" transform="matrix(1.5 0 0 1.5 252 108)" id="mdi-language-lua" fill="#fff"/><path d="M20.56 18H3.44C2.65 18 2 17.37 2 16.59V7.41C2 6.63 2.65 6 3.44 6h17.12c.79 0 1.44.63 1.44 1.41v9.18c0 .78-.65 1.41-1.44 1.41M6.81 15.19v-3.66l1.92 2.35 1.92-2.35v3.66h1.93V8.81h-1.93l-1.92 2.35-1.92-2.35H4.89v6.38h1.92M19.69 12h-1.92V8.81h-1.92V12h-1.93l2.89 3.28L19.69 12Z" transform="matrix(1.5 0 0 1.5 288 108)" id="mdi-language-markdown" fill="#555"/><path d="M20.56 18H3.44C2.65 18 2 17.37 2 16.59V7.41C2 6.63 2.65 6 3.44 6h17.12c.79 0 1.44.63 1.44 1.41v9.18c0 .78-.65 1.41-1.44 1.41M6.81 15.19v-3.66l1.92 2.35 1.92-2.35v3.66h1.93V8.81h-1.93l-1.92 2.35-1.92-2.35H4.89v6.38h1.92M19.69 12h-1.92V8.81h-1.92V12h-1.93l2.89 3.28L19.69 12Z" transform="matrix(1.5 0 0 1.5 324 108)" id="mdi-language-markdown" fill="#fff"/><path d="M20.56 18H3.44C2.65 18 2 17.37 2 16.59V7.41C2 6.63 2.65 6 3.44 6h17.12c.79 0 1.44.63 1.44 1.41v9.18c0 .78-.65 1.41-1.44 1.41M3.44 6.94c-.26 0-.48.21-.48.47v9.19c0 .25.22.46.48.46h17.12c.26 0 .48-.21.48-.46V7.41c0-.26-.22-.47-.48-.47H3.44m1.45 8.25V8.81h1.92l1.92 2.35 1.92-2.35h1.93v6.38h-1.93v-3.66l-1.92 2.35-1.92-2.35v3.66H4.89m12.01 0-2.9-3.1h1.94V8.81h1.92v3.28h1.93l-2.89 3.1" transform="matrix(1.5 0 0 1.5 360 108)" id="mdi-language-markdown-outline" fill="#555"/><path d="M20.56 18H3.44C2.65 18 2 17.37 2 16.59V7.41C2 6.63 2.65 6 3.44 6h17.12c.79 0 1.44.63 1.44 1.41v9.18c0 .78-.65 1.41-1.44 1.41M3.44 6.94c-.26 0-.48.21-.48.47v9.19c0 .25.22.46.48.46h17.12c.26 0 .48-.21.48-.46V7.41c0-.26-.22-.47-.48-.47H3.44m1.45 8.25V8.81h1.92l1.92 2.35 1.92-2.35h1.93v6.38h-1.93v-3.66l-1.92 2.35-1.92-2.35v3.66H4.89m12.01 0-2.9-3.1h1.94V8.81h1.92v3.28h1.93l-2.89 3.1" transform="matrix(1.5 0 0 1.5 396 108)" id="mdi-language-markdown-outline" fill="#fff"/><path d="M12 18.08c-6.63 0-12-2.72-12-6.08s5.37-6.08 12-6.08S24 8.64 24 12s-5.37 6.08-12 6.08m-5.19-7.95c.54 0 .91.1 1.09.31.18.2.22.56.13 1.03-.1.53-.29.87-.58 1.09-.28.22-.71.33-1.29.33h-.87l.53-2.76h.99m-3.5 5.55h1.44l.34-1.75h1.23c.54 0 .98-.06 1.33-.17.35-.12.67-.31.96-.58.24-.22.43-.46.58-.73.15-.26.26-.56.31-.88.16-.78.05-1.39-.33-1.82-.39-.44-.99-.65-1.82-.65H4.59l-1.28 6.58m7.25-8.33-1.28 6.58h1.42l.74-3.77h1.14c.36 0 .6.06.71.18.11.12.13.34.07.66l-.57 2.93h1.45l.59-3.07c.13-.62.03-1.07-.27-1.36-.3-.27-.85-.4-1.65-.4h-1.27L12 7.35h-1.44M18 10.13c.55 0 .91.1 1.09.31.18.2.22.56.13 1.03-.1.53-.29.87-.57 1.09-.29.22-.72.33-1.3.33h-.85l.5-2.76h1m-3.5 5.55h1.44l.34-1.75h1.22c.55 0 1-.06 1.35-.17.35-.12.65-.31.95-.58.24-.22.44-.46.58-.73.15-.26.26-.56.32-.88.15-.78.04-1.39-.34-1.82-.36-.44-.99-.65-1.82-.65h-2.75l-1.29 6.58Z" transform="matrix(1.5 0 0 1.5 432 108)" id="mdi-language-php" fill="#555"/><path d="M12 18.08c-6.63 0-12-2.72-12-6.08s5.37-6.08 12-6.08S24 8.64 24 12s-5.37 6.08-12 6.08m-5.19-7.95c.54 0 .91.1 1.09.31.18.2.22.56.13 1.03-.1.53-.29.87-.58 1.09-.28.22-.71.33-1.29.33h-.87l.53-2.76h.99m-3.5 5.55h1.44l.34-1.75h1.23c.54 0 .98-.06 1.33-.17.35-.12.67-.31.96-.58.24-.22.43-.46.58-.73.15-.26.26-.56.31-.88.16-.78.05-1.39-.33-1.82-.39-.44-.99-.65-1.82-.65H4.59l-1.28 6.58m7.25-8.33-1.28 6.58h1.42l.74-3.77h1.14c.36 0 .6.06.71.18.11.12.13.34.07.66l-.57 2.93h1.45l.59-3.07c.13-.62.03-1.07-.27-1.36-.3-.27-.85-.4-1.65-.4h-1.27L12 7.35h-1.44M18 10.13c.55 0 .91.1 1.09.31.18.2.22.56.13 1.03-.1.53-.29.87-.57 1.09-.29.22-.72.33-1.3.33h-.85l.5-2.76h1m-3.5 5.55h1.44l.34-1.75h1.22c.55 0 1-.06 1.35-.17.35-.12.65-.31.95-.58.24-.22.44-.46.58-.73.15-.26.26-.56.32-.88.15-.78.04-1.39-.34-1.82-.36-.44-.99-.65-1.82-.65h-2.75l-1.29 6.58Z" transform="matrix(1.5 0 0 1.5 468 108)" id="mdi-language-php" fill="#fff"/><path d="M19.14 7.5A2.86 2.86 0 0 1 22 10.36v3.78A2.86 2.86 0 0 1 19.14 17H12c0 .39.32.96.71.96H17v1.68a2.86 2.86 0 0 1-2.86 2.86H9.86A2.86 2.86 0 0 1 7 19.64v-3.75a2.85 2.85 0 0 1 2.86-2.85h5.25a2.85 2.85 0 0 0 2.85-2.86V7.5h1.18m-4.28 11.79c-.4 0-.72.3-.72.89 0 .59.32.71.72.71a.71.71 0 0 0 .71-.71c0-.59-.32-.89-.71-.89m-10-1.79A2.86 2.86 0 0 1 2 14.64v-3.78A2.86 2.86 0 0 1 4.86 8H12c0-.39-.32-.96-.71-.96H7V5.36A2.86 2.86 0 0 1 9.86 2.5h4.28A2.86 2.86 0 0 1 17 5.36v3.75a2.85 2.85 0 0 1-2.86 2.85H8.89a2.85 2.85 0 0 0-2.85 2.86v2.68H4.86M9.14 5.71c.4 0 .72-.3.72-.89 0-.59-.32-.71-.72-.71-.39 0-.71.12-.71.71s.32.89.71.89Z" transform="matrix(1.5 0 0 1.5 504 108)" id="mdi-language-python" fill="#555"/><path d="M19.14 7.5A2.86 2.86 0 0 1 22 10.36v3.78A2.86 2.86 0 0 1 19.14 17H12c0 .39.32.96.71.96H17v1.68a2.86 2.86 0 0 1-2.86 2.86H9.86A2.86 2.86 0 0 1 7 19.64v-3.75a2.85 2.85 0 0 1 2.86-2.85h5.25a2.85 2.85 0 0 0 2.85-2.86V7.5h1.18m-4.28 11.79c-.4 0-.72.3-.72.89 0 .59.32.71.72.71a.71.71 0 0 0 .71-.71c0-.59-.32-.89-.71-.89m-10-1.79A2.86 2.86 0 0 1 2 14.64v-3.78A2.86 2.86 0 0 1 4.86 8H12c0-.39-.32-.96-.71-.96H7V5.36A2.86 2.86 0 0 1 9.86 2.5h4.28A2.86 2.86 0 0 1 17 5.36v3.75a2.85 2.85 0 0 1-2.86 2.85H8.89a2.85 2.85 0 0 0-2.85 2.86v2.68H4.86M9.14 5.71c.4 0 .72-.3.72-.89 0-.59-.32-.71-.72-.71-.39 0-.71.12-.71.71s.32.89.71.89Z" transform="matrix(1.5 0 0 1.5 540 108)" id="mdi-language-python" fill="#fff"/><path d="M12 4.29c-5.5 0-10 3-10 6.71 0 3.28 3.56 6 8.24 6.58v2.13h3.41v-2.12c.85-.09 1.64-.25 2.39-.48l1.38 2.6h3.86l-2.32-3.91C20.83 14.58 22 12.87 22 11c0-3.71-4.5-6.71-10-6.71m1.53 2.62c4.2 0 7.3 1.4 7.3 4.59 0 1.71-.92 2.91-2.42 3.65-.09-.05-.17-.1-.22-.15-.36-.16-.96-.34-.96-.34s2.98-.22 2.98-3.19c0-2.97-3.12-3.02-3.12-3.02h-6.85v7.16c-2.55-.74-4.31-2.31-4.31-4.11 0-2.54 3.4-4.59 7.6-4.59m.15 3.98h2.07s.95-.05.95.94c0 .97-.95.97-.95.97h-2.07v-1.91m-.03 4.41h.92c.18 0 .27.05.43.2.13.1.27.29.39.46-.55.07-1.13.1-1.74.1v-.76Z" transform="matrix(1.5 0 0 1.5 576 108)" id="mdi-language-r" fill="#555"/><path d="M12 4.29c-5.5 0-10 3-10 6.71 0 3.28 3.56 6 8.24 6.58v2.13h3.41v-2.12c.85-.09 1.64-.25 2.39-.48l1.38 2.6h3.86l-2.32-3.91C20.83 14.58 22 12.87 22 11c0-3.71-4.5-6.71-10-6.71m1.53 2.62c4.2 0 7.3 1.4 7.3 4.59 0 1.71-.92 2.91-2.42 3.65-.09-.05-.17-.1-.22-.15-.36-.16-.96-.34-.96-.34s2.98-.22 2.98-3.19c0-2.97-3.12-3.02-3.12-3.02h-6.85v7.16c-2.55-.74-4.31-2.31-4.31-4.11 0-2.54 3.4-4.59 7.6-4.59m.15 3.98h2.07s.95-.05.95.94c0 .97-.95.97-.95.97h-2.07v-1.91m-.03 4.41h.92c.18 0 .27.05.43.2.13.1.27.29.39.46-.55.07-1.13.1-1.74.1v-.76Z" transform="matrix(1.5 0 0 1.5 612 108)" id="mdi-language-r" fill="#fff"/><path d="M18.8 2.07c2.52.43 3.24 2.16 3.2 3.97V6l-1.14 14.93-14.78 1.01h.01c-1.23-.05-3.96-.17-4.09-3.99l1.37-2.5 2.77 6.46 2.36-7.62-.05.01.02-.02 7.71 2.46-1.99-7.78 7.35-.46-5.79-4.74 3.05-1.7v.01M2 17.91v.02-.02M6.28 6.23c2.96-2.95 6.79-4.69 8.26-3.2 1.46 1.47-.08 5.09-3.04 8.03-3 2.94-6.77 4.78-8.24 3.3-1.47-1.49.04-5.19 3.01-8.13h.01Z" transform="matrix(1.5 0 0 1.5 648 108)" id="mdi-language-ruby" fill="#555"/><path d="M18.8 2.07c2.52.43 3.24 2.16 3.2 3.97V6l-1.14 14.93-14.78 1.01h.01c-1.23-.05-3.96-.17-4.09-3.99l1.37-2.5 2.77 6.46 2.36-7.62-.05.01.02-.02 7.71 2.46-1.99-7.78 7.35-.46-5.79-4.74 3.05-1.7v.01M2 17.91v.02-.02M6.28 6.23c2.96-2.95 6.79-4.69 8.26-3.2 1.46 1.47-.08 5.09-3.04 8.03-3 2.94-6.77 4.78-8.24 3.3-1.47-1.49.04-5.19 3.01-8.13h.01Z" transform="matrix(1.5 0 0 1.5 684 108)" id="mdi-language-ruby" fill="#fff"/><path d="M19.8 16.7s1.8-.2 1.8-2.4c0-2.2-2.1-2.5-2.1-2.5h-3.8V19h1.9v-1.7l1.7 1.7H22l-2.2-2.3m-.8-1.4h-1.5v-1.6H19s.4.2.4.8c.1.6-.4.8-.4.8m2.3-7.1v.2C13.2 6.1 10 13.2 10.6 18.7H4.3c.7-5.4 7.5-16.1 17-10.5m-.8-1.3c-.7-.3-1.4-.6-2.1-.8l.1-1.3 2.1.8-.1 1.3m-2 1.8c.7 0 1.4.1 2.1.3l-.1 1.2-1.8-.2-.2-1.3m-4.6-2.9-.4-1.2 2.1-.2.4 1.3c-.2 0-1.9.1-2.1.1m1.3 3.7c.4-.2 1.1-.5 2-.7l.4 1.2-1.8.7-.6-1.2m-3.4-3c-.6.3-1.2.6-1.8 1l-.8-1.3 1.8-1 .8 1.3m2.5 3.6.8 1.2-1.1 1.3-1.1-1c.3-.6.8-1.1 1.4-1.5M11.6 15c.1-.8.3-1.5.6-2.3l1.2 1-.3 1.9-1.5-.6M7.9 9.3c-.5.5-1 1.1-1.4 1.6L5.2 9.8l1.5-1.6 1.2 1.1m-3.1 4.4c-.4.8-.7 1.6-1 2.3L2 15.3l.9-2.3 1.9.7m6.7 2.6 1.8.6.3 2-2-.5c0-.2-.1-.9-.1-2.1Z" transform="matrix(1.5 0 0 1.5 0 144)" id="mdi-language-ruby-on-rails" fill="#555"/><path d="M19.8 16.7s1.8-.2 1.8-2.4c0-2.2-2.1-2.5-2.1-2.5h-3.8V19h1.9v-1.7l1.7 1.7H22l-2.2-2.3m-.8-1.4h-1.5v-1.6H19s.4.2.4.8c.1.6-.4.8-.4.8m2.3-7.1v.2C13.2 6.1 10 13.2 10.6 18.7H4.3c.7-5.4 7.5-16.1 17-10.5m-.8-1.3c-.7-.3-1.4-.6-2.1-.8l.1-1.3 2.1.8-.1 1.3m-2 1.8c.7 0 1.4.1 2.1.3l-.1 1.2-1.8-.2-.2-1.3m-4.6-2.9-.4-1.2 2.1-.2.4 1.3c-.2 0-1.9.1-2.1.1m1.3 3.7c.4-.2 1.1-.5 2-.7l.4 1.2-1.8.7-.6-1.2m-3.4-3c-.6.3-1.2.6-1.8 1l-.8-1.3 1.8-1 .8 1.3m2.5 3.6.8 1.2-1.1 1.3-1.1-1c.3-.6.8-1.1 1.4-1.5M11.6 15c.1-.8.3-1.5.6-2.3l1.2 1-.3 1.9-1.5-.6M7.9 9.3c-.5.5-1 1.1-1.4 1.6L5.2 9.8l1.5-1.6 1.2 1.1m-3.1 4.4c-.4.8-.7 1.6-1 2.3L2 15.3l.9-2.3 1.9.7m6.7 2.6 1.8.6.3 2-2-.5c0-.2-.1-.9-.1-2.1Z" transform="matrix(1.5 0 0 1.5 36 144)" id="mdi-language-ruby-on-rails" fill="#fff"/><path d="m21.9 11.7-.9-.5V11l.7-.7c.1-.1.1-.3 0-.4l-.1-.1-.9-.3c0-.1 0-.2-.1-.2l.6-.8c.1-.1.1-.3-.1-.4 0 0-.1 0-.1-.1l-1-.2c0-.1-.1-.1-.1-.2l.4-.9v-.3c-.1-.1-.2-.1-.3-.1h-1s0-.1-.1-.1l.2-1c0-.2-.1-.3-.2-.3h-.1l-1 .2c0-.1-.1-.1-.2-.2v-1c0-.2-.1-.3-.3-.3h-.1l-.9.4h-.1L16 3c0-.2-.2-.3-.3-.2h-.1l-.8.6c-.1 0-.2 0-.2-.1l-.3-.9c-.1-.1-.2-.2-.4-.2 0 0-.1 0-.1.1L13 3h-.2l-.5-.8c-.1-.2-.3-.2-.5-.2l-.1.1-.5.9H11l-.7-.7c-.1-.1-.3-.1-.4 0l-.1.1-.3.9c-.1 0-.2 0-.2.1l-.8-.6c-.2-.1-.4-.1-.5.1V3l-.2 1s-.1 0-.2.1l-.9-.4c-.1-.1-.3 0-.4.1v1.1c0 .1-.1.1-.1.2l-1-.2c-.2-.1-.3 0-.3.2v.1l.2 1c-.1 0-.1.1-.2.1h-1c-.2 0-.3.1-.3.3v.1l.4.9v.2L3 8c-.2 0-.3.2-.3.3v.1l.6.8c0 .1 0 .2-.1.2l-.8.4c-.1.1-.2.2-.2.4 0 0 0 .1.1.1l.7.7v.2l-.8.5c-.2.1-.2.3-.2.4l.1.1.9.6v.2l-.7.7c-.1.1-.1.3 0 .4l.1.1.9.3c0 .1 0 .2.1.2l-.6.8c-.1.1-.1.3.1.4 0 0 .1 0 .1.1l1 .2c0 .1.1.1.1.2l-.4.9c-.1.1 0 .3.1.4h1.1c.1 0 .1.1.2.1l-.2 1c0 .2.1.3.2.3h.1l1-.2c0 .1.1.1.2.2v1c0 .2.1.3.3.3h.1l.9-.4h.1l.2 1c0 .2.2.3.3.2h.1l.8-.6c.1 0 .2 0 .2.1l.3.9c.1.1.2.2.4.2 0 0 .1 0 .1-.1l.8-.7h.2l.5.8c.1.1.3.2.4.1l.1-.1.5-.8h.2l.7.7c.1.1.3.1.4 0l.1-.1.3-.9c.1 0 .2 0 .2-.1l.8.6c.1.1.3.1.4-.1 0 0 0-.1.1-.1l.2-1c.1 0 .1-.1.2-.1l.9.4c.1.1.3 0 .4-.1v-1.1l.2-.2 1 .2c.2 0 .3-.1.3-.2v-.1l-.2-1 .2-.2h1c.2 0 .3-.1.3-.3v-.1l-.4-.9c0-.1.1-.1.1-.2l1-.2c.2 0 .3-.2.2-.3v-.1l-.6-.8.1-.2.9-.3c.1-.1.2-.2.2-.4 0 0 0-.1-.1-.1L21 13v-.2l.8-.5c.2-.1.2-.3.1-.6 0 .1 0 .1 0 0m-5.7 7c-.3-.1-.5-.4-.5-.7.1-.3.4-.5.7-.5.3.1.5.4.5.7 0 .4-.3.6-.7.5m-.2-1.9c-.3-.1-.6.1-.6.4l-.4 1.4c-.9.4-1.9.6-3 .6s-2.1-.2-3.1-.7l-.3-1.4c-.1-.3-.3-.5-.6-.4l-1.2.3c-.2-.2-.4-.5-.6-.7h6c.1 0 .1 0 .1-.1v-2.1c0-.1 0-.1-.1-.1h-1.7v-1.3h1.9c.2 0 .9 0 1.2 1 .1.3.2 1.3.4 1.6.1.3.6 1 1.1 1h3.1c-.2.3-.4.5-.7.8l-1.5-.3m-8.3 1.9c-.3.1-.6-.1-.7-.5-.1-.3.1-.6.5-.7s.6.1.7.5c0 .3-.2.6-.5.7M5.4 9.5c.1.3 0 .7-.3.8-.3.1-.7 0-.8-.3-.1-.3 0-.7.3-.8.4-.1.7 0 .8.3m-.7 1.6 1.3-.5c.3-.1.4-.4.3-.7L6 9.3h1V14H5c-.3-1-.4-1.9-.3-2.9m5.6-.4V9.3h2.5c.1 0 .9.1.9.7 0 .5-.6.7-1.1.7h-2.3m9 1.2v.5h-.8c-.1 0-.1 0-.1.1v.3c0 .8-.5 1-.9 1s-.8-.2-.9-.4c-.2-1.3-.6-1.5-1.2-2 .7-.5 1.5-1.2 1.5-2.1 0-1-.7-1.6-1.1-1.9-.7-.4-1.4-.5-1.6-.5H6.6c1.1-1.2 2.5-2 4.1-2.3l.9 1c.2.2.5.2.8 0l1-1c2.1.4 3.9 1.7 5 3.6l-.7 1.6c-.1.3 0 .6.3.7l1.3.6v.8m-7.7-8c.2-.2.6-.2.8 0 .2.2.2.6 0 .8-.3.3-.6.3-.9 0-.2-.2-.1-.5.1-.8m6.9 5.6c.1-.3.5-.4.8-.3.3.1.4.5.3.8-.1.3-.5.4-.8.3-.3-.1-.4-.5-.3-.8Z" transform="matrix(1.5 0 0 1.5 72 144)" id="mdi-language-rust" fill="#555"/><path d="m21.9 11.7-.9-.5V11l.7-.7c.1-.1.1-.3 0-.4l-.1-.1-.9-.3c0-.1 0-.2-.1-.2l.6-.8c.1-.1.1-.3-.1-.4 0 0-.1 0-.1-.1l-1-.2c0-.1-.1-.1-.1-.2l.4-.9v-.3c-.1-.1-.2-.1-.3-.1h-1s0-.1-.1-.1l.2-1c0-.2-.1-.3-.2-.3h-.1l-1 .2c0-.1-.1-.1-.2-.2v-1c0-.2-.1-.3-.3-.3h-.1l-.9.4h-.1L16 3c0-.2-.2-.3-.3-.2h-.1l-.8.6c-.1 0-.2 0-.2-.1l-.3-.9c-.1-.1-.2-.2-.4-.2 0 0-.1 0-.1.1L13 3h-.2l-.5-.8c-.1-.2-.3-.2-.5-.2l-.1.1-.5.9H11l-.7-.7c-.1-.1-.3-.1-.4 0l-.1.1-.3.9c-.1 0-.2 0-.2.1l-.8-.6c-.2-.1-.4-.1-.5.1V3l-.2 1s-.1 0-.2.1l-.9-.4c-.1-.1-.3 0-.4.1v1.1c0 .1-.1.1-.1.2l-1-.2c-.2-.1-.3 0-.3.2v.1l.2 1c-.1 0-.1.1-.2.1h-1c-.2 0-.3.1-.3.3v.1l.4.9v.2L3 8c-.2 0-.3.2-.3.3v.1l.6.8c0 .1 0 .2-.1.2l-.8.4c-.1.1-.2.2-.2.4 0 0 0 .1.1.1l.7.7v.2l-.8.5c-.2.1-.2.3-.2.4l.1.1.9.6v.2l-.7.7c-.1.1-.1.3 0 .4l.1.1.9.3c0 .1 0 .2.1.2l-.6.8c-.1.1-.1.3.1.4 0 0 .1 0 .1.1l1 .2c0 .1.1.1.1.2l-.4.9c-.1.1 0 .3.1.4h1.1c.1 0 .1.1.2.1l-.2 1c0 .2.1.3.2.3h.1l1-.2c0 .1.1.1.2.2v1c0 .2.1.3.3.3h.1l.9-.4h.1l.2 1c0 .2.2.3.3.2h.1l.8-.6c.1 0 .2 0 .2.1l.3.9c.1.1.2.2.4.2 0 0 .1 0 .1-.1l.8-.7h.2l.5.8c.1.1.3.2.4.1l.1-.1.5-.8h.2l.7.7c.1.1.3.1.4 0l.1-.1.3-.9c.1 0 .2 0 .2-.1l.8.6c.1.1.3.1.4-.1 0 0 0-.1.1-.1l.2-1c.1 0 .1-.1.2-.1l.9.4c.1.1.3 0 .4-.1v-1.1l.2-.2 1 .2c.2 0 .3-.1.3-.2v-.1l-.2-1 .2-.2h1c.2 0 .3-.1.3-.3v-.1l-.4-.9c0-.1.1-.1.1-.2l1-.2c.2 0 .3-.2.2-.3v-.1l-.6-.8.1-.2.9-.3c.1-.1.2-.2.2-.4 0 0 0-.1-.1-.1L21 13v-.2l.8-.5c.2-.1.2-.3.1-.6 0 .1 0 .1 0 0m-5.7 7c-.3-.1-.5-.4-.5-.7.1-.3.4-.5.7-.5.3.1.5.4.5.7 0 .4-.3.6-.7.5m-.2-1.9c-.3-.1-.6.1-.6.4l-.4 1.4c-.9.4-1.9.6-3 .6s-2.1-.2-3.1-.7l-.3-1.4c-.1-.3-.3-.5-.6-.4l-1.2.3c-.2-.2-.4-.5-.6-.7h6c.1 0 .1 0 .1-.1v-2.1c0-.1 0-.1-.1-.1h-1.7v-1.3h1.9c.2 0 .9 0 1.2 1 .1.3.2 1.3.4 1.6.1.3.6 1 1.1 1h3.1c-.2.3-.4.5-.7.8l-1.5-.3m-8.3 1.9c-.3.1-.6-.1-.7-.5-.1-.3.1-.6.5-.7s.6.1.7.5c0 .3-.2.6-.5.7M5.4 9.5c.1.3 0 .7-.3.8-.3.1-.7 0-.8-.3-.1-.3 0-.7.3-.8.4-.1.7 0 .8.3m-.7 1.6 1.3-.5c.3-.1.4-.4.3-.7L6 9.3h1V14H5c-.3-1-.4-1.9-.3-2.9m5.6-.4V9.3h2.5c.1 0 .9.1.9.7 0 .5-.6.7-1.1.7h-2.3m9 1.2v.5h-.8c-.1 0-.1 0-.1.1v.3c0 .8-.5 1-.9 1s-.8-.2-.9-.4c-.2-1.3-.6-1.5-1.2-2 .7-.5 1.5-1.2 1.5-2.1 0-1-.7-1.6-1.1-1.9-.7-.4-1.4-.5-1.6-.5H6.6c1.1-1.2 2.5-2 4.1-2.3l.9 1c.2.2.5.2.8 0l1-1c2.1.4 3.9 1.7 5 3.6l-.7 1.6c-.1.3 0 .6.3.7l1.3.6v.8m-7.7-8c.2-.2.6-.2.8 0 .2.2.2.6 0 .8-.3.3-.6.3-.9 0-.2-.2-.1-.5.1-.8m6.9 5.6c.1-.3.5-.4.8-.3.3.1.4.5.3.8-.1.3-.5.4-.8.3-.3-.1-.4-.5-.3-.8Z" transform="matrix(1.5 0 0 1.5 108 144)" id="mdi-language-rust" fill="#fff"/><path d="M17.09 19.72c-2.36 1.36-5.59 1.5-8.86.1A13.807 13.807 0 0 1 2 14.5c.67.55 1.46 1 2.3 1.4 3.37 1.57 6.73 1.46 9.1 0-3.37-2.59-6.24-5.96-8.37-8.71-.45-.45-.78-1.01-1.12-1.51 8.28 6.05 7.92 7.59 2.41-1.01 4.89 4.94 9.43 7.74 9.43 7.74.16.09.25.16.36.22.1-.25.19-.51.26-.78.79-2.85-.11-6.12-2.08-8.81 4.55 2.75 7.25 7.91 6.12 12.24-.03.11-.06.22-.05.39 2.24 2.83 1.64 5.78 1.35 5.22-1.21-2.39-3.48-1.65-4.62-1.17Z" transform="matrix(1.5 0 0 1.5 144 144)" id="mdi-language-swift" fill="#555"/><path d="M17.09 19.72c-2.36 1.36-5.59 1.5-8.86.1A13.807 13.807 0 0 1 2 14.5c.67.55 1.46 1 2.3 1.4 3.37 1.57 6.73 1.46 9.1 0-3.37-2.59-6.24-5.96-8.37-8.71-.45-.45-.78-1.01-1.12-1.51 8.28 6.05 7.92 7.59 2.41-1.01 4.89 4.94 9.43 7.74 9.43 7.74.16.09.25.16.36.22.1-.25.19-.51.26-.78.79-2.85-.11-6.12-2.08-8.81 4.55 2.75 7.25 7.91 6.12 12.24-.03.11-.06.22-.05.39 2.24 2.83 1.64 5.78 1.35 5.22-1.21-2.39-3.48-1.65-4.62-1.17Z" transform="matrix(1.5 0 0 1.5 180 144)" id="mdi-language-swift" fill="#fff"/><path d="M3 3h18v18H3V3m10.71 14.86c.5.98 1.51 1.73 3.09 1.73 1.6 0 2.8-.83 2.8-2.36 0-1.41-.81-2.04-2.25-2.66l-.42-.18c-.73-.31-1.04-.52-1.04-1.02 0-.41.31-.73.81-.73.48 0 .8.21 1.09.73l1.31-.87c-.55-.96-1.33-1.33-2.4-1.33-1.51 0-2.48.96-2.48 2.23 0 1.38.81 2.03 2.03 2.55l.42.18c.78.34 1.24.55 1.24 1.13 0 .48-.45.83-1.15.83-.83 0-1.31-.43-1.67-1.03l-1.38.8M13 11.25H8v1.5h1.5V20h1.75v-7.25H13v-1.5Z" transform="matrix(1.5 0 0 1.5 216 144)" id="mdi-language-typescript" fill="#555"/><path d="M3 3h18v18H3V3m10.71 14.86c.5.98 1.51 1.73 3.09 1.73 1.6 0 2.8-.83 2.8-2.36 0-1.41-.81-2.04-2.25-2.66l-.42-.18c-.73-.31-1.04-.52-1.04-1.02 0-.41.31-.73.81-.73.48 0 .8.21 1.09.73l1.31-.87c-.55-.96-1.33-1.33-2.4-1.33-1.51 0-2.48.96-2.48 2.23 0 1.38.81 2.03 2.03 2.55l.42.18c.78.34 1.24.55 1.24 1.13 0 .48-.45.83-1.15.83-.83 0-1.31-.43-1.67-1.03l-1.38.8M13 11.25H8v1.5h1.5V20h1.75v-7.25H13v-1.5Z" transform="matrix(1.5 0 0 1.5 252 144)" id="mdi-language-typescript" fill="#fff"/><path d="m16.93 7.9 2.38 4.1-2.36 4.09-.62-1.09 1.47-2.5c.17-.31.17-.67 0-.96L16.32 9l.61-1.1m-.01-1.33a.12.12 0 0 0-.09.05l-1.27 2.25c-.06.07-.06.13 0 .22l1.62 2.81c.04.07.04.15 0 .22l-1.61 2.79c-.04.06-.04.15 0 .22l1.28 2.23c.02.04.06.06.09.06.06 0 .06-.02.1-.06L20 12.23c.08-.14.08-.31 0-.44l-3-5.17c0-.03-.04-.05-.08-.05m4.99 5.1-4.68-8.09a.676.676 0 0 0-.57-.33H7.28c-.23 0-.45.13-.57.33L2 11.67a.84.84 0 0 0 0 .66l4.71 8.09c.12.2.34.33.57.33h9.38c.23 0 .45-.13.57-.33l4.68-8.09a.65.65 0 0 0 0-.66M7.3 3.95h8.82l-4.36 7.7H6.93l3.94-6.83c.04-.07-.01-.16-.09-.16l-2.57-.01c-.08 0-.15.05-.21.11l-3.96 6.89h-1.2l4.46-7.7m-1.13 8.51 3.57 6.17H8.5l-3.63-6.28-.2-.35.2-.35L8.5 5.37h1.23l-3.56 6.16-.06.12c-.08.23-.08.48.01.7.01.04.03.08.05.11m1.13 7.59-4.45-7.7h1.2l3.98 6.88c.04.07.11.11.19.11h2.57c.08 0 .13-.09.09-.16l-3.94-6.83h4.83l4.4 7.7H7.3m9.5-.3L12.37 12l4.41-7.79L21.29 12l-4.49 7.75Z" transform="matrix(1.5 0 0 1.5 288 144)" id="mdi-language-xaml" fill="#555"/><path d="m16.93 7.9 2.38 4.1-2.36 4.09-.62-1.09 1.47-2.5c.17-.31.17-.67 0-.96L16.32 9l.61-1.1m-.01-1.33a.12.12 0 0 0-.09.05l-1.27 2.25c-.06.07-.06.13 0 .22l1.62 2.81c.04.07.04.15 0 .22l-1.61 2.79c-.04.06-.04.15 0 .22l1.28 2.23c.02.04.06.06.09.06.06 0 .06-.02.1-.06L20 12.23c.08-.14.08-.31 0-.44l-3-5.17c0-.03-.04-.05-.08-.05m4.99 5.1-4.68-8.09a.676.676 0 0 0-.57-.33H7.28c-.23 0-.45.13-.57.33L2 11.67a.84.84 0 0 0 0 .66l4.71 8.09c.12.2.34.33.57.33h9.38c.23 0 .45-.13.57-.33l4.68-8.09a.65.65 0 0 0 0-.66M7.3 3.95h8.82l-4.36 7.7H6.93l3.94-6.83c.04-.07-.01-.16-.09-.16l-2.57-.01c-.08 0-.15.05-.21.11l-3.96 6.89h-1.2l4.46-7.7m-1.13 8.51 3.57 6.17H8.5l-3.63-6.28-.2-.35.2-.35L8.5 5.37h1.23l-3.56 6.16-.06.12c-.08.23-.08.48.01.7.01.04.03.08.05.11m1.13 7.59-4.45-7.7h1.2l3.98 6.88c.04.07.11.11.19.11h2.57c.08 0 .13-.09.09-.16l-3.94-6.83h4.83l4.4 7.7H7.3m9.5-.3L12.37 12l4.41-7.79L21.29 12l-4.49 7.75Z" transform="matrix(1.5 0 0 1.5 324 144)" id="mdi-language-xaml" fill="#fff"/><path d="M4 6h16v10H4m16 2a2 2 0 0 0 2-2V6a2 2 0 0 0-2-2H4c-1.11 0-2 .89-2 2v10a2 2 0 0 0 2 2H0v2h24v-2h-4Z" transform="matrix(1.5 0 0 1.5 360 144)" id="mdi-laptop" fill="#555"/><path d="M4 6h16v10H4m16 2a2 2 0 0 0 2-2V6a2 2 0 0 0-2-2H4c-1.11 0-2 .89-2 2v10a2 2 0 0 0 2 2H0v2h24v-2h-4Z" transform="matrix(1.5 0 0 1.5 396 144)" id="mdi-laptop" fill="#fff"/><path d="M20 4a2 2 0 0 1 2 2v10c0 1.11-.89 2-2 2h4v2H0v-2h4a2 2 0 0 1-2-2V6c0-1.11.89-2 2-2h16m0 2H4v10h16V6m-8 6c2.21 0 4 .9 4 2v1H8v-1c0-1.1 1.79-2 4-2m0-5a2 2 0 1 1 0 4c-1.11 0-2-.89-2-2s.9-2 2-2Z" transform="matrix(1.5 0 0 1.5 432 144)" id="mdi-laptop-account" fill="#555"/><path d="M20 4a2 2 0 0 1 2 2v10c0 1.11-.89 2-2 2h4v2H0v-2h4a2 2 0 0 1-2-2V6c0-1.11.89-2 2-2h16m0 2H4v10h16V6m-8 6c2.21 0 4 .9 4 2v1H8v-1c0-1.1 1.79-2 4-2m0-5a2 2 0 1 1 0 4c-1.11 0-2-.89-2-2s.9-2 2-2Z" transform="matrix(1.5 0 0 1.5 468 144)" id="mdi-laptop-account" fill="#fff"/><path d="M1 4.27 2.28 3 20 20.72 18.73 22l-2-2H0v-2h4a2 2 0 0 1-2-2V6c0-.22.04-.43.1-.63L1 4.27M4 16h8.73L4 7.27V16m16 0V6H7.82l-2-2H20a2 2 0 0 1 2 2v10a2 2 0 0 1-2 2h4v2h-2.18l-4-4H20Z" transform="matrix(1.5 0 0 1.5 504 144)" id="mdi-laptop-off" fill="#555"/><path d="M1 4.27 2.28 3 20 20.72 18.73 22l-2-2H0v-2h4a2 2 0 0 1-2-2V6c0-.22.04-.43.1-.63L1 4.27M4 16h8.73L4 7.27V16m16 0V6H7.82l-2-2H20a2 2 0 0 1 2 2v10a2 2 0 0 1-2 2h4v2h-2.18l-4-4H20Z" transform="matrix(1.5 0 0 1.5 540 144)" id="mdi-laptop-off" fill="#fff"/><path d="M21.7 6.53c.01.02.01.05.01.08v4.29c0 .1-.06.22-.15.27l-3.61 2.08v4.11c0 .11-.05.21-.15.27l-7.52 4.33c-.02.01-.04.04-.06.04H10s0-.03-.04-.04l-7.52-4.33a.315.315 0 0 1-.15-.27V4.5c0-.05 0-.08.01-.1 0-.01.01-.02.01-.03 0-.02.01-.03.02-.05 0-.01.01-.02.02-.03l.03-.03.03-.03c.01-.01.02-.02.03-.02L6.2 2.04c.1-.04.22-.04.3 0l3.78 2.17c.01.01.02.01.03.02l.03.03.03.03c.01.01.02.02.02.03.01.02.02.03.02.05 0 .01.01.02.01.03.01.03.01.05.01.1v8l3.14-1.78V6.61c0-.03 0-.06.01-.08l.01-.03s.01-.03.02-.05c0-.01.01-.02.02-.03l.03-.03.03-.03c.01-.01.02-.02.03-.02l3.78-2.17c.08-.06.2-.06.3 0l3.76 2.17c.01 0 .02.01.03.02l.03.03.03.03c.01.01.01.02.02.03.01.02.01.05.02.05s.01 0 .01.03m-.61 4.19V7.15l-3.14 1.8v3.55l3.14-1.78m-3.76 6.46V13.6l-6.9 3.94v3.61l6.9-3.97M2.91 5v12.18l6.9 3.97v-3.61l-3.6-2.04H6.2c-.01 0-.02 0-.03-.03-.01 0-.02-.01-.03-.02l-.03-.03c-.01-.01-.01-.02-.02-.03-.01-.02-.01-.03-.02-.04 0-.02-.01-.03-.01-.04-.01-.01-.01-.03-.01-.04V6.82L2.91 5m3.45-2.32L3.23 4.5l3.13 1.78L9.5 4.5 6.36 2.68m3.45 10.2V5L6.67 6.82v7.87l3.14-1.81m7.83-8.08L14.5 6.61l3.14 1.8 3.13-1.8-3.13-1.81m-.31 4.15-3.14-1.8v3.57l3.14 1.78V8.95M10.12 17 17 13.06l-3.12-1.8L7 15.23 10.12 17Z" transform="matrix(1.5 0 0 1.5 576 144)" id="mdi-laravel" fill="#555"/><path d="M21.7 6.53c.01.02.01.05.01.08v4.29c0 .1-.06.22-.15.27l-3.61 2.08v4.11c0 .11-.05.21-.15.27l-7.52 4.33c-.02.01-.04.04-.06.04H10s0-.03-.04-.04l-7.52-4.33a.315.315 0 0 1-.15-.27V4.5c0-.05 0-.08.01-.1 0-.01.01-.02.01-.03 0-.02.01-.03.02-.05 0-.01.01-.02.02-.03l.03-.03.03-.03c.01-.01.02-.02.03-.02L6.2 2.04c.1-.04.22-.04.3 0l3.78 2.17c.01.01.02.01.03.02l.03.03.03.03c.01.01.02.02.02.03.01.02.02.03.02.05 0 .01.01.02.01.03.01.03.01.05.01.1v8l3.14-1.78V6.61c0-.03 0-.06.01-.08l.01-.03s.01-.03.02-.05c0-.01.01-.02.02-.03l.03-.03.03-.03c.01-.01.02-.02.03-.02l3.78-2.17c.08-.06.2-.06.3 0l3.76 2.17c.01 0 .02.01.03.02l.03.03.03.03c.01.01.01.02.02.03.01.02.01.05.02.05s.01 0 .01.03m-.61 4.19V7.15l-3.14 1.8v3.55l3.14-1.78m-3.76 6.46V13.6l-6.9 3.94v3.61l6.9-3.97M2.91 5v12.18l6.9 3.97v-3.61l-3.6-2.04H6.2c-.01 0-.02 0-.03-.03-.01 0-.02-.01-.03-.02l-.03-.03c-.01-.01-.01-.02-.02-.03-.01-.02-.01-.03-.02-.04 0-.02-.01-.03-.01-.04-.01-.01-.01-.03-.01-.04V6.82L2.91 5m3.45-2.32L3.23 4.5l3.13 1.78L9.5 4.5 6.36 2.68m3.45 10.2V5L6.67 6.82v7.87l3.14-1.81m7.83-8.08L14.5 6.61l3.14 1.8 3.13-1.8-3.13-1.81m-.31 4.15-3.14-1.8v3.57l3.14 1.78V8.95M10.12 17 17 13.06l-3.12-1.8L7 15.23 10.12 17Z" transform="matrix(1.5 0 0 1.5 612 144)" id="mdi-laravel" fill="#fff"/><path d="m9 13-4 3c-1 .88-1.14 2.12-1 3 .13 1 .91 2.22 2 2.68 1.57.67 3.09.22 4.04-.76L19 13c1.86-1.38 1-4-1-4h-6l7.46-4.39c.44-.32.62-.79.6-1.24C20 2.67 19.46 2 18.6 2h-.06c-.35 0-.68.11-.98.29L5 9c-.81.46-1.06 1.24-1 2 .05 1.03.74 2 2 2m-1 5.5a2.5 2.5 0 0 1 5 0 2.5 2.5 0 0 1-5 0Z" transform="matrix(1.5 0 0 1.5 648 144)" id="mdi-laser-pointer" fill="#555"/><path d="m9 13-4 3c-1 .88-1.14 2.12-1 3 .13 1 .91 2.22 2 2.68 1.57.67 3.09.22 4.04-.76L19 13c1.86-1.38 1-4-1-4h-6l7.46-4.39c.44-.32.62-.79.6-1.24C20 2.67 19.46 2 18.6 2h-.06c-.35 0-.68.11-.98.29L5 9c-.81.46-1.06 1.24-1 2 .05 1.03.74 2 2 2m-1 5.5a2.5 2.5 0 0 1 5 0 2.5 2.5 0 0 1-5 0Z" transform="matrix(1.5 0 0 1.5 684 144)" id="mdi-laser-pointer" fill="#fff"/><path d="M12 2c5.5 0 10 3.13 10 7 0 3.26-3.19 6-7.5 6.78v-.28a5 5 0 0 0-.29-1.69C17.55 13.21 20 11.28 20 9c0-2.76-3.58-5-8-5S4 6.24 4 9c0 1.19.67 2.29 1.79 3.15-.44.49-.79 1.06-1.01 1.7C3.06 12.59 2 10.88 2 9c0-3.87 4.5-7 10-7M9.5 12c1.93 0 3.5 1.57 3.5 3.5 0 1.9-1.5 3.45-3.4 3.5-.21.36-.42 1 .23 1.68 1.17 1.2 3.45-.96 6.56-.97 2.04-.01 3.64.26 3.64.26s1.05.13.94 1.07c-.11.93-1.06.93-1.06.93-.38-.04-1.88-.39-3.69-.29-1.81.09-2.75.73-3.66 1.01-.9.28-2.65.69-4.26-.64-1.33-1.09-.84-2.94-.63-3.55a3.55 3.55 0 0 1-1.67-3C6 13.57 7.57 12 9.5 12m0 2c-.83 0-1.5.67-1.5 1.5S8.67 17 9.5 17s1.5-.67 1.5-1.5-.67-1.5-1.5-1.5Z" transform="matrix(1.5 0 0 1.5 0 180)" id="mdi-lasso" fill="#555"/><path d="M12 2c5.5 0 10 3.13 10 7 0 3.26-3.19 6-7.5 6.78v-.28a5 5 0 0 0-.29-1.69C17.55 13.21 20 11.28 20 9c0-2.76-3.58-5-8-5S4 6.24 4 9c0 1.19.67 2.29 1.79 3.15-.44.49-.79 1.06-1.01 1.7C3.06 12.59 2 10.88 2 9c0-3.87 4.5-7 10-7M9.5 12c1.93 0 3.5 1.57 3.5 3.5 0 1.9-1.5 3.45-3.4 3.5-.21.36-.42 1 .23 1.68 1.17 1.2 3.45-.96 6.56-.97 2.04-.01 3.64.26 3.64.26s1.05.13.94 1.07c-.11.93-1.06.93-1.06.93-.38-.04-1.88-.39-3.69-.29-1.81.09-2.75.73-3.66 1.01-.9.28-2.65.69-4.26-.64-1.33-1.09-.84-2.94-.63-3.55a3.55 3.55 0 0 1-1.67-3C6 13.57 7.57 12 9.5 12m0 2c-.83 0-1.5.67-1.5 1.5S8.67 17 9.5 17s1.5-.67 1.5-1.5-.67-1.5-1.5-1.5Z" transform="matrix(1.5 0 0 1.5 36 180)" id="mdi-lasso" fill="#fff"/><path d="M14 12a2 2 0 0 1 2-2 2 2 0 0 1 2 2 2 2 0 0 1-2 2 2 2 0 0 1-2-2m-6 0a2 2 0 0 1 2-2 2 2 0 0 1 2 2 2 2 0 0 1-2 2 2 2 0 0 1-2-2m-6 0a2 2 0 0 1 2-2 2 2 0 0 1 2 2 2 2 0 0 1-2 2 2 2 0 0 1-2-2m20-7h-2v14h2V5Z" transform="matrix(1.5 0 0 1.5 72 180)" id="mdi-lastpass" fill="#555"/><path d="M14 12a2 2 0 0 1 2-2 2 2 0 0 1 2 2 2 2 0 0 1-2 2 2 2 0 0 1-2-2m-6 0a2 2 0 0 1 2-2 2 2 0 0 1 2 2 2 2 0 0 1-2 2 2 2 0 0 1-2-2m-6 0a2 2 0 0 1 2-2 2 2 0 0 1 2 2 2 2 0 0 1-2 2 2 2 0 0 1-2-2m20-7h-2v14h2V5Z" transform="matrix(1.5 0 0 1.5 108 180)" id="mdi-lastpass" fill="#fff"/><path d="M12 2C6.5 2 2 6.5 2 12s4.5 10 10 10 10-4.5 10-10S17.5 2 12 2m0 2c3 0 5.5 1.6 6.9 4H5.1C6.5 5.6 9 4 12 4m0 16c-3 0-5.5-1.6-6.9-4h13.8c-1.4 2.4-3.9 4-6.9 4m-7.7-6c-.2-.6-.3-1.3-.3-2s.1-1.4.3-2h15.5c.2.6.3 1.3.3 2s-.1 1.4-.3 2H4.3Z" transform="matrix(1.5 0 0 1.5 144 180)" id="mdi-latitude" fill="#555"/><path d="M12 2C6.5 2 2 6.5 2 12s4.5 10 10 10 10-4.5 10-10S17.5 2 12 2m0 2c3 0 5.5 1.6 6.9 4H5.1C6.5 5.6 9 4 12 4m0 16c-3 0-5.5-1.6-6.9-4h13.8c-1.4 2.4-3.9 4-6.9 4m-7.7-6c-.2-.6-.3-1.3-.3-2s.1-1.4.3-2h15.5c.2.6.3 1.3.3 2s-.1 1.4-.3 2H4.3Z" transform="matrix(1.5 0 0 1.5 180 180)" id="mdi-latitude" fill="#fff"/><path d="M14 3v2h3.59l-9.83 9.83 1.41 1.41L19 6.41V10h2V3m-2 16H5V5h7V3H5c-1.11 0-2 .89-2 2v14a2 2 0 0 0 2 2h14a2 2 0 0 0 2-2v-7h-2v7Z" transform="matrix(1.5 0 0 1.5 216 180)" id="mdi-launch" fill="#555"/><path d="M14 3v2h3.59l-9.83 9.83 1.41 1.41L19 6.41V10h2V3m-2 16H5V5h7V3H5c-1.11 0-2 .89-2 2v14a2 2 0 0 0 2 2h14a2 2 0 0 0 2-2v-7h-2v7Z" transform="matrix(1.5 0 0 1.5 252 180)" id="mdi-launch" fill="#fff"/><path d="M10 3 8 16h8L14 3h-4m1.5 2.75a.75.75 0 0 1 .75.75.75.75 0 0 1-.75.75.75.75 0 0 1-.75-.75.75.75 0 0 1 .75-.75m1 2.75a1 1 0 0 1 1 1 1 1 0 0 1-1 1 1 1 0 0 1-1-1 1 1 0 0 1 1-1m-1 3.5a1.5 1.5 0 0 1 1.5 1.5 1.5 1.5 0 0 1-1.5 1.5 1.5 1.5 0 0 1-1.5-1.5 1.5 1.5 0 0 1 1.5-1.5M8 17l2 2-2 2h8l-2-2 2-2H8Z" transform="matrix(1.5 0 0 1.5 288 180)" id="mdi-lava-lamp" fill="#555"/><path d="M10 3 8 16h8L14 3h-4m1.5 2.75a.75.75 0 0 1 .75.75.75.75 0 0 1-.75.75.75.75 0 0 1-.75-.75.75.75 0 0 1 .75-.75m1 2.75a1 1 0 0 1 1 1 1 1 0 0 1-1 1 1 1 0 0 1-1-1 1 1 0 0 1 1-1m-1 3.5a1.5 1.5 0 0 1 1.5 1.5 1.5 1.5 0 0 1-1.5 1.5 1.5 1.5 0 0 1-1.5-1.5 1.5 1.5 0 0 1 1.5-1.5M8 17l2 2-2 2h8l-2-2 2-2H8Z" transform="matrix(1.5 0 0 1.5 324 180)" id="mdi-lava-lamp" fill="#fff"/><path d="m12 16 7.36-5.73L21 9l-9-7-9 7 1.63 1.27M12 18.54l-7.38-5.73L3 14.07l9 7 9-7-1.63-1.27L12 18.54Z" transform="matrix(1.5 0 0 1.5 360 180)" id="mdi-layers" fill="#555"/><path d="m12 16 7.36-5.73L21 9l-9-7-9 7 1.63 1.27M12 18.54l-7.38-5.73L3 14.07l9 7 9-7-1.63-1.27L12 18.54Z" transform="matrix(1.5 0 0 1.5 396 180)" id="mdi-layers" fill="#fff"/><path d="M4.63 10.27 3 9l9-7 7.94 6.17-7.44 7.44-.5.39-7.37-5.73M10 18.94v-.83l.59-.58.04-.03-6.01-4.69L3 14.07l7 5.43v-.56m11.7-6.36-1.28-1.28a.55.55 0 0 0-.77 0l-1 1 2.05 2.05 1-1a.55.55 0 0 0 0-.77M12 21h2.06l6.05-6.07-2.05-2.05L12 18.94V21Z" transform="matrix(1.5 0 0 1.5 432 180)" id="mdi-layers-edit" fill="#555"/><path d="M4.63 10.27 3 9l9-7 7.94 6.17-7.44 7.44-.5.39-7.37-5.73M10 18.94v-.83l.59-.58.04-.03-6.01-4.69L3 14.07l7 5.43v-.56m11.7-6.36-1.28-1.28a.55.55 0 0 0-.77 0l-1 1 2.05 2.05 1-1a.55.55 0 0 0 0-.77M12 21h2.06l6.05-6.07-2.05-2.05L12 18.94V21Z" transform="matrix(1.5 0 0 1.5 468 180)" id="mdi-layers-edit" fill="#fff"/><path d="M22 17v2h-8v-2h8m-11-1L2 9l9-7 9 7-9 7m0 2.54 1-.79V18c0 .71.12 1.39.35 2L11 21.07l-9-7 1.62-1.26L11 18.54Z" transform="matrix(1.5 0 0 1.5 504 180)" id="mdi-layers-minus" fill="#555"/><path d="M22 17v2h-8v-2h8m-11-1L2 9l9-7 9 7-9 7m0 2.54 1-.79V18c0 .71.12 1.39.35 2L11 21.07l-9-7 1.62-1.26L11 18.54Z" transform="matrix(1.5 0 0 1.5 540 180)" id="mdi-layers-minus" fill="#fff"/><path d="M3.27 1 2 2.27 6.22 6.5 3 9l1.63 1.27L12 16l2.1-1.63 1.43 1.43L12 18.54l-7.37-5.73L3 14.07l9 7 4.95-3.85L20.73 21 22 19.73 3.27 1m16.09 9.27L21 9l-9-7-2.91 2.27 7.87 7.88 2.4-1.88m.45 4.73 1.19-.93-1.43-1.43-1.19.92L19.81 15Z" transform="matrix(1.5 0 0 1.5 576 180)" id="mdi-layers-off" fill="#555"/><path d="M3.27 1 2 2.27 6.22 6.5 3 9l1.63 1.27L12 16l2.1-1.63 1.43 1.43L12 18.54l-7.37-5.73L3 14.07l9 7 4.95-3.85L20.73 21 22 19.73 3.27 1m16.09 9.27L21 9l-9-7-2.91 2.27 7.87 7.88 2.4-1.88m.45 4.73 1.19-.93-1.43-1.43-1.19.92L19.81 15Z" transform="matrix(1.5 0 0 1.5 612 180)" id="mdi-layers-off" fill="#fff"/><path d="m12 4.53-1.17.91L9.41 4 12 2l9 7-3.72 2.89-1.43-1.42L17.74 9 12 4.53m9 9.54-.87.68-1.43-1.43.67-.52L21 14.07M3.41.86l18.73 18.73L20.73 21l-3.78-3.78L12 21.07l-9-7 1.62-1.26L12 18.54l3.5-2.75-1.4-1.42L12 16 3 9l3.22-2.5L2 2.27 3.41.86M12 13.47l.67-.53-5.02-5.02L6.26 9 12 13.47Z" transform="matrix(1.5 0 0 1.5 648 180)" id="mdi-layers-off-outline" fill="#555"/><path d="m12 4.53-1.17.91L9.41 4 12 2l9 7-3.72 2.89-1.43-1.42L17.74 9 12 4.53m9 9.54-.87.68-1.43-1.43.67-.52L21 14.07M3.41.86l18.73 18.73L20.73 21l-3.78-3.78L12 21.07l-9-7 1.62-1.26L12 18.54l3.5-2.75-1.4-1.42L12 16 3 9l3.22-2.5L2 2.27 3.41.86M12 13.47l.67-.53-5.02-5.02L6.26 9 12 13.47Z" transform="matrix(1.5 0 0 1.5 684 180)" id="mdi-layers-off-outline" fill="#fff"/><path d="m12 18.54 7.37-5.74L21 14.07l-9 7-9-7 1.62-1.26L12 18.54M12 16 3 9l9-7 9 7-9 7m0-11.47L6.26 9 12 13.47 17.74 9 12 4.53Z" transform="matrix(1.5 0 0 1.5 0 216)" id="mdi-layers-outline" fill="#555"/><path d="m12 18.54 7.37-5.74L21 14.07l-9 7-9-7 1.62-1.26L12 18.54M12 16 3 9l9-7 9 7-9 7m0-11.47L6.26 9 12 13.47 17.74 9 12 4.53Z" transform="matrix(1.5 0 0 1.5 36 216)" id="mdi-layers-outline" fill="#fff"/><path d="M17 14h2v3h3v2h-3v3h-2v-3h-3v-2h3v-3m-6 2L2 9l9-7 9 7-9 7m0 2.54 1-.79V18c0 .71.12 1.39.35 2L11 21.07l-9-7 1.62-1.26L11 18.54Z" transform="matrix(1.5 0 0 1.5 72 216)" id="mdi-layers-plus" fill="#555"/><path d="M17 14h2v3h3v2h-3v3h-2v-3h-3v-2h3v-3m-6 2L2 9l9-7 9 7-9 7m0 2.54 1-.79V18c0 .71.12 1.39.35 2L11 21.07l-9-7 1.62-1.26L11 18.54Z" transform="matrix(1.5 0 0 1.5 108 216)" id="mdi-layers-plus" fill="#fff"/><path d="m14.46 15.88 1.42-1.42L18 16.59l2.12-2.13 1.42 1.42L19.41 18l2.13 2.12-1.42 1.42L18 19.41l-2.12 2.13-1.42-1.42L16.59 18l-2.13-2.12M11 16 2 9l9-7 9 7-9 7m0 2.54 1-.79V18c0 .71.12 1.39.35 2L11 21.07l-9-7 1.62-1.26L11 18.54Z" transform="matrix(1.5 0 0 1.5 144 216)" id="mdi-layers-remove" fill="#555"/><path d="m14.46 15.88 1.42-1.42L18 16.59l2.12-2.13 1.42 1.42L19.41 18l2.13 2.12-1.42 1.42L18 19.41l-2.12 2.13-1.42-1.42L16.59 18l-2.13-2.12M11 16 2 9l9-7 9 7-9 7m0 2.54 1-.79V18c0 .71.12 1.39.35 2L11 21.07l-9-7 1.62-1.26L11 18.54Z" transform="matrix(1.5 0 0 1.5 180 216)" id="mdi-layers-remove" fill="#fff"/><path d="M19.31 18.9c.44-.69.69-1.52.69-2.4 0-2.5-2-4.5-4.5-4.5S11 14 11 16.5s2 4.5 4.5 4.5c.87 0 1.69-.25 2.38-.68L21 23.39 22.39 22l-3.08-3.1m-3.81.1a2.5 2.5 0 0 1 0-5 2.5 2.5 0 0 1 0 5m-5.91.2L3 14.07l1.62-1.26L9 16.22v.28c0 .96.22 1.88.59 2.7m-4.96-8.93L3 9l9-7 9 7-1.64 1.27-.71.55c-.93-.52-2.01-.82-3.15-.82-2.71 0-5.04 1.68-6 4.05l-4.87-3.78Z" transform="matrix(1.5 0 0 1.5 216 216)" id="mdi-layers-search" fill="#555"/><path d="M19.31 18.9c.44-.69.69-1.52.69-2.4 0-2.5-2-4.5-4.5-4.5S11 14 11 16.5s2 4.5 4.5 4.5c.87 0 1.69-.25 2.38-.68L21 23.39 22.39 22l-3.08-3.1m-3.81.1a2.5 2.5 0 0 1 0-5 2.5 2.5 0 0 1 0 5m-5.91.2L3 14.07l1.62-1.26L9 16.22v.28c0 .96.22 1.88.59 2.7m-4.96-8.93L3 9l9-7 9 7-1.64 1.27-.71.55c-.93-.52-2.01-.82-3.15-.82-2.71 0-5.04 1.68-6 4.05l-4.87-3.78Z" transform="matrix(1.5 0 0 1.5 252 216)" id="mdi-layers-search" fill="#fff"/><path d="M19.31 18.9c.44-.69.69-1.52.69-2.4 0-2.5-2-4.5-4.5-4.5S11 14 11 16.5s2 4.5 4.5 4.5c.87 0 1.69-.25 2.38-.68L21 23.39 22.39 22l-3.08-3.1m-3.81.1a2.5 2.5 0 0 1 0-5 2.5 2.5 0 0 1 0 5m-5.91.2L3 14.07l1.62-1.26L9 16.22v.28c0 .96.22 1.88.59 2.7m-.09-5.16L3 9l9-7 9 7-2.34 1.82a6.64 6.64 0 0 0-2.29-.75L17.74 9 12 4.53 6.26 9l4.27 3.32c-.43.52-.79 1.1-1.03 1.72Z" transform="matrix(1.5 0 0 1.5 288 216)" id="mdi-layers-search-outline" fill="#555"/><path d="M19.31 18.9c.44-.69.69-1.52.69-2.4 0-2.5-2-4.5-4.5-4.5S11 14 11 16.5s2 4.5 4.5 4.5c.87 0 1.69-.25 2.38-.68L21 23.39 22.39 22l-3.08-3.1m-3.81.1a2.5 2.5 0 0 1 0-5 2.5 2.5 0 0 1 0 5m-5.91.2L3 14.07l1.62-1.26L9 16.22v.28c0 .96.22 1.88.59 2.7m-.09-5.16L3 9l9-7 9 7-2.34 1.82a6.64 6.64 0 0 0-2.29-.75L17.74 9 12 4.53 6.26 9l4.27 3.32c-.43.52-.79 1.1-1.03 1.72Z" transform="matrix(1.5 0 0 1.5 324 216)" id="mdi-layers-search-outline" fill="#fff"/><path d="M12 0 3 7l1.63 1.27L12 14l7.36-5.73L21 7l-9-7m7.37 10.73L12 16.47l-7.38-5.73L3 12l9 7 9-7-1.63-1.27m0 5L12 21.47l-7.38-5.73L3 17l9 7 9-7-1.63-1.27Z" transform="matrix(1.5 0 0 1.5 360 216)" id="mdi-layers-triple" fill="#555"/><path d="M12 0 3 7l1.63 1.27L12 14l7.36-5.73L21 7l-9-7m7.37 10.73L12 16.47l-7.38-5.73L3 12l9 7 9-7-1.63-1.27m0 5L12 21.47l-7.38-5.73L3 17l9 7 9-7-1.63-1.27Z" transform="matrix(1.5 0 0 1.5 396 216)" id="mdi-layers-triple" fill="#fff"/><path d="m12 16.54 7.37-5.74L21 12.07l-9 7-9-7 1.62-1.26L12 16.54M12 14 3 7l9-7 9 7-9 7m0-11.47L6.26 7 12 11.47 17.74 7 12 2.53m0 18.94 7.37-5.74L21 17l-9 7-9-7 1.62-1.26L12 21.47" transform="matrix(1.5 0 0 1.5 432 216)" id="mdi-layers-triple-outline" fill="#555"/><path d="m12 16.54 7.37-5.74L21 12.07l-9 7-9-7 1.62-1.26L12 16.54M12 14 3 7l9-7 9 7-9 7m0-11.47L6.26 7 12 11.47 17.74 7 12 2.53m0 18.94 7.37-5.74L21 17l-9 7-9-7 1.62-1.26L12 21.47" transform="matrix(1.5 0 0 1.5 468 216)" id="mdi-layers-triple-outline" fill="#fff"/><path d="M16.84 2.73c-.39 0-.77.15-1.07.44l-2.12 2.12 5.3 5.31 2.12-2.1c.6-.61.6-1.56 0-2.14L17.9 3.17c-.3-.29-.68-.44-1.06-.44M12.94 6l-8.1 8.11 2.56.28.18 2.29 2.28.17.29 2.56 8.1-8.11m-14 3.74L2.5 21.73l6.7-1.79-.24-2.16-2.31-.17-.18-2.32" transform="matrix(1.5 0 0 1.5 504 216)" id="mdi-lead-pencil" fill="#555"/><path d="M16.84 2.73c-.39 0-.77.15-1.07.44l-2.12 2.12 5.3 5.31 2.12-2.1c.6-.61.6-1.56 0-2.14L17.9 3.17c-.3-.29-.68-.44-1.06-.44M12.94 6l-8.1 8.11 2.56.28.18 2.29 2.28.17.29 2.56 8.1-8.11m-14 3.74L2.5 21.73l6.7-1.79-.24-2.16-2.31-.17-.18-2.32" transform="matrix(1.5 0 0 1.5 540 216)" id="mdi-lead-pencil" fill="#fff"/><path d="M17 8C8 10 5.9 16.17 3.82 21.34l1.89.66.95-2.3c.48.17.98.3 1.34.3C19 20 22 3 22 3c-1 2-8 2.25-13 3.25S2 11.5 2 13.5s1.75 3.75 1.75 3.75C7 8 17 8 17 8Z" transform="matrix(1.5 0 0 1.5 576 216)" id="mdi-leaf" fill="#555"/><path d="M17 8C8 10 5.9 16.17 3.82 21.34l1.89.66.95-2.3c.48.17.98.3 1.34.3C19 20 22 3 22 3c-1 2-8 2.25-13 3.25S2 11.5 2 13.5s1.75 3.75 1.75 3.75C7 8 17 8 17 8Z" transform="matrix(1.5 0 0 1.5 612 216)" id="mdi-leaf" fill="#fff"/><path d="M12 2C6.5 2 2 6.5 2 12s4.5 10 10 10 10-4.5 10-10S17.5 2 12 2M9.6 17.2c-.22 0-.52-.08-.8-.2l-.57 1.4-1.14-.4.16-.39C8.45 14.59 9.83 11.15 15 10c0 0-6 0-7.95 5.55 0 0-1.05-1.05-1.05-2.25s1.2-3.75 4.2-4.35c.85-.17 1.8-.3 2.74-.45C15.3 8.18 17.57 7.86 18 7c0 0-1.8 10.2-8.4 10.2Z" transform="matrix(1.5 0 0 1.5 648 216)" id="mdi-leaf-circle" fill="#555"/><path d="M12 2C6.5 2 2 6.5 2 12s4.5 10 10 10 10-4.5 10-10S17.5 2 12 2M9.6 17.2c-.22 0-.52-.08-.8-.2l-.57 1.4-1.14-.4.16-.39C8.45 14.59 9.83 11.15 15 10c0 0-6 0-7.95 5.55 0 0-1.05-1.05-1.05-2.25s1.2-3.75 4.2-4.35c.85-.17 1.8-.3 2.74-.45C15.3 8.18 17.57 7.86 18 7c0 0-1.8 10.2-8.4 10.2Z" transform="matrix(1.5 0 0 1.5 684 216)" id="mdi-leaf-circle" fill="#fff"/><path d="M8.04 16.34c1.01-2.51 2.15-5.38 6.46-6.34 0 0-5 0-6.62 4.63 0 0-.88-.88-.88-1.88s1-3.12 3.5-3.62c.71-.13 1.5-.26 2.28-.37 1.97-.26 3.86-.54 4.22-1.26 0 0-1.5 8.5-7 8.5-.18 0-.43-.06-.67-.15L8.86 17l-.95-.33.13-.33M12 4c4.41 0 8 3.59 8 8s-3.59 8-8 8-8-3.59-8-8 3.59-8 8-8m0-2C6.5 2 2 6.5 2 12s4.5 10 10 10 10-4.5 10-10S17.5 2 12 2Z" transform="matrix(1.5 0 0 1.5 0 252)" id="mdi-leaf-circle-outline" fill="#555"/><path d="M8.04 16.34c1.01-2.51 2.15-5.38 6.46-6.34 0 0-5 0-6.62 4.63 0 0-.88-.88-.88-1.88s1-3.12 3.5-3.62c.71-.13 1.5-.26 2.28-.37 1.97-.26 3.86-.54 4.22-1.26 0 0-1.5 8.5-7 8.5-.18 0-.43-.06-.67-.15L8.86 17l-.95-.33.13-.33M12 4c4.41 0 8 3.59 8 8s-3.59 8-8 8-8-3.59-8-8 3.59-8 8-8m0-2C6.5 2 2 6.5 2 12s4.5 10 10 10 10-4.5 10-10S17.5 2 12 2Z" transform="matrix(1.5 0 0 1.5 36 252)" id="mdi-leaf-circle-outline" fill="#fff"/><path d="M21.79 13 16 16l1 2-4-.75V21h-2v-3.75L7 18l1-2-5.79-3 1-1.73L1.61 8l3.6-.23 1-1.77 3.42 3.9L8 5h2l2-3 2 3h2l-1.63 4.9L17.79 6l1 1.73 3.6.23-1.6 3.23 1 1.81Z" transform="matrix(1.5 0 0 1.5 72 252)" id="mdi-leaf-maple" fill="#555"/><path d="M21.79 13 16 16l1 2-4-.75V21h-2v-3.75L7 18l1-2-5.79-3 1-1.73L1.61 8l3.6-.23 1-1.77 3.42 3.9L8 5h2l2-3 2 3h2l-1.63 4.9L17.79 6l1 1.73 3.6.23-1.6 3.23 1 1.81Z" transform="matrix(1.5 0 0 1.5 108 252)" id="mdi-leaf-maple" fill="#fff"/><path d="M18.11 14.91 8.2 5H10l2-3 2 3h2l-1.63 4.9L17.79 6l1 1.73 3.6.23-1.6 3.23 1 1.81-3.68 1.91M2.39 1.73 1.11 3l4.34 4.34-.24.43-3.6.23 1.6 3.27-1 1.73L8 16l-1 2 4-.75V21h2v-3.75l2.91.55 4.93 4.93 1.27-1.27L2.39 1.73Z" transform="matrix(1.5 0 0 1.5 144 252)" id="mdi-leaf-maple-off" fill="#555"/><path d="M18.11 14.91 8.2 5H10l2-3 2 3h2l-1.63 4.9L17.79 6l1 1.73 3.6.23-1.6 3.23 1 1.81-3.68 1.91M2.39 1.73 1.11 3l4.34 4.34-.24.43-3.6.23 1.6 3.27-1 1.73L8 16l-1 2 4-.75V21h2v-3.75l2.91.55 4.93 4.93 1.27-1.27L2.39 1.73Z" transform="matrix(1.5 0 0 1.5 180 252)" id="mdi-leaf-maple-off" fill="#fff"/><path d="m20.84 22.73-5.7-5.7C13.26 18.79 10.92 20 8 20c-.36 0-.86-.13-1.34-.3L5.71 22l-1.89-.66c1.33-3.31 2.68-7.02 5.84-9.79l-.89-.89c-2.01 1.37-3.91 3.44-5.02 6.59 0 0-1.75-1.75-1.75-3.75C2 12 3.12 9.32 5.72 7.61L1.11 3l1.28-1.27 14 14.01 5.72 5.72-1.27 1.27M17 8c-1.65.37-3.07.88-4.3 1.5l4.8 4.79C20.87 9.35 22 3 22 3c-.97 1.95-7.65 2.24-12.62 3.18l2.77 2.77C14.81 8 17 8 17 8Z" transform="matrix(1.5 0 0 1.5 216 252)" id="mdi-leaf-off" fill="#555"/><path d="m20.84 22.73-5.7-5.7C13.26 18.79 10.92 20 8 20c-.36 0-.86-.13-1.34-.3L5.71 22l-1.89-.66c1.33-3.31 2.68-7.02 5.84-9.79l-.89-.89c-2.01 1.37-3.91 3.44-5.02 6.59 0 0-1.75-1.75-1.75-3.75C2 12 3.12 9.32 5.72 7.61L1.11 3l1.28-1.27 14 14.01 5.72 5.72-1.27 1.27M17 8c-1.65.37-3.07.88-4.3 1.5l4.8 4.79C20.87 9.35 22 3 22 3c-.97 1.95-7.65 2.24-12.62 3.18l2.77 2.77C14.81 8 17 8 17 8Z" transform="matrix(1.5 0 0 1.5 252 252)" id="mdi-leaf-off" fill="#fff"/><path d="M6 3H3v3a3 3 0 0 0 3-3m8 0h-2a9 9 0 0 1-9 9v2c6.08 0 11-4.93 11-11m-4 0H8a5 5 0 0 1-5 5v2a7 7 0 0 0 7-7m0 18h2a9 9 0 0 1 9-9v-2a11 11 0 0 0-11 11m8 0h3v-3a3 3 0 0 0-3 3m-4 0h2a5 5 0 0 1 5-5v-2a7 7 0 0 0-7 7Z" transform="matrix(1.5 0 0 1.5 288 252)" id="mdi-leak" fill="#555"/><path d="M6 3H3v3a3 3 0 0 0 3-3m8 0h-2a9 9 0 0 1-9 9v2c6.08 0 11-4.93 11-11m-4 0H8a5 5 0 0 1-5 5v2a7 7 0 0 0 7-7m0 18h2a9 9 0 0 1 9-9v-2a11 11 0 0 0-11 11m8 0h3v-3a3 3 0 0 0-3 3m-4 0h2a5 5 0 0 1 5-5v-2a7 7 0 0 0-7 7Z" transform="matrix(1.5 0 0 1.5 324 252)" id="mdi-leak" fill="#fff"/><path d="M10 3H8c0 .37-.04.72-.12 1.06l1.59 1.59C9.81 4.84 10 3.94 10 3M3 4.27l2.84 2.84C5.03 7.67 4.06 8 3 8v2c1.61 0 3.09-.55 4.27-1.46L8.7 9.97A8.99 8.99 0 0 1 3 12v2c2.71 0 5.19-1 7.11-2.62l2.5 2.5C11 15.81 10 18.29 10 21h2c0-2.16.76-4.14 2.03-5.69l1.43 1.43A6.922 6.922 0 0 0 14 21h2c0-1.06.33-2.03.89-2.84L19.73 21 21 19.73 4.27 3 3 4.27M14 3h-2c0 1.5-.37 2.91-1 4.16l1.44 1.46C13.42 7 14 5.06 14 3m5.94 13.12c.34-.08.69-.12 1.06-.12v-2c-.94 0-1.84.19-2.66.5l1.6 1.62m-4.56-4.56L16.84 13c1.25-.63 2.66-1 4.16-1v-2c-2.06 0-4 .58-5.62 1.56Z" transform="matrix(1.5 0 0 1.5 360 252)" id="mdi-leak-off" fill="#555"/><path d="M10 3H8c0 .37-.04.72-.12 1.06l1.59 1.59C9.81 4.84 10 3.94 10 3M3 4.27l2.84 2.84C5.03 7.67 4.06 8 3 8v2c1.61 0 3.09-.55 4.27-1.46L8.7 9.97A8.99 8.99 0 0 1 3 12v2c2.71 0 5.19-1 7.11-2.62l2.5 2.5C11 15.81 10 18.29 10 21h2c0-2.16.76-4.14 2.03-5.69l1.43 1.43A6.922 6.922 0 0 0 14 21h2c0-1.06.33-2.03.89-2.84L19.73 21 21 19.73 4.27 3 3 4.27M14 3h-2c0 1.5-.37 2.91-1 4.16l1.44 1.46C13.42 7 14 5.06 14 3m5.94 13.12c.34-.08.69-.12 1.06-.12v-2c-.94 0-1.84.19-2.66.5l1.6 1.62m-4.56-4.56L16.84 13c1.25-.63 2.66-1 4.16-1v-2c-2.06 0-4 .58-5.62 1.56Z" transform="matrix(1.5 0 0 1.5 396 252)" id="mdi-leak-off" fill="#fff"/><path d="M17 21v1H7v-1h2V11h6v10h2m.5-15c0-1.61-1.09-2.95-2.57-3.36-.15-.37-.5-.64-.93-.64-.55 0-1 .45-1 1s.45 1 1 1c.31 0 .58-.15.76-.37 1.01.32 1.74 1.26 1.74 2.37H4l1 4h14l1-4h-2.5Z" transform="matrix(1.5 0 0 1.5 432 252)" id="mdi-lecturn" fill="#555"/><path d="M17 21v1H7v-1h2V11h6v10h2m.5-15c0-1.61-1.09-2.95-2.57-3.36-.15-.37-.5-.64-.93-.64-.55 0-1 .45-1 1s.45 1 1 1c.31 0 .58-.15.76-.37 1.01.32 1.74 1.26 1.74 2.37H4l1 4h14l1-4h-2.5Z" transform="matrix(1.5 0 0 1.5 468 252)" id="mdi-lecturn" fill="#fff"/><path d="M12 6a4 4 0 0 0-4 4v6H6v2h3v5h2v-5h2v5h2v-5h3v-2h-2v-6a4 4 0 0 0-4-4Z" transform="matrix(1.5 0 0 1.5 504 252)" id="mdi-led-off" fill="#555"/><path d="M12 6a4 4 0 0 0-4 4v6H6v2h3v5h2v-5h2v5h2v-5h3v-2h-2v-6a4 4 0 0 0-4-4Z" transform="matrix(1.5 0 0 1.5 540 252)" id="mdi-led-off" fill="#fff"/><path d="M11 0v4h2V0h-2m7.3 2.29-3.06 3 1.4 1.42 3.06-3-1.4-1.42m-12.59 0L4.29 3.71l3 3 1.42-1.42-3-3M12 6a4 4 0 0 0-4 4v6H6v2h3v5h2v-5h2v5h2v-5h3v-2h-2v-6a4 4 0 0 0-4-4M2 9v2h4V9H2m16 0v2h4V9h-4Z" transform="matrix(1.5 0 0 1.5 576 252)" id="mdi-led-on" fill="#555"/><path d="M11 0v4h2V0h-2m7.3 2.29-3.06 3 1.4 1.42 3.06-3-1.4-1.42m-12.59 0L4.29 3.71l3 3 1.42-1.42-3-3M12 6a4 4 0 0 0-4 4v6H6v2h3v5h2v-5h2v5h2v-5h3v-2h-2v-6a4 4 0 0 0-4-4M2 9v2h4V9H2m16 0v2h4V9h-4Z" transform="matrix(1.5 0 0 1.5 612 252)" id="mdi-led-on" fill="#fff"/><path d="M12 6a4 4 0 0 0-4 4v6H6v2h3v5h2v-5h2v5h2v-5h3v-2h-2v-6a4 4 0 0 0-4-4m0 2a2 2 0 0 1 2 2v5h-4v-5a2 2 0 0 1 2-2Z" transform="matrix(1.5 0 0 1.5 648 252)" id="mdi-led-outline" fill="#555"/><path d="M12 6a4 4 0 0 0-4 4v6H6v2h3v5h2v-5h2v5h2v-5h3v-2h-2v-6a4 4 0 0 0-4-4m0 2a2 2 0 0 1 2 2v5h-4v-5a2 2 0 0 1 2-2Z" transform="matrix(1.5 0 0 1.5 684 252)" id="mdi-led-outline" fill="#fff"/><path d="M2.81 8.46 14.83 20.5l.71-.72 1.41 1.41 1.41-1.41-1.41-1.42 1.41-1.41 1.42 1.41 1.41-1.41-1.41-1.41.72-.71L8.46 2.81 2.81 8.46m2.83 0 2.82-2.82 9.2 9.19-2.83 2.83-9.19-9.2m1.41 0 1.41 1.42 1.42-1.42-1.42-1.41-1.41 1.41m2.12 2.13L10.59 12 12 10.59l-1.41-1.42-1.42 1.42m2.12 2.12 1.42 1.41 1.41-1.41-1.41-1.42-1.42 1.42m2.12 2.12 1.42 1.41 1.41-1.41-1.41-1.42-1.42 1.42Z" transform="matrix(1.5 0 0 1.5 0 288)" id="mdi-led-strip" fill="#555"/><path d="M2.81 8.46 14.83 20.5l.71-.72 1.41 1.41 1.41-1.41-1.41-1.42 1.41-1.41 1.42 1.41 1.41-1.41-1.41-1.41.72-.71L8.46 2.81 2.81 8.46m2.83 0 2.82-2.82 9.2 9.19-2.83 2.83-9.19-9.2m1.41 0 1.41 1.42 1.42-1.42-1.42-1.41-1.41 1.41m2.12 2.13L10.59 12 12 10.59l-1.41-1.42-1.42 1.42m2.12 2.12 1.42 1.41 1.41-1.41-1.41-1.42-1.42 1.42m2.12 2.12 1.42 1.41 1.41-1.41-1.41-1.42-1.42 1.42Z" transform="matrix(1.5 0 0 1.5 36 288)" id="mdi-led-strip" fill="#fff"/><path d="M2.95 3 2 6.91l17.34 4.34.95-3.91L2.95 3m3.14 3.89-1.93-.48.48-1.95 1.93.48-.48 1.95m3.85.97L8 7.38l.5-1.96 1.92.49-.48 1.95m3.86.96-1.93-.48.48-1.95 1.92.48-.47 1.95m3.85.97-1.93-.48.48-1.96 1.93.49-.48 1.95M4.66 12.75l-.95 3.91L21.05 21l.95-3.9-17.34-4.35m3.14 3.9-1.92-.49.47-1.95 1.93.48-.48 1.96m3.85.96-1.92-.48.47-1.95 1.93.48-.48 1.95m3.85.97-1.92-.49.48-1.95 1.94.48-.5 1.96m3.86.96-1.93-.48.48-1.95 1.93.48-.48 1.95M6.25 12.11 11 10.2l6.75 1.69L13 13.8l-6.75-1.69Z" transform="matrix(1.5 0 0 1.5 72 288)" id="mdi-led-strip-variant" fill="#555"/><path d="M2.95 3 2 6.91l17.34 4.34.95-3.91L2.95 3m3.14 3.89-1.93-.48.48-1.95 1.93.48-.48 1.95m3.85.97L8 7.38l.5-1.96 1.92.49-.48 1.95m3.86.96-1.93-.48.48-1.95 1.92.48-.47 1.95m3.85.97-1.93-.48.48-1.96 1.93.49-.48 1.95M4.66 12.75l-.95 3.91L21.05 21l.95-3.9-17.34-4.35m3.14 3.9-1.92-.49.47-1.95 1.93.48-.48 1.96m3.85.96-1.92-.48.47-1.95 1.93.48-.48 1.95m3.85.97-1.92-.49.48-1.95 1.94.48-.5 1.96m3.86.96-1.93-.48.48-1.95 1.93.48-.48 1.95M6.25 12.11 11 10.2l6.75 1.69L13 13.8l-6.75-1.69Z" transform="matrix(1.5 0 0 1.5 108 288)" id="mdi-led-strip-variant" fill="#fff"/><path d="M22.11 21.46 2.39 1.73 1.11 3l1.48 1.5L2 6.91l4.03 1.01 3.05 3.05-2.83 1.14 5.3 1.33 1.39 1.39-8.28-2.08-.95 3.91 14.75 3.69 2.38 2.38 1.27-1.27M7.8 16.65l-1.92-.49.47-1.95 1.93.48-.48 1.96m3.85.96-1.92-.48.47-1.95 1.93.48-.48 1.95m3.85.97-1.92-.49.48-1.95.25.06 1.43 1.43-.24.95m4.23-2.05 2.27.57-.33 1.37-1.94-1.94m-3.88-3.88L14.2 11l3.55.89-1.9.76m-5.43-6.74-.26 1.05 2.66 2.66 6.52 1.63.95-3.91-13-3.25 1.37 1.37 1.76.45m5.78 1.44 1.93.49-.48 1.95-1.93-.48.48-1.96m-3.85-.96 1.92.48-.47 1.95-1.93-.48.48-1.95Z" transform="matrix(1.5 0 0 1.5 144 288)" id="mdi-led-strip-variant-off" fill="#555"/><path d="M22.11 21.46 2.39 1.73 1.11 3l1.48 1.5L2 6.91l4.03 1.01 3.05 3.05-2.83 1.14 5.3 1.33 1.39 1.39-8.28-2.08-.95 3.91 14.75 3.69 2.38 2.38 1.27-1.27M7.8 16.65l-1.92-.49.47-1.95 1.93.48-.48 1.96m3.85.96-1.92-.48.47-1.95 1.93.48-.48 1.95m3.85.97-1.92-.49.48-1.95.25.06 1.43 1.43-.24.95m4.23-2.05 2.27.57-.33 1.37-1.94-1.94m-3.88-3.88L14.2 11l3.55.89-1.9.76m-5.43-6.74-.26 1.05 2.66 2.66 6.52 1.63.95-3.91-13-3.25 1.37 1.37 1.76.45m5.78 1.44 1.93.49-.48 1.95-1.93-.48.48-1.96m-3.85-.96 1.92.48-.47 1.95-1.93-.48.48-1.95Z" transform="matrix(1.5 0 0 1.5 180 288)" id="mdi-led-strip-variant-off" fill="#fff"/><path d="M12 3c-1.95 0-3.57 1.4-3.92 3.25L16.82 15H18v-2h-2V7a4 4 0 0 0-4-4M3.28 4 2 5.27l6 6V13H6v2h3v6h2v-6h.73L13 16.27V21h2v-2.73L18.73 22 20 20.72l-5-5-7-7L3.28 4Z" transform="matrix(1.5 0 0 1.5 216 288)" id="mdi-led-variant-off" fill="#555"/><path d="M12 3c-1.95 0-3.57 1.4-3.92 3.25L16.82 15H18v-2h-2V7a4 4 0 0 0-4-4M3.28 4 2 5.27l6 6V13H6v2h3v6h2v-6h.73L13 16.27V21h2v-2.73L18.73 22 20 20.72l-5-5-7-7L3.28 4Z" transform="matrix(1.5 0 0 1.5 252 288)" id="mdi-led-variant-off" fill="#fff"/><path d="M12 3a4 4 0 0 0-4 4v6H6v2h3v6h2v-6h2v6h2v-6h3v-2h-2V7a4 4 0 0 0-4-4Z" transform="matrix(1.5 0 0 1.5 288 288)" id="mdi-led-variant-on" fill="#555"/><path d="M12 3a4 4 0 0 0-4 4v6H6v2h3v6h2v-6h2v6h2v-6h3v-2h-2V7a4 4 0 0 0-4-4Z" transform="matrix(1.5 0 0 1.5 324 288)" id="mdi-led-variant-on" fill="#fff"/><path d="M12 3a4 4 0 0 0-4 4v6H6v2h3v6h2v-6h2v6h2v-6h3v-2h-2V7a4 4 0 0 0-4-4m0 2a2 2 0 0 1 2 2v5h-4V7a2 2 0 0 1 2-2Z" transform="matrix(1.5 0 0 1.5 360 288)" id="mdi-led-variant-outline" fill="#555"/><path d="M12 3a4 4 0 0 0-4 4v6H6v2h3v6h2v-6h2v6h2v-6h3v-2h-2V7a4 4 0 0 0-4-4m0 2a2 2 0 0 1 2 2v5h-4V7a2 2 0 0 1 2-2Z" transform="matrix(1.5 0 0 1.5 396 288)" id="mdi-led-variant-outline" fill="#fff"/><path d="M10 2v3.55l2 2 2-2V2h-4M6.34 4 3.87 6.5 15 17.62v-4.95L6.34 4m11.32 0-4.6 4.61 2.48 2.48 4.59-4.59L17.66 4M9 13.74V20a2 2 0 0 0 2 2h2a2 2 0 0 0 2-2v-.26l-2-2V20h-2v-4.26l-2-2Z" transform="matrix(1.5 0 0 1.5 432 288)" id="mdi-leek" fill="#555"/><path d="M10 2v3.55l2 2 2-2V2h-4M6.34 4 3.87 6.5 15 17.62v-4.95L6.34 4m11.32 0-4.6 4.61 2.48 2.48 4.59-4.59L17.66 4M9 13.74V20a2 2 0 0 0 2 2h2a2 2 0 0 0 2-2v-.26l-2-2V20h-2v-4.26l-2-2Z" transform="matrix(1.5 0 0 1.5 468 288)" id="mdi-leek" fill="#fff"/><path d="m18.5 4.14 1 1.72L8.97 12l10.53 6.14-1 1.72L5 12l13.5-7.86Z" transform="matrix(1.5 0 0 1.5 504 288)" id="mdi-less-than" fill="#555"/><path d="m18.5 4.14 1 1.72L8.97 12l10.53 6.14-1 1.72L5 12l13.5-7.86Z" transform="matrix(1.5 0 0 1.5 540 288)" id="mdi-less-than" fill="#fff"/><path d="M18.5 2.27 5 10.14 18.5 18l1-1.73-10.53-6.13L19.5 4l-1-1.73M5 20v2h15v-2H5Z" transform="matrix(1.5 0 0 1.5 576 288)" id="mdi-less-than-or-equal" fill="#555"/><path d="M18.5 2.27 5 10.14 18.5 18l1-1.73-10.53-6.13L19.5 4l-1-1.73M5 20v2h15v-2H5Z" transform="matrix(1.5 0 0 1.5 612 288)" id="mdi-less-than-or-equal" fill="#fff"/><path d="M12 8a3 3 0 0 0 3-3 3 3 0 0 0-3-3 3 3 0 0 0-3 3 3 3 0 0 0 3 3m0 3.54C9.64 9.35 6.5 8 3 8v11c3.5 0 6.64 1.35 9 3.54 2.36-2.19 5.5-3.54 9-3.54V8c-3.5 0-6.64 1.35-9 3.54Z" transform="matrix(1.5 0 0 1.5 648 288)" id="mdi-library" fill="#555"/><path d="M12 8a3 3 0 0 0 3-3 3 3 0 0 0-3-3 3 3 0 0 0-3 3 3 3 0 0 0 3 3m0 3.54C9.64 9.35 6.5 8 3 8v11c3.5 0 6.64 1.35 9 3.54 2.36-2.19 5.5-3.54 9-3.54V8c-3.5 0-6.64 1.35-9 3.54Z" transform="matrix(1.5 0 0 1.5 684 288)" id="mdi-library" fill="#fff"/><path d="M12 14.27 10.64 13A11.242 11.242 0 0 0 5 10.18v6.95c2.61.34 5 1.34 7 2.82 2-1.48 4.39-2.48 7-2.82v-6.95c-2.16.39-4.09 1.39-5.64 2.82M19 8.15c.65-.1 1.32-.15 2-.15v11c-3.5 0-6.64 1.35-9 3.54C9.64 20.35 6.5 19 3 19V8c.68 0 1.35.05 2 .15 2.69.41 5.1 1.63 7 3.39 1.9-1.76 4.31-2.98 7-3.39M12 6c.27 0 .5-.1.71-.29.19-.21.29-.44.29-.71s-.1-.5-.29-.71C12.5 4.11 12.27 4 12 4s-.5.11-.71.29c-.18.21-.29.45-.29.71s.11.5.29.71c.21.19.45.29.71.29m2.12 1.12a2.997 2.997 0 1 1-4.24-4.24 2.997 2.997 0 1 1 4.24 4.24Z" transform="matrix(1.5 0 0 1.5 0 324)" id="mdi-library-outline" fill="#555"/><path d="M12 14.27 10.64 13A11.242 11.242 0 0 0 5 10.18v6.95c2.61.34 5 1.34 7 2.82 2-1.48 4.39-2.48 7-2.82v-6.95c-2.16.39-4.09 1.39-5.64 2.82M19 8.15c.65-.1 1.32-.15 2-.15v11c-3.5 0-6.64 1.35-9 3.54C9.64 20.35 6.5 19 3 19V8c.68 0 1.35.05 2 .15 2.69.41 5.1 1.63 7 3.39 1.9-1.76 4.31-2.98 7-3.39M12 6c.27 0 .5-.1.71-.29.19-.21.29-.44.29-.71s-.1-.5-.29-.71C12.5 4.11 12.27 4 12 4s-.5.11-.71.29c-.18.21-.29.45-.29.71s.11.5.29.71c.21.19.45.29.71.29m2.12 1.12a2.997 2.997 0 1 1-4.24-4.24 2.997 2.997 0 1 1 4.24 4.24Z" transform="matrix(1.5 0 0 1.5 36 324)" id="mdi-library-outline" fill="#fff"/><path d="M19.5 9V1.5h-3V9h-3V1.5h-3V9h-3V1.5H4.65V9H3v1.5h18V9h-1.5m0 4.5h-3V21h-3v-7.5h-3V21h-3v-7.5H4.65V21H3v1.5h18V21h-1.5v-7.5Z" transform="matrix(1.5 0 0 1.5 72 324)" id="mdi-library-shelves" fill="#555"/><path d="M19.5 9V1.5h-3V9h-3V1.5h-3V9h-3V1.5H4.65V9H3v1.5h18V9h-1.5m0 4.5h-3V21h-3v-7.5h-3V21h-3v-7.5H4.65V21H3v1.5h18V21h-1.5v-7.5Z" transform="matrix(1.5 0 0 1.5 108 324)" id="mdi-library-shelves" fill="#fff"/><path d="M9 10a3.04 3.04 0 0 1 3-3 3.04 3.04 0 0 1 3 3 3.04 3.04 0 0 1-3 3 3.04 3.04 0 0 1-3-3m3 9 4 1v-3.08A7.54 7.54 0 0 1 12 18a7.54 7.54 0 0 1-4-1.08V20m4-16a5.78 5.78 0 0 0-4.24 1.74A5.78 5.78 0 0 0 6 10a5.78 5.78 0 0 0 1.76 4.23A5.78 5.78 0 0 0 12 16a5.78 5.78 0 0 0 4.24-1.77A5.78 5.78 0 0 0 18 10a5.78 5.78 0 0 0-1.76-4.26A5.78 5.78 0 0 0 12 4m8 6a8.04 8.04 0 0 1-.57 2.8A7.84 7.84 0 0 1 18 15.28V23l-6-2-6 2v-7.72A7.9 7.9 0 0 1 4 10a7.68 7.68 0 0 1 2.33-5.64A7.73 7.73 0 0 1 12 2a7.73 7.73 0 0 1 5.67 2.36A7.68 7.68 0 0 1 20 10Z" transform="matrix(1.5 0 0 1.5 144 324)" id="mdi-license" fill="#555"/><path d="M9 10a3.04 3.04 0 0 1 3-3 3.04 3.04 0 0 1 3 3 3.04 3.04 0 0 1-3 3 3.04 3.04 0 0 1-3-3m3 9 4 1v-3.08A7.54 7.54 0 0 1 12 18a7.54 7.54 0 0 1-4-1.08V20m4-16a5.78 5.78 0 0 0-4.24 1.74A5.78 5.78 0 0 0 6 10a5.78 5.78 0 0 0 1.76 4.23A5.78 5.78 0 0 0 12 16a5.78 5.78 0 0 0 4.24-1.77A5.78 5.78 0 0 0 18 10a5.78 5.78 0 0 0-1.76-4.26A5.78 5.78 0 0 0 12 4m8 6a8.04 8.04 0 0 1-.57 2.8A7.84 7.84 0 0 1 18 15.28V23l-6-2-6 2v-7.72A7.9 7.9 0 0 1 4 10a7.68 7.68 0 0 1 2.33-5.64A7.73 7.73 0 0 1 12 2a7.73 7.73 0 0 1 5.67 2.36A7.68 7.68 0 0 1 20 10Z" transform="matrix(1.5 0 0 1.5 180 324)" id="mdi-license" fill="#fff"/><path d="M19.79 15.41c.95-2.17.95-4.66 0-6.82l-2.74 1.24c.6 1.38.6 2.95.01 4.34l2.73 1.24m-4.37-11.2a8.54 8.54 0 0 0-6.83 0l1.24 2.73c1.39-.59 2.96-.59 4.35.01l1.24-2.74M4.21 8.58a8.564 8.564 0 0 0 0 6.84l2.74-1.25c-.6-1.38-.6-2.96 0-4.35L4.21 8.58m4.38 11.21a8.5 8.5 0 0 0 6.83-.01l-1.24-2.73a5.5 5.5 0 0 1-4.34.01l-1.25 2.73M12 2a10 10 0 0 1 10 10 10 10 0 0 1-10 10A10 10 0 0 1 2 12 10 10 0 0 1 12 2m0 6a4 4 0 0 0-4 4 4 4 0 0 0 4 4 4 4 0 0 0 4-4 4 4 0 0 0-4-4Z" transform="matrix(1.5 0 0 1.5 216 324)" id="mdi-lifebuoy" fill="#555"/><path d="M19.79 15.41c.95-2.17.95-4.66 0-6.82l-2.74 1.24c.6 1.38.6 2.95.01 4.34l2.73 1.24m-4.37-11.2a8.54 8.54 0 0 0-6.83 0l1.24 2.73c1.39-.59 2.96-.59 4.35.01l1.24-2.74M4.21 8.58a8.564 8.564 0 0 0 0 6.84l2.74-1.25c-.6-1.38-.6-2.96 0-4.35L4.21 8.58m4.38 11.21a8.5 8.5 0 0 0 6.83-.01l-1.24-2.73a5.5 5.5 0 0 1-4.34.01l-1.25 2.73M12 2a10 10 0 0 1 10 10 10 10 0 0 1-10 10A10 10 0 0 1 2 12 10 10 0 0 1 12 2m0 6a4 4 0 0 0-4 4 4 4 0 0 0 4 4 4 4 0 0 0 4-4 4 4 0 0 0-4-4Z" transform="matrix(1.5 0 0 1.5 252 324)" id="mdi-lifebuoy" fill="#fff"/><path d="M8 11H2V9h6c.55 0 1 .45 1 1s-.45 1-1 1m6.87-6.65-.37.92-6.32-.41L6.9 8H8c1.1 0 2 .9 2 2s-.9 2-2 2H5.27l-.86 2.12 4.8 4.12-.38.92 1.86.76L16.72 5.1l-1.85-.75m5.94 1.94.76 1.85-2.31.96-.76-1.85 2.31-.96m-2.03 7.28 2.77 1.15-.76 1.85L18 15.42l.78-1.85m-2.63 7.66L14.3 22l-.96-2.31 1.85-.76.96 2.3Z" transform="matrix(1.5 0 0 1.5 288 324)" id="mdi-light-flood-down" fill="#555"/><path d="M8 11H2V9h6c.55 0 1 .45 1 1s-.45 1-1 1m6.87-6.65-.37.92-6.32-.41L6.9 8H8c1.1 0 2 .9 2 2s-.9 2-2 2H5.27l-.86 2.12 4.8 4.12-.38.92 1.86.76L16.72 5.1l-1.85-.75m5.94 1.94.76 1.85-2.31.96-.76-1.85 2.31-.96m-2.03 7.28 2.77 1.15-.76 1.85L18 15.42l.78-1.85m-2.63 7.66L14.3 22l-.96-2.31 1.85-.76.96 2.3Z" transform="matrix(1.5 0 0 1.5 324 324)" id="mdi-light-flood-down" fill="#fff"/><path d="M8 15H2v-2h6c.55 0 1 .45 1 1s-.45 1-1 1m8.72 3.9L10.69 4.08l-1.86.76.38.92-4.8 4.12.86 2.12H8c1.1 0 2 .9 2 2s-.9 2-2 2H6.9l1.28 3.14 6.32-.41.37.92 1.85-.75m4.09-1.19-2.31-.96.76-1.85 2.31.96-.76 1.85m-2.03-7.28L18 8.58l2.79-1.15.76 1.85-2.77 1.15m-3.59-5.36-1.85-.76L14.3 2l1.85.77-.96 2.3Z" transform="matrix(1.5 0 0 1.5 360 324)" id="mdi-light-flood-up" fill="#555"/><path d="M8 15H2v-2h6c.55 0 1 .45 1 1s-.45 1-1 1m8.72 3.9L10.69 4.08l-1.86.76.38.92-4.8 4.12.86 2.12H8c1.1 0 2 .9 2 2s-.9 2-2 2H6.9l1.28 3.14 6.32-.41.37.92 1.85-.75m4.09-1.19-2.31-.96.76-1.85 2.31.96-.76 1.85m-2.03-7.28L18 8.58l2.79-1.15.76 1.85-2.77 1.15m-3.59-5.36-1.85-.76L14.3 2l1.85.77-.96 2.3Z" transform="matrix(1.5 0 0 1.5 396 324)" id="mdi-light-flood-up" fill="#fff"/><path d="M12 7C6.5 7 2 9.46 2 12.5S6.5 18 12 18s10-2.46 10-5.5S17.5 7 12 7m4.5 3c0 .4-1.6 1.54-4.5 1.54S7.5 10.4 7.5 10c0-.09.15-.26.4-.45C9.06 9.21 10.44 9 12 9s2.94.21 4.1.55c.25.19.4.36.4.45M12 16c-4.88 0-8-2.07-8-3.5 0-.69.73-1.5 2.03-2.21.27 1.54 2.84 2.75 5.97 2.75s5.7-1.21 5.97-2.75C19.27 11 20 11.81 20 12.5c0 1.43-3.12 3.5-8 3.5Z" transform="matrix(1.5 0 0 1.5 432 324)" id="mdi-light-recessed" fill="#555"/><path d="M12 7C6.5 7 2 9.46 2 12.5S6.5 18 12 18s10-2.46 10-5.5S17.5 7 12 7m4.5 3c0 .4-1.6 1.54-4.5 1.54S7.5 10.4 7.5 10c0-.09.15-.26.4-.45C9.06 9.21 10.44 9 12 9s2.94.21 4.1.55c.25.19.4.36.4.45M12 16c-4.88 0-8-2.07-8-3.5 0-.69.73-1.5 2.03-2.21.27 1.54 2.84 2.75 5.97 2.75s5.7-1.21 5.97-2.75C19.27 11 20 11.81 20 12.5c0 1.43-3.12 3.5-8 3.5Z" transform="matrix(1.5 0 0 1.5 468 324)" id="mdi-light-recessed" fill="#fff"/><path d="M8 6v12h8V6H8m6 4h-4V8h4v2m5.4-8.4C19 1.2 18.5 1 18 1H6c-.5 0-1 .2-1.4.6C4.2 2 4 2.5 4 3v18c0 .5.2 1 .6 1.4.4.4.9.6 1.4.6h12c.5 0 1-.2 1.4-.6.4-.4.6-.9.6-1.4V3c0-.5-.2-1-.6-1.4M18 21H6V3h12v18Z" transform="matrix(1.5 0 0 1.5 504 324)" id="mdi-light-switch" fill="#555"/><path d="M8 6v12h8V6H8m6 4h-4V8h4v2m5.4-8.4C19 1.2 18.5 1 18 1H6c-.5 0-1 .2-1.4.6C4.2 2 4 2.5 4 3v18c0 .5.2 1 .6 1.4.4.4.9.6 1.4.6h12c.5 0 1-.2 1.4-.6.4-.4.6-.9.6-1.4V3c0-.5-.2-1-.6-1.4M18 21H6V3h12v18Z" transform="matrix(1.5 0 0 1.5 540 324)" id="mdi-light-switch" fill="#fff"/><path d="M19.4 1.6C19 1.2 18.5 1 18 1H6c-.5 0-1 .2-1.4.6C4.2 2 4 2.5 4 3v18c0 .5.2 1 .6 1.4.4.4.9.6 1.4.6h12c.5 0 1-.2 1.4-.6.4-.4.6-.9.6-1.4V3c0-.5-.2-1-.6-1.4M18 21H6V3h12v18M8 6v12h8V6H8m7 11H9V7h6v10m-5-3h4v2h-4v-2Z" transform="matrix(1.5 0 0 1.5 576 324)" id="mdi-light-switch-off" fill="#555"/><path d="M19.4 1.6C19 1.2 18.5 1 18 1H6c-.5 0-1 .2-1.4.6C4.2 2 4 2.5 4 3v18c0 .5.2 1 .6 1.4.4.4.9.6 1.4.6h12c.5 0 1-.2 1.4-.6.4-.4.6-.9.6-1.4V3c0-.5-.2-1-.6-1.4M18 21H6V3h12v18M8 6v12h8V6H8m7 11H9V7h6v10m-5-3h4v2h-4v-2Z" transform="matrix(1.5 0 0 1.5 612 324)" id="mdi-light-switch-off" fill="#fff"/><path d="M12 2a7 7 0 0 0-7 7c0 2.38 1.19 4.47 3 5.74V17a1 1 0 0 0 1 1h6a1 1 0 0 0 1-1v-2.26c1.81-1.27 3-3.36 3-5.74a7 7 0 0 0-7-7M9 21a1 1 0 0 0 1 1h4a1 1 0 0 0 1-1v-1H9v1Z" transform="matrix(1.5 0 0 1.5 648 324)" id="mdi-lightbulb" fill="#555"/><path d="M12 2a7 7 0 0 0-7 7c0 2.38 1.19 4.47 3 5.74V17a1 1 0 0 0 1 1h6a1 1 0 0 0 1-1v-2.26c1.81-1.27 3-3.36 3-5.74a7 7 0 0 0-7-7M9 21a1 1 0 0 0 1 1h4a1 1 0 0 0 1-1v-1H9v1Z" transform="matrix(1.5 0 0 1.5 684 324)" id="mdi-lightbulb" fill="#fff"/></svg>