<svg xmlns="http://www.w3.org/2000/svg" width="720" height="900"><path d="M19 15h-4a3 3 0 0 1-3 3 3 3 0 0 1-3-3H5V5h14m0-2H5a2 2 0 0 0-2 2v14a2 2 0 0 0 2 2h14a2 2 0 0 0 2-2V5a2 2 0 0 0-2-2Z" transform="scale(1.5)" id="mdi-inbox" fill="#555"/><path d="M19 15h-4a3 3 0 0 1-3 3 3 3 0 0 1-3-3H5V5h14m0-2H5a2 2 0 0 0-2 2v14a2 2 0 0 0 2 2h14a2 2 0 0 0 2-2V5a2 2 0 0 0-2-2Z" transform="translate(36) scale(1.5)" id="mdi-inbox" fill="#fff"/><path d="M16 10h-2V7h-4v3H8l4 4m7 1h-4a3 3 0 0 1-3 3 3 3 0 0 1-3-3H5V5h14m0-2H5a2 2 0 0 0-2 2v14a2 2 0 0 0 2 2h14a2 2 0 0 0 2-2V5a2 2 0 0 0-2-2Z" transform="translate(72) scale(1.5)" id="mdi-inbox-arrow-down" fill="#555"/><path d="M16 10h-2V7h-4v3H8l4 4m7 1h-4a3 3 0 0 1-3 3 3 3 0 0 1-3-3H5V5h14m0-2H5a2 2 0 0 0-2 2v14a2 2 0 0 0 2 2h14a2 2 0 0 0 2-2V5a2 2 0 0 0-2-2Z" transform="translate(108) scale(1.5)" id="mdi-inbox-arrow-down" fill="#fff"/><path d="M19 3H5a2 2 0 0 0-2 2v14a2 2 0 0 0 2 2h14a2 2 0 0 0 2-2V5a2 2 0 0 0-2-2M5 19v-2h3.13a4.13 4.13 0 0 0 1.27 2m9.6 0h-4.4a4.13 4.13 0 0 0 1.27-2H19m0-2h-5v1a2 2 0 0 1-4 0v-1H5V5h14m-3 5h-2V7h-4v3H8l4 4" transform="translate(144) scale(1.5)" id="mdi-inbox-arrow-down-outline" fill="#555"/><path d="M19 3H5a2 2 0 0 0-2 2v14a2 2 0 0 0 2 2h14a2 2 0 0 0 2-2V5a2 2 0 0 0-2-2M5 19v-2h3.13a4.13 4.13 0 0 0 1.27 2m9.6 0h-4.4a4.13 4.13 0 0 0 1.27-2H19m0-2h-5v1a2 2 0 0 1-4 0v-1H5V5h14m-3 5h-2V7h-4v3H8l4 4" transform="translate(180) scale(1.5)" id="mdi-inbox-arrow-down-outline" fill="#fff"/><path d="M14 14h-4v-3H8l4-4 4 4h-2v3m-9 1V5h14v10h-4a3 3 0 0 1-3 3 3 3 0 0 1-3-3H5M19 3H5a2 2 0 0 0-2 2v14a2 2 0 0 0 2 2h14a2 2 0 0 0 2-2V5a2 2 0 0 0-2-2" transform="translate(216) scale(1.5)" id="mdi-inbox-arrow-up" fill="#555"/><path d="M14 14h-4v-3H8l4-4 4 4h-2v3m-9 1V5h14v10h-4a3 3 0 0 1-3 3 3 3 0 0 1-3-3H5M19 3H5a2 2 0 0 0-2 2v14a2 2 0 0 0 2 2h14a2 2 0 0 0 2-2V5a2 2 0 0 0-2-2" transform="translate(252) scale(1.5)" id="mdi-inbox-arrow-up" fill="#fff"/><path d="M19 3H5a2 2 0 0 0-2 2v14a2 2 0 0 0 2 2h14a2 2 0 0 0 2-2V5a2 2 0 0 0-2-2M5 19v-2h3.13a4.13 4.13 0 0 0 1.27 2m9.6 0h-4.4a4.13 4.13 0 0 0 1.27-2H19m0-2h-5v1a2 2 0 0 1-4 0v-1H5V5h14M8 11h2v3h4v-3h2l-4-4" transform="translate(288) scale(1.5)" id="mdi-inbox-arrow-up-outline" fill="#555"/><path d="M19 3H5a2 2 0 0 0-2 2v14a2 2 0 0 0 2 2h14a2 2 0 0 0 2-2V5a2 2 0 0 0-2-2M5 19v-2h3.13a4.13 4.13 0 0 0 1.27 2m9.6 0h-4.4a4.13 4.13 0 0 0 1.27-2H19m0-2h-5v1a2 2 0 0 1-4 0v-1H5V5h14M8 11h2v3h4v-3h2l-4-4" transform="translate(324) scale(1.5)" id="mdi-inbox-arrow-up-outline" fill="#fff"/><path d="M19 15V5H5v10h4c0 1.66 1.34 3 3 3s3-1.34 3-3h4m0-12c1.1 0 2 .9 2 2v14c0 1.1-.9 2-2 2H5a2 2 0 0 1-2-2V5a2 2 0 0 1 2-2h14M7 13v-2h10v2H7m0-4V7h10v2H7Z" transform="translate(360) scale(1.5)" id="mdi-inbox-full" fill="#555"/><path d="M19 15V5H5v10h4c0 1.66 1.34 3 3 3s3-1.34 3-3h4m0-12c1.1 0 2 .9 2 2v14c0 1.1-.9 2-2 2H5a2 2 0 0 1-2-2V5a2 2 0 0 1 2-2h14M7 13v-2h10v2H7m0-4V7h10v2H7Z" transform="translate(396) scale(1.5)" id="mdi-inbox-full" fill="#fff"/><path d="M19 3c1.1 0 2 .9 2 2v14c0 1.1-.9 2-2 2H5c-1.1 0-2-.9-2-2V5c0-1.1.9-2 2-2h14M5 19h4.4a4.126 4.126 0 0 1-1.27-2H5v2m14 0v-2h-3.13c-.22.78-.66 1.47-1.27 2H19m0-4V5H5v10h5v1c0 2.67 4 2.67 4 0v-1h5M7 7h10v2H7V7m10 4v2H7v-2h10Z" transform="translate(432) scale(1.5)" id="mdi-inbox-full-outline" fill="#555"/><path d="M19 3c1.1 0 2 .9 2 2v14c0 1.1-.9 2-2 2H5c-1.1 0-2-.9-2-2V5c0-1.1.9-2 2-2h14M5 19h4.4a4.126 4.126 0 0 1-1.27-2H5v2m14 0v-2h-3.13c-.22.78-.66 1.47-1.27 2H19m0-4V5H5v10h5v1c0 2.67 4 2.67 4 0v-1h5M7 7h10v2H7V7m10 4v2H7v-2h10Z" transform="translate(468) scale(1.5)" id="mdi-inbox-full-outline" fill="#fff"/><path d="M19 8V5H5v3h4a3 3 0 0 0 3 3 3 3 0 0 0 3-3h4m0-5a2 2 0 0 1 2 2v7a2 2 0 0 1-2 2H5a2 2 0 0 1-2-2V5a2 2 0 0 1 2-2h14M3 15h6a3 3 0 0 0 3 3 3 3 0 0 0 3-3h6v4a2 2 0 0 1-2 2H5a2 2 0 0 1-2-2v-4Z" transform="translate(504) scale(1.5)" id="mdi-inbox-multiple" fill="#555"/><path d="M19 8V5H5v3h4a3 3 0 0 0 3 3 3 3 0 0 0 3-3h4m0-5a2 2 0 0 1 2 2v7a2 2 0 0 1-2 2H5a2 2 0 0 1-2-2V5a2 2 0 0 1 2-2h14M3 15h6a3 3 0 0 0 3 3 3 3 0 0 0 3-3h6v4a2 2 0 0 1-2 2H5a2 2 0 0 1-2-2v-4Z" transform="translate(540) scale(1.5)" id="mdi-inbox-multiple" fill="#fff"/><path d="M19 3a2 2 0 0 1 2 2v7a2 2 0 0 1-2 2H5a2 2 0 0 1-2-2V5a2 2 0 0 1 2-2h14M5 10v2h4.4c-.6-.53-1.06-1.22-1.27-2H5m14 2v-2h-3.13c-.21.78-.67 1.47-1.27 2H19m0-4V5H5v3h5v1c0 1.07.93 2 2 2 1.07 0 2-.93 2-2V8h5m2 11a2 2 0 0 1-2 2H5a2 2 0 0 1-2-2v-4h7v1c0 1.07.93 2 2 2 1.07 0 2-.93 2-2v-1h7v4M5 17v2h4.4c-.6-.53-1.06-1.22-1.27-2H5m14 2v-2h-3.13c-.21.78-.67 1.47-1.27 2H19Z" transform="translate(576) scale(1.5)" id="mdi-inbox-multiple-outline" fill="#555"/><path d="M19 3a2 2 0 0 1 2 2v7a2 2 0 0 1-2 2H5a2 2 0 0 1-2-2V5a2 2 0 0 1 2-2h14M5 10v2h4.4c-.6-.53-1.06-1.22-1.27-2H5m14 2v-2h-3.13c-.21.78-.67 1.47-1.27 2H19m0-4V5H5v3h5v1c0 1.07.93 2 2 2 1.07 0 2-.93 2-2V8h5m2 11a2 2 0 0 1-2 2H5a2 2 0 0 1-2-2v-4h7v1c0 1.07.93 2 2 2 1.07 0 2-.93 2-2v-1h7v4M5 17v2h4.4c-.6-.53-1.06-1.22-1.27-2H5m14 2v-2h-3.13c-.21.78-.67 1.47-1.27 2H19Z" transform="translate(612) scale(1.5)" id="mdi-inbox-multiple-outline" fill="#fff"/><path d="M19 3H5a2 2 0 0 0-2 2v14a2 2 0 0 0 2 2h14a2 2 0 0 0 2-2V5a2 2 0 0 0-2-2M5 19v-2h3.13a4.13 4.13 0 0 0 1.27 2m9.6 0h-4.4a4.13 4.13 0 0 0 1.27-2H19m0-2h-5v1a2 2 0 0 1-4 0v-1H5V5h14Z" transform="translate(648) scale(1.5)" id="mdi-inbox-outline" fill="#555"/><path d="M19 3H5a2 2 0 0 0-2 2v14a2 2 0 0 0 2 2h14a2 2 0 0 0 2-2V5a2 2 0 0 0-2-2M5 19v-2h3.13a4.13 4.13 0 0 0 1.27 2m9.6 0h-4.4a4.13 4.13 0 0 0 1.27-2H19m0-2h-5v1a2 2 0 0 1-4 0v-1H5V5h14Z" transform="translate(684) scale(1.5)" id="mdi-inbox-outline" fill="#fff"/><path d="M19 15h-4c0 1.7-1.3 3-3 3s-3-1.3-3-3H5V5h14m0-2H5c-1.1 0-2 .9-2 2v14c0 1.1.9 2 2 2h14c1.1 0 2-.9 2-2V5c0-1.1-.9-2-2-2m-4.9 3.5 1.4 1.4-2.1 2.1 2.1 2.1-1.4 1.4-2.1-2.1-2.1 2.1-1.4-1.4 2.1-2.1-2.1-2.1 1.4-1.4L12 8.6l2.1-2.1Z" transform="matrix(1.5 0 0 1.5 0 36)" id="mdi-inbox-remove" fill="#555"/><path d="M19 15h-4c0 1.7-1.3 3-3 3s-3-1.3-3-3H5V5h14m0-2H5c-1.1 0-2 .9-2 2v14c0 1.1.9 2 2 2h14c1.1 0 2-.9 2-2V5c0-1.1-.9-2-2-2m-4.9 3.5 1.4 1.4-2.1 2.1 2.1 2.1-1.4 1.4-2.1-2.1-2.1 2.1-1.4-1.4 2.1-2.1-2.1-2.1 1.4-1.4L12 8.6l2.1-2.1Z" transform="matrix(1.5 0 0 1.5 36 36)" id="mdi-inbox-remove" fill="#fff"/><path d="M19 3H5c-1.1 0-2 .9-2 2v14c0 1.1.9 2 2 2h14c1.1 0 2-.9 2-2V5c0-1.1-.9-2-2-2M5 19v-2h3.1c.2.8.7 1.5 1.3 2m9.6 0h-4.4c.6-.5 1.1-1.2 1.3-2H19m0-2h-5v1c0 1.1-.9 2-2 2s-2-.9-2-2v-1H5V5h14v10m-4.9-8.5 1.4 1.4-2.1 2.1 2.1 2.1-1.4 1.4-2.1-2.1-2.1 2.1-1.4-1.4 2.1-2.1-2.1-2.1 1.4-1.4L12 8.6l2.1-2.1Z" transform="matrix(1.5 0 0 1.5 72 36)" id="mdi-inbox-remove-outline" fill="#555"/><path d="M19 3H5c-1.1 0-2 .9-2 2v14c0 1.1.9 2 2 2h14c1.1 0 2-.9 2-2V5c0-1.1-.9-2-2-2M5 19v-2h3.1c.2.8.7 1.5 1.3 2m9.6 0h-4.4c.6-.5 1.1-1.2 1.3-2H19m0-2h-5v1c0 1.1-.9 2-2 2s-2-.9-2-2v-1H5V5h14v10m-4.9-8.5 1.4 1.4-2.1 2.1 2.1 2.1-1.4 1.4-2.1-2.1-2.1 2.1-1.4-1.4 2.1-2.1-2.1-2.1 1.4-1.4L12 8.6l2.1-2.1Z" transform="matrix(1.5 0 0 1.5 108 36)" id="mdi-inbox-remove-outline" fill="#fff"/><path d="M17.06 13c-1.86 0-3.42 1.33-3.82 3.1-.95-.41-1.82-.3-2.48-.01C10.35 14.31 8.79 13 6.94 13 4.77 13 3 14.79 3 17s1.77 4 3.94 4c2.06 0 3.74-1.62 3.9-3.68.34-.24 1.23-.69 2.32.02.18 2.05 1.84 3.66 3.9 3.66 2.17 0 3.94-1.79 3.94-4s-1.77-4-3.94-4M6.94 19.86c-1.56 0-2.81-1.28-2.81-2.86s1.26-2.86 2.81-2.86c1.56 0 2.81 1.28 2.81 2.86s-1.25 2.86-2.81 2.86m10.12 0c-1.56 0-2.81-1.28-2.81-2.86s1.25-2.86 2.81-2.86 2.82 1.28 2.82 2.86-1.27 2.86-2.82 2.86M22 10.5H2V12h20v-1.5m-6.47-7.87c-.22-.49-.78-.75-1.31-.58L12 2.79l-2.23-.74-.05-.01c-.53-.15-1.09.13-1.29.64L6 9h12l-2.44-6.32-.03-.05Z" transform="matrix(1.5 0 0 1.5 144 36)" id="mdi-incognito" fill="#555"/><path d="M17.06 13c-1.86 0-3.42 1.33-3.82 3.1-.95-.41-1.82-.3-2.48-.01C10.35 14.31 8.79 13 6.94 13 4.77 13 3 14.79 3 17s1.77 4 3.94 4c2.06 0 3.74-1.62 3.9-3.68.34-.24 1.23-.69 2.32.02.18 2.05 1.84 3.66 3.9 3.66 2.17 0 3.94-1.79 3.94-4s-1.77-4-3.94-4M6.94 19.86c-1.56 0-2.81-1.28-2.81-2.86s1.26-2.86 2.81-2.86c1.56 0 2.81 1.28 2.81 2.86s-1.25 2.86-2.81 2.86m10.12 0c-1.56 0-2.81-1.28-2.81-2.86s1.25-2.86 2.81-2.86 2.82 1.28 2.82 2.86-1.27 2.86-2.82 2.86M22 10.5H2V12h20v-1.5m-6.47-7.87c-.22-.49-.78-.75-1.31-.58L12 2.79l-2.23-.74-.05-.01c-.53-.15-1.09.13-1.29.64L6 9h12l-2.44-6.32-.03-.05Z" transform="matrix(1.5 0 0 1.5 180 36)" id="mdi-incognito" fill="#fff"/><path d="M12 2c5.5 0 10 4.5 10 10s-4.5 10-10 10S2 17.5 2 12 6.5 2 12 2m2.92 10.81c-1.08 0-1.97.75-2.21 1.75-.54-.23-1.05-.17-1.42-.01-.24-1-1.14-1.74-2.21-1.74-1.25 0-2.26 1.01-2.26 2.26 0 1.25 1.01 2.26 2.26 2.26 1.2 0 2.16-.91 2.25-2.08.2-.13.71-.39 1.34.01a2.258 2.258 0 0 0 4.51-.19c0-1.25-1.01-2.26-2.26-2.26m-5.84.64c.92 0 1.62.73 1.62 1.62 0 .89-.7 1.62-1.62 1.62-.89 0-1.62-.73-1.62-1.62 0-.89.73-1.62 1.62-1.62m5.84 0c.89 0 1.62.73 1.62 1.62 0 .89-.73 1.62-1.62 1.62-.92 0-1.62-.73-1.62-1.62 0-.89.7-1.62 1.62-1.62m2.91-1.95H6.17v.67h11.66v-.67m-3.68-4.61a.672.672 0 0 0-.8-.36L12 7l-1.35-.47-.04-.03a.672.672 0 0 0-.77.42l-1.48 3.91h7.28l-1.48-3.91-.01-.03Z" transform="matrix(1.5 0 0 1.5 216 36)" id="mdi-incognito-circle" fill="#555"/><path d="M12 2c5.5 0 10 4.5 10 10s-4.5 10-10 10S2 17.5 2 12 6.5 2 12 2m2.92 10.81c-1.08 0-1.97.75-2.21 1.75-.54-.23-1.05-.17-1.42-.01-.24-1-1.14-1.74-2.21-1.74-1.25 0-2.26 1.01-2.26 2.26 0 1.25 1.01 2.26 2.26 2.26 1.2 0 2.16-.91 2.25-2.08.2-.13.71-.39 1.34.01a2.258 2.258 0 0 0 4.51-.19c0-1.25-1.01-2.26-2.26-2.26m-5.84.64c.92 0 1.62.73 1.62 1.62 0 .89-.7 1.62-1.62 1.62-.89 0-1.62-.73-1.62-1.62 0-.89.73-1.62 1.62-1.62m5.84 0c.89 0 1.62.73 1.62 1.62 0 .89-.73 1.62-1.62 1.62-.92 0-1.62-.73-1.62-1.62 0-.89.7-1.62 1.62-1.62m2.91-1.95H6.17v.67h11.66v-.67m-3.68-4.61a.672.672 0 0 0-.8-.36L12 7l-1.35-.47-.04-.03a.672.672 0 0 0-.77.42l-1.48 3.91h7.28l-1.48-3.91-.01-.03Z" transform="matrix(1.5 0 0 1.5 252 36)" id="mdi-incognito-circle" fill="#fff"/><path d="M22.11 21.46 2.39 1.73 1.11 3l2.95 2.95A9.888 9.888 0 0 0 2 12c0 5.5 4.5 10 10 10 2.28 0 4.37-.77 6.05-2.06l2.79 2.79 1.27-1.27M8.94 10.83h-.58l.14-.42.44.42m-2.77.67h3.44l.67.67H6.17v-.67m8.75 5.83c-1.19 0-2.15-.91-2.25-2.07-.63-.4-1.14-.14-1.34-.01a2.243 2.243 0 0 1-2.25 2.08c-1.25 0-2.26-1.01-2.26-2.26 0-1.25 1.01-2.26 2.26-2.26 1.07 0 1.97.74 2.21 1.74.36-.15.84-.21 1.36-.01l.66.66c.06.8.69 1.41 1.47 1.47l.6.6c-.15.03-.3.06-.46.06M9.94 6.74 6.72 3.5C8.25 2.56 10.06 2 12 2c5.5 0 10 4.5 10 10 0 1.94-.56 3.75-1.5 5.28l-5.13-5.11h2.46v-.67H14.7l-.67-.67h1.61l-1.48-3.91-.01-.03a.672.672 0 0 0-.8-.36L12 7l-1.35-.47-.04-.03a.707.707 0 0 0-.67.24m.76 8.33c0 .89-.7 1.62-1.62 1.62-.89 0-1.62-.73-1.62-1.62s.73-1.62 1.62-1.62c.92 0 1.62.73 1.62 1.62Z" transform="matrix(1.5 0 0 1.5 288 36)" id="mdi-incognito-circle-off" fill="#555"/><path d="M22.11 21.46 2.39 1.73 1.11 3l2.95 2.95A9.888 9.888 0 0 0 2 12c0 5.5 4.5 10 10 10 2.28 0 4.37-.77 6.05-2.06l2.79 2.79 1.27-1.27M8.94 10.83h-.58l.14-.42.44.42m-2.77.67h3.44l.67.67H6.17v-.67m8.75 5.83c-1.19 0-2.15-.91-2.25-2.07-.63-.4-1.14-.14-1.34-.01a2.243 2.243 0 0 1-2.25 2.08c-1.25 0-2.26-1.01-2.26-2.26 0-1.25 1.01-2.26 2.26-2.26 1.07 0 1.97.74 2.21 1.74.36-.15.84-.21 1.36-.01l.66.66c.06.8.69 1.41 1.47 1.47l.6.6c-.15.03-.3.06-.46.06M9.94 6.74 6.72 3.5C8.25 2.56 10.06 2 12 2c5.5 0 10 4.5 10 10 0 1.94-.56 3.75-1.5 5.28l-5.13-5.11h2.46v-.67H14.7l-.67-.67h1.61l-1.48-3.91-.01-.03a.672.672 0 0 0-.8-.36L12 7l-1.35-.47-.04-.03a.707.707 0 0 0-.67.24m.76 8.33c0 .89-.7 1.62-1.62 1.62-.89 0-1.62-.73-1.62-1.62s.73-1.62 1.62-1.62c.92 0 1.62.73 1.62 1.62Z" transform="matrix(1.5 0 0 1.5 324 36)" id="mdi-incognito-circle-off" fill="#fff"/><path d="M22.11 21.46 2.39 1.73 1.11 3l5.2 5.2L6 9h1.11l1.5 1.5H2V12h8.11l3.39 3.37c-.12.24-.2.48-.26.73-.95-.41-1.83-.3-2.48-.01C10.35 14.31 8.79 13 6.94 13 4.77 13 3 14.79 3 17s1.77 4 3.94 4c2.06 0 3.74-1.62 3.9-3.68.34-.24 1.23-.69 2.32.02.18 2.05 1.84 3.66 3.9 3.66.6 0 1.16-.14 1.66-.39l2.12 2.12 1.27-1.27m-15.17-1.6c-1.56 0-2.81-1.28-2.81-2.86 0-1.58 1.26-2.86 2.81-2.86 1.56 0 2.81 1.28 2.81 2.86 0 1.58-1.25 2.86-2.81 2.86m10.12 0c-1.56 0-2.81-1.28-2.81-2.86 0-.26.04-.5.11-.75l3.48 3.48c-.25.08-.5.13-.78.13M22 12h-6.8l-1.5-1.5H22V12m-4.94 1c2.17 0 3.94 1.79 3.94 4 0 .25-.03.5-.07.73l-1.09-1.09a2.825 2.825 0 0 0-2.46-2.47l-1.09-1.08c.25-.06.51-.09.77-.09M12.2 9 7.72 4.5l.71-1.82c.2-.51.76-.79 1.29-.64l.05.01 2.23.74 2.22-.74c.53-.17 1.1.09 1.32.58l.02.05L18 9h-5.8Z" transform="matrix(1.5 0 0 1.5 360 36)" id="mdi-incognito-off" fill="#555"/><path d="M22.11 21.46 2.39 1.73 1.11 3l5.2 5.2L6 9h1.11l1.5 1.5H2V12h8.11l3.39 3.37c-.12.24-.2.48-.26.73-.95-.41-1.83-.3-2.48-.01C10.35 14.31 8.79 13 6.94 13 4.77 13 3 14.79 3 17s1.77 4 3.94 4c2.06 0 3.74-1.62 3.9-3.68.34-.24 1.23-.69 2.32.02.18 2.05 1.84 3.66 3.9 3.66.6 0 1.16-.14 1.66-.39l2.12 2.12 1.27-1.27m-15.17-1.6c-1.56 0-2.81-1.28-2.81-2.86 0-1.58 1.26-2.86 2.81-2.86 1.56 0 2.81 1.28 2.81 2.86 0 1.58-1.25 2.86-2.81 2.86m10.12 0c-1.56 0-2.81-1.28-2.81-2.86 0-.26.04-.5.11-.75l3.48 3.48c-.25.08-.5.13-.78.13M22 12h-6.8l-1.5-1.5H22V12m-4.94 1c2.17 0 3.94 1.79 3.94 4 0 .25-.03.5-.07.73l-1.09-1.09a2.825 2.825 0 0 0-2.46-2.47l-1.09-1.08c.25-.06.51-.09.77-.09M12.2 9 7.72 4.5l.71-1.82c.2-.51.76-.79 1.29-.64l.05.01 2.23.74 2.22-.74c.53-.17 1.1.09 1.32.58l.02.05L18 9h-5.8Z" transform="matrix(1.5 0 0 1.5 396 36)" id="mdi-incognito-off" fill="#fff"/><path d="M23 2c-2.25 0-4.25.61-5.81 1.33C15.79 2.61 14 2 12 2s-3.79.61-5.19 1.33C5.25 2.61 3.25 2 1 2v2c1.36 0 2.61.27 3.71.64-.68.51-1.08.9-1.12.95C3.21 5.96 3 6.47 3 7v11c0 2.21 1.79 4 4 4s4-1.79 4-4V7c0-.58-.25-1.12-.68-1.5-.06-.05-.52-.45-1.32-.96.92-.32 1.92-.54 3-.54s2.08.22 3 .54c-.8.51-1.26.91-1.32.96-.43.38-.68.92-.68 1.5v11c0 2.21 1.79 4 4 4s4-1.79 4-4V7c0-.53-.21-1.04-.59-1.41-.04-.05-.44-.44-1.12-.95C20.39 4.27 21.64 4 23 4V2M9 7v11c0 1.11-.89 2-2 2s-2-.89-2-2V7s.7-.69 1.87-1.42C8.2 6.31 9 7 9 7m10 0v11c0 1.11-.89 2-2 2s-2-.89-2-2V7s.8-.69 2.13-1.42C18.3 6.31 19 7 19 7Z" transform="matrix(1.5 0 0 1.5 432 36)" id="mdi-induction" fill="#555"/><path d="M23 2c-2.25 0-4.25.61-5.81 1.33C15.79 2.61 14 2 12 2s-3.79.61-5.19 1.33C5.25 2.61 3.25 2 1 2v2c1.36 0 2.61.27 3.71.64-.68.51-1.08.9-1.12.95C3.21 5.96 3 6.47 3 7v11c0 2.21 1.79 4 4 4s4-1.79 4-4V7c0-.58-.25-1.12-.68-1.5-.06-.05-.52-.45-1.32-.96.92-.32 1.92-.54 3-.54s2.08.22 3 .54c-.8.51-1.26.91-1.32.96-.43.38-.68.92-.68 1.5v11c0 2.21 1.79 4 4 4s4-1.79 4-4V7c0-.53-.21-1.04-.59-1.41-.04-.05-.44-.44-1.12-.95C20.39 4.27 21.64 4 23 4V2M9 7v11c0 1.11-.89 2-2 2s-2-.89-2-2V7s.7-.69 1.87-1.42C8.2 6.31 9 7 9 7m10 0v11c0 1.11-.89 2-2 2s-2-.89-2-2V7s.8-.69 2.13-1.42C18.3 6.31 19 7 19 7Z" transform="matrix(1.5 0 0 1.5 468 36)" id="mdi-induction" fill="#fff"/><path d="M18.6 6.62C21.58 6.62 24 9 24 12c0 2.96-2.42 5.37-5.4 5.37-1.45 0-2.8-.56-3.82-1.57L12 13.34l-2.83 2.51c-.97.97-2.33 1.53-3.77 1.53C2.42 17.38 0 14.96 0 12s2.42-5.38 5.4-5.38c1.44 0 2.8.56 3.82 1.58L12 10.66l2.83-2.51c.97-.97 2.33-1.53 3.77-1.53M7.8 14.39 10.5 12 7.84 9.65c-.68-.68-1.53-1.03-2.44-1.03C3.53 8.62 2 10.13 2 12c0 1.87 1.53 3.38 3.4 3.38.91 0 1.76-.35 2.4-.99m8.4-4.78L13.5 12l2.66 2.35c.68.68 1.54 1.03 2.44 1.03 1.87 0 3.4-1.51 3.4-3.38 0-1.87-1.53-3.38-3.4-3.38-.91 0-1.76.35-2.4.99Z" transform="matrix(1.5 0 0 1.5 504 36)" id="mdi-infinity" fill="#555"/><path d="M18.6 6.62C21.58 6.62 24 9 24 12c0 2.96-2.42 5.37-5.4 5.37-1.45 0-2.8-.56-3.82-1.57L12 13.34l-2.83 2.51c-.97.97-2.33 1.53-3.77 1.53C2.42 17.38 0 14.96 0 12s2.42-5.38 5.4-5.38c1.44 0 2.8.56 3.82 1.58L12 10.66l2.83-2.51c.97-.97 2.33-1.53 3.77-1.53M7.8 14.39 10.5 12 7.84 9.65c-.68-.68-1.53-1.03-2.44-1.03C3.53 8.62 2 10.13 2 12c0 1.87 1.53 3.38 3.4 3.38.91 0 1.76-.35 2.4-.99m8.4-4.78L13.5 12l2.66 2.35c.68.68 1.54 1.03 2.44 1.03 1.87 0 3.4-1.51 3.4-3.38 0-1.87-1.53-3.38-3.4-3.38-.91 0-1.76.35-2.4.99Z" transform="matrix(1.5 0 0 1.5 540 36)" id="mdi-infinity" fill="#fff"/><path d="M13 9h-2V7h2m0 10h-2v-6h2m-1-9A10 10 0 0 0 2 12a10 10 0 0 0 10 10 10 10 0 0 0 10-10A10 10 0 0 0 12 2Z" transform="matrix(1.5 0 0 1.5 576 36)" id="mdi-information" fill="#555"/><path d="M13 9h-2V7h2m0 10h-2v-6h2m-1-9A10 10 0 0 0 2 12a10 10 0 0 0 10 10 10 10 0 0 0 10-10A10 10 0 0 0 12 2Z" transform="matrix(1.5 0 0 1.5 612 36)" id="mdi-information" fill="#fff"/><path d="M22.1 21.5 2.4 1.7 1.1 3l3 3C2.8 7.6 2 9.7 2 12c0 5.5 4.5 10 10 10 2.3 0 4.4-.8 6-2.1l2.8 2.8 1.3-1.2M13 17h-2v-4.1l2 2V17m-2-9.2L6.7 3.5C8.3 2.6 10.1 2 12 2c5.5 0 10 4.5 10 10 0 1.9-.6 3.7-1.5 5.3L12.2 9h.8V7h-2v.8Z" transform="matrix(1.5 0 0 1.5 648 36)" id="mdi-information-off" fill="#555"/><path d="M22.1 21.5 2.4 1.7 1.1 3l3 3C2.8 7.6 2 9.7 2 12c0 5.5 4.5 10 10 10 2.3 0 4.4-.8 6-2.1l2.8 2.8 1.3-1.2M13 17h-2v-4.1l2 2V17m-2-9.2L6.7 3.5C8.3 2.6 10.1 2 12 2c5.5 0 10 4.5 10 10 0 1.9-.6 3.7-1.5 5.3L12.2 9h.8V7h-2v.8Z" transform="matrix(1.5 0 0 1.5 684 36)" id="mdi-information-off" fill="#fff"/><path d="M22.1 21.5 2.4 1.7 1.1 3l3 3C2.8 7.6 2 9.7 2 12c0 5.5 4.5 10 10 10 2.3 0 4.4-.8 6-2.1l2.8 2.8 1.3-1.2M12 20c-4.4 0-8-3.6-8-8 0-1.7.6-3.3 1.5-4.6l5.5 5.5V17h2v-2.1l3.6 3.6c-1.3.9-2.9 1.5-4.6 1.5M8.2 5 6.7 3.5C8.3 2.6 10.1 2 12 2c5.5 0 10 4.5 10 10 0 1.9-.6 3.7-1.5 5.3L19 15.8c.6-1.1 1-2.4 1-3.8 0-4.4-3.6-8-8-8-1.4 0-2.7.4-3.8 1M11 7h2v2h-2V7Z" transform="matrix(1.5 0 0 1.5 0 72)" id="mdi-information-off-outline" fill="#555"/><path d="M22.1 21.5 2.4 1.7 1.1 3l3 3C2.8 7.6 2 9.7 2 12c0 5.5 4.5 10 10 10 2.3 0 4.4-.8 6-2.1l2.8 2.8 1.3-1.2M12 20c-4.4 0-8-3.6-8-8 0-1.7.6-3.3 1.5-4.6l5.5 5.5V17h2v-2.1l3.6 3.6c-1.3.9-2.9 1.5-4.6 1.5M8.2 5 6.7 3.5C8.3 2.6 10.1 2 12 2c5.5 0 10 4.5 10 10 0 1.9-.6 3.7-1.5 5.3L19 15.8c.6-1.1 1-2.4 1-3.8 0-4.4-3.6-8-8-8-1.4 0-2.7.4-3.8 1M11 7h2v2h-2V7Z" transform="matrix(1.5 0 0 1.5 36 72)" id="mdi-information-off-outline" fill="#fff"/><path d="M11 9h2V7h-2m1 13c-4.41 0-8-3.59-8-8s3.59-8 8-8 8 3.59 8 8-3.59 8-8 8m0-18A10 10 0 0 0 2 12a10 10 0 0 0 10 10 10 10 0 0 0 10-10A10 10 0 0 0 12 2m-1 15h2v-6h-2v6Z" transform="matrix(1.5 0 0 1.5 72 72)" id="mdi-information-outline" fill="#555"/><path d="M11 9h2V7h-2m1 13c-4.41 0-8-3.59-8-8s3.59-8 8-8 8 3.59 8 8-3.59 8-8 8m0-18A10 10 0 0 0 2 12a10 10 0 0 0 10 10 10 10 0 0 0 10-10A10 10 0 0 0 12 2m-1 15h2v-6h-2v6Z" transform="matrix(1.5 0 0 1.5 108 72)" id="mdi-information-outline" fill="#fff"/><path d="M13.5 4A1.5 1.5 0 0 0 12 5.5 1.5 1.5 0 0 0 13.5 7 1.5 1.5 0 0 0 15 5.5 1.5 1.5 0 0 0 13.5 4m-.36 4.77c-1.19.1-4.44 2.69-4.44 2.69-.2.15-.14.14.02.42.16.27.14.29.33.16.2-.13.53-.34 1.08-.68 2.12-1.36.34 1.78-.57 7.07-.36 2.62 2 1.27 2.61.87.6-.39 2.21-1.5 2.37-1.61.22-.15.06-.27-.11-.52-.12-.17-.24-.05-.24-.05-.65.43-1.84 1.33-2 .76-.19-.57 1.03-4.48 1.7-7.17.11-.64.41-2.04-.75-1.94Z" transform="matrix(1.5 0 0 1.5 144 72)" id="mdi-information-variant" fill="#555"/><path d="M13.5 4A1.5 1.5 0 0 0 12 5.5 1.5 1.5 0 0 0 13.5 7 1.5 1.5 0 0 0 15 5.5 1.5 1.5 0 0 0 13.5 4m-.36 4.77c-1.19.1-4.44 2.69-4.44 2.69-.2.15-.14.14.02.42.16.27.14.29.33.16.2-.13.53-.34 1.08-.68 2.12-1.36.34 1.78-.57 7.07-.36 2.62 2 1.27 2.61.87.6-.39 2.21-1.5 2.37-1.61.22-.15.06-.27-.11-.52-.12-.17-.24-.05-.24-.05-.65.43-1.84 1.33-2 .76-.19-.57 1.03-4.48 1.7-7.17.11-.64.41-2.04-.75-1.94Z" transform="matrix(1.5 0 0 1.5 180 72)" id="mdi-information-variant" fill="#fff"/><path d="M7.8 2h8.4C19.4 2 22 4.6 22 7.8v8.4a5.8 5.8 0 0 1-5.8 5.8H7.8C4.6 22 2 19.4 2 16.2V7.8A5.8 5.8 0 0 1 7.8 2m-.2 2A3.6 3.6 0 0 0 4 7.6v8.8C4 18.39 5.61 20 7.6 20h8.8a3.6 3.6 0 0 0 3.6-3.6V7.6C20 5.61 18.39 4 16.4 4H7.6m9.65 1.5a1.25 1.25 0 0 1 1.25 1.25A1.25 1.25 0 0 1 17.25 8 1.25 1.25 0 0 1 16 6.75a1.25 1.25 0 0 1 1.25-1.25M12 7a5 5 0 0 1 5 5 5 5 0 0 1-5 5 5 5 0 0 1-5-5 5 5 0 0 1 5-5m0 2a3 3 0 0 0-3 3 3 3 0 0 0 3 3 3 3 0 0 0 3-3 3 3 0 0 0-3-3Z" transform="matrix(1.5 0 0 1.5 216 72)" id="mdi-instagram" fill="#555"/><path d="M7.8 2h8.4C19.4 2 22 4.6 22 7.8v8.4a5.8 5.8 0 0 1-5.8 5.8H7.8C4.6 22 2 19.4 2 16.2V7.8A5.8 5.8 0 0 1 7.8 2m-.2 2A3.6 3.6 0 0 0 4 7.6v8.8C4 18.39 5.61 20 7.6 20h8.8a3.6 3.6 0 0 0 3.6-3.6V7.6C20 5.61 18.39 4 16.4 4H7.6m9.65 1.5a1.25 1.25 0 0 1 1.25 1.25A1.25 1.25 0 0 1 17.25 8 1.25 1.25 0 0 1 16 6.75a1.25 1.25 0 0 1 1.25-1.25M12 7a5 5 0 0 1 5 5 5 5 0 0 1-5 5 5 5 0 0 1-5-5 5 5 0 0 1 5-5m0 2a3 3 0 0 0-3 3 3 3 0 0 0 3 3 3 3 0 0 0 3-3 3 3 0 0 0-3-3Z" transform="matrix(1.5 0 0 1.5 252 72)" id="mdi-instagram" fill="#fff"/><path d="M11.5 2h-1v4.2c-.1.1-.2.1-.3.3L2.1 20.7c-.3.6.1 1.3.8 1.3H16v-2H4.8L11 9.2l5.7 10 1.7-1-6.6-11.8-.3-.3V2M21 6h-1v12l-.5 4h2l-.5-4V6Z" transform="matrix(1.5 0 0 1.5 288 72)" id="mdi-instrument-triangle" fill="#555"/><path d="M11.5 2h-1v4.2c-.1.1-.2.1-.3.3L2.1 20.7c-.3.6.1 1.3.8 1.3H16v-2H4.8L11 9.2l5.7 10 1.7-1-6.6-11.8-.3-.3V2M21 6h-1v12l-.5 4h2l-.5-4V6Z" transform="matrix(1.5 0 0 1.5 324 72)" id="mdi-instrument-triangle" fill="#fff"/><path d="M10 4h10c1.11 0 2 .89 2 2v2h-3.41L16 10.59v4l-2 2V20h-4v-3.41l-2-2V9.41l2-2V4m8 7.41V14h4v-4h-2.59L18 11.41M6.59 8 8 6.59V4H4c-1.11 0-2 .89-2 2v2h4.59M6 14v-4H2v4h4m2 3.41L6.59 16H2v2c0 1.11.89 2 2 2h4v-2.59M17.41 16 16 17.41V20h4c1.11 0 2-.89 2-2v-2h-4.59Z" transform="matrix(1.5 0 0 1.5 360 72)" id="mdi-integrated-circuit-chip" fill="#555"/><path d="M10 4h10c1.11 0 2 .89 2 2v2h-3.41L16 10.59v4l-2 2V20h-4v-3.41l-2-2V9.41l2-2V4m8 7.41V14h4v-4h-2.59L18 11.41M6.59 8 8 6.59V4H4c-1.11 0-2 .89-2 2v2h4.59M6 14v-4H2v4h4m2 3.41L6.59 16H2v2c0 1.11.89 2 2 2h4v-2.59M17.41 16 16 17.41V20h4c1.11 0 2-.89 2-2v-2h-4.59Z" transform="matrix(1.5 0 0 1.5 396 72)" id="mdi-integrated-circuit-chip" fill="#fff"/><path d="M12 19.58c-1.6 0-3.11-.62-4.24-1.75A5.951 5.951 0 0 1 6 13.58c0-1.58.62-3.11 1.76-4.24L12 5.1m5.66 2.83L12 2.27 6.34 7.93c-3.12 3.12-3.12 8.19 0 11.31A7.98 7.98 0 0 0 12 21.58c2.05 0 4.1-.78 5.66-2.34 3.12-3.12 3.12-8.19 0-11.31Z" transform="matrix(1.5 0 0 1.5 432 72)" id="mdi-invert-colors" fill="#555"/><path d="M12 19.58c-1.6 0-3.11-.62-4.24-1.75A5.951 5.951 0 0 1 6 13.58c0-1.58.62-3.11 1.76-4.24L12 5.1m5.66 2.83L12 2.27 6.34 7.93c-3.12 3.12-3.12 8.19 0 11.31A7.98 7.98 0 0 0 12 21.58c2.05 0 4.1-.78 5.66-2.34 3.12-3.12 3.12-8.19 0-11.31Z" transform="matrix(1.5 0 0 1.5 468 72)" id="mdi-invert-colors" fill="#fff"/><path d="M20.65 20.87 18.3 18.5 12 12.23 8.44 8.66 7 7.25 4.27 4.5 3 5.77l2.78 2.78a8.005 8.005 0 0 0 .56 10.69A7.98 7.98 0 0 0 12 21.58c1.79 0 3.57-.58 5.03-1.78l2.7 2.7L21 21.23l-.35-.36M12 19.59c-1.6 0-3.11-.62-4.24-1.76A5.945 5.945 0 0 1 6 13.59C6 12.27 6.43 11 7.21 10L12 14.77v4.82M12 5.1v4.58l7.25 7.26a7.99 7.99 0 0 0-1.6-9.01L12 2.27l-3.7 3.7 1.41 1.41L12 5.1Z" transform="matrix(1.5 0 0 1.5 504 72)" id="mdi-invert-colors-off" fill="#555"/><path d="M20.65 20.87 18.3 18.5 12 12.23 8.44 8.66 7 7.25 4.27 4.5 3 5.77l2.78 2.78a8.005 8.005 0 0 0 .56 10.69A7.98 7.98 0 0 0 12 21.58c1.79 0 3.57-.58 5.03-1.78l2.7 2.7L21 21.23l-.35-.36M12 19.59c-1.6 0-3.11-.62-4.24-1.76A5.945 5.945 0 0 1 6 13.59C6 12.27 6.43 11 7.21 10L12 14.77v4.82M12 5.1v4.58l7.25 7.26a7.99 7.99 0 0 0-1.6-9.01L12 2.27l-3.7 3.7 1.41 1.41L12 5.1Z" transform="matrix(1.5 0 0 1.5 540 72)" id="mdi-invert-colors-off" fill="#fff"/><path d="M12 2c-.5 0-1 .04-1.5.11v2.74a7.631 7.631 0 0 1 3 0V2.12C13 2.04 12.5 2 12 2m-2.18.25C5.4 3.25 2.11 7.24 2.11 12c0 5.5 4.42 10 9.89 10 5.47 0 9.89-4.5 9.89-10 0-4.76-3.29-8.75-7.7-9.75v2.78c2.98.93 5.15 3.7 5.15 6.97 0 4-3.29 7.3-7.34 7.3-4.04 0-7.33-3.3-7.33-7.3 0-3.27 2.17-6.04 5.15-6.97m2.18.42c-.5 0-1 .05-1.5.17v12.65c.5.11 1 .17 1.5.17s1-.05 1.5-.17V5.62c-.5-.12-1-.17-1.5-.17Z" transform="matrix(1.5 0 0 1.5 576 72)" id="mdi-iobroker" fill="#555"/><path d="M12 2c-.5 0-1 .04-1.5.11v2.74a7.631 7.631 0 0 1 3 0V2.12C13 2.04 12.5 2 12 2m-2.18.25C5.4 3.25 2.11 7.24 2.11 12c0 5.5 4.42 10 9.89 10 5.47 0 9.89-4.5 9.89-10 0-4.76-3.29-8.75-7.7-9.75v2.78c2.98.93 5.15 3.7 5.15 6.97 0 4-3.29 7.3-7.34 7.3-4.04 0-7.33-3.3-7.33-7.3 0-3.27 2.17-6.04 5.15-6.97m2.18.42c-.5 0-1 .05-1.5.17v12.65c.5.11 1 .17 1.5.17s1-.05 1.5-.17V5.62c-.5-.12-1-.17-1.5-.17Z" transform="matrix(1.5 0 0 1.5 612 72)" id="mdi-iobroker" fill="#fff"/><path d="M16 11h-2V9h2v2M3 5a2 2 0 0 1 2-2h14a2 2 0 0 1 2 2v14a2 2 0 0 1-2 2H5a2 2 0 0 1-2-2V5m7 2H8v10h2V7m2 10h2v-4h2a2 2 0 0 0 2-2V9a2 2 0 0 0-2-2h-4v10Z" transform="matrix(1.5 0 0 1.5 648 72)" id="mdi-ip" fill="#555"/><path d="M16 11h-2V9h2v2M3 5a2 2 0 0 1 2-2h14a2 2 0 0 1 2 2v14a2 2 0 0 1-2 2H5a2 2 0 0 1-2-2V5m7 2H8v10h2V7m2 10h2v-4h2a2 2 0 0 0 2-2V9a2 2 0 0 0-2-2h-4v10Z" transform="matrix(1.5 0 0 1.5 684 72)" id="mdi-ip" fill="#fff"/><path d="M15 9h-2V7h2v2m7 11v2h-7a1 1 0 0 1-1 1h-4a1 1 0 0 1-1-1H2v-2h7a1 1 0 0 1 1-1h1v-2H7a2 2 0 0 1-2-2V5a2 2 0 0 1 2-2h10a2 2 0 0 1 2 2v10a2 2 0 0 1-2 2h-4v2h1a1 1 0 0 1 1 1h7M9 5H7v10h2V5m2 10h2v-4h2a2 2 0 0 0 2-2V7a2 2 0 0 0-2-2h-4v10Z" transform="matrix(1.5 0 0 1.5 0 108)" id="mdi-ip-network" fill="#555"/><path d="M15 9h-2V7h2v2m7 11v2h-7a1 1 0 0 1-1 1h-4a1 1 0 0 1-1-1H2v-2h7a1 1 0 0 1 1-1h1v-2H7a2 2 0 0 1-2-2V5a2 2 0 0 1 2-2h10a2 2 0 0 1 2 2v10a2 2 0 0 1-2 2h-4v2h1a1 1 0 0 1 1 1h7M9 5H7v10h2V5m2 10h2v-4h2a2 2 0 0 0 2-2V7a2 2 0 0 0-2-2h-4v10Z" transform="matrix(1.5 0 0 1.5 36 108)" id="mdi-ip-network" fill="#fff"/><path d="M15 20a1 1 0 0 0-1-1h-1v-2h4a2 2 0 0 0 2-2V5a2 2 0 0 0-2-2H7a2 2 0 0 0-2 2v10a2 2 0 0 0 2 2h4v2h-1a1 1 0 0 0-1 1H2v2h7a1 1 0 0 0 1 1h4a1 1 0 0 0 1-1h7v-2h-7m-8-5V5h10v10H7m3-9H8v8h2V6m4 0h-3v8h2v-2h1a2 2 0 0 0 2-2V8a2 2 0 0 0-2-2m0 4h-1V8h1v2Z" transform="matrix(1.5 0 0 1.5 72 108)" id="mdi-ip-network-outline" fill="#555"/><path d="M15 20a1 1 0 0 0-1-1h-1v-2h4a2 2 0 0 0 2-2V5a2 2 0 0 0-2-2H7a2 2 0 0 0-2 2v10a2 2 0 0 0 2 2h4v2h-1a1 1 0 0 0-1 1H2v2h7a1 1 0 0 0 1 1h4a1 1 0 0 0 1-1h7v-2h-7m-8-5V5h10v10H7m3-9H8v8h2V6m4 0h-3v8h2v-2h1a2 2 0 0 0 2-2V8a2 2 0 0 0-2-2m0 4h-1V8h1v2Z" transform="matrix(1.5 0 0 1.5 108 108)" id="mdi-ip-network-outline" fill="#fff"/><path d="M19 5v14H5V5h14m0-2H5c-1.1 0-2 .9-2 2v14c0 1.1.9 2 2 2h14c1.1 0 2-.9 2-2V5c0-1.1-.9-2-2-2M9 7H7v10h2V7m6 0h-4v10h2v-4h2c1.1 0 2-.9 2-2V9c0-1.1-.9-2-2-2m0 4h-2V9h2v2Z" transform="matrix(1.5 0 0 1.5 144 108)" id="mdi-ip-outline" fill="#555"/><path d="M19 5v14H5V5h14m0-2H5c-1.1 0-2 .9-2 2v14c0 1.1.9 2 2 2h14c1.1 0 2-.9 2-2V5c0-1.1-.9-2-2-2M9 7H7v10h2V7m6 0h-4v10h2v-4h2c1.1 0 2-.9 2-2V9c0-1.1-.9-2-2-2m0 4h-2V9h2v2Z" transform="matrix(1.5 0 0 1.5 180 108)" id="mdi-ip-outline" fill="#fff"/><path d="M7 2a2 2 0 0 0-2 2v16a2 2 0 0 0 2 2h10a2 2 0 0 0 2-2V4a2 2 0 0 0-2-2H7m0 2h10v6H7V4m5 8a4 4 0 0 1 4 4 4 4 0 0 1-4 4 4 4 0 0 1-4-4 4 4 0 0 1 4-4m0 2a2 2 0 0 0-2 2 2 2 0 0 0 2 2 2 2 0 0 0 2-2 2 2 0 0 0-2-2Z" transform="matrix(1.5 0 0 1.5 216 108)" id="mdi-ipod" fill="#555"/><path d="M7 2a2 2 0 0 0-2 2v16a2 2 0 0 0 2 2h10a2 2 0 0 0 2-2V4a2 2 0 0 0-2-2H7m0 2h10v6H7V4m5 8a4 4 0 0 1 4 4 4 4 0 0 1-4 4 4 4 0 0 1-4-4 4 4 0 0 1 4-4m0 2a2 2 0 0 0-2 2 2 2 0 0 0 2 2 2 2 0 0 0 2-2 2 2 0 0 0-2-2Z" transform="matrix(1.5 0 0 1.5 252 108)" id="mdi-ipod" fill="#fff"/><path d="M21 6c-1.66 0-3 1.34-3 3v4c0 .55-.45 1-1 1v-4c0-1.66-1.34-3-3-3h-4c-1.66 0-3 1.34-3 3h2c0-.55.45-1 1-1h4c.55 0 1 .45 1 1v1H6c-2.21 0-4 1.79-4 4v3h15v-2c1.66 0 3-1.34 3-3V9c0-.55.45-1 1-1h1V6h-1Z" transform="matrix(1.5 0 0 1.5 288 108)" id="mdi-iron" fill="#555"/><path d="M21 6c-1.66 0-3 1.34-3 3v4c0 .55-.45 1-1 1v-4c0-1.66-1.34-3-3-3h-4c-1.66 0-3 1.34-3 3h2c0-.55.45-1 1-1h4c.55 0 1 .45 1 1v1H6c-2.21 0-4 1.79-4 4v3h15v-2c1.66 0 3-1.34 3-3V9c0-.55.45-1 1-1h1V6h-1Z" transform="matrix(1.5 0 0 1.5 324 108)" id="mdi-iron" fill="#fff"/><path d="M19 6h-3V4.8c0-1.12.56-2.17 1.5-2.8.94.63 1.5 1.68 1.5 2.8V6m-3.72 7.63L19.59 19c.79.06 1.41.7 1.41 1.5 0 .83-.67 1.5-1.5 1.5s-1.5-.67-1.5-1.5v-.24l-4-5.03-4 5.03v.24c0 .83-.67 1.5-1.5 1.5S7 21.33 7 20.5c0-.8.63-1.44 1.41-1.5l4.31-5.37L9 9H3V7h18v2h-2l-3.72 4.63M14 12l2.42-3h-4.84L14 12Z" transform="matrix(1.5 0 0 1.5 360 108)" id="mdi-iron-board" fill="#555"/><path d="M19 6h-3V4.8c0-1.12.56-2.17 1.5-2.8.94.63 1.5 1.68 1.5 2.8V6m-3.72 7.63L19.59 19c.79.06 1.41.7 1.41 1.5 0 .83-.67 1.5-1.5 1.5s-1.5-.67-1.5-1.5v-.24l-4-5.03-4 5.03v.24c0 .83-.67 1.5-1.5 1.5S7 21.33 7 20.5c0-.8.63-1.44 1.41-1.5l4.31-5.37L9 9H3V7h18v2h-2l-3.72 4.63M14 12l2.42-3h-4.84L14 12Z" transform="matrix(1.5 0 0 1.5 396 108)" id="mdi-iron-board" fill="#fff"/><path d="M21 6c-1.66 0-3 1.34-3 3v4c0 .55-.45 1-1 1v-4c0-1.66-1.34-3-3-3h-4c-1.66 0-3 1.34-3 3h2c0-.55.45-1 1-1h4c.55 0 1 .45 1 1v1H6c-2.21 0-4 1.79-4 4v3h15v-2c1.66 0 3-1.34 3-3V9c0-.55.45-1 1-1h1V6h-1m-6 10H4v-1c0-1.1.9-2 2-2h9v3Z" transform="matrix(1.5 0 0 1.5 432 108)" id="mdi-iron-outline" fill="#555"/><path d="M21 6c-1.66 0-3 1.34-3 3v4c0 .55-.45 1-1 1v-4c0-1.66-1.34-3-3-3h-4c-1.66 0-3 1.34-3 3h2c0-.55.45-1 1-1h4c.55 0 1 .45 1 1v1H6c-2.21 0-4 1.79-4 4v3h15v-2c1.66 0 3-1.34 3-3V9c0-.55.45-1 1-1h1V6h-1m-6 10H4v-1c0-1.1.9-2 2-2h9v3Z" transform="matrix(1.5 0 0 1.5 468 108)" id="mdi-iron-outline" fill="#fff"/><path d="M20 20c-1.39 0-2.78-.47-4-1.33-2.44 1.71-5.56 1.71-8 0C6.78 19.53 5.39 20 4 20H2v2h2c1.37 0 2.74-.35 4-1 2.5 1.3 5.5 1.3 8 0 1.26.65 2.62 1 4 1h2v-2h-2m.78-1H20c-1.18 0-2.36-.4-3.42-1.15l-.58-.4-.58.4c-1.03.72-2.21 1.1-3.42 1.1-1.23 0-2.41-.38-3.44-1.1l-.56-.4-.57.4C6.36 18.6 5.18 19 4 19h-.78c.53-1.46 2.36-4 8.78-4 2 0 3 .24 3 .24.68-1.37 1.83-4.47 1-8.42l1.06.71c.33 1.43.94 4.22-.26 8.12 2.63.85 3.62 2.35 3.98 3.35M22 7.59c-.79-1.09-2-1.88-3.42-2.06.12.14.23.3.34.47a5.03 5.03 0 0 1-.45 5.95c.59-1.45.53-3.16-.39-4.59-.08-.08-.12-.16-.18-.25-.4-.58-.94-1.05-1.52-1.39-2.03.65-3.5 2.55-3.5 4.78 0 .53.08 1.03.22 1.5-.6-.83-.94-1.83-.94-2.93 0-1.66.8-3.12 2.04-4.04-1.04-.08-2.11.15-3.06.75-.44.27-.82.6-1.14.98.39-.94 1.05-1.76 2-2.36a4.85 4.85 0 0 1 3.39-.71 5.2 5.2 0 0 0-1.06-1.09c-.41-.31-.86-.55-1.33-.72 1 .03 2.04.36 2.91 1.01.44.33.79.73 1.09 1.16.06 0 .12-.01.19-.01A5.03 5.03 0 0 1 22 7.59Z" transform="matrix(1.5 0 0 1.5 504 108)" id="mdi-island" fill="#555"/><path d="M20 20c-1.39 0-2.78-.47-4-1.33-2.44 1.71-5.56 1.71-8 0C6.78 19.53 5.39 20 4 20H2v2h2c1.37 0 2.74-.35 4-1 2.5 1.3 5.5 1.3 8 0 1.26.65 2.62 1 4 1h2v-2h-2m.78-1H20c-1.18 0-2.36-.4-3.42-1.15l-.58-.4-.58.4c-1.03.72-2.21 1.1-3.42 1.1-1.23 0-2.41-.38-3.44-1.1l-.56-.4-.57.4C6.36 18.6 5.18 19 4 19h-.78c.53-1.46 2.36-4 8.78-4 2 0 3 .24 3 .24.68-1.37 1.83-4.47 1-8.42l1.06.71c.33 1.43.94 4.22-.26 8.12 2.63.85 3.62 2.35 3.98 3.35M22 7.59c-.79-1.09-2-1.88-3.42-2.06.12.14.23.3.34.47a5.03 5.03 0 0 1-.45 5.95c.59-1.45.53-3.16-.39-4.59-.08-.08-.12-.16-.18-.25-.4-.58-.94-1.05-1.52-1.39-2.03.65-3.5 2.55-3.5 4.78 0 .53.08 1.03.22 1.5-.6-.83-.94-1.83-.94-2.93 0-1.66.8-3.12 2.04-4.04-1.04-.08-2.11.15-3.06.75-.44.27-.82.6-1.14.98.39-.94 1.05-1.76 2-2.36a4.85 4.85 0 0 1 3.39-.71 5.2 5.2 0 0 0-1.06-1.09c-.41-.31-.86-.55-1.33-.72 1 .03 2.04.36 2.91 1.01.44.33.79.73 1.09 1.16.06 0 .12-.01.19-.01A5.03 5.03 0 0 1 22 7.59Z" transform="matrix(1.5 0 0 1.5 540 108)" id="mdi-island" fill="#fff"/><path d="M14 1h-4C5 1 5 3 5 3v12s0 2 5 2v2h1v1c0 1.21.8 3 3 3h4v-2h-4c-.81 0-1-.55-1-1v-1h1v-2c5 0 5-2 5-2V3s0-2-5-2m3 11h-3v-1h3v1m0-7h-3v1h3v2h-3v1h3v1H7V3.5c.3-.18 1.13-.5 3-.5h4c1.88 0 2.7.32 3 .5V5Z" transform="matrix(1.5 0 0 1.5 576 108)" id="mdi-iv-bag" fill="#555"/><path d="M14 1h-4C5 1 5 3 5 3v12s0 2 5 2v2h1v1c0 1.21.8 3 3 3h4v-2h-4c-.81 0-1-.55-1-1v-1h1v-2c5 0 5-2 5-2V3s0-2-5-2m3 11h-3v-1h3v1m0-7h-3v1h3v2h-3v1h3v1H7V3.5c.3-.18 1.13-.5 3-.5h4c1.88 0 2.7.32 3 .5V5Z" transform="matrix(1.5 0 0 1.5 612 108)" id="mdi-iv-bag" fill="#fff"/><path d="M5.23 5.72C4.61 5.55 5 3.19 5 3.17c0 .02 7.58-3.88 11.7 2.56 4.1 6.42-.84 9.13-2.73 10.33-1.89 1.21-1.24 3.66-1.24 4.07 0 .4-.57.84-.73.28-.12-.57-.75-3.86 1.33-5.25 3.8-2.55 4.57-5.06 2.67-8.74C14.2 3 8.28 3.41 7.03 4.08c-1.25.67-1.17 1.81-1.8 1.64m4.1 6.91-.22-.47c.12-1.88-1.48-1.77-1.03 1.17.13.83-.61.47-.63.4-.56-2.29-.03-3.51 1.1-3.28 1.07.23.98 1.38.98 1.38.03-.05 1.47-1.66 1.97-.91 1.08 1.58-.97 3.55-1.09 3.71-.13.15-.27.42-.49.21-.22-.2-.2-.34-.03-.57 2.88-4.27-.3-2.05-.56-1.64m-2.83 2.7v-.02s1.5 2.82 4.11 1.77c.39-.16.56.06.59.19.07.26-.07.37-.34.46-3 .99-4.97-1.1-5.23-1.6-.24-.45-.13-.75.12-.91.25-.16.75.11.75.11M6 17.5s1.67 2 4.8 1.5c.29-.06.4.13.45.38.05.25-.03.46-.33.56-.29.09-3.84.56-5.79-2.22-.13-.16.17-.36.34-.36s.56.14.53.14m-.05 1.89c1.58 2.11 4.38 2.16 5.33 1.49.22-.15.42.17.28.31-1.92 1.97-5.89-.19-6.29-.86-.18-.28-.14-.67.04-.88.19-.2.62-.07.64-.06Z" transform="matrix(1.5 0 0 1.5 648 108)" id="mdi-jabber" fill="#555"/><path d="M5.23 5.72C4.61 5.55 5 3.19 5 3.17c0 .02 7.58-3.88 11.7 2.56 4.1 6.42-.84 9.13-2.73 10.33-1.89 1.21-1.24 3.66-1.24 4.07 0 .4-.57.84-.73.28-.12-.57-.75-3.86 1.33-5.25 3.8-2.55 4.57-5.06 2.67-8.74C14.2 3 8.28 3.41 7.03 4.08c-1.25.67-1.17 1.81-1.8 1.64m4.1 6.91-.22-.47c.12-1.88-1.48-1.77-1.03 1.17.13.83-.61.47-.63.4-.56-2.29-.03-3.51 1.1-3.28 1.07.23.98 1.38.98 1.38.03-.05 1.47-1.66 1.97-.91 1.08 1.58-.97 3.55-1.09 3.71-.13.15-.27.42-.49.21-.22-.2-.2-.34-.03-.57 2.88-4.27-.3-2.05-.56-1.64m-2.83 2.7v-.02s1.5 2.82 4.11 1.77c.39-.16.56.06.59.19.07.26-.07.37-.34.46-3 .99-4.97-1.1-5.23-1.6-.24-.45-.13-.75.12-.91.25-.16.75.11.75.11M6 17.5s1.67 2 4.8 1.5c.29-.06.4.13.45.38.05.25-.03.46-.33.56-.29.09-3.84.56-5.79-2.22-.13-.16.17-.36.34-.36s.56.14.53.14m-.05 1.89c1.58 2.11 4.38 2.16 5.33 1.49.22-.15.42.17.28.31-1.92 1.97-5.89-.19-6.29-.86-.18-.28-.14-.67.04-.88.19-.2.62-.07.64-.06Z" transform="matrix(1.5 0 0 1.5 684 108)" id="mdi-jabber" fill="#fff"/><path d="M19 13V7h1V4H4v3h1v6H2c0 .93.5 1.71 1.5 1.93V20a1 1 0 0 0 1 1h1a1 1 0 0 0 1-1v-1h11v1a1 1 0 0 0 1 1h1a1 1 0 0 0 1-1v-5.07c1-.23 1.5-1 1.5-1.93h-3M8 15a1.5 1.5 0 0 1-1.5-1.5A1.5 1.5 0 0 1 8 12a1.5 1.5 0 0 1 1.5 1.5A1.5 1.5 0 0 1 8 15m8 0a1.5 1.5 0 0 1-1.5-1.5A1.5 1.5 0 0 1 16 12a1.5 1.5 0 0 1 1.5 1.5A1.5 1.5 0 0 1 16 15m1.5-4.5c-1.58-.32-3.47-.5-5.5-.5s-4 .18-5.5.5V7h11v3.5Z" transform="matrix(1.5 0 0 1.5 0 144)" id="mdi-jeepney" fill="#555"/><path d="M19 13V7h1V4H4v3h1v6H2c0 .93.5 1.71 1.5 1.93V20a1 1 0 0 0 1 1h1a1 1 0 0 0 1-1v-1h11v1a1 1 0 0 0 1 1h1a1 1 0 0 0 1-1v-5.07c1-.23 1.5-1 1.5-1.93h-3M8 15a1.5 1.5 0 0 1-1.5-1.5A1.5 1.5 0 0 1 8 12a1.5 1.5 0 0 1 1.5 1.5A1.5 1.5 0 0 1 8 15m8 0a1.5 1.5 0 0 1-1.5-1.5A1.5 1.5 0 0 1 16 12a1.5 1.5 0 0 1 1.5 1.5A1.5 1.5 0 0 1 16 15m1.5-4.5c-1.58-.32-3.47-.5-5.5-.5s-4 .18-5.5.5V7h11v3.5Z" transform="matrix(1.5 0 0 1.5 36 144)" id="mdi-jeepney" fill="#fff"/><path d="M19.5 14.5a.898.898 0 0 0-1 1c0 .67-1 .67-1 0v-2.3l1.7-.5c.72-.34 1.21-1.02 1.3-1.8C20.5 5.5 16.7 2 12 2s-8.5 3.5-8.5 8.9c.06.8.56 1.5 1.3 1.8l1.7.5v2.3a.5.5 0 0 1-.5.5.5.5 0 0 1-.5-.5.898.898 0 0 0-1-1 .898.898 0 0 0-1 1A2.394 2.394 0 0 0 6 18c1.41.06 2.56-1.09 2.5-2.5v-1.8h1v5.7c0 .67-1 .67-1 0a.898.898 0 0 0-1-1 .898.898 0 0 0-1 1A2.4 2.4 0 0 0 9 22c1.41.06 2.56-1.09 2.5-2.5V14h1v5.5A2.394 2.394 0 0 0 15 22c1.41.06 2.56-1.09 2.5-2.5 0-1.33-2-1.33-2 0 0 .67-1 .67-1 0v-5.7h1v1.8c0 1.36 1.13 2.46 2.5 2.4 1.41.06 2.56-1.09 2.5-2.5a.898.898 0 0 0-1-1m-8.9-9.8A5.566 5.566 0 0 0 7 7.3c-.17.2-.5.27-.7.1a.507.507 0 0 1-.1-.7 6.904 6.904 0 0 1 4.2-3c.27-.02.51.15.6.4.06.27-.12.55-.4.6Z" transform="matrix(1.5 0 0 1.5 72 144)" id="mdi-jellyfish" fill="#555"/><path d="M19.5 14.5a.898.898 0 0 0-1 1c0 .67-1 .67-1 0v-2.3l1.7-.5c.72-.34 1.21-1.02 1.3-1.8C20.5 5.5 16.7 2 12 2s-8.5 3.5-8.5 8.9c.06.8.56 1.5 1.3 1.8l1.7.5v2.3a.5.5 0 0 1-.5.5.5.5 0 0 1-.5-.5.898.898 0 0 0-1-1 .898.898 0 0 0-1 1A2.394 2.394 0 0 0 6 18c1.41.06 2.56-1.09 2.5-2.5v-1.8h1v5.7c0 .67-1 .67-1 0a.898.898 0 0 0-1-1 .898.898 0 0 0-1 1A2.4 2.4 0 0 0 9 22c1.41.06 2.56-1.09 2.5-2.5V14h1v5.5A2.394 2.394 0 0 0 15 22c1.41.06 2.56-1.09 2.5-2.5 0-1.33-2-1.33-2 0 0 .67-1 .67-1 0v-5.7h1v1.8c0 1.36 1.13 2.46 2.5 2.4 1.41.06 2.56-1.09 2.5-2.5a.898.898 0 0 0-1-1m-8.9-9.8A5.566 5.566 0 0 0 7 7.3c-.17.2-.5.27-.7.1a.507.507 0 0 1-.1-.7 6.904 6.904 0 0 1 4.2-3c.27-.02.51.15.6.4.06.27-.12.55-.4.6Z" transform="matrix(1.5 0 0 1.5 108 144)" id="mdi-jellyfish" fill="#fff"/><path d="M12 4c3.8 0 6.5 2.8 6.5 6.8a18.311 18.311 0 0 1-13 0C5.5 6.8 8.2 4 12 4m0-2c-4.7 0-8.5 3.5-8.5 8.9.06.8.56 1.5 1.3 1.8l1.7.5v2.3a.5.5 0 0 1-.5.5.5.5 0 0 1-.5-.5.898.898 0 0 0-1-1 .898.898 0 0 0-1 1A2.405 2.405 0 0 0 5.9 18H6c1.41.06 2.56-1.09 2.5-2.5v-1.8h1v5.7c0 .67-1 .67-1 0a.898.898 0 0 0-1-1 .898.898 0 0 0-1 1c-.11 1.4 1 2.6 2.4 2.6H9c1.41.06 2.56-1.09 2.5-2.5V14h1v5.5A2.394 2.394 0 0 0 15 22h.1c1.37 0 2.46-1.14 2.4-2.5 0-1.33-2-1.33-2 0 0 .67-1 .67-1 0v-5.7h1v1.8c0 1.36 1.13 2.46 2.5 2.4h.1c1.37 0 2.46-1.14 2.4-2.5 0-1.33-2-1.33-2 0 0 .67-1 .67-1 0v-2.3l1.7-.5c.72-.34 1.21-1.02 1.3-1.8C20.5 5.5 16.7 2 12 2m0 4.2c-1.47.4-2.76 1.33-3.6 2.6-.4.53-1.2-.07-.8-.6a7.47 7.47 0 0 1 4.2-3 .5.5 0 0 1 .6.4c.1.3-.1.5-.4.6Z" transform="matrix(1.5 0 0 1.5 144 144)" id="mdi-jellyfish-outline" fill="#555"/><path d="M12 4c3.8 0 6.5 2.8 6.5 6.8a18.311 18.311 0 0 1-13 0C5.5 6.8 8.2 4 12 4m0-2c-4.7 0-8.5 3.5-8.5 8.9.06.8.56 1.5 1.3 1.8l1.7.5v2.3a.5.5 0 0 1-.5.5.5.5 0 0 1-.5-.5.898.898 0 0 0-1-1 .898.898 0 0 0-1 1A2.405 2.405 0 0 0 5.9 18H6c1.41.06 2.56-1.09 2.5-2.5v-1.8h1v5.7c0 .67-1 .67-1 0a.898.898 0 0 0-1-1 .898.898 0 0 0-1 1c-.11 1.4 1 2.6 2.4 2.6H9c1.41.06 2.56-1.09 2.5-2.5V14h1v5.5A2.394 2.394 0 0 0 15 22h.1c1.37 0 2.46-1.14 2.4-2.5 0-1.33-2-1.33-2 0 0 .67-1 .67-1 0v-5.7h1v1.8c0 1.36 1.13 2.46 2.5 2.4h.1c1.37 0 2.46-1.14 2.4-2.5 0-1.33-2-1.33-2 0 0 .67-1 .67-1 0v-2.3l1.7-.5c.72-.34 1.21-1.02 1.3-1.8C20.5 5.5 16.7 2 12 2m0 4.2c-1.47.4-2.76 1.33-3.6 2.6-.4.53-1.2-.07-.8-.6a7.47 7.47 0 0 1 4.2-3 .5.5 0 0 1 .6.4c.1.3-.1.5-.4.6Z" transform="matrix(1.5 0 0 1.5 180 144)" id="mdi-jellyfish-outline" fill="#fff"/><path d="M11.53 2c0 2.4 1.97 4.35 4.35 4.35h1.78v1.7c0 2.4 1.94 4.34 4.34 4.35V2.84a.84.84 0 0 0-.84-.84h-9.63M6.77 6.8a4.362 4.362 0 0 0 4.34 4.34h1.8v1.72a4.362 4.362 0 0 0 4.34 4.34V7.63a.841.841 0 0 0-.83-.83H6.77M2 11.6c0 2.4 1.95 4.34 4.35 4.34h1.78v1.72c.01 2.39 1.95 4.34 4.34 4.34v-9.57a.84.84 0 0 0-.84-.84L2 11.6Z" transform="matrix(1.5 0 0 1.5 216 144)" id="mdi-jira" fill="#555"/><path d="M11.53 2c0 2.4 1.97 4.35 4.35 4.35h1.78v1.7c0 2.4 1.94 4.34 4.34 4.35V2.84a.84.84 0 0 0-.84-.84h-9.63M6.77 6.8a4.362 4.362 0 0 0 4.34 4.34h1.8v1.72a4.362 4.362 0 0 0 4.34 4.34V7.63a.841.841 0 0 0-.83-.83H6.77M2 11.6c0 2.4 1.95 4.34 4.35 4.34h1.78v1.72c.01 2.39 1.95 4.34 4.34 4.34v-9.57a.84.84 0 0 0-.84-.84L2 11.6Z" transform="matrix(1.5 0 0 1.5 252 144)" id="mdi-jira" fill="#fff"/><path d="M22.88 10.41a5.005 5.005 0 0 1-7.04-.62c-1.78-2.12-1.5-5.29.61-7.04l.51-.38A5.024 5.024 0 0 0 16.8 9c1.63 1.94 4.45 2.32 6.54.97l-.46.44M21.1 14.5a7.48 7.48 0 0 1-10.56-.92c-2.67-3.17-2.25-7.9.92-10.58l.92-.64a7.494 7.494 0 0 0-.12 9.78c2.42 2.86 6.54 3.49 9.65 1.58l-.81.78m-1.13 4.88c-4.44 3.73-11.07 3.15-14.8-1.3C1.45 13.64 2.03 7 6.47 3.29l1.11-.79c-3.51 3.8-3.73 9.73-.3 13.82 3.43 4.08 9.31 4.9 13.68 2.11l-.99.95Z" transform="matrix(1.5 0 0 1.5 288 144)" id="mdi-jquery" fill="#555"/><path d="M22.88 10.41a5.005 5.005 0 0 1-7.04-.62c-1.78-2.12-1.5-5.29.61-7.04l.51-.38A5.024 5.024 0 0 0 16.8 9c1.63 1.94 4.45 2.32 6.54.97l-.46.44M21.1 14.5a7.48 7.48 0 0 1-10.56-.92c-2.67-3.17-2.25-7.9.92-10.58l.92-.64a7.494 7.494 0 0 0-.12 9.78c2.42 2.86 6.54 3.49 9.65 1.58l-.81.78m-1.13 4.88c-4.44 3.73-11.07 3.15-14.8-1.3C1.45 13.64 2.03 7 6.47 3.29l1.11-.79c-3.51 3.8-3.73 9.73-.3 13.82 3.43 4.08 9.31 4.9 13.68 2.11l-.99.95Z" transform="matrix(1.5 0 0 1.5 324 144)" id="mdi-jquery" fill="#fff"/><path d="M17.34 13.7c0 1.3-1.11 2.34-2.48 2.34-1.21 0-2.22-1.04-3.11-2l-.25-.25c0-.03-.03-.06-.05-.09-.71-.74-1.49-1.48-2.24-1.48-.89 0-1.61.66-1.61 1.47 0 .81.72 1.48 1.61 1.48.76 0 1.14-.42 1.42-.72l.07-.08c.16-.17.44-.18.61-.02.19.15.19.44.02.61l-.06.07c-.33.35-.92 1-2.06 1-1.37 0-2.48-1.03-2.48-2.34 0-1.29 1.11-2.34 2.48-2.34 1.21 0 2.22 1.06 3.11 2l.24.25.06.09c.71.74 1.49 1.48 2.24 1.48.89 0 1.61-.67 1.61-1.48 0-.81-.72-1.47-1.61-1.47-.75 0-1.14.42-1.42.72l-.07.06c-.16.19-.43.2-.61.04a.45.45 0 0 1-.02-.62l.07-.06c.32-.36.92-1 2.05-1 1.37 0 2.48 1.04 2.48 2.34M22 14.85c0 1.11-.43 2.15-1.22 2.94-.78.78-1.83 1.21-2.94 1.21H6.28c-2.32-.04-4.21-1.94-4.21-4.25 0-1.38.69-2.68 1.82-3.47-.04-.19-.06-.38-.06-.58 0-1.67 1.37-3.03 3.05-3.03.51 0 1 .12 1.44.36A6.147 6.147 0 0 1 13.6 5c3.37 0 6.1 2.72 6.1 6.07v.07c1.41.7 2.3 2.13 2.3 3.71m-.87 0c0-1.35-.8-2.53-2.04-3.04a.438.438 0 0 1-.27-.43l.01-.09c0-.07.01-.15.01-.22 0-2.87-2.34-5.2-5.24-5.2-2 0-3.86 1.16-4.73 2.96-.05.12-.16.21-.29.24-.12.03-.26 0-.36-.07-.39-.31-.85-.47-1.34-.47-1.2 0-2.18.97-2.18 2.17 0 .22.03.44.1.64.06.2-.02.41-.19.51-1.05.62-1.67 1.7-1.67 2.9 0 1.84 1.5 3.35 3.35 3.38h11.54c.89 0 1.71-.34 2.33-.96.63-.62.97-1.44.97-2.32Z" transform="matrix(1.5 0 0 1.5 360 144)" id="mdi-jsfiddle" fill="#555"/><path d="M17.34 13.7c0 1.3-1.11 2.34-2.48 2.34-1.21 0-2.22-1.04-3.11-2l-.25-.25c0-.03-.03-.06-.05-.09-.71-.74-1.49-1.48-2.24-1.48-.89 0-1.61.66-1.61 1.47 0 .81.72 1.48 1.61 1.48.76 0 1.14-.42 1.42-.72l.07-.08c.16-.17.44-.18.61-.02.19.15.19.44.02.61l-.06.07c-.33.35-.92 1-2.06 1-1.37 0-2.48-1.03-2.48-2.34 0-1.29 1.11-2.34 2.48-2.34 1.21 0 2.22 1.06 3.11 2l.24.25.06.09c.71.74 1.49 1.48 2.24 1.48.89 0 1.61-.67 1.61-1.48 0-.81-.72-1.47-1.61-1.47-.75 0-1.14.42-1.42.72l-.07.06c-.16.19-.43.2-.61.04a.45.45 0 0 1-.02-.62l.07-.06c.32-.36.92-1 2.05-1 1.37 0 2.48 1.04 2.48 2.34M22 14.85c0 1.11-.43 2.15-1.22 2.94-.78.78-1.83 1.21-2.94 1.21H6.28c-2.32-.04-4.21-1.94-4.21-4.25 0-1.38.69-2.68 1.82-3.47-.04-.19-.06-.38-.06-.58 0-1.67 1.37-3.03 3.05-3.03.51 0 1 .12 1.44.36A6.147 6.147 0 0 1 13.6 5c3.37 0 6.1 2.72 6.1 6.07v.07c1.41.7 2.3 2.13 2.3 3.71m-.87 0c0-1.35-.8-2.53-2.04-3.04a.438.438 0 0 1-.27-.43l.01-.09c0-.07.01-.15.01-.22 0-2.87-2.34-5.2-5.24-5.2-2 0-3.86 1.16-4.73 2.96-.05.12-.16.21-.29.24-.12.03-.26 0-.36-.07-.39-.31-.85-.47-1.34-.47-1.2 0-2.18.97-2.18 2.17 0 .22.03.44.1.64.06.2-.02.41-.19.51-1.05.62-1.67 1.7-1.67 2.9 0 1.84 1.5 3.35 3.35 3.38h11.54c.89 0 1.71-.34 2.33-.96.63-.62.97-1.44.97-2.32Z" transform="matrix(1.5 0 0 1.5 396 144)" id="mdi-jsfiddle" fill="#fff"/><path d="M21 4.5v6c0 .7-.5 1.4-1.2 1.5v5.3c0 1.3-.8 3.8-3.8 3.8h-1.5c.4-.4.8-.9 1-1.5h.5c2.1 0 2.2-1.9 2.2-2.2V12c-.7-.1-1.2-.7-1.2-1.5v-6c0-.8.7-1.5 1.5-1.5h1c.8 0 1.5.7 1.5 1.5m-6.2 13.7c0 1.5-1.2 2.8-2.8 2.8H8c-3 0-3.8-2.5-3.8-3.8V12c-.7-.1-1.2-.8-1.2-1.5v-6C3 3.7 3.7 3 4.5 3h1C6.3 3 7 3.7 7 4.5v6c0 .7-.5 1.4-1.2 1.5v5.3c0 .4.1 2.2 2.2 2.2h1.6c-.2-.4-.3-.8-.3-1.2v-10c0-1.5 1.2-2.8 2.8-2.8s2.7 1.2 2.7 2.8m-1.6-.1c0-.6-.5-1.2-1.2-1.2s-1.2.6-1.2 1.2v10c0 .7.6 1.2 1.2 1.2s1.2-.6 1.2-1.2v-10Z" transform="matrix(1.5 0 0 1.5 432 144)" id="mdi-jump-rope" fill="#555"/><path d="M21 4.5v6c0 .7-.5 1.4-1.2 1.5v5.3c0 1.3-.8 3.8-3.8 3.8h-1.5c.4-.4.8-.9 1-1.5h.5c2.1 0 2.2-1.9 2.2-2.2V12c-.7-.1-1.2-.7-1.2-1.5v-6c0-.8.7-1.5 1.5-1.5h1c.8 0 1.5.7 1.5 1.5m-6.2 13.7c0 1.5-1.2 2.8-2.8 2.8H8c-3 0-3.8-2.5-3.8-3.8V12c-.7-.1-1.2-.8-1.2-1.5v-6C3 3.7 3.7 3 4.5 3h1C6.3 3 7 3.7 7 4.5v6c0 .7-.5 1.4-1.2 1.5v5.3c0 .4.1 2.2 2.2 2.2h1.6c-.2-.4-.3-.8-.3-1.2v-10c0-1.5 1.2-2.8 2.8-2.8s2.7 1.2 2.7 2.8m-1.6-.1c0-.6-.5-1.2-1.2-1.2s-1.2.6-1.2 1.2v10c0 .7.6 1.2 1.2 1.2s1.2-.6 1.2-1.2v-10Z" transform="matrix(1.5 0 0 1.5 468 144)" id="mdi-jump-rope" fill="#fff"/><path d="M11.2 10.6c1 1 2.2 1.5 3.6 1.5l.1 2.1c-1.9 0-3.6-.7-5.1-2.1l-.7-.7-2.3 2.4L9 15.9v6H7v-5.2l-1.3-1.2v2.2L1.5 22 .1 20.6 3.7 17l-1.2-3.5c-.2-.6.1-1.1.6-1.5l3.3-3.3c.4-.5.9-.7 1.4-.7.5 0 .8.1 1.1.3l2.3 2.3M24 11.9h-2V8.5l-1.8-.7.9 4.4 1 5.2.9 4.4h-2.1l-1.8-8-2.1 2v6h-2v-7.5l2.1-2-.6-3c-.6.6-1.3 1.2-2.1 1.6-.9-.1-1.8-.5-2.5-1.2 1.6-.3 2.7-1.1 3.4-2.3l1-1.6c.6-1 1.5-1.3 2.6-.8L24 7.2v4.7M11.4 4.4c1.1 0 2 .9 2 2s-.9 2-2 2-2-.9-2-2 .9-2 2-2M16.5.3c1.1 0 2 .9 2 2s-.9 2-2 2-2-.9-2-2 .9-2 2-2Z" transform="matrix(1.5 0 0 1.5 504 144)" id="mdi-kabaddi" fill="#555"/><path d="M11.2 10.6c1 1 2.2 1.5 3.6 1.5l.1 2.1c-1.9 0-3.6-.7-5.1-2.1l-.7-.7-2.3 2.4L9 15.9v6H7v-5.2l-1.3-1.2v2.2L1.5 22 .1 20.6 3.7 17l-1.2-3.5c-.2-.6.1-1.1.6-1.5l3.3-3.3c.4-.5.9-.7 1.4-.7.5 0 .8.1 1.1.3l2.3 2.3M24 11.9h-2V8.5l-1.8-.7.9 4.4 1 5.2.9 4.4h-2.1l-1.8-8-2.1 2v6h-2v-7.5l2.1-2-.6-3c-.6.6-1.3 1.2-2.1 1.6-.9-.1-1.8-.5-2.5-1.2 1.6-.3 2.7-1.1 3.4-2.3l1-1.6c.6-1 1.5-1.3 2.6-.8L24 7.2v4.7M11.4 4.4c1.1 0 2 .9 2 2s-.9 2-2 2-2-.9-2-2 .9-2 2-2M16.5.3c1.1 0 2 .9 2 2s-.9 2-2 2-2-.9-2-2 .9-2 2-2Z" transform="matrix(1.5 0 0 1.5 540 144)" id="mdi-kabaddi" fill="#fff"/><path d="M19.8 6.59 19 7.97v2.07l-1.31 1.57-.38 1.64L16 14l-.5-.88.94-.53.26-1.14.07-.3.7-.84c.18-.21.15-.53-.06-.7a.506.506 0 0 0-.71.06l-.85 1.02-.29 1.24c-.18.03-.36.07-.56.07-.69 0-1.32-.24-1.77-.6-.08 1.3-.5 2.41-1.1 3.03l-1.63 1.76-.54 3.6L8.07 21l-.54-.83 1.51-.98.46-3.27v-.01l.5-1.37c-.53-.46-.92-1.26-1.12-2.24l-.17.31c-.36.64-.71 1.29-1.15 1.95-.45.64-.9 1.34-1.78 1.88-.44.28-1.08.4-1.61.29-.56-.12-1.03-.47-1.31-.84-.55-.76-.71-1.54-.86-2.27l.97-.26c.23.64.53 1.29.91 1.64.38.33.69.26.96 0 .32-.27.63-.85.89-1.45.27-.61.49-1.27.72-1.95.48-1.36.94-2.78 1.75-4.24.42-.72.93-1.47 1.72-2.14C10.7 4.55 11.73 4 13 4s2.7 1.22 3.58 2.34c.42.55 1.29.48 1.64-.13l.92-1.58a.929.929 0 0 1-.35-.23.984.984 0 0 1 0-1.4l1.14 1.13c.03 0 .07-.02.07-.02a1 1 0 0 1 .91.58L22 7l-1 .5-1.2-.91Z" transform="matrix(1.5 0 0 1.5 576 144)" id="mdi-kangaroo" fill="#555"/><path d="M19.8 6.59 19 7.97v2.07l-1.31 1.57-.38 1.64L16 14l-.5-.88.94-.53.26-1.14.07-.3.7-.84c.18-.21.15-.53-.06-.7a.506.506 0 0 0-.71.06l-.85 1.02-.29 1.24c-.18.03-.36.07-.56.07-.69 0-1.32-.24-1.77-.6-.08 1.3-.5 2.41-1.1 3.03l-1.63 1.76-.54 3.6L8.07 21l-.54-.83 1.51-.98.46-3.27v-.01l.5-1.37c-.53-.46-.92-1.26-1.12-2.24l-.17.31c-.36.64-.71 1.29-1.15 1.95-.45.64-.9 1.34-1.78 1.88-.44.28-1.08.4-1.61.29-.56-.12-1.03-.47-1.31-.84-.55-.76-.71-1.54-.86-2.27l.97-.26c.23.64.53 1.29.91 1.64.38.33.69.26.96 0 .32-.27.63-.85.89-1.45.27-.61.49-1.27.72-1.95.48-1.36.94-2.78 1.75-4.24.42-.72.93-1.47 1.72-2.14C10.7 4.55 11.73 4 13 4s2.7 1.22 3.58 2.34c.42.55 1.29.48 1.64-.13l.92-1.58a.929.929 0 0 1-.35-.23.984.984 0 0 1 0-1.4l1.14 1.13c.03 0 .07-.02.07-.02a1 1 0 0 1 .91.58L22 7l-1 .5-1.2-.91Z" transform="matrix(1.5 0 0 1.5 612 144)" id="mdi-kangaroo" fill="#fff"/><path d="M19 1.27c-.96-.55-2.18-.23-2.73.73-.56.95-.23 2.18.73 2.73A2 2 0 0 0 19.73 4c.55-.96.22-2.18-.73-2.73m2.27 8.07-2.57 4.45-1.74-1 1.73-3-1.55-1.29L14 13.92V22h-2v-8.61l-9.53-5.5 1-1.73 7.8 4.5 2.4-4.16-6.39-2.33L8 2.29l6.73 2.45.27.1c.39.16.76.31 1.12.51l.84.49c.35.2.69.44 1 .7l.23.2 3.08 2.6Z" transform="matrix(1.5 0 0 1.5 648 144)" id="mdi-karate" fill="#555"/><path d="M19 1.27c-.96-.55-2.18-.23-2.73.73-.56.95-.23 2.18.73 2.73A2 2 0 0 0 19.73 4c.55-.96.22-2.18-.73-2.73m2.27 8.07-2.57 4.45-1.74-1 1.73-3-1.55-1.29L14 13.92V22h-2v-8.61l-9.53-5.5 1-1.73 7.8 4.5 2.4-4.16-6.39-2.33L8 2.29l6.73 2.45.27.1c.39.16.76.31 1.12.51l.84.49c.35.2.69.44 1 .7l.23.2 3.08 2.6Z" transform="matrix(1.5 0 0 1.5 684 144)" id="mdi-karate" fill="#fff"/><path d="M22 23v-2c-1.42.05-2.79-.1-4-1-1.77 1.25-4.23 1.25-6 0-1.77 1.25-4.23 1.25-6 0-1.21.9-2.58 1.05-4 1v2c1.38.05 2.79-.06 4-.75 1.84 1 4.16 1 6 0 1.84 1 4.16 1 6 0 1.21.69 2.62.8 4 .75m1.39-5.79c-2.26-.92-5.09-1.65-7.73-1.99l3.7-8.34 1.31-.47 1.33-3L18.8 2l-1.3 2.95.5 1.32-1.69 3.7-2.81 1.5L11 10.2a.492.492 0 0 0-.26-.14c-.92-.33-1.97.26-2.24 1.17l-1.37 4.18c-.54-.23-5.88 1.56-6.215 1.71L0 17.47c1.33.57 2.2.92 3.94 1.41.81-.25 1.5-.79 2.06-1.41 1.5 1.95 4.5 1.95 6 0 1.5 1.95 4.5 1.95 6 0 .56.62 1.25 1.16 2.06 1.41l2.89-.97 1.05-.44-.61-.26m-9.33-2.13c-.99-.08-2-.08-3-.08l.71-2.17 1.73.94 1.5-.85-.94 2.16M14 7.5c0 1.11-.89 2-2 2s-2-.89-2-2 .9-2 2-2 2 .9 2 2Z" transform="matrix(1.5 0 0 1.5 0 180)" id="mdi-kayaking" fill="#555"/><path d="M22 23v-2c-1.42.05-2.79-.1-4-1-1.77 1.25-4.23 1.25-6 0-1.77 1.25-4.23 1.25-6 0-1.21.9-2.58 1.05-4 1v2c1.38.05 2.79-.06 4-.75 1.84 1 4.16 1 6 0 1.84 1 4.16 1 6 0 1.21.69 2.62.8 4 .75m1.39-5.79c-2.26-.92-5.09-1.65-7.73-1.99l3.7-8.34 1.31-.47 1.33-3L18.8 2l-1.3 2.95.5 1.32-1.69 3.7-2.81 1.5L11 10.2a.492.492 0 0 0-.26-.14c-.92-.33-1.97.26-2.24 1.17l-1.37 4.18c-.54-.23-5.88 1.56-6.215 1.71L0 17.47c1.33.57 2.2.92 3.94 1.41.81-.25 1.5-.79 2.06-1.41 1.5 1.95 4.5 1.95 6 0 1.5 1.95 4.5 1.95 6 0 .56.62 1.25 1.16 2.06 1.41l2.89-.97 1.05-.44-.61-.26m-9.33-2.13c-.99-.08-2-.08-3-.08l.71-2.17 1.73.94 1.5-.85-.94 2.16M14 7.5c0 1.11-.89 2-2 2s-2-.89-2-2 .9-2 2-2 2 .9 2 2Z" transform="matrix(1.5 0 0 1.5 36 180)" id="mdi-kayaking" fill="#fff"/><path d="M5 22v-2h1v-4H5v-2h1v-3H5V7h6V3h-1V2h4v1h-1v4h6v4h-1v3h1v2h-1v4h1v2H5M17 9a1 1 0 0 0-1-1h-2a1 1 0 0 0-1 1 1 1 0 0 0 1 1h2a1 1 0 0 0 1-1Z" transform="matrix(1.5 0 0 1.5 72 180)" id="mdi-keg" fill="#555"/><path d="M5 22v-2h1v-4H5v-2h1v-3H5V7h6V3h-1V2h4v1h-1v4h6v4h-1v3h1v2h-1v4h1v2H5M17 9a1 1 0 0 0-1-1h-2a1 1 0 0 0-1 1 1 1 0 0 0 1 1h2a1 1 0 0 0 1-1Z" transform="matrix(1.5 0 0 1.5 108 180)" id="mdi-keg" fill="#fff"/><path d="M12.5 3C7.81 3 4 5.69 4 9c0 1.19.5 2.34 1.44 3.33A6.797 6.797 0 0 0 4 16.5V20c0 1.11.89 2 2 2h13c1.11 0 2-.89 2-2v-3.5c0-1.22-.34-2.43-1-3.5l2-2-3-3-2.1 2.1A9.231 9.231 0 0 0 12.5 9c-1.85 0-3.55.53-4.95 1.41C7.19 9.97 7 9.5 7 9c0-1.79 2.46-3.25 5.5-3.25 1.43 0 2.8.33 3.83.92l2.02-2.02C16.77 3.59 14.68 3 12.5 3m0 8c.34 0 .67.04 1 .09-3.11.48-5.5 3.16-5.5 6.41V20H6v-2.5a6.5 6.5 0 0 1 6.5-6.5Z" transform="matrix(1.5 0 0 1.5 144 180)" id="mdi-kettle" fill="#555"/><path d="M12.5 3C7.81 3 4 5.69 4 9c0 1.19.5 2.34 1.44 3.33A6.797 6.797 0 0 0 4 16.5V20c0 1.11.89 2 2 2h13c1.11 0 2-.89 2-2v-3.5c0-1.22-.34-2.43-1-3.5l2-2-3-3-2.1 2.1A9.231 9.231 0 0 0 12.5 9c-1.85 0-3.55.53-4.95 1.41C7.19 9.97 7 9.5 7 9c0-1.79 2.46-3.25 5.5-3.25 1.43 0 2.8.33 3.83.92l2.02-2.02C16.77 3.59 14.68 3 12.5 3m0 8c.34 0 .67.04 1 .09-3.11.48-5.5 3.16-5.5 6.41V20H6v-2.5a6.5 6.5 0 0 1 6.5-6.5Z" transform="matrix(1.5 0 0 1.5 180 180)" id="mdi-kettle" fill="#fff"/><path d="M9.5 3C4.8 3 1 5.7 1 9c0 1.2.5 2.3 1.4 3.3C1.5 13.5 1 15 1 16.5V20c0 1.1.9 2 2 2h13c1.1 0 2-.9 2-2v-3.5c0-1.2-.3-2.4-1-3.5l2-2-3-3-2.1 2.1C12.6 9.4 11.1 9 9.5 9c-1.8 0-3.6.5-4.9 1.4C4.2 10 4 9.5 4 9c0-1.8 2.5-3.2 5.5-3.2 1.4 0 2.8.3 3.8.9l2-2C13.8 3.6 11.7 3 9.5 3m0 8c.3 0 .7 0 1 .1-3.1.5-5.5 3.1-5.5 6.4V20H3v-2.5C3 13.9 5.9 11 9.5 11M21 13V7h2v6h-2m0 4v-2h2v2h-2Z" transform="matrix(1.5 0 0 1.5 216 180)" id="mdi-kettle-alert" fill="#555"/><path d="M9.5 3C4.8 3 1 5.7 1 9c0 1.2.5 2.3 1.4 3.3C1.5 13.5 1 15 1 16.5V20c0 1.1.9 2 2 2h13c1.1 0 2-.9 2-2v-3.5c0-1.2-.3-2.4-1-3.5l2-2-3-3-2.1 2.1C12.6 9.4 11.1 9 9.5 9c-1.8 0-3.6.5-4.9 1.4C4.2 10 4 9.5 4 9c0-1.8 2.5-3.2 5.5-3.2 1.4 0 2.8.3 3.8.9l2-2C13.8 3.6 11.7 3 9.5 3m0 8c.3 0 .7 0 1 .1-3.1.5-5.5 3.1-5.5 6.4V20H3v-2.5C3 13.9 5.9 11 9.5 11M21 13V7h2v6h-2m0 4v-2h2v2h-2Z" transform="matrix(1.5 0 0 1.5 252 180)" id="mdi-kettle-alert" fill="#fff"/><path d="M9.5 3C4.8 3 1 5.7 1 9c0 1.2.5 2.3 1.4 3.3C1.5 13.5 1 15 1 16.5V20c0 1.1.9 2 2 2h13c1.1 0 2-.9 2-2v-3.5c0-1.2-.3-2.4-1-3.5l2-2-3-3-2.1 2.1c-2.9-1.6-6.5-1.5-9.3.3C4.2 10 4 9.5 4 9c0-1.8 2.5-3.3 5.5-3.3 1.4 0 2.8.4 3.8 1l2-2C13.6 3.5 11.6 3 9.5 3m0 8c3.5 0 6.5 3 6.5 5.5V20H3v-3.5C3 14 6 11 9.5 11m.5 1.5c-3 0-5 1.5-5 4.5v1h2v-1c0-1 0-3.5 3-4.5m11 .5V7h2v6h-2m0 4v-2h2v2h-2Z" transform="matrix(1.5 0 0 1.5 288 180)" id="mdi-kettle-alert-outline" fill="#555"/><path d="M9.5 3C4.8 3 1 5.7 1 9c0 1.2.5 2.3 1.4 3.3C1.5 13.5 1 15 1 16.5V20c0 1.1.9 2 2 2h13c1.1 0 2-.9 2-2v-3.5c0-1.2-.3-2.4-1-3.5l2-2-3-3-2.1 2.1c-2.9-1.6-6.5-1.5-9.3.3C4.2 10 4 9.5 4 9c0-1.8 2.5-3.3 5.5-3.3 1.4 0 2.8.4 3.8 1l2-2C13.6 3.5 11.6 3 9.5 3m0 8c3.5 0 6.5 3 6.5 5.5V20H3v-3.5C3 14 6 11 9.5 11m.5 1.5c-3 0-5 1.5-5 4.5v1h2v-1c0-1 0-3.5 3-4.5m11 .5V7h2v6h-2m0 4v-2h2v2h-2Z" transform="matrix(1.5 0 0 1.5 324 180)" id="mdi-kettle-alert-outline" fill="#fff"/><path d="M22.1 21.5 2.4 1.7 1.1 3l3.6 3.6C4.3 7.3 4 8.1 4 9c0 1.2.5 2.3 1.4 3.3C4.5 13.5 4 15 4 16.5V20c0 1.1.9 2 2 2h13c.3 0 .6-.1.9-.2l.9.9 1.3-1.2M8.2 10.1l-.6.3C7.2 10 7 9.5 7 9v-.1l1.2 1.2M8 17.5V20H6v-2.5c0-2.6 1.5-4.8 3.7-5.9l.8.8C9 13.6 8 15.4 8 17.5m8.9-7.4L19 8l3 3-2 2c.7 1.1 1 2.3 1 3.5v1.3L12.2 9h.3c1.5 0 3.1.4 4.4 1.1M9.5 6.3 7.4 4.2C8.8 3.5 10.6 3 12.5 3c2.2 0 4.3.6 5.8 1.7l-2 2c-1-.6-2.4-.9-3.8-.9-1.1 0-2.1.1-3 .5Z" transform="matrix(1.5 0 0 1.5 360 180)" id="mdi-kettle-off" fill="#555"/><path d="M22.1 21.5 2.4 1.7 1.1 3l3.6 3.6C4.3 7.3 4 8.1 4 9c0 1.2.5 2.3 1.4 3.3C4.5 13.5 4 15 4 16.5V20c0 1.1.9 2 2 2h13c.3 0 .6-.1.9-.2l.9.9 1.3-1.2M8.2 10.1l-.6.3C7.2 10 7 9.5 7 9v-.1l1.2 1.2M8 17.5V20H6v-2.5c0-2.6 1.5-4.8 3.7-5.9l.8.8C9 13.6 8 15.4 8 17.5m8.9-7.4L19 8l3 3-2 2c.7 1.1 1 2.3 1 3.5v1.3L12.2 9h.3c1.5 0 3.1.4 4.4 1.1M9.5 6.3 7.4 4.2C8.8 3.5 10.6 3 12.5 3c2.2 0 4.3.6 5.8 1.7l-2 2c-1-.6-2.4-.9-3.8-.9-1.1 0-2.1.1-3 .5Z" transform="matrix(1.5 0 0 1.5 396 180)" id="mdi-kettle-off" fill="#fff"/><path d="M22.1 21.5 2.4 1.7 1.1 3l3.6 3.6C4.3 7.3 4 8.1 4 9c0 1.2.5 2.3 1.4 3.3C4.5 13.5 4 15 4 16.5V20c0 1.1.9 2 2 2h13c.3 0 .6-.1.9-.2l.9.9 1.3-1.2M8.2 10.1l-.6.3C7.2 10 7 9.5 7 9v-.1l1.2 1.2M6 20v-3.5c0-1.8 1.6-3.9 3.7-4.9l1.2 1.2c-1.8.6-2.9 2-2.9 4.2v1h2v-1c0-.8 0-2.5 1.4-3.7l6.7 6.7H6m10.9-9.9L19 8l3 3-2 2c.7 1.1 1 2.3 1 3.5v1.3l-2.1-2.1c-.4-1.8-2.1-3.6-4.3-4.3L12.2 9c1.6-.1 3.2.3 4.7 1.1M9.5 6.3 7.4 4.2C8.8 3.5 10.6 3 12.5 3c2.1 0 4.1.5 5.8 1.7l-2 2c-1-.6-2.4-1-3.8-1-1.1 0-2.2.2-3 .6Z" transform="matrix(1.5 0 0 1.5 432 180)" id="mdi-kettle-off-outline" fill="#555"/><path d="M22.1 21.5 2.4 1.7 1.1 3l3.6 3.6C4.3 7.3 4 8.1 4 9c0 1.2.5 2.3 1.4 3.3C4.5 13.5 4 15 4 16.5V20c0 1.1.9 2 2 2h13c.3 0 .6-.1.9-.2l.9.9 1.3-1.2M8.2 10.1l-.6.3C7.2 10 7 9.5 7 9v-.1l1.2 1.2M6 20v-3.5c0-1.8 1.6-3.9 3.7-4.9l1.2 1.2c-1.8.6-2.9 2-2.9 4.2v1h2v-1c0-.8 0-2.5 1.4-3.7l6.7 6.7H6m10.9-9.9L19 8l3 3-2 2c.7 1.1 1 2.3 1 3.5v1.3l-2.1-2.1c-.4-1.8-2.1-3.6-4.3-4.3L12.2 9c1.6-.1 3.2.3 4.7 1.1M9.5 6.3 7.4 4.2C8.8 3.5 10.6 3 12.5 3c2.1 0 4.1.5 5.8 1.7l-2 2c-1-.6-2.4-1-3.8-1-1.1 0-2.2.2-3 .6Z" transform="matrix(1.5 0 0 1.5 468 180)" id="mdi-kettle-off-outline" fill="#fff"/><path d="M12.5 3C7.8 3 4 5.7 4 9c0 1.2.5 2.3 1.4 3.3A6.8 6.8 0 0 0 4 16.5V20c0 1.1.9 2 2 2h13a2 2 0 0 0 2-2v-3.5c0-1.2-.3-2.4-1-3.5l2-2-3-3-2.1 2.1a9.2 9.2 0 0 0-9.3.3A2 2 0 0 1 7 9c0-1.8 2.5-3.3 5.5-3.3 1.4 0 2.8.4 3.8 1l2-2A10 10 0 0 0 12.5 3m0 8c3.5 0 6.5 3 6.5 5.5V20H6v-3.5C6 14 9 11 12.5 11m.5 1.5c-3 0-5 1.5-5 4.5v1h2v-1c0-1 0-3.5 3-4.5Z" transform="matrix(1.5 0 0 1.5 504 180)" id="mdi-kettle-outline" fill="#555"/><path d="M12.5 3C7.8 3 4 5.7 4 9c0 1.2.5 2.3 1.4 3.3A6.8 6.8 0 0 0 4 16.5V20c0 1.1.9 2 2 2h13a2 2 0 0 0 2-2v-3.5c0-1.2-.3-2.4-1-3.5l2-2-3-3-2.1 2.1a9.2 9.2 0 0 0-9.3.3A2 2 0 0 1 7 9c0-1.8 2.5-3.3 5.5-3.3 1.4 0 2.8.4 3.8 1l2-2A10 10 0 0 0 12.5 3m0 8c3.5 0 6.5 3 6.5 5.5V20H6v-3.5C6 14 9 11 12.5 11m.5 1.5c-3 0-5 1.5-5 4.5v1h2v-1c0-1 0-3.5 3-4.5Z" transform="matrix(1.5 0 0 1.5 540 180)" id="mdi-kettle-outline" fill="#fff"/><path d="M10 4c-.6 0-1 .4-1 1v1h5V5c0-.6-.4-1-1-1h-3M3 7l1.1 7.1c.1.7.4 1.4 1 2 .4.5 1.1.8 1.9.9 0 .6.4 1 1 1h8c.6 0 1-.4 1-1l-2-6h2l3.3 5 1.7-1-3.3-5 1.3-.8-1-1.7L16.4 9H15V7H8v4l-.8 5c-.7-.1-1.1-.3-1.4-.6-.4-.4-.6-.9-.7-1.5L4 7H3m1 12v2h16v-2H4Z" transform="matrix(1.5 0 0 1.5 576 180)" id="mdi-kettle-pour-over" fill="#555"/><path d="M10 4c-.6 0-1 .4-1 1v1h5V5c0-.6-.4-1-1-1h-3M3 7l1.1 7.1c.1.7.4 1.4 1 2 .4.5 1.1.8 1.9.9 0 .6.4 1 1 1h8c.6 0 1-.4 1-1l-2-6h2l3.3 5 1.7-1-3.3-5 1.3-.8-1-1.7L16.4 9H15V7H8v4l-.8 5c-.7-.1-1.1-.3-1.4-.6-.4-.4-.6-.9-.7-1.5L4 7H3m1 12v2h16v-2H4Z" transform="matrix(1.5 0 0 1.5 612 180)" id="mdi-kettle-pour-over" fill="#fff"/><path d="m19 11-3-3-2.1 2.1A9.231 9.231 0 0 0 9.5 9c-1.85 0-3.55.53-4.95 1.41C4.19 9.97 4 9.5 4 9c0-1.79 2.46-3.25 5.5-3.25 1.43 0 2.8.33 3.83.92l2.02-2.02C13.77 3.59 11.68 3 9.5 3 4.81 3 1 5.69 1 9c0 1.19.5 2.34 1.44 3.33A6.797 6.797 0 0 0 1 16.5V20c0 1.11.89 2 2 2h13c1.11 0 2-.89 2-2v-3.5c0-1.22-.34-2.43-1-3.5l2-2M5 17.5V20H3v-2.5A6.5 6.5 0 0 1 9.5 11c.34 0 .67.04 1 .09-3.11.48-5.5 3.16-5.5 6.41M23 7.3c0 1.63-1.09 3.3-2.62 3.67l-.67-.68L19 9.6h.75c1 0 1.75-1.38 1.75-2.4s-.85-2.06-1.85-2.06v-1.5C21.5 3.64 23 5.45 23 7.3m-5.35-.57c-.62-.61-1-1.45-1-2.38C16.65 2.5 18.15 1 20 1v1.5c-1 0-1.85.83-1.85 1.85S19 6.2 20 6.2v1.5c-.82 0-1.58.25-2.21.68l-1.07-1.07c.28-.22.6-.42.93-.58Z" transform="matrix(1.5 0 0 1.5 648 180)" id="mdi-kettle-steam" fill="#555"/><path d="m19 11-3-3-2.1 2.1A9.231 9.231 0 0 0 9.5 9c-1.85 0-3.55.53-4.95 1.41C4.19 9.97 4 9.5 4 9c0-1.79 2.46-3.25 5.5-3.25 1.43 0 2.8.33 3.83.92l2.02-2.02C13.77 3.59 11.68 3 9.5 3 4.81 3 1 5.69 1 9c0 1.19.5 2.34 1.44 3.33A6.797 6.797 0 0 0 1 16.5V20c0 1.11.89 2 2 2h13c1.11 0 2-.89 2-2v-3.5c0-1.22-.34-2.43-1-3.5l2-2M5 17.5V20H3v-2.5A6.5 6.5 0 0 1 9.5 11c.34 0 .67.04 1 .09-3.11.48-5.5 3.16-5.5 6.41M23 7.3c0 1.63-1.09 3.3-2.62 3.67l-.67-.68L19 9.6h.75c1 0 1.75-1.38 1.75-2.4s-.85-2.06-1.85-2.06v-1.5C21.5 3.64 23 5.45 23 7.3m-5.35-.57c-.62-.61-1-1.45-1-2.38C16.65 2.5 18.15 1 20 1v1.5c-1 0-1.85.83-1.85 1.85S19 6.2 20 6.2v1.5c-.82 0-1.58.25-2.21.68l-1.07-1.07c.28-.22.6-.42.93-.58Z" transform="matrix(1.5 0 0 1.5 684 180)" id="mdi-kettle-steam" fill="#fff"/><path d="M9.5 3C4.8 3 1 5.7 1 9c0 1.2.5 2.3 1.4 3.3C1.5 13.5.985 15 1 16.5V20c0 1.1.9 2 2 2h13c1.11 0 2-.89 2-2v-3.5c0-1.2-.3-2.4-1-3.5l2-2-3-3-2.1 2.1a9.191 9.191 0 0 0-9.3.3C4.22 10.03 4 9.53 4 9c0-1.8 2.5-3.3 5.5-3.3 1.4 0 2.8.4 3.8 1l2-2A10.05 10.05 0 0 0 9.5 3m0 8c3.5 0 6.5 3 6.5 5.5V20H3v-3.5C3 14 6 11 9.5 11m.5 1.5c-3 0-5 1.5-5 4.5v1h2v-1c0-1 0-3.5 3-4.5m13-5.2c0 1.63-1.09 3.3-2.62 3.67l-.67-.68L19 9.6h.75c1 0 1.75-1.38 1.75-2.4s-.85-2.06-1.85-2.06v-1.5C21.5 3.64 23 5.45 23 7.3m-5.35-.57c-.62-.61-1-1.45-1-2.38C16.65 2.5 18.15 1 20 1v1.5c-1 0-1.85.83-1.85 1.85S19 6.2 20 6.2v1.5c-.82 0-1.58.25-2.21.68l-1.07-1.07c.28-.22.6-.42.93-.58Z" transform="matrix(1.5 0 0 1.5 0 216)" id="mdi-kettle-steam-outline" fill="#555"/><path d="M9.5 3C4.8 3 1 5.7 1 9c0 1.2.5 2.3 1.4 3.3C1.5 13.5.985 15 1 16.5V20c0 1.1.9 2 2 2h13c1.11 0 2-.89 2-2v-3.5c0-1.2-.3-2.4-1-3.5l2-2-3-3-2.1 2.1a9.191 9.191 0 0 0-9.3.3C4.22 10.03 4 9.53 4 9c0-1.8 2.5-3.3 5.5-3.3 1.4 0 2.8.4 3.8 1l2-2A10.05 10.05 0 0 0 9.5 3m0 8c3.5 0 6.5 3 6.5 5.5V20H3v-3.5C3 14 6 11 9.5 11m.5 1.5c-3 0-5 1.5-5 4.5v1h2v-1c0-1 0-3.5 3-4.5m13-5.2c0 1.63-1.09 3.3-2.62 3.67l-.67-.68L19 9.6h.75c1 0 1.75-1.38 1.75-2.4s-.85-2.06-1.85-2.06v-1.5C21.5 3.64 23 5.45 23 7.3m-5.35-.57c-.62-.61-1-1.45-1-2.38C16.65 2.5 18.15 1 20 1v1.5c-1 0-1.85.83-1.85 1.85S19 6.2 20 6.2v1.5c-.82 0-1.58.25-2.21.68l-1.07-1.07c.28-.22.6-.42.93-.58Z" transform="matrix(1.5 0 0 1.5 36 216)" id="mdi-kettle-steam-outline" fill="#fff"/><path d="m16.2 10.7.6-2.4c.1-.3.5-1.7-.3-2.9C15.9 4.5 14.7 4 13 4h-2c-1.7 0-2.9.5-3.5 1.4-.8 1.2-.4 2.5-.3 2.9l.6 2.4C6.7 11.8 6 13.3 6 15c0 2.1 1.1 3.9 2.7 5h6.6c1.6-1.1 2.7-2.9 2.7-5 0-1.7-.7-3.2-1.8-4.3M9.6 9.5l-.5-1.7v-.1s-.2-.7.1-1.1c.2-.4.8-.6 1.8-.6h2c.9 0 1.6.2 1.9.5.3.4.1 1.1.1 1.1l-.5 1.9c-.8-.3-1.6-.5-2.5-.5-.9 0-1.7.2-2.4.5Z" transform="matrix(1.5 0 0 1.5 72 216)" id="mdi-kettlebell" fill="#555"/><path d="m16.2 10.7.6-2.4c.1-.3.5-1.7-.3-2.9C15.9 4.5 14.7 4 13 4h-2c-1.7 0-2.9.5-3.5 1.4-.8 1.2-.4 2.5-.3 2.9l.6 2.4C6.7 11.8 6 13.3 6 15c0 2.1 1.1 3.9 2.7 5h6.6c1.6-1.1 2.7-2.9 2.7-5 0-1.7-.7-3.2-1.8-4.3M9.6 9.5l-.5-1.7v-.1s-.2-.7.1-1.1c.2-.4.8-.6 1.8-.6h2c.9 0 1.6.2 1.9.5.3.4.1 1.1.1 1.1l-.5 1.9c-.8-.3-1.6-.5-2.5-.5-.9 0-1.7.2-2.4.5Z" transform="matrix(1.5 0 0 1.5 108 216)" id="mdi-kettlebell" fill="#fff"/><path d="M7 14c-1.1 0-2-.9-2-2s.9-2 2-2 2 .9 2 2-.9 2-2 2m5.6-4c-.8-2.3-3-4-5.6-4-3.3 0-6 2.7-6 6s2.7 6 6 6c2.6 0 4.8-1.7 5.6-4H16v4h4v-4h3v-4H12.6Z" transform="matrix(1.5 0 0 1.5 144 216)" id="mdi-key" fill="#555"/><path d="M7 14c-1.1 0-2-.9-2-2s.9-2 2-2 2 .9 2 2-.9 2-2 2m5.6-4c-.8-2.3-3-4-5.6-4-3.3 0-6 2.7-6 6s2.7 6 6 6c2.6 0 4.8-1.7 5.6-4H16v4h4v-4h3v-4H12.6Z" transform="matrix(1.5 0 0 1.5 180 216)" id="mdi-key" fill="#fff"/><path d="M4 6.5C4 4 6 2 8.5 2S13 4 13 6.5c0 1.96-1.25 3.63-3 4.24V15h3v3h-3v4H7V10.74c-1.75-.61-3-2.28-3-4.24m3 0C7 7.33 7.67 8 8.5 8S10 7.33 10 6.5 9.33 5 8.5 5 7 5.67 7 6.5M18 7h2v6h-2m0 4h2v-2h-2" transform="matrix(1.5 0 0 1.5 216 216)" id="mdi-key-alert" fill="#555"/><path d="M4 6.5C4 4 6 2 8.5 2S13 4 13 6.5c0 1.96-1.25 3.63-3 4.24V15h3v3h-3v4H7V10.74c-1.75-.61-3-2.28-3-4.24m3 0C7 7.33 7.67 8 8.5 8S10 7.33 10 6.5 9.33 5 8.5 5 7 5.67 7 6.5M18 7h2v6h-2m0 4h2v-2h-2" transform="matrix(1.5 0 0 1.5 252 216)" id="mdi-key-alert" fill="#fff"/><path d="M16 22h-4v2H6V13.32C3.58 12.17 2 9.72 2 7c0-3.86 3.14-7 7-7s7 3.14 7 7c0 2.72-1.58 5.18-4 6.32V16h4v6m-2-4h-4v-6.06l.67-.23C12.66 11 14 9.11 14 7c0-2.76-2.24-5-5-5S4 4.24 4 7c0 2.11 1.34 4 3.33 4.71l.67.23V22h2v-2h4v-2M12 7c0 1.66-1.34 3-3 3S6 8.66 6 7s1.34-3 3-3 3 1.34 3 3M9 8c.55 0 1-.45 1-1s-.45-1-1-1-1 .45-1 1 .45 1 1 1m11-1h2v6h-2m0 4h2v-2h-2" transform="matrix(1.5 0 0 1.5 288 216)" id="mdi-key-alert-outline" fill="#555"/><path d="M16 22h-4v2H6V13.32C3.58 12.17 2 9.72 2 7c0-3.86 3.14-7 7-7s7 3.14 7 7c0 2.72-1.58 5.18-4 6.32V16h4v6m-2-4h-4v-6.06l.67-.23C12.66 11 14 9.11 14 7c0-2.76-2.24-5-5-5S4 4.24 4 7c0 2.11 1.34 4 3.33 4.71l.67.23V22h2v-2h4v-2M12 7c0 1.66-1.34 3-3 3S6 8.66 6 7s1.34-3 3-3 3 1.34 3 3M9 8c.55 0 1-.45 1-1s-.45-1-1-1-1 .45-1 1 .45 1 1 1m11-1h2v6h-2m0 4h2v-2h-2" transform="matrix(1.5 0 0 1.5 324 216)" id="mdi-key-alert-outline" fill="#fff"/><path d="M11.7 6c-.6-1.8-2.3-3-4.2-3C5 3 3 5 3 7.5S5 12 7.5 12c2 0 3.6-1.2 4.2-3H15v3h3V9h3V6h-9.3M7.5 9C6.7 9 6 8.3 6 7.5S6.7 6 7.5 6 9 6.7 9 7.5 8.3 9 7.5 9M13 21v-2H8v-2h5v-2l3 3-3 3" transform="matrix(1.5 0 0 1.5 360 216)" id="mdi-key-arrow-right" fill="#555"/><path d="M11.7 6c-.6-1.8-2.3-3-4.2-3C5 3 3 5 3 7.5S5 12 7.5 12c2 0 3.6-1.2 4.2-3H15v3h3V9h3V6h-9.3M7.5 9C6.7 9 6 8.3 6 7.5S6.7 6 7.5 6 9 6.7 9 7.5 8.3 9 7.5 9M13 21v-2H8v-2h5v-2l3 3-3 3" transform="matrix(1.5 0 0 1.5 396 216)" id="mdi-key-arrow-right" fill="#fff"/><path d="M12.67 13.67c-.47.46-1.04.83-1.67 1.06V23H8v-2H5v-3h3v-3.28c-1.74-.62-3-2.26-3-4.22C5 8 7 6 9.5 6h.1c-.47.95-.68 2-.57 3.08-.59.2-1.03.76-1.03 1.42 0 .83.67 1.5 1.5 1.5.23 0 .45-.06.65-.15.64.84 1.52 1.47 2.52 1.82m8.06 5.77-2.76 1.16-.78-1.84-2.76 1.17-1.17-2.77L16.03 16l-1.27-3c-1.85.08-3.65-.95-4.41-2.75-.96-2.29.12-4.93 2.41-5.9.24-.1.5-.17.74-.23C12.84 2.87 11.5 2 10 2 7.79 2 6 3.79 6 6v.24c-.3.26-.6.58-.85.91C5.06 6.78 5 6.4 5 6c0-2.76 2.24-5 5-5s5 2.24 5 5c0 1.42-.6 2.67-1.55 3.57.42.43 1.05.56 1.63.31.77-.32 1.12-1.2.8-1.96a.939.939 0 0 0-.14-.26C15.9 7.13 16 6.58 16 6c0-.63-.1-1.24-.28-1.81 1.28.36 2.38 1.25 2.93 2.57.76 1.8.24 3.81-1.15 5.05l3.23 7.63M13 8.6c.37-.41.65-.89.82-1.42-.54.27-.85.82-.82 1.42Z" transform="matrix(1.5 0 0 1.5 432 216)" id="mdi-key-chain" fill="#555"/><path d="M12.67 13.67c-.47.46-1.04.83-1.67 1.06V23H8v-2H5v-3h3v-3.28c-1.74-.62-3-2.26-3-4.22C5 8 7 6 9.5 6h.1c-.47.95-.68 2-.57 3.08-.59.2-1.03.76-1.03 1.42 0 .83.67 1.5 1.5 1.5.23 0 .45-.06.65-.15.64.84 1.52 1.47 2.52 1.82m8.06 5.77-2.76 1.16-.78-1.84-2.76 1.17-1.17-2.77L16.03 16l-1.27-3c-1.85.08-3.65-.95-4.41-2.75-.96-2.29.12-4.93 2.41-5.9.24-.1.5-.17.74-.23C12.84 2.87 11.5 2 10 2 7.79 2 6 3.79 6 6v.24c-.3.26-.6.58-.85.91C5.06 6.78 5 6.4 5 6c0-2.76 2.24-5 5-5s5 2.24 5 5c0 1.42-.6 2.67-1.55 3.57.42.43 1.05.56 1.63.31.77-.32 1.12-1.2.8-1.96a.939.939 0 0 0-.14-.26C15.9 7.13 16 6.58 16 6c0-.63-.1-1.24-.28-1.81 1.28.36 2.38 1.25 2.93 2.57.76 1.8.24 3.81-1.15 5.05l3.23 7.63M13 8.6c.37-.41.65-.89.82-1.42-.54.27-.85.82-.82 1.42Z" transform="matrix(1.5 0 0 1.5 468 216)" id="mdi-key-chain" fill="#fff"/><path d="M12.66 13.67c-.34.33-.73.62-1.16.83V21l-2 2-2-2 2-1.71L8 18l1.5-1.29-2-1.71v-.5a4.42 4.42 0 0 1-2.5-4C5 8 7 6 9.5 6h.11c-.02.07-.07.12-.11.18-.27.61-.42 1.25-.47 1.9A1.498 1.498 0 0 0 9.5 11h.1c.64 1.25 1.74 2.2 3.06 2.67M16 6c0-.63-.1-1.25-.28-1.82 1.34.38 2.49 1.37 3.01 2.78.6 1.66.16 3.43-.98 4.63L20 17.68l-1.22 2.57-2.56-1.2 1.28-2.29-1.84-.7.97-1.72-2.47-.93-.16-.46a4.48 4.48 0 0 1-3.73-2.91 4.51 4.51 0 0 1 2.69-5.77c.18-.06.37-.1.54-.14A3.946 3.946 0 0 0 10 2C7.79 2 6 3.79 6 6c0 .09 0 .17.03.26-.33.27-.63.56-.88.89C5.06 6.78 5 6.4 5 6c0-2.76 2.24-5 5-5s5 2.24 5 5c0 1.16-.4 2.21-1.06 3.06C16.08 8.88 16 6 16 6m-3.19 2.1c.06.17.15.31.25.44.56-.66.91-1.5.94-2.43-.11.02-.2.04-.3.07-.78.29-1.2 1.15-.89 1.92Z" transform="matrix(1.5 0 0 1.5 504 216)" id="mdi-key-chain-variant" fill="#555"/><path d="M12.66 13.67c-.34.33-.73.62-1.16.83V21l-2 2-2-2 2-1.71L8 18l1.5-1.29-2-1.71v-.5a4.42 4.42 0 0 1-2.5-4C5 8 7 6 9.5 6h.11c-.02.07-.07.12-.11.18-.27.61-.42 1.25-.47 1.9A1.498 1.498 0 0 0 9.5 11h.1c.64 1.25 1.74 2.2 3.06 2.67M16 6c0-.63-.1-1.25-.28-1.82 1.34.38 2.49 1.37 3.01 2.78.6 1.66.16 3.43-.98 4.63L20 17.68l-1.22 2.57-2.56-1.2 1.28-2.29-1.84-.7.97-1.72-2.47-.93-.16-.46a4.48 4.48 0 0 1-3.73-2.91 4.51 4.51 0 0 1 2.69-5.77c.18-.06.37-.1.54-.14A3.946 3.946 0 0 0 10 2C7.79 2 6 3.79 6 6c0 .09 0 .17.03.26-.33.27-.63.56-.88.89C5.06 6.78 5 6.4 5 6c0-2.76 2.24-5 5-5s5 2.24 5 5c0 1.16-.4 2.21-1.06 3.06C16.08 8.88 16 6 16 6m-3.19 2.1c.06.17.15.31.25.44.56-.66.91-1.5.94-2.43-.11.02-.2.04-.3.07-.78.29-1.2 1.15-.89 1.92Z" transform="matrix(1.5 0 0 1.5 540 216)" id="mdi-key-chain-variant" fill="#fff"/><path d="M7.5 2c2 0 3.6 1.2 4.2 3H21v3h-3v3h-3V8h-3.3c-.6 1.8-2.3 3-4.2 3C5 11 3 9 3 6.5S5 2 7.5 2m0 3C6.7 5 6 5.7 6 6.5S6.7 8 7.5 8 9 7.3 9 6.5 8.3 5 7.5 5m0 8c2 0 3.6 1.2 4.2 3H21v3h-1v3h-2v-3h-2v3h-3v-3h-1.3c-.6 1.8-2.3 3-4.2 3C5 22 3 20 3 17.5S5 13 7.5 13m0 3c-.8 0-1.5.7-1.5 1.5S6.7 19 7.5 19 9 18.3 9 17.5 8.3 16 7.5 16Z" transform="matrix(1.5 0 0 1.5 576 216)" id="mdi-key-change" fill="#555"/><path d="M7.5 2c2 0 3.6 1.2 4.2 3H21v3h-3v3h-3V8h-3.3c-.6 1.8-2.3 3-4.2 3C5 11 3 9 3 6.5S5 2 7.5 2m0 3C6.7 5 6 5.7 6 6.5S6.7 8 7.5 8 9 7.3 9 6.5 8.3 5 7.5 5m0 8c2 0 3.6 1.2 4.2 3H21v3h-1v3h-2v-3h-2v3h-3v-3h-1.3c-.6 1.8-2.3 3-4.2 3C5 22 3 20 3 17.5S5 13 7.5 13m0 3c-.8 0-1.5.7-1.5 1.5S6.7 19 7.5 19 9 18.3 9 17.5 8.3 16 7.5 16Z" transform="matrix(1.5 0 0 1.5 612 216)" id="mdi-key-change" fill="#fff"/><path d="M7.5 3C5 3 3 5 3 7.5S5 12 7.5 12c2 0 3.6-1.2 4.2-3H15v3h3V9h3V6h-9.3c-.6-1.8-2.2-3-4.2-3m0 3C8.3 6 9 6.7 9 7.5S8.3 9 7.5 9 6 8.3 6 7.5 6.7 6 7.5 6m2.5 8c-1.6 0-4 1.1-4 4s2.4 4 4 4h1v-2h-1c-.3 0-2-.1-2-2 0-1.8 1.5-2 2-2h1v-2m2 0v2h1c.3 0 2 .1 2 2 0 1.8-1.5 2-2 2h-1v2h1c1.6 0 4-1.1 4-4s-2.4-4-4-4m-5 3v2h6v-2H9Z" transform="matrix(1.5 0 0 1.5 648 216)" id="mdi-key-link" fill="#555"/><path d="M7.5 3C5 3 3 5 3 7.5S5 12 7.5 12c2 0 3.6-1.2 4.2-3H15v3h3V9h3V6h-9.3c-.6-1.8-2.2-3-4.2-3m0 3C8.3 6 9 6.7 9 7.5S8.3 9 7.5 9 6 8.3 6 7.5 6.7 6 7.5 6m2.5 8c-1.6 0-4 1.1-4 4s2.4 4 4 4h1v-2h-1c-.3 0-2-.1-2-2 0-1.8 1.5-2 2-2h1v-2m2 0v2h1c.3 0 2 .1 2 2 0 1.8-1.5 2-2 2h-1v2h1c1.6 0 4-1.1 4-4s-2.4-4-4-4m-5 3v2h6v-2H9Z" transform="matrix(1.5 0 0 1.5 684 216)" id="mdi-key-link" fill="#fff"/><path d="M7.5 3c2 0 3.6 1.2 4.2 3H21v3h-3v3h-3V9h-3.3c-.6 1.8-2.3 3-4.2 3C5 12 3 10 3 7.5S5 3 7.5 3m0 3C6.7 6 6 6.7 6 7.5S6.7 9 7.5 9 9 8.3 9 7.5 8.3 6 7.5 6M8 17h8v2H8v-2Z" transform="matrix(1.5 0 0 1.5 0 252)" id="mdi-key-minus" fill="#555"/><path d="M7.5 3c2 0 3.6 1.2 4.2 3H21v3h-3v3h-3V9h-3.3c-.6 1.8-2.3 3-4.2 3C5 12 3 10 3 7.5S5 3 7.5 3m0 3C6.7 6 6 6.7 6 7.5S6.7 9 7.5 9 9 8.3 9 7.5 8.3 6 7.5 6M8 17h8v2H8v-2Z" transform="matrix(1.5 0 0 1.5 36 252)" id="mdi-key-minus" fill="#fff"/><path d="M21 18h-6v-3h-1.7c-1.1 2.4-3.6 4-6.3 4-3.9 0-7-3.1-7-7s3.1-7 7-7c2.7 0 5.2 1.6 6.3 4H24v6h-3v3m-4-2h2v-3h3v-2H11.9l-.2-.7C11 8.3 9.1 7 7 7c-2.8 0-5 2.2-5 5s2.2 5 5 5c2.1 0 4-1.3 4.7-3.3l.2-.7H17v3M7 15c-1.7 0-3-1.3-3-3s1.3-3 3-3 3 1.3 3 3-1.3 3-3 3m0-4c-.6 0-1 .4-1 1s.4 1 1 1 1-.4 1-1-.4-1-1-1Z" transform="matrix(1.5 0 0 1.5 72 252)" id="mdi-key-outline" fill="#555"/><path d="M21 18h-6v-3h-1.7c-1.1 2.4-3.6 4-6.3 4-3.9 0-7-3.1-7-7s3.1-7 7-7c2.7 0 5.2 1.6 6.3 4H24v6h-3v3m-4-2h2v-3h3v-2H11.9l-.2-.7C11 8.3 9.1 7 7 7c-2.8 0-5 2.2-5 5s2.2 5 5 5c2.1 0 4-1.3 4.7-3.3l.2-.7H17v3M7 15c-1.7 0-3-1.3-3-3s1.3-3 3-3 3 1.3 3 3-1.3 3-3 3m0-4c-.6 0-1 .4-1 1s.4 1 1 1 1-.4 1-1-.4-1-1-1Z" transform="matrix(1.5 0 0 1.5 108 252)" id="mdi-key-outline" fill="#fff"/><path d="M7.5 3c2 0 3.6 1.2 4.2 3H21v3h-3v3h-3V9h-3.3c-.6 1.8-2.3 3-4.2 3C5 12 3 10 3 7.5S5 3 7.5 3m0 3C6.7 6 6 6.7 6 7.5S6.7 9 7.5 9 9 8.3 9 7.5 8.3 6 7.5 6M8 17h3v-3h2v3h3v2h-3v3h-2v-3H8v-2Z" transform="matrix(1.5 0 0 1.5 144 252)" id="mdi-key-plus" fill="#555"/><path d="M7.5 3c2 0 3.6 1.2 4.2 3H21v3h-3v3h-3V9h-3.3c-.6 1.8-2.3 3-4.2 3C5 12 3 10 3 7.5S5 3 7.5 3m0 3C6.7 6 6 6.7 6 7.5S6.7 9 7.5 9 9 8.3 9 7.5 8.3 6 7.5 6M8 17h3v-3h2v3h3v2h-3v3h-2v-3H8v-2Z" transform="matrix(1.5 0 0 1.5 180 252)" id="mdi-key-plus" fill="#fff"/><path d="M7.5 3c2 0 3.6 1.2 4.2 3H21v3h-3v3h-3V9h-3.3c-.6 1.8-2.3 3-4.2 3C5 12 3 10 3 7.5S5 3 7.5 3m0 3C6.7 6 6 6.7 6 7.5S6.7 9 7.5 9 9 8.3 9 7.5 8.3 6 7.5 6m7.1 8 1.4 1.4-2.6 2.6 2.6 2.6-1.4 1.4-2.6-2.6L9.4 22 8 20.6l2.6-2.6L8 15.4 9.4 14l2.6 2.6 2.6-2.6Z" transform="matrix(1.5 0 0 1.5 216 252)" id="mdi-key-remove" fill="#555"/><path d="M7.5 3c2 0 3.6 1.2 4.2 3H21v3h-3v3h-3V9h-3.3c-.6 1.8-2.3 3-4.2 3C5 12 3 10 3 7.5S5 3 7.5 3m0 3C6.7 6 6 6.7 6 7.5S6.7 9 7.5 9 9 8.3 9 7.5 8.3 6 7.5 6m7.1 8 1.4 1.4-2.6 2.6 2.6 2.6-1.4 1.4-2.6-2.6L9.4 22 8 20.6l2.6-2.6L8 15.4 9.4 14l2.6 2.6 2.6-2.6Z" transform="matrix(1.5 0 0 1.5 252 252)" id="mdi-key-remove" fill="#fff"/><path d="M7.5 3C5 3 3 5 3 7.5S5 12 7.5 12c2 0 3.6-1.2 4.2-3H15v3h3V9h3V6h-9.3c-.6-1.8-2.2-3-4.2-3m0 3C8.3 6 9 6.7 9 7.5S8.3 9 7.5 9 6 8.3 6 7.5 6.7 6 7.5 6m4.5 8-1.1 2.6-2.9.3 2.2 1.9-.7 2.8 2.5-1.5 2.4 1.5-.6-2.8 2.2-1.9-2.9-.2L12 14Z" transform="matrix(1.5 0 0 1.5 288 252)" id="mdi-key-star" fill="#555"/><path d="M7.5 3C5 3 3 5 3 7.5S5 12 7.5 12c2 0 3.6-1.2 4.2-3H15v3h3V9h3V6h-9.3c-.6-1.8-2.2-3-4.2-3m0 3C8.3 6 9 6.7 9 7.5S8.3 9 7.5 9 6 8.3 6 7.5 6.7 6 7.5 6m4.5 8-1.1 2.6-2.9.3 2.2 1.9-.7 2.8 2.5-1.5 2.4 1.5-.6-2.8 2.2-1.9-2.9-.2L12 14Z" transform="matrix(1.5 0 0 1.5 324 252)" id="mdi-key-star" fill="#fff"/><path d="M22 18v4h-4v-3h-3v-3h-3l-2.26-2.26c-.55.17-1.13.26-1.74.26a6 6 0 0 1-6-6 6 6 0 0 1 6-6 6 6 0 0 1 6 6c0 .61-.09 1.19-.26 1.74L22 18M7 5a2 2 0 0 0-2 2 2 2 0 0 0 2 2 2 2 0 0 0 2-2 2 2 0 0 0-2-2Z" transform="matrix(1.5 0 0 1.5 360 252)" id="mdi-key-variant" fill="#555"/><path d="M22 18v4h-4v-3h-3v-3h-3l-2.26-2.26c-.55.17-1.13.26-1.74.26a6 6 0 0 1-6-6 6 6 0 0 1 6-6 6 6 0 0 1 6 6c0 .61-.09 1.19-.26 1.74L22 18M7 5a2 2 0 0 0-2 2 2 2 0 0 0 2 2 2 2 0 0 0 2-2 2 2 0 0 0-2-2Z" transform="matrix(1.5 0 0 1.5 396 252)" id="mdi-key-variant" fill="#fff"/><path d="m4.9 5.9 1.4 1.4c3.1-3.1 8.2-3.1 11.3 0L19 5.9C15.2 2 8.8 2 4.9 5.9m2.9 2.9 1.4 1.4c1.6-1.6 4.1-1.6 5.7 0l1.4-1.4c-2.4-2.4-6.2-2.4-8.5 0m4 6.2c-.8-2.3-3.4-3.6-5.7-2.7S2.4 15.7 3.3 18s3.4 3.6 5.7 2.7c1.3-.5 2.3-1.5 2.7-2.7H15v3h3v-3h3v-3M7.5 18c-.8 0-1.5-.7-1.5-1.5S6.7 15 7.5 15s1.5.7 1.5 1.5S8.3 18 7.5 18Z" transform="matrix(1.5 0 0 1.5 432 252)" id="mdi-key-wireless" fill="#555"/><path d="m4.9 5.9 1.4 1.4c3.1-3.1 8.2-3.1 11.3 0L19 5.9C15.2 2 8.8 2 4.9 5.9m2.9 2.9 1.4 1.4c1.6-1.6 4.1-1.6 5.7 0l1.4-1.4c-2.4-2.4-6.2-2.4-8.5 0m4 6.2c-.8-2.3-3.4-3.6-5.7-2.7S2.4 15.7 3.3 18s3.4 3.6 5.7 2.7c1.3-.5 2.3-1.5 2.7-2.7H15v3h3v-3h3v-3M7.5 18c-.8 0-1.5-.7-1.5-1.5S6.7 15 7.5 15s1.5.7 1.5 1.5S8.3 18 7.5 18Z" transform="matrix(1.5 0 0 1.5 468 252)" id="mdi-key-wireless" fill="#fff"/><path d="M19 10h-2V8h2m0 5h-2v-2h2m-3-1h-2V8h2m0 5h-2v-2h2m0 6H8v-2h8m-9-5H5V8h2m0 5H5v-2h2m1 0h2v2H8m0-5h2v2H8m3 1h2v2h-2m0-5h2v2h-2m9-5H4c-1.11 0-2 .89-2 2v10a2 2 0 0 0 2 2h16a2 2 0 0 0 2-2V7a2 2 0 0 0-2-2Z" transform="matrix(1.5 0 0 1.5 504 252)" id="mdi-keyboard" fill="#555"/><path d="M19 10h-2V8h2m0 5h-2v-2h2m-3-1h-2V8h2m0 5h-2v-2h2m0 6H8v-2h8m-9-5H5V8h2m0 5H5v-2h2m1 0h2v2H8m0-5h2v2H8m3 1h2v2h-2m0-5h2v2h-2m9-5H4c-1.11 0-2 .89-2 2v10a2 2 0 0 0 2 2h16a2 2 0 0 0 2-2V7a2 2 0 0 0-2-2Z" transform="matrix(1.5 0 0 1.5 540 252)" id="mdi-keyboard" fill="#fff"/><path d="M21 11H6.83l3.58-3.59L9 6l-6 6 6 6 1.41-1.42L6.83 13H21v-2Z" transform="matrix(1.5 0 0 1.5 576 252)" id="mdi-keyboard-backspace" fill="#555"/><path d="M21 11H6.83l3.58-3.59L9 6l-6 6 6 6 1.41-1.42L6.83 13H21v-2Z" transform="matrix(1.5 0 0 1.5 612 252)" id="mdi-keyboard-backspace" fill="#fff"/><path d="M6 18h12v-2H6m6-7.59L16.59 13 18 11.58l-6-6-6 6L7.41 13 12 8.41Z" transform="matrix(1.5 0 0 1.5 648 252)" id="mdi-keyboard-caps" fill="#555"/><path d="M6 18h12v-2H6m6-7.59L16.59 13 18 11.58l-6-6-6 6L7.41 13 12 8.41Z" transform="matrix(1.5 0 0 1.5 684 252)" id="mdi-keyboard-caps" fill="#fff"/><path d="m12 23 4-4H8M19 8h-2V6h2m0 5h-2V9h2m-3-1h-2V6h2m0 5h-2V9h2m0 6H8v-2h8M7 8H5V6h2m0 5H5V9h2m1 0h2v2H8m0-5h2v2H8m3 1h2v2h-2m0-5h2v2h-2m9-5H4c-1.11 0-2 .89-2 2v10a2 2 0 0 0 2 2h16a2 2 0 0 0 2-2V5a2 2 0 0 0-2-2Z" transform="matrix(1.5 0 0 1.5 0 288)" id="mdi-keyboard-close" fill="#555"/><path d="m12 23 4-4H8M19 8h-2V6h2m0 5h-2V9h2m-3-1h-2V6h2m0 5h-2V9h2m0 6H8v-2h8M7 8H5V6h2m0 5H5V9h2m1 0h2v2H8m0-5h2v2H8m3 1h2v2h-2m0-5h2v2h-2m9-5H4c-1.11 0-2 .89-2 2v10a2 2 0 0 0 2 2h16a2 2 0 0 0 2-2V5a2 2 0 0 0-2-2Z" transform="matrix(1.5 0 0 1.5 36 288)" id="mdi-keyboard-close" fill="#fff"/><path d="M1 7h6v2H3v2h4v2H3v2h4v2H1V7m10 0h4v2h-4v2h2a2 2 0 0 1 2 2v2c0 1.11-.89 2-2 2H9v-2h4v-2h-2a2 2 0 0 1-2-2V9c0-1.1.9-2 2-2m8 0h2a2 2 0 0 1 2 2v1h-2V9h-2v6h2v-1h2v1c0 1.11-.89 2-2 2h-2a2 2 0 0 1-2-2V9c0-1.1.9-2 2-2Z" transform="matrix(1.5 0 0 1.5 72 288)" id="mdi-keyboard-esc" fill="#555"/><path d="M1 7h6v2H3v2h4v2H3v2h4v2H1V7m10 0h4v2h-4v2h2a2 2 0 0 1 2 2v2c0 1.11-.89 2-2 2H9v-2h4v-2h-2a2 2 0 0 1-2-2V9c0-1.1.9-2 2-2m8 0h2a2 2 0 0 1 2 2v1h-2V9h-2v6h2v-1h2v1c0 1.11-.89 2-2 2h-2a2 2 0 0 1-2-2V9c0-1.1.9-2 2-2Z" transform="matrix(1.5 0 0 1.5 108 288)" id="mdi-keyboard-esc" fill="#fff"/><path d="M6 7h6v2H8v2h3v2H8v4H6V7m8 0h4v10h-2V9h-2V7Z" transform="matrix(1.5 0 0 1.5 144 288)" id="mdi-keyboard-f1" fill="#555"/><path d="M6 7h6v2H8v2h3v2H8v4H6V7m8 0h4v10h-2V9h-2V7Z" transform="matrix(1.5 0 0 1.5 180 288)" id="mdi-keyboard-f1" fill="#fff"/><path d="M2 7h6v2H4v2h3v2H4v4H2V7m8 0h4v10h-2V9h-2V7m8 0h2a2 2 0 0 1 2 2v6c0 1.11-.89 2-2 2h-2a2 2 0 0 1-2-2V9c0-1.1.9-2 2-2m0 2v6h2V9h-2Z" transform="matrix(1.5 0 0 1.5 216 288)" id="mdi-keyboard-f10" fill="#555"/><path d="M2 7h6v2H4v2h3v2H4v4H2V7m8 0h4v10h-2V9h-2V7m8 0h2a2 2 0 0 1 2 2v6c0 1.11-.89 2-2 2h-2a2 2 0 0 1-2-2V9c0-1.1.9-2 2-2m0 2v6h2V9h-2Z" transform="matrix(1.5 0 0 1.5 252 288)" id="mdi-keyboard-f10" fill="#fff"/><path d="M3 7h6v2H5v2h3v2H5v4H3V7m8 0h4v10h-2V9h-2V7m6 0h4v10h-2V9h-2V7Z" transform="matrix(1.5 0 0 1.5 288 288)" id="mdi-keyboard-f11" fill="#555"/><path d="M3 7h6v2H5v2h3v2H5v4H3V7m8 0h4v10h-2V9h-2V7m6 0h4v10h-2V9h-2V7Z" transform="matrix(1.5 0 0 1.5 324 288)" id="mdi-keyboard-f11" fill="#fff"/><path d="M2 7h6v2H4v2h3v2H4v4H2V7m14 0h4a2 2 0 0 1 2 2v2c0 1.11-.89 2-2 2h-2v2h4v2h-6v-4c0-1.1.9-2 2-2h2V9h-4V7m-6 0h4v10h-2V9h-2V7Z" transform="matrix(1.5 0 0 1.5 360 288)" id="mdi-keyboard-f12" fill="#555"/><path d="M2 7h6v2H4v2h3v2H4v4H2V7m14 0h4a2 2 0 0 1 2 2v2c0 1.11-.89 2-2 2h-2v2h4v2h-6v-4c0-1.1.9-2 2-2h2V9h-4V7m-6 0h4v10h-2V9h-2V7Z" transform="matrix(1.5 0 0 1.5 396 288)" id="mdi-keyboard-f12" fill="#fff"/><path d="M5 7h6v2H7v2h3v2H7v4H5V7m8 0h4a2 2 0 0 1 2 2v2c0 1.11-.89 2-2 2h-2v2h4v2h-6v-4c0-1.1.9-2 2-2h2V9h-4V7Z" transform="matrix(1.5 0 0 1.5 432 288)" id="mdi-keyboard-f2" fill="#555"/><path d="M5 7h6v2H7v2h3v2H7v4H5V7m8 0h4a2 2 0 0 1 2 2v2c0 1.11-.89 2-2 2h-2v2h4v2h-6v-4c0-1.1.9-2 2-2h2V9h-4V7Z" transform="matrix(1.5 0 0 1.5 468 288)" id="mdi-keyboard-f2" fill="#fff"/><path d="M5 7h6v2H7v2h3v2H7v4H5V7m14 8c0 1.11-.89 2-2 2h-4v-2h4v-2h-2v-2h2V9h-4V7h4a2 2 0 0 1 2 2v1.5c0 .83-.67 1.5-1.5 1.5.83 0 1.5.67 1.5 1.5V15Z" transform="matrix(1.5 0 0 1.5 504 288)" id="mdi-keyboard-f3" fill="#555"/><path d="M5 7h6v2H7v2h3v2H7v4H5V7m14 8c0 1.11-.89 2-2 2h-4v-2h4v-2h-2v-2h2V9h-4V7h4a2 2 0 0 1 2 2v1.5c0 .83-.67 1.5-1.5 1.5.83 0 1.5.67 1.5 1.5V15Z" transform="matrix(1.5 0 0 1.5 540 288)" id="mdi-keyboard-f3" fill="#fff"/><path d="M5 7h6v2H7v2h3v2H7v4H5V7m8 0h2v4h2V7h2v10h-2v-4h-4V7Z" transform="matrix(1.5 0 0 1.5 576 288)" id="mdi-keyboard-f4" fill="#555"/><path d="M5 7h6v2H7v2h3v2H7v4H5V7m8 0h2v4h2V7h2v10h-2v-4h-4V7Z" transform="matrix(1.5 0 0 1.5 612 288)" id="mdi-keyboard-f4" fill="#fff"/><path d="M5 7h6v2H7v2h3v2H7v4H5V7m8 0h6v2h-4v2h2a2 2 0 0 1 2 2v2c0 1.11-.89 2-2 2h-4v-2h4v-2h-4V7Z" transform="matrix(1.5 0 0 1.5 648 288)" id="mdi-keyboard-f5" fill="#555"/><path d="M5 7h6v2H7v2h3v2H7v4H5V7m8 0h6v2h-4v2h2a2 2 0 0 1 2 2v2c0 1.11-.89 2-2 2h-4v-2h4v-2h-4V7Z" transform="matrix(1.5 0 0 1.5 684 288)" id="mdi-keyboard-f5" fill="#fff"/><path d="M5 7h6v2H7v2h3v2H7v4H5V7m10 0h4v2h-4v2h2a2 2 0 0 1 2 2v2c0 1.11-.89 2-2 2h-2a2 2 0 0 1-2-2V9c0-1.1.9-2 2-2m0 6v2h2v-2h-2Z" transform="matrix(1.5 0 0 1.5 0 324)" id="mdi-keyboard-f6" fill="#555"/><path d="M5 7h6v2H7v2h3v2H7v4H5V7m10 0h4v2h-4v2h2a2 2 0 0 1 2 2v2c0 1.11-.89 2-2 2h-2a2 2 0 0 1-2-2V9c0-1.1.9-2 2-2m0 6v2h2v-2h-2Z" transform="matrix(1.5 0 0 1.5 36 324)" id="mdi-keyboard-f6" fill="#fff"/><path d="M5 7h6v2H7v2h3v2H7v4H5V7m10 10h-2l4-8h-4V7h6v2l-4 8Z" transform="matrix(1.5 0 0 1.5 72 324)" id="mdi-keyboard-f7" fill="#555"/><path d="M5 7h6v2H7v2h3v2H7v4H5V7m10 10h-2l4-8h-4V7h6v2l-4 8Z" transform="matrix(1.5 0 0 1.5 108 324)" id="mdi-keyboard-f7" fill="#fff"/><path d="M5 7h6v2H7v2h3v2H7v4H5V7m10 6v2h2v-2h-2m0-4v2h2V9h-2m0 8a2 2 0 0 1-2-2v-1.5c0-.83.67-1.5 1.5-1.5-.83 0-1.5-.67-1.5-1.5V9c0-1.1.9-2 2-2h2a2 2 0 0 1 2 2v1.5c0 .83-.67 1.5-1.5 1.5.83 0 1.5.67 1.5 1.5V15c0 1.11-.89 2-2 2h-2Z" transform="matrix(1.5 0 0 1.5 144 324)" id="mdi-keyboard-f8" fill="#555"/><path d="M5 7h6v2H7v2h3v2H7v4H5V7m10 6v2h2v-2h-2m0-4v2h2V9h-2m0 8a2 2 0 0 1-2-2v-1.5c0-.83.67-1.5 1.5-1.5-.83 0-1.5-.67-1.5-1.5V9c0-1.1.9-2 2-2h2a2 2 0 0 1 2 2v1.5c0 .83-.67 1.5-1.5 1.5.83 0 1.5.67 1.5 1.5V15c0 1.11-.89 2-2 2h-2Z" transform="matrix(1.5 0 0 1.5 180 324)" id="mdi-keyboard-f8" fill="#fff"/><path d="M5 7h6v2H7v2h3v2H7v4H5V7m12 10h-4v-2h4v-2h-2a2 2 0 0 1-2-2V9c0-1.1.9-2 2-2h2a2 2 0 0 1 2 2v6c0 1.11-.89 2-2 2m0-6V9h-2v2h2Z" transform="matrix(1.5 0 0 1.5 216 324)" id="mdi-keyboard-f9" fill="#555"/><path d="M5 7h6v2H7v2h3v2H7v4H5V7m12 10h-4v-2h4v-2h-2a2 2 0 0 1-2-2V9c0-1.1.9-2 2-2h2a2 2 0 0 1 2 2v6c0 1.11-.89 2-2 2m0-6V9h-2v2h2Z" transform="matrix(1.5 0 0 1.5 252 324)" id="mdi-keyboard-f9" fill="#fff"/><path d="M1 4.27 2.28 3 20 20.72 18.73 22l-3-3H4a2 2 0 0 1-2-2V7c0-.5.18-.93.46-1.27L1 4.27M19 10V8h-2v2h2m0 3v-2h-2v2h2m-3-3V8h-2v2h2m0 3v-2h-2v1.18L11.82 10H13V8h-2v1.18L9.82 8l-3-3H20a2 2 0 0 1 2 2v10c0 .86-.54 1.59-1.3 1.87L14.82 13H16m-8 2v2h5.73l-2-2H8m-3-5h1.73L5 8.27V10m2 3v-2H5v2h2m1 0h1.73L8 11.27V13Z" transform="matrix(1.5 0 0 1.5 288 324)" id="mdi-keyboard-off" fill="#555"/><path d="M1 4.27 2.28 3 20 20.72 18.73 22l-3-3H4a2 2 0 0 1-2-2V7c0-.5.18-.93.46-1.27L1 4.27M19 10V8h-2v2h2m0 3v-2h-2v2h2m-3-3V8h-2v2h2m0 3v-2h-2v1.18L11.82 10H13V8h-2v1.18L9.82 8l-3-3H20a2 2 0 0 1 2 2v10c0 .86-.54 1.59-1.3 1.87L14.82 13H16m-8 2v2h5.73l-2-2H8m-3-5h1.73L5 8.27V10m2 3v-2H5v2h2m1 0h1.73L8 11.27V13Z" transform="matrix(1.5 0 0 1.5 324 324)" id="mdi-keyboard-off" fill="#fff"/><path d="m1 4.27 1.47 1.47A1.9 1.9 0 0 0 2 7v10a2 2 0 0 0 2 2h11.73l3 3L20 20.72 2.28 3 1 4.27M4 17V7.27l1 1V10h1.73L8 11.27V13h1.73l1 1H8v2h4.73l1 1H4m1-6h2v2H5v-2m12 0h2v2h-2v-2m2-1h-2V8h2v2m-5 1h2v2h-1.17l-.83-.83V11m-1-1h-1.17L11 9.17V8h2v2m9-3v10c0 .86-.55 1.58-1.3 1.87L18.83 17H20V7H8.83l-2-2H20a2 2 0 0 1 2 2m-6 3h-2V8h2v2Z" transform="matrix(1.5 0 0 1.5 360 324)" id="mdi-keyboard-off-outline" fill="#555"/><path d="m1 4.27 1.47 1.47A1.9 1.9 0 0 0 2 7v10a2 2 0 0 0 2 2h11.73l3 3L20 20.72 2.28 3 1 4.27M4 17V7.27l1 1V10h1.73L8 11.27V13h1.73l1 1H8v2h4.73l1 1H4m1-6h2v2H5v-2m12 0h2v2h-2v-2m2-1h-2V8h2v2m-5 1h2v2h-1.17l-.83-.83V11m-1-1h-1.17L11 9.17V8h2v2m9-3v10c0 .86-.55 1.58-1.3 1.87L18.83 17H20V7H8.83l-2-2H20a2 2 0 0 1 2 2m-6 3h-2V8h2v2Z" transform="matrix(1.5 0 0 1.5 396 324)" id="mdi-keyboard-off-outline" fill="#fff"/><path d="M4 5a2 2 0 0 0-2 2v10a2 2 0 0 0 2 2h16a2 2 0 0 0 2-2V7a2 2 0 0 0-2-2H4m0 2h16v10H4V7m1 1v2h2V8H5m3 0v2h2V8H8m3 0v2h2V8h-2m3 0v2h2V8h-2m3 0v2h2V8h-2M5 11v2h2v-2H5m3 0v2h2v-2H8m3 0v2h2v-2h-2m3 0v2h2v-2h-2m3 0v2h2v-2h-2m-9 3v2h8v-2H8Z" transform="matrix(1.5 0 0 1.5 432 324)" id="mdi-keyboard-outline" fill="#555"/><path d="M4 5a2 2 0 0 0-2 2v10a2 2 0 0 0 2 2h16a2 2 0 0 0 2-2V7a2 2 0 0 0-2-2H4m0 2h16v10H4V7m1 1v2h2V8H5m3 0v2h2V8H8m3 0v2h2V8h-2m3 0v2h2V8h-2m3 0v2h2V8h-2M5 11v2h2v-2H5m3 0v2h2v-2H8m3 0v2h2v-2h-2m3 0v2h2v-2h-2m3 0v2h2v-2h-2m-9 3v2h8v-2H8Z" transform="matrix(1.5 0 0 1.5 468 324)" id="mdi-keyboard-outline" fill="#fff"/><path d="M19 7v4H5.83l3.58-3.59L8 6l-6 6 6 6 1.41-1.42L5.83 13H21V7h-2Z" transform="matrix(1.5 0 0 1.5 504 324)" id="mdi-keyboard-return" fill="#555"/><path d="M19 7v4H5.83l3.58-3.59L8 6l-6 6 6 6 1.41-1.42L5.83 13H21V7h-2Z" transform="matrix(1.5 0 0 1.5 540 324)" id="mdi-keyboard-return" fill="#fff"/><path d="M19 10h-2V8h2m0 5h-2v-2h2m-3-1h-2V8h2m0 5h-2v-2h2m0 6H8v-2h8m-9-5H5V8h2m0 5H5v-2h2m1 0h2v2H8m0-5h2v2H8m3 1h2v2h-2m0-5h2v2h-2m9-5H4a2 2 0 0 0-2 2v10a2 2 0 0 0 2 2h16a2 2 0 0 0 2-2V7a2 2 0 0 0-2-2M7 22h2v2H7v-2m4 0h2v2h-2v-2m4 0h2v2h-2v-2Z" transform="matrix(1.5 0 0 1.5 576 324)" id="mdi-keyboard-settings" fill="#555"/><path d="M19 10h-2V8h2m0 5h-2v-2h2m-3-1h-2V8h2m0 5h-2v-2h2m0 6H8v-2h8m-9-5H5V8h2m0 5H5v-2h2m1 0h2v2H8m0-5h2v2H8m3 1h2v2h-2m0-5h2v2h-2m9-5H4a2 2 0 0 0-2 2v10a2 2 0 0 0 2 2h16a2 2 0 0 0 2-2V7a2 2 0 0 0-2-2M7 22h2v2H7v-2m4 0h2v2h-2v-2m4 0h2v2h-2v-2Z" transform="matrix(1.5 0 0 1.5 612 324)" id="mdi-keyboard-settings" fill="#fff"/><path d="M7 22h2v2H7v-2m4 0h2v2h-2v-2m4 0h2v2h-2v-2M4 5a2 2 0 0 0-2 2v10a2 2 0 0 0 2 2h16a2 2 0 0 0 2-2V7a2 2 0 0 0-2-2H4m0 2h16v10H4V7m1 1v2h2V8H5m3 0v2h2V8H8m3 0v2h2V8h-2m3 0v2h2V8h-2m3 0v2h2V8h-2M5 11v2h2v-2H5m3 0v2h2v-2H8m3 0v2h2v-2h-2m3 0v2h2v-2h-2m3 0v2h2v-2h-2m-9 3v2h8v-2H8Z" transform="matrix(1.5 0 0 1.5 648 324)" id="mdi-keyboard-settings-outline" fill="#555"/><path d="M7 22h2v2H7v-2m4 0h2v2h-2v-2m4 0h2v2h-2v-2M4 5a2 2 0 0 0-2 2v10a2 2 0 0 0 2 2h16a2 2 0 0 0 2-2V7a2 2 0 0 0-2-2H4m0 2h16v10H4V7m1 1v2h2V8H5m3 0v2h2V8H8m3 0v2h2V8h-2m3 0v2h2V8h-2m3 0v2h2V8h-2M5 11v2h2v-2H5m3 0v2h2v-2H8m3 0v2h2v-2h-2m3 0v2h2v-2h-2m3 0v2h2v-2h-2m-9 3v2h8v-2H8Z" transform="matrix(1.5 0 0 1.5 684 324)" id="mdi-keyboard-settings-outline" fill="#fff"/></svg>