<svg xmlns="http://www.w3.org/2000/svg" width="720" height="900"><path d="m13.75 10.19.63.13 4.17 2.08c.7.23 1.16.92 1.1 1.66v.26l-.9 6.12c-.06.43-.25.83-.6 1.11-.31.3-.72.45-1.15.45h-6.88c-.49 0-.94-.18-1.27-.53L2.86 15.5l.9-1c.24-.25.62-.39.98-.37h.29L9 15V4.5a2 2 0 0 1 2-2 2 2 0 0 1 2 2v5.69h.75Z" transform="scale(1.5)" id="mdi-cursor-pointer" fill="#555"/><path d="m13.75 10.19.63.13 4.17 2.08c.7.23 1.16.92 1.1 1.66v.26l-.9 6.12c-.06.43-.25.83-.6 1.11-.31.3-.72.45-1.15.45h-6.88c-.49 0-.94-.18-1.27-.53L2.86 15.5l.9-1c.24-.25.62-.39.98-.37h.29L9 15V4.5a2 2 0 0 1 2-2 2 2 0 0 1 2 2v5.69h.75Z" transform="translate(36) scale(1.5)" id="mdi-cursor-pointer" fill="#fff"/><path d="M13 19a1 1 0 0 0 1 1h2v2h-2.5c-.55 0-1.5-.45-1.5-1 0 .55-.95 1-1.5 1H8v-2h2a1 1 0 0 0 1-1V5a1 1 0 0 0-1-1H8V2h2.5c.55 0 1.5.45 1.5 1 0-.55.95-1 1.5-1H16v2h-2a1 1 0 0 0-1 1v14Z" transform="translate(72) scale(1.5)" id="mdi-cursor-text" fill="#555"/><path d="M13 19a1 1 0 0 0 1 1h2v2h-2.5c-.55 0-1.5-.45-1.5-1 0 .55-.95 1-1.5 1H8v-2h2a1 1 0 0 0 1-1V5a1 1 0 0 0-1-1H8V2h2.5c.55 0 1.5.45 1.5 1 0-.55.95-1 1.5-1H16v2h-2a1 1 0 0 0-1 1v14Z" transform="translate(108) scale(1.5)" id="mdi-cursor-text" fill="#fff"/><path d="M23 3H1V1h22v2M2 22h4c0-3-2-5-2-5 6-4 7-13 7-13H2v18M22 4h-9s1 9 7 13c0 0-2 2-2 5h4V4Z" transform="translate(144) scale(1.5)" id="mdi-curtains" fill="#555"/><path d="M23 3H1V1h22v2M2 22h4c0-3-2-5-2-5 6-4 7-13 7-13H2v18M22 4h-9s1 9 7 13c0 0-2 2-2 5h4V4Z" transform="translate(180) scale(1.5)" id="mdi-curtains" fill="#fff"/><path d="M23 3H1V1h22v2M2 22h9V4H2v18M22 4h-9v18h9V4Z" transform="translate(216) scale(1.5)" id="mdi-curtains-closed" fill="#555"/><path d="M23 3H1V1h22v2M2 22h9V4H2v18M22 4h-9v18h9V4Z" transform="translate(252) scale(1.5)" id="mdi-curtains-closed" fill="#fff"/><path d="M12 2c-2.11 0-9 .29-9 4v12c0 3.71 6.89 4 9 4 2.11 0 9-.29 9-4V6c0-3.71-6.89-4-9-4m0 8c1.38 0 4.8-.13 7-1.25v6.5C16.8 14.13 13.38 14 12 14s-4.8.13-7 1.25v-6.5C7.2 9.87 10.62 10 12 10m0-6c3.87 0 7 .89 7 2 0 1.11-3.13 2-7 2s-7-.89-7-2c0-1.11 3.13-2 7-2m0 16c-3.87 0-7-.89-7-2 0-1.1 3.13-2 7-2s7 .9 7 2c0 1.11-3.13 2-7 2Z" transform="translate(288) scale(1.5)" id="mdi-cylinder" fill="#555"/><path d="M12 2c-2.11 0-9 .29-9 4v12c0 3.71 6.89 4 9 4 2.11 0 9-.29 9-4V6c0-3.71-6.89-4-9-4m0 8c1.38 0 4.8-.13 7-1.25v6.5C16.8 14.13 13.38 14 12 14s-4.8.13-7 1.25v-6.5C7.2 9.87 10.62 10 12 10m0-6c3.87 0 7 .89 7 2 0 1.11-3.13 2-7 2s-7-.89-7-2c0-1.11 3.13-2 7-2m0 16c-3.87 0-7-.89-7-2 0-1.1 3.13-2 7-2s7 .9 7 2c0 1.11-3.13 2-7 2Z" transform="translate(324) scale(1.5)" id="mdi-cylinder" fill="#fff"/><path d="M7.64 4.44 6.03 2.83C8.15 2.1 10.82 2 12 2c2.11 0 9 .29 9 4v11.8l-2.94-2.94c.33.11.64.24.94.39v-6.5c-1.72.88-4.18 1.14-5.83 1.22L11.18 8H12c3.87 0 7-.89 7-2s-3.13-2-7-2c-1.65 0-3.16.17-4.36.44m14.47 17.02-1.27 1.27-1.93-1.93C16.7 21.87 13.36 22 12 22c-2.11 0-9-.29-9-4V6c0-.34.08-.64.18-.93L1.11 3l1.28-1.27 19.72 19.73M5 15.25C7.2 14.13 10.62 14 12 14h.11L7.73 9.62C6.76 9.43 5.8 9.15 5 8.75v6.5m12.39 4.03-3.18-3.18c-.71-.06-1.43-.1-2.21-.1-3.87 0-7 .9-7 2s3.13 2 7 2c2.17 0 4.1-.28 5.39-.72Z" transform="translate(360) scale(1.5)" id="mdi-cylinder-off" fill="#555"/><path d="M7.64 4.44 6.03 2.83C8.15 2.1 10.82 2 12 2c2.11 0 9 .29 9 4v11.8l-2.94-2.94c.33.11.64.24.94.39v-6.5c-1.72.88-4.18 1.14-5.83 1.22L11.18 8H12c3.87 0 7-.89 7-2s-3.13-2-7-2c-1.65 0-3.16.17-4.36.44m14.47 17.02-1.27 1.27-1.93-1.93C16.7 21.87 13.36 22 12 22c-2.11 0-9-.29-9-4V6c0-.34.08-.64.18-.93L1.11 3l1.28-1.27 19.72 19.73M5 15.25C7.2 14.13 10.62 14 12 14h.11L7.73 9.62C6.76 9.43 5.8 9.15 5 8.75v6.5m12.39 4.03-3.18-3.18c-.71-.06-1.43-.1-2.21-.1-3.87 0-7 .9-7 2s3.13 2 7 2c2.17 0 4.1-.28 5.39-.72Z" transform="translate(396) scale(1.5)" id="mdi-cylinder-off" fill="#fff"/><path d="M14 3.5c0 .83-.67 1.5-1.5 1.5S11 4.33 11 3.5 11.67 2 12.5 2s1.5.67 1.5 1.5M8.5 5C7.67 5 7 5.67 7 6.5S7.67 8 8.5 8 10 7.33 10 6.5 9.33 5 8.5 5m5.5 7-.78-2.25h2.96l2.16-1.08c.37-.17.52-.63.33-1a.737.737 0 0 0-1-.34l-.82.41-.49-.84c-.29-.65-1-1.02-1.7-.86l-2.47.53c-.69.15-1.19.78-1.19 1.5v.7l-2.43 1.62h.01c-.08.07-.19.16-.25.28l-.89 1.77-1.78.89c-.37.17-.52.64-.33 1.01a.753.753 0 0 0 1.01.33l2.22-1.11L9.6 11.5 11 13c-1 3-8 7-8 7s4 2 9 2 9-2 9-2-5-4-7-8m2.85-.91-.32.16h-1.2l.06.16c.52 1.03 1.28 2.09 2.11 3.03l-.53-3.41-.12.06Z" transform="translate(432) scale(1.5)" id="mdi-dance-ballroom" fill="#555"/><path d="M14 3.5c0 .83-.67 1.5-1.5 1.5S11 4.33 11 3.5 11.67 2 12.5 2s1.5.67 1.5 1.5M8.5 5C7.67 5 7 5.67 7 6.5S7.67 8 8.5 8 10 7.33 10 6.5 9.33 5 8.5 5m5.5 7-.78-2.25h2.96l2.16-1.08c.37-.17.52-.63.33-1a.737.737 0 0 0-1-.34l-.82.41-.49-.84c-.29-.65-1-1.02-1.7-.86l-2.47.53c-.69.15-1.19.78-1.19 1.5v.7l-2.43 1.62h.01c-.08.07-.19.16-.25.28l-.89 1.77-1.78.89c-.37.17-.52.64-.33 1.01a.753.753 0 0 0 1.01.33l2.22-1.11L9.6 11.5 11 13c-1 3-8 7-8 7s4 2 9 2 9-2 9-2-5-4-7-8m2.85-.91-.32.16h-1.2l.06.16c.52 1.03 1.28 2.09 2.11 3.03l-.53-3.41-.12.06Z" transform="translate(468) scale(1.5)" id="mdi-dance-ballroom" fill="#fff"/><path d="M12 1v1l-.77-.64L7.76 5.5l3.24 2V5.16L10.78 5 12 3.56V23h2v-9.76l1.93-1.93c2.57.4 5.2-.95 6.73-2.48l-1.42-1.42C20.1 8.56 17.7 9.61 16 9.26l-2-2.02V1m3 3a2 2 0 0 0-2 2 2 2 0 0 0 2 2 2 2 0 0 0 2-2 2 2 0 0 0-2-2m-6 3.76-3.9 3.9c-1.85 1.84-2.79 3.19-4.04 6.5l1.88.7c1-2.66 1.72-3.72 2.93-5.02l1.35 1.35-4.95 4.95 1.42 1.42L11 16.24Z" transform="translate(504) scale(1.5)" id="mdi-dance-pole" fill="#555"/><path d="M12 1v1l-.77-.64L7.76 5.5l3.24 2V5.16L10.78 5 12 3.56V23h2v-9.76l1.93-1.93c2.57.4 5.2-.95 6.73-2.48l-1.42-1.42C20.1 8.56 17.7 9.61 16 9.26l-2-2.02V1m3 3a2 2 0 0 0-2 2 2 2 0 0 0 2 2 2 2 0 0 0 2-2 2 2 0 0 0-2-2m-6 3.76-3.9 3.9c-1.85 1.84-2.79 3.19-4.04 6.5l1.88.7c1-2.66 1.72-3.72 2.93-5.02l1.35 1.35-4.95 4.95 1.42 1.42L11 16.24Z" transform="translate(540) scale(1.5)" id="mdi-dance-pole" fill="#fff"/><path d="M2 2v20h20v-2h-2v-2h2v-2h-2v-2h2v-2h-4v-2h-2v2h-2v-2h-2V8H8v4h4v4h-2v2h2v2h-2v-2H8v-2H6v-2H4v-2h2V6H4V2H2m4 4h2V2H6v4m2 10h2v-2H8v2m10-6h4V8h-4v2m0-2V4h-2v2h-2v2h4m-2-4V2h-2v2h2m2 0h2V2h-2v2m2 0v2h2V4h-2M10 2v4h2V2h-2m4 12h2v2h2v4h-4v-6M4 18h2v2H4v-2Z" transform="translate(576) scale(1.5)" id="mdi-data-matrix" fill="#555"/><path d="M2 2v20h20v-2h-2v-2h2v-2h-2v-2h2v-2h-4v-2h-2v2h-2v-2h-2V8H8v4h4v4h-2v2h2v2h-2v-2H8v-2H6v-2H4v-2h2V6H4V2H2m4 4h2V2H6v4m2 10h2v-2H8v2m10-6h4V8h-4v2m0-2V4h-2v2h-2v2h4m-2-4V2h-2v2h2m2 0h2V2h-2v2m2 0v2h2V4h-2M10 2v4h2V2h-2m4 12h2v2h2v4h-4v-6M4 18h2v2H4v-2Z" transform="translate(612) scale(1.5)" id="mdi-data-matrix" fill="#fff"/><path d="M20 12.1c-.1 0-.3.1-.4.2l-1 1 2.1 2.1 1-1c.2-.2.2-.6 0-.8l-1.3-1.3c-.1-.1-.2-.2-.4-.2m-1.9 1.8-6.1 6V22h2.1l6.1-6.1-2.1-2M8 6H6V2h2v4m2 10H8v-2h2v2m2-10h-2V2h2v4m4-4v2h-2V2h2m4 2h-2V2h2v2M10 20v-2H8v-2H6v-2H4v-2h2V6H4V2H2v20h8v-2m-4 0H4v-2h2v2m16-10h-4V8h4v2m-2-4V4h2v2h-2m-2-2v4h-4V6h2V4h2m-8 14v-2h2v-4H8V8h4v2h2v2h2v-2h2v1.1L15.1 14H14v1.1L11.1 18H10Z" transform="translate(648) scale(1.5)" id="mdi-data-matrix-edit" fill="#555"/><path d="M20 12.1c-.1 0-.3.1-.4.2l-1 1 2.1 2.1 1-1c.2-.2.2-.6 0-.8l-1.3-1.3c-.1-.1-.2-.2-.4-.2m-1.9 1.8-6.1 6V22h2.1l6.1-6.1-2.1-2M8 6H6V2h2v4m2 10H8v-2h2v2m2-10h-2V2h2v4m4-4v2h-2V2h2m4 2h-2V2h2v2M10 20v-2H8v-2H6v-2H4v-2h2V6H4V2H2v20h8v-2m-4 0H4v-2h2v2m16-10h-4V8h4v2m-2-4V4h2v2h-2m-2-2v4h-4V6h2V4h2m-8 14v-2h2v-4H8V8h4v2h2v2h2v-2h2v1.1L15.1 14H14v1.1L11.1 18H10Z" transform="translate(684) scale(1.5)" id="mdi-data-matrix-edit" fill="#fff"/><path d="M16 2v2h-2V2h2m-4 0h-2v4h2V2m-2 12H8v2h2v-2m6-10v2h-2v2h4V4h-2M8 2H6v4h2V2m12 0h-2v2h2V2m-6.2 20H2V2h2v4h2v6H4v2h2v2h2v2h2v2h2v-2h-2v-2h2v-4H8V8h4v2h2v2h2v-2h2v2h4v1.8c-.9-.5-1.9-.8-3-.8-1.2 0-2.4.4-3.3 1H14v1.7c-.6.9-1 2.1-1 3.3 0 1.1.3 2.1.8 3M6 18H4v2h2v-2M22 8h-4v2h4V8m0-2V4h-2v2h2m-7 12v2h8v-2h-8Z" transform="matrix(1.5 0 0 1.5 0 36)" id="mdi-data-matrix-minus" fill="#555"/><path d="M16 2v2h-2V2h2m-4 0h-2v4h2V2m-2 12H8v2h2v-2m6-10v2h-2v2h4V4h-2M8 2H6v4h2V2m12 0h-2v2h2V2m-6.2 20H2V2h2v4h2v6H4v2h2v2h2v2h2v2h2v-2h-2v-2h2v-4H8V8h4v2h2v2h2v-2h2v2h4v1.8c-.9-.5-1.9-.8-3-.8-1.2 0-2.4.4-3.3 1H14v1.7c-.6.9-1 2.1-1 3.3 0 1.1.3 2.1.8 3M6 18H4v2h2v-2M22 8h-4v2h4V8m0-2V4h-2v2h2m-7 12v2h8v-2h-8Z" transform="matrix(1.5 0 0 1.5 36 36)" id="mdi-data-matrix-minus" fill="#fff"/><path d="M16 2v2h-2V2h2m-4 0h-2v4h2V2m-2 12H8v2h2v-2m6-10v2h-2v2h4V4h-2M8 2H6v4h2V2m12 0h-2v2h2V2m-6.2 20H2V2h2v4h2v6H4v2h2v2h2v2h2v2h2v-2h-2v-2h2v-4H8V8h4v2h2v2h2v-2h2v2h4v1.8c-.9-.5-1.9-.8-3-.8-1.2 0-2.4.4-3.3 1H14v1.7c-.6.9-1 2.1-1 3.3 0 1.1.3 2.1.8 3M6 18H4v2h2v-2M22 8h-4v2h4V8m0-2V4h-2v2h2m-4 9v3h-3v2h3v3h2v-3h3v-2h-3v-3h-2Z" transform="matrix(1.5 0 0 1.5 72 36)" id="mdi-data-matrix-plus" fill="#555"/><path d="M16 2v2h-2V2h2m-4 0h-2v4h2V2m-2 12H8v2h2v-2m6-10v2h-2v2h4V4h-2M8 2H6v4h2V2m12 0h-2v2h2V2m-6.2 20H2V2h2v4h2v6H4v2h2v2h2v2h2v2h2v-2h-2v-2h2v-4H8V8h4v2h2v2h2v-2h2v2h4v1.8c-.9-.5-1.9-.8-3-.8-1.2 0-2.4.4-3.3 1H14v1.7c-.6.9-1 2.1-1 3.3 0 1.1.3 2.1.8 3M6 18H4v2h2v-2M22 8h-4v2h4V8m0-2V4h-2v2h2m-4 9v3h-3v2h3v3h2v-3h3v-2h-3v-3h-2Z" transform="matrix(1.5 0 0 1.5 108 36)" id="mdi-data-matrix-plus" fill="#fff"/><path d="M16 2v2h-2V2h2m-4 0h-2v4h2V2m-2 12H8v2h2v-2m6-10v2h-2v2h4V4h-2M8 2H6v4h2V2m12 0h-2v2h2V2m-6.2 20H2V2h2v4h2v6H4v2h2v2h2v2h2v2h2v-2h-2v-2h2v-4H8V8h4v2h2v2h2v-2h2v2h4v1.8c-.9-.5-1.9-.8-3-.8-1.2 0-2.4.4-3.3 1H14v1.7c-.6.9-1 2.1-1 3.3 0 1.1.3 2.1.8 3M6 18H4v2h2v-2M22 8h-4v2h4V8m0-2V4h-2v2h2m-.9 9.5L19 17.6l-2.1-2.1-1.4 1.4 2.1 2.1-2.1 2.1 1.4 1.4 2.1-2.1 2.1 2.1 1.4-1.4-2.1-2.1 2.1-2.1-1.4-1.4Z" transform="matrix(1.5 0 0 1.5 144 36)" id="mdi-data-matrix-remove" fill="#555"/><path d="M16 2v2h-2V2h2m-4 0h-2v4h2V2m-2 12H8v2h2v-2m6-10v2h-2v2h4V4h-2M8 2H6v4h2V2m12 0h-2v2h2V2m-6.2 20H2V2h2v4h2v6H4v2h2v2h2v2h2v2h2v-2h-2v-2h2v-4H8V8h4v2h2v2h2v-2h2v2h4v1.8c-.9-.5-1.9-.8-3-.8-1.2 0-2.4.4-3.3 1H14v1.7c-.6.9-1 2.1-1 3.3 0 1.1.3 2.1.8 3M6 18H4v2h2v-2M22 8h-4v2h4V8m0-2V4h-2v2h2m-.9 9.5L19 17.6l-2.1-2.1-1.4 1.4 2.1 2.1-2.1 2.1 1.4 1.4 2.1-2.1 2.1 2.1 1.4-1.4-2.1-2.1 2.1-2.1-1.4-1.4Z" transform="matrix(1.5 0 0 1.5 180 36)" id="mdi-data-matrix-remove" fill="#fff"/><path d="M2 2h4V0H2C.9 0 0 .9 0 2v4h2V2m20-2h-4v2h4v4h2V2c0-1.1-.9-2-2-2M2 18H0v4c0 1.1.9 2 2 2h4v-2H2v-4m20 4h-4v2h4c1.1 0 2-.9 2-2v-4h-2v4M8 6V4h2v2H8m2 8v-2h2v2h-2m6-10h2v2h-2V4m2 2h2v2h-2V6m0 8h2v2h-2v-2m2-2h-4v6h4v2H4V4h2v2h2v4H6v2h2v2h2v2h2v2h2v-2h-2v-2h2v-4h-4V6h2V4h2v4h2v2h4v2M8 18v-2H6v2h2Z" transform="matrix(1.5 0 0 1.5 216 36)" id="mdi-data-matrix-scan" fill="#555"/><path d="M2 2h4V0H2C.9 0 0 .9 0 2v4h2V2m20-2h-4v2h4v4h2V2c0-1.1-.9-2-2-2M2 18H0v4c0 1.1.9 2 2 2h4v-2H2v-4m20 4h-4v2h4c1.1 0 2-.9 2-2v-4h-2v4M8 6V4h2v2H8m2 8v-2h2v2h-2m6-10h2v2h-2V4m2 2h2v2h-2V6m0 8h2v2h-2v-2m2-2h-4v6h4v2H4V4h2v2h2v4H6v2h2v2h2v2h2v2h2v-2h-2v-2h2v-4h-4V6h2V4h2v4h2v2h4v2M8 18v-2H6v2h2Z" transform="matrix(1.5 0 0 1.5 252 36)" id="mdi-data-matrix-scan" fill="#fff"/><path d="M12 3C7.58 3 4 4.79 4 7s3.58 4 8 4 8-1.79 8-4-3.58-4-8-4M4 9v3c0 2.21 3.58 4 8 4s8-1.79 8-4V9c0 2.21-3.58 4-8 4s-8-1.79-8-4m0 5v3c0 2.21 3.58 4 8 4s8-1.79 8-4v-3c0 2.21-3.58 4-8 4s-8-1.79-8-4Z" transform="matrix(1.5 0 0 1.5 288 36)" id="mdi-database" fill="#555"/><path d="M12 3C7.58 3 4 4.79 4 7s3.58 4 8 4 8-1.79 8-4-3.58-4-8-4M4 9v3c0 2.21 3.58 4 8 4s8-1.79 8-4V9c0 2.21-3.58 4-8 4s-8-1.79-8-4m0 5v3c0 2.21 3.58 4 8 4s8-1.79 8-4v-3c0 2.21-3.58 4-8 4s-8-1.79-8-4Z" transform="matrix(1.5 0 0 1.5 324 36)" id="mdi-database" fill="#fff"/><path d="M18 7c0 2.21-3.58 4-8 4S2 9.21 2 7s3.58-4 8-4 8 1.79 8 4m-8 11c-4.42 0-8-1.79-8-4v3c0 2.21 3.58 4 8 4s8-1.79 8-4v-3c0 2.21-3.58 4-8 4m0-5c-4.42 0-8-1.79-8-4v3c0 2.21 3.58 4 8 4s8-1.79 8-4V9c0 2.21-3.58 4-8 4m10 4h2v-2h-2v2m0-10v6h2V7h-2Z" transform="matrix(1.5 0 0 1.5 360 36)" id="mdi-database-alert" fill="#555"/><path d="M18 7c0 2.21-3.58 4-8 4S2 9.21 2 7s3.58-4 8-4 8 1.79 8 4m-8 11c-4.42 0-8-1.79-8-4v3c0 2.21 3.58 4 8 4s8-1.79 8-4v-3c0 2.21-3.58 4-8 4m0-5c-4.42 0-8-1.79-8-4v3c0 2.21 3.58 4 8 4s8-1.79 8-4V9c0 2.21-3.58 4-8 4m10 4h2v-2h-2v2m0-10v6h2V7h-2Z" transform="matrix(1.5 0 0 1.5 396 36)" id="mdi-database-alert" fill="#fff"/><path d="M10 3C5.58 3 2 4.79 2 7v10c0 2.21 3.59 4 8 4s8-1.79 8-4V7c0-2.21-3.58-4-8-4m6 14c0 .5-2.13 2-6 2s-6-1.5-6-2v-2.23c1.61.78 3.72 1.23 6 1.23s4.39-.45 6-1.23V17m0-4.55c-1.3.95-3.58 1.55-6 1.55s-4.7-.6-6-1.55V9.64c1.47.83 3.61 1.36 6 1.36s4.53-.53 6-1.36v2.81M10 9C6.13 9 4 7.5 4 7s2.13-2 6-2 6 1.5 6 2-2.13 2-6 2m12-2v6h-2V7h2m-2 8h2v2h-2v-2Z" transform="matrix(1.5 0 0 1.5 432 36)" id="mdi-database-alert-outline" fill="#555"/><path d="M10 3C5.58 3 2 4.79 2 7v10c0 2.21 3.59 4 8 4s8-1.79 8-4V7c0-2.21-3.58-4-8-4m6 14c0 .5-2.13 2-6 2s-6-1.5-6-2v-2.23c1.61.78 3.72 1.23 6 1.23s4.39-.45 6-1.23V17m0-4.55c-1.3.95-3.58 1.55-6 1.55s-4.7-.6-6-1.55V9.64c1.47.83 3.61 1.36 6 1.36s4.53-.53 6-1.36v2.81M10 9C6.13 9 4 7.5 4 7s2.13-2 6-2 6 1.5 6 2-2.13 2-6 2m12-2v6h-2V7h2m-2 8h2v2h-2v-2Z" transform="matrix(1.5 0 0 1.5 468 36)" id="mdi-database-alert-outline" fill="#fff"/><path d="M19 13c-2.17 0-4.07 1.16-5.12 2.89-.6.07-1.23.11-1.88.11-4.42 0-8-1.79-8-4V9c0 2.21 3.58 4 8 4s8-1.79 8-4v3c0 .36-.1.71-.28 1.05C19.5 13 19.24 13 19 13m-7-2c4.42 0 8-1.79 8-4s-3.58-4-8-4-8 1.79-8 4 3.58 4 8 4m1.1 6.96c-.36.04-.73.04-1.1.04-4.42 0-8-1.79-8-4v3c0 2.21 3.58 4 8 4 .46 0 .9 0 1.33-.06A5.94 5.94 0 0 1 13 19c0-.36.04-.7.1-1.04M20 20v-4h-2v4h-2l3 3 3-3h-2Z" transform="matrix(1.5 0 0 1.5 504 36)" id="mdi-database-arrow-down" fill="#555"/><path d="M19 13c-2.17 0-4.07 1.16-5.12 2.89-.6.07-1.23.11-1.88.11-4.42 0-8-1.79-8-4V9c0 2.21 3.58 4 8 4s8-1.79 8-4v3c0 .36-.1.71-.28 1.05C19.5 13 19.24 13 19 13m-7-2c4.42 0 8-1.79 8-4s-3.58-4-8-4-8 1.79-8 4 3.58 4 8 4m1.1 6.96c-.36.04-.73.04-1.1.04-4.42 0-8-1.79-8-4v3c0 2.21 3.58 4 8 4 .46 0 .9 0 1.33-.06A5.94 5.94 0 0 1 13 19c0-.36.04-.7.1-1.04M20 20v-4h-2v4h-2l3 3 3-3h-2Z" transform="matrix(1.5 0 0 1.5 540 36)" id="mdi-database-arrow-down" fill="#fff"/><path d="M20 13.09V7c0-2.21-3.58-4-8-4S4 4.79 4 7v10c0 2.21 3.59 4 8 4 .46 0 .9 0 1.33-.06A5.94 5.94 0 0 1 13 19v-.05c-.32.05-.65.05-1 .05-3.87 0-6-1.5-6-2v-2.23c1.61.78 3.72 1.23 6 1.23.65 0 1.27-.04 1.88-.11A5.986 5.986 0 0 1 19 13c.34 0 .67.04 1 .09m-2-.64c-1.3.95-3.58 1.55-6 1.55s-4.7-.6-6-1.55V9.64c1.47.83 3.61 1.36 6 1.36s4.53-.53 6-1.36v2.81M12 9C8.13 9 6 7.5 6 7s2.13-2 6-2 6 1.5 6 2-2.13 2-6 2m10 11-3 3-3-3h2v-4h2v4h2Z" transform="matrix(1.5 0 0 1.5 576 36)" id="mdi-database-arrow-down-outline" fill="#555"/><path d="M20 13.09V7c0-2.21-3.58-4-8-4S4 4.79 4 7v10c0 2.21 3.59 4 8 4 .46 0 .9 0 1.33-.06A5.94 5.94 0 0 1 13 19v-.05c-.32.05-.65.05-1 .05-3.87 0-6-1.5-6-2v-2.23c1.61.78 3.72 1.23 6 1.23.65 0 1.27-.04 1.88-.11A5.986 5.986 0 0 1 19 13c.34 0 .67.04 1 .09m-2-.64c-1.3.95-3.58 1.55-6 1.55s-4.7-.6-6-1.55V9.64c1.47.83 3.61 1.36 6 1.36s4.53-.53 6-1.36v2.81M12 9C8.13 9 6 7.5 6 7s2.13-2 6-2 6 1.5 6 2-2.13 2-6 2m10 11-3 3-3-3h2v-4h2v4h2Z" transform="matrix(1.5 0 0 1.5 612 36)" id="mdi-database-arrow-down-outline" fill="#fff"/><path d="M4 7c0-2.21 3.58-4 8-4s8 1.79 8 4-3.58 4-8 4-8-1.79-8-4m15.72 6.05c.18-.34.28-.69.28-1.05V9c0 2.21-3.58 4-8 4s-8-1.79-8-4v3c0 2.21 3.58 4 8 4 .65 0 1.28-.04 1.88-.11A5.986 5.986 0 0 1 19 13c.24 0 .5 0 .72.05m-6.62 4.91c-.36.04-.73.04-1.1.04-4.42 0-8-1.79-8-4v3c0 2.21 3.58 4 8 4 .46 0 .9 0 1.33-.06A5.94 5.94 0 0 1 13 19c0-.36.04-.7.1-1.04M18 18v-2l-3 3 3 3v-2h4v-2h-4Z" transform="matrix(1.5 0 0 1.5 648 36)" id="mdi-database-arrow-left" fill="#555"/><path d="M4 7c0-2.21 3.58-4 8-4s8 1.79 8 4-3.58 4-8 4-8-1.79-8-4m15.72 6.05c.18-.34.28-.69.28-1.05V9c0 2.21-3.58 4-8 4s-8-1.79-8-4v3c0 2.21 3.58 4 8 4 .65 0 1.28-.04 1.88-.11A5.986 5.986 0 0 1 19 13c.24 0 .5 0 .72.05m-6.62 4.91c-.36.04-.73.04-1.1.04-4.42 0-8-1.79-8-4v3c0 2.21 3.58 4 8 4 .46 0 .9 0 1.33-.06A5.94 5.94 0 0 1 13 19c0-.36.04-.7.1-1.04M18 18v-2l-3 3 3 3v-2h4v-2h-4Z" transform="matrix(1.5 0 0 1.5 684 36)" id="mdi-database-arrow-left" fill="#fff"/><path d="M20 13.09V7c0-2.21-3.58-4-8-4S4 4.79 4 7v10c0 2.21 3.59 4 8 4 .46 0 .9 0 1.33-.06A5.94 5.94 0 0 1 13 19v-.05c-.32.05-.65.05-1 .05-3.87 0-6-1.5-6-2v-2.23c1.61.78 3.72 1.23 6 1.23.65 0 1.27-.04 1.88-.11A5.986 5.986 0 0 1 19 13c.34 0 .67.04 1 .09m-2-.64c-1.3.95-3.58 1.55-6 1.55s-4.7-.6-6-1.55V9.64c1.47.83 3.61 1.36 6 1.36s4.53-.53 6-1.36v2.81M12 9C8.13 9 6 7.5 6 7s2.13-2 6-2 6 1.5 6 2-2.13 2-6 2m10 9v2h-4v2l-3-3 3-3v2h4Z" transform="matrix(1.5 0 0 1.5 0 72)" id="mdi-database-arrow-left-outline" fill="#555"/><path d="M20 13.09V7c0-2.21-3.58-4-8-4S4 4.79 4 7v10c0 2.21 3.59 4 8 4 .46 0 .9 0 1.33-.06A5.94 5.94 0 0 1 13 19v-.05c-.32.05-.65.05-1 .05-3.87 0-6-1.5-6-2v-2.23c1.61.78 3.72 1.23 6 1.23.65 0 1.27-.04 1.88-.11A5.986 5.986 0 0 1 19 13c.34 0 .67.04 1 .09m-2-.64c-1.3.95-3.58 1.55-6 1.55s-4.7-.6-6-1.55V9.64c1.47.83 3.61 1.36 6 1.36s4.53-.53 6-1.36v2.81M12 9C8.13 9 6 7.5 6 7s2.13-2 6-2 6 1.5 6 2-2.13 2-6 2m10 9v2h-4v2l-3-3 3-3v2h4Z" transform="matrix(1.5 0 0 1.5 36 72)" id="mdi-database-arrow-left-outline" fill="#fff"/><path d="M4 7c0-2.21 3.58-4 8-4s8 1.79 8 4-3.58 4-8 4-8-1.79-8-4m15.72 6.05c.18-.34.28-.69.28-1.05V9c0 2.21-3.58 4-8 4s-8-1.79-8-4v3c0 2.21 3.58 4 8 4 .65 0 1.28-.04 1.88-.11A5.986 5.986 0 0 1 19 13c.24 0 .5 0 .72.05m-6.62 4.91c-.36.04-.73.04-1.1.04-4.42 0-8-1.79-8-4v3c0 2.21 3.58 4 8 4 .46 0 .9 0 1.33-.06A5.94 5.94 0 0 1 13 19c0-.36.04-.7.1-1.04M23 19l-3-3v2h-4v2h4v2l3-3Z" transform="matrix(1.5 0 0 1.5 72 72)" id="mdi-database-arrow-right" fill="#555"/><path d="M4 7c0-2.21 3.58-4 8-4s8 1.79 8 4-3.58 4-8 4-8-1.79-8-4m15.72 6.05c.18-.34.28-.69.28-1.05V9c0 2.21-3.58 4-8 4s-8-1.79-8-4v3c0 2.21 3.58 4 8 4 .65 0 1.28-.04 1.88-.11A5.986 5.986 0 0 1 19 13c.24 0 .5 0 .72.05m-6.62 4.91c-.36.04-.73.04-1.1.04-4.42 0-8-1.79-8-4v3c0 2.21 3.58 4 8 4 .46 0 .9 0 1.33-.06A5.94 5.94 0 0 1 13 19c0-.36.04-.7.1-1.04M23 19l-3-3v2h-4v2h4v2l3-3Z" transform="matrix(1.5 0 0 1.5 108 72)" id="mdi-database-arrow-right" fill="#fff"/><path d="M20 13.09V7c0-2.21-3.58-4-8-4S4 4.79 4 7v10c0 2.21 3.59 4 8 4 .46 0 .9 0 1.33-.06A5.94 5.94 0 0 1 13 19v-.05c-.32.05-.65.05-1 .05-3.87 0-6-1.5-6-2v-2.23c1.61.78 3.72 1.23 6 1.23.65 0 1.27-.04 1.88-.11A5.986 5.986 0 0 1 19 13c.34 0 .67.04 1 .09m-2-.64c-1.3.95-3.58 1.55-6 1.55s-4.7-.6-6-1.55V9.64c1.47.83 3.61 1.36 6 1.36s4.53-.53 6-1.36v2.81M12 9C8.13 9 6 7.5 6 7s2.13-2 6-2 6 1.5 6 2-2.13 2-6 2m8 13v-2h-4v-2h4v-2l3 3-3 3Z" transform="matrix(1.5 0 0 1.5 144 72)" id="mdi-database-arrow-right-outline" fill="#555"/><path d="M20 13.09V7c0-2.21-3.58-4-8-4S4 4.79 4 7v10c0 2.21 3.59 4 8 4 .46 0 .9 0 1.33-.06A5.94 5.94 0 0 1 13 19v-.05c-.32.05-.65.05-1 .05-3.87 0-6-1.5-6-2v-2.23c1.61.78 3.72 1.23 6 1.23.65 0 1.27-.04 1.88-.11A5.986 5.986 0 0 1 19 13c.34 0 .67.04 1 .09m-2-.64c-1.3.95-3.58 1.55-6 1.55s-4.7-.6-6-1.55V9.64c1.47.83 3.61 1.36 6 1.36s4.53-.53 6-1.36v2.81M12 9C8.13 9 6 7.5 6 7s2.13-2 6-2 6 1.5 6 2-2.13 2-6 2m8 13v-2h-4v-2h4v-2l3 3-3 3Z" transform="matrix(1.5 0 0 1.5 180 72)" id="mdi-database-arrow-right-outline" fill="#fff"/><path d="M19 13c-2.17 0-4.07 1.16-5.12 2.89-.6.07-1.23.11-1.88.11-4.42 0-8-1.79-8-4V9c0 2.21 3.58 4 8 4s8-1.79 8-4v3c0 .36-.1.71-.28 1.05C19.5 13 19.24 13 19 13m-7-2c4.42 0 8-1.79 8-4s-3.58-4-8-4-8 1.79-8 4 3.58 4 8 4m1.1 6.96c-.36.04-.73.04-1.1.04-4.42 0-8-1.79-8-4v3c0 2.21 3.58 4 8 4 .46 0 .9 0 1.33-.06A5.94 5.94 0 0 1 13 19c0-.36.04-.7.1-1.04M19 15l-3 3h2v4h2v-4h2l-3-3Z" transform="matrix(1.5 0 0 1.5 216 72)" id="mdi-database-arrow-up" fill="#555"/><path d="M19 13c-2.17 0-4.07 1.16-5.12 2.89-.6.07-1.23.11-1.88.11-4.42 0-8-1.79-8-4V9c0 2.21 3.58 4 8 4s8-1.79 8-4v3c0 .36-.1.71-.28 1.05C19.5 13 19.24 13 19 13m-7-2c4.42 0 8-1.79 8-4s-3.58-4-8-4-8 1.79-8 4 3.58 4 8 4m1.1 6.96c-.36.04-.73.04-1.1.04-4.42 0-8-1.79-8-4v3c0 2.21 3.58 4 8 4 .46 0 .9 0 1.33-.06A5.94 5.94 0 0 1 13 19c0-.36.04-.7.1-1.04M19 15l-3 3h2v4h2v-4h2l-3-3Z" transform="matrix(1.5 0 0 1.5 252 72)" id="mdi-database-arrow-up" fill="#fff"/><path d="M20 13.09V7c0-2.21-3.58-4-8-4S4 4.79 4 7v10c0 2.21 3.59 4 8 4 .46 0 .9 0 1.33-.06A5.94 5.94 0 0 1 13 19v-.05c-.32.05-.65.05-1 .05-3.87 0-6-1.5-6-2v-2.23c1.61.78 3.72 1.23 6 1.23.65 0 1.27-.04 1.88-.11A5.986 5.986 0 0 1 19 13c.34 0 .67.04 1 .09m-2-.64c-1.3.95-3.58 1.55-6 1.55s-4.7-.6-6-1.55V9.64c1.47.83 3.61 1.36 6 1.36s4.53-.53 6-1.36v2.81M12 9C8.13 9 6 7.5 6 7s2.13-2 6-2 6 1.5 6 2-2.13 2-6 2m10 9h-2v4h-2v-4h-2l3-3 3 3Z" transform="matrix(1.5 0 0 1.5 288 72)" id="mdi-database-arrow-up-outline" fill="#555"/><path d="M20 13.09V7c0-2.21-3.58-4-8-4S4 4.79 4 7v10c0 2.21 3.59 4 8 4 .46 0 .9 0 1.33-.06A5.94 5.94 0 0 1 13 19v-.05c-.32.05-.65.05-1 .05-3.87 0-6-1.5-6-2v-2.23c1.61.78 3.72 1.23 6 1.23.65 0 1.27-.04 1.88-.11A5.986 5.986 0 0 1 19 13c.34 0 .67.04 1 .09m-2-.64c-1.3.95-3.58 1.55-6 1.55s-4.7-.6-6-1.55V9.64c1.47.83 3.61 1.36 6 1.36s4.53-.53 6-1.36v2.81M12 9C8.13 9 6 7.5 6 7s2.13-2 6-2 6 1.5 6 2-2.13 2-6 2m10 9h-2v4h-2v-4h-2l3-3 3 3Z" transform="matrix(1.5 0 0 1.5 324 72)" id="mdi-database-arrow-up-outline" fill="#fff"/><path d="M12 3c4.42 0 8 1.79 8 4s-3.58 4-8 4-8-1.79-8-4 3.58-4 8-4M4 9c0 2.21 3.58 4 8 4s8-1.79 8-4v3.08L19 12c-2.59 0-4.8 1.64-5.64 3.94L12 16c-4.42 0-8-1.79-8-4V9m0 5c0 2.21 3.58 4 8 4h1c0 1.05.27 2.04.75 2.9L12 21c-4.42 0-8-1.79-8-4v-3m14 7.08-2.75-3 1.16-1.16L18 18.5l3.59-3.58 1.16 1.41L18 21.08" transform="matrix(1.5 0 0 1.5 360 72)" id="mdi-database-check" fill="#555"/><path d="M12 3c4.42 0 8 1.79 8 4s-3.58 4-8 4-8-1.79-8-4 3.58-4 8-4M4 9c0 2.21 3.58 4 8 4s8-1.79 8-4v3.08L19 12c-2.59 0-4.8 1.64-5.64 3.94L12 16c-4.42 0-8-1.79-8-4V9m0 5c0 2.21 3.58 4 8 4h1c0 1.05.27 2.04.75 2.9L12 21c-4.42 0-8-1.79-8-4v-3m14 7.08-2.75-3 1.16-1.16L18 18.5l3.59-3.58 1.16 1.41L18 21.08" transform="matrix(1.5 0 0 1.5 396 72)" id="mdi-database-check" fill="#fff"/><path d="M20 13.09V7c0-2.21-3.58-4-8-4S4 4.79 4 7v10c0 2.21 3.59 4 8 4 .46 0 .9 0 1.33-.06A5.94 5.94 0 0 1 13 19v-.05c-.32.05-.65.05-1 .05-3.87 0-6-1.5-6-2v-2.23c1.61.78 3.72 1.23 6 1.23.65 0 1.27-.04 1.88-.11A5.986 5.986 0 0 1 19 13c.34 0 .67.04 1 .09m-2-.64c-1.3.95-3.58 1.55-6 1.55s-4.7-.6-6-1.55V9.64c1.47.83 3.61 1.36 6 1.36s4.53-.53 6-1.36v2.81M12 9C8.13 9 6 7.5 6 7s2.13-2 6-2 6 1.5 6 2-2.13 2-6 2m10.5 8.25L17.75 22 15 19l1.16-1.16 1.59 1.59 3.59-3.59 1.16 1.41Z" transform="matrix(1.5 0 0 1.5 432 72)" id="mdi-database-check-outline" fill="#555"/><path d="M20 13.09V7c0-2.21-3.58-4-8-4S4 4.79 4 7v10c0 2.21 3.59 4 8 4 .46 0 .9 0 1.33-.06A5.94 5.94 0 0 1 13 19v-.05c-.32.05-.65.05-1 .05-3.87 0-6-1.5-6-2v-2.23c1.61.78 3.72 1.23 6 1.23.65 0 1.27-.04 1.88-.11A5.986 5.986 0 0 1 19 13c.34 0 .67.04 1 .09m-2-.64c-1.3.95-3.58 1.55-6 1.55s-4.7-.6-6-1.55V9.64c1.47.83 3.61 1.36 6 1.36s4.53-.53 6-1.36v2.81M12 9C8.13 9 6 7.5 6 7s2.13-2 6-2 6 1.5 6 2-2.13 2-6 2m10.5 8.25L17.75 22 15 19l1.16-1.16 1.59 1.59 3.59-3.59 1.16 1.41Z" transform="matrix(1.5 0 0 1.5 468 72)" id="mdi-database-check-outline" fill="#fff"/><path d="m16.5 16.25 2.86 1.69-.75 1.22L15 17v-5h1.5v4.25M23 16c0 3.87-3.13 7-7 7a7 7 0 0 1-5.75-3C6.18 19.79 3 18.08 3 16v-3c0 1.88 2.58 3.44 6.06 3.88C9.03 16.59 9 16.3 9 16c0-.38.04-.75.1-1.12-3.5-.43-6.1-2-6.1-3.88V8c0 2.09 3.2 3.8 7.27 4 .6-.86 1.37-1.56 2.26-2.07-.49.04-1.03.07-1.53.07-4.42 0-8-1.79-8-4s3.58-4 8-4 8 1.79 8 4c0 1.2-1.07 2.28-2.75 3 .75.04 1.5.19 2.19.45C18.79 9 19 8.5 19 8v1.68c2.36 1.13 4 3.53 4 6.32m-2 0c0-2.76-2.24-5-5-5s-5 2.24-5 5 2.24 5 5 5 5-2.24 5-5Z" transform="matrix(1.5 0 0 1.5 504 72)" id="mdi-database-clock" fill="#555"/><path d="m16.5 16.25 2.86 1.69-.75 1.22L15 17v-5h1.5v4.25M23 16c0 3.87-3.13 7-7 7a7 7 0 0 1-5.75-3C6.18 19.79 3 18.08 3 16v-3c0 1.88 2.58 3.44 6.06 3.88C9.03 16.59 9 16.3 9 16c0-.38.04-.75.1-1.12-3.5-.43-6.1-2-6.1-3.88V8c0 2.09 3.2 3.8 7.27 4 .6-.86 1.37-1.56 2.26-2.07-.49.04-1.03.07-1.53.07-4.42 0-8-1.79-8-4s3.58-4 8-4 8 1.79 8 4c0 1.2-1.07 2.28-2.75 3 .75.04 1.5.19 2.19.45C18.79 9 19 8.5 19 8v1.68c2.36 1.13 4 3.53 4 6.32m-2 0c0-2.76-2.24-5-5-5s-5 2.24-5 5 2.24 5 5 5 5-2.24 5-5Z" transform="matrix(1.5 0 0 1.5 540 72)" id="mdi-database-clock" fill="#fff"/><path d="m16.5 16.25 2.86 1.69-.75 1.22L15 17v-5h1.5v4.25M23 16c0 3.87-3.13 7-7 7a7 7 0 0 1-5.75-3C6.19 19.79 3 18.08 3 16V6c0-2.21 3.58-4 8-4s8 1.79 8 4v3.68c2.36 1.13 4 3.53 4 6.32m-6-6.92v-.44c-.23.13-.5.26-.76.36.26 0 .51.04.76.08M5 6c0 .5 2.13 2 6 2s6-1.5 6-2-2.13-2-6-2-6 1.5-6 2m0 5.45c1.07.78 2.8 1.31 4.72 1.48.61-1.26 1.6-2.31 2.82-3.01-.5.05-1.01.08-1.54.08-2.39 0-4.53-.53-6-1.36v2.81m4.26 6.42C9.1 17.27 9 16.65 9 16c0-.39.04-.77.1-1.14-1.54-.17-2.95-.53-4.1-1.09V16c0 .42 1.5 1.5 4.26 1.87M21 16c0-2.76-2.24-5-5-5s-5 2.24-5 5 2.24 5 5 5 5-2.24 5-5Z" transform="matrix(1.5 0 0 1.5 576 72)" id="mdi-database-clock-outline" fill="#555"/><path d="m16.5 16.25 2.86 1.69-.75 1.22L15 17v-5h1.5v4.25M23 16c0 3.87-3.13 7-7 7a7 7 0 0 1-5.75-3C6.19 19.79 3 18.08 3 16V6c0-2.21 3.58-4 8-4s8 1.79 8 4v3.68c2.36 1.13 4 3.53 4 6.32m-6-6.92v-.44c-.23.13-.5.26-.76.36.26 0 .51.04.76.08M5 6c0 .5 2.13 2 6 2s6-1.5 6-2-2.13-2-6-2-6 1.5-6 2m0 5.45c1.07.78 2.8 1.31 4.72 1.48.61-1.26 1.6-2.31 2.82-3.01-.5.05-1.01.08-1.54.08-2.39 0-4.53-.53-6-1.36v2.81m4.26 6.42C9.1 17.27 9 16.65 9 16c0-.39.04-.77.1-1.14-1.54-.17-2.95-.53-4.1-1.09V16c0 .42 1.5 1.5 4.26 1.87M21 16c0-2.76-2.24-5-5-5s-5 2.24-5 5 2.24 5 5 5 5-2.24 5-5Z" transform="matrix(1.5 0 0 1.5 612 72)" id="mdi-database-clock-outline" fill="#fff"/><path d="M4 7c0-2.21 3.58-4 8-4s8 1.79 8 4-3.58 4-8 4-8-1.79-8-4m8.08 11H12c-4.42 0-8-1.79-8-4v3c0 2.21 3.58 4 8 4h.29a7.38 7.38 0 0 1-.29-2c0-.34.03-.67.08-1M20 12.08V9c0 2.21-3.58 4-8 4s-8-1.79-8-4v3c0 2.21 3.58 4 8 4h.69c1.13-2.37 3.53-4 6.31-4 .34 0 .67.03 1 .08m3.8 8.32c.1 0 .1.1 0 .2l-1 1.7c-.1.1-.2.1-.3.1l-1.2-.4c-.3.2-.5.3-.8.5l-.2 1.3c0 .1-.1.2-.2.2h-2c-.1 0-.2-.1-.3-.2l-.2-1.3c-.3-.1-.6-.3-.8-.5l-1.2.5c-.1 0-.2 0-.3-.1l-1-1.7c-.1-.1 0-.2.1-.3l1.1-.8v-1l-1.1-.8c-.1-.1-.1-.2-.1-.3l1-1.7c.1-.1.2-.1.3-.1l1.2.5c.3-.2.5-.3.8-.5l.2-1.3c0-.1.1-.2.3-.2h2c.1 0 .2.1.2.2l.2 1.3c.3.1.6.3.9.5l1.2-.5c.1 0 .3 0 .3.1l1 1.7c.1.1 0 .2-.1.3l-1.1.8v1l1.1.8M20.5 19c0-.8-.7-1.5-1.5-1.5s-1.5.7-1.5 1.5.7 1.5 1.5 1.5 1.5-.7 1.5-1.5Z" transform="matrix(1.5 0 0 1.5 648 72)" id="mdi-database-cog" fill="#555"/><path d="M4 7c0-2.21 3.58-4 8-4s8 1.79 8 4-3.58 4-8 4-8-1.79-8-4m8.08 11H12c-4.42 0-8-1.79-8-4v3c0 2.21 3.58 4 8 4h.29a7.38 7.38 0 0 1-.29-2c0-.34.03-.67.08-1M20 12.08V9c0 2.21-3.58 4-8 4s-8-1.79-8-4v3c0 2.21 3.58 4 8 4h.69c1.13-2.37 3.53-4 6.31-4 .34 0 .67.03 1 .08m3.8 8.32c.1 0 .1.1 0 .2l-1 1.7c-.1.1-.2.1-.3.1l-1.2-.4c-.3.2-.5.3-.8.5l-.2 1.3c0 .1-.1.2-.2.2h-2c-.1 0-.2-.1-.3-.2l-.2-1.3c-.3-.1-.6-.3-.8-.5l-1.2.5c-.1 0-.2 0-.3-.1l-1-1.7c-.1-.1 0-.2.1-.3l1.1-.8v-1l-1.1-.8c-.1-.1-.1-.2-.1-.3l1-1.7c.1-.1.2-.1.3-.1l1.2.5c.3-.2.5-.3.8-.5l.2-1.3c0-.1.1-.2.3-.2h2c.1 0 .2.1.2.2l.2 1.3c.3.1.6.3.9.5l1.2-.5c.1 0 .3 0 .3.1l1 1.7c.1.1 0 .2-.1.3l-1.1.8v1l1.1.8M20.5 19c0-.8-.7-1.5-1.5-1.5s-1.5.7-1.5 1.5.7 1.5 1.5 1.5 1.5-.7 1.5-1.5Z" transform="matrix(1.5 0 0 1.5 684 72)" id="mdi-database-cog" fill="#fff"/><path d="M12 14c-2.42 0-4.7-.6-6-1.55V9.64c1.47.83 3.61 1.36 6 1.36s4.53-.53 6-1.36v2.44c.33-.05.66-.08 1-.08.34 0 .67.03 1 .08V7c0-2.21-3.58-4-8-4S4 4.79 4 7v10c0 2.21 3.59 4 8 4h.29a7.38 7.38 0 0 1-.29-2c-3.87 0-6-1.5-6-2v-2.23c1.61.78 3.72 1.23 6 1.23.24 0 .47 0 .7-.03.4-.83.95-1.56 1.62-2.16-.74.12-1.52.19-2.32.19m0-9c3.87 0 6 1.5 6 2s-2.13 2-6 2-6-1.5-6-2 2.13-2 6-2m10.7 14.6v-1l1.1-.8c.1-.1.2-.2.1-.3l-1-1.7c0-.1-.2-.1-.3-.1l-1.2.5c-.3-.2-.6-.4-.9-.5l-.2-1.3c0-.1-.1-.2-.2-.2h-2c-.2 0-.3.1-.3.2l-.2 1.3c-.3.2-.5.3-.8.5l-1.2-.5c-.1 0-.2 0-.3.1l-1 1.7c0 .1 0 .2.1.3l1.1.8v1l-1.1.8c-.1.1-.2.2-.1.3l1 1.7c.1.1.2.1.3.1l1.2-.5c.2.2.5.4.8.5l.2 1.3c.1.1.2.2.3.2h2c.1 0 .2-.1.2-.2l.2-1.3c.3-.2.5-.3.8-.5l1.2.4c.1 0 .2 0 .3-.1l1-1.7c.1-.1.1-.2 0-.2l-1.1-.8m-3.7.9c-.8 0-1.5-.7-1.5-1.5s.7-1.5 1.5-1.5 1.5.7 1.5 1.5-.7 1.5-1.5 1.5Z" transform="matrix(1.5 0 0 1.5 0 108)" id="mdi-database-cog-outline" fill="#555"/><path d="M12 14c-2.42 0-4.7-.6-6-1.55V9.64c1.47.83 3.61 1.36 6 1.36s4.53-.53 6-1.36v2.44c.33-.05.66-.08 1-.08.34 0 .67.03 1 .08V7c0-2.21-3.58-4-8-4S4 4.79 4 7v10c0 2.21 3.59 4 8 4h.29a7.38 7.38 0 0 1-.29-2c-3.87 0-6-1.5-6-2v-2.23c1.61.78 3.72 1.23 6 1.23.24 0 .47 0 .7-.03.4-.83.95-1.56 1.62-2.16-.74.12-1.52.19-2.32.19m0-9c3.87 0 6 1.5 6 2s-2.13 2-6 2-6-1.5-6-2 2.13-2 6-2m10.7 14.6v-1l1.1-.8c.1-.1.2-.2.1-.3l-1-1.7c0-.1-.2-.1-.3-.1l-1.2.5c-.3-.2-.6-.4-.9-.5l-.2-1.3c0-.1-.1-.2-.2-.2h-2c-.2 0-.3.1-.3.2l-.2 1.3c-.3.2-.5.3-.8.5l-1.2-.5c-.1 0-.2 0-.3.1l-1 1.7c0 .1 0 .2.1.3l1.1.8v1l-1.1.8c-.1.1-.2.2-.1.3l1 1.7c.1.1.2.1.3.1l1.2-.5c.2.2.5.4.8.5l.2 1.3c.1.1.2.2.3.2h2c.1 0 .2-.1.2-.2l.2-1.3c.3-.2.5-.3.8-.5l1.2.4c.1 0 .2 0 .3-.1l1-1.7c.1-.1.1-.2 0-.2l-1.1-.8m-3.7.9c-.8 0-1.5-.7-1.5-1.5s.7-1.5 1.5-1.5 1.5.7 1.5 1.5-.7 1.5-1.5 1.5Z" transform="matrix(1.5 0 0 1.5 36 108)" id="mdi-database-cog-outline" fill="#fff"/><path d="M4 14v3c0 2 3.05 3.72 7 4v-2.89l.13-.11C7.12 17.76 4 16.06 4 14m8-1c-4.42 0-8-1.79-8-4v3c0 2.21 3.58 4 8 4h1.16L17 12.12c-1.6.6-3.29.88-5 .88m0-10C7.58 3 4 4.79 4 7s3.58 4 8 4 8-1.79 8-4-3.58-4-8-4m9 8.13c-.15 0-.29.06-.39.17l-1 1 2.05 2 1-1a.54.54 0 0 0 0-.77l-1.24-1.23a.517.517 0 0 0-.38-.17m-2 1.75L13 18.94V21h2.06l6.06-6.07-2.08-2.05Z" transform="matrix(1.5 0 0 1.5 72 108)" id="mdi-database-edit" fill="#555"/><path d="M4 14v3c0 2 3.05 3.72 7 4v-2.89l.13-.11C7.12 17.76 4 16.06 4 14m8-1c-4.42 0-8-1.79-8-4v3c0 2.21 3.58 4 8 4h1.16L17 12.12c-1.6.6-3.29.88-5 .88m0-10C7.58 3 4 4.79 4 7s3.58 4 8 4 8-1.79 8-4-3.58-4-8-4m9 8.13c-.15 0-.29.06-.39.17l-1 1 2.05 2 1-1a.54.54 0 0 0 0-.77l-1.24-1.23a.517.517 0 0 0-.38-.17m-2 1.75L13 18.94V21h2.06l6.06-6.07-2.08-2.05Z" transform="matrix(1.5 0 0 1.5 108 108)" id="mdi-database-edit" fill="#fff"/><path d="M12 16c.8 0 1.57-.07 2.31-.18l2.91-2.91C15.89 13.59 14 14 12 14c-2.42 0-4.7-.6-6-1.55V9.64c1.47.83 3.61 1.36 6 1.36s4.53-.53 6-1.36v2.49l1.39-1.39c.18-.18.39-.32.61-.44V7c0-2.21-3.58-4-8-4S4 4.79 4 7v10c0 2.04 3.06 3.72 7 3.97v-1.84l.17-.17C7.84 18.76 6 17.46 6 17v-2.23c1.61.78 3.72 1.23 6 1.23m0-11c3.87 0 6 1.5 6 2s-2.13 2-6 2-6-1.5-6-2 2.13-2 6-2m7.13 8.83 2.04 2.04L15.04 22H13v-2.04l6.13-6.13m3.72.36-.98.98-2.04-2.04.98-.98c.19-.2.52-.2.72 0l1.32 1.32c.2.2.2.53 0 .72Z" transform="matrix(1.5 0 0 1.5 144 108)" id="mdi-database-edit-outline" fill="#555"/><path d="M12 16c.8 0 1.57-.07 2.31-.18l2.91-2.91C15.89 13.59 14 14 12 14c-2.42 0-4.7-.6-6-1.55V9.64c1.47.83 3.61 1.36 6 1.36s4.53-.53 6-1.36v2.49l1.39-1.39c.18-.18.39-.32.61-.44V7c0-2.21-3.58-4-8-4S4 4.79 4 7v10c0 2.04 3.06 3.72 7 3.97v-1.84l.17-.17C7.84 18.76 6 17.46 6 17v-2.23c1.61.78 3.72 1.23 6 1.23m0-11c3.87 0 6 1.5 6 2s-2.13 2-6 2-6-1.5-6-2 2.13-2 6-2m7.13 8.83 2.04 2.04L15.04 22H13v-2.04l6.13-6.13m3.72.36-.98.98-2.04-2.04.98-.98c.19-.2.52-.2.72 0l1.32 1.32c.2.2.2.53 0 .72Z" transform="matrix(1.5 0 0 1.5 180 108)" id="mdi-database-edit-outline" fill="#fff"/><path d="M12 3C7.58 3 4 4.79 4 7s3.58 4 8 4c.5 0 1-.03 1.5-.08V9.5h2.89l-1-1L18.9 5c-1.4-1.2-3.96-2-6.9-2m6.92 4.08L17.5 8.5 20 11h-5v2h5l-2.5 2.5 1.42 1.42L23.84 12M4 9v3c0 2.21 3.58 4 8 4 1.17 0 2.26-.15 3.25-.37l1.13-1.13H13.5v-1.58c-.5.05-1 .08-1.5.08-4.42 0-8-1.79-8-4m0 5v3c0 2.21 3.58 4 8 4 2.94 0 5.5-.8 6.9-2L17 17.1c-1.39.56-3.1.9-5 .9-4.42 0-8-1.79-8-4Z" transform="matrix(1.5 0 0 1.5 216 108)" id="mdi-database-export" fill="#555"/><path d="M12 3C7.58 3 4 4.79 4 7s3.58 4 8 4c.5 0 1-.03 1.5-.08V9.5h2.89l-1-1L18.9 5c-1.4-1.2-3.96-2-6.9-2m6.92 4.08L17.5 8.5 20 11h-5v2h5l-2.5 2.5 1.42 1.42L23.84 12M4 9v3c0 2.21 3.58 4 8 4 1.17 0 2.26-.15 3.25-.37l1.13-1.13H13.5v-1.58c-.5.05-1 .08-1.5.08-4.42 0-8-1.79-8-4m0 5v3c0 2.21 3.58 4 8 4 2.94 0 5.5-.8 6.9-2L17 17.1c-1.39.56-3.1.9-5 .9-4.42 0-8-1.79-8-4Z" transform="matrix(1.5 0 0 1.5 252 108)" id="mdi-database-export" fill="#fff"/><path d="m17.86 18 1.04 1c-1.4 1.2-3.96 2-6.9 2-4.41 0-8-1.79-8-4V7c0-2.21 3.58-4 8-4 2.95 0 5.5.8 6.9 2l-1.04 1-.36.4C16.65 5.77 14.78 5 12 5 8.13 5 6 6.5 6 7s2.13 2 6 2c1.37 0 2.5-.19 3.42-.46l.96.96H13.5v1.42c-.5.05-1 .08-1.5.08-2.39 0-4.53-.53-6-1.36v2.81C7.3 13.4 9.58 14 12 14c.5 0 1-.03 1.5-.08v.58h2.88l-1 1 .12.11c-1.09.25-2.26.39-3.5.39-2.28 0-4.39-.45-6-1.23V17c0 .5 2.13 2 6 2 2.78 0 4.65-.77 5.5-1.39l.36.39m1.06-10.92L17.5 8.5 20 11h-5v2h5l-2.5 2.5 1.42 1.42L23.84 12l-4.92-4.92Z" transform="matrix(1.5 0 0 1.5 288 108)" id="mdi-database-export-outline" fill="#555"/><path d="m17.86 18 1.04 1c-1.4 1.2-3.96 2-6.9 2-4.41 0-8-1.79-8-4V7c0-2.21 3.58-4 8-4 2.95 0 5.5.8 6.9 2l-1.04 1-.36.4C16.65 5.77 14.78 5 12 5 8.13 5 6 6.5 6 7s2.13 2 6 2c1.37 0 2.5-.19 3.42-.46l.96.96H13.5v1.42c-.5.05-1 .08-1.5.08-2.39 0-4.53-.53-6-1.36v2.81C7.3 13.4 9.58 14 12 14c.5 0 1-.03 1.5-.08v.58h2.88l-1 1 .12.11c-1.09.25-2.26.39-3.5.39-2.28 0-4.39-.45-6-1.23V17c0 .5 2.13 2 6 2 2.78 0 4.65-.77 5.5-1.39l.36.39m1.06-10.92L17.5 8.5 20 11h-5v2h5l-2.5 2.5 1.42 1.42L23.84 12l-4.92-4.92Z" transform="matrix(1.5 0 0 1.5 324 108)" id="mdi-database-export-outline" fill="#fff"/><path d="M4 12V9c0 2.2 3.6 4 8 4s8-1.8 8-4v3c0 .5-.2.9-.5 1.4-.8-.3-1.6-.4-2.5-.4-2.5 0-4.9 1.1-6.4 2.9C6.8 15.6 4 14 4 12m8-1c4.4 0 8-1.8 8-4s-3.6-4-8-4-8 1.8-8 4 3.6 4 8 4m-2.9 8.7-.3-.7.3-.7c.1-.2.2-.3.2-.5-3.1-.6-5.3-2-5.3-3.8v3c0 1.8 2.4 3.3 5.7 3.8-.2-.3-.4-.7-.6-1.1M17 18c-.6 0-1 .4-1 1s.4 1 1 1 1-.4 1-1-.4-1-1-1m6 1c-.9 2.3-3.3 4-6 4s-5.1-1.7-6-4c.9-2.3 3.3-4 6-4s5.1 1.7 6 4m-3.5 0c0-1.4-1.1-2.5-2.5-2.5s-2.5 1.1-2.5 2.5 1.1 2.5 2.5 2.5 2.5-1.1 2.5-2.5Z" transform="matrix(1.5 0 0 1.5 360 108)" id="mdi-database-eye" fill="#555"/><path d="M4 12V9c0 2.2 3.6 4 8 4s8-1.8 8-4v3c0 .5-.2.9-.5 1.4-.8-.3-1.6-.4-2.5-.4-2.5 0-4.9 1.1-6.4 2.9C6.8 15.6 4 14 4 12m8-1c4.4 0 8-1.8 8-4s-3.6-4-8-4-8 1.8-8 4 3.6 4 8 4m-2.9 8.7-.3-.7.3-.7c.1-.2.2-.3.2-.5-3.1-.6-5.3-2-5.3-3.8v3c0 1.8 2.4 3.3 5.7 3.8-.2-.3-.4-.7-.6-1.1M17 18c-.6 0-1 .4-1 1s.4 1 1 1 1-.4 1-1-.4-1-1-1m6 1c-.9 2.3-3.3 4-6 4s-5.1-1.7-6-4c.9-2.3 3.3-4 6-4s5.1 1.7 6 4m-3.5 0c0-1.4-1.1-2.5-2.5-2.5s-2.5 1.1-2.5 2.5 1.1 2.5 2.5 2.5 2.5-1.1 2.5-2.5Z" transform="matrix(1.5 0 0 1.5 396 108)" id="mdi-database-eye" fill="#fff"/><path d="m14.1 10.9-7-7c1.3-.6 3-.9 4.9-.9 4.4 0 8 1.8 8 4 0 1.9-2.5 3.4-5.9 3.9m2.1 2.1h.8c.9 0 1.7.1 2.5.4.3-.4.5-.9.5-1.4V9c0 1.5-1.7 2.9-4.3 3.5l.5.5m2.2 2.2 4.4 4.4c.1-.2.2-.4.3-.5-.9-2-2.6-3.5-4.7-3.9m3.7 6.3-1.3 1.3-.6-.6c-1 .5-2.1.9-3.2.9-2.7 0-5.1-1.7-6-4 .6-1.4 1.6-2.5 2.9-3.2l-1.5-1.5c-.7.4-1.3 1-1.9 1.6-3.7-.4-6.5-2-6.5-4V9c0 2.1 3.1 3.7 7.1 4l-2.3-2.3C6 10 4 8.6 4 7c0-.3.1-.6.2-.9L1.1 3l1.3-1.3 19.7 19.8m-3.3-.8-1.1-1.1c-.1.3-.4.4-.7.4-.6 0-1-.4-1-1 0-.3.1-.6.4-.8l-1.1-1.1c-.5.5-.8 1.1-.8 1.8 0 1.4 1.1 2.5 2.5 2.5.7.1 1.4-.2 1.8-.7M8.8 19l.3-.7c.1-.2.2-.3.2-.5-3.1-.6-5.3-2-5.3-3.8v3c0 1.8 2.4 3.3 5.7 3.8-.2-.3-.4-.7-.5-1.1l-.4-.7Z" transform="matrix(1.5 0 0 1.5 432 108)" id="mdi-database-eye-off" fill="#555"/><path d="m14.1 10.9-7-7c1.3-.6 3-.9 4.9-.9 4.4 0 8 1.8 8 4 0 1.9-2.5 3.4-5.9 3.9m2.1 2.1h.8c.9 0 1.7.1 2.5.4.3-.4.5-.9.5-1.4V9c0 1.5-1.7 2.9-4.3 3.5l.5.5m2.2 2.2 4.4 4.4c.1-.2.2-.4.3-.5-.9-2-2.6-3.5-4.7-3.9m3.7 6.3-1.3 1.3-.6-.6c-1 .5-2.1.9-3.2.9-2.7 0-5.1-1.7-6-4 .6-1.4 1.6-2.5 2.9-3.2l-1.5-1.5c-.7.4-1.3 1-1.9 1.6-3.7-.4-6.5-2-6.5-4V9c0 2.1 3.1 3.7 7.1 4l-2.3-2.3C6 10 4 8.6 4 7c0-.3.1-.6.2-.9L1.1 3l1.3-1.3 19.7 19.8m-3.3-.8-1.1-1.1c-.1.3-.4.4-.7.4-.6 0-1-.4-1-1 0-.3.1-.6.4-.8l-1.1-1.1c-.5.5-.8 1.1-.8 1.8 0 1.4 1.1 2.5 2.5 2.5.7.1 1.4-.2 1.8-.7M8.8 19l.3-.7c.1-.2.2-.3.2-.5-3.1-.6-5.3-2-5.3-3.8v3c0 1.8 2.4 3.3 5.7 3.8-.2-.3-.4-.7-.5-1.1l-.4-.7Z" transform="matrix(1.5 0 0 1.5 468 108)" id="mdi-database-eye-off" fill="#fff"/><path d="M23 19c-.1.2-.2.4-.3.5l-4.4-4.4c2.2.5 3.9 2 4.7 3.9M12 5c3.9 0 6 1.5 6 2s-2.1 1.9-5.8 2l1.9 1.9c1.5-.2 2.9-.6 3.9-1.2v2.8c-.3.2-.6.4-1 .6 1 0 2 .2 3 .6V7c0-2.2-3.6-4-8-4-1.9 0-3.6.3-4.9.9l1.6 1.6c.8-.3 2-.5 3.3-.5m10.1 16.5-1.3 1.3-.6-.6c-1 .5-2.1.9-3.2.9-2.7 0-5.1-1.7-6-4 .6-1.4 1.6-2.5 2.9-3.2l-1.5-1.5c-.7.4-1.3 1-1.9 1.6-1.7-.1-3.3-.5-4.6-1.2V17c0 .3 1.1 1.2 3 1.6l-.1.4.3.7c.2.4.3.7.5 1.1-3.2-.5-5.6-2-5.6-3.8V7c0-.3.1-.6.2-.9L1.1 3l1.3-1.3 19.7 19.8m-10-7.5-3.4-3.4c-1.1-.2-2-.6-2.8-1v2.8c1.3 1 3.6 1.5 6 1.5.1.1.2.1.2.1m6.7 6.7-1.1-1.1c-.1.3-.4.4-.7.4-.6 0-1-.4-1-1 0-.3.1-.6.4-.8l-1.1-1.1c-.5.5-.8 1.1-.8 1.8 0 1.4 1.1 2.5 2.5 2.5.7.1 1.4-.2 1.8-.7Z" transform="matrix(1.5 0 0 1.5 504 108)" id="mdi-database-eye-off-outline" fill="#555"/><path d="M23 19c-.1.2-.2.4-.3.5l-4.4-4.4c2.2.5 3.9 2 4.7 3.9M12 5c3.9 0 6 1.5 6 2s-2.1 1.9-5.8 2l1.9 1.9c1.5-.2 2.9-.6 3.9-1.2v2.8c-.3.2-.6.4-1 .6 1 0 2 .2 3 .6V7c0-2.2-3.6-4-8-4-1.9 0-3.6.3-4.9.9l1.6 1.6c.8-.3 2-.5 3.3-.5m10.1 16.5-1.3 1.3-.6-.6c-1 .5-2.1.9-3.2.9-2.7 0-5.1-1.7-6-4 .6-1.4 1.6-2.5 2.9-3.2l-1.5-1.5c-.7.4-1.3 1-1.9 1.6-1.7-.1-3.3-.5-4.6-1.2V17c0 .3 1.1 1.2 3 1.6l-.1.4.3.7c.2.4.3.7.5 1.1-3.2-.5-5.6-2-5.6-3.8V7c0-.3.1-.6.2-.9L1.1 3l1.3-1.3 19.7 19.8m-10-7.5-3.4-3.4c-1.1-.2-2-.6-2.8-1v2.8c1.3 1 3.6 1.5 6 1.5.1.1.2.1.2.1m6.7 6.7-1.1-1.1c-.1.3-.4.4-.7.4-.6 0-1-.4-1-1 0-.3.1-.6.4-.8l-1.1-1.1c-.5.5-.8 1.1-.8 1.8 0 1.4 1.1 2.5 2.5 2.5.7.1 1.4-.2 1.8-.7Z" transform="matrix(1.5 0 0 1.5 540 108)" id="mdi-database-eye-off-outline" fill="#fff"/><path d="m9.1 19.7-.3-.7.2-.4c-1.9-.5-3-1.3-3-1.6v-2.2c1.3.6 2.8 1 4.6 1.2.7-.8 1.6-1.5 2.5-2H12c-2.4 0-4.7-.6-6-1.5V9.6c1.5.8 3.6 1.4 6 1.4s4.5-.5 6-1.4v2.8c-.3.2-.6.4-1 .6 1 0 2 .2 3 .6V7c0-2.2-3.6-4-8-4S4 4.8 4 7v10c0 1.8 2.4 3.3 5.7 3.8-.2-.3-.4-.7-.6-1.1M12 5c3.9 0 6 1.5 6 2s-2.1 2-6 2-6-1.5-6-2 2.1-2 6-2m5 13c.6 0 1 .4 1 1s-.4 1-1 1-1-.4-1-1 .4-1 1-1m0-3c-2.7 0-5.1 1.7-6 4 .9 2.3 3.3 4 6 4s5.1-1.7 6-4c-.9-2.3-3.3-4-6-4m0 6.5c-1.4 0-2.5-1.1-2.5-2.5s1.1-2.5 2.5-2.5 2.5 1.1 2.5 2.5-1.1 2.5-2.5 2.5Z" transform="matrix(1.5 0 0 1.5 576 108)" id="mdi-database-eye-outline" fill="#555"/><path d="m9.1 19.7-.3-.7.2-.4c-1.9-.5-3-1.3-3-1.6v-2.2c1.3.6 2.8 1 4.6 1.2.7-.8 1.6-1.5 2.5-2H12c-2.4 0-4.7-.6-6-1.5V9.6c1.5.8 3.6 1.4 6 1.4s4.5-.5 6-1.4v2.8c-.3.2-.6.4-1 .6 1 0 2 .2 3 .6V7c0-2.2-3.6-4-8-4S4 4.8 4 7v10c0 1.8 2.4 3.3 5.7 3.8-.2-.3-.4-.7-.6-1.1M12 5c3.9 0 6 1.5 6 2s-2.1 2-6 2-6-1.5-6-2 2.1-2 6-2m5 13c.6 0 1 .4 1 1s-.4 1-1 1-1-.4-1-1 .4-1 1-1m0-3c-2.7 0-5.1 1.7-6 4 .9 2.3 3.3 4 6 4s5.1-1.7 6-4c-.9-2.3-3.3-4-6-4m0 6.5c-1.4 0-2.5-1.1-2.5-2.5s1.1-2.5 2.5-2.5 2.5 1.1 2.5 2.5-1.1 2.5-2.5 2.5Z" transform="matrix(1.5 0 0 1.5 612 108)" id="mdi-database-eye-outline" fill="#fff"/><path d="M12 3C8.59 3 5.69 4.07 4.54 5.57l5.25 5.25c.71.11 1.43.18 2.21.18 4.42 0 8-1.79 8-4s-3.58-4-8-4M3.92 7.08 2.5 8.5 5 11H0v2h5l-2.5 2.5 1.42 1.42L8.84 12M20 9c0 2.21-3.58 4-8 4-.66 0-1.3-.05-1.91-.13l-2.47 2.47c1.26.41 2.76.66 4.38.66 4.42 0 8-1.79 8-4m0 2c0 2.21-3.58 4-8 4-2.28 0-4.33-.5-5.79-1.25l-1.68 1.68C5.68 19.93 8.59 21 12 21c4.42 0 8-1.79 8-4" transform="matrix(1.5 0 0 1.5 648 108)" id="mdi-database-import" fill="#555"/><path d="M12 3C8.59 3 5.69 4.07 4.54 5.57l5.25 5.25c.71.11 1.43.18 2.21.18 4.42 0 8-1.79 8-4s-3.58-4-8-4M3.92 7.08 2.5 8.5 5 11H0v2h5l-2.5 2.5 1.42 1.42L8.84 12M20 9c0 2.21-3.58 4-8 4-.66 0-1.3-.05-1.91-.13l-2.47 2.47c1.26.41 2.76.66 4.38.66 4.42 0 8-1.79 8-4m0 2c0 2.21-3.58 4-8 4-2.28 0-4.33-.5-5.79-1.25l-1.68 1.68C5.68 19.93 8.59 21 12 21c4.42 0 8-1.79 8-4" transform="matrix(1.5 0 0 1.5 684 108)" id="mdi-database-import" fill="#fff"/><path d="m8.84 12-4.92 4.92L2.5 15.5 5 13H0v-2h5L2.5 8.5l1.42-1.42L8.84 12M12 3C8.59 3 5.68 4.07 4.53 5.57L5 6l1.03 1.07C6 7.05 6 7 6 7c0-.5 2.13-2 6-2s6 1.5 6 2-2.13 2-6 2c-2.62 0-4.42-.69-5.32-1.28l3.12 3.12c.7.1 1.44.16 2.2.16 2.39 0 4.53-.53 6-1.36v2.81c-1.3.95-3.58 1.55-6 1.55-.96 0-1.9-.1-2.76-.27l-1.65 1.64c1.32.4 2.82.63 4.41.63 2.28 0 4.39-.45 6-1.23V17c0 .5-2.13 2-6 2s-6-1.5-6-2v-.04L5 18l-.46.43C5.69 19.93 8.6 21 12 21c4.41 0 8-1.79 8-4V7c0-2.21-3.58-4-8-4Z" transform="matrix(1.5 0 0 1.5 0 144)" id="mdi-database-import-outline" fill="#555"/><path d="m8.84 12-4.92 4.92L2.5 15.5 5 13H0v-2h5L2.5 8.5l1.42-1.42L8.84 12M12 3C8.59 3 5.68 4.07 4.53 5.57L5 6l1.03 1.07C6 7.05 6 7 6 7c0-.5 2.13-2 6-2s6 1.5 6 2-2.13 2-6 2c-2.62 0-4.42-.69-5.32-1.28l3.12 3.12c.7.1 1.44.16 2.2.16 2.39 0 4.53-.53 6-1.36v2.81c-1.3.95-3.58 1.55-6 1.55-.96 0-1.9-.1-2.76-.27l-1.65 1.64c1.32.4 2.82.63 4.41.63 2.28 0 4.39-.45 6-1.23V17c0 .5-2.13 2-6 2s-6-1.5-6-2v-.04L5 18l-.46.43C5.69 19.93 8.6 21 12 21c4.41 0 8-1.79 8-4V7c0-2.21-3.58-4-8-4Z" transform="matrix(1.5 0 0 1.5 36 144)" id="mdi-database-import-outline" fill="#fff"/><path d="M11 3c4.42 0 8 1.79 8 4s-3.58 4-8 4-8-1.79-8-4 3.58-4 8-4m8 9.03a4.502 4.502 0 0 0-3.87 3.4c-1.21.36-2.63.57-4.13.57-4.42 0-8-1.79-8-4V9c0 2.21 3.58 4 8 4s8-1.79 8-4v3.03m-5 5.68v3c-.93.19-1.94.29-3 .29-4.42 0-8-1.79-8-4v-3c0 2.21 3.58 4 8 4 1.06 0 2.07-.1 3-.29M19.5 14a2.5 2.5 0 0 1 2.5 2.5v.5a1 1 0 0 1 1 1v4a1 1 0 0 1-1 1h-5a1 1 0 0 1-1-1v-4a1 1 0 0 1 1-1v-.5a2.5 2.5 0 0 1 2.5-2.5m0 1a1.5 1.5 0 0 0-1.5 1.5v.5h3v-.5a1.5 1.5 0 0 0-1.5-1.5Z" transform="matrix(1.5 0 0 1.5 72 144)" id="mdi-database-lock" fill="#555"/><path d="M11 3c4.42 0 8 1.79 8 4s-3.58 4-8 4-8-1.79-8-4 3.58-4 8-4m8 9.03a4.502 4.502 0 0 0-3.87 3.4c-1.21.36-2.63.57-4.13.57-4.42 0-8-1.79-8-4V9c0 2.21 3.58 4 8 4s8-1.79 8-4v3.03m-5 5.68v3c-.93.19-1.94.29-3 .29-4.42 0-8-1.79-8-4v-3c0 2.21 3.58 4 8 4 1.06 0 2.07-.1 3-.29M19.5 14a2.5 2.5 0 0 1 2.5 2.5v.5a1 1 0 0 1 1 1v4a1 1 0 0 1-1 1h-5a1 1 0 0 1-1-1v-4a1 1 0 0 1 1-1v-.5a2.5 2.5 0 0 1 2.5-2.5m0 1a1.5 1.5 0 0 0-1.5 1.5v.5h3v-.5a1.5 1.5 0 0 0-1.5-1.5Z" transform="matrix(1.5 0 0 1.5 108 144)" id="mdi-database-lock" fill="#fff"/><path d="M6 12.45V9.64c1.47.83 3.61 1.36 6 1.36s4.53-.53 6-1.36v1.41c.17-.02.33-.05.5-.05.53 0 1.03.1 1.5.26V7c0-2.21-3.58-4-8-4S4 4.79 4 7v10c0 2.21 3.59 4 8 4 .34 0 .67 0 1-.03v-2.02c-.32.05-.65.05-1 .05-3.87 0-6-1.5-6-2v-2.23c1.61.78 3.72 1.23 6 1.23.41 0 .81-.03 1.21-.06.19-.48.47-.91.86-1.24.06-.31.16-.61.27-.9-.74.13-1.53.2-2.34.2-2.42 0-4.7-.6-6-1.55M12 5c3.87 0 6 1.5 6 2s-2.13 2-6 2-6-1.5-6-2 2.13-2 6-2m9 11v-.5a2.5 2.5 0 0 0-5 0v.5c-.55 0-1 .45-1 1v4c0 .55.45 1 1 1h5c.55 0 1-.45 1-1v-4c0-.55-.45-1-1-1m-1 0h-3v-.5c0-.83.67-1.5 1.5-1.5s1.5.67 1.5 1.5v.5Z" transform="matrix(1.5 0 0 1.5 144 144)" id="mdi-database-lock-outline" fill="#555"/><path d="M6 12.45V9.64c1.47.83 3.61 1.36 6 1.36s4.53-.53 6-1.36v1.41c.17-.02.33-.05.5-.05.53 0 1.03.1 1.5.26V7c0-2.21-3.58-4-8-4S4 4.79 4 7v10c0 2.21 3.59 4 8 4 .34 0 .67 0 1-.03v-2.02c-.32.05-.65.05-1 .05-3.87 0-6-1.5-6-2v-2.23c1.61.78 3.72 1.23 6 1.23.41 0 .81-.03 1.21-.06.19-.48.47-.91.86-1.24.06-.31.16-.61.27-.9-.74.13-1.53.2-2.34.2-2.42 0-4.7-.6-6-1.55M12 5c3.87 0 6 1.5 6 2s-2.13 2-6 2-6-1.5-6-2 2.13-2 6-2m9 11v-.5a2.5 2.5 0 0 0-5 0v.5c-.55 0-1 .45-1 1v4c0 .55.45 1 1 1h5c.55 0 1-.45 1-1v-4c0-.55-.45-1-1-1m-1 0h-3v-.5c0-.83.67-1.5 1.5-1.5s1.5.67 1.5 1.5v.5Z" transform="matrix(1.5 0 0 1.5 180 144)" id="mdi-database-lock-outline" fill="#fff"/><path d="M18.5 12c-1.9 0-3.5 1.6-3.5 3.5 0 2.6 3.5 6.5 3.5 6.5s3.5-3.9 3.5-6.5c0-1.9-1.6-3.5-3.5-3.5m0 4.8c-.7 0-1.2-.6-1.2-1.2 0-.7.6-1.2 1.2-1.2s1.2.6 1.2 1.2c.1.6-.5 1.2-1.2 1.2M4 12V9c0 2.21 3.58 4 8 4 .57 0 1.13-.03 1.67-.09-.42.78-.67 1.66-.67 2.59 0 .15 0 .31.03.46-.34.04-.68.04-1.03.04-4.42 0-8-1.79-8-4m0-5c0-2.21 3.58-4 8-4s8 1.79 8 4-3.58 4-8 4-8-1.79-8-4m11 13.71c-.93.19-1.94.29-3 .29-4.42 0-8-1.79-8-4v-3c0 2.21 3.58 4 8 4 .5 0 1.03-.03 1.5-.07.4.98.94 1.94 1.5 2.78Z" transform="matrix(1.5 0 0 1.5 216 144)" id="mdi-database-marker" fill="#555"/><path d="M18.5 12c-1.9 0-3.5 1.6-3.5 3.5 0 2.6 3.5 6.5 3.5 6.5s3.5-3.9 3.5-6.5c0-1.9-1.6-3.5-3.5-3.5m0 4.8c-.7 0-1.2-.6-1.2-1.2 0-.7.6-1.2 1.2-1.2s1.2.6 1.2 1.2c.1.6-.5 1.2-1.2 1.2M4 12V9c0 2.21 3.58 4 8 4 .57 0 1.13-.03 1.67-.09-.42.78-.67 1.66-.67 2.59 0 .15 0 .31.03.46-.34.04-.68.04-1.03.04-4.42 0-8-1.79-8-4m0-5c0-2.21 3.58-4 8-4s8 1.79 8 4-3.58 4-8 4-8-1.79-8-4m11 13.71c-.93.19-1.94.29-3 .29-4.42 0-8-1.79-8-4v-3c0 2.21 3.58 4 8 4 .5 0 1.03-.03 1.5-.07.4.98.94 1.94 1.5 2.78Z" transform="matrix(1.5 0 0 1.5 252 144)" id="mdi-database-marker" fill="#fff"/><path d="M12 19c-3.87 0-6-1.5-6-2v-2.23c1.61.78 3.72 1.23 6 1.23.35 0 .69-.03 1.03-.05-.03-.15-.03-.3-.03-.45 0-.54.09-1.06.24-1.56-.41.06-.82.06-1.24.06-2.42 0-4.7-.6-6-1.55V9.64c1.47.83 3.61 1.36 6 1.36s4.53-.53 6-1.36v.39c.17-.03.33-.03.5-.03.5 0 1 .08 1.5.22V7c0-2.21-3.58-4-8-4S4 4.79 4 7v10c0 2.21 3.59 4 8 4 1.06 0 2.07-.11 3-.29-.38-.57-.75-1.21-1.07-1.86-.59.09-1.22.15-1.93.15m0-14c3.87 0 6 1.5 6 2s-2.13 2-6 2-6-1.5-6-2 2.13-2 6-2m6.5 7c-1.9 0-3.5 1.6-3.5 3.5 0 2.6 3.5 6.5 3.5 6.5s3.5-3.9 3.5-6.5c0-1.9-1.6-3.5-3.5-3.5m0 4.8c-.7 0-1.2-.6-1.2-1.2 0-.7.6-1.2 1.2-1.2s1.2.6 1.2 1.2c.1.6-.5 1.2-1.2 1.2Z" transform="matrix(1.5 0 0 1.5 288 144)" id="mdi-database-marker-outline" fill="#555"/><path d="M12 19c-3.87 0-6-1.5-6-2v-2.23c1.61.78 3.72 1.23 6 1.23.35 0 .69-.03 1.03-.05-.03-.15-.03-.3-.03-.45 0-.54.09-1.06.24-1.56-.41.06-.82.06-1.24.06-2.42 0-4.7-.6-6-1.55V9.64c1.47.83 3.61 1.36 6 1.36s4.53-.53 6-1.36v.39c.17-.03.33-.03.5-.03.5 0 1 .08 1.5.22V7c0-2.21-3.58-4-8-4S4 4.79 4 7v10c0 2.21 3.59 4 8 4 1.06 0 2.07-.11 3-.29-.38-.57-.75-1.21-1.07-1.86-.59.09-1.22.15-1.93.15m0-14c3.87 0 6 1.5 6 2s-2.13 2-6 2-6-1.5-6-2 2.13-2 6-2m6.5 7c-1.9 0-3.5 1.6-3.5 3.5 0 2.6 3.5 6.5 3.5 6.5s3.5-3.9 3.5-6.5c0-1.9-1.6-3.5-3.5-3.5m0 4.8c-.7 0-1.2-.6-1.2-1.2 0-.7.6-1.2 1.2-1.2s1.2.6 1.2 1.2c.1.6-.5 1.2-1.2 1.2Z" transform="matrix(1.5 0 0 1.5 324 144)" id="mdi-database-marker-outline" fill="#fff"/><path d="M23 17v2h-8v-2M12 3c4.42 0 8 1.79 8 4s-3.58 4-8 4-8-1.79-8-4 3.58-4 8-4M4 9c0 2.21 3.58 4 8 4s8-1.79 8-4v3.08L19 12c-2.59 0-4.8 1.64-5.64 3.94L12 16c-4.42 0-8-1.79-8-4V9m0 5c0 2.21 3.58 4 8 4h1c0 1.05.27 2.04.75 2.9L12 21c-4.42 0-8-1.79-8-4v-3Z" transform="matrix(1.5 0 0 1.5 360 144)" id="mdi-database-minus" fill="#555"/><path d="M23 17v2h-8v-2M12 3c4.42 0 8 1.79 8 4s-3.58 4-8 4-8-1.79-8-4 3.58-4 8-4M4 9c0 2.21 3.58 4 8 4s8-1.79 8-4v3.08L19 12c-2.59 0-4.8 1.64-5.64 3.94L12 16c-4.42 0-8-1.79-8-4V9m0 5c0 2.21 3.58 4 8 4h1c0 1.05.27 2.04.75 2.9L12 21c-4.42 0-8-1.79-8-4v-3Z" transform="matrix(1.5 0 0 1.5 396 144)" id="mdi-database-minus" fill="#fff"/><path d="M20 13.09V7c0-2.21-3.58-4-8-4S4 4.79 4 7v10c0 2.21 3.59 4 8 4 .46 0 .9 0 1.33-.06A5.94 5.94 0 0 1 13 19v-.05c-.32.05-.65.05-1 .05-3.87 0-6-1.5-6-2v-2.23c1.61.78 3.72 1.23 6 1.23.65 0 1.27-.04 1.88-.11A5.986 5.986 0 0 1 19 13c.34 0 .67.04 1 .09m-2-.64c-1.3.95-3.58 1.55-6 1.55s-4.7-.6-6-1.55V9.64c1.47.83 3.61 1.36 6 1.36s4.53-.53 6-1.36v2.81M12 9C8.13 9 6 7.5 6 7s2.13-2 6-2 6 1.5 6 2-2.13 2-6 2m11 9v2h-8v-2h8Z" transform="matrix(1.5 0 0 1.5 432 144)" id="mdi-database-minus-outline" fill="#555"/><path d="M20 13.09V7c0-2.21-3.58-4-8-4S4 4.79 4 7v10c0 2.21 3.59 4 8 4 .46 0 .9 0 1.33-.06A5.94 5.94 0 0 1 13 19v-.05c-.32.05-.65.05-1 .05-3.87 0-6-1.5-6-2v-2.23c1.61.78 3.72 1.23 6 1.23.65 0 1.27-.04 1.88-.11A5.986 5.986 0 0 1 19 13c.34 0 .67.04 1 .09m-2-.64c-1.3.95-3.58 1.55-6 1.55s-4.7-.6-6-1.55V9.64c1.47.83 3.61 1.36 6 1.36s4.53-.53 6-1.36v2.81M12 9C8.13 9 6 7.5 6 7s2.13-2 6-2 6 1.5 6 2-2.13 2-6 2m11 9v2h-8v-2h8Z" transform="matrix(1.5 0 0 1.5 468 144)" id="mdi-database-minus-outline" fill="#fff"/><path d="M19.07 15.87c.59-.56.93-1.19.93-1.87v2.8l-.93-.93M20 9c0 1.54-1.73 2.86-4.27 3.53l2.16 2.16C19.19 14 20 13.04 20 12V9m0-2c0-2.21-3.58-4-8-4-1.87 0-3.58.33-4.94.86l7 7C17.5 10.41 20 8.85 20 7M2.39 1.73 1.11 3l3.1 3.1c-.13.29-.21.59-.21.9 0 1.63 1.96 3.04 4.77 3.66l2.31 2.31C7.1 12.74 4 11.06 4 9v3c0 2.21 3.58 4 8 4 .69 0 1.35-.05 2-.13l1.66 1.68c-1.09.29-2.34.45-3.66.45-4.42 0-8-1.79-8-4v3c0 2.21 3.58 4 8 4 2.31 0 4.38-.5 5.84-1.27l3 3 1.27-1.27L2.39 1.73Z" transform="matrix(1.5 0 0 1.5 504 144)" id="mdi-database-off" fill="#555"/><path d="M19.07 15.87c.59-.56.93-1.19.93-1.87v2.8l-.93-.93M20 9c0 1.54-1.73 2.86-4.27 3.53l2.16 2.16C19.19 14 20 13.04 20 12V9m0-2c0-2.21-3.58-4-8-4-1.87 0-3.58.33-4.94.86l7 7C17.5 10.41 20 8.85 20 7M2.39 1.73 1.11 3l3.1 3.1c-.13.29-.21.59-.21.9 0 1.63 1.96 3.04 4.77 3.66l2.31 2.31C7.1 12.74 4 11.06 4 9v3c0 2.21 3.58 4 8 4 .69 0 1.35-.05 2-.13l1.66 1.68c-1.09.29-2.34.45-3.66.45-4.42 0-8-1.79-8-4v3c0 2.21 3.58 4 8 4 2.31 0 4.38-.5 5.84-1.27l3 3 1.27-1.27L2.39 1.73Z" transform="matrix(1.5 0 0 1.5 540 144)" id="mdi-database-off" fill="#fff"/><path d="M2.39 1.73 1.11 3l3.1 3.1c-.13.29-.21.59-.21.9v10c0 2.21 3.59 4 8 4 2.3 0 4.38-.5 5.84-1.27l3 3 1.27-1.27L2.39 1.73M6 9.64c.76.43 1.7.78 2.76 1.01L12.11 14H12c-2.42 0-4.7-.6-6-1.55V9.64M12 19c-3.87 0-6-1.5-6-2v-2.23c1.61.78 3.72 1.23 6 1.23.68 0 1.34-.05 2-.13l2.34 2.36c-1.01.42-2.47.77-4.34.77M8.64 5.44 7.06 3.86C8.42 3.33 10.13 3 12 3c4.42 0 8 1.79 8 4v9.8l-2-2v-.03.01l-1.55-1.53c.6-.22 1.13-.49 1.55-.8V9.64c-1.03.58-2.39 1.01-3.94 1.22L12.19 9C15.94 8.94 18 7.5 18 7s-2.13-2-6-2c-1.34 0-2.46.18-3.36.44Z" transform="matrix(1.5 0 0 1.5 576 144)" id="mdi-database-off-outline" fill="#555"/><path d="M2.39 1.73 1.11 3l3.1 3.1c-.13.29-.21.59-.21.9v10c0 2.21 3.59 4 8 4 2.3 0 4.38-.5 5.84-1.27l3 3 1.27-1.27L2.39 1.73M6 9.64c.76.43 1.7.78 2.76 1.01L12.11 14H12c-2.42 0-4.7-.6-6-1.55V9.64M12 19c-3.87 0-6-1.5-6-2v-2.23c1.61.78 3.72 1.23 6 1.23.68 0 1.34-.05 2-.13l2.34 2.36c-1.01.42-2.47.77-4.34.77M8.64 5.44 7.06 3.86C8.42 3.33 10.13 3 12 3c4.42 0 8 1.79 8 4v9.8l-2-2v-.03.01l-1.55-1.53c.6-.22 1.13-.49 1.55-.8V9.64c-1.03.58-2.39 1.01-3.94 1.22L12.19 9C15.94 8.94 18 7.5 18 7s-2.13-2-6-2c-1.34 0-2.46.18-3.36.44Z" transform="matrix(1.5 0 0 1.5 612 144)" id="mdi-database-off-outline" fill="#fff"/><path d="M12 3C7.58 3 4 4.79 4 7v10c0 2.21 3.59 4 8 4s8-1.79 8-4V7c0-2.21-3.58-4-8-4m6 14c0 .5-2.13 2-6 2s-6-1.5-6-2v-2.23c1.61.78 3.72 1.23 6 1.23s4.39-.45 6-1.23V17m0-4.55c-1.3.95-3.58 1.55-6 1.55s-4.7-.6-6-1.55V9.64c1.47.83 3.61 1.36 6 1.36s4.53-.53 6-1.36v2.81M12 9C8.13 9 6 7.5 6 7s2.13-2 6-2 6 1.5 6 2-2.13 2-6 2Z" transform="matrix(1.5 0 0 1.5 648 144)" id="mdi-database-outline" fill="#555"/><path d="M12 3C7.58 3 4 4.79 4 7v10c0 2.21 3.59 4 8 4s8-1.79 8-4V7c0-2.21-3.58-4-8-4m6 14c0 .5-2.13 2-6 2s-6-1.5-6-2v-2.23c1.61.78 3.72 1.23 6 1.23s4.39-.45 6-1.23V17m0-4.55c-1.3.95-3.58 1.55-6 1.55s-4.7-.6-6-1.55V9.64c1.47.83 3.61 1.36 6 1.36s4.53-.53 6-1.36v2.81M12 9C8.13 9 6 7.5 6 7s2.13-2 6-2 6 1.5 6 2-2.13 2-6 2Z" transform="matrix(1.5 0 0 1.5 684 144)" id="mdi-database-outline" fill="#fff"/><path d="M18 14h2v3h3v2h-3v3h-2v-3h-3v-2h3v-3M12 3c4.42 0 8 1.79 8 4s-3.58 4-8 4-8-1.79-8-4 3.58-4 8-4M4 9c0 2.21 3.58 4 8 4s8-1.79 8-4v3.08L19 12c-2.59 0-4.8 1.64-5.64 3.94L12 16c-4.42 0-8-1.79-8-4V9m0 5c0 2.21 3.58 4 8 4h1c0 1.05.27 2.04.75 2.9L12 21c-4.42 0-8-1.79-8-4v-3Z" transform="matrix(1.5 0 0 1.5 0 180)" id="mdi-database-plus" fill="#555"/><path d="M18 14h2v3h3v2h-3v3h-2v-3h-3v-2h3v-3M12 3c4.42 0 8 1.79 8 4s-3.58 4-8 4-8-1.79-8-4 3.58-4 8-4M4 9c0 2.21 3.58 4 8 4s8-1.79 8-4v3.08L19 12c-2.59 0-4.8 1.64-5.64 3.94L12 16c-4.42 0-8-1.79-8-4V9m0 5c0 2.21 3.58 4 8 4h1c0 1.05.27 2.04.75 2.9L12 21c-4.42 0-8-1.79-8-4v-3Z" transform="matrix(1.5 0 0 1.5 36 180)" id="mdi-database-plus" fill="#fff"/><path d="M20 13.09V7c0-2.21-3.58-4-8-4S4 4.79 4 7v10c0 2.21 3.59 4 8 4 .46 0 .9 0 1.33-.06A5.94 5.94 0 0 1 13 19v-.05c-.32.05-.65.05-1 .05-3.87 0-6-1.5-6-2v-2.23c1.61.78 3.72 1.23 6 1.23.65 0 1.27-.04 1.88-.11A5.986 5.986 0 0 1 19 13c.34 0 .67.04 1 .09m-2-.64c-1.3.95-3.58 1.55-6 1.55s-4.7-.6-6-1.55V9.64c1.47.83 3.61 1.36 6 1.36s4.53-.53 6-1.36v2.81M12 9C8.13 9 6 7.5 6 7s2.13-2 6-2 6 1.5 6 2-2.13 2-6 2m11 9v2h-3v3h-2v-3h-3v-2h3v-3h2v3h3Z" transform="matrix(1.5 0 0 1.5 72 180)" id="mdi-database-plus-outline" fill="#555"/><path d="M20 13.09V7c0-2.21-3.58-4-8-4S4 4.79 4 7v10c0 2.21 3.59 4 8 4 .46 0 .9 0 1.33-.06A5.94 5.94 0 0 1 13 19v-.05c-.32.05-.65.05-1 .05-3.87 0-6-1.5-6-2v-2.23c1.61.78 3.72 1.23 6 1.23.65 0 1.27-.04 1.88-.11A5.986 5.986 0 0 1 19 13c.34 0 .67.04 1 .09m-2-.64c-1.3.95-3.58 1.55-6 1.55s-4.7-.6-6-1.55V9.64c1.47.83 3.61 1.36 6 1.36s4.53-.53 6-1.36v2.81M12 9C8.13 9 6 7.5 6 7s2.13-2 6-2 6 1.5 6 2-2.13 2-6 2m11 9v2h-3v3h-2v-3h-3v-2h3v-3h2v3h3Z" transform="matrix(1.5 0 0 1.5 108 180)" id="mdi-database-plus-outline" fill="#fff"/><path d="M12 3c4.42 0 8 1.79 8 4s-3.58 4-8 4-8-1.79-8-4 3.58-4 8-4M4 9c0 2.21 3.58 4 8 4 1.11 0 2.18-.11 3.14-.32-.95.86-1.64 1.99-1.96 3.28L12 16c-4.42 0-8-1.79-8-4V9m16 0v2h-.5l-.6.03c.7-.6 1.1-1.29 1.1-2.03M4 14c0 2.21 3.58 4 8 4l1-.03c.09 1.06.42 2.03.95 2.91L12 21c-4.42 0-8-1.79-8-4v-3m15-.5c1.11 0 2.11.45 2.83 1.17L23 13.5v4h-4l1.77-1.77A2.5 2.5 0 1 0 21 19h1.71A3.991 3.991 0 0 1 19 21.5c-2.21 0-4-1.79-4-4s1.79-4 4-4Z" transform="matrix(1.5 0 0 1.5 144 180)" id="mdi-database-refresh" fill="#555"/><path d="M12 3c4.42 0 8 1.79 8 4s-3.58 4-8 4-8-1.79-8-4 3.58-4 8-4M4 9c0 2.21 3.58 4 8 4 1.11 0 2.18-.11 3.14-.32-.95.86-1.64 1.99-1.96 3.28L12 16c-4.42 0-8-1.79-8-4V9m16 0v2h-.5l-.6.03c.7-.6 1.1-1.29 1.1-2.03M4 14c0 2.21 3.58 4 8 4l1-.03c.09 1.06.42 2.03.95 2.91L12 21c-4.42 0-8-1.79-8-4v-3m15-.5c1.11 0 2.11.45 2.83 1.17L23 13.5v4h-4l1.77-1.77A2.5 2.5 0 1 0 21 19h1.71A3.991 3.991 0 0 1 19 21.5c-2.21 0-4-1.79-4-4s1.79-4 4-4Z" transform="matrix(1.5 0 0 1.5 180 180)" id="mdi-database-refresh" fill="#fff"/><path d="M6 12.45V9.64c1.47.83 3.61 1.36 6 1.36s4.53-.53 6-1.36v2.39c.17-.03.33-.03.5-.03.5 0 1 .07 1.5.18V7c0-2.21-3.58-4-8-4S4 4.79 4 7v10c0 2.21 3.59 4 8 4h.5c-.26-.63-.41-1.3-.47-2H12c-3.87 0-6-1.5-6-2v-2.23c1.61.78 3.72 1.23 6 1.23h.5c.35-.82.84-1.54 1.45-2.14-.63.09-1.28.14-1.95.14-2.42 0-4.7-.6-6-1.55M12 5c3.87 0 6 1.5 6 2s-2.13 2-6 2-6-1.5-6-2 2.13-2 6-2m6 13.5 1.77-1.77A2.5 2.5 0 1 0 20 20h1.71A3.991 3.991 0 0 1 18 22.5c-2.21 0-4-1.79-4-4s1.79-4 4-4c1.11 0 2.11.45 2.83 1.17L22 14.5v4h-4Z" transform="matrix(1.5 0 0 1.5 216 180)" id="mdi-database-refresh-outline" fill="#555"/><path d="M6 12.45V9.64c1.47.83 3.61 1.36 6 1.36s4.53-.53 6-1.36v2.39c.17-.03.33-.03.5-.03.5 0 1 .07 1.5.18V7c0-2.21-3.58-4-8-4S4 4.79 4 7v10c0 2.21 3.59 4 8 4h.5c-.26-.63-.41-1.3-.47-2H12c-3.87 0-6-1.5-6-2v-2.23c1.61.78 3.72 1.23 6 1.23h.5c.35-.82.84-1.54 1.45-2.14-.63.09-1.28.14-1.95.14-2.42 0-4.7-.6-6-1.55M12 5c3.87 0 6 1.5 6 2s-2.13 2-6 2-6-1.5-6-2 2.13-2 6-2m6 13.5 1.77-1.77A2.5 2.5 0 1 0 20 20h1.71A3.991 3.991 0 0 1 18 22.5c-2.21 0-4-1.79-4-4s1.79-4 4-4c1.11 0 2.11.45 2.83 1.17L22 14.5v4h-4Z" transform="matrix(1.5 0 0 1.5 252 180)" id="mdi-database-refresh-outline" fill="#fff"/><path d="m15.46 15.88 1.42-1.42L19 16.59l2.12-2.12 1.41 1.41L20.41 18l2.13 2.12-1.42 1.42L19 19.41l-2.12 2.12-1.41-1.41L17.59 18l-2.13-2.12M12 3c4.42 0 8 1.79 8 4s-3.58 4-8 4-8-1.79-8-4 3.58-4 8-4M4 9c0 2.21 3.58 4 8 4s8-1.79 8-4v3.08L19 12c-2.59 0-4.8 1.64-5.64 3.94L12 16c-4.42 0-8-1.79-8-4V9m0 5c0 2.21 3.58 4 8 4h1c0 1.05.27 2.04.75 2.9L12 21c-4.42 0-8-1.79-8-4v-3Z" transform="matrix(1.5 0 0 1.5 288 180)" id="mdi-database-remove" fill="#555"/><path d="m15.46 15.88 1.42-1.42L19 16.59l2.12-2.12 1.41 1.41L20.41 18l2.13 2.12-1.42 1.42L19 19.41l-2.12 2.12-1.41-1.41L17.59 18l-2.13-2.12M12 3c4.42 0 8 1.79 8 4s-3.58 4-8 4-8-1.79-8-4 3.58-4 8-4M4 9c0 2.21 3.58 4 8 4s8-1.79 8-4v3.08L19 12c-2.59 0-4.8 1.64-5.64 3.94L12 16c-4.42 0-8-1.79-8-4V9m0 5c0 2.21 3.58 4 8 4h1c0 1.05.27 2.04.75 2.9L12 21c-4.42 0-8-1.79-8-4v-3Z" transform="matrix(1.5 0 0 1.5 324 180)" id="mdi-database-remove" fill="#fff"/><path d="M20 13.09V7c0-2.21-3.58-4-8-4S4 4.79 4 7v10c0 2.21 3.59 4 8 4 .46 0 .9 0 1.33-.06A5.94 5.94 0 0 1 13 19v-.05c-.32.05-.65.05-1 .05-3.87 0-6-1.5-6-2v-2.23c1.61.78 3.72 1.23 6 1.23.65 0 1.27-.04 1.88-.11A5.986 5.986 0 0 1 19 13c.34 0 .67.04 1 .09m-2-.64c-1.3.95-3.58 1.55-6 1.55s-4.7-.6-6-1.55V9.64c1.47.83 3.61 1.36 6 1.36s4.53-.53 6-1.36v2.81M12 9C8.13 9 6 7.5 6 7s2.13-2 6-2 6 1.5 6 2-2.13 2-6 2m8.41 10 2.13 2.12-1.42 1.42L19 20.41l-2.12 2.13-1.41-1.42L17.59 19l-2.12-2.12 1.41-1.41L19 17.59l2.12-2.12 1.42 1.41L20.41 19" transform="matrix(1.5 0 0 1.5 360 180)" id="mdi-database-remove-outline" fill="#555"/><path d="M20 13.09V7c0-2.21-3.58-4-8-4S4 4.79 4 7v10c0 2.21 3.59 4 8 4 .46 0 .9 0 1.33-.06A5.94 5.94 0 0 1 13 19v-.05c-.32.05-.65.05-1 .05-3.87 0-6-1.5-6-2v-2.23c1.61.78 3.72 1.23 6 1.23.65 0 1.27-.04 1.88-.11A5.986 5.986 0 0 1 19 13c.34 0 .67.04 1 .09m-2-.64c-1.3.95-3.58 1.55-6 1.55s-4.7-.6-6-1.55V9.64c1.47.83 3.61 1.36 6 1.36s4.53-.53 6-1.36v2.81M12 9C8.13 9 6 7.5 6 7s2.13-2 6-2 6 1.5 6 2-2.13 2-6 2m8.41 10 2.13 2.12-1.42 1.42L19 20.41l-2.12 2.13-1.41-1.42L17.59 19l-2.12-2.12 1.41-1.41L19 17.59l2.12-2.12 1.42 1.41L20.41 19" transform="matrix(1.5 0 0 1.5 396 180)" id="mdi-database-remove-outline" fill="#fff"/><path d="M18.68 12.32a4.49 4.49 0 0 0-6.36.01 4.49 4.49 0 0 0 0 6.36 4.508 4.508 0 0 0 5.57.63L21 22.39 22.39 21l-3.09-3.11c1.13-1.77.87-4.09-.62-5.57m-1.41 4.95c-.98.98-2.56.97-3.54 0-.97-.98-.97-2.56.01-3.54.97-.97 2.55-.97 3.53 0 .97.98.97 2.56 0 3.54M10.9 20.1a6.527 6.527 0 0 1-1.48-2.32C6.27 17.25 4 15.76 4 14v3c0 2.21 3.58 4 8 4-.4-.26-.77-.56-1.1-.9M4 9v3c0 1.68 2.07 3.12 5 3.7v-.2c0-.93.2-1.85.58-2.69C6.34 12.3 4 10.79 4 9m8-6C7.58 3 4 4.79 4 7c0 2 3 3.68 6.85 4h.05c1.2-1.26 2.86-2 4.6-2 .91 0 1.81.19 2.64.56A3.215 3.215 0 0 0 20 7c0-2.21-3.58-4-8-4Z" transform="matrix(1.5 0 0 1.5 432 180)" id="mdi-database-search" fill="#555"/><path d="M18.68 12.32a4.49 4.49 0 0 0-6.36.01 4.49 4.49 0 0 0 0 6.36 4.508 4.508 0 0 0 5.57.63L21 22.39 22.39 21l-3.09-3.11c1.13-1.77.87-4.09-.62-5.57m-1.41 4.95c-.98.98-2.56.97-3.54 0-.97-.98-.97-2.56.01-3.54.97-.97 2.55-.97 3.53 0 .97.98.97 2.56 0 3.54M10.9 20.1a6.527 6.527 0 0 1-1.48-2.32C6.27 17.25 4 15.76 4 14v3c0 2.21 3.58 4 8 4-.4-.26-.77-.56-1.1-.9M4 9v3c0 1.68 2.07 3.12 5 3.7v-.2c0-.93.2-1.85.58-2.69C6.34 12.3 4 10.79 4 9m8-6C7.58 3 4 4.79 4 7c0 2 3 3.68 6.85 4h.05c1.2-1.26 2.86-2 4.6-2 .91 0 1.81.19 2.64.56A3.215 3.215 0 0 0 20 7c0-2.21-3.58-4-8-4Z" transform="matrix(1.5 0 0 1.5 468 180)" id="mdi-database-search" fill="#fff"/><path d="M11 18.95c-3.23-.23-5-1.5-5-1.95v-2.23c1.13.55 2.5.92 4 1.1 0-.66.04-1.33.21-1.98-1.71-.22-3.24-.73-4.21-1.44V9.64c1.43.81 3.5 1.33 5.82 1.36.03-.03.05-.07.08-.1 2.2-2.19 5.6-2.49 8.1-.87V7c0-2.21-3.58-4-8-4S4 4.79 4 7v10c0 2.21 3.59 4 8 4 .34 0 .68 0 1-.03-.38-.25-.76-.53-1.1-.87-.35-.36-.65-.74-.9-1.15M12 5c3.87 0 6 1.5 6 2s-2.13 2-6 2-6-1.5-6-2 2.13-2 6-2m8.31 12.9c.44-.69.69-1.52.69-2.4 0-2.5-2-4.5-4.5-4.5S12 13 12 15.5s2 4.5 4.5 4.5c.87 0 1.69-.25 2.38-.68L22 22.39 23.39 21l-3.08-3.1m-3.81.1a2.5 2.5 0 0 1 0-5 2.5 2.5 0 0 1 0 5Z" transform="matrix(1.5 0 0 1.5 504 180)" id="mdi-database-search-outline" fill="#555"/><path d="M11 18.95c-3.23-.23-5-1.5-5-1.95v-2.23c1.13.55 2.5.92 4 1.1 0-.66.04-1.33.21-1.98-1.71-.22-3.24-.73-4.21-1.44V9.64c1.43.81 3.5 1.33 5.82 1.36.03-.03.05-.07.08-.1 2.2-2.19 5.6-2.49 8.1-.87V7c0-2.21-3.58-4-8-4S4 4.79 4 7v10c0 2.21 3.59 4 8 4 .34 0 .68 0 1-.03-.38-.25-.76-.53-1.1-.87-.35-.36-.65-.74-.9-1.15M12 5c3.87 0 6 1.5 6 2s-2.13 2-6 2-6-1.5-6-2 2.13-2 6-2m8.31 12.9c.44-.69.69-1.52.69-2.4 0-2.5-2-4.5-4.5-4.5S12 13 12 15.5s2 4.5 4.5 4.5c.87 0 1.69-.25 2.38-.68L22 22.39 23.39 21l-3.08-3.1m-3.81.1a2.5 2.5 0 0 1 0-5 2.5 2.5 0 0 1 0 5Z" transform="matrix(1.5 0 0 1.5 540 180)" id="mdi-database-search-outline" fill="#fff"/><path d="M7 22h2v2H7v-2m4 0h2v2h-2v-2m4 0h2v2h-2v-2M12 3c4.42 0 8 1.79 8 4s-3.58 4-8 4-8-1.79-8-4 3.58-4 8-4M4 9c0 2.21 3.58 4 8 4s8-1.79 8-4v3c0 2.21-3.58 4-8 4s-8-1.79-8-4V9m0 5c0 2.21 3.58 4 8 4s8-1.79 8-4v3c0 1.19-1.05 2.27-2.71 3H6.71C5.05 19.27 4 18.19 4 17v-3Z" transform="matrix(1.5 0 0 1.5 576 180)" id="mdi-database-settings" fill="#555"/><path d="M7 22h2v2H7v-2m4 0h2v2h-2v-2m4 0h2v2h-2v-2M12 3c4.42 0 8 1.79 8 4s-3.58 4-8 4-8-1.79-8-4 3.58-4 8-4M4 9c0 2.21 3.58 4 8 4s8-1.79 8-4v3c0 2.21-3.58 4-8 4s-8-1.79-8-4V9m0 5c0 2.21 3.58 4 8 4s8-1.79 8-4v3c0 1.19-1.05 2.27-2.71 3H6.71C5.05 19.27 4 18.19 4 17v-3Z" transform="matrix(1.5 0 0 1.5 612 180)" id="mdi-database-settings" fill="#fff"/><path d="M12 3C7.58 3 4 4.79 4 7v10c0 1.2 1.06 2.27 2.73 3h10.54c1.67-.73 2.73-1.8 2.73-3V7c0-2.21-3.58-4-8-4m6 14c0 .5-2.13 2-6 2s-6-1.5-6-2v-2.23c1.61.78 3.72 1.23 6 1.23s4.39-.45 6-1.23V17m0-4.55c-1.3.95-3.58 1.55-6 1.55s-4.7-.6-6-1.55V9.64c1.47.83 3.61 1.36 6 1.36s4.53-.53 6-1.36v2.81M12 9C8.13 9 6 7.5 6 7s2.13-2 6-2 6 1.5 6 2-2.13 2-6 2M7 22h2v2H7v-2m8 0h2v2h-2v-2m-4 0h2v2h-2v-2Z" transform="matrix(1.5 0 0 1.5 648 180)" id="mdi-database-settings-outline" fill="#555"/><path d="M12 3C7.58 3 4 4.79 4 7v10c0 1.2 1.06 2.27 2.73 3h10.54c1.67-.73 2.73-1.8 2.73-3V7c0-2.21-3.58-4-8-4m6 14c0 .5-2.13 2-6 2s-6-1.5-6-2v-2.23c1.61.78 3.72 1.23 6 1.23s4.39-.45 6-1.23V17m0-4.55c-1.3.95-3.58 1.55-6 1.55s-4.7-.6-6-1.55V9.64c1.47.83 3.61 1.36 6 1.36s4.53-.53 6-1.36v2.81M12 9C8.13 9 6 7.5 6 7s2.13-2 6-2 6 1.5 6 2-2.13 2-6 2M7 22h2v2H7v-2m8 0h2v2h-2v-2m-4 0h2v2h-2v-2Z" transform="matrix(1.5 0 0 1.5 684 180)" id="mdi-database-settings-outline" fill="#fff"/><path d="M19 12v1.5a4 4 0 0 1 4 4c0 .82-.25 1.58-.67 2.21l-1.09-1.09c.17-.34.26-.72.26-1.12A2.5 2.5 0 0 0 19 15v1.5l-2.25-2.25L19 12m0 11v-1.5a4 4 0 0 1-4-4c0-.82.25-1.58.67-2.21l1.09 1.09c-.17.34-.26.72-.26 1.12A2.5 2.5 0 0 0 19 20v-1.5l2.25 2.25L19 23M12 3c4.42 0 8 1.79 8 4s-3.58 4-8 4-8-1.79-8-4 3.58-4 8-4M4 9c0 2.21 3.58 4 8 4 1.11 0 2.17-.11 3.14-.32-.95.86-1.64 1.99-1.96 3.28L12 16c-4.42 0-8-1.79-8-4V9m16 0v2h-.5l-.6.03c.7-.6 1.1-1.29 1.1-2.03M4 14c0 2.21 3.58 4 8 4l1-.03c.09 1.06.42 2.03.95 2.91L12 21c-4.42 0-8-1.79-8-4v-3Z" transform="matrix(1.5 0 0 1.5 0 216)" id="mdi-database-sync" fill="#555"/><path d="M19 12v1.5a4 4 0 0 1 4 4c0 .82-.25 1.58-.67 2.21l-1.09-1.09c.17-.34.26-.72.26-1.12A2.5 2.5 0 0 0 19 15v1.5l-2.25-2.25L19 12m0 11v-1.5a4 4 0 0 1-4-4c0-.82.25-1.58.67-2.21l1.09 1.09c-.17.34-.26.72-.26 1.12A2.5 2.5 0 0 0 19 20v-1.5l2.25 2.25L19 23M12 3c4.42 0 8 1.79 8 4s-3.58 4-8 4-8-1.79-8-4 3.58-4 8-4M4 9c0 2.21 3.58 4 8 4 1.11 0 2.17-.11 3.14-.32-.95.86-1.64 1.99-1.96 3.28L12 16c-4.42 0-8-1.79-8-4V9m16 0v2h-.5l-.6.03c.7-.6 1.1-1.29 1.1-2.03M4 14c0 2.21 3.58 4 8 4l1-.03c.09 1.06.42 2.03.95 2.91L12 21c-4.42 0-8-1.79-8-4v-3Z" transform="matrix(1.5 0 0 1.5 36 216)" id="mdi-database-sync" fill="#fff"/><path d="M12 16c.41 0 .81-.03 1.21-.06.19-.76.51-1.48.95-2.11-.69.11-1.42.17-2.16.17-2.42 0-4.7-.6-6-1.55V9.64c1.47.83 3.61 1.36 6 1.36s4.53-.53 6-1.36v1.55c.5-.12 1-.19 1.55-.19.15 0 .3 0 .45.03V7c0-2.21-3.58-4-8-4S4 4.79 4 7v10c0 2.21 3.59 4 8 4 .66 0 1.31-.04 1.92-.12-.35-.59-.61-1.24-.76-1.94-.37.06-.75.06-1.16.06-3.87 0-6-1.5-6-2v-2.23c1.61.78 3.72 1.23 6 1.23m0-11c3.87 0 6 1.5 6 2s-2.13 2-6 2-6-1.5-6-2 2.13-2 6-2m11 12.5c0 .82-.25 1.58-.67 2.21l-1.09-1.09c.17-.34.26-.72.26-1.12A2.5 2.5 0 0 0 19 15v1.5l-2.25-2.25L19 12v1.5c2.21 0 4 1.79 4 4m-4 1 2.25 2.25L19 23v-1.5c-2.21 0-4-1.79-4-4 0-.82.25-1.58.67-2.21l1.09 1.09c-.17.34-.26.72-.26 1.12A2.5 2.5 0 0 0 19 20v-1.5Z" transform="matrix(1.5 0 0 1.5 72 216)" id="mdi-database-sync-outline" fill="#555"/><path d="M12 16c.41 0 .81-.03 1.21-.06.19-.76.51-1.48.95-2.11-.69.11-1.42.17-2.16.17-2.42 0-4.7-.6-6-1.55V9.64c1.47.83 3.61 1.36 6 1.36s4.53-.53 6-1.36v1.55c.5-.12 1-.19 1.55-.19.15 0 .3 0 .45.03V7c0-2.21-3.58-4-8-4S4 4.79 4 7v10c0 2.21 3.59 4 8 4 .66 0 1.31-.04 1.92-.12-.35-.59-.61-1.24-.76-1.94-.37.06-.75.06-1.16.06-3.87 0-6-1.5-6-2v-2.23c1.61.78 3.72 1.23 6 1.23m0-11c3.87 0 6 1.5 6 2s-2.13 2-6 2-6-1.5-6-2 2.13-2 6-2m11 12.5c0 .82-.25 1.58-.67 2.21l-1.09-1.09c.17-.34.26-.72.26-1.12A2.5 2.5 0 0 0 19 15v1.5l-2.25-2.25L19 12v1.5c2.21 0 4 1.79 4 4m-4 1 2.25 2.25L19 23v-1.5c-2.21 0-4-1.79-4-4 0-.82.25-1.58.67-2.21l1.09 1.09c-.17.34-.26.72-.26 1.12A2.5 2.5 0 0 0 19 20v-1.5Z" transform="matrix(1.5 0 0 1.5 108 216)" id="mdi-database-sync-outline" fill="#fff"/><path d="M2.05 13h19.9c-.5 5.05-4.76 9-9.95 9-5.18 0-9.45-3.95-9.95-9m19.9-2H2.05c.5-5.05 4.77-9 9.95-9s9.45 3.95 9.95 9M12 6.75a2.5 2.5 0 0 0-2.5-2.5A2.5 2.5 0 0 0 7 6.75a2.5 2.5 0 0 0 2.5 2.5 2.5 2.5 0 0 0 2.5-2.5Z" transform="matrix(1.5 0 0 1.5 144 216)" id="mdi-death-star" fill="#555"/><path d="M2.05 13h19.9c-.5 5.05-4.76 9-9.95 9-5.18 0-9.45-3.95-9.95-9m19.9-2H2.05c.5-5.05 4.77-9 9.95-9s9.45 3.95 9.95 9M12 6.75a2.5 2.5 0 0 0-2.5-2.5A2.5 2.5 0 0 0 7 6.75a2.5 2.5 0 0 0 2.5 2.5 2.5 2.5 0 0 0 2.5-2.5Z" transform="matrix(1.5 0 0 1.5 180 216)" id="mdi-death-star" fill="#fff"/><path d="M2.05 13h19.89c-.06.69-.2 1.36-.4 2H14v2h3v2h-2v2h-2.5v1H12c-5.18 0-9.45-3.95-9.95-9m19.89-2H2.05c.5-5.05 4.77-9 9.95-9 1.62 0 3.15.39 4.5 1.08V5h2v2H20v2h1.54c.2.64.34 1.31.4 2M12 6.75a2.5 2.5 0 0 0-2.5-2.5A2.5 2.5 0 0 0 7 6.75a2.5 2.5 0 0 0 2.5 2.5 2.5 2.5 0 0 0 2.5-2.5Z" transform="matrix(1.5 0 0 1.5 216 216)" id="mdi-death-star-variant" fill="#555"/><path d="M2.05 13h19.89c-.06.69-.2 1.36-.4 2H14v2h3v2h-2v2h-2.5v1H12c-5.18 0-9.45-3.95-9.95-9m19.89-2H2.05c.5-5.05 4.77-9 9.95-9 1.62 0 3.15.39 4.5 1.08V5h2v2H20v2h1.54c.2.64.34 1.31.4 2M12 6.75a2.5 2.5 0 0 0-2.5-2.5A2.5 2.5 0 0 0 7 6.75a2.5 2.5 0 0 0 2.5 2.5 2.5 2.5 0 0 0 2.5-2.5Z" transform="matrix(1.5 0 0 1.5 252 216)" id="mdi-death-star-variant" fill="#fff"/><path d="M12 2 1 21h22L12 2m.75 9.47c1.81.4 2.95 2.2 2.55 4.03-.3 1.25-1.3 2.25-2.55 2.53v-6.56M11.25 18c-1.81-.4-2.95-2.2-2.55-4 .3-1.28 1.3-2.28 2.55-2.56V18m5.63-3.28A4.874 4.874 0 0 0 12.75 10V6.29L20.4 19.5h-7.33c2.22-.5 3.8-2.47 3.81-4.75v-.03m-5.63-8.43V10c-2.65.4-4.48 2.88-4.07 5.54.32 1.96 1.79 3.58 3.75 4.01H3.6l7.65-13.26Z" transform="matrix(1.5 0 0 1.5 288 216)" id="mdi-deathly-hallows" fill="#555"/><path d="M12 2 1 21h22L12 2m.75 9.47c1.81.4 2.95 2.2 2.55 4.03-.3 1.25-1.3 2.25-2.55 2.53v-6.56M11.25 18c-1.81-.4-2.95-2.2-2.55-4 .3-1.28 1.3-2.28 2.55-2.56V18m5.63-3.28A4.874 4.874 0 0 0 12.75 10V6.29L20.4 19.5h-7.33c2.22-.5 3.8-2.47 3.81-4.75v-.03m-5.63-8.43V10c-2.65.4-4.48 2.88-4.07 5.54.32 1.96 1.79 3.58 3.75 4.01H3.6l7.65-13.26Z" transform="matrix(1.5 0 0 1.5 324 216)" id="mdi-deathly-hallows" fill="#fff"/><path d="m18.5 10.57-.2.37c.26-.78.11-1.63.15-2.37l-.07-.02c-.07-1.85-1.67-3.82-3.09-4.48-1.23-.57-3.12-.67-3.99-.24.12-.11.6-.15.45-.23-1.37.13-1.06.47-2.11.74-.29.28.86-.22.23.16-.56.13-.82-.12-1.65.74.07.12.53-.35.15.12-.79-.09-2.48 1.8-2.84 2.42l.19.04c-.31.77-.72 1.26-.77 1.72-.08 1.14-.45 3.21.08 3.85l-.06.53.23.45-.12.01c.58 1.83.62.04 1.39 1.94-.11-.04-.23-.08-.39-.32-.02.19.24.69.54 1.08l-.12.14c.16.31.32.38.43.49-.63-.35.57 1.13.7 1.32l.1-.17c-.02.24.17.56.53 1.01l.3-.01c.13.24.58.68.85.7l-.18.24c.69.2.33.29 1.18.59l-.17-.3c.43.37.56.7 1.17.98.85.3.96.18 1.82.43-.73 0-1.59 0-2.17-.22-3.96-1.07-7.56-5.72-7.32-10.5-.06-.97.1-2.18-.06-2.42.22-.74.48-1.64 1.01-2.71-.04-.07.09.21.36-.24.16-.36.29-.75.5-1.1l.1-.03c.11-.61 1.43-1.55 1.85-2.02v.18c.86-.81 2.4-1.35 3.26-1.73-.23.25.51-.03 1.04-.06l-.49.28c.63-.16.6.07 1.25-.03-.23.03-.5.1-.46.16.72.08.84-.22 1.51 0l-.05-.2c.94.34 1.13.28 2.14.82.36.01.4-.22.93 0 .1.16-.02.19.64.59.07-.03-.13-.22-.27-.37 1.3.71 2.75 2.22 3.18 3.84-.41-.74-.04.39-.18.33.18.49.33 1 .43 1.53-.12-.43-.39-1.48-.86-2.15-.03.43-.6-.3-.29.66.22.34.05-.35.34.25 0 .29.11.58.18.95-.1-.02-.22-.41-.3-.31.1.5.27.72.33.76-.03.08-.12-.08-.12.24.04.74.21.43.29.46-.09.37-.41.79-.25 1.42l-.2-.56c-.05.53.11.63-.13 1.28.18-.6.16-1.1-.01-.85.09.82-.65 1.45-.58 1.98l-.21-.29c-.57.83-.01.45-.4 1.06.14-.23-.07-.08.11-.36-.12.01-.55.53-.94.83-1.54 1.23-3.39 1.4-5.15.73h-.01c.01-.04 0-.09-.12-.17-1.51-1.15-2.4-2.13-2.11-4.41.25-.17.31-1.12.84-1.45.32-.71 1.28-1.36 2.31-1.38 1.05-.06 1.94.56 2.39 1.14-.82-.75-2.14-.98-3.28-.43-1.15.53-1.84 1.8-1.76 3.07.06-.07.1-.02.12-.18-.03 2.47 2.66 4.28 4.6 3.37l.03.05c.78-.22.68-.39 1.19-.75-.04.09-.34.3-.16.3.25-.06 1.03-.79 1.42-1.13.17-.38-.1-.23.15-.69l.3-.15c.17-.48.35-.75.35-1.32" transform="matrix(1.5 0 0 1.5 360 216)" id="mdi-debian" fill="#555"/><path d="m18.5 10.57-.2.37c.26-.78.11-1.63.15-2.37l-.07-.02c-.07-1.85-1.67-3.82-3.09-4.48-1.23-.57-3.12-.67-3.99-.24.12-.11.6-.15.45-.23-1.37.13-1.06.47-2.11.74-.29.28.86-.22.23.16-.56.13-.82-.12-1.65.74.07.12.53-.35.15.12-.79-.09-2.48 1.8-2.84 2.42l.19.04c-.31.77-.72 1.26-.77 1.72-.08 1.14-.45 3.21.08 3.85l-.06.53.23.45-.12.01c.58 1.83.62.04 1.39 1.94-.11-.04-.23-.08-.39-.32-.02.19.24.69.54 1.08l-.12.14c.16.31.32.38.43.49-.63-.35.57 1.13.7 1.32l.1-.17c-.02.24.17.56.53 1.01l.3-.01c.13.24.58.68.85.7l-.18.24c.69.2.33.29 1.18.59l-.17-.3c.43.37.56.7 1.17.98.85.3.96.18 1.82.43-.73 0-1.59 0-2.17-.22-3.96-1.07-7.56-5.72-7.32-10.5-.06-.97.1-2.18-.06-2.42.22-.74.48-1.64 1.01-2.71-.04-.07.09.21.36-.24.16-.36.29-.75.5-1.1l.1-.03c.11-.61 1.43-1.55 1.85-2.02v.18c.86-.81 2.4-1.35 3.26-1.73-.23.25.51-.03 1.04-.06l-.49.28c.63-.16.6.07 1.25-.03-.23.03-.5.1-.46.16.72.08.84-.22 1.51 0l-.05-.2c.94.34 1.13.28 2.14.82.36.01.4-.22.93 0 .1.16-.02.19.64.59.07-.03-.13-.22-.27-.37 1.3.71 2.75 2.22 3.18 3.84-.41-.74-.04.39-.18.33.18.49.33 1 .43 1.53-.12-.43-.39-1.48-.86-2.15-.03.43-.6-.3-.29.66.22.34.05-.35.34.25 0 .29.11.58.18.95-.1-.02-.22-.41-.3-.31.1.5.27.72.33.76-.03.08-.12-.08-.12.24.04.74.21.43.29.46-.09.37-.41.79-.25 1.42l-.2-.56c-.05.53.11.63-.13 1.28.18-.6.16-1.1-.01-.85.09.82-.65 1.45-.58 1.98l-.21-.29c-.57.83-.01.45-.4 1.06.14-.23-.07-.08.11-.36-.12.01-.55.53-.94.83-1.54 1.23-3.39 1.4-5.15.73h-.01c.01-.04 0-.09-.12-.17-1.51-1.15-2.4-2.13-2.11-4.41.25-.17.31-1.12.84-1.45.32-.71 1.28-1.36 2.31-1.38 1.05-.06 1.94.56 2.39 1.14-.82-.75-2.14-.98-3.28-.43-1.15.53-1.84 1.8-1.76 3.07.06-.07.1-.02.12-.18-.03 2.47 2.66 4.28 4.6 3.37l.03.05c.78-.22.68-.39 1.19-.75-.04.09-.34.3-.16.3.25-.06 1.03-.79 1.42-1.13.17-.38-.1-.23.15-.69l.3-.15c.17-.48.35-.75.35-1.32" transform="matrix(1.5 0 0 1.5 396 216)" id="mdi-debian" fill="#fff"/><path d="M12 22a2 2 0 0 1-2-2 2 2 0 0 1 2-2 2 2 0 0 1 2 2 2 2 0 0 1-2 2m1-20v11l4.5-4.5 1.42 1.42L12 16.84 5.08 9.92 6.5 8.5 11 13V2h2Z" transform="matrix(1.5 0 0 1.5 432 216)" id="mdi-debug-step-into" fill="#555"/><path d="M12 22a2 2 0 0 1-2-2 2 2 0 0 1 2-2 2 2 0 0 1 2 2 2 2 0 0 1-2 2m1-20v11l4.5-4.5 1.42 1.42L12 16.84 5.08 9.92 6.5 8.5 11 13V2h2Z" transform="matrix(1.5 0 0 1.5 468 216)" id="mdi-debug-step-into" fill="#fff"/><path d="M12 22a2 2 0 0 1-2-2 2 2 0 0 1 2-2 2 2 0 0 1 2 2 2 2 0 0 1-2 2m1-6h-2V6l-4.5 4.5-1.42-1.42L12 2.16l6.92 6.92-1.42 1.42L13 6v10Z" transform="matrix(1.5 0 0 1.5 504 216)" id="mdi-debug-step-out" fill="#555"/><path d="M12 22a2 2 0 0 1-2-2 2 2 0 0 1 2-2 2 2 0 0 1 2 2 2 2 0 0 1-2 2m1-6h-2V6l-4.5 4.5-1.42-1.42L12 2.16l6.92 6.92-1.42 1.42L13 6v10Z" transform="matrix(1.5 0 0 1.5 540 216)" id="mdi-debug-step-out" fill="#fff"/><path d="M12 14a2 2 0 0 1 2 2 2 2 0 0 1-2 2 2 2 0 0 1-2-2 2 2 0 0 1 2-2m11.46-5.14-1.59 6.89L15 14.16l3.8-2.38A7.972 7.972 0 0 0 12 8c-3.95 0-7.23 2.86-7.88 6.63l-1.97-.35C2.96 9.58 7.06 6 12 6c3.58 0 6.73 1.89 8.5 4.72l2.96-1.86Z" transform="matrix(1.5 0 0 1.5 576 216)" id="mdi-debug-step-over" fill="#555"/><path d="M12 14a2 2 0 0 1 2 2 2 2 0 0 1-2 2 2 2 0 0 1-2-2 2 2 0 0 1 2-2m11.46-5.14-1.59 6.89L15 14.16l3.8-2.38A7.972 7.972 0 0 0 12 8c-3.95 0-7.23 2.86-7.88 6.63l-1.97-.35C2.96 9.58 7.06 6 12 6c3.58 0 6.73 1.89 8.5 4.72l2.96-1.86Z" transform="matrix(1.5 0 0 1.5 612 216)" id="mdi-debug-step-over" fill="#fff"/><path d="m23 12-2.44-2.78.34-3.68-3.61-.82-1.89-3.18L12 3 8.6 1.54 6.71 4.72l-3.61.81.34 3.68L1 12l2.44 2.78-.34 3.69 3.61.82 1.89 3.18L12 21l3.4 1.46 1.89-3.18 3.61-.82-.34-3.68L23 12Z" transform="matrix(1.5 0 0 1.5 648 216)" id="mdi-decagram" fill="#555"/><path d="m23 12-2.44-2.78.34-3.68-3.61-.82-1.89-3.18L12 3 8.6 1.54 6.71 4.72l-3.61.81.34 3.68L1 12l2.44 2.78-.34 3.69 3.61.82 1.89 3.18L12 21l3.4 1.46 1.89-3.18 3.61-.82-.34-3.68L23 12Z" transform="matrix(1.5 0 0 1.5 684 216)" id="mdi-decagram" fill="#fff"/><path d="m23 12-2.44 2.78.34 3.68-3.61.82-1.89 3.18L12 21l-3.4 1.47-1.89-3.18-3.61-.82.34-3.69L1 12l2.44-2.79-.34-3.68 3.61-.81L8.6 1.54 12 3l3.4-1.46 1.89 3.18 3.61.82-.34 3.68L23 12m-2.67 0L18.5 9.89l.24-2.79L16 6.5l-1.42-2.43L12 5.18 9.42 4.07 8 6.5l-2.74.59.24 2.79L3.67 12l1.83 2.1-.24 2.8 2.74.6 1.42 2.43L12 18.81l2.58 1.11L16 17.5l2.74-.61-.24-2.79 1.83-2.1Z" transform="matrix(1.5 0 0 1.5 0 252)" id="mdi-decagram-outline" fill="#555"/><path d="m23 12-2.44 2.78.34 3.68-3.61.82-1.89 3.18L12 21l-3.4 1.47-1.89-3.18-3.61-.82.34-3.69L1 12l2.44-2.79-.34-3.68 3.61-.81L8.6 1.54 12 3l3.4-1.46 1.89 3.18 3.61.82-.34 3.68L23 12m-2.67 0L18.5 9.89l.24-2.79L16 6.5l-1.42-2.43L12 5.18 9.42 4.07 8 6.5l-2.74.59.24 2.79L3.67 12l1.83 2.1-.24 2.8 2.74.6 1.42 2.43L12 18.81l2.58 1.11L16 17.5l2.74-.61-.24-2.79 1.83-2.1Z" transform="matrix(1.5 0 0 1.5 36 252)" id="mdi-decagram-outline" fill="#fff"/><path d="M10 7a3 3 0 0 0-3 3v3a3 3 0 0 0 6 0v-3a3 3 0 0 0-3-3m1 6a1 1 0 0 1-2 0v-3a1 1 0 0 1 2 0m6-3a3 3 0 0 0-3 3v3a3 3 0 0 0 6 0v-3a3 3 0 0 0-3-3m1 6a1 1 0 0 1-2 0v-3a1 1 0 0 1 2 0M6 15a1 1 0 1 1-1-1 1 1 0 0 1 1 1Z" transform="matrix(1.5 0 0 1.5 72 252)" id="mdi-decimal" fill="#555"/><path d="M10 7a3 3 0 0 0-3 3v3a3 3 0 0 0 6 0v-3a3 3 0 0 0-3-3m1 6a1 1 0 0 1-2 0v-3a1 1 0 0 1 2 0m6-3a3 3 0 0 0-3 3v3a3 3 0 0 0 6 0v-3a3 3 0 0 0-3-3m1 6a1 1 0 0 1-2 0v-3a1 1 0 0 1 2 0M6 15a1 1 0 1 1-1-1 1 1 0 0 1 1 1Z" transform="matrix(1.5 0 0 1.5 108 252)" id="mdi-decimal" fill="#fff"/><path d="M10 7a3 3 0 0 1 3 3v3a3 3 0 0 1-6 0v-3a3 3 0 0 1 3-3m0 2a1 1 0 0 0-1 1v3a1 1 0 0 0 2 0v-3a1 1 0 0 0-1-1m7-2a3 3 0 0 1 3 3v3a3 3 0 0 1-6 0v-3a3 3 0 0 1 3-3m0 2a1 1 0 0 0-1 1v3a1 1 0 0 0 2 0v-3a1 1 0 0 0-1-1M5 14a1 1 0 0 0-1 1l1 3h1v-3a1 1 0 0 0-1-1Z" transform="matrix(1.5 0 0 1.5 144 252)" id="mdi-decimal-comma" fill="#555"/><path d="M10 7a3 3 0 0 1 3 3v3a3 3 0 0 1-6 0v-3a3 3 0 0 1 3-3m0 2a1 1 0 0 0-1 1v3a1 1 0 0 0 2 0v-3a1 1 0 0 0-1-1m7-2a3 3 0 0 1 3 3v3a3 3 0 0 1-6 0v-3a3 3 0 0 1 3-3m0 2a1 1 0 0 0-1 1v3a1 1 0 0 0 2 0v-3a1 1 0 0 0-1-1M5 14a1 1 0 0 0-1 1l1 3h1v-3a1 1 0 0 0-1-1Z" transform="matrix(1.5 0 0 1.5 180 252)" id="mdi-decimal-comma" fill="#fff"/><path d="M5 13v3H4l-1-3a1 1 0 0 1 2 0m10 3v-2l-3 3 3 3v-2h6v-2m-9-5a3 3 0 0 1-6 0V8a3 3 0 0 1 6 0m-2 0a1 1 0 0 0-2 0v3a1 1 0 0 0 2 0Z" transform="matrix(1.5 0 0 1.5 216 252)" id="mdi-decimal-comma-decrease" fill="#555"/><path d="M5 13v3H4l-1-3a1 1 0 0 1 2 0m10 3v-2l-3 3 3 3v-2h6v-2m-9-5a3 3 0 0 1-6 0V8a3 3 0 0 1 6 0m-2 0a1 1 0 0 0-2 0v3a1 1 0 0 0 2 0Z" transform="matrix(1.5 0 0 1.5 252 252)" id="mdi-decimal-comma-decrease" fill="#fff"/><path d="M9 5a3 3 0 0 0-3 3v3a3 3 0 0 0 6 0V8a3 3 0 0 0-3-3m1 6a1 1 0 0 1-2 0V8a1 1 0 0 1 2 0m6 6a3 3 0 0 0 3-3V8a3 3 0 0 0-6 0v3a3 3 0 0 0 3 3m-1-6a1 1 0 0 1 2 0v3a1 1 0 0 1-2 0m4 9v-2h-6v-2h6v-2l3 3M5 13v3H4l-1-3a1 1 0 0 1 2 0Z" transform="matrix(1.5 0 0 1.5 288 252)" id="mdi-decimal-comma-increase" fill="#555"/><path d="M9 5a3 3 0 0 0-3 3v3a3 3 0 0 0 6 0V8a3 3 0 0 0-3-3m1 6a1 1 0 0 1-2 0V8a1 1 0 0 1 2 0m6 6a3 3 0 0 0 3-3V8a3 3 0 0 0-6 0v3a3 3 0 0 0 3 3m-1-6a1 1 0 0 1 2 0v3a1 1 0 0 1-2 0m4 9v-2h-6v-2h6v-2l3 3M5 13v3H4l-1-3a1 1 0 0 1 2 0Z" transform="matrix(1.5 0 0 1.5 324 252)" id="mdi-decimal-comma-increase" fill="#fff"/><path d="m12 17 3 3v-2h6v-2h-6v-2l-3 3M9 5a3 3 0 0 1 3 3v3a3 3 0 0 1-3 3 3 3 0 0 1-3-3V8a3 3 0 0 1 3-3m0 2a1 1 0 0 0-1 1v3a1 1 0 0 0 1 1 1 1 0 0 0 1-1V8a1 1 0 0 0-1-1m-5 5a1 1 0 0 1 1 1 1 1 0 0 1-1 1 1 1 0 0 1-1-1 1 1 0 0 1 1-1Z" transform="matrix(1.5 0 0 1.5 360 252)" id="mdi-decimal-decrease" fill="#555"/><path d="m12 17 3 3v-2h6v-2h-6v-2l-3 3M9 5a3 3 0 0 1 3 3v3a3 3 0 0 1-3 3 3 3 0 0 1-3-3V8a3 3 0 0 1 3-3m0 2a1 1 0 0 0-1 1v3a1 1 0 0 0 1 1 1 1 0 0 0 1-1V8a1 1 0 0 0-1-1m-5 5a1 1 0 0 1 1 1 1 1 0 0 1-1 1 1 1 0 0 1-1-1 1 1 0 0 1 1-1Z" transform="matrix(1.5 0 0 1.5 396 252)" id="mdi-decimal-decrease" fill="#fff"/><path d="m22 17-3 3v-2h-6v-2h6v-2l3 3M9 5a3 3 0 0 1 3 3v3a3 3 0 0 1-3 3 3 3 0 0 1-3-3V8a3 3 0 0 1 3-3m0 2a1 1 0 0 0-1 1v3a1 1 0 0 0 1 1 1 1 0 0 0 1-1V8a1 1 0 0 0-1-1m7-2a3 3 0 0 1 3 3v3a3 3 0 0 1-3 3 3 3 0 0 1-3-3V8a3 3 0 0 1 3-3m0 2a1 1 0 0 0-1 1v3a1 1 0 0 0 1 1 1 1 0 0 0 1-1V8a1 1 0 0 0-1-1M4 12a1 1 0 0 1 1 1 1 1 0 0 1-1 1 1 1 0 0 1-1-1 1 1 0 0 1 1-1Z" transform="matrix(1.5 0 0 1.5 432 252)" id="mdi-decimal-increase" fill="#555"/><path d="m22 17-3 3v-2h-6v-2h6v-2l3 3M9 5a3 3 0 0 1 3 3v3a3 3 0 0 1-3 3 3 3 0 0 1-3-3V8a3 3 0 0 1 3-3m0 2a1 1 0 0 0-1 1v3a1 1 0 0 0 1 1 1 1 0 0 0 1-1V8a1 1 0 0 0-1-1m7-2a3 3 0 0 1 3 3v3a3 3 0 0 1-3 3 3 3 0 0 1-3-3V8a3 3 0 0 1 3-3m0 2a1 1 0 0 0-1 1v3a1 1 0 0 0 1 1 1 1 0 0 0 1-1V8a1 1 0 0 0-1-1M4 12a1 1 0 0 1 1 1 1 1 0 0 1-1 1 1 1 0 0 1-1-1 1 1 0 0 1 1-1Z" transform="matrix(1.5 0 0 1.5 468 252)" id="mdi-decimal-increase" fill="#fff"/><path d="M19 4h-3.5l-1-1h-5l-1 1H5v2h14M6 19a2 2 0 0 0 2 2h8a2 2 0 0 0 2-2V7H6v12Z" transform="matrix(1.5 0 0 1.5 504 252)" id="mdi-delete" fill="#555"/><path d="M19 4h-3.5l-1-1h-5l-1 1H5v2h14M6 19a2 2 0 0 0 2 2h8a2 2 0 0 0 2-2V7H6v12Z" transform="matrix(1.5 0 0 1.5 540 252)" id="mdi-delete" fill="#fff"/><path d="M17 4v2H3V4h3.5l1-1h5l1 1H17M4 19V7h12v12c0 1.1-.9 2-2 2H6c-1.1 0-2-.9-2-2m15-4h2v2h-2v-2m0-8h2v6h-2V7Z" transform="matrix(1.5 0 0 1.5 576 252)" id="mdi-delete-alert" fill="#555"/><path d="M17 4v2H3V4h3.5l1-1h5l1 1H17M4 19V7h12v12c0 1.1-.9 2-2 2H6c-1.1 0-2-.9-2-2m15-4h2v2h-2v-2m0-8h2v6h-2V7Z" transform="matrix(1.5 0 0 1.5 612 252)" id="mdi-delete-alert" fill="#fff"/><path d="M4 19V7h12v12c0 1.1-.9 2-2 2H6c-1.1 0-2-.9-2-2M6 9v10h8V9H6m7.5-5H17v2H3V4h3.5l1-1h5l1 1M19 17v-2h2v2h-2m0-4V7h2v6h-2Z" transform="matrix(1.5 0 0 1.5 648 252)" id="mdi-delete-alert-outline" fill="#555"/><path d="M4 19V7h12v12c0 1.1-.9 2-2 2H6c-1.1 0-2-.9-2-2M6 9v10h8V9H6m7.5-5H17v2H3V4h3.5l1-1h5l1 1M19 17v-2h2v2h-2m0-4V7h2v6h-2Z" transform="matrix(1.5 0 0 1.5 684 252)" id="mdi-delete-alert-outline" fill="#fff"/><path d="M12 2c5.53 0 10 4.47 10 10s-4.47 10-10 10S2 17.53 2 12 6.47 2 12 2m5 5h-2.5l-1-1h-3l-1 1H7v2h10V7M9 18h6a1 1 0 0 0 1-1v-7H8v7a1 1 0 0 0 1 1Z" transform="matrix(1.5 0 0 1.5 0 288)" id="mdi-delete-circle" fill="#555"/><path d="M12 2c5.53 0 10 4.47 10 10s-4.47 10-10 10S2 17.53 2 12 6.47 2 12 2m5 5h-2.5l-1-1h-3l-1 1H7v2h10V7M9 18h6a1 1 0 0 0 1-1v-7H8v7a1 1 0 0 0 1 1Z" transform="matrix(1.5 0 0 1.5 36 288)" id="mdi-delete-circle" fill="#fff"/><path d="M12 2a10 10 0 0 1 10 10 10 10 0 0 1-10 10A10 10 0 0 1 2 12 10 10 0 0 1 12 2m0 2a8 8 0 0 0-8 8 8 8 0 0 0 8 8 8 8 0 0 0 8-8 8 8 0 0 0-8-8m4 6v7a1 1 0 0 1-1 1H9a1 1 0 0 1-1-1v-7h8m-2.5-4 1 1H17v2H7V7h2.5l1-1h3Z" transform="matrix(1.5 0 0 1.5 72 288)" id="mdi-delete-circle-outline" fill="#555"/><path d="M12 2a10 10 0 0 1 10 10 10 10 0 0 1-10 10A10 10 0 0 1 2 12 10 10 0 0 1 12 2m0 2a8 8 0 0 0-8 8 8 8 0 0 0 8 8 8 8 0 0 0 8-8 8 8 0 0 0-8-8m4 6v7a1 1 0 0 1-1 1H9a1 1 0 0 1-1-1v-7h8m-2.5-4 1 1H17v2H7V7h2.5l1-1h3Z" transform="matrix(1.5 0 0 1.5 108 288)" id="mdi-delete-circle-outline" fill="#fff"/><path d="M15 13h1.5v2.82l2.44 1.41-.75 1.3L15 16.69V13m8 3c0 3.87-3.13 7-7 7-1.91 0-3.64-.76-4.9-2H8c-1.1 0-2-.9-2-2V7h12v2.29c2.89.86 5 3.54 5 6.71m-7-5c-2.76 0-5 2.24-5 5s2.24 5 5 5 5-2.24 5-5-2.24-5-5-5m3-7v2H5V4h3.5l1-1h5l1 1H19Z" transform="matrix(1.5 0 0 1.5 144 288)" id="mdi-delete-clock" fill="#555"/><path d="M15 13h1.5v2.82l2.44 1.41-.75 1.3L15 16.69V13m8 3c0 3.87-3.13 7-7 7-1.91 0-3.64-.76-4.9-2H8c-1.1 0-2-.9-2-2V7h12v2.29c2.89.86 5 3.54 5 6.71m-7-5c-2.76 0-5 2.24-5 5s2.24 5 5 5 5-2.24 5-5-2.24-5-5-5m3-7v2H5V4h3.5l1-1h5l1 1H19Z" transform="matrix(1.5 0 0 1.5 180 288)" id="mdi-delete-clock" fill="#fff"/><path d="M15 13h1.5v2.82l2.44 1.41-.75 1.3L15 16.69V13m8 3c0 3.87-3.13 7-7 7-1.91 0-3.64-.76-4.9-2H8c-1.1 0-2-.9-2-2V7h12v2.29c2.89.86 5 3.54 5 6.71M9 16c0-3.87 3.13-7 7-7H8v10h1.67c-.43-.91-.67-1.93-.67-3m7-5c-2.76 0-5 2.24-5 5s2.24 5 5 5 5-2.24 5-5-2.24-5-5-5m-.5-7H19v2H5V4h3.5l1-1h5l1 1Z" transform="matrix(1.5 0 0 1.5 216 288)" id="mdi-delete-clock-outline" fill="#555"/><path d="M15 13h1.5v2.82l2.44 1.41-.75 1.3L15 16.69V13m8 3c0 3.87-3.13 7-7 7-1.91 0-3.64-.76-4.9-2H8c-1.1 0-2-.9-2-2V7h12v2.29c2.89.86 5 3.54 5 6.71M9 16c0-3.87 3.13-7 7-7H8v10h1.67c-.43-.91-.67-1.93-.67-3m7-5c-2.76 0-5 2.24-5 5s2.24 5 5 5 5-2.24 5-5-2.24-5-5-5m-.5-7H19v2H5V4h3.5l1-1h5l1 1Z" transform="matrix(1.5 0 0 1.5 252 288)" id="mdi-delete-clock-outline" fill="#fff"/><path d="m20.37 8.91-1 1.73-12.13-7 1-1.73 3.04 1.75 1.36-.37 4.33 2.5.37 1.37 3.03 1.75M6 19V7h5.07L18 11v8a2 2 0 0 1-2 2H8a2 2 0 0 1-2-2Z" transform="matrix(1.5 0 0 1.5 288 288)" id="mdi-delete-empty" fill="#555"/><path d="m20.37 8.91-1 1.73-12.13-7 1-1.73 3.04 1.75 1.36-.37 4.33 2.5.37 1.37 3.03 1.75M6 19V7h5.07L18 11v8a2 2 0 0 1-2 2H8a2 2 0 0 1-2-2Z" transform="matrix(1.5 0 0 1.5 324 288)" id="mdi-delete-empty" fill="#fff"/><path d="m20.37 8.91-1 1.73-12.13-7 1-1.73 3.04 1.75 1.36-.37 4.33 2.5.37 1.37 3.03 1.75M6 19V7h5.07L18 11v8a2 2 0 0 1-2 2H8a2 2 0 0 1-2-2m2 0h8v-6.8L10.46 9H8v10Z" transform="matrix(1.5 0 0 1.5 360 288)" id="mdi-delete-empty-outline" fill="#555"/><path d="m20.37 8.91-1 1.73-12.13-7 1-1.73 3.04 1.75 1.36-.37 4.33 2.5.37 1.37 3.03 1.75M6 19V7h5.07L18 11v8a2 2 0 0 1-2 2H8a2 2 0 0 1-2-2m2 0h8v-6.8L10.46 9H8v10Z" transform="matrix(1.5 0 0 1.5 396 288)" id="mdi-delete-empty-outline" fill="#fff"/><path d="M6 19a2 2 0 0 0 2 2h8a2 2 0 0 0 2-2V7H6v12m2.46-7.12 1.41-1.41L12 12.59l2.12-2.12 1.41 1.41L13.41 14l2.12 2.12-1.41 1.41L12 15.41l-2.12 2.12-1.41-1.41L10.59 14l-2.13-2.12M15.5 4l-1-1h-5l-1 1H5v2h14V4h-3.5Z" transform="matrix(1.5 0 0 1.5 432 288)" id="mdi-delete-forever" fill="#555"/><path d="M6 19a2 2 0 0 0 2 2h8a2 2 0 0 0 2-2V7H6v12m2.46-7.12 1.41-1.41L12 12.59l2.12-2.12 1.41 1.41L13.41 14l2.12 2.12-1.41 1.41L12 15.41l-2.12 2.12-1.41-1.41L10.59 14l-2.13-2.12M15.5 4l-1-1h-5l-1 1H5v2h14V4h-3.5Z" transform="matrix(1.5 0 0 1.5 468 288)" id="mdi-delete-forever" fill="#fff"/><path d="M14.12 10.47 12 12.59l-2.13-2.12-1.41 1.41L10.59 14l-2.12 2.12 1.41 1.41L12 15.41l2.12 2.12 1.41-1.41L13.41 14l2.12-2.12-1.41-1.41M15.5 4l-1-1h-5l-1 1H5v2h14V4h-3.5M6 19a2 2 0 0 0 2 2h8a2 2 0 0 0 2-2V7H6v12M8 9h8v10H8V9Z" transform="matrix(1.5 0 0 1.5 504 288)" id="mdi-delete-forever-outline" fill="#555"/><path d="M14.12 10.47 12 12.59l-2.13-2.12-1.41 1.41L10.59 14l-2.12 2.12 1.41 1.41L12 15.41l2.12 2.12 1.41-1.41L13.41 14l2.12-2.12-1.41-1.41M15.5 4l-1-1h-5l-1 1H5v2h14V4h-3.5M6 19a2 2 0 0 0 2 2h8a2 2 0 0 0 2-2V7H6v12M8 9h8v10H8V9Z" transform="matrix(1.5 0 0 1.5 540 288)" id="mdi-delete-forever-outline" fill="#fff"/><path d="M2 5.27 3.28 4 5 5.72l.28.28 1 1L18 18.72l2 2L18.73 22l-1.46-1.46c-.34.29-.77.46-1.27.46H8c-1.1 0-2-.9-2-2V9.27l-4-4M19 4v2H7.82l-2-2H8.5l1-1h5l1 1H19m-1 3v9.18L8.82 7H18Z" transform="matrix(1.5 0 0 1.5 576 288)" id="mdi-delete-off" fill="#555"/><path d="M2 5.27 3.28 4 5 5.72l.28.28 1 1L18 18.72l2 2L18.73 22l-1.46-1.46c-.34.29-.77.46-1.27.46H8c-1.1 0-2-.9-2-2V9.27l-4-4M19 4v2H7.82l-2-2H8.5l1-1h5l1 1H19m-1 3v9.18L8.82 7H18Z" transform="matrix(1.5 0 0 1.5 612 288)" id="mdi-delete-off" fill="#fff"/><path d="M2 5.27 3.28 4 5 5.72l.28.28 1 1 2 2L16 16.72l2 2 2 2L18.73 22l-1.46-1.46c-.34.29-.77.46-1.27.46H8c-1.1 0-2-.9-2-2V9.27l-4-4M8 19h7.73L8 11.27V19M18 7v9.18l-2-2V9h-5.18l-2-2H18m-2.5-3H19v2H7.82l-2-2H8.5l1-1h5l1 1Z" transform="matrix(1.5 0 0 1.5 648 288)" id="mdi-delete-off-outline" fill="#555"/><path d="M2 5.27 3.28 4 5 5.72l.28.28 1 1 2 2L16 16.72l2 2 2 2L18.73 22l-1.46-1.46c-.34.29-.77.46-1.27.46H8c-1.1 0-2-.9-2-2V9.27l-4-4M8 19h7.73L8 11.27V19M18 7v9.18l-2-2V9h-5.18l-2-2H18m-2.5-3H19v2H7.82l-2-2H8.5l1-1h5l1 1Z" transform="matrix(1.5 0 0 1.5 684 288)" id="mdi-delete-off-outline" fill="#fff"/><path d="M6 19a2 2 0 0 0 2 2h8a2 2 0 0 0 2-2V7H6v12M8 9h8v10H8V9m7.5-5-1-1h-5l-1 1H5v2h14V4h-3.5Z" transform="matrix(1.5 0 0 1.5 0 324)" id="mdi-delete-outline" fill="#555"/><path d="M6 19a2 2 0 0 0 2 2h8a2 2 0 0 0 2-2V7H6v12M8 9h8v10H8V9m7.5-5-1-1h-5l-1 1H5v2h14V4h-3.5Z" transform="matrix(1.5 0 0 1.5 36 324)" id="mdi-delete-outline" fill="#fff"/><path d="M14 14h2l-4-4-4 4h2v4h4v-4M6 7h12v12c0 .5-.2 1-.61 1.39-.39.41-.89.61-1.39.61H8c-.5 0-1-.2-1.39-.61C6.2 20 6 19.5 6 19V7m13-3v2H5V4h3.5l1-1h5l1 1H19Z" transform="matrix(1.5 0 0 1.5 72 324)" id="mdi-delete-restore" fill="#555"/><path d="M14 14h2l-4-4-4 4h2v4h4v-4M6 7h12v12c0 .5-.2 1-.61 1.39-.39.41-.89.61-1.39.61H8c-.5 0-1-.2-1.39-.61C6.2 20 6 19.5 6 19V7m13-3v2H5V4h3.5l1-1h5l1 1H19Z" transform="matrix(1.5 0 0 1.5 108 324)" id="mdi-delete-restore" fill="#fff"/><path d="M15 16h4v2h-4v-2m0-8h7v2h-7V8m0 4h6v2h-6v-2M3 18a2 2 0 0 0 2 2h6a2 2 0 0 0 2-2V8H3v10M14 5h-3l-1-1H6L5 5H2v2h12V5Z" transform="matrix(1.5 0 0 1.5 144 324)" id="mdi-delete-sweep" fill="#555"/><path d="M15 16h4v2h-4v-2m0-8h7v2h-7V8m0 4h6v2h-6v-2M3 18a2 2 0 0 0 2 2h6a2 2 0 0 0 2-2V8H3v10M14 5h-3l-1-1H6L5 5H2v2h12V5Z" transform="matrix(1.5 0 0 1.5 180 324)" id="mdi-delete-sweep" fill="#fff"/><path d="M15 16h4v2h-4v-2m0-8h7v2h-7V8m0 4h6v2h-6v-2m-4-2v8H5v-8h6m2-2H3v10a2 2 0 0 0 2 2h6a2 2 0 0 0 2-2V8m1-3h-3l-1-1H6L5 5H2v2h12V5Z" transform="matrix(1.5 0 0 1.5 216 324)" id="mdi-delete-sweep-outline" fill="#555"/><path d="M15 16h4v2h-4v-2m0-8h7v2h-7V8m0 4h6v2h-6v-2m-4-2v8H5v-8h6m2-2H3v10a2 2 0 0 0 2 2h6a2 2 0 0 0 2-2V8m1-3h-3l-1-1H6L5 5H2v2h12V5Z" transform="matrix(1.5 0 0 1.5 252 324)" id="mdi-delete-sweep-outline" fill="#fff"/><path d="M21.03 3 18 20.31c-.17.96-1 1.69-2 1.69H8c-1 0-1.83-.73-2-1.69L2.97 3h18.06M5.36 5 8 20h8l2.64-15H5.36M9 18v-4h4v4H9m4-4.82L9.82 10 13 6.82 16.18 10 13 13.18Z" transform="matrix(1.5 0 0 1.5 288 324)" id="mdi-delete-variant" fill="#555"/><path d="M21.03 3 18 20.31c-.17.96-1 1.69-2 1.69H8c-1 0-1.83-.73-2-1.69L2.97 3h18.06M5.36 5 8 20h8l2.64-15H5.36M9 18v-4h4v4H9m4-4.82L9.82 10 13 6.82 16.18 10 13 13.18Z" transform="matrix(1.5 0 0 1.5 324 324)" id="mdi-delete-variant" fill="#fff"/><path d="M12 7.77 18.39 18H5.61L12 7.77M12 4 2 20h20" transform="matrix(1.5 0 0 1.5 360 324)" id="mdi-delta" fill="#555"/><path d="M12 7.77 18.39 18H5.61L12 7.77M12 4 2 20h20" transform="matrix(1.5 0 0 1.5 396 324)" id="mdi-delta" fill="#fff"/><path d="M3 6h18c.55 0 1 .45 1 1s-.45 1-1 1v11h-2v-2h-4v2h-2V8H5v11H3V8c-.55 0-1-.45-1-1s.45-1 1-1m13 4.5v.5h2v-.5c0-.28-.22-.5-.5-.5h-1c-.28 0-.5.22-.5.5m0 4v.5h2v-.5c0-.28-.22-.5-.5-.5h-1c-.28 0-.5.22-.5.5Z" transform="matrix(1.5 0 0 1.5 432 324)" id="mdi-desk" fill="#555"/><path d="M3 6h18c.55 0 1 .45 1 1s-.45 1-1 1v11h-2v-2h-4v2h-2V8H5v11H3V8c-.55 0-1-.45-1-1s.45-1 1-1m13 4.5v.5h2v-.5c0-.28-.22-.5-.5-.5h-1c-.28 0-.5.22-.5.5m0 4v.5h2v-.5c0-.28-.22-.5-.5-.5h-1c-.28 0-.5.22-.5.5Z" transform="matrix(1.5 0 0 1.5 468 324)" id="mdi-desk" fill="#fff"/><path d="M10.85 2 9.18 4.5l1.14.75L7.14 10H7a2 2 0 0 0-2 2 2 2 0 0 0 1.58 1.95L10.62 20H7v2h10v-2h-4l-4.47-6.72A2 2 0 0 0 9 12c0-.3-.07-.6-.2-.87L12 6.37c-.22 1.68.75 3.52 2.45 4.63l4.44-6.63c-1.69-1.13-3.77-1.33-5.24-.5L10.85 2m7.48 5-1.66 2.5c.68.45 1.62.27 2.08-.42.46-.69.25-1.62-.42-2.08Z" transform="matrix(1.5 0 0 1.5 504 324)" id="mdi-desk-lamp" fill="#555"/><path d="M10.85 2 9.18 4.5l1.14.75L7.14 10H7a2 2 0 0 0-2 2 2 2 0 0 0 1.58 1.95L10.62 20H7v2h10v-2h-4l-4.47-6.72A2 2 0 0 0 9 12c0-.3-.07-.6-.2-.87L12 6.37c-.22 1.68.75 3.52 2.45 4.63l4.44-6.63c-1.69-1.13-3.77-1.33-5.24-.5L10.85 2m7.48 5-1.66 2.5c.68.45 1.62.27 2.08-.42.46-.69.25-1.62-.42-2.08Z" transform="matrix(1.5 0 0 1.5 540 324)" id="mdi-desk-lamp" fill="#fff"/><path d="M5 3h14a2 2 0 0 1 2 2v14a2 2 0 0 1-2 2H5a2 2 0 0 1-2-2V5a2 2 0 0 1 2-2m10 2v14h4V5h-4M5 5v4h8V5H5m0 6v2h2v-2H5m3 0v2h2v-2H8m3 0v2h2v-2h-2m-6 3v2h2v-2H5m3 0v2h2v-2H8m3 0v2h2v-2h-2m0 3v2h2v-2h-2m-3 0v2h2v-2H8m-3 0v2h2v-2H5Z" transform="matrix(1.5 0 0 1.5 576 324)" id="mdi-deskphone" fill="#555"/><path d="M5 3h14a2 2 0 0 1 2 2v14a2 2 0 0 1-2 2H5a2 2 0 0 1-2-2V5a2 2 0 0 1 2-2m10 2v14h4V5h-4M5 5v4h8V5H5m0 6v2h2v-2H5m3 0v2h2v-2H8m3 0v2h2v-2h-2m-6 3v2h2v-2H5m3 0v2h2v-2H8m3 0v2h2v-2h-2m0 3v2h2v-2h-2m-3 0v2h2v-2H8m-3 0v2h2v-2H5Z" transform="matrix(1.5 0 0 1.5 612 324)" id="mdi-deskphone" fill="#fff"/><path d="M6 2c-1.11 0-2 .89-2 2v8c0 1.11.89 2 2 2h12c1.11 0 2-.89 2-2V4c0-1.11-.89-2-2-2H6m0 2h12v8H6V4M4 15c-1.11 0-2 .89-2 2v3c0 1.11.89 2 2 2h16c1.11 0 2-.89 2-2v-3c0-1.11-.89-2-2-2H4m4 2h12v3H8v-3m1 .75v1.5h4v-1.5H9m6 0v1.5h4v-1.5h-4Z" transform="matrix(1.5 0 0 1.5 648 324)" id="mdi-desktop-classic" fill="#555"/><path d="M6 2c-1.11 0-2 .89-2 2v8c0 1.11.89 2 2 2h12c1.11 0 2-.89 2-2V4c0-1.11-.89-2-2-2H6m0 2h12v8H6V4M4 15c-1.11 0-2 .89-2 2v3c0 1.11.89 2 2 2h16c1.11 0 2-.89 2-2v-3c0-1.11-.89-2-2-2H4m4 2h12v3H8v-3m1 .75v1.5h4v-1.5H9m6 0v1.5h4v-1.5h-4Z" transform="matrix(1.5 0 0 1.5 684 324)" id="mdi-desktop-classic" fill="#fff"/></svg>