<svg xmlns="http://www.w3.org/2000/svg" width="720" height="900"><path d="M12 2A10 10 0 0 0 2 12a10 10 0 0 0 10 10 10 10 0 0 0 10-10A10 10 0 0 0 12 2m0 18a8 8 0 0 1-8-8 8 8 0 0 1 8-8 8 8 0 0 1 8 8 8 8 0 0 1-8 8M9 10c-.74 0-1.39.4-1.73 1-.17-.29-.27-.64-.27-1a2 2 0 0 1 2-2 2 2 0 0 1 1.73 3c-.34-.6-.99-1-1.73-1m8 0c0 .36-.1.71-.27 1-.34-.6-.99-1-1.73-1s-1.39.4-1.73 1c-.17-.29-.27-.64-.27-1a2 2 0 0 1 2-2 2 2 0 0 1 2 2m-1 3v2h-1c0 2-.9 3-2 3s-2-1-2-3H8v-2h8Z" transform="scale(1.5)" id="mdi-emoticon-tongue-outline" fill="#555"/><path d="M12 2A10 10 0 0 0 2 12a10 10 0 0 0 10 10 10 10 0 0 0 10-10A10 10 0 0 0 12 2m0 18a8 8 0 0 1-8-8 8 8 0 0 1 8-8 8 8 0 0 1 8 8 8 8 0 0 1-8 8M9 10c-.74 0-1.39.4-1.73 1-.17-.29-.27-.64-.27-1a2 2 0 0 1 2-2 2 2 0 0 1 1.73 3c-.34-.6-.99-1-1.73-1m8 0c0 .36-.1.71-.27 1-.34-.6-.99-1-1.73-1s-1.39.4-1.73 1c-.17-.29-.27-.64-.27-1a2 2 0 0 1 2-2 2 2 0 0 1 2 2m-1 3v2h-1c0 2-.9 3-2 3s-2-1-2-3H8v-2h8Z" transform="translate(36) scale(1.5)" id="mdi-emoticon-tongue-outline" fill="#fff"/><path d="M12 2A10 10 0 0 0 2 12a10 10 0 0 0 10 10 10 10 0 0 0 10-10A10 10 0 0 0 12 2M7 9.5C7 8.7 7.7 8 8.5 8s1.5.7 1.5 1.5S9.3 11 8.5 11 7 10.3 7 9.5m5 7.73c-1.75 0-3.29-.73-4.19-1.81L9.23 14c.45.72 1.52 1.23 2.77 1.23s2.32-.51 2.77-1.23l1.42 1.42c-.9 1.08-2.44 1.81-4.19 1.81M17 10h-4V9h4v1Z" transform="translate(72) scale(1.5)" id="mdi-emoticon-wink" fill="#555"/><path d="M12 2A10 10 0 0 0 2 12a10 10 0 0 0 10 10 10 10 0 0 0 10-10A10 10 0 0 0 12 2M7 9.5C7 8.7 7.7 8 8.5 8s1.5.7 1.5 1.5S9.3 11 8.5 11 7 10.3 7 9.5m5 7.73c-1.75 0-3.29-.73-4.19-1.81L9.23 14c.45.72 1.52 1.23 2.77 1.23s2.32-.51 2.77-1.23l1.42 1.42c-.9 1.08-2.44 1.81-4.19 1.81M17 10h-4V9h4v1Z" transform="translate(108) scale(1.5)" id="mdi-emoticon-wink" fill="#fff"/><path d="M12 2A10 10 0 0 0 2 12a10 10 0 0 0 10 10 10 10 0 0 0 10-10A10 10 0 0 0 12 2m0 18a8 8 0 0 1-8-8 8 8 0 0 1 8-8 8 8 0 0 1 8 8 8 8 0 0 1-8 8M10 9.5c0 .8-.7 1.5-1.5 1.5S7 10.3 7 9.5 7.7 8 8.5 8s1.5.7 1.5 1.5m2 7.73c-1.75 0-3.29-.73-4.19-1.81L9.23 14c.45.72 1.52 1.23 2.77 1.23s2.32-.51 2.77-1.23l1.42 1.42c-.9 1.08-2.44 1.81-4.19 1.81M17 10h-4V9h4v1Z" transform="translate(144) scale(1.5)" id="mdi-emoticon-wink-outline" fill="#555"/><path d="M12 2A10 10 0 0 0 2 12a10 10 0 0 0 10 10 10 10 0 0 0 10-10A10 10 0 0 0 12 2m0 18a8 8 0 0 1-8-8 8 8 0 0 1 8-8 8 8 0 0 1 8 8 8 8 0 0 1-8 8M10 9.5c0 .8-.7 1.5-1.5 1.5S7 10.3 7 9.5 7.7 8 8.5 8s1.5.7 1.5 1.5m2 7.73c-1.75 0-3.29-.73-4.19-1.81L9.23 14c.45.72 1.52 1.23 2.77 1.23s2.32-.51 2.77-1.23l1.42 1.42c-.9 1.08-2.44 1.81-4.19 1.81M17 10h-4V9h4v1Z" transform="translate(180) scale(1.5)" id="mdi-emoticon-wink-outline" fill="#fff"/><path d="M7 4v2h3v2H7l-2 2v3H3v-3H1v8h2v-3h2v3h3l2 2h8v-4h2v3h3V9h-3v3h-2V8h-6V6h3V4H7Z" transform="translate(216) scale(1.5)" id="mdi-engine" fill="#555"/><path d="M7 4v2h3v2H7l-2 2v3H3v-3H1v8h2v-3h2v3h3l2 2h8v-4h2v3h3V9h-3v3h-2V8h-6V6h3V4H7Z" transform="translate(252) scale(1.5)" id="mdi-engine" fill="#fff"/><path d="M3.78 2.5 21.5 20.22l-1.27 1.28L18 19.27V20h-8l-2-2H5v-3H3v3H1v-8h2v3h2v-3l1.87-1.86L2.5 3.77 3.78 2.5M20 9v3h-2V8h-6V6h3V4H7.82l15 15H23V9h-3Z" transform="translate(288) scale(1.5)" id="mdi-engine-off" fill="#555"/><path d="M3.78 2.5 21.5 20.22l-1.27 1.28L18 19.27V20h-8l-2-2H5v-3H3v3H1v-8h2v3h2v-3l1.87-1.86L2.5 3.77 3.78 2.5M20 9v3h-2V8h-6V6h3V4H7.82l15 15H23V9h-3Z" transform="translate(324) scale(1.5)" id="mdi-engine-off" fill="#fff"/><path d="m2.5 3.77 4.37 4.37L5 10v3H3v-3H1v8h2v-3h2v3h3l2 2h8v-.73l3.23 3.23 1.27-1.28L3.78 2.5 2.5 3.77M16 18h-5l-2-2H7v-5l1-1h.73L16 17.27V18m7-9v10h-.18L16 12.18V10h-2.18l-6-6H15v2h-3v2h6v4h2V9h3Z" transform="translate(360) scale(1.5)" id="mdi-engine-off-outline" fill="#555"/><path d="m2.5 3.77 4.37 4.37L5 10v3H3v-3H1v8h2v-3h2v3h3l2 2h8v-.73l3.23 3.23 1.27-1.28L3.78 2.5 2.5 3.77M16 18h-5l-2-2H7v-5l1-1h.73L16 17.27V18m7-9v10h-.18L16 12.18V10h-2.18l-6-6H15v2h-3v2h6v4h2V9h3Z" transform="translate(396) scale(1.5)" id="mdi-engine-off-outline" fill="#fff"/><path d="M8 10h8v8h-5l-2-2H7v-5m0-7v2h3v2H7l-2 2v3H3v-3H1v8h2v-3h2v3h3l2 2h8v-4h2v3h3V9h-3v3h-2V8h-6V6h3V4H7Z" transform="translate(432) scale(1.5)" id="mdi-engine-outline" fill="#555"/><path d="M8 10h8v8h-5l-2-2H7v-5m0-7v2h3v2H7l-2 2v3H3v-3H1v8h2v-3h2v3h3l2 2h8v-4h2v3h3V9h-3v3h-2V8h-6V6h3V4H7Z" transform="translate(468) scale(1.5)" id="mdi-engine-outline" fill="#fff"/><path d="m15.05 7.78 1.1-1.6S14.91 5 12.77 5c-2.73 0-4.42 1.84-4.42 3.76 0 1.92 1.73 2.93 1.73 2.93S8 12.38 8 15c0 2.63 2.14 4 4.44 4 2.94 0 4.56-1.96 4.56-1.96l-1.4-1.54s-1.46 1.37-3.01 1.37c-1.93 0-2.38-1.18-2.38-1.95 0-1.05.33-2.27 3.62-2.27l-.01-1.88s-3.38.34-3.38-1.99c0-1.57 1.46-1.86 2.2-1.86 1.64 0 2.41.86 2.41.86" transform="translate(504) scale(1.5)" id="mdi-epsilon" fill="#555"/><path d="m15.05 7.78 1.1-1.6S14.91 5 12.77 5c-2.73 0-4.42 1.84-4.42 3.76 0 1.92 1.73 2.93 1.73 2.93S8 12.38 8 15c0 2.63 2.14 4 4.44 4 2.94 0 4.56-1.96 4.56-1.96l-1.4-1.54s-1.46 1.37-3.01 1.37c-1.93 0-2.38-1.18-2.38-1.95 0-1.05.33-2.27 3.62-2.27l-.01-1.88s-3.38.34-3.38-1.99c0-1.57 1.46-1.86 2.2-1.86 1.64 0 2.41.86 2.41.86" transform="translate(540) scale(1.5)" id="mdi-epsilon" fill="#fff"/><path d="M19 10H5V8h14v2m0 6H5v-2h14v2Z" transform="translate(576) scale(1.5)" id="mdi-equal" fill="#555"/><path d="M19 10H5V8h14v2m0 6H5v-2h14v2Z" transform="translate(612) scale(1.5)" id="mdi-equal" fill="#fff"/><path d="M17 16v-2H7v2h10m2-13a2 2 0 0 1 2 2v14a2 2 0 0 1-2 2H5a2 2 0 0 1-2-2V5c0-1.11.89-2 2-2h14m-2 7V8H7v2h10Z" transform="translate(648) scale(1.5)" id="mdi-equal-box" fill="#555"/><path d="M17 16v-2H7v2h10m2-13a2 2 0 0 1 2 2v14a2 2 0 0 1-2 2H5a2 2 0 0 1-2-2V5c0-1.11.89-2 2-2h14m-2 7V8H7v2h10Z" transform="translate(684) scale(1.5)" id="mdi-equal-box" fill="#fff"/><path d="M10 20h4V4h-4v16m-6 0h4v-8H4v8M16 9v11h4V9h-4Z" transform="matrix(1.5 0 0 1.5 0 36)" id="mdi-equalizer" fill="#555"/><path d="M10 20h4V4h-4v16m-6 0h4v-8H4v8M16 9v11h4V9h-4Z" transform="matrix(1.5 0 0 1.5 36 36)" id="mdi-equalizer" fill="#fff"/><path d="M15 21H9V3h6v18m-4-2h2V5h-2v14m-3 2H2V11h6v10m-4-2h2v-6H4v6m18 2h-6V8h6v13m-4-2h2v-9h-2v9Z" transform="matrix(1.5 0 0 1.5 72 36)" id="mdi-equalizer-outline" fill="#555"/><path d="M15 21H9V3h6v18m-4-2h2V5h-2v14m-3 2H2V11h6v10m-4-2h2v-6H4v6m18 2h-6V8h6v13m-4-2h2v-9h-2v9Z" transform="matrix(1.5 0 0 1.5 108 36)" id="mdi-equalizer-outline" fill="#fff"/><path d="m16.24 3.56 4.95 4.94c.78.79.78 2.05 0 2.84L12 20.53a4.008 4.008 0 0 1-5.66 0L2.81 17c-.78-.79-.78-2.05 0-2.84l10.6-10.6c.79-.78 2.05-.78 2.83 0M4.22 15.58l3.54 3.53c.78.79 2.04.79 2.83 0l3.53-3.53-4.95-4.95-4.95 4.95Z" transform="matrix(1.5 0 0 1.5 144 36)" id="mdi-eraser" fill="#555"/><path d="m16.24 3.56 4.95 4.94c.78.79.78 2.05 0 2.84L12 20.53a4.008 4.008 0 0 1-5.66 0L2.81 17c-.78-.79-.78-2.05 0-2.84l10.6-10.6c.79-.78 2.05-.78 2.83 0M4.22 15.58l3.54 3.53c.78.79 2.04.79 2.83 0l3.53-3.53-4.95-4.95-4.95 4.95Z" transform="matrix(1.5 0 0 1.5 180 36)" id="mdi-eraser" fill="#fff"/><path d="M15.14 3c-.51 0-1.02.2-1.41.59L2.59 14.73c-.78.77-.78 2.04 0 2.83L5.03 20h7.66l8.72-8.73c.79-.77.79-2.04 0-2.83l-4.85-4.85c-.39-.39-.91-.59-1.42-.59M17 18l-2 2h7v-2" transform="matrix(1.5 0 0 1.5 216 36)" id="mdi-eraser-variant" fill="#555"/><path d="M15.14 3c-.51 0-1.02.2-1.41.59L2.59 14.73c-.78.77-.78 2.04 0 2.83L5.03 20h7.66l8.72-8.73c.79-.77.79-2.04 0-2.83l-4.85-4.85c-.39-.39-.91-.59-1.42-.59M17 18l-2 2h7v-2" transform="matrix(1.5 0 0 1.5 252 36)" id="mdi-eraser-variant" fill="#fff"/><path d="M20 8h-1.05l-12 12H4a2 2 0 0 1-2-2 2 2 0 0 1 2-2h1.29L7 14.29V10a1 1 0 0 1 1-1h1a1 1 0 0 1 1 1v1.29L17.29 4H20a2 2 0 0 1 2 2 2 2 0 0 1-2 2M8.5 5A1.5 1.5 0 0 1 10 6.5 1.5 1.5 0 0 1 8.5 8 1.5 1.5 0 0 1 7 6.5 1.5 1.5 0 0 1 8.5 5Z" transform="matrix(1.5 0 0 1.5 288 36)" id="mdi-escalator" fill="#555"/><path d="M20 8h-1.05l-12 12H4a2 2 0 0 1-2-2 2 2 0 0 1 2-2h1.29L7 14.29V10a1 1 0 0 1 1-1h1a1 1 0 0 1 1 1v1.29L17.29 4H20a2 2 0 0 1 2 2 2 2 0 0 1-2 2M8.5 5A1.5 1.5 0 0 1 10 6.5 1.5 1.5 0 0 1 8.5 8 1.5 1.5 0 0 1 7 6.5 1.5 1.5 0 0 1 8.5 5Z" transform="matrix(1.5 0 0 1.5 324 36)" id="mdi-escalator" fill="#fff"/><path d="M5 3c-1.11 0-2 .89-2 2v14c0 1.11.89 2 2 2h14c1.11 0 2-.89 2-2V5c0-1.11-.89-2-2-2H5m9.34 3h2.71a2 2 0 0 1 2 2c0 1.11-.89 2-2 2H16l-6 8H7.05a2 2 0 1 1 0-4h1.29l6-8Z" transform="matrix(1.5 0 0 1.5 360 36)" id="mdi-escalator-box" fill="#555"/><path d="M5 3c-1.11 0-2 .89-2 2v14c0 1.11.89 2 2 2h14c1.11 0 2-.89 2-2V5c0-1.11-.89-2-2-2H5m9.34 3h2.71a2 2 0 0 1 2 2c0 1.11-.89 2-2 2H16l-6 8H7.05a2 2 0 1 1 0-4h1.29l6-8Z" transform="matrix(1.5 0 0 1.5 396 36)" id="mdi-escalator-box" fill="#fff"/><path d="M20 8h-1.05l-12 12H4a2 2 0 1 1 0-4h1.29L7 14.29V10c0-.55.45-1 1-1h1c.55 0 1 .45 1 1v1.29L17.29 4H20c1.11 0 2 .89 2 2 0 1.11-.89 2-2 2M8.5 5c.83 0 1.5.67 1.5 1.5S9.33 8 8.5 8 7 7.33 7 6.5 7.67 5 8.5 5m6.33 12.34 5.51-5.51 1.83 1.83-5.51 5.51L18.5 21H13v-5.5l1.83 1.84Z" transform="matrix(1.5 0 0 1.5 432 36)" id="mdi-escalator-down" fill="#555"/><path d="M20 8h-1.05l-12 12H4a2 2 0 1 1 0-4h1.29L7 14.29V10c0-.55.45-1 1-1h1c.55 0 1 .45 1 1v1.29L17.29 4H20c1.11 0 2 .89 2 2 0 1.11-.89 2-2 2M8.5 5c.83 0 1.5.67 1.5 1.5S9.33 8 8.5 8 7 7.33 7 6.5 7.67 5 8.5 5m6.33 12.34 5.51-5.51 1.83 1.83-5.51 5.51L18.5 21H13v-5.5l1.83 1.84Z" transform="matrix(1.5 0 0 1.5 468 36)" id="mdi-escalator-down" fill="#fff"/><path d="M20 8h-1.05l-12 12H4a2 2 0 1 1 0-4h1.29L7 14.29V10c0-.55.45-1 1-1h1c.55 0 1 .45 1 1v1.29L17.29 4H20c1.11 0 2 .89 2 2 0 1.11-.89 2-2 2M8.5 5c.83 0 1.5.67 1.5 1.5S9.33 8 8.5 8 7 7.33 7 6.5 7.67 5 8.5 5m11.67 10.66-5.51 5.51-1.83-1.83 5.51-5.51L16.5 12H22v5.5l-1.83-1.84Z" transform="matrix(1.5 0 0 1.5 504 36)" id="mdi-escalator-up" fill="#555"/><path d="M20 8h-1.05l-12 12H4a2 2 0 1 1 0-4h1.29L7 14.29V10c0-.55.45-1 1-1h1c.55 0 1 .45 1 1v1.29L17.29 4H20c1.11 0 2 .89 2 2 0 1.11-.89 2-2 2M8.5 5c.83 0 1.5.67 1.5 1.5S9.33 8 8.5 8 7 7.33 7 6.5 7.67 5 8.5 5m11.67 10.66-5.51 5.51-1.83-1.83 5.51-5.51L16.5 12H22v5.5l-1.83-1.84Z" transform="matrix(1.5 0 0 1.5 540 36)" id="mdi-escalator-up" fill="#fff"/><path d="m7.95 9.55 3.89-2.25c.1-.05.22-.05.32 0l3.89 2.25c.1.06.16.16.16.27v4.5c0 .11-.06.21-.16.27l-3.89 2.25a.36.36 0 0 1-.32 0l-3.89-2.25a.315.315 0 0 1-.16-.27v-4.5c0-.11.06-.21.16-.27m14.17 2.05c.17.29.17.63 0 .93l-4.65 8.03c-.17.3-.47.44-.82.44h-9.3c-.35 0-.65-.15-.82-.44l-4.65-8.03a.949.949 0 0 1 0-.95L6.53 3.5c.17-.28.47-.5.82-.5h9.3c.35 0 .65.22.82.5l4.65 8.1m-3.85 3.9V8.65c0-.12-.07-.23-.18-.29l-5.93-3.41a.325.325 0 0 0-.33 0L5.91 8.36c-.11.06-.18.17-.18.29v6.85c0 .11.07.22.18.28l5.93 3.41c.1.06.23.06.33 0l5.92-3.41a.33.33 0 0 0 .18-.28Z" transform="matrix(1.5 0 0 1.5 576 36)" id="mdi-eslint" fill="#555"/><path d="m7.95 9.55 3.89-2.25c.1-.05.22-.05.32 0l3.89 2.25c.1.06.16.16.16.27v4.5c0 .11-.06.21-.16.27l-3.89 2.25a.36.36 0 0 1-.32 0l-3.89-2.25a.315.315 0 0 1-.16-.27v-4.5c0-.11.06-.21.16-.27m14.17 2.05c.17.29.17.63 0 .93l-4.65 8.03c-.17.3-.47.44-.82.44h-9.3c-.35 0-.65-.15-.82-.44l-4.65-8.03a.949.949 0 0 1 0-.95L6.53 3.5c.17-.28.47-.5.82-.5h9.3c.35 0 .65.22.82.5l4.65 8.1m-3.85 3.9V8.65c0-.12-.07-.23-.18-.29l-5.93-3.41a.325.325 0 0 0-.33 0L5.91 8.36c-.11.06-.18.17-.18.29v6.85c0 .11.07.22.18.28l5.93 3.41c.1.06.23.06.33 0l5.92-3.41a.33.33 0 0 0 .18-.28Z" transform="matrix(1.5 0 0 1.5 612 36)" id="mdi-eslint" fill="#fff"/><path d="m23 8.78-1.29-1.56c-.26.2-1.18.78-1.94.78-.51 0-1.47-.25-2.32-.47C16.39 7.26 15.39 7 14.6 7c-.6 0-1.17.15-1.67.35A3.973 3.973 0 0 0 9 4c-4.42 0-7 3.58-7 8s3.58 7 8 7c2.06 0 3.93-.57 5.34-1.61l-.34 3.9 2 .18 1-11.73c.66.15 1.27.26 1.77.26 1.61 0 3.07-1.09 3.23-1.22M9 6a2 2 0 0 1 2 2 2 2 0 0 1-2 2H4.23C4.8 7.67 6.39 6 9 6m1 11c-3.31 0-6-1.69-6-5h5c1.6 0 2.83-.83 3.5-2.09.26-.2 1.35-.91 2.1-.91.34 0 .9.11 1.45.25l-.4 4.64C14.82 15.95 12.6 17 10 17Z" transform="matrix(1.5 0 0 1.5 648 36)" id="mdi-et" fill="#555"/><path d="m23 8.78-1.29-1.56c-.26.2-1.18.78-1.94.78-.51 0-1.47-.25-2.32-.47C16.39 7.26 15.39 7 14.6 7c-.6 0-1.17.15-1.67.35A3.973 3.973 0 0 0 9 4c-4.42 0-7 3.58-7 8s3.58 7 8 7c2.06 0 3.93-.57 5.34-1.61l-.34 3.9 2 .18 1-11.73c.66.15 1.27.26 1.77.26 1.61 0 3.07-1.09 3.23-1.22M9 6a2 2 0 0 1 2 2 2 2 0 0 1-2 2H4.23C4.8 7.67 6.39 6 9 6m1 11c-3.31 0-6-1.69-6-5h5c1.6 0 2.83-.83 3.5-2.09.26-.2 1.35-.91 2.1-.91.34 0 .9.11 1.45.25l-.4 4.64C14.82 15.95 12.6 17 10 17Z" transform="matrix(1.5 0 0 1.5 684 36)" id="mdi-et" fill="#fff"/><path d="m12 1.75-6.25 10.5L12 16l6.25-3.75L12 1.75M5.75 13.5 12 22.25l6.25-8.75L12 17.25 5.75 13.5Z" transform="matrix(1.5 0 0 1.5 0 72)" id="mdi-ethereum" fill="#555"/><path d="m12 1.75-6.25 10.5L12 16l6.25-3.75L12 1.75M5.75 13.5 12 22.25l6.25-8.75L12 17.25 5.75 13.5Z" transform="matrix(1.5 0 0 1.5 36 72)" id="mdi-ethereum" fill="#fff"/><path d="M7 15h2v3h2v-3h2v3h2v-3h2v3h2V9h-4V6H9v3H5v9h2v-3M4.38 3h15.25A2.37 2.37 0 0 1 22 5.38v14.25A2.37 2.37 0 0 1 19.63 22H4.38A2.37 2.37 0 0 1 2 19.63V5.38C2 4.06 3.06 3 4.38 3Z" transform="matrix(1.5 0 0 1.5 72 72)" id="mdi-ethernet" fill="#555"/><path d="M7 15h2v3h2v-3h2v3h2v-3h2v3h2V9h-4V6H9v3H5v9h2v-3M4.38 3h15.25A2.37 2.37 0 0 1 22 5.38v14.25A2.37 2.37 0 0 1 19.63 22H4.38A2.37 2.37 0 0 1 2 19.63V5.38C2 4.06 3.06 3 4.38 3Z" transform="matrix(1.5 0 0 1.5 108 72)" id="mdi-ethernet" fill="#fff"/><path d="M11 3v4h2V3h-2M8 4v7h8V4h-2v4h-4V4H8m2 8v10h4V12h-4Z" transform="matrix(1.5 0 0 1.5 144 72)" id="mdi-ethernet-cable" fill="#555"/><path d="M11 3v4h2V3h-2M8 4v7h8V4h-2v4h-4V4H8m2 8v10h4V12h-4Z" transform="matrix(1.5 0 0 1.5 180 72)" id="mdi-ethernet-cable" fill="#fff"/><path d="M11 3h2v4h-2V3M8 4h2v4h4V4h2v7h-3.18L8 6.18V4m12 16.72L18.73 22 14 17.27V22h-4v-8.73l-8-8L3.28 4 20 20.72Z" transform="matrix(1.5 0 0 1.5 216 72)" id="mdi-ethernet-cable-off" fill="#555"/><path d="M11 3h2v4h-2V3M8 4h2v4h4V4h2v7h-3.18L8 6.18V4m12 16.72L18.73 22 14 17.27V22h-4v-8.73l-8-8L3.28 4 20 20.72Z" transform="matrix(1.5 0 0 1.5 252 72)" id="mdi-ethernet-cable-off" fill="#fff"/><path d="M7.5 20c0 .8-.7 1.5-1.5 1.5s-1.5-.7-1.5-1.5.7-1.5 1.5-1.5 1.5.7 1.5 1.5M18 18.5c-.8 0-1.5.7-1.5 1.5s.7 1.5 1.5 1.5 1.5-.7 1.5-1.5-.7-1.5-1.5-1.5m4 1.5c0 2.2-1.8 4-4 4H6c-2.2 0-4-1.8-4-4s1.8-4 4-4h.3C4.3 14.4 3 11.8 3 9c0-5 4-9 9-9s9 4 9 9c0 2.8-1.3 5.4-3.3 7h.3c2.2 0 4 1.8 4 4m-10-4c3.9 0 7-3.1 7-7s-3.1-7-7-7-7 3.1-7 7 3.1 7 7 7m8 4c0-1.1-.9-2-2-2H6c-1.1 0-2 .9-2 2s.9 2 2 2h12c1.1 0 2-.9 2-2M12.9 6.3c0-1 .8-1.8 1.8-1.8s1.8.8 1.8 1.8-.8 1.8-1.8 1.8-1.8-.8-1.8-1.8m-5.4 0c0-1 .8-1.8 1.8-1.8s1.8.8 1.8 1.8-.8 1.8-1.8 1.8-1.8-.8-1.8-1.8m1.8 3.9c0 .6-.5 1.1-1.1 1.1-.6 0-1.1-.5-1.1-1.1S7.5 9 8.1 9c.7 0 1.2.6 1.2 1.2m4.5 2.5c0 1-.8 1.8-1.8 1.8s-1.8-.8-1.8-1.8.8-1.8 1.8-1.8 1.8.8 1.8 1.8m3.2-2.5c0 .6-.5 1.1-1.1 1.1-.6 0-1.1-.5-1.1-1.1S15.2 9 15.9 9c.6 0 1.1.6 1.1 1.2" transform="matrix(1.5 0 0 1.5 288 72)" id="mdi-ev-plug-ccs1" fill="#555"/><path d="M7.5 20c0 .8-.7 1.5-1.5 1.5s-1.5-.7-1.5-1.5.7-1.5 1.5-1.5 1.5.7 1.5 1.5M18 18.5c-.8 0-1.5.7-1.5 1.5s.7 1.5 1.5 1.5 1.5-.7 1.5-1.5-.7-1.5-1.5-1.5m4 1.5c0 2.2-1.8 4-4 4H6c-2.2 0-4-1.8-4-4s1.8-4 4-4h.3C4.3 14.4 3 11.8 3 9c0-5 4-9 9-9s9 4 9 9c0 2.8-1.3 5.4-3.3 7h.3c2.2 0 4 1.8 4 4m-10-4c3.9 0 7-3.1 7-7s-3.1-7-7-7-7 3.1-7 7 3.1 7 7 7m8 4c0-1.1-.9-2-2-2H6c-1.1 0-2 .9-2 2s.9 2 2 2h12c1.1 0 2-.9 2-2M12.9 6.3c0-1 .8-1.8 1.8-1.8s1.8.8 1.8 1.8-.8 1.8-1.8 1.8-1.8-.8-1.8-1.8m-5.4 0c0-1 .8-1.8 1.8-1.8s1.8.8 1.8 1.8-.8 1.8-1.8 1.8-1.8-.8-1.8-1.8m1.8 3.9c0 .6-.5 1.1-1.1 1.1-.6 0-1.1-.5-1.1-1.1S7.5 9 8.1 9c.7 0 1.2.6 1.2 1.2m4.5 2.5c0 1-.8 1.8-1.8 1.8s-1.8-.8-1.8-1.8.8-1.8 1.8-1.8 1.8.8 1.8 1.8m3.2-2.5c0 .6-.5 1.1-1.1 1.1-.6 0-1.1-.5-1.1-1.1S15.2 9 15.9 9c.6 0 1.1.6 1.1 1.2" transform="matrix(1.5 0 0 1.5 324 72)" id="mdi-ev-plug-ccs1" fill="#fff"/><path d="M7.5 19c0 .8-.7 1.5-1.5 1.5s-1.5-.7-1.5-1.5.7-1.5 1.5-1.5 1.5.7 1.5 1.5M18 17.5c-.8 0-1.5.7-1.5 1.5s.7 1.5 1.5 1.5 1.5-.7 1.5-1.5-.7-1.5-1.5-1.5m0-2.5h-.3c2-1.6 3.3-4.2 3.3-7s-1.3-5.4-3.3-7H6.3C4.3 2.6 3 5.2 3 8s1.3 5.4 3.3 7H6c-2.2 0-4 1.8-4 4s1.8 4 4 4h12c2.2 0 4-1.8 4-4s-1.8-4-4-4M5 8c0-1.9.8-3.7 2.1-5h9.8C18.2 4.3 19 6.1 19 8c0 3.9-3.1 7-7 7s-7-3.1-7-7m13 13H6c-1.1 0-2-.9-2-2s.9-2 2-2h12c1.1 0 2 .9 2 2s-.9 2-2 2M12.9 5.3c0 .7.6 1.3 1.3 1.3.7 0 1.3-.6 1.3-1.3S14.9 4 14.1 4c-.7 0-1.2.6-1.2 1.3m-4.3 0c0 .7.6 1.3 1.3 1.3.7 0 1.3-.6 1.3-1.3S10.6 4 9.9 4c-.8 0-1.3.6-1.3 1.3M7.7 10c1 0 1.7-.8 1.7-1.7 0-.9-.8-1.7-1.7-1.7S6 7.3 6 8.3c0 .9.8 1.7 1.7 1.7m3.9 1.7c0-.9-.8-1.7-1.7-1.7-1 0-1.7.8-1.7 1.7 0 1 .8 1.7 1.7 1.7.9 0 1.7-.7 1.7-1.7M12 10c1 0 1.7-.8 1.7-1.7 0-.9-.8-1.7-1.7-1.7s-1.7.8-1.7 1.7c0 .9.8 1.7 1.7 1.7m3.9 1.7c0-.9-.8-1.7-1.7-1.7-1 0-1.7.8-1.7 1.7 0 1 .8 1.7 1.7 1.7.9 0 1.7-.7 1.7-1.7M18 8.3c0-.9-.8-1.7-1.7-1.7-1 0-1.7.8-1.7 1.7 0 1 .8 1.7 1.7 1.7.9 0 1.7-.8 1.7-1.7" transform="matrix(1.5 0 0 1.5 360 72)" id="mdi-ev-plug-ccs2" fill="#555"/><path d="M7.5 19c0 .8-.7 1.5-1.5 1.5s-1.5-.7-1.5-1.5.7-1.5 1.5-1.5 1.5.7 1.5 1.5M18 17.5c-.8 0-1.5.7-1.5 1.5s.7 1.5 1.5 1.5 1.5-.7 1.5-1.5-.7-1.5-1.5-1.5m0-2.5h-.3c2-1.6 3.3-4.2 3.3-7s-1.3-5.4-3.3-7H6.3C4.3 2.6 3 5.2 3 8s1.3 5.4 3.3 7H6c-2.2 0-4 1.8-4 4s1.8 4 4 4h12c2.2 0 4-1.8 4-4s-1.8-4-4-4M5 8c0-1.9.8-3.7 2.1-5h9.8C18.2 4.3 19 6.1 19 8c0 3.9-3.1 7-7 7s-7-3.1-7-7m13 13H6c-1.1 0-2-.9-2-2s.9-2 2-2h12c1.1 0 2 .9 2 2s-.9 2-2 2M12.9 5.3c0 .7.6 1.3 1.3 1.3.7 0 1.3-.6 1.3-1.3S14.9 4 14.1 4c-.7 0-1.2.6-1.2 1.3m-4.3 0c0 .7.6 1.3 1.3 1.3.7 0 1.3-.6 1.3-1.3S10.6 4 9.9 4c-.8 0-1.3.6-1.3 1.3M7.7 10c1 0 1.7-.8 1.7-1.7 0-.9-.8-1.7-1.7-1.7S6 7.3 6 8.3c0 .9.8 1.7 1.7 1.7m3.9 1.7c0-.9-.8-1.7-1.7-1.7-1 0-1.7.8-1.7 1.7 0 1 .8 1.7 1.7 1.7.9 0 1.7-.7 1.7-1.7M12 10c1 0 1.7-.8 1.7-1.7 0-.9-.8-1.7-1.7-1.7s-1.7.8-1.7 1.7c0 .9.8 1.7 1.7 1.7m3.9 1.7c0-.9-.8-1.7-1.7-1.7-1 0-1.7.8-1.7 1.7 0 1 .8 1.7 1.7 1.7.9 0 1.7-.7 1.7-1.7M18 8.3c0-.9-.8-1.7-1.7-1.7-1 0-1.7.8-1.7 1.7 0 1 .8 1.7 1.7 1.7.9 0 1.7-.8 1.7-1.7" transform="matrix(1.5 0 0 1.5 396 72)" id="mdi-ev-plug-ccs2" fill="#fff"/><path d="M7.5 9.5C6.1 9.5 5 10.6 5 12s1.1 2.5 2.5 2.5S10 13.4 10 12 8.9 9.5 7.5 9.5m9 0c-1.4 0-2.5 1.1-2.5 2.5s1.1 2.5 2.5 2.5S19 13.4 19 12s-1.1-2.5-2.5-2.5M12 4c4.4 0 8 3.6 8 8s-3.6 8-8 8-8-3.6-8-8 3.6-8 8-8m0-2C6.5 2 2 6.5 2 12s4.5 10 10 10 10-4.5 10-10S17.5 2 12 2m0 3c-1.4 0-2.5 1.1-2.5 2.5S10.6 10 12 10s2.5-1.1 2.5-2.5S13.4 5 12 5m1.5 2.5c0 .2-.1.4-.2.6l-.6-.6.6-.6c.1.2.2.4.2.6m-.9-1.3-.6.6-.6-.6c.2-.1.4-.2.6-.2s.4.1.6.2m-1.9 1.9c-.1-.2-.2-.4-.2-.6s.1-.4.2-.6l.6.6-.6.6m.7.7.6-.6.6.6c-.2.1-.4.2-.6.2s-.4-.1-.6-.2M12 14c-1.4 0-2.5 1.1-2.5 2.5S10.6 19 12 19s2.5-1.1 2.5-2.5S13.4 14 12 14m1.5 2.5c0 .2-.1.4-.2.6l-.6-.6.6-.6c.1.2.2.4.2.6m-.9-1.3-.6.6-.6-.6c.2-.1.4-.2.6-.2s.4.1.6.2m-1.9 1.9c-.1-.2-.2-.4-.2-.6s.1-.4.2-.6l.6.6-.6.6m.7.7.6-.6.6.6c-.2.1-.4.2-.6.2s-.4-.1-.6-.2Z" transform="matrix(1.5 0 0 1.5 432 72)" id="mdi-ev-plug-chademo" fill="#555"/><path d="M7.5 9.5C6.1 9.5 5 10.6 5 12s1.1 2.5 2.5 2.5S10 13.4 10 12 8.9 9.5 7.5 9.5m9 0c-1.4 0-2.5 1.1-2.5 2.5s1.1 2.5 2.5 2.5S19 13.4 19 12s-1.1-2.5-2.5-2.5M12 4c4.4 0 8 3.6 8 8s-3.6 8-8 8-8-3.6-8-8 3.6-8 8-8m0-2C6.5 2 2 6.5 2 12s4.5 10 10 10 10-4.5 10-10S17.5 2 12 2m0 3c-1.4 0-2.5 1.1-2.5 2.5S10.6 10 12 10s2.5-1.1 2.5-2.5S13.4 5 12 5m1.5 2.5c0 .2-.1.4-.2.6l-.6-.6.6-.6c.1.2.2.4.2.6m-.9-1.3-.6.6-.6-.6c.2-.1.4-.2.6-.2s.4.1.6.2m-1.9 1.9c-.1-.2-.2-.4-.2-.6s.1-.4.2-.6l.6.6-.6.6m.7.7.6-.6.6.6c-.2.1-.4.2-.6.2s-.4-.1-.6-.2M12 14c-1.4 0-2.5 1.1-2.5 2.5S10.6 19 12 19s2.5-1.1 2.5-2.5S13.4 14 12 14m1.5 2.5c0 .2-.1.4-.2.6l-.6-.6.6-.6c.1.2.2.4.2.6m-.9-1.3-.6.6-.6-.6c.2-.1.4-.2.6-.2s.4.1.6.2m-1.9 1.9c-.1-.2-.2-.4-.2-.6s.1-.4.2-.6l.6.6-.6.6m.7.7.6-.6.6.6c-.2.1-.4.2-.6.2s-.4-.1-.6-.2Z" transform="matrix(1.5 0 0 1.5 468 72)" id="mdi-ev-plug-chademo" fill="#fff"/><path d="M6 9c0-.55.45-1 1-1s1 .45 1 1-.45 1-1 1-1-.45-1-1m11 1c.55 0 1-.45 1-1s-.45-1-1-1-1 .45-1 1 .45 1 1 1m5-.07V11a9 9 0 0 1-9 9h-2c-4.97 0-9-4-9-9V9.93C2 6.65 4.65 4 7.93 4h8.14C19.35 4 22 6.65 22 9.93M14.5 9a2.5 2.5 0 0 0 5 0 2.5 2.5 0 0 0-5 0m-10 0a2.5 2.5 0 0 0 5 0 2.5 2.5 0 0 0-5 0M9 17c0-.55-.45-1-1-1s-1 .45-1 1 .45 1 1 1 1-.45 1-1m4.5 0c0-.83-.67-1.5-1.5-1.5s-1.5.67-1.5 1.5.67 1.5 1.5 1.5 1.5-.67 1.5-1.5m3.5 0c0-.55-.45-1-1-1s-1 .45-1 1 .45 1 1 1 1-.45 1-1m2.97-5.34C19.23 12.5 18.18 13 17 13c-2.21 0-4-1.79-4-4 0-1.2.54-2.27 1.38-3H9.62c.84.73 1.38 1.8 1.38 3 0 2.21-1.79 4-4 4a3.9 3.9 0 0 1-2.97-1.34c.16 1.66.9 3.16 2.01 4.28C7.71 14.73 9.76 14 12 14c2.24 0 4.29.73 5.96 1.94a7.044 7.044 0 0 0 2.01-4.28Z" transform="matrix(1.5 0 0 1.5 504 72)" id="mdi-ev-plug-tesla" fill="#555"/><path d="M6 9c0-.55.45-1 1-1s1 .45 1 1-.45 1-1 1-1-.45-1-1m11 1c.55 0 1-.45 1-1s-.45-1-1-1-1 .45-1 1 .45 1 1 1m5-.07V11a9 9 0 0 1-9 9h-2c-4.97 0-9-4-9-9V9.93C2 6.65 4.65 4 7.93 4h8.14C19.35 4 22 6.65 22 9.93M14.5 9a2.5 2.5 0 0 0 5 0 2.5 2.5 0 0 0-5 0m-10 0a2.5 2.5 0 0 0 5 0 2.5 2.5 0 0 0-5 0M9 17c0-.55-.45-1-1-1s-1 .45-1 1 .45 1 1 1 1-.45 1-1m4.5 0c0-.83-.67-1.5-1.5-1.5s-1.5.67-1.5 1.5.67 1.5 1.5 1.5 1.5-.67 1.5-1.5m3.5 0c0-.55-.45-1-1-1s-1 .45-1 1 .45 1 1 1 1-.45 1-1m2.97-5.34C19.23 12.5 18.18 13 17 13c-2.21 0-4-1.79-4-4 0-1.2.54-2.27 1.38-3H9.62c.84.73 1.38 1.8 1.38 3 0 2.21-1.79 4-4 4a3.9 3.9 0 0 1-2.97-1.34c.16 1.66.9 3.16 2.01 4.28C7.71 14.73 9.76 14 12 14c2.24 0 4.29.73 5.96 1.94a7.044 7.044 0 0 0 2.01-4.28Z" transform="matrix(1.5 0 0 1.5 540 72)" id="mdi-ev-plug-tesla" fill="#fff"/><path d="M13 9c0 1.1.9 2 2 2s2-.9 2-2-.9-2-2-2-2 .9-2 2M7 9c0 1.1.9 2 2 2s2-.9 2-2-.9-2-2-2-2 .9-2 2m2 4.2c0-.6-.6-1.2-1.2-1.2s-1.2.6-1.2 1.2.6 1.2 1.2 1.2S9 13.9 9 13.2m5 2.8c0-1.1-.9-2-2-2s-2 .9-2 2 .9 2 2 2 2-.9 2-2M12 4c4.4 0 8 3.6 8 8s-3.6 8-8 8-8-3.6-8-8 3.6-8 8-8m0-2C6.5 2 2 6.5 2 12s4.5 10 10 10 10-4.5 10-10S17.5 2 12 2m5.5 11.2c0-.7-.6-1.2-1.2-1.2-.7 0-1.2.6-1.2 1.2s.6 1.2 1.2 1.2c.6.1 1.2-.5 1.2-1.2" transform="matrix(1.5 0 0 1.5 576 72)" id="mdi-ev-plug-type1" fill="#555"/><path d="M13 9c0 1.1.9 2 2 2s2-.9 2-2-.9-2-2-2-2 .9-2 2M7 9c0 1.1.9 2 2 2s2-.9 2-2-.9-2-2-2-2 .9-2 2m2 4.2c0-.6-.6-1.2-1.2-1.2s-1.2.6-1.2 1.2.6 1.2 1.2 1.2S9 13.9 9 13.2m5 2.8c0-1.1-.9-2-2-2s-2 .9-2 2 .9 2 2 2 2-.9 2-2M12 4c4.4 0 8 3.6 8 8s-3.6 8-8 8-8-3.6-8-8 3.6-8 8-8m0-2C6.5 2 2 6.5 2 12s4.5 10 10 10 10-4.5 10-10S17.5 2 12 2m5.5 11.2c0-.7-.6-1.2-1.2-1.2-.7 0-1.2.6-1.2 1.2s.6 1.2 1.2 1.2c.6.1 1.2-.5 1.2-1.2" transform="matrix(1.5 0 0 1.5 612 72)" id="mdi-ev-plug-type1" fill="#fff"/><path d="M17.3 5C19 6.5 20 8.6 20 11c0 4.4-3.6 8-8 8s-8-3.6-8-8c0-2.4 1.1-4.5 2.7-6h10.6m.7-2H6l-.6.5C3.2 5.4 2 8.1 2 11c0 5.5 4.5 10 10 10s10-4.5 10-10c0-2.9-1.2-5.6-3.4-7.5L18 3m-5 4.5c0 .8.7 1.5 1.5 1.5S16 8.3 16 7.5 15.3 6 14.5 6 13 6.7 13 7.5m-5 0C8 8.3 8.7 9 9.5 9S11 8.3 11 7.5 10.3 6 9.5 6 8 6.7 8 7.5M7 13c1.1 0 2-.9 2-2s-.9-2-2-2-2 .9-2 2 .9 2 2 2m4.5 2c0-1.1-.9-2-2-2s-2 .9-2 2 .9 2 2 2 2-.9 2-2m.5-2c1.1 0 2-.9 2-2s-.9-2-2-2-2 .9-2 2 .9 2 2 2m4.5 2c0-1.1-.9-2-2-2s-2 .9-2 2 .9 2 2 2 2-.9 2-2m2.5-4c0-1.1-.9-2-2-2s-2 .9-2 2 .9 2 2 2 2-.9 2-2" transform="matrix(1.5 0 0 1.5 648 72)" id="mdi-ev-plug-type2" fill="#555"/><path d="M17.3 5C19 6.5 20 8.6 20 11c0 4.4-3.6 8-8 8s-8-3.6-8-8c0-2.4 1.1-4.5 2.7-6h10.6m.7-2H6l-.6.5C3.2 5.4 2 8.1 2 11c0 5.5 4.5 10 10 10s10-4.5 10-10c0-2.9-1.2-5.6-3.4-7.5L18 3m-5 4.5c0 .8.7 1.5 1.5 1.5S16 8.3 16 7.5 15.3 6 14.5 6 13 6.7 13 7.5m-5 0C8 8.3 8.7 9 9.5 9S11 8.3 11 7.5 10.3 6 9.5 6 8 6.7 8 7.5M7 13c1.1 0 2-.9 2-2s-.9-2-2-2-2 .9-2 2 .9 2 2 2m4.5 2c0-1.1-.9-2-2-2s-2 .9-2 2 .9 2 2 2 2-.9 2-2m.5-2c1.1 0 2-.9 2-2s-.9-2-2-2-2 .9-2 2 .9 2 2 2m4.5 2c0-1.1-.9-2-2-2s-2 .9-2 2 .9 2 2 2 2-.9 2-2m2.5-4c0-1.1-.9-2-2-2s-2 .9-2 2 .9 2 2 2 2-.9 2-2" transform="matrix(1.5 0 0 1.5 684 72)" id="mdi-ev-plug-type2" fill="#fff"/><path d="m19.77 7.23.01-.01-3.72-3.72L15 4.56l2.11 2.11c-.94.36-1.61 1.26-1.61 2.33a2.5 2.5 0 0 0 2.5 2.5c.36 0 .69-.08 1-.21v7.21a1 1 0 0 1-1 1 1 1 0 0 1-1-1V14a2 2 0 0 0-2-2h-1V5a2 2 0 0 0-2-2H6a2 2 0 0 0-2 2v16h10v-7.5h1.5v5A2.5 2.5 0 0 0 18 21a2.5 2.5 0 0 0 2.5-2.5V9c0-.69-.28-1.32-.73-1.77M18 10a1 1 0 0 1-1-1 1 1 0 0 1 1-1 1 1 0 0 1 1 1 1 1 0 0 1-1 1M8 18v-4.5H6L10 6v5h2l-4 7Z" transform="matrix(1.5 0 0 1.5 0 108)" id="mdi-ev-station" fill="#555"/><path d="m19.77 7.23.01-.01-3.72-3.72L15 4.56l2.11 2.11c-.94.36-1.61 1.26-1.61 2.33a2.5 2.5 0 0 0 2.5 2.5c.36 0 .69-.08 1-.21v7.21a1 1 0 0 1-1 1 1 1 0 0 1-1-1V14a2 2 0 0 0-2-2h-1V5a2 2 0 0 0-2-2H6a2 2 0 0 0-2 2v16h10v-7.5h1.5v5A2.5 2.5 0 0 0 18 21a2.5 2.5 0 0 0 2.5-2.5V9c0-.69-.28-1.32-.73-1.77M18 10a1 1 0 0 1-1-1 1 1 0 0 1 1-1 1 1 0 0 1 1 1 1 1 0 0 1-1 1M8 18v-4.5H6L10 6v5h2l-4 7Z" transform="matrix(1.5 0 0 1.5 36 108)" id="mdi-ev-station" fill="#fff"/><path d="M15.09 11.63s.19-1.28.91-1.28c.76 0 1.78 1.71 1.78 1.71s-2.32-.43-2.69-.43M19 4.69c-.36-.6-2.17-1.28-3.11-1.28H13.5S12.7 2 10.88 2c-1.83 0-1.71.81-1.71 1.5v2.82l-.83.87H4.5s-1.06.72-1.06 2.25c0 1.56.48 6.91 3.69 7.41 3.8.58 4.45-1.18 4.45-1.39 0-.9.02-2.25.02-2.25s1.11 2.12 2.79 2.12 2.65.97 2.65 1.96v1.84S17 20.28 16 20.28h-2.11s-.69-.54-.69-1.28c0-.75.33-.95.73-.95.39 0 .72.04.72.04v-1.56s-3.18-.03-3.18 2.41c0 2.43 1.66 3.06 2.99 3.06h2.17s3.93-.5 3.93-8.25S19.33 5.28 19 4.69M7.5 6.31H4.26l4.06-4.09V5.5l-.82.81Z" transform="matrix(1.5 0 0 1.5 72 108)" id="mdi-evernote" fill="#555"/><path d="M15.09 11.63s.19-1.28.91-1.28c.76 0 1.78 1.71 1.78 1.71s-2.32-.43-2.69-.43M19 4.69c-.36-.6-2.17-1.28-3.11-1.28H13.5S12.7 2 10.88 2c-1.83 0-1.71.81-1.71 1.5v2.82l-.83.87H4.5s-1.06.72-1.06 2.25c0 1.56.48 6.91 3.69 7.41 3.8.58 4.45-1.18 4.45-1.39 0-.9.02-2.25.02-2.25s1.11 2.12 2.79 2.12 2.65.97 2.65 1.96v1.84S17 20.28 16 20.28h-2.11s-.69-.54-.69-1.28c0-.75.33-.95.73-.95.39 0 .72.04.72.04v-1.56s-3.18-.03-3.18 2.41c0 2.43 1.66 3.06 2.99 3.06h2.17s3.93-.5 3.93-8.25S19.33 5.28 19 4.69M7.5 6.31H4.26l4.06-4.09V5.5l-.82.81Z" transform="matrix(1.5 0 0 1.5 108 108)" id="mdi-evernote" fill="#fff"/><path d="M18.5 18.5c.54 0 1 .46 1 1s-.46 1-1 1h-12c-.54 0-1-.46-1-1s.46-1 1-1h12m0-1.5h-12C5.13 17 4 18.13 4 19.5S5.13 22 6.5 22h12a2.5 2.5 0 0 0 0-5m2.5-6h-3V7h-5l-3 4v5h12l-1-5m-9.46 0 1.96-2.5H16V11h-4.46M9.76 3.41 4.76 2 2 11.83c-.34 1.28.41 2.61 1.7 2.97l1.16.32 3.29-2.83-3.88-1.08 1.88-6.75 2.79.78c.56.29 1.77 1.1 2.53 2.13L12.5 6h.44c-1.26-1.59-3.09-2.54-3.18-2.59Z" transform="matrix(1.5 0 0 1.5 144 108)" id="mdi-excavator" fill="#555"/><path d="M18.5 18.5c.54 0 1 .46 1 1s-.46 1-1 1h-12c-.54 0-1-.46-1-1s.46-1 1-1h12m0-1.5h-12C5.13 17 4 18.13 4 19.5S5.13 22 6.5 22h12a2.5 2.5 0 0 0 0-5m2.5-6h-3V7h-5l-3 4v5h12l-1-5m-9.46 0 1.96-2.5H16V11h-4.46M9.76 3.41 4.76 2 2 11.83c-.34 1.28.41 2.61 1.7 2.97l1.16.32 3.29-2.83-3.88-1.08 1.88-6.75 2.79.78c.56.29 1.77 1.1 2.53 2.13L12.5 6h.44c-1.26-1.59-3.09-2.54-3.18-2.59Z" transform="matrix(1.5 0 0 1.5 180 108)" id="mdi-excavator" fill="#fff"/><path d="M11 4h2v11h-2V4Zm2 14v2h-2v-2h2Z" transform="matrix(1.5 0 0 1.5 216 108)" id="mdi-exclamation" fill="#555"/><path d="M11 4h2v11h-2V4Zm2 14v2h-2v-2h2Z" transform="matrix(1.5 0 0 1.5 252 108)" id="mdi-exclamation" fill="#fff"/><path d="M10 3h4v11h-4V3m0 18v-4h4v4h-4Z" transform="matrix(1.5 0 0 1.5 288 108)" id="mdi-exclamation-thick" fill="#555"/><path d="M10 3h4v11h-4V3m0 18v-4h4v4h-4Z" transform="matrix(1.5 0 0 1.5 324 108)" id="mdi-exclamation-thick" fill="#fff"/><path d="M13.34 8.17c-.93 0-1.69-.77-1.69-1.7a1.69 1.69 0 0 1 1.69-1.69c.94 0 1.7.76 1.7 1.69 0 .93-.76 1.7-1.7 1.7M10.3 19.93l-5.93-1.18.34-1.7 4.15.85 1.35-6.86-1.52.6v2.86H7v-3.96l4.4-1.87.67-.08c.6 0 1.1.34 1.43.85l.86 1.35c.68 1.21 2.03 2.03 3.64 2.03v1.68c-1.86 0-3.56-.83-4.66-2.1l-.5 2.54 1.77 1.69V23h-1.69v-5.1l-1.78-1.69-.84 3.72M21 23h-2V3H6v13.11l-2-.42V1h17v22M6 23H4v-3.22l2 .42V23Z" transform="matrix(1.5 0 0 1.5 360 108)" id="mdi-exit-run" fill="#555"/><path d="M13.34 8.17c-.93 0-1.69-.77-1.69-1.7a1.69 1.69 0 0 1 1.69-1.69c.94 0 1.7.76 1.7 1.69 0 .93-.76 1.7-1.7 1.7M10.3 19.93l-5.93-1.18.34-1.7 4.15.85 1.35-6.86-1.52.6v2.86H7v-3.96l4.4-1.87.67-.08c.6 0 1.1.34 1.43.85l.86 1.35c.68 1.21 2.03 2.03 3.64 2.03v1.68c-1.86 0-3.56-.83-4.66-2.1l-.5 2.54 1.77 1.69V23h-1.69v-5.1l-1.78-1.69-.84 3.72M21 23h-2V3H6v13.11l-2-.42V1h17v22M6 23H4v-3.22l2 .42V23Z" transform="matrix(1.5 0 0 1.5 396 108)" id="mdi-exit-run" fill="#fff"/><path d="M19 3H5c-1.11 0-2 .89-2 2v4h2V5h14v14H5v-4H3v4a2 2 0 0 0 2 2h14a2 2 0 0 0 2-2V5a2 2 0 0 0-2-2m-8.92 12.58L11.5 17l5-5-5-5-1.42 1.41L12.67 11H3v2h9.67l-2.59 2.58Z" transform="matrix(1.5 0 0 1.5 432 108)" id="mdi-exit-to-app" fill="#555"/><path d="M19 3H5c-1.11 0-2 .89-2 2v4h2V5h14v14H5v-4H3v4a2 2 0 0 0 2 2h14a2 2 0 0 0 2-2V5a2 2 0 0 0-2-2m-8.92 12.58L11.5 17l5-5-5-5-1.42 1.41L12.67 11H3v2h9.67l-2.59 2.58Z" transform="matrix(1.5 0 0 1.5 468 108)" id="mdi-exit-to-app" fill="#fff"/><path d="M18 8H8v10H6V8a2 2 0 0 1 2-2h10v2m-4-6H4a2 2 0 0 0-2 2v10h2V4h10V2m8 10v8a2 2 0 0 1-2 2h-8a2 2 0 0 1-2-2v-8a2 2 0 0 1 2-2h8a2 2 0 0 1 2 2m-2 3h-3v-3h-2v3h-3v2h3v3h2v-3h3v-2Z" transform="matrix(1.5 0 0 1.5 504 108)" id="mdi-expand-all" fill="#555"/><path d="M18 8H8v10H6V8a2 2 0 0 1 2-2h10v2m-4-6H4a2 2 0 0 0-2 2v10h2V4h10V2m8 10v8a2 2 0 0 1-2 2h-8a2 2 0 0 1-2-2v-8a2 2 0 0 1 2-2h8a2 2 0 0 1 2 2m-2 3h-3v-3h-2v3h-3v2h3v3h2v-3h3v-2Z" transform="matrix(1.5 0 0 1.5 540 108)" id="mdi-expand-all" fill="#fff"/><path d="M4 2a2 2 0 0 0-2 2v10h2V4h10V2H4m4 4a2 2 0 0 0-2 2v10h2V8h10V6H8m12 6v8h-8v-8h8m0-2h-8a2 2 0 0 0-2 2v8a2 2 0 0 0 2 2h8a2 2 0 0 0 2-2v-8a2 2 0 0 0-2-2m-1 7h-2v2h-2v-2h-2v-2h2v-2h2v2h2v2Z" transform="matrix(1.5 0 0 1.5 576 108)" id="mdi-expand-all-outline" fill="#555"/><path d="M4 2a2 2 0 0 0-2 2v10h2V4h10V2H4m4 4a2 2 0 0 0-2 2v10h2V8h10V6H8m12 6v8h-8v-8h8m0-2h-8a2 2 0 0 0-2 2v8a2 2 0 0 0 2 2h8a2 2 0 0 0 2-2v-8a2 2 0 0 0-2-2m-1 7h-2v2h-2v-2h-2v-2h2v-2h2v2h2v2Z" transform="matrix(1.5 0 0 1.5 612 108)" id="mdi-expand-all-outline" fill="#fff"/><path d="M2 7v1.5h1V17h1.5V7H2m4 0v9h1v1h7v-1h8V7H6m11.5 2a2.5 2.5 0 0 1 2.5 2.5 2.5 2.5 0 0 1-2.5 2.5 2.5 2.5 0 0 1-2.5-2.5A2.5 2.5 0 0 1 17.5 9Z" transform="matrix(1.5 0 0 1.5 648 108)" id="mdi-expansion-card" fill="#555"/><path d="M2 7v1.5h1V17h1.5V7H2m4 0v9h1v1h7v-1h8V7H6m11.5 2a2.5 2.5 0 0 1 2.5 2.5 2.5 2.5 0 0 1-2.5 2.5 2.5 2.5 0 0 1-2.5-2.5A2.5 2.5 0 0 1 17.5 9Z" transform="matrix(1.5 0 0 1.5 684 108)" id="mdi-expansion-card" fill="#fff"/><path d="M2 7h2.5v10H3V8.5H2M22 7v9h-8v1H7v-1H6V7m4 2H8v3h2m3-3h-2v3h2m7-3h-5v5h5V9Z" transform="matrix(1.5 0 0 1.5 0 144)" id="mdi-expansion-card-variant" fill="#555"/><path d="M2 7h2.5v10H3V8.5H2M22 7v9h-8v1H7v-1H6V7m4 2H8v3h2m3-3h-2v3h2m7-3h-5v5h5V9Z" transform="matrix(1.5 0 0 1.5 36 144)" id="mdi-expansion-card-variant" fill="#fff"/><path d="m15.38 3 2.39 5.75c-.22.93-.5 1.57-.77 1.95-.33.48-.56.55-.81.55v1.5c.75 0 1.55-.4 2.05-1.19C19.87 8.94 22 3 22 3h-1.62l-1.69 4.05L17 3h-1.62M3.42 8.59 2 10l4.79 4.79L2 19.59 3.41 21l4.8-4.79L13 21l1.41-1.41-4.79-4.8L14.41 10 13 8.59l-4.79 4.79-4.8-4.79h.01Z" transform="matrix(1.5 0 0 1.5 72 144)" id="mdi-exponent" fill="#555"/><path d="m15.38 3 2.39 5.75c-.22.93-.5 1.57-.77 1.95-.33.48-.56.55-.81.55v1.5c.75 0 1.55-.4 2.05-1.19C19.87 8.94 22 3 22 3h-1.62l-1.69 4.05L17 3h-1.62M3.42 8.59 2 10l4.79 4.79L2 19.59 3.41 21l4.8-4.79L13 21l1.41-1.41-4.79-4.8L14.41 10 13 8.59l-4.79 4.79-4.8-4.79h.01Z" transform="matrix(1.5 0 0 1.5 108 144)" id="mdi-exponent" fill="#fff"/><path d="M5 3c-1.11 0-2 .89-2 2v14a2 2 0 0 0 2 2h14a2 2 0 0 0 2-2V5a2 2 0 0 0-2-2H5m8.76 3h1.63l1.11 2.6L17.59 6h1.65s-1.74 4.57-2.78 6.32c-.38.57-1.11.95-1.96.93v-1.5c.46.01.75-.25 1-.62.11-.13.18-.33.24-.49L13.76 6M6.41 9.59l2.8 2.79L12 9.59 13.41 11l-2.79 2.79 2.79 2.8L12 18l-2.79-2.79L6.41 18 5 16.59l2.79-2.8L5 11l1.41-1.41Z" transform="matrix(1.5 0 0 1.5 144 144)" id="mdi-exponent-box" fill="#555"/><path d="M5 3c-1.11 0-2 .89-2 2v14a2 2 0 0 0 2 2h14a2 2 0 0 0 2-2V5a2 2 0 0 0-2-2H5m8.76 3h1.63l1.11 2.6L17.59 6h1.65s-1.74 4.57-2.78 6.32c-.38.57-1.11.95-1.96.93v-1.5c.46.01.75-.25 1-.62.11-.13.18-.33.24-.49L13.76 6M6.41 9.59l2.8 2.79L12 9.59 13.41 11l-2.79 2.79 2.79 2.8L12 18l-2.79-2.79L6.41 18 5 16.59l2.79-2.8L5 11l1.41-1.41Z" transform="matrix(1.5 0 0 1.5 180 144)" id="mdi-exponent-box" fill="#fff"/><path d="m23 12-4-4v3h-9v2h9v3M1 18V6a2 2 0 0 1 2-2h12a2 2 0 0 1 2 2v3h-2V6H3v12h12v-3h2v3a2 2 0 0 1-2 2H3a2 2 0 0 1-2-2Z" transform="matrix(1.5 0 0 1.5 216 144)" id="mdi-export" fill="#555"/><path d="m23 12-4-4v3h-9v2h9v3M1 18V6a2 2 0 0 1 2-2h12a2 2 0 0 1 2 2v3h-2V6H3v12h12v-3h2v3a2 2 0 0 1-2 2H3a2 2 0 0 1-2-2Z" transform="matrix(1.5 0 0 1.5 252 144)" id="mdi-export" fill="#fff"/><path d="M12 1 8 5h3v9h2V5h3m2 18H6a2 2 0 0 1-2-2V9a2 2 0 0 1 2-2h3v2H6v12h12V9h-3V7h3a2 2 0 0 1 2 2v12a2 2 0 0 1-2 2Z" transform="matrix(1.5 0 0 1.5 288 144)" id="mdi-export-variant" fill="#555"/><path d="M12 1 8 5h3v9h2V5h3m2 18H6a2 2 0 0 1-2-2V9a2 2 0 0 1 2-2h3v2H6v12h12V9h-3V7h3a2 2 0 0 1 2 2v12a2 2 0 0 1-2 2Z" transform="matrix(1.5 0 0 1.5 324 144)" id="mdi-export-variant" fill="#fff"/><path d="M12 9a3 3 0 0 0-3 3 3 3 0 0 0 3 3 3 3 0 0 0 3-3 3 3 0 0 0-3-3m0 8a5 5 0 0 1-5-5 5 5 0 0 1 5-5 5 5 0 0 1 5 5 5 5 0 0 1-5 5m0-12.5C7 4.5 2.73 7.61 1 12c1.73 4.39 6 7.5 11 7.5s9.27-3.11 11-7.5c-1.73-4.39-6-7.5-11-7.5Z" transform="matrix(1.5 0 0 1.5 360 144)" id="mdi-eye" fill="#555"/><path d="M12 9a3 3 0 0 0-3 3 3 3 0 0 0 3 3 3 3 0 0 0 3-3 3 3 0 0 0-3-3m0 8a5 5 0 0 1-5-5 5 5 0 0 1 5-5 5 5 0 0 1 5 5 5 5 0 0 1-5 5m0-12.5C7 4.5 2.73 7.61 1 12c1.73 4.39 6 7.5 11 7.5s9.27-3.11 11-7.5c-1.73-4.39-6-7.5-11-7.5Z" transform="matrix(1.5 0 0 1.5 396 144)" id="mdi-eye" fill="#fff"/><path d="M12 4.5C7 4.5 2.73 7.61 1 12c1.73 4.39 6 7.5 11 7.5.36 0 .72 0 1.08-.05a6.09 6.09 0 0 1-.08-.95c0-.56.08-1.12.24-1.66-.41.1-.82.16-1.24.16-2.76 0-5-2.24-5-5s2.24-5 5-5 5 2.24 5 5c0 .29-.03.59-.08.88.66-.25 1.37-.38 2.08-.38 1.17 0 2.31.34 3.29 1 .27-.5.51-1 .71-1.5-1.73-4.39-6-7.5-11-7.5M12 9c-1.66 0-3 1.34-3 3s1.34 3 3 3 3-1.34 3-3-1.34-3-3-3m6 6v2h4v2h-4v2l-3-3 3-3" transform="matrix(1.5 0 0 1.5 432 144)" id="mdi-eye-arrow-left" fill="#555"/><path d="M12 4.5C7 4.5 2.73 7.61 1 12c1.73 4.39 6 7.5 11 7.5.36 0 .72 0 1.08-.05a6.09 6.09 0 0 1-.08-.95c0-.56.08-1.12.24-1.66-.41.1-.82.16-1.24.16-2.76 0-5-2.24-5-5s2.24-5 5-5 5 2.24 5 5c0 .29-.03.59-.08.88.66-.25 1.37-.38 2.08-.38 1.17 0 2.31.34 3.29 1 .27-.5.51-1 .71-1.5-1.73-4.39-6-7.5-11-7.5M12 9c-1.66 0-3 1.34-3 3s1.34 3 3 3 3-1.34 3-3-1.34-3-3-3m6 6v2h4v2h-4v2l-3-3 3-3" transform="matrix(1.5 0 0 1.5 468 144)" id="mdi-eye-arrow-left" fill="#fff"/><path d="M12 4.5C7 4.5 2.73 7.61 1 12c1.73 4.39 6 7.5 11 7.5.36 0 .72 0 1.08-.05a6.09 6.09 0 0 1-.08-.95c0-.36.04-.72.1-1.08-.36.04-.73.08-1.1.08-3.76 0-7.17-2.14-8.82-5.5a9.821 9.821 0 0 1 17.64 0c-.12.24-.26.45-.39.68.66.16 1.29.43 1.86.82.27-.5.51-1 .71-1.5-1.73-4.39-6-7.5-11-7.5M12 9c-1.66 0-3 1.34-3 3s1.34 3 3 3 3-1.34 3-3-1.34-3-3-3m6 6v2h4v2h-4v2l-3-3 3-3" transform="matrix(1.5 0 0 1.5 504 144)" id="mdi-eye-arrow-left-outline" fill="#555"/><path d="M12 4.5C7 4.5 2.73 7.61 1 12c1.73 4.39 6 7.5 11 7.5.36 0 .72 0 1.08-.05a6.09 6.09 0 0 1-.08-.95c0-.36.04-.72.1-1.08-.36.04-.73.08-1.1.08-3.76 0-7.17-2.14-8.82-5.5a9.821 9.821 0 0 1 17.64 0c-.12.24-.26.45-.39.68.66.16 1.29.43 1.86.82.27-.5.51-1 .71-1.5-1.73-4.39-6-7.5-11-7.5M12 9c-1.66 0-3 1.34-3 3s1.34 3 3 3 3-1.34 3-3-1.34-3-3-3m6 6v2h4v2h-4v2l-3-3 3-3" transform="matrix(1.5 0 0 1.5 540 144)" id="mdi-eye-arrow-left-outline" fill="#fff"/><path d="M12 4.5C7 4.5 2.7 7.6 1 12c1.7 4.4 6 7.5 11 7.5h1.1c-.1-.3-.1-.6-.1-1 0-.6.1-1.1.2-1.7-.4.1-.8.2-1.2.2-2.8 0-5-2.2-5-5s2.2-5 5-5 5 2.2 5 5c0 .3 0 .6-.1.9.7-.2 1.4-.4 2.1-.4 1.2 0 2.3.3 3.3 1 .3-.5.5-1 .7-1.5-1.7-4.4-6-7.5-11-7.5M12 9c-1.7 0-3 1.3-3 3s1.3 3 3 3 3-1.3 3-3-1.3-3-3-3m7 12v-2h-4v-2h4v-2l3 3-3 3" transform="matrix(1.5 0 0 1.5 576 144)" id="mdi-eye-arrow-right" fill="#555"/><path d="M12 4.5C7 4.5 2.7 7.6 1 12c1.7 4.4 6 7.5 11 7.5h1.1c-.1-.3-.1-.6-.1-1 0-.6.1-1.1.2-1.7-.4.1-.8.2-1.2.2-2.8 0-5-2.2-5-5s2.2-5 5-5 5 2.2 5 5c0 .3 0 .6-.1.9.7-.2 1.4-.4 2.1-.4 1.2 0 2.3.3 3.3 1 .3-.5.5-1 .7-1.5-1.7-4.4-6-7.5-11-7.5M12 9c-1.7 0-3 1.3-3 3s1.3 3 3 3 3-1.3 3-3-1.3-3-3-3m7 12v-2h-4v-2h4v-2l3 3-3 3" transform="matrix(1.5 0 0 1.5 612 144)" id="mdi-eye-arrow-right" fill="#fff"/><path d="M12 4.5C7 4.5 2.7 7.6 1 12c1.7 4.4 6 7.5 11 7.5h1.1c-.1-.3-.1-.6-.1-1s0-.7.1-1.1c-.4 0-.7.1-1.1.1-3.8 0-7.2-2.1-8.8-5.5 1.6-3.4 5-5.5 8.8-5.5s7.2 2.1 8.8 5.5c-.1.2-.3.4-.4.7.7.2 1.3.4 1.9.8.3-.5.5-1 .7-1.5-1.7-4.4-6-7.5-11-7.5M12 9c-1.7 0-3 1.3-3 3s1.3 3 3 3 3-1.3 3-3-1.3-3-3-3m7 12v-2h-4v-2h4v-2l3 3-3 3" transform="matrix(1.5 0 0 1.5 648 144)" id="mdi-eye-arrow-right-outline" fill="#555"/><path d="M12 4.5C7 4.5 2.7 7.6 1 12c1.7 4.4 6 7.5 11 7.5h1.1c-.1-.3-.1-.6-.1-1s0-.7.1-1.1c-.4 0-.7.1-1.1.1-3.8 0-7.2-2.1-8.8-5.5 1.6-3.4 5-5.5 8.8-5.5s7.2 2.1 8.8 5.5c-.1.2-.3.4-.4.7.7.2 1.3.4 1.9.8.3-.5.5-1 .7-1.5-1.7-4.4-6-7.5-11-7.5M12 9c-1.7 0-3 1.3-3 3s1.3 3 3 3 3-1.3 3-3-1.3-3-3-3m7 12v-2h-4v-2h4v-2l3 3-3 3" transform="matrix(1.5 0 0 1.5 684 144)" id="mdi-eye-arrow-right-outline" fill="#fff"/><path d="m23.5 17-5 5-3.5-3.5 1.5-1.5 2 2 3.5-3.5 1.5 1.5M12 9a3 3 0 0 1 3 3 3 3 0 0 1-3 3 3 3 0 0 1-3-3 3 3 0 0 1 3-3m0 8c.5 0 .97-.07 1.42-.21-.27.71-.42 1.43-.42 2.21v.45l-1 .05c-5 0-9.27-3.11-11-7.5 1.73-4.39 6-7.5 11-7.5s9.27 3.11 11 7.5c-.25.64-.56 1.26-.92 1.85-.9-.54-1.96-.85-3.08-.85-.78 0-1.5.15-2.21.42.14-.45.21-.92.21-1.42a5 5 0 0 0-5-5 5 5 0 0 0-5 5 5 5 0 0 0 5 5Z" transform="matrix(1.5 0 0 1.5 0 180)" id="mdi-eye-check" fill="#555"/><path d="m23.5 17-5 5-3.5-3.5 1.5-1.5 2 2 3.5-3.5 1.5 1.5M12 9a3 3 0 0 1 3 3 3 3 0 0 1-3 3 3 3 0 0 1-3-3 3 3 0 0 1 3-3m0 8c.5 0 .97-.07 1.42-.21-.27.71-.42 1.43-.42 2.21v.45l-1 .05c-5 0-9.27-3.11-11-7.5 1.73-4.39 6-7.5 11-7.5s9.27 3.11 11 7.5c-.25.64-.56 1.26-.92 1.85-.9-.54-1.96-.85-3.08-.85-.78 0-1.5.15-2.21.42.14-.45.21-.92.21-1.42a5 5 0 0 0-5-5 5 5 0 0 0-5 5 5 5 0 0 0 5 5Z" transform="matrix(1.5 0 0 1.5 36 180)" id="mdi-eye-check" fill="#fff"/><path d="m23.5 17-5 5-3.5-3.5 1.5-1.5 2 2 3.5-3.5 1.5 1.5M12 9a3 3 0 0 1 3 3 3 3 0 0 1-3 3 3 3 0 0 1-3-3 3 3 0 0 1 3-3m0-4.5c5 0 9.27 3.11 11 7.5-.25.65-.56 1.26-.92 1.85a5.77 5.77 0 0 0-1.9-.73l.64-1.12a9.821 9.821 0 0 0-17.64 0A9.821 9.821 0 0 0 12 17.5l1.21-.07c-.14.5-.21 1.03-.21 1.57v.46l-1 .04c-5 0-9.27-3.11-11-7.5 1.73-4.39 6-7.5 11-7.5Z" transform="matrix(1.5 0 0 1.5 72 180)" id="mdi-eye-check-outline" fill="#555"/><path d="m23.5 17-5 5-3.5-3.5 1.5-1.5 2 2 3.5-3.5 1.5 1.5M12 9a3 3 0 0 1 3 3 3 3 0 0 1-3 3 3 3 0 0 1-3-3 3 3 0 0 1 3-3m0-4.5c5 0 9.27 3.11 11 7.5-.25.65-.56 1.26-.92 1.85a5.77 5.77 0 0 0-1.9-.73l.64-1.12a9.821 9.821 0 0 0-17.64 0A9.821 9.821 0 0 0 12 17.5l1.21-.07c-.14.5-.21 1.03-.21 1.57v.46l-1 .04c-5 0-9.27-3.11-11-7.5 1.73-4.39 6-7.5 11-7.5Z" transform="matrix(1.5 0 0 1.5 108 180)" id="mdi-eye-check-outline" fill="#fff"/><path d="M12 9.5A2.5 2.5 0 0 0 9.5 12a2.5 2.5 0 0 0 2.5 2.5 2.5 2.5 0 0 0 2.5-2.5A2.5 2.5 0 0 0 12 9.5m0 3.5a1 1 0 0 1-1-1 1 1 0 0 1 1-1 1 1 0 0 1 1 1 1 1 0 0 1-1 1m0-3.5A2.5 2.5 0 0 0 9.5 12a2.5 2.5 0 0 0 2.5 2.5 2.5 2.5 0 0 0 2.5-2.5A2.5 2.5 0 0 0 12 9.5m0 3.5a1 1 0 0 1-1-1 1 1 0 0 1 1-1 1 1 0 0 1 1 1 1 1 0 0 1-1 1m0-11A10 10 0 0 0 2 12a10 10 0 0 0 10 10 10 10 0 0 0 10-10A10 10 0 0 0 12 2m0 14c-2.63 0-5-1.57-6-4a6.505 6.505 0 0 1 8.5-3.5A6.52 6.52 0 0 1 18 12c-1 2.43-3.37 4-6 4m0-6.5A2.5 2.5 0 0 0 9.5 12a2.5 2.5 0 0 0 2.5 2.5 2.5 2.5 0 0 0 2.5-2.5A2.5 2.5 0 0 0 12 9.5m0 3.5a1 1 0 0 1-1-1 1 1 0 0 1 1-1 1 1 0 0 1 1 1 1 1 0 0 1-1 1Z" transform="matrix(1.5 0 0 1.5 144 180)" id="mdi-eye-circle" fill="#555"/><path d="M12 9.5A2.5 2.5 0 0 0 9.5 12a2.5 2.5 0 0 0 2.5 2.5 2.5 2.5 0 0 0 2.5-2.5A2.5 2.5 0 0 0 12 9.5m0 3.5a1 1 0 0 1-1-1 1 1 0 0 1 1-1 1 1 0 0 1 1 1 1 1 0 0 1-1 1m0-3.5A2.5 2.5 0 0 0 9.5 12a2.5 2.5 0 0 0 2.5 2.5 2.5 2.5 0 0 0 2.5-2.5A2.5 2.5 0 0 0 12 9.5m0 3.5a1 1 0 0 1-1-1 1 1 0 0 1 1-1 1 1 0 0 1 1 1 1 1 0 0 1-1 1m0-11A10 10 0 0 0 2 12a10 10 0 0 0 10 10 10 10 0 0 0 10-10A10 10 0 0 0 12 2m0 14c-2.63 0-5-1.57-6-4a6.505 6.505 0 0 1 8.5-3.5A6.52 6.52 0 0 1 18 12c-1 2.43-3.37 4-6 4m0-6.5A2.5 2.5 0 0 0 9.5 12a2.5 2.5 0 0 0 2.5 2.5 2.5 2.5 0 0 0 2.5-2.5A2.5 2.5 0 0 0 12 9.5m0 3.5a1 1 0 0 1-1-1 1 1 0 0 1 1-1 1 1 0 0 1 1 1 1 1 0 0 1-1 1Z" transform="matrix(1.5 0 0 1.5 180 180)" id="mdi-eye-circle" fill="#fff"/><path d="M12 22A10 10 0 0 1 2 12 10 10 0 0 1 12 2a10 10 0 0 1 10 10 10 10 0 0 1-10 10m0-2a8 8 0 0 0 8-8 8 8 0 0 0-8-8 8 8 0 0 0-8 8 8 8 0 0 0 8 8m0-9a1 1 0 0 1 1 1 1 1 0 0 1-1 1 1 1 0 0 1-1-1 1 1 0 0 1 1-1m0-3c2.63 0 5 1.57 6 4a6.505 6.505 0 0 1-8.5 3.5A6.52 6.52 0 0 1 6 12c1-2.43 3.37-4 6-4m0 1.5A2.5 2.5 0 0 0 9.5 12a2.5 2.5 0 0 0 2.5 2.5 2.5 2.5 0 0 0 2.5-2.5A2.5 2.5 0 0 0 12 9.5" transform="matrix(1.5 0 0 1.5 216 180)" id="mdi-eye-circle-outline" fill="#555"/><path d="M12 22A10 10 0 0 1 2 12 10 10 0 0 1 12 2a10 10 0 0 1 10 10 10 10 0 0 1-10 10m0-2a8 8 0 0 0 8-8 8 8 0 0 0-8-8 8 8 0 0 0-8 8 8 8 0 0 0 8 8m0-9a1 1 0 0 1 1 1 1 1 0 0 1-1 1 1 1 0 0 1-1-1 1 1 0 0 1 1-1m0-3c2.63 0 5 1.57 6 4a6.505 6.505 0 0 1-8.5 3.5A6.52 6.52 0 0 1 6 12c1-2.43 3.37-4 6-4m0 1.5A2.5 2.5 0 0 0 9.5 12a2.5 2.5 0 0 0 2.5 2.5 2.5 2.5 0 0 0 2.5-2.5A2.5 2.5 0 0 0 12 9.5" transform="matrix(1.5 0 0 1.5 252 180)" id="mdi-eye-circle-outline" fill="#fff"/><path d="M12 4.5A11.8 11.8 0 0 0 1 12a11.8 11.8 0 0 0 11 7.5h1.1a3.8 3.8 0 0 1-.1-1 9.9 9.9 0 0 1 .2-1.7L12 17a5 5 0 1 1 5-5 2.8 2.8 0 0 1-.1.9 5.2 5.2 0 0 1 2.1-.4 5.6 5.6 0 0 1 3.3 1A10.1 10.1 0 0 0 23 12a11.8 11.8 0 0 0-11-7.5M12 9a3 3 0 1 0 3 3 2.9 2.9 0 0 0-3-3m3 8.5v2h8v-2Z" transform="matrix(1.5 0 0 1.5 288 180)" id="mdi-eye-minus" fill="#555"/><path d="M12 4.5A11.8 11.8 0 0 0 1 12a11.8 11.8 0 0 0 11 7.5h1.1a3.8 3.8 0 0 1-.1-1 9.9 9.9 0 0 1 .2-1.7L12 17a5 5 0 1 1 5-5 2.8 2.8 0 0 1-.1.9 5.2 5.2 0 0 1 2.1-.4 5.6 5.6 0 0 1 3.3 1A10.1 10.1 0 0 0 23 12a11.8 11.8 0 0 0-11-7.5M12 9a3 3 0 1 0 3 3 2.9 2.9 0 0 0-3-3m3 8.5v2h8v-2Z" transform="matrix(1.5 0 0 1.5 324 180)" id="mdi-eye-minus" fill="#fff"/><path d="M12 4.5A11.8 11.8 0 0 0 1 12a11.8 11.8 0 0 0 11 7.5h1.1a3.8 3.8 0 0 1-.1-1 4.1 4.1 0 0 1 .1-1.1H12A9.6 9.6 0 0 1 3.2 12 9.6 9.6 0 0 1 12 6.5a9.6 9.6 0 0 1 8.8 5.5l-.4.7a4.6 4.6 0 0 1 1.9.8A10.1 10.1 0 0 0 23 12a11.8 11.8 0 0 0-11-7.5M12 9a3 3 0 1 0 3 3 2.9 2.9 0 0 0-3-3m3 8.5v2h8v-2Z" transform="matrix(1.5 0 0 1.5 360 180)" id="mdi-eye-minus-outline" fill="#555"/><path d="M12 4.5A11.8 11.8 0 0 0 1 12a11.8 11.8 0 0 0 11 7.5h1.1a3.8 3.8 0 0 1-.1-1 4.1 4.1 0 0 1 .1-1.1H12A9.6 9.6 0 0 1 3.2 12 9.6 9.6 0 0 1 12 6.5a9.6 9.6 0 0 1 8.8 5.5l-.4.7a4.6 4.6 0 0 1 1.9.8A10.1 10.1 0 0 0 23 12a11.8 11.8 0 0 0-11-7.5M12 9a3 3 0 1 0 3 3 2.9 2.9 0 0 0-3-3m3 8.5v2h8v-2Z" transform="matrix(1.5 0 0 1.5 396 180)" id="mdi-eye-minus-outline" fill="#fff"/><path d="M11.83 9 15 12.16V12a3 3 0 0 0-3-3h-.17m-4.3.8 1.55 1.55c-.05.21-.08.42-.08.65a3 3 0 0 0 3 3c.22 0 .44-.03.65-.08l1.55 1.55c-.67.33-1.41.53-2.2.53a5 5 0 0 1-5-5c0-.79.2-1.53.53-2.2M2 4.27l2.28 2.28.45.45C3.08 8.3 1.78 10 1 12c1.73 4.39 6 7.5 11 7.5 1.55 0 3.03-.3 4.38-.84l.43.42L19.73 22 21 20.73 3.27 3M12 7a5 5 0 0 1 5 5c0 .64-.13 1.26-.36 1.82l2.93 2.93c1.5-1.25 2.7-2.89 3.43-4.75-1.73-4.39-6-7.5-11-7.5-1.4 0-2.74.25-4 .7l2.17 2.15C10.74 7.13 11.35 7 12 7Z" transform="matrix(1.5 0 0 1.5 432 180)" id="mdi-eye-off" fill="#555"/><path d="M11.83 9 15 12.16V12a3 3 0 0 0-3-3h-.17m-4.3.8 1.55 1.55c-.05.21-.08.42-.08.65a3 3 0 0 0 3 3c.22 0 .44-.03.65-.08l1.55 1.55c-.67.33-1.41.53-2.2.53a5 5 0 0 1-5-5c0-.79.2-1.53.53-2.2M2 4.27l2.28 2.28.45.45C3.08 8.3 1.78 10 1 12c1.73 4.39 6 7.5 11 7.5 1.55 0 3.03-.3 4.38-.84l.43.42L19.73 22 21 20.73 3.27 3M12 7a5 5 0 0 1 5 5c0 .64-.13 1.26-.36 1.82l2.93 2.93c1.5-1.25 2.7-2.89 3.43-4.75-1.73-4.39-6-7.5-11-7.5-1.4 0-2.74.25-4 .7l2.17 2.15C10.74 7.13 11.35 7 12 7Z" transform="matrix(1.5 0 0 1.5 468 180)" id="mdi-eye-off" fill="#fff"/><path d="M2 5.27 3.28 4 20 20.72 18.73 22l-3.08-3.08c-1.15.38-2.37.58-3.65.58-5 0-9.27-3.11-11-7.5.69-1.76 1.79-3.31 3.19-4.54L2 5.27M12 9a3 3 0 0 1 3 3 3 3 0 0 1-.17 1L11 9.17A3 3 0 0 1 12 9m0-4.5c5 0 9.27 3.11 11 7.5a11.79 11.79 0 0 1-4 5.19l-1.42-1.43A9.862 9.862 0 0 0 20.82 12 9.821 9.821 0 0 0 12 6.5c-1.09 0-2.16.18-3.16.5L7.3 5.47c1.44-.62 3.03-.97 4.7-.97M3.18 12A9.821 9.821 0 0 0 12 17.5c.69 0 1.37-.07 2-.21L11.72 15A3.064 3.064 0 0 1 9 12.28L5.6 8.87c-.99.85-1.82 1.91-2.42 3.13Z" transform="matrix(1.5 0 0 1.5 504 180)" id="mdi-eye-off-outline" fill="#555"/><path d="M2 5.27 3.28 4 20 20.72 18.73 22l-3.08-3.08c-1.15.38-2.37.58-3.65.58-5 0-9.27-3.11-11-7.5.69-1.76 1.79-3.31 3.19-4.54L2 5.27M12 9a3 3 0 0 1 3 3 3 3 0 0 1-.17 1L11 9.17A3 3 0 0 1 12 9m0-4.5c5 0 9.27 3.11 11 7.5a11.79 11.79 0 0 1-4 5.19l-1.42-1.43A9.862 9.862 0 0 0 20.82 12 9.821 9.821 0 0 0 12 6.5c-1.09 0-2.16.18-3.16.5L7.3 5.47c1.44-.62 3.03-.97 4.7-.97M3.18 12A9.821 9.821 0 0 0 12 17.5c.69 0 1.37-.07 2-.21L11.72 15A3.064 3.064 0 0 1 9 12.28L5.6 8.87c-.99.85-1.82 1.91-2.42 3.13Z" transform="matrix(1.5 0 0 1.5 540 180)" id="mdi-eye-off-outline" fill="#fff"/><path d="M12 9a3 3 0 0 1 3 3 3 3 0 0 1-3 3 3 3 0 0 1-3-3 3 3 0 0 1 3-3m0-4.5c5 0 9.27 3.11 11 7.5-1.73 4.39-6 7.5-11 7.5S2.73 16.39 1 12c1.73-4.39 6-7.5 11-7.5M3.18 12a9.821 9.821 0 0 0 17.64 0 9.821 9.821 0 0 0-17.64 0Z" transform="matrix(1.5 0 0 1.5 576 180)" id="mdi-eye-outline" fill="#555"/><path d="M12 9a3 3 0 0 1 3 3 3 3 0 0 1-3 3 3 3 0 0 1-3-3 3 3 0 0 1 3-3m0-4.5c5 0 9.27 3.11 11 7.5-1.73 4.39-6 7.5-11 7.5S2.73 16.39 1 12c1.73-4.39 6-7.5 11-7.5M3.18 12a9.821 9.821 0 0 0 17.64 0 9.821 9.821 0 0 0-17.64 0Z" transform="matrix(1.5 0 0 1.5 612 180)" id="mdi-eye-outline" fill="#fff"/><path d="M12 4.5C7 4.5 2.73 7.61 1 12c1.73 4.39 6 7.5 11 7.5.36 0 .72 0 1.08-.05a6.09 6.09 0 0 1-.08-.95c0-.56.08-1.12.24-1.66-.41.1-.82.16-1.24.16a5 5 0 0 1-5-5 5 5 0 0 1 5-5 5 5 0 0 1 5 5c0 .29-.03.59-.08.88.66-.25 1.37-.38 2.08-.38 1.17 0 2.31.34 3.29 1 .27-.5.51-1 .71-1.5-1.73-4.39-6-7.5-11-7.5M12 9a3 3 0 0 0-3 3 3 3 0 0 0 3 3 3 3 0 0 0 3-3 3 3 0 0 0-3-3m6 5.5v3h-3v2h3v3h2v-3h3v-2h-3v-3h-2Z" transform="matrix(1.5 0 0 1.5 648 180)" id="mdi-eye-plus" fill="#555"/><path d="M12 4.5C7 4.5 2.73 7.61 1 12c1.73 4.39 6 7.5 11 7.5.36 0 .72 0 1.08-.05a6.09 6.09 0 0 1-.08-.95c0-.56.08-1.12.24-1.66-.41.1-.82.16-1.24.16a5 5 0 0 1-5-5 5 5 0 0 1 5-5 5 5 0 0 1 5 5c0 .29-.03.59-.08.88.66-.25 1.37-.38 2.08-.38 1.17 0 2.31.34 3.29 1 .27-.5.51-1 .71-1.5-1.73-4.39-6-7.5-11-7.5M12 9a3 3 0 0 0-3 3 3 3 0 0 0 3 3 3 3 0 0 0 3-3 3 3 0 0 0-3-3m6 5.5v3h-3v2h3v3h2v-3h3v-2h-3v-3h-2Z" transform="matrix(1.5 0 0 1.5 684 180)" id="mdi-eye-plus" fill="#fff"/><path d="M12 4.5C7 4.5 2.73 7.61 1 12c1.73 4.39 6 7.5 11 7.5.36 0 .72 0 1.08-.05a6.09 6.09 0 0 1-.08-.95c0-.36.04-.72.1-1.08-.36.04-.73.08-1.1.08-3.76 0-7.17-2.14-8.82-5.5a9.821 9.821 0 0 1 17.64 0c-.12.24-.26.45-.39.68.66.16 1.29.43 1.86.82.27-.5.51-1 .71-1.5-1.73-4.39-6-7.5-11-7.5M12 9a3 3 0 0 0-3 3 3 3 0 0 0 3 3 3 3 0 0 0 3-3 3 3 0 0 0-3-3m6 5.5v3h-3v2h3v3h2v-3h3v-2h-3v-3h-2Z" transform="matrix(1.5 0 0 1.5 0 216)" id="mdi-eye-plus-outline" fill="#555"/><path d="M12 4.5C7 4.5 2.73 7.61 1 12c1.73 4.39 6 7.5 11 7.5.36 0 .72 0 1.08-.05a6.09 6.09 0 0 1-.08-.95c0-.36.04-.72.1-1.08-.36.04-.73.08-1.1.08-3.76 0-7.17-2.14-8.82-5.5a9.821 9.821 0 0 1 17.64 0c-.12.24-.26.45-.39.68.66.16 1.29.43 1.86.82.27-.5.51-1 .71-1.5-1.73-4.39-6-7.5-11-7.5M12 9a3 3 0 0 0-3 3 3 3 0 0 0 3 3 3 3 0 0 0 3-3 3 3 0 0 0-3-3m6 5.5v3h-3v2h3v3h2v-3h3v-2h-3v-3h-2Z" transform="matrix(1.5 0 0 1.5 36 216)" id="mdi-eye-plus-outline" fill="#fff"/><path d="M12 9c-1.7 0-3 1.3-3 3s1.3 3 3 3 3-1.3 3-3-1.3-3-3-3m6 9.5 1.8-1.8c-.5-.4-1.1-.7-1.8-.7-1.4 0-2.5 1.1-2.5 2.5S16.6 21 18 21c.8 0 1.5-.4 2-1h1.7c-.6 1.5-2 2.5-3.7 2.5-2.2 0-4-1.8-4-4s1.8-4 4-4c1.1 0 2.1.4 2.8 1.2l1.2-1.2v4h-4m-5.9 1s-.1 0 0 0C7 19.5 2.7 16.4 1 12c1.7-4.4 6-7.5 11-7.5s9.3 3.1 11 7.5c-.2.4-.4.9-.6 1.3-1.1-.8-2.4-1.3-3.9-1.3-.5 0-1 .1-1.5.2V12c0-2.8-2.2-5-5-5s-5 2.2-5 5 2.2 5 5 5h.2c-.1.5-.2 1-.2 1.5 0 .3 0 .7.1 1Z" transform="matrix(1.5 0 0 1.5 72 216)" id="mdi-eye-refresh" fill="#555"/><path d="M12 9c-1.7 0-3 1.3-3 3s1.3 3 3 3 3-1.3 3-3-1.3-3-3-3m6 9.5 1.8-1.8c-.5-.4-1.1-.7-1.8-.7-1.4 0-2.5 1.1-2.5 2.5S16.6 21 18 21c.8 0 1.5-.4 2-1h1.7c-.6 1.5-2 2.5-3.7 2.5-2.2 0-4-1.8-4-4s1.8-4 4-4c1.1 0 2.1.4 2.8 1.2l1.2-1.2v4h-4m-5.9 1s-.1 0 0 0C7 19.5 2.7 16.4 1 12c1.7-4.4 6-7.5 11-7.5s9.3 3.1 11 7.5c-.2.4-.4.9-.6 1.3-1.1-.8-2.4-1.3-3.9-1.3-.5 0-1 .1-1.5.2V12c0-2.8-2.2-5-5-5s-5 2.2-5 5 2.2 5 5 5h.2c-.1.5-.2 1-.2 1.5 0 .3 0 .7.1 1Z" transform="matrix(1.5 0 0 1.5 108 216)" id="mdi-eye-refresh" fill="#fff"/><path d="M12 9c1.7 0 3 1.3 3 3s-1.3 3-3 3-3-1.3-3-3 1.3-3 3-3m6 9.5 1.8-1.8c-.5-.4-1.1-.7-1.8-.7-1.4 0-2.5 1.1-2.5 2.5S16.6 21 18 21c.8 0 1.5-.4 2-1h1.7c-.6 1.5-2 2.5-3.7 2.5-2.2 0-4-1.8-4-4s1.8-4 4-4c1.1 0 2.1.4 2.8 1.2l1.2-1.2v4h-4m-6 0c0-.3 0-.7.1-1H12c-3.8 0-7.2-2.1-8.8-5.5 1.6-3.4 5-5.5 8.8-5.5s7.2 2.1 8.8 5.5c-.1.1-.1.2-.2.4.6.2 1.2.5 1.8.9.2-.4.4-.9.6-1.3-1.7-4.4-6-7.5-11-7.5S2.7 7.6 1 12c1.7 4.4 6 7.5 11 7.5h.1c-.1-.3-.1-.7-.1-1Z" transform="matrix(1.5 0 0 1.5 144 216)" id="mdi-eye-refresh-outline" fill="#555"/><path d="M12 9c1.7 0 3 1.3 3 3s-1.3 3-3 3-3-1.3-3-3 1.3-3 3-3m6 9.5 1.8-1.8c-.5-.4-1.1-.7-1.8-.7-1.4 0-2.5 1.1-2.5 2.5S16.6 21 18 21c.8 0 1.5-.4 2-1h1.7c-.6 1.5-2 2.5-3.7 2.5-2.2 0-4-1.8-4-4s1.8-4 4-4c1.1 0 2.1.4 2.8 1.2l1.2-1.2v4h-4m-6 0c0-.3 0-.7.1-1H12c-3.8 0-7.2-2.1-8.8-5.5 1.6-3.4 5-5.5 8.8-5.5s7.2 2.1 8.8 5.5c-.1.1-.1.2-.2.4.6.2 1.2.5 1.8.9.2-.4.4-.9.6-1.3-1.7-4.4-6-7.5-11-7.5S2.7 7.6 1 12c1.7 4.4 6 7.5 11 7.5h.1c-.1-.3-.1-.7-.1-1Z" transform="matrix(1.5 0 0 1.5 180 216)" id="mdi-eye-refresh-outline" fill="#fff"/><path d="M22.54 16.88 20.41 19l2.13 2.12-1.42 1.42L19 20.41l-2.12 2.13-1.41-1.42L17.59 19l-2.12-2.12 1.41-1.41L19 17.59l2.12-2.12 1.42 1.41M12 9c-1.66 0-3 1.34-3 3s1.34 3 3 3 3-1.34 3-3-1.34-3-3-3m0 8c-2.76 0-5-2.24-5-5s2.24-5 5-5 5 2.24 5 5c0 .5-.1 1-.23 1.43.69-.27 1.44-.43 2.23-.43 1.12 0 2.17.32 3.07.85.36-.58.67-1.2.93-1.85-1.73-4.39-6-7.5-11-7.5S2.73 7.61 1 12c1.73 4.39 6 7.5 11 7.5.35 0 .69 0 1.03-.05-.03-.15-.03-.3-.03-.45 0-.79.16-1.54.43-2.23-.43.13-.93.23-1.43.23Z" transform="matrix(1.5 0 0 1.5 216 216)" id="mdi-eye-remove" fill="#555"/><path d="M22.54 16.88 20.41 19l2.13 2.12-1.42 1.42L19 20.41l-2.12 2.13-1.41-1.42L17.59 19l-2.12-2.12 1.41-1.41L19 17.59l2.12-2.12 1.42 1.41M12 9c-1.66 0-3 1.34-3 3s1.34 3 3 3 3-1.34 3-3-1.34-3-3-3m0 8c-2.76 0-5-2.24-5-5s2.24-5 5-5 5 2.24 5 5c0 .5-.1 1-.23 1.43.69-.27 1.44-.43 2.23-.43 1.12 0 2.17.32 3.07.85.36-.58.67-1.2.93-1.85-1.73-4.39-6-7.5-11-7.5S2.73 7.61 1 12c1.73 4.39 6 7.5 11 7.5.35 0 .69 0 1.03-.05-.03-.15-.03-.3-.03-.45 0-.79.16-1.54.43-2.23-.43.13-.93.23-1.43.23Z" transform="matrix(1.5 0 0 1.5 252 216)" id="mdi-eye-remove" fill="#fff"/><path d="M22.54 16.88 20.41 19l2.13 2.12-1.42 1.42L19 20.41l-2.12 2.13-1.41-1.42L17.59 19l-2.12-2.12 1.41-1.41L19 17.59l2.12-2.12 1.42 1.41M12 9c-1.66 0-3 1.34-3 3s1.34 3 3 3 3-1.34 3-3-1.34-3-3-3m0 8.5c-3.76 0-7.17-2.14-8.82-5.5a9.821 9.821 0 0 1 17.64 0c-.19.39-.41.77-.65 1.13.68.13 1.33.37 1.9.72.36-.58.67-1.2.93-1.85-1.73-4.39-6-7.5-11-7.5S2.73 7.61 1 12c1.73 4.39 6 7.5 11 7.5.35 0 .69 0 1.03-.05-.03-.15-.03-.3-.03-.45 0-.55.08-1.08.22-1.59-.4.05-.81.09-1.22.09Z" transform="matrix(1.5 0 0 1.5 288 216)" id="mdi-eye-remove-outline" fill="#555"/><path d="M22.54 16.88 20.41 19l2.13 2.12-1.42 1.42L19 20.41l-2.12 2.13-1.41-1.42L17.59 19l-2.12-2.12 1.41-1.41L19 17.59l2.12-2.12 1.42 1.41M12 9c-1.66 0-3 1.34-3 3s1.34 3 3 3 3-1.34 3-3-1.34-3-3-3m0 8.5c-3.76 0-7.17-2.14-8.82-5.5a9.821 9.821 0 0 1 17.64 0c-.19.39-.41.77-.65 1.13.68.13 1.33.37 1.9.72.36-.58.67-1.2.93-1.85-1.73-4.39-6-7.5-11-7.5S2.73 7.61 1 12c1.73 4.39 6 7.5 11 7.5.35 0 .69 0 1.03-.05-.03-.15-.03-.3-.03-.45 0-.55.08-1.08.22-1.59-.4.05-.81.09-1.22.09Z" transform="matrix(1.5 0 0 1.5 324 216)" id="mdi-eye-remove-outline" fill="#fff"/><path d="M12 9a3 3 0 0 0-3 3 3 3 0 0 0 3 3 3 3 0 0 0 3-3 3 3 0 0 0-3-3m0 8a5 5 0 0 1-5-5 5 5 0 0 1 5-5 5 5 0 0 1 5 5 5 5 0 0 1-5 5m0-12.5c-4.86 0-9.22 3-11 7.5 2.39 6.08 9.25 9.06 15.33 6.67 3.05-1.2 5.47-3.61 6.67-6.67-1.78-4.5-6.14-7.5-11-7.5M7 22h2v2H7v-2m4 0h2v2h-2v-2m4 0h2v2h-2v-2Z" transform="matrix(1.5 0 0 1.5 360 216)" id="mdi-eye-settings" fill="#555"/><path d="M12 9a3 3 0 0 0-3 3 3 3 0 0 0 3 3 3 3 0 0 0 3-3 3 3 0 0 0-3-3m0 8a5 5 0 0 1-5-5 5 5 0 0 1 5-5 5 5 0 0 1 5 5 5 5 0 0 1-5 5m0-12.5c-4.86 0-9.22 3-11 7.5 2.39 6.08 9.25 9.06 15.33 6.67 3.05-1.2 5.47-3.61 6.67-6.67-1.78-4.5-6.14-7.5-11-7.5M7 22h2v2H7v-2m4 0h2v2h-2v-2m4 0h2v2h-2v-2Z" transform="matrix(1.5 0 0 1.5 396 216)" id="mdi-eye-settings" fill="#fff"/><path d="M12 9a3 3 0 0 1 3 3 3 3 0 0 1-3 3 3 3 0 0 1-3-3 3 3 0 0 1 3-3m0-4.5c4.86 0 9.22 3 11 7.5-2.39 6.08-9.25 9.06-15.33 6.67C4.62 17.47 2.2 15.06 1 12c1.78-4.5 6.14-7.5 11-7.5M3.18 12c2.38 4.87 8.27 6.89 13.14 4.5a9.811 9.811 0 0 0 4.5-4.5c-2.38-4.87-8.27-6.89-13.14-4.5a9.811 9.811 0 0 0-4.5 4.5M9 22H7v2h2v-2m4 0h-2v2h2v-2m4 0h-2v2h2v-2Z" transform="matrix(1.5 0 0 1.5 432 216)" id="mdi-eye-settings-outline" fill="#555"/><path d="M12 9a3 3 0 0 1 3 3 3 3 0 0 1-3 3 3 3 0 0 1-3-3 3 3 0 0 1 3-3m0-4.5c4.86 0 9.22 3 11 7.5-2.39 6.08-9.25 9.06-15.33 6.67C4.62 17.47 2.2 15.06 1 12c1.78-4.5 6.14-7.5 11-7.5M3.18 12c2.38 4.87 8.27 6.89 13.14 4.5a9.811 9.811 0 0 0 4.5-4.5c-2.38-4.87-8.27-6.89-13.14-4.5a9.811 9.811 0 0 0-4.5 4.5M9 22H7v2h2v-2m4 0h-2v2h2v-2m4 0h-2v2h2v-2Z" transform="matrix(1.5 0 0 1.5 468 216)" id="mdi-eye-settings-outline" fill="#fff"/><path d="m19.35 11.72-2.13 2.13-1.41-1.42-7.71 7.71L3.5 22 2 20.5l1.86-4.6 7.71-7.71-1.42-1.41 2.13-2.13 7.07 7.07M16.76 3A3 3 0 0 1 21 3a3 3 0 0 1 0 4.24l-1.92 1.92-4.24-4.24L16.76 3M5.56 17.03 4.5 19.5l2.47-1.06L14.4 11 13 9.6l-7.44 7.43Z" transform="matrix(1.5 0 0 1.5 504 216)" id="mdi-eyedropper" fill="#555"/><path d="m19.35 11.72-2.13 2.13-1.41-1.42-7.71 7.71L3.5 22 2 20.5l1.86-4.6 7.71-7.71-1.42-1.41 2.13-2.13 7.07 7.07M16.76 3A3 3 0 0 1 21 3a3 3 0 0 1 0 4.24l-1.92 1.92-4.24-4.24L16.76 3M5.56 17.03 4.5 19.5l2.47-1.06L14.4 11 13 9.6l-7.44 7.43Z" transform="matrix(1.5 0 0 1.5 540 216)" id="mdi-eyedropper" fill="#fff"/><path d="m19.35 11.72-2.13 2.13-1.41-1.42-7.71 7.71L3.5 22 2 20.5l1.86-4.6 7.71-7.71-1.42-1.41 2.13-2.13 7.07 7.07M16.76 3c1.17-1.17 3.07-1.17 4.24 0s1.17 3.07 0 4.24l-1.92 1.92-4.24-4.24L16.76 3M5.56 17.03 4.5 19.5l2.47-1.06L14.4 11 13 9.6l-7.44 7.43M9 4v2H1V4h8Z" transform="matrix(1.5 0 0 1.5 576 216)" id="mdi-eyedropper-minus" fill="#555"/><path d="m19.35 11.72-2.13 2.13-1.41-1.42-7.71 7.71L3.5 22 2 20.5l1.86-4.6 7.71-7.71-1.42-1.41 2.13-2.13 7.07 7.07M16.76 3c1.17-1.17 3.07-1.17 4.24 0s1.17 3.07 0 4.24l-1.92 1.92-4.24-4.24L16.76 3M5.56 17.03 4.5 19.5l2.47-1.06L14.4 11 13 9.6l-7.44 7.43M9 4v2H1V4h8Z" transform="matrix(1.5 0 0 1.5 612 216)" id="mdi-eyedropper-minus" fill="#fff"/><path d="m21 7.24-1.92 1.92-4.24-4.24L16.76 3c1.17-1.17 3.07-1.17 4.24 0s1.17 3.07 0 4.24M10.94 8.82l1.42 1.42.64-.64 1.4 1.4-.64.64 1.42 1.42.63-.63 1.41 1.42 2.13-2.13-7.07-7.07-2.13 2.13 1.42 1.41-.63.63m8.92 11.47-1.28 1.28-5.95-5.96-4.53 4.53L3.5 22 2 20.5l1.86-4.6 4.53-4.53-6.53-6.52 1.28-1.28 16.72 16.72m-8.65-6.09-1.4-1.41-4.25 4.24L4.5 19.5l2.47-1.06 4.24-4.24Z" transform="matrix(1.5 0 0 1.5 648 216)" id="mdi-eyedropper-off" fill="#555"/><path d="m21 7.24-1.92 1.92-4.24-4.24L16.76 3c1.17-1.17 3.07-1.17 4.24 0s1.17 3.07 0 4.24M10.94 8.82l1.42 1.42.64-.64 1.4 1.4-.64.64 1.42 1.42.63-.63 1.41 1.42 2.13-2.13-7.07-7.07-2.13 2.13 1.42 1.41-.63.63m8.92 11.47-1.28 1.28-5.95-5.96-4.53 4.53L3.5 22 2 20.5l1.86-4.6 4.53-4.53-6.53-6.52 1.28-1.28 16.72 16.72m-8.65-6.09-1.4-1.41-4.25 4.24L4.5 19.5l2.47-1.06 4.24-4.24Z" transform="matrix(1.5 0 0 1.5 684 216)" id="mdi-eyedropper-off" fill="#fff"/><path d="m19.35 11.72-2.13 2.13-1.41-1.42-7.71 7.71L3.5 22 2 20.5l1.86-4.6 7.71-7.71-1.42-1.41 2.13-2.13 7.07 7.07M16.76 3c1.17-1.17 3.07-1.17 4.24 0s1.17 3.07 0 4.24l-1.92 1.92-4.24-4.24L16.76 3M5.56 17.03 4.5 19.5l2.47-1.06L14.4 11 13 9.6l-7.44 7.43M6 1v3h3v2H6v3H4V6H1V4h3V1h2Z" transform="matrix(1.5 0 0 1.5 0 252)" id="mdi-eyedropper-plus" fill="#555"/><path d="m19.35 11.72-2.13 2.13-1.41-1.42-7.71 7.71L3.5 22 2 20.5l1.86-4.6 7.71-7.71-1.42-1.41 2.13-2.13 7.07 7.07M16.76 3c1.17-1.17 3.07-1.17 4.24 0s1.17 3.07 0 4.24l-1.92 1.92-4.24-4.24L16.76 3M5.56 17.03 4.5 19.5l2.47-1.06L14.4 11 13 9.6l-7.44 7.43M6 1v3h3v2H6v3H4V6H1V4h3V1h2Z" transform="matrix(1.5 0 0 1.5 36 252)" id="mdi-eyedropper-plus" fill="#fff"/><path d="m19.35 11.72-2.13 2.13-1.41-1.42-7.71 7.71L3.5 22 2 20.5l1.86-4.6 7.71-7.71-1.42-1.41 2.13-2.13 7.07 7.07M16.76 3c1.17-1.17 3.07-1.17 4.24 0s1.17 3.07 0 4.24l-1.92 1.92-4.24-4.24L16.76 3M5.56 17.03 4.5 19.5l2.47-1.06L14.4 11 13 9.6l-7.44 7.43M8.54 2.88 6.41 5l2.13 2.12-1.42 1.42L5 6.41 2.88 8.54 1.46 7.12 3.59 5 1.46 2.88l1.42-1.41L5 3.59l2.12-2.12 1.42 1.41Z" transform="matrix(1.5 0 0 1.5 72 252)" id="mdi-eyedropper-remove" fill="#555"/><path d="m19.35 11.72-2.13 2.13-1.41-1.42-7.71 7.71L3.5 22 2 20.5l1.86-4.6 7.71-7.71-1.42-1.41 2.13-2.13 7.07 7.07M16.76 3c1.17-1.17 3.07-1.17 4.24 0s1.17 3.07 0 4.24l-1.92 1.92-4.24-4.24L16.76 3M5.56 17.03 4.5 19.5l2.47-1.06L14.4 11 13 9.6l-7.44 7.43M8.54 2.88 6.41 5l2.13 2.12-1.42 1.42L5 6.41 2.88 8.54 1.46 7.12 3.59 5 1.46 2.88l1.42-1.41L5 3.59l2.12-2.12 1.42 1.41Z" transform="matrix(1.5 0 0 1.5 108 252)" id="mdi-eyedropper-remove" fill="#fff"/><path d="M6.92 19 5 17.08 13.06 9 15 10.94m5.71-5.31-2.34-2.34c-.37-.39-1.02-.39-1.41 0l-3.12 3.12-1.93-1.91-1.41 1.41 1.42 1.42L3 16.25V21h4.75l8.92-8.92 1.42 1.42 1.41-1.41-1.92-1.92 3.12-3.12c.4-.4.4-1.05.01-1.42Z" transform="matrix(1.5 0 0 1.5 144 252)" id="mdi-eyedropper-variant" fill="#555"/><path d="M6.92 19 5 17.08 13.06 9 15 10.94m5.71-5.31-2.34-2.34c-.37-.39-1.02-.39-1.41 0l-3.12 3.12-1.93-1.91-1.41 1.41 1.42 1.42L3 16.25V21h4.75l8.92-8.92 1.42 1.42 1.41-1.41-1.92-1.92 3.12-3.12c.4-.4.4-1.05.01-1.42Z" transform="matrix(1.5 0 0 1.5 180 252)" id="mdi-eyedropper-variant" fill="#fff"/><path d="M18.72 14.76c.35-.85.54-1.76.54-2.76 0-.72-.11-1.41-.3-2.05-.65.15-1.33.23-2.04.23A9.07 9.07 0 0 1 9.5 6.34a9.21 9.21 0 0 1-4.73 4.88c-.04.25-.04.52-.04.78A7.27 7.27 0 0 0 12 19.27c1.05 0 2.06-.23 2.97-.64.57 1.09.83 1.63.81 1.63-1.64.55-2.91.82-3.78.82-2.42 0-4.73-.95-6.43-2.66a9.03 9.03 0 0 1-2.24-3.69H2v-4.55h1.09a9.09 9.09 0 0 1 15.33-4.6 8.991 8.991 0 0 1 2.47 4.6H22v4.55h-.06L18.38 18l-5.3-.6v-1.67h4.83l.81-.97m-9.45-2.99c.3 0 .59.12.8.34a1.136 1.136 0 0 1 0 1.6c-.21.21-.5.33-.8.33-.63 0-1.14-.5-1.14-1.13 0-.63.51-1.14 1.14-1.14m5.45 0c.63 0 1.13.51 1.13 1.14 0 .63-.5 1.13-1.13 1.13-.63 0-1.14-.5-1.14-1.13a1.14 1.14 0 0 1 1.14-1.14Z" transform="matrix(1.5 0 0 1.5 216 252)" id="mdi-face-agent" fill="#555"/><path d="M18.72 14.76c.35-.85.54-1.76.54-2.76 0-.72-.11-1.41-.3-2.05-.65.15-1.33.23-2.04.23A9.07 9.07 0 0 1 9.5 6.34a9.21 9.21 0 0 1-4.73 4.88c-.04.25-.04.52-.04.78A7.27 7.27 0 0 0 12 19.27c1.05 0 2.06-.23 2.97-.64.57 1.09.83 1.63.81 1.63-1.64.55-2.91.82-3.78.82-2.42 0-4.73-.95-6.43-2.66a9.03 9.03 0 0 1-2.24-3.69H2v-4.55h1.09a9.09 9.09 0 0 1 15.33-4.6 8.991 8.991 0 0 1 2.47 4.6H22v4.55h-.06L18.38 18l-5.3-.6v-1.67h4.83l.81-.97m-9.45-2.99c.3 0 .59.12.8.34a1.136 1.136 0 0 1 0 1.6c-.21.21-.5.33-.8.33-.63 0-1.14-.5-1.14-1.13 0-.63.51-1.14 1.14-1.14m5.45 0c.63 0 1.13.51 1.13 1.14 0 .63-.5 1.13-1.13 1.13-.63 0-1.14-.5-1.14-1.13a1.14 1.14 0 0 1 1.14-1.14Z" transform="matrix(1.5 0 0 1.5 252 252)" id="mdi-face-agent" fill="#fff"/><path d="M9 11.75A1.25 1.25 0 0 0 7.75 13 1.25 1.25 0 0 0 9 14.25 1.25 1.25 0 0 0 10.25 13 1.25 1.25 0 0 0 9 11.75m6 0A1.25 1.25 0 0 0 13.75 13 1.25 1.25 0 0 0 15 14.25 1.25 1.25 0 0 0 16.25 13 1.25 1.25 0 0 0 15 11.75M12 2A10 10 0 0 0 2 12a10 10 0 0 0 10 10 10 10 0 0 0 10-10A10 10 0 0 0 12 2m0 18c-4.41 0-8-3.59-8-8 0-.29 0-.58.05-.86 2.36-1.05 4.23-2.98 5.21-5.37a9.974 9.974 0 0 0 10.41 3.97c.21.71.33 1.47.33 2.26 0 4.41-3.59 8-8 8Z" transform="matrix(1.5 0 0 1.5 288 252)" id="mdi-face-man" fill="#555"/><path d="M9 11.75A1.25 1.25 0 0 0 7.75 13 1.25 1.25 0 0 0 9 14.25 1.25 1.25 0 0 0 10.25 13 1.25 1.25 0 0 0 9 11.75m6 0A1.25 1.25 0 0 0 13.75 13 1.25 1.25 0 0 0 15 14.25 1.25 1.25 0 0 0 16.25 13 1.25 1.25 0 0 0 15 11.75M12 2A10 10 0 0 0 2 12a10 10 0 0 0 10 10 10 10 0 0 0 10-10A10 10 0 0 0 12 2m0 18c-4.41 0-8-3.59-8-8 0-.29 0-.58.05-.86 2.36-1.05 4.23-2.98 5.21-5.37a9.974 9.974 0 0 0 10.41 3.97c.21.71.33 1.47.33 2.26 0 4.41-3.59 8-8 8Z" transform="matrix(1.5 0 0 1.5 324 252)" id="mdi-face-man" fill="#fff"/><path d="M10.25 13A1.25 1.25 0 0 1 9 14.25 1.25 1.25 0 0 1 7.75 13 1.25 1.25 0 0 1 9 11.75 1.25 1.25 0 0 1 10.25 13M15 11.75A1.25 1.25 0 0 0 13.75 13 1.25 1.25 0 0 0 15 14.25 1.25 1.25 0 0 0 16.25 13 1.25 1.25 0 0 0 15 11.75m7 .25a10 10 0 0 1-10 10A10 10 0 0 1 2 12 10 10 0 0 1 12 2a10 10 0 0 1 10 10M10.66 4.12C12.06 6.44 14.6 8 17.5 8c.46 0 .91-.05 1.34-.12C17.44 5.56 14.9 4 12 4c-.46 0-.91.05-1.34.12M4.42 9.47a8.046 8.046 0 0 0 3.66-4.44 8.046 8.046 0 0 0-3.66 4.44M20 12c0-.78-.12-1.53-.33-2.24-.7.15-1.42.24-2.17.24a10 10 0 0 1-7.76-3.69A10.016 10.016 0 0 1 4 11.86V12c0 4.41 3.59 8 8 8s8-3.59 8-8Z" transform="matrix(1.5 0 0 1.5 360 252)" id="mdi-face-man-outline" fill="#555"/><path d="M10.25 13A1.25 1.25 0 0 1 9 14.25 1.25 1.25 0 0 1 7.75 13 1.25 1.25 0 0 1 9 11.75 1.25 1.25 0 0 1 10.25 13M15 11.75A1.25 1.25 0 0 0 13.75 13 1.25 1.25 0 0 0 15 14.25 1.25 1.25 0 0 0 16.25 13 1.25 1.25 0 0 0 15 11.75m7 .25a10 10 0 0 1-10 10A10 10 0 0 1 2 12 10 10 0 0 1 12 2a10 10 0 0 1 10 10M10.66 4.12C12.06 6.44 14.6 8 17.5 8c.46 0 .91-.05 1.34-.12C17.44 5.56 14.9 4 12 4c-.46 0-.91.05-1.34.12M4.42 9.47a8.046 8.046 0 0 0 3.66-4.44 8.046 8.046 0 0 0-3.66 4.44M20 12c0-.78-.12-1.53-.33-2.24-.7.15-1.42.24-2.17.24a10 10 0 0 1-7.76-3.69A10.016 10.016 0 0 1 4 11.86V12c0 4.41 3.59 8 8 8s8-3.59 8-8Z" transform="matrix(1.5 0 0 1.5 396 252)" id="mdi-face-man-outline" fill="#fff"/><path d="M12 2A10 10 0 0 0 2 12a10 10 0 0 0 10 10 10 10 0 0 0 10-10A10 10 0 0 0 12 2m0 6.39A9.973 9.973 0 0 0 17.42 10c.78 0 1.53-.09 2.25-.26.21.71.33 1.47.33 2.26 0 4.41-3.59 8-8 8-3 0-5.61-1.66-7-4.11L6.75 14v-1A1.25 1.25 0 0 1 8 11.75 1.25 1.25 0 0 1 9.25 13v1H12m4-2.25A1.25 1.25 0 0 0 14.75 13 1.25 1.25 0 0 0 16 14.25 1.25 1.25 0 0 0 17.25 13 1.25 1.25 0 0 0 16 11.75Z" transform="matrix(1.5 0 0 1.5 432 252)" id="mdi-face-man-profile" fill="#555"/><path d="M12 2A10 10 0 0 0 2 12a10 10 0 0 0 10 10 10 10 0 0 0 10-10A10 10 0 0 0 12 2m0 6.39A9.973 9.973 0 0 0 17.42 10c.78 0 1.53-.09 2.25-.26.21.71.33 1.47.33 2.26 0 4.41-3.59 8-8 8-3 0-5.61-1.66-7-4.11L6.75 14v-1A1.25 1.25 0 0 1 8 11.75 1.25 1.25 0 0 1 9.25 13v1H12m4-2.25A1.25 1.25 0 0 0 14.75 13 1.25 1.25 0 0 0 16 14.25 1.25 1.25 0 0 0 17.25 13 1.25 1.25 0 0 0 16 11.75Z" transform="matrix(1.5 0 0 1.5 468 252)" id="mdi-face-man-profile" fill="#fff"/><path d="M18.41 3.41 16 4.5l2.41 1.09L19.5 8l1.1-2.41L23 4.5l-2.4-1.09L19.5 1M12 2C6.5 2 2 6.5 2 12s4.5 10 10 10 10-4.5 10-10c0-1.47-.33-2.87-.9-4.13l-1.24 2.72c.08.46.14.91.14 1.41 0 4.43-3.57 8-8 8s-8-3.57-8-8v-.13a10 10 0 0 0 5.74-5.56A10 10 0 0 0 17.5 10a10 10 0 0 0 1.33-.09l-1.48-3.26L12.6 4.5l3.53-1.6C14.87 2.33 13.47 2 12 2m-3 9.75A1.25 1.25 0 0 0 7.75 13 1.25 1.25 0 0 0 9 14.25 1.25 1.25 0 0 0 10.25 13 1.25 1.25 0 0 0 9 11.75m6 0A1.25 1.25 0 0 0 13.75 13 1.25 1.25 0 0 0 15 14.25 1.25 1.25 0 0 0 16.25 13 1.25 1.25 0 0 0 15 11.75Z" transform="matrix(1.5 0 0 1.5 504 252)" id="mdi-face-man-shimmer" fill="#555"/><path d="M18.41 3.41 16 4.5l2.41 1.09L19.5 8l1.1-2.41L23 4.5l-2.4-1.09L19.5 1M12 2C6.5 2 2 6.5 2 12s4.5 10 10 10 10-4.5 10-10c0-1.47-.33-2.87-.9-4.13l-1.24 2.72c.08.46.14.91.14 1.41 0 4.43-3.57 8-8 8s-8-3.57-8-8v-.13a10 10 0 0 0 5.74-5.56A10 10 0 0 0 17.5 10a10 10 0 0 0 1.33-.09l-1.48-3.26L12.6 4.5l3.53-1.6C14.87 2.33 13.47 2 12 2m-3 9.75A1.25 1.25 0 0 0 7.75 13 1.25 1.25 0 0 0 9 14.25 1.25 1.25 0 0 0 10.25 13 1.25 1.25 0 0 0 9 11.75m6 0A1.25 1.25 0 0 0 13.75 13 1.25 1.25 0 0 0 15 14.25 1.25 1.25 0 0 0 16.25 13 1.25 1.25 0 0 0 15 11.75Z" transform="matrix(1.5 0 0 1.5 540 252)" id="mdi-face-man-shimmer" fill="#fff"/><path d="m19.5 1-1.09 2.41L16 4.5l2.41 1.09L19.5 8l1.1-2.41L23 4.5l-2.4-1.09L19.5 1M12 2C6.5 2 2 6.5 2 12s4.5 10 10 10 10-4.5 10-10c0-1.47-.33-2.87-.9-4.13l-1.24 2.7c.09.47.14.93.14 1.43 0 4.43-3.57 8-8 8s-8-3.57-8-8v-.14a10 10 0 0 0 5.74-5.55 9.994 9.994 0 0 0 9.09 3.6L17.96 8h-.46c-2.82 0-5.4-1.5-6.84-3.88.44-.07.88-.12 1.34-.12.5 0 .96.05 1.42.13l2.71-1.22A9.86 9.86 0 0 0 12 2M8.09 5a8 8 0 0 1-3.68 4.5C5.04 7.57 6.37 6 8.09 5M9 11.75A1.25 1.25 0 0 0 7.75 13 1.25 1.25 0 0 0 9 14.25 1.25 1.25 0 0 0 10.25 13 1.25 1.25 0 0 0 9 11.75m6 0A1.25 1.25 0 0 0 13.75 13 1.25 1.25 0 0 0 15 14.25 1.25 1.25 0 0 0 16.25 13 1.25 1.25 0 0 0 15 11.75Z" transform="matrix(1.5 0 0 1.5 576 252)" id="mdi-face-man-shimmer-outline" fill="#555"/><path d="m19.5 1-1.09 2.41L16 4.5l2.41 1.09L19.5 8l1.1-2.41L23 4.5l-2.4-1.09L19.5 1M12 2C6.5 2 2 6.5 2 12s4.5 10 10 10 10-4.5 10-10c0-1.47-.33-2.87-.9-4.13l-1.24 2.7c.09.47.14.93.14 1.43 0 4.43-3.57 8-8 8s-8-3.57-8-8v-.14a10 10 0 0 0 5.74-5.55 9.994 9.994 0 0 0 9.09 3.6L17.96 8h-.46c-2.82 0-5.4-1.5-6.84-3.88.44-.07.88-.12 1.34-.12.5 0 .96.05 1.42.13l2.71-1.22A9.86 9.86 0 0 0 12 2M8.09 5a8 8 0 0 1-3.68 4.5C5.04 7.57 6.37 6 8.09 5M9 11.75A1.25 1.25 0 0 0 7.75 13 1.25 1.25 0 0 0 9 14.25 1.25 1.25 0 0 0 10.25 13 1.25 1.25 0 0 0 9 11.75m6 0A1.25 1.25 0 0 0 13.75 13 1.25 1.25 0 0 0 15 14.25 1.25 1.25 0 0 0 16.25 13 1.25 1.25 0 0 0 15 11.75Z" transform="matrix(1.5 0 0 1.5 612 252)" id="mdi-face-man-shimmer-outline" fill="#fff"/><path d="M20.25 6c-1.46 0-2.64 1.14-2.75 2.58l-4.95-1.42c-.36-.11-.74-.11-1.1 0L6.5 8.58C6.39 7.14 5.21 6 3.75 6 2.23 6 1 7.23 1 8.75v3.5C1 13.77 2.23 15 3.75 15h1.93c1.13 2.36 3.53 4 6.32 4s5.19-1.64 6.32-4h1.93c1.52 0 2.75-1.23 2.75-2.75v-3.5C23 7.23 21.77 6 20.25 6M5 13.5H3.75c-.69 0-1.25-.56-1.25-1.25v-3.5a1.25 1.25 0 0 1 2.5 0v4.75M15 12l-2.6-.7c-.3-.1-.6-.1-.8 0L9 12v-1l2.3-.7c.4-.1.9-.1 1.4 0l2.3.7v1m6.5.25c0 .69-.56 1.25-1.25 1.25H19V8.75a1.25 1.25 0 0 1 2.5 0v3.5Z" transform="matrix(1.5 0 0 1.5 648 252)" id="mdi-face-mask" fill="#555"/><path d="M20.25 6c-1.46 0-2.64 1.14-2.75 2.58l-4.95-1.42c-.36-.11-.74-.11-1.1 0L6.5 8.58C6.39 7.14 5.21 6 3.75 6 2.23 6 1 7.23 1 8.75v3.5C1 13.77 2.23 15 3.75 15h1.93c1.13 2.36 3.53 4 6.32 4s5.19-1.64 6.32-4h1.93c1.52 0 2.75-1.23 2.75-2.75v-3.5C23 7.23 21.77 6 20.25 6M5 13.5H3.75c-.69 0-1.25-.56-1.25-1.25v-3.5a1.25 1.25 0 0 1 2.5 0v4.75M15 12l-2.6-.7c-.3-.1-.6-.1-.8 0L9 12v-1l2.3-.7c.4-.1.9-.1 1.4 0l2.3.7v1m6.5.25c0 .69-.56 1.25-1.25 1.25H19V8.75a1.25 1.25 0 0 1 2.5 0v3.5Z" transform="matrix(1.5 0 0 1.5 684 252)" id="mdi-face-mask" fill="#fff"/><path d="m15 12-2.6-.7c-.3-.1-.6-.1-.8 0L9 12v-1l2.3-.7c.4-.1.9-.1 1.4 0l2.3.7v1m5.25-6c-1.46 0-2.64 1.14-2.75 2.58l-4.95-1.42c-.18-.05-.36-.08-.55-.08-.18 0-.37.03-.55.08L6.5 8.58C6.39 7.14 5.21 6 3.75 6 2.23 6 1 7.23 1 8.75v3.5C1 13.77 2.23 15 3.75 15h1.93c1.13 2.36 3.53 4 6.32 4s5.19-1.64 6.32-4h1.93c1.52 0 2.75-1.23 2.75-2.75v-3.5C23 7.23 21.77 6 20.25 6M5 13.5H3.75c-.69 0-1.25-.56-1.25-1.25v-3.5a1.25 1.25 0 0 1 2.5 0v4.75M17 12c0 2.76-2.24 5-5 5s-5-2.24-5-5v-1.5l5-1.42 5 1.42V12m4.5.25c0 .69-.56 1.25-1.25 1.25H19V8.75a1.25 1.25 0 0 1 2.5 0v3.5Z" transform="matrix(1.5 0 0 1.5 0 288)" id="mdi-face-mask-outline" fill="#555"/><path d="m15 12-2.6-.7c-.3-.1-.6-.1-.8 0L9 12v-1l2.3-.7c.4-.1.9-.1 1.4 0l2.3.7v1m5.25-6c-1.46 0-2.64 1.14-2.75 2.58l-4.95-1.42c-.18-.05-.36-.08-.55-.08-.18 0-.37.03-.55.08L6.5 8.58C6.39 7.14 5.21 6 3.75 6 2.23 6 1 7.23 1 8.75v3.5C1 13.77 2.23 15 3.75 15h1.93c1.13 2.36 3.53 4 6.32 4s5.19-1.64 6.32-4h1.93c1.52 0 2.75-1.23 2.75-2.75v-3.5C23 7.23 21.77 6 20.25 6M5 13.5H3.75c-.69 0-1.25-.56-1.25-1.25v-3.5a1.25 1.25 0 0 1 2.5 0v4.75M17 12c0 2.76-2.24 5-5 5s-5-2.24-5-5v-1.5l5-1.42 5 1.42V12m4.5.25c0 .69-.56 1.25-1.25 1.25H19V8.75a1.25 1.25 0 0 1 2.5 0v3.5Z" transform="matrix(1.5 0 0 1.5 36 288)" id="mdi-face-mask-outline" fill="#fff"/><path d="M9 11.75A1.25 1.25 0 0 0 7.75 13 1.25 1.25 0 0 0 9 14.25 1.25 1.25 0 0 0 10.25 13 1.25 1.25 0 0 0 9 11.75m6 0A1.25 1.25 0 0 0 13.75 13 1.25 1.25 0 0 0 15 14.25 1.25 1.25 0 0 0 16.25 13 1.25 1.25 0 0 0 15 11.75M12 2A10 10 0 0 0 2 12a10 10 0 0 0 10 10 10 10 0 0 0 10-10A10 10 0 0 0 12 2m0 18a8 8 0 0 1-8-8 4.12 4.12 0 0 1 0-.86 10.05 10.05 0 0 0 5.26-5.37A9.985 9.985 0 0 0 17.42 10c.76 0 1.51-.09 2.25-.26 1.25 4.26-1.17 8.69-5.41 9.93-.76.22-1.5.33-2.26.33M0 2a2 2 0 0 1 2-2h4v2H2v4H0V2m24 20a2 2 0 0 1-2 2h-4v-2h4v-4h2v4M2 24a2 2 0 0 1-2-2v-4h2v4h4v2H2M22 0a2 2 0 0 1 2 2v4h-2V2h-4V0h4Z" transform="matrix(1.5 0 0 1.5 72 288)" id="mdi-face-recognition" fill="#555"/><path d="M9 11.75A1.25 1.25 0 0 0 7.75 13 1.25 1.25 0 0 0 9 14.25 1.25 1.25 0 0 0 10.25 13 1.25 1.25 0 0 0 9 11.75m6 0A1.25 1.25 0 0 0 13.75 13 1.25 1.25 0 0 0 15 14.25 1.25 1.25 0 0 0 16.25 13 1.25 1.25 0 0 0 15 11.75M12 2A10 10 0 0 0 2 12a10 10 0 0 0 10 10 10 10 0 0 0 10-10A10 10 0 0 0 12 2m0 18a8 8 0 0 1-8-8 4.12 4.12 0 0 1 0-.86 10.05 10.05 0 0 0 5.26-5.37A9.985 9.985 0 0 0 17.42 10c.76 0 1.51-.09 2.25-.26 1.25 4.26-1.17 8.69-5.41 9.93-.76.22-1.5.33-2.26.33M0 2a2 2 0 0 1 2-2h4v2H2v4H0V2m24 20a2 2 0 0 1-2 2h-4v-2h4v-4h2v4M2 24a2 2 0 0 1-2-2v-4h2v4h4v2H2M22 0a2 2 0 0 1 2 2v4h-2V2h-4V0h4Z" transform="matrix(1.5 0 0 1.5 108 288)" id="mdi-face-recognition" fill="#fff"/><path d="M13.75 13a1.25 1.25 0 1 1 2.5 0 1.25 1.25 0 0 1-2.5 0M22 12v10H2V12C2 6.5 6.5 2 12 2s10 4.5 10 10M4 12c0 4.41 3.59 8 8 8s8-3.59 8-8c0-.79-.12-1.55-.33-2.26A9.974 9.974 0 0 1 9.26 5.77c-.98 2.39-2.85 4.32-5.21 5.37-.05.28-.05.57-.05.86m5 2.25a1.25 1.25 0 1 0 0-2.5 1.25 1.25 0 0 0 0 2.5Z" transform="matrix(1.5 0 0 1.5 144 288)" id="mdi-face-woman" fill="#555"/><path d="M13.75 13a1.25 1.25 0 1 1 2.5 0 1.25 1.25 0 0 1-2.5 0M22 12v10H2V12C2 6.5 6.5 2 12 2s10 4.5 10 10M4 12c0 4.41 3.59 8 8 8s8-3.59 8-8c0-.79-.12-1.55-.33-2.26A9.974 9.974 0 0 1 9.26 5.77c-.98 2.39-2.85 4.32-5.21 5.37-.05.28-.05.57-.05.86m5 2.25a1.25 1.25 0 1 0 0-2.5 1.25 1.25 0 0 0 0 2.5Z" transform="matrix(1.5 0 0 1.5 180 288)" id="mdi-face-woman" fill="#fff"/><path d="M12 2C6.5 2 2 6.5 2 12v10h20V12c0-5.5-4.5-10-10-10m0 2c2.9 0 5.44 1.56 6.84 3.88-.43.07-.88.12-1.34.12-2.9 0-5.44-1.56-6.84-3.88.43-.07.88-.12 1.34-.12M8.08 5.03a8.046 8.046 0 0 1-3.66 4.44 8.046 8.046 0 0 1 3.66-4.44M4 11.86c2.6-.98 4.69-2.99 5.74-5.55A10 10 0 0 0 17.5 10c.75 0 1.47-.09 2.17-.24.21.71.33 1.46.33 2.24 0 4.41-3.59 8-8 8s-8-3.59-8-8v-.14M4 20v-2c.57.75 1.25 1.43 2 2H4m16 0h-2c.75-.57 1.43-1.25 2-2v2m-6.25-7a1.25 1.25 0 1 1 2.5 0 1.25 1.25 0 0 1-2.5 0m-6 0a1.25 1.25 0 1 1 2.5 0 1.25 1.25 0 0 1-2.5 0Z" transform="matrix(1.5 0 0 1.5 216 288)" id="mdi-face-woman-outline" fill="#555"/><path d="M12 2C6.5 2 2 6.5 2 12v10h20V12c0-5.5-4.5-10-10-10m0 2c2.9 0 5.44 1.56 6.84 3.88-.43.07-.88.12-1.34.12-2.9 0-5.44-1.56-6.84-3.88.43-.07.88-.12 1.34-.12M8.08 5.03a8.046 8.046 0 0 1-3.66 4.44 8.046 8.046 0 0 1 3.66-4.44M4 11.86c2.6-.98 4.69-2.99 5.74-5.55A10 10 0 0 0 17.5 10c.75 0 1.47-.09 2.17-.24.21.71.33 1.46.33 2.24 0 4.41-3.59 8-8 8s-8-3.59-8-8v-.14M4 20v-2c.57.75 1.25 1.43 2 2H4m16 0h-2c.75-.57 1.43-1.25 2-2v2m-6.25-7a1.25 1.25 0 1 1 2.5 0 1.25 1.25 0 0 1-2.5 0m-6 0a1.25 1.25 0 1 1 2.5 0 1.25 1.25 0 0 1-2.5 0Z" transform="matrix(1.5 0 0 1.5 252 288)" id="mdi-face-woman-outline" fill="#fff"/><path d="M17.25 13a1.25 1.25 0 1 1-2.5 0 1.25 1.25 0 0 1 2.5 0M22 12c0 5.5-4.5 10-10 10H2V12C2 6.5 6.5 2 12 2s10 4.5 10 10M7 18c1.41 1.23 3 2 5 2 4.41 0 8-3.59 8-8 0-.79-.12-1.55-.33-2.26-.72.17-1.47.26-2.25.26-2 0-3.85-.6-5.42-1.61 0 0-1.46 5.37-3.97 4.61-.66-.2-1.03.31-1.03 1" transform="matrix(1.5 0 0 1.5 288 288)" id="mdi-face-woman-profile" fill="#555"/><path d="M17.25 13a1.25 1.25 0 1 1-2.5 0 1.25 1.25 0 0 1 2.5 0M22 12c0 5.5-4.5 10-10 10H2V12C2 6.5 6.5 2 12 2s10 4.5 10 10M7 18c1.41 1.23 3 2 5 2 4.41 0 8-3.59 8-8 0-.79-.12-1.55-.33-2.26-.72.17-1.47.26-2.25.26-2 0-3.85-.6-5.42-1.61 0 0-1.46 5.37-3.97 4.61-.66-.2-1.03.31-1.03 1" transform="matrix(1.5 0 0 1.5 324 288)" id="mdi-face-woman-profile" fill="#fff"/><path d="m19.5 1-1.09 2.41L16 4.5l2.41 1.09L19.5 8l1.1-2.41L23 4.5l-2.4-1.09L19.5 1M12 2C6.5 2 2 6.5 2 12v10h20V12c0-1.47-.33-2.87-.9-4.13l-1.24 2.72c.08.46.14.91.14 1.41 0 4.43-3.57 8-8 8s-8-3.57-8-8v-.13a10 10 0 0 0 5.74-5.56A10 10 0 0 0 17.5 10a10 10 0 0 0 1.33-.09l-1.48-3.26L12.6 4.5l3.53-1.6C14.87 2.33 13.47 2 12 2m-3 9.75A1.25 1.25 0 0 0 7.75 13 1.25 1.25 0 0 0 9 14.25 1.25 1.25 0 0 0 10.25 13 1.25 1.25 0 0 0 9 11.75m6 0A1.25 1.25 0 0 0 13.75 13 1.25 1.25 0 0 0 15 14.25 1.25 1.25 0 0 0 16.25 13 1.25 1.25 0 0 0 15 11.75Z" transform="matrix(1.5 0 0 1.5 360 288)" id="mdi-face-woman-shimmer" fill="#555"/><path d="m19.5 1-1.09 2.41L16 4.5l2.41 1.09L19.5 8l1.1-2.41L23 4.5l-2.4-1.09L19.5 1M12 2C6.5 2 2 6.5 2 12v10h20V12c0-1.47-.33-2.87-.9-4.13l-1.24 2.72c.08.46.14.91.14 1.41 0 4.43-3.57 8-8 8s-8-3.57-8-8v-.13a10 10 0 0 0 5.74-5.56A10 10 0 0 0 17.5 10a10 10 0 0 0 1.33-.09l-1.48-3.26L12.6 4.5l3.53-1.6C14.87 2.33 13.47 2 12 2m-3 9.75A1.25 1.25 0 0 0 7.75 13 1.25 1.25 0 0 0 9 14.25 1.25 1.25 0 0 0 10.25 13 1.25 1.25 0 0 0 9 11.75m6 0A1.25 1.25 0 0 0 13.75 13 1.25 1.25 0 0 0 15 14.25 1.25 1.25 0 0 0 16.25 13 1.25 1.25 0 0 0 15 11.75Z" transform="matrix(1.5 0 0 1.5 396 288)" id="mdi-face-woman-shimmer" fill="#fff"/><path d="m19.5 1-1.09 2.41L16 4.5l2.41 1.09L19.5 8l1.1-2.41L23 4.5l-2.4-1.09M12 2C6.5 2 2 6.5 2 12v10h20V12c0-1.47-.33-2.87-.9-4.13l-1.24 2.7c.09.47.14.93.14 1.43 0 4.43-3.57 8-8 8s-8-3.57-8-8v-.14a9.928 9.928 0 0 0 5.74-5.55 9.994 9.994 0 0 0 9.09 3.6L17.96 8h-.46c-2.82 0-5.4-1.5-6.84-3.88.44-.07.88-.12 1.34-.12.5 0 .96.05 1.42.13l2.71-1.22A9.86 9.86 0 0 0 12 2M8.09 5a8.117 8.117 0 0 1-3.68 4.5C5.04 7.57 6.37 6 8.09 5M9 11.75a1.25 1.25 0 1 0 0 2.5 1.25 1.25 0 0 0 0-2.5m6 0a1.25 1.25 0 1 0 0 2.5 1.25 1.25 0 0 0 0-2.5M4 17.97c.58.77 1.26 1.45 2.03 2.03H4m16-2.03V20h-2.03c.77-.58 1.45-1.26 2.03-2.03Z" transform="matrix(1.5 0 0 1.5 432 288)" id="mdi-face-woman-shimmer-outline" fill="#555"/><path d="m19.5 1-1.09 2.41L16 4.5l2.41 1.09L19.5 8l1.1-2.41L23 4.5l-2.4-1.09M12 2C6.5 2 2 6.5 2 12v10h20V12c0-1.47-.33-2.87-.9-4.13l-1.24 2.7c.09.47.14.93.14 1.43 0 4.43-3.57 8-8 8s-8-3.57-8-8v-.14a9.928 9.928 0 0 0 5.74-5.55 9.994 9.994 0 0 0 9.09 3.6L17.96 8h-.46c-2.82 0-5.4-1.5-6.84-3.88.44-.07.88-.12 1.34-.12.5 0 .96.05 1.42.13l2.71-1.22A9.86 9.86 0 0 0 12 2M8.09 5a8.117 8.117 0 0 1-3.68 4.5C5.04 7.57 6.37 6 8.09 5M9 11.75a1.25 1.25 0 1 0 0 2.5 1.25 1.25 0 0 0 0-2.5m6 0a1.25 1.25 0 1 0 0 2.5 1.25 1.25 0 0 0 0-2.5M4 17.97c.58.77 1.26 1.45 2.03 2.03H4m16-2.03V20h-2.03c.77-.58 1.45-1.26 2.03-2.03Z" transform="matrix(1.5 0 0 1.5 468 288)" id="mdi-face-woman-shimmer-outline" fill="#fff"/><path d="M12 2.04c-5.5 0-10 4.49-10 10.02 0 5 3.66 9.15 8.44 9.9v-7H7.9v-2.9h2.54V9.85c0-2.51 1.49-3.89 3.78-3.89 1.09 0 2.23.19 2.23.19v2.47h-1.26c-1.24 0-1.63.77-1.63 1.56v1.88h2.78l-.45 2.9h-2.33v7a10 10 0 0 0 8.44-9.9c0-5.53-4.5-10.02-10-10.02Z" transform="matrix(1.5 0 0 1.5 504 288)" id="mdi-facebook" fill="#555"/><path d="M12 2.04c-5.5 0-10 4.49-10 10.02 0 5 3.66 9.15 8.44 9.9v-7H7.9v-2.9h2.54V9.85c0-2.51 1.49-3.89 3.78-3.89 1.09 0 2.23.19 2.23.19v2.47h-1.26c-1.24 0-1.63.77-1.63 1.56v1.88h2.78l-.45 2.9h-2.33v7a10 10 0 0 0 8.44-9.9c0-5.53-4.5-10.02-10-10.02Z" transform="matrix(1.5 0 0 1.5 540 288)" id="mdi-facebook" fill="#fff"/><path d="M9.5 14.5v-5H21V21h-5.5v-6.5h-6M3 3h18v5.5H8.5v7h6V21H3V3Z" transform="matrix(1.5 0 0 1.5 576 288)" id="mdi-facebook-gaming" fill="#555"/><path d="M9.5 14.5v-5H21V21h-5.5v-6.5h-6M3 3h18v5.5H8.5v7h6V21H3V3Z" transform="matrix(1.5 0 0 1.5 612 288)" id="mdi-facebook-gaming" fill="#fff"/><path d="M12 2C6.36 2 2 6.13 2 11.7c0 2.91 1.19 5.44 3.14 7.17.16.13.26.35.27.57l.05 1.78c.04.57.61.94 1.13.71l1.98-.87c.17-.06.36-.09.53-.06.9.27 1.9.4 2.9.4 5.64 0 10-4.13 10-9.7C22 6.13 17.64 2 12 2m6 7.46-2.93 4.67c-.47.73-1.47.92-2.17.37l-2.34-1.73a.6.6 0 0 0-.72 0l-3.16 2.4c-.42.33-.97-.17-.68-.63l2.93-4.67c.47-.73 1.47-.92 2.17-.4l2.34 1.76a.6.6 0 0 0 .72 0l3.16-2.4c.42-.33.97.17.68.63Z" transform="matrix(1.5 0 0 1.5 648 288)" id="mdi-facebook-messenger" fill="#555"/><path d="M12 2C6.36 2 2 6.13 2 11.7c0 2.91 1.19 5.44 3.14 7.17.16.13.26.35.27.57l.05 1.78c.04.57.61.94 1.13.71l1.98-.87c.17-.06.36-.09.53-.06.9.27 1.9.4 2.9.4 5.64 0 10-4.13 10-9.7C22 6.13 17.64 2 12 2m6 7.46-2.93 4.67c-.47.73-1.47.92-2.17.37l-2.34-1.73a.6.6 0 0 0-.72 0l-3.16 2.4c-.42.33-.97-.17-.68-.63l2.93-4.67c.47-.73 1.47-.92 2.17-.4l2.34 1.76a.6.6 0 0 0 .72 0l3.16-2.4c.42-.33.97.17.68.63Z" transform="matrix(1.5 0 0 1.5 684 288)" id="mdi-facebook-messenger" fill="#fff"/><path d="M19.69 16.12c-.27.31-.74.8-1.5.8-1.06 0-1.41-.77-1.73-1.58l-1.6-3.93-1.6 3.93c-.26.66-.56 1.58-1.73 1.58s-1.46-.92-1.74-1.58L7.11 8.72h2.26l2.16 5.45 1.61-3.97c.25-.63.55-1.58 1.72-1.58 1.14 0 1.46.95 1.72 1.58l1.75 4.3c.89-1.36 1.27-3 1.05-4.61a6.712 6.712 0 0 0-2.24-4.16 6.729 6.729 0 0 0-4.42-1.67c-1.69-.01-3.33.52-4.72 1.5a8.064 8.064 0 0 0-2.88 3.98c-.52 1.6-.52 3.33 0 4.93.52 1.6 1.54 2.99 2.91 3.97 1.37.99 3.01 1.51 4.69 1.5.73 0 1.45-.1 2.15-.3v2.11c-.71.16-1.43.25-2.15.25-2.11 0-4.18-.66-5.9-1.9-1.72-1.24-3-2.99-3.65-5a9.883 9.883 0 0 1-.01-6.2c.66-2.01 1.94-3.76 3.66-5C8.53 2.66 10.6 2 12.72 2c4.84 0 8.78 3.94 8.78 8.79 0 1.92-.64 3.8-1.81 5.33Z" transform="matrix(1.5 0 0 1.5 0 324)" id="mdi-facebook-workplace" fill="#555"/><path d="M19.69 16.12c-.27.31-.74.8-1.5.8-1.06 0-1.41-.77-1.73-1.58l-1.6-3.93-1.6 3.93c-.26.66-.56 1.58-1.73 1.58s-1.46-.92-1.74-1.58L7.11 8.72h2.26l2.16 5.45 1.61-3.97c.25-.63.55-1.58 1.72-1.58 1.14 0 1.46.95 1.72 1.58l1.75 4.3c.89-1.36 1.27-3 1.05-4.61a6.712 6.712 0 0 0-2.24-4.16 6.729 6.729 0 0 0-4.42-1.67c-1.69-.01-3.33.52-4.72 1.5a8.064 8.064 0 0 0-2.88 3.98c-.52 1.6-.52 3.33 0 4.93.52 1.6 1.54 2.99 2.91 3.97 1.37.99 3.01 1.51 4.69 1.5.73 0 1.45-.1 2.15-.3v2.11c-.71.16-1.43.25-2.15.25-2.11 0-4.18-.66-5.9-1.9-1.72-1.24-3-2.99-3.65-5a9.883 9.883 0 0 1-.01-6.2c.66-2.01 1.94-3.76 3.66-5C8.53 2.66 10.6 2 12.72 2c4.84 0 8.78 3.94 8.78 8.79 0 1.92-.64 3.8-1.81 5.33Z" transform="matrix(1.5 0 0 1.5 36 324)" id="mdi-facebook-workplace" fill="#fff"/><path d="M4 18v2h4v-2H4m0-4v2h10v-2H4m6 4v2h4v-2h-4m6-4v2h4v-2h-4m0 4v2h4v-2h-4M2 22V8l5 4V8l5 4V8l5 4 1-10h3l1 10v10H2Z" transform="matrix(1.5 0 0 1.5 72 324)" id="mdi-factory" fill="#555"/><path d="M4 18v2h4v-2H4m0-4v2h10v-2H4m6 4v2h4v-2h-4m6-4v2h4v-2h-4m0 4v2h4v-2h-4M2 22V8l5 4V8l5 4V8l5 4 1-10h3l1 10v10H2Z" transform="matrix(1.5 0 0 1.5 108 324)" id="mdi-factory" fill="#fff"/><path d="M12 1a2.5 2.5 0 0 0-2.5 2.5A2.5 2.5 0 0 0 11 5.79V7H7a2 2 0 0 0-2 2v.71A2.5 2.5 0 0 0 3.5 12 2.5 2.5 0 0 0 5 14.29V15H4a2 2 0 0 0-2 2v1.21A2.5 2.5 0 0 0 .5 20.5 2.5 2.5 0 0 0 3 23a2.5 2.5 0 0 0 2.5-2.5A2.5 2.5 0 0 0 4 18.21V17h4v1.21a2.5 2.5 0 0 0-1.5 2.29A2.5 2.5 0 0 0 9 23a2.5 2.5 0 0 0 2.5-2.5 2.5 2.5 0 0 0-1.5-2.29V17a2 2 0 0 0-2-2H7v-.71A2.5 2.5 0 0 0 8.5 12 2.5 2.5 0 0 0 7 9.71V9h10v.71A2.5 2.5 0 0 0 15.5 12a2.5 2.5 0 0 0 1.5 2.29V15h-1a2 2 0 0 0-2 2v1.21a2.5 2.5 0 0 0-1.5 2.29A2.5 2.5 0 0 0 15 23a2.5 2.5 0 0 0 2.5-2.5 2.5 2.5 0 0 0-1.5-2.29V17h4v1.21a2.5 2.5 0 0 0-1.5 2.29A2.5 2.5 0 0 0 21 23a2.5 2.5 0 0 0 2.5-2.5 2.5 2.5 0 0 0-1.5-2.29V17a2 2 0 0 0-2-2h-1v-.71A2.5 2.5 0 0 0 20.5 12 2.5 2.5 0 0 0 19 9.71V9a2 2 0 0 0-2-2h-4V5.79a2.5 2.5 0 0 0 1.5-2.29A2.5 2.5 0 0 0 12 1m0 1.5a1 1 0 0 1 1 1 1 1 0 0 1-1 1 1 1 0 0 1-1-1 1 1 0 0 1 1-1M6 11a1 1 0 0 1 1 1 1 1 0 0 1-1 1 1 1 0 0 1-1-1 1 1 0 0 1 1-1m12 0a1 1 0 0 1 1 1 1 1 0 0 1-1 1 1 1 0 0 1-1-1 1 1 0 0 1 1-1M3 19.5a1 1 0 0 1 1 1 1 1 0 0 1-1 1 1 1 0 0 1-1-1 1 1 0 0 1 1-1m6 0a1 1 0 0 1 1 1 1 1 0 0 1-1 1 1 1 0 0 1-1-1 1 1 0 0 1 1-1m6 0a1 1 0 0 1 1 1 1 1 0 0 1-1 1 1 1 0 0 1-1-1 1 1 0 0 1 1-1m6 0a1 1 0 0 1 1 1 1 1 0 0 1-1 1 1 1 0 0 1-1-1 1 1 0 0 1 1-1Z" transform="matrix(1.5 0 0 1.5 144 324)" id="mdi-family-tree" fill="#555"/><path d="M12 1a2.5 2.5 0 0 0-2.5 2.5A2.5 2.5 0 0 0 11 5.79V7H7a2 2 0 0 0-2 2v.71A2.5 2.5 0 0 0 3.5 12 2.5 2.5 0 0 0 5 14.29V15H4a2 2 0 0 0-2 2v1.21A2.5 2.5 0 0 0 .5 20.5 2.5 2.5 0 0 0 3 23a2.5 2.5 0 0 0 2.5-2.5A2.5 2.5 0 0 0 4 18.21V17h4v1.21a2.5 2.5 0 0 0-1.5 2.29A2.5 2.5 0 0 0 9 23a2.5 2.5 0 0 0 2.5-2.5 2.5 2.5 0 0 0-1.5-2.29V17a2 2 0 0 0-2-2H7v-.71A2.5 2.5 0 0 0 8.5 12 2.5 2.5 0 0 0 7 9.71V9h10v.71A2.5 2.5 0 0 0 15.5 12a2.5 2.5 0 0 0 1.5 2.29V15h-1a2 2 0 0 0-2 2v1.21a2.5 2.5 0 0 0-1.5 2.29A2.5 2.5 0 0 0 15 23a2.5 2.5 0 0 0 2.5-2.5 2.5 2.5 0 0 0-1.5-2.29V17h4v1.21a2.5 2.5 0 0 0-1.5 2.29A2.5 2.5 0 0 0 21 23a2.5 2.5 0 0 0 2.5-2.5 2.5 2.5 0 0 0-1.5-2.29V17a2 2 0 0 0-2-2h-1v-.71A2.5 2.5 0 0 0 20.5 12 2.5 2.5 0 0 0 19 9.71V9a2 2 0 0 0-2-2h-4V5.79a2.5 2.5 0 0 0 1.5-2.29A2.5 2.5 0 0 0 12 1m0 1.5a1 1 0 0 1 1 1 1 1 0 0 1-1 1 1 1 0 0 1-1-1 1 1 0 0 1 1-1M6 11a1 1 0 0 1 1 1 1 1 0 0 1-1 1 1 1 0 0 1-1-1 1 1 0 0 1 1-1m12 0a1 1 0 0 1 1 1 1 1 0 0 1-1 1 1 1 0 0 1-1-1 1 1 0 0 1 1-1M3 19.5a1 1 0 0 1 1 1 1 1 0 0 1-1 1 1 1 0 0 1-1-1 1 1 0 0 1 1-1m6 0a1 1 0 0 1 1 1 1 1 0 0 1-1 1 1 1 0 0 1-1-1 1 1 0 0 1 1-1m6 0a1 1 0 0 1 1 1 1 1 0 0 1-1 1 1 1 0 0 1-1-1 1 1 0 0 1 1-1m6 0a1 1 0 0 1 1 1 1 1 0 0 1-1 1 1 1 0 0 1-1-1 1 1 0 0 1 1-1Z" transform="matrix(1.5 0 0 1.5 180 324)" id="mdi-family-tree" fill="#fff"/><path d="M12 11a1 1 0 0 0-1 1 1 1 0 0 0 1 1 1 1 0 0 0 1-1 1 1 0 0 0-1-1m.5-9c4.5 0 4.61 3.57 2.25 4.75-.99.49-1.43 1.54-1.62 2.47.48.2.9.51 1.22.91 3.7-2 7.68-1.21 7.68 2.37 0 4.5-3.57 4.6-4.75 2.23-.5-.99-1.56-1.43-2.49-1.62-.2.48-.51.89-.91 1.23 1.99 3.69 1.2 7.66-2.38 7.66-4.5 0-4.59-3.58-2.23-4.76.98-.49 1.42-1.53 1.62-2.45-.49-.2-.92-.52-1.24-.92C5.96 15.85 2 15.07 2 11.5 2 7 5.56 6.89 6.74 9.26c.5.99 1.55 1.42 2.48 1.61.19-.48.51-.9.92-1.22C8.15 5.96 8.94 2 12.5 2Z" transform="matrix(1.5 0 0 1.5 216 324)" id="mdi-fan" fill="#555"/><path d="M12 11a1 1 0 0 0-1 1 1 1 0 0 0 1 1 1 1 0 0 0 1-1 1 1 0 0 0-1-1m.5-9c4.5 0 4.61 3.57 2.25 4.75-.99.49-1.43 1.54-1.62 2.47.48.2.9.51 1.22.91 3.7-2 7.68-1.21 7.68 2.37 0 4.5-3.57 4.6-4.75 2.23-.5-.99-1.56-1.43-2.49-1.62-.2.48-.51.89-.91 1.23 1.99 3.69 1.2 7.66-2.38 7.66-4.5 0-4.59-3.58-2.23-4.76.98-.49 1.42-1.53 1.62-2.45-.49-.2-.92-.52-1.24-.92C5.96 15.85 2 15.07 2 11.5 2 7 5.56 6.89 6.74 9.26c.5.99 1.55 1.42 2.48 1.61.19-.48.51-.9.92-1.22C8.15 5.96 8.94 2 12.5 2Z" transform="matrix(1.5 0 0 1.5 252 324)" id="mdi-fan" fill="#fff"/><path d="M10 11c-.57 0-1 .45-1 1s.43 1 1 1c.54 0 1-.45 1-1s-.46-1-1-1m.5-9c4.5 0 4.59 3.57 2.23 4.75-.99.49-1.43 1.54-1.62 2.47.48.2.89.51 1.22.91 3.7-2 7.67-1.21 7.67 2.37 0 4.5-3.57 4.6-4.74 2.23-.5-.99-1.56-1.43-2.49-1.62-.2.48-.51.89-.91 1.23C13.85 18.03 13.06 22 9.5 22c-4.5 0-4.6-3.58-2.24-4.76.98-.49 1.42-1.53 1.62-2.45-.49-.2-.92-.52-1.24-.92C3.95 15.85 0 15.07 0 11.5 0 7 3.56 6.89 4.73 9.26c.5.99 1.55 1.42 2.48 1.61.19-.48.51-.9.92-1.22C6.14 5.96 6.93 2 10.5 2M22 13V7h2v6h-2m0 4v-2h2v2h-2Z" transform="matrix(1.5 0 0 1.5 288 324)" id="mdi-fan-alert" fill="#555"/><path d="M10 11c-.57 0-1 .45-1 1s.43 1 1 1c.54 0 1-.45 1-1s-.46-1-1-1m.5-9c4.5 0 4.59 3.57 2.23 4.75-.99.49-1.43 1.54-1.62 2.47.48.2.89.51 1.22.91 3.7-2 7.67-1.21 7.67 2.37 0 4.5-3.57 4.6-4.74 2.23-.5-.99-1.56-1.43-2.49-1.62-.2.48-.51.89-.91 1.23C13.85 18.03 13.06 22 9.5 22c-4.5 0-4.6-3.58-2.24-4.76.98-.49 1.42-1.53 1.62-2.45-.49-.2-.92-.52-1.24-.92C3.95 15.85 0 15.07 0 11.5 0 7 3.56 6.89 4.73 9.26c.5.99 1.55 1.42 2.48 1.61.19-.48.51-.9.92-1.22C6.14 5.96 6.93 2 10.5 2M22 13V7h2v6h-2m0 4v-2h2v2h-2Z" transform="matrix(1.5 0 0 1.5 324 324)" id="mdi-fan-alert" fill="#fff"/><path d="M12.5 2c-3.57 0-4.36 3.96-2.37 7.65-.41.32-.73.74-.92 1.22-.93-.19-1.98-.62-2.48-1.61C5.56 6.89 2 7 2 11.5c0 3.57 3.95 4.35 7.64 2.37.32.4.75.72 1.24.92-.2.92-.64 1.96-1.62 2.45C6.9 18.42 7 22 11.5 22c.81 0 1.5-.22 2-.59-.31-.74-.5-1.55-.5-2.41 0-1.41.5-2.7 1.3-3.72-.13-.31-.27-.63-.44-.94.4-.34.71-.75.91-1.23.49.1 1.01.28 1.48.56a5.997 5.997 0 0 1 5.64.07c.06-.37.11-.78.11-1.24 0-3.58-3.97-4.37-7.67-2.37-.33-.4-.74-.71-1.22-.91.19-.93.63-1.98 1.62-2.47C17.09 5.57 17 2 12.5 2m-.5 9c.54 0 1 .45 1 1s-.46 1-1 1c-.57 0-1-.45-1-1s.43-1 1-1m6 4a2 2 0 0 0-2 2v6h2v-2h2v2h2v-6c0-1.1-.9-2-2-2m-2 2h2v2h-2Z" transform="matrix(1.5 0 0 1.5 360 324)" id="mdi-fan-auto" fill="#555"/><path d="M12.5 2c-3.57 0-4.36 3.96-2.37 7.65-.41.32-.73.74-.92 1.22-.93-.19-1.98-.62-2.48-1.61C5.56 6.89 2 7 2 11.5c0 3.57 3.95 4.35 7.64 2.37.32.4.75.72 1.24.92-.2.92-.64 1.96-1.62 2.45C6.9 18.42 7 22 11.5 22c.81 0 1.5-.22 2-.59-.31-.74-.5-1.55-.5-2.41 0-1.41.5-2.7 1.3-3.72-.13-.31-.27-.63-.44-.94.4-.34.71-.75.91-1.23.49.1 1.01.28 1.48.56a5.997 5.997 0 0 1 5.64.07c.06-.37.11-.78.11-1.24 0-3.58-3.97-4.37-7.67-2.37-.33-.4-.74-.71-1.22-.91.19-.93.63-1.98 1.62-2.47C17.09 5.57 17 2 12.5 2m-.5 9c.54 0 1 .45 1 1s-.46 1-1 1c-.57 0-1-.45-1-1s.43-1 1-1m6 4a2 2 0 0 0-2 2v6h2v-2h2v2h2v-6c0-1.1-.9-2-2-2m-2 2h2v2h-2Z" transform="matrix(1.5 0 0 1.5 396 324)" id="mdi-fan-auto" fill="#fff"/><path d="M13 19c0-1.41.5-2.7 1.3-3.72-.13-.31-.27-.63-.44-.94.4-.34.71-.75.91-1.23.49.1 1.01.28 1.48.56a5.997 5.997 0 0 1 5.64.07c.06-.37.11-.78.11-1.24 0-3.58-3.97-4.37-7.67-2.37-.33-.4-.74-.71-1.22-.91.19-.93.63-1.98 1.62-2.47C17.09 5.57 17 2 12.5 2c-3.57 0-4.36 3.96-2.37 7.65-.41.32-.73.74-.92 1.22-.93-.19-1.98-.62-2.48-1.61C5.56 6.89 2 7 2 11.5c0 3.57 3.95 4.35 7.64 2.37.32.4.75.72 1.24.92-.2.92-.64 1.96-1.62 2.45C6.9 18.42 7 22 11.5 22c.81 0 1.5-.22 2-.59-.31-.74-.5-1.55-.5-2.41m-1-6c-.57 0-1-.45-1-1s.43-1 1-1c.54 0 1 .45 1 1s-.46 1-1 1m7 6.17L22.17 16l1.42 1.41L19 22l-4.59-4.59L15.83 16 19 19.17" transform="matrix(1.5 0 0 1.5 432 324)" id="mdi-fan-chevron-down" fill="#555"/><path d="M13 19c0-1.41.5-2.7 1.3-3.72-.13-.31-.27-.63-.44-.94.4-.34.71-.75.91-1.23.49.1 1.01.28 1.48.56a5.997 5.997 0 0 1 5.64.07c.06-.37.11-.78.11-1.24 0-3.58-3.97-4.37-7.67-2.37-.33-.4-.74-.71-1.22-.91.19-.93.63-1.98 1.62-2.47C17.09 5.57 17 2 12.5 2c-3.57 0-4.36 3.96-2.37 7.65-.41.32-.73.74-.92 1.22-.93-.19-1.98-.62-2.48-1.61C5.56 6.89 2 7 2 11.5c0 3.57 3.95 4.35 7.64 2.37.32.4.75.72 1.24.92-.2.92-.64 1.96-1.62 2.45C6.9 18.42 7 22 11.5 22c.81 0 1.5-.22 2-.59-.31-.74-.5-1.55-.5-2.41m-1-6c-.57 0-1-.45-1-1s.43-1 1-1c.54 0 1 .45 1 1s-.46 1-1 1m7 6.17L22.17 16l1.42 1.41L19 22l-4.59-4.59L15.83 16 19 19.17" transform="matrix(1.5 0 0 1.5 468 324)" id="mdi-fan-chevron-down" fill="#fff"/><path d="M13 19c0-1.41.5-2.7 1.3-3.72-.13-.31-.27-.63-.44-.94.4-.34.71-.75.91-1.23.49.1 1.01.28 1.48.56a5.997 5.997 0 0 1 5.64.07c.06-.37.11-.78.11-1.24 0-3.58-3.97-4.37-7.67-2.37-.33-.4-.74-.71-1.22-.91.19-.93.63-1.98 1.62-2.47C17.09 5.57 17 2 12.5 2c-3.57 0-4.36 3.96-2.37 7.65-.41.32-.73.74-.92 1.22-.93-.19-1.98-.62-2.48-1.61C5.56 6.89 2 7 2 11.5c0 3.57 3.95 4.35 7.64 2.37.32.4.75.72 1.24.92-.2.92-.64 1.96-1.62 2.45C6.9 18.42 7 22 11.5 22c.81 0 1.5-.22 2-.59-.31-.74-.5-1.55-.5-2.41m-1-6c-.57 0-1-.45-1-1s.43-1 1-1c.54 0 1 .45 1 1s-.46 1-1 1m7 4.83L15.83 21l-1.42-1.41L19 15l4.59 4.59L22.17 21 19 17.83" transform="matrix(1.5 0 0 1.5 504 324)" id="mdi-fan-chevron-up" fill="#555"/><path d="M13 19c0-1.41.5-2.7 1.3-3.72-.13-.31-.27-.63-.44-.94.4-.34.71-.75.91-1.23.49.1 1.01.28 1.48.56a5.997 5.997 0 0 1 5.64.07c.06-.37.11-.78.11-1.24 0-3.58-3.97-4.37-7.67-2.37-.33-.4-.74-.71-1.22-.91.19-.93.63-1.98 1.62-2.47C17.09 5.57 17 2 12.5 2c-3.57 0-4.36 3.96-2.37 7.65-.41.32-.73.74-.92 1.22-.93-.19-1.98-.62-2.48-1.61C5.56 6.89 2 7 2 11.5c0 3.57 3.95 4.35 7.64 2.37.32.4.75.72 1.24.92-.2.92-.64 1.96-1.62 2.45C6.9 18.42 7 22 11.5 22c.81 0 1.5-.22 2-.59-.31-.74-.5-1.55-.5-2.41m-1-6c-.57 0-1-.45-1-1s.43-1 1-1c.54 0 1 .45 1 1s-.46 1-1 1m7 4.83L15.83 21l-1.42-1.41L19 15l4.59 4.59L22.17 21 19 17.83" transform="matrix(1.5 0 0 1.5 540 324)" id="mdi-fan-chevron-up" fill="#fff"/><path d="M16 14h1.5v2.8l2.4 1.4-.8 1.3-3.1-1.8V14m5-2.7c-.2-3.4-4-4.1-7.7-2.1-.3-.4-.7-.7-1.2-.9.2-.9.6-2 1.6-2.5C16.1 4.6 16 1 11.5 1 7.9 1 7.2 5 9.1 8.7c-.4.3-.7.7-.9 1.2-.9-.2-2-.6-2.5-1.6C4.6 5.9 1 6 1 10.5c0 3.6 4 4.3 7.7 2.4.3.4.8.7 1.2.9-.2.9-.6 2-1.6 2.5C5.9 17.4 6 21 10.5 21c.3 0 .5 0 .7-.1 1.3 1.9 3.4 3.1 5.8 3.1 3.9 0 7-3.1 7-7 0-2.4-1.2-4.5-3-5.7M11 10c.6 0 1 .4 1 1s-.4 1-1 1-1-.4-1-1 .4-1 1-1m6 12c-2.8 0-5-2.2-5-5s2.2-5 5-5 5 2.2 5 5-2.2 5-5 5Z" transform="matrix(1.5 0 0 1.5 576 324)" id="mdi-fan-clock" fill="#555"/><path d="M16 14h1.5v2.8l2.4 1.4-.8 1.3-3.1-1.8V14m5-2.7c-.2-3.4-4-4.1-7.7-2.1-.3-.4-.7-.7-1.2-.9.2-.9.6-2 1.6-2.5C16.1 4.6 16 1 11.5 1 7.9 1 7.2 5 9.1 8.7c-.4.3-.7.7-.9 1.2-.9-.2-2-.6-2.5-1.6C4.6 5.9 1 6 1 10.5c0 3.6 4 4.3 7.7 2.4.3.4.8.7 1.2.9-.2.9-.6 2-1.6 2.5C5.9 17.4 6 21 10.5 21c.3 0 .5 0 .7-.1 1.3 1.9 3.4 3.1 5.8 3.1 3.9 0 7-3.1 7-7 0-2.4-1.2-4.5-3-5.7M11 10c.6 0 1 .4 1 1s-.4 1-1 1-1-.4-1-1 .4-1 1-1m6 12c-2.8 0-5-2.2-5-5s2.2-5 5-5 5 2.2 5 5-2.2 5-5 5Z" transform="matrix(1.5 0 0 1.5 612 324)" id="mdi-fan-clock" fill="#fff"/><path d="M13 19c0-1.41.5-2.7 1.3-3.72-.13-.31-.27-.63-.44-.94.4-.34.71-.75.91-1.23.49.1 1.01.28 1.48.56a5.997 5.997 0 0 1 5.64.07c.06-.37.11-.78.11-1.24 0-3.58-3.97-4.37-7.67-2.37-.33-.4-.74-.71-1.22-.91.19-.93.63-1.98 1.62-2.47C17.09 5.57 17 2 12.5 2c-3.57 0-4.36 3.96-2.37 7.65-.41.32-.73.74-.92 1.22-.93-.19-1.98-.62-2.48-1.61C5.56 6.89 2 7 2 11.5c0 3.57 3.95 4.35 7.64 2.37.32.4.75.72 1.24.92-.2.92-.64 1.96-1.62 2.45C6.9 18.42 7 22 11.5 22c.81 0 1.5-.22 2-.59-.31-.74-.5-1.55-.5-2.41m-1-6c-.57 0-1-.45-1-1s.43-1 1-1c.54 0 1 .45 1 1s-.46 1-1 1m11 5v2h-8v-2h8Z" transform="matrix(1.5 0 0 1.5 648 324)" id="mdi-fan-minus" fill="#555"/><path d="M13 19c0-1.41.5-2.7 1.3-3.72-.13-.31-.27-.63-.44-.94.4-.34.71-.75.91-1.23.49.1 1.01.28 1.48.56a5.997 5.997 0 0 1 5.64.07c.06-.37.11-.78.11-1.24 0-3.58-3.97-4.37-7.67-2.37-.33-.4-.74-.71-1.22-.91.19-.93.63-1.98 1.62-2.47C17.09 5.57 17 2 12.5 2c-3.57 0-4.36 3.96-2.37 7.65-.41.32-.73.74-.92 1.22-.93-.19-1.98-.62-2.48-1.61C5.56 6.89 2 7 2 11.5c0 3.57 3.95 4.35 7.64 2.37.32.4.75.72 1.24.92-.2.92-.64 1.96-1.62 2.45C6.9 18.42 7 22 11.5 22c.81 0 1.5-.22 2-.59-.31-.74-.5-1.55-.5-2.41m-1-6c-.57 0-1-.45-1-1s.43-1 1-1c.54 0 1 .45 1 1s-.46 1-1 1m11 5v2h-8v-2h8Z" transform="matrix(1.5 0 0 1.5 684 324)" id="mdi-fan-minus" fill="#fff"/></svg>