<svg xmlns="http://www.w3.org/2000/svg" width="720" height="900"><path d="M20 19.88V22l-1.8-1.17-4.79-9c.66-.21 1.26-.55 1.78-1L20 19.88M15 7a3 3 0 0 1-3 3h-.44L5.8 20.83 4 22v-2.12L9.79 9c-1.1-1.23-1-3.13.24-4.24C10.57 4.28 11.27 4 12 4V2a1 1 0 0 1 1 1v1.18c1.2.42 2 1.55 2 2.82m-2 0a1 1 0 0 0-1-1 1 1 0 0 0-1 1 1 1 0 0 0 1 1 1 1 0 0 0 1-1Z" transform="scale(1.5)" id="mdi-math-compass" fill="#555"/><path d="M20 19.88V22l-1.8-1.17-4.79-9c.66-.21 1.26-.55 1.78-1L20 19.88M15 7a3 3 0 0 1-3 3h-.44L5.8 20.83 4 22v-2.12L9.79 9c-1.1-1.23-1-3.13.24-4.24C10.57 4.28 11.27 4 12 4V2a1 1 0 0 1 1 1v1.18c1.2.42 2 1.55 2 2.82m-2 0a1 1 0 0 0-1-1 1 1 0 0 0-1 1 1 1 0 0 0 1 1 1 1 0 0 0 1-1Z" transform="translate(36) scale(1.5)" id="mdi-math-compass" fill="#fff"/><path d="M4 7a2 2 0 0 0-2 2v6a2 2 0 0 0 2 2h2a2 2 0 0 0 2-2v-1H6v1H4V9h2v1h2V9a2 2 0 0 0-2-2H4m7 0a2 2 0 0 0-2 2v6a2 2 0 0 0 2 2h2a2 2 0 0 0 2-2V9a2 2 0 0 0-2-2h-2m0 2h2v6h-2V9m7-2a2 2 0 0 0-2 2v2a2 2 0 0 0 2 2h2v2h-4v2h4a2 2 0 0 0 2-2v-2a2 2 0 0 0-2-2h-2V9h4V7h-4Z" transform="translate(72) scale(1.5)" id="mdi-math-cos" fill="#555"/><path d="M4 7a2 2 0 0 0-2 2v6a2 2 0 0 0 2 2h2a2 2 0 0 0 2-2v-1H6v1H4V9h2v1h2V9a2 2 0 0 0-2-2H4m7 0a2 2 0 0 0-2 2v6a2 2 0 0 0 2 2h2a2 2 0 0 0 2-2V9a2 2 0 0 0-2-2h-2m0 2h2v6h-2V9m7-2a2 2 0 0 0-2 2v2a2 2 0 0 0 2 2h2v2h-4v2h4a2 2 0 0 0 2-2v-2a2 2 0 0 0-2-2h-2V9h4V7h-4Z" transform="translate(108) scale(1.5)" id="mdi-math-cos" fill="#fff"/><path d="M11.5 19.1c-.2 1.1-.6 1.9-1.3 2.4-.7.5-1.6.6-2.7.4-.4-.1-1.2-.2-1.5-.4l.5-1.5c.3.1.9.3 1.2.3 1.1.2 1.7-.3 1.9-1.5L12 5.2c.2-1.2.7-2 1.4-2.6.7-.5 1.7-.7 2.8-.5.4.1 1.2.2 1.8.5L17.5 4c-.2-.1-.9-.2-1.2-.3-1.3-.2-2 .4-2.3 1.9l-2.5 13.5Z" transform="translate(144) scale(1.5)" id="mdi-math-integral" fill="#555"/><path d="M11.5 19.1c-.2 1.1-.6 1.9-1.3 2.4-.7.5-1.6.6-2.7.4-.4-.1-1.2-.2-1.5-.4l.5-1.5c.3.1.9.3 1.2.3 1.1.2 1.7-.3 1.9-1.5L12 5.2c.2-1.2.7-2 1.4-2.6.7-.5 1.7-.7 2.8-.5.4.1 1.2.2 1.8.5L17.5 4c-.2-.1-.9-.2-1.2-.3-1.3-.2-2 .4-2.3 1.9l-2.5 13.5Z" transform="translate(180) scale(1.5)" id="mdi-math-integral" fill="#fff"/><path d="M19 3H5c-1.1 0-2 .9-2 2v14c0 1.1.9 2 2 2h14c1.1 0 2-.9 2-2V5c0-1.1-.9-2-2-2m-3.1 3.9s-.7-.3-1-.3c-.6-.1-1 .1-1.2 1.1L12 16.8c-.2.8-.5 1.4-1 1.8-.4.3-.8.4-1.3.4-.8 0-2-.5-2-.5l.5-1.4s.8.3 1 .3c.3.1.5 0 .7-.1.2-.1.3-.4.4-.7l1.6-9.2c.1-.8.5-1.4 1-1.9.6-.4 1.3-.5 2.1-.4.7.1 1.5.5 1.5.5l-.6 1.3Z" transform="translate(216) scale(1.5)" id="mdi-math-integral-box" fill="#555"/><path d="M19 3H5c-1.1 0-2 .9-2 2v14c0 1.1.9 2 2 2h14c1.1 0 2-.9 2-2V5c0-1.1-.9-2-2-2m-3.1 3.9s-.7-.3-1-.3c-.6-.1-1 .1-1.2 1.1L12 16.8c-.2.8-.5 1.4-1 1.8-.4.3-.8.4-1.3.4-.8 0-2-.5-2-.5l.5-1.4s.8.3 1 .3c.3.1.5 0 .7-.1.2-.1.3-.4.4-.7l1.6-9.2c.1-.8.5-1.4 1-1.9.6-.4 1.3-.5 2.1-.4.7.1 1.5.5 1.5.5l-.6 1.3Z" transform="translate(252) scale(1.5)" id="mdi-math-integral-box" fill="#fff"/><path d="M18 7c-1.1 0-2 .9-2 2v6c0 1.1.9 2 2 2h2c1.1 0 2-.9 2-2v-4h-2v4h-2V9h4V7h-4M2 7v10h6v-2H4V7H2m9 0c-1.1 0-2 .9-2 2v6c0 1.1.9 2 2 2h2c1.1 0 2-.9 2-2V9c0-1.1-.9-2-2-2h-2m0 2h2v6h-2V9Z" transform="translate(288) scale(1.5)" id="mdi-math-log" fill="#555"/><path d="M18 7c-1.1 0-2 .9-2 2v6c0 1.1.9 2 2 2h2c1.1 0 2-.9 2-2v-4h-2v4h-2V9h4V7h-4M2 7v10h6v-2H4V7H2m9 0c-1.1 0-2 .9-2 2v6c0 1.1.9 2 2 2h2c1.1 0 2-.9 2-2V9c0-1.1-.9-2-2-2h-2m0 2h2v6h-2V9Z" transform="translate(324) scale(1.5)" id="mdi-math-log" fill="#fff"/><path d="M14 21V3h2v18h-2m-6 0V3h2v18H8Z" transform="translate(360) scale(1.5)" id="mdi-math-norm" fill="#555"/><path d="M14 21V3h2v18h-2m-6 0V3h2v18H8Z" transform="translate(396) scale(1.5)" id="mdi-math-norm" fill="#fff"/><path d="M19 3H5c-1.1 0-2 .9-2 2v14c0 1.1.9 2 2 2h14c1.1 0 2-.9 2-2V5c0-1.1-.9-2-2-2m-9 15H8V6h2v12m6 0h-2V6h2v12Z" transform="translate(432) scale(1.5)" id="mdi-math-norm-box" fill="#555"/><path d="M19 3H5c-1.1 0-2 .9-2 2v14c0 1.1.9 2 2 2h14c1.1 0 2-.9 2-2V5c0-1.1-.9-2-2-2m-9 15H8V6h2v12m6 0h-2V6h2v12Z" transform="translate(468) scale(1.5)" id="mdi-math-norm-box" fill="#fff"/><path d="M4 7a2 2 0 0 0-2 2v2a2 2 0 0 0 2 2h2v2H2v2h4a2 2 0 0 0 2-2v-2a2 2 0 0 0-2-2H4V9h4V7H4m10 0v2h-1v6h1v2h-4v-2h1V9h-1V7h4m2 0v10h2v-5l2 5h2V7h-2v5l-2-5h-2Z" transform="translate(504) scale(1.5)" id="mdi-math-sin" fill="#555"/><path d="M4 7a2 2 0 0 0-2 2v2a2 2 0 0 0 2 2h2v2H2v2h4a2 2 0 0 0 2-2v-2a2 2 0 0 0-2-2H4V9h4V7H4m10 0v2h-1v6h1v2h-4v-2h1V9h-1V7h4m2 0v10h2v-5l2 5h2V7h-2v5l-2-5h-2Z" transform="translate(540) scale(1.5)" id="mdi-math-sin" fill="#fff"/><path d="M2 7v2h2v8h2V9h2V7H2m9 0a2 2 0 0 0-2 2v8h2v-4h2v4h2V9a2 2 0 0 0-2-2h-2m0 2h2v2h-2V9m5-2v10h2v-5l2 5h2V7h-2v5l-2-5h-2Z" transform="translate(576) scale(1.5)" id="mdi-math-tan" fill="#555"/><path d="M2 7v2h2v8h2V9h2V7H2m9 0a2 2 0 0 0-2 2v8h2v-4h2v4h2V9a2 2 0 0 0-2-2h-2m0 2h2v2h-2V9m5-2v10h2v-5l2 5h2V7h-2v5l-2-5h-2Z" transform="translate(612) scale(1.5)" id="mdi-math-tan" fill="#fff"/><path d="M2 2h4v2H4v16h2v2H2V2m18 2h-2V2h4v20h-4v-2h2V4M9 5h1v5h1v1H8v-1h1V6l-1 .5v-1L9 5m6 8h1v5h1v1h-3v-1h1v-4l-1 .5v-1l1-.5m-6 0c1.1 0 2 1.34 2 3s-.9 3-2 3-2-1.34-2-3 .9-3 2-3m0 1c-.55 0-1 .9-1 2s.45 2 1 2 1-.9 1-2-.45-2-1-2m6-9c1.1 0 2 1.34 2 3s-.9 3-2 3-2-1.34-2-3 .9-3 2-3m0 1c-.55 0-1 .9-1 2s.45 2 1 2 1-.9 1-2-.45-2-1-2Z" transform="translate(648) scale(1.5)" id="mdi-matrix" fill="#555"/><path d="M2 2h4v2H4v16h2v2H2V2m18 2h-2V2h4v20h-4v-2h2V4M9 5h1v5h1v1H8v-1h1V6l-1 .5v-1L9 5m6 8h1v5h1v1h-3v-1h1v-4l-1 .5v-1l1-.5m-6 0c1.1 0 2 1.34 2 3s-.9 3-2 3-2-1.34-2-3 .9-3 2-3m0 1c-.55 0-1 .9-1 2s.45 2 1 2 1-.9 1-2-.45-2-1-2m6-9c1.1 0 2 1.34 2 3s-.9 3-2 3-2-1.34-2-3 .9-3 2-3m0 1c-.55 0-1 .9-1 2s.45 2 1 2 1-.9 1-2-.45-2-1-2Z" transform="translate(684) scale(1.5)" id="mdi-matrix" fill="#fff"/><path d="M20 2H4v2l5.81 4.36a7.004 7.004 0 0 0-4.46 8.84 6.996 6.996 0 0 0 8.84 4.46 7 7 0 0 0 0-13.3L20 4V2m-5.06 17.5L12 17.78 9.06 19.5l.78-3.33-2.59-2.24 3.41-.29L12 10.5l1.34 3.14 3.41.29-2.59 2.24.78 3.33Z" transform="matrix(1.5 0 0 1.5 0 36)" id="mdi-medal" fill="#555"/><path d="M20 2H4v2l5.81 4.36a7.004 7.004 0 0 0-4.46 8.84 6.996 6.996 0 0 0 8.84 4.46 7 7 0 0 0 0-13.3L20 4V2m-5.06 17.5L12 17.78 9.06 19.5l.78-3.33-2.59-2.24 3.41-.29L12 10.5l1.34 3.14 3.41.29-2.59 2.24.78 3.33Z" transform="matrix(1.5 0 0 1.5 36 36)" id="mdi-medal" fill="#fff"/><path d="M14.94 19.5 12 17.77 9.06 19.5l.78-3.34-2.59-2.24 3.41-.29L12 10.5l1.34 3.13 3.41.29-2.59 2.24M20 2H4v2l4.86 3.64a8 8 0 1 0 6.28 0L20 4m-2 11a6 6 0 1 1-7.18-5.88 5.86 5.86 0 0 1 2.36 0A6 6 0 0 1 18 15m-5.37-8h-1.26l-4-3h9.34Z" transform="matrix(1.5 0 0 1.5 72 36)" id="mdi-medal-outline" fill="#555"/><path d="M14.94 19.5 12 17.77 9.06 19.5l.78-3.34-2.59-2.24 3.41-.29L12 10.5l1.34 3.13 3.41.29-2.59 2.24M20 2H4v2l4.86 3.64a8 8 0 1 0 6.28 0L20 4m-2 11a6 6 0 1 1-7.18-5.88 5.86 5.86 0 0 1 2.36 0A6 6 0 0 1 18 15m-5.37-8h-1.26l-4-3h9.34Z" transform="matrix(1.5 0 0 1.5 108 36)" id="mdi-medal-outline" fill="#fff"/><path d="M10 3 8 5v2H5C3.85 7 3.12 8 3 9L2 19c-.12 1 .54 2 2 2h16c1.46 0 2.12-1 2-2L21 9c-.12-1-.94-2-2-2h-3V5l-2-2h-4m0 2h4v2h-4V5m1 5h2v3h3v2h-3v3h-2v-3H8v-2h3v-3Z" transform="matrix(1.5 0 0 1.5 144 36)" id="mdi-medical-bag" fill="#555"/><path d="M10 3 8 5v2H5C3.85 7 3.12 8 3 9L2 19c-.12 1 .54 2 2 2h16c1.46 0 2.12-1 2-2L21 9c-.12-1-.94-2-2-2h-3V5l-2-2h-4m0 2h4v2h-4V5m1 5h2v3h3v2h-3v3h-2v-3H8v-2h3v-3Z" transform="matrix(1.5 0 0 1.5 180 36)" id="mdi-medical-bag" fill="#fff"/><path d="M12 4c1.11 0 2 .89 2 2s-.89 2-2 2-2-.89-2-2 .9-2 2-2m9 12v-2c-2.24 0-4.16-.96-5.6-2.68l-1.34-1.6A1.98 1.98 0 0 0 12.53 9H11.5c-.61 0-1.17.26-1.55.72l-1.34 1.6C7.16 13.04 5.24 14 3 14v2c2.77 0 5.19-1.17 7-3.25V15l-3.88 1.55c-.67.27-1.12.95-1.12 1.66C5 19.2 5.8 20 6.79 20H9v-.5a2.5 2.5 0 0 1 2.5-2.5h3c.28 0 .5.22.5.5s-.22.5-.5.5h-3c-.83 0-1.5.67-1.5 1.5v.5h7.21c.99 0 1.79-.8 1.79-1.79 0-.71-.45-1.39-1.12-1.66L14 15v-2.25c1.81 2.08 4.23 3.25 7 3.25Z" transform="matrix(1.5 0 0 1.5 216 36)" id="mdi-meditation" fill="#555"/><path d="M12 4c1.11 0 2 .89 2 2s-.89 2-2 2-2-.89-2-2 .9-2 2-2m9 12v-2c-2.24 0-4.16-.96-5.6-2.68l-1.34-1.6A1.98 1.98 0 0 0 12.53 9H11.5c-.61 0-1.17.26-1.55.72l-1.34 1.6C7.16 13.04 5.24 14 3 14v2c2.77 0 5.19-1.17 7-3.25V15l-3.88 1.55c-.67.27-1.12.95-1.12 1.66C5 19.2 5.8 20 6.79 20H9v-.5a2.5 2.5 0 0 1 2.5-2.5h3c.28 0 .5.22.5.5s-.22.5-.5.5h-3c-.83 0-1.5.67-1.5 1.5v.5h7.21c.99 0 1.79-.8 1.79-1.79 0-.71-.45-1.39-1.12-1.66L14 15v-2.25c1.81 2.08 4.23 3.25 7 3.25Z" transform="matrix(1.5 0 0 1.5 252 36)" id="mdi-meditation" fill="#fff"/><path d="M17 17H7V7h10m4 4V9h-2V7a2 2 0 0 0-2-2h-2V3h-2v2h-2V3H9v2H7c-1.11 0-2 .89-2 2v2H3v2h2v2H3v2h2v2a2 2 0 0 0 2 2h2v2h2v-2h2v2h2v-2h2a2 2 0 0 0 2-2v-2h2v-2h-2v-2m-6 2h-2v-2h2m2-2H9v6h6V9Z" transform="matrix(1.5 0 0 1.5 288 36)" id="mdi-memory" fill="#555"/><path d="M17 17H7V7h10m4 4V9h-2V7a2 2 0 0 0-2-2h-2V3h-2v2h-2V3H9v2H7c-1.11 0-2 .89-2 2v2H3v2h2v2H3v2h2v2a2 2 0 0 0 2 2h2v2h2v-2h2v2h2v-2h2a2 2 0 0 0 2-2v-2h2v-2h-2v-2m-6 2h-2v-2h2m2-2H9v6h6V9Z" transform="matrix(1.5 0 0 1.5 324 36)" id="mdi-memory" fill="#fff"/><path d="M21 11V6l-2-1v6h-2V6l-2-1v6h-2V3l-2-1v9H9V6L7 5v6H5V6L3 5v6c-.55 0-1 .45-1 1s.45 1 1 1h1.25c.7 1.92 2.69 4.58 6.75 4.95V20h-1c-1.1 0-2 .9-2 2h8a2 2 0 0 0-2-2h-1v-2.05c4.06-.38 6.05-3.03 6.75-4.95H21c.55 0 1-.45 1-1s-.45-1-1-1m-10 4.94c-2.66-.31-3.95-1.83-4.55-2.94H11v2.94m2 0V13h4.55c-.6 1.11-1.89 2.63-4.55 2.94Z" transform="matrix(1.5 0 0 1.5 360 36)" id="mdi-menorah" fill="#555"/><path d="M21 11V6l-2-1v6h-2V6l-2-1v6h-2V3l-2-1v9H9V6L7 5v6H5V6L3 5v6c-.55 0-1 .45-1 1s.45 1 1 1h1.25c.7 1.92 2.69 4.58 6.75 4.95V20h-1c-1.1 0-2 .9-2 2h8a2 2 0 0 0-2-2h-1v-2.05c4.06-.38 6.05-3.03 6.75-4.95H21c.55 0 1-.45 1-1s-.45-1-1-1m-10 4.94c-2.66-.31-3.95-1.83-4.55-2.94H11v2.94m2 0V13h4.55c-.6 1.11-1.89 2.63-4.55 2.94Z" transform="matrix(1.5 0 0 1.5 396 36)" id="mdi-menorah" fill="#fff"/><path d="M21.5 11.15V10c0-.55-.45-1-1-1h-1c-.55 0-1 .45-1 1v1h-1v-1c0-.55-.45-1-1-1h-1c-.55 0-1 .45-1 1v1h-1V8c0-.55-.45-1-1-1h-1c-.55 0-1 .45-1 1v3h-1v-1c0-.55-.45-1-1-1h-1c-.55 0-1 .45-1 1v1h-1v-1c0-.55-.45-1-1-1h-1c-.55 0-1 .45-1 1v1.15c-.29.18-.5.48-.5.85 0 .55.45 1 1 1h1.25c.7 1.92 2.69 4.58 6.75 4.95V20h-1c-1.1 0-2 .9-2 2h8a2 2 0 0 0-2-2h-1v-2.05c4.06-.38 6.05-3.03 6.75-4.95H21c.55 0 1-.45 1-1 0-.37-.21-.67-.5-.85M6.45 13H11v2.94c-2.66-.31-3.95-1.83-4.55-2.94M13 15.94V13h4.55c-.6 1.11-1.89 2.63-4.55 2.94M12 6c.83 0 1.5-.67 1.5-1.5S12.83 2 12 2s-1.5 1.67-1.5 2.5c0 .83.67 1.5 1.5 1.5m0-1.75c.28 0 .5.22.5.5s-.22.5-.5.5-.5-.22-.5-.5.22-.5.5-.5M16 8c.83 0 1.5-.67 1.5-1.5S16.83 4 16 4s-1.5 1.67-1.5 2.5c0 .83.67 1.5 1.5 1.5m0-1.75c.28 0 .5.22.5.5s-.22.5-.5.5-.5-.22-.5-.5.22-.5.5-.5M20 8c.83 0 1.5-.67 1.5-1.5S20.83 4 20 4s-1.5 1.67-1.5 2.5c0 .83.67 1.5 1.5 1.5m0-1.75c.28 0 .5.22.5.5s-.22.5-.5.5-.5-.22-.5-.5.22-.5.5-.5M4 8c.83 0 1.5-.67 1.5-1.5S4.83 4 4 4 2.5 5.67 2.5 6.5C2.5 7.33 3.17 8 4 8m0-1.75c.28 0 .5.22.5.5s-.22.5-.5.5-.5-.22-.5-.5.22-.5.5-.5M8 8c.83 0 1.5-.67 1.5-1.5S8.83 4 8 4 6.5 5.67 6.5 6.5C6.5 7.33 7.17 8 8 8m0-1.75c.28 0 .5.22.5.5s-.22.5-.5.5-.5-.22-.5-.5.22-.5.5-.5Z" transform="matrix(1.5 0 0 1.5 432 36)" id="mdi-menorah-fire" fill="#555"/><path d="M21.5 11.15V10c0-.55-.45-1-1-1h-1c-.55 0-1 .45-1 1v1h-1v-1c0-.55-.45-1-1-1h-1c-.55 0-1 .45-1 1v1h-1V8c0-.55-.45-1-1-1h-1c-.55 0-1 .45-1 1v3h-1v-1c0-.55-.45-1-1-1h-1c-.55 0-1 .45-1 1v1h-1v-1c0-.55-.45-1-1-1h-1c-.55 0-1 .45-1 1v1.15c-.29.18-.5.48-.5.85 0 .55.45 1 1 1h1.25c.7 1.92 2.69 4.58 6.75 4.95V20h-1c-1.1 0-2 .9-2 2h8a2 2 0 0 0-2-2h-1v-2.05c4.06-.38 6.05-3.03 6.75-4.95H21c.55 0 1-.45 1-1 0-.37-.21-.67-.5-.85M6.45 13H11v2.94c-2.66-.31-3.95-1.83-4.55-2.94M13 15.94V13h4.55c-.6 1.11-1.89 2.63-4.55 2.94M12 6c.83 0 1.5-.67 1.5-1.5S12.83 2 12 2s-1.5 1.67-1.5 2.5c0 .83.67 1.5 1.5 1.5m0-1.75c.28 0 .5.22.5.5s-.22.5-.5.5-.5-.22-.5-.5.22-.5.5-.5M16 8c.83 0 1.5-.67 1.5-1.5S16.83 4 16 4s-1.5 1.67-1.5 2.5c0 .83.67 1.5 1.5 1.5m0-1.75c.28 0 .5.22.5.5s-.22.5-.5.5-.5-.22-.5-.5.22-.5.5-.5M20 8c.83 0 1.5-.67 1.5-1.5S20.83 4 20 4s-1.5 1.67-1.5 2.5c0 .83.67 1.5 1.5 1.5m0-1.75c.28 0 .5.22.5.5s-.22.5-.5.5-.5-.22-.5-.5.22-.5.5-.5M4 8c.83 0 1.5-.67 1.5-1.5S4.83 4 4 4 2.5 5.67 2.5 6.5C2.5 7.33 3.17 8 4 8m0-1.75c.28 0 .5.22.5.5s-.22.5-.5.5-.5-.22-.5-.5.22-.5.5-.5M8 8c.83 0 1.5-.67 1.5-1.5S8.83 4 8 4 6.5 5.67 6.5 6.5C6.5 7.33 7.17 8 8 8m0-1.75c.28 0 .5.22.5.5s-.22.5-.5.5-.5-.22-.5-.5.22-.5.5-.5Z" transform="matrix(1.5 0 0 1.5 468 36)" id="mdi-menorah-fire" fill="#fff"/><path d="M3 6h18v2H3V6m0 5h18v2H3v-2m0 5h18v2H3v-2Z" transform="matrix(1.5 0 0 1.5 504 36)" id="mdi-menu" fill="#555"/><path d="M3 6h18v2H3V6m0 5h18v2H3v-2m0 5h18v2H3v-2Z" transform="matrix(1.5 0 0 1.5 540 36)" id="mdi-menu" fill="#fff"/><path d="m7 10 5 5 5-5H7Z" transform="matrix(1.5 0 0 1.5 576 36)" id="mdi-menu-down" fill="#555"/><path d="m7 10 5 5 5-5H7Z" transform="matrix(1.5 0 0 1.5 612 36)" id="mdi-menu-down" fill="#fff"/><path d="M18 9v1.5l-6 6-6-6V9h12m-6 4.67L14.67 11H9.33L12 13.67Z" transform="matrix(1.5 0 0 1.5 648 36)" id="mdi-menu-down-outline" fill="#555"/><path d="M18 9v1.5l-6 6-6-6V9h12m-6 4.67L14.67 11H9.33L12 13.67Z" transform="matrix(1.5 0 0 1.5 684 36)" id="mdi-menu-down-outline" fill="#fff"/><path d="m14 7-5 5 5 5V7Z" transform="matrix(1.5 0 0 1.5 0 72)" id="mdi-menu-left" fill="#555"/><path d="m14 7-5 5 5 5V7Z" transform="matrix(1.5 0 0 1.5 36 72)" id="mdi-menu-left" fill="#fff"/><path d="M15 18h-1.5l-6-6 6-6H15v12m-4.67-6L13 14.67V9.33L10.33 12Z" transform="matrix(1.5 0 0 1.5 72 72)" id="mdi-menu-left-outline" fill="#555"/><path d="M15 18h-1.5l-6-6 6-6H15v12m-4.67-6L13 14.67V9.33L10.33 12Z" transform="matrix(1.5 0 0 1.5 108 72)" id="mdi-menu-left-outline" fill="#fff"/><path d="M21 15.61 19.59 17l-5.01-5 5.01-5L21 8.39 17.44 12 21 15.61M3 6h13v2H3V6m0 7v-2h10v2H3m0 5v-2h13v2H3Z" transform="matrix(1.5 0 0 1.5 144 72)" id="mdi-menu-open" fill="#555"/><path d="M21 15.61 19.59 17l-5.01-5 5.01-5L21 8.39 17.44 12 21 15.61M3 6h13v2H3V6m0 7v-2h10v2H3m0 5v-2h13v2H3Z" transform="matrix(1.5 0 0 1.5 180 72)" id="mdi-menu-open" fill="#fff"/><path d="m10 17 5-5-5-5v10Z" transform="matrix(1.5 0 0 1.5 216 72)" id="mdi-menu-right" fill="#555"/><path d="m10 17 5-5-5-5v10Z" transform="matrix(1.5 0 0 1.5 252 72)" id="mdi-menu-right" fill="#fff"/><path d="M9 6h1.5l6 6-6 6H9V6m4.67 6L11 9.33v5.34L13.67 12Z" transform="matrix(1.5 0 0 1.5 288 72)" id="mdi-menu-right-outline" fill="#555"/><path d="M9 6h1.5l6 6-6 6H9V6m4.67 6L11 9.33v5.34L13.67 12Z" transform="matrix(1.5 0 0 1.5 324 72)" id="mdi-menu-right-outline" fill="#fff"/><path d="m12 6-5 5h10l-5-5m-5 7 5 5 5-5H7Z" transform="matrix(1.5 0 0 1.5 360 72)" id="mdi-menu-swap" fill="#555"/><path d="m12 6-5 5h10l-5-5m-5 7 5 5 5-5H7Z" transform="matrix(1.5 0 0 1.5 396 72)" id="mdi-menu-swap" fill="#fff"/><path d="m12 3.5-6 6V11h12V9.5l-6-6m0 2.83L14.67 9H9.33L12 6.33M6 13v1.5l6 6 6-6V13H6m3.33 2h5.34L12 17.67 9.33 15Z" transform="matrix(1.5 0 0 1.5 432 72)" id="mdi-menu-swap-outline" fill="#555"/><path d="m12 3.5-6 6V11h12V9.5l-6-6m0 2.83L14.67 9H9.33L12 6.33M6 13v1.5l6 6 6-6V13H6m3.33 2h5.34L12 17.67 9.33 15Z" transform="matrix(1.5 0 0 1.5 468 72)" id="mdi-menu-swap-outline" fill="#fff"/><path d="m7 15 5-5 5 5H7Z" transform="matrix(1.5 0 0 1.5 504 72)" id="mdi-menu-up" fill="#555"/><path d="m7 15 5-5 5 5H7Z" transform="matrix(1.5 0 0 1.5 540 72)" id="mdi-menu-up" fill="#fff"/><path d="M18 16v-1.5l-6-6-6 6V16h12m-6-4.67L14.67 14H9.33L12 11.33Z" transform="matrix(1.5 0 0 1.5 576 72)" id="mdi-menu-up-outline" fill="#555"/><path d="M18 16v-1.5l-6-6-6 6V16h12m-6-4.67L14.67 14H9.33L12 11.33Z" transform="matrix(1.5 0 0 1.5 612 72)" id="mdi-menu-up-outline" fill="#fff"/><path d="m8 17 4-4h3.2c.4 1.2 1.5 2 2.8 2 1.7 0 3-1.3 3-3s-1.3-3-3-3c-1.3 0-2.4.8-2.8 2H12L8 7V3H3v5h3l4.2 4L6 16H3v5h5v-4Z" transform="matrix(1.5 0 0 1.5 648 72)" id="mdi-merge" fill="#555"/><path d="m8 17 4-4h3.2c.4 1.2 1.5 2 2.8 2 1.7 0 3-1.3 3-3s-1.3-3-3-3c-1.3 0-2.4.8-2.8 2H12L8 7V3H3v5h3l4.2 4L6 16H3v5h5v-4Z" transform="matrix(1.5 0 0 1.5 684 72)" id="mdi-merge" fill="#fff"/><path d="M20 2H4a2 2 0 0 0-2 2v18l4-4h14a2 2 0 0 0 2-2V4a2 2 0 0 0-2-2Z" transform="matrix(1.5 0 0 1.5 0 108)" id="mdi-message" fill="#555"/><path d="M20 2H4a2 2 0 0 0-2 2v18l4-4h14a2 2 0 0 0 2-2V4a2 2 0 0 0-2-2Z" transform="matrix(1.5 0 0 1.5 36 108)" id="mdi-message" fill="#fff"/><path d="M13 11h-2V5h2m0 10h-2v-2h2m7-11H4c-1.1 0-2 .9-2 2v18l4-4h14c1.1 0 2-.9 2-2V4c0-1.1-.9-2-2-2Z" transform="matrix(1.5 0 0 1.5 72 108)" id="mdi-message-alert" fill="#555"/><path d="M13 11h-2V5h2m0 10h-2v-2h2m7-11H4c-1.1 0-2 .9-2 2v18l4-4h14c1.1 0 2-.9 2-2V4c0-1.1-.9-2-2-2Z" transform="matrix(1.5 0 0 1.5 108 108)" id="mdi-message-alert" fill="#fff"/><path d="M13 10h-2V6h2v4m0 2h-2v2h2v-2m9-8v12a2 2 0 0 1-2 2H6l-4 4V4a2 2 0 0 1 2-2h16a2 2 0 0 1 2 2m-2 0H4v13.2L5.2 16H20V4Z" transform="matrix(1.5 0 0 1.5 144 108)" id="mdi-message-alert-outline" fill="#555"/><path d="M13 10h-2V6h2v4m0 2h-2v2h2v-2m9-8v12a2 2 0 0 1-2 2H6l-4 4V4a2 2 0 0 1 2-2h16a2 2 0 0 1 2 2m-2 0H4v13.2L5.2 16H20V4Z" transform="matrix(1.5 0 0 1.5 180 108)" id="mdi-message-alert-outline" fill="#fff"/><path d="M20 2H4c-1.1 0-2 .9-2 2v18l4-4h14c1.1 0 2-.9 2-2V4c0-1.1-.9-2-2-2m-4 9h-4.5l1.8 1.8L12 14l-4-4 4-4 1.2 1.2L11.5 9H16v2Z" transform="matrix(1.5 0 0 1.5 216 108)" id="mdi-message-arrow-left" fill="#555"/><path d="M20 2H4c-1.1 0-2 .9-2 2v18l4-4h14c1.1 0 2-.9 2-2V4c0-1.1-.9-2-2-2m-4 9h-4.5l1.8 1.8L12 14l-4-4 4-4 1.2 1.2L11.5 9H16v2Z" transform="matrix(1.5 0 0 1.5 252 108)" id="mdi-message-arrow-left" fill="#fff"/><path d="M20 2H4c-1.1 0-2 .9-2 2v18l4-4h14c1.1 0 2-.9 2-2V4c0-1.1-.9-2-2-2m0 14H5.2L4 17.2V4h16v12m-4-5V9h-4.5l1.8-1.8L12 6l-4 4 4 4 1.2-1.2-1.7-1.8H16Z" transform="matrix(1.5 0 0 1.5 288 108)" id="mdi-message-arrow-left-outline" fill="#555"/><path d="M20 2H4c-1.1 0-2 .9-2 2v18l4-4h14c1.1 0 2-.9 2-2V4c0-1.1-.9-2-2-2m0 14H5.2L4 17.2V4h16v12m-4-5V9h-4.5l1.8-1.8L12 6l-4 4 4 4 1.2-1.2-1.7-1.8H16Z" transform="matrix(1.5 0 0 1.5 324 108)" id="mdi-message-arrow-left-outline" fill="#fff"/><path d="M20 2H4c-1.1 0-2 .9-2 2v18l4-4h14c1.1 0 2-.9 2-2V4c0-1.1-.9-2-2-2m-8 12-1.2-1.2 1.8-1.8H8V9h4.5l-1.8-1.8L12 6l4 4-4 4Z" transform="matrix(1.5 0 0 1.5 360 108)" id="mdi-message-arrow-right" fill="#555"/><path d="M20 2H4c-1.1 0-2 .9-2 2v18l4-4h14c1.1 0 2-.9 2-2V4c0-1.1-.9-2-2-2m-8 12-1.2-1.2 1.8-1.8H8V9h4.5l-1.8-1.8L12 6l4 4-4 4Z" transform="matrix(1.5 0 0 1.5 396 108)" id="mdi-message-arrow-right" fill="#fff"/><path d="M20 2H4c-1.1 0-2 .9-2 2v18l4-4h14c1.1 0 2-.9 2-2V4c0-1.1-.9-2-2-2m0 14H5.2L4 17.2V4h16v12M8 9v2h4.5l-1.8 1.8L12 14l4-4-4-4-1.2 1.2L12.5 9H8Z" transform="matrix(1.5 0 0 1.5 432 108)" id="mdi-message-arrow-right-outline" fill="#555"/><path d="M20 2H4c-1.1 0-2 .9-2 2v18l4-4h14c1.1 0 2-.9 2-2V4c0-1.1-.9-2-2-2m0 14H5.2L4 17.2V4h16v12M8 9v2h4.5l-1.8 1.8L12 14l4-4-4-4-1.2 1.2L12.5 9H8Z" transform="matrix(1.5 0 0 1.5 468 108)" id="mdi-message-arrow-right-outline" fill="#fff"/><path d="M22 7v9c0 1.1-.9 2-2 2H6l-4 4V4c0-1.1.9-2 2-2h10.1c-.1.3-.1.7-.1 1 0 2.8 2.2 5 5 5 1.1 0 2.2-.4 3-1m-6-4c0 1.7 1.3 3 3 3s3-1.3 3-3-1.3-3-3-3-3 1.3-3 3Z" transform="matrix(1.5 0 0 1.5 504 108)" id="mdi-message-badge" fill="#555"/><path d="M22 7v9c0 1.1-.9 2-2 2H6l-4 4V4c0-1.1.9-2 2-2h10.1c-.1.3-.1.7-.1 1 0 2.8 2.2 5 5 5 1.1 0 2.2-.4 3-1m-6-4c0 1.7 1.3 3 3 3s3-1.3 3-3-1.3-3-3-3-3 1.3-3 3Z" transform="matrix(1.5 0 0 1.5 540 108)" id="mdi-message-badge" fill="#fff"/><path d="M22 7v9c0 1.1-.9 2-2 2H6l-4 4V4c0-1.1.9-2 2-2h10.1c-.1.3-.1.7-.1 1s0 .7.1 1H4v12h16V7.9c.7-.1 1.4-.5 2-.9m-6-4c0 1.7 1.3 3 3 3s3-1.3 3-3-1.3-3-3-3-3 1.3-3 3Z" transform="matrix(1.5 0 0 1.5 576 108)" id="mdi-message-badge-outline" fill="#555"/><path d="M22 7v9c0 1.1-.9 2-2 2H6l-4 4V4c0-1.1.9-2 2-2h10.1c-.1.3-.1.7-.1 1s0 .7.1 1H4v12h16V7.9c.7-.1 1.4-.5 2-.9m-6-4c0 1.7 1.3 3 3 3s3-1.3 3-3-1.3-3-3-3-3 1.3-3 3Z" transform="matrix(1.5 0 0 1.5 612 108)" id="mdi-message-badge-outline" fill="#fff"/><path d="M20 2H4c-1.1 0-2 .9-2 2v18l4-4h14c1.1 0 2-.9 2-2V4c0-1.1-.9-2-2-2m-1 11-2.5-1.5L14 13V5h5v8Z" transform="matrix(1.5 0 0 1.5 648 108)" id="mdi-message-bookmark" fill="#555"/><path d="M20 2H4c-1.1 0-2 .9-2 2v18l4-4h14c1.1 0 2-.9 2-2V4c0-1.1-.9-2-2-2m-1 11-2.5-1.5L14 13V5h5v8Z" transform="matrix(1.5 0 0 1.5 684 108)" id="mdi-message-bookmark" fill="#fff"/><path d="M20 2H4c-1.1 0-2 .9-2 2v18l4-4h14c1.1 0 2-.9 2-2V4c0-1.1-.9-2-2-2m0 14H5.2L4 17.2V4h16v12m-2-2V6h-5v8l2.5-1.5L18 14" transform="matrix(1.5 0 0 1.5 0 144)" id="mdi-message-bookmark-outline" fill="#555"/><path d="M20 2H4c-1.1 0-2 .9-2 2v18l4-4h14c1.1 0 2-.9 2-2V4c0-1.1-.9-2-2-2m0 14H5.2L4 17.2V4h16v12m-2-2V6h-5v8l2.5-1.5L18 14" transform="matrix(1.5 0 0 1.5 36 144)" id="mdi-message-bookmark-outline" fill="#fff"/><path d="M20 2H4a2 2 0 0 0-2 2v18l4-4h14a2 2 0 0 0 2-2V4a2 2 0 0 0-2-2M8 14H6v-2h2v2m0-3H6V9h2v2m0-3H6V6h2v2m7 6h-5v-2h5v2m3-3h-8V9h8v2m0-3h-8V6h8v2Z" transform="matrix(1.5 0 0 1.5 72 144)" id="mdi-message-bulleted" fill="#555"/><path d="M20 2H4a2 2 0 0 0-2 2v18l4-4h14a2 2 0 0 0 2-2V4a2 2 0 0 0-2-2M8 14H6v-2h2v2m0-3H6V9h2v2m0-3H6V6h2v2m7 6h-5v-2h5v2m3-3h-8V9h8v2m0-3h-8V6h8v2Z" transform="matrix(1.5 0 0 1.5 108 144)" id="mdi-message-bulleted" fill="#fff"/><path d="M1.27 1.73 0 3l2 2v17l4-4h9l5.73 5.73L22 22.46 1.27 1.73M8 14H6v-2h2v2m-2-3V9l2 2H6m14-9H4.08L10 7.92V6h8v2h-7.92l1 1H18v2h-4.92l6.99 7c1.07-.05 1.93-.92 1.93-2V4a2 2 0 0 0-2-2Z" transform="matrix(1.5 0 0 1.5 144 144)" id="mdi-message-bulleted-off" fill="#555"/><path d="M1.27 1.73 0 3l2 2v17l4-4h9l5.73 5.73L22 22.46 1.27 1.73M8 14H6v-2h2v2m-2-3V9l2 2H6m14-9H4.08L10 7.92V6h8v2h-7.92l1 1H18v2h-4.92l6.99 7c1.07-.05 1.93-.92 1.93-2V4a2 2 0 0 0-2-2Z" transform="matrix(1.5 0 0 1.5 180 144)" id="mdi-message-bulleted-off" fill="#fff"/><path d="M13.5 10a1.5 1.5 0 0 1-1.5 1.5c-.84 0-1.5-.67-1.5-1.5A1.5 1.5 0 0 1 12 8.5a1.5 1.5 0 0 1 1.5 1.5M22 4v12a2 2 0 0 1-2 2H6l-4 4V4a2 2 0 0 1 2-2h16a2 2 0 0 1 2 2m-5.23 7.32-1.07-.82c.01-.17.01-.34 0-.5.02-.16.02-.33 0-.5l1.06-.82a.26.26 0 0 0 .06-.32l-1-1.73c-.06-.13-.19-.16-.32-.13l-1.23.5c-.27-.2-.54-.37-.85-.5l-.19-1.31A.235.235 0 0 0 13 5h-2c-.12 0-.23.09-.25.21l-.19 1.32c-.3.12-.59.28-.86.47l-1.24-.5c-.12-.04-.25 0-.31.11l-1 1.73c-.06.11-.04.24.06.32l1.06.84c-.04.32-.04.66 0 1l-1.06.82a.26.26 0 0 0-.06.32l1 1.73c.06.13.19.16.31.13L9.7 13c.26.2.54.37.85.5l.19 1.31c.03.12.14.19.26.19h2c.12 0 .23-.09.25-.21l.19-1.32c.3-.13.56-.29.84-.47l1.25.5c.12 0 .25 0 .31-.13l1-1.73a.25.25 0 0 0-.07-.32Z" transform="matrix(1.5 0 0 1.5 216 144)" id="mdi-message-cog" fill="#555"/><path d="M13.5 10a1.5 1.5 0 0 1-1.5 1.5c-.84 0-1.5-.67-1.5-1.5A1.5 1.5 0 0 1 12 8.5a1.5 1.5 0 0 1 1.5 1.5M22 4v12a2 2 0 0 1-2 2H6l-4 4V4a2 2 0 0 1 2-2h16a2 2 0 0 1 2 2m-5.23 7.32-1.07-.82c.01-.17.01-.34 0-.5.02-.16.02-.33 0-.5l1.06-.82a.26.26 0 0 0 .06-.32l-1-1.73c-.06-.13-.19-.16-.32-.13l-1.23.5c-.27-.2-.54-.37-.85-.5l-.19-1.31A.235.235 0 0 0 13 5h-2c-.12 0-.23.09-.25.21l-.19 1.32c-.3.12-.59.28-.86.47l-1.24-.5c-.12-.04-.25 0-.31.11l-1 1.73c-.06.11-.04.24.06.32l1.06.84c-.04.32-.04.66 0 1l-1.06.82a.26.26 0 0 0-.06.32l1 1.73c.06.13.19.16.31.13L9.7 13c.26.2.54.37.85.5l.19 1.31c.03.12.14.19.26.19h2c.12 0 .23-.09.25-.21l.19-1.32c.3-.13.56-.29.84-.47l1.25.5c.12 0 .25 0 .31-.13l1-1.73a.25.25 0 0 0-.07-.32Z" transform="matrix(1.5 0 0 1.5 252 144)" id="mdi-message-cog" fill="#fff"/><path d="M20 2H4c-1.1 0-2 .9-2 2v18l4-4h14c1.1 0 2-.9 2-2V4c0-1.1-.9-2-2-2m0 14H5.2L4 17.2V4h16v12m-3.2-4.7-1.1-.8v-1l1.1-.8c.1-.1.1-.2.1-.3l-1-1.7c-.1-.1-.2-.2-.3-.1l-1.3.4c-.3-.2-.5-.4-.9-.5l-.2-1.3c0-.1-.1-.2-.2-.2h-2c-.1 0-.2.1-.2.2l-.2 1.3c-.3.2-.6.3-.9.5l-1.2-.5c-.1 0-.2 0-.3.1l-1 1.7c-.1.1 0 .2.1.3l1.1.8v1l-1.1.8c-.1.1-.1.2-.1.3l1 1.7c.1.1.2.2.3.1l1.2-.3c.3.2.5.4.8.5l.2 1.3c0 .1.1.2.3.2h2c.1 0 .2-.1.2-.2l.2-1.3c.3-.1.6-.3.8-.5l1.2.5c.1 0 .2 0 .3-.1l1-1.7c.2-.2.2-.3.1-.4m-4.8.2c-.8 0-1.5-.7-1.5-1.5s.7-1.5 1.5-1.5 1.5.7 1.5 1.5-.7 1.5-1.5 1.5Z" transform="matrix(1.5 0 0 1.5 288 144)" id="mdi-message-cog-outline" fill="#555"/><path d="M20 2H4c-1.1 0-2 .9-2 2v18l4-4h14c1.1 0 2-.9 2-2V4c0-1.1-.9-2-2-2m0 14H5.2L4 17.2V4h16v12m-3.2-4.7-1.1-.8v-1l1.1-.8c.1-.1.1-.2.1-.3l-1-1.7c-.1-.1-.2-.2-.3-.1l-1.3.4c-.3-.2-.5-.4-.9-.5l-.2-1.3c0-.1-.1-.2-.2-.2h-2c-.1 0-.2.1-.2.2l-.2 1.3c-.3.2-.6.3-.9.5l-1.2-.5c-.1 0-.2 0-.3.1l-1 1.7c-.1.1 0 .2.1.3l1.1.8v1l-1.1.8c-.1.1-.1.2-.1.3l1 1.7c.1.1.2.2.3.1l1.2-.3c.3.2.5.4.8.5l.2 1.3c0 .1.1.2.3.2h2c.1 0 .2-.1.2-.2l.2-1.3c.3-.1.6-.3.8-.5l1.2.5c.1 0 .2 0 .3-.1l1-1.7c.2-.2.2-.3.1-.4m-4.8.2c-.8 0-1.5-.7-1.5-1.5s.7-1.5 1.5-1.5 1.5.7 1.5 1.5-.7 1.5-1.5 1.5Z" transform="matrix(1.5 0 0 1.5 324 144)" id="mdi-message-cog-outline" fill="#fff"/><path d="M18 14h-7.5l2-2H18M6 14v-2.5l6.88-6.86c.19-.19.51-.19.71 0l1.76 1.77c.2.2.2.51 0 .71L8.47 14M20 2H4a2 2 0 0 0-2 2v18l4-4h14a2 2 0 0 0 2-2V4a2 2 0 0 0-2-2Z" transform="matrix(1.5 0 0 1.5 360 144)" id="mdi-message-draw" fill="#555"/><path d="M18 14h-7.5l2-2H18M6 14v-2.5l6.88-6.86c.19-.19.51-.19.71 0l1.76 1.77c.2.2.2.51 0 .71L8.47 14M20 2H4a2 2 0 0 0-2 2v18l4-4h14a2 2 0 0 0 2-2V4a2 2 0 0 0-2-2Z" transform="matrix(1.5 0 0 1.5 396 144)" id="mdi-message-draw" fill="#fff"/><path d="M3 7c-.6 0-1 .4-1 1s.4 1 1 1h2V7H3m-1 4c-.6 0-1 .4-1 1s.4 1 1 1h3v-2H2m-1 4c-.6 0-1 .4-1 1s.4 1 1 1h4v-2H1M20 5H9c-1.1 0-2 .9-2 2v14l4-4h9c1.1 0 2-.9 2-2V7c0-1.1-.9-2-2-2Z" transform="matrix(1.5 0 0 1.5 432 144)" id="mdi-message-fast" fill="#555"/><path d="M3 7c-.6 0-1 .4-1 1s.4 1 1 1h2V7H3m-1 4c-.6 0-1 .4-1 1s.4 1 1 1h3v-2H2m-1 4c-.6 0-1 .4-1 1s.4 1 1 1h4v-2H1M20 5H9c-1.1 0-2 .9-2 2v14l4-4h9c1.1 0 2-.9 2-2V7c0-1.1-.9-2-2-2Z" transform="matrix(1.5 0 0 1.5 468 144)" id="mdi-message-fast" fill="#fff"/><path d="M20 5H9c-1.1 0-2 .9-2 2v14l4-4h9c1.1 0 2-.9 2-2V7c0-1.1-.9-2-2-2m0 10h-9.8L9 16.2V7h11v8M3 7c-.6 0-1 .4-1 1s.4 1 1 1h2V7H3m-1 4c-.6 0-1 .4-1 1s.4 1 1 1h3v-2H2m-1 4c-.6 0-1 .4-1 1s.4 1 1 1h4v-2H1Z" transform="matrix(1.5 0 0 1.5 504 144)" id="mdi-message-fast-outline" fill="#555"/><path d="M20 5H9c-1.1 0-2 .9-2 2v14l4-4h9c1.1 0 2-.9 2-2V7c0-1.1-.9-2-2-2m0 10h-9.8L9 16.2V7h11v8M3 7c-.6 0-1 .4-1 1s.4 1 1 1h2V7H3m-1 4c-.6 0-1 .4-1 1s.4 1 1 1h3v-2H2m-1 4c-.6 0-1 .4-1 1s.4 1 1 1h4v-2H1Z" transform="matrix(1.5 0 0 1.5 540 144)" id="mdi-message-fast-outline" fill="#fff"/><path d="M22 4c0-1.1-.9-2-2-2H4c-1.1 0-2 .9-2 2v18l4-4h9v-8h7V4m.5 12h-2.2l1.7-4h-5v6h2v5l3.5-7Z" transform="matrix(1.5 0 0 1.5 576 144)" id="mdi-message-flash" fill="#555"/><path d="M22 4c0-1.1-.9-2-2-2H4c-1.1 0-2 .9-2 2v18l4-4h9v-8h7V4m.5 12h-2.2l1.7-4h-5v6h2v5l3.5-7Z" transform="matrix(1.5 0 0 1.5 612 144)" id="mdi-message-flash" fill="#fff"/><path d="M4 17.2V4h16v6h2V4c0-1.1-.9-2-2-2H4c-1.1 0-2 .9-2 2v18l4-4h9v-2H5.2L4 17.2M22.5 16h-2.2l1.7-4h-5v6h2v5l3.5-7Z" transform="matrix(1.5 0 0 1.5 648 144)" id="mdi-message-flash-outline" fill="#555"/><path d="M4 17.2V4h16v6h2V4c0-1.1-.9-2-2-2H4c-1.1 0-2 .9-2 2v18l4-4h9v-2H5.2L4 17.2M22.5 16h-2.2l1.7-4h-5v6h2v5l3.5-7Z" transform="matrix(1.5 0 0 1.5 684 144)" id="mdi-message-flash-outline" fill="#fff"/><path d="m5 14 3.5-4.5 2.5 3L14.5 8l4.5 6m1-12H4a2 2 0 0 0-2 2v18l4-4h14a2 2 0 0 0 2-2V4a2 2 0 0 0-2-2Z" transform="matrix(1.5 0 0 1.5 0 180)" id="mdi-message-image" fill="#555"/><path d="m5 14 3.5-4.5 2.5 3L14.5 8l4.5 6m1-12H4a2 2 0 0 0-2 2v18l4-4h14a2 2 0 0 0 2-2V4a2 2 0 0 0-2-2Z" transform="matrix(1.5 0 0 1.5 36 180)" id="mdi-message-image" fill="#fff"/><path d="M20 2H4c-1.1 0-2 .9-2 2v18l4-4h14c1.1 0 2-.9 2-2V4c0-1.1-.9-2-2-2m0 14H5.2L4 17.2V4h16v12M5 14l3.5-4.5 2.5 3L14.5 8l4.5 6" transform="matrix(1.5 0 0 1.5 72 180)" id="mdi-message-image-outline" fill="#555"/><path d="M20 2H4c-1.1 0-2 .9-2 2v18l4-4h14c1.1 0 2-.9 2-2V4c0-1.1-.9-2-2-2m0 14H5.2L4 17.2V4h16v12M5 14l3.5-4.5 2.5 3L14.5 8l4.5 6" transform="matrix(1.5 0 0 1.5 108 180)" id="mdi-message-image-outline" fill="#fff"/><path d="M20.5 0A2.5 2.5 0 0 0 18 2.5V3a1 1 0 0 0-1 1v4a1 1 0 0 0 1 1h5a1 1 0 0 0 1-1V4a1 1 0 0 0-1-1v-.5A2.5 2.5 0 0 0 20.5 0m0 1A1.5 1.5 0 0 1 22 2.5V3h-3v-.5A1.5 1.5 0 0 1 20.5 1M4 2a2 2 0 0 0-2 2v18l4-4h14a2 2 0 0 0 2-2v-5h-5c-1.11 0-2-.89-2-2V2H4Z" transform="matrix(1.5 0 0 1.5 144 180)" id="mdi-message-lock" fill="#555"/><path d="M20.5 0A2.5 2.5 0 0 0 18 2.5V3a1 1 0 0 0-1 1v4a1 1 0 0 0 1 1h5a1 1 0 0 0 1-1V4a1 1 0 0 0-1-1v-.5A2.5 2.5 0 0 0 20.5 0m0 1A1.5 1.5 0 0 1 22 2.5V3h-3v-.5A1.5 1.5 0 0 1 20.5 1M4 2a2 2 0 0 0-2 2v18l4-4h14a2 2 0 0 0 2-2v-5h-5c-1.11 0-2-.89-2-2V2H4Z" transform="matrix(1.5 0 0 1.5 180 180)" id="mdi-message-lock" fill="#fff"/><path d="M23 3v-.5C23 1.1 21.9 0 20.5 0S18 1.1 18 2.5V3c-.5 0-1 .5-1 1v4c0 .5.5 1 1 1h5c.5 0 1-.5 1-1V4c0-.5-.5-1-1-1m-1 0h-3v-.5c0-.8.7-1.5 1.5-1.5s1.5.7 1.5 1.5V3m0 8v5c0 1.1-.9 2-2 2H6l-4 4V4c0-1.1.9-2 2-2h11v2H4v13.2L5.2 16H20v-5h2Z" transform="matrix(1.5 0 0 1.5 216 180)" id="mdi-message-lock-outline" fill="#555"/><path d="M23 3v-.5C23 1.1 21.9 0 20.5 0S18 1.1 18 2.5V3c-.5 0-1 .5-1 1v4c0 .5.5 1 1 1h5c.5 0 1-.5 1-1V4c0-.5-.5-1-1-1m-1 0h-3v-.5c0-.8.7-1.5 1.5-1.5s1.5.7 1.5 1.5V3m0 8v5c0 1.1-.9 2-2 2H6l-4 4V4c0-1.1.9-2 2-2h11v2H4v13.2L5.2 16H20v-5h2Z" transform="matrix(1.5 0 0 1.5 252 180)" id="mdi-message-lock-outline" fill="#fff"/><path d="M20 2a2 2 0 0 1 2 2v12c0 1.11-.89 2-2 2H6l-4 4V4a2 2 0 0 1 2-2h16M8 9v2h8V9H8Z" transform="matrix(1.5 0 0 1.5 288 180)" id="mdi-message-minus" fill="#555"/><path d="M20 2a2 2 0 0 1 2 2v12c0 1.11-.89 2-2 2H6l-4 4V4a2 2 0 0 1 2-2h16M8 9v2h8V9H8Z" transform="matrix(1.5 0 0 1.5 324 180)" id="mdi-message-minus" fill="#fff"/><path d="M20 2H4c-1.1 0-2 .9-2 2v18l4-4h14c1.1 0 2-.9 2-2V4c0-1.1-.9-2-2-2m0 14H5.2L4 17.2V4h16v12M8 9v2h8V9H8Z" transform="matrix(1.5 0 0 1.5 360 180)" id="mdi-message-minus-outline" fill="#555"/><path d="M20 2H4c-1.1 0-2 .9-2 2v18l4-4h14c1.1 0 2-.9 2-2V4c0-1.1-.9-2-2-2m0 14H5.2L4 17.2V4h16v12M8 9v2h8V9H8Z" transform="matrix(1.5 0 0 1.5 396 180)" id="mdi-message-minus-outline" fill="#fff"/><path d="M20.95 17.75 5.2 2H20a2 2 0 0 1 2 2v12c0 .76-.43 1.41-1.05 1.75M2.39 1.73 1.11 3l.89.9V22l4-4h10.11l4.73 4.73 1.27-1.27L2.39 1.73Z" transform="matrix(1.5 0 0 1.5 432 180)" id="mdi-message-off" fill="#555"/><path d="M20.95 17.75 5.2 2H20a2 2 0 0 1 2 2v12c0 .76-.43 1.41-1.05 1.75M2.39 1.73 1.11 3l.89.9V22l4-4h10.11l4.73 4.73 1.27-1.27L2.39 1.73Z" transform="matrix(1.5 0 0 1.5 468 180)" id="mdi-message-off" fill="#fff"/><path d="m7.2 4-2-2H20a2 2 0 0 1 2 2v12c0 .76-.43 1.41-1.05 1.75L19.2 16h.8V4H7.2m14.91 17.46-1.27 1.27L16.11 18H6l-4 4V3.9L1.11 3l1.28-1.27L6.1 5.44 16.65 16h.01l2 2h-.01l3.46 3.46m-8-5.46L4 5.89V18l2-2h8.11Z" transform="matrix(1.5 0 0 1.5 504 180)" id="mdi-message-off-outline" fill="#555"/><path d="m7.2 4-2-2H20a2 2 0 0 1 2 2v12c0 .76-.43 1.41-1.05 1.75L19.2 16h.8V4H7.2m14.91 17.46-1.27 1.27L16.11 18H6l-4 4V3.9L1.11 3l1.28-1.27L6.1 5.44 16.65 16h.01l2 2h-.01l3.46 3.46m-8-5.46L4 5.89V18l2-2h8.11Z" transform="matrix(1.5 0 0 1.5 540 180)" id="mdi-message-off-outline" fill="#fff"/><path d="M20 2H4c-1.1 0-2 .9-2 2v18l4-4h14c1.1 0 2-.9 2-2V4c0-1.1-.9-2-2-2m0 14H5.2L4 17.2V4h16v12Z" transform="matrix(1.5 0 0 1.5 576 180)" id="mdi-message-outline" fill="#555"/><path d="M20 2H4c-1.1 0-2 .9-2 2v18l4-4h14c1.1 0 2-.9 2-2V4c0-1.1-.9-2-2-2m0 14H5.2L4 17.2V4h16v12Z" transform="matrix(1.5 0 0 1.5 612 180)" id="mdi-message-outline" fill="#fff"/><path d="M20 2a2 2 0 0 1 2 2v12a2 2 0 0 1-2 2H6l-4 4V4a2 2 0 0 1 2-2h16m-9 4v3H8v2h3v3h2v-3h3V9h-3V6h-2Z" transform="matrix(1.5 0 0 1.5 648 180)" id="mdi-message-plus" fill="#555"/><path d="M20 2a2 2 0 0 1 2 2v12a2 2 0 0 1-2 2H6l-4 4V4a2 2 0 0 1 2-2h16m-9 4v3H8v2h3v3h2v-3h3V9h-3V6h-2Z" transform="matrix(1.5 0 0 1.5 684 180)" id="mdi-message-plus" fill="#fff"/><path d="M20 2H4c-1.1 0-2 .9-2 2v18l4-4h14c1.1 0 2-.9 2-2V4c0-1.1-.9-2-2-2m0 14H5.2L4 17.2V4h16v12m-4-7v2h-3v3h-2v-3H8V9h3V6h2v3h3Z" transform="matrix(1.5 0 0 1.5 0 216)" id="mdi-message-plus-outline" fill="#555"/><path d="M20 2H4c-1.1 0-2 .9-2 2v18l4-4h14c1.1 0 2-.9 2-2V4c0-1.1-.9-2-2-2m0 14H5.2L4 17.2V4h16v12m-4-7v2h-3v3h-2v-3H8V9h3V6h2v3h3Z" transform="matrix(1.5 0 0 1.5 36 216)" id="mdi-message-plus-outline" fill="#fff"/><path d="M17 11h-2V9h2m-4 2h-2V9h2m-4 2H7V9h2m11-7H4a2 2 0 0 0-2 2v18l4-4h14a2 2 0 0 0 2-2V4a2 2 0 0 0-2-2Z" transform="matrix(1.5 0 0 1.5 72 216)" id="mdi-message-processing" fill="#555"/><path d="M17 11h-2V9h2m-4 2h-2V9h2m-4 2H7V9h2m11-7H4a2 2 0 0 0-2 2v18l4-4h14a2 2 0 0 0 2-2V4a2 2 0 0 0-2-2Z" transform="matrix(1.5 0 0 1.5 108 216)" id="mdi-message-processing" fill="#fff"/><path d="M20 2H4c-1.1 0-2 .9-2 2v18l4-4h14c1.1 0 2-.9 2-2V4c0-1.1-.9-2-2-2m0 14H5.2L4 17.2V4h16v12m-3-5h-2V9h2m-4 2h-2V9h2m-4 2H7V9h2" transform="matrix(1.5 0 0 1.5 144 216)" id="mdi-message-processing-outline" fill="#555"/><path d="M20 2H4c-1.1 0-2 .9-2 2v18l4-4h14c1.1 0 2-.9 2-2V4c0-1.1-.9-2-2-2m0 14H5.2L4 17.2V4h16v12m-3-5h-2V9h2m-4 2h-2V9h2m-4 2H7V9h2" transform="matrix(1.5 0 0 1.5 180 216)" id="mdi-message-processing-outline" fill="#fff"/><path d="M20 2H4c-1.1 0-2 .9-2 2v18l4-4h14c1.1 0 2-.9 2-2V4c0-1.1-.9-2-2-2m-7 12h-2v-2h2v2m1.8-5c-.3.4-.7.6-1.1.8-.3.2-.4.3-.5.5-.2.2-.2.4-.2.7h-2c0-.5.1-.8.3-1.1.2-.2.6-.5 1.1-.8.3-.1.5-.3.6-.5.1-.2.2-.5.2-.7 0-.3-.1-.5-.3-.7-.2-.2-.5-.3-.8-.3-.3 0-.5.1-.7.2-.2.1-.3.3-.3.6h-2c.1-.7.4-1.3.9-1.7.5-.4 1.2-.5 2.1-.5.9 0 1.7.2 2.2.6.5.4.8 1 .8 1.7.1.4 0 .8-.3 1.2Z" transform="matrix(1.5 0 0 1.5 216 216)" id="mdi-message-question" fill="#555"/><path d="M20 2H4c-1.1 0-2 .9-2 2v18l4-4h14c1.1 0 2-.9 2-2V4c0-1.1-.9-2-2-2m-7 12h-2v-2h2v2m1.8-5c-.3.4-.7.6-1.1.8-.3.2-.4.3-.5.5-.2.2-.2.4-.2.7h-2c0-.5.1-.8.3-1.1.2-.2.6-.5 1.1-.8.3-.1.5-.3.6-.5.1-.2.2-.5.2-.7 0-.3-.1-.5-.3-.7-.2-.2-.5-.3-.8-.3-.3 0-.5.1-.7.2-.2.1-.3.3-.3.6h-2c.1-.7.4-1.3.9-1.7.5-.4 1.2-.5 2.1-.5.9 0 1.7.2 2.2.6.5.4.8 1 .8 1.7.1.4 0 .8-.3 1.2Z" transform="matrix(1.5 0 0 1.5 252 216)" id="mdi-message-question" fill="#fff"/><path d="M20 2H4c-1.1 0-2 .9-2 2v18l4-4h14c1.1 0 2-.9 2-2V4c0-1.1-.9-2-2-2m0 14H5.2L4 17.2V4h16v12M12.2 5.5c-.9 0-1.6.2-2.1.5-.6.4-.9 1-.8 1.7h2c0-.3.1-.5.3-.6.2-.1.4-.2.7-.2.3 0 .6.1.8.3.2.2.3.4.3.7 0 .3-.1.5-.2.7-.2.2-.4.4-.6.5-.5.3-.9.6-1.1.8-.4.3-.5.6-.5 1.1h2c0-.3.1-.5.1-.7.1-.2.3-.3.5-.5.5-.2.8-.5 1.1-.9.3-.4.4-.8.4-1.2 0-.7-.3-1.3-.8-1.7-.4-.3-1.2-.5-2.1-.5M11 12v2h2v-2h-2Z" transform="matrix(1.5 0 0 1.5 288 216)" id="mdi-message-question-outline" fill="#555"/><path d="M20 2H4c-1.1 0-2 .9-2 2v18l4-4h14c1.1 0 2-.9 2-2V4c0-1.1-.9-2-2-2m0 14H5.2L4 17.2V4h16v12M12.2 5.5c-.9 0-1.6.2-2.1.5-.6.4-.9 1-.8 1.7h2c0-.3.1-.5.3-.6.2-.1.4-.2.7-.2.3 0 .6.1.8.3.2.2.3.4.3.7 0 .3-.1.5-.2.7-.2.2-.4.4-.6.5-.5.3-.9.6-1.1.8-.4.3-.5.6-.5 1.1h2c0-.3.1-.5.1-.7.1-.2.3-.3.5-.5.5-.2.8-.5 1.1-.9.3-.4.4-.8.4-1.2 0-.7-.3-1.3-.8-1.7-.4-.3-1.2-.5-2.1-.5M11 12v2h2v-2h-2Z" transform="matrix(1.5 0 0 1.5 324 216)" id="mdi-message-question-outline" fill="#fff"/><path d="M22 4a2 2 0 0 0-2-2H4a2 2 0 0 0-2 2v12a2 2 0 0 0 2 2h14l4 4V4Z" transform="matrix(1.5 0 0 1.5 360 216)" id="mdi-message-reply" fill="#555"/><path d="M22 4a2 2 0 0 0-2-2H4a2 2 0 0 0-2 2v12a2 2 0 0 0 2 2h14l4 4V4Z" transform="matrix(1.5 0 0 1.5 396 216)" id="mdi-message-reply" fill="#fff"/><path d="M20 2H4c-1.1 0-2 .9-2 2v12c0 1.1.9 2 2 2h14l4 4V4c0-1.1-.9-2-2-2m0 15.2L18.8 16H4V4h16v13.2Z" transform="matrix(1.5 0 0 1.5 432 216)" id="mdi-message-reply-outline" fill="#555"/><path d="M20 2H4c-1.1 0-2 .9-2 2v12c0 1.1.9 2 2 2h14l4 4V4c0-1.1-.9-2-2-2m0 15.2L18.8 16H4V4h16v13.2Z" transform="matrix(1.5 0 0 1.5 468 216)" id="mdi-message-reply-outline" fill="#fff"/><path d="M18 8H6V6h12v2m0 3H6V9h12v2m0 3H6v-2h12v2m4-10a2 2 0 0 0-2-2H4a2 2 0 0 0-2 2v12a2 2 0 0 0 2 2h14l4 4V4Z" transform="matrix(1.5 0 0 1.5 504 216)" id="mdi-message-reply-text" fill="#555"/><path d="M18 8H6V6h12v2m0 3H6V9h12v2m0 3H6v-2h12v2m4-10a2 2 0 0 0-2-2H4a2 2 0 0 0-2 2v12a2 2 0 0 0 2 2h14l4 4V4Z" transform="matrix(1.5 0 0 1.5 540 216)" id="mdi-message-reply-text" fill="#fff"/><path d="M9 11h9v2H9v-2m9-4H6v2h12V7m4-3v18l-4-4H4a2 2 0 0 1-2-2V4c0-1.1.9-2 2-2h16a2 2 0 0 1 2 2m-2 0H4v12h14.83L20 17.17V4Z" transform="matrix(1.5 0 0 1.5 576 216)" id="mdi-message-reply-text-outline" fill="#555"/><path d="M9 11h9v2H9v-2m9-4H6v2h12V7m4-3v18l-4-4H4a2 2 0 0 1-2-2V4c0-1.1.9-2 2-2h16a2 2 0 0 1 2 2m-2 0H4v12h14.83L20 17.17V4Z" transform="matrix(1.5 0 0 1.5 612 216)" id="mdi-message-reply-text-outline" fill="#fff"/><path d="M20 2H4a2 2 0 0 0-2 2v18l4-4h14a2 2 0 0 0 2-2V4a2 2 0 0 0-2-2m-9 22h2v-2h-2v2m-4 0h2v-2H7v2m8 0h2v-2h-2v2Z" transform="matrix(1.5 0 0 1.5 648 216)" id="mdi-message-settings" fill="#555"/><path d="M20 2H4a2 2 0 0 0-2 2v18l4-4h14a2 2 0 0 0 2-2V4a2 2 0 0 0-2-2m-9 22h2v-2h-2v2m-4 0h2v-2H7v2m8 0h2v-2h-2v2Z" transform="matrix(1.5 0 0 1.5 684 216)" id="mdi-message-settings" fill="#fff"/><path d="M20 2H4c-1.1 0-2 .9-2 2v18l4-4h14c1.1 0 2-.9 2-2V4c0-1.1-.9-2-2-2m0 14H5.2L4 17.2V4h16v12m-9 8h2v-2h-2v2m-4 0h2v-2H7v2m8 0h2v-2h-2v2" transform="matrix(1.5 0 0 1.5 0 252)" id="mdi-message-settings-outline" fill="#555"/><path d="M20 2H4c-1.1 0-2 .9-2 2v18l4-4h14c1.1 0 2-.9 2-2V4c0-1.1-.9-2-2-2m0 14H5.2L4 17.2V4h16v12m-9 8h2v-2h-2v2m-4 0h2v-2H7v2m8 0h2v-2h-2v2" transform="matrix(1.5 0 0 1.5 36 252)" id="mdi-message-settings-outline" fill="#fff"/><path d="M20 2H4c-1.1 0-2 .9-2 2v18l4-4h14c1.1 0 2-.9 2-2V4c0-1.1-.9-2-2-2m-5.4 12L12 12.4 9.4 14l.7-3-2.3-2 3-.3L12 6l1.2 2.8 3 .3-2.3 2 .7 2.9Z" transform="matrix(1.5 0 0 1.5 72 252)" id="mdi-message-star" fill="#555"/><path d="M20 2H4c-1.1 0-2 .9-2 2v18l4-4h14c1.1 0 2-.9 2-2V4c0-1.1-.9-2-2-2m-5.4 12L12 12.4 9.4 14l.7-3-2.3-2 3-.3L12 6l1.2 2.8 3 .3-2.3 2 .7 2.9Z" transform="matrix(1.5 0 0 1.5 108 252)" id="mdi-message-star" fill="#fff"/><path d="M20 2H4c-1.1 0-2 .9-2 2v18l4-4h14c1.1 0 2-.9 2-2V4c0-1.1-.9-2-2-2m0 14H5.2L4 17.2V4h16v12m-8-3.6 2.6 1.6-.7-3 2.3-2-3-.3L12 6l-1.2 2.8-3 .2 2.3 2-.7 3 2.6-1.6Z" transform="matrix(1.5 0 0 1.5 144 252)" id="mdi-message-star-outline" fill="#555"/><path d="M20 2H4c-1.1 0-2 .9-2 2v18l4-4h14c1.1 0 2-.9 2-2V4c0-1.1-.9-2-2-2m0 14H5.2L4 17.2V4h16v12m-8-3.6 2.6 1.6-.7-3 2.3-2-3-.3L12 6l-1.2 2.8-3 .2 2.3 2-.7 3 2.6-1.6Z" transform="matrix(1.5 0 0 1.5 180 252)" id="mdi-message-star-outline" fill="#fff"/><path d="M20 2H4a2 2 0 0 0-2 2v18l4-4h14a2 2 0 0 0 2-2V4a2 2 0 0 0-2-2M6 9h12v2H6m8 3H6v-2h8m4-4H6V6h12" transform="matrix(1.5 0 0 1.5 216 252)" id="mdi-message-text" fill="#555"/><path d="M20 2H4a2 2 0 0 0-2 2v18l4-4h14a2 2 0 0 0 2-2V4a2 2 0 0 0-2-2M6 9h12v2H6m8 3H6v-2h8m4-4H6V6h12" transform="matrix(1.5 0 0 1.5 252 252)" id="mdi-message-text" fill="#fff"/><path d="M22 12.41V4a2 2 0 0 0-2-2H4c-1.1 0-2 .9-2 2v18l4-4h3.29A7.001 7.001 0 0 0 23 16c0-1.31-.37-2.54-1-3.59M6 6h12v2H6V6m10 3c-1.9 0-3.63.77-4.89 2H6V9h10M6 12h4.26c-.42.6-.76 1.28-.96 2H6v-2m10 8.85c-2.68 0-4.85-2.17-4.85-4.85s2.17-4.85 4.85-4.85c2.67 0 4.85 2.17 4.85 4.85s-2.18 4.85-4.85 4.85m.5-5.03 2.44 1.41-.75 1.3L15 16.69V13h1.5v2.82Z" transform="matrix(1.5 0 0 1.5 288 252)" id="mdi-message-text-clock" fill="#555"/><path d="M22 12.41V4a2 2 0 0 0-2-2H4c-1.1 0-2 .9-2 2v18l4-4h3.29A7.001 7.001 0 0 0 23 16c0-1.31-.37-2.54-1-3.59M6 6h12v2H6V6m10 3c-1.9 0-3.63.77-4.89 2H6V9h10M6 12h4.26c-.42.6-.76 1.28-.96 2H6v-2m10 8.85c-2.68 0-4.85-2.17-4.85-4.85s2.17-4.85 4.85-4.85c2.67 0 4.85 2.17 4.85 4.85s-2.18 4.85-4.85 4.85m.5-5.03 2.44 1.41-.75 1.3L15 16.69V13h1.5v2.82Z" transform="matrix(1.5 0 0 1.5 324 252)" id="mdi-message-text-clock" fill="#fff"/><path d="M22 12.41V4a2 2 0 0 0-2-2H4a2 2 0 0 0-2 2v18l4-4h3.29A7.001 7.001 0 0 0 23 16c0-1.31-.37-2.54-1-3.59M5.17 16 4 17.17V4h16v6.26A6.963 6.963 0 0 0 16 9c-1.9 0-3.63.77-4.89 2H6v2h3.69c-.44.91-.69 1.93-.69 3H5.17M16 20.85c-2.68 0-4.85-2.17-4.85-4.85s2.17-4.85 4.85-4.85c2.67 0 4.85 2.17 4.85 4.85s-2.18 4.85-4.85 4.85M18 9H6V7h12v2m-1.5 6.82 2.44 1.41-.75 1.3L15 16.69V13h1.5v2.82Z" transform="matrix(1.5 0 0 1.5 360 252)" id="mdi-message-text-clock-outline" fill="#555"/><path d="M22 12.41V4a2 2 0 0 0-2-2H4a2 2 0 0 0-2 2v18l4-4h3.29A7.001 7.001 0 0 0 23 16c0-1.31-.37-2.54-1-3.59M5.17 16 4 17.17V4h16v6.26A6.963 6.963 0 0 0 16 9c-1.9 0-3.63.77-4.89 2H6v2h3.69c-.44.91-.69 1.93-.69 3H5.17M16 20.85c-2.68 0-4.85-2.17-4.85-4.85s2.17-4.85 4.85-4.85c2.67 0 4.85 2.17 4.85 4.85s-2.18 4.85-4.85 4.85M18 9H6V7h12v2m-1.5 6.82 2.44 1.41-.75 1.3L15 16.69V13h1.5v2.82Z" transform="matrix(1.5 0 0 1.5 396 252)" id="mdi-message-text-clock-outline" fill="#fff"/><path d="M9 5c-1.1 0-2 .9-2 2v14l4-4h9c1.1 0 2-.9 2-2V7c0-1.1-.9-2-2-2H9M3 7c-.6 0-1 .4-1 1s.4 1 1 1h2V7H3m8 1h8v2h-8V8m-9 3c-.6 0-1 .4-1 1s.4 1 1 1h3v-2H2m9 1h5v2h-5v-2M1 15c-.6 0-1 .4-1 1s.4 1 1 1h4v-2H1Z" transform="matrix(1.5 0 0 1.5 432 252)" id="mdi-message-text-fast" fill="#555"/><path d="M9 5c-1.1 0-2 .9-2 2v14l4-4h9c1.1 0 2-.9 2-2V7c0-1.1-.9-2-2-2H9M3 7c-.6 0-1 .4-1 1s.4 1 1 1h2V7H3m8 1h8v2h-8V8m-9 3c-.6 0-1 .4-1 1s.4 1 1 1h3v-2H2m9 1h5v2h-5v-2M1 15c-.6 0-1 .4-1 1s.4 1 1 1h4v-2H1Z" transform="matrix(1.5 0 0 1.5 468 252)" id="mdi-message-text-fast" fill="#fff"/><path d="M10 11.5h7V13h-7v-1.5m0-3h9V10h-9V8.5M20 5H9c-1.1 0-2 .9-2 2v14l4-4h9c1.1 0 2-.9 2-2V7c0-1.1-.9-2-2-2m0 10h-9.8L9 16.2V7h11v8M3 7c-.6 0-1 .4-1 1s.4 1 1 1h2V7H3m-1 4c-.6 0-1 .4-1 1s.4 1 1 1h3v-2H2m-1 4c-.6 0-1 .4-1 1s.4 1 1 1h4v-2H1Z" transform="matrix(1.5 0 0 1.5 504 252)" id="mdi-message-text-fast-outline" fill="#555"/><path d="M10 11.5h7V13h-7v-1.5m0-3h9V10h-9V8.5M20 5H9c-1.1 0-2 .9-2 2v14l4-4h9c1.1 0 2-.9 2-2V7c0-1.1-.9-2-2-2m0 10h-9.8L9 16.2V7h11v8M3 7c-.6 0-1 .4-1 1s.4 1 1 1h2V7H3m-1 4c-.6 0-1 .4-1 1s.4 1 1 1h3v-2H2m-1 4c-.6 0-1 .4-1 1s.4 1 1 1h4v-2H1Z" transform="matrix(1.5 0 0 1.5 540 252)" id="mdi-message-text-fast-outline" fill="#fff"/><path d="M20.5 0A2.5 2.5 0 0 0 18 2.5V3a1 1 0 0 0-1 1v4a1 1 0 0 0 1 1h5a1 1 0 0 0 1-1V4a1 1 0 0 0-1-1v-.5A2.5 2.5 0 0 0 20.5 0m0 1A1.5 1.5 0 0 1 22 2.5V3h-3v-.5A1.5 1.5 0 0 1 20.5 1M4 2a2 2 0 0 0-2 2v18l4-4h14a2 2 0 0 0 2-2v-5h-5c-1.11 0-2-.89-2-2V2H4m2 4h7v2H6V6m0 3h7v2H6V9m0 3h8v2H6v-2Z" transform="matrix(1.5 0 0 1.5 576 252)" id="mdi-message-text-lock" fill="#555"/><path d="M20.5 0A2.5 2.5 0 0 0 18 2.5V3a1 1 0 0 0-1 1v4a1 1 0 0 0 1 1h5a1 1 0 0 0 1-1V4a1 1 0 0 0-1-1v-.5A2.5 2.5 0 0 0 20.5 0m0 1A1.5 1.5 0 0 1 22 2.5V3h-3v-.5A1.5 1.5 0 0 1 20.5 1M4 2a2 2 0 0 0-2 2v18l4-4h14a2 2 0 0 0 2-2v-5h-5c-1.11 0-2-.89-2-2V2H4m2 4h7v2H6V6m0 3h7v2H6V9m0 3h8v2H6v-2Z" transform="matrix(1.5 0 0 1.5 612 252)" id="mdi-message-text-lock" fill="#fff"/><path d="M23 3v-.5a2.5 2.5 0 0 0-5 0V3c-.55 0-1 .45-1 1v4c0 .55.45 1 1 1h5c.55 0 1-.45 1-1V4c0-.55-.45-1-1-1m-1 0h-3v-.5c0-.83.67-1.5 1.5-1.5s1.5.67 1.5 1.5V3M6 11h9v2H6v-2m0-4h9v2H6V7m16 4v5c0 1.11-.89 2-2 2H6l-4 4V4a2 2 0 0 1 2-2h11v2H4v13.17L5.17 16H20v-5h2Z" transform="matrix(1.5 0 0 1.5 648 252)" id="mdi-message-text-lock-outline" fill="#555"/><path d="M23 3v-.5a2.5 2.5 0 0 0-5 0V3c-.55 0-1 .45-1 1v4c0 .55.45 1 1 1h5c.55 0 1-.45 1-1V4c0-.55-.45-1-1-1m-1 0h-3v-.5c0-.83.67-1.5 1.5-1.5s1.5.67 1.5 1.5V3M6 11h9v2H6v-2m0-4h9v2H6V7m16 4v5c0 1.11-.89 2-2 2H6l-4 4V4a2 2 0 0 1 2-2h11v2H4v13.17L5.17 16H20v-5h2Z" transform="matrix(1.5 0 0 1.5 684 252)" id="mdi-message-text-lock-outline" fill="#fff"/><path d="M20 2a2 2 0 0 1 2 2v12a2 2 0 0 1-2 2H6l-4 4V4a2 2 0 0 1 2-2h16M4 4v13.17L5.17 16H20V4H4m2 3h12v2H6V7m0 4h9v2H6v-2Z" transform="matrix(1.5 0 0 1.5 0 288)" id="mdi-message-text-outline" fill="#555"/><path d="M20 2a2 2 0 0 1 2 2v12a2 2 0 0 1-2 2H6l-4 4V4a2 2 0 0 1 2-2h16M4 4v13.17L5.17 16H20V4H4m2 3h12v2H6V7m0 4h9v2H6v-2Z" transform="matrix(1.5 0 0 1.5 36 288)" id="mdi-message-text-outline" fill="#fff"/><path d="m18 14-4-3.2V14H6V6h8v3.2L18 6m2-4H4a2 2 0 0 0-2 2v18l4-4h14a2 2 0 0 0 2-2V4a2 2 0 0 0-2-2Z" transform="matrix(1.5 0 0 1.5 72 288)" id="mdi-message-video" fill="#555"/><path d="m18 14-4-3.2V14H6V6h8v3.2L18 6m2-4H4a2 2 0 0 0-2 2v18l4-4h14a2 2 0 0 0 2-2V4a2 2 0 0 0-2-2Z" transform="matrix(1.5 0 0 1.5 108 288)" id="mdi-message-video" fill="#fff"/><path d="m2.8 3 16.87 15.82s.33.45-.09.89c-.41.44-.95.06-.95.06L2.8 3m5.01 1.59 13.1 12.05s.32.44-.09.86c-.42.47-.96.09-.96.09l-12.05-13M4.29 8l13.1 12.03s.32.44-.09.88c-.42.45-.96.09-.96.09L4.29 8m7.76-2.04 9.15 8.41s.22.31-.07.63c-.28.3-.66.03-.66.03l-8.42-9.07m-6.6 5.95 9.15 8.42s.22.31-.06.62c-.29.31-.67.05-.67.05l-8.42-9.09m10.93-3.99 4.17 3.82s.11.14-.05.29c-.12.14-.31.02-.31.02l-3.81-4.13M7.56 16.1l4.18 3.81s.11.15-.04.29c-.14.15-.33.02-.33.02L7.56 16.1Z" transform="matrix(1.5 0 0 1.5 144 288)" id="mdi-meteor" fill="#555"/><path d="m2.8 3 16.87 15.82s.33.45-.09.89c-.41.44-.95.06-.95.06L2.8 3m5.01 1.59 13.1 12.05s.32.44-.09.86c-.42.47-.96.09-.96.09l-12.05-13M4.29 8l13.1 12.03s.32.44-.09.88c-.42.45-.96.09-.96.09L4.29 8m7.76-2.04 9.15 8.41s.22.31-.07.63c-.28.3-.66.03-.66.03l-8.42-9.07m-6.6 5.95 9.15 8.42s.22.31-.06.62c-.29.31-.67.05-.67.05l-8.42-9.09m10.93-3.99 4.17 3.82s.11.14-.05.29c-.12.14-.31.02-.31.02l-3.81-4.13M7.56 16.1l4.18 3.81s.11.15-.04.29c-.14.15-.33.02-.33.02L7.56 16.1Z" transform="matrix(1.5 0 0 1.5 180 288)" id="mdi-meteor" fill="#fff"/><path d="M12 2c-4.96 0-9 4.04-9 9 0 3.91 2.5 7.24 6 8.47V22h2v-2.06c.33.06.66.06 1 .06s.67 0 1-.06V22h2v-2.53c3.5-1.24 6-4.57 6-8.47 0-4.96-4.04-9-9-9m2.25 12-3 3-1.5-1.5L11 14.25 9.75 13l3-3 1.5 1.5L13 12.75 14.25 14M16 9H8V7h8v2Z" transform="matrix(1.5 0 0 1.5 216 288)" id="mdi-meter-electric" fill="#555"/><path d="M12 2c-4.96 0-9 4.04-9 9 0 3.91 2.5 7.24 6 8.47V22h2v-2.06c.33.06.66.06 1 .06s.67 0 1-.06V22h2v-2.53c3.5-1.24 6-4.57 6-8.47 0-4.96-4.04-9-9-9m2.25 12-3 3-1.5-1.5L11 14.25 9.75 13l3-3 1.5 1.5L13 12.75 14.25 14M16 9H8V7h8v2Z" transform="matrix(1.5 0 0 1.5 252 288)" id="mdi-meter-electric" fill="#fff"/><path d="M21 11a9 9 0 0 0-18 0c0 3.92 2.5 7.24 6 8.5V22h2v-2.06c.33.06.66.06 1 .06s.67 0 1-.06V22h2v-2.5c3.5-1.26 6-4.58 6-8.5m-9 7c-3.86 0-7-3.14-7-7s3.14-7 7-7 7 3.14 7 7-3.14 7-7 7M8 7h8v2H8V7m4.75 3-3 3L11 14.25 9.75 15.5l1.5 1.5 3-3L13 12.75l1.25-1.25-1.5-1.5Z" transform="matrix(1.5 0 0 1.5 288 288)" id="mdi-meter-electric-outline" fill="#555"/><path d="M21 11a9 9 0 0 0-18 0c0 3.92 2.5 7.24 6 8.5V22h2v-2.06c.33.06.66.06 1 .06s.67 0 1-.06V22h2v-2.5c3.5-1.26 6-4.58 6-8.5m-9 7c-3.86 0-7-3.14-7-7s3.14-7 7-7 7 3.14 7 7-3.14 7-7 7M8 7h8v2H8V7m4.75 3-3 3L11 14.25 9.75 15.5l1.5 1.5 3-3L13 12.75l1.25-1.25-1.5-1.5Z" transform="matrix(1.5 0 0 1.5 324 288)" id="mdi-meter-electric-outline" fill="#fff"/><path d="M16 4h-1V2h-2v2h-2V2H9v2H8C5.79 4 4 5.79 4 8v10c0 2.21 1.79 4 4 4h8c2.21 0 4-1.79 4-4V8c0-2.21-1.79-4-4-4m-4 14c-1.38 0-2.5-1.1-2.5-2.46 0-1.09.43-1.39 2.5-3.79 2.05 2.38 2.5 2.7 2.5 3.79C14.5 16.9 13.38 18 12 18m4-8H8V8h8v2Z" transform="matrix(1.5 0 0 1.5 360 288)" id="mdi-meter-gas" fill="#555"/><path d="M16 4h-1V2h-2v2h-2V2H9v2H8C5.79 4 4 5.79 4 8v10c0 2.21 1.79 4 4 4h8c2.21 0 4-1.79 4-4V8c0-2.21-1.79-4-4-4m-4 14c-1.38 0-2.5-1.1-2.5-2.46 0-1.09.43-1.39 2.5-3.79 2.05 2.38 2.5 2.7 2.5 3.79C14.5 16.9 13.38 18 12 18m4-8H8V8h8v2Z" transform="matrix(1.5 0 0 1.5 396 288)" id="mdi-meter-gas" fill="#fff"/><path d="M16 4h-1V2h-2v2h-2V2H9v2H8C5.79 4 4 5.79 4 8v10c0 2.21 1.79 4 4 4h8c2.21 0 4-1.79 4-4V8c0-2.21-1.79-4-4-4m2 14c0 1.1-.9 2-2 2H8c-1.1 0-2-.9-2-2V8c0-1.1.9-2 2-2h8c1.1 0 2 .9 2 2v10m-8.5-2.46C9.5 16.9 10.62 18 12 18s2.5-1.1 2.5-2.46c0-1.09-.45-1.41-2.5-3.79-2.07 2.4-2.5 2.71-2.5 3.79M8 8h8v2H8V8Z" transform="matrix(1.5 0 0 1.5 432 288)" id="mdi-meter-gas-outline" fill="#555"/><path d="M16 4h-1V2h-2v2h-2V2H9v2H8C5.79 4 4 5.79 4 8v10c0 2.21 1.79 4 4 4h8c2.21 0 4-1.79 4-4V8c0-2.21-1.79-4-4-4m2 14c0 1.1-.9 2-2 2H8c-1.1 0-2-.9-2-2V8c0-1.1.9-2 2-2h8c1.1 0 2 .9 2 2v10m-8.5-2.46C9.5 16.9 10.62 18 12 18s2.5-1.1 2.5-2.46c0-1.09-.45-1.41-2.5-3.79-2.07 2.4-2.5 2.71-2.5 3.79M8 8h8v2H8V8Z" transform="matrix(1.5 0 0 1.5 468 288)" id="mdi-meter-gas-outline" fill="#fff"/><path d="m12 1.75-3.43.92-4.51 16.86c-.03.15-.06.31-.06.47 0 1.11.89 2 2 2h12c1.11 0 2-.89 2-2 0-.16-.03-.32-.06-.47l-1.36-5.11L17 16l.2 1h-3.79l2.84-2.84-1.41-1.41L10.59 17H6.8l3.49-13h3.42l1.46 5.43 1.63-1.64-1.37-5.12L12 1.75M11.25 5v9.75l1.5-1.5V5h-1.5m8.54 2.8-2.83 2.83-.71-.71-1.41 1.42 2.82 2.82 1.42-1.41-.71-.71 2.83-2.83-1.41-1.41Z" transform="matrix(1.5 0 0 1.5 504 288)" id="mdi-metronome" fill="#555"/><path d="m12 1.75-3.43.92-4.51 16.86c-.03.15-.06.31-.06.47 0 1.11.89 2 2 2h12c1.11 0 2-.89 2-2 0-.16-.03-.32-.06-.47l-1.36-5.11L17 16l.2 1h-3.79l2.84-2.84-1.41-1.41L10.59 17H6.8l3.49-13h3.42l1.46 5.43 1.63-1.64-1.37-5.12L12 1.75M11.25 5v9.75l1.5-1.5V5h-1.5m8.54 2.8-2.83 2.83-.71-.71-1.41 1.42 2.82 2.82 1.42-1.41-.71-.71 2.83-2.83-1.41-1.41Z" transform="matrix(1.5 0 0 1.5 540 288)" id="mdi-metronome" fill="#fff"/><path d="m12 1.75-3.43.92-4.5 16.83c-.01 0-.07.34-.07.5 0 1.11.89 2 2 2h12c1.11 0 2-.89 2-2 0-.16-.06-.5-.07-.5l-4.5-16.83L12 1.75M10.29 4h3.42l3.49 13H13v-5h-2v5H6.8l3.49-13M11 5v4h-1v2h4V9h-1V5h-2Z" transform="matrix(1.5 0 0 1.5 576 288)" id="mdi-metronome-tick" fill="#555"/><path d="m12 1.75-3.43.92-4.5 16.83c-.01 0-.07.34-.07.5 0 1.11.89 2 2 2h12c1.11 0 2-.89 2-2 0-.16-.06-.5-.07-.5l-4.5-16.83L12 1.75M10.29 4h3.42l3.49 13H13v-5h-2v5H6.8l3.49-13M11 5v4h-1v2h4V9h-1V5h-2Z" transform="matrix(1.5 0 0 1.5 612 288)" id="mdi-metronome-tick" fill="#fff"/><path d="M8 2a2 2 0 0 0-2 2v7l-2 2v7a2 2 0 0 0 2 2h12a2 2 0 0 0 2-2V4a2 2 0 0 0-2-2H8m1 2h2v4H9V4m3 0h2v4h-2V4m3 0h2v4h-2V4Z" transform="matrix(1.5 0 0 1.5 648 288)" id="mdi-micro-sd" fill="#555"/><path d="M8 2a2 2 0 0 0-2 2v7l-2 2v7a2 2 0 0 0 2 2h12a2 2 0 0 0 2-2V4a2 2 0 0 0-2-2H8m1 2h2v4H9V4m3 0h2v4h-2V4m3 0h2v4h-2V4Z" transform="matrix(1.5 0 0 1.5 684 288)" id="mdi-micro-sd" fill="#fff"/><path d="M12 2a3 3 0 0 1 3 3v6a3 3 0 0 1-3 3 3 3 0 0 1-3-3V5a3 3 0 0 1 3-3m7 9c0 3.53-2.61 6.44-6 6.93V21h-2v-3.07c-3.39-.49-6-3.4-6-6.93h2a5 5 0 0 0 5 5 5 5 0 0 0 5-5h2Z" transform="matrix(1.5 0 0 1.5 0 324)" id="mdi-microphone" fill="#555"/><path d="M12 2a3 3 0 0 1 3 3v6a3 3 0 0 1-3 3 3 3 0 0 1-3-3V5a3 3 0 0 1 3-3m7 9c0 3.53-2.61 6.44-6 6.93V21h-2v-3.07c-3.39-.49-6-3.4-6-6.93h2a5 5 0 0 0 5 5 5 5 0 0 0 5-5h2Z" transform="matrix(1.5 0 0 1.5 36 324)" id="mdi-microphone" fill="#fff"/><path d="M9 2a3 3 0 0 1 3 3v6a3 3 0 0 1-3 3 3 3 0 0 1-3-3V5a3 3 0 0 1 3-3m7 9c0 3.5-2.56 6.43-6 6.93V21H8v-3.07c-3.44-.5-6-3.43-6-6.93h2a5 5 0 0 0 5 5 5 5 0 0 0 5-5h2m-1-6h8v2h-8V5Z" transform="matrix(1.5 0 0 1.5 72 324)" id="mdi-microphone-minus" fill="#555"/><path d="M9 2a3 3 0 0 1 3 3v6a3 3 0 0 1-3 3 3 3 0 0 1-3-3V5a3 3 0 0 1 3-3m7 9c0 3.5-2.56 6.43-6 6.93V21H8v-3.07c-3.44-.5-6-3.43-6-6.93h2a5 5 0 0 0 5 5 5 5 0 0 0 5-5h2m-1-6h8v2h-8V5Z" transform="matrix(1.5 0 0 1.5 108 324)" id="mdi-microphone-minus" fill="#fff"/><path d="M19 11c0 1.19-.34 2.3-.9 3.28l-1.23-1.23c.27-.62.43-1.31.43-2.05H19m-4 .16L9 5.18V5a3 3 0 0 1 3-3 3 3 0 0 1 3 3v6.16M4.27 3 21 19.73 19.73 21l-4.19-4.19c-.77.46-1.63.77-2.54.91V21h-2v-3.28c-3.28-.49-6-3.31-6-6.72h1.7c0 3 2.54 5.1 5.3 5.1.81 0 1.6-.19 2.31-.52l-1.66-1.66L12 14a3 3 0 0 1-3-3v-.72L3 4.27 4.27 3Z" transform="matrix(1.5 0 0 1.5 144 324)" id="mdi-microphone-off" fill="#555"/><path d="M19 11c0 1.19-.34 2.3-.9 3.28l-1.23-1.23c.27-.62.43-1.31.43-2.05H19m-4 .16L9 5.18V5a3 3 0 0 1 3-3 3 3 0 0 1 3 3v6.16M4.27 3 21 19.73 19.73 21l-4.19-4.19c-.77.46-1.63.77-2.54.91V21h-2v-3.28c-3.28-.49-6-3.31-6-6.72h1.7c0 3 2.54 5.1 5.3 5.1.81 0 1.6-.19 2.31-.52l-1.66-1.66L12 14a3 3 0 0 1-3-3v-.72L3 4.27 4.27 3Z" transform="matrix(1.5 0 0 1.5 180 324)" id="mdi-microphone-off" fill="#fff"/><path d="M17.3 11c0 3-2.54 5.1-5.3 5.1S6.7 14 6.7 11H5c0 3.41 2.72 6.23 6 6.72V21h2v-3.28c3.28-.49 6-3.31 6-6.72m-8.2-6.1c0-.66.54-1.2 1.2-1.2.66 0 1.2.54 1.2 1.2l-.01 6.2c0 .66-.53 1.2-1.19 1.2-.66 0-1.2-.54-1.2-1.2M12 14a3 3 0 0 0 3-3V5a3 3 0 0 0-3-3 3 3 0 0 0-3 3v6a3 3 0 0 0 3 3Z" transform="matrix(1.5 0 0 1.5 216 324)" id="mdi-microphone-outline" fill="#555"/><path d="M17.3 11c0 3-2.54 5.1-5.3 5.1S6.7 14 6.7 11H5c0 3.41 2.72 6.23 6 6.72V21h2v-3.28c3.28-.49 6-3.31 6-6.72m-8.2-6.1c0-.66.54-1.2 1.2-1.2.66 0 1.2.54 1.2 1.2l-.01 6.2c0 .66-.53 1.2-1.19 1.2-.66 0-1.2-.54-1.2-1.2M12 14a3 3 0 0 0 3-3V5a3 3 0 0 0-3-3 3 3 0 0 0-3 3v6a3 3 0 0 0 3 3Z" transform="matrix(1.5 0 0 1.5 252 324)" id="mdi-microphone-outline" fill="#fff"/><path d="M9 2a3 3 0 0 1 3 3v6a3 3 0 0 1-3 3 3 3 0 0 1-3-3V5a3 3 0 0 1 3-3m7 9c0 3.5-2.56 6.43-6 6.93V21H8v-3.07c-3.44-.5-6-3.43-6-6.93h2a5 5 0 0 0 5 5 5 5 0 0 0 5-5h2m-1-6h3V2h2v3h3v2h-3v3h-2V7h-3V5Z" transform="matrix(1.5 0 0 1.5 288 324)" id="mdi-microphone-plus" fill="#555"/><path d="M9 2a3 3 0 0 1 3 3v6a3 3 0 0 1-3 3 3 3 0 0 1-3-3V5a3 3 0 0 1 3-3m7 9c0 3.5-2.56 6.43-6 6.93V21H8v-3.07c-3.44-.5-6-3.43-6-6.93h2a5 5 0 0 0 5 5 5 5 0 0 0 5-5h2m-1-6h3V2h2v3h3v2h-3v3h-2V7h-3V5Z" transform="matrix(1.5 0 0 1.5 324 324)" id="mdi-microphone-plus" fill="#fff"/><path d="M9 2c1.66 0 3 1.34 3 3v6c0 1.66-1.34 3-3 3s-3-1.34-3-3V5c0-1.66 1.34-3 3-3m7 9c0 3.53-2.61 6.44-6 6.93V21H8v-3.07c-3.39-.49-6-3.4-6-6.93h2c0 2.76 2.24 5 5 5s5-2.24 5-5h2m4.5 3.5V16H19v-1.5h1.5m-2-5H17V9c0-1.66 1.34-3 3-3s3 1.34 3 3c0 .97-.5 1.88-1.29 2.41l-.3.19c-.57.4-.91 1.01-.91 1.7v.2H19v-.2c0-1.19.6-2.3 1.59-2.95l.29-.19c.39-.26.62-.69.62-1.16 0-.83-.67-1.5-1.5-1.5s-1.5.67-1.5 1.5v.5Z" transform="matrix(1.5 0 0 1.5 360 324)" id="mdi-microphone-question" fill="#555"/><path d="M9 2c1.66 0 3 1.34 3 3v6c0 1.66-1.34 3-3 3s-3-1.34-3-3V5c0-1.66 1.34-3 3-3m7 9c0 3.53-2.61 6.44-6 6.93V21H8v-3.07c-3.39-.49-6-3.4-6-6.93h2c0 2.76 2.24 5 5 5s5-2.24 5-5h2m4.5 3.5V16H19v-1.5h1.5m-2-5H17V9c0-1.66 1.34-3 3-3s3 1.34 3 3c0 .97-.5 1.88-1.29 2.41l-.3.19c-.57.4-.91 1.01-.91 1.7v.2H19v-.2c0-1.19.6-2.3 1.59-2.95l.29-.19c.39-.26.62-.69.62-1.16 0-.83-.67-1.5-1.5-1.5s-1.5.67-1.5 1.5v.5Z" transform="matrix(1.5 0 0 1.5 396 324)" id="mdi-microphone-question" fill="#fff"/><path d="M14.3 11c0 3-2.54 5.1-5.3 5.1S3.7 14 3.7 11H2c0 3.41 2.72 6.23 6 6.72V21h2v-3.28c3.28-.49 6-3.31 6-6.72M7.8 4.9c0-.66.54-1.2 1.2-1.2s1.2.54 1.2 1.2l-.01 6.2c0 .66-.53 1.2-1.19 1.2s-1.2-.54-1.2-1.2M9 14c1.66 0 3-1.34 3-3V5c0-1.66-1.34-3-3-3S6 3.34 6 5v6c0 1.66 1.34 3 3 3m11.5.5V16H19v-1.5h1.5m-2-5H17V9c0-1.66 1.34-3 3-3s3 1.34 3 3c0 .97-.5 1.88-1.29 2.41l-.3.19c-.57.4-.91 1.01-.91 1.7v.2H19v-.2c0-1.19.6-2.3 1.59-2.95l.29-.19c.39-.26.62-.69.62-1.16 0-.83-.67-1.5-1.5-1.5s-1.5.67-1.5 1.5v.5Z" transform="matrix(1.5 0 0 1.5 432 324)" id="mdi-microphone-question-outline" fill="#555"/><path d="M14.3 11c0 3-2.54 5.1-5.3 5.1S3.7 14 3.7 11H2c0 3.41 2.72 6.23 6 6.72V21h2v-3.28c3.28-.49 6-3.31 6-6.72M7.8 4.9c0-.66.54-1.2 1.2-1.2s1.2.54 1.2 1.2l-.01 6.2c0 .66-.53 1.2-1.19 1.2s-1.2-.54-1.2-1.2M9 14c1.66 0 3-1.34 3-3V5c0-1.66-1.34-3-3-3S6 3.34 6 5v6c0 1.66 1.34 3 3 3m11.5.5V16H19v-1.5h1.5m-2-5H17V9c0-1.66 1.34-3 3-3s3 1.34 3 3c0 .97-.5 1.88-1.29 2.41l-.3.19c-.57.4-.91 1.01-.91 1.7v.2H19v-.2c0-1.19.6-2.3 1.59-2.95l.29-.19c.39-.26.62-.69.62-1.16 0-.83-.67-1.5-1.5-1.5s-1.5.67-1.5 1.5v.5Z" transform="matrix(1.5 0 0 1.5 468 324)" id="mdi-microphone-question-outline" fill="#fff"/><path d="M19 10h-1.7c0 3-2.54 5.1-5.3 5.1S6.7 13 6.7 10H5c0 3.41 2.72 6.23 6 6.72V20h2v-3.28c3.28-.49 6-3.31 6-6.72m-4 14h2v-2h-2m-4 2h2v-2h-2m1-9a3 3 0 0 0 3-3V4a3 3 0 0 0-3-3 3 3 0 0 0-3 3v6a3 3 0 0 0 3 3M7 24h2v-2H7v2Z" transform="matrix(1.5 0 0 1.5 504 324)" id="mdi-microphone-settings" fill="#555"/><path d="M19 10h-1.7c0 3-2.54 5.1-5.3 5.1S6.7 13 6.7 10H5c0 3.41 2.72 6.23 6 6.72V20h2v-3.28c3.28-.49 6-3.31 6-6.72m-4 14h2v-2h-2m-4 2h2v-2h-2m1-9a3 3 0 0 0 3-3V4a3 3 0 0 0-3-3 3 3 0 0 0-3 3v6a3 3 0 0 0 3 3M7 24h2v-2H7v2Z" transform="matrix(1.5 0 0 1.5 540 324)" id="mdi-microphone-settings" fill="#fff"/><path d="M9 3a4 4 0 0 1 4 4H5a4 4 0 0 1 4-4m2.84 6.82L11 18h-1v1a2 2 0 0 0 2 2 2 2 0 0 0 2-2v-5a4 4 0 0 1 4-4h2l-1 1 1 1h-2a2 2 0 0 0-2 2v5a4 4 0 0 1-4 4 4 4 0 0 1-4-4v-1H7l-.84-8.18C5.67 9.32 5.31 8.7 5.13 8h7.74c-.18.7-.54 1.32-1.03 1.82M9 11a1 1 0 0 0-1 1 1 1 0 0 0 1 1 1 1 0 0 0 1-1 1 1 0 0 0-1-1Z" transform="matrix(1.5 0 0 1.5 576 324)" id="mdi-microphone-variant" fill="#555"/><path d="M9 3a4 4 0 0 1 4 4H5a4 4 0 0 1 4-4m2.84 6.82L11 18h-1v1a2 2 0 0 0 2 2 2 2 0 0 0 2-2v-5a4 4 0 0 1 4-4h2l-1 1 1 1h-2a2 2 0 0 0-2 2v5a4 4 0 0 1-4 4 4 4 0 0 1-4-4v-1H7l-.84-8.18C5.67 9.32 5.31 8.7 5.13 8h7.74c-.18.7-.54 1.32-1.03 1.82M9 11a1 1 0 0 0-1 1 1 1 0 0 0 1 1 1 1 0 0 0 1-1 1 1 0 0 0-1-1Z" transform="matrix(1.5 0 0 1.5 612 324)" id="mdi-microphone-variant" fill="#fff"/><path d="M2 5.27 3.28 4 20 20.72 18.73 22 16 19.26A4.012 4.012 0 0 1 12 23a4 4 0 0 1-4-4v-1H7l-.84-8.18a4.12 4.12 0 0 1-.83-1.22L2 5.27M9 3a4 4 0 0 1 4 4H8.82L6.08 4.26C6.81 3.5 7.85 3 9 3m2.84 6.82-.02.18-2-2h3.05c-.18.7-.54 1.32-1.03 1.82M11 18h-1v1a2 2 0 0 0 2 2 2 2 0 0 0 2-2v-1.73l-2.65-2.65L11 18m7-8h2l-1 1 1 1h-2a2 2 0 0 0-2 2v.18l-1.7-1.68C14.9 11 16.33 10 18 10M8 12a1 1 0 0 0 1 1c.21 0 .4-.06.56-.17l-1.39-1.39c-.11.16-.17.35-.17.56Z" transform="matrix(1.5 0 0 1.5 648 324)" id="mdi-microphone-variant-off" fill="#555"/><path d="M2 5.27 3.28 4 20 20.72 18.73 22 16 19.26A4.012 4.012 0 0 1 12 23a4 4 0 0 1-4-4v-1H7l-.84-8.18a4.12 4.12 0 0 1-.83-1.22L2 5.27M9 3a4 4 0 0 1 4 4H8.82L6.08 4.26C6.81 3.5 7.85 3 9 3m2.84 6.82-.02.18-2-2h3.05c-.18.7-.54 1.32-1.03 1.82M11 18h-1v1a2 2 0 0 0 2 2 2 2 0 0 0 2-2v-1.73l-2.65-2.65L11 18m7-8h2l-1 1 1 1h-2a2 2 0 0 0-2 2v.18l-1.7-1.68C14.9 11 16.33 10 18 10M8 12a1 1 0 0 0 1 1c.21 0 .4-.06.56-.17l-1.39-1.39c-.11.16-.17.35-.17.56Z" transform="matrix(1.5 0 0 1.5 684 324)" id="mdi-microphone-variant-off" fill="#fff"/></svg>