<svg xmlns="http://www.w3.org/2000/svg" width="720" height="900"><path d="M21 14H3V4h18m0-2H3c-1.11 0-2 .89-2 2v12a2 2 0 0 0 2 2h7l-2 3v1h8v-1l-2-3h7a2 2 0 0 0 2-2V4a2 2 0 0 0-2-2Z" transform="scale(1.5)" id="mdi-desktop-mac" fill="#555"/><path d="M21 14H3V4h18m0-2H3c-1.11 0-2 .89-2 2v12a2 2 0 0 0 2 2h7l-2 3v1h8v-1l-2-3h7a2 2 0 0 0 2-2V4a2 2 0 0 0-2-2Z" transform="translate(36) scale(1.5)" id="mdi-desktop-mac" fill="#fff"/><path d="M21 14V4H3v10h18m0-12a2 2 0 0 1 2 2v12a2 2 0 0 1-2 2h-7l2 3v1H8v-1l2-3H3a2 2 0 0 1-2-2V4c0-1.11.89-2 2-2h18M4 5h11v5H4V5m12 0h4v2h-4V5m4 3v5h-4V8h4M4 11h5v2H4v-2m6 0h5v2h-5v-2Z" transform="translate(72) scale(1.5)" id="mdi-desktop-mac-dashboard" fill="#555"/><path d="M21 14V4H3v10h18m0-12a2 2 0 0 1 2 2v12a2 2 0 0 1-2 2h-7l2 3v1H8v-1l2-3H3a2 2 0 0 1-2-2V4c0-1.11.89-2 2-2h18M4 5h11v5H4V5m12 0h4v2h-4V5m4 3v5h-4V8h4M4 11h5v2H4v-2m6 0h5v2h-5v-2Z" transform="translate(108) scale(1.5)" id="mdi-desktop-mac-dashboard" fill="#fff"/><path d="M8 2h8a2 2 0 0 1 2 2v16a2 2 0 0 1-2 2H8a2 2 0 0 1-2-2V4a2 2 0 0 1 2-2m0 2v2h8V4H8m8 4H8v2h8V8m0 10h-2v2h2v-2Z" transform="translate(144) scale(1.5)" id="mdi-desktop-tower" fill="#555"/><path d="M8 2h8a2 2 0 0 1 2 2v16a2 2 0 0 1-2 2H8a2 2 0 0 1-2-2V4a2 2 0 0 1 2-2m0 2v2h8V4H8m8 4H8v2h8V8m0 10h-2v2h2v-2Z" transform="translate(180) scale(1.5)" id="mdi-desktop-tower" fill="#fff"/><path d="M22 18h-5a1 1 0 0 1-1-1V7a1 1 0 0 1 1-1h5a1 1 0 0 1 1 1v10a1 1 0 0 1-1 1m0-10h-5v1h5V8m0 2h-5v1h5v-1M9 15v2h1v1H5v-1h1v-2H2a1 1 0 0 1-1-1V7a1 1 0 0 1 1-1h11a1 1 0 0 1 1 1v7a1 1 0 0 1-1 1H9m3-7H3v5h9V8Z" transform="translate(216) scale(1.5)" id="mdi-desktop-tower-monitor" fill="#555"/><path d="M22 18h-5a1 1 0 0 1-1-1V7a1 1 0 0 1 1-1h5a1 1 0 0 1 1 1v10a1 1 0 0 1-1 1m0-10h-5v1h5V8m0 2h-5v1h5v-1M9 15v2h1v1H5v-1h1v-2H2a1 1 0 0 1-1-1V7a1 1 0 0 1 1-1h11a1 1 0 0 1 1 1v7a1 1 0 0 1-1 1H9m3-7H3v5h9V8Z" transform="translate(252) scale(1.5)" id="mdi-desktop-tower-monitor" fill="#fff"/><path d="M6.38 6h11.25L12 16 6.38 6M3 4l9 16 9-16H3Z" transform="translate(288) scale(1.5)" id="mdi-details" fill="#555"/><path d="M6.38 6h11.25L12 16 6.38 6M3 4l9 16 9-16H3Z" transform="translate(324) scale(1.5)" id="mdi-details" fill="#fff"/><path d="M7.73 11.93c0 1.72-.02 1.83-.23 2.07-.19.17-.38.23-.76.23l-.51.01-.03-2.27-.02-2.27h.52c.35 0 .6.07.77.21.24.21.26.25.26 2.02M22 7.5v9c0 1.11-.89 2-2 2H4c-1.11 0-2-.89-2-2v-9c0-1.11.89-2 2-2h16c1.11 0 2 .89 2 2M8.93 11.73c-.03-1.84-.05-1.99-.29-2.39-.4-.68-.85-.84-2.36-.84H5v7h1.21c1.33 0 1.89-.17 2.29-.71.41-.53.5-.98.43-3.06m4.19-3.23h-1.48c-1.49 0-1.5 0-1.71.28S9.7 9.21 9.7 12v2.96l.27.27c.25.27.31.27 1.71.27h1.44v-1.19l-1.09-.04-1.1-.03V12.6l.68-.03.66-.04v-1.19h-1.39V9.7h2.24V8.5m5.88.06c0-.06-.3-.06-.66-.06l-.68.06-.59 2.35c-.38 1.48-.62 2.27-.67 2.13-.08-.27-1.14-4.44-1.14-4.49 0-.05-.31-.05-.68-.05h-.69l.41 1.55c.2.87.59 2.28.81 3.15.34 1.35.46 1.65.75 1.94.2.22.45.36.61.36.33 0 .76-.34.9-.73C17.5 14.5 19 8.69 19 8.56Z" transform="translate(360) scale(1.5)" id="mdi-dev-to" fill="#555"/><path d="M7.73 11.93c0 1.72-.02 1.83-.23 2.07-.19.17-.38.23-.76.23l-.51.01-.03-2.27-.02-2.27h.52c.35 0 .6.07.77.21.24.21.26.25.26 2.02M22 7.5v9c0 1.11-.89 2-2 2H4c-1.11 0-2-.89-2-2v-9c0-1.11.89-2 2-2h16c1.11 0 2 .89 2 2M8.93 11.73c-.03-1.84-.05-1.99-.29-2.39-.4-.68-.85-.84-2.36-.84H5v7h1.21c1.33 0 1.89-.17 2.29-.71.41-.53.5-.98.43-3.06m4.19-3.23h-1.48c-1.49 0-1.5 0-1.71.28S9.7 9.21 9.7 12v2.96l.27.27c.25.27.31.27 1.71.27h1.44v-1.19l-1.09-.04-1.1-.03V12.6l.68-.03.66-.04v-1.19h-1.39V9.7h2.24V8.5m5.88.06c0-.06-.3-.06-.66-.06l-.68.06-.59 2.35c-.38 1.48-.62 2.27-.67 2.13-.08-.27-1.14-4.44-1.14-4.49 0-.05-.31-.05-.68-.05h-.69l.41 1.55c.2.87.59 2.28.81 3.15.34 1.35.46 1.65.75 1.94.2.22.45.36.61.36.33 0 .76-.34.9-.73C17.5 14.5 19 8.69 19 8.56Z" transform="translate(396) scale(1.5)" id="mdi-dev-to" fill="#fff"/><path d="M22 9V7h-2V5a2 2 0 0 0-2-2H4a2 2 0 0 0-2 2v14a2 2 0 0 0 2 2h14a2 2 0 0 0 2-2v-2h2v-2h-2v-2h2v-2h-2V9h2m-4 10H4V5h14v14M6 13h5v4H6v-4m6-6h4v3h-4V7M6 7h5v5H6V7m6 4h4v6h-4v-6Z" transform="translate(432) scale(1.5)" id="mdi-developer-board" fill="#555"/><path d="M22 9V7h-2V5a2 2 0 0 0-2-2H4a2 2 0 0 0-2 2v14a2 2 0 0 0 2 2h14a2 2 0 0 0 2-2v-2h2v-2h-2v-2h2v-2h-2V9h2m-4 10H4V5h14v14M6 13h5v4H6v-4m6-6h4v3h-4V7M6 7h5v5H6V7m6 4h4v6h-4v-6Z" transform="translate(468) scale(1.5)" id="mdi-developer-board" fill="#fff"/><path d="M6 6h6l2-4h4v4l-3.5 7H18v5h-6l-2 4H6v-4l3.5-7H6V6Z" transform="translate(504) scale(1.5)" id="mdi-deviantart" fill="#555"/><path d="M6 6h6l2-4h4v4l-3.5 7H18v5h-6l-2 4H6v-4l3.5-7H6V6Z" transform="translate(540) scale(1.5)" id="mdi-deviantart" fill="#fff"/><path d="M3 6h18V4H3c-1.1 0-2 .9-2 2v12c0 1.1.9 2 2 2h4v-2H3V6m10 6H9v1.78c-.61.55-1 1.33-1 2.22 0 .89.39 1.67 1 2.22V20h4v-1.78c.61-.55 1-1.34 1-2.22s-.39-1.67-1-2.22V12m-2 5.5c-.83 0-1.5-.67-1.5-1.5s.67-1.5 1.5-1.5 1.5.67 1.5 1.5-.67 1.5-1.5 1.5M22 8h-6c-.5 0-1 .5-1 1v10c0 .5.5 1 1 1h6c.5 0 1-.5 1-1V9c0-.5-.5-1-1-1m-1 10h-4v-8h4v8Z" transform="translate(576) scale(1.5)" id="mdi-devices" fill="#555"/><path d="M3 6h18V4H3c-1.1 0-2 .9-2 2v12c0 1.1.9 2 2 2h4v-2H3V6m10 6H9v1.78c-.61.55-1 1.33-1 2.22 0 .89.39 1.67 1 2.22V20h4v-1.78c.61-.55 1-1.34 1-2.22s-.39-1.67-1-2.22V12m-2 5.5c-.83 0-1.5-.67-1.5-1.5s.67-1.5 1.5-1.5 1.5.67 1.5 1.5-.67 1.5-1.5 1.5M22 8h-6c-.5 0-1 .5-1 1v10c0 .5.5 1 1 1h6c.5 0 1-.5 1-1V9c0-.5-.5-1-1-1m-1 10h-4v-8h4v8Z" transform="translate(612) scale(1.5)" id="mdi-devices" fill="#fff"/><path d="M11 2v1c-1.73.2-3.31.9-4.6 1.94l-.76-.76L4.22 5.6l.78.75A9.043 9.043 0 0 0 3 11H2v2h1c.21 1.68.9 3.26 2 4.56l-.78.76 1.42 1.42.75-.74A9.304 9.304 0 0 0 11 21v1h2v-1a9.27 9.27 0 0 0 4.6-2l.76.74 1.42-1.42-.78-.75c1.1-1.3 1.79-2.89 2-4.57h1v-2h-1a9.01 9.01 0 0 0-2-4.64l.78-.76-1.42-1.42-.75.76A8.997 8.997 0 0 0 13 3V2h-2m0 3v3l-1 .5-2.19-2.15c.91-.68 2-1.18 3.19-1.35m2 0c1.16.18 2.26.64 3.2 1.35L14 8.5 13 8V5M6.4 7.76 8.5 10 8 11H5c.16-1.16.7-2.3 1.39-3.25l.01.01m11.2 0c.73.95 1.21 2.06 1.4 3.24h-3l-.5-1 2.11-2.24h-.01M12 10c1.12 0 2 .88 2 2s-.88 2-2 2-2-.88-2-2 .88-2 2-2m-7 3h3l.57 1-2.18 2.15C5.67 15.24 5.19 14.16 5 13m11 0h3a6.984 6.984 0 0 1-1.39 3.16L15.5 14l.5-1m-6 2.5 1 .5v3a7.04 7.04 0 0 1-3.2-1.43L10 15.5m4 0 2.19 2.07c-.91.68-2 1.26-3.19 1.43v-3l1-.5Z" transform="translate(648) scale(1.5)" id="mdi-dharmachakra" fill="#555"/><path d="M11 2v1c-1.73.2-3.31.9-4.6 1.94l-.76-.76L4.22 5.6l.78.75A9.043 9.043 0 0 0 3 11H2v2h1c.21 1.68.9 3.26 2 4.56l-.78.76 1.42 1.42.75-.74A9.304 9.304 0 0 0 11 21v1h2v-1a9.27 9.27 0 0 0 4.6-2l.76.74 1.42-1.42-.78-.75c1.1-1.3 1.79-2.89 2-4.57h1v-2h-1a9.01 9.01 0 0 0-2-4.64l.78-.76-1.42-1.42-.75.76A8.997 8.997 0 0 0 13 3V2h-2m0 3v3l-1 .5-2.19-2.15c.91-.68 2-1.18 3.19-1.35m2 0c1.16.18 2.26.64 3.2 1.35L14 8.5 13 8V5M6.4 7.76 8.5 10 8 11H5c.16-1.16.7-2.3 1.39-3.25l.01.01m11.2 0c.73.95 1.21 2.06 1.4 3.24h-3l-.5-1 2.11-2.24h-.01M12 10c1.12 0 2 .88 2 2s-.88 2-2 2-2-.88-2-2 .88-2 2-2m-7 3h3l.57 1-2.18 2.15C5.67 15.24 5.19 14.16 5 13m11 0h3a6.984 6.984 0 0 1-1.39 3.16L15.5 14l.5-1m-6 2.5 1 .5v3a7.04 7.04 0 0 1-3.2-1.43L10 15.5m4 0 2.19 2.07c-.91.68-2 1.26-3.19 1.43v-3l1-.5Z" transform="translate(684) scale(1.5)" id="mdi-dharmachakra" fill="#fff"/><path d="M14.73 2.29a1 1 0 0 1 1.41 1.41L13 6.79l.76.95 1.94 5a1.46 1.46 0 0 1-.34 1.55l-3.09 3.09a1.55 1.55 0 0 1-2.12 0l-4.6-4.6a1.37 1.37 0 0 1-.4-1l-.5-6.44h1.07a1 1 0 0 1 .75.3l.14.17 1.05 3.48m0 12.71L2 16.36l2.12-2.12 5.66 5.66M19.5 4.5S17 7.26 17 9a2.5 2.5 0 1 0 5 0c0-1.74-2.5-4.5-2.5-4.5Z" transform="matrix(1.5 0 0 1.5 0 36)" id="mdi-diabetes" fill="#555"/><path d="M14.73 2.29a1 1 0 0 1 1.41 1.41L13 6.79l.76.95 1.94 5a1.46 1.46 0 0 1-.34 1.55l-3.09 3.09a1.55 1.55 0 0 1-2.12 0l-4.6-4.6a1.37 1.37 0 0 1-.4-1l-.5-6.44h1.07a1 1 0 0 1 .75.3l.14.17 1.05 3.48m0 12.71L2 16.36l2.12-2.12 5.66 5.66M19.5 4.5S17 7.26 17 9a2.5 2.5 0 1 0 5 0c0-1.74-2.5-4.5-2.5-4.5Z" transform="matrix(1.5 0 0 1.5 36 36)" id="mdi-diabetes" fill="#fff"/><path d="M12 19a2 2 0 0 0-2 2 2 2 0 0 0 2 2 2 2 0 0 0 2-2 2 2 0 0 0-2-2M6 1a2 2 0 0 0-2 2 2 2 0 0 0 2 2 2 2 0 0 0 2-2 2 2 0 0 0-2-2m0 6a2 2 0 0 0-2 2 2 2 0 0 0 2 2 2 2 0 0 0 2-2 2 2 0 0 0-2-2m0 6a2 2 0 0 0-2 2 2 2 0 0 0 2 2 2 2 0 0 0 2-2 2 2 0 0 0-2-2m12-8a2 2 0 0 0 2-2 2 2 0 0 0-2-2 2 2 0 0 0-2 2 2 2 0 0 0 2 2m-6 8a2 2 0 0 0-2 2 2 2 0 0 0 2 2 2 2 0 0 0 2-2 2 2 0 0 0-2-2m6 0a2 2 0 0 0-2 2 2 2 0 0 0 2 2 2 2 0 0 0 2-2 2 2 0 0 0-2-2m0-6a2 2 0 0 0-2 2 2 2 0 0 0 2 2 2 2 0 0 0 2-2 2 2 0 0 0-2-2m-6 0a2 2 0 0 0-2 2 2 2 0 0 0 2 2 2 2 0 0 0 2-2 2 2 0 0 0-2-2m0-6a2 2 0 0 0-2 2 2 2 0 0 0 2 2 2 2 0 0 0 2-2 2 2 0 0 0-2-2Z" transform="matrix(1.5 0 0 1.5 72 36)" id="mdi-dialpad" fill="#555"/><path d="M12 19a2 2 0 0 0-2 2 2 2 0 0 0 2 2 2 2 0 0 0 2-2 2 2 0 0 0-2-2M6 1a2 2 0 0 0-2 2 2 2 0 0 0 2 2 2 2 0 0 0 2-2 2 2 0 0 0-2-2m0 6a2 2 0 0 0-2 2 2 2 0 0 0 2 2 2 2 0 0 0 2-2 2 2 0 0 0-2-2m0 6a2 2 0 0 0-2 2 2 2 0 0 0 2 2 2 2 0 0 0 2-2 2 2 0 0 0-2-2m12-8a2 2 0 0 0 2-2 2 2 0 0 0-2-2 2 2 0 0 0-2 2 2 2 0 0 0 2 2m-6 8a2 2 0 0 0-2 2 2 2 0 0 0 2 2 2 2 0 0 0 2-2 2 2 0 0 0-2-2m6 0a2 2 0 0 0-2 2 2 2 0 0 0 2 2 2 2 0 0 0 2-2 2 2 0 0 0-2-2m0-6a2 2 0 0 0-2 2 2 2 0 0 0 2 2 2 2 0 0 0 2-2 2 2 0 0 0-2-2m-6 0a2 2 0 0 0-2 2 2 2 0 0 0 2 2 2 2 0 0 0 2-2 2 2 0 0 0-2-2m0-6a2 2 0 0 0-2 2 2 2 0 0 0 2 2 2 2 0 0 0 2-2 2 2 0 0 0-2-2Z" transform="matrix(1.5 0 0 1.5 108 36)" id="mdi-dialpad" fill="#fff"/><path d="M12 2A10 10 0 0 0 2 12a10 10 0 0 0 10 10 10 10 0 0 0 10-10A10 10 0 0 0 12 2m5 13v-2H7v2l-3-3 3-3v2h10V9l3 3-3 3Z" transform="matrix(1.5 0 0 1.5 144 36)" id="mdi-diameter" fill="#555"/><path d="M12 2A10 10 0 0 0 2 12a10 10 0 0 0 10 10 10 10 0 0 0 10-10A10 10 0 0 0 12 2m5 13v-2H7v2l-3-3 3-3v2h10V9l3 3-3 3Z" transform="matrix(1.5 0 0 1.5 180 36)" id="mdi-diameter" fill="#fff"/><path d="M12 2A10 10 0 0 0 2 12a10 10 0 0 0 10 10 10 10 0 0 0 10-10A10 10 0 0 0 12 2m0 18a8 8 0 0 1-8-8 8 8 0 0 1 8-8 8 8 0 0 1 8 8 8 8 0 0 1-8 8m4-5v-2H8v2l-3-3 3-3v2h8V9l3 3-3 3Z" transform="matrix(1.5 0 0 1.5 216 36)" id="mdi-diameter-outline" fill="#555"/><path d="M12 2A10 10 0 0 0 2 12a10 10 0 0 0 10 10 10 10 0 0 0 10-10A10 10 0 0 0 12 2m0 18a8 8 0 0 1-8-8 8 8 0 0 1 8-8 8 8 0 0 1 8 8 8 8 0 0 1-8 8m4-5v-2H8v2l-3-3 3-3v2h8V9l3 3-3 3Z" transform="matrix(1.5 0 0 1.5 252 36)" id="mdi-diameter-outline" fill="#fff"/><path d="m4.15 21.46 1.32-1.88A10.012 10.012 0 0 1 2 12 10 10 0 0 1 12 2c1.78 0 3.44.46 4.89 1.27l1.32-1.88 1.64 1.15-1.32 1.88C20.65 6.26 22 8.97 22 12a10 10 0 0 1-10 10c-1.78 0-3.44-.46-4.89-1.27l-1.32 1.88-1.64-1.15M12 4a8 8 0 0 0-8 8c0 2.35 1 4.46 2.63 5.93l9.1-13.01A7.921 7.921 0 0 0 12 4m0 16a8 8 0 0 0 8-8c0-2.35-1-4.46-2.63-5.93l-9.1 13.01c1.11.59 2.38.92 3.73.92Z" transform="matrix(1.5 0 0 1.5 288 36)" id="mdi-diameter-variant" fill="#555"/><path d="m4.15 21.46 1.32-1.88A10.012 10.012 0 0 1 2 12 10 10 0 0 1 12 2c1.78 0 3.44.46 4.89 1.27l1.32-1.88 1.64 1.15-1.32 1.88C20.65 6.26 22 8.97 22 12a10 10 0 0 1-10 10c-1.78 0-3.44-.46-4.89-1.27l-1.32 1.88-1.64-1.15M12 4a8 8 0 0 0-8 8c0 2.35 1 4.46 2.63 5.93l9.1-13.01A7.921 7.921 0 0 0 12 4m0 16a8 8 0 0 0 8-8c0-2.35-1-4.46-2.63-5.93l-9.1 13.01c1.11.59 2.38.92 3.73.92Z" transform="matrix(1.5 0 0 1.5 324 36)" id="mdi-diameter-variant" fill="#fff"/><path d="M6 2 2 8l10 14L22 8l-4-6H6Z" transform="matrix(1.5 0 0 1.5 360 36)" id="mdi-diamond" fill="#555"/><path d="M6 2 2 8l10 14L22 8l-4-6H6Z" transform="matrix(1.5 0 0 1.5 396 36)" id="mdi-diamond" fill="#fff"/><path d="M18 2H6L2 8l10 14L22 8l-4-6M4.43 8l2.64-4h9.86l2.64 4L12 18.56 4.43 8Z" transform="matrix(1.5 0 0 1.5 432 36)" id="mdi-diamond-outline" fill="#555"/><path d="M18 2H6L2 8l10 14L22 8l-4-6M4.43 8l2.64-4h9.86l2.64 4L12 18.56 4.43 8Z" transform="matrix(1.5 0 0 1.5 468 36)" id="mdi-diamond-outline" fill="#fff"/><path d="M16 9h3l-5 7m-4-7h4l-2 8M5 9h3l2 7m5-12h2l2 3h-3m-5-3h2l1 3h-4M7 4h2L8 7H5m1-5L2 8l10 14L22 8l-4-6H6Z" transform="matrix(1.5 0 0 1.5 504 36)" id="mdi-diamond-stone" fill="#555"/><path d="M16 9h3l-5 7m-4-7h4l-2 8M5 9h3l2 7m5-12h2l2 3h-3m-5-3h2l1 3h-4M7 4h2L8 7H5m1-5L2 8l10 14L22 8l-4-6H6Z" transform="matrix(1.5 0 0 1.5 540 36)" id="mdi-diamond-stone" fill="#fff"/><path d="M5 3h14a2 2 0 0 1 2 2v14a2 2 0 0 1-2 2H5a2 2 0 0 1-2-2V5a2 2 0 0 1 2-2m7 7a2 2 0 0 0-2 2 2 2 0 0 0 2 2 2 2 0 0 0 2-2 2 2 0 0 0-2-2Z" transform="matrix(1.5 0 0 1.5 576 36)" id="mdi-dice-1" fill="#555"/><path d="M5 3h14a2 2 0 0 1 2 2v14a2 2 0 0 1-2 2H5a2 2 0 0 1-2-2V5a2 2 0 0 1 2-2m7 7a2 2 0 0 0-2 2 2 2 0 0 0 2 2 2 2 0 0 0 2-2 2 2 0 0 0-2-2Z" transform="matrix(1.5 0 0 1.5 612 36)" id="mdi-dice-1" fill="#fff"/><path d="M19 5v14H5V5h14m0-2H5c-1.1 0-2 .9-2 2v14a2 2 0 0 0 2 2h14c1.11 0 2-.89 2-2V5a2 2 0 0 0-2-2m-7 7.5c-.83 0-1.5.67-1.5 1.5s.67 1.5 1.5 1.5 1.5-.67 1.5-1.5-.67-1.5-1.5-1.5" transform="matrix(1.5 0 0 1.5 648 36)" id="mdi-dice-1-outline" fill="#555"/><path d="M19 5v14H5V5h14m0-2H5c-1.1 0-2 .9-2 2v14a2 2 0 0 0 2 2h14c1.11 0 2-.89 2-2V5a2 2 0 0 0-2-2m-7 7.5c-.83 0-1.5.67-1.5 1.5s.67 1.5 1.5 1.5 1.5-.67 1.5-1.5-.67-1.5-1.5-1.5" transform="matrix(1.5 0 0 1.5 684 36)" id="mdi-dice-1-outline" fill="#fff"/><path d="M5 3h14a2 2 0 0 1 2 2v14a2 2 0 0 1-2 2H5a2 2 0 0 1-2-2V5a2 2 0 0 1 2-2m2 2a2 2 0 0 0-2 2 2 2 0 0 0 2 2 2 2 0 0 0 2-2 2 2 0 0 0-2-2m10 10a2 2 0 0 0-2 2 2 2 0 0 0 2 2 2 2 0 0 0 2-2 2 2 0 0 0-2-2Z" transform="matrix(1.5 0 0 1.5 0 72)" id="mdi-dice-2" fill="#555"/><path d="M5 3h14a2 2 0 0 1 2 2v14a2 2 0 0 1-2 2H5a2 2 0 0 1-2-2V5a2 2 0 0 1 2-2m2 2a2 2 0 0 0-2 2 2 2 0 0 0 2 2 2 2 0 0 0 2-2 2 2 0 0 0-2-2m10 10a2 2 0 0 0-2 2 2 2 0 0 0 2 2 2 2 0 0 0 2-2 2 2 0 0 0-2-2Z" transform="matrix(1.5 0 0 1.5 36 72)" id="mdi-dice-2" fill="#fff"/><path d="M19 5v14H5V5h14m0-2H5c-1.1 0-2 .9-2 2v14a2 2 0 0 0 2 2h14c1.11 0 2-.89 2-2V5a2 2 0 0 0-2-2M7.5 6C6.67 6 6 6.67 6 7.5S6.67 9 7.5 9 9 8.33 9 7.5 8.33 6 7.5 6m9 9c-.83 0-1.5.67-1.5 1.5s.67 1.5 1.5 1.5 1.5-.67 1.5-1.5-.67-1.5-1.5-1.5Z" transform="matrix(1.5 0 0 1.5 72 72)" id="mdi-dice-2-outline" fill="#555"/><path d="M19 5v14H5V5h14m0-2H5c-1.1 0-2 .9-2 2v14a2 2 0 0 0 2 2h14c1.11 0 2-.89 2-2V5a2 2 0 0 0-2-2M7.5 6C6.67 6 6 6.67 6 7.5S6.67 9 7.5 9 9 8.33 9 7.5 8.33 6 7.5 6m9 9c-.83 0-1.5.67-1.5 1.5s.67 1.5 1.5 1.5 1.5-.67 1.5-1.5-.67-1.5-1.5-1.5Z" transform="matrix(1.5 0 0 1.5 108 72)" id="mdi-dice-2-outline" fill="#fff"/><path d="M5 3h14a2 2 0 0 1 2 2v14a2 2 0 0 1-2 2H5a2 2 0 0 1-2-2V5a2 2 0 0 1 2-2m7 7a2 2 0 0 0-2 2 2 2 0 0 0 2 2 2 2 0 0 0 2-2 2 2 0 0 0-2-2M7 5a2 2 0 0 0-2 2 2 2 0 0 0 2 2 2 2 0 0 0 2-2 2 2 0 0 0-2-2m10 10a2 2 0 0 0-2 2 2 2 0 0 0 2 2 2 2 0 0 0 2-2 2 2 0 0 0-2-2Z" transform="matrix(1.5 0 0 1.5 144 72)" id="mdi-dice-3" fill="#555"/><path d="M5 3h14a2 2 0 0 1 2 2v14a2 2 0 0 1-2 2H5a2 2 0 0 1-2-2V5a2 2 0 0 1 2-2m7 7a2 2 0 0 0-2 2 2 2 0 0 0 2 2 2 2 0 0 0 2-2 2 2 0 0 0-2-2M7 5a2 2 0 0 0-2 2 2 2 0 0 0 2 2 2 2 0 0 0 2-2 2 2 0 0 0-2-2m10 10a2 2 0 0 0-2 2 2 2 0 0 0 2 2 2 2 0 0 0 2-2 2 2 0 0 0-2-2Z" transform="matrix(1.5 0 0 1.5 180 72)" id="mdi-dice-3" fill="#fff"/><path d="M19 5v14H5V5h14m0-2H5c-1.1 0-2 .9-2 2v14c0 1.1.9 2 2 2h14c1.1 0 2-.9 2-2V5c0-1.1-.9-2-2-2m-7 7.5c-.8 0-1.5.7-1.5 1.5s.7 1.5 1.5 1.5 1.5-.7 1.5-1.5-.7-1.5-1.5-1.5M7.5 6C6.7 6 6 6.7 6 7.5S6.7 9 7.5 9 9 8.3 9 7.5 8.3 6 7.5 6m9 9c-.8 0-1.5.7-1.5 1.5s.7 1.5 1.5 1.5 1.5-.7 1.5-1.5-.7-1.5-1.5-1.5Z" transform="matrix(1.5 0 0 1.5 216 72)" id="mdi-dice-3-outline" fill="#555"/><path d="M19 5v14H5V5h14m0-2H5c-1.1 0-2 .9-2 2v14c0 1.1.9 2 2 2h14c1.1 0 2-.9 2-2V5c0-1.1-.9-2-2-2m-7 7.5c-.8 0-1.5.7-1.5 1.5s.7 1.5 1.5 1.5 1.5-.7 1.5-1.5-.7-1.5-1.5-1.5M7.5 6C6.7 6 6 6.7 6 7.5S6.7 9 7.5 9 9 8.3 9 7.5 8.3 6 7.5 6m9 9c-.8 0-1.5.7-1.5 1.5s.7 1.5 1.5 1.5 1.5-.7 1.5-1.5-.7-1.5-1.5-1.5Z" transform="matrix(1.5 0 0 1.5 252 72)" id="mdi-dice-3-outline" fill="#fff"/><path d="M5 3h14a2 2 0 0 1 2 2v14a2 2 0 0 1-2 2H5a2 2 0 0 1-2-2V5a2 2 0 0 1 2-2m2 2a2 2 0 0 0-2 2 2 2 0 0 0 2 2 2 2 0 0 0 2-2 2 2 0 0 0-2-2m10 10a2 2 0 0 0-2 2 2 2 0 0 0 2 2 2 2 0 0 0 2-2 2 2 0 0 0-2-2m0-10a2 2 0 0 0-2 2 2 2 0 0 0 2 2 2 2 0 0 0 2-2 2 2 0 0 0-2-2M7 15a2 2 0 0 0-2 2 2 2 0 0 0 2 2 2 2 0 0 0 2-2 2 2 0 0 0-2-2Z" transform="matrix(1.5 0 0 1.5 288 72)" id="mdi-dice-4" fill="#555"/><path d="M5 3h14a2 2 0 0 1 2 2v14a2 2 0 0 1-2 2H5a2 2 0 0 1-2-2V5a2 2 0 0 1 2-2m2 2a2 2 0 0 0-2 2 2 2 0 0 0 2 2 2 2 0 0 0 2-2 2 2 0 0 0-2-2m10 10a2 2 0 0 0-2 2 2 2 0 0 0 2 2 2 2 0 0 0 2-2 2 2 0 0 0-2-2m0-10a2 2 0 0 0-2 2 2 2 0 0 0 2 2 2 2 0 0 0 2-2 2 2 0 0 0-2-2M7 15a2 2 0 0 0-2 2 2 2 0 0 0 2 2 2 2 0 0 0 2-2 2 2 0 0 0-2-2Z" transform="matrix(1.5 0 0 1.5 324 72)" id="mdi-dice-4" fill="#fff"/><path d="M19 5v14H5V5h14m0-2H5c-1.1 0-2 .9-2 2v14a2 2 0 0 0 2 2h14c1.11 0 2-.89 2-2V5a2 2 0 0 0-2-2M7.5 6C6.67 6 6 6.67 6 7.5S6.67 9 7.5 9 9 8.33 9 7.5 8.33 6 7.5 6m9 9c-.83 0-1.5.67-1.5 1.5s.67 1.5 1.5 1.5 1.5-.67 1.5-1.5-.67-1.5-1.5-1.5m0-9c-.83 0-1.5.67-1.5 1.5S15.67 9 16.5 9 18 8.33 18 7.5 17.33 6 16.5 6m-9 9c-.83 0-1.5.67-1.5 1.5S6.67 18 7.5 18 9 17.33 9 16.5 8.33 15 7.5 15Z" transform="matrix(1.5 0 0 1.5 360 72)" id="mdi-dice-4-outline" fill="#555"/><path d="M19 5v14H5V5h14m0-2H5c-1.1 0-2 .9-2 2v14a2 2 0 0 0 2 2h14c1.11 0 2-.89 2-2V5a2 2 0 0 0-2-2M7.5 6C6.67 6 6 6.67 6 7.5S6.67 9 7.5 9 9 8.33 9 7.5 8.33 6 7.5 6m9 9c-.83 0-1.5.67-1.5 1.5s.67 1.5 1.5 1.5 1.5-.67 1.5-1.5-.67-1.5-1.5-1.5m0-9c-.83 0-1.5.67-1.5 1.5S15.67 9 16.5 9 18 8.33 18 7.5 17.33 6 16.5 6m-9 9c-.83 0-1.5.67-1.5 1.5S6.67 18 7.5 18 9 17.33 9 16.5 8.33 15 7.5 15Z" transform="matrix(1.5 0 0 1.5 396 72)" id="mdi-dice-4-outline" fill="#fff"/><path d="M5 3h14a2 2 0 0 1 2 2v14a2 2 0 0 1-2 2H5a2 2 0 0 1-2-2V5a2 2 0 0 1 2-2m2 2a2 2 0 0 0-2 2 2 2 0 0 0 2 2 2 2 0 0 0 2-2 2 2 0 0 0-2-2m10 10a2 2 0 0 0-2 2 2 2 0 0 0 2 2 2 2 0 0 0 2-2 2 2 0 0 0-2-2m0-10a2 2 0 0 0-2 2 2 2 0 0 0 2 2 2 2 0 0 0 2-2 2 2 0 0 0-2-2m-5 5a2 2 0 0 0-2 2 2 2 0 0 0 2 2 2 2 0 0 0 2-2 2 2 0 0 0-2-2m-5 5a2 2 0 0 0-2 2 2 2 0 0 0 2 2 2 2 0 0 0 2-2 2 2 0 0 0-2-2Z" transform="matrix(1.5 0 0 1.5 432 72)" id="mdi-dice-5" fill="#555"/><path d="M5 3h14a2 2 0 0 1 2 2v14a2 2 0 0 1-2 2H5a2 2 0 0 1-2-2V5a2 2 0 0 1 2-2m2 2a2 2 0 0 0-2 2 2 2 0 0 0 2 2 2 2 0 0 0 2-2 2 2 0 0 0-2-2m10 10a2 2 0 0 0-2 2 2 2 0 0 0 2 2 2 2 0 0 0 2-2 2 2 0 0 0-2-2m0-10a2 2 0 0 0-2 2 2 2 0 0 0 2 2 2 2 0 0 0 2-2 2 2 0 0 0-2-2m-5 5a2 2 0 0 0-2 2 2 2 0 0 0 2 2 2 2 0 0 0 2-2 2 2 0 0 0-2-2m-5 5a2 2 0 0 0-2 2 2 2 0 0 0 2 2 2 2 0 0 0 2-2 2 2 0 0 0-2-2Z" transform="matrix(1.5 0 0 1.5 468 72)" id="mdi-dice-5" fill="#fff"/><path d="M19 5v14H5V5h14m0-2H5c-1.1 0-2 .9-2 2v14c0 1.1.9 2 2 2h14c1.1 0 2-.9 2-2V5c0-1.1-.9-2-2-2M7.5 6C6.7 6 6 6.7 6 7.5S6.7 9 7.5 9 9 8.3 9 7.5 8.3 6 7.5 6m9 9c-.8 0-1.5.7-1.5 1.5s.7 1.5 1.5 1.5 1.5-.7 1.5-1.5-.7-1.5-1.5-1.5m0-9c-.8 0-1.5.7-1.5 1.5S15.7 9 16.5 9 18 8.3 18 7.5 17.3 6 16.5 6M12 10.5c-.8 0-1.5.7-1.5 1.5s.7 1.5 1.5 1.5 1.5-.7 1.5-1.5-.7-1.5-1.5-1.5M7.5 15c-.8 0-1.5.7-1.5 1.5S6.7 18 7.5 18 9 17.3 9 16.5 8.3 15 7.5 15Z" transform="matrix(1.5 0 0 1.5 504 72)" id="mdi-dice-5-outline" fill="#555"/><path d="M19 5v14H5V5h14m0-2H5c-1.1 0-2 .9-2 2v14c0 1.1.9 2 2 2h14c1.1 0 2-.9 2-2V5c0-1.1-.9-2-2-2M7.5 6C6.7 6 6 6.7 6 7.5S6.7 9 7.5 9 9 8.3 9 7.5 8.3 6 7.5 6m9 9c-.8 0-1.5.7-1.5 1.5s.7 1.5 1.5 1.5 1.5-.7 1.5-1.5-.7-1.5-1.5-1.5m0-9c-.8 0-1.5.7-1.5 1.5S15.7 9 16.5 9 18 8.3 18 7.5 17.3 6 16.5 6M12 10.5c-.8 0-1.5.7-1.5 1.5s.7 1.5 1.5 1.5 1.5-.7 1.5-1.5-.7-1.5-1.5-1.5M7.5 15c-.8 0-1.5.7-1.5 1.5S6.7 18 7.5 18 9 17.3 9 16.5 8.3 15 7.5 15Z" transform="matrix(1.5 0 0 1.5 540 72)" id="mdi-dice-5-outline" fill="#fff"/><path d="M5 3h14a2 2 0 0 1 2 2v14a2 2 0 0 1-2 2H5a2 2 0 0 1-2-2V5a2 2 0 0 1 2-2m2 2a2 2 0 0 0-2 2 2 2 0 0 0 2 2 2 2 0 0 0 2-2 2 2 0 0 0-2-2m10 10a2 2 0 0 0-2 2 2 2 0 0 0 2 2 2 2 0 0 0 2-2 2 2 0 0 0-2-2m0-5a2 2 0 0 0-2 2 2 2 0 0 0 2 2 2 2 0 0 0 2-2 2 2 0 0 0-2-2m0-5a2 2 0 0 0-2 2 2 2 0 0 0 2 2 2 2 0 0 0 2-2 2 2 0 0 0-2-2M7 10a2 2 0 0 0-2 2 2 2 0 0 0 2 2 2 2 0 0 0 2-2 2 2 0 0 0-2-2m0 5a2 2 0 0 0-2 2 2 2 0 0 0 2 2 2 2 0 0 0 2-2 2 2 0 0 0-2-2Z" transform="matrix(1.5 0 0 1.5 576 72)" id="mdi-dice-6" fill="#555"/><path d="M5 3h14a2 2 0 0 1 2 2v14a2 2 0 0 1-2 2H5a2 2 0 0 1-2-2V5a2 2 0 0 1 2-2m2 2a2 2 0 0 0-2 2 2 2 0 0 0 2 2 2 2 0 0 0 2-2 2 2 0 0 0-2-2m10 10a2 2 0 0 0-2 2 2 2 0 0 0 2 2 2 2 0 0 0 2-2 2 2 0 0 0-2-2m0-5a2 2 0 0 0-2 2 2 2 0 0 0 2 2 2 2 0 0 0 2-2 2 2 0 0 0-2-2m0-5a2 2 0 0 0-2 2 2 2 0 0 0 2 2 2 2 0 0 0 2-2 2 2 0 0 0-2-2M7 10a2 2 0 0 0-2 2 2 2 0 0 0 2 2 2 2 0 0 0 2-2 2 2 0 0 0-2-2m0 5a2 2 0 0 0-2 2 2 2 0 0 0 2 2 2 2 0 0 0 2-2 2 2 0 0 0-2-2Z" transform="matrix(1.5 0 0 1.5 612 72)" id="mdi-dice-6" fill="#fff"/><path d="M19 5v14H5V5h14m0-2H5c-1.1 0-2 .9-2 2v14c0 1.1.9 2 2 2h14c1.1 0 2-.9 2-2V5c0-1.1-.9-2-2-2M7.5 6C6.7 6 6 6.7 6 7.5S6.7 9 7.5 9 9 8.3 9 7.5 8.3 6 7.5 6m9 9c-.8 0-1.5.7-1.5 1.5s.7 1.5 1.5 1.5 1.5-.7 1.5-1.5-.7-1.5-1.5-1.5m0-4.5c-.8 0-1.5.7-1.5 1.5s.7 1.5 1.5 1.5S18 12.8 18 12s-.7-1.5-1.5-1.5m0-4.5c-.8 0-1.5.7-1.5 1.5S15.7 9 16.5 9 18 8.3 18 7.5 17.3 6 16.5 6m-9 4.5c-.8 0-1.5.7-1.5 1.5s.7 1.5 1.5 1.5S9 12.8 9 12s-.7-1.5-1.5-1.5m0 4.5c-.8 0-1.5.7-1.5 1.5S6.7 18 7.5 18 9 17.3 9 16.5 8.3 15 7.5 15Z" transform="matrix(1.5 0 0 1.5 648 72)" id="mdi-dice-6-outline" fill="#555"/><path d="M19 5v14H5V5h14m0-2H5c-1.1 0-2 .9-2 2v14c0 1.1.9 2 2 2h14c1.1 0 2-.9 2-2V5c0-1.1-.9-2-2-2M7.5 6C6.7 6 6 6.7 6 7.5S6.7 9 7.5 9 9 8.3 9 7.5 8.3 6 7.5 6m9 9c-.8 0-1.5.7-1.5 1.5s.7 1.5 1.5 1.5 1.5-.7 1.5-1.5-.7-1.5-1.5-1.5m0-4.5c-.8 0-1.5.7-1.5 1.5s.7 1.5 1.5 1.5S18 12.8 18 12s-.7-1.5-1.5-1.5m0-4.5c-.8 0-1.5.7-1.5 1.5S15.7 9 16.5 9 18 8.3 18 7.5 17.3 6 16.5 6m-9 4.5c-.8 0-1.5.7-1.5 1.5s.7 1.5 1.5 1.5S9 12.8 9 12s-.7-1.5-1.5-1.5m0 4.5c-.8 0-1.5.7-1.5 1.5S6.7 18 7.5 18 9 17.3 9 16.5 8.3 15 7.5 15Z" transform="matrix(1.5 0 0 1.5 684 72)" id="mdi-dice-6-outline" fill="#fff"/><path d="M12 2c-.5 0-1 .19-1.41.59l-8 8c-.79.78-.79 2.04 0 2.82l8 8c.78.79 2.04.79 2.82 0l8-8c.79-.78.79-2.04 0-2.82l-8-8C13 2.19 12.5 2 12 2m2.07 6.21c1.43 0 2.57 1.15 2.57 2.57v2.64c0 1.42-1.14 2.58-2.57 2.58s-2.57-1.16-2.57-2.58v-2.64a2.57 2.57 0 0 1 2.57-2.57m-3.71.2h.14V16H9v-5.79l-1.78.55V9.53l3.14-1.12m3.7 1.24c-.59 0-1.06.48-1.06 1.06v2.79c0 .57.47 1.04 1.06 1.04.58 0 1.08-.48 1.08-1.04v-2.79c0-.59-.5-1.06-1.08-1.06Z" transform="matrix(1.5 0 0 1.5 0 108)" id="mdi-dice-d10" fill="#555"/><path d="M12 2c-.5 0-1 .19-1.41.59l-8 8c-.79.78-.79 2.04 0 2.82l8 8c.78.79 2.04.79 2.82 0l8-8c.79-.78.79-2.04 0-2.82l-8-8C13 2.19 12.5 2 12 2m2.07 6.21c1.43 0 2.57 1.15 2.57 2.57v2.64c0 1.42-1.14 2.58-2.57 2.58s-2.57-1.16-2.57-2.58v-2.64a2.57 2.57 0 0 1 2.57-2.57m-3.71.2h.14V16H9v-5.79l-1.78.55V9.53l3.14-1.12m3.7 1.24c-.59 0-1.06.48-1.06 1.06v2.79c0 .57.47 1.04 1.06 1.04.58 0 1.08-.48 1.08-1.04v-2.79c0-.59-.5-1.06-1.08-1.06Z" transform="matrix(1.5 0 0 1.5 36 108)" id="mdi-dice-d10" fill="#fff"/><path d="M10.5 16H9v-5.79l-1.78.55V9.53l3.14-1.12h.14V16m3.57-7.79c1.43 0 2.57 1.15 2.57 2.57v2.64c0 1.42-1.14 2.58-2.57 2.58s-2.57-1.16-2.57-2.58v-2.64a2.57 2.57 0 0 1 2.57-2.57m-.01 1.44c-.59 0-1.06.48-1.06 1.06v2.79c0 .57.47 1.04 1.06 1.04.58 0 1.08-.48 1.08-1.04v-2.79c0-.59-.5-1.06-1.08-1.06M12 2c-.5 0-1 .19-1.41.59l-8 8c-.79.78-.79 2.04 0 2.82l8 8c.78.79 2.04.79 2.82 0l8-8c.79-.78.79-2.04 0-2.82l-8-8C13 2.19 12.5 2 12 2m0 2 8 8-8 8-8-8Z" transform="matrix(1.5 0 0 1.5 72 108)" id="mdi-dice-d10-outline" fill="#555"/><path d="M10.5 16H9v-5.79l-1.78.55V9.53l3.14-1.12h.14V16m3.57-7.79c1.43 0 2.57 1.15 2.57 2.57v2.64c0 1.42-1.14 2.58-2.57 2.58s-2.57-1.16-2.57-2.58v-2.64a2.57 2.57 0 0 1 2.57-2.57m-.01 1.44c-.59 0-1.06.48-1.06 1.06v2.79c0 .57.47 1.04 1.06 1.04.58 0 1.08-.48 1.08-1.04v-2.79c0-.59-.5-1.06-1.08-1.06M12 2c-.5 0-1 .19-1.41.59l-8 8c-.79.78-.79 2.04 0 2.82l8 8c.78.79 2.04.79 2.82 0l8-8c.79-.78.79-2.04 0-2.82l-8-8C13 2.19 12.5 2 12 2m0 2 8 8-8 8-8-8Z" transform="matrix(1.5 0 0 1.5 108 108)" id="mdi-dice-d10-outline" fill="#fff"/><path d="M12 2 1.5 9.64 5.5 22h13l4-12.36L12 2m-1.5 15H8.89v-6.11L7 11.47v-1.28L10.31 9h.19v8m6.5 0h-5.34v-1.09s3.57-3.46 3.57-4.51c0-1.28-1.05-1.15-1.05-1.15-.68.05-1.18.62-1.18 1.3h-1.56c.06-1.46 1.28-2.61 2.83-2.55 2.47 0 2.5 1.85 2.5 2.3 0 1.77-3.19 4.47-3.19 4.47l3.42-.02V17Z" transform="matrix(1.5 0 0 1.5 144 108)" id="mdi-dice-d12" fill="#555"/><path d="M12 2 1.5 9.64 5.5 22h13l4-12.36L12 2m-1.5 15H8.89v-6.11L7 11.47v-1.28L10.31 9h.19v8m6.5 0h-5.34v-1.09s3.57-3.46 3.57-4.51c0-1.28-1.05-1.15-1.05-1.15-.68.05-1.18.62-1.18 1.3h-1.56c.06-1.46 1.28-2.61 2.83-2.55 2.47 0 2.5 1.85 2.5 2.3 0 1.77-3.19 4.47-3.19 4.47l3.42-.02V17Z" transform="matrix(1.5 0 0 1.5 180 108)" id="mdi-dice-d12" fill="#fff"/><path d="M12 2 1.5 9.64 5.5 22h13l4-12.36L12 2m5 18H7l-3.15-9.6L12 4.47l8.15 5.93L17 20m0-4.25V17h-5.34v-1.09s3.57-3.46 3.57-4.51c0-1.28-1.05-1.15-1.05-1.15-.68.05-1.18.62-1.18 1.3h-1.56c.06-1.46 1.28-2.61 2.83-2.55 2.47 0 2.5 1.85 2.5 2.3 0 1.77-3.19 4.47-3.19 4.47l3.42-.02M10.5 17H8.89v-6.11L7 11.47v-1.28L10.31 9h.19v8Z" transform="matrix(1.5 0 0 1.5 216 108)" id="mdi-dice-d12-outline" fill="#555"/><path d="M12 2 1.5 9.64 5.5 22h13l4-12.36L12 2m5 18H7l-3.15-9.6L12 4.47l8.15 5.93L17 20m0-4.25V17h-5.34v-1.09s3.57-3.46 3.57-4.51c0-1.28-1.05-1.15-1.05-1.15-.68.05-1.18.62-1.18 1.3h-1.56c.06-1.46 1.28-2.61 2.83-2.55 2.47 0 2.5 1.85 2.5 2.3 0 1.77-3.19 4.47-3.19 4.47l3.42-.02M10.5 17H8.89v-6.11L7 11.47v-1.28L10.31 9h.19v8Z" transform="matrix(1.5 0 0 1.5 252 108)" id="mdi-dice-d12-outline" fill="#fff"/><path d="m20.47 6.62-7.9-4.44C12.41 2.06 12.21 2 12 2s-.41.06-.57.18l-7.9 4.44c-.32.17-.53.5-.53.88v9c0 .38.21.71.53.88l7.9 4.44c.16.12.36.18.57.18s.41-.06.57-.18l7.9-4.44c.32-.17.53-.5.53-.88v-9c0-.38-.21-.71-.53-.88m-9.02 9.34-5.14-.03v-1.02s3.43-3.33 3.44-4.34c0-1.24-1.02-1.11-1.02-1.11s-.98.04-1.09 1.25l-1.5.05s.04-2.5 2.69-2.5c2.37 0 2.4 1.78 2.4 2.24 0 1.68-3.08 4.27-3.08 4.27l3.3-.01v1.2m6.05-2.46c0 1.4-1.15 2.55-2.57 2.55-1.43 0-2.57-1.15-2.57-2.55v-2.66c0-1.42 1.14-2.57 2.57-2.57s2.57 1.15 2.57 2.57v2.66M16 10.77v2.76c0 .59-.5 1.07-1.08 1.07-.58 0-1.06-.48-1.06-1.07v-2.76c0-.59.48-1.06 1.06-1.06.58 0 1.08.47 1.08 1.06Z" transform="matrix(1.5 0 0 1.5 288 108)" id="mdi-dice-d20" fill="#555"/><path d="m20.47 6.62-7.9-4.44C12.41 2.06 12.21 2 12 2s-.41.06-.57.18l-7.9 4.44c-.32.17-.53.5-.53.88v9c0 .38.21.71.53.88l7.9 4.44c.16.12.36.18.57.18s.41-.06.57-.18l7.9-4.44c.32-.17.53-.5.53-.88v-9c0-.38-.21-.71-.53-.88m-9.02 9.34-5.14-.03v-1.02s3.43-3.33 3.44-4.34c0-1.24-1.02-1.11-1.02-1.11s-.98.04-1.09 1.25l-1.5.05s.04-2.5 2.69-2.5c2.37 0 2.4 1.78 2.4 2.24 0 1.68-3.08 4.27-3.08 4.27l3.3-.01v1.2m6.05-2.46c0 1.4-1.15 2.55-2.57 2.55-1.43 0-2.57-1.15-2.57-2.55v-2.66c0-1.42 1.14-2.57 2.57-2.57s2.57 1.15 2.57 2.57v2.66M16 10.77v2.76c0 .59-.5 1.07-1.08 1.07-.58 0-1.06-.48-1.06-1.07v-2.76c0-.59.48-1.06 1.06-1.06.58 0 1.08.47 1.08 1.06Z" transform="matrix(1.5 0 0 1.5 324 108)" id="mdi-dice-d20" fill="#fff"/><path d="M21 16.5c0 .38-.21.71-.53.88l-7.9 4.44c-.16.12-.36.18-.57.18-.21 0-.41-.06-.57-.18l-7.9-4.44A.991.991 0 0 1 3 16.5v-9c0-.38.21-.71.53-.88l7.9-4.44c.16-.12.36-.18.57-.18.21 0 .41.06.57.18l7.9 4.44c.32.17.53.5.53.88v9M12 4.15 5 8.09v7.82l7 3.94 7-3.94V8.09l-7-3.94m2.93 4.12a2.57 2.57 0 0 1 2.57 2.57v2.66c0 1.4-1.15 2.55-2.57 2.55-1.43 0-2.57-1.15-2.57-2.55v-2.66a2.57 2.57 0 0 1 2.57-2.57m-.01 1.44c-.58 0-1.06.47-1.06 1.06v2.76c0 .59.48 1.07 1.06 1.07.58 0 1.08-.48 1.08-1.07v-2.76c0-.59-.5-1.06-1.08-1.06m-3.47 5.05v1.2l-5.14-.03v-1.02s3.43-3.33 3.44-4.34c0-1.24-1.02-1.11-1.02-1.11s-.98.04-1.09 1.25l-1.5.05s.04-2.5 2.69-2.5c2.37 0 2.4 1.78 2.4 2.24 0 1.68-3.08 4.27-3.08 4.27l3.3-.01Z" transform="matrix(1.5 0 0 1.5 360 108)" id="mdi-dice-d20-outline" fill="#555"/><path d="M21 16.5c0 .38-.21.71-.53.88l-7.9 4.44c-.16.12-.36.18-.57.18-.21 0-.41-.06-.57-.18l-7.9-4.44A.991.991 0 0 1 3 16.5v-9c0-.38.21-.71.53-.88l7.9-4.44c.16-.12.36-.18.57-.18.21 0 .41.06.57.18l7.9 4.44c.32.17.53.5.53.88v9M12 4.15 5 8.09v7.82l7 3.94 7-3.94V8.09l-7-3.94m2.93 4.12a2.57 2.57 0 0 1 2.57 2.57v2.66c0 1.4-1.15 2.55-2.57 2.55-1.43 0-2.57-1.15-2.57-2.55v-2.66a2.57 2.57 0 0 1 2.57-2.57m-.01 1.44c-.58 0-1.06.47-1.06 1.06v2.76c0 .59.48 1.07 1.06 1.07.58 0 1.08-.48 1.08-1.07v-2.76c0-.59-.5-1.06-1.08-1.06m-3.47 5.05v1.2l-5.14-.03v-1.02s3.43-3.33 3.44-4.34c0-1.24-1.02-1.11-1.02-1.11s-.98.04-1.09 1.25l-1.5.05s.04-2.5 2.69-2.5c2.37 0 2.4 1.78 2.4 2.24 0 1.68-3.08 4.27-3.08 4.27l3.3-.01Z" transform="matrix(1.5 0 0 1.5 396 108)" id="mdi-dice-d20-outline" fill="#fff"/><path d="m10.25 15.15 1.67-2.68v2.68h-1.67M21.92 21H2.08c-.84 0-1.36-.92-.92-1.64l9.92-16.23c.42-.69 1.42-.69 1.84 0l9.92 16.23c.44.72-.08 1.64-.92 1.64m-7.63-5.85h-.86v-4.73h-1.52l-3.16 4.99.07.95h3.1V18h1.51v-1.64h.86v-1.21Z" transform="matrix(1.5 0 0 1.5 432 108)" id="mdi-dice-d4" fill="#555"/><path d="m10.25 15.15 1.67-2.68v2.68h-1.67M21.92 21H2.08c-.84 0-1.36-.92-.92-1.64l9.92-16.23c.42-.69 1.42-.69 1.84 0l9.92 16.23c.44.72-.08 1.64-.92 1.64m-7.63-5.85h-.86v-4.73h-1.52l-3.16 4.99.07.95h3.1V18h1.51v-1.64h.86v-1.21Z" transform="matrix(1.5 0 0 1.5 468 108)" id="mdi-dice-d4" fill="#fff"/><path d="M13.43 15.15h.86v1.21h-.86V18h-1.51v-1.64h-3.1l-.07-.95 3.16-4.99h1.52v4.73m-3.18 0h1.67v-2.68l-1.67 2.68M22 21H2c-.36 0-.69-.19-.87-.5a.97.97 0 0 1 .02-1l10-16.5c.35-.62 1.35-.62 1.71 0l10 16.5A.993.993 0 0 1 22 21M3.78 19h16.45L12 5.43 3.78 19Z" transform="matrix(1.5 0 0 1.5 504 108)" id="mdi-dice-d4-outline" fill="#555"/><path d="M13.43 15.15h.86v1.21h-.86V18h-1.51v-1.64h-3.1l-.07-.95 3.16-4.99h1.52v4.73m-3.18 0h1.67v-2.68l-1.67 2.68M22 21H2c-.36 0-.69-.19-.87-.5a.97.97 0 0 1 .02-1l10-16.5c.35-.62 1.35-.62 1.71 0l10 16.5A.993.993 0 0 1 22 21M3.78 19h16.45L12 5.43 3.78 19Z" transform="matrix(1.5 0 0 1.5 540 108)" id="mdi-dice-d4-outline" fill="#fff"/><path d="M13.05 13.5c0 .77-.44 1.33-1.05 1.33s-1.15-.56-1.15-1.33l-.02-.72s.38-.78 1.12-.68c.61 0 1.1.63 1.1 1.4M21 5v14c0 1.11-.89 2-2 2H5a2 2 0 0 1-2-2V5c0-1.1.9-2 2-2h14a2 2 0 0 1 2 2m-6.45 8.41c-.05-1.96-1.36-2.54-2.02-2.54-1.12 0-1.67.66-1.67.66s.03-2.03 2.53-2v-1.2s-4.06-.39-4.09 4.33c-.03 4.2 3.47 3.34 3.47 3.34s1.84-.53 1.78-2.59Z" transform="matrix(1.5 0 0 1.5 576 108)" id="mdi-dice-d6" fill="#555"/><path d="M13.05 13.5c0 .77-.44 1.33-1.05 1.33s-1.15-.56-1.15-1.33l-.02-.72s.38-.78 1.12-.68c.61 0 1.1.63 1.1 1.4M21 5v14c0 1.11-.89 2-2 2H5a2 2 0 0 1-2-2V5c0-1.1.9-2 2-2h14a2 2 0 0 1 2 2m-6.45 8.41c-.05-1.96-1.36-2.54-2.02-2.54-1.12 0-1.67.66-1.67.66s.03-2.03 2.53-2v-1.2s-4.06-.39-4.09 4.33c-.03 4.2 3.47 3.34 3.47 3.34s1.84-.53 1.78-2.59Z" transform="matrix(1.5 0 0 1.5 612 108)" id="mdi-dice-d6" fill="#fff"/><path d="M5 3h14a2 2 0 0 1 2 2v14a2 2 0 0 1-2 2H5a2 2 0 0 1-2-2V5a2 2 0 0 1 2-2m0 2v14h14V5H5m8.39 4.53c-2.5-.03-2.53 2-2.53 2s.55-.66 1.67-.66c.66 0 1.97.58 2.02 2.54.06 2.06-1.78 2.59-1.78 2.59s-3.5.86-3.47-3.34c.03-4.72 4.09-4.33 4.09-4.33v1.2m-1.44 2.57c-.74-.1-1.12.68-1.12.68l.02.72c0 .77.54 1.33 1.15 1.33.61 0 1.05-.56 1.05-1.33s-.49-1.4-1.1-1.4Z" transform="matrix(1.5 0 0 1.5 648 108)" id="mdi-dice-d6-outline" fill="#555"/><path d="M5 3h14a2 2 0 0 1 2 2v14a2 2 0 0 1-2 2H5a2 2 0 0 1-2-2V5a2 2 0 0 1 2-2m0 2v14h14V5H5m8.39 4.53c-2.5-.03-2.53 2-2.53 2s.55-.66 1.67-.66c.66 0 1.97.58 2.02 2.54.06 2.06-1.78 2.59-1.78 2.59s-3.5.86-3.47-3.34c.03-4.72 4.09-4.33 4.09-4.33v1.2m-1.44 2.57c-.74-.1-1.12.68-1.12.68l.02.72c0 .77.54 1.33 1.15 1.33.61 0 1.05-.56 1.05-1.33s-.49-1.4-1.1-1.4Z" transform="matrix(1.5 0 0 1.5 684 108)" id="mdi-dice-d6-outline" fill="#fff"/><path d="M12 2c-.5 0-1 .19-1.41.59l-8 8c-.79.78-.79 2.04 0 2.82l8 8c.78.79 2.04.79 2.82 0l8-8c.79-.78.79-2.04 0-2.82l-8-8C13 2.19 12.5 2 12 2m0 6.25c1.31 0 2.38.95 2.38 2.13 0 .69-.38 1.3-.94 1.69.7.39 1.16 1.06 1.16 1.83 0 1.22-1.16 2.2-2.6 2.2-1.44 0-2.6-.98-2.6-2.2 0-.77.46-1.44 1.16-1.83-.56-.39-.93-1-.93-1.69 0-1.18 1.06-2.13 2.37-2.13m0 1.25c-.5 0-.9.45-.9 1s.4 1 .9 1 .9-.45.9-1-.4-1-.9-1m0 3.15c-.61 0-1.1.49-1.1 1.1 0 .61.49 1.1 1.1 1.1.61 0 1.1-.49 1.1-1.1 0-.61-.49-1.1-1.1-1.1Z" transform="matrix(1.5 0 0 1.5 0 144)" id="mdi-dice-d8" fill="#555"/><path d="M12 2c-.5 0-1 .19-1.41.59l-8 8c-.79.78-.79 2.04 0 2.82l8 8c.78.79 2.04.79 2.82 0l8-8c.79-.78.79-2.04 0-2.82l-8-8C13 2.19 12.5 2 12 2m0 6.25c1.31 0 2.38.95 2.38 2.13 0 .69-.38 1.3-.94 1.69.7.39 1.16 1.06 1.16 1.83 0 1.22-1.16 2.2-2.6 2.2-1.44 0-2.6-.98-2.6-2.2 0-.77.46-1.44 1.16-1.83-.56-.39-.93-1-.93-1.69 0-1.18 1.06-2.13 2.37-2.13m0 1.25c-.5 0-.9.45-.9 1s.4 1 .9 1 .9-.45.9-1-.4-1-.9-1m0 3.15c-.61 0-1.1.49-1.1 1.1 0 .61.49 1.1 1.1 1.1.61 0 1.1-.49 1.1-1.1 0-.61-.49-1.1-1.1-1.1Z" transform="matrix(1.5 0 0 1.5 36 144)" id="mdi-dice-d8" fill="#fff"/><path d="M12 2c-.5 0-1 .19-1.41.59l-8 8c-.79.78-.79 2.04 0 2.82l8 8c.78.79 2.04.79 2.82 0l8-8c.79-.78.79-2.04 0-2.82l-8-8C13 2.19 12.5 2 12 2m0 2 8 8-8 8-8-8m8-3.75c1.31 0 2.38.95 2.38 2.13 0 .69-.38 1.3-.94 1.69.7.39 1.16 1.06 1.16 1.83 0 1.22-1.16 2.2-2.6 2.2-1.44 0-2.6-.98-2.6-2.2 0-.77.46-1.44 1.16-1.83-.56-.39-.93-1-.93-1.69 0-1.18 1.06-2.13 2.37-2.13m0 4.4c-.61 0-1.1.49-1.1 1.1 0 .61.49 1.1 1.1 1.1.61 0 1.1-.49 1.1-1.1 0-.61-.49-1.1-1.1-1.1m0-3.15c-.5 0-.9.45-.9 1s.4 1 .9 1 .9-.45.9-1-.4-1-.9-1" transform="matrix(1.5 0 0 1.5 72 144)" id="mdi-dice-d8-outline" fill="#555"/><path d="M12 2c-.5 0-1 .19-1.41.59l-8 8c-.79.78-.79 2.04 0 2.82l8 8c.78.79 2.04.79 2.82 0l8-8c.79-.78.79-2.04 0-2.82l-8-8C13 2.19 12.5 2 12 2m0 2 8 8-8 8-8-8m8-3.75c1.31 0 2.38.95 2.38 2.13 0 .69-.38 1.3-.94 1.69.7.39 1.16 1.06 1.16 1.83 0 1.22-1.16 2.2-2.6 2.2-1.44 0-2.6-.98-2.6-2.2 0-.77.46-1.44 1.16-1.83-.56-.39-.93-1-.93-1.69 0-1.18 1.06-2.13 2.37-2.13m0 4.4c-.61 0-1.1.49-1.1 1.1 0 .61.49 1.1 1.1 1.1.61 0 1.1-.49 1.1-1.1 0-.61-.49-1.1-1.1-1.1m0-3.15c-.5 0-.9.45-.9 1s.4 1 .9 1 .9-.45.9-1-.4-1-.9-1" transform="matrix(1.5 0 0 1.5 108 144)" id="mdi-dice-d8-outline" fill="#fff"/><path d="M19.78 3h-8.56C10.55 3 10 3.55 10 4.22V8h6v6h3.78c.67 0 1.22-.55 1.22-1.22V4.22C21 3.55 20.45 3 19.78 3m-7.34 3.67a1.23 1.23 0 1 1 0-2.46 1.23 1.23 0 0 1 1.23 1.23c0 .68-.55 1.23-1.23 1.23m6.12 6.11a1.23 1.23 0 1 1-.02-2.46c.68-.01 1.23.54 1.24 1.24-.01.67-.55 1.21-1.22 1.22m0-6.11a1.23 1.23 0 1 1-.02-2.46 1.231 1.231 0 0 1 .02 2.46M4.22 10h8.56A1.22 1.22 0 0 1 14 11.22v8.56c0 .67-.55 1.22-1.22 1.22H4.22C3.55 21 3 20.45 3 19.78v-8.56c0-.67.55-1.22 1.22-1.22m4.28 4.28c-.67 0-1.22.55-1.22 1.22 0 .67.55 1.22 1.22 1.22.67 0 1.22-.55 1.22-1.22a1.22 1.22 0 0 0-1.22-1.22m-3.06-3.06c-.67 0-1.22.55-1.22 1.22a1.22 1.22 0 0 0 1.22 1.22c.67 0 1.22-.55 1.22-1.22 0-.67-.55-1.22-1.22-1.22m6.11 6.11c-.67 0-1.22.55-1.22 1.22 0 .67.55 1.22 1.22 1.22a1.22 1.22 0 0 0 1.22-1.22c0-.67-.54-1.21-1.21-1.22h-.01Z" transform="matrix(1.5 0 0 1.5 144 144)" id="mdi-dice-multiple" fill="#555"/><path d="M19.78 3h-8.56C10.55 3 10 3.55 10 4.22V8h6v6h3.78c.67 0 1.22-.55 1.22-1.22V4.22C21 3.55 20.45 3 19.78 3m-7.34 3.67a1.23 1.23 0 1 1 0-2.46 1.23 1.23 0 0 1 1.23 1.23c0 .68-.55 1.23-1.23 1.23m6.12 6.11a1.23 1.23 0 1 1-.02-2.46c.68-.01 1.23.54 1.24 1.24-.01.67-.55 1.21-1.22 1.22m0-6.11a1.23 1.23 0 1 1-.02-2.46 1.231 1.231 0 0 1 .02 2.46M4.22 10h8.56A1.22 1.22 0 0 1 14 11.22v8.56c0 .67-.55 1.22-1.22 1.22H4.22C3.55 21 3 20.45 3 19.78v-8.56c0-.67.55-1.22 1.22-1.22m4.28 4.28c-.67 0-1.22.55-1.22 1.22 0 .67.55 1.22 1.22 1.22.67 0 1.22-.55 1.22-1.22a1.22 1.22 0 0 0-1.22-1.22m-3.06-3.06c-.67 0-1.22.55-1.22 1.22a1.22 1.22 0 0 0 1.22 1.22c.67 0 1.22-.55 1.22-1.22 0-.67-.55-1.22-1.22-1.22m6.11 6.11c-.67 0-1.22.55-1.22 1.22 0 .67.55 1.22 1.22 1.22a1.22 1.22 0 0 0 1.22-1.22c0-.67-.54-1.21-1.21-1.22h-.01Z" transform="matrix(1.5 0 0 1.5 180 144)" id="mdi-dice-multiple" fill="#fff"/><path d="M14 8c-.55 0-1-.45-1-1s.45-1 1-1 1 .45 1 1-.45 1-1 1m-2 4v7H5v-7h7m.78-2H4.22C3.55 10 3 10.55 3 11.22v8.56c0 .67.55 1.22 1.22 1.22h8.56c.67 0 1.22-.55 1.22-1.22v-8.56c0-.67-.55-1.22-1.22-1.22m7-7h-8.56C10.55 3 10 3.55 10 4.22V8h2V5h7v7h-3v2h3.78c.67 0 1.22-.55 1.22-1.22V4.22C21 3.55 20.45 3 19.78 3M17 8c-.55 0-1-.45-1-1s.45-1 1-1 1 .45 1 1-.45 1-1 1m0 3c-.55 0-1-.45-1-1s.45-1 1-1 1 .45 1 1-.45 1-1 1M7 15c-.55 0-1-.45-1-1s.45-1 1-1 1 .45 1 1-.45 1-1 1m3 3c-.55 0-1-.45-1-1s.45-1 1-1 1 .45 1 1-.45 1-1 1" transform="matrix(1.5 0 0 1.5 216 144)" id="mdi-dice-multiple-outline" fill="#555"/><path d="M14 8c-.55 0-1-.45-1-1s.45-1 1-1 1 .45 1 1-.45 1-1 1m-2 4v7H5v-7h7m.78-2H4.22C3.55 10 3 10.55 3 11.22v8.56c0 .67.55 1.22 1.22 1.22h8.56c.67 0 1.22-.55 1.22-1.22v-8.56c0-.67-.55-1.22-1.22-1.22m7-7h-8.56C10.55 3 10 3.55 10 4.22V8h2V5h7v7h-3v2h3.78c.67 0 1.22-.55 1.22-1.22V4.22C21 3.55 20.45 3 19.78 3M17 8c-.55 0-1-.45-1-1s.45-1 1-1 1 .45 1 1-.45 1-1 1m0 3c-.55 0-1-.45-1-1s.45-1 1-1 1 .45 1 1-.45 1-1 1M7 15c-.55 0-1-.45-1-1s.45-1 1-1 1 .45 1 1-.45 1-1 1m3 3c-.55 0-1-.45-1-1s.45-1 1-1 1 .45 1 1-.45 1-1 1" transform="matrix(1.5 0 0 1.5 252 144)" id="mdi-dice-multiple-outline" fill="#fff"/><path d="M6 12H2C2 6.5 6.5 2 12 2s10 4.5 10 10-4.5 10-10 10v-4H8v-4h4v4c3.32 0 6-2.69 6-6s-2.69-6-6-6-6 2.69-6 6m2 6v3H5v-3h3m-5-2h2v2H3v-2Z" transform="matrix(1.5 0 0 1.5 288 144)" id="mdi-digital-ocean" fill="#555"/><path d="M6 12H2C2 6.5 6.5 2 12 2s10 4.5 10 10-4.5 10-10 10v-4H8v-4h4v4c3.32 0 6-2.69 6-6s-2.69-6-6-6-6 2.69-6 6m2 6v3H5v-3h3m-5-2h2v2H3v-2Z" transform="matrix(1.5 0 0 1.5 324 144)" id="mdi-digital-ocean" fill="#fff"/><path d="M3 4h4a1 1 0 0 1 1 1v14a1 1 0 0 1-1 1H3a1 1 0 0 1-1-1V5a1 1 0 0 1 1-1m7 0h4a1 1 0 0 1 1 1v14a1 1 0 0 1-1 1h-4a1 1 0 0 1-1-1V5a1 1 0 0 1 1-1m7 0h4a1 1 0 0 1 1 1v14a1 1 0 0 1-1 1h-4a1 1 0 0 1-1-1V5a1 1 0 0 1 1-1M4 18h2v-5H4v5m7-7h2V6h-2v5m7 7h2v-5h-2v5Z" transform="matrix(1.5 0 0 1.5 360 144)" id="mdi-dip-switch" fill="#555"/><path d="M3 4h4a1 1 0 0 1 1 1v14a1 1 0 0 1-1 1H3a1 1 0 0 1-1-1V5a1 1 0 0 1 1-1m7 0h4a1 1 0 0 1 1 1v14a1 1 0 0 1-1 1h-4a1 1 0 0 1-1-1V5a1 1 0 0 1 1-1m7 0h4a1 1 0 0 1 1 1v14a1 1 0 0 1-1 1h-4a1 1 0 0 1-1-1V5a1 1 0 0 1 1-1M4 18h2v-5H4v5m7-7h2V6h-2v5m7 7h2v-5h-2v5Z" transform="matrix(1.5 0 0 1.5 396 144)" id="mdi-dip-switch" fill="#fff"/><path d="M14 14.5V12h-4v3H8v-4a1 1 0 0 1 1-1h5V7.5l3.5 3.5m4.21.29-9-9h-.01a.996.996 0 0 0-1.41 0l-9 9c-.39.39-.39 1.03 0 1.42l9 9c.39.38 1.02.39 1.42 0l9-9c.39-.39.39-1.03 0-1.42Z" transform="matrix(1.5 0 0 1.5 432 144)" id="mdi-directions" fill="#555"/><path d="M14 14.5V12h-4v3H8v-4a1 1 0 0 1 1-1h5V7.5l3.5 3.5m4.21.29-9-9h-.01a.996.996 0 0 0-1.41 0l-9 9c-.39.39-.39 1.03 0 1.42l9 9c.39.38 1.02.39 1.42 0l9-9c.39-.39.39-1.03 0-1.42Z" transform="matrix(1.5 0 0 1.5 468 144)" id="mdi-directions" fill="#fff"/><path d="M3 4v8.5l3-3L9 13c1 1 1 2 1 2v6h4v-7s0-1-.53-2S12 10 12 10L9 6.58 11.5 4M18 4l-4.46 4.47L14 9s.93 1 1.47 2c.21.4.33.79.4 1.13L21 7" transform="matrix(1.5 0 0 1.5 504 144)" id="mdi-directions-fork" fill="#555"/><path d="M3 4v8.5l3-3L9 13c1 1 1 2 1 2v6h4v-7s0-1-.53-2S12 10 12 10L9 6.58 11.5 4M18 4l-4.46 4.47L14 9s.93 1 1.47 2c.21.4.33.79.4 1.13L21 7" transform="matrix(1.5 0 0 1.5 540 144)" id="mdi-directions-fork" fill="#fff"/><path d="M12 14a2 2 0 0 1-2-2c0-1.11.89-2 2-2 1.11 0 2 .89 2 2a2 2 0 0 1-2 2m0-10a8 8 0 0 0-8 8 8 8 0 0 0 8 8 8 8 0 0 0 8-8 8 8 0 0 0-8-8Z" transform="matrix(1.5 0 0 1.5 576 144)" id="mdi-disc" fill="#555"/><path d="M12 14a2 2 0 0 1-2-2c0-1.11.89-2 2-2 1.11 0 2 .89 2 2a2 2 0 0 1-2 2m0-10a8 8 0 0 0-8 8 8 8 0 0 0 8 8 8 8 0 0 0 8-8 8 8 0 0 0-8-8Z" transform="matrix(1.5 0 0 1.5 612 144)" id="mdi-disc" fill="#fff"/><path d="M10 14c-1.1 0-2-.9-2-2s.9-2 2-2 2 .9 2 2-.9 2-2 2m0-10c-4.4 0-8 3.6-8 8s3.6 8 8 8 8-3.6 8-8-3.6-8-8-8m10 9h2V7h-2m0 10h2v-2h-2v2Z" transform="matrix(1.5 0 0 1.5 648 144)" id="mdi-disc-alert" fill="#555"/><path d="M10 14c-1.1 0-2-.9-2-2s.9-2 2-2 2 .9 2 2-.9 2-2 2m0-10c-4.4 0-8 3.6-8 8s3.6 8 8 8 8-3.6 8-8-3.6-8-8-8m10 9h2V7h-2m0 10h2v-2h-2v2Z" transform="matrix(1.5 0 0 1.5 684 144)" id="mdi-disc-alert" fill="#fff"/><path d="M14.5 10.37a1.87 1.87 0 1 0 0-3.74c-1.04 0-1.87.83-1.87 1.87a1.87 1.87 0 0 0 1.87 1.87m0-9.37A7.5 7.5 0 0 1 22 8.5c0 2.17-.92 4.13-2.4 5.5H9.4A7.51 7.51 0 0 1 7 8.5C7 4.35 10.36 1 14.5 1M6 21v1H4v-1H2v-6h20v6h-2v1h-2v-1H6m-2-3v1h9v-1H4m11-1v2h2v-2h-2m4 0a1 1 0 0 0-1 1 1 1 0 0 0 1 1 1 1 0 0 0 1-1 1 1 0 0 0-1-1Z" transform="matrix(1.5 0 0 1.5 0 180)" id="mdi-disc-player" fill="#555"/><path d="M14.5 10.37a1.87 1.87 0 1 0 0-3.74c-1.04 0-1.87.83-1.87 1.87a1.87 1.87 0 0 0 1.87 1.87m0-9.37A7.5 7.5 0 0 1 22 8.5c0 2.17-.92 4.13-2.4 5.5H9.4A7.51 7.51 0 0 1 7 8.5C7 4.35 10.36 1 14.5 1M6 21v1H4v-1H2v-6h20v6h-2v1h-2v-1H6m-2-3v1h9v-1H4m11-1v2h2v-2h-2m4 0a1 1 0 0 0-1 1 1 1 0 0 0 1 1 1 1 0 0 0 1-1 1 1 0 0 0-1-1Z" transform="matrix(1.5 0 0 1.5 36 180)" id="mdi-disc-player" fill="#fff"/><path d="m22 24-5.25-5 .63 2H4.5A2.5 2.5 0 0 1 2 18.5v-15A2.5 2.5 0 0 1 4.5 1h15A2.5 2.5 0 0 1 22 3.5V24M12 6.8c-2.68 0-4.56 1.15-4.56 1.15 1.03-.92 2.83-1.45 2.83-1.45l-.17-.17c-1.69.03-3.22 1.2-3.22 1.2-1.72 3.59-1.61 6.69-1.61 6.69 1.4 1.81 3.48 1.68 3.48 1.68l.71-.9c-1.25-.27-2.04-1.38-2.04-1.38S9.3 14.9 12 14.9s4.58-1.28 4.58-1.28-.79 1.11-2.04 1.38l.71.9s2.08.13 3.48-1.68c0 0 .11-3.1-1.61-6.69 0 0-1.53-1.17-3.22-1.2l-.17.17s1.8.53 2.83 1.45c0 0-1.88-1.15-4.56-1.15m-2.07 3.79c.65 0 1.18.57 1.17 1.27 0 .69-.52 1.27-1.17 1.27-.64 0-1.16-.58-1.16-1.27 0-.7.51-1.27 1.16-1.27m4.17 0c.65 0 1.17.57 1.17 1.27 0 .69-.52 1.27-1.17 1.27-.64 0-1.16-.58-1.16-1.27 0-.7.51-1.27 1.16-1.27Z" transform="matrix(1.5 0 0 1.5 72 180)" id="mdi-discord" fill="#555"/><path d="m22 24-5.25-5 .63 2H4.5A2.5 2.5 0 0 1 2 18.5v-15A2.5 2.5 0 0 1 4.5 1h15A2.5 2.5 0 0 1 22 3.5V24M12 6.8c-2.68 0-4.56 1.15-4.56 1.15 1.03-.92 2.83-1.45 2.83-1.45l-.17-.17c-1.69.03-3.22 1.2-3.22 1.2-1.72 3.59-1.61 6.69-1.61 6.69 1.4 1.81 3.48 1.68 3.48 1.68l.71-.9c-1.25-.27-2.04-1.38-2.04-1.38S9.3 14.9 12 14.9s4.58-1.28 4.58-1.28-.79 1.11-2.04 1.38l.71.9s2.08.13 3.48-1.68c0 0 .11-3.1-1.61-6.69 0 0-1.53-1.17-3.22-1.2l-.17.17s1.8.53 2.83 1.45c0 0-1.88-1.15-4.56-1.15m-2.07 3.79c.65 0 1.18.57 1.17 1.27 0 .69-.52 1.27-1.17 1.27-.64 0-1.16-.58-1.16-1.27 0-.7.51-1.27 1.16-1.27m4.17 0c.65 0 1.17.57 1.17 1.27 0 .69-.52 1.27-1.17 1.27-.64 0-1.16-.58-1.16-1.27 0-.7.51-1.27 1.16-1.27Z" transform="matrix(1.5 0 0 1.5 108 180)" id="mdi-discord" fill="#fff"/><path d="M18 2H6a2 2 0 0 0-2 2v16a2 2 0 0 0 2 2h12a2 2 0 0 0 2-2V4a2 2 0 0 0-2-2m-8 2a1 1 0 0 1 1 1 1 1 0 0 1-1 1 1 1 0 0 1-1-1 1 1 0 0 1 1-1M7 4a1 1 0 0 1 1 1 1 1 0 0 1-1 1 1 1 0 0 1-1-1 1 1 0 0 1 1-1m11 16H6V8h12v12m-3.33-4.67c.02.7-.26 1.38-.76 1.88a2.7 2.7 0 0 1-3.82 0c-.5-.5-.78-1.18-.76-1.88.07-.71.3-1.39.67-2 .37-.83.81-1.6 1.33-2.33l.67-1c1.79 2.59 2.67 4.36 2.67 5.33" transform="matrix(1.5 0 0 1.5 144 180)" id="mdi-dishwasher" fill="#555"/><path d="M18 2H6a2 2 0 0 0-2 2v16a2 2 0 0 0 2 2h12a2 2 0 0 0 2-2V4a2 2 0 0 0-2-2m-8 2a1 1 0 0 1 1 1 1 1 0 0 1-1 1 1 1 0 0 1-1-1 1 1 0 0 1 1-1M7 4a1 1 0 0 1 1 1 1 1 0 0 1-1 1 1 1 0 0 1-1-1 1 1 0 0 1 1-1m11 16H6V8h12v12m-3.33-4.67c.02.7-.26 1.38-.76 1.88a2.7 2.7 0 0 1-3.82 0c-.5-.5-.78-1.18-.76-1.88.07-.71.3-1.39.67-2 .37-.83.81-1.6 1.33-2.33l.67-1c1.79 2.59 2.67 4.36 2.67 5.33" transform="matrix(1.5 0 0 1.5 180 180)" id="mdi-dishwasher" fill="#fff"/><path d="M16 2H4c-1.1 0-2 .9-2 2v16a2 2 0 0 0 2 2h12c1.11 0 2-.89 2-2V4a2 2 0 0 0-2-2M8 4c.55 0 1 .45 1 1s-.45 1-1 1-1-.45-1-1 .45-1 1-1M5 4c.55 0 1 .45 1 1s-.45 1-1 1-1-.45-1-1 .45-1 1-1m11 16H4V8h12v12m-3.33-4.67c.02.7-.26 1.38-.76 1.88a2.7 2.7 0 0 1-3.82 0c-.5-.5-.78-1.18-.76-1.88.07-.71.3-1.39.67-2 .37-.83.81-1.6 1.33-2.33l.67-1c1.79 2.59 2.67 4.36 2.67 5.33M20 15h2v2h-2v-2m0-8h2v6h-2V7Z" transform="matrix(1.5 0 0 1.5 216 180)" id="mdi-dishwasher-alert" fill="#555"/><path d="M16 2H4c-1.1 0-2 .9-2 2v16a2 2 0 0 0 2 2h12c1.11 0 2-.89 2-2V4a2 2 0 0 0-2-2M8 4c.55 0 1 .45 1 1s-.45 1-1 1-1-.45-1-1 .45-1 1-1M5 4c.55 0 1 .45 1 1s-.45 1-1 1-1-.45-1-1 .45-1 1-1m11 16H4V8h12v12m-3.33-4.67c.02.7-.26 1.38-.76 1.88a2.7 2.7 0 0 1-3.82 0c-.5-.5-.78-1.18-.76-1.88.07-.71.3-1.39.67-2 .37-.83.81-1.6 1.33-2.33l.67-1c1.79 2.59 2.67 4.36 2.67 5.33M20 15h2v2h-2v-2m0-8h2v6h-2V7Z" transform="matrix(1.5 0 0 1.5 252 180)" id="mdi-dishwasher-alert" fill="#fff"/><path d="M22.11 21.46 2.39 1.73 1.11 3 4 5.89V20c0 1.11.89 2 2 2h12c.58 0 1.1-.25 1.46-.65l1.38 1.38 1.27-1.27M18 20H6V8h.11l4.39 4.37c-.19.32-.35.63-.5.96-.37.61-.6 1.29-.67 2-.02.7.26 1.38.76 1.88a2.7 2.7 0 0 0 3.82 0c.25-.24.44-.53.59-.85l3.5 3.53V20M11.2 8H18v6.8l2 2V4a2 2 0 0 0-2-2H6c-.24 0-.46.05-.67.13L11.2 8M10 4c.55 0 1 .45 1 1s-.45 1-1 1-1-.45-1-1 .45-1 1-1Z" transform="matrix(1.5 0 0 1.5 288 180)" id="mdi-dishwasher-off" fill="#555"/><path d="M22.11 21.46 2.39 1.73 1.11 3 4 5.89V20c0 1.11.89 2 2 2h12c.58 0 1.1-.25 1.46-.65l1.38 1.38 1.27-1.27M18 20H6V8h.11l4.39 4.37c-.19.32-.35.63-.5.96-.37.61-.6 1.29-.67 2-.02.7.26 1.38.76 1.88a2.7 2.7 0 0 0 3.82 0c.25-.24.44-.53.59-.85l3.5 3.53V20M11.2 8H18v6.8l2 2V4a2 2 0 0 0-2-2H6c-.24 0-.46.05-.67.13L11.2 8M10 4c.55 0 1 .45 1 1s-.45 1-1 1-1-.45-1-1 .45-1 1-1Z" transform="matrix(1.5 0 0 1.5 324 180)" id="mdi-dishwasher-off" fill="#fff"/><path d="M12.08 22c-2.45 0-4.69-.89-6.42-2.37l-4.25.58 1.64-4.06c-.55-1.27-.89-2.65-.89-4.15 0-5.5 4.44-10 9.92-10C17.56 2 22 6.5 22 12s-4.44 10-9.92 10m5.42-10.03v-.03C17.5 9.06 15.46 7 11.95 7H8.16v10h3.74c3.53 0 5.6-2.14 5.6-5.03M12 14.54h-1.11V9.46H12c1.62 0 2.7.93 2.7 2.54 0 1.63-1.08 2.54-2.7 2.54Z" transform="matrix(1.5 0 0 1.5 360 180)" id="mdi-disqus" fill="#555"/><path d="M12.08 22c-2.45 0-4.69-.89-6.42-2.37l-4.25.58 1.64-4.06c-.55-1.27-.89-2.65-.89-4.15 0-5.5 4.44-10 9.92-10C17.56 2 22 6.5 22 12s-4.44 10-9.92 10m5.42-10.03v-.03C17.5 9.06 15.46 7 11.95 7H8.16v10h3.74c3.53 0 5.6-2.14 5.6-5.03M12 14.54h-1.11V9.46H12c1.62 0 2.7.93 2.7 2.54 0 1.63-1.08 2.54-2.7 2.54Z" transform="matrix(1.5 0 0 1.5 396 180)" id="mdi-disqus" fill="#fff"/><path d="M8 2v3h2v14H8v3H6v-3H4V5h2V2h2m8 0v5h-2v10h2v5h2v-5h2V7h-2V2h-2Z" transform="matrix(1.5 0 0 1.5 432 180)" id="mdi-distribute-horizontal-center" fill="#555"/><path d="M8 2v3h2v14H8v3H6v-3H4V5h2V2h2m8 0v5h-2v10h2v5h2v-5h2V7h-2V2h-2Z" transform="matrix(1.5 0 0 1.5 468 180)" id="mdi-distribute-horizontal-center" fill="#fff"/><path d="M21 7v10h-5v5h-2V2h2v5h5M5 2H3v20h2v-3h5V5H5V2Z" transform="matrix(1.5 0 0 1.5 504 180)" id="mdi-distribute-horizontal-left" fill="#555"/><path d="M21 7v10h-5v5h-2V2h2v5h5M5 2H3v20h2v-3h5V5H5V2Z" transform="matrix(1.5 0 0 1.5 540 180)" id="mdi-distribute-horizontal-left" fill="#fff"/><path d="M3 17V7h5V2h2v20H8v-5H3m16 5h2V2h-2v3h-5v14h5v3Z" transform="matrix(1.5 0 0 1.5 576 180)" id="mdi-distribute-horizontal-right" fill="#555"/><path d="M3 17V7h5V2h2v20H8v-5H3m16 5h2V2h-2v3h-5v14h5v3Z" transform="matrix(1.5 0 0 1.5 612 180)" id="mdi-distribute-horizontal-right" fill="#fff"/><path d="M7 3h10v5h5v2H2V8h5V3M2 19v2h20v-2h-3v-5H5v5H2Z" transform="matrix(1.5 0 0 1.5 648 180)" id="mdi-distribute-vertical-bottom" fill="#555"/><path d="M7 3h10v5h5v2H2V8h5V3M2 19v2h20v-2h-3v-5H5v5H2Z" transform="matrix(1.5 0 0 1.5 684 180)" id="mdi-distribute-vertical-bottom" fill="#fff"/><path d="M2 16h3v-2h14v2h3v2h-3v2H5v-2H2v-2m0-8h5v2h10V8h5V6h-5V4H7v2H2v2Z" transform="matrix(1.5 0 0 1.5 0 216)" id="mdi-distribute-vertical-center" fill="#555"/><path d="M2 16h3v-2h14v2h3v2h-3v2H5v-2H2v-2m0-8h5v2h10V8h5V6h-5V4H7v2H2v2Z" transform="matrix(1.5 0 0 1.5 36 216)" id="mdi-distribute-vertical-center" fill="#fff"/><path d="M17 21H7v-5H2v-2h20v2h-5v5m5-16V3H2v2h3v5h14V5h3Z" transform="matrix(1.5 0 0 1.5 72 216)" id="mdi-distribute-vertical-top" fill="#555"/><path d="M17 21H7v-5H2v-2h20v2h-5v5m5-16V3H2v2h3v5h14V5h3Z" transform="matrix(1.5 0 0 1.5 108 216)" id="mdi-distribute-vertical-top" fill="#fff"/><path d="M19 2v2h-7a2 2 0 0 0-2 2v3h2V6h7v2l3-3-3-3m0 7v2h-5v2h5v2l3-3-3-3m-7.95 1c-1.11 0-2.01.87-2.02 2s.87 2 1.97 2c1.11 0 2-.89 2-2 0-1.09-.87-1.97-1.95-2M2 11v2h6v-2H2m8 4v3a2 2 0 0 0 2 2h7v2l3-3-3-3v2h-7v-3h-2Z" transform="matrix(1.5 0 0 1.5 144 216)" id="mdi-diversify" fill="#555"/><path d="M19 2v2h-7a2 2 0 0 0-2 2v3h2V6h7v2l3-3-3-3m0 7v2h-5v2h5v2l3-3-3-3m-7.95 1c-1.11 0-2.01.87-2.02 2s.87 2 1.97 2c1.11 0 2-.89 2-2 0-1.09-.87-1.97-1.95-2M2 11v2h6v-2H2m8 4v3a2 2 0 0 0 2 2h7v2l3-3-3-3v2h-7v-3h-2Z" transform="matrix(1.5 0 0 1.5 180 216)" id="mdi-diversify" fill="#fff"/><path d="m13.26 5.2.04-.02a1 1 0 0 1 1.41.12L16.97 8H20c.55 0 1 .45 1 1s-.45 1-1 1h-3.5c-.35 0-.65-.18-.83-.44l-1.5-1.79-2.53 2.36 2.93 2.05c.26.18.43.48.43.82v4c0 .55-.45 1-1 1s-1-.45-1-1v-3.5l-3.23-2.24a1.786 1.786 0 0 1-.17-2.8l3.66-3.26M16.5 5c.84 0 1.5-.67 1.5-1.5S17.34 2 16.5 2 15 2.67 15 3.5 15.68 5 16.5 5M6 19H5c-1.66 0-3 1.34-3 3h4v-1.5h9V19H6Z" transform="matrix(1.5 0 0 1.5 216 216)" id="mdi-diving" fill="#555"/><path d="m13.26 5.2.04-.02a1 1 0 0 1 1.41.12L16.97 8H20c.55 0 1 .45 1 1s-.45 1-1 1h-3.5c-.35 0-.65-.18-.83-.44l-1.5-1.79-2.53 2.36 2.93 2.05c.26.18.43.48.43.82v4c0 .55-.45 1-1 1s-1-.45-1-1v-3.5l-3.23-2.24a1.786 1.786 0 0 1-.17-2.8l3.66-3.26M16.5 5c.84 0 1.5-.67 1.5-1.5S17.34 2 16.5 2 15 2.67 15 3.5 15.68 5 16.5 5M6 19H5c-1.66 0-3 1.34-3 3h4v-1.5h9V19H6Z" transform="matrix(1.5 0 0 1.5 252 216)" id="mdi-diving" fill="#fff"/><path d="M20.28 3.66c-1-.22-1.74-1.41-2.71-1.62-.97-.21-2.17.55-3.15.33a3.66 3.66 0 0 0-3.14.34L11.21 17 11 18c-.36 1.62.67 3.22 2.29 3.58 1.61.35 3.21-.67 3.57-2.29l.21-1L23 5.28a3.63 3.63 0 0 0-2.72-1.62m-5.37 15.2c-.12.55-.66.9-1.21.79-.56-.12-.91-.65-.79-1.22l.86-3.93a1 1 0 0 1 1.97.34c0 .04-.01.07-.02.11l-.81 3.91m-5.19 2.48c-.39-.61-.64-1.29-.72-2L8.24 16c-.14-.53.17-1.08.76-1.24a.81.81 0 0 1 .22 0V3.43c-.91 0-2-.57-2.84-.37-.84.2-1.69 1.38-2.66 1.6-1.11.1-2.11.69-2.72 1.62l5.93 13 .21 1a3.003 3.003 0 0 0 3.57 2.29h.1c-.43-.35-.81-.76-1.09-1.23Z" transform="matrix(1.5 0 0 1.5 288 216)" id="mdi-diving-flippers" fill="#555"/><path d="M20.28 3.66c-1-.22-1.74-1.41-2.71-1.62-.97-.21-2.17.55-3.15.33a3.66 3.66 0 0 0-3.14.34L11.21 17 11 18c-.36 1.62.67 3.22 2.29 3.58 1.61.35 3.21-.67 3.57-2.29l.21-1L23 5.28a3.63 3.63 0 0 0-2.72-1.62m-5.37 15.2c-.12.55-.66.9-1.21.79-.56-.12-.91-.65-.79-1.22l.86-3.93a1 1 0 0 1 1.97.34c0 .04-.01.07-.02.11l-.81 3.91m-5.19 2.48c-.39-.61-.64-1.29-.72-2L8.24 16c-.14-.53.17-1.08.76-1.24a.81.81 0 0 1 .22 0V3.43c-.91 0-2-.57-2.84-.37-.84.2-1.69 1.38-2.66 1.6-1.11.1-2.11.69-2.72 1.62l5.93 13 .21 1a3.003 3.003 0 0 0 3.57 2.29h.1c-.43-.35-.81-.76-1.09-1.23Z" transform="matrix(1.5 0 0 1.5 324 216)" id="mdi-diving-flippers" fill="#fff"/><path d="M16 12a4 4 0 0 1-4 4 4 4 0 0 1-4-4 4 4 0 0 1 4-4 4 4 0 0 1 4 4m3.45-4.11-1.38.69.25.42H20v6h-1.67a7.062 7.062 0 0 1-2.12 2.6c1.64.51 2.89 1.31 3.46 2.26C18.69 21.1 15.62 22 12 22s-6.69-.9-7.67-2.14c.57-.95 1.82-1.75 3.46-2.26-.9-.68-1.63-1.57-2.12-2.6H4V9h1.68A6.952 6.952 0 0 1 9 5.68V4h6v1.68c.68.32 1.29.78 1.82 1.32l1.73-.86C19.93 5.42 20 4.1 20 2h2c0 2.06 0 4.62-2.55 5.89M17 12a5 5 0 0 0-5-5 5 5 0 0 0-5 5 5 5 0 0 0 5 5 5 5 0 0 0 5-5Z" transform="matrix(1.5 0 0 1.5 360 216)" id="mdi-diving-helmet" fill="#555"/><path d="M16 12a4 4 0 0 1-4 4 4 4 0 0 1-4-4 4 4 0 0 1 4-4 4 4 0 0 1 4 4m3.45-4.11-1.38.69.25.42H20v6h-1.67a7.062 7.062 0 0 1-2.12 2.6c1.64.51 2.89 1.31 3.46 2.26C18.69 21.1 15.62 22 12 22s-6.69-.9-7.67-2.14c.57-.95 1.82-1.75 3.46-2.26-.9-.68-1.63-1.57-2.12-2.6H4V9h1.68A6.952 6.952 0 0 1 9 5.68V4h6v1.68c.68.32 1.29.78 1.82 1.32l1.73-.86C19.93 5.42 20 4.1 20 2h2c0 2.06 0 4.62-2.55 5.89M17 12a5 5 0 0 0-5-5 5 5 0 0 0-5 5 5 5 0 0 0 5 5 5 5 0 0 0 5-5Z" transform="matrix(1.5 0 0 1.5 396 216)" id="mdi-diving-helmet" fill="#fff"/><path d="M12 15c1.31 0 2.42.83 2.83 2H18a4 4 0 0 1 4 4v1h-2v-1a2 2 0 0 0-2-2h-3.17A2.99 2.99 0 0 1 12 21a3 3 0 0 1-3-3 3 3 0 0 1 3-3m0 2a1 1 0 0 0-1 1 1 1 0 0 0 1 1 1 1 0 0 0 1-1 1 1 0 0 0-1-1m6-14a2 2 0 0 1 2 2v5a2 2 0 0 1-2 2h-3.15c-.42 0-.8.24-.95.63-.2.6-.67 1.08-1.28 1.28-1.04.34-2.18-.23-2.52-1.28-.15-.39-.53-.63-.95-.63H6a2 2 0 0 1-2-2V5a2 2 0 0 1 2-2h12m0 7V5H6v5h4.65c.25-.54.76-.91 1.35-1 .59.09 1.1.46 1.35 1H18Z" transform="matrix(1.5 0 0 1.5 432 216)" id="mdi-diving-scuba" fill="#555"/><path d="M12 15c1.31 0 2.42.83 2.83 2H18a4 4 0 0 1 4 4v1h-2v-1a2 2 0 0 0-2-2h-3.17A2.99 2.99 0 0 1 12 21a3 3 0 0 1-3-3 3 3 0 0 1 3-3m0 2a1 1 0 0 0-1 1 1 1 0 0 0 1 1 1 1 0 0 0 1-1 1 1 0 0 0-1-1m6-14a2 2 0 0 1 2 2v5a2 2 0 0 1-2 2h-3.15c-.42 0-.8.24-.95.63-.2.6-.67 1.08-1.28 1.28-1.04.34-2.18-.23-2.52-1.28-.15-.39-.53-.63-.95-.63H6a2 2 0 0 1-2-2V5a2 2 0 0 1 2-2h12m0 7V5H6v5h4.65c.25-.54.76-.91 1.35-1 .59.09 1.1.46 1.35 1H18Z" transform="matrix(1.5 0 0 1.5 468 216)" id="mdi-diving-scuba" fill="#fff"/><path d="m2 6 17 14H2V6m3-2 17 14V4H5Z" transform="matrix(1.5 0 0 1.5 504 216)" id="mdi-diving-scuba-flag" fill="#555"/><path d="m2 6 17 14H2V6m3-2 17 14V4H5Z" transform="matrix(1.5 0 0 1.5 540 216)" id="mdi-diving-scuba-flag" fill="#fff"/><path d="M19 18.5a2.5 2.5 0 0 1-2.5 2.5 2.5 2.5 0 0 1-2.5-2.5c0-1.03.62-1.91 1.5-2.29V6H11v1.35c1.22.58 2 1.8 2 3.15V22H6V10.5c0-1.35.78-2.57 2-3.15V6H6V4h2v-.5A1.5 1.5 0 0 1 9.5 2 1.5 1.5 0 0 1 11 3.5V4h4.5a2 2 0 0 1 2 2v10.21c.88.38 1.5 1.26 1.5 2.29Z" transform="matrix(1.5 0 0 1.5 576 216)" id="mdi-diving-scuba-tank" fill="#555"/><path d="M19 18.5a2.5 2.5 0 0 1-2.5 2.5 2.5 2.5 0 0 1-2.5-2.5c0-1.03.62-1.91 1.5-2.29V6H11v1.35c1.22.58 2 1.8 2 3.15V22H6V10.5c0-1.35.78-2.57 2-3.15V6H6V4h2v-.5A1.5 1.5 0 0 1 9.5 2 1.5 1.5 0 0 1 11 3.5V4h4.5a2 2 0 0 1 2 2v10.21c.88.38 1.5 1.26 1.5 2.29Z" transform="matrix(1.5 0 0 1.5 612 216)" id="mdi-diving-scuba-tank" fill="#fff"/><path d="M22 18.5a2.5 2.5 0 0 1-2.5 2.5 2.5 2.5 0 0 1-2.5-2.5c0-1.03.62-1.91 1.5-2.29V6H14v1.35c1.22.58 2 1.8 2 3.15V22H2V10.5c0-1.35.78-2.57 2-3.15V6H2V4h2v-.5A1.5 1.5 0 0 1 5.5 2 1.5 1.5 0 0 1 7 3.5V4h4v-.5A1.5 1.5 0 0 1 12.5 2 1.5 1.5 0 0 1 14 3.5V4h4.5a2 2 0 0 1 2 2v10.21c.88.38 1.5 1.26 1.5 2.29M11 7.35V6H7v1.35c1.22.58 2 1.8 2 3.15 0-1.35.78-2.57 2-3.15Z" transform="matrix(1.5 0 0 1.5 648 216)" id="mdi-diving-scuba-tank-multiple" fill="#555"/><path d="M22 18.5a2.5 2.5 0 0 1-2.5 2.5 2.5 2.5 0 0 1-2.5-2.5c0-1.03.62-1.91 1.5-2.29V6H14v1.35c1.22.58 2 1.8 2 3.15V22H2V10.5c0-1.35.78-2.57 2-3.15V6H2V4h2v-.5A1.5 1.5 0 0 1 5.5 2 1.5 1.5 0 0 1 7 3.5V4h4v-.5A1.5 1.5 0 0 1 12.5 2 1.5 1.5 0 0 1 14 3.5V4h4.5a2 2 0 0 1 2 2v10.21c.88.38 1.5 1.26 1.5 2.29M11 7.35V6H7v1.35c1.22.58 2 1.8 2 3.15 0-1.35.78-2.57 2-3.15Z" transform="matrix(1.5 0 0 1.5 684 216)" id="mdi-diving-scuba-tank-multiple" fill="#fff"/><path d="M16 3H4a2 2 0 0 0-2 2v5a2 2 0 0 0 2 2h3.15c.42 0 .8.24.95.63a2.003 2.003 0 0 0 2.52 1.28c.61-.2 1.08-.68 1.28-1.28.15-.39.53-.63.95-.63H16a2 2 0 0 0 2-2V5a2 2 0 0 0-2-2m0 7h-4.65c-.25-.54-.76-.91-1.35-1-.59.09-1.1.46-1.35 1H4V5h12v5m6-8v13.5a6.5 6.5 0 0 1-6.5 6.5c-1.71 0-3.35-.68-4.57-1.88-1.98.46-4.05-.33-5.22-2l1.91-.83c.88.93 2.22 1.21 3.38.71.2-.09.39-.2.56-.33.84-.62 1.31-1.63 1.22-2.67l1.91-.83c.41 1.87-.28 3.83-1.79 5 .76.54 1.67.83 2.6.83 2.5 0 4.5-2 4.5-4.5V2h2Z" transform="matrix(1.5 0 0 1.5 0 252)" id="mdi-diving-snorkel" fill="#555"/><path d="M16 3H4a2 2 0 0 0-2 2v5a2 2 0 0 0 2 2h3.15c.42 0 .8.24.95.63a2.003 2.003 0 0 0 2.52 1.28c.61-.2 1.08-.68 1.28-1.28.15-.39.53-.63.95-.63H16a2 2 0 0 0 2-2V5a2 2 0 0 0-2-2m0 7h-4.65c-.25-.54-.76-.91-1.35-1-.59.09-1.1.46-1.35 1H4V5h12v5m6-8v13.5a6.5 6.5 0 0 1-6.5 6.5c-1.71 0-3.35-.68-4.57-1.88-1.98.46-4.05-.33-5.22-2l1.91-.83c.88.93 2.22 1.21 3.38.71.2-.09.39-.2.56-.33.84-.62 1.31-1.63 1.22-2.67l1.91-.83c.41 1.87-.28 3.83-1.79 5 .76.54 1.67.83 2.6.83 2.5 0 4.5-2 4.5-4.5V2h2Z" transform="matrix(1.5 0 0 1.5 36 252)" id="mdi-diving-snorkel" fill="#fff"/><path d="M19 13H5v-2h14v2m-7-8a2 2 0 0 1 2 2 2 2 0 0 1-2 2 2 2 0 0 1-2-2 2 2 0 0 1 2-2m0 10a2 2 0 0 1 2 2 2 2 0 0 1-2 2 2 2 0 0 1-2-2 2 2 0 0 1 2-2Z" transform="matrix(1.5 0 0 1.5 72 252)" id="mdi-division" fill="#555"/><path d="M19 13H5v-2h14v2m-7-8a2 2 0 0 1 2 2 2 2 0 0 1-2 2 2 2 0 0 1-2-2 2 2 0 0 1 2-2m0 10a2 2 0 0 1 2 2 2 2 0 0 1-2 2 2 2 0 0 1-2-2 2 2 0 0 1 2-2Z" transform="matrix(1.5 0 0 1.5 108 252)" id="mdi-division" fill="#fff"/><path d="M17 13v-2H7v2h10m2-10a2 2 0 0 1 2 2v14a2 2 0 0 1-2 2H5a2 2 0 0 1-2-2V5c0-1.11.89-2 2-2h14m-7 4a1 1 0 0 0-1 1 1 1 0 0 0 1 1 1 1 0 0 0 1-1 1 1 0 0 0-1-1m0 8a1 1 0 0 0-1 1 1 1 0 0 0 1 1 1 1 0 0 0 1-1 1 1 0 0 0-1-1Z" transform="matrix(1.5 0 0 1.5 144 252)" id="mdi-division-box" fill="#555"/><path d="M17 13v-2H7v2h10m2-10a2 2 0 0 1 2 2v14a2 2 0 0 1-2 2H5a2 2 0 0 1-2-2V5c0-1.11.89-2 2-2h14m-7 4a1 1 0 0 0-1 1 1 1 0 0 0 1 1 1 1 0 0 0 1-1 1 1 0 0 0-1-1m0 8a1 1 0 0 0-1 1 1 1 0 0 0 1 1 1 1 0 0 0 1-1 1 1 0 0 0-1-1Z" transform="matrix(1.5 0 0 1.5 180 252)" id="mdi-division-box" fill="#fff"/><path d="M21.38 12.56h-8.53c-.88 0-1.75.4-2.24 1.05v-.01c-.49.68-1.29 1.12-2.2 1.12-1.49 0-2.7-1.22-2.7-2.72 0-1.5 1.21-2.69 2.7-2.69.91 0 1.71.44 2.2 1.12v-.01c.49.65 1.36 1.08 2.24 1.08h8.44c.16 0 .71-.1.71-.83-.74-4.24-4.9-7.49-9.94-7.49-3.1 0-5.87 1.23-7.72 3.17-.29.44.01.57.29.61h5.51c.86 0 1.75-.42 2.24-1.07v.02c.5-.68 1.29-1.13 2.2-1.13 1.49 0 2.7 1.22 2.7 2.72 0 1.5-1.21 2.7-2.7 2.7-.91 0-1.7-.45-2.2-1.13v.01c-.49-.64-1.38-1.05-2.24-1.05H4.13h.02s-.89-.03-1.43.72C2.3 9.42 2 10.85 2 12c0 1.16.17 2.21.72 3.27.47.76 1.43.73 1.43.73h-.04 6.03c.86 0 1.75-.42 2.24-1.07v.01c.5-.68 1.29-1.13 2.2-1.13 1.49 0 2.7 1.22 2.7 2.69 0 1.5-1.21 2.73-2.7 2.73-.91 0-1.7-.45-2.2-1.13v.02c-.49-.65-1.38-1.07-2.24-1.07h-5.5c-.28.04-.58.17-.32.59 1.85 1.94 4.63 3.18 7.74 3.18 5.05 0 9.22-3.25 9.94-7.51 0-.59-.41-.73-.62-.75" transform="matrix(1.5 0 0 1.5 216 252)" id="mdi-dlna" fill="#555"/><path d="M21.38 12.56h-8.53c-.88 0-1.75.4-2.24 1.05v-.01c-.49.68-1.29 1.12-2.2 1.12-1.49 0-2.7-1.22-2.7-2.72 0-1.5 1.21-2.69 2.7-2.69.91 0 1.71.44 2.2 1.12v-.01c.49.65 1.36 1.08 2.24 1.08h8.44c.16 0 .71-.1.71-.83-.74-4.24-4.9-7.49-9.94-7.49-3.1 0-5.87 1.23-7.72 3.17-.29.44.01.57.29.61h5.51c.86 0 1.75-.42 2.24-1.07v.02c.5-.68 1.29-1.13 2.2-1.13 1.49 0 2.7 1.22 2.7 2.72 0 1.5-1.21 2.7-2.7 2.7-.91 0-1.7-.45-2.2-1.13v.01c-.49-.64-1.38-1.05-2.24-1.05H4.13h.02s-.89-.03-1.43.72C2.3 9.42 2 10.85 2 12c0 1.16.17 2.21.72 3.27.47.76 1.43.73 1.43.73h-.04 6.03c.86 0 1.75-.42 2.24-1.07v.01c.5-.68 1.29-1.13 2.2-1.13 1.49 0 2.7 1.22 2.7 2.69 0 1.5-1.21 2.73-2.7 2.73-.91 0-1.7-.45-2.2-1.13v.02c-.49-.65-1.38-1.07-2.24-1.07h-5.5c-.28.04-.58.17-.32.59 1.85 1.94 4.63 3.18 7.74 3.18 5.05 0 9.22-3.25 9.94-7.51 0-.59-.41-.73-.62-.75" transform="matrix(1.5 0 0 1.5 252 252)" id="mdi-dlna" fill="#fff"/><path d="M4 2h2v2c0 1.44.68 2.61 1.88 3.78.86.83 2.01 1.63 3.21 2.42l-1.83 1.19C8.27 10.72 7.31 10 6.5 9.21 5.07 7.82 4 6.1 4 4V2m14 0h2v2c0 2.1-1.07 3.82-2.5 5.21-1.41 1.38-3.21 2.52-4.96 3.63-1.75 1.12-3.45 2.21-4.66 3.38C6.68 17.39 6 18.56 6 20v2H4v-2c0-2.1 1.07-3.82 2.5-5.21 1.41-1.38 3.21-2.52 4.96-3.63 1.75-1.12 3.45-2.21 4.66-3.38C17.32 6.61 18 5.44 18 4V2m-3.26 10.61c.99.67 1.95 1.39 2.76 2.18C18.93 16.18 20 17.9 20 20v2h-2v-2c0-1.44-.68-2.61-1.88-3.78-.86-.83-2.01-1.63-3.21-2.42l1.83-1.19M7 3h10v1l-.06.5H7.06L7 4V3m.68 3h8.64c-.24.34-.52.69-.9 1.06l-.51.44H9.07l-.49-.44c-.38-.37-.66-.72-.9-1.06m1.41 10.5h5.84l.49.44c.38.37.66.72.9 1.06H7.68c.24-.34.52-.69.9-1.06l.51-.44m-2.03 3h9.88l.06.5v1H7v-1l.06-.5Z" transform="matrix(1.5 0 0 1.5 288 252)" id="mdi-dna" fill="#555"/><path d="M4 2h2v2c0 1.44.68 2.61 1.88 3.78.86.83 2.01 1.63 3.21 2.42l-1.83 1.19C8.27 10.72 7.31 10 6.5 9.21 5.07 7.82 4 6.1 4 4V2m14 0h2v2c0 2.1-1.07 3.82-2.5 5.21-1.41 1.38-3.21 2.52-4.96 3.63-1.75 1.12-3.45 2.21-4.66 3.38C6.68 17.39 6 18.56 6 20v2H4v-2c0-2.1 1.07-3.82 2.5-5.21 1.41-1.38 3.21-2.52 4.96-3.63 1.75-1.12 3.45-2.21 4.66-3.38C17.32 6.61 18 5.44 18 4V2m-3.26 10.61c.99.67 1.95 1.39 2.76 2.18C18.93 16.18 20 17.9 20 20v2h-2v-2c0-1.44-.68-2.61-1.88-3.78-.86-.83-2.01-1.63-3.21-2.42l1.83-1.19M7 3h10v1l-.06.5H7.06L7 4V3m.68 3h8.64c-.24.34-.52.69-.9 1.06l-.51.44H9.07l-.49-.44c-.38-.37-.66-.72-.9-1.06m1.41 10.5h5.84l.49.44c.38.37.66.72.9 1.06H7.68c.24-.34.52-.69.9-1.06l.51-.44m-2.03 3h9.88l.06.5v1H7v-1l.06-.5Z" transform="matrix(1.5 0 0 1.5 324 252)" id="mdi-dna" fill="#fff"/><path d="M7 9a2 2 0 0 1-2-2 2 2 0 0 1 2-2 2 2 0 0 1 2 2 2 2 0 0 1-2 2m13-6H4a1 1 0 0 0-1 1v6a1 1 0 0 0 1 1h16a1 1 0 0 0 1-1V4a1 1 0 0 0-1-1M7 19a2 2 0 0 1-2-2 2 2 0 0 1 2-2 2 2 0 0 1 2 2 2 2 0 0 1-2 2m13-6H4a1 1 0 0 0-1 1v6a1 1 0 0 0 1 1h16a1 1 0 0 0 1-1v-6a1 1 0 0 0-1-1Z" transform="matrix(1.5 0 0 1.5 360 252)" id="mdi-dns" fill="#555"/><path d="M7 9a2 2 0 0 1-2-2 2 2 0 0 1 2-2 2 2 0 0 1 2 2 2 2 0 0 1-2 2m13-6H4a1 1 0 0 0-1 1v6a1 1 0 0 0 1 1h16a1 1 0 0 0 1-1V4a1 1 0 0 0-1-1M7 19a2 2 0 0 1-2-2 2 2 0 0 1 2-2 2 2 0 0 1 2 2 2 2 0 0 1-2 2m13-6H4a1 1 0 0 0-1 1v6a1 1 0 0 0 1 1h16a1 1 0 0 0 1-1v-6a1 1 0 0 0-1-1Z" transform="matrix(1.5 0 0 1.5 396 252)" id="mdi-dns" fill="#fff"/><path d="M19 15v4H5v-4h14m1-2H4a1 1 0 0 0-1 1v6a1 1 0 0 0 1 1h16a1 1 0 0 0 1-1v-6a1 1 0 0 0-1-1M7 18.5A1.5 1.5 0 0 1 5.5 17 1.5 1.5 0 0 1 7 15.5 1.5 1.5 0 0 1 8.5 17 1.5 1.5 0 0 1 7 18.5M19 5v4H5V5h14m1-2H4a1 1 0 0 0-1 1v6a1 1 0 0 0 1 1h16a1 1 0 0 0 1-1V4a1 1 0 0 0-1-1M7 8.5A1.5 1.5 0 0 1 5.5 7 1.5 1.5 0 0 1 7 5.5 1.5 1.5 0 0 1 8.5 7 1.5 1.5 0 0 1 7 8.5Z" transform="matrix(1.5 0 0 1.5 432 252)" id="mdi-dns-outline" fill="#555"/><path d="M19 15v4H5v-4h14m1-2H4a1 1 0 0 0-1 1v6a1 1 0 0 0 1 1h16a1 1 0 0 0 1-1v-6a1 1 0 0 0-1-1M7 18.5A1.5 1.5 0 0 1 5.5 17 1.5 1.5 0 0 1 7 15.5 1.5 1.5 0 0 1 8.5 17 1.5 1.5 0 0 1 7 18.5M19 5v4H5V5h14m1-2H4a1 1 0 0 0-1 1v6a1 1 0 0 0 1 1h16a1 1 0 0 0 1-1V4a1 1 0 0 0-1-1M7 8.5A1.5 1.5 0 0 1 5.5 7 1.5 1.5 0 0 1 7 5.5 1.5 1.5 0 0 1 8.5 7 1.5 1.5 0 0 1 7 8.5Z" transform="matrix(1.5 0 0 1.5 468 252)" id="mdi-dns-outline" fill="#fff"/><path d="M20 4H4a2 2 0 0 0-2 2v12a2 2 0 0 0 2 2h16a2 2 0 0 0 2-2V6a2 2 0 0 0-2-2m0 9H4V6h16Z" transform="matrix(1.5 0 0 1.5 504 252)" id="mdi-dock-bottom" fill="#555"/><path d="M20 4H4a2 2 0 0 0-2 2v12a2 2 0 0 0 2 2h16a2 2 0 0 0 2-2V6a2 2 0 0 0-2-2m0 9H4V6h16Z" transform="matrix(1.5 0 0 1.5 540 252)" id="mdi-dock-bottom" fill="#fff"/><path d="M20 4H4a2 2 0 0 0-2 2v12a2 2 0 0 0 2 2h16a2 2 0 0 0 2-2V6a2 2 0 0 0-2-2m0 14H9V6h11Z" transform="matrix(1.5 0 0 1.5 576 252)" id="mdi-dock-left" fill="#555"/><path d="M20 4H4a2 2 0 0 0-2 2v12a2 2 0 0 0 2 2h16a2 2 0 0 0 2-2V6a2 2 0 0 0-2-2m0 14H9V6h11Z" transform="matrix(1.5 0 0 1.5 612 252)" id="mdi-dock-left" fill="#fff"/><path d="M20 4H4a2 2 0 0 0-2 2v12a2 2 0 0 0 2 2h16a2 2 0 0 0 2-2V6a2 2 0 0 0-2-2m-5 14H4V6h11Z" transform="matrix(1.5 0 0 1.5 648 252)" id="mdi-dock-right" fill="#555"/><path d="M20 4H4a2 2 0 0 0-2 2v12a2 2 0 0 0 2 2h16a2 2 0 0 0 2-2V6a2 2 0 0 0-2-2m-5 14H4V6h11Z" transform="matrix(1.5 0 0 1.5 684 252)" id="mdi-dock-right" fill="#fff"/><path d="M4 20h16c1.11 0 2-.89 2-2V6c0-1.11-.89-2-2-2H4a2 2 0 0 0-2 2v12a2 2 0 0 0 2 2m0-9h16v7H4v-7Z" transform="matrix(1.5 0 0 1.5 0 288)" id="mdi-dock-top" fill="#555"/><path d="M4 20h16c1.11 0 2-.89 2-2V6c0-1.11-.89-2-2-2H4a2 2 0 0 0-2 2v12a2 2 0 0 0 2 2m0-9h16v7H4v-7Z" transform="matrix(1.5 0 0 1.5 36 288)" id="mdi-dock-top" fill="#fff"/><path d="M18 18v2H4a2 2 0 0 1-2-2V8h2v10M22 6v8a2 2 0 0 1-2 2H8a2 2 0 0 1-2-2V6a2 2 0 0 1 2-2h12a2 2 0 0 1 2 2m-2 0H8v8h12Z" transform="matrix(1.5 0 0 1.5 72 288)" id="mdi-dock-window" fill="#555"/><path d="M18 18v2H4a2 2 0 0 1-2-2V8h2v10M22 6v8a2 2 0 0 1-2 2H8a2 2 0 0 1-2-2V6a2 2 0 0 1 2-2h12a2 2 0 0 1 2 2m-2 0H8v8h12Z" transform="matrix(1.5 0 0 1.5 108 288)" id="mdi-dock-window" fill="#fff"/><path d="M21.81 10.25c-.06-.04-.56-.43-1.64-.43-.28 0-.56.03-.84.08-.21-1.4-1.38-2.11-1.43-2.14l-.29-.17-.18.27c-.24.36-.43.77-.51 1.19-.2.8-.08 1.56.33 2.21-.49.28-1.29.35-1.46.35H2.62c-.34 0-.62.28-.62.63 0 1.15.18 2.3.58 3.38.45 1.19 1.13 2.07 2 2.61.98.6 2.59.94 4.42.94.79 0 1.61-.07 2.42-.22 1.12-.2 2.2-.59 3.19-1.16A8.3 8.3 0 0 0 16.78 16c1.05-1.17 1.67-2.5 2.12-3.65h.19c1.14 0 1.85-.46 2.24-.85.26-.24.45-.53.59-.87l.08-.24-.19-.14m-17.96.99h1.76c.08 0 .16-.07.16-.16V9.5c0-.08-.07-.16-.16-.16H3.85c-.09 0-.16.07-.16.16v1.58c.01.09.07.16.16.16m2.43 0h1.76c.08 0 .16-.07.16-.16V9.5c0-.08-.07-.16-.16-.16H6.28c-.09 0-.16.07-.16.16v1.58c.01.09.07.16.16.16m2.47 0h1.75c.1 0 .17-.07.17-.16V9.5c0-.08-.06-.16-.17-.16H8.75c-.08 0-.15.07-.15.16v1.58c0 .09.06.16.15.16m2.44 0h1.77c.08 0 .15-.07.15-.16V9.5c0-.08-.06-.16-.15-.16h-1.77c-.08 0-.15.07-.15.16v1.58c0 .09.07.16.15.16M6.28 9h1.76c.08 0 .16-.09.16-.18V7.25c0-.09-.07-.16-.16-.16H6.28c-.09 0-.16.06-.16.16v1.57c.01.09.07.18.16.18m2.47 0h1.75c.1 0 .17-.09.17-.18V7.25c0-.09-.06-.16-.17-.16H8.75c-.08 0-.15.06-.15.16v1.57c0 .09.06.18.15.18m2.44 0h1.77c.08 0 .15-.09.15-.18V7.25c0-.09-.07-.16-.15-.16h-1.77c-.08 0-.15.06-.15.16v1.57c0 .09.07.18.15.18m0-2.28h1.77c.08 0 .15-.07.15-.16V5c0-.1-.07-.17-.15-.17h-1.77c-.08 0-.15.06-.15.17v1.56c0 .08.07.16.15.16m2.46 4.52h1.76c.09 0 .16-.07.16-.16V9.5c0-.08-.07-.16-.16-.16h-1.76c-.08 0-.15.07-.15.16v1.58c0 .09.07.16.15.16" transform="matrix(1.5 0 0 1.5 144 288)" id="mdi-docker" fill="#555"/><path d="M21.81 10.25c-.06-.04-.56-.43-1.64-.43-.28 0-.56.03-.84.08-.21-1.4-1.38-2.11-1.43-2.14l-.29-.17-.18.27c-.24.36-.43.77-.51 1.19-.2.8-.08 1.56.33 2.21-.49.28-1.29.35-1.46.35H2.62c-.34 0-.62.28-.62.63 0 1.15.18 2.3.58 3.38.45 1.19 1.13 2.07 2 2.61.98.6 2.59.94 4.42.94.79 0 1.61-.07 2.42-.22 1.12-.2 2.2-.59 3.19-1.16A8.3 8.3 0 0 0 16.78 16c1.05-1.17 1.67-2.5 2.12-3.65h.19c1.14 0 1.85-.46 2.24-.85.26-.24.45-.53.59-.87l.08-.24-.19-.14m-17.96.99h1.76c.08 0 .16-.07.16-.16V9.5c0-.08-.07-.16-.16-.16H3.85c-.09 0-.16.07-.16.16v1.58c.01.09.07.16.16.16m2.43 0h1.76c.08 0 .16-.07.16-.16V9.5c0-.08-.07-.16-.16-.16H6.28c-.09 0-.16.07-.16.16v1.58c.01.09.07.16.16.16m2.47 0h1.75c.1 0 .17-.07.17-.16V9.5c0-.08-.06-.16-.17-.16H8.75c-.08 0-.15.07-.15.16v1.58c0 .09.06.16.15.16m2.44 0h1.77c.08 0 .15-.07.15-.16V9.5c0-.08-.06-.16-.15-.16h-1.77c-.08 0-.15.07-.15.16v1.58c0 .09.07.16.15.16M6.28 9h1.76c.08 0 .16-.09.16-.18V7.25c0-.09-.07-.16-.16-.16H6.28c-.09 0-.16.06-.16.16v1.57c.01.09.07.18.16.18m2.47 0h1.75c.1 0 .17-.09.17-.18V7.25c0-.09-.06-.16-.17-.16H8.75c-.08 0-.15.06-.15.16v1.57c0 .09.06.18.15.18m2.44 0h1.77c.08 0 .15-.09.15-.18V7.25c0-.09-.07-.16-.15-.16h-1.77c-.08 0-.15.06-.15.16v1.57c0 .09.07.18.15.18m0-2.28h1.77c.08 0 .15-.07.15-.16V5c0-.1-.07-.17-.15-.17h-1.77c-.08 0-.15.06-.15.17v1.56c0 .08.07.16.15.16m2.46 4.52h1.76c.09 0 .16-.07.16-.16V9.5c0-.08-.07-.16-.16-.16h-1.76c-.08 0-.15.07-.15.16v1.58c0 .09.07.16.15.16" transform="matrix(1.5 0 0 1.5 180 288)" id="mdi-docker" fill="#fff"/><path d="M14.84 16.26C17.86 16.83 20 18.29 20 20v2H4v-2c0-1.71 2.14-3.17 5.16-3.74L12 21l2.84-4.74M8 8h8v2a4 4 0 0 1-4 4 4 4 0 0 1-4-4V8m0-1 .41-4.1a1 1 0 0 1 1-.9h5.19c.51 0 .94.39.99.9L16 7H8m4-4h-1v1h-1v1h1v1h1V5h1V4h-1V3Z" transform="matrix(1.5 0 0 1.5 216 288)" id="mdi-doctor" fill="#555"/><path d="M14.84 16.26C17.86 16.83 20 18.29 20 20v2H4v-2c0-1.71 2.14-3.17 5.16-3.74L12 21l2.84-4.74M8 8h8v2a4 4 0 0 1-4 4 4 4 0 0 1-4-4V8m0-1 .41-4.1a1 1 0 0 1 1-.9h5.19c.51 0 .94.39.99.9L16 7H8m4-4h-1v1h-1v1h1v1h1V5h1V4h-1V3Z" transform="matrix(1.5 0 0 1.5 252 288)" id="mdi-doctor" fill="#fff"/><path d="M18 4c-1.71 0-2.75.33-3.35.61C13.88 4.23 13 4 12 4s-1.88.23-2.65.61C8.75 4.33 7.71 4 6 4c-3 0-5 8-5 10 0 .83 1.32 1.59 3.14 1.9.64 2.24 3.66 3.95 7.36 4.1v-4.28c-.59-.37-1.5-1.04-1.5-1.72 0-1 2-1 2-1s2 0 2 1c0 .68-.91 1.35-1.5 1.72V20c3.7-.15 6.72-1.86 7.36-4.1C21.68 15.59 23 14.83 23 14c0-2-2-10-5-10M4.15 13.87c-.5-.12-.89-.26-1.15-.37.25-2.77 2.2-7.1 3.05-7.5.54 0 .95.06 1.32.11-2.1 2.31-2.93 5.93-3.22 7.76M9 12a1 1 0 0 1-1-1c0-.54.45-1 1-1a1 1 0 0 1 1 1c0 .56-.45 1-1 1m6 0a1 1 0 0 1-1-1c0-.54.45-1 1-1a1 1 0 0 1 1 1c0 .56-.45 1-1 1m4.85 1.87c-.29-1.83-1.12-5.45-3.22-7.76.37-.05.78-.11 1.32-.11.85.4 2.8 4.73 3.05 7.5-.25.11-.64.25-1.15.37Z" transform="matrix(1.5 0 0 1.5 288 288)" id="mdi-dog" fill="#555"/><path d="M18 4c-1.71 0-2.75.33-3.35.61C13.88 4.23 13 4 12 4s-1.88.23-2.65.61C8.75 4.33 7.71 4 6 4c-3 0-5 8-5 10 0 .83 1.32 1.59 3.14 1.9.64 2.24 3.66 3.95 7.36 4.1v-4.28c-.59-.37-1.5-1.04-1.5-1.72 0-1 2-1 2-1s2 0 2 1c0 .68-.91 1.35-1.5 1.72V20c3.7-.15 6.72-1.86 7.36-4.1C21.68 15.59 23 14.83 23 14c0-2-2-10-5-10M4.15 13.87c-.5-.12-.89-.26-1.15-.37.25-2.77 2.2-7.1 3.05-7.5.54 0 .95.06 1.32.11-2.1 2.31-2.93 5.93-3.22 7.76M9 12a1 1 0 0 1-1-1c0-.54.45-1 1-1a1 1 0 0 1 1 1c0 .56-.45 1-1 1m6 0a1 1 0 0 1-1-1c0-.54.45-1 1-1a1 1 0 0 1 1 1c0 .56-.45 1-1 1m4.85 1.87c-.29-1.83-1.12-5.45-3.22-7.76.37-.05.78-.11 1.32-.11.85.4 2.8 4.73 3.05 7.5-.25.11-.64.25-1.15.37Z" transform="matrix(1.5 0 0 1.5 324 288)" id="mdi-dog" fill="#fff"/><path d="m14 8 3 3v10h-2v-6H8l-2 3v3H4v-6l1-1v-3L2 8l1-1 2 2h2v3a1 1 0 0 0 1 1h4a1 1 0 0 0 1-1V9l1-1m5-3V3l-4 4 3 3 1-1 1 1 2-2-3-3m-7.5 4.5-7-7c-.27-.28-.71-.28-1 0-.28.27-.28.71 0 1l7 7c.27.28.71.28 1 0 .28-.27.28-.71 0-1Z" transform="matrix(1.5 0 0 1.5 360 288)" id="mdi-dog-service" fill="#555"/><path d="m14 8 3 3v10h-2v-6H8l-2 3v3H4v-6l1-1v-3L2 8l1-1 2 2h2v3a1 1 0 0 0 1 1h4a1 1 0 0 0 1-1V9l1-1m5-3V3l-4 4 3 3 1-1 1 1 2-2-3-3m-7.5 4.5-7-7c-.27-.28-.71-.28-1 0-.28.27-.28.71 0 1l7 7c.27.28.71.28 1 0 .28-.27.28-.71 0-1Z" transform="matrix(1.5 0 0 1.5 396 288)" id="mdi-dog-service" fill="#fff"/><path d="m19 3-4 4 3 3 1-1 1 1 2-2-3-3V3M3 7 2 8l3 3v3l-1 1v6h2v-3l2-3h7v6h2V11l-3-3-1 1H5L3 7Z" transform="matrix(1.5 0 0 1.5 432 288)" id="mdi-dog-side" fill="#555"/><path d="m19 3-4 4 3 3 1-1 1 1 2-2-3-3V3M3 7 2 8l3 3v3l-1 1v6h2v-3l2-3h7v6h2V11l-3-3-1 1H5L3 7Z" transform="matrix(1.5 0 0 1.5 468 288)" id="mdi-dog-side" fill="#fff"/><path d="m18 10-3-3 4-4v2l3 3-2 2-1-1-1 1m-1 1-3-3-1 1h-.8l4.8 4.8V11M2.39 1.73 1.11 3l6 6H5L3 7 2 8l3 3v3l-1 1v6h2v-3l2-3h5.11L15 16.89V21h2v-2.11l3.84 3.84 1.27-1.27L2.39 1.73Z" transform="matrix(1.5 0 0 1.5 504 288)" id="mdi-dog-side-off" fill="#555"/><path d="m18 10-3-3 4-4v2l3 3-2 2-1-1-1 1m-1 1-3-3-1 1h-.8l4.8 4.8V11M2.39 1.73 1.11 3l6 6H5L3 7 2 8l3 3v3l-1 1v6h2v-3l2-3h5.11L15 16.89V21h2v-2.11l3.84 3.84 1.27-1.27L2.39 1.73Z" transform="matrix(1.5 0 0 1.5 540 288)" id="mdi-dog-side-off" fill="#fff"/><path d="M2 5v14h20V5H2m4 12H4V7h2c2.86.09 5.1 2.33 5 5 .1 2.67-2.14 4.91-5 5m14 0h-2c-2.86-.09-5.1-2.33-5-5-.1-2.67 2.14-4.91 5-5h2v10Z" transform="matrix(1.5 0 0 1.5 576 288)" id="mdi-dolby" fill="#555"/><path d="M2 5v14h20V5H2m4 12H4V7h2c2.86.09 5.1 2.33 5 5 .1 2.67-2.14 4.91-5 5m14 0h-2c-2.86-.09-5.1-2.33-5-5-.1-2.67 2.14-4.91 5-5h2v10Z" transform="matrix(1.5 0 0 1.5 612 288)" id="mdi-dolby" fill="#fff"/><path d="M11.97 19.88a2.01 2.01 0 0 1-2.57-1.19 1.97 1.97 0 0 1 1.19-2.56c1.04-.38 2.19.15 2.57 1.18a2.01 2.01 0 0 1-1.19 2.57M9.9 14.25c-2.07.75-3.14 3.05-2.4 5.13a4.043 4.043 0 0 0 5.16 2.37c2.07-.75 3.13-3.05 2.38-5.12-.76-2.08-3.07-3.13-5.14-2.38m6.04-9.67L9.37 7l1.38 3.74 6.57-2.41m3 5.29-4.78 1.75c.17.29.31.59.43.91.12.32.2.65.25.97L21 15.5m-1.46-6.92-8.45 3.1.49 1.32c1.25.09 2.42.64 3.31 1.55l6.03-2.21M2 2v2h3.09l3.57 9.75a4.946 4.946 0 0 1 1.87-.69L6.5 2" transform="matrix(1.5 0 0 1.5 648 288)" id="mdi-dolly" fill="#555"/><path d="M11.97 19.88a2.01 2.01 0 0 1-2.57-1.19 1.97 1.97 0 0 1 1.19-2.56c1.04-.38 2.19.15 2.57 1.18a2.01 2.01 0 0 1-1.19 2.57M9.9 14.25c-2.07.75-3.14 3.05-2.4 5.13a4.043 4.043 0 0 0 5.16 2.37c2.07-.75 3.13-3.05 2.38-5.12-.76-2.08-3.07-3.13-5.14-2.38m6.04-9.67L9.37 7l1.38 3.74 6.57-2.41m3 5.29-4.78 1.75c.17.29.31.59.43.91.12.32.2.65.25.97L21 15.5m-1.46-6.92-8.45 3.1.49 1.32c1.25.09 2.42.64 3.31 1.55l6.03-2.21M2 2v2h3.09l3.57 9.75a4.946 4.946 0 0 1 1.87-.69L6.5 2" transform="matrix(1.5 0 0 1.5 684 288)" id="mdi-dolly" fill="#fff"/><path d="M20 7s0-4-5-4c-1.53 0-2.85.19-4 .5-.5-.44-3.74-3.191-7 .07l2.56 2.56C2.5 10.53 4 18 4 18s-3 0-3 4l4-1 4 1c0-4-3-4-3-4s.85-5.76 7-6.82V14c2 0 2.68-1.81 2.89-3H18c4 0 5-1 5-2s-2-2-3-2m-2 1c-.55 0-1-.45-1-1s.45-1 1-1 1 .45 1 1-.45 1-1 1Z" transform="matrix(1.5 0 0 1.5 0 324)" id="mdi-dolphin" fill="#555"/><path d="M20 7s0-4-5-4c-1.53 0-2.85.19-4 .5-.5-.44-3.74-3.191-7 .07l2.56 2.56C2.5 10.53 4 18 4 18s-3 0-3 4l4-1 4 1c0-4-3-4-3-4s.85-5.76 7-6.82V14c2 0 2.68-1.81 2.89-3H18c4 0 5-1 5-2s-2-2-3-2m-2 1c-.55 0-1-.45-1-1s.45-1 1-1 1 .45 1 1-.45 1-1 1Z" transform="matrix(1.5 0 0 1.5 36 324)" id="mdi-dolphin" fill="#fff"/><path d="M18 15h-2v2h2m0-6h-2v2h2m2 6h-8v-2h2v-2h-2v-2h2v-2h-2V9h8M10 7H8V5h2m0 6H8V9h2m0 6H8v-2h2m0 6H8v-2h2M6 7H4V5h2m0 6H4V9h2m0 6H4v-2h2m0 6H4v-2h2m6-10V3H2v18h20V7H12Z" transform="matrix(1.5 0 0 1.5 72 324)" id="mdi-domain" fill="#555"/><path d="M18 15h-2v2h2m0-6h-2v2h2m2 6h-8v-2h2v-2h-2v-2h2v-2h-2V9h8M10 7H8V5h2m0 6H8V9h2m0 6H8v-2h2m0 6H8v-2h2M6 7H4V5h2m0 6H4V9h2m0 6H4v-2h2m0 6H4v-2h2m6-10V3H2v18h20V7H12Z" transform="matrix(1.5 0 0 1.5 108 324)" id="mdi-domain" fill="#fff"/><path d="M12 19h4l-2-2h-2v2m-2-4v-2H8v2h2m0 4v-2H8v2h2m-4-8V9H4v2h2m0 4v-2H4v2h2m0 4v-2H4v2h2M1.31 1.78l21 20.91L21 24l-3-3H2V5L.09 3.09l1.22-1.31M16 11h2v2h-2v-2M8 5v.91L5.11 3H12v4h10v12.92l-2-2.01V9h-8v.89L9.09 7H10V5H8Z" transform="matrix(1.5 0 0 1.5 144 324)" id="mdi-domain-off" fill="#555"/><path d="M12 19h4l-2-2h-2v2m-2-4v-2H8v2h2m0 4v-2H8v2h2m-4-8V9H4v2h2m0 4v-2H4v2h2m0 4v-2H4v2h2M1.31 1.78l21 20.91L21 24l-3-3H2V5L.09 3.09l1.22-1.31M16 11h2v2h-2v-2M8 5v.91L5.11 3H12v4h10v12.92l-2-2.01V9h-8v.89L9.09 7H10V5H8Z" transform="matrix(1.5 0 0 1.5 180 324)" id="mdi-domain-off" fill="#fff"/><path d="M12 7V3H2v18h11.35a5.8 5.8 0 0 1-.35-2h-1v-2h1.35a5 5 0 0 1 .65-1.31V15h-2v-2h2v-2h-2V9h8v4.09a5.58 5.58 0 0 1 2 .72V7M6 19H4v-2h2m0-2H4v-2h2m0-2H4V9h2m0-2H4V5h2m4 14H8v-2h2m0-2H8v-2h2m0-2H8V9h2m0-2H8V5h2m6 8h2v-2h-2m0 0v2h2v-2m-2 0v2h2v-2m2 4v3h3v2h-3v3h-2v-3h-3v-2h3v-3Z" transform="matrix(1.5 0 0 1.5 216 324)" id="mdi-domain-plus" fill="#555"/><path d="M12 7V3H2v18h11.35a5.8 5.8 0 0 1-.35-2h-1v-2h1.35a5 5 0 0 1 .65-1.31V15h-2v-2h2v-2h-2V9h8v4.09a5.58 5.58 0 0 1 2 .72V7M6 19H4v-2h2m0-2H4v-2h2m0-2H4V9h2m0-2H4V5h2m4 14H8v-2h2m0-2H8v-2h2m0-2H8V9h2m0-2H8V5h2m6 8h2v-2h-2m0 0v2h2v-2m-2 0v2h2v-2m2 4v3h3v2h-3v3h-2v-3h-3v-2h3v-3Z" transform="matrix(1.5 0 0 1.5 252 324)" id="mdi-domain-plus" fill="#fff"/><path d="M12 7V3H2v18h11.35a5.8 5.8 0 0 1-.35-2h-1v-2h1.35a5 5 0 0 1 .65-1.31V15h-2v-2h2v-2h-2V9h8v4.09a5.58 5.58 0 0 1 2 .72V7M6 19H4v-2h2m0-2H4v-2h2m0-2H4V9h2m0-2H4V5h2m4 14H8v-2h2m0-2H8v-2h2m0-2H8V9h2m0-2H8V5h2m6 8h2v-2h-2m0 0v2h2v-2m-2 0v2h2v-2m4.54 5.88L20.41 19l2.13 2.12-1.42 1.42L19 20.41l-2.12 2.13-1.42-1.42L17.59 19l-2.13-2.12 1.42-1.42L19 17.59l2.12-2.13Z" transform="matrix(1.5 0 0 1.5 288 324)" id="mdi-domain-remove" fill="#555"/><path d="M12 7V3H2v18h11.35a5.8 5.8 0 0 1-.35-2h-1v-2h1.35a5 5 0 0 1 .65-1.31V15h-2v-2h2v-2h-2V9h8v4.09a5.58 5.58 0 0 1 2 .72V7M6 19H4v-2h2m0-2H4v-2h2m0-2H4V9h2m0-2H4V5h2m4 14H8v-2h2m0-2H8v-2h2m0-2H8V9h2m0-2H8V5h2m6 8h2v-2h-2m0 0v2h2v-2m-2 0v2h2v-2m4.54 5.88L20.41 19l2.13 2.12-1.42 1.42L19 20.41l-2.12 2.13-1.42-1.42L17.59 19l-2.13-2.12 1.42-1.42L19 17.59l2.12-2.13Z" transform="matrix(1.5 0 0 1.5 324 324)" id="mdi-domain-remove" fill="#fff"/><path d="M21 10a9 9 0 0 1-18 0v-.97c0-.27.11-.53.3-.73.2-.19.46-.3.73-.3H20c.25 0 .5.11.7.3.19.2.3.45.3.7v1M5 10c0 3.86 3.14 7 7 7s7-3.14 7-7H5m15-4v1H4V6c0-.27.1-.5.29-.71C4.5 5.1 4.73 5 5 5h5V3h4v2h5c.25 0 .5.11.7.3.19.2.3.45.3.7Z" transform="matrix(1.5 0 0 1.5 360 324)" id="mdi-dome-light" fill="#555"/><path d="M21 10a9 9 0 0 1-18 0v-.97c0-.27.11-.53.3-.73.2-.19.46-.3.73-.3H20c.25 0 .5.11.7.3.19.2.3.45.3.7v1M5 10c0 3.86 3.14 7 7 7s7-3.14 7-7H5m15-4v1H4V6c0-.27.1-.5.29-.71C4.5 5.1 4.73 5 5 5h5V3h4v2h5c.25 0 .5.11.7.3.19.2.3.45.3.7Z" transform="matrix(1.5 0 0 1.5 396 324)" id="mdi-dome-light" fill="#fff"/><path d="M15.83 9.81c-1.13-.11-2.14.57-2.37 1.69 0 .34 1.35.79 2.59.79 1.24 0 2.36-.79 2.36-1.01 0-.23-.78-1.35-2.58-1.47m-7.65 0c-1.8.12-2.59 1.13-2.59 1.46 0 .23 1.23 1.02 2.36 1.02s2.59-.45 2.59-.79c-.23-1.12-1.35-1.8-2.36-1.69M16.95 16c-1.91 0-3.15-2.25-4.95-2.25S8.85 16 7.05 16C4.69 16 3 13.86 3 10.04 3 7.68 3.68 7 6.71 7S10.54 8.24 12 8.24 14.36 7 17.29 7 21 7.79 21 10.04c0 3.82-1.69 5.96-4.05 5.96Z" transform="matrix(1.5 0 0 1.5 432 324)" id="mdi-domino-mask" fill="#555"/><path d="M15.83 9.81c-1.13-.11-2.14.57-2.37 1.69 0 .34 1.35.79 2.59.79 1.24 0 2.36-.79 2.36-1.01 0-.23-.78-1.35-2.58-1.47m-7.65 0c-1.8.12-2.59 1.13-2.59 1.46 0 .23 1.23 1.02 2.36 1.02s2.59-.45 2.59-.79c-.23-1.12-1.35-1.8-2.36-1.69M16.95 16c-1.91 0-3.15-2.25-4.95-2.25S8.85 16 7.05 16C4.69 16 3 13.86 3 10.04 3 7.68 3.68 7 6.71 7S10.54 8.24 12 8.24 14.36 7 17.29 7 21 7.79 21 10.04c0 3.82-1.69 5.96-4.05 5.96Z" transform="matrix(1.5 0 0 1.5 468 324)" id="mdi-domino-mask" fill="#fff"/><path d="m21.34 10.35-.07-.07-.09-.09L18 7V6a.5.5 0 0 0-.5-.5c-.14 0-.28.06-.37.16L13.46 9H7c-.68 0-1.31.35-1.68.92l-2.7 2.67c-.33.45-.23 1.07.22 1.41.34.24.81.25 1.16 0l1-.93V19h3v-4h5v4h3v-5.17c0-.53.21-1.04.59-1.41L18 11l2 1c.15.08.32.13.5.13.6-.02 1.09-.52 1.08-1.13-.01-.24-.08-.47-.24-.65Z" transform="matrix(1.5 0 0 1.5 504 324)" id="mdi-donkey" fill="#555"/><path d="m21.34 10.35-.07-.07-.09-.09L18 7V6a.5.5 0 0 0-.5-.5c-.14 0-.28.06-.37.16L13.46 9H7c-.68 0-1.31.35-1.68.92l-2.7 2.67c-.33.45-.23 1.07.22 1.41.34.24.81.25 1.16 0l1-.93V19h3v-4h5v4h3v-5.17c0-.53.21-1.04.59-1.41L18 11l2 1c.15.08.32.13.5.13.6-.02 1.09-.52 1.08-1.13-.01-.24-.08-.47-.24-.65Z" transform="matrix(1.5 0 0 1.5 540 324)" id="mdi-donkey" fill="#fff"/><path d="M8 3c-1.11 0-2 .89-2 2v16h12V5c0-1.11-.89-2-2-2H8m0 2h8v14H8V5m5 6v2h2v-2h-2Z" transform="matrix(1.5 0 0 1.5 576 324)" id="mdi-door" fill="#555"/><path d="M8 3c-1.11 0-2 .89-2 2v16h12V5c0-1.11-.89-2-2-2H8m0 2h8v14H8V5m5 6v2h2v-2h-2Z" transform="matrix(1.5 0 0 1.5 612 324)" id="mdi-door" fill="#fff"/><path d="M16 11h2v2h-2v-2m-4-8h7c1.11 0 2 .89 2 2v14h1v2H2v-2h8V5c0-1.11.89-2 2-2m0 2v14h7V5h-7Z" transform="matrix(1.5 0 0 1.5 648 324)" id="mdi-door-closed" fill="#555"/><path d="M16 11h2v2h-2v-2m-4-8h7c1.11 0 2 .89 2 2v14h1v2H2v-2h8V5c0-1.11.89-2 2-2m0 2v14h7V5h-7Z" transform="matrix(1.5 0 0 1.5 684 324)" id="mdi-door-closed" fill="#fff"/></svg>