<svg xmlns="http://www.w3.org/2000/svg" width="720" height="900"><path d="M21 19a2 2 0 0 1-2 2H5a2 2 0 0 1-2-2V5a2 2 0 0 1 2-2h14a2 2 0 0 1 2 2v14m-8-1V9.5l3.5 3.5 1.42-1.42L12 5.66l-5.92 5.92L7.5 13 11 9.5V18h2Z" transform="scale(1.5)" id="mdi-arrow-up-box" fill="#555"/><path d="M21 19a2 2 0 0 1-2 2H5a2 2 0 0 1-2-2V5a2 2 0 0 1 2-2h14a2 2 0 0 1 2 2v14m-8-1V9.5l3.5 3.5 1.42-1.42L12 5.66l-5.92 5.92L7.5 13 11 9.5V18h2Z" transform="translate(36) scale(1.5)" id="mdi-arrow-up-box" fill="#fff"/><path d="M13 18v-8l3.5 3.5 1.42-1.42L12 6.16l-5.92 5.92L7.5 13.5 11 10v8h2M12 2a10 10 0 0 1 10 10 10 10 0 0 1-10 10A10 10 0 0 1 2 12 10 10 0 0 1 12 2Z" transform="translate(72) scale(1.5)" id="mdi-arrow-up-circle" fill="#555"/><path d="M13 18v-8l3.5 3.5 1.42-1.42L12 6.16l-5.92 5.92L7.5 13.5 11 10v8h2M12 2a10 10 0 0 1 10 10 10 10 0 0 1-10 10A10 10 0 0 1 2 12 10 10 0 0 1 12 2Z" transform="translate(108) scale(1.5)" id="mdi-arrow-up-circle" fill="#fff"/><path d="M13 18h-2v-8l-3.5 3.5-1.42-1.42L12 6.16l5.92 5.92-1.42 1.42L13 10v8M12 2a10 10 0 0 1 10 10 10 10 0 0 1-10 10A10 10 0 0 1 2 12 10 10 0 0 1 12 2m0 2a8 8 0 0 0-8 8 8 8 0 0 0 8 8 8 8 0 0 0 8-8 8 8 0 0 0-8-8Z" transform="translate(144) scale(1.5)" id="mdi-arrow-up-circle-outline" fill="#555"/><path d="M13 18h-2v-8l-3.5 3.5-1.42-1.42L12 6.16l5.92 5.92-1.42 1.42L13 10v8M12 2a10 10 0 0 1 10 10 10 10 0 0 1-10 10A10 10 0 0 1 2 12 10 10 0 0 1 12 2m0 2a8 8 0 0 0-8 8 8 8 0 0 0 8 8 8 8 0 0 0 8-8 8 8 0 0 0-8-8Z" transform="translate(180) scale(1.5)" id="mdi-arrow-up-circle-outline" fill="#fff"/><path d="M17.45 17.55 12 23l-5.45-5.45 1.41-1.41L11 19.17V4.83L7.96 7.86 6.55 6.45 12 1l5.45 5.45-1.41 1.41L13 4.83v14.34l3.04-3.03 1.41 1.41Z" transform="translate(216) scale(1.5)" id="mdi-arrow-up-down" fill="#555"/><path d="M17.45 17.55 12 23l-5.45-5.45 1.41-1.41L11 19.17V4.83L7.96 7.86 6.55 6.45 12 1l5.45 5.45-1.41 1.41L13 4.83v14.34l3.04-3.03 1.41 1.41Z" transform="translate(252) scale(1.5)" id="mdi-arrow-up-down" fill="#fff"/><path d="M10 8H6l6-6 6 6h-4v8h4l-6 6-6-6h4V8Z" transform="translate(288) scale(1.5)" id="mdi-arrow-up-down-bold" fill="#555"/><path d="M10 8H6l6-6 6 6h-4v8h4l-6 6-6-6h4V8Z" transform="translate(324) scale(1.5)" id="mdi-arrow-up-down-bold" fill="#fff"/><path d="M16 10h6L12 0 2 10h6v4H2l10 10 10-10h-6v-4m-2 6h3l-5 5-5-5h3V8H7l5-5 5 5h-3v8Z" transform="translate(360) scale(1.5)" id="mdi-arrow-up-down-bold-outline" fill="#555"/><path d="M16 10h6L12 0 2 10h6v4H2l10 10 10-10h-6v-4m-2 6h3l-5 5-5-5h3V8H7l5-5 5 5h-3v8Z" transform="translate(396) scale(1.5)" id="mdi-arrow-up-down-bold-outline" fill="#fff"/><path d="M12 22A10 10 0 0 1 2 12 10 10 0 0 1 12 2a10 10 0 0 1 10 10 10 10 0 0 1-10 10m5-8-5-5-5 5h10Z" transform="translate(432) scale(1.5)" id="mdi-arrow-up-drop-circle" fill="#555"/><path d="M12 22A10 10 0 0 1 2 12 10 10 0 0 1 12 2a10 10 0 0 1 10 10 10 10 0 0 1-10 10m5-8-5-5-5 5h10Z" transform="translate(468) scale(1.5)" id="mdi-arrow-up-drop-circle" fill="#fff"/><path d="M12 22a10 10 0 0 0 10-10A10 10 0 0 0 12 2 10 10 0 0 0 2 12a10 10 0 0 0 10 10m0-2a8 8 0 0 1-8-8 8 8 0 0 1 8-8 8 8 0 0 1 8 8 8 8 0 0 1-8 8m5-6-5-5-5 5h10Z" transform="translate(504) scale(1.5)" id="mdi-arrow-up-drop-circle-outline" fill="#555"/><path d="M12 22a10 10 0 0 0 10-10A10 10 0 0 0 12 2 10 10 0 0 0 2 12a10 10 0 0 0 10 10m0-2a8 8 0 0 1-8-8 8 8 0 0 1 8-8 8 8 0 0 1 8 8 8 8 0 0 1-8 8m5-6-5-5-5 5h10Z" transform="translate(540) scale(1.5)" id="mdi-arrow-up-drop-circle-outline" fill="#fff"/><path d="M20 18v2h-6.5A6.5 6.5 0 0 1 7 13.5V7.83l-3.09 3.09L2.5 9.5 8 4l5.5 5.5-1.41 1.41L9 7.83v5.67C9 16 11 18 13.5 18H20Z" transform="translate(576) scale(1.5)" id="mdi-arrow-up-left" fill="#555"/><path d="M20 18v2h-6.5A6.5 6.5 0 0 1 7 13.5V7.83l-3.09 3.09L2.5 9.5 8 4l5.5 5.5-1.41 1.41L9 7.83v5.67C9 16 11 18 13.5 18H20Z" transform="translate(612) scale(1.5)" id="mdi-arrow-up-left" fill="#fff"/><path d="M13.5 21C9.36 21 6 17.64 6 13.5V11H2l6-7 6 7h-4v2.5c0 1.93 1.57 3.5 3.5 3.5H21v4h-7.5Z" transform="translate(648) scale(1.5)" id="mdi-arrow-up-left-bold" fill="#555"/><path d="M13.5 21C9.36 21 6 17.64 6 13.5V11H2l6-7 6 7h-4v2.5c0 1.93 1.57 3.5 3.5 3.5H21v4h-7.5Z" transform="translate(684) scale(1.5)" id="mdi-arrow-up-left-bold" fill="#fff"/><path d="m21.5 9.5-1.41 1.42L17 7.83v5.67a6.5 6.5 0 0 1-6.5 6.5H4v-2h6.5c2.5 0 4.5-2 4.5-4.5V7.83l-3.09 3.08L10.5 9.5 16 4l5.5 5.5Z" transform="matrix(1.5 0 0 1.5 0 36)" id="mdi-arrow-up-right" fill="#555"/><path d="m21.5 9.5-1.41 1.42L17 7.83v5.67a6.5 6.5 0 0 1-6.5 6.5H4v-2h6.5c2.5 0 4.5-2 4.5-4.5V7.83l-3.09 3.08L10.5 9.5 16 4l5.5 5.5Z" transform="matrix(1.5 0 0 1.5 36 36)" id="mdi-arrow-up-right" fill="#fff"/><path d="M3 21v-4h7.5c1.93 0 3.5-1.57 3.5-3.5V11h-4l6-7 6 7h-4v2.5c0 4.14-3.36 7.5-7.5 7.5H3Z" transform="matrix(1.5 0 0 1.5 72 36)" id="mdi-arrow-up-right-bold" fill="#555"/><path d="M3 21v-4h7.5c1.93 0 3.5-1.57 3.5-3.5V11h-4l6-7 6 7h-4v2.5c0 4.14-3.36 7.5-7.5 7.5H3Z" transform="matrix(1.5 0 0 1.5 108 36)" id="mdi-arrow-up-right-bold" fill="#fff"/><path d="M14 20h-4v-9l-3.5 3.5-2.42-2.42L12 4.16l7.92 7.92-2.42 2.42L14 11v9Z" transform="matrix(1.5 0 0 1.5 144 36)" id="mdi-arrow-up-thick" fill="#555"/><path d="M14 20h-4v-9l-3.5 3.5-2.42-2.42L12 4.16l7.92 7.92-2.42 2.42L14 11v9Z" transform="matrix(1.5 0 0 1.5 180 36)" id="mdi-arrow-up-thick" fill="#fff"/><path d="M7.03 9.97h4v8.92l2.01.03V9.97h3.99l-5-5Z" transform="matrix(1.5 0 0 1.5 216 36)" id="mdi-arrow-up-thin" fill="#555"/><path d="M7.03 9.97h4v8.92l2.01.03V9.97h3.99l-5-5Z" transform="matrix(1.5 0 0 1.5 252 36)" id="mdi-arrow-up-thin" fill="#fff"/><path d="M12 3.97c-4.41 0-8.03 3.62-8.03 8.03 0 4.41 3.62 8.03 8.03 8.03 4.41 0 8.03-3.62 8.03-8.03 0-4.41-3.62-8.03-8.03-8.03M12 2c5.54 0 10 4.46 10 10s-4.46 10-10 10S2 17.54 2 12 6.46 2 12 2m1 8.46h3L12 6.5l-4 3.96h3v7.04h2" transform="matrix(1.5 0 0 1.5 288 36)" id="mdi-arrow-up-thin-circle-outline" fill="#555"/><path d="M12 3.97c-4.41 0-8.03 3.62-8.03 8.03 0 4.41 3.62 8.03 8.03 8.03 4.41 0 8.03-3.62 8.03-8.03 0-4.41-3.62-8.03-8.03-8.03M12 2c5.54 0 10 4.46 10 10s-4.46 10-10 10S2 17.54 2 12 6.46 2 12 2m1 8.46h3L12 6.5l-4 3.96h3v7.04h2" transform="matrix(1.5 0 0 1.5 324 36)" id="mdi-arrow-up-thin-circle-outline" fill="#fff"/><path d="M18.8 11V9.5C18.8 8.1 17.4 7 16 7s-2.8 1.1-2.8 2.5V11c-.6 0-1.2.6-1.2 1.2v3.5c0 .7.6 1.3 1.2 1.3h5.5c.7 0 1.3-.6 1.3-1.2v-3.5c0-.7-.6-1.3-1.2-1.3m-1.3 0h-3V9.5c0-.8.7-1.3 1.5-1.3s1.5.5 1.5 1.3V11M9 6h3L8 2 4 6h3v12H4l4 4 4-4H9V6Z" transform="matrix(1.5 0 0 1.5 360 36)" id="mdi-arrow-vertical-lock" fill="#555"/><path d="M18.8 11V9.5C18.8 8.1 17.4 7 16 7s-2.8 1.1-2.8 2.5V11c-.6 0-1.2.6-1.2 1.2v3.5c0 .7.6 1.3 1.2 1.3h5.5c.7 0 1.3-.6 1.3-1.2v-3.5c0-.7-.6-1.3-1.2-1.3m-1.3 0h-3V9.5c0-.8.7-1.3 1.5-1.3s1.5.5 1.5 1.3V11M9 6h3L8 2 4 6h3v12H4l4 4 4-4H9V6Z" transform="matrix(1.5 0 0 1.5 396 36)" id="mdi-arrow-vertical-lock" fill="#fff"/><path d="m1.77 16.88 1.73 2.98c.34.68 1.04 1.14 1.83 1.14h11.46l-2.36-4.12H1.77m20.46.02c0-.4-.12-.79-.33-1.12L15.17 4.1A2.04 2.04 0 0 0 13.35 3H9.8l10.38 18 1.64-2.86c.31-.54.41-.78.41-1.24m-9.5-2.96L8.1 5.92l-4.65 8.02h9.28Z" transform="matrix(1.5 0 0 1.5 432 36)" id="mdi-artstation" fill="#555"/><path d="m1.77 16.88 1.73 2.98c.34.68 1.04 1.14 1.83 1.14h11.46l-2.36-4.12H1.77m20.46.02c0-.4-.12-.79-.33-1.12L15.17 4.1A2.04 2.04 0 0 0 13.35 3H9.8l10.38 18 1.64-2.86c.31-.54.41-.78.41-1.24m-9.5-2.96L8.1 5.92l-4.65 8.02h9.28Z" transform="matrix(1.5 0 0 1.5 468 36)" id="mdi-artstation" fill="#fff"/><path d="M19 12h-2v3h-3v2h5v-5M7 9h3V7H5v5h2V9m14-6H3a2 2 0 0 0-2 2v14a2 2 0 0 0 2 2h18a2 2 0 0 0 2-2V5a2 2 0 0 0-2-2m0 16H3V5h18v14Z" transform="matrix(1.5 0 0 1.5 504 36)" id="mdi-aspect-ratio" fill="#555"/><path d="M19 12h-2v3h-3v2h5v-5M7 9h3V7H5v5h2V9m14-6H3a2 2 0 0 0-2 2v14a2 2 0 0 0 2 2h18a2 2 0 0 0 2-2V5a2 2 0 0 0-2-2m0 16H3V5h18v14Z" transform="matrix(1.5 0 0 1.5 540 36)" id="mdi-aspect-ratio" fill="#fff"/><path d="M19 2H5a2 2 0 0 0-2 2v14a2 2 0 0 0 2 2h4l3 3 3-3h4a2 2 0 0 0 2-2V4a2 2 0 0 0-2-2m-5.12 10.88L12 17l-1.88-4.12L6 11l4.12-1.88L12 5l1.88 4.12L18 11" transform="matrix(1.5 0 0 1.5 576 36)" id="mdi-assistant" fill="#555"/><path d="M19 2H5a2 2 0 0 0-2 2v14a2 2 0 0 0 2 2h4l3 3 3-3h4a2 2 0 0 0 2-2V4a2 2 0 0 0-2-2m-5.12 10.88L12 17l-1.88-4.12L6 11l4.12-1.88L12 5l1.88 4.12L18 11" transform="matrix(1.5 0 0 1.5 612 36)" id="mdi-assistant" fill="#fff"/><path d="M21 13h-6.6l4.7 4.7-1.4 1.4-4.7-4.7V21h-2v-6.7L6.3 19l-1.4-1.4L9.4 13H3v-2h6.6L4.9 6.3l1.4-1.4L11 9.6V3h2v6.4l4.6-4.6L19 6.3 14.3 11H21v2Z" transform="matrix(1.5 0 0 1.5 648 36)" id="mdi-asterisk" fill="#555"/><path d="M21 13h-6.6l4.7 4.7-1.4 1.4-4.7-4.7V21h-2v-6.7L6.3 19l-1.4-1.4L9.4 13H3v-2h6.6L4.9 6.3l1.4-1.4L11 9.6V3h2v6.4l4.6-4.6L19 6.3 14.3 11H21v2Z" transform="matrix(1.5 0 0 1.5 684 36)" id="mdi-asterisk" fill="#fff"/><path d="M12 15c.81 0 1.5-.3 2.11-.89.59-.61.89-1.3.89-2.11 0-.81-.3-1.5-.89-2.11C13.5 9.3 12.81 9 12 9c-.81 0-1.5.3-2.11.89C9.3 10.5 9 11.19 9 12c0 .81.3 1.5.89 2.11.61.59 1.3.89 2.11.89m0-13c2.75 0 5.1 1 7.05 2.95C21 6.9 22 9.25 22 12v1.45c0 1-.35 1.85-1 2.55-.7.67-1.5 1-2.5 1-1.2 0-2.19-.5-2.94-1.5-1 1-2.18 1.5-3.56 1.5-1.37 0-2.55-.5-3.54-1.46C7.5 14.55 7 13.38 7 12c0-1.37.5-2.55 1.46-3.54C9.45 7.5 10.63 7 12 7c1.38 0 2.55.5 3.54 1.46C16.5 9.45 17 10.63 17 12v1.45c0 .41.16.77.46 1.08.3.31.65.47 1.04.47.42 0 .77-.16 1.07-.47.3-.31.43-.67.43-1.08V12c0-2.19-.77-4.07-2.35-5.65S14.19 4 12 4c-2.19 0-4.07.77-5.65 2.35S4 9.81 4 12c0 2.19.77 4.07 2.35 5.65S9.81 20 12 20h5v2h-5c-2.75 0-5.1-1-7.05-2.95C3 17.1 2 14.75 2 12s1-5.1 2.95-7.05C6.9 3 9.25 2 12 2Z" transform="matrix(1.5 0 0 1.5 0 72)" id="mdi-at" fill="#555"/><path d="M12 15c.81 0 1.5-.3 2.11-.89.59-.61.89-1.3.89-2.11 0-.81-.3-1.5-.89-2.11C13.5 9.3 12.81 9 12 9c-.81 0-1.5.3-2.11.89C9.3 10.5 9 11.19 9 12c0 .81.3 1.5.89 2.11.61.59 1.3.89 2.11.89m0-13c2.75 0 5.1 1 7.05 2.95C21 6.9 22 9.25 22 12v1.45c0 1-.35 1.85-1 2.55-.7.67-1.5 1-2.5 1-1.2 0-2.19-.5-2.94-1.5-1 1-2.18 1.5-3.56 1.5-1.37 0-2.55-.5-3.54-1.46C7.5 14.55 7 13.38 7 12c0-1.37.5-2.55 1.46-3.54C9.45 7.5 10.63 7 12 7c1.38 0 2.55.5 3.54 1.46C16.5 9.45 17 10.63 17 12v1.45c0 .41.16.77.46 1.08.3.31.65.47 1.04.47.42 0 .77-.16 1.07-.47.3-.31.43-.67.43-1.08V12c0-2.19-.77-4.07-2.35-5.65S14.19 4 12 4c-2.19 0-4.07.77-5.65 2.35S4 9.81 4 12c0 2.19.77 4.07 2.35 5.65S9.81 20 12 20h5v2h-5c-2.75 0-5.1-1-7.05-2.95C3 17.1 2 14.75 2 12s1-5.1 2.95-7.05C6.9 3 9.25 2 12 2Z" transform="matrix(1.5 0 0 1.5 36 72)" id="mdi-at" fill="#fff"/><path d="M7.93 11.24a.582.582 0 0 0-.8-.11c-.07.06-.13.13-.17.21l-4.9 9.81c-.15.29-.03.64.26.79.08.06.18.06.27.06h6.82c.22 0 .43-.12.53-.32 1.47-3.05.56-7.68-2.01-10.44m3.6-8.93a12.991 12.991 0 0 0-.76 12.78l3.29 6.59c.11.2.31.32.53.32h6.82a.59.59 0 0 0 .59-.59c0-.09 0-.18-.06-.26 0 0-9.18-18.38-9.44-18.84a.52.52 0 0 0-.72-.25c-.11.05-.2.14-.25.25Z" transform="matrix(1.5 0 0 1.5 72 72)" id="mdi-atlassian" fill="#555"/><path d="M7.93 11.24a.582.582 0 0 0-.8-.11c-.07.06-.13.13-.17.21l-4.9 9.81c-.15.29-.03.64.26.79.08.06.18.06.27.06h6.82c.22 0 .43-.12.53-.32 1.47-3.05.56-7.68-2.01-10.44m3.6-8.93a12.991 12.991 0 0 0-.76 12.78l3.29 6.59c.11.2.31.32.53.32h6.82a.59.59 0 0 0 .59-.59c0-.09 0-.18-.06-.26 0 0-9.18-18.38-9.44-18.84a.52.52 0 0 0-.72-.25c-.11.05-.2.14-.25.25Z" transform="matrix(1.5 0 0 1.5 108 72)" id="mdi-atlassian" fill="#fff"/><path d="M8 9v1.5h2.25V15h1.5v-4.5H14V9H8M6 9H3a1 1 0 0 0-1 1v5h1.5v-1.5h2V15H7v-5a1 1 0 0 0-1-1m-.5 3h-2v-1.5h2V12M21 9h-4.5a1 1 0 0 0-1 1v5H17v-4.5h1V14h1.5v-3.5h1V15H22v-5a1 1 0 0 0-1-1Z" transform="matrix(1.5 0 0 1.5 144 72)" id="mdi-atm" fill="#555"/><path d="M8 9v1.5h2.25V15h1.5v-4.5H14V9H8M6 9H3a1 1 0 0 0-1 1v5h1.5v-1.5h2V15H7v-5a1 1 0 0 0-1-1m-.5 3h-2v-1.5h2V12M21 9h-4.5a1 1 0 0 0-1 1v5H17v-4.5h1V14h1.5v-3.5h1V15H22v-5a1 1 0 0 0-1-1Z" transform="matrix(1.5 0 0 1.5 180 72)" id="mdi-atm" fill="#fff"/><path d="M12 11a1 1 0 0 1 1 1 1 1 0 0 1-1 1 1 1 0 0 1-1-1 1 1 0 0 1 1-1M4.22 4.22C5.65 2.79 8.75 3.43 12 5.56c3.25-2.13 6.35-2.77 7.78-1.34 1.43 1.43.79 4.53-1.34 7.78 2.13 3.25 2.77 6.35 1.34 7.78-1.43 1.43-4.53.79-7.78-1.34-3.25 2.13-6.35 2.77-7.78 1.34-1.43-1.43-.79-4.53 1.34-7.78-2.13-3.25-2.77-6.35-1.34-7.78m11.32 4.24c.61.62 1.17 1.25 1.69 1.88 1.38-2.13 1.88-3.96 1.13-4.7-.74-.75-2.57-.25-4.7 1.13.63.52 1.26 1.08 1.88 1.69m-7.08 7.08c-.61-.62-1.17-1.25-1.69-1.88-1.38 2.13-1.88 3.96-1.13 4.7.74.75 2.57.25 4.7-1.13-.63-.52-1.26-1.08-1.88-1.69m-2.82-9.9c-.75.74-.25 2.57 1.13 4.7.52-.63 1.08-1.26 1.69-1.88.62-.61 1.25-1.17 1.88-1.69-2.13-1.38-3.96-1.88-4.7-1.13m4.24 8.48c.7.7 1.42 1.34 2.12 1.91.7-.57 1.42-1.21 2.12-1.91.7-.7 1.34-1.42 1.91-2.12-.57-.7-1.21-1.42-1.91-2.12-.7-.7-1.42-1.34-2.12-1.91-.7.57-1.42 1.21-2.12 1.91-.7.7-1.34 1.42-1.91 2.12.57.7 1.21 1.42 1.91 2.12m8.48 4.24c.75-.74.25-2.57-1.13-4.7-.52.63-1.08 1.26-1.69 1.88-.62.61-1.25 1.17-1.88 1.69 2.13 1.38 3.96 1.88 4.7 1.13Z" transform="matrix(1.5 0 0 1.5 216 72)" id="mdi-atom" fill="#555"/><path d="M12 11a1 1 0 0 1 1 1 1 1 0 0 1-1 1 1 1 0 0 1-1-1 1 1 0 0 1 1-1M4.22 4.22C5.65 2.79 8.75 3.43 12 5.56c3.25-2.13 6.35-2.77 7.78-1.34 1.43 1.43.79 4.53-1.34 7.78 2.13 3.25 2.77 6.35 1.34 7.78-1.43 1.43-4.53.79-7.78-1.34-3.25 2.13-6.35 2.77-7.78 1.34-1.43-1.43-.79-4.53 1.34-7.78-2.13-3.25-2.77-6.35-1.34-7.78m11.32 4.24c.61.62 1.17 1.25 1.69 1.88 1.38-2.13 1.88-3.96 1.13-4.7-.74-.75-2.57-.25-4.7 1.13.63.52 1.26 1.08 1.88 1.69m-7.08 7.08c-.61-.62-1.17-1.25-1.69-1.88-1.38 2.13-1.88 3.96-1.13 4.7.74.75 2.57.25 4.7-1.13-.63-.52-1.26-1.08-1.88-1.69m-2.82-9.9c-.75.74-.25 2.57 1.13 4.7.52-.63 1.08-1.26 1.69-1.88.62-.61 1.25-1.17 1.88-1.69-2.13-1.38-3.96-1.88-4.7-1.13m4.24 8.48c.7.7 1.42 1.34 2.12 1.91.7-.57 1.42-1.21 2.12-1.91.7-.7 1.34-1.42 1.91-2.12-.57-.7-1.21-1.42-1.91-2.12-.7-.7-1.42-1.34-2.12-1.91-.7.57-1.42 1.21-2.12 1.91-.7.7-1.34 1.42-1.91 2.12.57.7 1.21 1.42 1.91 2.12m8.48 4.24c.75-.74.25-2.57-1.13-4.7-.52.63-1.08 1.26-1.69 1.88-.62.61-1.25 1.17-1.88 1.69 2.13 1.38 3.96 1.88 4.7 1.13Z" transform="matrix(1.5 0 0 1.5 252 72)" id="mdi-atom" fill="#fff"/><path d="M18.36 2.64c1.64 0 3 1.36 3 3 0 1.65-1.36 3-3 3-1.65 0-3-1.35-3-3 0-.3.05-.58.14-.84-1.07-.51-2.25-.8-3.5-.8a8 8 0 0 0-8 8l.04.84-1.99.21L2 12A10 10 0 0 1 12 2c1.69 0 3.28.42 4.67 1.16.49-.33 1.07-.52 1.69-.52m0 2a1 1 0 0 0-1 1 1 1 0 0 0 1 1c.56 0 1-.45 1-1 0-.56-.44-1-1-1M5.64 15.36c1.65 0 3 1.35 3 3 0 .3-.05.58-.14.84 1.07.51 2.25.8 3.5.8a8 8 0 0 0 8-8l-.04-.84 1.99-.21L22 12a10 10 0 0 1-10 10c-1.69 0-3.28-.42-4.67-1.16-.49.33-1.07.52-1.69.52-1.64 0-3-1.36-3-3 0-1.65 1.36-3 3-3m0 2c-.56 0-1 .45-1 1 0 .56.44 1 1 1a1 1 0 0 0 1-1 1 1 0 0 0-1-1M12 8a4 4 0 0 1 4 4 4 4 0 0 1-4 4 4 4 0 0 1-4-4 4 4 0 0 1 4-4Z" transform="matrix(1.5 0 0 1.5 288 72)" id="mdi-atom-variant" fill="#555"/><path d="M18.36 2.64c1.64 0 3 1.36 3 3 0 1.65-1.36 3-3 3-1.65 0-3-1.35-3-3 0-.3.05-.58.14-.84-1.07-.51-2.25-.8-3.5-.8a8 8 0 0 0-8 8l.04.84-1.99.21L2 12A10 10 0 0 1 12 2c1.69 0 3.28.42 4.67 1.16.49-.33 1.07-.52 1.69-.52m0 2a1 1 0 0 0-1 1 1 1 0 0 0 1 1c.56 0 1-.45 1-1 0-.56-.44-1-1-1M5.64 15.36c1.65 0 3 1.35 3 3 0 .3-.05.58-.14.84 1.07.51 2.25.8 3.5.8a8 8 0 0 0 8-8l-.04-.84 1.99-.21L22 12a10 10 0 0 1-10 10c-1.69 0-3.28-.42-4.67-1.16-.49.33-1.07.52-1.69.52-1.64 0-3-1.36-3-3 0-1.65 1.36-3 3-3m0 2c-.56 0-1 .45-1 1 0 .56.44 1 1 1a1 1 0 0 0 1-1 1 1 0 0 0-1-1M12 8a4 4 0 0 1 4 4 4 4 0 0 1-4 4 4 4 0 0 1-4-4 4 4 0 0 1 4-4Z" transform="matrix(1.5 0 0 1.5 324 72)" id="mdi-atom-variant" fill="#fff"/><path d="M7.5 18A5.5 5.5 0 0 1 2 12.5 5.5 5.5 0 0 1 7.5 7H18a4 4 0 0 1 4 4 4 4 0 0 1-4 4H9.5A2.5 2.5 0 0 1 7 12.5 2.5 2.5 0 0 1 9.5 10H17v1.5H9.5a1 1 0 0 0-1 1 1 1 0 0 0 1 1H18a2.5 2.5 0 0 0 2.5-2.5A2.5 2.5 0 0 0 18 8.5H7.5a4 4 0 0 0-4 4 4 4 0 0 0 4 4H17V18H7.5Z" transform="matrix(1.5 0 0 1.5 360 72)" id="mdi-attachment" fill="#555"/><path d="M7.5 18A5.5 5.5 0 0 1 2 12.5 5.5 5.5 0 0 1 7.5 7H18a4 4 0 0 1 4 4 4 4 0 0 1-4 4H9.5A2.5 2.5 0 0 1 7 12.5 2.5 2.5 0 0 1 9.5 10H17v1.5H9.5a1 1 0 0 0-1 1 1 1 0 0 0 1 1H18a2.5 2.5 0 0 0 2.5-2.5A2.5 2.5 0 0 0 18 8.5H7.5a4 4 0 0 0-4 4 4 4 0 0 0 4 4H17V18H7.5Z" transform="matrix(1.5 0 0 1.5 396 72)" id="mdi-attachment" fill="#fff"/><path d="M11 6v6H5V6h2V2c0-.55.45-1 1-1s1 .45 1 1v4h2m-6 8v2c0 1.3.84 2.4 2 2.82V23h2v-4.18c1.16-.42 2-1.52 2-2.82v-2H5m12-8V2c0-.55-.45-1-1-1s-1 .45-1 1v4h-2v6h6V6h-2m-4 8v2c0 1.3.84 2.4 2 2.82V23h2v-4.18c1.16-.42 2-1.52 2-2.82v-2h-6Z" transform="matrix(1.5 0 0 1.5 432 72)" id="mdi-audio-input-rca" fill="#555"/><path d="M11 6v6H5V6h2V2c0-.55.45-1 1-1s1 .45 1 1v4h2m-6 8v2c0 1.3.84 2.4 2 2.82V23h2v-4.18c1.16-.42 2-1.52 2-2.82v-2H5m12-8V2c0-.55-.45-1-1-1s-1 .45-1 1v4h-2v6h6V6h-2m-4 8v2c0 1.3.84 2.4 2 2.82V23h2v-4.18c1.16-.42 2-1.52 2-2.82v-2h-6Z" transform="matrix(1.5 0 0 1.5 468 72)" id="mdi-audio-input-rca" fill="#fff"/><path d="M11 4V3c0-.55.45-1 1-1s1 .45 1 1v1h-2m2 5V5h-2v4H9v6c0 1.3.84 2.4 2 2.82V22h2v-4.18c1.16-.42 2-1.52 2-2.82V9h-2Z" transform="matrix(1.5 0 0 1.5 504 72)" id="mdi-audio-input-stereo-minijack" fill="#555"/><path d="M11 4V3c0-.55.45-1 1-1s1 .45 1 1v1h-2m2 5V5h-2v4H9v6c0 1.3.84 2.4 2 2.82V22h2v-4.18c1.16-.42 2-1.52 2-2.82V9h-2Z" transform="matrix(1.5 0 0 1.5 540 72)" id="mdi-audio-input-stereo-minijack" fill="#fff"/><path d="M12 4c4.41 0 8 3.59 8 8s-3.59 8-8 8-8-3.59-8-8 3.59-8 8-8m0-2C6.5 2 2 6.5 2 12s4.5 10 10 10 10-4.5 10-10S17.5 2 12 2m1.5 14.5c0-.83-.67-1.5-1.5-1.5s-1.5.67-1.5 1.5.67 1.5 1.5 1.5 1.5-.67 1.5-1.5M9 12c0-.83-.67-1.5-1.5-1.5S6 11.17 6 12s.67 1.5 1.5 1.5S9 12.83 9 12m9 0c0-.83-.67-1.5-1.5-1.5S15 11.17 15 12s.67 1.5 1.5 1.5S18 12.83 18 12Z" transform="matrix(1.5 0 0 1.5 576 72)" id="mdi-audio-input-xlr" fill="#555"/><path d="M12 4c4.41 0 8 3.59 8 8s-3.59 8-8 8-8-3.59-8-8 3.59-8 8-8m0-2C6.5 2 2 6.5 2 12s4.5 10 10 10 10-4.5 10-10S17.5 2 12 2m1.5 14.5c0-.83-.67-1.5-1.5-1.5s-1.5.67-1.5 1.5.67 1.5 1.5 1.5 1.5-.67 1.5-1.5M9 12c0-.83-.67-1.5-1.5-1.5S6 11.17 6 12s.67 1.5 1.5 1.5S9 12.83 9 12m9 0c0-.83-.67-1.5-1.5-1.5S15 11.17 15 12s.67 1.5 1.5 1.5S18 12.83 18 12Z" transform="matrix(1.5 0 0 1.5 612 72)" id="mdi-audio-input-xlr" fill="#fff"/><path d="M20 7H4a2 2 0 0 0-2 2v6a2 2 0 0 0 2 2h1v1c0 .6.4 1 1 1h2c.6 0 1-.4 1-1v-1h6v1c0 .6.4 1 1 1h2c.6 0 1-.4 1-1v-1h1a2 2 0 0 0 2-2V9a2 2 0 0 0-2-2m-6 5H4v-2h10v2m4 1a2 2 0 0 1-2-2 2 2 0 0 1 2-2 2 2 0 0 1 2 2 2 2 0 0 1-2 2M6 15H4v-1h2v1m4 0H8v-1h2v1m4 0h-2v-1h2v1Z" transform="matrix(1.5 0 0 1.5 648 72)" id="mdi-audio-video" fill="#555"/><path d="M20 7H4a2 2 0 0 0-2 2v6a2 2 0 0 0 2 2h1v1c0 .6.4 1 1 1h2c.6 0 1-.4 1-1v-1h6v1c0 .6.4 1 1 1h2c.6 0 1-.4 1-1v-1h1a2 2 0 0 0 2-2V9a2 2 0 0 0-2-2m-6 5H4v-2h10v2m4 1a2 2 0 0 1-2-2 2 2 0 0 1 2-2 2 2 0 0 1 2 2 2 2 0 0 1-2 2M6 15H4v-1h2v1m4 0H8v-1h2v1m4 0h-2v-1h2v1Z" transform="matrix(1.5 0 0 1.5 684 72)" id="mdi-audio-video" fill="#fff"/><path d="M22.1 21.5 2.4 1.7 1.1 3l4 4H4c-1.1 0-2 .9-2 2v6c0 1.1.9 2 2 2h1v1c0 .6.4 1 1 1h2c.6 0 1-.4 1-1v-1h6v1c0 .6.4 1 1 1h1.1l3.7 3.7 1.3-1.2M6 15H4v-1h2v1m-2-3v-2h4.1l2 2H4m6 3H8v-1h2v1m2 0v-1h.1l1 1H12m2-5v.8l6.2 6.2c1-.1 1.8-.9 1.8-2V9c0-1.1-.9-2-2-2h-9.8l3 3h.8m4-1c1.1 0 2 .9 2 2s-.9 2-2 2-2-.9-2-2 .9-2 2-2Z" transform="matrix(1.5 0 0 1.5 0 108)" id="mdi-audio-video-off" fill="#555"/><path d="M22.1 21.5 2.4 1.7 1.1 3l4 4H4c-1.1 0-2 .9-2 2v6c0 1.1.9 2 2 2h1v1c0 .6.4 1 1 1h2c.6 0 1-.4 1-1v-1h6v1c0 .6.4 1 1 1h1.1l3.7 3.7 1.3-1.2M6 15H4v-1h2v1m-2-3v-2h4.1l2 2H4m6 3H8v-1h2v1m2 0v-1h.1l1 1H12m2-5v.8l6.2 6.2c1-.1 1.8-.9 1.8-2V9c0-1.1-.9-2-2-2h-9.8l3 3h.8m4-1c1.1 0 2 .9 2 2s-.9 2-2 2-2-.9-2-2 .9-2 2-2Z" transform="matrix(1.5 0 0 1.5 36 108)" id="mdi-audio-video-off" fill="#fff"/><path d="M5 3a2 2 0 0 0-2 2v14a2 2 0 0 0 2 2h14a2 2 0 0 0 2-2V5a2 2 0 0 0-2-2H5m2 6h3c.6 0 1 .5 1 1v5H9.5v-1.5h-2V15H6v-5c0-.5.4-1 1-1m6 0h3.5c.85 0 1.5.65 1.5 1.5v1c0 .6-.4 1.15-.9 1.4L18 15h-1.5l-.85-2H14.5v2H13V9m-5.5 1.5V12h2v-1.5h-2m7 0v1h2v-1h-2" transform="matrix(1.5 0 0 1.5 72 108)" id="mdi-augmented-reality" fill="#555"/><path d="M5 3a2 2 0 0 0-2 2v14a2 2 0 0 0 2 2h14a2 2 0 0 0 2-2V5a2 2 0 0 0-2-2H5m2 6h3c.6 0 1 .5 1 1v5H9.5v-1.5h-2V15H6v-5c0-.5.4-1 1-1m6 0h3.5c.85 0 1.5.65 1.5 1.5v1c0 .6-.4 1.15-.9 1.4L18 15h-1.5l-.85-2H14.5v2H13V9m-5.5 1.5V12h2v-1.5h-2m7 0v1h2v-1h-2" transform="matrix(1.5 0 0 1.5 108 108)" id="mdi-augmented-reality" fill="#fff"/><path d="M22 17v2H11v-2h11M19 4.5v5h3L16.5 15 11 9.5h3v-5h5M10.7 15H8.8l-.7-2H4.9l-.7 2H2.3l3.2-9h2l3.2 9m-3.05-3.35L6.5 8l-1.15 3.65h2.3Z" transform="matrix(1.5 0 0 1.5 144 108)" id="mdi-auto-download" fill="#555"/><path d="M22 17v2H11v-2h11M19 4.5v5h3L16.5 15 11 9.5h3v-5h5M10.7 15H8.8l-.7-2H4.9l-.7 2H2.3l3.2-9h2l3.2 9m-3.05-3.35L6.5 8l-1.15 3.65h2.3Z" transform="matrix(1.5 0 0 1.5 180 108)" id="mdi-auto-download" fill="#fff"/><path d="M7.5 5.6 5 7l1.4-2.5L5 2l2.5 1.4L10 2 8.6 4.5 10 7 7.5 5.6m12 9.8L22 14l-1.4 2.5L22 19l-2.5-1.4L17 19l1.4-2.5L17 14l2.5 1.4M22 2l-1.4 2.5L22 7l-2.5-1.4L17 7l1.4-2.5L17 2l2.5 1.4L22 2m-8.66 10.78 2.44-2.44-2.12-2.12-2.44 2.44 2.12 2.12m1.03-5.49 2.34 2.34c.39.37.39 1.02 0 1.41L5.04 22.71c-.39.39-1.04.39-1.41 0l-2.34-2.34c-.39-.37-.39-1.02 0-1.41L12.96 7.29c.39-.39 1.04-.39 1.41 0Z" transform="matrix(1.5 0 0 1.5 216 108)" id="mdi-auto-fix" fill="#555"/><path d="M7.5 5.6 5 7l1.4-2.5L5 2l2.5 1.4L10 2 8.6 4.5 10 7 7.5 5.6m12 9.8L22 14l-1.4 2.5L22 19l-2.5-1.4L17 19l1.4-2.5L17 14l2.5 1.4M22 2l-1.4 2.5L22 7l-2.5-1.4L17 7l1.4-2.5L17 2l2.5 1.4L22 2m-8.66 10.78 2.44-2.44-2.12-2.12-2.44 2.44 2.12 2.12m1.03-5.49 2.34 2.34c.39.37.39 1.02 0 1.41L5.04 22.71c-.39.39-1.04.39-1.41 0l-2.34-2.34c-.39-.37-.39-1.02 0-1.41L12.96 7.29c.39-.39 1.04-.39 1.41 0Z" transform="matrix(1.5 0 0 1.5 252 108)" id="mdi-auto-fix" fill="#fff"/><path d="M5.35 12.65 6.5 9l1.15 3.65M5.5 7l-3.2 9h1.9l.7-2h3.2l.7 2h1.9L7.5 7M11 20h11v-2H11m3-2h5v-5h3l-5.5-5.5L11 11h3v5Z" transform="matrix(1.5 0 0 1.5 288 108)" id="mdi-auto-upload" fill="#555"/><path d="M5.35 12.65 6.5 9l1.15 3.65M5.5 7l-3.2 9h1.9l.7-2h3.2l.7 2h1.9L7.5 7M11 20h11v-2H11m3-2h5v-5h3l-5.5-5.5L11 11h3v5Z" transform="matrix(1.5 0 0 1.5 324 108)" id="mdi-auto-upload" fill="#fff"/><path d="M12 6v3l4-4-4-4v3a8 8 0 0 0-8 8c0 1.57.46 3.03 1.24 4.26L6.7 14.8A5.9 5.9 0 0 1 6 12a6 6 0 0 1 6-6m6.76 1.74L17.3 9.2c.44.84.7 1.8.7 2.8a6 6 0 0 1-6 6v-3l-4 4 4 4v-3a8 8 0 0 0 8-8c0-1.57-.46-3.03-1.24-4.26Z" transform="matrix(1.5 0 0 1.5 360 108)" id="mdi-autorenew" fill="#555"/><path d="M12 6v3l4-4-4-4v3a8 8 0 0 0-8 8c0 1.57.46 3.03 1.24 4.26L6.7 14.8A5.9 5.9 0 0 1 6 12a6 6 0 0 1 6-6m6.76 1.74L17.3 9.2c.44.84.7 1.8.7 2.8a6 6 0 0 1-6 6v-3l-4 4 4 4v-3a8 8 0 0 0 8-8c0-1.57-.46-3.03-1.24-4.26Z" transform="matrix(1.5 0 0 1.5 396 108)" id="mdi-autorenew" fill="#fff"/><path d="M11 17a1 1 0 0 0 1 1 1 1 0 0 0 1-1 1 1 0 0 0-1-1 1 1 0 0 0-1 1m0-14v4h2V5.08c3.39.49 6 3.39 6 6.92a7 7 0 0 1-7 7 7 7 0 0 1-7-7c0-1.68.59-3.22 1.58-4.42L12 13l1.41-1.41-6.8-6.8v.02C4.42 6.45 3 9.05 3 12a9 9 0 0 0 9 9 9 9 0 0 0 9-9 9 9 0 0 0-9-9m6 9a1 1 0 0 0-1-1 1 1 0 0 0-1 1 1 1 0 0 0 1 1 1 1 0 0 0 1-1M6 12a1 1 0 0 0 1 1 1 1 0 0 0 1-1 1 1 0 0 0-1-1 1 1 0 0 0-1 1Z" transform="matrix(1.5 0 0 1.5 432 108)" id="mdi-av-timer" fill="#555"/><path d="M11 17a1 1 0 0 0 1 1 1 1 0 0 0 1-1 1 1 0 0 0-1-1 1 1 0 0 0-1 1m0-14v4h2V5.08c3.39.49 6 3.39 6 6.92a7 7 0 0 1-7 7 7 7 0 0 1-7-7c0-1.68.59-3.22 1.58-4.42L12 13l1.41-1.41-6.8-6.8v.02C4.42 6.45 3 9.05 3 12a9 9 0 0 0 9 9 9 9 0 0 0 9-9 9 9 0 0 0-9-9m6 9a1 1 0 0 0-1-1 1 1 0 0 0-1 1 1 1 0 0 0 1 1 1 1 0 0 0 1-1M6 12a1 1 0 0 0 1 1 1 1 0 0 0 1-1 1 1 0 0 0-1-1 1 1 0 0 0-1 1Z" transform="matrix(1.5 0 0 1.5 468 108)" id="mdi-av-timer" fill="#fff"/><path d="M7.64 10.38c0 .25.02.45.07.62.05.12.12.28.21.46.04.04.05.1.05.15 0 .07-.04.13-.13.2l-.42.28c-.06.04-.12.06-.17.06-.07 0-.13-.04-.2-.1-.09-.1-.17-.2-.24-.31-.06-.11-.13-.24-.2-.39-.52.61-1.17.92-1.96.92-.56 0-1-.16-1.33-.48-.32-.32-.49-.75-.49-1.29 0-.55.2-1 .6-1.36.41-.34.95-.52 1.63-.52.23 0 .44.02.71.06.23.03.5.08.76.14v-.48c0-.51-.1-.84-.31-1.07-.22-.21-.57-.3-1.08-.3-.24 0-.48.03-.72.08-.25.06-.49.13-.72.23-.11.04-.2.07-.23.08-.05.02-.08.02-.11.02-.09 0-.14-.06-.14-.2v-.33c0-.1.01-.18.05-.23.03-.05.09-.09.18-.12.24-.14.51-.24.84-.32a3.9 3.9 0 0 1 1.04-.13c.79 0 1.37.18 1.74.54.37.36.55.91.55 1.64v2.15h.02m-2.7 1.02c.22 0 .44-.04.68-.12.24-.08.45-.23.63-.43.11-.13.19-.27.25-.43 0-.16.05-.35.05-.58v-.27c-.2-.07-.4-.07-.62-.12a6.89 6.89 0 0 0-.62-.04c-.45 0-.77.09-.99.27-.22.18-.32.43-.32.76 0 .32.07.56.24.71.16.17.39.25.7.25m5.34.71a.58.58 0 0 1-.28-.06c-.03-.05-.08-.14-.12-.26L8.32 6.65c-.04-.15-.06-.22-.06-.27 0-.11.05-.17.16-.17h.65c.13 0 .22.02.26.07.06.04.1.13.14.26l1.11 4.4 1.04-4.4c.03-.13.07-.22.13-.26.05-.04.14-.07.25-.07h.55c.12 0 .21.02.26.07.05.04.1.13.13.26L14 11l1.14-4.46c.04-.13.09-.22.13-.26.06-.04.14-.07.26-.07h.62c.11 0 .17.06.17.17 0 .03-.01.07-.02.12 0 0-.02.08-.04.15l-1.61 5.14c-.04.14-.08.21-.15.26-.04.04-.13.07-.24.07h-.57c-.13 0-.19-.02-.27-.07a.45.45 0 0 1-.12-.26L12.27 7.5l-1.03 4.28c-.03.13-.07.22-.12.27a.49.49 0 0 1-.27.06h-.57m8.55.18c-.33 0-.7-.04-1.03-.12-.33-.08-.59-.17-.76-.26a.496.496 0 0 1-.21-.19.392.392 0 0 1-.04-.18v-.34c0-.14.05-.2.15-.2h.12c.04 0 .1.05.17.08.22.1.47.18.73.23.27.05.54.08.79.08.42 0 .75-.07.97-.22.23-.17.35-.36.35-.63 0-.19-.07-.34-.18-.47-.12-.12-.35-.24-.67-.34l-.97-.3c-.48-.16-.84-.38-1.06-.68a1.58 1.58 0 0 1-.33-.97c0-.28.06-.52.18-.73.12-.22.28-.4.46-.55.22-.15.44-.26.71-.34.26-.08.54-.12.84-.12.14 0 .29.01.45.03.14.02.28.05.42.07.14.04.26.07.38.11.12.04.2.08.28.12.09.05.16.1.2.16.04.06.06.13.06.22v.32c0 .14-.05.21-.15.21-.05 0-.14-.03-.26-.08-.37-.17-.8-.26-1.27-.26-.38 0-.66.06-.89.19-.2.12-.31.32-.31.59 0 .19.07.35.2.47.13.13.38.25.73.37l.95.3c.48.14.82.36 1.03.64.2.27.3.58.3.93 0 .28-.06.54-.17.77-.12.22-.28.42-.5.58-.19.17-.44.29-.72.38-.28.09-.62.13-.95.13m1.25 3.24C17.89 17.14 14.71 18 12 18c-3.85 0-7.3-1.42-9.91-3.77-.21-.19-.02-.44.23-.29 2.82 1.63 6.29 2.62 9.89 2.62 2.43 0 5.1-.5 7.55-1.56.37-.15.68.26.32.53M21 14.5c-.29-.37-1.86-.18-2.57-.1-.21.03-.24-.16-.05-.3 1.25-.87 3.31-.6 3.54-.33.24.3-.06 2.36-1.23 3.34-.19.15-.36.07-.28-.11.27-.68.86-2.16.59-2.5Z" transform="matrix(1.5 0 0 1.5 504 108)" id="mdi-aws" fill="#555"/><path d="M7.64 10.38c0 .25.02.45.07.62.05.12.12.28.21.46.04.04.05.1.05.15 0 .07-.04.13-.13.2l-.42.28c-.06.04-.12.06-.17.06-.07 0-.13-.04-.2-.1-.09-.1-.17-.2-.24-.31-.06-.11-.13-.24-.2-.39-.52.61-1.17.92-1.96.92-.56 0-1-.16-1.33-.48-.32-.32-.49-.75-.49-1.29 0-.55.2-1 .6-1.36.41-.34.95-.52 1.63-.52.23 0 .44.02.71.06.23.03.5.08.76.14v-.48c0-.51-.1-.84-.31-1.07-.22-.21-.57-.3-1.08-.3-.24 0-.48.03-.72.08-.25.06-.49.13-.72.23-.11.04-.2.07-.23.08-.05.02-.08.02-.11.02-.09 0-.14-.06-.14-.2v-.33c0-.1.01-.18.05-.23.03-.05.09-.09.18-.12.24-.14.51-.24.84-.32a3.9 3.9 0 0 1 1.04-.13c.79 0 1.37.18 1.74.54.37.36.55.91.55 1.64v2.15h.02m-2.7 1.02c.22 0 .44-.04.68-.12.24-.08.45-.23.63-.43.11-.13.19-.27.25-.43 0-.16.05-.35.05-.58v-.27c-.2-.07-.4-.07-.62-.12a6.89 6.89 0 0 0-.62-.04c-.45 0-.77.09-.99.27-.22.18-.32.43-.32.76 0 .32.07.56.24.71.16.17.39.25.7.25m5.34.71a.58.58 0 0 1-.28-.06c-.03-.05-.08-.14-.12-.26L8.32 6.65c-.04-.15-.06-.22-.06-.27 0-.11.05-.17.16-.17h.65c.13 0 .22.02.26.07.06.04.1.13.14.26l1.11 4.4 1.04-4.4c.03-.13.07-.22.13-.26.05-.04.14-.07.25-.07h.55c.12 0 .21.02.26.07.05.04.1.13.13.26L14 11l1.14-4.46c.04-.13.09-.22.13-.26.06-.04.14-.07.26-.07h.62c.11 0 .17.06.17.17 0 .03-.01.07-.02.12 0 0-.02.08-.04.15l-1.61 5.14c-.04.14-.08.21-.15.26-.04.04-.13.07-.24.07h-.57c-.13 0-.19-.02-.27-.07a.45.45 0 0 1-.12-.26L12.27 7.5l-1.03 4.28c-.03.13-.07.22-.12.27a.49.49 0 0 1-.27.06h-.57m8.55.18c-.33 0-.7-.04-1.03-.12-.33-.08-.59-.17-.76-.26a.496.496 0 0 1-.21-.19.392.392 0 0 1-.04-.18v-.34c0-.14.05-.2.15-.2h.12c.04 0 .1.05.17.08.22.1.47.18.73.23.27.05.54.08.79.08.42 0 .75-.07.97-.22.23-.17.35-.36.35-.63 0-.19-.07-.34-.18-.47-.12-.12-.35-.24-.67-.34l-.97-.3c-.48-.16-.84-.38-1.06-.68a1.58 1.58 0 0 1-.33-.97c0-.28.06-.52.18-.73.12-.22.28-.4.46-.55.22-.15.44-.26.71-.34.26-.08.54-.12.84-.12.14 0 .29.01.45.03.14.02.28.05.42.07.14.04.26.07.38.11.12.04.2.08.28.12.09.05.16.1.2.16.04.06.06.13.06.22v.32c0 .14-.05.21-.15.21-.05 0-.14-.03-.26-.08-.37-.17-.8-.26-1.27-.26-.38 0-.66.06-.89.19-.2.12-.31.32-.31.59 0 .19.07.35.2.47.13.13.38.25.73.37l.95.3c.48.14.82.36 1.03.64.2.27.3.58.3.93 0 .28-.06.54-.17.77-.12.22-.28.42-.5.58-.19.17-.44.29-.72.38-.28.09-.62.13-.95.13m1.25 3.24C17.89 17.14 14.71 18 12 18c-3.85 0-7.3-1.42-9.91-3.77-.21-.19-.02-.44.23-.29 2.82 1.63 6.29 2.62 9.89 2.62 2.43 0 5.1-.5 7.55-1.56.37-.15.68.26.32.53M21 14.5c-.29-.37-1.86-.18-2.57-.1-.21.03-.24-.16-.05-.3 1.25-.87 3.31-.6 3.54-.33.24.3-.06 2.36-1.23 3.34-.19.15-.36.07-.28-.11.27-.68.86-2.16.59-2.5Z" transform="matrix(1.5 0 0 1.5 540 108)" id="mdi-aws" fill="#fff"/><path d="m12 2 10 6c0 4-2 6-6 7l-3-5-4-4 3-4M4.11 19.84l-1.99-1.51L9.19 9 11 10.81l-6.89 9.03Z" transform="matrix(1.5 0 0 1.5 576 108)" id="mdi-axe" fill="#555"/><path d="m12 2 10 6c0 4-2 6-6 7l-3-5-4-4 3-4M4.11 19.84l-1.99-1.51L9.19 9 11 10.81l-6.89 9.03Z" transform="matrix(1.5 0 0 1.5 612 108)" id="mdi-axe" fill="#fff"/><path d="M21.47 12.43c-2.12 2.12-5.65 1.41-5.65 1.41V9.6L3.41 22 2 20.59 14.4 8.18h-4.24s-.71-3.53 1.41-5.65c2.12-2.124 5.66-1.42 5.66-1.42v4.25l.71-.71 1.41 1.41-.71.71h4.25s.7 3.54-1.42 5.66Z" transform="matrix(1.5 0 0 1.5 648 108)" id="mdi-axe-battle" fill="#555"/><path d="M21.47 12.43c-2.12 2.12-5.65 1.41-5.65 1.41V9.6L3.41 22 2 20.59 14.4 8.18h-4.24s-.71-3.53 1.41-5.65c2.12-2.124 5.66-1.42 5.66-1.42v4.25l.71-.71 1.41 1.41-.71.71h4.25s.7 3.54-1.42 5.66Z" transform="matrix(1.5 0 0 1.5 684 108)" id="mdi-axe-battle" fill="#fff"/><path d="m2.61 21-1-1.73L11 13.85V3h2v10.85l9.39 5.42-1 1.73L12 15.58 2.61 21Z" transform="matrix(1.5 0 0 1.5 0 144)" id="mdi-axis" fill="#555"/><path d="m2.61 21-1-1.73L11 13.85V3h2v10.85l9.39 5.42-1 1.73L12 15.58 2.61 21Z" transform="matrix(1.5 0 0 1.5 36 144)" id="mdi-axis" fill="#fff"/><path d="m12 2 4 4h-3v7.85l6.53 3.76L21 15.03l1.5 5.47-5.5 1.46 1.53-2.61L12 15.58l-6.53 3.77L7 21.96 1.5 20.5 3 15.03l1.47 2.58L11 13.85V6H8l4-4Z" transform="matrix(1.5 0 0 1.5 72 144)" id="mdi-axis-arrow" fill="#555"/><path d="m12 2 4 4h-3v7.85l6.53 3.76L21 15.03l1.5 5.47-5.5 1.46 1.53-2.61L12 15.58l-6.53 3.77L7 21.96 1.5 20.5 3 15.03l1.47 2.58L11 13.85V6H8l4-4Z" transform="matrix(1.5 0 0 1.5 108 144)" id="mdi-axis-arrow" fill="#fff"/><path d="m12 2 4 4h-3v7.85l6.53 3.76L21 15.03l1.5 5.47-5.5 1.46 1.53-2.61L12 15.58l-6.53 3.77L7 21.96 1.5 20.5 3 15.03l1.47 2.58L11 13.85V6H8l4-4m9 3h-2V3h2v2m1 5v2h-4v-2h1V8h-1V6h3v4h1Z" transform="matrix(1.5 0 0 1.5 144 144)" id="mdi-axis-arrow-info" fill="#555"/><path d="m12 2 4 4h-3v7.85l6.53 3.76L21 15.03l1.5 5.47-5.5 1.46 1.53-2.61L12 15.58l-6.53 3.77L7 21.96 1.5 20.5 3 15.03l1.47 2.58L11 13.85V6H8l4-4m9 3h-2V3h2v2m1 5v2h-4v-2h1V8h-1V6h3v4h1Z" transform="matrix(1.5 0 0 1.5 180 144)" id="mdi-axis-arrow-info" fill="#fff"/><path d="M21.8 5c.6 0 1.2.6 1.2 1.3v3.5c0 .6-.6 1.2-1.3 1.2h-5.5c-.6 0-1.2-.6-1.2-1.3V6.2c0-.6.6-1.2 1.2-1.2V3.5C16.2 2.1 17.6 1 19 1s2.8 1.1 2.8 2.5V5m-1.3 0V3.5c0-.8-.7-1.3-1.5-1.3s-1.5.5-1.5 1.3V5h3M1.74 19.25l1.47-5.46 1.47 2.55L9 13.85V6H6l4-4 4 4h-3v7.85l7.03 4.01 1.47-2.58 1.5 5.46-5.5 1.47 1.53-2.61L10 15.58l-4.32 2.49 1.53 2.64-5.47-1.46Z" transform="matrix(1.5 0 0 1.5 216 144)" id="mdi-axis-arrow-lock" fill="#555"/><path d="M21.8 5c.6 0 1.2.6 1.2 1.3v3.5c0 .6-.6 1.2-1.3 1.2h-5.5c-.6 0-1.2-.6-1.2-1.3V6.2c0-.6.6-1.2 1.2-1.2V3.5C16.2 2.1 17.6 1 19 1s2.8 1.1 2.8 2.5V5m-1.3 0V3.5c0-.8-.7-1.3-1.5-1.3s-1.5.5-1.5 1.3V5h3M1.74 19.25l1.47-5.46 1.47 2.55L9 13.85V6H6l4-4 4 4h-3v7.85l7.03 4.01 1.47-2.58 1.5 5.46-5.5 1.47 1.53-2.61L10 15.58l-4.32 2.49 1.53 2.64-5.47-1.46Z" transform="matrix(1.5 0 0 1.5 252 144)" id="mdi-axis-arrow-lock" fill="#fff"/><path d="M21.8 5c.6 0 1.2.6 1.2 1.3v3.5c0 .6-.6 1.2-1.3 1.2h-5.5c-.6 0-1.2-.6-1.2-1.3V6.2c0-.6.6-1.2 1.2-1.2V3.5C16.2 2.1 17.6 1 19 1s2.8 1.1 2.8 2.5V5m-1.3 0V3.5c0-.8-.7-1.3-1.5-1.3s-1.5.5-1.5 1.3V5h3M11 13.82l9.39 5.43-1 1.75L10 15.56 3.17 19.5l-1-1.73L9 13.82V3h2v10.82Z" transform="matrix(1.5 0 0 1.5 288 144)" id="mdi-axis-lock" fill="#555"/><path d="M21.8 5c.6 0 1.2.6 1.2 1.3v3.5c0 .6-.6 1.2-1.3 1.2h-5.5c-.6 0-1.2-.6-1.2-1.3V6.2c0-.6.6-1.2 1.2-1.2V3.5C16.2 2.1 17.6 1 19 1s2.8 1.1 2.8 2.5V5m-1.3 0V3.5c0-.8-.7-1.3-1.5-1.3s-1.5.5-1.5 1.3V5h3M11 13.82l9.39 5.43-1 1.75L10 15.56 3.17 19.5l-1-1.73L9 13.82V3h2v10.82Z" transform="matrix(1.5 0 0 1.5 324 144)" id="mdi-axis-lock" fill="#fff"/><path d="M1.5 20.5 3 15.03l1.46 2.57L11 13.82V3h2v10.82l9.39 5.43-1 1.75L12 15.56l-6.54 3.77L7 21.96 1.5 20.5Z" transform="matrix(1.5 0 0 1.5 360 144)" id="mdi-axis-x-arrow" fill="#555"/><path d="M1.5 20.5 3 15.03l1.46 2.57L11 13.82V3h2v10.82l9.39 5.43-1 1.75L12 15.56l-6.54 3.77L7 21.96 1.5 20.5Z" transform="matrix(1.5 0 0 1.5 396 144)" id="mdi-axis-x-arrow" fill="#fff"/><path d="M21.8 5c.6 0 1.2.6 1.2 1.3v3.5c0 .6-.6 1.2-1.3 1.2h-5.5c-.6 0-1.2-.6-1.2-1.3V6.2c0-.6.6-1.2 1.2-1.2V3.5C16.2 2.1 17.6 1 19 1s2.8 1.1 2.8 2.5V5m-1.3 0V3.5c0-.8-.7-1.3-1.5-1.3-.69 0-1.31.38-1.46 1-.04.09-.04.19-.04.3V5h3M1.74 19.25l1.47-5.46 1.46 2.53L9 13.82V3h2v10.82l9.39 5.43-1 1.75L10 15.56l-4.33 2.5 1.54 2.65-5.47-1.46Z" transform="matrix(1.5 0 0 1.5 432 144)" id="mdi-axis-x-arrow-lock" fill="#555"/><path d="M21.8 5c.6 0 1.2.6 1.2 1.3v3.5c0 .6-.6 1.2-1.3 1.2h-5.5c-.6 0-1.2-.6-1.2-1.3V6.2c0-.6.6-1.2 1.2-1.2V3.5C16.2 2.1 17.6 1 19 1s2.8 1.1 2.8 2.5V5m-1.3 0V3.5c0-.8-.7-1.3-1.5-1.3-.69 0-1.31.38-1.46 1-.04.09-.04.19-.04.3V5h3M1.74 19.25l1.47-5.46 1.46 2.53L9 13.82V3h2v10.82l9.39 5.43-1 1.75L10 15.56l-4.33 2.5 1.54 2.65-5.47-1.46Z" transform="matrix(1.5 0 0 1.5 468 144)" id="mdi-axis-x-arrow-lock" fill="#fff"/><path d="M12 10h2.91C14.57 6.55 13.4 4 12 4c-1.58 0-2.88 3.27-3 7.42l-2 1.15V12C7 6.5 9.24 2 12 2c2.42 0 4.44 3.44 4.9 8H20l-4 4-4-4m0 12c-1.88 0-3.53-2.08-4.38-5.16l1.75-1.01C9.87 18.31 10.86 20 12 20c1.27 0 2.36-2.11 2.79-5.08l1.21 1.2.7-.7C16 19.26 14.16 22 12 22m-9.89-3.13-1-1.74-.05-.07 10.06-5.81 1.6 1.59-10.57 6.1-.04-.07M21.89 5.13l1 1.74L19.2 9h-1.43l-.27-1.34 4.39-2.53Z" transform="matrix(1.5 0 0 1.5 504 144)" id="mdi-axis-x-rotate-clockwise" fill="#555"/><path d="M12 10h2.91C14.57 6.55 13.4 4 12 4c-1.58 0-2.88 3.27-3 7.42l-2 1.15V12C7 6.5 9.24 2 12 2c2.42 0 4.44 3.44 4.9 8H20l-4 4-4-4m0 12c-1.88 0-3.53-2.08-4.38-5.16l1.75-1.01C9.87 18.31 10.86 20 12 20c1.27 0 2.36-2.11 2.79-5.08l1.21 1.2.7-.7C16 19.26 14.16 22 12 22m-9.89-3.13-1-1.74-.05-.07 10.06-5.81 1.6 1.59-10.57 6.1-.04-.07M21.89 5.13l1 1.74L19.2 9h-1.43l-.27-1.34 4.39-2.53Z" transform="matrix(1.5 0 0 1.5 540 144)" id="mdi-axis-x-rotate-clockwise" fill="#fff"/><path d="m12 14 4-4 4 4h-3.1c-.46 4.56-2.48 8-4.9 8-1.88 0-3.53-2.08-4.38-5.16l1.75-1.01C9.87 18.31 10.86 20 12 20c1.4 0 2.57-2.55 2.91-6H12M1.11 17.13l12.78-7.38.07.79L10.5 14h.04l-8.43 4.87-1-1.74m20.78-12 1 1.74-5.01 2.89c-.09-.73-.21-1.43-.38-2.1l4.39-2.53M12 2c2.3 0 4.23 3.1 4.82 7.32L16 8.5l-1.13 1.13C14.5 6.37 13.35 4 12 4c-1.58 0-2.88 3.27-3 7.42l-2 1.15V12C7 6.5 9.24 2 12 2Z" transform="matrix(1.5 0 0 1.5 576 144)" id="mdi-axis-x-rotate-counterclockwise" fill="#555"/><path d="m12 14 4-4 4 4h-3.1c-.46 4.56-2.48 8-4.9 8-1.88 0-3.53-2.08-4.38-5.16l1.75-1.01C9.87 18.31 10.86 20 12 20c1.4 0 2.57-2.55 2.91-6H12M1.11 17.13l12.78-7.38.07.79L10.5 14h.04l-8.43 4.87-1-1.74m20.78-12 1 1.74-5.01 2.89c-.09-.73-.21-1.43-.38-2.1l4.39-2.53M12 2c2.3 0 4.23 3.1 4.82 7.32L16 8.5l-1.13 1.13C14.5 6.37 13.35 4 12 4c-1.58 0-2.88 3.27-3 7.42l-2 1.15V12C7 6.5 9.24 2 12 2Z" transform="matrix(1.5 0 0 1.5 612 144)" id="mdi-axis-x-rotate-counterclockwise" fill="#fff"/><path d="M21.8 5c.6 0 1.2.6 1.2 1.3v3.5c0 .6-.6 1.2-1.3 1.2h-5.5c-.6 0-1.2-.6-1.2-1.3V6.2c0-.6.6-1.2 1.2-1.2V3.5C16.2 2.1 17.6 1 19 1s2.8 1.1 2.8 2.5V5m-1.3 0V3.5c0-.8-.7-1.3-1.5-1.3s-1.5.5-1.5 1.3V5h3M1.74 19.25l1.47-5.46 1.47 2.55L9 13.85V3h2v10.85l6.53 3.76L19 15.03l1.5 5.47-5.5 1.46 1.53-2.61L10 15.58l-4.32 2.49 1.53 2.64-5.47-1.46Z" transform="matrix(1.5 0 0 1.5 648 144)" id="mdi-axis-x-y-arrow-lock" fill="#555"/><path d="M21.8 5c.6 0 1.2.6 1.2 1.3v3.5c0 .6-.6 1.2-1.3 1.2h-5.5c-.6 0-1.2-.6-1.2-1.3V6.2c0-.6.6-1.2 1.2-1.2V3.5C16.2 2.1 17.6 1 19 1s2.8 1.1 2.8 2.5V5m-1.3 0V3.5c0-.8-.7-1.3-1.5-1.3s-1.5.5-1.5 1.3V5h3M1.74 19.25l1.47-5.46 1.47 2.55L9 13.85V3h2v10.85l6.53 3.76L19 15.03l1.5 5.47-5.5 1.46 1.53-2.61L10 15.58l-4.32 2.49 1.53 2.64-5.47-1.46Z" transform="matrix(1.5 0 0 1.5 684 144)" id="mdi-axis-x-y-arrow-lock" fill="#fff"/><path d="M22.5 20.5 17 21.96l1.53-2.61L12 15.58 2.61 21l-1-1.73L11 13.85V3h2v10.85l6.53 3.76L21 15.03l1.5 5.47Z" transform="matrix(1.5 0 0 1.5 0 180)" id="mdi-axis-y-arrow" fill="#555"/><path d="M22.5 20.5 17 21.96l1.53-2.61L12 15.58 2.61 21l-1-1.73L11 13.85V3h2v10.85l6.53 3.76L21 15.03l1.5 5.47Z" transform="matrix(1.5 0 0 1.5 36 180)" id="mdi-axis-y-arrow" fill="#fff"/><path d="m11 13.82 7 4.06 1.5-2.6 1.5 5.46-5.5 1.47 1.5-2.6-7-4.05-6.83 3.94-1-1.73L9 13.82V3h2v10.82M21.8 5c.6 0 1.2.6 1.2 1.3v3.5c0 .6-.6 1.2-1.3 1.2h-5.5c-.6 0-1.2-.6-1.2-1.3V6.2c0-.6.6-1.2 1.2-1.2V3.5C16.2 2.1 17.6 1 19 1s2.8 1.1 2.8 2.5V5m-1.3 0V3.5c0-.8-.7-1.3-1.5-1.3s-1.5.5-1.5 1.3V5h3Z" transform="matrix(1.5 0 0 1.5 72 180)" id="mdi-axis-y-arrow-lock" fill="#555"/><path d="m11 13.82 7 4.06 1.5-2.6 1.5 5.46-5.5 1.47 1.5-2.6-7-4.05-6.83 3.94-1-1.73L9 13.82V3h2v10.82M21.8 5c.6 0 1.2.6 1.2 1.3v3.5c0 .6-.6 1.2-1.3 1.2h-5.5c-.6 0-1.2-.6-1.2-1.3V6.2c0-.6.6-1.2 1.2-1.2V3.5C16.2 2.1 17.6 1 19 1s2.8 1.1 2.8 2.5V5m-1.3 0V3.5c0-.8-.7-1.3-1.5-1.3s-1.5.5-1.5 1.3V5h3Z" transform="matrix(1.5 0 0 1.5 108 180)" id="mdi-axis-y-arrow-lock" fill="#fff"/><path d="m12 10 4 4 4-4h-3.1c-.46-4.56-2.48-8-4.9-8-1.88 0-3.53 2.08-4.38 5.16l1.75 1.01C9.87 5.69 10.86 4 12 4c1.4 0 2.57 2.55 2.91 6H12M1.11 6.87l12.78 7.38.07-.79L10.5 10h.04L2.11 5.13l-1 1.74m20.78 12 1-1.74-5.01-2.89c-.09.73-.21 1.43-.38 2.1l4.39 2.53M12 22c2.3 0 4.23-3.1 4.82-7.32l-.82.82-1.13-1.13C14.5 17.63 13.35 20 12 20c-1.58 0-2.88-3.27-3-7.42l-2-1.15V12c0 5.5 2.24 10 5 10Z" transform="matrix(1.5 0 0 1.5 144 180)" id="mdi-axis-y-rotate-clockwise" fill="#555"/><path d="m12 10 4 4 4-4h-3.1c-.46-4.56-2.48-8-4.9-8-1.88 0-3.53 2.08-4.38 5.16l1.75 1.01C9.87 5.69 10.86 4 12 4c1.4 0 2.57 2.55 2.91 6H12M1.11 6.87l12.78 7.38.07-.79L10.5 10h.04L2.11 5.13l-1 1.74m20.78 12 1-1.74-5.01-2.89c-.09.73-.21 1.43-.38 2.1l4.39 2.53M12 22c2.3 0 4.23-3.1 4.82-7.32l-.82.82-1.13-1.13C14.5 17.63 13.35 20 12 20c-1.58 0-2.88-3.27-3-7.42l-2-1.15V12c0 5.5 2.24 10 5 10Z" transform="matrix(1.5 0 0 1.5 180 180)" id="mdi-axis-y-rotate-clockwise" fill="#fff"/><path d="M12 14h2.91c-.34 3.45-1.51 6-2.91 6-1.58 0-2.88-3.27-3-7.42l-2-1.15V12c0 5.5 2.24 10 5 10 2.42 0 4.44-3.44 4.9-8H20l-4-4-4 4m0-12c-1.88 0-3.53 2.08-4.38 5.16l1.75 1.01C9.87 5.69 10.86 4 12 4c1.27 0 2.36 2.11 2.79 5.08L16 7.88l.7.7C16 4.74 14.16 2 12 2M2.11 5.13l-1 1.74-.05.07 10.06 5.81 1.6-1.59-10.57-6.1-.04.07m19.78 13.74 1-1.74L19.2 15h-1.43l-.27 1.34 4.39 2.53Z" transform="matrix(1.5 0 0 1.5 216 180)" id="mdi-axis-y-rotate-counterclockwise" fill="#555"/><path d="M12 14h2.91c-.34 3.45-1.51 6-2.91 6-1.58 0-2.88-3.27-3-7.42l-2-1.15V12c0 5.5 2.24 10 5 10 2.42 0 4.44-3.44 4.9-8H20l-4-4-4 4m0-12c-1.88 0-3.53 2.08-4.38 5.16l1.75 1.01C9.87 5.69 10.86 4 12 4c1.27 0 2.36 2.11 2.79 5.08L16 7.88l.7.7C16 4.74 14.16 2 12 2M2.11 5.13l-1 1.74-.05.07 10.06 5.81 1.6-1.59-10.57-6.1-.04.07m19.78 13.74 1-1.74L19.2 15h-1.43l-.27 1.34 4.39 2.53Z" transform="matrix(1.5 0 0 1.5 252 180)" id="mdi-axis-y-rotate-counterclockwise" fill="#fff"/><path d="m12 2 4 4h-3v7.82l9.39 5.43-1 1.75L12 15.56 2.61 21l-1-1.75L11 13.82V6H8l4-4Z" transform="matrix(1.5 0 0 1.5 288 180)" id="mdi-axis-z-arrow" fill="#555"/><path d="m12 2 4 4h-3v7.82l9.39 5.43-1 1.75L12 15.56 2.61 21l-1-1.75L11 13.82V6H8l4-4Z" transform="matrix(1.5 0 0 1.5 324 180)" id="mdi-axis-z-arrow" fill="#fff"/><path d="M21.8 5c.6 0 1.2.6 1.2 1.3v3.5c0 .6-.6 1.2-1.3 1.2h-5.5c-.6 0-1.2-.6-1.2-1.3V6.2c0-.6.6-1.2 1.2-1.2V3.5C16.2 2.1 17.6 1 19 1s2.8 1.1 2.8 2.5V5m-1.3 0V3.5c0-.8-.7-1.3-1.5-1.3s-1.5.5-1.5 1.3V5h3M10 2l4 4h-3v7.82l9.39 5.43-1 1.75L10 15.56 3.17 19.5l-1-1.73L9 13.82V6H6l4-4Z" transform="matrix(1.5 0 0 1.5 360 180)" id="mdi-axis-z-arrow-lock" fill="#555"/><path d="M21.8 5c.6 0 1.2.6 1.2 1.3v3.5c0 .6-.6 1.2-1.3 1.2h-5.5c-.6 0-1.2-.6-1.2-1.3V6.2c0-.6.6-1.2 1.2-1.2V3.5C16.2 2.1 17.6 1 19 1s2.8 1.1 2.8 2.5V5m-1.3 0V3.5c0-.8-.7-1.3-1.5-1.3s-1.5.5-1.5 1.3V5h3M10 2l4 4h-3v7.82l9.39 5.43-1 1.75L10 15.56 3.17 19.5l-1-1.73L9 13.82V6H6l4-4Z" transform="matrix(1.5 0 0 1.5 396 180)" id="mdi-axis-z-arrow-lock" fill="#fff"/><path d="m14 12-4 4 4 4v-3.1c4.56-.46 8-2.48 8-4.9 0-2.42-3.44-4.44-8-4.9v1.99c3.45.34 6 1.51 6 2.91 0 1.4-2.55 2.57-6 2.91V12M4 12c0-1.4 2.55-2.57 6-2.91V7.1c-4.56.46-8 2.48-8 4.9 0 2.16 2.74 4 6.58 4.7l-.7-.7 1.2-1.21C6.11 14.36 4 13.27 4 12m9-10h-2v11l2-2V2m0 20v-1l-2-2v3h2Z" transform="matrix(1.5 0 0 1.5 432 180)" id="mdi-axis-z-rotate-clockwise" fill="#555"/><path d="m14 12-4 4 4 4v-3.1c4.56-.46 8-2.48 8-4.9 0-2.42-3.44-4.44-8-4.9v1.99c3.45.34 6 1.51 6 2.91 0 1.4-2.55 2.57-6 2.91V12M4 12c0-1.4 2.55-2.57 6-2.91V7.1c-4.56.46-8 2.48-8 4.9 0 2.16 2.74 4 6.58 4.7l-.7-.7 1.2-1.21C6.11 14.36 4 13.27 4 12m9-10h-2v11l2-2V2m0 20v-1l-2-2v3h2Z" transform="matrix(1.5 0 0 1.5 468 180)" id="mdi-axis-z-rotate-clockwise" fill="#fff"/><path d="m10 12 4 4-4 4v-3.1c-4.56-.46-8-2.48-8-4.9 0-2.42 3.44-4.44 8-4.9v1.99C6.55 9.43 4 10.6 4 12c0 1.4 2.55 2.57 6 2.91V12m10 0c0-1.4-2.55-2.57-6-2.91V7.1c4.56.46 8 2.48 8 4.9 0 2.16-2.74 4-6.58 4.7l.7-.7-1.2-1.21C17.89 14.36 20 13.27 20 12M11 2h2v11l-2-2V2m0 20v-1l2-2v3h-2Z" transform="matrix(1.5 0 0 1.5 504 180)" id="mdi-axis-z-rotate-counterclockwise" fill="#555"/><path d="m10 12 4 4-4 4v-3.1c-4.56-.46-8-2.48-8-4.9 0-2.42 3.44-4.44 8-4.9v1.99C6.55 9.43 4 10.6 4 12c0 1.4 2.55 2.57 6 2.91V12m10 0c0-1.4-2.55-2.57-6-2.91V7.1c4.56.46 8 2.48 8 4.9 0 2.16-2.74 4-6.58 4.7l.7-.7-1.2-1.21C17.89 14.36 20 13.27 20 12M11 2h2v11l-2-2V2m0 20v-1l2-2v3h-2Z" transform="matrix(1.5 0 0 1.5 540 180)" id="mdi-axis-z-rotate-counterclockwise" fill="#fff"/><path d="M15.14 2c-1.34.12-3.1.59-5.27 1.43-.59.44-1.27.87-2.03 1.29v.13c.06 0 .12-.04.2-.08.09-.01.15.02.15.11l.13-.08.07-.01.01.07c.01.06-.47.43-1.4 1.1l.06.13H7l-.16-.05c0 .05-.06.07-.2.08l.01.07.16.18c-.06 0-.13-.01-.21-.05-.31.03-.6.26-.91.68l.08.12c.26-.24.41-.36.45-.36l.02.19c-.04 0-.12.05-.2.08l.16.24c.3-.34.66-.63 1.04-.86.19.05.29.09.29.17l.14-.01c1.02-.76 2.04-1.3 3.04-1.64l.01.13c-.19.28-.32.44-.39.44.01.09.05.17.1.24.02.18-.43 1.32-1.36 3.45-2.12 4.94-3.88 8.59-5.3 10.97 0 .04.03.11.08.19.35-.09.57-.17.65-.25l.1-.01.01.13.13-.01.14-.08c0 .05.05.06.12.05l.03.13c0 .14-.07.34-.23.61-.15.16-.3.5-.46 1.02V22h.13c.57-.65 1.03-1.28 1.31-1.89 1.66-.49 2.93-.96 3.81-1.44.88-.07 1.56-.3 2.02-.67l-.01-.09-.33.09h-.08l-.01-.05c.65-.1 1.1-.25 1.32-.45 1.29-.96 2.24-1.65 2.89-2.06 2-1.47 2.94-2.89 2.83-4.23-.01-.14-.46-.71-1.32-1.65-.02-.18.29-.44.9-.79l1.73-1.53c.39-.5.62-1.3.7-2.41l-.03-.26c-.06-.78-.62-1.41-1.7-1.89-.62-.43-1.74-.65-3.36-.68m2.1.87c1.29.05 1.95.27 1.99.68l-.05.13-1.94-.81M16 3.96c.89-.01 1.35.22 1.4.72l.1-.01v-.33l.14-.01c.36.17.52.41.54.67.02.2-.08.42-.29.69-.09.01-.14-.05-.15-.19h-.14l-.04.41c-.56.87-1 1.32-1.26 1.35-.24.32-.39.49-.45.49-.18.22-.68.6-1.5 1.12-.27.03-1.28.41-3.01 1.17-.09-.04-.18-.04-.28-.04l-.01-.12c-.02-.26.09-.57.34-.96.11-.71.28-1.12.44-1.22l1.45-3.26c-.01-.2.29-.35.93-.44l.21-.04.02.19c.62-.1 1.01-.15 1.16-.15.14-.03.28-.04.4-.04m3 .33h.04c.12.01.24.21.37.62l.01.12c-.07.01-.2-.2-.39-.62L19 4.29m-8.18 2.07h.06l.02.19c-.06.01-.15.1-.25.28l-.01-.13c.12-.15.18-.27.18-.34m-4.15.1.01.04c-.05 0-.12.06-.18.1l-.09.01-.02-.11.28-.04m3.57 1.26.02.28h-.07l-.03-.27.08-.01m-.17.47c-.02.22-.07.31-.18.34l-.07.01c.08-.15.12-.25.11-.33l.14-.02m-.29.68.01.06-.12.21-.13.01-.01-.06c.13-.01.19-.09.18-.21l.07-.01m-.28.63-.05.31h-.07l-.02-.31h.14m7.07.22.28.17c.01.11-.03.14-.12.15a.585.585 0 0 0-.29-.11l-.01-.2.14-.01m-5.57.74.03.12-.27.03-.01-.11.25-.04m4.5.45c.18.09.28.18.29.25l.01.06c-.19.02-.35-.08-.51-.29l.21-.02m2.16.21c.15.06.22.13.23.19l.04.51c-.06.14-.12.21-.19.21l-.08-.91m-3.5.06c.7-.01 1.24.15 1.6.5l.03.26c-.29.91-.66 1.44-1.04 1.6L13 14.93c-1.3.86-2 1.28-2.1 1.29-2.07 1.14-3.36 1.73-3.86 1.78h-.08c.07-.24.99-2.13 2.77-5.67.77-.07 2.03-.44 3.71-1.1l.41-.04c.11 0 .21-.01.31-.01m-2.54.41.01.06-.28.02-.01-.06.28-.02m-4.36 4.22c-.09.45-.18.69-.26.69l-.03-.07c-.02-.23.08-.43.29-.62m5.92.28.01.12c.01.06-.19.22-.59.51-1.16.57-1.84.96-2.04 1.16-1.26.44-1.88.71-1.87.81-1.12.45-1.85.77-2.19.97-.09.01-.21-.03-.37-.1-.01-.22.08-.41.31-.56.19 0 .38 0 .56.09.21-.09.57-.22 1.08-.35l-.01-.13-.41.04c.05-.07.45-.25 1.2-.56l.21-.02.01.06c-.35.03-.55.14-.58.33 0 .07.03.12.12.11.25-.18.38-.27.38-.3.5-.09 1.9-.83 4.18-2.18m-6.32.6.01.06c.01.09-.04.14-.13.15v-.06c-.01-.08.03-.13.12-.15m3.14.81c.07-.03.12 0 .12.08-.16.02-.47.15-.93.42h-.07l-.01-.13c.33-.03.62-.16.86-.37H10m-3.05 1 .01.08c-.06 0-.12.03-.21.08l-.13.01c-.01-.06.03-.12.12-.14l.21-.03m-1.6.8.15.06c-.06.4-.17.6-.37.64a.745.745 0 0 0-.43-.11l-.02-.19c-.01-.08.04-.13.14-.15.08-.01.13.05.14.18.24-.29.37-.43.39-.43Z" transform="matrix(1.5 0 0 1.5 576 180)" id="mdi-babel" fill="#555"/><path d="M15.14 2c-1.34.12-3.1.59-5.27 1.43-.59.44-1.27.87-2.03 1.29v.13c.06 0 .12-.04.2-.08.09-.01.15.02.15.11l.13-.08.07-.01.01.07c.01.06-.47.43-1.4 1.1l.06.13H7l-.16-.05c0 .05-.06.07-.2.08l.01.07.16.18c-.06 0-.13-.01-.21-.05-.31.03-.6.26-.91.68l.08.12c.26-.24.41-.36.45-.36l.02.19c-.04 0-.12.05-.2.08l.16.24c.3-.34.66-.63 1.04-.86.19.05.29.09.29.17l.14-.01c1.02-.76 2.04-1.3 3.04-1.64l.01.13c-.19.28-.32.44-.39.44.01.09.05.17.1.24.02.18-.43 1.32-1.36 3.45-2.12 4.94-3.88 8.59-5.3 10.97 0 .04.03.11.08.19.35-.09.57-.17.65-.25l.1-.01.01.13.13-.01.14-.08c0 .05.05.06.12.05l.03.13c0 .14-.07.34-.23.61-.15.16-.3.5-.46 1.02V22h.13c.57-.65 1.03-1.28 1.31-1.89 1.66-.49 2.93-.96 3.81-1.44.88-.07 1.56-.3 2.02-.67l-.01-.09-.33.09h-.08l-.01-.05c.65-.1 1.1-.25 1.32-.45 1.29-.96 2.24-1.65 2.89-2.06 2-1.47 2.94-2.89 2.83-4.23-.01-.14-.46-.71-1.32-1.65-.02-.18.29-.44.9-.79l1.73-1.53c.39-.5.62-1.3.7-2.41l-.03-.26c-.06-.78-.62-1.41-1.7-1.89-.62-.43-1.74-.65-3.36-.68m2.1.87c1.29.05 1.95.27 1.99.68l-.05.13-1.94-.81M16 3.96c.89-.01 1.35.22 1.4.72l.1-.01v-.33l.14-.01c.36.17.52.41.54.67.02.2-.08.42-.29.69-.09.01-.14-.05-.15-.19h-.14l-.04.41c-.56.87-1 1.32-1.26 1.35-.24.32-.39.49-.45.49-.18.22-.68.6-1.5 1.12-.27.03-1.28.41-3.01 1.17-.09-.04-.18-.04-.28-.04l-.01-.12c-.02-.26.09-.57.34-.96.11-.71.28-1.12.44-1.22l1.45-3.26c-.01-.2.29-.35.93-.44l.21-.04.02.19c.62-.1 1.01-.15 1.16-.15.14-.03.28-.04.4-.04m3 .33h.04c.12.01.24.21.37.62l.01.12c-.07.01-.2-.2-.39-.62L19 4.29m-8.18 2.07h.06l.02.19c-.06.01-.15.1-.25.28l-.01-.13c.12-.15.18-.27.18-.34m-4.15.1.01.04c-.05 0-.12.06-.18.1l-.09.01-.02-.11.28-.04m3.57 1.26.02.28h-.07l-.03-.27.08-.01m-.17.47c-.02.22-.07.31-.18.34l-.07.01c.08-.15.12-.25.11-.33l.14-.02m-.29.68.01.06-.12.21-.13.01-.01-.06c.13-.01.19-.09.18-.21l.07-.01m-.28.63-.05.31h-.07l-.02-.31h.14m7.07.22.28.17c.01.11-.03.14-.12.15a.585.585 0 0 0-.29-.11l-.01-.2.14-.01m-5.57.74.03.12-.27.03-.01-.11.25-.04m4.5.45c.18.09.28.18.29.25l.01.06c-.19.02-.35-.08-.51-.29l.21-.02m2.16.21c.15.06.22.13.23.19l.04.51c-.06.14-.12.21-.19.21l-.08-.91m-3.5.06c.7-.01 1.24.15 1.6.5l.03.26c-.29.91-.66 1.44-1.04 1.6L13 14.93c-1.3.86-2 1.28-2.1 1.29-2.07 1.14-3.36 1.73-3.86 1.78h-.08c.07-.24.99-2.13 2.77-5.67.77-.07 2.03-.44 3.71-1.1l.41-.04c.11 0 .21-.01.31-.01m-2.54.41.01.06-.28.02-.01-.06.28-.02m-4.36 4.22c-.09.45-.18.69-.26.69l-.03-.07c-.02-.23.08-.43.29-.62m5.92.28.01.12c.01.06-.19.22-.59.51-1.16.57-1.84.96-2.04 1.16-1.26.44-1.88.71-1.87.81-1.12.45-1.85.77-2.19.97-.09.01-.21-.03-.37-.1-.01-.22.08-.41.31-.56.19 0 .38 0 .56.09.21-.09.57-.22 1.08-.35l-.01-.13-.41.04c.05-.07.45-.25 1.2-.56l.21-.02.01.06c-.35.03-.55.14-.58.33 0 .07.03.12.12.11.25-.18.38-.27.38-.3.5-.09 1.9-.83 4.18-2.18m-6.32.6.01.06c.01.09-.04.14-.13.15v-.06c-.01-.08.03-.13.12-.15m3.14.81c.07-.03.12 0 .12.08-.16.02-.47.15-.93.42h-.07l-.01-.13c.33-.03.62-.16.86-.37H10m-3.05 1 .01.08c-.06 0-.12.03-.21.08l-.13.01c-.01-.06.03-.12.12-.14l.21-.03m-1.6.8.15.06c-.06.4-.17.6-.37.64a.745.745 0 0 0-.43-.11l-.02-.19c-.01-.08.04-.13.14-.15.08-.01.13.05.14.18.24-.29.37-.43.39-.43Z" transform="matrix(1.5 0 0 1.5 612 180)" id="mdi-babel" fill="#fff"/><path d="M18.5 4A2.5 2.5 0 0 1 21 6.5 2.5 2.5 0 0 1 18.5 9 2.5 2.5 0 0 1 16 6.5 2.5 2.5 0 0 1 18.5 4m-14 16A1.5 1.5 0 0 1 3 18.5 1.5 1.5 0 0 1 4.5 17h7a1.5 1.5 0 0 1 1.5 1.5 1.5 1.5 0 0 1-1.5 1.5h-7m11.59-1-1.4-4H11l-4.25-4.25S9 8.25 12.5 8.25c3 0 3.35 1 3.56 1.62L18.92 18c.28.78-.14 1.64-.92 1.92-.78.27-1.64-.14-1.91-.92Z" transform="matrix(1.5 0 0 1.5 648 180)" id="mdi-baby" fill="#555"/><path d="M18.5 4A2.5 2.5 0 0 1 21 6.5 2.5 2.5 0 0 1 18.5 9 2.5 2.5 0 0 1 16 6.5 2.5 2.5 0 0 1 18.5 4m-14 16A1.5 1.5 0 0 1 3 18.5 1.5 1.5 0 0 1 4.5 17h7a1.5 1.5 0 0 1 1.5 1.5 1.5 1.5 0 0 1-1.5 1.5h-7m11.59-1-1.4-4H11l-4.25-4.25S9 8.25 12.5 8.25c3 0 3.35 1 3.56 1.62L18.92 18c.28.78-.14 1.64-.92 1.92-.78.27-1.64-.14-1.91-.92Z" transform="matrix(1.5 0 0 1.5 684 180)" id="mdi-baby" fill="#fff"/><path d="m11.28 2.8-.5.5a5.5 5.5 0 0 0-4.37-.43l-.08-.07A2.5 2.5 0 0 0 2.8 6.33l.07.08a5.5 5.5 0 0 0 .43 4.37l-.5.5a1.5 1.5 0 0 0 0 2.12l1.41 1.42a1.5 1.5 0 0 0 2.12 0l.35-.36 7.08 7.07a1.5 1.5 0 0 0 2.12 0l5.65-5.65a1.5 1.5 0 0 0 0-2.12l-7.07-7.08.36-.35a1.5 1.5 0 0 0 0-2.12L13.4 2.8a1.5 1.5 0 0 0-2.12 0m2.48 2.47-8.49 8.49-1.41-1.42 8.48-8.48m2.48 7.77-3.19 3.19-1.06-1.06 3.19-3.19m3.18 3.19-3.18 3.18-1.07-1.06 3.19-3.19Z" transform="matrix(1.5 0 0 1.5 0 216)" id="mdi-baby-bottle" fill="#555"/><path d="m11.28 2.8-.5.5a5.5 5.5 0 0 0-4.37-.43l-.08-.07A2.5 2.5 0 0 0 2.8 6.33l.07.08a5.5 5.5 0 0 0 .43 4.37l-.5.5a1.5 1.5 0 0 0 0 2.12l1.41 1.42a1.5 1.5 0 0 0 2.12 0l.35-.36 7.08 7.07a1.5 1.5 0 0 0 2.12 0l5.65-5.65a1.5 1.5 0 0 0 0-2.12l-7.07-7.08.36-.35a1.5 1.5 0 0 0 0-2.12L13.4 2.8a1.5 1.5 0 0 0-2.12 0m2.48 2.47-8.49 8.49-1.41-1.42 8.48-8.48m2.48 7.77-3.19 3.19-1.06-1.06 3.19-3.19m3.18 3.19-3.18 3.18-1.07-1.06 3.19-3.19Z" transform="matrix(1.5 0 0 1.5 36 216)" id="mdi-baby-bottle" fill="#fff"/><path d="m11.28 2.8-.5.5c-1.34-.75-2.94-.9-4.37-.43l-.08-.07c-.97-.98-2.56-.98-3.53 0s-.98 2.56 0 3.53l.07.08c-.47 1.43-.32 3.03.43 4.37l-.5.5a1.49 1.49 0 0 0 0 2.12l1.41 1.42c.59.58 1.53.58 2.12 0l.35-.36 7.08 7.07c.58.59 1.53.59 2.12 0l5.65-5.65c.59-.59.59-1.54 0-2.13l-7.07-7.07.36-.35c.58-.59.58-1.53 0-2.12L13.4 2.79a1.5 1.5 0 0 0-2.12.01M4.25 7.05c.08-.34.22-.67.41-.98l-.8-.8a.854.854 0 0 1-.23-.37c-.13-.34-.06-.76.23-1.04s.7-.36 1.04-.23c.14.04.26.12.37.23l.8.8c.31-.19.64-.33.98-.41.86-.25 1.78-.19 2.6.17L4.42 9.65c-.36-.82-.42-1.74-.17-2.6m16.22 7.77-5.65 5.65-7.07-7.07 5.65-5.65 7.07 7.07m-6.71-9.55-8.49 8.49-1.41-1.42 8.48-8.48 1.42 1.41m1.06 6.36-3.19 3.19-1.06-1.06 3.19-3.19 1.06 1.06m2.12 2.13-3.18 3.18-1.07-1.06 3.19-3.19 1.06 1.07Z" transform="matrix(1.5 0 0 1.5 72 216)" id="mdi-baby-bottle-outline" fill="#555"/><path d="m11.28 2.8-.5.5c-1.34-.75-2.94-.9-4.37-.43l-.08-.07c-.97-.98-2.56-.98-3.53 0s-.98 2.56 0 3.53l.07.08c-.47 1.43-.32 3.03.43 4.37l-.5.5a1.49 1.49 0 0 0 0 2.12l1.41 1.42c.59.58 1.53.58 2.12 0l.35-.36 7.08 7.07c.58.59 1.53.59 2.12 0l5.65-5.65c.59-.59.59-1.54 0-2.13l-7.07-7.07.36-.35c.58-.59.58-1.53 0-2.12L13.4 2.79a1.5 1.5 0 0 0-2.12.01M4.25 7.05c.08-.34.22-.67.41-.98l-.8-.8a.854.854 0 0 1-.23-.37c-.13-.34-.06-.76.23-1.04s.7-.36 1.04-.23c.14.04.26.12.37.23l.8.8c.31-.19.64-.33.98-.41.86-.25 1.78-.19 2.6.17L4.42 9.65c-.36-.82-.42-1.74-.17-2.6m16.22 7.77-5.65 5.65-7.07-7.07 5.65-5.65 7.07 7.07m-6.71-9.55-8.49 8.49-1.41-1.42 8.48-8.48 1.42 1.41m1.06 6.36-3.19 3.19-1.06-1.06 3.19-3.19 1.06 1.06m2.12 2.13-3.18 3.18-1.07-1.06 3.19-3.19 1.06 1.07Z" transform="matrix(1.5 0 0 1.5 108 216)" id="mdi-baby-bottle-outline" fill="#fff"/><path d="M17 20a2 2 0 0 1-2 2 2 2 0 0 1-2-2 2 2 0 0 1 2-2 2 2 0 0 1 2 2M7 20a2 2 0 0 1-2 2 2 2 0 0 1-2-2 2 2 0 0 1 2-2 2 2 0 0 1 2 2M17.61 3c-.66 0-1.17.2-1.61.5-.68.41-1.12 1.09-1.53 1.57L5.71 15.35C5.16 16 5.62 17 6.47 17H14a2 2 0 0 0 2-2V6.38c.58-.68.93-1.38 1.61-1.38.77 0 1.39.66 1.39 1.5V7h2v-.5C21 4.56 19.5 3 17.61 3m-8.75.09c-1.82.07-3.63.67-5.18 1.81l4.76 4.76 3.88-4.56c.27-.32.59-.72.98-1.1a9.58 9.58 0 0 0-3.65-.91c-.26-.01-.53-.01-.79 0Z" transform="matrix(1.5 0 0 1.5 144 216)" id="mdi-baby-buggy" fill="#555"/><path d="M17 20a2 2 0 0 1-2 2 2 2 0 0 1-2-2 2 2 0 0 1 2-2 2 2 0 0 1 2 2M7 20a2 2 0 0 1-2 2 2 2 0 0 1-2-2 2 2 0 0 1 2-2 2 2 0 0 1 2 2M17.61 3c-.66 0-1.17.2-1.61.5-.68.41-1.12 1.09-1.53 1.57L5.71 15.35C5.16 16 5.62 17 6.47 17H14a2 2 0 0 0 2-2V6.38c.58-.68.93-1.38 1.61-1.38.77 0 1.39.66 1.39 1.5V7h2v-.5C21 4.56 19.5 3 17.61 3m-8.75.09c-1.82.07-3.63.67-5.18 1.81l4.76 4.76 3.88-4.56c.27-.32.59-.72.98-1.1a9.58 9.58 0 0 0-3.65-.91c-.26-.01-.53-.01-.79 0Z" transform="matrix(1.5 0 0 1.5 180 216)" id="mdi-baby-buggy" fill="#fff"/><path d="M13 2v8h8a8 8 0 0 0-8-8m6.32 13.89A7.948 7.948 0 0 0 21 11H6.44L5.5 9H2v2h2.22s1.89 4.07 2.12 4.42C5.24 16 4.5 17.17 4.5 18.5A3.5 3.5 0 0 0 8 22c1.76 0 3.22-1.3 3.46-3h2.08c.24 1.7 1.7 3 3.46 3a3.5 3.5 0 0 0 3.5-3.5c0-1.04-.46-1.97-1.18-2.61M8 20a1.5 1.5 0 0 1-1.5-1.5A1.5 1.5 0 0 1 8 17a1.5 1.5 0 0 1 1.5 1.5A1.5 1.5 0 0 1 8 20m9 0a1.5 1.5 0 0 1-1.5-1.5A1.5 1.5 0 0 1 17 17a1.5 1.5 0 0 1 1.5 1.5A1.5 1.5 0 0 1 17 20Z" transform="matrix(1.5 0 0 1.5 216 216)" id="mdi-baby-carriage" fill="#555"/><path d="M13 2v8h8a8 8 0 0 0-8-8m6.32 13.89A7.948 7.948 0 0 0 21 11H6.44L5.5 9H2v2h2.22s1.89 4.07 2.12 4.42C5.24 16 4.5 17.17 4.5 18.5A3.5 3.5 0 0 0 8 22c1.76 0 3.22-1.3 3.46-3h2.08c.24 1.7 1.7 3 3.46 3a3.5 3.5 0 0 0 3.5-3.5c0-1.04-.46-1.97-1.18-2.61M8 20a1.5 1.5 0 0 1-1.5-1.5A1.5 1.5 0 0 1 8 17a1.5 1.5 0 0 1 1.5 1.5A1.5 1.5 0 0 1 8 20m9 0a1.5 1.5 0 0 1-1.5-1.5A1.5 1.5 0 0 1 17 17a1.5 1.5 0 0 1 1.5 1.5A1.5 1.5 0 0 1 17 20Z" transform="matrix(1.5 0 0 1.5 252 216)" id="mdi-baby-carriage" fill="#fff"/><path d="M22 10c0-4.4-3.6-8-8-8v8h8m-7.8 1H22c0 1.8-.6 3.5-1.7 4.9.7.6 1.1 1.5 1.2 2.4L14.2 11m6.6 11.7 1.3-1.3L2.4 1.7 1.1 3l8 8H7.4l-.9-2H3v2h2.2s1.9 4.1 2.1 4.4c-1 .5-1.7 1.5-1.8 2.6-.3 1.9 1.1 3.7 3 4 1.9.3 3.7-1.1 4-3h2.1c.1.4.2.8.4 1.2.9 1.7 3.1 2.3 4.7 1.4l1.1 1.1m-10.3-4.2c0 .8-.7 1.5-1.5 1.5s-1.5-.7-1.5-1.5S8.2 17 9 17s1.5.7 1.5 1.5m7.6 1.5c-.9 0-1.6-.7-1.6-1.5v-.1l1.6 1.6Z" transform="matrix(1.5 0 0 1.5 288 216)" id="mdi-baby-carriage-off" fill="#555"/><path d="M22 10c0-4.4-3.6-8-8-8v8h8m-7.8 1H22c0 1.8-.6 3.5-1.7 4.9.7.6 1.1 1.5 1.2 2.4L14.2 11m6.6 11.7 1.3-1.3L2.4 1.7 1.1 3l8 8H7.4l-.9-2H3v2h2.2s1.9 4.1 2.1 4.4c-1 .5-1.7 1.5-1.8 2.6-.3 1.9 1.1 3.7 3 4 1.9.3 3.7-1.1 4-3h2.1c.1.4.2.8.4 1.2.9 1.7 3.1 2.3 4.7 1.4l1.1 1.1m-10.3-4.2c0 .8-.7 1.5-1.5 1.5s-1.5-.7-1.5-1.5S8.2 17 9 17s1.5.7 1.5 1.5m7.6 1.5c-.9 0-1.6-.7-1.6-1.5v-.1l1.6 1.6Z" transform="matrix(1.5 0 0 1.5 324 216)" id="mdi-baby-carriage-off" fill="#fff"/><path d="M1 12c0-1.81 1.2-3.34 2.86-3.83A8.974 8.974 0 0 1 12 3a9 9 0 0 1 8.15 5.17C21.8 8.66 23 10.19 23 12s-1.2 3.34-2.85 3.83A9 9 0 0 1 12 21c-3.6 0-6.71-2.11-8.14-5.17A3.99 3.99 0 0 1 1 12m13.5-2.75a1.25 1.25 0 0 0-1.25 1.25 1.25 1.25 0 0 0 1.25 1.25 1.25 1.25 0 0 0 1.25-1.25 1.25 1.25 0 0 0-1.25-1.25m-5 0a1.25 1.25 0 0 0-1.25 1.25 1.25 1.25 0 0 0 1.25 1.25 1.25 1.25 0 0 0 1.25-1.25A1.25 1.25 0 0 0 9.5 9.25M7.5 14c.76 1.77 2.5 3 4.5 3s3.74-1.23 4.5-3h-9M3 12c0 .82.5 1.53 1.21 1.84C4.07 13.25 4 12.63 4 12c0-.63.07-1.25.21-1.84C3.5 10.47 3 11.18 3 12m18 0c0-.82-.5-1.53-1.21-1.84.14.59.21 1.21.21 1.84 0 .63-.07 1.25-.21 1.84C20.5 13.53 21 12.82 21 12Z" transform="matrix(1.5 0 0 1.5 360 216)" id="mdi-baby-face" fill="#555"/><path d="M1 12c0-1.81 1.2-3.34 2.86-3.83A8.974 8.974 0 0 1 12 3a9 9 0 0 1 8.15 5.17C21.8 8.66 23 10.19 23 12s-1.2 3.34-2.85 3.83A9 9 0 0 1 12 21c-3.6 0-6.71-2.11-8.14-5.17A3.99 3.99 0 0 1 1 12m13.5-2.75a1.25 1.25 0 0 0-1.25 1.25 1.25 1.25 0 0 0 1.25 1.25 1.25 1.25 0 0 0 1.25-1.25 1.25 1.25 0 0 0-1.25-1.25m-5 0a1.25 1.25 0 0 0-1.25 1.25 1.25 1.25 0 0 0 1.25 1.25 1.25 1.25 0 0 0 1.25-1.25A1.25 1.25 0 0 0 9.5 9.25M7.5 14c.76 1.77 2.5 3 4.5 3s3.74-1.23 4.5-3h-9M3 12c0 .82.5 1.53 1.21 1.84C4.07 13.25 4 12.63 4 12c0-.63.07-1.25.21-1.84C3.5 10.47 3 11.18 3 12m18 0c0-.82-.5-1.53-1.21-1.84.14.59.21 1.21.21 1.84 0 .63-.07 1.25-.21 1.84C20.5 13.53 21 12.82 21 12Z" transform="matrix(1.5 0 0 1.5 396 216)" id="mdi-baby-face" fill="#fff"/><path d="M14.5 9.25a1.25 1.25 0 0 1 1.25 1.25 1.25 1.25 0 0 1-1.25 1.25 1.25 1.25 0 0 1-1.25-1.25 1.25 1.25 0 0 1 1.25-1.25m-5 0a1.25 1.25 0 0 1 1.25 1.25 1.25 1.25 0 0 1-1.25 1.25 1.25 1.25 0 0 1-1.25-1.25A1.25 1.25 0 0 1 9.5 9.25M7.5 14h9c-.76 1.77-2.5 3-4.5 3s-3.74-1.23-4.5-3M1 12c0-1.81 1.2-3.34 2.86-3.83A8.974 8.974 0 0 1 12 3a9 9 0 0 1 8.15 5.17C21.8 8.66 23 10.19 23 12s-1.2 3.34-2.85 3.83A9 9 0 0 1 12 21c-3.6 0-6.71-2.11-8.14-5.17A3.99 3.99 0 0 1 1 12m11-7a7.02 7.02 0 0 0-6.72 5H5a2 2 0 0 0-2 2 2 2 0 0 0 2 2h.28c.86 2.88 3.54 5 6.72 5a7.02 7.02 0 0 0 6.72-5H19a2 2 0 0 0 2-2 2 2 0 0 0-2-2h-.28A7.02 7.02 0 0 0 12 5Z" transform="matrix(1.5 0 0 1.5 432 216)" id="mdi-baby-face-outline" fill="#555"/><path d="M14.5 9.25a1.25 1.25 0 0 1 1.25 1.25 1.25 1.25 0 0 1-1.25 1.25 1.25 1.25 0 0 1-1.25-1.25 1.25 1.25 0 0 1 1.25-1.25m-5 0a1.25 1.25 0 0 1 1.25 1.25 1.25 1.25 0 0 1-1.25 1.25 1.25 1.25 0 0 1-1.25-1.25A1.25 1.25 0 0 1 9.5 9.25M7.5 14h9c-.76 1.77-2.5 3-4.5 3s-3.74-1.23-4.5-3M1 12c0-1.81 1.2-3.34 2.86-3.83A8.974 8.974 0 0 1 12 3a9 9 0 0 1 8.15 5.17C21.8 8.66 23 10.19 23 12s-1.2 3.34-2.85 3.83A9 9 0 0 1 12 21c-3.6 0-6.71-2.11-8.14-5.17A3.99 3.99 0 0 1 1 12m11-7a7.02 7.02 0 0 0-6.72 5H5a2 2 0 0 0-2 2 2 2 0 0 0 2 2h.28c.86 2.88 3.54 5 6.72 5a7.02 7.02 0 0 0 6.72-5H19a2 2 0 0 0 2-2 2 2 0 0 0-2-2h-.28A7.02 7.02 0 0 0 12 5Z" transform="matrix(1.5 0 0 1.5 468 216)" id="mdi-baby-face-outline" fill="#fff"/><path d="m5 13 4 4-1.4 1.42L1.18 12 7.6 5.58 9 7l-4 4h16v2H5m16-7v2H11V6h10m0 10v2H11v-2h10Z" transform="matrix(1.5 0 0 1.5 504 216)" id="mdi-backburger" fill="#555"/><path d="m5 13 4 4-1.4 1.42L1.18 12 7.6 5.58 9 7l-4 4h16v2H5m16-7v2H11V6h10m0 10v2H11v-2h10Z" transform="matrix(1.5 0 0 1.5 540 216)" id="mdi-backburger" fill="#fff"/><path d="M22 3H7c-.69 0-1.23.35-1.59.88L0 12l5.41 8.11c.36.53.9.89 1.59.89h15a2 2 0 0 0 2-2V5a2 2 0 0 0-2-2m-3 12.59L17.59 17 14 13.41 10.41 17 9 15.59 12.59 12 9 8.41 10.41 7 14 10.59 17.59 7 19 8.41 15.41 12" transform="matrix(1.5 0 0 1.5 576 216)" id="mdi-backspace" fill="#555"/><path d="M22 3H7c-.69 0-1.23.35-1.59.88L0 12l5.41 8.11c.36.53.9.89 1.59.89h15a2 2 0 0 0 2-2V5a2 2 0 0 0-2-2m-3 12.59L17.59 17 14 13.41 10.41 17 9 15.59 12.59 12 9 8.41 10.41 7 14 10.59 17.59 7 19 8.41 15.41 12" transform="matrix(1.5 0 0 1.5 612 216)" id="mdi-backspace" fill="#fff"/><path d="M19 15.59 17.59 17 14 13.41 10.41 17 9 15.59 12.59 12 9 8.41 10.41 7 14 10.59 17.59 7 19 8.41 15.41 12 19 15.59M22 3a2 2 0 0 1 2 2v14a2 2 0 0 1-2 2H7c-.69 0-1.23-.36-1.59-.89L0 12l5.41-8.12C5.77 3.35 6.31 3 7 3h15m0 2H7l-4.72 7L7 19h15V5Z" transform="matrix(1.5 0 0 1.5 648 216)" id="mdi-backspace-outline" fill="#555"/><path d="M19 15.59 17.59 17 14 13.41 10.41 17 9 15.59 12.59 12 9 8.41 10.41 7 14 10.59 17.59 7 19 8.41 15.41 12 19 15.59M22 3a2 2 0 0 1 2 2v14a2 2 0 0 1-2 2H7c-.69 0-1.23-.36-1.59-.89L0 12l5.41-8.12C5.77 3.35 6.31 3 7 3h15m0 2H7l-4.72 7L7 19h15V5Z" transform="matrix(1.5 0 0 1.5 684 216)" id="mdi-backspace-outline" fill="#fff"/><path d="M2 21h15c.7 0 1.2-.4 1.6-.9L24 12l-5.4-8.1c-.4-.5-.9-.9-1.6-.9H2a2 2 0 0 0-2 2v14a2 2 0 0 0 2 2M5 8.4 6.4 7l3.6 3.6L13.6 7 15 8.4 11.4 12l3.6 3.6-1.4 1.4-3.6-3.6L6.4 17 5 15.6 8.6 12" transform="matrix(1.5 0 0 1.5 0 252)" id="mdi-backspace-reverse" fill="#555"/><path d="M2 21h15c.7 0 1.2-.4 1.6-.9L24 12l-5.4-8.1c-.4-.5-.9-.9-1.6-.9H2a2 2 0 0 0-2 2v14a2 2 0 0 0 2 2M5 8.4 6.4 7l3.6 3.6L13.6 7 15 8.4 11.4 12l3.6 3.6-1.4 1.4-3.6-3.6L6.4 17 5 15.6 8.6 12" transform="matrix(1.5 0 0 1.5 36 252)" id="mdi-backspace-reverse" fill="#fff"/><path d="M5 15.59 6.41 17 10 13.41 13.59 17 15 15.59 11.41 12 15 8.41 13.59 7 10 10.59 6.41 7 5 8.41 8.59 12 5 15.59M2 3a2 2 0 0 0-2 2v14a2 2 0 0 0 2 2h15c.69 0 1.23-.36 1.59-.89L24 12l-5.41-8.12C18.23 3.35 17.69 3 17 3H2m0 2h15l4.72 7L17 19H2V5Z" transform="matrix(1.5 0 0 1.5 72 252)" id="mdi-backspace-reverse-outline" fill="#555"/><path d="M5 15.59 6.41 17 10 13.41 13.59 17 15 15.59 11.41 12 15 8.41 13.59 7 10 10.59 6.41 7 5 8.41 8.59 12 5 15.59M2 3a2 2 0 0 0-2 2v14a2 2 0 0 0 2 2h15c.69 0 1.23-.36 1.59-.89L24 12l-5.41-8.12C18.23 3.35 17.69 3 17 3H2m0 2h15l4.72 7L17 19H2V5Z" transform="matrix(1.5 0 0 1.5 108 252)" id="mdi-backspace-reverse-outline" fill="#fff"/><path d="M12 3a9 9 0 0 0-9 9H0l4 4 4-4H5a7 7 0 0 1 7-7 7 7 0 0 1 7 7 7 7 0 0 1-7 7c-1.5 0-2.91-.5-4.06-1.3L6.5 19.14A9.115 9.115 0 0 0 12 21a9 9 0 0 0 9-9 9 9 0 0 0-9-9m2 9a2 2 0 0 0-2-2 2 2 0 0 0-2 2 2 2 0 0 0 2 2 2 2 0 0 0 2-2Z" transform="matrix(1.5 0 0 1.5 144 252)" id="mdi-backup-restore" fill="#555"/><path d="M12 3a9 9 0 0 0-9 9H0l4 4 4-4H5a7 7 0 0 1 7-7 7 7 0 0 1 7 7 7 7 0 0 1-7 7c-1.5 0-2.91-.5-4.06-1.3L6.5 19.14A9.115 9.115 0 0 0 12 21a9 9 0 0 0 9-9 9 9 0 0 0-9-9m2 9a2 2 0 0 0-2-2 2 2 0 0 0-2 2 2 2 0 0 0 2 2 2 2 0 0 0 2-2Z" transform="matrix(1.5 0 0 1.5 180 252)" id="mdi-backup-restore" fill="#fff"/><path d="M21 16c0-.5-.05-.92-.12-1.32l1.57-.78-.9-1.8-1.37.69c-.55-.83-1.27-1.29-1.89-1.51l.66-1.96-1.9-.64-.76 2.28c-1.33-.13-2.12-.64-2.59-1.19l1.75-.87-.9-1.8-1.55.79a4.39 4.39 0 0 0-.72-2.02l1.55-2.32-1.66-1.11-1.41 2.12c-.48-.23-1.06-.41-1.76-.5V2H7v2.1c-.71.15-1.27.44-1.68.81L2.7 2.29 1.29 3.71l2.95 2.94C4 7.39 4 8 4 8H2v2h2.04c.06.63.17 1.36.36 2.15l-2.72.9.63 1.9 2.69-.9c.24.51.5 1.03.82 1.53l-2.38 1.59 1.11 1.66 2.52-1.68c.56.56 1.22 1.06 1.99 1.49l-.96 1.91 1.79.9 1-2-.16-.09c.95.32 2.03.54 3.27.61V22h2v-2.07c.76-.09 1.81-.29 2.77-.74l1.52 1.52 1.41-1.42-1.33-1.34c.38-.51.63-1.15.63-1.95M8.5 11A1.5 1.5 0 0 1 7 9.5 1.5 1.5 0 0 1 8.5 8 1.5 1.5 0 0 1 10 9.5 1.5 1.5 0 0 1 8.5 11m2.5 3a1 1 0 0 1-1-1 1 1 0 0 1 1-1 1 1 0 0 1 1 1 1 1 0 0 1-1 1m4.5 3a1.5 1.5 0 0 1-1.5-1.5 1.5 1.5 0 0 1 1.5-1.5 1.5 1.5 0 0 1 1.5 1.5 1.5 1.5 0 0 1-1.5 1.5Z" transform="matrix(1.5 0 0 1.5 216 252)" id="mdi-bacteria" fill="#555"/><path d="M21 16c0-.5-.05-.92-.12-1.32l1.57-.78-.9-1.8-1.37.69c-.55-.83-1.27-1.29-1.89-1.51l.66-1.96-1.9-.64-.76 2.28c-1.33-.13-2.12-.64-2.59-1.19l1.75-.87-.9-1.8-1.55.79a4.39 4.39 0 0 0-.72-2.02l1.55-2.32-1.66-1.11-1.41 2.12c-.48-.23-1.06-.41-1.76-.5V2H7v2.1c-.71.15-1.27.44-1.68.81L2.7 2.29 1.29 3.71l2.95 2.94C4 7.39 4 8 4 8H2v2h2.04c.06.63.17 1.36.36 2.15l-2.72.9.63 1.9 2.69-.9c.24.51.5 1.03.82 1.53l-2.38 1.59 1.11 1.66 2.52-1.68c.56.56 1.22 1.06 1.99 1.49l-.96 1.91 1.79.9 1-2-.16-.09c.95.32 2.03.54 3.27.61V22h2v-2.07c.76-.09 1.81-.29 2.77-.74l1.52 1.52 1.41-1.42-1.33-1.34c.38-.51.63-1.15.63-1.95M8.5 11A1.5 1.5 0 0 1 7 9.5 1.5 1.5 0 0 1 8.5 8 1.5 1.5 0 0 1 10 9.5 1.5 1.5 0 0 1 8.5 11m2.5 3a1 1 0 0 1-1-1 1 1 0 0 1 1-1 1 1 0 0 1 1 1 1 1 0 0 1-1 1m4.5 3a1.5 1.5 0 0 1-1.5-1.5 1.5 1.5 0 0 1 1.5-1.5 1.5 1.5 0 0 1 1.5 1.5 1.5 1.5 0 0 1-1.5 1.5Z" transform="matrix(1.5 0 0 1.5 252 252)" id="mdi-bacteria" fill="#fff"/><path d="M9 2H7v2.1c-.71.15-1.27.44-1.68.81L2.7 2.29 1.29 3.71l2.95 2.94C4 7.39 4 8 4 8H2v2h2.04c.06.63.17 1.36.36 2.15l-2.72.9.63 1.9 2.69-.9c.24.51.5 1.03.82 1.53l-2.38 1.59 1.11 1.66 2.52-1.68c.56.56 1.22 1.06 1.99 1.49l-.96 1.91 1.79.9 1-2-.16-.09c.95.32 2.03.54 3.27.61V22h2v-2.07c.76-.09 1.81-.29 2.77-.74l1.52 1.52 1.41-1.42-1.33-1.34c.38-.51.63-1.15.63-1.95 0-.5-.05-.92-.12-1.32l1.57-.78-.9-1.8-1.37.69c-.55-.83-1.27-1.29-1.89-1.51l.66-1.96-1.9-.64-.76 2.28c-1.33-.13-2.12-.64-2.59-1.19l1.75-.87-.9-1.8-1.55.79a4.39 4.39 0 0 0-.72-2.02l1.55-2.32-1.66-1.11-1.41 2.12c-.48-.23-1.06-.41-1.76-.5M15 18c-2.94 0-5.19-.82-6.69-2.44C5.68 12.72 6 8.2 6 8.17v-.14C6 7.1 6.39 6 8 6c2.63 0 2.97 1.43 3 2 0 2 1.6 5 6 5 .33 0 2 .15 2 3 0 1.89-3.97 2-4 2M8.5 8A1.5 1.5 0 0 0 7 9.5 1.5 1.5 0 0 0 8.5 11 1.5 1.5 0 0 0 10 9.5 1.5 1.5 0 0 0 8.5 8m2.5 4a1 1 0 0 0-1 1 1 1 0 0 0 1 1 1 1 0 0 0 1-1 1 1 0 0 0-1-1m4.5 2a1.5 1.5 0 0 0-1.5 1.5 1.5 1.5 0 0 0 1.5 1.5 1.5 1.5 0 0 0 1.5-1.5 1.5 1.5 0 0 0-1.5-1.5Z" transform="matrix(1.5 0 0 1.5 288 252)" id="mdi-bacteria-outline" fill="#555"/><path d="M9 2H7v2.1c-.71.15-1.27.44-1.68.81L2.7 2.29 1.29 3.71l2.95 2.94C4 7.39 4 8 4 8H2v2h2.04c.06.63.17 1.36.36 2.15l-2.72.9.63 1.9 2.69-.9c.24.51.5 1.03.82 1.53l-2.38 1.59 1.11 1.66 2.52-1.68c.56.56 1.22 1.06 1.99 1.49l-.96 1.91 1.79.9 1-2-.16-.09c.95.32 2.03.54 3.27.61V22h2v-2.07c.76-.09 1.81-.29 2.77-.74l1.52 1.52 1.41-1.42-1.33-1.34c.38-.51.63-1.15.63-1.95 0-.5-.05-.92-.12-1.32l1.57-.78-.9-1.8-1.37.69c-.55-.83-1.27-1.29-1.89-1.51l.66-1.96-1.9-.64-.76 2.28c-1.33-.13-2.12-.64-2.59-1.19l1.75-.87-.9-1.8-1.55.79a4.39 4.39 0 0 0-.72-2.02l1.55-2.32-1.66-1.11-1.41 2.12c-.48-.23-1.06-.41-1.76-.5M15 18c-2.94 0-5.19-.82-6.69-2.44C5.68 12.72 6 8.2 6 8.17v-.14C6 7.1 6.39 6 8 6c2.63 0 2.97 1.43 3 2 0 2 1.6 5 6 5 .33 0 2 .15 2 3 0 1.89-3.97 2-4 2M8.5 8A1.5 1.5 0 0 0 7 9.5 1.5 1.5 0 0 0 8.5 11 1.5 1.5 0 0 0 10 9.5 1.5 1.5 0 0 0 8.5 8m2.5 4a1 1 0 0 0-1 1 1 1 0 0 0 1 1 1 1 0 0 0 1-1 1 1 0 0 0-1-1m4.5 2a1.5 1.5 0 0 0-1.5 1.5 1.5 1.5 0 0 0 1.5 1.5 1.5 1.5 0 0 0 1.5-1.5 1.5 1.5 0 0 0-1.5-1.5Z" transform="matrix(1.5 0 0 1.5 324 252)" id="mdi-bacteria-outline" fill="#fff"/><path d="M17 3h-3v3h-4V3H7a2 2 0 0 0-2 2v16a2 2 0 0 0 2 2h10a2 2 0 0 0 2-2V5a2 2 0 0 0-2-2m-5 5a2 2 0 0 1 2 2 2 2 0 0 1-2 2 2 2 0 0 1-2-2 2 2 0 0 1 2-2m4 8H8v-1c0-1.33 2.67-2 4-2s4 .67 4 2v1M13 5h-2V1h2v4m3 14H8v-1h8v1m-4 2H8v-1h4v1Z" transform="matrix(1.5 0 0 1.5 360 252)" id="mdi-badge-account" fill="#555"/><path d="M17 3h-3v3h-4V3H7a2 2 0 0 0-2 2v16a2 2 0 0 0 2 2h10a2 2 0 0 0 2-2V5a2 2 0 0 0-2-2m-5 5a2 2 0 0 1 2 2 2 2 0 0 1-2 2 2 2 0 0 1-2-2 2 2 0 0 1 2-2m4 8H8v-1c0-1.33 2.67-2 4-2s4 .67 4 2v1M13 5h-2V1h2v4m3 14H8v-1h8v1m-4 2H8v-1h4v1Z" transform="matrix(1.5 0 0 1.5 396 252)" id="mdi-badge-account" fill="#fff"/><path d="M15 3h-3v3H8V3H5a2 2 0 0 0-2 2v16a2 2 0 0 0 2 2h10a2 2 0 0 0 2-2V5a2 2 0 0 0-2-2m-5 5a2 2 0 0 1 2 2 2 2 0 0 1-2 2 2 2 0 0 1-2-2 2 2 0 0 1 2-2m4 8H6v-1c0-1.33 2.67-2 4-2s4 .67 4 2v1M11 5H9V1h2v4m3 14H6v-1h8v1m-4 2H6v-1h4v1m9-8V7h2v6h-2m0 4v-2h2v2h-2Z" transform="matrix(1.5 0 0 1.5 432 252)" id="mdi-badge-account-alert" fill="#555"/><path d="M15 3h-3v3H8V3H5a2 2 0 0 0-2 2v16a2 2 0 0 0 2 2h10a2 2 0 0 0 2-2V5a2 2 0 0 0-2-2m-5 5a2 2 0 0 1 2 2 2 2 0 0 1-2 2 2 2 0 0 1-2-2 2 2 0 0 1 2-2m4 8H6v-1c0-1.33 2.67-2 4-2s4 .67 4 2v1M11 5H9V1h2v4m3 14H6v-1h8v1m-4 2H6v-1h4v1m9-8V7h2v6h-2m0 4v-2h2v2h-2Z" transform="matrix(1.5 0 0 1.5 468 252)" id="mdi-badge-account-alert" fill="#fff"/><path d="M15 3h-3v2h3v16H5V5h3V3H5a2 2 0 0 0-2 2v16a2 2 0 0 0 2 2h10a2 2 0 0 0 2-2V5a2 2 0 0 0-2-2m-5 4a2 2 0 0 1 2 2 2 2 0 0 1-2 2 2 2 0 0 1-2-2 2 2 0 0 1 2-2m4 8H6v-1c0-1.33 2.67-2 4-2s4 .67 4 2v1m0 3H6v-1h8v1m-4 2H6v-1h4v1m1-15H9V1h2v4m8 8V7h2v6h-2m0 4v-2h2v2h-2Z" transform="matrix(1.5 0 0 1.5 504 252)" id="mdi-badge-account-alert-outline" fill="#555"/><path d="M15 3h-3v2h3v16H5V5h3V3H5a2 2 0 0 0-2 2v16a2 2 0 0 0 2 2h10a2 2 0 0 0 2-2V5a2 2 0 0 0-2-2m-5 4a2 2 0 0 1 2 2 2 2 0 0 1-2 2 2 2 0 0 1-2-2 2 2 0 0 1 2-2m4 8H6v-1c0-1.33 2.67-2 4-2s4 .67 4 2v1m0 3H6v-1h8v1m-4 2H6v-1h4v1m1-15H9V1h2v4m8 8V7h2v6h-2m0 4v-2h2v2h-2Z" transform="matrix(1.5 0 0 1.5 540 252)" id="mdi-badge-account-alert-outline" fill="#fff"/><path d="M22 4h-8v3h-4V4H2a2 2 0 0 0-2 2v14a2 2 0 0 0 2 2h20a2 2 0 0 0 2-2V6a2 2 0 0 0-2-2M8 9a2 2 0 0 1 2 2 2 2 0 0 1-2 2 2 2 0 0 1-2-2 2 2 0 0 1 2-2m4 8H4v-1c0-1.33 2.67-2 4-2s4 .67 4 2v1m8 1h-6v-2h6v2m0-4h-6v-2h6v2m0-4h-6V8h6v2m-7-4h-2V2h2v4Z" transform="matrix(1.5 0 0 1.5 576 252)" id="mdi-badge-account-horizontal" fill="#555"/><path d="M22 4h-8v3h-4V4H2a2 2 0 0 0-2 2v14a2 2 0 0 0 2 2h20a2 2 0 0 0 2-2V6a2 2 0 0 0-2-2M8 9a2 2 0 0 1 2 2 2 2 0 0 1-2 2 2 2 0 0 1-2-2 2 2 0 0 1 2-2m4 8H4v-1c0-1.33 2.67-2 4-2s4 .67 4 2v1m8 1h-6v-2h6v2m0-4h-6v-2h6v2m0-4h-6V8h6v2m-7-4h-2V2h2v4Z" transform="matrix(1.5 0 0 1.5 612 252)" id="mdi-badge-account-horizontal" fill="#fff"/><path d="M8 9a2 2 0 0 1 2 2 2 2 0 0 1-2 2 2 2 0 0 1-2-2 2 2 0 0 1 2-2m4 8H4v-1c0-1.33 2.67-2 4-2s4 .67 4 2v1m8-9h-6v2h6V8m0 4h-6v2h6v-2m0 4h-6v2h6v-2m2-12h-8v2h8v14H2V6h8V4H2a2 2 0 0 0-2 2v14a2 2 0 0 0 2 2h20a2 2 0 0 0 2-2V6a2 2 0 0 0-2-2m-9 2h-2V2h2v4Z" transform="matrix(1.5 0 0 1.5 648 252)" id="mdi-badge-account-horizontal-outline" fill="#555"/><path d="M8 9a2 2 0 0 1 2 2 2 2 0 0 1-2 2 2 2 0 0 1-2-2 2 2 0 0 1 2-2m4 8H4v-1c0-1.33 2.67-2 4-2s4 .67 4 2v1m8-9h-6v2h6V8m0 4h-6v2h6v-2m0 4h-6v2h6v-2m2-12h-8v2h8v14H2V6h8V4H2a2 2 0 0 0-2 2v14a2 2 0 0 0 2 2h20a2 2 0 0 0 2-2V6a2 2 0 0 0-2-2m-9 2h-2V2h2v4Z" transform="matrix(1.5 0 0 1.5 684 252)" id="mdi-badge-account-horizontal-outline" fill="#fff"/><path d="M17 3h-3v2h3v16H7V5h3V3H7a2 2 0 0 0-2 2v16a2 2 0 0 0 2 2h10a2 2 0 0 0 2-2V5a2 2 0 0 0-2-2m-5 4a2 2 0 0 1 2 2 2 2 0 0 1-2 2 2 2 0 0 1-2-2 2 2 0 0 1 2-2m4 8H8v-1c0-1.33 2.67-2 4-2s4 .67 4 2v1m0 3H8v-1h8v1m-4 2H8v-1h4v1m1-15h-2V1h2v4Z" transform="matrix(1.5 0 0 1.5 0 288)" id="mdi-badge-account-outline" fill="#555"/><path d="M17 3h-3v2h3v16H7V5h3V3H7a2 2 0 0 0-2 2v16a2 2 0 0 0 2 2h10a2 2 0 0 0 2-2V5a2 2 0 0 0-2-2m-5 4a2 2 0 0 1 2 2 2 2 0 0 1-2 2 2 2 0 0 1-2-2 2 2 0 0 1 2-2m4 8H8v-1c0-1.33 2.67-2 4-2s4 .67 4 2v1m0 3H8v-1h8v1m-4 2H8v-1h4v1m1-15h-2V1h2v4Z" transform="matrix(1.5 0 0 1.5 36 288)" id="mdi-badge-account-outline" fill="#fff"/><path d="M12.3 2c-.97.03-1.72.84-1.69 1.8.01.24.06.47.16.7l.29.64c.04.13-.03.27-.17.31-.09.05-.19 0-.26-.08l-.42-.55c-.33-.42-.83-.68-1.36-.69-.97-.02-1.77.75-1.79 1.71-.01.42.13.82.39 1.16l.42.5h.01c.08.13.05.29-.06.37-.09.07-.21.07-.29 0L7 7.45c-.34-.26-.75-.4-1.16-.39-.96.02-1.73.82-1.71 1.79.01.53.27 1.03.69 1.36l.57.44c.11.1.11.26-.01.35a.23.23 0 0 1-.26.05h-.01l-.61-.28c-.23-.09-.46-.15-.7-.16-.96-.03-1.77.73-1.8 1.7 0 .72.4 1.38 1.06 1.66l11.39 5.07 4.59-4.59-5.07-11.39C13.69 2.39 13 1.97 12.3 2m.83 4.1c.42-.01.8.23.96.61l3.05 6.84-3.95-3.94-.93-2.11c-.3-.63.16-1.38.87-1.4M9.85 8.85c.27 0 .52.1.71.3l4.81 4.81c.4.38.41 1.01.03 1.41-.4.4-1.02.41-1.44 0l-4.81-4.81a.987.987 0 0 1-.02-1.41c.19-.2.45-.3.72-.3m-2.72 3.32c.13 0 .27.04.37.09l2.13.94 3.94 3.94-6.86-3.05c-1.02-.44-.68-1.95.42-1.92m13.15 3.87-4.24 4.24.85.85c.76.75 1.86 1.04 2.89.77a3.024 3.024 0 0 0 2.12-2.12c.27-1.03-.02-2.13-.77-2.89l-.85-.85Z" transform="matrix(1.5 0 0 1.5 72 288)" id="mdi-badminton" fill="#555"/><path d="M12.3 2c-.97.03-1.72.84-1.69 1.8.01.24.06.47.16.7l.29.64c.04.13-.03.27-.17.31-.09.05-.19 0-.26-.08l-.42-.55c-.33-.42-.83-.68-1.36-.69-.97-.02-1.77.75-1.79 1.71-.01.42.13.82.39 1.16l.42.5h.01c.08.13.05.29-.06.37-.09.07-.21.07-.29 0L7 7.45c-.34-.26-.75-.4-1.16-.39-.96.02-1.73.82-1.71 1.79.01.53.27 1.03.69 1.36l.57.44c.11.1.11.26-.01.35a.23.23 0 0 1-.26.05h-.01l-.61-.28c-.23-.09-.46-.15-.7-.16-.96-.03-1.77.73-1.8 1.7 0 .72.4 1.38 1.06 1.66l11.39 5.07 4.59-4.59-5.07-11.39C13.69 2.39 13 1.97 12.3 2m.83 4.1c.42-.01.8.23.96.61l3.05 6.84-3.95-3.94-.93-2.11c-.3-.63.16-1.38.87-1.4M9.85 8.85c.27 0 .52.1.71.3l4.81 4.81c.4.38.41 1.01.03 1.41-.4.4-1.02.41-1.44 0l-4.81-4.81a.987.987 0 0 1-.02-1.41c.19-.2.45-.3.72-.3m-2.72 3.32c.13 0 .27.04.37.09l2.13.94 3.94 3.94-6.86-3.05c-1.02-.44-.68-1.95.42-1.92m13.15 3.87-4.24 4.24.85.85c.76.75 1.86 1.04 2.89.77a3.024 3.024 0 0 0 2.12-2.12c.27-1.03-.02-2.13-.77-2.89l-.85-.85Z" transform="matrix(1.5 0 0 1.5 108 288)" id="mdi-badminton" fill="#fff"/><path d="M14.6 21.4c.4.4.8.6 1.4.6s1-.2 1.4-.6.6-.8.6-1.4-.2-1-.6-1.4-.9-.6-1.4-.6-1 .2-1.4.6-.6.8-.6 1.4.2 1 .6 1.4M6 19c0 .5.2 1 .6 1.4.4.4.9.6 1.4.6V7c-.5 0-1 .2-1.4.6C6.2 8 6 8.5 6 9v10M16 2h-4c0 .5.2 1 .6 1.4.4.4.9.6 1.4.6v3H9v14h4.2c-.2-.5-.2-.8-.2-1 0-.8.3-1.5.9-2.1.6-.6 1.3-.9 2.1-.9V2Z" transform="matrix(1.5 0 0 1.5 144 288)" id="mdi-bag-carry-on" fill="#555"/><path d="M14.6 21.4c.4.4.8.6 1.4.6s1-.2 1.4-.6.6-.8.6-1.4-.2-1-.6-1.4-.9-.6-1.4-.6-1 .2-1.4.6-.6.8-.6 1.4.2 1 .6 1.4M6 19c0 .5.2 1 .6 1.4.4.4.9.6 1.4.6V7c-.5 0-1 .2-1.4.6C6.2 8 6 8.5 6 9v10M16 2h-4c0 .5.2 1 .6 1.4.4.4.9.6 1.4.6v3H9v14h4.2c-.2-.5-.2-.8-.2-1 0-.8.3-1.5.9-2.1.6-.6 1.3-.9 2.1-.9V2Z" transform="matrix(1.5 0 0 1.5 180 288)" id="mdi-bag-carry-on" fill="#fff"/><path d="m15.28 16.69 2.86-2.81.7.7-3.56 3.56L13.17 16l.71-.72 1.4 1.41M8 21a2 2 0 0 1-2-2V9a2 2 0 0 1 2-2v14M9 7h5V4a2 2 0 0 1-2-2h4v8a6 6 0 0 1 6 6 6 6 0 0 1-6 6c-1.23 0-2.37-.37-3.32-1H9V7m7 5a4 4 0 0 0-4 4 4 4 0 0 0 4 4 4 4 0 0 0 4-4 4 4 0 0 0-4-4Z" transform="matrix(1.5 0 0 1.5 216 288)" id="mdi-bag-carry-on-check" fill="#555"/><path d="m15.28 16.69 2.86-2.81.7.7-3.56 3.56L13.17 16l.71-.72 1.4 1.41M8 21a2 2 0 0 1-2-2V9a2 2 0 0 1 2-2v14M9 7h5V4a2 2 0 0 1-2-2h4v8a6 6 0 0 1 6 6 6 6 0 0 1-6 6c-1.23 0-2.37-.37-3.32-1H9V7m7 5a4 4 0 0 0-4 4 4 4 0 0 0 4 4 4 4 0 0 0 4-4 4 4 0 0 0-4-4Z" transform="matrix(1.5 0 0 1.5 252 288)" id="mdi-bag-carry-on-check" fill="#fff"/><path d="m2.1 4.9 3.9 4V19c0 .5.2 1 .6 1.4.4.4.9.6 1.4.6V10.8l1 1V21h4.2c-.1-.4-.2-.8-.2-1 0-1.2.5-2 1.6-2.6l.8.8c-.9.3-1.3 1-1.3 1.9 0 .5.2 1 .6 1.4.3.3.8.5 1.3.5.9 0 1.6-.4 1.9-1.3l1.2 1.2 1.4-1.4-17-17-1.4 1.4M12 2c0 .5.2 1 .6 1.4s.9.6 1.4.6v3H9.8l6.2 6.2V2h-4Z" transform="matrix(1.5 0 0 1.5 288 288)" id="mdi-bag-carry-on-off" fill="#555"/><path d="m2.1 4.9 3.9 4V19c0 .5.2 1 .6 1.4.4.4.9.6 1.4.6V10.8l1 1V21h4.2c-.1-.4-.2-.8-.2-1 0-1.2.5-2 1.6-2.6l.8.8c-.9.3-1.3 1-1.3 1.9 0 .5.2 1 .6 1.4.3.3.8.5 1.3.5.9 0 1.6-.4 1.9-1.3l1.2 1.2 1.4-1.4-17-17-1.4 1.4M12 2c0 .5.2 1 .6 1.4s.9.6 1.4.6v3H9.8l6.2 6.2V2h-4Z" transform="matrix(1.5 0 0 1.5 324 288)" id="mdi-bag-carry-on-off" fill="#fff"/><path d="M22 19H2v2h20v-2M4 15c0 .5.2 1 .6 1.4.4.4.9.6 1.4.6V6c-.5 0-1 .2-1.4.6C4.2 7 4 7.5 4 8v7m9.5-9h-3c0-.4.1-.8.4-1.1.3-.3.6-.4 1.1-.4.4 0 .8.1 1.1.4.2.3.4.7.4 1.1M7 6v11h10V6h-2c0-.8-.3-1.5-.9-2.1S12.8 3 12 3s-1.5.3-2.1.9C9.3 4.5 9 5.2 9 6H7m11 11c.5 0 1-.2 1.4-.6.4-.4.6-.9.6-1.4V8c0-.5-.2-1-.6-1.4-.4-.4-.9-.6-1.4-.6v11Z" transform="matrix(1.5 0 0 1.5 360 288)" id="mdi-bag-checked" fill="#555"/><path d="M22 19H2v2h20v-2M4 15c0 .5.2 1 .6 1.4.4.4.9.6 1.4.6V6c-.5 0-1 .2-1.4.6C4.2 7 4 7.5 4 8v7m9.5-9h-3c0-.4.1-.8.4-1.1.3-.3.6-.4 1.1-.4.4 0 .8.1 1.1.4.2.3.4.7.4 1.1M7 6v11h10V6h-2c0-.8-.3-1.5-.9-2.1S12.8 3 12 3s-1.5.3-2.1.9C9.3 4.5 9 5.2 9 6H7m11 11c.5 0 1-.2 1.4-.6.4-.4.6-.9.6-1.4V8c0-.5-.2-1-.6-1.4-.4-.4-.9-.6-1.4-.6v11Z" transform="matrix(1.5 0 0 1.5 396 288)" id="mdi-bag-checked" fill="#fff"/><path d="M16 5V4a2 2 0 0 0-2-2h-4a2 2 0 0 0-2 2v1a4 4 0 0 0-4 4v11a2 2 0 0 0 2 2h12a2 2 0 0 0 2-2V9a4 4 0 0 0-4-4m-6-1h4v1h-4V4m2 5 2 2-2 2-2-2 2-2m6 7H9v2H8v-2H6v-1h12v1Z" transform="matrix(1.5 0 0 1.5 432 288)" id="mdi-bag-personal" fill="#555"/><path d="M16 5V4a2 2 0 0 0-2-2h-4a2 2 0 0 0-2 2v1a4 4 0 0 0-4 4v11a2 2 0 0 0 2 2h12a2 2 0 0 0 2-2V9a4 4 0 0 0-4-4m-6-1h4v1h-4V4m2 5 2 2-2 2-2-2 2-2m6 7H9v2H8v-2H6v-1h12v1Z" transform="matrix(1.5 0 0 1.5 468 288)" id="mdi-bag-personal" fill="#fff"/><path d="M20 19.35 2.38 1.73 1.11 3l3.66 3.66C4.27 7.34 4 8.16 4 9v11a2 2 0 0 0 2 2h12c.56 0 1.08-.24 1.46-.65l1.38 1.38 1.27-1.27L20 19.35M9 16v2H8v-2H6v-1h7.11l1 1H9m11-7a4 4 0 0 0-4-4V4a2 2 0 0 0-2-2h-4a2 2 0 0 0-2 2v.8l12 12V9m-6-4h-4V4h4v1Z" transform="matrix(1.5 0 0 1.5 504 288)" id="mdi-bag-personal-off" fill="#555"/><path d="M20 19.35 2.38 1.73 1.11 3l3.66 3.66C4.27 7.34 4 8.16 4 9v11a2 2 0 0 0 2 2h12c.56 0 1.08-.24 1.46-.65l1.38 1.38 1.27-1.27L20 19.35M9 16v2H8v-2H6v-1h7.11l1 1H9m11-7a4 4 0 0 0-4-4V4a2 2 0 0 0-2-2h-4a2 2 0 0 0-2 2v.8l12 12V9m-6-4h-4V4h4v1Z" transform="matrix(1.5 0 0 1.5 540 288)" id="mdi-bag-personal-off" fill="#fff"/><path d="M20 19.35 2.38 1.73 1.11 3l3.66 3.66C4.27 7.34 4 8.16 4 9v11a2 2 0 0 0 2 2h12c.56 0 1.08-.24 1.46-.65l1.38 1.38 1.27-1.27L20 19.35M6 9c0-.31.08-.62.22-.89L13.11 15H6V9m12 11H6v-4h2v2h1v-2h5.11L18 19.89V20M16 7a2 2 0 0 1 2 2v5.8l2 2V9a4 4 0 0 0-4-4V4a2 2 0 0 0-2-2h-4a2 2 0 0 0-2 2v.8L10.2 7H16m-6-3h4v1h-4V4Z" transform="matrix(1.5 0 0 1.5 576 288)" id="mdi-bag-personal-off-outline" fill="#555"/><path d="M20 19.35 2.38 1.73 1.11 3l3.66 3.66C4.27 7.34 4 8.16 4 9v11a2 2 0 0 0 2 2h12c.56 0 1.08-.24 1.46-.65l1.38 1.38 1.27-1.27L20 19.35M6 9c0-.31.08-.62.22-.89L13.11 15H6V9m12 11H6v-4h2v2h1v-2h5.11L18 19.89V20M16 7a2 2 0 0 1 2 2v5.8l2 2V9a4 4 0 0 0-4-4V4a2 2 0 0 0-2-2h-4a2 2 0 0 0-2 2v.8L10.2 7H16m-6-3h4v1h-4V4Z" transform="matrix(1.5 0 0 1.5 612 288)" id="mdi-bag-personal-off-outline" fill="#fff"/><path d="M16 5V4a2 2 0 0 0-2-2h-4a2 2 0 0 0-2 2v1a4 4 0 0 0-4 4v11a2 2 0 0 0 2 2h12a2 2 0 0 0 2-2V9a4 4 0 0 0-4-4m-6-1h4v1h-4V4m2 5 2 2-2 2-2-2 2-2m6 11H6v-4h2v2h1v-2h9v4m0-5H6V9a2 2 0 0 1 2-2h8a2 2 0 0 1 2 2v6Z" transform="matrix(1.5 0 0 1.5 648 288)" id="mdi-bag-personal-outline" fill="#555"/><path d="M16 5V4a2 2 0 0 0-2-2h-4a2 2 0 0 0-2 2v1a4 4 0 0 0-4 4v11a2 2 0 0 0 2 2h12a2 2 0 0 0 2-2V9a4 4 0 0 0-4-4m-6-1h4v1h-4V4m2 5 2 2-2 2-2-2 2-2m6 11H6v-4h2v2h1v-2h9v4m0-5H6V9a2 2 0 0 1 2-2h8a2 2 0 0 1 2 2v6Z" transform="matrix(1.5 0 0 1.5 684 288)" id="mdi-bag-personal-outline" fill="#fff"/><path d="M17.03 6C18.11 6 19 6.88 19 8v11c0 1.13-.89 2-1.97 2 0 .58-.47 1-1.03 1-.5 0-1-.42-1-1H9c0 .58-.5 1-1 1-.56 0-1.03-.42-1.03-1C5.89 21 5 20.13 5 19V8c0-1.12.89-2 1.97-2H9V3c0-.58.46-1 1-1h4c.54 0 1 .42 1 1v3h2.03M13.5 6V3.5h-3V6h3M8 9v9h1.5V9H8m6.5 0v9H16V9h-1.5m-3.25 0v9h1.5V9h-1.5Z" transform="matrix(1.5 0 0 1.5 0 324)" id="mdi-bag-suitcase" fill="#555"/><path d="M17.03 6C18.11 6 19 6.88 19 8v11c0 1.13-.89 2-1.97 2 0 .58-.47 1-1.03 1-.5 0-1-.42-1-1H9c0 .58-.5 1-1 1-.56 0-1.03-.42-1.03-1C5.89 21 5 20.13 5 19V8c0-1.12.89-2 1.97-2H9V3c0-.58.46-1 1-1h4c.54 0 1 .42 1 1v3h2.03M13.5 6V3.5h-3V6h3M8 9v9h1.5V9H8m6.5 0v9H16V9h-1.5m-3.25 0v9h1.5V9h-1.5Z" transform="matrix(1.5 0 0 1.5 36 324)" id="mdi-bag-suitcase" fill="#fff"/><path d="M2 4.77 3.28 3.5 21 21.22l-1.27 1.28L18 20.76c-.29.17-.62.24-.97.24 0 .58-.47 1-1.03 1-.5 0-1-.42-1-1H9c0 .58-.5 1-1 1-.56 0-1.03-.42-1.03-1C5.89 21 5 20.13 5 19V7.77l-3-3M17.03 6C18.11 6 19 6.88 19 8v8.68l-3-3V9h-1.5v3.18l-1.75-1.75V9h-1.43L8.31 6H9V3c0-.58.46-1 1-1h4c.54 0 1 .42 1 1v3h2.03M8 18h1.5v-5.73L8 10.77V18m3.25 0h1.5v-2.5l-1.5-1.5v4m3.25 0h.73l-.73-.73V18m-1-12V3.5h-3V6h3Z" transform="matrix(1.5 0 0 1.5 72 324)" id="mdi-bag-suitcase-off" fill="#555"/><path d="M2 4.77 3.28 3.5 21 21.22l-1.27 1.28L18 20.76c-.29.17-.62.24-.97.24 0 .58-.47 1-1.03 1-.5 0-1-.42-1-1H9c0 .58-.5 1-1 1-.56 0-1.03-.42-1.03-1C5.89 21 5 20.13 5 19V7.77l-3-3M17.03 6C18.11 6 19 6.88 19 8v8.68l-3-3V9h-1.5v3.18l-1.75-1.75V9h-1.43L8.31 6H9V3c0-.58.46-1 1-1h4c.54 0 1 .42 1 1v3h2.03M8 18h1.5v-5.73L8 10.77V18m3.25 0h1.5v-2.5l-1.5-1.5v4m3.25 0h.73l-.73-.73V18m-1-12V3.5h-3V6h3Z" transform="matrix(1.5 0 0 1.5 108 324)" id="mdi-bag-suitcase-off" fill="#fff"/><path d="M2 4.77 3.28 3.5 21 21.22l-1.27 1.28L18 20.76c-.29.17-.62.24-.97.24 0 .58-.47 1-1.03 1-.5 0-1-.42-1-1H9c0 .58-.5 1-1 1-.56 0-1.03-.42-1.03-1C5.89 21 5 20.13 5 19V7.78L2 4.77M9.5 18H8v-7.22L6.97 9.74V19h9.26l-.98-1h-.75v-.74l-1.75-1.76V18h-1.5v-4L9.5 12.28V18m3.25-9v1.43L11.32 9h1.43m1.75 0H16v4.67l-1.5-1.5V9m2.53-3C18.11 6 19 6.88 19 8v8.68l-1.97-1.98V8h-6.7L8.31 6H9V3c0-.58.46-1 1-1h4c.54 0 1 .42 1 1v3h2.03M10.5 3.5V6h3V3.5h-3Z" transform="matrix(1.5 0 0 1.5 144 324)" id="mdi-bag-suitcase-off-outline" fill="#555"/><path d="M2 4.77 3.28 3.5 21 21.22l-1.27 1.28L18 20.76c-.29.17-.62.24-.97.24 0 .58-.47 1-1.03 1-.5 0-1-.42-1-1H9c0 .58-.5 1-1 1-.56 0-1.03-.42-1.03-1C5.89 21 5 20.13 5 19V7.78L2 4.77M9.5 18H8v-7.22L6.97 9.74V19h9.26l-.98-1h-.75v-.74l-1.75-1.76V18h-1.5v-4L9.5 12.28V18m3.25-9v1.43L11.32 9h1.43m1.75 0H16v4.67l-1.5-1.5V9m2.53-3C18.11 6 19 6.88 19 8v8.68l-1.97-1.98V8h-6.7L8.31 6H9V3c0-.58.46-1 1-1h4c.54 0 1 .42 1 1v3h2.03M10.5 3.5V6h3V3.5h-3Z" transform="matrix(1.5 0 0 1.5 180 324)" id="mdi-bag-suitcase-off-outline" fill="#fff"/><path d="M9.5 18V9H8v9m4.75 0V9h-1.5v9M16 18V9h-1.5v9m2.53-12C18.11 6 19 6.88 19 8v11c0 1.13-.89 2-1.97 2 0 .58-.47 1-1.03 1-.5 0-1-.42-1-1H9c0 .58-.5 1-1 1-.56 0-1.03-.42-1.03-1C5.89 21 5 20.13 5 19V8c0-1.12.89-2 1.97-2H9V3c0-.58.46-1 1-1h4c.54 0 1 .42 1 1v3m-4.5-2.5V6h3V3.5M17.03 19V8H6.97v11" transform="matrix(1.5 0 0 1.5 216 324)" id="mdi-bag-suitcase-outline" fill="#555"/><path d="M9.5 18V9H8v9m4.75 0V9h-1.5v9M16 18V9h-1.5v9m2.53-12C18.11 6 19 6.88 19 8v11c0 1.13-.89 2-1.97 2 0 .58-.47 1-1.03 1-.5 0-1-.42-1-1H9c0 .58-.5 1-1 1-.56 0-1.03-.42-1.03-1C5.89 21 5 20.13 5 19V8c0-1.12.89-2 1.97-2H9V3c0-.58.46-1 1-1h4c.54 0 1 .42 1 1v3m-4.5-2.5V6h3V3.5M17.03 19V8H6.97v11" transform="matrix(1.5 0 0 1.5 252 324)" id="mdi-bag-suitcase-outline" fill="#fff"/><path d="M5 22c-1.32 0-1.85-2.36-1.96-3.3a5.56 5.56 0 0 1 .32-2.7 2.5 2.5 0 0 1 1.87-1.62c1.17-.2 2 .5 3.06.74a1.21 1.21 0 0 0 1.56-1.37C9.41 12.03 6.28 12 5 12c0-1.86 2.04-2.1 3.5-1.96a10.8 10.8 0 0 1 2.54.56c.5.17 1.08.6 1.63.56.83-.07 1-.93.64-1.56C12.44 8.12 9.97 8 8.5 8c0-2 1.73-2.38 3.39-2.08a11.58 11.58 0 0 1 2.49.79c.51.22 1.12.64 1.68.45 1.44-.44-.06-1.98-.7-2.35a6.6 6.6 0 0 0-1.42-.58c-.54-.16-1.2-.1-.71-.73a5.13 5.13 0 0 1 2.73-1.24c1.89-.44 4.5-.52 4.96 1.86a5.3 5.3 0 0 1-.85 3.58 38.96 38.96 0 0 1-6.85 8.63 36.6 36.6 0 0 1-4.6 3.99C7.62 21.04 6.3 22 5 22Z" transform="matrix(1.5 0 0 1.5 288 324)" id="mdi-baguette" fill="#555"/><path d="M5 22c-1.32 0-1.85-2.36-1.96-3.3a5.56 5.56 0 0 1 .32-2.7 2.5 2.5 0 0 1 1.87-1.62c1.17-.2 2 .5 3.06.74a1.21 1.21 0 0 0 1.56-1.37C9.41 12.03 6.28 12 5 12c0-1.86 2.04-2.1 3.5-1.96a10.8 10.8 0 0 1 2.54.56c.5.17 1.08.6 1.63.56.83-.07 1-.93.64-1.56C12.44 8.12 9.97 8 8.5 8c0-2 1.73-2.38 3.39-2.08a11.58 11.58 0 0 1 2.49.79c.51.22 1.12.64 1.68.45 1.44-.44-.06-1.98-.7-2.35a6.6 6.6 0 0 0-1.42-.58c-.54-.16-1.2-.1-.71-.73a5.13 5.13 0 0 1 2.73-1.24c1.89-.44 4.5-.52 4.96 1.86a5.3 5.3 0 0 1-.85 3.58 38.96 38.96 0 0 1-6.85 8.63 36.6 36.6 0 0 1-4.6 3.99C7.62 21.04 6.3 22 5 22Z" transform="matrix(1.5 0 0 1.5 324 324)" id="mdi-baguette" fill="#fff"/><path d="M10 10v2H8v-2h2m6 2v-2h-2v2h2m5 2v8H3v-8h1v-4c0-4.42 3.58-8 8-8s8 3.58 8 8v4h1M7 16H5v4h2v-4m4 0H9v4h2v-4m0-11.92C8.16 4.56 6 7.03 6 10v4h5V4.08M13 14h5v-4c0-2.97-2.16-5.44-5-5.92V14m2 2h-2v4h2v-4m4 0h-2v4h2v-4Z" transform="matrix(1.5 0 0 1.5 360 324)" id="mdi-balcony" fill="#555"/><path d="M10 10v2H8v-2h2m6 2v-2h-2v2h2m5 2v8H3v-8h1v-4c0-4.42 3.58-8 8-8s8 3.58 8 8v4h1M7 16H5v4h2v-4m4 0H9v4h2v-4m0-11.92C8.16 4.56 6 7.03 6 10v4h5V4.08M13 14h5v-4c0-2.97-2.16-5.44-5-5.92V14m2 2h-2v4h2v-4m4 0h-2v4h2v-4Z" transform="matrix(1.5 0 0 1.5 396 324)" id="mdi-balcony" fill="#fff"/><path d="M13.16 12.74 14 14h-1.5c-.15 2.71-.5 5.41-1 8.08l-1-.16c.5-2.62.84-5.26 1-7.92H10l.84-1.26C8.64 11.79 7 8.36 7 6a5 5 0 0 1 5-5 5 5 0 0 1 5 5c0 2.36-1.64 5.79-3.84 6.74Z" transform="matrix(1.5 0 0 1.5 432 324)" id="mdi-balloon" fill="#555"/><path d="M13.16 12.74 14 14h-1.5c-.15 2.71-.5 5.41-1 8.08l-1-.16c.5-2.62.84-5.26 1-7.92H10l.84-1.26C8.64 11.79 7 8.36 7 6a5 5 0 0 1 5-5 5 5 0 0 1 5 5c0 2.36-1.64 5.79-3.84 6.74Z" transform="matrix(1.5 0 0 1.5 468 324)" id="mdi-balloon" fill="#fff"/><path d="M13 9.5h5v-2h-5v2m0 7h5v-2h-5v2m6 4.5H5a2 2 0 0 1-2-2V5a2 2 0 0 1 2-2h14a2 2 0 0 1 2 2v14a2 2 0 0 1-2 2M6 11h5V6H6v5m1-4h3v3H7V7M6 18h5v-5H6v5m1-4h3v3H7v-3Z" transform="matrix(1.5 0 0 1.5 504 324)" id="mdi-ballot" fill="#555"/><path d="M13 9.5h5v-2h-5v2m0 7h5v-2h-5v2m6 4.5H5a2 2 0 0 1-2-2V5a2 2 0 0 1 2-2h14a2 2 0 0 1 2 2v14a2 2 0 0 1-2 2M6 11h5V6H6v5m1-4h3v3H7V7M6 18h5v-5H6v5m1-4h3v3H7v-3Z" transform="matrix(1.5 0 0 1.5 540 324)" id="mdi-ballot" fill="#fff"/><path d="M13 7.5h5v2h-5v-2m0 7h5v2h-5v-2M19 3a2 2 0 0 1 2 2v14a2 2 0 0 1-2 2H5a2 2 0 0 1-2-2V5a2 2 0 0 1 2-2h14m0 16V5H5v14h14M11 6v5H6V6h5m-1 4V7H7v3h3m1 3v5H6v-5h5m-1 4v-3H7v3h3Z" transform="matrix(1.5 0 0 1.5 576 324)" id="mdi-ballot-outline" fill="#555"/><path d="M13 7.5h5v2h-5v-2m0 7h5v2h-5v-2M19 3a2 2 0 0 1 2 2v14a2 2 0 0 1-2 2H5a2 2 0 0 1-2-2V5a2 2 0 0 1 2-2h14m0 16V5H5v14h14M11 6v5H6V6h5m-1 4V7H7v3h3m1 3v5H6v-5h5m-1 4v-3H7v3h3Z" transform="matrix(1.5 0 0 1.5 612 324)" id="mdi-ballot-outline" fill="#fff"/><path d="M19 12v1.5a4 4 0 0 1 4 4c0 .82-.25 1.58-.67 2.21l-1.09-1.09c.17-.34.26-.72.26-1.12A2.5 2.5 0 0 0 19 15v1.5l-2.25-2.25L19 12m0 11v-1.5a4 4 0 0 1-4-4c0-.82.25-1.58.67-2.21l1.09 1.09c-.17.34-.26.72-.26 1.12A2.5 2.5 0 0 0 19 20v-1.5l2.25 2.25L19 23m-9-6H7v-3h3v3m0-10v3H7V7h3M5 21a2 2 0 0 1-2-2V5a2 2 0 0 1 2-2h14a2 2 0 0 1 2 2v6.17c-.5-.11-1-.17-1.5-.17a6.5 6.5 0 0 0-6.5 6.5c0 1.29.38 2.5 1 3.5H5m8-11.5h5v-2h-5v2M11 13H6v5h5v-5m0-7H6v5h5V6Z" transform="matrix(1.5 0 0 1.5 648 324)" id="mdi-ballot-recount" fill="#555"/><path d="M19 12v1.5a4 4 0 0 1 4 4c0 .82-.25 1.58-.67 2.21l-1.09-1.09c.17-.34.26-.72.26-1.12A2.5 2.5 0 0 0 19 15v1.5l-2.25-2.25L19 12m0 11v-1.5a4 4 0 0 1-4-4c0-.82.25-1.58.67-2.21l1.09 1.09c-.17.34-.26.72-.26 1.12A2.5 2.5 0 0 0 19 20v-1.5l2.25 2.25L19 23m-9-6H7v-3h3v3m0-10v3H7V7h3M5 21a2 2 0 0 1-2-2V5a2 2 0 0 1 2-2h14a2 2 0 0 1 2 2v6.17c-.5-.11-1-.17-1.5-.17a6.5 6.5 0 0 0-6.5 6.5c0 1.29.38 2.5 1 3.5H5m8-11.5h5v-2h-5v2M11 13H6v5h5v-5m0-7H6v5h5V6Z" transform="matrix(1.5 0 0 1.5 684 324)" id="mdi-ballot-recount" fill="#fff"/></svg>