<svg xmlns="http://www.w3.org/2000/svg" width="720" height="900"><path d="M7 5 3 7V3l4 2m11-2v4l4-2-4-2m-7-1v4l4-2-4-2m-6 8c1.4.5 3.8 1 7 1s5.6-.5 7-1c0-.2-2.8-1-7-1s-7 .9-7 1m10 7H9v4.9c-4.1-.4-7-1.5-7-2.9v-9c0-1.7 4.5-3 10-3s10 1.3 10 3v9c0 1.3-2.9 2.5-7 2.9V17Z" transform="scale(1.5)" id="mdi-stadium" fill="#555"/><path d="M7 5 3 7V3l4 2m11-2v4l4-2-4-2m-7-1v4l4-2-4-2m-6 8c1.4.5 3.8 1 7 1s5.6-.5 7-1c0-.2-2.8-1-7-1s-7 .9-7 1m10 7H9v4.9c-4.1-.4-7-1.5-7-2.9v-9c0-1.7 4.5-3 10-3s10 1.3 10 3v9c0 1.3-2.9 2.5-7 2.9V17Z" transform="translate(36) scale(1.5)" id="mdi-stadium" fill="#fff"/><path d="M5 3h2l3 2-3 2v1.33C8.47 8.12 10.18 8 12 8c1.82 0 3.53.12 5 .33V3h2l3 2-3 2v1.71c1.85.46 3 1.09 3 1.79 0 1.38-4.5 2.5-10 2.5S2 11.88 2 10.5c0-.7 1.15-1.33 3-1.79V3m7 6.5c-3.31 0-5 .17-5 1s1.69 1 5 1 5-.17 5-1-1.69-1-5-1m0 5.25c3.81 0 7.2-.67 9.4-1.7L20 21h-5v-2a2 2 0 0 0-2-2h-2a2 2 0 0 0-2 2v2H4l-1.4-7.95c2.2 1.03 5.59 1.7 9.4 1.7Z" transform="translate(72) scale(1.5)" id="mdi-stadium-variant" fill="#555"/><path d="M5 3h2l3 2-3 2v1.33C8.47 8.12 10.18 8 12 8c1.82 0 3.53.12 5 .33V3h2l3 2-3 2v1.71c1.85.46 3 1.09 3 1.79 0 1.38-4.5 2.5-10 2.5S2 11.88 2 10.5c0-.7 1.15-1.33 3-1.79V3m7 6.5c-3.31 0-5 .17-5 1s1.69 1 5 1 5-.17 5-1-1.69-1-5-1m0 5.25c3.81 0 7.2-.67 9.4-1.7L20 21h-5v-2a2 2 0 0 0-2-2h-2a2 2 0 0 0-2 2v2H4l-1.4-7.95c2.2 1.03 5.59 1.7 9.4 1.7Z" transform="translate(108) scale(1.5)" id="mdi-stadium-variant" fill="#fff"/><path d="M15 5v4h-4v4H7v4H3v3h7v-4h4v-4h4V8h4V5h-7Z" transform="translate(144) scale(1.5)" id="mdi-stairs" fill="#555"/><path d="M15 5v4h-4v4H7v4H3v3h7v-4h4v-4h4V8h4V5h-7Z" transform="translate(180) scale(1.5)" id="mdi-stairs" fill="#fff"/><path d="M5 3c-1.11 0-2 .89-2 2v14c0 1.11.89 2 2 2h14c1.11 0 2-.89 2-2V5c0-1.11-.89-2-2-2H5m9 4h5v2h-3v3h-3v3h-3v3H5v-2h3v-3h3v-3h3V7Z" transform="translate(216) scale(1.5)" id="mdi-stairs-box" fill="#555"/><path d="M5 3c-1.11 0-2 .89-2 2v14c0 1.11.89 2 2 2h14c1.11 0 2-.89 2-2V5c0-1.11-.89-2-2-2H5m9 4h5v2h-3v3h-3v3h-3v3H5v-2h3v-3h3v-3h3V7Z" transform="translate(252) scale(1.5)" id="mdi-stairs-box" fill="#fff"/><path d="M15 6h7v3h-4v4h-4v4h-4v4H3v-3h4v-4h4v-4h4V6M4.83 8.34l5.51-5.51 1.83 1.83-5.51 5.51L8.5 12H3V6.5l1.83 1.84Z" transform="translate(288) scale(1.5)" id="mdi-stairs-down" fill="#555"/><path d="M15 6h7v3h-4v4h-4v4h-4v4H3v-3h4v-4h4v-4h4V6M4.83 8.34l5.51-5.51 1.83 1.83-5.51 5.51L8.5 12H3V6.5l1.83 1.84Z" transform="translate(324) scale(1.5)" id="mdi-stairs-down" fill="#fff"/><path d="M15 6h7v3h-4v4h-4v4h-4v4H3v-3h4v-4h4v-4h4V6m-4.83.66-5.51 5.51-1.83-1.83 5.51-5.51L6.5 3H12v5.5l-1.83-1.84Z" transform="translate(360) scale(1.5)" id="mdi-stairs-up" fill="#555"/><path d="M15 6h7v3h-4v4h-4v4h-4v4H3v-3h4v-4h4v-4h4V6m-4.83.66-5.51 5.51-1.83-1.83 5.51-5.51L6.5 3H12v5.5l-1.83-1.84Z" transform="translate(396) scale(1.5)" id="mdi-stairs-up" fill="#fff"/><path d="M12 3a3 3 0 0 0-3 3c0 3 5 7-3 7a2 2 0 0 0-2 2v2h16v-2a2 2 0 0 0-2-2c-8 0-3-4-3-7 0-2-1.34-3-3-3M6 19v2h12v-2H6Z" transform="translate(432) scale(1.5)" id="mdi-stamper" fill="#555"/><path d="M12 3a3 3 0 0 0-3 3c0 3 5 7-3 7a2 2 0 0 0-2 2v2h16v-2a2 2 0 0 0-2-2c-8 0-3-4-3-7 0-2-1.34-3-3-3M6 19v2h12v-2H6Z" transform="translate(468) scale(1.5)" id="mdi-stamper" fill="#fff"/><path d="M13 7h3a3 3 0 0 1 3 3v4a3 3 0 0 1-3 3h-3V7m3 8a1 1 0 0 0 1-1v-4a1 1 0 0 0-1-1h-1v6h1M7 7h4v2H7v2h2a2 2 0 0 1 2 2v2a2 2 0 0 1-2 2H5v-2h4v-2H7a2 2 0 0 1-2-2V9a2 2 0 0 1 2-2Z" transform="translate(504) scale(1.5)" id="mdi-standard-definition" fill="#555"/><path d="M13 7h3a3 3 0 0 1 3 3v4a3 3 0 0 1-3 3h-3V7m3 8a1 1 0 0 0 1-1v-4a1 1 0 0 0-1-1h-1v6h1M7 7h4v2H7v2h2a2 2 0 0 1 2 2v2a2 2 0 0 1-2 2H5v-2h4v-2H7a2 2 0 0 1-2-2V9a2 2 0 0 1 2-2Z" transform="translate(540) scale(1.5)" id="mdi-standard-definition" fill="#fff"/><path d="M12 17.27 18.18 21l-1.64-7.03L22 9.24l-7.19-.62L12 2 9.19 8.62 2 9.24l5.45 4.73L5.82 21 12 17.27Z" transform="translate(576) scale(1.5)" id="mdi-star" fill="#555"/><path d="M12 17.27 18.18 21l-1.64-7.03L22 9.24l-7.19-.62L12 2 9.19 8.62 2 9.24l5.45 4.73L5.82 21 12 17.27Z" transform="translate(612) scale(1.5)" id="mdi-star" fill="#fff"/><path d="M19 3a2 2 0 0 1 2 2v14a2 2 0 0 1-2 2H5a2 2 0 0 1-2-2V5a2 2 0 0 1 2-2h14m-3.42 14-.95-4.08 3.16-2.73-4.17-.36L12 6l-1.62 3.84-4.17.36 3.16 2.73L8.42 17 12 14.84 15.58 17Z" transform="translate(648) scale(1.5)" id="mdi-star-box" fill="#555"/><path d="M19 3a2 2 0 0 1 2 2v14a2 2 0 0 1-2 2H5a2 2 0 0 1-2-2V5a2 2 0 0 1 2-2h14m-3.42 14-.95-4.08 3.16-2.73-4.17-.36L12 6l-1.62 3.84-4.17.36 3.16 2.73L8.42 17 12 14.84 15.58 17Z" transform="translate(684) scale(1.5)" id="mdi-star-box" fill="#fff"/><path d="M4 6v14h14v2H3c-.6 0-1-.4-1-1V6h2m4-4h12a2 2 0 0 1 2 2v12c0 1.11-.89 2-2 2H8a2 2 0 0 1-2-2V4c0-1.1.9-2 2-2m8.3 11.3-.4-2.6 1.9-1.9-2.6-.4L14 6l-1.2 2.4-2.6.4 1.9 1.8-.5 2.6L14 12l2.3 1.3Z" transform="matrix(1.5 0 0 1.5 0 36)" id="mdi-star-box-multiple" fill="#555"/><path d="M4 6v14h14v2H3c-.6 0-1-.4-1-1V6h2m4-4h12a2 2 0 0 1 2 2v12c0 1.11-.89 2-2 2H8a2 2 0 0 1-2-2V4c0-1.1.9-2 2-2m8.3 11.3-.4-2.6 1.9-1.9-2.6-.4L14 6l-1.2 2.4-2.6.4 1.9 1.8-.5 2.6L14 12l2.3 1.3Z" transform="matrix(1.5 0 0 1.5 36 36)" id="mdi-star-box-multiple" fill="#fff"/><path d="M4 6v14h14v2H3c-.6 0-1-.4-1-1V6h2m8.1 4.6-1.9-1.8 2.6-.4L14 6l1.2 2.4 2.6.4-1.9 1.9.4 2.6L14 12l-2.4 1.2.5-2.6M8 2h12a2 2 0 0 1 2 2v12c0 1.11-.89 2-2 2H8a2 2 0 0 1-2-2V4c0-1.1.9-2 2-2m0 2v12h12V4H8Z" transform="matrix(1.5 0 0 1.5 72 36)" id="mdi-star-box-multiple-outline" fill="#555"/><path d="M4 6v14h14v2H3c-.6 0-1-.4-1-1V6h2m8.1 4.6-1.9-1.8 2.6-.4L14 6l1.2 2.4 2.6.4-1.9 1.9.4 2.6L14 12l-2.4 1.2.5-2.6M8 2h12a2 2 0 0 1 2 2v12c0 1.11-.89 2-2 2H8a2 2 0 0 1-2-2V4c0-1.1.9-2 2-2m0 2v12h12V4H8Z" transform="matrix(1.5 0 0 1.5 108 36)" id="mdi-star-box-multiple-outline" fill="#fff"/><path d="M15.58 17 12 14.84 8.42 17l.95-4.07-3.16-2.73 4.17-.36L12 6l1.62 3.83 4.17.36-3.16 2.73.95 4.08M19 3a2 2 0 0 1 2 2v14a2 2 0 0 1-2 2H5a2 2 0 0 1-2-2V5a2 2 0 0 1 2-2h14M5 5v14h14V5H5Z" transform="matrix(1.5 0 0 1.5 144 36)" id="mdi-star-box-outline" fill="#555"/><path d="M15.58 17 12 14.84 8.42 17l.95-4.07-3.16-2.73 4.17-.36L12 6l1.62 3.83 4.17.36-3.16 2.73.95 4.08M19 3a2 2 0 0 1 2 2v14a2 2 0 0 1-2 2H5a2 2 0 0 1-2-2V5a2 2 0 0 1 2-2h14M5 5v14h14V5H5Z" transform="matrix(1.5 0 0 1.5 180 36)" id="mdi-star-box-outline" fill="#fff"/><path d="m5.8 21 1.6-7L2 9.2l7.2-.6L12 2l2.8 6.6 7.2.6-3.2 2.8H18c-3.1 0-5.6 2.3-6 5.3L5.8 21m12 .2 4.8-4.8-1.3-1.4-3.6 3.6-1.5-1.6-1.2 1.2 2.8 3" transform="matrix(1.5 0 0 1.5 216 36)" id="mdi-star-check" fill="#555"/><path d="m5.8 21 1.6-7L2 9.2l7.2-.6L12 2l2.8 6.6 7.2.6-3.2 2.8H18c-3.1 0-5.6 2.3-6 5.3L5.8 21m12 .2 4.8-4.8-1.3-1.4-3.6 3.6-1.5-1.6-1.2 1.2 2.8 3" transform="matrix(1.5 0 0 1.5 252 36)" id="mdi-star-check" fill="#fff"/><path d="m5.8 21 1.6-7L2 9.2l7.2-.6L12 2l2.8 6.6 7.2.6-3.2 2.8H18c-.7 0-1.4.1-2.1.4l2.2-1.9-4.4-.4-1.7-4-1.7 4-4.4.4 3.3 2.9-1 4.3 3.8-2.3.5.3c-.2.5-.4 1.1-.4 1.6L5.8 21m12 .2-2.8-3 1.2-1.2 1.6 1.6 3.6-3.6 1.2 1.4-4.8 4.8" transform="matrix(1.5 0 0 1.5 288 36)" id="mdi-star-check-outline" fill="#555"/><path d="m5.8 21 1.6-7L2 9.2l7.2-.6L12 2l2.8 6.6 7.2.6-3.2 2.8H18c-.7 0-1.4.1-2.1.4l2.2-1.9-4.4-.4-1.7-4-1.7 4-4.4.4 3.3 2.9-1 4.3 3.8-2.3.5.3c-.2.5-.4 1.1-.4 1.6L5.8 21m12 .2-2.8-3 1.2-1.2 1.6 1.6 3.6-3.6 1.2 1.4-4.8 4.8" transform="matrix(1.5 0 0 1.5 324 36)" id="mdi-star-check-outline" fill="#fff"/><path d="M16.23 18 12 15.45 7.77 18l1.12-4.81-3.73-3.23 4.92-.42L12 5l1.92 4.53 4.92.42-3.73 3.23L16.23 18M12 2C6.47 2 2 6.5 2 12a10 10 0 0 0 10 10 10 10 0 0 0 10-10A10 10 0 0 0 12 2Z" transform="matrix(1.5 0 0 1.5 360 36)" id="mdi-star-circle" fill="#555"/><path d="M16.23 18 12 15.45 7.77 18l1.12-4.81-3.73-3.23 4.92-.42L12 5l1.92 4.53 4.92.42-3.73 3.23L16.23 18M12 2C6.47 2 2 6.5 2 12a10 10 0 0 0 10 10 10 10 0 0 0 10-10A10 10 0 0 0 12 2Z" transform="matrix(1.5 0 0 1.5 396 36)" id="mdi-star-circle" fill="#fff"/><path d="m8.58 17.25.92-3.89-3-2.58 3.95-.37L12 6.8l1.55 3.65 3.95.33-3 2.58.92 3.89L12 15.19l-3.42 2.06M12 2a10 10 0 0 1 10 10 10 10 0 0 1-10 10A10 10 0 0 1 2 12 10 10 0 0 1 12 2m0 2a8 8 0 0 0-8 8 8 8 0 0 0 8 8 8 8 0 0 0 8-8 8 8 0 0 0-8-8Z" transform="matrix(1.5 0 0 1.5 432 36)" id="mdi-star-circle-outline" fill="#555"/><path d="m8.58 17.25.92-3.89-3-2.58 3.95-.37L12 6.8l1.55 3.65 3.95.33-3 2.58.92 3.89L12 15.19l-3.42 2.06M12 2a10 10 0 0 1 10 10 10 10 0 0 1-10 10A10 10 0 0 1 2 12 10 10 0 0 1 12 2m0 2a8 8 0 0 0-8 8 8 8 0 0 0 8 8 8 8 0 0 0 8-8 8 8 0 0 0-8-8Z" transform="matrix(1.5 0 0 1.5 468 36)" id="mdi-star-circle-outline" fill="#fff"/><path d="M18.8 12c-3.21.1-5.89 2.37-6.61 5.39l-.19-.12L5.82 21l1.63-7.03L2 9.24l7.19-.62L12 2l2.81 6.62 7.19.62L18.8 12m5.03 8.64-1 1.73c-.07.13-.2.13-.33.13l-1.23-.5c-.27.18-.54.34-.84.47l-.19 1.32c-.02.12-.13.21-.24.21h-2c-.14 0-.24-.09-.26-.21l-.19-1.32c-.31-.12-.59-.29-.85-.47l-1.24.5c-.12 0-.25 0-.31-.13l-1-1.73a.26.26 0 0 1 .06-.32l1.06-.82a4.193 4.193 0 0 1 0-1l-1.06-.82a.248.248 0 0 1-.06-.32l1-1.73c.07-.13.2-.13.31-.13l1.24.5c.26-.18.55-.34.85-.47l.19-1.32A.26.26 0 0 1 18 14h2c.11 0 .22.09.23.21l.19 1.32c.31.12.58.29.85.47l1.23-.5c.13 0 .26 0 .32.13l1 1.73c.06.11.03.24-.06.32l-1.06.82c.03.17.04.33.04.5s-.02.33-.04.5l1.07.82c.09.08.12.21.06.32M20.5 19c0-.83-.67-1.5-1.5-1.5s-1.5.67-1.5 1.5.66 1.5 1.5 1.5c.83 0 1.5-.67 1.5-1.5Z" transform="matrix(1.5 0 0 1.5 504 36)" id="mdi-star-cog" fill="#555"/><path d="M18.8 12c-3.21.1-5.89 2.37-6.61 5.39l-.19-.12L5.82 21l1.63-7.03L2 9.24l7.19-.62L12 2l2.81 6.62 7.19.62L18.8 12m5.03 8.64-1 1.73c-.07.13-.2.13-.33.13l-1.23-.5c-.27.18-.54.34-.84.47l-.19 1.32c-.02.12-.13.21-.24.21h-2c-.14 0-.24-.09-.26-.21l-.19-1.32c-.31-.12-.59-.29-.85-.47l-1.24.5c-.12 0-.25 0-.31-.13l-1-1.73a.26.26 0 0 1 .06-.32l1.06-.82a4.193 4.193 0 0 1 0-1l-1.06-.82a.248.248 0 0 1-.06-.32l1-1.73c.07-.13.2-.13.31-.13l1.24.5c.26-.18.55-.34.85-.47l.19-1.32A.26.26 0 0 1 18 14h2c.11 0 .22.09.23.21l.19 1.32c.31.12.58.29.85.47l1.23-.5c.13 0 .26 0 .32.13l1 1.73c.06.11.03.24-.06.32l-1.06.82c.03.17.04.33.04.5s-.02.33-.04.5l1.07.82c.09.08.12.21.06.32M20.5 19c0-.83-.67-1.5-1.5-1.5s-1.5.67-1.5 1.5.66 1.5 1.5 1.5c.83 0 1.5-.67 1.5-1.5Z" transform="matrix(1.5 0 0 1.5 540 36)" id="mdi-star-cog" fill="#fff"/><path d="m10.29 10.13-4.38.37 3.32 2.88-.99 4.28L12 15.39l.76.46c-.26.48-.44 1-.57 1.54l-.19-.12L5.82 21l1.63-7.03L2 9.24l7.19-.61L12 2l2.81 6.63 7.19.61L18.8 12a6.98 6.98 0 0 0-4.02 1.43l-.01-.05 3.32-2.88-4.38-.37L12 6.09l-1.71 4.04m13.54 10.51-1 1.73c-.07.13-.2.13-.33.13l-1.23-.5c-.27.18-.54.34-.84.47l-.19 1.32c-.02.12-.13.21-.24.21h-2c-.14 0-.24-.09-.26-.21l-.19-1.32c-.31-.12-.59-.29-.85-.47l-1.24.5c-.12 0-.25 0-.31-.13l-1-1.73a.26.26 0 0 1 .06-.32l1.06-.82a4.193 4.193 0 0 1 0-1l-1.06-.82a.248.248 0 0 1-.06-.32l1-1.73c.07-.13.2-.13.31-.13l1.24.5c.26-.18.55-.34.85-.47l.19-1.32A.26.26 0 0 1 18 14h2c.11 0 .22.09.23.21l.19 1.32c.31.12.58.29.85.47l1.23-.5c.13 0 .26 0 .32.13l1 1.73c.06.11.03.24-.06.32l-1.06.82c.03.17.04.33.04.5s-.02.33-.04.5l1.07.82c.09.08.12.21.06.32M20.5 19c0-.83-.67-1.5-1.5-1.5s-1.5.67-1.5 1.5.66 1.5 1.5 1.5c.83 0 1.5-.67 1.5-1.5Z" transform="matrix(1.5 0 0 1.5 576 36)" id="mdi-star-cog-outline" fill="#555"/><path d="m10.29 10.13-4.38.37 3.32 2.88-.99 4.28L12 15.39l.76.46c-.26.48-.44 1-.57 1.54l-.19-.12L5.82 21l1.63-7.03L2 9.24l7.19-.61L12 2l2.81 6.63 7.19.61L18.8 12a6.98 6.98 0 0 0-4.02 1.43l-.01-.05 3.32-2.88-4.38-.37L12 6.09l-1.71 4.04m13.54 10.51-1 1.73c-.07.13-.2.13-.33.13l-1.23-.5c-.27.18-.54.34-.84.47l-.19 1.32c-.02.12-.13.21-.24.21h-2c-.14 0-.24-.09-.26-.21l-.19-1.32c-.31-.12-.59-.29-.85-.47l-1.24.5c-.12 0-.25 0-.31-.13l-1-1.73a.26.26 0 0 1 .06-.32l1.06-.82a4.193 4.193 0 0 1 0-1l-1.06-.82a.248.248 0 0 1-.06-.32l1-1.73c.07-.13.2-.13.31-.13l1.24.5c.26-.18.55-.34.85-.47l.19-1.32A.26.26 0 0 1 18 14h2c.11 0 .22.09.23.21l.19 1.32c.31.12.58.29.85.47l1.23-.5c.13 0 .26 0 .32.13l1 1.73c.06.11.03.24-.06.32l-1.06.82c.03.17.04.33.04.5s-.02.33-.04.5l1.07.82c.09.08.12.21.06.32M20.5 19c0-.83-.67-1.5-1.5-1.5s-1.5.67-1.5 1.5.66 1.5 1.5 1.5c.83 0 1.5-.67 1.5-1.5Z" transform="matrix(1.5 0 0 1.5 612 36)" id="mdi-star-cog-outline" fill="#fff"/><path d="M12.3 2H12A10 10 0 0 0 2 12a10 10 0 0 0 10 10c3 0 4.7-1 6.5-2.5C13 21 8 17 8 12s5-9 10.5-7.5A8.56 8.56 0 0 0 12.3 2m4.5 4.2-1.5 3.5-3.7.3 2.9 2.5-.9 3.5 3.2-2 3.2 2-1-3.5 3-2.5-3.7-.3-1.5-3.5Z" transform="matrix(1.5 0 0 1.5 648 36)" id="mdi-star-crescent" fill="#555"/><path d="M12.3 2H12A10 10 0 0 0 2 12a10 10 0 0 0 10 10c3 0 4.7-1 6.5-2.5C13 21 8 17 8 12s5-9 10.5-7.5A8.56 8.56 0 0 0 12.3 2m4.5 4.2-1.5 3.5-3.7.3 2.9 2.5-.9 3.5 3.2-2 3.2 2-1-3.5 3-2.5-3.7-.3-1.5-3.5Z" transform="matrix(1.5 0 0 1.5 684 36)" id="mdi-star-crescent" fill="#fff"/><path d="M12 2 9.1 7H3.3l3 5-3 5h5.8l2.9 5 2.9-5h5.8l-3-5 3-5h-5.8L12 2m0 3 1.2 2h-2.4L12 5M8.2 8.5l-1.1 2-1.2-2h2.3m1.8 0h4l2 3.5-2 3.5h-4L8 12l2-3.5m8 0-1.2 2-1.1-2H18m-10.9 5 1.1 2H6l1.1-2m9.8 0 1.2 2h-2.3l1.1-2M13.3 17 12 19l-1.2-2h2.5Z" transform="matrix(1.5 0 0 1.5 0 72)" id="mdi-star-david" fill="#555"/><path d="M12 2 9.1 7H3.3l3 5-3 5h5.8l2.9 5 2.9-5h5.8l-3-5 3-5h-5.8L12 2m0 3 1.2 2h-2.4L12 5M8.2 8.5l-1.1 2-1.2-2h2.3m1.8 0h4l2 3.5-2 3.5h-4L8 12l2-3.5m8 0-1.2 2-1.1-2H18m-10.9 5 1.1 2H6l1.1-2m9.8 0 1.2 2h-2.3l1.1-2M13.3 17 12 19l-1.2-2h2.5Z" transform="matrix(1.5 0 0 1.5 36 72)" id="mdi-star-david" fill="#fff"/><path d="M12 2.5 8.42 8.06 2 9.74l4.2 5.14-.38 6.62L12 19.09l6.18 2.41-.38-6.62L22 9.74l-6.42-1.68L12 2.5m-2.62 8c.62 0 1.12.5 1.12 1.13a1.12 1.12 0 0 1-1.12 1.12c-.63 0-1.13-.5-1.13-1.12 0-.63.5-1.13 1.13-1.13m5.25 0c.62 0 1.12.5 1.12 1.13a1.12 1.12 0 0 1-1.12 1.12c-.63 0-1.13-.5-1.13-1.12 0-.63.5-1.13 1.13-1.13M9 15h6a3.249 3.249 0 0 1-6 0Z" transform="matrix(1.5 0 0 1.5 72 72)" id="mdi-star-face" fill="#555"/><path d="M12 2.5 8.42 8.06 2 9.74l4.2 5.14-.38 6.62L12 19.09l6.18 2.41-.38-6.62L22 9.74l-6.42-1.68L12 2.5m-2.62 8c.62 0 1.12.5 1.12 1.13a1.12 1.12 0 0 1-1.12 1.12c-.63 0-1.13-.5-1.13-1.12 0-.63.5-1.13 1.13-1.13m5.25 0c.62 0 1.12.5 1.12 1.13a1.12 1.12 0 0 1-1.12 1.12c-.63 0-1.13-.5-1.13-1.12 0-.63.5-1.13 1.13-1.13M9 15h6a3.249 3.249 0 0 1-6 0Z" transform="matrix(1.5 0 0 1.5 108 72)" id="mdi-star-face" fill="#fff"/><path d="M12 1 9 9l-8 3 8 3 3 8 3-8 8-3-8-3-3-8Z" transform="matrix(1.5 0 0 1.5 144 72)" id="mdi-star-four-points" fill="#555"/><path d="M12 1 9 9l-8 3 8 3 3 8 3-8 8-3-8-3-3-8Z" transform="matrix(1.5 0 0 1.5 180 72)" id="mdi-star-four-points" fill="#fff"/><path d="m12 6.7 1.45 3.85L17.3 12l-3.85 1.45L12 17.3l-1.45-3.85L6.7 12l3.85-1.45L12 6.7M12 1 9 9l-8 3 8 3 3 8 3-8 8-3-8-3-3-8Z" transform="matrix(1.5 0 0 1.5 216 72)" id="mdi-star-four-points-outline" fill="#555"/><path d="m12 6.7 1.45 3.85L17.3 12l-3.85 1.45L12 17.3l-1.45-3.85L6.7 12l3.85-1.45L12 6.7M12 1 9 9l-8 3 8 3 3 8 3-8 8-3-8-3-3-8Z" transform="matrix(1.5 0 0 1.5 252 72)" id="mdi-star-four-points-outline" fill="#fff"/><path d="M12 2 9.19 8.62 2 9.24l5.45 4.73L5.82 21 12 17.27V2Z" transform="matrix(1.5 0 0 1.5 288 72)" id="mdi-star-half" fill="#555"/><path d="M12 2 9.19 8.62 2 9.24l5.45 4.73L5.82 21 12 17.27V2Z" transform="matrix(1.5 0 0 1.5 324 72)" id="mdi-star-half" fill="#fff"/><path d="M12 15.4V6.1l1.71 4.03 4.38.37-3.32 2.89.99 4.28M22 9.24l-7.19-.61L12 2 9.19 8.63 2 9.24l5.45 4.73L5.82 21 12 17.27 18.18 21l-1.64-7.03L22 9.24Z" transform="matrix(1.5 0 0 1.5 360 72)" id="mdi-star-half-full" fill="#555"/><path d="M12 15.4V6.1l1.71 4.03 4.38.37-3.32 2.89.99 4.28M22 9.24l-7.19-.61L12 2 9.19 8.63 2 9.24l5.45 4.73L5.82 21 12 17.27 18.18 21l-1.64-7.03L22 9.24Z" transform="matrix(1.5 0 0 1.5 396 72)" id="mdi-star-half-full" fill="#fff"/><path d="m5.8 21 1.6-7L2 9.2l7.2-.6L12 2l2.8 6.6 7.2.6-3.2 2.8H18c-3.1 0-5.6 2.3-6 5.3L5.8 21m8.2-4v2h8v-2h-8Z" transform="matrix(1.5 0 0 1.5 432 72)" id="mdi-star-minus" fill="#555"/><path d="m5.8 21 1.6-7L2 9.2l7.2-.6L12 2l2.8 6.6 7.2.6-3.2 2.8H18c-3.1 0-5.6 2.3-6 5.3L5.8 21m8.2-4v2h8v-2h-8Z" transform="matrix(1.5 0 0 1.5 468 72)" id="mdi-star-minus" fill="#fff"/><path d="m5.8 21 1.6-7L2 9.2l7.2-.6L12 2l2.8 6.6 7.2.6-3.2 2.8H18c-.7 0-1.4.1-2.1.4l2.2-1.9-4.4-.4-1.7-4-1.7 4-4.4.4 3.3 2.9-1 4.3 3.8-2.3.5.3c-.2.5-.4 1.1-.4 1.6L5.8 21m8.2-4v2h8v-2h-8Z" transform="matrix(1.5 0 0 1.5 504 72)" id="mdi-star-minus-outline" fill="#555"/><path d="m5.8 21 1.6-7L2 9.2l7.2-.6L12 2l2.8 6.6 7.2.6-3.2 2.8H18c-.7 0-1.4.1-2.1.4l2.2-1.9-4.4-.4-1.7-4-1.7 4-4.4.4 3.3 2.9-1 4.3 3.8-2.3.5.3c-.2.5-.4 1.1-.4 1.6L5.8 21m8.2-4v2h8v-2h-8Z" transform="matrix(1.5 0 0 1.5 540 72)" id="mdi-star-minus-outline" fill="#fff"/><path d="m20.8 22.7-2.9-2.9.3 1.2-6.2-3.7L5.8 21l1.6-7L2 9.2l4.9-.4L1.1 3l1.3-1.3 19.7 19.7-1.3 1.3M22 9.2l-7.2-.6L12 2l-2 4.8 6.9 6.9L22 9.2Z" transform="matrix(1.5 0 0 1.5 576 72)" id="mdi-star-off" fill="#555"/><path d="m20.8 22.7-2.9-2.9.3 1.2-6.2-3.7L5.8 21l1.6-7L2 9.2l4.9-.4L1.1 3l1.3-1.3 19.7 19.7-1.3 1.3M22 9.2l-7.2-.6L12 2l-2 4.8 6.9 6.9L22 9.2Z" transform="matrix(1.5 0 0 1.5 612 72)" id="mdi-star-off" fill="#fff"/><path d="M22.1 21.5 2.4 1.7 1.1 3l5.8 5.8-4.9.4L7.5 14l-1.6 7 6.2-3.7 6.2 3.7-.3-1.2 2.9 2.9 1.2-1.2m-6.3-3.8L12 15.4l-3.8 2.3 1-4.3-3.3-2.9 2.5-.2 7.4 7.4M11.2 8 10 6.8 12 2l2.8 6.6 7.2.6-5.1 4.4-1.1-1.1 2.4-2-4.4-.4-1.7-4-.9 1.9Z" transform="matrix(1.5 0 0 1.5 648 72)" id="mdi-star-off-outline" fill="#555"/><path d="M22.1 21.5 2.4 1.7 1.1 3l5.8 5.8-4.9.4L7.5 14l-1.6 7 6.2-3.7 6.2 3.7-.3-1.2 2.9 2.9 1.2-1.2m-6.3-3.8L12 15.4l-3.8 2.3 1-4.3-3.3-2.9 2.5-.2 7.4 7.4M11.2 8 10 6.8 12 2l2.8 6.6 7.2.6-5.1 4.4-1.1-1.1 2.4-2-4.4-.4-1.7-4-.9 1.9Z" transform="matrix(1.5 0 0 1.5 684 72)" id="mdi-star-off-outline" fill="#fff"/><path d="m12 15.39-3.76 2.27.99-4.28-3.32-2.88 4.38-.37L12 6.09l1.71 4.04 4.38.37-3.32 2.88.99 4.28M22 9.24l-7.19-.61L12 2 9.19 8.63 2 9.24l5.45 4.73L5.82 21 12 17.27 18.18 21l-1.64-7.03L22 9.24Z" transform="matrix(1.5 0 0 1.5 0 108)" id="mdi-star-outline" fill="#555"/><path d="m12 15.39-3.76 2.27.99-4.28-3.32-2.88 4.38-.37L12 6.09l1.71 4.04 4.38.37-3.32 2.88.99 4.28M22 9.24l-7.19-.61L12 2 9.19 8.63 2 9.24l5.45 4.73L5.82 21 12 17.27 18.18 21l-1.64-7.03L22 9.24Z" transform="matrix(1.5 0 0 1.5 36 108)" id="mdi-star-outline" fill="#fff"/><path d="m5.8 21 1.6-7L2 9.2l7.2-.6L12 2l2.8 6.6 7.2.6-3.2 2.8H18c-3.1 0-5.6 2.3-6 5.3L5.8 21M17 14v3h-3v2h3v3h2v-3h3v-2h-3v-3h-2Z" transform="matrix(1.5 0 0 1.5 72 108)" id="mdi-star-plus" fill="#555"/><path d="m5.8 21 1.6-7L2 9.2l7.2-.6L12 2l2.8 6.6 7.2.6-3.2 2.8H18c-3.1 0-5.6 2.3-6 5.3L5.8 21M17 14v3h-3v2h3v3h2v-3h3v-2h-3v-3h-2Z" transform="matrix(1.5 0 0 1.5 108 108)" id="mdi-star-plus" fill="#fff"/><path d="m5.8 21 1.6-7L2 9.2l7.2-.6L12 2l2.8 6.6 7.2.6-3.2 2.8H18c-.7 0-1.4.1-2.1.4l2.2-1.9-4.4-.4-1.7-4-1.7 4-4.4.4 3.3 2.9-1 4.3 3.8-2.3.5.3c-.2.5-.4 1.1-.4 1.6L5.8 21M17 14v3h-3v2h3v3h2v-3h3v-2h-3v-3h-2Z" transform="matrix(1.5 0 0 1.5 144 108)" id="mdi-star-plus-outline" fill="#555"/><path d="m5.8 21 1.6-7L2 9.2l7.2-.6L12 2l2.8 6.6 7.2.6-3.2 2.8H18c-.7 0-1.4.1-2.1.4l2.2-1.9-4.4-.4-1.7-4-1.7 4-4.4.4 3.3 2.9-1 4.3 3.8-2.3.5.3c-.2.5-.4 1.1-.4 1.6L5.8 21M17 14v3h-3v2h3v3h2v-3h3v-2h-3v-3h-2Z" transform="matrix(1.5 0 0 1.5 180 108)" id="mdi-star-plus-outline" fill="#fff"/><path d="m5.8 21 1.6-7L2 9.2l7.2-.6L12 2l2.8 6.6 7.2.6-3.2 2.8H18c-3.1 0-5.6 2.3-6 5.3L5.8 21m14.3-6.5L18 16.6l-2.1-2.1-1.4 1.4 2.1 2.1-2.1 2.1 1.4 1.4 2.1-2.1 2.1 2.1 1.4-1.4-2.1-2.1 2.1-2.1-1.4-1.4Z" transform="matrix(1.5 0 0 1.5 216 108)" id="mdi-star-remove" fill="#555"/><path d="m5.8 21 1.6-7L2 9.2l7.2-.6L12 2l2.8 6.6 7.2.6-3.2 2.8H18c-3.1 0-5.6 2.3-6 5.3L5.8 21m14.3-6.5L18 16.6l-2.1-2.1-1.4 1.4 2.1 2.1-2.1 2.1 1.4 1.4 2.1-2.1 2.1 2.1 1.4-1.4-2.1-2.1 2.1-2.1-1.4-1.4Z" transform="matrix(1.5 0 0 1.5 252 108)" id="mdi-star-remove" fill="#fff"/><path d="m5.8 21 1.6-7L2 9.2l7.2-.6L12 2l2.8 6.6 7.2.6-3.2 2.8H18c-.7 0-1.4.1-2.1.4l2.2-1.9-4.4-.4-1.7-4-1.7 4-4.4.4 3.3 2.9-1 4.3 3.8-2.3.5.3c-.2.5-.4 1.1-.4 1.6L5.8 21m14.3-6.5L18 16.6l-2.1-2.1-1.4 1.4 2.1 2.1-2.1 2.1 1.4 1.4 2.1-2.1 2.1 2.1 1.4-1.4-2.1-2.1 2.1-2.1-1.4-1.4Z" transform="matrix(1.5 0 0 1.5 288 108)" id="mdi-star-remove-outline" fill="#555"/><path d="m5.8 21 1.6-7L2 9.2l7.2-.6L12 2l2.8 6.6 7.2.6-3.2 2.8H18c-.7 0-1.4.1-2.1.4l2.2-1.9-4.4-.4-1.7-4-1.7 4-4.4.4 3.3 2.9-1 4.3 3.8-2.3.5.3c-.2.5-.4 1.1-.4 1.6L5.8 21m14.3-6.5L18 16.6l-2.1-2.1-1.4 1.4 2.1 2.1-2.1 2.1 1.4 1.4 2.1-2.1 2.1 2.1 1.4-1.4-2.1-2.1 2.1-2.1-1.4-1.4Z" transform="matrix(1.5 0 0 1.5 324 108)" id="mdi-star-remove-outline" fill="#fff"/><path d="M7 22h2v2H7v-2m4 2h2v-2h-2v2m4 0h2v-2h-2v2m7-14.76-7.19-.62L12 2 9.19 8.62 2 9.24l5.45 4.73L5.82 21 12 17.27 18.18 21l-1.64-7.03L22 9.24Z" transform="matrix(1.5 0 0 1.5 360 108)" id="mdi-star-settings" fill="#555"/><path d="M7 22h2v2H7v-2m4 2h2v-2h-2v2m4 0h2v-2h-2v2m7-14.76-7.19-.62L12 2 9.19 8.62 2 9.24l5.45 4.73L5.82 21 12 17.27 18.18 21l-1.64-7.03L22 9.24Z" transform="matrix(1.5 0 0 1.5 396 108)" id="mdi-star-settings" fill="#fff"/><path d="M11 22h2v2h-2v-2m-4 2h2v-2H7v2m8 0h2v-2h-2v2m1.54-10.03L18.18 21 12 17.27 5.82 21l1.63-7.03L2 9.24l7.19-.61L12 2l2.81 6.63 7.19.61-5.46 4.73m-.78 3.69-.99-4.28 3.32-2.88-4.38-.37L12 6.09l-1.71 4.04-4.38.37 3.32 2.88-.99 4.28L12 15.39l3.76 2.27Z" transform="matrix(1.5 0 0 1.5 432 108)" id="mdi-star-settings-outline" fill="#555"/><path d="M11 22h2v2h-2v-2m-4 2h2v-2H7v2m8 0h2v-2h-2v2m1.54-10.03L18.18 21 12 17.27 5.82 21l1.63-7.03L2 9.24l7.19-.61L12 2l2.81 6.63 7.19.61-5.46 4.73m-.78 3.69-.99-4.28 3.32-2.88-4.38-.37L12 6.09l-1.71 4.04-4.38.37 3.32 2.88-.99 4.28L12 15.39l3.76 2.27Z" transform="matrix(1.5 0 0 1.5 468 108)" id="mdi-star-settings-outline" fill="#fff"/><path d="m18.09 11.77 1.47 6.33L14 14.74 8.44 18.1l1.46-6.33L5 7.5l6.47-.54L14 1l2.53 5.96L23 7.5l-4.91 4.27M2 12.43c.19 0 .38-.06.55-.17l3.2-2.11-1.57-1.36-2.73 1.8c-.461.3-.589.91-.29 1.41.2.27.52.43.84.43m-.84 9.12c.2.29.52.45.84.45.19 0 .38-.05.55-.16l4.11-2.71.34-1.37.31-1.45-5.86 3.85c-.461.31-.589.93-.29 1.39m.29-6.17a1 1 0 0 0-.29 1.38c.2.3.52.45.84.45.19 0 .38-.05.55-.16l5.42-3.55.27-1.19-.92-.81-5.87 3.88Z" transform="matrix(1.5 0 0 1.5 504 108)" id="mdi-star-shooting" fill="#555"/><path d="m18.09 11.77 1.47 6.33L14 14.74 8.44 18.1l1.46-6.33L5 7.5l6.47-.54L14 1l2.53 5.96L23 7.5l-4.91 4.27M2 12.43c.19 0 .38-.06.55-.17l3.2-2.11-1.57-1.36-2.73 1.8c-.461.3-.589.91-.29 1.41.2.27.52.43.84.43m-.84 9.12c.2.29.52.45.84.45.19 0 .38-.05.55-.16l4.11-2.71.34-1.37.31-1.45-5.86 3.85c-.461.31-.589.93-.29 1.39m.29-6.17a1 1 0 0 0-.29 1.38c.2.3.52.45.84.45.19 0 .38-.05.55-.16l5.42-3.55.27-1.19-.92-.81-5.87 3.88Z" transform="matrix(1.5 0 0 1.5 540 108)" id="mdi-star-shooting" fill="#fff"/><path d="m23 7.5-6.47-.54L14 1l-2.53 5.96L5 7.5l4.9 4.27-1.46 6.33L14 14.74l5.56 3.36-1.47-6.33L23 7.5m-6.86 4.73.4 1.71-1.51-.91-1.03-.62-1.03.62-1.51.91.39-1.71.28-1.18-.91-.79L9.88 9.1l1.76-.15 1.2-.1.47-1.11.69-1.62.69 1.62.47 1.11 1.2.1 1.75.15-1.33 1.16-.92.79.28 1.18M1.16 12c-.299-.5-.171-1.11.29-1.41l2.73-1.8 1.57 1.36-3.2 2.11c-.17.11-.36.17-.55.17-.32 0-.64-.16-.84-.43m.29 8.16 5.86-3.85L7 17.76l-.34 1.37-4.11 2.71c-.17.11-.36.16-.55.16-.32 0-.64-.16-.84-.45a1.013 1.013 0 0 1 .29-1.39m5.87-8.66.92.81-.27 1.19-5.42 3.55c-.17.11-.36.16-.55.16-.32 0-.64-.15-.84-.45a1 1 0 0 1 .29-1.38l5.87-3.88Z" transform="matrix(1.5 0 0 1.5 576 108)" id="mdi-star-shooting-outline" fill="#555"/><path d="m23 7.5-6.47-.54L14 1l-2.53 5.96L5 7.5l4.9 4.27-1.46 6.33L14 14.74l5.56 3.36-1.47-6.33L23 7.5m-6.86 4.73.4 1.71-1.51-.91-1.03-.62-1.03.62-1.51.91.39-1.71.28-1.18-.91-.79L9.88 9.1l1.76-.15 1.2-.1.47-1.11.69-1.62.69 1.62.47 1.11 1.2.1 1.75.15-1.33 1.16-.92.79.28 1.18M1.16 12c-.299-.5-.171-1.11.29-1.41l2.73-1.8 1.57 1.36-3.2 2.11c-.17.11-.36.17-.55.17-.32 0-.64-.16-.84-.43m.29 8.16 5.86-3.85L7 17.76l-.34 1.37-4.11 2.71c-.17.11-.36.16-.55.16-.32 0-.64-.16-.84-.45a1.013 1.013 0 0 1 .29-1.39m5.87-8.66.92.81-.27 1.19-5.42 3.55c-.17.11-.36.16-.55.16-.32 0-.64-.15-.84-.45a1 1 0 0 1 .29-1.38l5.87-3.88Z" transform="matrix(1.5 0 0 1.5 612 108)" id="mdi-star-shooting-outline" fill="#fff"/><path d="m12 2.6-3 9.8-7 7.5 10-2.3L22 20l-7-7.5-3-9.9Z" transform="matrix(1.5 0 0 1.5 648 108)" id="mdi-star-three-points" fill="#555"/><path d="m12 2.6-3 9.8-7 7.5 10-2.3L22 20l-7-7.5-3-9.9Z" transform="matrix(1.5 0 0 1.5 684 108)" id="mdi-star-three-points" fill="#fff"/><path d="m12 9.5 1.2 4 2.8 3-4-.9-4.1.9 2.8-3 1.3-4m0-6.9-3 9.8-7 7.5 10-2.3L22 20l-7-7.5-3-9.9Z" transform="matrix(1.5 0 0 1.5 0 144)" id="mdi-star-three-points-outline" fill="#555"/><path d="m12 9.5 1.2 4 2.8 3-4-.9-4.1.9 2.8-3 1.3-4m0-6.9-3 9.8-7 7.5 10-2.3L22 20l-7-7.5-3-9.9Z" transform="matrix(1.5 0 0 1.5 36 144)" id="mdi-star-three-points-outline" fill="#fff"/><path d="M6.27 17.05A2.991 2.991 0 0 1 4 22c-1.66 0-3-1.34-3-3s1.34-3 3-3c.18 0 .36 0 .53.05l3.07-5.36-1.74-.99 4.09-1.12 1.12 4.09-1.74-.99-3.06 5.37M20 16c-1.3 0-2.4.84-2.82 2H11v-2l-3 3 3 3v-2h6.18c.42 1.16 1.52 2 2.82 2 1.66 0 3-1.34 3-3s-1.34-3-3-3m-8-8c.18 0 .36 0 .53-.05l3.07 5.36-1.74.99 4.09 1.12 1.12-4.09-1.74.99-3.06-5.37A2.991 2.991 0 0 0 12 2c-1.66 0-3 1.34-3 3s1.34 3 3 3Z" transform="matrix(1.5 0 0 1.5 72 144)" id="mdi-state-machine" fill="#555"/><path d="M6.27 17.05A2.991 2.991 0 0 1 4 22c-1.66 0-3-1.34-3-3s1.34-3 3-3c.18 0 .36 0 .53.05l3.07-5.36-1.74-.99 4.09-1.12 1.12 4.09-1.74-.99-3.06 5.37M20 16c-1.3 0-2.4.84-2.82 2H11v-2l-3 3 3 3v-2h6.18c.42 1.16 1.52 2 2.82 2 1.66 0 3-1.34 3-3s-1.34-3-3-3m-8-8c.18 0 .36 0 .53-.05l3.07 5.36-1.74.99 4.09 1.12 1.12-4.09-1.74.99-3.06-5.37A2.991 2.991 0 0 0 12 2c-1.66 0-3 1.34-3 3s1.34 3 3 3Z" transform="matrix(1.5 0 0 1.5 108 144)" id="mdi-state-machine" fill="#fff"/><path d="M12 2a10 10 0 0 1 10 10 10 10 0 0 1-10 10c-4.6 0-8.45-3.08-9.64-7.27l3.83 1.58a2.843 2.843 0 0 0 2.78 2.27c1.56 0 2.83-1.27 2.83-2.83v-.13l3.4-2.43h.08c2.08 0 3.77-1.69 3.77-3.77s-1.69-3.77-3.77-3.77-3.78 1.69-3.78 3.77v.05l-2.37 3.46-.16-.01c-.59 0-1.14.18-1.59.49L2 11.2C2.43 6.05 6.73 2 12 2M8.28 17.17c.8.33 1.72-.04 2.05-.84.33-.8-.05-1.71-.83-2.04l-1.28-.53c.49-.18 1.04-.19 1.56.03.53.21.94.62 1.15 1.15.22.52.22 1.1 0 1.62-.43 1.08-1.7 1.6-2.78 1.15-.5-.21-.88-.59-1.09-1.04l1.22.5m9.52-7.75c0 1.39-1.13 2.52-2.52 2.52a2.52 2.52 0 0 1-2.51-2.52 2.5 2.5 0 0 1 2.51-2.51 2.52 2.52 0 0 1 2.52 2.51m-4.4 0c0 1.04.84 1.89 1.89 1.89 1.04 0 1.88-.85 1.88-1.89s-.84-1.89-1.88-1.89c-1.05 0-1.89.85-1.89 1.89Z" transform="matrix(1.5 0 0 1.5 144 144)" id="mdi-steam" fill="#555"/><path d="M12 2a10 10 0 0 1 10 10 10 10 0 0 1-10 10c-4.6 0-8.45-3.08-9.64-7.27l3.83 1.58a2.843 2.843 0 0 0 2.78 2.27c1.56 0 2.83-1.27 2.83-2.83v-.13l3.4-2.43h.08c2.08 0 3.77-1.69 3.77-3.77s-1.69-3.77-3.77-3.77-3.78 1.69-3.78 3.77v.05l-2.37 3.46-.16-.01c-.59 0-1.14.18-1.59.49L2 11.2C2.43 6.05 6.73 2 12 2M8.28 17.17c.8.33 1.72-.04 2.05-.84.33-.8-.05-1.71-.83-2.04l-1.28-.53c.49-.18 1.04-.19 1.56.03.53.21.94.62 1.15 1.15.22.52.22 1.1 0 1.62-.43 1.08-1.7 1.6-2.78 1.15-.5-.21-.88-.59-1.09-1.04l1.22.5m9.52-7.75c0 1.39-1.13 2.52-2.52 2.52a2.52 2.52 0 0 1-2.51-2.52 2.5 2.5 0 0 1 2.51-2.51 2.52 2.52 0 0 1 2.52 2.51m-4.4 0c0 1.04.84 1.89 1.89 1.89 1.04 0 1.88-.85 1.88-1.89s-.84-1.89-1.88-1.89c-1.05 0-1.89.85-1.89 1.89Z" transform="matrix(1.5 0 0 1.5 180 144)" id="mdi-steam" fill="#fff"/><path d="M13 19.92c1.8-.22 3.35-.97 4.65-2.27 1.3-1.3 2.05-2.85 2.27-4.65h-3c-.22 1-.68 1.84-1.38 2.54-.7.7-1.54 1.16-2.54 1.38v3M10 8h4l3 3h2.92c-.25-1.95-1.13-3.62-2.65-5C15.76 4.66 14 4 12 4c-2 0-3.76.66-5.27 2-1.52 1.38-2.4 3.05-2.65 5H7l3-3m1 11.92v-3c-1-.22-1.84-.68-2.54-1.38-.7-.7-1.16-1.54-1.38-2.54h-3c.22 1.77.97 3.3 2.27 4.6 1.3 1.3 2.85 2.07 4.65 2.32M12 2c2.75 0 5.1 1 7.05 2.95C21 6.9 22 9.25 22 12s-1 5.1-2.95 7.05C17.1 21 14.75 22 12 22s-5.1-1-7.05-2.95C3 17.1 2 14.75 2 12s1-5.1 2.95-7.05C6.9 3 9.25 2 12 2Z" transform="matrix(1.5 0 0 1.5 216 144)" id="mdi-steering" fill="#555"/><path d="M13 19.92c1.8-.22 3.35-.97 4.65-2.27 1.3-1.3 2.05-2.85 2.27-4.65h-3c-.22 1-.68 1.84-1.38 2.54-.7.7-1.54 1.16-2.54 1.38v3M10 8h4l3 3h2.92c-.25-1.95-1.13-3.62-2.65-5C15.76 4.66 14 4 12 4c-2 0-3.76.66-5.27 2-1.52 1.38-2.4 3.05-2.65 5H7l3-3m1 11.92v-3c-1-.22-1.84-.68-2.54-1.38-.7-.7-1.16-1.54-1.38-2.54h-3c.22 1.77.97 3.3 2.27 4.6 1.3 1.3 2.85 2.07 4.65 2.32M12 2c2.75 0 5.1 1 7.05 2.95C21 6.9 22 9.25 22 12s-1 5.1-2.95 7.05C17.1 21 14.75 22 12 22s-5.1-1-7.05-2.95C3 17.1 2 14.75 2 12s1-5.1 2.95-7.05C6.9 3 9.25 2 12 2Z" transform="matrix(1.5 0 0 1.5 252 144)" id="mdi-steering" fill="#fff"/><path d="M2 5.27 3.28 4 20 20.72 18.73 22l-1.48-1.5c-1.55 1-3.3 1.5-5.25 1.5-2.75 0-5.1-1-7.05-2.95C3 17.1 2 14.75 2 12c0-1.95.5-3.7 1.5-5.25L2 5.27m11 14.65c1-.12 1.93-.42 2.78-.87l-2.28-2.27c-.16.06-.34.1-.5.14v3M4.08 11H7l.37-.37-2.41-2.4A7.89 7.89 0 0 0 4.08 11m15.84 2h-3c-.12.54-.32 1.05-.59 1.5L9.91 8.09 10 8h4l3 3h2.92c-.25-1.95-1.13-3.62-2.65-5C15.76 4.66 14 4 12 4c-1.74 0-3.29.5-4.66 1.5L5.91 4.09C7.66 2.71 9.69 2 12 2c2.75 0 5.1 1 7.05 2.95C21 6.9 22 9.25 22 12c0 2.31-.71 4.34-2.09 6.09l-1.41-1.42A7.726 7.726 0 0 0 19.92 13M11 19.92v-3c-1-.22-1.84-.68-2.54-1.38-.7-.7-1.16-1.54-1.38-2.54h-3c.22 1.77.97 3.3 2.27 4.6 1.3 1.3 2.85 2.07 4.65 2.32Z" transform="matrix(1.5 0 0 1.5 288 144)" id="mdi-steering-off" fill="#555"/><path d="M2 5.27 3.28 4 20 20.72 18.73 22l-1.48-1.5c-1.55 1-3.3 1.5-5.25 1.5-2.75 0-5.1-1-7.05-2.95C3 17.1 2 14.75 2 12c0-1.95.5-3.7 1.5-5.25L2 5.27m11 14.65c1-.12 1.93-.42 2.78-.87l-2.28-2.27c-.16.06-.34.1-.5.14v3M4.08 11H7l.37-.37-2.41-2.4A7.89 7.89 0 0 0 4.08 11m15.84 2h-3c-.12.54-.32 1.05-.59 1.5L9.91 8.09 10 8h4l3 3h2.92c-.25-1.95-1.13-3.62-2.65-5C15.76 4.66 14 4 12 4c-1.74 0-3.29.5-4.66 1.5L5.91 4.09C7.66 2.71 9.69 2 12 2c2.75 0 5.1 1 7.05 2.95C21 6.9 22 9.25 22 12c0 2.31-.71 4.34-2.09 6.09l-1.41-1.42A7.726 7.726 0 0 0 19.92 13M11 19.92v-3c-1-.22-1.84-.68-2.54-1.38-.7-.7-1.16-1.54-1.38-2.54h-3c.22 1.77.97 3.3 2.27 4.6 1.3 1.3 2.85 2.07 4.65 2.32Z" transform="matrix(1.5 0 0 1.5 324 144)" id="mdi-steering-off" fill="#fff"/><path d="M19 5v14h-3V5m-2 0v14L3 12" transform="matrix(1.5 0 0 1.5 360 144)" id="mdi-step-backward" fill="#555"/><path d="M19 5v14h-3V5m-2 0v14L3 12" transform="matrix(1.5 0 0 1.5 396 144)" id="mdi-step-backward" fill="#fff"/><path d="M17 5h-3v14h3V5m-5 0L1 12l11 7V5m10 0h-3v14h3V5Z" transform="matrix(1.5 0 0 1.5 432 144)" id="mdi-step-backward-2" fill="#555"/><path d="M17 5h-3v14h3V5m-5 0L1 12l11 7V5m10 0h-3v14h3V5Z" transform="matrix(1.5 0 0 1.5 468 144)" id="mdi-step-backward-2" fill="#fff"/><path d="M5 5v14h3V5m2 0v14l11-7" transform="matrix(1.5 0 0 1.5 504 144)" id="mdi-step-forward" fill="#555"/><path d="M5 5v14h3V5m2 0v14l11-7" transform="matrix(1.5 0 0 1.5 540 144)" id="mdi-step-forward" fill="#fff"/><path d="M7 5h3v14H7V5m5 0 11 7-11 7V5M2 5h3v14H2V5Z" transform="matrix(1.5 0 0 1.5 576 144)" id="mdi-step-forward-2" fill="#555"/><path d="M7 5h3v14H7V5m5 0 11 7-11 7V5M2 5h3v14H2V5Z" transform="matrix(1.5 0 0 1.5 612 144)" id="mdi-step-forward-2" fill="#fff"/><path d="M19 8c.56 0 1 .43 1 1a1 1 0 0 1-1 1c-.57 0-1-.45-1-1 0-.57.43-1 1-1M2 2v9c0 2.96 2.19 5.5 5.14 5.91.62 3.01 3.28 5.09 6.36 5.09a6.5 6.5 0 0 0 6.5-6.5v-3.69c1.16-.42 2-1.52 2-2.81a3 3 0 0 0-3-3 3 3 0 0 0-3 3c0 1.29.84 2.4 2 2.81v3.6c0 2.5-2 4.5-4.5 4.5-2 0-3.68-1.21-4.28-3.01C12 16.3 14 13.8 14 11V2h-4v3h2v6a4 4 0 0 1-4 4 4 4 0 0 1-4-4V5h2V2H2Z" transform="matrix(1.5 0 0 1.5 648 144)" id="mdi-stethoscope" fill="#555"/><path d="M19 8c.56 0 1 .43 1 1a1 1 0 0 1-1 1c-.57 0-1-.45-1-1 0-.57.43-1 1-1M2 2v9c0 2.96 2.19 5.5 5.14 5.91.62 3.01 3.28 5.09 6.36 5.09a6.5 6.5 0 0 0 6.5-6.5v-3.69c1.16-.42 2-1.52 2-2.81a3 3 0 0 0-3-3 3 3 0 0 0-3 3c0 1.29.84 2.4 2 2.81v3.6c0 2.5-2 4.5-4.5 4.5-2 0-3.68-1.21-4.28-3.01C12 16.3 14 13.8 14 11V2h-4v3h2v6a4 4 0 0 1-4 4 4 4 0 0 1-4-4V5h2V2H2Z" transform="matrix(1.5 0 0 1.5 684 144)" id="mdi-stethoscope" fill="#fff"/><path d="M18.5 2h-13C3.6 2 2 3.6 2 5.5v13C2 20.4 3.6 22 5.5 22H16l6-6V5.5C22 3.6 20.4 2 18.5 2M15 20v-1.5c0-1.9 1.6-3.5 3.5-3.5H20l-5 5Z" transform="matrix(1.5 0 0 1.5 0 180)" id="mdi-sticker" fill="#555"/><path d="M18.5 2h-13C3.6 2 2 3.6 2 5.5v13C2 20.4 3.6 22 5.5 22H16l6-6V5.5C22 3.6 20.4 2 18.5 2M15 20v-1.5c0-1.9 1.6-3.5 3.5-3.5H20l-5 5Z" transform="matrix(1.5 0 0 1.5 36 180)" id="mdi-sticker" fill="#fff"/><path d="M18.5 2h-13C3.6 2 2 3.6 2 5.5v13C2 20.4 3.6 22 5.5 22H16l6-6V5.5C22 3.6 20.4 2 18.5 2M13 17h-2v-2h2v1m0-3h-2V7h2v5m2 8v-1.5c0-1.9 1.6-3.5 3.5-3.5H20l-5 5Z" transform="matrix(1.5 0 0 1.5 72 180)" id="mdi-sticker-alert" fill="#555"/><path d="M18.5 2h-13C3.6 2 2 3.6 2 5.5v13C2 20.4 3.6 22 5.5 22H16l6-6V5.5C22 3.6 20.4 2 18.5 2M13 17h-2v-2h2v1m0-3h-2V7h2v5m2 8v-1.5c0-1.9 1.6-3.5 3.5-3.5H20l-5 5Z" transform="matrix(1.5 0 0 1.5 108 180)" id="mdi-sticker-alert" fill="#fff"/><path d="M11 15h2v2h-2v-2m0-2h2V7h-2v6m11-7.5V16l-6 6H5.5C3.6 22 2 20.4 2 18.5v-13C2 3.6 3.6 2 5.5 2h13C20.4 2 22 3.6 22 5.5m-2 .3c0-1-.8-1.8-1.8-1.8H5.8C4.8 4 4 4.8 4 5.8v12.5c0 1 .8 1.8 1.8 1.8H15v-1.5c0-1.9 1.6-3.5 3.5-3.5H20V5.8Z" transform="matrix(1.5 0 0 1.5 144 180)" id="mdi-sticker-alert-outline" fill="#555"/><path d="M11 15h2v2h-2v-2m0-2h2V7h-2v6m11-7.5V16l-6 6H5.5C3.6 22 2 20.4 2 18.5v-13C2 3.6 3.6 2 5.5 2h13C20.4 2 22 3.6 22 5.5m-2 .3c0-1-.8-1.8-1.8-1.8H5.8C4.8 4 4 4.8 4 5.8v12.5c0 1 .8 1.8 1.8 1.8H15v-1.5c0-1.9 1.6-3.5 3.5-3.5H20V5.8Z" transform="matrix(1.5 0 0 1.5 180 180)" id="mdi-sticker-alert-outline" fill="#fff"/><path d="M18.5 2h-13C3.6 2 2 3.6 2 5.5v13C2 20.4 3.6 22 5.5 22H16l6-6V5.5C22 3.6 20.4 2 18.5 2M7 12.5l1.3-1.4 2.1 2.1L15.6 8 17 9.4 10.5 16 7 12.5m8 7.5v-1.5c0-1.9 1.6-3.5 3.5-3.5H20l-5 5Z" transform="matrix(1.5 0 0 1.5 216 180)" id="mdi-sticker-check" fill="#555"/><path d="M18.5 2h-13C3.6 2 2 3.6 2 5.5v13C2 20.4 3.6 22 5.5 22H16l6-6V5.5C22 3.6 20.4 2 18.5 2M7 12.5l1.3-1.4 2.1 2.1L15.6 8 17 9.4 10.5 16 7 12.5m8 7.5v-1.5c0-1.9 1.6-3.5 3.5-3.5H20l-5 5Z" transform="matrix(1.5 0 0 1.5 252 180)" id="mdi-sticker-check" fill="#fff"/><path d="M18.5 2h-13C3.6 2 2 3.6 2 5.5v13C2 20.4 3.6 22 5.5 22H16l6-6V5.5C22 3.6 20.4 2 18.5 2M20 15h-1.5c-1.9 0-3.5 1.6-3.5 3.5V20H5.8c-1 0-1.8-.8-1.8-1.8V5.8C4 4.8 4.8 4 5.8 4h12.5c1 0 1.8.8 1.8 1.8V15m-4.9-6.8 1.5 1.5-6 6-3.5-3.5 1.5-1.5 2 2 4.5-4.5Z" transform="matrix(1.5 0 0 1.5 288 180)" id="mdi-sticker-check-outline" fill="#555"/><path d="M18.5 2h-13C3.6 2 2 3.6 2 5.5v13C2 20.4 3.6 22 5.5 22H16l6-6V5.5C22 3.6 20.4 2 18.5 2M20 15h-1.5c-1.9 0-3.5 1.6-3.5 3.5V20H5.8c-1 0-1.8-.8-1.8-1.8V5.8C4 4.8 4.8 4 5.8 4h12.5c1 0 1.8.8 1.8 1.8V15m-4.9-6.8 1.5 1.5-6 6-3.5-3.5 1.5-1.5 2 2 4.5-4.5Z" transform="matrix(1.5 0 0 1.5 324 180)" id="mdi-sticker-check-outline" fill="#fff"/><path d="m12.12 18.46 6.18-6.18c-1.36.31-2.99.92-4.23 2.18-1.03 1.04-1.68 2.37-1.95 4M20.75 10h.3c.39 0 .74.27.88.64.14.36.07.79-.23 1.07l-10 10c-.2.19-.44.29-.7.29l-.36-.07c-.37-.14-.64-.49-.64-.88-.16-3.39.73-6.09 2.66-8.02C15.5 10.2 19.62 10 20.75 10M12 2c4.5 0 8.34 3 9.58 7.11L20 9h-.58C18.24 6.07 15.36 4 12 4a8 8 0 0 0-8 8c0 3.36 2.07 6.24 5 7.42-.03.71 0 1.43.11 2.15C5 20.33 2 16.5 2 12 2 6.47 6.5 2 12 2Z" transform="matrix(1.5 0 0 1.5 360 180)" id="mdi-sticker-circle-outline" fill="#555"/><path d="m12.12 18.46 6.18-6.18c-1.36.31-2.99.92-4.23 2.18-1.03 1.04-1.68 2.37-1.95 4M20.75 10h.3c.39 0 .74.27.88.64.14.36.07.79-.23 1.07l-10 10c-.2.19-.44.29-.7.29l-.36-.07c-.37-.14-.64-.49-.64-.88-.16-3.39.73-6.09 2.66-8.02C15.5 10.2 19.62 10 20.75 10M12 2c4.5 0 8.34 3 9.58 7.11L20 9h-.58C18.24 6.07 15.36 4 12 4a8 8 0 0 0-8 8c0 3.36 2.07 6.24 5 7.42-.03.71 0 1.43.11 2.15C5 20.33 2 16.5 2 12 2 6.47 6.5 2 12 2Z" transform="matrix(1.5 0 0 1.5 396 180)" id="mdi-sticker-circle-outline" fill="#fff"/><path d="M5.5 2C3.56 2 2 3.56 2 5.5v13C2 20.44 3.56 22 5.5 22H16l6-6V5.5C22 3.56 20.44 2 18.5 2h-13m.25 2h12.5A1.75 1.75 0 0 1 20 5.75V15h-1.5c-1.94 0-3.5 1.56-3.5 3.5V20H5.75A1.75 1.75 0 0 1 4 18.25V5.75A1.75 1.75 0 0 1 5.75 4m8.69 2.77c-.16 0-.32.02-.47.06-.94.26-1.47 1.22-1.23 2.17.05.15.12.3.21.44l3.23-.88c0-.17-.02-.34-.06-.51-.21-.75-.9-1.28-1.68-1.28M8.17 8.5c-.17 0-.32 0-.47.05-.93.26-1.48 1.22-1.23 2.15.03.16.12.3.21.46l3.23-.88c0-.17-.02-.34-.06-.5A1.72 1.72 0 0 0 8.17 8.5m8.55 2.76-9.13 2.51a5.266 5.266 0 0 0 5.36 1.64 5.273 5.273 0 0 0 3.77-4.15Z" transform="matrix(1.5 0 0 1.5 432 180)" id="mdi-sticker-emoji" fill="#555"/><path d="M5.5 2C3.56 2 2 3.56 2 5.5v13C2 20.44 3.56 22 5.5 22H16l6-6V5.5C22 3.56 20.44 2 18.5 2h-13m.25 2h12.5A1.75 1.75 0 0 1 20 5.75V15h-1.5c-1.94 0-3.5 1.56-3.5 3.5V20H5.75A1.75 1.75 0 0 1 4 18.25V5.75A1.75 1.75 0 0 1 5.75 4m8.69 2.77c-.16 0-.32.02-.47.06-.94.26-1.47 1.22-1.23 2.17.05.15.12.3.21.44l3.23-.88c0-.17-.02-.34-.06-.51-.21-.75-.9-1.28-1.68-1.28M8.17 8.5c-.17 0-.32 0-.47.05-.93.26-1.48 1.22-1.23 2.15.03.16.12.3.21.46l3.23-.88c0-.17-.02-.34-.06-.5A1.72 1.72 0 0 0 8.17 8.5m8.55 2.76-9.13 2.51a5.266 5.266 0 0 0 5.36 1.64 5.273 5.273 0 0 0 3.77-4.15Z" transform="matrix(1.5 0 0 1.5 468 180)" id="mdi-sticker-emoji" fill="#fff"/><path d="M18.5 2h-13C3.6 2 2 3.6 2 5.5v13C2 20.4 3.6 22 5.5 22H16l6-6V5.5C22 3.6 20.4 2 18.5 2M8 11h8v2H8v-2m7 9v-1.5c0-1.9 1.6-3.5 3.5-3.5H20l-5 5Z" transform="matrix(1.5 0 0 1.5 504 180)" id="mdi-sticker-minus" fill="#555"/><path d="M18.5 2h-13C3.6 2 2 3.6 2 5.5v13C2 20.4 3.6 22 5.5 22H16l6-6V5.5C22 3.6 20.4 2 18.5 2M8 11h8v2H8v-2m7 9v-1.5c0-1.9 1.6-3.5 3.5-3.5H20l-5 5Z" transform="matrix(1.5 0 0 1.5 540 180)" id="mdi-sticker-minus" fill="#fff"/><path d="M8 11h8v2H8v-2m14-5.5V16l-6 6H5.5C3.6 22 2 20.4 2 18.5v-13C2 3.6 3.6 2 5.5 2h13C20.4 2 22 3.6 22 5.5m-2 .3c0-1-.8-1.8-1.8-1.8H5.8C4.8 4 4 4.8 4 5.8v12.5c0 1 .8 1.8 1.8 1.8H15v-1.5c0-1.9 1.6-3.5 3.5-3.5H20V5.8Z" transform="matrix(1.5 0 0 1.5 576 180)" id="mdi-sticker-minus-outline" fill="#555"/><path d="M8 11h8v2H8v-2m14-5.5V16l-6 6H5.5C3.6 22 2 20.4 2 18.5v-13C2 3.6 3.6 2 5.5 2h13C20.4 2 22 3.6 22 5.5m-2 .3c0-1-.8-1.8-1.8-1.8H5.8C4.8 4 4 4.8 4 5.8v12.5c0 1 .8 1.8 1.8 1.8H15v-1.5c0-1.9 1.6-3.5 3.5-3.5H20V5.8Z" transform="matrix(1.5 0 0 1.5 612 180)" id="mdi-sticker-minus-outline" fill="#fff"/><path d="M5.5 2C3.6 2 2 3.6 2 5.5v13C2 20.4 3.6 22 5.5 22H16l6-6V5.5C22 3.6 20.4 2 18.5 2h-13m.3 2h12.5c1 0 1.8.8 1.8 1.8V15h-1.5c-1.9 0-3.5 1.6-3.5 3.5V20H5.8c-1 0-1.8-.8-1.8-1.8V5.8C4 4.8 4.8 4 5.8 4" transform="matrix(1.5 0 0 1.5 648 180)" id="mdi-sticker-outline" fill="#555"/><path d="M5.5 2C3.6 2 2 3.6 2 5.5v13C2 20.4 3.6 22 5.5 22H16l6-6V5.5C22 3.6 20.4 2 18.5 2h-13m.3 2h12.5c1 0 1.8.8 1.8 1.8V15h-1.5c-1.9 0-3.5 1.6-3.5 3.5V20H5.8c-1 0-1.8-.8-1.8-1.8V5.8C4 4.8 4.8 4 5.8 4" transform="matrix(1.5 0 0 1.5 684 180)" id="mdi-sticker-outline" fill="#fff"/><path d="M18.5 2h-13C3.6 2 2 3.6 2 5.5v13C2 20.4 3.6 22 5.5 22H16l6-6V5.5C22 3.6 20.4 2 18.5 2M13 16h-2v-3H8v-2h3V8h2v3h3v2h-3v3m2 4v-1.5c0-1.9 1.6-3.5 3.5-3.5H20l-5 5Z" transform="matrix(1.5 0 0 1.5 0 216)" id="mdi-sticker-plus" fill="#555"/><path d="M18.5 2h-13C3.6 2 2 3.6 2 5.5v13C2 20.4 3.6 22 5.5 22H16l6-6V5.5C22 3.6 20.4 2 18.5 2M13 16h-2v-3H8v-2h3V8h2v3h3v2h-3v3m2 4v-1.5c0-1.9 1.6-3.5 3.5-3.5H20l-5 5Z" transform="matrix(1.5 0 0 1.5 36 216)" id="mdi-sticker-plus" fill="#fff"/><path d="M13 11h3v2h-3v3h-2v-3H8v-2h3V8h2v3m9-5.5V16l-6 6H5.5C3.6 22 2 20.4 2 18.5v-13C2 3.6 3.6 2 5.5 2h13C20.4 2 22 3.6 22 5.5m-2 .3c0-1-.8-1.8-1.8-1.8H5.8C4.8 4 4 4.8 4 5.8v12.5c0 1 .8 1.8 1.8 1.8H15v-1.5c0-1.9 1.6-3.5 3.5-3.5H20V5.8Z" transform="matrix(1.5 0 0 1.5 72 216)" id="mdi-sticker-plus-outline" fill="#555"/><path d="M13 11h3v2h-3v3h-2v-3H8v-2h3V8h2v3m9-5.5V16l-6 6H5.5C3.6 22 2 20.4 2 18.5v-13C2 3.6 3.6 2 5.5 2h13C20.4 2 22 3.6 22 5.5m-2 .3c0-1-.8-1.8-1.8-1.8H5.8C4.8 4 4 4.8 4 5.8v12.5c0 1 .8 1.8 1.8 1.8H15v-1.5c0-1.9 1.6-3.5 3.5-3.5H20V5.8Z" transform="matrix(1.5 0 0 1.5 108 216)" id="mdi-sticker-plus-outline" fill="#fff"/><path d="M18.5 2h-13C3.6 2 2 3.6 2 5.5v13C2 20.4 3.6 22 5.5 22H16l6-6V5.5C22 3.6 20.4 2 18.5 2M12 13.4l-2.1 2.1-1.4-1.4 2.1-2.1-2.1-2.1 1.4-1.4 2.1 2.1 2.1-2.1 1.4 1.4-2.1 2.1 2.1 2.1-1.4 1.4-2.1-2.1m3 6.6v-1.5c0-1.9 1.6-3.5 3.5-3.5H20l-5 5Z" transform="matrix(1.5 0 0 1.5 144 216)" id="mdi-sticker-remove" fill="#555"/><path d="M18.5 2h-13C3.6 2 2 3.6 2 5.5v13C2 20.4 3.6 22 5.5 22H16l6-6V5.5C22 3.6 20.4 2 18.5 2M12 13.4l-2.1 2.1-1.4-1.4 2.1-2.1-2.1-2.1 1.4-1.4 2.1 2.1 2.1-2.1 1.4 1.4-2.1 2.1 2.1 2.1-1.4 1.4-2.1-2.1m3 6.6v-1.5c0-1.9 1.6-3.5 3.5-3.5H20l-5 5Z" transform="matrix(1.5 0 0 1.5 180 216)" id="mdi-sticker-remove" fill="#fff"/><path d="M16 9.4 13.4 12l2.6 2.6-1.4 1.4-2.6-2.6L9.4 16 8 14.6l2.6-2.6L8 9.4 9.4 8l2.6 2.6L14.6 8 16 9.4m6-3.9V16l-6 6H5.5C3.6 22 2 20.4 2 18.5v-13C2 3.6 3.6 2 5.5 2h13C20.4 2 22 3.6 22 5.5m-2 .3c0-1-.8-1.8-1.8-1.8H5.8C4.8 4 4 4.8 4 5.8v12.5c0 1 .8 1.8 1.8 1.8H15v-1.5c0-1.9 1.6-3.5 3.5-3.5H20V5.8Z" transform="matrix(1.5 0 0 1.5 216 216)" id="mdi-sticker-remove-outline" fill="#555"/><path d="M16 9.4 13.4 12l2.6 2.6-1.4 1.4-2.6-2.6L9.4 16 8 14.6l2.6-2.6L8 9.4 9.4 8l2.6 2.6L14.6 8 16 9.4m6-3.9V16l-6 6H5.5C3.6 22 2 20.4 2 18.5v-13C2 3.6 3.6 2 5.5 2h13C20.4 2 22 3.6 22 5.5m-2 .3c0-1-.8-1.8-1.8-1.8H5.8C4.8 4 4 4.8 4 5.8v12.5c0 1 .8 1.8 1.8 1.8H15v-1.5c0-1.9 1.6-3.5 3.5-3.5H20V5.8Z" transform="matrix(1.5 0 0 1.5 252 216)" id="mdi-sticker-remove-outline" fill="#fff"/><path d="M18.5 2h-13C3.6 2 2 3.6 2 5.5v13C2 20.4 3.6 22 5.5 22H16l6-6V5.5C22 3.6 20.4 2 18.5 2M6 7h12v2H6V7m0 4h12v2H6v-2m7 6H6v-2h7v2m2 3v-1.5c0-1.9 1.6-3.5 3.5-3.5H20l-5 5Z" transform="matrix(1.5 0 0 1.5 288 216)" id="mdi-sticker-text" fill="#555"/><path d="M18.5 2h-13C3.6 2 2 3.6 2 5.5v13C2 20.4 3.6 22 5.5 22H16l6-6V5.5C22 3.6 20.4 2 18.5 2M6 7h12v2H6V7m0 4h12v2H6v-2m7 6H6v-2h7v2m2 3v-1.5c0-1.9 1.6-3.5 3.5-3.5H20l-5 5Z" transform="matrix(1.5 0 0 1.5 324 216)" id="mdi-sticker-text" fill="#fff"/><path d="M18.5 2h-13C3.6 2 2 3.6 2 5.5v13C2 20.4 3.6 22 5.5 22H16l6-6V5.5C22 3.6 20.4 2 18.5 2m1.6 13h-1.5c-1.9 0-3.5 1.6-3.5 3.5V20H5.8c-1 0-1.8-.8-1.8-1.8V5.8C4 4.8 4.8 4 5.8 4h12.5c1 0 1.8.8 1.8 1.8V15M7 7h10v2H7V7m0 4h10v2H7v-2m0 4h6v2H7v-2Z" transform="matrix(1.5 0 0 1.5 360 216)" id="mdi-sticker-text-outline" fill="#555"/><path d="M18.5 2h-13C3.6 2 2 3.6 2 5.5v13C2 20.4 3.6 22 5.5 22H16l6-6V5.5C22 3.6 20.4 2 18.5 2m1.6 13h-1.5c-1.9 0-3.5 1.6-3.5 3.5V20H5.8c-1 0-1.8-.8-1.8-1.8V5.8C4 4.8 4.8 4 5.8 4h12.5c1 0 1.8.8 1.8 1.8V15M7 7h10v2H7V7m0 4h10v2H7v-2m0 4h6v2H7v-2Z" transform="matrix(1.5 0 0 1.5 396 216)" id="mdi-sticker-text-outline" fill="#fff"/><path d="M17 2a2 2 0 0 1 2 2v3a2 2 0 0 1-2 2v8c0 .85-.5 1.57-1.26 1.86L9.5 21.77c-1 .47-2.21.04-2.67-.96L6 19c-.5-1-.05-2.2.95-2.66L10 14.91V9a2 2 0 0 1-2-2V4a2 2 0 0 1 2-2h7m-7 2v3h7V4h-7Z" transform="matrix(1.5 0 0 1.5 432 216)" id="mdi-stocking" fill="#555"/><path d="M17 2a2 2 0 0 1 2 2v3a2 2 0 0 1-2 2v8c0 .85-.5 1.57-1.26 1.86L9.5 21.77c-1 .47-2.21.04-2.67-.96L6 19c-.5-1-.05-2.2.95-2.66L10 14.91V9a2 2 0 0 1-2-2V4a2 2 0 0 1 2-2h7m-7 2v3h7V4h-7Z" transform="matrix(1.5 0 0 1.5 468 216)" id="mdi-stocking" fill="#fff"/><path d="M4 18c.67 1.85 2.07 4 8 4 2.36 0 5.07-.07 7-2 1-1 3-3 3-9s-2-7-4-7c-1.38 0-3 0-4 2v.03a1.82 1.82 0 0 1-1.87.92C11 6.81 11 6.37 11 6V2H9v4a2.92 2.92 0 0 0 3 3c1 0 1 1.78 1 3 0 1.89-.5 3.26-2 4-2.31 1.15-4.61 1-5.39-.53a1.5 1.5 0 0 0-2.47-.6A3.67 3.67 0 0 0 2 18v4h2Z" transform="matrix(1.5 0 0 1.5 504 216)" id="mdi-stomach" fill="#555"/><path d="M4 18c.67 1.85 2.07 4 8 4 2.36 0 5.07-.07 7-2 1-1 3-3 3-9s-2-7-4-7c-1.38 0-3 0-4 2v.03a1.82 1.82 0 0 1-1.87.92C11 6.81 11 6.37 11 6V2H9v4a2.92 2.92 0 0 0 3 3c1 0 1 1.78 1 3 0 1.89-.5 3.26-2 4-2.31 1.15-4.61 1-5.39-.53a1.5 1.5 0 0 0-2.47-.6A3.67 3.67 0 0 0 2 18v4h2Z" transform="matrix(1.5 0 0 1.5 540 216)" id="mdi-stomach" fill="#fff"/><path d="M20 6c0-2.21-1.79-4-4-4H8C5.78 2 4 3.79 4 6v2h3L4 22h2l1.5-7H11v7h2v-7h3.5l1.5 7h2L17 8h3V6M7.93 13 9 8h2v5H7.93m8.14 0H13V8h2l1.07 5Z" transform="matrix(1.5 0 0 1.5 576 216)" id="mdi-stool" fill="#555"/><path d="M20 6c0-2.21-1.79-4-4-4H8C5.78 2 4 3.79 4 6v2h3L4 22h2l1.5-7H11v7h2v-7h3.5l1.5 7h2L17 8h3V6M7.93 13 9 8h2v5H7.93m8.14 0H13V8h2l1.07 5Z" transform="matrix(1.5 0 0 1.5 612 216)" id="mdi-stool" fill="#fff"/><path d="M20 6c0-2.21-1.79-4-4-4H8C5.78 2 4 3.79 4 6v2h3L4 22h2l1.5-7H11v7h2v-7h3.5l1.5 7h2L17 8h3V6M7.93 13 9 8h2v5H7.93m8.14 0H13V8h2l1.07 5M6 6a2 2 0 0 1 2-2h8c1.1 0 2 .9 2 2H6Z" transform="matrix(1.5 0 0 1.5 648 216)" id="mdi-stool-outline" fill="#555"/><path d="M20 6c0-2.21-1.79-4-4-4H8C5.78 2 4 3.79 4 6v2h3L4 22h2l1.5-7H11v7h2v-7h3.5l1.5 7h2L17 8h3V6M7.93 13 9 8h2v5H7.93m8.14 0H13V8h2l1.07 5M6 6a2 2 0 0 1 2-2h8c1.1 0 2 .9 2 2H6Z" transform="matrix(1.5 0 0 1.5 684 216)" id="mdi-stool-outline" fill="#fff"/><path d="M18 18H6V6h12v12Z" transform="matrix(1.5 0 0 1.5 0 252)" id="mdi-stop" fill="#555"/><path d="M18 18H6V6h12v12Z" transform="matrix(1.5 0 0 1.5 36 252)" id="mdi-stop" fill="#fff"/><path d="M12 2A10 10 0 0 0 2 12a10 10 0 0 0 10 10 10 10 0 0 0 10-10A10 10 0 0 0 12 2M9 9h6v6H9" transform="matrix(1.5 0 0 1.5 72 252)" id="mdi-stop-circle" fill="#555"/><path d="M12 2A10 10 0 0 0 2 12a10 10 0 0 0 10 10 10 10 0 0 0 10-10A10 10 0 0 0 12 2M9 9h6v6H9" transform="matrix(1.5 0 0 1.5 108 252)" id="mdi-stop-circle" fill="#fff"/><path d="M12 2A10 10 0 0 0 2 12a10 10 0 0 0 10 10 10 10 0 0 0 10-10A10 10 0 0 0 12 2m0 2c4.41 0 8 3.59 8 8s-3.59 8-8 8-8-3.59-8-8 3.59-8 8-8M9 9v6h6V9" transform="matrix(1.5 0 0 1.5 144 252)" id="mdi-stop-circle-outline" fill="#555"/><path d="M12 2A10 10 0 0 0 2 12a10 10 0 0 0 10 10 10 10 0 0 0 10-10A10 10 0 0 0 12 2m0 2c4.41 0 8 3.59 8 8s-3.59 8-8 8-8-3.59-8-8 3.59-8 8-8M9 9v6h6V9" transform="matrix(1.5 0 0 1.5 180 252)" id="mdi-stop-circle-outline" fill="#fff"/><path d="M17 6h-1V5c0-1.1-.9-2-2-2h-4c-1.1 0-2 .9-2 2v1H7c-3.31 0-6 2.69-6 6s2.69 6 6 6v3h2v-3h6v3h2v-3c3.31 0 6-2.69 6-6s-2.69-6-6-6m-7-1h4v1h-4V5Z" transform="matrix(1.5 0 0 1.5 216 252)" id="mdi-storage-tank" fill="#555"/><path d="M17 6h-1V5c0-1.1-.9-2-2-2h-4c-1.1 0-2 .9-2 2v1H7c-3.31 0-6 2.69-6 6s2.69 6 6 6v3h2v-3h6v3h2v-3c3.31 0 6-2.69 6-6s-2.69-6-6-6m-7-1h4v1h-4V5Z" transform="matrix(1.5 0 0 1.5 252 252)" id="mdi-storage-tank" fill="#fff"/><path d="M17 6h-1V5c0-1.1-.9-2-2-2h-4c-1.1 0-2 .9-2 2v1H7c-3.31 0-6 2.69-6 6s2.69 6 6 6v3h2v-3h6v3h2v-3c3.31 0 6-2.69 6-6s-2.69-6-6-6m-7-1h4v1h-4V5m7 11H7c-2.21 0-4-1.79-4-4s1.79-4 4-4h10c2.21 0 4 1.79 4 4s-1.79 4-4 4Z" transform="matrix(1.5 0 0 1.5 288 252)" id="mdi-storage-tank-outline" fill="#555"/><path d="M17 6h-1V5c0-1.1-.9-2-2-2h-4c-1.1 0-2 .9-2 2v1H7c-3.31 0-6 2.69-6 6s2.69 6 6 6v3h2v-3h6v3h2v-3c3.31 0 6-2.69 6-6s-2.69-6-6-6m-7-1h4v1h-4V5m7 11H7c-2.21 0-4-1.79-4-4s1.79-4 4-4h10c2.21 0 4 1.79 4 4s-1.79 4-4 4Z" transform="matrix(1.5 0 0 1.5 324 252)" id="mdi-storage-tank-outline" fill="#fff"/><path d="M12 18H6v-4h6m9 0v-2l-1-5H4l-1 5v2h1v6h10v-6h4v6h2v-6m0-10H4v2h16V4Z" transform="matrix(1.5 0 0 1.5 360 252)" id="mdi-store" fill="#555"/><path d="M12 18H6v-4h6m9 0v-2l-1-5H4l-1 5v2h1v6h10v-6h4v6h2v-6m0-10H4v2h16V4Z" transform="matrix(1.5 0 0 1.5 396 252)" id="mdi-store" fill="#fff"/><path d="M16 12h-1v-2h-2V7h1v2h1V7h1m-5 3H9v1h2v1H8V9h2V8H8V7h3m8 0V4H5v3H2v13h8v-4h4v4h8V7h-3Z" transform="matrix(1.5 0 0 1.5 432 252)" id="mdi-store-24-hour" fill="#555"/><path d="M16 12h-1v-2h-2V7h1v2h1V7h1m-5 3H9v1h2v1H8V9h2V8H8V7h3m8 0V4H5v3H2v13h8v-4h4v4h8V7h-3Z" transform="matrix(1.5 0 0 1.5 468 252)" id="mdi-store-24-hour" fill="#fff"/><path d="m2 7-1 5v2h1v6h10v-6h4v6h2v-6h1v-2l-1-5H2m8 11H4v-4h6v4m8-12H2V4h16v2m5 1v6h-2V7h2m-2 8h2v2h-2v-2Z" transform="matrix(1.5 0 0 1.5 504 252)" id="mdi-store-alert" fill="#555"/><path d="m2 7-1 5v2h1v6h10v-6h4v6h2v-6h1v-2l-1-5H2m8 11H4v-4h6v4m8-12H2V4h16v2m5 1v6h-2V7h2m-2 8h2v2h-2v-2Z" transform="matrix(1.5 0 0 1.5 540 252)" id="mdi-store-alert" fill="#fff"/><path d="m2 7-1 5v2h1v6h10v-6h4v6h2v-6h1v-2l-1-5H2m8 11H4v-4h6v4m-6.96-6 .6-3h12.72l.6 3H3.04M18 6H2V4h16v2m5 1v6h-2V7h2m-2 8h2v2h-2v-2Z" transform="matrix(1.5 0 0 1.5 576 252)" id="mdi-store-alert-outline" fill="#555"/><path d="m2 7-1 5v2h1v6h10v-6h4v6h2v-6h1v-2l-1-5H2m8 11H4v-4h6v4m-6.96-6 .6-3h12.72l.6 3H3.04M18 6H2V4h16v2m5 1v6h-2V7h2m-2 8h2v2h-2v-2Z" transform="matrix(1.5 0 0 1.5 612 252)" id="mdi-store-alert-outline" fill="#fff"/><path d="M20 6H4V4h16v2m-4.31 8H14v1.69c-.63.95-1 2.08-1 3.31 0 .34.04.67.09 1H4v-6H3v-2l1-5h16l1 5v1.35c-.63-.22-1.3-.35-2-.35-1.23 0-2.36.37-3.31 1M12 14H6v4h6v-4m9.34 1.84-3.59 3.59-1.59-1.59L15 19l2.75 3 4.75-4.75-1.16-1.41Z" transform="matrix(1.5 0 0 1.5 648 252)" id="mdi-store-check" fill="#555"/><path d="M20 6H4V4h16v2m-4.31 8H14v1.69c-.63.95-1 2.08-1 3.31 0 .34.04.67.09 1H4v-6H3v-2l1-5h16l1 5v1.35c-.63-.22-1.3-.35-2-.35-1.23 0-2.36.37-3.31 1M12 14H6v4h6v-4m9.34 1.84-3.59 3.59-1.59-1.59L15 19l2.75 3 4.75-4.75-1.16-1.41Z" transform="matrix(1.5 0 0 1.5 684 252)" id="mdi-store-check" fill="#fff"/><path d="M19 13c.7 0 1.37.13 2 .35V12l-1-5H4l-1 5v2h1v6h9.09c-.05-.33-.09-.66-.09-1 0-1.23.37-2.36 1-3.31V14h1.69c.95-.63 2.08-1 3.31-1m-7 5H6v-4h6v4m-6.96-6 .6-3h12.72l.6 3H5.04M20 6H4V4h16v2m2.5 11.25L17.75 22 15 19l1.16-1.16 1.59 1.59 3.59-3.59 1.16 1.41" transform="matrix(1.5 0 0 1.5 0 288)" id="mdi-store-check-outline" fill="#555"/><path d="M19 13c.7 0 1.37.13 2 .35V12l-1-5H4l-1 5v2h1v6h9.09c-.05-.33-.09-.66-.09-1 0-1.23.37-2.36 1-3.31V14h1.69c.95-.63 2.08-1 3.31-1m-7 5H6v-4h6v4m-6.96-6 .6-3h12.72l.6 3H5.04M20 6H4V4h16v2m2.5 11.25L17.75 22 15 19l1.16-1.16 1.59 1.59 3.59-3.59 1.16 1.41" transform="matrix(1.5 0 0 1.5 36 288)" id="mdi-store-check-outline" fill="#fff"/><path d="M18 4H2V2h16v2m-.5 9H16v5l3.61 2.16.75-1.22-2.86-1.69V13m6.5 4c0 3.87-3.13 7-7 7-3.53 0-6.43-2.61-6.92-6H2v-6H1v-2l1-5h16l1 5v.29c2.89.87 5 3.54 5 6.71M4 16h6v-4H4v4m18 1c0-2.76-2.24-5-5-5s-5 2.24-5 5 2.24 5 5 5 5-2.24 5-5Z" transform="matrix(1.5 0 0 1.5 72 288)" id="mdi-store-clock" fill="#555"/><path d="M18 4H2V2h16v2m-.5 9H16v5l3.61 2.16.75-1.22-2.86-1.69V13m6.5 4c0 3.87-3.13 7-7 7-3.53 0-6.43-2.61-6.92-6H2v-6H1v-2l1-5h16l1 5v.29c2.89.87 5 3.54 5 6.71M4 16h6v-4H4v4m18 1c0-2.76-2.24-5-5-5s-5 2.24-5 5 2.24 5 5 5 5-2.24 5-5Z" transform="matrix(1.5 0 0 1.5 108 288)" id="mdi-store-clock" fill="#fff"/><path d="M18 4H2V2h16v2m-.5 9H16v5l3.61 2.16.75-1.22-2.86-1.69V13m6.5 4c0 3.87-3.13 7-7 7-3.53 0-6.43-2.61-6.92-6H2v-6H1v-2l1-5h16l1 5v.29c2.89.87 5 3.54 5 6.71M3.04 10h13.92l-.6-3H3.64l-.6 3M4 16h6v-4H4v4m18 1c0-2.76-2.24-5-5-5s-5 2.24-5 5 2.24 5 5 5 5-2.24 5-5Z" transform="matrix(1.5 0 0 1.5 144 288)" id="mdi-store-clock-outline" fill="#555"/><path d="M18 4H2V2h16v2m-.5 9H16v5l3.61 2.16.75-1.22-2.86-1.69V13m6.5 4c0 3.87-3.13 7-7 7-3.53 0-6.43-2.61-6.92-6H2v-6H1v-2l1-5h16l1 5v.29c2.89.87 5 3.54 5 6.71M3.04 10h13.92l-.6-3H3.64l-.6 3M4 16h6v-4H4v4m18 1c0-2.76-2.24-5-5-5s-5 2.24-5 5 2.24 5 5 5 5-2.24 5-5Z" transform="matrix(1.5 0 0 1.5 180 288)" id="mdi-store-clock-outline" fill="#fff"/><path d="M20 6H4V4h16v2m-1 6c-1.91 0-3.63.76-4.89 2H14v.11c-1.24 1.26-2 2.98-2 4.89 0 .34.03.67.08 1H4v-6H3v-2l1-5h16l1 5v.3c-.63-.19-1.3-.3-2-.3m-7 2H6v4h6v-4m11.8 6.4c.1 0 .1.1 0 .2l-1 1.7c-.1.1-.2.1-.3.1l-1.2-.4c-.3.2-.5.3-.8.5l-.2 1.3c0 .1-.1.2-.2.2h-2c-.1 0-.2-.1-.3-.2l-.2-1.3c-.3-.1-.6-.3-.8-.5l-1.2.5c-.1 0-.2 0-.3-.1l-1-1.7c-.1-.1 0-.2.1-.3l1.1-.8v-1l-1.1-.8c-.1-.1-.1-.2-.1-.3l1-1.7c.1-.1.2-.1.3-.1l1.2.5c.3-.2.5-.3.8-.5l.2-1.3c0-.1.1-.2.3-.2h2c.1 0 .2.1.2.2l.2 1.3c.3.1.6.3.9.5l1.2-.5c.1 0 .3 0 .3.1l1 1.7c.1.1 0 .2-.1.3l-1.1.8v1l1.1.8M20.5 19c0-.8-.7-1.5-1.5-1.5s-1.5.7-1.5 1.5.7 1.5 1.5 1.5 1.5-.7 1.5-1.5Z" transform="matrix(1.5 0 0 1.5 216 288)" id="mdi-store-cog" fill="#555"/><path d="M20 6H4V4h16v2m-1 6c-1.91 0-3.63.76-4.89 2H14v.11c-1.24 1.26-2 2.98-2 4.89 0 .34.03.67.08 1H4v-6H3v-2l1-5h16l1 5v.3c-.63-.19-1.3-.3-2-.3m-7 2H6v4h6v-4m11.8 6.4c.1 0 .1.1 0 .2l-1 1.7c-.1.1-.2.1-.3.1l-1.2-.4c-.3.2-.5.3-.8.5l-.2 1.3c0 .1-.1.2-.2.2h-2c-.1 0-.2-.1-.3-.2l-.2-1.3c-.3-.1-.6-.3-.8-.5l-1.2.5c-.1 0-.2 0-.3-.1l-1-1.7c-.1-.1 0-.2.1-.3l1.1-.8v-1l-1.1-.8c-.1-.1-.1-.2-.1-.3l1-1.7c.1-.1.2-.1.3-.1l1.2.5c.3-.2.5-.3.8-.5l.2-1.3c0-.1.1-.2.3-.2h2c.1 0 .2.1.2.2l.2 1.3c.3.1.6.3.9.5l1.2-.5c.1 0 .3 0 .3.1l1 1.7c.1.1 0 .2-.1.3l-1.1.8v1l1.1.8M20.5 19c0-.8-.7-1.5-1.5-1.5s-1.5.7-1.5 1.5.7 1.5 1.5 1.5 1.5-.7 1.5-1.5Z" transform="matrix(1.5 0 0 1.5 252 288)" id="mdi-store-cog" fill="#fff"/><path d="M20 6H4V4h16v2m-1 6c-1.91 0-3.63.76-4.89 2H14v.11c-1.24 1.26-2 2.98-2 4.89 0 .34.03.67.08 1H4v-6H3v-2l1-5h16l1 5v.3c-.63-.19-1.3-.3-2-.3m-7 2H6v4h6v-4m6.96-2-.6-3H5.64l-.6 3h13.92m4.84 8.4c.1 0 .1.1 0 .2l-1 1.7c-.1.1-.2.1-.3.1l-1.2-.4c-.3.2-.5.3-.8.5l-.2 1.3c0 .1-.1.2-.2.2h-2c-.1 0-.2-.1-.3-.2l-.2-1.3c-.3-.1-.6-.3-.8-.5l-1.2.5c-.1 0-.2 0-.3-.1l-1-1.7c-.1-.1 0-.2.1-.3l1.1-.8v-1l-1.1-.8c-.1-.1-.1-.2-.1-.3l1-1.7c.1-.1.2-.1.3-.1l1.2.5c.3-.2.5-.3.8-.5l.2-1.3c0-.1.1-.2.3-.2h2c.1 0 .2.1.2.2l.2 1.3c.3.1.6.3.9.5l1.2-.5c.1 0 .3 0 .3.1l1 1.7c.1.1 0 .2-.1.3l-1.1.8v1l1.1.8M20.5 19c0-.8-.7-1.5-1.5-1.5s-1.5.7-1.5 1.5.7 1.5 1.5 1.5 1.5-.7 1.5-1.5Z" transform="matrix(1.5 0 0 1.5 288 288)" id="mdi-store-cog-outline" fill="#555"/><path d="M20 6H4V4h16v2m-1 6c-1.91 0-3.63.76-4.89 2H14v.11c-1.24 1.26-2 2.98-2 4.89 0 .34.03.67.08 1H4v-6H3v-2l1-5h16l1 5v.3c-.63-.19-1.3-.3-2-.3m-7 2H6v4h6v-4m6.96-2-.6-3H5.64l-.6 3h13.92m4.84 8.4c.1 0 .1.1 0 .2l-1 1.7c-.1.1-.2.1-.3.1l-1.2-.4c-.3.2-.5.3-.8.5l-.2 1.3c0 .1-.1.2-.2.2h-2c-.1 0-.2-.1-.3-.2l-.2-1.3c-.3-.1-.6-.3-.8-.5l-1.2.5c-.1 0-.2 0-.3-.1l-1-1.7c-.1-.1 0-.2.1-.3l1.1-.8v-1l-1.1-.8c-.1-.1-.1-.2-.1-.3l1-1.7c.1-.1.2-.1.3-.1l1.2.5c.3-.2.5-.3.8-.5l.2-1.3c0-.1.1-.2.3-.2h2c.1 0 .2.1.2.2l.2 1.3c.3.1.6.3.9.5l1.2-.5c.1 0 .3 0 .3.1l1 1.7c.1.1 0 .2-.1.3l-1.1.8v1l1.1.8M20.5 19c0-.8-.7-1.5-1.5-1.5s-1.5.7-1.5 1.5.7 1.5 1.5 1.5 1.5-.7 1.5-1.5Z" transform="matrix(1.5 0 0 1.5 324 288)" id="mdi-store-cog-outline" fill="#fff"/><path d="M20 6H4V4h16v2m-6 10.13-3 3V20H4v-6H3v-2l1-5h16l.61 3.07c-.45.1-.88.33-1.22.67L16.13 14H14v2.13M12 14H6v4h6v-4m10.85-.53-1.32-1.32c-.2-.2-.53-.2-.72 0l-.98.98 2.04 2.04.98-.98c.2-.19.2-.52 0-.72M13 19.96V22h2.04l6.13-6.12-2.04-2.05L13 19.96Z" transform="matrix(1.5 0 0 1.5 360 288)" id="mdi-store-edit" fill="#555"/><path d="M20 6H4V4h16v2m-6 10.13-3 3V20H4v-6H3v-2l1-5h16l.61 3.07c-.45.1-.88.33-1.22.67L16.13 14H14v2.13M12 14H6v4h6v-4m10.85-.53-1.32-1.32c-.2-.2-.53-.2-.72 0l-.98.98 2.04 2.04.98-.98c.2-.19.2-.52 0-.72M13 19.96V22h2.04l6.13-6.12-2.04-2.05L13 19.96Z" transform="matrix(1.5 0 0 1.5 396 288)" id="mdi-store-edit" fill="#fff"/><path d="M20 6H4V4h16v2m-6 10.13-3 3V20H4v-6H3v-2l1-5h16l.61 3.07c-.45.1-.88.33-1.22.67l-.57.57L18.36 9H5.64l-.6 3h13.09l-2 2H14v2.13M12 14H6v4h6v-4m10.85-.53-1.32-1.32c-.2-.2-.53-.2-.72 0l-.98.98 2.04 2.04.98-.98c.2-.19.2-.52 0-.72M13 19.96V22h2.04l6.13-6.12-2.04-2.05L13 19.96Z" transform="matrix(1.5 0 0 1.5 432 288)" id="mdi-store-edit-outline" fill="#555"/><path d="M20 6H4V4h16v2m-6 10.13-3 3V20H4v-6H3v-2l1-5h16l.61 3.07c-.45.1-.88.33-1.22.67l-.57.57L18.36 9H5.64l-.6 3h13.09l-2 2H14v2.13M12 14H6v4h6v-4m10.85-.53-1.32-1.32c-.2-.2-.53-.2-.72 0l-.98.98 2.04 2.04.98-.98c.2-.19.2-.52 0-.72M13 19.96V22h2.04l6.13-6.12-2.04-2.05L13 19.96Z" transform="matrix(1.5 0 0 1.5 468 288)" id="mdi-store-edit-outline" fill="#fff"/><path d="M20 6H4V4h16v2m-7 9.5c0 1.14.43 2.36 1 3.5v1H4v-6H3v-2l1-5h16l.7 3.5c-.7-.32-1.42-.5-2.2-.5-3 0-5.5 2.5-5.5 5.5M12 14H6v4h6v-4m10 1.5c0 2.6-3.5 6.5-3.5 6.5S15 18.1 15 15.5c0-1.9 1.6-3.5 3.5-3.5s3.5 1.6 3.5 3.5m-2.3.1c0-.6-.6-1.2-1.2-1.2s-1.2.5-1.2 1.2c0 .6.5 1.2 1.2 1.2s1.3-.6 1.2-1.2Z" transform="matrix(1.5 0 0 1.5 504 288)" id="mdi-store-marker" fill="#555"/><path d="M20 6H4V4h16v2m-7 9.5c0 1.14.43 2.36 1 3.5v1H4v-6H3v-2l1-5h16l.7 3.5c-.7-.32-1.42-.5-2.2-.5-3 0-5.5 2.5-5.5 5.5M12 14H6v4h6v-4m10 1.5c0 2.6-3.5 6.5-3.5 6.5S15 18.1 15 15.5c0-1.9 1.6-3.5 3.5-3.5s3.5 1.6 3.5 3.5m-2.3.1c0-.6-.6-1.2-1.2-1.2s-1.2.5-1.2 1.2c0 .6.5 1.2 1.2 1.2s1.3-.6 1.2-1.2Z" transform="matrix(1.5 0 0 1.5 540 288)" id="mdi-store-marker" fill="#fff"/><path d="M20 6H4V4h16v2m-5.7 6c-.8.96-1.3 2.18-1.3 3.5 0 1.14.43 2.36 1 3.5v1H4v-6H3v-2l1-5h16l.7 3.5c-.66-.32-1.38-.5-2.14-.5l-.2-1H5.64l-.6 3h9.26M12 14H6v4h6v-4m10 1.5c0 2.6-3.5 6.5-3.5 6.5S15 18.1 15 15.5c0-1.9 1.6-3.5 3.5-3.5s3.5 1.6 3.5 3.5m-2.3.1c0-.6-.6-1.2-1.2-1.2s-1.2.5-1.2 1.2c0 .6.5 1.2 1.2 1.2s1.3-.6 1.2-1.2Z" transform="matrix(1.5 0 0 1.5 576 288)" id="mdi-store-marker-outline" fill="#555"/><path d="M20 6H4V4h16v2m-5.7 6c-.8.96-1.3 2.18-1.3 3.5 0 1.14.43 2.36 1 3.5v1H4v-6H3v-2l1-5h16l.7 3.5c-.66-.32-1.38-.5-2.14-.5l-.2-1H5.64l-.6 3h9.26M12 14H6v4h6v-4m10 1.5c0 2.6-3.5 6.5-3.5 6.5S15 18.1 15 15.5c0-1.9 1.6-3.5 3.5-3.5s3.5 1.6 3.5 3.5m-2.3.1c0-.6-.6-1.2-1.2-1.2s-1.2.5-1.2 1.2c0 .6.5 1.2 1.2 1.2s1.3-.6 1.2-1.2Z" transform="matrix(1.5 0 0 1.5 612 288)" id="mdi-store-marker-outline" fill="#fff"/><path d="M4 4v2h16V4M4 7l-1 5v2h1v6h9c-.05-.34-.08-.69-.08-1.05 0-1.22.38-2.42 1.08-3.42V14h1.54c1-.67 2.17-1.04 3.37-1.04.71 0 1.42.13 2.09.38V12l-1-5M6 14h6v4H6m9 0v2h8v-2" transform="matrix(1.5 0 0 1.5 648 288)" id="mdi-store-minus" fill="#555"/><path d="M4 4v2h16V4M4 7l-1 5v2h1v6h9c-.05-.34-.08-.69-.08-1.05 0-1.22.38-2.42 1.08-3.42V14h1.54c1-.67 2.17-1.04 3.37-1.04.71 0 1.42.13 2.09.38V12l-1-5M6 14h6v4H6m9 0v2h8v-2" transform="matrix(1.5 0 0 1.5 684 288)" id="mdi-store-minus" fill="#fff"/><path d="M20 6H4V4h16v2m-4.31 8H14v1.69c-.63.95-1 2.08-1 3.31 0 .34.04.67.09 1H4v-6H3v-2l1-5h16l1 5v1.35c-.63-.22-1.3-.35-2-.35-1.23 0-2.36.37-3.31 1M12 14H6v4h6v-4m6.96-2-.6-3H5.64l-.6 3h13.92M15 18v2h8v-2h-8Z" transform="matrix(1.5 0 0 1.5 0 324)" id="mdi-store-minus-outline" fill="#555"/><path d="M20 6H4V4h16v2m-4.31 8H14v1.69c-.63.95-1 2.08-1 3.31 0 .34.04.67.09 1H4v-6H3v-2l1-5h16l1 5v1.35c-.63-.22-1.3-.35-2-.35-1.23 0-2.36.37-3.31 1M12 14H6v4h6v-4m6.96-2-.6-3H5.64l-.6 3h13.92M15 18v2h8v-2h-8Z" transform="matrix(1.5 0 0 1.5 36 324)" id="mdi-store-minus-outline" fill="#fff"/><path d="m9.2 6-2-2H20v2H9.2M20 16.8V14h1v-2l-1-5h-9.8l7 7h.8v.8l2 2m2.11 4.66-1.27 1.27L14 15.89V20H4v-6H3v-2l1-5h1.11l-4-4 1.28-1.27 19.72 19.73M12 14H6v4h6v-4Z" transform="matrix(1.5 0 0 1.5 72 324)" id="mdi-store-off" fill="#555"/><path d="m9.2 6-2-2H20v2H9.2M20 16.8V14h1v-2l-1-5h-9.8l7 7h.8v.8l2 2m2.11 4.66-1.27 1.27L14 15.89V20H4v-6H3v-2l1-5h1.11l-4-4 1.28-1.27 19.72 19.73M12 14H6v4h6v-4Z" transform="matrix(1.5 0 0 1.5 108 324)" id="mdi-store-off" fill="#fff"/><path d="M2.39 1.73 1.11 3l4 4H4l-1 5v2h1v6h10v-4.11l6.84 6.84 1.27-1.27L2.39 1.73M5.64 9h1.47l3 3H5.04l.6-3M12 18H6v-4h6v4m6-3.2V14h-.8l-2-2h3.76l-.6-3H12.2l-2-2H20l1 5v2h-1v2.8l-2-2M9.2 6l-2-2H20v2H9.2Z" transform="matrix(1.5 0 0 1.5 144 324)" id="mdi-store-off-outline" fill="#555"/><path d="M2.39 1.73 1.11 3l4 4H4l-1 5v2h1v6h10v-4.11l6.84 6.84 1.27-1.27L2.39 1.73M5.64 9h1.47l3 3H5.04l.6-3M12 18H6v-4h6v4m6-3.2V14h-.8l-2-2h3.76l-.6-3H12.2l-2-2H20l1 5v2h-1v2.8l-2-2M9.2 6l-2-2H20v2H9.2Z" transform="matrix(1.5 0 0 1.5 180 324)" id="mdi-store-off-outline" fill="#fff"/><path d="m18.36 9 .6 3H5.04l.6-3h12.72M20 4H4v2h16V4m0 3H4l-1 5v2h1v6h10v-6h4v6h2v-6h1v-2l-1-5M6 18v-4h6v4H6Z" transform="matrix(1.5 0 0 1.5 216 324)" id="mdi-store-outline" fill="#555"/><path d="m18.36 9 .6 3H5.04l.6-3h12.72M20 4H4v2h16V4m0 3H4l-1 5v2h1v6h10v-6h4v6h2v-6h1v-2l-1-5M6 18v-4h6v4H6Z" transform="matrix(1.5 0 0 1.5 252 324)" id="mdi-store-outline" fill="#fff"/><path d="M4 4v2h16V4M4 7l-1 5v2h1v6h9c-.05-.34-.08-.69-.08-1.05 0-1.22.38-2.42 1.08-3.42V14h1.54c1-.67 2.17-1.04 3.37-1.04.71 0 1.42.13 2.09.38V12l-1-5M6 14h6v4H6m12-3v3h-3v2h3v3h2v-3h3v-2h-3v-3" transform="matrix(1.5 0 0 1.5 288 324)" id="mdi-store-plus" fill="#555"/><path d="M4 4v2h16V4M4 7l-1 5v2h1v6h9c-.05-.34-.08-.69-.08-1.05 0-1.22.38-2.42 1.08-3.42V14h1.54c1-.67 2.17-1.04 3.37-1.04.71 0 1.42.13 2.09.38V12l-1-5M6 14h6v4H6m12-3v3h-3v2h3v3h2v-3h3v-2h-3v-3" transform="matrix(1.5 0 0 1.5 324 324)" id="mdi-store-plus" fill="#fff"/><path d="M20 6H4V4h16v2m-4.31 8H14v1.69c-.63.95-1 2.08-1 3.31 0 .34.04.67.09 1H4v-6H3v-2l1-5h16l1 5v1.35c-.63-.22-1.3-.35-2-.35-1.23 0-2.36.37-3.31 1M12 14H6v4h6v-4m6.96-2-.6-3H5.64l-.6 3h13.92M20 18v-3h-2v3h-3v2h3v3h2v-3h3v-2h-3Z" transform="matrix(1.5 0 0 1.5 360 324)" id="mdi-store-plus-outline" fill="#555"/><path d="M20 6H4V4h16v2m-4.31 8H14v1.69c-.63.95-1 2.08-1 3.31 0 .34.04.67.09 1H4v-6H3v-2l1-5h16l1 5v1.35c-.63-.22-1.3-.35-2-.35-1.23 0-2.36.37-3.31 1M12 14H6v4h6v-4m6.96-2-.6-3H5.64l-.6 3h13.92M20 18v-3h-2v3h-3v2h3v3h2v-3h3v-2h-3Z" transform="matrix(1.5 0 0 1.5 396 324)" id="mdi-store-plus-outline" fill="#fff"/><path d="M4 4h16v2H4V4m11.46 12.88 1.42-1.42L19 17.59l2.12-2.12 1.42 1.41L20.41 19l2.13 2.12-1.42 1.42L19 20.41l-2.12 2.13-1.42-1.42L17.59 19l-2.12-2.12M4 7h16l1 5v1.34a5.99 5.99 0 0 0-2.09-.38c-1.2 0-2.37.37-3.37 1.04H14v1.53c-.7 1-1.08 2.2-1.08 3.42L13 20H4v-6H3v-2l1-5m2 7v4h6v-4H6Z" transform="matrix(1.5 0 0 1.5 432 324)" id="mdi-store-remove" fill="#555"/><path d="M4 4h16v2H4V4m11.46 12.88 1.42-1.42L19 17.59l2.12-2.12 1.42 1.41L20.41 19l2.13 2.12-1.42 1.42L19 20.41l-2.12 2.13-1.42-1.42L17.59 19l-2.12-2.12M4 7h16l1 5v1.34a5.99 5.99 0 0 0-2.09-.38c-1.2 0-2.37.37-3.37 1.04H14v1.53c-.7 1-1.08 2.2-1.08 3.42L13 20H4v-6H3v-2l1-5m2 7v4h6v-4H6Z" transform="matrix(1.5 0 0 1.5 468 324)" id="mdi-store-remove" fill="#fff"/><path d="M20 6H4V4h16v2m-4.31 8H14v1.69c-.63.95-1 2.08-1 3.31 0 .34.04.67.09 1H4v-6H3v-2l1-5h16l1 5v1.35c-.63-.22-1.3-.35-2-.35-1.23 0-2.36.37-3.31 1M12 14H6v4h6v-4m6.96-2-.6-3H5.64l-.6 3h13.92m3.58 4.88-1.42-1.41L19 17.59l-2.12-2.12-1.41 1.41L17.59 19l-2.12 2.12 1.41 1.42L19 20.41l2.12 2.13 1.42-1.42L20.41 19l2.13-2.12Z" transform="matrix(1.5 0 0 1.5 504 324)" id="mdi-store-remove-outline" fill="#555"/><path d="M20 6H4V4h16v2m-4.31 8H14v1.69c-.63.95-1 2.08-1 3.31 0 .34.04.67.09 1H4v-6H3v-2l1-5h16l1 5v1.35c-.63-.22-1.3-.35-2-.35-1.23 0-2.36.37-3.31 1M12 14H6v4h6v-4m6.96-2-.6-3H5.64l-.6 3h13.92m3.58 4.88-1.42-1.41L19 17.59l-2.12-2.12-1.41 1.41L17.59 19l-2.12 2.12 1.41 1.42L19 20.41l2.12 2.13 1.42-1.42L20.41 19l2.13-2.12Z" transform="matrix(1.5 0 0 1.5 540 324)" id="mdi-store-remove-outline" fill="#fff"/><path d="M11.9 10.9a6.53 6.53 0 0 0-1.9 4.6V12H4v4h6v-.5c0 .85.17 1.7.5 2.5H2v-6H1v-2l1-5h16l.89 4.46a6.47 6.47 0 0 0-6.99 1.44M18 2H2v2h16V2m5.39 19L22 22.39l-3.12-3.07c-.69.43-1.51.68-2.38.68-2.5 0-4.5-2-4.5-4.5s2-4.5 4.5-4.5 4.5 2 4.5 4.5c0 .88-.25 1.71-.69 2.4l3.08 3.1M19 15.5a2.5 2.5 0 0 0-5 0 2.5 2.5 0 0 0 5 0Z" transform="matrix(1.5 0 0 1.5 576 324)" id="mdi-store-search" fill="#555"/><path d="M11.9 10.9a6.53 6.53 0 0 0-1.9 4.6V12H4v4h6v-.5c0 .85.17 1.7.5 2.5H2v-6H1v-2l1-5h16l.89 4.46a6.47 6.47 0 0 0-6.99 1.44M18 2H2v2h16V2m5.39 19L22 22.39l-3.12-3.07c-.69.43-1.51.68-2.38.68-2.5 0-4.5-2-4.5-4.5s2-4.5 4.5-4.5 4.5 2 4.5 4.5c0 .88-.25 1.71-.69 2.4l3.08 3.1M19 15.5a2.5 2.5 0 0 0-5 0 2.5 2.5 0 0 0 5 0Z" transform="matrix(1.5 0 0 1.5 612 324)" id="mdi-store-search" fill="#fff"/><path d="M18 4H2V2h16v2m-4.96 6h-10l.6-3h12.72l.4 2c.74.04 1.45.19 2.13.46L18 5H2l-1 5v2h1v6h8.5c-.33-.8-.5-1.65-.5-2.5v.5H4v-4h6v3.5c0-1.66.64-3.33 1.9-4.6.36-.35.74-.65 1.14-.9m10.35 11L22 22.39l-3.12-3.07c-.69.43-1.51.68-2.38.68-2.5 0-4.5-2-4.5-4.5s2-4.5 4.5-4.5 4.5 2 4.5 4.5c0 .88-.25 1.71-.69 2.4l3.08 3.1M19 15.5a2.5 2.5 0 0 0-5 0 2.5 2.5 0 0 0 5 0Z" transform="matrix(1.5 0 0 1.5 648 324)" id="mdi-store-search-outline" fill="#555"/><path d="M18 4H2V2h16v2m-4.96 6h-10l.6-3h12.72l.4 2c.74.04 1.45.19 2.13.46L18 5H2l-1 5v2h1v6h8.5c-.33-.8-.5-1.65-.5-2.5v.5H4v-4h6v3.5c0-1.66.64-3.33 1.9-4.6.36-.35.74-.65 1.14-.9m10.35 11L22 22.39l-3.12-3.07c-.69.43-1.51.68-2.38.68-2.5 0-4.5-2-4.5-4.5s2-4.5 4.5-4.5 4.5 2 4.5 4.5c0 .88-.25 1.71-.69 2.4l3.08 3.1M19 15.5a2.5 2.5 0 0 0-5 0 2.5 2.5 0 0 0 5 0Z" transform="matrix(1.5 0 0 1.5 684 324)" id="mdi-store-search-outline" fill="#fff"/></svg>