<svg xmlns="http://www.w3.org/2000/svg" width="720" height="900"><path d="M6 13H3v-3h3v3m4-3H7v3h3v-3M8 6H5v3h3V6m10 6c-3.75 0-5.72 1.25-7 2H2c0 2.21 1.79 4 4 4h1c1 0 1.92-.37 2.62-1 1.44-1.22 3.06-2.26 4.93-2.64 1.06-.21 2.23-.36 3.45-.36h4v-2h-4Z" transform="scale(1.5)" id="mdi-spoon-sugar" fill="#555"/><path d="M6 13H3v-3h3v3m4-3H7v3h3v-3M8 6H5v3h3V6m10 6c-3.75 0-5.72 1.25-7 2H2c0 2.21 1.79 4 4 4h1c1 0 1.92-.37 2.62-1 1.44-1.22 3.06-2.26 4.93-2.64 1.06-.21 2.23-.36 3.45-.36h4v-2h-4Z" transform="translate(36) scale(1.5)" id="mdi-spoon-sugar" fill="#fff"/><path d="M17.9 10.9C14.7 9 9.35 8.8 6.3 9.75c-.5.15-1-.15-1.15-.6-.15-.5.15-1 .6-1.15 3.55-1.05 9.4-.85 13.1 1.35.45.25.6.85.35 1.3-.25.35-.85.5-1.3.25m-.1 2.8c-.25.35-.7.5-1.05.25-2.7-1.65-6.8-2.15-9.95-1.15-.4.1-.85-.1-.95-.5-.1-.4.1-.85.5-.95 3.65-1.1 8.15-.55 11.25 1.35.3.15.45.65.2 1m-1.2 2.75c-.2.3-.55.4-.85.2-2.35-1.45-5.3-1.75-8.8-.95-.35.1-.65-.15-.75-.45-.1-.35.15-.65.45-.75 3.8-.85 7.1-.5 9.7 1.1.35.15.4.55.25.85M12 2A10 10 0 0 0 2 12a10 10 0 0 0 10 10 10 10 0 0 0 10-10A10 10 0 0 0 12 2Z" transform="translate(72) scale(1.5)" id="mdi-spotify" fill="#555"/><path d="M17.9 10.9C14.7 9 9.35 8.8 6.3 9.75c-.5.15-1-.15-1.15-.6-.15-.5.15-1 .6-1.15 3.55-1.05 9.4-.85 13.1 1.35.45.25.6.85.35 1.3-.25.35-.85.5-1.3.25m-.1 2.8c-.25.35-.7.5-1.05.25-2.7-1.65-6.8-2.15-9.95-1.15-.4.1-.85-.1-.95-.5-.1-.4.1-.85.5-.95 3.65-1.1 8.15-.55 11.25 1.35.3.15.45.65.2 1m-1.2 2.75c-.2.3-.55.4-.85.2-2.35-1.45-5.3-1.75-8.8-.95-.35.1-.65-.15-.75-.45-.1-.35.15-.65.45-.75 3.8-.85 7.1-.5 9.7 1.1.35.15.4.55.25.85M12 2A10 10 0 0 0 2 12a10 10 0 0 0 10 10 10 10 0 0 0 10-10A10 10 0 0 0 12 2Z" transform="translate(108) scale(1.5)" id="mdi-spotify" fill="#fff"/><path d="m2 6 5.09 2.55C6.4 9.5 6 10.71 6 12s.4 2.5 1.09 3.45L2 18V6m4-3h12l-2.55 4.09C14.5 6.4 13.29 6 12 6s-2.5.4-3.45 1.09L6 3m16 3v12l-5.09-2.55C17.6 14.5 18 13.29 18 12s-.4-2.5-1.09-3.45L22 6m-4 15H6l2.55-4.09C9.5 17.6 10.71 18 12 18s2.5-.4 3.45-1.09L18 21M12 8a4 4 0 0 1 4 4 4 4 0 0 1-4 4 4 4 0 0 1-4-4 4 4 0 0 1 4-4m0 2a2 2 0 0 0-2 2 2 2 0 0 0 2 2 2 2 0 0 0 2-2 2 2 0 0 0-2-2Z" transform="translate(144) scale(1.5)" id="mdi-spotlight" fill="#555"/><path d="m2 6 5.09 2.55C6.4 9.5 6 10.71 6 12s.4 2.5 1.09 3.45L2 18V6m4-3h12l-2.55 4.09C14.5 6.4 13.29 6 12 6s-2.5.4-3.45 1.09L6 3m16 3v12l-5.09-2.55C17.6 14.5 18 13.29 18 12s-.4-2.5-1.09-3.45L22 6m-4 15H6l2.55-4.09C9.5 17.6 10.71 18 12 18s2.5-.4 3.45-1.09L18 21M12 8a4 4 0 0 1 4 4 4 4 0 0 1-4 4 4 4 0 0 1-4-4 4 4 0 0 1 4-4m0 2a2 2 0 0 0-2 2 2 2 0 0 0 2 2 2 2 0 0 0 2-2 2 2 0 0 0-2-2Z" transform="translate(180) scale(1.5)" id="mdi-spotlight" fill="#fff"/><path d="m9 16.5.91-.91 5.22 5.21-.92.91L9 16.5m6.5-6.5.91-.91 5.22 5.21-.92.91L15.5 10M6.72 2.72l3.43 3.43-4 4-3.43-3.43c-.78-.78-.78-2.05 0-2.83l1.17-1.17c.78-.78 2.05-.78 2.83 0m7.85 4.78.71.71-7.07 7.07-.71-.71-.86-3.5 4.43-4.43 3.5.86Z" transform="translate(216) scale(1.5)" id="mdi-spotlight-beam" fill="#555"/><path d="m9 16.5.91-.91 5.22 5.21-.92.91L9 16.5m6.5-6.5.91-.91 5.22 5.21-.92.91L15.5 10M6.72 2.72l3.43 3.43-4 4-3.43-3.43c-.78-.78-.78-2.05 0-2.83l1.17-1.17c.78-.78 2.05-.78 2.83 0m7.85 4.78.71.71-7.07 7.07-.71-.71-.86-3.5 4.43-4.43 3.5.86Z" transform="translate(252) scale(1.5)" id="mdi-spotlight-beam" fill="#fff"/><path d="M10 4h2v2h-2V4M7 3h2v2H7V3m0 3h2v2H7V6M6 8v2H4V8h2m0-3v2H4V5h2m0-3v2H4V2h2m7 20a2 2 0 0 1-2-2V10a2 2 0 0 1 2-2V7h1V4h3v3h1v1a2 2 0 0 1 2 2v10a2 2 0 0 1-2 2h-5m0-12v10h5V10h-5Z" transform="translate(288) scale(1.5)" id="mdi-spray" fill="#555"/><path d="M10 4h2v2h-2V4M7 3h2v2H7V3m0 3h2v2H7V6M6 8v2H4V8h2m0-3v2H4V5h2m0-3v2H4V2h2m7 20a2 2 0 0 1-2-2V10a2 2 0 0 1 2-2V7h1V4h3v3h1v1a2 2 0 0 1 2 2v10a2 2 0 0 1-2 2h-5m0-12v10h5V10h-5Z" transform="translate(324) scale(1.5)" id="mdi-spray" fill="#fff"/><path d="M12 7h3c.66.64 1 1.31 1 2v13H8v-7c0-.28.11-.61.3-1L12 7m4-3-1 2h-3V5l-2 2H9l1-2V4H9V2h5.5A1.5 1.5 0 0 1 16 3.5V4Z" transform="translate(360) scale(1.5)" id="mdi-spray-bottle" fill="#555"/><path d="M12 7h3c.66.64 1 1.31 1 2v13H8v-7c0-.28.11-.61.3-1L12 7m4-3-1 2h-3V5l-2 2H9l1-2V4H9V2h5.5A1.5 1.5 0 0 1 16 3.5V4Z" transform="translate(396) scale(1.5)" id="mdi-spray-bottle" fill="#fff"/><path d="M11 7h2v2h-2V7M5 22h4V10H5v12m9-11h2V9h-2v2m3-1h2V8h-2v2m0-5v2h2V5h-2m-3 3h2V6h-2v2m3 5h2v-2h-2v2M5 7h.33L6 9h2l.67-2H9V6H5v1Z" transform="translate(432) scale(1.5)" id="mdi-sprinkler" fill="#555"/><path d="M11 7h2v2h-2V7M5 22h4V10H5v12m9-11h2V9h-2v2m3-1h2V8h-2v2m0-5v2h2V5h-2m-3 3h2V6h-2v2m3 5h2v-2h-2v2M5 7h.33L6 9h2l.67-2H9V6H5v1Z" transform="translate(468) scale(1.5)" id="mdi-sprinkler" fill="#fff"/><path d="M5 21v2h2v-2H5m6 0H9v2h2v-2m-4-3v2h2v-2H7m4-3v2H9v-2h2m4 6h-2v2h2v-2m-4-3v2h2v-2h-2m4-3v2h-2v-2h2m4 6h-2v2h2v-2m-4-3v2h2v-2h-2m1-7v2H8v-2h3V5h2v6h3m5-10v2h-3v3l-4 4V7.2l2-2V3H8v2.2l2 2V10L6 6V3H3V1h18Z" transform="translate(504) scale(1.5)" id="mdi-sprinkler-fire" fill="#555"/><path d="M5 21v2h2v-2H5m6 0H9v2h2v-2m-4-3v2h2v-2H7m4-3v2H9v-2h2m4 6h-2v2h2v-2m-4-3v2h2v-2h-2m4-3v2h-2v-2h2m4 6h-2v2h2v-2m-4-3v2h2v-2h-2m1-7v2H8v-2h3V5h2v6h3m5-10v2h-3v3l-4 4V7.2l2-2V3H8v2.2l2 2V10L6 6V3H3V1h18Z" transform="translate(540) scale(1.5)" id="mdi-sprinkler-fire" fill="#fff"/><path d="M10 10h4v12h-4V10M7 9h2V7H7v2M4 8h2V6H4v2m0 3h2V9H4v2m-3 2h2v-2H1v2m0-6h2V5H1v2m0 3h2V8H1v2m17 1h2V9h-2v2m3-1h2V8h-2v2m0-5v2h2V5h-2m0 8h2v-2h-2v2m-6-4h2V7h-2v2m3-1h2V6h-2v2m-8-1h.33L11 9h2l.67-2H14V6h-4v1Z" transform="translate(576) scale(1.5)" id="mdi-sprinkler-variant" fill="#555"/><path d="M10 10h4v12h-4V10M7 9h2V7H7v2M4 8h2V6H4v2m0 3h2V9H4v2m-3 2h2v-2H1v2m0-6h2V5H1v2m0 3h2V8H1v2m17 1h2V9h-2v2m3-1h2V8h-2v2m0-5v2h2V5h-2m0 8h2v-2h-2v2m-6-4h2V7h-2v2m3-1h2V6h-2v2m-8-1h.33L11 9h2l.67-2H14V6h-4v1Z" transform="translate(612) scale(1.5)" id="mdi-sprinkler-variant" fill="#fff"/><path d="M2 22v-2s5-2 10-2 10 2 10 2v2H2m9.3-12.9c-1.2-3.9-7.3-3-7.3-3s.2 7.8 5.9 6.6C9.5 9.8 8 9 8 9c2.8 0 3 3.4 3 3.4V17h2v-4.2s0-3.9 3-4.9c0 0-2 3-2 5 7 .7 7-8.9 7-8.9s-8.9-1-9.7 5.1Z" transform="translate(648) scale(1.5)" id="mdi-sprout" fill="#555"/><path d="M2 22v-2s5-2 10-2 10 2 10 2v2H2m9.3-12.9c-1.2-3.9-7.3-3-7.3-3s.2 7.8 5.9 6.6C9.5 9.8 8 9 8 9c2.8 0 3 3.4 3 3.4V17h2v-4.2s0-3.9 3-4.9c0 0-2 3-2 5 7 .7 7-8.9 7-8.9s-8.9-1-9.7 5.1Z" transform="translate(684) scale(1.5)" id="mdi-sprout" fill="#fff"/><path d="M23 4.1V2.3l-1.8-.2c-.1 0-.7-.1-1.7-.1-4.1 0-7.1 1.2-8.8 3.3C9.4 4.5 7.6 4 5.5 4c-1 0-1.7.1-1.7.1l-1.9.3.1 1.7c.1 3 1.6 8.7 6.8 8.7H9v3.4c-3.8.5-7 1.8-7 1.8v2h20v-2s-3.2-1.3-7-1.8V15c6.3-.1 8-7.2 8-10.9M12 18h-1v-5.6S10.8 9 8 9c0 0 1.5.8 1.9 3.7-.4.1-.8.1-1.1.1C4.2 12.8 4 6.1 4 6.1S4.6 6 5.5 6c1.9 0 5 .4 5.9 3.1C11.9 4.6 17 4 19.5 4c.9 0 1.5.1 1.5.1s0 9-6.3 9H14c0-2 2-5 2-5-3 1-3 4.9-3 4.9v5h-1Z" transform="matrix(1.5 0 0 1.5 0 36)" id="mdi-sprout-outline" fill="#555"/><path d="M23 4.1V2.3l-1.8-.2c-.1 0-.7-.1-1.7-.1-4.1 0-7.1 1.2-8.8 3.3C9.4 4.5 7.6 4 5.5 4c-1 0-1.7.1-1.7.1l-1.9.3.1 1.7c.1 3 1.6 8.7 6.8 8.7H9v3.4c-3.8.5-7 1.8-7 1.8v2h20v-2s-3.2-1.3-7-1.8V15c6.3-.1 8-7.2 8-10.9M12 18h-1v-5.6S10.8 9 8 9c0 0 1.5.8 1.9 3.7-.4.1-.8.1-1.1.1C4.2 12.8 4 6.1 4 6.1S4.6 6 5.5 6c1.9 0 5 .4 5.9 3.1C11.9 4.6 17 4 19.5 4c.9 0 1.5.1 1.5.1s0 9-6.3 9H14c0-2 2-5 2-5-3 1-3 4.9-3 4.9v5h-1Z" transform="matrix(1.5 0 0 1.5 36 36)" id="mdi-sprout-outline" fill="#fff"/><path d="M3 3v18h18V3" transform="matrix(1.5 0 0 1.5 72 36)" id="mdi-square" fill="#555"/><path d="M3 3v18h18V3" transform="matrix(1.5 0 0 1.5 108 36)" id="mdi-square" fill="#fff"/><path d="M20 4v16H4V4h16m2-2H2v20h20V2M12 6c-3.31 0-6 2.69-6 6s2.69 6 6 6 6-2.69 6-6-2.69-6-6-6Z" transform="matrix(1.5 0 0 1.5 144 36)" id="mdi-square-circle" fill="#555"/><path d="M20 4v16H4V4h16m2-2H2v20h20V2M12 6c-3.31 0-6 2.69-6 6s2.69 6 6 6 6-2.69 6-6-2.69-6-6-6Z" transform="matrix(1.5 0 0 1.5 180 36)" id="mdi-square-circle" fill="#fff"/><path d="M5 3c-1.11 0-2 .89-2 2v14a2 2 0 0 0 2 2h14a2 2 0 0 0 2-2v-7h-2v7H5V5h7V3H5m12.78 1a.69.69 0 0 0-.48.2l-1.22 1.21 2.5 2.5L19.8 6.7c.26-.26.26-.7 0-.95L18.25 4.2c-.13-.13-.3-.2-.47-.2m-2.41 2.12L8 13.5V16h2.5l7.37-7.38-2.5-2.5Z" transform="matrix(1.5 0 0 1.5 216 36)" id="mdi-square-edit-outline" fill="#555"/><path d="M5 3c-1.11 0-2 .89-2 2v14a2 2 0 0 0 2 2h14a2 2 0 0 0 2-2v-7h-2v7H5V5h7V3H5m12.78 1a.69.69 0 0 0-.48.2l-1.22 1.21 2.5 2.5L19.8 6.7c.26-.26.26-.7 0-.95L18.25 4.2c-.13-.13-.3-.2-.47-.2m-2.41 2.12L8 13.5V16h2.5l7.37-7.38-2.5-2.5Z" transform="matrix(1.5 0 0 1.5 252 36)" id="mdi-square-edit-outline" fill="#fff"/><path d="M16 8H8v8h8V8Z" transform="matrix(1.5 0 0 1.5 288 36)" id="mdi-square-medium" fill="#555"/><path d="M16 8H8v8h8V8Z" transform="matrix(1.5 0 0 1.5 324 36)" id="mdi-square-medium" fill="#fff"/><path d="M14 10v4h-4v-4h4m2-2H8v8h8V8Z" transform="matrix(1.5 0 0 1.5 360 36)" id="mdi-square-medium-outline" fill="#555"/><path d="M14 10v4h-4v-4h4m2-2H8v8h8V8Z" transform="matrix(1.5 0 0 1.5 396 36)" id="mdi-square-medium-outline" fill="#fff"/><path d="M20.84 22.73 19.11 21H3V4.89L1.11 3l1.28-1.27 19.72 19.73-1.27 1.27M21 3H6.2L21 17.8V3Z" transform="matrix(1.5 0 0 1.5 432 36)" id="mdi-square-off" fill="#555"/><path d="M20.84 22.73 19.11 21H3V4.89L1.11 3l1.28-1.27 19.72 19.73-1.27 1.27M21 3H6.2L21 17.8V3Z" transform="matrix(1.5 0 0 1.5 468 36)" id="mdi-square-off" fill="#fff"/><path d="M22.11 21.46 2.39 1.73 1.11 3 3 4.89V21h16.11l1.73 1.73 1.27-1.27M5 19V6.89L17.11 19H5M8.2 5l-2-2H21v14.8l-2-2V5H8.2Z" transform="matrix(1.5 0 0 1.5 504 36)" id="mdi-square-off-outline" fill="#555"/><path d="M22.11 21.46 2.39 1.73 1.11 3 3 4.89V21h16.11l1.73 1.73 1.27-1.27M5 19V6.89L17.11 19H5M8.2 5l-2-2H21v14.8l-2-2V5H8.2Z" transform="matrix(1.5 0 0 1.5 540 36)" id="mdi-square-off-outline" fill="#fff"/><path d="M19 13v-2h2v2h-2m2-4V7h-2v2h2m0-6h-2v2h2V3m-4 12h2v-2h-2v2m4 2v-2h-2v2h2m-8 0v-2h2v-2h-2v-2h2V9h-2V7h2V5h-2V3H3v18h10v-2h2v-2h-2m2 4h2v-2h-2v2m2-18h-2v2h2V3m0 8h2V9h-2v2m-2 6h2v-2h-2v2m2 2h2v-2h-2v2m4 2v-2h-2v2h2M15 9h2V7h-2v2m0 4h2v-2h-2v2m2-8v2h2V5h-2Z" transform="matrix(1.5 0 0 1.5 576 36)" id="mdi-square-opacity" fill="#555"/><path d="M19 13v-2h2v2h-2m2-4V7h-2v2h2m0-6h-2v2h2V3m-4 12h2v-2h-2v2m4 2v-2h-2v2h2m-8 0v-2h2v-2h-2v-2h2V9h-2V7h2V5h-2V3H3v18h10v-2h2v-2h-2m2 4h2v-2h-2v2m2-18h-2v2h2V3m0 8h2V9h-2v2m-2 6h2v-2h-2v2m2 2h2v-2h-2v2m4 2v-2h-2v2h2M15 9h2V7h-2v2m0 4h2v-2h-2v2m2-8v2h2V5h-2Z" transform="matrix(1.5 0 0 1.5 612 36)" id="mdi-square-opacity" fill="#fff"/><path d="M3 3h18v18H3V3m2 2v14h14V5H5Z" transform="matrix(1.5 0 0 1.5 648 36)" id="mdi-square-outline" fill="#555"/><path d="M3 3h18v18H3V3m2 2v14h14V5H5Z" transform="matrix(1.5 0 0 1.5 684 36)" id="mdi-square-outline" fill="#fff"/><path d="M11.76 16.83 14.59 14l-2.83-2.83 1.41-1.41L16 12.59l2.83-2.83 1.41 1.41L17.41 14l2.83 2.83-1.41 1.41L16 15.41l-2.83 2.83-1.41-1.41M2 11h3l2.29 5.4L10 6h12v2H11.55L8.68 19H6.22l-2.54-6H2v-2Z" transform="matrix(1.5 0 0 1.5 0 72)" id="mdi-square-root" fill="#555"/><path d="M11.76 16.83 14.59 14l-2.83-2.83 1.41-1.41L16 12.59l2.83-2.83 1.41 1.41L17.41 14l2.83 2.83-1.41 1.41L16 15.41l-2.83 2.83-1.41-1.41M2 11h3l2.29 5.4L10 6h12v2H11.55L8.68 19H6.22l-2.54-6H2v-2Z" transform="matrix(1.5 0 0 1.5 36 72)" id="mdi-square-root" fill="#fff"/><path d="M5 3c-1.11 0-2 .89-2 2v14a2 2 0 0 0 2 2h14a2 2 0 0 0 2-2V5a2 2 0 0 0-2-2H5m6.24 3H19v2h-6.24L10 18H8l-1.75-6H5v-2h2.75L9 14.28 11.24 6M14 10.59l1.79 1.79 1.8-1.79L19 12l-1.79 1.79 1.79 1.8L17.59 17l-1.8-1.79L14 17l-1.41-1.41 1.79-1.8L12.59 12 14 10.59Z" transform="matrix(1.5 0 0 1.5 72 72)" id="mdi-square-root-box" fill="#555"/><path d="M5 3c-1.11 0-2 .89-2 2v14a2 2 0 0 0 2 2h14a2 2 0 0 0 2-2V5a2 2 0 0 0-2-2H5m6.24 3H19v2h-6.24L10 18H8l-1.75-6H5v-2h2.75L9 14.28 11.24 6M14 10.59l1.79 1.79 1.8-1.79L19 12l-1.79 1.79 1.79 1.8L17.59 17l-1.8-1.79L14 17l-1.41-1.41 1.79-1.8L12.59 12 14 10.59Z" transform="matrix(1.5 0 0 1.5 108 72)" id="mdi-square-root-box" fill="#fff"/><path d="M8 3h8c2.76 0 5 2.24 5 5v8c0 2.76-2.24 5-5 5H8c-2.76 0-5-2.24-5-5V8c0-2.76 2.24-5 5-5Z" transform="matrix(1.5 0 0 1.5 144 72)" id="mdi-square-rounded" fill="#555"/><path d="M8 3h8c2.76 0 5 2.24 5 5v8c0 2.76-2.24 5-5 5H8c-2.76 0-5-2.24-5-5V8c0-2.76 2.24-5 5-5Z" transform="matrix(1.5 0 0 1.5 180 72)" id="mdi-square-rounded" fill="#fff"/><path d="M8 3h8c2.76 0 5 2.24 5 5v8c0 2.76-2.24 5-5 5H8c-2.76 0-5-2.24-5-5V8c0-2.76 2.24-5 5-5m0 2C6.34 5 5 6.34 5 8v8c0 1.66 1.34 3 3 3h8c1.66 0 3-1.34 3-3V8c0-1.66-1.34-3-3-3H8Z" transform="matrix(1.5 0 0 1.5 216 72)" id="mdi-square-rounded-outline" fill="#555"/><path d="M8 3h8c2.76 0 5 2.24 5 5v8c0 2.76-2.24 5-5 5H8c-2.76 0-5-2.24-5-5V8c0-2.76 2.24-5 5-5m0 2C6.34 5 5 6.34 5 8v8c0 1.66 1.34 3 3 3h8c1.66 0 3-1.34 3-3V8c0-1.66-1.34-3-3-3H8Z" transform="matrix(1.5 0 0 1.5 252 72)" id="mdi-square-rounded-outline" fill="#fff"/><path d="M10 14v-4h4v4h-4Z" transform="matrix(1.5 0 0 1.5 288 72)" id="mdi-square-small" fill="#555"/><path d="M10 14v-4h4v4h-4Z" transform="matrix(1.5 0 0 1.5 324 72)" id="mdi-square-small" fill="#fff"/><path d="M2 2v10h2V4h7v18h11V12h-2v8h-7V2H2Z" transform="matrix(1.5 0 0 1.5 360 72)" id="mdi-square-wave" fill="#555"/><path d="M2 2v10h2V4h7v18h11V12h-2v8h-7V2H2Z" transform="matrix(1.5 0 0 1.5 396 72)" id="mdi-square-wave" fill="#fff"/><path d="M22 2v3H2V2h20M2 8h5l2 2h1v10a2 2 0 0 0 2 2 2 2 0 0 0 2-2V10h1l2-2h5V6H2v2Z" transform="matrix(1.5 0 0 1.5 432 72)" id="mdi-squeegee" fill="#555"/><path d="M22 2v3H2V2h20M2 8h5l2 2h1v10a2 2 0 0 0 2 2 2 2 0 0 0 2-2V10h1l2-2h5V6H2v2Z" transform="matrix(1.5 0 0 1.5 468 72)" id="mdi-squeegee" fill="#fff"/><path d="M4.5 9c-.6 0-1 .5-1 1v1.75c0 .5.4 1 1 1H7v.75H3.5V15h4c.6 0 1-.5 1-1v-1.75c0-.5-.4-1-1-1H5v-.75h3.5V9h-4m6 0c-.6 0-1 .5-1 1v1.75c0 .5.4 1 1 1H13v.75H9.5V15h4c.6 0 1-.5 1-1v-1.75c0-.5-.4-1-1-1H11v-.75h3.5V9h-4m5 0v6H17v-2.5h2V15h1.5V9H19v2h-2V9h-1.5Z" transform="matrix(1.5 0 0 1.5 504 72)" id="mdi-ssh" fill="#555"/><path d="M4.5 9c-.6 0-1 .5-1 1v1.75c0 .5.4 1 1 1H7v.75H3.5V15h4c.6 0 1-.5 1-1v-1.75c0-.5-.4-1-1-1H5v-.75h3.5V9h-4m6 0c-.6 0-1 .5-1 1v1.75c0 .5.4 1 1 1H13v.75H9.5V15h4c.6 0 1-.5 1-1v-1.75c0-.5-.4-1-1-1H11v-.75h3.5V9h-4m5 0v6H17v-2.5h2V15h1.5V9H19v2h-2V9h-1.5Z" transform="matrix(1.5 0 0 1.5 540 72)" id="mdi-ssh" fill="#fff"/><path d="M3.9 10.72H20v3.31H3.9v-3.31m0-4.28H20v3.31H3.9V6.44M17.5 2h-11C5.06 2 3.9 3.18 3.9 4.65v.85H20v-.85C20 3.18 18.88 2 17.5 2M3.9 15v.84c0 1.47 1.16 2.66 2.6 2.66h6.87V22l3.4-3.5h.73c1.44 0 2.61-1.19 2.61-2.66V15H3.9Z" transform="matrix(1.5 0 0 1.5 576 72)" id="mdi-stack-exchange" fill="#555"/><path d="M3.9 10.72H20v3.31H3.9v-3.31m0-4.28H20v3.31H3.9V6.44M17.5 2h-11C5.06 2 3.9 3.18 3.9 4.65v.85H20v-.85C20 3.18 18.88 2 17.5 2M3.9 15v.84c0 1.47 1.16 2.66 2.6 2.66h6.87V22l3.4-3.5h.73c1.44 0 2.61-1.19 2.61-2.66V15H3.9Z" transform="matrix(1.5 0 0 1.5 612 72)" id="mdi-stack-exchange" fill="#fff"/><path d="M17.36 20.2v-5.38h1.79V22H3v-7.18h1.8v5.38h12.56M6.77 14.32l.37-1.76 8.79 1.85-.37 1.76-8.79-1.85m1.16-4.21.76-1.61 8.14 3.78-.76 1.62-8.14-3.79m2.26-3.99 1.15-1.38 6.9 5.76-1.15 1.37-6.9-5.75m4.45-4.25L20 9.08l-1.44 1.07-5.36-7.21 1.44-1.07M6.59 18.41v-1.8h8.98v1.8H6.59Z" transform="matrix(1.5 0 0 1.5 648 72)" id="mdi-stack-overflow" fill="#555"/><path d="M17.36 20.2v-5.38h1.79V22H3v-7.18h1.8v5.38h12.56M6.77 14.32l.37-1.76 8.79 1.85-.37 1.76-8.79-1.85m1.16-4.21.76-1.61 8.14 3.78-.76 1.62-8.14-3.79m2.26-3.99 1.15-1.38 6.9 5.76-1.15 1.37-6.9-5.75m4.45-4.25L20 9.08l-1.44 1.07-5.36-7.21 1.44-1.07M6.59 18.41v-1.8h8.98v1.8H6.59Z" transform="matrix(1.5 0 0 1.5 684 72)" id="mdi-stack-overflow" fill="#fff"/><path d="M4.91 8c-.87 0-1.59.2-2.15.61-.57.39-.85.92-.85 1.58s.24 1.18.71 1.53c.48.35 1.2.69 2.18 1 .47.16.8.32.98.47.18.15.27.36.27.64 0 .24-.09.43-.27.58-.18.15-.46.22-.84.22-.49 0-.85-.09-1.09-.28-.25-.19-.35-.51-.35-.96H1.72l-.01.03c-.01.83.29 1.47.95 1.91.64.45 1.4.67 2.28.67.88 0 1.56-.2 2.12-.58.53-.39.8-.92.8-1.61 0-.67-.23-1.2-.67-1.58-.45-.39-1.11-.73-1.99-.97-.58-.21-.97-.38-1.2-.52-.19-.14-.29-.32-.29-.54 0-.24.1-.44.29-.6.22-.16.5-.24.87-.24s.66.1.87.29c.22.19.33.47.32.76H7.8l.02-.04c.02-.69-.25-1.26-.82-1.71C6.47 8.22 5.77 8 4.91 8M9 8.05v7.88h1.84v-2.7h1.12c.93 0 1.67-.23 2.22-.73.55-.45.82-1.08.82-1.86 0-.77-.27-1.39-.82-1.87-.55-.48-1.29-.72-2.22-.72H9m8.24 0-2.74 7.88h1.72L19 8.05m1.5 0-2.71 7.88h1.71l2.79-7.88M10.84 9.46h1.12c.39 0 .7.11.9.34.21.2.31.51.31.85 0 .35-.1.63-.31.85-.2.21-.51.32-.9.32h-1.12" transform="matrix(1.5 0 0 1.5 0 108)" id="mdi-stackpath" fill="#555"/><path d="M4.91 8c-.87 0-1.59.2-2.15.61-.57.39-.85.92-.85 1.58s.24 1.18.71 1.53c.48.35 1.2.69 2.18 1 .47.16.8.32.98.47.18.15.27.36.27.64 0 .24-.09.43-.27.58-.18.15-.46.22-.84.22-.49 0-.85-.09-1.09-.28-.25-.19-.35-.51-.35-.96H1.72l-.01.03c-.01.83.29 1.47.95 1.91.64.45 1.4.67 2.28.67.88 0 1.56-.2 2.12-.58.53-.39.8-.92.8-1.61 0-.67-.23-1.2-.67-1.58-.45-.39-1.11-.73-1.99-.97-.58-.21-.97-.38-1.2-.52-.19-.14-.29-.32-.29-.54 0-.24.1-.44.29-.6.22-.16.5-.24.87-.24s.66.1.87.29c.22.19.33.47.32.76H7.8l.02-.04c.02-.69-.25-1.26-.82-1.71C6.47 8.22 5.77 8 4.91 8M9 8.05v7.88h1.84v-2.7h1.12c.93 0 1.67-.23 2.22-.73.55-.45.82-1.08.82-1.86 0-.77-.27-1.39-.82-1.87-.55-.48-1.29-.72-2.22-.72H9m8.24 0-2.74 7.88h1.72L19 8.05m1.5 0-2.71 7.88h1.71l2.79-7.88M10.84 9.46h1.12c.39 0 .7.11.9.34.21.2.31.51.31.85 0 .35-.1.63-.31.85-.2.21-.51.32-.9.32h-1.12" transform="matrix(1.5 0 0 1.5 36 108)" id="mdi-stackpath" fill="#fff"/><path d="M22 13.5v4c0 1.7-4.5 3-10 3-1.4 0-2.8-.1-4-.3v-2.7l-4-1v2.8c-1.3-.5-2-1.1-2-1.8v-6c0-1 2-2 4-2 6 0 8 5.5 13 5.5 2 0 3-1.5 3-1.5M5 8l4 1V6L5 5v3m13-1.5 4 1v-3l-4-1v3m4.3 4.3c0-1-.8-2.8-3.6-2.8s-5.3 2.7-5.4 2.9c1.8 1.3 3.2 2.6 5.7 2.6 3.3 0 3.3-2.7 3.3-2.7Z" transform="matrix(1.5 0 0 1.5 72 108)" id="mdi-stadium" fill="#555"/><path d="M22 13.5v4c0 1.7-4.5 3-10 3-1.4 0-2.8-.1-4-.3v-2.7l-4-1v2.8c-1.3-.5-2-1.1-2-1.8v-6c0-1 2-2 4-2 6 0 8 5.5 13 5.5 2 0 3-1.5 3-1.5M5 8l4 1V6L5 5v3m13-1.5 4 1v-3l-4-1v3m4.3 4.3c0-1-.8-2.8-3.6-2.8s-5.3 2.7-5.4 2.9c1.8 1.3 3.2 2.6 5.7 2.6 3.3 0 3.3-2.7 3.3-2.7Z" transform="matrix(1.5 0 0 1.5 108 108)" id="mdi-stadium" fill="#fff"/><path d="M5 3h2l3 2-3 2v1.33C8.47 8.12 10.18 8 12 8c1.82 0 3.53.12 5 .33V3h2l3 2-3 2v1.71c1.85.46 3 1.09 3 1.79 0 1.38-4.5 2.5-10 2.5S2 11.88 2 10.5c0-.7 1.15-1.33 3-1.79V3m7 6.5c-3.31 0-5 .17-5 1s1.69 1 5 1 5-.17 5-1-1.69-1-5-1m0 5.25c3.81 0 7.2-.67 9.4-1.7L20 21h-5v-2a2 2 0 0 0-2-2h-2a2 2 0 0 0-2 2v2H4l-1.4-7.95c2.2 1.03 5.59 1.7 9.4 1.7Z" transform="matrix(1.5 0 0 1.5 144 108)" id="mdi-stadium-variant" fill="#555"/><path d="M5 3h2l3 2-3 2v1.33C8.47 8.12 10.18 8 12 8c1.82 0 3.53.12 5 .33V3h2l3 2-3 2v1.71c1.85.46 3 1.09 3 1.79 0 1.38-4.5 2.5-10 2.5S2 11.88 2 10.5c0-.7 1.15-1.33 3-1.79V3m7 6.5c-3.31 0-5 .17-5 1s1.69 1 5 1 5-.17 5-1-1.69-1-5-1m0 5.25c3.81 0 7.2-.67 9.4-1.7L20 21h-5v-2a2 2 0 0 0-2-2h-2a2 2 0 0 0-2 2v2H4l-1.4-7.95c2.2 1.03 5.59 1.7 9.4 1.7Z" transform="matrix(1.5 0 0 1.5 180 108)" id="mdi-stadium-variant" fill="#fff"/><path d="M15 5v4h-4v4H7v4H3v3h7v-4h4v-4h4V8h4V5h-7Z" transform="matrix(1.5 0 0 1.5 216 108)" id="mdi-stairs" fill="#555"/><path d="M15 5v4h-4v4H7v4H3v3h7v-4h4v-4h4V8h4V5h-7Z" transform="matrix(1.5 0 0 1.5 252 108)" id="mdi-stairs" fill="#fff"/><path d="M5 3c-1.11 0-2 .89-2 2v14c0 1.11.89 2 2 2h14c1.11 0 2-.89 2-2V5c0-1.11-.89-2-2-2H5m9 4h5v2h-3v3h-3v3h-3v3H5v-2h3v-3h3v-3h3V7Z" transform="matrix(1.5 0 0 1.5 288 108)" id="mdi-stairs-box" fill="#555"/><path d="M5 3c-1.11 0-2 .89-2 2v14c0 1.11.89 2 2 2h14c1.11 0 2-.89 2-2V5c0-1.11-.89-2-2-2H5m9 4h5v2h-3v3h-3v3h-3v3H5v-2h3v-3h3v-3h3V7Z" transform="matrix(1.5 0 0 1.5 324 108)" id="mdi-stairs-box" fill="#fff"/><path d="M15 6h7v3h-4v4h-4v4h-4v4H3v-3h4v-4h4v-4h4V6M4.83 8.34l5.51-5.51 1.83 1.83-5.51 5.51L8.5 12H3V6.5l1.83 1.84Z" transform="matrix(1.5 0 0 1.5 360 108)" id="mdi-stairs-down" fill="#555"/><path d="M15 6h7v3h-4v4h-4v4h-4v4H3v-3h4v-4h4v-4h4V6M4.83 8.34l5.51-5.51 1.83 1.83-5.51 5.51L8.5 12H3V6.5l1.83 1.84Z" transform="matrix(1.5 0 0 1.5 396 108)" id="mdi-stairs-down" fill="#fff"/><path d="M15 6h7v3h-4v4h-4v4h-4v4H3v-3h4v-4h4v-4h4V6m-4.83.66-5.51 5.51-1.83-1.83 5.51-5.51L6.5 3H12v5.5l-1.83-1.84Z" transform="matrix(1.5 0 0 1.5 432 108)" id="mdi-stairs-up" fill="#555"/><path d="M15 6h7v3h-4v4h-4v4h-4v4H3v-3h4v-4h4v-4h4V6m-4.83.66-5.51 5.51-1.83-1.83 5.51-5.51L6.5 3H12v5.5l-1.83-1.84Z" transform="matrix(1.5 0 0 1.5 468 108)" id="mdi-stairs-up" fill="#fff"/><path d="M12 3a3 3 0 0 0-3 3c0 3 5 7-3 7a2 2 0 0 0-2 2v2h16v-2a2 2 0 0 0-2-2c-8 0-3-4-3-7 0-2-1.34-3-3-3M6 19v2h12v-2H6Z" transform="matrix(1.5 0 0 1.5 504 108)" id="mdi-stamper" fill="#555"/><path d="M12 3a3 3 0 0 0-3 3c0 3 5 7-3 7a2 2 0 0 0-2 2v2h16v-2a2 2 0 0 0-2-2c-8 0-3-4-3-7 0-2-1.34-3-3-3M6 19v2h12v-2H6Z" transform="matrix(1.5 0 0 1.5 540 108)" id="mdi-stamper" fill="#fff"/><path d="M13 7h3a3 3 0 0 1 3 3v4a3 3 0 0 1-3 3h-3V7m3 8a1 1 0 0 0 1-1v-4a1 1 0 0 0-1-1h-1v6h1M7 7h4v2H7v2h2a2 2 0 0 1 2 2v2a2 2 0 0 1-2 2H5v-2h4v-2H7a2 2 0 0 1-2-2V9a2 2 0 0 1 2-2Z" transform="matrix(1.5 0 0 1.5 576 108)" id="mdi-standard-definition" fill="#555"/><path d="M13 7h3a3 3 0 0 1 3 3v4a3 3 0 0 1-3 3h-3V7m3 8a1 1 0 0 0 1-1v-4a1 1 0 0 0-1-1h-1v6h1M7 7h4v2H7v2h2a2 2 0 0 1 2 2v2a2 2 0 0 1-2 2H5v-2h4v-2H7a2 2 0 0 1-2-2V9a2 2 0 0 1 2-2Z" transform="matrix(1.5 0 0 1.5 612 108)" id="mdi-standard-definition" fill="#fff"/><path d="M12 17.27 18.18 21l-1.64-7.03L22 9.24l-7.19-.62L12 2 9.19 8.62 2 9.24l5.45 4.73L5.82 21 12 17.27Z" transform="matrix(1.5 0 0 1.5 648 108)" id="mdi-star" fill="#555"/><path d="M12 17.27 18.18 21l-1.64-7.03L22 9.24l-7.19-.62L12 2 9.19 8.62 2 9.24l5.45 4.73L5.82 21 12 17.27Z" transform="matrix(1.5 0 0 1.5 684 108)" id="mdi-star" fill="#fff"/><path d="M19 3a2 2 0 0 1 2 2v14a2 2 0 0 1-2 2H5a2 2 0 0 1-2-2V5a2 2 0 0 1 2-2h14m-3.42 14-.95-4.08 3.16-2.73-4.17-.36L12 6l-1.62 3.84-4.17.36 3.16 2.73L8.42 17 12 14.84 15.58 17Z" transform="matrix(1.5 0 0 1.5 0 144)" id="mdi-star-box" fill="#555"/><path d="M19 3a2 2 0 0 1 2 2v14a2 2 0 0 1-2 2H5a2 2 0 0 1-2-2V5a2 2 0 0 1 2-2h14m-3.42 14-.95-4.08 3.16-2.73-4.17-.36L12 6l-1.62 3.84-4.17.36 3.16 2.73L8.42 17 12 14.84 15.58 17Z" transform="matrix(1.5 0 0 1.5 36 144)" id="mdi-star-box" fill="#fff"/><path d="M4 6v14h14v2H3c-.6 0-1-.4-1-1V6h2m4-4h12a2 2 0 0 1 2 2v12c0 1.11-.89 2-2 2H8a2 2 0 0 1-2-2V4c0-1.1.9-2 2-2m8.3 11.3-.4-2.6 1.9-1.9-2.6-.4L14 6l-1.2 2.4-2.6.4 1.9 1.8-.5 2.6L14 12l2.3 1.3Z" transform="matrix(1.5 0 0 1.5 72 144)" id="mdi-star-box-multiple" fill="#555"/><path d="M4 6v14h14v2H3c-.6 0-1-.4-1-1V6h2m4-4h12a2 2 0 0 1 2 2v12c0 1.11-.89 2-2 2H8a2 2 0 0 1-2-2V4c0-1.1.9-2 2-2m8.3 11.3-.4-2.6 1.9-1.9-2.6-.4L14 6l-1.2 2.4-2.6.4 1.9 1.8-.5 2.6L14 12l2.3 1.3Z" transform="matrix(1.5 0 0 1.5 108 144)" id="mdi-star-box-multiple" fill="#fff"/><path d="M4 6v14h14v2H3c-.6 0-1-.4-1-1V6h2m8.1 4.6-1.9-1.8 2.6-.4L14 6l1.2 2.4 2.6.4-1.9 1.9.4 2.6L14 12l-2.4 1.2.5-2.6M8 2h12a2 2 0 0 1 2 2v12c0 1.11-.89 2-2 2H8a2 2 0 0 1-2-2V4c0-1.1.9-2 2-2m0 2v12h12V4H8Z" transform="matrix(1.5 0 0 1.5 144 144)" id="mdi-star-box-multiple-outline" fill="#555"/><path d="M4 6v14h14v2H3c-.6 0-1-.4-1-1V6h2m8.1 4.6-1.9-1.8 2.6-.4L14 6l1.2 2.4 2.6.4-1.9 1.9.4 2.6L14 12l-2.4 1.2.5-2.6M8 2h12a2 2 0 0 1 2 2v12c0 1.11-.89 2-2 2H8a2 2 0 0 1-2-2V4c0-1.1.9-2 2-2m0 2v12h12V4H8Z" transform="matrix(1.5 0 0 1.5 180 144)" id="mdi-star-box-multiple-outline" fill="#fff"/><path d="M15.58 17 12 14.84 8.42 17l.95-4.07-3.16-2.73 4.17-.36L12 6l1.62 3.83 4.17.36-3.16 2.73.95 4.08M19 3a2 2 0 0 1 2 2v14a2 2 0 0 1-2 2H5a2 2 0 0 1-2-2V5a2 2 0 0 1 2-2h14M5 5v14h14V5H5Z" transform="matrix(1.5 0 0 1.5 216 144)" id="mdi-star-box-outline" fill="#555"/><path d="M15.58 17 12 14.84 8.42 17l.95-4.07-3.16-2.73 4.17-.36L12 6l1.62 3.83 4.17.36-3.16 2.73.95 4.08M19 3a2 2 0 0 1 2 2v14a2 2 0 0 1-2 2H5a2 2 0 0 1-2-2V5a2 2 0 0 1 2-2h14M5 5v14h14V5H5Z" transform="matrix(1.5 0 0 1.5 252 144)" id="mdi-star-box-outline" fill="#fff"/><path d="m5.8 21 1.6-7L2 9.2l7.2-.6L12 2l2.8 6.6 7.2.6-3.2 2.8H18c-3.1 0-5.6 2.3-6 5.3L5.8 21m12 .2 4.8-4.8-1.3-1.4-3.6 3.6-1.5-1.6-1.2 1.2 2.8 3" transform="matrix(1.5 0 0 1.5 288 144)" id="mdi-star-check" fill="#555"/><path d="m5.8 21 1.6-7L2 9.2l7.2-.6L12 2l2.8 6.6 7.2.6-3.2 2.8H18c-3.1 0-5.6 2.3-6 5.3L5.8 21m12 .2 4.8-4.8-1.3-1.4-3.6 3.6-1.5-1.6-1.2 1.2 2.8 3" transform="matrix(1.5 0 0 1.5 324 144)" id="mdi-star-check" fill="#fff"/><path d="m5.8 21 1.6-7L2 9.2l7.2-.6L12 2l2.8 6.6 7.2.6-3.2 2.8H18c-.7 0-1.4.1-2.1.4l2.2-1.9-4.4-.4-1.7-4-1.7 4-4.4.4 3.3 2.9-1 4.3 3.8-2.3.5.3c-.2.5-.4 1.1-.4 1.6L5.8 21m12 .2-2.8-3 1.2-1.2 1.6 1.6 3.6-3.6 1.2 1.4-4.8 4.8" transform="matrix(1.5 0 0 1.5 360 144)" id="mdi-star-check-outline" fill="#555"/><path d="m5.8 21 1.6-7L2 9.2l7.2-.6L12 2l2.8 6.6 7.2.6-3.2 2.8H18c-.7 0-1.4.1-2.1.4l2.2-1.9-4.4-.4-1.7-4-1.7 4-4.4.4 3.3 2.9-1 4.3 3.8-2.3.5.3c-.2.5-.4 1.1-.4 1.6L5.8 21m12 .2-2.8-3 1.2-1.2 1.6 1.6 3.6-3.6 1.2 1.4-4.8 4.8" transform="matrix(1.5 0 0 1.5 396 144)" id="mdi-star-check-outline" fill="#fff"/><path d="M16.23 18 12 15.45 7.77 18l1.12-4.81-3.73-3.23 4.92-.42L12 5l1.92 4.53 4.92.42-3.73 3.23L16.23 18M12 2C6.47 2 2 6.5 2 12a10 10 0 0 0 10 10 10 10 0 0 0 10-10A10 10 0 0 0 12 2Z" transform="matrix(1.5 0 0 1.5 432 144)" id="mdi-star-circle" fill="#555"/><path d="M16.23 18 12 15.45 7.77 18l1.12-4.81-3.73-3.23 4.92-.42L12 5l1.92 4.53 4.92.42-3.73 3.23L16.23 18M12 2C6.47 2 2 6.5 2 12a10 10 0 0 0 10 10 10 10 0 0 0 10-10A10 10 0 0 0 12 2Z" transform="matrix(1.5 0 0 1.5 468 144)" id="mdi-star-circle" fill="#fff"/><path d="m8.58 17.25.92-3.89-3-2.58 3.95-.37L12 6.8l1.55 3.65 3.95.33-3 2.58.92 3.89L12 15.19l-3.42 2.06M12 2a10 10 0 0 1 10 10 10 10 0 0 1-10 10A10 10 0 0 1 2 12 10 10 0 0 1 12 2m0 2a8 8 0 0 0-8 8 8 8 0 0 0 8 8 8 8 0 0 0 8-8 8 8 0 0 0-8-8Z" transform="matrix(1.5 0 0 1.5 504 144)" id="mdi-star-circle-outline" fill="#555"/><path d="m8.58 17.25.92-3.89-3-2.58 3.95-.37L12 6.8l1.55 3.65 3.95.33-3 2.58.92 3.89L12 15.19l-3.42 2.06M12 2a10 10 0 0 1 10 10 10 10 0 0 1-10 10A10 10 0 0 1 2 12 10 10 0 0 1 12 2m0 2a8 8 0 0 0-8 8 8 8 0 0 0 8 8 8 8 0 0 0 8-8 8 8 0 0 0-8-8Z" transform="matrix(1.5 0 0 1.5 540 144)" id="mdi-star-circle-outline" fill="#fff"/><path d="M18.8 12c-3.21.1-5.89 2.37-6.61 5.39l-.19-.12L5.82 21l1.63-7.03L2 9.24l7.19-.62L12 2l2.81 6.62 7.19.62L18.8 12m5.03 8.64-1 1.73c-.07.13-.2.13-.33.13l-1.23-.5c-.27.18-.54.34-.84.47l-.19 1.32c-.02.12-.13.21-.24.21h-2c-.14 0-.24-.09-.26-.21l-.19-1.32c-.31-.12-.59-.29-.85-.47l-1.24.5c-.12 0-.25 0-.31-.13l-1-1.73a.26.26 0 0 1 .06-.32l1.06-.82a4.193 4.193 0 0 1 0-1l-1.06-.82a.248.248 0 0 1-.06-.32l1-1.73c.07-.13.2-.13.31-.13l1.24.5c.26-.18.55-.34.85-.47l.19-1.32A.26.26 0 0 1 18 14h2c.11 0 .22.09.23.21l.19 1.32c.31.12.58.29.85.47l1.23-.5c.13 0 .26 0 .32.13l1 1.73c.06.11.03.24-.06.32l-1.06.82c.03.17.04.33.04.5s-.02.33-.04.5l1.07.82c.09.08.12.21.06.32M20.5 19c0-.83-.67-1.5-1.5-1.5s-1.5.67-1.5 1.5.66 1.5 1.5 1.5c.83 0 1.5-.67 1.5-1.5Z" transform="matrix(1.5 0 0 1.5 576 144)" id="mdi-star-cog" fill="#555"/><path d="M18.8 12c-3.21.1-5.89 2.37-6.61 5.39l-.19-.12L5.82 21l1.63-7.03L2 9.24l7.19-.62L12 2l2.81 6.62 7.19.62L18.8 12m5.03 8.64-1 1.73c-.07.13-.2.13-.33.13l-1.23-.5c-.27.18-.54.34-.84.47l-.19 1.32c-.02.12-.13.21-.24.21h-2c-.14 0-.24-.09-.26-.21l-.19-1.32c-.31-.12-.59-.29-.85-.47l-1.24.5c-.12 0-.25 0-.31-.13l-1-1.73a.26.26 0 0 1 .06-.32l1.06-.82a4.193 4.193 0 0 1 0-1l-1.06-.82a.248.248 0 0 1-.06-.32l1-1.73c.07-.13.2-.13.31-.13l1.24.5c.26-.18.55-.34.85-.47l.19-1.32A.26.26 0 0 1 18 14h2c.11 0 .22.09.23.21l.19 1.32c.31.12.58.29.85.47l1.23-.5c.13 0 .26 0 .32.13l1 1.73c.06.11.03.24-.06.32l-1.06.82c.03.17.04.33.04.5s-.02.33-.04.5l1.07.82c.09.08.12.21.06.32M20.5 19c0-.83-.67-1.5-1.5-1.5s-1.5.67-1.5 1.5.66 1.5 1.5 1.5c.83 0 1.5-.67 1.5-1.5Z" transform="matrix(1.5 0 0 1.5 612 144)" id="mdi-star-cog" fill="#fff"/><path d="m10.29 10.13-4.38.37 3.32 2.88-.99 4.28L12 15.39l.76.46c-.26.48-.44 1-.57 1.54l-.19-.12L5.82 21l1.63-7.03L2 9.24l7.19-.61L12 2l2.81 6.63 7.19.61L18.8 12a6.98 6.98 0 0 0-4.02 1.43l-.01-.05 3.32-2.88-4.38-.37L12 6.09l-1.71 4.04m13.54 10.51-1 1.73c-.07.13-.2.13-.33.13l-1.23-.5c-.27.18-.54.34-.84.47l-.19 1.32c-.02.12-.13.21-.24.21h-2c-.14 0-.24-.09-.26-.21l-.19-1.32c-.31-.12-.59-.29-.85-.47l-1.24.5c-.12 0-.25 0-.31-.13l-1-1.73a.26.26 0 0 1 .06-.32l1.06-.82a4.193 4.193 0 0 1 0-1l-1.06-.82a.248.248 0 0 1-.06-.32l1-1.73c.07-.13.2-.13.31-.13l1.24.5c.26-.18.55-.34.85-.47l.19-1.32A.26.26 0 0 1 18 14h2c.11 0 .22.09.23.21l.19 1.32c.31.12.58.29.85.47l1.23-.5c.13 0 .26 0 .32.13l1 1.73c.06.11.03.24-.06.32l-1.06.82c.03.17.04.33.04.5s-.02.33-.04.5l1.07.82c.09.08.12.21.06.32M20.5 19c0-.83-.67-1.5-1.5-1.5s-1.5.67-1.5 1.5.66 1.5 1.5 1.5c.83 0 1.5-.67 1.5-1.5Z" transform="matrix(1.5 0 0 1.5 648 144)" id="mdi-star-cog-outline" fill="#555"/><path d="m10.29 10.13-4.38.37 3.32 2.88-.99 4.28L12 15.39l.76.46c-.26.48-.44 1-.57 1.54l-.19-.12L5.82 21l1.63-7.03L2 9.24l7.19-.61L12 2l2.81 6.63 7.19.61L18.8 12a6.98 6.98 0 0 0-4.02 1.43l-.01-.05 3.32-2.88-4.38-.37L12 6.09l-1.71 4.04m13.54 10.51-1 1.73c-.07.13-.2.13-.33.13l-1.23-.5c-.27.18-.54.34-.84.47l-.19 1.32c-.02.12-.13.21-.24.21h-2c-.14 0-.24-.09-.26-.21l-.19-1.32c-.31-.12-.59-.29-.85-.47l-1.24.5c-.12 0-.25 0-.31-.13l-1-1.73a.26.26 0 0 1 .06-.32l1.06-.82a4.193 4.193 0 0 1 0-1l-1.06-.82a.248.248 0 0 1-.06-.32l1-1.73c.07-.13.2-.13.31-.13l1.24.5c.26-.18.55-.34.85-.47l.19-1.32A.26.26 0 0 1 18 14h2c.11 0 .22.09.23.21l.19 1.32c.31.12.58.29.85.47l1.23-.5c.13 0 .26 0 .32.13l1 1.73c.06.11.03.24-.06.32l-1.06.82c.03.17.04.33.04.5s-.02.33-.04.5l1.07.82c.09.08.12.21.06.32M20.5 19c0-.83-.67-1.5-1.5-1.5s-1.5.67-1.5 1.5.66 1.5 1.5 1.5c.83 0 1.5-.67 1.5-1.5Z" transform="matrix(1.5 0 0 1.5 684 144)" id="mdi-star-cog-outline" fill="#fff"/><path d="M12.3 2H12A10 10 0 0 0 2 12a10 10 0 0 0 10 10c3 0 4.7-1 6.5-2.5C13 21 8 17 8 12s5-9 10.5-7.5A8.56 8.56 0 0 0 12.3 2m4.5 4.2-1.5 3.5-3.7.3 2.9 2.5-.9 3.5 3.2-2 3.2 2-1-3.5 3-2.5-3.7-.3-1.5-3.5Z" transform="matrix(1.5 0 0 1.5 0 180)" id="mdi-star-crescent" fill="#555"/><path d="M12.3 2H12A10 10 0 0 0 2 12a10 10 0 0 0 10 10c3 0 4.7-1 6.5-2.5C13 21 8 17 8 12s5-9 10.5-7.5A8.56 8.56 0 0 0 12.3 2m4.5 4.2-1.5 3.5-3.7.3 2.9 2.5-.9 3.5 3.2-2 3.2 2-1-3.5 3-2.5-3.7-.3-1.5-3.5Z" transform="matrix(1.5 0 0 1.5 36 180)" id="mdi-star-crescent" fill="#fff"/><path d="M12 2 9.1 7H3.3l3 5-3 5h5.8l2.9 5 2.9-5h5.8l-3-5 3-5h-5.8L12 2m0 3 1.2 2h-2.4L12 5M8.2 8.5l-1.1 2-1.2-2h2.3m1.8 0h4l2 3.5-2 3.5h-4L8 12l2-3.5m8 0-1.2 2-1.1-2H18m-10.9 5 1.1 2H6l1.1-2m9.8 0 1.2 2h-2.3l1.1-2M13.3 17 12 19l-1.2-2h2.5Z" transform="matrix(1.5 0 0 1.5 72 180)" id="mdi-star-david" fill="#555"/><path d="M12 2 9.1 7H3.3l3 5-3 5h5.8l2.9 5 2.9-5h5.8l-3-5 3-5h-5.8L12 2m0 3 1.2 2h-2.4L12 5M8.2 8.5l-1.1 2-1.2-2h2.3m1.8 0h4l2 3.5-2 3.5h-4L8 12l2-3.5m8 0-1.2 2-1.1-2H18m-10.9 5 1.1 2H6l1.1-2m9.8 0 1.2 2h-2.3l1.1-2M13.3 17 12 19l-1.2-2h2.5Z" transform="matrix(1.5 0 0 1.5 108 180)" id="mdi-star-david" fill="#fff"/><path d="M12 2.5 8.42 8.06 2 9.74l4.2 5.14-.38 6.62L12 19.09l6.18 2.41-.38-6.62L22 9.74l-6.42-1.68L12 2.5m-2.62 8c.62 0 1.12.5 1.12 1.13a1.12 1.12 0 0 1-1.12 1.12c-.63 0-1.13-.5-1.13-1.12 0-.63.5-1.13 1.13-1.13m5.25 0c.62 0 1.12.5 1.12 1.13a1.12 1.12 0 0 1-1.12 1.12c-.63 0-1.13-.5-1.13-1.12 0-.63.5-1.13 1.13-1.13M9 15h6a3.249 3.249 0 0 1-6 0Z" transform="matrix(1.5 0 0 1.5 144 180)" id="mdi-star-face" fill="#555"/><path d="M12 2.5 8.42 8.06 2 9.74l4.2 5.14-.38 6.62L12 19.09l6.18 2.41-.38-6.62L22 9.74l-6.42-1.68L12 2.5m-2.62 8c.62 0 1.12.5 1.12 1.13a1.12 1.12 0 0 1-1.12 1.12c-.63 0-1.13-.5-1.13-1.12 0-.63.5-1.13 1.13-1.13m5.25 0c.62 0 1.12.5 1.12 1.13a1.12 1.12 0 0 1-1.12 1.12c-.63 0-1.13-.5-1.13-1.12 0-.63.5-1.13 1.13-1.13M9 15h6a3.249 3.249 0 0 1-6 0Z" transform="matrix(1.5 0 0 1.5 180 180)" id="mdi-star-face" fill="#fff"/><path d="M12 1 9 9l-8 3 8 3 3 8 3-8 8-3-8-3-3-8Z" transform="matrix(1.5 0 0 1.5 216 180)" id="mdi-star-four-points" fill="#555"/><path d="M12 1 9 9l-8 3 8 3 3 8 3-8 8-3-8-3-3-8Z" transform="matrix(1.5 0 0 1.5 252 180)" id="mdi-star-four-points" fill="#fff"/><path d="m12 6.7 1.45 3.85L17.3 12l-3.85 1.45L12 17.3l-1.45-3.85L6.7 12l3.85-1.45L12 6.7M12 1 9 9l-8 3 8 3 3 8 3-8 8-3-8-3-3-8Z" transform="matrix(1.5 0 0 1.5 288 180)" id="mdi-star-four-points-outline" fill="#555"/><path d="m12 6.7 1.45 3.85L17.3 12l-3.85 1.45L12 17.3l-1.45-3.85L6.7 12l3.85-1.45L12 6.7M12 1 9 9l-8 3 8 3 3 8 3-8 8-3-8-3-3-8Z" transform="matrix(1.5 0 0 1.5 324 180)" id="mdi-star-four-points-outline" fill="#fff"/><path d="M12 2 9.19 8.62 2 9.24l5.45 4.73L5.82 21 12 17.27V2Z" transform="matrix(1.5 0 0 1.5 360 180)" id="mdi-star-half" fill="#555"/><path d="M12 2 9.19 8.62 2 9.24l5.45 4.73L5.82 21 12 17.27V2Z" transform="matrix(1.5 0 0 1.5 396 180)" id="mdi-star-half" fill="#fff"/><path d="M12 15.4V6.1l1.71 4.03 4.38.37-3.32 2.89.99 4.28M22 9.24l-7.19-.61L12 2 9.19 8.63 2 9.24l5.45 4.73L5.82 21 12 17.27 18.18 21l-1.64-7.03L22 9.24Z" transform="matrix(1.5 0 0 1.5 432 180)" id="mdi-star-half-full" fill="#555"/><path d="M12 15.4V6.1l1.71 4.03 4.38.37-3.32 2.89.99 4.28M22 9.24l-7.19-.61L12 2 9.19 8.63 2 9.24l5.45 4.73L5.82 21 12 17.27 18.18 21l-1.64-7.03L22 9.24Z" transform="matrix(1.5 0 0 1.5 468 180)" id="mdi-star-half-full" fill="#fff"/><path d="m5.8 21 1.6-7L2 9.2l7.2-.6L12 2l2.8 6.6 7.2.6-3.2 2.8H18c-3.1 0-5.6 2.3-6 5.3L5.8 21m8.2-4v2h8v-2h-8Z" transform="matrix(1.5 0 0 1.5 504 180)" id="mdi-star-minus" fill="#555"/><path d="m5.8 21 1.6-7L2 9.2l7.2-.6L12 2l2.8 6.6 7.2.6-3.2 2.8H18c-3.1 0-5.6 2.3-6 5.3L5.8 21m8.2-4v2h8v-2h-8Z" transform="matrix(1.5 0 0 1.5 540 180)" id="mdi-star-minus" fill="#fff"/><path d="m5.8 21 1.6-7L2 9.2l7.2-.6L12 2l2.8 6.6 7.2.6-3.2 2.8H18c-.7 0-1.4.1-2.1.4l2.2-1.9-4.4-.4-1.7-4-1.7 4-4.4.4 3.3 2.9-1 4.3 3.8-2.3.5.3c-.2.5-.4 1.1-.4 1.6L5.8 21m8.2-4v2h8v-2h-8Z" transform="matrix(1.5 0 0 1.5 576 180)" id="mdi-star-minus-outline" fill="#555"/><path d="m5.8 21 1.6-7L2 9.2l7.2-.6L12 2l2.8 6.6 7.2.6-3.2 2.8H18c-.7 0-1.4.1-2.1.4l2.2-1.9-4.4-.4-1.7-4-1.7 4-4.4.4 3.3 2.9-1 4.3 3.8-2.3.5.3c-.2.5-.4 1.1-.4 1.6L5.8 21m8.2-4v2h8v-2h-8Z" transform="matrix(1.5 0 0 1.5 612 180)" id="mdi-star-minus-outline" fill="#fff"/><path d="m20.8 22.7-2.9-2.9.3 1.2-6.2-3.7L5.8 21l1.6-7L2 9.2l4.9-.4L1.1 3l1.3-1.3 19.7 19.7-1.3 1.3M22 9.2l-7.2-.6L12 2l-2 4.8 6.9 6.9L22 9.2Z" transform="matrix(1.5 0 0 1.5 648 180)" id="mdi-star-off" fill="#555"/><path d="m20.8 22.7-2.9-2.9.3 1.2-6.2-3.7L5.8 21l1.6-7L2 9.2l4.9-.4L1.1 3l1.3-1.3 19.7 19.7-1.3 1.3M22 9.2l-7.2-.6L12 2l-2 4.8 6.9 6.9L22 9.2Z" transform="matrix(1.5 0 0 1.5 684 180)" id="mdi-star-off" fill="#fff"/><path d="M22.1 21.5 2.4 1.7 1.1 3l5.8 5.8-4.9.4L7.5 14l-1.6 7 6.2-3.7 6.2 3.7-.3-1.2 2.9 2.9 1.2-1.2m-6.3-3.8L12 15.4l-3.8 2.3 1-4.3-3.3-2.9 2.5-.2 7.4 7.4M11.2 8 10 6.8 12 2l2.8 6.6 7.2.6-5.1 4.4-1.1-1.1 2.4-2-4.4-.4-1.7-4-.9 1.9Z" transform="matrix(1.5 0 0 1.5 0 216)" id="mdi-star-off-outline" fill="#555"/><path d="M22.1 21.5 2.4 1.7 1.1 3l5.8 5.8-4.9.4L7.5 14l-1.6 7 6.2-3.7 6.2 3.7-.3-1.2 2.9 2.9 1.2-1.2m-6.3-3.8L12 15.4l-3.8 2.3 1-4.3-3.3-2.9 2.5-.2 7.4 7.4M11.2 8 10 6.8 12 2l2.8 6.6 7.2.6-5.1 4.4-1.1-1.1 2.4-2-4.4-.4-1.7-4-.9 1.9Z" transform="matrix(1.5 0 0 1.5 36 216)" id="mdi-star-off-outline" fill="#fff"/><path d="m12 15.39-3.76 2.27.99-4.28-3.32-2.88 4.38-.37L12 6.09l1.71 4.04 4.38.37-3.32 2.88.99 4.28M22 9.24l-7.19-.61L12 2 9.19 8.63 2 9.24l5.45 4.73L5.82 21 12 17.27 18.18 21l-1.64-7.03L22 9.24Z" transform="matrix(1.5 0 0 1.5 72 216)" id="mdi-star-outline" fill="#555"/><path d="m12 15.39-3.76 2.27.99-4.28-3.32-2.88 4.38-.37L12 6.09l1.71 4.04 4.38.37-3.32 2.88.99 4.28M22 9.24l-7.19-.61L12 2 9.19 8.63 2 9.24l5.45 4.73L5.82 21 12 17.27 18.18 21l-1.64-7.03L22 9.24Z" transform="matrix(1.5 0 0 1.5 108 216)" id="mdi-star-outline" fill="#fff"/><path d="m5.8 21 1.6-7L2 9.2l7.2-.6L12 2l2.8 6.6 7.2.6-3.2 2.8H18c-3.1 0-5.6 2.3-6 5.3L5.8 21M17 14v3h-3v2h3v3h2v-3h3v-2h-3v-3h-2Z" transform="matrix(1.5 0 0 1.5 144 216)" id="mdi-star-plus" fill="#555"/><path d="m5.8 21 1.6-7L2 9.2l7.2-.6L12 2l2.8 6.6 7.2.6-3.2 2.8H18c-3.1 0-5.6 2.3-6 5.3L5.8 21M17 14v3h-3v2h3v3h2v-3h3v-2h-3v-3h-2Z" transform="matrix(1.5 0 0 1.5 180 216)" id="mdi-star-plus" fill="#fff"/><path d="m5.8 21 1.6-7L2 9.2l7.2-.6L12 2l2.8 6.6 7.2.6-3.2 2.8H18c-.7 0-1.4.1-2.1.4l2.2-1.9-4.4-.4-1.7-4-1.7 4-4.4.4 3.3 2.9-1 4.3 3.8-2.3.5.3c-.2.5-.4 1.1-.4 1.6L5.8 21M17 14v3h-3v2h3v3h2v-3h3v-2h-3v-3h-2Z" transform="matrix(1.5 0 0 1.5 216 216)" id="mdi-star-plus-outline" fill="#555"/><path d="m5.8 21 1.6-7L2 9.2l7.2-.6L12 2l2.8 6.6 7.2.6-3.2 2.8H18c-.7 0-1.4.1-2.1.4l2.2-1.9-4.4-.4-1.7-4-1.7 4-4.4.4 3.3 2.9-1 4.3 3.8-2.3.5.3c-.2.5-.4 1.1-.4 1.6L5.8 21M17 14v3h-3v2h3v3h2v-3h3v-2h-3v-3h-2Z" transform="matrix(1.5 0 0 1.5 252 216)" id="mdi-star-plus-outline" fill="#fff"/><path d="m5.8 21 1.6-7L2 9.2l7.2-.6L12 2l2.8 6.6 7.2.6-3.2 2.8H18c-3.1 0-5.6 2.3-6 5.3L5.8 21m14.3-6.5L18 16.6l-2.1-2.1-1.4 1.4 2.1 2.1-2.1 2.1 1.4 1.4 2.1-2.1 2.1 2.1 1.4-1.4-2.1-2.1 2.1-2.1-1.4-1.4Z" transform="matrix(1.5 0 0 1.5 288 216)" id="mdi-star-remove" fill="#555"/><path d="m5.8 21 1.6-7L2 9.2l7.2-.6L12 2l2.8 6.6 7.2.6-3.2 2.8H18c-3.1 0-5.6 2.3-6 5.3L5.8 21m14.3-6.5L18 16.6l-2.1-2.1-1.4 1.4 2.1 2.1-2.1 2.1 1.4 1.4 2.1-2.1 2.1 2.1 1.4-1.4-2.1-2.1 2.1-2.1-1.4-1.4Z" transform="matrix(1.5 0 0 1.5 324 216)" id="mdi-star-remove" fill="#fff"/><path d="m5.8 21 1.6-7L2 9.2l7.2-.6L12 2l2.8 6.6 7.2.6-3.2 2.8H18c-.7 0-1.4.1-2.1.4l2.2-1.9-4.4-.4-1.7-4-1.7 4-4.4.4 3.3 2.9-1 4.3 3.8-2.3.5.3c-.2.5-.4 1.1-.4 1.6L5.8 21m14.3-6.5L18 16.6l-2.1-2.1-1.4 1.4 2.1 2.1-2.1 2.1 1.4 1.4 2.1-2.1 2.1 2.1 1.4-1.4-2.1-2.1 2.1-2.1-1.4-1.4Z" transform="matrix(1.5 0 0 1.5 360 216)" id="mdi-star-remove-outline" fill="#555"/><path d="m5.8 21 1.6-7L2 9.2l7.2-.6L12 2l2.8 6.6 7.2.6-3.2 2.8H18c-.7 0-1.4.1-2.1.4l2.2-1.9-4.4-.4-1.7-4-1.7 4-4.4.4 3.3 2.9-1 4.3 3.8-2.3.5.3c-.2.5-.4 1.1-.4 1.6L5.8 21m14.3-6.5L18 16.6l-2.1-2.1-1.4 1.4 2.1 2.1-2.1 2.1 1.4 1.4 2.1-2.1 2.1 2.1 1.4-1.4-2.1-2.1 2.1-2.1-1.4-1.4Z" transform="matrix(1.5 0 0 1.5 396 216)" id="mdi-star-remove-outline" fill="#fff"/><path d="M7 22h2v2H7v-2m4 2h2v-2h-2v2m4 0h2v-2h-2v2m7-14.76-7.19-.62L12 2 9.19 8.62 2 9.24l5.45 4.73L5.82 21 12 17.27 18.18 21l-1.64-7.03L22 9.24Z" transform="matrix(1.5 0 0 1.5 432 216)" id="mdi-star-settings" fill="#555"/><path d="M7 22h2v2H7v-2m4 2h2v-2h-2v2m4 0h2v-2h-2v2m7-14.76-7.19-.62L12 2 9.19 8.62 2 9.24l5.45 4.73L5.82 21 12 17.27 18.18 21l-1.64-7.03L22 9.24Z" transform="matrix(1.5 0 0 1.5 468 216)" id="mdi-star-settings" fill="#fff"/><path d="M11 22h2v2h-2v-2m-4 2h2v-2H7v2m8 0h2v-2h-2v2m1.54-10.03L18.18 21 12 17.27 5.82 21l1.63-7.03L2 9.24l7.19-.61L12 2l2.81 6.63 7.19.61-5.46 4.73m-.78 3.69-.99-4.28 3.32-2.88-4.38-.37L12 6.09l-1.71 4.04-4.38.37 3.32 2.88-.99 4.28L12 15.39l3.76 2.27Z" transform="matrix(1.5 0 0 1.5 504 216)" id="mdi-star-settings-outline" fill="#555"/><path d="M11 22h2v2h-2v-2m-4 2h2v-2H7v2m8 0h2v-2h-2v2m1.54-10.03L18.18 21 12 17.27 5.82 21l1.63-7.03L2 9.24l7.19-.61L12 2l2.81 6.63 7.19.61-5.46 4.73m-.78 3.69-.99-4.28 3.32-2.88-4.38-.37L12 6.09l-1.71 4.04-4.38.37 3.32 2.88-.99 4.28L12 15.39l3.76 2.27Z" transform="matrix(1.5 0 0 1.5 540 216)" id="mdi-star-settings-outline" fill="#fff"/><path d="m18.09 11.77 1.47 6.33L14 14.74 8.44 18.1l1.46-6.33L5 7.5l6.47-.54L14 1l2.53 5.96L23 7.5l-4.91 4.27M2 12.43c.19 0 .38-.06.55-.17l3.2-2.11-1.57-1.36-2.73 1.8c-.461.3-.589.91-.29 1.41.2.27.52.43.84.43m-.84 9.12c.2.29.52.45.84.45.19 0 .38-.05.55-.16l4.11-2.71.34-1.37.31-1.45-5.86 3.85c-.461.31-.589.93-.29 1.39m.29-6.17a1 1 0 0 0-.29 1.38c.2.3.52.45.84.45.19 0 .38-.05.55-.16l5.42-3.55.27-1.19-.92-.81-5.87 3.88Z" transform="matrix(1.5 0 0 1.5 576 216)" id="mdi-star-shooting" fill="#555"/><path d="m18.09 11.77 1.47 6.33L14 14.74 8.44 18.1l1.46-6.33L5 7.5l6.47-.54L14 1l2.53 5.96L23 7.5l-4.91 4.27M2 12.43c.19 0 .38-.06.55-.17l3.2-2.11-1.57-1.36-2.73 1.8c-.461.3-.589.91-.29 1.41.2.27.52.43.84.43m-.84 9.12c.2.29.52.45.84.45.19 0 .38-.05.55-.16l4.11-2.71.34-1.37.31-1.45-5.86 3.85c-.461.31-.589.93-.29 1.39m.29-6.17a1 1 0 0 0-.29 1.38c.2.3.52.45.84.45.19 0 .38-.05.55-.16l5.42-3.55.27-1.19-.92-.81-5.87 3.88Z" transform="matrix(1.5 0 0 1.5 612 216)" id="mdi-star-shooting" fill="#fff"/><path d="m23 7.5-6.47-.54L14 1l-2.53 5.96L5 7.5l4.9 4.27-1.46 6.33L14 14.74l5.56 3.36-1.47-6.33L23 7.5m-6.86 4.73.4 1.71-1.51-.91-1.03-.62-1.03.62-1.51.91.39-1.71.28-1.18-.91-.79L9.88 9.1l1.76-.15 1.2-.1.47-1.11.69-1.62.69 1.62.47 1.11 1.2.1 1.75.15-1.33 1.16-.92.79.28 1.18M1.16 12c-.299-.5-.171-1.11.29-1.41l2.73-1.8 1.57 1.36-3.2 2.11c-.17.11-.36.17-.55.17-.32 0-.64-.16-.84-.43m.29 8.16 5.86-3.85L7 17.76l-.34 1.37-4.11 2.71c-.17.11-.36.16-.55.16-.32 0-.64-.16-.84-.45a1.013 1.013 0 0 1 .29-1.39m5.87-8.66.92.81-.27 1.19-5.42 3.55c-.17.11-.36.16-.55.16-.32 0-.64-.15-.84-.45a1 1 0 0 1 .29-1.38l5.87-3.88Z" transform="matrix(1.5 0 0 1.5 648 216)" id="mdi-star-shooting-outline" fill="#555"/><path d="m23 7.5-6.47-.54L14 1l-2.53 5.96L5 7.5l4.9 4.27-1.46 6.33L14 14.74l5.56 3.36-1.47-6.33L23 7.5m-6.86 4.73.4 1.71-1.51-.91-1.03-.62-1.03.62-1.51.91.39-1.71.28-1.18-.91-.79L9.88 9.1l1.76-.15 1.2-.1.47-1.11.69-1.62.69 1.62.47 1.11 1.2.1 1.75.15-1.33 1.16-.92.79.28 1.18M1.16 12c-.299-.5-.171-1.11.29-1.41l2.73-1.8 1.57 1.36-3.2 2.11c-.17.11-.36.17-.55.17-.32 0-.64-.16-.84-.43m.29 8.16 5.86-3.85L7 17.76l-.34 1.37-4.11 2.71c-.17.11-.36.16-.55.16-.32 0-.64-.16-.84-.45a1.013 1.013 0 0 1 .29-1.39m5.87-8.66.92.81-.27 1.19-5.42 3.55c-.17.11-.36.16-.55.16-.32 0-.64-.15-.84-.45a1 1 0 0 1 .29-1.38l5.87-3.88Z" transform="matrix(1.5 0 0 1.5 684 216)" id="mdi-star-shooting-outline" fill="#fff"/><path d="m12 2.6-3 9.8-7 7.5 10-2.3L22 20l-7-7.5-3-9.9Z" transform="matrix(1.5 0 0 1.5 0 252)" id="mdi-star-three-points" fill="#555"/><path d="m12 2.6-3 9.8-7 7.5 10-2.3L22 20l-7-7.5-3-9.9Z" transform="matrix(1.5 0 0 1.5 36 252)" id="mdi-star-three-points" fill="#fff"/><path d="m12 9.5 1.2 4 2.8 3-4-.9-4.1.9 2.8-3 1.3-4m0-6.9-3 9.8-7 7.5 10-2.3L22 20l-7-7.5-3-9.9Z" transform="matrix(1.5 0 0 1.5 72 252)" id="mdi-star-three-points-outline" fill="#555"/><path d="m12 9.5 1.2 4 2.8 3-4-.9-4.1.9 2.8-3 1.3-4m0-6.9-3 9.8-7 7.5 10-2.3L22 20l-7-7.5-3-9.9Z" transform="matrix(1.5 0 0 1.5 108 252)" id="mdi-star-three-points-outline" fill="#fff"/><path d="M6.27 17.05A2.991 2.991 0 0 1 4 22c-1.66 0-3-1.34-3-3s1.34-3 3-3c.18 0 .36 0 .53.05l3.07-5.36-1.74-.99 4.09-1.12 1.12 4.09-1.74-.99-3.06 5.37M20 16c-1.3 0-2.4.84-2.82 2H11v-2l-3 3 3 3v-2h6.18c.42 1.16 1.52 2 2.82 2 1.66 0 3-1.34 3-3s-1.34-3-3-3m-8-8c.18 0 .36 0 .53-.05l3.07 5.36-1.74.99 4.09 1.12 1.12-4.09-1.74.99-3.06-5.37A2.991 2.991 0 0 0 12 2c-1.66 0-3 1.34-3 3s1.34 3 3 3Z" transform="matrix(1.5 0 0 1.5 144 252)" id="mdi-state-machine" fill="#555"/><path d="M6.27 17.05A2.991 2.991 0 0 1 4 22c-1.66 0-3-1.34-3-3s1.34-3 3-3c.18 0 .36 0 .53.05l3.07-5.36-1.74-.99 4.09-1.12 1.12 4.09-1.74-.99-3.06 5.37M20 16c-1.3 0-2.4.84-2.82 2H11v-2l-3 3 3 3v-2h6.18c.42 1.16 1.52 2 2.82 2 1.66 0 3-1.34 3-3s-1.34-3-3-3m-8-8c.18 0 .36 0 .53-.05l3.07 5.36-1.74.99 4.09 1.12 1.12-4.09-1.74.99-3.06-5.37A2.991 2.991 0 0 0 12 2c-1.66 0-3 1.34-3 3s1.34 3 3 3Z" transform="matrix(1.5 0 0 1.5 180 252)" id="mdi-state-machine" fill="#fff"/><path d="M12 2a10 10 0 0 1 10 10 10 10 0 0 1-10 10c-4.6 0-8.45-3.08-9.64-7.27l3.83 1.58a2.843 2.843 0 0 0 2.78 2.27c1.56 0 2.83-1.27 2.83-2.83v-.13l3.4-2.43h.08c2.08 0 3.77-1.69 3.77-3.77s-1.69-3.77-3.77-3.77-3.78 1.69-3.78 3.77v.05l-2.37 3.46-.16-.01c-.59 0-1.14.18-1.59.49L2 11.2C2.43 6.05 6.73 2 12 2M8.28 17.17c.8.33 1.72-.04 2.05-.84.33-.8-.05-1.71-.83-2.04l-1.28-.53c.49-.18 1.04-.19 1.56.03.53.21.94.62 1.15 1.15.22.52.22 1.1 0 1.62-.43 1.08-1.7 1.6-2.78 1.15-.5-.21-.88-.59-1.09-1.04l1.22.5m9.52-7.75c0 1.39-1.13 2.52-2.52 2.52a2.52 2.52 0 0 1-2.51-2.52 2.5 2.5 0 0 1 2.51-2.51 2.52 2.52 0 0 1 2.52 2.51m-4.4 0c0 1.04.84 1.89 1.89 1.89 1.04 0 1.88-.85 1.88-1.89s-.84-1.89-1.88-1.89c-1.05 0-1.89.85-1.89 1.89Z" transform="matrix(1.5 0 0 1.5 216 252)" id="mdi-steam" fill="#555"/><path d="M12 2a10 10 0 0 1 10 10 10 10 0 0 1-10 10c-4.6 0-8.45-3.08-9.64-7.27l3.83 1.58a2.843 2.843 0 0 0 2.78 2.27c1.56 0 2.83-1.27 2.83-2.83v-.13l3.4-2.43h.08c2.08 0 3.77-1.69 3.77-3.77s-1.69-3.77-3.77-3.77-3.78 1.69-3.78 3.77v.05l-2.37 3.46-.16-.01c-.59 0-1.14.18-1.59.49L2 11.2C2.43 6.05 6.73 2 12 2M8.28 17.17c.8.33 1.72-.04 2.05-.84.33-.8-.05-1.71-.83-2.04l-1.28-.53c.49-.18 1.04-.19 1.56.03.53.21.94.62 1.15 1.15.22.52.22 1.1 0 1.62-.43 1.08-1.7 1.6-2.78 1.15-.5-.21-.88-.59-1.09-1.04l1.22.5m9.52-7.75c0 1.39-1.13 2.52-2.52 2.52a2.52 2.52 0 0 1-2.51-2.52 2.5 2.5 0 0 1 2.51-2.51 2.52 2.52 0 0 1 2.52 2.51m-4.4 0c0 1.04.84 1.89 1.89 1.89 1.04 0 1.88-.85 1.88-1.89s-.84-1.89-1.88-1.89c-1.05 0-1.89.85-1.89 1.89Z" transform="matrix(1.5 0 0 1.5 252 252)" id="mdi-steam" fill="#fff"/><path d="M13 19.92c1.8-.22 3.35-.97 4.65-2.27 1.3-1.3 2.05-2.85 2.27-4.65h-3c-.22 1-.68 1.84-1.38 2.54-.7.7-1.54 1.16-2.54 1.38v3M10 8h4l3 3h2.92c-.25-1.95-1.13-3.62-2.65-5C15.76 4.66 14 4 12 4c-2 0-3.76.66-5.27 2-1.52 1.38-2.4 3.05-2.65 5H7l3-3m1 11.92v-3c-1-.22-1.84-.68-2.54-1.38-.7-.7-1.16-1.54-1.38-2.54h-3c.22 1.77.97 3.3 2.27 4.6 1.3 1.3 2.85 2.07 4.65 2.32M12 2c2.75 0 5.1 1 7.05 2.95C21 6.9 22 9.25 22 12s-1 5.1-2.95 7.05C17.1 21 14.75 22 12 22s-5.1-1-7.05-2.95C3 17.1 2 14.75 2 12s1-5.1 2.95-7.05C6.9 3 9.25 2 12 2Z" transform="matrix(1.5 0 0 1.5 288 252)" id="mdi-steering" fill="#555"/><path d="M13 19.92c1.8-.22 3.35-.97 4.65-2.27 1.3-1.3 2.05-2.85 2.27-4.65h-3c-.22 1-.68 1.84-1.38 2.54-.7.7-1.54 1.16-2.54 1.38v3M10 8h4l3 3h2.92c-.25-1.95-1.13-3.62-2.65-5C15.76 4.66 14 4 12 4c-2 0-3.76.66-5.27 2-1.52 1.38-2.4 3.05-2.65 5H7l3-3m1 11.92v-3c-1-.22-1.84-.68-2.54-1.38-.7-.7-1.16-1.54-1.38-2.54h-3c.22 1.77.97 3.3 2.27 4.6 1.3 1.3 2.85 2.07 4.65 2.32M12 2c2.75 0 5.1 1 7.05 2.95C21 6.9 22 9.25 22 12s-1 5.1-2.95 7.05C17.1 21 14.75 22 12 22s-5.1-1-7.05-2.95C3 17.1 2 14.75 2 12s1-5.1 2.95-7.05C6.9 3 9.25 2 12 2Z" transform="matrix(1.5 0 0 1.5 324 252)" id="mdi-steering" fill="#fff"/><path d="M2 5.27 3.28 4 20 20.72 18.73 22l-1.48-1.5c-1.55 1-3.3 1.5-5.25 1.5-2.75 0-5.1-1-7.05-2.95C3 17.1 2 14.75 2 12c0-1.95.5-3.7 1.5-5.25L2 5.27m11 14.65c1-.12 1.93-.42 2.78-.87l-2.28-2.27c-.16.06-.34.1-.5.14v3M4.08 11H7l.37-.37-2.41-2.4A7.89 7.89 0 0 0 4.08 11m15.84 2h-3c-.12.54-.32 1.05-.59 1.5L9.91 8.09 10 8h4l3 3h2.92c-.25-1.95-1.13-3.62-2.65-5C15.76 4.66 14 4 12 4c-1.74 0-3.29.5-4.66 1.5L5.91 4.09C7.66 2.71 9.69 2 12 2c2.75 0 5.1 1 7.05 2.95C21 6.9 22 9.25 22 12c0 2.31-.71 4.34-2.09 6.09l-1.41-1.42A7.726 7.726 0 0 0 19.92 13M11 19.92v-3c-1-.22-1.84-.68-2.54-1.38-.7-.7-1.16-1.54-1.38-2.54h-3c.22 1.77.97 3.3 2.27 4.6 1.3 1.3 2.85 2.07 4.65 2.32Z" transform="matrix(1.5 0 0 1.5 360 252)" id="mdi-steering-off" fill="#555"/><path d="M2 5.27 3.28 4 20 20.72 18.73 22l-1.48-1.5c-1.55 1-3.3 1.5-5.25 1.5-2.75 0-5.1-1-7.05-2.95C3 17.1 2 14.75 2 12c0-1.95.5-3.7 1.5-5.25L2 5.27m11 14.65c1-.12 1.93-.42 2.78-.87l-2.28-2.27c-.16.06-.34.1-.5.14v3M4.08 11H7l.37-.37-2.41-2.4A7.89 7.89 0 0 0 4.08 11m15.84 2h-3c-.12.54-.32 1.05-.59 1.5L9.91 8.09 10 8h4l3 3h2.92c-.25-1.95-1.13-3.62-2.65-5C15.76 4.66 14 4 12 4c-1.74 0-3.29.5-4.66 1.5L5.91 4.09C7.66 2.71 9.69 2 12 2c2.75 0 5.1 1 7.05 2.95C21 6.9 22 9.25 22 12c0 2.31-.71 4.34-2.09 6.09l-1.41-1.42A7.726 7.726 0 0 0 19.92 13M11 19.92v-3c-1-.22-1.84-.68-2.54-1.38-.7-.7-1.16-1.54-1.38-2.54h-3c.22 1.77.97 3.3 2.27 4.6 1.3 1.3 2.85 2.07 4.65 2.32Z" transform="matrix(1.5 0 0 1.5 396 252)" id="mdi-steering-off" fill="#fff"/><path d="M19 5v14h-3V5m-2 0v14L3 12" transform="matrix(1.5 0 0 1.5 432 252)" id="mdi-step-backward" fill="#555"/><path d="M19 5v14h-3V5m-2 0v14L3 12" transform="matrix(1.5 0 0 1.5 468 252)" id="mdi-step-backward" fill="#fff"/><path d="M17 5h-3v14h3V5m-5 0L1 12l11 7V5m10 0h-3v14h3V5Z" transform="matrix(1.5 0 0 1.5 504 252)" id="mdi-step-backward-2" fill="#555"/><path d="M17 5h-3v14h3V5m-5 0L1 12l11 7V5m10 0h-3v14h3V5Z" transform="matrix(1.5 0 0 1.5 540 252)" id="mdi-step-backward-2" fill="#fff"/><path d="M5 5v14h3V5m2 0v14l11-7" transform="matrix(1.5 0 0 1.5 576 252)" id="mdi-step-forward" fill="#555"/><path d="M5 5v14h3V5m2 0v14l11-7" transform="matrix(1.5 0 0 1.5 612 252)" id="mdi-step-forward" fill="#fff"/><path d="M7 5h3v14H7V5m5 0 11 7-11 7V5M2 5h3v14H2V5Z" transform="matrix(1.5 0 0 1.5 648 252)" id="mdi-step-forward-2" fill="#555"/><path d="M7 5h3v14H7V5m5 0 11 7-11 7V5M2 5h3v14H2V5Z" transform="matrix(1.5 0 0 1.5 684 252)" id="mdi-step-forward-2" fill="#fff"/><path d="M19 8c.56 0 1 .43 1 1a1 1 0 0 1-1 1c-.57 0-1-.45-1-1 0-.57.43-1 1-1M2 2v9c0 2.96 2.19 5.5 5.14 5.91.62 3.01 3.28 5.09 6.36 5.09a6.5 6.5 0 0 0 6.5-6.5v-3.69c1.16-.42 2-1.52 2-2.81a3 3 0 0 0-3-3 3 3 0 0 0-3 3c0 1.29.84 2.4 2 2.81v3.6c0 2.5-2 4.5-4.5 4.5-2 0-3.68-1.21-4.28-3.01C12 16.3 14 13.8 14 11V2h-4v3h2v6a4 4 0 0 1-4 4 4 4 0 0 1-4-4V5h2V2H2Z" transform="matrix(1.5 0 0 1.5 0 288)" id="mdi-stethoscope" fill="#555"/><path d="M19 8c.56 0 1 .43 1 1a1 1 0 0 1-1 1c-.57 0-1-.45-1-1 0-.57.43-1 1-1M2 2v9c0 2.96 2.19 5.5 5.14 5.91.62 3.01 3.28 5.09 6.36 5.09a6.5 6.5 0 0 0 6.5-6.5v-3.69c1.16-.42 2-1.52 2-2.81a3 3 0 0 0-3-3 3 3 0 0 0-3 3c0 1.29.84 2.4 2 2.81v3.6c0 2.5-2 4.5-4.5 4.5-2 0-3.68-1.21-4.28-3.01C12 16.3 14 13.8 14 11V2h-4v3h2v6a4 4 0 0 1-4 4 4 4 0 0 1-4-4V5h2V2H2Z" transform="matrix(1.5 0 0 1.5 36 288)" id="mdi-stethoscope" fill="#fff"/><path d="M18.5 2h-13C3.6 2 2 3.6 2 5.5v13C2 20.4 3.6 22 5.5 22H16l6-6V5.5C22 3.6 20.4 2 18.5 2M15 20v-1.5c0-1.9 1.6-3.5 3.5-3.5H20l-5 5Z" transform="matrix(1.5 0 0 1.5 72 288)" id="mdi-sticker" fill="#555"/><path d="M18.5 2h-13C3.6 2 2 3.6 2 5.5v13C2 20.4 3.6 22 5.5 22H16l6-6V5.5C22 3.6 20.4 2 18.5 2M15 20v-1.5c0-1.9 1.6-3.5 3.5-3.5H20l-5 5Z" transform="matrix(1.5 0 0 1.5 108 288)" id="mdi-sticker" fill="#fff"/><path d="M18.5 2h-13C3.6 2 2 3.6 2 5.5v13C2 20.4 3.6 22 5.5 22H16l6-6V5.5C22 3.6 20.4 2 18.5 2M13 17h-2v-2h2v1m0-3h-2V7h2v5m2 8v-1.5c0-1.9 1.6-3.5 3.5-3.5H20l-5 5Z" transform="matrix(1.5 0 0 1.5 144 288)" id="mdi-sticker-alert" fill="#555"/><path d="M18.5 2h-13C3.6 2 2 3.6 2 5.5v13C2 20.4 3.6 22 5.5 22H16l6-6V5.5C22 3.6 20.4 2 18.5 2M13 17h-2v-2h2v1m0-3h-2V7h2v5m2 8v-1.5c0-1.9 1.6-3.5 3.5-3.5H20l-5 5Z" transform="matrix(1.5 0 0 1.5 180 288)" id="mdi-sticker-alert" fill="#fff"/><path d="M11 15h2v2h-2v-2m0-2h2V7h-2v6m11-7.5V16l-6 6H5.5C3.6 22 2 20.4 2 18.5v-13C2 3.6 3.6 2 5.5 2h13C20.4 2 22 3.6 22 5.5m-2 .3c0-1-.8-1.8-1.8-1.8H5.8C4.8 4 4 4.8 4 5.8v12.5c0 1 .8 1.8 1.8 1.8H15v-1.5c0-1.9 1.6-3.5 3.5-3.5H20V5.8Z" transform="matrix(1.5 0 0 1.5 216 288)" id="mdi-sticker-alert-outline" fill="#555"/><path d="M11 15h2v2h-2v-2m0-2h2V7h-2v6m11-7.5V16l-6 6H5.5C3.6 22 2 20.4 2 18.5v-13C2 3.6 3.6 2 5.5 2h13C20.4 2 22 3.6 22 5.5m-2 .3c0-1-.8-1.8-1.8-1.8H5.8C4.8 4 4 4.8 4 5.8v12.5c0 1 .8 1.8 1.8 1.8H15v-1.5c0-1.9 1.6-3.5 3.5-3.5H20V5.8Z" transform="matrix(1.5 0 0 1.5 252 288)" id="mdi-sticker-alert-outline" fill="#fff"/><path d="M18.5 2h-13C3.6 2 2 3.6 2 5.5v13C2 20.4 3.6 22 5.5 22H16l6-6V5.5C22 3.6 20.4 2 18.5 2M7 12.5l1.3-1.4 2.1 2.1L15.6 8 17 9.4 10.5 16 7 12.5m8 7.5v-1.5c0-1.9 1.6-3.5 3.5-3.5H20l-5 5Z" transform="matrix(1.5 0 0 1.5 288 288)" id="mdi-sticker-check" fill="#555"/><path d="M18.5 2h-13C3.6 2 2 3.6 2 5.5v13C2 20.4 3.6 22 5.5 22H16l6-6V5.5C22 3.6 20.4 2 18.5 2M7 12.5l1.3-1.4 2.1 2.1L15.6 8 17 9.4 10.5 16 7 12.5m8 7.5v-1.5c0-1.9 1.6-3.5 3.5-3.5H20l-5 5Z" transform="matrix(1.5 0 0 1.5 324 288)" id="mdi-sticker-check" fill="#fff"/><path d="M18.5 2h-13C3.6 2 2 3.6 2 5.5v13C2 20.4 3.6 22 5.5 22H16l6-6V5.5C22 3.6 20.4 2 18.5 2M20 15h-1.5c-1.9 0-3.5 1.6-3.5 3.5V20H5.8c-1 0-1.8-.8-1.8-1.8V5.8C4 4.8 4.8 4 5.8 4h12.5c1 0 1.8.8 1.8 1.8V15m-4.9-6.8 1.5 1.5-6 6-3.5-3.5 1.5-1.5 2 2 4.5-4.5Z" transform="matrix(1.5 0 0 1.5 360 288)" id="mdi-sticker-check-outline" fill="#555"/><path d="M18.5 2h-13C3.6 2 2 3.6 2 5.5v13C2 20.4 3.6 22 5.5 22H16l6-6V5.5C22 3.6 20.4 2 18.5 2M20 15h-1.5c-1.9 0-3.5 1.6-3.5 3.5V20H5.8c-1 0-1.8-.8-1.8-1.8V5.8C4 4.8 4.8 4 5.8 4h12.5c1 0 1.8.8 1.8 1.8V15m-4.9-6.8 1.5 1.5-6 6-3.5-3.5 1.5-1.5 2 2 4.5-4.5Z" transform="matrix(1.5 0 0 1.5 396 288)" id="mdi-sticker-check-outline" fill="#fff"/><path d="m12.12 18.46 6.18-6.18c-1.36.31-2.99.92-4.23 2.18-1.03 1.04-1.68 2.37-1.95 4M20.75 10h.3c.39 0 .74.27.88.64.14.36.07.79-.23 1.07l-10 10c-.2.19-.44.29-.7.29l-.36-.07c-.37-.14-.64-.49-.64-.88-.16-3.39.73-6.09 2.66-8.02C15.5 10.2 19.62 10 20.75 10M12 2c4.5 0 8.34 3 9.58 7.11L20 9h-.58C18.24 6.07 15.36 4 12 4a8 8 0 0 0-8 8c0 3.36 2.07 6.24 5 7.42-.03.71 0 1.43.11 2.15C5 20.33 2 16.5 2 12 2 6.47 6.5 2 12 2Z" transform="matrix(1.5 0 0 1.5 432 288)" id="mdi-sticker-circle-outline" fill="#555"/><path d="m12.12 18.46 6.18-6.18c-1.36.31-2.99.92-4.23 2.18-1.03 1.04-1.68 2.37-1.95 4M20.75 10h.3c.39 0 .74.27.88.64.14.36.07.79-.23 1.07l-10 10c-.2.19-.44.29-.7.29l-.36-.07c-.37-.14-.64-.49-.64-.88-.16-3.39.73-6.09 2.66-8.02C15.5 10.2 19.62 10 20.75 10M12 2c4.5 0 8.34 3 9.58 7.11L20 9h-.58C18.24 6.07 15.36 4 12 4a8 8 0 0 0-8 8c0 3.36 2.07 6.24 5 7.42-.03.71 0 1.43.11 2.15C5 20.33 2 16.5 2 12 2 6.47 6.5 2 12 2Z" transform="matrix(1.5 0 0 1.5 468 288)" id="mdi-sticker-circle-outline" fill="#fff"/><path d="M5.5 2C3.56 2 2 3.56 2 5.5v13C2 20.44 3.56 22 5.5 22H16l6-6V5.5C22 3.56 20.44 2 18.5 2h-13m.25 2h12.5A1.75 1.75 0 0 1 20 5.75V15h-1.5c-1.94 0-3.5 1.56-3.5 3.5V20H5.75A1.75 1.75 0 0 1 4 18.25V5.75A1.75 1.75 0 0 1 5.75 4m8.69 2.77c-.16 0-.32.02-.47.06-.94.26-1.47 1.22-1.23 2.17.05.15.12.3.21.44l3.23-.88c0-.17-.02-.34-.06-.51-.21-.75-.9-1.28-1.68-1.28M8.17 8.5c-.17 0-.32 0-.47.05-.93.26-1.48 1.22-1.23 2.15.03.16.12.3.21.46l3.23-.88c0-.17-.02-.34-.06-.5A1.72 1.72 0 0 0 8.17 8.5m8.55 2.76-9.13 2.51a5.266 5.266 0 0 0 5.36 1.64 5.273 5.273 0 0 0 3.77-4.15Z" transform="matrix(1.5 0 0 1.5 504 288)" id="mdi-sticker-emoji" fill="#555"/><path d="M5.5 2C3.56 2 2 3.56 2 5.5v13C2 20.44 3.56 22 5.5 22H16l6-6V5.5C22 3.56 20.44 2 18.5 2h-13m.25 2h12.5A1.75 1.75 0 0 1 20 5.75V15h-1.5c-1.94 0-3.5 1.56-3.5 3.5V20H5.75A1.75 1.75 0 0 1 4 18.25V5.75A1.75 1.75 0 0 1 5.75 4m8.69 2.77c-.16 0-.32.02-.47.06-.94.26-1.47 1.22-1.23 2.17.05.15.12.3.21.44l3.23-.88c0-.17-.02-.34-.06-.51-.21-.75-.9-1.28-1.68-1.28M8.17 8.5c-.17 0-.32 0-.47.05-.93.26-1.48 1.22-1.23 2.15.03.16.12.3.21.46l3.23-.88c0-.17-.02-.34-.06-.5A1.72 1.72 0 0 0 8.17 8.5m8.55 2.76-9.13 2.51a5.266 5.266 0 0 0 5.36 1.64 5.273 5.273 0 0 0 3.77-4.15Z" transform="matrix(1.5 0 0 1.5 540 288)" id="mdi-sticker-emoji" fill="#fff"/><path d="M18.5 2h-13C3.6 2 2 3.6 2 5.5v13C2 20.4 3.6 22 5.5 22H16l6-6V5.5C22 3.6 20.4 2 18.5 2M8 11h8v2H8v-2m7 9v-1.5c0-1.9 1.6-3.5 3.5-3.5H20l-5 5Z" transform="matrix(1.5 0 0 1.5 576 288)" id="mdi-sticker-minus" fill="#555"/><path d="M18.5 2h-13C3.6 2 2 3.6 2 5.5v13C2 20.4 3.6 22 5.5 22H16l6-6V5.5C22 3.6 20.4 2 18.5 2M8 11h8v2H8v-2m7 9v-1.5c0-1.9 1.6-3.5 3.5-3.5H20l-5 5Z" transform="matrix(1.5 0 0 1.5 612 288)" id="mdi-sticker-minus" fill="#fff"/><path d="M8 11h8v2H8v-2m14-5.5V16l-6 6H5.5C3.6 22 2 20.4 2 18.5v-13C2 3.6 3.6 2 5.5 2h13C20.4 2 22 3.6 22 5.5m-2 .3c0-1-.8-1.8-1.8-1.8H5.8C4.8 4 4 4.8 4 5.8v12.5c0 1 .8 1.8 1.8 1.8H15v-1.5c0-1.9 1.6-3.5 3.5-3.5H20V5.8Z" transform="matrix(1.5 0 0 1.5 648 288)" id="mdi-sticker-minus-outline" fill="#555"/><path d="M8 11h8v2H8v-2m14-5.5V16l-6 6H5.5C3.6 22 2 20.4 2 18.5v-13C2 3.6 3.6 2 5.5 2h13C20.4 2 22 3.6 22 5.5m-2 .3c0-1-.8-1.8-1.8-1.8H5.8C4.8 4 4 4.8 4 5.8v12.5c0 1 .8 1.8 1.8 1.8H15v-1.5c0-1.9 1.6-3.5 3.5-3.5H20V5.8Z" transform="matrix(1.5 0 0 1.5 684 288)" id="mdi-sticker-minus-outline" fill="#fff"/><path d="M5.5 2C3.6 2 2 3.6 2 5.5v13C2 20.4 3.6 22 5.5 22H16l6-6V5.5C22 3.6 20.4 2 18.5 2h-13m.3 2h12.5c1 0 1.8.8 1.8 1.8V15h-1.5c-1.9 0-3.5 1.6-3.5 3.5V20H5.8c-1 0-1.8-.8-1.8-1.8V5.8C4 4.8 4.8 4 5.8 4" transform="matrix(1.5 0 0 1.5 0 324)" id="mdi-sticker-outline" fill="#555"/><path d="M5.5 2C3.6 2 2 3.6 2 5.5v13C2 20.4 3.6 22 5.5 22H16l6-6V5.5C22 3.6 20.4 2 18.5 2h-13m.3 2h12.5c1 0 1.8.8 1.8 1.8V15h-1.5c-1.9 0-3.5 1.6-3.5 3.5V20H5.8c-1 0-1.8-.8-1.8-1.8V5.8C4 4.8 4.8 4 5.8 4" transform="matrix(1.5 0 0 1.5 36 324)" id="mdi-sticker-outline" fill="#fff"/><path d="M18.5 2h-13C3.6 2 2 3.6 2 5.5v13C2 20.4 3.6 22 5.5 22H16l6-6V5.5C22 3.6 20.4 2 18.5 2M13 16h-2v-3H8v-2h3V8h2v3h3v2h-3v3m2 4v-1.5c0-1.9 1.6-3.5 3.5-3.5H20l-5 5Z" transform="matrix(1.5 0 0 1.5 72 324)" id="mdi-sticker-plus" fill="#555"/><path d="M18.5 2h-13C3.6 2 2 3.6 2 5.5v13C2 20.4 3.6 22 5.5 22H16l6-6V5.5C22 3.6 20.4 2 18.5 2M13 16h-2v-3H8v-2h3V8h2v3h3v2h-3v3m2 4v-1.5c0-1.9 1.6-3.5 3.5-3.5H20l-5 5Z" transform="matrix(1.5 0 0 1.5 108 324)" id="mdi-sticker-plus" fill="#fff"/><path d="M13 11h3v2h-3v3h-2v-3H8v-2h3V8h2v3m9-5.5V16l-6 6H5.5C3.6 22 2 20.4 2 18.5v-13C2 3.6 3.6 2 5.5 2h13C20.4 2 22 3.6 22 5.5m-2 .3c0-1-.8-1.8-1.8-1.8H5.8C4.8 4 4 4.8 4 5.8v12.5c0 1 .8 1.8 1.8 1.8H15v-1.5c0-1.9 1.6-3.5 3.5-3.5H20V5.8Z" transform="matrix(1.5 0 0 1.5 144 324)" id="mdi-sticker-plus-outline" fill="#555"/><path d="M13 11h3v2h-3v3h-2v-3H8v-2h3V8h2v3m9-5.5V16l-6 6H5.5C3.6 22 2 20.4 2 18.5v-13C2 3.6 3.6 2 5.5 2h13C20.4 2 22 3.6 22 5.5m-2 .3c0-1-.8-1.8-1.8-1.8H5.8C4.8 4 4 4.8 4 5.8v12.5c0 1 .8 1.8 1.8 1.8H15v-1.5c0-1.9 1.6-3.5 3.5-3.5H20V5.8Z" transform="matrix(1.5 0 0 1.5 180 324)" id="mdi-sticker-plus-outline" fill="#fff"/><path d="M18.5 2h-13C3.6 2 2 3.6 2 5.5v13C2 20.4 3.6 22 5.5 22H16l6-6V5.5C22 3.6 20.4 2 18.5 2M12 13.4l-2.1 2.1-1.4-1.4 2.1-2.1-2.1-2.1 1.4-1.4 2.1 2.1 2.1-2.1 1.4 1.4-2.1 2.1 2.1 2.1-1.4 1.4-2.1-2.1m3 6.6v-1.5c0-1.9 1.6-3.5 3.5-3.5H20l-5 5Z" transform="matrix(1.5 0 0 1.5 216 324)" id="mdi-sticker-remove" fill="#555"/><path d="M18.5 2h-13C3.6 2 2 3.6 2 5.5v13C2 20.4 3.6 22 5.5 22H16l6-6V5.5C22 3.6 20.4 2 18.5 2M12 13.4l-2.1 2.1-1.4-1.4 2.1-2.1-2.1-2.1 1.4-1.4 2.1 2.1 2.1-2.1 1.4 1.4-2.1 2.1 2.1 2.1-1.4 1.4-2.1-2.1m3 6.6v-1.5c0-1.9 1.6-3.5 3.5-3.5H20l-5 5Z" transform="matrix(1.5 0 0 1.5 252 324)" id="mdi-sticker-remove" fill="#fff"/><path d="M16 9.4 13.4 12l2.6 2.6-1.4 1.4-2.6-2.6L9.4 16 8 14.6l2.6-2.6L8 9.4 9.4 8l2.6 2.6L14.6 8 16 9.4m6-3.9V16l-6 6H5.5C3.6 22 2 20.4 2 18.5v-13C2 3.6 3.6 2 5.5 2h13C20.4 2 22 3.6 22 5.5m-2 .3c0-1-.8-1.8-1.8-1.8H5.8C4.8 4 4 4.8 4 5.8v12.5c0 1 .8 1.8 1.8 1.8H15v-1.5c0-1.9 1.6-3.5 3.5-3.5H20V5.8Z" transform="matrix(1.5 0 0 1.5 288 324)" id="mdi-sticker-remove-outline" fill="#555"/><path d="M16 9.4 13.4 12l2.6 2.6-1.4 1.4-2.6-2.6L9.4 16 8 14.6l2.6-2.6L8 9.4 9.4 8l2.6 2.6L14.6 8 16 9.4m6-3.9V16l-6 6H5.5C3.6 22 2 20.4 2 18.5v-13C2 3.6 3.6 2 5.5 2h13C20.4 2 22 3.6 22 5.5m-2 .3c0-1-.8-1.8-1.8-1.8H5.8C4.8 4 4 4.8 4 5.8v12.5c0 1 .8 1.8 1.8 1.8H15v-1.5c0-1.9 1.6-3.5 3.5-3.5H20V5.8Z" transform="matrix(1.5 0 0 1.5 324 324)" id="mdi-sticker-remove-outline" fill="#fff"/><path d="M18.5 2h-13C3.6 2 2 3.6 2 5.5v13C2 20.4 3.6 22 5.5 22H16l6-6V5.5C22 3.6 20.4 2 18.5 2M6 7h12v2H6V7m0 4h12v2H6v-2m7 6H6v-2h7v2m2 3v-1.5c0-1.9 1.6-3.5 3.5-3.5H20l-5 5Z" transform="matrix(1.5 0 0 1.5 360 324)" id="mdi-sticker-text" fill="#555"/><path d="M18.5 2h-13C3.6 2 2 3.6 2 5.5v13C2 20.4 3.6 22 5.5 22H16l6-6V5.5C22 3.6 20.4 2 18.5 2M6 7h12v2H6V7m0 4h12v2H6v-2m7 6H6v-2h7v2m2 3v-1.5c0-1.9 1.6-3.5 3.5-3.5H20l-5 5Z" transform="matrix(1.5 0 0 1.5 396 324)" id="mdi-sticker-text" fill="#fff"/><path d="M18.5 2h-13C3.6 2 2 3.6 2 5.5v13C2 20.4 3.6 22 5.5 22H16l6-6V5.5C22 3.6 20.4 2 18.5 2m1.6 13h-1.5c-1.9 0-3.5 1.6-3.5 3.5V20H5.8c-1 0-1.8-.8-1.8-1.8V5.8C4 4.8 4.8 4 5.8 4h12.5c1 0 1.8.8 1.8 1.8V15M7 7h10v2H7V7m0 4h10v2H7v-2m0 4h6v2H7v-2Z" transform="matrix(1.5 0 0 1.5 432 324)" id="mdi-sticker-text-outline" fill="#555"/><path d="M18.5 2h-13C3.6 2 2 3.6 2 5.5v13C2 20.4 3.6 22 5.5 22H16l6-6V5.5C22 3.6 20.4 2 18.5 2m1.6 13h-1.5c-1.9 0-3.5 1.6-3.5 3.5V20H5.8c-1 0-1.8-.8-1.8-1.8V5.8C4 4.8 4.8 4 5.8 4h12.5c1 0 1.8.8 1.8 1.8V15M7 7h10v2H7V7m0 4h10v2H7v-2m0 4h6v2H7v-2Z" transform="matrix(1.5 0 0 1.5 468 324)" id="mdi-sticker-text-outline" fill="#fff"/><path d="M17 2a2 2 0 0 1 2 2v3a2 2 0 0 1-2 2v8c0 .85-.5 1.57-1.26 1.86L9.5 21.77c-1 .47-2.21.04-2.67-.96L6 19c-.5-1-.05-2.2.95-2.66L10 14.91V9a2 2 0 0 1-2-2V4a2 2 0 0 1 2-2h7m-7 2v3h7V4h-7Z" transform="matrix(1.5 0 0 1.5 504 324)" id="mdi-stocking" fill="#555"/><path d="M17 2a2 2 0 0 1 2 2v3a2 2 0 0 1-2 2v8c0 .85-.5 1.57-1.26 1.86L9.5 21.77c-1 .47-2.21.04-2.67-.96L6 19c-.5-1-.05-2.2.95-2.66L10 14.91V9a2 2 0 0 1-2-2V4a2 2 0 0 1 2-2h7m-7 2v3h7V4h-7Z" transform="matrix(1.5 0 0 1.5 540 324)" id="mdi-stocking" fill="#fff"/><path d="M4 18c.67 1.85 2.07 4 8 4 2.36 0 5.07-.07 7-2 1-1 3-3 3-9s-2-7-4-7c-1.38 0-3 0-4 2v.03a1.82 1.82 0 0 1-1.87.92C11 6.81 11 6.37 11 6V2H9v4a2.92 2.92 0 0 0 3 3c1 0 1 1.78 1 3 0 1.89-.5 3.26-2 4-2.31 1.15-4.61 1-5.39-.53a1.5 1.5 0 0 0-2.47-.6A3.67 3.67 0 0 0 2 18v4h2Z" transform="matrix(1.5 0 0 1.5 576 324)" id="mdi-stomach" fill="#555"/><path d="M4 18c.67 1.85 2.07 4 8 4 2.36 0 5.07-.07 7-2 1-1 3-3 3-9s-2-7-4-7c-1.38 0-3 0-4 2v.03a1.82 1.82 0 0 1-1.87.92C11 6.81 11 6.37 11 6V2H9v4a2.92 2.92 0 0 0 3 3c1 0 1 1.78 1 3 0 1.89-.5 3.26-2 4-2.31 1.15-4.61 1-5.39-.53a1.5 1.5 0 0 0-2.47-.6A3.67 3.67 0 0 0 2 18v4h2Z" transform="matrix(1.5 0 0 1.5 612 324)" id="mdi-stomach" fill="#fff"/><path d="M20 6c0-2.21-1.79-4-4-4H8C5.78 2 4 3.79 4 6v2h3L4 22h2l1.5-7H11v7h2v-7h3.5l1.5 7h2L17 8h3V6M7.93 13 9 8h2v5H7.93m8.14 0H13V8h2l1.07 5Z" transform="matrix(1.5 0 0 1.5 648 324)" id="mdi-stool" fill="#555"/><path d="M20 6c0-2.21-1.79-4-4-4H8C5.78 2 4 3.79 4 6v2h3L4 22h2l1.5-7H11v7h2v-7h3.5l1.5 7h2L17 8h3V6M7.93 13 9 8h2v5H7.93m8.14 0H13V8h2l1.07 5Z" transform="matrix(1.5 0 0 1.5 684 324)" id="mdi-stool" fill="#fff"/></svg>