<svg xmlns="http://www.w3.org/2000/svg" width="720" height="900"><path d="M16 0H8C6.9 0 6 .9 6 2v16c0 1.1.9 2 2 2h12c1.1 0 2-.9 2-2V6l-6-6m4 18H8V2h7v5h5v11M4 4v18h16v2H4c-1.1 0-2-.9-2-2V4h2Z" transform="scale(1.5)" id="mdi-file-multiple-outline" fill="#555"/><path d="M16 0H8C6.9 0 6 .9 6 2v16c0 1.1.9 2 2 2h12c1.1 0 2-.9 2-2V6l-6-6m4 18H8V2h7v5h5v11M4 4v18h16v2H4c-1.1 0-2-.9-2-2V4h2Z" transform="translate(36) scale(1.5)" id="mdi-file-multiple-outline" fill="#fff"/><path d="M14 2H6a2 2 0 0 0-2 2v16a2 2 0 0 0 2 2h12a2 2 0 0 0 2-2V8l-6-6m-1 11h-2v5a2 2 0 0 1-2 2 2 2 0 0 1-2-2 2 2 0 0 1 2-2c.4 0 .7.1 1 .3V11h3v2m0-4V3.5L18.5 9H13Z" transform="translate(72) scale(1.5)" id="mdi-file-music" fill="#555"/><path d="M14 2H6a2 2 0 0 0-2 2v16a2 2 0 0 0 2 2h12a2 2 0 0 0 2-2V8l-6-6m-1 11h-2v5a2 2 0 0 1-2 2 2 2 0 0 1-2-2 2 2 0 0 1 2-2c.4 0 .7.1 1 .3V11h3v2m0-4V3.5L18.5 9H13Z" transform="translate(108) scale(1.5)" id="mdi-file-music" fill="#fff"/><path d="m14 2 6 6v12a2 2 0 0 1-2 2H6a2 2 0 0 1-2-2V4a2 2 0 0 1 2-2h8m4 18V9h-5V4H6v16h12m-5-10v2h-2v5a2 2 0 0 1-2 2 2 2 0 0 1-2-2 2 2 0 0 1 2-2c.4 0 .7.1 1 .3V10h3Z" transform="translate(144) scale(1.5)" id="mdi-file-music-outline" fill="#555"/><path d="m14 2 6 6v12a2 2 0 0 1-2 2H6a2 2 0 0 1-2-2V4a2 2 0 0 1 2-2h8m4 18V9h-5V4H6v16h12m-5-10v2h-2v5a2 2 0 0 1-2 2 2 2 0 0 1-2-2 2 2 0 0 1 2-2c.4 0 .7.1 1 .3V10h3Z" transform="translate(180) scale(1.5)" id="mdi-file-music-outline" fill="#fff"/><path d="M14 2H6a2 2 0 0 0-2 2v16a2 2 0 0 0 2 2h12a2 2 0 0 0 2-2V8l-6-6m4 18H6V4h7v5h5v11Z" transform="translate(216) scale(1.5)" id="mdi-file-outline" fill="#555"/><path d="M14 2H6a2 2 0 0 0-2 2v16a2 2 0 0 0 2 2h12a2 2 0 0 0 2-2V8l-6-6m4 18H6V4h7v5h5v11Z" transform="translate(252) scale(1.5)" id="mdi-file-outline" fill="#fff"/><path d="M12 10.5h1v3h-1v-3m-5 1h1v-1H7v1M20 6v12a2 2 0 0 1-2 2H6a2 2 0 0 1-2-2V6a2 2 0 0 1 2-2h12a2 2 0 0 1 2 2M9.5 10.5A1.5 1.5 0 0 0 8 9H5.5v6H7v-2h1a1.5 1.5 0 0 0 1.5-1.5v-1m5 0A1.5 1.5 0 0 0 13 9h-2.5v6H13a1.5 1.5 0 0 0 1.5-1.5v-3m4-1.5h-3v6H17v-2h1.5v-1.5H17v-1h1.5V9Z" transform="translate(288) scale(1.5)" id="mdi-file-pdf-box" fill="#555"/><path d="M12 10.5h1v3h-1v-3m-5 1h1v-1H7v1M20 6v12a2 2 0 0 1-2 2H6a2 2 0 0 1-2-2V6a2 2 0 0 1 2-2h12a2 2 0 0 1 2 2M9.5 10.5A1.5 1.5 0 0 0 8 9H5.5v6H7v-2h1a1.5 1.5 0 0 0 1.5-1.5v-1m5 0A1.5 1.5 0 0 0 13 9h-2.5v6H13a1.5 1.5 0 0 0 1.5-1.5v-3m4-1.5h-3v6H17v-2h1.5v-1.5H17v-1h1.5V9Z" transform="translate(324) scale(1.5)" id="mdi-file-pdf-box" fill="#fff"/><path d="m14 2 6 6v12a2 2 0 0 1-2 2H6a2 2 0 0 1-2-2V4a2 2 0 0 1 2-2h8M7.37 20 15 12.35 13.65 11 6 18.65 7.37 20M13 9h5.5L13 3.5V9m-5.5 2A1.5 1.5 0 0 0 6 12.5 1.5 1.5 0 0 0 7.5 14 1.5 1.5 0 0 0 9 12.5 1.5 1.5 0 0 0 7.5 11m6 6a1.5 1.5 0 0 0-1.5 1.5 1.5 1.5 0 0 0 1.5 1.5 1.5 1.5 0 0 0 1.5-1.5 1.5 1.5 0 0 0-1.5-1.5Z" transform="translate(360) scale(1.5)" id="mdi-file-percent" fill="#555"/><path d="m14 2 6 6v12a2 2 0 0 1-2 2H6a2 2 0 0 1-2-2V4a2 2 0 0 1 2-2h8M7.37 20 15 12.35 13.65 11 6 18.65 7.37 20M13 9h5.5L13 3.5V9m-5.5 2A1.5 1.5 0 0 0 6 12.5 1.5 1.5 0 0 0 7.5 14 1.5 1.5 0 0 0 9 12.5 1.5 1.5 0 0 0 7.5 11m6 6a1.5 1.5 0 0 0-1.5 1.5 1.5 1.5 0 0 0 1.5 1.5 1.5 1.5 0 0 0 1.5-1.5 1.5 1.5 0 0 0-1.5-1.5Z" transform="translate(396) scale(1.5)" id="mdi-file-percent" fill="#fff"/><path d="M14 2H6a2 2 0 0 0-2 2v16c0 1.11.89 2 2 2h12c1.11 0 2-.89 2-2V8l-6-6m4 18H6V4h7v5h5v11m-8-8.5c0 .83-.67 1.5-1.5 1.5S7 12.33 7 11.5 7.67 10 8.5 10s1.5.67 1.5 1.5m6 6c0 .83-.67 1.5-1.5 1.5s-1.5-.67-1.5-1.5.67-1.5 1.5-1.5 1.5.67 1.5 1.5m0-6.15L8.37 19 7 17.65 14.65 10 16 11.35Z" transform="translate(432) scale(1.5)" id="mdi-file-percent-outline" fill="#555"/><path d="M14 2H6a2 2 0 0 0-2 2v16c0 1.11.89 2 2 2h12c1.11 0 2-.89 2-2V8l-6-6m4 18H6V4h7v5h5v11m-8-8.5c0 .83-.67 1.5-1.5 1.5S7 12.33 7 11.5 7.67 10 8.5 10s1.5.67 1.5 1.5m6 6c0 .83-.67 1.5-1.5 1.5s-1.5-.67-1.5-1.5.67-1.5 1.5-1.5 1.5.67 1.5 1.5m0-6.15L8.37 19 7 17.65 14.65 10 16 11.35Z" transform="translate(468) scale(1.5)" id="mdi-file-percent-outline" fill="#fff"/><path d="M14 2H6c-1.11 0-2 .89-2 2v16c0 1.11.89 2 2 2h12c1.11 0 2-.89 2-2V8l-6-6m3 17.44c0 .31-.25.56-.56.56C11.23 20 7 15.77 7 10.56c0-.31.25-.56.56-.56H9.5c.31 0 .56.25.56.56 0 .69.11 1.36.31 1.98.06.19.02.41-.14.57L9 14.33c.81 1.57 2.1 2.86 3.67 3.67l1.23-1.23c.15-.16.37-.2.56-.14.62.2 1.29.32 1.99.32.3 0 .55.24.55.55v1.94M13 9V3.5L18.5 9H13Z" transform="translate(504) scale(1.5)" id="mdi-file-phone" fill="#555"/><path d="M14 2H6c-1.11 0-2 .89-2 2v16c0 1.11.89 2 2 2h12c1.11 0 2-.89 2-2V8l-6-6m3 17.44c0 .31-.25.56-.56.56C11.23 20 7 15.77 7 10.56c0-.31.25-.56.56-.56H9.5c.31 0 .56.25.56.56 0 .69.11 1.36.31 1.98.06.19.02.41-.14.57L9 14.33c.81 1.57 2.1 2.86 3.67 3.67l1.23-1.23c.15-.16.37-.2.56-.14.62.2 1.29.32 1.99.32.3 0 .55.24.55.55v1.94M13 9V3.5L18.5 9H13Z" transform="translate(540) scale(1.5)" id="mdi-file-phone" fill="#fff"/><path d="M14 2H6a2 2 0 0 0-2 2v16c0 1.11.89 2 2 2h12c1.11 0 2-.89 2-2V8l-6-6m4 18H6V4h7v5h5v11m-9-6.67c.81 1.57 2.1 2.86 3.67 3.67l1.22-1.23c.16-.16.38-.2.57-.14.62.2 1.29.32 1.98.32.31 0 .56.24.56.55v1.95c0 .3-.25.55-.56.55C11.23 19 7 14.77 7 9.56c0-.31.25-.56.56-.56H9.5c.31 0 .56.25.56.56 0 .69.11 1.36.31 1.98.06.19.02.41-.14.57L9 13.33Z" transform="translate(576) scale(1.5)" id="mdi-file-phone-outline" fill="#555"/><path d="M14 2H6a2 2 0 0 0-2 2v16c0 1.11.89 2 2 2h12c1.11 0 2-.89 2-2V8l-6-6m4 18H6V4h7v5h5v11m-9-6.67c.81 1.57 2.1 2.86 3.67 3.67l1.22-1.23c.16-.16.38-.2.57-.14.62.2 1.29.32 1.98.32.31 0 .56.24.56.55v1.95c0 .3-.25.55-.56.55C11.23 19 7 14.77 7 9.56c0-.31.25-.56.56-.56H9.5c.31 0 .56.25.56.56 0 .69.11 1.36.31 1.98.06.19.02.41-.14.57L9 13.33Z" transform="translate(612) scale(1.5)" id="mdi-file-phone-outline" fill="#fff"/><path d="M14 2H6c-1.11 0-2 .89-2 2v16c0 1.11.89 2 2 2h7.81c-.53-.91-.81-1.95-.81-3 0-3.31 2.69-6 6-6 .34 0 .67.03 1 .08V8l-6-6m-1 7V3.5L18.5 9H13m10 11h-3v3h-2v-3h-3v-2h3v-3h2v3h3v2Z" transform="translate(648) scale(1.5)" id="mdi-file-plus" fill="#555"/><path d="M14 2H6c-1.11 0-2 .89-2 2v16c0 1.11.89 2 2 2h7.81c-.53-.91-.81-1.95-.81-3 0-3.31 2.69-6 6-6 .34 0 .67.03 1 .08V8l-6-6m-1 7V3.5L18.5 9H13m10 11h-3v3h-2v-3h-3v-2h3v-3h2v3h3v2Z" transform="translate(684) scale(1.5)" id="mdi-file-plus" fill="#fff"/><path d="M13.81 22H6c-1.11 0-2-.89-2-2V4a2 2 0 0 1 2-2h8l6 6v5.09c-.33-.05-.66-.09-1-.09s-.67.04-1 .09V9h-5V4H6v16h7.09c.12.72.37 1.39.72 2M23 18h-3v-3h-2v3h-3v2h3v3h2v-3h3v-2Z" transform="matrix(1.5 0 0 1.5 0 36)" id="mdi-file-plus-outline" fill="#555"/><path d="M13.81 22H6c-1.11 0-2-.89-2-2V4a2 2 0 0 1 2-2h8l6 6v5.09c-.33-.05-.66-.09-1-.09s-.67.04-1 .09V9h-5V4H6v16h7.09c.12.72.37 1.39.72 2M23 18h-3v-3h-2v3h-3v2h3v3h2v-3h3v-2Z" transform="matrix(1.5 0 0 1.5 36 36)" id="mdi-file-plus-outline" fill="#fff"/><path d="M6.5 10.5h1v1h-1v-1M20 6v12c0 1.1-.9 2-2 2H6c-1.1 0-2-.9-2-2V6c0-1.1.9-2 2-2h12c1.1 0 2 .9 2 2M9 10.5C9 9.67 8.33 9 7.5 9H5v6h1.5v-2h1c.83 0 1.5-.67 1.5-1.5v-1M14 9h-1.5v2.5l-1-2.5H10v6h1.5v-2.5l1 2.5H14V9m5 1.33C19 9.67 18.47 9 17.67 9h-1.34c-.8 0-1.33.67-1.33 1.33v3.34c0 .66.53 1.33 1.33 1.33h1.34c.8 0 1.33-.67 1.33-1.33V12h-1.5v1.5h-1v-3H19v-.17Z" transform="matrix(1.5 0 0 1.5 72 36)" id="mdi-file-png-box" fill="#555"/><path d="M6.5 10.5h1v1h-1v-1M20 6v12c0 1.1-.9 2-2 2H6c-1.1 0-2-.9-2-2V6c0-1.1.9-2 2-2h12c1.1 0 2 .9 2 2M9 10.5C9 9.67 8.33 9 7.5 9H5v6h1.5v-2h1c.83 0 1.5-.67 1.5-1.5v-1M14 9h-1.5v2.5l-1-2.5H10v6h1.5v-2.5l1 2.5H14V9m5 1.33C19 9.67 18.47 9 17.67 9h-1.34c-.8 0-1.33.67-1.33 1.33v3.34c0 .66.53 1.33 1.33 1.33h1.34c.8 0 1.33-.67 1.33-1.33V12h-1.5v1.5h-1v-3H19v-.17Z" transform="matrix(1.5 0 0 1.5 108 36)" id="mdi-file-png-box" fill="#fff"/><path d="M12.6 12.3h-2v3.2h2.1c.6 0 .9-.2 1.2-.5.3-.3.4-.6.4-1.1 0-.5-.1-.8-.4-1.1-.3-.3-.7-.5-1.3-.5M14 2H6a2 2 0 0 0-2 2v16a2 2 0 0 0 2 2h12a2 2 0 0 0 2-2V8l-6-6m1.2 14c-.6.5-1.1.7-2.4.7h-2.2V20H9v-9h3.8c1.3 0 1.9.3 2.4.8.6.6.8 1.2.8 2.1 0 .9-.2 1.6-.8 2.1M13 9V3.5L18.5 9H13Z" transform="matrix(1.5 0 0 1.5 144 36)" id="mdi-file-powerpoint" fill="#555"/><path d="M12.6 12.3h-2v3.2h2.1c.6 0 .9-.2 1.2-.5.3-.3.4-.6.4-1.1 0-.5-.1-.8-.4-1.1-.3-.3-.7-.5-1.3-.5M14 2H6a2 2 0 0 0-2 2v16a2 2 0 0 0 2 2h12a2 2 0 0 0 2-2V8l-6-6m1.2 14c-.6.5-1.1.7-2.4.7h-2.2V20H9v-9h3.8c1.3 0 1.9.3 2.4.8.6.6.8 1.2.8 2.1 0 .9-.2 1.6-.8 2.1M13 9V3.5L18.5 9H13Z" transform="matrix(1.5 0 0 1.5 180 36)" id="mdi-file-powerpoint" fill="#fff"/><path d="M9.8 13.4h2.5c1.5 0 2.16-.28 2.8-.82.64-.55.9-1.33.9-2.35 0-.97-.25-1.73-.9-2.35-.65-.59-1.27-.88-2.8-.88H8v10h1.8v-3.6M19 3a2 2 0 0 1 2 2v14a2 2 0 0 1-2 2H5a2 2 0 0 1-2-2V5a2 2 0 0 1 2-2h14m-9.2 9V8.4h2.3c.66 0 1.17.25 1.5.6.33.35.5.72.5 1.24 0 .56-.18.95-.5 1.26-.32.31-.7.5-1.38.5H9.8Z" transform="matrix(1.5 0 0 1.5 216 36)" id="mdi-file-powerpoint-box" fill="#555"/><path d="M9.8 13.4h2.5c1.5 0 2.16-.28 2.8-.82.64-.55.9-1.33.9-2.35 0-.97-.25-1.73-.9-2.35-.65-.59-1.27-.88-2.8-.88H8v10h1.8v-3.6M19 3a2 2 0 0 1 2 2v14a2 2 0 0 1-2 2H5a2 2 0 0 1-2-2V5a2 2 0 0 1 2-2h14m-9.2 9V8.4h2.3c.66 0 1.17.25 1.5.6.33.35.5.72.5 1.24 0 .56-.18.95-.5 1.26-.32.31-.7.5-1.38.5H9.8Z" transform="matrix(1.5 0 0 1.5 252 36)" id="mdi-file-powerpoint-box" fill="#fff"/><path d="M5 3c-1.11 0-2 .89-2 2v14c0 1.11.89 2 2 2h14c1.11 0 2-.89 2-2V5c0-1.11-.89-2-2-2H5m0 2h14v14H5V5m10.1 2.88c-.65-.59-1.27-.88-2.8-.88H8v10h1.8v-3.6h2.5c1.5 0 2.16-.28 2.8-.82.64-.55.9-1.33.9-2.35 0-.97-.25-1.73-.9-2.35m-1.5 3.62c-.32.31-.7.5-1.38.5H9.8V8.4h2.3c.66 0 1.17.25 1.5.6.33.35.5.72.5 1.24 0 .56-.18.95-.5 1.26Z" transform="matrix(1.5 0 0 1.5 288 36)" id="mdi-file-powerpoint-box-outline" fill="#555"/><path d="M5 3c-1.11 0-2 .89-2 2v14c0 1.11.89 2 2 2h14c1.11 0 2-.89 2-2V5c0-1.11-.89-2-2-2H5m0 2h14v14H5V5m10.1 2.88c-.65-.59-1.27-.88-2.8-.88H8v10h1.8v-3.6h2.5c1.5 0 2.16-.28 2.8-.82.64-.55.9-1.33.9-2.35 0-.97-.25-1.73-.9-2.35m-1.5 3.62c-.32.31-.7.5-1.38.5H9.8V8.4h2.3c.66 0 1.17.25 1.5.6.33.35.5.72.5 1.24 0 .56-.18.95-.5 1.26Z" transform="matrix(1.5 0 0 1.5 324 36)" id="mdi-file-powerpoint-box-outline" fill="#fff"/><path d="M14 2H6a2 2 0 0 0-2 2v16c0 1.11.89 2 2 2h12c1.11 0 2-.89 2-2V8l-6-6m4 18H6V4h7v5h5v11m-2.8-9.2c-.5-.5-1.1-.8-2.4-.8H9v9h1.6v-3.3h2.2c1.3 0 1.8-.2 2.4-.7.6-.5.8-1.2.8-2.1 0-.9-.2-1.5-.8-2.1M13.9 14c-.3.3-.6.5-1.2.5h-2.1v-3.2h2c.6 0 1 .2 1.3.5.3.3.4.6.4 1.1s-.1.8-.4 1.1Z" transform="matrix(1.5 0 0 1.5 360 36)" id="mdi-file-powerpoint-outline" fill="#555"/><path d="M14 2H6a2 2 0 0 0-2 2v16c0 1.11.89 2 2 2h12c1.11 0 2-.89 2-2V8l-6-6m4 18H6V4h7v5h5v11m-2.8-9.2c-.5-.5-1.1-.8-2.4-.8H9v9h1.6v-3.3h2.2c1.3 0 1.8-.2 2.4-.7.6-.5.8-1.2.8-2.1 0-.9-.2-1.5-.8-2.1M13.9 14c-.3.3-.6.5-1.2.5h-2.1v-3.2h2c.6 0 1 .2 1.3.5.3.3.4.6.4 1.1s-.1.8-.4 1.1Z" transform="matrix(1.5 0 0 1.5 396 36)" id="mdi-file-powerpoint-outline" fill="#fff"/><path d="M19 16H5V8h14m0-5H5c-1.11 0-2 .89-2 2v14a2 2 0 0 0 2 2h14a2 2 0 0 0 2-2V5a2 2 0 0 0-2-2Z" transform="matrix(1.5 0 0 1.5 432 36)" id="mdi-file-presentation-box" fill="#555"/><path d="M19 16H5V8h14m0-5H5c-1.11 0-2 .89-2 2v14a2 2 0 0 0 2 2h14a2 2 0 0 0 2-2V5a2 2 0 0 0-2-2Z" transform="matrix(1.5 0 0 1.5 468 36)" id="mdi-file-presentation-box" fill="#fff"/><path d="M6 2c-1.11 0-2 .89-2 2v16a2 2 0 0 0 2 2h12a2 2 0 0 0 2-2V8l-6-6H6m7 1.5L18.5 9H13V3.5M12 11a3 3 0 0 1 3 3c0 1.88-2.25 2.06-2.25 3.75h-1.5c0-2.44 2.25-2.25 2.25-3.75a1.5 1.5 0 0 0-1.5-1.5 1.5 1.5 0 0 0-1.5 1.5H9a3 3 0 0 1 3-3m-.75 7.5h1.5V20h-1.5v-1.5Z" transform="matrix(1.5 0 0 1.5 504 36)" id="mdi-file-question" fill="#555"/><path d="M6 2c-1.11 0-2 .89-2 2v16a2 2 0 0 0 2 2h12a2 2 0 0 0 2-2V8l-6-6H6m7 1.5L18.5 9H13V3.5M12 11a3 3 0 0 1 3 3c0 1.88-2.25 2.06-2.25 3.75h-1.5c0-2.44 2.25-2.25 2.25-3.75a1.5 1.5 0 0 0-1.5-1.5 1.5 1.5 0 0 0-1.5 1.5H9a3 3 0 0 1 3-3m-.75 7.5h1.5V20h-1.5v-1.5Z" transform="matrix(1.5 0 0 1.5 540 36)" id="mdi-file-question" fill="#fff"/><path d="M14 2H6a2 2 0 0 0-2 2v16c0 1.11.89 2 2 2h12c1.11 0 2-.89 2-2V8l-6-6m4 18H6V4h7v5h5v11m-3-7c0 1.89-2.25 2.07-2.25 3.76h-1.5c0-2.44 2.25-2.26 2.25-3.76 0-.82-.67-1.5-1.5-1.5s-1.5.68-1.5 1.5H9c0-1.65 1.34-3 3-3s3 1.35 3 3m-2.25 4.5V19h-1.5v-1.5h1.5Z" transform="matrix(1.5 0 0 1.5 576 36)" id="mdi-file-question-outline" fill="#555"/><path d="M14 2H6a2 2 0 0 0-2 2v16c0 1.11.89 2 2 2h12c1.11 0 2-.89 2-2V8l-6-6m4 18H6V4h7v5h5v11m-3-7c0 1.89-2.25 2.07-2.25 3.76h-1.5c0-2.44 2.25-2.26 2.25-3.76 0-.82-.67-1.5-1.5-1.5s-1.5.68-1.5 1.5H9c0-1.65 1.34-3 3-3s3 1.35 3 3m-2.25 4.5V19h-1.5v-1.5h1.5Z" transform="matrix(1.5 0 0 1.5 612 36)" id="mdi-file-question-outline" fill="#fff"/><path d="M18 14.5c1.11 0 2.11.45 2.83 1.17L22 14.5v4h-4l1.77-1.77A2.5 2.5 0 1 0 20 20h1.71A3.991 3.991 0 0 1 18 22.5c-2.21 0-4-1.79-4-4s1.79-4 4-4M13 9h5.5L13 3.5V9M6 2h8l6 6v4.17c-.5-.11-1-.17-1.5-.17a6.5 6.5 0 0 0-6.5 6.5c0 1.29.37 2.5 1 3.5H6c-1.12 0-2-.9-2-2V4c0-1.11.89-2 2-2Z" transform="matrix(1.5 0 0 1.5 648 36)" id="mdi-file-refresh" fill="#555"/><path d="M18 14.5c1.11 0 2.11.45 2.83 1.17L22 14.5v4h-4l1.77-1.77A2.5 2.5 0 1 0 20 20h1.71A3.991 3.991 0 0 1 18 22.5c-2.21 0-4-1.79-4-4s1.79-4 4-4M13 9h5.5L13 3.5V9M6 2h8l6 6v4.17c-.5-.11-1-.17-1.5-.17a6.5 6.5 0 0 0-6.5 6.5c0 1.29.37 2.5 1 3.5H6c-1.12 0-2-.9-2-2V4c0-1.11.89-2 2-2Z" transform="matrix(1.5 0 0 1.5 684 36)" id="mdi-file-refresh" fill="#fff"/><path d="M18 14.5c1.11 0 2.11.45 2.83 1.17L22 14.5v4h-4l1.77-1.77A2.5 2.5 0 1 0 20 20h1.71A3.991 3.991 0 0 1 18 22.5c-2.21 0-4-1.79-4-4s1.79-4 4-4M14 2l6 6v4.17c-.5-.11-1-.17-1.5-.17H18V9h-5V4H6v16h6.17c.17.72.46 1.39.83 2H6c-1.1 0-2-.9-2-2V4c0-1.1.9-2 2-2h8Z" transform="matrix(1.5 0 0 1.5 0 72)" id="mdi-file-refresh-outline" fill="#555"/><path d="M18 14.5c1.11 0 2.11.45 2.83 1.17L22 14.5v4h-4l1.77-1.77A2.5 2.5 0 1 0 20 20h1.71A3.991 3.991 0 0 1 18 22.5c-2.21 0-4-1.79-4-4s1.79-4 4-4M14 2l6 6v4.17c-.5-.11-1-.17-1.5-.17H18V9h-5V4H6v16h6.17c.17.72.46 1.39.83 2H6c-1.1 0-2-.9-2-2V4c0-1.1.9-2 2-2h8Z" transform="matrix(1.5 0 0 1.5 36 72)" id="mdi-file-refresh-outline" fill="#fff"/><path d="M21.12 22.54 19 20.41l-2.12 2.13-1.41-1.42L17.59 19l-2.12-2.12 1.41-1.41L19 17.59l2.12-2.12 1.42 1.41L20.41 19l2.13 2.12-1.42 1.42M14 2H6c-1.11 0-2 .89-2 2v16c0 1.11.89 2 2 2h7.81c-.53-.91-.81-1.95-.81-3 0-3.31 2.69-6 6-6 .34 0 .67.03 1 .08V8l-6-6m-1 7V3.5L18.5 9H13Z" transform="matrix(1.5 0 0 1.5 72 72)" id="mdi-file-remove" fill="#555"/><path d="M21.12 22.54 19 20.41l-2.12 2.13-1.41-1.42L17.59 19l-2.12-2.12 1.41-1.41L19 17.59l2.12-2.12 1.42 1.41L20.41 19l2.13 2.12-1.42 1.42M14 2H6c-1.11 0-2 .89-2 2v16c0 1.11.89 2 2 2h7.81c-.53-.91-.81-1.95-.81-3 0-3.31 2.69-6 6-6 .34 0 .67.03 1 .08V8l-6-6m-1 7V3.5L18.5 9H13Z" transform="matrix(1.5 0 0 1.5 108 72)" id="mdi-file-remove" fill="#fff"/><path d="M13.81 22H6c-1.11 0-2-.89-2-2V4a2 2 0 0 1 2-2h8l6 6v5.09c-.33-.05-.66-.09-1-.09s-.67.04-1 .09V9h-5V4H6v16h7.09c.12.72.37 1.39.72 2m8.73-.88L20.41 19l2.13-2.12-1.42-1.41L19 17.59l-2.12-2.12-1.41 1.41L17.59 19l-2.12 2.12 1.41 1.42L19 20.41l2.12 2.13 1.42-1.42Z" transform="matrix(1.5 0 0 1.5 144 72)" id="mdi-file-remove-outline" fill="#555"/><path d="M13.81 22H6c-1.11 0-2-.89-2-2V4a2 2 0 0 1 2-2h8l6 6v5.09c-.33-.05-.66-.09-1-.09s-.67.04-1 .09V9h-5V4H6v16h7.09c.12.72.37 1.39.72 2m8.73-.88L20.41 19l2.13-2.12-1.42-1.41L19 17.59l-2.12-2.12-1.41 1.41L17.59 19l-2.12 2.12 1.41 1.42L19 20.41l2.12 2.13 1.42-1.42Z" transform="matrix(1.5 0 0 1.5 180 72)" id="mdi-file-remove-outline" fill="#fff"/><path d="M14 12h5.5L14 6.5V12M8 5h7l6 6v10a2 2 0 0 1-2 2H8a2 2 0 0 1-2-2v-3h5v2l4-3-4-3v2H6V7a2 2 0 0 1 2-2m5.5-2H4v13h2v2H4a2 2 0 0 1-2-2V3a2 2 0 0 1 2-2h7.5l2 2Z" transform="matrix(1.5 0 0 1.5 216 72)" id="mdi-file-replace" fill="#555"/><path d="M14 12h5.5L14 6.5V12M8 5h7l6 6v10a2 2 0 0 1-2 2H8a2 2 0 0 1-2-2v-3h5v2l4-3-4-3v2H6V7a2 2 0 0 1 2-2m5.5-2H4v13h2v2H4a2 2 0 0 1-2-2V3a2 2 0 0 1 2-2h7.5l2 2Z" transform="matrix(1.5 0 0 1.5 252 72)" id="mdi-file-replace" fill="#fff"/><path d="m14 3-2-2H4a2 2 0 0 0-2 2v12a2 2 0 0 0 2 2h7v2l4-3-4-3v2H4V3h10m7 7v11a2 2 0 0 1-2 2H8a2 2 0 0 1-2-2v-2h2v2h11v-9h-5V7H8v6H6V7a2 2 0 0 1 2-2h8l5 5Z" transform="matrix(1.5 0 0 1.5 288 72)" id="mdi-file-replace-outline" fill="#555"/><path d="m14 3-2-2H4a2 2 0 0 0-2 2v12a2 2 0 0 0 2 2h7v2l4-3-4-3v2H4V3h10m7 7v11a2 2 0 0 1-2 2H8a2 2 0 0 1-2-2v-2h2v2h11v-9h-5V7H8v6H6V7a2 2 0 0 1 2-2h8l5 5Z" transform="matrix(1.5 0 0 1.5 324 72)" id="mdi-file-replace-outline" fill="#fff"/><path d="M14 2H6a2 2 0 0 0-2 2v16a2 2 0 0 0 2 2h12a2 2 0 0 0 2-2V8l-6-6m-2 16c-2.05 0-3.81-1.24-4.58-3h1.71c.63.9 1.68 1.5 2.87 1.5a3.5 3.5 0 0 0 3.5-3.5A3.5 3.5 0 0 0 12 9.5c-1.35 0-2.5.78-3.1 1.9l1.6 1.6h-4V9l1.3 1.3C8.69 8.92 10.23 8 12 8a5 5 0 0 1 5 5 5 5 0 0 1-5 5Z" transform="matrix(1.5 0 0 1.5 360 72)" id="mdi-file-restore" fill="#555"/><path d="M14 2H6a2 2 0 0 0-2 2v16a2 2 0 0 0 2 2h12a2 2 0 0 0 2-2V8l-6-6m-2 16c-2.05 0-3.81-1.24-4.58-3h1.71c.63.9 1.68 1.5 2.87 1.5a3.5 3.5 0 0 0 3.5-3.5A3.5 3.5 0 0 0 12 9.5c-1.35 0-2.5.78-3.1 1.9l1.6 1.6h-4V9l1.3 1.3C8.69 8.92 10.23 8 12 8a5 5 0 0 1 5 5 5 5 0 0 1-5 5Z" transform="matrix(1.5 0 0 1.5 396 72)" id="mdi-file-restore" fill="#fff"/><path d="M14 2H6c-1.1 0-2 .9-2 2v16c0 1.1.9 2 2 2h12c1.1 0 2-.9 2-2V8l-6-6m4 18H6V4h7l5 5v11m-1-6.76c0 2.62-2.13 4.76-4.76 4.76-1.95 0-3.63-1.18-4.36-2.86H9.5c.61.86 1.61 1.43 2.74 1.43 1.84 0 3.33-1.5 3.33-3.33S14.08 9.9 12.24 9.9c-1.29 0-2.38.75-2.95 1.81l1.52 1.53H7V9.43l1.24 1.24a4.714 4.714 0 0 1 4-2.17c2.63-.03 4.76 2.11 4.76 4.74Z" transform="matrix(1.5 0 0 1.5 432 72)" id="mdi-file-restore-outline" fill="#555"/><path d="M14 2H6c-1.1 0-2 .9-2 2v16c0 1.1.9 2 2 2h12c1.1 0 2-.9 2-2V8l-6-6m4 18H6V4h7l5 5v11m-1-6.76c0 2.62-2.13 4.76-4.76 4.76-1.95 0-3.63-1.18-4.36-2.86H9.5c.61.86 1.61 1.43 2.74 1.43 1.84 0 3.33-1.5 3.33-3.33S14.08 9.9 12.24 9.9c-1.29 0-2.38.75-2.95 1.81l1.52 1.53H7V9.43l1.24 1.24a4.714 4.714 0 0 1 4-2.17c2.63-.03 4.76 2.11 4.76 4.74Z" transform="matrix(1.5 0 0 1.5 468 72)" id="mdi-file-restore-outline" fill="#fff"/><path d="M17 7h-4c-1.1 0-2 .9-2 2v9a2 2 0 0 0 2 2h6c1.11 0 2-.89 2-2v-7l-4-4m2 5h-3V9h.17L19 11.83V12M4 11c0-4.42 3.58-8 8-8l1 .06v2.02L12 5c-3.31 0-6 2.69-6 6h3l-4 4-4-4h3" transform="matrix(1.5 0 0 1.5 504 72)" id="mdi-file-rotate-left" fill="#555"/><path d="M17 7h-4c-1.1 0-2 .9-2 2v9a2 2 0 0 0 2 2h6c1.11 0 2-.89 2-2v-7l-4-4m2 5h-3V9h.17L19 11.83V12M4 11c0-4.42 3.58-8 8-8l1 .06v2.02L12 5c-3.31 0-6 2.69-6 6h3l-4 4-4-4h3" transform="matrix(1.5 0 0 1.5 540 72)" id="mdi-file-rotate-left" fill="#fff"/><path d="M4 11c0-4.42 3.58-8 8-8l1 .06v2.02L12 5c-3.31 0-6 2.69-6 6h3l-4 4-4-4h3m13-4h-4c-1.1 0-2 .9-2 2v9a2 2 0 0 0 2 2h6c1.11 0 2-.89 2-2v-7l-4-4m2 11h-6V9h3v3h3v6Z" transform="matrix(1.5 0 0 1.5 576 72)" id="mdi-file-rotate-left-outline" fill="#555"/><path d="M4 11c0-4.42 3.58-8 8-8l1 .06v2.02L12 5c-3.31 0-6 2.69-6 6h3l-4 4-4-4h3m13-4h-4c-1.1 0-2 .9-2 2v9a2 2 0 0 0 2 2h6c1.11 0 2-.89 2-2v-7l-4-4m2 11h-6V9h3v3h3v6Z" transform="matrix(1.5 0 0 1.5 612 72)" id="mdi-file-rotate-left-outline" fill="#fff"/><path d="M5 20a2 2 0 0 1-2-2V9c0-1.1.9-2 2-2h4l4 4v7c0 1.11-.89 2-2 2H5m6-8.17L8.17 9H8v3h3v-.17m9-.83h3l-4 4-4-4h3c0-3.31-2.69-6-6-6l-1 .08V3.06L12 3c4.42 0 8 3.58 8 8" transform="matrix(1.5 0 0 1.5 648 72)" id="mdi-file-rotate-right" fill="#555"/><path d="M5 20a2 2 0 0 1-2-2V9c0-1.1.9-2 2-2h4l4 4v7c0 1.11-.89 2-2 2H5m6-8.17L8.17 9H8v3h3v-.17m9-.83h3l-4 4-4-4h3c0-3.31-2.69-6-6-6l-1 .08V3.06L12 3c4.42 0 8 3.58 8 8" transform="matrix(1.5 0 0 1.5 684 72)" id="mdi-file-rotate-right" fill="#fff"/><path d="M20 11h3l-4 4-4-4h3c0-3.31-2.69-6-6-6l-1 .08V3.06L12 3c4.42 0 8 3.58 8 8M9 7H5c-1.1 0-2 .9-2 2v9a2 2 0 0 0 2 2h6c1.11 0 2-.89 2-2v-7L9 7m2 11H5V9h3v3h3v6Z" transform="matrix(1.5 0 0 1.5 0 108)" id="mdi-file-rotate-right-outline" fill="#555"/><path d="M20 11h3l-4 4-4-4h3c0-3.31-2.69-6-6-6l-1 .08V3.06L12 3c4.42 0 8 3.58 8 8M9 7H5c-1.1 0-2 .9-2 2v9a2 2 0 0 0 2 2h6c1.11 0 2-.89 2-2v-7L9 7m2 11H5V9h3v3h3v6Z" transform="matrix(1.5 0 0 1.5 36 108)" id="mdi-file-rotate-right-outline" fill="#fff"/><path d="M14 2H6a2 2 0 0 0-2 2v16a2 2 0 0 0 2 2h7c-.41-.25-.8-.56-1.14-.9a6.478 6.478 0 0 1-.36-9.18C13.69 9.5 17.33 9.13 20 11V8l-6-6m-1 7V3.5L18.5 9H13m7.31 9.9c1.33-2.11.69-4.9-1.4-6.22-2.11-1.33-4.91-.68-6.22 1.4-1.34 2.11-.69 4.89 1.4 6.22 1.46.93 3.32.93 4.79.02L22 23.39 23.39 22l-3.08-3.1m-3.81.1a2.5 2.5 0 0 1-2.5-2.5 2.5 2.5 0 0 1 2.5-2.5 2.5 2.5 0 0 1 2.5 2.5 2.5 2.5 0 0 1-2.5 2.5Z" transform="matrix(1.5 0 0 1.5 72 108)" id="mdi-file-search" fill="#555"/><path d="M14 2H6a2 2 0 0 0-2 2v16a2 2 0 0 0 2 2h7c-.41-.25-.8-.56-1.14-.9a6.478 6.478 0 0 1-.36-9.18C13.69 9.5 17.33 9.13 20 11V8l-6-6m-1 7V3.5L18.5 9H13m7.31 9.9c1.33-2.11.69-4.9-1.4-6.22-2.11-1.33-4.91-.68-6.22 1.4-1.34 2.11-.69 4.89 1.4 6.22 1.46.93 3.32.93 4.79.02L22 23.39 23.39 22l-3.08-3.1m-3.81.1a2.5 2.5 0 0 1-2.5-2.5 2.5 2.5 0 0 1 2.5-2.5 2.5 2.5 0 0 1 2.5 2.5 2.5 2.5 0 0 1-2.5 2.5Z" transform="matrix(1.5 0 0 1.5 108 108)" id="mdi-file-search" fill="#fff"/><path d="M14 2H6a2 2 0 0 0-2 2v16a2 2 0 0 0 2 2h7c-.41-.25-.8-.56-1.14-.9-.33-.33-.61-.7-.86-1.1H6V4h7v5h5v1.18c.71.16 1.39.43 2 .82V8l-6-6m6.31 16.9c1.33-2.11.69-4.9-1.4-6.22-2.11-1.33-4.91-.68-6.22 1.4-1.34 2.11-.69 4.89 1.4 6.22 1.46.93 3.32.93 4.79.02L22 23.39 23.39 22l-3.08-3.1m-3.81.1a2.5 2.5 0 0 1-2.5-2.5 2.5 2.5 0 0 1 2.5-2.5 2.5 2.5 0 0 1 2.5 2.5 2.5 2.5 0 0 1-2.5 2.5Z" transform="matrix(1.5 0 0 1.5 144 108)" id="mdi-file-search-outline" fill="#555"/><path d="M14 2H6a2 2 0 0 0-2 2v16a2 2 0 0 0 2 2h7c-.41-.25-.8-.56-1.14-.9-.33-.33-.61-.7-.86-1.1H6V4h7v5h5v1.18c.71.16 1.39.43 2 .82V8l-6-6m6.31 16.9c1.33-2.11.69-4.9-1.4-6.22-2.11-1.33-4.91-.68-6.22 1.4-1.34 2.11-.69 4.89 1.4 6.22 1.46.93 3.32.93 4.79.02L22 23.39 23.39 22l-3.08-3.1m-3.81.1a2.5 2.5 0 0 1-2.5-2.5 2.5 2.5 0 0 1 2.5-2.5 2.5 2.5 0 0 1 2.5 2.5 2.5 2.5 0 0 1-2.5 2.5Z" transform="matrix(1.5 0 0 1.5 180 108)" id="mdi-file-search-outline" fill="#fff"/><path d="M14 2H6c-1.11 0-2 .89-2 2v16a2 2 0 0 0 2 2h12a2 2 0 0 0 2-2V8l-6-6m-1.46 17.37v-2h-4v-1.99h4v-2l3 3-3 2.99M13 9V3.5L18.5 9H13Z" transform="matrix(1.5 0 0 1.5 216 108)" id="mdi-file-send" fill="#555"/><path d="M14 2H6c-1.11 0-2 .89-2 2v16a2 2 0 0 0 2 2h12a2 2 0 0 0 2-2V8l-6-6m-1.46 17.37v-2h-4v-1.99h4v-2l3 3-3 2.99M13 9V3.5L18.5 9H13Z" transform="matrix(1.5 0 0 1.5 252 108)" id="mdi-file-send" fill="#fff"/><path d="M14 2H6a2 2 0 0 0-2 2v16c0 1.11.89 2 2 2h12c1.11 0 2-.89 2-2V8l-6-6m4 18H6V4h7v5h5v11m-5.46-1.5v-2h-4v-2h4v-2l3 3-3 3Z" transform="matrix(1.5 0 0 1.5 288 108)" id="mdi-file-send-outline" fill="#555"/><path d="M14 2H6a2 2 0 0 0-2 2v16c0 1.11.89 2 2 2h12c1.11 0 2-.89 2-2V8l-6-6m4 18H6V4h7v5h5v11m-5.46-1.5v-2h-4v-2h4v-2l3 3-3 3Z" transform="matrix(1.5 0 0 1.5 324 108)" id="mdi-file-send-outline" fill="#fff"/><path d="M6 0C4.89 0 4 .89 4 2v16a2 2 0 0 0 2 2h12a2 2 0 0 0 2-2V6l-6-6H6m7 1.5L18.5 7H13V1.5M7 22v2h2v-2H7m4 0v2h2v-2h-2m4 0v2h2v-2h-2Z" transform="matrix(1.5 0 0 1.5 360 108)" id="mdi-file-settings" fill="#555"/><path d="M6 0C4.89 0 4 .89 4 2v16a2 2 0 0 0 2 2h12a2 2 0 0 0 2-2V6l-6-6H6m7 1.5L18.5 7H13V1.5M7 22v2h2v-2H7m4 0v2h2v-2h-2m4 0v2h2v-2h-2Z" transform="matrix(1.5 0 0 1.5 396 108)" id="mdi-file-settings" fill="#fff"/><path d="M6 0a2 2 0 0 0-2 2v16a2 2 0 0 0 2 2h12a2 2 0 0 0 2-2V6l-6-6H6m0 2h7v5h5v11H6V2m1 20v2h2v-2H7m4 0v2h2v-2h-2m4 0v2h2v-2h-2Z" transform="matrix(1.5 0 0 1.5 432 108)" id="mdi-file-settings-outline" fill="#555"/><path d="M6 0a2 2 0 0 0-2 2v16a2 2 0 0 0 2 2h12a2 2 0 0 0 2-2V6l-6-6H6m0 2h7v5h5v11H6V2m1 20v2h2v-2H7m4 0v2h2v-2h-2m4 0v2h2v-2h-2Z" transform="matrix(1.5 0 0 1.5 468 108)" id="mdi-file-settings-outline" fill="#fff"/><path d="M19.7 12.9 14 18.6h-2.3v-2.3l5.7-5.7 2.3 2.3m3.4-.8c0 .3-.3.6-.6.9L20 15.5l-.9-.9 2.6-2.6-.6-.6-.7.7-2.3-2.3 2.2-2.1c.2-.2.6-.2.9 0l1.4 1.4c.2.2.2.6 0 .9-.2.2-.4.4-.4.6 0 .2.2.4.4.6.3.3.6.6.5.9M3 20V4h7v5h5v1.5l2-2V8l-6-6H3c-1.1 0-2 .9-2 2v16c0 1.1.9 2 2 2h12c1.1 0 2-.9 2-2H3m8-2.9c-.2 0-.4.1-.5.1L10 15H8.5l-2.1 1.7L7 14H5.5l-1 5H6l2.9-2.6.6 2.3h1l.5-.1v-1.5Z" transform="matrix(1.5 0 0 1.5 504 108)" id="mdi-file-sign" fill="#555"/><path d="M19.7 12.9 14 18.6h-2.3v-2.3l5.7-5.7 2.3 2.3m3.4-.8c0 .3-.3.6-.6.9L20 15.5l-.9-.9 2.6-2.6-.6-.6-.7.7-2.3-2.3 2.2-2.1c.2-.2.6-.2.9 0l1.4 1.4c.2.2.2.6 0 .9-.2.2-.4.4-.4.6 0 .2.2.4.4.6.3.3.6.6.5.9M3 20V4h7v5h5v1.5l2-2V8l-6-6H3c-1.1 0-2 .9-2 2v16c0 1.1.9 2 2 2h12c1.1 0 2-.9 2-2H3m8-2.9c-.2 0-.4.1-.5.1L10 15H8.5l-2.1 1.7L7 14H5.5l-1 5H6l2.9-2.6.6 2.3h1l.5-.1v-1.5Z" transform="matrix(1.5 0 0 1.5 540 108)" id="mdi-file-sign" fill="#fff"/><path d="M14 2H6a2 2 0 0 0-2 2v16c0 1.1.9 2 2 2h12c1.1 0 2-.9 2-2V8l-6-6m.5 16.9L12 17.5 9.5 19l.7-2.8L8 14.3l2.9-.2 1.1-2.7 1.1 2.6 2.9.2-2.2 1.9.7 2.8M13 9V3.5L18.5 9H13Z" transform="matrix(1.5 0 0 1.5 576 108)" id="mdi-file-star" fill="#555"/><path d="M14 2H6a2 2 0 0 0-2 2v16c0 1.1.9 2 2 2h12c1.1 0 2-.9 2-2V8l-6-6m.5 16.9L12 17.5 9.5 19l.7-2.8L8 14.3l2.9-.2 1.1-2.7 1.1 2.6 2.9.2-2.2 1.9.7 2.8M13 9V3.5L18.5 9H13Z" transform="matrix(1.5 0 0 1.5 612 108)" id="mdi-file-star" fill="#fff"/><path d="M14 2H6c-1.1 0-2 .9-2 2v16c0 1.1.9 2 2 2h12c1.1 0 2-.9 2-2V8l-6-6m4 18H6V4h7v5h5v11m-8.5-2 .7-2.8L8 13.3l2.9-.2 1.1-2.7 1.1 2.6 2.9.2-2.2 1.9.7 2.8-2.5-1.4L9.5 18Z" transform="matrix(1.5 0 0 1.5 648 108)" id="mdi-file-star-outline" fill="#555"/><path d="M14 2H6c-1.1 0-2 .9-2 2v16c0 1.1.9 2 2 2h12c1.1 0 2-.9 2-2V8l-6-6m4 18H6V4h7v5h5v11m-8.5-2 .7-2.8L8 13.3l2.9-.2 1.1-2.7 1.1 2.6 2.9.2-2.2 1.9.7 2.8-2.5-1.4L9.5 18Z" transform="matrix(1.5 0 0 1.5 684 108)" id="mdi-file-star-outline" fill="#fff"/><path d="M14 2H6a2 2 0 0 0-2 2v16a2 2 0 0 0 2 2h12a2 2 0 0 0 2-2V8m-6 10v-2h-4v2l-3-3 3-3v2h4v-2l3 3m-4-6V3.5L18.5 9Z" transform="matrix(1.5 0 0 1.5 0 144)" id="mdi-file-swap" fill="#555"/><path d="M14 2H6a2 2 0 0 0-2 2v16a2 2 0 0 0 2 2h12a2 2 0 0 0 2-2V8m-6 10v-2h-4v2l-3-3 3-3v2h4v-2l3 3m-4-6V3.5L18.5 9Z" transform="matrix(1.5 0 0 1.5 36 144)" id="mdi-file-swap" fill="#fff"/><path d="m17 15-3-3v2h-4v-2l-3 3 3 3v-2h4v2m0-16H6a2 2 0 0 0-2 2v16a2 2 0 0 0 2 2h12a2 2 0 0 0 2-2V8l-6-6m4 18H6V4h7v5h5Z" transform="matrix(1.5 0 0 1.5 72 144)" id="mdi-file-swap-outline" fill="#555"/><path d="m17 15-3-3v2h-4v-2l-3 3 3 3v-2h4v2m0-16H6a2 2 0 0 0-2 2v16a2 2 0 0 0 2 2h12a2 2 0 0 0 2-2V8l-6-6m4 18H6V4h7v5h5Z" transform="matrix(1.5 0 0 1.5 108 144)" id="mdi-file-swap-outline" fill="#fff"/><path d="M11 17.5c0-3.6 2.9-6.5 6.5-6.5.9 0 1.7.2 2.5.5V8l-6-6H6c-1.1 0-2 .9-2 2v16c0 1.1.9 2 2 2h6.8c-1.1-1.2-1.8-2.8-1.8-4.5m2-14L18.5 9H13V3.5m4 8.5v1.5c2.2 0 4 1.8 4 4 0 .8-.2 1.6-.7 2.2l-1.1-1.1c.2-.3.3-.7.3-1.1 0-1.4-1.1-2.5-2.5-2.5v1.5l-2.2-2.2L17 12m0 11v-1.5c-2.2 0-4-1.8-4-4 0-.8.2-1.6.7-2.2l1.1 1.1c-.2.3-.3.7-.3 1.1 0 1.4 1.1 2.5 2.5 2.5v-1.5l2.2 2.2L17 23Z" transform="matrix(1.5 0 0 1.5 144 144)" id="mdi-file-sync" fill="#555"/><path d="M11 17.5c0-3.6 2.9-6.5 6.5-6.5.9 0 1.7.2 2.5.5V8l-6-6H6c-1.1 0-2 .9-2 2v16c0 1.1.9 2 2 2h6.8c-1.1-1.2-1.8-2.8-1.8-4.5m2-14L18.5 9H13V3.5m4 8.5v1.5c2.2 0 4 1.8 4 4 0 .8-.2 1.6-.7 2.2l-1.1-1.1c.2-.3.3-.7.3-1.1 0-1.4-1.1-2.5-2.5-2.5v1.5l-2.2-2.2L17 12m0 11v-1.5c-2.2 0-4-1.8-4-4 0-.8.2-1.6.7-2.2l1.1 1.1c-.2.3-.3.7-.3 1.1 0 1.4 1.1 2.5 2.5 2.5v-1.5l2.2 2.2L17 23Z" transform="matrix(1.5 0 0 1.5 180 144)" id="mdi-file-sync" fill="#fff"/><path d="M12.8 22H6c-1.1 0-2-.9-2-2V4c0-1.1.9-2 2-2h8l6 6v3.5c-.6-.3-1.3-.4-2-.5V9h-5V4H6v16h5.5c.3.7.8 1.4 1.3 2M17 12l-2.2 2.2 2.2 2.2V15c1.4 0 2.5 1.1 2.5 2.5 0 .4-.1.8-.3 1.1l1.1 1.1c.4-.6.7-1.4.7-2.2 0-2.2-1.8-4-4-4V12m2.2 8.8L17 18.5V20c-1.4 0-2.5-1.1-2.5-2.5 0-.4.1-.8.3-1.1l-1.1-1.1c-.4.6-.7 1.4-.7 2.2 0 2.2 1.8 4 4 4V23l2.2-2.2Z" transform="matrix(1.5 0 0 1.5 216 144)" id="mdi-file-sync-outline" fill="#555"/><path d="M12.8 22H6c-1.1 0-2-.9-2-2V4c0-1.1.9-2 2-2h8l6 6v3.5c-.6-.3-1.3-.4-2-.5V9h-5V4H6v16h5.5c.3.7.8 1.4 1.3 2M17 12l-2.2 2.2 2.2 2.2V15c1.4 0 2.5 1.1 2.5 2.5 0 .4-.1.8-.3 1.1l1.1 1.1c.4-.6.7-1.4.7-2.2 0-2.2-1.8-4-4-4V12m2.2 8.8L17 18.5V20c-1.4 0-2.5-1.1-2.5-2.5 0-.4.1-.8.3-1.1l-1.1-1.1c-.4.6-.7 1.4-.7 2.2 0 2.2 1.8 4 4 4V23l2.2-2.2Z" transform="matrix(1.5 0 0 1.5 252 144)" id="mdi-file-sync-outline" fill="#fff"/><path d="M14 2H6a2 2 0 0 0-2 2v16a2 2 0 0 0 2 2h12a2 2 0 0 0 2-2V8l-6-6m-4 17H7v-2h3v2m0-3H7v-2h3v2m0-3H7v-2h3v2m4 6h-3v-2h3v2m0-3h-3v-2h3v2m0-3h-3v-2h3v2m-1-4V3.5L18.5 9H13Z" transform="matrix(1.5 0 0 1.5 288 144)" id="mdi-file-table" fill="#555"/><path d="M14 2H6a2 2 0 0 0-2 2v16a2 2 0 0 0 2 2h12a2 2 0 0 0 2-2V8l-6-6m-4 17H7v-2h3v2m0-3H7v-2h3v2m0-3H7v-2h3v2m4 6h-3v-2h3v2m0-3h-3v-2h3v2m0-3h-3v-2h3v2m-1-4V3.5L18.5 9H13Z" transform="matrix(1.5 0 0 1.5 324 144)" id="mdi-file-table" fill="#fff"/><path d="M19 3H5c-1.11 0-2 .89-2 2v14c0 1.1.9 2 2 2h14c1.1 0 2-.9 2-2V5a2 2 0 0 0-2-2M9 18H6v-2h3v2m0-3H6v-2h3v2m0-3H6v-2h3v2m4 6h-3v-2h3v2m0-3h-3v-2h3v2m0-3h-3v-2h3v2Z" transform="matrix(1.5 0 0 1.5 360 144)" id="mdi-file-table-box" fill="#555"/><path d="M19 3H5c-1.11 0-2 .89-2 2v14c0 1.1.9 2 2 2h14c1.1 0 2-.9 2-2V5a2 2 0 0 0-2-2M9 18H6v-2h3v2m0-3H6v-2h3v2m0-3H6v-2h3v2m4 6h-3v-2h3v2m0-3h-3v-2h3v2m0-3h-3v-2h3v2Z" transform="matrix(1.5 0 0 1.5 396 144)" id="mdi-file-table-box" fill="#fff"/><path d="M3 5v16h16v2H3c-1.1 0-2-.9-2-2V5h2m18-4H7c-1.11 0-2 .89-2 2v14a2 2 0 0 0 2 2h14c1.11 0 2-.89 2-2V3a2 2 0 0 0-2-2M11 16H8v-2h3v2m0-3H8v-2h3v2m0-3H8V8h3v2m4 6h-3v-2h3v2m0-3h-3v-2h3v2m0-3h-3V8h3v2Z" transform="matrix(1.5 0 0 1.5 432 144)" id="mdi-file-table-box-multiple" fill="#555"/><path d="M3 5v16h16v2H3c-1.1 0-2-.9-2-2V5h2m18-4H7c-1.11 0-2 .89-2 2v14a2 2 0 0 0 2 2h14c1.11 0 2-.89 2-2V3a2 2 0 0 0-2-2M11 16H8v-2h3v2m0-3H8v-2h3v2m0-3H8V8h3v2m4 6h-3v-2h3v2m0-3h-3v-2h3v2m0-3h-3V8h3v2Z" transform="matrix(1.5 0 0 1.5 468 144)" id="mdi-file-table-box-multiple" fill="#fff"/><path d="M3 5v16h16v2H3c-1.1 0-2-.9-2-2V5h2m18-4H7c-1.11 0-2 .89-2 2v14c0 1.1.9 2 2 2h14c1.11 0 2-.89 2-2V3c0-1.1-.9-2-2-2m0 16H7V3h14v14m-10-3H8v2h3v-2m4 0h-3v2h3v-2m-4-3H8v2h3v-2m4 0h-3v2h3v-2m-4-3H8v2h3V8m4 0h-3v2h3V8Z" transform="matrix(1.5 0 0 1.5 504 144)" id="mdi-file-table-box-multiple-outline" fill="#555"/><path d="M3 5v16h16v2H3c-1.1 0-2-.9-2-2V5h2m18-4H7c-1.11 0-2 .89-2 2v14c0 1.1.9 2 2 2h14c1.11 0 2-.89 2-2V3c0-1.1-.9-2-2-2m0 16H7V3h14v14m-10-3H8v2h3v-2m4 0h-3v2h3v-2m-4-3H8v2h3v-2m4 0h-3v2h3v-2m-4-3H8v2h3V8m4 0h-3v2h3V8Z" transform="matrix(1.5 0 0 1.5 540 144)" id="mdi-file-table-box-multiple-outline" fill="#fff"/><path d="M19 3H5c-1.11 0-2 .89-2 2v14c0 1.11.89 2 2 2h14c1.11 0 2-.89 2-2V5c0-1.11-.89-2-2-2m0 16H5V5h14v14M9 18H6v-2h3v2m4 0h-3v-2h3v2m-4-3H6v-2h3v2m4 0h-3v-2h3v2m-4-3H6v-2h3v2m4 0h-3v-2h3v2Z" transform="matrix(1.5 0 0 1.5 576 144)" id="mdi-file-table-box-outline" fill="#555"/><path d="M19 3H5c-1.11 0-2 .89-2 2v14c0 1.11.89 2 2 2h14c1.11 0 2-.89 2-2V5c0-1.11-.89-2-2-2m0 16H5V5h14v14M9 18H6v-2h3v2m4 0h-3v-2h3v2m-4-3H6v-2h3v2m4 0h-3v-2h3v2m-4-3H6v-2h3v2m4 0h-3v-2h3v2Z" transform="matrix(1.5 0 0 1.5 612 144)" id="mdi-file-table-box-outline" fill="#fff"/><path d="M14 2H6a2 2 0 0 0-2 2v16a2 2 0 0 0 2 2h12a2 2 0 0 0 2-2V8l-6-6m4 18H6V4h7v5h5v11m-8-7H7v-2h3v2m4 0h-3v-2h3v2m-4 3H7v-2h3v2m4 0h-3v-2h3v2m-4 3H7v-2h3v2m4 0h-3v-2h3v2Z" transform="matrix(1.5 0 0 1.5 648 144)" id="mdi-file-table-outline" fill="#555"/><path d="M14 2H6a2 2 0 0 0-2 2v16a2 2 0 0 0 2 2h12a2 2 0 0 0 2-2V8l-6-6m4 18H6V4h7v5h5v11m-8-7H7v-2h3v2m4 0h-3v-2h3v2m-4 3H7v-2h3v2m4 0h-3v-2h3v2m-4 3H7v-2h3v2m4 0h-3v-2h3v2Z" transform="matrix(1.5 0 0 1.5 684 144)" id="mdi-file-table-outline" fill="#fff"/><path d="M3 3h6v4H3V3m12 7h6v4h-6v-4m0 7h6v4h-6v-4m-2-4H7v5h6v2H5V9h2v2h6v2Z" transform="matrix(1.5 0 0 1.5 0 180)" id="mdi-file-tree" fill="#555"/><path d="M3 3h6v4H3V3m12 7h6v4h-6v-4m0 7h6v4h-6v-4m-2-4H7v5h6v2H5V9h2v2h6v2Z" transform="matrix(1.5 0 0 1.5 36 180)" id="mdi-file-tree" fill="#fff"/><path d="M12 13H7v5h5v2H5V10h2v1h5v2M8 4v2H4V4h4m2-2H2v6h8V2m10 9v2h-4v-2h4m2-2h-8v6h8V9m-2 9v2h-4v-2h4m2-2h-8v6h8v-6Z" transform="matrix(1.5 0 0 1.5 72 180)" id="mdi-file-tree-outline" fill="#555"/><path d="M12 13H7v5h5v2H5V10h2v1h5v2M8 4v2H4V4h4m2-2H2v6h8V2m10 9v2h-4v-2h4m2-2h-8v6h8V9m-2 9v2h-4v-2h4m2-2h-8v6h8v-6Z" transform="matrix(1.5 0 0 1.5 108 180)" id="mdi-file-tree-outline" fill="#fff"/><path d="M13 9h5.5L13 3.5V9M6 2h8l6 6v12a2 2 0 0 1-2 2H6a2 2 0 0 1-2-2V4c0-1.11.89-2 2-2m6.16 12.31c-1.56 0-2.97.58-4.05 1.52L6 13.72V19h5.28l-2.13-2.12c.82-.68 1.85-1.1 3.01-1.1 2.07 0 3.84 1.35 4.45 3.22l1.39-.46c-.81-2.45-3.12-4.23-5.84-4.23Z" transform="matrix(1.5 0 0 1.5 144 180)" id="mdi-file-undo" fill="#555"/><path d="M13 9h5.5L13 3.5V9M6 2h8l6 6v12a2 2 0 0 1-2 2H6a2 2 0 0 1-2-2V4c0-1.11.89-2 2-2m6.16 12.31c-1.56 0-2.97.58-4.05 1.52L6 13.72V19h5.28l-2.13-2.12c.82-.68 1.85-1.1 3.01-1.1 2.07 0 3.84 1.35 4.45 3.22l1.39-.46c-.81-2.45-3.12-4.23-5.84-4.23Z" transform="matrix(1.5 0 0 1.5 180 180)" id="mdi-file-undo" fill="#fff"/><path d="M14 2H6a2 2 0 0 0-2 2v16c0 1.11.89 2 2 2h12c1.11 0 2-.89 2-2V8l-6-6m4 18H6V4h7v5h5v11m-1-2.39-1.16.39a3.908 3.908 0 0 0-3.71-2.69c-.96 0-1.82.35-2.5.92L11.4 18H7v-4.4l1.76 1.76c.9-.79 2.07-1.27 3.37-1.27 2.27 0 4.2 1.48 4.87 3.52Z" transform="matrix(1.5 0 0 1.5 216 180)" id="mdi-file-undo-outline" fill="#555"/><path d="M14 2H6a2 2 0 0 0-2 2v16c0 1.11.89 2 2 2h12c1.11 0 2-.89 2-2V8l-6-6m4 18H6V4h7v5h5v11m-1-2.39-1.16.39a3.908 3.908 0 0 0-3.71-2.69c-.96 0-1.82.35-2.5.92L11.4 18H7v-4.4l1.76 1.76c.9-.79 2.07-1.27 3.37-1.27 2.27 0 4.2 1.48 4.87 3.52Z" transform="matrix(1.5 0 0 1.5 252 180)" id="mdi-file-undo-outline" fill="#fff"/><path d="M14 2H6a2 2 0 0 0-2 2v16a2 2 0 0 0 2 2h12a2 2 0 0 0 2-2V8l-6-6m-.5 14v3h-3v-3H8l4-4 4 4h-2.5M13 9V3.5L18.5 9H13Z" transform="matrix(1.5 0 0 1.5 288 180)" id="mdi-file-upload" fill="#555"/><path d="M14 2H6a2 2 0 0 0-2 2v16a2 2 0 0 0 2 2h12a2 2 0 0 0 2-2V8l-6-6m-.5 14v3h-3v-3H8l4-4 4 4h-2.5M13 9V3.5L18.5 9H13Z" transform="matrix(1.5 0 0 1.5 324 180)" id="mdi-file-upload" fill="#fff"/><path d="m14 2 6 6v12a2 2 0 0 1-2 2H6a2 2 0 0 1-2-2V4a2 2 0 0 1 2-2h8m4 18V9h-5V4H6v16h12m-6-8 4 4h-2.5v3h-3v-3H8l4-4Z" transform="matrix(1.5 0 0 1.5 360 180)" id="mdi-file-upload-outline" fill="#555"/><path d="m14 2 6 6v12a2 2 0 0 1-2 2H6a2 2 0 0 1-2-2V4a2 2 0 0 1 2-2h8m4 18V9h-5V4H6v16h12m-6-8 4 4h-2.5v3h-3v-3H8l4-4Z" transform="matrix(1.5 0 0 1.5 396 180)" id="mdi-file-upload-outline" fill="#fff"/><path d="M13 9h5.5L13 3.5V9M6 2h8l6 6v12a2 2 0 0 1-2 2H6a2 2 0 0 1-2-2V4c0-1.11.89-2 2-2m11 17v-6l-3 2.2V13H7v6h7v-2.2l3 2.2Z" transform="matrix(1.5 0 0 1.5 432 180)" id="mdi-file-video" fill="#555"/><path d="M13 9h5.5L13 3.5V9M6 2h8l6 6v12a2 2 0 0 1-2 2H6a2 2 0 0 1-2-2V4c0-1.11.89-2 2-2m11 17v-6l-3 2.2V13H7v6h7v-2.2l3 2.2Z" transform="matrix(1.5 0 0 1.5 468 180)" id="mdi-file-video" fill="#fff"/><path d="m14 2 6 6v12a2 2 0 0 1-2 2H6a2 2 0 0 1-2-2V4a2 2 0 0 1 2-2h8m4 18V9h-5V4H6v16h12m-2-2-2.5-1.7V18H8v-5h5.5v1.7L16 13v5Z" transform="matrix(1.5 0 0 1.5 504 180)" id="mdi-file-video-outline" fill="#555"/><path d="m14 2 6 6v12a2 2 0 0 1-2 2H6a2 2 0 0 1-2-2V4a2 2 0 0 1 2-2h8m4 18V9h-5V4H6v16h12m-2-2-2.5-1.7V18H8v-5h5.5v1.7L16 13v5Z" transform="matrix(1.5 0 0 1.5 540 180)" id="mdi-file-video-outline" fill="#fff"/><path d="M14 2H6a2 2 0 0 0-2 2v16a2 2 0 0 0 2 2h12a2 2 0 0 0 2-2V8l-6-6m1.2 18h-1.4L12 13.2 10.2 20H8.8l-2.2-9h1.5l1.4 6.8 1.8-6.8h1.3l1.8 6.8 1.4-6.8h1.5l-2.1 9M13 9V3.5L18.5 9H13Z" transform="matrix(1.5 0 0 1.5 576 180)" id="mdi-file-word" fill="#555"/><path d="M14 2H6a2 2 0 0 0-2 2v16a2 2 0 0 0 2 2h12a2 2 0 0 0 2-2V8l-6-6m1.2 18h-1.4L12 13.2 10.2 20H8.8l-2.2-9h1.5l1.4 6.8 1.8-6.8h1.3l1.8 6.8 1.4-6.8h1.5l-2.1 9M13 9V3.5L18.5 9H13Z" transform="matrix(1.5 0 0 1.5 612 180)" id="mdi-file-word" fill="#fff"/><path d="M15.5 17H14l-2-7.5-2 7.5H8.5L6.1 7h1.7l1.54 7.5L11.3 7h1.4l1.97 7.5L16.2 7h1.7M19 3H5c-1.11 0-2 .89-2 2v14a2 2 0 0 0 2 2h14a2 2 0 0 0 2-2V5a2 2 0 0 0-2-2Z" transform="matrix(1.5 0 0 1.5 648 180)" id="mdi-file-word-box" fill="#555"/><path d="M15.5 17H14l-2-7.5-2 7.5H8.5L6.1 7h1.7l1.54 7.5L11.3 7h1.4l1.97 7.5L16.2 7h1.7M19 3H5c-1.11 0-2 .89-2 2v14a2 2 0 0 0 2 2h14a2 2 0 0 0 2-2V5a2 2 0 0 0-2-2Z" transform="matrix(1.5 0 0 1.5 684 180)" id="mdi-file-word-box" fill="#fff"/><path d="M5 3c-1.11 0-2 .89-2 2v14c0 1.11.89 2 2 2h14c1.11 0 2-.89 2-2V5c0-1.11-.89-2-2-2H5m0 2h14v14H5V5m12.9 2-2.4 10H14l-2-7.5-2 7.5H8.5L6.1 7h1.7l1.54 7.5L11.3 7h1.4l1.97 7.5L16.2 7h1.7Z" transform="matrix(1.5 0 0 1.5 0 216)" id="mdi-file-word-box-outline" fill="#555"/><path d="M5 3c-1.11 0-2 .89-2 2v14c0 1.11.89 2 2 2h14c1.11 0 2-.89 2-2V5c0-1.11-.89-2-2-2H5m0 2h14v14H5V5m12.9 2-2.4 10H14l-2-7.5-2 7.5H8.5L6.1 7h1.7l1.54 7.5L11.3 7h1.4l1.97 7.5L16.2 7h1.7Z" transform="matrix(1.5 0 0 1.5 36 216)" id="mdi-file-word-box-outline" fill="#fff"/><path d="M14 2H6a2 2 0 0 0-2 2v16c0 1.11.89 2 2 2h12c1.11 0 2-.89 2-2V8l-6-6m4 18H6V4h7v5h5v11m-.65-10-2.1 9h-1.4l-1.8-6.79-1.8 6.79h-1.4l-2.2-9h1.5l1.4 6.81 1.8-6.81h1.3l1.8 6.81 1.4-6.81h1.5Z" transform="matrix(1.5 0 0 1.5 72 216)" id="mdi-file-word-outline" fill="#555"/><path d="M14 2H6a2 2 0 0 0-2 2v16c0 1.11.89 2 2 2h12c1.11 0 2-.89 2-2V8l-6-6m4 18H6V4h7v5h5v11m-.65-10-2.1 9h-1.4l-1.8-6.79-1.8 6.79h-1.4l-2.2-9h1.5l1.4 6.81 1.8-6.81h1.3l1.8 6.81 1.4-6.81h1.5Z" transform="matrix(1.5 0 0 1.5 108 216)" id="mdi-file-word-outline" fill="#fff"/><path d="M3.5 3H5V1.8c0-.44.36-.8.8-.8h4.4c.44 0 .8.36.8.8V3h1.5A1.5 1.5 0 0 1 14 4.5V5h8v15h-8v.5a1.5 1.5 0 0 1-1.5 1.5h-9A1.5 1.5 0 0 1 2 20.5v-16A1.5 1.5 0 0 1 3.5 3M18 7v2h2V7h-2m-4 0v2h2V7h-2m-4 0v2h2V7h-2m4 9v2h2v-2h-2m4 0v2h2v-2h-2m-8 0v2h2v-2h-2Z" transform="matrix(1.5 0 0 1.5 144 216)" id="mdi-film" fill="#555"/><path d="M3.5 3H5V1.8c0-.44.36-.8.8-.8h4.4c.44 0 .8.36.8.8V3h1.5A1.5 1.5 0 0 1 14 4.5V5h8v15h-8v.5a1.5 1.5 0 0 1-1.5 1.5h-9A1.5 1.5 0 0 1 2 20.5v-16A1.5 1.5 0 0 1 3.5 3M18 7v2h2V7h-2m-4 0v2h2V7h-2m-4 0v2h2V7h-2m4 9v2h2v-2h-2m4 0v2h2v-2h-2m-8 0v2h2v-2h-2Z" transform="matrix(1.5 0 0 1.5 180 216)" id="mdi-film" fill="#fff"/><path d="M18 9h-2V7h2m0 6h-2v-2h2m0 6h-2v-2h2M8 9H6V7h2m0 6H6v-2h2m0 6H6v-2h2M18 3v2h-2V3H8v2H6V3H4v18h2v-2h2v2h8v-2h2v2h2V3h-2Z" transform="matrix(1.5 0 0 1.5 216 216)" id="mdi-filmstrip" fill="#555"/><path d="M18 9h-2V7h2m0 6h-2v-2h2m0 6h-2v-2h2M8 9H6V7h2m0 6H6v-2h2m0 6H6v-2h2M18 3v2h-2V3H8v2H6V3H4v18h2v-2h2v2h8v-2h2v2h2V3h-2Z" transform="matrix(1.5 0 0 1.5 252 216)" id="mdi-filmstrip" fill="#fff"/><path d="M19 3c1.1 0 2 .9 2 2v14c0 1.1-.9 2-2 2H5c-1.1 0-2-.9-2-2V5c0-1.1.9-2 2-2h14M7 18v-2H5v2h2m0-5v-2H5v2h2m0-5V6H5v2h2m12 10v-2h-2v2h2m0-5v-2h-2v2h2m0-5V6h-2v2h2Z" transform="matrix(1.5 0 0 1.5 288 216)" id="mdi-filmstrip-box" fill="#555"/><path d="M19 3c1.1 0 2 .9 2 2v14c0 1.1-.9 2-2 2H5c-1.1 0-2-.9-2-2V5c0-1.1.9-2 2-2h14M7 18v-2H5v2h2m0-5v-2H5v2h2m0-5V6H5v2h2m12 10v-2h-2v2h2m0-5v-2h-2v2h2m0-5V6h-2v2h2Z" transform="matrix(1.5 0 0 1.5 324 216)" id="mdi-filmstrip-box" fill="#fff"/><path d="M4 6H2v14a2 2 0 0 0 2 2h14v-2H4V6m16-4H8a2 2 0 0 0-2 2v12a2 2 0 0 0 2 2h12a2 2 0 0 0 2-2V4a2 2 0 0 0-2-2M10 15H8v-2h2v2m0-4H8V9h2v2m0-4H8V5h2v2m10 8h-2v-2h2v2m0-4h-2V9h2v2m0-4h-2V5h2v2Z" transform="matrix(1.5 0 0 1.5 360 216)" id="mdi-filmstrip-box-multiple" fill="#555"/><path d="M4 6H2v14a2 2 0 0 0 2 2h14v-2H4V6m16-4H8a2 2 0 0 0-2 2v12a2 2 0 0 0 2 2h12a2 2 0 0 0 2-2V4a2 2 0 0 0-2-2M10 15H8v-2h2v2m0-4H8V9h2v2m0-4H8V5h2v2m10 8h-2v-2h2v2m0-4h-2V9h2v2m0-4h-2V5h2v2Z" transform="matrix(1.5 0 0 1.5 396 216)" id="mdi-filmstrip-box-multiple" fill="#fff"/><path d="M1 4.27 2.28 3 21 21.72 19.73 23 16 19.27V21H8v-2H6v2H4V7.27l-3-3M18 9V7h-2v2h2m0 4v-2h-2v2h2m0 2h-1.18l-10-10H8V3h8v2h2V3h2v15.18l-2-2V15M8 13v-1.73L7.73 11H6v2h2m0 4v-2H6v2h2M6 3v1.18L4.82 3H6Z" transform="matrix(1.5 0 0 1.5 432 216)" id="mdi-filmstrip-off" fill="#555"/><path d="M1 4.27 2.28 3 21 21.72 19.73 23 16 19.27V21H8v-2H6v2H4V7.27l-3-3M18 9V7h-2v2h2m0 4v-2h-2v2h2m0 2h-1.18l-10-10H8V3h8v2h2V3h2v15.18l-2-2V15M8 13v-1.73L7.73 11H6v2h2m0 4v-2H6v2h2M6 3v1.18L4.82 3H6Z" transform="matrix(1.5 0 0 1.5 468 216)" id="mdi-filmstrip-off" fill="#fff"/><path d="M14 12v7.88c.04.3-.06.62-.29.83a.996.996 0 0 1-1.41 0l-2.01-2.01a.989.989 0 0 1-.29-.83V12h-.03L4.21 4.62a1 1 0 0 1 .17-1.4c.19-.14.4-.22.62-.22h14c.22 0 .43.08.62.22a1 1 0 0 1 .17 1.4L14.03 12H14Z" transform="matrix(1.5 0 0 1.5 504 216)" id="mdi-filter" fill="#555"/><path d="M14 12v7.88c.04.3-.06.62-.29.83a.996.996 0 0 1-1.41 0l-2.01-2.01a.989.989 0 0 1-.29-.83V12h-.03L4.21 4.62a1 1 0 0 1 .17-1.4c.19-.14.4-.22.62-.22h14c.22 0 .43.08.62.22a1 1 0 0 1 .17 1.4L14.03 12H14Z" transform="matrix(1.5 0 0 1.5 540 216)" id="mdi-filter" fill="#fff"/><path d="M12 12v7.88c.04.3-.06.62-.29.83a.996.996 0 0 1-1.41 0L8.29 18.7a.989.989 0 0 1-.29-.83V12h-.03L2.21 4.62a1 1 0 0 1 .17-1.4c.19-.14.4-.22.62-.22h14c.22 0 .43.08.62.22a1 1 0 0 1 .17 1.4L12.03 12H12m5.75 9L15 18l1.16-1.16 1.59 1.59 3.59-3.59 1.16 1.41L17.75 21" transform="matrix(1.5 0 0 1.5 576 216)" id="mdi-filter-check" fill="#555"/><path d="M12 12v7.88c.04.3-.06.62-.29.83a.996.996 0 0 1-1.41 0L8.29 18.7a.989.989 0 0 1-.29-.83V12h-.03L2.21 4.62a1 1 0 0 1 .17-1.4c.19-.14.4-.22.62-.22h14c.22 0 .43.08.62.22a1 1 0 0 1 .17 1.4L12.03 12H12m5.75 9L15 18l1.16-1.16 1.59 1.59 3.59-3.59 1.16 1.41L17.75 21" transform="matrix(1.5 0 0 1.5 612 216)" id="mdi-filter-check" fill="#fff"/><path d="M13 19.88c.04.3-.06.62-.28.83-.4.39-1.03.39-1.42 0L7.29 16.7a.989.989 0 0 1-.29-.83v-5.12L2.21 4.62a1 1 0 0 1 .17-1.4c.19-.14.4-.22.62-.22h14c.22 0 .43.08.62.22a1 1 0 0 1 .17 1.4L13 10.75v9.13M5.04 5 9 10.07v5.51l2 2v-7.53L14.96 5H5.04m12.71 16L15 18l1.16-1.16 1.59 1.59 3.59-3.59 1.16 1.41L17.75 21" transform="matrix(1.5 0 0 1.5 648 216)" id="mdi-filter-check-outline" fill="#555"/><path d="M13 19.88c.04.3-.06.62-.28.83-.4.39-1.03.39-1.42 0L7.29 16.7a.989.989 0 0 1-.29-.83v-5.12L2.21 4.62a1 1 0 0 1 .17-1.4c.19-.14.4-.22.62-.22h14c.22 0 .43.08.62.22a1 1 0 0 1 .17 1.4L13 10.75v9.13M5.04 5 9 10.07v5.51l2 2v-7.53L14.96 5H5.04m12.71 16L15 18l1.16-1.16 1.59 1.59 3.59-3.59 1.16 1.41L17.75 21" transform="matrix(1.5 0 0 1.5 684 216)" id="mdi-filter-check-outline" fill="#fff"/><path d="m11 11 5.76-7.38a1 1 0 0 0-.17-1.4A1 1 0 0 0 16 2H2a1 1 0 0 0-.62.22 1 1 0 0 0-.17 1.4L7 11v5.87a1 1 0 0 0 .29.83l2 2a1 1 0 0 0 1.41 0 1 1 0 0 0 .3-.83V11m2 5 5 5 5-5Z" transform="matrix(1.5 0 0 1.5 0 252)" id="mdi-filter-menu" fill="#555"/><path d="m11 11 5.76-7.38a1 1 0 0 0-.17-1.4A1 1 0 0 0 16 2H2a1 1 0 0 0-.62.22 1 1 0 0 0-.17 1.4L7 11v5.87a1 1 0 0 0 .29.83l2 2a1 1 0 0 0 1.41 0 1 1 0 0 0 .3-.83V11m2 5 5 5 5-5Z" transform="matrix(1.5 0 0 1.5 36 252)" id="mdi-filter-menu" fill="#fff"/><path d="M12 18.88a1 1 0 0 1-.29.83 1 1 0 0 1-1.41 0l-4-4a1 1 0 0 1-.3-.84V9.75L1.21 3.62a1 1 0 0 1 .17-1.4A1 1 0 0 1 2 2h14a1 1 0 0 1 .62.22 1 1 0 0 1 .17 1.4L12 9.75v9.13M4 4l4 5.06v5.52l2 2V9.05L14 4m-1 12 5 5 5-5Z" transform="matrix(1.5 0 0 1.5 72 252)" id="mdi-filter-menu-outline" fill="#555"/><path d="M12 18.88a1 1 0 0 1-.29.83 1 1 0 0 1-1.41 0l-4-4a1 1 0 0 1-.3-.84V9.75L1.21 3.62a1 1 0 0 1 .17-1.4A1 1 0 0 1 2 2h14a1 1 0 0 1 .62.22 1 1 0 0 1 .17 1.4L12 9.75v9.13M4 4l4 5.06v5.52l2 2V9.05L14 4m-1 12 5 5 5-5Z" transform="matrix(1.5 0 0 1.5 108 252)" id="mdi-filter-menu-outline" fill="#fff"/><path d="M12 12v7.88c.04.3-.06.62-.29.83a.996.996 0 0 1-1.41 0L8.29 18.7a.999.999 0 0 1-.29-.84V12h-.03L2.21 4.62a1 1 0 0 1 .17-1.4c.19-.14.4-.22.62-.22h14c.22 0 .43.08.62.22a1 1 0 0 1 .17 1.4L12.03 12H12m3 5h8v2h-8v-2Z" transform="matrix(1.5 0 0 1.5 144 252)" id="mdi-filter-minus" fill="#555"/><path d="M12 12v7.88c.04.3-.06.62-.29.83a.996.996 0 0 1-1.41 0L8.29 18.7a.999.999 0 0 1-.29-.84V12h-.03L2.21 4.62a1 1 0 0 1 .17-1.4c.19-.14.4-.22.62-.22h14c.22 0 .43.08.62.22a1 1 0 0 1 .17 1.4L12.03 12H12m3 5h8v2h-8v-2Z" transform="matrix(1.5 0 0 1.5 180 252)" id="mdi-filter-minus" fill="#fff"/><path d="M15 17h8v2h-8v-2m-2 2.88c.04.3-.06.62-.28.83-.4.39-1.03.39-1.42 0L7.29 16.7a.989.989 0 0 1-.29-.83v-5.12L2.21 4.62a1 1 0 0 1 .17-1.4c.19-.14.4-.22.62-.22h14c.22 0 .43.08.62.22a1 1 0 0 1 .17 1.4L13 10.75v9.13M5.04 5 9 10.07v5.51l2 2v-7.53L14.96 5H5.04Z" transform="matrix(1.5 0 0 1.5 216 252)" id="mdi-filter-minus-outline" fill="#555"/><path d="M15 17h8v2h-8v-2m-2 2.88c.04.3-.06.62-.28.83-.4.39-1.03.39-1.42 0L7.29 16.7a.989.989 0 0 1-.29-.83v-5.12L2.21 4.62a1 1 0 0 1 .17-1.4c.19-.14.4-.22.62-.22h14c.22 0 .43.08.62.22a1 1 0 0 1 .17 1.4L13 10.75v9.13M5.04 5 9 10.07v5.51l2 2v-7.53L14.96 5H5.04Z" transform="matrix(1.5 0 0 1.5 252 252)" id="mdi-filter-minus-outline" fill="#fff"/><path d="M3.46 5c-.21 0-.42.08-.59.21-.44.34-.52.97-.18 1.4v.01L8 13.42v5.99l2.29 2.3c.39.39 1.03.39 1.42 0 .39-.39.39-1.03 0-1.42L10 18.59v-5.86L4.27 5.39A1.01 1.01 0 0 0 3.46 5M16 12v7.88c.04.3-.06.62-.29.83a.996.996 0 0 1-1.41 0l-2.01-2.01a.989.989 0 0 1-.29-.83V12h-.03L6.21 4.62a1 1 0 0 1 .17-1.4c.19-.14.4-.22.62-.22h14c.22 0 .43.08.62.22a1 1 0 0 1 .17 1.4L16.03 12H16Z" transform="matrix(1.5 0 0 1.5 288 252)" id="mdi-filter-multiple" fill="#555"/><path d="M3.46 5c-.21 0-.42.08-.59.21-.44.34-.52.97-.18 1.4v.01L8 13.42v5.99l2.29 2.3c.39.39 1.03.39 1.42 0 .39-.39.39-1.03 0-1.42L10 18.59v-5.86L4.27 5.39A1.01 1.01 0 0 0 3.46 5M16 12v7.88c.04.3-.06.62-.29.83a.996.996 0 0 1-1.41 0l-2.01-2.01a.989.989 0 0 1-.29-.83V12h-.03L6.21 4.62a1 1 0 0 1 .17-1.4c.19-.14.4-.22.62-.22h14c.22 0 .43.08.62.22a1 1 0 0 1 .17 1.4L16.03 12H16Z" transform="matrix(1.5 0 0 1.5 324 252)" id="mdi-filter-multiple" fill="#fff"/><path d="M3.47 5c-.22 0-.43.08-.6.21-.44.34-.52.97-.18 1.4v.01L7 12.14v5.91l3.64 3.66c.36.39 1.02.39 1.41 0 .39-.39.39-1.02.01-1.41L9 17.22v-5.77L4.27 5.39c-.19-.25-.49-.39-.8-.39m18.15-1.78c-.19-.14-.4-.22-.62-.22H7c-.22 0-.43.08-.62.22a1 1 0 0 0-.17 1.4L11 10.75v5.12c-.04.29.06.6.29.83l4.01 4.01c.39.39 1.02.39 1.41 0 .23-.21.33-.53.29-.83v-9.13l4.79-6.13a1 1 0 0 0-.17-1.4M15 10.05v7.53l-2-2v-5.52L9.04 5h9.92L15 10.05Z" transform="matrix(1.5 0 0 1.5 360 252)" id="mdi-filter-multiple-outline" fill="#555"/><path d="M3.47 5c-.22 0-.43.08-.6.21-.44.34-.52.97-.18 1.4v.01L7 12.14v5.91l3.64 3.66c.36.39 1.02.39 1.41 0 .39-.39.39-1.02.01-1.41L9 17.22v-5.77L4.27 5.39c-.19-.25-.49-.39-.8-.39m18.15-1.78c-.19-.14-.4-.22-.62-.22H7c-.22 0-.43.08-.62.22a1 1 0 0 0-.17 1.4L11 10.75v5.12c-.04.29.06.6.29.83l4.01 4.01c.39.39 1.02.39 1.41 0 .23-.21.33-.53.29-.83v-9.13l4.79-6.13a1 1 0 0 0-.17-1.4M15 10.05v7.53l-2-2v-5.52L9.04 5h9.92L15 10.05Z" transform="matrix(1.5 0 0 1.5 396 252)" id="mdi-filter-multiple-outline" fill="#fff"/><path d="M2.39 1.73 1.11 3l8.39 8.37.47.63H10v5.87c-.04.29.06.6.29.83l2.01 2.01c.39.39 1.02.39 1.41 0 .23-.21.33-.53.29-.83v-3.99l6.84 6.84 1.27-1.27L14 13.35 9.41 8.76 4.15 3.5 2.39 1.73M6.21 3l8.33 8.34 5.25-6.72a1 1 0 0 0-.17-1.4c-.19-.14-.4-.22-.62-.22H6.21Z" transform="matrix(1.5 0 0 1.5 432 252)" id="mdi-filter-off" fill="#555"/><path d="M2.39 1.73 1.11 3l8.39 8.37.47.63H10v5.87c-.04.29.06.6.29.83l2.01 2.01c.39.39 1.02.39 1.41 0 .23-.21.33-.53.29-.83v-3.99l6.84 6.84 1.27-1.27L14 13.35 9.41 8.76 4.15 3.5 2.39 1.73M6.21 3l8.33 8.34 5.25-6.72a1 1 0 0 0-.17-1.4c-.19-.14-.4-.22-.62-.22H6.21Z" transform="matrix(1.5 0 0 1.5 468 252)" id="mdi-filter-off" fill="#fff"/><path d="M2.39 1.73 1.11 3 9 10.89v4.98c-.04.29.06.6.29.83l4.01 4.01c.39.39 1.02.39 1.41 0 .23-.21.33-.53.29-.83v-2.99l5.84 5.84 1.27-1.27L15 14.35v-.01l-2-1.99-2-2.01L4.15 3.5 2.39 1.73M6.21 3 8.2 5h8.76l-3.85 4.91L15 11.8v-1.05l4.79-6.13a1 1 0 0 0-.17-1.4c-.19-.14-.4-.22-.62-.22H6.21M11 12.89l2 2v2.69l-2-2v-2.69Z" transform="matrix(1.5 0 0 1.5 504 252)" id="mdi-filter-off-outline" fill="#555"/><path d="M2.39 1.73 1.11 3 9 10.89v4.98c-.04.29.06.6.29.83l4.01 4.01c.39.39 1.02.39 1.41 0 .23-.21.33-.53.29-.83v-2.99l5.84 5.84 1.27-1.27L15 14.35v-.01l-2-1.99-2-2.01L4.15 3.5 2.39 1.73M6.21 3 8.2 5h8.76l-3.85 4.91L15 11.8v-1.05l4.79-6.13a1 1 0 0 0-.17-1.4c-.19-.14-.4-.22-.62-.22H6.21M11 12.89l2 2v2.69l-2-2v-2.69Z" transform="matrix(1.5 0 0 1.5 540 252)" id="mdi-filter-off-outline" fill="#fff"/><path d="M15 19.88c.04.3-.06.62-.29.83a.996.996 0 0 1-1.41 0L9.29 16.7a.989.989 0 0 1-.29-.83v-5.12L4.21 4.62a1 1 0 0 1 .17-1.4c.19-.14.4-.22.62-.22h14c.22 0 .43.08.62.22a1 1 0 0 1 .17 1.4L15 10.75v9.13M7.04 5 11 10.06v5.52l2 2v-7.53L16.96 5H7.04Z" transform="matrix(1.5 0 0 1.5 576 252)" id="mdi-filter-outline" fill="#555"/><path d="M15 19.88c.04.3-.06.62-.29.83a.996.996 0 0 1-1.41 0L9.29 16.7a.989.989 0 0 1-.29-.83v-5.12L4.21 4.62a1 1 0 0 1 .17-1.4c.19-.14.4-.22.62-.22h14c.22 0 .43.08.62.22a1 1 0 0 1 .17 1.4L15 10.75v9.13M7.04 5 11 10.06v5.52l2 2v-7.53L16.96 5H7.04Z" transform="matrix(1.5 0 0 1.5 612 252)" id="mdi-filter-outline" fill="#fff"/><path d="M12 12v7.88c.04.3-.06.62-.29.83a.996.996 0 0 1-1.41 0L8.29 18.7a.989.989 0 0 1-.29-.83V12h-.03L2.21 4.62a1 1 0 0 1 .17-1.4c.19-.14.4-.22.62-.22h14c.22 0 .43.08.62.22a1 1 0 0 1 .17 1.4L12.03 12H12m3 5h3v-3h2v3h3v2h-3v3h-2v-3h-3v-2Z" transform="matrix(1.5 0 0 1.5 648 252)" id="mdi-filter-plus" fill="#555"/><path d="M12 12v7.88c.04.3-.06.62-.29.83a.996.996 0 0 1-1.41 0L8.29 18.7a.989.989 0 0 1-.29-.83V12h-.03L2.21 4.62a1 1 0 0 1 .17-1.4c.19-.14.4-.22.62-.22h14c.22 0 .43.08.62.22a1 1 0 0 1 .17 1.4L12.03 12H12m3 5h3v-3h2v3h3v2h-3v3h-2v-3h-3v-2Z" transform="matrix(1.5 0 0 1.5 684 252)" id="mdi-filter-plus" fill="#fff"/><path d="M15 17h3v-3h2v3h3v2h-3v3h-2v-3h-3v-2m-2 2.88c.04.3-.06.62-.28.83-.4.39-1.03.39-1.42 0L7.29 16.7a.989.989 0 0 1-.29-.83v-5.12L2.21 4.62a1 1 0 0 1 .17-1.4c.19-.14.4-.22.62-.22h14c.22 0 .43.08.62.22a1 1 0 0 1 .17 1.4L13 10.75v9.13M5.04 5 9 10.07v5.51l2 2v-7.53L14.96 5H5.04Z" transform="matrix(1.5 0 0 1.5 0 288)" id="mdi-filter-plus-outline" fill="#555"/><path d="M15 17h3v-3h2v3h3v2h-3v3h-2v-3h-3v-2m-2 2.88c.04.3-.06.62-.28.83-.4.39-1.03.39-1.42 0L7.29 16.7a.989.989 0 0 1-.29-.83v-5.12L2.21 4.62a1 1 0 0 1 .17-1.4c.19-.14.4-.22.62-.22h14c.22 0 .43.08.62.22a1 1 0 0 1 .17 1.4L13 10.75v9.13M5.04 5 9 10.07v5.51l2 2v-7.53L14.96 5H5.04Z" transform="matrix(1.5 0 0 1.5 36 288)" id="mdi-filter-plus-outline" fill="#fff"/><path d="M14.76 20.83 17.6 18l-2.84-2.83 1.41-1.41L19 16.57l2.83-2.81 1.41 1.41L20.43 18l2.81 2.83-1.41 1.41L19 19.4l-2.83 2.84-1.41-1.41M12 12v7.88c.04.3-.06.62-.29.83a.996.996 0 0 1-1.41 0L8.29 18.7a.989.989 0 0 1-.29-.83V12h-.03L2.21 4.62a1 1 0 0 1 .17-1.4c.19-.14.4-.22.62-.22h14c.22 0 .43.08.62.22a1 1 0 0 1 .17 1.4L12.03 12H12Z" transform="matrix(1.5 0 0 1.5 72 288)" id="mdi-filter-remove" fill="#555"/><path d="M14.76 20.83 17.6 18l-2.84-2.83 1.41-1.41L19 16.57l2.83-2.81 1.41 1.41L20.43 18l2.81 2.83-1.41 1.41L19 19.4l-2.83 2.84-1.41-1.41M12 12v7.88c.04.3-.06.62-.29.83a.996.996 0 0 1-1.41 0L8.29 18.7a.989.989 0 0 1-.29-.83V12h-.03L2.21 4.62a1 1 0 0 1 .17-1.4c.19-.14.4-.22.62-.22h14c.22 0 .43.08.62.22a1 1 0 0 1 .17 1.4L12.03 12H12Z" transform="matrix(1.5 0 0 1.5 108 288)" id="mdi-filter-remove" fill="#fff"/><path d="M14.73 20.83 17.58 18l-2.85-2.83 1.42-1.41L19 16.57l2.8-2.81 1.42 1.41L20.41 18l2.81 2.83-1.42 1.41L19 19.4l-2.85 2.84-1.42-1.41M13 19.88c.04.3-.06.62-.29.83a.996.996 0 0 1-1.41 0L7.29 16.7a.989.989 0 0 1-.29-.83v-5.12L2.21 4.62a1 1 0 0 1 .17-1.4c.19-.14.4-.22.62-.22h14c.22 0 .43.08.62.22a1 1 0 0 1 .17 1.4L13 10.75v9.13M5.04 5 9 10.06v5.52l2 2v-7.53L14.96 5H5.04Z" transform="matrix(1.5 0 0 1.5 144 288)" id="mdi-filter-remove-outline" fill="#555"/><path d="M14.73 20.83 17.58 18l-2.85-2.83 1.42-1.41L19 16.57l2.8-2.81 1.42 1.41L20.41 18l2.81 2.83-1.42 1.41L19 19.4l-2.85 2.84-1.42-1.41M13 19.88c.04.3-.06.62-.29.83a.996.996 0 0 1-1.41 0L7.29 16.7a.989.989 0 0 1-.29-.83v-5.12L2.21 4.62a1 1 0 0 1 .17-1.4c.19-.14.4-.22.62-.22h14c.22 0 .43.08.62.22a1 1 0 0 1 .17 1.4L13 10.75v9.13M5.04 5 9 10.06v5.52l2 2v-7.53L14.96 5H5.04Z" transform="matrix(1.5 0 0 1.5 180 288)" id="mdi-filter-remove-outline" fill="#fff"/><path d="M6 13h12v-2H6M3 6v2h18V6M10 18h4v-2h-4v2Z" transform="matrix(1.5 0 0 1.5 216 288)" id="mdi-filter-variant" fill="#555"/><path d="M6 13h12v-2H6M3 6v2h18V6M10 18h4v-2h-4v2Z" transform="matrix(1.5 0 0 1.5 252 288)" id="mdi-filter-variant" fill="#fff"/><path d="M21 8H3V6h18v2m-7.19 8H10v2h3.09c.12-.72.37-1.39.72-2M18 11H6v2h12v-2m5 7h-8v2h8v-2Z" transform="matrix(1.5 0 0 1.5 288 288)" id="mdi-filter-variant-minus" fill="#555"/><path d="M21 8H3V6h18v2m-7.19 8H10v2h3.09c.12-.72.37-1.39.72-2M18 11H6v2h12v-2m5 7h-8v2h8v-2Z" transform="matrix(1.5 0 0 1.5 324 288)" id="mdi-filter-variant-minus" fill="#fff"/><path d="M21 8H3V6h18v2m-7.19 8H10v2h3.09c.12-.72.37-1.39.72-2M18 11H6v2h12v-2m0 4v3h-3v2h3v3h2v-3h3v-2h-3v-3h-2Z" transform="matrix(1.5 0 0 1.5 360 288)" id="mdi-filter-variant-plus" fill="#555"/><path d="M21 8H3V6h18v2m-7.19 8H10v2h3.09c.12-.72.37-1.39.72-2M18 11H6v2h12v-2m0 4v3h-3v2h3v3h2v-3h3v-2h-3v-3h-2Z" transform="matrix(1.5 0 0 1.5 396 288)" id="mdi-filter-variant-plus" fill="#fff"/><path d="M21 8H3V6h18v2m-7.19 8H10v2h3.09c.12-.72.37-1.39.72-2M18 11H6v2h12v-2m3.12 4.46L19 17.59l-2.12-2.13-1.41 1.42L17.59 19l-2.12 2.12 1.41 1.42L19 20.41l2.12 2.13 1.42-1.42L20.41 19l2.13-2.12-1.42-1.42Z" transform="matrix(1.5 0 0 1.5 432 288)" id="mdi-filter-variant-remove" fill="#555"/><path d="M21 8H3V6h18v2m-7.19 8H10v2h3.09c.12-.72.37-1.39.72-2M18 11H6v2h12v-2m3.12 4.46L19 17.59l-2.12-2.13-1.41 1.42L17.59 19l-2.12 2.12 1.41 1.42L19 20.41l2.12 2.13 1.42-1.42L20.41 19l2.13-2.12-1.42-1.42Z" transform="matrix(1.5 0 0 1.5 468 288)" id="mdi-filter-variant-remove" fill="#fff"/><path d="m6 16.5-3 2.94V11h3m5 3.66-1.57-1.34L8 14.64V7h3m5 6-3 3V3h3m2.81 9.81L17 11h5v5l-1.79-1.79L13 21.36l-3.47-3.02L5.75 22H3l6.47-6.34L13 18.64" transform="matrix(1.5 0 0 1.5 504 288)" id="mdi-finance" fill="#555"/><path d="m6 16.5-3 2.94V11h3m5 3.66-1.57-1.34L8 14.64V7h3m5 6-3 3V3h3m2.81 9.81L17 11h5v5l-1.79-1.79L13 21.36l-3.47-3.02L5.75 22H3l6.47-6.34L13 18.64" transform="matrix(1.5 0 0 1.5 540 288)" id="mdi-finance" fill="#fff"/><path d="M11 6c1.38 0 2.63.56 3.54 1.46L12 10h6V4l-2.05 2.05A6.976 6.976 0 0 0 11 4c-3.53 0-6.43 2.61-6.92 6H6.1A5 5 0 0 1 11 6m5.64 9.14A6.89 6.89 0 0 0 17.92 12H15.9a5 5 0 0 1-4.9 4c-1.38 0-2.63-.56-3.54-1.46L10 12H4v6l2.05-2.05A6.976 6.976 0 0 0 11 18c1.55 0 3-.5 4.14-1.36L20 21.5l1.5-1.5-4.86-4.86Z" transform="matrix(1.5 0 0 1.5 576 288)" id="mdi-find-replace" fill="#555"/><path d="M11 6c1.38 0 2.63.56 3.54 1.46L12 10h6V4l-2.05 2.05A6.976 6.976 0 0 0 11 4c-3.53 0-6.43 2.61-6.92 6H6.1A5 5 0 0 1 11 6m5.64 9.14A6.89 6.89 0 0 0 17.92 12H15.9a5 5 0 0 1-4.9 4c-1.38 0-2.63-.56-3.54-1.46L10 12H4v6l2.05-2.05A6.976 6.976 0 0 0 11 18c1.55 0 3-.5 4.14-1.36L20 21.5l1.5-1.5-4.86-4.86Z" transform="matrix(1.5 0 0 1.5 612 288)" id="mdi-find-replace" fill="#fff"/><path d="M17.81 4.47c-.08 0-.16-.02-.23-.06C15.66 3.42 14 3 12 3c-1.97 0-3.85.47-5.56 1.41-.24.13-.54.04-.68-.2a.506.506 0 0 1 .2-.68C7.82 2.5 9.86 2 12 2s4 .47 6.04 1.5c.25.15.34.45.21.69a.48.48 0 0 1-.44.28M3.5 9.72c-.1 0-.2-.03-.29-.09a.517.517 0 0 1-.12-.7c.99-1.4 2.25-2.5 3.75-3.27C10 4.04 14 4.03 17.15 5.65c1.5.77 2.76 1.85 3.75 3.25.16.22.1.54-.12.7-.23.16-.54.11-.7-.1a9.257 9.257 0 0 0-3.39-2.96c-2.87-1.47-6.54-1.47-9.4.01-1.36.7-2.5 1.7-3.4 2.95-.08.15-.23.22-.39.22m6.25 12.07c-.13 0-.25-.05-.35-.15-.87-.87-1.34-1.43-2.01-2.64-.69-1.23-1.05-2.73-1.05-4.34 0-2.97 2.54-5.39 5.66-5.39s5.66 2.42 5.66 5.39a.5.5 0 0 1-.5.5.5.5 0 0 1-.5-.5c0-2.42-2.09-4.39-4.66-4.39-2.57 0-4.66 1.97-4.66 4.39 0 1.44.32 2.77.93 3.84.64 1.16 1.08 1.65 1.85 2.43.19.2.19.51 0 .71-.12.1-.24.15-.37.15m7.17-1.85c-1.19 0-2.24-.3-3.1-.89-1.49-1.01-2.38-2.65-2.38-4.39a.5.5 0 0 1 .5-.5.5.5 0 0 1 .5.5c0 1.41.72 2.74 1.94 3.56.71.48 1.54.71 2.54.71.24 0 .64-.03 1.04-.1.27-.05.54.13.58.41.05.26-.13.53-.41.58-.57.11-1.07.12-1.21.12M14.91 22h-.13c-1.59-.46-2.63-1.05-3.72-2.12a7.28 7.28 0 0 1-2.17-5.22c0-1.62 1.38-2.94 3.08-2.94 1.7 0 3.08 1.32 3.08 2.94 0 1.07.95 1.94 2.08 1.94 1.15 0 2.08-.87 2.08-1.94 0-3.77-3.25-6.83-7.25-6.83-2.84 0-5.46 1.58-6.61 4.03-.39.81-.59 1.76-.59 2.8 0 .78.07 2.01.67 3.61.1.26-.03.55-.29.64a.504.504 0 0 1-.64-.29c-.5-1.31-.73-2.62-.73-3.96 0-1.2.23-2.29.68-3.24 1.33-2.79 4.28-4.6 7.51-4.6 4.54 0 8.25 3.51 8.25 7.83 0 1.62-1.38 2.94-3.08 2.94-1.7 0-3.08-1.32-3.08-2.94 0-1.07-.93-1.94-2.08-1.94s-2.08.87-2.08 1.94c0 1.71.66 3.31 1.87 4.51.95.94 1.86 1.46 3.27 1.84.27.08.42.36.35.62-.05.23-.26.38-.47.38Z" transform="matrix(1.5 0 0 1.5 648 288)" id="mdi-fingerprint" fill="#555"/><path d="M17.81 4.47c-.08 0-.16-.02-.23-.06C15.66 3.42 14 3 12 3c-1.97 0-3.85.47-5.56 1.41-.24.13-.54.04-.68-.2a.506.506 0 0 1 .2-.68C7.82 2.5 9.86 2 12 2s4 .47 6.04 1.5c.25.15.34.45.21.69a.48.48 0 0 1-.44.28M3.5 9.72c-.1 0-.2-.03-.29-.09a.517.517 0 0 1-.12-.7c.99-1.4 2.25-2.5 3.75-3.27C10 4.04 14 4.03 17.15 5.65c1.5.77 2.76 1.85 3.75 3.25.16.22.1.54-.12.7-.23.16-.54.11-.7-.1a9.257 9.257 0 0 0-3.39-2.96c-2.87-1.47-6.54-1.47-9.4.01-1.36.7-2.5 1.7-3.4 2.95-.08.15-.23.22-.39.22m6.25 12.07c-.13 0-.25-.05-.35-.15-.87-.87-1.34-1.43-2.01-2.64-.69-1.23-1.05-2.73-1.05-4.34 0-2.97 2.54-5.39 5.66-5.39s5.66 2.42 5.66 5.39a.5.5 0 0 1-.5.5.5.5 0 0 1-.5-.5c0-2.42-2.09-4.39-4.66-4.39-2.57 0-4.66 1.97-4.66 4.39 0 1.44.32 2.77.93 3.84.64 1.16 1.08 1.65 1.85 2.43.19.2.19.51 0 .71-.12.1-.24.15-.37.15m7.17-1.85c-1.19 0-2.24-.3-3.1-.89-1.49-1.01-2.38-2.65-2.38-4.39a.5.5 0 0 1 .5-.5.5.5 0 0 1 .5.5c0 1.41.72 2.74 1.94 3.56.71.48 1.54.71 2.54.71.24 0 .64-.03 1.04-.1.27-.05.54.13.58.41.05.26-.13.53-.41.58-.57.11-1.07.12-1.21.12M14.91 22h-.13c-1.59-.46-2.63-1.05-3.72-2.12a7.28 7.28 0 0 1-2.17-5.22c0-1.62 1.38-2.94 3.08-2.94 1.7 0 3.08 1.32 3.08 2.94 0 1.07.95 1.94 2.08 1.94 1.15 0 2.08-.87 2.08-1.94 0-3.77-3.25-6.83-7.25-6.83-2.84 0-5.46 1.58-6.61 4.03-.39.81-.59 1.76-.59 2.8 0 .78.07 2.01.67 3.61.1.26-.03.55-.29.64a.504.504 0 0 1-.64-.29c-.5-1.31-.73-2.62-.73-3.96 0-1.2.23-2.29.68-3.24 1.33-2.79 4.28-4.6 7.51-4.6 4.54 0 8.25 3.51 8.25 7.83 0 1.62-1.38 2.94-3.08 2.94-1.7 0-3.08-1.32-3.08-2.94 0-1.07-.93-1.94-2.08-1.94s-2.08.87-2.08 1.94c0 1.71.66 3.31 1.87 4.51.95.94 1.86 1.46 3.27 1.84.27.08.42.36.35.62-.05.23-.26.38-.47.38Z" transform="matrix(1.5 0 0 1.5 684 288)" id="mdi-fingerprint" fill="#fff"/><path d="M1.5 4.77 2.78 3.5 20.5 21.22l-1.27 1.28-2.56-2.56c-1.09-.04-2.05-.34-2.85-.89-1.48-1-2.36-2.62-2.38-4.34l-1.17-1.18c-.24.32-.38.7-.38 1.12 0 1.71.66 3.31 1.87 4.51.95.94 1.86 1.46 3.27 1.84.27.08.42.36.35.62-.05.23-.26.38-.47.38h-.13c-1.59-.46-2.63-1.05-3.72-2.12a7.28 7.28 0 0 1-2.17-5.22c0-.69.25-1.33.67-1.83L8.5 11.77c-.72.77-1.16 1.78-1.16 2.89 0 1.44.32 2.77.93 3.84.64 1.16 1.08 1.65 1.85 2.43.19.2.19.51 0 .71-.12.1-.24.15-.37.15s-.25-.05-.35-.15c-.87-.87-1.34-1.43-2.01-2.64-.69-1.23-1.05-2.73-1.05-4.34 0-1.38.55-2.66 1.45-3.6L6.7 9.97c-.55.53-1.01 1.18-1.35 1.89-.39.81-.59 1.76-.59 2.8 0 .78.07 2.01.67 3.61.1.26-.03.55-.29.64a.504.504 0 0 1-.64-.29c-.5-1.31-.73-2.62-.73-3.96 0-1.2.23-2.29.68-3.24.39-.81.91-1.54 1.55-2.16L4.97 8.24c-.39.39-.75.81-1.08 1.26-.08.15-.23.22-.39.22l-.29-.09a.517.517 0 0 1-.12-.7c.36-.5.75-.97 1.18-1.4L1.5 4.77m16.31-.3-.23-.06C15.66 3.42 14 3 12 3c-1.97 0-3.85.47-5.56 1.41l-.15.05-.58-.57c.02-.15.11-.28.25-.36C7.82 2.5 9.86 2 12 2s4 .47 6.04 1.5c.25.15.34.45.21.69a.48.48 0 0 1-.44.28m-.66 1.18c1.5.77 2.76 1.85 3.75 3.25.16.22.1.54-.12.7-.23.16-.54.11-.7-.1a9.257 9.257 0 0 0-3.39-2.96c-2.63-1.35-5.93-1.46-8.66-.33l-.76-.76c3.07-1.41 6.87-1.35 9.88.2M12 9.27c3.12 0 5.66 2.42 5.66 5.39a.5.5 0 0 1-.5.5l-.23-.05-.21-.22-.06-.23c0-2.39-2.04-4.34-4.57-4.39l-.94-.94.85-.06m2.38 8.95c.33.23.69.4 1.09.51l-2.84-2.83c.29.92.9 1.75 1.75 2.32m4.83-3.56c0-3.77-3.25-6.83-7.25-6.83-.7 0-1.38.1-2.03.28l-.81-.81c.88-.3 1.85-.48 2.84-.48 4.54 0 8.25 3.51 8.25 7.83 0 1-.52 1.88-1.32 2.41l-.72-.72c.62-.34 1.04-.96 1.04-1.68Z" transform="matrix(1.5 0 0 1.5 0 324)" id="mdi-fingerprint-off" fill="#555"/><path d="M1.5 4.77 2.78 3.5 20.5 21.22l-1.27 1.28-2.56-2.56c-1.09-.04-2.05-.34-2.85-.89-1.48-1-2.36-2.62-2.38-4.34l-1.17-1.18c-.24.32-.38.7-.38 1.12 0 1.71.66 3.31 1.87 4.51.95.94 1.86 1.46 3.27 1.84.27.08.42.36.35.62-.05.23-.26.38-.47.38h-.13c-1.59-.46-2.63-1.05-3.72-2.12a7.28 7.28 0 0 1-2.17-5.22c0-.69.25-1.33.67-1.83L8.5 11.77c-.72.77-1.16 1.78-1.16 2.89 0 1.44.32 2.77.93 3.84.64 1.16 1.08 1.65 1.85 2.43.19.2.19.51 0 .71-.12.1-.24.15-.37.15s-.25-.05-.35-.15c-.87-.87-1.34-1.43-2.01-2.64-.69-1.23-1.05-2.73-1.05-4.34 0-1.38.55-2.66 1.45-3.6L6.7 9.97c-.55.53-1.01 1.18-1.35 1.89-.39.81-.59 1.76-.59 2.8 0 .78.07 2.01.67 3.61.1.26-.03.55-.29.64a.504.504 0 0 1-.64-.29c-.5-1.31-.73-2.62-.73-3.96 0-1.2.23-2.29.68-3.24.39-.81.91-1.54 1.55-2.16L4.97 8.24c-.39.39-.75.81-1.08 1.26-.08.15-.23.22-.39.22l-.29-.09a.517.517 0 0 1-.12-.7c.36-.5.75-.97 1.18-1.4L1.5 4.77m16.31-.3-.23-.06C15.66 3.42 14 3 12 3c-1.97 0-3.85.47-5.56 1.41l-.15.05-.58-.57c.02-.15.11-.28.25-.36C7.82 2.5 9.86 2 12 2s4 .47 6.04 1.5c.25.15.34.45.21.69a.48.48 0 0 1-.44.28m-.66 1.18c1.5.77 2.76 1.85 3.75 3.25.16.22.1.54-.12.7-.23.16-.54.11-.7-.1a9.257 9.257 0 0 0-3.39-2.96c-2.63-1.35-5.93-1.46-8.66-.33l-.76-.76c3.07-1.41 6.87-1.35 9.88.2M12 9.27c3.12 0 5.66 2.42 5.66 5.39a.5.5 0 0 1-.5.5l-.23-.05-.21-.22-.06-.23c0-2.39-2.04-4.34-4.57-4.39l-.94-.94.85-.06m2.38 8.95c.33.23.69.4 1.09.51l-2.84-2.83c.29.92.9 1.75 1.75 2.32m4.83-3.56c0-3.77-3.25-6.83-7.25-6.83-.7 0-1.38.1-2.03.28l-.81-.81c.88-.3 1.85-.48 2.84-.48 4.54 0 8.25 3.51 8.25 7.83 0 1-.52 1.88-1.32 2.41l-.72-.72c.62-.34 1.04-.96 1.04-1.68Z" transform="matrix(1.5 0 0 1.5 36 324)" id="mdi-fingerprint-off" fill="#fff"/><path d="M17.66 11.2c-.23-.3-.51-.56-.77-.82-.67-.6-1.43-1.03-2.07-1.66C13.33 7.26 13 4.85 13.95 3c-.95.23-1.78.75-2.49 1.32-2.59 2.08-3.61 5.75-2.39 8.9.04.1.08.2.08.33 0 .22-.15.42-.35.5-.23.1-.47.04-.66-.12a.58.58 0 0 1-.14-.17c-1.13-1.43-1.31-3.48-.55-5.12C5.78 10 4.87 12.3 5 14.47c.06.5.12 1 .29 1.5.14.6.41 1.2.71 1.73 1.08 1.73 2.95 2.97 4.96 3.22 2.14.27 4.43-.12 6.07-1.6 1.83-1.66 2.47-4.32 1.53-6.6l-.13-.26c-.21-.46-.77-1.26-.77-1.26m-3.16 6.3c-.28.24-.74.5-1.1.6-1.12.4-2.24-.16-2.9-.82 1.19-.28 1.9-1.16 2.11-2.05.17-.8-.15-1.46-.28-2.23-.12-.74-.1-1.37.17-2.06.19.38.39.76.63 1.06.77 1 1.98 1.44 2.24 2.8.04.14.06.28.06.43.03.82-.33 1.72-.93 2.27Z" transform="matrix(1.5 0 0 1.5 72 324)" id="mdi-fire" fill="#555"/><path d="M17.66 11.2c-.23-.3-.51-.56-.77-.82-.67-.6-1.43-1.03-2.07-1.66C13.33 7.26 13 4.85 13.95 3c-.95.23-1.78.75-2.49 1.32-2.59 2.08-3.61 5.75-2.39 8.9.04.1.08.2.08.33 0 .22-.15.42-.35.5-.23.1-.47.04-.66-.12a.58.58 0 0 1-.14-.17c-1.13-1.43-1.31-3.48-.55-5.12C5.78 10 4.87 12.3 5 14.47c.06.5.12 1 .29 1.5.14.6.41 1.2.71 1.73 1.08 1.73 2.95 2.97 4.96 3.22 2.14.27 4.43-.12 6.07-1.6 1.83-1.66 2.47-4.32 1.53-6.6l-.13-.26c-.21-.46-.77-1.26-.77-1.26m-3.16 6.3c-.28.24-.74.5-1.1.6-1.12.4-2.24-.16-2.9-.82 1.19-.28 1.9-1.16 2.11-2.05.17-.8-.15-1.46-.28-2.23-.12-.74-.1-1.37.17-2.06.19.38.39.76.63 1.06.77 1 1.98 1.44 2.24 2.8.04.14.06.28.06.43.03.82-.33 1.72-.93 2.27Z" transform="matrix(1.5 0 0 1.5 108 324)" id="mdi-fire" fill="#fff"/><path d="M15.66 11.2c-.23-.3-.51-.56-.77-.82-.67-.6-1.43-1.03-2.07-1.66C11.33 7.26 11 4.85 11.95 3c-.95.23-1.78.75-2.49 1.32-2.59 2.08-3.61 5.75-2.39 8.9.04.1.08.2.08.33 0 .22-.15.42-.35.5-.23.1-.47.04-.66-.12a.58.58 0 0 1-.14-.17c-1.13-1.43-1.31-3.48-.55-5.12C3.78 10 2.87 12.3 3 14.47c.06.5.12 1 .29 1.5.14.6.41 1.2.71 1.73 1.08 1.73 2.95 2.97 4.96 3.22 2.14.27 4.43-.12 6.07-1.6 1.83-1.66 2.47-4.32 1.53-6.6l-.13-.26c-.21-.46-.77-1.26-.77-1.26m-3.16 6.3c-.28.24-.74.5-1.1.6-1.12.4-2.24-.16-2.9-.82 1.19-.28 1.9-1.16 2.11-2.05.17-.8-.15-1.46-.28-2.23-.12-.74-.1-1.37.17-2.06.19.38.39.76.63 1.06.77 1 1.98 1.44 2.24 2.8.04.14.06.28.06.43.03.82-.33 1.72-.93 2.27M21 13h-2V7h2v6m0 4h-2v-2h2v2Z" transform="matrix(1.5 0 0 1.5 144 324)" id="mdi-fire-alert" fill="#555"/><path d="M15.66 11.2c-.23-.3-.51-.56-.77-.82-.67-.6-1.43-1.03-2.07-1.66C11.33 7.26 11 4.85 11.95 3c-.95.23-1.78.75-2.49 1.32-2.59 2.08-3.61 5.75-2.39 8.9.04.1.08.2.08.33 0 .22-.15.42-.35.5-.23.1-.47.04-.66-.12a.58.58 0 0 1-.14-.17c-1.13-1.43-1.31-3.48-.55-5.12C3.78 10 2.87 12.3 3 14.47c.06.5.12 1 .29 1.5.14.6.41 1.2.71 1.73 1.08 1.73 2.95 2.97 4.96 3.22 2.14.27 4.43-.12 6.07-1.6 1.83-1.66 2.47-4.32 1.53-6.6l-.13-.26c-.21-.46-.77-1.26-.77-1.26m-3.16 6.3c-.28.24-.74.5-1.1.6-1.12.4-2.24-.16-2.9-.82 1.19-.28 1.9-1.16 2.11-2.05.17-.8-.15-1.46-.28-2.23-.12-.74-.1-1.37.17-2.06.19.38.39.76.63 1.06.77 1 1.98 1.44 2.24 2.8.04.14.06.28.06.43.03.82-.33 1.72-.93 2.27M21 13h-2V7h2v6m0 4h-2v-2h2v2Z" transform="matrix(1.5 0 0 1.5 180 324)" id="mdi-fire-alert" fill="#fff"/><path d="M14.66 14.18c.03.11.04.22.04.32.03.65-.26 1.35-.73 1.78-.22.19-.58.39-.86.47-.88.31-1.76-.13-2.28-.64.94-.22 1.49-.9 1.67-1.61.12-.61-.13-1.12-.23-1.72-.1-.58-.08-1.07.13-1.6.15.29.31.59.5.82.6.78 1.55 1.12 1.76 2.18M22 12c0 5.5-4.5 10-10 10S2 17.5 2 12 6.5 2 12 2s10 4.5 10 10m-4.84.56-.1-.2c-.16-.36-.61-.98-.61-.98-.18-.23-.4-.44-.6-.64-.53-.47-1.12-.8-1.63-1.29-1.17-1.14-1.43-3.01-.68-4.45-.75.18-1.4.58-1.96 1.03-2.03 1.62-2.83 4.47-1.87 6.92.03.08.06.16.06.26 0 .17-.12.32-.27.39-.19.07-.37.03-.5-.1a.323.323 0 0 1-.13-.13c-.87-1.11-1.03-2.71-.44-3.98-1.31 1.06-2.02 2.85-1.93 4.53.06.39.1.78.24 1.17.11.47.32.91.56 1.35.84 1.34 2.31 2.31 3.89 2.5 1.68.21 3.48-.09 4.77-1.24 1.44-1.3 1.94-3.37 1.2-5.14Z" transform="matrix(1.5 0 0 1.5 216 324)" id="mdi-fire-circle" fill="#555"/><path d="M14.66 14.18c.03.11.04.22.04.32.03.65-.26 1.35-.73 1.78-.22.19-.58.39-.86.47-.88.31-1.76-.13-2.28-.64.94-.22 1.49-.9 1.67-1.61.12-.61-.13-1.12-.23-1.72-.1-.58-.08-1.07.13-1.6.15.29.31.59.5.82.6.78 1.55 1.12 1.76 2.18M22 12c0 5.5-4.5 10-10 10S2 17.5 2 12 6.5 2 12 2s10 4.5 10 10m-4.84.56-.1-.2c-.16-.36-.61-.98-.61-.98-.18-.23-.4-.44-.6-.64-.53-.47-1.12-.8-1.63-1.29-1.17-1.14-1.43-3.01-.68-4.45-.75.18-1.4.58-1.96 1.03-2.03 1.62-2.83 4.47-1.87 6.92.03.08.06.16.06.26 0 .17-.12.32-.27.39-.19.07-.37.03-.5-.1a.323.323 0 0 1-.13-.13c-.87-1.11-1.03-2.71-.44-3.98-1.31 1.06-2.02 2.85-1.93 4.53.06.39.1.78.24 1.17.11.47.32.91.56 1.35.84 1.34 2.31 2.31 3.89 2.5 1.68.21 3.48-.09 4.77-1.24 1.44-1.3 1.94-3.37 1.2-5.14Z" transform="matrix(1.5 0 0 1.5 252 324)" id="mdi-fire-circle" fill="#fff"/><path d="M10.5 7h1.25L12 5h-1.75L6 7.5V9H4V6.5L10 3h2V2h2v1h2l1-.5v3L16 5h-2l.25 2h1.25A1.5 1.5 0 0 1 17 8.5V22H9V8.5A1.5 1.5 0 0 1 10.5 7Z" transform="matrix(1.5 0 0 1.5 288 324)" id="mdi-fire-extinguisher" fill="#555"/><path d="M10.5 7h1.25L12 5h-1.75L6 7.5V9H4V6.5L10 3h2V2h2v1h2l1-.5v3L16 5h-2l.25 2h1.25A1.5 1.5 0 0 1 17 8.5V22H9V8.5A1.5 1.5 0 0 1 10.5 7Z" transform="matrix(1.5 0 0 1.5 324 324)" id="mdi-fire-extinguisher" fill="#fff"/><path d="M5 15v-1H4v-2h1v-1h2v4H5m14-3v-1h-2v4h2v-1h1v-2h-1m-1-6h-2.14C15.5 4.6 14.4 3.5 13 3.14V2h-2v1.14C9.6 3.5 8.5 4.6 8.14 6H6v2h12V6m0 16H6c0-1.1.9-2 2-2V9h8v11a2 2 0 0 1 2 2m-8-9a2 2 0 1 0 4 0c0-1.11-.89-2-2-2s-2 .9-2 2Z" transform="matrix(1.5 0 0 1.5 360 324)" id="mdi-fire-hydrant" fill="#555"/><path d="M5 15v-1H4v-2h1v-1h2v4H5m14-3v-1h-2v4h2v-1h1v-2h-1m-1-6h-2.14C15.5 4.6 14.4 3.5 13 3.14V2h-2v1.14C9.6 3.5 8.5 4.6 8.14 6H6v2h12V6m0 16H6c0-1.1.9-2 2-2V9h8v11a2 2 0 0 1 2 2m-8-9a2 2 0 1 0 4 0c0-1.11-.89-2-2-2s-2 .9-2 2Z" transform="matrix(1.5 0 0 1.5 396 324)" id="mdi-fire-hydrant" fill="#fff"/><path d="M22 7h-2v6h2V7m0 8h-2v2h2v-2M3 15v-1H2v-2h1v-1h2v4H3m14-3v-1h-2v4h2v-1h1v-2h-1m-1-6h-2.14C13.5 4.6 12.4 3.5 11 3.14V2H9v1.14C7.6 3.5 6.5 4.6 6.14 6H4v2h12V6m0 16H4a2 2 0 0 1 2-2V9h8v11a2 2 0 0 1 2 2m-8-9a2 2 0 1 0 4 0c0-1.11-.89-2-2-2s-2 .9-2 2Z" transform="matrix(1.5 0 0 1.5 432 324)" id="mdi-fire-hydrant-alert" fill="#555"/><path d="M22 7h-2v6h2V7m0 8h-2v2h2v-2M3 15v-1H2v-2h1v-1h2v4H3m14-3v-1h-2v4h2v-1h1v-2h-1m-1-6h-2.14C13.5 4.6 12.4 3.5 11 3.14V2H9v1.14C7.6 3.5 6.5 4.6 6.14 6H4v2h12V6m0 16H4a2 2 0 0 1 2-2V9h8v11a2 2 0 0 1 2 2m-8-9a2 2 0 1 0 4 0c0-1.11-.89-2-2-2s-2 .9-2 2Z" transform="matrix(1.5 0 0 1.5 468 324)" id="mdi-fire-hydrant-alert" fill="#fff"/><path d="m20.84 22.73 1.27-1.27L2.39 1.73 1.11 3 8 9.89V20c-1.1 0-2 .9-2 2h12a2 2 0 0 0-2-2v-2.11l4.84 4.84M10.22 12.11l2.67 2.67c-.27.14-.57.22-.89.22a2 2 0 0 1-2-2c0-.32.08-.62.22-.89M11.2 8 8.44 5.24c.5-1.03 1.43-1.81 2.56-2.1V2h2v1.14c1.4.36 2.5 1.46 2.86 2.86H18v2h-6.8m7.8 3v1h1v2h-1v1h-.8L17 13.8V11h2M5 15v-1H4v-2h1v-1h2v4H5m11-2.2L12.2 9H16v3.8Z" transform="matrix(1.5 0 0 1.5 504 324)" id="mdi-fire-hydrant-off" fill="#555"/><path d="m20.84 22.73 1.27-1.27L2.39 1.73 1.11 3 8 9.89V20c-1.1 0-2 .9-2 2h12a2 2 0 0 0-2-2v-2.11l4.84 4.84M10.22 12.11l2.67 2.67c-.27.14-.57.22-.89.22a2 2 0 0 1-2-2c0-.32.08-.62.22-.89M11.2 8 8.44 5.24c.5-1.03 1.43-1.81 2.56-2.1V2h2v1.14c1.4.36 2.5 1.46 2.86 2.86H18v2h-6.8m7.8 3v1h1v2h-1v1h-.8L17 13.8V11h2M5 15v-1H4v-2h1v-1h2v4H5m11-2.2L12.2 9H16v3.8Z" transform="matrix(1.5 0 0 1.5 540 324)" id="mdi-fire-hydrant-off" fill="#fff"/><path d="M22.11 21.46 2.39 1.73 1.11 3l5.98 6C5.66 10.36 4.88 12.47 5 14.47c.06.5.12 1 .29 1.5.14.6.41 1.2.71 1.73 1.08 1.73 2.95 2.97 4.96 3.22 2.14.27 4.43-.12 6.07-1.6.07-.06.12-.14.19-.21l3.62 3.62 1.27-1.27M8.8 14.05c-.23.1-.47.04-.66-.12a.58.58 0 0 1-.14-.17c-1-1.29-1.26-3.07-.74-4.61l1.32 1.32c0 .93.15 1.86.49 2.75.04.1.08.2.08.33 0 .22-.15.42-.35.5m5.7 3.45c-.28.24-.74.5-1.1.6-1.12.4-2.24-.16-2.9-.82 1.19-.28 1.9-1.16 2.11-2.05.05-.23.05-.47.03-.7L15 16.88c-.15.23-.31.45-.5.62m4.42-1.78L9.65 6.46c.47-.81 1.07-1.54 1.81-2.14.71-.57 1.54-1.09 2.49-1.32-.95 1.85-.62 4.26.87 5.72.64.63 1.4 1.06 2.07 1.66.26.26.54.52.77.82 0 0 .56.8.77 1.26l.13.26c.4.97.5 2 .36 3Z" transform="matrix(1.5 0 0 1.5 576 324)" id="mdi-fire-off" fill="#555"/><path d="M22.11 21.46 2.39 1.73 1.11 3l5.98 6C5.66 10.36 4.88 12.47 5 14.47c.06.5.12 1 .29 1.5.14.6.41 1.2.71 1.73 1.08 1.73 2.95 2.97 4.96 3.22 2.14.27 4.43-.12 6.07-1.6.07-.06.12-.14.19-.21l3.62 3.62 1.27-1.27M8.8 14.05c-.23.1-.47.04-.66-.12a.58.58 0 0 1-.14-.17c-1-1.29-1.26-3.07-.74-4.61l1.32 1.32c0 .93.15 1.86.49 2.75.04.1.08.2.08.33 0 .22-.15.42-.35.5m5.7 3.45c-.28.24-.74.5-1.1.6-1.12.4-2.24-.16-2.9-.82 1.19-.28 1.9-1.16 2.11-2.05.05-.23.05-.47.03-.7L15 16.88c-.15.23-.31.45-.5.62m4.42-1.78L9.65 6.46c.47-.81 1.07-1.54 1.81-2.14.71-.57 1.54-1.09 2.49-1.32-.95 1.85-.62 4.26.87 5.72.64.63 1.4 1.06 2.07 1.66.26.26.54.52.77.82 0 0 .56.8.77 1.26l.13.26c.4.97.5 2 .36 3Z" transform="matrix(1.5 0 0 1.5 612 324)" id="mdi-fire-off" fill="#fff"/><path d="M17.04 2c-.19 0-.38.04-.54.14L5.59 8.5h3.96l7.95-4.64c.5-.28.63-.89.35-1.36-.17-.3-.47-.5-.81-.5M16 8v2H3a2 2 0 0 0-2 2h1v3H1v4h2a3 3 0 0 0 3 3 3 3 0 0 0 3-3h6a3 3 0 0 0 3 3 3 3 0 0 0 3-3h2v-6.5L19.5 8H16m2 1.5h1l2.5 3v1H18v-4M4 12h3v3H4v-3m5 0h3v3H9v-3m5 0h2v3h-2v-3m-8 5.5A1.5 1.5 0 0 1 7.5 19 1.5 1.5 0 0 1 6 20.5 1.5 1.5 0 0 1 4.5 19 1.5 1.5 0 0 1 6 17.5m12 0a1.5 1.5 0 0 1 1.5 1.5 1.5 1.5 0 0 1-1.5 1.5 1.5 1.5 0 0 1-1.5-1.5 1.5 1.5 0 0 1 1.5-1.5Z" transform="matrix(1.5 0 0 1.5 648 324)" id="mdi-fire-truck" fill="#555"/><path d="M17.04 2c-.19 0-.38.04-.54.14L5.59 8.5h3.96l7.95-4.64c.5-.28.63-.89.35-1.36-.17-.3-.47-.5-.81-.5M16 8v2H3a2 2 0 0 0-2 2h1v3H1v4h2a3 3 0 0 0 3 3 3 3 0 0 0 3-3h6a3 3 0 0 0 3 3 3 3 0 0 0 3-3h2v-6.5L19.5 8H16m2 1.5h1l2.5 3v1H18v-4M4 12h3v3H4v-3m5 0h3v3H9v-3m5 0h2v3h-2v-3m-8 5.5A1.5 1.5 0 0 1 7.5 19 1.5 1.5 0 0 1 6 20.5 1.5 1.5 0 0 1 4.5 19 1.5 1.5 0 0 1 6 17.5m12 0a1.5 1.5 0 0 1 1.5 1.5 1.5 1.5 0 0 1-1.5 1.5 1.5 1.5 0 0 1-1.5-1.5 1.5 1.5 0 0 1 1.5-1.5Z" transform="matrix(1.5 0 0 1.5 684 324)" id="mdi-fire-truck" fill="#fff"/></svg>