<svg xmlns="http://www.w3.org/2000/svg" width="720" height="900"><path d="M8.5 8.64 13.77 12 8.5 15.36V8.64M6.5 5v14l11-7" transform="scale(1.5)" id="mdi-play-outline" fill="#555"/><path d="M8.5 8.64 13.77 12 8.5 15.36V8.64M6.5 5v14l11-7" transform="translate(36) scale(1.5)" id="mdi-play-outline" fill="#fff"/><path d="M3 5v14l8-7m2 7h3V5h-3m5 0v14h3V5" transform="translate(72) scale(1.5)" id="mdi-play-pause" fill="#555"/><path d="M3 5v14l8-7m2 7h3V5h-3m5 0v14h3V5" transform="translate(108) scale(1.5)" id="mdi-play-pause" fill="#fff"/><path d="M2 5v13h9v-2H4V7h13v4h2V5H2m7 4v5l3.5-2.5L9 9m12.04 2.67-4.95 4.95-2.13-2.12-1.41 1.41 3.54 3.54 6.36-6.36-1.41-1.42Z" transform="translate(144) scale(1.5)" id="mdi-play-protected-content" fill="#555"/><path d="M2 5v13h9v-2H4V7h13v4h2V5H2m7 4v5l3.5-2.5L9 9m12.04 2.67-4.95 4.95-2.13-2.12-1.41 1.41 3.54 3.54 6.36-6.36-1.41-1.42Z" transform="translate(180) scale(1.5)" id="mdi-play-protected-content" fill="#fff"/><path d="M13 2.05v2c4.39.54 7.5 4.53 6.96 8.92-.46 3.64-3.32 6.53-6.96 6.96v2c5.5-.55 9.5-5.43 8.95-10.93-.45-4.75-4.22-8.5-8.95-8.97v.02M5.67 19.74A9.994 9.994 0 0 0 11 22v-2a8.002 8.002 0 0 1-3.9-1.63l-1.43 1.37m1.43-14c1.12-.9 2.47-1.48 3.9-1.68v-2c-1.95.19-3.81.94-5.33 2.2L7.1 5.74M5.69 7.1 4.26 5.67A9.885 9.885 0 0 0 2.05 11h2c.19-1.42.75-2.77 1.64-3.9M4.06 13h-2c.2 1.96.97 3.81 2.21 5.33l1.42-1.43A8.002 8.002 0 0 1 4.06 13M10 16.5l6-4.5-6-4.5v9Z" transform="translate(216) scale(1.5)" id="mdi-play-speed" fill="#555"/><path d="M13 2.05v2c4.39.54 7.5 4.53 6.96 8.92-.46 3.64-3.32 6.53-6.96 6.96v2c5.5-.55 9.5-5.43 8.95-10.93-.45-4.75-4.22-8.5-8.95-8.97v.02M5.67 19.74A9.994 9.994 0 0 0 11 22v-2a8.002 8.002 0 0 1-3.9-1.63l-1.43 1.37m1.43-14c1.12-.9 2.47-1.48 3.9-1.68v-2c-1.95.19-3.81.94-5.33 2.2L7.1 5.74M5.69 7.1 4.26 5.67A9.885 9.885 0 0 0 2.05 11h2c.19-1.42.75-2.77 1.64-3.9M4.06 13h-2c.2 1.96.97 3.81 2.21 5.33l1.42-1.43A8.002 8.002 0 0 1 4.06 13M10 16.5l6-4.5-6-4.5v9Z" transform="translate(252) scale(1.5)" id="mdi-play-speed" fill="#fff"/><path d="M14 10H2v2h12v-2m0-4H2v2h12V6M2 16h8v-2H2v2m19.5-4.5L23 13l-7 7-4.5-4.5L13 14l3 3 5.5-5.5Z" transform="translate(288) scale(1.5)" id="mdi-playlist-check" fill="#555"/><path d="M14 10H2v2h12v-2m0-4H2v2h12V6M2 16h8v-2H2v2m19.5-4.5L23 13l-7 7-4.5-4.5L13 14l3 3 5.5-5.5Z" transform="translate(324) scale(1.5)" id="mdi-playlist-check" fill="#fff"/><path d="M2 6v2h12V6H2m0 4v2h12v-2H2m18.04.13c-.14 0-.28.06-.39.17l-1 1 2.05 2.05 1-1c.22-.21.22-.56 0-.77l-1.28-1.28a.533.533 0 0 0-.38-.17m-1.97 1.75L12 17.94V20h2.06l6.06-6.07-2.05-2.05M2 14v2h8v-2H2Z" transform="translate(360) scale(1.5)" id="mdi-playlist-edit" fill="#555"/><path d="M2 6v2h12V6H2m0 4v2h12v-2H2m18.04.13c-.14 0-.28.06-.39.17l-1 1 2.05 2.05 1-1c.22-.21.22-.56 0-.77l-1.28-1.28a.533.533 0 0 0-.38-.17m-1.97 1.75L12 17.94V20h2.06l6.06-6.07-2.05-2.05M2 14v2h8v-2H2Z" transform="translate(396) scale(1.5)" id="mdi-playlist-edit" fill="#fff"/><path d="M2 16h8v-2H2m10 0v2h10v-2m-8-8H2v2h12m0 2H2v2h12v-2Z" transform="translate(432) scale(1.5)" id="mdi-playlist-minus" fill="#555"/><path d="M2 16h8v-2H2m10 0v2h10v-2m-8-8H2v2h12m0 2H2v2h12v-2Z" transform="translate(468) scale(1.5)" id="mdi-playlist-minus" fill="#fff"/><path d="M15 6H3v2h12V6m0 4H3v2h12v-2M3 16h8v-2H3v2M17 6v8.18c-.31-.11-.65-.18-1-.18a3 3 0 0 0-3 3 3 3 0 0 0 3 3 3 3 0 0 0 3-3V8h3V6h-5Z" transform="translate(504) scale(1.5)" id="mdi-playlist-music" fill="#555"/><path d="M15 6H3v2h12V6m0 4H3v2h12v-2M3 16h8v-2H3v2M17 6v8.18c-.31-.11-.65-.18-1-.18a3 3 0 0 0-3 3 3 3 0 0 0 3 3 3 3 0 0 0 3-3V8h3V6h-5Z" transform="translate(540) scale(1.5)" id="mdi-playlist-music" fill="#fff"/><path d="M15 6v2H3V6h12m0 4v2H3v-2h12M3 16v-2h8v2H3M17 6h5v2h-3v9a3 3 0 0 1-3 3 3 3 0 0 1-3-3 3 3 0 0 1 3-3c.35 0 .69.07 1 .18V6m-1 10a1 1 0 0 0-1 1 1 1 0 0 0 1 1 1 1 0 0 0 1-1 1 1 0 0 0-1-1Z" transform="translate(576) scale(1.5)" id="mdi-playlist-music-outline" fill="#555"/><path d="M15 6v2H3V6h12m0 4v2H3v-2h12M3 16v-2h8v2H3M17 6h5v2h-3v9a3 3 0 0 1-3 3 3 3 0 0 1-3-3 3 3 0 0 1 3-3c.35 0 .69.07 1 .18V6m-1 10a1 1 0 0 0-1 1 1 1 0 0 0 1 1 1 1 0 0 0 1-1 1 1 0 0 0-1-1Z" transform="translate(612) scale(1.5)" id="mdi-playlist-music-outline" fill="#fff"/><path d="M19 9H2v2h17V9m0-4H2v2h17V5M2 15h13v-2H2v2m15-2v6l5-3-5-3Z" transform="translate(648) scale(1.5)" id="mdi-playlist-play" fill="#555"/><path d="M19 9H2v2h17V9m0-4H2v2h17V5M2 15h13v-2H2v2m15-2v6l5-3-5-3Z" transform="translate(684) scale(1.5)" id="mdi-playlist-play" fill="#fff"/><path d="M2 16h8v-2H2m16 0v-4h-2v4h-4v2h4v4h2v-4h4v-2m-8-8H2v2h12m0 2H2v2h12v-2Z" transform="matrix(1.5 0 0 1.5 0 36)" id="mdi-playlist-plus" fill="#555"/><path d="M2 16h8v-2H2m16 0v-4h-2v4h-4v2h4v4h2v-4h4v-2m-8-8H2v2h12m0 2H2v2h12v-2Z" transform="matrix(1.5 0 0 1.5 36 36)" id="mdi-playlist-plus" fill="#fff"/><path d="M2 6v2h12V6H2m0 4v2h9v-2H2m12.17.76-1.41 1.41L15.59 15l-2.83 2.83 1.41 1.41L17 16.41l2.83 2.83 1.41-1.41L18.41 15l2.83-2.83-1.41-1.41L17 13.59l-2.83-2.83M2 14v2h9v-2H2Z" transform="matrix(1.5 0 0 1.5 72 36)" id="mdi-playlist-remove" fill="#555"/><path d="M2 6v2h12V6H2m0 4v2h9v-2H2m12.17.76-1.41 1.41L15.59 15l-2.83 2.83 1.41 1.41L17 16.41l2.83 2.83 1.41-1.41L18.41 15l2.83-2.83-1.41-1.41L17 13.59l-2.83-2.83M2 14v2h9v-2H2Z" transform="matrix(1.5 0 0 1.5 108 36)" id="mdi-playlist-remove" fill="#fff"/><path d="m17 19.09 2.45 1.49-.65-2.81 2.2-1.88-2.89-.25L17 13l-1.13 2.64-2.87.25 2.18 1.88-.68 2.81 2.5-1.49M4 14h8v2H4v-2m0-8h12v2H4V6m0 4h12v2H4v-2Z" transform="matrix(1.5 0 0 1.5 144 36)" id="mdi-playlist-star" fill="#555"/><path d="m17 19.09 2.45 1.49-.65-2.81 2.2-1.88-2.89-.25L17 13l-1.13 2.64-2.87.25 2.18 1.88-.68 2.81 2.5-1.49M4 14h8v2H4v-2m0-8h12v2H4V6m0 4h12v2H4v-2Z" transform="matrix(1.5 0 0 1.5 180 36)" id="mdi-playlist-star" fill="#fff"/><path d="M4 2c-1.11 0-2 .89-2 2v16c0 1.11.89 2 2 2h16c1.11 0 2-.89 2-2V4c0-1.11-.89-2-2-2H4m4.56 4h3.5l3.44 6-3.44 6h-3.5L12 12 8.56 6Z" transform="matrix(1.5 0 0 1.5 216 36)" id="mdi-plex" fill="#555"/><path d="M4 2c-1.11 0-2 .89-2 2v16c0 1.11.89 2 2 2h16c1.11 0 2-.89 2-2V4c0-1.11-.89-2-2-2H4m4.56 4h3.5l3.44 6-3.44 6h-3.5L12 12 8.56 6Z" transform="matrix(1.5 0 0 1.5 252 36)" id="mdi-plex" fill="#fff"/><path d="M9.4 12.2s2.3 3.1 4.4 5.2c.9.9 1.8 1.5 2.5 2 .8.5 1 1.6.3 2.3-.4.4-1.1.6-1.6.3-.8-.4-2-1.2-3.3-2.4-2.1-2.1-4.4-5.2-4.4-5.2l2.1-2.2m2.8-2.8s3.1 2.3 5.2 4.4c.9.9 1.5 1.8 2 2.5.5.8 1.6 1 2.3.3.4-.4.6-1.1.3-1.6-.4-.8-1.2-2-2.4-3.3-2.1-2.1-5.2-4.4-5.2-4.4l-2.2 2.1m-1.8-3.9L7.6 2.7 4.1 2l-.5.5 2.3 2.3c.5-.1 1 0 1.4.4.6.6.6 1.5 0 2.1s-1.5.6-2.1 0c-.4-.4-.5-1-.4-1.5L2.5 3.6l-.5.5.7 3.5 2.8 2.8 1.4 2.8 1.9-1.9-1-1.8 1.6-1.6 1.9.9 1.9-1.9-2.8-1.4Z" transform="matrix(1.5 0 0 1.5 288 36)" id="mdi-pliers" fill="#555"/><path d="M9.4 12.2s2.3 3.1 4.4 5.2c.9.9 1.8 1.5 2.5 2 .8.5 1 1.6.3 2.3-.4.4-1.1.6-1.6.3-.8-.4-2-1.2-3.3-2.4-2.1-2.1-4.4-5.2-4.4-5.2l2.1-2.2m2.8-2.8s3.1 2.3 5.2 4.4c.9.9 1.5 1.8 2 2.5.5.8 1.6 1 2.3.3.4-.4.6-1.1.3-1.6-.4-.8-1.2-2-2.4-3.3-2.1-2.1-5.2-4.4-5.2-4.4l-2.2 2.1m-1.8-3.9L7.6 2.7 4.1 2l-.5.5 2.3 2.3c.5-.1 1 0 1.4.4.6.6.6 1.5 0 2.1s-1.5.6-2.1 0c-.4-.4-.5-1-.4-1.5L2.5 3.6l-.5.5.7 3.5 2.8 2.8 1.4 2.8 1.9-1.9-1-1.8 1.6-1.6 1.9.9 1.9-1.9-2.8-1.4Z" transform="matrix(1.5 0 0 1.5 324 36)" id="mdi-pliers" fill="#fff"/><path d="M19 13h-6v6h-2v-6H5v-2h6V5h2v6h6v2Z" transform="matrix(1.5 0 0 1.5 360 36)" id="mdi-plus" fill="#555"/><path d="M19 13h-6v6h-2v-6H5v-2h6V5h2v6h6v2Z" transform="matrix(1.5 0 0 1.5 396 36)" id="mdi-plus" fill="#fff"/><path d="M17 13h-4v4h-2v-4H7v-2h4V7h2v4h4m2-8H5c-1.11 0-2 .89-2 2v14a2 2 0 0 0 2 2h14a2 2 0 0 0 2-2V5a2 2 0 0 0-2-2Z" transform="matrix(1.5 0 0 1.5 432 36)" id="mdi-plus-box" fill="#555"/><path d="M17 13h-4v4h-2v-4H7v-2h4V7h2v4h4m2-8H5c-1.11 0-2 .89-2 2v14a2 2 0 0 0 2 2h14a2 2 0 0 0 2-2V5a2 2 0 0 0-2-2Z" transform="matrix(1.5 0 0 1.5 468 36)" id="mdi-plus-box" fill="#fff"/><path d="M19 11h-4v4h-2v-4H9V9h4V5h2v4h4m1-7H8a2 2 0 0 0-2 2v12a2 2 0 0 0 2 2h12a2 2 0 0 0 2-2V4a2 2 0 0 0-2-2M4 6H2v14a2 2 0 0 0 2 2h14v-2H4V6Z" transform="matrix(1.5 0 0 1.5 504 36)" id="mdi-plus-box-multiple" fill="#555"/><path d="M19 11h-4v4h-2v-4H9V9h4V5h2v4h4m1-7H8a2 2 0 0 0-2 2v12a2 2 0 0 0 2 2h12a2 2 0 0 0 2-2V4a2 2 0 0 0-2-2M4 6H2v14a2 2 0 0 0 2 2h14v-2H4V6Z" transform="matrix(1.5 0 0 1.5 540 36)" id="mdi-plus-box-multiple" fill="#fff"/><path d="M18 11h-3v3h-2v-3h-3V9h3V6h2v3h3m2-5v12H8V4h12m0-2H8c-1.1 0-2 .9-2 2v12a2 2 0 0 0 2 2h12c1.11 0 2-.89 2-2V4a2 2 0 0 0-2-2M4 6H2v14a2 2 0 0 0 2 2h14v-2H4V6Z" transform="matrix(1.5 0 0 1.5 576 36)" id="mdi-plus-box-multiple-outline" fill="#555"/><path d="M18 11h-3v3h-2v-3h-3V9h3V6h2v3h3m2-5v12H8V4h12m0-2H8c-1.1 0-2 .9-2 2v12a2 2 0 0 0 2 2h12c1.11 0 2-.89 2-2V4a2 2 0 0 0-2-2M4 6H2v14a2 2 0 0 0 2 2h14v-2H4V6Z" transform="matrix(1.5 0 0 1.5 612 36)" id="mdi-plus-box-multiple-outline" fill="#fff"/><path d="M19 19V5H5v14h14m0-16a2 2 0 0 1 2 2v14a2 2 0 0 1-2 2H5a2 2 0 0 1-2-2V5a2 2 0 0 1 2-2h14m-8 4h2v4h4v2h-4v4h-2v-4H7v-2h4V7Z" transform="matrix(1.5 0 0 1.5 648 36)" id="mdi-plus-box-outline" fill="#555"/><path d="M19 19V5H5v14h14m0-16a2 2 0 0 1 2 2v14a2 2 0 0 1-2 2H5a2 2 0 0 1-2-2V5a2 2 0 0 1 2-2h14m-8 4h2v4h4v2h-4v4h-2v-4H7v-2h4V7Z" transform="matrix(1.5 0 0 1.5 684 36)" id="mdi-plus-box-outline" fill="#fff"/><path d="M17 13h-4v4h-2v-4H7v-2h4V7h2v4h4m-5-9A10 10 0 0 0 2 12a10 10 0 0 0 10 10 10 10 0 0 0 10-10A10 10 0 0 0 12 2Z" transform="matrix(1.5 0 0 1.5 0 72)" id="mdi-plus-circle" fill="#555"/><path d="M17 13h-4v4h-2v-4H7v-2h4V7h2v4h4m-5-9A10 10 0 0 0 2 12a10 10 0 0 0 10 10 10 10 0 0 0 10-10A10 10 0 0 0 12 2Z" transform="matrix(1.5 0 0 1.5 36 72)" id="mdi-plus-circle" fill="#fff"/><path d="M2 12c0-2.8 1.6-5.2 4-6.3V3.5C2.5 4.8 0 8.1 0 12s2.5 7.2 6 8.5v-2.2c-2.4-1.1-4-3.5-4-6.3m13-9c-5 0-9 4-9 9s4 9 9 9 9-4 9-9-4-9-9-9m5 10h-4v4h-2v-4h-4v-2h4V7h2v4h4v2Z" transform="matrix(1.5 0 0 1.5 72 72)" id="mdi-plus-circle-multiple" fill="#555"/><path d="M2 12c0-2.8 1.6-5.2 4-6.3V3.5C2.5 4.8 0 8.1 0 12s2.5 7.2 6 8.5v-2.2c-2.4-1.1-4-3.5-4-6.3m13-9c-5 0-9 4-9 9s4 9 9 9 9-4 9-9-4-9-9-9m5 10h-4v4h-2v-4h-4v-2h4V7h2v4h4v2Z" transform="matrix(1.5 0 0 1.5 108 72)" id="mdi-plus-circle-multiple" fill="#fff"/><path d="M16 8h-2v3h-3v2h3v3h2v-3h3v-2h-3M2 12c0-2.79 1.64-5.2 4-6.32V3.5C2.5 4.76 0 8.09 0 12s2.5 7.24 6 8.5v-2.18C3.64 17.2 2 14.79 2 12m13-9c-4.96 0-9 4.04-9 9s4.04 9 9 9 9-4.04 9-9-4.04-9-9-9m0 16c-3.86 0-7-3.14-7-7s3.14-7 7-7 7 3.14 7 7-3.14 7-7 7Z" transform="matrix(1.5 0 0 1.5 144 72)" id="mdi-plus-circle-multiple-outline" fill="#555"/><path d="M16 8h-2v3h-3v2h3v3h2v-3h3v-2h-3M2 12c0-2.79 1.64-5.2 4-6.32V3.5C2.5 4.76 0 8.09 0 12s2.5 7.24 6 8.5v-2.18C3.64 17.2 2 14.79 2 12m13-9c-4.96 0-9 4.04-9 9s4.04 9 9 9 9-4.04 9-9-4.04-9-9-9m0 16c-3.86 0-7-3.14-7-7s3.14-7 7-7 7 3.14 7 7-3.14 7-7 7Z" transform="matrix(1.5 0 0 1.5 180 72)" id="mdi-plus-circle-multiple-outline" fill="#fff"/><path d="M12 20c-4.41 0-8-3.59-8-8s3.59-8 8-8 8 3.59 8 8-3.59 8-8 8m0-18A10 10 0 0 0 2 12a10 10 0 0 0 10 10 10 10 0 0 0 10-10A10 10 0 0 0 12 2m1 5h-2v4H7v2h4v4h2v-4h4v-2h-4V7Z" transform="matrix(1.5 0 0 1.5 216 72)" id="mdi-plus-circle-outline" fill="#555"/><path d="M12 20c-4.41 0-8-3.59-8-8s3.59-8 8-8 8 3.59 8 8-3.59 8-8 8m0-18A10 10 0 0 0 2 12a10 10 0 0 0 10 10 10 10 0 0 0 10-10A10 10 0 0 0 12 2m1 5h-2v4H7v2h4v4h2v-4h4v-2h-4V7Z" transform="matrix(1.5 0 0 1.5 252 72)" id="mdi-plus-circle-outline" fill="#fff"/><path d="M21.14 17.67v-.45C21.14 16 20.2 15 19 15s-2.14 1-2.14 2.22v.45c-.52 0-.86.33-.86.89v3.55c0 .54.34.89.86.89h4.28c.52 0 .86-.35.86-.89v-3.56c0-.55-.34-.88-.86-.88m-.85 0h-2.57v-.45c0-.72.59-1.33 1.28-1.33.69 0 1.29.61 1.29 1.33v.45M11 5v6H5v2h6v6h2v-6h6v-2h-6V5h-2Z" transform="matrix(1.5 0 0 1.5 288 72)" id="mdi-plus-lock" fill="#555"/><path d="M21.14 17.67v-.45C21.14 16 20.2 15 19 15s-2.14 1-2.14 2.22v.45c-.52 0-.86.33-.86.89v3.55c0 .54.34.89.86.89h4.28c.52 0 .86-.35.86-.89v-3.56c0-.55-.34-.88-.86-.88m-.85 0h-2.57v-.45c0-.72.59-1.33 1.28-1.33.69 0 1.29.61 1.29 1.33v.45M11 5v6H5v2h6v6h2v-6h6v-2h-6V5h-2Z" transform="matrix(1.5 0 0 1.5 324 72)" id="mdi-plus-lock" fill="#fff"/><path d="M11 5v6H5v2h6v6h2v-6h6v-2h-6V5h-2m8 10c-1.05 0-2.1.8-2.1 1.82v1.82c-.45 0-.9.43-.9.86v2.55c0 .51.45.95.9.95h4.13c.52 0 .97-.44.97-.87v-2.55c0-.51-.45-.94-.9-.94h-3.22v-1.82c0-.58.52-.95 1.12-.95s1.13.37 1.13.95v.36h.97v-.36C21.1 15.8 20.05 15 19 15Z" transform="matrix(1.5 0 0 1.5 360 72)" id="mdi-plus-lock-open" fill="#555"/><path d="M11 5v6H5v2h6v6h2v-6h6v-2h-6V5h-2m8 10c-1.05 0-2.1.8-2.1 1.82v1.82c-.45 0-.9.43-.9.86v2.55c0 .51.45.95.9.95h4.13c.52 0 .97-.44.97-.87v-2.55c0-.51-.45-.94-.9-.94h-3.22v-1.82c0-.58.52-.95 1.12-.95s1.13.37 1.13.95v.36h.97v-.36C21.1 15.8 20.05 15 19 15Z" transform="matrix(1.5 0 0 1.5 396 72)" id="mdi-plus-lock-open" fill="#fff"/><path d="M11 4v5H6v2h5v5h2v-5h5V9h-5V4h-2M6 18v2h12v-2H6Z" transform="matrix(1.5 0 0 1.5 432 72)" id="mdi-plus-minus" fill="#555"/><path d="M11 4v5H6v2h5v5h2v-5h5V9h-5V4h-2M6 18v2h12v-2H6Z" transform="matrix(1.5 0 0 1.5 468 72)" id="mdi-plus-minus" fill="#fff"/><path d="M5 3c-1.11 0-2 .89-2 2v14a2 2 0 0 0 2 2h14a2 2 0 0 0 2-2V5a2 2 0 0 0-2-2H5m6 3h2v3h3v2h-3v3h-2v-3H8V9h3V6M8 16h8v2H8v-2Z" transform="matrix(1.5 0 0 1.5 504 72)" id="mdi-plus-minus-box" fill="#555"/><path d="M5 3c-1.11 0-2 .89-2 2v14a2 2 0 0 0 2 2h14a2 2 0 0 0 2-2V5a2 2 0 0 0-2-2H5m6 3h2v3h3v2h-3v3h-2v-3H8V9h3V6M8 16h8v2H8v-2Z" transform="matrix(1.5 0 0 1.5 540 72)" id="mdi-plus-minus-box" fill="#fff"/><path d="M3 7h3V4h2v3h3v2H8v3H6V9H3V7m10 8h8v2h-8v-2m3.04-12h2.31L7.96 21H5.65L16.04 3Z" transform="matrix(1.5 0 0 1.5 576 72)" id="mdi-plus-minus-variant" fill="#555"/><path d="M3 7h3V4h2v3h3v2H8v3H6V9H3V7m10 8h8v2h-8v-2m3.04-12h2.31L7.96 21H5.65L16.04 3Z" transform="matrix(1.5 0 0 1.5 612 72)" id="mdi-plus-minus-variant" fill="#fff"/><path d="M16 11V9h-3V6h-2v3H8v2h3v3h2v-3h3m1-8a2 2 0 0 1 2 2v10a2 2 0 0 1-2 2h-4v2h1a1 1 0 0 1 1 1h7v2h-7a1 1 0 0 1-1 1h-4a1 1 0 0 1-1-1H2v-2h7a1 1 0 0 1 1-1h1v-2H7a2 2 0 0 1-2-2V5a2 2 0 0 1 2-2h10Z" transform="matrix(1.5 0 0 1.5 648 72)" id="mdi-plus-network" fill="#555"/><path d="M16 11V9h-3V6h-2v3H8v2h3v3h2v-3h3m1-8a2 2 0 0 1 2 2v10a2 2 0 0 1-2 2h-4v2h1a1 1 0 0 1 1 1h7v2h-7a1 1 0 0 1-1 1h-4a1 1 0 0 1-1-1H2v-2h7a1 1 0 0 1 1-1h1v-2H7a2 2 0 0 1-2-2V5a2 2 0 0 1 2-2h10Z" transform="matrix(1.5 0 0 1.5 684 72)" id="mdi-plus-network" fill="#fff"/><path d="M15 20a1 1 0 0 0-1-1h-1v-2h4a2 2 0 0 0 2-2V5a2 2 0 0 0-2-2H7a2 2 0 0 0-2 2v10a2 2 0 0 0 2 2h4v2h-1a1 1 0 0 0-1 1H2v2h7a1 1 0 0 0 1 1h4a1 1 0 0 0 1-1h7v-2h-7m-8-5V5h10v10H7m8-4h-2v2h-2v-2H9V9h2V7h2v2h2v2Z" transform="matrix(1.5 0 0 1.5 0 108)" id="mdi-plus-network-outline" fill="#555"/><path d="M15 20a1 1 0 0 0-1-1h-1v-2h4a2 2 0 0 0 2-2V5a2 2 0 0 0-2-2H7a2 2 0 0 0-2 2v10a2 2 0 0 0 2 2h4v2h-1a1 1 0 0 0-1 1H2v2h7a1 1 0 0 0 1 1h4a1 1 0 0 0 1-1h7v-2h-7m-8-5V5h10v10H7m8-4h-2v2h-2v-2H9V9h2V7h2v2h2v2Z" transform="matrix(1.5 0 0 1.5 36 108)" id="mdi-plus-network-outline" fill="#fff"/><path d="M4 9h5V4h6v5h5v6h-5v5H9v-5H4V9m7 4v5h2v-5h5v-2h-5V6h-2v5H6v2h5Z" transform="matrix(1.5 0 0 1.5 72 108)" id="mdi-plus-outline" fill="#555"/><path d="M4 9h5V4h6v5h5v6h-5v5H9v-5H4V9m7 4v5h2v-5h5v-2h-5V6h-2v5H6v2h5Z" transform="matrix(1.5 0 0 1.5 108 108)" id="mdi-plus-outline" fill="#fff"/><path d="M20 14h-6v6h-4v-6H4v-4h6V4h4v6h6v4Z" transform="matrix(1.5 0 0 1.5 144 108)" id="mdi-plus-thick" fill="#555"/><path d="M20 14h-6v6h-4v-6H4v-4h6V4h4v6h6v4Z" transform="matrix(1.5 0 0 1.5 180 108)" id="mdi-plus-thick" fill="#fff"/><path d="M17 18.25v3.25H7v-3.25c0-1.38 2.24-2.5 5-2.5s5 1.12 5 2.5M12 5.5a6.5 6.5 0 0 1 6.5 6.5c0 1.25-.35 2.42-.96 3.41L16 14.04c.32-.61.5-1.31.5-2.04 0-2.5-2-4.5-4.5-4.5s-4.5 2-4.5 4.5c0 .73.18 1.43.5 2.04l-1.54 1.37c-.61-.99-.96-2.16-.96-3.41A6.5 6.5 0 0 1 12 5.5m0-4A10.5 10.5 0 0 1 22.5 12c0 2.28-.73 4.39-1.96 6.11l-1.5-1.35c.92-1.36 1.46-3 1.46-4.76A8.5 8.5 0 0 0 12 3.5 8.5 8.5 0 0 0 3.5 12c0 1.76.54 3.4 1.46 4.76l-1.5 1.35A10.473 10.473 0 0 1 1.5 12 10.5 10.5 0 0 1 12 1.5m0 8a2.5 2.5 0 0 1 2.5 2.5 2.5 2.5 0 0 1-2.5 2.5A2.5 2.5 0 0 1 9.5 12 2.5 2.5 0 0 1 12 9.5Z" transform="matrix(1.5 0 0 1.5 216 108)" id="mdi-podcast" fill="#555"/><path d="M17 18.25v3.25H7v-3.25c0-1.38 2.24-2.5 5-2.5s5 1.12 5 2.5M12 5.5a6.5 6.5 0 0 1 6.5 6.5c0 1.25-.35 2.42-.96 3.41L16 14.04c.32-.61.5-1.31.5-2.04 0-2.5-2-4.5-4.5-4.5s-4.5 2-4.5 4.5c0 .73.18 1.43.5 2.04l-1.54 1.37c-.61-.99-.96-2.16-.96-3.41A6.5 6.5 0 0 1 12 5.5m0-4A10.5 10.5 0 0 1 22.5 12c0 2.28-.73 4.39-1.96 6.11l-1.5-1.35c.92-1.36 1.46-3 1.46-4.76A8.5 8.5 0 0 0 12 3.5 8.5 8.5 0 0 0 3.5 12c0 1.76.54 3.4 1.46 4.76l-1.5 1.35A10.473 10.473 0 0 1 1.5 12 10.5 10.5 0 0 1 12 1.5m0 8a2.5 2.5 0 0 1 2.5 2.5 2.5 2.5 0 0 1-2.5 2.5A2.5 2.5 0 0 1 9.5 12 2.5 2.5 0 0 1 12 9.5Z" transform="matrix(1.5 0 0 1.5 252 108)" id="mdi-podcast" fill="#fff"/><path d="m12 7.09 2.45 1.49-.65-2.81L16 3.89l-2.89-.25L12 1l-1.13 2.64L8 3.89l2.18 1.88-.68 2.81L12 7.09m-8 6 2.45 1.49-.65-2.81L8 9.89l-2.89-.25L4 7 2.87 9.64 0 9.89l2.18 1.88-.68 2.81L4 13.09m16-3 2.45 1.49-.65-2.81L24 6.89l-2.89-.25L20 4l-1.13 2.64-2.87.25 2.18 1.88-.68 2.81 2.5-1.49M15 23H9V10h6v13m-8 0H1v-6h6v6m16 0h-6V13h6v10Z" transform="matrix(1.5 0 0 1.5 288 108)" id="mdi-podium" fill="#555"/><path d="m12 7.09 2.45 1.49-.65-2.81L16 3.89l-2.89-.25L12 1l-1.13 2.64L8 3.89l2.18 1.88-.68 2.81L12 7.09m-8 6 2.45 1.49-.65-2.81L8 9.89l-2.89-.25L4 7 2.87 9.64 0 9.89l2.18 1.88-.68 2.81L4 13.09m16-3 2.45 1.49-.65-2.81L24 6.89l-2.89-.25L20 4l-1.13 2.64-2.87.25 2.18 1.88-.68 2.81 2.5-1.49M15 23H9V10h6v13m-8 0H1v-6h6v6m16 0h-6V13h6v10Z" transform="matrix(1.5 0 0 1.5 324 108)" id="mdi-podium" fill="#fff"/><path d="m4 13.09 2.45 1.49-.65-2.81L8 9.89l-2.89-.25L4 7 2.87 9.64 0 9.89l2.18 1.88-.68 2.81L4 13.09M7 23H1v-6h6v6m2-13v13h6V10H9m4 11h-2v-9h2v9m4-8v10h6V13h-6m4 8h-2v-6h2v6Z" transform="matrix(1.5 0 0 1.5 360 108)" id="mdi-podium-bronze" fill="#555"/><path d="m4 13.09 2.45 1.49-.65-2.81L8 9.89l-2.89-.25L4 7 2.87 9.64 0 9.89l2.18 1.88-.68 2.81L4 13.09M7 23H1v-6h6v6m2-13v13h6V10H9m4 11h-2v-9h2v9m4-8v10h6V13h-6m4 8h-2v-6h2v6Z" transform="matrix(1.5 0 0 1.5 396 108)" id="mdi-podium-bronze" fill="#fff"/><path d="m12 7.09 2.45 1.49-.65-2.81L16 3.89l-2.89-.25L12 1l-1.13 2.64L8 3.89l2.18 1.88-.68 2.81L12 7.09M15 23H9V10h6v13M1 17v6h6v-6H1m4 4H3v-2h2v2m12-8v10h6V13h-6m4 8h-2v-6h2v6Z" transform="matrix(1.5 0 0 1.5 432 108)" id="mdi-podium-gold" fill="#555"/><path d="m12 7.09 2.45 1.49-.65-2.81L16 3.89l-2.89-.25L12 1l-1.13 2.64L8 3.89l2.18 1.88-.68 2.81L12 7.09M15 23H9V10h6v13M1 17v6h6v-6H1m4 4H3v-2h2v2m12-8v10h6V13h-6m4 8h-2v-6h2v6Z" transform="matrix(1.5 0 0 1.5 468 108)" id="mdi-podium-gold" fill="#fff"/><path d="m20 10.09 2.45 1.49-.65-2.81L24 6.89l-2.89-.25L20 4l-1.13 2.64-2.87.25 2.18 1.88-.68 2.81 2.5-1.49M23 23h-6V13h6v10M1 17v6h6v-6H1m4 4H3v-2h2v2m4-11v13h6V10H9m4 11h-2v-9h2v9Z" transform="matrix(1.5 0 0 1.5 504 108)" id="mdi-podium-silver" fill="#555"/><path d="m20 10.09 2.45 1.49-.65-2.81L24 6.89l-2.89-.25L20 4l-1.13 2.64-2.87.25 2.18 1.88-.68 2.81 2.5-1.49M23 23h-6V13h6v10M1 17v6h6v-6H1m4 4H3v-2h2v2m4-11v13h6V10H9m4 11h-2v-9h2v9Z" transform="matrix(1.5 0 0 1.5 540 108)" id="mdi-podium-silver" fill="#fff"/><path d="M20 5c-.6 0-1 .5-1 1.1V16c0 .6.4 1 1 1.1.6 0 1-.5 1-1.1V6.1c0-.6-.4-1.1-1-1.1m-3.6-3H4.6C3.7 2 3 2.7 3 3.6v13.8c0 .9.7 1.6 1.6 1.6H6v2c0 .6.4 1 1 1h6c.6 0 1-.4 1-1v-2h2.4c.9 0 1.6-.7 1.6-1.6V3.6c0-.9-.7-1.6-1.6-1.6M5 8h3v2H5V8m7 3v2H9v-2h3m-3-1V8h3v2H9m3 4v2H9v-2h3m-7-3h3v2H5v-2m0 5v-2h3v2H5m3 5H7v-2h1v2m5 0h-3v-2h3v2m3-5h-3v-2h3v2m0-3h-3v-2h3v2m0-3h-3V8h3v2m0-4H5V4h11v2Z" transform="matrix(1.5 0 0 1.5 576 108)" id="mdi-point-of-sale" fill="#555"/><path d="M20 5c-.6 0-1 .5-1 1.1V16c0 .6.4 1 1 1.1.6 0 1-.5 1-1.1V6.1c0-.6-.4-1.1-1-1.1m-3.6-3H4.6C3.7 2 3 2.7 3 3.6v13.8c0 .9.7 1.6 1.6 1.6H6v2c0 .6.4 1 1 1h6c.6 0 1-.4 1-1v-2h2.4c.9 0 1.6-.7 1.6-1.6V3.6c0-.9-.7-1.6-1.6-1.6M5 8h3v2H5V8m7 3v2H9v-2h3m-3-1V8h3v2H9m3 4v2H9v-2h3m-7-3h3v2H5v-2m0 5v-2h3v2H5m3 5H7v-2h1v2m5 0h-3v-2h3v2m3-5h-3v-2h3v2m0-3h-3v-2h3v2m0-3h-3V8h3v2m0-4H5V4h11v2Z" transform="matrix(1.5 0 0 1.5 612 108)" id="mdi-point-of-sale" fill="#fff"/><path d="M12 2a10 10 0 0 1 10 10 10 10 0 0 1-10 10A10 10 0 0 1 2 12 10 10 0 0 1 12 2m0 2c-4.08 0-7.45 3.05-7.94 7h4.07c.44-1.73 2.01-3 3.87-3 1.86 0 3.43 1.27 3.87 3h4.07c-.49-3.95-3.86-7-7.94-7m0 16c4.08 0 7.45-3.05 7.94-7h-4.07c-.44 1.73-2.01 3-3.87 3-1.86 0-3.43-1.27-3.87-3H4.06c.49 3.95 3.86 7 7.94 7m0-10a2 2 0 0 0-2 2 2 2 0 0 0 2 2 2 2 0 0 0 2-2 2 2 0 0 0-2-2Z" transform="matrix(1.5 0 0 1.5 648 108)" id="mdi-pokeball" fill="#555"/><path d="M12 2a10 10 0 0 1 10 10 10 10 0 0 1-10 10A10 10 0 0 1 2 12 10 10 0 0 1 12 2m0 2c-4.08 0-7.45 3.05-7.94 7h4.07c.44-1.73 2.01-3 3.87-3 1.86 0 3.43 1.27 3.87 3h4.07c-.49-3.95-3.86-7-7.94-7m0 16c4.08 0 7.45-3.05 7.94-7h-4.07c-.44 1.73-2.01 3-3.87 3-1.86 0-3.43-1.27-3.87-3H4.06c.49 3.95 3.86 7 7.94 7m0-10a2 2 0 0 0-2 2 2 2 0 0 0 2 2 2 2 0 0 0 2-2 2 2 0 0 0-2-2Z" transform="matrix(1.5 0 0 1.5 684 108)" id="mdi-pokeball" fill="#fff"/><path d="M12 2a7 7 0 0 1 7 7c0 1.4-.41 2.71-1.12 3.8L12 22.21 6.12 12.8A6.948 6.948 0 0 1 5 9a7 7 0 0 1 7-7m0 1.5A5.5 5.5 0 0 0 6.59 8h2.58c.41-1.17 1.52-2 2.83-2s2.42.83 2.83 2h2.58A5.5 5.5 0 0 0 12 3.5m0 8.5a2.99 2.99 0 0 1-2.83-2H6.59c.13.69.38 1.34.75 1.91l.04.09A5.51 5.51 0 0 0 12 14.5c1.94 0 3.64-1 4.62-2.5l.04-.09c.37-.57.62-1.22.75-1.91h-2.58A2.99 2.99 0 0 1 12 12m0-4.5A1.5 1.5 0 0 0 10.5 9a1.5 1.5 0 0 0 1.5 1.5A1.5 1.5 0 0 0 13.5 9 1.5 1.5 0 0 0 12 7.5Z" transform="matrix(1.5 0 0 1.5 0 144)" id="mdi-pokemon-go" fill="#555"/><path d="M12 2a7 7 0 0 1 7 7c0 1.4-.41 2.71-1.12 3.8L12 22.21 6.12 12.8A6.948 6.948 0 0 1 5 9a7 7 0 0 1 7-7m0 1.5A5.5 5.5 0 0 0 6.59 8h2.58c.41-1.17 1.52-2 2.83-2s2.42.83 2.83 2h2.58A5.5 5.5 0 0 0 12 3.5m0 8.5a2.99 2.99 0 0 1-2.83-2H6.59c.13.69.38 1.34.75 1.91l.04.09A5.51 5.51 0 0 0 12 14.5c1.94 0 3.64-1 4.62-2.5l.04-.09c.37-.57.62-1.22.75-1.91h-2.58A2.99 2.99 0 0 1 12 12m0-4.5A1.5 1.5 0 0 0 10.5 9a1.5 1.5 0 0 0 1.5 1.5A1.5 1.5 0 0 0 13.5 9 1.5 1.5 0 0 0 12 7.5Z" transform="matrix(1.5 0 0 1.5 36 144)" id="mdi-pokemon-go" fill="#fff"/><path d="M23 12c0 6.08-4.92 11-11 11S1 18.08 1 12 5.92 1 12 1s11 4.92 11 11M13 4.06c2.13.27 4.07 1.39 5.37 3.1l1.74-1A10 10 0 0 0 13 2v2.06m-9.11 2.1 1.74 1A8.022 8.022 0 0 1 11 4.06V2a10 10 0 0 0-7.11 4.16m-1 9.94 1.73-1a8.03 8.03 0 0 1 0-6.2l-1.73-1a9.864 9.864 0 0 0 0 8.2M11 19.94a8.022 8.022 0 0 1-5.37-3.1l-1.74 1A10 10 0 0 0 11 22v-2.06m9.11-2.1-1.74-1a8.022 8.022 0 0 1-5.37 3.1v2c2.85-.29 5.44-1.78 7.11-4.1m1-1.74c1.19-2.6 1.19-5.6 0-8.2l-1.73 1a8.03 8.03 0 0 1 0 6.2l1.73 1M15 12l-3-5-3 5 3 5 3-5Z" transform="matrix(1.5 0 0 1.5 72 144)" id="mdi-poker-chip" fill="#555"/><path d="M23 12c0 6.08-4.92 11-11 11S1 18.08 1 12 5.92 1 12 1s11 4.92 11 11M13 4.06c2.13.27 4.07 1.39 5.37 3.1l1.74-1A10 10 0 0 0 13 2v2.06m-9.11 2.1 1.74 1A8.022 8.022 0 0 1 11 4.06V2a10 10 0 0 0-7.11 4.16m-1 9.94 1.73-1a8.03 8.03 0 0 1 0-6.2l-1.73-1a9.864 9.864 0 0 0 0 8.2M11 19.94a8.022 8.022 0 0 1-5.37-3.1l-1.74 1A10 10 0 0 0 11 22v-2.06m9.11-2.1-1.74-1a8.022 8.022 0 0 1-5.37 3.1v2c2.85-.29 5.44-1.78 7.11-4.1m1-1.74c1.19-2.6 1.19-5.6 0-8.2l-1.73 1a8.03 8.03 0 0 1 0 6.2l1.73 1M15 12l-3-5-3 5 3 5 3-5Z" transform="matrix(1.5 0 0 1.5 108 144)" id="mdi-poker-chip" fill="#fff"/><path d="M6 3h12a2 2 0 0 1 2 2v14a2 2 0 0 1-2 2H6a2 2 0 0 1-2-2V5a2 2 0 0 1 2-2m0 2v12h12V5H6Z" transform="matrix(1.5 0 0 1.5 144 144)" id="mdi-polaroid" fill="#555"/><path d="M6 3h12a2 2 0 0 1 2 2v14a2 2 0 0 1-2 2H6a2 2 0 0 1-2-2V5a2 2 0 0 1 2-2m0 2v12h12V5H6Z" transform="matrix(1.5 0 0 1.5 180 144)" id="mdi-polaroid" fill="#fff"/><path d="m22 4-2-2c-1.15.64-2.6 1-4 1s-2.86-.37-4-1c-1.14.63-2.6 1-4 1s-2.85-.36-4-1L2 4s2 2 2 4-2 6-2 8c0 4 10 6 10 6s10-2 10-6c0-2-2-6-2-8s2-4 2-4m-6.95 12.45-3.08-1.86-3.07 1.86.82-3.5L7 10.61l3.58-.31L11.97 7l1.4 3.29 3.58.31-2.72 2.34.82 3.51Z" transform="matrix(1.5 0 0 1.5 216 144)" id="mdi-police-badge" fill="#555"/><path d="m22 4-2-2c-1.15.64-2.6 1-4 1s-2.86-.37-4-1c-1.14.63-2.6 1-4 1s-2.85-.36-4-1L2 4s2 2 2 4-2 6-2 8c0 4 10 6 10 6s10-2 10-6c0-2-2-6-2-8s2-4 2-4m-6.95 12.45-3.08-1.86-3.07 1.86.82-3.5L7 10.61l3.58-.31L11.97 7l1.4 3.29 3.58.31-2.72 2.34.82 3.51Z" transform="matrix(1.5 0 0 1.5 252 144)" id="mdi-police-badge" fill="#fff"/><path d="M12 4.21c1.24.51 2.65.79 4 .79 1.05 0 2.1-.16 3.08-.46C18.5 5.5 18 6.71 18 8c0 1.32.54 2.93 1.1 4.63.4 1.2.9 2.7.9 3.37 0 1.03-3.53 3-8 3.96C7.54 19 4 17.03 4 16c0-.67.5-2.17.9-3.37C5.46 10.93 6 9.32 6 8c0-1.29-.5-2.5-1.08-3.46C5.9 4.84 6.96 5 8 5c1.35 0 2.76-.28 4-.79M20 2c-1.15.64-2.6 1-4 1s-2.86-.37-4-1c-1.14.63-2.6 1-4 1s-2.85-.36-4-1L2 4s2 2 2 4-2 6-2 8c0 4 10 6 10 6s10-2 10-6c0-2-2-6-2-8s2-4 2-4l-2-2m-4.95 14.45-3.08-1.86-3.07 1.86.82-3.5L7 10.61l3.58-.31L11.97 7l1.4 3.29 3.58.31-2.72 2.34.82 3.51" transform="matrix(1.5 0 0 1.5 288 144)" id="mdi-police-badge-outline" fill="#555"/><path d="M12 4.21c1.24.51 2.65.79 4 .79 1.05 0 2.1-.16 3.08-.46C18.5 5.5 18 6.71 18 8c0 1.32.54 2.93 1.1 4.63.4 1.2.9 2.7.9 3.37 0 1.03-3.53 3-8 3.96C7.54 19 4 17.03 4 16c0-.67.5-2.17.9-3.37C5.46 10.93 6 9.32 6 8c0-1.29-.5-2.5-1.08-3.46C5.9 4.84 6.96 5 8 5c1.35 0 2.76-.28 4-.79M20 2c-1.15.64-2.6 1-4 1s-2.86-.37-4-1c-1.14.63-2.6 1-4 1s-2.85-.36-4-1L2 4s2 2 2 4-2 6-2 8c0 4 10 6 10 6s10-2 10-6c0-2-2-6-2-8s2-4 2-4l-2-2m-4.95 14.45-3.08-1.86-3.07 1.86.82-3.5L7 10.61l3.58-.31L11.97 7l1.4 3.29 3.58.31-2.72 2.34.82 3.51" transform="matrix(1.5 0 0 1.5 324 144)" id="mdi-police-badge-outline" fill="#fff"/><path d="M12 10s4-.8 4-2.4c0-.8-.8-2.4-.8-3.2 0-.8.8-1.6.8-1.6l-.8-.8c-.46.26-1.04.4-1.6.4S12.46 2.25 12 2c-.46.25-1.04.4-1.6.4S9.26 2.26 8.8 2l-.8.8s.8.8.8 1.6S8 6.8 8 7.6c0 1.6 4 2.4 4 2.4m-.57-4.68L12 4l.55 1.32 1.45.12-1.11.94.33 1.4L12 7.04l-1.24.74.33-1.4L10 5.44l1.43-.12M21 6h-4.35c.19.58.35 1.12.35 1.6 0 2.25-3.68 3.16-4.8 3.4h-.4C10.68 10.76 7 9.85 7 7.6c0-.48.16-1.02.35-1.6H3c-.55 0-1 .45-1 1v15h8v-5h4v5h8V7c0-.55-.45-1-1-1M8 20H4v-3h4v3m0-5H4v-3h4v3m6 0h-4v-3h4v3m6 5h-4v-3h4v3m0-5h-4v-3h4v3Z" transform="matrix(1.5 0 0 1.5 360 144)" id="mdi-police-station" fill="#555"/><path d="M12 10s4-.8 4-2.4c0-.8-.8-2.4-.8-3.2 0-.8.8-1.6.8-1.6l-.8-.8c-.46.26-1.04.4-1.6.4S12.46 2.25 12 2c-.46.25-1.04.4-1.6.4S9.26 2.26 8.8 2l-.8.8s.8.8.8 1.6S8 6.8 8 7.6c0 1.6 4 2.4 4 2.4m-.57-4.68L12 4l.55 1.32 1.45.12-1.11.94.33 1.4L12 7.04l-1.24.74.33-1.4L10 5.44l1.43-.12M21 6h-4.35c.19.58.35 1.12.35 1.6 0 2.25-3.68 3.16-4.8 3.4h-.4C10.68 10.76 7 9.85 7 7.6c0-.48.16-1.02.35-1.6H3c-.55 0-1 .45-1 1v15h8v-5h4v5h8V7c0-.55-.45-1-1-1M8 20H4v-3h4v3m0-5H4v-3h4v3m6 0h-4v-3h4v3m6 5h-4v-3h4v3m0-5h-4v-3h4v3Z" transform="matrix(1.5 0 0 1.5 396 144)" id="mdi-police-station" fill="#fff"/><path d="M3 22V8h4v14H3m7 0V2h4v20h-4m7 0v-8h4v8h-4Z" transform="matrix(1.5 0 0 1.5 432 144)" id="mdi-poll" fill="#555"/><path d="M3 22V8h4v14H3m7 0V2h4v20h-4m7 0v-8h4v8h-4Z" transform="matrix(1.5 0 0 1.5 468 144)" id="mdi-poll" fill="#fff"/><path d="M22 9.5a2.5 2.5 0 0 1-5 0 2.5 2.5 0 0 1 5 0M11 17V3H8v14H2l4 4h7v-4h-2m5 0h-2v4h2v-4Z" transform="matrix(1.5 0 0 1.5 504 144)" id="mdi-polo" fill="#555"/><path d="M22 9.5a2.5 2.5 0 0 1-5 0 2.5 2.5 0 0 1 5 0M11 17V3H8v14H2l4 4h7v-4h-2m5 0h-2v4h2v-4Z" transform="matrix(1.5 0 0 1.5 540 144)" id="mdi-polo" fill="#fff"/><path d="M19 4h-4L7.1 16.63 4.5 12 9 4H5L.5 12 5 20h4l7.89-12.63L19.5 12 15 20h4l4.5-8L19 4Z" transform="matrix(1.5 0 0 1.5 576 144)" id="mdi-polymer" fill="#555"/><path d="M19 4h-4L7.1 16.63 4.5 12 9 4H5L.5 12 5 20h4l7.89-12.63L19.5 12 15 20h4l4.5-8L19 4Z" transform="matrix(1.5 0 0 1.5 612 144)" id="mdi-polymer" fill="#fff"/><path d="M2 15c1.67-.75 3.33-1.5 5-1.83V5a3 3 0 0 1 3-3c1.31 0 2.42.83 2.83 2H10a1 1 0 0 0-1 1v1h5V5a3 3 0 0 1 3-3c1.31 0 2.42.83 2.83 2H17a1 1 0 0 0-1 1v9.94c2-.32 4-1.94 6-1.94v2c-2.22 0-4.44 2-6.67 2-2.22 0-4.44-2-6.66-2-2.23 0-4.45 1-6.67 2v-2m12-7H9v2h5V8m0 4H9v1c1.67.16 3.33 1.31 5 1.79V12M2 19c2.22-1 4.44-2 6.67-2 2.22 0 4.44 2 6.66 2 2.23 0 4.45-2 6.67-2v2c-2.22 0-4.44 2-6.67 2-2.22 0-4.44-2-6.66-2-2.23 0-4.45 1-6.67 2v-2Z" transform="matrix(1.5 0 0 1.5 648 144)" id="mdi-pool" fill="#555"/><path d="M2 15c1.67-.75 3.33-1.5 5-1.83V5a3 3 0 0 1 3-3c1.31 0 2.42.83 2.83 2H10a1 1 0 0 0-1 1v1h5V5a3 3 0 0 1 3-3c1.31 0 2.42.83 2.83 2H17a1 1 0 0 0-1 1v9.94c2-.32 4-1.94 6-1.94v2c-2.22 0-4.44 2-6.67 2-2.22 0-4.44-2-6.66-2-2.23 0-4.45 1-6.67 2v-2m12-7H9v2h5V8m0 4H9v1c1.67.16 3.33 1.31 5 1.79V12M2 19c2.22-1 4.44-2 6.67-2 2.22 0 4.44 2 6.66 2 2.23 0 4.45-2 6.67-2v2c-2.22 0-4.44 2-6.67 2-2.22 0-4.44-2-6.66-2-2.23 0-4.45 1-6.67 2v-2Z" transform="matrix(1.5 0 0 1.5 684 144)" id="mdi-pool" fill="#fff"/><path d="M19 6c-1.1 0-2 .9-2 2v6.8c-.6.6-1 1.4-1 2.2 0 1.7 1.3 3 3 3s3-1.3 3-3c0-.9-.4-1.7-1-2.2V8c0-1.1-.9-2-2-2m0 1c.5 0 1 .4 1 1v1h-2V8c0-.6.5-1 1-1m-4 13.3c-.9.4-1.8.7-2.7.7-2.2 0-4.4-2-6.7-2-1.2 0-2.4.3-3.7.7v-2c1.3-.4 2.5-.7 3.8-.7 2.2 0 4.4 2 6.7 2 .9 0 1.8-.3 2.7-.7v2M12.3 17c.9 0 1.8-.3 2.7-.7v-2c-.7.3-1.3.5-2 .7V5c0-.6.4-1 1-1h2.8c-.4-1.2-1.5-2-2.8-2-1.7 0-3 1.3-3 3v1H6V5c0-.6.4-1 1-1h2.8C9.4 2.8 8.3 2 7 2 5.3 2 4 3.3 4 5v8.2c-.7.1-1.3.3-2 .6v2c1.2-.5 2.4-.8 3.7-.8 2.2 0 4.4 2 6.6 2M6 8h5v2H6V8m0 4h5v2.8c-1.7-.5-3.3-1.6-5-1.8v-1Z" transform="matrix(1.5 0 0 1.5 0 180)" id="mdi-pool-thermometer" fill="#555"/><path d="M19 6c-1.1 0-2 .9-2 2v6.8c-.6.6-1 1.4-1 2.2 0 1.7 1.3 3 3 3s3-1.3 3-3c0-.9-.4-1.7-1-2.2V8c0-1.1-.9-2-2-2m0 1c.5 0 1 .4 1 1v1h-2V8c0-.6.5-1 1-1m-4 13.3c-.9.4-1.8.7-2.7.7-2.2 0-4.4-2-6.7-2-1.2 0-2.4.3-3.7.7v-2c1.3-.4 2.5-.7 3.8-.7 2.2 0 4.4 2 6.7 2 .9 0 1.8-.3 2.7-.7v2M12.3 17c.9 0 1.8-.3 2.7-.7v-2c-.7.3-1.3.5-2 .7V5c0-.6.4-1 1-1h2.8c-.4-1.2-1.5-2-2.8-2-1.7 0-3 1.3-3 3v1H6V5c0-.6.4-1 1-1h2.8C9.4 2.8 8.3 2 7 2 5.3 2 4 3.3 4 5v8.2c-.7.1-1.3.3-2 .6v2c1.2-.5 2.4-.8 3.7-.8 2.2 0 4.4 2 6.6 2M6 8h5v2H6V8m0 4h5v2.8c-1.7-.5-3.3-1.6-5-1.8v-1Z" transform="matrix(1.5 0 0 1.5 36 180)" id="mdi-pool-thermometer" fill="#fff"/><path d="M7 22H4.75s-.75 0-.94-1.35L2.04 3.81 2 3.5C2 2.67 2.9 2 4 2s2 .67 2 1.5C6 2.67 6.9 2 8 2s2 .67 2 1.5c0-.83.9-1.5 2-1.5 1.09 0 2 .66 2 1.5 0-.83.9-1.5 2-1.5s2 .67 2 1.5c0-.83.9-1.5 2-1.5s2 .67 2 1.5l-.04.31-1.77 16.84C20 22 19.25 22 19.25 22H7M17.85 4.93C17.55 4.39 16.84 4 16 4c-.81 0-1.64.36-2 .87L13.78 20h2.88l1.19-15.07M10 4.87C9.64 4.36 8.81 4 8 4c-.84 0-1.55.39-1.85.93L7.34 20h2.88L10 4.87Z" transform="matrix(1.5 0 0 1.5 72 180)" id="mdi-popcorn" fill="#555"/><path d="M7 22H4.75s-.75 0-.94-1.35L2.04 3.81 2 3.5C2 2.67 2.9 2 4 2s2 .67 2 1.5C6 2.67 6.9 2 8 2s2 .67 2 1.5c0-.83.9-1.5 2-1.5 1.09 0 2 .66 2 1.5 0-.83.9-1.5 2-1.5s2 .67 2 1.5c0-.83.9-1.5 2-1.5s2 .67 2 1.5l-.04.31-1.77 16.84C20 22 19.25 22 19.25 22H7M17.85 4.93C17.55 4.39 16.84 4 16 4c-.81 0-1.64.36-2 .87L13.78 20h2.88l1.19-15.07M10 4.87C9.64 4.36 8.81 4 8 4c-.84 0-1.55.39-1.85.93L7.34 20h2.88L10 4.87Z" transform="matrix(1.5 0 0 1.5 108 180)" id="mdi-popcorn" fill="#fff"/><path d="M3 3v18h18V3H3m15 15H6v-1h12v1m0-2H6v-1h12v1m0-4H6V6h12v6Z" transform="matrix(1.5 0 0 1.5 144 180)" id="mdi-post" fill="#555"/><path d="M3 3v18h18V3H3m15 15H6v-1h12v1m0-2H6v-1h12v1m0-4H6V6h12v6Z" transform="matrix(1.5 0 0 1.5 180 180)" id="mdi-post" fill="#fff"/><path d="m14 3-1-2h-2l-1 2-5 3h2l1 8 2 2 .5 1H9v6h6v-6h-1.5l.5-1 2-2 1-8h2l-5-3m.16 10H9.84L9 6h6l-.84 7Z" transform="matrix(1.5 0 0 1.5 216 180)" id="mdi-post-lamp" fill="#555"/><path d="m14 3-1-2h-2l-1 2-5 3h2l1 8 2 2 .5 1H9v6h6v-6h-1.5l.5-1 2-2 1-8h2l-5-3m.16 10H9.84L9 6h6l-.84 7Z" transform="matrix(1.5 0 0 1.5 252 180)" id="mdi-post-lamp" fill="#fff"/><path d="M19 5v14H5V5h14m2-2H3v18h18V3m-4 14H7v-1h10v1m0-2H7v-1h10v1m0-3H7V7h10v5Z" transform="matrix(1.5 0 0 1.5 288 180)" id="mdi-post-outline" fill="#555"/><path d="M19 5v14H5V5h14m2-2H3v18h18V3m-4 14H7v-1h10v1m0-2H7v-1h10v1m0-3H7V7h10v5Z" transform="matrix(1.5 0 0 1.5 324 180)" id="mdi-post-outline" fill="#fff"/><path d="M2 2v3.5c1.1 0 2 1.12 2 2.5s-.9 2.5-2 2.5v3c1.1 0 2 1.12 2 2.5s-.9 2.5-2 2.5V22h3.5c0-1.1 1.12-2 2.5-2s2.5.9 2.5 2h3c0-1.1 1.12-2 2.5-2s2.5.9 2.5 2H22v-3.5c-1.1 0-2-1.12-2-2.5s.9-2.5 2-2.5v-3c-1.1 0-2-1.12-2-2.5s.9-2.5 2-2.5V2h-3.5c0 1.1-1.12 2-2.5 2s-2.5-.9-2.5-2h-3c0 1.1-1.12 2-2.5 2s-2.5-.9-2.5-2H2m4 4h12v12H6V6m3 1a2 2 0 0 0-2 2 2 2 0 0 0 2 2 2 2 0 0 0 2-2 2 2 0 0 0-2-2m8 3-3 3-2-1-5 5h10v-7Z" transform="matrix(1.5 0 0 1.5 360 180)" id="mdi-postage-stamp" fill="#555"/><path d="M2 2v3.5c1.1 0 2 1.12 2 2.5s-.9 2.5-2 2.5v3c1.1 0 2 1.12 2 2.5s-.9 2.5-2 2.5V22h3.5c0-1.1 1.12-2 2.5-2s2.5.9 2.5 2h3c0-1.1 1.12-2 2.5-2s2.5.9 2.5 2H22v-3.5c-1.1 0-2-1.12-2-2.5s.9-2.5 2-2.5v-3c-1.1 0-2-1.12-2-2.5s.9-2.5 2-2.5V2h-3.5c0 1.1-1.12 2-2.5 2s-2.5-.9-2.5-2h-3c0 1.1-1.12 2-2.5 2s-2.5-.9-2.5-2H2m4 4h12v12H6V6m3 1a2 2 0 0 0-2 2 2 2 0 0 0 2 2 2 2 0 0 0 2-2 2 2 0 0 0-2-2m8 3-3 3-2-1-5 5h10v-7Z" transform="matrix(1.5 0 0 1.5 396 180)" id="mdi-postage-stamp" fill="#fff"/><path d="M19 19c0 1.1-.9 2-2 2H7c-1.1 0-2-.9-2-2v-7H3v-2h18v2h-2v7Z" transform="matrix(1.5 0 0 1.5 432 180)" id="mdi-pot" fill="#555"/><path d="M19 19c0 1.1-.9 2-2 2H7c-1.1 0-2-.9-2-2v-7H3v-2h18v2h-2v7Z" transform="matrix(1.5 0 0 1.5 468 180)" id="mdi-pot" fill="#fff"/><path d="M14.6 9 18 3.1l1.7 1L16.9 9h-2.3m-.6 1H3v2h2v7c0 1.1.9 2 2 2h10c1.1 0 2-.9 2-2v-7h2v-2h-7Z" transform="matrix(1.5 0 0 1.5 504 180)" id="mdi-pot-mix" fill="#555"/><path d="M14.6 9 18 3.1l1.7 1L16.9 9h-2.3m-.6 1H3v2h2v7c0 1.1.9 2 2 2h10c1.1 0 2-.9 2-2v-7h2v-2h-7Z" transform="matrix(1.5 0 0 1.5 540 180)" id="mdi-pot-mix" fill="#fff"/><path d="M14.6 9 18 3.1l1.7 1L16.9 9h-2.3m1.7 1H21v2h-2v7c0 1.1-.9 2-2 2H7c-1.1 0-2-.9-2-2v-7H3v-2h13.3m.7 2H7v7h10v-7Z" transform="matrix(1.5 0 0 1.5 576 180)" id="mdi-pot-mix-outline" fill="#555"/><path d="M14.6 9 18 3.1l1.7 1L16.9 9h-2.3m1.7 1H21v2h-2v7c0 1.1-.9 2-2 2H7c-1.1 0-2-.9-2-2v-7H3v-2h13.3m.7 2H7v7h10v-7Z" transform="matrix(1.5 0 0 1.5 612 180)" id="mdi-pot-mix-outline" fill="#fff"/><path d="M3 10v2h2v7c0 1.1.9 2 2 2h10c1.1 0 2-.9 2-2v-7h2v-2H3m4 2h10v7H7v-7Z" transform="matrix(1.5 0 0 1.5 648 180)" id="mdi-pot-outline" fill="#555"/><path d="M3 10v2h2v7c0 1.1.9 2 2 2h10c1.1 0 2-.9 2-2v-7h2v-2H3m4 2h10v7H7v-7Z" transform="matrix(1.5 0 0 1.5 684 180)" id="mdi-pot-outline" fill="#fff"/><path d="M19 19c0 1.11-.89 2-2 2H7a2 2 0 0 1-2-2v-7H3v-2h18v2h-2M8 1.5a3.35 3.35 0 0 0 0 6.7h1.53c.39 0 .76.1 1.08.3h2.02c-.58-1.05-1.77-1.75-3.1-1.75H8c-1 0-1.85-.98-1.85-2S7 3 8 3m4.85-1c0 1-.85 1.85-1.85 1.85v1.5c1.92 0 3.5 1.35 3.89 3.15h1.53a5.541 5.541 0 0 0-3.07-4.12c.62-.61 1-1.45 1-2.38Z" transform="matrix(1.5 0 0 1.5 0 216)" id="mdi-pot-steam" fill="#555"/><path d="M19 19c0 1.11-.89 2-2 2H7a2 2 0 0 1-2-2v-7H3v-2h18v2h-2M8 1.5a3.35 3.35 0 0 0 0 6.7h1.53c.39 0 .76.1 1.08.3h2.02c-.58-1.05-1.77-1.75-3.1-1.75H8c-1 0-1.85-.98-1.85-2S7 3 8 3m4.85-1c0 1-.85 1.85-1.85 1.85v1.5c1.92 0 3.5 1.35 3.89 3.15h1.53a5.541 5.541 0 0 0-3.07-4.12c.62-.61 1-1.45 1-2.38Z" transform="matrix(1.5 0 0 1.5 36 216)" id="mdi-pot-steam" fill="#fff"/><path d="M8 1.5a3.35 3.35 0 0 0 0 6.7h1.53c.39 0 .76.1 1.08.3h2.02c-.58-1.05-1.77-1.75-3.1-1.75H8c-1 0-1.85-.98-1.85-2S7 3 8 3V1.5m4.85.5c0 1-.85 1.85-1.85 1.85v1.5c1.92 0 3.5 1.35 3.89 3.15h1.53a5.541 5.541 0 0 0-3.07-4.12c.62-.61 1-1.45 1-2.38h-1.5M3 10v2h2v7a2 2 0 0 0 2 2h10c1.11 0 2-.89 2-2v-7h2v-2H3m4 2h10v7H7v-7Z" transform="matrix(1.5 0 0 1.5 72 216)" id="mdi-pot-steam-outline" fill="#555"/><path d="M8 1.5a3.35 3.35 0 0 0 0 6.7h1.53c.39 0 .76.1 1.08.3h2.02c-.58-1.05-1.77-1.75-3.1-1.75H8c-1 0-1.85-.98-1.85-2S7 3 8 3V1.5m4.85.5c0 1-.85 1.85-1.85 1.85v1.5c1.92 0 3.5 1.35 3.89 3.15h1.53a5.541 5.541 0 0 0-3.07-4.12c.62-.61 1-1.45 1-2.38h-1.5M3 10v2h2v7a2 2 0 0 0 2 2h10c1.11 0 2-.89 2-2v-7h2v-2H3m4 2h10v7H7v-7Z" transform="matrix(1.5 0 0 1.5 108 216)" id="mdi-pot-steam-outline" fill="#fff"/><path d="m5.41 21 .71-4h-4l.35-2h4l1.06-6h-4l.35-2h4l.71-4h2l-.71 4h6l.71-4h2l-.71 4h4l-.35 2h-4l-1.06 6h4l-.35 2h-4l-.71 4h-2l.71-4h-6l-.71 4h-2M9.53 9l-1.06 6h6l1.06-6h-6Z" transform="matrix(1.5 0 0 1.5 144 216)" id="mdi-pound" fill="#555"/><path d="m5.41 21 .71-4h-4l.35-2h4l1.06-6h-4l.35-2h4l.71-4h2l-.71 4h6l.71-4h2l-.71 4h4l-.35 2h-4l-1.06 6h4l-.35 2h-4l-.71 4h-2l.71-4h-6l-.71 4h-2M9.53 9l-1.06 6h6l1.06-6h-6Z" transform="matrix(1.5 0 0 1.5 180 216)" id="mdi-pound" fill="#fff"/><path d="M3 5a2 2 0 0 1 2-2h14a2 2 0 0 1 2 2v14a2 2 0 0 1-2 2H5a2 2 0 0 1-2-2V5m4 13h2l.35-2h4L13 18h2l.35-2h2l.36-2h-2l.7-4h2l.35-2h-2l.36-2h-2l-.36 2h-4l.36-2h-2l-.36 2h-2l-.35 2h2l-.7 4h-2l-.36 2h2L7 18m3.41-8h4l-.7 4h-4l.7-4Z" transform="matrix(1.5 0 0 1.5 216 216)" id="mdi-pound-box" fill="#555"/><path d="M3 5a2 2 0 0 1 2-2h14a2 2 0 0 1 2 2v14a2 2 0 0 1-2 2H5a2 2 0 0 1-2-2V5m4 13h2l.35-2h4L13 18h2l.35-2h2l.36-2h-2l.7-4h2l.35-2h-2l.36-2h-2l-.36 2h-4l.36-2h-2l-.36 2h-2l-.35 2h2l-.7 4h-2l-.36 2h2L7 18m3.41-8h4l-.7 4h-4l.7-4Z" transform="matrix(1.5 0 0 1.5 252 216)" id="mdi-pound-box" fill="#fff"/><path d="M19 19H5V5h14m0-2H5a2 2 0 0 0-2 2v14a2 2 0 0 0 2 2h14a2 2 0 0 0 2-2V5a2 2 0 0 0-2-2M7 9h2.31l.32-3h2l-.32 3h2l.32-3h2l-.32 3H17v2h-1.9l-.2 2H17v2h-2.31l-.32 3h-2l.32-3h-2l-.32 3h-2l.32-3H7v-2h1.9l.2-2H7V9m4.1 2-.2 2h2l.2-2Z" transform="matrix(1.5 0 0 1.5 288 216)" id="mdi-pound-box-outline" fill="#555"/><path d="M19 19H5V5h14m0-2H5a2 2 0 0 0-2 2v14a2 2 0 0 0 2 2h14a2 2 0 0 0 2-2V5a2 2 0 0 0-2-2M7 9h2.31l.32-3h2l-.32 3h2l.32-3h2l-.32 3H17v2h-1.9l-.2 2H17v2h-2.31l-.32 3h-2l.32-3h-2l-.32 3h-2l.32-3H7v-2h1.9l.2-2H7V9m4.1 2-.2 2h2l.2-2Z" transform="matrix(1.5 0 0 1.5 324 216)" id="mdi-pound-box-outline" fill="#fff"/><path d="m16.56 5.44-1.45 1.45A5.969 5.969 0 0 1 18 12a6 6 0 0 1-6 6 6 6 0 0 1-6-6c0-2.17 1.16-4.06 2.88-5.12L7.44 5.44A7.961 7.961 0 0 0 4 12a8 8 0 0 0 8 8 8 8 0 0 0 8-8c0-2.72-1.36-5.12-3.44-6.56M13 3h-2v10h2" transform="matrix(1.5 0 0 1.5 360 216)" id="mdi-power" fill="#555"/><path d="m16.56 5.44-1.45 1.45A5.969 5.969 0 0 1 18 12a6 6 0 0 1-6 6 6 6 0 0 1-6-6c0-2.17 1.16-4.06 2.88-5.12L7.44 5.44A7.961 7.961 0 0 0 4 12a8 8 0 0 0 8 8 8 8 0 0 0 8-8c0-2.72-1.36-5.12-3.44-6.56M13 3h-2v10h2" transform="matrix(1.5 0 0 1.5 396 216)" id="mdi-power" fill="#fff"/><path d="M12 3a9 9 0 0 0-9 9 9 9 0 0 0 9 9 9 9 0 0 0 9-9 9 9 0 0 0-9-9m0 16a7 7 0 0 1-7-7 7 7 0 0 1 7-7 7 7 0 0 1 7 7 7 7 0 0 1-7 7m1-2h-2V7h2v10Z" transform="matrix(1.5 0 0 1.5 432 216)" id="mdi-power-cycle" fill="#555"/><path d="M12 3a9 9 0 0 0-9 9 9 9 0 0 0 9 9 9 9 0 0 0 9-9 9 9 0 0 0-9-9m0 16a7 7 0 0 1-7-7 7 7 0 0 1 7-7 7 7 0 0 1 7 7 7 7 0 0 1-7 7m1-2h-2V7h2v10Z" transform="matrix(1.5 0 0 1.5 468 216)" id="mdi-power-cycle" fill="#fff"/><path d="M12 3a9 9 0 0 0-9 9 9 9 0 0 0 9 9 9 9 0 0 0 9-9 9 9 0 0 0-9-9m0 16a7 7 0 0 1-7-7 7 7 0 0 1 7-7 7 7 0 0 1 7 7 7 7 0 0 1-7 7Z" transform="matrix(1.5 0 0 1.5 504 216)" id="mdi-power-off" fill="#555"/><path d="M12 3a9 9 0 0 0-9 9 9 9 0 0 0 9 9 9 9 0 0 0 9-9 9 9 0 0 0-9-9m0 16a7 7 0 0 1-7-7 7 7 0 0 1 7-7 7 7 0 0 1 7 7 7 7 0 0 1-7 7Z" transform="matrix(1.5 0 0 1.5 540 216)" id="mdi-power-off" fill="#fff"/><path d="M11 3h2v18h-2V3Z" transform="matrix(1.5 0 0 1.5 576 216)" id="mdi-power-on" fill="#555"/><path d="M11 3h2v18h-2V3Z" transform="matrix(1.5 0 0 1.5 612 216)" id="mdi-power-on" fill="#fff"/><path d="M16 7V3h-2v4h-4V3H8v4C7 7 6 8 6 9v5.5L9.5 18v3h5v-3l3.5-3.5V9c0-1-1-2-2-2Z" transform="matrix(1.5 0 0 1.5 648 216)" id="mdi-power-plug" fill="#555"/><path d="M16 7V3h-2v4h-4V3H8v4C7 7 6 8 6 9v5.5L9.5 18v3h5v-3l3.5-3.5V9c0-1-1-2-2-2Z" transform="matrix(1.5 0 0 1.5 684 216)" id="mdi-power-plug" fill="#fff"/><path d="m20.84 22.73-5.53-5.53-.81.8v3h-5v-3L6 14.5V9c0-.3.1-.59.25-.86L1.11 3l1.28-1.27 19.72 19.73-1.27 1.27M18 14.5V9c0-1-1-2-2-2V3h-2v4h-3.8l7.65 7.65.15-.15M10 3H8v1.8l2 2V3Z" transform="matrix(1.5 0 0 1.5 0 252)" id="mdi-power-plug-off" fill="#555"/><path d="m20.84 22.73-5.53-5.53-.81.8v3h-5v-3L6 14.5V9c0-.3.1-.59.25-.86L1.11 3l1.28-1.27 19.72 19.73-1.27 1.27M18 14.5V9c0-1-1-2-2-2V3h-2v4h-3.8l7.65 7.65.15-.15M10 3H8v1.8l2 2V3Z" transform="matrix(1.5 0 0 1.5 36 252)" id="mdi-power-plug-off" fill="#fff"/><path d="M22.11 21.46 2.39 1.73 1.11 3l5.14 5.14C6.1 8.41 6 8.7 6 9v5.5L9.5 18v3h5v-3l.81-.8 5.53 5.53 1.27-1.27m-9.02-4.87-.42.41h-1.34l-.41-.41L8 13.67V9.89l5.89 5.89-.8.81M12.2 9l-2-2H14V3h2v4c1 0 2 1 2 2v5.5l-.15.15L16 12.8V9.09c0-.03-.05-.09-.08-.09H12.2M10 6.8l-2-2V3h2v3.8Z" transform="matrix(1.5 0 0 1.5 72 252)" id="mdi-power-plug-off-outline" fill="#555"/><path d="M22.11 21.46 2.39 1.73 1.11 3l5.14 5.14C6.1 8.41 6 8.7 6 9v5.5L9.5 18v3h5v-3l.81-.8 5.53 5.53 1.27-1.27m-9.02-4.87-.42.41h-1.34l-.41-.41L8 13.67V9.89l5.89 5.89-.8.81M12.2 9l-2-2H14V3h2v4c1 0 2 1 2 2v5.5l-.15.15L16 12.8V9.09c0-.03-.05-.09-.08-.09H12.2M10 6.8l-2-2V3h2v3.8Z" transform="matrix(1.5 0 0 1.5 108 252)" id="mdi-power-plug-off-outline" fill="#fff"/><path d="M16 7V3h-2v4h-4V3H8v4C7 7 6 8 6 9v5.5L9.5 18v3h5v-3l3.5-3.5V9c0-1-1-2-2-2m0 6.67-2.91 2.92-.42.41h-1.34l-.41-.41L8 13.67V9.09c0-.03.06-.09.09-.09h7.83c.03 0 .08.06.08.09v4.58Z" transform="matrix(1.5 0 0 1.5 144 252)" id="mdi-power-plug-outline" fill="#555"/><path d="M16 7V3h-2v4h-4V3H8v4C7 7 6 8 6 9v5.5L9.5 18v3h5v-3l3.5-3.5V9c0-1-1-2-2-2m0 6.67-2.91 2.92-.42.41h-1.34l-.41-.41L8 13.67V9.09c0-.03.06-.09.09-.09h7.83c.03 0 .08.06.08.09v4.58Z" transform="matrix(1.5 0 0 1.5 180 252)" id="mdi-power-plug-outline" fill="#fff"/><path d="M15 24h2v-2h-2m1.56-17.56-1.45 1.45A5.969 5.969 0 0 1 18 11a6 6 0 0 1-6 6 6 6 0 0 1-6-6c0-2.17 1.16-4.06 2.88-5.12L7.44 4.44A7.961 7.961 0 0 0 4 11a8 8 0 0 0 8 8 8 8 0 0 0 8-8c0-2.72-1.36-5.12-3.44-6.56M13 2h-2v10h2m-2 12h2v-2h-2m-4 2h2v-2H7v2Z" transform="matrix(1.5 0 0 1.5 216 252)" id="mdi-power-settings" fill="#555"/><path d="M15 24h2v-2h-2m1.56-17.56-1.45 1.45A5.969 5.969 0 0 1 18 11a6 6 0 0 1-6 6 6 6 0 0 1-6-6c0-2.17 1.16-4.06 2.88-5.12L7.44 4.44A7.961 7.961 0 0 0 4 11a8 8 0 0 0 8 8 8 8 0 0 0 8-8c0-2.72-1.36-5.12-3.44-6.56M13 2h-2v10h2m-2 12h2v-2h-2m-4 2h2v-2H7v2Z" transform="matrix(1.5 0 0 1.5 252 252)" id="mdi-power-settings" fill="#fff"/><path d="M18.73 18c-3.33 3.69-9.02 4-12.73.64-3.67-3.33-3.96-9.02-.63-12.71A9.052 9.052 0 0 1 11.27 3c-3.31 3.7-3 9.39.73 12.71 1.63 1.48 3.78 2.29 6 2.29h.73Z" transform="matrix(1.5 0 0 1.5 288 252)" id="mdi-power-sleep" fill="#555"/><path d="M18.73 18c-3.33 3.69-9.02 4-12.73.64-3.67-3.33-3.96-9.02-.63-12.71A9.052 9.052 0 0 1 11.27 3c-3.31 3.7-3 9.39.73 12.71 1.63 1.48 3.78 2.29 6 2.29h.73Z" transform="matrix(1.5 0 0 1.5 324 252)" id="mdi-power-sleep" fill="#fff"/><path d="M15 15h2v-4h-2m-8 4h2v-4H7m4 2h2V9h-2M8.83 7h6.37l3.8 3.8V17H5v-6.2M8 5l-5 5v9h18v-9l-5-5H8Z" transform="matrix(1.5 0 0 1.5 360 252)" id="mdi-power-socket" fill="#555"/><path d="M15 15h2v-4h-2m-8 4h2v-4H7m4 2h2V9h-2M8.83 7h6.37l3.8 3.8V17H5v-6.2M8 5l-5 5v9h18v-9l-5-5H8Z" transform="matrix(1.5 0 0 1.5 396 252)" id="mdi-power-socket" fill="#fff"/><path d="M4.22 2A2.22 2.22 0 0 0 2 4.22v15.56C2 21 3 22 4.22 22h15.56A2.22 2.22 0 0 0 22 19.78V4.22C22 3 21 2 19.78 2H4.22M12 4a8 8 0 0 1 8 8 8 8 0 0 1-8 8 8 8 0 0 1-8-8 8 8 0 0 1 8-8M8.27 7.54l-2 3.46L8 12l2-3.46-1.73-1m7.46 0-1.73 1L16 12l1.73-1-2-3.46M11 14v4h2v-4h-2Z" transform="matrix(1.5 0 0 1.5 432 252)" id="mdi-power-socket-au" fill="#555"/><path d="M4.22 2A2.22 2.22 0 0 0 2 4.22v15.56C2 21 3 22 4.22 22h15.56A2.22 2.22 0 0 0 22 19.78V4.22C22 3 21 2 19.78 2H4.22M12 4a8 8 0 0 1 8 8 8 8 0 0 1-8 8 8 8 0 0 1-8-8 8 8 0 0 1 8-8M8.27 7.54l-2 3.46L8 12l2-3.46-1.73-1m7.46 0-1.73 1L16 12l1.73-1-2-3.46M11 14v4h2v-4h-2Z" transform="matrix(1.5 0 0 1.5 468 252)" id="mdi-power-socket-au" fill="#fff"/><path d="M19.78 2H4.22C3 2 2 3 2 4.22v15.56C2 21 3 22 4.22 22h15.56C21 22 22 21 22 19.78V4.22C22 3 21 2 19.78 2M20 13l-3.45 3.45c-.36.36-.8.55-1.25.55H8.7c-.45 0-.89-.19-1.25-.55L4 13c-.5-.5-.5-1.5 0-2l3.45-3.45c.36-.36.8-.55 1.25-.55h6.6c.45 0 .89.19 1.25.55L20 11c.5.5.5 1.5 0 2m-9.5 1c0-.83.67-1.5 1.5-1.5s1.5.67 1.5 1.5-.67 1.5-1.5 1.5-1.5-.67-1.5-1.5m5-2c0-.83.67-1.5 1.5-1.5s1.5.67 1.5 1.5-.67 1.5-1.5 1.5-1.5-.67-1.5-1.5m-10 0c0-.83.67-1.5 1.5-1.5s1.5.67 1.5 1.5-.67 1.5-1.5 1.5-1.5-.67-1.5-1.5Z" transform="matrix(1.5 0 0 1.5 504 252)" id="mdi-power-socket-ch" fill="#555"/><path d="M19.78 2H4.22C3 2 2 3 2 4.22v15.56C2 21 3 22 4.22 22h15.56C21 22 22 21 22 19.78V4.22C22 3 21 2 19.78 2M20 13l-3.45 3.45c-.36.36-.8.55-1.25.55H8.7c-.45 0-.89-.19-1.25-.55L4 13c-.5-.5-.5-1.5 0-2l3.45-3.45c.36-.36.8-.55 1.25-.55h6.6c.45 0 .89.19 1.25.55L20 11c.5.5.5 1.5 0 2m-9.5 1c0-.83.67-1.5 1.5-1.5s1.5.67 1.5 1.5-.67 1.5-1.5 1.5-1.5-.67-1.5-1.5m5-2c0-.83.67-1.5 1.5-1.5s1.5.67 1.5 1.5-.67 1.5-1.5 1.5-1.5-.67-1.5-1.5m-10 0c0-.83.67-1.5 1.5-1.5s1.5.67 1.5 1.5-.67 1.5-1.5 1.5-1.5-.67-1.5-1.5Z" transform="matrix(1.5 0 0 1.5 540 252)" id="mdi-power-socket-ch" fill="#fff"/><path d="M4.22 2A2.22 2.22 0 0 0 2 4.22v15.56C2 21 3 22 4.22 22h15.56A2.22 2.22 0 0 0 22 19.78V4.22C22 3 21 2 19.78 2H4.22M11 4.07V6h2V4.07A8 8 0 0 1 20 12a8 8 0 0 1-7 7.93V18h-2v1.93A8 8 0 0 1 4 12a8 8 0 0 1 7-7.93M7.5 10.5A1.5 1.5 0 0 0 6 12c0 .83.66 1.5 1.5 1.5A1.5 1.5 0 0 0 9 12a1.5 1.5 0 0 0-1.5-1.5m9 0A1.5 1.5 0 0 0 15 12a1.5 1.5 0 0 0 1.5 1.5A1.5 1.5 0 0 0 18 12a1.5 1.5 0 0 0-1.5-1.5Z" transform="matrix(1.5 0 0 1.5 576 252)" id="mdi-power-socket-de" fill="#555"/><path d="M4.22 2A2.22 2.22 0 0 0 2 4.22v15.56C2 21 3 22 4.22 22h15.56A2.22 2.22 0 0 0 22 19.78V4.22C22 3 21 2 19.78 2H4.22M11 4.07V6h2V4.07A8 8 0 0 1 20 12a8 8 0 0 1-7 7.93V18h-2v1.93A8 8 0 0 1 4 12a8 8 0 0 1 7-7.93M7.5 10.5A1.5 1.5 0 0 0 6 12c0 .83.66 1.5 1.5 1.5A1.5 1.5 0 0 0 9 12a1.5 1.5 0 0 0-1.5-1.5m9 0A1.5 1.5 0 0 0 15 12a1.5 1.5 0 0 0 1.5 1.5A1.5 1.5 0 0 0 18 12a1.5 1.5 0 0 0-1.5-1.5Z" transform="matrix(1.5 0 0 1.5 612 252)" id="mdi-power-socket-de" fill="#fff"/><path d="M7.5 10.5A1.5 1.5 0 0 1 9 12a1.5 1.5 0 0 1-1.5 1.5c-.84 0-1.5-.67-1.5-1.5a1.5 1.5 0 0 1 1.5-1.5m9 0A1.5 1.5 0 0 1 18 12a1.5 1.5 0 0 1-1.5 1.5A1.5 1.5 0 0 1 15 12a1.5 1.5 0 0 1 1.5-1.5M4.22 2h15.56C21 2 22 3 22 4.22v15.56A2.22 2.22 0 0 1 19.78 22H4.22C3 22 2 21 2 19.78V4.22A2.22 2.22 0 0 1 4.22 2M12 4a8 8 0 0 0-8 8 8 8 0 0 0 8 8 8 8 0 0 0 8-8 8 8 0 0 0-8-8Z" transform="matrix(1.5 0 0 1.5 648 252)" id="mdi-power-socket-eu" fill="#555"/><path d="M7.5 10.5A1.5 1.5 0 0 1 9 12a1.5 1.5 0 0 1-1.5 1.5c-.84 0-1.5-.67-1.5-1.5a1.5 1.5 0 0 1 1.5-1.5m9 0A1.5 1.5 0 0 1 18 12a1.5 1.5 0 0 1-1.5 1.5A1.5 1.5 0 0 1 15 12a1.5 1.5 0 0 1 1.5-1.5M4.22 2h15.56C21 2 22 3 22 4.22v15.56A2.22 2.22 0 0 1 19.78 22H4.22C3 22 2 21 2 19.78V4.22A2.22 2.22 0 0 1 4.22 2M12 4a8 8 0 0 0-8 8 8 8 0 0 0 8 8 8 8 0 0 0 8-8 8 8 0 0 0-8-8Z" transform="matrix(1.5 0 0 1.5 684 252)" id="mdi-power-socket-eu" fill="#fff"/><path d="M4.22 2A2.22 2.22 0 0 0 2 4.22v15.56C2 21 3 22 4.22 22h15.56A2.22 2.22 0 0 0 22 19.78V4.22C22 3 21 2 19.78 2H4.22M12 4a8 8 0 0 1 8 8 8 8 0 0 1-8 8 8 8 0 0 1-8-8 8 8 0 0 1 8-8m0 2a1.5 1.5 0 0 0-1.5 1.5A1.5 1.5 0 0 0 12 9a1.5 1.5 0 0 0 1.5-1.5A1.5 1.5 0 0 0 12 6m-4.5 4.5A1.5 1.5 0 0 0 6 12c0 .83.66 1.5 1.5 1.5A1.5 1.5 0 0 0 9 12a1.5 1.5 0 0 0-1.5-1.5m9 0A1.5 1.5 0 0 0 15 12a1.5 1.5 0 0 0 1.5 1.5A1.5 1.5 0 0 0 18 12a1.5 1.5 0 0 0-1.5-1.5Z" transform="matrix(1.5 0 0 1.5 0 288)" id="mdi-power-socket-fr" fill="#555"/><path d="M4.22 2A2.22 2.22 0 0 0 2 4.22v15.56C2 21 3 22 4.22 22h15.56A2.22 2.22 0 0 0 22 19.78V4.22C22 3 21 2 19.78 2H4.22M12 4a8 8 0 0 1 8 8 8 8 0 0 1-8 8 8 8 0 0 1-8-8 8 8 0 0 1 8-8m0 2a1.5 1.5 0 0 0-1.5 1.5A1.5 1.5 0 0 0 12 9a1.5 1.5 0 0 0 1.5-1.5A1.5 1.5 0 0 0 12 6m-4.5 4.5A1.5 1.5 0 0 0 6 12c0 .83.66 1.5 1.5 1.5A1.5 1.5 0 0 0 9 12a1.5 1.5 0 0 0-1.5-1.5m9 0A1.5 1.5 0 0 0 15 12a1.5 1.5 0 0 0 1.5 1.5A1.5 1.5 0 0 0 18 12a1.5 1.5 0 0 0-1.5-1.5Z" transform="matrix(1.5 0 0 1.5 36 288)" id="mdi-power-socket-fr" fill="#fff"/><path d="M10.5 16.5c0-.82.67-1.5 1.5-1.5s1.5.68 1.5 1.5c0 .84-.67 1.5-1.5 1.5s-1.5-.66-1.5-1.5m0-9c0-.83.67-1.5 1.5-1.5s1.5.67 1.5 1.5S12.83 9 12 9s-1.5-.67-1.5-1.5M4.22 2h15.56C21 2 22 3 22 4.22v15.56C22 21 21 22 19.78 22H4.22C3 22 2 21 2 19.78V4.22C2 3 3 2 4.22 2M12 4c-4.42 0-8 3.58-8 8s3.58 8 8 8 8-3.58 8-8-3.58-8-8-8m-1.5 8c0-.83.67-1.5 1.5-1.5s1.5.67 1.5 1.5-.67 1.5-1.5 1.5-1.5-.67-1.5-1.5Z" transform="matrix(1.5 0 0 1.5 72 288)" id="mdi-power-socket-it" fill="#555"/><path d="M10.5 16.5c0-.82.67-1.5 1.5-1.5s1.5.68 1.5 1.5c0 .84-.67 1.5-1.5 1.5s-1.5-.66-1.5-1.5m0-9c0-.83.67-1.5 1.5-1.5s1.5.67 1.5 1.5S12.83 9 12 9s-1.5-.67-1.5-1.5M4.22 2h15.56C21 2 22 3 22 4.22v15.56C22 21 21 22 19.78 22H4.22C3 22 2 21 2 19.78V4.22C2 3 3 2 4.22 2M12 4c-4.42 0-8 3.58-8 8s3.58 8 8 8 8-3.58 8-8-3.58-8-8-8m-1.5 8c0-.83.67-1.5 1.5-1.5s1.5.67 1.5 1.5-.67 1.5-1.5 1.5-1.5-.67-1.5-1.5Z" transform="matrix(1.5 0 0 1.5 108 288)" id="mdi-power-socket-it" fill="#fff"/><path d="M10 9.5v5H8v-5M19.78 2C21 2 22 3 22 4.22v15.56C22 21 21 22 19.78 22H4.22C3 22 2 21 2 19.78V4.22C2 3 3 2 4.22 2M12 4c-4.42 0-8 3.58-8 8s3.58 8 8 8 8-3.58 8-8-3.58-8-8-8m4 5.5v5h-2v-5Z" transform="matrix(1.5 0 0 1.5 144 288)" id="mdi-power-socket-jp" fill="#555"/><path d="M10 9.5v5H8v-5M19.78 2C21 2 22 3 22 4.22v15.56C22 21 21 22 19.78 22H4.22C3 22 2 21 2 19.78V4.22C2 3 3 2 4.22 2M12 4c-4.42 0-8 3.58-8 8s3.58 8 8 8 8-3.58 8-8-3.58-8-8-8m4 5.5v5h-2v-5Z" transform="matrix(1.5 0 0 1.5 180 288)" id="mdi-power-socket-jp" fill="#fff"/><path d="M4 2a2 2 0 0 0-2 2v16a2 2 0 0 0 2 2h16a2 2 0 0 0 2-2V4a2 2 0 0 0-2-2H4m0 2h16v16H4V4m7 3v4h2V7h-2m-5 7.75V17h3.5v-2.25H6m8.5 0V17H18v-2.25h-3.5Z" transform="matrix(1.5 0 0 1.5 216 288)" id="mdi-power-socket-uk" fill="#555"/><path d="M4 2a2 2 0 0 0-2 2v16a2 2 0 0 0 2 2h16a2 2 0 0 0 2-2V4a2 2 0 0 0-2-2H4m0 2h16v16H4V4m7 3v4h2V7h-2m-5 7.75V17h3.5v-2.25H6m8.5 0V17H18v-2.25h-3.5Z" transform="matrix(1.5 0 0 1.5 252 288)" id="mdi-power-socket-uk" fill="#fff"/><path d="M8 7h2v5H8V7M4.22 2h15.56C21 2 22 3 22 4.22v15.56A2.22 2.22 0 0 1 19.78 22H4.22C3 22 2 21 2 19.78V4.22A2.22 2.22 0 0 1 4.22 2M12 4a8 8 0 0 0-8 8 8 8 0 0 0 8 8 8 8 0 0 0 8-8 8 8 0 0 0-8-8m2 3.5h2v4h-2v-4m-3.5 8.75a1.5 1.5 0 0 1 1.5-1.5 1.5 1.5 0 0 1 1.5 1.5V17h-3v-.75Z" transform="matrix(1.5 0 0 1.5 288 288)" id="mdi-power-socket-us" fill="#555"/><path d="M8 7h2v5H8V7M4.22 2h15.56C21 2 22 3 22 4.22v15.56A2.22 2.22 0 0 1 19.78 22H4.22C3 22 2 21 2 19.78V4.22A2.22 2.22 0 0 1 4.22 2M12 4a8 8 0 0 0-8 8 8 8 0 0 0 8 8 8 8 0 0 0 8-8 8 8 0 0 0-8-8m2 3.5h2v4h-2v-4m-3.5 8.75a1.5 1.5 0 0 1 1.5-1.5 1.5 1.5 0 0 1 1.5 1.5V17h-3v-.75Z" transform="matrix(1.5 0 0 1.5 324 288)" id="mdi-power-socket-us" fill="#fff"/><path d="M13 3h-2v10h2V3m4.83 2.17-1.42 1.42A6.944 6.944 0 0 1 19 12a7 7 0 0 1-7 7A6.995 6.995 0 0 1 7.58 6.58L6.17 5.17a9.001 9.001 0 0 0-1.03 12.69c3.22 3.78 8.9 4.24 12.69 1.02A9.003 9.003 0 0 0 21 12c0-2.63-1.16-5.13-3.17-6.83Z" transform="matrix(1.5 0 0 1.5 360 288)" id="mdi-power-standby" fill="#555"/><path d="M13 3h-2v10h2V3m4.83 2.17-1.42 1.42A6.944 6.944 0 0 1 19 12a7 7 0 0 1-7 7A6.995 6.995 0 0 1 7.58 6.58L6.17 5.17a9.001 9.001 0 0 0-1.03 12.69c3.22 3.78 8.9 4.24 12.69 1.02A9.003 9.003 0 0 0 21 12c0-2.63-1.16-5.13-3.17-6.83Z" transform="matrix(1.5 0 0 1.5 396 288)" id="mdi-power-standby" fill="#fff"/><path d="M21.83 4c.49 0 .8.4.67.89l-3.16 14.22c-.11.49-.59.89-1.08.89H2.17c-.49 0-.8-.4-.67-.89L4.66 4.89C4.77 4.4 5.25 4 5.74 4h16.09m-6 12h-4c-.46 0-.83.38-.83.84 0 .47.37.85.83.85h4c.47 0 .85-.38.85-.85 0-.46-.38-.84-.85-.84m-10.05.28a.87.87 0 0 0-.21 1.22c.28.42.84.5 1.24.23 7.35-5.17 7.4-5.23 7.45-5.26.18-.16.27-.38.28-.6.01-.2-.04-.37-.16-.56L9.46 6.03A.867.867 0 0 0 8.21 6c-.36.32-.38.88-.05 1.24l4.15 4.44-6.53 4.6Z" transform="matrix(1.5 0 0 1.5 432 288)" id="mdi-powershell" fill="#555"/><path d="M21.83 4c.49 0 .8.4.67.89l-3.16 14.22c-.11.49-.59.89-1.08.89H2.17c-.49 0-.8-.4-.67-.89L4.66 4.89C4.77 4.4 5.25 4 5.74 4h16.09m-6 12h-4c-.46 0-.83.38-.83.84 0 .47.37.85.83.85h4c.47 0 .85-.38.85-.85 0-.46-.38-.84-.85-.84m-10.05.28a.87.87 0 0 0-.21 1.22c.28.42.84.5 1.24.23 7.35-5.17 7.4-5.23 7.45-5.26.18-.16.27-.38.28-.6.01-.2-.04-.37-.16-.56L9.46 6.03A.867.867 0 0 0 8.21 6c-.36.32-.38.88-.05 1.24l4.15 4.44-6.53 4.6Z" transform="matrix(1.5 0 0 1.5 468 288)" id="mdi-powershell" fill="#fff"/><path d="M4 4v10h2v-4h2l5.41 5.41L9.83 19l1.41 1.41 3.59-3.58 3.58 3.58L19.82 19l-3.58-3.59 3.58-3.58-1.41-1.42L14.83 14l-4-4H11a3 3 0 0 0 3-3 3 3 0 0 0-3-3H4m2 2h5a1 1 0 0 1 1 1 1 1 0 0 1-1 1H6V6Z" transform="matrix(1.5 0 0 1.5 504 288)" id="mdi-prescription" fill="#555"/><path d="M4 4v10h2v-4h2l5.41 5.41L9.83 19l1.41 1.41 3.59-3.58 3.58 3.58L19.82 19l-3.58-3.59 3.58-3.58-1.41-1.42L14.83 14l-4-4H11a3 3 0 0 0 3-3 3 3 0 0 0-3-3H4m2 2h5a1 1 0 0 1 1 1 1 1 0 0 1-1 1H6V6Z" transform="matrix(1.5 0 0 1.5 540 288)" id="mdi-prescription" fill="#fff"/><path d="M2 3h8a2 2 0 0 1 2-2 2 2 0 0 1 2 2h8v2h-1v11h-5.75L17 22h-2l-1.75-6h-2.5L9 22H7l1.75-6H3V5H2V3m3 2v9h14V5H5Z" transform="matrix(1.5 0 0 1.5 576 288)" id="mdi-presentation" fill="#555"/><path d="M2 3h8a2 2 0 0 1 2-2 2 2 0 0 1 2 2h8v2h-1v11h-5.75L17 22h-2l-1.75-6h-2.5L9 22H7l1.75-6H3V5H2V3m3 2v9h14V5H5Z" transform="matrix(1.5 0 0 1.5 612 288)" id="mdi-presentation" fill="#fff"/><path d="M2 3h8a2 2 0 0 1 2-2 2 2 0 0 1 2 2h8v2h-1v11h-5.75L17 22h-2l-1.75-6h-2.5L9 22H7l1.75-6H3V5H2V3m3 2v9h14V5H5m6.85 6.85a.49.49 0 0 1-.35.15.5.5 0 0 1-.5-.5v-4a.5.5 0 0 1 .5-.5c.14 0 .26.06.35.15l1.4 1.39c.32.32.64.64.64.96 0 .32-.32.64-.64.96l-1.4 1.39Z" transform="matrix(1.5 0 0 1.5 648 288)" id="mdi-presentation-play" fill="#555"/><path d="M2 3h8a2 2 0 0 1 2-2 2 2 0 0 1 2 2h8v2h-1v11h-5.75L17 22h-2l-1.75-6h-2.5L9 22H7l1.75-6H3V5H2V3m3 2v9h14V5H5m6.85 6.85a.49.49 0 0 1-.35.15.5.5 0 0 1-.5-.5v-4a.5.5 0 0 1 .5-.5c.14 0 .26.06.35.15l1.4 1.39c.32.32.64.64.64.96 0 .32-.32.64-.64.96l-1.4 1.39Z" transform="matrix(1.5 0 0 1.5 684 288)" id="mdi-presentation-play" fill="#fff"/><path d="M5.15 15.84A8.966 8.966 0 0 1 3 10v-.03C3 7.22 5.25 5 8 5c1.64 0 3.09.79 4 2 .91-1.21 2.37-2 4-2 2.76 0 5 2.24 5 5 0 2.23-.81 4.27-2.15 5.84l1.36 1.36-1.42 1.41-1.4-1.4A9.036 9.036 0 0 1 12 19c-2 0-3.89-.67-5.39-1.79l-1.4 1.4-1.42-1.41 1.36-1.36m10.81-.07L12 11.82l-3.96 3.95C9.17 16.55 10.53 17 12 17c1.47 0 2.83-.45 3.96-1.23M11 10c0-1.66-1.35-3-3-3-1.66 0-3 1.34-3 3 0 1.68.59 3.21 1.57 4.42L11 10m6.43 4.42A6.986 6.986 0 0 0 19 10c0-1.67-1.35-3-3-3s-3 1.34-3 3l4.43 4.42Z" transform="matrix(1.5 0 0 1.5 0 324)" id="mdi-pretzel" fill="#555"/><path d="M5.15 15.84A8.966 8.966 0 0 1 3 10v-.03C3 7.22 5.25 5 8 5c1.64 0 3.09.79 4 2 .91-1.21 2.37-2 4-2 2.76 0 5 2.24 5 5 0 2.23-.81 4.27-2.15 5.84l1.36 1.36-1.42 1.41-1.4-1.4A9.036 9.036 0 0 1 12 19c-2 0-3.89-.67-5.39-1.79l-1.4 1.4-1.42-1.41 1.36-1.36m10.81-.07L12 11.82l-3.96 3.95C9.17 16.55 10.53 17 12 17c1.47 0 2.83-.45 3.96-1.23M11 10c0-1.66-1.35-3-3-3-1.66 0-3 1.34-3 3 0 1.68.59 3.21 1.57 4.42L11 10m6.43 4.42A6.986 6.986 0 0 0 19 10c0-1.67-1.35-3-3-3s-3 1.34-3 3l4.43 4.42Z" transform="matrix(1.5 0 0 1.5 36 324)" id="mdi-pretzel" fill="#fff"/><path d="M18 3H6v4h12m1 5a1 1 0 0 1-1-1 1 1 0 0 1 1-1 1 1 0 0 1 1 1 1 1 0 0 1-1 1m-3 7H8v-5h8m3-6H5a3 3 0 0 0-3 3v6h4v4h12v-4h4v-6a3 3 0 0 0-3-3Z" transform="matrix(1.5 0 0 1.5 72 324)" id="mdi-printer" fill="#555"/><path d="M18 3H6v4h12m1 5a1 1 0 0 1-1-1 1 1 0 0 1 1-1 1 1 0 0 1 1 1 1 1 0 0 1-1 1m-3 7H8v-5h8m3-6H5a3 3 0 0 0-3 3v6h4v4h12v-4h4v-6a3 3 0 0 0-3-3Z" transform="matrix(1.5 0 0 1.5 108 324)" id="mdi-printer" fill="#fff"/><path d="M19 6a1 1 0 0 0 1-1 1 1 0 0 0-1-1 1 1 0 0 0-1 1 1 1 0 0 0 1 1m0-4a3 3 0 0 1 3 3v6h-4V7H6v4H2V5a3 3 0 0 1 3-3h14m-1 16.25c0 .38-.21.71-.53.88l-4.9 2.69c-.17.12-.36.18-.57.18-.21 0-.41-.06-.57-.18l-4.9-2.69a.991.991 0 0 1-.53-.88V13c0-.38.21-.71.53-.88l4.9-2.44c.16-.12.36-.18.57-.18.21 0 .4.06.57.18l4.9 2.44c.32.17.53.5.53.88v5.25m-6-6.6L9.04 13 12 14.6l2.96-1.6L12 11.65m-4 6.01 3 1.63v-2.96l-3-1.62v2.95m8 0v-2.95l-3 1.62v2.96l3-1.63Z" transform="matrix(1.5 0 0 1.5 144 324)" id="mdi-printer-3d" fill="#555"/><path d="M19 6a1 1 0 0 0 1-1 1 1 0 0 0-1-1 1 1 0 0 0-1 1 1 1 0 0 0 1 1m0-4a3 3 0 0 1 3 3v6h-4V7H6v4H2V5a3 3 0 0 1 3-3h14m-1 16.25c0 .38-.21.71-.53.88l-4.9 2.69c-.17.12-.36.18-.57.18-.21 0-.41-.06-.57-.18l-4.9-2.69a.991.991 0 0 1-.53-.88V13c0-.38.21-.71.53-.88l4.9-2.44c.16-.12.36-.18.57-.18.21 0 .4.06.57.18l4.9 2.44c.32.17.53.5.53.88v5.25m-6-6.6L9.04 13 12 14.6l2.96-1.6L12 11.65m-4 6.01 3 1.63v-2.96l-3-1.62v2.95m8 0v-2.95l-3 1.62v2.96l3-1.63Z" transform="matrix(1.5 0 0 1.5 180 324)" id="mdi-printer-3d" fill="#fff"/><path d="M7 2h10v6h2v5h-2.5L13 17h-2l-3.5-4H5V8h2V2m3 20H2v-2h8a1 1 0 0 0 1-1v-1h2v1a3 3 0 0 1-3 3Z" transform="matrix(1.5 0 0 1.5 216 324)" id="mdi-printer-3d-nozzle" fill="#555"/><path d="M7 2h10v6h2v5h-2.5L13 17h-2l-3.5-4H5V8h2V2m3 20H2v-2h8a1 1 0 0 0 1-1v-1h2v1a3 3 0 0 1-3 3Z" transform="matrix(1.5 0 0 1.5 252 324)" id="mdi-printer-3d-nozzle" fill="#fff"/><path d="M7 2h10v6h2v5h-2.5L13 17h-2l-3.5-4H5V8h2V2m3 20H2v-2h8c.6 0 1-.5 1-1v-1h2v1c0 1.7-1.3 3-3 3m11-9V7h2v6h-2m0 4v-2h2v2h-2Z" transform="matrix(1.5 0 0 1.5 288 324)" id="mdi-printer-3d-nozzle-alert" fill="#555"/><path d="M7 2h10v6h2v5h-2.5L13 17h-2l-3.5-4H5V8h2V2m3 20H2v-2h8c.6 0 1-.5 1-1v-1h2v1c0 1.7-1.3 3-3 3m11-9V7h2v6h-2m0 4v-2h2v2h-2Z" transform="matrix(1.5 0 0 1.5 324 324)" id="mdi-printer-3d-nozzle-alert" fill="#fff"/><path d="M7 2h10v5h2v6h-2.5L13 17h-2l-3.5-4H5V7h2V2m3 20H2v-2h8c.6 0 1-.5 1-1v-1h2v1c0 1.7-1.3 3-3 3M7 9v2h1.5l3.5 4 3.5-4H17V9h-2V4H9v5H7m14 4V7h2v6h-2m0 4v-2h2v2h-2Z" transform="matrix(1.5 0 0 1.5 360 324)" id="mdi-printer-3d-nozzle-alert-outline" fill="#555"/><path d="M7 2h10v5h2v6h-2.5L13 17h-2l-3.5-4H5V7h2V2m3 20H2v-2h8c.6 0 1-.5 1-1v-1h2v1c0 1.7-1.3 3-3 3M7 9v2h1.5l3.5 4 3.5-4H17V9h-2V4H9v5H7m14 4V7h2v6h-2m0 4v-2h2v2h-2Z" transform="matrix(1.5 0 0 1.5 396 324)" id="mdi-printer-3d-nozzle-alert-outline" fill="#fff"/><path d="M4 2h10v5h2v6h-2.5L10 17H8l-3.5-4H2V7h2V2m19 12.5-1.4 2.2 1.4 2.2-2 3.1-1.8-.9 1.5-2.2-1.5-2.2 2-3.1 1.8.9m-4.3 0-1.5 2.2 1.5 2.2-2 3.1-1.8-.9 1.4-2.2-1.4-2.2 2-3.1 1.8.9" transform="matrix(1.5 0 0 1.5 432 324)" id="mdi-printer-3d-nozzle-heat" fill="#555"/><path d="M4 2h10v5h2v6h-2.5L10 17H8l-3.5-4H2V7h2V2m19 12.5-1.4 2.2 1.4 2.2-2 3.1-1.8-.9 1.5-2.2-1.5-2.2 2-3.1 1.8.9m-4.3 0-1.5 2.2 1.5 2.2-2 3.1-1.8-.9 1.4-2.2-1.4-2.2 2-3.1 1.8.9" transform="matrix(1.5 0 0 1.5 468 324)" id="mdi-printer-3d-nozzle-heat" fill="#fff"/><path d="m23 14.5-1.4 2.2 1.4 2.2-2 3.1-1.8-.9 1.5-2.2-1.5-2.2 2-3.1 1.8.9m-4.3 0-1.5 2.2 1.5 2.2-2 3.1-1.8-.9 1.4-2.2-1.4-2.2 2-3.1 1.8.9M4 2h10v5h2v6h-2.5L10 17H8l-3.5-4H2V7h2V2m0 7v2h1.5L9 15l3.5-4H14V9h-2V4H6v5H4Z" transform="matrix(1.5 0 0 1.5 504 324)" id="mdi-printer-3d-nozzle-heat-outline" fill="#555"/><path d="m23 14.5-1.4 2.2 1.4 2.2-2 3.1-1.8-.9 1.5-2.2-1.5-2.2 2-3.1 1.8.9m-4.3 0-1.5 2.2 1.5 2.2-2 3.1-1.8-.9 1.4-2.2-1.4-2.2 2-3.1 1.8.9M4 2h10v5h2v6h-2.5L10 17H8l-3.5-4H2V7h2V2m0 7v2h1.5L9 15l3.5-4H14V9h-2V4H6v5H4Z" transform="matrix(1.5 0 0 1.5 540 324)" id="mdi-printer-3d-nozzle-heat-outline" fill="#fff"/><path d="M7 2h10v5h2v6h-2.5L13 17h-2l-3.5-4H5V7h2V2m3 20H2v-2h8a1 1 0 0 0 1-1v-1h2v1a3 3 0 0 1-3 3M7 9v2h1.5l3.5 4 3.5-4H17V9h-2V4H9v5H7Z" transform="matrix(1.5 0 0 1.5 576 324)" id="mdi-printer-3d-nozzle-outline" fill="#555"/><path d="M7 2h10v5h2v6h-2.5L13 17h-2l-3.5-4H5V7h2V2m3 20H2v-2h8a1 1 0 0 0 1-1v-1h2v1a3 3 0 0 1-3 3M7 9v2h1.5l3.5 4 3.5-4H17V9h-2V4H9v5H7Z" transform="matrix(1.5 0 0 1.5 612 324)" id="mdi-printer-3d-nozzle-outline" fill="#fff"/><path d="M16 3H4v4h12m1 5c-.6 0-1-.4-1-1s.4-1 1-1 1 .4 1 1-.4 1-1 1m-3 7H6v-5h8m3-6H3c-1.7 0-3 1.3-3 3v6h4v4h12v-4h4v-6c0-1.7-1.3-3-3-3m7 5h-2V7h2v6m0 4h-2v-2h2v2Z" transform="matrix(1.5 0 0 1.5 648 324)" id="mdi-printer-alert" fill="#555"/><path d="M16 3H4v4h12m1 5c-.6 0-1-.4-1-1s.4-1 1-1 1 .4 1 1-.4 1-1 1m-3 7H6v-5h8m3-6H3c-1.7 0-3 1.3-3 3v6h4v4h12v-4h4v-6c0-1.7-1.3-3-3-3m7 5h-2V7h2v6m0 4h-2v-2h2v2Z" transform="matrix(1.5 0 0 1.5 684 324)" id="mdi-printer-alert" fill="#fff"/></svg>