<svg xmlns="http://www.w3.org/2000/svg" width="720" height="900"><path d="m22 12-4-4v3H3v2h15v3l4-4Z" transform="scale(1.5)" id="mdi-trending-neutral" fill="#555"/><path d="m22 12-4-4v3H3v2h15v3l4-4Z" transform="translate(36) scale(1.5)" id="mdi-trending-neutral" fill="#fff"/><path d="m16 6 2.29 2.29-4.88 4.88-4-4L2 16.59 3.41 18l6-6 4 4 6.3-6.29L22 12V6h-6Z" transform="translate(72) scale(1.5)" id="mdi-trending-up" fill="#555"/><path d="m16 6 2.29 2.29-4.88 4.88-4-4L2 16.59 3.41 18l6-6 4 4 6.3-6.29L22 12V6h-6Z" transform="translate(108) scale(1.5)" id="mdi-trending-up" fill="#fff"/><path d="M1 21h22L12 2" transform="translate(144) scale(1.5)" id="mdi-triangle" fill="#555"/><path d="M1 21h22L12 2" transform="translate(180) scale(1.5)" id="mdi-triangle" fill="#fff"/><path d="M12 2 1 21h22M12 6l7.53 13H4.47" transform="translate(216) scale(1.5)" id="mdi-triangle-outline" fill="#555"/><path d="M12 2 1 21h22M12 6l7.53 13H4.47" transform="translate(252) scale(1.5)" id="mdi-triangle-outline" fill="#fff"/><path d="M8 9h8l-4 7" transform="translate(288) scale(1.5)" id="mdi-triangle-small-down" fill="#555"/><path d="M8 9h8l-4 7" transform="translate(324) scale(1.5)" id="mdi-triangle-small-down" fill="#fff"/><path d="M8 15h8l-4-7" transform="translate(360) scale(1.5)" id="mdi-triangle-small-up" fill="#555"/><path d="M8 15h8l-4-7" transform="translate(396) scale(1.5)" id="mdi-triangle-small-up" fill="#fff"/><path d="m22 12-5 10L7.1 6.04 4.24 12H2L7 2l9.9 15.96L19.76 12H22Z" transform="translate(432) scale(1.5)" id="mdi-triangle-wave" fill="#555"/><path d="m22 12-5 10L7.1 6.04 4.24 12H2L7 2l9.9 15.96L19.76 12H22Z" transform="translate(468) scale(1.5)" id="mdi-triangle-wave" fill="#fff"/><path d="M1.5 21 12 3.5 22.5 21h-21M12 21l5-9H7l5 9Z" transform="translate(504) scale(1.5)" id="mdi-triforce" fill="#555"/><path d="M1.5 21 12 3.5 22.5 21h-21M12 21l5-9H7l5 9Z" transform="translate(540) scale(1.5)" id="mdi-triforce" fill="#fff"/><path d="M18 2c-.9 0-2 1-2 2H8c0-1-1.1-2-2-2H2v9c0 1 1 2 2 2h2.2c.4 2 1.7 3.7 4.8 4v2.08C8 19.54 8 22 8 22h8s0-2.46-3-2.92V17c3.1-.3 4.4-2 4.8-4H20c1 0 2-1 2-2V2h-4M6 11H4V4h2v7m14 0h-2V4h2v7Z" transform="translate(576) scale(1.5)" id="mdi-trophy" fill="#555"/><path d="M18 2c-.9 0-2 1-2 2H8c0-1-1.1-2-2-2H2v9c0 1 1 2 2 2h2.2c.4 2 1.7 3.7 4.8 4v2.08C8 19.54 8 22 8 22h8s0-2.46-3-2.92V17c3.1-.3 4.4-2 4.8-4H20c1 0 2-1 2-2V2h-4M6 11H4V4h2v7m14 0h-2V4h2v7Z" transform="translate(612) scale(1.5)" id="mdi-trophy" fill="#fff"/><path d="m15.2 10.7 1.4 5.3-4.6-3.8L7.4 16l1.4-5.2-4.2-3.5L10 7l2-5 2 5 5.4.3-4.2 3.4M14 19h-1v-3l-1-1-1 1v3h-1c-1.1 0-2 .9-2 2v1h8v-1a2 2 0 0 0-2-2Z" transform="translate(648) scale(1.5)" id="mdi-trophy-award" fill="#555"/><path d="m15.2 10.7 1.4 5.3-4.6-3.8L7.4 16l1.4-5.2-4.2-3.5L10 7l2-5 2 5 5.4.3-4.2 3.4M14 19h-1v-3l-1-1-1 1v3h-1c-1.1 0-2 .9-2 2v1h8v-1a2 2 0 0 0-2-2Z" transform="translate(684) scale(1.5)" id="mdi-trophy-award" fill="#fff"/><path d="M6.2 13c.4 1.8 1.4 3.3 3.8 3.8v2.54C8 20.12 8 22 8 22h5.2l-3-7 4-5-3.5-6H8c0-1-1.1-2-2-2H2v9c0 1 1 2 2 2h2.2M6 11H4V4h2v7m11.8 2H20c1 0 2-1 2-2V2h-4c-.9 0-2 1-2 2h-2.1l2.8 6-4.5 5 1 7H16s0-1.88-2-2.66v-2.49c2.39-.5 3.5-2.15 3.8-3.85m2.2-2h-2V4h2v7Z" transform="matrix(1.5 0 0 1.5 0 36)" id="mdi-trophy-broken" fill="#555"/><path d="M6.2 13c.4 1.8 1.4 3.3 3.8 3.8v2.54C8 20.12 8 22 8 22h5.2l-3-7 4-5-3.5-6H8c0-1-1.1-2-2-2H2v9c0 1 1 2 2 2h2.2M6 11H4V4h2v7m11.8 2H20c1 0 2-1 2-2V2h-4c-.9 0-2 1-2 2h-2.1l2.8 6-4.5 5 1 7H16s0-1.88-2-2.66v-2.49c2.39-.5 3.5-2.15 3.8-3.85m2.2-2h-2V4h2v7Z" transform="matrix(1.5 0 0 1.5 36 36)" id="mdi-trophy-broken" fill="#fff"/><path d="M18 2c-.9 0-2 1-2 2H8c0-1-1.1-2-2-2H2v9c0 1 1 2 2 2h2.2c.4 2 1.7 3.7 4.8 4v2.08C8 19.54 8 22 8 22h8s0-2.46-3-2.92V17c3.1-.3 4.4-2 4.8-4H20c1 0 2-1 2-2V2h-4M6 11H4V4h2v7m10 .5c0 1.93-.58 3.5-4 3.5-3.41 0-4-1.57-4-3.5V6h8v5.5m4-.5h-2V4h2v7Z" transform="matrix(1.5 0 0 1.5 72 36)" id="mdi-trophy-outline" fill="#555"/><path d="M18 2c-.9 0-2 1-2 2H8c0-1-1.1-2-2-2H2v9c0 1 1 2 2 2h2.2c.4 2 1.7 3.7 4.8 4v2.08C8 19.54 8 22 8 22h8s0-2.46-3-2.92V17c3.1-.3 4.4-2 4.8-4H20c1 0 2-1 2-2V2h-4M6 11H4V4h2v7m10 .5c0 1.93-.58 3.5-4 3.5-3.41 0-4-1.57-4-3.5V6h8v5.5m4-.5h-2V4h2v7Z" transform="matrix(1.5 0 0 1.5 108 36)" id="mdi-trophy-outline" fill="#fff"/><path d="M17 4V2H7v2H2v7c0 1.1.9 2 2 2h3.1a5.01 5.01 0 0 0 3.9 3.9v2.18C8 19.54 8 22 8 22h8s0-2.46-3-2.92V16.9a5.01 5.01 0 0 0 3.9-3.9H20c1.1 0 2-.9 2-2V4h-5M4 11V6h3v5H4m16 0h-3V6h3v5Z" transform="matrix(1.5 0 0 1.5 144 36)" id="mdi-trophy-variant" fill="#555"/><path d="M17 4V2H7v2H2v7c0 1.1.9 2 2 2h3.1a5.01 5.01 0 0 0 3.9 3.9v2.18C8 19.54 8 22 8 22h8s0-2.46-3-2.92V16.9a5.01 5.01 0 0 0 3.9-3.9H20c1.1 0 2-.9 2-2V4h-5M4 11V6h3v5H4m16 0h-3V6h3v5Z" transform="matrix(1.5 0 0 1.5 180 36)" id="mdi-trophy-variant" fill="#fff"/><path d="M17 4V2H7v2H2v7c0 1.1.9 2 2 2h3.1a5.01 5.01 0 0 0 3.9 3.9v2.18C8 19.54 8 22 8 22h8s0-2.46-3-2.92V16.9a5.01 5.01 0 0 0 3.9-3.9H20c1.1 0 2-.9 2-2V4h-5M4 11V6h3v5H4m11 1c0 1.65-1.35 3-3 3s-3-1.35-3-3V4h6v8m5-1h-3V6h3v5Z" transform="matrix(1.5 0 0 1.5 216 36)" id="mdi-trophy-variant-outline" fill="#555"/><path d="M17 4V2H7v2H2v7c0 1.1.9 2 2 2h3.1a5.01 5.01 0 0 0 3.9 3.9v2.18C8 19.54 8 22 8 22h8s0-2.46-3-2.92V16.9a5.01 5.01 0 0 0 3.9-3.9H20c1.1 0 2-.9 2-2V4h-5M4 11V6h3v5H4m11 1c0 1.65-1.35 3-3 3s-3-1.35-3-3V4h6v8m5-1h-3V6h3v5Z" transform="matrix(1.5 0 0 1.5 252 36)" id="mdi-trophy-variant-outline" fill="#fff"/><path d="M18 18.5a1.5 1.5 0 0 1-1.5-1.5 1.5 1.5 0 0 1 1.5-1.5 1.5 1.5 0 0 1 1.5 1.5 1.5 1.5 0 0 1-1.5 1.5m1.5-9 1.96 2.5H17V9.5m-11 9A1.5 1.5 0 0 1 4.5 17 1.5 1.5 0 0 1 6 15.5 1.5 1.5 0 0 1 7.5 17 1.5 1.5 0 0 1 6 18.5M20 8h-3V4H3c-1.11 0-2 .89-2 2v11h2a3 3 0 0 0 3 3 3 3 0 0 0 3-3h6a3 3 0 0 0 3 3 3 3 0 0 0 3-3h2v-5l-3-4Z" transform="matrix(1.5 0 0 1.5 288 36)" id="mdi-truck" fill="#555"/><path d="M18 18.5a1.5 1.5 0 0 1-1.5-1.5 1.5 1.5 0 0 1 1.5-1.5 1.5 1.5 0 0 1 1.5 1.5 1.5 1.5 0 0 1-1.5 1.5m1.5-9 1.96 2.5H17V9.5m-11 9A1.5 1.5 0 0 1 4.5 17 1.5 1.5 0 0 1 6 15.5 1.5 1.5 0 0 1 7.5 17 1.5 1.5 0 0 1 6 18.5M20 8h-3V4H3c-1.11 0-2 .89-2 2v11h2a3 3 0 0 0 3 3 3 3 0 0 0 3-3h6a3 3 0 0 0 3 3 3 3 0 0 0 3-3h2v-5l-3-4Z" transform="matrix(1.5 0 0 1.5 324 36)" id="mdi-truck" fill="#fff"/><path d="M3 4c-1.1 0-2 .9-2 2v11h2c0 1.7 1.3 3 3 3s3-1.3 3-3h6c0 1.7 1.3 3 3 3s3-1.3 3-3h2v-5l-3-4h-3V4H3m5 2h2v4H8V6m9 3.5h2.5l2 2.5H17V9.5M8 12h2v2H8v-2m-2 3.5c.8 0 1.5.7 1.5 1.5s-.7 1.5-1.5 1.5-1.5-.7-1.5-1.5.7-1.5 1.5-1.5m12 0c.8 0 1.5.7 1.5 1.5s-.7 1.5-1.5 1.5-1.5-.7-1.5-1.5.7-1.5 1.5-1.5Z" transform="matrix(1.5 0 0 1.5 360 36)" id="mdi-truck-alert" fill="#555"/><path d="M3 4c-1.1 0-2 .9-2 2v11h2c0 1.7 1.3 3 3 3s3-1.3 3-3h6c0 1.7 1.3 3 3 3s3-1.3 3-3h2v-5l-3-4h-3V4H3m5 2h2v4H8V6m9 3.5h2.5l2 2.5H17V9.5M8 12h2v2H8v-2m-2 3.5c.8 0 1.5.7 1.5 1.5s-.7 1.5-1.5 1.5-1.5-.7-1.5-1.5.7-1.5 1.5-1.5m12 0c.8 0 1.5.7 1.5 1.5s-.7 1.5-1.5 1.5-1.5-.7-1.5-1.5.7-1.5 1.5-1.5Z" transform="matrix(1.5 0 0 1.5 396 36)" id="mdi-truck-alert" fill="#fff"/><path d="M8 12h2v2H8v-2m0-5h2v4H8V7m10 11.5c.8 0 1.5-.7 1.5-1.5s-.7-1.5-1.5-1.5-1.5.7-1.5 1.5.7 1.5 1.5 1.5m1.5-9H17V12h4.5l-2-2.5M6 18.5c.8 0 1.5-.7 1.5-1.5s-.7-1.5-1.5-1.5-1.5.7-1.5 1.5.7 1.5 1.5 1.5M20 8l3 4v5h-2c0 1.7-1.3 3-3 3s-3-1.3-3-3H9c0 1.7-1.3 3-3 3s-3-1.3-3-3H1V6c0-1.1.9-2 2-2h14v4h3M3 6v9h.8c.5-.6 1.4-1 2.2-1s1.7.4 2.2 1H15V6H3Z" transform="matrix(1.5 0 0 1.5 432 36)" id="mdi-truck-alert-outline" fill="#555"/><path d="M8 12h2v2H8v-2m0-5h2v4H8V7m10 11.5c.8 0 1.5-.7 1.5-1.5s-.7-1.5-1.5-1.5-1.5.7-1.5 1.5.7 1.5 1.5 1.5m1.5-9H17V12h4.5l-2-2.5M6 18.5c.8 0 1.5-.7 1.5-1.5s-.7-1.5-1.5-1.5-1.5.7-1.5 1.5.7 1.5 1.5 1.5M20 8l3 4v5h-2c0 1.7-1.3 3-3 3s-3-1.3-3-3H9c0 1.7-1.3 3-3 3s-3-1.3-3-3H1V6c0-1.1.9-2 2-2h14v4h3M3 6v9h.8c.5-.6 1.4-1 2.2-1s1.7.4 2.2 1H15V6H3Z" transform="matrix(1.5 0 0 1.5 468 36)" id="mdi-truck-alert-outline" fill="#fff"/><path d="M20 8h-3V4H1v13h2c0 1.66 1.34 3 3 3s3-1.34 3-3h6c0 1.66 1.34 3 3 3s3-1.34 3-3h2v-5l-3-4M6 18.5c-.83 0-1.5-.67-1.5-1.5s.67-1.5 1.5-1.5 1.5.67 1.5 1.5-.67 1.5-1.5 1.5M15 7h-2v7h-2V7H9v7H7V7H5v7H3V6h12v1m3 11.5c-.83 0-1.5-.67-1.5-1.5s.67-1.5 1.5-1.5 1.5.67 1.5 1.5-.67 1.5-1.5 1.5M17 12V9.5h2.5l1.96 2.5H17Z" transform="matrix(1.5 0 0 1.5 504 36)" id="mdi-truck-cargo-container" fill="#555"/><path d="M20 8h-3V4H1v13h2c0 1.66 1.34 3 3 3s3-1.34 3-3h6c0 1.66 1.34 3 3 3s3-1.34 3-3h2v-5l-3-4M6 18.5c-.83 0-1.5-.67-1.5-1.5s.67-1.5 1.5-1.5 1.5.67 1.5 1.5-.67 1.5-1.5 1.5M15 7h-2v7h-2V7H9v7H7V7H5v7H3V6h12v1m3 11.5c-.83 0-1.5-.67-1.5-1.5s.67-1.5 1.5-1.5 1.5.67 1.5 1.5-.67 1.5-1.5 1.5M17 12V9.5h2.5l1.96 2.5H17Z" transform="matrix(1.5 0 0 1.5 540 36)" id="mdi-truck-cargo-container" fill="#fff"/><path d="M3 4h14v4h3l3 4v5h-2a3 3 0 0 1-3 3 3 3 0 0 1-3-3H9a3 3 0 0 1-3 3 3 3 0 0 1-3-3H1V6a2 2 0 0 1 2-2m14 5.5V12h4.47L19.5 9.5H17m-11 6A1.5 1.5 0 0 0 4.5 17 1.5 1.5 0 0 0 6 18.5 1.5 1.5 0 0 0 7.5 17 1.5 1.5 0 0 0 6 15.5m12 0a1.5 1.5 0 0 0-1.5 1.5 1.5 1.5 0 0 0 1.5 1.5 1.5 1.5 0 0 0 1.5-1.5 1.5 1.5 0 0 0-1.5-1.5M8 14l6-6-1.41-1.42L8 11.17 5.91 9.08 4.5 10.5 8 14Z" transform="matrix(1.5 0 0 1.5 576 36)" id="mdi-truck-check" fill="#555"/><path d="M3 4h14v4h3l3 4v5h-2a3 3 0 0 1-3 3 3 3 0 0 1-3-3H9a3 3 0 0 1-3 3 3 3 0 0 1-3-3H1V6a2 2 0 0 1 2-2m14 5.5V12h4.47L19.5 9.5H17m-11 6A1.5 1.5 0 0 0 4.5 17 1.5 1.5 0 0 0 6 18.5 1.5 1.5 0 0 0 7.5 17 1.5 1.5 0 0 0 6 15.5m12 0a1.5 1.5 0 0 0-1.5 1.5 1.5 1.5 0 0 0 1.5 1.5 1.5 1.5 0 0 0 1.5-1.5 1.5 1.5 0 0 0-1.5-1.5M8 14l6-6-1.41-1.42L8 11.17 5.91 9.08 4.5 10.5 8 14Z" transform="matrix(1.5 0 0 1.5 612 36)" id="mdi-truck-check" fill="#fff"/><path d="M18 18.5c.83 0 1.5-.67 1.5-1.5s-.67-1.5-1.5-1.5-1.5.67-1.5 1.5.67 1.5 1.5 1.5m1.5-9H17V12h4.46L19.5 9.5M6 18.5c.83 0 1.5-.67 1.5-1.5s-.67-1.5-1.5-1.5-1.5.67-1.5 1.5.67 1.5 1.5 1.5M20 8l3 4v5h-2c0 1.66-1.34 3-3 3s-3-1.34-3-3H9c0 1.66-1.34 3-3 3s-3-1.34-3-3H1V6c0-1.11.89-2 2-2h14v4h3M3 6v9h.76c.55-.61 1.35-1 2.24-1 .89 0 1.69.39 2.24 1H15V6H3m2 4.5L6.5 9 8 10.5 11.5 7 13 8.5l-5 5-3-3Z" transform="matrix(1.5 0 0 1.5 648 36)" id="mdi-truck-check-outline" fill="#555"/><path d="M18 18.5c.83 0 1.5-.67 1.5-1.5s-.67-1.5-1.5-1.5-1.5.67-1.5 1.5.67 1.5 1.5 1.5m1.5-9H17V12h4.46L19.5 9.5M6 18.5c.83 0 1.5-.67 1.5-1.5s-.67-1.5-1.5-1.5-1.5.67-1.5 1.5.67 1.5 1.5 1.5M20 8l3 4v5h-2c0 1.66-1.34 3-3 3s-3-1.34-3-3H9c0 1.66-1.34 3-3 3s-3-1.34-3-3H1V6c0-1.11.89-2 2-2h14v4h3M3 6v9h.76c.55-.61 1.35-1 2.24-1 .89 0 1.69.39 2.24 1H15V6H3m2 4.5L6.5 9 8 10.5 11.5 7 13 8.5l-5 5-3-3Z" transform="matrix(1.5 0 0 1.5 684 36)" id="mdi-truck-check-outline" fill="#fff"/><path d="M3 4a2 2 0 0 0-2 2v11h2a3 3 0 0 0 3 3 3 3 0 0 0 3-3h6a3 3 0 0 0 3 3 3 3 0 0 0 3-3h2v-5l-3-4h-3V4m-7 2 4 4-4 4v-3H4V9h6m7 .5h2.5l1.97 2.5H17M6 15.5A1.5 1.5 0 0 1 7.5 17 1.5 1.5 0 0 1 6 18.5 1.5 1.5 0 0 1 4.5 17 1.5 1.5 0 0 1 6 15.5m12 0a1.5 1.5 0 0 1 1.5 1.5 1.5 1.5 0 0 1-1.5 1.5 1.5 1.5 0 0 1-1.5-1.5 1.5 1.5 0 0 1 1.5-1.5Z" transform="matrix(1.5 0 0 1.5 0 72)" id="mdi-truck-delivery" fill="#555"/><path d="M3 4a2 2 0 0 0-2 2v11h2a3 3 0 0 0 3 3 3 3 0 0 0 3-3h6a3 3 0 0 0 3 3 3 3 0 0 0 3-3h2v-5l-3-4h-3V4m-7 2 4 4-4 4v-3H4V9h6m7 .5h2.5l1.97 2.5H17M6 15.5A1.5 1.5 0 0 1 7.5 17 1.5 1.5 0 0 1 6 18.5 1.5 1.5 0 0 1 4.5 17 1.5 1.5 0 0 1 6 15.5m12 0a1.5 1.5 0 0 1 1.5 1.5 1.5 1.5 0 0 1-1.5 1.5 1.5 1.5 0 0 1-1.5-1.5 1.5 1.5 0 0 1 1.5-1.5Z" transform="matrix(1.5 0 0 1.5 36 72)" id="mdi-truck-delivery" fill="#fff"/><path d="M18 18.5c.83 0 1.5-.67 1.5-1.5s-.67-1.5-1.5-1.5-1.5.67-1.5 1.5.67 1.5 1.5 1.5m1.5-9H17V12h4.46L19.5 9.5M6 18.5c.83 0 1.5-.67 1.5-1.5s-.67-1.5-1.5-1.5-1.5.67-1.5 1.5.67 1.5 1.5 1.5M20 8l3 4v5h-2c0 1.66-1.34 3-3 3s-3-1.34-3-3H9c0 1.66-1.34 3-3 3s-3-1.34-3-3H1V6c0-1.11.89-2 2-2h14v4h3M3 6v9h.76c.55-.61 1.35-1 2.24-1 .89 0 1.69.39 2.24 1H15V6H3m7 1 3.5 3.5L10 14v-2.5H5v-2h5V7Z" transform="matrix(1.5 0 0 1.5 72 72)" id="mdi-truck-delivery-outline" fill="#555"/><path d="M18 18.5c.83 0 1.5-.67 1.5-1.5s-.67-1.5-1.5-1.5-1.5.67-1.5 1.5.67 1.5 1.5 1.5m1.5-9H17V12h4.46L19.5 9.5M6 18.5c.83 0 1.5-.67 1.5-1.5s-.67-1.5-1.5-1.5-1.5.67-1.5 1.5.67 1.5 1.5 1.5M20 8l3 4v5h-2c0 1.66-1.34 3-3 3s-3-1.34-3-3H9c0 1.66-1.34 3-3 3s-3-1.34-3-3H1V6c0-1.11.89-2 2-2h14v4h3M3 6v9h.76c.55-.61 1.35-1 2.24-1 .89 0 1.69.39 2.24 1H15V6H3m7 1 3.5 3.5L10 14v-2.5H5v-2h5V7Z" transform="matrix(1.5 0 0 1.5 108 72)" id="mdi-truck-delivery-outline" fill="#fff"/><path d="M3 13.5 2.25 12H7.5l-.6-1.5H2L1.25 9h7.8l-.6-1.5H1.11L.25 6H4a2 2 0 0 1 2-2h12v4h3l3 4v5h-2a3 3 0 0 1-3 3 3 3 0 0 1-3-3h-4a3 3 0 0 1-3 3 3 3 0 0 1-3-3H4v-3.5H3m16 5a1.5 1.5 0 0 0 1.5-1.5 1.5 1.5 0 0 0-1.5-1.5 1.5 1.5 0 0 0-1.5 1.5 1.5 1.5 0 0 0 1.5 1.5m1.5-9H18V12h4.46L20.5 9.5M9 18.5a1.5 1.5 0 0 0 1.5-1.5A1.5 1.5 0 0 0 9 15.5 1.5 1.5 0 0 0 7.5 17 1.5 1.5 0 0 0 9 18.5Z" transform="matrix(1.5 0 0 1.5 144 72)" id="mdi-truck-fast" fill="#555"/><path d="M3 13.5 2.25 12H7.5l-.6-1.5H2L1.25 9h7.8l-.6-1.5H1.11L.25 6H4a2 2 0 0 1 2-2h12v4h3l3 4v5h-2a3 3 0 0 1-3 3 3 3 0 0 1-3-3h-4a3 3 0 0 1-3 3 3 3 0 0 1-3-3H4v-3.5H3m16 5a1.5 1.5 0 0 0 1.5-1.5 1.5 1.5 0 0 0-1.5-1.5 1.5 1.5 0 0 0-1.5 1.5 1.5 1.5 0 0 0 1.5 1.5m1.5-9H18V12h4.46L20.5 9.5M9 18.5a1.5 1.5 0 0 0 1.5-1.5A1.5 1.5 0 0 0 9 15.5 1.5 1.5 0 0 0 7.5 17 1.5 1.5 0 0 0 9 18.5Z" transform="matrix(1.5 0 0 1.5 180 72)" id="mdi-truck-fast" fill="#fff"/><path d="M.75 7.5h9.75l.75 1.5H1.5L.75 7.5m1 3h9.75l.75 1.5H2.5l-.75-1.5m16.25 8c.83 0 1.5-.67 1.5-1.5s-.67-1.5-1.5-1.5-1.5.67-1.5 1.5.67 1.5 1.5 1.5m1.5-9H17V12h4.46L19.5 9.5M8 18.5c.83 0 1.5-.67 1.5-1.5s-.67-1.5-1.5-1.5-1.5.67-1.5 1.5.67 1.5 1.5 1.5M20 8l3 4v5h-2c0 1.66-1.34 3-3 3s-3-1.34-3-3h-4c0 1.66-1.35 3-3 3-1.66 0-3-1.34-3-3H3v-3.5h2V15h.76c.55-.61 1.35-1 2.24-1 .89 0 1.69.39 2.24 1H15V6H3c0-1.11.89-2 2-2h12v4h3Z" transform="matrix(1.5 0 0 1.5 216 72)" id="mdi-truck-fast-outline" fill="#555"/><path d="M.75 7.5h9.75l.75 1.5H1.5L.75 7.5m1 3h9.75l.75 1.5H2.5l-.75-1.5m16.25 8c.83 0 1.5-.67 1.5-1.5s-.67-1.5-1.5-1.5-1.5.67-1.5 1.5.67 1.5 1.5 1.5m1.5-9H17V12h4.46L19.5 9.5M8 18.5c.83 0 1.5-.67 1.5-1.5s-.67-1.5-1.5-1.5-1.5.67-1.5 1.5.67 1.5 1.5 1.5M20 8l3 4v5h-2c0 1.66-1.34 3-3 3s-3-1.34-3-3h-4c0 1.66-1.35 3-3 3-1.66 0-3-1.34-3-3H3v-3.5h2V15h.76c.55-.61 1.35-1 2.24-1 .89 0 1.69.39 2.24 1H15V6H3c0-1.11.89-2 2-2h12v4h3Z" transform="matrix(1.5 0 0 1.5 252 72)" id="mdi-truck-fast-outline" fill="#fff"/><path d="M18 4h-5v9H1v4h2c0 .83.3 1.53.89 2.13.61.59 1.3.87 2.11.87s1.5-.28 2.11-.87c.59-.6.89-1.3.89-2.13h5.5c0 .83.28 1.53.88 2.13.59.59 1.29.87 2.12.87.8 0 1.5-.28 2.09-.87.6-.6.91-1.3.91-2.13H23v-7l-5-6M7.08 18.07c-.28.3-.64.43-1.08.43s-.8-.13-1.08-.43-.42-.65-.42-1.07c0-.39.14-.74.42-1.04.28-.3.64-.46 1.08-.46s.8.16 1.08.46c.28.3.42.65.42 1.04 0 .42-.14.77-.42 1.07m11.46 0c-.3.3-.65.43-1.04.43-.42 0-.77-.13-1.07-.43S16 17.42 16 17c0-.39.13-.74.43-1.04.3-.3.65-.46 1.07-.46.39 0 .74.16 1.04.46.3.3.46.65.46 1.04 0 .42-.16.77-.46 1.07M15 10V6h2.06l3.33 4H15Z" transform="matrix(1.5 0 0 1.5 288 72)" id="mdi-truck-flatbed" fill="#555"/><path d="M18 4h-5v9H1v4h2c0 .83.3 1.53.89 2.13.61.59 1.3.87 2.11.87s1.5-.28 2.11-.87c.59-.6.89-1.3.89-2.13h5.5c0 .83.28 1.53.88 2.13.59.59 1.29.87 2.12.87.8 0 1.5-.28 2.09-.87.6-.6.91-1.3.91-2.13H23v-7l-5-6M7.08 18.07c-.28.3-.64.43-1.08.43s-.8-.13-1.08-.43-.42-.65-.42-1.07c0-.39.14-.74.42-1.04.28-.3.64-.46 1.08-.46s.8.16 1.08.46c.28.3.42.65.42 1.04 0 .42-.14.77-.42 1.07m11.46 0c-.3.3-.65.43-1.04.43-.42 0-.77-.13-1.07-.43S16 17.42 16 17c0-.39.13-.74.43-1.04.3-.3.65-.46 1.07-.46.39 0 .74.16 1.04.46.3.3.46.65.46 1.04 0 .42-.16.77-.46 1.07M15 10V6h2.06l3.33 4H15Z" transform="matrix(1.5 0 0 1.5 324 72)" id="mdi-truck-flatbed" fill="#fff"/><path d="M20 8h-3V4H3c-1.11 0-2 .89-2 2v11h2c0 1.66 1.34 3 3 3s3-1.34 3-3h6c0 1.66 1.34 3 3 3s3-1.34 3-3h2v-5l-3-4M6 18.5c-.83 0-1.5-.67-1.5-1.5s.67-1.5 1.5-1.5 1.5.67 1.5 1.5-.67 1.5-1.5 1.5m7-7.5H5V9h8v2m5 7.5c-.83 0-1.5-.67-1.5-1.5s.67-1.5 1.5-1.5 1.5.67 1.5 1.5-.67 1.5-1.5 1.5M17 12V9.5h2.5l1.96 2.5H17" transform="matrix(1.5 0 0 1.5 360 72)" id="mdi-truck-minus" fill="#555"/><path d="M20 8h-3V4H3c-1.11 0-2 .89-2 2v11h2c0 1.66 1.34 3 3 3s3-1.34 3-3h6c0 1.66 1.34 3 3 3s3-1.34 3-3h2v-5l-3-4M6 18.5c-.83 0-1.5-.67-1.5-1.5s.67-1.5 1.5-1.5 1.5.67 1.5 1.5-.67 1.5-1.5 1.5m7-7.5H5V9h8v2m5 7.5c-.83 0-1.5-.67-1.5-1.5s.67-1.5 1.5-1.5 1.5.67 1.5 1.5-.67 1.5-1.5 1.5M17 12V9.5h2.5l1.96 2.5H17" transform="matrix(1.5 0 0 1.5 396 72)" id="mdi-truck-minus" fill="#fff"/><path d="M20 8h-3V4H3c-1.1 0-2 .9-2 2v11h2c0 1.7 1.3 3 3 3s3-1.3 3-3h6c0 1.7 1.3 3 3 3s3-1.3 3-3h2v-5l-3-4M6 18.5c-.8 0-1.5-.7-1.5-1.5s.7-1.5 1.5-1.5 1.5.7 1.5 1.5-.7 1.5-1.5 1.5m9-3.5H8.2c-.5-.6-1.3-1-2.2-1s-1.7.4-2.2 1H3V6h12v9m3 3.5c-.8 0-1.5-.7-1.5-1.5s.7-1.5 1.5-1.5 1.5.7 1.5 1.5-.7 1.5-1.5 1.5M17 12V9.5h2.5l2 2.5H17M6 11V9h6v2H6Z" transform="matrix(1.5 0 0 1.5 432 72)" id="mdi-truck-minus-outline" fill="#555"/><path d="M20 8h-3V4H3c-1.1 0-2 .9-2 2v11h2c0 1.7 1.3 3 3 3s3-1.3 3-3h6c0 1.7 1.3 3 3 3s3-1.3 3-3h2v-5l-3-4M6 18.5c-.8 0-1.5-.7-1.5-1.5s.7-1.5 1.5-1.5 1.5.7 1.5 1.5-.7 1.5-1.5 1.5m9-3.5H8.2c-.5-.6-1.3-1-2.2-1s-1.7.4-2.2 1H3V6h12v9m3 3.5c-.8 0-1.5-.7-1.5-1.5s.7-1.5 1.5-1.5 1.5.7 1.5 1.5-.7 1.5-1.5 1.5M17 12V9.5h2.5l2 2.5H17M6 11V9h6v2H6Z" transform="matrix(1.5 0 0 1.5 468 72)" id="mdi-truck-minus-outline" fill="#fff"/><path d="M18 18.5c.83 0 1.5-.67 1.5-1.5s-.67-1.5-1.5-1.5-1.5.67-1.5 1.5.67 1.5 1.5 1.5m1.5-9H17V12h4.46L19.5 9.5M6 18.5c.83 0 1.5-.67 1.5-1.5s-.67-1.5-1.5-1.5-1.5.67-1.5 1.5.67 1.5 1.5 1.5M20 8l3 4v5h-2c0 1.66-1.34 3-3 3s-3-1.34-3-3H9c0 1.66-1.34 3-3 3s-3-1.34-3-3H1V6c0-1.11.89-2 2-2h14v4h3M3 6v9h.76c.55-.61 1.35-1 2.24-1 .89 0 1.69.39 2.24 1H15V6H3Z" transform="matrix(1.5 0 0 1.5 504 72)" id="mdi-truck-outline" fill="#555"/><path d="M18 18.5c.83 0 1.5-.67 1.5-1.5s-.67-1.5-1.5-1.5-1.5.67-1.5 1.5.67 1.5 1.5 1.5m1.5-9H17V12h4.46L19.5 9.5M6 18.5c.83 0 1.5-.67 1.5-1.5s-.67-1.5-1.5-1.5-1.5.67-1.5 1.5.67 1.5 1.5 1.5M20 8l3 4v5h-2c0 1.66-1.34 3-3 3s-3-1.34-3-3H9c0 1.66-1.34 3-3 3s-3-1.34-3-3H1V6c0-1.11.89-2 2-2h14v4h3M3 6v9h.76c.55-.61 1.35-1 2.24-1 .89 0 1.69.39 2.24 1H15V6H3Z" transform="matrix(1.5 0 0 1.5 540 72)" id="mdi-truck-outline" fill="#fff"/><path d="M18 18.5c.83 0 1.5-.67 1.5-1.5s-.67-1.5-1.5-1.5-1.5.67-1.5 1.5.67 1.5 1.5 1.5m1.5-9H17V12h4.46L19.5 9.5M6 18.5c.83 0 1.5-.67 1.5-1.5s-.67-1.5-1.5-1.5-1.5.67-1.5 1.5.67 1.5 1.5 1.5M20 8l3 4v5h-2c0 1.66-1.34 3-3 3s-3-1.34-3-3H9c0 1.66-1.34 3-3 3s-3-1.34-3-3H1V6c0-1.11.89-2 2-2h14v4h3M8 6v3H5v2h3v3h2v-3h3V9h-3V6H8Z" transform="matrix(1.5 0 0 1.5 576 72)" id="mdi-truck-plus" fill="#555"/><path d="M18 18.5c.83 0 1.5-.67 1.5-1.5s-.67-1.5-1.5-1.5-1.5.67-1.5 1.5.67 1.5 1.5 1.5m1.5-9H17V12h4.46L19.5 9.5M6 18.5c.83 0 1.5-.67 1.5-1.5s-.67-1.5-1.5-1.5-1.5.67-1.5 1.5.67 1.5 1.5 1.5M20 8l3 4v5h-2c0 1.66-1.34 3-3 3s-3-1.34-3-3H9c0 1.66-1.34 3-3 3s-3-1.34-3-3H1V6c0-1.11.89-2 2-2h14v4h3M8 6v3H5v2h3v3h2v-3h3V9h-3V6H8Z" transform="matrix(1.5 0 0 1.5 612 72)" id="mdi-truck-plus" fill="#fff"/><path d="M20 8h-3V4H3c-1.1 0-2 .9-2 2v11h2c0 1.7 1.3 3 3 3s3-1.3 3-3h6c0 1.7 1.3 3 3 3s3-1.3 3-3h2v-5l-3-4M6 18.5c-.8 0-1.5-.7-1.5-1.5s.7-1.5 1.5-1.5 1.5.7 1.5 1.5-.7 1.5-1.5 1.5m9-3.5H8.2c-.5-.6-1.3-1-2.2-1s-1.7.4-2.2 1H3V6h12v9m3 3.5c-.8 0-1.5-.7-1.5-1.5s.7-1.5 1.5-1.5 1.5.7 1.5 1.5-.7 1.5-1.5 1.5M17 12V9.5h2.5l2 2.5H17m-9-1H6V9h2V7h2v2h2v2h-2v2H8v-2Z" transform="matrix(1.5 0 0 1.5 648 72)" id="mdi-truck-plus-outline" fill="#555"/><path d="M20 8h-3V4H3c-1.1 0-2 .9-2 2v11h2c0 1.7 1.3 3 3 3s3-1.3 3-3h6c0 1.7 1.3 3 3 3s3-1.3 3-3h2v-5l-3-4M6 18.5c-.8 0-1.5-.7-1.5-1.5s.7-1.5 1.5-1.5 1.5.7 1.5 1.5-.7 1.5-1.5 1.5m9-3.5H8.2c-.5-.6-1.3-1-2.2-1s-1.7.4-2.2 1H3V6h12v9m3 3.5c-.8 0-1.5-.7-1.5-1.5s.7-1.5 1.5-1.5 1.5.7 1.5 1.5-.7 1.5-1.5 1.5M17 12V9.5h2.5l2 2.5H17m-9-1H6V9h2V7h2v2h2v2h-2v2H8v-2Z" transform="matrix(1.5 0 0 1.5 684 72)" id="mdi-truck-plus-outline" fill="#fff"/><path d="M20 8h-3V4H3c-1.11 0-2 .89-2 2v11h2c0 1.66 1.34 3 3 3s3-1.34 3-3h6c0 1.66 1.34 3 3 3s3-1.34 3-3h2v-5l-3-4M6 18.5c-.83 0-1.5-.67-1.5-1.5s.67-1.5 1.5-1.5 1.5.67 1.5 1.5-.67 1.5-1.5 1.5m6.54-6.38-1.42 1.42L9 11.41l-2.12 2.13-1.41-1.42L7.59 10 5.46 7.88l1.42-1.41L9 8.59l2.12-2.12 1.42 1.41L10.41 10l2.13 2.12M18 18.5c-.83 0-1.5-.67-1.5-1.5s.67-1.5 1.5-1.5 1.5.67 1.5 1.5-.67 1.5-1.5 1.5M17 12V9.5h2.5l1.96 2.5H17Z" transform="matrix(1.5 0 0 1.5 0 108)" id="mdi-truck-remove" fill="#555"/><path d="M20 8h-3V4H3c-1.11 0-2 .89-2 2v11h2c0 1.66 1.34 3 3 3s3-1.34 3-3h6c0 1.66 1.34 3 3 3s3-1.34 3-3h2v-5l-3-4M6 18.5c-.83 0-1.5-.67-1.5-1.5s.67-1.5 1.5-1.5 1.5.67 1.5 1.5-.67 1.5-1.5 1.5m6.54-6.38-1.42 1.42L9 11.41l-2.12 2.13-1.41-1.42L7.59 10 5.46 7.88l1.42-1.41L9 8.59l2.12-2.12 1.42 1.41L10.41 10l2.13 2.12M18 18.5c-.83 0-1.5-.67-1.5-1.5s.67-1.5 1.5-1.5 1.5.67 1.5 1.5-.67 1.5-1.5 1.5M17 12V9.5h2.5l1.96 2.5H17Z" transform="matrix(1.5 0 0 1.5 36 108)" id="mdi-truck-remove" fill="#fff"/><path d="M20 8h-3V4H3c-1.11 0-2 .89-2 2v11h2c0 1.66 1.34 3 3 3s3-1.34 3-3h6c0 1.66 1.34 3 3 3s3-1.34 3-3h2v-5l-3-4M6 18.5c-.83 0-1.5-.67-1.5-1.5s.67-1.5 1.5-1.5 1.5.67 1.5 1.5-.67 1.5-1.5 1.5m9-3.5H8.24c-.55-.61-1.35-1-2.24-1s-1.69.39-2.24 1H3V6h12v9m3 3.5c-.83 0-1.5-.67-1.5-1.5s.67-1.5 1.5-1.5 1.5.67 1.5 1.5-.67 1.5-1.5 1.5M17 12V9.5h2.5l1.96 2.5H17m-11.18-.23L7.59 10 5.82 8.23l1.41-1.41L9 8.59l1.77-1.77 1.41 1.41L10.41 10l1.77 1.77-1.41 1.41L9 11.41l-1.77 1.77-1.41-1.41Z" transform="matrix(1.5 0 0 1.5 72 108)" id="mdi-truck-remove-outline" fill="#555"/><path d="M20 8h-3V4H3c-1.11 0-2 .89-2 2v11h2c0 1.66 1.34 3 3 3s3-1.34 3-3h6c0 1.66 1.34 3 3 3s3-1.34 3-3h2v-5l-3-4M6 18.5c-.83 0-1.5-.67-1.5-1.5s.67-1.5 1.5-1.5 1.5.67 1.5 1.5-.67 1.5-1.5 1.5m9-3.5H8.24c-.55-.61-1.35-1-2.24-1s-1.69.39-2.24 1H3V6h12v9m3 3.5c-.83 0-1.5-.67-1.5-1.5s.67-1.5 1.5-1.5 1.5.67 1.5 1.5-.67 1.5-1.5 1.5M17 12V9.5h2.5l1.96 2.5H17m-11.18-.23L7.59 10 5.82 8.23l1.41-1.41L9 8.59l1.77-1.77 1.41 1.41L10.41 10l1.77 1.77-1.41 1.41L9 11.41l-1.77 1.77-1.41-1.41Z" transform="matrix(1.5 0 0 1.5 108 108)" id="mdi-truck-remove-outline" fill="#fff"/><path d="M17 4H3c-1.1 0-2 .9-2 2v11h2c0 1.7 1.3 3 3 3s3-1.3 3-3h6c0 1.7 1.3 3 3 3s3-1.3 3-3h2v-5l-3-4h-3V4m-6.8 1.3h.3c.5.1.8.6.7 1.1l-.5 2 2-.5c.5-.1 1 .2 1.1.7.1.5-.2 1-.6 1.1l-2 .5 1.4 1.4c.4.3.4.9 0 1.3-.3.4-.9.4-1.3 0l-1.5-1.4-.5 2c-.1.5-.6.8-1.1.6a.8.8 0 0 1-.6-1.1l.5-2-2 .5c-.5.1-1-.2-1.1-.6-.1-.5.2-1 .6-1.1l2-.5-1.4-1.6c-.3-.3-.3-.9 0-1.3.3-.3.9-.3 1.3 0l1.4 1.4.5-2c.1-.2.4-.5.8-.5M17 9.5h2.5l2 2.5H17V9.5m-11 6c.8 0 1.5.7 1.5 1.5s-.7 1.5-1.5 1.5-1.5-.7-1.5-1.5.7-1.5 1.5-1.5m12 0c.8 0 1.5.7 1.5 1.5s-.7 1.5-1.5 1.5-1.5-.7-1.5-1.5.7-1.5 1.5-1.5Z" transform="matrix(1.5 0 0 1.5 144 108)" id="mdi-truck-snowflake" fill="#555"/><path d="M17 4H3c-1.1 0-2 .9-2 2v11h2c0 1.7 1.3 3 3 3s3-1.3 3-3h6c0 1.7 1.3 3 3 3s3-1.3 3-3h2v-5l-3-4h-3V4m-6.8 1.3h.3c.5.1.8.6.7 1.1l-.5 2 2-.5c.5-.1 1 .2 1.1.7.1.5-.2 1-.6 1.1l-2 .5 1.4 1.4c.4.3.4.9 0 1.3-.3.4-.9.4-1.3 0l-1.5-1.4-.5 2c-.1.5-.6.8-1.1.6a.8.8 0 0 1-.6-1.1l.5-2-2 .5c-.5.1-1-.2-1.1-.6-.1-.5.2-1 .6-1.1l2-.5-1.4-1.6c-.3-.3-.3-.9 0-1.3.3-.3.9-.3 1.3 0l1.4 1.4.5-2c.1-.2.4-.5.8-.5M17 9.5h2.5l2 2.5H17V9.5m-11 6c.8 0 1.5.7 1.5 1.5s-.7 1.5-1.5 1.5-1.5-.7-1.5-1.5.7-1.5 1.5-1.5m12 0c.8 0 1.5.7 1.5 1.5s-.7 1.5-1.5 1.5-1.5-.7-1.5-1.5.7-1.5 1.5-1.5Z" transform="matrix(1.5 0 0 1.5 180 108)" id="mdi-truck-snowflake" fill="#fff"/><path d="M22 15v2H10a3 3 0 0 1-3 3 3 3 0 0 1-3-3H2V6a2 2 0 0 1 2-2h13a2 2 0 0 1 2 2v9h3M7 16a1 1 0 0 0-1 1 1 1 0 0 0 1 1 1 1 0 0 0 1-1 1 1 0 0 0-1-1Z" transform="matrix(1.5 0 0 1.5 216 108)" id="mdi-truck-trailer" fill="#555"/><path d="M22 15v2H10a3 3 0 0 1-3 3 3 3 0 0 1-3-3H2V6a2 2 0 0 1 2-2h13a2 2 0 0 1 2 2v9h3M7 16a1 1 0 0 0-1 1 1 1 0 0 0 1 1 1 1 0 0 0 1-1 1 1 0 0 0-1-1Z" transform="matrix(1.5 0 0 1.5 252 108)" id="mdi-truck-trailer" fill="#fff"/><path d="M22 6c-1 5-7 5-7 5H4c-1 0-2-1-2-1H1v4h1s1-1 2-1h.3c-.2.3-.3.6-.3 1v2c0 1.1.9 2 2 2h1v1h2v-1h1v1h2v-1h1v1h2v-1h1c1.1 0 2-.9 2-2v-2c0-.1 0-.3-.1-.4 1.7.6 3.5 1.8 4.1 4.4h1V6h-1M6 16.5c-.3 0-.5-.2-.5-.5v-2c0-.3.2-.5.5-.5h1v3H6m3 0v-3h1v3H9m3 0v-3h1v3h-1m4.5-.5c0 .3-.2.5-.5.5h-1v-3h1c.3 0 .5.2.5.5v2M9 10H7V9h2v1m3 0h-2V9h2v1m3 0h-2V9h2v1Z" transform="matrix(1.5 0 0 1.5 288 108)" id="mdi-trumpet" fill="#555"/><path d="M22 6c-1 5-7 5-7 5H4c-1 0-2-1-2-1H1v4h1s1-1 2-1h.3c-.2.3-.3.6-.3 1v2c0 1.1.9 2 2 2h1v1h2v-1h1v1h2v-1h1v1h2v-1h1c1.1 0 2-.9 2-2v-2c0-.1 0-.3-.1-.4 1.7.6 3.5 1.8 4.1 4.4h1V6h-1M6 16.5c-.3 0-.5-.2-.5-.5v-2c0-.3.2-.5.5-.5h1v3H6m3 0v-3h1v3H9m3 0v-3h1v3h-1m4.5-.5c0 .3-.2.5-.5.5h-1v-3h1c.3 0 .5.2.5.5v2M9 10H7V9h2v1m3 0h-2V9h2v1m3 0h-2V9h2v1Z" transform="matrix(1.5 0 0 1.5 324 108)" id="mdi-trumpet" fill="#fff"/><path d="M16 21H8a1 1 0 0 1-1-1v-7.93l-1.3 1a.996.996 0 0 1-1.41 0l-2.83-2.78a.996.996 0 0 1 0-1.41L7.34 3H9c0 1.1 1.34 2 3 2s3-.9 3-2h1.66l5.88 5.88c.39.39.39 1.02 0 1.41l-2.83 2.83c-.39.38-1.02.38-1.41 0l-1.3-1V20a1 1 0 0 1-1 1" transform="matrix(1.5 0 0 1.5 360 108)" id="mdi-tshirt-crew" fill="#555"/><path d="M16 21H8a1 1 0 0 1-1-1v-7.93l-1.3 1a.996.996 0 0 1-1.41 0l-2.83-2.78a.996.996 0 0 1 0-1.41L7.34 3H9c0 1.1 1.34 2 3 2s3-.9 3-2h1.66l5.88 5.88c.39.39.39 1.02 0 1.41l-2.83 2.83c-.39.38-1.02.38-1.41 0l-1.3-1V20a1 1 0 0 1-1 1" transform="matrix(1.5 0 0 1.5 396 108)" id="mdi-tshirt-crew" fill="#fff"/><path d="M16 21H8a1 1 0 0 1-1-1v-7.93l-1.3 1.05c-.39.38-1.02.38-1.41 0l-2.83-2.83a.996.996 0 0 1 0-1.41L7.34 3H9c0 1.1 1.34 2 3 2s3-.9 3-2h1.66l5.88 5.88c.39.39.39 1.02 0 1.41l-2.83 2.83c-.39.38-1.02.38-1.41 0L17 12.07V20a1 1 0 0 1-1 1m4.42-11.42-4.31-4.3c-.31.35-.68.66-1.11.92-.84.5-1.87.8-3 .8-1.7 0-3.21-.68-4.11-1.72l-4.31 4.3L5 11l3-2h1v10h6V9h1l3 2 1.42-1.42Z" transform="matrix(1.5 0 0 1.5 432 108)" id="mdi-tshirt-crew-outline" fill="#555"/><path d="M16 21H8a1 1 0 0 1-1-1v-7.93l-1.3 1.05c-.39.38-1.02.38-1.41 0l-2.83-2.83a.996.996 0 0 1 0-1.41L7.34 3H9c0 1.1 1.34 2 3 2s3-.9 3-2h1.66l5.88 5.88c.39.39.39 1.02 0 1.41l-2.83 2.83c-.39.38-1.02.38-1.41 0L17 12.07V20a1 1 0 0 1-1 1m4.42-11.42-4.31-4.3c-.31.35-.68.66-1.11.92-.84.5-1.87.8-3 .8-1.7 0-3.21-.68-4.11-1.72l-4.31 4.3L5 11l3-2h1v10h6V9h1l3 2 1.42-1.42Z" transform="matrix(1.5 0 0 1.5 468 108)" id="mdi-tshirt-crew-outline" fill="#fff"/><path d="M16 21H8a1 1 0 0 1-1-1v-7.93l-1.3 1a.996.996 0 0 1-1.41 0l-2.83-2.78a.996.996 0 0 1 0-1.41L7.34 3H9c.29 1.8 1.4 3.37 3 4.25 1.6-.88 2.71-2.45 3-4.25h1.66l5.88 5.88c.39.39.39 1.02 0 1.41l-2.83 2.83c-.39.38-1.02.38-1.41 0l-1.3-1V20a1 1 0 0 1-1 1" transform="matrix(1.5 0 0 1.5 504 108)" id="mdi-tshirt-v" fill="#555"/><path d="M16 21H8a1 1 0 0 1-1-1v-7.93l-1.3 1a.996.996 0 0 1-1.41 0l-2.83-2.78a.996.996 0 0 1 0-1.41L7.34 3H9c.29 1.8 1.4 3.37 3 4.25 1.6-.88 2.71-2.45 3-4.25h1.66l5.88 5.88c.39.39.39 1.02 0 1.41l-2.83 2.83c-.39.38-1.02.38-1.41 0l-1.3-1V20a1 1 0 0 1-1 1" transform="matrix(1.5 0 0 1.5 540 108)" id="mdi-tshirt-v" fill="#fff"/><path d="M16 21H8a1 1 0 0 1-1-1v-7.93l-1.3 1.05c-.39.38-1.02.38-1.41 0l-2.83-2.83a.996.996 0 0 1 0-1.41L7.34 3H9c0 1.1 1 3 3 4.25C14 6 15 4.1 15 3h1.66l5.88 5.88c.39.39.39 1.02 0 1.41l-2.83 2.83c-.39.38-1.02.38-1.41 0L17 12.07V20a1 1 0 0 1-1 1m4.42-11.42-4.31-4.3C15 7 14 8.25 12 9.25c-2-1-3-2.25-4.11-3.97l-4.31 4.3L5 11l3-2h1v10h6V9h1l3 2 1.42-1.42Z" transform="matrix(1.5 0 0 1.5 576 108)" id="mdi-tshirt-v-outline" fill="#555"/><path d="M16 21H8a1 1 0 0 1-1-1v-7.93l-1.3 1.05c-.39.38-1.02.38-1.41 0l-2.83-2.83a.996.996 0 0 1 0-1.41L7.34 3H9c0 1.1 1 3 3 4.25C14 6 15 4.1 15 3h1.66l5.88 5.88c.39.39.39 1.02 0 1.41l-2.83 2.83c-.39.38-1.02.38-1.41 0L17 12.07V20a1 1 0 0 1-1 1m4.42-11.42-4.31-4.3C15 7 14 8.25 12 9.25c-2-1-3-2.25-4.11-3.97l-4.31 4.3L5 11l3-2h1v10h6V9h1l3 2 1.42-1.42Z" transform="matrix(1.5 0 0 1.5 612 108)" id="mdi-tshirt-v-outline" fill="#fff"/><path d="M18.67 17.63c-3.8 2.8-6.12.4-6.67 0-.66.49-2.92 2.76-6.67 0C3.43 19.03 2.65 19 2 19v2c1.16 0 2.3-.32 3.33-.93a6.535 6.535 0 0 0 6.67 0 6.535 6.535 0 0 0 6.67 0c1.03.61 2.17.93 3.33.93v-2c-.66 0-1.5 0-3.33-1.37m.66-5.63H22v-2h-2.67C17.5 10 16 8.5 16 6.67c0-1.02.38-1.74 1.09-3.34-1.37-.21-2-.33-3.09-.33C7.36 3 2.15 8.03 2 14.5v2c1.16 0 2.3-.32 3.33-.93a6.535 6.535 0 0 0 6.67 0 6.535 6.535 0 0 0 6.67 0c1.03.61 2.17.93 3.33.93v-2c-.66 0-1.5 0-3.33-1.37-3.8 2.8-6.12.4-6.67 0-.9.67-.54.41-.91.63-.7-.94-1.09-2.06-1.09-3.26 0-2.58 1.77-4.74 4.21-5.33-.13.51-.21 1.02-.21 1.5C14 9.61 16.39 12 19.33 12Z" transform="matrix(1.5 0 0 1.5 648 108)" id="mdi-tsunami" fill="#555"/><path d="M18.67 17.63c-3.8 2.8-6.12.4-6.67 0-.66.49-2.92 2.76-6.67 0C3.43 19.03 2.65 19 2 19v2c1.16 0 2.3-.32 3.33-.93a6.535 6.535 0 0 0 6.67 0 6.535 6.535 0 0 0 6.67 0c1.03.61 2.17.93 3.33.93v-2c-.66 0-1.5 0-3.33-1.37m.66-5.63H22v-2h-2.67C17.5 10 16 8.5 16 6.67c0-1.02.38-1.74 1.09-3.34-1.37-.21-2-.33-3.09-.33C7.36 3 2.15 8.03 2 14.5v2c1.16 0 2.3-.32 3.33-.93a6.535 6.535 0 0 0 6.67 0 6.535 6.535 0 0 0 6.67 0c1.03.61 2.17.93 3.33.93v-2c-.66 0-1.5 0-3.33-1.37-3.8 2.8-6.12.4-6.67 0-.9.67-.54.41-.91.63-.7-.94-1.09-2.06-1.09-3.26 0-2.58 1.77-4.74 4.21-5.33-.13.51-.21 1.02-.21 1.5C14 9.61 16.39 12 19.33 12Z" transform="matrix(1.5 0 0 1.5 684 108)" id="mdi-tsunami" fill="#fff"/><path d="M6 2h12a2 2 0 0 1 2 2v16a2 2 0 0 1-2 2H6a2 2 0 0 1-2-2V4a2 2 0 0 1 2-2m1 2a1 1 0 0 0-1 1 1 1 0 0 0 1 1 1 1 0 0 0 1-1 1 1 0 0 0-1-1m3 0a1 1 0 0 0-1 1 1 1 0 0 0 1 1 1 1 0 0 0 1-1 1 1 0 0 0-1-1m2 4a6 6 0 0 0-6 6 6 6 0 0 0 6 6 6 6 0 0 0 6-6 6 6 0 0 0-6-6m-3.89 2.5H10c-.24 1.38 0 2.17.58 2.79 1.1 1.07 1.58 2.42 1.31 4.21H10c.24-1.38 0-2.17-.58-2.79-1.1-1.07-1.57-2.42-1.31-4.21m4 0H14c-.24 1.38 0 2.17.58 2.79 1.1 1.07 1.58 2.42 1.31 4.21H14c.24-1.38 0-2.17-.58-2.79-1.1-1.07-1.57-2.42-1.31-4.21Z" transform="matrix(1.5 0 0 1.5 0 144)" id="mdi-tumble-dryer" fill="#555"/><path d="M6 2h12a2 2 0 0 1 2 2v16a2 2 0 0 1-2 2H6a2 2 0 0 1-2-2V4a2 2 0 0 1 2-2m1 2a1 1 0 0 0-1 1 1 1 0 0 0 1 1 1 1 0 0 0 1-1 1 1 0 0 0-1-1m3 0a1 1 0 0 0-1 1 1 1 0 0 0 1 1 1 1 0 0 0 1-1 1 1 0 0 0-1-1m2 4a6 6 0 0 0-6 6 6 6 0 0 0 6 6 6 6 0 0 0 6-6 6 6 0 0 0-6-6m-3.89 2.5H10c-.24 1.38 0 2.17.58 2.79 1.1 1.07 1.58 2.42 1.31 4.21H10c.24-1.38 0-2.17-.58-2.79-1.1-1.07-1.57-2.42-1.31-4.21m4 0H14c-.24 1.38 0 2.17.58 2.79 1.1 1.07 1.58 2.42 1.31 4.21H14c.24-1.38 0-2.17-.58-2.79-1.1-1.07-1.57-2.42-1.31-4.21Z" transform="matrix(1.5 0 0 1.5 36 144)" id="mdi-tumble-dryer" fill="#fff"/><path d="M4 2h12a2 2 0 0 1 2 2v16c0 1.11-.89 2-2 2H4a2 2 0 0 1-2-2V4c0-1.1.9-2 2-2m1 2c-.55 0-1 .45-1 1s.45 1 1 1 1-.45 1-1-.45-1-1-1m3 0c-.55 0-1 .45-1 1s.45 1 1 1 1-.45 1-1-.45-1-1-1m2 4c-3.31 0-6 2.69-6 6s2.69 6 6 6 6-2.69 6-6-2.69-6-6-6m-3.89 2.5H8c-.24 1.38 0 2.17.58 2.79 1.1 1.07 1.58 2.42 1.31 4.21H8c.24-1.38 0-2.17-.58-2.79-1.1-1.07-1.57-2.42-1.31-4.21m4 0H12c-.24 1.38 0 2.17.58 2.79 1.1 1.07 1.58 2.42 1.31 4.21H12c.24-1.38 0-2.17-.58-2.79-1.1-1.07-1.57-2.42-1.31-4.21M20 15h2v2h-2v-2m0-8h2v6h-2V7Z" transform="matrix(1.5 0 0 1.5 72 144)" id="mdi-tumble-dryer-alert" fill="#555"/><path d="M4 2h12a2 2 0 0 1 2 2v16c0 1.11-.89 2-2 2H4a2 2 0 0 1-2-2V4c0-1.1.9-2 2-2m1 2c-.55 0-1 .45-1 1s.45 1 1 1 1-.45 1-1-.45-1-1-1m3 0c-.55 0-1 .45-1 1s.45 1 1 1 1-.45 1-1-.45-1-1-1m2 4c-3.31 0-6 2.69-6 6s2.69 6 6 6 6-2.69 6-6-2.69-6-6-6m-3.89 2.5H8c-.24 1.38 0 2.17.58 2.79 1.1 1.07 1.58 2.42 1.31 4.21H8c.24-1.38 0-2.17-.58-2.79-1.1-1.07-1.57-2.42-1.31-4.21m4 0H12c-.24 1.38 0 2.17.58 2.79 1.1 1.07 1.58 2.42 1.31 4.21H12c.24-1.38 0-2.17-.58-2.79-1.1-1.07-1.57-2.42-1.31-4.21M20 15h2v2h-2v-2m0-8h2v6h-2V7Z" transform="matrix(1.5 0 0 1.5 108 144)" id="mdi-tumble-dryer-alert" fill="#fff"/><path d="M22.11 21.46 2.39 1.73 1.11 3 4 5.89V20c0 1.11.89 2 2 2h12c.58 0 1.1-.25 1.46-.65l1.38 1.38 1.27-1.27M12 20c-3.31 0-6-2.69-6-6 0-1.68.7-3.2 1.82-4.29l.79.79h-.5c-.26 1.79.21 3.14 1.31 4.21.58.62.82 1.41.58 2.79h1.89c.27-1.79-.21-3.14-1.31-4.21-.36-.38-.58-.85-.63-1.45l4.08 4.08c.08.43.08.94-.03 1.58h1.61l.68.68A5.956 5.956 0 0 1 12 20m-.75-11.95C11.5 8 11.75 8 12 8c3.31 0 6 2.69 6 6 0 .25 0 .5-.05.75L20 16.8V4a2 2 0 0 0-2-2H6c-.24 0-.46.05-.67.13l5.92 5.92M10 4c.55 0 1 .45 1 1s-.45 1-1 1-1-.45-1-1 .45-1 1-1Z" transform="matrix(1.5 0 0 1.5 144 144)" id="mdi-tumble-dryer-off" fill="#555"/><path d="M22.11 21.46 2.39 1.73 1.11 3 4 5.89V20c0 1.11.89 2 2 2h12c.58 0 1.1-.25 1.46-.65l1.38 1.38 1.27-1.27M12 20c-3.31 0-6-2.69-6-6 0-1.68.7-3.2 1.82-4.29l.79.79h-.5c-.26 1.79.21 3.14 1.31 4.21.58.62.82 1.41.58 2.79h1.89c.27-1.79-.21-3.14-1.31-4.21-.36-.38-.58-.85-.63-1.45l4.08 4.08c.08.43.08.94-.03 1.58h1.61l.68.68A5.956 5.956 0 0 1 12 20m-.75-11.95C11.5 8 11.75 8 12 8c3.31 0 6 2.69 6 6 0 .25 0 .5-.05.75L20 16.8V4a2 2 0 0 0-2-2H6c-.24 0-.46.05-.67.13l5.92 5.92M10 4c.55 0 1 .45 1 1s-.45 1-1 1-1-.45-1-1 .45-1 1-1Z" transform="matrix(1.5 0 0 1.5 180 144)" id="mdi-tumble-dryer-off" fill="#fff"/><path d="M3 17v2h6v-2H3M3 5v2h10V5H3m10 16v-2h8v-2h-8v-2h-2v6h2M7 9v2H3v2h4v2h2V9H7m14 4v-2H11v2h10m-6-4h2V7h4V5h-4V3h-2v6Z" transform="matrix(1.5 0 0 1.5 216 144)" id="mdi-tune" fill="#555"/><path d="M3 17v2h6v-2H3M3 5v2h10V5H3m10 16v-2h8v-2h-8v-2h-2v6h2M7 9v2H3v2h4v2h2V9H7m14 4v-2H11v2h10m-6-4h2V7h4V5h-4V3h-2v6Z" transform="matrix(1.5 0 0 1.5 252 144)" id="mdi-tune" fill="#fff"/><path d="M8 13c-1.86 0-3.41 1.28-3.86 3H2v2h2.14c.45 1.72 2 3 3.86 3s3.41-1.28 3.86-3H22v-2H11.86c-.45-1.72-2-3-3.86-3m0 6c-1.1 0-2-.9-2-2s.9-2 2-2 2 .9 2 2-.9 2-2 2M19.86 6c-.45-1.72-2-3-3.86-3s-3.41 1.28-3.86 3H2v2h10.14c.45 1.72 2 3 3.86 3s3.41-1.28 3.86-3H22V6h-2.14M16 9c-1.1 0-2-.9-2-2s.9-2 2-2 2 .9 2 2-.9 2-2 2Z" transform="matrix(1.5 0 0 1.5 288 144)" id="mdi-tune-variant" fill="#555"/><path d="M8 13c-1.86 0-3.41 1.28-3.86 3H2v2h2.14c.45 1.72 2 3 3.86 3s3.41-1.28 3.86-3H22v-2H11.86c-.45-1.72-2-3-3.86-3m0 6c-1.1 0-2-.9-2-2s.9-2 2-2 2 .9 2 2-.9 2-2 2M19.86 6c-.45-1.72-2-3-3.86-3s-3.41 1.28-3.86 3H2v2h10.14c.45 1.72 2 3 3.86 3s3.41-1.28 3.86-3H22V6h-2.14M16 9c-1.1 0-2-.9-2-2s.9-2 2-2 2 .9 2 2-.9 2-2 2Z" transform="matrix(1.5 0 0 1.5 324 144)" id="mdi-tune-variant" fill="#fff"/><path d="M7 3H5v6h2V3m12 0h-2v10h2V3M3 13h2v8h2v-8h2v-2H3v2m12-6h-2V3h-2v4H9v2h6V7m-4 14h2V11h-2v10m4-6v2h2v4h2v-4h2v-2h-6Z" transform="matrix(1.5 0 0 1.5 360 144)" id="mdi-tune-vertical" fill="#555"/><path d="M7 3H5v6h2V3m12 0h-2v10h2V3M3 13h2v8h2v-8h2v-2H3v2m12-6h-2V3h-2v4H9v2h6V7m-4 14h2V11h-2v10m4-6v2h2v4h2v-4h2v-2h-6Z" transform="matrix(1.5 0 0 1.5 396 144)" id="mdi-tune-vertical" fill="#fff"/><path d="M8 12.14V2H6v10.14c-1.72.45-3 2-3 3.86s1.28 3.41 3 3.86V22h2v-2.14c1.72-.45 3-2 3-3.86s-1.28-3.41-3-3.86M7 14c1.1 0 2 .9 2 2s-.9 2-2 2-2-.9-2-2 .9-2 2-2M18 2h-2v2.14c-1.72.45-3 2-3 3.86s1.28 3.41 3 3.86V22h2V11.86c1.72-.45 3-2 3-3.86s-1.28-3.41-3-3.86V2m-1 4c1.1 0 2 .9 2 2s-.9 2-2 2-2-.9-2-2 .9-2 2-2Z" transform="matrix(1.5 0 0 1.5 432 144)" id="mdi-tune-vertical-variant" fill="#555"/><path d="M8 12.14V2H6v10.14c-1.72.45-3 2-3 3.86s1.28 3.41 3 3.86V22h2v-2.14c1.72-.45 3-2 3-3.86s-1.28-3.41-3-3.86M7 14c1.1 0 2 .9 2 2s-.9 2-2 2-2-.9-2-2 .9-2 2-2M18 2h-2v2.14c-1.72.45-3 2-3 3.86s1.28 3.41 3 3.86V22h2V11.86c1.72-.45 3-2 3-3.86s-1.28-3.41-3-3.86V2m-1 4c1.1 0 2 .9 2 2s-.9 2-2 2-2-.9-2-2 .9-2 2-2Z" transform="matrix(1.5 0 0 1.5 468 144)" id="mdi-tune-vertical-variant" fill="#fff"/><path d="M12 2C6.5 2 2 6.5 2 12v10h20V12c0-5.5-4.5-10-10-10M7.1 5.69A7.941 7.941 0 0 1 11 4.07v2.02c-.91.15-1.75.51-2.47 1.02L7.1 5.69m8.37 1.42A5.95 5.95 0 0 0 13 6.09V4.07c1.46.18 2.79.76 3.9 1.62l-1.43 1.42M5.69 7.1l1.42 1.43A5.95 5.95 0 0 0 6.09 11H4.07c.18-1.46.76-2.79 1.62-3.9M6 13v2.5H4V13h2m-2 7v-2.5h2V20H4M16.89 8.53l1.42-1.43a7.941 7.941 0 0 1 1.62 3.9h-2.02a5.95 5.95 0 0 0-1.02-2.47M18 13h2v2.5h-2V13m0 7v-2.5h2V20h-2Z" transform="matrix(1.5 0 0 1.5 504 144)" id="mdi-tunnel" fill="#555"/><path d="M12 2C6.5 2 2 6.5 2 12v10h20V12c0-5.5-4.5-10-10-10M7.1 5.69A7.941 7.941 0 0 1 11 4.07v2.02c-.91.15-1.75.51-2.47 1.02L7.1 5.69m8.37 1.42A5.95 5.95 0 0 0 13 6.09V4.07c1.46.18 2.79.76 3.9 1.62l-1.43 1.42M5.69 7.1l1.42 1.43A5.95 5.95 0 0 0 6.09 11H4.07c.18-1.46.76-2.79 1.62-3.9M6 13v2.5H4V13h2m-2 7v-2.5h2V20H4M16.89 8.53l1.42-1.43a7.941 7.941 0 0 1 1.62 3.9h-2.02a5.95 5.95 0 0 0-1.02-2.47M18 13h2v2.5h-2V13m0 7v-2.5h2V20h-2Z" transform="matrix(1.5 0 0 1.5 540 144)" id="mdi-tunnel" fill="#fff"/><path d="M12 2C6.5 2 2 6.5 2 12v10h20V12c0-5.5-4.5-10-10-10m3.47 5.11A5.95 5.95 0 0 0 13 6.09V4.07c1.46.18 2.79.76 3.9 1.62l-1.43 1.42m-6.94 0L7.1 5.69A7.941 7.941 0 0 1 11 4.07v2.02c-.91.15-1.75.51-2.47 1.02M5.69 7.1l1.42 1.43A5.95 5.95 0 0 0 6.09 11H4.07c.18-1.46.76-2.79 1.62-3.9M6 13v2.5H4V13h2m-2 7v-2.5h2V20H4m12 0H8v-8c0-2.21 1.79-4 4-4s4 1.79 4 4v8m.89-11.47 1.42-1.43a7.941 7.941 0 0 1 1.62 3.9h-2.02a5.95 5.95 0 0 0-1.02-2.47M18 13h2v2.5h-2V13m0 7v-2.5h2V20h-2Z" transform="matrix(1.5 0 0 1.5 576 144)" id="mdi-tunnel-outline" fill="#555"/><path d="M12 2C6.5 2 2 6.5 2 12v10h20V12c0-5.5-4.5-10-10-10m3.47 5.11A5.95 5.95 0 0 0 13 6.09V4.07c1.46.18 2.79.76 3.9 1.62l-1.43 1.42m-6.94 0L7.1 5.69A7.941 7.941 0 0 1 11 4.07v2.02c-.91.15-1.75.51-2.47 1.02M5.69 7.1l1.42 1.43A5.95 5.95 0 0 0 6.09 11H4.07c.18-1.46.76-2.79 1.62-3.9M6 13v2.5H4V13h2m-2 7v-2.5h2V20H4m12 0H8v-8c0-2.21 1.79-4 4-4s4 1.79 4 4v8m.89-11.47 1.42-1.43a7.941 7.941 0 0 1 1.62 3.9h-2.02a5.95 5.95 0 0 0-1.02-2.47M18 13h2v2.5h-2V13m0 7v-2.5h2V20h-2Z" transform="matrix(1.5 0 0 1.5 612 144)" id="mdi-tunnel-outline" fill="#fff"/><path d="M12 2C6.47 2 2 6.5 2 12s4.5 10 10 10 10-4.5 10-10S17.5 2 12 2m0 18c-4.42 0-8-3.58-8-8s3.58-8 8-8 8 3.58 8 8-3.58 8-8 8m5.21-7.45-1.35-.36 1.44-.38 1.93-.52a1.996 1.996 0 0 0-2.44-1.42l-1.35.36 1.06-1.05 1.41-1.41c-.78-.77-2.05-.77-2.83-.01v.01l-.98.98.4-1.44.5-1.93c-1.07-.29-2.16.34-2.45 1.41l-.36 1.35-.38-1.44-.52-1.93c-1.07.28-1.7 1.38-1.42 2.45l.36 1.34L9.18 7.5 7.77 6.09C7 6.87 7 8.14 7.76 8.92h.01l.98.98-1.44-.4L5.38 9c-.29 1.07.34 2.16 1.41 2.45l1.35.36-1.44.39-1.93.51c.28 1.07 1.38 1.7 2.45 1.42l1.34-.36-1.06 1.05-1.41 1.41c.78.77 2.05.77 2.83.01v-.01l.98-.98-.4 1.44-.5 1.93c1.07.29 2.16-.34 2.45-1.41l.36-1.35.39 1.44.51 1.93c1.07-.28 1.7-1.38 1.42-2.44l-.36-1.35 1.05 1.06 1.42 1.41c.76-.78.76-2.05 0-2.83l-.99-.98 1.44.4 1.93.5c.29-1.07-.34-2.16-1.41-2.45M12 13.5c-.83 0-1.5-.67-1.5-1.5s.67-1.5 1.5-1.5 1.5.67 1.5 1.5-.67 1.5-1.5 1.5Z" transform="matrix(1.5 0 0 1.5 648 144)" id="mdi-turbine" fill="#555"/><path d="M12 2C6.47 2 2 6.5 2 12s4.5 10 10 10 10-4.5 10-10S17.5 2 12 2m0 18c-4.42 0-8-3.58-8-8s3.58-8 8-8 8 3.58 8 8-3.58 8-8 8m5.21-7.45-1.35-.36 1.44-.38 1.93-.52a1.996 1.996 0 0 0-2.44-1.42l-1.35.36 1.06-1.05 1.41-1.41c-.78-.77-2.05-.77-2.83-.01v.01l-.98.98.4-1.44.5-1.93c-1.07-.29-2.16.34-2.45 1.41l-.36 1.35-.38-1.44-.52-1.93c-1.07.28-1.7 1.38-1.42 2.45l.36 1.34L9.18 7.5 7.77 6.09C7 6.87 7 8.14 7.76 8.92h.01l.98.98-1.44-.4L5.38 9c-.29 1.07.34 2.16 1.41 2.45l1.35.36-1.44.39-1.93.51c.28 1.07 1.38 1.7 2.45 1.42l1.34-.36-1.06 1.05-1.41 1.41c.78.77 2.05.77 2.83.01v-.01l.98-.98-.4 1.44-.5 1.93c1.07.29 2.16-.34 2.45-1.41l.36-1.35.39 1.44.51 1.93c1.07-.28 1.7-1.38 1.42-2.44l-.36-1.35 1.05 1.06 1.42 1.41c.76-.78.76-2.05 0-2.83l-.99-.98 1.44.4 1.93.5c.29-1.07-.34-2.16-1.41-2.45M12 13.5c-.83 0-1.5-.67-1.5-1.5s.67-1.5 1.5-1.5 1.5.67 1.5 1.5-.67 1.5-1.5 1.5Z" transform="matrix(1.5 0 0 1.5 684 144)" id="mdi-turbine" fill="#fff"/><path d="M10.5 19.44c-.75.36-1.6.56-2.5.56-3.31 0-6-2.69-6-6V9c0-3.31 2.69-6 6-6l2.5 4.58c-2.4 1.23-4 3.42-4 5.92s1.61 4.7 4 5.94m5.5-.5V20h1c.55 0 1 .45 1 1s-.45 1-1 1h-3c-.55 0-1-.45-1-1s.45-1 1-1v-1.06c-3.39-.38-6-2.67-6-5.44C8 10.46 11.13 8 15 8h.56C14.84 6.63 14 5.23 14 4c0-1.1.9-2 2-2 2.21 0 4 1.79 4 4h-2s4 3 4 7.5c0 2.77-2.61 5.06-6 5.44M16 4c0 .55.45 1 1 1s1-.45 1-1-.45-1-1-1-1 .45-1 1m1 8a2 2 0 0 0-2-2c-2.21 0-4 1.79-4 4h4c1.11 0 2-.89 2-2Z" transform="matrix(1.5 0 0 1.5 0 180)" id="mdi-turkey" fill="#555"/><path d="M10.5 19.44c-.75.36-1.6.56-2.5.56-3.31 0-6-2.69-6-6V9c0-3.31 2.69-6 6-6l2.5 4.58c-2.4 1.23-4 3.42-4 5.92s1.61 4.7 4 5.94m5.5-.5V20h1c.55 0 1 .45 1 1s-.45 1-1 1h-3c-.55 0-1-.45-1-1s.45-1 1-1v-1.06c-3.39-.38-6-2.67-6-5.44C8 10.46 11.13 8 15 8h.56C14.84 6.63 14 5.23 14 4c0-1.1.9-2 2-2 2.21 0 4 1.79 4 4h-2s4 3 4 7.5c0 2.77-2.61 5.06-6 5.44M16 4c0 .55.45 1 1 1s1-.45 1-1-.45-1-1-1-1 .45-1 1m1 8a2 2 0 0 0-2-2c-2.21 0-4 1.79-4 4h4c1.11 0 2-.89 2-2Z" transform="matrix(1.5 0 0 1.5 36 180)" id="mdi-turkey" fill="#fff"/><path d="M22 22h-6V11l-6-6V2h12v20M9.17 6.17C8.42 6.92 8 7.94 8 9H2v2h6.55c.35.6.85 1.1 1.45 1.45V19h2v-6c1.06 0 2.08-.42 2.83-1.17L9.17 6.17Z" transform="matrix(1.5 0 0 1.5 72 180)" id="mdi-turnstile" fill="#555"/><path d="M22 22h-6V11l-6-6V2h12v20M9.17 6.17C8.42 6.92 8 7.94 8 9H2v2h6.55c.35.6.85 1.1 1.45 1.45V19h2v-6c1.06 0 2.08-.42 2.83-1.17L9.17 6.17Z" transform="matrix(1.5 0 0 1.5 108 180)" id="mdi-turnstile" fill="#fff"/><path d="M13.41 10.41c-.37.38-.88.59-1.41.59a2 2 0 0 1-2-2c0-.53.21-1.04.59-1.41L9.17 6.17C8.42 6.92 8 7.94 8 9H2v2h6.55c.35.6.85 1.1 1.45 1.45V19h2v-6c1.06 0 2.08-.42 2.83-1.17l-1.42-1.42M10 2v3l6 6v11h6V2H10m10 18h-2v-9.83l-6-6V4h8v16Z" transform="matrix(1.5 0 0 1.5 144 180)" id="mdi-turnstile-outline" fill="#555"/><path d="M13.41 10.41c-.37.38-.88.59-1.41.59a2 2 0 0 1-2-2c0-.53.21-1.04.59-1.41L9.17 6.17C8.42 6.92 8 7.94 8 9H2v2h6.55c.35.6.85 1.1 1.45 1.45V19h2v-6c1.06 0 2.08-.42 2.83-1.17l-1.42-1.42M10 2v3l6 6v11h6V2H10m10 18h-2v-9.83l-6-6V4h8v16Z" transform="matrix(1.5 0 0 1.5 180 180)" id="mdi-turnstile-outline" fill="#fff"/><path d="M8.47 5.95c.48-.28 1-.51 1.53-.67V4c0-1.1.87-2 1.97-2.03C13.13 2 14 2.9 14 4v1.28c.53.17 1.05.39 1.53.67l-1.6 2.12h-3.86l-1.6-2.12M19 12c0 .5-.05.95-.14 1.4l-2.53-.78-1.19-3.66 1.6-2.11c.43.4.81.85 1.14 1.35.79-.07 1.55.05 2.23.39 1.03.53 1.73 1.54 1.89 2.69l-3 .36V12M5 12v-.35l-3-.37c.16-1.15.86-2.16 1.89-2.69a3.54 3.54 0 0 1 2.19-.33c.33-.51.71-.98 1.16-1.39l1.62 2.08-1.19 3.67-2.53.78C5.05 12.95 5 12.5 5 12m5.24-2.43h3.52l1.09 3.36L12 15l-2.85-2.07 1.09-3.36m-2.11 4.48 3.12 2.26v2.65c-.57-.06-1.12-.19-1.63-.38l-1.23 2.76a3.487 3.487 0 0 1-2.02-2.58c-.14-.76-.02-1.52.32-2.2-.45-.52-.82-1.1-1.1-1.74l2.54-.77m7.74 0 2.54.77c-.28.64-.65 1.22-1.1 1.74.34.68.46 1.44.33 2.2a3.522 3.522 0 0 1-2.03 2.58l-1.22-2.76c-.53.19-1.06.36-1.64.42v-2.69l3.12-2.26Z" transform="matrix(1.5 0 0 1.5 216 180)" id="mdi-turtle" fill="#555"/><path d="M8.47 5.95c.48-.28 1-.51 1.53-.67V4c0-1.1.87-2 1.97-2.03C13.13 2 14 2.9 14 4v1.28c.53.17 1.05.39 1.53.67l-1.6 2.12h-3.86l-1.6-2.12M19 12c0 .5-.05.95-.14 1.4l-2.53-.78-1.19-3.66 1.6-2.11c.43.4.81.85 1.14 1.35.79-.07 1.55.05 2.23.39 1.03.53 1.73 1.54 1.89 2.69l-3 .36V12M5 12v-.35l-3-.37c.16-1.15.86-2.16 1.89-2.69a3.54 3.54 0 0 1 2.19-.33c.33-.51.71-.98 1.16-1.39l1.62 2.08-1.19 3.67-2.53.78C5.05 12.95 5 12.5 5 12m5.24-2.43h3.52l1.09 3.36L12 15l-2.85-2.07 1.09-3.36m-2.11 4.48 3.12 2.26v2.65c-.57-.06-1.12-.19-1.63-.38l-1.23 2.76a3.487 3.487 0 0 1-2.02-2.58c-.14-.76-.02-1.52.32-2.2-.45-.52-.82-1.1-1.1-1.74l2.54-.77m7.74 0 2.54.77c-.28.64-.65 1.22-1.1 1.74.34.68.46 1.44.33 2.2a3.522 3.522 0 0 1-2.03 2.58l-1.22-2.76c-.53.19-1.06.36-1.64.42v-2.69l3.12-2.26Z" transform="matrix(1.5 0 0 1.5 252 180)" id="mdi-turtle" fill="#fff"/><path d="M11.64 5.93h1.43v4.28h-1.43m3.93-4.28H17v4.28h-1.43M7 2 3.43 5.57v12.86h4.28V22l3.58-3.57h2.85L20.57 12V2m-1.43 9.29-2.85 2.85h-2.86l-2.5 2.5v-2.5H7.71V3.43h11.43Z" transform="matrix(1.5 0 0 1.5 288 180)" id="mdi-twitch" fill="#555"/><path d="M11.64 5.93h1.43v4.28h-1.43m3.93-4.28H17v4.28h-1.43M7 2 3.43 5.57v12.86h4.28V22l3.58-3.57h2.85L20.57 12V2m-1.43 9.29-2.85 2.85h-2.86l-2.5 2.5v-2.5H7.71V3.43h11.43Z" transform="matrix(1.5 0 0 1.5 324 180)" id="mdi-twitch" fill="#fff"/><path d="M22.46 6c-.77.35-1.6.58-2.46.69.88-.53 1.56-1.37 1.88-2.38-.83.5-1.75.85-2.72 1.05C18.37 4.5 17.26 4 16 4c-2.35 0-4.27 1.92-4.27 4.29 0 .34.04.67.11.98C8.28 9.09 5.11 7.38 3 4.79c-.37.63-.58 1.37-.58 2.15 0 1.49.75 2.81 1.91 3.56-.71 0-1.37-.2-1.95-.5v.03c0 2.08 1.48 3.82 3.44 4.21a4.22 4.22 0 0 1-1.93.07 4.28 4.28 0 0 0 4 2.98 8.521 8.521 0 0 1-5.33 1.84c-.34 0-.68-.02-1.02-.06C3.44 20.29 5.7 21 8.12 21 16 21 20.33 14.46 20.33 8.79c0-.19 0-.37-.01-.56.84-.6 1.56-1.36 2.14-2.23Z" transform="matrix(1.5 0 0 1.5 360 180)" id="mdi-twitter" fill="#555"/><path d="M22.46 6c-.77.35-1.6.58-2.46.69.88-.53 1.56-1.37 1.88-2.38-.83.5-1.75.85-2.72 1.05C18.37 4.5 17.26 4 16 4c-2.35 0-4.27 1.92-4.27 4.29 0 .34.04.67.11.98C8.28 9.09 5.11 7.38 3 4.79c-.37.63-.58 1.37-.58 2.15 0 1.49.75 2.81 1.91 3.56-.71 0-1.37-.2-1.95-.5v.03c0 2.08 1.48 3.82 3.44 4.21a4.22 4.22 0 0 1-1.93.07 4.28 4.28 0 0 0 4 2.98 8.521 8.521 0 0 1-5.33 1.84c-.34 0-.68-.02-1.02-.06C3.44 20.29 5.7 21 8.12 21 16 21 20.33 14.46 20.33 8.79c0-.19 0-.37-.01-.56.84-.6 1.56-1.36 2.14-2.23Z" transform="matrix(1.5 0 0 1.5 396 180)" id="mdi-twitter" fill="#fff"/><path d="M2 7v2h4v2H4a2 2 0 0 0-2 2v4h6v-2H4v-2h2a2 2 0 0 0 2-2V9a2 2 0 0 0-2-2H2m7 0v10h2v-4h3v-2h-3V9h4V7H9m9 0a2 2 0 0 0-2 2v8h2v-3h2v3h2V9a2 2 0 0 0-2-2h-2m0 2h2v3h-2V9Z" transform="matrix(1.5 0 0 1.5 432 180)" id="mdi-two-factor-authentication" fill="#555"/><path d="M2 7v2h4v2H4a2 2 0 0 0-2 2v4h6v-2H4v-2h2a2 2 0 0 0 2-2V9a2 2 0 0 0-2-2H2m7 0v10h2v-4h3v-2h-3V9h4V7H9m9 0a2 2 0 0 0-2 2v8h2v-3h2v3h2V9a2 2 0 0 0-2-2h-2m0 2h2v3h-2V9Z" transform="matrix(1.5 0 0 1.5 468 180)" id="mdi-two-factor-authentication" fill="#fff"/><path d="M20 13h-4c0 1.1-.9 2-2 2h-4c-1.1 0-2-.9-2-2H4l-2 5v2c0 1.1.9 2 2 2h16c1.1 0 2-.9 2-2v-2M6 20c-.89 0-1.34-1.08-.71-1.71.63-.63 1.71-.18 1.71.71 0 .55-.45 1-1 1m4 0c-.89 0-1.34-1.08-.71-1.71.63-.63 1.71-.18 1.71.71 0 .55-.45 1-1 1m4 0c-.89 0-1.34-1.08-.71-1.71.63-.63 1.71-.18 1.71.71 0 .55-.45 1-1 1m4 0c-.89 0-1.34-1.08-.71-1.71.63-.63 1.71-.18 1.71.71 0 .55-.45 1-1 1m0-10V3H6v7H3v2h18v-2M8 5h8v1H8m0 1h6v1H8" transform="matrix(1.5 0 0 1.5 504 180)" id="mdi-typewriter" fill="#555"/><path d="M20 13h-4c0 1.1-.9 2-2 2h-4c-1.1 0-2-.9-2-2H4l-2 5v2c0 1.1.9 2 2 2h16c1.1 0 2-.9 2-2v-2M6 20c-.89 0-1.34-1.08-.71-1.71.63-.63 1.71-.18 1.71.71 0 .55-.45 1-1 1m4 0c-.89 0-1.34-1.08-.71-1.71.63-.63 1.71-.18 1.71.71 0 .55-.45 1-1 1m4 0c-.89 0-1.34-1.08-.71-1.71.63-.63 1.71-.18 1.71.71 0 .55-.45 1-1 1m4 0c-.89 0-1.34-1.08-.71-1.71.63-.63 1.71-.18 1.71.71 0 .55-.45 1-1 1m0-10V3H6v7H3v2h18v-2M8 5h8v1H8m0 1h6v1H8" transform="matrix(1.5 0 0 1.5 540 180)" id="mdi-typewriter" fill="#fff"/><path d="M11.41 2c-6.2 0-8.88 5.53-8.88 5.53l.79.56S2.33 10 2.35 12.4c0 4.94 3.94 9.6 9.72 9.6 5.26 0 9.6-4.29 9.6-9.59C21.67 5.5 16.31 2 11.41 2m.06 1.69c4.84 0 8.6 3.91 8.6 8.45 0 4.81-3.62 8.16-7.84 8.16-3.1 0-5.9-2.36-5.9-5.6 0-1.88.99-3.2 2.11-3.88l.16.18c-.3.24-1.17 1.64-1.17 3 0 2.56 2 4.33 4.52 4.33 3.21 0 5.35-2.74 5.35-5.92 0-3.7-3.27-6.84-7.2-6.84-2.17 0-4.01.93-5.07 1.76l-.17-.15c1.39-2.14 3.79-3.49 6.61-3.49M10 7.23c2.53 0 4.97 1.66 5.59 4.02l-.23.08c-1.09-1.45-2.89-2.65-5.01-2.65-3.91 0-5.96 3.55-5.66 6.51l-.23.09s-.43-.95-.43-2.08c0-3.27 2.68-5.97 5.97-5.97m1.68 4.1c1.18 0 2.13.97 2.13 2.11 0 .94-.6 1.5-.6 1.5l.71.51s-.71 1.12-2.16 1.12c-1.39 0-2.63-1.13-2.63-2.64 0-1.55 1.34-2.6 2.55-2.6Z" transform="matrix(1.5 0 0 1.5 576 180)" id="mdi-ubisoft" fill="#555"/><path d="M11.41 2c-6.2 0-8.88 5.53-8.88 5.53l.79.56S2.33 10 2.35 12.4c0 4.94 3.94 9.6 9.72 9.6 5.26 0 9.6-4.29 9.6-9.59C21.67 5.5 16.31 2 11.41 2m.06 1.69c4.84 0 8.6 3.91 8.6 8.45 0 4.81-3.62 8.16-7.84 8.16-3.1 0-5.9-2.36-5.9-5.6 0-1.88.99-3.2 2.11-3.88l.16.18c-.3.24-1.17 1.64-1.17 3 0 2.56 2 4.33 4.52 4.33 3.21 0 5.35-2.74 5.35-5.92 0-3.7-3.27-6.84-7.2-6.84-2.17 0-4.01.93-5.07 1.76l-.17-.15c1.39-2.14 3.79-3.49 6.61-3.49M10 7.23c2.53 0 4.97 1.66 5.59 4.02l-.23.08c-1.09-1.45-2.89-2.65-5.01-2.65-3.91 0-5.96 3.55-5.66 6.51l-.23.09s-.43-.95-.43-2.08c0-3.27 2.68-5.97 5.97-5.97m1.68 4.1c1.18 0 2.13.97 2.13 2.11 0 .94-.6 1.5-.6 1.5l.71.51s-.71 1.12-2.16 1.12c-1.39 0-2.63-1.13-2.63-2.64 0-1.55 1.34-2.6 2.55-2.6Z" transform="matrix(1.5 0 0 1.5 612 180)" id="mdi-ubisoft" fill="#fff"/><path d="M22 12a10 10 0 0 1-10 10A10 10 0 0 1 2 12 10 10 0 0 1 12 2a10 10 0 0 1 10 10m-7.66-4.26c.58.33 1.31.13 1.66-.44.31-.57.12-1.3-.46-1.64-.57-.33-1.31-.16-1.64.44-.33.57-.13 1.31.44 1.64m-2.46 7.76c-.53 0-1.03-.11-1.47-.32l-.84 1.5c.7.32 1.48.54 2.31.54.49 0 .95-.07 1.4-.19.08-.49.36-.93.82-1.19.46-.27.98-.29 1.44-.12.89-.87 1.46-2.06 1.55-3.39l-1.71-.02a3.506 3.506 0 0 1-3.5 3.19m0-7c1.84 0 3.34 1.39 3.5 3.19l1.71-.03a5.209 5.209 0 0 0-1.55-3.38c-.46.17-.99.14-1.44-.12-.46-.26-.74-.71-.82-1.19-.45-.12-.91-.19-1.4-.19-.83 0-1.61.19-2.31.54l.84 1.5c.44-.21.94-.32 1.47-.32M8.37 12c0-1.19.59-2.24 1.49-2.87L9 7.65a5.217 5.217 0 0 0-2.17 3.04c.38.31.62.78.62 1.31s-.24 1-.62 1.31A5.195 5.195 0 0 0 9 16.34l.86-1.47c-.9-.63-1.49-1.68-1.49-2.87m5.97 4.26c-.57.33-.77 1.06-.44 1.64.33.57 1.07.77 1.64.44.58-.34.77-1.07.46-1.64-.35-.58-1.08-.77-1.66-.44M5.76 10.8c-.66 0-1.2.54-1.2 1.2 0 .66.54 1.2 1.2 1.2.67 0 1.2-.54 1.2-1.2 0-.66-.53-1.2-1.2-1.2Z" transform="matrix(1.5 0 0 1.5 648 180)" id="mdi-ubuntu" fill="#555"/><path d="M22 12a10 10 0 0 1-10 10A10 10 0 0 1 2 12 10 10 0 0 1 12 2a10 10 0 0 1 10 10m-7.66-4.26c.58.33 1.31.13 1.66-.44.31-.57.12-1.3-.46-1.64-.57-.33-1.31-.16-1.64.44-.33.57-.13 1.31.44 1.64m-2.46 7.76c-.53 0-1.03-.11-1.47-.32l-.84 1.5c.7.32 1.48.54 2.31.54.49 0 .95-.07 1.4-.19.08-.49.36-.93.82-1.19.46-.27.98-.29 1.44-.12.89-.87 1.46-2.06 1.55-3.39l-1.71-.02a3.506 3.506 0 0 1-3.5 3.19m0-7c1.84 0 3.34 1.39 3.5 3.19l1.71-.03a5.209 5.209 0 0 0-1.55-3.38c-.46.17-.99.14-1.44-.12-.46-.26-.74-.71-.82-1.19-.45-.12-.91-.19-1.4-.19-.83 0-1.61.19-2.31.54l.84 1.5c.44-.21.94-.32 1.47-.32M8.37 12c0-1.19.59-2.24 1.49-2.87L9 7.65a5.217 5.217 0 0 0-2.17 3.04c.38.31.62.78.62 1.31s-.24 1-.62 1.31A5.195 5.195 0 0 0 9 16.34l.86-1.47c-.9-.63-1.49-1.68-1.49-2.87m5.97 4.26c-.57.33-.77 1.06-.44 1.64.33.57 1.07.77 1.64.44.58-.34.77-1.07.46-1.64-.35-.58-1.08-.77-1.66-.44M5.76 10.8c-.66 0-1.2.54-1.2 1.2 0 .66.54 1.2 1.2 1.2.67 0 1.2-.54 1.2-1.2 0-.66-.53-1.2-1.2-1.2Z" transform="matrix(1.5 0 0 1.5 684 180)" id="mdi-ubuntu" fill="#fff"/><path d="M15.94 10.28C15.66 7.87 14 6 12 6s-3.66 1.87-3.94 4.28C4.5 10.82 2 12.06 2 13.5 2 15.43 6.5 17 12 17s10-1.57 10-3.5c0-1.44-2.5-2.68-6.06-3.22Z" transform="matrix(1.5 0 0 1.5 0 216)" id="mdi-ufo" fill="#555"/><path d="M15.94 10.28C15.66 7.87 14 6 12 6s-3.66 1.87-3.94 4.28C4.5 10.82 2 12.06 2 13.5 2 15.43 6.5 17 12 17s10-1.57 10-3.5c0-1.44-2.5-2.68-6.06-3.22Z" transform="matrix(1.5 0 0 1.5 36 216)" id="mdi-ufo" fill="#fff"/><path d="M17 10.54C16.78 7.44 14.63 5 12 5s-4.78 2.44-5 5.54C4 11.23 2 12.5 2 14c0 2.21 4.5 4 10 4s10-1.79 10-4c0-1.5-2-2.77-5-3.46m-2.07 1.3c-1.9.21-3.96.21-5.86 0-.04-.28-.07-.56-.07-.84 0-2.2 1.35-4 3-4s3 1.8 3 4c0 .28 0 .56-.07.84Z" transform="matrix(1.5 0 0 1.5 72 216)" id="mdi-ufo-outline" fill="#555"/><path d="M17 10.54C16.78 7.44 14.63 5 12 5s-4.78 2.44-5 5.54C4 11.23 2 12.5 2 14c0 2.21 4.5 4 10 4s10-1.79 10-4c0-1.5-2-2.77-5-3.46m-2.07 1.3c-1.9.21-3.96.21-5.86 0-.04-.28-.07-.56-.07-.84 0-2.2 1.35-4 3-4s3 1.8 3 4c0 .28 0 .56-.07.84Z" transform="matrix(1.5 0 0 1.5 108 216)" id="mdi-ufo-outline" fill="#fff"/><path d="M9 7h2v4h2V7h2v10h-2v-4h-2v4H9V7m8 0h3a3 3 0 0 1 3 3v4a3 3 0 0 1-3 3h-3V7m3 8a1 1 0 0 0 1-1v-4a1 1 0 0 0-1-1h-1v6h1M7 14a3 3 0 0 1-3 3 3 3 0 0 1-3-3V7h2v7a1 1 0 0 0 1 1 1 1 0 0 0 1-1V7h2v7Z" transform="matrix(1.5 0 0 1.5 144 216)" id="mdi-ultra-high-definition" fill="#555"/><path d="M9 7h2v4h2V7h2v10h-2v-4h-2v4H9V7m8 0h3a3 3 0 0 1 3 3v4a3 3 0 0 1-3 3h-3V7m3 8a1 1 0 0 0 1-1v-4a1 1 0 0 0-1-1h-1v6h1M7 14a3 3 0 0 1-3 3 3 3 0 0 1-3-3V7h2v7a1 1 0 0 0 1 1 1 1 0 0 0 1-1V7h2v7Z" transform="matrix(1.5 0 0 1.5 180 216)" id="mdi-ultra-high-definition" fill="#fff"/><path d="m8.6 8.6-1.43-.22c-.67 3.29-.71 5.86.44 7.12.99 1.11 4.28 1.11 4.28 1.11s3.4 0 4.39-1.11c1.15-1.26 1.1-3.83.44-7.12l-1.43.22s1.25 5.28-.6 6.09c-.88.38-2.8.38-2.8.38s-1.81 0-2.69-.38c-1.85-.81-.6-6.09-.6-6.09M12 3a9 9 0 0 1 9 9 9 9 0 0 1-9 9 9 9 0 0 1-9-9 9 9 0 0 1 9-9Z" transform="matrix(1.5 0 0 1.5 216 216)" id="mdi-umbraco" fill="#555"/><path d="m8.6 8.6-1.43-.22c-.67 3.29-.71 5.86.44 7.12.99 1.11 4.28 1.11 4.28 1.11s3.4 0 4.39-1.11c1.15-1.26 1.1-3.83.44-7.12l-1.43.22s1.25 5.28-.6 6.09c-.88.38-2.8.38-2.8.38s-1.81 0-2.69-.38c-1.85-.81-.6-6.09-.6-6.09M12 3a9 9 0 0 1 9 9 9 9 0 0 1-9 9 9 9 0 0 1-9-9 9 9 0 0 1 9-9Z" transform="matrix(1.5 0 0 1.5 252 216)" id="mdi-umbraco" fill="#fff"/><path d="M12 2a9 9 0 0 1 9 9h-8v8a3 3 0 0 1-3 3 3 3 0 0 1-3-3v-1h2v1a1 1 0 0 0 1 1 1 1 0 0 0 1-1v-8H3a9 9 0 0 1 9-9Z" transform="matrix(1.5 0 0 1.5 288 216)" id="mdi-umbrella" fill="#555"/><path d="M12 2a9 9 0 0 1 9 9h-8v8a3 3 0 0 1-3 3 3 3 0 0 1-3-3v-1h2v1a1 1 0 0 0 1 1 1 1 0 0 0 1-1v-8H3a9 9 0 0 1 9-9Z" transform="matrix(1.5 0 0 1.5 324 216)" id="mdi-umbrella" fill="#fff"/><path d="m13.13 14.56 1.43-1.43L21 19.57 19.57 21l-6.44-6.44m4.29-5.73 2.86-2.86C16.33 2 9.93 2 6 5.95c3.91-1.3 8.29-.25 11.42 2.88M5.95 6C2 9.93 2 16.33 5.97 20.28l2.86-2.86C5.7 14.29 4.65 9.91 5.95 6m.02-.04-.01.01C5.58 9 7.13 12.85 10.26 16L16 10.26c-3.14-3.13-7-4.68-10.03-4.3Z" transform="matrix(1.5 0 0 1.5 360 216)" id="mdi-umbrella-beach" fill="#555"/><path d="m13.13 14.56 1.43-1.43L21 19.57 19.57 21l-6.44-6.44m4.29-5.73 2.86-2.86C16.33 2 9.93 2 6 5.95c3.91-1.3 8.29-.25 11.42 2.88M5.95 6C2 9.93 2 16.33 5.97 20.28l2.86-2.86C5.7 14.29 4.65 9.91 5.95 6m.02-.04-.01.01C5.58 9 7.13 12.85 10.26 16L16 10.26c-3.14-3.13-7-4.68-10.03-4.3Z" transform="matrix(1.5 0 0 1.5 396 216)" id="mdi-umbrella-beach" fill="#fff"/><path d="M21 19.57 19.57 21l-6.44-6.44 1.43-1.43L21 19.57M13.12 3C10.54 3 7.96 4 6 5.95l-.03.01a10.086 10.086 0 0 0 0 14.31l14.3-14.31A10.128 10.128 0 0 0 13.12 3M6.14 17.27a8.063 8.063 0 0 1-.68-6.82c.19 1.91.89 3.79 2.07 5.44l-1.39 1.38M9 14.43c-1.37-2.05-1.88-4.5-1.4-6.83.58-.1 1.16-.18 1.75-.18 1.8 0 3.55.55 5.08 1.58L9 14.43m1.45-8.97a8.063 8.063 0 0 1 6.82.68l-1.39 1.39a11.25 11.25 0 0 0-5.43-2.07Z" transform="matrix(1.5 0 0 1.5 432 216)" id="mdi-umbrella-beach-outline" fill="#555"/><path d="M21 19.57 19.57 21l-6.44-6.44 1.43-1.43L21 19.57M13.12 3C10.54 3 7.96 4 6 5.95l-.03.01a10.086 10.086 0 0 0 0 14.31l14.3-14.31A10.128 10.128 0 0 0 13.12 3M6.14 17.27a8.063 8.063 0 0 1-.68-6.82c.19 1.91.89 3.79 2.07 5.44l-1.39 1.38M9 14.43c-1.37-2.05-1.88-4.5-1.4-6.83.58-.1 1.16-.18 1.75-.18 1.8 0 3.55.55 5.08 1.58L9 14.43m1.45-8.97a8.063 8.063 0 0 1 6.82.68l-1.39 1.39a11.25 11.25 0 0 0-5.43-2.07Z" transform="matrix(1.5 0 0 1.5 468 216)" id="mdi-umbrella-beach-outline" fill="#fff"/><path d="M12 2c-.4 0-.7.2-.9.6L6.5 15H11v4c0 .6-.4 1-1 1s-1-.4-1-1v-1H7v1c0 1.7 1.3 3 3 3s3-1.3 3-3v-4h4.5L12.9 2.6c-.2-.4-.5-.6-.9-.6Z" transform="matrix(1.5 0 0 1.5 504 216)" id="mdi-umbrella-closed" fill="#555"/><path d="M12 2c-.4 0-.7.2-.9.6L6.5 15H11v4c0 .6-.4 1-1 1s-1-.4-1-1v-1H7v1c0 1.7 1.3 3 3 3s3-1.3 3-3v-4h4.5L12.9 2.6c-.2-.4-.5-.6-.9-.6Z" transform="matrix(1.5 0 0 1.5 540 216)" id="mdi-umbrella-closed" fill="#fff"/><path d="M12 2c.4 0 .8.2.9.6L17.5 15H13v4c0 1.7-1.3 3-3 3s-3-1.3-3-3v-1h2v1c0 .6.4 1 1 1s1-.4 1-1v-4H6.5l4.6-12.4c.1-.4.5-.6.9-.6m0 3.9L9.4 13h5.3L12 5.9Z" transform="matrix(1.5 0 0 1.5 576 216)" id="mdi-umbrella-closed-outline" fill="#555"/><path d="M12 2c.4 0 .8.2.9.6L17.5 15H13v4c0 1.7-1.3 3-3 3s-3-1.3-3-3v-1h2v1c0 .6.4 1 1 1s1-.4 1-1v-4H6.5l4.6-12.4c.1-.4.5-.6.9-.6m0 3.9L9.4 13h5.3L12 5.9Z" transform="matrix(1.5 0 0 1.5 612 216)" id="mdi-umbrella-closed-outline" fill="#fff"/><path d="m15 7-2-1V3.5c0-.3.2-.5.5-.5s.5.2.5.5V4h2v-.5C16 2.1 14.9 1 13.5 1S11 2.1 11 3.5V6L9 7 6 6l5.1 15.3c.3.9 1.6.9 1.9 0C14.6 16.2 18 6 18 6l-3 1m-4 8L9 8.9l.7.2 1.3-1V15m2-6.9 1.3 1 .7-.2-2 6.1V8.1Z" transform="matrix(1.5 0 0 1.5 648 216)" id="mdi-umbrella-closed-variant" fill="#555"/><path d="m15 7-2-1V3.5c0-.3.2-.5.5-.5s.5.2.5.5V4h2v-.5C16 2.1 14.9 1 13.5 1S11 2.1 11 3.5V6L9 7 6 6l5.1 15.3c.3.9 1.6.9 1.9 0C14.6 16.2 18 6 18 6l-3 1m-4 8L9 8.9l.7.2 1.3-1V15m2-6.9 1.3 1 .7-.2-2 6.1V8.1Z" transform="matrix(1.5 0 0 1.5 684 216)" id="mdi-umbrella-closed-variant" fill="#fff"/><path d="M12 4C8.9 4 6.18 6.03 5.3 9h13.4A7 7 0 0 0 12 4m0-2a9 9 0 0 1 9 9h-8v8a3 3 0 0 1-3 3 3 3 0 0 1-3-3v-1h2v1a1 1 0 0 0 1 1 1 1 0 0 0 1-1v-8H3a9 9 0 0 1 9-9Z" transform="matrix(1.5 0 0 1.5 0 252)" id="mdi-umbrella-outline" fill="#555"/><path d="M12 4C8.9 4 6.18 6.03 5.3 9h13.4A7 7 0 0 0 12 4m0-2a9 9 0 0 1 9 9h-8v8a3 3 0 0 1-3 3 3 3 0 0 1-3-3v-1h2v1a1 1 0 0 0 1 1 1 1 0 0 0 1-1v-8H3a9 9 0 0 1 9-9Z" transform="matrix(1.5 0 0 1.5 36 252)" id="mdi-umbrella-outline" fill="#fff"/><path d="M12.5 8c-2.65 0-5.05 1-6.9 2.6L2 7v9h9l-3.62-3.62c1.39-1.16 3.16-1.88 5.12-1.88 3.54 0 6.55 2.31 7.6 5.5l2.37-.78C21.08 11.03 17.15 8 12.5 8Z" transform="matrix(1.5 0 0 1.5 72 252)" id="mdi-undo" fill="#555"/><path d="M12.5 8c-2.65 0-5.05 1-6.9 2.6L2 7v9h9l-3.62-3.62c1.39-1.16 3.16-1.88 5.12-1.88 3.54 0 6.55 2.31 7.6 5.5l2.37-.78C21.08 11.03 17.15 8 12.5 8Z" transform="matrix(1.5 0 0 1.5 108 252)" id="mdi-undo" fill="#fff"/><path d="M13.5 7a6.5 6.5 0 0 1 6.5 6.5 6.5 6.5 0 0 1-6.5 6.5H10v-2h3.5c2.5 0 4.5-2 4.5-4.5S16 9 13.5 9H7.83l3.08 3.09L9.5 13.5 4 8l5.5-5.5 1.42 1.41L7.83 7h5.67M6 18h2v2H6v-2Z" transform="matrix(1.5 0 0 1.5 144 252)" id="mdi-undo-variant" fill="#555"/><path d="M13.5 7a6.5 6.5 0 0 1 6.5 6.5 6.5 6.5 0 0 1-6.5 6.5H10v-2h3.5c2.5 0 4.5-2 4.5-4.5S16 9 13.5 9H7.83l3.08 3.09L9.5 13.5 4 8l5.5-5.5 1.42 1.41L7.83 7h5.67M6 18h2v2H6v-2Z" transform="matrix(1.5 0 0 1.5 180 252)" id="mdi-undo-variant" fill="#fff"/><path d="M16.59 5.41 15.17 4 12 7.17 8.83 4 7.41 5.41 12 10m-4.59 8.59L8.83 20 12 16.83 15.17 20l1.41-1.41L12 14l-4.59 4.59Z" transform="matrix(1.5 0 0 1.5 216 252)" id="mdi-unfold-less-horizontal" fill="#555"/><path d="M16.59 5.41 15.17 4 12 7.17 8.83 4 7.41 5.41 12 10m-4.59 8.59L8.83 20 12 16.83 15.17 20l1.41-1.41L12 14l-4.59 4.59Z" transform="matrix(1.5 0 0 1.5 252 252)" id="mdi-unfold-less-horizontal" fill="#fff"/><path d="M5.41 7.41 10 12l-4.59 4.59L4 15.17 7.17 12 4 8.83l1.41-1.42m13.18 9.18L14 12l4.59-4.58L20 8.83 16.83 12 20 15.17l-1.41 1.42Z" transform="matrix(1.5 0 0 1.5 288 252)" id="mdi-unfold-less-vertical" fill="#555"/><path d="M5.41 7.41 10 12l-4.59 4.59L4 15.17 7.17 12 4 8.83l1.41-1.42m13.18 9.18L14 12l4.59-4.58L20 8.83 16.83 12 20 15.17l-1.41 1.42Z" transform="matrix(1.5 0 0 1.5 324 252)" id="mdi-unfold-less-vertical" fill="#fff"/><path d="M12 18.17 8.83 15l-1.41 1.41L12 21l4.59-4.59L15.17 15M12 5.83 15.17 9l1.41-1.41L12 3 7.41 7.59 8.83 9 12 5.83Z" transform="matrix(1.5 0 0 1.5 360 252)" id="mdi-unfold-more-horizontal" fill="#555"/><path d="M12 18.17 8.83 15l-1.41 1.41L12 21l4.59-4.59L15.17 15M12 5.83 15.17 9l1.41-1.41L12 3 7.41 7.59 8.83 9 12 5.83Z" transform="matrix(1.5 0 0 1.5 396 252)" id="mdi-unfold-more-horizontal" fill="#fff"/><path d="M18.17 12 15 8.83l1.41-1.42L21 12l-4.59 4.58L15 15.17 18.17 12M5.83 12 9 15.17l-1.41 1.42L3 12l4.59-4.58L9 8.83 5.83 12Z" transform="matrix(1.5 0 0 1.5 432 252)" id="mdi-unfold-more-vertical" fill="#555"/><path d="M18.17 12 15 8.83l1.41-1.42L21 12l-4.59 4.58L15 15.17 18.17 12M5.83 12 9 15.17l-1.41 1.42L3 12l4.59-4.58L9 8.83 5.83 12Z" transform="matrix(1.5 0 0 1.5 468 252)" id="mdi-unfold-more-vertical" fill="#fff"/><path d="M2 2h4v1h7V2h4v4h-1v3h2V8h4v4h-1v6h1v4h-4v-1h-6v1H8v-4h1v-2H6v1H2v-4h1V6H2V2m16 10v-1h-2v2h1v4h-4v-1h-2v2h1v1h6v-1h1v-6h-1m-5-6V5H6v1H5v7h1v1h3v-2H8V8h4v1h2V6h-1m-1 6h-1v2h2v-1h1v-2h-2v1Z" transform="matrix(1.5 0 0 1.5 504 252)" id="mdi-ungroup" fill="#555"/><path d="M2 2h4v1h7V2h4v4h-1v3h2V8h4v4h-1v6h1v4h-4v-1h-6v1H8v-4h1v-2H6v1H2v-4h1V6H2V2m16 10v-1h-2v2h1v4h-4v-1h-2v2h1v1h6v-1h1v-6h-1m-5-6V5H6v1H5v7h1v1h3v-2H8V8h4v1h2V6h-1m-1 6h-1v2h2v-1h1v-2h-2v1Z" transform="matrix(1.5 0 0 1.5 540 252)" id="mdi-ungroup" fill="#fff"/><path d="M22 6a1.46 1.46 0 0 1-1.46 1.44A1.46 1.46 0 0 1 19.09 6a1.46 1.46 0 0 1 1.45-1.5A1.46 1.46 0 0 1 22 6m-.44 2.86h-2.03c-.13-.01-.19.05-.19.14v3.59c0 .49 0 .91.01 1.27l.02.9c.01.24.02.45.02.63.01.17.01.33.01.47h-.02c-.12-.26-.31-.64-.56-1.12-.24-.47-.53-1.02-.85-1.63-.33-.61-.68-1.27-1.05-1.96-.37-.68-.74-1.37-1.11-2.04-.36-.68-.72-1.33-1.06-1.95-.35-.62-.65-1.16-.9-1.62-.03-.04-.06-.1-.08-.12-.03-.02-.09-.03-.17-.03h-2.98c-.12 0-.15.05-.15.15h.03c-.03.02-.03.03-.03.04v8.26c0 .66-.07 1.16-.22 1.61-.15.43-.35.78-.61 1.05-.26.25-.57.43-.92.55-.36.11-.72.17-1.16.17-1.02 0-1.77-.31-2.26-.91-.5-.61-.74-1.42-.74-2.43V5.56c0-.11-.06-.17-.17-.17H2.17c-.11 0-.17.06-.17.19v8.49c0 .93.13 1.71.38 2.39.25.67.62 1.23 1.12 1.68.46.44 1.03.78 1.71 1 .68.22 1.43.36 2.26.36.77 0 1.5-.12 2.18-.33.69-.2 1.28-.53 1.77-.97.49-.45.88-1.02 1.17-1.7.29-.71.44-1.55.44-2.54V8.62c.11.24.25.53.41.85.29.58.61 1.21.98 1.91s.75 1.42 1.16 2.18c.42.76.81 1.5 1.19 2.2.39.7.73 1.35 1.06 1.94.32.59.57 1.06.75 1.42.05.1.15.15.27.15h2.69c.14 0 .21-.07.21-.19V9.05c0-.13-.07-.2-.19-.2Z" transform="matrix(1.5 0 0 1.5 576 252)" id="mdi-unicode" fill="#555"/><path d="M22 6a1.46 1.46 0 0 1-1.46 1.44A1.46 1.46 0 0 1 19.09 6a1.46 1.46 0 0 1 1.45-1.5A1.46 1.46 0 0 1 22 6m-.44 2.86h-2.03c-.13-.01-.19.05-.19.14v3.59c0 .49 0 .91.01 1.27l.02.9c.01.24.02.45.02.63.01.17.01.33.01.47h-.02c-.12-.26-.31-.64-.56-1.12-.24-.47-.53-1.02-.85-1.63-.33-.61-.68-1.27-1.05-1.96-.37-.68-.74-1.37-1.11-2.04-.36-.68-.72-1.33-1.06-1.95-.35-.62-.65-1.16-.9-1.62-.03-.04-.06-.1-.08-.12-.03-.02-.09-.03-.17-.03h-2.98c-.12 0-.15.05-.15.15h.03c-.03.02-.03.03-.03.04v8.26c0 .66-.07 1.16-.22 1.61-.15.43-.35.78-.61 1.05-.26.25-.57.43-.92.55-.36.11-.72.17-1.16.17-1.02 0-1.77-.31-2.26-.91-.5-.61-.74-1.42-.74-2.43V5.56c0-.11-.06-.17-.17-.17H2.17c-.11 0-.17.06-.17.19v8.49c0 .93.13 1.71.38 2.39.25.67.62 1.23 1.12 1.68.46.44 1.03.78 1.71 1 .68.22 1.43.36 2.26.36.77 0 1.5-.12 2.18-.33.69-.2 1.28-.53 1.77-.97.49-.45.88-1.02 1.17-1.7.29-.71.44-1.55.44-2.54V8.62c.11.24.25.53.41.85.29.58.61 1.21.98 1.91s.75 1.42 1.16 2.18c.42.76.81 1.5 1.19 2.2.39.7.73 1.35 1.06 1.94.32.59.57 1.06.75 1.42.05.1.15.15.27.15h2.69c.14 0 .21-.07.21-.19V9.05c0-.13-.07-.2-.19-.2Z" transform="matrix(1.5 0 0 1.5 612 252)" id="mdi-unicode" fill="#fff"/><path d="m22 5-.89 1.34c.54.36.89.97.89 1.66v3.5l-1.5.5-1.54-2.46c-.13-.21-.46-.12-.46.13v3.58c0 .98-.39 1.86-1 2.53V22H15v-5h-.25c-.21 0-.42-.03-.62-.06l-4.68-.78-.88 1.96.97 3.88H6.96l-.92-3.7c-.07-.27-.04-.56.07-.8l.89-2a3.319 3.319 0 0 1-1.5-2.69c-.04.15-.06.37-.03.69.03.44.14 1.09.07 1.81-.04.72-.36 1.46-.78 1.95-.44.49-.91.83-1.41 1.09l-.7-.7c.19-.47.38-.89.42-1.28.06-.37-.01-.67-.12-.94l-.53-1.13c-.21-.51-.47-1.25-.42-2.12.03-.85.5-1.96 1.39-2.57.9-.61 1.87-.7 2.66-.53.5.1 1.01.34 1.45.68.37-.17.8-.26 1.25-.26h5.75V9c0-2.21 1.79-4 4-4L22 2l-1 3h1Z" transform="matrix(1.5 0 0 1.5 648 252)" id="mdi-unicorn" fill="#555"/><path d="m22 5-.89 1.34c.54.36.89.97.89 1.66v3.5l-1.5.5-1.54-2.46c-.13-.21-.46-.12-.46.13v3.58c0 .98-.39 1.86-1 2.53V22H15v-5h-.25c-.21 0-.42-.03-.62-.06l-4.68-.78-.88 1.96.97 3.88H6.96l-.92-3.7c-.07-.27-.04-.56.07-.8l.89-2a3.319 3.319 0 0 1-1.5-2.69c-.04.15-.06.37-.03.69.03.44.14 1.09.07 1.81-.04.72-.36 1.46-.78 1.95-.44.49-.91.83-1.41 1.09l-.7-.7c.19-.47.38-.89.42-1.28.06-.37-.01-.67-.12-.94l-.53-1.13c-.21-.51-.47-1.25-.42-2.12.03-.85.5-1.96 1.39-2.57.9-.61 1.87-.7 2.66-.53.5.1 1.01.34 1.45.68.37-.17.8-.26 1.25-.26h5.75V9c0-2.21 1.79-4 4-4L22 2l-1 3h1Z" transform="matrix(1.5 0 0 1.5 684 252)" id="mdi-unicorn" fill="#fff"/><path d="M20 12v7l-3 1-3-4.67c-.29-.44-1-.19-.92.34L14 23 4 18l.96-5.25C5.56 9.42 8.46 7 11.84 7H13l6-6-2 6h3l-1.58 2.37C19.36 9.88 20 10.86 20 12Z" transform="matrix(1.5 0 0 1.5 0 288)" id="mdi-unicorn-variant" fill="#555"/><path d="M20 12v7l-3 1-3-4.67c-.29-.44-1-.19-.92.34L14 23 4 18l.96-5.25C5.56 9.42 8.46 7 11.84 7H13l6-6-2 6h3l-1.58 2.37C19.36 9.88 20 10.86 20 12Z" transform="matrix(1.5 0 0 1.5 36 288)" id="mdi-unicorn-variant" fill="#fff"/><path d="M13 9.09V5h1c.55 0 1-.45 1-1s-.45-1-1-1h-4c-.55 0-1 .45-1 1s.45 1 1 1h1v4.09c-2.84.48-5 2.94-5 5.91 0 3.31 2.69 6 6 6s6-2.69 6-6c0-2.97-2.16-5.43-5-5.91M12 19c-2.21 0-4-1.79-4-4 0-1.86 1.28-3.41 3-3.86V16h2v-4.86c1.72.45 3 2 3 3.86 0 2.21-1.79 4-4 4Z" transform="matrix(1.5 0 0 1.5 72 288)" id="mdi-unicycle" fill="#555"/><path d="M13 9.09V5h1c.55 0 1-.45 1-1s-.45-1-1-1h-4c-.55 0-1 .45-1 1s.45 1 1 1h1v4.09c-2.84.48-5 2.94-5 5.91 0 3.31 2.69 6 6 6s6-2.69 6-6c0-2.97-2.16-5.43-5-5.91M12 19c-2.21 0-4-1.79-4-4 0-1.86 1.28-3.41 3-3.86V16h2v-4.86c1.72.45 3 2 3 3.86 0 2.21-1.79 4-4 4Z" transform="matrix(1.5 0 0 1.5 108 288)" id="mdi-unicycle" fill="#fff"/><path d="M10.11 17H7.5l-4.91-5L7.5 7h2.61l1.31-2.26L18.21 3l1.87 6.74L18.77 12l1.31 2.26L18.21 21l-6.79-1.74L10.11 17m.14-.25 5.13 1.38L12.42 13H6.5l3.75 3.75m6.87.38L18.5 12l-1.38-5.13L14.15 12l2.97 5.13m-6.87-9.88L6.5 11h5.92l2.96-5.13-5.13 1.38Z" transform="matrix(1.5 0 0 1.5 144 288)" id="mdi-unity" fill="#555"/><path d="M10.11 17H7.5l-4.91-5L7.5 7h2.61l1.31-2.26L18.21 3l1.87 6.74L18.77 12l1.31 2.26L18.21 21l-6.79-1.74L10.11 17m.14-.25 5.13 1.38L12.42 13H6.5l3.75 3.75m6.87.38L18.5 12l-1.38-5.13L14.15 12l2.97 5.13m-6.87-9.88L6.5 11h5.92l2.96-5.13-5.13 1.38Z" transform="matrix(1.5 0 0 1.5 180 288)" id="mdi-unity" fill="#fff"/><path d="M2 12a10 10 0 0 0 10 10 10 10 0 0 0 10-10A10 10 0 0 0 12 2 10 10 0 0 0 2 12m3.24 6.76A9.493 9.493 0 0 1 2.44 12c0-2.55.99-4.95 2.8-6.76A9.493 9.493 0 0 1 12 2.44c2.55 0 4.95.99 6.76 2.8a9.493 9.493 0 0 1 2.8 6.76c0 2.55-.99 4.95-2.8 6.76a9.493 9.493 0 0 1-6.76 2.8c-2.55 0-4.95-.99-6.76-2.8M6.35 9.5c-2.01 2.29-1.62 4.18-1.62 4.18s.55-1.3 1.88-2.68c.64-.63 1.11-.85 1.43-.85.36 0 .53.26.53.5v4.64c0 .46-.3.56-.57.55-.23 0-.45-.08-.45-.08C8.92 17.73 12.19 18 12.19 18l1.44-1.5h.04L15 17.63c2.39-1.42 3.55-4.05 3.55-4.05-1.05 1.12-1.76 1.39-2.16 1.38-.36 0-.51-.21-.51-.21-.01-.1-.06-5.85.01-5.85.42-.77 1.74-2.34 1.74-2.34-2.47.49-3.82 2.1-3.82 2.1-.4-.31-1.22-.26-1.22-.26.38.21.76.81.76 1.32v4.93s-.85.73-1.47.73c-.38 0-.61-.21-.74-.38-.09-.12-.14-.21-.14-.21v-6.1c-.07.06-.18.11-.29.11-.14-.01-.28-.07-.37-.27-.08-.15-.12-.38-.12-.7 0-1.13 1.28-1.87 1.28-1.87-1.63.43-3.14 1.26-5.15 3.54" transform="matrix(1.5 0 0 1.5 216 288)" id="mdi-unreal" fill="#555"/><path d="M2 12a10 10 0 0 0 10 10 10 10 0 0 0 10-10A10 10 0 0 0 12 2 10 10 0 0 0 2 12m3.24 6.76A9.493 9.493 0 0 1 2.44 12c0-2.55.99-4.95 2.8-6.76A9.493 9.493 0 0 1 12 2.44c2.55 0 4.95.99 6.76 2.8a9.493 9.493 0 0 1 2.8 6.76c0 2.55-.99 4.95-2.8 6.76a9.493 9.493 0 0 1-6.76 2.8c-2.55 0-4.95-.99-6.76-2.8M6.35 9.5c-2.01 2.29-1.62 4.18-1.62 4.18s.55-1.3 1.88-2.68c.64-.63 1.11-.85 1.43-.85.36 0 .53.26.53.5v4.64c0 .46-.3.56-.57.55-.23 0-.45-.08-.45-.08C8.92 17.73 12.19 18 12.19 18l1.44-1.5h.04L15 17.63c2.39-1.42 3.55-4.05 3.55-4.05-1.05 1.12-1.76 1.39-2.16 1.38-.36 0-.51-.21-.51-.21-.01-.1-.06-5.85.01-5.85.42-.77 1.74-2.34 1.74-2.34-2.47.49-3.82 2.1-3.82 2.1-.4-.31-1.22-.26-1.22-.26.38.21.76.81.76 1.32v4.93s-.85.73-1.47.73c-.38 0-.61-.21-.74-.38-.09-.12-.14-.21-.14-.21v-6.1c-.07.06-.18.11-.29.11-.14-.01-.28-.07-.37-.27-.08-.15-.12-.38-.12-.7 0-1.13 1.28-1.87 1.28-1.87-1.63.43-3.14 1.26-5.15 3.54" transform="matrix(1.5 0 0 1.5 252 288)" id="mdi-unreal" fill="#fff"/><path d="M21 10.12h-6.78l2.74-2.82c-2.73-2.7-7.15-2.8-9.88-.1a6.887 6.887 0 0 0 0 9.8c2.73 2.7 7.15 2.7 9.88 0 1.36-1.35 2.04-2.92 2.04-4.9h2c0 1.98-.88 4.55-2.64 6.29-3.51 3.48-9.21 3.48-12.72 0-3.5-3.47-3.53-9.11-.02-12.58a8.987 8.987 0 0 1 12.65 0L21 3v7.12M12.5 8v4.25l3.5 2.08-.72 1.21L11 13V8h1.5Z" transform="matrix(1.5 0 0 1.5 288 288)" id="mdi-update" fill="#555"/><path d="M21 10.12h-6.78l2.74-2.82c-2.73-2.7-7.15-2.8-9.88-.1a6.887 6.887 0 0 0 0 9.8c2.73 2.7 7.15 2.7 9.88 0 1.36-1.35 2.04-2.92 2.04-4.9h2c0 1.98-.88 4.55-2.64 6.29-3.51 3.48-9.21 3.48-12.72 0-3.5-3.47-3.53-9.11-.02-12.58a8.987 8.987 0 0 1 12.65 0L21 3v7.12M12.5 8v4.25l3.5 2.08-.72 1.21L11 13V8h1.5Z" transform="matrix(1.5 0 0 1.5 324 288)" id="mdi-update" fill="#fff"/><path d="M9 16v-6H5l7-7 7 7h-4v6H9m-4 4v-2h14v2H5Z" transform="matrix(1.5 0 0 1.5 360 288)" id="mdi-upload" fill="#555"/><path d="M9 16v-6H5l7-7 7 7h-4v6H9m-4 4v-2h14v2H5Z" transform="matrix(1.5 0 0 1.5 396 288)" id="mdi-upload" fill="#fff"/><path d="M22 22h-5c-.5 0-1-.5-1-1v-4c0-.5.5-1 1-1v-1.5c0-1.4 1.1-2.5 2.5-2.5s2.5 1.1 2.5 2.5V16c.5 0 1 .5 1 1v4c0 .5-.5 1-1 1m-8-2H5v-2h9v2m7-4v-1.5c0-.8-.7-1.5-1.5-1.5s-1.5.7-1.5 1.5V16h3m-6 0H9v-6H5l7-7 7 7h-4v6Z" transform="matrix(1.5 0 0 1.5 432 288)" id="mdi-upload-lock" fill="#555"/><path d="M22 22h-5c-.5 0-1-.5-1-1v-4c0-.5.5-1 1-1v-1.5c0-1.4 1.1-2.5 2.5-2.5s2.5 1.1 2.5 2.5V16c.5 0 1 .5 1 1v4c0 .5-.5 1-1 1m-8-2H5v-2h9v2m7-4v-1.5c0-.8-.7-1.5-1.5-1.5s-1.5.7-1.5 1.5V16h3m-6 0H9v-6H5l7-7 7 7h-4v6Z" transform="matrix(1.5 0 0 1.5 468 288)" id="mdi-upload-lock" fill="#fff"/><path d="M22 22h-5c-.5 0-1-.5-1-1v-4c0-.5.5-1 1-1v-1.5c0-1.4 1.1-2.5 2.5-2.5s2.5 1.1 2.5 2.5V16c.5 0 1 .5 1 1v4c0 .5-.5 1-1 1M5 18h9v2H5v-2m16-2v-1.5c0-.8-.7-1.5-1.5-1.5s-1.5.7-1.5 1.5V16h3M9 16v-6H5l7-7 7 7h-4v6H9m.83-8H11v6h2V8h1.17L12 5.83 9.83 8Z" transform="matrix(1.5 0 0 1.5 504 288)" id="mdi-upload-lock-outline" fill="#555"/><path d="M22 22h-5c-.5 0-1-.5-1-1v-4c0-.5.5-1 1-1v-1.5c0-1.4 1.1-2.5 2.5-2.5s2.5 1.1 2.5 2.5V16c.5 0 1 .5 1 1v4c0 .5-.5 1-1 1M5 18h9v2H5v-2m16-2v-1.5c0-.8-.7-1.5-1.5-1.5s-1.5.7-1.5 1.5V16h3M9 16v-6H5l7-7 7 7h-4v6H9m.83-8H11v6h2V8h1.17L12 5.83 9.83 8Z" transform="matrix(1.5 0 0 1.5 540 288)" id="mdi-upload-lock-outline" fill="#fff"/><path d="M9 14V8H5l7-7 7 7h-4v6H9m-4 4v-2h14v2H5m14 2H5v2h14v-2Z" transform="matrix(1.5 0 0 1.5 576 288)" id="mdi-upload-multiple" fill="#555"/><path d="M9 14V8H5l7-7 7 7h-4v6H9m-4 4v-2h14v2H5m14 2H5v2h14v-2Z" transform="matrix(1.5 0 0 1.5 612 288)" id="mdi-upload-multiple" fill="#fff"/><path d="M17 3a2 2 0 0 1 2 2v10a2 2 0 0 1-2 2h-4v2h1a1 1 0 0 1 1 1h7v2h-7a1 1 0 0 1-1 1h-4a1 1 0 0 1-1-1H2v-2h7a1 1 0 0 1 1-1h1v-2H7a2 2 0 0 1-2-2V5a2 2 0 0 1 2-2h10m-5 2.5L7.5 10H11v4h2v-4h3.5L12 5.5Z" transform="matrix(1.5 0 0 1.5 648 288)" id="mdi-upload-network" fill="#555"/><path d="M17 3a2 2 0 0 1 2 2v10a2 2 0 0 1-2 2h-4v2h1a1 1 0 0 1 1 1h7v2h-7a1 1 0 0 1-1 1h-4a1 1 0 0 1-1-1H2v-2h7a1 1 0 0 1 1-1h1v-2H7a2 2 0 0 1-2-2V5a2 2 0 0 1 2-2h10m-5 2.5L7.5 10H11v4h2v-4h3.5L12 5.5Z" transform="matrix(1.5 0 0 1.5 684 288)" id="mdi-upload-network" fill="#fff"/><path d="M15 20a1 1 0 0 0-1-1h-1v-2h4a2 2 0 0 0 2-2V5a2 2 0 0 0-2-2H7a2 2 0 0 0-2 2v10a2 2 0 0 0 2 2h4v2h-1a1 1 0 0 0-1 1H2v2h7a1 1 0 0 0 1 1h4a1 1 0 0 0 1-1h7v-2h-7m-8-5V5h10v10H7m5-9-4 4h3v4h2v-4h3l-4-4Z" transform="matrix(1.5 0 0 1.5 0 324)" id="mdi-upload-network-outline" fill="#555"/><path d="M15 20a1 1 0 0 0-1-1h-1v-2h4a2 2 0 0 0 2-2V5a2 2 0 0 0-2-2H7a2 2 0 0 0-2 2v10a2 2 0 0 0 2 2h4v2h-1a1 1 0 0 0-1 1H2v2h7a1 1 0 0 0 1 1h4a1 1 0 0 0 1-1h7v-2h-7m-8-5V5h10v10H7m5-9-4 4h3v4h2v-4h3l-4-4Z" transform="matrix(1.5 0 0 1.5 36 324)" id="mdi-upload-network-outline" fill="#fff"/><path d="M22.11 21.46 2.39 1.73 1.11 3l5.45 5.45L5 10h3.11l.89.89V16h5.11l2 2H5v2h13.11l2.73 2.73 1.27-1.27M15 10h4l-7-7-2.9 2.9 5.9 5.9V10Z" transform="matrix(1.5 0 0 1.5 72 324)" id="mdi-upload-off" fill="#555"/><path d="M22.11 21.46 2.39 1.73 1.11 3l5.45 5.45L5 10h3.11l.89.89V16h5.11l2 2H5v2h13.11l2.73 2.73 1.27-1.27M15 10h4l-7-7-2.9 2.9 5.9 5.9V10Z" transform="matrix(1.5 0 0 1.5 108 324)" id="mdi-upload-off" fill="#fff"/><path d="M22.11 21.46 2.39 1.73 1.11 3l5.45 5.45L5 10h3.11l.89.89V16h5.11l2 2H5v2h13.11l2.73 2.73 1.27-1.27M11 14v-1.11L12.11 14H11m1-8.2L14.2 8H13v1.8l2 2V10h4l-7-7-2.9 2.9 1.4 1.4L12 5.8Z" transform="matrix(1.5 0 0 1.5 144 324)" id="mdi-upload-off-outline" fill="#555"/><path d="M22.11 21.46 2.39 1.73 1.11 3l5.45 5.45L5 10h3.11l.89.89V16h5.11l2 2H5v2h13.11l2.73 2.73 1.27-1.27M11 14v-1.11L12.11 14H11m1-8.2L14.2 8H13v1.8l2 2V10h4l-7-7-2.9 2.9 1.4 1.4L12 5.8Z" transform="matrix(1.5 0 0 1.5 180 324)" id="mdi-upload-off-outline" fill="#fff"/><path d="M9 10v6h6v-6h4l-7-7-7 7h4m3-4.2L14.2 8H13v6h-2V8H9.8L12 5.8M19 18H5v2h14v-2Z" transform="matrix(1.5 0 0 1.5 216 324)" id="mdi-upload-outline" fill="#555"/><path d="M9 10v6h6v-6h4l-7-7-7 7h4m3-4.2L14.2 8H13v6h-2V8H9.8L12 5.8M19 18H5v2h14v-2Z" transform="matrix(1.5 0 0 1.5 252 324)" id="mdi-upload-outline" fill="#fff"/><path d="M15 7v4h1v2h-3V5h2l-3-4-3 4h2v8H8v-2.07c.7-.37 1.2-1.08 1.2-1.93A2.2 2.2 0 0 0 7 6.8c-1.22 0-2.2.98-2.2 2.2 0 .85.5 1.56 1.2 1.93V13a2 2 0 0 0 2 2h3v3.05c-.71.36-1.2 1.1-1.2 1.95a2.2 2.2 0 0 0 2.2 2.2 2.2 2.2 0 0 0 2.2-2.2c0-.85-.49-1.59-1.2-1.95V15h3a2 2 0 0 0 2-2v-2h1V7h-4Z" transform="matrix(1.5 0 0 1.5 288 324)" id="mdi-usb" fill="#555"/><path d="M15 7v4h1v2h-3V5h2l-3-4-3 4h2v8H8v-2.07c.7-.37 1.2-1.08 1.2-1.93A2.2 2.2 0 0 0 7 6.8c-1.22 0-2.2.98-2.2 2.2 0 .85.5 1.56 1.2 1.93V13a2 2 0 0 0 2 2h3v3.05c-.71.36-1.2 1.1-1.2 1.95a2.2 2.2 0 0 0 2.2 2.2 2.2 2.2 0 0 0 2.2-2.2c0-.85-.49-1.59-1.2-1.95V15h3a2 2 0 0 0 2-2v-2h1V7h-4Z" transform="matrix(1.5 0 0 1.5 324 324)" id="mdi-usb" fill="#fff"/><path d="M8 15c.55 0 1 .45 1 1s-.45 1-1 1-1-.45-1-1 .45-1 1-1m7.07-10.31L16.5 6.1l-1.43 1.4-1.41-1.4 1.41-1.41M17.9 7.5l1.41 1.43-1.41 1.41-1.4-1.41 1.4-1.43M8 13c-1.66 0-3 1.34-3 3s1.34 3 3 3 3-1.34 3-3-1.34-3-3-3m1.77-8.67.73.75 3.79-3.79c.18-.18.43-.29.71-.29.28 0 .53.11.71.29l7.07 7.07v.01a1.02 1.02 0 0 1-.12 1.39l-3.73 3.74.74.73-6.72 6.72A6.976 6.976 0 0 1 8 23c-3.87 0-7-3.13-7-7 0-1.93.78-3.68 2.05-4.95l6.72-6.72M20.59 9 15 3.41 11.93 6.5l5.57 5.58L20.59 9Z" transform="matrix(1.5 0 0 1.5 360 324)" id="mdi-usb-flash-drive" fill="#555"/><path d="M8 15c.55 0 1 .45 1 1s-.45 1-1 1-1-.45-1-1 .45-1 1-1m7.07-10.31L16.5 6.1l-1.43 1.4-1.41-1.4 1.41-1.41M17.9 7.5l1.41 1.43-1.41 1.41-1.4-1.41 1.4-1.43M8 13c-1.66 0-3 1.34-3 3s1.34 3 3 3 3-1.34 3-3-1.34-3-3-3m1.77-8.67.73.75 3.79-3.79c.18-.18.43-.29.71-.29.28 0 .53.11.71.29l7.07 7.07v.01a1.02 1.02 0 0 1-.12 1.39l-3.73 3.74.74.73-6.72 6.72A6.976 6.976 0 0 1 8 23c-3.87 0-7-3.13-7-7 0-1.93.78-3.68 2.05-4.95l6.72-6.72M20.59 9 15 3.41 11.93 6.5l5.57 5.58L20.59 9Z" transform="matrix(1.5 0 0 1.5 396 324)" id="mdi-usb-flash-drive" fill="#fff"/><path d="M8 13c1.66 0 3 1.34 3 3s-1.34 3-3 3-3-1.34-3-3 1.34-3 3-3m0 2c-.55 0-1 .45-1 1s.45 1 1 1 1-.45 1-1-.45-1-1-1M9.77 4.33l.73.75 3.79-3.79c.18-.18.43-.29.71-.29.28 0 .53.11.71.29l7.07 7.07v.01a1.02 1.02 0 0 1-.12 1.39l-3.73 3.74.74.73-6.72 6.72A6.976 6.976 0 0 1 8 23c-3.87 0-7-3.13-7-7 0-1.93.78-3.68 2.05-4.95l6.72-6.72m1.77 15.21 5.3-5.31-7.07-7.07-5.31 5.3C3.56 13.37 3 14.62 3 16c0 2.76 2.24 5 5 5 1.38 0 2.63-.56 3.54-1.46m3.53-14.85L16.5 6.1l-1.43 1.4-1.41-1.4 1.41-1.41M17.9 7.5l1.41 1.43-1.41 1.41-1.4-1.41 1.4-1.43M20.59 9 15 3.41 11.93 6.5l5.57 5.58L20.59 9Z" transform="matrix(1.5 0 0 1.5 432 324)" id="mdi-usb-flash-drive-outline" fill="#555"/><path d="M8 13c1.66 0 3 1.34 3 3s-1.34 3-3 3-3-1.34-3-3 1.34-3 3-3m0 2c-.55 0-1 .45-1 1s.45 1 1 1 1-.45 1-1-.45-1-1-1M9.77 4.33l.73.75 3.79-3.79c.18-.18.43-.29.71-.29.28 0 .53.11.71.29l7.07 7.07v.01a1.02 1.02 0 0 1-.12 1.39l-3.73 3.74.74.73-6.72 6.72A6.976 6.976 0 0 1 8 23c-3.87 0-7-3.13-7-7 0-1.93.78-3.68 2.05-4.95l6.72-6.72m1.77 15.21 5.3-5.31-7.07-7.07-5.31 5.3C3.56 13.37 3 14.62 3 16c0 2.76 2.24 5 5 5 1.38 0 2.63-.56 3.54-1.46m3.53-14.85L16.5 6.1l-1.43 1.4-1.41-1.4 1.41-1.41M17.9 7.5l1.41 1.43-1.41 1.41-1.4-1.41 1.4-1.43M20.59 9 15 3.41 11.93 6.5l5.57 5.58L20.59 9Z" transform="matrix(1.5 0 0 1.5 468 324)" id="mdi-usb-flash-drive-outline" fill="#fff"/><path d="M8 2c-1.1 0-2 .9-2 2v8H5v4l4 4v2h6v-2l4-4v-4h-1V4a2 2 0 0 0-2-2M8 4h8v8H8m1-5v2h2V7m2 0v2h2V7Z" transform="matrix(1.5 0 0 1.5 504 324)" id="mdi-usb-port" fill="#555"/><path d="M8 2c-1.1 0-2 .9-2 2v8H5v4l4 4v2h6v-2l4-4v-4h-1V4a2 2 0 0 0-2-2M8 4h8v8H8m1-5v2h2V7m2 0v2h2V7Z" transform="matrix(1.5 0 0 1.5 540 324)" id="mdi-usb-port" fill="#fff"/><path d="M23 20v2h-7v-2h2.46L12 4.61c-.19-.47-.5-.85-.94-1.15S10.14 3 9.61 3c-.71 0-1.33.27-1.85.79S7 4.92 7 5.64V9h1c2.21 0 4 1.79 4 4v9H8c.61-.84 1-1.87 1-3 0-2.76-2.24-5-5-5-.71 0-1.39.15-2 .42V9h3V5.64c0-.84.23-1.64.63-2.32.41-.7.96-1.26 1.67-1.69C8 1.21 8.77 1 9.61 1c.94 0 1.79.26 2.55.77s1.34 1.2 1.71 2.04L20.66 20H23M7 19c0 1.66-1.34 3-3 3s-3-1.34-3-3 1.34-3 3-3 3 1.34 3 3m-2 0c0-.55-.45-1-1-1s-1 .45-1 1 .45 1 1 1 1-.45 1-1Z" transform="matrix(1.5 0 0 1.5 576 324)" id="mdi-vacuum" fill="#555"/><path d="M23 20v2h-7v-2h2.46L12 4.61c-.19-.47-.5-.85-.94-1.15S10.14 3 9.61 3c-.71 0-1.33.27-1.85.79S7 4.92 7 5.64V9h1c2.21 0 4 1.79 4 4v9H8c.61-.84 1-1.87 1-3 0-2.76-2.24-5-5-5-.71 0-1.39.15-2 .42V9h3V5.64c0-.84.23-1.64.63-2.32.41-.7.96-1.26 1.67-1.69C8 1.21 8.77 1 9.61 1c.94 0 1.79.26 2.55.77s1.34 1.2 1.71 2.04L20.66 20H23M7 19c0 1.66-1.34 3-3 3s-3-1.34-3-3 1.34-3 3-3 3 1.34 3 3m-2 0c0-.55-.45-1-1-1s-1 .45-1 1 .45 1 1 1 1-.45 1-1Z" transform="matrix(1.5 0 0 1.5 612 324)" id="mdi-vacuum" fill="#fff"/><path d="M20.66 20 13.87 3.81c-.37-.84-.94-1.52-1.71-2.04C11.4 1.26 10.55 1 9.61 1c-.84 0-1.61.21-2.31.63s-1.26.99-1.67 1.69S5 4.8 5 5.64L5.03 9h-3v5.45c.62-.28 1.28-.42 1.97-.42v-3h5c.57 0 1.04.2 1.43.59.39.38.57.85.57 1.38v7.03H8.91A4.67 4.67 0 0 1 7.97 22H13v-9c0-.72-.2-1.38-.55-2S11.61 9.91 11 9.56C10.42 9.2 9.75 9 9 9H7V5.64c0-.72.25-1.33.76-1.85S8.89 3 9.61 3c.53 0 1.02.16 1.45.46s.75.68.94 1.15L18.46 20l-2.46.03V22h7v-1.97L20.66 20M4 18c.55 0 1 .45 1 1s-.45 1-1 1-1-.45-1-1 .45-1 1-1m0-2c-1.66 0-3 1.34-3 3s1.34 3 3 3 3-1.34 3-3-1.34-3-3-3Z" transform="matrix(1.5 0 0 1.5 648 324)" id="mdi-vacuum-outline" fill="#555"/><path d="M20.66 20 13.87 3.81c-.37-.84-.94-1.52-1.71-2.04C11.4 1.26 10.55 1 9.61 1c-.84 0-1.61.21-2.31.63s-1.26.99-1.67 1.69S5 4.8 5 5.64L5.03 9h-3v5.45c.62-.28 1.28-.42 1.97-.42v-3h5c.57 0 1.04.2 1.43.59.39.38.57.85.57 1.38v7.03H8.91A4.67 4.67 0 0 1 7.97 22H13v-9c0-.72-.2-1.38-.55-2S11.61 9.91 11 9.56C10.42 9.2 9.75 9 9 9H7V5.64c0-.72.25-1.33.76-1.85S8.89 3 9.61 3c.53 0 1.02.16 1.45.46s.75.68.94 1.15L18.46 20l-2.46.03V22h7v-1.97L20.66 20M4 18c.55 0 1 .45 1 1s-.45 1-1 1-1-.45-1-1 .45-1 1-1m0-2c-1.66 0-3 1.34-3 3s1.34 3 3 3 3-1.34 3-3-1.34-3-3-3Z" transform="matrix(1.5 0 0 1.5 684 324)" id="mdi-vacuum-outline" fill="#fff"/></svg>