<svg xmlns="http://www.w3.org/2000/svg" width="720" height="900"><path d="M3 16c0 4.42 3.58 8 8 8 3.43 0 6.5-2.09 7.77-5.27l2.56-6.43c.25-.64.23-1.38-.15-1.95A2.004 2.004 0 0 0 19 9.5l-.78.23c-.46.12-.88.35-1.22.66V4.5A2.5 2.5 0 0 0 14.5 2c-.19 0-.37 0-.54.06A2.502 2.502 0 0 0 11.5 0c-1.06 0-1.96.66-2.33 1.59A2.5 2.5 0 0 0 6 4v.55c-.16-.05-.33-.05-.5-.05A2.5 2.5 0 0 0 3 7v9m2-9c0-.28.22-.5.5-.5s.5.22.5.5v5h2V4c0-.28.22-.5.5-.5s.5.22.5.5v8h2V2.5c0-.28.22-.5.5-.5s.5.22.5.5V12h2V4.5c0-.28.22-.5.5-.5s.5.22.5.5V15h2l1-2.5c.15-.45.5-.79 1-.91l.5-.14L16.91 18c-.96 2.41-3.3 4-5.91 4-3.31 0-6-2.69-6-6V7Z" transform="scale(1.5)" id="mdi-hand-back-left-outline" fill="#555"/><path d="M3 16c0 4.42 3.58 8 8 8 3.43 0 6.5-2.09 7.77-5.27l2.56-6.43c.25-.64.23-1.38-.15-1.95A2.004 2.004 0 0 0 19 9.5l-.78.23c-.46.12-.88.35-1.22.66V4.5A2.5 2.5 0 0 0 14.5 2c-.19 0-.37 0-.54.06A2.502 2.502 0 0 0 11.5 0c-1.06 0-1.96.66-2.33 1.59A2.5 2.5 0 0 0 6 4v.55c-.16-.05-.33-.05-.5-.05A2.5 2.5 0 0 0 3 7v9m2-9c0-.28.22-.5.5-.5s.5.22.5.5v5h2V4c0-.28.22-.5.5-.5s.5.22.5.5v8h2V2.5c0-.28.22-.5.5-.5s.5.22.5.5V12h2V4.5c0-.28.22-.5.5-.5s.5.22.5.5V15h2l1-2.5c.15-.45.5-.79 1-.91l.5-.14L16.91 18c-.96 2.41-3.3 4-5.91 4-3.31 0-6-2.69-6-6V7Z" transform="translate(36) scale(1.5)" id="mdi-hand-back-left-outline" fill="#fff"/><path d="M13 24c-3.26 0-6.19-2-7.4-5l-3.03-7.63a1 1 0 0 1 1.24-1.32l.79.26c.56.19 1.02.61 1.24 1.16L7.25 15H8V3.25a1.25 1.25 0 0 1 2.5 0V12h1V1.25a1.25 1.25 0 0 1 2.5 0V12h1V2.75a1.25 1.25 0 0 1 2.5 0V12h1V5.75a1.25 1.25 0 0 1 2.5 0V16c0 4.42-3.58 8-8 8Z" transform="translate(72) scale(1.5)" id="mdi-hand-back-right" fill="#555"/><path d="M13 24c-3.26 0-6.19-2-7.4-5l-3.03-7.63a1 1 0 0 1 1.24-1.32l.79.26c.56.19 1.02.61 1.24 1.16L7.25 15H8V3.25a1.25 1.25 0 0 1 2.5 0V12h1V1.25a1.25 1.25 0 0 1 2.5 0V12h1V2.75a1.25 1.25 0 0 1 2.5 0V12h1V5.75a1.25 1.25 0 0 1 2.5 0V16c0 4.42-3.58 8-8 8Z" transform="translate(108) scale(1.5)" id="mdi-hand-back-right" fill="#fff"/><path d="m20.84 22.73-1.67-1.67C17.7 22.85 15.5 24 13 24c-3.26 0-6.19-2-7.4-5l-3.03-7.63a1 1 0 0 1 1.24-1.32l.79.26c.56.19 1.02.61 1.24 1.16L7.25 15H8V9.89L1.11 3l1.28-1.27 19.72 19.73-1.27 1.27M14 1.25a1.25 1.25 0 0 0-2.5 0V8.3l2.5 2.5V1.25M21 16V5.75a1.25 1.25 0 0 0-2.5 0V12h-1V2.75a1.25 1.25 0 0 0-2.5 0v9.05l5.83 5.83c.11-.52.17-1.07.17-1.63M10.5 3.25a1.25 1.25 0 0 0-2.5 0V4.8l2.5 2.5V3.25Z" transform="translate(144) scale(1.5)" id="mdi-hand-back-right-off" fill="#555"/><path d="m20.84 22.73-1.67-1.67C17.7 22.85 15.5 24 13 24c-3.26 0-6.19-2-7.4-5l-3.03-7.63a1 1 0 0 1 1.24-1.32l.79.26c.56.19 1.02.61 1.24 1.16L7.25 15H8V9.89L1.11 3l1.28-1.27 19.72 19.73-1.27 1.27M14 1.25a1.25 1.25 0 0 0-2.5 0V8.3l2.5 2.5V1.25M21 16V5.75a1.25 1.25 0 0 0-2.5 0V12h-1V2.75a1.25 1.25 0 0 0-2.5 0v9.05l5.83 5.83c.11-.52.17-1.07.17-1.63M10.5 3.25a1.25 1.25 0 0 0-2.5 0V4.8l2.5 2.5V3.25Z" transform="translate(180) scale(1.5)" id="mdi-hand-back-right-off" fill="#fff"/><path d="M22.11 21.46 2.39 1.73 1.11 3 7 8.89v1.5c-.34-.31-.76-.54-1.22-.66L5 9.5c-.82-.21-1.69.11-2.18.85-.38.57-.4 1.31-.15 1.95l2.56 6.43A8.364 8.364 0 0 0 13 24c2.5 0 4.7-1.15 6.17-2.94l1.67 1.67 1.27-1.27M13 22a6.36 6.36 0 0 1-5.91-4L4.5 11.45l.5.14c.5.12.85.46 1 .91L7 15h2v-4.11l8.75 8.75A5.962 5.962 0 0 1 13 22M9 5.8 7.09 3.89A2.478 2.478 0 0 1 9.5 2c.19 0 .37 0 .54.06A2.502 2.502 0 0 1 12.5 0c1.06 0 1.96.66 2.33 1.59A2.5 2.5 0 0 1 18 4v.55c.16-.05.33-.05.5-.05A2.5 2.5 0 0 1 21 7v9c0 .56-.06 1.11-.17 1.63L19 15.8V7c0-.28-.22-.5-.5-.5s-.5.22-.5.5v5h-2V4c0-.28-.22-.5-.5-.5s-.5.22-.5.5v7.8l-2-2V2.5c0-.28-.22-.5-.5-.5s-.5.22-.5.5v6.3l-2-2V4.5c0-.28-.22-.5-.5-.5s-.5.22-.5.5v1.3Z" transform="translate(216) scale(1.5)" id="mdi-hand-back-right-off-outline" fill="#555"/><path d="M22.11 21.46 2.39 1.73 1.11 3 7 8.89v1.5c-.34-.31-.76-.54-1.22-.66L5 9.5c-.82-.21-1.69.11-2.18.85-.38.57-.4 1.31-.15 1.95l2.56 6.43A8.364 8.364 0 0 0 13 24c2.5 0 4.7-1.15 6.17-2.94l1.67 1.67 1.27-1.27M13 22a6.36 6.36 0 0 1-5.91-4L4.5 11.45l.5.14c.5.12.85.46 1 .91L7 15h2v-4.11l8.75 8.75A5.962 5.962 0 0 1 13 22M9 5.8 7.09 3.89A2.478 2.478 0 0 1 9.5 2c.19 0 .37 0 .54.06A2.502 2.502 0 0 1 12.5 0c1.06 0 1.96.66 2.33 1.59A2.5 2.5 0 0 1 18 4v.55c.16-.05.33-.05.5-.05A2.5 2.5 0 0 1 21 7v9c0 .56-.06 1.11-.17 1.63L19 15.8V7c0-.28-.22-.5-.5-.5s-.5.22-.5.5v5h-2V4c0-.28-.22-.5-.5-.5s-.5.22-.5.5v7.8l-2-2V2.5c0-.28-.22-.5-.5-.5s-.5.22-.5.5v6.3l-2-2V4.5c0-.28-.22-.5-.5-.5s-.5.22-.5.5v1.3Z" transform="translate(252) scale(1.5)" id="mdi-hand-back-right-off-outline" fill="#fff"/><path d="M21 7a2.5 2.5 0 0 0-2.5-2.5c-.17 0-.34 0-.5.05V4a2.5 2.5 0 0 0-3.17-2.41A2.509 2.509 0 0 0 12.5 0c-1.23 0-2.25.89-2.46 2.06C9.87 2 9.69 2 9.5 2A2.5 2.5 0 0 0 7 4.5v5.89c-.34-.31-.76-.54-1.22-.66L5 9.5c-.82-.21-1.69.11-2.18.85-.38.57-.4 1.31-.15 1.95l2.56 6.43A8.364 8.364 0 0 0 13 24c4.42 0 8-3.58 8-8V7m-2 9c0 3.31-2.69 6-6 6a6.36 6.36 0 0 1-5.91-4L4.5 11.45l.5.14c.5.12.85.46 1 .91L7 15h2V4.5c0-.28.22-.5.5-.5s.5.22.5.5V12h2V2.5c0-.28.22-.5.5-.5s.5.22.5.5V12h2V4c0-.28.22-.5.5-.5s.5.22.5.5v8h2V7c0-.28.22-.5.5-.5s.5.22.5.5v9Z" transform="translate(288) scale(1.5)" id="mdi-hand-back-right-outline" fill="#555"/><path d="M21 7a2.5 2.5 0 0 0-2.5-2.5c-.17 0-.34 0-.5.05V4a2.5 2.5 0 0 0-3.17-2.41A2.509 2.509 0 0 0 12.5 0c-1.23 0-2.25.89-2.46 2.06C9.87 2 9.69 2 9.5 2A2.5 2.5 0 0 0 7 4.5v5.89c-.34-.31-.76-.54-1.22-.66L5 9.5c-.82-.21-1.69.11-2.18.85-.38.57-.4 1.31-.15 1.95l2.56 6.43A8.364 8.364 0 0 0 13 24c4.42 0 8-3.58 8-8V7m-2 9c0 3.31-2.69 6-6 6a6.36 6.36 0 0 1-5.91-4L4.5 11.45l.5.14c.5.12.85.46 1 .91L7 15h2V4.5c0-.28.22-.5.5-.5s.5.22.5.5V12h2V2.5c0-.28.22-.5.5-.5s.5.22.5.5V12h2V4c0-.28.22-.5.5-.5s.5.22.5.5v8h2V7c0-.28.22-.5.5-.5s.5.22.5.5v9Z" transform="translate(324) scale(1.5)" id="mdi-hand-back-right-outline" fill="#fff"/><path d="M7.9 21.47a6.09 6.09 0 0 1-1.72-6.63l2.13-5.93a.765.765 0 0 1 1.38-.13l.31.55c.24.39.29.87.14 1.3l-.98 2.74.43.38L15.55 7c.35-.4.95-.44 1.36-.09.39.35.43.96.09 1.35l-4.45 5.03.58.51 5.45-6.18c.35-.4.96-.44 1.35-.09.4.35.44.97.07 1.36l-5.44 6.18.58.51 4.69-5.32c.35-.4.96-.44 1.35-.09s.44.96.09 1.33l-4.69 5.34.57.51 3.17-3.59c.35-.4.96-.44 1.36-.09s.43.96.08 1.33l-5.2 5.92a6.13 6.13 0 0 1-8.66.55m3.69-12.25L14.43 6c.24-.27.54-.5.87-.63l.38-.78a.947.947 0 0 0-.44-1.28.964.964 0 0 0-1.28.44l-2.51 5.14c.05.11.11.22.14.33M11 8v.05l2.78-5.67a.965.965 0 0 0-.45-1.28.951.951 0 0 0-1.28.44L9.41 6.95c.65.11 1.22.48 1.59 1.05m-6.23 6.33L6.9 8.4c.27-.75.9-1.26 1.65-1.43l2.14-4.39a.961.961 0 0 0-.44-1.28.952.952 0 0 0-1.28.44L5 9.84l-.5-.25.21-2.91c.04-.45-.14-.9-.46-1.22L3.79 5c-.47-.43-1.24-.14-1.29.5L2 11.79c-.13 2.04.77 3.99 2.35 5.21-.02-.88.11-1.79.42-2.67Z" transform="translate(360) scale(1.5)" id="mdi-hand-clap" fill="#555"/><path d="M7.9 21.47a6.09 6.09 0 0 1-1.72-6.63l2.13-5.93a.765.765 0 0 1 1.38-.13l.31.55c.24.39.29.87.14 1.3l-.98 2.74.43.38L15.55 7c.35-.4.95-.44 1.36-.09.39.35.43.96.09 1.35l-4.45 5.03.58.51 5.45-6.18c.35-.4.96-.44 1.35-.09.4.35.44.97.07 1.36l-5.44 6.18.58.51 4.69-5.32c.35-.4.96-.44 1.35-.09s.44.96.09 1.33l-4.69 5.34.57.51 3.17-3.59c.35-.4.96-.44 1.36-.09s.43.96.08 1.33l-5.2 5.92a6.13 6.13 0 0 1-8.66.55m3.69-12.25L14.43 6c.24-.27.54-.5.87-.63l.38-.78a.947.947 0 0 0-.44-1.28.964.964 0 0 0-1.28.44l-2.51 5.14c.05.11.11.22.14.33M11 8v.05l2.78-5.67a.965.965 0 0 0-.45-1.28.951.951 0 0 0-1.28.44L9.41 6.95c.65.11 1.22.48 1.59 1.05m-6.23 6.33L6.9 8.4c.27-.75.9-1.26 1.65-1.43l2.14-4.39a.961.961 0 0 0-.44-1.28.952.952 0 0 0-1.28.44L5 9.84l-.5-.25.21-2.91c.04-.45-.14-.9-.46-1.22L3.79 5c-.47-.43-1.24-.14-1.29.5L2 11.79c-.13 2.04.77 3.99 2.35 5.21-.02-.88.11-1.79.42-2.67Z" transform="translate(396) scale(1.5)" id="mdi-hand-clap" fill="#fff"/><path d="M16 12c2.76 0 5-2.24 5-5s-2.24-5-5-5-5 2.24-5 5 2.24 5 5 5m5.45 5.6c-.39-.4-.88-.6-1.45-.6h-7l-2.08-.73.33-.94L13 16h2.8c.35 0 .63-.14.86-.37s.34-.51.34-.82c0-.54-.26-.91-.78-1.12L8.95 11H7v9l7 2 8.03-3c.01-.53-.19-1-.58-1.4M5 11H.984v11H5V11Z" transform="translate(432) scale(1.5)" id="mdi-hand-coin" fill="#555"/><path d="M16 12c2.76 0 5-2.24 5-5s-2.24-5-5-5-5 2.24-5 5 2.24 5 5 5m5.45 5.6c-.39-.4-.88-.6-1.45-.6h-7l-2.08-.73.33-.94L13 16h2.8c.35 0 .63-.14.86-.37s.34-.51.34-.82c0-.54-.26-.91-.78-1.12L8.95 11H7v9l7 2 8.03-3c.01-.53-.19-1-.58-1.4M5 11H.984v11H5V11Z" transform="translate(468) scale(1.5)" id="mdi-hand-coin" fill="#fff"/><path d="M16 2c-2.76 0-5 2.24-5 5s2.24 5 5 5 5-2.24 5-5-2.24-5-5-5m0 8c-1.66 0-3-1.34-3-3s1.34-3 3-3 3 1.34 3 3-1.34 3-3 3m3 6h-2c0-1.2-.75-2.28-1.87-2.7L8.97 11H1v11h6v-1.44l7 1.94 8-2.5v-1c0-1.66-1.34-3-3-3M5 20H3v-7h2v7m8.97.41L7 18.5V13h1.61l5.82 2.17c.34.13.57.46.57.83 0 0-2-.05-2.3-.15l-2.38-.79-.63 1.9 2.38.79c.51.17 1.04.25 1.58.25H19c.39 0 .74.24.9.57l-5.93 1.84Z" transform="translate(504) scale(1.5)" id="mdi-hand-coin-outline" fill="#555"/><path d="M16 2c-2.76 0-5 2.24-5 5s2.24 5 5 5 5-2.24 5-5-2.24-5-5-5m0 8c-1.66 0-3-1.34-3-3s1.34-3 3-3 3 1.34 3 3-1.34 3-3 3m3 6h-2c0-1.2-.75-2.28-1.87-2.7L8.97 11H1v11h6v-1.44l7 1.94 8-2.5v-1c0-1.66-1.34-3-3-3M5 20H3v-7h2v7m8.97.41L7 18.5V13h1.61l5.82 2.17c.34.13.57.46.57.83 0 0-2-.05-2.3-.15l-2.38-.79-.63 1.9 2.38.79c.51.17 1.04.25 1.58.25H19c.39 0 .74.24.9.57l-5.93 1.84Z" transform="translate(540) scale(1.5)" id="mdi-hand-coin-outline" fill="#fff"/><path d="M20 13c.6 0 1.1.2 1.5.6.3.4.5.9.5 1.4l-8 3-7-2V7h1.9l7.3 2.7c.5.2.8.6.8 1.1 0 .3-.1.6-.3.8s-.6.4-.9.4H13l-1.8-.7-.3.9 2.1.8h7M1 7h4v11H1V7Z" transform="translate(576) scale(1.5)" id="mdi-hand-extended" fill="#555"/><path d="M20 13c.6 0 1.1.2 1.5.6.3.4.5.9.5 1.4l-8 3-7-2V7h1.9l7.3 2.7c.5.2.8.6.8 1.1 0 .3-.1.6-.3.8s-.6.4-.9.4H13l-1.8-.7-.3.9 2.1.8h7M1 7h4v11H1V7Z" transform="translate(612) scale(1.5)" id="mdi-hand-extended" fill="#fff"/><path d="M22 15v1l-8 2.5-7-1.9V18H1V7h8l6.2 2.3c1 .4 1.8 1.5 1.8 2.7h2c1.7 0 3 1.3 3 3M5 16V9H3v7h2m14.9-1.4c-.2-.4-.5-.6-.9-.6h-5.4c-.5 0-1.1-.1-1.6-.2L9.7 13l.6-1.9 2.4.8c.3 0 2.3.1 2.3.1 0-.4-.2-.7-.6-.8L8.6 9H7v5.5l7 1.9 5.9-1.8Z" transform="translate(648) scale(1.5)" id="mdi-hand-extended-outline" fill="#555"/><path d="M22 15v1l-8 2.5-7-1.9V18H1V7h8l6.2 2.3c1 .4 1.8 1.5 1.8 2.7h2c1.7 0 3 1.3 3 3M5 16V9H3v7h2m14.9-1.4c-.2-.4-.5-.6-.9-.6h-5.4c-.5 0-1.1-.1-1.6-.2L9.7 13l.6-1.9 2.4.8c.3 0 2.3.1 2.3.1 0-.4-.2-.7-.6-.8L8.6 9H7v5.5l7 1.9 5.9-1.8Z" transform="translate(684) scale(1.5)" id="mdi-hand-extended-outline" fill="#fff"/><path d="M3 9.25v6.5C3 20.31 6.69 24 11.25 24s8.25-3.69 8.25-8.25v-10a1.25 1.25 0 0 0-2.5 0V12h-1V2.75a1.25 1.25 0 0 0-2.5 0V11h-1V1.25a1.25 1.25 0 0 0-2.5 0V11H9V3.25a1.25 1.25 0 0 0-2.5 0v10.78c1.97.25 3.5 1.93 3.5 3.97H9c0-1.65-1.35-3-3-3h-.5V9.25a1.25 1.25 0 0 0-2.5 0Z" transform="matrix(1.5 0 0 1.5 0 36)" id="mdi-hand-front-left" fill="#555"/><path d="M3 9.25v6.5C3 20.31 6.69 24 11.25 24s8.25-3.69 8.25-8.25v-10a1.25 1.25 0 0 0-2.5 0V12h-1V2.75a1.25 1.25 0 0 0-2.5 0V11h-1V1.25a1.25 1.25 0 0 0-2.5 0V11H9V3.25a1.25 1.25 0 0 0-2.5 0v10.78c1.97.25 3.5 1.93 3.5 3.97H9c0-1.65-1.35-3-3-3h-.5V9.25a1.25 1.25 0 0 0-2.5 0Z" transform="matrix(1.5 0 0 1.5 36 36)" id="mdi-hand-front-left" fill="#fff"/><path d="M3 10.5v5c0 4.69 3.81 8.5 8.5 8.5s8.5-3.81 8.5-8.5V7a2.5 2.5 0 0 0-2.5-2.5c-.17 0-.34 0-.5.05V4a2.5 2.5 0 0 0-3.17-2.41A2.509 2.509 0 0 0 11.5 0c-1.23 0-2.25.89-2.46 2.06C8.87 2 8.69 2 8.5 2A2.5 2.5 0 0 0 6 4.5v3.55C5.84 8 5.67 8 5.5 8A2.5 2.5 0 0 0 3 10.5m2 0c0-.28.22-.5.5-.5s.5.22.5.5V15c1.66 0 3 1.34 3 3h2c0-2.05-1.23-3.81-3-4.58V4.5c0-.28.22-.5.5-.5s.5.22.5.5V11h2V2.5c0-.28.22-.5.5-.5s.5.22.5.5V11h2V4c0-.28.22-.5.5-.5s.5.22.5.5v8h2V7c0-.28.22-.5.5-.5s.5.22.5.5v8.5a6.5 6.5 0 1 1-13 0v-5Z" transform="matrix(1.5 0 0 1.5 72 36)" id="mdi-hand-front-left-outline" fill="#555"/><path d="M3 10.5v5c0 4.69 3.81 8.5 8.5 8.5s8.5-3.81 8.5-8.5V7a2.5 2.5 0 0 0-2.5-2.5c-.17 0-.34 0-.5.05V4a2.5 2.5 0 0 0-3.17-2.41A2.509 2.509 0 0 0 11.5 0c-1.23 0-2.25.89-2.46 2.06C8.87 2 8.69 2 8.5 2A2.5 2.5 0 0 0 6 4.5v3.55C5.84 8 5.67 8 5.5 8A2.5 2.5 0 0 0 3 10.5m2 0c0-.28.22-.5.5-.5s.5.22.5.5V15c1.66 0 3 1.34 3 3h2c0-2.05-1.23-3.81-3-4.58V4.5c0-.28.22-.5.5-.5s.5.22.5.5V11h2V2.5c0-.28.22-.5.5-.5s.5.22.5.5V11h2V4c0-.28.22-.5.5-.5s.5.22.5.5v8h2V7c0-.28.22-.5.5-.5s.5.22.5.5v8.5a6.5 6.5 0 1 1-13 0v-5Z" transform="matrix(1.5 0 0 1.5 108 36)" id="mdi-hand-front-left-outline" fill="#fff"/><path d="M19.75 8c-.69 0-1.25.56-1.25 1.25V15H18c-1.65 0-3 1.35-3 3h-1c0-2.04 1.53-3.72 3.5-3.97V3.25a1.25 1.25 0 0 0-2.5 0V11h-1V1.25a1.25 1.25 0 0 0-2.5 0V11h-1V2.75a1.25 1.25 0 0 0-2.5 0V12H7V5.75a1.25 1.25 0 0 0-2.5 0v10c0 4.56 3.69 8.25 8.25 8.25S21 20.31 21 15.75v-6.5C21 8.56 20.44 8 19.75 8Z" transform="matrix(1.5 0 0 1.5 144 36)" id="mdi-hand-front-right" fill="#555"/><path d="M19.75 8c-.69 0-1.25.56-1.25 1.25V15H18c-1.65 0-3 1.35-3 3h-1c0-2.04 1.53-3.72 3.5-3.97V3.25a1.25 1.25 0 0 0-2.5 0V11h-1V1.25a1.25 1.25 0 0 0-2.5 0V11h-1V2.75a1.25 1.25 0 0 0-2.5 0V12H7V5.75a1.25 1.25 0 0 0-2.5 0v10c0 4.56 3.69 8.25 8.25 8.25S21 20.31 21 15.75v-6.5C21 8.56 20.44 8 19.75 8Z" transform="matrix(1.5 0 0 1.5 180 36)" id="mdi-hand-front-right" fill="#fff"/><path d="M18.5 8c-.17 0-.34 0-.5.05V4.5A2.5 2.5 0 0 0 15.5 2c-.19 0-.37 0-.54.06A2.502 2.502 0 0 0 12.5 0c-1.06 0-1.96.66-2.33 1.59A2.5 2.5 0 0 0 7 4v.55c-.16-.05-.33-.05-.5-.05A2.5 2.5 0 0 0 4 7v8.5c0 4.69 3.81 8.5 8.5 8.5s8.5-3.81 8.5-8.5v-5A2.5 2.5 0 0 0 18.5 8m.5 7.5a6.5 6.5 0 1 1-13 0V7c0-.28.22-.5.5-.5s.5.22.5.5v5h2V4c0-.28.22-.5.5-.5s.5.22.5.5v7h2V2.5c0-.28.22-.5.5-.5s.5.22.5.5V11h2V4.5c0-.28.22-.5.5-.5s.5.22.5.5v8.92c-1.77.77-3 2.53-3 4.58h2c0-1.66 1.34-3 3-3v-4.5c0-.28.22-.5.5-.5s.5.22.5.5v5Z" transform="matrix(1.5 0 0 1.5 216 36)" id="mdi-hand-front-right-outline" fill="#555"/><path d="M18.5 8c-.17 0-.34 0-.5.05V4.5A2.5 2.5 0 0 0 15.5 2c-.19 0-.37 0-.54.06A2.502 2.502 0 0 0 12.5 0c-1.06 0-1.96.66-2.33 1.59A2.5 2.5 0 0 0 7 4v.55c-.16-.05-.33-.05-.5-.05A2.5 2.5 0 0 0 4 7v8.5c0 4.69 3.81 8.5 8.5 8.5s8.5-3.81 8.5-8.5v-5A2.5 2.5 0 0 0 18.5 8m.5 7.5a6.5 6.5 0 1 1-13 0V7c0-.28.22-.5.5-.5s.5.22.5.5v5h2V4c0-.28.22-.5.5-.5s.5.22.5.5v7h2V2.5c0-.28.22-.5.5-.5s.5.22.5.5V11h2V4.5c0-.28.22-.5.5-.5s.5.22.5.5v8.92c-1.77.77-3 2.53-3 4.58h2c0-1.66 1.34-3 3-3v-4.5c0-.28.22-.5.5-.5s.5.22.5.5v5Z" transform="matrix(1.5 0 0 1.5 252 36)" id="mdi-hand-front-right-outline" fill="#fff"/><path d="M20 17q.86 0 1.45.6t.58 1.4L14 22l-7-2v-9h1.95l7.27 2.69q.78.31.78 1.12 0 .47-.34.82t-.86.37H13l-1.75-.67-.33.94L13 17h7M16 3.23Q17.06 2 18.7 2q1.36 0 2.3 1t1 2.3q0 1.03-1 2.46t-1.97 2.39T16 13q-2.08-1.89-3.06-2.85t-1.97-2.39T10 5.3q0-1.36.97-2.3t2.34-1q1.6 0 2.69 1.23M.984 11H5v11H.984V11Z" transform="matrix(1.5 0 0 1.5 288 36)" id="mdi-hand-heart" fill="#555"/><path d="M20 17q.86 0 1.45.6t.58 1.4L14 22l-7-2v-9h1.95l7.27 2.69q.78.31.78 1.12 0 .47-.34.82t-.86.37H13l-1.75-.67-.33.94L13 17h7M16 3.23Q17.06 2 18.7 2q1.36 0 2.3 1t1 2.3q0 1.03-1 2.46t-1.97 2.39T16 13q-2.08-1.89-3.06-2.85t-1.97-2.39T10 5.3q0-1.36.97-2.3t2.34-1q1.6 0 2.69 1.23M.984 11H5v11H.984V11Z" transform="matrix(1.5 0 0 1.5 324 36)" id="mdi-hand-heart" fill="#fff"/><path d="M16 3.23C16.71 2.41 17.61 2 18.7 2c.91 0 1.67.33 2.3 1 .63.67.96 1.43 1 2.3 0 .7-.33 1.51-1 2.46s-1.32 1.74-1.97 2.39c-.65.64-1.66 1.59-3.03 2.85-1.39-1.26-2.41-2.21-3.06-2.85s-1.31-1.44-1.97-2.39C10.31 6.81 10 6 10 5.3c0-.91.32-1.67.97-2.3.65-.63 1.43-.96 2.34-1 1.07 0 1.96.41 2.69 1.23M22 19v1l-8 2.5-7-1.94V22H1V11h7.97l6.16 2.3A2.89 2.89 0 0 1 17 16h2c1.66 0 3 1.34 3 3M5 20v-7H3v7h2m14.9-1.43c-.16-.33-.51-.57-.9-.57h-5.35c-.54 0-1.07-.08-1.58-.25l-2.38-.79.63-1.9 2.38.79c.3.1 2.3.15 2.3.15 0-.37-.23-.7-.57-.83L8.61 13H7v5.5l6.97 1.91 5.93-1.84Z" transform="matrix(1.5 0 0 1.5 360 36)" id="mdi-hand-heart-outline" fill="#555"/><path d="M16 3.23C16.71 2.41 17.61 2 18.7 2c.91 0 1.67.33 2.3 1 .63.67.96 1.43 1 2.3 0 .7-.33 1.51-1 2.46s-1.32 1.74-1.97 2.39c-.65.64-1.66 1.59-3.03 2.85-1.39-1.26-2.41-2.21-3.06-2.85s-1.31-1.44-1.97-2.39C10.31 6.81 10 6 10 5.3c0-.91.32-1.67.97-2.3.65-.63 1.43-.96 2.34-1 1.07 0 1.96.41 2.69 1.23M22 19v1l-8 2.5-7-1.94V22H1V11h7.97l6.16 2.3A2.89 2.89 0 0 1 17 16h2c1.66 0 3 1.34 3 3M5 20v-7H3v7h2m14.9-1.43c-.16-.33-.51-.57-.9-.57h-5.35c-.54 0-1.07-.08-1.58-.25l-2.38-.79.63-1.9 2.38.79c.3.1 2.3.15 2.3.15 0-.37-.23-.7-.57-.83L8.61 13H7v5.5l6.97 1.91 5.93-1.84Z" transform="matrix(1.5 0 0 1.5 396 36)" id="mdi-hand-heart-outline" fill="#fff"/><path d="m13.3 19.26 5.66-5.65 2.12 2.12-5.66 5.65-2.12-2.12m3.2-8.13-3.1-3.08a1.68 1.68 0 0 0-.4-.29l-1.12-4.29a1.001 1.001 0 0 0-1.94.49L11 8.03 8.67 3.19c-.23-.5-.83-.69-1.33-.48-.5.24-.71.84-.47 1.34l1.69 3.54-3.37-3.34c-.39-.39-1.03-.39-1.42 0-.39.4-.38 1.03.01 1.42l3.72 3.7-.7.27-1.08.43-1.91 1.32s-.81 1.05-.88 1.5c-.08.45.79 2.71.79 2.71h.01c.16.34.5.58.9.58a1 1 0 0 0 1-1c0-.1-.03-.18-.06-.27l.02-.01L5 13.17l1.23-.98c.47.02 1.48.1 1.97.13 2.73 2.45.15 3.41.15 3.41l-3.46 1.06-.17.14a.94.94 0 0 0-.3.75l.02 1.07 6.43-.5c.38.01.74-.13 1.02-.4l4.61-4.6c.53-.54.55-1.55 0-2.12Z" transform="matrix(1.5 0 0 1.5 432 36)" id="mdi-hand-okay" fill="#555"/><path d="m13.3 19.26 5.66-5.65 2.12 2.12-5.66 5.65-2.12-2.12m3.2-8.13-3.1-3.08a1.68 1.68 0 0 0-.4-.29l-1.12-4.29a1.001 1.001 0 0 0-1.94.49L11 8.03 8.67 3.19c-.23-.5-.83-.69-1.33-.48-.5.24-.71.84-.47 1.34l1.69 3.54-3.37-3.34c-.39-.39-1.03-.39-1.42 0-.39.4-.38 1.03.01 1.42l3.72 3.7-.7.27-1.08.43-1.91 1.32s-.81 1.05-.88 1.5c-.08.45.79 2.71.79 2.71h.01c.16.34.5.58.9.58a1 1 0 0 0 1-1c0-.1-.03-.18-.06-.27l.02-.01L5 13.17l1.23-.98c.47.02 1.48.1 1.97.13 2.73 2.45.15 3.41.15 3.41l-3.46 1.06-.17.14a.94.94 0 0 0-.3.75l.02 1.07 6.43-.5c.38.01.74-.13 1.02-.4l4.61-4.6c.53-.54.55-1.55 0-2.12Z" transform="matrix(1.5 0 0 1.5 468 36)" id="mdi-hand-okay" fill="#fff"/><path d="M7 19h8v3H7v-3m9.15-7-3.18-1.66a.49.49 0 0 0-.37.16l-.3.31.59 2.42-.98.24-1.19-4.97-1.47.68 1.04 4.29-.97.23-1-4.11-.47.21c-.5.2-.85.73-.85 1.34v4.36c0 .8.73 1.5 1.5 1.5H15c.39 0 .74-.16 1-.43l.5-.41s.5-.38.5-.8V13.7s0-1.14-.85-1.7m.79-11c-.54-.09-1.07.25-1.18.8l-1.07 6.17c-.22-.03-.31-.11-.61-.14l-.43.05-1.24-6.08a1.02 1.02 0 0 0-1.17-.8c-.55.13-.9.66-.79 1.2l1.2 5.91.35 1.56c.28-.2.61-.33.97-.33h.34l3 1.61 1.41-8.75c.11-.54-.22-1.07-.78-1.2Z" transform="matrix(1.5 0 0 1.5 504 36)" id="mdi-hand-peace" fill="#555"/><path d="M7 19h8v3H7v-3m9.15-7-3.18-1.66a.49.49 0 0 0-.37.16l-.3.31.59 2.42-.98.24-1.19-4.97-1.47.68 1.04 4.29-.97.23-1-4.11-.47.21c-.5.2-.85.73-.85 1.34v4.36c0 .8.73 1.5 1.5 1.5H15c.39 0 .74-.16 1-.43l.5-.41s.5-.38.5-.8V13.7s0-1.14-.85-1.7m.79-11c-.54-.09-1.07.25-1.18.8l-1.07 6.17c-.22-.03-.31-.11-.61-.14l-.43.05-1.24-6.08a1.02 1.02 0 0 0-1.17-.8c-.55.13-.9.66-.79 1.2l1.2 5.91.35 1.56c.28-.2.61-.33.97-.33h.34l3 1.61 1.41-8.75c.11-.54-.22-1.07-.78-1.2Z" transform="matrix(1.5 0 0 1.5 540 36)" id="mdi-hand-peace" fill="#fff"/><path d="M7 19h8v3H7v-3m9.94-18c-.54-.09-1.07.25-1.18.8l-1.01 5.77c-.22-.03-.46-.07-.75-.1l-.43.03-1.16-5.7c-.1-.54-.63-.89-1.17-.8-.54.13-.89.66-.79 1.2l1.2 5.91-3.8 1.69c-.5.2-.85.73-.85 1.34v4.36c0 .8.73 1.5 1.5 1.5H15c.39 0 .74-.16 1-.43l.5-.41s.5-.38.5-.8V13s0-1.14-.87-1.7l1.58-9.1c.12-.54-.21-1.07-.77-1.2Z" transform="matrix(1.5 0 0 1.5 576 36)" id="mdi-hand-peace-variant" fill="#555"/><path d="M7 19h8v3H7v-3m9.94-18c-.54-.09-1.07.25-1.18.8l-1.01 5.77c-.22-.03-.46-.07-.75-.1l-.43.03-1.16-5.7c-.1-.54-.63-.89-1.17-.8-.54.13-.89.66-.79 1.2l1.2 5.91-3.8 1.69c-.5.2-.85.73-.85 1.34v4.36c0 .8.73 1.5 1.5 1.5H15c.39 0 .74-.16 1-.43l.5-.41s.5-.38.5-.8V13s0-1.14-.87-1.7l1.58-9.1c.12-.54-.21-1.07-.77-1.2Z" transform="matrix(1.5 0 0 1.5 612 36)" id="mdi-hand-peace-variant" fill="#fff"/><path d="M9.9 21V11l-3.2 1.69-.2.03c-.31 0-.57-.12-.76-.32L5 11.63l4.9-4.2c.26-.27.6-.43 1-.43h6.5c.77 0 1.5.7 1.5 1.5v4.36c0 .61-.35 1.14-.85 1.34l-4.94 2.2-1.21.13V21a1 1 0 0 1-1 1 1 1 0 0 1-1-1m9-16h-8V2h8v3Z" transform="matrix(1.5 0 0 1.5 648 36)" id="mdi-hand-pointing-down" fill="#555"/><path d="M9.9 21V11l-3.2 1.69-.2.03c-.31 0-.57-.12-.76-.32L5 11.63l4.9-4.2c.26-.27.6-.43 1-.43h6.5c.77 0 1.5.7 1.5 1.5v4.36c0 .61-.35 1.14-.85 1.34l-4.94 2.2-1.21.13V21a1 1 0 0 1-1 1 1 1 0 0 1-1-1m9-16h-8V2h8v3Z" transform="matrix(1.5 0 0 1.5 684 36)" id="mdi-hand-pointing-down" fill="#fff"/><path d="M3 9h10l-1.69-3.2-.03-.22c0-.29.12-.55.32-.74l.77-.74 4.2 4.9c.27.26.43.61.43 1v6.5c0 .77-.7 1.5-1.5 1.5h-4.36c-.61 0-1.14-.35-1.34-.85l-2.2-4.94L7.47 11H3a1 1 0 0 1-1-1 1 1 0 0 1 1-1m16 9v-8h3v8h-3Z" transform="matrix(1.5 0 0 1.5 0 72)" id="mdi-hand-pointing-left" fill="#555"/><path d="M3 9h10l-1.69-3.2-.03-.22c0-.29.12-.55.32-.74l.77-.74 4.2 4.9c.27.26.43.61.43 1v6.5c0 .77-.7 1.5-1.5 1.5h-4.36c-.61 0-1.14-.35-1.34-.85l-2.2-4.94L7.47 11H3a1 1 0 0 1-1-1 1 1 0 0 1 1-1m16 9v-8h3v8h-3Z" transform="matrix(1.5 0 0 1.5 36 72)" id="mdi-hand-pointing-left" fill="#fff"/><path d="M21 9a1 1 0 0 1 1 1 1 1 0 0 1-1 1h-4.47l-.13 1.21-2.2 4.94c-.2.5-.73.85-1.34.85H8.5c-.8 0-1.5-.73-1.5-1.5V10c0-.39.16-.74.43-1l4.2-4.9.77.74c.2.19.32.45.32.74l-.03.22L11 9h10M2 18v-8h3v8H2Z" transform="matrix(1.5 0 0 1.5 72 72)" id="mdi-hand-pointing-right" fill="#555"/><path d="M21 9a1 1 0 0 1 1 1 1 1 0 0 1-1 1h-4.47l-.13 1.21-2.2 4.94c-.2.5-.73.85-1.34.85H8.5c-.8 0-1.5-.73-1.5-1.5V10c0-.39.16-.74.43-1l4.2-4.9.77.74c.2.19.32.45.32.74l-.03.22L11 9h10M2 18v-8h3v8H2Z" transform="matrix(1.5 0 0 1.5 108 72)" id="mdi-hand-pointing-right" fill="#fff"/><path d="M14 3v10l3.2-1.69.22-.03c.29 0 .55.12.74.32l.74.77-4.9 4.2c-.26.27-.61.43-1 .43H6.5c-.77 0-1.5-.7-1.5-1.5v-4.36c0-.61.35-1.14.85-1.34l4.94-2.2L12 7.47V3a1 1 0 0 1 1-1 1 1 0 0 1 1 1M5 19h8v3H5v-3Z" transform="matrix(1.5 0 0 1.5 144 72)" id="mdi-hand-pointing-up" fill="#555"/><path d="M14 3v10l3.2-1.69.22-.03c.29 0 .55.12.74.32l.74.77-4.9 4.2c-.26.27-.61.43-1 .43H6.5c-.77 0-1.5-.7-1.5-1.5v-4.36c0-.61.35-1.14.85-1.34l4.94-2.2L12 7.47V3a1 1 0 0 1 1-1 1 1 0 0 1 1 1M5 19h8v3H5v-3Z" transform="matrix(1.5 0 0 1.5 180 72)" id="mdi-hand-pointing-up" fill="#fff"/><path d="m9.8 17-3.9-5.4L20 2l2 3v3h-3v3h-3v3h-3v3m-3.3 1.7-.5 2.8-1.6 1.2c-.9.6-2.1.4-2.8-.5l-3.5-4.9c-.6-.9-.4-2.1.5-2.8l3.3-2.3 4.6 6.5M4.6 15 3 16.1 6.5 21l1.6-1.2L4.6 15Z" transform="matrix(1.5 0 0 1.5 216 72)" id="mdi-hand-saw" fill="#555"/><path d="m9.8 17-3.9-5.4L20 2l2 3v3h-3v3h-3v3h-3v3m-3.3 1.7-.5 2.8-1.6 1.2c-.9.6-2.1.4-2.8-.5l-3.5-4.9c-.6-.9-.4-2.1.5-2.8l3.3-2.3 4.6 6.5M4.6 15 3 16.1 6.5 21l1.6-1.2L4.6 15Z" transform="matrix(1.5 0 0 1.5 252 72)" id="mdi-hand-saw" fill="#fff"/><path d="m17 5 .62 1.37L19 7l-1.38.63L17 9l-.64-1.37L15 7l1.36-.63L17 5m-6 1.13V4h2c.57 0 1.1.17 1.55.45L16 3c-.85-.61-1.87-1-3-1H7.5v2H9v2.14A4.99 4.99 0 0 0 5.26 9.5h3.98L15 11.65v-.62a5 5 0 0 0-4-4.9M1 22h4V11H1v11m19-5h-7l-2.09-.73.33-.94L13 16h2.82c.65 0 1.18-.53 1.18-1.18 0-.49-.31-.93-.77-1.11L8.97 11H7v9l7 2 8-3a2 2 0 0 0-2-2m0-3c1.1 0 2-.9 2-2s-2-4-2-4-2 2.9-2 4 .9 2 2 2Z" transform="matrix(1.5 0 0 1.5 288 72)" id="mdi-hand-wash" fill="#555"/><path d="m17 5 .62 1.37L19 7l-1.38.63L17 9l-.64-1.37L15 7l1.36-.63L17 5m-6 1.13V4h2c.57 0 1.1.17 1.55.45L16 3c-.85-.61-1.87-1-3-1H7.5v2H9v2.14A4.99 4.99 0 0 0 5.26 9.5h3.98L15 11.65v-.62a5 5 0 0 0-4-4.9M1 22h4V11H1v11m19-5h-7l-2.09-.73.33-.94L13 16h2.82c.65 0 1.18-.53 1.18-1.18 0-.49-.31-.93-.77-1.11L8.97 11H7v9l7 2 8-3a2 2 0 0 0-2-2m0-3c1.1 0 2-.9 2-2s-2-4-2-4-2 2.9-2 4 .9 2 2 2Z" transform="matrix(1.5 0 0 1.5 324 72)" id="mdi-hand-wash" fill="#fff"/><path d="m17 5 .62 1.37L19 7l-1.38.63L17 9l-.64-1.37L15 7l1.36-.63L17 5m3 9c1.1 0 2-.9 2-2s-2-4-2-4-2 2.9-2 4 .9 2 2 2m-9-7.9V4h2c.57 0 1.1.17 1.55.45L16 3c-.85-.61-1.87-1-3-1H7.5v2H9v2.11A5.06 5.06 0 0 0 5.25 9.5h2.16C7.94 8.61 8.89 8 10 8c1.62 0 2.94 1.29 3 2.9l2 .75V11a5 5 0 0 0-4-4.9M22 19v1l-8 2.5-7-1.94V22H1V11h7.97l6.16 2.3A2.89 2.89 0 0 1 17 16h2c1.66 0 3 1.34 3 3M5 20v-7H3v7h2m14.9-1.43c-.16-.33-.51-.57-.9-.57h-5.35c-.54 0-1.07-.08-1.58-.25l-2.38-.79.63-1.9 2.38.79c.3.1 2.3.15 2.3.15 0-.37-.23-.7-.57-.83L8.61 13H7v5.5l6.97 1.91 5.93-1.84Z" transform="matrix(1.5 0 0 1.5 360 72)" id="mdi-hand-wash-outline" fill="#555"/><path d="m17 5 .62 1.37L19 7l-1.38.63L17 9l-.64-1.37L15 7l1.36-.63L17 5m3 9c1.1 0 2-.9 2-2s-2-4-2-4-2 2.9-2 4 .9 2 2 2m-9-7.9V4h2c.57 0 1.1.17 1.55.45L16 3c-.85-.61-1.87-1-3-1H7.5v2H9v2.11A5.06 5.06 0 0 0 5.25 9.5h2.16C7.94 8.61 8.89 8 10 8c1.62 0 2.94 1.29 3 2.9l2 .75V11a5 5 0 0 0-4-4.9M22 19v1l-8 2.5-7-1.94V22H1V11h7.97l6.16 2.3A2.89 2.89 0 0 1 17 16h2c1.66 0 3 1.34 3 3M5 20v-7H3v7h2m14.9-1.43c-.16-.33-.51-.57-.9-.57h-5.35c-.54 0-1.07-.08-1.58-.25l-2.38-.79.63-1.9 2.38.79c.3.1 2.3.15 2.3.15 0-.37-.23-.7-.57-.83L8.61 13H7v5.5l6.97 1.91 5.93-1.84Z" transform="matrix(1.5 0 0 1.5 396 72)" id="mdi-hand-wash-outline" fill="#fff"/><path d="M17.42 22.5H5.33C3.5 22.5 2 21 2 19.17v-6.09c0-.9.36-1.75 1-2.37l5.63-5.54s1.03 1.05 1.04 1.08a.985.985 0 0 1 .11 1.16C9.77 7.44 8 10 8 10h10.67a1.25 1.25 0 0 1 0 2.5h-5.84v.83h7.92a1.25 1.25 0 0 1 0 2.5h-7.92v.84h7.09a1.25 1.25 0 0 1 0 2.5h-7.09V20h4.59a1.25 1.25 0 0 1 0 2.5M13.5 4.8S12 6.46 12 7.5c0 2 3 2 3 0 0-1.04-1.5-2.7-1.5-2.7m5-3.8S16 3.76 16 5.5c0 3.33 5 3.33 5 0C21 3.76 18.5 1 18.5 1Z" transform="matrix(1.5 0 0 1.5 432 72)" id="mdi-hand-water" fill="#555"/><path d="M17.42 22.5H5.33C3.5 22.5 2 21 2 19.17v-6.09c0-.9.36-1.75 1-2.37l5.63-5.54s1.03 1.05 1.04 1.08a.985.985 0 0 1 .11 1.16C9.77 7.44 8 10 8 10h10.67a1.25 1.25 0 0 1 0 2.5h-5.84v.83h7.92a1.25 1.25 0 0 1 0 2.5h-7.92v.84h7.09a1.25 1.25 0 0 1 0 2.5h-7.09V20h4.59a1.25 1.25 0 0 1 0 2.5M13.5 4.8S12 6.46 12 7.5c0 2 3 2 3 0 0-1.04-1.5-2.7-1.5-2.7m5-3.8S16 3.76 16 5.5c0 3.33 5 3.33 5 0C21 3.76 18.5 1 18.5 1Z" transform="matrix(1.5 0 0 1.5 468 72)" id="mdi-hand-water" fill="#fff"/><path d="M23 17c0 3.31-2.69 6-6 6v-1.5c2.5 0 4.5-2 4.5-4.5H23M1 7c0-3.31 2.69-6 6-6v1.5c-2.5 0-4.5 2-4.5 4.5H1m7-2.68-4.59 4.6c-3.22 3.22-3.22 8.45 0 11.67s8.45 3.22 11.67 0l7.07-7.09c.49-.47.49-1.26 0-1.75a1.25 1.25 0 0 0-1.77 0l-4.42 4.42-.71-.71 6.54-6.54c.49-.49.49-1.28 0-1.77s-1.29-.49-1.79 0L14.19 13l-.69-.73 6.87-6.89c.49-.49.49-1.28 0-1.77s-1.28-.49-1.77 0l-6.89 6.89-.71-.7 5.5-5.48c.5-.49.5-1.28 0-1.77s-1.28-.49-1.77 0l-7.62 7.62a4.003 4.003 0 0 1-.33 5.28l-.71-.71a3 3 0 0 0 0-4.24l-.35-.35 4.07-4.07c.49-.49.49-1.28 0-1.77-.5-.48-1.29-.48-1.79.01Z" transform="matrix(1.5 0 0 1.5 504 72)" id="mdi-hand-wave" fill="#555"/><path d="M23 17c0 3.31-2.69 6-6 6v-1.5c2.5 0 4.5-2 4.5-4.5H23M1 7c0-3.31 2.69-6 6-6v1.5c-2.5 0-4.5 2-4.5 4.5H1m7-2.68-4.59 4.6c-3.22 3.22-3.22 8.45 0 11.67s8.45 3.22 11.67 0l7.07-7.09c.49-.47.49-1.26 0-1.75a1.25 1.25 0 0 0-1.77 0l-4.42 4.42-.71-.71 6.54-6.54c.49-.49.49-1.28 0-1.77s-1.29-.49-1.79 0L14.19 13l-.69-.73 6.87-6.89c.49-.49.49-1.28 0-1.77s-1.28-.49-1.77 0l-6.89 6.89-.71-.7 5.5-5.48c.5-.49.5-1.28 0-1.77s-1.28-.49-1.77 0l-7.62 7.62a4.003 4.003 0 0 1-.33 5.28l-.71-.71a3 3 0 0 0 0-4.24l-.35-.35 4.07-4.07c.49-.49.49-1.28 0-1.77-.5-.48-1.29-.48-1.79.01Z" transform="matrix(1.5 0 0 1.5 540 72)" id="mdi-hand-wave" fill="#fff"/><path d="M7.03 4.95 3.5 8.5c-3.33 3.31-3.33 8.69 0 12s8.69 3.33 12 0l6-6c1-.97 1-2.56 0-3.54-.1-.12-.23-.23-.37-.32l.37-.39c1-.97 1-2.56 0-3.54-.14-.16-.33-.3-.5-.41.38-.92.21-2.02-.54-2.77-.87-.87-2.22-.96-3.2-.28a2.517 2.517 0 0 0-3.88-.42l-2.51 2.51c-.09-.14-.2-.27-.32-.39a2.53 2.53 0 0 0-3.52 0m1.41 1.42c.2-.2.51-.2.71 0s.2.51 0 .71l-3.18 3.18a3 3 0 0 1 0 4.24l1.41 1.41a5.004 5.004 0 0 0 1.12-5.36l6.3-6.3c.2-.2.51-.2.7 0s.21.51 0 .71l-4.59 4.6 1.41 1.41 6.01-6.01c.2-.2.51-.2.71 0 .2.2.2.51 0 .71l-6.01 6.01 1.41 1.41 4.95-4.95c.2-.2.51-.2.71 0 .2.2.2.51 0 .71l-5.66 5.65 1.41 1.42 3.54-3.54c.2-.2.51-.2.71 0 .2.2.2.51 0 .71l-6 6.01c-2.54 2.54-6.65 2.54-9.19 0s-2.54-6.65 0-9.19l3.53-3.54M23 17c0 3.31-2.69 6-6 6v-1.5c2.5 0 4.5-2 4.5-4.5H23M1 7c0-3.31 2.69-6 6-6v1.5c-2.5 0-4.5 2-4.5 4.5H1Z" transform="matrix(1.5 0 0 1.5 576 72)" id="mdi-hand-wave-outline" fill="#555"/><path d="M7.03 4.95 3.5 8.5c-3.33 3.31-3.33 8.69 0 12s8.69 3.33 12 0l6-6c1-.97 1-2.56 0-3.54-.1-.12-.23-.23-.37-.32l.37-.39c1-.97 1-2.56 0-3.54-.14-.16-.33-.3-.5-.41.38-.92.21-2.02-.54-2.77-.87-.87-2.22-.96-3.2-.28a2.517 2.517 0 0 0-3.88-.42l-2.51 2.51c-.09-.14-.2-.27-.32-.39a2.53 2.53 0 0 0-3.52 0m1.41 1.42c.2-.2.51-.2.71 0s.2.51 0 .71l-3.18 3.18a3 3 0 0 1 0 4.24l1.41 1.41a5.004 5.004 0 0 0 1.12-5.36l6.3-6.3c.2-.2.51-.2.7 0s.21.51 0 .71l-4.59 4.6 1.41 1.41 6.01-6.01c.2-.2.51-.2.71 0 .2.2.2.51 0 .71l-6.01 6.01 1.41 1.41 4.95-4.95c.2-.2.51-.2.71 0 .2.2.2.51 0 .71l-5.66 5.65 1.41 1.42 3.54-3.54c.2-.2.51-.2.71 0 .2.2.2.51 0 .71l-6 6.01c-2.54 2.54-6.65 2.54-9.19 0s-2.54-6.65 0-9.19l3.53-3.54M23 17c0 3.31-2.69 6-6 6v-1.5c2.5 0 4.5-2 4.5-4.5H23M1 7c0-3.31 2.69-6 6-6v1.5c-2.5 0-4.5 2-4.5 4.5H1Z" transform="matrix(1.5 0 0 1.5 612 72)" id="mdi-hand-wave-outline" fill="#fff"/><path d="M15.83 10.43a6.93 6.93 0 0 1 2.56 4.43 6.64 6.64 0 0 1-.89 4.64l-1.72-1a5 5 0 0 0 .66-2.5 5.22 5.22 0 0 0-.98-2.94L9.18 23.93l-1.74-.98 3-5.2-1.73-.99-1.5 2.58-1.71-.98 5.13-8.91A7 7 0 0 1 8.8 5.46a6.91 6.91 0 0 1 .89-4.36l1.74 1.03a4.84 4.84 0 0 0-.52 3.77 4.74 4.74 0 0 0 2.3 3.03M16 5a2 2 0 1 0 2 2 2 2 0 0 0-2-2m-2.5-4A1.5 1.5 0 1 0 15 2.5 1.5 1.5 0 0 0 13.5 1Z" transform="matrix(1.5 0 0 1.5 648 72)" id="mdi-handball" fill="#555"/><path d="M15.83 10.43a6.93 6.93 0 0 1 2.56 4.43 6.64 6.64 0 0 1-.89 4.64l-1.72-1a5 5 0 0 0 .66-2.5 5.22 5.22 0 0 0-.98-2.94L9.18 23.93l-1.74-.98 3-5.2-1.73-.99-1.5 2.58-1.71-.98 5.13-8.91A7 7 0 0 1 8.8 5.46a6.91 6.91 0 0 1 .89-4.36l1.74 1.03a4.84 4.84 0 0 0-.52 3.77 4.74 4.74 0 0 0 2.3 3.03M16 5a2 2 0 1 0 2 2 2 2 0 0 0-2-2m-2.5-4A1.5 1.5 0 1 0 15 2.5 1.5 1.5 0 0 0 13.5 1Z" transform="matrix(1.5 0 0 1.5 684 72)" id="mdi-handball" fill="#fff"/><path d="M20.24 6.76c-1.84-1.85-4.59-2.23-6.82-1.17l-.96-.96a.996.996 0 0 0-1.41 0l-.08.09C10.83 3.75 10 3 9 3c-1.1 0-2 .9-2 2 0 .09 0 .18.03.26C6.42 5.61 6 6.25 6 7c0 .46.16.87.42 1.21A.97.97 0 0 0 6 9v1.35c-2.33.82-4 3.04-4 5.65 0 3.31 2.69 6 6 6s6-2.69 6-6a5.99 5.99 0 0 0-4-5.65V9a.97.97 0 0 0-.42-.79c.26-.34.42-.75.42-1.21 0-.09 0-.18-.03-.26.18-.1.33-.24.46-.36C11.36 6.88 12 7.86 12 9v.08c.13.07.25.17.38.25.19-.42.45-.83.79-1.16a4.008 4.008 0 0 1 5.66 0 4.008 4.008 0 0 1 0 5.66c-.8.8-1.83 1.17-2.9 1.17.07.32.07.66.07 1 0 .34-.03.67-.07 1 1.57 0 3.12-.57 4.31-1.76a5.981 5.981 0 0 0 0-8.48M9 4c.55 0 1 .45 1 1 0 .33-.17.61-.42.79C9.22 5.31 8.65 5 8 5c0-.55.45-1 1-1M7.42 6.21c.36.48.93.79 1.58.79 0 .55-.45 1-1 1s-1-.45-1-1c0-.33.17-.61.42-.79M12 16c0 2.21-1.79 4-4 4s-4-1.79-4-4 1.79-4 4-4 4 1.79 4 4Z" transform="matrix(1.5 0 0 1.5 0 108)" id="mdi-handcuffs" fill="#555"/><path d="M20.24 6.76c-1.84-1.85-4.59-2.23-6.82-1.17l-.96-.96a.996.996 0 0 0-1.41 0l-.08.09C10.83 3.75 10 3 9 3c-1.1 0-2 .9-2 2 0 .09 0 .18.03.26C6.42 5.61 6 6.25 6 7c0 .46.16.87.42 1.21A.97.97 0 0 0 6 9v1.35c-2.33.82-4 3.04-4 5.65 0 3.31 2.69 6 6 6s6-2.69 6-6a5.99 5.99 0 0 0-4-5.65V9a.97.97 0 0 0-.42-.79c.26-.34.42-.75.42-1.21 0-.09 0-.18-.03-.26.18-.1.33-.24.46-.36C11.36 6.88 12 7.86 12 9v.08c.13.07.25.17.38.25.19-.42.45-.83.79-1.16a4.008 4.008 0 0 1 5.66 0 4.008 4.008 0 0 1 0 5.66c-.8.8-1.83 1.17-2.9 1.17.07.32.07.66.07 1 0 .34-.03.67-.07 1 1.57 0 3.12-.57 4.31-1.76a5.981 5.981 0 0 0 0-8.48M9 4c.55 0 1 .45 1 1 0 .33-.17.61-.42.79C9.22 5.31 8.65 5 8 5c0-.55.45-1 1-1M7.42 6.21c.36.48.93.79 1.58.79 0 .55-.45 1-1 1s-1-.45-1-1c0-.33.17-.61.42-.79M12 16c0 2.21-1.79 4-4 4s-4-1.79-4-4 1.79-4 4-4 4 1.79 4 4Z" transform="matrix(1.5 0 0 1.5 36 108)" id="mdi-handcuffs" fill="#fff"/><path d="M11.43 9.67c.04.11.07.21.07.33v5.22c0 .5-.19.98-.53 1.35l-2.79 3.05-3.4-3.4L6 15 8.8 2.86a1.114 1.114 0 0 1 2.2.25v4.96a2.08 2.08 0 0 0-.5-.07c-1.1 0-2 .9-2 2v3c0 .28.22.5.5.5s.5-.22.5-.5v-3c0-.55.45-1 1-1 .19 0 .35.07.5.16.12.07.21.16.3.26.03.04.06.08.08.13.02.04.04.08.05.12M2 19l4 3 1.17-1.27-3.45-3.45L2 19m16-4L15.2 2.86a1.114 1.114 0 0 0-2.2.25v4.96c.16-.04.33-.07.5-.07 1.1 0 2 .9 2 2v3c0 .28-.22.5-.5.5s-.5-.22-.5-.5v-3c0-.55-.45-1-1-1-.19 0-.35.07-.5.16-.12.07-.21.16-.29.26-.03.04-.07.08-.09.13-.02.04-.04.08-.05.12-.04.11-.07.21-.07.33v5.22c0 .5.19.98.53 1.35l2.79 3.05 3.4-3.4L18 15m2.28 2.28-3.45 3.45L18 22l4-3-1.72-1.72Z" transform="matrix(1.5 0 0 1.5 72 108)" id="mdi-hands-pray" fill="#555"/><path d="M11.43 9.67c.04.11.07.21.07.33v5.22c0 .5-.19.98-.53 1.35l-2.79 3.05-3.4-3.4L6 15 8.8 2.86a1.114 1.114 0 0 1 2.2.25v4.96a2.08 2.08 0 0 0-.5-.07c-1.1 0-2 .9-2 2v3c0 .28.22.5.5.5s.5-.22.5-.5v-3c0-.55.45-1 1-1 .19 0 .35.07.5.16.12.07.21.16.3.26.03.04.06.08.08.13.02.04.04.08.05.12M2 19l4 3 1.17-1.27-3.45-3.45L2 19m16-4L15.2 2.86a1.114 1.114 0 0 0-2.2.25v4.96c.16-.04.33-.07.5-.07 1.1 0 2 .9 2 2v3c0 .28-.22.5-.5.5s-.5-.22-.5-.5v-3c0-.55-.45-1-1-1-.19 0-.35.07-.5.16-.12.07-.21.16-.29.26-.03.04-.07.08-.09.13-.02.04-.04.08-.05.12-.04.11-.07.21-.07.33v5.22c0 .5.19.98.53 1.35l2.79 3.05 3.4-3.4L18 15m2.28 2.28-3.45 3.45L18 22l4-3-1.72-1.72Z" transform="matrix(1.5 0 0 1.5 108 108)" id="mdi-hands-pray" fill="#fff"/><path d="M11 6h3l3.29-3.3a1 1 0 0 1 1.42 0l2.58 2.59a1 1 0 0 1 0 1.41L19 9h-8v2a1 1 0 0 1-1 1 1 1 0 0 1-1-1V8a2 2 0 0 1 2-2m-6 5v4l-2.29 2.29a1 1 0 0 0 0 1.41l2.58 2.59a1 1 0 0 0 1.42 0L11 17h4a1 1 0 0 0 1-1v-1h1a1 1 0 0 0 1-1v-1h1a1 1 0 0 0 1-1v-1h-7v1a2 2 0 0 1-2 2H9a2 2 0 0 1-2-2V9Z" transform="matrix(1.5 0 0 1.5 144 108)" id="mdi-handshake" fill="#555"/><path d="M11 6h3l3.29-3.3a1 1 0 0 1 1.42 0l2.58 2.59a1 1 0 0 1 0 1.41L19 9h-8v2a1 1 0 0 1-1 1 1 1 0 0 1-1-1V8a2 2 0 0 1 2-2m-6 5v4l-2.29 2.29a1 1 0 0 0 0 1.41l2.58 2.59a1 1 0 0 0 1.42 0L11 17h4a1 1 0 0 0 1-1v-1h1a1 1 0 0 0 1-1v-1h1a1 1 0 0 0 1-1v-1h-7v1a2 2 0 0 1-2 2H9a2 2 0 0 1-2-2V9Z" transform="matrix(1.5 0 0 1.5 180 108)" id="mdi-handshake" fill="#fff"/><path d="M21.71 8.71c1.25-1.25.68-2.71 0-3.42l-3-3c-1.26-1.25-2.71-.68-3.42 0L13.59 4H11C9.1 4 8 5 7.44 6.15L3 10.59v4l-.71.7c-1.25 1.26-.68 2.71 0 3.42l3 3c.54.54 1.12.74 1.67.74.71 0 1.36-.35 1.75-.74l2.7-2.71H15c1.7 0 2.56-1.06 2.87-2.1 1.13-.3 1.75-1.16 2-2C21.42 14.5 22 13.03 22 12V9h-.59l.3-.29M20 12c0 .45-.19 1-1 1h-1v1c0 .45-.19 1-1 1h-1v1c0 .45-.19 1-1 1h-4.41l-3.28 3.28c-.31.29-.49.12-.6.01l-2.99-2.98c-.29-.31-.12-.49-.01-.6L5 15.41v-4l2-2V11c0 1.21.8 3 3 3s3-1.79 3-3h7v1m.29-4.71L18.59 9H11v2c0 .45-.19 1-1 1s-1-.55-1-1V8c0-.46.17-2 2-2h3.41l2.28-2.28c.31-.29.49-.12.6-.01l2.99 2.98c.29.31.12.49.01.6Z" transform="matrix(1.5 0 0 1.5 216 108)" id="mdi-handshake-outline" fill="#555"/><path d="M21.71 8.71c1.25-1.25.68-2.71 0-3.42l-3-3c-1.26-1.25-2.71-.68-3.42 0L13.59 4H11C9.1 4 8 5 7.44 6.15L3 10.59v4l-.71.7c-1.25 1.26-.68 2.71 0 3.42l3 3c.54.54 1.12.74 1.67.74.71 0 1.36-.35 1.75-.74l2.7-2.71H15c1.7 0 2.56-1.06 2.87-2.1 1.13-.3 1.75-1.16 2-2C21.42 14.5 22 13.03 22 12V9h-.59l.3-.29M20 12c0 .45-.19 1-1 1h-1v1c0 .45-.19 1-1 1h-1v1c0 .45-.19 1-1 1h-4.41l-3.28 3.28c-.31.29-.49.12-.6.01l-2.99-2.98c-.29-.31-.12-.49-.01-.6L5 15.41v-4l2-2V11c0 1.21.8 3 3 3s3-1.79 3-3h7v1m.29-4.71L18.59 9H11v2c0 .45-.19 1-1 1s-1-.55-1-1V8c0-.46.17-2 2-2h3.41l2.28-2.28c.31-.29.49-.12.6-.01l2.99 2.98c.29.31.12.49.01.6Z" transform="matrix(1.5 0 0 1.5 252 108)" id="mdi-handshake-outline" fill="#fff"/><path d="M12 4a3.5 3.5 0 0 0-3.5 3.5h2A1.5 1.5 0 0 1 12 6a1.5 1.5 0 0 1 1.5 1.5A1.5 1.5 0 0 1 12 9c-.55 0-1 .45-1 1v1.75L2.4 18.2A1 1 0 0 0 3 20h18a1 1 0 0 0 .6-1.8L13 11.75v-.9a3.5 3.5 0 0 0 2.5-3.35A3.5 3.5 0 0 0 12 4m0 9.5 6 4.5H6Z" transform="matrix(1.5 0 0 1.5 288 108)" id="mdi-hanger" fill="#555"/><path d="M12 4a3.5 3.5 0 0 0-3.5 3.5h2A1.5 1.5 0 0 1 12 6a1.5 1.5 0 0 1 1.5 1.5A1.5 1.5 0 0 1 12 9c-.55 0-1 .45-1 1v1.75L2.4 18.2A1 1 0 0 0 3 20h18a1 1 0 0 0 .6-1.8L13 11.75v-.9a3.5 3.5 0 0 0 2.5-3.35A3.5 3.5 0 0 0 12 4m0 9.5 6 4.5H6Z" transform="matrix(1.5 0 0 1.5 324 108)" id="mdi-hanger" fill="#fff"/><path d="M9.87 12.15 9 6.46a9.91 9.91 0 0 1 6 0l-.87 5.69c-.07.49-.5.85-1 .85h-2.27a1 1 0 0 1-.99-.85M22 16c0-.79-.47-1.5-1.2-1.83A9.082 9.082 0 0 0 17 8.5l-1.76 4.84c-.14.4-.52.66-.94.66H9.7c-.42 0-.8-.26-.94-.66L7 8.5a9.087 9.087 0 0 0-3.8 5.66C2.47 14.5 2 15.2 2 16l6.45 1.84c.36.1.73.16 1.1.16h4.88c.37 0 .74-.06 1.1-.16L22 16Z" transform="matrix(1.5 0 0 1.5 360 108)" id="mdi-hard-hat" fill="#555"/><path d="M9.87 12.15 9 6.46a9.91 9.91 0 0 1 6 0l-.87 5.69c-.07.49-.5.85-1 .85h-2.27a1 1 0 0 1-.99-.85M22 16c0-.79-.47-1.5-1.2-1.83A9.082 9.082 0 0 0 17 8.5l-1.76 4.84c-.14.4-.52.66-.94.66H9.7c-.42 0-.8-.26-.94-.66L7 8.5a9.087 9.087 0 0 0-3.8 5.66C2.47 14.5 2 15.2 2 16l6.45 1.84c.36.1.73.16 1.1.16h4.88c.37 0 .74-.06 1.1-.16L22 16Z" transform="matrix(1.5 0 0 1.5 396 108)" id="mdi-hard-hat" fill="#fff"/><path d="M6 2h12a2 2 0 0 1 2 2v16a2 2 0 0 1-2 2H6a2 2 0 0 1-2-2V4a2 2 0 0 1 2-2m6 2a6 6 0 0 0-6 6c0 3.31 2.69 6 6.1 6l-.88-2.23a1.01 1.01 0 0 1 .37-1.37l.86-.5a1.01 1.01 0 0 1 1.37.37l1.92 2.42A5.977 5.977 0 0 0 18 10a6 6 0 0 0-6-6m0 5a1 1 0 0 1 1 1 1 1 0 0 1-1 1 1 1 0 0 1-1-1 1 1 0 0 1 1-1m-5 9a1 1 0 0 0-1 1 1 1 0 0 0 1 1 1 1 0 0 0 1-1 1 1 0 0 0-1-1m5.09-4.73 2.49 6.31 2.59-1.5-4.22-5.31-.86.5Z" transform="matrix(1.5 0 0 1.5 432 108)" id="mdi-harddisk" fill="#555"/><path d="M6 2h12a2 2 0 0 1 2 2v16a2 2 0 0 1-2 2H6a2 2 0 0 1-2-2V4a2 2 0 0 1 2-2m6 2a6 6 0 0 0-6 6c0 3.31 2.69 6 6.1 6l-.88-2.23a1.01 1.01 0 0 1 .37-1.37l.86-.5a1.01 1.01 0 0 1 1.37.37l1.92 2.42A5.977 5.977 0 0 0 18 10a6 6 0 0 0-6-6m0 5a1 1 0 0 1 1 1 1 1 0 0 1-1 1 1 1 0 0 1-1-1 1 1 0 0 1 1-1m-5 9a1 1 0 0 0-1 1 1 1 0 0 0 1 1 1 1 0 0 0 1-1 1 1 0 0 0-1-1m5.09-4.73 2.49 6.31 2.59-1.5-4.22-5.31-.86.5Z" transform="matrix(1.5 0 0 1.5 468 108)" id="mdi-harddisk" fill="#fff"/><path d="M12 9a1 1 0 1 0 1 1 1 1 0 0 0-1-1m0 0a1 1 0 1 0 1 1 1 1 0 0 0-1-1m6-7H6a2 2 0 0 0-2 2v9.09A5.47 5.47 0 0 1 5 13a5.71 5.71 0 0 1 2 .36 6 6 0 1 1 8.71 1.33l-1.92-2.42a1 1 0 0 0-1.37-.37l-.86.5a1 1 0 0 0-.37 1.37L12.1 16a6.12 6.12 0 0 1-2.1-.38 6 6 0 0 1 .19 6.38H18a2 2 0 0 0 2-2V4a2 2 0 0 0-2-2m-3.42 17.58-2.49-6.31.86-.5 4.22 5.31M12 11a1 1 0 1 0-1-1 1 1 0 0 0 1 1m-3 9H6v3H4v-3H1v-2h3v-3h2v3h3Z" transform="matrix(1.5 0 0 1.5 504 108)" id="mdi-harddisk-plus" fill="#555"/><path d="M12 9a1 1 0 1 0 1 1 1 1 0 0 0-1-1m0 0a1 1 0 1 0 1 1 1 1 0 0 0-1-1m6-7H6a2 2 0 0 0-2 2v9.09A5.47 5.47 0 0 1 5 13a5.71 5.71 0 0 1 2 .36 6 6 0 1 1 8.71 1.33l-1.92-2.42a1 1 0 0 0-1.37-.37l-.86.5a1 1 0 0 0-.37 1.37L12.1 16a6.12 6.12 0 0 1-2.1-.38 6 6 0 0 1 .19 6.38H18a2 2 0 0 0 2-2V4a2 2 0 0 0-2-2m-3.42 17.58-2.49-6.31.86-.5 4.22 5.31M12 11a1 1 0 1 0-1-1 1 1 0 0 0 1 1m-3 9H6v3H4v-3H1v-2h3v-3h2v3h3Z" transform="matrix(1.5 0 0 1.5 540 108)" id="mdi-harddisk-plus" fill="#fff"/><path d="M12 9a1 1 0 1 0 1 1 1 1 0 0 0-1-1m0 0a1 1 0 1 0 1 1 1 1 0 0 0-1-1m6-7H6a2 2 0 0 0-2 2v9.09A5.47 5.47 0 0 1 5 13a5.71 5.71 0 0 1 2 .36 6 6 0 1 1 8.71 1.33l-1.92-2.42a1 1 0 0 0-1.37-.37l-.86.5a1 1 0 0 0-.37 1.37L12.1 16a6.12 6.12 0 0 1-2.1-.38 6 6 0 0 1 .19 6.38H18a2 2 0 0 0 2-2V4a2 2 0 0 0-2-2m-3.42 17.58-2.49-6.31.86-.5 4.22 5.31M12 11a1 1 0 1 0-1-1 1 1 0 0 0 1 1M7.12 22.54 5 20.41l-2.12 2.13-1.42-1.42L3.59 19l-2.13-2.12 1.42-1.42L5 17.59l2.12-2.13 1.42 1.42L6.41 19l2.13 2.12Z" transform="matrix(1.5 0 0 1.5 576 108)" id="mdi-harddisk-remove" fill="#555"/><path d="M12 9a1 1 0 1 0 1 1 1 1 0 0 0-1-1m0 0a1 1 0 1 0 1 1 1 1 0 0 0-1-1m6-7H6a2 2 0 0 0-2 2v9.09A5.47 5.47 0 0 1 5 13a5.71 5.71 0 0 1 2 .36 6 6 0 1 1 8.71 1.33l-1.92-2.42a1 1 0 0 0-1.37-.37l-.86.5a1 1 0 0 0-.37 1.37L12.1 16a6.12 6.12 0 0 1-2.1-.38 6 6 0 0 1 .19 6.38H18a2 2 0 0 0 2-2V4a2 2 0 0 0-2-2m-3.42 17.58-2.49-6.31.86-.5 4.22 5.31M12 11a1 1 0 1 0-1-1 1 1 0 0 0 1 1M7.12 22.54 5 20.41l-2.12 2.13-1.42-1.42L3.59 19l-2.13-2.12 1.42-1.42L5 17.59l2.12-2.13 1.42 1.42L6.41 19l2.13 2.12Z" transform="matrix(1.5 0 0 1.5 612 108)" id="mdi-harddisk-remove" fill="#fff"/><path d="M19.11 11.92c.02-.21.03-.42.03-.63 0-3.43-1.43-7.15-2.86-7.15S13.42 5.57 12 5.57c-1.43 0-2.86-1.43-4.29-1.43-1.43 0-2.85 3.65-2.85 7.15 0 .21 0 .42.02.63 2.34.53 4.72.8 7.12.79 2.45 0 4.83-.27 7.11-.79M3.45 18.18a29.69 29.69 0 0 0 17.09 0A2.142 2.142 0 0 0 22 16.17c0-.45-.14-.88-.39-1.25-.26-.36-.61-.63-1.05-.78-2.7.86-5.56 1.31-8.56 1.31-3 0-5.87-.45-8.57-1.31-.43.15-.78.43-1.04.79-.25.36-.39.79-.39 1.24 0 .94.61 1.73 1.45 2.01Z" transform="matrix(1.5 0 0 1.5 648 108)" id="mdi-hat-fedora" fill="#555"/><path d="M19.11 11.92c.02-.21.03-.42.03-.63 0-3.43-1.43-7.15-2.86-7.15S13.42 5.57 12 5.57c-1.43 0-2.86-1.43-4.29-1.43-1.43 0-2.85 3.65-2.85 7.15 0 .21 0 .42.02.63 2.34.53 4.72.8 7.12.79 2.45 0 4.83-.27 7.11-.79M3.45 18.18a29.69 29.69 0 0 0 17.09 0A2.142 2.142 0 0 0 22 16.17c0-.45-.14-.88-.39-1.25-.26-.36-.61-.63-1.05-.78-2.7.86-5.56 1.31-8.56 1.31-3 0-5.87-.45-8.57-1.31-.43.15-.78.43-1.04.79-.25.36-.39.79-.39 1.24 0 .94.61 1.73 1.45 2.01Z" transform="matrix(1.5 0 0 1.5 684 108)" id="mdi-hat-fedora" fill="#fff"/><path d="m12 12 2.33 4H9.68L12 12m0-4L6.21 18H17.8L12 8m0-6L1 21h22L12 2m0 4 7.53 13H4.47L12 6Z" transform="matrix(1.5 0 0 1.5 0 144)" id="mdi-hazard-lights" fill="#555"/><path d="m12 12 2.33 4H9.68L12 12m0-4L6.21 18H17.8L12 8m0-6L1 21h22L12 2m0 4 7.53 13H4.47L12 6Z" transform="matrix(1.5 0 0 1.5 36 144)" id="mdi-hazard-lights" fill="#fff"/><path d="M21 11.5v-1c0-.8-.7-1.5-1.5-1.5H16v6h1.5v-2h1.1l.9 2H21l-.9-2.1c.5-.3.9-.8.9-1.4m-1.5 0h-2v-1h2v1m-13-.5h-2V9H3v6h1.5v-2.5h2V15H8V9H6.5v2M13 9H9.5v6H13c.8 0 1.5-.7 1.5-1.5v-3c0-.8-.7-1.5-1.5-1.5m0 4.5h-2v-3h2v3Z" transform="matrix(1.5 0 0 1.5 72 144)" id="mdi-hdr" fill="#555"/><path d="M21 11.5v-1c0-.8-.7-1.5-1.5-1.5H16v6h1.5v-2h1.1l.9 2H21l-.9-2.1c.5-.3.9-.8.9-1.4m-1.5 0h-2v-1h2v1m-13-.5h-2V9H3v6h1.5v-2.5h2V15H8V9H6.5v2M13 9H9.5v6H13c.8 0 1.5-.7 1.5-1.5v-3c0-.8-.7-1.5-1.5-1.5m0 4.5h-2v-3h2v3Z" transform="matrix(1.5 0 0 1.5 108 144)" id="mdi-hdr" fill="#fff"/><path d="M17.5 15v-2h1.1l.9 2H21l-.9-2.1c.5-.2.9-.8.9-1.4v-1c0-.8-.7-1.5-1.5-1.5H16v4.9l1.1 1.1h.4m0-4.5h2v1h-2v-1m-4.5 0v.4l1.5 1.5v-1.9c0-.8-.7-1.5-1.5-1.5h-1.9l1.5 1.5h.4m-3.5-1-7-7-1.1 1L6.9 9h-.4v2h-2V9H3v6h1.5v-2.5h2V15H8v-4.9l1.5 1.5V15h3.4l7.6 7.6 1.1-1.1-12.1-12Z" transform="matrix(1.5 0 0 1.5 144 144)" id="mdi-hdr-off" fill="#555"/><path d="M17.5 15v-2h1.1l.9 2H21l-.9-2.1c.5-.2.9-.8.9-1.4v-1c0-.8-.7-1.5-1.5-1.5H16v4.9l1.1 1.1h.4m0-4.5h2v1h-2v-1m-4.5 0v.4l1.5 1.5v-1.9c0-.8-.7-1.5-1.5-1.5h-1.9l1.5 1.5h.4m-3.5-1-7-7-1.1 1L6.9 9h-.4v2h-2V9H3v6h1.5v-2.5h2V15H8v-4.9l1.5 1.5V15h3.4l7.6 7.6 1.1-1.1-12.1-12Z" transform="matrix(1.5 0 0 1.5 180 144)" id="mdi-hdr-off" fill="#fff"/><path d="M13 3C9.2 3 6.2 5.9 6 9.7l-1.9 2.5c-.2.3 0 .8.4.8H6v3c0 1.1.9 2 2 2h1v3h7v-4.7c2.4-1.1 4-3.5 4-6.3 0-3.9-3.1-7-7-7" transform="matrix(1.5 0 0 1.5 216 144)" id="mdi-head" fill="#555"/><path d="M13 3C9.2 3 6.2 5.9 6 9.7l-1.9 2.5c-.2.3 0 .8.4.8H6v3c0 1.1.9 2 2 2h1v3h7v-4.7c2.4-1.1 4-3.5 4-6.3 0-3.9-3.1-7-7-7" transform="matrix(1.5 0 0 1.5 252 144)" id="mdi-head" fill="#fff"/><path d="M13 3C9.2 3 6.2 5.9 6 9.7l-1.9 2.5c-.2.3 0 .8.4.8H6v3c0 1.1.9 2 2 2h1v3h7v-4.7c2.4-1.1 4-3.5 4-6.3 0-3.9-3.1-7-7-7m1 12h-2v-2h2v1m0-3h-2V5h2v6Z" transform="matrix(1.5 0 0 1.5 288 144)" id="mdi-head-alert" fill="#555"/><path d="M13 3C9.2 3 6.2 5.9 6 9.7l-1.9 2.5c-.2.3 0 .8.4.8H6v3c0 1.1.9 2 2 2h1v3h7v-4.7c2.4-1.1 4-3.5 4-6.3 0-3.9-3.1-7-7-7m1 12h-2v-2h2v1m0-3h-2V5h2v6Z" transform="matrix(1.5 0 0 1.5 324 144)" id="mdi-head-alert" fill="#fff"/><path d="M13 3c3.9 0 7 3.1 7 7 0 2.8-1.6 5.2-4 6.3V21H9v-3H8c-1.1 0-2-.9-2-2v-3H4.5c-.4 0-.7-.5-.4-.8L6 9.7C6.2 5.9 9.2 3 13 3m0-2C8.4 1 4.6 4.4 4.1 8.9L2.5 11c-.6.8-.6 1.8-.2 2.6.4.7 1 1.2 1.7 1.3V16c0 1.9 1.3 3.4 3 3.9V23h11v-5.5c2.5-1.7 4-4.4 4-7.5 0-5-4-9-9-9m1 14h-2v-2h2v2m0-4h-2V5h2" transform="matrix(1.5 0 0 1.5 360 144)" id="mdi-head-alert-outline" fill="#555"/><path d="M13 3c3.9 0 7 3.1 7 7 0 2.8-1.6 5.2-4 6.3V21H9v-3H8c-1.1 0-2-.9-2-2v-3H4.5c-.4 0-.7-.5-.4-.8L6 9.7C6.2 5.9 9.2 3 13 3m0-2C8.4 1 4.6 4.4 4.1 8.9L2.5 11c-.6.8-.6 1.8-.2 2.6.4.7 1 1.2 1.7 1.3V16c0 1.9 1.3 3.4 3 3.9V23h11v-5.5c2.5-1.7 4-4.4 4-7.5 0-5-4-9-9-9m1 14h-2v-2h2v2m0-4h-2V5h2" transform="matrix(1.5 0 0 1.5 396 144)" id="mdi-head-alert-outline" fill="#fff"/><path d="M13 3C9.23 3 6.19 5.95 6 9.66l-1.92 2.53c-.24.31 0 .81.42.81H6v3c0 1.11.89 2 2 2h1v3h7v-4.69c2.37-1.12 4-3.51 4-6.31 0-3.86-3.12-7-7-7m-.53 10L9 9.5l1.4-1.41 2.07 2.08L16.6 6 18 7.41 12.47 13Z" transform="matrix(1.5 0 0 1.5 432 144)" id="mdi-head-check" fill="#555"/><path d="M13 3C9.23 3 6.19 5.95 6 9.66l-1.92 2.53c-.24.31 0 .81.42.81H6v3c0 1.11.89 2 2 2h1v3h7v-4.69c2.37-1.12 4-3.51 4-6.31 0-3.86-3.12-7-7-7m-.53 10L9 9.5l1.4-1.41 2.07 2.08L16.6 6 18 7.41 12.47 13Z" transform="matrix(1.5 0 0 1.5 468 144)" id="mdi-head-check" fill="#fff"/><path d="M13 3c3.88 0 7 3.14 7 7 0 2.8-1.63 5.19-4 6.31V21H9v-3H8c-1.11 0-2-.89-2-2v-3H4.5c-.42 0-.66-.5-.42-.81L6 9.66A7.003 7.003 0 0 1 13 3m0-2C8.42 1 4.61 4.43 4.06 8.91L2.5 11c-.58.72-.68 1.72-.26 2.59.36.72 1 1.21 1.76 1.36V16c0 1.86 1.28 3.43 3 3.87V23h11v-5.53c2.5-1.64 4-4.41 4-7.47 0-4.96-4.04-9-9-9m-.53 12L9 9.5l1.4-1.41 2.07 2.08L16.6 6 18 7.41 12.47 13Z" transform="matrix(1.5 0 0 1.5 504 144)" id="mdi-head-check-outline" fill="#555"/><path d="M13 3c3.88 0 7 3.14 7 7 0 2.8-1.63 5.19-4 6.31V21H9v-3H8c-1.11 0-2-.89-2-2v-3H4.5c-.42 0-.66-.5-.42-.81L6 9.66A7.003 7.003 0 0 1 13 3m0-2C8.42 1 4.61 4.43 4.06 8.91L2.5 11c-.58.72-.68 1.72-.26 2.59.36.72 1 1.21 1.76 1.36V16c0 1.86 1.28 3.43 3 3.87V23h11v-5.53c2.5-1.64 4-4.41 4-7.47 0-4.96-4.04-9-9-9m-.53 12L9 9.5l1.4-1.41 2.07 2.08L16.6 6 18 7.41 12.47 13Z" transform="matrix(1.5 0 0 1.5 540 144)" id="mdi-head-check-outline" fill="#fff"/><path d="M13 8.58c.78 0 1.44.61 1.44 1.42s-.66 1.44-1.44 1.44-1.42-.66-1.42-1.44.61-1.42 1.42-1.42M13 3c3.88 0 7 3.14 7 7 0 2.8-1.63 5.19-4 6.31V21H9v-3H8c-1.11 0-2-.89-2-2v-3H4.5c-.42 0-.66-.5-.42-.81L6 9.66A7.003 7.003 0 0 1 13 3m3 7c0-.16 0-.25-.06-.39l.89-.66c.05-.04.09-.18.05-.28l-.8-1.36c-.05-.09-.19-.14-.28-.09l-.99.42c-.18-.19-.42-.33-.65-.42L14 6.19c-.03-.14-.08-.19-.22-.19h-1.59c-.1 0-.19.05-.19.19l-.14 1.03c-.23.09-.47.23-.66.42l-1.03-.42c-.09-.05-.17 0-.23.09l-.8 1.36c-.05.14-.05.24.05.28l.84.66c0 .14-.03.28-.03.39 0 .13.03.27.03.41l-.84.65c-.1.05-.1.14-.05.24l.8 1.4c.06.1.14.1.23.1l.99-.43c.23.19.42.29.7.38l.14 1.08c0 .09.09.17.19.17h1.59c.14 0 .19-.08.22-.17l.16-1.08c.23-.09.47-.19.65-.37l.99.42c.09 0 .23 0 .28-.1l.8-1.4c.04-.1 0-.19-.05-.24l-.83-.65V10Z" transform="matrix(1.5 0 0 1.5 576 144)" id="mdi-head-cog" fill="#555"/><path d="M13 8.58c.78 0 1.44.61 1.44 1.42s-.66 1.44-1.44 1.44-1.42-.66-1.42-1.44.61-1.42 1.42-1.42M13 3c3.88 0 7 3.14 7 7 0 2.8-1.63 5.19-4 6.31V21H9v-3H8c-1.11 0-2-.89-2-2v-3H4.5c-.42 0-.66-.5-.42-.81L6 9.66A7.003 7.003 0 0 1 13 3m3 7c0-.16 0-.25-.06-.39l.89-.66c.05-.04.09-.18.05-.28l-.8-1.36c-.05-.09-.19-.14-.28-.09l-.99.42c-.18-.19-.42-.33-.65-.42L14 6.19c-.03-.14-.08-.19-.22-.19h-1.59c-.1 0-.19.05-.19.19l-.14 1.03c-.23.09-.47.23-.66.42l-1.03-.42c-.09-.05-.17 0-.23.09l-.8 1.36c-.05.14-.05.24.05.28l.84.66c0 .14-.03.28-.03.39 0 .13.03.27.03.41l-.84.65c-.1.05-.1.14-.05.24l.8 1.4c.06.1.14.1.23.1l.99-.43c.23.19.42.29.7.38l.14 1.08c0 .09.09.17.19.17h1.59c.14 0 .19-.08.22-.17l.16-1.08c.23-.09.47-.19.65-.37l.99.42c.09 0 .23 0 .28-.1l.8-1.4c.04-.1 0-.19-.05-.24l-.83-.65V10Z" transform="matrix(1.5 0 0 1.5 612 144)" id="mdi-head-cog" fill="#fff"/><path d="M13 3c3.88 0 7 3.14 7 7 0 2.8-1.63 5.19-4 6.31V21H9v-3H8c-1.11 0-2-.89-2-2v-3H4.5c-.42 0-.66-.5-.42-.81L6 9.66A7.003 7.003 0 0 1 13 3m0-2C8.42 1 4.61 4.43 4.06 8.91L2.5 11c-.58.72-.68 1.72-.26 2.59.36.72 1 1.21 1.76 1.36V16c0 1.86 1.28 3.43 3 3.87V23h11v-5.53c2.5-1.64 4-4.41 4-7.47 0-4.96-4.04-9-9-9m3.1 8.42V9c0-.15 0-.24-.06-.38l.89-.66c.07-.04.07-.18.07-.28l-.82-1.36c-.05-.09-.18-.14-.28-.09l-.99.42c-.18-.19-.41-.33-.65-.42L14.1 5.2c-.03-.14-.1-.2-.22-.2h-1.59c-.1 0-.19.06-.19.2l-.14 1.03c-.23.09-.46.23-.66.42l-1.03-.42c-.09-.05-.17 0-.23.09l-.8 1.36c-.05.14-.05.24.05.28l.84.66c0 .14-.03.28-.03.38 0 .14.03.28.03.42l-.84.65c-.1.05-.1.14-.05.24l.8 1.4c.06.1.14.1.23.1l.99-.43c.24.19.42.29.7.38l.14 1.08c0 .09.09.16.19.16h1.59c.12 0 .19-.07.22-.16l.16-1.08c.24-.09.47-.19.65-.37l.99.42c.1 0 .23 0 .28-.1l.82-1.4c0-.1 0-.19-.07-.24l-.83-.65m-3 1.03c-.78 0-1.42-.66-1.42-1.45s.61-1.41 1.42-1.41c.78 0 1.44.61 1.44 1.41s-.66 1.45-1.44 1.45Z" transform="matrix(1.5 0 0 1.5 648 144)" id="mdi-head-cog-outline" fill="#555"/><path d="M13 3c3.88 0 7 3.14 7 7 0 2.8-1.63 5.19-4 6.31V21H9v-3H8c-1.11 0-2-.89-2-2v-3H4.5c-.42 0-.66-.5-.42-.81L6 9.66A7.003 7.003 0 0 1 13 3m0-2C8.42 1 4.61 4.43 4.06 8.91L2.5 11c-.58.72-.68 1.72-.26 2.59.36.72 1 1.21 1.76 1.36V16c0 1.86 1.28 3.43 3 3.87V23h11v-5.53c2.5-1.64 4-4.41 4-7.47 0-4.96-4.04-9-9-9m3.1 8.42V9c0-.15 0-.24-.06-.38l.89-.66c.07-.04.07-.18.07-.28l-.82-1.36c-.05-.09-.18-.14-.28-.09l-.99.42c-.18-.19-.41-.33-.65-.42L14.1 5.2c-.03-.14-.1-.2-.22-.2h-1.59c-.1 0-.19.06-.19.2l-.14 1.03c-.23.09-.46.23-.66.42l-1.03-.42c-.09-.05-.17 0-.23.09l-.8 1.36c-.05.14-.05.24.05.28l.84.66c0 .14-.03.28-.03.38 0 .14.03.28.03.42l-.84.65c-.1.05-.1.14-.05.24l.8 1.4c.06.1.14.1.23.1l.99-.43c.24.19.42.29.7.38l.14 1.08c0 .09.09.16.19.16h1.59c.12 0 .19-.07.22-.16l.16-1.08c.24-.09.47-.19.65-.37l.99.42c.1 0 .23 0 .28-.1l.82-1.4c0-.1 0-.19-.07-.24l-.83-.65m-3 1.03c-.78 0-1.42-.66-1.42-1.45s.61-1.41 1.42-1.41c.78 0 1.44.61 1.44 1.41s-.66 1.45-1.44 1.45Z" transform="matrix(1.5 0 0 1.5 684 144)" id="mdi-head-cog-outline" fill="#fff"/><path d="M13 3C9.23 3 6.19 5.95 6 9.66l-1.92 2.53c-.24.31 0 .81.42.81H6v3c0 1.11.89 2 2 2h1v3h7v-4.69c2.37-1.12 4-3.51 4-6.31 0-3.86-3.12-7-7-7m-3 8c-.55 0-1-.45-1-1s.45-1 1-1 1 .45 1 1-.45 1-1 1m3 0c-.55 0-1-.45-1-1s.45-1 1-1 1 .45 1 1-.45 1-1 1m3 0c-.55 0-1-.45-1-1s.45-1 1-1 1 .45 1 1-.45 1-1 1Z" transform="matrix(1.5 0 0 1.5 0 180)" id="mdi-head-dots-horizontal" fill="#555"/><path d="M13 3C9.23 3 6.19 5.95 6 9.66l-1.92 2.53c-.24.31 0 .81.42.81H6v3c0 1.11.89 2 2 2h1v3h7v-4.69c2.37-1.12 4-3.51 4-6.31 0-3.86-3.12-7-7-7m-3 8c-.55 0-1-.45-1-1s.45-1 1-1 1 .45 1 1-.45 1-1 1m3 0c-.55 0-1-.45-1-1s.45-1 1-1 1 .45 1 1-.45 1-1 1m3 0c-.55 0-1-.45-1-1s.45-1 1-1 1 .45 1 1-.45 1-1 1Z" transform="matrix(1.5 0 0 1.5 36 180)" id="mdi-head-dots-horizontal" fill="#fff"/><path d="M13 3c3.9 0 7 3.1 7 7 0 2.8-1.6 5.2-4 6.3V21H9v-3H8c-1.1 0-2-.9-2-2v-3H4.5c-.4 0-.7-.5-.4-.8L6 9.7C6.2 5.9 9.2 3 13 3m0-2C8.4 1 4.6 4.4 4.1 8.9L2.5 11c-.6.8-.6 1.8-.2 2.6.4.7 1 1.2 1.7 1.3V16c0 1.9 1.3 3.4 3 3.9V23h11v-5.5c2.5-1.7 4-4.4 4-7.5 0-5-4-9-9-9m-3 9c-.6 0-1-.4-1-1s.4-1 1-1 1 .4 1 1-.4 1-1 1m3 0c-.6 0-1-.4-1-1s.4-1 1-1 1 .4 1 1-.4 1-1 1m3 0c-.5 0-1-.4-1-1s.5-1 1-1 1 .4 1 1-.5 1-1 1Z" transform="matrix(1.5 0 0 1.5 72 180)" id="mdi-head-dots-horizontal-outline" fill="#555"/><path d="M13 3c3.9 0 7 3.1 7 7 0 2.8-1.6 5.2-4 6.3V21H9v-3H8c-1.1 0-2-.9-2-2v-3H4.5c-.4 0-.7-.5-.4-.8L6 9.7C6.2 5.9 9.2 3 13 3m0-2C8.4 1 4.6 4.4 4.1 8.9L2.5 11c-.6.8-.6 1.8-.2 2.6.4.7 1 1.2 1.7 1.3V16c0 1.9 1.3 3.4 3 3.9V23h11v-5.5c2.5-1.7 4-4.4 4-7.5 0-5-4-9-9-9m-3 9c-.6 0-1-.4-1-1s.4-1 1-1 1 .4 1 1-.4 1-1 1m3 0c-.6 0-1-.4-1-1s.4-1 1-1 1 .4 1 1-.4 1-1 1m3 0c-.5 0-1-.4-1-1s.5-1 1-1 1 .4 1 1-.5 1-1 1Z" transform="matrix(1.5 0 0 1.5 108 180)" id="mdi-head-dots-horizontal-outline" fill="#fff"/><path d="M13 3C9.2 3 6.2 6 6 9.7l-1.9 2.5c-.2.3 0 .8.4.8H6v3c0 1.1.9 2 2 2h1v3h7v-4.7c2.4-1.1 4-3.5 4-6.3 0-3.9-3.1-7-7-7m2 6-3.1 6 .6-4h-2l2-5H15l-1.5 3H15Z" transform="matrix(1.5 0 0 1.5 144 180)" id="mdi-head-flash" fill="#555"/><path d="M13 3C9.2 3 6.2 6 6 9.7l-1.9 2.5c-.2.3 0 .8.4.8H6v3c0 1.1.9 2 2 2h1v3h7v-4.7c2.4-1.1 4-3.5 4-6.3 0-3.9-3.1-7-7-7m2 6-3.1 6 .6-4h-2l2-5H15l-1.5 3H15Z" transform="matrix(1.5 0 0 1.5 180 180)" id="mdi-head-flash" fill="#fff"/><path d="M13 3c3.9 0 7 3.1 7 7 0 2.8-1.6 5.2-4 6.3V21H9v-3H8c-1.1 0-2-.9-2-2v-3H4.5c-.4 0-.7-.5-.4-.8L6 9.7C6.2 5.9 9.2 3 13 3m0-2C8.4 1 4.6 4.4 4.1 8.9L2.5 11c-.6.8-.6 1.8-.2 2.6.4.7 1 1.2 1.7 1.3V16c0 1.9 1.3 3.4 3 3.9V23h11v-5.5c2.5-1.7 4-4.4 4-7.5 0-5-4-9-9-9m2 8-3.1 6 .6-4h-2.1l2.1-5H15l-1.5 3H15Z" transform="matrix(1.5 0 0 1.5 216 180)" id="mdi-head-flash-outline" fill="#555"/><path d="M13 3c3.9 0 7 3.1 7 7 0 2.8-1.6 5.2-4 6.3V21H9v-3H8c-1.1 0-2-.9-2-2v-3H4.5c-.4 0-.7-.5-.4-.8L6 9.7C6.2 5.9 9.2 3 13 3m0-2C8.4 1 4.6 4.4 4.1 8.9L2.5 11c-.6.8-.6 1.8-.2 2.6.4.7 1 1.2 1.7 1.3V16c0 1.9 1.3 3.4 3 3.9V23h11v-5.5c2.5-1.7 4-4.4 4-7.5 0-5-4-9-9-9m2 8-3.1 6 .6-4h-2.1l2.1-5H15l-1.5 3H15Z" transform="matrix(1.5 0 0 1.5 252 180)" id="mdi-head-flash-outline" fill="#fff"/><path d="M13 3C9.23 3 6.19 5.95 6 9.66l-1.92 2.53c-.24.31 0 .81.42.81H6v3c0 1.11.89 2 2 2h1v3h7v-4.69c2.37-1.12 4-3.51 4-6.31 0-3.86-3.12-7-7-7m4 5.83c0 1.54-1.36 2.77-3.42 4.64L13 14l-.58-.53C10.36 11.6 9 10.37 9 8.83c0-1.2.96-2.19 2.16-2.2h.04c.69 0 1.35.31 1.8.83.45-.52 1.11-.83 1.8-.83 1.2-.01 2.2.96 2.2 2.16v.04Z" transform="matrix(1.5 0 0 1.5 288 180)" id="mdi-head-heart" fill="#555"/><path d="M13 3C9.23 3 6.19 5.95 6 9.66l-1.92 2.53c-.24.31 0 .81.42.81H6v3c0 1.11.89 2 2 2h1v3h7v-4.69c2.37-1.12 4-3.51 4-6.31 0-3.86-3.12-7-7-7m4 5.83c0 1.54-1.36 2.77-3.42 4.64L13 14l-.58-.53C10.36 11.6 9 10.37 9 8.83c0-1.2.96-2.19 2.16-2.2h.04c.69 0 1.35.31 1.8.83.45-.52 1.11-.83 1.8-.83 1.2-.01 2.2.96 2.2 2.16v.04Z" transform="matrix(1.5 0 0 1.5 324 180)" id="mdi-head-heart" fill="#fff"/><path d="M13 3c3.88 0 7 3.14 7 7 0 2.8-1.63 5.19-4 6.31V21H9v-3H8c-1.11 0-2-.89-2-2v-3H4.5c-.42 0-.66-.5-.42-.81L6 9.66A7.003 7.003 0 0 1 13 3m0-2C8.41 1 4.61 4.42 4.06 8.9L2.5 11h-.03l-.02.03c-.55.76-.62 1.76-.19 2.59.36.69 1 1.17 1.74 1.32V16c0 1.85 1.28 3.42 3 3.87V23h11v-5.5c2.5-1.67 4-4.44 4-7.5 0-4.97-4.04-9-9-9m4 7.83c0 1.54-1.36 2.77-3.42 4.64L13 14l-.58-.53C10.36 11.6 9 10.37 9 8.83c0-1.2.96-2.19 2.16-2.2h.04c.69 0 1.35.31 1.8.83.45-.52 1.11-.83 1.8-.83 1.2-.01 2.2.96 2.2 2.16v.04Z" transform="matrix(1.5 0 0 1.5 360 180)" id="mdi-head-heart-outline" fill="#555"/><path d="M13 3c3.88 0 7 3.14 7 7 0 2.8-1.63 5.19-4 6.31V21H9v-3H8c-1.11 0-2-.89-2-2v-3H4.5c-.42 0-.66-.5-.42-.81L6 9.66A7.003 7.003 0 0 1 13 3m0-2C8.41 1 4.61 4.42 4.06 8.9L2.5 11h-.03l-.02.03c-.55.76-.62 1.76-.19 2.59.36.69 1 1.17 1.74 1.32V16c0 1.85 1.28 3.42 3 3.87V23h11v-5.5c2.5-1.67 4-4.44 4-7.5 0-4.97-4.04-9-9-9m4 7.83c0 1.54-1.36 2.77-3.42 4.64L13 14l-.58-.53C10.36 11.6 9 10.37 9 8.83c0-1.2.96-2.19 2.16-2.2h.04c.69 0 1.35.31 1.8.83.45-.52 1.11-.83 1.8-.83 1.2-.01 2.2.96 2.2 2.16v.04Z" transform="matrix(1.5 0 0 1.5 396 180)" id="mdi-head-heart-outline" fill="#fff"/><path d="M13 3C9.23 3 6.19 5.95 6 9.66l-1.92 2.53c-.24.31 0 .81.42.81H6v3c0 1.11.89 2 2 2h1v3h7v-4.69c2.37-1.12 4-3.51 4-6.31 0-3.86-3.12-7-7-7m1 11h-2v-1h2v1m1.6-4.5a3 3 0 0 1-1.1 1.08V12h-3v-1.42c-1.43-.83-1.93-2.66-1.1-4.08s2.67-1.94 4.1-1.12 1.93 2.67 1.1 4.12Z" transform="matrix(1.5 0 0 1.5 432 180)" id="mdi-head-lightbulb" fill="#555"/><path d="M13 3C9.23 3 6.19 5.95 6 9.66l-1.92 2.53c-.24.31 0 .81.42.81H6v3c0 1.11.89 2 2 2h1v3h7v-4.69c2.37-1.12 4-3.51 4-6.31 0-3.86-3.12-7-7-7m1 11h-2v-1h2v1m1.6-4.5a3 3 0 0 1-1.1 1.08V12h-3v-1.42c-1.43-.83-1.93-2.66-1.1-4.08s2.67-1.94 4.1-1.12 1.93 2.67 1.1 4.12Z" transform="matrix(1.5 0 0 1.5 468 180)" id="mdi-head-lightbulb" fill="#fff"/><path d="M13 3c3.9 0 7 3.1 7 7 0 2.8-1.6 5.2-4 6.3V21H9v-3H8c-1.1 0-2-.9-2-2v-3H4.5c-.4 0-.7-.5-.4-.8L6 9.7C6.2 5.9 9.2 3 13 3m0-2C8.4 1 4.6 4.4 4.1 8.9L2.5 11c-.6.8-.6 1.8-.2 2.6.4.7 1 1.2 1.7 1.3V16c0 1.9 1.3 3.4 3 3.9V23h11v-5.5c2.5-1.7 4-4.4 4-7.5 0-5-4-9-9-9m1 13h-2v-1h2v1m1.6-4.5c-.3.4-.6.8-1.1 1.1V12h-3v-1.4c-1.4-.8-1.9-2.7-1.1-4.1s2.7-1.9 4.1-1.1 1.9 2.7 1.1 4.1Z" transform="matrix(1.5 0 0 1.5 504 180)" id="mdi-head-lightbulb-outline" fill="#555"/><path d="M13 3c3.9 0 7 3.1 7 7 0 2.8-1.6 5.2-4 6.3V21H9v-3H8c-1.1 0-2-.9-2-2v-3H4.5c-.4 0-.7-.5-.4-.8L6 9.7C6.2 5.9 9.2 3 13 3m0-2C8.4 1 4.6 4.4 4.1 8.9L2.5 11c-.6.8-.6 1.8-.2 2.6.4.7 1 1.2 1.7 1.3V16c0 1.9 1.3 3.4 3 3.9V23h11v-5.5c2.5-1.7 4-4.4 4-7.5 0-5-4-9-9-9m1 13h-2v-1h2v1m1.6-4.5c-.3.4-.6.8-1.1 1.1V12h-3v-1.4c-1.4-.8-1.9-2.7-1.1-4.1s2.7-1.9 4.1-1.1 1.9 2.7 1.1 4.1Z" transform="matrix(1.5 0 0 1.5 540 180)" id="mdi-head-lightbulb-outline" fill="#fff"/><path d="M13 3C9.2 3 6.2 5.9 6 9.7l-1.9 2.5c-.2.3 0 .8.4.8H6v3c0 1.1.9 2 2 2h1v3h7v-4.7c2.4-1.1 4-3.5 4-6.3 0-3.9-3.1-7-7-7m4 7H9V8h8v2Z" transform="matrix(1.5 0 0 1.5 576 180)" id="mdi-head-minus" fill="#555"/><path d="M13 3C9.2 3 6.2 5.9 6 9.7l-1.9 2.5c-.2.3 0 .8.4.8H6v3c0 1.1.9 2 2 2h1v3h7v-4.7c2.4-1.1 4-3.5 4-6.3 0-3.9-3.1-7-7-7m4 7H9V8h8v2Z" transform="matrix(1.5 0 0 1.5 612 180)" id="mdi-head-minus" fill="#fff"/><path d="M13 3c3.9 0 7 3.1 7 7 0 2.8-1.6 5.2-4 6.3V21H9v-3H8c-1.1 0-2-.9-2-2v-3H4.5c-.4 0-.7-.5-.4-.8L6 9.7C6.2 5.9 9.2 3 13 3m0-2C8.4 1 4.6 4.4 4.1 8.9L2.5 11c-.6.7-.7 1.7-.3 2.6.4.7 1 1.2 1.8 1.4v1c0 1.9 1.3 3.4 3 3.9V23h11v-5.5c2.5-1.6 4-4.4 4-7.5 0-5-4-9-9-9m4 9H9V8h8v2Z" transform="matrix(1.5 0 0 1.5 648 180)" id="mdi-head-minus-outline" fill="#555"/><path d="M13 3c3.9 0 7 3.1 7 7 0 2.8-1.6 5.2-4 6.3V21H9v-3H8c-1.1 0-2-.9-2-2v-3H4.5c-.4 0-.7-.5-.4-.8L6 9.7C6.2 5.9 9.2 3 13 3m0-2C8.4 1 4.6 4.4 4.1 8.9L2.5 11c-.6.7-.7 1.7-.3 2.6.4.7 1 1.2 1.8 1.4v1c0 1.9 1.3 3.4 3 3.9V23h11v-5.5c2.5-1.6 4-4.4 4-7.5 0-5-4-9-9-9m4 9H9V8h8v2Z" transform="matrix(1.5 0 0 1.5 684 180)" id="mdi-head-minus-outline" fill="#fff"/><path d="M13 1C8.4 1 4.6 4.4 4.1 8.9L2.5 11c-.5.8-.6 1.8-.2 2.6.4.7 1 1.2 1.7 1.3V16c0 1.8 1.3 3.4 3 3.9V23h11v-5.5c2.5-1.7 4-4.4 4-7.5 0-5-4-9-9-9m3 15.3V21H9v-3H8c-1.1 0-2-.9-2-2v-3H4.5c-.4 0-.7-.5-.4-.8L6 9.7C6.2 6 9.2 3 13 3c3.9 0 7 3.1 7 7 0 2.8-1.6 5.2-4 6.3Z" transform="matrix(1.5 0 0 1.5 0 216)" id="mdi-head-outline" fill="#555"/><path d="M13 1C8.4 1 4.6 4.4 4.1 8.9L2.5 11c-.5.8-.6 1.8-.2 2.6.4.7 1 1.2 1.7 1.3V16c0 1.8 1.3 3.4 3 3.9V23h11v-5.5c2.5-1.7 4-4.4 4-7.5 0-5-4-9-9-9m3 15.3V21H9v-3H8c-1.1 0-2-.9-2-2v-3H4.5c-.4 0-.7-.5-.4-.8L6 9.7C6.2 6 9.2 3 13 3c3.9 0 7 3.1 7 7 0 2.8-1.6 5.2-4 6.3Z" transform="matrix(1.5 0 0 1.5 36 216)" id="mdi-head-outline" fill="#fff"/><path d="M13 3C9.2 3 6.2 5.9 6 9.7l-1.9 2.5c-.2.3 0 .8.4.8H6v3c0 1.1.9 2 2 2h1v3h7v-4.7c2.4-1.1 4-3.5 4-6.3 0-3.9-3.1-7-7-7m4 7h-3v3h-2v-3H9V8h3V5h2v3h3v2Z" transform="matrix(1.5 0 0 1.5 72 216)" id="mdi-head-plus" fill="#555"/><path d="M13 3C9.2 3 6.2 5.9 6 9.7l-1.9 2.5c-.2.3 0 .8.4.8H6v3c0 1.1.9 2 2 2h1v3h7v-4.7c2.4-1.1 4-3.5 4-6.3 0-3.9-3.1-7-7-7m4 7h-3v3h-2v-3H9V8h3V5h2v3h3v2Z" transform="matrix(1.5 0 0 1.5 108 216)" id="mdi-head-plus" fill="#fff"/><path d="M13 3c3.9 0 7 3.1 7 7 0 2.8-1.6 5.2-4 6.3V21H9v-3H8c-1.1 0-2-.9-2-2v-3H4.5c-.4 0-.7-.5-.4-.8L6 9.7C6.2 5.9 9.2 3 13 3m0-2C8.4 1 4.6 4.4 4.1 8.9L2.5 11c-.6.7-.7 1.7-.3 2.6.4.7 1 1.2 1.8 1.4v1c0 1.9 1.3 3.4 3 3.9V23h11v-5.5c2.5-1.6 4-4.4 4-7.5 0-5-4-9-9-9m4 9h-3v3h-2v-3H9V8h3V5h2v3h3v2Z" transform="matrix(1.5 0 0 1.5 144 216)" id="mdi-head-plus-outline" fill="#555"/><path d="M13 3c3.9 0 7 3.1 7 7 0 2.8-1.6 5.2-4 6.3V21H9v-3H8c-1.1 0-2-.9-2-2v-3H4.5c-.4 0-.7-.5-.4-.8L6 9.7C6.2 5.9 9.2 3 13 3m0-2C8.4 1 4.6 4.4 4.1 8.9L2.5 11c-.6.7-.7 1.7-.3 2.6.4.7 1 1.2 1.8 1.4v1c0 1.9 1.3 3.4 3 3.9V23h11v-5.5c2.5-1.6 4-4.4 4-7.5 0-5-4-9-9-9m4 9h-3v3h-2v-3H9V8h3V5h2v3h3v2Z" transform="matrix(1.5 0 0 1.5 180 216)" id="mdi-head-plus-outline" fill="#fff"/><path d="M13 3C9.23 3 6.19 5.95 6 9.66l-1.92 2.53c-.24.31 0 .81.42.81H6v3c0 1.11.89 2 2 2h1v3h7v-4.69c2.37-1.12 4-3.51 4-6.31 0-3.86-3.12-7-7-7m1 11h-2v-2h2v2m1.75-5.19c-.29.4-.66.69-1.11.93-.25.16-.42.33-.51.52-.09.18-.13.43-.13.74h-2c0-.5.11-.92.31-1.18.19-.27.54-.57 1.05-.91.26-.16.47-.36.61-.59.16-.23.23-.5.23-.82 0-.3-.08-.56-.26-.75-.18-.18-.44-.28-.75-.28a1 1 0 0 0-.66.23c-.18.16-.27.39-.28.69h-1.93l-.01-.03c-.01-.79.25-1.36.77-1.77.54-.39 1.24-.59 2.11-.59.93 0 1.66.23 2.19.68.54.45.81 1.06.81 1.82 0 .5-.15.91-.44 1.31Z" transform="matrix(1.5 0 0 1.5 216 216)" id="mdi-head-question" fill="#555"/><path d="M13 3C9.23 3 6.19 5.95 6 9.66l-1.92 2.53c-.24.31 0 .81.42.81H6v3c0 1.11.89 2 2 2h1v3h7v-4.69c2.37-1.12 4-3.51 4-6.31 0-3.86-3.12-7-7-7m1 11h-2v-2h2v2m1.75-5.19c-.29.4-.66.69-1.11.93-.25.16-.42.33-.51.52-.09.18-.13.43-.13.74h-2c0-.5.11-.92.31-1.18.19-.27.54-.57 1.05-.91.26-.16.47-.36.61-.59.16-.23.23-.5.23-.82 0-.3-.08-.56-.26-.75-.18-.18-.44-.28-.75-.28a1 1 0 0 0-.66.23c-.18.16-.27.39-.28.69h-1.93l-.01-.03c-.01-.79.25-1.36.77-1.77.54-.39 1.24-.59 2.11-.59.93 0 1.66.23 2.19.68.54.45.81 1.06.81 1.82 0 .5-.15.91-.44 1.31Z" transform="matrix(1.5 0 0 1.5 252 216)" id="mdi-head-question" fill="#fff"/><path d="M13 3c3.88 0 7 3.14 7 7 0 2.8-1.63 5.19-4 6.31V21H9v-3H8c-1.11 0-2-.89-2-2v-3H4.5c-.42 0-.66-.5-.42-.81L6 9.66A7.003 7.003 0 0 1 13 3m-2.68 4.39h1.93c.01-.3.1-.53.28-.69a1 1 0 0 1 .66-.23c.31 0 .57.1.75.28.18.19.26.45.26.75 0 .32-.07.59-.23.82-.14.23-.35.43-.61.59-.51.34-.86.64-1.05.91-.2.26-.31.68-.31 1.18h2c0-.31.04-.56.13-.74.09-.19.26-.36.51-.52.45-.24.82-.53 1.11-.93.29-.4.44-.81.44-1.31 0-.76-.27-1.37-.81-1.82-.53-.45-1.26-.68-2.19-.68-.87 0-1.57.2-2.11.59-.52.41-.78.98-.77 1.77l.01.03M12 14h2v-2h-2v2m1-13C8.41 1 4.61 4.42 4.06 8.9L2.5 11h-.03l-.02.03c-.55.76-.62 1.76-.19 2.59.36.69 1 1.17 1.74 1.32V16c0 1.85 1.28 3.42 3 3.87V23h11v-5.5c2.5-1.67 4-4.44 4-7.5 0-4.97-4.04-9-9-9Z" transform="matrix(1.5 0 0 1.5 288 216)" id="mdi-head-question-outline" fill="#555"/><path d="M13 3c3.88 0 7 3.14 7 7 0 2.8-1.63 5.19-4 6.31V21H9v-3H8c-1.11 0-2-.89-2-2v-3H4.5c-.42 0-.66-.5-.42-.81L6 9.66A7.003 7.003 0 0 1 13 3m-2.68 4.39h1.93c.01-.3.1-.53.28-.69a1 1 0 0 1 .66-.23c.31 0 .57.1.75.28.18.19.26.45.26.75 0 .32-.07.59-.23.82-.14.23-.35.43-.61.59-.51.34-.86.64-1.05.91-.2.26-.31.68-.31 1.18h2c0-.31.04-.56.13-.74.09-.19.26-.36.51-.52.45-.24.82-.53 1.11-.93.29-.4.44-.81.44-1.31 0-.76-.27-1.37-.81-1.82-.53-.45-1.26-.68-2.19-.68-.87 0-1.57.2-2.11.59-.52.41-.78.98-.77 1.77l.01.03M12 14h2v-2h-2v2m1-13C8.41 1 4.61 4.42 4.06 8.9L2.5 11h-.03l-.02.03c-.55.76-.62 1.76-.19 2.59.36.69 1 1.17 1.74 1.32V16c0 1.85 1.28 3.42 3 3.87V23h11v-5.5c2.5-1.67 4-4.44 4-7.5 0-4.97-4.04-9-9-9Z" transform="matrix(1.5 0 0 1.5 324 216)" id="mdi-head-question-outline" fill="#fff"/><path d="M13 3C9.2 3 6.2 5.9 6 9.7l-1.9 2.5c-.2.3 0 .8.4.8H6v3c0 1.1.9 2 2 2h1v3h7v-4.7c2.4-1.1 4-3.5 4-6.3 0-3.9-3.1-7-7-7m2.1 9.5L13 10.4l-2.1 2.1-1.4-1.4L11.6 9 9.5 6.9l1.4-1.4L13 7.6l2.1-2.1 1.4 1.4L14.4 9l2.1 2.1-1.4 1.4Z" transform="matrix(1.5 0 0 1.5 360 216)" id="mdi-head-remove" fill="#555"/><path d="M13 3C9.2 3 6.2 5.9 6 9.7l-1.9 2.5c-.2.3 0 .8.4.8H6v3c0 1.1.9 2 2 2h1v3h7v-4.7c2.4-1.1 4-3.5 4-6.3 0-3.9-3.1-7-7-7m2.1 9.5L13 10.4l-2.1 2.1-1.4-1.4L11.6 9 9.5 6.9l1.4-1.4L13 7.6l2.1-2.1 1.4 1.4L14.4 9l2.1 2.1-1.4 1.4Z" transform="matrix(1.5 0 0 1.5 396 216)" id="mdi-head-remove" fill="#fff"/><path d="M13 3c3.9 0 7 3.1 7 7 0 2.8-1.6 5.2-4 6.3V21H9v-3H8c-1.1 0-2-.9-2-2v-3H4.5c-.4 0-.7-.5-.4-.8L6 9.7C6.2 5.9 9.2 3 13 3m0-2C8.4 1 4.6 4.4 4.1 8.9L2.5 11c-.6.7-.7 1.7-.3 2.6.4.7 1 1.2 1.8 1.4v1c0 1.9 1.3 3.4 3 3.9V23h11v-5.5c2.5-1.6 4-4.4 4-7.5 0-5-4-9-9-9m3.5 5.9L14.4 9l2.1 2.1-1.4 1.4-2.1-2.1-2.1 2.1-1.4-1.4L11.6 9 9.5 6.9l1.4-1.4L13 7.6l2.1-2.1 1.4 1.4Z" transform="matrix(1.5 0 0 1.5 432 216)" id="mdi-head-remove-outline" fill="#555"/><path d="M13 3c3.9 0 7 3.1 7 7 0 2.8-1.6 5.2-4 6.3V21H9v-3H8c-1.1 0-2-.9-2-2v-3H4.5c-.4 0-.7-.5-.4-.8L6 9.7C6.2 5.9 9.2 3 13 3m0-2C8.4 1 4.6 4.4 4.1 8.9L2.5 11c-.6.7-.7 1.7-.3 2.6.4.7 1 1.2 1.8 1.4v1c0 1.9 1.3 3.4 3 3.9V23h11v-5.5c2.5-1.6 4-4.4 4-7.5 0-5-4-9-9-9m3.5 5.9L14.4 9l2.1 2.1-1.4 1.4-2.1-2.1-2.1 2.1-1.4-1.4L11.6 9 9.5 6.9l1.4-1.4L13 7.6l2.1-2.1 1.4 1.4Z" transform="matrix(1.5 0 0 1.5 468 216)" id="mdi-head-remove-outline" fill="#fff"/><path d="M13 3C9.23 3 6.19 5.95 6 9.66l-1.92 2.53c-.24.31 0 .81.42.81H6v3c0 1.11.89 2 2 2h1v3h7v-4.69c2.37-1.12 4-3.51 4-6.31 0-3.86-3.12-7-7-7m4.06 6.57-1.96.52 1.44 1.45a.9.9 0 0 1 0 1.27.9.9 0 0 1-1.27 0l-1.46-1.44-.51 1.96c-.12.49-.62.77-1.09.64a.892.892 0 0 1-.64-1.1l.53-1.97-1.97.53a.887.887 0 0 1-1.1-.64c-.13-.47.15-.97.64-1.09l1.96-.51-1.44-1.46a.9.9 0 0 1 1.27-1.27l1.45 1.44.52-1.96a.88.88 0 0 1 1.07-.64c.5.13.78.62.66 1.11l-.53 1.96 1.96-.53a.91.91 0 0 1 1.11.66.88.88 0 0 1-.64 1.07Z" transform="matrix(1.5 0 0 1.5 504 216)" id="mdi-head-snowflake" fill="#555"/><path d="M13 3C9.23 3 6.19 5.95 6 9.66l-1.92 2.53c-.24.31 0 .81.42.81H6v3c0 1.11.89 2 2 2h1v3h7v-4.69c2.37-1.12 4-3.51 4-6.31 0-3.86-3.12-7-7-7m4.06 6.57-1.96.52 1.44 1.45a.9.9 0 0 1 0 1.27.9.9 0 0 1-1.27 0l-1.46-1.44-.51 1.96c-.12.49-.62.77-1.09.64a.892.892 0 0 1-.64-1.1l.53-1.97-1.97.53a.887.887 0 0 1-1.1-.64c-.13-.47.15-.97.64-1.09l1.96-.51-1.44-1.46a.9.9 0 0 1 1.27-1.27l1.45 1.44.52-1.96a.88.88 0 0 1 1.07-.64c.5.13.78.62.66 1.11l-.53 1.96 1.96-.53a.91.91 0 0 1 1.11.66.88.88 0 0 1-.64 1.07Z" transform="matrix(1.5 0 0 1.5 540 216)" id="mdi-head-snowflake" fill="#fff"/><path d="M13 3c3.88 0 7 3.14 7 7 0 2.8-1.63 5.19-4 6.31V21H9v-3H8c-1.11 0-2-.89-2-2v-3H4.5c-.42 0-.66-.5-.42-.81L6 9.66A7.003 7.003 0 0 1 13 3m0-2C8.41 1 4.61 4.42 4.06 8.9L2.5 11h-.03l-.02.03c-.55.76-.62 1.76-.19 2.59.36.69 1 1.17 1.74 1.32V16c0 1.85 1.28 3.42 3 3.87V23h11v-5.5c2.5-1.67 4-4.44 4-7.5 0-4.97-4.04-9-9-9m4.33 8.3-1.96.51 1.44 1.46c.35.34.35.92 0 1.27s-.93.35-1.27 0l-1.45-1.44-.52 1.96c-.12.49-.61.76-1.07.64a.91.91 0 0 1-.66-1.11l.53-1.96-1.96.53a.91.91 0 0 1-1.11-.66c-.12-.45.16-.95.64-1.07l1.96-.52-1.44-1.45a.9.9 0 0 1 1.27-1.27l1.46 1.44.51-1.96c.12-.49.62-.77 1.09-.64.49.13.77.62.64 1.1L14.9 8.1l1.97-.53c.48-.13.97.15 1.1.64.13.47-.15.97-.64 1.09Z" transform="matrix(1.5 0 0 1.5 576 216)" id="mdi-head-snowflake-outline" fill="#555"/><path d="M13 3c3.88 0 7 3.14 7 7 0 2.8-1.63 5.19-4 6.31V21H9v-3H8c-1.11 0-2-.89-2-2v-3H4.5c-.42 0-.66-.5-.42-.81L6 9.66A7.003 7.003 0 0 1 13 3m0-2C8.41 1 4.61 4.42 4.06 8.9L2.5 11h-.03l-.02.03c-.55.76-.62 1.76-.19 2.59.36.69 1 1.17 1.74 1.32V16c0 1.85 1.28 3.42 3 3.87V23h11v-5.5c2.5-1.67 4-4.44 4-7.5 0-4.97-4.04-9-9-9m4.33 8.3-1.96.51 1.44 1.46c.35.34.35.92 0 1.27s-.93.35-1.27 0l-1.45-1.44-.52 1.96c-.12.49-.61.76-1.07.64a.91.91 0 0 1-.66-1.11l.53-1.96-1.96.53a.91.91 0 0 1-1.11-.66c-.12-.45.16-.95.64-1.07l1.96-.52-1.44-1.45a.9.9 0 0 1 1.27-1.27l1.46 1.44.51-1.96c.12-.49.62-.77 1.09-.64.49.13.77.62.64 1.1L14.9 8.1l1.97-.53c.48-.13.97.15 1.1.64.13.47-.15.97-.64 1.09Z" transform="matrix(1.5 0 0 1.5 612 216)" id="mdi-head-snowflake-outline" fill="#fff"/><path d="M13 3C9.23 3 6.19 5.95 6 9.66l-1.92 2.53c-.24.31 0 .81.42.81H6v3c0 1.11.89 2 2 2h1v3h7v-4.69c2.37-1.12 4-3.51 4-6.31 0-3.86-3.12-7-7-7m0 12v-1.5c-2.21 0-4-1.79-4-4 0-.82.25-1.58.67-2.21l1.09 1.09c-.17.34-.26.72-.26 1.12A2.5 2.5 0 0 0 13 12v-1.5l2.25 2.25L13 15m3.33-3.29-1.09-1.09c.17-.34.26-.72.26-1.12A2.5 2.5 0 0 0 13 7v1.5l-2.25-2.25L13 4v1.5c2.21 0 4 1.79 4 4 0 .82-.25 1.58-.67 2.21Z" transform="matrix(1.5 0 0 1.5 648 216)" id="mdi-head-sync" fill="#555"/><path d="M13 3C9.23 3 6.19 5.95 6 9.66l-1.92 2.53c-.24.31 0 .81.42.81H6v3c0 1.11.89 2 2 2h1v3h7v-4.69c2.37-1.12 4-3.51 4-6.31 0-3.86-3.12-7-7-7m0 12v-1.5c-2.21 0-4-1.79-4-4 0-.82.25-1.58.67-2.21l1.09 1.09c-.17.34-.26.72-.26 1.12A2.5 2.5 0 0 0 13 12v-1.5l2.25 2.25L13 15m3.33-3.29-1.09-1.09c.17-.34.26-.72.26-1.12A2.5 2.5 0 0 0 13 7v1.5l-2.25-2.25L13 4v1.5c2.21 0 4 1.79 4 4 0 .82-.25 1.58-.67 2.21Z" transform="matrix(1.5 0 0 1.5 684 216)" id="mdi-head-sync" fill="#fff"/><path d="M13 3c3.88 0 7 3.14 7 7 0 2.8-1.63 5.19-4 6.31V21H9v-3H8c-1.11 0-2-.89-2-2v-3H4.5c-.42 0-.66-.5-.42-.81L6 9.66A7.003 7.003 0 0 1 13 3m0-2C8.41 1 4.61 4.42 4.06 8.9L2.5 11h-.03l-.02.03c-.55.76-.62 1.76-.19 2.59.36.69 1 1.17 1.74 1.32V16c0 1.85 1.28 3.42 3 3.87V23h11v-5.5c2.5-1.67 4-4.44 4-7.5 0-4.97-4.04-9-9-9m1 14v-1.5c-2.21 0-4-1.79-4-4 0-.82.25-1.58.67-2.21l1.09 1.09c-.17.34-.26.72-.26 1.12A2.5 2.5 0 0 0 14 12v-1.5l2.25 2.25L14 15m3.33-3.29-1.09-1.09c.17-.34.26-.72.26-1.12A2.5 2.5 0 0 0 14 7v1.5l-2.25-2.25L14 4v1.5c2.21 0 4 1.79 4 4 0 .82-.25 1.58-.67 2.21Z" transform="matrix(1.5 0 0 1.5 0 252)" id="mdi-head-sync-outline" fill="#555"/><path d="M13 3c3.88 0 7 3.14 7 7 0 2.8-1.63 5.19-4 6.31V21H9v-3H8c-1.11 0-2-.89-2-2v-3H4.5c-.42 0-.66-.5-.42-.81L6 9.66A7.003 7.003 0 0 1 13 3m0-2C8.41 1 4.61 4.42 4.06 8.9L2.5 11h-.03l-.02.03c-.55.76-.62 1.76-.19 2.59.36.69 1 1.17 1.74 1.32V16c0 1.85 1.28 3.42 3 3.87V23h11v-5.5c2.5-1.67 4-4.44 4-7.5 0-4.97-4.04-9-9-9m1 14v-1.5c-2.21 0-4-1.79-4-4 0-.82.25-1.58.67-2.21l1.09 1.09c-.17.34-.26.72-.26 1.12A2.5 2.5 0 0 0 14 12v-1.5l2.25 2.25L14 15m3.33-3.29-1.09-1.09c.17-.34.26-.72.26-1.12A2.5 2.5 0 0 0 14 7v1.5l-2.25-2.25L14 4v1.5c2.21 0 4 1.79 4 4 0 .82-.25 1.58-.67 2.21Z" transform="matrix(1.5 0 0 1.5 36 252)" id="mdi-head-sync-outline" fill="#fff"/><path d="M12 1c-5 0-9 4-9 9v7a3 3 0 0 0 3 3h3v-8H5v-2a7 7 0 0 1 7-7 7 7 0 0 1 7 7v2h-4v8h3a3 3 0 0 0 3-3v-7c0-5-4.03-9-9-9Z" transform="matrix(1.5 0 0 1.5 72 252)" id="mdi-headphones" fill="#555"/><path d="M12 1c-5 0-9 4-9 9v7a3 3 0 0 0 3 3h3v-8H5v-2a7 7 0 0 1 7-7 7 7 0 0 1 7 7v2h-4v8h3a3 3 0 0 0 3-3v-7c0-5-4.03-9-9-9Z" transform="matrix(1.5 0 0 1.5 108 252)" id="mdi-headphones" fill="#fff"/><path d="M8 6a6 6 0 0 0-6 6v4.8c0 .66.54 1.2 1.2 1.2H6v-4H4v-2a4 4 0 0 1 4-4 4 4 0 0 1 4 4v2h-2v4h2.8a1.2 1.2 0 0 0 1.2-1.2V12a6 6 0 0 0-6-6m11 1v3.79L16.71 8.5l-.71.71L18.79 12 16 14.79l.71.71L19 13.21V17h.5l2.85-2.86L20.21 12l2.14-2.15L19.5 7H19m1 1.91.94.94-.94.94V8.91m0 4.3.94.93-.94.94v-1.87Z" transform="matrix(1.5 0 0 1.5 144 252)" id="mdi-headphones-bluetooth" fill="#555"/><path d="M8 6a6 6 0 0 0-6 6v4.8c0 .66.54 1.2 1.2 1.2H6v-4H4v-2a4 4 0 0 1 4-4 4 4 0 0 1 4 4v2h-2v4h2.8a1.2 1.2 0 0 0 1.2-1.2V12a6 6 0 0 0-6-6m11 1v3.79L16.71 8.5l-.71.71L18.79 12 16 14.79l.71.71L19 13.21V17h.5l2.85-2.86L20.21 12l2.14-2.15L19.5 7H19m1 1.91.94.94-.94.94V8.91m0 4.3.94.93-.94.94v-1.87Z" transform="matrix(1.5 0 0 1.5 180 252)" id="mdi-headphones-bluetooth" fill="#fff"/><path d="M7.2 18c-.66 0-1.2-.54-1.2-1.2V12a6 6 0 0 1 6-6 6 6 0 0 1 6 6v4.8a1.2 1.2 0 0 1-1.2 1.2H14v-4h2v-2a4 4 0 0 0-4-4 4 4 0 0 0-4 4v2h2v4m9-15H5c-1.11 0-2 .89-2 2v14a2 2 0 0 0 2 2h14a2 2 0 0 0 2-2V5a2 2 0 0 0-2-2Z" transform="matrix(1.5 0 0 1.5 216 252)" id="mdi-headphones-box" fill="#555"/><path d="M7.2 18c-.66 0-1.2-.54-1.2-1.2V12a6 6 0 0 1 6-6 6 6 0 0 1 6 6v4.8a1.2 1.2 0 0 1-1.2 1.2H14v-4h2v-2a4 4 0 0 0-4-4 4 4 0 0 0-4 4v2h2v4m9-15H5c-1.11 0-2 .89-2 2v14a2 2 0 0 0 2 2h14a2 2 0 0 0 2-2V5a2 2 0 0 0-2-2Z" transform="matrix(1.5 0 0 1.5 252 252)" id="mdi-headphones-box" fill="#fff"/><path d="M12 1a9 9 0 0 1 9 9v7c0 .62-.19 1.19-.5 1.67L15 13.18V12h4v-2a7 7 0 0 0-7-7c-2 0-3.77.82-5.04 2.14L5.55 3.72A8.96 8.96 0 0 1 12 1M2.78 3.5 20.5 21.22l-1.27 1.28-2.5-2.5H15v-1.73l-6-6V20H6a3 3 0 0 1-3-3v-7c0-1.11.2-2.18.57-3.16L1.5 4.77 2.78 3.5m2.39 4.94C5.06 8.94 5 9.46 5 10v2h3.73L5.17 8.44Z" transform="matrix(1.5 0 0 1.5 288 252)" id="mdi-headphones-off" fill="#555"/><path d="M12 1a9 9 0 0 1 9 9v7c0 .62-.19 1.19-.5 1.67L15 13.18V12h4v-2a7 7 0 0 0-7-7c-2 0-3.77.82-5.04 2.14L5.55 3.72A8.96 8.96 0 0 1 12 1M2.78 3.5 20.5 21.22l-1.27 1.28-2.5-2.5H15v-1.73l-6-6V20H6a3 3 0 0 1-3-3v-7c0-1.11.2-2.18.57-3.16L1.5 4.77 2.78 3.5m2.39 4.94C5.06 8.94 5 9.46 5 10v2h3.73L5.17 8.44Z" transform="matrix(1.5 0 0 1.5 324 252)" id="mdi-headphones-off" fill="#fff"/><path d="M12 1a9 9 0 0 1 9 9v7a3 3 0 0 1-3 3h-3v-8h4v-2a7 7 0 0 0-7-7 7 7 0 0 0-7 7v2h4v8H6a3 3 0 0 1-3-3v-7a9 9 0 0 1 9-9m3 23v-2h2v2h-2m-4 0v-2h2v2h-2m-4 0v-2h2v2H7Z" transform="matrix(1.5 0 0 1.5 360 252)" id="mdi-headphones-settings" fill="#555"/><path d="M12 1a9 9 0 0 1 9 9v7a3 3 0 0 1-3 3h-3v-8h4v-2a7 7 0 0 0-7-7 7 7 0 0 0-7 7v2h4v8H6a3 3 0 0 1-3-3v-7a9 9 0 0 1 9-9m3 23v-2h2v2h-2m-4 0v-2h2v2h-2m-4 0v-2h2v2H7Z" transform="matrix(1.5 0 0 1.5 396 252)" id="mdi-headphones-settings" fill="#fff"/><path d="M12 1c-5 0-9 4-9 9v7a3 3 0 0 0 3 3h3v-8H5v-2a7 7 0 0 1 7-7 7 7 0 0 1 7 7v2h-4v8h4v1h-7v2h6a3 3 0 0 0 3-3V10c0-5-4.03-9-9-9Z" transform="matrix(1.5 0 0 1.5 432 252)" id="mdi-headset" fill="#555"/><path d="M12 1c-5 0-9 4-9 9v7a3 3 0 0 0 3 3h3v-8H5v-2a7 7 0 0 1 7-7 7 7 0 0 1 7 7v2h-4v8h4v1h-7v2h6a3 3 0 0 0 3-3V10c0-5-4.03-9-9-9Z" transform="matrix(1.5 0 0 1.5 468 252)" id="mdi-headset" fill="#fff"/><path d="M2 18h7V6.13C7.27 6.57 6 8.14 6 10v1h2v6H6a2 2 0 0 1-2-2v-5a6 6 0 0 1 6-6h1a6 6 0 0 1 6 6v2h1V9h2v3a2 2 0 0 1-2 2h-1v1a2 2 0 0 1-2 2h-2v-6h2v-1c0-1.86-1.27-3.43-3-3.87V18h10v2H2v-2Z" transform="matrix(1.5 0 0 1.5 504 252)" id="mdi-headset-dock" fill="#555"/><path d="M2 18h7V6.13C7.27 6.57 6 8.14 6 10v1h2v6H6a2 2 0 0 1-2-2v-5a6 6 0 0 1 6-6h1a6 6 0 0 1 6 6v2h1V9h2v3a2 2 0 0 1-2 2h-1v1a2 2 0 0 1-2 2h-2v-6h2v-1c0-1.86-1.27-3.43-3-3.87V18h10v2H2v-2Z" transform="matrix(1.5 0 0 1.5 540 252)" id="mdi-headset-dock" fill="#fff"/><path d="m1.5 4.77 2.07 2.07C3.2 7.82 3 8.89 3 10v10a3 3 0 0 0 3 3h6v-2H5v-1h4v-7.73l6 6V20h1.73l2.5 2.5 1.27-1.28L2.78 3.5 1.5 4.77M12 1a8.96 8.96 0 0 0-6.45 2.72l1.41 1.42A6.94 6.94 0 0 1 12 3a7 7 0 0 1 7 7v2h-4v1.18l5.5 5.49c.31-.48.5-1.05.5-1.67v-7a9 9 0 0 0-9-9M5 12v-2c0-.54.06-1.06.17-1.56L8.73 12H5Z" transform="matrix(1.5 0 0 1.5 576 252)" id="mdi-headset-off" fill="#555"/><path d="m1.5 4.77 2.07 2.07C3.2 7.82 3 8.89 3 10v10a3 3 0 0 0 3 3h6v-2H5v-1h4v-7.73l6 6V20h1.73l2.5 2.5 1.27-1.28L2.78 3.5 1.5 4.77M12 1a8.96 8.96 0 0 0-6.45 2.72l1.41 1.42A6.94 6.94 0 0 1 12 3a7 7 0 0 1 7 7v2h-4v1.18l5.5 5.49c.31-.48.5-1.05.5-1.67v-7a9 9 0 0 0-9-9M5 12v-2c0-.54.06-1.06.17-1.56L8.73 12H5Z" transform="matrix(1.5 0 0 1.5 612 252)" id="mdi-headset-off" fill="#fff"/><path d="m12 21.35-1.45-1.32C5.4 15.36 2 12.27 2 8.5 2 5.41 4.42 3 7.5 3c1.74 0 3.41.81 4.5 2.08C13.09 3.81 14.76 3 16.5 3 19.58 3 22 5.41 22 8.5c0 3.77-3.4 6.86-8.55 11.53L12 21.35Z" transform="matrix(1.5 0 0 1.5 648 252)" id="mdi-heart" fill="#555"/><path d="m12 21.35-1.45-1.32C5.4 15.36 2 12.27 2 8.5 2 5.41 4.42 3 7.5 3c1.74 0 3.41.81 4.5 2.08C13.09 3.81 14.76 3 16.5 3 19.58 3 22 5.41 22 8.5c0 3.77-3.4 6.86-8.55 11.53L12 21.35Z" transform="matrix(1.5 0 0 1.5 684 252)" id="mdi-heart" fill="#fff"/><path d="M5 3h14a2 2 0 0 1 2 2v14a2 2 0 0 1-2 2H5a2 2 0 0 1-2-2V5a2 2 0 0 1 2-2m7 14 .72-.66C15.3 14 17 12.46 17 10.57c0-1.54-1.21-2.75-2.75-2.75-.87 0-1.7.41-2.25 1.05a3.007 3.007 0 0 0-2.25-1.05C8.21 7.82 7 9.03 7 10.57c0 1.89 1.7 3.43 4.28 5.77L12 17Z" transform="matrix(1.5 0 0 1.5 0 288)" id="mdi-heart-box" fill="#555"/><path d="M5 3h14a2 2 0 0 1 2 2v14a2 2 0 0 1-2 2H5a2 2 0 0 1-2-2V5a2 2 0 0 1 2-2m7 14 .72-.66C15.3 14 17 12.46 17 10.57c0-1.54-1.21-2.75-2.75-2.75-.87 0-1.7.41-2.25 1.05a3.007 3.007 0 0 0-2.25-1.05C8.21 7.82 7 9.03 7 10.57c0 1.89 1.7 3.43 4.28 5.77L12 17Z" transform="matrix(1.5 0 0 1.5 36 288)" id="mdi-heart-box" fill="#fff"/><path d="m12 17-.72-.66C8.7 14 7 12.46 7 10.57c0-1.54 1.21-2.75 2.75-2.75.87 0 1.7.41 2.25 1.05.55-.64 1.38-1.05 2.25-1.05 1.54 0 2.75 1.21 2.75 2.75 0 1.89-1.7 3.43-4.28 5.77L12 17M5 3h14a2 2 0 0 1 2 2v14a2 2 0 0 1-2 2H5a2 2 0 0 1-2-2V5a2 2 0 0 1 2-2m0 2v14h14V5H5Z" transform="matrix(1.5 0 0 1.5 72 288)" id="mdi-heart-box-outline" fill="#555"/><path d="m12 17-.72-.66C8.7 14 7 12.46 7 10.57c0-1.54 1.21-2.75 2.75-2.75.87 0 1.7.41 2.25 1.05.55-.64 1.38-1.05 2.25-1.05 1.54 0 2.75 1.21 2.75 2.75 0 1.89-1.7 3.43-4.28 5.77L12 17M5 3h14a2 2 0 0 1 2 2v14a2 2 0 0 1-2 2H5a2 2 0 0 1-2-2V5a2 2 0 0 1 2-2m0 2v14h14V5H5Z" transform="matrix(1.5 0 0 1.5 108 288)" id="mdi-heart-box-outline" fill="#fff"/><path d="m12 21.35-1.45-1.32C5.4 15.36 2 12.27 2 8.5 2 5.41 4.42 3 7.5 3c.67 0 1.32.12 1.94.33L13 9.35l-4 5 3 7M16.5 3C19.58 3 22 5.41 22 8.5c0 3.77-3.4 6.86-8.55 11.53L12 21.35l-1-7 4.5-5-2.65-5.08C13.87 3.47 15.17 3 16.5 3Z" transform="matrix(1.5 0 0 1.5 144 288)" id="mdi-heart-broken" fill="#555"/><path d="m12 21.35-1.45-1.32C5.4 15.36 2 12.27 2 8.5 2 5.41 4.42 3 7.5 3c.67 0 1.32.12 1.94.33L13 9.35l-4 5 3 7M16.5 3C19.58 3 22 5.41 22 8.5c0 3.77-3.4 6.86-8.55 11.53L12 21.35l-1-7 4.5-5-2.65-5.08C13.87 3.47 15.17 3 16.5 3Z" transform="matrix(1.5 0 0 1.5 180 288)" id="mdi-heart-broken" fill="#fff"/><path d="M7.5 5c.2 0 .4 0 .6.1l2.4 4.1-3.7 4.6C5.1 11.8 4 10.2 4 8.5 4 6.5 5.5 5 7.5 5m0-2C4.4 3 2 5.4 2 8.5c0 3.8 3.4 6.9 8.6 11.5l1.4 1.3-3-7 4-5-3.6-6C8.8 3.1 8.2 3 7.5 3m9 2c2 0 3.5 1.5 3.5 3.5 0 2.6-2.6 5.2-6.6 8.8l-.3-2.3 4.8-5.3-2.3-4.5c.3-.2.6-.2.9-.2m0-2c-1.3 0-2.6.5-3.6 1.3l2.6 5.1-4.5 5 1 7 1.4-1.3c5.2-4.7 8.6-7.8 8.6-11.5C22 5.4 19.6 3 16.5 3Z" transform="matrix(1.5 0 0 1.5 216 288)" id="mdi-heart-broken-outline" fill="#555"/><path d="M7.5 5c.2 0 .4 0 .6.1l2.4 4.1-3.7 4.6C5.1 11.8 4 10.2 4 8.5 4 6.5 5.5 5 7.5 5m0-2C4.4 3 2 5.4 2 8.5c0 3.8 3.4 6.9 8.6 11.5l1.4 1.3-3-7 4-5-3.6-6C8.8 3.1 8.2 3 7.5 3m9 2c2 0 3.5 1.5 3.5 3.5 0 2.6-2.6 5.2-6.6 8.8l-.3-2.3 4.8-5.3-2.3-4.5c.3-.2.6-.2.9-.2m0-2c-1.3 0-2.6.5-3.6 1.3l2.6 5.1-4.5 5 1 7 1.4-1.3c5.2-4.7 8.6-7.8 8.6-11.5C22 5.4 19.6 3 16.5 3Z" transform="matrix(1.5 0 0 1.5 252 288)" id="mdi-heart-broken-outline" fill="#fff"/><path d="M12 2C6.47 2 2 6.5 2 12a10 10 0 0 0 10 10 10 10 0 0 0 10-10A10 10 0 0 0 12 2M9.75 7.82c.87 0 1.7.41 2.25 1.05.55-.64 1.38-1.05 2.25-1.05 1.54 0 2.75 1.21 2.75 2.75 0 1.89-1.7 3.43-4.28 5.77L12 17l-.72-.66C8.7 14 7 12.46 7 10.57c0-1.54 1.21-2.75 2.75-2.75Z" transform="matrix(1.5 0 0 1.5 288 288)" id="mdi-heart-circle" fill="#555"/><path d="M12 2C6.47 2 2 6.5 2 12a10 10 0 0 0 10 10 10 10 0 0 0 10-10A10 10 0 0 0 12 2M9.75 7.82c.87 0 1.7.41 2.25 1.05.55-.64 1.38-1.05 2.25-1.05 1.54 0 2.75 1.21 2.75 2.75 0 1.89-1.7 3.43-4.28 5.77L12 17l-.72-.66C8.7 14 7 12.46 7 10.57c0-1.54 1.21-2.75 2.75-2.75Z" transform="matrix(1.5 0 0 1.5 324 288)" id="mdi-heart-circle" fill="#fff"/><path d="M12 2A10 10 0 0 0 2 12a10 10 0 0 0 10 10 10 10 0 0 0 10-10A10 10 0 0 0 12 2m0 2a8 8 0 0 1 8 8 8 8 0 0 1-8 8 8 8 0 0 1-8-8 8 8 0 0 1 8-8M9.75 7.82C8.21 7.82 7 9.03 7 10.57c0 1.89 1.7 3.43 4.28 5.77L12 17l.72-.66C15.3 14 17 12.46 17 10.57c0-1.54-1.21-2.75-2.75-2.75-.87 0-1.7.41-2.25 1.05a3.007 3.007 0 0 0-2.25-1.05Z" transform="matrix(1.5 0 0 1.5 360 288)" id="mdi-heart-circle-outline" fill="#555"/><path d="M12 2A10 10 0 0 0 2 12a10 10 0 0 0 10 10 10 10 0 0 0 10-10A10 10 0 0 0 12 2m0 2a8 8 0 0 1 8 8 8 8 0 0 1-8 8 8 8 0 0 1-8-8 8 8 0 0 1 8-8M9.75 7.82C8.21 7.82 7 9.03 7 10.57c0 1.89 1.7 3.43 4.28 5.77L12 17l.72-.66C15.3 14 17 12.46 17 10.57c0-1.54-1.21-2.75-2.75-2.75-.87 0-1.7.41-2.25 1.05a3.007 3.007 0 0 0-2.25-1.05Z" transform="matrix(1.5 0 0 1.5 396 288)" id="mdi-heart-circle-outline" fill="#fff"/><path d="M12 19c0 .71.12 1.4.32 2.06l-.32.29-1.45-1.32C5.4 15.36 2 12.27 2 8.5 2 5.41 4.42 3 7.5 3c1.74 0 3.41.81 4.5 2.08C13.09 3.81 14.76 3 16.5 3 19.58 3 22 5.41 22 8.5c0 1.3-.41 2.5-1.16 3.75-.59-.16-1.21-.25-1.84-.25-3.86 0-7 3.14-7 7m11.83 1.64-1 1.73c-.07.13-.2.13-.33.13l-1.23-.5c-.27.18-.54.34-.84.47l-.19 1.32c-.02.12-.13.21-.24.21h-2c-.14 0-.24-.09-.26-.21l-.19-1.32c-.31-.12-.59-.29-.85-.47l-1.24.5c-.12 0-.25 0-.31-.13l-1-1.73a.26.26 0 0 1 .06-.32l1.06-.82a4.193 4.193 0 0 1 0-1l-1.06-.82a.248.248 0 0 1-.06-.32l1-1.73c.07-.13.2-.13.31-.13l1.24.5c.26-.18.55-.34.85-.47l.19-1.32A.26.26 0 0 1 18 14h2c.11 0 .22.09.23.21l.19 1.32c.31.12.58.29.85.47l1.23-.5c.13 0 .26 0 .32.13l1 1.73c.06.11.03.24-.06.32l-1.06.82c.03.17.04.33.04.5s-.02.33-.04.5l1.07.82c.09.08.12.21.06.32M20.5 19c0-.83-.67-1.5-1.5-1.5s-1.5.67-1.5 1.5.66 1.5 1.5 1.5c.83 0 1.5-.67 1.5-1.5Z" transform="matrix(1.5 0 0 1.5 432 288)" id="mdi-heart-cog" fill="#555"/><path d="M12 19c0 .71.12 1.4.32 2.06l-.32.29-1.45-1.32C5.4 15.36 2 12.27 2 8.5 2 5.41 4.42 3 7.5 3c1.74 0 3.41.81 4.5 2.08C13.09 3.81 14.76 3 16.5 3 19.58 3 22 5.41 22 8.5c0 1.3-.41 2.5-1.16 3.75-.59-.16-1.21-.25-1.84-.25-3.86 0-7 3.14-7 7m11.83 1.64-1 1.73c-.07.13-.2.13-.33.13l-1.23-.5c-.27.18-.54.34-.84.47l-.19 1.32c-.02.12-.13.21-.24.21h-2c-.14 0-.24-.09-.26-.21l-.19-1.32c-.31-.12-.59-.29-.85-.47l-1.24.5c-.12 0-.25 0-.31-.13l-1-1.73a.26.26 0 0 1 .06-.32l1.06-.82a4.193 4.193 0 0 1 0-1l-1.06-.82a.248.248 0 0 1-.06-.32l1-1.73c.07-.13.2-.13.31-.13l1.24.5c.26-.18.55-.34.85-.47l.19-1.32A.26.26 0 0 1 18 14h2c.11 0 .22.09.23.21l.19 1.32c.31.12.58.29.85.47l1.23-.5c.13 0 .26 0 .32.13l1 1.73c.06.11.03.24-.06.32l-1.06.82c.03.17.04.33.04.5s-.02.33-.04.5l1.07.82c.09.08.12.21.06.32M20.5 19c0-.83-.67-1.5-1.5-1.5s-1.5.67-1.5 1.5.66 1.5 1.5 1.5c.83 0 1.5-.67 1.5-1.5Z" transform="matrix(1.5 0 0 1.5 468 288)" id="mdi-heart-cog" fill="#fff"/><path d="M16.5 5c-1.54 0-3.04 1-3.57 2.36h-1.86C10.54 6 9.04 5 7.5 5 5.5 5 4 6.5 4 8.5c0 2.89 3.14 5.74 7.89 10.05l.11.1v-.02.37c0 .71.12 1.4.32 2.06l-.32.29-1.45-1.32C5.4 15.36 2 12.27 2 8.5 2 5.41 4.42 3 7.5 3c1.74 0 3.41.81 4.5 2.08C13.09 3.81 14.76 3 16.5 3 19.58 3 22 5.41 22 8.5c0 1.3-.41 2.5-1.16 3.75-.59-.16-1.21-.25-1.84-.25h-.4c.9-1.21 1.4-2.35 1.4-3.5 0-2-1.5-3.5-3.5-3.5m7.33 15.64-1 1.73c-.07.13-.2.13-.33.13l-1.23-.5c-.27.18-.54.34-.84.47l-.19 1.32c-.02.12-.13.21-.24.21h-2c-.14 0-.24-.09-.26-.21l-.19-1.32c-.31-.12-.59-.29-.85-.47l-1.24.5c-.12 0-.25 0-.31-.13l-1-1.73a.26.26 0 0 1 .06-.32l1.06-.82a4.193 4.193 0 0 1 0-1l-1.06-.82a.248.248 0 0 1-.06-.32l1-1.73c.07-.13.2-.13.31-.13l1.24.5c.26-.18.55-.34.85-.47l.19-1.32A.26.26 0 0 1 18 14h2c.11 0 .22.09.23.21l.19 1.32c.31.12.58.29.85.47l1.23-.5c.13 0 .26 0 .32.13l1 1.73c.06.11.03.24-.06.32l-1.06.82c.03.17.04.33.04.5s-.02.33-.04.5l1.07.82c.09.08.12.21.06.32M20.5 19c0-.83-.67-1.5-1.5-1.5s-1.5.67-1.5 1.5.66 1.5 1.5 1.5c.83 0 1.5-.67 1.5-1.5Z" transform="matrix(1.5 0 0 1.5 504 288)" id="mdi-heart-cog-outline" fill="#555"/><path d="M16.5 5c-1.54 0-3.04 1-3.57 2.36h-1.86C10.54 6 9.04 5 7.5 5 5.5 5 4 6.5 4 8.5c0 2.89 3.14 5.74 7.89 10.05l.11.1v-.02.37c0 .71.12 1.4.32 2.06l-.32.29-1.45-1.32C5.4 15.36 2 12.27 2 8.5 2 5.41 4.42 3 7.5 3c1.74 0 3.41.81 4.5 2.08C13.09 3.81 14.76 3 16.5 3 19.58 3 22 5.41 22 8.5c0 1.3-.41 2.5-1.16 3.75-.59-.16-1.21-.25-1.84-.25h-.4c.9-1.21 1.4-2.35 1.4-3.5 0-2-1.5-3.5-3.5-3.5m7.33 15.64-1 1.73c-.07.13-.2.13-.33.13l-1.23-.5c-.27.18-.54.34-.84.47l-.19 1.32c-.02.12-.13.21-.24.21h-2c-.14 0-.24-.09-.26-.21l-.19-1.32c-.31-.12-.59-.29-.85-.47l-1.24.5c-.12 0-.25 0-.31-.13l-1-1.73a.26.26 0 0 1 .06-.32l1.06-.82a4.193 4.193 0 0 1 0-1l-1.06-.82a.248.248 0 0 1-.06-.32l1-1.73c.07-.13.2-.13.31-.13l1.24.5c.26-.18.55-.34.85-.47l.19-1.32A.26.26 0 0 1 18 14h2c.11 0 .22.09.23.21l.19 1.32c.31.12.58.29.85.47l1.23-.5c.13 0 .26 0 .32.13l1 1.73c.06.11.03.24-.06.32l-1.06.82c.03.17.04.33.04.5s-.02.33-.04.5l1.07.82c.09.08.12.21.06.32M20.5 19c0-.83-.67-1.5-1.5-1.5s-1.5.67-1.5 1.5.66 1.5 1.5 1.5c.83 0 1.5-.67 1.5-1.5Z" transform="matrix(1.5 0 0 1.5 540 288)" id="mdi-heart-cog-outline" fill="#fff"/><path d="M16.5 2.83c-1.74 0-3.41.81-4.5 2.07-1.09-1.26-2.76-2.07-4.5-2.07-3.08 0-5.5 2.41-5.5 5.5 0 3.77 3.4 6.86 8.55 11.53L12 21.17l1.45-1.31C18.6 15.19 22 12.1 22 8.33c0-3.09-2.42-5.5-5.5-5.5m-4.5 15v-4H9l3-7v4h3" transform="matrix(1.5 0 0 1.5 576 288)" id="mdi-heart-flash" fill="#555"/><path d="M16.5 2.83c-1.74 0-3.41.81-4.5 2.07-1.09-1.26-2.76-2.07-4.5-2.07-3.08 0-5.5 2.41-5.5 5.5 0 3.77 3.4 6.86 8.55 11.53L12 21.17l1.45-1.31C18.6 15.19 22 12.1 22 8.33c0-3.09-2.42-5.5-5.5-5.5m-4.5 15v-4H9l3-7v4h3" transform="matrix(1.5 0 0 1.5 612 288)" id="mdi-heart-flash" fill="#fff"/><path d="M13 7.2V20.44l-1 .91-1.45-1.32C5.4 15.36 2 12.27 2 8.5 2 5.41 4.42 3 7.5 3 10 3 13 5 13 7.2Z" transform="matrix(1.5 0 0 1.5 648 288)" id="mdi-heart-half" fill="#555"/><path d="M13 7.2V20.44l-1 .91-1.45-1.32C5.4 15.36 2 12.27 2 8.5 2 5.41 4.42 3 7.5 3 10 3 13 5 13 7.2Z" transform="matrix(1.5 0 0 1.5 684 288)" id="mdi-heart-half" fill="#fff"/><path d="M16.5 5c-1.5 0-2.92.91-3.5 2.2v10.54c4.25-3.87 7-6.54 7-9.24 0-2-1.5-3.5-3.5-3.5m0-2C19.58 3 22 5.41 22 8.5c0 3.77-3.4 6.86-8.55 11.53L12 21.35l-1.45-1.32C5.4 15.36 2 12.27 2 8.5 2 5.41 4.42 3 7.5 3c1.74 0 3.41.81 4.5 2.08C13.09 3.81 14.76 3 16.5 3Z" transform="matrix(1.5 0 0 1.5 0 324)" id="mdi-heart-half-full" fill="#555"/><path d="M16.5 5c-1.5 0-2.92.91-3.5 2.2v10.54c4.25-3.87 7-6.54 7-9.24 0-2-1.5-3.5-3.5-3.5m0-2C19.58 3 22 5.41 22 8.5c0 3.77-3.4 6.86-8.55 11.53L12 21.35l-1.45-1.32C5.4 15.36 2 12.27 2 8.5 2 5.41 4.42 3 7.5 3c1.74 0 3.41.81 4.5 2.08C13.09 3.81 14.76 3 16.5 3Z" transform="matrix(1.5 0 0 1.5 36 324)" id="mdi-heart-half-full" fill="#fff"/><path d="M4 8.5c0 2.7 2.75 5.37 7 9.24V7.2C10.42 5.91 9 5 7.5 5 5.5 5 4 6.5 4 8.5m9-1.3V20.44l-1 .91-1.45-1.32C5.4 15.36 2 12.27 2 8.5 2 5.41 4.42 3 7.5 3 10 3 13 5 13 7.2Z" transform="matrix(1.5 0 0 1.5 72 324)" id="mdi-heart-half-outline" fill="#555"/><path d="M4 8.5c0 2.7 2.75 5.37 7 9.24V7.2C10.42 5.91 9 5 7.5 5 5.5 5 4 6.5 4 8.5m9-1.3V20.44l-1 .91-1.45-1.32C5.4 15.36 2 12.27 2 8.5 2 5.41 4.42 3 7.5 3 10 3 13 5 13 7.2Z" transform="matrix(1.5 0 0 1.5 108 324)" id="mdi-heart-half-outline" fill="#fff"/><path d="M12 18c0 1 .25 1.92.67 2.74l-.67.61-1.45-1.32C5.4 15.36 2 12.27 2 8.5 2 5.41 4.42 3 7.5 3c1.74 0 3.41.81 4.5 2.08C13.09 3.81 14.76 3 16.5 3 19.58 3 22 5.41 22 8.5c0 1.43-.5 2.76-1.38 4.11-.79-.38-1.68-.61-2.62-.61-3.31 0-6 2.69-6 6m2-1v2h8v-2h-8Z" transform="matrix(1.5 0 0 1.5 144 324)" id="mdi-heart-minus" fill="#555"/><path d="M12 18c0 1 .25 1.92.67 2.74l-.67.61-1.45-1.32C5.4 15.36 2 12.27 2 8.5 2 5.41 4.42 3 7.5 3c1.74 0 3.41.81 4.5 2.08C13.09 3.81 14.76 3 16.5 3 19.58 3 22 5.41 22 8.5c0 1.43-.5 2.76-1.38 4.11-.79-.38-1.68-.61-2.62-.61-3.31 0-6 2.69-6 6m2-1v2h8v-2h-8Z" transform="matrix(1.5 0 0 1.5 180 324)" id="mdi-heart-minus" fill="#fff"/><path d="m12.67 20.74-.67.61-1.45-1.32C5.4 15.36 2 12.27 2 8.5 2 5.41 4.42 3 7.5 3c1.74 0 3.41.81 4.5 2.08C13.09 3.81 14.76 3 16.5 3 19.58 3 22 5.41 22 8.5c0 1.43-.5 2.76-1.38 4.11-.62-.3-1.31-.5-2.03-.57C19.5 10.8 20 9.65 20 8.5c0-2-1.5-3.5-3.5-3.5-1.54 0-3.04 1-3.57 2.36h-1.86C10.54 6 9.04 5 7.5 5 5.5 5 4 6.5 4 8.5c0 2.89 3.14 5.74 7.89 10.05l.11.1.04-.04c.08.76.3 1.48.63 2.13M14 17v2h8v-2h-8Z" transform="matrix(1.5 0 0 1.5 216 324)" id="mdi-heart-minus-outline" fill="#555"/><path d="m12.67 20.74-.67.61-1.45-1.32C5.4 15.36 2 12.27 2 8.5 2 5.41 4.42 3 7.5 3c1.74 0 3.41.81 4.5 2.08C13.09 3.81 14.76 3 16.5 3 19.58 3 22 5.41 22 8.5c0 1.43-.5 2.76-1.38 4.11-.62-.3-1.31-.5-2.03-.57C19.5 10.8 20 9.65 20 8.5c0-2-1.5-3.5-3.5-3.5-1.54 0-3.04 1-3.57 2.36h-1.86C10.54 6 9.04 5 7.5 5 5.5 5 4 6.5 4 8.5c0 2.89 3.14 5.74 7.89 10.05l.11.1.04-.04c.08.76.3 1.48.63 2.13M14 17v2h8v-2h-8Z" transform="matrix(1.5 0 0 1.5 252 324)" id="mdi-heart-minus-outline" fill="#fff"/><path d="M13.5 20c-6.6-6.1-10-9.2-10-12.9C3.5 4 5.9 1.6 9 1.6c1.7 0 3.4.8 4.5 2.1 1.1-1.3 2.8-2.1 4.5-2.1 3.1 0 5.5 2.4 5.5 5.5 0 3.8-3.4 6.9-10 12.9M12 21.1C5.4 15.2 1.5 11.7 1.5 7v-.6c-.6.9-1 2-1 3.2 0 3.8 3.4 6.9 10 12.8l1.5-1.3Z" transform="matrix(1.5 0 0 1.5 288 324)" id="mdi-heart-multiple" fill="#555"/><path d="M13.5 20c-6.6-6.1-10-9.2-10-12.9C3.5 4 5.9 1.6 9 1.6c1.7 0 3.4.8 4.5 2.1 1.1-1.3 2.8-2.1 4.5-2.1 3.1 0 5.5 2.4 5.5 5.5 0 3.8-3.4 6.9-10 12.9M12 21.1C5.4 15.2 1.5 11.7 1.5 7v-.6c-.6.9-1 2-1 3.2 0 3.8 3.4 6.9 10 12.8l1.5-1.3Z" transform="matrix(1.5 0 0 1.5 324 324)" id="mdi-heart-multiple" fill="#fff"/><path d="m12 21.1-1.5 1.3c-6.6-5.9-10-9-10-12.8 0-1.2.4-2.3 1-3.2V7c0 4.7 3.9 8.2 10.5 14.1m1.6-4.1c4.7-4.3 7.9-7.1 8-10 0-2-1.5-3.5-3.5-3.5-1.6 0-3.1 1-3.6 2.4h-1.9C12 4.5 10.5 3.5 9 3.5 7 3.5 5.5 5 5.5 7c0 2.9 3.1 5.7 7.9 10l.1.1M18 1.5c3.1 0 5.5 2.4 5.5 5.5 0 3.7-3.4 6.8-10 12.8-6.6-5.9-10-9-10-12.8 0-3.1 2.4-5.5 5.5-5.5 1.7 0 3.4.8 4.5 2.1 1.1-1.3 2.8-2.1 4.5-2.1Z" transform="matrix(1.5 0 0 1.5 360 324)" id="mdi-heart-multiple-outline" fill="#555"/><path d="m12 21.1-1.5 1.3c-6.6-5.9-10-9-10-12.8 0-1.2.4-2.3 1-3.2V7c0 4.7 3.9 8.2 10.5 14.1m1.6-4.1c4.7-4.3 7.9-7.1 8-10 0-2-1.5-3.5-3.5-3.5-1.6 0-3.1 1-3.6 2.4h-1.9C12 4.5 10.5 3.5 9 3.5 7 3.5 5.5 5 5.5 7c0 2.9 3.1 5.7 7.9 10l.1.1M18 1.5c3.1 0 5.5 2.4 5.5 5.5 0 3.7-3.4 6.8-10 12.8-6.6-5.9-10-9-10-12.8 0-3.1 2.4-5.5 5.5-5.5 1.7 0 3.4.8 4.5 2.1 1.1-1.3 2.8-2.1 4.5-2.1Z" transform="matrix(1.5 0 0 1.5 396 324)" id="mdi-heart-multiple-outline" fill="#fff"/><path d="M1 4.27 2.28 3 20 20.72 18.73 22l-3.55-3.56-1.73 1.59L12 21.35l-1.45-1.32C5.4 15.36 2 12.27 2 8.5c0-.95.23-1.83.63-2.6L1 4.27M7.5 3c1.74 0 3.41.81 4.5 2.08C13.09 3.81 14.76 3 16.5 3 19.58 3 22 5.41 22 8.5c0 2.57-1.58 4.82-4.21 7.47L5.27 3.45C5.95 3.16 6.7 3 7.5 3Z" transform="matrix(1.5 0 0 1.5 432 324)" id="mdi-heart-off" fill="#555"/><path d="M1 4.27 2.28 3 20 20.72 18.73 22l-3.55-3.56-1.73 1.59L12 21.35l-1.45-1.32C5.4 15.36 2 12.27 2 8.5c0-.95.23-1.83.63-2.6L1 4.27M7.5 3c1.74 0 3.41.81 4.5 2.08C13.09 3.81 14.76 3 16.5 3 19.58 3 22 5.41 22 8.5c0 2.57-1.58 4.82-4.21 7.47L5.27 3.45C5.95 3.16 6.7 3 7.5 3Z" transform="matrix(1.5 0 0 1.5 468 324)" id="mdi-heart-off" fill="#fff"/><path d="M2.39 1.73 1.11 3l2.08 2.08C2.45 6 2 7.19 2 8.5c0 3.77 3.4 6.86 8.55 11.53L12 21.35l1.45-1.32c.87-.79 1.69-1.53 2.45-2.24L20 22l1.27-1.27m-9.17-2.18-.1.1-.11-.1C7.14 14.24 4 11.39 4 8.5c0-.76.22-1.44.61-2l9.89 9.87c-.76.69-1.55 1.41-2.4 2.18M8.3 5.1 6.33 3.13C6.7 3.05 7.1 3 7.5 3c1.74 0 3.41.81 4.5 2.08C13.09 3.81 14.76 3 16.5 3 19.58 3 22 5.41 22 8.5c0 2.34-1.31 4.42-3.53 6.77l-1.41-1.41C18.91 11.88 20 10.2 20 8.5c0-2-1.5-3.5-3.5-3.5-1.4 0-2.76.83-3.39 2h-2.22c-.51-.94-1.5-1.66-2.59-1.9Z" transform="matrix(1.5 0 0 1.5 504 324)" id="mdi-heart-off-outline" fill="#555"/><path d="M2.39 1.73 1.11 3l2.08 2.08C2.45 6 2 7.19 2 8.5c0 3.77 3.4 6.86 8.55 11.53L12 21.35l1.45-1.32c.87-.79 1.69-1.53 2.45-2.24L20 22l1.27-1.27m-9.17-2.18-.1.1-.11-.1C7.14 14.24 4 11.39 4 8.5c0-.76.22-1.44.61-2l9.89 9.87c-.76.69-1.55 1.41-2.4 2.18M8.3 5.1 6.33 3.13C6.7 3.05 7.1 3 7.5 3c1.74 0 3.41.81 4.5 2.08C13.09 3.81 14.76 3 16.5 3 19.58 3 22 5.41 22 8.5c0 2.34-1.31 4.42-3.53 6.77l-1.41-1.41C18.91 11.88 20 10.2 20 8.5c0-2-1.5-3.5-3.5-3.5-1.4 0-2.76.83-3.39 2h-2.22c-.51-.94-1.5-1.66-2.59-1.9Z" transform="matrix(1.5 0 0 1.5 540 324)" id="mdi-heart-off-outline" fill="#fff"/><path d="m12.1 18.55-.1.1-.11-.1C7.14 14.24 4 11.39 4 8.5 4 6.5 5.5 5 7.5 5c1.54 0 3.04 1 3.57 2.36h1.86C13.46 6 14.96 5 16.5 5c2 0 3.5 1.5 3.5 3.5 0 2.89-3.14 5.74-7.9 10.05M16.5 3c-1.74 0-3.41.81-4.5 2.08C10.91 3.81 9.24 3 7.5 3 4.42 3 2 5.41 2 8.5c0 3.77 3.4 6.86 8.55 11.53L12 21.35l1.45-1.32C18.6 15.36 22 12.27 22 8.5 22 5.41 19.58 3 16.5 3Z" transform="matrix(1.5 0 0 1.5 576 324)" id="mdi-heart-outline" fill="#555"/><path d="m12.1 18.55-.1.1-.11-.1C7.14 14.24 4 11.39 4 8.5 4 6.5 5.5 5 7.5 5c1.54 0 3.04 1 3.57 2.36h1.86C13.46 6 14.96 5 16.5 5c2 0 3.5 1.5 3.5 3.5 0 2.89-3.14 5.74-7.9 10.05M16.5 3c-1.74 0-3.41.81-4.5 2.08C10.91 3.81 9.24 3 7.5 3 4.42 3 2 5.41 2 8.5c0 3.77 3.4 6.86 8.55 11.53L12 21.35l1.45-1.32C18.6 15.36 22 12.27 22 8.5 22 5.41 19.58 3 16.5 3Z" transform="matrix(1.5 0 0 1.5 612 324)" id="mdi-heart-outline" fill="#fff"/><path d="M12 18c0 1 .25 1.92.67 2.74l-.67.61-1.45-1.32C5.4 15.36 2 12.27 2 8.5 2 5.41 4.42 3 7.5 3c1.74 0 3.41.81 4.5 2.08C13.09 3.81 14.76 3 16.5 3 19.58 3 22 5.41 22 8.5c0 1.43-.5 2.76-1.38 4.11-.79-.38-1.68-.61-2.62-.61-3.31 0-6 2.69-6 6m7-4h-2v3h-3v2h3v3h2v-3h3v-2h-3v-3Z" transform="matrix(1.5 0 0 1.5 648 324)" id="mdi-heart-plus" fill="#555"/><path d="M12 18c0 1 .25 1.92.67 2.74l-.67.61-1.45-1.32C5.4 15.36 2 12.27 2 8.5 2 5.41 4.42 3 7.5 3c1.74 0 3.41.81 4.5 2.08C13.09 3.81 14.76 3 16.5 3 19.58 3 22 5.41 22 8.5c0 1.43-.5 2.76-1.38 4.11-.79-.38-1.68-.61-2.62-.61-3.31 0-6 2.69-6 6m7-4h-2v3h-3v2h3v3h2v-3h3v-2h-3v-3Z" transform="matrix(1.5 0 0 1.5 684 324)" id="mdi-heart-plus" fill="#fff"/></svg>