<svg xmlns="http://www.w3.org/2000/svg" width="720" height="900"><path d="M24 7c0-1.1-2-3-2-3s-2 1.9-2 3c0 .7.4 1.4 1 1.7V13h-2v-2c0-.9-.7-1.7-1.5-1.9.3-.6.5-1.2.5-2 0-1.3-.6-2.5-1.7-3.2L12 1 7.7 3.8c-1 .8-1.7 2-1.7 3.3 0 .7.2 1.4.6 2-.9.2-1.6 1-1.6 1.9v2H3V8.7c.6-.3 1-1 1-1.7 0-1.1-2-3-2-3S0 5.9 0 7c0 .7.4 1.4 1 1.7V21h10v-4c0-.5.4-1 1-1s1 .5 1 1v4h10V8.7c.6-.3 1-1 1-1.7M8.9 5.5 12 3.4l3.1 2.1c.6.4.9.9.9 1.6 0 1-.9 1.9-1.9 1.9H9.9C8.9 9 8 8.1 8 7.1c0-.7.3-1.2.9-1.6M21 19h-6v-2c0-1.6-1.4-3-3-3s-3 1.4-3 3v2H3v-4h4v-4h10v4h4v4Z" transform="scale(1.5)" id="mdi-mosque" fill="#555"/><path d="M24 7c0-1.1-2-3-2-3s-2 1.9-2 3c0 .7.4 1.4 1 1.7V13h-2v-2c0-.9-.7-1.7-1.5-1.9.3-.6.5-1.2.5-2 0-1.3-.6-2.5-1.7-3.2L12 1 7.7 3.8c-1 .8-1.7 2-1.7 3.3 0 .7.2 1.4.6 2-.9.2-1.6 1-1.6 1.9v2H3V8.7c.6-.3 1-1 1-1.7 0-1.1-2-3-2-3S0 5.9 0 7c0 .7.4 1.4 1 1.7V21h10v-4c0-.5.4-1 1-1s1 .5 1 1v4h10V8.7c.6-.3 1-1 1-1.7M8.9 5.5 12 3.4l3.1 2.1c.6.4.9.9.9 1.6 0 1-.9 1.9-1.9 1.9H9.9C8.9 9 8 8.1 8 7.1c0-.7.3-1.2.9-1.6M21 19h-6v-2c0-1.6-1.4-3-3-3s-3 1.4-3 3v2H3v-4h4v-4h10v4h4v4Z" transform="translate(36) scale(1.5)" id="mdi-mosque" fill="#fff"/><path d="M12 2c1.66 0 3 1.34 3 3s-1.34 3-3 3-3-1.34-3-3 1.34-3 3-3m8 16-2-5.44c-.35-.99-.66-1.85-2-2.56-1.37-.7-2.37-1-4-1-1.61 0-2.61.3-4 1-1.32.71-1.63 1.57-2 2.56L4 18c-.23 1.13 2.38 2.44 4.13 3.19 1.21.53 2.51.81 3.87.81 1.38 0 2.67-.28 3.89-.81 1.75-.75 4.36-2.06 4.11-3.19m-4.58-.5L12 21l-3.42-3.5c-.36-.38-.58-.89-.58-1.45 0-1.13.9-2.05 2-2.05.55 0 1.06.23 1.42.61l.58.59.58-.6c.36-.37.87-.6 1.42-.6 1.11 0 2 .92 2 2.05 0 .56-.22 1.08-.58 1.45Z" transform="translate(72) scale(1.5)" id="mdi-mother-heart" fill="#555"/><path d="M12 2c1.66 0 3 1.34 3 3s-1.34 3-3 3-3-1.34-3-3 1.34-3 3-3m8 16-2-5.44c-.35-.99-.66-1.85-2-2.56-1.37-.7-2.37-1-4-1-1.61 0-2.61.3-4 1-1.32.71-1.63 1.57-2 2.56L4 18c-.23 1.13 2.38 2.44 4.13 3.19 1.21.53 2.51.81 3.87.81 1.38 0 2.67-.28 3.89-.81 1.75-.75 4.36-2.06 4.11-3.19m-4.58-.5L12 21l-3.42-3.5c-.36-.38-.58-.89-.58-1.45 0-1.13.9-2.05 2-2.05.55 0 1.06.23 1.42.61l.58.59.58-.6c.36-.37.87-.6 1.42-.6 1.11 0 2 .92 2 2.05 0 .56-.22 1.08-.58 1.45Z" transform="translate(108) scale(1.5)" id="mdi-mother-heart" fill="#fff"/><path d="M12 2a3 3 0 0 1 3 3 3 3 0 0 1-3 3 3 3 0 0 1-3-3 3 3 0 0 1 3-3m8 16-2-5.44c-.35-.99-.66-1.85-2-2.56-1.38-.7-2.38-1-4-1-1.63 0-2.62.3-4 1-1.34.71-1.65 1.57-2 2.56L4 18c-.32 1.35 2.36 2.44 4.11 3.19V19c0-.95.86-1.62 2.58-2.03.16-.04.31-.06.43-.08-.54-.82-.76-1.55-.78-1.61l1.77-.6c.01.02.52 1.59 1.73 2.38.21.07.42.15.62.24.77.34 1.23.78 1.38 1.31-1.34.53-2.62.8-3.84.8l-1-.1v2.63l1 .06c1.37 0 2.67-.28 3.89-.81 1.75-.75 4.36-2.06 4.11-3.19m-4.5-1a1.5 1.5 0 0 1-1.5-1.5 1.5 1.5 0 0 1 1.5-1.5 1.5 1.5 0 0 1 1.5 1.5 1.5 1.5 0 0 1-1.5 1.5Z" transform="translate(144) scale(1.5)" id="mdi-mother-nurse" fill="#555"/><path d="M12 2a3 3 0 0 1 3 3 3 3 0 0 1-3 3 3 3 0 0 1-3-3 3 3 0 0 1 3-3m8 16-2-5.44c-.35-.99-.66-1.85-2-2.56-1.38-.7-2.38-1-4-1-1.63 0-2.62.3-4 1-1.34.71-1.65 1.57-2 2.56L4 18c-.32 1.35 2.36 2.44 4.11 3.19V19c0-.95.86-1.62 2.58-2.03.16-.04.31-.06.43-.08-.54-.82-.76-1.55-.78-1.61l1.77-.6c.01.02.52 1.59 1.73 2.38.21.07.42.15.62.24.77.34 1.23.78 1.38 1.31-1.34.53-2.62.8-3.84.8l-1-.1v2.63l1 .06c1.37 0 2.67-.28 3.89-.81 1.75-.75 4.36-2.06 4.11-3.19m-4.5-1a1.5 1.5 0 0 1-1.5-1.5 1.5 1.5 0 0 1 1.5-1.5 1.5 1.5 0 0 1 1.5 1.5 1.5 1.5 0 0 1-1.5 1.5Z" transform="translate(180) scale(1.5)" id="mdi-mother-nurse" fill="#fff"/><path d="M7 13H3c-.55 0-1-.45-1-1s.45-1 1-1h4c.55 0 1 .45 1 1s-.45 1-1 1M6 8c0-.55-.45-1-1-1H4c-.55 0-1 .45-1 1s.45 1 1 1h1c.55 0 1-.45 1-1m16 4c0 2.76-2.24 5-5 5H4c-.55 0-1-.45-1-1s.45-1 1-1h9c-.42-.58-.75-1.26-.9-2H10c-.55 0-1-.45-1-1s.45-1 1-1h2.1c.15-.74.48-1.42.9-2H8c-.55 0-1-.45-1-1s.45-1 1-1h9c2.76 0 5 2.24 5 5Z" transform="translate(216) scale(1.5)" id="mdi-motion" fill="#555"/><path d="M7 13H3c-.55 0-1-.45-1-1s.45-1 1-1h4c.55 0 1 .45 1 1s-.45 1-1 1M6 8c0-.55-.45-1-1-1H4c-.55 0-1 .45-1 1s.45 1 1 1h1c.55 0 1-.45 1-1m16 4c0 2.76-2.24 5-5 5H4c-.55 0-1-.45-1-1s.45-1 1-1h9c-.42-.58-.75-1.26-.9-2H10c-.55 0-1-.45-1-1s.45-1 1-1h2.1c.15-.74.48-1.42.9-2H8c-.55 0-1-.45-1-1s.45-1 1-1h9c2.76 0 5 2.24 5 5Z" transform="translate(252) scale(1.5)" id="mdi-motion" fill="#fff"/><path d="M7 13H3c-.55 0-1-.45-1-1s.45-1 1-1h4c.55 0 1 .45 1 1s-.45 1-1 1M6 8c0-.55-.45-1-1-1H4c-.55 0-1 .45-1 1s.45 1 1 1h1c.55 0 1-.45 1-1m16 4c0 2.76-2.24 5-5 5H4c-.55 0-1-.45-1-1s.45-1 1-1h9c-.42-.58-.75-1.26-.9-2H10c-.55 0-1-.45-1-1s.45-1 1-1h2.1c.15-.74.48-1.42.9-2H8c-.55 0-1-.45-1-1s.45-1 1-1h9c2.76 0 5 2.24 5 5m-2 0c0-1.65-1.35-3-3-3s-3 1.35-3 3 1.35 3 3 3 3-1.35 3-3Z" transform="translate(288) scale(1.5)" id="mdi-motion-outline" fill="#555"/><path d="M7 13H3c-.55 0-1-.45-1-1s.45-1 1-1h4c.55 0 1 .45 1 1s-.45 1-1 1M6 8c0-.55-.45-1-1-1H4c-.55 0-1 .45-1 1s.45 1 1 1h1c.55 0 1-.45 1-1m16 4c0 2.76-2.24 5-5 5H4c-.55 0-1-.45-1-1s.45-1 1-1h9c-.42-.58-.75-1.26-.9-2H10c-.55 0-1-.45-1-1s.45-1 1-1h2.1c.15-.74.48-1.42.9-2H8c-.55 0-1-.45-1-1s.45-1 1-1h9c2.76 0 5 2.24 5 5m-2 0c0-1.65-1.35-3-3-3s-3 1.35-3 3 1.35 3 3 3 3-1.35 3-3Z" transform="translate(324) scale(1.5)" id="mdi-motion-outline" fill="#fff"/><path d="M22 12c0-5.54-4.46-10-10-10-1.17 0-2.3.19-3.38.56l.7 1.94c.85-.34 1.74-.53 2.68-.53 4.41 0 8.03 3.62 8.03 8.03 0 4.41-3.62 8.03-8.03 8.03-4.41 0-8.03-3.62-8.03-8.03 0-.94.19-1.88.53-2.72l-1.94-.66C2.19 9.7 2 10.83 2 12c0 5.54 4.46 10 10 10s10-4.46 10-10M5.47 3.97c.85 0 1.53.71 1.53 1.5C7 6.32 6.32 7 5.47 7c-.79 0-1.5-.68-1.5-1.53 0-.79.71-1.5 1.5-1.5M18 12c0-3.33-2.67-6-6-6s-6 2.67-6 6 2.67 6 6 6 6-2.67 6-6m-7-3v6H9V9m6 0v6h-2V9" transform="translate(360) scale(1.5)" id="mdi-motion-pause" fill="#555"/><path d="M22 12c0-5.54-4.46-10-10-10-1.17 0-2.3.19-3.38.56l.7 1.94c.85-.34 1.74-.53 2.68-.53 4.41 0 8.03 3.62 8.03 8.03 0 4.41-3.62 8.03-8.03 8.03-4.41 0-8.03-3.62-8.03-8.03 0-.94.19-1.88.53-2.72l-1.94-.66C2.19 9.7 2 10.83 2 12c0 5.54 4.46 10 10 10s10-4.46 10-10M5.47 3.97c.85 0 1.53.71 1.53 1.5C7 6.32 6.32 7 5.47 7c-.79 0-1.5-.68-1.5-1.53 0-.79.71-1.5 1.5-1.5M18 12c0-3.33-2.67-6-6-6s-6 2.67-6 6 2.67 6 6 6 6-2.67 6-6m-7-3v6H9V9m6 0v6h-2V9" transform="translate(396) scale(1.5)" id="mdi-motion-pause" fill="#fff"/><path d="M22 12c0-5.54-4.46-10-10-10-1.17 0-2.3.19-3.38.56l.7 1.94c.85-.34 1.74-.53 2.68-.53 4.41 0 8.03 3.62 8.03 8.03 0 4.41-3.62 8.03-8.03 8.03-4.41 0-8.03-3.62-8.03-8.03 0-.94.19-1.88.53-2.72l-1.94-.66C2.19 9.7 2 10.83 2 12c0 5.54 4.46 10 10 10s10-4.46 10-10M5.47 7c-.79 0-1.5-.68-1.5-1.53 0-.79.71-1.5 1.5-1.5.85 0 1.53.71 1.53 1.5C7 6.32 6.32 7 5.47 7M9 9h2v6H9m4-6h2v6h-2" transform="translate(432) scale(1.5)" id="mdi-motion-pause-outline" fill="#555"/><path d="M22 12c0-5.54-4.46-10-10-10-1.17 0-2.3.19-3.38.56l.7 1.94c.85-.34 1.74-.53 2.68-.53 4.41 0 8.03 3.62 8.03 8.03 0 4.41-3.62 8.03-8.03 8.03-4.41 0-8.03-3.62-8.03-8.03 0-.94.19-1.88.53-2.72l-1.94-.66C2.19 9.7 2 10.83 2 12c0 5.54 4.46 10 10 10s10-4.46 10-10M5.47 7c-.79 0-1.5-.68-1.5-1.53 0-.79.71-1.5 1.5-1.5.85 0 1.53.71 1.53 1.5C7 6.32 6.32 7 5.47 7M9 9h2v6H9m4-6h2v6h-2" transform="translate(468) scale(1.5)" id="mdi-motion-pause-outline" fill="#fff"/><path d="M22 12c0-5.54-4.46-10-10-10-1.17 0-2.3.19-3.38.56l.7 1.94c.85-.34 1.74-.53 2.68-.53 4.41 0 8.03 3.62 8.03 8.03 0 4.41-3.62 8.03-8.03 8.03-4.41 0-8.03-3.62-8.03-8.03 0-.94.19-1.88.53-2.72l-1.94-.66C2.19 9.7 2 10.83 2 12c0 5.54 4.46 10 10 10s10-4.46 10-10M5.47 3.97c.85 0 1.53.71 1.53 1.5C7 6.32 6.32 7 5.47 7c-.79 0-1.5-.68-1.5-1.53 0-.79.71-1.5 1.5-1.5M18 12c0-3.33-2.67-6-6-6s-6 2.67-6 6 2.67 6 6 6 6-2.67 6-6m-3 0-5 3V9" transform="translate(504) scale(1.5)" id="mdi-motion-play" fill="#555"/><path d="M22 12c0-5.54-4.46-10-10-10-1.17 0-2.3.19-3.38.56l.7 1.94c.85-.34 1.74-.53 2.68-.53 4.41 0 8.03 3.62 8.03 8.03 0 4.41-3.62 8.03-8.03 8.03-4.41 0-8.03-3.62-8.03-8.03 0-.94.19-1.88.53-2.72l-1.94-.66C2.19 9.7 2 10.83 2 12c0 5.54 4.46 10 10 10s10-4.46 10-10M5.47 3.97c.85 0 1.53.71 1.53 1.5C7 6.32 6.32 7 5.47 7c-.79 0-1.5-.68-1.5-1.53 0-.79.71-1.5 1.5-1.5M18 12c0-3.33-2.67-6-6-6s-6 2.67-6 6 2.67 6 6 6 6-2.67 6-6m-3 0-5 3V9" transform="translate(540) scale(1.5)" id="mdi-motion-play" fill="#fff"/><path d="m10 16.5 6-4.5-6-4.5M22 12c0-5.54-4.46-10-10-10-1.17 0-2.3.19-3.38.56l.7 1.94c.85-.34 1.74-.53 2.68-.53 4.41 0 8.03 3.62 8.03 8.03 0 4.41-3.62 8.03-8.03 8.03-4.41 0-8.03-3.62-8.03-8.03 0-.94.19-1.88.53-2.72l-1.94-.66C2.19 9.7 2 10.83 2 12c0 5.54 4.46 10 10 10s10-4.46 10-10M5.47 3.97c.85 0 1.53.71 1.53 1.5C7 6.32 6.32 7 5.47 7c-.79 0-1.5-.68-1.5-1.53 0-.79.71-1.5 1.5-1.5Z" transform="translate(576) scale(1.5)" id="mdi-motion-play-outline" fill="#555"/><path d="m10 16.5 6-4.5-6-4.5M22 12c0-5.54-4.46-10-10-10-1.17 0-2.3.19-3.38.56l.7 1.94c.85-.34 1.74-.53 2.68-.53 4.41 0 8.03 3.62 8.03 8.03 0 4.41-3.62 8.03-8.03 8.03-4.41 0-8.03-3.62-8.03-8.03 0-.94.19-1.88.53-2.72l-1.94-.66C2.19 9.7 2 10.83 2 12c0 5.54 4.46 10 10 10s10-4.46 10-10M5.47 3.97c.85 0 1.53.71 1.53 1.5C7 6.32 6.32 7 5.47 7c-.79 0-1.5-.68-1.5-1.53 0-.79.71-1.5 1.5-1.5Z" transform="translate(612) scale(1.5)" id="mdi-motion-play-outline" fill="#fff"/><path d="M10 .2C9 .2 8.2 1 8.2 2S9 3.8 10 3.8 11.8 3 11.8 2 11 .2 10 .2m5.67.8A7.33 7.33 0 0 0 23 8.33V7a6 6 0 0 1-6-6h-1.33m2.66 0c0 2.58 2.09 4.67 4.67 4.67V4.33c-1.84 0-3.33-1.49-3.33-3.33h-1.34M21 1a2 2 0 0 0 2 2V1h-2M7.92 4.03c-.17 0-.34.03-.5.08L2 5.8V11h1.8V7.33l2.11-.66L2 22h1.8l2.87-8.11L9 17v5h1.8v-6.41l-2.49-4.54.73-2.87L10.12 10H15V8.2h-3.62l-2-3.33c-.3-.5-.84-.84-1.46-.84Z" transform="translate(648) scale(1.5)" id="mdi-motion-sensor" fill="#555"/><path d="M10 .2C9 .2 8.2 1 8.2 2S9 3.8 10 3.8 11.8 3 11.8 2 11 .2 10 .2m5.67.8A7.33 7.33 0 0 0 23 8.33V7a6 6 0 0 1-6-6h-1.33m2.66 0c0 2.58 2.09 4.67 4.67 4.67V4.33c-1.84 0-3.33-1.49-3.33-3.33h-1.34M21 1a2 2 0 0 0 2 2V1h-2M7.92 4.03c-.17 0-.34.03-.5.08L2 5.8V11h1.8V7.33l2.11-.66L2 22h1.8l2.87-8.11L9 17v5h1.8v-6.41l-2.49-4.54.73-2.87L10.12 10H15V8.2h-3.62l-2-3.33c-.3-.5-.84-.84-1.46-.84Z" transform="translate(684) scale(1.5)" id="mdi-motion-sensor" fill="#fff"/><path d="M11.4 8.2H15V10h-1.8l-1.8-1.8M19.67 1h-1.34c0 2.58 2.09 4.67 4.67 4.67V4.33c-1.84 0-3.33-1.49-3.33-3.33M21 1a2 2 0 0 0 2 2V1h-2m-4 0h-1.33c0 4.05 3.28 7.33 7.33 7.33V7c-3.31 0-6-2.69-6-6m-7 2.8c1 0 1.8-.8 1.8-1.8S11 .2 10 .2 8.2 1 8.2 2 9 3.8 10 3.8M2.39 1.73 1.11 3l2.35 2.35L2 5.8V11h1.8V7.33l1.25-.39.63.63L2 22h1.8l2.87-8.11L9 17v5h1.8v-6.41l-2.49-4.54.19-.68 12.34 12.36 1.27-1.27L2.39 1.73m6.99 3.14c-.3-.5-.84-.84-1.46-.84-.17 0-.34.03-.5.08l-.08.03 4.01 4.01-1.97-3.28Z" transform="matrix(1.5 0 0 1.5 0 36)" id="mdi-motion-sensor-off" fill="#555"/><path d="M11.4 8.2H15V10h-1.8l-1.8-1.8M19.67 1h-1.34c0 2.58 2.09 4.67 4.67 4.67V4.33c-1.84 0-3.33-1.49-3.33-3.33M21 1a2 2 0 0 0 2 2V1h-2m-4 0h-1.33c0 4.05 3.28 7.33 7.33 7.33V7c-3.31 0-6-2.69-6-6m-7 2.8c1 0 1.8-.8 1.8-1.8S11 .2 10 .2 8.2 1 8.2 2 9 3.8 10 3.8M2.39 1.73 1.11 3l2.35 2.35L2 5.8V11h1.8V7.33l1.25-.39.63.63L2 22h1.8l2.87-8.11L9 17v5h1.8v-6.41l-2.49-4.54.19-.68 12.34 12.36 1.27-1.27L2.39 1.73m6.99 3.14c-.3-.5-.84-.84-1.46-.84-.17 0-.34.03-.5.08l-.08.03 4.01 4.01-1.97-3.28Z" transform="matrix(1.5 0 0 1.5 36 36)" id="mdi-motion-sensor-off" fill="#fff"/><path d="m17.42 10-4.01-4H9v2h3.59l2 2H6.5C4 10 2 12 2 14.5S4 19 6.5 19c2.22 0 4.06-1.62 4.42-3.73L13.04 14c-.04.17-.04.33-.04.5 0 2.5 2 4.5 4.5 4.5s4.5-2 4.5-4.5-2-4.5-4.5-4.5m-8.66 5.26C8.5 16.27 7.58 17 6.47 17a2.5 2.5 0 0 1 0-5c1.12 0 2.03.74 2.37 1.75H6v1.5l2.84.01M17.47 17a2.5 2.5 0 0 1 0-5 2.5 2.5 0 0 1 2.5 2.5 2.5 2.5 0 0 1-2.5 2.5Z" transform="matrix(1.5 0 0 1.5 72 36)" id="mdi-motorbike" fill="#555"/><path d="m17.42 10-4.01-4H9v2h3.59l2 2H6.5C4 10 2 12 2 14.5S4 19 6.5 19c2.22 0 4.06-1.62 4.42-3.73L13.04 14c-.04.17-.04.33-.04.5 0 2.5 2 4.5 4.5 4.5s4.5-2 4.5-4.5-2-4.5-4.5-4.5m-8.66 5.26C8.5 16.27 7.58 17 6.47 17a2.5 2.5 0 0 1 0-5c1.12 0 2.03.74 2.37 1.75H6v1.5l2.84.01M17.47 17a2.5 2.5 0 0 1 0-5 2.5 2.5 0 0 1 2.5 2.5 2.5 2.5 0 0 1-2.5 2.5Z" transform="matrix(1.5 0 0 1.5 108 36)" id="mdi-motorbike" fill="#fff"/><path d="m17.42 8-4.01-4H9v2h3.59l2 2H6.5C4 8 2 10 2 12.5S4 17 6.5 17c2.22 0 4.06-1.62 4.42-3.73L13.04 12c-.04.17-.04.33-.04.5 0 2.5 2 4.5 4.5 4.5s4.5-2 4.5-4.5S20 8 17.5 8m-8.66 5.26C8.5 14.27 7.58 15 6.47 15a2.5 2.5 0 0 1 0-5c1.12 0 2.03.74 2.37 1.75H6v1.5l2.84.01M17.47 15a2.5 2.5 0 0 1 0-5 2.5 2.5 0 0 1 0 5M11 20H7l6 3v-2h4l-6-3v2Z" transform="matrix(1.5 0 0 1.5 144 36)" id="mdi-motorbike-electric" fill="#555"/><path d="m17.42 8-4.01-4H9v2h3.59l2 2H6.5C4 8 2 10 2 12.5S4 17 6.5 17c2.22 0 4.06-1.62 4.42-3.73L13.04 12c-.04.17-.04.33-.04.5 0 2.5 2 4.5 4.5 4.5s4.5-2 4.5-4.5S20 8 17.5 8m-8.66 5.26C8.5 14.27 7.58 15 6.47 15a2.5 2.5 0 0 1 0-5c1.12 0 2.03.74 2.37 1.75H6v1.5l2.84.01M17.47 15a2.5 2.5 0 0 1 0-5 2.5 2.5 0 0 1 0 5M11 20H7l6 3v-2h4l-6-3v2Z" transform="matrix(1.5 0 0 1.5 180 36)" id="mdi-motorbike-electric" fill="#fff"/><path d="M11 1.07C7.05 1.56 4 4.92 4 9h7m-7 6a8 8 0 0 0 8 8 8 8 0 0 0 8-8v-4H4m9-9.93V9h7c0-4.08-3.06-7.44-7-7.93Z" transform="matrix(1.5 0 0 1.5 216 36)" id="mdi-mouse" fill="#555"/><path d="M11 1.07C7.05 1.56 4 4.92 4 9h7m-7 6a8 8 0 0 0 8 8 8 8 0 0 0 8-8v-4H4m9-9.93V9h7c0-4.08-3.06-7.44-7-7.93Z" transform="matrix(1.5 0 0 1.5 252 36)" id="mdi-mouse" fill="#fff"/><path d="M20 7h.5l2.85 2.85L21.21 12l2.14 2.14L20.5 17H20v-3.79l-2.29 2.29-.71-.71L19.79 12 17 9.21l.71-.71L20 10.79V7m1 1.91v1.88l.94-.94-.94-.94m0 4.3v1.87l.94-.94-.94-.93M15 9v1H9V2.07c3.39.49 6 3.4 6 6.93M1 10V9c0-3.53 2.61-6.44 6-6.93V10H1m14 5a7 7 0 0 1-7 7 7 7 0 0 1-7-7v-3h14v3Z" transform="matrix(1.5 0 0 1.5 288 36)" id="mdi-mouse-bluetooth" fill="#555"/><path d="M20 7h.5l2.85 2.85L21.21 12l2.14 2.14L20.5 17H20v-3.79l-2.29 2.29-.71-.71L19.79 12 17 9.21l.71-.71L20 10.79V7m1 1.91v1.88l.94-.94-.94-.94m0 4.3v1.87l.94-.94-.94-.93M15 9v1H9V2.07c3.39.49 6 3.4 6 6.93M1 10V9c0-3.53 2.61-6.44 6-6.93V10H1m14 5a7 7 0 0 1-7 7 7 7 0 0 1-7-7v-3h14v3Z" transform="matrix(1.5 0 0 1.5 324 36)" id="mdi-mouse-bluetooth" fill="#fff"/><path d="M7 9H2c0-2.96 2.17-5.43 5-5.91V9m13-2h-2v6h-3l4 4 4-4h-3V7M9 3.09V9h5c0-2.96-2.17-5.43-5-5.91M2 15c0 3.3 2.7 6 6 6s6-2.7 6-6v-4H2v4Z" transform="matrix(1.5 0 0 1.5 360 36)" id="mdi-mouse-move-down" fill="#555"/><path d="M7 9H2c0-2.96 2.17-5.43 5-5.91V9m13-2h-2v6h-3l4 4 4-4h-3V7M9 3.09V9h5c0-2.96-2.17-5.43-5-5.91M2 15c0 3.3 2.7 6 6 6s6-2.7 6-6v-4H2v4Z" transform="matrix(1.5 0 0 1.5 396 36)" id="mdi-mouse-move-down" fill="#fff"/><path d="M7 9H2c0-2.96 2.17-5.43 5-5.91V9m11 8h2v-6h3l-4-4-4 4h3v6M9 3.09V9h5c0-2.96-2.17-5.43-5-5.91M2 15c0 3.3 2.7 6 6 6s6-2.7 6-6v-4H2v4Z" transform="matrix(1.5 0 0 1.5 432 36)" id="mdi-mouse-move-up" fill="#555"/><path d="M7 9H2c0-2.96 2.17-5.43 5-5.91V9m11 8h2v-6h3l-4-4-4 4h3v6M9 3.09V9h5c0-2.96-2.17-5.43-5-5.91M2 15c0 3.3 2.7 6 6 6s6-2.7 6-6v-4H2v4Z" transform="matrix(1.5 0 0 1.5 468 36)" id="mdi-mouse-move-up" fill="#fff"/><path d="M20 6h3l-4-4-4 4h3v12h-3l4 4 4-4h-3V6M9 3.09c2.83.48 5 2.95 5 5.91H9V3.09M14 11v4c0 3.3-2.7 6-6 6s-6-2.7-6-6v-4h12M7 9H2c0-2.96 2.17-5.43 5-5.91V9Z" transform="matrix(1.5 0 0 1.5 504 36)" id="mdi-mouse-move-vertical" fill="#555"/><path d="M20 6h3l-4-4-4 4h3v12h-3l4 4 4-4h-3V6M9 3.09c2.83.48 5 2.95 5 5.91H9V3.09M14 11v4c0 3.3-2.7 6-6 6s-6-2.7-6-6v-4h12M7 9H2c0-2.96 2.17-5.43 5-5.91V9Z" transform="matrix(1.5 0 0 1.5 540 36)" id="mdi-mouse-move-vertical" fill="#fff"/><path d="M2 5.27 3.28 4 20 20.72 18.73 22l-1.23-1.21A7.892 7.892 0 0 1 12 23a8 8 0 0 1-8-8v-4h3.73l-2-2H4c0-.54.05-1.07.15-1.58L2 5.27m9-4.2V9h-.18L5.79 3.96A7.95 7.95 0 0 1 11 1.07M20 11v4c0 .95-.17 1.86-.47 2.71L12.82 11H20m-7-9.93c3.94.49 7 3.85 7 7.93h-7V1.07Z" transform="matrix(1.5 0 0 1.5 576 36)" id="mdi-mouse-off" fill="#555"/><path d="M2 5.27 3.28 4 20 20.72 18.73 22l-1.23-1.21A7.892 7.892 0 0 1 12 23a8 8 0 0 1-8-8v-4h3.73l-2-2H4c0-.54.05-1.07.15-1.58L2 5.27m9-4.2V9h-.18L5.79 3.96A7.95 7.95 0 0 1 11 1.07M20 11v4c0 .95-.17 1.86-.47 2.71L12.82 11H20m-7-9.93c3.94.49 7 3.85 7 7.93h-7V1.07Z" transform="matrix(1.5 0 0 1.5 612 36)" id="mdi-mouse-off" fill="#fff"/><path d="M14 7h-4V2.1A5 5 0 0 1 14 7M4 7a5 5 0 0 1 4-4.9V7H4m10 5a5 5 0 0 1-4 4.9V18a3 3 0 0 0 3 3 3 3 0 0 0 3-3v-5a4 4 0 0 1 4-4h2l-1 1 1 1h-2a2 2 0 0 0-2 2v5a5 5 0 0 1-5 5 5 5 0 0 1-5-5v-1.1A5 5 0 0 1 4 12V9h10v3Z" transform="matrix(1.5 0 0 1.5 648 36)" id="mdi-mouse-variant" fill="#555"/><path d="M14 7h-4V2.1A5 5 0 0 1 14 7M4 7a5 5 0 0 1 4-4.9V7H4m10 5a5 5 0 0 1-4 4.9V18a3 3 0 0 0 3 3 3 3 0 0 0 3-3v-5a4 4 0 0 1 4-4h2l-1 1 1 1h-2a2 2 0 0 0-2 2v5a5 5 0 0 1-5 5 5 5 0 0 1-5-5v-1.1A5 5 0 0 1 4 12V9h10v3Z" transform="matrix(1.5 0 0 1.5 684 36)" id="mdi-mouse-variant" fill="#fff"/><path d="M2 5.27 3.28 4 20 20.72 18.73 22l-1.44-1.44C16.42 22 14.82 23 13 23a5 5 0 0 1-5-5v-1.1A5 5 0 0 1 4 12V9h1.73L2 5.27M14 7h-4V2.1A5 5 0 0 1 14 7M8 2.1v4.08L5.38 3.55C6.07 2.83 7 2.31 8 2.1m6 9.9v.17L10.82 9H14v3m-4 4.9V18a3 3 0 0 0 3 3c1.28 0 2.37-.8 2.8-1.93l-3.4-3.4c-.66.61-1.48 1.04-2.4 1.23m6-3.9a4 4 0 0 1 4-4h2l-1 1 1 1h-2a2 2 0 0 0-2 2v3.18l-2-2V13Z" transform="matrix(1.5 0 0 1.5 0 72)" id="mdi-mouse-variant-off" fill="#555"/><path d="M2 5.27 3.28 4 20 20.72 18.73 22l-1.44-1.44C16.42 22 14.82 23 13 23a5 5 0 0 1-5-5v-1.1A5 5 0 0 1 4 12V9h1.73L2 5.27M14 7h-4V2.1A5 5 0 0 1 14 7M8 2.1v4.08L5.38 3.55C6.07 2.83 7 2.31 8 2.1m6 9.9v.17L10.82 9H14v3m-4 4.9V18a3 3 0 0 0 3 3c1.28 0 2.37-.8 2.8-1.93l-3.4-3.4c-.66.61-1.48 1.04-2.4 1.23m6-3.9a4 4 0 0 1 4-4h2l-1 1 1 1h-2a2 2 0 0 0-2 2v3.18l-2-2V13Z" transform="matrix(1.5 0 0 1.5 36 72)" id="mdi-mouse-variant-off" fill="#fff"/><path d="M9 1v1h1v3H9v1h3V5h-1V2h1V1M9 7c-1.11 0-2 .89-2 2v12c0 1.11.89 2 2 2h12c1.11 0 2-.89 2-2V9c0-1.11-.89-2-2-2M1 9v3h1v-1h3v1h1V9H5v1H2V9m7 0h12v12H9m5-11v1h1v5h-4v-1h-1v3h1v-1h4v2h-1v1h3v-1h-1v-2h3v1h1v-3h-1v1h-3v-5h1v-1" transform="matrix(1.5 0 0 1.5 72 72)" id="mdi-move-resize" fill="#555"/><path d="M9 1v1h1v3H9v1h3V5h-1V2h1V1M9 7c-1.11 0-2 .89-2 2v12c0 1.11.89 2 2 2h12c1.11 0 2-.89 2-2V9c0-1.11-.89-2-2-2M1 9v3h1v-1h3v1h1V9H5v1H2V9m7 0h12v12H9m5-11v1h1v5h-4v-1h-1v3h1v-1h4v2h-1v1h3v-1h-1v-2h3v1h1v-3h-1v1h-3v-5h1v-1" transform="matrix(1.5 0 0 1.5 108 72)" id="mdi-move-resize" fill="#fff"/><path d="M1.88.46.46 1.88 5.59 7H2v2h7V2H7v3.59M11 7v2h10v6h2V9a2 2 0 0 0-2-2M7 11v10a2 2 0 0 0 2 2h6v-2H9V11m6.88 3.46-1.42 1.42L19.6 21H17v2h6v-6h-2v2.59" transform="matrix(1.5 0 0 1.5 144 72)" id="mdi-move-resize-variant" fill="#555"/><path d="M1.88.46.46 1.88 5.59 7H2v2h7V2H7v3.59M11 7v2h10v6h2V9a2 2 0 0 0-2-2M7 11v10a2 2 0 0 0 2 2h6v-2H9V11m6.88 3.46-1.42 1.42L19.6 21H17v2h6v-6h-2v2.59" transform="matrix(1.5 0 0 1.5 180 72)" id="mdi-move-resize-variant" fill="#fff"/><path d="m18 4 2 4h-3l-2-4h-2l2 4h-3l-2-4H8l2 4H7L5 4H4a2 2 0 0 0-2 2v12a2 2 0 0 0 2 2h16a2 2 0 0 0 2-2V4h-4Z" transform="matrix(1.5 0 0 1.5 216 72)" id="mdi-movie" fill="#555"/><path d="m18 4 2 4h-3l-2-4h-2l2 4h-3l-2-4H8l2 4H7L5 4H4a2 2 0 0 0-2 2v12a2 2 0 0 0 2 2h16a2 2 0 0 0 2-2V4h-4Z" transform="matrix(1.5 0 0 1.5 252 72)" id="mdi-movie" fill="#fff"/><path d="M13 19c0 .34.04.67.09 1H4a2 2 0 0 1-2-2V6a2 2 0 0 1 2-2h1l2 4h3L8 4h2l2 4h3l-2-4h2l2 4h3l-2-4h4v9.81c-.88-.51-1.9-.81-3-.81-3.31 0-6 2.69-6 6m8.34-3.16-3.59 3.59-1.59-1.59L15 19l2.75 3 4.75-4.75-1.16-1.41Z" transform="matrix(1.5 0 0 1.5 288 72)" id="mdi-movie-check" fill="#555"/><path d="M13 19c0 .34.04.67.09 1H4a2 2 0 0 1-2-2V6a2 2 0 0 1 2-2h1l2 4h3L8 4h2l2 4h3l-2-4h2l2 4h3l-2-4h4v9.81c-.88-.51-1.9-.81-3-.81-3.31 0-6 2.69-6 6m8.34-3.16-3.59 3.59-1.59-1.59L15 19l2.75 3 4.75-4.75-1.16-1.41Z" transform="matrix(1.5 0 0 1.5 324 72)" id="mdi-movie-check" fill="#fff"/><path d="M13 19c0 .34.04.67.09 1H4a2 2 0 0 1-2-2V6a2 2 0 0 1 2-2h1l2 4h3L8 4h2l2 4h3l-2-4h2l2 4h3l-2-4h4v9.81c-.61-.35-1.28-.59-2-.72V10H5.76L4 6.47V18h9.09c-.05.33-.09.66-.09 1m8.34-3.16-3.59 3.59-1.59-1.59L15 19l2.75 3 4.75-4.75-1.16-1.41Z" transform="matrix(1.5 0 0 1.5 360 72)" id="mdi-movie-check-outline" fill="#555"/><path d="M13 19c0 .34.04.67.09 1H4a2 2 0 0 1-2-2V6a2 2 0 0 1 2-2h1l2 4h3L8 4h2l2 4h3l-2-4h2l2 4h3l-2-4h4v9.81c-.61-.35-1.28-.59-2-.72V10H5.76L4 6.47V18h9.09c-.05.33-.09.66-.09 1m8.34-3.16-3.59 3.59-1.59-1.59L15 19l2.75 3 4.75-4.75-1.16-1.41Z" transform="matrix(1.5 0 0 1.5 396 72)" id="mdi-movie-check-outline" fill="#fff"/><path d="M12 19c0 .34.03.67.08 1H4a2 2 0 0 1-2-2V6a2 2 0 0 1 2-2h1l2 4h3L8 4h2l2 4h3l-2-4h2l2 4h3l-2-4h4v8.68A6.995 6.995 0 0 0 12 19m11.8 1.4c.1 0 .1.1 0 .2l-1 1.7c-.1.1-.2.1-.3.1l-1.2-.4c-.3.2-.5.3-.8.5l-.2 1.3c0 .1-.1.2-.2.2h-2c-.1 0-.2-.1-.3-.2l-.2-1.3c-.3-.1-.6-.3-.8-.5l-1.2.5c-.1 0-.2 0-.3-.1l-1-1.7c-.1-.1 0-.2.1-.3l1.1-.8v-1l-1.1-.8c-.1-.1-.1-.2-.1-.3l1-1.7c.1-.1.2-.1.3-.1l1.2.5c.3-.2.5-.3.8-.5l.2-1.3c0-.1.1-.2.3-.2h2c.1 0 .2.1.2.2l.2 1.3c.3.1.6.3.9.5l1.2-.5c.1 0 .3 0 .3.1l1 1.7c.1.1 0 .2-.1.3l-1.1.8v1l1.1.8M20.5 19c0-.8-.7-1.5-1.5-1.5s-1.5.7-1.5 1.5.7 1.5 1.5 1.5 1.5-.7 1.5-1.5Z" transform="matrix(1.5 0 0 1.5 432 72)" id="mdi-movie-cog" fill="#555"/><path d="M12 19c0 .34.03.67.08 1H4a2 2 0 0 1-2-2V6a2 2 0 0 1 2-2h1l2 4h3L8 4h2l2 4h3l-2-4h2l2 4h3l-2-4h4v8.68A6.995 6.995 0 0 0 12 19m11.8 1.4c.1 0 .1.1 0 .2l-1 1.7c-.1.1-.2.1-.3.1l-1.2-.4c-.3.2-.5.3-.8.5l-.2 1.3c0 .1-.1.2-.2.2h-2c-.1 0-.2-.1-.3-.2l-.2-1.3c-.3-.1-.6-.3-.8-.5l-1.2.5c-.1 0-.2 0-.3-.1l-1-1.7c-.1-.1 0-.2.1-.3l1.1-.8v-1l-1.1-.8c-.1-.1-.1-.2-.1-.3l1-1.7c.1-.1.2-.1.3-.1l1.2.5c.3-.2.5-.3.8-.5l.2-1.3c0-.1.1-.2.3-.2h2c.1 0 .2.1.2.2l.2 1.3c.3.1.6.3.9.5l1.2-.5c.1 0 .3 0 .3.1l1 1.7c.1.1 0 .2-.1.3l-1.1.8v1l1.1.8M20.5 19c0-.8-.7-1.5-1.5-1.5s-1.5.7-1.5 1.5.7 1.5 1.5 1.5 1.5-.7 1.5-1.5Z" transform="matrix(1.5 0 0 1.5 468 72)" id="mdi-movie-cog" fill="#fff"/><path d="M12 19c0 .34.03.67.08 1H4a2 2 0 0 1-2-2V6a2 2 0 0 1 2-2h1l2 4h3L8 4h2l2 4h3l-2-4h2l2 4h3l-2-4h4v8.68a7.03 7.03 0 0 0-2-.6V10H5.76L4 6.47V18h8.08c-.05.33-.08.66-.08 1m11.8 1.4c.1 0 .1.1 0 .2l-1 1.7c-.1.1-.2.1-.3.1l-1.2-.4c-.3.2-.5.3-.8.5l-.2 1.3c0 .1-.1.2-.2.2h-2c-.1 0-.2-.1-.3-.2l-.2-1.3c-.3-.1-.6-.3-.8-.5l-1.2.5c-.1 0-.2 0-.3-.1l-1-1.7c-.1-.1 0-.2.1-.3l1.1-.8v-1l-1.1-.8c-.1-.1-.1-.2-.1-.3l1-1.7c.1-.1.2-.1.3-.1l1.2.5c.3-.2.5-.3.8-.5l.2-1.3c0-.1.1-.2.3-.2h2c.1 0 .2.1.2.2l.2 1.3c.3.1.6.3.9.5l1.2-.5c.1 0 .3 0 .3.1l1 1.7c.1.1 0 .2-.1.3l-1.1.8v1l1.1.8M20.5 19c0-.8-.7-1.5-1.5-1.5s-1.5.7-1.5 1.5.7 1.5 1.5 1.5 1.5-.7 1.5-1.5Z" transform="matrix(1.5 0 0 1.5 504 72)" id="mdi-movie-cog-outline" fill="#555"/><path d="M12 19c0 .34.03.67.08 1H4a2 2 0 0 1-2-2V6a2 2 0 0 1 2-2h1l2 4h3L8 4h2l2 4h3l-2-4h2l2 4h3l-2-4h4v8.68a7.03 7.03 0 0 0-2-.6V10H5.76L4 6.47V18h8.08c-.05.33-.08.66-.08 1m11.8 1.4c.1 0 .1.1 0 .2l-1 1.7c-.1.1-.2.1-.3.1l-1.2-.4c-.3.2-.5.3-.8.5l-.2 1.3c0 .1-.1.2-.2.2h-2c-.1 0-.2-.1-.3-.2l-.2-1.3c-.3-.1-.6-.3-.8-.5l-1.2.5c-.1 0-.2 0-.3-.1l-1-1.7c-.1-.1 0-.2.1-.3l1.1-.8v-1l-1.1-.8c-.1-.1-.1-.2-.1-.3l1-1.7c.1-.1.2-.1.3-.1l1.2.5c.3-.2.5-.3.8-.5l.2-1.3c0-.1.1-.2.3-.2h2c.1 0 .2.1.2.2l.2 1.3c.3.1.6.3.9.5l1.2-.5c.1 0 .3 0 .3.1l1 1.7c.1.1 0 .2-.1.3l-1.1.8v1l1.1.8M20.5 19c0-.8-.7-1.5-1.5-1.5s-1.5.7-1.5 1.5.7 1.5 1.5 1.5 1.5-.7 1.5-1.5Z" transform="matrix(1.5 0 0 1.5 540 72)" id="mdi-movie-cog-outline" fill="#fff"/><path d="M21.04 11.13c-.14 0-.28.06-.39.17l-1 1 2.05 2.05 1-1c.22-.21.22-.56 0-.77l-1.28-1.28a.533.533 0 0 0-.38-.17m-1.97 1.75L13 18.94V21h2.06l6.06-6.07-2.05-2.05M11 20H3a2 2 0 0 1-2-2V6a2 2 0 0 1 2-2h1l2 4h3L7 4h2l2 4h3l-2-4h2l2 4h3l-2-4h4v4.12l-10 9.99V20Z" transform="matrix(1.5 0 0 1.5 576 72)" id="mdi-movie-edit" fill="#555"/><path d="M21.04 11.13c-.14 0-.28.06-.39.17l-1 1 2.05 2.05 1-1c.22-.21.22-.56 0-.77l-1.28-1.28a.533.533 0 0 0-.38-.17m-1.97 1.75L13 18.94V21h2.06l6.06-6.07-2.05-2.05M11 20H3a2 2 0 0 1-2-2V6a2 2 0 0 1 2-2h1l2 4h3L7 4h2l2 4h3l-2-4h2l2 4h3l-2-4h4v4.12l-10 9.99V20Z" transform="matrix(1.5 0 0 1.5 612 72)" id="mdi-movie-edit" fill="#fff"/><path d="M21 4v4.12L19.12 10H4.76L3 6.47V18h8v2H3a2 2 0 0 1-2-2V6a2 2 0 0 1 2-2h1l2 4h3L7 4h2l2 4h3l-2-4h2l2 4h3l-2-4h4m.42 8.3 1.28 1.28c.22.21.22.56 0 .77l-1 1-2.05-2.05 1-1c.11-.11.25-.17.39-.17s.27.06.38.17m-.3 3.63L15.06 22H13v-2.06l6.07-6.06 2.05 2.05Z" transform="matrix(1.5 0 0 1.5 648 72)" id="mdi-movie-edit-outline" fill="#555"/><path d="M21 4v4.12L19.12 10H4.76L3 6.47V18h8v2H3a2 2 0 0 1-2-2V6a2 2 0 0 1 2-2h1l2 4h3L7 4h2l2 4h3l-2-4h2l2 4h3l-2-4h4m.42 8.3 1.28 1.28c.22.21.22.56 0 .77l-1 1-2.05-2.05 1-1c.11-.11.25-.17.39-.17s.27.06.38.17m-.3 3.63L15.06 22H13v-2.06l6.07-6.06 2.05 2.05Z" transform="matrix(1.5 0 0 1.5 684 72)" id="mdi-movie-edit-outline" fill="#fff"/><path d="m18 4 2 3h-3l-2-3h-2l2 3h-3l-2-3H8l2 3H7L5 4H4c-1.1 0-2 .9-2 2v12c0 1.1.9 2 2 2h16c1.1 0 2-.9 2-2V4h-4m-6.75 11.25L10 18l-1.25-2.75L6 14l2.75-1.25L10 10l1.25 2.75L14 14l-2.75 1.25m5.69-3.31L16 14l-.94-2.06L13 11l2.06-.94L16 8l.94 2.06L19 11l-2.06.94Z" transform="matrix(1.5 0 0 1.5 0 108)" id="mdi-movie-filter" fill="#555"/><path d="m18 4 2 3h-3l-2-3h-2l2 3h-3l-2-3H8l2 3H7L5 4H4c-1.1 0-2 .9-2 2v12c0 1.1.9 2 2 2h16c1.1 0 2-.9 2-2V4h-4m-6.75 11.25L10 18l-1.25-2.75L6 14l2.75-1.25L10 10l1.25 2.75L14 14l-2.75 1.25m5.69-3.31L16 14l-.94-2.06L13 11l2.06-.94L16 8l.94 2.06L19 11l-2.06.94Z" transform="matrix(1.5 0 0 1.5 36 108)" id="mdi-movie-filter" fill="#fff"/><path d="m10 11-.94 2.06L7 14l2.06.94L10 17l.94-2.06L13 14l-2.06-.94M18 4l2 4h-3l-2-4h-2l2 4h-3l-2-4H8l2 4H7L5 4H4c-1.09 0-2 .9-2 2v12c0 1.1.91 2 2 2h16a2 2 0 0 0 2-2V4h-4m2 14H4V6.47L5.77 10H16l-.63 1.37L14 12l1.37.63L16 14l.63-1.37L18 12l-1.37-.63L16 10h4v8Z" transform="matrix(1.5 0 0 1.5 72 108)" id="mdi-movie-filter-outline" fill="#555"/><path d="m10 11-.94 2.06L7 14l2.06.94L10 17l.94-2.06L13 14l-2.06-.94M18 4l2 4h-3l-2-4h-2l2 4h-3l-2-4H8l2 4H7L5 4H4c-1.09 0-2 .9-2 2v12c0 1.1.91 2 2 2h16a2 2 0 0 0 2-2V4h-4m2 14H4V6.47L5.77 10H16l-.63 1.37L14 12l1.37.63L16 14l.63-1.37L18 12l-1.37-.63L16 10h4v8Z" transform="matrix(1.5 0 0 1.5 108 108)" id="mdi-movie-filter-outline" fill="#fff"/><path d="M13 19c0 .34.04.67.09 1H4a2 2 0 0 1-2-2V6a2 2 0 0 1 2-2h1l2 4h3L8 4h2l2 4h3l-2-4h2l2 4h3l-2-4h4v9.81c-.88-.51-1.9-.81-3-.81-3.31 0-6 2.69-6 6m2-1v2h8v-2h-8Z" transform="matrix(1.5 0 0 1.5 144 108)" id="mdi-movie-minus" fill="#555"/><path d="M13 19c0 .34.04.67.09 1H4a2 2 0 0 1-2-2V6a2 2 0 0 1 2-2h1l2 4h3L8 4h2l2 4h3l-2-4h2l2 4h3l-2-4h4v9.81c-.88-.51-1.9-.81-3-.81-3.31 0-6 2.69-6 6m2-1v2h8v-2h-8Z" transform="matrix(1.5 0 0 1.5 180 108)" id="mdi-movie-minus" fill="#fff"/><path d="M13 19c0 .34.04.67.09 1H4a2 2 0 0 1-2-2V6a2 2 0 0 1 2-2h1l2 4h3L8 4h2l2 4h3l-2-4h2l2 4h3l-2-4h4v9.81c-.61-.35-1.28-.59-2-.72V10H5.76L4 6.47V18h9.09c-.05.33-.09.66-.09 1m2-1v2h8v-2h-8Z" transform="matrix(1.5 0 0 1.5 216 108)" id="mdi-movie-minus-outline" fill="#555"/><path d="M13 19c0 .34.04.67.09 1H4a2 2 0 0 1-2-2V6a2 2 0 0 1 2-2h1l2 4h3L8 4h2l2 4h3l-2-4h2l2 4h3l-2-4h4v9.81c-.61-.35-1.28-.59-2-.72V10H5.76L4 6.47V18h9.09c-.05.33-.09.66-.09 1m2-1v2h8v-2h-8Z" transform="matrix(1.5 0 0 1.5 252 108)" id="mdi-movie-minus-outline" fill="#fff"/><path d="m22.11 21.46-1.27 1.27L18.11 20H4a2 2 0 0 1-2-2V6c0-.58.25-1.1.65-1.46L1.11 3l1.28-1.27 19.72 19.73m-.23-2.78c.08-.21.12-.44.12-.68V4h-4l2 4h-3l-2-4h-2l2 4h-3l-2-4H8l.8 1.6 13.08 13.08Z" transform="matrix(1.5 0 0 1.5 288 108)" id="mdi-movie-off" fill="#555"/><path d="m22.11 21.46-1.27 1.27L18.11 20H4a2 2 0 0 1-2-2V6c0-.58.25-1.1.65-1.46L1.11 3l1.28-1.27 19.72 19.73m-.23-2.78c.08-.21.12-.44.12-.68V4h-4l2 4h-3l-2-4h-2l2 4h-3l-2-4H8l.8 1.6 13.08 13.08Z" transform="matrix(1.5 0 0 1.5 324 108)" id="mdi-movie-off" fill="#fff"/><path d="M2.39 1.73 1.11 3l1.54 1.54C2.25 4.9 2 5.42 2 6v12a2 2 0 0 0 2 2h14.11l2.73 2.73 1.27-1.27L2.39 1.73M4 18V6.47L5.76 10h2.35l8 8H4M8.8 5.6 8 4h2l2 4h3l-2-4h2l2 4h3l-2-4h4v14c0 .24-.04.47-.12.68L20 16.8V10h-6.8L8.8 5.6Z" transform="matrix(1.5 0 0 1.5 360 108)" id="mdi-movie-off-outline" fill="#555"/><path d="M2.39 1.73 1.11 3l1.54 1.54C2.25 4.9 2 5.42 2 6v12a2 2 0 0 0 2 2h14.11l2.73 2.73 1.27-1.27L2.39 1.73M4 18V6.47L5.76 10h2.35l8 8H4M8.8 5.6 8 4h2l2 4h3l-2-4h2l2 4h3l-2-4h4v14c0 .24-.04.47-.12.68L20 16.8V10h-6.8L8.8 5.6Z" transform="matrix(1.5 0 0 1.5 396 108)" id="mdi-movie-off-outline" fill="#fff"/><path d="m20.84 2.18-3.93.78 2.74 3.54 1.97-.4-.78-3.92m-6.87 1.36L12 3.93l2.75 3.53 1.96-.39-2.74-3.53m-4.9.96-1.97.41 2.75 3.53 1.96-.39L9.07 4.5m-4.91 1-.98.19a2 2 0 0 0-1.57 2.35L2 10l4.9-.97L4.16 5.5M2 10v10a2 2 0 0 0 2 2h16c1.11 0 2-.89 2-2V10H2Z" transform="matrix(1.5 0 0 1.5 432 108)" id="mdi-movie-open" fill="#555"/><path d="m20.84 2.18-3.93.78 2.74 3.54 1.97-.4-.78-3.92m-6.87 1.36L12 3.93l2.75 3.53 1.96-.39-2.74-3.53m-4.9.96-1.97.41 2.75 3.53 1.96-.39L9.07 4.5m-4.91 1-.98.19a2 2 0 0 0-1.57 2.35L2 10l4.9-.97L4.16 5.5M2 10v10a2 2 0 0 0 2 2h16c1.11 0 2-.89 2-2V10H2Z" transform="matrix(1.5 0 0 1.5 468 108)" id="mdi-movie-open" fill="#fff"/><path d="m19.65 6.5-2.74-3.54 3.93-.78.78 3.92-1.97.4m-2.94.57-2.74-3.53-1.97.39 2.75 3.53 1.96-.39M19 13c1.1 0 2.12.3 3 .81V10H2v10a2 2 0 0 0 2 2h9.81c-.51-.88-.81-1.9-.81-3 0-3.31 2.69-6 6-6m-7.19-4.95L9.07 4.5l-1.97.41 2.75 3.53 1.96-.39M4.16 5.5l-.98.19a2.008 2.008 0 0 0-1.57 2.35L2 10l4.9-.97L4.16 5.5m17.18 10.34-3.59 3.59-1.59-1.59L15 19l2.75 3 4.75-4.75-1.16-1.41Z" transform="matrix(1.5 0 0 1.5 504 108)" id="mdi-movie-open-check" fill="#555"/><path d="m19.65 6.5-2.74-3.54 3.93-.78.78 3.92-1.97.4m-2.94.57-2.74-3.53-1.97.39 2.75 3.53 1.96-.39M19 13c1.1 0 2.12.3 3 .81V10H2v10a2 2 0 0 0 2 2h9.81c-.51-.88-.81-1.9-.81-3 0-3.31 2.69-6 6-6m-7.19-4.95L9.07 4.5l-1.97.41 2.75 3.53 1.96-.39M4.16 5.5l-.98.19a2.008 2.008 0 0 0-1.57 2.35L2 10l4.9-.97L4.16 5.5m17.18 10.34-3.59 3.59-1.59-1.59L15 19l2.75 3 4.75-4.75-1.16-1.41Z" transform="matrix(1.5 0 0 1.5 540 108)" id="mdi-movie-open-check" fill="#fff"/><path d="M14.75 7.46 12 3.93l1.97-.39 2.74 3.53-1.96.39m6.87-1.36-.78-3.92-3.93.78 2.74 3.54 1.97-.4m-9.81 1.95L9.07 4.5l-1.97.41 2.75 3.53 1.96-.39M4.16 5.5l-.98.19a1.995 1.995 0 0 0-1.57 2.35L2 10l4.9-.97L4.16 5.5M4 20v-8h16v1.09c.72.12 1.39.37 2 .72V10H2v10a2 2 0 0 0 2 2h9.81c-.35-.61-.59-1.28-.72-2H4m17.34-4.16-3.59 3.59-1.59-1.59L15 19l2.75 3 4.75-4.75-1.16-1.41Z" transform="matrix(1.5 0 0 1.5 576 108)" id="mdi-movie-open-check-outline" fill="#555"/><path d="M14.75 7.46 12 3.93l1.97-.39 2.74 3.53-1.96.39m6.87-1.36-.78-3.92-3.93.78 2.74 3.54 1.97-.4m-9.81 1.95L9.07 4.5l-1.97.41 2.75 3.53 1.96-.39M4.16 5.5l-.98.19a1.995 1.995 0 0 0-1.57 2.35L2 10l4.9-.97L4.16 5.5M4 20v-8h16v1.09c.72.12 1.39.37 2 .72V10H2v10a2 2 0 0 0 2 2h9.81c-.35-.61-.59-1.28-.72-2H4m17.34-4.16-3.59 3.59-1.59-1.59L15 19l2.75 3 4.75-4.75-1.16-1.41Z" transform="matrix(1.5 0 0 1.5 612 108)" id="mdi-movie-open-check-outline" fill="#fff"/><path d="M14.75 7.46 12 3.93l1.97-.39 2.74 3.53-1.96.39m6.87-1.36-.78-3.92-3.93.78 2.74 3.54 1.97-.4M19 12c1.08 0 2.09.25 3 .68V10H2v10a2 2 0 0 0 2 2h8.68A6.995 6.995 0 0 1 19 12m-7.19-3.95L9.07 4.5l-1.97.41 2.75 3.53 1.96-.39M4.16 5.5l-.98.19a2.008 2.008 0 0 0-1.57 2.35L2 10l4.9-.97L4.16 5.5M23.8 20.4c.1 0 .1.1 0 .2l-1 1.7c-.1.1-.2.1-.3.1l-1.2-.4c-.3.2-.5.3-.8.5l-.2 1.3c0 .1-.1.2-.2.2h-2c-.1 0-.2-.1-.3-.2l-.2-1.3c-.3-.1-.6-.3-.8-.5l-1.2.5c-.1 0-.2 0-.3-.1l-1-1.7c-.1-.1 0-.2.1-.3l1.1-.8v-1l-1.1-.8c-.1-.1-.1-.2-.1-.3l1-1.7c.1-.1.2-.1.3-.1l1.2.5c.3-.2.5-.3.8-.5l.2-1.3c0-.1.1-.2.3-.2h2c.1 0 .2.1.2.2l.2 1.3c.3.1.6.3.9.5l1.2-.5c.1 0 .3 0 .3.1l1 1.7c.1.1 0 .2-.1.3l-1.1.8v1l1.1.8M20.5 19c0-.8-.7-1.5-1.5-1.5s-1.5.7-1.5 1.5.7 1.5 1.5 1.5 1.5-.7 1.5-1.5Z" transform="matrix(1.5 0 0 1.5 648 108)" id="mdi-movie-open-cog" fill="#555"/><path d="M14.75 7.46 12 3.93l1.97-.39 2.74 3.53-1.96.39m6.87-1.36-.78-3.92-3.93.78 2.74 3.54 1.97-.4M19 12c1.08 0 2.09.25 3 .68V10H2v10a2 2 0 0 0 2 2h8.68A6.995 6.995 0 0 1 19 12m-7.19-3.95L9.07 4.5l-1.97.41 2.75 3.53 1.96-.39M4.16 5.5l-.98.19a2.008 2.008 0 0 0-1.57 2.35L2 10l4.9-.97L4.16 5.5M23.8 20.4c.1 0 .1.1 0 .2l-1 1.7c-.1.1-.2.1-.3.1l-1.2-.4c-.3.2-.5.3-.8.5l-.2 1.3c0 .1-.1.2-.2.2h-2c-.1 0-.2-.1-.3-.2l-.2-1.3c-.3-.1-.6-.3-.8-.5l-1.2.5c-.1 0-.2 0-.3-.1l-1-1.7c-.1-.1 0-.2.1-.3l1.1-.8v-1l-1.1-.8c-.1-.1-.1-.2-.1-.3l1-1.7c.1-.1.2-.1.3-.1l1.2.5c.3-.2.5-.3.8-.5l.2-1.3c0-.1.1-.2.3-.2h2c.1 0 .2.1.2.2l.2 1.3c.3.1.6.3.9.5l1.2-.5c.1 0 .3 0 .3.1l1 1.7c.1.1 0 .2-.1.3l-1.1.8v1l1.1.8M20.5 19c0-.8-.7-1.5-1.5-1.5s-1.5.7-1.5 1.5.7 1.5 1.5 1.5 1.5-.7 1.5-1.5Z" transform="matrix(1.5 0 0 1.5 684 108)" id="mdi-movie-open-cog" fill="#fff"/><path d="M14.75 7.46 12 3.93l1.97-.39 2.74 3.53-1.96.39m6.87-1.36-.78-3.92-3.93.78 2.74 3.54 1.97-.4m-9.81 1.95L9.07 4.5l-1.97.41 2.75 3.53 1.96-.39M4.16 5.5l-.98.19a1.995 1.995 0 0 0-1.57 2.35L2 10l4.9-.97L4.16 5.5M4 20v-8h16v.08c.71.1 1.38.31 2 .61V10H2v10a2 2 0 0 0 2 2h8.68a7.03 7.03 0 0 1-.6-2H4m19.8.4c.1 0 .1.1 0 .2l-1 1.7c-.1.1-.2.1-.3.1l-1.2-.4c-.3.2-.5.3-.8.5l-.2 1.3c0 .1-.1.2-.2.2h-2c-.1 0-.2-.1-.3-.2l-.2-1.3c-.3-.1-.6-.3-.8-.5l-1.2.5c-.1 0-.2 0-.3-.1l-1-1.7c-.1-.1 0-.2.1-.3l1.1-.8v-1l-1.1-.8c-.1-.1-.1-.2-.1-.3l1-1.7c.1-.1.2-.1.3-.1l1.2.5c.3-.2.5-.3.8-.5l.2-1.3c0-.1.1-.2.3-.2h2c.1 0 .2.1.2.2l.2 1.3c.3.1.6.3.9.5l1.2-.5c.1 0 .3 0 .3.1l1 1.7c.1.1 0 .2-.1.3l-1.1.8v1l1.1.8M20.5 19c0-.8-.7-1.5-1.5-1.5s-1.5.7-1.5 1.5.7 1.5 1.5 1.5 1.5-.7 1.5-1.5Z" transform="matrix(1.5 0 0 1.5 0 144)" id="mdi-movie-open-cog-outline" fill="#555"/><path d="M14.75 7.46 12 3.93l1.97-.39 2.74 3.53-1.96.39m6.87-1.36-.78-3.92-3.93.78 2.74 3.54 1.97-.4m-9.81 1.95L9.07 4.5l-1.97.41 2.75 3.53 1.96-.39M4.16 5.5l-.98.19a1.995 1.995 0 0 0-1.57 2.35L2 10l4.9-.97L4.16 5.5M4 20v-8h16v.08c.71.1 1.38.31 2 .61V10H2v10a2 2 0 0 0 2 2h8.68a7.03 7.03 0 0 1-.6-2H4m19.8.4c.1 0 .1.1 0 .2l-1 1.7c-.1.1-.2.1-.3.1l-1.2-.4c-.3.2-.5.3-.8.5l-.2 1.3c0 .1-.1.2-.2.2h-2c-.1 0-.2-.1-.3-.2l-.2-1.3c-.3-.1-.6-.3-.8-.5l-1.2.5c-.1 0-.2 0-.3-.1l-1-1.7c-.1-.1 0-.2.1-.3l1.1-.8v-1l-1.1-.8c-.1-.1-.1-.2-.1-.3l1-1.7c.1-.1.2-.1.3-.1l1.2.5c.3-.2.5-.3.8-.5l.2-1.3c0-.1.1-.2.3-.2h2c.1 0 .2.1.2.2l.2 1.3c.3.1.6.3.9.5l1.2-.5c.1 0 .3 0 .3.1l1 1.7c.1.1 0 .2-.1.3l-1.1.8v1l1.1.8M20.5 19c0-.8-.7-1.5-1.5-1.5s-1.5.7-1.5 1.5.7 1.5 1.5 1.5 1.5-.7 1.5-1.5Z" transform="matrix(1.5 0 0 1.5 36 144)" id="mdi-movie-open-cog-outline" fill="#fff"/><path d="m19.65 6.5-2.74-3.54 3.93-.78.78 3.92-1.97.4m-2.94.57-2.74-3.53-1.97.39 2.75 3.53 1.96-.39M2 10v10a2 2 0 0 0 2 2h7v-2.87L20.13 10H2m9.81-1.95L9.07 4.5l-1.97.41 2.75 3.53 1.96-.39M4.16 5.5l-.98.19a2.008 2.008 0 0 0-1.57 2.35L2 10l4.9-.97L4.16 5.5M13 19.96V22h2.04l6.13-6.12-2.04-2.05L13 19.96m9.85-6.49-1.32-1.32c-.2-.2-.53-.2-.72 0l-.98.98 2.04 2.04.98-.98c.2-.19.2-.52 0-.72Z" transform="matrix(1.5 0 0 1.5 72 144)" id="mdi-movie-open-edit" fill="#555"/><path d="m19.65 6.5-2.74-3.54 3.93-.78.78 3.92-1.97.4m-2.94.57-2.74-3.53-1.97.39 2.75 3.53 1.96-.39M2 10v10a2 2 0 0 0 2 2h7v-2.87L20.13 10H2m9.81-1.95L9.07 4.5l-1.97.41 2.75 3.53 1.96-.39M4.16 5.5l-.98.19a2.008 2.008 0 0 0-1.57 2.35L2 10l4.9-.97L4.16 5.5M13 19.96V22h2.04l6.13-6.12-2.04-2.05L13 19.96m9.85-6.49-1.32-1.32c-.2-.2-.53-.2-.72 0l-.98.98 2.04 2.04.98-.98c.2-.19.2-.52 0-.72Z" transform="matrix(1.5 0 0 1.5 108 144)" id="mdi-movie-open-edit" fill="#fff"/><path d="M14.75 7.46 12 3.93l1.97-.39 2.74 3.53-1.96.39m6.87-1.36-.78-3.92-3.93.78 2.74 3.54 1.97-.4M4 12h14.13l2-2H2v10a2 2 0 0 0 2 2h7v-2H4v-8m7.81-3.95L9.07 4.5l-1.97.41 2.75 3.53 1.96-.39M4.16 5.5l-.98.19a1.995 1.995 0 0 0-1.57 2.35L2 10l4.9-.97L4.16 5.5M13 19.96V22h2.04l6.13-6.12-2.04-2.05L13 19.96m9.85-6.49-1.32-1.32c-.2-.2-.53-.2-.72 0l-.98.98 2.04 2.04.98-.98c.2-.19.2-.52 0-.72Z" transform="matrix(1.5 0 0 1.5 144 144)" id="mdi-movie-open-edit-outline" fill="#555"/><path d="M14.75 7.46 12 3.93l1.97-.39 2.74 3.53-1.96.39m6.87-1.36-.78-3.92-3.93.78 2.74 3.54 1.97-.4M4 12h14.13l2-2H2v10a2 2 0 0 0 2 2h7v-2H4v-8m7.81-3.95L9.07 4.5l-1.97.41 2.75 3.53 1.96-.39M4.16 5.5l-.98.19a1.995 1.995 0 0 0-1.57 2.35L2 10l4.9-.97L4.16 5.5M13 19.96V22h2.04l6.13-6.12-2.04-2.05L13 19.96m9.85-6.49-1.32-1.32c-.2-.2-.53-.2-.72 0l-.98.98 2.04 2.04.98-.98c.2-.19.2-.52 0-.72Z" transform="matrix(1.5 0 0 1.5 180 144)" id="mdi-movie-open-edit-outline" fill="#fff"/><path d="M14.75 7.46 12 3.93l1.97-.39 2.74 3.53-1.96.39m6.87-1.36-.78-3.92-3.93.78 2.74 3.54 1.97-.4m-9.81 1.95L9.07 4.5l-1.97.41 2.75 3.53 1.96-.39M4.16 5.5l-.98.19a2.008 2.008 0 0 0-1.57 2.35L2 10l4.9-.97L4.16 5.5M19 13c1.1 0 2.12.3 3 .81V10H2v10a2 2 0 0 0 2 2h9.81c-.51-.88-.81-1.9-.81-3 0-3.31 2.69-6 6-6m-4 5v2h8v-2h-8Z" transform="matrix(1.5 0 0 1.5 216 144)" id="mdi-movie-open-minus" fill="#555"/><path d="M14.75 7.46 12 3.93l1.97-.39 2.74 3.53-1.96.39m6.87-1.36-.78-3.92-3.93.78 2.74 3.54 1.97-.4m-9.81 1.95L9.07 4.5l-1.97.41 2.75 3.53 1.96-.39M4.16 5.5l-.98.19a2.008 2.008 0 0 0-1.57 2.35L2 10l4.9-.97L4.16 5.5M19 13c1.1 0 2.12.3 3 .81V10H2v10a2 2 0 0 0 2 2h9.81c-.51-.88-.81-1.9-.81-3 0-3.31 2.69-6 6-6m-4 5v2h8v-2h-8Z" transform="matrix(1.5 0 0 1.5 252 144)" id="mdi-movie-open-minus" fill="#fff"/><path d="M13.09 20c.12.72.37 1.39.72 2H4a2 2 0 0 1-2-2V10h20v3.81c-.61-.35-1.28-.59-2-.72V12H4v8h9.09m8.53-13.9-.78-3.92-3.93.78 2.74 3.54 1.97-.4m-4.91.97-2.74-3.53-1.97.39 2.75 3.53 1.96-.39M4.16 5.5l-.98.19a1.995 1.995 0 0 0-1.57 2.35L2 10l4.9-.97L4.16 5.5m7.65 2.55L9.07 4.5l-1.97.41 2.75 3.53 1.96-.39M15 18v2h8v-2h-8Z" transform="matrix(1.5 0 0 1.5 288 144)" id="mdi-movie-open-minus-outline" fill="#555"/><path d="M13.09 20c.12.72.37 1.39.72 2H4a2 2 0 0 1-2-2V10h20v3.81c-.61-.35-1.28-.59-2-.72V12H4v8h9.09m8.53-13.9-.78-3.92-3.93.78 2.74 3.54 1.97-.4m-4.91.97-2.74-3.53-1.97.39 2.75 3.53 1.96-.39M4.16 5.5l-.98.19a1.995 1.995 0 0 0-1.57 2.35L2 10l4.9-.97L4.16 5.5m7.65 2.55L9.07 4.5l-1.97.41 2.75 3.53 1.96-.39M15 18v2h8v-2h-8Z" transform="matrix(1.5 0 0 1.5 324 144)" id="mdi-movie-open-minus-outline" fill="#fff"/><path d="M13.2 10H22v8.8L13.2 10m8.4-3.9-.8-3.9-3.9.8 2.7 3.5 2-.4M11.8 8 9.1 4.5l-1.2.2 3.4 3.4.5-.1M2.4 1.7 1.1 3l2.6 2.6-.5.1C2.1 5.9 1.4 7 1.6 8l.4 2 5.1-1 1 1H2v10c0 1.1.9 2 2 2h16.1l.7.7 1.3-1.3L2.4 1.7m14.3 5.4L14 3.5l-2 .4 2.8 3.5 1.9-.3Z" transform="matrix(1.5 0 0 1.5 360 144)" id="mdi-movie-open-off" fill="#555"/><path d="M13.2 10H22v8.8L13.2 10m8.4-3.9-.8-3.9-3.9.8 2.7 3.5 2-.4M11.8 8 9.1 4.5l-1.2.2 3.4 3.4.5-.1M2.4 1.7 1.1 3l2.6 2.6-.5.1C2.1 5.9 1.4 7 1.6 8l.4 2 5.1-1 1 1H2v10c0 1.1.9 2 2 2h16.1l.7.7 1.3-1.3L2.4 1.7m14.3 5.4L14 3.5l-2 .4 2.8 3.5 1.9-.3Z" transform="matrix(1.5 0 0 1.5 396 144)" id="mdi-movie-open-off" fill="#fff"/><path d="M19.7 6.5 16.9 3l3.9-.8.8 3.9-1.9.4m2.4 15-1.3 1.3-.7-.8H4c-1.1 0-2-.9-2-2V10h6.1l-1-1L2 10l-.4-2c-.2-1 .5-2.1 1.6-2.3l.5-.1L1.1 3l1.3-1.3 19.7 19.8m-4-1.5-8-8H4v8h14.1m3.9-1.2V10h-8.8l2 2H20v4.8l2 2M16.7 7.1 14 3.5l-2 .4 2.8 3.5 1.9-.3m-4.9.9L9.1 4.5l-1.2.2 3.4 3.4.5-.1Z" transform="matrix(1.5 0 0 1.5 432 144)" id="mdi-movie-open-off-outline" fill="#555"/><path d="M19.7 6.5 16.9 3l3.9-.8.8 3.9-1.9.4m2.4 15-1.3 1.3-.7-.8H4c-1.1 0-2-.9-2-2V10h6.1l-1-1L2 10l-.4-2c-.2-1 .5-2.1 1.6-2.3l.5-.1L1.1 3l1.3-1.3 19.7 19.8m-4-1.5-8-8H4v8h14.1m3.9-1.2V10h-8.8l2 2H20v4.8l2 2M16.7 7.1 14 3.5l-2 .4 2.8 3.5 1.9-.3m-4.9.9L9.1 4.5l-1.2.2 3.4 3.4.5-.1Z" transform="matrix(1.5 0 0 1.5 468 144)" id="mdi-movie-open-off-outline" fill="#fff"/><path d="m20.84 2.18-3.93.78 2.74 3.54 1.97-.4-.78-3.92m-6.87 1.36L12 3.93l2.75 3.53 1.96-.39-2.74-3.53m-4.9.96-1.97.41 2.75 3.53 1.96-.39L9.07 4.5m-4.91 1-.98.19a1.995 1.995 0 0 0-1.57 2.35L2 10l4.9-.97L4.16 5.5M20 12v8H4v-8h16m2-2H2v10a2 2 0 0 0 2 2h16c1.11 0 2-.89 2-2V10Z" transform="matrix(1.5 0 0 1.5 504 144)" id="mdi-movie-open-outline" fill="#555"/><path d="m20.84 2.18-3.93.78 2.74 3.54 1.97-.4-.78-3.92m-6.87 1.36L12 3.93l2.75 3.53 1.96-.39-2.74-3.53m-4.9.96-1.97.41 2.75 3.53 1.96-.39L9.07 4.5m-4.91 1-.98.19a1.995 1.995 0 0 0-1.57 2.35L2 10l4.9-.97L4.16 5.5M20 12v8H4v-8h16m2-2H2v10a2 2 0 0 0 2 2h16c1.11 0 2-.89 2-2V10Z" transform="matrix(1.5 0 0 1.5 540 144)" id="mdi-movie-open-outline" fill="#fff"/><path d="M14.75 7.46 12 3.93l1.97-.39 2.74 3.53-1.96.39m6.87-1.36-.78-3.92-3.93.78 2.74 3.54 1.97-.4M4.16 5.5l-.98.19a2.008 2.008 0 0 0-1.57 2.35L2 10l4.9-.97L4.16 5.5m7.65 2.55L9.07 4.5l-1.97.41 2.75 3.53 1.96-.39M2 10v10a2 2 0 0 0 2 2h9.81c-.51-.88-.81-1.9-.81-3 0-3.31 2.69-6 6-6 1.1 0 2.12.3 3 .81V10H2m15 12 5-3-5-3v6Z" transform="matrix(1.5 0 0 1.5 576 144)" id="mdi-movie-open-play" fill="#555"/><path d="M14.75 7.46 12 3.93l1.97-.39 2.74 3.53-1.96.39m6.87-1.36-.78-3.92-3.93.78 2.74 3.54 1.97-.4M4.16 5.5l-.98.19a2.008 2.008 0 0 0-1.57 2.35L2 10l4.9-.97L4.16 5.5m7.65 2.55L9.07 4.5l-1.97.41 2.75 3.53 1.96-.39M2 10v10a2 2 0 0 0 2 2h9.81c-.51-.88-.81-1.9-.81-3 0-3.31 2.69-6 6-6 1.1 0 2.12.3 3 .81V10H2m15 12 5-3-5-3v6Z" transform="matrix(1.5 0 0 1.5 612 144)" id="mdi-movie-open-play" fill="#fff"/><path d="M22 10v3.81c-.61-.35-1.28-.59-2-.72V12H4v8h9.09c.12.72.37 1.39.72 2H4a2 2 0 0 1-2-2V10h20m-5.29-2.93-2.74-3.53-1.97.39 2.75 3.53 1.96-.39m4.91-.97-.78-3.92-3.93.78 2.74 3.54 1.97-.4m-9.81 1.95L9.07 4.5l-1.97.41 2.75 3.53 1.96-.39M4.16 5.5l-.98.19a1.995 1.995 0 0 0-1.57 2.35L2 10l4.9-.97L4.16 5.5M17 22l5-3-5-3v6Z" transform="matrix(1.5 0 0 1.5 648 144)" id="mdi-movie-open-play-outline" fill="#555"/><path d="M22 10v3.81c-.61-.35-1.28-.59-2-.72V12H4v8h9.09c.12.72.37 1.39.72 2H4a2 2 0 0 1-2-2V10h20m-5.29-2.93-2.74-3.53-1.97.39 2.75 3.53 1.96-.39m4.91-.97-.78-3.92-3.93.78 2.74 3.54 1.97-.4m-9.81 1.95L9.07 4.5l-1.97.41 2.75 3.53 1.96-.39M4.16 5.5l-.98.19a1.995 1.995 0 0 0-1.57 2.35L2 10l4.9-.97L4.16 5.5M17 22l5-3-5-3v6Z" transform="matrix(1.5 0 0 1.5 684 144)" id="mdi-movie-open-play-outline" fill="#fff"/><path d="m19.65 6.5-2.74-3.54 3.93-.78.78 3.92-1.97.4m-2.94.57-2.74-3.53-1.97.39 2.75 3.53 1.96-.39M19 13c1.1 0 2.12.3 3 .81V10H2v10a2 2 0 0 0 2 2h9.81c-.51-.88-.81-1.9-.81-3 0-3.31 2.69-6 6-6m-7.19-4.95L9.07 4.5l-1.97.41 2.75 3.53 1.96-.39M4.16 5.5l-.98.19a2.008 2.008 0 0 0-1.57 2.35L2 10l4.9-.97L4.16 5.5M20 18v-3h-2v3h-3v2h3v3h2v-3h3v-2h-3Z" transform="matrix(1.5 0 0 1.5 0 180)" id="mdi-movie-open-plus" fill="#555"/><path d="m19.65 6.5-2.74-3.54 3.93-.78.78 3.92-1.97.4m-2.94.57-2.74-3.53-1.97.39 2.75 3.53 1.96-.39M19 13c1.1 0 2.12.3 3 .81V10H2v10a2 2 0 0 0 2 2h9.81c-.51-.88-.81-1.9-.81-3 0-3.31 2.69-6 6-6m-7.19-4.95L9.07 4.5l-1.97.41 2.75 3.53 1.96-.39M4.16 5.5l-.98.19a2.008 2.008 0 0 0-1.57 2.35L2 10l4.9-.97L4.16 5.5M20 18v-3h-2v3h-3v2h3v3h2v-3h3v-2h-3Z" transform="matrix(1.5 0 0 1.5 36 180)" id="mdi-movie-open-plus" fill="#fff"/><path d="M14.75 7.46 12 3.93l1.97-.39 2.74 3.53-1.96.39m6.87-1.36-.78-3.92-3.93.78 2.74 3.54 1.97-.4M4 20v-8h16v1.09c.72.12 1.39.37 2 .72V10H2v10a2 2 0 0 0 2 2h9.81c-.35-.61-.59-1.28-.72-2H4m7.81-11.95L9.07 4.5l-1.97.41 2.75 3.53 1.96-.39M4.16 5.5l-.98.19a1.995 1.995 0 0 0-1.57 2.35L2 10l4.9-.97L4.16 5.5M20 18v-3h-2v3h-3v2h3v3h2v-3h3v-2h-3Z" transform="matrix(1.5 0 0 1.5 72 180)" id="mdi-movie-open-plus-outline" fill="#555"/><path d="M14.75 7.46 12 3.93l1.97-.39 2.74 3.53-1.96.39m6.87-1.36-.78-3.92-3.93.78 2.74 3.54 1.97-.4M4 20v-8h16v1.09c.72.12 1.39.37 2 .72V10H2v10a2 2 0 0 0 2 2h9.81c-.35-.61-.59-1.28-.72-2H4m7.81-11.95L9.07 4.5l-1.97.41 2.75 3.53 1.96-.39M4.16 5.5l-.98.19a1.995 1.995 0 0 0-1.57 2.35L2 10l4.9-.97L4.16 5.5M20 18v-3h-2v3h-3v2h3v3h2v-3h3v-2h-3Z" transform="matrix(1.5 0 0 1.5 108 180)" id="mdi-movie-open-plus-outline" fill="#fff"/><path d="M14.75 7.46 12 3.93l1.97-.39 2.74 3.53-1.96.39m-2.94.59L9.07 4.5l-1.97.41 2.75 3.53 1.96-.39m9.81-1.95-.78-3.92-3.93.78 2.74 3.54 1.97-.4M19 13c1.1 0 2.12.3 3 .81V10H2v10a2 2 0 0 0 2 2h9.81c-.51-.88-.81-1.9-.81-3 0-3.31 2.69-6 6-6M4.16 5.5l-.98.19a2.008 2.008 0 0 0-1.57 2.35L2 10l4.9-.97L4.16 5.5m18.38 11.38-1.42-1.41L19 17.59l-2.12-2.12-1.41 1.41L17.59 19l-2.12 2.12 1.41 1.42L19 20.41l2.12 2.13 1.42-1.42L20.41 19l2.13-2.12Z" transform="matrix(1.5 0 0 1.5 144 180)" id="mdi-movie-open-remove" fill="#555"/><path d="M14.75 7.46 12 3.93l1.97-.39 2.74 3.53-1.96.39m-2.94.59L9.07 4.5l-1.97.41 2.75 3.53 1.96-.39m9.81-1.95-.78-3.92-3.93.78 2.74 3.54 1.97-.4M19 13c1.1 0 2.12.3 3 .81V10H2v10a2 2 0 0 0 2 2h9.81c-.51-.88-.81-1.9-.81-3 0-3.31 2.69-6 6-6M4.16 5.5l-.98.19a2.008 2.008 0 0 0-1.57 2.35L2 10l4.9-.97L4.16 5.5m18.38 11.38-1.42-1.41L19 17.59l-2.12-2.12-1.41 1.41L17.59 19l-2.12 2.12 1.41 1.42L19 20.41l2.12 2.13 1.42-1.42L20.41 19l2.13-2.12Z" transform="matrix(1.5 0 0 1.5 180 180)" id="mdi-movie-open-remove" fill="#fff"/><path d="m19.65 6.5-2.74-3.54 3.93-.78.78 3.92-1.97.4m-2.94.57-2.74-3.53-1.97.39 2.75 3.53 1.96-.39M4.16 5.5l-.98.19a1.995 1.995 0 0 0-1.57 2.35L2 10l4.9-.97L4.16 5.5m7.65 2.55L9.07 4.5l-1.97.41 2.75 3.53 1.96-.39M4 20v-8h16v1.09c.72.12 1.39.37 2 .72V10H2v10a2 2 0 0 0 2 2h9.81c-.35-.61-.59-1.28-.72-2H4m18.54-3.12-1.42-1.41L19 17.59l-2.12-2.12-1.41 1.41L17.59 19l-2.12 2.12 1.41 1.42L19 20.41l2.12 2.13 1.42-1.42L20.41 19l2.13-2.12Z" transform="matrix(1.5 0 0 1.5 216 180)" id="mdi-movie-open-remove-outline" fill="#555"/><path d="m19.65 6.5-2.74-3.54 3.93-.78.78 3.92-1.97.4m-2.94.57-2.74-3.53-1.97.39 2.75 3.53 1.96-.39M4.16 5.5l-.98.19a1.995 1.995 0 0 0-1.57 2.35L2 10l4.9-.97L4.16 5.5m7.65 2.55L9.07 4.5l-1.97.41 2.75 3.53 1.96-.39M4 20v-8h16v1.09c.72.12 1.39.37 2 .72V10H2v10a2 2 0 0 0 2 2h9.81c-.35-.61-.59-1.28-.72-2H4m18.54-3.12-1.42-1.41L19 17.59l-2.12-2.12-1.41 1.41L17.59 19l-2.12 2.12 1.41 1.42L19 20.41l2.12 2.13 1.42-1.42L20.41 19l2.13-2.12Z" transform="matrix(1.5 0 0 1.5 252 180)" id="mdi-movie-open-remove-outline" fill="#fff"/><path d="M14.75 5.46 12 1.93l1.97-.39 2.74 3.53-1.96.39m6.87-1.36L20.84.18l-3.93.78 2.74 3.54 1.97-.4m-9.81 1.95L9.07 2.5l-1.97.41 2.75 3.53 1.96-.39M2 8v10a2 2 0 0 0 2 2h16c1.11 0 2-.89 2-2V8H2m2.16-4.5-.98.19a2.008 2.008 0 0 0-1.57 2.35L2 8l4.9-.97L4.16 3.5M11 24h2v-2h-2v2m-4 0h2v-2H7v2m8 0h2v-2h-2v2Z" transform="matrix(1.5 0 0 1.5 288 180)" id="mdi-movie-open-settings" fill="#555"/><path d="M14.75 5.46 12 1.93l1.97-.39 2.74 3.53-1.96.39m6.87-1.36L20.84.18l-3.93.78 2.74 3.54 1.97-.4m-9.81 1.95L9.07 2.5l-1.97.41 2.75 3.53 1.96-.39M2 8v10a2 2 0 0 0 2 2h16c1.11 0 2-.89 2-2V8H2m2.16-4.5-.98.19a2.008 2.008 0 0 0-1.57 2.35L2 8l4.9-.97L4.16 3.5M11 24h2v-2h-2v2m-4 0h2v-2H7v2m8 0h2v-2h-2v2Z" transform="matrix(1.5 0 0 1.5 324 180)" id="mdi-movie-open-settings" fill="#fff"/><path d="M19.65 4.5 16.91.96l3.93-.78.78 3.92-1.97.4m-2.94.57-2.74-3.53-1.97.39 2.75 3.53 1.96-.39m-4.9.98L9.07 2.5l-1.97.41 2.75 3.53 1.96-.39M4.16 3.5l-.98.19a1.995 1.995 0 0 0-1.57 2.35L2 8l4.9-.97L4.16 3.5M22 8v10c0 1.11-.89 2-2 2H4a2 2 0 0 1-2-2V8h20m-2 2H4v8h16v-8M7 24h2v-2H7v2m8 0h2v-2h-2v2m-4 0h2v-2h-2v2Z" transform="matrix(1.5 0 0 1.5 360 180)" id="mdi-movie-open-settings-outline" fill="#555"/><path d="M19.65 4.5 16.91.96l3.93-.78.78 3.92-1.97.4m-2.94.57-2.74-3.53-1.97.39 2.75 3.53 1.96-.39m-4.9.98L9.07 2.5l-1.97.41 2.75 3.53 1.96-.39M4.16 3.5l-.98.19a1.995 1.995 0 0 0-1.57 2.35L2 8l4.9-.97L4.16 3.5M22 8v10c0 1.11-.89 2-2 2H4a2 2 0 0 1-2-2V8h20m-2 2H4v8h16v-8M7 24h2v-2H7v2m8 0h2v-2h-2v2m-4 0h2v-2h-2v2Z" transform="matrix(1.5 0 0 1.5 396 180)" id="mdi-movie-open-settings-outline" fill="#fff"/><path d="m19.65 6.5-2.74-3.54 3.93-.78.78 3.92-1.97.4m-2.94.57-2.74-3.53-1.97.39 2.75 3.53 1.96-.39M19 13c1.1 0 2.12.3 3 .81V10H2v10a2 2 0 0 0 2 2h9.81c-.51-.88-.81-1.9-.81-3 0-3.31 2.69-6 6-6M4.16 5.5l-.98.19a2.008 2.008 0 0 0-1.57 2.35L2 10l4.9-.97L4.16 5.5m7.65 2.55L9.07 4.5l-1.97.41 2.75 3.53 1.96-.39M23 17.89l-2.89-.25L19 15l-1.13 2.64-2.87.25 2.18 1.88-.68 2.81 2.5-1.49 2.45 1.49-.65-2.81 2.2-1.88Z" transform="matrix(1.5 0 0 1.5 432 180)" id="mdi-movie-open-star" fill="#555"/><path d="m19.65 6.5-2.74-3.54 3.93-.78.78 3.92-1.97.4m-2.94.57-2.74-3.53-1.97.39 2.75 3.53 1.96-.39M19 13c1.1 0 2.12.3 3 .81V10H2v10a2 2 0 0 0 2 2h9.81c-.51-.88-.81-1.9-.81-3 0-3.31 2.69-6 6-6M4.16 5.5l-.98.19a2.008 2.008 0 0 0-1.57 2.35L2 10l4.9-.97L4.16 5.5m7.65 2.55L9.07 4.5l-1.97.41 2.75 3.53 1.96-.39M23 17.89l-2.89-.25L19 15l-1.13 2.64-2.87.25 2.18 1.88-.68 2.81 2.5-1.49 2.45 1.49-.65-2.81 2.2-1.88Z" transform="matrix(1.5 0 0 1.5 468 180)" id="mdi-movie-open-star" fill="#fff"/><path d="m19.65 6.5-2.74-3.54 3.93-.78.78 3.92-1.97.4m-2.94.57-2.74-3.53-1.97.39 2.75 3.53 1.96-.39M4.16 5.5l-.98.19a1.995 1.995 0 0 0-1.57 2.35L2 10l4.9-.97L4.16 5.5m7.65 2.55L9.07 4.5l-1.97.41 2.75 3.53 1.96-.39M4 20v-8h16v1.09c.72.12 1.39.37 2 .72V10H2v10a2 2 0 0 0 2 2h9.81c-.35-.61-.59-1.28-.72-2H4m19-2.11-2.89-.25L19 15l-1.13 2.64-2.87.25 2.18 1.88-.68 2.81 2.5-1.49 2.45 1.49-.65-2.81 2.2-1.88Z" transform="matrix(1.5 0 0 1.5 504 180)" id="mdi-movie-open-star-outline" fill="#555"/><path d="m19.65 6.5-2.74-3.54 3.93-.78.78 3.92-1.97.4m-2.94.57-2.74-3.53-1.97.39 2.75 3.53 1.96-.39M4.16 5.5l-.98.19a1.995 1.995 0 0 0-1.57 2.35L2 10l4.9-.97L4.16 5.5m7.65 2.55L9.07 4.5l-1.97.41 2.75 3.53 1.96-.39M4 20v-8h16v1.09c.72.12 1.39.37 2 .72V10H2v10a2 2 0 0 0 2 2h9.81c-.35-.61-.59-1.28-.72-2H4m19-2.11-2.89-.25L19 15l-1.13 2.64-2.87.25 2.18 1.88-.68 2.81 2.5-1.49 2.45 1.49-.65-2.81 2.2-1.88Z" transform="matrix(1.5 0 0 1.5 540 180)" id="mdi-movie-open-star-outline" fill="#fff"/><path d="M5.76 10H20v8H4V6.47M22 4h-4l2 4h-3l-2-4h-2l2 4h-3l-2-4H8l2 4H7L5 4H4a2 2 0 0 0-2 2v12a2 2 0 0 0 2 2h16a2 2 0 0 0 2-2V4Z" transform="matrix(1.5 0 0 1.5 576 180)" id="mdi-movie-outline" fill="#555"/><path d="M5.76 10H20v8H4V6.47M22 4h-4l2 4h-3l-2-4h-2l2 4h-3l-2-4H8l2 4H7L5 4H4a2 2 0 0 0-2 2v12a2 2 0 0 0 2 2h16a2 2 0 0 0 2-2V4Z" transform="matrix(1.5 0 0 1.5 612 180)" id="mdi-movie-outline" fill="#fff"/><path d="M22 4v9.81c-.88-.51-1.9-.81-3-.81-3.31 0-6 2.69-6 6 0 .34.04.67.09 1H4a2 2 0 0 1-2-2V6a2 2 0 0 1 2-2h1l2 4h3L8 4h2l2 4h3l-2-4h2l2 4h3l-2-4h4m-5 18 5-3-5-3v6Z" transform="matrix(1.5 0 0 1.5 648 180)" id="mdi-movie-play" fill="#555"/><path d="M22 4v9.81c-.88-.51-1.9-.81-3-.81-3.31 0-6 2.69-6 6 0 .34.04.67.09 1H4a2 2 0 0 1-2-2V6a2 2 0 0 1 2-2h1l2 4h3L8 4h2l2 4h3l-2-4h2l2 4h3l-2-4h4m-5 18 5-3-5-3v6Z" transform="matrix(1.5 0 0 1.5 684 180)" id="mdi-movie-play" fill="#fff"/><path d="M22 4v9.81c-.61-.35-1.28-.59-2-.72V10H5.76L4 6.47V18h9.09c-.05.33-.09.66-.09 1 0 .34.04.67.09 1H4a2 2 0 0 1-2-2V6a2 2 0 0 1 2-2h1l2 4h3L8 4h2l2 4h3l-2-4h2l2 4h3l-2-4h4m-5 18 5-3-5-3v6Z" transform="matrix(1.5 0 0 1.5 0 216)" id="mdi-movie-play-outline" fill="#555"/><path d="M22 4v9.81c-.61-.35-1.28-.59-2-.72V10H5.76L4 6.47V18h9.09c-.05.33-.09.66-.09 1 0 .34.04.67.09 1H4a2 2 0 0 1-2-2V6a2 2 0 0 1 2-2h1l2 4h3L8 4h2l2 4h3l-2-4h2l2 4h3l-2-4h4m-5 18 5-3-5-3v6Z" transform="matrix(1.5 0 0 1.5 36 216)" id="mdi-movie-play-outline" fill="#fff"/><path d="M13 19c0 .34.04.67.09 1H4a2 2 0 0 1-2-2V6a2 2 0 0 1 2-2h1l2 4h3L8 4h2l2 4h3l-2-4h2l2 4h3l-2-4h4v9.81c-.88-.51-1.9-.81-3-.81-3.31 0-6 2.69-6 6m7-1v-3h-2v3h-3v2h3v3h2v-3h3v-2h-3Z" transform="matrix(1.5 0 0 1.5 72 216)" id="mdi-movie-plus" fill="#555"/><path d="M13 19c0 .34.04.67.09 1H4a2 2 0 0 1-2-2V6a2 2 0 0 1 2-2h1l2 4h3L8 4h2l2 4h3l-2-4h2l2 4h3l-2-4h4v9.81c-.88-.51-1.9-.81-3-.81-3.31 0-6 2.69-6 6m7-1v-3h-2v3h-3v2h3v3h2v-3h3v-2h-3Z" transform="matrix(1.5 0 0 1.5 108 216)" id="mdi-movie-plus" fill="#fff"/><path d="M13 19c0 .34.04.67.09 1H4a2 2 0 0 1-2-2V6a2 2 0 0 1 2-2h1l2 4h3L8 4h2l2 4h3l-2-4h2l2 4h3l-2-4h4v9.81c-.61-.35-1.28-.59-2-.72V10H5.76L4 6.47V18h9.09c-.05.33-.09.66-.09 1m7-1v-3h-2v3h-3v2h3v3h2v-3h3v-2h-3Z" transform="matrix(1.5 0 0 1.5 144 216)" id="mdi-movie-plus-outline" fill="#555"/><path d="M13 19c0 .34.04.67.09 1H4a2 2 0 0 1-2-2V6a2 2 0 0 1 2-2h1l2 4h3L8 4h2l2 4h3l-2-4h2l2 4h3l-2-4h4v9.81c-.61-.35-1.28-.59-2-.72V10H5.76L4 6.47V18h9.09c-.05.33-.09.66-.09 1m7-1v-3h-2v3h-3v2h3v3h2v-3h3v-2h-3Z" transform="matrix(1.5 0 0 1.5 180 216)" id="mdi-movie-plus-outline" fill="#fff"/><path d="M13 19c0 .34.04.67.09 1H4a2 2 0 0 1-2-2V6a2 2 0 0 1 2-2h1l2 4h3L8 4h2l2 4h3l-2-4h2l2 4h3l-2-4h4v9.81c-.88-.51-1.9-.81-3-.81-3.31 0-6 2.69-6 6m9.54-2.12-1.42-1.41L19 17.59l-2.12-2.12-1.41 1.41L17.59 19l-2.12 2.12 1.41 1.42L19 20.41l2.12 2.13 1.42-1.42L20.41 19l2.13-2.12Z" transform="matrix(1.5 0 0 1.5 216 216)" id="mdi-movie-remove" fill="#555"/><path d="M13 19c0 .34.04.67.09 1H4a2 2 0 0 1-2-2V6a2 2 0 0 1 2-2h1l2 4h3L8 4h2l2 4h3l-2-4h2l2 4h3l-2-4h4v9.81c-.88-.51-1.9-.81-3-.81-3.31 0-6 2.69-6 6m9.54-2.12-1.42-1.41L19 17.59l-2.12-2.12-1.41 1.41L17.59 19l-2.12 2.12 1.41 1.42L19 20.41l2.12 2.13 1.42-1.42L20.41 19l2.13-2.12Z" transform="matrix(1.5 0 0 1.5 252 216)" id="mdi-movie-remove" fill="#fff"/><path d="M13 19c0 .34.04.67.09 1H4a2 2 0 0 1-2-2V6a2 2 0 0 1 2-2h1l2 4h3L8 4h2l2 4h3l-2-4h2l2 4h3l-2-4h4v9.81c-.61-.35-1.28-.59-2-.72V10H5.76L4 6.47V18h9.09c-.05.33-.09.66-.09 1m9.54-2.12-1.42-1.41L19 17.59l-2.12-2.12-1.41 1.41L17.59 19l-2.12 2.12 1.41 1.42L19 20.41l2.12 2.13 1.42-1.42L20.41 19l2.13-2.12Z" transform="matrix(1.5 0 0 1.5 288 216)" id="mdi-movie-remove-outline" fill="#555"/><path d="M13 19c0 .34.04.67.09 1H4a2 2 0 0 1-2-2V6a2 2 0 0 1 2-2h1l2 4h3L8 4h2l2 4h3l-2-4h2l2 4h3l-2-4h4v9.81c-.61-.35-1.28-.59-2-.72V10H5.76L4 6.47V18h9.09c-.05.33-.09.66-.09 1m9.54-2.12-1.42-1.41L19 17.59l-2.12-2.12-1.41 1.41L17.59 19l-2.12 2.12 1.41 1.42L19 20.41l2.12 2.13 1.42-1.42L20.41 19l2.13-2.12Z" transform="matrix(1.5 0 0 1.5 324 216)" id="mdi-movie-remove-outline" fill="#fff"/><path d="M12 2a10 10 0 0 1 10 10 10 10 0 0 1-10 10A10 10 0 0 1 2 12 10 10 0 0 1 12 2m0 2a2.5 2.5 0 0 0-2.5 2.5A2.5 2.5 0 0 0 12 9a2.5 2.5 0 0 0 2.5-2.5A2.5 2.5 0 0 0 12 4M4.4 9.53A2.5 2.5 0 0 0 6 12.68c1.32.42 2.73-.29 3.15-1.61a2.5 2.5 0 0 0-1.6-3.15c-1.31-.42-2.73.29-3.15 1.61m15.21-.03c-.43-1.29-1.84-2-3.15-1.58a2.489 2.489 0 0 0-1.61 3.15 2.5 2.5 0 0 0 3.15 1.6c1.31-.42 2.03-1.84 1.61-3.17m-12.3 8.96c1.11.82 2.69.57 3.49-.55.81-1.12.56-2.68-.56-3.49a2.506 2.506 0 0 0-3.49.55c-.81 1.12-.56 2.68.56 3.49m9.39 0c1.12-.81 1.37-2.37.56-3.49a2.488 2.488 0 0 0-3.49-.55 2.497 2.497 0 0 0-.56 3.49c.79 1.12 2.38 1.36 3.49.55M12 10.5a1.5 1.5 0 0 0-1.5 1.5 1.5 1.5 0 0 0 1.5 1.5 1.5 1.5 0 0 0 1.5-1.5 1.5 1.5 0 0 0-1.5-1.5Z" transform="matrix(1.5 0 0 1.5 360 216)" id="mdi-movie-roll" fill="#555"/><path d="M12 2a10 10 0 0 1 10 10 10 10 0 0 1-10 10A10 10 0 0 1 2 12 10 10 0 0 1 12 2m0 2a2.5 2.5 0 0 0-2.5 2.5A2.5 2.5 0 0 0 12 9a2.5 2.5 0 0 0 2.5-2.5A2.5 2.5 0 0 0 12 4M4.4 9.53A2.5 2.5 0 0 0 6 12.68c1.32.42 2.73-.29 3.15-1.61a2.5 2.5 0 0 0-1.6-3.15c-1.31-.42-2.73.29-3.15 1.61m15.21-.03c-.43-1.29-1.84-2-3.15-1.58a2.489 2.489 0 0 0-1.61 3.15 2.5 2.5 0 0 0 3.15 1.6c1.31-.42 2.03-1.84 1.61-3.17m-12.3 8.96c1.11.82 2.69.57 3.49-.55.81-1.12.56-2.68-.56-3.49a2.506 2.506 0 0 0-3.49.55c-.81 1.12-.56 2.68.56 3.49m9.39 0c1.12-.81 1.37-2.37.56-3.49a2.488 2.488 0 0 0-3.49-.55 2.497 2.497 0 0 0-.56 3.49c.79 1.12 2.38 1.36 3.49.55M12 10.5a1.5 1.5 0 0 0-1.5 1.5 1.5 1.5 0 0 0 1.5 1.5 1.5 1.5 0 0 0 1.5-1.5 1.5 1.5 0 0 0-1.5-1.5Z" transform="matrix(1.5 0 0 1.5 396 216)" id="mdi-movie-roll" fill="#fff"/><path d="M11.03 20H4c-1.1 0-2-.9-2-2V6c0-1.1.9-2 2-2h1l2 4h3L8 4h2l2 4h3l-2-4h2l2 4h3l-2-4h4v9.05A6.487 6.487 0 0 0 16.5 10c-3.58 0-6.5 2.92-6.5 6.5 0 1.29.38 2.5 1.03 3.5m12.36 2L22 23.39l-3.12-3.07c-.69.43-1.51.68-2.38.68-2.5 0-4.5-2-4.5-4.5s2-4.5 4.5-4.5 4.5 2 4.5 4.5c0 .88-.25 1.71-.69 2.4l3.08 3.1M19 16.5a2.5 2.5 0 0 0-5 0 2.5 2.5 0 0 0 5 0Z" transform="matrix(1.5 0 0 1.5 432 216)" id="mdi-movie-search" fill="#555"/><path d="M11.03 20H4c-1.1 0-2-.9-2-2V6c0-1.1.9-2 2-2h1l2 4h3L8 4h2l2 4h3l-2-4h2l2 4h3l-2-4h4v9.05A6.487 6.487 0 0 0 16.5 10c-3.58 0-6.5 2.92-6.5 6.5 0 1.29.38 2.5 1.03 3.5m12.36 2L22 23.39l-3.12-3.07c-.69.43-1.51.68-2.38.68-2.5 0-4.5-2-4.5-4.5s2-4.5 4.5-4.5 4.5 2 4.5 4.5c0 .88-.25 1.71-.69 2.4l3.08 3.1M19 16.5a2.5 2.5 0 0 0-5 0 2.5 2.5 0 0 0 5 0Z" transform="matrix(1.5 0 0 1.5 468 216)" id="mdi-movie-search" fill="#fff"/><path d="M11 20H4c-1.1 0-2-.9-2-2V6c0-1.1.9-2 2-2h1l2 4h3L8 4h2l2 4h3l-2-4h2l2 4h3l-2-4h4v9c-.5-.8-1.2-1.5-2-2v-1H5.8L4 6.5V18h6.2c.2.7.4 1.4.8 2m9.3-1.1c.4-.7.7-1.5.7-2.4 0-2.5-2-4.5-4.5-4.5S12 14 12 16.5s2 4.5 4.5 4.5c.9 0 1.7-.2 2.4-.7l3.1 3.1 1.4-1.4-3.1-3.1m-3.8.1c-1.4 0-2.5-1.1-2.5-2.5s1.1-2.5 2.5-2.5 2.5 1.1 2.5 2.5-1.1 2.5-2.5 2.5Z" transform="matrix(1.5 0 0 1.5 504 216)" id="mdi-movie-search-outline" fill="#555"/><path d="M11 20H4c-1.1 0-2-.9-2-2V6c0-1.1.9-2 2-2h1l2 4h3L8 4h2l2 4h3l-2-4h2l2 4h3l-2-4h4v9c-.5-.8-1.2-1.5-2-2v-1H5.8L4 6.5V18h6.2c.2.7.4 1.4.8 2m9.3-1.1c.4-.7.7-1.5.7-2.4 0-2.5-2-4.5-4.5-4.5S12 14 12 16.5s2 4.5 4.5 4.5c.9 0 1.7-.2 2.4-.7l3.1 3.1 1.4-1.4-3.1-3.1m-3.8.1c-1.4 0-2.5-1.1-2.5-2.5s1.1-2.5 2.5-2.5 2.5 1.1 2.5 2.5-1.1 2.5-2.5 2.5Z" transform="matrix(1.5 0 0 1.5 540 216)" id="mdi-movie-search-outline" fill="#fff"/><path d="M22 4v14c0 1.11-.89 2-2 2H4a2 2 0 0 1-2-2V6a2 2 0 0 1 2-2h1l2 4h3L8 4h2l2 4h3l-2-4h2l2 4h3l-2-4h4M7 24h2v-2H7v2m4 0h2v-2h-2v2m4 0h2v-2h-2v2Z" transform="matrix(1.5 0 0 1.5 576 216)" id="mdi-movie-settings" fill="#555"/><path d="M22 4v14c0 1.11-.89 2-2 2H4a2 2 0 0 1-2-2V6a2 2 0 0 1 2-2h1l2 4h3L8 4h2l2 4h3l-2-4h2l2 4h3l-2-4h4M7 24h2v-2H7v2m4 0h2v-2h-2v2m4 0h2v-2h-2v2Z" transform="matrix(1.5 0 0 1.5 612 216)" id="mdi-movie-settings" fill="#fff"/><path d="m18 4 2 4h-3l-2-4h-2l2 4h-3l-2-4H8l2 4H7L5 4H4a2 2 0 0 0-2 2v12a2 2 0 0 0 2 2h16c1.11 0 2-.89 2-2V4h-4m2 14H4V6.47L5.76 10H20v8m-9 4h2v2h-2v-2m-4 0h2v2H7v-2m8 0h2v2h-2v-2Z" transform="matrix(1.5 0 0 1.5 648 216)" id="mdi-movie-settings-outline" fill="#555"/><path d="m18 4 2 4h-3l-2-4h-2l2 4h-3l-2-4H8l2 4H7L5 4H4a2 2 0 0 0-2 2v12a2 2 0 0 0 2 2h16c1.11 0 2-.89 2-2V4h-4m2 14H4V6.47L5.76 10H20v8m-9 4h2v2h-2v-2m-4 0h2v2H7v-2m8 0h2v2h-2v-2Z" transform="matrix(1.5 0 0 1.5 684 216)" id="mdi-movie-settings-outline" fill="#fff"/><path d="M13 19c0 .34.04.67.09 1H4a2 2 0 0 1-2-2V6a2 2 0 0 1 2-2h1l2 4h3L8 4h2l2 4h3l-2-4h2l2 4h3l-2-4h4v9.81c-.88-.51-1.9-.81-3-.81-3.31 0-6 2.69-6 6m10-1.11-2.89-.25L19 15l-1.13 2.64-2.87.25 2.18 1.88-.68 2.81 2.5-1.49 2.45 1.49-.65-2.81 2.2-1.88Z" transform="matrix(1.5 0 0 1.5 0 252)" id="mdi-movie-star" fill="#555"/><path d="M13 19c0 .34.04.67.09 1H4a2 2 0 0 1-2-2V6a2 2 0 0 1 2-2h1l2 4h3L8 4h2l2 4h3l-2-4h2l2 4h3l-2-4h4v9.81c-.88-.51-1.9-.81-3-.81-3.31 0-6 2.69-6 6m10-1.11-2.89-.25L19 15l-1.13 2.64-2.87.25 2.18 1.88-.68 2.81 2.5-1.49 2.45 1.49-.65-2.81 2.2-1.88Z" transform="matrix(1.5 0 0 1.5 36 252)" id="mdi-movie-star" fill="#fff"/><path d="M13 19c0 .34.04.67.09 1H4a2 2 0 0 1-2-2V6a2 2 0 0 1 2-2h1l2 4h3L8 4h2l2 4h3l-2-4h2l2 4h3l-2-4h4v9.81c-.61-.35-1.28-.59-2-.72V10H5.76L4 6.47V18h9.09c-.05.33-.09.66-.09 1m10-1.11-2.89-.25L19 15l-1.13 2.64-2.87.25 2.18 1.88-.68 2.81 2.5-1.49 2.45 1.49-.65-2.81 2.2-1.88Z" transform="matrix(1.5 0 0 1.5 72 252)" id="mdi-movie-star-outline" fill="#555"/><path d="M13 19c0 .34.04.67.09 1H4a2 2 0 0 1-2-2V6a2 2 0 0 1 2-2h1l2 4h3L8 4h2l2 4h3l-2-4h2l2 4h3l-2-4h4v9.81c-.61-.35-1.28-.59-2-.72V10H5.76L4 6.47V18h9.09c-.05.33-.09.66-.09 1m10-1.11-2.89-.25L19 15l-1.13 2.64-2.87.25 2.18 1.88-.68 2.81 2.5-1.49 2.45 1.49-.65-2.81 2.2-1.88Z" transform="matrix(1.5 0 0 1.5 108 252)" id="mdi-movie-star-outline" fill="#fff"/><path d="M18.5 14c-.95 0-1.81.38-2.44 1H9.39L5.74 3H2v2h2.26L7 14.05c-.15-.02-.32-.05-.5-.05C4.57 14 3 15.57 3 17.5S4.57 21 6.5 21c1.39 0 2.59-.82 3.15-2h5.7c.56 1.18 1.76 2 3.15 2 1.93 0 3.5-1.57 3.5-3.5S20.43 14 18.5 14m-12 5c-.83 0-1.5-.67-1.5-1.5S5.67 16 6.5 16s1.5.67 1.5 1.5S7.33 19 6.5 19m12 0c-.83 0-1.5-.67-1.5-1.5s.67-1.5 1.5-1.5 1.5.67 1.5 1.5-.67 1.5-1.5 1.5m-8.37-5-.6-2h3.23c.74 0 1.45.43 1.79 1.11L15 14h-4.87Z" transform="matrix(1.5 0 0 1.5 144 252)" id="mdi-mower" fill="#555"/><path d="M18.5 14c-.95 0-1.81.38-2.44 1H9.39L5.74 3H2v2h2.26L7 14.05c-.15-.02-.32-.05-.5-.05C4.57 14 3 15.57 3 17.5S4.57 21 6.5 21c1.39 0 2.59-.82 3.15-2h5.7c.56 1.18 1.76 2 3.15 2 1.93 0 3.5-1.57 3.5-3.5S20.43 14 18.5 14m-12 5c-.83 0-1.5-.67-1.5-1.5S5.67 16 6.5 16s1.5.67 1.5 1.5S7.33 19 6.5 19m12 0c-.83 0-1.5-.67-1.5-1.5s.67-1.5 1.5-1.5 1.5.67 1.5 1.5-.67 1.5-1.5 1.5m-8.37-5-.6-2h3.23c.74 0 1.45.43 1.79 1.11L15 14h-4.87Z" transform="matrix(1.5 0 0 1.5 180 252)" id="mdi-mower" fill="#fff"/><path d="m11.95 14-1.13-2h3.94c.74 0 1.45.43 1.79 1.11L17 14h-5.05M23 18c0 1.66-1.34 3-3 3-1.3 0-2.4-.84-2.82-2h-5.53c-.56 1.18-1.76 2-3.15 2s-2.59-.82-3.15-2H2c-.55 0-1-.45-1-1v-7c0-.33.17-.64.44-.83.27-.17.62-.22.93-.1l5.06 2.02L3.42 5H1V3h3.58l6.79 12H20c1.66 0 3 1.34 3 3M7.34 14.21 3 12.5V17h2.05c.19-1.3 1.08-2.36 2.29-2.79M10 17.5c0-.83-.67-1.5-1.5-1.5S7 16.67 7 17.5 7.67 19 8.5 19s1.5-.67 1.5-1.5m11 .5c0-.55-.45-1-1-1s-1 .45-1 1 .45 1 1 1 1-.45 1-1Z" transform="matrix(1.5 0 0 1.5 216 252)" id="mdi-mower-bag" fill="#555"/><path d="m11.95 14-1.13-2h3.94c.74 0 1.45.43 1.79 1.11L17 14h-5.05M23 18c0 1.66-1.34 3-3 3-1.3 0-2.4-.84-2.82-2h-5.53c-.56 1.18-1.76 2-3.15 2s-2.59-.82-3.15-2H2c-.55 0-1-.45-1-1v-7c0-.33.17-.64.44-.83.27-.17.62-.22.93-.1l5.06 2.02L3.42 5H1V3h3.58l6.79 12H20c1.66 0 3 1.34 3 3M7.34 14.21 3 12.5V17h2.05c.19-1.3 1.08-2.36 2.29-2.79M10 17.5c0-.83-.67-1.5-1.5-1.5S7 16.67 7 17.5 7.67 19 8.5 19s1.5-.67 1.5-1.5m11 .5c0-.55-.45-1-1-1s-1 .45-1 1 .45 1 1 1 1-.45 1-1Z" transform="matrix(1.5 0 0 1.5 252 252)" id="mdi-mower-bag" fill="#fff"/><path d="M16 5s-1-3-4-3-4 3-4 3C6 5 4 7 4 9c-2.7 0-2.7 4 0 4h16c2.7 0 2.7-4 0-4 0-2-2-4-4-4M5 15l2 7h2l-1-7H5m5 0 1 7h2l1-7h-4m6 0-1 7h2l2-7h-3Z" transform="matrix(1.5 0 0 1.5 288 252)" id="mdi-muffin" fill="#555"/><path d="M16 5s-1-3-4-3-4 3-4 3C6 5 4 7 4 9c-2.7 0-2.7 4 0 4h16c2.7 0 2.7-4 0-4 0-2-2-4-4-4M5 15l2 7h2l-1-7H5m5 0 1 7h2l1-7h-4m6 0-1 7h2l2-7h-3Z" transform="matrix(1.5 0 0 1.5 324 252)" id="mdi-muffin" fill="#fff"/><path d="M17 2v2h-5a2 2 0 0 0-2 2v3h2V6h5v2l3-3-3-3m0 7v2H6.73c-.36-.62-1.02-1-1.73-1-1.1 0-2 .9-2 2s.9 2 2 2c.71 0 1.37-.38 1.73-1H17v2l3-3-3-3m-7 6v3a2 2 0 0 0 2 2h5v2l3-3-3-3v2h-5v-3h-2Z" transform="matrix(1.5 0 0 1.5 360 252)" id="mdi-multicast" fill="#555"/><path d="M17 2v2h-5a2 2 0 0 0-2 2v3h2V6h5v2l3-3-3-3m0 7v2H6.73c-.36-.62-1.02-1-1.73-1-1.1 0-2 .9-2 2s.9 2 2 2c.71 0 1.37-.38 1.73-1H17v2l3-3-3-3m-7 6v3a2 2 0 0 0 2 2h5v2l3-3-3-3v2h-5v-3h-2Z" transform="matrix(1.5 0 0 1.5 396 252)" id="mdi-multicast" fill="#fff"/><path d="M11 3h2v7.27l6.29-3.63 1 1.73L14 12l6.3 3.64-1 1.73-6.3-3.65V21h-2v-7.27l-6.31 3.63-1-1.73L10 12 3.72 8.36l1-1.73L11 10.26V3Z" transform="matrix(1.5 0 0 1.5 432 252)" id="mdi-multiplication" fill="#555"/><path d="M11 3h2v7.27l6.29-3.63 1 1.73L14 12l6.3 3.64-1 1.73-6.3-3.65V21h-2v-7.27l-6.31 3.63-1-1.73L10 12 3.72 8.36l1-1.73L11 10.26V3Z" transform="matrix(1.5 0 0 1.5 468 252)" id="mdi-multiplication" fill="#fff"/><path d="M19 3a2 2 0 0 1 2 2v14a2 2 0 0 1-2 2H5a2 2 0 0 1-2-2V5c0-1.11.89-2 2-2h14m-8 14h2v-3.27l2.83 1.63 1-1.73L14 12l2.83-1.64-1-1.73L13 10.27V7h-2v3.27L8.17 8.63l-1 1.73L10 12l-2.83 1.63 1 1.73L11 13.73V17Z" transform="matrix(1.5 0 0 1.5 504 252)" id="mdi-multiplication-box" fill="#555"/><path d="M19 3a2 2 0 0 1 2 2v14a2 2 0 0 1-2 2H5a2 2 0 0 1-2-2V5c0-1.11.89-2 2-2h14m-8 14h2v-3.27l2.83 1.63 1-1.73L14 12l2.83-1.64-1-1.73L13 10.27V7h-2v3.27L8.17 8.63l-1 1.73L10 12l-2.83 1.63 1 1.73L11 13.73V17Z" transform="matrix(1.5 0 0 1.5 540 252)" id="mdi-multiplication-box" fill="#fff"/><path d="M12 2a10 10 0 0 1 10 10 2 2 0 0 1-2 2H4a2 2 0 0 1-2-2A10 10 0 0 1 12 2m0 6a2 2 0 0 0 2-2 2 2 0 0 0-2-2 2 2 0 0 0-2 2 2 2 0 0 0 2 2m5 4a2 2 0 0 0 2-2 2 2 0 0 0-2-2 2 2 0 0 0-2 2 2 2 0 0 0 2 2M7 12a2 2 0 0 0 2-2 2 2 0 0 0-2-2 2 2 0 0 0-2 2 2 2 0 0 0 2 2m8 3 1.27 4.45.08.55c0 1.1-.9 2-2 2h-4.7a2 2 0 0 1-2-2l.08-.55L9 15h6Z" transform="matrix(1.5 0 0 1.5 576 252)" id="mdi-mushroom" fill="#555"/><path d="M12 2a10 10 0 0 1 10 10 2 2 0 0 1-2 2H4a2 2 0 0 1-2-2A10 10 0 0 1 12 2m0 6a2 2 0 0 0 2-2 2 2 0 0 0-2-2 2 2 0 0 0-2 2 2 2 0 0 0 2 2m5 4a2 2 0 0 0 2-2 2 2 0 0 0-2-2 2 2 0 0 0-2 2 2 2 0 0 0 2 2M7 12a2 2 0 0 0 2-2 2 2 0 0 0-2-2 2 2 0 0 0-2 2 2 2 0 0 0 2 2m8 3 1.27 4.45.08.55c0 1.1-.9 2-2 2h-4.7a2 2 0 0 1-2-2l.08-.55L9 15h6Z" transform="matrix(1.5 0 0 1.5 612 252)" id="mdi-mushroom" fill="#fff"/><path d="M22.1 21.5 2.4 1.7 1.1 3l3 3C2.8 7.6 2 9.7 2 12c0 1.1.9 2 2 2h8.1l1 1H9l-1.3 4.5v.5c0 1.1.9 2 2 2h4.7c1.1 0 2-.9 2-2l-.1-.5-.5-1.8 5.1 5.1 1.2-1.3M7 12c-1.1 0-2-.9-2-2 0-.8.5-1.6 1.3-1.9l2.6 2.6C8.6 11.5 7.8 12 7 12m3-6c0-1.1.9-2 2-2s2 .9 2 2-.9 2-2 2c-.5 0-.9-.2-1.3-.5l6.5 6.5H20c1.1 0 2-.9 2-2 0-5.5-4.5-10-10-10-1.9 0-3.7.6-5.3 1.5l3.7 3.7c-.2-.3-.4-.7-.4-1.2m7 2c1.1 0 2 .9 2 2s-.9 2-2 2-2-.9-2-2 .9-2 2-2Z" transform="matrix(1.5 0 0 1.5 648 252)" id="mdi-mushroom-off" fill="#555"/><path d="M22.1 21.5 2.4 1.7 1.1 3l3 3C2.8 7.6 2 9.7 2 12c0 1.1.9 2 2 2h8.1l1 1H9l-1.3 4.5v.5c0 1.1.9 2 2 2h4.7c1.1 0 2-.9 2-2l-.1-.5-.5-1.8 5.1 5.1 1.2-1.3M7 12c-1.1 0-2-.9-2-2 0-.8.5-1.6 1.3-1.9l2.6 2.6C8.6 11.5 7.8 12 7 12m3-6c0-1.1.9-2 2-2s2 .9 2 2-.9 2-2 2c-.5 0-.9-.2-1.3-.5l6.5 6.5H20c1.1 0 2-.9 2-2 0-5.5-4.5-10-10-10-1.9 0-3.7.6-5.3 1.5l3.7 3.7c-.2-.3-.4-.7-.4-1.2m7 2c1.1 0 2 .9 2 2s-.9 2-2 2-2-.9-2-2 .9-2 2-2Z" transform="matrix(1.5 0 0 1.5 684 252)" id="mdi-mushroom-off" fill="#fff"/><path d="M22.1 21.5 2.4 1.7 1.1 3l3 3C2.8 7.6 2 9.7 2 12c0 1.1.9 2 2 2h8.1l1 1H9l-1 3.5-.3 1c-.3 1.1.4 2.2 1.4 2.4l.6.1h4.7c1.1 0 2-.9 2-2l-.1-.5-.3-1-.2-.9 5.1 5.1 1.2-1.2M4 12c0-1.7.6-3.3 1.5-4.6l.7.7c-.1.3-.2.6-.2.9 0 1.1.9 2 2 2 .3 0 .6-.1.9-.2l1.2 1.2H4m5.7 8 .3-1 .6-2h3l.6 2 .3 1H9.7m6.3-9c-1.1 0-2-.9-2-2s.9-2 2-2 2 .9 2 2-.9 2-2 2M8.2 5 6.7 3.5C8.3 2.6 10.1 2 12 2c5.5 0 10 4.5 10 10 0 1.1-.9 2-2 2h-2.8l-2-2H20c0-3.7-2.6-6.9-6-7.8-.1 1-1 1.8-2 1.8s-1.9-.8-2-1.8c-.6.2-1.3.5-1.8.8Z" transform="matrix(1.5 0 0 1.5 0 288)" id="mdi-mushroom-off-outline" fill="#555"/><path d="M22.1 21.5 2.4 1.7 1.1 3l3 3C2.8 7.6 2 9.7 2 12c0 1.1.9 2 2 2h8.1l1 1H9l-1 3.5-.3 1c-.3 1.1.4 2.2 1.4 2.4l.6.1h4.7c1.1 0 2-.9 2-2l-.1-.5-.3-1-.2-.9 5.1 5.1 1.2-1.2M4 12c0-1.7.6-3.3 1.5-4.6l.7.7c-.1.3-.2.6-.2.9 0 1.1.9 2 2 2 .3 0 .6-.1.9-.2l1.2 1.2H4m5.7 8 .3-1 .6-2h3l.6 2 .3 1H9.7m6.3-9c-1.1 0-2-.9-2-2s.9-2 2-2 2 .9 2 2-.9 2-2 2M8.2 5 6.7 3.5C8.3 2.6 10.1 2 12 2c5.5 0 10 4.5 10 10 0 1.1-.9 2-2 2h-2.8l-2-2H20c0-3.7-2.6-6.9-6-7.8-.1 1-1 1.8-2 1.8s-1.9-.8-2-1.8c-.6.2-1.3.5-1.8.8Z" transform="matrix(1.5 0 0 1.5 36 288)" id="mdi-mushroom-off-outline" fill="#fff"/><path d="M4 12h16c0-3.73-2.56-6.87-6-7.75-.14.99-1 1.75-2 1.75s-1.86-.76-2-1.75C6.56 5.13 4 8.27 4 12m8-10a10 10 0 0 1 10 10 2 2 0 0 1-2 2H4a2 2 0 0 1-2-2A10 10 0 0 1 12 2m1.5 15h-3l-.58 2-.27 1h4.7l-.27-1-.58-2m1.5-2 1 3.5.27.95.08.55c0 1.1-.9 2-2 2h-4.7l-.48-.06a2.004 2.004 0 0 1-1.44-2.44l.27-1L9 15h6m1-8a2 2 0 0 1 2 2 2 2 0 0 1-2 2 2 2 0 0 1-2-2 2 2 0 0 1 2-2M8 7a2 2 0 0 1 2 2 2 2 0 0 1-2 2 2 2 0 0 1-2-2 2 2 0 0 1 2-2Z" transform="matrix(1.5 0 0 1.5 72 288)" id="mdi-mushroom-outline" fill="#555"/><path d="M4 12h16c0-3.73-2.56-6.87-6-7.75-.14.99-1 1.75-2 1.75s-1.86-.76-2-1.75C6.56 5.13 4 8.27 4 12m8-10a10 10 0 0 1 10 10 2 2 0 0 1-2 2H4a2 2 0 0 1-2-2A10 10 0 0 1 12 2m1.5 15h-3l-.58 2-.27 1h4.7l-.27-1-.58-2m1.5-2 1 3.5.27.95.08.55c0 1.1-.9 2-2 2h-4.7l-.48-.06a2.004 2.004 0 0 1-1.44-2.44l.27-1L9 15h6m1-8a2 2 0 0 1 2 2 2 2 0 0 1-2 2 2 2 0 0 1-2-2 2 2 0 0 1 2-2M8 7a2 2 0 0 1 2 2 2 2 0 0 1-2 2 2 2 0 0 1-2-2 2 2 0 0 1 2-2Z" transform="matrix(1.5 0 0 1.5 108 288)" id="mdi-mushroom-outline" fill="#fff"/><path d="M21 3v12.5a3.5 3.5 0 0 1-3.5 3.5 3.5 3.5 0 0 1-3.5-3.5 3.5 3.5 0 0 1 3.5-3.5c.54 0 1.05.12 1.5.34V6.47L9 8.6v8.9A3.5 3.5 0 0 1 5.5 21 3.5 3.5 0 0 1 2 17.5 3.5 3.5 0 0 1 5.5 14c.54 0 1.05.12 1.5.34V6l14-3Z" transform="matrix(1.5 0 0 1.5 144 288)" id="mdi-music" fill="#555"/><path d="M21 3v12.5a3.5 3.5 0 0 1-3.5 3.5 3.5 3.5 0 0 1-3.5-3.5 3.5 3.5 0 0 1 3.5-3.5c.54 0 1.05.12 1.5.34V6.47L9 8.6v8.9A3.5 3.5 0 0 1 5.5 21 3.5 3.5 0 0 1 2 17.5 3.5 3.5 0 0 1 5.5 14c.54 0 1.05.12 1.5.34V6l14-3Z" transform="matrix(1.5 0 0 1.5 180 288)" id="mdi-music" fill="#fff"/><path d="M15.5 9c-.7 0-1.39.28-2 .67V5h-2v4.62c-.46-.38-1.11-.62-2-.62-.7 0-1.39.28-2 .67V5h-2v14c3-1.68 4.93-3.21 6-4.59V19c4.86-2.74 7-5.09 7-7 0-1.41-.71-3-3-3m-8 6.38v-3.12c.62-.67 1.45-1.26 2-1.26.59 0 1 .07 1 1 0 .15-.1 1.3-3 3.38m6 0v-3.12c.62-.67 1.45-1.26 2-1.26.59 0 1 .07 1 1 0 .15-.1 1.3-3 3.38Z" transform="matrix(1.5 0 0 1.5 216 288)" id="mdi-music-accidental-double-flat" fill="#555"/><path d="M15.5 9c-.7 0-1.39.28-2 .67V5h-2v4.62c-.46-.38-1.11-.62-2-.62-.7 0-1.39.28-2 .67V5h-2v14c3-1.68 4.93-3.21 6-4.59V19c4.86-2.74 7-5.09 7-7 0-1.41-.71-3-3-3m-8 6.38v-3.12c.62-.67 1.45-1.26 2-1.26.59 0 1 .07 1 1 0 .15-.1 1.3-3 3.38m6 0v-3.12c.62-.67 1.45-1.26 2-1.26.59 0 1 .07 1 1 0 .15-.1 1.3-3 3.38Z" transform="matrix(1.5 0 0 1.5 252 288)" id="mdi-music-accidental-double-flat" fill="#fff"/><path d="M15.41 10H17V7h-3v1.59l-2 2-2-2V7H7v3h1.59l2 2-2 2H7v3h3v-1.59l2-2 2 2V17h3v-3h-1.59l-2-2 2-2Z" transform="matrix(1.5 0 0 1.5 288 288)" id="mdi-music-accidental-double-sharp" fill="#555"/><path d="M15.41 10H17V7h-3v1.59l-2 2-2-2V7H7v3h1.59l2 2-2 2H7v3h3v-1.59l2-2 2 2V17h3v-3h-1.59l-2-2 2-2Z" transform="matrix(1.5 0 0 1.5 324 288)" id="mdi-music-accidental-double-sharp" fill="#fff"/><path d="M8.5 19c4.86-2.74 7-5.09 7-7 0-1.41-.71-3-3-3-.7 0-1.39.28-2 .67V5h-2m2 10.38v-3.12c.62-.67 1.45-1.26 2-1.26.59 0 1 .07 1 1 0 .15-.1 1.3-3 3.38Z" transform="matrix(1.5 0 0 1.5 360 288)" id="mdi-music-accidental-flat" fill="#555"/><path d="M8.5 19c4.86-2.74 7-5.09 7-7 0-1.41-.71-3-3-3-.7 0-1.39.28-2 .67V5h-2m2 10.38v-3.12c.62-.67 1.45-1.26 2-1.26.59 0 1 .07 1 1 0 .15-.1 1.3-3 3.38Z" transform="matrix(1.5 0 0 1.5 396 288)" id="mdi-music-accidental-flat" fill="#fff"/><path d="M10 8.75V3.5H8v14l6-2.25v5.25h2v-14l-6 2.25m4 4.5-4 1.5v-4l4-1.5v4Z" transform="matrix(1.5 0 0 1.5 432 288)" id="mdi-music-accidental-natural" fill="#555"/><path d="M10 8.75V3.5H8v14l6-2.25v5.25h2v-14l-6 2.25m4 4.5-4 1.5v-4l4-1.5v4Z" transform="matrix(1.5 0 0 1.5 468 288)" id="mdi-music-accidental-natural" fill="#fff"/><path d="M17 9.5v-2l-2 .6V5.5h-2v3.2l-2 .6V6.5H9v3.4l-2 .6v2l2-.6v2l-2 .6v2l2-.6v2.6h2v-3.2l2-.6v2.8h2v-3.4l2-.6v-2l-2 .6v-2l2-.6m-4 3.2-2 .6v-2l2-.6v2Z" transform="matrix(1.5 0 0 1.5 504 288)" id="mdi-music-accidental-sharp" fill="#555"/><path d="M17 9.5v-2l-2 .6V5.5h-2v3.2l-2 .6V6.5H9v3.4l-2 .6v2l2-.6v2l-2 .6v2l2-.6v2.6h2v-3.2l2-.6v2.8h2v-3.4l2-.6v-2l-2 .6v-2l2-.6m-4 3.2-2 .6v-2l2-.6v2Z" transform="matrix(1.5 0 0 1.5 540 288)" id="mdi-music-accidental-sharp" fill="#fff"/><path d="M16 9h-3v5.5a2.5 2.5 0 0 1-2.5 2.5A2.5 2.5 0 0 1 8 14.5a2.5 2.5 0 0 1 2.5-2.5c.57 0 1.08.19 1.5.5V7h4m3-4H5a2 2 0 0 0-2 2v14a2 2 0 0 0 2 2h14a2 2 0 0 0 2-2V5a2 2 0 0 0-2-2Z" transform="matrix(1.5 0 0 1.5 576 288)" id="mdi-music-box" fill="#555"/><path d="M16 9h-3v5.5a2.5 2.5 0 0 1-2.5 2.5A2.5 2.5 0 0 1 8 14.5a2.5 2.5 0 0 1 2.5-2.5c.57 0 1.08.19 1.5.5V7h4m3-4H5a2 2 0 0 0-2 2v14a2 2 0 0 0 2 2h14a2 2 0 0 0 2-2V5a2 2 0 0 0-2-2Z" transform="matrix(1.5 0 0 1.5 612 288)" id="mdi-music-box" fill="#fff"/><path d="M4 6H2v14a2 2 0 0 0 2 2h14v-2H4M18 7h-3v5.5a2.5 2.5 0 0 1-2.5 2.5 2.5 2.5 0 0 1-2.5-2.5 2.5 2.5 0 0 1 2.5-2.5c.57 0 1.08.19 1.5.5V5h4m2-3H8a2 2 0 0 0-2 2v12a2 2 0 0 0 2 2h12a2 2 0 0 0 2-2V4a2 2 0 0 0-2-2Z" transform="matrix(1.5 0 0 1.5 648 288)" id="mdi-music-box-multiple" fill="#555"/><path d="M4 6H2v14a2 2 0 0 0 2 2h14v-2H4M18 7h-3v5.5a2.5 2.5 0 0 1-2.5 2.5 2.5 2.5 0 0 1-2.5-2.5 2.5 2.5 0 0 1 2.5-2.5c.57 0 1.08.19 1.5.5V5h4m2-3H8a2 2 0 0 0-2 2v12a2 2 0 0 0 2 2h12a2 2 0 0 0 2-2V4a2 2 0 0 0-2-2Z" transform="matrix(1.5 0 0 1.5 684 288)" id="mdi-music-box-multiple" fill="#fff"/><path d="M20 2H8a2 2 0 0 0-2 2v12a2 2 0 0 0 2 2h12a2 2 0 0 0 2-2V4a2 2 0 0 0-2-2m0 14H8V4h12m-7.5 11a2.5 2.5 0 0 0 2.5-2.5V7h3V5h-4v5.5c-.42-.31-.93-.5-1.5-.5a2.5 2.5 0 0 0-2.5 2.5 2.5 2.5 0 0 0 2.5 2.5M4 6H2v14a2 2 0 0 0 2 2h14v-2H4" transform="matrix(1.5 0 0 1.5 0 324)" id="mdi-music-box-multiple-outline" fill="#555"/><path d="M20 2H8a2 2 0 0 0-2 2v12a2 2 0 0 0 2 2h12a2 2 0 0 0 2-2V4a2 2 0 0 0-2-2m0 14H8V4h12m-7.5 11a2.5 2.5 0 0 0 2.5-2.5V7h3V5h-4v5.5c-.42-.31-.93-.5-1.5-.5a2.5 2.5 0 0 0-2.5 2.5 2.5 2.5 0 0 0 2.5 2.5M4 6H2v14a2 2 0 0 0 2 2h14v-2H4" transform="matrix(1.5 0 0 1.5 36 324)" id="mdi-music-box-multiple-outline" fill="#fff"/><path d="M16 9h-3v5.5a2.5 2.5 0 0 1-2.5 2.5A2.5 2.5 0 0 1 8 14.5a2.5 2.5 0 0 1 2.5-2.5c.57 0 1.08.19 1.5.5V7h4v2m3-6a2 2 0 0 1 2 2v14a2 2 0 0 1-2 2H5a2 2 0 0 1-2-2V5a2 2 0 0 1 2-2h14M5 5v14h14V5H5Z" transform="matrix(1.5 0 0 1.5 72 324)" id="mdi-music-box-outline" fill="#555"/><path d="M16 9h-3v5.5a2.5 2.5 0 0 1-2.5 2.5A2.5 2.5 0 0 1 8 14.5a2.5 2.5 0 0 1 2.5-2.5c.57 0 1.08.19 1.5.5V7h4v2m3-6a2 2 0 0 1 2 2v14a2 2 0 0 1-2 2H5a2 2 0 0 1-2-2V5a2 2 0 0 1 2-2h14M5 5v14h14V5H5Z" transform="matrix(1.5 0 0 1.5 108 324)" id="mdi-music-box-outline" fill="#fff"/><path d="M16 9V7h-4v5.5c-.42-.31-.93-.5-1.5-.5A2.5 2.5 0 0 0 8 14.5a2.5 2.5 0 0 0 2.5 2.5 2.5 2.5 0 0 0 2.5-2.5V9h3m-4-7a10 10 0 0 1 10 10 10 10 0 0 1-10 10A10 10 0 0 1 2 12 10 10 0 0 1 12 2Z" transform="matrix(1.5 0 0 1.5 144 324)" id="mdi-music-circle" fill="#555"/><path d="M16 9V7h-4v5.5c-.42-.31-.93-.5-1.5-.5A2.5 2.5 0 0 0 8 14.5a2.5 2.5 0 0 0 2.5 2.5 2.5 2.5 0 0 0 2.5-2.5V9h3m-4-7a10 10 0 0 1 10 10 10 10 0 0 1-10 10A10 10 0 0 1 2 12 10 10 0 0 1 12 2Z" transform="matrix(1.5 0 0 1.5 180 324)" id="mdi-music-circle" fill="#fff"/><path d="M16 9h-3v5.5a2.5 2.5 0 0 1-2.5 2.5A2.5 2.5 0 0 1 8 14.5a2.5 2.5 0 0 1 2.5-2.5c.57 0 1.08.19 1.5.5V7h4v2m-4-7a10 10 0 0 1 10 10 10 10 0 0 1-10 10A10 10 0 0 1 2 12 10 10 0 0 1 12 2m0 2a8 8 0 0 0-8 8 8 8 0 0 0 8 8 8 8 0 0 0 8-8 8 8 0 0 0-8-8Z" transform="matrix(1.5 0 0 1.5 216 324)" id="mdi-music-circle-outline" fill="#555"/><path d="M16 9h-3v5.5a2.5 2.5 0 0 1-2.5 2.5A2.5 2.5 0 0 1 8 14.5a2.5 2.5 0 0 1 2.5-2.5c.57 0 1.08.19 1.5.5V7h4v2m-4-7a10 10 0 0 1 10 10 10 10 0 0 1-10 10A10 10 0 0 1 2 12 10 10 0 0 1 12 2m0 2a8 8 0 0 0-8 8 8 8 0 0 0 8 8 8 8 0 0 0 8-8 8 8 0 0 0-8-8Z" transform="matrix(1.5 0 0 1.5 252 324)" id="mdi-music-circle-outline" fill="#fff"/><path d="M5 4h2v16H5m10.46-7h-.63l-1-1 1-1h.63a3.5 3.5 0 1 0-3.5-3.5h2a1.5 1.5 0 1 1 1.5 1.5H14l-2 2h-1V4H9v16h2v-7h1l2 2h1.46a1.5 1.5 0 1 1-1.5 1.5h-2a3.5 3.5 0 1 0 3.5-3.5Z" transform="matrix(1.5 0 0 1.5 288 324)" id="mdi-music-clef-alto" fill="#555"/><path d="M5 4h2v16H5m10.46-7h-.63l-1-1 1-1h.63a3.5 3.5 0 1 0-3.5-3.5h2a1.5 1.5 0 1 1 1.5 1.5H14l-2 2h-1V4H9v16h2v-7h1l2 2h1.46a1.5 1.5 0 1 1-1.5 1.5h-2a3.5 3.5 0 1 0 3.5-3.5Z" transform="matrix(1.5 0 0 1.5 324 324)" id="mdi-music-clef-alto" fill="#fff"/><path d="M18.5 5A1.5 1.5 0 1 1 17 6.5 1.5 1.5 0 0 1 18.5 5m0 6a1.5 1.5 0 1 1-1.5 1.5 1.5 1.5 0 0 1 1.5-1.5M10 4a5 5 0 0 0-5 5v1a2 2 0 1 0 2.18-2A3 3 0 0 1 10 6a4 4 0 0 1 4 4c0 3.59-2.23 6.19-7 8.2l.76 1.84C13.31 17.72 16 14.43 16 10a6 6 0 0 0-6-6Z" transform="matrix(1.5 0 0 1.5 360 324)" id="mdi-music-clef-bass" fill="#555"/><path d="M18.5 5A1.5 1.5 0 1 1 17 6.5 1.5 1.5 0 0 1 18.5 5m0 6a1.5 1.5 0 1 1-1.5 1.5 1.5 1.5 0 0 1 1.5-1.5M10 4a5 5 0 0 0-5 5v1a2 2 0 1 0 2.18-2A3 3 0 0 1 10 6a4 4 0 0 1 4 4c0 3.59-2.23 6.19-7 8.2l.76 1.84C13.31 17.72 16 14.43 16 10a6 6 0 0 0-6-6Z" transform="matrix(1.5 0 0 1.5 396 324)" id="mdi-music-clef-bass" fill="#fff"/><path d="M13 11V7.5l2.2-2.21c.8-.79.95-2.05.39-3.03A2.467 2.467 0 0 0 13.45 1c-.21 0-.45.03-.64.09C11.73 1.38 11 2.38 11 3.5v3.24L7.86 9.91a5.946 5.946 0 0 0-1.25 6.43c.77 1.9 2.45 3.21 4.39 3.55v.61c0 .26-.23.5-.5.5H9v2h1.5c1.35 0 2.5-1.11 2.5-2.5V20c2.03 0 4.16-1.92 4.16-4.75 0-2.3-1.92-4.25-4.16-4.25m0-7.5c0-.23.11-.41.32-.47.22-.06.45.03.56.23a.5.5 0 0 1-.08.61l-.8.86V3.5m-2 8c-.97.64-1.7 1.74-1.96 2.76l1.96.52v3.05a3.86 3.86 0 0 1-2.57-2.26c-.59-1.46-.27-3.12.83-4.24L11 9.5v2m2 6.5v-5.06c1.17 0 2.18 1.1 2.18 2.31C15.18 17 13.91 18 13 18Z" transform="matrix(1.5 0 0 1.5 432 324)" id="mdi-music-clef-treble" fill="#555"/><path d="M13 11V7.5l2.2-2.21c.8-.79.95-2.05.39-3.03A2.467 2.467 0 0 0 13.45 1c-.21 0-.45.03-.64.09C11.73 1.38 11 2.38 11 3.5v3.24L7.86 9.91a5.946 5.946 0 0 0-1.25 6.43c.77 1.9 2.45 3.21 4.39 3.55v.61c0 .26-.23.5-.5.5H9v2h1.5c1.35 0 2.5-1.11 2.5-2.5V20c2.03 0 4.16-1.92 4.16-4.75 0-2.3-1.92-4.25-4.16-4.25m0-7.5c0-.23.11-.41.32-.47.22-.06.45.03.56.23a.5.5 0 0 1-.08.61l-.8.86V3.5m-2 8c-.97.64-1.7 1.74-1.96 2.76l1.96.52v3.05a3.86 3.86 0 0 1-2.57-2.26c-.59-1.46-.27-3.12.83-4.24L11 9.5v2m2 6.5v-5.06c1.17 0 2.18 1.1 2.18 2.31C15.18 17 13.91 18 13 18Z" transform="matrix(1.5 0 0 1.5 468 324)" id="mdi-music-clef-treble" fill="#fff"/><path d="M12 3v10.55c-.59-.34-1.27-.55-2-.55-2.21 0-4 1.79-4 4s1.79 4 4 4 4-1.79 4-4V7h4V3h-6Z" transform="matrix(1.5 0 0 1.5 504 324)" id="mdi-music-note" fill="#555"/><path d="M12 3v10.55c-.59-.34-1.27-.55-2-.55-2.21 0-4 1.79-4 4s1.79 4 4 4 4-1.79 4-4V7h4V3h-6Z" transform="matrix(1.5 0 0 1.5 540 324)" id="mdi-music-note" fill="#fff"/><path d="M22 9.85 19.14 7h-.5v3.79L16.35 8.5l-.71.71L18.43 12l-2.79 2.79.71.71 2.29-2.29V17h.5L22 14.15 19.85 12 22 9.85m-2.36-.94.94.94-.94.94V8.91m.94 5.24-.94.94v-1.88l.94.94M9.64 3v10.55c-.59-.34-1.27-.55-2-.55-2.21 0-4 1.79-4 4s1.79 4 4 4 4-1.79 4-4V7h4V3h-6Z" transform="matrix(1.5 0 0 1.5 576 324)" id="mdi-music-note-bluetooth" fill="#555"/><path d="M22 9.85 19.14 7h-.5v3.79L16.35 8.5l-.71.71L18.43 12l-2.79 2.79.71.71 2.29-2.29V17h.5L22 14.15 19.85 12 22 9.85m-2.36-.94.94.94-.94.94V8.91m.94 5.24-.94.94v-1.88l.94.94M9.64 3v10.55c-.59-.34-1.27-.55-2-.55-2.21 0-4 1.79-4 4s1.79 4 4 4 4-1.79 4-4V7h4V3h-6Z" transform="matrix(1.5 0 0 1.5 612 324)" id="mdi-music-note-bluetooth" fill="#fff"/><path d="M22 9.85 19.14 7h-.5v3.79L16.35 8.5l-.71.71L18.43 12l-2.79 2.79.71.71 2.29-2.29V17h.5L22 14.15 19.85 12 22 9.85m-2.36-.94.94.94-.94.94V8.91m.94 5.24-.94.94v-1.88l.94.94M1.96 3 .687 4.27l9.003 9v.28c-.59-.34-1.27-.55-2-.55-2.19 0-4 1.79-4 4s1.81 4 4 4 4-1.79 4-4v-1.73L17.42 21l1.27-1.27L1.96 3m9.73 4h4V3h-6v5.18l2 2V7Z" transform="matrix(1.5 0 0 1.5 648 324)" id="mdi-music-note-bluetooth-off" fill="#555"/><path d="M22 9.85 19.14 7h-.5v3.79L16.35 8.5l-.71.71L18.43 12l-2.79 2.79.71.71 2.29-2.29V17h.5L22 14.15 19.85 12 22 9.85m-2.36-.94.94.94-.94.94V8.91m.94 5.24-.94.94v-1.88l.94.94M1.96 3 .687 4.27l9.003 9v.28c-.59-.34-1.27-.55-2-.55-2.19 0-4 1.79-4 4s1.81 4 4 4 4-1.79 4-4v-1.73L17.42 21l1.27-1.27L1.96 3m9.73 4h4V3h-6v5.18l2 2V7Z" transform="matrix(1.5 0 0 1.5 684 324)" id="mdi-music-note-bluetooth-off" fill="#fff"/></svg>