<svg xmlns="http://www.w3.org/2000/svg" width="720" height="900"><path d="M20 8h2v2h-2V8M4 5h16a2 2 0 0 1 2 2h-3v2H5v4h3v3h11v1h3a2 2 0 0 1-2 2h-4v1h-2v-1h-3v1H7v-1H4a2 2 0 0 1-2-2V7a2 2 0 0 1 2-2m15 10H9v-5h10v1h3v2h-3v2m-6-3v2h2v-2h-2M5 6v2h1V6H5m2 0v2h1V6H7m2 0v2h1V6H9m2 0v2h1V6h-1m2 0v2h1V6h-1m2 0v2h1V6h-1m5 8h2v2h-2v-2Z" transform="scale(1.5)" id="mdi-raspberry-pi" fill="#555"/><path d="M20 8h2v2h-2V8M4 5h16a2 2 0 0 1 2 2h-3v2H5v4h3v3h11v1h3a2 2 0 0 1-2 2h-4v1h-2v-1h-3v1H7v-1H4a2 2 0 0 1-2-2V7a2 2 0 0 1 2-2m15 10H9v-5h10v1h3v2h-3v2m-6-3v2h2v-2h-2M5 6v2h1V6H5m2 0v2h1V6H7m2 0v2h1V6H9m2 0v2h1V6h-1m2 0v2h1V6h-1m2 0v2h1V6h-1m5 8h2v2h-2v-2Z" transform="translate(36) scale(1.5)" id="mdi-raspberry-pi" fill="#fff"/><path d="M6.5 9c.8 0 1.5.7 1.5 1.5v1c0 .6-.4 1.1-.9 1.4L8 15H6.5l-.9-2H4.5v2H3V9h3.5m0 2.5v-1h-2v1h2M10.25 9h2.5l1.5 6h-1.5l-.37-1.5h-1.75l-.38 1.5h-1.5l1.5-6m.75 3h1l-.25-1h-.5L11 12m9-3h1.5L20 15h-1.5l-.76-3.04L17 15h-1.5L14 9h1.5l.74 3L17 9h1.5l.74 3L20 9Z" transform="translate(72) scale(1.5)" id="mdi-raw" fill="#555"/><path d="M6.5 9c.8 0 1.5.7 1.5 1.5v1c0 .6-.4 1.1-.9 1.4L8 15H6.5l-.9-2H4.5v2H3V9h3.5m0 2.5v-1h-2v1h2M10.25 9h2.5l1.5 6h-1.5l-.37-1.5h-1.75l-.38 1.5h-1.5l1.5-6m.75 3h1l-.25-1h-.5L11 12m9-3h1.5L20 15h-1.5l-.76-3.04L17 15h-1.5L14 9h1.5l.74 3L17 9h1.5l.74 3L20 9Z" transform="translate(108) scale(1.5)" id="mdi-raw" fill="#fff"/><path d="m17.15 14.32-2.43-2.42L14 9h1.5l.74 3L17 9h1.5l.74 3L20 9h1.5L20 15h-1.5l-.76-3.04-.59 2.36M1.39 4.22l1.42-1.41L21.19 21.2l-1.41 1.41-9.11-9.11h-.04l-.38 1.5h-1.5l.68-2.74L8 10.83v.67c0 .6-.4 1.1-.9 1.4L8 15H6.5l-.9-2H4.5v2H3V9h3.17L1.39 4.22M6.5 11.5v-1h-2v1h2Z" transform="translate(144) scale(1.5)" id="mdi-raw-off" fill="#555"/><path d="m17.15 14.32-2.43-2.42L14 9h1.5l.74 3L17 9h1.5l.74 3L20 9h1.5L20 15h-1.5l-.76-3.04-.59 2.36M1.39 4.22l1.42-1.41L21.19 21.2l-1.41 1.41-9.11-9.11h-.04l-.38 1.5h-1.5l.68-2.74L8 10.83v.67c0 .6-.4 1.1-.9 1.4L8 15H6.5l-.9-2H4.5v2H3V9h3.17L1.39 4.22M6.5 11.5v-1h-2v1h2Z" transform="translate(180) scale(1.5)" id="mdi-raw-off" fill="#fff"/><path d="M20 9c-1.31 0-2.42.83-2.83 2H2v2h15.17c.41 1.17 1.52 2 2.83 2a3 3 0 0 0 3-3 3 3 0 0 0-3-3Z" transform="translate(216) scale(1.5)" id="mdi-ray-end" fill="#555"/><path d="M20 9c-1.31 0-2.42.83-2.83 2H2v2h15.17c.41 1.17 1.52 2 2.83 2a3 3 0 0 0 3-3 3 3 0 0 0-3-3Z" transform="translate(252) scale(1.5)" id="mdi-ray-end" fill="#fff"/><path d="m1 12 4 4v-3h12.17c.41 1.17 1.52 2 2.83 2a3 3 0 0 0 3-3 3 3 0 0 0-3-3c-1.31 0-2.42.83-2.83 2H5V8l-4 4Z" transform="translate(288) scale(1.5)" id="mdi-ray-end-arrow" fill="#555"/><path d="m1 12 4 4v-3h12.17c.41 1.17 1.52 2 2.83 2a3 3 0 0 0 3-3 3 3 0 0 0-3-3c-1.31 0-2.42.83-2.83 2H5V8l-4 4Z" transform="translate(324) scale(1.5)" id="mdi-ray-end-arrow" fill="#fff"/><path d="M4 9c1.31 0 2.42.83 2.83 2H22v2H6.83A2.99 2.99 0 0 1 4 15a3 3 0 0 1-3-3 3 3 0 0 1 3-3Z" transform="translate(360) scale(1.5)" id="mdi-ray-start" fill="#555"/><path d="M4 9c1.31 0 2.42.83 2.83 2H22v2H6.83A2.99 2.99 0 0 1 4 15a3 3 0 0 1-3-3 3 3 0 0 1 3-3Z" transform="translate(396) scale(1.5)" id="mdi-ray-start" fill="#fff"/><path d="m23 12-4 4v-3H6.83A2.99 2.99 0 0 1 4 15a3 3 0 0 1-3-3 3 3 0 0 1 3-3c1.31 0 2.42.83 2.83 2H19V8l4 4Z" transform="translate(432) scale(1.5)" id="mdi-ray-start-arrow" fill="#555"/><path d="m23 12-4 4v-3H6.83A2.99 2.99 0 0 1 4 15a3 3 0 0 1-3-3 3 3 0 0 1 3-3c1.31 0 2.42.83 2.83 2H19V8l4 4Z" transform="translate(468) scale(1.5)" id="mdi-ray-start-arrow" fill="#fff"/><path d="M4 9c1.31 0 2.42.83 2.83 2h10.34c.41-1.17 1.52-2 2.83-2a3 3 0 0 1 3 3 3 3 0 0 1-3 3 2.99 2.99 0 0 1-2.83-2H6.83A2.99 2.99 0 0 1 4 15a3 3 0 0 1-3-3 3 3 0 0 1 3-3Z" transform="translate(504) scale(1.5)" id="mdi-ray-start-end" fill="#555"/><path d="M4 9c1.31 0 2.42.83 2.83 2h10.34c.41-1.17 1.52-2 2.83-2a3 3 0 0 1 3 3 3 3 0 0 1-3 3 2.99 2.99 0 0 1-2.83-2H6.83A2.99 2.99 0 0 1 4 15a3 3 0 0 1-3-3 3 3 0 0 1 3-3Z" transform="translate(540) scale(1.5)" id="mdi-ray-start-end" fill="#fff"/><path d="M20 9c-1.31 0-2.42.83-2.83 2h-2.35C14.4 9.84 13.3 9 12 9s-2.4.84-2.82 2H6.83A2.99 2.99 0 0 0 4 9c-1.66 0-3 1.34-3 3s1.34 3 3 3c1.31 0 2.42-.83 2.83-2h2.35c.42 1.16 1.52 2 2.82 2s2.4-.84 2.82-2h2.35c.41 1.17 1.52 2 2.83 2 1.66 0 3-1.34 3-3s-1.34-3-3-3" transform="translate(576) scale(1.5)" id="mdi-ray-start-vertex-end" fill="#555"/><path d="M20 9c-1.31 0-2.42.83-2.83 2h-2.35C14.4 9.84 13.3 9 12 9s-2.4.84-2.82 2H6.83A2.99 2.99 0 0 0 4 9c-1.66 0-3 1.34-3 3s1.34 3 3 3c1.31 0 2.42-.83 2.83-2h2.35c.42 1.16 1.52 2 2.82 2s2.4-.84 2.82-2h2.35c.41 1.17 1.52 2 2.83 2 1.66 0 3-1.34 3-3s-1.34-3-3-3" transform="translate(612) scale(1.5)" id="mdi-ray-start-vertex-end" fill="#fff"/><path d="M2 11h7.17c.41-1.17 1.52-2 2.83-2s2.42.83 2.83 2H22v2h-7.17A2.99 2.99 0 0 1 12 15a2.99 2.99 0 0 1-2.83-2H2v-2Z" transform="translate(648) scale(1.5)" id="mdi-ray-vertex" fill="#555"/><path d="M2 11h7.17c.41-1.17 1.52-2 2.83-2s2.42.83 2.83 2H22v2h-7.17A2.99 2.99 0 0 1 12 15a2.99 2.99 0 0 1-2.83-2H2v-2Z" transform="translate(684) scale(1.5)" id="mdi-ray-vertex" fill="#fff"/><path d="M20 8c-.55 0-1-.45-1-1s.45-1 1-1V5H4v1c.55 0 1 .45 1 1s-.45 1-1 1H2v7h2c.55 0 1 .45 1 1s-.45 1-1 1v1h16v-1c-.55 0-1-.45-1-1s.45-1 1-1h2V8h-2m0 4h-1v1h-2v-1h-3.59c-.21.58-.76 1-1.41 1s-1.2-.42-1.41-1H7v1H5v-1H4v-1h1v-1h2v1h3.59c.21-.58.76-1 1.41-1s1.2.42 1.41 1H17v-1h2v1h1v1Z" transform="matrix(1.5 0 0 1.5 0 36)" id="mdi-razor-double-edge" fill="#555"/><path d="M20 8c-.55 0-1-.45-1-1s.45-1 1-1V5H4v1c.55 0 1 .45 1 1s-.45 1-1 1H2v7h2c.55 0 1 .45 1 1s-.45 1-1 1v1h16v-1c-.55 0-1-.45-1-1s.45-1 1-1h2V8h-2m0 4h-1v1h-2v-1h-3.59c-.21.58-.76 1-1.41 1s-1.2-.42-1.41-1H7v1H5v-1H4v-1h1v-1h2v1h3.59c.21-.58.76-1 1.41-1s1.2.42 1.41 1H17v-1h2v1h1v1Z" transform="matrix(1.5 0 0 1.5 36 36)" id="mdi-razor-double-edge" fill="#fff"/><path d="M22 5v3H2V5h20m0 8v5H2v-5h1.5c.83 0 1.5-.67 1.5-1.5S4.33 10 3.5 10H2V9h20v1h-1.5c-.83 0-1.5.67-1.5 1.5s.67 1.5 1.5 1.5H22m-9-2c0-.55-.45-1-1-1s-1 .45-1 1v2c0 .55.45 1 1 1s1-.45 1-1v-2Z" transform="matrix(1.5 0 0 1.5 72 36)" id="mdi-razor-single-edge" fill="#555"/><path d="M22 5v3H2V5h20m0 8v5H2v-5h1.5c.83 0 1.5-.67 1.5-1.5S4.33 10 3.5 10H2V9h20v1h-1.5c-.83 0-1.5.67-1.5 1.5s.67 1.5 1.5 1.5H22m-9-2c0-.55-.45-1-1-1s-1 .45-1 1v2c0 .55.45 1 1 1s1-.45 1-1v-2Z" transform="matrix(1.5 0 0 1.5 108 36)" id="mdi-razor-single-edge" fill="#fff"/><path d="M12 10.11c1.03 0 1.87.84 1.87 1.89 0 1-.84 1.85-1.87 1.85-1.03 0-1.87-.85-1.87-1.85 0-1.05.84-1.89 1.87-1.89M7.37 20c.63.38 2.01-.2 3.6-1.7-.52-.59-1.03-1.23-1.51-1.9a22.7 22.7 0 0 1-2.4-.36c-.51 2.14-.32 3.61.31 3.96m.71-5.74-.29-.51c-.11.29-.22.58-.29.86.27.06.57.11.88.16l-.3-.51m6.54-.76.81-1.5-.81-1.5c-.3-.53-.62-1-.91-1.47C13.17 9 12.6 9 12 9c-.6 0-1.17 0-1.71.03-.29.47-.61.94-.91 1.47L8.57 12l.81 1.5c.3.53.62 1 .91 1.47.54.03 1.11.03 1.71.03.6 0 1.17 0 1.71-.03.29-.47.61-.94.91-1.47M12 6.78c-.19.22-.39.45-.59.72h1.18c-.2-.27-.4-.5-.59-.72m0 10.44c.19-.22.39-.45.59-.72h-1.18c.2.27.4.5.59.72M16.62 4c-.62-.38-2 .2-3.59 1.7.52.59 1.03 1.23 1.51 1.9.82.08 1.63.2 2.4.36.51-2.14.32-3.61-.32-3.96m-.7 5.74.29.51c.11-.29.22-.58.29-.86-.27-.06-.57-.11-.88-.16l.3.51m1.45-7.05c1.47.84 1.63 3.05 1.01 5.63 2.54.75 4.37 1.99 4.37 3.68 0 1.69-1.83 2.93-4.37 3.68.62 2.58.46 4.79-1.01 5.63-1.46.84-3.45-.12-5.37-1.95-1.92 1.83-3.91 2.79-5.38 1.95-1.46-.84-1.62-3.05-1-5.63-2.54-.75-4.37-1.99-4.37-3.68 0-1.69 1.83-2.93 4.37-3.68-.62-2.58-.46-4.79 1-5.63 1.47-.84 3.46.12 5.38 1.95 1.92-1.83 3.91-2.79 5.37-1.95M17.08 12c.34.75.64 1.5.89 2.26 2.1-.63 3.28-1.53 3.28-2.26 0-.73-1.18-1.63-3.28-2.26-.25.76-.55 1.51-.89 2.26M6.92 12c-.34-.75-.64-1.5-.89-2.26-2.1.63-3.28 1.53-3.28 2.26 0 .73 1.18 1.63 3.28 2.26.25-.76.55-1.51.89-2.26m9 2.26-.3.51c.31-.05.61-.1.88-.16-.07-.28-.18-.57-.29-.86l-.29.51m-2.89 4.04c1.59 1.5 2.97 2.08 3.59 1.7.64-.35.83-1.82.32-3.96-.77.16-1.58.28-2.4.36-.48.67-.99 1.31-1.51 1.9M8.08 9.74l.3-.51c-.31.05-.61.1-.88.16.07.28.18.57.29.86l.29-.51m2.89-4.04C9.38 4.2 8 3.62 7.37 4c-.63.35-.82 1.82-.31 3.96a22.7 22.7 0 0 1 2.4-.36c.48-.67.99-1.31 1.51-1.9Z" transform="matrix(1.5 0 0 1.5 144 36)" id="mdi-react" fill="#555"/><path d="M12 10.11c1.03 0 1.87.84 1.87 1.89 0 1-.84 1.85-1.87 1.85-1.03 0-1.87-.85-1.87-1.85 0-1.05.84-1.89 1.87-1.89M7.37 20c.63.38 2.01-.2 3.6-1.7-.52-.59-1.03-1.23-1.51-1.9a22.7 22.7 0 0 1-2.4-.36c-.51 2.14-.32 3.61.31 3.96m.71-5.74-.29-.51c-.11.29-.22.58-.29.86.27.06.57.11.88.16l-.3-.51m6.54-.76.81-1.5-.81-1.5c-.3-.53-.62-1-.91-1.47C13.17 9 12.6 9 12 9c-.6 0-1.17 0-1.71.03-.29.47-.61.94-.91 1.47L8.57 12l.81 1.5c.3.53.62 1 .91 1.47.54.03 1.11.03 1.71.03.6 0 1.17 0 1.71-.03.29-.47.61-.94.91-1.47M12 6.78c-.19.22-.39.45-.59.72h1.18c-.2-.27-.4-.5-.59-.72m0 10.44c.19-.22.39-.45.59-.72h-1.18c.2.27.4.5.59.72M16.62 4c-.62-.38-2 .2-3.59 1.7.52.59 1.03 1.23 1.51 1.9.82.08 1.63.2 2.4.36.51-2.14.32-3.61-.32-3.96m-.7 5.74.29.51c.11-.29.22-.58.29-.86-.27-.06-.57-.11-.88-.16l.3.51m1.45-7.05c1.47.84 1.63 3.05 1.01 5.63 2.54.75 4.37 1.99 4.37 3.68 0 1.69-1.83 2.93-4.37 3.68.62 2.58.46 4.79-1.01 5.63-1.46.84-3.45-.12-5.37-1.95-1.92 1.83-3.91 2.79-5.38 1.95-1.46-.84-1.62-3.05-1-5.63-2.54-.75-4.37-1.99-4.37-3.68 0-1.69 1.83-2.93 4.37-3.68-.62-2.58-.46-4.79 1-5.63 1.47-.84 3.46.12 5.38 1.95 1.92-1.83 3.91-2.79 5.37-1.95M17.08 12c.34.75.64 1.5.89 2.26 2.1-.63 3.28-1.53 3.28-2.26 0-.73-1.18-1.63-3.28-2.26-.25.76-.55 1.51-.89 2.26M6.92 12c-.34-.75-.64-1.5-.89-2.26-2.1.63-3.28 1.53-3.28 2.26 0 .73 1.18 1.63 3.28 2.26.25-.76.55-1.51.89-2.26m9 2.26-.3.51c.31-.05.61-.1.88-.16-.07-.28-.18-.57-.29-.86l-.29.51m-2.89 4.04c1.59 1.5 2.97 2.08 3.59 1.7.64-.35.83-1.82.32-3.96-.77.16-1.58.28-2.4.36-.48.67-.99 1.31-1.51 1.9M8.08 9.74l.3-.51c-.31.05-.61.1-.88.16.07.28.18.57.29.86l.29-.51m2.89-4.04C9.38 4.2 8 3.62 7.37 4c-.63.35-.82 1.82-.31 3.96a22.7 22.7 0 0 1 2.4-.36c.48-.67.99-1.31 1.51-1.9Z" transform="matrix(1.5 0 0 1.5 180 36)" id="mdi-react" fill="#fff"/><path d="M21.59 11.59 23 13l-9.5 9.5-5.08-5.09L9.83 16l3.67 3.68 8.09-8.09M4 16V3h5a4 4 0 0 1 4 4c0 1.54-.87 2.88-2.15 3.55L14 16h-2l-2.89-5H6v5H4m2-7h3a2 2 0 0 0 2-2 2 2 0 0 0-2-2H6v4Z" transform="matrix(1.5 0 0 1.5 216 36)" id="mdi-read" fill="#555"/><path d="M21.59 11.59 23 13l-9.5 9.5-5.08-5.09L9.83 16l3.67 3.68 8.09-8.09M4 16V3h5a4 4 0 0 1 4 4c0 1.54-.87 2.88-2.15 3.55L14 16h-2l-2.89-5H6v5H4m2-7h3a2 2 0 0 0 2-2 2 2 0 0 0-2-2H6v4Z" transform="matrix(1.5 0 0 1.5 252 36)" id="mdi-read" fill="#fff"/><path d="m3 22 1.5-1.5L6 22l1.5-1.5L9 22l1.5-1.5L12 22l1.5-1.5L15 22l1.5-1.5L18 22l1.5-1.5L21 22V2l-1.5 1.5L18 2l-1.5 1.5L15 2l-1.5 1.5L12 2l-1.5 1.5L9 2 7.5 3.5 6 2 4.5 3.5 3 2m15 7H6V7h12m0 6H6v-2h12m0 6H6v-2h12v2Z" transform="matrix(1.5 0 0 1.5 288 36)" id="mdi-receipt" fill="#555"/><path d="m3 22 1.5-1.5L6 22l1.5-1.5L9 22l1.5-1.5L12 22l1.5-1.5L15 22l1.5-1.5L18 22l1.5-1.5L21 22V2l-1.5 1.5L18 2l-1.5 1.5L15 2l-1.5 1.5L12 2l-1.5 1.5L9 2 7.5 3.5 6 2 4.5 3.5 3 2m15 7H6V7h12m0 6H6v-2h12m0 6H6v-2h12v2Z" transform="matrix(1.5 0 0 1.5 324 36)" id="mdi-receipt" fill="#fff"/><path d="M19.5 3.5 18 2l-1.5 1.5L15 2l-1.5 1.5L12 2l-1.5 1.5L9 2 7.5 3.5 6 2 4.5 3.5 3 2v20l1.5-1.5L6 22l1.5-1.5L9 22l1.5-1.5L12 22l1.5-1.5L15 22l1.5-1.5L18 22l1.5-1.5L21 22V2l-1.5 1.5M19 19.09H5V4.91h14v14.18M6 15h12v2H6m0-6h12v2H6m0-6h12v2H6Z" transform="matrix(1.5 0 0 1.5 360 36)" id="mdi-receipt-outline" fill="#555"/><path d="M19.5 3.5 18 2l-1.5 1.5L15 2l-1.5 1.5L12 2l-1.5 1.5L9 2 7.5 3.5 6 2 4.5 3.5 3 2v20l1.5-1.5L6 22l1.5-1.5L9 22l1.5-1.5L12 22l1.5-1.5L15 22l1.5-1.5L18 22l1.5-1.5L21 22V2l-1.5 1.5M19 19.09H5V4.91h14v14.18M6 15h12v2H6m0-6h12v2H6m0-6h12v2H6Z" transform="matrix(1.5 0 0 1.5 396 36)" id="mdi-receipt-outline" fill="#fff"/><path d="m18.25 22-2.75-3 1.16-1.18 1.59 1.59 3.59-3.59L23 17.23M19.5 3.5 18 2l-1.5 1.5L15 2l-1.5 1.5L12 2l-1.5 1.5L9 2 7.5 3.5 6 2 4.5 3.5 3 2v20l1.5-1.5L6 22l1.5-1.5L9 22l1.5-1.5L12 22l1.26-1.26c-.17-.56-.26-1.15-.26-1.74 0-.68.12-1.36.34-2H6v-2h8.53A6.003 6.003 0 0 1 21 13.34V2l-1.5 1.5M18 13H6v-2h12v2m0-4H6V7h12v2Z" transform="matrix(1.5 0 0 1.5 432 36)" id="mdi-receipt-text-check" fill="#555"/><path d="m18.25 22-2.75-3 1.16-1.18 1.59 1.59 3.59-3.59L23 17.23M19.5 3.5 18 2l-1.5 1.5L15 2l-1.5 1.5L12 2l-1.5 1.5L9 2 7.5 3.5 6 2 4.5 3.5 3 2v20l1.5-1.5L6 22l1.5-1.5L9 22l1.5-1.5L12 22l1.26-1.26c-.17-.56-.26-1.15-.26-1.74 0-.68.12-1.36.34-2H6v-2h8.53A6.003 6.003 0 0 1 21 13.34V2l-1.5 1.5M18 13H6v-2h12v2m0-4H6V7h12v2Z" transform="matrix(1.5 0 0 1.5 468 36)" id="mdi-receipt-text-check" fill="#fff"/><path d="M13.26 20.74 12 22l-1.5-1.5L9 22l-1.5-1.5L6 22l-1.5-1.5L3 22V2l1.5 1.5L6 2l1.5 1.5L9 2l1.5 1.5L12 2l1.5 1.5L15 2l1.5 1.5L18 2l1.5 1.5L21 2v11.35c-.63-.22-1.3-.35-2-.35V4.91H5v14.18h8c0 .57.1 1.13.26 1.65M6 15v2h7.35c.26-.75.65-1.42 1.19-2H6m0-2h12v-2H6v2m0-4h12V7H6v2m17 8.23-1.16-1.41-3.59 3.59-1.59-1.59L15.5 19l2.75 3" transform="matrix(1.5 0 0 1.5 504 36)" id="mdi-receipt-text-check-outline" fill="#555"/><path d="M13.26 20.74 12 22l-1.5-1.5L9 22l-1.5-1.5L6 22l-1.5-1.5L3 22V2l1.5 1.5L6 2l1.5 1.5L9 2l1.5 1.5L12 2l1.5 1.5L15 2l1.5 1.5L18 2l1.5 1.5L21 2v11.35c-.63-.22-1.3-.35-2-.35V4.91H5v14.18h8c0 .57.1 1.13.26 1.65M6 15v2h7.35c.26-.75.65-1.42 1.19-2H6m0-2h12v-2H6v2m0-4h12V7H6v2m17 8.23-1.16-1.41-3.59 3.59-1.59-1.59L15.5 19l2.75 3" transform="matrix(1.5 0 0 1.5 540 36)" id="mdi-receipt-text-check-outline" fill="#fff"/><path d="M15 18v2h8v-2h-8m4.5-14.5L18 2l-1.5 1.5L15 2l-1.5 1.5L12 2l-1.5 1.5L9 2 7.5 3.5 6 2 4.5 3.5 3 2v20l1.5-1.5L6 22l1.5-1.5L9 22l1.5-1.5L12 22l1.26-1.26c-.17-.56-.26-1.15-.26-1.74 0-.68.12-1.36.34-2H6v-2h8.53A6.003 6.003 0 0 1 21 13.34V2l-1.5 1.5M18 13H6v-2h12v2m0-4H6V7h12v2Z" transform="matrix(1.5 0 0 1.5 576 36)" id="mdi-receipt-text-minus" fill="#555"/><path d="M15 18v2h8v-2h-8m4.5-14.5L18 2l-1.5 1.5L15 2l-1.5 1.5L12 2l-1.5 1.5L9 2 7.5 3.5 6 2 4.5 3.5 3 2v20l1.5-1.5L6 22l1.5-1.5L9 22l1.5-1.5L12 22l1.26-1.26c-.17-.56-.26-1.15-.26-1.74 0-.68.12-1.36.34-2H6v-2h8.53A6.003 6.003 0 0 1 21 13.34V2l-1.5 1.5M18 13H6v-2h12v2m0-4H6V7h12v2Z" transform="matrix(1.5 0 0 1.5 612 36)" id="mdi-receipt-text-minus" fill="#fff"/><path d="M15 18v2h8v-2h-8m-1.74 2.74L12 22l-1.5-1.5L9 22l-1.5-1.5L6 22l-1.5-1.5L3 22V2l1.5 1.5L6 2l1.5 1.5L9 2l1.5 1.5L12 2l1.5 1.5L15 2l1.5 1.5L18 2l1.5 1.5L21 2v11.35c-.63-.22-1.3-.35-2-.35V4.91H5v14.18h8c0 .57.1 1.13.26 1.65M14.54 15c-.54.58-.93 1.25-1.19 2H6v-2h8.54M6 11h12v2H6v-2m0-4h12v2H6V7Z" transform="matrix(1.5 0 0 1.5 648 36)" id="mdi-receipt-text-minus-outline" fill="#555"/><path d="M15 18v2h8v-2h-8m-1.74 2.74L12 22l-1.5-1.5L9 22l-1.5-1.5L6 22l-1.5-1.5L3 22V2l1.5 1.5L6 2l1.5 1.5L9 2l1.5 1.5L12 2l1.5 1.5L15 2l1.5 1.5L18 2l1.5 1.5L21 2v11.35c-.63-.22-1.3-.35-2-.35V4.91H5v14.18h8c0 .57.1 1.13.26 1.65M14.54 15c-.54.58-.93 1.25-1.19 2H6v-2h8.54M6 11h12v2H6v-2m0-4h12v2H6V7Z" transform="matrix(1.5 0 0 1.5 684 36)" id="mdi-receipt-text-minus-outline" fill="#fff"/><path d="M18 15v3h-3v2h3v3h2v-3h3v-2h-3v-3h-2m1.5-11.5L18 2l-1.5 1.5L15 2l-1.5 1.5L12 2l-1.5 1.5L9 2 7.5 3.5 6 2 4.5 3.5 3 2v20l1.5-1.5L6 22l1.5-1.5L9 22l1.5-1.5L12 22l1.26-1.26c-.17-.56-.26-1.15-.26-1.74 0-.68.12-1.36.34-2H6v-2h8.53A6.003 6.003 0 0 1 21 13.34V2l-1.5 1.5M18 13H6v-2h12v2m0-4H6V7h12v2Z" transform="matrix(1.5 0 0 1.5 0 72)" id="mdi-receipt-text-plus" fill="#555"/><path d="M18 15v3h-3v2h3v3h2v-3h3v-2h-3v-3h-2m1.5-11.5L18 2l-1.5 1.5L15 2l-1.5 1.5L12 2l-1.5 1.5L9 2 7.5 3.5 6 2 4.5 3.5 3 2v20l1.5-1.5L6 22l1.5-1.5L9 22l1.5-1.5L12 22l1.26-1.26c-.17-.56-.26-1.15-.26-1.74 0-.68.12-1.36.34-2H6v-2h8.53A6.003 6.003 0 0 1 21 13.34V2l-1.5 1.5M18 13H6v-2h12v2m0-4H6V7h12v2Z" transform="matrix(1.5 0 0 1.5 36 72)" id="mdi-receipt-text-plus" fill="#fff"/><path d="M18 15v3h-3v2h3v3h2v-3h3v-2h-3v-3h-2m-4.74 5.74L12 22l-1.5-1.5L9 22l-1.5-1.5L6 22l-1.5-1.5L3 22V2l1.5 1.5L6 2l1.5 1.5L9 2l1.5 1.5L12 2l1.5 1.5L15 2l1.5 1.5L18 2l1.5 1.5L21 2v11.35c-.63-.22-1.3-.35-2-.35V4.91H5v14.18h8c0 .57.1 1.13.26 1.65M14.54 15c-.54.58-.93 1.25-1.19 2H6v-2h8.54M6 11h12v2H6v-2m0-4h12v2H6V7Z" transform="matrix(1.5 0 0 1.5 72 72)" id="mdi-receipt-text-plus-outline" fill="#555"/><path d="M18 15v3h-3v2h3v3h2v-3h3v-2h-3v-3h-2m-4.74 5.74L12 22l-1.5-1.5L9 22l-1.5-1.5L6 22l-1.5-1.5L3 22V2l1.5 1.5L6 2l1.5 1.5L9 2l1.5 1.5L12 2l1.5 1.5L15 2l1.5 1.5L18 2l1.5 1.5L21 2v11.35c-.63-.22-1.3-.35-2-.35V4.91H5v14.18h8c0 .57.1 1.13.26 1.65M14.54 15c-.54.58-.93 1.25-1.19 2H6v-2h8.54M6 11h12v2H6v-2m0-4h12v2H6V7Z" transform="matrix(1.5 0 0 1.5 108 72)" id="mdi-receipt-text-plus-outline" fill="#fff"/><path d="M21.12 15.46 19 17.59l-2.12-2.12-1.41 1.41L17.59 19l-2.12 2.12 1.41 1.42L19 20.41l2.12 2.13 1.42-1.42L20.41 19l2.13-2.12-1.42-1.42M19.5 3.5 18 2l-1.5 1.5L15 2l-1.5 1.5L12 2l-1.5 1.5L9 2 7.5 3.5 6 2 4.5 3.5 3 2v20l1.5-1.5L6 22l1.5-1.5L9 22l1.5-1.5L12 22l1.26-1.26c-.17-.56-.26-1.15-.26-1.74 0-.68.12-1.36.34-2H6v-2h8.53A6.003 6.003 0 0 1 21 13.34V2l-1.5 1.5M18 13H6v-2h12v2m0-4H6V7h12v2Z" transform="matrix(1.5 0 0 1.5 144 72)" id="mdi-receipt-text-remove" fill="#555"/><path d="M21.12 15.46 19 17.59l-2.12-2.12-1.41 1.41L17.59 19l-2.12 2.12 1.41 1.42L19 20.41l2.12 2.13 1.42-1.42L20.41 19l2.13-2.12-1.42-1.42M19.5 3.5 18 2l-1.5 1.5L15 2l-1.5 1.5L12 2l-1.5 1.5L9 2 7.5 3.5 6 2 4.5 3.5 3 2v20l1.5-1.5L6 22l1.5-1.5L9 22l1.5-1.5L12 22l1.26-1.26c-.17-.56-.26-1.15-.26-1.74 0-.68.12-1.36.34-2H6v-2h8.53A6.003 6.003 0 0 1 21 13.34V2l-1.5 1.5M18 13H6v-2h12v2m0-4H6V7h12v2Z" transform="matrix(1.5 0 0 1.5 180 72)" id="mdi-receipt-text-remove" fill="#fff"/><path d="M21.12 15.46 19 17.59l-2.12-2.12-1.41 1.41L17.59 19l-2.12 2.12 1.41 1.42L19 20.41l2.12 2.13 1.42-1.42L20.41 19l2.13-2.12-1.42-1.42m-7.86 5.28L12 22l-1.5-1.5L9 22l-1.5-1.5L6 22l-1.5-1.5L3 22V2l1.5 1.5L6 2l1.5 1.5L9 2l1.5 1.5L12 2l1.5 1.5L15 2l1.5 1.5L18 2l1.5 1.5L21 2v11.35c-.63-.22-1.3-.35-2-.35V4.91H5v14.18h8c0 .57.1 1.13.26 1.65M14.54 15c-.54.58-.93 1.25-1.19 2H6v-2h8.54M6 11h12v2H6v-2m0-4h12v2H6V7Z" transform="matrix(1.5 0 0 1.5 216 72)" id="mdi-receipt-text-remove-outline" fill="#555"/><path d="M21.12 15.46 19 17.59l-2.12-2.12-1.41 1.41L17.59 19l-2.12 2.12 1.41 1.42L19 20.41l2.12 2.13 1.42-1.42L20.41 19l2.13-2.12-1.42-1.42m-7.86 5.28L12 22l-1.5-1.5L9 22l-1.5-1.5L6 22l-1.5-1.5L3 22V2l1.5 1.5L6 2l1.5 1.5L9 2l1.5 1.5L12 2l1.5 1.5L15 2l1.5 1.5L18 2l1.5 1.5L21 2v11.35c-.63-.22-1.3-.35-2-.35V4.91H5v14.18h8c0 .57.1 1.13.26 1.65M14.54 15c-.54.58-.93 1.25-1.19 2H6v-2h8.54M6 11h12v2H6v-2m0-4h12v2H6V7Z" transform="matrix(1.5 0 0 1.5 252 72)" id="mdi-receipt-text-remove-outline" fill="#fff"/><path d="M19 12c0 3.86-3.14 7-7 7s-7-3.14-7-7 3.14-7 7-7 7 3.14 7 7Z" transform="matrix(1.5 0 0 1.5 288 72)" id="mdi-record" fill="#555"/><path d="M19 12c0 3.86-3.14 7-7 7s-7-3.14-7-7 3.14-7 7-7 7 3.14 7 7Z" transform="matrix(1.5 0 0 1.5 324 72)" id="mdi-record" fill="#fff"/><path d="M12 2A10 10 0 0 0 2 12a10 10 0 0 0 10 10 10 10 0 0 0 10-10A10 10 0 0 0 12 2m0 7a3 3 0 0 1 3 3 3 3 0 0 1-3 3 3 3 0 0 1-3-3 3 3 0 0 1 3-3Z" transform="matrix(1.5 0 0 1.5 360 72)" id="mdi-record-circle" fill="#555"/><path d="M12 2A10 10 0 0 0 2 12a10 10 0 0 0 10 10 10 10 0 0 0 10-10A10 10 0 0 0 12 2m0 7a3 3 0 0 1 3 3 3 3 0 0 1-3 3 3 3 0 0 1-3-3 3 3 0 0 1 3-3Z" transform="matrix(1.5 0 0 1.5 396 72)" id="mdi-record-circle" fill="#fff"/><path d="M12 2A10 10 0 0 0 2 12a10 10 0 0 0 10 10 10 10 0 0 0 10-10A10 10 0 0 0 12 2m0 2a8 8 0 0 1 8 8 8 8 0 0 1-8 8 8 8 0 0 1-8-8 8 8 0 0 1 8-8m0 5a3 3 0 0 0-3 3 3 3 0 0 0 3 3 3 3 0 0 0 3-3 3 3 0 0 0-3-3Z" transform="matrix(1.5 0 0 1.5 432 72)" id="mdi-record-circle-outline" fill="#555"/><path d="M12 2A10 10 0 0 0 2 12a10 10 0 0 0 10 10 10 10 0 0 0 10-10A10 10 0 0 0 12 2m0 2a8 8 0 0 1 8 8 8 8 0 0 1-8 8 8 8 0 0 1-8-8 8 8 0 0 1 8-8m0 5a3 3 0 0 0-3 3 3 3 0 0 0 3 3 3 3 0 0 0 3-3 3 3 0 0 0-3-3Z" transform="matrix(1.5 0 0 1.5 468 72)" id="mdi-record-circle-outline" fill="#fff"/><path d="M5 17.5a.5.5 0 0 1-.5.5h-1a.5.5 0 0 1-.5-.5V17H2a1 1 0 0 1-1-1v-3a1 1 0 0 1 1-1h17v-2H7l-1 1V9a1 1 0 0 1 1-1h12V7h2v1a1 1 0 0 1 1 1v1h-1v2h1a1 1 0 0 1 1 1v3a1 1 0 0 1-1 1h-1v.5a.5.5 0 0 1-.5.5h-1a.5.5 0 0 1-.5-.5V17H5v.5M3 14v1h2v-1H3m3 0v1h2v-1H6m14.5-.5a1 1 0 0 0-1 1 1 1 0 0 0 1 1 1 1 0 0 0 1-1 1 1 0 0 0-1-1Z" transform="matrix(1.5 0 0 1.5 504 72)" id="mdi-record-player" fill="#555"/><path d="M5 17.5a.5.5 0 0 1-.5.5h-1a.5.5 0 0 1-.5-.5V17H2a1 1 0 0 1-1-1v-3a1 1 0 0 1 1-1h17v-2H7l-1 1V9a1 1 0 0 1 1-1h12V7h2v1a1 1 0 0 1 1 1v1h-1v2h1a1 1 0 0 1 1 1v3a1 1 0 0 1-1 1h-1v.5a.5.5 0 0 1-.5.5h-1a.5.5 0 0 1-.5-.5V17H5v.5M3 14v1h2v-1H3m3 0v1h2v-1H6m14.5-.5a1 1 0 0 0-1 1 1 1 0 0 0 1 1 1 1 0 0 0 1-1 1 1 0 0 0-1-1Z" transform="matrix(1.5 0 0 1.5 540 72)" id="mdi-record-player" fill="#fff"/><path d="M12.5 5A7.5 7.5 0 0 0 5 12.5a7.5 7.5 0 0 0 7.5 7.5 7.5 7.5 0 0 0 7.5-7.5A7.5 7.5 0 0 0 12.5 5M7 10h2a1 1 0 0 1 1 1v1c0 .5-.38.9-.86.97L10.31 15H9.15L8 13v2H7m5-5h2v1h-2v1h2v1h-2v1h2v1h-2a1 1 0 0 1-1-1v-3a1 1 0 0 1 1-1m4 0h2v1h-2v3h2v1h-2a1 1 0 0 1-1-1v-3a1 1 0 0 1 1-1m-8 1v1h1v-1" transform="matrix(1.5 0 0 1.5 576 72)" id="mdi-record-rec" fill="#555"/><path d="M12.5 5A7.5 7.5 0 0 0 5 12.5a7.5 7.5 0 0 0 7.5 7.5 7.5 7.5 0 0 0 7.5-7.5A7.5 7.5 0 0 0 12.5 5M7 10h2a1 1 0 0 1 1 1v1c0 .5-.38.9-.86.97L10.31 15H9.15L8 13v2H7m5-5h2v1h-2v1h2v1h-2v1h2v1h-2a1 1 0 0 1-1-1v-3a1 1 0 0 1 1-1m4 0h2v1h-2v3h2v1h-2a1 1 0 0 1-1-1v-3a1 1 0 0 1 1-1m-8 1v1h1v-1" transform="matrix(1.5 0 0 1.5 612 72)" id="mdi-record-rec" fill="#fff"/><path d="M4 6v13h16V6H4Z" transform="matrix(1.5 0 0 1.5 648 72)" id="mdi-rectangle" fill="#555"/><path d="M4 6v13h16V6H4Z" transform="matrix(1.5 0 0 1.5 684 72)" id="mdi-rectangle" fill="#fff"/><path d="M4 6v13h16V6H4m14 11H6V8h12v9Z" transform="matrix(1.5 0 0 1.5 0 108)" id="mdi-rectangle-outline" fill="#555"/><path d="M4 6v13h16V6H4m14 11H6V8h12v9Z" transform="matrix(1.5 0 0 1.5 36 108)" id="mdi-rectangle-outline" fill="#fff"/><path d="m21.82 15.42-2.5 4.33c-.49.86-1.4 1.31-2.32 1.25h-2v2l-2.5-4.5L15 14v2h2.82l-2.22-3.85 4.33-2.5 1.8 3.12c.52.77.59 1.8.09 2.65M9.21 3.06h5c.98 0 1.83.57 2.24 1.39l1 1.74 1.73-1-2.64 4.41-5.15.09 1.73-1-1.41-2.45-2.21 3.85-4.34-2.5 1.8-3.12c.41-.83 1.26-1.41 2.25-1.41m-4.16 16.7-2.5-4.33c-.49-.85-.42-1.87.09-2.64l1-1.73-1.73-1 5.14.08 2.65 4.42-1.73-1L6.56 16H11v5H7.4a2.51 2.51 0 0 1-2.35-1.24Z" transform="matrix(1.5 0 0 1.5 72 108)" id="mdi-recycle" fill="#555"/><path d="m21.82 15.42-2.5 4.33c-.49.86-1.4 1.31-2.32 1.25h-2v2l-2.5-4.5L15 14v2h2.82l-2.22-3.85 4.33-2.5 1.8 3.12c.52.77.59 1.8.09 2.65M9.21 3.06h5c.98 0 1.83.57 2.24 1.39l1 1.74 1.73-1-2.64 4.41-5.15.09 1.73-1-1.41-2.45-2.21 3.85-4.34-2.5 1.8-3.12c.41-.83 1.26-1.41 2.25-1.41m-4.16 16.7-2.5-4.33c-.49-.85-.42-1.87.09-2.64l1-1.73-1.73-1 5.14.08 2.65 4.42-1.73-1L6.56 16H11v5H7.4a2.51 2.51 0 0 1-2.35-1.24Z" transform="matrix(1.5 0 0 1.5 108 108)" id="mdi-recycle" fill="#fff"/><path d="m7.17 7.91 1.73 1 3.18-5.49 2.25 3.89-2.6 1.5 5.46 1.46 1.47-5.46-2.6 1.5-2.25-3.9a1.988 1.988 0 0 0-2.73-.73c-.27.15-.5.37-.67.63M10 20v-2H3.66l2.24-3.9 2.6 1.5-1.46-5.46-5.47 1.46 2.6 1.5L1.92 17a2.003 2.003 0 0 0 1.62 3m15.52-8.5-1.74 1L20.5 18H16v-3l-4 4 4 4v-3h4.5c1.11 0 2-.89 2-2 0-.31-.08-.62-.22-.89Z" transform="matrix(1.5 0 0 1.5 144 108)" id="mdi-recycle-variant" fill="#555"/><path d="m7.17 7.91 1.73 1 3.18-5.49 2.25 3.89-2.6 1.5 5.46 1.46 1.47-5.46-2.6 1.5-2.25-3.9a1.988 1.988 0 0 0-2.73-.73c-.27.15-.5.37-.67.63M10 20v-2H3.66l2.24-3.9 2.6 1.5-1.46-5.46-5.47 1.46 2.6 1.5L1.92 17a2.003 2.003 0 0 0 1.62 3m15.52-8.5-1.74 1L20.5 18H16v-3l-4 4 4 4v-3h4.5c1.11 0 2-.89 2-2 0-.31-.08-.62-.22-.89Z" transform="matrix(1.5 0 0 1.5 180 108)" id="mdi-recycle-variant" fill="#fff"/><path d="M14.5 15.41c.08.09.08.28 0 .39-.73.7-2.09.76-2.5.76-.39 0-1.75-.06-2.46-.76-.1-.11-.1-.3 0-.39.11-.1.28-.1.38 0 .46.46 1.41.59 2.08.59.69 0 1.66-.13 2.1-.59.11-.1.28-.1.4 0m-3.75-2.37c0-.57-.47-1.04-1.04-1.04-.57 0-1.04.47-1.04 1.04 0 .57.47 1.05 1.04 1.04.57 0 1.04-.47 1.04-1.04M14.29 12c-.57 0-1.04.5-1.04 1.05s.47 1.04 1.04 1.04c.57 0 1.04-.48 1.04-1.04 0-.55-.47-1.05-1.04-1.05M22 12c0 5.5-4.5 10-10 10S2 17.5 2 12 6.5 2 12 2s10 4.5 10 10m-3.33 0c0-.81-.67-1.46-1.45-1.46-.4 0-.76.16-1.02.41-1-.72-2.37-1.18-3.9-1.24l.67-3.13 2.17.47c.02.55.48.99 1.04.99.57 0 1.04-.47 1.04-1.04 0-.57-.47-1.04-1.04-1.04-.41 0-.77.24-.93.59l-2.43-.52c-.07-.03-.14 0-.19.04-.06.04-.09.1-.1.17l-.74 3.48c-1.55.05-2.95.51-3.97 1.24-.26-.25-.62-.4-1.01-.4-.81 0-1.46.65-1.46 1.44 0 .61.36 1.11.86 1.34-.02.16-.03.28-.03.44 0 2.22 2.61 4.07 5.82 4.07 3.23 0 5.85-1.82 5.85-4.07 0-.14-.01-.28-.04-.44.5-.23.86-.74.86-1.34Z" transform="matrix(1.5 0 0 1.5 216 108)" id="mdi-reddit" fill="#555"/><path d="M14.5 15.41c.08.09.08.28 0 .39-.73.7-2.09.76-2.5.76-.39 0-1.75-.06-2.46-.76-.1-.11-.1-.3 0-.39.11-.1.28-.1.38 0 .46.46 1.41.59 2.08.59.69 0 1.66-.13 2.1-.59.11-.1.28-.1.4 0m-3.75-2.37c0-.57-.47-1.04-1.04-1.04-.57 0-1.04.47-1.04 1.04 0 .57.47 1.05 1.04 1.04.57 0 1.04-.47 1.04-1.04M14.29 12c-.57 0-1.04.5-1.04 1.05s.47 1.04 1.04 1.04c.57 0 1.04-.48 1.04-1.04 0-.55-.47-1.05-1.04-1.05M22 12c0 5.5-4.5 10-10 10S2 17.5 2 12 6.5 2 12 2s10 4.5 10 10m-3.33 0c0-.81-.67-1.46-1.45-1.46-.4 0-.76.16-1.02.41-1-.72-2.37-1.18-3.9-1.24l.67-3.13 2.17.47c.02.55.48.99 1.04.99.57 0 1.04-.47 1.04-1.04 0-.57-.47-1.04-1.04-1.04-.41 0-.77.24-.93.59l-2.43-.52c-.07-.03-.14 0-.19.04-.06.04-.09.1-.1.17l-.74 3.48c-1.55.05-2.95.51-3.97 1.24-.26-.25-.62-.4-1.01-.4-.81 0-1.46.65-1.46 1.44 0 .61.36 1.11.86 1.34-.02.16-.03.28-.03.44 0 2.22 2.61 4.07 5.82 4.07 3.23 0 5.85-1.82 5.85-4.07 0-.14-.01-.28-.04-.44.5-.23.86-.74.86-1.34Z" transform="matrix(1.5 0 0 1.5 252 108)" id="mdi-reddit" fill="#fff"/><path d="M15.34 13.16c1.32 0 3.22-.27 3.22-1.84.01-.12 0-.24-.03-.36l-.78-3.4c-.18-.75-.34-1.09-1.66-1.75-1.02-.52-3.24-1.38-3.9-1.38-.61 0-.79.79-1.52.79-.7 0-1.22-.59-1.88-.59-.63 0-1.04.43-1.36 1.31 0 0-.88 2.5-1 2.86-.01.07-.02.13-.02.2 0 .97 3.82 4.15 8.93 4.15m3.43-1.19c.18.86.18.95.18 1.04 0 1.5-1.66 2.31-3.83 2.31-4.92 0-9.23-2.88-9.23-4.78 0-.27.06-.53.16-.77-1.77.08-4.05.4-4.05 2.42 0 3.32 7.84 7.39 14.05 7.39 4.76 0 5.95-2.15 5.95-3.85 0-1.34-1.15-2.86-3.23-3.76" transform="matrix(1.5 0 0 1.5 288 108)" id="mdi-redhat" fill="#555"/><path d="M15.34 13.16c1.32 0 3.22-.27 3.22-1.84.01-.12 0-.24-.03-.36l-.78-3.4c-.18-.75-.34-1.09-1.66-1.75-1.02-.52-3.24-1.38-3.9-1.38-.61 0-.79.79-1.52.79-.7 0-1.22-.59-1.88-.59-.63 0-1.04.43-1.36 1.31 0 0-.88 2.5-1 2.86-.01.07-.02.13-.02.2 0 .97 3.82 4.15 8.93 4.15m3.43-1.19c.18.86.18.95.18 1.04 0 1.5-1.66 2.31-3.83 2.31-4.92 0-9.23-2.88-9.23-4.78 0-.27.06-.53.16-.77-1.77.08-4.05.4-4.05 2.42 0 3.32 7.84 7.39 14.05 7.39 4.76 0 5.95-2.15 5.95-3.85 0-1.34-1.15-2.86-3.23-3.76" transform="matrix(1.5 0 0 1.5 324 108)" id="mdi-redhat" fill="#fff"/><path d="M18.4 10.6C16.55 9 14.15 8 11.5 8c-4.65 0-8.58 3.03-9.96 7.22L3.9 16a8.002 8.002 0 0 1 7.6-5.5c1.95 0 3.73.72 5.12 1.88L13 16h9V7l-3.6 3.6Z" transform="matrix(1.5 0 0 1.5 360 108)" id="mdi-redo" fill="#555"/><path d="M18.4 10.6C16.55 9 14.15 8 11.5 8c-4.65 0-8.58 3.03-9.96 7.22L3.9 16a8.002 8.002 0 0 1 7.6-5.5c1.95 0 3.73.72 5.12 1.88L13 16h9V7l-3.6 3.6Z" transform="matrix(1.5 0 0 1.5 396 108)" id="mdi-redo" fill="#fff"/><path d="M10.5 7A6.5 6.5 0 0 0 4 13.5a6.5 6.5 0 0 0 6.5 6.5H14v-2h-3.5C8 18 6 16 6 13.5S8 9 10.5 9h5.67l-3.08 3.09 1.41 1.41L20 8l-5.5-5.5-1.42 1.41L16.17 7H10.5M18 18h-2v2h2v-2Z" transform="matrix(1.5 0 0 1.5 432 108)" id="mdi-redo-variant" fill="#555"/><path d="M10.5 7A6.5 6.5 0 0 0 4 13.5a6.5 6.5 0 0 0 6.5 6.5H14v-2h-3.5C8 18 6 16 6 13.5S8 9 10.5 9h5.67l-3.08 3.09 1.41 1.41L20 8l-5.5-5.5-1.42 1.41L16.17 7H10.5M18 18h-2v2h2v-2Z" transform="matrix(1.5 0 0 1.5 468 108)" id="mdi-redo-variant" fill="#fff"/><path d="M22 20h-8a1 1 0 0 1-1-1V4.97a1 1 0 0 1 .74-.97c.45-.12.91.08 1.13.47l8.02 14.03c.18.31.18.69 0 1-.18.31-.51.5-.89.5M2 20c-.38 0-.71-.19-.89-.5a.993.993 0 0 1 0-1L9.13 4.47c.22-.39.68-.59 1.13-.47a1 1 0 0 1 .74.97V19a1 1 0 0 1-1 1H2m7-2V8.74L3.71 18H9Z" transform="matrix(1.5 0 0 1.5 504 108)" id="mdi-reflect-horizontal" fill="#555"/><path d="M22 20h-8a1 1 0 0 1-1-1V4.97a1 1 0 0 1 .74-.97c.45-.12.91.08 1.13.47l8.02 14.03c.18.31.18.69 0 1-.18.31-.51.5-.89.5M2 20c-.38 0-.71-.19-.89-.5a.993.993 0 0 1 0-1L9.13 4.47c.22-.39.68-.59 1.13-.47a1 1 0 0 1 .74.97V19a1 1 0 0 1-1 1H2m7-2V8.74L3.71 18H9Z" transform="matrix(1.5 0 0 1.5 540 108)" id="mdi-reflect-horizontal" fill="#fff"/><path d="M18 23H6c-.39 0-.74-.21-.91-.55a.998.998 0 0 1 .1-1.05l6.01-8.02c.38-.51 1.22-.51 1.6 0l6.01 8.02c.23.3.27.71.1 1.05-.17.34-.52.55-.91.55m0-22c.39 0 .74.21.91.55.17.34.13.75-.1 1.05l-6.01 8.02c-.38.51-1.22.51-1.6 0L5.19 2.6a.998.998 0 0 1-.1-1.05C5.26 1.21 5.61 1 6 1h12M8 3l4 5.35L16 3H8Z" transform="matrix(1.5 0 0 1.5 576 108)" id="mdi-reflect-vertical" fill="#555"/><path d="M18 23H6c-.39 0-.74-.21-.91-.55a.998.998 0 0 1 .1-1.05l6.01-8.02c.38-.51 1.22-.51 1.6 0l6.01 8.02c.23.3.27.71.1 1.05-.17.34-.52.55-.91.55m0-22c.39 0 .74.21.91.55.17.34.13.75-.1 1.05l-6.01 8.02c-.38.51-1.22.51-1.6 0L5.19 2.6a.998.998 0 0 1-.1-1.05C5.26 1.21 5.61 1 6 1h12M8 3l4 5.35L16 3H8Z" transform="matrix(1.5 0 0 1.5 612 108)" id="mdi-reflect-vertical" fill="#fff"/><path d="M17.65 6.35A7.958 7.958 0 0 0 12 4a8 8 0 0 0-8 8 8 8 0 0 0 8 8c3.73 0 6.84-2.55 7.73-6h-2.08A5.99 5.99 0 0 1 12 18a6 6 0 0 1-6-6 6 6 0 0 1 6-6c1.66 0 3.14.69 4.22 1.78L13 11h7V4l-2.35 2.35Z" transform="matrix(1.5 0 0 1.5 648 108)" id="mdi-refresh" fill="#555"/><path d="M17.65 6.35A7.958 7.958 0 0 0 12 4a8 8 0 0 0-8 8 8 8 0 0 0 8 8c3.73 0 6.84-2.55 7.73-6h-2.08A5.99 5.99 0 0 1 12 18a6 6 0 0 1-6-6 6 6 0 0 1 6-6c1.66 0 3.14.69 4.22 1.78L13 11h7V4l-2.35 2.35Z" transform="matrix(1.5 0 0 1.5 684 108)" id="mdi-refresh" fill="#fff"/><path d="M12.68 6h-1.36L7 16h2l.73-2h4.54l.73 2h2L12.68 6m-2.38 6.5L12 8l1.7 4.5h-3.4m7.1 7.9L19 22h-5v-5l2 2c2.39-1.39 4-4.05 4-7 0-4.41-3.59-8-8-8s-8 3.59-8 8c0 2.95 1.61 5.53 4 6.92v2.24C4.47 19.61 2 16.1 2 12 2 6.5 6.5 2 12 2s10 4.5 10 10c0 3.53-1.83 6.62-4.6 8.4Z" transform="matrix(1.5 0 0 1.5 0 144)" id="mdi-refresh-auto" fill="#555"/><path d="M12.68 6h-1.36L7 16h2l.73-2h4.54l.73 2h2L12.68 6m-2.38 6.5L12 8l1.7 4.5h-3.4m7.1 7.9L19 22h-5v-5l2 2c2.39-1.39 4-4.05 4-7 0-4.41-3.59-8-8-8s-8 3.59-8 8c0 2.95 1.61 5.53 4 6.92v2.24C4.47 19.61 2 16.1 2 12 2 6.5 6.5 2 12 2s10 4.5 10 10c0 3.53-1.83 6.62-4.6 8.4Z" transform="matrix(1.5 0 0 1.5 36 144)" id="mdi-refresh-auto" fill="#fff"/><path d="M12 2a10 10 0 1 0 10 10A10 10 0 0 0 12 2m6 9h-5l1.81-1.81A3.94 3.94 0 0 0 12 8a4 4 0 1 0 3.86 5h2.05A6 6 0 1 1 12 6a5.91 5.91 0 0 1 4.22 1.78L18 6Z" transform="matrix(1.5 0 0 1.5 72 144)" id="mdi-refresh-circle" fill="#555"/><path d="M12 2a10 10 0 1 0 10 10A10 10 0 0 0 12 2m6 9h-5l1.81-1.81A3.94 3.94 0 0 0 12 8a4 4 0 1 0 3.86 5h2.05A6 6 0 1 1 12 6a5.91 5.91 0 0 1 4.22 1.78L18 6Z" transform="matrix(1.5 0 0 1.5 108 144)" id="mdi-refresh-circle" fill="#fff"/><path d="M16 16.92c-.33.05-.66.08-1 .08-.34 0-.67-.03-1-.08v-3.51l-2.5 2.48c-.5-.39-1-.89-1.39-1.39l2.48-2.5H9.08c-.05-.33-.08-.66-.08-1 0-.34.03-.67.08-1h3.51l-2.48-2.5c.19-.25.39-.5.65-.74.24-.26.49-.46.74-.65L14 8.59V5.08c.33-.05.66-.08 1-.08.34 0 .67.03 1 .08v3.51l2.5-2.48c.5.39 1 .89 1.39 1.39L17.41 10h3.51c.05.33.08.66.08 1 0 .34-.03.67-.08 1h-3.51l2.48 2.5c-.19.25-.39.5-.65.74-.24.26-.49.46-.74.65L16 13.41v3.51M5 19a2 2 0 0 1 2-2 2 2 0 0 1 2 2 2 2 0 0 1-2 2 2 2 0 0 1-2-2Z" transform="matrix(1.5 0 0 1.5 144 144)" id="mdi-regex" fill="#555"/><path d="M16 16.92c-.33.05-.66.08-1 .08-.34 0-.67-.03-1-.08v-3.51l-2.5 2.48c-.5-.39-1-.89-1.39-1.39l2.48-2.5H9.08c-.05-.33-.08-.66-.08-1 0-.34.03-.67.08-1h3.51l-2.48-2.5c.19-.25.39-.5.65-.74.24-.26.49-.46.74-.65L14 8.59V5.08c.33-.05.66-.08 1-.08.34 0 .67.03 1 .08v3.51l2.5-2.48c.5.39 1 .89 1.39 1.39L17.41 10h3.51c.05.33.08.66.08 1 0 .34-.03.67-.08 1h-3.51l2.48 2.5c-.19.25-.39.5-.65.74-.24.26-.49.46-.74.65L16 13.41v3.51M5 19a2 2 0 0 1 2-2 2 2 0 0 1 2 2 2 2 0 0 1-2 2 2 2 0 0 1-2-2Z" transform="matrix(1.5 0 0 1.5 180 144)" id="mdi-regex" fill="#fff"/><path d="M12 2A10 10 0 0 0 2 12a10 10 0 0 0 10 10 10 10 0 0 0 10-10A10 10 0 0 0 12 2m0 18c-4.41 0-8-3.59-8-8s3.59-8 8-8 8 3.59 8 8-3.59 8-8 8m.25-6.73h-1.44v3.23H9V7.71h3.26c1.03 0 1.83.23 2.4.69.56.47.84 1.1.84 1.96 0 .6-.13 1.1-.39 1.5-.26.4-.65.72-1.18.95l1.9 3.59v.1h-1.94l-1.64-3.23m-1.44-1.46h1.46c.45 0 .8-.12 1.05-.35.25-.23.37-.55.37-.96 0-.41-.11-.73-.35-.97-.23-.24-.59-.35-1.08-.35h-1.45v2.63Z" transform="matrix(1.5 0 0 1.5 216 144)" id="mdi-registered-trademark" fill="#555"/><path d="M12 2A10 10 0 0 0 2 12a10 10 0 0 0 10 10 10 10 0 0 0 10-10A10 10 0 0 0 12 2m0 18c-4.41 0-8-3.59-8-8s3.59-8 8-8 8 3.59 8 8-3.59 8-8 8m.25-6.73h-1.44v3.23H9V7.71h3.26c1.03 0 1.83.23 2.4.69.56.47.84 1.1.84 1.96 0 .6-.13 1.1-.39 1.5-.26.4-.65.72-1.18.95l1.9 3.59v.1h-1.94l-1.64-3.23m-1.44-1.46h1.46c.45 0 .8-.12 1.05-.35.25-.23.37-.55.37-.96 0-.41-.11-.73-.35-.97-.23-.24-.59-.35-1.08-.35h-1.45v2.63Z" transform="matrix(1.5 0 0 1.5 252 144)" id="mdi-registered-trademark" fill="#fff"/><path d="M10.5 4A6.5 6.5 0 0 0 4 10H1l4 4 4-4H6.03a4.5 4.5 0 0 1 4.47-4 4.5 4.5 0 0 1 4.5 4.5 4.5 4.5 0 0 1-4.5 4.5H2v2h8.5a6.5 6.5 0 0 0 6.5-6.5A6.5 6.5 0 0 0 10.5 4m8.5 8v3h-2.5a7.5 7.5 0 0 1-2.26 2H19v3l4-4Z" transform="matrix(1.5 0 0 1.5 288 144)" id="mdi-reiterate" fill="#555"/><path d="M10.5 4A6.5 6.5 0 0 0 4 10H1l4 4 4-4H6.03a4.5 4.5 0 0 1 4.47-4 4.5 4.5 0 0 1 4.5 4.5 4.5 4.5 0 0 1-4.5 4.5H2v2h8.5a6.5 6.5 0 0 0 6.5-6.5A6.5 6.5 0 0 0 10.5 4m8.5 8v3h-2.5a7.5 7.5 0 0 1-2.26 2H19v3l4-4Z" transform="matrix(1.5 0 0 1.5 324 144)" id="mdi-reiterate" fill="#fff"/><path d="M22 13v6h-1l-2-2h-8V9H5l-2 2H2V5h1l2 2h8v8h6l2-2Z" transform="matrix(1.5 0 0 1.5 360 144)" id="mdi-relation-many-to-many" fill="#555"/><path d="M22 13v6h-1l-2-2h-8V9H5l-2 2H2V5h1l2 2h8v8h6l2-2Z" transform="matrix(1.5 0 0 1.5 396 144)" id="mdi-relation-many-to-many" fill="#fff"/><path d="M22 15v2h-3v2h-2v-2h-6V9H5l-2 2H2V5h1l2 2h8v8h4v-2h2v2Z" transform="matrix(1.5 0 0 1.5 432 144)" id="mdi-relation-many-to-one" fill="#555"/><path d="M22 15v2h-3v2h-2v-2h-6V9H5l-2 2H2V5h1l2 2h8v8h4v-2h2v2Z" transform="matrix(1.5 0 0 1.5 468 144)" id="mdi-relation-many-to-one" fill="#fff"/><path d="M22 13v6h-1l-2-2v2h-2v-2h-6V9H5l-2 2H2V5h1l2 2h8v8h4v-2h2v2l2-2Z" transform="matrix(1.5 0 0 1.5 504 144)" id="mdi-relation-many-to-one-or-many" fill="#555"/><path d="M22 13v6h-1l-2-2v2h-2v-2h-6V9H5l-2 2H2V5h1l2 2h8v8h4v-2h2v2l2-2Z" transform="matrix(1.5 0 0 1.5 540 144)" id="mdi-relation-many-to-one-or-many" fill="#fff"/><path d="M22 15v2h-1v2h-2v-2h-1v2h-2v-2h-5V9H5l-2 2H2V5h1l2 2h8v8h3v-2h2v2h1v-2h2v2Z" transform="matrix(1.5 0 0 1.5 576 144)" id="mdi-relation-many-to-only-one" fill="#555"/><path d="M22 15v2h-1v2h-2v-2h-1v2h-2v-2h-5V9H5l-2 2H2V5h1l2 2h8v8h3v-2h2v2h1v-2h2v2Z" transform="matrix(1.5 0 0 1.5 612 144)" id="mdi-relation-many-to-only-one" fill="#fff"/><path d="m21 13-2 2h-.21a2.5 2.5 0 0 0-4.58 0H13V7H5L3 5H2v6h1l2-2h6v8h3.21a2.5 2.5 0 0 0 4.58 0H19l2 2h1v-6m-5.5 4a1 1 0 1 1 1-1 1 1 0 0 1-1 1Z" transform="matrix(1.5 0 0 1.5 648 144)" id="mdi-relation-many-to-zero-or-many" fill="#555"/><path d="m21 13-2 2h-.21a2.5 2.5 0 0 0-4.58 0H13V7H5L3 5H2v6h1l2-2h6v8h3.21a2.5 2.5 0 0 0 4.58 0H19l2 2h1v-6m-5.5 4a1 1 0 1 1 1-1 1 1 0 0 1-1 1Z" transform="matrix(1.5 0 0 1.5 684 144)" id="mdi-relation-many-to-zero-or-many" fill="#fff"/><path d="M21 15v-2h-2v2h-.21a2.5 2.5 0 0 0-4.58 0H13V7H5L3 5H2v6h1l2-2h6v8h3.21a2.5 2.5 0 0 0 4.58 0H19v2h2v-2h1v-2m-5.5 2a1 1 0 1 1 1-1 1 1 0 0 1-1 1Z" transform="matrix(1.5 0 0 1.5 0 180)" id="mdi-relation-many-to-zero-or-one" fill="#555"/><path d="M21 15v-2h-2v2h-.21a2.5 2.5 0 0 0-4.58 0H13V7H5L3 5H2v6h1l2-2h6v8h3.21a2.5 2.5 0 0 0 4.58 0H19v2h2v-2h1v-2m-5.5 2a1 1 0 1 1 1-1 1 1 0 0 1-1 1Z" transform="matrix(1.5 0 0 1.5 36 180)" id="mdi-relation-many-to-zero-or-one" fill="#fff"/><path d="M22 13v6h-1l-2-2h-8V9H7v2H5V9l-2 2H2V5h1l2 2V5h2v2h6v8h6l2-2Z" transform="matrix(1.5 0 0 1.5 72 180)" id="mdi-relation-one-or-many-to-many" fill="#555"/><path d="M22 13v6h-1l-2-2h-8V9H7v2H5V9l-2 2H2V5h1l2 2V5h2v2h6v8h6l2-2Z" transform="matrix(1.5 0 0 1.5 108 180)" id="mdi-relation-one-or-many-to-many" fill="#fff"/><path d="M22 15v2h-3v2h-2v-2h-6V9H7v2H5V9l-2 2H2V5h1l2 2V5h2v2h6v8h4v-2h2v2Z" transform="matrix(1.5 0 0 1.5 144 180)" id="mdi-relation-one-or-many-to-one" fill="#555"/><path d="M22 15v2h-3v2h-2v-2h-6V9H7v2H5V9l-2 2H2V5h1l2 2V5h2v2h6v8h4v-2h2v2Z" transform="matrix(1.5 0 0 1.5 180 180)" id="mdi-relation-one-or-many-to-one" fill="#fff"/><path d="M22 13v6h-1l-2-2v2h-2v-2h-6V9H7v2H5V9l-2 2H2V5h1l2 2V5h2v2h6v8h4v-2h2v2l2-2Z" transform="matrix(1.5 0 0 1.5 216 180)" id="mdi-relation-one-or-many-to-one-or-many" fill="#555"/><path d="M22 13v6h-1l-2-2v2h-2v-2h-6V9H7v2H5V9l-2 2H2V5h1l2 2V5h2v2h6v8h4v-2h2v2l2-2Z" transform="matrix(1.5 0 0 1.5 252 180)" id="mdi-relation-one-or-many-to-one-or-many" fill="#fff"/><path d="M22 15v2h-1v2h-2v-2h-1v2h-2v-2h-5V9H7v2H5V9l-2 2H2V5h1l2 2V5h2v2h6v8h3v-2h2v2h1v-2h2v2Z" transform="matrix(1.5 0 0 1.5 288 180)" id="mdi-relation-one-or-many-to-only-one" fill="#555"/><path d="M22 15v2h-1v2h-2v-2h-1v2h-2v-2h-5V9H7v2H5V9l-2 2H2V5h1l2 2V5h2v2h6v8h3v-2h2v2h1v-2h2v2Z" transform="matrix(1.5 0 0 1.5 324 180)" id="mdi-relation-one-or-many-to-only-one" fill="#fff"/><path d="m21 13-2 2h-.21a2.5 2.5 0 0 0-4.58 0H13V7H7V5H5v2L3 5H2v6h1l2-2v2h2V9h4v8h3.21a2.5 2.5 0 0 0 4.58 0H19l2 2h1v-6m-5.5 4a1 1 0 1 1 1-1 1 1 0 0 1-1 1Z" transform="matrix(1.5 0 0 1.5 360 180)" id="mdi-relation-one-or-many-to-zero-or-many" fill="#555"/><path d="m21 13-2 2h-.21a2.5 2.5 0 0 0-4.58 0H13V7H7V5H5v2L3 5H2v6h1l2-2v2h2V9h4v8h3.21a2.5 2.5 0 0 0 4.58 0H19l2 2h1v-6m-5.5 4a1 1 0 1 1 1-1 1 1 0 0 1-1 1Z" transform="matrix(1.5 0 0 1.5 396 180)" id="mdi-relation-one-or-many-to-zero-or-many" fill="#fff"/><path d="M21 15v-2h-2v2h-.21a2.5 2.5 0 0 0-4.58 0H13V7H7V5H5v2L3 5H2v6h1l2-2v2h2V9h4v8h3.21a2.5 2.5 0 0 0 4.58 0H19v2h2v-2h1v-2m-5.5 2a1 1 0 1 1 1-1 1 1 0 0 1-1 1Z" transform="matrix(1.5 0 0 1.5 432 180)" id="mdi-relation-one-or-many-to-zero-or-one" fill="#555"/><path d="M21 15v-2h-2v2h-.21a2.5 2.5 0 0 0-4.58 0H13V7H7V5H5v2L3 5H2v6h1l2-2v2h2V9h4v8h3.21a2.5 2.5 0 0 0 4.58 0H19v2h2v-2h1v-2m-5.5 2a1 1 0 1 1 1-1 1 1 0 0 1-1 1Z" transform="matrix(1.5 0 0 1.5 468 180)" id="mdi-relation-one-or-many-to-zero-or-one" fill="#fff"/><path d="M22 13v6h-1l-2-2h-8V9H7v2H5V9H2V7h3V5h2v2h6v8h6l2-2Z" transform="matrix(1.5 0 0 1.5 504 180)" id="mdi-relation-one-to-many" fill="#555"/><path d="M22 13v6h-1l-2-2h-8V9H7v2H5V9H2V7h3V5h2v2h6v8h6l2-2Z" transform="matrix(1.5 0 0 1.5 540 180)" id="mdi-relation-one-to-many" fill="#fff"/><path d="M22 15v2h-3v2h-2v-2h-6V9H7v2H5V9H2V7h3V5h2v2h6v8h4v-2h2v2Z" transform="matrix(1.5 0 0 1.5 576 180)" id="mdi-relation-one-to-one" fill="#555"/><path d="M22 15v2h-3v2h-2v-2h-6V9H7v2H5V9H2V7h3V5h2v2h6v8h4v-2h2v2Z" transform="matrix(1.5 0 0 1.5 612 180)" id="mdi-relation-one-to-one" fill="#fff"/><path d="M22 13v6h-1l-2-2v2h-2v-2h-6V9H7v2H5V9H2V7h3V5h2v2h6v8h4v-2h2v2l2-2Z" transform="matrix(1.5 0 0 1.5 648 180)" id="mdi-relation-one-to-one-or-many" fill="#555"/><path d="M22 13v6h-1l-2-2v2h-2v-2h-6V9H7v2H5V9H2V7h3V5h2v2h6v8h4v-2h2v2l2-2Z" transform="matrix(1.5 0 0 1.5 684 180)" id="mdi-relation-one-to-one-or-many" fill="#fff"/><path d="M22 15v2h-1v2h-2v-2h-1v2h-2v-2h-5V9H7v2H5V9H2V7h3V5h2v2h6v8h3v-2h2v2h1v-2h2v2Z" transform="matrix(1.5 0 0 1.5 0 216)" id="mdi-relation-one-to-only-one" fill="#555"/><path d="M22 15v2h-1v2h-2v-2h-1v2h-2v-2h-5V9H7v2H5V9H2V7h3V5h2v2h6v8h3v-2h2v2h1v-2h2v2Z" transform="matrix(1.5 0 0 1.5 36 216)" id="mdi-relation-one-to-only-one" fill="#fff"/><path d="m21 13-2 2h-.21a2.5 2.5 0 0 0-4.58 0H13V7H7V5H5v2H2v2h3v2h2V9h4v8h3.21a2.5 2.5 0 0 0 4.58 0H19l2 2h1v-6m-5.5 4a1 1 0 1 1 1-1 1 1 0 0 1-1 1Z" transform="matrix(1.5 0 0 1.5 72 216)" id="mdi-relation-one-to-zero-or-many" fill="#555"/><path d="m21 13-2 2h-.21a2.5 2.5 0 0 0-4.58 0H13V7H7V5H5v2H2v2h3v2h2V9h4v8h3.21a2.5 2.5 0 0 0 4.58 0H19l2 2h1v-6m-5.5 4a1 1 0 1 1 1-1 1 1 0 0 1-1 1Z" transform="matrix(1.5 0 0 1.5 108 216)" id="mdi-relation-one-to-zero-or-many" fill="#fff"/><path d="M21 15v-2h-2v2h-.21a2.5 2.5 0 0 0-4.58 0H13V7H7V5H5v2H2v2h3v2h2V9h4v8h3.21a2.5 2.5 0 0 0 4.58 0H19v2h2v-2h1v-2m-5.5 2a1 1 0 1 1 1-1 1 1 0 0 1-1 1Z" transform="matrix(1.5 0 0 1.5 144 216)" id="mdi-relation-one-to-zero-or-one" fill="#555"/><path d="M21 15v-2h-2v2h-.21a2.5 2.5 0 0 0-4.58 0H13V7H7V5H5v2H2v2h3v2h2V9h4v8h3.21a2.5 2.5 0 0 0 4.58 0H19v2h2v-2h1v-2m-5.5 2a1 1 0 1 1 1-1 1 1 0 0 1-1 1Z" transform="matrix(1.5 0 0 1.5 180 216)" id="mdi-relation-one-to-zero-or-one" fill="#fff"/><path d="M22 13v6h-1l-2-2h-8V9H8v2H6V9H5v2H3V9H2V7h1V5h2v2h1V5h2v2h5v8h6l2-2Z" transform="matrix(1.5 0 0 1.5 216 216)" id="mdi-relation-only-one-to-many" fill="#555"/><path d="M22 13v6h-1l-2-2h-8V9H8v2H6V9H5v2H3V9H2V7h1V5h2v2h1V5h2v2h5v8h6l2-2Z" transform="matrix(1.5 0 0 1.5 252 216)" id="mdi-relation-only-one-to-many" fill="#fff"/><path d="M22 15v2h-3v2h-2v-2h-6V9H8v2H6V9H5v2H3V9H2V7h1V5h2v2h1V5h2v2h5v8h4v-2h2v2Z" transform="matrix(1.5 0 0 1.5 288 216)" id="mdi-relation-only-one-to-one" fill="#555"/><path d="M22 15v2h-3v2h-2v-2h-6V9H8v2H6V9H5v2H3V9H2V7h1V5h2v2h1V5h2v2h5v8h4v-2h2v2Z" transform="matrix(1.5 0 0 1.5 324 216)" id="mdi-relation-only-one-to-one" fill="#fff"/><path d="M22 13v6h-1l-2-2v2h-2v-2h-6V9H8v2H6V9H5v2H3V9H2V7h1V5h2v2h1V5h2v2h5v8h4v-2h2v2l2-2Z" transform="matrix(1.5 0 0 1.5 360 216)" id="mdi-relation-only-one-to-one-or-many" fill="#555"/><path d="M22 13v6h-1l-2-2v2h-2v-2h-6V9H8v2H6V9H5v2H3V9H2V7h1V5h2v2h1V5h2v2h5v8h4v-2h2v2l2-2Z" transform="matrix(1.5 0 0 1.5 396 216)" id="mdi-relation-only-one-to-one-or-many" fill="#fff"/><path d="M22 15v2h-1v2h-2v-2h-1v2h-2v-2h-5V9H8v2H6V9H5v2H3V9H2V7h1V5h2v2h1V5h2v2h5v8h3v-2h2v2h1v-2h2v2Z" transform="matrix(1.5 0 0 1.5 432 216)" id="mdi-relation-only-one-to-only-one" fill="#555"/><path d="M22 15v2h-1v2h-2v-2h-1v2h-2v-2h-5V9H8v2H6V9H5v2H3V9H2V7h1V5h2v2h1V5h2v2h5v8h3v-2h2v2h1v-2h2v2Z" transform="matrix(1.5 0 0 1.5 468 216)" id="mdi-relation-only-one-to-only-one" fill="#fff"/><path d="m21 13-2 2h-.21a2.5 2.5 0 0 0-4.58 0H13V7H8V5H6v2H5V5H3v2H2v2h1v2h2V9h1v2h2V9h3v8h3.21a2.5 2.5 0 0 0 4.58 0H19l2 2h1v-6m-5.5 4a1 1 0 1 1 1-1 1 1 0 0 1-1 1Z" transform="matrix(1.5 0 0 1.5 504 216)" id="mdi-relation-only-one-to-zero-or-many" fill="#555"/><path d="m21 13-2 2h-.21a2.5 2.5 0 0 0-4.58 0H13V7H8V5H6v2H5V5H3v2H2v2h1v2h2V9h1v2h2V9h3v8h3.21a2.5 2.5 0 0 0 4.58 0H19l2 2h1v-6m-5.5 4a1 1 0 1 1 1-1 1 1 0 0 1-1 1Z" transform="matrix(1.5 0 0 1.5 540 216)" id="mdi-relation-only-one-to-zero-or-many" fill="#fff"/><path d="M21 15v-2h-2v2h-.21a2.5 2.5 0 0 0-4.58 0H13V7H8V5H6v2H5V5H3v2H2v2h1v2h2V9h1v2h2V9h3v8h3.21a2.5 2.5 0 0 0 4.58 0H19v2h2v-2h1v-2m-5.5 2a1 1 0 1 1 1-1 1 1 0 0 1-1 1Z" transform="matrix(1.5 0 0 1.5 576 216)" id="mdi-relation-only-one-to-zero-or-one" fill="#555"/><path d="M21 15v-2h-2v2h-.21a2.5 2.5 0 0 0-4.58 0H13V7H8V5H6v2H5V5H3v2H2v2h1v2h2V9h1v2h2V9h3v8h3.21a2.5 2.5 0 0 0 4.58 0H19v2h2v-2h1v-2m-5.5 2a1 1 0 1 1 1-1 1 1 0 0 1-1 1Z" transform="matrix(1.5 0 0 1.5 612 216)" id="mdi-relation-only-one-to-zero-or-one" fill="#fff"/><path d="m21 13-2 2h-6V7H9.79a2.5 2.5 0 0 0-4.58 0H5L3 5H2v6h1l2-2h.21a2.5 2.5 0 0 0 4.58 0H11v8h8l2 2h1v-6M7.5 9a1 1 0 1 1 1-1 1 1 0 0 1-1 1Z" transform="matrix(1.5 0 0 1.5 648 216)" id="mdi-relation-zero-or-many-to-many" fill="#555"/><path d="m21 13-2 2h-6V7H9.79a2.5 2.5 0 0 0-4.58 0H5L3 5H2v6h1l2-2h.21a2.5 2.5 0 0 0 4.58 0H11v8h8l2 2h1v-6M7.5 9a1 1 0 1 1 1-1 1 1 0 0 1-1 1Z" transform="matrix(1.5 0 0 1.5 684 216)" id="mdi-relation-zero-or-many-to-many" fill="#fff"/><path d="M19 15v-2h-2v2h-4V7H9.79a2.5 2.5 0 0 0-4.58 0H5L3 5H2v6h1l2-2h.21a2.5 2.5 0 0 0 4.58 0H11v8h6v2h2v-2h3v-2M7.5 9a1 1 0 1 1 1-1 1 1 0 0 1-1 1Z" transform="matrix(1.5 0 0 1.5 0 252)" id="mdi-relation-zero-or-many-to-one" fill="#555"/><path d="M19 15v-2h-2v2h-4V7H9.79a2.5 2.5 0 0 0-4.58 0H5L3 5H2v6h1l2-2h.21a2.5 2.5 0 0 0 4.58 0H11v8h6v2h2v-2h3v-2M7.5 9a1 1 0 1 1 1-1 1 1 0 0 1-1 1Z" transform="matrix(1.5 0 0 1.5 36 252)" id="mdi-relation-zero-or-many-to-one" fill="#fff"/><path d="m21 13-2 2v-2h-2v2h-4V7H9.79a2.5 2.5 0 0 0-4.58 0H5L3 5H2v6h1l2-2h.21a2.5 2.5 0 0 0 4.58 0H11v8h6v2h2v-2l2 2h1v-6M7.5 9a1 1 0 1 1 1-1 1 1 0 0 1-1 1Z" transform="matrix(1.5 0 0 1.5 72 252)" id="mdi-relation-zero-or-many-to-one-or-many" fill="#555"/><path d="m21 13-2 2v-2h-2v2h-4V7H9.79a2.5 2.5 0 0 0-4.58 0H5L3 5H2v6h1l2-2h.21a2.5 2.5 0 0 0 4.58 0H11v8h6v2h2v-2l2 2h1v-6M7.5 9a1 1 0 1 1 1-1 1 1 0 0 1-1 1Z" transform="matrix(1.5 0 0 1.5 108 252)" id="mdi-relation-zero-or-many-to-one-or-many" fill="#fff"/><path d="M21 15v-2h-2v2h-1v-2h-2v2h-3V7H9.79a2.5 2.5 0 0 0-4.58 0H5L3 5H2v6h1l2-2h.21a2.5 2.5 0 0 0 4.58 0H11v8h5v2h2v-2h1v2h2v-2h1v-2M7.5 9a1 1 0 1 1 1-1 1 1 0 0 1-1 1Z" transform="matrix(1.5 0 0 1.5 144 252)" id="mdi-relation-zero-or-many-to-only-one" fill="#555"/><path d="M21 15v-2h-2v2h-1v-2h-2v2h-3V7H9.79a2.5 2.5 0 0 0-4.58 0H5L3 5H2v6h1l2-2h.21a2.5 2.5 0 0 0 4.58 0H11v8h5v2h2v-2h1v2h2v-2h1v-2M7.5 9a1 1 0 1 1 1-1 1 1 0 0 1-1 1Z" transform="matrix(1.5 0 0 1.5 180 252)" id="mdi-relation-zero-or-many-to-only-one" fill="#fff"/><path d="m21 13-2 2h-.21a2.5 2.5 0 0 0-4.58 0H13V7H9.79a2.5 2.5 0 0 0-4.58 0H5L3 5H2v6h1l2-2h.21a2.5 2.5 0 0 0 4.58 0H11v8h3.21a2.5 2.5 0 0 0 4.58 0H19l2 2h1v-6M7.5 9a1 1 0 1 1 1-1 1 1 0 0 1-1 1m9 8a1 1 0 1 1 1-1 1 1 0 0 1-1 1Z" transform="matrix(1.5 0 0 1.5 216 252)" id="mdi-relation-zero-or-many-to-zero-or-many" fill="#555"/><path d="m21 13-2 2h-.21a2.5 2.5 0 0 0-4.58 0H13V7H9.79a2.5 2.5 0 0 0-4.58 0H5L3 5H2v6h1l2-2h.21a2.5 2.5 0 0 0 4.58 0H11v8h3.21a2.5 2.5 0 0 0 4.58 0H19l2 2h1v-6M7.5 9a1 1 0 1 1 1-1 1 1 0 0 1-1 1m9 8a1 1 0 1 1 1-1 1 1 0 0 1-1 1Z" transform="matrix(1.5 0 0 1.5 252 252)" id="mdi-relation-zero-or-many-to-zero-or-many" fill="#fff"/><path d="M21 15v-2h-2v2h-.21a2.5 2.5 0 0 0-4.58 0H13V7H9.79a2.5 2.5 0 0 0-4.58 0H5L3 5H2v6h1l2-2h.21a2.5 2.5 0 0 0 4.58 0H11v8h3.21a2.5 2.5 0 0 0 4.58 0H19v2h2v-2h1v-2M7.5 9a1 1 0 1 1 1-1 1 1 0 0 1-1 1m9 8a1 1 0 1 1 1-1 1 1 0 0 1-1 1Z" transform="matrix(1.5 0 0 1.5 288 252)" id="mdi-relation-zero-or-many-to-zero-or-one" fill="#555"/><path d="M21 15v-2h-2v2h-.21a2.5 2.5 0 0 0-4.58 0H13V7H9.79a2.5 2.5 0 0 0-4.58 0H5L3 5H2v6h1l2-2h.21a2.5 2.5 0 0 0 4.58 0H11v8h3.21a2.5 2.5 0 0 0 4.58 0H19v2h2v-2h1v-2M7.5 9a1 1 0 1 1 1-1 1 1 0 0 1-1 1m9 8a1 1 0 1 1 1-1 1 1 0 0 1-1 1Z" transform="matrix(1.5 0 0 1.5 324 252)" id="mdi-relation-zero-or-many-to-zero-or-one" fill="#fff"/><path d="m21 13-2 2h-6V7H9.79a2.5 2.5 0 0 0-4.58 0H5V5H3v2H2v2h1v2h2V9h.21a2.5 2.5 0 0 0 4.58 0H11v8h8l2 2h1v-6M7.5 9a1 1 0 1 1 1-1 1 1 0 0 1-1 1Z" transform="matrix(1.5 0 0 1.5 360 252)" id="mdi-relation-zero-or-one-to-many" fill="#555"/><path d="m21 13-2 2h-6V7H9.79a2.5 2.5 0 0 0-4.58 0H5V5H3v2H2v2h1v2h2V9h.21a2.5 2.5 0 0 0 4.58 0H11v8h8l2 2h1v-6M7.5 9a1 1 0 1 1 1-1 1 1 0 0 1-1 1Z" transform="matrix(1.5 0 0 1.5 396 252)" id="mdi-relation-zero-or-one-to-many" fill="#fff"/><path d="M19 15v-2h-2v2h-4V7H9.79a2.5 2.5 0 0 0-4.58 0H5V5H3v2H2v2h1v2h2V9h.21a2.5 2.5 0 0 0 4.58 0H11v8h6v2h2v-2h3v-2M7.5 9a1 1 0 1 1 1-1 1 1 0 0 1-1 1Z" transform="matrix(1.5 0 0 1.5 432 252)" id="mdi-relation-zero-or-one-to-one" fill="#555"/><path d="M19 15v-2h-2v2h-4V7H9.79a2.5 2.5 0 0 0-4.58 0H5V5H3v2H2v2h1v2h2V9h.21a2.5 2.5 0 0 0 4.58 0H11v8h6v2h2v-2h3v-2M7.5 9a1 1 0 1 1 1-1 1 1 0 0 1-1 1Z" transform="matrix(1.5 0 0 1.5 468 252)" id="mdi-relation-zero-or-one-to-one" fill="#fff"/><path d="m21 13-2 2v-2h-2v2h-4V7H9.79a2.5 2.5 0 0 0-4.58 0H5V5H3v2H2v2h1v2h2V9h.21a2.5 2.5 0 0 0 4.58 0H11v8h6v2h2v-2l2 2h1v-6M7.5 9a1 1 0 1 1 1-1 1 1 0 0 1-1 1Z" transform="matrix(1.5 0 0 1.5 504 252)" id="mdi-relation-zero-or-one-to-one-or-many" fill="#555"/><path d="m21 13-2 2v-2h-2v2h-4V7H9.79a2.5 2.5 0 0 0-4.58 0H5V5H3v2H2v2h1v2h2V9h.21a2.5 2.5 0 0 0 4.58 0H11v8h6v2h2v-2l2 2h1v-6M7.5 9a1 1 0 1 1 1-1 1 1 0 0 1-1 1Z" transform="matrix(1.5 0 0 1.5 540 252)" id="mdi-relation-zero-or-one-to-one-or-many" fill="#fff"/><path d="M21 15v-2h-2v2h-1v-2h-2v2h-3V7H9.79a2.5 2.5 0 0 0-4.58 0H5V5H3v2H2v2h1v2h2V9h.21a2.5 2.5 0 0 0 4.58 0H11v8h5v2h2v-2h1v2h2v-2h1v-2M7.5 9a1 1 0 1 1 1-1 1 1 0 0 1-1 1Z" transform="matrix(1.5 0 0 1.5 576 252)" id="mdi-relation-zero-or-one-to-only-one" fill="#555"/><path d="M21 15v-2h-2v2h-1v-2h-2v2h-3V7H9.79a2.5 2.5 0 0 0-4.58 0H5V5H3v2H2v2h1v2h2V9h.21a2.5 2.5 0 0 0 4.58 0H11v8h5v2h2v-2h1v2h2v-2h1v-2M7.5 9a1 1 0 1 1 1-1 1 1 0 0 1-1 1Z" transform="matrix(1.5 0 0 1.5 612 252)" id="mdi-relation-zero-or-one-to-only-one" fill="#fff"/><path d="m21 13-2 2h-.21a2.5 2.5 0 0 0-4.58 0H13V7H9.79a2.5 2.5 0 0 0-4.58 0H5V5H3v2H2v2h1v2h2V9h.21a2.5 2.5 0 0 0 4.58 0H11v8h3.21a2.5 2.5 0 0 0 4.58 0H19l2 2h1v-6M7.5 9a1 1 0 1 1 1-1 1 1 0 0 1-1 1m9 8a1 1 0 1 1 1-1 1 1 0 0 1-1 1Z" transform="matrix(1.5 0 0 1.5 648 252)" id="mdi-relation-zero-or-one-to-zero-or-many" fill="#555"/><path d="m21 13-2 2h-.21a2.5 2.5 0 0 0-4.58 0H13V7H9.79a2.5 2.5 0 0 0-4.58 0H5V5H3v2H2v2h1v2h2V9h.21a2.5 2.5 0 0 0 4.58 0H11v8h3.21a2.5 2.5 0 0 0 4.58 0H19l2 2h1v-6M7.5 9a1 1 0 1 1 1-1 1 1 0 0 1-1 1m9 8a1 1 0 1 1 1-1 1 1 0 0 1-1 1Z" transform="matrix(1.5 0 0 1.5 684 252)" id="mdi-relation-zero-or-one-to-zero-or-many" fill="#fff"/><path d="M21 15v-2h-2v2h-.21a2.5 2.5 0 0 0-4.58 0H13V7H9.79a2.5 2.5 0 0 0-4.58 0H5V5H3v2H2v2h1v2h2V9h.21a2.5 2.5 0 0 0 4.58 0H11v8h3.21a2.5 2.5 0 0 0 4.58 0H19v2h2v-2h1v-2M7.5 9a1 1 0 1 1 1-1 1 1 0 0 1-1 1m9 8a1 1 0 1 1 1-1 1 1 0 0 1-1 1Z" transform="matrix(1.5 0 0 1.5 0 288)" id="mdi-relation-zero-or-one-to-zero-or-one" fill="#555"/><path d="M21 15v-2h-2v2h-.21a2.5 2.5 0 0 0-4.58 0H13V7H9.79a2.5 2.5 0 0 0-4.58 0H5V5H3v2H2v2h1v2h2V9h.21a2.5 2.5 0 0 0 4.58 0H11v8h3.21a2.5 2.5 0 0 0 4.58 0H19v2h2v-2h1v-2M7.5 9a1 1 0 1 1 1-1 1 1 0 0 1-1 1m9 8a1 1 0 1 1 1-1 1 1 0 0 1-1 1Z" transform="matrix(1.5 0 0 1.5 36 288)" id="mdi-relation-zero-or-one-to-zero-or-one" fill="#fff"/><path d="M20 18H4V6h16m0-2H4c-1.11 0-2 .89-2 2v12a2 2 0 0 0 2 2h16a2 2 0 0 0 2-2V6a2 2 0 0 0-2-2m-8 6h-2v2h2m-4-2H6v2h2m8 2h-2v2h2m0-6h-2v2h2v-2Z" transform="matrix(1.5 0 0 1.5 72 288)" id="mdi-relative-scale" fill="#555"/><path d="M20 18H4V6h16m0-2H4c-1.11 0-2 .89-2 2v12a2 2 0 0 0 2 2h16a2 2 0 0 0 2-2V6a2 2 0 0 0-2-2m-8 6h-2v2h2m-4-2H6v2h2m8 2h-2v2h2m0-6h-2v2h2v-2Z" transform="matrix(1.5 0 0 1.5 108 288)" id="mdi-relative-scale" fill="#fff"/><path d="M2 12a9 9 0 0 0 9 9c2.39 0 4.68-.94 6.4-2.6l-1.5-1.5A6.706 6.706 0 0 1 11 19c-6.24 0-9.36-7.54-4.95-11.95C10.46 2.64 18 5.77 18 12h-3l4 4h.1l3.9-4h-3a9 9 0 0 0-18 0Z" transform="matrix(1.5 0 0 1.5 144 288)" id="mdi-reload" fill="#555"/><path d="M2 12a9 9 0 0 0 9 9c2.39 0 4.68-.94 6.4-2.6l-1.5-1.5A6.706 6.706 0 0 1 11 19c-6.24 0-9.36-7.54-4.95-11.95C10.46 2.64 18 5.77 18 12h-3l4 4h.1l3.9-4h-3a9 9 0 0 0-18 0Z" transform="matrix(1.5 0 0 1.5 180 288)" id="mdi-reload" fill="#fff"/><path d="M2 12c0 5 4 9 9 9 2.4 0 4.7-.9 6.4-2.6l-1.5-1.5c-1.3 1.4-3 2.1-4.9 2.1-6.2 0-9.4-7.5-4.9-11.9S18 5.8 18 12h-3l4 4h.1l3.9-4h-3c0-5-4-9-9-9s-9 4-9 9m8 3h2v2h-2v-2m0-8h2v6h-2V7" transform="matrix(1.5 0 0 1.5 216 288)" id="mdi-reload-alert" fill="#555"/><path d="M2 12c0 5 4 9 9 9 2.4 0 4.7-.9 6.4-2.6l-1.5-1.5c-1.3 1.4-3 2.1-4.9 2.1-6.2 0-9.4-7.5-4.9-11.9S18 5.8 18 12h-3l4 4h.1l3.9-4h-3c0-5-4-9-9-9s-9 4-9 9m8 3h2v2h-2v-2m0-8h2v6h-2V7" transform="matrix(1.5 0 0 1.5 252 288)" id="mdi-reload-alert" fill="#fff"/><path d="M7.25 3c.65 0 1.25.21 1.75.56V3a2 2 0 0 1 2-2 2 2 0 0 1 2 2v.57c.5-.35 1.1-.57 1.75-.57a3 3 0 0 1 3 3c0 1.58-1.21 2.87-2.75 3h-2v1h1.24l.48.13 4.59 2.29c.82.31 1.22.92 1.22 1.83l-.03.14v.14l-1 6.75c-.06.47-.28.88-.66 1.22-.37.34-.79.5-1.26.5H10c-.55 0-1-.19-1.42-.59L2 15.84l1.05-1.07c.28-.27.64-.43 1.08-.43h.32l4.55.99V9H7a3.021 3.021 0 0 1-2.75-3 3 3 0 0 1 3-3M9 6a1.75 1.75 0 0 0-1.75-1.75A1.75 1.75 0 0 0 5.5 6c0 .88.65 1.61 1.5 1.73v.02h2V6m6 1.75v-.01c.85-.12 1.5-.85 1.5-1.74 0-.96-.78-1.74-1.75-1.74S13 5.04 13 6v1.75h2Z" transform="matrix(1.5 0 0 1.5 288 288)" id="mdi-reminder" fill="#555"/><path d="M7.25 3c.65 0 1.25.21 1.75.56V3a2 2 0 0 1 2-2 2 2 0 0 1 2 2v.57c.5-.35 1.1-.57 1.75-.57a3 3 0 0 1 3 3c0 1.58-1.21 2.87-2.75 3h-2v1h1.24l.48.13 4.59 2.29c.82.31 1.22.92 1.22 1.83l-.03.14v.14l-1 6.75c-.06.47-.28.88-.66 1.22-.37.34-.79.5-1.26.5H10c-.55 0-1-.19-1.42-.59L2 15.84l1.05-1.07c.28-.27.64-.43 1.08-.43h.32l4.55.99V9H7a3.021 3.021 0 0 1-2.75-3 3 3 0 0 1 3-3M9 6a1.75 1.75 0 0 0-1.75-1.75A1.75 1.75 0 0 0 5.5 6c0 .88.65 1.61 1.5 1.73v.02h2V6m6 1.75v-.01c.85-.12 1.5-.85 1.5-1.74 0-.96-.78-1.74-1.75-1.74S13 5.04 13 6v1.75h2Z" transform="matrix(1.5 0 0 1.5 324 288)" id="mdi-reminder" fill="#fff"/><path d="M12 0C8.96 0 6.21 1.23 4.22 3.22l1.41 1.41A8.952 8.952 0 0 1 12 2c2.5 0 4.74 1 6.36 2.64l1.41-1.41C17.79 1.23 15.04 0 12 0M7.05 6.05l1.41 1.41a5.022 5.022 0 0 1 7.08 0l1.41-1.41A6.976 6.976 0 0 0 12 4c-1.93 0-3.68.78-4.95 2.05M12 15a2 2 0 0 1-2-2 2 2 0 0 1 2-2 2 2 0 0 1 2 2 2 2 0 0 1-2 2m3-6H9a1 1 0 0 0-1 1v12a1 1 0 0 0 1 1h6a1 1 0 0 0 1-1V10a1 1 0 0 0-1-1Z" transform="matrix(1.5 0 0 1.5 360 288)" id="mdi-remote" fill="#555"/><path d="M12 0C8.96 0 6.21 1.23 4.22 3.22l1.41 1.41A8.952 8.952 0 0 1 12 2c2.5 0 4.74 1 6.36 2.64l1.41-1.41C17.79 1.23 15.04 0 12 0M7.05 6.05l1.41 1.41a5.022 5.022 0 0 1 7.08 0l1.41-1.41A6.976 6.976 0 0 0 12 4c-1.93 0-3.68.78-4.95 2.05M12 15a2 2 0 0 1-2-2 2 2 0 0 1 2-2 2 2 0 0 1 2 2 2 2 0 0 1-2 2m3-6H9a1 1 0 0 0-1 1v12a1 1 0 0 0 1 1h6a1 1 0 0 0 1-1V10a1 1 0 0 0-1-1Z" transform="matrix(1.5 0 0 1.5 396 288)" id="mdi-remote" fill="#fff"/><path d="M3 2a2 2 0 0 0-2 2v12a2 2 0 0 0 2 2h7v2H8v2h8v-2h-2v-2h7a2 2 0 0 0 2-2V4a2 2 0 0 0-2-2M3 4h18v12H3M15 5l-3.5 3.5L15 12l1.4-1.4-2.1-2.1 2.1-2.1M9 8 7.6 9.4l2.1 2.1-2.1 2.1L9 15l3.5-3.5" transform="matrix(1.5 0 0 1.5 432 288)" id="mdi-remote-desktop" fill="#555"/><path d="M3 2a2 2 0 0 0-2 2v12a2 2 0 0 0 2 2h7v2H8v2h8v-2h-2v-2h7a2 2 0 0 0 2-2V4a2 2 0 0 0-2-2M3 4h18v12H3M15 5l-3.5 3.5L15 12l1.4-1.4-2.1-2.1 2.1-2.1M9 8 7.6 9.4l2.1 2.1-2.1 2.1L9 15l3.5-3.5" transform="matrix(1.5 0 0 1.5 468 288)" id="mdi-remote-desktop" fill="#fff"/><path d="M2 5.27 3.28 4 21 21.72 19.73 23 16 19.27V22a1 1 0 0 1-1 1H9c-.54 0-1-.45-1-1V11.27l-6-6M12 0c3.05 0 5.8 1.23 7.77 3.23l-1.41 1.41C16.75 3 14.5 2 12 2c-2.28 0-4.36.85-5.94 2.24L4.64 2.82C6.59 1.07 9.17 0 12 0m0 4c1.94 0 3.69.78 4.95 2.05l-1.4 1.41C14.64 6.56 13.39 6 12 6c-1.17 0-2.24.4-3.1 1.08L7.5 5.66A6.85 6.85 0 0 1 12 4m3 5c.56 0 1 .45 1 1v4.18l-2.5-2.49-.19-.19L10.82 9H15m-4.97 4.3c.13.86.81 1.55 1.68 1.7l-1.68-1.7Z" transform="matrix(1.5 0 0 1.5 504 288)" id="mdi-remote-off" fill="#555"/><path d="M2 5.27 3.28 4 21 21.72 19.73 23 16 19.27V22a1 1 0 0 1-1 1H9c-.54 0-1-.45-1-1V11.27l-6-6M12 0c3.05 0 5.8 1.23 7.77 3.23l-1.41 1.41C16.75 3 14.5 2 12 2c-2.28 0-4.36.85-5.94 2.24L4.64 2.82C6.59 1.07 9.17 0 12 0m0 4c1.94 0 3.69.78 4.95 2.05l-1.4 1.41C14.64 6.56 13.39 6 12 6c-1.17 0-2.24.4-3.1 1.08L7.5 5.66A6.85 6.85 0 0 1 12 4m3 5c.56 0 1 .45 1 1v4.18l-2.5-2.49-.19-.19L10.82 9H15m-4.97 4.3c.13.86.81 1.55 1.68 1.7l-1.68-1.7Z" transform="matrix(1.5 0 0 1.5 540 288)" id="mdi-remote-off" fill="#fff"/><path d="M9 2c-1.11 0-2 .89-2 2v16c0 1.11.89 2 2 2h6c1.11 0 2-.89 2-2V4c0-1.11-.89-2-2-2h-2v2h-2V2H9m2 4h2v2h2v2h-2v2h-2v-2H9V8h2V6m-2 8h2v2H9v-2m4 0h2v2h-2v-2m-4 4h2v2H9v-2m4 0h2v2h-2v-2Z" transform="matrix(1.5 0 0 1.5 576 288)" id="mdi-remote-tv" fill="#555"/><path d="M9 2c-1.11 0-2 .89-2 2v16c0 1.11.89 2 2 2h6c1.11 0 2-.89 2-2V4c0-1.11-.89-2-2-2h-2v2h-2V2H9m2 4h2v2h2v2h-2v2h-2v-2H9V8h2V6m-2 8h2v2H9v-2m4 0h2v2h-2v-2m-4 4h2v2H9v-2m4 0h2v2h-2v-2Z" transform="matrix(1.5 0 0 1.5 612 288)" id="mdi-remote-tv" fill="#fff"/><path d="M2 5.27 3.28 4 20 20.72 18.73 22 17 20.25c-.14.99-1 1.75-2 1.75H9a2 2 0 0 1-2-2v-9.73l-5-5M9 2h2v2h2V2h2a2 2 0 0 1 2 2v11.18l-4-4V10h2V8h-2V6h-2v2H9.82L7 5.18V4a2 2 0 0 1 2-2m0 18h2v-2H9v2m4 0h2v-1.73l-.27-.27H13v2m-4-6v2h2v-1.73l-.27-.27H9Z" transform="matrix(1.5 0 0 1.5 648 288)" id="mdi-remote-tv-off" fill="#555"/><path d="M2 5.27 3.28 4 20 20.72 18.73 22 17 20.25c-.14.99-1 1.75-2 1.75H9a2 2 0 0 1-2-2v-9.73l-5-5M9 2h2v2h2V2h2a2 2 0 0 1 2 2v11.18l-4-4V10h2V8h-2V6h-2v2H9.82L7 5.18V4a2 2 0 0 1 2-2m0 18h2v-2H9v2m4 0h2v-1.73l-.27-.27H13v2m-4-6v2h2v-1.73l-.27-.27H9Z" transform="matrix(1.5 0 0 1.5 684 288)" id="mdi-remote-tv-off" fill="#fff"/><path d="M18 17h-7.5l2-2H18M6 17v-2.5l7.88-7.85c.19-.2.51-.2.71 0l1.76 1.76c.2.2.2.51 0 .71L8.47 17M19 3H5c-1.11 0-2 .89-2 2v14a2 2 0 0 0 2 2h14a2 2 0 0 0 2-2V5a2 2 0 0 0-2-2Z" transform="matrix(1.5 0 0 1.5 0 324)" id="mdi-rename-box" fill="#555"/><path d="M18 17h-7.5l2-2H18M6 17v-2.5l7.88-7.85c.19-.2.51-.2.71 0l1.76 1.76c.2.2.2.51 0 .71L8.47 17M19 3H5c-1.11 0-2 .89-2 2v14a2 2 0 0 0 2 2h14a2 2 0 0 0 2-2V5a2 2 0 0 0-2-2Z" transform="matrix(1.5 0 0 1.5 36 324)" id="mdi-rename-box" fill="#fff"/><path d="M3 15h18v-2H3v2m0 4h18v-2H3v2m0-8h18V9H3v2m0-6v2h18V5H3Z" transform="matrix(1.5 0 0 1.5 72 324)" id="mdi-reorder-horizontal" fill="#555"/><path d="M3 15h18v-2H3v2m0 4h18v-2H3v2m0-8h18V9H3v2m0-6v2h18V5H3Z" transform="matrix(1.5 0 0 1.5 108 324)" id="mdi-reorder-horizontal" fill="#fff"/><path d="M9 3v18h2V3H9M5 3v18h2V3H5m8 0v18h2V3h-2m6 0h-2v18h2V3Z" transform="matrix(1.5 0 0 1.5 144 324)" id="mdi-reorder-vertical" fill="#555"/><path d="M9 3v18h2V3H9M5 3v18h2V3H5m8 0v18h2V3h-2m6 0h-2v18h2V3Z" transform="matrix(1.5 0 0 1.5 180 324)" id="mdi-reorder-vertical" fill="#fff"/><path d="M17 17H7v-3l-4 4 4 4v-3h12v-6h-2M7 7h10v3l4-4-4-4v3H5v6h2V7Z" transform="matrix(1.5 0 0 1.5 216 324)" id="mdi-repeat" fill="#555"/><path d="M17 17H7v-3l-4 4 4 4v-3h12v-6h-2M7 7h10v3l4-4-4-4v3H5v6h2V7Z" transform="matrix(1.5 0 0 1.5 252 324)" id="mdi-repeat" fill="#fff"/><path d="M2 5.27 3.28 4 20 20.72 18.73 22l-3-3H7v3l-4-4 4-4v3h6.73L7 10.27V11H5V8.27l-3-3M17 13h2v4.18l-2-2V13m0-8V2l4 4-4 4V7H8.82l-2-2H17Z" transform="matrix(1.5 0 0 1.5 288 324)" id="mdi-repeat-off" fill="#555"/><path d="M2 5.27 3.28 4 20 20.72 18.73 22l-3-3H7v3l-4-4 4-4v3h6.73L7 10.27V11H5V8.27l-3-3M17 13h2v4.18l-2-2V13m0-8V2l4 4-4 4V7H8.82l-2-2H17Z" transform="matrix(1.5 0 0 1.5 324 324)" id="mdi-repeat-off" fill="#fff"/><path d="M13 15V9h-1l-2 1v1h1.5v4m5.5 2H7v-3l-4 4 4 4v-3h12v-6h-2M7 7h10v3l4-4-4-4v3H5v6h2V7Z" transform="matrix(1.5 0 0 1.5 360 324)" id="mdi-repeat-once" fill="#555"/><path d="M13 15V9h-1l-2 1v1h1.5v4m5.5 2H7v-3l-4 4 4 4v-3h12v-6h-2M7 7h10v3l4-4-4-4v3H5v6h2V7Z" transform="matrix(1.5 0 0 1.5 396 324)" id="mdi-repeat-once" fill="#fff"/><path d="M6 5.75 10.25 10H7v6h6.5l2 2H7a2 2 0 0 1-2-2v-6H1.75L6 5.75m12 12.5L13.75 14H17V8h-6.5l-2-2H17a2 2 0 0 1 2 2v6h3.25L18 18.25Z" transform="matrix(1.5 0 0 1.5 432 324)" id="mdi-repeat-variant" fill="#555"/><path d="M6 5.75 10.25 10H7v6h6.5l2 2H7a2 2 0 0 1-2-2v-6H1.75L6 5.75m12 12.5L13.75 14H17V8h-6.5l-2-2H17a2 2 0 0 1 2 2v6h3.25L18 18.25Z" transform="matrix(1.5 0 0 1.5 468 324)" id="mdi-repeat-variant" fill="#fff"/><path d="M12 5V1L7 6l5 5V7a6 6 0 0 1 6 6 6 6 0 0 1-6 6 6 6 0 0 1-6-6H4a8 8 0 0 0 8 8 8 8 0 0 0 8-8 8 8 0 0 0-8-8Z" transform="matrix(1.5 0 0 1.5 504 324)" id="mdi-replay" fill="#555"/><path d="M12 5V1L7 6l5 5V7a6 6 0 0 1 6 6 6 6 0 0 1-6 6 6 6 0 0 1-6-6H4a8 8 0 0 0 8 8 8 8 0 0 0 8-8 8 8 0 0 0-8-8Z" transform="matrix(1.5 0 0 1.5 540 324)" id="mdi-replay" fill="#fff"/><path d="M10 9V5l-7 7 7 7v-4.1c5 0 8.5 1.6 11 5.1-1-5-4-10-11-11Z" transform="matrix(1.5 0 0 1.5 576 324)" id="mdi-reply" fill="#555"/><path d="M10 9V5l-7 7 7 7v-4.1c5 0 8.5 1.6 11 5.1-1-5-4-10-11-11Z" transform="matrix(1.5 0 0 1.5 612 324)" id="mdi-reply" fill="#fff"/><path d="M13 9V5l-7 7 7 7v-4.1c5 0 8.5 1.6 11 5.1-1-5-4-10-11-11M7 8V5l-7 7 7 7v-3l-4-4 4-4Z" transform="matrix(1.5 0 0 1.5 648 324)" id="mdi-reply-all" fill="#555"/><path d="M13 9V5l-7 7 7 7v-4.1c5 0 8.5 1.6 11 5.1-1-5-4-10-11-11M7 8V5l-7 7 7 7v-3l-4-4 4-4Z" transform="matrix(1.5 0 0 1.5 684 324)" id="mdi-reply-all" fill="#fff"/></svg>