<?xml version="1.0" encoding="UTF-8"?>
<!DOCTYPE svg PUBLIC "-//W3C//DTD SVG 1.1//EN" "http://www.w3.org/Graphics/SVG/1.1/DTD/svg11.dtd"><svg
  xmlns="http://www.w3.org/2000/svg" xmlns:xlink="http://www.w3.org/1999/xlink" version="1.1"
  width="720" height="900" viewBox="0 0 720 900">
    <g id="mdi-phone-ring-outline" transform="translate(0 0) scale(1.5)" fill="#555">
      <path d="M23.71 16.67C20.66 13.78 16.54 12 12 12S3.34 13.78.29 16.67c-.18.18-.29.43-.29.71 0 .28.11.53.29.71l2.48 2.48c.18.18.43.29.71.29.27 0 .52-.11.7-.28.79-.74 1.69-1.36 2.66-1.85.33-.16.56-.5.56-.9v-3.1c1.45-.48 3-.73 4.6-.73s3.15.25 4.6.72v3.1c0 .39.23.74.56.9.98.49 1.87 1.12 2.66 1.85.18.18.43.28.7.28.28 0 .53-.11.71-.29l2.48-2.48c.18-.18.29-.43.29-.71a.99.99 0 0 0-.29-.7zm-18.31.56c-.66.37-1.29.8-1.87 1.27l-1.07-1.07c.91-.75 1.9-1.39 2.95-1.9v1.7H5.4zm15.07 1.26c-.59-.48-1.21-.9-1.87-1.27v-1.7c1.04.51 2.03 1.15 2.94 1.9l-1.07 1.07zm.69-12.23l-1.41-1.41-3.56 3.55 1.41 1.41s3.45-3.52 3.56-3.55zM11 2h2v5h-2V2zM6.4 9.81L7.81 8.4 4.26 4.84 2.84 6.26c.11.03 3.56 3.55 3.56 3.55z" />
    </g>
    <g id="mdi-phone-ring-outline" transform="translate(36 0) scale(1.5)" fill="#fff">
      <path d="M23.71 16.67C20.66 13.78 16.54 12 12 12S3.34 13.78.29 16.67c-.18.18-.29.43-.29.71 0 .28.11.53.29.71l2.48 2.48c.18.18.43.29.71.29.27 0 .52-.11.7-.28.79-.74 1.69-1.36 2.66-1.85.33-.16.56-.5.56-.9v-3.1c1.45-.48 3-.73 4.6-.73s3.15.25 4.6.72v3.1c0 .39.23.74.56.9.98.49 1.87 1.12 2.66 1.85.18.18.43.28.7.28.28 0 .53-.11.71-.29l2.48-2.48c.18-.18.29-.43.29-.71a.99.99 0 0 0-.29-.7zm-18.31.56c-.66.37-1.29.8-1.87 1.27l-1.07-1.07c.91-.75 1.9-1.39 2.95-1.9v1.7H5.4zm15.07 1.26c-.59-.48-1.21-.9-1.87-1.27v-1.7c1.04.51 2.03 1.15 2.94 1.9l-1.07 1.07zm.69-12.23l-1.41-1.41-3.56 3.55 1.41 1.41s3.45-3.52 3.56-3.55zM11 2h2v5h-2V2zM6.4 9.81L7.81 8.4 4.26 4.84 2.84 6.26c.11.03 3.56 3.55 3.56 3.55z" />
    </g>
    <g id="mdi-phone-rotate-landscape" transform="translate(72 0) scale(1.5)" fill="#555">
      <path d="M9,1H3A2,2 0 0,0 1,3V16A2,2 0 0,0 3,18H9A2,2 0 0,0 11,16V3A2,2 0 0,0 9,1M9,15H3V3H9V15M21,13H13V15H21V21H9V20H6V21A2,2 0 0,0 8,23H21A2,2 0 0,0 23,21V15A2,2 0 0,0 21,13M23,10L19,8L20.91,7.09C19.74,4.31 17,2.5 14,2.5V1A9,9 0 0,1 23,10Z" />
    </g>
    <g id="mdi-phone-rotate-landscape" transform="translate(108 0) scale(1.5)" fill="#fff">
      <path d="M9,1H3A2,2 0 0,0 1,3V16A2,2 0 0,0 3,18H9A2,2 0 0,0 11,16V3A2,2 0 0,0 9,1M9,15H3V3H9V15M21,13H13V15H21V21H9V20H6V21A2,2 0 0,0 8,23H21A2,2 0 0,0 23,21V15A2,2 0 0,0 21,13M23,10L19,8L20.91,7.09C19.74,4.31 17,2.5 14,2.5V1A9,9 0 0,1 23,10Z" />
    </g>
    <g id="mdi-phone-rotate-portrait" transform="translate(144 0) scale(1.5)" fill="#555">
      <path d="M9,1H3A2,2 0 0,0 1,3V16A2,2 0 0,0 3,18H4V15H3V3H9V11H11V3A2,2 0 0,0 9,1M23,21V15A2,2 0 0,0 21,13H8A2,2 0 0,0 6,15V21A2,2 0 0,0 8,23H21A2,2 0 0,0 23,21M9,21V15H21V21H9M23,10H21.5C21.5,7 19.69,4.27 16.92,3.09L16,5L14,1A9,9 0 0,1 23,10Z" />
    </g>
    <g id="mdi-phone-rotate-portrait" transform="translate(180 0) scale(1.5)" fill="#fff">
      <path d="M9,1H3A2,2 0 0,0 1,3V16A2,2 0 0,0 3,18H4V15H3V3H9V11H11V3A2,2 0 0,0 9,1M23,21V15A2,2 0 0,0 21,13H8A2,2 0 0,0 6,15V21A2,2 0 0,0 8,23H21A2,2 0 0,0 23,21M9,21V15H21V21H9M23,10H21.5C21.5,7 19.69,4.27 16.92,3.09L16,5L14,1A9,9 0 0,1 23,10Z" />
    </g>
    <g id="mdi-phone-settings" transform="translate(216 0) scale(1.5)" fill="#555">
      <path d="M19,11H21V9H19M20,15.5C18.75,15.5 17.55,15.3 16.43,14.93C16.08,14.82 15.69,14.9 15.41,15.18L13.21,17.38C10.38,15.94 8.06,13.62 6.62,10.79L8.82,8.59C9.1,8.31 9.18,7.92 9.07,7.57C8.7,6.45 8.5,5.25 8.5,4A1,1 0 0,0 7.5,3H4A1,1 0 0,0 3,4A17,17 0 0,0 20,21A1,1 0 0,0 21,20V16.5A1,1 0 0,0 20,15.5M17,9H15V11H17M13,9H11V11H13V9Z" />
    </g>
    <g id="mdi-phone-settings" transform="translate(252 0) scale(1.5)" fill="#fff">
      <path d="M19,11H21V9H19M20,15.5C18.75,15.5 17.55,15.3 16.43,14.93C16.08,14.82 15.69,14.9 15.41,15.18L13.21,17.38C10.38,15.94 8.06,13.62 6.62,10.79L8.82,8.59C9.1,8.31 9.18,7.92 9.07,7.57C8.7,6.45 8.5,5.25 8.5,4A1,1 0 0,0 7.5,3H4A1,1 0 0,0 3,4A17,17 0 0,0 20,21A1,1 0 0,0 21,20V16.5A1,1 0 0,0 20,15.5M17,9H15V11H17M13,9H11V11H13V9Z" />
    </g>
    <g id="mdi-phone-settings-outline" transform="translate(288 0) scale(1.5)" fill="#555">
      <path d="M20 15.5C18.8 15.5 17.5 15.3 16.4 14.9H16.1C15.8 14.9 15.6 15 15.4 15.2L13.2 17.4C10.4 15.9 8 13.6 6.6 10.8L8.8 8.6C9.1 8.3 9.2 7.9 9 7.6C8.7 6.5 8.5 5.2 8.5 4C8.5 3.5 8 3 7.5 3H4C3.5 3 3 3.5 3 4C3 13.4 10.6 21 20 21C20.5 21 21 20.5 21 20V16.5C21 16 20.5 15.5 20 15.5M5 5H6.5C6.6 5.9 6.8 6.8 7 7.6L5.8 8.8C5.4 7.6 5.1 6.3 5 5M19 19C17.7 18.9 16.4 18.6 15.2 18.2L16.4 17C17.2 17.2 18.1 17.4 19 17.4V19M17 9H15V11H17M13 9H11V11H13V9M19 11H21V9H19Z" />
    </g>
    <g id="mdi-phone-settings-outline" transform="translate(324 0) scale(1.5)" fill="#fff">
      <path d="M20 15.5C18.8 15.5 17.5 15.3 16.4 14.9H16.1C15.8 14.9 15.6 15 15.4 15.2L13.2 17.4C10.4 15.9 8 13.6 6.6 10.8L8.8 8.6C9.1 8.3 9.2 7.9 9 7.6C8.7 6.5 8.5 5.2 8.5 4C8.5 3.5 8 3 7.5 3H4C3.5 3 3 3.5 3 4C3 13.4 10.6 21 20 21C20.5 21 21 20.5 21 20V16.5C21 16 20.5 15.5 20 15.5M5 5H6.5C6.6 5.9 6.8 6.8 7 7.6L5.8 8.8C5.4 7.6 5.1 6.3 5 5M19 19C17.7 18.9 16.4 18.6 15.2 18.2L16.4 17C17.2 17.2 18.1 17.4 19 17.4V19M17 9H15V11H17M13 9H11V11H13V9M19 11H21V9H19Z" />
    </g>
    <g id="mdi-phone-voip" transform="translate(360 0) scale(1.5)" fill="#555">
      <path d="M13,17V19H14A1,1 0 0,1 15,20H22V22H15A1,1 0 0,1 14,23H10A1,1 0 0,1 9,22H2V20H9A1,1 0 0,1 10,19H11V17H13M23.7,7.67C23.88,7.85 24,8.09 24,8.37C24,8.65 23.89,8.9 23.71,9.08L21.23,11.56C21.05,11.74 20.8,11.85 20.5,11.85C20.25,11.85 20,11.75 19.82,11.57C19,10.84 18.13,10.21 17.15,9.72C16.82,9.56 16.59,9.21 16.59,8.82V5.72C15.14,5.25 13.59,5 12,5C10.4,5 8.85,5.25 7.4,5.73V8.83C7.4,9.23 7.17,9.57 6.84,9.73C5.87,10.22 4.97,10.84 4.18,11.58C4,11.75 3.75,11.86 3.5,11.86C3.2,11.86 2.95,11.75 2.77,11.57L0.29,9.09C0.11,8.91 0,8.66 0,8.38C0,8.1 0.11,7.85 0.29,7.67C3.34,4.78 7.46,3 12,3C16.53,3 20.65,4.78 23.7,7.67M11,10V15H10V10H11M12,10H15V13H13V15H12V10M14,12V11H13V12H14Z" />
    </g>
    <g id="mdi-phone-voip" transform="translate(396 0) scale(1.5)" fill="#fff">
      <path d="M13,17V19H14A1,1 0 0,1 15,20H22V22H15A1,1 0 0,1 14,23H10A1,1 0 0,1 9,22H2V20H9A1,1 0 0,1 10,19H11V17H13M23.7,7.67C23.88,7.85 24,8.09 24,8.37C24,8.65 23.89,8.9 23.71,9.08L21.23,11.56C21.05,11.74 20.8,11.85 20.5,11.85C20.25,11.85 20,11.75 19.82,11.57C19,10.84 18.13,10.21 17.15,9.72C16.82,9.56 16.59,9.21 16.59,8.82V5.72C15.14,5.25 13.59,5 12,5C10.4,5 8.85,5.25 7.4,5.73V8.83C7.4,9.23 7.17,9.57 6.84,9.73C5.87,10.22 4.97,10.84 4.18,11.58C4,11.75 3.75,11.86 3.5,11.86C3.2,11.86 2.95,11.75 2.77,11.57L0.29,9.09C0.11,8.91 0,8.66 0,8.38C0,8.1 0.11,7.85 0.29,7.67C3.34,4.78 7.46,3 12,3C16.53,3 20.65,4.78 23.7,7.67M11,10V15H10V10H11M12,10H15V13H13V15H12V10M14,12V11H13V12H14Z" />
    </g>
    <g id="mdi-pi" transform="translate(432 0) scale(1.5)" fill="#555">
      <path d="M4,5V7H6V19H8V7H14V16A3,3 0 0,0 17,19A3,3 0 0,0 20,16H18A1,1 0 0,1 17,17A1,1 0 0,1 16,16V7H18V5" />
    </g>
    <g id="mdi-pi" transform="translate(468 0) scale(1.5)" fill="#fff">
      <path d="M4,5V7H6V19H8V7H14V16A3,3 0 0,0 17,19A3,3 0 0,0 20,16H18A1,1 0 0,1 17,17A1,1 0 0,1 16,16V7H18V5" />
    </g>
    <g id="mdi-pi-box" transform="translate(504 0) scale(1.5)" fill="#555">
      <path d="M5,3C3.89,3 3,3.9 3,5V19A2,2 0 0,0 5,21H19A2,2 0 0,0 21,19V5A2,2 0 0,0 19,3M6,7H17V9H15V14A1,1 0 0,0 16,15A1,1 0 0,0 17,14H19A3,3 0 0,1 16,17A3,3 0 0,1 13,14V9H10V17H8V9H6" />
    </g>
    <g id="mdi-pi-box" transform="translate(540 0) scale(1.5)" fill="#fff">
      <path d="M5,3C3.89,3 3,3.9 3,5V19A2,2 0 0,0 5,21H19A2,2 0 0,0 21,19V5A2,2 0 0,0 19,3M6,7H17V9H15V14A1,1 0 0,0 16,15A1,1 0 0,0 17,14H19A3,3 0 0,1 16,17A3,3 0 0,1 13,14V9H10V17H8V9H6" />
    </g>
    <g id="mdi-pi-hole" transform="translate(576 0) scale(1.5)" fill="#555">
      <path d="M5.62,2C9.5,2 11.57,4.29 11.77,7.93C12.5,3.57 15.93,4.08 15.93,4.08C16.1,6.55 14.07,8.05 11.77,8.17C11.12,6.81 7.25,3.47 7.25,3.47C7.23,3.5 10.97,6.74 10.83,8.15C8.33,7.88 5.82,6 5.62,2M6.06,13.11L9.92,9.25C11.09,8.08 13,8.08 14.16,9.25L18,13.11C19.19,14.28 19.19,16.18 18,17.35L14.16,21.21C13,22.38 11.09,22.38 9.92,21.21L6.06,17.35C4.89,16.18 4.89,14.28 6.06,13.11M9.39,19.59C9.39,18.36 10.15,16.85 12.09,16.85C13.4,16.85 14.87,18.1 16.31,17.96C14.87,17.92 13.59,16.85 13.59,15.19C13.59,13.86 14.69,12.9 14.69,11.34C14.63,12.33 13.82,13.77 12,13.77C10.59,13.77 9.55,12.63 7.87,12.63C8.58,12.67 10.5,13.3 10.5,15.35C10.5,17 9.39,17.5 9.39,19.59Z" />
    </g>
    <g id="mdi-pi-hole" transform="translate(612 0) scale(1.5)" fill="#fff">
      <path d="M5.62,2C9.5,2 11.57,4.29 11.77,7.93C12.5,3.57 15.93,4.08 15.93,4.08C16.1,6.55 14.07,8.05 11.77,8.17C11.12,6.81 7.25,3.47 7.25,3.47C7.23,3.5 10.97,6.74 10.83,8.15C8.33,7.88 5.82,6 5.62,2M6.06,13.11L9.92,9.25C11.09,8.08 13,8.08 14.16,9.25L18,13.11C19.19,14.28 19.19,16.18 18,17.35L14.16,21.21C13,22.38 11.09,22.38 9.92,21.21L6.06,17.35C4.89,16.18 4.89,14.28 6.06,13.11M9.39,19.59C9.39,18.36 10.15,16.85 12.09,16.85C13.4,16.85 14.87,18.1 16.31,17.96C14.87,17.92 13.59,16.85 13.59,15.19C13.59,13.86 14.69,12.9 14.69,11.34C14.63,12.33 13.82,13.77 12,13.77C10.59,13.77 9.55,12.63 7.87,12.63C8.58,12.67 10.5,13.3 10.5,15.35C10.5,17 9.39,17.5 9.39,19.59Z" />
    </g>
    <g id="mdi-piano" transform="translate(648 0) scale(1.5)" fill="#555">
      <path d="M4,3H20A2,2 0 0,1 22,5V19A2,2 0 0,1 20,21H4A2,2 0 0,1 2,19V5A2,2 0 0,1 4,3M4,5V19H8V13H6.75V5H4M9,19H15V13H13.75V5H10.25V13H9V19M16,19H20V5H17.25V13H16V19Z" />
    </g>
    <g id="mdi-piano" transform="translate(684 0) scale(1.5)" fill="#fff">
      <path d="M4,3H20A2,2 0 0,1 22,5V19A2,2 0 0,1 20,21H4A2,2 0 0,1 2,19V5A2,2 0 0,1 4,3M4,5V19H8V13H6.75V5H4M9,19H15V13H13.75V5H10.25V13H9V19M16,19H20V5H17.25V13H16V19Z" />
    </g>
    <g id="mdi-pickaxe" transform="translate(0 36) scale(1.5)" fill="#555">
      <path d="M14.79,10.62L3.5,21.9L2.1,20.5L13.38,9.21L14.79,10.62M19.27,7.73L19.86,7.14L19.07,6.35L19.71,5.71L18.29,4.29L17.65,4.93L16.86,4.14L16.27,4.73C14.53,3.31 12.57,2.17 10.47,1.37L9.64,3.16C11.39,4.08 13,5.19 14.5,6.5L14,7L17,10L17.5,9.5C18.81,11 19.92,12.61 20.84,14.36L22.63,13.53C21.83,11.43 20.69,9.47 19.27,7.73Z" />
    </g>
    <g id="mdi-pickaxe" transform="translate(36 36) scale(1.5)" fill="#fff">
      <path d="M14.79,10.62L3.5,21.9L2.1,20.5L13.38,9.21L14.79,10.62M19.27,7.73L19.86,7.14L19.07,6.35L19.71,5.71L18.29,4.29L17.65,4.93L16.86,4.14L16.27,4.73C14.53,3.31 12.57,2.17 10.47,1.37L9.64,3.16C11.39,4.08 13,5.19 14.5,6.5L14,7L17,10L17.5,9.5C18.81,11 19.92,12.61 20.84,14.36L22.63,13.53C21.83,11.43 20.69,9.47 19.27,7.73Z" />
    </g>
    <g id="mdi-picture-in-picture-bottom-right" transform="translate(72 36) scale(1.5)" fill="#555">
      <path d="M19,11H11V17H19V11M23,19V5C23,3.88 22.1,3 21,3H3A2,2 0 0,0 1,5V19A2,2 0 0,0 3,21H21A2,2 0 0,0 23,19M21,19H3V4.97H21V19Z" />
    </g>
    <g id="mdi-picture-in-picture-bottom-right" transform="translate(108 36) scale(1.5)" fill="#fff">
      <path d="M19,11H11V17H19V11M23,19V5C23,3.88 22.1,3 21,3H3A2,2 0 0,0 1,5V19A2,2 0 0,0 3,21H21A2,2 0 0,0 23,19M21,19H3V4.97H21V19Z" />
    </g>
    <g id="mdi-picture-in-picture-bottom-right-outline" transform="translate(144 36) scale(1.5)" fill="#555">
      <path d="M19,11H11V17H19V11M17,15H13V13H17V15M21,3H3A2,2 0 0,0 1,5V19A2,2 0 0,0 3,21H21A2,2 0 0,0 23,19V5C23,3.88 22.1,3 21,3M21,19H3V4.97H21V19Z" />
    </g>
    <g id="mdi-picture-in-picture-bottom-right-outline" transform="translate(180 36) scale(1.5)" fill="#fff">
      <path d="M19,11H11V17H19V11M17,15H13V13H17V15M21,3H3A2,2 0 0,0 1,5V19A2,2 0 0,0 3,21H21A2,2 0 0,0 23,19V5C23,3.88 22.1,3 21,3M21,19H3V4.97H21V19Z" />
    </g>
    <g id="mdi-picture-in-picture-top-right" transform="translate(216 36) scale(1.5)" fill="#555">
      <path d="M19,7H11V13H19V7M21,3H3A2,2 0 0,0 1,5V19A2,2 0 0,0 3,21H21A2,2 0 0,0 23,19V5A2,2 0 0,0 21,3M21,19H3V5H21V19Z" />
    </g>
    <g id="mdi-picture-in-picture-top-right" transform="translate(252 36) scale(1.5)" fill="#fff">
      <path d="M19,7H11V13H19V7M21,3H3A2,2 0 0,0 1,5V19A2,2 0 0,0 3,21H21A2,2 0 0,0 23,19V5A2,2 0 0,0 21,3M21,19H3V5H21V19Z" />
    </g>
    <g id="mdi-picture-in-picture-top-right-outline" transform="translate(288 36) scale(1.5)" fill="#555">
      <path d="M19,7H11V13H19V7M17,11H13V9H17V11M21,3H3A2,2 0 0,0 1,5V19C1,20.11 1.9,21 3,21H21A2,2 0 0,0 23,19V5C23,3.91 22.1,3 21,3M21,19H3V5H21V19Z" />
    </g>
    <g id="mdi-picture-in-picture-top-right-outline" transform="translate(324 36) scale(1.5)" fill="#fff">
      <path d="M19,7H11V13H19V7M17,11H13V9H17V11M21,3H3A2,2 0 0,0 1,5V19C1,20.11 1.9,21 3,21H21A2,2 0 0,0 23,19V5C23,3.91 22.1,3 21,3M21,19H3V5H21V19Z" />
    </g>
    <g id="mdi-pier" transform="translate(360 36) scale(1.5)" fill="#555">
      <path d="M20,18C18.6,18 17.2,17.5 16,16.7C13.6,18.4 10.4,18.4 8,16.7C6.8,17.5 5.4,18 4,18H2V20H4C5.4,20 6.7,19.6 8,19C10.5,20.3 13.5,20.3 16,19C17.3,19.6 18.6,20 20,20H22V18H20M20,13H19V16.9C18.3,16.8 17.6,16.6 17,16.2V13H12V17C11.3,17 10.7,16.9 10,16.7V13H5V16.9C4.7,17 4.3,17 4,17H3V13H2V11H3V9H5V11H10V9H12V11H17V9H19V11H20V13Z" />
    </g>
    <g id="mdi-pier" transform="translate(396 36) scale(1.5)" fill="#fff">
      <path d="M20,18C18.6,18 17.2,17.5 16,16.7C13.6,18.4 10.4,18.4 8,16.7C6.8,17.5 5.4,18 4,18H2V20H4C5.4,20 6.7,19.6 8,19C10.5,20.3 13.5,20.3 16,19C17.3,19.6 18.6,20 20,20H22V18H20M20,13H19V16.9C18.3,16.8 17.6,16.6 17,16.2V13H12V17C11.3,17 10.7,16.9 10,16.7V13H5V16.9C4.7,17 4.3,17 4,17H3V13H2V11H3V9H5V11H10V9H12V11H17V9H19V11H20V13Z" />
    </g>
    <g id="mdi-pier-crane" transform="translate(432 36) scale(1.5)" fill="#555">
      <path d="M20,20C18.61,20 17.22,19.53 16,18.67C13.56,20.38 10.44,20.38 8,18.67C6.78,19.53 5.39,20 4,20H2V22H4C5.37,22 6.74,21.65 8,21C10.5,22.3 13.5,22.3 16,21C17.26,21.65 18.62,22 20,22H22V20H20M20,4V3A1,1 0 0,0 19,2H9V1H6V2H5V4H6V13H5V11H3V13H2V15H3V19H4C4.33,19 4.67,18.97 5,18.92V15H10V18.65C10.65,18.85 11.33,18.95 12,18.95V18.92L12,15H13V13H12V11H10V13H9V4H17V8.62C16.53,8.79 16.19,9.23 16.19,9.76C16.19,10.2 16.43,10.6 16.8,10.82V12H17.42C17.76,12 18.03,12.28 18.03,12.62C18.03,12.96 17.76,13.24 17.42,13.24C17.2,13.24 17,13.12 16.88,12.93C16.71,12.64 16.34,12.54 16.05,12.71C15.75,12.87 15.65,13.25 15.82,13.55C16.15,14.11 16.76,14.47 17.42,14.47C18.43,14.47 19.26,13.64 19.26,12.62C19.26,11.84 18.76,11.14 18.03,10.88V10.82C18.41,10.6 18.65,10.2 18.65,9.76C18.65,9.3 18.38,8.91 18,8.7V4H20M8,11.66L7,12.66V11.24L8,10.24V11.66M8,8.71L7,9.71V8.29L8,7.29V8.71M7,6.71V5.29L8,4.29V5.71L7,6.71Z" />
    </g>
    <g id="mdi-pier-crane" transform="translate(468 36) scale(1.5)" fill="#fff">
      <path d="M20,20C18.61,20 17.22,19.53 16,18.67C13.56,20.38 10.44,20.38 8,18.67C6.78,19.53 5.39,20 4,20H2V22H4C5.37,22 6.74,21.65 8,21C10.5,22.3 13.5,22.3 16,21C17.26,21.65 18.62,22 20,22H22V20H20M20,4V3A1,1 0 0,0 19,2H9V1H6V2H5V4H6V13H5V11H3V13H2V15H3V19H4C4.33,19 4.67,18.97 5,18.92V15H10V18.65C10.65,18.85 11.33,18.95 12,18.95V18.92L12,15H13V13H12V11H10V13H9V4H17V8.62C16.53,8.79 16.19,9.23 16.19,9.76C16.19,10.2 16.43,10.6 16.8,10.82V12H17.42C17.76,12 18.03,12.28 18.03,12.62C18.03,12.96 17.76,13.24 17.42,13.24C17.2,13.24 17,13.12 16.88,12.93C16.71,12.64 16.34,12.54 16.05,12.71C15.75,12.87 15.65,13.25 15.82,13.55C16.15,14.11 16.76,14.47 17.42,14.47C18.43,14.47 19.26,13.64 19.26,12.62C19.26,11.84 18.76,11.14 18.03,10.88V10.82C18.41,10.6 18.65,10.2 18.65,9.76C18.65,9.3 18.38,8.91 18,8.7V4H20M8,11.66L7,12.66V11.24L8,10.24V11.66M8,8.71L7,9.71V8.29L8,7.29V8.71M7,6.71V5.29L8,4.29V5.71L7,6.71Z" />
    </g>
    <g id="mdi-pig" transform="translate(504 36) scale(1.5)" fill="#555">
      <path d="M9.5,9A1.5,1.5 0 0,0 8,10.5A1.5,1.5 0 0,0 9.5,12A1.5,1.5 0 0,0 11,10.5A1.5,1.5 0 0,0 9.5,9M14.5,9A1.5,1.5 0 0,0 13,10.5A1.5,1.5 0 0,0 14.5,12A1.5,1.5 0 0,0 16,10.5A1.5,1.5 0 0,0 14.5,9M12,4L12.68,4.03C13.62,3.24 14.82,2.59 15.72,2.35C17.59,1.85 20.88,2.23 21.31,3.83C21.62,5 20.6,6.45 19.03,7.38C20.26,8.92 21,10.87 21,13A9,9 0 0,1 12,22A9,9 0 0,1 3,13C3,10.87 3.74,8.92 4.97,7.38C3.4,6.45 2.38,5 2.69,3.83C3.12,2.23 6.41,1.85 8.28,2.35C9.18,2.59 10.38,3.24 11.32,4.03L12,4M10,16A1,1 0 0,1 11,17A1,1 0 0,1 10,18A1,1 0 0,1 9,17A1,1 0 0,1 10,16M14,16A1,1 0 0,1 15,17A1,1 0 0,1 14,18A1,1 0 0,1 13,17A1,1 0 0,1 14,16M12,13C9.24,13 7,15.34 7,17C7,18.66 9.24,20 12,20C14.76,20 17,18.66 17,17C17,15.34 14.76,13 12,13M7.76,4.28C7.31,4.16 4.59,4.35 4.59,4.35C4.59,4.35 6.8,6.1 7.24,6.22C7.69,6.34 9.77,6.43 9.91,5.9C10.06,5.36 8.2,4.4 7.76,4.28M16.24,4.28C15.8,4.4 13.94,5.36 14.09,5.9C14.23,6.43 16.31,6.34 16.76,6.22C17.2,6.1 19.41,4.35 19.41,4.35C19.41,4.35 16.69,4.16 16.24,4.28Z" />
    </g>
    <g id="mdi-pig" transform="translate(540 36) scale(1.5)" fill="#fff">
      <path d="M9.5,9A1.5,1.5 0 0,0 8,10.5A1.5,1.5 0 0,0 9.5,12A1.5,1.5 0 0,0 11,10.5A1.5,1.5 0 0,0 9.5,9M14.5,9A1.5,1.5 0 0,0 13,10.5A1.5,1.5 0 0,0 14.5,12A1.5,1.5 0 0,0 16,10.5A1.5,1.5 0 0,0 14.5,9M12,4L12.68,4.03C13.62,3.24 14.82,2.59 15.72,2.35C17.59,1.85 20.88,2.23 21.31,3.83C21.62,5 20.6,6.45 19.03,7.38C20.26,8.92 21,10.87 21,13A9,9 0 0,1 12,22A9,9 0 0,1 3,13C3,10.87 3.74,8.92 4.97,7.38C3.4,6.45 2.38,5 2.69,3.83C3.12,2.23 6.41,1.85 8.28,2.35C9.18,2.59 10.38,3.24 11.32,4.03L12,4M10,16A1,1 0 0,1 11,17A1,1 0 0,1 10,18A1,1 0 0,1 9,17A1,1 0 0,1 10,16M14,16A1,1 0 0,1 15,17A1,1 0 0,1 14,18A1,1 0 0,1 13,17A1,1 0 0,1 14,16M12,13C9.24,13 7,15.34 7,17C7,18.66 9.24,20 12,20C14.76,20 17,18.66 17,17C17,15.34 14.76,13 12,13M7.76,4.28C7.31,4.16 4.59,4.35 4.59,4.35C4.59,4.35 6.8,6.1 7.24,6.22C7.69,6.34 9.77,6.43 9.91,5.9C10.06,5.36 8.2,4.4 7.76,4.28M16.24,4.28C15.8,4.4 13.94,5.36 14.09,5.9C14.23,6.43 16.31,6.34 16.76,6.22C17.2,6.1 19.41,4.35 19.41,4.35C19.41,4.35 16.69,4.16 16.24,4.28Z" />
    </g>
    <g id="mdi-pig-variant" transform="translate(576 36) scale(1.5)" fill="#555">
      <path d="M20 12C20 8.69 16.42 6 12 6C11.15 6 10.34 6.1 9.57 6.28L7 5V7.32C5.5 8.22 4.45 9.5 4.12 11H2V15H5.08C5.58 15.65 6.23 16.22 7 16.68V20H9V17.56C9.93 17.84 10.94 18 12 18S14.07 17.84 15 17.56V20H17V16.68C18.15 16 19.03 15.06 19.54 14H22V12H20M7 11C6.45 11 6 10.55 6 10S6.45 9 7 9 8 9.45 8 10 7.55 11 7 11Z" />
    </g>
    <g id="mdi-pig-variant" transform="translate(612 36) scale(1.5)" fill="#fff">
      <path d="M20 12C20 8.69 16.42 6 12 6C11.15 6 10.34 6.1 9.57 6.28L7 5V7.32C5.5 8.22 4.45 9.5 4.12 11H2V15H5.08C5.58 15.65 6.23 16.22 7 16.68V20H9V17.56C9.93 17.84 10.94 18 12 18S14.07 17.84 15 17.56V20H17V16.68C18.15 16 19.03 15.06 19.54 14H22V12H20M7 11C6.45 11 6 10.55 6 10S6.45 9 7 9 8 9.45 8 10 7.55 11 7 11Z" />
    </g>
    <g id="mdi-piggy-bank" transform="translate(648 36) scale(1.5)" fill="#555">
      <path d="M13 1C14.66 1 16 2.34 16 4S14.66 7 13 7 10 5.66 10 4 11.34 1 13 1M20 14C20 11.64 18.17 9.6 15.5 8.62C15 9.45 14.06 10 13 10C11.76 10 10.69 9.24 10.24 8.17C10 8.2 9.78 8.23 9.57 8.29L7 7V9.32C5.5 10.22 4.45 11.5 4.12 13H2V17H5.08C5.58 17.65 6.23 18.22 7 18.68V22H9V19.56C9.93 19.84 10.94 20 12 20S14.07 19.84 15 19.56V22H17V18.68C18.15 18 19.03 17.06 19.54 16H22V14H20M7 13C6.45 13 6 12.55 6 12S6.45 11 7 11 8 11.45 8 12 7.55 13 7 13Z" />
    </g>
    <g id="mdi-piggy-bank" transform="translate(684 36) scale(1.5)" fill="#fff">
      <path d="M13 1C14.66 1 16 2.34 16 4S14.66 7 13 7 10 5.66 10 4 11.34 1 13 1M20 14C20 11.64 18.17 9.6 15.5 8.62C15 9.45 14.06 10 13 10C11.76 10 10.69 9.24 10.24 8.17C10 8.2 9.78 8.23 9.57 8.29L7 7V9.32C5.5 10.22 4.45 11.5 4.12 13H2V17H5.08C5.58 17.65 6.23 18.22 7 18.68V22H9V19.56C9.93 19.84 10.94 20 12 20S14.07 19.84 15 19.56V22H17V18.68C18.15 18 19.03 17.06 19.54 16H22V14H20M7 13C6.45 13 6 12.55 6 12S6.45 11 7 11 8 11.45 8 12 7.55 13 7 13Z" />
    </g>
    <g id="mdi-pill" transform="translate(0 72) scale(1.5)" fill="#555">
      <path d="M4.22,11.29L11.29,4.22C13.64,1.88 17.43,1.88 19.78,4.22C22.12,6.56 22.12,10.36 19.78,12.71L12.71,19.78C10.36,22.12 6.56,22.12 4.22,19.78C1.88,17.43 1.88,13.64 4.22,11.29M5.64,12.71C4.59,13.75 4.24,15.24 4.6,16.57L10.59,10.59L14.83,14.83L18.36,11.29C19.93,9.73 19.93,7.2 18.36,5.64C16.8,4.07 14.27,4.07 12.71,5.64L5.64,12.71Z" />
    </g>
    <g id="mdi-pill" transform="translate(36 72) scale(1.5)" fill="#fff">
      <path d="M4.22,11.29L11.29,4.22C13.64,1.88 17.43,1.88 19.78,4.22C22.12,6.56 22.12,10.36 19.78,12.71L12.71,19.78C10.36,22.12 6.56,22.12 4.22,19.78C1.88,17.43 1.88,13.64 4.22,11.29M5.64,12.71C4.59,13.75 4.24,15.24 4.6,16.57L10.59,10.59L14.83,14.83L18.36,11.29C19.93,9.73 19.93,7.2 18.36,5.64C16.8,4.07 14.27,4.07 12.71,5.64L5.64,12.71Z" />
    </g>
    <g id="mdi-pillar" transform="translate(72 72) scale(1.5)" fill="#555">
      <path d="M6,5H18A1,1 0 0,1 19,6A1,1 0 0,1 18,7H6A1,1 0 0,1 5,6A1,1 0 0,1 6,5M21,2V4H3V2H21M15,8H17V22H15V8M7,8H9V22H7V8M11,8H13V22H11V8Z" />
    </g>
    <g id="mdi-pillar" transform="translate(108 72) scale(1.5)" fill="#fff">
      <path d="M6,5H18A1,1 0 0,1 19,6A1,1 0 0,1 18,7H6A1,1 0 0,1 5,6A1,1 0 0,1 6,5M21,2V4H3V2H21M15,8H17V22H15V8M7,8H9V22H7V8M11,8H13V22H11V8Z" />
    </g>
    <g id="mdi-pin" transform="translate(144 72) scale(1.5)" fill="#555">
      <path d="M16,12V4H17V2H7V4H8V12L6,14V16H11.2V22H12.8V16H18V14L16,12Z" />
    </g>
    <g id="mdi-pin" transform="translate(180 72) scale(1.5)" fill="#fff">
      <path d="M16,12V4H17V2H7V4H8V12L6,14V16H11.2V22H12.8V16H18V14L16,12Z" />
    </g>
    <g id="mdi-pin-off" transform="translate(216 72) scale(1.5)" fill="#555">
      <path d="M2,5.27L3.28,4L20,20.72L18.73,22L12.8,16.07V22H11.2V16H6V14L8,12V11.27L2,5.27M16,12L18,14V16H17.82L8,6.18V4H7V2H17V4H16V12Z" />
    </g>
    <g id="mdi-pin-off" transform="translate(252 72) scale(1.5)" fill="#fff">
      <path d="M2,5.27L3.28,4L20,20.72L18.73,22L12.8,16.07V22H11.2V16H6V14L8,12V11.27L2,5.27M16,12L18,14V16H17.82L8,6.18V4H7V2H17V4H16V12Z" />
    </g>
    <g id="mdi-pin-off-outline" transform="translate(288 72) scale(1.5)" fill="#555">
      <path d="M8,6.2V4H7V2H17V4H16V12L18,14V16H17.8L14,12.2V4H10V8.2L8,6.2M20,20.7L18.7,22L12.8,16.1V22H11.2V16H6V14L8,12V11.3L2,5.3L3.3,4L20,20.7M8.8,14H10.6L9.7,13.1L8.8,14Z" />
    </g>
    <g id="mdi-pin-off-outline" transform="translate(324 72) scale(1.5)" fill="#fff">
      <path d="M8,6.2V4H7V2H17V4H16V12L18,14V16H17.8L14,12.2V4H10V8.2L8,6.2M20,20.7L18.7,22L12.8,16.1V22H11.2V16H6V14L8,12V11.3L2,5.3L3.3,4L20,20.7M8.8,14H10.6L9.7,13.1L8.8,14Z" />
    </g>
    <g id="mdi-pin-outline" transform="translate(360 72) scale(1.5)" fill="#555">
      <path d="M16,12V4H17V2H7V4H8V12L6,14V16H11.2V22H12.8V16H18V14L16,12M8.8,14L10,12.8V4H14V12.8L15.2,14H8.8Z" />
    </g>
    <g id="mdi-pin-outline" transform="translate(396 72) scale(1.5)" fill="#fff">
      <path d="M16,12V4H17V2H7V4H8V12L6,14V16H11.2V22H12.8V16H18V14L16,12M8.8,14L10,12.8V4H14V12.8L15.2,14H8.8Z" />
    </g>
    <g id="mdi-pine-tree" transform="translate(432 72) scale(1.5)" fill="#555">
      <path d="M10,21V18H3L8,13H5L10,8H7L12,3L17,8H14L19,13H16L21,18H14V21H10Z" />
    </g>
    <g id="mdi-pine-tree" transform="translate(468 72) scale(1.5)" fill="#fff">
      <path d="M10,21V18H3L8,13H5L10,8H7L12,3L17,8H14L19,13H16L21,18H14V21H10Z" />
    </g>
    <g id="mdi-pine-tree-box" transform="translate(504 72) scale(1.5)" fill="#555">
      <path d="M4,2H20A2,2 0 0,1 22,4V20A2,2 0 0,1 20,22H4A2,2 0 0,1 2,20V4A2,2 0 0,1 4,2M11,19H13V17H18L14,13H17L13,9H16L12,5L8,9H11L7,13H10L6,17H11V19Z" />
    </g>
    <g id="mdi-pine-tree-box" transform="translate(540 72) scale(1.5)" fill="#fff">
      <path d="M4,2H20A2,2 0 0,1 22,4V20A2,2 0 0,1 20,22H4A2,2 0 0,1 2,20V4A2,2 0 0,1 4,2M11,19H13V17H18L14,13H17L13,9H16L12,5L8,9H11L7,13H10L6,17H11V19Z" />
    </g>
    <g id="mdi-pinterest" transform="translate(576 72) scale(1.5)" fill="#555">
      <path d="M9.04,21.54C10,21.83 10.97,22 12,22A10,10 0 0,0 22,12A10,10 0 0,0 12,2A10,10 0 0,0 2,12C2,16.25 4.67,19.9 8.44,21.34C8.35,20.56 8.26,19.27 8.44,18.38L9.59,13.44C9.59,13.44 9.3,12.86 9.3,11.94C9.3,10.56 10.16,9.53 11.14,9.53C12,9.53 12.4,10.16 12.4,10.97C12.4,11.83 11.83,13.06 11.54,14.24C11.37,15.22 12.06,16.08 13.06,16.08C14.84,16.08 16.22,14.18 16.22,11.5C16.22,9.1 14.5,7.46 12.03,7.46C9.21,7.46 7.55,9.56 7.55,11.77C7.55,12.63 7.83,13.5 8.29,14.07C8.38,14.13 8.38,14.21 8.35,14.36L8.06,15.45C8.06,15.62 7.95,15.68 7.78,15.56C6.5,15 5.76,13.18 5.76,11.71C5.76,8.55 8,5.68 12.32,5.68C15.76,5.68 18.44,8.15 18.44,11.43C18.44,14.87 16.31,17.63 13.26,17.63C12.29,17.63 11.34,17.11 11,16.5L10.33,18.87C10.1,19.73 9.47,20.88 9.04,21.57V21.54Z" />
    </g>
    <g id="mdi-pinterest" transform="translate(612 72) scale(1.5)" fill="#fff">
      <path d="M9.04,21.54C10,21.83 10.97,22 12,22A10,10 0 0,0 22,12A10,10 0 0,0 12,2A10,10 0 0,0 2,12C2,16.25 4.67,19.9 8.44,21.34C8.35,20.56 8.26,19.27 8.44,18.38L9.59,13.44C9.59,13.44 9.3,12.86 9.3,11.94C9.3,10.56 10.16,9.53 11.14,9.53C12,9.53 12.4,10.16 12.4,10.97C12.4,11.83 11.83,13.06 11.54,14.24C11.37,15.22 12.06,16.08 13.06,16.08C14.84,16.08 16.22,14.18 16.22,11.5C16.22,9.1 14.5,7.46 12.03,7.46C9.21,7.46 7.55,9.56 7.55,11.77C7.55,12.63 7.83,13.5 8.29,14.07C8.38,14.13 8.38,14.21 8.35,14.36L8.06,15.45C8.06,15.62 7.95,15.68 7.78,15.56C6.5,15 5.76,13.18 5.76,11.71C5.76,8.55 8,5.68 12.32,5.68C15.76,5.68 18.44,8.15 18.44,11.43C18.44,14.87 16.31,17.63 13.26,17.63C12.29,17.63 11.34,17.11 11,16.5L10.33,18.87C10.1,19.73 9.47,20.88 9.04,21.57V21.54Z" />
    </g>
    <g id="mdi-pinwheel" transform="translate(648 72) scale(1.5)" fill="#555">
      <path d="M12,12C12,9 14.5,6.5 17.5,6.5C20.5,6.5 23,9 23,12H12M12,12C12,15 9.5,17.5 6.5,17.5C3.5,17.5 1,15 1,12H12M12,12C9,12 6.5,9.5 6.5,6.5C6.5,3.5 9,1 12,1V12M12,12C15,12 17.5,14.5 17.5,17.5C17.5,20.5 15,23 12,23V12Z" />
    </g>
    <g id="mdi-pinwheel" transform="translate(684 72) scale(1.5)" fill="#fff">
      <path d="M12,12C12,9 14.5,6.5 17.5,6.5C20.5,6.5 23,9 23,12H12M12,12C12,15 9.5,17.5 6.5,17.5C3.5,17.5 1,15 1,12H12M12,12C9,12 6.5,9.5 6.5,6.5C6.5,3.5 9,1 12,1V12M12,12C15,12 17.5,14.5 17.5,17.5C17.5,20.5 15,23 12,23V12Z" />
    </g>
    <g id="mdi-pinwheel-outline" transform="translate(0 108) scale(1.5)" fill="#555">
      <path d="M12,23H11V16.43C9.93,17.4 8.5,18 7,18C3.75,18 1,15.25 1,12V11H7.57C6.6,9.93 6,8.5 6,7C6,3.75 8.75,1 12,1H13V7.57C14.07,6.6 15.5,6 17,6C20.25,6 23,8.75 23,12V13H16.43C17.4,14.07 18,15.5 18,17C18,20.25 15.25,23 12,23M13,13.13V20.87C14.7,20.41 16,18.83 16,17C16,15.17 14.7,13.59 13,13.13M3.13,13C3.59,14.7 5.17,16 7,16C8.83,16 10.41,14.7 10.87,13H3.13M13.13,11H20.87C20.41,9.3 18.82,8 17,8C15.18,8 13.59,9.3 13.13,11M11,3.13C9.3,3.59 8,5.18 8,7C8,8.82 9.3,10.41 11,10.87V3.13Z" />
    </g>
    <g id="mdi-pinwheel-outline" transform="translate(36 108) scale(1.5)" fill="#fff">
      <path d="M12,23H11V16.43C9.93,17.4 8.5,18 7,18C3.75,18 1,15.25 1,12V11H7.57C6.6,9.93 6,8.5 6,7C6,3.75 8.75,1 12,1H13V7.57C14.07,6.6 15.5,6 17,6C20.25,6 23,8.75 23,12V13H16.43C17.4,14.07 18,15.5 18,17C18,20.25 15.25,23 12,23M13,13.13V20.87C14.7,20.41 16,18.83 16,17C16,15.17 14.7,13.59 13,13.13M3.13,13C3.59,14.7 5.17,16 7,16C8.83,16 10.41,14.7 10.87,13H3.13M13.13,11H20.87C20.41,9.3 18.82,8 17,8C15.18,8 13.59,9.3 13.13,11M11,3.13C9.3,3.59 8,5.18 8,7C8,8.82 9.3,10.41 11,10.87V3.13Z" />
    </g>
    <g id="mdi-pipe" transform="translate(72 108) scale(1.5)" fill="#555">
      <path d="M22,14H20V16H14V13H16V11H14V6A2,2 0 0,0 12,4H4V2H2V10H4V8H10V11H8V13H10V18A2,2 0 0,0 12,20H20V22H22" />
    </g>
    <g id="mdi-pipe" transform="translate(108 108) scale(1.5)" fill="#fff">
      <path d="M22,14H20V16H14V13H16V11H14V6A2,2 0 0,0 12,4H4V2H2V10H4V8H10V11H8V13H10V18A2,2 0 0,0 12,20H20V22H22" />
    </g>
    <g id="mdi-pipe-disconnected" transform="translate(144 108) scale(1.5)" fill="#555">
      <path d="M16,9V11H8V9H10V8H4V10H2V2H4V4H12A2,2 0 0,1 14,6V9H16M10,15V18A2,2 0 0,0 12,20H20V22H22V14H20V16H14V15H16V13H8V15H10Z" />
    </g>
    <g id="mdi-pipe-disconnected" transform="translate(180 108) scale(1.5)" fill="#fff">
      <path d="M16,9V11H8V9H10V8H4V10H2V2H4V4H12A2,2 0 0,1 14,6V9H16M10,15V18A2,2 0 0,0 12,20H20V22H22V14H20V16H14V15H16V13H8V15H10Z" />
    </g>
    <g id="mdi-pipe-leak" transform="translate(216 108) scale(1.5)" fill="#555">
      <path d="M2,5V13H4V11H10L12,9L10,7H4V5H2M20,5V7H12L14,9L12,11H20V13H22V5H20M12,13C12,13 10,15.17 10,16.5A2,2 0 0,0 12,18.5A2,2 0 0,0 14,16.5C14,15.17 12,13 12,13Z" />
    </g>
    <g id="mdi-pipe-leak" transform="translate(252 108) scale(1.5)" fill="#fff">
      <path d="M2,5V13H4V11H10L12,9L10,7H4V5H2M20,5V7H12L14,9L12,11H20V13H22V5H20M12,13C12,13 10,15.17 10,16.5A2,2 0 0,0 12,18.5A2,2 0 0,0 14,16.5C14,15.17 12,13 12,13Z" />
    </g>
    <g id="mdi-pipe-wrench" transform="translate(288 108) scale(1.5)" fill="#555">
      <path d="M16.17 5.63L14.06 7.78L11.91 5.63L16.17 1.41L19.69 4.92C20.86 6.09 20.86 8 19.69 9.19L16.17 5.63M4.83 12.7L7 14.81L10.5 11.3L8.39 9.19L4.83 12.7M15.47 7.78L19 11.3L17.58 12.7L16.88 12L6.23 22.59L3.42 19.78L11.91 11.3L7.69 7.03L9.8 4.92L14.06 9.19L15.47 7.78Z" />
    </g>
    <g id="mdi-pipe-wrench" transform="translate(324 108) scale(1.5)" fill="#fff">
      <path d="M16.17 5.63L14.06 7.78L11.91 5.63L16.17 1.41L19.69 4.92C20.86 6.09 20.86 8 19.69 9.19L16.17 5.63M4.83 12.7L7 14.81L10.5 11.3L8.39 9.19L4.83 12.7M15.47 7.78L19 11.3L17.58 12.7L16.88 12L6.23 22.59L3.42 19.78L11.91 11.3L7.69 7.03L9.8 4.92L14.06 9.19L15.47 7.78Z" />
    </g>
    <g id="mdi-pirate" transform="translate(360 108) scale(1.5)" fill="#555">
      <path d="M8.2,12.1C7.9,12.3 7.7,12.7 7.8,13C7.8,13.7 8.5,14.2 9.1,14.2C9.7,14.2 10.3,13.7 10.3,13C9.7,12.6 9,12.3 8.2,12.1M22,11L23,7C23,7 21,7 18,5C15,3 15,1 12,1C9,1 9,3 6,5C3,7 1,7 1,7L2,11H2.1C2,11.3 2,11.7 2,12C2,15.5 3.8,18.6 6.5,20.4L6,21.3C12.4,25.4 18,21.3 18,21.3L17.5,20.4C20.2,18.6 22,15.5 22,12C22,11.7 22,11.3 22,11M11.3,4.5L9.9,3.1L10.6,2.4L12,3.8L13.4,2.4L14.1,3.1L12.7,4.5L14.1,5.9L13.4,6.6L12,5.2L10.6,6.6L9.9,5.9L11.3,4.5M9.3,8.5C10.3,8.2 11.3,8 12,8C14.2,8 17.9,9.6 19.8,10.4C19.9,10.7 19.9,11 19.9,11.3L9.3,8.5M13.6,19.1C12.9,19.5 12.2,19.8 11.4,19.9C10.9,19.5 10.9,18.7 11.4,18.3C11.8,17.9 12.7,17.7 13.2,18.2C13.5,18.3 13.6,18.8 13.6,19.1M20,13.4C19.5,15.5 18.2,17.4 16.5,18.6L15,16H9L7.5,18.6C5.4,17.2 4,14.8 4,12C4,11.5 4.1,11 4.2,10.5C4.7,10.3 5.3,10 6,9.7L13.1,11.6V14C13.1,14.5 13.5,15 14.1,15H16.1C16.6,15 17.1,14.6 17.1,14V12.6L20,13.4Z" />
    </g>
    <g id="mdi-pirate" transform="translate(396 108) scale(1.5)" fill="#fff">
      <path d="M8.2,12.1C7.9,12.3 7.7,12.7 7.8,13C7.8,13.7 8.5,14.2 9.1,14.2C9.7,14.2 10.3,13.7 10.3,13C9.7,12.6 9,12.3 8.2,12.1M22,11L23,7C23,7 21,7 18,5C15,3 15,1 12,1C9,1 9,3 6,5C3,7 1,7 1,7L2,11H2.1C2,11.3 2,11.7 2,12C2,15.5 3.8,18.6 6.5,20.4L6,21.3C12.4,25.4 18,21.3 18,21.3L17.5,20.4C20.2,18.6 22,15.5 22,12C22,11.7 22,11.3 22,11M11.3,4.5L9.9,3.1L10.6,2.4L12,3.8L13.4,2.4L14.1,3.1L12.7,4.5L14.1,5.9L13.4,6.6L12,5.2L10.6,6.6L9.9,5.9L11.3,4.5M9.3,8.5C10.3,8.2 11.3,8 12,8C14.2,8 17.9,9.6 19.8,10.4C19.9,10.7 19.9,11 19.9,11.3L9.3,8.5M13.6,19.1C12.9,19.5 12.2,19.8 11.4,19.9C10.9,19.5 10.9,18.7 11.4,18.3C11.8,17.9 12.7,17.7 13.2,18.2C13.5,18.3 13.6,18.8 13.6,19.1M20,13.4C19.5,15.5 18.2,17.4 16.5,18.6L15,16H9L7.5,18.6C5.4,17.2 4,14.8 4,12C4,11.5 4.1,11 4.2,10.5C4.7,10.3 5.3,10 6,9.7L13.1,11.6V14C13.1,14.5 13.5,15 14.1,15H16.1C16.6,15 17.1,14.6 17.1,14V12.6L20,13.4Z" />
    </g>
    <g id="mdi-pistol" transform="translate(432 108) scale(1.5)" fill="#555">
      <path d="M7,5H23V9H22V10H16A1,1 0 0,0 15,11V12A2,2 0 0,1 13,14H9.62C9.24,14 8.89,14.22 8.72,14.56L6.27,19.45C6.1,19.79 5.76,20 5.38,20H2C2,20 -1,20 3,14C3,14 6,10 2,10V5H3L3.5,4H6.5L7,5M14,12V11A1,1 0 0,0 13,10H12C12,10 11,11 12,12A2,2 0 0,1 10,10A1,1 0 0,0 9,11V12A1,1 0 0,0 10,13H13A1,1 0 0,0 14,12Z" />
    </g>
    <g id="mdi-pistol" transform="translate(468 108) scale(1.5)" fill="#fff">
      <path d="M7,5H23V9H22V10H16A1,1 0 0,0 15,11V12A2,2 0 0,1 13,14H9.62C9.24,14 8.89,14.22 8.72,14.56L6.27,19.45C6.1,19.79 5.76,20 5.38,20H2C2,20 -1,20 3,14C3,14 6,10 2,10V5H3L3.5,4H6.5L7,5M14,12V11A1,1 0 0,0 13,10H12C12,10 11,11 12,12A2,2 0 0,1 10,10A1,1 0 0,0 9,11V12A1,1 0 0,0 10,13H13A1,1 0 0,0 14,12Z" />
    </g>
    <g id="mdi-piston" transform="translate(504 108) scale(1.5)" fill="#555">
      <path d="M13,16.18C13.5,16.35 13.9,16.63 14.23,17H15V21H14.21C13.89,21.35 13.5,21.63 13,21.8C11.85,22.22 10.58,21.87 9.78,21H9V17H9.77C10.1,16.63 10.5,16.35 11,16.18V12H13V16.18M12,20A1,1 0 0,0 13,19A1,1 0 0,0 12,18A1,1 0 0,0 11,19A1,1 0 0,0 12,20M17,4H15V5H17V11H7V5H9V4H7V2H17V4M12,9A1,1 0 0,0 13,8A1,1 0 0,0 12,7A1,1 0 0,0 11,8A1,1 0 0,0 12,9Z" />
    </g>
    <g id="mdi-piston" transform="translate(540 108) scale(1.5)" fill="#fff">
      <path d="M13,16.18C13.5,16.35 13.9,16.63 14.23,17H15V21H14.21C13.89,21.35 13.5,21.63 13,21.8C11.85,22.22 10.58,21.87 9.78,21H9V17H9.77C10.1,16.63 10.5,16.35 11,16.18V12H13V16.18M12,20A1,1 0 0,0 13,19A1,1 0 0,0 12,18A1,1 0 0,0 11,19A1,1 0 0,0 12,20M17,4H15V5H17V11H7V5H9V4H7V2H17V4M12,9A1,1 0 0,0 13,8A1,1 0 0,0 12,7A1,1 0 0,0 11,8A1,1 0 0,0 12,9Z" />
    </g>
    <g id="mdi-pizza" transform="translate(576 108) scale(1.5)" fill="#555">
      <path d="M12,15A2,2 0 0,1 10,13C10,11.89 10.9,11 12,11A2,2 0 0,1 14,13A2,2 0 0,1 12,15M7,7C7,5.89 7.89,5 9,5A2,2 0 0,1 11,7A2,2 0 0,1 9,9C7.89,9 7,8.1 7,7M12,2C8.43,2 5.23,3.54 3,6L12,22L21,6C18.78,3.54 15.57,2 12,2Z" />
    </g>
    <g id="mdi-pizza" transform="translate(612 108) scale(1.5)" fill="#fff">
      <path d="M12,15A2,2 0 0,1 10,13C10,11.89 10.9,11 12,11A2,2 0 0,1 14,13A2,2 0 0,1 12,15M7,7C7,5.89 7.89,5 9,5A2,2 0 0,1 11,7A2,2 0 0,1 9,9C7.89,9 7,8.1 7,7M12,2C8.43,2 5.23,3.54 3,6L12,22L21,6C18.78,3.54 15.57,2 12,2Z" />
    </g>
    <g id="mdi-play" transform="translate(648 108) scale(1.5)" fill="#555">
      <path d="M8,5.14V19.14L19,12.14L8,5.14Z" />
    </g>
    <g id="mdi-play" transform="translate(684 108) scale(1.5)" fill="#fff">
      <path d="M8,5.14V19.14L19,12.14L8,5.14Z" />
    </g>
    <g id="mdi-play-box" transform="translate(0 144) scale(1.5)" fill="#555">
      <path d="M19 3H5C3.89 3 3 3.89 3 5V19C3 20.1 3.9 21 5 21H19C20.1 21 21 20.1 21 19V5C21 3.89 20.1 3 19 3M10 16V8L15 12" />
    </g>
    <g id="mdi-play-box" transform="translate(36 144) scale(1.5)" fill="#fff">
      <path d="M19 3H5C3.89 3 3 3.89 3 5V19C3 20.1 3.9 21 5 21H19C20.1 21 21 20.1 21 19V5C21 3.89 20.1 3 19 3M10 16V8L15 12" />
    </g>
    <g id="mdi-play-box-multiple" transform="translate(72 144) scale(1.5)" fill="#555">
      <path d="M4,6H2V20A2,2 0 0,0 4,22H18V20H4V6M20,2H8A2,2 0 0,0 6,4V16A2,2 0 0,0 8,18H20A2,2 0 0,0 22,16V4A2,2 0 0,0 20,2M12,14.5V5.5L18,10L12,14.5Z" />
    </g>
    <g id="mdi-play-box-multiple" transform="translate(108 144) scale(1.5)" fill="#fff">
      <path d="M4,6H2V20A2,2 0 0,0 4,22H18V20H4V6M20,2H8A2,2 0 0,0 6,4V16A2,2 0 0,0 8,18H20A2,2 0 0,0 22,16V4A2,2 0 0,0 20,2M12,14.5V5.5L18,10L12,14.5Z" />
    </g>
    <g id="mdi-play-box-multiple-outline" transform="translate(144 144) scale(1.5)" fill="#555">
      <path d="M4 6H2V20C2 21.1 2.9 22 4 22H18V20H4V6M20 4V16H8V4H20M20 2H8C6.9 2 6 2.9 6 4V16C6 17.1 6.9 18 8 18H20C21.1 18 22 17.1 22 16V4C22 2.9 21.1 2 20 2M12 14.5V5.5L18 10L12 14.5Z" />
    </g>
    <g id="mdi-play-box-multiple-outline" transform="translate(180 144) scale(1.5)" fill="#fff">
      <path d="M4 6H2V20C2 21.1 2.9 22 4 22H18V20H4V6M20 4V16H8V4H20M20 2H8C6.9 2 6 2.9 6 4V16C6 17.1 6.9 18 8 18H20C21.1 18 22 17.1 22 16V4C22 2.9 21.1 2 20 2M12 14.5V5.5L18 10L12 14.5Z" />
    </g>
    <g id="mdi-play-box-outline" transform="translate(216 144) scale(1.5)" fill="#555">
      <path d="M19,19H5V5H19M19,3H5A2,2 0 0,0 3,5V19A2,2 0 0,0 5,21H19A2,2 0 0,0 21,19V5C21,3.89 20.1,3 19,3M10,8V16L15,12L10,8Z" />
    </g>
    <g id="mdi-play-box-outline" transform="translate(252 144) scale(1.5)" fill="#fff">
      <path d="M19,19H5V5H19M19,3H5A2,2 0 0,0 3,5V19A2,2 0 0,0 5,21H19A2,2 0 0,0 21,19V5C21,3.89 20.1,3 19,3M10,8V16L15,12L10,8Z" />
    </g>
    <g id="mdi-play-circle" transform="translate(288 144) scale(1.5)" fill="#555">
      <path d="M10,16.5V7.5L16,12M12,2A10,10 0 0,0 2,12A10,10 0 0,0 12,22A10,10 0 0,0 22,12A10,10 0 0,0 12,2Z" />
    </g>
    <g id="mdi-play-circle" transform="translate(324 144) scale(1.5)" fill="#fff">
      <path d="M10,16.5V7.5L16,12M12,2A10,10 0 0,0 2,12A10,10 0 0,0 12,22A10,10 0 0,0 22,12A10,10 0 0,0 12,2Z" />
    </g>
    <g id="mdi-play-circle-outline" transform="translate(360 144) scale(1.5)" fill="#555">
      <path d="M12,20C7.59,20 4,16.41 4,12C4,7.59 7.59,4 12,4C16.41,4 20,7.59 20,12C20,16.41 16.41,20 12,20M12,2A10,10 0 0,0 2,12A10,10 0 0,0 12,22A10,10 0 0,0 22,12A10,10 0 0,0 12,2M10,16.5L16,12L10,7.5V16.5Z" />
    </g>
    <g id="mdi-play-circle-outline" transform="translate(396 144) scale(1.5)" fill="#fff">
      <path d="M12,20C7.59,20 4,16.41 4,12C4,7.59 7.59,4 12,4C16.41,4 20,7.59 20,12C20,16.41 16.41,20 12,20M12,2A10,10 0 0,0 2,12A10,10 0 0,0 12,22A10,10 0 0,0 22,12A10,10 0 0,0 12,2M10,16.5L16,12L10,7.5V16.5Z" />
    </g>
    <g id="mdi-play-network" transform="translate(432 144) scale(1.5)" fill="#555">
      <path d="M15,20A1,1 0 0,0 14,19H13V17H17A2,2 0 0,0 19,15V5A2,2 0 0,0 17,3H7A2,2 0 0,0 5,5V15A2,2 0 0,0 7,17H11V19H10A1,1 0 0,0 9,20H2V22H9A1,1 0 0,0 10,23H14A1,1 0 0,0 15,22H22V20H15M10,14V6L15,10L10,14Z" />
    </g>
    <g id="mdi-play-network" transform="translate(468 144) scale(1.5)" fill="#fff">
      <path d="M15,20A1,1 0 0,0 14,19H13V17H17A2,2 0 0,0 19,15V5A2,2 0 0,0 17,3H7A2,2 0 0,0 5,5V15A2,2 0 0,0 7,17H11V19H10A1,1 0 0,0 9,20H2V22H9A1,1 0 0,0 10,23H14A1,1 0 0,0 15,22H22V20H15M10,14V6L15,10L10,14Z" />
    </g>
    <g id="mdi-play-network-outline" transform="translate(504 144) scale(1.5)" fill="#555">
      <path d="M15,20A1,1 0 0,0 14,19H13V17H17A2,2 0 0,0 19,15V5A2,2 0 0,0 17,3H7A2,2 0 0,0 5,5V15A2,2 0 0,0 7,17H11V19H10A1,1 0 0,0 9,20H2V22H9A1,1 0 0,0 10,23H14A1,1 0 0,0 15,22H22V20H15M7,15V5H17V15H7M10,14V6L15,10L10,14Z" />
    </g>
    <g id="mdi-play-network-outline" transform="translate(540 144) scale(1.5)" fill="#fff">
      <path d="M15,20A1,1 0 0,0 14,19H13V17H17A2,2 0 0,0 19,15V5A2,2 0 0,0 17,3H7A2,2 0 0,0 5,5V15A2,2 0 0,0 7,17H11V19H10A1,1 0 0,0 9,20H2V22H9A1,1 0 0,0 10,23H14A1,1 0 0,0 15,22H22V20H15M7,15V5H17V15H7M10,14V6L15,10L10,14Z" />
    </g>
    <g id="mdi-play-outline" transform="translate(576 144) scale(1.5)" fill="#555">
      <path d="M8.5,8.64L13.77,12L8.5,15.36V8.64M6.5,5V19L17.5,12" />
    </g>
    <g id="mdi-play-outline" transform="translate(612 144) scale(1.5)" fill="#fff">
      <path d="M8.5,8.64L13.77,12L8.5,15.36V8.64M6.5,5V19L17.5,12" />
    </g>
    <g id="mdi-play-pause" transform="translate(648 144) scale(1.5)" fill="#555">
      <path d="M3,5V19L11,12M13,19H16V5H13M18,5V19H21V5" />
    </g>
    <g id="mdi-play-pause" transform="translate(684 144) scale(1.5)" fill="#fff">
      <path d="M3,5V19L11,12M13,19H16V5H13M18,5V19H21V5" />
    </g>
    <g id="mdi-play-protected-content" transform="translate(0 180) scale(1.5)" fill="#555">
      <path d="M2,5V18H11V16H4V7H17V11H19V5H2M9,9V14L12.5,11.5L9,9M21.04,11.67L16.09,16.62L13.96,14.5L12.55,15.91L16.09,19.45L22.45,13.09L21.04,11.67Z" />
    </g>
    <g id="mdi-play-protected-content" transform="translate(36 180) scale(1.5)" fill="#fff">
      <path d="M2,5V18H11V16H4V7H17V11H19V5H2M9,9V14L12.5,11.5L9,9M21.04,11.67L16.09,16.62L13.96,14.5L12.55,15.91L16.09,19.45L22.45,13.09L21.04,11.67Z" />
    </g>
    <g id="mdi-play-speed" transform="translate(72 180) scale(1.5)" fill="#555">
      <path d="M13,2.05V4.05C17.39,4.59 20.5,8.58 19.96,12.97C19.5,16.61 16.64,19.5 13,19.93V21.93C18.5,21.38 22.5,16.5 21.95,11C21.5,6.25 17.73,2.5 13,2.03V2.05M5.67,19.74C7.18,21 9.04,21.79 11,22V20C9.58,19.82 8.23,19.25 7.1,18.37L5.67,19.74M7.1,5.74C8.22,4.84 9.57,4.26 11,4.06V2.06C9.05,2.25 7.19,3 5.67,4.26L7.1,5.74M5.69,7.1L4.26,5.67C3,7.19 2.25,9.04 2.05,11H4.05C4.24,9.58 4.8,8.23 5.69,7.1M4.06,13H2.06C2.26,14.96 3.03,16.81 4.27,18.33L5.69,16.9C4.81,15.77 4.24,14.42 4.06,13M10,16.5L16,12L10,7.5V16.5Z" />
    </g>
    <g id="mdi-play-speed" transform="translate(108 180) scale(1.5)" fill="#fff">
      <path d="M13,2.05V4.05C17.39,4.59 20.5,8.58 19.96,12.97C19.5,16.61 16.64,19.5 13,19.93V21.93C18.5,21.38 22.5,16.5 21.95,11C21.5,6.25 17.73,2.5 13,2.03V2.05M5.67,19.74C7.18,21 9.04,21.79 11,22V20C9.58,19.82 8.23,19.25 7.1,18.37L5.67,19.74M7.1,5.74C8.22,4.84 9.57,4.26 11,4.06V2.06C9.05,2.25 7.19,3 5.67,4.26L7.1,5.74M5.69,7.1L4.26,5.67C3,7.19 2.25,9.04 2.05,11H4.05C4.24,9.58 4.8,8.23 5.69,7.1M4.06,13H2.06C2.26,14.96 3.03,16.81 4.27,18.33L5.69,16.9C4.81,15.77 4.24,14.42 4.06,13M10,16.5L16,12L10,7.5V16.5Z" />
    </g>
    <g id="mdi-playlist-check" transform="translate(144 180) scale(1.5)" fill="#555">
      <path d="M14,10H2V12H14V10M14,6H2V8H14V6M2,16H10V14H2V16M21.5,11.5L23,13L16,20L11.5,15.5L13,14L16,17L21.5,11.5Z" />
    </g>
    <g id="mdi-playlist-check" transform="translate(180 180) scale(1.5)" fill="#fff">
      <path d="M14,10H2V12H14V10M14,6H2V8H14V6M2,16H10V14H2V16M21.5,11.5L23,13L16,20L11.5,15.5L13,14L16,17L21.5,11.5Z" />
    </g>
    <g id="mdi-playlist-edit" transform="translate(216 180) scale(1.5)" fill="#555">
      <path d="M2,6V8H14V6H2M2,10V12H14V10H2M20.04,10.13C19.9,10.13 19.76,10.19 19.65,10.3L18.65,11.3L20.7,13.35L21.7,12.35C21.92,12.14 21.92,11.79 21.7,11.58L20.42,10.3C20.31,10.19 20.18,10.13 20.04,10.13M18.07,11.88L12,17.94V20H14.06L20.12,13.93L18.07,11.88M2,14V16H10V14H2Z" />
    </g>
    <g id="mdi-playlist-edit" transform="translate(252 180) scale(1.5)" fill="#fff">
      <path d="M2,6V8H14V6H2M2,10V12H14V10H2M20.04,10.13C19.9,10.13 19.76,10.19 19.65,10.3L18.65,11.3L20.7,13.35L21.7,12.35C21.92,12.14 21.92,11.79 21.7,11.58L20.42,10.3C20.31,10.19 20.18,10.13 20.04,10.13M18.07,11.88L12,17.94V20H14.06L20.12,13.93L18.07,11.88M2,14V16H10V14H2Z" />
    </g>
    <g id="mdi-playlist-minus" transform="translate(288 180) scale(1.5)" fill="#555">
      <path d="M2,16H10V14H2M12,14V16H22V14M14,6H2V8H14M14,10H2V12H14V10Z" />
    </g>
    <g id="mdi-playlist-minus" transform="translate(324 180) scale(1.5)" fill="#fff">
      <path d="M2,16H10V14H2M12,14V16H22V14M14,6H2V8H14M14,10H2V12H14V10Z" />
    </g>
    <g id="mdi-playlist-music" transform="translate(360 180) scale(1.5)" fill="#555">
      <path d="M15,6H3V8H15V6M15,10H3V12H15V10M3,16H11V14H3V16M17,6V14.18C16.69,14.07 16.35,14 16,14A3,3 0 0,0 13,17A3,3 0 0,0 16,20A3,3 0 0,0 19,17V8H22V6H17Z" />
    </g>
    <g id="mdi-playlist-music" transform="translate(396 180) scale(1.5)" fill="#fff">
      <path d="M15,6H3V8H15V6M15,10H3V12H15V10M3,16H11V14H3V16M17,6V14.18C16.69,14.07 16.35,14 16,14A3,3 0 0,0 13,17A3,3 0 0,0 16,20A3,3 0 0,0 19,17V8H22V6H17Z" />
    </g>
    <g id="mdi-playlist-music-outline" transform="translate(432 180) scale(1.5)" fill="#555">
      <path d="M15,6V8H3V6H15M15,10V12H3V10H15M3,16V14H11V16H3M17,6H22V8H19V17A3,3 0 0,1 16,20A3,3 0 0,1 13,17A3,3 0 0,1 16,14C16.35,14 16.69,14.07 17,14.18V6M16,16A1,1 0 0,0 15,17A1,1 0 0,0 16,18A1,1 0 0,0 17,17A1,1 0 0,0 16,16Z" />
    </g>
    <g id="mdi-playlist-music-outline" transform="translate(468 180) scale(1.5)" fill="#fff">
      <path d="M15,6V8H3V6H15M15,10V12H3V10H15M3,16V14H11V16H3M17,6H22V8H19V17A3,3 0 0,1 16,20A3,3 0 0,1 13,17A3,3 0 0,1 16,14C16.35,14 16.69,14.07 17,14.18V6M16,16A1,1 0 0,0 15,17A1,1 0 0,0 16,18A1,1 0 0,0 17,17A1,1 0 0,0 16,16Z" />
    </g>
    <g id="mdi-playlist-play" transform="translate(504 180) scale(1.5)" fill="#555">
      <path d="M19,9H2V11H19V9M19,5H2V7H19V5M2,15H15V13H2V15M17,13V19L22,16L17,13Z" />
    </g>
    <g id="mdi-playlist-play" transform="translate(540 180) scale(1.5)" fill="#fff">
      <path d="M19,9H2V11H19V9M19,5H2V7H19V5M2,15H15V13H2V15M17,13V19L22,16L17,13Z" />
    </g>
    <g id="mdi-playlist-plus" transform="translate(576 180) scale(1.5)" fill="#555">
      <path d="M2,16H10V14H2M18,14V10H16V14H12V16H16V20H18V16H22V14M14,6H2V8H14M14,10H2V12H14V10Z" />
    </g>
    <g id="mdi-playlist-plus" transform="translate(612 180) scale(1.5)" fill="#fff">
      <path d="M2,16H10V14H2M18,14V10H16V14H12V16H16V20H18V16H22V14M14,6H2V8H14M14,10H2V12H14V10Z" />
    </g>
    <g id="mdi-playlist-remove" transform="translate(648 180) scale(1.5)" fill="#555">
      <path d="M2,6V8H14V6H2M2,10V12H11V10H2M14.17,10.76L12.76,12.17L15.59,15L12.76,17.83L14.17,19.24L17,16.41L19.83,19.24L21.24,17.83L18.41,15L21.24,12.17L19.83,10.76L17,13.59L14.17,10.76M2,14V16H11V14H2Z" />
    </g>
    <g id="mdi-playlist-remove" transform="translate(684 180) scale(1.5)" fill="#fff">
      <path d="M2,6V8H14V6H2M2,10V12H11V10H2M14.17,10.76L12.76,12.17L15.59,15L12.76,17.83L14.17,19.24L17,16.41L19.83,19.24L21.24,17.83L18.41,15L21.24,12.17L19.83,10.76L17,13.59L14.17,10.76M2,14V16H11V14H2Z" />
    </g>
    <g id="mdi-playlist-star" transform="translate(0 216) scale(1.5)" fill="#555">
      <path d="M17,19.09L19.45,20.58L18.8,17.77L21,15.89L18.11,15.64L17,13L15.87,15.64L13,15.89L15.18,17.77L14.5,20.58L17,19.09M4,14H12V16H4V14M4,6H16V8H4V6M4,10H16V12H4V10Z" />
    </g>
    <g id="mdi-playlist-star" transform="translate(36 216) scale(1.5)" fill="#fff">
      <path d="M17,19.09L19.45,20.58L18.8,17.77L21,15.89L18.11,15.64L17,13L15.87,15.64L13,15.89L15.18,17.77L14.5,20.58L17,19.09M4,14H12V16H4V14M4,6H16V8H4V6M4,10H16V12H4V10Z" />
    </g>
    <g id="mdi-plex" transform="translate(72 216) scale(1.5)" fill="#555">
      <path d="M4,2C2.89,2 2,2.89 2,4V20C2,21.11 2.89,22 4,22H20C21.11,22 22,21.11 22,20V4C22,2.89 21.11,2 20,2H4M8.56,6H12.06L15.5,12L12.06,18H8.56L12,12L8.56,6Z" />
    </g>
    <g id="mdi-plex" transform="translate(108 216) scale(1.5)" fill="#fff">
      <path d="M4,2C2.89,2 2,2.89 2,4V20C2,21.11 2.89,22 4,22H20C21.11,22 22,21.11 22,20V4C22,2.89 21.11,2 20,2H4M8.56,6H12.06L15.5,12L12.06,18H8.56L12,12L8.56,6Z" />
    </g>
    <g id="mdi-plus" transform="translate(144 216) scale(1.5)" fill="#555">
      <path d="M19,13H13V19H11V13H5V11H11V5H13V11H19V13Z" />
    </g>
    <g id="mdi-plus" transform="translate(180 216) scale(1.5)" fill="#fff">
      <path d="M19,13H13V19H11V13H5V11H11V5H13V11H19V13Z" />
    </g>
    <g id="mdi-plus-box" transform="translate(216 216) scale(1.5)" fill="#555">
      <path d="M17,13H13V17H11V13H7V11H11V7H13V11H17M19,3H5C3.89,3 3,3.89 3,5V19A2,2 0 0,0 5,21H19A2,2 0 0,0 21,19V5C21,3.89 20.1,3 19,3Z" />
    </g>
    <g id="mdi-plus-box" transform="translate(252 216) scale(1.5)" fill="#fff">
      <path d="M17,13H13V17H11V13H7V11H11V7H13V11H17M19,3H5C3.89,3 3,3.89 3,5V19A2,2 0 0,0 5,21H19A2,2 0 0,0 21,19V5C21,3.89 20.1,3 19,3Z" />
    </g>
    <g id="mdi-plus-box-multiple" transform="translate(288 216) scale(1.5)" fill="#555">
      <path d="M19,11H15V15H13V11H9V9H13V5H15V9H19M20,2H8A2,2 0 0,0 6,4V16A2,2 0 0,0 8,18H20A2,2 0 0,0 22,16V4A2,2 0 0,0 20,2M4,6H2V20A2,2 0 0,0 4,22H18V20H4V6Z" />
    </g>
    <g id="mdi-plus-box-multiple" transform="translate(324 216) scale(1.5)" fill="#fff">
      <path d="M19,11H15V15H13V11H9V9H13V5H15V9H19M20,2H8A2,2 0 0,0 6,4V16A2,2 0 0,0 8,18H20A2,2 0 0,0 22,16V4A2,2 0 0,0 20,2M4,6H2V20A2,2 0 0,0 4,22H18V20H4V6Z" />
    </g>
    <g id="mdi-plus-box-multiple-outline" transform="translate(360 216) scale(1.5)" fill="#555">
      <path d="M18 11H15V14H13V11H10V9H13V6H15V9H18M20 4V16H8V4H20M20 2H8C6.9 2 6 2.9 6 4V16C6 17.11 6.9 18 8 18H20C21.11 18 22 17.11 22 16V4C22 2.9 21.11 2 20 2M4 6H2V20C2 21.11 2.9 22 4 22H18V20H4V6Z" />
    </g>
    <g id="mdi-plus-box-multiple-outline" transform="translate(396 216) scale(1.5)" fill="#fff">
      <path d="M18 11H15V14H13V11H10V9H13V6H15V9H18M20 4V16H8V4H20M20 2H8C6.9 2 6 2.9 6 4V16C6 17.11 6.9 18 8 18H20C21.11 18 22 17.11 22 16V4C22 2.9 21.11 2 20 2M4 6H2V20C2 21.11 2.9 22 4 22H18V20H4V6Z" />
    </g>
    <g id="mdi-plus-box-outline" transform="translate(432 216) scale(1.5)" fill="#555">
      <path d="M19,19V5H5V19H19M19,3A2,2 0 0,1 21,5V19A2,2 0 0,1 19,21H5A2,2 0 0,1 3,19V5C3,3.89 3.9,3 5,3H19M11,7H13V11H17V13H13V17H11V13H7V11H11V7Z" />
    </g>
    <g id="mdi-plus-box-outline" transform="translate(468 216) scale(1.5)" fill="#fff">
      <path d="M19,19V5H5V19H19M19,3A2,2 0 0,1 21,5V19A2,2 0 0,1 19,21H5A2,2 0 0,1 3,19V5C3,3.89 3.9,3 5,3H19M11,7H13V11H17V13H13V17H11V13H7V11H11V7Z" />
    </g>
    <g id="mdi-plus-circle" transform="translate(504 216) scale(1.5)" fill="#555">
      <path d="M17,13H13V17H11V13H7V11H11V7H13V11H17M12,2A10,10 0 0,0 2,12A10,10 0 0,0 12,22A10,10 0 0,0 22,12A10,10 0 0,0 12,2Z" />
    </g>
    <g id="mdi-plus-circle" transform="translate(540 216) scale(1.5)" fill="#fff">
      <path d="M17,13H13V17H11V13H7V11H11V7H13V11H17M12,2A10,10 0 0,0 2,12A10,10 0 0,0 12,22A10,10 0 0,0 22,12A10,10 0 0,0 12,2Z" />
    </g>
    <g id="mdi-plus-circle-multiple" transform="translate(576 216) scale(1.5)" fill="#555">
      <path d="M2 12C2 9.2 3.6 6.8 6 5.7V3.5C2.5 4.8 0 8.1 0 12S2.5 19.2 6 20.5V18.3C3.6 17.2 2 14.8 2 12M15 3C10 3 6 7 6 12S10 21 15 21 24 17 24 12 20 3 15 3M20 13H16V17H14V13H10V11H14V7H16V11H20V13Z" />
    </g>
    <g id="mdi-plus-circle-multiple" transform="translate(612 216) scale(1.5)" fill="#fff">
      <path d="M2 12C2 9.2 3.6 6.8 6 5.7V3.5C2.5 4.8 0 8.1 0 12S2.5 19.2 6 20.5V18.3C3.6 17.2 2 14.8 2 12M15 3C10 3 6 7 6 12S10 21 15 21 24 17 24 12 20 3 15 3M20 13H16V17H14V13H10V11H14V7H16V11H20V13Z" />
    </g>
    <g id="mdi-plus-circle-multiple-outline" transform="translate(648 216) scale(1.5)" fill="#555">
      <path d="M16,8H14V11H11V13H14V16H16V13H19V11H16M2,12C2,9.21 3.64,6.8 6,5.68V3.5C2.5,4.76 0,8.09 0,12C0,15.91 2.5,19.24 6,20.5V18.32C3.64,17.2 2,14.79 2,12M15,3C10.04,3 6,7.04 6,12C6,16.96 10.04,21 15,21C19.96,21 24,16.96 24,12C24,7.04 19.96,3 15,3M15,19C11.14,19 8,15.86 8,12C8,8.14 11.14,5 15,5C18.86,5 22,8.14 22,12C22,15.86 18.86,19 15,19Z" />
    </g>
    <g id="mdi-plus-circle-multiple-outline" transform="translate(684 216) scale(1.5)" fill="#fff">
      <path d="M16,8H14V11H11V13H14V16H16V13H19V11H16M2,12C2,9.21 3.64,6.8 6,5.68V3.5C2.5,4.76 0,8.09 0,12C0,15.91 2.5,19.24 6,20.5V18.32C3.64,17.2 2,14.79 2,12M15,3C10.04,3 6,7.04 6,12C6,16.96 10.04,21 15,21C19.96,21 24,16.96 24,12C24,7.04 19.96,3 15,3M15,19C11.14,19 8,15.86 8,12C8,8.14 11.14,5 15,5C18.86,5 22,8.14 22,12C22,15.86 18.86,19 15,19Z" />
    </g>
    <g id="mdi-plus-circle-outline" transform="translate(0 252) scale(1.5)" fill="#555">
      <path d="M12,20C7.59,20 4,16.41 4,12C4,7.59 7.59,4 12,4C16.41,4 20,7.59 20,12C20,16.41 16.41,20 12,20M12,2A10,10 0 0,0 2,12A10,10 0 0,0 12,22A10,10 0 0,0 22,12A10,10 0 0,0 12,2M13,7H11V11H7V13H11V17H13V13H17V11H13V7Z" />
    </g>
    <g id="mdi-plus-circle-outline" transform="translate(36 252) scale(1.5)" fill="#fff">
      <path d="M12,20C7.59,20 4,16.41 4,12C4,7.59 7.59,4 12,4C16.41,4 20,7.59 20,12C20,16.41 16.41,20 12,20M12,2A10,10 0 0,0 2,12A10,10 0 0,0 12,22A10,10 0 0,0 22,12A10,10 0 0,0 12,2M13,7H11V11H7V13H11V17H13V13H17V11H13V7Z" />
    </g>
    <g id="mdi-plus-minus" transform="translate(72 252) scale(1.5)" fill="#555">
      <path d="M11,4V9H6V11H11V16H13V11H18V9H13V4H11M6,18V20H18V18H6Z" />
    </g>
    <g id="mdi-plus-minus" transform="translate(108 252) scale(1.5)" fill="#fff">
      <path d="M11,4V9H6V11H11V16H13V11H18V9H13V4H11M6,18V20H18V18H6Z" />
    </g>
    <g id="mdi-plus-minus-box" transform="translate(144 252) scale(1.5)" fill="#555">
      <path d="M5,3C3.89,3 3,3.89 3,5V19A2,2 0 0,0 5,21H19A2,2 0 0,0 21,19V5A2,2 0 0,0 19,3H5M11,6H13V9H16V11H13V14H11V11H8V9H11V6M8,16H16V18H8V16Z" />
    </g>
    <g id="mdi-plus-minus-box" transform="translate(180 252) scale(1.5)" fill="#fff">
      <path d="M5,3C3.89,3 3,3.89 3,5V19A2,2 0 0,0 5,21H19A2,2 0 0,0 21,19V5A2,2 0 0,0 19,3H5M11,6H13V9H16V11H13V14H11V11H8V9H11V6M8,16H16V18H8V16Z" />
    </g>
    <g id="mdi-plus-network" transform="translate(216 252) scale(1.5)" fill="#555">
      <path d="M16,11V9H13V6H11V9H8V11H11V14H13V11H16M17,3A2,2 0 0,1 19,5V15A2,2 0 0,1 17,17H13V19H14A1,1 0 0,1 15,20H22V22H15A1,1 0 0,1 14,23H10A1,1 0 0,1 9,22H2V20H9A1,1 0 0,1 10,19H11V17H7C5.89,17 5,16.1 5,15V5A2,2 0 0,1 7,3H17Z" />
    </g>
    <g id="mdi-plus-network" transform="translate(252 252) scale(1.5)" fill="#fff">
      <path d="M16,11V9H13V6H11V9H8V11H11V14H13V11H16M17,3A2,2 0 0,1 19,5V15A2,2 0 0,1 17,17H13V19H14A1,1 0 0,1 15,20H22V22H15A1,1 0 0,1 14,23H10A1,1 0 0,1 9,22H2V20H9A1,1 0 0,1 10,19H11V17H7C5.89,17 5,16.1 5,15V5A2,2 0 0,1 7,3H17Z" />
    </g>
    <g id="mdi-plus-network-outline" transform="translate(288 252) scale(1.5)" fill="#555">
      <path d="M15,20A1,1 0 0,0 14,19H13V17H17A2,2 0 0,0 19,15V5A2,2 0 0,0 17,3H7A2,2 0 0,0 5,5V15A2,2 0 0,0 7,17H11V19H10A1,1 0 0,0 9,20H2V22H9A1,1 0 0,0 10,23H14A1,1 0 0,0 15,22H22V20H15M7,15V5H17V15H7M15,11H13V13H11V11H9V9H11V7H13V9H15V11Z" />
    </g>
    <g id="mdi-plus-network-outline" transform="translate(324 252) scale(1.5)" fill="#fff">
      <path d="M15,20A1,1 0 0,0 14,19H13V17H17A2,2 0 0,0 19,15V5A2,2 0 0,0 17,3H7A2,2 0 0,0 5,5V15A2,2 0 0,0 7,17H11V19H10A1,1 0 0,0 9,20H2V22H9A1,1 0 0,0 10,23H14A1,1 0 0,0 15,22H22V20H15M7,15V5H17V15H7M15,11H13V13H11V11H9V9H11V7H13V9H15V11Z" />
    </g>
    <g id="mdi-plus-one" transform="translate(360 252) scale(1.5)" fill="#555">
      <path d="M10,8V12H14V14H10V18H8V14H4V12H8V8H10M14.5,6.08L19,5V18H17V7.4L14.5,7.9V6.08Z" />
    </g>
    <g id="mdi-plus-one" transform="translate(396 252) scale(1.5)" fill="#fff">
      <path d="M10,8V12H14V14H10V18H8V14H4V12H8V8H10M14.5,6.08L19,5V18H17V7.4L14.5,7.9V6.08Z" />
    </g>
    <g id="mdi-plus-outline" transform="translate(432 252) scale(1.5)" fill="#555">
      <path d="M4,9H9V4H15V9H20V15H15V20H9V15H4V9M11,13V18H13V13H18V11H13V6H11V11H6V13H11Z" />
    </g>
    <g id="mdi-plus-outline" transform="translate(468 252) scale(1.5)" fill="#fff">
      <path d="M4,9H9V4H15V9H20V15H15V20H9V15H4V9M11,13V18H13V13H18V11H13V6H11V11H6V13H11Z" />
    </g>
    <g id="mdi-plus-thick" transform="translate(504 252) scale(1.5)" fill="#555">
      <path d="M20 14H14V20H10V14H4V10H10V4H14V10H20V14Z" />
    </g>
    <g id="mdi-plus-thick" transform="translate(540 252) scale(1.5)" fill="#fff">
      <path d="M20 14H14V20H10V14H4V10H10V4H14V10H20V14Z" />
    </g>
    <g id="mdi-podcast" transform="translate(576 252) scale(1.5)" fill="#555">
      <path d="M17,18.25V21.5H7V18.25C7,16.87 9.24,15.75 12,15.75C14.76,15.75 17,16.87 17,18.25M12,5.5A6.5,6.5 0 0,1 18.5,12C18.5,13.25 18.15,14.42 17.54,15.41L16,14.04C16.32,13.43 16.5,12.73 16.5,12C16.5,9.5 14.5,7.5 12,7.5C9.5,7.5 7.5,9.5 7.5,12C7.5,12.73 7.68,13.43 8,14.04L6.46,15.41C5.85,14.42 5.5,13.25 5.5,12A6.5,6.5 0 0,1 12,5.5M12,1.5A10.5,10.5 0 0,1 22.5,12C22.5,14.28 21.77,16.39 20.54,18.11L19.04,16.76C19.96,15.4 20.5,13.76 20.5,12A8.5,8.5 0 0,0 12,3.5A8.5,8.5 0 0,0 3.5,12C3.5,13.76 4.04,15.4 4.96,16.76L3.46,18.11C2.23,16.39 1.5,14.28 1.5,12A10.5,10.5 0 0,1 12,1.5M12,9.5A2.5,2.5 0 0,1 14.5,12A2.5,2.5 0 0,1 12,14.5A2.5,2.5 0 0,1 9.5,12A2.5,2.5 0 0,1 12,9.5Z" />
    </g>
    <g id="mdi-podcast" transform="translate(612 252) scale(1.5)" fill="#fff">
      <path d="M17,18.25V21.5H7V18.25C7,16.87 9.24,15.75 12,15.75C14.76,15.75 17,16.87 17,18.25M12,5.5A6.5,6.5 0 0,1 18.5,12C18.5,13.25 18.15,14.42 17.54,15.41L16,14.04C16.32,13.43 16.5,12.73 16.5,12C16.5,9.5 14.5,7.5 12,7.5C9.5,7.5 7.5,9.5 7.5,12C7.5,12.73 7.68,13.43 8,14.04L6.46,15.41C5.85,14.42 5.5,13.25 5.5,12A6.5,6.5 0 0,1 12,5.5M12,1.5A10.5,10.5 0 0,1 22.5,12C22.5,14.28 21.77,16.39 20.54,18.11L19.04,16.76C19.96,15.4 20.5,13.76 20.5,12A8.5,8.5 0 0,0 12,3.5A8.5,8.5 0 0,0 3.5,12C3.5,13.76 4.04,15.4 4.96,16.76L3.46,18.11C2.23,16.39 1.5,14.28 1.5,12A10.5,10.5 0 0,1 12,1.5M12,9.5A2.5,2.5 0 0,1 14.5,12A2.5,2.5 0 0,1 12,14.5A2.5,2.5 0 0,1 9.5,12A2.5,2.5 0 0,1 12,9.5Z" />
    </g>
    <g id="mdi-podium" transform="translate(648 252) scale(1.5)" fill="#555">
      <path d="M12,7.09L14.45,8.58L13.8,5.77L16,3.89L13.11,3.64L12,1L10.87,3.64L8,3.89L10.18,5.77L9.5,8.58L12,7.09M4,13.09L6.45,14.58L5.8,11.77L8,9.89L5.11,9.64L4,7L2.87,9.64L0,9.89L2.18,11.77L1.5,14.58L4,13.09M20,10.09L22.45,11.58L21.8,8.77L24,6.89L21.11,6.64L20,4L18.87,6.64L16,6.89L18.18,8.77L17.5,11.58L20,10.09M15,23H9V10H15V23M7,23H1V17H7V23M23,23H17V13H23V23Z" />
    </g>
    <g id="mdi-podium" transform="translate(684 252) scale(1.5)" fill="#fff">
      <path d="M12,7.09L14.45,8.58L13.8,5.77L16,3.89L13.11,3.64L12,1L10.87,3.64L8,3.89L10.18,5.77L9.5,8.58L12,7.09M4,13.09L6.45,14.58L5.8,11.77L8,9.89L5.11,9.64L4,7L2.87,9.64L0,9.89L2.18,11.77L1.5,14.58L4,13.09M20,10.09L22.45,11.58L21.8,8.77L24,6.89L21.11,6.64L20,4L18.87,6.64L16,6.89L18.18,8.77L17.5,11.58L20,10.09M15,23H9V10H15V23M7,23H1V17H7V23M23,23H17V13H23V23Z" />
    </g>
    <g id="mdi-podium-bronze" transform="translate(0 288) scale(1.5)" fill="#555">
      <path d="M4,13.09L6.45,14.58L5.8,11.77L8,9.89L5.11,9.64L4,7L2.87,9.64L0,9.89L2.18,11.77L1.5,14.58L4,13.09M7,23H1V17H7V23M9,10V23H15V10H9M13,21H11V12H13V21M17,13V23H23V13H17M21,21H19V15H21V21Z" />
    </g>
    <g id="mdi-podium-bronze" transform="translate(36 288) scale(1.5)" fill="#fff">
      <path d="M4,13.09L6.45,14.58L5.8,11.77L8,9.89L5.11,9.64L4,7L2.87,9.64L0,9.89L2.18,11.77L1.5,14.58L4,13.09M7,23H1V17H7V23M9,10V23H15V10H9M13,21H11V12H13V21M17,13V23H23V13H17M21,21H19V15H21V21Z" />
    </g>
    <g id="mdi-podium-gold" transform="translate(72 288) scale(1.5)" fill="#555">
      <path d="M12,7.09L14.45,8.58L13.8,5.77L16,3.89L13.11,3.64L12,1L10.87,3.64L8,3.89L10.18,5.77L9.5,8.58L12,7.09M15,23H9V10H15V23M1,17V23H7V17H1M5,21H3V19H5V21M17,13V23H23V13H17M21,21H19V15H21V21Z" />
    </g>
    <g id="mdi-podium-gold" transform="translate(108 288) scale(1.5)" fill="#fff">
      <path d="M12,7.09L14.45,8.58L13.8,5.77L16,3.89L13.11,3.64L12,1L10.87,3.64L8,3.89L10.18,5.77L9.5,8.58L12,7.09M15,23H9V10H15V23M1,17V23H7V17H1M5,21H3V19H5V21M17,13V23H23V13H17M21,21H19V15H21V21Z" />
    </g>
    <g id="mdi-podium-silver" transform="translate(144 288) scale(1.5)" fill="#555">
      <path d="M20,10.09L22.45,11.58L21.8,8.77L24,6.89L21.11,6.64L20,4L18.87,6.64L16,6.89L18.18,8.77L17.5,11.58L20,10.09M23,23H17V13H23V23M1,17V23H7V17H1M5,21H3V19H5V21M9,10V23H15V10H9M13,21H11V12H13V21Z" />
    </g>
    <g id="mdi-podium-silver" transform="translate(180 288) scale(1.5)" fill="#fff">
      <path d="M20,10.09L22.45,11.58L21.8,8.77L24,6.89L21.11,6.64L20,4L18.87,6.64L16,6.89L18.18,8.77L17.5,11.58L20,10.09M23,23H17V13H23V23M1,17V23H7V17H1M5,21H3V19H5V21M9,10V23H15V10H9M13,21H11V12H13V21Z" />
    </g>
    <g id="mdi-point-of-sale" transform="translate(216 288) scale(1.5)" fill="#555">
      <path d="M20,5C19.4,5 19,5.5 19,6.1V16C19,16.6 19.4,17 20,17.1C20.6,17.1 21,16.6 21,16V6.1C21,5.5 20.6,5 20,5M16.4,2H4.6C3.7,2 3,2.7 3,3.6V17.4C3,18.3 3.7,19 4.6,19H6V21C6,21.6 6.4,22 7,22H13C13.6,22 14,21.6 14,21V19H16.4C17.3,19 18,18.3 18,17.4V3.6C18,2.7 17.3,2 16.4,2M5,8H8V10H5V8M12,11V13H9V11H12M9,10V8H12V10H9M12,14V16H9V14H12M5,11H8V13H5V11M5,16V14H8V16H5M8,21H7V19H8V21M13,21H10V19H13V21M16,16H13V14H16V16M16,13H13V11H16V13M16,10H13V8H16V10M16,6H5V4H16V6Z" />
    </g>
    <g id="mdi-point-of-sale" transform="translate(252 288) scale(1.5)" fill="#fff">
      <path d="M20,5C19.4,5 19,5.5 19,6.1V16C19,16.6 19.4,17 20,17.1C20.6,17.1 21,16.6 21,16V6.1C21,5.5 20.6,5 20,5M16.4,2H4.6C3.7,2 3,2.7 3,3.6V17.4C3,18.3 3.7,19 4.6,19H6V21C6,21.6 6.4,22 7,22H13C13.6,22 14,21.6 14,21V19H16.4C17.3,19 18,18.3 18,17.4V3.6C18,2.7 17.3,2 16.4,2M5,8H8V10H5V8M12,11V13H9V11H12M9,10V8H12V10H9M12,14V16H9V14H12M5,11H8V13H5V11M5,16V14H8V16H5M8,21H7V19H8V21M13,21H10V19H13V21M16,16H13V14H16V16M16,13H13V11H16V13M16,10H13V8H16V10M16,6H5V4H16V6Z" />
    </g>
    <g id="mdi-pokeball" transform="translate(288 288) scale(1.5)" fill="#555">
      <path d="M12,2A10,10 0 0,1 22,12A10,10 0 0,1 12,22A10,10 0 0,1 2,12A10,10 0 0,1 12,2M12,4C7.92,4 4.55,7.05 4.06,11H8.13C8.57,9.27 10.14,8 12,8C13.86,8 15.43,9.27 15.87,11H19.94C19.45,7.05 16.08,4 12,4M12,20C16.08,20 19.45,16.95 19.94,13H15.87C15.43,14.73 13.86,16 12,16C10.14,16 8.57,14.73 8.13,13H4.06C4.55,16.95 7.92,20 12,20M12,10A2,2 0 0,0 10,12A2,2 0 0,0 12,14A2,2 0 0,0 14,12A2,2 0 0,0 12,10Z" />
    </g>
    <g id="mdi-pokeball" transform="translate(324 288) scale(1.5)" fill="#fff">
      <path d="M12,2A10,10 0 0,1 22,12A10,10 0 0,1 12,22A10,10 0 0,1 2,12A10,10 0 0,1 12,2M12,4C7.92,4 4.55,7.05 4.06,11H8.13C8.57,9.27 10.14,8 12,8C13.86,8 15.43,9.27 15.87,11H19.94C19.45,7.05 16.08,4 12,4M12,20C16.08,20 19.45,16.95 19.94,13H15.87C15.43,14.73 13.86,16 12,16C10.14,16 8.57,14.73 8.13,13H4.06C4.55,16.95 7.92,20 12,20M12,10A2,2 0 0,0 10,12A2,2 0 0,0 12,14A2,2 0 0,0 14,12A2,2 0 0,0 12,10Z" />
    </g>
    <g id="mdi-pokemon-go" transform="translate(360 288) scale(1.5)" fill="#555">
      <path d="M12,2A7,7 0 0,1 19,9C19,10.4 18.59,11.71 17.88,12.8L12,22.21L6.12,12.8C5.41,11.71 5,10.4 5,9A7,7 0 0,1 12,2M12,3.5C9.3,3.5 7.06,5.44 6.59,8H9.17C9.58,6.83 10.69,6 12,6C13.31,6 14.42,6.83 14.83,8H17.41C16.94,5.44 14.7,3.5 12,3.5M12,12C10.69,12 9.58,11.17 9.17,10H6.59C6.72,10.69 6.97,11.34 7.34,11.91V11.91L7.38,12C8.36,13.5 10.06,14.5 12,14.5C13.94,14.5 15.64,13.5 16.62,12L16.66,11.91V11.91C17.03,11.34 17.28,10.69 17.41,10H14.83C14.42,11.17 13.31,12 12,12M12,7.5A1.5,1.5 0 0,0 10.5,9A1.5,1.5 0 0,0 12,10.5A1.5,1.5 0 0,0 13.5,9A1.5,1.5 0 0,0 12,7.5Z" />
    </g>
    <g id="mdi-pokemon-go" transform="translate(396 288) scale(1.5)" fill="#fff">
      <path d="M12,2A7,7 0 0,1 19,9C19,10.4 18.59,11.71 17.88,12.8L12,22.21L6.12,12.8C5.41,11.71 5,10.4 5,9A7,7 0 0,1 12,2M12,3.5C9.3,3.5 7.06,5.44 6.59,8H9.17C9.58,6.83 10.69,6 12,6C13.31,6 14.42,6.83 14.83,8H17.41C16.94,5.44 14.7,3.5 12,3.5M12,12C10.69,12 9.58,11.17 9.17,10H6.59C6.72,10.69 6.97,11.34 7.34,11.91V11.91L7.38,12C8.36,13.5 10.06,14.5 12,14.5C13.94,14.5 15.64,13.5 16.62,12L16.66,11.91V11.91C17.03,11.34 17.28,10.69 17.41,10H14.83C14.42,11.17 13.31,12 12,12M12,7.5A1.5,1.5 0 0,0 10.5,9A1.5,1.5 0 0,0 12,10.5A1.5,1.5 0 0,0 13.5,9A1.5,1.5 0 0,0 12,7.5Z" />
    </g>
    <g id="mdi-poker-chip" transform="translate(432 288) scale(1.5)" fill="#555">
      <path d="M23,12C23,18.08 18.08,23 12,23C5.92,23 1,18.08 1,12C1,5.92 5.92,1 12,1C18.08,1 23,5.92 23,12M13,4.06C15.13,4.33 17.07,5.45 18.37,7.16L20.11,6.16C18.45,3.82 15.86,2.3 13,2V4.06M3.89,6.16L5.63,7.16C6.93,5.45 8.87,4.33 11,4.06V2C8.14,2.3 5.55,3.82 3.89,6.16M2.89,16.1L4.62,15.1C3.79,13.12 3.79,10.88 4.62,8.9L2.89,7.9C1.7,10.5 1.7,13.5 2.89,16.1M11,19.94C8.87,19.67 6.93,18.55 5.63,16.84L3.89,17.84C5.55,20.18 8.14,21.7 11,22V19.94M20.11,17.84L18.37,16.84C17.07,18.55 15.13,19.67 13,19.94V21.94C15.85,21.65 18.44,20.16 20.11,17.84M21.11,16.1C22.3,13.5 22.3,10.5 21.11,7.9L19.38,8.9C20.21,10.88 20.21,13.12 19.38,15.1L21.11,16.1M15,12L12,7L9,12L12,17L15,12Z" />
    </g>
    <g id="mdi-poker-chip" transform="translate(468 288) scale(1.5)" fill="#fff">
      <path d="M23,12C23,18.08 18.08,23 12,23C5.92,23 1,18.08 1,12C1,5.92 5.92,1 12,1C18.08,1 23,5.92 23,12M13,4.06C15.13,4.33 17.07,5.45 18.37,7.16L20.11,6.16C18.45,3.82 15.86,2.3 13,2V4.06M3.89,6.16L5.63,7.16C6.93,5.45 8.87,4.33 11,4.06V2C8.14,2.3 5.55,3.82 3.89,6.16M2.89,16.1L4.62,15.1C3.79,13.12 3.79,10.88 4.62,8.9L2.89,7.9C1.7,10.5 1.7,13.5 2.89,16.1M11,19.94C8.87,19.67 6.93,18.55 5.63,16.84L3.89,17.84C5.55,20.18 8.14,21.7 11,22V19.94M20.11,17.84L18.37,16.84C17.07,18.55 15.13,19.67 13,19.94V21.94C15.85,21.65 18.44,20.16 20.11,17.84M21.11,16.1C22.3,13.5 22.3,10.5 21.11,7.9L19.38,8.9C20.21,10.88 20.21,13.12 19.38,15.1L21.11,16.1M15,12L12,7L9,12L12,17L15,12Z" />
    </g>
    <g id="mdi-polaroid" transform="translate(504 288) scale(1.5)" fill="#555">
      <path d="M6,3H18A2,2 0 0,1 20,5V19A2,2 0 0,1 18,21H6A2,2 0 0,1 4,19V5A2,2 0 0,1 6,3M6,5V17H18V5H6Z" />
    </g>
    <g id="mdi-polaroid" transform="translate(540 288) scale(1.5)" fill="#fff">
      <path d="M6,3H18A2,2 0 0,1 20,5V19A2,2 0 0,1 18,21H6A2,2 0 0,1 4,19V5A2,2 0 0,1 6,3M6,5V17H18V5H6Z" />
    </g>
    <g id="mdi-police-badge" transform="translate(576 288) scale(1.5)" fill="#555">
      <path d="M22 4L20 2C18.85 2.64 17.4 3 16 3C14.6 3 13.14 2.63 12 2C10.86 2.63 9.4 3 8 3C6.6 3 5.15 2.64 4 2L2 4C2 4 4 6 4 8S2 14 2 16C2 20 12 22 12 22S22 20 22 16C22 14 20 10 20 8S22 4 22 4M15.05 16.45L11.97 14.59L8.9 16.45L9.72 12.95L7 10.61L10.58 10.3L11.97 7L13.37 10.29L16.95 10.6L14.23 12.94L15.05 16.45Z" />
    </g>
    <g id="mdi-police-badge" transform="translate(612 288) scale(1.5)" fill="#fff">
      <path d="M22 4L20 2C18.85 2.64 17.4 3 16 3C14.6 3 13.14 2.63 12 2C10.86 2.63 9.4 3 8 3C6.6 3 5.15 2.64 4 2L2 4C2 4 4 6 4 8S2 14 2 16C2 20 12 22 12 22S22 20 22 16C22 14 20 10 20 8S22 4 22 4M15.05 16.45L11.97 14.59L8.9 16.45L9.72 12.95L7 10.61L10.58 10.3L11.97 7L13.37 10.29L16.95 10.6L14.23 12.94L15.05 16.45Z" />
    </g>
    <g id="mdi-police-badge-outline" transform="translate(648 288) scale(1.5)" fill="#555">
      <path d="M12 4.21C13.24 4.72 14.65 5 16 5C17.05 5 18.1 4.84 19.08 4.54C18.5 5.5 18 6.71 18 8C18 9.32 18.54 10.93 19.1 12.63C19.5 13.83 20 15.33 20 16C20 17.03 16.47 19 12 19.96C7.54 19 4 17.03 4 16C4 15.33 4.5 13.83 4.9 12.63C5.46 10.93 6 9.32 6 8C6 6.71 5.5 5.5 4.92 4.54C5.9 4.84 6.96 5 8 5C9.35 5 10.76 4.72 12 4.21M20 2C18.85 2.64 17.4 3 16 3C14.6 3 13.14 2.63 12 2C10.86 2.63 9.4 3 8 3C6.6 3 5.15 2.64 4 2L2 4C2 4 4 6 4 8S2 14 2 16C2 20 12 22 12 22S22 20 22 16C22 14 20 10 20 8S22 4 22 4L20 2M15.05 16.45L11.97 14.59L8.9 16.45L9.72 12.95L7 10.61L10.58 10.3L11.97 7L13.37 10.29L16.95 10.6L14.23 12.94L15.05 16.45" />
    </g>
    <g id="mdi-police-badge-outline" transform="translate(684 288) scale(1.5)" fill="#fff">
      <path d="M12 4.21C13.24 4.72 14.65 5 16 5C17.05 5 18.1 4.84 19.08 4.54C18.5 5.5 18 6.71 18 8C18 9.32 18.54 10.93 19.1 12.63C19.5 13.83 20 15.33 20 16C20 17.03 16.47 19 12 19.96C7.54 19 4 17.03 4 16C4 15.33 4.5 13.83 4.9 12.63C5.46 10.93 6 9.32 6 8C6 6.71 5.5 5.5 4.92 4.54C5.9 4.84 6.96 5 8 5C9.35 5 10.76 4.72 12 4.21M20 2C18.85 2.64 17.4 3 16 3C14.6 3 13.14 2.63 12 2C10.86 2.63 9.4 3 8 3C6.6 3 5.15 2.64 4 2L2 4C2 4 4 6 4 8S2 14 2 16C2 20 12 22 12 22S22 20 22 16C22 14 20 10 20 8S22 4 22 4L20 2M15.05 16.45L11.97 14.59L8.9 16.45L9.72 12.95L7 10.61L10.58 10.3L11.97 7L13.37 10.29L16.95 10.6L14.23 12.94L15.05 16.45" />
    </g>
    <g id="mdi-poll" transform="translate(0 324) scale(1.5)" fill="#555">
      <path d="M3,22V8H7V22H3M10,22V2H14V22H10M17,22V14H21V22H17Z" />
    </g>
    <g id="mdi-poll" transform="translate(36 324) scale(1.5)" fill="#fff">
      <path d="M3,22V8H7V22H3M10,22V2H14V22H10M17,22V14H21V22H17Z" />
    </g>
    <g id="mdi-poll-box" transform="translate(72 324) scale(1.5)" fill="#555">
      <path d="M17,17H15V13H17M13,17H11V7H13M9,17H7V10H9M19,3H5C3.89,3 3,3.89 3,5V19A2,2 0 0,0 5,21H19A2,2 0 0,0 21,19V5C21,3.89 20.1,3 19,3Z" />
    </g>
    <g id="mdi-poll-box" transform="translate(108 324) scale(1.5)" fill="#fff">
      <path d="M17,17H15V13H17M13,17H11V7H13M9,17H7V10H9M19,3H5C3.89,3 3,3.89 3,5V19A2,2 0 0,0 5,21H19A2,2 0 0,0 21,19V5C21,3.89 20.1,3 19,3Z" />
    </g>
    <g id="mdi-poll-box-outline" transform="translate(144 324) scale(1.5)" fill="#555">
      <path d="M9 17H7V10H9M13 17H11V7H13M17 17H15V13H17M19.5 19.1H4.5V5H19.5M19.5 3H4.5C3.4 3 2.5 3.9 2.5 5V19C2.5 20.1 3.4 21 4.5 21H19.5C20.6 21 21.5 20.1 21.5 19V5C21.5 3.9 20.6 3 19.5 3Z" />
    </g>
    <g id="mdi-poll-box-outline" transform="translate(180 324) scale(1.5)" fill="#fff">
      <path d="M9 17H7V10H9M13 17H11V7H13M17 17H15V13H17M19.5 19.1H4.5V5H19.5M19.5 3H4.5C3.4 3 2.5 3.9 2.5 5V19C2.5 20.1 3.4 21 4.5 21H19.5C20.6 21 21.5 20.1 21.5 19V5C21.5 3.9 20.6 3 19.5 3Z" />
    </g>
    <g id="mdi-polymer" transform="translate(216 324) scale(1.5)" fill="#555">
      <path d="M19,4H15L7.1,16.63L4.5,12L9,4H5L0.5,12L5,20H9L16.89,7.37L19.5,12L15,20H19L23.5,12L19,4Z" />
    </g>
    <g id="mdi-polymer" transform="translate(252 324) scale(1.5)" fill="#fff">
      <path d="M19,4H15L7.1,16.63L4.5,12L9,4H5L0.5,12L5,20H9L16.89,7.37L19.5,12L15,20H19L23.5,12L19,4Z" />
    </g>
    <g id="mdi-pool" transform="translate(288 324) scale(1.5)" fill="#555">
      <path d="M2,15C3.67,14.25 5.33,13.5 7,13.17V5A3,3 0 0,1 10,2C11.31,2 12.42,2.83 12.83,4H10A1,1 0 0,0 9,5V6H14V5A3,3 0 0,1 17,2C18.31,2 19.42,2.83 19.83,4H17A1,1 0 0,0 16,5V14.94C18,14.62 20,13 22,13V15C19.78,15 17.56,17 15.33,17C13.11,17 10.89,15 8.67,15C6.44,15 4.22,16 2,17V15M14,8H9V10H14V8M14,12H9V13C10.67,13.16 12.33,14.31 14,14.79V12M2,19C4.22,18 6.44,17 8.67,17C10.89,17 13.11,19 15.33,19C17.56,19 19.78,17 22,17V19C19.78,19 17.56,21 15.33,21C13.11,21 10.89,19 8.67,19C6.44,19 4.22,20 2,21V19Z" />
    </g>
    <g id="mdi-pool" transform="translate(324 324) scale(1.5)" fill="#fff">
      <path d="M2,15C3.67,14.25 5.33,13.5 7,13.17V5A3,3 0 0,1 10,2C11.31,2 12.42,2.83 12.83,4H10A1,1 0 0,0 9,5V6H14V5A3,3 0 0,1 17,2C18.31,2 19.42,2.83 19.83,4H17A1,1 0 0,0 16,5V14.94C18,14.62 20,13 22,13V15C19.78,15 17.56,17 15.33,17C13.11,17 10.89,15 8.67,15C6.44,15 4.22,16 2,17V15M14,8H9V10H14V8M14,12H9V13C10.67,13.16 12.33,14.31 14,14.79V12M2,19C4.22,18 6.44,17 8.67,17C10.89,17 13.11,19 15.33,19C17.56,19 19.78,17 22,17V19C19.78,19 17.56,21 15.33,21C13.11,21 10.89,19 8.67,19C6.44,19 4.22,20 2,21V19Z" />
    </g>
    <g id="mdi-popcorn" transform="translate(360 324) scale(1.5)" fill="#555">
      <path d="M7,22H4.75C4.75,22 4,22 3.81,20.65L2.04,3.81L2,3.5C2,2.67 2.9,2 4,2C5.1,2 6,2.67 6,3.5C6,2.67 6.9,2 8,2C9.1,2 10,2.67 10,3.5C10,2.67 10.9,2 12,2C13.09,2 14,2.66 14,3.5V3.5C14,2.67 14.9,2 16,2C17.1,2 18,2.67 18,3.5C18,2.67 18.9,2 20,2C21.1,2 22,2.67 22,3.5L21.96,3.81L20.19,20.65C20,22 19.25,22 19.25,22H17L16.5,22H13.75L10.25,22H7.5L7,22M17.85,4.93C17.55,4.39 16.84,4 16,4C15.19,4 14.36,4.36 14,4.87L13.78,20H16.66L17.85,4.93M10,4.87C9.64,4.36 8.81,4 8,4C7.16,4 6.45,4.39 6.15,4.93L7.34,20H10.22L10,4.87Z" />
    </g>
    <g id="mdi-popcorn" transform="translate(396 324) scale(1.5)" fill="#fff">
      <path d="M7,22H4.75C4.75,22 4,22 3.81,20.65L2.04,3.81L2,3.5C2,2.67 2.9,2 4,2C5.1,2 6,2.67 6,3.5C6,2.67 6.9,2 8,2C9.1,2 10,2.67 10,3.5C10,2.67 10.9,2 12,2C13.09,2 14,2.66 14,3.5V3.5C14,2.67 14.9,2 16,2C17.1,2 18,2.67 18,3.5C18,2.67 18.9,2 20,2C21.1,2 22,2.67 22,3.5L21.96,3.81L20.19,20.65C20,22 19.25,22 19.25,22H17L16.5,22H13.75L10.25,22H7.5L7,22M17.85,4.93C17.55,4.39 16.84,4 16,4C15.19,4 14.36,4.36 14,4.87L13.78,20H16.66L17.85,4.93M10,4.87C9.64,4.36 8.81,4 8,4C7.16,4 6.45,4.39 6.15,4.93L7.34,20H10.22L10,4.87Z" />
    </g>
    <g id="mdi-post" transform="translate(432 324) scale(1.5)" fill="#555">
      <path d="M3 3V21H21V3H3M18 18H6V17H18V18M18 16H6V15H18V16M18 12H6V6H18V12Z" />
    </g>
    <g id="mdi-post" transform="translate(468 324) scale(1.5)" fill="#fff">
      <path d="M3 3V21H21V3H3M18 18H6V17H18V18M18 16H6V15H18V16M18 12H6V6H18V12Z" />
    </g>
    <g id="mdi-post-outline" transform="translate(504 324) scale(1.5)" fill="#555">
      <path d="M19 5V19H5V5H19M21 3H3V21H21V3M17 17H7V16H17V17M17 15H7V14H17V15M17 12H7V7H17V12Z" />
    </g>
    <g id="mdi-post-outline" transform="translate(540 324) scale(1.5)" fill="#fff">
      <path d="M19 5V19H5V5H19M21 3H3V21H21V3M17 17H7V16H17V17M17 15H7V14H17V15M17 12H7V7H17V12Z" />
    </g>
    <g id="mdi-postage-stamp" transform="translate(576 324) scale(1.5)" fill="#555">
      <path d="M2,2V5.5C3.1,5.5 4,6.62 4,8C4,9.38 3.1,10.5 2,10.5V13.5C3.1,13.5 4,14.62 4,16C4,17.38 3.1,18.5 2,18.5V22H5.5C5.5,20.9 6.62,20 8,20C9.38,20 10.5,20.9 10.5,22H13.5C13.5,20.9 14.62,20 16,20C17.38,20 18.5,20.9 18.5,22H22V18.5C20.9,18.5 20,17.38 20,16V16C20,14.62 20.9,13.5 22,13.5V10.5C20.9,10.5 20,9.38 20,8V8C20,6.62 20.9,5.5 22,5.5V2H18.5C18.5,3.1 17.38,4 16,4C14.62,4 13.5,3.1 13.5,2H10.5C10.5,3.1 9.38,4 8,4C6.62,4 5.5,3.1 5.5,2H2M6,6H18V18H6V6M9,7A2,2 0 0,0 7,9A2,2 0 0,0 9,11A2,2 0 0,0 11,9A2,2 0 0,0 9,7M17,10L14,13L12,12L7,17H17V10Z" />
    </g>
    <g id="mdi-postage-stamp" transform="translate(612 324) scale(1.5)" fill="#fff">
      <path d="M2,2V5.5C3.1,5.5 4,6.62 4,8C4,9.38 3.1,10.5 2,10.5V13.5C3.1,13.5 4,14.62 4,16C4,17.38 3.1,18.5 2,18.5V22H5.5C5.5,20.9 6.62,20 8,20C9.38,20 10.5,20.9 10.5,22H13.5C13.5,20.9 14.62,20 16,20C17.38,20 18.5,20.9 18.5,22H22V18.5C20.9,18.5 20,17.38 20,16V16C20,14.62 20.9,13.5 22,13.5V10.5C20.9,10.5 20,9.38 20,8V8C20,6.62 20.9,5.5 22,5.5V2H18.5C18.5,3.1 17.38,4 16,4C14.62,4 13.5,3.1 13.5,2H10.5C10.5,3.1 9.38,4 8,4C6.62,4 5.5,3.1 5.5,2H2M6,6H18V18H6V6M9,7A2,2 0 0,0 7,9A2,2 0 0,0 9,11A2,2 0 0,0 11,9A2,2 0 0,0 9,7M17,10L14,13L12,12L7,17H17V10Z" />
    </g>
    <g id="mdi-pot" transform="translate(648 324) scale(1.5)" fill="#555">
      <path d="M19 19C19 20.1 18.1 21 17 21H7C5.9 21 5 20.1 5 19V12H3V10H21V12H19V19Z" />
    </g>
    <g id="mdi-pot" transform="translate(684 324) scale(1.5)" fill="#fff">
      <path d="M19 19C19 20.1 18.1 21 17 21H7C5.9 21 5 20.1 5 19V12H3V10H21V12H19V19Z" />
    </g>
  </svg>