<?xml version="1.0" encoding="UTF-8"?>
<!DOCTYPE svg PUBLIC "-//W3C//DTD SVG 1.1//EN" "http://www.w3.org/Graphics/SVG/1.1/DTD/svg11.dtd"><svg
  xmlns="http://www.w3.org/2000/svg" xmlns:xlink="http://www.w3.org/1999/xlink" version="1.1"
  width="720" height="900" viewBox="0 0 720 900">
    <g id="mdi-creative-commons" transform="translate(0 0) scale(1.5)" fill="#555">
      <path d="M11.89,10.34L10.55,11.04C10.41,10.74 10.24,10.53 10.03,10.41C9.82,10.29 9.62,10.23 9.45,10.23C8.55,10.23 8.11,10.82 8.11,12C8.11,12.54 8.22,12.97 8.45,13.29C8.67,13.61 9,13.77 9.45,13.77C10.03,13.77 10.44,13.5 10.68,12.91L11.91,13.54C11.65,14.03 11.29,14.41 10.82,14.69C10.36,14.97 9.85,15.11 9.29,15.11C8.39,15.11 7.67,14.84 7.12,14.29C6.58,13.74 6.3,13 6.3,12C6.3,11.05 6.58,10.3 7.13,9.74C7.69,9.18 8.39,8.9 9.23,8.9C10.47,8.89 11.36,9.38 11.89,10.34M17.66,10.34L16.34,11.04C16.2,10.74 16,10.53 15.81,10.41C15.6,10.29 15.4,10.23 15.21,10.23C14.32,10.23 13.87,10.82 13.87,12C13.87,12.54 14,12.97 14.21,13.29C14.44,13.61 14.77,13.77 15.21,13.77C15.8,13.77 16.21,13.5 16.45,12.91L17.7,13.54C17.42,14.03 17.05,14.41 16.59,14.69C16.12,14.97 15.62,15.11 15.07,15.11C14.17,15.11 13.44,14.84 12.9,14.29C12.36,13.74 12.09,13 12.09,12C12.09,11.05 12.37,10.3 12.92,9.74C13.47,9.18 14.17,8.9 15,8.9C16.26,8.89 17.14,9.38 17.66,10.34M12,3.5A8.5,8.5 0 0,1 20.5,12A8.5,8.5 0 0,1 12,20.5A8.5,8.5 0 0,1 3.5,12A8.5,8.5 0 0,1 12,3.5M12,2A10,10 0 0,0 2,12A10,10 0 0,0 12,22A10,10 0 0,0 22,12A10,10 0 0,0 12,2Z" />
    </g>
    <g id="mdi-creative-commons" transform="translate(36 0) scale(1.5)" fill="#fff">
      <path d="M11.89,10.34L10.55,11.04C10.41,10.74 10.24,10.53 10.03,10.41C9.82,10.29 9.62,10.23 9.45,10.23C8.55,10.23 8.11,10.82 8.11,12C8.11,12.54 8.22,12.97 8.45,13.29C8.67,13.61 9,13.77 9.45,13.77C10.03,13.77 10.44,13.5 10.68,12.91L11.91,13.54C11.65,14.03 11.29,14.41 10.82,14.69C10.36,14.97 9.85,15.11 9.29,15.11C8.39,15.11 7.67,14.84 7.12,14.29C6.58,13.74 6.3,13 6.3,12C6.3,11.05 6.58,10.3 7.13,9.74C7.69,9.18 8.39,8.9 9.23,8.9C10.47,8.89 11.36,9.38 11.89,10.34M17.66,10.34L16.34,11.04C16.2,10.74 16,10.53 15.81,10.41C15.6,10.29 15.4,10.23 15.21,10.23C14.32,10.23 13.87,10.82 13.87,12C13.87,12.54 14,12.97 14.21,13.29C14.44,13.61 14.77,13.77 15.21,13.77C15.8,13.77 16.21,13.5 16.45,12.91L17.7,13.54C17.42,14.03 17.05,14.41 16.59,14.69C16.12,14.97 15.62,15.11 15.07,15.11C14.17,15.11 13.44,14.84 12.9,14.29C12.36,13.74 12.09,13 12.09,12C12.09,11.05 12.37,10.3 12.92,9.74C13.47,9.18 14.17,8.9 15,8.9C16.26,8.89 17.14,9.38 17.66,10.34M12,3.5A8.5,8.5 0 0,1 20.5,12A8.5,8.5 0 0,1 12,20.5A8.5,8.5 0 0,1 3.5,12A8.5,8.5 0 0,1 12,3.5M12,2A10,10 0 0,0 2,12A10,10 0 0,0 12,22A10,10 0 0,0 22,12A10,10 0 0,0 12,2Z" />
    </g>
    <g id="mdi-credit-card" transform="translate(72 0) scale(1.5)" fill="#555">
      <path d="M20 4H4A2 2 0 0 0 2 6V18A2 2 0 0 0 4 20H20A2 2 0 0 0 22 18V6A2 2 0 0 0 20 4M20 11H4V8H20Z" />
    </g>
    <g id="mdi-credit-card" transform="translate(108 0) scale(1.5)" fill="#fff">
      <path d="M20 4H4A2 2 0 0 0 2 6V18A2 2 0 0 0 4 20H20A2 2 0 0 0 22 18V6A2 2 0 0 0 20 4M20 11H4V8H20Z" />
    </g>
    <g id="mdi-credit-card-check" transform="translate(144 0) scale(1.5)" fill="#555">
      <path d="M20 4H4C2.9 4 2 4.89 2 6V18C2 19.11 2.9 20 4 20H13.09C13.03 19.67 13 19.34 13 19C13 15.69 15.69 13 19 13C20.06 13 21.09 13.28 22 13.81V6C22 4.89 21.11 4 20 4M20 11H4V8H20M17.75 22L15 19L16.16 17.84L17.75 19.43L21.34 15.84L22.5 17.25L17.75 22" />
    </g>
    <g id="mdi-credit-card-check" transform="translate(180 0) scale(1.5)" fill="#fff">
      <path d="M20 4H4C2.9 4 2 4.89 2 6V18C2 19.11 2.9 20 4 20H13.09C13.03 19.67 13 19.34 13 19C13 15.69 15.69 13 19 13C20.06 13 21.09 13.28 22 13.81V6C22 4.89 21.11 4 20 4M20 11H4V8H20M17.75 22L15 19L16.16 17.84L17.75 19.43L21.34 15.84L22.5 17.25L17.75 22" />
    </g>
    <g id="mdi-credit-card-check-outline" transform="translate(216 0) scale(1.5)" fill="#555">
      <path d="M13 19C13 18.66 13.04 18.33 13.09 18H3V12H19V13C19.7 13 20.37 13.13 21 13.35V6C21 4.89 20.11 4 19 4H3C1.89 4 1 4.89 1 6V18C1 19.1 1.89 20 3 20H13.09C13.04 19.67 13 19.34 13 19M3 6H19V8H3V6M17.75 22L15 19L16.16 17.84L17.75 19.43L21.34 15.84L22.5 17.25L17.75 22" />
    </g>
    <g id="mdi-credit-card-check-outline" transform="translate(252 0) scale(1.5)" fill="#fff">
      <path d="M13 19C13 18.66 13.04 18.33 13.09 18H3V12H19V13C19.7 13 20.37 13.13 21 13.35V6C21 4.89 20.11 4 19 4H3C1.89 4 1 4.89 1 6V18C1 19.1 1.89 20 3 20H13.09C13.04 19.67 13 19.34 13 19M3 6H19V8H3V6M17.75 22L15 19L16.16 17.84L17.75 19.43L21.34 15.84L22.5 17.25L17.75 22" />
    </g>
    <g id="mdi-credit-card-clock" transform="translate(288 0) scale(1.5)" fill="#555">
      <path d="M16,14H17.5V16.82L19.94,18.23L19.19,19.53L16,17.69V14M24,17A7,7 0 0,1 17,24C14.21,24 11.8,22.36 10.67,20H4C2.89,20 2,19.1 2,18V6C2,4.89 2.89,4 4,4H20A2,2 0 0,1 22,6V12.1C23.24,13.36 24,15.09 24,17M17,12A5,5 0 0,0 12,17A5,5 0 0,0 17,22A5,5 0 0,0 22,17A5,5 0 0,0 17,12M20,10V7H4V10H20Z" />
    </g>
    <g id="mdi-credit-card-clock" transform="translate(324 0) scale(1.5)" fill="#fff">
      <path d="M16,14H17.5V16.82L19.94,18.23L19.19,19.53L16,17.69V14M24,17A7,7 0 0,1 17,24C14.21,24 11.8,22.36 10.67,20H4C2.89,20 2,19.1 2,18V6C2,4.89 2.89,4 4,4H20A2,2 0 0,1 22,6V12.1C23.24,13.36 24,15.09 24,17M17,12A5,5 0 0,0 12,17A5,5 0 0,0 17,22A5,5 0 0,0 22,17A5,5 0 0,0 17,12M20,10V7H4V10H20Z" />
    </g>
    <g id="mdi-credit-card-clock-outline" transform="translate(360 0) scale(1.5)" fill="#555">
      <path d="M16,14H17.5V16.82L19.94,18.23L19.19,19.53L16,17.69V14M24,17A7,7 0 0,1 17,24C14.21,24 11.8,22.36 10.67,20H4C2.89,20 2,19.1 2,18V6C2,4.89 2.89,4 4,4H20A2,2 0 0,1 22,6V12.1C23.24,13.36 24,15.09 24,17M10,17C10,15.04 10.81,13.27 12.1,12H4V18H10.07C10,17.67 10,17.34 10,17M17,12A5,5 0 0,0 12,17A5,5 0 0,0 17,22A5,5 0 0,0 22,17A5,5 0 0,0 17,12M20,8V6H4V8H20Z" />
    </g>
    <g id="mdi-credit-card-clock-outline" transform="translate(396 0) scale(1.5)" fill="#fff">
      <path d="M16,14H17.5V16.82L19.94,18.23L19.19,19.53L16,17.69V14M24,17A7,7 0 0,1 17,24C14.21,24 11.8,22.36 10.67,20H4C2.89,20 2,19.1 2,18V6C2,4.89 2.89,4 4,4H20A2,2 0 0,1 22,6V12.1C23.24,13.36 24,15.09 24,17M10,17C10,15.04 10.81,13.27 12.1,12H4V18H10.07C10,17.67 10,17.34 10,17M17,12A5,5 0 0,0 12,17A5,5 0 0,0 17,22A5,5 0 0,0 22,17A5,5 0 0,0 17,12M20,8V6H4V8H20Z" />
    </g>
    <g id="mdi-credit-card-marker" transform="translate(432 0) scale(1.5)" fill="#555">
      <path d="M18.5 12C16.6 12 15 13.6 15 15.5C15 18.1 18.5 22 18.5 22S22 18.1 22 15.5C22 13.6 20.4 12 18.5 12M18.5 16.8C17.8 16.8 17.3 16.2 17.3 15.6C17.3 14.9 17.9 14.4 18.5 14.4S19.7 15 19.7 15.6C19.8 16.2 19.2 16.8 18.5 16.8M14.55 20H4C2.9 20 2 19.11 2 18V6C2 4.89 2.9 4 4 4H20C21.11 4 22 4.89 22 6V11.3C21.42 10.81 20.74 10.44 20 10.22V8H4V11H15.39C13.96 12 13 13.66 13 15.5C13 17 13.72 18.61 14.55 20Z" />
    </g>
    <g id="mdi-credit-card-marker" transform="translate(468 0) scale(1.5)" fill="#fff">
      <path d="M18.5 12C16.6 12 15 13.6 15 15.5C15 18.1 18.5 22 18.5 22S22 18.1 22 15.5C22 13.6 20.4 12 18.5 12M18.5 16.8C17.8 16.8 17.3 16.2 17.3 15.6C17.3 14.9 17.9 14.4 18.5 14.4S19.7 15 19.7 15.6C19.8 16.2 19.2 16.8 18.5 16.8M14.55 20H4C2.9 20 2 19.11 2 18V6C2 4.89 2.9 4 4 4H20C21.11 4 22 4.89 22 6V11.3C21.42 10.81 20.74 10.44 20 10.22V8H4V11H15.39C13.96 12 13 13.66 13 15.5C13 17 13.72 18.61 14.55 20Z" />
    </g>
    <g id="mdi-credit-card-marker-outline" transform="translate(504 0) scale(1.5)" fill="#555">
      <path d="M13.5,18H4V12H14.3C15.3,10.8 16.8,10 18.5,10C19.8,10 21,10.5 22,11.3V6A2,2 0 0,0 20,4H4A2,2 0 0,0 2,6V18A2,2 0 0,0 4,20H14.6C14.2,19.4 13.8,18.7 13.5,18M4,6H20V8H4V6M18.5,12C16.6,12 15,13.6 15,15.5C15,18.1 18.5,22 18.5,22C18.5,22 22,18.1 22,15.5C22,13.6 20.4,12 18.5,12M18.5,16.8C17.8,16.8 17.3,16.2 17.3,15.6C17.3,14.9 17.9,14.4 18.5,14.4C19.1,14.4 19.7,15 19.7,15.6C19.8,16.2 19.2,16.8 18.5,16.8Z" />
    </g>
    <g id="mdi-credit-card-marker-outline" transform="translate(540 0) scale(1.5)" fill="#fff">
      <path d="M13.5,18H4V12H14.3C15.3,10.8 16.8,10 18.5,10C19.8,10 21,10.5 22,11.3V6A2,2 0 0,0 20,4H4A2,2 0 0,0 2,6V18A2,2 0 0,0 4,20H14.6C14.2,19.4 13.8,18.7 13.5,18M4,6H20V8H4V6M18.5,12C16.6,12 15,13.6 15,15.5C15,18.1 18.5,22 18.5,22C18.5,22 22,18.1 22,15.5C22,13.6 20.4,12 18.5,12M18.5,16.8C17.8,16.8 17.3,16.2 17.3,15.6C17.3,14.9 17.9,14.4 18.5,14.4C19.1,14.4 19.7,15 19.7,15.6C19.8,16.2 19.2,16.8 18.5,16.8Z" />
    </g>
    <g id="mdi-credit-card-minus" transform="translate(576 0) scale(1.5)" fill="#555">
      <path d="M20 4H4A2 2 0 0 0 2 6V18A2 2 0 0 0 4 20H13V16H22V6A2 2 0 0 0 20 4M20 11H4V8H20M23 20H15V18H23Z" />
    </g>
    <g id="mdi-credit-card-minus" transform="translate(612 0) scale(1.5)" fill="#fff">
      <path d="M20 4H4A2 2 0 0 0 2 6V18A2 2 0 0 0 4 20H13V16H22V6A2 2 0 0 0 20 4M20 11H4V8H20M23 20H15V18H23Z" />
    </g>
    <g id="mdi-credit-card-minus-outline" transform="translate(648 0) scale(1.5)" fill="#555">
      <path d="M24 18V20H16V18H24M19 8V6H3V8H19M19 12H3V18H14V20H3C1.9 20 1 19.1 1 18V6C1 4.9 1.9 4 3 4H19C20.1 4 21 4.9 21 6V16H19V12" />
    </g>
    <g id="mdi-credit-card-minus-outline" transform="translate(684 0) scale(1.5)" fill="#fff">
      <path d="M24 18V20H16V18H24M19 8V6H3V8H19M19 12H3V18H14V20H3C1.9 20 1 19.1 1 18V6C1 4.9 1.9 4 3 4H19C20.1 4 21 4.9 21 6V16H19V12" />
    </g>
    <g id="mdi-credit-card-multiple" transform="translate(0 36) scale(1.5)" fill="#555">
      <path d="M21 9V6H7V9H21M21 3A2 2 0 0 1 23 5V15A2 2 0 0 1 21 17H7A2 2 0 0 1 5 15V5A2 2 0 0 1 7 3H21M3 19H18V21H3A2 2 0 0 1 1 19V8H3Z" />
    </g>
    <g id="mdi-credit-card-multiple" transform="translate(36 36) scale(1.5)" fill="#fff">
      <path d="M21 9V6H7V9H21M21 3A2 2 0 0 1 23 5V15A2 2 0 0 1 21 17H7A2 2 0 0 1 5 15V5A2 2 0 0 1 7 3H21M3 19H18V21H3A2 2 0 0 1 1 19V8H3Z" />
    </g>
    <g id="mdi-credit-card-multiple-outline" transform="translate(72 36) scale(1.5)" fill="#555">
      <path d="M21,8V6H7V8H21M21,16V11H7V16H21M21,4A2,2 0 0,1 23,6V16A2,2 0 0,1 21,18H7C5.89,18 5,17.1 5,16V6C5,4.89 5.89,4 7,4H21M3,20H18V22H3A2,2 0 0,1 1,20V9H3V20Z" />
    </g>
    <g id="mdi-credit-card-multiple-outline" transform="translate(108 36) scale(1.5)" fill="#fff">
      <path d="M21,8V6H7V8H21M21,16V11H7V16H21M21,4A2,2 0 0,1 23,6V16A2,2 0 0,1 21,18H7C5.89,18 5,17.1 5,16V6C5,4.89 5.89,4 7,4H21M3,20H18V22H3A2,2 0 0,1 1,20V9H3V20Z" />
    </g>
    <g id="mdi-credit-card-off" transform="translate(144 36) scale(1.5)" fill="#555">
      <path d="M11.2 8L7.2 4H20A2 2 0 0 1 22 6V18A1.91 1.91 0 0 1 21.88 18.68L14.2 11H20V8M20.84 22.73L18.11 20H4A2 2 0 0 1 2 18V6A2 2 0 0 1 2.65 4.54L1.11 3L2.39 1.73L22.11 21.46M9.11 11L6.11 8H4V11Z" />
    </g>
    <g id="mdi-credit-card-off" transform="translate(180 36) scale(1.5)" fill="#fff">
      <path d="M11.2 8L7.2 4H20A2 2 0 0 1 22 6V18A1.91 1.91 0 0 1 21.88 18.68L14.2 11H20V8M20.84 22.73L18.11 20H4A2 2 0 0 1 2 18V6A2 2 0 0 1 2.65 4.54L1.11 3L2.39 1.73L22.11 21.46M9.11 11L6.11 8H4V11Z" />
    </g>
    <g id="mdi-credit-card-off-outline" transform="translate(216 36) scale(1.5)" fill="#555">
      <path d="M0.93,4.2L2.21,2.93L20,20.72L18.73,22L16.73,20H4C2.89,20 2,19.1 2,18V6C2,5.78 2.04,5.57 2.11,5.38L0.93,4.2M20,8V6H7.82L5.82,4H20A2,2 0 0,1 22,6V18C22,18.6 21.74,19.13 21.32,19.5L19.82,18H20V12H13.82L9.82,8H20M4,8H4.73L4,7.27V8M4,12V18H14.73L8.73,12H4Z" />
    </g>
    <g id="mdi-credit-card-off-outline" transform="translate(252 36) scale(1.5)" fill="#fff">
      <path d="M0.93,4.2L2.21,2.93L20,20.72L18.73,22L16.73,20H4C2.89,20 2,19.1 2,18V6C2,5.78 2.04,5.57 2.11,5.38L0.93,4.2M20,8V6H7.82L5.82,4H20A2,2 0 0,1 22,6V18C22,18.6 21.74,19.13 21.32,19.5L19.82,18H20V12H13.82L9.82,8H20M4,8H4.73L4,7.27V8M4,12V18H14.73L8.73,12H4Z" />
    </g>
    <g id="mdi-credit-card-outline" transform="translate(288 36) scale(1.5)" fill="#555">
      <path d="M20,8H4V6H20M20,18H4V12H20M20,4H4C2.89,4 2,4.89 2,6V18A2,2 0 0,0 4,20H20A2,2 0 0,0 22,18V6C22,4.89 21.1,4 20,4Z" />
    </g>
    <g id="mdi-credit-card-outline" transform="translate(324 36) scale(1.5)" fill="#fff">
      <path d="M20,8H4V6H20M20,18H4V12H20M20,4H4C2.89,4 2,4.89 2,6V18A2,2 0 0,0 4,20H20A2,2 0 0,0 22,18V6C22,4.89 21.1,4 20,4Z" />
    </g>
    <g id="mdi-credit-card-plus" transform="translate(360 36) scale(1.5)" fill="#555">
      <path d="M20 4H4A2 2 0 0 0 2 6V18A2 2 0 0 0 4 20H13.09A5.47 5.47 0 0 1 13 19A6 6 0 0 1 19 13A5.88 5.88 0 0 1 22 13.81V6A2 2 0 0 0 20 4M20 11H4V8H20M20 15V18H23V20H20V23H18V20H15V18H18V15Z" />
    </g>
    <g id="mdi-credit-card-plus" transform="translate(396 36) scale(1.5)" fill="#fff">
      <path d="M20 4H4A2 2 0 0 0 2 6V18A2 2 0 0 0 4 20H13.09A5.47 5.47 0 0 1 13 19A6 6 0 0 1 19 13A5.88 5.88 0 0 1 22 13.81V6A2 2 0 0 0 20 4M20 11H4V8H20M20 15V18H23V20H20V23H18V20H15V18H18V15Z" />
    </g>
    <g id="mdi-credit-card-plus-outline" transform="translate(432 36) scale(1.5)" fill="#555">
      <path d="M21,18H24V20H21V23H19V20H16V18H19V15H21V18M19,8V6H3V8H19M19,12H3V18H14V20H3C1.89,20 1,19.1 1,18V6C1,4.89 1.89,4 3,4H19A2,2 0 0,1 21,6V13H19V12Z" />
    </g>
    <g id="mdi-credit-card-plus-outline" transform="translate(468 36) scale(1.5)" fill="#fff">
      <path d="M21,18H24V20H21V23H19V20H16V18H19V15H21V18M19,8V6H3V8H19M19,12H3V18H14V20H3C1.89,20 1,19.1 1,18V6C1,4.89 1.89,4 3,4H19A2,2 0 0,1 21,6V13H19V12Z" />
    </g>
    <g id="mdi-credit-card-refund" transform="translate(504 36) scale(1.5)" fill="#555">
      <path d="M18 11H6A2 2 0 0 0 4 13V21A2 2 0 0 0 6 23H18A2 2 0 0 0 20 21V13A2 2 0 0 0 18 11M18 17H6V14H18M17 5V10H15.5V6.5H9.88L12.3 8.93L11.24 10L7 5.75L11.24 1.5L12.3 2.57L9.88 5Z" />
    </g>
    <g id="mdi-credit-card-refund" transform="translate(540 36) scale(1.5)" fill="#fff">
      <path d="M18 11H6A2 2 0 0 0 4 13V21A2 2 0 0 0 6 23H18A2 2 0 0 0 20 21V13A2 2 0 0 0 18 11M18 17H6V14H18M17 5V10H15.5V6.5H9.88L12.3 8.93L11.24 10L7 5.75L11.24 1.5L12.3 2.57L9.88 5Z" />
    </g>
    <g id="mdi-credit-card-refund-outline" transform="translate(576 36) scale(1.5)" fill="#555">
      <path d="M18,11H6A2,2 0 0,0 4,13V21A2,2 0 0,0 6,23H18A2,2 0 0,0 20,21V13A2,2 0 0,0 18,11M18,21H6V17H18V21M18,15H6V13H18V15M17,5V10H15.5V6.5H9.88L12.3,8.93L11.24,10L7,5.75L11.24,1.5L12.3,2.57L9.88,5H17Z" />
    </g>
    <g id="mdi-credit-card-refund-outline" transform="translate(612 36) scale(1.5)" fill="#fff">
      <path d="M18,11H6A2,2 0 0,0 4,13V21A2,2 0 0,0 6,23H18A2,2 0 0,0 20,21V13A2,2 0 0,0 18,11M18,21H6V17H18V21M18,15H6V13H18V15M17,5V10H15.5V6.5H9.88L12.3,8.93L11.24,10L7,5.75L11.24,1.5L12.3,2.57L9.88,5H17Z" />
    </g>
    <g id="mdi-credit-card-remove" transform="translate(648 36) scale(1.5)" fill="#555">
      <path d="M20 4H4A2 2 0 0 0 2 6V18A2 2 0 0 0 4 20H13.09A5.47 5.47 0 0 1 13 19A6 6 0 0 1 19 13A5.88 5.88 0 0 1 22 13.81V6A2 2 0 0 0 20 4M20 11H4V8H20M22.54 16.88L20.41 19L22.54 21.12L21.12 22.54L19 20.41L16.88 22.54L15.46 21.12L17.59 19L15.46 16.88L16.88 15.46L19 17.59L21.12 15.46Z" />
    </g>
    <g id="mdi-credit-card-remove" transform="translate(684 36) scale(1.5)" fill="#fff">
      <path d="M20 4H4A2 2 0 0 0 2 6V18A2 2 0 0 0 4 20H13.09A5.47 5.47 0 0 1 13 19A6 6 0 0 1 19 13A5.88 5.88 0 0 1 22 13.81V6A2 2 0 0 0 20 4M20 11H4V8H20M22.54 16.88L20.41 19L22.54 21.12L21.12 22.54L19 20.41L16.88 22.54L15.46 21.12L17.59 19L15.46 16.88L16.88 15.46L19 17.59L21.12 15.46Z" />
    </g>
    <g id="mdi-credit-card-remove-outline" transform="translate(0 72) scale(1.5)" fill="#555">
      <path d="M13 19C13 18.66 13.04 18.33 13.09 18H3V12H19V13C19.7 13 20.37 13.13 21 13.35V6C21 4.89 20.11 4 19 4H3C1.89 4 1 4.89 1 6V18C1 19.1 1.89 20 3 20H13.09C13.04 19.67 13 19.34 13 19M3 6H19V8H3V6M22.54 16.88L20.41 19L22.54 21.12L21.12 22.54L19 20.41L16.88 22.54L15.47 21.12L17.59 19L15.47 16.88L16.88 15.47L19 17.59L21.12 15.46L22.54 16.88Z" />
    </g>
    <g id="mdi-credit-card-remove-outline" transform="translate(36 72) scale(1.5)" fill="#fff">
      <path d="M13 19C13 18.66 13.04 18.33 13.09 18H3V12H19V13C19.7 13 20.37 13.13 21 13.35V6C21 4.89 20.11 4 19 4H3C1.89 4 1 4.89 1 6V18C1 19.1 1.89 20 3 20H13.09C13.04 19.67 13 19.34 13 19M3 6H19V8H3V6M22.54 16.88L20.41 19L22.54 21.12L21.12 22.54L19 20.41L16.88 22.54L15.47 21.12L17.59 19L15.47 16.88L16.88 15.47L19 17.59L21.12 15.46L22.54 16.88Z" />
    </g>
    <g id="mdi-credit-card-scan" transform="translate(72 72) scale(1.5)" fill="#555">
      <path d="M18 6H6A2 2 0 0 0 4 8V16A2 2 0 0 0 6 18H18A2 2 0 0 0 20 16V8A2 2 0 0 0 18 6M18 12H6V9H18M2 4H6V2H2A2 2 0 0 0 0 4V8H2V4M22 2H18V4H22V8H24V4A2 2 0 0 0 22 2M2 16H0V20A2 2 0 0 0 2 22H6V20H2V16M22 20H18V22H22A2 2 0 0 0 24 20V16H22V20" />
    </g>
    <g id="mdi-credit-card-scan" transform="translate(108 72) scale(1.5)" fill="#fff">
      <path d="M18 6H6A2 2 0 0 0 4 8V16A2 2 0 0 0 6 18H18A2 2 0 0 0 20 16V8A2 2 0 0 0 18 6M18 12H6V9H18M2 4H6V2H2A2 2 0 0 0 0 4V8H2V4M22 2H18V4H22V8H24V4A2 2 0 0 0 22 2M2 16H0V20A2 2 0 0 0 2 22H6V20H2V16M22 20H18V22H22A2 2 0 0 0 24 20V16H22V20" />
    </g>
    <g id="mdi-credit-card-scan-outline" transform="translate(144 72) scale(1.5)" fill="#555">
      <path d="M2,4H6V2H2A2,2 0 0,0 0,4V8H2V4M22,2H18V4H22V8H24V4A2,2 0 0,0 22,2M2,16H0V20A2,2 0 0,0 2,22H6V20H2V16M22,20H18V22H22A2,2 0 0,0 24,20V16H22V20M4,8V16A2,2 0 0,0 6,18H18A2,2 0 0,0 20,16V8A2,2 0 0,0 18,6H6A2,2 0 0,0 4,8M6,16V12H18V16H6M18,8V10H6V8H18Z" />
    </g>
    <g id="mdi-credit-card-scan-outline" transform="translate(180 72) scale(1.5)" fill="#fff">
      <path d="M2,4H6V2H2A2,2 0 0,0 0,4V8H2V4M22,2H18V4H22V8H24V4A2,2 0 0,0 22,2M2,16H0V20A2,2 0 0,0 2,22H6V20H2V16M22,20H18V22H22A2,2 0 0,0 24,20V16H22V20M4,8V16A2,2 0 0,0 6,18H18A2,2 0 0,0 20,16V8A2,2 0 0,0 18,6H6A2,2 0 0,0 4,8M6,16V12H18V16H6M18,8V10H6V8H18Z" />
    </g>
    <g id="mdi-credit-card-settings" transform="translate(216 72) scale(1.5)" fill="#555">
      <path d="M20 4H4A2 2 0 0 0 2 6V18A2 2 0 0 0 4 20H20A2 2 0 0 0 22 18V6A2 2 0 0 0 20 4M20 11H4V8H20M7 22H9V24H7V22M11 22H13V24H11V22M15 22H17V24H15Z" />
    </g>
    <g id="mdi-credit-card-settings" transform="translate(252 72) scale(1.5)" fill="#fff">
      <path d="M20 4H4A2 2 0 0 0 2 6V18A2 2 0 0 0 4 20H20A2 2 0 0 0 22 18V6A2 2 0 0 0 20 4M20 11H4V8H20M7 22H9V24H7V22M11 22H13V24H11V22M15 22H17V24H15Z" />
    </g>
    <g id="mdi-credit-card-settings-outline" transform="translate(288 72) scale(1.5)" fill="#555">
      <path d="M20,8H4V6H20M20,18H4V12H20M20,4H4C2.89,4 2,4.89 2,6V18A2,2 0 0,0 4,20H20A2,2 0 0,0 22,18V6C22,4.89 21.1,4 20,4M7,22H9V24H7V22M11,22H13V24H11V22M15,22H17V24H15V22Z" />
    </g>
    <g id="mdi-credit-card-settings-outline" transform="translate(324 72) scale(1.5)" fill="#fff">
      <path d="M20,8H4V6H20M20,18H4V12H20M20,4H4C2.89,4 2,4.89 2,6V18A2,2 0 0,0 4,20H20A2,2 0 0,0 22,18V6C22,4.89 21.1,4 20,4M7,22H9V24H7V22M11,22H13V24H11V22M15,22H17V24H15V22Z" />
    </g>
    <g id="mdi-credit-card-wireless" transform="translate(360 72) scale(1.5)" fill="#555">
      <path d="M4.93 4.92L6.34 6.33C9.46 3.2 14.53 3.2 17.66 6.33L19.07 4.92C15.17 1 8.84 1 4.93 4.92M7.76 7.75L9.17 9.16C10.73 7.6 13.26 7.6 14.83 9.16L16.24 7.75C13.9 5.41 10.1 5.41 7.76 7.75M18 11H6C4.89 11 4 11.9 4 13V21C4 22.11 4.89 23 6 23H18C19.11 23 20 22.11 20 21V13C20 11.9 19.11 11 18 11M18 17H6V14H18V17Z" />
    </g>
    <g id="mdi-credit-card-wireless" transform="translate(396 72) scale(1.5)" fill="#fff">
      <path d="M4.93 4.92L6.34 6.33C9.46 3.2 14.53 3.2 17.66 6.33L19.07 4.92C15.17 1 8.84 1 4.93 4.92M7.76 7.75L9.17 9.16C10.73 7.6 13.26 7.6 14.83 9.16L16.24 7.75C13.9 5.41 10.1 5.41 7.76 7.75M18 11H6C4.89 11 4 11.9 4 13V21C4 22.11 4.89 23 6 23H18C19.11 23 20 22.11 20 21V13C20 11.9 19.11 11 18 11M18 17H6V14H18V17Z" />
    </g>
    <g id="mdi-credit-card-wireless-off" transform="translate(432 72) scale(1.5)" fill="#555">
      <path d="M12 2C9.85 2 7.7 2.69 5.9 4.08L7.32 5.5C10.45 3.24 14.84 3.5 17.66 6.33L19.07 4.92C17.12 2.96 14.56 2 12 2M3.28 4L2 5.27L7.73 11H6C4.89 11 4 11.9 4 13V21C4 22.11 4.89 23 6 23H18C18.5 23 18.92 22.82 19.27 22.54L19.73 23L21 21.72M12 6C10.87 6 9.75 6.31 8.77 6.94L10.24 8.41C11.73 7.68 13.58 7.92 14.83 9.16L16.24 7.75C15.07 6.58 13.54 6 12 6M12.82 11L15.82 14H18V16.18L20 18.18V13C20 11.9 19.11 11 18 11M6 14H10.73L13.73 17H6Z" />
    </g>
    <g id="mdi-credit-card-wireless-off" transform="translate(468 72) scale(1.5)" fill="#fff">
      <path d="M12 2C9.85 2 7.7 2.69 5.9 4.08L7.32 5.5C10.45 3.24 14.84 3.5 17.66 6.33L19.07 4.92C17.12 2.96 14.56 2 12 2M3.28 4L2 5.27L7.73 11H6C4.89 11 4 11.9 4 13V21C4 22.11 4.89 23 6 23H18C18.5 23 18.92 22.82 19.27 22.54L19.73 23L21 21.72M12 6C10.87 6 9.75 6.31 8.77 6.94L10.24 8.41C11.73 7.68 13.58 7.92 14.83 9.16L16.24 7.75C15.07 6.58 13.54 6 12 6M12.82 11L15.82 14H18V16.18L20 18.18V13C20 11.9 19.11 11 18 11M6 14H10.73L13.73 17H6Z" />
    </g>
    <g id="mdi-credit-card-wireless-off-outline" transform="translate(504 72) scale(1.5)" fill="#555">
      <path d="M12 2C9.85 2 7.7 2.69 5.9 4.08L7.32 5.5C10.45 3.24 14.84 3.5 17.66 6.33L19.07 4.92C17.12 2.96 14.56 2 12 2M3.28 4L2 5.27L7.73 11H6C4.89 11 4 11.9 4 13V21C4 22.11 4.89 23 6 23H18C18.47 23 18.92 22.84 19.27 22.54L19.73 23L21 21.72M12 6C10.87 6 9.75 6.31 8.77 6.94L10.24 8.41C11.73 7.68 13.58 7.92 14.83 9.16L16.24 7.75C15.07 6.58 13.54 6 12 6M12.82 11L14.82 13H18V15H16.82L20 18.18V13C20 11.9 19.11 11 18 11M6 13H9.73L11.73 15H6M6 17H13.73L17.73 21H6Z" />
    </g>
    <g id="mdi-credit-card-wireless-off-outline" transform="translate(540 72) scale(1.5)" fill="#fff">
      <path d="M12 2C9.85 2 7.7 2.69 5.9 4.08L7.32 5.5C10.45 3.24 14.84 3.5 17.66 6.33L19.07 4.92C17.12 2.96 14.56 2 12 2M3.28 4L2 5.27L7.73 11H6C4.89 11 4 11.9 4 13V21C4 22.11 4.89 23 6 23H18C18.47 23 18.92 22.84 19.27 22.54L19.73 23L21 21.72M12 6C10.87 6 9.75 6.31 8.77 6.94L10.24 8.41C11.73 7.68 13.58 7.92 14.83 9.16L16.24 7.75C15.07 6.58 13.54 6 12 6M12.82 11L14.82 13H18V15H16.82L20 18.18V13C20 11.9 19.11 11 18 11M6 13H9.73L11.73 15H6M6 17H13.73L17.73 21H6Z" />
    </g>
    <g id="mdi-credit-card-wireless-outline" transform="translate(576 72) scale(1.5)" fill="#555">
      <path d="M18,11H6A2,2 0 0,0 4,13V21A2,2 0 0,0 6,23H18A2,2 0 0,0 20,21V13A2,2 0 0,0 18,11M18,21H6V17H18V21M18,15H6V13H18V15M4.93,4.92L6.34,6.33C9.46,3.2 14.53,3.2 17.66,6.33L19.07,4.92C15.17,1 8.84,1 4.93,4.92M7.76,7.75L9.17,9.16C10.73,7.6 13.26,7.6 14.83,9.16L16.24,7.75C13.9,5.41 10.1,5.41 7.76,7.75Z" />
    </g>
    <g id="mdi-credit-card-wireless-outline" transform="translate(612 72) scale(1.5)" fill="#fff">
      <path d="M18,11H6A2,2 0 0,0 4,13V21A2,2 0 0,0 6,23H18A2,2 0 0,0 20,21V13A2,2 0 0,0 18,11M18,21H6V17H18V21M18,15H6V13H18V15M4.93,4.92L6.34,6.33C9.46,3.2 14.53,3.2 17.66,6.33L19.07,4.92C15.17,1 8.84,1 4.93,4.92M7.76,7.75L9.17,9.16C10.73,7.6 13.26,7.6 14.83,9.16L16.24,7.75C13.9,5.41 10.1,5.41 7.76,7.75Z" />
    </g>
    <g id="mdi-cricket" transform="translate(648 72) scale(1.5)" fill="#555">
      <path d="M14.34,17.77L15.75,16.36L20,20.58L18.56,22L14.34,17.77M18.5,2A3.5,3.5 0 0,1 22,5.5A3.5,3.5 0 0,1 18.5,9A3.5,3.5 0 0,1 15,5.5A3.5,3.5 0 0,1 18.5,2M2.24,7.11L5.07,4.28C5.46,3.89 6.09,3.89 6.5,4.28L14.97,12.77C15.36,13.16 15.36,13.79 14.97,14.18L12.14,17C11.75,17.4 11.12,17.4 10.72,17L2.24,8.53C1.85,8.13 1.85,7.5 2.24,7.11Z" />
    </g>
    <g id="mdi-cricket" transform="translate(684 72) scale(1.5)" fill="#fff">
      <path d="M14.34,17.77L15.75,16.36L20,20.58L18.56,22L14.34,17.77M18.5,2A3.5,3.5 0 0,1 22,5.5A3.5,3.5 0 0,1 18.5,9A3.5,3.5 0 0,1 15,5.5A3.5,3.5 0 0,1 18.5,2M2.24,7.11L5.07,4.28C5.46,3.89 6.09,3.89 6.5,4.28L14.97,12.77C15.36,13.16 15.36,13.79 14.97,14.18L12.14,17C11.75,17.4 11.12,17.4 10.72,17L2.24,8.53C1.85,8.13 1.85,7.5 2.24,7.11Z" />
    </g>
    <g id="mdi-crop" transform="translate(0 108) scale(1.5)" fill="#555">
      <path d="M7,17V1H5V5H1V7H5V17A2,2 0 0,0 7,19H17V23H19V19H23V17M17,15H19V7C19,5.89 18.1,5 17,5H9V7H17V15Z" />
    </g>
    <g id="mdi-crop" transform="translate(36 108) scale(1.5)" fill="#fff">
      <path d="M7,17V1H5V5H1V7H5V17A2,2 0 0,0 7,19H17V23H19V19H23V17M17,15H19V7C19,5.89 18.1,5 17,5H9V7H17V15Z" />
    </g>
    <g id="mdi-crop-free" transform="translate(72 108) scale(1.5)" fill="#555">
      <path d="M19,3H15V5H19V9H21V5C21,3.89 20.1,3 19,3M19,19H15V21H19A2,2 0 0,0 21,19V15H19M5,15H3V19A2,2 0 0,0 5,21H9V19H5M3,5V9H5V5H9V3H5A2,2 0 0,0 3,5Z" />
    </g>
    <g id="mdi-crop-free" transform="translate(108 108) scale(1.5)" fill="#fff">
      <path d="M19,3H15V5H19V9H21V5C21,3.89 20.1,3 19,3M19,19H15V21H19A2,2 0 0,0 21,19V15H19M5,15H3V19A2,2 0 0,0 5,21H9V19H5M3,5V9H5V5H9V3H5A2,2 0 0,0 3,5Z" />
    </g>
    <g id="mdi-crop-landscape" transform="translate(144 108) scale(1.5)" fill="#555">
      <path d="M19,17H5V7H19M19,5H5A2,2 0 0,0 3,7V17A2,2 0 0,0 5,19H19A2,2 0 0,0 21,17V7C21,5.89 20.1,5 19,5Z" />
    </g>
    <g id="mdi-crop-landscape" transform="translate(180 108) scale(1.5)" fill="#fff">
      <path d="M19,17H5V7H19M19,5H5A2,2 0 0,0 3,7V17A2,2 0 0,0 5,19H19A2,2 0 0,0 21,17V7C21,5.89 20.1,5 19,5Z" />
    </g>
    <g id="mdi-crop-portrait" transform="translate(216 108) scale(1.5)" fill="#555">
      <path d="M17,19H7V5H17M17,3H7A2,2 0 0,0 5,5V19A2,2 0 0,0 7,21H17A2,2 0 0,0 19,19V5C19,3.89 18.1,3 17,3Z" />
    </g>
    <g id="mdi-crop-portrait" transform="translate(252 108) scale(1.5)" fill="#fff">
      <path d="M17,19H7V5H17M17,3H7A2,2 0 0,0 5,5V19A2,2 0 0,0 7,21H17A2,2 0 0,0 19,19V5C19,3.89 18.1,3 17,3Z" />
    </g>
    <g id="mdi-crop-rotate" transform="translate(288 108) scale(1.5)" fill="#555">
      <path d="M7.47,21.5C4.2,19.93 1.86,16.76 1.5,13H0C0.5,19.16 5.66,24 11.95,24C12.18,24 12.39,24 12.61,23.97L8.8,20.15L7.47,21.5M12.05,0C11.82,0 11.61,0 11.39,0.04L15.2,3.85L16.53,2.5C19.8,4.07 22.14,7.24 22.5,11H24C23.5,4.84 18.34,0 12.05,0M16,14H18V8C18,6.89 17.1,6 16,6H10V8H16V14M8,16V4H6V6H4V8H6V16A2,2 0 0,0 8,18H16V20H18V18H20V16H8Z" />
    </g>
    <g id="mdi-crop-rotate" transform="translate(324 108) scale(1.5)" fill="#fff">
      <path d="M7.47,21.5C4.2,19.93 1.86,16.76 1.5,13H0C0.5,19.16 5.66,24 11.95,24C12.18,24 12.39,24 12.61,23.97L8.8,20.15L7.47,21.5M12.05,0C11.82,0 11.61,0 11.39,0.04L15.2,3.85L16.53,2.5C19.8,4.07 22.14,7.24 22.5,11H24C23.5,4.84 18.34,0 12.05,0M16,14H18V8C18,6.89 17.1,6 16,6H10V8H16V14M8,16V4H6V6H4V8H6V16A2,2 0 0,0 8,18H16V20H18V18H20V16H8Z" />
    </g>
    <g id="mdi-crop-square" transform="translate(360 108) scale(1.5)" fill="#555">
      <path d="M18,18H6V6H18M18,4H6A2,2 0 0,0 4,6V18A2,2 0 0,0 6,20H18A2,2 0 0,0 20,18V6C20,4.89 19.1,4 18,4Z" />
    </g>
    <g id="mdi-crop-square" transform="translate(396 108) scale(1.5)" fill="#fff">
      <path d="M18,18H6V6H18M18,4H6A2,2 0 0,0 4,6V18A2,2 0 0,0 6,20H18A2,2 0 0,0 20,18V6C20,4.89 19.1,4 18,4Z" />
    </g>
    <g id="mdi-crosshairs" transform="translate(432 108) scale(1.5)" fill="#555">
      <path d="M3.05,13H1V11H3.05C3.5,6.83 6.83,3.5 11,3.05V1H13V3.05C17.17,3.5 20.5,6.83 20.95,11H23V13H20.95C20.5,17.17 17.17,20.5 13,20.95V23H11V20.95C6.83,20.5 3.5,17.17 3.05,13M12,5A7,7 0 0,0 5,12A7,7 0 0,0 12,19A7,7 0 0,0 19,12A7,7 0 0,0 12,5Z" />
    </g>
    <g id="mdi-crosshairs" transform="translate(468 108) scale(1.5)" fill="#fff">
      <path d="M3.05,13H1V11H3.05C3.5,6.83 6.83,3.5 11,3.05V1H13V3.05C17.17,3.5 20.5,6.83 20.95,11H23V13H20.95C20.5,17.17 17.17,20.5 13,20.95V23H11V20.95C6.83,20.5 3.5,17.17 3.05,13M12,5A7,7 0 0,0 5,12A7,7 0 0,0 12,19A7,7 0 0,0 19,12A7,7 0 0,0 12,5Z" />
    </g>
    <g id="mdi-crosshairs-gps" transform="translate(504 108) scale(1.5)" fill="#555">
      <path d="M12,8A4,4 0 0,1 16,12A4,4 0 0,1 12,16A4,4 0 0,1 8,12A4,4 0 0,1 12,8M3.05,13H1V11H3.05C3.5,6.83 6.83,3.5 11,3.05V1H13V3.05C17.17,3.5 20.5,6.83 20.95,11H23V13H20.95C20.5,17.17 17.17,20.5 13,20.95V23H11V20.95C6.83,20.5 3.5,17.17 3.05,13M12,5A7,7 0 0,0 5,12A7,7 0 0,0 12,19A7,7 0 0,0 19,12A7,7 0 0,0 12,5Z" />
    </g>
    <g id="mdi-crosshairs-gps" transform="translate(540 108) scale(1.5)" fill="#fff">
      <path d="M12,8A4,4 0 0,1 16,12A4,4 0 0,1 12,16A4,4 0 0,1 8,12A4,4 0 0,1 12,8M3.05,13H1V11H3.05C3.5,6.83 6.83,3.5 11,3.05V1H13V3.05C17.17,3.5 20.5,6.83 20.95,11H23V13H20.95C20.5,17.17 17.17,20.5 13,20.95V23H11V20.95C6.83,20.5 3.5,17.17 3.05,13M12,5A7,7 0 0,0 5,12A7,7 0 0,0 12,19A7,7 0 0,0 19,12A7,7 0 0,0 12,5Z" />
    </g>
    <g id="mdi-crosshairs-off" transform="translate(576 108) scale(1.5)" fill="#555">
      <path d="M20.94 11C20.5 6.83 17.17 3.5 13 3.06V1H11V3.06C9.87 3.18 8.81 3.5 7.84 4.03L9.34 5.53C10.16 5.19 11.06 5 12 5C15.87 5 19 8.13 19 12C19 12.94 18.81 13.84 18.5 14.65L20 16.15C20.5 15.19 20.82 14.13 20.95 13H23V11H20.94M3 4.27L5.04 6.31C3.97 7.62 3.25 9.23 3.06 11H1V13H3.06C3.5 17.17 6.83 20.5 11 20.94V23H13V20.94C14.77 20.74 16.38 20.03 17.69 18.96L19.73 21L21 19.73L4.27 3L3 4.27M16.27 17.54C15.09 18.45 13.61 19 12 19C8.13 19 5 15.87 5 12C5 10.39 5.55 8.91 6.46 7.73L16.27 17.54Z" />
    </g>
    <g id="mdi-crosshairs-off" transform="translate(612 108) scale(1.5)" fill="#fff">
      <path d="M20.94 11C20.5 6.83 17.17 3.5 13 3.06V1H11V3.06C9.87 3.18 8.81 3.5 7.84 4.03L9.34 5.53C10.16 5.19 11.06 5 12 5C15.87 5 19 8.13 19 12C19 12.94 18.81 13.84 18.5 14.65L20 16.15C20.5 15.19 20.82 14.13 20.95 13H23V11H20.94M3 4.27L5.04 6.31C3.97 7.62 3.25 9.23 3.06 11H1V13H3.06C3.5 17.17 6.83 20.5 11 20.94V23H13V20.94C14.77 20.74 16.38 20.03 17.69 18.96L19.73 21L21 19.73L4.27 3L3 4.27M16.27 17.54C15.09 18.45 13.61 19 12 19C8.13 19 5 15.87 5 12C5 10.39 5.55 8.91 6.46 7.73L16.27 17.54Z" />
    </g>
    <g id="mdi-crosshairs-question" transform="translate(648 108) scale(1.5)" fill="#555">
      <path d="M3.05 13H1V11H3.05C3.5 6.83 6.83 3.5 11 3.05V1H13V3.05C17.17 3.5 20.5 6.83 20.95 11H23V13H20.95C20.5 17.17 17.17 20.5 13 20.95V23H11V20.95C6.83 20.5 3.5 17.17 3.05 13M12 5C8.13 5 5 8.13 5 12S8.13 19 12 19 19 15.87 19 12 15.87 5 12 5M11.13 17.25H12.88V15.5H11.13V17.25M12 6.75C10.07 6.75 8.5 8.32 8.5 10.25H10.25C10.25 9.28 11.03 8.5 12 8.5S13.75 9.28 13.75 10.25C13.75 12 11.13 11.78 11.13 14.63H12.88C12.88 12.66 15.5 12.44 15.5 10.25C15.5 8.32 13.93 6.75 12 6.75Z" />
    </g>
    <g id="mdi-crosshairs-question" transform="translate(684 108) scale(1.5)" fill="#fff">
      <path d="M3.05 13H1V11H3.05C3.5 6.83 6.83 3.5 11 3.05V1H13V3.05C17.17 3.5 20.5 6.83 20.95 11H23V13H20.95C20.5 17.17 17.17 20.5 13 20.95V23H11V20.95C6.83 20.5 3.5 17.17 3.05 13M12 5C8.13 5 5 8.13 5 12S8.13 19 12 19 19 15.87 19 12 15.87 5 12 5M11.13 17.25H12.88V15.5H11.13V17.25M12 6.75C10.07 6.75 8.5 8.32 8.5 10.25H10.25C10.25 9.28 11.03 8.5 12 8.5S13.75 9.28 13.75 10.25C13.75 12 11.13 11.78 11.13 14.63H12.88C12.88 12.66 15.5 12.44 15.5 10.25C15.5 8.32 13.93 6.75 12 6.75Z" />
    </g>
    <g id="mdi-crown" transform="translate(0 144) scale(1.5)" fill="#555">
      <path d="M5 16L3 5L8.5 10L12 4L15.5 10L21 5L19 16H5M19 19C19 19.6 18.6 20 18 20H6C5.4 20 5 19.6 5 19V18H19V19Z" />
    </g>
    <g id="mdi-crown" transform="translate(36 144) scale(1.5)" fill="#fff">
      <path d="M5 16L3 5L8.5 10L12 4L15.5 10L21 5L19 16H5M19 19C19 19.6 18.6 20 18 20H6C5.4 20 5 19.6 5 19V18H19V19Z" />
    </g>
    <g id="mdi-crown-outline" transform="translate(72 144) scale(1.5)" fill="#555">
      <path d="M12 8L15 13.2L18 10.5L17.3 14H6.7L6 10.5L9 13.2L12 8M12 4L8.5 10L3 5L5 16H19L21 5L15.5 10L12 4M19 18H5V19C5 19.6 5.4 20 6 20H18C18.6 20 19 19.6 19 19V18Z" />
    </g>
    <g id="mdi-crown-outline" transform="translate(108 144) scale(1.5)" fill="#fff">
      <path d="M12 8L15 13.2L18 10.5L17.3 14H6.7L6 10.5L9 13.2L12 8M12 4L8.5 10L3 5L5 16H19L21 5L15.5 10L12 4M19 18H5V19C5 19.6 5.4 20 6 20H18C18.6 20 19 19.6 19 19V18Z" />
    </g>
    <g id="mdi-cryengine" transform="translate(144 144) scale(1.5)" fill="#555">
      <path d="M23.03,12.4M23.03,12.5V12.5C23,13 20.91,15.23 17.82,16.24C14.05,17.5 7.97,17.03 7.97,12.3C7.97,10.08 9.78,8.27 12,8.27C14.25,8.27 16.05,10.09 16.05,12.31C16.05,13.39 15.58,14.44 14.87,15.18C15.54,15.17 17.94,15 20.21,13.12C20.46,12.88 20.62,12.68 20.69,12.55C20.71,12.5 20.74,12.46 20.73,12.4C20.73,11.92 18.12,8.19 12.72,7.12C19.22,7.46 23,11.32 23.03,12.4V12.5H23.03M12,10C10.74,10 9.71,11.04 9.71,12.3C9.71,13.57 10.74,14.59 12,14.59C13.27,14.59 14.29,13.57 14.29,12.3C14.29,11.04 13.27,10 12,10M3.31,12.34C3.31,12.34 3.31,12.31 3.31,12.42V12.42C3.41,12.94 4.82,15.41 10.28,16.88C3.96,16.37 1.12,13.28 1.04,12.42H1.03C1.03,12.31 1.03,12.36 1.03,12.35C1.03,11.5 4.96,7.58 10.92,7.15C6.14,8.26 3.31,11.87 3.31,12.34V12.34Z" />
    </g>
    <g id="mdi-cryengine" transform="translate(180 144) scale(1.5)" fill="#fff">
      <path d="M23.03,12.4M23.03,12.5V12.5C23,13 20.91,15.23 17.82,16.24C14.05,17.5 7.97,17.03 7.97,12.3C7.97,10.08 9.78,8.27 12,8.27C14.25,8.27 16.05,10.09 16.05,12.31C16.05,13.39 15.58,14.44 14.87,15.18C15.54,15.17 17.94,15 20.21,13.12C20.46,12.88 20.62,12.68 20.69,12.55C20.71,12.5 20.74,12.46 20.73,12.4C20.73,11.92 18.12,8.19 12.72,7.12C19.22,7.46 23,11.32 23.03,12.4V12.5H23.03M12,10C10.74,10 9.71,11.04 9.71,12.3C9.71,13.57 10.74,14.59 12,14.59C13.27,14.59 14.29,13.57 14.29,12.3C14.29,11.04 13.27,10 12,10M3.31,12.34C3.31,12.34 3.31,12.31 3.31,12.42V12.42C3.41,12.94 4.82,15.41 10.28,16.88C3.96,16.37 1.12,13.28 1.04,12.42H1.03C1.03,12.31 1.03,12.36 1.03,12.35C1.03,11.5 4.96,7.58 10.92,7.15C6.14,8.26 3.31,11.87 3.31,12.34V12.34Z" />
    </g>
    <g id="mdi-crystal-ball" transform="translate(216 144) scale(1.5)" fill="#555">
      <path d="M9.38,8.38L11.5,9.34L13.62,8.38L12.66,10.5L13.62,12.62L11.5,11.66L9.38,12.62L10.34,10.5L9.38,8.38M16.5,2.5L17.59,5.41L20.5,6.5L17.59,7.59L16.5,10.5L15.41,7.59L12.5,6.5L15.41,5.41L16.5,2.5M6,19H7V18A1,1 0 0,1 8,17H8.26C6,15.7 4.5,13.28 4.5,10.5A7.5,7.5 0 0,1 12,3C13.05,3 14.05,3.22 14.96,3.61L14.59,4.59L13.17,5.12C12.79,5.04 12.4,5 12,5A5.5,5.5 0 0,0 6.5,10.5A5.5,5.5 0 0,0 12,16C14.91,16 17.3,13.73 17.5,10.87L18.41,8.41L19.12,8.14C19.37,8.88 19.5,9.68 19.5,10.5C19.5,13.28 18,15.7 15.74,17H16A1,1 0 0,1 17,18V19H18A2,2 0 0,1 20,21V22H4V21A2,2 0 0,1 6,19Z" />
    </g>
    <g id="mdi-crystal-ball" transform="translate(252 144) scale(1.5)" fill="#fff">
      <path d="M9.38,8.38L11.5,9.34L13.62,8.38L12.66,10.5L13.62,12.62L11.5,11.66L9.38,12.62L10.34,10.5L9.38,8.38M16.5,2.5L17.59,5.41L20.5,6.5L17.59,7.59L16.5,10.5L15.41,7.59L12.5,6.5L15.41,5.41L16.5,2.5M6,19H7V18A1,1 0 0,1 8,17H8.26C6,15.7 4.5,13.28 4.5,10.5A7.5,7.5 0 0,1 12,3C13.05,3 14.05,3.22 14.96,3.61L14.59,4.59L13.17,5.12C12.79,5.04 12.4,5 12,5A5.5,5.5 0 0,0 6.5,10.5A5.5,5.5 0 0,0 12,16C14.91,16 17.3,13.73 17.5,10.87L18.41,8.41L19.12,8.14C19.37,8.88 19.5,9.68 19.5,10.5C19.5,13.28 18,15.7 15.74,17H16A1,1 0 0,1 17,18V19H18A2,2 0 0,1 20,21V22H4V21A2,2 0 0,1 6,19Z" />
    </g>
    <g id="mdi-cube" transform="translate(288 144) scale(1.5)" fill="#555">
      <path d="M21,16.5C21,16.88 20.79,17.21 20.47,17.38L12.57,21.82C12.41,21.94 12.21,22 12,22C11.79,22 11.59,21.94 11.43,21.82L3.53,17.38C3.21,17.21 3,16.88 3,16.5V7.5C3,7.12 3.21,6.79 3.53,6.62L11.43,2.18C11.59,2.06 11.79,2 12,2C12.21,2 12.41,2.06 12.57,2.18L20.47,6.62C20.79,6.79 21,7.12 21,7.5V16.5M12,4.15L6.04,7.5L12,10.85L17.96,7.5L12,4.15Z" />
    </g>
    <g id="mdi-cube" transform="translate(324 144) scale(1.5)" fill="#fff">
      <path d="M21,16.5C21,16.88 20.79,17.21 20.47,17.38L12.57,21.82C12.41,21.94 12.21,22 12,22C11.79,22 11.59,21.94 11.43,21.82L3.53,17.38C3.21,17.21 3,16.88 3,16.5V7.5C3,7.12 3.21,6.79 3.53,6.62L11.43,2.18C11.59,2.06 11.79,2 12,2C12.21,2 12.41,2.06 12.57,2.18L20.47,6.62C20.79,6.79 21,7.12 21,7.5V16.5M12,4.15L6.04,7.5L12,10.85L17.96,7.5L12,4.15Z" />
    </g>
    <g id="mdi-cube-outline" transform="translate(360 144) scale(1.5)" fill="#555">
      <path d="M21,16.5C21,16.88 20.79,17.21 20.47,17.38L12.57,21.82C12.41,21.94 12.21,22 12,22C11.79,22 11.59,21.94 11.43,21.82L3.53,17.38C3.21,17.21 3,16.88 3,16.5V7.5C3,7.12 3.21,6.79 3.53,6.62L11.43,2.18C11.59,2.06 11.79,2 12,2C12.21,2 12.41,2.06 12.57,2.18L20.47,6.62C20.79,6.79 21,7.12 21,7.5V16.5M12,4.15L6.04,7.5L12,10.85L17.96,7.5L12,4.15M5,15.91L11,19.29V12.58L5,9.21V15.91M19,15.91V9.21L13,12.58V19.29L19,15.91Z" />
    </g>
    <g id="mdi-cube-outline" transform="translate(396 144) scale(1.5)" fill="#fff">
      <path d="M21,16.5C21,16.88 20.79,17.21 20.47,17.38L12.57,21.82C12.41,21.94 12.21,22 12,22C11.79,22 11.59,21.94 11.43,21.82L3.53,17.38C3.21,17.21 3,16.88 3,16.5V7.5C3,7.12 3.21,6.79 3.53,6.62L11.43,2.18C11.59,2.06 11.79,2 12,2C12.21,2 12.41,2.06 12.57,2.18L20.47,6.62C20.79,6.79 21,7.12 21,7.5V16.5M12,4.15L6.04,7.5L12,10.85L17.96,7.5L12,4.15M5,15.91L11,19.29V12.58L5,9.21V15.91M19,15.91V9.21L13,12.58V19.29L19,15.91Z" />
    </g>
    <g id="mdi-cube-scan" transform="translate(432 144) scale(1.5)" fill="#555">
      <path d="M17,22V20H20V17H22V20.5C22,20.89 21.84,21.24 21.54,21.54C21.24,21.84 20.89,22 20.5,22H17M7,22H3.5C3.11,22 2.76,21.84 2.46,21.54C2.16,21.24 2,20.89 2,20.5V17H4V20H7V22M17,2H20.5C20.89,2 21.24,2.16 21.54,2.46C21.84,2.76 22,3.11 22,3.5V7H20V4H17V2M7,2V4H4V7H2V3.5C2,3.11 2.16,2.76 2.46,2.46C2.76,2.16 3.11,2 3.5,2H7M13,17.25L17,14.95V10.36L13,12.66V17.25M12,10.92L16,8.63L12,6.28L8,8.63L12,10.92M7,14.95L11,17.25V12.66L7,10.36V14.95M18.23,7.59C18.73,7.91 19,8.34 19,8.91V15.23C19,15.8 18.73,16.23 18.23,16.55L12.75,19.73C12.25,20.05 11.75,20.05 11.25,19.73L5.77,16.55C5.27,16.23 5,15.8 5,15.23V8.91C5,8.34 5.27,7.91 5.77,7.59L11.25,4.41C11.5,4.28 11.75,4.22 12,4.22C12.25,4.22 12.5,4.28 12.75,4.41L18.23,7.59Z" />
    </g>
    <g id="mdi-cube-scan" transform="translate(468 144) scale(1.5)" fill="#fff">
      <path d="M17,22V20H20V17H22V20.5C22,20.89 21.84,21.24 21.54,21.54C21.24,21.84 20.89,22 20.5,22H17M7,22H3.5C3.11,22 2.76,21.84 2.46,21.54C2.16,21.24 2,20.89 2,20.5V17H4V20H7V22M17,2H20.5C20.89,2 21.24,2.16 21.54,2.46C21.84,2.76 22,3.11 22,3.5V7H20V4H17V2M7,2V4H4V7H2V3.5C2,3.11 2.16,2.76 2.46,2.46C2.76,2.16 3.11,2 3.5,2H7M13,17.25L17,14.95V10.36L13,12.66V17.25M12,10.92L16,8.63L12,6.28L8,8.63L12,10.92M7,14.95L11,17.25V12.66L7,10.36V14.95M18.23,7.59C18.73,7.91 19,8.34 19,8.91V15.23C19,15.8 18.73,16.23 18.23,16.55L12.75,19.73C12.25,20.05 11.75,20.05 11.25,19.73L5.77,16.55C5.27,16.23 5,15.8 5,15.23V8.91C5,8.34 5.27,7.91 5.77,7.59L11.25,4.41C11.5,4.28 11.75,4.22 12,4.22C12.25,4.22 12.5,4.28 12.75,4.41L18.23,7.59Z" />
    </g>
    <g id="mdi-cube-send" transform="translate(504 144) scale(1.5)" fill="#555">
      <path d="M16,4L9,8.04V15.96L16,20L23,15.96V8.04M16,6.31L19.8,8.5L16,10.69L12.21,8.5M0,7V9H7V7M11,10.11L15,12.42V17.11L11,14.81M21,10.11V14.81L17,17.11V12.42M2,11V13H7V11M4,15V17H7V15" />
    </g>
    <g id="mdi-cube-send" transform="translate(540 144) scale(1.5)" fill="#fff">
      <path d="M16,4L9,8.04V15.96L16,20L23,15.96V8.04M16,6.31L19.8,8.5L16,10.69L12.21,8.5M0,7V9H7V7M11,10.11L15,12.42V17.11L11,14.81M21,10.11V14.81L17,17.11V12.42M2,11V13H7V11M4,15V17H7V15" />
    </g>
    <g id="mdi-cube-unfolded" transform="translate(576 144) scale(1.5)" fill="#555">
      <path d="M6,9V4H13V9H23V16H18V21H11V16H1V9H6M16,16H13V19H16V16M8,9H11V6H8V9M6,14V11H3V14H6M18,11V14H21V11H18M13,11V14H16V11H13M8,11V14H11V11H8Z" />
    </g>
    <g id="mdi-cube-unfolded" transform="translate(612 144) scale(1.5)" fill="#fff">
      <path d="M6,9V4H13V9H23V16H18V21H11V16H1V9H6M16,16H13V19H16V16M8,9H11V6H8V9M6,14V11H3V14H6M18,11V14H21V11H18M13,11V14H16V11H13M8,11V14H11V11H8Z" />
    </g>
    <g id="mdi-cup" transform="translate(648 144) scale(1.5)" fill="#555">
      <path d="M18.32,8H5.67L5.23,4H18.77M3,2L5,20.23C5.13,21.23 5.97,22 7,22H17C18,22 18.87,21.23 19,20.23L21,2H3Z" />
    </g>
    <g id="mdi-cup" transform="translate(684 144) scale(1.5)" fill="#fff">
      <path d="M18.32,8H5.67L5.23,4H18.77M3,2L5,20.23C5.13,21.23 5.97,22 7,22H17C18,22 18.87,21.23 19,20.23L21,2H3Z" />
    </g>
    <g id="mdi-cup-off" transform="translate(0 180) scale(1.5)" fill="#555">
      <path d="M1,4.27L2.28,3L21,21.72L19.73,23L18.27,21.54C17.93,21.83 17.5,22 17,22H7C5.97,22 5.13,21.23 5,20.23L3.53,6.8L1,4.27M18.32,8L18.77,4H5.82L3.82,2H21L19.29,17.47L9.82,8H18.32Z" />
    </g>
    <g id="mdi-cup-off" transform="translate(36 180) scale(1.5)" fill="#fff">
      <path d="M1,4.27L2.28,3L21,21.72L19.73,23L18.27,21.54C17.93,21.83 17.5,22 17,22H7C5.97,22 5.13,21.23 5,20.23L3.53,6.8L1,4.27M18.32,8L18.77,4H5.82L3.82,2H21L19.29,17.47L9.82,8H18.32Z" />
    </g>
    <g id="mdi-cup-off-outline" transform="translate(72 180) scale(1.5)" fill="#555">
      <path d="M3.83 2L5.83 4H18.78L17.5 15.66L19.3 17.5L21 2M2.27 3L1 4.27L3.53 6.8L5 20.23C5.13 21.23 5.97 22 7 22H17C17.47 22 17.91 21.82 18.26 21.54L19.73 23L21 21.73M5.78 9.06L16.73 20H7Z" />
    </g>
    <g id="mdi-cup-off-outline" transform="translate(108 180) scale(1.5)" fill="#fff">
      <path d="M3.83 2L5.83 4H18.78L17.5 15.66L19.3 17.5L21 2M2.27 3L1 4.27L3.53 6.8L5 20.23C5.13 21.23 5.97 22 7 22H17C17.47 22 17.91 21.82 18.26 21.54L19.73 23L21 21.73M5.78 9.06L16.73 20H7Z" />
    </g>
    <g id="mdi-cup-outline" transform="translate(144 180) scale(1.5)" fill="#555">
      <path d="M3 2L5 20.23C5.13 21.23 5.97 22 7 22H17C18 22 18.87 21.23 19 20.23L21 2H3M5.22 4H18.78L17 20H7L5.22 4Z" />
    </g>
    <g id="mdi-cup-outline" transform="translate(180 180) scale(1.5)" fill="#fff">
      <path d="M3 2L5 20.23C5.13 21.23 5.97 22 7 22H17C18 22 18.87 21.23 19 20.23L21 2H3M5.22 4H18.78L17 20H7L5.22 4Z" />
    </g>
    <g id="mdi-cup-water" transform="translate(216 180) scale(1.5)" fill="#555">
      <path d="M18.32,8H5.67L5.23,4H18.77M12,19A3,3 0 0,1 9,16C9,14 12,10.6 12,10.6C12,10.6 15,14 15,16A3,3 0 0,1 12,19M3,2L5,20.23C5.13,21.23 5.97,22 7,22H17C18,22 18.87,21.23 19,20.23L21,2H3Z" />
    </g>
    <g id="mdi-cup-water" transform="translate(252 180) scale(1.5)" fill="#fff">
      <path d="M18.32,8H5.67L5.23,4H18.77M12,19A3,3 0 0,1 9,16C9,14 12,10.6 12,10.6C12,10.6 15,14 15,16A3,3 0 0,1 12,19M3,2L5,20.23C5.13,21.23 5.97,22 7,22H17C18,22 18.87,21.23 19,20.23L21,2H3Z" />
    </g>
    <g id="mdi-cupboard" transform="translate(288 180) scale(1.5)" fill="#555">
      <path d="M17 2H7C5.9 2 5 2.9 5 4V19C5 20.11 5.9 21 7 21V22H9V21H15V22H17V21C18.11 21 19 20.11 19 19V4C19 2.9 18.11 2 17 2M10 18H8V15H10V18M16 18H14V15H16V18M17 12H7V9H17V12M17 7H7V4H17V7Z" />
    </g>
    <g id="mdi-cupboard" transform="translate(324 180) scale(1.5)" fill="#fff">
      <path d="M17 2H7C5.9 2 5 2.9 5 4V19C5 20.11 5.9 21 7 21V22H9V21H15V22H17V21C18.11 21 19 20.11 19 19V4C19 2.9 18.11 2 17 2M10 18H8V15H10V18M16 18H14V15H16V18M17 12H7V9H17V12M17 7H7V4H17V7Z" />
    </g>
    <g id="mdi-cupboard-outline" transform="translate(360 180) scale(1.5)" fill="#555">
      <path d="M7 2C5.9 2 5 2.9 5 4V19C5 20.11 5.9 21 7 21V22H9V21H15V22H17V21C18.11 21 19 20.11 19 19V4C19 2.9 18.11 2 17 2H7M7 4H17V7H7V4M7 9H17V12H7V9M7 14H11V19H7V14M13 14H17V19H13V14M8 15V18H10V15H8M14 15V18H16V15H14Z" />
    </g>
    <g id="mdi-cupboard-outline" transform="translate(396 180) scale(1.5)" fill="#fff">
      <path d="M7 2C5.9 2 5 2.9 5 4V19C5 20.11 5.9 21 7 21V22H9V21H15V22H17V21C18.11 21 19 20.11 19 19V4C19 2.9 18.11 2 17 2H7M7 4H17V7H7V4M7 9H17V12H7V9M7 14H11V19H7V14M13 14H17V19H13V14M8 15V18H10V15H8M14 15V18H16V15H14Z" />
    </g>
    <g id="mdi-cupcake" transform="translate(432 180) scale(1.5)" fill="#555">
      <path d="M12,1.5A2.5,2.5 0 0,1 14.5,4A2.5,2.5 0 0,1 12,6.5A2.5,2.5 0 0,1 9.5,4A2.5,2.5 0 0,1 12,1.5M15.87,5C18,5 20,7 20,9C22.7,9 22.7,13 20,13H4C1.3,13 1.3,9 4,9C4,7 6,5 8.13,5C8.57,6.73 10.14,8 12,8C13.86,8 15.43,6.73 15.87,5M5,15H8L9,22H7L5,15M10,15H14L13,22H11L10,15M16,15H19L17,22H15L16,15Z" />
    </g>
    <g id="mdi-cupcake" transform="translate(468 180) scale(1.5)" fill="#fff">
      <path d="M12,1.5A2.5,2.5 0 0,1 14.5,4A2.5,2.5 0 0,1 12,6.5A2.5,2.5 0 0,1 9.5,4A2.5,2.5 0 0,1 12,1.5M15.87,5C18,5 20,7 20,9C22.7,9 22.7,13 20,13H4C1.3,13 1.3,9 4,9C4,7 6,5 8.13,5C8.57,6.73 10.14,8 12,8C13.86,8 15.43,6.73 15.87,5M5,15H8L9,22H7L5,15M10,15H14L13,22H11L10,15M16,15H19L17,22H15L16,15Z" />
    </g>
    <g id="mdi-curling" transform="translate(504 180) scale(1.5)" fill="#555">
      <path d="M10,3V5C12.5,5 13.9,5.05 14.72,5.41C15.26,5.65 15.73,6.21 16.25,7H5V9H19.62L18.89,7.55C17.86,5.5 16.96,4.22 15.53,3.59C14.1,2.95 12.5,3 10,3M6,11C3.78,11 2,12.78 2,15V18C2,20.22 3.78,22 6,22H18C20.22,22 22,20.22 22,18V15C22,12.78 20.22,11 18,11H6Z" />
    </g>
    <g id="mdi-curling" transform="translate(540 180) scale(1.5)" fill="#fff">
      <path d="M10,3V5C12.5,5 13.9,5.05 14.72,5.41C15.26,5.65 15.73,6.21 16.25,7H5V9H19.62L18.89,7.55C17.86,5.5 16.96,4.22 15.53,3.59C14.1,2.95 12.5,3 10,3M6,11C3.78,11 2,12.78 2,15V18C2,20.22 3.78,22 6,22H18C20.22,22 22,20.22 22,18V15C22,12.78 20.22,11 18,11H6Z" />
    </g>
    <g id="mdi-currency-bdt" transform="translate(576 180) scale(1.5)" fill="#555">
      <path d="M18.09,10.5V9H9.59V4.5A1.5,1.5 0 0,0 8.09,3A1.5,1.5 0 0,0 6.59,4.5A1.5,1.5 0 0,0 8.09,6V9H5.09V10.5H8.09V16.7C8.09,19.06 10,20.97 12.34,21C14.68,20.96 16.54,19.04 16.5,16.7C16.5,15.11 15.75,13.61 14.5,12.62C14.28,12.44 14.05,12.28 13.8,12.15C13.58,12.05 13.34,12 13.1,12C12.39,12 11.74,12.39 11.39,13C11.2,13.3 11.1,13.65 11.1,14C11.11,15.1 12,16 13.11,16C13.73,16 14.31,15.69 14.69,15.2C14.9,15.67 15,16.18 15,16.7C15.04,18.2 13.86,19.45 12.34,19.5C10.81,19.5 9.58,18.23 9.59,16.7V10.5H18.09Z" />
    </g>
    <g id="mdi-currency-bdt" transform="translate(612 180) scale(1.5)" fill="#fff">
      <path d="M18.09,10.5V9H9.59V4.5A1.5,1.5 0 0,0 8.09,3A1.5,1.5 0 0,0 6.59,4.5A1.5,1.5 0 0,0 8.09,6V9H5.09V10.5H8.09V16.7C8.09,19.06 10,20.97 12.34,21C14.68,20.96 16.54,19.04 16.5,16.7C16.5,15.11 15.75,13.61 14.5,12.62C14.28,12.44 14.05,12.28 13.8,12.15C13.58,12.05 13.34,12 13.1,12C12.39,12 11.74,12.39 11.39,13C11.2,13.3 11.1,13.65 11.1,14C11.11,15.1 12,16 13.11,16C13.73,16 14.31,15.69 14.69,15.2C14.9,15.67 15,16.18 15,16.7C15.04,18.2 13.86,19.45 12.34,19.5C10.81,19.5 9.58,18.23 9.59,16.7V10.5H18.09Z" />
    </g>
    <g id="mdi-currency-brl" transform="translate(648 180) scale(1.5)" fill="#555">
      <path d="M12,15H14C14,16.08 15.37,17 17,17C18.63,17 20,16.08 20,15C20,13.9 18.96,13.5 16.76,12.97C14.64,12.44 12,11.78 12,9C12,7.21 13.47,5.69 15.5,5.18V3H18.5V5.18C20.53,5.69 22,7.21 22,9H20C20,7.92 18.63,7 17,7C15.37,7 14,7.92 14,9C14,10.1 15.04,10.5 17.24,11.03C19.36,11.56 22,12.22 22,15C22,16.79 20.53,18.31 18.5,18.82V21H15.5V18.82C13.47,18.31 12,16.79 12,15M2,3H5.5A5.5,5.5 0 0,1 11,8.5C11,10.69 9.71,12.59 7.86,13.47L11.64,21H9.4L5.88,14H5.5L4,14V21H2V3M5.5,12A3.5,3.5 0 0,0 9,8.5A3.5,3.5 0 0,0 5.5,5H4V12H5.5Z" />
    </g>
    <g id="mdi-currency-brl" transform="translate(684 180) scale(1.5)" fill="#fff">
      <path d="M12,15H14C14,16.08 15.37,17 17,17C18.63,17 20,16.08 20,15C20,13.9 18.96,13.5 16.76,12.97C14.64,12.44 12,11.78 12,9C12,7.21 13.47,5.69 15.5,5.18V3H18.5V5.18C20.53,5.69 22,7.21 22,9H20C20,7.92 18.63,7 17,7C15.37,7 14,7.92 14,9C14,10.1 15.04,10.5 17.24,11.03C19.36,11.56 22,12.22 22,15C22,16.79 20.53,18.31 18.5,18.82V21H15.5V18.82C13.47,18.31 12,16.79 12,15M2,3H5.5A5.5,5.5 0 0,1 11,8.5C11,10.69 9.71,12.59 7.86,13.47L11.64,21H9.4L5.88,14H5.5L4,14V21H2V3M5.5,12A3.5,3.5 0 0,0 9,8.5A3.5,3.5 0 0,0 5.5,5H4V12H5.5Z" />
    </g>
    <g id="mdi-currency-btc" transform="translate(0 216) scale(1.5)" fill="#555">
      <path d="M6,4H8V2H10V4H12V2H14V4.03C16.25,4.28 18,6.18 18,8.5C18,9.8 17.45,11 16.56,11.8C17.73,12.61 18.5,13.97 18.5,15.5C18.5,18 16.5,20 14,20V22H12V20H10V22H8V20H6L6.5,18H8V6H6V4M10,13V18H14A2.5,2.5 0 0,0 16.5,15.5A2.5,2.5 0 0,0 14,13H10M10,6V11H13.5A2.5,2.5 0 0,0 16,8.5A2.5,2.5 0 0,0 13.5,6H13.5L10,6Z" />
    </g>
    <g id="mdi-currency-btc" transform="translate(36 216) scale(1.5)" fill="#fff">
      <path d="M6,4H8V2H10V4H12V2H14V4.03C16.25,4.28 18,6.18 18,8.5C18,9.8 17.45,11 16.56,11.8C17.73,12.61 18.5,13.97 18.5,15.5C18.5,18 16.5,20 14,20V22H12V20H10V22H8V20H6L6.5,18H8V6H6V4M10,13V18H14A2.5,2.5 0 0,0 16.5,15.5A2.5,2.5 0 0,0 14,13H10M10,6V11H13.5A2.5,2.5 0 0,0 16,8.5A2.5,2.5 0 0,0 13.5,6H13.5L10,6Z" />
    </g>
    <g id="mdi-currency-cny" transform="translate(72 216) scale(1.5)" fill="#555">
      <path d="M11,21V16H6V14H11V13.71L10.16,12H6V10H9.19L5.77,3H8L12,11.2L16,3H18.23L14.81,10H18V12H13.84L13,13.71V14H18V16H13V21H11Z" />
    </g>
    <g id="mdi-currency-cny" transform="translate(108 216) scale(1.5)" fill="#fff">
      <path d="M11,21V16H6V14H11V13.71L10.16,12H6V10H9.19L5.77,3H8L12,11.2L16,3H18.23L14.81,10H18V12H13.84L13,13.71V14H18V16H13V21H11Z" />
    </g>
    <g id="mdi-currency-eth" transform="translate(144 216) scale(1.5)" fill="#555">
      <path d="M6,5H18V7H6M7,11H17V13H7M5.5,17H18.5V19H5.5" />
    </g>
    <g id="mdi-currency-eth" transform="translate(180 216) scale(1.5)" fill="#fff">
      <path d="M6,5H18V7H6M7,11H17V13H7M5.5,17H18.5V19H5.5" />
    </g>
    <g id="mdi-currency-eur" transform="translate(216 216) scale(1.5)" fill="#555">
      <path d="M7.07,11L7,12L7.07,13H17.35L16.5,15H7.67C8.8,17.36 11.21,19 14,19C16.23,19 18.22,17.96 19.5,16.33V19.12C18,20.3 16.07,21 14,21C10.08,21 6.75,18.5 5.5,15H2L3,13H5.05L5,12L5.05,11H2L3,9H5.5C6.75,5.5 10.08,3 14,3C16.5,3 18.8,4.04 20.43,5.71L19.57,7.75C18.29,6.08 16.27,5 14,5C11.21,5 8.8,6.64 7.67,9H19.04L18.19,11H7.07Z" />
    </g>
    <g id="mdi-currency-eur" transform="translate(252 216) scale(1.5)" fill="#fff">
      <path d="M7.07,11L7,12L7.07,13H17.35L16.5,15H7.67C8.8,17.36 11.21,19 14,19C16.23,19 18.22,17.96 19.5,16.33V19.12C18,20.3 16.07,21 14,21C10.08,21 6.75,18.5 5.5,15H2L3,13H5.05L5,12L5.05,11H2L3,9H5.5C6.75,5.5 10.08,3 14,3C16.5,3 18.8,4.04 20.43,5.71L19.57,7.75C18.29,6.08 16.27,5 14,5C11.21,5 8.8,6.64 7.67,9H19.04L18.19,11H7.07Z" />
    </g>
    <g id="mdi-currency-eur-off" transform="translate(288 216) scale(1.5)" fill="#555">
      <path d="M22.11 21.46L2.39 1.73L1.11 3L6 7.89C5.81 8.25 5.64 8.62 5.5 9H3L2 11H5.05L5 12L5.05 13H3L2 15H5.5C6.75 18.5 10.08 21 14 21C15.5 21 16.89 20.65 18.12 20L20.84 22.73L22.11 21.46M7 12L7.07 11H9.12L11.12 13H7.07L7 12M14 19C11.21 19 8.8 17.37 7.67 15H13.12L16.6 18.5C15.79 18.81 14.92 19 14 19M17 13.81L16.21 13H17.35L17 13.81M18.19 11H14.21L12.21 9H19.04L18.19 11M9.7 6.5L8.27 5.07C9.83 3.78 11.82 3 14 3C16.5 3 18.8 4.05 20.43 5.72L19.57 7.76C18.29 6.09 16.27 5 14 5C12.38 5 10.89 5.58 9.7 6.5Z" />
    </g>
    <g id="mdi-currency-eur-off" transform="translate(324 216) scale(1.5)" fill="#fff">
      <path d="M22.11 21.46L2.39 1.73L1.11 3L6 7.89C5.81 8.25 5.64 8.62 5.5 9H3L2 11H5.05L5 12L5.05 13H3L2 15H5.5C6.75 18.5 10.08 21 14 21C15.5 21 16.89 20.65 18.12 20L20.84 22.73L22.11 21.46M7 12L7.07 11H9.12L11.12 13H7.07L7 12M14 19C11.21 19 8.8 17.37 7.67 15H13.12L16.6 18.5C15.79 18.81 14.92 19 14 19M17 13.81L16.21 13H17.35L17 13.81M18.19 11H14.21L12.21 9H19.04L18.19 11M9.7 6.5L8.27 5.07C9.83 3.78 11.82 3 14 3C16.5 3 18.8 4.05 20.43 5.72L19.57 7.76C18.29 6.09 16.27 5 14 5C12.38 5 10.89 5.58 9.7 6.5Z" />
    </g>
    <g id="mdi-currency-gbp" transform="translate(360 216) scale(1.5)" fill="#555">
      <path d="M6,21V19C10,17 9.5,13 9.5,13H7V11H9.5C8.5,6.5 10,3 14,3C16,3 17,3.5 17,3.5V5.5C11,3.5 11,8 11.5,11H16V13H11.5C11.5,13 12,17 9.5,19H18V21H6Z" />
    </g>
    <g id="mdi-currency-gbp" transform="translate(396 216) scale(1.5)" fill="#fff">
      <path d="M6,21V19C10,17 9.5,13 9.5,13H7V11H9.5C8.5,6.5 10,3 14,3C16,3 17,3.5 17,3.5V5.5C11,3.5 11,8 11.5,11H16V13H11.5C11.5,13 12,17 9.5,19H18V21H6Z" />
    </g>
    <g id="mdi-currency-ils" transform="translate(432 216) scale(1.5)" fill="#555">
      <path d="M22,16A5,5 0 0,1 17,21H8V9H10V19H17A3,3 0 0,0 20,16V3H22V16M16,8V15H14V8A3,3 0 0,0 11,5H4V21H2V3H11A5,5 0 0,1 16,8Z" />
    </g>
    <g id="mdi-currency-ils" transform="translate(468 216) scale(1.5)" fill="#fff">
      <path d="M22,16A5,5 0 0,1 17,21H8V9H10V19H17A3,3 0 0,0 20,16V3H22V16M16,8V15H14V8A3,3 0 0,0 11,5H4V21H2V3H11A5,5 0 0,1 16,8Z" />
    </g>
    <g id="mdi-currency-inr" transform="translate(504 216) scale(1.5)" fill="#555">
      <path d="M8,3H18L17,5H13.74C14.22,5.58 14.58,6.26 14.79,7H18L17,9H15C14.75,11.57 12.74,13.63 10.2,13.96V14H9.5L15.5,21H13L7,14V12H9.5V12C11.26,12 12.72,10.7 12.96,9H7L8,7H12.66C12.1,5.82 10.9,5 9.5,5H7L8,3Z" />
    </g>
    <g id="mdi-currency-inr" transform="translate(540 216) scale(1.5)" fill="#fff">
      <path d="M8,3H18L17,5H13.74C14.22,5.58 14.58,6.26 14.79,7H18L17,9H15C14.75,11.57 12.74,13.63 10.2,13.96V14H9.5L15.5,21H13L7,14V12H9.5V12C11.26,12 12.72,10.7 12.96,9H7L8,7H12.66C12.1,5.82 10.9,5 9.5,5H7L8,3Z" />
    </g>
    <g id="mdi-currency-jpy" transform="translate(576 216) scale(1.5)" fill="#555">
      <path d="M11,21V16H6V14H11V13.71L10.16,12H6V10H9.19L5.77,3H8L12,11.2L16,3H18.23L14.81,10H18V12H13.84L13,13.71V14H18V16H13V21H11Z" />
    </g>
    <g id="mdi-currency-jpy" transform="translate(612 216) scale(1.5)" fill="#fff">
      <path d="M11,21V16H6V14H11V13.71L10.16,12H6V10H9.19L5.77,3H8L12,11.2L16,3H18.23L14.81,10H18V12H13.84L13,13.71V14H18V16H13V21H11Z" />
    </g>
    <g id="mdi-currency-krw" transform="translate(648 216) scale(1.5)" fill="#555">
      <path d="M2,3H4L5.33,9H9.33L10.67,3H13.33L14.67,9H18.67L20,3H22L20.67,9H22V11H20.22L19.78,13H22V15H19.33L18,21H15.33L14,15H10L8.67,21H6L4.67,15H2V13H4.22L3.78,11H2V9H3.33L2,3M13.11,11H10.89L10.44,13H13.56L13.11,11M7.33,18L8,15H6.67L7.33,18M8.89,11H5.78L6.22,13H8.44L8.89,11M16.67,18L17.33,15H16L16.67,18M18.22,11H15.11L15.56,13H17.78L18.22,11M12,6L11.33,9H12.67L12,6Z" />
    </g>
    <g id="mdi-currency-krw" transform="translate(684 216) scale(1.5)" fill="#fff">
      <path d="M2,3H4L5.33,9H9.33L10.67,3H13.33L14.67,9H18.67L20,3H22L20.67,9H22V11H20.22L19.78,13H22V15H19.33L18,21H15.33L14,15H10L8.67,21H6L4.67,15H2V13H4.22L3.78,11H2V9H3.33L2,3M13.11,11H10.89L10.44,13H13.56L13.11,11M7.33,18L8,15H6.67L7.33,18M8.89,11H5.78L6.22,13H8.44L8.89,11M16.67,18L17.33,15H16L16.67,18M18.22,11H15.11L15.56,13H17.78L18.22,11M12,6L11.33,9H12.67L12,6Z" />
    </g>
    <g id="mdi-currency-kzt" transform="translate(0 252) scale(1.5)" fill="#555">
      <path d="M5,3H19V5H5V3M5,6H19V8H13V21H11V8H5V6Z" />
    </g>
    <g id="mdi-currency-kzt" transform="translate(36 252) scale(1.5)" fill="#fff">
      <path d="M5,3H19V5H5V3M5,6H19V8H13V21H11V8H5V6Z" />
    </g>
    <g id="mdi-currency-ngn" transform="translate(72 252) scale(1.5)" fill="#555">
      <path d="M4,9H6V3H8L11.42,9H16V3H18V9H20V11H18V13H20V15H18V21H16L12.57,15H8V21H6V15H4V13H6V11H4V9M8,9H9.13L8,7.03V9M8,11V13H11.42L10.28,11H8M16,17V15H14.85L16,17M12.56,11L13.71,13H16V11H12.56Z" />
    </g>
    <g id="mdi-currency-ngn" transform="translate(108 252) scale(1.5)" fill="#fff">
      <path d="M4,9H6V3H8L11.42,9H16V3H18V9H20V11H18V13H20V15H18V21H16L12.57,15H8V21H6V15H4V13H6V11H4V9M8,9H9.13L8,7.03V9M8,11V13H11.42L10.28,11H8M16,17V15H14.85L16,17M12.56,11L13.71,13H16V11H12.56Z" />
    </g>
    <g id="mdi-currency-php" transform="translate(144 252) scale(1.5)" fill="#555">
      <path d="M5,2V6H3V8H5V10H3V12H5V22H7V16H13C15.7,16 18.16,14.44 19.32,12H22V10H19.92C20.03,9.34 20.03,8.66 19.92,8H22V6H19.32C18.16,3.56 15.7,2 13,2M7,4H13C14.57,4 16.06,4.74 17,6H7V4M13,14H7V12H17C16.06,13.26 14.57,14 13,14M18,9C18,9.34 17.96,9.67 17.9,10H7V8H17.9C17.96,8.33 18,8.66 18,9Z" />
    </g>
    <g id="mdi-currency-php" transform="translate(180 252) scale(1.5)" fill="#fff">
      <path d="M5,2V6H3V8H5V10H3V12H5V22H7V16H13C15.7,16 18.16,14.44 19.32,12H22V10H19.92C20.03,9.34 20.03,8.66 19.92,8H22V6H19.32C18.16,3.56 15.7,2 13,2M7,4H13C14.57,4 16.06,4.74 17,6H7V4M13,14H7V12H17C16.06,13.26 14.57,14 13,14M18,9C18,9.34 17.96,9.67 17.9,10H7V8H17.9C17.96,8.33 18,8.66 18,9Z" />
    </g>
    <g id="mdi-currency-rial" transform="translate(216 252) scale(1.5)" fill="#555">
      <path d="M11,17H13V19H11V17M14,17H16V19H14V17M9,4H11V15A4,4 0 0,1 7,19H5A3,3 0 0,1 2,16V12H4V16A1,1 0 0,0 5,17H7C8.11,17 9,16.11 9,15V4M12,4H14V13H17V8H19V13C19,14.11 18.11,15 17,15H14C12.89,15 12,14.11 12,13V4M20,10H22V17A3,3 0 0,1 19,20H17V18H19A1,1 0 0,0 20,17V10Z" />
    </g>
    <g id="mdi-currency-rial" transform="translate(252 252) scale(1.5)" fill="#fff">
      <path d="M11,17H13V19H11V17M14,17H16V19H14V17M9,4H11V15A4,4 0 0,1 7,19H5A3,3 0 0,1 2,16V12H4V16A1,1 0 0,0 5,17H7C8.11,17 9,16.11 9,15V4M12,4H14V13H17V8H19V13C19,14.11 18.11,15 17,15H14C12.89,15 12,14.11 12,13V4M20,10H22V17A3,3 0 0,1 19,20H17V18H19A1,1 0 0,0 20,17V10Z" />
    </g>
    <g id="mdi-currency-rub" transform="translate(288 252) scale(1.5)" fill="#555">
      <path d="M6,10H7V3H14.5C17,3 19,5 19,7.5C19,10 17,12 14.5,12H9V14H15V16H9V21H7V16H6V14H7V12H6V10M14.5,5H9V10H14.5A2.5,2.5 0 0,0 17,7.5A2.5,2.5 0 0,0 14.5,5Z" />
    </g>
    <g id="mdi-currency-rub" transform="translate(324 252) scale(1.5)" fill="#fff">
      <path d="M6,10H7V3H14.5C17,3 19,5 19,7.5C19,10 17,12 14.5,12H9V14H15V16H9V21H7V16H6V14H7V12H6V10M14.5,5H9V10H14.5A2.5,2.5 0 0,0 17,7.5A2.5,2.5 0 0,0 14.5,5Z" />
    </g>
    <g id="mdi-currency-sign" transform="translate(360 252) scale(1.5)" fill="#555">
      <path d="M22,12C22,9.86 21.29,7.78 20,6.07L22,4.07L19.94,1.94L17.94,3.94C14.4,1.36 9.59,1.38 6.07,4L4.07,2L1.94,4.06L3.94,6.06C1.36,9.6 1.38,14.41 4,17.93L2,19.93L4.12,22.05L6.12,20.05C9.65,22.65 14.45,22.65 18,20.05L20,22.05L22.1,19.93L20.1,17.93C21.35,16.21 22,14.13 22,12M12,19A7,7 0 0,1 5,12A7,7 0 0,1 12,5A7,7 0 0,1 19,12A7,7 0 0,1 12,19Z" />
    </g>
    <g id="mdi-currency-sign" transform="translate(396 252) scale(1.5)" fill="#fff">
      <path d="M22,12C22,9.86 21.29,7.78 20,6.07L22,4.07L19.94,1.94L17.94,3.94C14.4,1.36 9.59,1.38 6.07,4L4.07,2L1.94,4.06L3.94,6.06C1.36,9.6 1.38,14.41 4,17.93L2,19.93L4.12,22.05L6.12,20.05C9.65,22.65 14.45,22.65 18,20.05L20,22.05L22.1,19.93L20.1,17.93C21.35,16.21 22,14.13 22,12M12,19A7,7 0 0,1 5,12A7,7 0 0,1 12,5A7,7 0 0,1 19,12A7,7 0 0,1 12,19Z" />
    </g>
    <g id="mdi-currency-try" transform="translate(432 252) scale(1.5)" fill="#555">
      <path d="M19,12A9,9 0 0,1 10,21H8V12.77L5,13.87V11.74L8,10.64V8.87L5,9.96V7.84L8,6.74V3H10V6L15,4.2V6.32L10,8.14V9.92L15,8.1V10.23L10,12.05V19A7,7 0 0,0 17,12H19Z" />
    </g>
    <g id="mdi-currency-try" transform="translate(468 252) scale(1.5)" fill="#fff">
      <path d="M19,12A9,9 0 0,1 10,21H8V12.77L5,13.87V11.74L8,10.64V8.87L5,9.96V7.84L8,6.74V3H10V6L15,4.2V6.32L10,8.14V9.92L15,8.1V10.23L10,12.05V19A7,7 0 0,0 17,12H19Z" />
    </g>
    <g id="mdi-currency-twd" transform="translate(504 252) scale(1.5)" fill="#555">
      <path d="M3,11H21V13H15V19H21V21H15A2,2 0 0,1 13,19V13H10.35L5.73,21L4,20L8.04,13H3V11M5,3H19V5H5V3Z" />
    </g>
    <g id="mdi-currency-twd" transform="translate(540 252) scale(1.5)" fill="#fff">
      <path d="M3,11H21V13H15V19H21V21H15A2,2 0 0,1 13,19V13H10.35L5.73,21L4,20L8.04,13H3V11M5,3H19V5H5V3Z" />
    </g>
    <g id="mdi-currency-usd" transform="translate(576 252) scale(1.5)" fill="#555">
      <path d="M7,15H9C9,16.08 10.37,17 12,17C13.63,17 15,16.08 15,15C15,13.9 13.96,13.5 11.76,12.97C9.64,12.44 7,11.78 7,9C7,7.21 8.47,5.69 10.5,5.18V3H13.5V5.18C15.53,5.69 17,7.21 17,9H15C15,7.92 13.63,7 12,7C10.37,7 9,7.92 9,9C9,10.1 10.04,10.5 12.24,11.03C14.36,11.56 17,12.22 17,15C17,16.79 15.53,18.31 13.5,18.82V21H10.5V18.82C8.47,18.31 7,16.79 7,15Z" />
    </g>
    <g id="mdi-currency-usd" transform="translate(612 252) scale(1.5)" fill="#fff">
      <path d="M7,15H9C9,16.08 10.37,17 12,17C13.63,17 15,16.08 15,15C15,13.9 13.96,13.5 11.76,12.97C9.64,12.44 7,11.78 7,9C7,7.21 8.47,5.69 10.5,5.18V3H13.5V5.18C15.53,5.69 17,7.21 17,9H15C15,7.92 13.63,7 12,7C10.37,7 9,7.92 9,9C9,10.1 10.04,10.5 12.24,11.03C14.36,11.56 17,12.22 17,15C17,16.79 15.53,18.31 13.5,18.82V21H10.5V18.82C8.47,18.31 7,16.79 7,15Z" />
    </g>
    <g id="mdi-currency-usd-circle" transform="translate(648 252) scale(1.5)" fill="#555">
      <path d="M12 2A10 10 0 1 0 22 12A10 10 0 0 0 12 2M15 10H11V11H14A1 1 0 0 1 15 12V15A1 1 0 0 1 14 16H13V17H11V16H9V14H13V13H10A1 1 0 0 1 9 12V9A1 1 0 0 1 10 8H11V7H13V8H15Z" />
    </g>
    <g id="mdi-currency-usd-circle" transform="translate(684 252) scale(1.5)" fill="#fff">
      <path d="M12 2A10 10 0 1 0 22 12A10 10 0 0 0 12 2M15 10H11V11H14A1 1 0 0 1 15 12V15A1 1 0 0 1 14 16H13V17H11V16H9V14H13V13H10A1 1 0 0 1 9 12V9A1 1 0 0 1 10 8H11V7H13V8H15Z" />
    </g>
    <g id="mdi-currency-usd-circle-outline" transform="translate(0 288) scale(1.5)" fill="#555">
      <path d="M12,2A10,10 0 0,1 22,12A10,10 0 0,1 12,22A10,10 0 0,1 2,12A10,10 0 0,1 12,2M12,4A8,8 0 0,0 4,12A8,8 0 0,0 12,20A8,8 0 0,0 20,12A8,8 0 0,0 12,4M11,17V16H9V14H13V13H10A1,1 0 0,1 9,12V9A1,1 0 0,1 10,8H11V7H13V8H15V10H11V11H14A1,1 0 0,1 15,12V15A1,1 0 0,1 14,16H13V17H11Z" />
    </g>
    <g id="mdi-currency-usd-circle-outline" transform="translate(36 288) scale(1.5)" fill="#fff">
      <path d="M12,2A10,10 0 0,1 22,12A10,10 0 0,1 12,22A10,10 0 0,1 2,12A10,10 0 0,1 12,2M12,4A8,8 0 0,0 4,12A8,8 0 0,0 12,20A8,8 0 0,0 20,12A8,8 0 0,0 12,4M11,17V16H9V14H13V13H10A1,1 0 0,1 9,12V9A1,1 0 0,1 10,8H11V7H13V8H15V10H11V11H14A1,1 0 0,1 15,12V15A1,1 0 0,1 14,16H13V17H11Z" />
    </g>
    <g id="mdi-currency-usd-off" transform="translate(72 288) scale(1.5)" fill="#555">
      <path d="M3,4.27L4.28,3L21,19.72L19.73,21L16.06,17.33C15.44,18 14.54,18.55 13.5,18.82V21H10.5V18.82C8.47,18.31 7,16.79 7,15H9C9,16.08 10.37,17 12,17C13.13,17 14.14,16.56 14.65,15.92L11.68,12.95C9.58,12.42 7,11.75 7,9C7,8.77 7,8.55 7.07,8.34L3,4.27M10.5,5.18V3H13.5V5.18C15.53,5.69 17,7.21 17,9H15C15,7.92 13.63,7 12,7C11.63,7 11.28,7.05 10.95,7.13L9.4,5.58L10.5,5.18Z" />
    </g>
    <g id="mdi-currency-usd-off" transform="translate(108 288) scale(1.5)" fill="#fff">
      <path d="M3,4.27L4.28,3L21,19.72L19.73,21L16.06,17.33C15.44,18 14.54,18.55 13.5,18.82V21H10.5V18.82C8.47,18.31 7,16.79 7,15H9C9,16.08 10.37,17 12,17C13.13,17 14.14,16.56 14.65,15.92L11.68,12.95C9.58,12.42 7,11.75 7,9C7,8.77 7,8.55 7.07,8.34L3,4.27M10.5,5.18V3H13.5V5.18C15.53,5.69 17,7.21 17,9H15C15,7.92 13.63,7 12,7C11.63,7 11.28,7.05 10.95,7.13L9.4,5.58L10.5,5.18Z" />
    </g>
    <g id="mdi-current-ac" transform="translate(144 288) scale(1.5)" fill="#555">
      <path d="M16.5,21C13.5,21 12.31,16.76 11.05,12.28C10.14,9.04 9,5 7.5,5C4.11,5 4,11.93 4,12H2C2,11.63 2.06,3 7.5,3C10.5,3 11.71,7.25 12.97,11.74C13.83,14.8 15,19 16.5,19C19.94,19 20.03,12.07 20.03,12H22.03C22.03,12.37 21.97,21 16.5,21Z" />
    </g>
    <g id="mdi-current-ac" transform="translate(180 288) scale(1.5)" fill="#fff">
      <path d="M16.5,21C13.5,21 12.31,16.76 11.05,12.28C10.14,9.04 9,5 7.5,5C4.11,5 4,11.93 4,12H2C2,11.63 2.06,3 7.5,3C10.5,3 11.71,7.25 12.97,11.74C13.83,14.8 15,19 16.5,19C19.94,19 20.03,12.07 20.03,12H22.03C22.03,12.37 21.97,21 16.5,21Z" />
    </g>
    <g id="mdi-current-dc" transform="translate(216 288) scale(1.5)" fill="#555">
      <path d="M2,9V11H22V9H2M2,13V15H7V13H2M9,13V15H15V13H9M17,13V15H22V13H17Z" />
    </g>
    <g id="mdi-current-dc" transform="translate(252 288) scale(1.5)" fill="#fff">
      <path d="M2,9V11H22V9H2M2,13V15H7V13H2M9,13V15H15V13H9M17,13V15H22V13H17Z" />
    </g>
    <g id="mdi-cursor-default" transform="translate(288 288) scale(1.5)" fill="#555">
      <path d="M13.64,21.97C13.14,22.21 12.54,22 12.31,21.5L10.13,16.76L7.62,18.78C7.45,18.92 7.24,19 7,19A1,1 0 0,1 6,18V3A1,1 0 0,1 7,2C7.24,2 7.47,2.09 7.64,2.23L7.65,2.22L19.14,11.86C19.57,12.22 19.62,12.85 19.27,13.27C19.12,13.45 18.91,13.57 18.7,13.61L15.54,14.23L17.74,18.96C18,19.46 17.76,20.05 17.26,20.28L13.64,21.97Z" />
    </g>
    <g id="mdi-cursor-default" transform="translate(324 288) scale(1.5)" fill="#fff">
      <path d="M13.64,21.97C13.14,22.21 12.54,22 12.31,21.5L10.13,16.76L7.62,18.78C7.45,18.92 7.24,19 7,19A1,1 0 0,1 6,18V3A1,1 0 0,1 7,2C7.24,2 7.47,2.09 7.64,2.23L7.65,2.22L19.14,11.86C19.57,12.22 19.62,12.85 19.27,13.27C19.12,13.45 18.91,13.57 18.7,13.61L15.54,14.23L17.74,18.96C18,19.46 17.76,20.05 17.26,20.28L13.64,21.97Z" />
    </g>
    <g id="mdi-cursor-default-click" transform="translate(360 288) scale(1.5)" fill="#555">
      <path d="M10.76,8.69A0.76,0.76 0 0,0 10,9.45V20.9C10,21.32 10.34,21.66 10.76,21.66C10.95,21.66 11.11,21.6 11.24,21.5L13.15,19.95L14.81,23.57C14.94,23.84 15.21,24 15.5,24C15.61,24 15.72,24 15.83,23.92L18.59,22.64C18.97,22.46 19.15,22 18.95,21.63L17.28,18L19.69,17.55C19.85,17.5 20,17.43 20.12,17.29C20.39,16.97 20.35,16.5 20,16.21L11.26,8.86L11.25,8.87C11.12,8.76 10.95,8.69 10.76,8.69M15,10V8H20V10H15M13.83,4.76L16.66,1.93L18.07,3.34L15.24,6.17L13.83,4.76M10,0H12V5H10V0M3.93,14.66L6.76,11.83L8.17,13.24L5.34,16.07L3.93,14.66M3.93,3.34L5.34,1.93L8.17,4.76L6.76,6.17L3.93,3.34M7,10H2V8H7V10" />
    </g>
    <g id="mdi-cursor-default-click" transform="translate(396 288) scale(1.5)" fill="#fff">
      <path d="M10.76,8.69A0.76,0.76 0 0,0 10,9.45V20.9C10,21.32 10.34,21.66 10.76,21.66C10.95,21.66 11.11,21.6 11.24,21.5L13.15,19.95L14.81,23.57C14.94,23.84 15.21,24 15.5,24C15.61,24 15.72,24 15.83,23.92L18.59,22.64C18.97,22.46 19.15,22 18.95,21.63L17.28,18L19.69,17.55C19.85,17.5 20,17.43 20.12,17.29C20.39,16.97 20.35,16.5 20,16.21L11.26,8.86L11.25,8.87C11.12,8.76 10.95,8.69 10.76,8.69M15,10V8H20V10H15M13.83,4.76L16.66,1.93L18.07,3.34L15.24,6.17L13.83,4.76M10,0H12V5H10V0M3.93,14.66L6.76,11.83L8.17,13.24L5.34,16.07L3.93,14.66M3.93,3.34L5.34,1.93L8.17,4.76L6.76,6.17L3.93,3.34M7,10H2V8H7V10" />
    </g>
    <g id="mdi-cursor-default-click-outline" transform="translate(432 288) scale(1.5)" fill="#555">
      <path d="M11.5,11L17.88,16.37L17,16.55L16.36,16.67C15.73,16.8 15.37,17.5 15.65,18.07L15.92,18.65L17.28,21.59L15.86,22.25L14.5,19.32L14.24,18.74C13.97,18.15 13.22,17.97 12.72,18.38L12.21,18.78L11.5,19.35V11M10.76,8.69A0.76,0.76 0 0,0 10,9.45V20.9C10,21.32 10.34,21.66 10.76,21.66C10.95,21.66 11.11,21.6 11.24,21.5L13.15,19.95L14.81,23.57C14.94,23.84 15.21,24 15.5,24C15.61,24 15.72,24 15.83,23.92L18.59,22.64C18.97,22.46 19.15,22 18.95,21.63L17.28,18L19.69,17.55C19.85,17.5 20,17.43 20.12,17.29C20.39,16.97 20.35,16.5 20,16.21L11.26,8.86L11.25,8.87C11.12,8.76 10.95,8.69 10.76,8.69M15,10V8H20V10H15M13.83,4.76L16.66,1.93L18.07,3.34L15.24,6.17L13.83,4.76M10,0H12V5H10V0M3.93,14.66L6.76,11.83L8.17,13.24L5.34,16.07L3.93,14.66M3.93,3.34L5.34,1.93L8.17,4.76L6.76,6.17L3.93,3.34M7,10H2V8H7V10" />
    </g>
    <g id="mdi-cursor-default-click-outline" transform="translate(468 288) scale(1.5)" fill="#fff">
      <path d="M11.5,11L17.88,16.37L17,16.55L16.36,16.67C15.73,16.8 15.37,17.5 15.65,18.07L15.92,18.65L17.28,21.59L15.86,22.25L14.5,19.32L14.24,18.74C13.97,18.15 13.22,17.97 12.72,18.38L12.21,18.78L11.5,19.35V11M10.76,8.69A0.76,0.76 0 0,0 10,9.45V20.9C10,21.32 10.34,21.66 10.76,21.66C10.95,21.66 11.11,21.6 11.24,21.5L13.15,19.95L14.81,23.57C14.94,23.84 15.21,24 15.5,24C15.61,24 15.72,24 15.83,23.92L18.59,22.64C18.97,22.46 19.15,22 18.95,21.63L17.28,18L19.69,17.55C19.85,17.5 20,17.43 20.12,17.29C20.39,16.97 20.35,16.5 20,16.21L11.26,8.86L11.25,8.87C11.12,8.76 10.95,8.69 10.76,8.69M15,10V8H20V10H15M13.83,4.76L16.66,1.93L18.07,3.34L15.24,6.17L13.83,4.76M10,0H12V5H10V0M3.93,14.66L6.76,11.83L8.17,13.24L5.34,16.07L3.93,14.66M3.93,3.34L5.34,1.93L8.17,4.76L6.76,6.17L3.93,3.34M7,10H2V8H7V10" />
    </g>
    <g id="mdi-cursor-default-gesture" transform="translate(504 288) scale(1.5)" fill="#555">
      <path d="M15.59 8C15.26 8 15 8.27 15 8.6V17.57C15 17.9 15.26 18.17 15.59 18.17C15.74 18.17 15.86 18.12 15.96 18.04L17.45 16.83L18.74 19.66C18.84 19.88 19.05 20 19.27 20C19.36 20 19.44 20 19.53 19.94L21.67 18.93C21.97 18.79 22.11 18.43 21.95 18.14L20.66 15.3L22.53 14.94C22.65 14.91 22.77 14.85 22.86 14.74C23.07 14.5 23.04 14.12 22.77 13.89L16 8.13C15.88 8.05 15.74 8 15.59 8M12.5 6.73C12.72 6.66 13.17 7.19 13.59 7.76L15 6.71C14.87 6.5 14.69 6.25 14.47 5.96C14.31 5.75 13.59 4.93 12.66 4.8C12.04 4.72 10.81 5.06 10.6 6.61C10.47 7.58 10.76 8.19 11.21 9.08C11.46 9.6 12.04 10.96 12.18 11.78C12.33 12.59 12.06 13.16 11.74 13.12C11.44 13.08 11.2 12.65 11.03 12.41C10.89 12.22 10 10.82 9.67 10.23C9.22 9.5 8.04 7.96 6.44 7.74C4.35 7.46 3.44 9.2 3.18 10.36L1 10.06V11.88L2.93 12.15C2.75 15.6 4.5 16.82 5.67 17C6.92 17.15 8.08 16.28 8.24 15.06C8.41 13.84 7.56 11.5 4.96 10.69C5.1 10.15 5.21 9.43 6.36 9.59C7.26 9.71 8.21 11.26 8.93 12.44C9.58 13.53 10.1 14.39 10.83 14.72C11.45 15 12.16 14.97 12.73 14.65C13.42 14.26 13.86 13.55 14 12.63C14.22 10.9 12.7 8.17 12.57 7.84C12.4 7.46 12.12 6.82 12.5 6.73M6.5 14.78C6.43 15.11 6.1 15.25 5.88 15.22C5.38 15.16 4.66 14.5 4.71 12.53C6.17 13.13 6.53 14.35 6.5 14.78Z" />
    </g>
    <g id="mdi-cursor-default-gesture" transform="translate(540 288) scale(1.5)" fill="#fff">
      <path d="M15.59 8C15.26 8 15 8.27 15 8.6V17.57C15 17.9 15.26 18.17 15.59 18.17C15.74 18.17 15.86 18.12 15.96 18.04L17.45 16.83L18.74 19.66C18.84 19.88 19.05 20 19.27 20C19.36 20 19.44 20 19.53 19.94L21.67 18.93C21.97 18.79 22.11 18.43 21.95 18.14L20.66 15.3L22.53 14.94C22.65 14.91 22.77 14.85 22.86 14.74C23.07 14.5 23.04 14.12 22.77 13.89L16 8.13C15.88 8.05 15.74 8 15.59 8M12.5 6.73C12.72 6.66 13.17 7.19 13.59 7.76L15 6.71C14.87 6.5 14.69 6.25 14.47 5.96C14.31 5.75 13.59 4.93 12.66 4.8C12.04 4.72 10.81 5.06 10.6 6.61C10.47 7.58 10.76 8.19 11.21 9.08C11.46 9.6 12.04 10.96 12.18 11.78C12.33 12.59 12.06 13.16 11.74 13.12C11.44 13.08 11.2 12.65 11.03 12.41C10.89 12.22 10 10.82 9.67 10.23C9.22 9.5 8.04 7.96 6.44 7.74C4.35 7.46 3.44 9.2 3.18 10.36L1 10.06V11.88L2.93 12.15C2.75 15.6 4.5 16.82 5.67 17C6.92 17.15 8.08 16.28 8.24 15.06C8.41 13.84 7.56 11.5 4.96 10.69C5.1 10.15 5.21 9.43 6.36 9.59C7.26 9.71 8.21 11.26 8.93 12.44C9.58 13.53 10.1 14.39 10.83 14.72C11.45 15 12.16 14.97 12.73 14.65C13.42 14.26 13.86 13.55 14 12.63C14.22 10.9 12.7 8.17 12.57 7.84C12.4 7.46 12.12 6.82 12.5 6.73M6.5 14.78C6.43 15.11 6.1 15.25 5.88 15.22C5.38 15.16 4.66 14.5 4.71 12.53C6.17 13.13 6.53 14.35 6.5 14.78Z" />
    </g>
    <g id="mdi-cursor-default-gesture-outline" transform="translate(576 288) scale(1.5)" fill="#555">
      <path d="M16.5 10.54L20.37 13.83L18.5 14.18L19.29 15.92L20.22 17.96L19.72 18.19L18.81 16.2L18 14.43L16.5 15.66V10.54M15.59 8C15.26 8 15 8.27 15 8.6V17.57C15 17.9 15.26 18.17 15.59 18.17C15.74 18.17 15.86 18.12 15.96 18.04L17.45 16.83L18.74 19.66C18.84 19.88 19.05 20 19.27 20C19.36 20 19.44 20 19.53 19.94L21.67 18.93C21.97 18.79 22.11 18.43 21.95 18.14L20.66 15.3L22.53 14.94C22.65 14.91 22.77 14.85 22.86 14.74C23.07 14.5 23.04 14.12 22.77 13.89L16 8.13C15.88 8.05 15.74 8 15.59 8M12.5 6.73C12.72 6.66 13.17 7.19 13.59 7.76L15 6.71C14.87 6.5 14.69 6.25 14.47 5.96C14.31 5.75 13.59 4.93 12.66 4.8C12.04 4.72 10.81 5.06 10.6 6.61C10.47 7.58 10.76 8.19 11.21 9.08C11.46 9.6 12.04 10.96 12.18 11.78C12.33 12.59 12.06 13.16 11.74 13.12C11.44 13.08 11.2 12.65 11.03 12.41C10.89 12.22 10 10.82 9.67 10.23C9.22 9.5 8.04 7.96 6.44 7.74C4.35 7.46 3.44 9.2 3.18 10.36L1 10.06V11.88L2.93 12.15C2.75 15.6 4.5 16.82 5.67 17C6.92 17.15 8.08 16.28 8.24 15.06C8.41 13.84 7.56 11.5 4.96 10.69C5.1 10.15 5.21 9.43 6.36 9.59C7.26 9.71 8.21 11.26 8.93 12.44C9.58 13.53 10.1 14.39 10.83 14.72C11.45 15 12.16 14.97 12.73 14.65C13.42 14.26 13.86 13.55 14 12.63C14.22 10.9 12.7 8.17 12.57 7.84C12.4 7.46 12.12 6.82 12.5 6.73M6.5 14.78C6.43 15.11 6.1 15.25 5.88 15.22C5.38 15.16 4.66 14.5 4.71 12.53C6.17 13.13 6.53 14.35 6.5 14.78Z" />
    </g>
    <g id="mdi-cursor-default-gesture-outline" transform="translate(612 288) scale(1.5)" fill="#fff">
      <path d="M16.5 10.54L20.37 13.83L18.5 14.18L19.29 15.92L20.22 17.96L19.72 18.19L18.81 16.2L18 14.43L16.5 15.66V10.54M15.59 8C15.26 8 15 8.27 15 8.6V17.57C15 17.9 15.26 18.17 15.59 18.17C15.74 18.17 15.86 18.12 15.96 18.04L17.45 16.83L18.74 19.66C18.84 19.88 19.05 20 19.27 20C19.36 20 19.44 20 19.53 19.94L21.67 18.93C21.97 18.79 22.11 18.43 21.95 18.14L20.66 15.3L22.53 14.94C22.65 14.91 22.77 14.85 22.86 14.74C23.07 14.5 23.04 14.12 22.77 13.89L16 8.13C15.88 8.05 15.74 8 15.59 8M12.5 6.73C12.72 6.66 13.17 7.19 13.59 7.76L15 6.71C14.87 6.5 14.69 6.25 14.47 5.96C14.31 5.75 13.59 4.93 12.66 4.8C12.04 4.72 10.81 5.06 10.6 6.61C10.47 7.58 10.76 8.19 11.21 9.08C11.46 9.6 12.04 10.96 12.18 11.78C12.33 12.59 12.06 13.16 11.74 13.12C11.44 13.08 11.2 12.65 11.03 12.41C10.89 12.22 10 10.82 9.67 10.23C9.22 9.5 8.04 7.96 6.44 7.74C4.35 7.46 3.44 9.2 3.18 10.36L1 10.06V11.88L2.93 12.15C2.75 15.6 4.5 16.82 5.67 17C6.92 17.15 8.08 16.28 8.24 15.06C8.41 13.84 7.56 11.5 4.96 10.69C5.1 10.15 5.21 9.43 6.36 9.59C7.26 9.71 8.21 11.26 8.93 12.44C9.58 13.53 10.1 14.39 10.83 14.72C11.45 15 12.16 14.97 12.73 14.65C13.42 14.26 13.86 13.55 14 12.63C14.22 10.9 12.7 8.17 12.57 7.84C12.4 7.46 12.12 6.82 12.5 6.73M6.5 14.78C6.43 15.11 6.1 15.25 5.88 15.22C5.38 15.16 4.66 14.5 4.71 12.53C6.17 13.13 6.53 14.35 6.5 14.78Z" />
    </g>
    <g id="mdi-cursor-default-outline" transform="translate(648 288) scale(1.5)" fill="#555">
      <path d="M10.07,14.27C10.57,14.03 11.16,14.25 11.4,14.75L13.7,19.74L15.5,18.89L13.19,13.91C12.95,13.41 13.17,12.81 13.67,12.58L13.95,12.5L16.25,12.05L8,5.12V15.9L9.82,14.43L10.07,14.27M13.64,21.97C13.14,22.21 12.54,22 12.31,21.5L10.13,16.76L7.62,18.78C7.45,18.92 7.24,19 7,19A1,1 0 0,1 6,18V3A1,1 0 0,1 7,2C7.24,2 7.47,2.09 7.64,2.23L7.65,2.22L19.14,11.86C19.57,12.22 19.62,12.85 19.27,13.27C19.12,13.45 18.91,13.57 18.7,13.61L15.54,14.23L17.74,18.96C18,19.46 17.76,20.05 17.26,20.28L13.64,21.97Z" />
    </g>
    <g id="mdi-cursor-default-outline" transform="translate(684 288) scale(1.5)" fill="#fff">
      <path d="M10.07,14.27C10.57,14.03 11.16,14.25 11.4,14.75L13.7,19.74L15.5,18.89L13.19,13.91C12.95,13.41 13.17,12.81 13.67,12.58L13.95,12.5L16.25,12.05L8,5.12V15.9L9.82,14.43L10.07,14.27M13.64,21.97C13.14,22.21 12.54,22 12.31,21.5L10.13,16.76L7.62,18.78C7.45,18.92 7.24,19 7,19A1,1 0 0,1 6,18V3A1,1 0 0,1 7,2C7.24,2 7.47,2.09 7.64,2.23L7.65,2.22L19.14,11.86C19.57,12.22 19.62,12.85 19.27,13.27C19.12,13.45 18.91,13.57 18.7,13.61L15.54,14.23L17.74,18.96C18,19.46 17.76,20.05 17.26,20.28L13.64,21.97Z" />
    </g>
    <g id="mdi-cursor-move" transform="translate(0 324) scale(1.5)" fill="#555">
      <path d="M13,6V11H18V7.75L22.25,12L18,16.25V13H13V18H16.25L12,22.25L7.75,18H11V13H6V16.25L1.75,12L6,7.75V11H11V6H7.75L12,1.75L16.25,6H13Z" />
    </g>
    <g id="mdi-cursor-move" transform="translate(36 324) scale(1.5)" fill="#fff">
      <path d="M13,6V11H18V7.75L22.25,12L18,16.25V13H13V18H16.25L12,22.25L7.75,18H11V13H6V16.25L1.75,12L6,7.75V11H11V6H7.75L12,1.75L16.25,6H13Z" />
    </g>
    <g id="mdi-cursor-pointer" transform="translate(72 324) scale(1.5)" fill="#555">
      <path d="M13.75,10.19L14.38,10.32L18.55,12.4C19.25,12.63 19.71,13.32 19.65,14.06V14.19L19.65,14.32L18.75,20.44C18.69,20.87 18.5,21.27 18.15,21.55C17.84,21.85 17.43,22 17,22H10.12C9.63,22 9.18,21.82 8.85,21.47L2.86,15.5L3.76,14.5C4,14.25 4.38,14.11 4.74,14.13H5.03L9,15V4.5A2,2 0 0,1 11,2.5A2,2 0 0,1 13,4.5V10.19H13.75Z" />
    </g>
    <g id="mdi-cursor-pointer" transform="translate(108 324) scale(1.5)" fill="#fff">
      <path d="M13.75,10.19L14.38,10.32L18.55,12.4C19.25,12.63 19.71,13.32 19.65,14.06V14.19L19.65,14.32L18.75,20.44C18.69,20.87 18.5,21.27 18.15,21.55C17.84,21.85 17.43,22 17,22H10.12C9.63,22 9.18,21.82 8.85,21.47L2.86,15.5L3.76,14.5C4,14.25 4.38,14.11 4.74,14.13H5.03L9,15V4.5A2,2 0 0,1 11,2.5A2,2 0 0,1 13,4.5V10.19H13.75Z" />
    </g>
    <g id="mdi-cursor-text" transform="translate(144 324) scale(1.5)" fill="#555">
      <path d="M13,19A1,1 0 0,0 14,20H16V22H13.5C12.95,22 12,21.55 12,21C12,21.55 11.05,22 10.5,22H8V20H10A1,1 0 0,0 11,19V5A1,1 0 0,0 10,4H8V2H10.5C11.05,2 12,2.45 12,3C12,2.45 12.95,2 13.5,2H16V4H14A1,1 0 0,0 13,5V19Z" />
    </g>
    <g id="mdi-cursor-text" transform="translate(180 324) scale(1.5)" fill="#fff">
      <path d="M13,19A1,1 0 0,0 14,20H16V22H13.5C12.95,22 12,21.55 12,21C12,21.55 11.05,22 10.5,22H8V20H10A1,1 0 0,0 11,19V5A1,1 0 0,0 10,4H8V2H10.5C11.05,2 12,2.45 12,3C12,2.45 12.95,2 13.5,2H16V4H14A1,1 0 0,0 13,5V19Z" />
    </g>
    <g id="mdi-database" transform="translate(216 324) scale(1.5)" fill="#555">
      <path d="M12,3C7.58,3 4,4.79 4,7C4,9.21 7.58,11 12,11C16.42,11 20,9.21 20,7C20,4.79 16.42,3 12,3M4,9V12C4,14.21 7.58,16 12,16C16.42,16 20,14.21 20,12V9C20,11.21 16.42,13 12,13C7.58,13 4,11.21 4,9M4,14V17C4,19.21 7.58,21 12,21C16.42,21 20,19.21 20,17V14C20,16.21 16.42,18 12,18C7.58,18 4,16.21 4,14Z" />
    </g>
    <g id="mdi-database" transform="translate(252 324) scale(1.5)" fill="#fff">
      <path d="M12,3C7.58,3 4,4.79 4,7C4,9.21 7.58,11 12,11C16.42,11 20,9.21 20,7C20,4.79 16.42,3 12,3M4,9V12C4,14.21 7.58,16 12,16C16.42,16 20,14.21 20,12V9C20,11.21 16.42,13 12,13C7.58,13 4,11.21 4,9M4,14V17C4,19.21 7.58,21 12,21C16.42,21 20,19.21 20,17V14C20,16.21 16.42,18 12,18C7.58,18 4,16.21 4,14Z" />
    </g>
    <g id="mdi-database-check" transform="translate(288 324) scale(1.5)" fill="#555">
      <path d="M17.75,22.16L15,19.16L16.16,18L17.75,19.59L21.34,16L22.5,17.41L17.75,22.16M12,3C16.42,3 20,4.79 20,7C20,9.21 16.42,11 12,11C7.58,11 4,9.21 4,7C4,4.79 7.58,3 12,3M4,9C4,11.21 7.58,13 12,13C16.42,13 20,11.21 20,9V12C20,12.43 19.87,12.84 19.62,13.22C19.1,13.08 18.56,13 18,13C15.79,13 13.85,14.2 12.81,16H12C7.58,16 4,14.21 4,12V9M4,14C4,16.21 7.58,18 12.08,18L12,19C12,19.7 12.12,20.37 12.34,21H12C7.58,21 4,19.21 4,17V14Z" />
    </g>
    <g id="mdi-database-check" transform="translate(324 324) scale(1.5)" fill="#fff">
      <path d="M17.75,22.16L15,19.16L16.16,18L17.75,19.59L21.34,16L22.5,17.41L17.75,22.16M12,3C16.42,3 20,4.79 20,7C20,9.21 16.42,11 12,11C7.58,11 4,9.21 4,7C4,4.79 7.58,3 12,3M4,9C4,11.21 7.58,13 12,13C16.42,13 20,11.21 20,9V12C20,12.43 19.87,12.84 19.62,13.22C19.1,13.08 18.56,13 18,13C15.79,13 13.85,14.2 12.81,16H12C7.58,16 4,14.21 4,12V9M4,14C4,16.21 7.58,18 12.08,18L12,19C12,19.7 12.12,20.37 12.34,21H12C7.58,21 4,19.21 4,17V14Z" />
    </g>
    <g id="mdi-database-edit" transform="translate(360 324) scale(1.5)" fill="#555">
      <path d="M4,14V17C4,19 7.05,20.72 11,21V18.11L11.13,18C7.12,17.76 4,16.06 4,14M12,13C7.58,13 4,11.21 4,9V12C4,14.21 7.58,16 12,16C12.39,16 12.77,16 13.16,16L17,12.12C15.4,12.72 13.71,13 12,13M12,3C7.58,3 4,4.79 4,7C4,9.21 7.58,11 12,11C16.42,11 20,9.21 20,7C20,4.79 16.42,3 12,3M21,11.13C20.85,11.13 20.71,11.19 20.61,11.3L19.61,12.3L21.66,14.3L22.66,13.3C22.87,13.1 22.88,12.76 22.66,12.53L21.42,11.3C21.32,11.19 21.18,11.13 21.04,11.13M19.04,12.88L13,18.94V21H15.06L21.12,14.93L19.04,12.88Z" />
    </g>
    <g id="mdi-database-edit" transform="translate(396 324) scale(1.5)" fill="#fff">
      <path d="M4,14V17C4,19 7.05,20.72 11,21V18.11L11.13,18C7.12,17.76 4,16.06 4,14M12,13C7.58,13 4,11.21 4,9V12C4,14.21 7.58,16 12,16C12.39,16 12.77,16 13.16,16L17,12.12C15.4,12.72 13.71,13 12,13M12,3C7.58,3 4,4.79 4,7C4,9.21 7.58,11 12,11C16.42,11 20,9.21 20,7C20,4.79 16.42,3 12,3M21,11.13C20.85,11.13 20.71,11.19 20.61,11.3L19.61,12.3L21.66,14.3L22.66,13.3C22.87,13.1 22.88,12.76 22.66,12.53L21.42,11.3C21.32,11.19 21.18,11.13 21.04,11.13M19.04,12.88L13,18.94V21H15.06L21.12,14.93L19.04,12.88Z" />
    </g>
    <g id="mdi-database-export" transform="translate(432 324) scale(1.5)" fill="#555">
      <path d="M12,3C7.58,3 4,4.79 4,7C4,9.21 7.58,11 12,11C12.5,11 13,10.97 13.5,10.92V9.5H16.39L15.39,8.5L18.9,5C17.5,3.8 14.94,3 12,3M18.92,7.08L17.5,8.5L20,11H15V13H20L17.5,15.5L18.92,16.92L23.84,12M4,9V12C4,14.21 7.58,16 12,16C13.17,16 14.26,15.85 15.25,15.63L16.38,14.5H13.5V12.92C13,12.97 12.5,13 12,13C7.58,13 4,11.21 4,9M4,14V17C4,19.21 7.58,21 12,21C14.94,21 17.5,20.2 18.9,19L17,17.1C15.61,17.66 13.9,18 12,18C7.58,18 4,16.21 4,14Z" />
    </g>
    <g id="mdi-database-export" transform="translate(468 324) scale(1.5)" fill="#fff">
      <path d="M12,3C7.58,3 4,4.79 4,7C4,9.21 7.58,11 12,11C12.5,11 13,10.97 13.5,10.92V9.5H16.39L15.39,8.5L18.9,5C17.5,3.8 14.94,3 12,3M18.92,7.08L17.5,8.5L20,11H15V13H20L17.5,15.5L18.92,16.92L23.84,12M4,9V12C4,14.21 7.58,16 12,16C13.17,16 14.26,15.85 15.25,15.63L16.38,14.5H13.5V12.92C13,12.97 12.5,13 12,13C7.58,13 4,11.21 4,9M4,14V17C4,19.21 7.58,21 12,21C14.94,21 17.5,20.2 18.9,19L17,17.1C15.61,17.66 13.9,18 12,18C7.58,18 4,16.21 4,14Z" />
    </g>
    <g id="mdi-database-import" transform="translate(504 324) scale(1.5)" fill="#555">
      <path d="M12,3C8.59,3 5.69,4.07 4.54,5.57L9.79,10.82C10.5,10.93 11.22,11 12,11C16.42,11 20,9.21 20,7C20,4.79 16.42,3 12,3M3.92,7.08L2.5,8.5L5,11H0V13H5L2.5,15.5L3.92,16.92L8.84,12M20,9C20,11.21 16.42,13 12,13C11.34,13 10.7,12.95 10.09,12.87L7.62,15.34C8.88,15.75 10.38,16 12,16C16.42,16 20,14.21 20,12M20,14C20,16.21 16.42,18 12,18C9.72,18 7.67,17.5 6.21,16.75L4.53,18.43C5.68,19.93 8.59,21 12,21C16.42,21 20,19.21 20,17" />
    </g>
    <g id="mdi-database-import" transform="translate(540 324) scale(1.5)" fill="#fff">
      <path d="M12,3C8.59,3 5.69,4.07 4.54,5.57L9.79,10.82C10.5,10.93 11.22,11 12,11C16.42,11 20,9.21 20,7C20,4.79 16.42,3 12,3M3.92,7.08L2.5,8.5L5,11H0V13H5L2.5,15.5L3.92,16.92L8.84,12M20,9C20,11.21 16.42,13 12,13C11.34,13 10.7,12.95 10.09,12.87L7.62,15.34C8.88,15.75 10.38,16 12,16C16.42,16 20,14.21 20,12M20,14C20,16.21 16.42,18 12,18C9.72,18 7.67,17.5 6.21,16.75L4.53,18.43C5.68,19.93 8.59,21 12,21C16.42,21 20,19.21 20,17" />
    </g>
    <g id="mdi-database-lock" transform="translate(576 324) scale(1.5)" fill="#555">
      <path d="M11,3C15.42,3 19,4.79 19,7C19,9.21 15.42,11 11,11C6.58,11 3,9.21 3,7C3,4.79 6.58,3 11,3M19,12.03C17.11,12.24 15.57,13.62 15.13,15.43C13.92,15.79 12.5,16 11,16C6.58,16 3,14.21 3,12V9C3,11.21 6.58,13 11,13C15.42,13 19,11.21 19,9V12.03M14,17.71V20.71C13.07,20.9 12.06,21 11,21C6.58,21 3,19.21 3,17V14C3,16.21 6.58,18 11,18C12.06,18 13.07,17.9 14,17.71M19.5,14A2.5,2.5 0 0,1 22,16.5V17A1,1 0 0,1 23,18V22A1,1 0 0,1 22,23H17A1,1 0 0,1 16,22V18A1,1 0 0,1 17,17V16.5A2.5,2.5 0 0,1 19.5,14M19.5,15A1.5,1.5 0 0,0 18,16.5V17H21V16.5A1.5,1.5 0 0,0 19.5,15Z" />
    </g>
    <g id="mdi-database-lock" transform="translate(612 324) scale(1.5)" fill="#fff">
      <path d="M11,3C15.42,3 19,4.79 19,7C19,9.21 15.42,11 11,11C6.58,11 3,9.21 3,7C3,4.79 6.58,3 11,3M19,12.03C17.11,12.24 15.57,13.62 15.13,15.43C13.92,15.79 12.5,16 11,16C6.58,16 3,14.21 3,12V9C3,11.21 6.58,13 11,13C15.42,13 19,11.21 19,9V12.03M14,17.71V20.71C13.07,20.9 12.06,21 11,21C6.58,21 3,19.21 3,17V14C3,16.21 6.58,18 11,18C12.06,18 13.07,17.9 14,17.71M19.5,14A2.5,2.5 0 0,1 22,16.5V17A1,1 0 0,1 23,18V22A1,1 0 0,1 22,23H17A1,1 0 0,1 16,22V18A1,1 0 0,1 17,17V16.5A2.5,2.5 0 0,1 19.5,14M19.5,15A1.5,1.5 0 0,0 18,16.5V17H21V16.5A1.5,1.5 0 0,0 19.5,15Z" />
    </g>
    <g id="mdi-database-marker" transform="translate(648 324) scale(1.5)" fill="#555">
      <path d="M18.5 12C16.6 12 15 13.6 15 15.5C15 18.1 18.5 22 18.5 22S22 18.1 22 15.5C22 13.6 20.4 12 18.5 12M18.5 16.8C17.8 16.8 17.3 16.2 17.3 15.6C17.3 14.9 17.9 14.4 18.5 14.4S19.7 15 19.7 15.6C19.8 16.2 19.2 16.8 18.5 16.8M4 12V9C4 11.21 7.58 13 12 13C12.57 13 13.13 12.97 13.67 12.91C13.25 13.69 13 14.57 13 15.5C13 15.65 13 15.81 13.03 15.96C12.69 16 12.35 16 12 16C7.58 16 4 14.21 4 12M4 7C4 4.79 7.58 3 12 3S20 4.79 20 7 16.42 11 12 11 4 9.21 4 7M15 20.71C14.07 20.9 13.06 21 12 21C7.58 21 4 19.21 4 17V14C4 16.21 7.58 18 12 18C12.5 18 13.03 17.97 13.5 17.93C13.9 18.91 14.44 19.87 15 20.71Z" />
    </g>
    <g id="mdi-database-marker" transform="translate(684 324) scale(1.5)" fill="#fff">
      <path d="M18.5 12C16.6 12 15 13.6 15 15.5C15 18.1 18.5 22 18.5 22S22 18.1 22 15.5C22 13.6 20.4 12 18.5 12M18.5 16.8C17.8 16.8 17.3 16.2 17.3 15.6C17.3 14.9 17.9 14.4 18.5 14.4S19.7 15 19.7 15.6C19.8 16.2 19.2 16.8 18.5 16.8M4 12V9C4 11.21 7.58 13 12 13C12.57 13 13.13 12.97 13.67 12.91C13.25 13.69 13 14.57 13 15.5C13 15.65 13 15.81 13.03 15.96C12.69 16 12.35 16 12 16C7.58 16 4 14.21 4 12M4 7C4 4.79 7.58 3 12 3S20 4.79 20 7 16.42 11 12 11 4 9.21 4 7M15 20.71C14.07 20.9 13.06 21 12 21C7.58 21 4 19.21 4 17V14C4 16.21 7.58 18 12 18C12.5 18 13.03 17.97 13.5 17.93C13.9 18.91 14.44 19.87 15 20.71Z" />
    </g>
  </svg>