<?xml version="1.0" encoding="UTF-8"?>
<!DOCTYPE svg PUBLIC "-//W3C//DTD SVG 1.1//EN" "http://www.w3.org/Graphics/SVG/1.1/DTD/svg11.dtd"><svg
  xmlns="http://www.w3.org/2000/svg" xmlns:xlink="http://www.w3.org/1999/xlink" version="1.1"
  width="720" height="900" viewBox="0 0 720 900">
    <g id="mdi-plus-circle-outline" transform="translate(0 0) scale(1.5)" fill="#555">
      <path d="M12,20C7.59,20 4,16.41 4,12C4,7.59 7.59,4 12,4C16.41,4 20,7.59 20,12C20,16.41 16.41,20 12,20M12,2A10,10 0 0,0 2,12A10,10 0 0,0 12,22A10,10 0 0,0 22,12A10,10 0 0,0 12,2M13,7H11V11H7V13H11V17H13V13H17V11H13V7Z" />
    </g>
    <g id="mdi-plus-circle-outline" transform="translate(36 0) scale(1.5)" fill="#fff">
      <path d="M12,20C7.59,20 4,16.41 4,12C4,7.59 7.59,4 12,4C16.41,4 20,7.59 20,12C20,16.41 16.41,20 12,20M12,2A10,10 0 0,0 2,12A10,10 0 0,0 12,22A10,10 0 0,0 22,12A10,10 0 0,0 12,2M13,7H11V11H7V13H11V17H13V13H17V11H13V7Z" />
    </g>
    <g id="mdi-plus-minus" transform="translate(72 0) scale(1.5)" fill="#555">
      <path d="M11,4V9H6V11H11V16H13V11H18V9H13V4H11M6,18V20H18V18H6Z" />
    </g>
    <g id="mdi-plus-minus" transform="translate(108 0) scale(1.5)" fill="#fff">
      <path d="M11,4V9H6V11H11V16H13V11H18V9H13V4H11M6,18V20H18V18H6Z" />
    </g>
    <g id="mdi-plus-minus-box" transform="translate(144 0) scale(1.5)" fill="#555">
      <path d="M5,3C3.89,3 3,3.89 3,5V19A2,2 0 0,0 5,21H19A2,2 0 0,0 21,19V5A2,2 0 0,0 19,3H5M11,6H13V9H16V11H13V14H11V11H8V9H11V6M8,16H16V18H8V16Z" />
    </g>
    <g id="mdi-plus-minus-box" transform="translate(180 0) scale(1.5)" fill="#fff">
      <path d="M5,3C3.89,3 3,3.89 3,5V19A2,2 0 0,0 5,21H19A2,2 0 0,0 21,19V5A2,2 0 0,0 19,3H5M11,6H13V9H16V11H13V14H11V11H8V9H11V6M8,16H16V18H8V16Z" />
    </g>
    <g id="mdi-plus-network" transform="translate(216 0) scale(1.5)" fill="#555">
      <path d="M16,11V9H13V6H11V9H8V11H11V14H13V11H16M17,3A2,2 0 0,1 19,5V15A2,2 0 0,1 17,17H13V19H14A1,1 0 0,1 15,20H22V22H15A1,1 0 0,1 14,23H10A1,1 0 0,1 9,22H2V20H9A1,1 0 0,1 10,19H11V17H7C5.89,17 5,16.1 5,15V5A2,2 0 0,1 7,3H17Z" />
    </g>
    <g id="mdi-plus-network" transform="translate(252 0) scale(1.5)" fill="#fff">
      <path d="M16,11V9H13V6H11V9H8V11H11V14H13V11H16M17,3A2,2 0 0,1 19,5V15A2,2 0 0,1 17,17H13V19H14A1,1 0 0,1 15,20H22V22H15A1,1 0 0,1 14,23H10A1,1 0 0,1 9,22H2V20H9A1,1 0 0,1 10,19H11V17H7C5.89,17 5,16.1 5,15V5A2,2 0 0,1 7,3H17Z" />
    </g>
    <g id="mdi-plus-network-outline" transform="translate(288 0) scale(1.5)" fill="#555">
      <path d="M15,20A1,1 0 0,0 14,19H13V17H17A2,2 0 0,0 19,15V5A2,2 0 0,0 17,3H7A2,2 0 0,0 5,5V15A2,2 0 0,0 7,17H11V19H10A1,1 0 0,0 9,20H2V22H9A1,1 0 0,0 10,23H14A1,1 0 0,0 15,22H22V20H15M7,15V5H17V15H7M15,11H13V13H11V11H9V9H11V7H13V9H15V11Z" />
    </g>
    <g id="mdi-plus-network-outline" transform="translate(324 0) scale(1.5)" fill="#fff">
      <path d="M15,20A1,1 0 0,0 14,19H13V17H17A2,2 0 0,0 19,15V5A2,2 0 0,0 17,3H7A2,2 0 0,0 5,5V15A2,2 0 0,0 7,17H11V19H10A1,1 0 0,0 9,20H2V22H9A1,1 0 0,0 10,23H14A1,1 0 0,0 15,22H22V20H15M7,15V5H17V15H7M15,11H13V13H11V11H9V9H11V7H13V9H15V11Z" />
    </g>
    <g id="mdi-plus-one" transform="translate(360 0) scale(1.5)" fill="#555">
      <path d="M10,8V12H14V14H10V18H8V14H4V12H8V8H10M14.5,6.08L19,5V18H17V7.4L14.5,7.9V6.08Z" />
    </g>
    <g id="mdi-plus-one" transform="translate(396 0) scale(1.5)" fill="#fff">
      <path d="M10,8V12H14V14H10V18H8V14H4V12H8V8H10M14.5,6.08L19,5V18H17V7.4L14.5,7.9V6.08Z" />
    </g>
    <g id="mdi-plus-outline" transform="translate(432 0) scale(1.5)" fill="#555">
      <path d="M4,9H9V4H15V9H20V15H15V20H9V15H4V9M11,13V18H13V13H18V11H13V6H11V11H6V13H11Z" />
    </g>
    <g id="mdi-plus-outline" transform="translate(468 0) scale(1.5)" fill="#fff">
      <path d="M4,9H9V4H15V9H20V15H15V20H9V15H4V9M11,13V18H13V13H18V11H13V6H11V11H6V13H11Z" />
    </g>
    <g id="mdi-plus-thick" transform="translate(504 0) scale(1.5)" fill="#555">
      <path d="M20 14H14V20H10V14H4V10H10V4H14V10H20V14Z" />
    </g>
    <g id="mdi-plus-thick" transform="translate(540 0) scale(1.5)" fill="#fff">
      <path d="M20 14H14V20H10V14H4V10H10V4H14V10H20V14Z" />
    </g>
    <g id="mdi-podcast" transform="translate(576 0) scale(1.5)" fill="#555">
      <path d="M17,18.25V21.5H7V18.25C7,16.87 9.24,15.75 12,15.75C14.76,15.75 17,16.87 17,18.25M12,5.5A6.5,6.5 0 0,1 18.5,12C18.5,13.25 18.15,14.42 17.54,15.41L16,14.04C16.32,13.43 16.5,12.73 16.5,12C16.5,9.5 14.5,7.5 12,7.5C9.5,7.5 7.5,9.5 7.5,12C7.5,12.73 7.68,13.43 8,14.04L6.46,15.41C5.85,14.42 5.5,13.25 5.5,12A6.5,6.5 0 0,1 12,5.5M12,1.5A10.5,10.5 0 0,1 22.5,12C22.5,14.28 21.77,16.39 20.54,18.11L19.04,16.76C19.96,15.4 20.5,13.76 20.5,12A8.5,8.5 0 0,0 12,3.5A8.5,8.5 0 0,0 3.5,12C3.5,13.76 4.04,15.4 4.96,16.76L3.46,18.11C2.23,16.39 1.5,14.28 1.5,12A10.5,10.5 0 0,1 12,1.5M12,9.5A2.5,2.5 0 0,1 14.5,12A2.5,2.5 0 0,1 12,14.5A2.5,2.5 0 0,1 9.5,12A2.5,2.5 0 0,1 12,9.5Z" />
    </g>
    <g id="mdi-podcast" transform="translate(612 0) scale(1.5)" fill="#fff">
      <path d="M17,18.25V21.5H7V18.25C7,16.87 9.24,15.75 12,15.75C14.76,15.75 17,16.87 17,18.25M12,5.5A6.5,6.5 0 0,1 18.5,12C18.5,13.25 18.15,14.42 17.54,15.41L16,14.04C16.32,13.43 16.5,12.73 16.5,12C16.5,9.5 14.5,7.5 12,7.5C9.5,7.5 7.5,9.5 7.5,12C7.5,12.73 7.68,13.43 8,14.04L6.46,15.41C5.85,14.42 5.5,13.25 5.5,12A6.5,6.5 0 0,1 12,5.5M12,1.5A10.5,10.5 0 0,1 22.5,12C22.5,14.28 21.77,16.39 20.54,18.11L19.04,16.76C19.96,15.4 20.5,13.76 20.5,12A8.5,8.5 0 0,0 12,3.5A8.5,8.5 0 0,0 3.5,12C3.5,13.76 4.04,15.4 4.96,16.76L3.46,18.11C2.23,16.39 1.5,14.28 1.5,12A10.5,10.5 0 0,1 12,1.5M12,9.5A2.5,2.5 0 0,1 14.5,12A2.5,2.5 0 0,1 12,14.5A2.5,2.5 0 0,1 9.5,12A2.5,2.5 0 0,1 12,9.5Z" />
    </g>
    <g id="mdi-podium" transform="translate(648 0) scale(1.5)" fill="#555">
      <path d="M12,7.09L14.45,8.58L13.8,5.77L16,3.89L13.11,3.64L12,1L10.87,3.64L8,3.89L10.18,5.77L9.5,8.58L12,7.09M4,13.09L6.45,14.58L5.8,11.77L8,9.89L5.11,9.64L4,7L2.87,9.64L0,9.89L2.18,11.77L1.5,14.58L4,13.09M20,10.09L22.45,11.58L21.8,8.77L24,6.89L21.11,6.64L20,4L18.87,6.64L16,6.89L18.18,8.77L17.5,11.58L20,10.09M15,23H9V10H15V23M7,23H1V17H7V23M23,23H17V13H23V23Z" />
    </g>
    <g id="mdi-podium" transform="translate(684 0) scale(1.5)" fill="#fff">
      <path d="M12,7.09L14.45,8.58L13.8,5.77L16,3.89L13.11,3.64L12,1L10.87,3.64L8,3.89L10.18,5.77L9.5,8.58L12,7.09M4,13.09L6.45,14.58L5.8,11.77L8,9.89L5.11,9.64L4,7L2.87,9.64L0,9.89L2.18,11.77L1.5,14.58L4,13.09M20,10.09L22.45,11.58L21.8,8.77L24,6.89L21.11,6.64L20,4L18.87,6.64L16,6.89L18.18,8.77L17.5,11.58L20,10.09M15,23H9V10H15V23M7,23H1V17H7V23M23,23H17V13H23V23Z" />
    </g>
    <g id="mdi-podium-bronze" transform="translate(0 36) scale(1.5)" fill="#555">
      <path d="M4,13.09L6.45,14.58L5.8,11.77L8,9.89L5.11,9.64L4,7L2.87,9.64L0,9.89L2.18,11.77L1.5,14.58L4,13.09M7,23H1V17H7V23M9,10V23H15V10H9M13,21H11V12H13V21M17,13V23H23V13H17M21,21H19V15H21V21Z" />
    </g>
    <g id="mdi-podium-bronze" transform="translate(36 36) scale(1.5)" fill="#fff">
      <path d="M4,13.09L6.45,14.58L5.8,11.77L8,9.89L5.11,9.64L4,7L2.87,9.64L0,9.89L2.18,11.77L1.5,14.58L4,13.09M7,23H1V17H7V23M9,10V23H15V10H9M13,21H11V12H13V21M17,13V23H23V13H17M21,21H19V15H21V21Z" />
    </g>
    <g id="mdi-podium-gold" transform="translate(72 36) scale(1.5)" fill="#555">
      <path d="M12,7.09L14.45,8.58L13.8,5.77L16,3.89L13.11,3.64L12,1L10.87,3.64L8,3.89L10.18,5.77L9.5,8.58L12,7.09M15,23H9V10H15V23M1,17V23H7V17H1M5,21H3V19H5V21M17,13V23H23V13H17M21,21H19V15H21V21Z" />
    </g>
    <g id="mdi-podium-gold" transform="translate(108 36) scale(1.5)" fill="#fff">
      <path d="M12,7.09L14.45,8.58L13.8,5.77L16,3.89L13.11,3.64L12,1L10.87,3.64L8,3.89L10.18,5.77L9.5,8.58L12,7.09M15,23H9V10H15V23M1,17V23H7V17H1M5,21H3V19H5V21M17,13V23H23V13H17M21,21H19V15H21V21Z" />
    </g>
    <g id="mdi-podium-silver" transform="translate(144 36) scale(1.5)" fill="#555">
      <path d="M20,10.09L22.45,11.58L21.8,8.77L24,6.89L21.11,6.64L20,4L18.87,6.64L16,6.89L18.18,8.77L17.5,11.58L20,10.09M23,23H17V13H23V23M1,17V23H7V17H1M5,21H3V19H5V21M9,10V23H15V10H9M13,21H11V12H13V21Z" />
    </g>
    <g id="mdi-podium-silver" transform="translate(180 36) scale(1.5)" fill="#fff">
      <path d="M20,10.09L22.45,11.58L21.8,8.77L24,6.89L21.11,6.64L20,4L18.87,6.64L16,6.89L18.18,8.77L17.5,11.58L20,10.09M23,23H17V13H23V23M1,17V23H7V17H1M5,21H3V19H5V21M9,10V23H15V10H9M13,21H11V12H13V21Z" />
    </g>
    <g id="mdi-point-of-sale" transform="translate(216 36) scale(1.5)" fill="#555">
      <path d="M20,5C19.4,5 19,5.5 19,6.1V16C19,16.6 19.4,17 20,17.1C20.6,17.1 21,16.6 21,16V6.1C21,5.5 20.6,5 20,5M16.4,2H4.6C3.7,2 3,2.7 3,3.6V17.4C3,18.3 3.7,19 4.6,19H6V21C6,21.6 6.4,22 7,22H13C13.6,22 14,21.6 14,21V19H16.4C17.3,19 18,18.3 18,17.4V3.6C18,2.7 17.3,2 16.4,2M5,8H8V10H5V8M12,11V13H9V11H12M9,10V8H12V10H9M12,14V16H9V14H12M5,11H8V13H5V11M5,16V14H8V16H5M8,21H7V19H8V21M13,21H10V19H13V21M16,16H13V14H16V16M16,13H13V11H16V13M16,10H13V8H16V10M16,6H5V4H16V6Z" />
    </g>
    <g id="mdi-point-of-sale" transform="translate(252 36) scale(1.5)" fill="#fff">
      <path d="M20,5C19.4,5 19,5.5 19,6.1V16C19,16.6 19.4,17 20,17.1C20.6,17.1 21,16.6 21,16V6.1C21,5.5 20.6,5 20,5M16.4,2H4.6C3.7,2 3,2.7 3,3.6V17.4C3,18.3 3.7,19 4.6,19H6V21C6,21.6 6.4,22 7,22H13C13.6,22 14,21.6 14,21V19H16.4C17.3,19 18,18.3 18,17.4V3.6C18,2.7 17.3,2 16.4,2M5,8H8V10H5V8M12,11V13H9V11H12M9,10V8H12V10H9M12,14V16H9V14H12M5,11H8V13H5V11M5,16V14H8V16H5M8,21H7V19H8V21M13,21H10V19H13V21M16,16H13V14H16V16M16,13H13V11H16V13M16,10H13V8H16V10M16,6H5V4H16V6Z" />
    </g>
    <g id="mdi-pokeball" transform="translate(288 36) scale(1.5)" fill="#555">
      <path d="M12,2A10,10 0 0,1 22,12A10,10 0 0,1 12,22A10,10 0 0,1 2,12A10,10 0 0,1 12,2M12,4C7.92,4 4.55,7.05 4.06,11H8.13C8.57,9.27 10.14,8 12,8C13.86,8 15.43,9.27 15.87,11H19.94C19.45,7.05 16.08,4 12,4M12,20C16.08,20 19.45,16.95 19.94,13H15.87C15.43,14.73 13.86,16 12,16C10.14,16 8.57,14.73 8.13,13H4.06C4.55,16.95 7.92,20 12,20M12,10A2,2 0 0,0 10,12A2,2 0 0,0 12,14A2,2 0 0,0 14,12A2,2 0 0,0 12,10Z" />
    </g>
    <g id="mdi-pokeball" transform="translate(324 36) scale(1.5)" fill="#fff">
      <path d="M12,2A10,10 0 0,1 22,12A10,10 0 0,1 12,22A10,10 0 0,1 2,12A10,10 0 0,1 12,2M12,4C7.92,4 4.55,7.05 4.06,11H8.13C8.57,9.27 10.14,8 12,8C13.86,8 15.43,9.27 15.87,11H19.94C19.45,7.05 16.08,4 12,4M12,20C16.08,20 19.45,16.95 19.94,13H15.87C15.43,14.73 13.86,16 12,16C10.14,16 8.57,14.73 8.13,13H4.06C4.55,16.95 7.92,20 12,20M12,10A2,2 0 0,0 10,12A2,2 0 0,0 12,14A2,2 0 0,0 14,12A2,2 0 0,0 12,10Z" />
    </g>
    <g id="mdi-pokemon-go" transform="translate(360 36) scale(1.5)" fill="#555">
      <path d="M12,2A7,7 0 0,1 19,9C19,10.4 18.59,11.71 17.88,12.8L12,22.21L6.12,12.8C5.41,11.71 5,10.4 5,9A7,7 0 0,1 12,2M12,3.5C9.3,3.5 7.06,5.44 6.59,8H9.17C9.58,6.83 10.69,6 12,6C13.31,6 14.42,6.83 14.83,8H17.41C16.94,5.44 14.7,3.5 12,3.5M12,12C10.69,12 9.58,11.17 9.17,10H6.59C6.72,10.69 6.97,11.34 7.34,11.91V11.91L7.38,12C8.36,13.5 10.06,14.5 12,14.5C13.94,14.5 15.64,13.5 16.62,12L16.66,11.91V11.91C17.03,11.34 17.28,10.69 17.41,10H14.83C14.42,11.17 13.31,12 12,12M12,7.5A1.5,1.5 0 0,0 10.5,9A1.5,1.5 0 0,0 12,10.5A1.5,1.5 0 0,0 13.5,9A1.5,1.5 0 0,0 12,7.5Z" />
    </g>
    <g id="mdi-pokemon-go" transform="translate(396 36) scale(1.5)" fill="#fff">
      <path d="M12,2A7,7 0 0,1 19,9C19,10.4 18.59,11.71 17.88,12.8L12,22.21L6.12,12.8C5.41,11.71 5,10.4 5,9A7,7 0 0,1 12,2M12,3.5C9.3,3.5 7.06,5.44 6.59,8H9.17C9.58,6.83 10.69,6 12,6C13.31,6 14.42,6.83 14.83,8H17.41C16.94,5.44 14.7,3.5 12,3.5M12,12C10.69,12 9.58,11.17 9.17,10H6.59C6.72,10.69 6.97,11.34 7.34,11.91V11.91L7.38,12C8.36,13.5 10.06,14.5 12,14.5C13.94,14.5 15.64,13.5 16.62,12L16.66,11.91V11.91C17.03,11.34 17.28,10.69 17.41,10H14.83C14.42,11.17 13.31,12 12,12M12,7.5A1.5,1.5 0 0,0 10.5,9A1.5,1.5 0 0,0 12,10.5A1.5,1.5 0 0,0 13.5,9A1.5,1.5 0 0,0 12,7.5Z" />
    </g>
    <g id="mdi-poker-chip" transform="translate(432 36) scale(1.5)" fill="#555">
      <path d="M23,12C23,18.08 18.08,23 12,23C5.92,23 1,18.08 1,12C1,5.92 5.92,1 12,1C18.08,1 23,5.92 23,12M13,4.06C15.13,4.33 17.07,5.45 18.37,7.16L20.11,6.16C18.45,3.82 15.86,2.3 13,2V4.06M3.89,6.16L5.63,7.16C6.93,5.45 8.87,4.33 11,4.06V2C8.14,2.3 5.55,3.82 3.89,6.16M2.89,16.1L4.62,15.1C3.79,13.12 3.79,10.88 4.62,8.9L2.89,7.9C1.7,10.5 1.7,13.5 2.89,16.1M11,19.94C8.87,19.67 6.93,18.55 5.63,16.84L3.89,17.84C5.55,20.18 8.14,21.7 11,22V19.94M20.11,17.84L18.37,16.84C17.07,18.55 15.13,19.67 13,19.94V21.94C15.85,21.65 18.44,20.16 20.11,17.84M21.11,16.1C22.3,13.5 22.3,10.5 21.11,7.9L19.38,8.9C20.21,10.88 20.21,13.12 19.38,15.1L21.11,16.1M15,12L12,7L9,12L12,17L15,12Z" />
    </g>
    <g id="mdi-poker-chip" transform="translate(468 36) scale(1.5)" fill="#fff">
      <path d="M23,12C23,18.08 18.08,23 12,23C5.92,23 1,18.08 1,12C1,5.92 5.92,1 12,1C18.08,1 23,5.92 23,12M13,4.06C15.13,4.33 17.07,5.45 18.37,7.16L20.11,6.16C18.45,3.82 15.86,2.3 13,2V4.06M3.89,6.16L5.63,7.16C6.93,5.45 8.87,4.33 11,4.06V2C8.14,2.3 5.55,3.82 3.89,6.16M2.89,16.1L4.62,15.1C3.79,13.12 3.79,10.88 4.62,8.9L2.89,7.9C1.7,10.5 1.7,13.5 2.89,16.1M11,19.94C8.87,19.67 6.93,18.55 5.63,16.84L3.89,17.84C5.55,20.18 8.14,21.7 11,22V19.94M20.11,17.84L18.37,16.84C17.07,18.55 15.13,19.67 13,19.94V21.94C15.85,21.65 18.44,20.16 20.11,17.84M21.11,16.1C22.3,13.5 22.3,10.5 21.11,7.9L19.38,8.9C20.21,10.88 20.21,13.12 19.38,15.1L21.11,16.1M15,12L12,7L9,12L12,17L15,12Z" />
    </g>
    <g id="mdi-polaroid" transform="translate(504 36) scale(1.5)" fill="#555">
      <path d="M6,3H18A2,2 0 0,1 20,5V19A2,2 0 0,1 18,21H6A2,2 0 0,1 4,19V5A2,2 0 0,1 6,3M6,5V17H18V5H6Z" />
    </g>
    <g id="mdi-polaroid" transform="translate(540 36) scale(1.5)" fill="#fff">
      <path d="M6,3H18A2,2 0 0,1 20,5V19A2,2 0 0,1 18,21H6A2,2 0 0,1 4,19V5A2,2 0 0,1 6,3M6,5V17H18V5H6Z" />
    </g>
    <g id="mdi-police-badge" transform="translate(576 36) scale(1.5)" fill="#555">
      <path d="M22 4L20 2C18.85 2.64 17.4 3 16 3C14.6 3 13.14 2.63 12 2C10.86 2.63 9.4 3 8 3C6.6 3 5.15 2.64 4 2L2 4C2 4 4 6 4 8S2 14 2 16C2 20 12 22 12 22S22 20 22 16C22 14 20 10 20 8S22 4 22 4M15.05 16.45L11.97 14.59L8.9 16.45L9.72 12.95L7 10.61L10.58 10.3L11.97 7L13.37 10.29L16.95 10.6L14.23 12.94L15.05 16.45Z" />
    </g>
    <g id="mdi-police-badge" transform="translate(612 36) scale(1.5)" fill="#fff">
      <path d="M22 4L20 2C18.85 2.64 17.4 3 16 3C14.6 3 13.14 2.63 12 2C10.86 2.63 9.4 3 8 3C6.6 3 5.15 2.64 4 2L2 4C2 4 4 6 4 8S2 14 2 16C2 20 12 22 12 22S22 20 22 16C22 14 20 10 20 8S22 4 22 4M15.05 16.45L11.97 14.59L8.9 16.45L9.72 12.95L7 10.61L10.58 10.3L11.97 7L13.37 10.29L16.95 10.6L14.23 12.94L15.05 16.45Z" />
    </g>
    <g id="mdi-police-badge-outline" transform="translate(648 36) scale(1.5)" fill="#555">
      <path d="M12 4.21C13.24 4.72 14.65 5 16 5C17.05 5 18.1 4.84 19.08 4.54C18.5 5.5 18 6.71 18 8C18 9.32 18.54 10.93 19.1 12.63C19.5 13.83 20 15.33 20 16C20 17.03 16.47 19 12 19.96C7.54 19 4 17.03 4 16C4 15.33 4.5 13.83 4.9 12.63C5.46 10.93 6 9.32 6 8C6 6.71 5.5 5.5 4.92 4.54C5.9 4.84 6.96 5 8 5C9.35 5 10.76 4.72 12 4.21M20 2C18.85 2.64 17.4 3 16 3C14.6 3 13.14 2.63 12 2C10.86 2.63 9.4 3 8 3C6.6 3 5.15 2.64 4 2L2 4C2 4 4 6 4 8S2 14 2 16C2 20 12 22 12 22S22 20 22 16C22 14 20 10 20 8S22 4 22 4L20 2M15.05 16.45L11.97 14.59L8.9 16.45L9.72 12.95L7 10.61L10.58 10.3L11.97 7L13.37 10.29L16.95 10.6L14.23 12.94L15.05 16.45" />
    </g>
    <g id="mdi-police-badge-outline" transform="translate(684 36) scale(1.5)" fill="#fff">
      <path d="M12 4.21C13.24 4.72 14.65 5 16 5C17.05 5 18.1 4.84 19.08 4.54C18.5 5.5 18 6.71 18 8C18 9.32 18.54 10.93 19.1 12.63C19.5 13.83 20 15.33 20 16C20 17.03 16.47 19 12 19.96C7.54 19 4 17.03 4 16C4 15.33 4.5 13.83 4.9 12.63C5.46 10.93 6 9.32 6 8C6 6.71 5.5 5.5 4.92 4.54C5.9 4.84 6.96 5 8 5C9.35 5 10.76 4.72 12 4.21M20 2C18.85 2.64 17.4 3 16 3C14.6 3 13.14 2.63 12 2C10.86 2.63 9.4 3 8 3C6.6 3 5.15 2.64 4 2L2 4C2 4 4 6 4 8S2 14 2 16C2 20 12 22 12 22S22 20 22 16C22 14 20 10 20 8S22 4 22 4L20 2M15.05 16.45L11.97 14.59L8.9 16.45L9.72 12.95L7 10.61L10.58 10.3L11.97 7L13.37 10.29L16.95 10.6L14.23 12.94L15.05 16.45" />
    </g>
    <g id="mdi-poll" transform="translate(0 72) scale(1.5)" fill="#555">
      <path d="M3,22V8H7V22H3M10,22V2H14V22H10M17,22V14H21V22H17Z" />
    </g>
    <g id="mdi-poll" transform="translate(36 72) scale(1.5)" fill="#fff">
      <path d="M3,22V8H7V22H3M10,22V2H14V22H10M17,22V14H21V22H17Z" />
    </g>
    <g id="mdi-poll-box" transform="translate(72 72) scale(1.5)" fill="#555">
      <path d="M17,17H15V13H17M13,17H11V7H13M9,17H7V10H9M19,3H5C3.89,3 3,3.89 3,5V19A2,2 0 0,0 5,21H19A2,2 0 0,0 21,19V5C21,3.89 20.1,3 19,3Z" />
    </g>
    <g id="mdi-poll-box" transform="translate(108 72) scale(1.5)" fill="#fff">
      <path d="M17,17H15V13H17M13,17H11V7H13M9,17H7V10H9M19,3H5C3.89,3 3,3.89 3,5V19A2,2 0 0,0 5,21H19A2,2 0 0,0 21,19V5C21,3.89 20.1,3 19,3Z" />
    </g>
    <g id="mdi-poll-box-outline" transform="translate(144 72) scale(1.5)" fill="#555">
      <path d="M9 17H7V10H9M13 17H11V7H13M17 17H15V13H17M19.5 19.1H4.5V5H19.5M19.5 3H4.5C3.4 3 2.5 3.9 2.5 5V19C2.5 20.1 3.4 21 4.5 21H19.5C20.6 21 21.5 20.1 21.5 19V5C21.5 3.9 20.6 3 19.5 3Z" />
    </g>
    <g id="mdi-poll-box-outline" transform="translate(180 72) scale(1.5)" fill="#fff">
      <path d="M9 17H7V10H9M13 17H11V7H13M17 17H15V13H17M19.5 19.1H4.5V5H19.5M19.5 3H4.5C3.4 3 2.5 3.9 2.5 5V19C2.5 20.1 3.4 21 4.5 21H19.5C20.6 21 21.5 20.1 21.5 19V5C21.5 3.9 20.6 3 19.5 3Z" />
    </g>
    <g id="mdi-polymer" transform="translate(216 72) scale(1.5)" fill="#555">
      <path d="M19,4H15L7.1,16.63L4.5,12L9,4H5L0.5,12L5,20H9L16.89,7.37L19.5,12L15,20H19L23.5,12L19,4Z" />
    </g>
    <g id="mdi-polymer" transform="translate(252 72) scale(1.5)" fill="#fff">
      <path d="M19,4H15L7.1,16.63L4.5,12L9,4H5L0.5,12L5,20H9L16.89,7.37L19.5,12L15,20H19L23.5,12L19,4Z" />
    </g>
    <g id="mdi-pool" transform="translate(288 72) scale(1.5)" fill="#555">
      <path d="M2,15C3.67,14.25 5.33,13.5 7,13.17V5A3,3 0 0,1 10,2C11.31,2 12.42,2.83 12.83,4H10A1,1 0 0,0 9,5V6H14V5A3,3 0 0,1 17,2C18.31,2 19.42,2.83 19.83,4H17A1,1 0 0,0 16,5V14.94C18,14.62 20,13 22,13V15C19.78,15 17.56,17 15.33,17C13.11,17 10.89,15 8.67,15C6.44,15 4.22,16 2,17V15M14,8H9V10H14V8M14,12H9V13C10.67,13.16 12.33,14.31 14,14.79V12M2,19C4.22,18 6.44,17 8.67,17C10.89,17 13.11,19 15.33,19C17.56,19 19.78,17 22,17V19C19.78,19 17.56,21 15.33,21C13.11,21 10.89,19 8.67,19C6.44,19 4.22,20 2,21V19Z" />
    </g>
    <g id="mdi-pool" transform="translate(324 72) scale(1.5)" fill="#fff">
      <path d="M2,15C3.67,14.25 5.33,13.5 7,13.17V5A3,3 0 0,1 10,2C11.31,2 12.42,2.83 12.83,4H10A1,1 0 0,0 9,5V6H14V5A3,3 0 0,1 17,2C18.31,2 19.42,2.83 19.83,4H17A1,1 0 0,0 16,5V14.94C18,14.62 20,13 22,13V15C19.78,15 17.56,17 15.33,17C13.11,17 10.89,15 8.67,15C6.44,15 4.22,16 2,17V15M14,8H9V10H14V8M14,12H9V13C10.67,13.16 12.33,14.31 14,14.79V12M2,19C4.22,18 6.44,17 8.67,17C10.89,17 13.11,19 15.33,19C17.56,19 19.78,17 22,17V19C19.78,19 17.56,21 15.33,21C13.11,21 10.89,19 8.67,19C6.44,19 4.22,20 2,21V19Z" />
    </g>
    <g id="mdi-popcorn" transform="translate(360 72) scale(1.5)" fill="#555">
      <path d="M7,22H4.75C4.75,22 4,22 3.81,20.65L2.04,3.81L2,3.5C2,2.67 2.9,2 4,2C5.1,2 6,2.67 6,3.5C6,2.67 6.9,2 8,2C9.1,2 10,2.67 10,3.5C10,2.67 10.9,2 12,2C13.09,2 14,2.66 14,3.5V3.5C14,2.67 14.9,2 16,2C17.1,2 18,2.67 18,3.5C18,2.67 18.9,2 20,2C21.1,2 22,2.67 22,3.5L21.96,3.81L20.19,20.65C20,22 19.25,22 19.25,22H17L16.5,22H13.75L10.25,22H7.5L7,22M17.85,4.93C17.55,4.39 16.84,4 16,4C15.19,4 14.36,4.36 14,4.87L13.78,20H16.66L17.85,4.93M10,4.87C9.64,4.36 8.81,4 8,4C7.16,4 6.45,4.39 6.15,4.93L7.34,20H10.22L10,4.87Z" />
    </g>
    <g id="mdi-popcorn" transform="translate(396 72) scale(1.5)" fill="#fff">
      <path d="M7,22H4.75C4.75,22 4,22 3.81,20.65L2.04,3.81L2,3.5C2,2.67 2.9,2 4,2C5.1,2 6,2.67 6,3.5C6,2.67 6.9,2 8,2C9.1,2 10,2.67 10,3.5C10,2.67 10.9,2 12,2C13.09,2 14,2.66 14,3.5V3.5C14,2.67 14.9,2 16,2C17.1,2 18,2.67 18,3.5C18,2.67 18.9,2 20,2C21.1,2 22,2.67 22,3.5L21.96,3.81L20.19,20.65C20,22 19.25,22 19.25,22H17L16.5,22H13.75L10.25,22H7.5L7,22M17.85,4.93C17.55,4.39 16.84,4 16,4C15.19,4 14.36,4.36 14,4.87L13.78,20H16.66L17.85,4.93M10,4.87C9.64,4.36 8.81,4 8,4C7.16,4 6.45,4.39 6.15,4.93L7.34,20H10.22L10,4.87Z" />
    </g>
    <g id="mdi-post" transform="translate(432 72) scale(1.5)" fill="#555">
      <path d="M3 3V21H21V3H3M18 18H6V17H18V18M18 16H6V15H18V16M18 12H6V6H18V12Z" />
    </g>
    <g id="mdi-post" transform="translate(468 72) scale(1.5)" fill="#fff">
      <path d="M3 3V21H21V3H3M18 18H6V17H18V18M18 16H6V15H18V16M18 12H6V6H18V12Z" />
    </g>
    <g id="mdi-post-outline" transform="translate(504 72) scale(1.5)" fill="#555">
      <path d="M19 5V19H5V5H19M21 3H3V21H21V3M17 17H7V16H17V17M17 15H7V14H17V15M17 12H7V7H17V12Z" />
    </g>
    <g id="mdi-post-outline" transform="translate(540 72) scale(1.5)" fill="#fff">
      <path d="M19 5V19H5V5H19M21 3H3V21H21V3M17 17H7V16H17V17M17 15H7V14H17V15M17 12H7V7H17V12Z" />
    </g>
    <g id="mdi-postage-stamp" transform="translate(576 72) scale(1.5)" fill="#555">
      <path d="M2,2V5.5C3.1,5.5 4,6.62 4,8C4,9.38 3.1,10.5 2,10.5V13.5C3.1,13.5 4,14.62 4,16C4,17.38 3.1,18.5 2,18.5V22H5.5C5.5,20.9 6.62,20 8,20C9.38,20 10.5,20.9 10.5,22H13.5C13.5,20.9 14.62,20 16,20C17.38,20 18.5,20.9 18.5,22H22V18.5C20.9,18.5 20,17.38 20,16V16C20,14.62 20.9,13.5 22,13.5V10.5C20.9,10.5 20,9.38 20,8V8C20,6.62 20.9,5.5 22,5.5V2H18.5C18.5,3.1 17.38,4 16,4C14.62,4 13.5,3.1 13.5,2H10.5C10.5,3.1 9.38,4 8,4C6.62,4 5.5,3.1 5.5,2H2M6,6H18V18H6V6M9,7A2,2 0 0,0 7,9A2,2 0 0,0 9,11A2,2 0 0,0 11,9A2,2 0 0,0 9,7M17,10L14,13L12,12L7,17H17V10Z" />
    </g>
    <g id="mdi-postage-stamp" transform="translate(612 72) scale(1.5)" fill="#fff">
      <path d="M2,2V5.5C3.1,5.5 4,6.62 4,8C4,9.38 3.1,10.5 2,10.5V13.5C3.1,13.5 4,14.62 4,16C4,17.38 3.1,18.5 2,18.5V22H5.5C5.5,20.9 6.62,20 8,20C9.38,20 10.5,20.9 10.5,22H13.5C13.5,20.9 14.62,20 16,20C17.38,20 18.5,20.9 18.5,22H22V18.5C20.9,18.5 20,17.38 20,16V16C20,14.62 20.9,13.5 22,13.5V10.5C20.9,10.5 20,9.38 20,8V8C20,6.62 20.9,5.5 22,5.5V2H18.5C18.5,3.1 17.38,4 16,4C14.62,4 13.5,3.1 13.5,2H10.5C10.5,3.1 9.38,4 8,4C6.62,4 5.5,3.1 5.5,2H2M6,6H18V18H6V6M9,7A2,2 0 0,0 7,9A2,2 0 0,0 9,11A2,2 0 0,0 11,9A2,2 0 0,0 9,7M17,10L14,13L12,12L7,17H17V10Z" />
    </g>
    <g id="mdi-pot" transform="translate(648 72) scale(1.5)" fill="#555">
      <path d="M19 19C19 20.1 18.1 21 17 21H7C5.9 21 5 20.1 5 19V12H3V10H21V12H19V19Z" />
    </g>
    <g id="mdi-pot" transform="translate(684 72) scale(1.5)" fill="#fff">
      <path d="M19 19C19 20.1 18.1 21 17 21H7C5.9 21 5 20.1 5 19V12H3V10H21V12H19V19Z" />
    </g>
    <g id="mdi-pot-mix" transform="translate(0 108) scale(1.5)" fill="#555">
      <path d="M14.6 9L18 3.1L19.7 4.1L16.9 9H14.6M14 10H3V12H5V19C5 20.1 5.9 21 7 21H17C18.1 21 19 20.1 19 19V12H21V10H14Z" />
    </g>
    <g id="mdi-pot-mix" transform="translate(36 108) scale(1.5)" fill="#fff">
      <path d="M14.6 9L18 3.1L19.7 4.1L16.9 9H14.6M14 10H3V12H5V19C5 20.1 5.9 21 7 21H17C18.1 21 19 20.1 19 19V12H21V10H14Z" />
    </g>
    <g id="mdi-pot-mix-outline" transform="translate(72 108) scale(1.5)" fill="#555">
      <path d="M14.6 9L18 3.1L19.7 4.1L16.9 9H14.6M16.3 10H21V12H19V19C19 20.1 18.1 21 17 21H7C5.9 21 5 20.1 5 19V12H3V10H16.3M17 12H7V19H17V12Z" />
    </g>
    <g id="mdi-pot-mix-outline" transform="translate(108 108) scale(1.5)" fill="#fff">
      <path d="M14.6 9L18 3.1L19.7 4.1L16.9 9H14.6M16.3 10H21V12H19V19C19 20.1 18.1 21 17 21H7C5.9 21 5 20.1 5 19V12H3V10H16.3M17 12H7V19H17V12Z" />
    </g>
    <g id="mdi-pot-outline" transform="translate(144 108) scale(1.5)" fill="#555">
      <path d="M3 10V12H5V19C5 20.1 5.9 21 7 21H17C18.1 21 19 20.1 19 19V12H21V10H3M7 12H17V19H7V12Z" />
    </g>
    <g id="mdi-pot-outline" transform="translate(180 108) scale(1.5)" fill="#fff">
      <path d="M3 10V12H5V19C5 20.1 5.9 21 7 21H17C18.1 21 19 20.1 19 19V12H21V10H3M7 12H17V19H7V12Z" />
    </g>
    <g id="mdi-pot-steam" transform="translate(216 108) scale(1.5)" fill="#555">
      <path d="M19 19C19 20.11 18.11 21 17 21H7C5.9 21 5 20.11 5 19V12H3V10H21V12H19M8 1.5C6.15 1.5 4.65 3 4.65 4.85C4.65 6.7 6.15 8.2 8 8.2H9.53C9.92 8.2 10.29 8.3 10.61 8.5H12.63C12.05 7.45 10.86 6.75 9.53 6.75H8C7 6.75 6.15 5.77 6.15 4.75C6.15 3.73 7 3 8 3M12.85 2C12.85 3 12 3.85 11 3.85V5.35C12.92 5.35 14.5 6.7 14.89 8.5H16.42C16.12 6.67 14.96 5.15 13.35 4.38C13.97 3.77 14.35 2.93 14.35 2Z" />
    </g>
    <g id="mdi-pot-steam" transform="translate(252 108) scale(1.5)" fill="#fff">
      <path d="M19 19C19 20.11 18.11 21 17 21H7C5.9 21 5 20.11 5 19V12H3V10H21V12H19M8 1.5C6.15 1.5 4.65 3 4.65 4.85C4.65 6.7 6.15 8.2 8 8.2H9.53C9.92 8.2 10.29 8.3 10.61 8.5H12.63C12.05 7.45 10.86 6.75 9.53 6.75H8C7 6.75 6.15 5.77 6.15 4.75C6.15 3.73 7 3 8 3M12.85 2C12.85 3 12 3.85 11 3.85V5.35C12.92 5.35 14.5 6.7 14.89 8.5H16.42C16.12 6.67 14.96 5.15 13.35 4.38C13.97 3.77 14.35 2.93 14.35 2Z" />
    </g>
    <g id="mdi-pot-steam-outline" transform="translate(288 108) scale(1.5)" fill="#555">
      <path d="M8 1.5C6.15 1.5 4.65 3 4.65 4.85C4.65 6.7 6.15 8.2 8 8.2H9.53C9.92 8.2 10.29 8.3 10.61 8.5H12.63C12.05 7.45 10.86 6.75 9.53 6.75H8C7 6.75 6.15 5.77 6.15 4.75C6.15 3.73 7 3 8 3V1.5M12.85 2C12.85 3 12 3.85 11 3.85V5.35C12.92 5.35 14.5 6.7 14.89 8.5H16.42C16.12 6.67 14.96 5.15 13.35 4.38C13.97 3.77 14.35 2.93 14.35 2H12.85M3 10V12H5V19C5 20.11 5.9 21 7 21H17C18.11 21 19 20.11 19 19V12H21V10H3M7 12H17V19H7V12Z" />
    </g>
    <g id="mdi-pot-steam-outline" transform="translate(324 108) scale(1.5)" fill="#fff">
      <path d="M8 1.5C6.15 1.5 4.65 3 4.65 4.85C4.65 6.7 6.15 8.2 8 8.2H9.53C9.92 8.2 10.29 8.3 10.61 8.5H12.63C12.05 7.45 10.86 6.75 9.53 6.75H8C7 6.75 6.15 5.77 6.15 4.75C6.15 3.73 7 3 8 3V1.5M12.85 2C12.85 3 12 3.85 11 3.85V5.35C12.92 5.35 14.5 6.7 14.89 8.5H16.42C16.12 6.67 14.96 5.15 13.35 4.38C13.97 3.77 14.35 2.93 14.35 2H12.85M3 10V12H5V19C5 20.11 5.9 21 7 21H17C18.11 21 19 20.11 19 19V12H21V10H3M7 12H17V19H7V12Z" />
    </g>
    <g id="mdi-pound" transform="translate(360 108) scale(1.5)" fill="#555">
      <path d="M5.41,21L6.12,17H2.12L2.47,15H6.47L7.53,9H3.53L3.88,7H7.88L8.59,3H10.59L9.88,7H15.88L16.59,3H18.59L17.88,7H21.88L21.53,9H17.53L16.47,15H20.47L20.12,17H16.12L15.41,21H13.41L14.12,17H8.12L7.41,21H5.41M9.53,9L8.47,15H14.47L15.53,9H9.53Z" />
    </g>
    <g id="mdi-pound" transform="translate(396 108) scale(1.5)" fill="#fff">
      <path d="M5.41,21L6.12,17H2.12L2.47,15H6.47L7.53,9H3.53L3.88,7H7.88L8.59,3H10.59L9.88,7H15.88L16.59,3H18.59L17.88,7H21.88L21.53,9H17.53L16.47,15H20.47L20.12,17H16.12L15.41,21H13.41L14.12,17H8.12L7.41,21H5.41M9.53,9L8.47,15H14.47L15.53,9H9.53Z" />
    </g>
    <g id="mdi-pound-box" transform="translate(432 108) scale(1.5)" fill="#555">
      <path d="M3,5A2,2 0 0,1 5,3H19A2,2 0 0,1 21,5V19A2,2 0 0,1 19,21H5C3.89,21 3,20.1 3,19V5M7,18H9L9.35,16H13.35L13,18H15L15.35,16H17.35L17.71,14H15.71L16.41,10H18.41L18.76,8H16.76L17.12,6H15.12L14.76,8H10.76L11.12,6H9.12L8.76,8H6.76L6.41,10H8.41L7.71,14H5.71L5.35,16H7.35L7,18M10.41,10H14.41L13.71,14H9.71L10.41,10Z" />
    </g>
    <g id="mdi-pound-box" transform="translate(468 108) scale(1.5)" fill="#fff">
      <path d="M3,5A2,2 0 0,1 5,3H19A2,2 0 0,1 21,5V19A2,2 0 0,1 19,21H5C3.89,21 3,20.1 3,19V5M7,18H9L9.35,16H13.35L13,18H15L15.35,16H17.35L17.71,14H15.71L16.41,10H18.41L18.76,8H16.76L17.12,6H15.12L14.76,8H10.76L11.12,6H9.12L8.76,8H6.76L6.41,10H8.41L7.71,14H5.71L5.35,16H7.35L7,18M10.41,10H14.41L13.71,14H9.71L10.41,10Z" />
    </g>
    <g id="mdi-pound-box-outline" transform="translate(504 108) scale(1.5)" fill="#555">
      <path d="M19 19H5V5H19M19 3H5A2 2 0 0 0 3 5V19A2 2 0 0 0 5 21H19A2 2 0 0 0 21 19V5A2 2 0 0 0 19 3M7 9H9.31L9.63 6H11.63L11.31 9H13.31L13.63 6H15.63L15.31 9H17V11H15.1L14.9 13H17V15H14.69L14.37 18H12.37L12.69 15H10.69L10.37 18H8.37L8.69 15H7V13H8.9L9.1 11H7V9M11.1 11L10.9 13H12.9L13.1 11Z" />
    </g>
    <g id="mdi-pound-box-outline" transform="translate(540 108) scale(1.5)" fill="#fff">
      <path d="M19 19H5V5H19M19 3H5A2 2 0 0 0 3 5V19A2 2 0 0 0 5 21H19A2 2 0 0 0 21 19V5A2 2 0 0 0 19 3M7 9H9.31L9.63 6H11.63L11.31 9H13.31L13.63 6H15.63L15.31 9H17V11H15.1L14.9 13H17V15H14.69L14.37 18H12.37L12.69 15H10.69L10.37 18H8.37L8.69 15H7V13H8.9L9.1 11H7V9M11.1 11L10.9 13H12.9L13.1 11Z" />
    </g>
    <g id="mdi-power" transform="translate(576 108) scale(1.5)" fill="#555">
      <path d="M16.56,5.44L15.11,6.89C16.84,7.94 18,9.83 18,12A6,6 0 0,1 12,18A6,6 0 0,1 6,12C6,9.83 7.16,7.94 8.88,6.88L7.44,5.44C5.36,6.88 4,9.28 4,12A8,8 0 0,0 12,20A8,8 0 0,0 20,12C20,9.28 18.64,6.88 16.56,5.44M13,3H11V13H13" />
    </g>
    <g id="mdi-power" transform="translate(612 108) scale(1.5)" fill="#fff">
      <path d="M16.56,5.44L15.11,6.89C16.84,7.94 18,9.83 18,12A6,6 0 0,1 12,18A6,6 0 0,1 6,12C6,9.83 7.16,7.94 8.88,6.88L7.44,5.44C5.36,6.88 4,9.28 4,12A8,8 0 0,0 12,20A8,8 0 0,0 20,12C20,9.28 18.64,6.88 16.56,5.44M13,3H11V13H13" />
    </g>
    <g id="mdi-power-cycle" transform="translate(648 108) scale(1.5)" fill="#555">
      <path d="M12,3A9,9 0 0,0 3,12A9,9 0 0,0 12,21A9,9 0 0,0 21,12A9,9 0 0,0 12,3M12,19A7,7 0 0,1 5,12A7,7 0 0,1 12,5A7,7 0 0,1 19,12A7,7 0 0,1 12,19M13,17H11V7H13V17Z" />
    </g>
    <g id="mdi-power-cycle" transform="translate(684 108) scale(1.5)" fill="#fff">
      <path d="M12,3A9,9 0 0,0 3,12A9,9 0 0,0 12,21A9,9 0 0,0 21,12A9,9 0 0,0 12,3M12,19A7,7 0 0,1 5,12A7,7 0 0,1 12,5A7,7 0 0,1 19,12A7,7 0 0,1 12,19M13,17H11V7H13V17Z" />
    </g>
    <g id="mdi-power-off" transform="translate(0 144) scale(1.5)" fill="#555">
      <path d="M12,3A9,9 0 0,0 3,12A9,9 0 0,0 12,21A9,9 0 0,0 21,12A9,9 0 0,0 12,3M12,19A7,7 0 0,1 5,12A7,7 0 0,1 12,5A7,7 0 0,1 19,12A7,7 0 0,1 12,19Z" />
    </g>
    <g id="mdi-power-off" transform="translate(36 144) scale(1.5)" fill="#fff">
      <path d="M12,3A9,9 0 0,0 3,12A9,9 0 0,0 12,21A9,9 0 0,0 21,12A9,9 0 0,0 12,3M12,19A7,7 0 0,1 5,12A7,7 0 0,1 12,5A7,7 0 0,1 19,12A7,7 0 0,1 12,19Z" />
    </g>
    <g id="mdi-power-on" transform="translate(72 144) scale(1.5)" fill="#555">
      <path d="M11,3H13V21H11V3Z" />
    </g>
    <g id="mdi-power-on" transform="translate(108 144) scale(1.5)" fill="#fff">
      <path d="M11,3H13V21H11V3Z" />
    </g>
    <g id="mdi-power-plug" transform="translate(144 144) scale(1.5)" fill="#555">
      <path d="M16,7V3H14V7H10V3H8V7H8C7,7 6,8 6,9V14.5L9.5,18V21H14.5V18L18,14.5V9C18,8 17,7 16,7Z" />
    </g>
    <g id="mdi-power-plug" transform="translate(180 144) scale(1.5)" fill="#fff">
      <path d="M16,7V3H14V7H10V3H8V7H8C7,7 6,8 6,9V14.5L9.5,18V21H14.5V18L18,14.5V9C18,8 17,7 16,7Z" />
    </g>
    <g id="mdi-power-plug-off" transform="translate(216 144) scale(1.5)" fill="#555">
      <path d="M8,3V6.18C11.1,9.23 14.1,12.3 17.2,15.3C17.4,15 17.8,14.8 18,14.4V8.8C18,7.68 16.7,7.16 16,6.84V3H14V7H10V3H8M3.28,4C2.85,4.42 2.43,4.85 2,5.27L6,9.27V14.5C7.17,15.65 8.33,16.83 9.5,18V21H14.5V18C14.72,17.73 14.95,18.33 15.17,18.44C16.37,19.64 17.47,20.84 18.67,22.04C19.17,21.64 19.57,21.14 19.97,20.74C14.37,15.14 8.77,9.64 3.27,4.04L3.28,4Z" />
    </g>
    <g id="mdi-power-plug-off" transform="translate(252 144) scale(1.5)" fill="#fff">
      <path d="M8,3V6.18C11.1,9.23 14.1,12.3 17.2,15.3C17.4,15 17.8,14.8 18,14.4V8.8C18,7.68 16.7,7.16 16,6.84V3H14V7H10V3H8M3.28,4C2.85,4.42 2.43,4.85 2,5.27L6,9.27V14.5C7.17,15.65 8.33,16.83 9.5,18V21H14.5V18C14.72,17.73 14.95,18.33 15.17,18.44C16.37,19.64 17.47,20.84 18.67,22.04C19.17,21.64 19.57,21.14 19.97,20.74C14.37,15.14 8.77,9.64 3.27,4.04L3.28,4Z" />
    </g>
    <g id="mdi-power-settings" transform="translate(288 144) scale(1.5)" fill="#555">
      <path d="M15,24H17V22H15M16.56,4.44L15.11,5.89C16.84,6.94 18,8.83 18,11A6,6 0 0,1 12,17A6,6 0 0,1 6,11C6,8.83 7.16,6.94 8.88,5.88L7.44,4.44C5.36,5.88 4,8.28 4,11A8,8 0 0,0 12,19A8,8 0 0,0 20,11C20,8.28 18.64,5.88 16.56,4.44M13,2H11V12H13M11,24H13V22H11M7,24H9V22H7V24Z" />
    </g>
    <g id="mdi-power-settings" transform="translate(324 144) scale(1.5)" fill="#fff">
      <path d="M15,24H17V22H15M16.56,4.44L15.11,5.89C16.84,6.94 18,8.83 18,11A6,6 0 0,1 12,17A6,6 0 0,1 6,11C6,8.83 7.16,6.94 8.88,5.88L7.44,4.44C5.36,5.88 4,8.28 4,11A8,8 0 0,0 12,19A8,8 0 0,0 20,11C20,8.28 18.64,5.88 16.56,4.44M13,2H11V12H13M11,24H13V22H11M7,24H9V22H7V24Z" />
    </g>
    <g id="mdi-power-sleep" transform="translate(360 144) scale(1.5)" fill="#555">
      <path d="M18.73,18C15.4,21.69 9.71,22 6,18.64C2.33,15.31 2.04,9.62 5.37,5.93C6.9,4.25 9,3.2 11.27,3C7.96,6.7 8.27,12.39 12,15.71C13.63,17.19 15.78,18 18,18C18.25,18 18.5,18 18.73,18Z" />
    </g>
    <g id="mdi-power-sleep" transform="translate(396 144) scale(1.5)" fill="#fff">
      <path d="M18.73,18C15.4,21.69 9.71,22 6,18.64C2.33,15.31 2.04,9.62 5.37,5.93C6.9,4.25 9,3.2 11.27,3C7.96,6.7 8.27,12.39 12,15.71C13.63,17.19 15.78,18 18,18C18.25,18 18.5,18 18.73,18Z" />
    </g>
    <g id="mdi-power-socket" transform="translate(432 144) scale(1.5)" fill="#555">
      <path d="M15,15H17V11H15M7,15H9V11H7M11,13H13V9H11M8.83,7H15.2L19,10.8V17H5V10.8M8,5L3,10V19H21V10L16,5H8Z" />
    </g>
    <g id="mdi-power-socket" transform="translate(468 144) scale(1.5)" fill="#fff">
      <path d="M15,15H17V11H15M7,15H9V11H7M11,13H13V9H11M8.83,7H15.2L19,10.8V17H5V10.8M8,5L3,10V19H21V10L16,5H8Z" />
    </g>
    <g id="mdi-power-socket-au" transform="translate(504 144) scale(1.5)" fill="#555">
      <path d="M4.22,2A2.22,2.22 0 0,0 2,4.22V19.78C2,21 3,22 4.22,22H19.78A2.22,2.22 0 0,0 22,19.78V4.22C22,3 21,2 19.78,2H4.22M12,4A8,8 0 0,1 20,12A8,8 0 0,1 12,20A8,8 0 0,1 4,12A8,8 0 0,1 12,4M8.27,7.54L6.27,11L8,12L10,8.54L8.27,7.54M15.73,7.54L14,8.54L16,12L17.73,11L15.73,7.54M11,14V18H13V14H11Z" />
    </g>
    <g id="mdi-power-socket-au" transform="translate(540 144) scale(1.5)" fill="#fff">
      <path d="M4.22,2A2.22,2.22 0 0,0 2,4.22V19.78C2,21 3,22 4.22,22H19.78A2.22,2.22 0 0,0 22,19.78V4.22C22,3 21,2 19.78,2H4.22M12,4A8,8 0 0,1 20,12A8,8 0 0,1 12,20A8,8 0 0,1 4,12A8,8 0 0,1 12,4M8.27,7.54L6.27,11L8,12L10,8.54L8.27,7.54M15.73,7.54L14,8.54L16,12L17.73,11L15.73,7.54M11,14V18H13V14H11Z" />
    </g>
    <g id="mdi-power-socket-de" transform="translate(576 144) scale(1.5)" fill="#555">
      <path d="M4.22 2A2.22 2.22 0 0 0 2 4.22V19.78C2 21 3 22 4.22 22H19.78A2.22 2.22 0 0 0 22 19.78V4.22C22 3 21 2 19.78 2H4.22M11 4.07V6H13V4.07A8 8 0 0 1 20 12A8 8 0 0 1 13 19.93V18H11V19.93A8 8 0 0 1 4 12A8 8 0 0 1 11 4.07M7.5 10.5A1.5 1.5 0 0 0 6 12C6 12.83 6.66 13.5 7.5 13.5A1.5 1.5 0 0 0 9 12A1.5 1.5 0 0 0 7.5 10.5M16.5 10.5A1.5 1.5 0 0 0 15 12A1.5 1.5 0 0 0 16.5 13.5A1.5 1.5 0 0 0 18 12A1.5 1.5 0 0 0 16.5 10.5Z" />
    </g>
    <g id="mdi-power-socket-de" transform="translate(612 144) scale(1.5)" fill="#fff">
      <path d="M4.22 2A2.22 2.22 0 0 0 2 4.22V19.78C2 21 3 22 4.22 22H19.78A2.22 2.22 0 0 0 22 19.78V4.22C22 3 21 2 19.78 2H4.22M11 4.07V6H13V4.07A8 8 0 0 1 20 12A8 8 0 0 1 13 19.93V18H11V19.93A8 8 0 0 1 4 12A8 8 0 0 1 11 4.07M7.5 10.5A1.5 1.5 0 0 0 6 12C6 12.83 6.66 13.5 7.5 13.5A1.5 1.5 0 0 0 9 12A1.5 1.5 0 0 0 7.5 10.5M16.5 10.5A1.5 1.5 0 0 0 15 12A1.5 1.5 0 0 0 16.5 13.5A1.5 1.5 0 0 0 18 12A1.5 1.5 0 0 0 16.5 10.5Z" />
    </g>
    <g id="mdi-power-socket-eu" transform="translate(648 144) scale(1.5)" fill="#555">
      <path d="M7.5,10.5A1.5,1.5 0 0,1 9,12A1.5,1.5 0 0,1 7.5,13.5C6.66,13.5 6,12.83 6,12A1.5,1.5 0 0,1 7.5,10.5M16.5,10.5A1.5,1.5 0 0,1 18,12A1.5,1.5 0 0,1 16.5,13.5A1.5,1.5 0 0,1 15,12A1.5,1.5 0 0,1 16.5,10.5M4.22,2H19.78C21,2 22,3 22,4.22V19.78A2.22,2.22 0 0,1 19.78,22H4.22C3,22 2,21 2,19.78V4.22A2.22,2.22 0 0,1 4.22,2M12,4A8,8 0 0,0 4,12A8,8 0 0,0 12,20A8,8 0 0,0 20,12A8,8 0 0,0 12,4Z" />
    </g>
    <g id="mdi-power-socket-eu" transform="translate(684 144) scale(1.5)" fill="#fff">
      <path d="M7.5,10.5A1.5,1.5 0 0,1 9,12A1.5,1.5 0 0,1 7.5,13.5C6.66,13.5 6,12.83 6,12A1.5,1.5 0 0,1 7.5,10.5M16.5,10.5A1.5,1.5 0 0,1 18,12A1.5,1.5 0 0,1 16.5,13.5A1.5,1.5 0 0,1 15,12A1.5,1.5 0 0,1 16.5,10.5M4.22,2H19.78C21,2 22,3 22,4.22V19.78A2.22,2.22 0 0,1 19.78,22H4.22C3,22 2,21 2,19.78V4.22A2.22,2.22 0 0,1 4.22,2M12,4A8,8 0 0,0 4,12A8,8 0 0,0 12,20A8,8 0 0,0 20,12A8,8 0 0,0 12,4Z" />
    </g>
    <g id="mdi-power-socket-fr" transform="translate(0 180) scale(1.5)" fill="#555">
      <path d="M4.22 2A2.22 2.22 0 0 0 2 4.22V19.78C2 21 3 22 4.22 22H19.78A2.22 2.22 0 0 0 22 19.78V4.22C22 3 21 2 19.78 2H4.22M12 4A8 8 0 0 1 20 12A8 8 0 0 1 12 20A8 8 0 0 1 4 12A8 8 0 0 1 12 4M12 6A1.5 1.5 0 0 0 10.5 7.5A1.5 1.5 0 0 0 12 9A1.5 1.5 0 0 0 13.5 7.5A1.5 1.5 0 0 0 12 6M7.5 10.5A1.5 1.5 0 0 0 6 12C6 12.83 6.66 13.5 7.5 13.5A1.5 1.5 0 0 0 9 12A1.5 1.5 0 0 0 7.5 10.5M16.5 10.5A1.5 1.5 0 0 0 15 12A1.5 1.5 0 0 0 16.5 13.5A1.5 1.5 0 0 0 18 12A1.5 1.5 0 0 0 16.5 10.5Z" />
    </g>
    <g id="mdi-power-socket-fr" transform="translate(36 180) scale(1.5)" fill="#fff">
      <path d="M4.22 2A2.22 2.22 0 0 0 2 4.22V19.78C2 21 3 22 4.22 22H19.78A2.22 2.22 0 0 0 22 19.78V4.22C22 3 21 2 19.78 2H4.22M12 4A8 8 0 0 1 20 12A8 8 0 0 1 12 20A8 8 0 0 1 4 12A8 8 0 0 1 12 4M12 6A1.5 1.5 0 0 0 10.5 7.5A1.5 1.5 0 0 0 12 9A1.5 1.5 0 0 0 13.5 7.5A1.5 1.5 0 0 0 12 6M7.5 10.5A1.5 1.5 0 0 0 6 12C6 12.83 6.66 13.5 7.5 13.5A1.5 1.5 0 0 0 9 12A1.5 1.5 0 0 0 7.5 10.5M16.5 10.5A1.5 1.5 0 0 0 15 12A1.5 1.5 0 0 0 16.5 13.5A1.5 1.5 0 0 0 18 12A1.5 1.5 0 0 0 16.5 10.5Z" />
    </g>
    <g id="mdi-power-socket-jp" transform="translate(72 180) scale(1.5)" fill="#555">
      <path d="M10 9.5V14.5H8V9.5M19.78 2C21 2 22 3 22 4.22V19.78C22 21 21 22 19.78 22H4.22C3 22 2 21 2 19.78V4.22C2 3 3 2 4.22 2M12 4C7.58 4 4 7.58 4 12C4 16.42 7.58 20 12 20C16.42 20 20 16.42 20 12C20 7.58 16.42 4 12 4M16 9.5V14.5H14V9.5Z" />
    </g>
    <g id="mdi-power-socket-jp" transform="translate(108 180) scale(1.5)" fill="#fff">
      <path d="M10 9.5V14.5H8V9.5M19.78 2C21 2 22 3 22 4.22V19.78C22 21 21 22 19.78 22H4.22C3 22 2 21 2 19.78V4.22C2 3 3 2 4.22 2M12 4C7.58 4 4 7.58 4 12C4 16.42 7.58 20 12 20C16.42 20 20 16.42 20 12C20 7.58 16.42 4 12 4M16 9.5V14.5H14V9.5Z" />
    </g>
    <g id="mdi-power-socket-uk" transform="translate(144 180) scale(1.5)" fill="#555">
      <path d="M4 2A2 2 0 0 0 2 4V20A2 2 0 0 0 4 22H20A2 2 0 0 0 22 20V4A2 2 0 0 0 20 2H4M4 4H20V20H4V4M11 7V11H13V7H11M6 14.75V17H9.5V14.75H6M14.5 14.75V17H18V14.75H14.5Z" />
    </g>
    <g id="mdi-power-socket-uk" transform="translate(180 180) scale(1.5)" fill="#fff">
      <path d="M4 2A2 2 0 0 0 2 4V20A2 2 0 0 0 4 22H20A2 2 0 0 0 22 20V4A2 2 0 0 0 20 2H4M4 4H20V20H4V4M11 7V11H13V7H11M6 14.75V17H9.5V14.75H6M14.5 14.75V17H18V14.75H14.5Z" />
    </g>
    <g id="mdi-power-socket-us" transform="translate(216 180) scale(1.5)" fill="#555">
      <path d="M8,7H10V12H8V7M4.22,2H19.78C21,2 22,3 22,4.22V19.78A2.22,2.22 0 0,1 19.78,22H4.22C3,22 2,21 2,19.78V4.22A2.22,2.22 0 0,1 4.22,2M12,4A8,8 0 0,0 4,12A8,8 0 0,0 12,20A8,8 0 0,0 20,12A8,8 0 0,0 12,4M14,7.5H16V11.5H14V7.5M10.5,16.25A1.5,1.5 0 0,1 12,14.75A1.5,1.5 0 0,1 13.5,16.25V17H10.5V16.25Z" />
    </g>
    <g id="mdi-power-socket-us" transform="translate(252 180) scale(1.5)" fill="#fff">
      <path d="M8,7H10V12H8V7M4.22,2H19.78C21,2 22,3 22,4.22V19.78A2.22,2.22 0 0,1 19.78,22H4.22C3,22 2,21 2,19.78V4.22A2.22,2.22 0 0,1 4.22,2M12,4A8,8 0 0,0 4,12A8,8 0 0,0 12,20A8,8 0 0,0 20,12A8,8 0 0,0 12,4M14,7.5H16V11.5H14V7.5M10.5,16.25A1.5,1.5 0 0,1 12,14.75A1.5,1.5 0 0,1 13.5,16.25V17H10.5V16.25Z" />
    </g>
    <g id="mdi-power-standby" transform="translate(288 180) scale(1.5)" fill="#555">
      <path d="M13,3H11V13H13V3M17.83,5.17L16.41,6.59C18.05,7.91 19,9.9 19,12A7,7 0 0,1 12,19C8.14,19 5,15.88 5,12C5,9.91 5.95,7.91 7.58,6.58L6.17,5.17C2.38,8.39 1.92,14.07 5.14,17.86C8.36,21.64 14.04,22.1 17.83,18.88C19.85,17.17 21,14.65 21,12C21,9.37 19.84,6.87 17.83,5.17Z" />
    </g>
    <g id="mdi-power-standby" transform="translate(324 180) scale(1.5)" fill="#fff">
      <path d="M13,3H11V13H13V3M17.83,5.17L16.41,6.59C18.05,7.91 19,9.9 19,12A7,7 0 0,1 12,19C8.14,19 5,15.88 5,12C5,9.91 5.95,7.91 7.58,6.58L6.17,5.17C2.38,8.39 1.92,14.07 5.14,17.86C8.36,21.64 14.04,22.1 17.83,18.88C19.85,17.17 21,14.65 21,12C21,9.37 19.84,6.87 17.83,5.17Z" />
    </g>
    <g id="mdi-powershell" transform="translate(360 180) scale(1.5)" fill="#555">
      <path d="M21.83,4C22.32,4 22.63,4.4 22.5,4.89L19.34,19.11C19.23,19.6 18.75,20 18.26,20H2.17C1.68,20 1.37,19.6 1.5,19.11L4.66,4.89C4.77,4.4 5.25,4 5.74,4H21.83M15.83,16H11.83C11.37,16 11,16.38 11,16.84C11,17.31 11.37,17.69 11.83,17.69H15.83C16.3,17.69 16.68,17.31 16.68,16.84C16.68,16.38 16.3,16 15.83,16M5.78,16.28C5.38,16.56 5.29,17.11 5.57,17.5C5.85,17.92 6.41,18 6.81,17.73C14.16,12.56 14.21,12.5 14.26,12.47C14.44,12.31 14.53,12.09 14.54,11.87C14.55,11.67 14.5,11.5 14.38,11.31L9.46,6.03C9.13,5.67 8.57,5.65 8.21,6C7.85,6.32 7.83,6.88 8.16,7.24L12.31,11.68L5.78,16.28Z" />
    </g>
    <g id="mdi-powershell" transform="translate(396 180) scale(1.5)" fill="#fff">
      <path d="M21.83,4C22.32,4 22.63,4.4 22.5,4.89L19.34,19.11C19.23,19.6 18.75,20 18.26,20H2.17C1.68,20 1.37,19.6 1.5,19.11L4.66,4.89C4.77,4.4 5.25,4 5.74,4H21.83M15.83,16H11.83C11.37,16 11,16.38 11,16.84C11,17.31 11.37,17.69 11.83,17.69H15.83C16.3,17.69 16.68,17.31 16.68,16.84C16.68,16.38 16.3,16 15.83,16M5.78,16.28C5.38,16.56 5.29,17.11 5.57,17.5C5.85,17.92 6.41,18 6.81,17.73C14.16,12.56 14.21,12.5 14.26,12.47C14.44,12.31 14.53,12.09 14.54,11.87C14.55,11.67 14.5,11.5 14.38,11.31L9.46,6.03C9.13,5.67 8.57,5.65 8.21,6C7.85,6.32 7.83,6.88 8.16,7.24L12.31,11.68L5.78,16.28Z" />
    </g>
    <g id="mdi-prescription" transform="translate(432 180) scale(1.5)" fill="#555">
      <path d="M4,4V10L4,14H6V10H8L13.41,15.41L9.83,19L11.24,20.41L14.83,16.83L18.41,20.41L19.82,19L16.24,15.41L19.82,11.83L18.41,10.41L14.83,14L10.83,10H11A3,3 0 0,0 14,7A3,3 0 0,0 11,4H4M6,6H11A1,1 0 0,1 12,7A1,1 0 0,1 11,8H6V6Z" />
    </g>
    <g id="mdi-prescription" transform="translate(468 180) scale(1.5)" fill="#fff">
      <path d="M4,4V10L4,14H6V10H8L13.41,15.41L9.83,19L11.24,20.41L14.83,16.83L18.41,20.41L19.82,19L16.24,15.41L19.82,11.83L18.41,10.41L14.83,14L10.83,10H11A3,3 0 0,0 14,7A3,3 0 0,0 11,4H4M6,6H11A1,1 0 0,1 12,7A1,1 0 0,1 11,8H6V6Z" />
    </g>
    <g id="mdi-presentation" transform="translate(504 180) scale(1.5)" fill="#555">
      <path d="M2,3H10A2,2 0 0,1 12,1A2,2 0 0,1 14,3H22V5H21V16H15.25L17,22H15L13.25,16H10.75L9,22H7L8.75,16H3V5H2V3M5,5V14H19V5H5Z" />
    </g>
    <g id="mdi-presentation" transform="translate(540 180) scale(1.5)" fill="#fff">
      <path d="M2,3H10A2,2 0 0,1 12,1A2,2 0 0,1 14,3H22V5H21V16H15.25L17,22H15L13.25,16H10.75L9,22H7L8.75,16H3V5H2V3M5,5V14H19V5H5Z" />
    </g>
    <g id="mdi-presentation-play" transform="translate(576 180) scale(1.5)" fill="#555">
      <path d="M2,3H10A2,2 0 0,1 12,1A2,2 0 0,1 14,3H22V5H21V16H15.25L17,22H15L13.25,16H10.75L9,22H7L8.75,16H3V5H2V3M5,5V14H19V5H5M11.85,11.85C11.76,11.94 11.64,12 11.5,12A0.5,0.5 0 0,1 11,11.5V7.5A0.5,0.5 0 0,1 11.5,7C11.64,7 11.76,7.06 11.85,7.15L13.25,8.54C13.57,8.86 13.89,9.18 13.89,9.5C13.89,9.82 13.57,10.14 13.25,10.46L11.85,11.85Z" />
    </g>
    <g id="mdi-presentation-play" transform="translate(612 180) scale(1.5)" fill="#fff">
      <path d="M2,3H10A2,2 0 0,1 12,1A2,2 0 0,1 14,3H22V5H21V16H15.25L17,22H15L13.25,16H10.75L9,22H7L8.75,16H3V5H2V3M5,5V14H19V5H5M11.85,11.85C11.76,11.94 11.64,12 11.5,12A0.5,0.5 0 0,1 11,11.5V7.5A0.5,0.5 0 0,1 11.5,7C11.64,7 11.76,7.06 11.85,7.15L13.25,8.54C13.57,8.86 13.89,9.18 13.89,9.5C13.89,9.82 13.57,10.14 13.25,10.46L11.85,11.85Z" />
    </g>
    <g id="mdi-printer" transform="translate(648 180) scale(1.5)" fill="#555">
      <path d="M18,3H6V7H18M19,12A1,1 0 0,1 18,11A1,1 0 0,1 19,10A1,1 0 0,1 20,11A1,1 0 0,1 19,12M16,19H8V14H16M19,8H5A3,3 0 0,0 2,11V17H6V21H18V17H22V11A3,3 0 0,0 19,8Z" />
    </g>
    <g id="mdi-printer" transform="translate(684 180) scale(1.5)" fill="#fff">
      <path d="M18,3H6V7H18M19,12A1,1 0 0,1 18,11A1,1 0 0,1 19,10A1,1 0 0,1 20,11A1,1 0 0,1 19,12M16,19H8V14H16M19,8H5A3,3 0 0,0 2,11V17H6V21H18V17H22V11A3,3 0 0,0 19,8Z" />
    </g>
    <g id="mdi-printer-3d" transform="translate(0 216) scale(1.5)" fill="#555">
      <path d="" />
    </g>
    <g id="mdi-printer-3d" transform="translate(36 216) scale(1.5)" fill="#fff">
      <path d="" />
    </g>
    <g id="mdi-printer-3d-nozzle" transform="translate(72 216) scale(1.5)" fill="#555">
      <path d="" />
    </g>
    <g id="mdi-printer-3d-nozzle" transform="translate(108 216) scale(1.5)" fill="#fff">
      <path d="" />
    </g>
    <g id="mdi-printer-3d-nozzle-alert" transform="translate(144 216) scale(1.5)" fill="#555">
      <path d="" />
    </g>
    <g id="mdi-printer-3d-nozzle-alert" transform="translate(180 216) scale(1.5)" fill="#fff">
      <path d="" />
    </g>
    <g id="mdi-printer-3d-nozzle-alert-outline" transform="translate(216 216) scale(1.5)" fill="#555">
      <path d="" />
    </g>
    <g id="mdi-printer-3d-nozzle-alert-outline" transform="translate(252 216) scale(1.5)" fill="#fff">
      <path d="" />
    </g>
    <g id="mdi-printer-3d-nozzle-outline" transform="translate(288 216) scale(1.5)" fill="#555">
      <path d="" />
    </g>
    <g id="mdi-printer-3d-nozzle-outline" transform="translate(324 216) scale(1.5)" fill="#fff">
      <path d="" />
    </g>
    <g id="mdi-printer-alert" transform="translate(360 216) scale(1.5)" fill="#555">
      <path d="M14,4V8H6V4H14M15,13A1,1 0 0,0 16,12A1,1 0 0,0 15,11A1,1 0 0,0 14,12A1,1 0 0,0 15,13M13,19V15H7V19H13M15,9A3,3 0 0,1 18,12V17H15V21H5V17H2V12A3,3 0 0,1 5,9H15M22,7V12H20V7H22M22,14V16H20V14H22Z" />
    </g>
    <g id="mdi-printer-alert" transform="translate(396 216) scale(1.5)" fill="#fff">
      <path d="M14,4V8H6V4H14M15,13A1,1 0 0,0 16,12A1,1 0 0,0 15,11A1,1 0 0,0 14,12A1,1 0 0,0 15,13M13,19V15H7V19H13M15,9A3,3 0 0,1 18,12V17H15V21H5V17H2V12A3,3 0 0,1 5,9H15M22,7V12H20V7H22M22,14V16H20V14H22Z" />
    </g>
    <g id="mdi-printer-check" transform="translate(432 216) scale(1.5)" fill="#555">
      <path d="M18 7H6V3H18V7M6 21V17H2V11C2 9.34 3.34 8 5 8H19C20.66 8 22 9.34 22 11V13.81C21.12 13.3 20.1 13 19 13C17.77 13 16.64 13.37 15.69 14H8V19H13C13 19.7 13.13 20.37 13.35 21H6M18 11C18 11.55 18.45 12 19 12S20 11.55 20 11 19.55 10 19 10 18 10.45 18 11M23.5 17L22 15.5L18.5 19L16.5 17L15 18.5L18.5 22L23.5 17" />
    </g>
    <g id="mdi-printer-check" transform="translate(468 216) scale(1.5)" fill="#fff">
      <path d="M18 7H6V3H18V7M6 21V17H2V11C2 9.34 3.34 8 5 8H19C20.66 8 22 9.34 22 11V13.81C21.12 13.3 20.1 13 19 13C17.77 13 16.64 13.37 15.69 14H8V19H13C13 19.7 13.13 20.37 13.35 21H6M18 11C18 11.55 18.45 12 19 12S20 11.55 20 11 19.55 10 19 10 18 10.45 18 11M23.5 17L22 15.5L18.5 19L16.5 17L15 18.5L18.5 22L23.5 17" />
    </g>
    <g id="mdi-printer-off" transform="translate(504 216) scale(1.5)" fill="#555">
      <path d="M6,3V4.18L8.82,7H18V3H6M2.28,3L1,4.27L4.75,8C3.19,8.15 2,9.44 2,11V17H6V21H17.73L19.73,23L21,21.72L2.28,3M9.82,8L18.82,17H22V11A3,3 0 0,0 19,8H9.82M19,10A1,1 0 0,1 20,11A1,1 0 0,1 19,12A1,1 0 0,1 18,11A1,1 0 0,1 19,10M8,14H10.73L15.73,19H8V14Z" />
    </g>
    <g id="mdi-printer-off" transform="translate(540 216) scale(1.5)" fill="#fff">
      <path d="M6,3V4.18L8.82,7H18V3H6M2.28,3L1,4.27L4.75,8C3.19,8.15 2,9.44 2,11V17H6V21H17.73L19.73,23L21,21.72L2.28,3M9.82,8L18.82,17H22V11A3,3 0 0,0 19,8H9.82M19,10A1,1 0 0,1 20,11A1,1 0 0,1 19,12A1,1 0 0,1 18,11A1,1 0 0,1 19,10M8,14H10.73L15.73,19H8V14Z" />
    </g>
    <g id="mdi-printer-pos" transform="translate(576 216) scale(1.5)" fill="#555">
      <path d="M18 10H6A2 2 0 0 0 4 12V19H20V12A2 2 0 0 0 18 10M18 14H14V12H18M17 9H7V4H17Z" />
    </g>
    <g id="mdi-printer-pos" transform="translate(612 216) scale(1.5)" fill="#fff">
      <path d="M18 10H6A2 2 0 0 0 4 12V19H20V12A2 2 0 0 0 18 10M18 14H14V12H18M17 9H7V4H17Z" />
    </g>
    <g id="mdi-printer-settings" transform="translate(648 216) scale(1.5)" fill="#555">
      <path d="M18,2V6H6V2H18M19,11A1,1 0 0,0 20,10A1,1 0 0,0 19,9A1,1 0 0,0 18,10A1,1 0 0,0 19,11M16,18V13H8V18H16M19,7A3,3 0 0,1 22,10V16H18V20H6V16H2V10A3,3 0 0,1 5,7H19M15,24V22H17V24H15M11,24V22H13V24H11M7,24V22H9V24H7Z" />
    </g>
    <g id="mdi-printer-settings" transform="translate(684 216) scale(1.5)" fill="#fff">
      <path d="M18,2V6H6V2H18M19,11A1,1 0 0,0 20,10A1,1 0 0,0 19,9A1,1 0 0,0 18,10A1,1 0 0,0 19,11M16,18V13H8V18H16M19,7A3,3 0 0,1 22,10V16H18V20H6V16H2V10A3,3 0 0,1 5,7H19M15,24V22H17V24H15M11,24V22H13V24H11M7,24V22H9V24H7Z" />
    </g>
    <g id="mdi-printer-wireless" transform="translate(0 252) scale(1.5)" fill="#555">
      <path d="M4.93,3.92L6.34,5.33C9.46,2.2 14.53,2.2 17.66,5.33L19.07,3.92C15.17,0 8.84,0 4.93,3.92M7.76,6.75L9.17,8.16C10.73,6.6 13.26,6.6 14.83,8.16L16.24,6.75C13.9,4.41 10.1,4.41 7.76,6.75M19,14A1,1 0 0,1 18,13A1,1 0 0,1 19,12A1,1 0 0,1 20,13A1,1 0 0,1 19,14M16,20H8V15H16V20M19,10H5A3,3 0 0,0 2,13V18H6V22H18V18H22V13A3,3 0 0,0 19,10Z" />
    </g>
    <g id="mdi-printer-wireless" transform="translate(36 252) scale(1.5)" fill="#fff">
      <path d="M4.93,3.92L6.34,5.33C9.46,2.2 14.53,2.2 17.66,5.33L19.07,3.92C15.17,0 8.84,0 4.93,3.92M7.76,6.75L9.17,8.16C10.73,6.6 13.26,6.6 14.83,8.16L16.24,6.75C13.9,4.41 10.1,4.41 7.76,6.75M19,14A1,1 0 0,1 18,13A1,1 0 0,1 19,12A1,1 0 0,1 20,13A1,1 0 0,1 19,14M16,20H8V15H16V20M19,10H5A3,3 0 0,0 2,13V18H6V22H18V18H22V13A3,3 0 0,0 19,10Z" />
    </g>
    <g id="mdi-priority-high" transform="translate(72 252) scale(1.5)" fill="#555">
      <path d="M14,19H22V17H14V19M14,13.5H22V11.5H14V13.5M14,8H22V6H14V8M2,12.5C2,8.92 4.92,6 8.5,6H9V4L12,7L9,10V8H8.5C6,8 4,10 4,12.5C4,15 6,17 8.5,17H12V19H8.5C4.92,19 2,16.08 2,12.5Z" />
    </g>
    <g id="mdi-priority-high" transform="translate(108 252) scale(1.5)" fill="#fff">
      <path d="M14,19H22V17H14V19M14,13.5H22V11.5H14V13.5M14,8H22V6H14V8M2,12.5C2,8.92 4.92,6 8.5,6H9V4L12,7L9,10V8H8.5C6,8 4,10 4,12.5C4,15 6,17 8.5,17H12V19H8.5C4.92,19 2,16.08 2,12.5Z" />
    </g>
    <g id="mdi-priority-low" transform="translate(144 252) scale(1.5)" fill="#555">
      <path d="M14,5H22V7H14V5M14,10.5H22V12.5H14V10.5M14,16H22V18H14V16M2,11.5C2,15.08 4.92,18 8.5,18H9V20L12,17L9,14V16H8.5C6,16 4,14 4,11.5C4,9 6,7 8.5,7H12V5H8.5C4.92,5 2,7.92 2,11.5Z" />
    </g>
    <g id="mdi-priority-low" transform="translate(180 252) scale(1.5)" fill="#fff">
      <path d="M14,5H22V7H14V5M14,10.5H22V12.5H14V10.5M14,16H22V18H14V16M2,11.5C2,15.08 4.92,18 8.5,18H9V20L12,17L9,14V16H8.5C6,16 4,14 4,11.5C4,9 6,7 8.5,7H12V5H8.5C4.92,5 2,7.92 2,11.5Z" />
    </g>
    <g id="mdi-professional-hexagon" transform="translate(216 252) scale(1.5)" fill="#555">
      <path d="M21,16.5C21,16.88 20.79,17.21 20.47,17.38L12.57,21.82C12.41,21.94 12.21,22 12,22C11.79,22 11.59,21.94 11.43,21.82L3.53,17.38C3.21,17.21 3,16.88 3,16.5V7.5C3,7.12 3.21,6.79 3.53,6.62L11.43,2.18C11.59,2.06 11.79,2 12,2C12.21,2 12.41,2.06 12.57,2.18L20.47,6.62C20.79,6.79 21,7.12 21,7.5V16.5M5,9V15H6.25V13H7A2,2 0 0,0 9,11A2,2 0 0,0 7,9H5M6.25,12V10H6.75A1,1 0 0,1 7.75,11A1,1 0 0,1 6.75,12H6.25M9.75,9V15H11V13H11.75L12.41,15H13.73L12.94,12.61C13.43,12.25 13.75,11.66 13.75,11A2,2 0 0,0 11.75,9H9.75M11,12V10H11.5A1,1 0 0,1 12.5,11A1,1 0 0,1 11.5,12H11M17,9C15.62,9 14.5,10.34 14.5,12C14.5,13.66 15.62,15 17,15C18.38,15 19.5,13.66 19.5,12C19.5,10.34 18.38,9 17,9M17,10.25C17.76,10.25 18.38,11.03 18.38,12C18.38,12.97 17.76,13.75 17,13.75C16.24,13.75 15.63,12.97 15.63,12C15.63,11.03 16.24,10.25 17,10.25Z" />
    </g>
    <g id="mdi-professional-hexagon" transform="translate(252 252) scale(1.5)" fill="#fff">
      <path d="M21,16.5C21,16.88 20.79,17.21 20.47,17.38L12.57,21.82C12.41,21.94 12.21,22 12,22C11.79,22 11.59,21.94 11.43,21.82L3.53,17.38C3.21,17.21 3,16.88 3,16.5V7.5C3,7.12 3.21,6.79 3.53,6.62L11.43,2.18C11.59,2.06 11.79,2 12,2C12.21,2 12.41,2.06 12.57,2.18L20.47,6.62C20.79,6.79 21,7.12 21,7.5V16.5M5,9V15H6.25V13H7A2,2 0 0,0 9,11A2,2 0 0,0 7,9H5M6.25,12V10H6.75A1,1 0 0,1 7.75,11A1,1 0 0,1 6.75,12H6.25M9.75,9V15H11V13H11.75L12.41,15H13.73L12.94,12.61C13.43,12.25 13.75,11.66 13.75,11A2,2 0 0,0 11.75,9H9.75M11,12V10H11.5A1,1 0 0,1 12.5,11A1,1 0 0,1 11.5,12H11M17,9C15.62,9 14.5,10.34 14.5,12C14.5,13.66 15.62,15 17,15C18.38,15 19.5,13.66 19.5,12C19.5,10.34 18.38,9 17,9M17,10.25C17.76,10.25 18.38,11.03 18.38,12C18.38,12.97 17.76,13.75 17,13.75C16.24,13.75 15.63,12.97 15.63,12C15.63,11.03 16.24,10.25 17,10.25Z" />
    </g>
    <g id="mdi-progress-alert" transform="translate(288 252) scale(1.5)" fill="#555">
      <path d="M13,2V4C17.39,4.54 20.5,8.53 19.96,12.92C19.5,16.56 16.64,19.43 13,19.88V21.88C18.5,21.28 22.45,16.34 21.85,10.85C21.33,6.19 17.66,2.5 13,2M11,2C9.04,2.18 7.19,2.95 5.67,4.2L7.1,5.74C8.22,4.84 9.57,4.26 11,4.06V2.06M4.26,5.67C3,7.19 2.24,9.04 2.05,11H4.05C4.24,9.58 4.8,8.23 5.69,7.1L4.26,5.67M2.06,13C2.26,14.96 3.03,16.81 4.27,18.33L5.69,16.9C4.81,15.77 4.24,14.42 4.06,13H2.06M7.06,18.37L5.67,19.74C7.18,21 9.04,21.79 11,22V20C9.58,19.82 8.23,19.25 7.1,18.37H7.06M13,13V7H11V13H13M13,17V15H11V17H13Z" />
    </g>
    <g id="mdi-progress-alert" transform="translate(324 252) scale(1.5)" fill="#fff">
      <path d="M13,2V4C17.39,4.54 20.5,8.53 19.96,12.92C19.5,16.56 16.64,19.43 13,19.88V21.88C18.5,21.28 22.45,16.34 21.85,10.85C21.33,6.19 17.66,2.5 13,2M11,2C9.04,2.18 7.19,2.95 5.67,4.2L7.1,5.74C8.22,4.84 9.57,4.26 11,4.06V2.06M4.26,5.67C3,7.19 2.24,9.04 2.05,11H4.05C4.24,9.58 4.8,8.23 5.69,7.1L4.26,5.67M2.06,13C2.26,14.96 3.03,16.81 4.27,18.33L5.69,16.9C4.81,15.77 4.24,14.42 4.06,13H2.06M7.06,18.37L5.67,19.74C7.18,21 9.04,21.79 11,22V20C9.58,19.82 8.23,19.25 7.1,18.37H7.06M13,13V7H11V13H13M13,17V15H11V17H13Z" />
    </g>
    <g id="mdi-progress-check" transform="translate(360 252) scale(1.5)" fill="#555">
      <path d="M13,2.03V2.05L13,4.05C17.39,4.59 20.5,8.58 19.96,12.97C19.5,16.61 16.64,19.5 13,19.93V21.93C18.5,21.38 22.5,16.5 21.95,11C21.5,6.25 17.73,2.5 13,2.03M11,2.06C9.05,2.25 7.19,3 5.67,4.26L7.1,5.74C8.22,4.84 9.57,4.26 11,4.06V2.06M4.26,5.67C3,7.19 2.25,9.04 2.05,11H4.05C4.24,9.58 4.8,8.23 5.69,7.1L4.26,5.67M15.5,8.5L10.62,13.38L8.5,11.26L7.44,12.32L10.62,15.5L16.56,9.56L15.5,8.5M2.06,13C2.26,14.96 3.03,16.81 4.27,18.33L5.69,16.9C4.81,15.77 4.24,14.42 4.06,13H2.06M7.1,18.37L5.67,19.74C7.18,21 9.04,21.79 11,22V20C9.58,19.82 8.23,19.25 7.1,18.37Z" />
    </g>
    <g id="mdi-progress-check" transform="translate(396 252) scale(1.5)" fill="#fff">
      <path d="M13,2.03V2.05L13,4.05C17.39,4.59 20.5,8.58 19.96,12.97C19.5,16.61 16.64,19.5 13,19.93V21.93C18.5,21.38 22.5,16.5 21.95,11C21.5,6.25 17.73,2.5 13,2.03M11,2.06C9.05,2.25 7.19,3 5.67,4.26L7.1,5.74C8.22,4.84 9.57,4.26 11,4.06V2.06M4.26,5.67C3,7.19 2.25,9.04 2.05,11H4.05C4.24,9.58 4.8,8.23 5.69,7.1L4.26,5.67M15.5,8.5L10.62,13.38L8.5,11.26L7.44,12.32L10.62,15.5L16.56,9.56L15.5,8.5M2.06,13C2.26,14.96 3.03,16.81 4.27,18.33L5.69,16.9C4.81,15.77 4.24,14.42 4.06,13H2.06M7.1,18.37L5.67,19.74C7.18,21 9.04,21.79 11,22V20C9.58,19.82 8.23,19.25 7.1,18.37Z" />
    </g>
    <g id="mdi-progress-clock" transform="translate(432 252) scale(1.5)" fill="#555">
      <path d="M13,2.03V2.05L13,4.05C17.39,4.59 20.5,8.58 19.96,12.97C19.5,16.61 16.64,19.5 13,19.93V21.93C18.5,21.38 22.5,16.5 21.95,11C21.5,6.25 17.73,2.5 13,2.03M11,2.06C9.05,2.25 7.19,3 5.67,4.26L7.1,5.74C8.22,4.84 9.57,4.26 11,4.06V2.06M4.26,5.67C3,7.19 2.25,9.04 2.05,11H4.05C4.24,9.58 4.8,8.23 5.69,7.1L4.26,5.67M2.06,13C2.26,14.96 3.03,16.81 4.27,18.33L5.69,16.9C4.81,15.77 4.24,14.42 4.06,13H2.06M7.1,18.37L5.67,19.74C7.18,21 9.04,21.79 11,22V20C9.58,19.82 8.23,19.25 7.1,18.37M12.5,7V12.25L17,14.92L16.25,16.15L11,13V7H12.5Z" />
    </g>
    <g id="mdi-progress-clock" transform="translate(468 252) scale(1.5)" fill="#fff">
      <path d="M13,2.03V2.05L13,4.05C17.39,4.59 20.5,8.58 19.96,12.97C19.5,16.61 16.64,19.5 13,19.93V21.93C18.5,21.38 22.5,16.5 21.95,11C21.5,6.25 17.73,2.5 13,2.03M11,2.06C9.05,2.25 7.19,3 5.67,4.26L7.1,5.74C8.22,4.84 9.57,4.26 11,4.06V2.06M4.26,5.67C3,7.19 2.25,9.04 2.05,11H4.05C4.24,9.58 4.8,8.23 5.69,7.1L4.26,5.67M2.06,13C2.26,14.96 3.03,16.81 4.27,18.33L5.69,16.9C4.81,15.77 4.24,14.42 4.06,13H2.06M7.1,18.37L5.67,19.74C7.18,21 9.04,21.79 11,22V20C9.58,19.82 8.23,19.25 7.1,18.37M12.5,7V12.25L17,14.92L16.25,16.15L11,13V7H12.5Z" />
    </g>
    <g id="mdi-progress-close" transform="translate(504 252) scale(1.5)" fill="#555">
      <path d="M13 2.03V4.05C17.39 4.59 20.5 8.58 19.96 12.97C19.5 16.61 16.64 19.5 13 19.93V21.93C18.5 21.38 22.5 16.5 21.95 11C21.5 6.25 17.73 2.5 13 2.03M11 2.06C9.05 2.25 7.19 3 5.67 4.26L7.1 5.74C8.22 4.84 9.57 4.26 11 4.06V2.06M4.26 5.67C3 7.19 2.25 9.04 2.05 11H4.05C4.24 9.58 4.8 8.23 5.69 7.1L4.26 5.67M2.06 13C2.26 14.96 3.03 16.81 4.27 18.33L5.69 16.9C4.81 15.77 4.24 14.42 4.06 13H2.06M7.1 18.37L5.67 19.74C7.18 21 9.04 21.79 11 22V20C9.58 19.82 8.23 19.25 7.1 18.37M14.59 8L12 10.59L9.41 8L8 9.41L10.59 12L8 14.59L9.41 16L12 13.41L14.59 16L16 14.59L13.41 12L16 9.41L14.59 8Z" />
    </g>
    <g id="mdi-progress-close" transform="translate(540 252) scale(1.5)" fill="#fff">
      <path d="M13 2.03V4.05C17.39 4.59 20.5 8.58 19.96 12.97C19.5 16.61 16.64 19.5 13 19.93V21.93C18.5 21.38 22.5 16.5 21.95 11C21.5 6.25 17.73 2.5 13 2.03M11 2.06C9.05 2.25 7.19 3 5.67 4.26L7.1 5.74C8.22 4.84 9.57 4.26 11 4.06V2.06M4.26 5.67C3 7.19 2.25 9.04 2.05 11H4.05C4.24 9.58 4.8 8.23 5.69 7.1L4.26 5.67M2.06 13C2.26 14.96 3.03 16.81 4.27 18.33L5.69 16.9C4.81 15.77 4.24 14.42 4.06 13H2.06M7.1 18.37L5.67 19.74C7.18 21 9.04 21.79 11 22V20C9.58 19.82 8.23 19.25 7.1 18.37M14.59 8L12 10.59L9.41 8L8 9.41L10.59 12L8 14.59L9.41 16L12 13.41L14.59 16L16 14.59L13.41 12L16 9.41L14.59 8Z" />
    </g>
    <g id="mdi-progress-download" transform="translate(576 252) scale(1.5)" fill="#555">
      <path d="M13,2.03C17.73,2.5 21.5,6.25 21.95,11C22.5,16.5 18.5,21.38 13,21.93V19.93C16.64,19.5 19.5,16.61 19.96,12.97C20.5,8.58 17.39,4.59 13,4.05V2.05L13,2.03M11,2.06V4.06C9.57,4.26 8.22,4.84 7.1,5.74L5.67,4.26C7.19,3 9.05,2.25 11,2.06M4.26,5.67L5.69,7.1C4.8,8.23 4.24,9.58 4.05,11H2.05C2.25,9.04 3,7.19 4.26,5.67M2.06,13H4.06C4.24,14.42 4.81,15.77 5.69,16.9L4.27,18.33C3.03,16.81 2.26,14.96 2.06,13M7.1,18.37C8.23,19.25 9.58,19.82 11,20V22C9.04,21.79 7.18,21 5.67,19.74L7.1,18.37M12,16.5L7.5,12H11V8H13V12H16.5L12,16.5Z" />
    </g>
    <g id="mdi-progress-download" transform="translate(612 252) scale(1.5)" fill="#fff">
      <path d="M13,2.03C17.73,2.5 21.5,6.25 21.95,11C22.5,16.5 18.5,21.38 13,21.93V19.93C16.64,19.5 19.5,16.61 19.96,12.97C20.5,8.58 17.39,4.59 13,4.05V2.05L13,2.03M11,2.06V4.06C9.57,4.26 8.22,4.84 7.1,5.74L5.67,4.26C7.19,3 9.05,2.25 11,2.06M4.26,5.67L5.69,7.1C4.8,8.23 4.24,9.58 4.05,11H2.05C2.25,9.04 3,7.19 4.26,5.67M2.06,13H4.06C4.24,14.42 4.81,15.77 5.69,16.9L4.27,18.33C3.03,16.81 2.26,14.96 2.06,13M7.1,18.37C8.23,19.25 9.58,19.82 11,20V22C9.04,21.79 7.18,21 5.67,19.74L7.1,18.37M12,16.5L7.5,12H11V8H13V12H16.5L12,16.5Z" />
    </g>
    <g id="mdi-progress-upload" transform="translate(648 252) scale(1.5)" fill="#555">
      <path d="M13,2.03C17.73,2.5 21.5,6.25 21.95,11C22.5,16.5 18.5,21.38 13,21.93V19.93C16.64,19.5 19.5,16.61 19.96,12.97C20.5,8.58 17.39,4.59 13,4.05V2.05L13,2.03M11,2.06V4.06C9.57,4.26 8.22,4.84 7.1,5.74L5.67,4.26C7.19,3 9.05,2.25 11,2.06M4.26,5.67L5.69,7.1C4.8,8.23 4.24,9.58 4.05,11H2.05C2.25,9.04 3,7.19 4.26,5.67M2.06,13H4.06C4.24,14.42 4.81,15.77 5.69,16.9L4.27,18.33C3.03,16.81 2.26,14.96 2.06,13M7.1,18.37C8.23,19.25 9.58,19.82 11,20V22C9.04,21.79 7.18,21 5.67,19.74L7.1,18.37M12,7.5L7.5,12H11V16H13V12H16.5L12,7.5Z" />
    </g>
    <g id="mdi-progress-upload" transform="translate(684 252) scale(1.5)" fill="#fff">
      <path d="M13,2.03C17.73,2.5 21.5,6.25 21.95,11C22.5,16.5 18.5,21.38 13,21.93V19.93C16.64,19.5 19.5,16.61 19.96,12.97C20.5,8.58 17.39,4.59 13,4.05V2.05L13,2.03M11,2.06V4.06C9.57,4.26 8.22,4.84 7.1,5.74L5.67,4.26C7.19,3 9.05,2.25 11,2.06M4.26,5.67L5.69,7.1C4.8,8.23 4.24,9.58 4.05,11H2.05C2.25,9.04 3,7.19 4.26,5.67M2.06,13H4.06C4.24,14.42 4.81,15.77 5.69,16.9L4.27,18.33C3.03,16.81 2.26,14.96 2.06,13M7.1,18.37C8.23,19.25 9.58,19.82 11,20V22C9.04,21.79 7.18,21 5.67,19.74L7.1,18.37M12,7.5L7.5,12H11V16H13V12H16.5L12,7.5Z" />
    </g>
    <g id="mdi-progress-wrench" transform="translate(0 288) scale(1.5)" fill="#555">
      <path d="M13,2.03V2.05L13,4.05C17.39,4.59 20.5,8.58 19.96,12.97C19.5,16.61 16.64,19.5 13,19.93V21.93C18.5,21.38 22.5,16.5 21.95,11C21.5,6.25 17.73,2.5 13,2.03M11,2.06C9.05,2.25 7.19,3 5.67,4.26L7.1,5.74C8.22,4.84 9.57,4.26 11,4.06V2.06M4.26,5.67C3,7.19 2.25,9.04 2.05,11H4.05C4.24,9.58 4.8,8.23 5.69,7.1L4.26,5.67M2.06,13C2.26,14.96 3.03,16.81 4.27,18.33L5.69,16.9C4.81,15.77 4.24,14.42 4.06,13H2.06M7.1,18.37L5.67,19.74C7.18,21 9.04,21.79 11,22V20C9.58,19.82 8.23,19.25 7.1,18.37M16.82,15.19L12.71,11.08C13.12,10.04 12.89,8.82 12.03,7.97C11.13,7.06 9.78,6.88 8.69,7.38L10.63,9.32L9.28,10.68L7.29,8.73C6.75,9.82 7,11.17 7.88,12.08C8.74,12.94 9.96,13.16 11,12.76L15.11,16.86C15.29,17.05 15.56,17.05 15.74,16.86L16.78,15.83C17,15.65 17,15.33 16.82,15.19Z" />
    </g>
    <g id="mdi-progress-wrench" transform="translate(36 288) scale(1.5)" fill="#fff">
      <path d="M13,2.03V2.05L13,4.05C17.39,4.59 20.5,8.58 19.96,12.97C19.5,16.61 16.64,19.5 13,19.93V21.93C18.5,21.38 22.5,16.5 21.95,11C21.5,6.25 17.73,2.5 13,2.03M11,2.06C9.05,2.25 7.19,3 5.67,4.26L7.1,5.74C8.22,4.84 9.57,4.26 11,4.06V2.06M4.26,5.67C3,7.19 2.25,9.04 2.05,11H4.05C4.24,9.58 4.8,8.23 5.69,7.1L4.26,5.67M2.06,13C2.26,14.96 3.03,16.81 4.27,18.33L5.69,16.9C4.81,15.77 4.24,14.42 4.06,13H2.06M7.1,18.37L5.67,19.74C7.18,21 9.04,21.79 11,22V20C9.58,19.82 8.23,19.25 7.1,18.37M16.82,15.19L12.71,11.08C13.12,10.04 12.89,8.82 12.03,7.97C11.13,7.06 9.78,6.88 8.69,7.38L10.63,9.32L9.28,10.68L7.29,8.73C6.75,9.82 7,11.17 7.88,12.08C8.74,12.94 9.96,13.16 11,12.76L15.11,16.86C15.29,17.05 15.56,17.05 15.74,16.86L16.78,15.83C17,15.65 17,15.33 16.82,15.19Z" />
    </g>
    <g id="mdi-projector" transform="translate(72 288) scale(1.5)" fill="#555">
      <path d="M16,6C14.87,6 13.77,6.35 12.84,7H4C2.89,7 2,7.89 2,9V15C2,16.11 2.89,17 4,17H5V18A1,1 0 0,0 6,19H8A1,1 0 0,0 9,18V17H15V18A1,1 0 0,0 16,19H18A1,1 0 0,0 19,18V17H20C21.11,17 22,16.11 22,15V9C22,7.89 21.11,7 20,7H19.15C18.23,6.35 17.13,6 16,6M16,7.5A3.5,3.5 0 0,1 19.5,11A3.5,3.5 0 0,1 16,14.5A3.5,3.5 0 0,1 12.5,11A3.5,3.5 0 0,1 16,7.5M4,9H8V10H4V9M16,9A2,2 0 0,0 14,11A2,2 0 0,0 16,13A2,2 0 0,0 18,11A2,2 0 0,0 16,9M4,11H8V12H4V11M4,13H8V14H4V13Z" />
    </g>
    <g id="mdi-projector" transform="translate(108 288) scale(1.5)" fill="#fff">
      <path d="M16,6C14.87,6 13.77,6.35 12.84,7H4C2.89,7 2,7.89 2,9V15C2,16.11 2.89,17 4,17H5V18A1,1 0 0,0 6,19H8A1,1 0 0,0 9,18V17H15V18A1,1 0 0,0 16,19H18A1,1 0 0,0 19,18V17H20C21.11,17 22,16.11 22,15V9C22,7.89 21.11,7 20,7H19.15C18.23,6.35 17.13,6 16,6M16,7.5A3.5,3.5 0 0,1 19.5,11A3.5,3.5 0 0,1 16,14.5A3.5,3.5 0 0,1 12.5,11A3.5,3.5 0 0,1 16,7.5M4,9H8V10H4V9M16,9A2,2 0 0,0 14,11A2,2 0 0,0 16,13A2,2 0 0,0 18,11A2,2 0 0,0 16,9M4,11H8V12H4V11M4,13H8V14H4V13Z" />
    </g>
    <g id="mdi-projector-screen" transform="translate(144 288) scale(1.5)" fill="#555">
      <path d="M4,2A1,1 0 0,0 3,3V4A1,1 0 0,0 4,5H5V14H11V16.59L6.79,20.79L8.21,22.21L11,19.41V22H13V19.41L15.79,22.21L17.21,20.79L13,16.59V14H19V5H20A1,1 0 0,0 21,4V3A1,1 0 0,0 20,2H4Z" />
    </g>
    <g id="mdi-projector-screen" transform="translate(180 288) scale(1.5)" fill="#fff">
      <path d="M4,2A1,1 0 0,0 3,3V4A1,1 0 0,0 4,5H5V14H11V16.59L6.79,20.79L8.21,22.21L11,19.41V22H13V19.41L15.79,22.21L17.21,20.79L13,16.59V14H19V5H20A1,1 0 0,0 21,4V3A1,1 0 0,0 20,2H4Z" />
    </g>
    <g id="mdi-propane-tank" transform="translate(216 288) scale(1.5)" fill="#555">
      <path d="M16 6H16V4C16 2.9 15.11 2 14 2H10C8.9 2 8 2.9 8 4V6H8C5.79 6 4 7.79 4 10V17C4 18.86 5.28 20.41 7 20.86V22H17V20.86C18.72 20.42 20 18.86 20 17V10C20 7.79 18.21 6 16 6M10 4H14V6H10V4Z" />
    </g>
    <g id="mdi-propane-tank" transform="translate(252 288) scale(1.5)" fill="#fff">
      <path d="M16 6H16V4C16 2.9 15.11 2 14 2H10C8.9 2 8 2.9 8 4V6H8C5.79 6 4 7.79 4 10V17C4 18.86 5.28 20.41 7 20.86V22H17V20.86C18.72 20.42 20 18.86 20 17V10C20 7.79 18.21 6 16 6M10 4H14V6H10V4Z" />
    </g>
    <g id="mdi-propane-tank-outline" transform="translate(288 288) scale(1.5)" fill="#555">
      <path d="M16 6V4C16 2.9 15.11 2 14 2H10C8.9 2 8 2.9 8 4V6C5.79 6 4 7.79 4 10V17C4 18.86 5.28 20.41 7 20.86V22H17V20.86C18.72 20.42 20 18.86 20 17V10C20 7.79 18.21 6 16 6M10 4H14V6H10V4M18 17C18 18.1 17.1 19 16 19H8C6.9 19 6 18.1 6 17V10C6 8.9 6.9 8 8 8H16C17.1 8 18 8.9 18 10V17Z" />
    </g>
    <g id="mdi-propane-tank-outline" transform="translate(324 288) scale(1.5)" fill="#fff">
      <path d="M16 6V4C16 2.9 15.11 2 14 2H10C8.9 2 8 2.9 8 4V6C5.79 6 4 7.79 4 10V17C4 18.86 5.28 20.41 7 20.86V22H17V20.86C18.72 20.42 20 18.86 20 17V10C20 7.79 18.21 6 16 6M10 4H14V6H10V4M18 17C18 18.1 17.1 19 16 19H8C6.9 19 6 18.1 6 17V10C6 8.9 6.9 8 8 8H16C17.1 8 18 8.9 18 10V17Z" />
    </g>
    <g id="mdi-protocol" transform="translate(360 288) scale(1.5)" fill="#555">
      <path d="M18 20H14L18 4H22M16 4H12L8 20H12M2 16.5A2.5 2.5 0 0 0 4.5 19A2.5 2.5 0 0 0 7 16.5A2.5 2.5 0 0 0 4.5 14A2.5 2.5 0 0 0 2 16.5M2 9.5A2.5 2.5 0 0 0 4.5 12A2.5 2.5 0 0 0 7 9.5A2.5 2.5 0 0 0 4.5 7A2.5 2.5 0 0 0 2 9.5Z" />
    </g>
    <g id="mdi-protocol" transform="translate(396 288) scale(1.5)" fill="#fff">
      <path d="M18 20H14L18 4H22M16 4H12L8 20H12M2 16.5A2.5 2.5 0 0 0 4.5 19A2.5 2.5 0 0 0 7 16.5A2.5 2.5 0 0 0 4.5 14A2.5 2.5 0 0 0 2 16.5M2 9.5A2.5 2.5 0 0 0 4.5 12A2.5 2.5 0 0 0 7 9.5A2.5 2.5 0 0 0 4.5 7A2.5 2.5 0 0 0 2 9.5Z" />
    </g>
    <g id="mdi-publish" transform="translate(432 288) scale(1.5)" fill="#555">
      <path d="M5,4V6H19V4H5M5,14H9V20H15V14H19L12,7L5,14Z" />
    </g>
    <g id="mdi-publish" transform="translate(468 288) scale(1.5)" fill="#fff">
      <path d="M5,4V6H19V4H5M5,14H9V20H15V14H19L12,7L5,14Z" />
    </g>
    <g id="mdi-pulse" transform="translate(504 288) scale(1.5)" fill="#555">
      <path d="M3,13H5.79L10.1,4.79L11.28,13.75L14.5,9.66L17.83,13H21V15H17L14.67,12.67L9.92,18.73L8.94,11.31L7,15H3V13Z" />
    </g>
    <g id="mdi-pulse" transform="translate(540 288) scale(1.5)" fill="#fff">
      <path d="M3,13H5.79L10.1,4.79L11.28,13.75L14.5,9.66L17.83,13H21V15H17L14.67,12.67L9.92,18.73L8.94,11.31L7,15H3V13Z" />
    </g>
    <g id="mdi-pumpkin" transform="translate(576 288) scale(1.5)" fill="#555">
      <path d="M6.5,6C7.47,6 8.37,6.5 9.11,7.38C9.66,6.79 10.31,6.36 11,6.15V4A2,2 0 0,1 13,2H15V4H13V6.15C13.69,6.36 14.34,6.79 14.89,7.38C15.63,6.5 16.53,6 17.5,6C20,6 22,9.36 22,13.5C22,17.64 20,21 17.5,21C16.53,21 15.63,20.5 14.89,19.62C14.08,20.5 13.08,21 12,21C10.92,21 9.92,20.5 9.11,19.62C8.37,20.5 7.47,21 6.5,21C4,21 2,17.64 2,13.5C2,9.36 4,6 6.5,6Z" />
    </g>
    <g id="mdi-pumpkin" transform="translate(612 288) scale(1.5)" fill="#fff">
      <path d="M6.5,6C7.47,6 8.37,6.5 9.11,7.38C9.66,6.79 10.31,6.36 11,6.15V4A2,2 0 0,1 13,2H15V4H13V6.15C13.69,6.36 14.34,6.79 14.89,7.38C15.63,6.5 16.53,6 17.5,6C20,6 22,9.36 22,13.5C22,17.64 20,21 17.5,21C16.53,21 15.63,20.5 14.89,19.62C14.08,20.5 13.08,21 12,21C10.92,21 9.92,20.5 9.11,19.62C8.37,20.5 7.47,21 6.5,21C4,21 2,17.64 2,13.5C2,9.36 4,6 6.5,6Z" />
    </g>
    <g id="mdi-purse" transform="translate(648 288) scale(1.5)" fill="#555">
      <path d="M22,19.1L21,10.5A1.65,1.65 0 0,0 19.3,9H16V5L14,3H10L8,5V9H4.7A1.65,1.65 0 0,0 3,10.5L2,19.1A1.74,1.74 0 0,0 3.7,21H20.3A1.74,1.74 0 0,0 22,19.1M10,5H14V9H10" />
    </g>
    <g id="mdi-purse" transform="translate(684 288) scale(1.5)" fill="#fff">
      <path d="M22,19.1L21,10.5A1.65,1.65 0 0,0 19.3,9H16V5L14,3H10L8,5V9H4.7A1.65,1.65 0 0,0 3,10.5L2,19.1A1.74,1.74 0 0,0 3.7,21H20.3A1.74,1.74 0 0,0 22,19.1M10,5H14V9H10" />
    </g>
    <g id="mdi-purse-outline" transform="translate(0 324) scale(1.5)" fill="#555">
      <path d="M19,11L20,19H4L5,11H19M14,3H10L8,5V9H4.7A1.65,1.65 0 0,0 3,10.5L2,19.1A1.74,1.74 0 0,0 3.7,21H20.3A1.74,1.74 0 0,0 22,19.1L21,10.5A1.65,1.65 0 0,0 19.3,9H16V5L14,3M10,9V5H14V9" />
    </g>
    <g id="mdi-purse-outline" transform="translate(36 324) scale(1.5)" fill="#fff">
      <path d="M19,11L20,19H4L5,11H19M14,3H10L8,5V9H4.7A1.65,1.65 0 0,0 3,10.5L2,19.1A1.74,1.74 0 0,0 3.7,21H20.3A1.74,1.74 0 0,0 22,19.1L21,10.5A1.65,1.65 0 0,0 19.3,9H16V5L14,3M10,9V5H14V9" />
    </g>
    <g id="mdi-puzzle" transform="translate(72 324) scale(1.5)" fill="#555">
      <path d="M20.5,11H19V7C19,5.89 18.1,5 17,5H13V3.5A2.5,2.5 0 0,0 10.5,1A2.5,2.5 0 0,0 8,3.5V5H4A2,2 0 0,0 2,7V10.8H3.5C5,10.8 6.2,12 6.2,13.5C6.2,15 5,16.2 3.5,16.2H2V20A2,2 0 0,0 4,22H7.8V20.5C7.8,19 9,17.8 10.5,17.8C12,17.8 13.2,19 13.2,20.5V22H17A2,2 0 0,0 19,20V16H20.5A2.5,2.5 0 0,0 23,13.5A2.5,2.5 0 0,0 20.5,11Z" />
    </g>
    <g id="mdi-puzzle" transform="translate(108 324) scale(1.5)" fill="#fff">
      <path d="M20.5,11H19V7C19,5.89 18.1,5 17,5H13V3.5A2.5,2.5 0 0,0 10.5,1A2.5,2.5 0 0,0 8,3.5V5H4A2,2 0 0,0 2,7V10.8H3.5C5,10.8 6.2,12 6.2,13.5C6.2,15 5,16.2 3.5,16.2H2V20A2,2 0 0,0 4,22H7.8V20.5C7.8,19 9,17.8 10.5,17.8C12,17.8 13.2,19 13.2,20.5V22H17A2,2 0 0,0 19,20V16H20.5A2.5,2.5 0 0,0 23,13.5A2.5,2.5 0 0,0 20.5,11Z" />
    </g>
    <g id="mdi-puzzle-outline" transform="translate(144 324) scale(1.5)" fill="#555">
      <path d="M22,13.5C22,15.26 20.7,16.72 19,16.96V20A2,2 0 0,1 17,22H13.2V21.7A2.7,2.7 0 0,0 10.5,19C9,19 7.8,20.21 7.8,21.7V22H4A2,2 0 0,1 2,20V16.2H2.3C3.79,16.2 5,15 5,13.5C5,12 3.79,10.8 2.3,10.8H2V7A2,2 0 0,1 4,5H7.04C7.28,3.3 8.74,2 10.5,2C12.26,2 13.72,3.3 13.96,5H17A2,2 0 0,1 19,7V10.04C20.7,10.28 22,11.74 22,13.5M17,15H18.5A1.5,1.5 0 0,0 20,13.5A1.5,1.5 0 0,0 18.5,12H17V7H12V5.5A1.5,1.5 0 0,0 10.5,4A1.5,1.5 0 0,0 9,5.5V7H4V9.12C5.76,9.8 7,11.5 7,13.5C7,15.5 5.75,17.2 4,17.88V20H6.12C6.8,18.25 8.5,17 10.5,17C12.5,17 14.2,18.25 14.88,20H17V15Z" />
    </g>
    <g id="mdi-puzzle-outline" transform="translate(180 324) scale(1.5)" fill="#fff">
      <path d="M22,13.5C22,15.26 20.7,16.72 19,16.96V20A2,2 0 0,1 17,22H13.2V21.7A2.7,2.7 0 0,0 10.5,19C9,19 7.8,20.21 7.8,21.7V22H4A2,2 0 0,1 2,20V16.2H2.3C3.79,16.2 5,15 5,13.5C5,12 3.79,10.8 2.3,10.8H2V7A2,2 0 0,1 4,5H7.04C7.28,3.3 8.74,2 10.5,2C12.26,2 13.72,3.3 13.96,5H17A2,2 0 0,1 19,7V10.04C20.7,10.28 22,11.74 22,13.5M17,15H18.5A1.5,1.5 0 0,0 20,13.5A1.5,1.5 0 0,0 18.5,12H17V7H12V5.5A1.5,1.5 0 0,0 10.5,4A1.5,1.5 0 0,0 9,5.5V7H4V9.12C5.76,9.8 7,11.5 7,13.5C7,15.5 5.75,17.2 4,17.88V20H6.12C6.8,18.25 8.5,17 10.5,17C12.5,17 14.2,18.25 14.88,20H17V15Z" />
    </g>
    <g id="mdi-qi" transform="translate(216 324) scale(1.5)" fill="#555">
      <path d="M12.09,6.56V14.64C12.09,14.72 12,14.79 11.94,14.79C9.62,14.79 7.75,12.91 7.75,10.6C7.75,8.28 9.62,6.4 11.94,6.4C12,6.4 12.09,6.47 12.09,6.56M12.09,17.86V20.29C12.06,21.69 13.12,22.87 14.5,23C14.66,23 14.78,22.89 14.79,22.73V4.47C14.78,4.3 14.68,4.15 14.5,4.09C10.92,2.67 6.86,4.44 5.44,8.03C4,11.63 5.79,15.69 9.38,17.11C10.16,17.42 11,17.58 11.81,17.6C11.95,17.59 12.07,17.71 12.08,17.87M16.19,5.5V15.72C16.19,16 16.19,16.2 16.46,16V16C19.42,13.5 19.81,9.09 17.33,6.13C17.07,5.81 16.77,5.5 16.46,5.26C16.19,5.05 16.19,5.26 16.19,5.53M14.79,2.43C14.79,1.66 15.42,1.03 16.19,1.03C16.96,1.03 17.59,1.66 17.59,2.43C17.59,3.2 16.96,3.83 16.19,3.83V3.83C15.42,3.83 14.79,3.2 14.79,2.43" />
    </g>
    <g id="mdi-qi" transform="translate(252 324) scale(1.5)" fill="#fff">
      <path d="M12.09,6.56V14.64C12.09,14.72 12,14.79 11.94,14.79C9.62,14.79 7.75,12.91 7.75,10.6C7.75,8.28 9.62,6.4 11.94,6.4C12,6.4 12.09,6.47 12.09,6.56M12.09,17.86V20.29C12.06,21.69 13.12,22.87 14.5,23C14.66,23 14.78,22.89 14.79,22.73V4.47C14.78,4.3 14.68,4.15 14.5,4.09C10.92,2.67 6.86,4.44 5.44,8.03C4,11.63 5.79,15.69 9.38,17.11C10.16,17.42 11,17.58 11.81,17.6C11.95,17.59 12.07,17.71 12.08,17.87M16.19,5.5V15.72C16.19,16 16.19,16.2 16.46,16V16C19.42,13.5 19.81,9.09 17.33,6.13C17.07,5.81 16.77,5.5 16.46,5.26C16.19,5.05 16.19,5.26 16.19,5.53M14.79,2.43C14.79,1.66 15.42,1.03 16.19,1.03C16.96,1.03 17.59,1.66 17.59,2.43C17.59,3.2 16.96,3.83 16.19,3.83V3.83C15.42,3.83 14.79,3.2 14.79,2.43" />
    </g>
    <g id="mdi-qqchat" transform="translate(288 324) scale(1.5)" fill="#555">
      <path d="M3.18,13.54C3.76,12.16 4.57,11.14 5.17,10.92C5.16,10.12 5.31,9.62 5.56,9.22C5.56,9.19 5.5,8.86 5.72,8.45C5.87,4.85 8.21,2 12,2C15.79,2 18.13,4.85 18.28,8.45C18.5,8.86 18.44,9.19 18.44,9.22C18.69,9.62 18.84,10.12 18.83,10.92C19.43,11.14 20.24,12.16 20.82,13.55C21.57,15.31 21.69,17 21.09,17.3C20.68,17.5 20.03,17 19.42,16.12C19.18,17.1 18.58,18 17.73,18.71C18.63,19.04 19.21,19.58 19.21,20.19C19.21,21.19 17.63,22 15.69,22C13.93,22 12.5,21.34 12.21,20.5H11.79C11.5,21.34 10.07,22 8.31,22C6.37,22 4.79,21.19 4.79,20.19C4.79,19.58 5.37,19.04 6.27,18.71C5.42,18 4.82,17.1 4.58,16.12C3.97,17 3.32,17.5 2.91,17.3C2.31,17 2.43,15.31 3.18,13.54Z" />
    </g>
    <g id="mdi-qqchat" transform="translate(324 324) scale(1.5)" fill="#fff">
      <path d="M3.18,13.54C3.76,12.16 4.57,11.14 5.17,10.92C5.16,10.12 5.31,9.62 5.56,9.22C5.56,9.19 5.5,8.86 5.72,8.45C5.87,4.85 8.21,2 12,2C15.79,2 18.13,4.85 18.28,8.45C18.5,8.86 18.44,9.19 18.44,9.22C18.69,9.62 18.84,10.12 18.83,10.92C19.43,11.14 20.24,12.16 20.82,13.55C21.57,15.31 21.69,17 21.09,17.3C20.68,17.5 20.03,17 19.42,16.12C19.18,17.1 18.58,18 17.73,18.71C18.63,19.04 19.21,19.58 19.21,20.19C19.21,21.19 17.63,22 15.69,22C13.93,22 12.5,21.34 12.21,20.5H11.79C11.5,21.34 10.07,22 8.31,22C6.37,22 4.79,21.19 4.79,20.19C4.79,19.58 5.37,19.04 6.27,18.71C5.42,18 4.82,17.1 4.58,16.12C3.97,17 3.32,17.5 2.91,17.3C2.31,17 2.43,15.31 3.18,13.54Z" />
    </g>
    <g id="mdi-qrcode" transform="translate(360 324) scale(1.5)" fill="#555">
      <path d="M3,11H5V13H3V11M11,5H13V9H11V5M9,11H13V15H11V13H9V11M15,11H17V13H19V11H21V13H19V15H21V19H19V21H17V19H13V21H11V17H15V15H17V13H15V11M19,19V15H17V19H19M15,3H21V9H15V3M17,5V7H19V5H17M3,3H9V9H3V3M5,5V7H7V5H5M3,15H9V21H3V15M5,17V19H7V17H5Z" />
    </g>
    <g id="mdi-qrcode" transform="translate(396 324) scale(1.5)" fill="#fff">
      <path d="M3,11H5V13H3V11M11,5H13V9H11V5M9,11H13V15H11V13H9V11M15,11H17V13H19V11H21V13H19V15H21V19H19V21H17V19H13V21H11V17H15V15H17V13H15V11M19,19V15H17V19H19M15,3H21V9H15V3M17,5V7H19V5H17M3,3H9V9H3V3M5,5V7H7V5H5M3,15H9V21H3V15M5,17V19H7V17H5Z" />
    </g>
    <g id="mdi-qrcode-edit" transform="translate(432 324) scale(1.5)" fill="#555">
      <path d="M5,5H7V7H5V5M1,1H11V11H1V1M3,3V9H9V3H3M5,17H7V19H5V17M1,13H11V23H1V13M3,15V21H9V15H3M13,13H17V15H19V13H23V15H19V17H23V23H19V21H15V23H13V21H15V19H13V13M21,21V19H19V21H21M19,17H17V15H15V19H19V17M22.7,3.35L21.7,4.35L19.65,2.35L20.65,1.35C20.85,1.14 21.19,1.13 21.42,1.35L22.7,2.58C22.91,2.78 22.92,3.12 22.7,3.35M13,8.94L19.07,2.88L21.12,4.93L15.06,11H13V8.94Z" />
    </g>
    <g id="mdi-qrcode-edit" transform="translate(468 324) scale(1.5)" fill="#fff">
      <path d="M5,5H7V7H5V5M1,1H11V11H1V1M3,3V9H9V3H3M5,17H7V19H5V17M1,13H11V23H1V13M3,15V21H9V15H3M13,13H17V15H19V13H23V15H19V17H23V23H19V21H15V23H13V21H15V19H13V13M21,21V19H19V21H21M19,17H17V15H15V19H19V17M22.7,3.35L21.7,4.35L19.65,2.35L20.65,1.35C20.85,1.14 21.19,1.13 21.42,1.35L22.7,2.58C22.91,2.78 22.92,3.12 22.7,3.35M13,8.94L19.07,2.88L21.12,4.93L15.06,11H13V8.94Z" />
    </g>
    <g id="mdi-qrcode-minus" transform="translate(504 324) scale(1.5)" fill="#555">
      <path d="M5 5H7V7H5V5M1 1H11V11H1V1M3 3V9H9V3H3M5 17H7V19H5V17M1 13H11V23H1V13M3 15V21H9V15H3M13 13H17V15H19V13H23V15H19V17H23V23H19V21H15V23H13V21H15V19H13V13M21 21V19H19V21H21M19 17H17V15H15V19H19V17M14 5V7H22V5Z" />
    </g>
    <g id="mdi-qrcode-minus" transform="translate(540 324) scale(1.5)" fill="#fff">
      <path d="M5 5H7V7H5V5M1 1H11V11H1V1M3 3V9H9V3H3M5 17H7V19H5V17M1 13H11V23H1V13M3 15V21H9V15H3M13 13H17V15H19V13H23V15H19V17H23V23H19V21H15V23H13V21H15V19H13V13M21 21V19H19V21H21M19 17H17V15H15V19H19V17M14 5V7H22V5Z" />
    </g>
    <g id="mdi-qrcode-plus" transform="translate(576 324) scale(1.5)" fill="#555">
      <path d="M5 5H7V7H5V5M1 1H11V11H1V1M3 3V9H9V3H3M5 17H7V19H5V17M1 13H11V23H1V13M3 15V21H9V15H3M13 13H17V15H19V13H23V15H19V17H23V23H19V21H15V23H13V21H15V19H13V13M21 21V19H19V21H21M19 17H17V15H15V19H19V17M17 2V5H14V7H17V10H19V7H22V5H19V2Z" />
    </g>
    <g id="mdi-qrcode-plus" transform="translate(612 324) scale(1.5)" fill="#fff">
      <path d="M5 5H7V7H5V5M1 1H11V11H1V1M3 3V9H9V3H3M5 17H7V19H5V17M1 13H11V23H1V13M3 15V21H9V15H3M13 13H17V15H19V13H23V15H19V17H23V23H19V21H15V23H13V21H15V19H13V13M21 21V19H19V21H21M19 17H17V15H15V19H19V17M17 2V5H14V7H17V10H19V7H22V5H19V2Z" />
    </g>
    <g id="mdi-qrcode-remove" transform="translate(648 324) scale(1.5)" fill="#555">
      <path d="M5 5H7V7H5V5M1 1H11V11H1V1M3 3V9H9V3H3M5 17H7V19H5V17M1 13H11V23H1V13M3 15V21H9V15H3M13 13H17V15H19V13H23V15H19V17H23V23H19V21H15V23H13V21H15V19H13V13M21 21V19H19V21H21M19 17H17V15H15V19H19V17M15.17 1.76L13.76 3.17L16.59 6L13.76 8.83L15.17 10.24L18 7.41L20.83 10.24L22.24 8.83L19.41 6L22.24 3.17L20.83 1.76L18 4.59L15.17 1.76Z" />
    </g>
    <g id="mdi-qrcode-remove" transform="translate(684 324) scale(1.5)" fill="#fff">
      <path d="M5 5H7V7H5V5M1 1H11V11H1V1M3 3V9H9V3H3M5 17H7V19H5V17M1 13H11V23H1V13M3 15V21H9V15H3M13 13H17V15H19V13H23V15H19V17H23V23H19V21H15V23H13V21H15V19H13V13M21 21V19H19V21H21M19 17H17V15H15V19H19V17M15.17 1.76L13.76 3.17L16.59 6L13.76 8.83L15.17 10.24L18 7.41L20.83 10.24L22.24 8.83L19.41 6L22.24 3.17L20.83 1.76L18 4.59L15.17 1.76Z" />
    </g>
  </svg>