<?xml version="1.0" encoding="UTF-8"?>
<!DOCTYPE svg PUBLIC "-//W3C//DTD SVG 1.1//EN" "http://www.w3.org/Graphics/SVG/1.1/DTD/svg11.dtd"><svg
  xmlns="http://www.w3.org/2000/svg" xmlns:xlink="http://www.w3.org/1999/xlink" version="1.1"
  width="720" height="900" viewBox="0 0 720 900">
    <g id="mdi-card-account-phone" transform="translate(0 0) scale(1.5)" fill="#555">
      <path d="M22,3H2A2,2 0 0,0 0,5V19A2,2 0 0,0 2,21H22A2,2 0 0,0 24,19V5A2,2 0 0,0 22,3M8,6A3,3 0 0,1 11,9A3,3 0 0,1 8,12A3,3 0 0,1 5,9A3,3 0 0,1 8,6M14,18H2V17C2,15 6,13.9 8,13.9C10,13.9 14,15 14,17V18M17.85,14H19.5L21,16L19,18C17.7,17 16.73,15.61 16.28,14C16.1,13.36 16,12.69 16,12C16,11.31 16.1,10.64 16.28,10C16.73,8.38 17.7,7 19,6L21,8L19.5,10H17.85C17.63,10.63 17.5,11.3 17.5,12C17.5,12.7 17.63,13.37 17.85,14Z" />
    </g>
    <g id="mdi-card-account-phone" transform="translate(36 0) scale(1.5)" fill="#fff">
      <path d="M22,3H2A2,2 0 0,0 0,5V19A2,2 0 0,0 2,21H22A2,2 0 0,0 24,19V5A2,2 0 0,0 22,3M8,6A3,3 0 0,1 11,9A3,3 0 0,1 8,12A3,3 0 0,1 5,9A3,3 0 0,1 8,6M14,18H2V17C2,15 6,13.9 8,13.9C10,13.9 14,15 14,17V18M17.85,14H19.5L21,16L19,18C17.7,17 16.73,15.61 16.28,14C16.1,13.36 16,12.69 16,12C16,11.31 16.1,10.64 16.28,10C16.73,8.38 17.7,7 19,6L21,8L19.5,10H17.85C17.63,10.63 17.5,11.3 17.5,12C17.5,12.7 17.63,13.37 17.85,14Z" />
    </g>
    <g id="mdi-card-account-phone-outline" transform="translate(72 0) scale(1.5)" fill="#555">
      <path d="M22,3H2A2,2 0 0,0 0,5V19A2,2 0 0,0 2,21H22A2,2 0 0,0 24,19V5A2,2 0 0,0 22,3M22,19H2V5H22V19M19,18L21,16L19.5,14H17.85C17.63,13.37 17.5,12.7 17.5,12C17.5,11.3 17.63,10.63 17.85,10H19.5L21,8L19,6C17.7,7 16.73,8.38 16.28,10C16.1,10.64 16,11.31 16,12C16,12.69 16.1,13.36 16.28,14C16.73,15.61 17.7,17 19,18M9,12A3,3 0 0,0 12,9A3,3 0 0,0 9,6A3,3 0 0,0 6,9A3,3 0 0,0 9,12M9,8A1,1 0 0,1 10,9A1,1 0 0,1 9,10A1,1 0 0,1 8,9A1,1 0 0,1 9,8M15,16.59C15,14.09 11.03,13 9,13C6.97,13 3,14.09 3,16.59V18H15V16.59M5.5,16C6.22,15.5 7.7,15 9,15C10.3,15 11.77,15.5 12.5,16H5.5Z" />
    </g>
    <g id="mdi-card-account-phone-outline" transform="translate(108 0) scale(1.5)" fill="#fff">
      <path d="M22,3H2A2,2 0 0,0 0,5V19A2,2 0 0,0 2,21H22A2,2 0 0,0 24,19V5A2,2 0 0,0 22,3M22,19H2V5H22V19M19,18L21,16L19.5,14H17.85C17.63,13.37 17.5,12.7 17.5,12C17.5,11.3 17.63,10.63 17.85,10H19.5L21,8L19,6C17.7,7 16.73,8.38 16.28,10C16.1,10.64 16,11.31 16,12C16,12.69 16.1,13.36 16.28,14C16.73,15.61 17.7,17 19,18M9,12A3,3 0 0,0 12,9A3,3 0 0,0 9,6A3,3 0 0,0 6,9A3,3 0 0,0 9,12M9,8A1,1 0 0,1 10,9A1,1 0 0,1 9,10A1,1 0 0,1 8,9A1,1 0 0,1 9,8M15,16.59C15,14.09 11.03,13 9,13C6.97,13 3,14.09 3,16.59V18H15V16.59M5.5,16C6.22,15.5 7.7,15 9,15C10.3,15 11.77,15.5 12.5,16H5.5Z" />
    </g>
    <g id="mdi-card-bulleted" transform="translate(144 0) scale(1.5)" fill="#555">
      <path d="M20,4A2,2 0 0,1 22,6V18A2,2 0 0,1 20,20H4A2,2 0 0,1 2,18V6A2,2 0 0,1 4,4H20M11,13H9V15H11V13M19,13H13V15H19V13M7,9H5V11H7V9M19,9H9V11H19V9Z" />
    </g>
    <g id="mdi-card-bulleted" transform="translate(180 0) scale(1.5)" fill="#fff">
      <path d="M20,4A2,2 0 0,1 22,6V18A2,2 0 0,1 20,20H4A2,2 0 0,1 2,18V6A2,2 0 0,1 4,4H20M11,13H9V15H11V13M19,13H13V15H19V13M7,9H5V11H7V9M19,9H9V11H19V9Z" />
    </g>
    <g id="mdi-card-bulleted-off" transform="translate(216 0) scale(1.5)" fill="#555">
      <path d="M3.35,3.58L20.65,20.87L19.23,22.29L16.94,20H4A2,2 0 0,1 2,18V6C2,5.72 2.06,5.46 2.16,5.22L1.23,4.29L2.65,2.87L3.35,3.58M6.6,4H20A2,2 0 0,1 22,6V18C22,18.4 21.88,18.77 21.68,19.08L17.6,15H20V13H15.6L13.6,11H20V9H11.6L6.6,4M9.94,13H9V15H11V14.06L9.94,13M5.94,9H5V11H7V10.06L5.94,9Z" />
    </g>
    <g id="mdi-card-bulleted-off" transform="translate(252 0) scale(1.5)" fill="#fff">
      <path d="M3.35,3.58L20.65,20.87L19.23,22.29L16.94,20H4A2,2 0 0,1 2,18V6C2,5.72 2.06,5.46 2.16,5.22L1.23,4.29L2.65,2.87L3.35,3.58M6.6,4H20A2,2 0 0,1 22,6V18C22,18.4 21.88,18.77 21.68,19.08L17.6,15H20V13H15.6L13.6,11H20V9H11.6L6.6,4M9.94,13H9V15H11V14.06L9.94,13M5.94,9H5V11H7V10.06L5.94,9Z" />
    </g>
    <g id="mdi-card-bulleted-off-outline" transform="translate(288 0) scale(1.5)" fill="#555">
      <path d="M20.59,20.87L19.17,22.29L16.88,20H4A2,2 0 0,1 2,18V6C2,5.74 2.05,5.5 2.14,5.26L1.17,4.29L2.59,2.87L3.73,4L20.59,20.87V20.87M6.54,4H20A2,2 0 0,1 22,6V18C22,18.41 21.87,18.8 21.66,19.12L20,17.46V6H8.54L6.54,4M4,18H14.88L11.88,15H10V13.12L7.88,11H6V9.12L4,7.12V18M18,15H17.54L15.54,13H18V15M18,11H13.54L11.54,9H18V11Z" />
    </g>
    <g id="mdi-card-bulleted-off-outline" transform="translate(324 0) scale(1.5)" fill="#fff">
      <path d="M20.59,20.87L19.17,22.29L16.88,20H4A2,2 0 0,1 2,18V6C2,5.74 2.05,5.5 2.14,5.26L1.17,4.29L2.59,2.87L3.73,4L20.59,20.87V20.87M6.54,4H20A2,2 0 0,1 22,6V18C22,18.41 21.87,18.8 21.66,19.12L20,17.46V6H8.54L6.54,4M4,18H14.88L11.88,15H10V13.12L7.88,11H6V9.12L4,7.12V18M18,15H17.54L15.54,13H18V15M18,11H13.54L11.54,9H18V11Z" />
    </g>
    <g id="mdi-card-bulleted-outline" transform="translate(360 0) scale(1.5)" fill="#555">
      <path d="M12,15H10V13H12V15M18,15H14V13H18V15M8,11H6V9H8V11M18,11H10V9H18V11M20,20H4A2,2 0 0,1 2,18V6A2,2 0 0,1 4,4H20A2,2 0 0,1 22,6V18A2,2 0 0,1 20,20M4,6V18H20V6H4Z" />
    </g>
    <g id="mdi-card-bulleted-outline" transform="translate(396 0) scale(1.5)" fill="#fff">
      <path d="M12,15H10V13H12V15M18,15H14V13H18V15M8,11H6V9H8V11M18,11H10V9H18V11M20,20H4A2,2 0 0,1 2,18V6A2,2 0 0,1 4,4H20A2,2 0 0,1 22,6V18A2,2 0 0,1 20,20M4,6V18H20V6H4Z" />
    </g>
    <g id="mdi-card-bulleted-settings" transform="translate(432 0) scale(1.5)" fill="#555">
      <path d="M9,22V24H7V22H9M13,22V24H11V22H13M17,22V24H15V22H17M20,20H4A2,2 0 0,1 2,18V6A2,2 0 0,1 4,4H20A2,2 0 0,1 22,6V18A2,2 0 0,1 20,20M11,13H9V15H11V13M19,13H13V15H19V13M7,9H5V11H7V9M19,9H9V11H19V9Z" />
    </g>
    <g id="mdi-card-bulleted-settings" transform="translate(468 0) scale(1.5)" fill="#fff">
      <path d="M9,22V24H7V22H9M13,22V24H11V22H13M17,22V24H15V22H17M20,20H4A2,2 0 0,1 2,18V6A2,2 0 0,1 4,4H20A2,2 0 0,1 22,6V18A2,2 0 0,1 20,20M11,13H9V15H11V13M19,13H13V15H19V13M7,9H5V11H7V9M19,9H9V11H19V9Z" />
    </g>
    <g id="mdi-card-bulleted-settings-outline" transform="translate(504 0) scale(1.5)" fill="#555">
      <path d="M9,22V24H7V22H9M13,22V24H11V22H13M17,22V24H15V22H17M12,15H10V13H12V15M18,15H14V13H18V15M8,11H6V9H8V11M18,11H10V9H18V11M20,20H4A2,2 0 0,1 2,18V6A2,2 0 0,1 4,4H20A2,2 0 0,1 22,6V18A2,2 0 0,1 20,20M4,6V18H20V6H4Z" />
    </g>
    <g id="mdi-card-bulleted-settings-outline" transform="translate(540 0) scale(1.5)" fill="#fff">
      <path d="M9,22V24H7V22H9M13,22V24H11V22H13M17,22V24H15V22H17M12,15H10V13H12V15M18,15H14V13H18V15M8,11H6V9H8V11M18,11H10V9H18V11M20,20H4A2,2 0 0,1 2,18V6A2,2 0 0,1 4,4H20A2,2 0 0,1 22,6V18A2,2 0 0,1 20,20M4,6V18H20V6H4Z" />
    </g>
    <g id="mdi-card-minus" transform="translate(576 0) scale(1.5)" fill="#555">
      <path d="M23 18V20H15V18H23M19 13C20.09 13 21.12 13.3 22 13.81V6C22 4.89 21.11 4 20 4H4C2.9 4 2 4.89 2 6V18C2 19.11 2.9 20 4 20H13.09C13.04 19.67 13 19.34 13 19C13 15.69 15.69 13 19 13Z" />
    </g>
    <g id="mdi-card-minus" transform="translate(612 0) scale(1.5)" fill="#fff">
      <path d="M23 18V20H15V18H23M19 13C20.09 13 21.12 13.3 22 13.81V6C22 4.89 21.11 4 20 4H4C2.9 4 2 4.89 2 6V18C2 19.11 2.9 20 4 20H13.09C13.04 19.67 13 19.34 13 19C13 15.69 15.69 13 19 13Z" />
    </g>
    <g id="mdi-card-minus-outline" transform="translate(648 0) scale(1.5)" fill="#555">
      <path d="M23 18V20H15V18H23M13.09 18H4V6H20V13.09C20.72 13.21 21.39 13.46 22 13.81V6C22 4.89 21.11 4 20 4H4C2.9 4 2 4.89 2 6V18C2 19.11 2.9 20 4 20H13.09C13.04 19.67 13 19.34 13 19C13 18.66 13.04 18.33 13.09 18Z" />
    </g>
    <g id="mdi-card-minus-outline" transform="translate(684 0) scale(1.5)" fill="#fff">
      <path d="M23 18V20H15V18H23M13.09 18H4V6H20V13.09C20.72 13.21 21.39 13.46 22 13.81V6C22 4.89 21.11 4 20 4H4C2.9 4 2 4.89 2 6V18C2 19.11 2.9 20 4 20H13.09C13.04 19.67 13 19.34 13 19C13 18.66 13.04 18.33 13.09 18Z" />
    </g>
    <g id="mdi-card-off" transform="translate(0 36) scale(1.5)" fill="#555">
      <path d="M21.88 18.68L7.2 4H20C21.11 4 22 4.89 22 6V18C22 18.24 21.96 18.47 21.88 18.68M20.56 19.91L20.57 19.91L2.39 1.73L1.11 3L2.65 4.54C2.25 4.9 2 5.42 2 6V18C2 19.11 2.9 20 4 20H18.11L20.84 22.73L22.11 21.46L20.56 19.91Z" />
    </g>
    <g id="mdi-card-off" transform="translate(36 36) scale(1.5)" fill="#fff">
      <path d="M21.88 18.68L7.2 4H20C21.11 4 22 4.89 22 6V18C22 18.24 21.96 18.47 21.88 18.68M20.56 19.91L20.57 19.91L2.39 1.73L1.11 3L2.65 4.54C2.25 4.9 2 5.42 2 6V18C2 19.11 2.9 20 4 20H18.11L20.84 22.73L22.11 21.46L20.56 19.91Z" />
    </g>
    <g id="mdi-card-off-outline" transform="translate(72 36) scale(1.5)" fill="#555">
      <path d="M9.2 6L7.2 4H20C21.11 4 22 4.89 22 6V18C22 18.24 21.96 18.47 21.88 18.68L20 16.8V6H9.2M22.11 21.46L20.84 22.73L18.11 20H4C2.9 20 2 19.11 2 18V6C2 5.42 2.25 4.9 2.65 4.54L1.11 3L2.39 1.73L6.66 6L18.65 18H18.66L20.57 19.91L20.56 19.91L22.11 21.46M16.11 18L4.11 6H4V18H16.11Z" />
    </g>
    <g id="mdi-card-off-outline" transform="translate(108 36) scale(1.5)" fill="#fff">
      <path d="M9.2 6L7.2 4H20C21.11 4 22 4.89 22 6V18C22 18.24 21.96 18.47 21.88 18.68L20 16.8V6H9.2M22.11 21.46L20.84 22.73L18.11 20H4C2.9 20 2 19.11 2 18V6C2 5.42 2.25 4.9 2.65 4.54L1.11 3L2.39 1.73L6.66 6L18.65 18H18.66L20.57 19.91L20.56 19.91L22.11 21.46M16.11 18L4.11 6H4V18H16.11Z" />
    </g>
    <g id="mdi-card-outline" transform="translate(144 36) scale(1.5)" fill="#555">
      <path d="M20,20H4A2,2 0 0,1 2,18V6A2,2 0 0,1 4,4H20A2,2 0 0,1 22,6V18A2,2 0 0,1 20,20M4,6V18H20V6H4Z" />
    </g>
    <g id="mdi-card-outline" transform="translate(180 36) scale(1.5)" fill="#fff">
      <path d="M20,20H4A2,2 0 0,1 2,18V6A2,2 0 0,1 4,4H20A2,2 0 0,1 22,6V18A2,2 0 0,1 20,20M4,6V18H20V6H4Z" />
    </g>
    <g id="mdi-card-plus" transform="translate(216 36) scale(1.5)" fill="#555">
      <path d="M13.09 20H4C2.9 20 2 19.11 2 18V6C2 4.89 2.9 4 4 4H20C21.11 4 22 4.89 22 6V13.81C21.12 13.3 20.09 13 19 13C15.69 13 13 15.69 13 19C13 19.34 13.04 19.67 13.09 20M18 15V18H15V20H18V23H20V20H23V18H20V15H18Z" />
    </g>
    <g id="mdi-card-plus" transform="translate(252 36) scale(1.5)" fill="#fff">
      <path d="M13.09 20H4C2.9 20 2 19.11 2 18V6C2 4.89 2.9 4 4 4H20C21.11 4 22 4.89 22 6V13.81C21.12 13.3 20.09 13 19 13C15.69 13 13 15.69 13 19C13 19.34 13.04 19.67 13.09 20M18 15V18H15V20H18V23H20V20H23V18H20V15H18Z" />
    </g>
    <g id="mdi-card-plus-outline" transform="translate(288 36) scale(1.5)" fill="#555">
      <path d="M21 15V18H24V20H21V23H19V20H16V18H19V15H21M14 18H3V6H19V13H21V6C21 4.89 20.11 4 19 4H3C1.9 4 1 4.89 1 6V18C1 19.11 1.9 20 3 20H14V18Z" />
    </g>
    <g id="mdi-card-plus-outline" transform="translate(324 36) scale(1.5)" fill="#fff">
      <path d="M21 15V18H24V20H21V23H19V20H16V18H19V15H21M14 18H3V6H19V13H21V6C21 4.89 20.11 4 19 4H3C1.9 4 1 4.89 1 6V18C1 19.11 1.9 20 3 20H14V18Z" />
    </g>
    <g id="mdi-card-remove" transform="translate(360 36) scale(1.5)" fill="#555">
      <path d="M20.41 19L22.54 21.12L21.12 22.54L19 20.41L16.88 22.54L15.47 21.12L17.59 19L15.47 16.88L16.88 15.47L19 17.59L21.12 15.47L22.54 16.88L20.41 19M19 13C20.09 13 21.12 13.3 22 13.81V6C22 4.89 21.11 4 20 4H4C2.9 4 2 4.89 2 6V18C2 19.11 2.9 20 4 20H13.09C13.04 19.67 13 19.34 13 19C13 15.69 15.69 13 19 13Z" />
    </g>
    <g id="mdi-card-remove" transform="translate(396 36) scale(1.5)" fill="#fff">
      <path d="M20.41 19L22.54 21.12L21.12 22.54L19 20.41L16.88 22.54L15.47 21.12L17.59 19L15.47 16.88L16.88 15.47L19 17.59L21.12 15.47L22.54 16.88L20.41 19M19 13C20.09 13 21.12 13.3 22 13.81V6C22 4.89 21.11 4 20 4H4C2.9 4 2 4.89 2 6V18C2 19.11 2.9 20 4 20H13.09C13.04 19.67 13 19.34 13 19C13 15.69 15.69 13 19 13Z" />
    </g>
    <g id="mdi-card-remove-outline" transform="translate(432 36) scale(1.5)" fill="#555">
      <path d="M20.41 19L22.54 21.12L21.12 22.54L19 20.41L16.88 22.54L15.47 21.12L17.59 19L15.47 16.88L16.88 15.47L19 17.59L21.12 15.47L22.54 16.88L20.41 19M13.09 18H4V6H20V13.09C20.72 13.21 21.39 13.46 22 13.81V6C22 4.89 21.11 4 20 4H4C2.9 4 2 4.89 2 6V18C2 19.11 2.9 20 4 20H13.09C13.04 19.67 13 19.34 13 19C13 18.66 13.04 18.33 13.09 18Z" />
    </g>
    <g id="mdi-card-remove-outline" transform="translate(468 36) scale(1.5)" fill="#fff">
      <path d="M20.41 19L22.54 21.12L21.12 22.54L19 20.41L16.88 22.54L15.47 21.12L17.59 19L15.47 16.88L16.88 15.47L19 17.59L21.12 15.47L22.54 16.88L20.41 19M13.09 18H4V6H20V13.09C20.72 13.21 21.39 13.46 22 13.81V6C22 4.89 21.11 4 20 4H4C2.9 4 2 4.89 2 6V18C2 19.11 2.9 20 4 20H13.09C13.04 19.67 13 19.34 13 19C13 18.66 13.04 18.33 13.09 18Z" />
    </g>
    <g id="mdi-card-search" transform="translate(504 36) scale(1.5)" fill="#555">
      <path d="M11.5 9C10.12 9 9 10.12 9 11.5S10.12 14 11.5 14 14 12.88 14 11.5 12.88 9 11.5 9M20 4H4C2.9 4 2 4.9 2 6V18C2 19.1 2.9 20 4 20H20C21.1 20 22 19.1 22 18V6C22 4.9 21.1 4 20 4M16.79 18.21L13.88 15.3C13.19 15.74 12.37 16 11.5 16C9 16 7 14 7 11.5S9 7 11.5 7 16 9 16 11.5C16 12.38 15.74 13.19 15.3 13.89L18.21 16.79L16.79 18.21Z" />
    </g>
    <g id="mdi-card-search" transform="translate(540 36) scale(1.5)" fill="#fff">
      <path d="M11.5 9C10.12 9 9 10.12 9 11.5S10.12 14 11.5 14 14 12.88 14 11.5 12.88 9 11.5 9M20 4H4C2.9 4 2 4.9 2 6V18C2 19.1 2.9 20 4 20H20C21.1 20 22 19.1 22 18V6C22 4.9 21.1 4 20 4M16.79 18.21L13.88 15.3C13.19 15.74 12.37 16 11.5 16C9 16 7 14 7 11.5S9 7 11.5 7 16 9 16 11.5C16 12.38 15.74 13.19 15.3 13.89L18.21 16.79L16.79 18.21Z" />
    </g>
    <g id="mdi-card-search-outline" transform="translate(576 36) scale(1.5)" fill="#555">
      <path d="M11.5 16C12.37 16 13.19 15.74 13.88 15.3L16.32 17.74L17.74 16.32L15.3 13.89C15.74 13.19 16 12.38 16 11.5C16 9 14 7 11.5 7S7 9 7 11.5 9 16 11.5 16M11.5 9C12.88 9 14 10.12 14 11.5S12.88 14 11.5 14 9 12.88 9 11.5 10.12 9 11.5 9M20 4H4C2.9 4 2 4.9 2 6V18C2 19.1 2.9 20 4 20H20C21.1 20 22 19.1 22 18V6C22 4.9 21.1 4 20 4M20 18H4V6H20V18Z" />
    </g>
    <g id="mdi-card-search-outline" transform="translate(612 36) scale(1.5)" fill="#fff">
      <path d="M11.5 16C12.37 16 13.19 15.74 13.88 15.3L16.32 17.74L17.74 16.32L15.3 13.89C15.74 13.19 16 12.38 16 11.5C16 9 14 7 11.5 7S7 9 7 11.5 9 16 11.5 16M11.5 9C12.88 9 14 10.12 14 11.5S12.88 14 11.5 14 9 12.88 9 11.5 10.12 9 11.5 9M20 4H4C2.9 4 2 4.9 2 6V18C2 19.1 2.9 20 4 20H20C21.1 20 22 19.1 22 18V6C22 4.9 21.1 4 20 4M20 18H4V6H20V18Z" />
    </g>
    <g id="mdi-card-text" transform="translate(648 36) scale(1.5)" fill="#555">
      <path d="M20,20H4A2,2 0 0,1 2,18V6A2,2 0 0,1 4,4H20A2,2 0 0,1 22,6V18A2,2 0 0,1 20,20M5,13V15H16V13H5M5,9V11H19V9H5Z" />
    </g>
    <g id="mdi-card-text" transform="translate(684 36) scale(1.5)" fill="#fff">
      <path d="M20,20H4A2,2 0 0,1 2,18V6A2,2 0 0,1 4,4H20A2,2 0 0,1 22,6V18A2,2 0 0,1 20,20M5,13V15H16V13H5M5,9V11H19V9H5Z" />
    </g>
    <g id="mdi-card-text-outline" transform="translate(0 72) scale(1.5)" fill="#555">
      <path d="M20,20H4A2,2 0 0,1 2,18V6A2,2 0 0,1 4,4H20A2,2 0 0,1 22,6V18A2,2 0 0,1 20,20M4,6V18H20V6H4M6,9H18V11H6V9M6,13H16V15H6V13Z" />
    </g>
    <g id="mdi-card-text-outline" transform="translate(36 72) scale(1.5)" fill="#fff">
      <path d="M20,20H4A2,2 0 0,1 2,18V6A2,2 0 0,1 4,4H20A2,2 0 0,1 22,6V18A2,2 0 0,1 20,20M4,6V18H20V6H4M6,9H18V11H6V9M6,13H16V15H6V13Z" />
    </g>
    <g id="mdi-cards" transform="translate(72 72) scale(1.5)" fill="#555">
      <path d="M21.47,4.35L20.13,3.79V12.82L22.56,6.96C22.97,5.94 22.5,4.77 21.47,4.35M1.97,8.05L6.93,20C7.24,20.77 7.97,21.24 8.74,21.26C9,21.26 9.27,21.21 9.53,21.1L16.9,18.05C17.65,17.74 18.11,17 18.13,16.26C18.14,16 18.09,15.71 18,15.45L13,3.5C12.71,2.73 11.97,2.26 11.19,2.25C10.93,2.25 10.67,2.31 10.42,2.4L3.06,5.45C2.04,5.87 1.55,7.04 1.97,8.05M18.12,4.25A2,2 0 0,0 16.12,2.25H14.67L18.12,10.59" />
    </g>
    <g id="mdi-cards" transform="translate(108 72) scale(1.5)" fill="#fff">
      <path d="M21.47,4.35L20.13,3.79V12.82L22.56,6.96C22.97,5.94 22.5,4.77 21.47,4.35M1.97,8.05L6.93,20C7.24,20.77 7.97,21.24 8.74,21.26C9,21.26 9.27,21.21 9.53,21.1L16.9,18.05C17.65,17.74 18.11,17 18.13,16.26C18.14,16 18.09,15.71 18,15.45L13,3.5C12.71,2.73 11.97,2.26 11.19,2.25C10.93,2.25 10.67,2.31 10.42,2.4L3.06,5.45C2.04,5.87 1.55,7.04 1.97,8.05M18.12,4.25A2,2 0 0,0 16.12,2.25H14.67L18.12,10.59" />
    </g>
    <g id="mdi-cards-club" transform="translate(144 72) scale(1.5)" fill="#555">
      <path d="M12,2C14.3,2 16.3,4 16.3,6.2C16.21,8.77 14.34,9.83 14.04,10C15.04,9.5 16.5,9.5 16.5,9.5C19,9.5 21,11.3 21,13.8C21,16.3 19,18 16.5,18C16.5,18 15,18 13,17C13,17 12.7,19 15,22H9C11.3,19 11,17 11,17C9,18 7.5,18 7.5,18C5,18 3,16.3 3,13.8C3,11.3 5,9.5 7.5,9.5C7.5,9.5 8.96,9.5 9.96,10C9.66,9.83 7.79,8.77 7.7,6.2C7.7,4 9.7,2 12,2Z" />
    </g>
    <g id="mdi-cards-club" transform="translate(180 72) scale(1.5)" fill="#fff">
      <path d="M12,2C14.3,2 16.3,4 16.3,6.2C16.21,8.77 14.34,9.83 14.04,10C15.04,9.5 16.5,9.5 16.5,9.5C19,9.5 21,11.3 21,13.8C21,16.3 19,18 16.5,18C16.5,18 15,18 13,17C13,17 12.7,19 15,22H9C11.3,19 11,17 11,17C9,18 7.5,18 7.5,18C5,18 3,16.3 3,13.8C3,11.3 5,9.5 7.5,9.5C7.5,9.5 8.96,9.5 9.96,10C9.66,9.83 7.79,8.77 7.7,6.2C7.7,4 9.7,2 12,2Z" />
    </g>
    <g id="mdi-cards-diamond" transform="translate(216 72) scale(1.5)" fill="#555">
      <path d="M19,12L12,22L5,12L12,2" />
    </g>
    <g id="mdi-cards-diamond" transform="translate(252 72) scale(1.5)" fill="#fff">
      <path d="M19,12L12,22L5,12L12,2" />
    </g>
    <g id="mdi-cards-diamond-outline" transform="translate(288 72) scale(1.5)" fill="#555">
      <path d="M12 2L5 12L12 22L19 12M7.44 12L12 5.5L16.56 12L12 18.5" />
    </g>
    <g id="mdi-cards-diamond-outline" transform="translate(324 72) scale(1.5)" fill="#fff">
      <path d="M12 2L5 12L12 22L19 12M7.44 12L12 5.5L16.56 12L12 18.5" />
    </g>
    <g id="mdi-cards-heart" transform="translate(360 72) scale(1.5)" fill="#555">
      <path d="M12,21.35L10.55,20.03C5.4,15.36 2,12.27 2,8.5C2,5.41 4.42,3 7.5,3C9.24,3 10.91,3.81 12,5.08C13.09,3.81 14.76,3 16.5,3C19.58,3 22,5.41 22,8.5C22,12.27 18.6,15.36 13.45,20.03L12,21.35Z" />
    </g>
    <g id="mdi-cards-heart" transform="translate(396 72) scale(1.5)" fill="#fff">
      <path d="M12,21.35L10.55,20.03C5.4,15.36 2,12.27 2,8.5C2,5.41 4.42,3 7.5,3C9.24,3 10.91,3.81 12,5.08C13.09,3.81 14.76,3 16.5,3C19.58,3 22,5.41 22,8.5C22,12.27 18.6,15.36 13.45,20.03L12,21.35Z" />
    </g>
    <g id="mdi-cards-outline" transform="translate(432 72) scale(1.5)" fill="#555">
      <path d="M11.19,2.25C10.93,2.25 10.67,2.31 10.42,2.4L3.06,5.45C2.04,5.87 1.55,7.04 1.97,8.05L6.93,20C7.24,20.77 7.97,21.23 8.74,21.25C9,21.25 9.27,21.22 9.53,21.1L16.9,18.05C17.65,17.74 18.11,17 18.13,16.25C18.14,16 18.09,15.71 18,15.45L13,3.5C12.71,2.73 11.97,2.26 11.19,2.25M14.67,2.25L18.12,10.6V4.25A2,2 0 0,0 16.12,2.25M20.13,3.79V12.82L22.56,6.96C22.97,5.94 22.5,4.78 21.47,4.36M11.19,4.22L16.17,16.24L8.78,19.3L3.8,7.29" />
    </g>
    <g id="mdi-cards-outline" transform="translate(468 72) scale(1.5)" fill="#fff">
      <path d="M11.19,2.25C10.93,2.25 10.67,2.31 10.42,2.4L3.06,5.45C2.04,5.87 1.55,7.04 1.97,8.05L6.93,20C7.24,20.77 7.97,21.23 8.74,21.25C9,21.25 9.27,21.22 9.53,21.1L16.9,18.05C17.65,17.74 18.11,17 18.13,16.25C18.14,16 18.09,15.71 18,15.45L13,3.5C12.71,2.73 11.97,2.26 11.19,2.25M14.67,2.25L18.12,10.6V4.25A2,2 0 0,0 16.12,2.25M20.13,3.79V12.82L22.56,6.96C22.97,5.94 22.5,4.78 21.47,4.36M11.19,4.22L16.17,16.24L8.78,19.3L3.8,7.29" />
    </g>
    <g id="mdi-cards-playing-outline" transform="translate(504 72) scale(1.5)" fill="#555">
      <path d="M11.19,2.25C11.97,2.26 12.71,2.73 13,3.5L18,15.45C18.09,15.71 18.14,16 18.13,16.25C18.11,17 17.65,17.74 16.9,18.05L9.53,21.1C9.27,21.22 9,21.25 8.74,21.25C7.97,21.23 7.24,20.77 6.93,20L1.97,8.05C1.55,7.04 2.04,5.87 3.06,5.45L10.42,2.4C10.67,2.31 10.93,2.25 11.19,2.25M14.67,2.25H16.12A2,2 0 0,1 18.12,4.25V10.6L14.67,2.25M20.13,3.79L21.47,4.36C22.5,4.78 22.97,5.94 22.56,6.96L20.13,12.82V3.79M11.19,4.22L3.8,7.29L8.77,19.3L16.17,16.24L11.19,4.22M8.65,8.54L11.88,10.95L11.44,14.96L8.21,12.54L8.65,8.54Z" />
    </g>
    <g id="mdi-cards-playing-outline" transform="translate(540 72) scale(1.5)" fill="#fff">
      <path d="M11.19,2.25C11.97,2.26 12.71,2.73 13,3.5L18,15.45C18.09,15.71 18.14,16 18.13,16.25C18.11,17 17.65,17.74 16.9,18.05L9.53,21.1C9.27,21.22 9,21.25 8.74,21.25C7.97,21.23 7.24,20.77 6.93,20L1.97,8.05C1.55,7.04 2.04,5.87 3.06,5.45L10.42,2.4C10.67,2.31 10.93,2.25 11.19,2.25M14.67,2.25H16.12A2,2 0 0,1 18.12,4.25V10.6L14.67,2.25M20.13,3.79L21.47,4.36C22.5,4.78 22.97,5.94 22.56,6.96L20.13,12.82V3.79M11.19,4.22L3.8,7.29L8.77,19.3L16.17,16.24L11.19,4.22M8.65,8.54L11.88,10.95L11.44,14.96L8.21,12.54L8.65,8.54Z" />
    </g>
    <g id="mdi-cards-spade" transform="translate(576 72) scale(1.5)" fill="#555">
      <path d="M12,2C9,7 4,9 4,14C4,16 6,18 8,18C9,18 10,18 11,17C11,17 11.32,19 9,22H15C13,19 13,17 13,17C14,18 15,18 16,18C18,18 20,16 20,14C20,9 15,7 12,2Z" />
    </g>
    <g id="mdi-cards-spade" transform="translate(612 72) scale(1.5)" fill="#fff">
      <path d="M12,2C9,7 4,9 4,14C4,16 6,18 8,18C9,18 10,18 11,17C11,17 11.32,19 9,22H15C13,19 13,17 13,17C14,18 15,18 16,18C18,18 20,16 20,14C20,9 15,7 12,2Z" />
    </g>
    <g id="mdi-cards-variant" transform="translate(648 72) scale(1.5)" fill="#555">
      <path d="M5,2H19A1,1 0 0,1 20,3V13A1,1 0 0,1 19,14H5A1,1 0 0,1 4,13V3A1,1 0 0,1 5,2M6,4V12H18V4H6M20,17A1,1 0 0,1 19,18H5A1,1 0 0,1 4,17V16H20V17M20,21A1,1 0 0,1 19,22H5A1,1 0 0,1 4,21V20H20V21Z" />
    </g>
    <g id="mdi-cards-variant" transform="translate(684 72) scale(1.5)" fill="#fff">
      <path d="M5,2H19A1,1 0 0,1 20,3V13A1,1 0 0,1 19,14H5A1,1 0 0,1 4,13V3A1,1 0 0,1 5,2M6,4V12H18V4H6M20,17A1,1 0 0,1 19,18H5A1,1 0 0,1 4,17V16H20V17M20,21A1,1 0 0,1 19,22H5A1,1 0 0,1 4,21V20H20V21Z" />
    </g>
    <g id="mdi-carrot" transform="translate(0 108) scale(1.5)" fill="#555">
      <path d="M16,10L15.8,11H13.5A0.5,0.5 0 0,0 13,11.5A0.5,0.5 0 0,0 13.5,12H15.6L14.6,17H12.5A0.5,0.5 0 0,0 12,17.5A0.5,0.5 0 0,0 12.5,18H14.4L14,20A2,2 0 0,1 12,22A2,2 0 0,1 10,20L9,15H10.5A0.5,0.5 0 0,0 11,14.5A0.5,0.5 0 0,0 10.5,14H8.8L8,10C8,8.8 8.93,7.77 10.29,7.29L8.9,5.28C8.59,4.82 8.7,4.2 9.16,3.89C9.61,3.57 10.23,3.69 10.55,4.14L11,4.8V3A1,1 0 0,1 12,2A1,1 0 0,1 13,3V5.28L14.5,3.54C14.83,3.12 15.47,3.07 15.89,3.43C16.31,3.78 16.36,4.41 16,4.84L13.87,7.35C15.14,7.85 16,8.85 16,10Z" />
    </g>
    <g id="mdi-carrot" transform="translate(36 108) scale(1.5)" fill="#fff">
      <path d="M16,10L15.8,11H13.5A0.5,0.5 0 0,0 13,11.5A0.5,0.5 0 0,0 13.5,12H15.6L14.6,17H12.5A0.5,0.5 0 0,0 12,17.5A0.5,0.5 0 0,0 12.5,18H14.4L14,20A2,2 0 0,1 12,22A2,2 0 0,1 10,20L9,15H10.5A0.5,0.5 0 0,0 11,14.5A0.5,0.5 0 0,0 10.5,14H8.8L8,10C8,8.8 8.93,7.77 10.29,7.29L8.9,5.28C8.59,4.82 8.7,4.2 9.16,3.89C9.61,3.57 10.23,3.69 10.55,4.14L11,4.8V3A1,1 0 0,1 12,2A1,1 0 0,1 13,3V5.28L14.5,3.54C14.83,3.12 15.47,3.07 15.89,3.43C16.31,3.78 16.36,4.41 16,4.84L13.87,7.35C15.14,7.85 16,8.85 16,10Z" />
    </g>
    <g id="mdi-cart" transform="translate(72 108) scale(1.5)" fill="#555">
      <path d="M17,18C15.89,18 15,18.89 15,20A2,2 0 0,0 17,22A2,2 0 0,0 19,20C19,18.89 18.1,18 17,18M1,2V4H3L6.6,11.59L5.24,14.04C5.09,14.32 5,14.65 5,15A2,2 0 0,0 7,17H19V15H7.42A0.25,0.25 0 0,1 7.17,14.75C7.17,14.7 7.18,14.66 7.2,14.63L8.1,13H15.55C16.3,13 16.96,12.58 17.3,11.97L20.88,5.5C20.95,5.34 21,5.17 21,5A1,1 0 0,0 20,4H5.21L4.27,2M7,18C5.89,18 5,18.89 5,20A2,2 0 0,0 7,22A2,2 0 0,0 9,20C9,18.89 8.1,18 7,18Z" />
    </g>
    <g id="mdi-cart" transform="translate(108 108) scale(1.5)" fill="#fff">
      <path d="M17,18C15.89,18 15,18.89 15,20A2,2 0 0,0 17,22A2,2 0 0,0 19,20C19,18.89 18.1,18 17,18M1,2V4H3L6.6,11.59L5.24,14.04C5.09,14.32 5,14.65 5,15A2,2 0 0,0 7,17H19V15H7.42A0.25,0.25 0 0,1 7.17,14.75C7.17,14.7 7.18,14.66 7.2,14.63L8.1,13H15.55C16.3,13 16.96,12.58 17.3,11.97L20.88,5.5C20.95,5.34 21,5.17 21,5A1,1 0 0,0 20,4H5.21L4.27,2M7,18C5.89,18 5,18.89 5,20A2,2 0 0,0 7,22A2,2 0 0,0 9,20C9,18.89 8.1,18 7,18Z" />
    </g>
    <g id="mdi-cart-arrow-down" transform="translate(144 108) scale(1.5)" fill="#555">
      <path d="M10,0V4H8L12,8L16,4H14V0M1,2V4H3L6.6,11.59L5.25,14.04C5.09,14.32 5,14.65 5,15A2,2 0 0,0 7,17H19V15H7.42C7.29,15 7.17,14.89 7.17,14.75L7.2,14.63L8.1,13H15.55C16.3,13 16.96,12.59 17.3,11.97L21.16,4.96L19.42,4H19.41L18.31,6L15.55,11H8.53L8.4,10.73L6.16,6L5.21,4L4.27,2M7,18A2,2 0 0,0 5,20A2,2 0 0,0 7,22A2,2 0 0,0 9,20A2,2 0 0,0 7,18M17,18A2,2 0 0,0 15,20A2,2 0 0,0 17,22A2,2 0 0,0 19,20A2,2 0 0,0 17,18Z" />
    </g>
    <g id="mdi-cart-arrow-down" transform="translate(180 108) scale(1.5)" fill="#fff">
      <path d="M10,0V4H8L12,8L16,4H14V0M1,2V4H3L6.6,11.59L5.25,14.04C5.09,14.32 5,14.65 5,15A2,2 0 0,0 7,17H19V15H7.42C7.29,15 7.17,14.89 7.17,14.75L7.2,14.63L8.1,13H15.55C16.3,13 16.96,12.59 17.3,11.97L21.16,4.96L19.42,4H19.41L18.31,6L15.55,11H8.53L8.4,10.73L6.16,6L5.21,4L4.27,2M7,18A2,2 0 0,0 5,20A2,2 0 0,0 7,22A2,2 0 0,0 9,20A2,2 0 0,0 7,18M17,18A2,2 0 0,0 15,20A2,2 0 0,0 17,22A2,2 0 0,0 19,20A2,2 0 0,0 17,18Z" />
    </g>
    <g id="mdi-cart-arrow-right" transform="translate(216 108) scale(1.5)" fill="#555">
      <path d="M9,20A2,2 0 0,1 7,22A2,2 0 0,1 5,20A2,2 0 0,1 7,18A2,2 0 0,1 9,20M17,18A2,2 0 0,0 15,20A2,2 0 0,0 17,22A2,2 0 0,0 19,20A2,2 0 0,0 17,18M7.2,14.63C7.19,14.67 7.19,14.71 7.2,14.75A0.25,0.25 0 0,0 7.45,15H19V17H7A2,2 0 0,1 5,15C5,14.65 5.07,14.31 5.24,14L6.6,11.59L3,4H1V2H4.27L5.21,4H20A1,1 0 0,1 21,5C21,5.17 20.95,5.34 20.88,5.5L17.3,12C16.94,12.62 16.27,13 15.55,13H8.1L7.2,14.63M9,9.5H13V11.5L16,8.5L13,5.5V7.5H9V9.5Z" />
    </g>
    <g id="mdi-cart-arrow-right" transform="translate(252 108) scale(1.5)" fill="#fff">
      <path d="M9,20A2,2 0 0,1 7,22A2,2 0 0,1 5,20A2,2 0 0,1 7,18A2,2 0 0,1 9,20M17,18A2,2 0 0,0 15,20A2,2 0 0,0 17,22A2,2 0 0,0 19,20A2,2 0 0,0 17,18M7.2,14.63C7.19,14.67 7.19,14.71 7.2,14.75A0.25,0.25 0 0,0 7.45,15H19V17H7A2,2 0 0,1 5,15C5,14.65 5.07,14.31 5.24,14L6.6,11.59L3,4H1V2H4.27L5.21,4H20A1,1 0 0,1 21,5C21,5.17 20.95,5.34 20.88,5.5L17.3,12C16.94,12.62 16.27,13 15.55,13H8.1L7.2,14.63M9,9.5H13V11.5L16,8.5L13,5.5V7.5H9V9.5Z" />
    </g>
    <g id="mdi-cart-arrow-up" transform="translate(288 108) scale(1.5)" fill="#555">
      <path d="M12,0L8,4H10V8H14V4H16M1,2V4H3L6.6,11.59L5.25,14.04C5.09,14.32 5,14.65 5,15A2,2 0 0,0 7,17H19V15H7.42C7.29,15 7.17,14.89 7.17,14.75L7.2,14.63L8.1,13H15.55C16.3,13 16.96,12.59 17.3,11.97L21.16,4.96L19.42,4H19.41L18.31,6L15.55,11H8.53L8.4,10.73L6.16,6L5.21,4L4.27,2M7,18A2,2 0 0,0 5,20A2,2 0 0,0 7,22A2,2 0 0,0 9,20A2,2 0 0,0 7,18M17,18A2,2 0 0,0 15,20A2,2 0 0,0 17,22A2,2 0 0,0 19,20A2,2 0 0,0 17,18Z" />
    </g>
    <g id="mdi-cart-arrow-up" transform="translate(324 108) scale(1.5)" fill="#fff">
      <path d="M12,0L8,4H10V8H14V4H16M1,2V4H3L6.6,11.59L5.25,14.04C5.09,14.32 5,14.65 5,15A2,2 0 0,0 7,17H19V15H7.42C7.29,15 7.17,14.89 7.17,14.75L7.2,14.63L8.1,13H15.55C16.3,13 16.96,12.59 17.3,11.97L21.16,4.96L19.42,4H19.41L18.31,6L15.55,11H8.53L8.4,10.73L6.16,6L5.21,4L4.27,2M7,18A2,2 0 0,0 5,20A2,2 0 0,0 7,22A2,2 0 0,0 9,20A2,2 0 0,0 7,18M17,18A2,2 0 0,0 15,20A2,2 0 0,0 17,22A2,2 0 0,0 19,20A2,2 0 0,0 17,18Z" />
    </g>
    <g id="mdi-cart-check" transform="translate(360 108) scale(1.5)" fill="#555">
      <path d="M9 20C9 21.11 8.11 22 7 22S5 21.11 5 20 5.9 18 7 18 9 18.9 9 20M17 18C15.9 18 15 18.9 15 20S15.9 22 17 22 19 21.11 19 20 18.11 18 17 18M7.17 14.75L7.2 14.63L8.1 13H15.55C16.3 13 16.96 12.59 17.3 11.97L21.16 4.96L19.42 4H19.41L18.31 6L15.55 11H8.53L8.4 10.73L6.16 6L5.21 4L4.27 2H1V4H3L6.6 11.59L5.25 14.04C5.09 14.32 5 14.65 5 15C5 16.11 5.9 17 7 17H19V15H7.42C7.29 15 7.17 14.89 7.17 14.75M18 2.76L16.59 1.34L11.75 6.18L9.16 3.59L7.75 5L11.75 9L18 2.76Z" />
    </g>
    <g id="mdi-cart-check" transform="translate(396 108) scale(1.5)" fill="#fff">
      <path d="M9 20C9 21.11 8.11 22 7 22S5 21.11 5 20 5.9 18 7 18 9 18.9 9 20M17 18C15.9 18 15 18.9 15 20S15.9 22 17 22 19 21.11 19 20 18.11 18 17 18M7.17 14.75L7.2 14.63L8.1 13H15.55C16.3 13 16.96 12.59 17.3 11.97L21.16 4.96L19.42 4H19.41L18.31 6L15.55 11H8.53L8.4 10.73L6.16 6L5.21 4L4.27 2H1V4H3L6.6 11.59L5.25 14.04C5.09 14.32 5 14.65 5 15C5 16.11 5.9 17 7 17H19V15H7.42C7.29 15 7.17 14.89 7.17 14.75M18 2.76L16.59 1.34L11.75 6.18L9.16 3.59L7.75 5L11.75 9L18 2.76Z" />
    </g>
    <g id="mdi-cart-minus" transform="translate(432 108) scale(1.5)" fill="#555">
      <path d="M16,6V4H8V6M7,18A2,2 0 0,0 5,20A2,2 0 0,0 7,22A2,2 0 0,0 9,20A2,2 0 0,0 7,18M17,18A2,2 0 0,0 15,20A2,2 0 0,0 17,22A2,2 0 0,0 19,20A2,2 0 0,0 17,18M7.17,14.75L7.2,14.63L8.1,13H15.55C16.3,13 16.96,12.59 17.3,11.97L21.16,4.96L19.42,4H19.41L18.31,6L15.55,11H8.53L8.4,10.73L6.16,6L5.21,4L4.27,2H1V4H3L6.6,11.59L5.25,14.04C5.09,14.32 5,14.65 5,15A2,2 0 0,0 7,17H19V15H7.42C7.29,15 7.17,14.89 7.17,14.75Z" />
    </g>
    <g id="mdi-cart-minus" transform="translate(468 108) scale(1.5)" fill="#fff">
      <path d="M16,6V4H8V6M7,18A2,2 0 0,0 5,20A2,2 0 0,0 7,22A2,2 0 0,0 9,20A2,2 0 0,0 7,18M17,18A2,2 0 0,0 15,20A2,2 0 0,0 17,22A2,2 0 0,0 19,20A2,2 0 0,0 17,18M7.17,14.75L7.2,14.63L8.1,13H15.55C16.3,13 16.96,12.59 17.3,11.97L21.16,4.96L19.42,4H19.41L18.31,6L15.55,11H8.53L8.4,10.73L6.16,6L5.21,4L4.27,2H1V4H3L6.6,11.59L5.25,14.04C5.09,14.32 5,14.65 5,15A2,2 0 0,0 7,17H19V15H7.42C7.29,15 7.17,14.89 7.17,14.75Z" />
    </g>
    <g id="mdi-cart-off" transform="translate(504 108) scale(1.5)" fill="#555">
      <path d="M22.73,22.73L1.27,1.27L0,2.54L4.39,6.93L6.6,11.59L5.25,14.04C5.09,14.32 5,14.65 5,15A2,2 0 0,0 7,17H14.46L15.84,18.38C15.34,18.74 15,19.33 15,20A2,2 0 0,0 17,22C17.67,22 18.26,21.67 18.62,21.16L21.46,24L22.73,22.73M7.42,15A0.25,0.25 0 0,1 7.17,14.75L7.2,14.63L8.1,13H10.46L12.46,15H7.42M15.55,13C16.3,13 16.96,12.59 17.3,11.97L20.88,5.5C20.96,5.34 21,5.17 21,5A1,1 0 0,0 20,4H6.54L15.55,13M7,18A2,2 0 0,0 5,20A2,2 0 0,0 7,22A2,2 0 0,0 9,20A2,2 0 0,0 7,18Z" />
    </g>
    <g id="mdi-cart-off" transform="translate(540 108) scale(1.5)" fill="#fff">
      <path d="M22.73,22.73L1.27,1.27L0,2.54L4.39,6.93L6.6,11.59L5.25,14.04C5.09,14.32 5,14.65 5,15A2,2 0 0,0 7,17H14.46L15.84,18.38C15.34,18.74 15,19.33 15,20A2,2 0 0,0 17,22C17.67,22 18.26,21.67 18.62,21.16L21.46,24L22.73,22.73M7.42,15A0.25,0.25 0 0,1 7.17,14.75L7.2,14.63L8.1,13H10.46L12.46,15H7.42M15.55,13C16.3,13 16.96,12.59 17.3,11.97L20.88,5.5C20.96,5.34 21,5.17 21,5A1,1 0 0,0 20,4H6.54L15.55,13M7,18A2,2 0 0,0 5,20A2,2 0 0,0 7,22A2,2 0 0,0 9,20A2,2 0 0,0 7,18Z" />
    </g>
    <g id="mdi-cart-outline" transform="translate(576 108) scale(1.5)" fill="#555">
      <path d="M17,18A2,2 0 0,1 19,20A2,2 0 0,1 17,22C15.89,22 15,21.1 15,20C15,18.89 15.89,18 17,18M1,2H4.27L5.21,4H20A1,1 0 0,1 21,5C21,5.17 20.95,5.34 20.88,5.5L17.3,11.97C16.96,12.58 16.3,13 15.55,13H8.1L7.2,14.63L7.17,14.75A0.25,0.25 0 0,0 7.42,15H19V17H7C5.89,17 5,16.1 5,15C5,14.65 5.09,14.32 5.24,14.04L6.6,11.59L3,4H1V2M7,18A2,2 0 0,1 9,20A2,2 0 0,1 7,22C5.89,22 5,21.1 5,20C5,18.89 5.89,18 7,18M16,11L18.78,6H6.14L8.5,11H16Z" />
    </g>
    <g id="mdi-cart-outline" transform="translate(612 108) scale(1.5)" fill="#fff">
      <path d="M17,18A2,2 0 0,1 19,20A2,2 0 0,1 17,22C15.89,22 15,21.1 15,20C15,18.89 15.89,18 17,18M1,2H4.27L5.21,4H20A1,1 0 0,1 21,5C21,5.17 20.95,5.34 20.88,5.5L17.3,11.97C16.96,12.58 16.3,13 15.55,13H8.1L7.2,14.63L7.17,14.75A0.25,0.25 0 0,0 7.42,15H19V17H7C5.89,17 5,16.1 5,15C5,14.65 5.09,14.32 5.24,14.04L6.6,11.59L3,4H1V2M7,18A2,2 0 0,1 9,20A2,2 0 0,1 7,22C5.89,22 5,21.1 5,20C5,18.89 5.89,18 7,18M16,11L18.78,6H6.14L8.5,11H16Z" />
    </g>
    <g id="mdi-cart-plus" transform="translate(648 108) scale(1.5)" fill="#555">
      <path d="M11,9H13V6H16V4H13V1H11V4H8V6H11M7,18A2,2 0 0,0 5,20A2,2 0 0,0 7,22A2,2 0 0,0 9,20A2,2 0 0,0 7,18M17,18A2,2 0 0,0 15,20A2,2 0 0,0 17,22A2,2 0 0,0 19,20A2,2 0 0,0 17,18M7.17,14.75L7.2,14.63L8.1,13H15.55C16.3,13 16.96,12.59 17.3,11.97L21.16,4.96L19.42,4H19.41L18.31,6L15.55,11H8.53L8.4,10.73L6.16,6L5.21,4L4.27,2H1V4H3L6.6,11.59L5.25,14.04C5.09,14.32 5,14.65 5,15A2,2 0 0,0 7,17H19V15H7.42C7.29,15 7.17,14.89 7.17,14.75Z" />
    </g>
    <g id="mdi-cart-plus" transform="translate(684 108) scale(1.5)" fill="#fff">
      <path d="M11,9H13V6H16V4H13V1H11V4H8V6H11M7,18A2,2 0 0,0 5,20A2,2 0 0,0 7,22A2,2 0 0,0 9,20A2,2 0 0,0 7,18M17,18A2,2 0 0,0 15,20A2,2 0 0,0 17,22A2,2 0 0,0 19,20A2,2 0 0,0 17,18M7.17,14.75L7.2,14.63L8.1,13H15.55C16.3,13 16.96,12.59 17.3,11.97L21.16,4.96L19.42,4H19.41L18.31,6L15.55,11H8.53L8.4,10.73L6.16,6L5.21,4L4.27,2H1V4H3L6.6,11.59L5.25,14.04C5.09,14.32 5,14.65 5,15A2,2 0 0,0 7,17H19V15H7.42C7.29,15 7.17,14.89 7.17,14.75Z" />
    </g>
    <g id="mdi-cart-remove" transform="translate(0 144) scale(1.5)" fill="#555">
      <path d="M14.12,8.53L12,6.41L9.88,8.54L8.46,7.12L10.59,5L8.47,2.88L9.88,1.47L12,3.59L14.12,1.46L15.54,2.88L13.41,5L15.53,7.12L14.12,8.53M7,18A2,2 0 0,1 9,20A2,2 0 0,1 7,22A2,2 0 0,1 5,20A2,2 0 0,1 7,18M17,18A2,2 0 0,1 19,20A2,2 0 0,1 17,22A2,2 0 0,1 15,20A2,2 0 0,1 17,18M7.17,14.75A0.25,0.25 0 0,0 7.42,15H19V17H7A2,2 0 0,1 5,15C5,14.65 5.09,14.32 5.25,14.04L6.6,11.59L3,4H1V2H4.27L5.21,4L6.16,6L8.4,10.73L8.53,11H15.55L18.31,6L19.41,4H19.42L21.16,4.96L17.3,11.97C16.96,12.59 16.3,13 15.55,13H8.1L7.2,14.63L7.17,14.75Z" />
    </g>
    <g id="mdi-cart-remove" transform="translate(36 144) scale(1.5)" fill="#fff">
      <path d="M14.12,8.53L12,6.41L9.88,8.54L8.46,7.12L10.59,5L8.47,2.88L9.88,1.47L12,3.59L14.12,1.46L15.54,2.88L13.41,5L15.53,7.12L14.12,8.53M7,18A2,2 0 0,1 9,20A2,2 0 0,1 7,22A2,2 0 0,1 5,20A2,2 0 0,1 7,18M17,18A2,2 0 0,1 19,20A2,2 0 0,1 17,22A2,2 0 0,1 15,20A2,2 0 0,1 17,18M7.17,14.75A0.25,0.25 0 0,0 7.42,15H19V17H7A2,2 0 0,1 5,15C5,14.65 5.09,14.32 5.25,14.04L6.6,11.59L3,4H1V2H4.27L5.21,4L6.16,6L8.4,10.73L8.53,11H15.55L18.31,6L19.41,4H19.42L21.16,4.96L17.3,11.97C16.96,12.59 16.3,13 15.55,13H8.1L7.2,14.63L7.17,14.75Z" />
    </g>
    <g id="mdi-cart-variant" transform="translate(72 144) scale(1.5)" fill="#555">
      <path d="M19 20C19 21.11 18.11 22 17 22C15.89 22 15 21.1 15 20C15 18.89 15.89 18 17 18C18.11 18 19 18.9 19 20M7 18C5.89 18 5 18.89 5 20C5 21.1 5.89 22 7 22C8.11 22 9 21.11 9 20S8.11 18 7 18M7.2 14.63L7.17 14.75C7.17 14.89 7.28 15 7.42 15H19V17H7C5.89 17 5 16.1 5 15C5 14.65 5.09 14.32 5.24 14.04L6.6 11.59L3 4H1V2H4.27L5.21 4H20C20.55 4 21 4.45 21 5C21 5.17 20.95 5.34 20.88 5.5L17.3 11.97C16.96 12.58 16.3 13 15.55 13H8.1L7.2 14.63M8.5 11H10V9H7.56L8.5 11M11 9V11H14V9H11M14 8V6H11V8H14M17.11 9H15V11H16L17.11 9M18.78 6H15V8H17.67L18.78 6M6.14 6L7.08 8H10V6H6.14Z" />
    </g>
    <g id="mdi-cart-variant" transform="translate(108 144) scale(1.5)" fill="#fff">
      <path d="M19 20C19 21.11 18.11 22 17 22C15.89 22 15 21.1 15 20C15 18.89 15.89 18 17 18C18.11 18 19 18.9 19 20M7 18C5.89 18 5 18.89 5 20C5 21.1 5.89 22 7 22C8.11 22 9 21.11 9 20S8.11 18 7 18M7.2 14.63L7.17 14.75C7.17 14.89 7.28 15 7.42 15H19V17H7C5.89 17 5 16.1 5 15C5 14.65 5.09 14.32 5.24 14.04L6.6 11.59L3 4H1V2H4.27L5.21 4H20C20.55 4 21 4.45 21 5C21 5.17 20.95 5.34 20.88 5.5L17.3 11.97C16.96 12.58 16.3 13 15.55 13H8.1L7.2 14.63M8.5 11H10V9H7.56L8.5 11M11 9V11H14V9H11M14 8V6H11V8H14M17.11 9H15V11H16L17.11 9M18.78 6H15V8H17.67L18.78 6M6.14 6L7.08 8H10V6H6.14Z" />
    </g>
    <g id="mdi-case-sensitive-alt" transform="translate(144 144) scale(1.5)" fill="#555">
      <path d="M20,14C20,12.5 19.5,12 18,12H16V11C16,10 16,10 14,10V15.4L14,19H16L18,19C19.5,19 20,18.47 20,17V14M12,12C12,10.5 11.47,10 10,10H6C4.5,10 4,10.5 4,12V19H6V16H10V19H12V12M10,7H14V5H10V7M22,9V20C22,21.11 21.11,22 20,22H4A2,2 0 0,1 2,20V9C2,7.89 2.89,7 4,7H8V5L10,3H14L16,5V7H20A2,2 0 0,1 22,9H22M16,17H18V14H16V17M6,12H10V14H6V12Z" />
    </g>
    <g id="mdi-case-sensitive-alt" transform="translate(180 144) scale(1.5)" fill="#fff">
      <path d="M20,14C20,12.5 19.5,12 18,12H16V11C16,10 16,10 14,10V15.4L14,19H16L18,19C19.5,19 20,18.47 20,17V14M12,12C12,10.5 11.47,10 10,10H6C4.5,10 4,10.5 4,12V19H6V16H10V19H12V12M10,7H14V5H10V7M22,9V20C22,21.11 21.11,22 20,22H4A2,2 0 0,1 2,20V9C2,7.89 2.89,7 4,7H8V5L10,3H14L16,5V7H20A2,2 0 0,1 22,9H22M16,17H18V14H16V17M6,12H10V14H6V12Z" />
    </g>
    <g id="mdi-cash" transform="translate(216 144) scale(1.5)" fill="#555">
      <path d="M3,6H21V18H3V6M12,9A3,3 0 0,1 15,12A3,3 0 0,1 12,15A3,3 0 0,1 9,12A3,3 0 0,1 12,9M7,8A2,2 0 0,1 5,10V14A2,2 0 0,1 7,16H17A2,2 0 0,1 19,14V10A2,2 0 0,1 17,8H7Z" />
    </g>
    <g id="mdi-cash" transform="translate(252 144) scale(1.5)" fill="#fff">
      <path d="M3,6H21V18H3V6M12,9A3,3 0 0,1 15,12A3,3 0 0,1 12,15A3,3 0 0,1 9,12A3,3 0 0,1 12,9M7,8A2,2 0 0,1 5,10V14A2,2 0 0,1 7,16H17A2,2 0 0,1 19,14V10A2,2 0 0,1 17,8H7Z" />
    </g>
    <g id="mdi-cash-100" transform="translate(288 144) scale(1.5)" fill="#555">
      <path d="M2,5H22V20H2V5M20,18V7H4V18H20M17,8A2,2 0 0,0 19,10V15A2,2 0 0,0 17,17H7A2,2 0 0,0 5,15V10A2,2 0 0,0 7,8H17M17,13V12C17,10.9 16.33,10 15.5,10C14.67,10 14,10.9 14,12V13C14,14.1 14.67,15 15.5,15C16.33,15 17,14.1 17,13M15.5,11A0.5,0.5 0 0,1 16,11.5V13.5A0.5,0.5 0 0,1 15.5,14A0.5,0.5 0 0,1 15,13.5V11.5A0.5,0.5 0 0,1 15.5,11M13,13V12C13,10.9 12.33,10 11.5,10C10.67,10 10,10.9 10,12V13C10,14.1 10.67,15 11.5,15C12.33,15 13,14.1 13,13M11.5,11A0.5,0.5 0 0,1 12,11.5V13.5A0.5,0.5 0 0,1 11.5,14A0.5,0.5 0 0,1 11,13.5V11.5A0.5,0.5 0 0,1 11.5,11M8,15H9V10H8L7,10.5V11.5L8,11V15Z" />
    </g>
    <g id="mdi-cash-100" transform="translate(324 144) scale(1.5)" fill="#fff">
      <path d="M2,5H22V20H2V5M20,18V7H4V18H20M17,8A2,2 0 0,0 19,10V15A2,2 0 0,0 17,17H7A2,2 0 0,0 5,15V10A2,2 0 0,0 7,8H17M17,13V12C17,10.9 16.33,10 15.5,10C14.67,10 14,10.9 14,12V13C14,14.1 14.67,15 15.5,15C16.33,15 17,14.1 17,13M15.5,11A0.5,0.5 0 0,1 16,11.5V13.5A0.5,0.5 0 0,1 15.5,14A0.5,0.5 0 0,1 15,13.5V11.5A0.5,0.5 0 0,1 15.5,11M13,13V12C13,10.9 12.33,10 11.5,10C10.67,10 10,10.9 10,12V13C10,14.1 10.67,15 11.5,15C12.33,15 13,14.1 13,13M11.5,11A0.5,0.5 0 0,1 12,11.5V13.5A0.5,0.5 0 0,1 11.5,14A0.5,0.5 0 0,1 11,13.5V11.5A0.5,0.5 0 0,1 11.5,11M8,15H9V10H8L7,10.5V11.5L8,11V15Z" />
    </g>
    <g id="mdi-cash-check" transform="translate(360 144) scale(1.5)" fill="#555">
      <path d="M3 6V18H13.32C13.1 17.33 13 16.66 13 16H7C7 14.9 6.11 14 5 14V10C6.11 10 7 9.11 7 8H17C17 9.11 17.9 10 19 10V10.06C19.67 10.06 20.34 10.18 21 10.4V6H3M12 9C10.3 9.03 9 10.3 9 12C9 13.7 10.3 14.94 12 15C12.38 15 12.77 14.92 13.14 14.77C13.41 13.67 13.86 12.63 14.97 11.61C14.85 10.28 13.59 8.97 12 9M21.63 12.27L17.76 16.17L16.41 14.8L15 16.22L17.75 19L23.03 13.68L21.63 12.27Z" />
    </g>
    <g id="mdi-cash-check" transform="translate(396 144) scale(1.5)" fill="#fff">
      <path d="M3 6V18H13.32C13.1 17.33 13 16.66 13 16H7C7 14.9 6.11 14 5 14V10C6.11 10 7 9.11 7 8H17C17 9.11 17.9 10 19 10V10.06C19.67 10.06 20.34 10.18 21 10.4V6H3M12 9C10.3 9.03 9 10.3 9 12C9 13.7 10.3 14.94 12 15C12.38 15 12.77 14.92 13.14 14.77C13.41 13.67 13.86 12.63 14.97 11.61C14.85 10.28 13.59 8.97 12 9M21.63 12.27L17.76 16.17L16.41 14.8L15 16.22L17.75 19L23.03 13.68L21.63 12.27Z" />
    </g>
    <g id="mdi-cash-lock" transform="translate(432 144) scale(1.5)" fill="#555">
      <path d="M21.8 15C22.4 15 23 15.6 23 16.3V19.8C23 20.4 22.4 21 21.7 21H16.2C15.6 21 15 20.4 15 19.7V16.2C15 15.6 15.6 15 16.2 15V13.5C16.2 12.1 17.6 11 19 11C20.4 11 21.8 12.1 21.8 13.5V15M20.5 15V13.5C20.5 12.7 19.8 12.2 19 12.2C18.2 12.2 17.5 12.7 17.5 13.5V15H20.5M2 6H20V9.1L19 9C18.18 9 17.41 9.2 16.73 9.54C16.28 9.18 16 8.62 16 8H6C6 9.11 5.11 10 4 10V14C5.11 14 6 14.9 6 16H13.04L13 16.5V18H2V6M11 9C12.66 9 14 10.34 14 12C14 13.66 12.66 15 11 15C9.34 15 8 13.66 8 12C8 10.34 9.34 9 11 9Z" />
    </g>
    <g id="mdi-cash-lock" transform="translate(468 144) scale(1.5)" fill="#fff">
      <path d="M21.8 15C22.4 15 23 15.6 23 16.3V19.8C23 20.4 22.4 21 21.7 21H16.2C15.6 21 15 20.4 15 19.7V16.2C15 15.6 15.6 15 16.2 15V13.5C16.2 12.1 17.6 11 19 11C20.4 11 21.8 12.1 21.8 13.5V15M20.5 15V13.5C20.5 12.7 19.8 12.2 19 12.2C18.2 12.2 17.5 12.7 17.5 13.5V15H20.5M2 6H20V9.1L19 9C18.18 9 17.41 9.2 16.73 9.54C16.28 9.18 16 8.62 16 8H6C6 9.11 5.11 10 4 10V14C5.11 14 6 14.9 6 16H13.04L13 16.5V18H2V6M11 9C12.66 9 14 10.34 14 12C14 13.66 12.66 15 11 15C9.34 15 8 13.66 8 12C8 10.34 9.34 9 11 9Z" />
    </g>
    <g id="mdi-cash-lock-open" transform="translate(504 144) scale(1.5)" fill="#555">
      <path d="M21.8 16C22.4 16 23 16.6 23 17.3V20.8C23 21.4 22.4 22 21.7 22H16.2C15.6 22 15 21.4 15 20.7V17.2C15 16.6 15.6 16 16.2 16V13.5C16.2 12.1 17.6 11 19 11C20.4 11 21.8 12.1 21.8 13.5V14H20.5V13.5C20.5 12.7 19.8 12.2 19 12.2C18.2 12.2 17.5 12.7 17.5 13.5V16H21.8M2 6H20V9.1L19 9C18.18 9 17.41 9.2 16.73 9.54C16.28 9.18 16 8.62 16 8H6C6 9.11 5.11 10 4 10V14C5.11 14 6 14.9 6 16H13.04L13 16.5V18H2V6M11 9C12.66 9 14 10.34 14 12C14 13.66 12.66 15 11 15C9.34 15 8 13.66 8 12C8 10.34 9.34 9 11 9Z" />
    </g>
    <g id="mdi-cash-lock-open" transform="translate(540 144) scale(1.5)" fill="#fff">
      <path d="M21.8 16C22.4 16 23 16.6 23 17.3V20.8C23 21.4 22.4 22 21.7 22H16.2C15.6 22 15 21.4 15 20.7V17.2C15 16.6 15.6 16 16.2 16V13.5C16.2 12.1 17.6 11 19 11C20.4 11 21.8 12.1 21.8 13.5V14H20.5V13.5C20.5 12.7 19.8 12.2 19 12.2C18.2 12.2 17.5 12.7 17.5 13.5V16H21.8M2 6H20V9.1L19 9C18.18 9 17.41 9.2 16.73 9.54C16.28 9.18 16 8.62 16 8H6C6 9.11 5.11 10 4 10V14C5.11 14 6 14.9 6 16H13.04L13 16.5V18H2V6M11 9C12.66 9 14 10.34 14 12C14 13.66 12.66 15 11 15C9.34 15 8 13.66 8 12C8 10.34 9.34 9 11 9Z" />
    </g>
    <g id="mdi-cash-marker" transform="translate(576 144) scale(1.5)" fill="#555">
      <path d="M18.5,16.8C17.8,16.8 17.3,16.2 17.3,15.6C17.3,14.9 17.9,14.4 18.5,14.4C19.1,14.4 19.7,15 19.7,15.6C19.8,16.2 19.2,16.8 18.5,16.8M18.5,12C16.6,12 15,13.6 15,15.5C15,18.1 18.5,22 18.5,22C18.5,22 22,18.1 22,15.5C22,13.6 20.4,12 18.5,12M14.9,11.3C14.6,10 13.4,9 12,9C10.3,9 9,10.3 9,12C9,13.7 10.3,15 12,15C12.4,15 12.7,14.9 13,14.8C13.2,13.4 13.9,12.2 14.9,11.3M13,16H7A2,2 0 0,0 5,14V10A2,2 0 0,0 7,8H17A2,2 0 0,0 19,10C19,10 20,10 21,10.6V6H3V18H13.5C13.3,17.3 13.1,16.7 13,16Z" />
    </g>
    <g id="mdi-cash-marker" transform="translate(612 144) scale(1.5)" fill="#fff">
      <path d="M18.5,16.8C17.8,16.8 17.3,16.2 17.3,15.6C17.3,14.9 17.9,14.4 18.5,14.4C19.1,14.4 19.7,15 19.7,15.6C19.8,16.2 19.2,16.8 18.5,16.8M18.5,12C16.6,12 15,13.6 15,15.5C15,18.1 18.5,22 18.5,22C18.5,22 22,18.1 22,15.5C22,13.6 20.4,12 18.5,12M14.9,11.3C14.6,10 13.4,9 12,9C10.3,9 9,10.3 9,12C9,13.7 10.3,15 12,15C12.4,15 12.7,14.9 13,14.8C13.2,13.4 13.9,12.2 14.9,11.3M13,16H7A2,2 0 0,0 5,14V10A2,2 0 0,0 7,8H17A2,2 0 0,0 19,10C19,10 20,10 21,10.6V6H3V18H13.5C13.3,17.3 13.1,16.7 13,16Z" />
    </g>
    <g id="mdi-cash-minus" transform="translate(648 144) scale(1.5)" fill="#555">
      <path d="M15 15V17H23V15M14.97 11.61C14.85 10.28 13.59 8.97 12 9C10.3 9.03 9 10.3 9 12C9 13.7 10.3 14.94 12 15C12.38 15 12.77 14.92 13.14 14.77C13.41 13.67 13.86 12.63 14.97 11.61M13 16H7C7 14.9 6.11 14 5 14V10C6.11 10 7 9.11 7 8H17C17 9.11 17.9 10 19 10V10.06C19.67 10.06 20.34 10.18 21 10.4V6H3V18H13.32C13.1 17.33 13 16.66 13 16Z" />
    </g>
    <g id="mdi-cash-minus" transform="translate(684 144) scale(1.5)" fill="#fff">
      <path d="M15 15V17H23V15M14.97 11.61C14.85 10.28 13.59 8.97 12 9C10.3 9.03 9 10.3 9 12C9 13.7 10.3 14.94 12 15C12.38 15 12.77 14.92 13.14 14.77C13.41 13.67 13.86 12.63 14.97 11.61M13 16H7C7 14.9 6.11 14 5 14V10C6.11 10 7 9.11 7 8H17C17 9.11 17.9 10 19 10V10.06C19.67 10.06 20.34 10.18 21 10.4V6H3V18H13.32C13.1 17.33 13 16.66 13 16Z" />
    </g>
    <g id="mdi-cash-multiple" transform="translate(0 180) scale(1.5)" fill="#555">
      <path d="M5,6H23V18H5V6M14,9A3,3 0 0,1 17,12A3,3 0 0,1 14,15A3,3 0 0,1 11,12A3,3 0 0,1 14,9M9,8A2,2 0 0,1 7,10V14A2,2 0 0,1 9,16H19A2,2 0 0,1 21,14V10A2,2 0 0,1 19,8H9M1,10H3V20H19V22H1V10Z" />
    </g>
    <g id="mdi-cash-multiple" transform="translate(36 180) scale(1.5)" fill="#fff">
      <path d="M5,6H23V18H5V6M14,9A3,3 0 0,1 17,12A3,3 0 0,1 14,15A3,3 0 0,1 11,12A3,3 0 0,1 14,9M9,8A2,2 0 0,1 7,10V14A2,2 0 0,1 9,16H19A2,2 0 0,1 21,14V10A2,2 0 0,1 19,8H9M1,10H3V20H19V22H1V10Z" />
    </g>
    <g id="mdi-cash-plus" transform="translate(72 180) scale(1.5)" fill="#555">
      <path d="M15 15V17H18V20H20V17H23V15H20V12H18V15M14.97 11.61C14.85 10.28 13.59 8.97 12 9C10.3 9.03 9 10.3 9 12C9 13.7 10.3 14.94 12 15C12.38 15 12.77 14.92 13.14 14.77C13.41 13.67 13.86 12.63 14.97 11.61M13 16H7C7 14.9 6.11 14 5 14V10C6.11 10 7 9.11 7 8H17C17 9.11 17.9 10 19 10V10.06C19.67 10.06 20.34 10.18 21 10.4V6H3V18H13.32C13.1 17.33 13 16.66 13 16Z" />
    </g>
    <g id="mdi-cash-plus" transform="translate(108 180) scale(1.5)" fill="#fff">
      <path d="M15 15V17H18V20H20V17H23V15H20V12H18V15M14.97 11.61C14.85 10.28 13.59 8.97 12 9C10.3 9.03 9 10.3 9 12C9 13.7 10.3 14.94 12 15C12.38 15 12.77 14.92 13.14 14.77C13.41 13.67 13.86 12.63 14.97 11.61M13 16H7C7 14.9 6.11 14 5 14V10C6.11 10 7 9.11 7 8H17C17 9.11 17.9 10 19 10V10.06C19.67 10.06 20.34 10.18 21 10.4V6H3V18H13.32C13.1 17.33 13 16.66 13 16Z" />
    </g>
    <g id="mdi-cash-refund" transform="translate(144 180) scale(1.5)" fill="#555">
      <path d="M12.3 8.93L9.88 6.5H15.5V10H17V5H9.88L12.3 2.57L11.24 1.5L7 5.75L11.24 10L12.3 8.93M12 14A3 3 0 1 0 15 17A3 3 0 0 0 12 14M3 11V23H21V11M19 19A2 2 0 0 0 17 21H7A2 2 0 0 0 5 19V15A2 2 0 0 0 7 13H17A2 2 0 0 0 19 15Z" />
    </g>
    <g id="mdi-cash-refund" transform="translate(180 180) scale(1.5)" fill="#fff">
      <path d="M12.3 8.93L9.88 6.5H15.5V10H17V5H9.88L12.3 2.57L11.24 1.5L7 5.75L11.24 10L12.3 8.93M12 14A3 3 0 1 0 15 17A3 3 0 0 0 12 14M3 11V23H21V11M19 19A2 2 0 0 0 17 21H7A2 2 0 0 0 5 19V15A2 2 0 0 0 7 13H17A2 2 0 0 0 19 15Z" />
    </g>
    <g id="mdi-cash-register" transform="translate(216 180) scale(1.5)" fill="#555">
      <path d="M2,17H22V21H2V17M6.25,7H9V6H6V3H14V6H11V7H17.8C18.8,7 19.8,8 20,9L20.5,16H3.5L4.05,9C4.05,8 5.05,7 6.25,7M13,9V11H18V9H13M6,9V10H8V9H6M9,9V10H11V9H9M6,11V12H8V11H6M9,11V12H11V11H9M6,13V14H8V13H6M9,13V14H11V13H9M7,4V5H13V4H7Z" />
    </g>
    <g id="mdi-cash-register" transform="translate(252 180) scale(1.5)" fill="#fff">
      <path d="M2,17H22V21H2V17M6.25,7H9V6H6V3H14V6H11V7H17.8C18.8,7 19.8,8 20,9L20.5,16H3.5L4.05,9C4.05,8 5.05,7 6.25,7M13,9V11H18V9H13M6,9V10H8V9H6M9,9V10H11V9H9M6,11V12H8V11H6M9,11V12H11V11H9M6,13V14H8V13H6M9,13V14H11V13H9M7,4V5H13V4H7Z" />
    </g>
    <g id="mdi-cash-remove" transform="translate(288 180) scale(1.5)" fill="#555">
      <path d="M15.46 18.12L16.88 19.54L19 17.41L21.12 19.54L22.54 18.12L20.41 16L22.54 13.88L21.12 12.46L19 14.59L16.88 12.46L15.46 13.88L17.59 16M14.97 11.62C14.86 10.28 13.58 8.97 12 9C10.3 9.04 9 10.3 9 12C9 13.7 10.3 14.94 12 15C12.39 15 12.77 14.92 13.14 14.77C13.41 13.67 13.86 12.63 14.97 11.62M13 16H7C7 14.9 6.1 14 5 14V10C6.1 10 7 9.1 7 8H17C17 9.1 17.9 10 19 10V10.05C19.67 10.06 20.34 10.18 21 10.4V6H3V18H13.32C13.1 17.33 13 16.66 13 16Z" />
    </g>
    <g id="mdi-cash-remove" transform="translate(324 180) scale(1.5)" fill="#fff">
      <path d="M15.46 18.12L16.88 19.54L19 17.41L21.12 19.54L22.54 18.12L20.41 16L22.54 13.88L21.12 12.46L19 14.59L16.88 12.46L15.46 13.88L17.59 16M14.97 11.62C14.86 10.28 13.58 8.97 12 9C10.3 9.04 9 10.3 9 12C9 13.7 10.3 14.94 12 15C12.39 15 12.77 14.92 13.14 14.77C13.41 13.67 13.86 12.63 14.97 11.62M13 16H7C7 14.9 6.1 14 5 14V10C6.1 10 7 9.1 7 8H17C17 9.1 17.9 10 19 10V10.05C19.67 10.06 20.34 10.18 21 10.4V6H3V18H13.32C13.1 17.33 13 16.66 13 16Z" />
    </g>
    <g id="mdi-cash-usd" transform="translate(360 180) scale(1.5)" fill="#555">
      <path d="M20 4H4C2.89 4 2 4.89 2 6V18C2 19.11 2.9 20 4 20H20C21.11 20 22 19.11 22 18V6C22 4.89 21.1 4 20 4M15 10H11V11H14C14.55 11 15 11.45 15 12V15C15 15.55 14.55 16 14 16H13V17H11V16H9V14H13V13H10C9.45 13 9 12.55 9 12V9C9 8.45 9.45 8 10 8H11V7H13V8H15V10Z" />
    </g>
    <g id="mdi-cash-usd" transform="translate(396 180) scale(1.5)" fill="#fff">
      <path d="M20 4H4C2.89 4 2 4.89 2 6V18C2 19.11 2.9 20 4 20H20C21.11 20 22 19.11 22 18V6C22 4.89 21.1 4 20 4M15 10H11V11H14C14.55 11 15 11.45 15 12V15C15 15.55 14.55 16 14 16H13V17H11V16H9V14H13V13H10C9.45 13 9 12.55 9 12V9C9 8.45 9.45 8 10 8H11V7H13V8H15V10Z" />
    </g>
    <g id="mdi-cash-usd-outline" transform="translate(432 180) scale(1.5)" fill="#555">
      <path d="M20,18H4V6H20M20,4H4C2.89,4 2,4.89 2,6V18A2,2 0 0,0 4,20H20A2,2 0 0,0 22,18V6C22,4.89 21.1,4 20,4M11,17H13V16H14A1,1 0 0,0 15,15V12A1,1 0 0,0 14,11H11V10H15V8H13V7H11V8H10A1,1 0 0,0 9,9V12A1,1 0 0,0 10,13H13V14H9V16H11V17Z" />
    </g>
    <g id="mdi-cash-usd-outline" transform="translate(468 180) scale(1.5)" fill="#fff">
      <path d="M20,18H4V6H20M20,4H4C2.89,4 2,4.89 2,6V18A2,2 0 0,0 4,20H20A2,2 0 0,0 22,18V6C22,4.89 21.1,4 20,4M11,17H13V16H14A1,1 0 0,0 15,15V12A1,1 0 0,0 14,11H11V10H15V8H13V7H11V8H10A1,1 0 0,0 9,9V12A1,1 0 0,0 10,13H13V14H9V16H11V17Z" />
    </g>
    <g id="mdi-cassette" transform="translate(504 180) scale(1.5)" fill="#555">
      <path d="M4,5A2,2 0 0,0 2,7V17A2,2 0 0,0 4,19H6L7,17H17L18,19H20A2,2 0 0,0 22,17V7A2,2 0 0,0 20,5H4M6.5,10A1.5,1.5 0 0,1 8,11.5A1.5,1.5 0 0,1 6.5,13A1.5,1.5 0 0,1 5,11.5A1.5,1.5 0 0,1 6.5,10M9,10H15V13H9V10M17.5,10A1.5,1.5 0 0,1 19,11.5A1.5,1.5 0 0,1 17.5,13A1.5,1.5 0 0,1 16,11.5A1.5,1.5 0 0,1 17.5,10Z" />
    </g>
    <g id="mdi-cassette" transform="translate(540 180) scale(1.5)" fill="#fff">
      <path d="M4,5A2,2 0 0,0 2,7V17A2,2 0 0,0 4,19H6L7,17H17L18,19H20A2,2 0 0,0 22,17V7A2,2 0 0,0 20,5H4M6.5,10A1.5,1.5 0 0,1 8,11.5A1.5,1.5 0 0,1 6.5,13A1.5,1.5 0 0,1 5,11.5A1.5,1.5 0 0,1 6.5,10M9,10H15V13H9V10M17.5,10A1.5,1.5 0 0,1 19,11.5A1.5,1.5 0 0,1 17.5,13A1.5,1.5 0 0,1 16,11.5A1.5,1.5 0 0,1 17.5,10Z" />
    </g>
    <g id="mdi-cast" transform="translate(576 180) scale(1.5)" fill="#555">
      <path d="M1,10V12A9,9 0 0,1 10,21H12C12,14.92 7.07,10 1,10M1,14V16A5,5 0 0,1 6,21H8A7,7 0 0,0 1,14M1,18V21H4A3,3 0 0,0 1,18M21,3H3C1.89,3 1,3.89 1,5V8H3V5H21V19H14V21H21A2,2 0 0,0 23,19V5C23,3.89 22.1,3 21,3Z" />
    </g>
    <g id="mdi-cast" transform="translate(612 180) scale(1.5)" fill="#fff">
      <path d="M1,10V12A9,9 0 0,1 10,21H12C12,14.92 7.07,10 1,10M1,14V16A5,5 0 0,1 6,21H8A7,7 0 0,0 1,14M1,18V21H4A3,3 0 0,0 1,18M21,3H3C1.89,3 1,3.89 1,5V8H3V5H21V19H14V21H21A2,2 0 0,0 23,19V5C23,3.89 22.1,3 21,3Z" />
    </g>
    <g id="mdi-cast-audio" transform="translate(648 180) scale(1.5)" fill="#555">
      <path d="M2 11V13C7 13 11 17 11 22H13C13 15.9 8.1 11 2 11M20 2H10C8.9 2 8 2.9 8 4V10.5C9 11 9.9 11.7 10.7 12.4C11.6 11 13.2 10 15 10C17.8 10 20 12.2 20 15S17.8 20 15 20H14.8C14.9 20.7 15 21.3 15 22H20C21.1 22 22 21.1 22 20V4C22 2.9 21.1 2 20 2M15 8C13.9 8 13 7.1 13 6C13 4.9 13.9 4 15 4C16.1 4 17 4.9 17 6S16.1 8 15 8M15 18C14.8 18 14.5 18 14.3 17.9C13.8 16.4 13.1 15.1 12.2 13.9C12.6 12.8 13.7 11.9 15 11.9C16.7 11.9 18 13.2 18 14.9S16.7 18 15 18M2 15V17C4.8 17 7 19.2 7 22H9C9 18.1 5.9 15 2 15M2 19V22H5C5 20.3 3.7 19 2 19" />
    </g>
    <g id="mdi-cast-audio" transform="translate(684 180) scale(1.5)" fill="#fff">
      <path d="M2 11V13C7 13 11 17 11 22H13C13 15.9 8.1 11 2 11M20 2H10C8.9 2 8 2.9 8 4V10.5C9 11 9.9 11.7 10.7 12.4C11.6 11 13.2 10 15 10C17.8 10 20 12.2 20 15S17.8 20 15 20H14.8C14.9 20.7 15 21.3 15 22H20C21.1 22 22 21.1 22 20V4C22 2.9 21.1 2 20 2M15 8C13.9 8 13 7.1 13 6C13 4.9 13.9 4 15 4C16.1 4 17 4.9 17 6S16.1 8 15 8M15 18C14.8 18 14.5 18 14.3 17.9C13.8 16.4 13.1 15.1 12.2 13.9C12.6 12.8 13.7 11.9 15 11.9C16.7 11.9 18 13.2 18 14.9S16.7 18 15 18M2 15V17C4.8 17 7 19.2 7 22H9C9 18.1 5.9 15 2 15M2 19V22H5C5 20.3 3.7 19 2 19" />
    </g>
    <g id="mdi-cast-connected" transform="translate(0 216) scale(1.5)" fill="#555">
      <path d="M21,3H3C1.89,3 1,3.89 1,5V8H3V5H21V19H14V21H21A2,2 0 0,0 23,19V5C23,3.89 22.1,3 21,3M1,10V12A9,9 0 0,1 10,21H12C12,14.92 7.07,10 1,10M19,7H5V8.63C8.96,9.91 12.09,13.04 13.37,17H19M1,14V16A5,5 0 0,1 6,21H8A7,7 0 0,0 1,14M1,18V21H4A3,3 0 0,0 1,18Z" />
    </g>
    <g id="mdi-cast-connected" transform="translate(36 216) scale(1.5)" fill="#fff">
      <path d="M21,3H3C1.89,3 1,3.89 1,5V8H3V5H21V19H14V21H21A2,2 0 0,0 23,19V5C23,3.89 22.1,3 21,3M1,10V12A9,9 0 0,1 10,21H12C12,14.92 7.07,10 1,10M19,7H5V8.63C8.96,9.91 12.09,13.04 13.37,17H19M1,14V16A5,5 0 0,1 6,21H8A7,7 0 0,0 1,14M1,18V21H4A3,3 0 0,0 1,18Z" />
    </g>
    <g id="mdi-cast-education" transform="translate(72 216) scale(1.5)" fill="#555">
      <path d="M21,3H3A2,2 0 0,0 1,5V8H3V5H21V19H14V21H21A2,2 0 0,0 23,19V5A2,2 0 0,0 21,3M1,18V21H4A3,3 0 0,0 1,18M1,14V16A5,5 0 0,1 6,21H8A7,7 0 0,0 1,14M1,10V12A9,9 0 0,1 10,21H12C12,14.92 7.07,10 1,10M11,11.09V13.09L14.5,15L18,13.09V11.09L14.5,13L11,11.09M14.5,6L9,9L14.5,12L20,9L14.5,6Z" />
    </g>
    <g id="mdi-cast-education" transform="translate(108 216) scale(1.5)" fill="#fff">
      <path d="M21,3H3A2,2 0 0,0 1,5V8H3V5H21V19H14V21H21A2,2 0 0,0 23,19V5A2,2 0 0,0 21,3M1,18V21H4A3,3 0 0,0 1,18M1,14V16A5,5 0 0,1 6,21H8A7,7 0 0,0 1,14M1,10V12A9,9 0 0,1 10,21H12C12,14.92 7.07,10 1,10M11,11.09V13.09L14.5,15L18,13.09V11.09L14.5,13L11,11.09M14.5,6L9,9L14.5,12L20,9L14.5,6Z" />
    </g>
    <g id="mdi-cast-off" transform="translate(144 216) scale(1.5)" fill="#555">
      <path d="M1.6,1.27L0.25,2.75L1.41,3.8C1.16,4.13 1,4.55 1,5V8H3V5.23L18.2,19H14V21H20.41L22.31,22.72L23.65,21.24M6.5,3L8.7,5H21V16.14L23,17.95V5C23,3.89 22.1,3 21,3M1,10V12A9,9 0 0,1 10,21H12C12,14.92 7.08,10 1,10M1,14V16A5,5 0 0,1 6,21H8A7,7 0 0,0 1,14M1,18V21H4A3,3 0 0,0 1,18Z" />
    </g>
    <g id="mdi-cast-off" transform="translate(180 216) scale(1.5)" fill="#fff">
      <path d="M1.6,1.27L0.25,2.75L1.41,3.8C1.16,4.13 1,4.55 1,5V8H3V5.23L18.2,19H14V21H20.41L22.31,22.72L23.65,21.24M6.5,3L8.7,5H21V16.14L23,17.95V5C23,3.89 22.1,3 21,3M1,10V12A9,9 0 0,1 10,21H12C12,14.92 7.08,10 1,10M1,14V16A5,5 0 0,1 6,21H8A7,7 0 0,0 1,14M1,18V21H4A3,3 0 0,0 1,18Z" />
    </g>
    <g id="mdi-castle" transform="translate(216 216) scale(1.5)" fill="#555">
      <path d="M2,13H4V15H6V13H8V15H10V13H12V15H14V10L17,7V1H19L23,3L19,5V7L22,10V22H11V19A2,2 0 0,0 9,17A2,2 0 0,0 7,19V22H2V13M18,10C17.45,10 17,10.54 17,11.2V13H19V11.2C19,10.54 18.55,10 18,10Z" />
    </g>
    <g id="mdi-castle" transform="translate(252 216) scale(1.5)" fill="#fff">
      <path d="M2,13H4V15H6V13H8V15H10V13H12V15H14V10L17,7V1H19L23,3L19,5V7L22,10V22H11V19A2,2 0 0,0 9,17A2,2 0 0,0 7,19V22H2V13M18,10C17.45,10 17,10.54 17,11.2V13H19V11.2C19,10.54 18.55,10 18,10Z" />
    </g>
    <g id="mdi-cat" transform="translate(288 216) scale(1.5)" fill="#555">
      <path d="M12,8L10.67,8.09C9.81,7.07 7.4,4.5 5,4.5C5,4.5 3.03,7.46 4.96,11.41C4.41,12.24 4.07,12.67 4,13.66L2.07,13.95L2.28,14.93L4.04,14.67L4.18,15.38L2.61,16.32L3.08,17.21L4.53,16.32C5.68,18.76 8.59,20 12,20C15.41,20 18.32,18.76 19.47,16.32L20.92,17.21L21.39,16.32L19.82,15.38L19.96,14.67L21.72,14.93L21.93,13.95L20,13.66C19.93,12.67 19.59,12.24 19.04,11.41C20.97,7.46 19,4.5 19,4.5C16.6,4.5 14.19,7.07 13.33,8.09L12,8M9,11A1,1 0 0,1 10,12A1,1 0 0,1 9,13A1,1 0 0,1 8,12A1,1 0 0,1 9,11M15,11A1,1 0 0,1 16,12A1,1 0 0,1 15,13A1,1 0 0,1 14,12A1,1 0 0,1 15,11M11,14H13L12.3,15.39C12.5,16.03 13.06,16.5 13.75,16.5A1.5,1.5 0 0,0 15.25,15H15.75A2,2 0 0,1 13.75,17C13,17 12.35,16.59 12,16V16H12C11.65,16.59 11,17 10.25,17A2,2 0 0,1 8.25,15H8.75A1.5,1.5 0 0,0 10.25,16.5C10.94,16.5 11.5,16.03 11.7,15.39L11,14Z" />
    </g>
    <g id="mdi-cat" transform="translate(324 216) scale(1.5)" fill="#fff">
      <path d="M12,8L10.67,8.09C9.81,7.07 7.4,4.5 5,4.5C5,4.5 3.03,7.46 4.96,11.41C4.41,12.24 4.07,12.67 4,13.66L2.07,13.95L2.28,14.93L4.04,14.67L4.18,15.38L2.61,16.32L3.08,17.21L4.53,16.32C5.68,18.76 8.59,20 12,20C15.41,20 18.32,18.76 19.47,16.32L20.92,17.21L21.39,16.32L19.82,15.38L19.96,14.67L21.72,14.93L21.93,13.95L20,13.66C19.93,12.67 19.59,12.24 19.04,11.41C20.97,7.46 19,4.5 19,4.5C16.6,4.5 14.19,7.07 13.33,8.09L12,8M9,11A1,1 0 0,1 10,12A1,1 0 0,1 9,13A1,1 0 0,1 8,12A1,1 0 0,1 9,11M15,11A1,1 0 0,1 16,12A1,1 0 0,1 15,13A1,1 0 0,1 14,12A1,1 0 0,1 15,11M11,14H13L12.3,15.39C12.5,16.03 13.06,16.5 13.75,16.5A1.5,1.5 0 0,0 15.25,15H15.75A2,2 0 0,1 13.75,17C13,17 12.35,16.59 12,16V16H12C11.65,16.59 11,17 10.25,17A2,2 0 0,1 8.25,15H8.75A1.5,1.5 0 0,0 10.25,16.5C10.94,16.5 11.5,16.03 11.7,15.39L11,14Z" />
    </g>
    <g id="mdi-cctv" transform="translate(360 216) scale(1.5)" fill="#555">
      <path d="M18.15,4.94C17.77,4.91 17.37,5 17,5.2L8.35,10.2C7.39,10.76 7.07,12 7.62,12.94L9.12,15.53C9.67,16.5 10.89,16.82 11.85,16.27L13.65,15.23C13.92,15.69 14.32,16.06 14.81,16.27V18.04C14.81,19.13 15.7,20 16.81,20H22V18.04H16.81V16.27C17.72,15.87 18.31,14.97 18.31,14C18.31,13.54 18.19,13.11 17.97,12.73L20.5,11.27C21.47,10.71 21.8,9.5 21.24,8.53L19.74,5.94C19.4,5.34 18.79,5 18.15,4.94M6.22,13.17L2,13.87L2.75,15.17L4.75,18.63L5.5,19.93L8.22,16.63L6.22,13.17Z" />
    </g>
    <g id="mdi-cctv" transform="translate(396 216) scale(1.5)" fill="#fff">
      <path d="M18.15,4.94C17.77,4.91 17.37,5 17,5.2L8.35,10.2C7.39,10.76 7.07,12 7.62,12.94L9.12,15.53C9.67,16.5 10.89,16.82 11.85,16.27L13.65,15.23C13.92,15.69 14.32,16.06 14.81,16.27V18.04C14.81,19.13 15.7,20 16.81,20H22V18.04H16.81V16.27C17.72,15.87 18.31,14.97 18.31,14C18.31,13.54 18.19,13.11 17.97,12.73L20.5,11.27C21.47,10.71 21.8,9.5 21.24,8.53L19.74,5.94C19.4,5.34 18.79,5 18.15,4.94M6.22,13.17L2,13.87L2.75,15.17L4.75,18.63L5.5,19.93L8.22,16.63L6.22,13.17Z" />
    </g>
    <g id="mdi-ceiling-light" transform="translate(432 216) scale(1.5)" fill="#555">
      <path d="M8,9H11V4H13V9H16L20,17H4L8,9M14,18A2,2 0 0,1 12,20A2,2 0 0,1 10,18H14Z" />
    </g>
    <g id="mdi-ceiling-light" transform="translate(468 216) scale(1.5)" fill="#fff">
      <path d="M8,9H11V4H13V9H16L20,17H4L8,9M14,18A2,2 0 0,1 12,20A2,2 0 0,1 10,18H14Z" />
    </g>
    <g id="mdi-cellphone" transform="translate(504 216) scale(1.5)" fill="#555">
      <path d="M17,19H7V5H17M17,1H7C5.89,1 5,1.89 5,3V21A2,2 0 0,0 7,23H17A2,2 0 0,0 19,21V3C19,1.89 18.1,1 17,1Z" />
    </g>
    <g id="mdi-cellphone" transform="translate(540 216) scale(1.5)" fill="#fff">
      <path d="M17,19H7V5H17M17,1H7C5.89,1 5,1.89 5,3V21A2,2 0 0,0 7,23H17A2,2 0 0,0 19,21V3C19,1.89 18.1,1 17,1Z" />
    </g>
    <g id="mdi-cellphone-android" transform="translate(576 216) scale(1.5)" fill="#555">
      <path d="M17.25,18H6.75V4H17.25M14,21H10V20H14M16,1H8A3,3 0 0,0 5,4V20A3,3 0 0,0 8,23H16A3,3 0 0,0 19,20V4A3,3 0 0,0 16,1Z" />
    </g>
    <g id="mdi-cellphone-android" transform="translate(612 216) scale(1.5)" fill="#fff">
      <path d="M17.25,18H6.75V4H17.25M14,21H10V20H14M16,1H8A3,3 0 0,0 5,4V20A3,3 0 0,0 8,23H16A3,3 0 0,0 19,20V4A3,3 0 0,0 16,1Z" />
    </g>
    <g id="mdi-cellphone-arrow-down" transform="translate(648 216) scale(1.5)" fill="#555">
      <path d="M17,1H7A2,2 0 0,0 5,3V21A2,2 0 0,0 7,23H17A2,2 0 0,0 19,21V3A2,2 0 0,0 17,1M17,19H7V5H17V19M16,13H13V8H11V13H8L12,17L16,13Z" />
    </g>
    <g id="mdi-cellphone-arrow-down" transform="translate(684 216) scale(1.5)" fill="#fff">
      <path d="M17,1H7A2,2 0 0,0 5,3V21A2,2 0 0,0 7,23H17A2,2 0 0,0 19,21V3A2,2 0 0,0 17,1M17,19H7V5H17V19M16,13H13V8H11V13H8L12,17L16,13Z" />
    </g>
    <g id="mdi-cellphone-basic" transform="translate(0 252) scale(1.5)" fill="#555">
      <path d="M15,2A1,1 0 0,0 14,3V6H10C8.89,6 8,6.89 8,8V20C8,21.11 8.89,22 10,22H15C16.11,22 17,21.11 17,20V8C17,7.26 16.6,6.62 16,6.28V3A1,1 0 0,0 15,2M10,8H15V13H10V8M10,15H11V16H10V15M12,15H13V16H12V15M14,15H15V16H14V15M10,17H11V18H10V17M12,17H13V18H12V17M14,17H15V18H14V17M10,19H11V20H10V19M12,19H13V20H12V19M14,19H15V20H14V19Z" />
    </g>
    <g id="mdi-cellphone-basic" transform="translate(36 252) scale(1.5)" fill="#fff">
      <path d="M15,2A1,1 0 0,0 14,3V6H10C8.89,6 8,6.89 8,8V20C8,21.11 8.89,22 10,22H15C16.11,22 17,21.11 17,20V8C17,7.26 16.6,6.62 16,6.28V3A1,1 0 0,0 15,2M10,8H15V13H10V8M10,15H11V16H10V15M12,15H13V16H12V15M14,15H15V16H14V15M10,17H11V18H10V17M12,17H13V18H12V17M14,17H15V18H14V17M10,19H11V20H10V19M12,19H13V20H12V19M14,19H15V20H14V19Z" />
    </g>
    <g id="mdi-cellphone-charging" transform="translate(72 252) scale(1.5)" fill="#555">
      <path d="M11 18.5V13H9L13 5.5V11H15M17 19H7V5H17M17 1H7C5.89 1 5 1.89 5 3V21A2 2 0 0 0 7 23H17A2 2 0 0 0 19 21V3C19 1.89 18.1 1 17 1Z" />
    </g>
    <g id="mdi-cellphone-charging" transform="translate(108 252) scale(1.5)" fill="#fff">
      <path d="M11 18.5V13H9L13 5.5V11H15M17 19H7V5H17M17 1H7C5.89 1 5 1.89 5 3V21A2 2 0 0 0 7 23H17A2 2 0 0 0 19 21V3C19 1.89 18.1 1 17 1Z" />
    </g>
    <g id="mdi-cellphone-cog" transform="translate(144 252) scale(1.5)" fill="#555">
      <path d="M9.82,12.5C9.84,12.33 9.86,12.17 9.86,12C9.86,11.83 9.84,11.67 9.82,11.5L10.9,10.69C11,10.62 11,10.5 10.96,10.37L9.93,8.64C9.87,8.53 9.73,8.5 9.62,8.53L8.34,9.03C8.07,8.83 7.78,8.67 7.47,8.54L7.27,7.21C7.27,7.09 7.16,7 7.03,7H5C4.85,7 4.74,7.09 4.72,7.21L4.5,8.53C4.21,8.65 3.92,8.83 3.65,9L2.37,8.5C2.25,8.47 2.12,8.5 2.06,8.63L1.03,10.36C0.97,10.5 1,10.61 1.1,10.69L2.18,11.5C2.16,11.67 2.15,11.84 2.15,12C2.15,12.17 2.17,12.33 2.19,12.5L1.1,13.32C1,13.39 1,13.53 1.04,13.64L2.07,15.37C2.13,15.5 2.27,15.5 2.38,15.5L3.66,15C3.93,15.18 4.22,15.34 4.53,15.47L4.73,16.79C4.74,16.91 4.85,17 5,17H7.04C7.17,17 7.28,16.91 7.29,16.79L7.5,15.47C7.8,15.35 8.09,15.17 8.36,15L9.64,15.5C9.76,15.53 9.89,15.5 9.95,15.37L11,13.64C11.04,13.53 11,13.4 10.92,13.32L9.82,12.5M6,13.75C5,13.75 4.2,12.97 4.2,12C4.2,11.03 5,10.25 6,10.25C7,10.25 7.8,11.03 7.8,12C7.8,12.97 7,13.75 6,13.75M17,1H7A2,2 0 0,0 5,3V6H7V4H17V20H7V18H5V21A2,2 0 0,0 7,23H17A2,2 0 0,0 19,21V3A2,2 0 0,0 17,1Z" />
    </g>
    <g id="mdi-cellphone-cog" transform="translate(180 252) scale(1.5)" fill="#fff">
      <path d="M9.82,12.5C9.84,12.33 9.86,12.17 9.86,12C9.86,11.83 9.84,11.67 9.82,11.5L10.9,10.69C11,10.62 11,10.5 10.96,10.37L9.93,8.64C9.87,8.53 9.73,8.5 9.62,8.53L8.34,9.03C8.07,8.83 7.78,8.67 7.47,8.54L7.27,7.21C7.27,7.09 7.16,7 7.03,7H5C4.85,7 4.74,7.09 4.72,7.21L4.5,8.53C4.21,8.65 3.92,8.83 3.65,9L2.37,8.5C2.25,8.47 2.12,8.5 2.06,8.63L1.03,10.36C0.97,10.5 1,10.61 1.1,10.69L2.18,11.5C2.16,11.67 2.15,11.84 2.15,12C2.15,12.17 2.17,12.33 2.19,12.5L1.1,13.32C1,13.39 1,13.53 1.04,13.64L2.07,15.37C2.13,15.5 2.27,15.5 2.38,15.5L3.66,15C3.93,15.18 4.22,15.34 4.53,15.47L4.73,16.79C4.74,16.91 4.85,17 5,17H7.04C7.17,17 7.28,16.91 7.29,16.79L7.5,15.47C7.8,15.35 8.09,15.17 8.36,15L9.64,15.5C9.76,15.53 9.89,15.5 9.95,15.37L11,13.64C11.04,13.53 11,13.4 10.92,13.32L9.82,12.5M6,13.75C5,13.75 4.2,12.97 4.2,12C4.2,11.03 5,10.25 6,10.25C7,10.25 7.8,11.03 7.8,12C7.8,12.97 7,13.75 6,13.75M17,1H7A2,2 0 0,0 5,3V6H7V4H17V20H7V18H5V21A2,2 0 0,0 7,23H17A2,2 0 0,0 19,21V3A2,2 0 0,0 17,1Z" />
    </g>
    <g id="mdi-cellphone-dock" transform="translate(216 252) scale(1.5)" fill="#555">
      <path d="M16,15H8V5H16M16,1H8C6.89,1 6,1.89 6,3V17A2,2 0 0,0 8,19H16A2,2 0 0,0 18,17V3C18,1.89 17.1,1 16,1M8,23H16V21H8V23Z" />
    </g>
    <g id="mdi-cellphone-dock" transform="translate(252 252) scale(1.5)" fill="#fff">
      <path d="M16,15H8V5H16M16,1H8C6.89,1 6,1.89 6,3V17A2,2 0 0,0 8,19H16A2,2 0 0,0 18,17V3C18,1.89 17.1,1 16,1M8,23H16V21H8V23Z" />
    </g>
    <g id="mdi-cellphone-erase" transform="translate(288 252) scale(1.5)" fill="#555">
      <path d="M11,8.2L10,7.2L6,11.2L2,7.2L1,8.2L5,12.2L1,16.2L2,17.2L6,13.2L10,17.2L11,16.2L7,12.2L11,8.2M17,1H7A2,2 0 0,0 5,3V6H7V4H17V20H7V18H5V21A2,2 0 0,0 7,23H17A2,2 0 0,0 19,21V3A2,2 0 0,0 17,1Z" />
    </g>
    <g id="mdi-cellphone-erase" transform="translate(324 252) scale(1.5)" fill="#fff">
      <path d="M11,8.2L10,7.2L6,11.2L2,7.2L1,8.2L5,12.2L1,16.2L2,17.2L6,13.2L10,17.2L11,16.2L7,12.2L11,8.2M17,1H7A2,2 0 0,0 5,3V6H7V4H17V20H7V18H5V21A2,2 0 0,0 7,23H17A2,2 0 0,0 19,21V3A2,2 0 0,0 17,1Z" />
    </g>
    <g id="mdi-cellphone-information" transform="translate(360 252) scale(1.5)" fill="#555">
      <path d="M13 7H11V9H13V7M13 11H11V17H13V11M17 1H7C5.9 1 5 1.9 5 3V21C5 22.1 5.9 23 7 23H17C18.1 23 19 22.1 19 21V3C19 1.9 18.1 1 17 1M17 19H7V5H17V19Z" />
    </g>
    <g id="mdi-cellphone-information" transform="translate(396 252) scale(1.5)" fill="#fff">
      <path d="M13 7H11V9H13V7M13 11H11V17H13V11M17 1H7C5.9 1 5 1.9 5 3V21C5 22.1 5.9 23 7 23H17C18.1 23 19 22.1 19 21V3C19 1.9 18.1 1 17 1M17 19H7V5H17V19Z" />
    </g>
    <g id="mdi-cellphone-iphone" transform="translate(432 252) scale(1.5)" fill="#555">
      <path d="M16,18H7V4H16M11.5,22A1.5,1.5 0 0,1 10,20.5A1.5,1.5 0 0,1 11.5,19A1.5,1.5 0 0,1 13,20.5A1.5,1.5 0 0,1 11.5,22M15.5,1H7.5A2.5,2.5 0 0,0 5,3.5V20.5A2.5,2.5 0 0,0 7.5,23H15.5A2.5,2.5 0 0,0 18,20.5V3.5A2.5,2.5 0 0,0 15.5,1Z" />
    </g>
    <g id="mdi-cellphone-iphone" transform="translate(468 252) scale(1.5)" fill="#fff">
      <path d="M16,18H7V4H16M11.5,22A1.5,1.5 0 0,1 10,20.5A1.5,1.5 0 0,1 11.5,19A1.5,1.5 0 0,1 13,20.5A1.5,1.5 0 0,1 11.5,22M15.5,1H7.5A2.5,2.5 0 0,0 5,3.5V20.5A2.5,2.5 0 0,0 7.5,23H15.5A2.5,2.5 0 0,0 18,20.5V3.5A2.5,2.5 0 0,0 15.5,1Z" />
    </g>
    <g id="mdi-cellphone-key" transform="translate(504 252) scale(1.5)" fill="#555">
      <path d="M7,1A2,2 0 0,0 5,3V7H7V4H17V20H7V17H5V21A2,2 0 0,0 7,23H17A2,2 0 0,0 19,21V3A2,2 0 0,0 17,1H7M6,9A3,3 0 0,0 3,12A3,3 0 0,0 6,15C7.31,15 8.42,14.17 8.83,13H11V15H13V13H14V11H8.83C8.42,9.83 7.31,9 6,9M6,11A1,1 0 0,1 7,12A1,1 0 0,1 6,13A1,1 0 0,1 5,12A1,1 0 0,1 6,11Z" />
    </g>
    <g id="mdi-cellphone-key" transform="translate(540 252) scale(1.5)" fill="#fff">
      <path d="M7,1A2,2 0 0,0 5,3V7H7V4H17V20H7V17H5V21A2,2 0 0,0 7,23H17A2,2 0 0,0 19,21V3A2,2 0 0,0 17,1H7M6,9A3,3 0 0,0 3,12A3,3 0 0,0 6,15C7.31,15 8.42,14.17 8.83,13H11V15H13V13H14V11H8.83C8.42,9.83 7.31,9 6,9M6,11A1,1 0 0,1 7,12A1,1 0 0,1 6,13A1,1 0 0,1 5,12A1,1 0 0,1 6,11Z" />
    </g>
    <g id="mdi-cellphone-link" transform="translate(576 252) scale(1.5)" fill="#555">
      <path d="M22,17H18V10H22M23,8H17A1,1 0 0,0 16,9V19A1,1 0 0,0 17,20H23A1,1 0 0,0 24,19V9A1,1 0 0,0 23,8M4,6H22V4H4A2,2 0 0,0 2,6V17H0V20H14V17H4V6Z" />
    </g>
    <g id="mdi-cellphone-link" transform="translate(612 252) scale(1.5)" fill="#fff">
      <path d="M22,17H18V10H22M23,8H17A1,1 0 0,0 16,9V19A1,1 0 0,0 17,20H23A1,1 0 0,0 24,19V9A1,1 0 0,0 23,8M4,6H22V4H4A2,2 0 0,0 2,6V17H0V20H14V17H4V6Z" />
    </g>
    <g id="mdi-cellphone-link-off" transform="translate(648 252) scale(1.5)" fill="#555">
      <path d="M23,8H17A1,1 0 0,0 16,9V13.18L18,15.18V10H22V17H19.82L22.82,20H23A1,1 0 0,0 24,19V9A1,1 0 0,0 23,8M4,6.27L14.73,17H4V6.27M1.92,1.65L0.65,2.92L2.47,4.74C2.18,5.08 2,5.5 2,6V17H0V20H17.73L20.08,22.35L21.35,21.08L3.89,3.62L1.92,1.65M22,6V4H6.82L8.82,6H22Z" />
    </g>
    <g id="mdi-cellphone-link-off" transform="translate(684 252) scale(1.5)" fill="#fff">
      <path d="M23,8H17A1,1 0 0,0 16,9V13.18L18,15.18V10H22V17H19.82L22.82,20H23A1,1 0 0,0 24,19V9A1,1 0 0,0 23,8M4,6.27L14.73,17H4V6.27M1.92,1.65L0.65,2.92L2.47,4.74C2.18,5.08 2,5.5 2,6V17H0V20H17.73L20.08,22.35L21.35,21.08L3.89,3.62L1.92,1.65M22,6V4H6.82L8.82,6H22Z" />
    </g>
    <g id="mdi-cellphone-lock" transform="translate(0 288) scale(1.5)" fill="#555">
      <path d="M17,1H7A2,2 0 0,0 5,3V6H7V4H17V20H7V18H5V21A2,2 0 0,0 7,23H17A2,2 0 0,0 19,21V3A2,2 0 0,0 17,1M8.8,11V9.5C8.8,8.1 7.4,7 6,7C4.6,7 3.2,8.1 3.2,9.5V11C2.6,11 2,11.6 2,12.2V15.7C2,16.4 2.6,17 3.2,17H8.7C9.4,17 10,16.4 10,15.8V12.3C10,11.6 9.4,11 8.8,11M7.5,11H4.5V9.5C4.5,8.7 5.2,8.2 6,8.2C6.8,8.2 7.5,8.7 7.5,9.5V11Z" />
    </g>
    <g id="mdi-cellphone-lock" transform="translate(36 288) scale(1.5)" fill="#fff">
      <path d="M17,1H7A2,2 0 0,0 5,3V6H7V4H17V20H7V18H5V21A2,2 0 0,0 7,23H17A2,2 0 0,0 19,21V3A2,2 0 0,0 17,1M8.8,11V9.5C8.8,8.1 7.4,7 6,7C4.6,7 3.2,8.1 3.2,9.5V11C2.6,11 2,11.6 2,12.2V15.7C2,16.4 2.6,17 3.2,17H8.7C9.4,17 10,16.4 10,15.8V12.3C10,11.6 9.4,11 8.8,11M7.5,11H4.5V9.5C4.5,8.7 5.2,8.2 6,8.2C6.8,8.2 7.5,8.7 7.5,9.5V11Z" />
    </g>
    <g id="mdi-cellphone-message" transform="translate(72 288) scale(1.5)" fill="#555">
      <path d="M11,17V7H4V17H11M11,3A2,2 0 0,1 13,5V19A2,2 0 0,1 11,21H4C2.89,21 2,20.1 2,19V5A2,2 0 0,1 4,3H11M16.5,3H21.5A1.5,1.5 0 0,1 23,4.5V7.5A1.5,1.5 0 0,1 21.5,9H18L15,12V9L15,4.5A1.5,1.5 0 0,1 16.5,3Z" />
    </g>
    <g id="mdi-cellphone-message" transform="translate(108 288) scale(1.5)" fill="#fff">
      <path d="M11,17V7H4V17H11M11,3A2,2 0 0,1 13,5V19A2,2 0 0,1 11,21H4C2.89,21 2,20.1 2,19V5A2,2 0 0,1 4,3H11M16.5,3H21.5A1.5,1.5 0 0,1 23,4.5V7.5A1.5,1.5 0 0,1 21.5,9H18L15,12V9L15,4.5A1.5,1.5 0 0,1 16.5,3Z" />
    </g>
    <g id="mdi-cellphone-message-off" transform="translate(144 288) scale(1.5)" fill="#555">
      <path d="M2.39 1.73L1.11 3L2.22 4.11C2.08 4.38 2 4.68 2 5V19C2 20.1 2.89 21 4 21H11C12.1 21 13 20.1 13 19V14.89L20.84 22.73L22.11 21.46L2.39 1.73M11 17H4V7H5.11L11 12.89V17M23 4.5V7.5C23 8.33 22.33 9 21.5 9H18L15.1 11.9L15 11.8V4.5C15 3.67 15.67 3 16.5 3H21.5C22.33 3 23 3.67 23 4.5M10.2 7L6.2 3H11C12.1 3 13 3.9 13 5V9.8L11 7.8V7H10.2" />
    </g>
    <g id="mdi-cellphone-message-off" transform="translate(180 288) scale(1.5)" fill="#fff">
      <path d="M2.39 1.73L1.11 3L2.22 4.11C2.08 4.38 2 4.68 2 5V19C2 20.1 2.89 21 4 21H11C12.1 21 13 20.1 13 19V14.89L20.84 22.73L22.11 21.46L2.39 1.73M11 17H4V7H5.11L11 12.89V17M23 4.5V7.5C23 8.33 22.33 9 21.5 9H18L15.1 11.9L15 11.8V4.5C15 3.67 15.67 3 16.5 3H21.5C22.33 3 23 3.67 23 4.5M10.2 7L6.2 3H11C12.1 3 13 3.9 13 5V9.8L11 7.8V7H10.2" />
    </g>
    <g id="mdi-cellphone-nfc" transform="translate(216 288) scale(1.5)" fill="#555">
      <path d="M2,16V18A5,5 0 0,1 7,23H9A7,7 0 0,0 2,16M2,20V23H5A3,3 0 0,0 2,20M2,12V14A9,9 0 0,1 11,23H13C13,16.92 8.08,12 2,12M17,1H7A2,2 0 0,0 5,3V10.37C5.69,10.53 6.36,10.74 7,11V5H17V18H13.97C14.5,19.25 14.81,20.59 14.92,22H17A2,2 0 0,0 19,20V3A2,2 0 0,0 17,1Z" />
    </g>
    <g id="mdi-cellphone-nfc" transform="translate(252 288) scale(1.5)" fill="#fff">
      <path d="M2,16V18A5,5 0 0,1 7,23H9A7,7 0 0,0 2,16M2,20V23H5A3,3 0 0,0 2,20M2,12V14A9,9 0 0,1 11,23H13C13,16.92 8.08,12 2,12M17,1H7A2,2 0 0,0 5,3V10.37C5.69,10.53 6.36,10.74 7,11V5H17V18H13.97C14.5,19.25 14.81,20.59 14.92,22H17A2,2 0 0,0 19,20V3A2,2 0 0,0 17,1Z" />
    </g>
    <g id="mdi-cellphone-nfc-off" transform="translate(288 288) scale(1.5)" fill="#555">
      <path d="M20.84 22.73L18.85 20.74C18.56 21.5 17.84 22 17 22H14.92C14.81 20.59 14.5 19.25 13.97 18H16.11L7 8.89V11C6.36 10.74 5.69 10.53 5 10.37V6.89L1.11 3L2.39 1.73L22.11 21.46L20.84 22.73M17 5V13.8L19 15.8V3C19 1.9 18.11 1 17 1H7C6.24 1 5.59 1.43 5.25 2.05L8.2 5H17M2 20V23H5C5 21.34 3.66 20 2 20M2 16V18C4.76 18 7 20.24 7 23H9C9 19.13 5.87 16 2 16M2 12V14C6.97 14 11 18.03 11 23H13C13 16.92 8.08 12 2 12Z" />
    </g>
    <g id="mdi-cellphone-nfc-off" transform="translate(324 288) scale(1.5)" fill="#fff">
      <path d="M20.84 22.73L18.85 20.74C18.56 21.5 17.84 22 17 22H14.92C14.81 20.59 14.5 19.25 13.97 18H16.11L7 8.89V11C6.36 10.74 5.69 10.53 5 10.37V6.89L1.11 3L2.39 1.73L22.11 21.46L20.84 22.73M17 5V13.8L19 15.8V3C19 1.9 18.11 1 17 1H7C6.24 1 5.59 1.43 5.25 2.05L8.2 5H17M2 20V23H5C5 21.34 3.66 20 2 20M2 16V18C4.76 18 7 20.24 7 23H9C9 19.13 5.87 16 2 16M2 12V14C6.97 14 11 18.03 11 23H13C13 16.92 8.08 12 2 12Z" />
    </g>
    <g id="mdi-cellphone-off" transform="translate(360 288) scale(1.5)" fill="#555">
      <path d="M2.38,1.73L1.11,3L5,6.89V21A2,2 0 0,0 7,23H17A2,2 0 0,0 19,21V20.89L20.84,22.73L22.11,21.46M17,19H7V8.89L17,18.89V19M17,5V13.8L19,15.8V3A2,2 0 0,0 17,1H7C6.28,1 5.6,1.37 5.24,2L8.24,5H17Z" />
    </g>
    <g id="mdi-cellphone-off" transform="translate(396 288) scale(1.5)" fill="#fff">
      <path d="M2.38,1.73L1.11,3L5,6.89V21A2,2 0 0,0 7,23H17A2,2 0 0,0 19,21V20.89L20.84,22.73L22.11,21.46M17,19H7V8.89L17,18.89V19M17,5V13.8L19,15.8V3A2,2 0 0,0 17,1H7C6.28,1 5.6,1.37 5.24,2L8.24,5H17Z" />
    </g>
    <g id="mdi-cellphone-play" transform="translate(432 288) scale(1.5)" fill="#555">
      <path d="M17 19H7V5H17M17 1H7C5.89 1 5 1.89 5 3V21C5 22.1 5.9 23 7 23H17C18.1 23 19 22.1 19 21V3C19 1.89 18.1 1 17 1M10 9V15L14 12L10 9Z" />
    </g>
    <g id="mdi-cellphone-play" transform="translate(468 288) scale(1.5)" fill="#fff">
      <path d="M17 19H7V5H17M17 1H7C5.89 1 5 1.89 5 3V21C5 22.1 5.9 23 7 23H17C18.1 23 19 22.1 19 21V3C19 1.89 18.1 1 17 1M10 9V15L14 12L10 9Z" />
    </g>
    <g id="mdi-cellphone-screenshot" transform="translate(504 288) scale(1.5)" fill="#555">
      <path d="M7,1A2,2 0 0,0 5,3V21A2,2 0 0,0 7,23H17A2,2 0 0,0 19,21V3A2,2 0 0,0 17,1H7M7,4H17V20H7V4M9,6V10H10.5V7.5H13V6H9M13.5,14V16.5H11V18H15V14H13.5Z" />
    </g>
    <g id="mdi-cellphone-screenshot" transform="translate(540 288) scale(1.5)" fill="#fff">
      <path d="M7,1A2,2 0 0,0 5,3V21A2,2 0 0,0 7,23H17A2,2 0 0,0 19,21V3A2,2 0 0,0 17,1H7M7,4H17V20H7V4M9,6V10H10.5V7.5H13V6H9M13.5,14V16.5H11V18H15V14H13.5Z" />
    </g>
    <g id="mdi-cellphone-settings" transform="translate(576 288) scale(1.5)" fill="#555">
      <path d="M16,16H8V4H16M16,0H8A2,2 0 0,0 6,2V18A2,2 0 0,0 8,20H16A2,2 0 0,0 18,18V2A2,2 0 0,0 16,0M15,24H17V22H15M11,24H13V22H11M7,24H9V22H7V24Z" />
    </g>
    <g id="mdi-cellphone-settings" transform="translate(612 288) scale(1.5)" fill="#fff">
      <path d="M16,16H8V4H16M16,0H8A2,2 0 0,0 6,2V18A2,2 0 0,0 8,20H16A2,2 0 0,0 18,18V2A2,2 0 0,0 16,0M15,24H17V22H15M11,24H13V22H11M7,24H9V22H7V24Z" />
    </g>
    <g id="mdi-cellphone-sound" transform="translate(648 288) scale(1.5)" fill="#555">
      <path d="M19.1,8.7C20.9,10.5 20.9,13.3 19.1,15.2L20.1,16.2C22.6,13.9 22.6,10.1 20.1,7.7L19.1,8.7M18,9.8L17,10.8C17.5,11.5 17.5,12.4 17,13.1L18,14.1C19.2,12.9 19.2,11.1 18,9.8M14,1H4A2,2 0 0,0 2,3V21A2,2 0 0,0 4,23H14A2,2 0 0,0 16,21V3A2,2 0 0,0 14,1M14,20H4V4H14V20Z" />
    </g>
    <g id="mdi-cellphone-sound" transform="translate(684 288) scale(1.5)" fill="#fff">
      <path d="M19.1,8.7C20.9,10.5 20.9,13.3 19.1,15.2L20.1,16.2C22.6,13.9 22.6,10.1 20.1,7.7L19.1,8.7M18,9.8L17,10.8C17.5,11.5 17.5,12.4 17,13.1L18,14.1C19.2,12.9 19.2,11.1 18,9.8M14,1H4A2,2 0 0,0 2,3V21A2,2 0 0,0 4,23H14A2,2 0 0,0 16,21V3A2,2 0 0,0 14,1M14,20H4V4H14V20Z" />
    </g>
    <g id="mdi-cellphone-text" transform="translate(0 324) scale(1.5)" fill="#555">
      <path d="M17,19V5H7V19H17M17,1A2,2 0 0,1 19,3V21A2,2 0 0,1 17,23H7C5.89,23 5,22.1 5,21V3C5,1.89 5.89,1 7,1H17M9,7H15V9H9V7M9,11H13V13H9V11Z" />
    </g>
    <g id="mdi-cellphone-text" transform="translate(36 324) scale(1.5)" fill="#fff">
      <path d="M17,19V5H7V19H17M17,1A2,2 0 0,1 19,3V21A2,2 0 0,1 17,23H7C5.89,23 5,22.1 5,21V3C5,1.89 5.89,1 7,1H17M9,7H15V9H9V7M9,11H13V13H9V11Z" />
    </g>
    <g id="mdi-cellphone-wireless" transform="translate(72 324) scale(1.5)" fill="#555">
      <path d="M20.07,4.93C21.88,6.74 23,9.24 23,12C23,14.76 21.88,17.26 20.07,19.07L18.66,17.66C20.11,16.22 21,14.22 21,12C21,9.79 20.11,7.78 18.66,6.34L20.07,4.93M17.24,7.76C18.33,8.85 19,10.35 19,12C19,13.65 18.33,15.15 17.24,16.24L15.83,14.83C16.55,14.11 17,13.11 17,12C17,10.89 16.55,9.89 15.83,9.17L17.24,7.76M13,10A2,2 0 0,1 15,12A2,2 0 0,1 13,14A2,2 0 0,1 11,12A2,2 0 0,1 13,10M11.5,1A2.5,2.5 0 0,1 14,3.5V8H12V4H3V19H12V16H14V20.5A2.5,2.5 0 0,1 11.5,23H3.5A2.5,2.5 0 0,1 1,20.5V3.5A2.5,2.5 0 0,1 3.5,1H11.5Z" />
    </g>
    <g id="mdi-cellphone-wireless" transform="translate(108 324) scale(1.5)" fill="#fff">
      <path d="M20.07,4.93C21.88,6.74 23,9.24 23,12C23,14.76 21.88,17.26 20.07,19.07L18.66,17.66C20.11,16.22 21,14.22 21,12C21,9.79 20.11,7.78 18.66,6.34L20.07,4.93M17.24,7.76C18.33,8.85 19,10.35 19,12C19,13.65 18.33,15.15 17.24,16.24L15.83,14.83C16.55,14.11 17,13.11 17,12C17,10.89 16.55,9.89 15.83,9.17L17.24,7.76M13,10A2,2 0 0,1 15,12A2,2 0 0,1 13,14A2,2 0 0,1 11,12A2,2 0 0,1 13,10M11.5,1A2.5,2.5 0 0,1 14,3.5V8H12V4H3V19H12V16H14V20.5A2.5,2.5 0 0,1 11.5,23H3.5A2.5,2.5 0 0,1 1,20.5V3.5A2.5,2.5 0 0,1 3.5,1H11.5Z" />
    </g>
    <g id="mdi-celtic-cross" transform="translate(144 324) scale(1.5)" fill="#555">
      <path d="M17.8,8C17.26,5.89 15.61,4.24 13.5,3.7V2H10.5V3.7C8.39,4.24 6.74,5.89 6.2,8H4V11H6.2C6.74,13.11 8.39,14.76 10.5,15.3V22H13.5V15.3C15.61,14.76 17.26,13.11 17.8,11H19.97V8H17.8M12.04,9.53L14.5,11H15.76C15.35,12.03 14.53,12.84 13.5,13.26V12L12.06,9.56L12,9.5L11.94,9.56L10.5,12V13.26C9.47,12.84 8.66,12.03 8.24,11H9.5L11.96,9.53L12,9.5H11.96L9.5,8H8.24C8.65,6.97 9.47,6.16 10.5,5.74V7L11.94,9.44L12,9.5L12.06,9.44L13.5,7V5.74C14.53,6.16 15.35,6.97 15.76,8H14.5L12.04,9.5H12L12.04,9.53Z" />
    </g>
    <g id="mdi-celtic-cross" transform="translate(180 324) scale(1.5)" fill="#fff">
      <path d="M17.8,8C17.26,5.89 15.61,4.24 13.5,3.7V2H10.5V3.7C8.39,4.24 6.74,5.89 6.2,8H4V11H6.2C6.74,13.11 8.39,14.76 10.5,15.3V22H13.5V15.3C15.61,14.76 17.26,13.11 17.8,11H19.97V8H17.8M12.04,9.53L14.5,11H15.76C15.35,12.03 14.53,12.84 13.5,13.26V12L12.06,9.56L12,9.5L11.94,9.56L10.5,12V13.26C9.47,12.84 8.66,12.03 8.24,11H9.5L11.96,9.53L12,9.5H11.96L9.5,8H8.24C8.65,6.97 9.47,6.16 10.5,5.74V7L11.94,9.44L12,9.5L12.06,9.44L13.5,7V5.74C14.53,6.16 15.35,6.97 15.76,8H14.5L12.04,9.5H12L12.04,9.53Z" />
    </g>
    <g id="mdi-centos" transform="translate(216 324) scale(1.5)" fill="#555">
      <path d="M19.07 14.93L22 12L19.07 9.07V4.93H14.93L12 2L9.07 4.93H4.93V9.07L2 12L4.93 14.93V19.07H9.07L12 22L14.93 19.07H19.07V14.93M21.41 12L19.07 14.34V12.46H13.69L13.23 12L13.69 11.54H19.07V9.66L21.41 12M18.66 14.76L17.32 16.09L14.11 12.87H18.66V14.76M12.46 13.1L12 12.65L11.54 13.1V12.46H10.9L11.36 12L10.9 11.54H11.54V10.9L12 11.36L12.46 10.9V11.54H13.1L12.65 12L13.1 12.46H12.46V13.1M14.11 11.13L17.32 7.91L18.66 9.24V11.13H14.11M18.66 5.35V8.65L17.32 7.32L13.5 11.13H12.87V10.5L16.68 6.68L15.35 5.35H18.66M12.87 9.89V5.35H14.76L16.09 6.68L12.87 9.89M12 2.59L14.34 4.93H12.46V10.31L12 10.77L11.54 10.31V4.93H9.66L12 2.59M11.13 9.89L7.91 6.68L9.24 5.35H11.13V9.89M5.35 5.35H8.65L7.32 6.68L11.13 10.5V11.13H10.5L6.68 7.32L5.35 8.65V5.35M5.35 9.24L6.68 7.91L9.89 11.13H5.35V9.24M2.59 12L4.93 9.66V11.54H10.31L10.77 12L10.31 12.46H4.93V14.34L2.59 12M9.89 12.87L6.68 16.09L5.35 14.76V12.87H9.89M5.35 18.66V15.35L6.68 16.68L10.5 12.87H11.13V13.5L7.32 17.32L8.65 18.65H5.35M11.13 14.11V18.66H9.24L7.91 17.32L11.13 14.11M12 21.41L9.66 19.07H11.54V13.69L12 13.23L12.46 13.69V19.07H14.34L12 21.41M12.87 14.11L16.09 17.32L14.76 18.66H12.87V14.11M15.35 18.66L16.68 17.32L12.87 13.5V12.87H13.5L17.32 16.68L18.65 15.35V18.66H15.35Z" />
    </g>
    <g id="mdi-centos" transform="translate(252 324) scale(1.5)" fill="#fff">
      <path d="M19.07 14.93L22 12L19.07 9.07V4.93H14.93L12 2L9.07 4.93H4.93V9.07L2 12L4.93 14.93V19.07H9.07L12 22L14.93 19.07H19.07V14.93M21.41 12L19.07 14.34V12.46H13.69L13.23 12L13.69 11.54H19.07V9.66L21.41 12M18.66 14.76L17.32 16.09L14.11 12.87H18.66V14.76M12.46 13.1L12 12.65L11.54 13.1V12.46H10.9L11.36 12L10.9 11.54H11.54V10.9L12 11.36L12.46 10.9V11.54H13.1L12.65 12L13.1 12.46H12.46V13.1M14.11 11.13L17.32 7.91L18.66 9.24V11.13H14.11M18.66 5.35V8.65L17.32 7.32L13.5 11.13H12.87V10.5L16.68 6.68L15.35 5.35H18.66M12.87 9.89V5.35H14.76L16.09 6.68L12.87 9.89M12 2.59L14.34 4.93H12.46V10.31L12 10.77L11.54 10.31V4.93H9.66L12 2.59M11.13 9.89L7.91 6.68L9.24 5.35H11.13V9.89M5.35 5.35H8.65L7.32 6.68L11.13 10.5V11.13H10.5L6.68 7.32L5.35 8.65V5.35M5.35 9.24L6.68 7.91L9.89 11.13H5.35V9.24M2.59 12L4.93 9.66V11.54H10.31L10.77 12L10.31 12.46H4.93V14.34L2.59 12M9.89 12.87L6.68 16.09L5.35 14.76V12.87H9.89M5.35 18.66V15.35L6.68 16.68L10.5 12.87H11.13V13.5L7.32 17.32L8.65 18.65H5.35M11.13 14.11V18.66H9.24L7.91 17.32L11.13 14.11M12 21.41L9.66 19.07H11.54V13.69L12 13.23L12.46 13.69V19.07H14.34L12 21.41M12.87 14.11L16.09 17.32L14.76 18.66H12.87V14.11M15.35 18.66L16.68 17.32L12.87 13.5V12.87H13.5L17.32 16.68L18.65 15.35V18.66H15.35Z" />
    </g>
    <g id="mdi-certificate" transform="translate(288 324) scale(1.5)" fill="#555">
      <path d="M4,3C2.89,3 2,3.89 2,5V15A2,2 0 0,0 4,17H12V22L15,19L18,22V17H20A2,2 0 0,0 22,15V8L22,6V5A2,2 0 0,0 20,3H16V3H4M12,5L15,7L18,5V8.5L21,10L18,11.5V15L15,13L12,15V11.5L9,10L12,8.5V5M4,5H9V7H4V5M4,9H7V11H4V9M4,13H9V15H4V13Z" />
    </g>
    <g id="mdi-certificate" transform="translate(324 324) scale(1.5)" fill="#fff">
      <path d="M4,3C2.89,3 2,3.89 2,5V15A2,2 0 0,0 4,17H12V22L15,19L18,22V17H20A2,2 0 0,0 22,15V8L22,6V5A2,2 0 0,0 20,3H16V3H4M12,5L15,7L18,5V8.5L21,10L18,11.5V15L15,13L12,15V11.5L9,10L12,8.5V5M4,5H9V7H4V5M4,9H7V11H4V9M4,13H9V15H4V13Z" />
    </g>
    <g id="mdi-certificate-outline" transform="translate(360 324) scale(1.5)" fill="#555">
      <path d="M13 21L15 20L17 21V14H13M17 9V7L15 8L13 7V9L11 10L13 11V13L15 12L17 13V11L19 10M20 3H4A2 2 0 0 0 2 5V15A2 2 0 0 0 4 17H11V15H4V5H20V15H19V17H20A2 2 0 0 0 22 15V5A2 2 0 0 0 20 3M11 8H5V6H11M9 11H5V9H9M11 14H5V12H11Z" />
    </g>
    <g id="mdi-certificate-outline" transform="translate(396 324) scale(1.5)" fill="#fff">
      <path d="M13 21L15 20L17 21V14H13M17 9V7L15 8L13 7V9L11 10L13 11V13L15 12L17 13V11L19 10M20 3H4A2 2 0 0 0 2 5V15A2 2 0 0 0 4 17H11V15H4V5H20V15H19V17H20A2 2 0 0 0 22 15V5A2 2 0 0 0 20 3M11 8H5V6H11M9 11H5V9H9M11 14H5V12H11Z" />
    </g>
    <g id="mdi-chair-rolling" transform="translate(432 324) scale(1.5)" fill="#555">
      <path d="M22 10V13H19V10H22M2 13H5V10H2V13M17 5C17 3.9 16.1 3 15 3H9C7.9 3 7 3.9 7 5V13H17V5M7 15H6V17H11V18L7 22H9.8L12 19.8L14.2 22H17L13 18V17H18V15H7Z" />
    </g>
    <g id="mdi-chair-rolling" transform="translate(468 324) scale(1.5)" fill="#fff">
      <path d="M22 10V13H19V10H22M2 13H5V10H2V13M17 5C17 3.9 16.1 3 15 3H9C7.9 3 7 3.9 7 5V13H17V5M7 15H6V17H11V18L7 22H9.8L12 19.8L14.2 22H17L13 18V17H18V15H7Z" />
    </g>
    <g id="mdi-chair-school" transform="translate(504 324) scale(1.5)" fill="#555">
      <path d="M22,5V7H17L13.53,12H16V14H14.46L18.17,22H15.97L15.04,20H6.38L5.35,22H3.1L7.23,14H7C6.55,14 6.17,13.7 6.04,13.3L2.87,3.84L3.82,3.5C4.34,3.34 4.91,3.63 5.08,4.15L7.72,12H12.1L15.57,7H12V5H22M9.5,14L7.42,18H14.11L12.26,14H9.5Z" />
    </g>
    <g id="mdi-chair-school" transform="translate(540 324) scale(1.5)" fill="#fff">
      <path d="M22,5V7H17L13.53,12H16V14H14.46L18.17,22H15.97L15.04,20H6.38L5.35,22H3.1L7.23,14H7C6.55,14 6.17,13.7 6.04,13.3L2.87,3.84L3.82,3.5C4.34,3.34 4.91,3.63 5.08,4.15L7.72,12H12.1L15.57,7H12V5H22M9.5,14L7.42,18H14.11L12.26,14H9.5Z" />
    </g>
    <g id="mdi-charity" transform="translate(576 324) scale(1.5)" fill="#555">
      <path d="M12.75,3.94C13.75,3.22 14.91,2.86 16.22,2.86C16.94,2.86 17.73,3.05 18.59,3.45C19.45,3.84 20.13,4.3 20.63,4.83C21.66,6.11 22.09,7.6 21.94,9.3C21.78,11 21.22,12.33 20.25,13.27L12.66,20.86C12.47,21.05 12.23,21.14 11.95,21.14C11.67,21.14 11.44,21.05 11.25,20.86C11.06,20.67 10.97,20.44 10.97,20.16C10.97,19.88 11.06,19.64 11.25,19.45L15.84,14.86C16.09,14.64 16.09,14.41 15.84,14.16C15.59,13.91 15.36,13.91 15.14,14.16L10.55,18.75C10.36,18.94 10.13,19.03 9.84,19.03C9.56,19.03 9.33,18.94 9.14,18.75C8.95,18.56 8.86,18.33 8.86,18.05C8.86,17.77 8.95,17.53 9.14,17.34L13.73,12.75C14,12.5 14,12.25 13.73,12C13.5,11.75 13.28,11.75 13.03,12L8.44,16.64C8.25,16.83 8,16.92 7.73,16.92C7.45,16.92 7.21,16.83 7,16.64C6.8,16.45 6.7,16.22 6.7,15.94C6.7,15.66 6.81,15.41 7.03,15.19L11.63,10.59C11.88,10.34 11.88,10.11 11.63,9.89C11.38,9.67 11.14,9.67 10.92,9.89L6.28,14.5C6.06,14.7 5.83,14.81 5.58,14.81C5.3,14.81 5.06,14.71 4.88,14.5C4.69,14.3 4.59,14.06 4.59,13.78C4.59,13.5 4.69,13.27 4.88,13.08C7.94,10 9.83,8.14 10.55,7.45L14.11,10.97C14.5,11.34 14.95,11.53 15.5,11.53C16.2,11.53 16.75,11.25 17.16,10.69C17.44,10.28 17.54,9.83 17.46,9.33C17.38,8.83 17.17,8.41 16.83,8.06L12.75,3.94M14.81,10.27L10.55,6L3.47,13.08C2.63,12.23 2.15,10.93 2.04,9.16C1.93,7.4 2.41,5.87 3.47,4.59C4.66,3.41 6.08,2.81 7.73,2.81C9.39,2.81 10.8,3.41 11.95,4.59L16.22,8.86C16.41,9.05 16.5,9.28 16.5,9.56C16.5,9.84 16.41,10.08 16.22,10.27C16.03,10.45 15.8,10.55 15.5,10.55C15.23,10.55 15,10.45 14.81,10.27V10.27Z" />
    </g>
    <g id="mdi-charity" transform="translate(612 324) scale(1.5)" fill="#fff">
      <path d="M12.75,3.94C13.75,3.22 14.91,2.86 16.22,2.86C16.94,2.86 17.73,3.05 18.59,3.45C19.45,3.84 20.13,4.3 20.63,4.83C21.66,6.11 22.09,7.6 21.94,9.3C21.78,11 21.22,12.33 20.25,13.27L12.66,20.86C12.47,21.05 12.23,21.14 11.95,21.14C11.67,21.14 11.44,21.05 11.25,20.86C11.06,20.67 10.97,20.44 10.97,20.16C10.97,19.88 11.06,19.64 11.25,19.45L15.84,14.86C16.09,14.64 16.09,14.41 15.84,14.16C15.59,13.91 15.36,13.91 15.14,14.16L10.55,18.75C10.36,18.94 10.13,19.03 9.84,19.03C9.56,19.03 9.33,18.94 9.14,18.75C8.95,18.56 8.86,18.33 8.86,18.05C8.86,17.77 8.95,17.53 9.14,17.34L13.73,12.75C14,12.5 14,12.25 13.73,12C13.5,11.75 13.28,11.75 13.03,12L8.44,16.64C8.25,16.83 8,16.92 7.73,16.92C7.45,16.92 7.21,16.83 7,16.64C6.8,16.45 6.7,16.22 6.7,15.94C6.7,15.66 6.81,15.41 7.03,15.19L11.63,10.59C11.88,10.34 11.88,10.11 11.63,9.89C11.38,9.67 11.14,9.67 10.92,9.89L6.28,14.5C6.06,14.7 5.83,14.81 5.58,14.81C5.3,14.81 5.06,14.71 4.88,14.5C4.69,14.3 4.59,14.06 4.59,13.78C4.59,13.5 4.69,13.27 4.88,13.08C7.94,10 9.83,8.14 10.55,7.45L14.11,10.97C14.5,11.34 14.95,11.53 15.5,11.53C16.2,11.53 16.75,11.25 17.16,10.69C17.44,10.28 17.54,9.83 17.46,9.33C17.38,8.83 17.17,8.41 16.83,8.06L12.75,3.94M14.81,10.27L10.55,6L3.47,13.08C2.63,12.23 2.15,10.93 2.04,9.16C1.93,7.4 2.41,5.87 3.47,4.59C4.66,3.41 6.08,2.81 7.73,2.81C9.39,2.81 10.8,3.41 11.95,4.59L16.22,8.86C16.41,9.05 16.5,9.28 16.5,9.56C16.5,9.84 16.41,10.08 16.22,10.27C16.03,10.45 15.8,10.55 15.5,10.55C15.23,10.55 15,10.45 14.81,10.27V10.27Z" />
    </g>
    <g id="mdi-chart-arc" transform="translate(648 324) scale(1.5)" fill="#555">
      <path d="M16.18,19.6L14.17,16.12C15.15,15.4 15.83,14.28 15.97,13H20C19.83,15.76 18.35,18.16 16.18,19.6M13,7.03V3C17.3,3.26 20.74,6.7 21,11H16.97C16.74,8.91 15.09,7.26 13,7.03M7,12.5C7,13.14 7.13,13.75 7.38,14.3L3.9,16.31C3.32,15.16 3,13.87 3,12.5C3,7.97 6.54,4.27 11,4V8.03C8.75,8.28 7,10.18 7,12.5M11.5,21C8.53,21 5.92,19.5 4.4,17.18L7.88,15.17C8.7,16.28 10,17 11.5,17C12.14,17 12.75,16.87 13.3,16.62L15.31,20.1C14.16,20.68 12.87,21 11.5,21Z" />
    </g>
    <g id="mdi-chart-arc" transform="translate(684 324) scale(1.5)" fill="#fff">
      <path d="M16.18,19.6L14.17,16.12C15.15,15.4 15.83,14.28 15.97,13H20C19.83,15.76 18.35,18.16 16.18,19.6M13,7.03V3C17.3,3.26 20.74,6.7 21,11H16.97C16.74,8.91 15.09,7.26 13,7.03M7,12.5C7,13.14 7.13,13.75 7.38,14.3L3.9,16.31C3.32,15.16 3,13.87 3,12.5C3,7.97 6.54,4.27 11,4V8.03C8.75,8.28 7,10.18 7,12.5M11.5,21C8.53,21 5.92,19.5 4.4,17.18L7.88,15.17C8.7,16.28 10,17 11.5,17C12.14,17 12.75,16.87 13.3,16.62L15.31,20.1C14.16,20.68 12.87,21 11.5,21Z" />
    </g>
  </svg>