<?xml version="1.0" encoding="UTF-8"?>
<!DOCTYPE svg PUBLIC "-//W3C//DTD SVG 1.1//EN" "http://www.w3.org/Graphics/SVG/1.1/DTD/svg11.dtd"><svg
  xmlns="http://www.w3.org/2000/svg" xmlns:xlink="http://www.w3.org/1999/xlink" version="1.1"
  width="720" height="900" viewBox="0 0 720 900">
    <g id="mdi-receipt" transform="translate(0 0) scale(1.5)" fill="#555">
      <path d="M3,22L4.5,20.5L6,22L7.5,20.5L9,22L10.5,20.5L12,22L13.5,20.5L15,22L16.5,20.5L18,22L19.5,20.5L21,22V2L19.5,3.5L18,2L16.5,3.5L15,2L13.5,3.5L12,2L10.5,3.5L9,2L7.5,3.5L6,2L4.5,3.5L3,2M18,9H6V7H18M18,13H6V11H18M18,17H6V15H18V17Z" />
    </g>
    <g id="mdi-receipt" transform="translate(36 0) scale(1.5)" fill="#fff">
      <path d="M3,22L4.5,20.5L6,22L7.5,20.5L9,22L10.5,20.5L12,22L13.5,20.5L15,22L16.5,20.5L18,22L19.5,20.5L21,22V2L19.5,3.5L18,2L16.5,3.5L15,2L13.5,3.5L12,2L10.5,3.5L9,2L7.5,3.5L6,2L4.5,3.5L3,2M18,9H6V7H18M18,13H6V11H18M18,17H6V15H18V17Z" />
    </g>
    <g id="mdi-record" transform="translate(72 0) scale(1.5)" fill="#555">
      <path d="M19,12C19,15.86 15.86,19 12,19C8.14,19 5,15.86 5,12C5,8.14 8.14,5 12,5C15.86,5 19,8.14 19,12Z" />
    </g>
    <g id="mdi-record" transform="translate(108 0) scale(1.5)" fill="#fff">
      <path d="M19,12C19,15.86 15.86,19 12,19C8.14,19 5,15.86 5,12C5,8.14 8.14,5 12,5C15.86,5 19,8.14 19,12Z" />
    </g>
    <g id="mdi-record-circle" transform="translate(144 0) scale(1.5)" fill="#555">
      <path d="M12,2A10,10 0 0,0 2,12A10,10 0 0,0 12,22A10,10 0 0,0 22,12A10,10 0 0,0 12,2M12,9A3,3 0 0,1 15,12A3,3 0 0,1 12,15A3,3 0 0,1 9,12A3,3 0 0,1 12,9Z" />
    </g>
    <g id="mdi-record-circle" transform="translate(180 0) scale(1.5)" fill="#fff">
      <path d="M12,2A10,10 0 0,0 2,12A10,10 0 0,0 12,22A10,10 0 0,0 22,12A10,10 0 0,0 12,2M12,9A3,3 0 0,1 15,12A3,3 0 0,1 12,15A3,3 0 0,1 9,12A3,3 0 0,1 12,9Z" />
    </g>
    <g id="mdi-record-circle-outline" transform="translate(216 0) scale(1.5)" fill="#555">
      <path d="M12,2A10,10 0 0,0 2,12A10,10 0 0,0 12,22A10,10 0 0,0 22,12A10,10 0 0,0 12,2M12,4A8,8 0 0,1 20,12A8,8 0 0,1 12,20A8,8 0 0,1 4,12A8,8 0 0,1 12,4M12,9A3,3 0 0,0 9,12A3,3 0 0,0 12,15A3,3 0 0,0 15,12A3,3 0 0,0 12,9Z" />
    </g>
    <g id="mdi-record-circle-outline" transform="translate(252 0) scale(1.5)" fill="#fff">
      <path d="M12,2A10,10 0 0,0 2,12A10,10 0 0,0 12,22A10,10 0 0,0 22,12A10,10 0 0,0 12,2M12,4A8,8 0 0,1 20,12A8,8 0 0,1 12,20A8,8 0 0,1 4,12A8,8 0 0,1 12,4M12,9A3,3 0 0,0 9,12A3,3 0 0,0 12,15A3,3 0 0,0 15,12A3,3 0 0,0 12,9Z" />
    </g>
    <g id="mdi-record-player" transform="translate(288 0) scale(1.5)" fill="#555">
      <path d="M5,17.5A0.5,0.5 0 0,1 4.5,18H3.5A0.5,0.5 0 0,1 3,17.5V17H2A1,1 0 0,1 1,16V13A1,1 0 0,1 2,12H19V10H7L6,11V9A1,1 0 0,1 7,8H19V7H21V8A1,1 0 0,1 22,9V10H21V12H22A1,1 0 0,1 23,13V16A1,1 0 0,1 22,17H21V17.5A0.5,0.5 0 0,1 20.5,18H19.5A0.5,0.5 0 0,1 19,17.5V17H5V17.5M3,14V15H5V14H3M6,14V15H8V14H6M20.5,13.5A1,1 0 0,0 19.5,14.5A1,1 0 0,0 20.5,15.5A1,1 0 0,0 21.5,14.5A1,1 0 0,0 20.5,13.5Z" />
    </g>
    <g id="mdi-record-player" transform="translate(324 0) scale(1.5)" fill="#fff">
      <path d="M5,17.5A0.5,0.5 0 0,1 4.5,18H3.5A0.5,0.5 0 0,1 3,17.5V17H2A1,1 0 0,1 1,16V13A1,1 0 0,1 2,12H19V10H7L6,11V9A1,1 0 0,1 7,8H19V7H21V8A1,1 0 0,1 22,9V10H21V12H22A1,1 0 0,1 23,13V16A1,1 0 0,1 22,17H21V17.5A0.5,0.5 0 0,1 20.5,18H19.5A0.5,0.5 0 0,1 19,17.5V17H5V17.5M3,14V15H5V14H3M6,14V15H8V14H6M20.5,13.5A1,1 0 0,0 19.5,14.5A1,1 0 0,0 20.5,15.5A1,1 0 0,0 21.5,14.5A1,1 0 0,0 20.5,13.5Z" />
    </g>
    <g id="mdi-record-rec" transform="translate(360 0) scale(1.5)" fill="#555">
      <path d="M12.5,5A7.5,7.5 0 0,0 5,12.5A7.5,7.5 0 0,0 12.5,20A7.5,7.5 0 0,0 20,12.5A7.5,7.5 0 0,0 12.5,5M7,10H9A1,1 0 0,1 10,11V12C10,12.5 9.62,12.9 9.14,12.97L10.31,15H9.15L8,13V15H7M12,10H14V11H12V12H14V13H12V14H14V15H12A1,1 0 0,1 11,14V11A1,1 0 0,1 12,10M16,10H18V11H16V14H18V15H16A1,1 0 0,1 15,14V11A1,1 0 0,1 16,10M8,11V12H9V11" />
    </g>
    <g id="mdi-record-rec" transform="translate(396 0) scale(1.5)" fill="#fff">
      <path d="M12.5,5A7.5,7.5 0 0,0 5,12.5A7.5,7.5 0 0,0 12.5,20A7.5,7.5 0 0,0 20,12.5A7.5,7.5 0 0,0 12.5,5M7,10H9A1,1 0 0,1 10,11V12C10,12.5 9.62,12.9 9.14,12.97L10.31,15H9.15L8,13V15H7M12,10H14V11H12V12H14V13H12V14H14V15H12A1,1 0 0,1 11,14V11A1,1 0 0,1 12,10M16,10H18V11H16V14H18V15H16A1,1 0 0,1 15,14V11A1,1 0 0,1 16,10M8,11V12H9V11" />
    </g>
    <g id="mdi-rectangle" transform="translate(432 0) scale(1.5)" fill="#555">
      <path d="M4,6V19H20V6H4Z" />
    </g>
    <g id="mdi-rectangle" transform="translate(468 0) scale(1.5)" fill="#fff">
      <path d="M4,6V19H20V6H4Z" />
    </g>
    <g id="mdi-rectangle-outline" transform="translate(504 0) scale(1.5)" fill="#555">
      <path d="M4,6V19H20V6H4M18,17H6V8H18V17Z" />
    </g>
    <g id="mdi-rectangle-outline" transform="translate(540 0) scale(1.5)" fill="#fff">
      <path d="M4,6V19H20V6H4M18,17H6V8H18V17Z" />
    </g>
    <g id="mdi-recycle" transform="translate(576 0) scale(1.5)" fill="#555">
      <path d="M21.82,15.42L19.32,19.75C18.83,20.61 17.92,21.06 17,21H15V23L12.5,18.5L15,14V16H17.82L15.6,12.15L19.93,9.65L21.73,12.77C22.25,13.54 22.32,14.57 21.82,15.42M9.21,3.06H14.21C15.19,3.06 16.04,3.63 16.45,4.45L17.45,6.19L19.18,5.19L16.54,9.6L11.39,9.69L13.12,8.69L11.71,6.24L9.5,10.09L5.16,7.59L6.96,4.47C7.37,3.64 8.22,3.06 9.21,3.06M5.05,19.76L2.55,15.43C2.06,14.58 2.13,13.56 2.64,12.79L3.64,11.06L1.91,10.06L7.05,10.14L9.7,14.56L7.97,13.56L6.56,16H11V21H7.4C6.47,21.07 5.55,20.61 5.05,19.76Z" />
    </g>
    <g id="mdi-recycle" transform="translate(612 0) scale(1.5)" fill="#fff">
      <path d="M21.82,15.42L19.32,19.75C18.83,20.61 17.92,21.06 17,21H15V23L12.5,18.5L15,14V16H17.82L15.6,12.15L19.93,9.65L21.73,12.77C22.25,13.54 22.32,14.57 21.82,15.42M9.21,3.06H14.21C15.19,3.06 16.04,3.63 16.45,4.45L17.45,6.19L19.18,5.19L16.54,9.6L11.39,9.69L13.12,8.69L11.71,6.24L9.5,10.09L5.16,7.59L6.96,4.47C7.37,3.64 8.22,3.06 9.21,3.06M5.05,19.76L2.55,15.43C2.06,14.58 2.13,13.56 2.64,12.79L3.64,11.06L1.91,10.06L7.05,10.14L9.7,14.56L7.97,13.56L6.56,16H11V21H7.4C6.47,21.07 5.55,20.61 5.05,19.76Z" />
    </g>
    <g id="mdi-recycle-variant" transform="translate(648 0) scale(1.5)" fill="#555">
      <path d="M7.17 7.91L8.9 8.91L12.08 3.42L14.33 7.31L11.73 8.81L17.19 10.27L18.66 4.81L16.06 6.31L13.81 2.41C13.26 1.45 12.03 1.12 11.08 1.68C10.81 1.83 10.58 2.05 10.41 2.31M10 20V18L3.66 18L5.9 14.1L8.5 15.6L7.04 10.14L1.57 11.6L4.17 13.1L1.92 17C1.37 17.96 1.7 19.18 2.65 19.73C2.92 19.89 3.22 19.97 3.54 20M19.06 11.5L17.32 12.5L20.5 18H16V15L12 19L16 23V20H20.5C21.61 20 22.5 19.11 22.5 18C22.5 17.69 22.42 17.38 22.28 17.11Z" />
    </g>
    <g id="mdi-recycle-variant" transform="translate(684 0) scale(1.5)" fill="#fff">
      <path d="M7.17 7.91L8.9 8.91L12.08 3.42L14.33 7.31L11.73 8.81L17.19 10.27L18.66 4.81L16.06 6.31L13.81 2.41C13.26 1.45 12.03 1.12 11.08 1.68C10.81 1.83 10.58 2.05 10.41 2.31M10 20V18L3.66 18L5.9 14.1L8.5 15.6L7.04 10.14L1.57 11.6L4.17 13.1L1.92 17C1.37 17.96 1.7 19.18 2.65 19.73C2.92 19.89 3.22 19.97 3.54 20M19.06 11.5L17.32 12.5L20.5 18H16V15L12 19L16 23V20H20.5C21.61 20 22.5 19.11 22.5 18C22.5 17.69 22.42 17.38 22.28 17.11Z" />
    </g>
    <g id="mdi-reddit" transform="translate(0 36) scale(1.5)" fill="#555">
      <path d="M14.5 15.41C14.58 15.5 14.58 15.69 14.5 15.8C13.77 16.5 12.41 16.56 12 16.56C11.61 16.56 10.25 16.5 9.54 15.8C9.44 15.69 9.44 15.5 9.54 15.41C9.65 15.31 9.82 15.31 9.92 15.41C10.38 15.87 11.33 16 12 16C12.69 16 13.66 15.87 14.1 15.41C14.21 15.31 14.38 15.31 14.5 15.41M10.75 13.04C10.75 12.47 10.28 12 9.71 12C9.14 12 8.67 12.47 8.67 13.04C8.67 13.61 9.14 14.09 9.71 14.08C10.28 14.08 10.75 13.61 10.75 13.04M14.29 12C13.72 12 13.25 12.5 13.25 13.05S13.72 14.09 14.29 14.09C14.86 14.09 15.33 13.61 15.33 13.05C15.33 12.5 14.86 12 14.29 12M22 12C22 17.5 17.5 22 12 22S2 17.5 2 12C2 6.5 6.5 2 12 2S22 6.5 22 12M18.67 12C18.67 11.19 18 10.54 17.22 10.54C16.82 10.54 16.46 10.7 16.2 10.95C15.2 10.23 13.83 9.77 12.3 9.71L12.97 6.58L15.14 7.05C15.16 7.6 15.62 8.04 16.18 8.04C16.75 8.04 17.22 7.57 17.22 7C17.22 6.43 16.75 5.96 16.18 5.96C15.77 5.96 15.41 6.2 15.25 6.55L12.82 6.03C12.75 6 12.68 6.03 12.63 6.07C12.57 6.11 12.54 6.17 12.53 6.24L11.79 9.72C10.24 9.77 8.84 10.23 7.82 10.96C7.56 10.71 7.2 10.56 6.81 10.56C6 10.56 5.35 11.21 5.35 12C5.35 12.61 5.71 13.11 6.21 13.34C6.19 13.5 6.18 13.62 6.18 13.78C6.18 16 8.79 17.85 12 17.85C15.23 17.85 17.85 16.03 17.85 13.78C17.85 13.64 17.84 13.5 17.81 13.34C18.31 13.11 18.67 12.6 18.67 12Z" />
    </g>
    <g id="mdi-reddit" transform="translate(36 36) scale(1.5)" fill="#fff">
      <path d="M14.5 15.41C14.58 15.5 14.58 15.69 14.5 15.8C13.77 16.5 12.41 16.56 12 16.56C11.61 16.56 10.25 16.5 9.54 15.8C9.44 15.69 9.44 15.5 9.54 15.41C9.65 15.31 9.82 15.31 9.92 15.41C10.38 15.87 11.33 16 12 16C12.69 16 13.66 15.87 14.1 15.41C14.21 15.31 14.38 15.31 14.5 15.41M10.75 13.04C10.75 12.47 10.28 12 9.71 12C9.14 12 8.67 12.47 8.67 13.04C8.67 13.61 9.14 14.09 9.71 14.08C10.28 14.08 10.75 13.61 10.75 13.04M14.29 12C13.72 12 13.25 12.5 13.25 13.05S13.72 14.09 14.29 14.09C14.86 14.09 15.33 13.61 15.33 13.05C15.33 12.5 14.86 12 14.29 12M22 12C22 17.5 17.5 22 12 22S2 17.5 2 12C2 6.5 6.5 2 12 2S22 6.5 22 12M18.67 12C18.67 11.19 18 10.54 17.22 10.54C16.82 10.54 16.46 10.7 16.2 10.95C15.2 10.23 13.83 9.77 12.3 9.71L12.97 6.58L15.14 7.05C15.16 7.6 15.62 8.04 16.18 8.04C16.75 8.04 17.22 7.57 17.22 7C17.22 6.43 16.75 5.96 16.18 5.96C15.77 5.96 15.41 6.2 15.25 6.55L12.82 6.03C12.75 6 12.68 6.03 12.63 6.07C12.57 6.11 12.54 6.17 12.53 6.24L11.79 9.72C10.24 9.77 8.84 10.23 7.82 10.96C7.56 10.71 7.2 10.56 6.81 10.56C6 10.56 5.35 11.21 5.35 12C5.35 12.61 5.71 13.11 6.21 13.34C6.19 13.5 6.18 13.62 6.18 13.78C6.18 16 8.79 17.85 12 17.85C15.23 17.85 17.85 16.03 17.85 13.78C17.85 13.64 17.84 13.5 17.81 13.34C18.31 13.11 18.67 12.6 18.67 12Z" />
    </g>
    <g id="mdi-redhat" transform="translate(72 36) scale(1.5)" fill="#555">
      <path d="M15.34 13.16C16.66 13.16 18.56 12.89 18.56 11.32C18.57 11.2 18.56 11.08 18.53 10.96L17.75 7.56C17.57 6.81 17.41 6.47 16.09 5.81C15.07 5.29 12.85 4.43 12.19 4.43C11.58 4.43 11.4 5.22 10.67 5.22C9.97 5.22 9.45 4.63 8.79 4.63C8.16 4.63 7.75 5.06 7.43 5.94C7.43 5.94 6.55 8.44 6.43 8.8C6.42 8.87 6.41 8.93 6.41 9C6.41 9.97 10.23 13.15 15.34 13.15M18.77 11.96C18.95 12.82 18.95 12.91 18.95 13C18.95 14.5 17.29 15.31 15.12 15.31C10.2 15.31 5.89 12.43 5.89 10.53C5.89 10.26 5.95 10 6.05 9.76C4.28 9.84 2 10.16 2 12.18C2 15.5 9.84 19.57 16.05 19.57C20.81 19.57 22 17.42 22 15.72C22 14.38 20.85 12.86 18.77 11.96" />
    </g>
    <g id="mdi-redhat" transform="translate(108 36) scale(1.5)" fill="#fff">
      <path d="M15.34 13.16C16.66 13.16 18.56 12.89 18.56 11.32C18.57 11.2 18.56 11.08 18.53 10.96L17.75 7.56C17.57 6.81 17.41 6.47 16.09 5.81C15.07 5.29 12.85 4.43 12.19 4.43C11.58 4.43 11.4 5.22 10.67 5.22C9.97 5.22 9.45 4.63 8.79 4.63C8.16 4.63 7.75 5.06 7.43 5.94C7.43 5.94 6.55 8.44 6.43 8.8C6.42 8.87 6.41 8.93 6.41 9C6.41 9.97 10.23 13.15 15.34 13.15M18.77 11.96C18.95 12.82 18.95 12.91 18.95 13C18.95 14.5 17.29 15.31 15.12 15.31C10.2 15.31 5.89 12.43 5.89 10.53C5.89 10.26 5.95 10 6.05 9.76C4.28 9.84 2 10.16 2 12.18C2 15.5 9.84 19.57 16.05 19.57C20.81 19.57 22 17.42 22 15.72C22 14.38 20.85 12.86 18.77 11.96" />
    </g>
    <g id="mdi-redo" transform="translate(144 36) scale(1.5)" fill="#555">
      <path d="M18.4,10.6C16.55,9 14.15,8 11.5,8C6.85,8 2.92,11.03 1.54,15.22L3.9,16C4.95,12.81 7.95,10.5 11.5,10.5C13.45,10.5 15.23,11.22 16.62,12.38L13,16H22V7L18.4,10.6Z" />
    </g>
    <g id="mdi-redo" transform="translate(180 36) scale(1.5)" fill="#fff">
      <path d="M18.4,10.6C16.55,9 14.15,8 11.5,8C6.85,8 2.92,11.03 1.54,15.22L3.9,16C4.95,12.81 7.95,10.5 11.5,10.5C13.45,10.5 15.23,11.22 16.62,12.38L13,16H22V7L18.4,10.6Z" />
    </g>
    <g id="mdi-redo-variant" transform="translate(216 36) scale(1.5)" fill="#555">
      <path d="M10.5,7A6.5,6.5 0 0,0 4,13.5A6.5,6.5 0 0,0 10.5,20H14V18H10.5C8,18 6,16 6,13.5C6,11 8,9 10.5,9H16.17L13.09,12.09L14.5,13.5L20,8L14.5,2.5L13.08,3.91L16.17,7H10.5M18,18H16V20H18V18Z" />
    </g>
    <g id="mdi-redo-variant" transform="translate(252 36) scale(1.5)" fill="#fff">
      <path d="M10.5,7A6.5,6.5 0 0,0 4,13.5A6.5,6.5 0 0,0 10.5,20H14V18H10.5C8,18 6,16 6,13.5C6,11 8,9 10.5,9H16.17L13.09,12.09L14.5,13.5L20,8L14.5,2.5L13.08,3.91L16.17,7H10.5M18,18H16V20H18V18Z" />
    </g>
    <g id="mdi-reflect-horizontal" transform="translate(288 36) scale(1.5)" fill="#555">
      <path d="M22,20H14A1,1 0 0,1 13,19V4.97C13,4.5 13.31,4.12 13.74,4C14.19,3.88 14.65,4.08 14.87,4.47L22.89,18.5C23.07,18.81 23.07,19.19 22.89,19.5C22.71,19.81 22.38,20 22,20M2,20C1.62,20 1.29,19.81 1.11,19.5C0.93,19.19 0.93,18.81 1.11,18.5L9.13,4.47C9.35,4.08 9.81,3.88 10.26,4C10.69,4.12 11,4.5 11,4.97V19A1,1 0 0,1 10,20H2M9,18V8.74L3.71,18H9Z" />
    </g>
    <g id="mdi-reflect-horizontal" transform="translate(324 36) scale(1.5)" fill="#fff">
      <path d="M22,20H14A1,1 0 0,1 13,19V4.97C13,4.5 13.31,4.12 13.74,4C14.19,3.88 14.65,4.08 14.87,4.47L22.89,18.5C23.07,18.81 23.07,19.19 22.89,19.5C22.71,19.81 22.38,20 22,20M2,20C1.62,20 1.29,19.81 1.11,19.5C0.93,19.19 0.93,18.81 1.11,18.5L9.13,4.47C9.35,4.08 9.81,3.88 10.26,4C10.69,4.12 11,4.5 11,4.97V19A1,1 0 0,1 10,20H2M9,18V8.74L3.71,18H9Z" />
    </g>
    <g id="mdi-reflect-vertical" transform="translate(360 36) scale(1.5)" fill="#555">
      <path d="M18,23H6C5.61,23 5.26,22.79 5.09,22.45C4.92,22.11 4.96,21.7 5.19,21.4L11.2,13.38C11.58,12.87 12.42,12.87 12.8,13.38L18.81,21.4C19.04,21.7 19.08,22.11 18.91,22.45C18.74,22.79 18.39,23 18,23M18,1C18.39,1 18.74,1.21 18.91,1.55C19.08,1.89 19.04,2.3 18.81,2.6L12.8,10.62C12.42,11.13 11.58,11.13 11.2,10.62L5.19,2.6C4.96,2.3 4.92,1.89 5.09,1.55C5.26,1.21 5.61,1 6,1H18M8,3L12,8.35L16,3H8Z" />
    </g>
    <g id="mdi-reflect-vertical" transform="translate(396 36) scale(1.5)" fill="#fff">
      <path d="M18,23H6C5.61,23 5.26,22.79 5.09,22.45C4.92,22.11 4.96,21.7 5.19,21.4L11.2,13.38C11.58,12.87 12.42,12.87 12.8,13.38L18.81,21.4C19.04,21.7 19.08,22.11 18.91,22.45C18.74,22.79 18.39,23 18,23M18,1C18.39,1 18.74,1.21 18.91,1.55C19.08,1.89 19.04,2.3 18.81,2.6L12.8,10.62C12.42,11.13 11.58,11.13 11.2,10.62L5.19,2.6C4.96,2.3 4.92,1.89 5.09,1.55C5.26,1.21 5.61,1 6,1H18M8,3L12,8.35L16,3H8Z" />
    </g>
    <g id="mdi-refresh" transform="translate(432 36) scale(1.5)" fill="#555">
      <path d="M17.65,6.35C16.2,4.9 14.21,4 12,4A8,8 0 0,0 4,12A8,8 0 0,0 12,20C15.73,20 18.84,17.45 19.73,14H17.65C16.83,16.33 14.61,18 12,18A6,6 0 0,1 6,12A6,6 0 0,1 12,6C13.66,6 15.14,6.69 16.22,7.78L13,11H20V4L17.65,6.35Z" />
    </g>
    <g id="mdi-refresh" transform="translate(468 36) scale(1.5)" fill="#fff">
      <path d="M17.65,6.35C16.2,4.9 14.21,4 12,4A8,8 0 0,0 4,12A8,8 0 0,0 12,20C15.73,20 18.84,17.45 19.73,14H17.65C16.83,16.33 14.61,18 12,18A6,6 0 0,1 6,12A6,6 0 0,1 12,6C13.66,6 15.14,6.69 16.22,7.78L13,11H20V4L17.65,6.35Z" />
    </g>
    <g id="mdi-refresh-circle" transform="translate(504 36) scale(1.5)" fill="#555">
      <path d="M12 2A10 10 0 1 0 22 12A10 10 0 0 0 12 2M18 11H13L14.81 9.19A3.94 3.94 0 0 0 12 8A4 4 0 1 0 15.86 13H17.91A6 6 0 1 1 12 6A5.91 5.91 0 0 1 16.22 7.78L18 6Z" />
    </g>
    <g id="mdi-refresh-circle" transform="translate(540 36) scale(1.5)" fill="#fff">
      <path d="M12 2A10 10 0 1 0 22 12A10 10 0 0 0 12 2M18 11H13L14.81 9.19A3.94 3.94 0 0 0 12 8A4 4 0 1 0 15.86 13H17.91A6 6 0 1 1 12 6A5.91 5.91 0 0 1 16.22 7.78L18 6Z" />
    </g>
    <g id="mdi-regex" transform="translate(576 36) scale(1.5)" fill="#555">
      <path d="M16,16.92C15.67,16.97 15.34,17 15,17C14.66,17 14.33,16.97 14,16.92V13.41L11.5,15.89C11,15.5 10.5,15 10.11,14.5L12.59,12H9.08C9.03,11.67 9,11.34 9,11C9,10.66 9.03,10.33 9.08,10H12.59L10.11,7.5C10.3,7.25 10.5,7 10.76,6.76V6.76C11,6.5 11.25,6.3 11.5,6.11L14,8.59V5.08C14.33,5.03 14.66,5 15,5C15.34,5 15.67,5.03 16,5.08V8.59L18.5,6.11C19,6.5 19.5,7 19.89,7.5L17.41,10H20.92C20.97,10.33 21,10.66 21,11C21,11.34 20.97,11.67 20.92,12H17.41L19.89,14.5C19.7,14.75 19.5,15 19.24,15.24V15.24C19,15.5 18.75,15.7 18.5,15.89L16,13.41V16.92H16V16.92M5,19A2,2 0 0,1 7,17A2,2 0 0,1 9,19A2,2 0 0,1 7,21A2,2 0 0,1 5,19H5Z" />
    </g>
    <g id="mdi-regex" transform="translate(612 36) scale(1.5)" fill="#fff">
      <path d="M16,16.92C15.67,16.97 15.34,17 15,17C14.66,17 14.33,16.97 14,16.92V13.41L11.5,15.89C11,15.5 10.5,15 10.11,14.5L12.59,12H9.08C9.03,11.67 9,11.34 9,11C9,10.66 9.03,10.33 9.08,10H12.59L10.11,7.5C10.3,7.25 10.5,7 10.76,6.76V6.76C11,6.5 11.25,6.3 11.5,6.11L14,8.59V5.08C14.33,5.03 14.66,5 15,5C15.34,5 15.67,5.03 16,5.08V8.59L18.5,6.11C19,6.5 19.5,7 19.89,7.5L17.41,10H20.92C20.97,10.33 21,10.66 21,11C21,11.34 20.97,11.67 20.92,12H17.41L19.89,14.5C19.7,14.75 19.5,15 19.24,15.24V15.24C19,15.5 18.75,15.7 18.5,15.89L16,13.41V16.92H16V16.92M5,19A2,2 0 0,1 7,17A2,2 0 0,1 9,19A2,2 0 0,1 7,21A2,2 0 0,1 5,19H5Z" />
    </g>
    <g id="mdi-registered-trademark" transform="translate(648 36) scale(1.5)" fill="#555">
      <path d="M12,2A10,10 0 0,0 2,12A10,10 0 0,0 12,22A10,10 0 0,0 22,12A10,10 0 0,0 12,2M12,20C7.59,20 4,16.41 4,12C4,7.59 7.59,4 12,4C16.41,4 20,7.59 20,12C20,16.41 16.41,20 12,20M12.25,13.27H10.81V16.5H9V7.71H12.26C13.29,7.71 14.09,7.94 14.66,8.4C15.22,8.87 15.5,9.5 15.5,10.36C15.5,10.96 15.37,11.46 15.11,11.86C14.85,12.26 14.46,12.58 13.93,12.81L15.83,16.4V16.5H13.89L12.25,13.27M10.81,11.81H12.27C12.72,11.81 13.07,11.69 13.32,11.46C13.57,11.23 13.69,10.91 13.69,10.5C13.69,10.09 13.58,9.77 13.34,9.53C13.11,9.29 12.75,9.18 12.26,9.18H10.81V11.81Z" />
    </g>
    <g id="mdi-registered-trademark" transform="translate(684 36) scale(1.5)" fill="#fff">
      <path d="M12,2A10,10 0 0,0 2,12A10,10 0 0,0 12,22A10,10 0 0,0 22,12A10,10 0 0,0 12,2M12,20C7.59,20 4,16.41 4,12C4,7.59 7.59,4 12,4C16.41,4 20,7.59 20,12C20,16.41 16.41,20 12,20M12.25,13.27H10.81V16.5H9V7.71H12.26C13.29,7.71 14.09,7.94 14.66,8.4C15.22,8.87 15.5,9.5 15.5,10.36C15.5,10.96 15.37,11.46 15.11,11.86C14.85,12.26 14.46,12.58 13.93,12.81L15.83,16.4V16.5H13.89L12.25,13.27M10.81,11.81H12.27C12.72,11.81 13.07,11.69 13.32,11.46C13.57,11.23 13.69,10.91 13.69,10.5C13.69,10.09 13.58,9.77 13.34,9.53C13.11,9.29 12.75,9.18 12.26,9.18H10.81V11.81Z" />
    </g>
    <g id="mdi-reiterate" transform="translate(0 72) scale(1.5)" fill="#555">
      <path d="M10.5 4A6.5 6.5 0 0 0 4 10H1L5 14L9 10H6.03A4.5 4.5 0 0 1 10.5 6A4.5 4.5 0 0 1 15 10.5A4.5 4.5 0 0 1 10.5 15H2V17H10.5A6.5 6.5 0 0 0 17 10.5A6.5 6.5 0 0 0 10.5 4M19 12V15H16.5A7.5 7.5 0 0 1 14.24 17H19V20L23 16Z" />
    </g>
    <g id="mdi-reiterate" transform="translate(36 72) scale(1.5)" fill="#fff">
      <path d="M10.5 4A6.5 6.5 0 0 0 4 10H1L5 14L9 10H6.03A4.5 4.5 0 0 1 10.5 6A4.5 4.5 0 0 1 15 10.5A4.5 4.5 0 0 1 10.5 15H2V17H10.5A6.5 6.5 0 0 0 17 10.5A6.5 6.5 0 0 0 10.5 4M19 12V15H16.5A7.5 7.5 0 0 1 14.24 17H19V20L23 16Z" />
    </g>
    <g id="mdi-relation-many-to-many" transform="translate(72 72) scale(1.5)" fill="#555">
      <path d="M22 13V19H21L19 17H11V9H5L3 11H2V5H3L5 7H13V15H19L21 13Z" />
    </g>
    <g id="mdi-relation-many-to-many" transform="translate(108 72) scale(1.5)" fill="#fff">
      <path d="M22 13V19H21L19 17H11V9H5L3 11H2V5H3L5 7H13V15H19L21 13Z" />
    </g>
    <g id="mdi-relation-many-to-one" transform="translate(144 72) scale(1.5)" fill="#555">
      <path d="M22 15V17H19V19H17V17H11V9H5L3 11H2V5H3L5 7H13V15H17V13H19V15Z" />
    </g>
    <g id="mdi-relation-many-to-one" transform="translate(180 72) scale(1.5)" fill="#fff">
      <path d="M22 15V17H19V19H17V17H11V9H5L3 11H2V5H3L5 7H13V15H17V13H19V15Z" />
    </g>
    <g id="mdi-relation-many-to-one-or-many" transform="translate(216 72) scale(1.5)" fill="#555">
      <path d="M22 13V19H21L19 17V19H17V17H11V9H5L3 11H2V5H3L5 7H13V15H17V13H19V15L21 13Z" />
    </g>
    <g id="mdi-relation-many-to-one-or-many" transform="translate(252 72) scale(1.5)" fill="#fff">
      <path d="M22 13V19H21L19 17V19H17V17H11V9H5L3 11H2V5H3L5 7H13V15H17V13H19V15L21 13Z" />
    </g>
    <g id="mdi-relation-many-to-only-one" transform="translate(288 72) scale(1.5)" fill="#555">
      <path d="M22 15V17H21V19H19V17H18V19H16V17H11V9H5L3 11H2V5H3L5 7H13V15H16V13H18V15H19V13H21V15Z" />
    </g>
    <g id="mdi-relation-many-to-only-one" transform="translate(324 72) scale(1.5)" fill="#fff">
      <path d="M22 15V17H21V19H19V17H18V19H16V17H11V9H5L3 11H2V5H3L5 7H13V15H16V13H18V15H19V13H21V15Z" />
    </g>
    <g id="mdi-relation-many-to-zero-or-many" transform="translate(360 72) scale(1.5)" fill="#555">
      <path d="M21 13L19 15H18.79A2.5 2.5 0 0 0 14.21 15H13V7H5L3 5H2V11H3L5 9H11V17H14.21A2.5 2.5 0 0 0 18.79 17H19L21 19H22V13M16.5 17A1 1 0 1 1 17.5 16A1 1 0 0 1 16.5 17Z" />
    </g>
    <g id="mdi-relation-many-to-zero-or-many" transform="translate(396 72) scale(1.5)" fill="#fff">
      <path d="M21 13L19 15H18.79A2.5 2.5 0 0 0 14.21 15H13V7H5L3 5H2V11H3L5 9H11V17H14.21A2.5 2.5 0 0 0 18.79 17H19L21 19H22V13M16.5 17A1 1 0 1 1 17.5 16A1 1 0 0 1 16.5 17Z" />
    </g>
    <g id="mdi-relation-many-to-zero-or-one" transform="translate(432 72) scale(1.5)" fill="#555">
      <path d="M21 15V13H19V15H18.79A2.5 2.5 0 0 0 14.21 15H13V7H5L3 5H2V11H3L5 9H11V17H14.21A2.5 2.5 0 0 0 18.79 17H19V19H21V17H22V15M16.5 17A1 1 0 1 1 17.5 16A1 1 0 0 1 16.5 17Z" />
    </g>
    <g id="mdi-relation-many-to-zero-or-one" transform="translate(468 72) scale(1.5)" fill="#fff">
      <path d="M21 15V13H19V15H18.79A2.5 2.5 0 0 0 14.21 15H13V7H5L3 5H2V11H3L5 9H11V17H14.21A2.5 2.5 0 0 0 18.79 17H19V19H21V17H22V15M16.5 17A1 1 0 1 1 17.5 16A1 1 0 0 1 16.5 17Z" />
    </g>
    <g id="mdi-relation-one-or-many-to-many" transform="translate(504 72) scale(1.5)" fill="#555">
      <path d="M22 13V19H21L19 17H11V9H7V11H5V9L3 11H2V5H3L5 7V5H7V7H13V15H19L21 13Z" />
    </g>
    <g id="mdi-relation-one-or-many-to-many" transform="translate(540 72) scale(1.5)" fill="#fff">
      <path d="M22 13V19H21L19 17H11V9H7V11H5V9L3 11H2V5H3L5 7V5H7V7H13V15H19L21 13Z" />
    </g>
    <g id="mdi-relation-one-or-many-to-one" transform="translate(576 72) scale(1.5)" fill="#555">
      <path d="M22 15V17H19V19H17V17H11V9H7V11H5V9L3 11H2V5H3L5 7V5H7V7H13V15H17V13H19V15Z" />
    </g>
    <g id="mdi-relation-one-or-many-to-one" transform="translate(612 72) scale(1.5)" fill="#fff">
      <path d="M22 15V17H19V19H17V17H11V9H7V11H5V9L3 11H2V5H3L5 7V5H7V7H13V15H17V13H19V15Z" />
    </g>
    <g id="mdi-relation-one-or-many-to-one-or-many" transform="translate(648 72) scale(1.5)" fill="#555">
      <path d="M22 13V19H21L19 17V19H17V17H11V9H7V11H5V9L3 11H2V5H3L5 7V5H7V7H13V15H17V13H19V15L21 13Z" />
    </g>
    <g id="mdi-relation-one-or-many-to-one-or-many" transform="translate(684 72) scale(1.5)" fill="#fff">
      <path d="M22 13V19H21L19 17V19H17V17H11V9H7V11H5V9L3 11H2V5H3L5 7V5H7V7H13V15H17V13H19V15L21 13Z" />
    </g>
    <g id="mdi-relation-one-or-many-to-only-one" transform="translate(0 108) scale(1.5)" fill="#555">
      <path d="M22 15V17H21V19H19V17H18V19H16V17H11V9H7V11H5V9L3 11H2V5H3L5 7V5H7V7H13V15H16V13H18V15H19V13H21V15Z" />
    </g>
    <g id="mdi-relation-one-or-many-to-only-one" transform="translate(36 108) scale(1.5)" fill="#fff">
      <path d="M22 15V17H21V19H19V17H18V19H16V17H11V9H7V11H5V9L3 11H2V5H3L5 7V5H7V7H13V15H16V13H18V15H19V13H21V15Z" />
    </g>
    <g id="mdi-relation-one-or-many-to-zero-or-many" transform="translate(72 108) scale(1.5)" fill="#555">
      <path d="M21 13L19 15H18.79A2.5 2.5 0 0 0 14.21 15H13V7H7V5H5V7L3 5H2V11H3L5 9V11H7V9H11V17H14.21A2.5 2.5 0 0 0 18.79 17H19L21 19H22V13M16.5 17A1 1 0 1 1 17.5 16A1 1 0 0 1 16.5 17Z" />
    </g>
    <g id="mdi-relation-one-or-many-to-zero-or-many" transform="translate(108 108) scale(1.5)" fill="#fff">
      <path d="M21 13L19 15H18.79A2.5 2.5 0 0 0 14.21 15H13V7H7V5H5V7L3 5H2V11H3L5 9V11H7V9H11V17H14.21A2.5 2.5 0 0 0 18.79 17H19L21 19H22V13M16.5 17A1 1 0 1 1 17.5 16A1 1 0 0 1 16.5 17Z" />
    </g>
    <g id="mdi-relation-one-or-many-to-zero-or-one" transform="translate(144 108) scale(1.5)" fill="#555">
      <path d="M21 15V13H19V15H18.79A2.5 2.5 0 0 0 14.21 15H13V7H7V5H5V7L3 5H2V11H3L5 9V11H7V9H11V17H14.21A2.5 2.5 0 0 0 18.79 17H19V19H21V17H22V15M16.5 17A1 1 0 1 1 17.5 16A1 1 0 0 1 16.5 17Z" />
    </g>
    <g id="mdi-relation-one-or-many-to-zero-or-one" transform="translate(180 108) scale(1.5)" fill="#fff">
      <path d="M21 15V13H19V15H18.79A2.5 2.5 0 0 0 14.21 15H13V7H7V5H5V7L3 5H2V11H3L5 9V11H7V9H11V17H14.21A2.5 2.5 0 0 0 18.79 17H19V19H21V17H22V15M16.5 17A1 1 0 1 1 17.5 16A1 1 0 0 1 16.5 17Z" />
    </g>
    <g id="mdi-relation-one-to-many" transform="translate(216 108) scale(1.5)" fill="#555">
      <path d="M22 13V19H21L19 17H11V9H7V11H5V9H2V7H5V5H7V7H13V15H19L21 13Z" />
    </g>
    <g id="mdi-relation-one-to-many" transform="translate(252 108) scale(1.5)" fill="#fff">
      <path d="M22 13V19H21L19 17H11V9H7V11H5V9H2V7H5V5H7V7H13V15H19L21 13Z" />
    </g>
    <g id="mdi-relation-one-to-one" transform="translate(288 108) scale(1.5)" fill="#555">
      <path d="M22 15V17H19V19H17V17H11V9H7V11H5V9H2V7H5V5H7V7H13V15H17V13H19V15Z" />
    </g>
    <g id="mdi-relation-one-to-one" transform="translate(324 108) scale(1.5)" fill="#fff">
      <path d="M22 15V17H19V19H17V17H11V9H7V11H5V9H2V7H5V5H7V7H13V15H17V13H19V15Z" />
    </g>
    <g id="mdi-relation-one-to-one-or-many" transform="translate(360 108) scale(1.5)" fill="#555">
      <path d="M22 13V19H21L19 17V19H17V17H11V9H7V11H5V9H2V7H5V5H7V7H13V15H17V13H19V15L21 13Z" />
    </g>
    <g id="mdi-relation-one-to-one-or-many" transform="translate(396 108) scale(1.5)" fill="#fff">
      <path d="M22 13V19H21L19 17V19H17V17H11V9H7V11H5V9H2V7H5V5H7V7H13V15H17V13H19V15L21 13Z" />
    </g>
    <g id="mdi-relation-one-to-only-one" transform="translate(432 108) scale(1.5)" fill="#555">
      <path d="M22 15V17H21V19H19V17H18V19H16V17H11V9H7V11H5V9H2V7H5V5H7V7H13V15H16V13H18V15H19V13H21V15Z" />
    </g>
    <g id="mdi-relation-one-to-only-one" transform="translate(468 108) scale(1.5)" fill="#fff">
      <path d="M22 15V17H21V19H19V17H18V19H16V17H11V9H7V11H5V9H2V7H5V5H7V7H13V15H16V13H18V15H19V13H21V15Z" />
    </g>
    <g id="mdi-relation-one-to-zero-or-many" transform="translate(504 108) scale(1.5)" fill="#555">
      <path d="M21 13L19 15H18.79A2.5 2.5 0 0 0 14.21 15H13V7H7V5H5V7H2V9H5V11H7V9H11V17H14.21A2.5 2.5 0 0 0 18.79 17H19L21 19H22V13M16.5 17A1 1 0 1 1 17.5 16A1 1 0 0 1 16.5 17Z" />
    </g>
    <g id="mdi-relation-one-to-zero-or-many" transform="translate(540 108) scale(1.5)" fill="#fff">
      <path d="M21 13L19 15H18.79A2.5 2.5 0 0 0 14.21 15H13V7H7V5H5V7H2V9H5V11H7V9H11V17H14.21A2.5 2.5 0 0 0 18.79 17H19L21 19H22V13M16.5 17A1 1 0 1 1 17.5 16A1 1 0 0 1 16.5 17Z" />
    </g>
    <g id="mdi-relation-one-to-zero-or-one" transform="translate(576 108) scale(1.5)" fill="#555">
      <path d="M21 15V13H19V15H18.79A2.5 2.5 0 0 0 14.21 15H13V7H7V5H5V7H2V9H5V11H7V9H11V17H14.21A2.5 2.5 0 0 0 18.79 17H19V19H21V17H22V15M16.5 17A1 1 0 1 1 17.5 16A1 1 0 0 1 16.5 17Z" />
    </g>
    <g id="mdi-relation-one-to-zero-or-one" transform="translate(612 108) scale(1.5)" fill="#fff">
      <path d="M21 15V13H19V15H18.79A2.5 2.5 0 0 0 14.21 15H13V7H7V5H5V7H2V9H5V11H7V9H11V17H14.21A2.5 2.5 0 0 0 18.79 17H19V19H21V17H22V15M16.5 17A1 1 0 1 1 17.5 16A1 1 0 0 1 16.5 17Z" />
    </g>
    <g id="mdi-relation-only-one-to-many" transform="translate(648 108) scale(1.5)" fill="#555">
      <path d="M22 13V19H21L19 17H11V9H8V11H6V9H5V11H3V9H2V7H3V5H5V7H6V5H8V7H13V15H19L21 13Z" />
    </g>
    <g id="mdi-relation-only-one-to-many" transform="translate(684 108) scale(1.5)" fill="#fff">
      <path d="M22 13V19H21L19 17H11V9H8V11H6V9H5V11H3V9H2V7H3V5H5V7H6V5H8V7H13V15H19L21 13Z" />
    </g>
    <g id="mdi-relation-only-one-to-one" transform="translate(0 144) scale(1.5)" fill="#555">
      <path d="M22 15V17H19V19H17V17H11V9H8V11H6V9H5V11H3V9H2V7H3V5H5V7H6V5H8V7H13V15H17V13H19V15Z" />
    </g>
    <g id="mdi-relation-only-one-to-one" transform="translate(36 144) scale(1.5)" fill="#fff">
      <path d="M22 15V17H19V19H17V17H11V9H8V11H6V9H5V11H3V9H2V7H3V5H5V7H6V5H8V7H13V15H17V13H19V15Z" />
    </g>
    <g id="mdi-relation-only-one-to-one-or-many" transform="translate(72 144) scale(1.5)" fill="#555">
      <path d="M22 13V19H21L19 17V19H17V17H11V9H8V11H6V9H5V11H3V9H2V7H3V5H5V7H6V5H8V7H13V15H17V13H19V15L21 13Z" />
    </g>
    <g id="mdi-relation-only-one-to-one-or-many" transform="translate(108 144) scale(1.5)" fill="#fff">
      <path d="M22 13V19H21L19 17V19H17V17H11V9H8V11H6V9H5V11H3V9H2V7H3V5H5V7H6V5H8V7H13V15H17V13H19V15L21 13Z" />
    </g>
    <g id="mdi-relation-only-one-to-only-one" transform="translate(144 144) scale(1.5)" fill="#555">
      <path d="M22 15V17H21V19H19V17H18V19H16V17H11V9H8V11H6V9H5V11H3V9H2V7H3V5H5V7H6V5H8V7H13V15H16V13H18V15H19V13H21V15Z" />
    </g>
    <g id="mdi-relation-only-one-to-only-one" transform="translate(180 144) scale(1.5)" fill="#fff">
      <path d="M22 15V17H21V19H19V17H18V19H16V17H11V9H8V11H6V9H5V11H3V9H2V7H3V5H5V7H6V5H8V7H13V15H16V13H18V15H19V13H21V15Z" />
    </g>
    <g id="mdi-relation-only-one-to-zero-or-many" transform="translate(216 144) scale(1.5)" fill="#555">
      <path d="M21 13L19 15H18.79A2.5 2.5 0 0 0 14.21 15H13V7H8V5H6V7H5V5H3V7H2V9H3V11H5V9H6V11H8V9H11V17H14.21A2.5 2.5 0 0 0 18.79 17H19L21 19H22V13M16.5 17A1 1 0 1 1 17.5 16A1 1 0 0 1 16.5 17Z" />
    </g>
    <g id="mdi-relation-only-one-to-zero-or-many" transform="translate(252 144) scale(1.5)" fill="#fff">
      <path d="M21 13L19 15H18.79A2.5 2.5 0 0 0 14.21 15H13V7H8V5H6V7H5V5H3V7H2V9H3V11H5V9H6V11H8V9H11V17H14.21A2.5 2.5 0 0 0 18.79 17H19L21 19H22V13M16.5 17A1 1 0 1 1 17.5 16A1 1 0 0 1 16.5 17Z" />
    </g>
    <g id="mdi-relation-only-one-to-zero-or-one" transform="translate(288 144) scale(1.5)" fill="#555">
      <path d="M21 15V13H19V15H18.79A2.5 2.5 0 0 0 14.21 15H13V7H8V5H6V7H5V5H3V7H2V9H3V11H5V9H6V11H8V9H11V17H14.21A2.5 2.5 0 0 0 18.79 17H19V19H21V17H22V15M16.5 17A1 1 0 1 1 17.5 16A1 1 0 0 1 16.5 17Z" />
    </g>
    <g id="mdi-relation-only-one-to-zero-or-one" transform="translate(324 144) scale(1.5)" fill="#fff">
      <path d="M21 15V13H19V15H18.79A2.5 2.5 0 0 0 14.21 15H13V7H8V5H6V7H5V5H3V7H2V9H3V11H5V9H6V11H8V9H11V17H14.21A2.5 2.5 0 0 0 18.79 17H19V19H21V17H22V15M16.5 17A1 1 0 1 1 17.5 16A1 1 0 0 1 16.5 17Z" />
    </g>
    <g id="mdi-relation-zero-or-many-to-many" transform="translate(360 144) scale(1.5)" fill="#555">
      <path d="M21 13L19 15H13V7H9.79A2.5 2.5 0 0 0 5.21 7H5L3 5H2V11H3L5 9H5.21A2.5 2.5 0 0 0 9.79 9H11V17H19L21 19H22V13M7.5 9A1 1 0 1 1 8.5 8A1 1 0 0 1 7.5 9Z" />
    </g>
    <g id="mdi-relation-zero-or-many-to-many" transform="translate(396 144) scale(1.5)" fill="#fff">
      <path d="M21 13L19 15H13V7H9.79A2.5 2.5 0 0 0 5.21 7H5L3 5H2V11H3L5 9H5.21A2.5 2.5 0 0 0 9.79 9H11V17H19L21 19H22V13M7.5 9A1 1 0 1 1 8.5 8A1 1 0 0 1 7.5 9Z" />
    </g>
    <g id="mdi-relation-zero-or-many-to-one" transform="translate(432 144) scale(1.5)" fill="#555">
      <path d="M19 15V13H17V15H13V7H9.79A2.5 2.5 0 0 0 5.21 7H5L3 5H2V11H3L5 9H5.21A2.5 2.5 0 0 0 9.79 9H11V17H17V19H19V17H22V15M7.5 9A1 1 0 1 1 8.5 8A1 1 0 0 1 7.5 9Z" />
    </g>
    <g id="mdi-relation-zero-or-many-to-one" transform="translate(468 144) scale(1.5)" fill="#fff">
      <path d="M19 15V13H17V15H13V7H9.79A2.5 2.5 0 0 0 5.21 7H5L3 5H2V11H3L5 9H5.21A2.5 2.5 0 0 0 9.79 9H11V17H17V19H19V17H22V15M7.5 9A1 1 0 1 1 8.5 8A1 1 0 0 1 7.5 9Z" />
    </g>
    <g id="mdi-relation-zero-or-many-to-one-or-many" transform="translate(504 144) scale(1.5)" fill="#555">
      <path d="M21 13L19 15V13H17V15H13V7H9.79A2.5 2.5 0 0 0 5.21 7H5L3 5H2V11H3L5 9H5.21A2.5 2.5 0 0 0 9.79 9H11V17H17V19H19V17L21 19H22V13M7.5 9A1 1 0 1 1 8.5 8A1 1 0 0 1 7.5 9Z" />
    </g>
    <g id="mdi-relation-zero-or-many-to-one-or-many" transform="translate(540 144) scale(1.5)" fill="#fff">
      <path d="M21 13L19 15V13H17V15H13V7H9.79A2.5 2.5 0 0 0 5.21 7H5L3 5H2V11H3L5 9H5.21A2.5 2.5 0 0 0 9.79 9H11V17H17V19H19V17L21 19H22V13M7.5 9A1 1 0 1 1 8.5 8A1 1 0 0 1 7.5 9Z" />
    </g>
    <g id="mdi-relation-zero-or-many-to-only-one" transform="translate(576 144) scale(1.5)" fill="#555">
      <path d="M21 15V13H19V15H18V13H16V15H13V7H9.79A2.5 2.5 0 0 0 5.21 7H5L3 5H2V11H3L5 9H5.21A2.5 2.5 0 0 0 9.79 9H11V17H16V19H18V17H19V19H21V17H22V15M7.5 9A1 1 0 1 1 8.5 8A1 1 0 0 1 7.5 9Z" />
    </g>
    <g id="mdi-relation-zero-or-many-to-only-one" transform="translate(612 144) scale(1.5)" fill="#fff">
      <path d="M21 15V13H19V15H18V13H16V15H13V7H9.79A2.5 2.5 0 0 0 5.21 7H5L3 5H2V11H3L5 9H5.21A2.5 2.5 0 0 0 9.79 9H11V17H16V19H18V17H19V19H21V17H22V15M7.5 9A1 1 0 1 1 8.5 8A1 1 0 0 1 7.5 9Z" />
    </g>
    <g id="mdi-relation-zero-or-many-to-zero-or-many" transform="translate(648 144) scale(1.5)" fill="#555">
      <path d="M21 13L19 15H18.79A2.5 2.5 0 0 0 14.21 15H13V7H9.79A2.5 2.5 0 0 0 5.21 7H5L3 5H2V11H3L5 9H5.21A2.5 2.5 0 0 0 9.79 9H11V17H14.21A2.5 2.5 0 0 0 18.79 17H19L21 19H22V13M7.5 9A1 1 0 1 1 8.5 8A1 1 0 0 1 7.5 9M16.5 17A1 1 0 1 1 17.5 16A1 1 0 0 1 16.5 17Z" />
    </g>
    <g id="mdi-relation-zero-or-many-to-zero-or-many" transform="translate(684 144) scale(1.5)" fill="#fff">
      <path d="M21 13L19 15H18.79A2.5 2.5 0 0 0 14.21 15H13V7H9.79A2.5 2.5 0 0 0 5.21 7H5L3 5H2V11H3L5 9H5.21A2.5 2.5 0 0 0 9.79 9H11V17H14.21A2.5 2.5 0 0 0 18.79 17H19L21 19H22V13M7.5 9A1 1 0 1 1 8.5 8A1 1 0 0 1 7.5 9M16.5 17A1 1 0 1 1 17.5 16A1 1 0 0 1 16.5 17Z" />
    </g>
    <g id="mdi-relation-zero-or-many-to-zero-or-one" transform="translate(0 180) scale(1.5)" fill="#555">
      <path d="M21 15V13H19V15H18.79A2.5 2.5 0 0 0 14.21 15H13V7H9.79A2.5 2.5 0 0 0 5.21 7H5L3 5H2V11H3L5 9H5.21A2.5 2.5 0 0 0 9.79 9H11V17H14.21A2.5 2.5 0 0 0 18.79 17H19V19H21V17H22V15M7.5 9A1 1 0 1 1 8.5 8A1 1 0 0 1 7.5 9M16.5 17A1 1 0 1 1 17.5 16A1 1 0 0 1 16.5 17Z" />
    </g>
    <g id="mdi-relation-zero-or-many-to-zero-or-one" transform="translate(36 180) scale(1.5)" fill="#fff">
      <path d="M21 15V13H19V15H18.79A2.5 2.5 0 0 0 14.21 15H13V7H9.79A2.5 2.5 0 0 0 5.21 7H5L3 5H2V11H3L5 9H5.21A2.5 2.5 0 0 0 9.79 9H11V17H14.21A2.5 2.5 0 0 0 18.79 17H19V19H21V17H22V15M7.5 9A1 1 0 1 1 8.5 8A1 1 0 0 1 7.5 9M16.5 17A1 1 0 1 1 17.5 16A1 1 0 0 1 16.5 17Z" />
    </g>
    <g id="mdi-relation-zero-or-one-to-many" transform="translate(72 180) scale(1.5)" fill="#555">
      <path d="M21 13L19 15H13V7H9.79A2.5 2.5 0 0 0 5.21 7H5V5H3V7H2V9H3V11H5V9H5.21A2.5 2.5 0 0 0 9.79 9H11V17H19L21 19H22V13M7.5 9A1 1 0 1 1 8.5 8A1 1 0 0 1 7.5 9Z" />
    </g>
    <g id="mdi-relation-zero-or-one-to-many" transform="translate(108 180) scale(1.5)" fill="#fff">
      <path d="M21 13L19 15H13V7H9.79A2.5 2.5 0 0 0 5.21 7H5V5H3V7H2V9H3V11H5V9H5.21A2.5 2.5 0 0 0 9.79 9H11V17H19L21 19H22V13M7.5 9A1 1 0 1 1 8.5 8A1 1 0 0 1 7.5 9Z" />
    </g>
    <g id="mdi-relation-zero-or-one-to-one" transform="translate(144 180) scale(1.5)" fill="#555">
      <path d="M19 15V13H17V15H13V7H9.79A2.5 2.5 0 0 0 5.21 7H5V5H3V7H2V9H3V11H5V9H5.21A2.5 2.5 0 0 0 9.79 9H11V17H17V19H19V17H22V15M7.5 9A1 1 0 1 1 8.5 8A1 1 0 0 1 7.5 9Z" />
    </g>
    <g id="mdi-relation-zero-or-one-to-one" transform="translate(180 180) scale(1.5)" fill="#fff">
      <path d="M19 15V13H17V15H13V7H9.79A2.5 2.5 0 0 0 5.21 7H5V5H3V7H2V9H3V11H5V9H5.21A2.5 2.5 0 0 0 9.79 9H11V17H17V19H19V17H22V15M7.5 9A1 1 0 1 1 8.5 8A1 1 0 0 1 7.5 9Z" />
    </g>
    <g id="mdi-relation-zero-or-one-to-one-or-many" transform="translate(216 180) scale(1.5)" fill="#555">
      <path d="M21 13L19 15V13H17V15H13V7H9.79A2.5 2.5 0 0 0 5.21 7H5V5H3V7H2V9H3V11H5V9H5.21A2.5 2.5 0 0 0 9.79 9H11V17H17V19H19V17L21 19H22V13M7.5 9A1 1 0 1 1 8.5 8A1 1 0 0 1 7.5 9Z" />
    </g>
    <g id="mdi-relation-zero-or-one-to-one-or-many" transform="translate(252 180) scale(1.5)" fill="#fff">
      <path d="M21 13L19 15V13H17V15H13V7H9.79A2.5 2.5 0 0 0 5.21 7H5V5H3V7H2V9H3V11H5V9H5.21A2.5 2.5 0 0 0 9.79 9H11V17H17V19H19V17L21 19H22V13M7.5 9A1 1 0 1 1 8.5 8A1 1 0 0 1 7.5 9Z" />
    </g>
    <g id="mdi-relation-zero-or-one-to-only-one" transform="translate(288 180) scale(1.5)" fill="#555">
      <path d="M21 15V13H19V15H18V13H16V15H13V7H9.79A2.5 2.5 0 0 0 5.21 7H5V5H3V7H2V9H3V11H5V9H5.21A2.5 2.5 0 0 0 9.79 9H11V17H16V19H18V17H19V19H21V17H22V15M7.5 9A1 1 0 1 1 8.5 8A1 1 0 0 1 7.5 9Z" />
    </g>
    <g id="mdi-relation-zero-or-one-to-only-one" transform="translate(324 180) scale(1.5)" fill="#fff">
      <path d="M21 15V13H19V15H18V13H16V15H13V7H9.79A2.5 2.5 0 0 0 5.21 7H5V5H3V7H2V9H3V11H5V9H5.21A2.5 2.5 0 0 0 9.79 9H11V17H16V19H18V17H19V19H21V17H22V15M7.5 9A1 1 0 1 1 8.5 8A1 1 0 0 1 7.5 9Z" />
    </g>
    <g id="mdi-relation-zero-or-one-to-zero-or-many" transform="translate(360 180) scale(1.5)" fill="#555">
      <path d="M21 13L19 15H18.79A2.5 2.5 0 0 0 14.21 15H13V7H9.79A2.5 2.5 0 0 0 5.21 7H5V5H3V7H2V9H3V11H5V9H5.21A2.5 2.5 0 0 0 9.79 9H11V17H14.21A2.5 2.5 0 0 0 18.79 17H19L21 19H22V13M7.5 9A1 1 0 1 1 8.5 8A1 1 0 0 1 7.5 9M16.5 17A1 1 0 1 1 17.5 16A1 1 0 0 1 16.5 17Z" />
    </g>
    <g id="mdi-relation-zero-or-one-to-zero-or-many" transform="translate(396 180) scale(1.5)" fill="#fff">
      <path d="M21 13L19 15H18.79A2.5 2.5 0 0 0 14.21 15H13V7H9.79A2.5 2.5 0 0 0 5.21 7H5V5H3V7H2V9H3V11H5V9H5.21A2.5 2.5 0 0 0 9.79 9H11V17H14.21A2.5 2.5 0 0 0 18.79 17H19L21 19H22V13M7.5 9A1 1 0 1 1 8.5 8A1 1 0 0 1 7.5 9M16.5 17A1 1 0 1 1 17.5 16A1 1 0 0 1 16.5 17Z" />
    </g>
    <g id="mdi-relation-zero-or-one-to-zero-or-one" transform="translate(432 180) scale(1.5)" fill="#555">
      <path d="M21 15V13H19V15H18.79A2.5 2.5 0 0 0 14.21 15H13V7H9.79A2.5 2.5 0 0 0 5.21 7H5V5H3V7H2V9H3V11H5V9H5.21A2.5 2.5 0 0 0 9.79 9H11V17H14.21A2.5 2.5 0 0 0 18.79 17H19V19H21V17H22V15M7.5 9A1 1 0 1 1 8.5 8A1 1 0 0 1 7.5 9M16.5 17A1 1 0 1 1 17.5 16A1 1 0 0 1 16.5 17Z" />
    </g>
    <g id="mdi-relation-zero-or-one-to-zero-or-one" transform="translate(468 180) scale(1.5)" fill="#fff">
      <path d="M21 15V13H19V15H18.79A2.5 2.5 0 0 0 14.21 15H13V7H9.79A2.5 2.5 0 0 0 5.21 7H5V5H3V7H2V9H3V11H5V9H5.21A2.5 2.5 0 0 0 9.79 9H11V17H14.21A2.5 2.5 0 0 0 18.79 17H19V19H21V17H22V15M7.5 9A1 1 0 1 1 8.5 8A1 1 0 0 1 7.5 9M16.5 17A1 1 0 1 1 17.5 16A1 1 0 0 1 16.5 17Z" />
    </g>
    <g id="mdi-relative-scale" transform="translate(504 180) scale(1.5)" fill="#555">
      <path d="M20,18H4V6H20M20,4H4C2.89,4 2,4.89 2,6V18A2,2 0 0,0 4,20H20A2,2 0 0,0 22,18V6C22,4.89 21.1,4 20,4M12,10H10V12H12M8,10H6V12H8M16,14H14V16H16M16,10H14V12H16V10Z" />
    </g>
    <g id="mdi-relative-scale" transform="translate(540 180) scale(1.5)" fill="#fff">
      <path d="M20,18H4V6H20M20,4H4C2.89,4 2,4.89 2,6V18A2,2 0 0,0 4,20H20A2,2 0 0,0 22,18V6C22,4.89 21.1,4 20,4M12,10H10V12H12M8,10H6V12H8M16,14H14V16H16M16,10H14V12H16V10Z" />
    </g>
    <g id="mdi-reload" transform="translate(576 180) scale(1.5)" fill="#555">
      <path d="M2 12C2 16.97 6.03 21 11 21C13.39 21 15.68 20.06 17.4 18.4L15.9 16.9C14.63 18.25 12.86 19 11 19C4.76 19 1.64 11.46 6.05 7.05C10.46 2.64 18 5.77 18 12H15L19 16H19.1L23 12H20C20 7.03 15.97 3 11 3C6.03 3 2 7.03 2 12Z" />
    </g>
    <g id="mdi-reload" transform="translate(612 180) scale(1.5)" fill="#fff">
      <path d="M2 12C2 16.97 6.03 21 11 21C13.39 21 15.68 20.06 17.4 18.4L15.9 16.9C14.63 18.25 12.86 19 11 19C4.76 19 1.64 11.46 6.05 7.05C10.46 2.64 18 5.77 18 12H15L19 16H19.1L23 12H20C20 7.03 15.97 3 11 3C6.03 3 2 7.03 2 12Z" />
    </g>
    <g id="mdi-reload-alert" transform="translate(648 180) scale(1.5)" fill="#555">
      <path d="M2 12C2 17 6 21 11 21C13.4 21 15.7 20.1 17.4 18.4L15.9 16.9C14.6 18.3 12.9 19 11 19C4.8 19 1.6 11.5 6.1 7.1S18 5.8 18 12H15L19 16H19.1L23 12H20C20 7 16 3 11 3S2 7 2 12M10 15H12V17H10V15M10 7H12V13H10V7" />
    </g>
    <g id="mdi-reload-alert" transform="translate(684 180) scale(1.5)" fill="#fff">
      <path d="M2 12C2 17 6 21 11 21C13.4 21 15.7 20.1 17.4 18.4L15.9 16.9C14.6 18.3 12.9 19 11 19C4.8 19 1.6 11.5 6.1 7.1S18 5.8 18 12H15L19 16H19.1L23 12H20C20 7 16 3 11 3S2 7 2 12M10 15H12V17H10V15M10 7H12V13H10V7" />
    </g>
    <g id="mdi-reminder" transform="translate(0 216) scale(1.5)" fill="#555">
      <path d="M7.25,3C7.9,3 8.5,3.21 9,3.56V3A2,2 0 0,1 11,1A2,2 0 0,1 13,3V3.57C13.5,3.22 14.1,3 14.75,3A3,3 0 0,1 17.75,6C17.75,7.58 16.54,8.87 15,9H13V10H14.24L14.72,10.13L19.31,12.42C20.13,12.73 20.53,13.34 20.53,14.25L20.5,14.39V14.53L19.5,21.28C19.44,21.75 19.22,22.16 18.84,22.5C18.47,22.84 18.05,23 17.58,23H10C9.45,23 9,22.81 8.58,22.41L2,15.84L3.05,14.77C3.33,14.5 3.69,14.34 4.13,14.34H4.45L9,15.33V10L9,9H7V9C5.46,8.86 4.25,7.57 4.25,6A3,3 0 0,1 7.25,3M9,6A1.75,1.75 0 0,0 7.25,4.25A1.75,1.75 0 0,0 5.5,6C5.5,6.88 6.15,7.61 7,7.73V7.75H9V6M15,7.75V7.74C15.85,7.62 16.5,6.89 16.5,6C16.5,5.04 15.72,4.26 14.75,4.26C13.78,4.26 13,5.04 13,6V7.75H15Z" />
    </g>
    <g id="mdi-reminder" transform="translate(36 216) scale(1.5)" fill="#fff">
      <path d="M7.25,3C7.9,3 8.5,3.21 9,3.56V3A2,2 0 0,1 11,1A2,2 0 0,1 13,3V3.57C13.5,3.22 14.1,3 14.75,3A3,3 0 0,1 17.75,6C17.75,7.58 16.54,8.87 15,9H13V10H14.24L14.72,10.13L19.31,12.42C20.13,12.73 20.53,13.34 20.53,14.25L20.5,14.39V14.53L19.5,21.28C19.44,21.75 19.22,22.16 18.84,22.5C18.47,22.84 18.05,23 17.58,23H10C9.45,23 9,22.81 8.58,22.41L2,15.84L3.05,14.77C3.33,14.5 3.69,14.34 4.13,14.34H4.45L9,15.33V10L9,9H7V9C5.46,8.86 4.25,7.57 4.25,6A3,3 0 0,1 7.25,3M9,6A1.75,1.75 0 0,0 7.25,4.25A1.75,1.75 0 0,0 5.5,6C5.5,6.88 6.15,7.61 7,7.73V7.75H9V6M15,7.75V7.74C15.85,7.62 16.5,6.89 16.5,6C16.5,5.04 15.72,4.26 14.75,4.26C13.78,4.26 13,5.04 13,6V7.75H15Z" />
    </g>
    <g id="mdi-remote" transform="translate(72 216) scale(1.5)" fill="#555">
      <path d="M12,0C8.96,0 6.21,1.23 4.22,3.22L5.63,4.63C7.26,3 9.5,2 12,2C14.5,2 16.74,3 18.36,4.64L19.77,3.23C17.79,1.23 15.04,0 12,0M7.05,6.05L8.46,7.46C9.37,6.56 10.62,6 12,6C13.38,6 14.63,6.56 15.54,7.46L16.95,6.05C15.68,4.78 13.93,4 12,4C10.07,4 8.32,4.78 7.05,6.05M12,15A2,2 0 0,1 10,13A2,2 0 0,1 12,11A2,2 0 0,1 14,13A2,2 0 0,1 12,15M15,9H9A1,1 0 0,0 8,10V22A1,1 0 0,0 9,23H15A1,1 0 0,0 16,22V10A1,1 0 0,0 15,9Z" />
    </g>
    <g id="mdi-remote" transform="translate(108 216) scale(1.5)" fill="#fff">
      <path d="M12,0C8.96,0 6.21,1.23 4.22,3.22L5.63,4.63C7.26,3 9.5,2 12,2C14.5,2 16.74,3 18.36,4.64L19.77,3.23C17.79,1.23 15.04,0 12,0M7.05,6.05L8.46,7.46C9.37,6.56 10.62,6 12,6C13.38,6 14.63,6.56 15.54,7.46L16.95,6.05C15.68,4.78 13.93,4 12,4C10.07,4 8.32,4.78 7.05,6.05M12,15A2,2 0 0,1 10,13A2,2 0 0,1 12,11A2,2 0 0,1 14,13A2,2 0 0,1 12,15M15,9H9A1,1 0 0,0 8,10V22A1,1 0 0,0 9,23H15A1,1 0 0,0 16,22V10A1,1 0 0,0 15,9Z" />
    </g>
    <g id="mdi-remote-desktop" transform="translate(144 216) scale(1.5)" fill="#555">
      <path d="M3,2A2,2 0 0,0 1,4V16C1,17.11 1.9,18 3,18H10V20H8V22H16V20H14V18H21A2,2 0 0,0 23,16V4A2,2 0 0,0 21,2M3,4H21V16H3M15,5L11.5,8.5L15,12L16.4,10.6L14.3,8.5L16.4,6.4M9,8L7.6,9.4L9.7,11.5L7.6,13.6L9,15L12.5,11.5" />
    </g>
    <g id="mdi-remote-desktop" transform="translate(180 216) scale(1.5)" fill="#fff">
      <path d="M3,2A2,2 0 0,0 1,4V16C1,17.11 1.9,18 3,18H10V20H8V22H16V20H14V18H21A2,2 0 0,0 23,16V4A2,2 0 0,0 21,2M3,4H21V16H3M15,5L11.5,8.5L15,12L16.4,10.6L14.3,8.5L16.4,6.4M9,8L7.6,9.4L9.7,11.5L7.6,13.6L9,15L12.5,11.5" />
    </g>
    <g id="mdi-remote-off" transform="translate(216 216) scale(1.5)" fill="#555">
      <path d="M2,5.27L3.28,4L21,21.72L19.73,23L16,19.27V22A1,1 0 0,1 15,23H9C8.46,23 8,22.55 8,22V11.27L2,5.27M12,0C15.05,0 17.8,1.23 19.77,3.23L18.36,4.64C16.75,3 14.5,2 12,2C9.72,2 7.64,2.85 6.06,4.24L4.64,2.82C6.59,1.07 9.17,0 12,0M12,4C13.94,4 15.69,4.78 16.95,6.05L15.55,7.46C14.64,6.56 13.39,6 12,6C10.83,6 9.76,6.4 8.9,7.08L7.5,5.66C8.7,4.62 10.28,4 12,4M15,9C15.56,9 16,9.45 16,10V14.18L13.5,11.69L13.31,11.5L10.82,9H15M10.03,13.3C10.16,14.16 10.84,14.85 11.71,15L10.03,13.3Z" />
    </g>
    <g id="mdi-remote-off" transform="translate(252 216) scale(1.5)" fill="#fff">
      <path d="M2,5.27L3.28,4L21,21.72L19.73,23L16,19.27V22A1,1 0 0,1 15,23H9C8.46,23 8,22.55 8,22V11.27L2,5.27M12,0C15.05,0 17.8,1.23 19.77,3.23L18.36,4.64C16.75,3 14.5,2 12,2C9.72,2 7.64,2.85 6.06,4.24L4.64,2.82C6.59,1.07 9.17,0 12,0M12,4C13.94,4 15.69,4.78 16.95,6.05L15.55,7.46C14.64,6.56 13.39,6 12,6C10.83,6 9.76,6.4 8.9,7.08L7.5,5.66C8.7,4.62 10.28,4 12,4M15,9C15.56,9 16,9.45 16,10V14.18L13.5,11.69L13.31,11.5L10.82,9H15M10.03,13.3C10.16,14.16 10.84,14.85 11.71,15L10.03,13.3Z" />
    </g>
    <g id="mdi-remote-tv" transform="translate(288 216) scale(1.5)" fill="#555">
      <path d="M9,2C7.89,2 7,2.89 7,4V20C7,21.11 7.89,22 9,22H15C16.11,22 17,21.11 17,20V4C17,2.89 16.11,2 15,2H13V4H11V2H9M11,6H13V8H15V10H13V12H11V10H9V8H11V6M9,14H11V16H9V14M13,14H15V16H13V14M9,18H11V20H9V18M13,18H15V20H13V18Z" />
    </g>
    <g id="mdi-remote-tv" transform="translate(324 216) scale(1.5)" fill="#fff">
      <path d="M9,2C7.89,2 7,2.89 7,4V20C7,21.11 7.89,22 9,22H15C16.11,22 17,21.11 17,20V4C17,2.89 16.11,2 15,2H13V4H11V2H9M11,6H13V8H15V10H13V12H11V10H9V8H11V6M9,14H11V16H9V14M13,14H15V16H13V14M9,18H11V20H9V18M13,18H15V20H13V18Z" />
    </g>
    <g id="mdi-remote-tv-off" transform="translate(360 216) scale(1.5)" fill="#555">
      <path d="M2,5.27L3.28,4L20,20.72L18.73,22L17,20.25C16.86,21.24 16,22 15,22H9A2,2 0 0,1 7,20V10.27L2,5.27M9,2H11V4H13V2H15A2,2 0 0,1 17,4V15.18L13,11.18V10H15V8H13V6H11V8H9.82L7,5.18V4A2,2 0 0,1 9,2M9,20H11V18H9V20M13,20H15V18.27L14.73,18H13V20M9,14V16H11V14.27L10.73,14H9Z" />
    </g>
    <g id="mdi-remote-tv-off" transform="translate(396 216) scale(1.5)" fill="#fff">
      <path d="M2,5.27L3.28,4L20,20.72L18.73,22L17,20.25C16.86,21.24 16,22 15,22H9A2,2 0 0,1 7,20V10.27L2,5.27M9,2H11V4H13V2H15A2,2 0 0,1 17,4V15.18L13,11.18V10H15V8H13V6H11V8H9.82L7,5.18V4A2,2 0 0,1 9,2M9,20H11V18H9V20M13,20H15V18.27L14.73,18H13V20M9,14V16H11V14.27L10.73,14H9Z" />
    </g>
    <g id="mdi-rename-box" transform="translate(432 216) scale(1.5)" fill="#555">
      <path d="M18,17H10.5L12.5,15H18M6,17V14.5L13.88,6.65C14.07,6.45 14.39,6.45 14.59,6.65L16.35,8.41C16.55,8.61 16.55,8.92 16.35,9.12L8.47,17M19,3H5C3.89,3 3,3.89 3,5V19A2,2 0 0,0 5,21H19A2,2 0 0,0 21,19V5C21,3.89 20.1,3 19,3Z" />
    </g>
    <g id="mdi-rename-box" transform="translate(468 216) scale(1.5)" fill="#fff">
      <path d="M18,17H10.5L12.5,15H18M6,17V14.5L13.88,6.65C14.07,6.45 14.39,6.45 14.59,6.65L16.35,8.41C16.55,8.61 16.55,8.92 16.35,9.12L8.47,17M19,3H5C3.89,3 3,3.89 3,5V19A2,2 0 0,0 5,21H19A2,2 0 0,0 21,19V5C21,3.89 20.1,3 19,3Z" />
    </g>
    <g id="mdi-reorder-horizontal" transform="translate(504 216) scale(1.5)" fill="#555">
      <path d="M3,15H21V13H3V15M3,19H21V17H3V19M3,11H21V9H3V11M3,5V7H21V5H3Z" />
    </g>
    <g id="mdi-reorder-horizontal" transform="translate(540 216) scale(1.5)" fill="#fff">
      <path d="M3,15H21V13H3V15M3,19H21V17H3V19M3,11H21V9H3V11M3,5V7H21V5H3Z" />
    </g>
    <g id="mdi-reorder-vertical" transform="translate(576 216) scale(1.5)" fill="#555">
      <path d="M9,3V21H11V3H9M5,3V21H7V3H5M13,3V21H15V3H13M19,3H17V21H19V3Z" />
    </g>
    <g id="mdi-reorder-vertical" transform="translate(612 216) scale(1.5)" fill="#fff">
      <path d="M9,3V21H11V3H9M5,3V21H7V3H5M13,3V21H15V3H13M19,3H17V21H19V3Z" />
    </g>
    <g id="mdi-repeat" transform="translate(648 216) scale(1.5)" fill="#555">
      <path d="M17,17H7V14L3,18L7,22V19H19V13H17M7,7H17V10L21,6L17,2V5H5V11H7V7Z" />
    </g>
    <g id="mdi-repeat" transform="translate(684 216) scale(1.5)" fill="#fff">
      <path d="M17,17H7V14L3,18L7,22V19H19V13H17M7,7H17V10L21,6L17,2V5H5V11H7V7Z" />
    </g>
    <g id="mdi-repeat-off" transform="translate(0 252) scale(1.5)" fill="#555">
      <path d="M2,5.27L3.28,4L20,20.72L18.73,22L15.73,19H7V22L3,18L7,14V17H13.73L7,10.27V11H5V8.27L2,5.27M17,13H19V17.18L17,15.18V13M17,5V2L21,6L17,10V7H8.82L6.82,5H17Z" />
    </g>
    <g id="mdi-repeat-off" transform="translate(36 252) scale(1.5)" fill="#fff">
      <path d="M2,5.27L3.28,4L20,20.72L18.73,22L15.73,19H7V22L3,18L7,14V17H13.73L7,10.27V11H5V8.27L2,5.27M17,13H19V17.18L17,15.18V13M17,5V2L21,6L17,10V7H8.82L6.82,5H17Z" />
    </g>
    <g id="mdi-repeat-once" transform="translate(72 252) scale(1.5)" fill="#555">
      <path d="M13,15V9H12L10,10V11H11.5V15M17,17H7V14L3,18L7,22V19H19V13H17M7,7H17V10L21,6L17,2V5H5V11H7V7Z" />
    </g>
    <g id="mdi-repeat-once" transform="translate(108 252) scale(1.5)" fill="#fff">
      <path d="M13,15V9H12L10,10V11H11.5V15M17,17H7V14L3,18L7,22V19H19V13H17M7,7H17V10L21,6L17,2V5H5V11H7V7Z" />
    </g>
    <g id="mdi-replay" transform="translate(144 252) scale(1.5)" fill="#555">
      <path d="M12,5V1L7,6L12,11V7A6,6 0 0,1 18,13A6,6 0 0,1 12,19A6,6 0 0,1 6,13H4A8,8 0 0,0 12,21A8,8 0 0,0 20,13A8,8 0 0,0 12,5Z" />
    </g>
    <g id="mdi-replay" transform="translate(180 252) scale(1.5)" fill="#fff">
      <path d="M12,5V1L7,6L12,11V7A6,6 0 0,1 18,13A6,6 0 0,1 12,19A6,6 0 0,1 6,13H4A8,8 0 0,0 12,21A8,8 0 0,0 20,13A8,8 0 0,0 12,5Z" />
    </g>
    <g id="mdi-reply" transform="translate(216 252) scale(1.5)" fill="#555">
      <path d="M10,9V5L3,12L10,19V14.9C15,14.9 18.5,16.5 21,20C20,15 17,10 10,9Z" />
    </g>
    <g id="mdi-reply" transform="translate(252 252) scale(1.5)" fill="#fff">
      <path d="M10,9V5L3,12L10,19V14.9C15,14.9 18.5,16.5 21,20C20,15 17,10 10,9Z" />
    </g>
    <g id="mdi-reply-all" transform="translate(288 252) scale(1.5)" fill="#555">
      <path d="M13,9V5L6,12L13,19V14.9C18,14.9 21.5,16.5 24,20C23,15 20,10 13,9M7,8V5L0,12L7,19V16L3,12L7,8Z" />
    </g>
    <g id="mdi-reply-all" transform="translate(324 252) scale(1.5)" fill="#fff">
      <path d="M13,9V5L6,12L13,19V14.9C18,14.9 21.5,16.5 24,20C23,15 20,10 13,9M7,8V5L0,12L7,19V16L3,12L7,8Z" />
    </g>
    <g id="mdi-reply-all-outline" transform="translate(360 252) scale(1.5)" fill="#555">
      <path d="M11,9.8V10.7L12.7,10.9C15.3,11.3 17.2,12.3 18.6,13.6C16.9,13.1 15.1,12.8 13,12.8H11V14.1L8.8,12L11,9.8M13,5L6,12L13,19V14.9C18,14.9 21.5,16.5 24,20C23,15 20,10 13,9M7,8V5L0,12L7,19V16L3,12" />
    </g>
    <g id="mdi-reply-all-outline" transform="translate(396 252) scale(1.5)" fill="#fff">
      <path d="M11,9.8V10.7L12.7,10.9C15.3,11.3 17.2,12.3 18.6,13.6C16.9,13.1 15.1,12.8 13,12.8H11V14.1L8.8,12L11,9.8M13,5L6,12L13,19V14.9C18,14.9 21.5,16.5 24,20C23,15 20,10 13,9M7,8V5L0,12L7,19V16L3,12" />
    </g>
    <g id="mdi-reply-circle" transform="translate(432 252) scale(1.5)" fill="#555">
      <path d="M2 12C2 17.5 6.5 22 12 22S22 17.5 22 12 17.5 2 12 2 2 6.5 2 12M5 11L10 6V9C15.06 9.73 17.28 13.33 18 17C16.19 14.43 13.61 13 10 13V16L5 11Z" />
    </g>
    <g id="mdi-reply-circle" transform="translate(468 252) scale(1.5)" fill="#fff">
      <path d="M2 12C2 17.5 6.5 22 12 22S22 17.5 22 12 17.5 2 12 2 2 6.5 2 12M5 11L10 6V9C15.06 9.73 17.28 13.33 18 17C16.19 14.43 13.61 13 10 13V16L5 11Z" />
    </g>
    <g id="mdi-reply-outline" transform="translate(504 252) scale(1.5)" fill="#555">
      <path d="M8,9.8V10.7L9.7,11C12.3,11.4 14.2,12.4 15.6,13.7C13.9,13.2 12.1,12.9 10,12.9H8V14.2L5.8,12L8,9.8M10,5L3,12L10,19V14.9C15,14.9 18.5,16.5 21,20C20,15 17,10 10,9" />
    </g>
    <g id="mdi-reply-outline" transform="translate(540 252) scale(1.5)" fill="#fff">
      <path d="M8,9.8V10.7L9.7,11C12.3,11.4 14.2,12.4 15.6,13.7C13.9,13.2 12.1,12.9 10,12.9H8V14.2L5.8,12L8,9.8M10,5L3,12L10,19V14.9C15,14.9 18.5,16.5 21,20C20,15 17,10 10,9" />
    </g>
    <g id="mdi-reproduction" transform="translate(576 252) scale(1.5)" fill="#555">
      <path d="M12.72,13.15L13.62,12.26C13.6,11 14.31,9.44 15.62,8.14C17.57,6.18 20.11,5.55 21.28,6.72C22.45,7.89 21.82,10.43 19.86,12.38C18.56,13.69 17,14.4 15.74,14.38L14.85,15.28C14.5,15.61 14,15.66 13.6,15.41C12.76,15.71 12,16.08 11.56,16.8C11.03,17.68 11.03,19.1 10.47,19.95C9.91,20.81 8.79,21.1 7.61,21.1C6.43,21.1 5,21 3.95,19.5L6.43,19.92C7,20 8.5,19.39 9.05,18.54C9.61,17.68 9.61,16.27 10.14,15.38C10.61,14.6 11.5,14.23 12.43,13.91C12.42,13.64 12.5,13.36 12.72,13.15M7,2A5,5 0 0,1 12,7A5,5 0 0,1 7,12A5,5 0 0,1 2,7A5,5 0 0,1 7,2M7,4A3,3 0 0,0 4,7A3,3 0 0,0 7,10A3,3 0 0,0 10,7A3,3 0 0,0 7,4Z" />
    </g>
    <g id="mdi-reproduction" transform="translate(612 252) scale(1.5)" fill="#fff">
      <path d="M12.72,13.15L13.62,12.26C13.6,11 14.31,9.44 15.62,8.14C17.57,6.18 20.11,5.55 21.28,6.72C22.45,7.89 21.82,10.43 19.86,12.38C18.56,13.69 17,14.4 15.74,14.38L14.85,15.28C14.5,15.61 14,15.66 13.6,15.41C12.76,15.71 12,16.08 11.56,16.8C11.03,17.68 11.03,19.1 10.47,19.95C9.91,20.81 8.79,21.1 7.61,21.1C6.43,21.1 5,21 3.95,19.5L6.43,19.92C7,20 8.5,19.39 9.05,18.54C9.61,17.68 9.61,16.27 10.14,15.38C10.61,14.6 11.5,14.23 12.43,13.91C12.42,13.64 12.5,13.36 12.72,13.15M7,2A5,5 0 0,1 12,7A5,5 0 0,1 7,12A5,5 0 0,1 2,7A5,5 0 0,1 7,2M7,4A3,3 0 0,0 4,7A3,3 0 0,0 7,10A3,3 0 0,0 10,7A3,3 0 0,0 7,4Z" />
    </g>
    <g id="mdi-resistor" transform="translate(648 252) scale(1.5)" fill="#555">
      <path d="M2,11H7L10.07,15.35L13.11,4L18,11H22V13H17L13.93,8.65L10.89,20L6,13H2V11Z" />
    </g>
    <g id="mdi-resistor" transform="translate(684 252) scale(1.5)" fill="#fff">
      <path d="M2,11H7L10.07,15.35L13.11,4L18,11H22V13H17L13.93,8.65L10.89,20L6,13H2V11Z" />
    </g>
    <g id="mdi-resistor-nodes" transform="translate(0 288) scale(1.5)" fill="#555">
      <path d="M2,11H3.67C4.08,9.83 5.19,9 6.5,9A3,3 0 0,1 9.5,12C9.5,12.65 9.29,13.25 8.94,13.74L10.07,15.35L13.11,4L14.61,6.13L16.7,9.11L17.5,9C18.81,9 19.92,9.83 20.33,11H22V13H20.33C19.92,14.17 18.81,15 17.5,15A3,3 0 0,1 14.5,12C14.5,11.35 14.71,10.75 15.06,10.26L13.93,8.65L10.89,20L7.3,14.89C7.05,14.96 6.78,15 6.5,15C5.19,15 4.08,14.17 3.67,13H2V11M17.5,10.5A1.5,1.5 0 0,0 16,12A1.5,1.5 0 0,0 17.5,13.5A1.5,1.5 0 0,0 19,12A1.5,1.5 0 0,0 17.5,10.5M6.5,10.5A1.5,1.5 0 0,0 5,12A1.5,1.5 0 0,0 6.5,13.5A1.5,1.5 0 0,0 8,12A1.5,1.5 0 0,0 6.5,10.5Z" />
    </g>
    <g id="mdi-resistor-nodes" transform="translate(36 288) scale(1.5)" fill="#fff">
      <path d="M2,11H3.67C4.08,9.83 5.19,9 6.5,9A3,3 0 0,1 9.5,12C9.5,12.65 9.29,13.25 8.94,13.74L10.07,15.35L13.11,4L14.61,6.13L16.7,9.11L17.5,9C18.81,9 19.92,9.83 20.33,11H22V13H20.33C19.92,14.17 18.81,15 17.5,15A3,3 0 0,1 14.5,12C14.5,11.35 14.71,10.75 15.06,10.26L13.93,8.65L10.89,20L7.3,14.89C7.05,14.96 6.78,15 6.5,15C5.19,15 4.08,14.17 3.67,13H2V11M17.5,10.5A1.5,1.5 0 0,0 16,12A1.5,1.5 0 0,0 17.5,13.5A1.5,1.5 0 0,0 19,12A1.5,1.5 0 0,0 17.5,10.5M6.5,10.5A1.5,1.5 0 0,0 5,12A1.5,1.5 0 0,0 6.5,13.5A1.5,1.5 0 0,0 8,12A1.5,1.5 0 0,0 6.5,10.5Z" />
    </g>
    <g id="mdi-resize" transform="translate(72 288) scale(1.5)" fill="#555">
      <path d="M10.59,12L14.59,8H11V6H18V13H16V9.41L12,13.41V16H20V4H8V12H10.59M22,2V18H12V22H2V12H6V2H22M10,14H4V20H10V14Z" />
    </g>
    <g id="mdi-resize" transform="translate(108 288) scale(1.5)" fill="#fff">
      <path d="M10.59,12L14.59,8H11V6H18V13H16V9.41L12,13.41V16H20V4H8V12H10.59M22,2V18H12V22H2V12H6V2H22M10,14H4V20H10V14Z" />
    </g>
    <g id="mdi-resize-bottom-right" transform="translate(144 288) scale(1.5)" fill="#555">
      <path d="M22,22H20V20H22V22M22,18H20V16H22V18M18,22H16V20H18V22M18,18H16V16H18V18M14,22H12V20H14V22M22,14H20V12H22V14Z" />
    </g>
    <g id="mdi-resize-bottom-right" transform="translate(180 288) scale(1.5)" fill="#fff">
      <path d="M22,22H20V20H22V22M22,18H20V16H22V18M18,22H16V20H18V22M18,18H16V16H18V18M14,22H12V20H14V22M22,14H20V12H22V14Z" />
    </g>
    <g id="mdi-responsive" transform="translate(216 288) scale(1.5)" fill="#555">
      <path d="M4,6V16H9V12A2,2 0 0,1 11,10H16A2,2 0 0,1 18,12V16H20V6H4M0,20V18H4A2,2 0 0,1 2,16V6A2,2 0 0,1 4,4H20A2,2 0 0,1 22,6V16A2,2 0 0,1 20,18H24V20H18V20C18,21.11 17.1,22 16,22H11A2,2 0 0,1 9,20H9L0,20M11.5,20A0.5,0.5 0 0,0 11,20.5A0.5,0.5 0 0,0 11.5,21A0.5,0.5 0 0,0 12,20.5A0.5,0.5 0 0,0 11.5,20M15.5,20A0.5,0.5 0 0,0 15,20.5A0.5,0.5 0 0,0 15.5,21A0.5,0.5 0 0,0 16,20.5A0.5,0.5 0 0,0 15.5,20M13,20V21H14V20H13M11,12V19H16V12H11Z" />
    </g>
    <g id="mdi-responsive" transform="translate(252 288) scale(1.5)" fill="#fff">
      <path d="M4,6V16H9V12A2,2 0 0,1 11,10H16A2,2 0 0,1 18,12V16H20V6H4M0,20V18H4A2,2 0 0,1 2,16V6A2,2 0 0,1 4,4H20A2,2 0 0,1 22,6V16A2,2 0 0,1 20,18H24V20H18V20C18,21.11 17.1,22 16,22H11A2,2 0 0,1 9,20H9L0,20M11.5,20A0.5,0.5 0 0,0 11,20.5A0.5,0.5 0 0,0 11.5,21A0.5,0.5 0 0,0 12,20.5A0.5,0.5 0 0,0 11.5,20M15.5,20A0.5,0.5 0 0,0 15,20.5A0.5,0.5 0 0,0 15.5,21A0.5,0.5 0 0,0 16,20.5A0.5,0.5 0 0,0 15.5,20M13,20V21H14V20H13M11,12V19H16V12H11Z" />
    </g>
    <g id="mdi-restart" transform="translate(288 288) scale(1.5)" fill="#555">
      <path d="M12,4C14.1,4 16.1,4.8 17.6,6.3C20.7,9.4 20.7,14.5 17.6,17.6C15.8,19.5 13.3,20.2 10.9,19.9L11.4,17.9C13.1,18.1 14.9,17.5 16.2,16.2C18.5,13.9 18.5,10.1 16.2,7.7C15.1,6.6 13.5,6 12,6V10.6L7,5.6L12,0.6V4M6.3,17.6C3.7,15 3.3,11 5.1,7.9L6.6,9.4C5.5,11.6 5.9,14.4 7.8,16.2C8.3,16.7 8.9,17.1 9.6,17.4L9,19.4C8,19 7.1,18.4 6.3,17.6Z" />
    </g>
    <g id="mdi-restart" transform="translate(324 288) scale(1.5)" fill="#fff">
      <path d="M12,4C14.1,4 16.1,4.8 17.6,6.3C20.7,9.4 20.7,14.5 17.6,17.6C15.8,19.5 13.3,20.2 10.9,19.9L11.4,17.9C13.1,18.1 14.9,17.5 16.2,16.2C18.5,13.9 18.5,10.1 16.2,7.7C15.1,6.6 13.5,6 12,6V10.6L7,5.6L12,0.6V4M6.3,17.6C3.7,15 3.3,11 5.1,7.9L6.6,9.4C5.5,11.6 5.9,14.4 7.8,16.2C8.3,16.7 8.9,17.1 9.6,17.4L9,19.4C8,19 7.1,18.4 6.3,17.6Z" />
    </g>
    <g id="mdi-restart-alert" transform="translate(360 288) scale(1.5)" fill="#555">
      <path d="M10 4.03V.633L5 5.63L10 10.63V6.03C11.5 6.03 13.11 6.63 14.21 7.73C16.5 10.13 16.5 13.93 14.21 16.23C12.91 17.53 11.11 18.13 9.4 17.93L8.9 19.93C11.31 20.23 13.81 19.53 15.61 17.63C18.7 14.53 18.7 9.43 15.61 6.33C14.11 4.83 12.11 4.03 10 4.03M4.31 17.63C5.11 18.43 6 19.03 7 19.43L7.61 17.43C6.91 17.13 6.31 16.73 5.81 16.23C3.91 14.43 3.5 11.63 4.61 9.43L3.11 7.93C1.31 11.03 1.71 15.03 4.31 17.63M20 13H22V7H20V13M20 17H22V15H20V17Z" />
    </g>
    <g id="mdi-restart-alert" transform="translate(396 288) scale(1.5)" fill="#fff">
      <path d="M10 4.03V.633L5 5.63L10 10.63V6.03C11.5 6.03 13.11 6.63 14.21 7.73C16.5 10.13 16.5 13.93 14.21 16.23C12.91 17.53 11.11 18.13 9.4 17.93L8.9 19.93C11.31 20.23 13.81 19.53 15.61 17.63C18.7 14.53 18.7 9.43 15.61 6.33C14.11 4.83 12.11 4.03 10 4.03M4.31 17.63C5.11 18.43 6 19.03 7 19.43L7.61 17.43C6.91 17.13 6.31 16.73 5.81 16.23C3.91 14.43 3.5 11.63 4.61 9.43L3.11 7.93C1.31 11.03 1.71 15.03 4.31 17.63M20 13H22V7H20V13M20 17H22V15H20V17Z" />
    </g>
    <g id="mdi-restart-off" transform="translate(432 288) scale(1.5)" fill="#555">
      <path d="M20.8,22.7L16.6,18.5C14.9,19.7 12.9,20.2 10.9,19.9L11.4,17.9C12.7,18 14,17.7 15.1,17L1.1,3L2.4,1.7L16.5,15.8L17.9,17.2L22.1,21.4L20.8,22.7M12,6C13.5,6 15.1,6.6 16.2,7.8C18,9.6 18.4,12.2 17.5,14.4L19,15.9C20.7,12.9 20.2,9 17.6,6.4C16.1,4.8 14,4 12,4V0.7L7.9,4.7L12,8.8V6M6.6,9.4L5.1,7.9C3.3,11 3.7,15 6.3,17.7C7.1,18.4 8,19 9,19.4L9.5,17.4C8.9,17.1 8.3,16.7 7.7,16.2C5.9,14.4 5.5,11.6 6.6,9.4Z" />
    </g>
    <g id="mdi-restart-off" transform="translate(468 288) scale(1.5)" fill="#fff">
      <path d="M20.8,22.7L16.6,18.5C14.9,19.7 12.9,20.2 10.9,19.9L11.4,17.9C12.7,18 14,17.7 15.1,17L1.1,3L2.4,1.7L16.5,15.8L17.9,17.2L22.1,21.4L20.8,22.7M12,6C13.5,6 15.1,6.6 16.2,7.8C18,9.6 18.4,12.2 17.5,14.4L19,15.9C20.7,12.9 20.2,9 17.6,6.4C16.1,4.8 14,4 12,4V0.7L7.9,4.7L12,8.8V6M6.6,9.4L5.1,7.9C3.3,11 3.7,15 6.3,17.7C7.1,18.4 8,19 9,19.4L9.5,17.4C8.9,17.1 8.3,16.7 7.7,16.2C5.9,14.4 5.5,11.6 6.6,9.4Z" />
    </g>
    <g id="mdi-restore" transform="translate(504 288) scale(1.5)" fill="#555">
      <path d="M13,3A9,9 0 0,0 4,12H1L4.89,15.89L4.96,16.03L9,12H6A7,7 0 0,1 13,5A7,7 0 0,1 20,12A7,7 0 0,1 13,19C11.07,19 9.32,18.21 8.06,16.94L6.64,18.36C8.27,20 10.5,21 13,21A9,9 0 0,0 22,12A9,9 0 0,0 13,3Z" />
    </g>
    <g id="mdi-restore" transform="translate(540 288) scale(1.5)" fill="#fff">
      <path d="M13,3A9,9 0 0,0 4,12H1L4.89,15.89L4.96,16.03L9,12H6A7,7 0 0,1 13,5A7,7 0 0,1 20,12A7,7 0 0,1 13,19C11.07,19 9.32,18.21 8.06,16.94L6.64,18.36C8.27,20 10.5,21 13,21A9,9 0 0,0 22,12A9,9 0 0,0 13,3Z" />
    </g>
    <g id="mdi-restore-alert" transform="translate(576 288) scale(1.5)" fill="#555">
      <path d="M13 3C8 3 4 7 4 12H1L4.9 15.9L5 16L9 12H6C6 8.1 9.1 5 13 5S20 8.1 20 12 16.9 19 13 19C11.1 19 9.3 18.2 8.1 16.9L6.7 18.3C8.3 20 10.5 21 13 21C18 21 22 17 22 12S18 3 13 3M12 15H14V17H12V15M12 7H14V13H12V7" />
    </g>
    <g id="mdi-restore-alert" transform="translate(612 288) scale(1.5)" fill="#fff">
      <path d="M13 3C8 3 4 7 4 12H1L4.9 15.9L5 16L9 12H6C6 8.1 9.1 5 13 5S20 8.1 20 12 16.9 19 13 19C11.1 19 9.3 18.2 8.1 16.9L6.7 18.3C8.3 20 10.5 21 13 21C18 21 22 17 22 12S18 3 13 3M12 15H14V17H12V15M12 7H14V13H12V7" />
    </g>
    <g id="mdi-rewind" transform="translate(648 288) scale(1.5)" fill="#555">
      <path d="M11.5,12L20,18V6M11,18V6L2.5,12L11,18Z" />
    </g>
    <g id="mdi-rewind" transform="translate(684 288) scale(1.5)" fill="#fff">
      <path d="M11.5,12L20,18V6M11,18V6L2.5,12L11,18Z" />
    </g>
    <g id="mdi-rewind-10" transform="translate(0 324) scale(1.5)" fill="#555">
      <path d="M12.5,3C17.15,3 21.08,6.03 22.47,10.22L20.1,11C19.05,7.81 16.04,5.5 12.5,5.5C10.54,5.5 8.77,6.22 7.38,7.38L10,10H3V3L5.6,5.6C7.45,4 9.85,3 12.5,3M10,12V22H8V14H6V12H10M18,14V20C18,21.11 17.11,22 16,22H14A2,2 0 0,1 12,20V14A2,2 0 0,1 14,12H16C17.11,12 18,12.9 18,14M14,14V20H16V14H14Z" />
    </g>
    <g id="mdi-rewind-10" transform="translate(36 324) scale(1.5)" fill="#fff">
      <path d="M12.5,3C17.15,3 21.08,6.03 22.47,10.22L20.1,11C19.05,7.81 16.04,5.5 12.5,5.5C10.54,5.5 8.77,6.22 7.38,7.38L10,10H3V3L5.6,5.6C7.45,4 9.85,3 12.5,3M10,12V22H8V14H6V12H10M18,14V20C18,21.11 17.11,22 16,22H14A2,2 0 0,1 12,20V14A2,2 0 0,1 14,12H16C17.11,12 18,12.9 18,14M14,14V20H16V14H14Z" />
    </g>
    <g id="mdi-rewind-30" transform="translate(72 324) scale(1.5)" fill="#555">
      <path d="M19,14V20C19,21.11 18.11,22 17,22H15A2,2 0 0,1 13,20V14A2,2 0 0,1 15,12H17C18.11,12 19,12.9 19,14M15,14V20H17V14H15M11,20C11,21.11 10.1,22 9,22H5V20H9V18H7V16H9V14H5V12H9A2,2 0 0,1 11,14V15.5A1.5,1.5 0 0,1 9.5,17A1.5,1.5 0 0,1 11,18.5V20M12.5,3C17.15,3 21.08,6.03 22.47,10.22L20.1,11C19.05,7.81 16.04,5.5 12.5,5.5C10.54,5.5 8.77,6.22 7.38,7.38L10,10H3V3L5.6,5.6C7.45,4 9.85,3 12.5,3Z" />
    </g>
    <g id="mdi-rewind-30" transform="translate(108 324) scale(1.5)" fill="#fff">
      <path d="M19,14V20C19,21.11 18.11,22 17,22H15A2,2 0 0,1 13,20V14A2,2 0 0,1 15,12H17C18.11,12 19,12.9 19,14M15,14V20H17V14H15M11,20C11,21.11 10.1,22 9,22H5V20H9V18H7V16H9V14H5V12H9A2,2 0 0,1 11,14V15.5A1.5,1.5 0 0,1 9.5,17A1.5,1.5 0 0,1 11,18.5V20M12.5,3C17.15,3 21.08,6.03 22.47,10.22L20.1,11C19.05,7.81 16.04,5.5 12.5,5.5C10.54,5.5 8.77,6.22 7.38,7.38L10,10H3V3L5.6,5.6C7.45,4 9.85,3 12.5,3Z" />
    </g>
    <g id="mdi-rewind-5" transform="translate(144 324) scale(1.5)" fill="#555">
      <path d="M12.5 3C17.15 3 21.08 6.03 22.47 10.22L20.1 11C19.05 7.81 16.04 5.5 12.5 5.5C10.54 5.5 8.77 6.22 7.38 7.38L10 10H3V3L5.6 5.6C7.45 4 9.85 3 12.5 3M9 12H15V14H11V16H13C14.11 16 15 16.9 15 18V20C15 21.11 14.11 22 13 22H9V20H13V18H9V12Z" />
    </g>
    <g id="mdi-rewind-5" transform="translate(180 324) scale(1.5)" fill="#fff">
      <path d="M12.5 3C17.15 3 21.08 6.03 22.47 10.22L20.1 11C19.05 7.81 16.04 5.5 12.5 5.5C10.54 5.5 8.77 6.22 7.38 7.38L10 10H3V3L5.6 5.6C7.45 4 9.85 3 12.5 3M9 12H15V14H11V16H13C14.11 16 15 16.9 15 18V20C15 21.11 14.11 22 13 22H9V20H13V18H9V12Z" />
    </g>
    <g id="mdi-rewind-60" transform="translate(216 324) scale(1.5)" fill="#555">
      <path d="M19 14V20C19 21.1 18.1 22 17 22H15C13.9 22 13 21.1 13 20V14C13 12.9 13.9 12 15 12H17C18.1 12 19 12.9 19 14M15 14V20H17V14H15M12.5 3C17.1 3 21.1 6 22.5 10.2L20.1 11C19 7.8 16 5.5 12.5 5.5C10.5 5.5 8.8 6.2 7.4 7.4L10 10H3V3L5.6 5.6C7.4 4 9.9 3 12.5 3M7 12C5.9 12 5 12.9 5 14V20C5 21.1 5.9 22 7 22H9C10.1 22 11 21.1 11 20V18C11 16.9 10.1 16 9 16H7V14H11V12H7M7 18H9V20H7V18Z" />
    </g>
    <g id="mdi-rewind-60" transform="translate(252 324) scale(1.5)" fill="#fff">
      <path d="M19 14V20C19 21.1 18.1 22 17 22H15C13.9 22 13 21.1 13 20V14C13 12.9 13.9 12 15 12H17C18.1 12 19 12.9 19 14M15 14V20H17V14H15M12.5 3C17.1 3 21.1 6 22.5 10.2L20.1 11C19 7.8 16 5.5 12.5 5.5C10.5 5.5 8.8 6.2 7.4 7.4L10 10H3V3L5.6 5.6C7.4 4 9.9 3 12.5 3M7 12C5.9 12 5 12.9 5 14V20C5 21.1 5.9 22 7 22H9C10.1 22 11 21.1 11 20V18C11 16.9 10.1 16 9 16H7V14H11V12H7M7 18H9V20H7V18Z" />
    </g>
    <g id="mdi-rewind-outline" transform="translate(288 324) scale(1.5)" fill="#555">
      <path d="M10,9.9L7,12L10,14.1V9.9M19,9.9L16,12L19,14.1V9.9M12,6V18L3.5,12L12,6M21,6V18L12.5,12L21,6Z" />
    </g>
    <g id="mdi-rewind-outline" transform="translate(324 324) scale(1.5)" fill="#fff">
      <path d="M10,9.9L7,12L10,14.1V9.9M19,9.9L16,12L19,14.1V9.9M12,6V18L3.5,12L12,6M21,6V18L12.5,12L21,6Z" />
    </g>
    <g id="mdi-rhombus" transform="translate(360 324) scale(1.5)" fill="#555">
      <path d="M12 2C11.5 2 11 2.19 10.59 2.59L2.59 10.59C1.8 11.37 1.8 12.63 2.59 13.41L10.59 21.41C11.37 22.2 12.63 22.2 13.41 21.41L21.41 13.41C22.2 12.63 22.2 11.37 21.41 10.59L13.41 2.59C13 2.19 12.5 2 12 2Z" />
    </g>
    <g id="mdi-rhombus" transform="translate(396 324) scale(1.5)" fill="#fff">
      <path d="M12 2C11.5 2 11 2.19 10.59 2.59L2.59 10.59C1.8 11.37 1.8 12.63 2.59 13.41L10.59 21.41C11.37 22.2 12.63 22.2 13.41 21.41L21.41 13.41C22.2 12.63 22.2 11.37 21.41 10.59L13.41 2.59C13 2.19 12.5 2 12 2Z" />
    </g>
    <g id="mdi-rhombus-medium" transform="translate(432 324) scale(1.5)" fill="#555">
      <path d="M12 6.46C11.72 6.46 11.44 6.56 11.22 6.78L6.78 11.22C6.35 11.65 6.35 12.35 6.78 12.78L11.22 17.22C11.65 17.65 12.35 17.65 12.78 17.22L17.22 12.78C17.65 12.35 17.65 11.65 17.22 11.22L12.78 6.78C12.56 6.56 12.28 6.46 12 6.46Z" />
    </g>
    <g id="mdi-rhombus-medium" transform="translate(468 324) scale(1.5)" fill="#fff">
      <path d="M12 6.46C11.72 6.46 11.44 6.56 11.22 6.78L6.78 11.22C6.35 11.65 6.35 12.35 6.78 12.78L11.22 17.22C11.65 17.65 12.35 17.65 12.78 17.22L17.22 12.78C17.65 12.35 17.65 11.65 17.22 11.22L12.78 6.78C12.56 6.56 12.28 6.46 12 6.46Z" />
    </g>
    <g id="mdi-rhombus-medium-outline" transform="translate(504 324) scale(1.5)" fill="#555">
      <path d="M12 6.46C11.72 6.46 11.44 6.56 11.22 6.78L6.78 11.22C6.35 11.65 6.35 12.35 6.78 12.78L11.22 17.22C11.65 17.65 12.35 17.65 12.78 17.22L17.22 12.78C17.65 12.35 17.65 11.65 17.22 11.22L12.78 6.78C12.56 6.56 12.28 6.46 12 6.46M12 8.83L15.17 12L12 15.17L8.83 12L12 8.83Z" />
    </g>
    <g id="mdi-rhombus-medium-outline" transform="translate(540 324) scale(1.5)" fill="#fff">
      <path d="M12 6.46C11.72 6.46 11.44 6.56 11.22 6.78L6.78 11.22C6.35 11.65 6.35 12.35 6.78 12.78L11.22 17.22C11.65 17.65 12.35 17.65 12.78 17.22L17.22 12.78C17.65 12.35 17.65 11.65 17.22 11.22L12.78 6.78C12.56 6.56 12.28 6.46 12 6.46M12 8.83L15.17 12L12 15.17L8.83 12L12 8.83Z" />
    </g>
    <g id="mdi-rhombus-outline" transform="translate(576 324) scale(1.5)" fill="#555">
      <path d="M12 2C11.5 2 11 2.19 10.59 2.59L2.59 10.59C1.8 11.37 1.8 12.63 2.59 13.41L10.59 21.41C11.37 22.2 12.63 22.2 13.41 21.41L21.41 13.41C22.2 12.63 22.2 11.37 21.41 10.59L13.41 2.59C13 2.19 12.5 2 12 2M12 4L20 12L12 20L4 12Z" />
    </g>
    <g id="mdi-rhombus-outline" transform="translate(612 324) scale(1.5)" fill="#fff">
      <path d="M12 2C11.5 2 11 2.19 10.59 2.59L2.59 10.59C1.8 11.37 1.8 12.63 2.59 13.41L10.59 21.41C11.37 22.2 12.63 22.2 13.41 21.41L21.41 13.41C22.2 12.63 22.2 11.37 21.41 10.59L13.41 2.59C13 2.19 12.5 2 12 2M12 4L20 12L12 20L4 12Z" />
    </g>
    <g id="mdi-rhombus-split" transform="translate(648 324) scale(1.5)" fill="#555">
      <path d="M12 2C11.5 2 11 2.19 10.59 2.59L7.29 5.88L12 10.58L16.71 5.88L13.41 2.59C13 2.19 12.5 2 12 2M5.88 7.29L2.59 10.59C1.8 11.37 1.8 12.63 2.59 13.41L5.88 16.71L10.58 12L5.88 7.29M18.12 7.29L13.42 12L18.12 16.71L21.41 13.41C22.2 12.63 22.2 11.37 21.41 10.59L18.12 7.29M12 13.42L7.29 18.12L10.59 21.41C11.37 22.2 12.63 22.2 13.41 21.41L16.71 18.12L12 13.42Z" />
    </g>
    <g id="mdi-rhombus-split" transform="translate(684 324) scale(1.5)" fill="#fff">
      <path d="M12 2C11.5 2 11 2.19 10.59 2.59L7.29 5.88L12 10.58L16.71 5.88L13.41 2.59C13 2.19 12.5 2 12 2M5.88 7.29L2.59 10.59C1.8 11.37 1.8 12.63 2.59 13.41L5.88 16.71L10.58 12L5.88 7.29M18.12 7.29L13.42 12L18.12 16.71L21.41 13.41C22.2 12.63 22.2 11.37 21.41 10.59L18.12 7.29M12 13.42L7.29 18.12L10.59 21.41C11.37 22.2 12.63 22.2 13.41 21.41L16.71 18.12L12 13.42Z" />
    </g>
  </svg>