<?xml version="1.0" encoding="UTF-8"?>
<!DOCTYPE svg PUBLIC "-//W3C//DTD SVG 1.1//EN" "http://www.w3.org/Graphics/SVG/1.1/DTD/svg11.dtd"><svg
  xmlns="http://www.w3.org/2000/svg" xmlns:xlink="http://www.w3.org/1999/xlink" version="1.1"
  width="720" height="900" viewBox="0 0 720 900">
    <g id="mdi-square-outline" transform="translate(0 0) scale(1.5)" fill="#555">
      <path d="M3,3H21V21H3V3M5,5V19H19V5H5Z" />
    </g>
    <g id="mdi-square-outline" transform="translate(36 0) scale(1.5)" fill="#fff">
      <path d="M3,3H21V21H3V3M5,5V19H19V5H5Z" />
    </g>
    <g id="mdi-square-root" transform="translate(72 0) scale(1.5)" fill="#555">
      <path d="M11.76,16.83L14.59,14L11.76,11.17L13.17,9.76L16,12.59L18.83,9.76L20.24,11.17L17.41,14L20.24,16.83L18.83,18.24L16,15.41L13.17,18.24L11.76,16.83M2,11H5V11H5L7.29,16.4L10,6H22V8H11.55L8.68,19H6.22L3.68,13H2V11Z" />
    </g>
    <g id="mdi-square-root" transform="translate(108 0) scale(1.5)" fill="#fff">
      <path d="M11.76,16.83L14.59,14L11.76,11.17L13.17,9.76L16,12.59L18.83,9.76L20.24,11.17L17.41,14L20.24,16.83L18.83,18.24L16,15.41L13.17,18.24L11.76,16.83M2,11H5V11H5L7.29,16.4L10,6H22V8H11.55L8.68,19H6.22L3.68,13H2V11Z" />
    </g>
    <g id="mdi-square-root-box" transform="translate(144 0) scale(1.5)" fill="#555">
      <path d="M5,3C3.89,3 3,3.89 3,5V19A2,2 0 0,0 5,21H19A2,2 0 0,0 21,19V5A2,2 0 0,0 19,3H5M11.24,6H19V8H12.76L10,18H8L6.25,12H5V10H7.75L9,14.28L11.24,6V6M14,10.59L15.79,12.38L17.59,10.59L19,12L17.21,13.79L19,15.59L17.59,17L15.79,15.21L14,17L12.59,15.59L14.38,13.79L12.59,12L14,10.59Z" />
    </g>
    <g id="mdi-square-root-box" transform="translate(180 0) scale(1.5)" fill="#fff">
      <path d="M5,3C3.89,3 3,3.89 3,5V19A2,2 0 0,0 5,21H19A2,2 0 0,0 21,19V5A2,2 0 0,0 19,3H5M11.24,6H19V8H12.76L10,18H8L6.25,12H5V10H7.75L9,14.28L11.24,6V6M14,10.59L15.79,12.38L17.59,10.59L19,12L17.21,13.79L19,15.59L17.59,17L15.79,15.21L14,17L12.59,15.59L14.38,13.79L12.59,12L14,10.59Z" />
    </g>
    <g id="mdi-square-rounded" transform="translate(216 0) scale(1.5)" fill="#555">
      <path d="M8 3H16C18.76 3 21 5.24 21 8V16C21 18.76 18.76 21 16 21H8C5.24 21 3 18.76 3 16V8C3 5.24 5.24 3 8 3Z" />
    </g>
    <g id="mdi-square-rounded" transform="translate(252 0) scale(1.5)" fill="#fff">
      <path d="M8 3H16C18.76 3 21 5.24 21 8V16C21 18.76 18.76 21 16 21H8C5.24 21 3 18.76 3 16V8C3 5.24 5.24 3 8 3Z" />
    </g>
    <g id="mdi-square-rounded-outline" transform="translate(288 0) scale(1.5)" fill="#555">
      <path d="M8 3H16C18.76 3 21 5.24 21 8V16C21 18.76 18.76 21 16 21H8C5.24 21 3 18.76 3 16V8C3 5.24 5.24 3 8 3M8 5C6.34 5 5 6.34 5 8V16C5 17.66 6.34 19 8 19H16C17.66 19 19 17.66 19 16V8C19 6.34 17.66 5 16 5H8Z" />
    </g>
    <g id="mdi-square-rounded-outline" transform="translate(324 0) scale(1.5)" fill="#fff">
      <path d="M8 3H16C18.76 3 21 5.24 21 8V16C21 18.76 18.76 21 16 21H8C5.24 21 3 18.76 3 16V8C3 5.24 5.24 3 8 3M8 5C6.34 5 5 6.34 5 8V16C5 17.66 6.34 19 8 19H16C17.66 19 19 17.66 19 16V8C19 6.34 17.66 5 16 5H8Z" />
    </g>
    <g id="mdi-square-small" transform="translate(360 0) scale(1.5)" fill="#555">
      <path d="M10,14V10H14V14H10Z" />
    </g>
    <g id="mdi-square-small" transform="translate(396 0) scale(1.5)" fill="#fff">
      <path d="M10,14V10H14V14H10Z" />
    </g>
    <g id="mdi-square-wave" transform="translate(432 0) scale(1.5)" fill="#555">
      <path d="M2 2V12H4V4H11V22H22V12H20V20H13V2H2Z" />
    </g>
    <g id="mdi-square-wave" transform="translate(468 0) scale(1.5)" fill="#fff">
      <path d="M2 2V12H4V4H11V22H22V12H20V20H13V2H2Z" />
    </g>
    <g id="mdi-squeegee" transform="translate(504 0) scale(1.5)" fill="#555">
      <path d="M22,2V5H2V2H22M2,8H7L9,10H10V20A2,2 0 0,0 12,22A2,2 0 0,0 14,20V10H15L17,8H22V6H2V8Z" />
    </g>
    <g id="mdi-squeegee" transform="translate(540 0) scale(1.5)" fill="#fff">
      <path d="M22,2V5H2V2H22M2,8H7L9,10H10V20A2,2 0 0,0 12,22A2,2 0 0,0 14,20V10H15L17,8H22V6H2V8Z" />
    </g>
    <g id="mdi-ssh" transform="translate(576 0) scale(1.5)" fill="#555">
      <path d="M4.5,9C3.9,9 3.5,9.5 3.5,10V11.75C3.5,12.25 3.9,12.75 4.5,12.75H7V13.5H3.5V15H7.5C8.1,15 8.5,14.5 8.5,14V12.25C8.5,11.75 8.1,11.25 7.5,11.25H5V10.5H8.5V9H4.5M10.5,9C9.9,9 9.5,9.5 9.5,10V11.75C9.5,12.25 9.9,12.75 10.5,12.75H13V13.5H9.5V15H13.5C14.1,15 14.5,14.5 14.5,14V12.25C14.5,11.75 14.1,11.25 13.5,11.25H11V10.5H14.5V9H10.5M15.5,9V15H17V12.5H19V15H20.5V9H19V11H17V9H15.5Z" />
    </g>
    <g id="mdi-ssh" transform="translate(612 0) scale(1.5)" fill="#fff">
      <path d="M4.5,9C3.9,9 3.5,9.5 3.5,10V11.75C3.5,12.25 3.9,12.75 4.5,12.75H7V13.5H3.5V15H7.5C8.1,15 8.5,14.5 8.5,14V12.25C8.5,11.75 8.1,11.25 7.5,11.25H5V10.5H8.5V9H4.5M10.5,9C9.9,9 9.5,9.5 9.5,10V11.75C9.5,12.25 9.9,12.75 10.5,12.75H13V13.5H9.5V15H13.5C14.1,15 14.5,14.5 14.5,14V12.25C14.5,11.75 14.1,11.25 13.5,11.25H11V10.5H14.5V9H10.5M15.5,9V15H17V12.5H19V15H20.5V9H19V11H17V9H15.5Z" />
    </g>
    <g id="mdi-stack-exchange" transform="translate(648 0) scale(1.5)" fill="#555">
      <path d="M3.9 10.72H20V14.03H3.9V10.72M3.9 6.44H20V9.75H3.9V6.44M17.5 2H6.5C5.06 2 3.9 3.18 3.9 4.65V5.5H20V4.65C20 3.18 18.88 2 17.5 2M3.9 15V15.84C3.9 17.31 5.06 18.5 6.5 18.5H13.37V22L16.77 18.5H17.5C18.94 18.5 20.11 17.31 20.11 15.84V15H3.9Z" />
    </g>
    <g id="mdi-stack-exchange" transform="translate(684 0) scale(1.5)" fill="#fff">
      <path d="M3.9 10.72H20V14.03H3.9V10.72M3.9 6.44H20V9.75H3.9V6.44M17.5 2H6.5C5.06 2 3.9 3.18 3.9 4.65V5.5H20V4.65C20 3.18 18.88 2 17.5 2M3.9 15V15.84C3.9 17.31 5.06 18.5 6.5 18.5H13.37V22L16.77 18.5H17.5C18.94 18.5 20.11 17.31 20.11 15.84V15H3.9Z" />
    </g>
    <g id="mdi-stack-overflow" transform="translate(0 36) scale(1.5)" fill="#555">
      <path d="M17.36,20.2V14.82H19.15V22H3V14.82H4.8V20.2H17.36M6.77,14.32L7.14,12.56L15.93,14.41L15.56,16.17L6.77,14.32M7.93,10.11L8.69,8.5L16.83,12.28L16.07,13.9L7.93,10.11M10.19,6.12L11.34,4.74L18.24,10.5L17.09,11.87L10.19,6.12M14.64,1.87L20,9.08L18.56,10.15L13.2,2.94L14.64,1.87M6.59,18.41V16.61H15.57V18.41H6.59Z" />
    </g>
    <g id="mdi-stack-overflow" transform="translate(36 36) scale(1.5)" fill="#fff">
      <path d="M17.36,20.2V14.82H19.15V22H3V14.82H4.8V20.2H17.36M6.77,14.32L7.14,12.56L15.93,14.41L15.56,16.17L6.77,14.32M7.93,10.11L8.69,8.5L16.83,12.28L16.07,13.9L7.93,10.11M10.19,6.12L11.34,4.74L18.24,10.5L17.09,11.87L10.19,6.12M14.64,1.87L20,9.08L18.56,10.15L13.2,2.94L14.64,1.87M6.59,18.41V16.61H15.57V18.41H6.59Z" />
    </g>
    <g id="mdi-stackpath" transform="translate(72 36) scale(1.5)" fill="#555">
      <path d="M4.91 8C4.04 8 3.32 8.2 2.76 8.61C2.19 9 1.91 9.53 1.91 10.19C1.91 10.85 2.15 11.37 2.62 11.72C3.1 12.07 3.82 12.41 4.8 12.72C5.27 12.88 5.6 13.04 5.78 13.19C5.96 13.34 6.05 13.55 6.05 13.83C6.05 14.07 5.96 14.26 5.78 14.41C5.6 14.56 5.32 14.63 4.94 14.63C4.45 14.63 4.09 14.54 3.85 14.35C3.6 14.16 3.5 13.84 3.5 13.39H1.72L1.71 13.42C1.7 14.25 2 14.89 2.66 15.33C3.3 15.78 4.06 16 4.94 16C5.82 16 6.5 15.8 7.06 15.42C7.59 15.03 7.86 14.5 7.86 13.81C7.86 13.14 7.63 12.61 7.19 12.23C6.74 11.84 6.08 11.5 5.2 11.26C4.62 11.05 4.23 10.88 4 10.74C3.81 10.6 3.71 10.42 3.71 10.2C3.71 9.96 3.81 9.76 4 9.6C4.22 9.44 4.5 9.36 4.87 9.36C5.24 9.36 5.53 9.46 5.74 9.65C5.96 9.84 6.07 10.12 6.06 10.41H7.8L7.82 10.37C7.84 9.68 7.57 9.11 7 8.66C6.47 8.22 5.77 8 4.91 8M9 8.05V15.93H10.84V13.23H11.96C12.89 13.23 13.63 13 14.18 12.5C14.73 12.05 15 11.42 15 10.64C15 9.87 14.73 9.25 14.18 8.77C13.63 8.29 12.89 8.05 11.96 8.05H9M17.24 8.05L14.5 15.93H16.22L19 8.05M20.5 8.05L17.79 15.93H19.5L22.29 8.05M10.84 9.46H11.96C12.35 9.46 12.66 9.57 12.86 9.8C13.07 10 13.17 10.31 13.17 10.65C13.17 11 13.07 11.28 12.86 11.5C12.66 11.71 12.35 11.82 11.96 11.82H10.84" />
    </g>
    <g id="mdi-stackpath" transform="translate(108 36) scale(1.5)" fill="#fff">
      <path d="M4.91 8C4.04 8 3.32 8.2 2.76 8.61C2.19 9 1.91 9.53 1.91 10.19C1.91 10.85 2.15 11.37 2.62 11.72C3.1 12.07 3.82 12.41 4.8 12.72C5.27 12.88 5.6 13.04 5.78 13.19C5.96 13.34 6.05 13.55 6.05 13.83C6.05 14.07 5.96 14.26 5.78 14.41C5.6 14.56 5.32 14.63 4.94 14.63C4.45 14.63 4.09 14.54 3.85 14.35C3.6 14.16 3.5 13.84 3.5 13.39H1.72L1.71 13.42C1.7 14.25 2 14.89 2.66 15.33C3.3 15.78 4.06 16 4.94 16C5.82 16 6.5 15.8 7.06 15.42C7.59 15.03 7.86 14.5 7.86 13.81C7.86 13.14 7.63 12.61 7.19 12.23C6.74 11.84 6.08 11.5 5.2 11.26C4.62 11.05 4.23 10.88 4 10.74C3.81 10.6 3.71 10.42 3.71 10.2C3.71 9.96 3.81 9.76 4 9.6C4.22 9.44 4.5 9.36 4.87 9.36C5.24 9.36 5.53 9.46 5.74 9.65C5.96 9.84 6.07 10.12 6.06 10.41H7.8L7.82 10.37C7.84 9.68 7.57 9.11 7 8.66C6.47 8.22 5.77 8 4.91 8M9 8.05V15.93H10.84V13.23H11.96C12.89 13.23 13.63 13 14.18 12.5C14.73 12.05 15 11.42 15 10.64C15 9.87 14.73 9.25 14.18 8.77C13.63 8.29 12.89 8.05 11.96 8.05H9M17.24 8.05L14.5 15.93H16.22L19 8.05M20.5 8.05L17.79 15.93H19.5L22.29 8.05M10.84 9.46H11.96C12.35 9.46 12.66 9.57 12.86 9.8C13.07 10 13.17 10.31 13.17 10.65C13.17 11 13.07 11.28 12.86 11.5C12.66 11.71 12.35 11.82 11.96 11.82H10.84" />
    </g>
    <g id="mdi-stadium" transform="translate(144 36) scale(1.5)" fill="#555">
      <path d="M22 13.5V17.5C22 19.2 17.5 20.5 12 20.5C10.6 20.5 9.2 20.4 8 20.2V17.5L4 16.5V19.3C2.7 18.8 2 18.2 2 17.5V11.5C2 10.5 4 9.5 6 9.5C12 9.5 14 15 19 15C21 15 22 13.5 22 13.5M5 8L9 9V6L5 5V8M18 6.5L22 7.5V4.5L18 3.5V6.5M22.3 10.8C22.3 9.8 21.5 8 18.7 8S13.4 10.7 13.3 10.9C15.1 12.2 16.5 13.5 19 13.5C22.3 13.5 22.3 10.8 22.3 10.8Z" />
    </g>
    <g id="mdi-stadium" transform="translate(180 36) scale(1.5)" fill="#fff">
      <path d="M22 13.5V17.5C22 19.2 17.5 20.5 12 20.5C10.6 20.5 9.2 20.4 8 20.2V17.5L4 16.5V19.3C2.7 18.8 2 18.2 2 17.5V11.5C2 10.5 4 9.5 6 9.5C12 9.5 14 15 19 15C21 15 22 13.5 22 13.5M5 8L9 9V6L5 5V8M18 6.5L22 7.5V4.5L18 3.5V6.5M22.3 10.8C22.3 9.8 21.5 8 18.7 8S13.4 10.7 13.3 10.9C15.1 12.2 16.5 13.5 19 13.5C22.3 13.5 22.3 10.8 22.3 10.8Z" />
    </g>
    <g id="mdi-stadium-variant" transform="translate(216 36) scale(1.5)" fill="#555">
      <path d="M5,3H7L10,5L7,7V8.33C8.47,8.12 10.18,8 12,8C13.82,8 15.53,8.12 17,8.33V3H19L22,5L19,7V8.71C20.85,9.17 22,9.8 22,10.5C22,11.88 17.5,13 12,13C6.5,13 2,11.88 2,10.5C2,9.8 3.15,9.17 5,8.71V3M12,9.5C8.69,9.5 7,9.67 7,10.5C7,11.33 8.69,11.5 12,11.5C15.31,11.5 17,11.33 17,10.5C17,9.67 15.31,9.5 12,9.5M12,14.75C15.81,14.75 19.2,14.08 21.4,13.05L20,21H15V19A2,2 0 0,0 13,17H11A2,2 0 0,0 9,19V21H4L2.6,13.05C4.8,14.08 8.19,14.75 12,14.75Z" />
    </g>
    <g id="mdi-stadium-variant" transform="translate(252 36) scale(1.5)" fill="#fff">
      <path d="M5,3H7L10,5L7,7V8.33C8.47,8.12 10.18,8 12,8C13.82,8 15.53,8.12 17,8.33V3H19L22,5L19,7V8.71C20.85,9.17 22,9.8 22,10.5C22,11.88 17.5,13 12,13C6.5,13 2,11.88 2,10.5C2,9.8 3.15,9.17 5,8.71V3M12,9.5C8.69,9.5 7,9.67 7,10.5C7,11.33 8.69,11.5 12,11.5C15.31,11.5 17,11.33 17,10.5C17,9.67 15.31,9.5 12,9.5M12,14.75C15.81,14.75 19.2,14.08 21.4,13.05L20,21H15V19A2,2 0 0,0 13,17H11A2,2 0 0,0 9,19V21H4L2.6,13.05C4.8,14.08 8.19,14.75 12,14.75Z" />
    </g>
    <g id="mdi-stairs" transform="translate(288 36) scale(1.5)" fill="#555">
      <path d="M15,5V9H11V13H7V17H3V20H10V16H14V12H18V8H22V5H15Z" />
    </g>
    <g id="mdi-stairs" transform="translate(324 36) scale(1.5)" fill="#fff">
      <path d="M15,5V9H11V13H7V17H3V20H10V16H14V12H18V8H22V5H15Z" />
    </g>
    <g id="mdi-stairs-box" transform="translate(360 36) scale(1.5)" fill="#555">
      <path d="M5 3C3.89 3 3 3.89 3 5V19C3 20.11 3.89 21 5 21H19C20.11 21 21 20.11 21 19V5C21 3.89 20.11 3 19 3H5M14 7H19V9H16V12H13V15H10V18H5V16H8V13H11V10H14V7Z" />
    </g>
    <g id="mdi-stairs-box" transform="translate(396 36) scale(1.5)" fill="#fff">
      <path d="M5 3C3.89 3 3 3.89 3 5V19C3 20.11 3.89 21 5 21H19C20.11 21 21 20.11 21 19V5C21 3.89 20.11 3 19 3H5M14 7H19V9H16V12H13V15H10V18H5V16H8V13H11V10H14V7Z" />
    </g>
    <g id="mdi-stairs-down" transform="translate(432 36) scale(1.5)" fill="#555">
      <path d="M15 6H22V9H18V13H14V17H10V21H3V18H7V14H11V10H15V6M4.83 8.34L10.34 2.83L12.17 4.66L6.66 10.17L8.5 12H3V6.5L4.83 8.34Z" />
    </g>
    <g id="mdi-stairs-down" transform="translate(468 36) scale(1.5)" fill="#fff">
      <path d="M15 6H22V9H18V13H14V17H10V21H3V18H7V14H11V10H15V6M4.83 8.34L10.34 2.83L12.17 4.66L6.66 10.17L8.5 12H3V6.5L4.83 8.34Z" />
    </g>
    <g id="mdi-stairs-up" transform="translate(504 36) scale(1.5)" fill="#555">
      <path d="M15 6H22V9H18V13H14V17H10V21H3V18H7V14H11V10H15V6M10.17 6.66L4.66 12.17L2.83 10.34L8.34 4.83L6.5 3H12V8.5L10.17 6.66Z" />
    </g>
    <g id="mdi-stairs-up" transform="translate(540 36) scale(1.5)" fill="#fff">
      <path d="M15 6H22V9H18V13H14V17H10V21H3V18H7V14H11V10H15V6M10.17 6.66L4.66 12.17L2.83 10.34L8.34 4.83L6.5 3H12V8.5L10.17 6.66Z" />
    </g>
    <g id="mdi-stamper" transform="translate(576 36) scale(1.5)" fill="#555">
      <path d="M12,3A3,3 0 0,0 9,6C9,9 14,13 6,13A2,2 0 0,0 4,15V17H20V15A2,2 0 0,0 18,13C10,13 15,9 15,6C15,4 13.66,3 12,3M6,19V21H18V19H6Z" />
    </g>
    <g id="mdi-stamper" transform="translate(612 36) scale(1.5)" fill="#fff">
      <path d="M12,3A3,3 0 0,0 9,6C9,9 14,13 6,13A2,2 0 0,0 4,15V17H20V15A2,2 0 0,0 18,13C10,13 15,9 15,6C15,4 13.66,3 12,3M6,19V21H18V19H6Z" />
    </g>
    <g id="mdi-standard-definition" transform="translate(648 36) scale(1.5)" fill="#555">
      <path d="M13,7H16A3,3 0 0,1 19,10V14A3,3 0 0,1 16,17H13V7M16,15A1,1 0 0,0 17,14V10A1,1 0 0,0 16,9H15V15H16M7,7H11V9H7V11H9A2,2 0 0,1 11,13V15A2,2 0 0,1 9,17H5V15H9V13H7A2,2 0 0,1 5,11V9A2,2 0 0,1 7,7Z" />
    </g>
    <g id="mdi-standard-definition" transform="translate(684 36) scale(1.5)" fill="#fff">
      <path d="M13,7H16A3,3 0 0,1 19,10V14A3,3 0 0,1 16,17H13V7M16,15A1,1 0 0,0 17,14V10A1,1 0 0,0 16,9H15V15H16M7,7H11V9H7V11H9A2,2 0 0,1 11,13V15A2,2 0 0,1 9,17H5V15H9V13H7A2,2 0 0,1 5,11V9A2,2 0 0,1 7,7Z" />
    </g>
    <g id="mdi-star" transform="translate(0 72) scale(1.5)" fill="#555">
      <path d="M12,17.27L18.18,21L16.54,13.97L22,9.24L14.81,8.62L12,2L9.19,8.62L2,9.24L7.45,13.97L5.82,21L12,17.27Z" />
    </g>
    <g id="mdi-star" transform="translate(36 72) scale(1.5)" fill="#fff">
      <path d="M12,17.27L18.18,21L16.54,13.97L22,9.24L14.81,8.62L12,2L9.19,8.62L2,9.24L7.45,13.97L5.82,21L12,17.27Z" />
    </g>
    <g id="mdi-star-box" transform="translate(72 72) scale(1.5)" fill="#555">
      <path d="M19,3A2,2 0 0,1 21,5V19C21,20.11 20.1,21 19,21H5A2,2 0 0,1 3,19V5A2,2 0 0,1 5,3H19M15.58,17L14.63,12.92L17.79,10.19L13.62,9.83L12,6L10.38,9.84L6.21,10.2L9.37,12.93L8.42,17L12,14.84L15.58,17Z" />
    </g>
    <g id="mdi-star-box" transform="translate(108 72) scale(1.5)" fill="#fff">
      <path d="M19,3A2,2 0 0,1 21,5V19C21,20.11 20.1,21 19,21H5A2,2 0 0,1 3,19V5A2,2 0 0,1 5,3H19M15.58,17L14.63,12.92L17.79,10.19L13.62,9.83L12,6L10.38,9.84L6.21,10.2L9.37,12.93L8.42,17L12,14.84L15.58,17Z" />
    </g>
    <g id="mdi-star-box-multiple" transform="translate(144 72) scale(1.5)" fill="#555">
      <path d="M4 6V20H18V22H3C2.4 22 2 21.6 2 21V6H4M8 2H20C21.11 2 22 2.9 22 4V16C22 17.11 21.11 18 20 18H8C6.9 18 6 17.11 6 16V4C6 2.9 6.9 2 8 2M16.3 13.3L15.9 10.7L17.8 8.8L15.2 8.4L14 6L12.8 8.4L10.2 8.8L12.1 10.6L11.6 13.2L14 12L16.3 13.3Z" />
    </g>
    <g id="mdi-star-box-multiple" transform="translate(180 72) scale(1.5)" fill="#fff">
      <path d="M4 6V20H18V22H3C2.4 22 2 21.6 2 21V6H4M8 2H20C21.11 2 22 2.9 22 4V16C22 17.11 21.11 18 20 18H8C6.9 18 6 17.11 6 16V4C6 2.9 6.9 2 8 2M16.3 13.3L15.9 10.7L17.8 8.8L15.2 8.4L14 6L12.8 8.4L10.2 8.8L12.1 10.6L11.6 13.2L14 12L16.3 13.3Z" />
    </g>
    <g id="mdi-star-box-multiple-outline" transform="translate(216 72) scale(1.5)" fill="#555">
      <path d="M4 6V20H18V22H3C2.4 22 2 21.6 2 21V6H4M12.1 10.6L10.2 8.8L12.8 8.4L14 6L15.2 8.4L17.8 8.8L15.9 10.7L16.3 13.3L14 12L11.6 13.2L12.1 10.6M8 2H20C21.11 2 22 2.9 22 4V16C22 17.11 21.11 18 20 18H8C6.9 18 6 17.11 6 16V4C6 2.9 6.9 2 8 2M8 4V16H20V4H8Z" />
    </g>
    <g id="mdi-star-box-multiple-outline" transform="translate(252 72) scale(1.5)" fill="#fff">
      <path d="M4 6V20H18V22H3C2.4 22 2 21.6 2 21V6H4M12.1 10.6L10.2 8.8L12.8 8.4L14 6L15.2 8.4L17.8 8.8L15.9 10.7L16.3 13.3L14 12L11.6 13.2L12.1 10.6M8 2H20C21.11 2 22 2.9 22 4V16C22 17.11 21.11 18 20 18H8C6.9 18 6 17.11 6 16V4C6 2.9 6.9 2 8 2M8 4V16H20V4H8Z" />
    </g>
    <g id="mdi-star-box-outline" transform="translate(288 72) scale(1.5)" fill="#555">
      <path d="M15.58,17L12,14.84L8.42,17L9.37,12.93L6.21,10.2L10.38,9.84L12,6L13.62,9.83L17.79,10.19L14.63,12.92L15.58,17M19,3A2,2 0 0,1 21,5V19C21,20.11 20.1,21 19,21H5A2,2 0 0,1 3,19V5A2,2 0 0,1 5,3H19M5,5V19H19V5H5Z" />
    </g>
    <g id="mdi-star-box-outline" transform="translate(324 72) scale(1.5)" fill="#fff">
      <path d="M15.58,17L12,14.84L8.42,17L9.37,12.93L6.21,10.2L10.38,9.84L12,6L13.62,9.83L17.79,10.19L14.63,12.92L15.58,17M19,3A2,2 0 0,1 21,5V19C21,20.11 20.1,21 19,21H5A2,2 0 0,1 3,19V5A2,2 0 0,1 5,3H19M5,5V19H19V5H5Z" />
    </g>
    <g id="mdi-star-check" transform="translate(360 72) scale(1.5)" fill="#555">
      <path d="M5.8 21L7.4 14L2 9.2L9.2 8.6L12 2L14.8 8.6L22 9.2L18.8 12H18C14.9 12 12.4 14.3 12 17.3L5.8 21M17.8 21.2L22.6 16.4L21.3 15L17.7 18.6L16.2 17L15 18.2L17.8 21.2" />
    </g>
    <g id="mdi-star-check" transform="translate(396 72) scale(1.5)" fill="#fff">
      <path d="M5.8 21L7.4 14L2 9.2L9.2 8.6L12 2L14.8 8.6L22 9.2L18.8 12H18C14.9 12 12.4 14.3 12 17.3L5.8 21M17.8 21.2L22.6 16.4L21.3 15L17.7 18.6L16.2 17L15 18.2L17.8 21.2" />
    </g>
    <g id="mdi-star-check-outline" transform="translate(432 72) scale(1.5)" fill="#555">
      <path d="M5.8 21L7.4 14L2 9.2L9.2 8.6L12 2L14.8 8.6L22 9.2L18.8 12H18C17.3 12 16.6 12.1 15.9 12.4L18.1 10.5L13.7 10.1L12 6.1L10.3 10.1L5.9 10.5L9.2 13.4L8.2 17.7L12 15.4L12.5 15.7C12.3 16.2 12.1 16.8 12.1 17.3L5.8 21M17.8 21.2L15 18.2L16.2 17L17.8 18.6L21.4 15L22.6 16.4L17.8 21.2" />
    </g>
    <g id="mdi-star-check-outline" transform="translate(468 72) scale(1.5)" fill="#fff">
      <path d="M5.8 21L7.4 14L2 9.2L9.2 8.6L12 2L14.8 8.6L22 9.2L18.8 12H18C17.3 12 16.6 12.1 15.9 12.4L18.1 10.5L13.7 10.1L12 6.1L10.3 10.1L5.9 10.5L9.2 13.4L8.2 17.7L12 15.4L12.5 15.7C12.3 16.2 12.1 16.8 12.1 17.3L5.8 21M17.8 21.2L15 18.2L16.2 17L17.8 18.6L21.4 15L22.6 16.4L17.8 21.2" />
    </g>
    <g id="mdi-star-circle" transform="translate(504 72) scale(1.5)" fill="#555">
      <path d="M16.23,18L12,15.45L7.77,18L8.89,13.19L5.16,9.96L10.08,9.54L12,5L13.92,9.53L18.84,9.95L15.11,13.18L16.23,18M12,2C6.47,2 2,6.5 2,12A10,10 0 0,0 12,22A10,10 0 0,0 22,12A10,10 0 0,0 12,2Z" />
    </g>
    <g id="mdi-star-circle" transform="translate(540 72) scale(1.5)" fill="#fff">
      <path d="M16.23,18L12,15.45L7.77,18L8.89,13.19L5.16,9.96L10.08,9.54L12,5L13.92,9.53L18.84,9.95L15.11,13.18L16.23,18M12,2C6.47,2 2,6.5 2,12A10,10 0 0,0 12,22A10,10 0 0,0 22,12A10,10 0 0,0 12,2Z" />
    </g>
    <g id="mdi-star-circle-outline" transform="translate(576 72) scale(1.5)" fill="#555">
      <path d="M8.58,17.25L9.5,13.36L6.5,10.78L10.45,10.41L12,6.8L13.55,10.45L17.5,10.78L14.5,13.36L15.42,17.25L12,15.19L8.58,17.25M12,2A10,10 0 0,1 22,12A10,10 0 0,1 12,22A10,10 0 0,1 2,12A10,10 0 0,1 12,2M12,4A8,8 0 0,0 4,12A8,8 0 0,0 12,20A8,8 0 0,0 20,12A8,8 0 0,0 12,4Z" />
    </g>
    <g id="mdi-star-circle-outline" transform="translate(612 72) scale(1.5)" fill="#fff">
      <path d="M8.58,17.25L9.5,13.36L6.5,10.78L10.45,10.41L12,6.8L13.55,10.45L17.5,10.78L14.5,13.36L15.42,17.25L12,15.19L8.58,17.25M12,2A10,10 0 0,1 22,12A10,10 0 0,1 12,22A10,10 0 0,1 2,12A10,10 0 0,1 12,2M12,4A8,8 0 0,0 4,12A8,8 0 0,0 12,20A8,8 0 0,0 20,12A8,8 0 0,0 12,4Z" />
    </g>
    <g id="mdi-star-cog" transform="translate(648 72) scale(1.5)" fill="#555">
      <path d="M18.8 12C15.59 12.1 12.91 14.37 12.19 17.39L12 17.27L5.82 21L7.45 13.97L2 9.24L9.19 8.62L12 2L14.81 8.62L22 9.24L18.8 12M23.83 20.64L22.83 22.37C22.76 22.5 22.63 22.5 22.5 22.5L21.27 22C21 22.18 20.73 22.34 20.43 22.47L20.24 23.79C20.22 23.91 20.11 24 20 24H18C17.86 24 17.76 23.91 17.74 23.79L17.55 22.47C17.24 22.35 16.96 22.18 16.7 22L15.46 22.5C15.34 22.5 15.21 22.5 15.15 22.37L14.15 20.64C14.09 20.53 14.12 20.4 14.21 20.32L15.27 19.5C15.25 19.33 15.24 19.17 15.24 19S15.25 18.67 15.27 18.5L14.21 17.68C14.11 17.6 14.09 17.47 14.15 17.36L15.15 15.63C15.22 15.5 15.35 15.5 15.46 15.5L16.7 16C16.96 15.82 17.25 15.66 17.55 15.53L17.74 14.21C17.76 14.09 17.87 14 18 14H20C20.11 14 20.22 14.09 20.23 14.21L20.42 15.53C20.73 15.65 21 15.82 21.27 16L22.5 15.5C22.63 15.5 22.76 15.5 22.82 15.63L23.82 17.36C23.88 17.47 23.85 17.6 23.76 17.68L22.7 18.5C22.73 18.67 22.74 18.83 22.74 19S22.72 19.33 22.7 19.5L23.77 20.32C23.86 20.4 23.89 20.53 23.83 20.64M20.5 19C20.5 18.17 19.83 17.5 19 17.5S17.5 18.17 17.5 19 18.16 20.5 19 20.5C19.83 20.5 20.5 19.83 20.5 19Z" />
    </g>
    <g id="mdi-star-cog" transform="translate(684 72) scale(1.5)" fill="#fff">
      <path d="M18.8 12C15.59 12.1 12.91 14.37 12.19 17.39L12 17.27L5.82 21L7.45 13.97L2 9.24L9.19 8.62L12 2L14.81 8.62L22 9.24L18.8 12M23.83 20.64L22.83 22.37C22.76 22.5 22.63 22.5 22.5 22.5L21.27 22C21 22.18 20.73 22.34 20.43 22.47L20.24 23.79C20.22 23.91 20.11 24 20 24H18C17.86 24 17.76 23.91 17.74 23.79L17.55 22.47C17.24 22.35 16.96 22.18 16.7 22L15.46 22.5C15.34 22.5 15.21 22.5 15.15 22.37L14.15 20.64C14.09 20.53 14.12 20.4 14.21 20.32L15.27 19.5C15.25 19.33 15.24 19.17 15.24 19S15.25 18.67 15.27 18.5L14.21 17.68C14.11 17.6 14.09 17.47 14.15 17.36L15.15 15.63C15.22 15.5 15.35 15.5 15.46 15.5L16.7 16C16.96 15.82 17.25 15.66 17.55 15.53L17.74 14.21C17.76 14.09 17.87 14 18 14H20C20.11 14 20.22 14.09 20.23 14.21L20.42 15.53C20.73 15.65 21 15.82 21.27 16L22.5 15.5C22.63 15.5 22.76 15.5 22.82 15.63L23.82 17.36C23.88 17.47 23.85 17.6 23.76 17.68L22.7 18.5C22.73 18.67 22.74 18.83 22.74 19S22.72 19.33 22.7 19.5L23.77 20.32C23.86 20.4 23.89 20.53 23.83 20.64M20.5 19C20.5 18.17 19.83 17.5 19 17.5S17.5 18.17 17.5 19 18.16 20.5 19 20.5C19.83 20.5 20.5 19.83 20.5 19Z" />
    </g>
    <g id="mdi-star-cog-outline" transform="translate(0 108) scale(1.5)" fill="#555">
      <path d="M10.29 10.13L5.91 10.5L9.23 13.38L8.24 17.66L12 15.39L12.76 15.85C12.5 16.33 12.32 16.85 12.19 17.39L12 17.27L5.82 21L7.45 13.97L2 9.24L9.19 8.63L12 2L14.81 8.63L22 9.24L18.8 12C17.29 12.05 15.91 12.57 14.78 13.43L14.77 13.38L18.09 10.5L13.71 10.13L12 6.09L10.29 10.13M23.83 20.64L22.83 22.37C22.76 22.5 22.63 22.5 22.5 22.5L21.27 22C21 22.18 20.73 22.34 20.43 22.47L20.24 23.79C20.22 23.91 20.11 24 20 24H18C17.86 24 17.76 23.91 17.74 23.79L17.55 22.47C17.24 22.35 16.96 22.18 16.7 22L15.46 22.5C15.34 22.5 15.21 22.5 15.15 22.37L14.15 20.64C14.09 20.53 14.12 20.4 14.21 20.32L15.27 19.5C15.25 19.33 15.24 19.17 15.24 19S15.25 18.67 15.27 18.5L14.21 17.68C14.11 17.6 14.09 17.47 14.15 17.36L15.15 15.63C15.22 15.5 15.35 15.5 15.46 15.5L16.7 16C16.96 15.82 17.25 15.66 17.55 15.53L17.74 14.21C17.76 14.09 17.87 14 18 14H20C20.11 14 20.22 14.09 20.23 14.21L20.42 15.53C20.73 15.65 21 15.82 21.27 16L22.5 15.5C22.63 15.5 22.76 15.5 22.82 15.63L23.82 17.36C23.88 17.47 23.85 17.6 23.76 17.68L22.7 18.5C22.73 18.67 22.74 18.83 22.74 19S22.72 19.33 22.7 19.5L23.77 20.32C23.86 20.4 23.89 20.53 23.83 20.64M20.5 19C20.5 18.17 19.83 17.5 19 17.5S17.5 18.17 17.5 19 18.16 20.5 19 20.5C19.83 20.5 20.5 19.83 20.5 19Z" />
    </g>
    <g id="mdi-star-cog-outline" transform="translate(36 108) scale(1.5)" fill="#fff">
      <path d="M10.29 10.13L5.91 10.5L9.23 13.38L8.24 17.66L12 15.39L12.76 15.85C12.5 16.33 12.32 16.85 12.19 17.39L12 17.27L5.82 21L7.45 13.97L2 9.24L9.19 8.63L12 2L14.81 8.63L22 9.24L18.8 12C17.29 12.05 15.91 12.57 14.78 13.43L14.77 13.38L18.09 10.5L13.71 10.13L12 6.09L10.29 10.13M23.83 20.64L22.83 22.37C22.76 22.5 22.63 22.5 22.5 22.5L21.27 22C21 22.18 20.73 22.34 20.43 22.47L20.24 23.79C20.22 23.91 20.11 24 20 24H18C17.86 24 17.76 23.91 17.74 23.79L17.55 22.47C17.24 22.35 16.96 22.18 16.7 22L15.46 22.5C15.34 22.5 15.21 22.5 15.15 22.37L14.15 20.64C14.09 20.53 14.12 20.4 14.21 20.32L15.27 19.5C15.25 19.33 15.24 19.17 15.24 19S15.25 18.67 15.27 18.5L14.21 17.68C14.11 17.6 14.09 17.47 14.15 17.36L15.15 15.63C15.22 15.5 15.35 15.5 15.46 15.5L16.7 16C16.96 15.82 17.25 15.66 17.55 15.53L17.74 14.21C17.76 14.09 17.87 14 18 14H20C20.11 14 20.22 14.09 20.23 14.21L20.42 15.53C20.73 15.65 21 15.82 21.27 16L22.5 15.5C22.63 15.5 22.76 15.5 22.82 15.63L23.82 17.36C23.88 17.47 23.85 17.6 23.76 17.68L22.7 18.5C22.73 18.67 22.74 18.83 22.74 19S22.72 19.33 22.7 19.5L23.77 20.32C23.86 20.4 23.89 20.53 23.83 20.64M20.5 19C20.5 18.17 19.83 17.5 19 17.5S17.5 18.17 17.5 19 18.16 20.5 19 20.5C19.83 20.5 20.5 19.83 20.5 19Z" />
    </g>
    <g id="mdi-star-face" transform="translate(72 108) scale(1.5)" fill="#555">
      <path d="M12,2.5L8.42,8.06L2,9.74L6.2,14.88L5.82,21.5L12,19.09L18.18,21.5L17.8,14.88L22,9.74L15.58,8.06L12,2.5M9.38,10.5C10,10.5 10.5,11 10.5,11.63A1.12,1.12 0 0,1 9.38,12.75C8.75,12.75 8.25,12.25 8.25,11.63C8.25,11 8.75,10.5 9.38,10.5M14.63,10.5C15.25,10.5 15.75,11 15.75,11.63A1.12,1.12 0 0,1 14.63,12.75C14,12.75 13.5,12.25 13.5,11.63C13.5,11 14,10.5 14.63,10.5M9,15H15C14.5,16.21 13.31,17 12,17C10.69,17 9.5,16.21 9,15Z" />
    </g>
    <g id="mdi-star-face" transform="translate(108 108) scale(1.5)" fill="#fff">
      <path d="M12,2.5L8.42,8.06L2,9.74L6.2,14.88L5.82,21.5L12,19.09L18.18,21.5L17.8,14.88L22,9.74L15.58,8.06L12,2.5M9.38,10.5C10,10.5 10.5,11 10.5,11.63A1.12,1.12 0 0,1 9.38,12.75C8.75,12.75 8.25,12.25 8.25,11.63C8.25,11 8.75,10.5 9.38,10.5M14.63,10.5C15.25,10.5 15.75,11 15.75,11.63A1.12,1.12 0 0,1 14.63,12.75C14,12.75 13.5,12.25 13.5,11.63C13.5,11 14,10.5 14.63,10.5M9,15H15C14.5,16.21 13.31,17 12,17C10.69,17 9.5,16.21 9,15Z" />
    </g>
    <g id="mdi-star-four-points" transform="translate(144 108) scale(1.5)" fill="#555">
      <path d="M12,1L9,9L1,12L9,15L12,23L15,15L23,12L15,9L12,1Z" />
    </g>
    <g id="mdi-star-four-points" transform="translate(180 108) scale(1.5)" fill="#fff">
      <path d="M12,1L9,9L1,12L9,15L12,23L15,15L23,12L15,9L12,1Z" />
    </g>
    <g id="mdi-star-four-points-outline" transform="translate(216 108) scale(1.5)" fill="#555">
      <path d="M12,6.7L13.45,10.55L17.3,12L13.45,13.45L12,17.3L10.55,13.45L6.7,12L10.55,10.55L12,6.7M12,1L9,9L1,12L9,15L12,23L15,15L23,12L15,9L12,1Z" />
    </g>
    <g id="mdi-star-four-points-outline" transform="translate(252 108) scale(1.5)" fill="#fff">
      <path d="M12,6.7L13.45,10.55L17.3,12L13.45,13.45L12,17.3L10.55,13.45L6.7,12L10.55,10.55L12,6.7M12,1L9,9L1,12L9,15L12,23L15,15L23,12L15,9L12,1Z" />
    </g>
    <g id="mdi-star-half" transform="translate(288 108) scale(1.5)" fill="#555">
      <path d="M12 2L9.19 8.62L2 9.24L7.45 13.97L5.82 21L12 17.27V2Z" />
    </g>
    <g id="mdi-star-half" transform="translate(324 108) scale(1.5)" fill="#fff">
      <path d="M12 2L9.19 8.62L2 9.24L7.45 13.97L5.82 21L12 17.27V2Z" />
    </g>
    <g id="mdi-star-half-full" transform="translate(360 108) scale(1.5)" fill="#555">
      <path d="M12,15.4V6.1L13.71,10.13L18.09,10.5L14.77,13.39L15.76,17.67M22,9.24L14.81,8.63L12,2L9.19,8.63L2,9.24L7.45,13.97L5.82,21L12,17.27L18.18,21L16.54,13.97L22,9.24Z" />
    </g>
    <g id="mdi-star-half-full" transform="translate(396 108) scale(1.5)" fill="#fff">
      <path d="M12,15.4V6.1L13.71,10.13L18.09,10.5L14.77,13.39L15.76,17.67M22,9.24L14.81,8.63L12,2L9.19,8.63L2,9.24L7.45,13.97L5.82,21L12,17.27L18.18,21L16.54,13.97L22,9.24Z" />
    </g>
    <g id="mdi-star-minus" transform="translate(432 108) scale(1.5)" fill="#555">
      <path d="M5.8 21L7.4 14L2 9.2L9.2 8.6L12 2L14.8 8.6L22 9.2L18.8 12H18C14.9 12 12.4 14.3 12 17.3L5.8 21M14 17V19H22V17H14Z" />
    </g>
    <g id="mdi-star-minus" transform="translate(468 108) scale(1.5)" fill="#fff">
      <path d="M5.8 21L7.4 14L2 9.2L9.2 8.6L12 2L14.8 8.6L22 9.2L18.8 12H18C14.9 12 12.4 14.3 12 17.3L5.8 21M14 17V19H22V17H14Z" />
    </g>
    <g id="mdi-star-minus-outline" transform="translate(504 108) scale(1.5)" fill="#555">
      <path d="M5.8 21L7.4 14L2 9.2L9.2 8.6L12 2L14.8 8.6L22 9.2L18.8 12H18C17.3 12 16.6 12.1 15.9 12.4L18.1 10.5L13.7 10.1L12 6.1L10.3 10.1L5.9 10.5L9.2 13.4L8.2 17.7L12 15.4L12.5 15.7C12.3 16.2 12.1 16.8 12.1 17.3L5.8 21M14 17V19H22V17H14Z" />
    </g>
    <g id="mdi-star-minus-outline" transform="translate(540 108) scale(1.5)" fill="#fff">
      <path d="M5.8 21L7.4 14L2 9.2L9.2 8.6L12 2L14.8 8.6L22 9.2L18.8 12H18C17.3 12 16.6 12.1 15.9 12.4L18.1 10.5L13.7 10.1L12 6.1L10.3 10.1L5.9 10.5L9.2 13.4L8.2 17.7L12 15.4L12.5 15.7C12.3 16.2 12.1 16.8 12.1 17.3L5.8 21M14 17V19H22V17H14Z" />
    </g>
    <g id="mdi-star-off" transform="translate(576 108) scale(1.5)" fill="#555">
      <path d="M20.8 22.7L17.9 19.8L18.2 21L12 17.3L5.8 21L7.4 14L2 9.2L6.9 8.8L1.1 3L2.4 1.7L22.1 21.4L20.8 22.7M22 9.2L14.8 8.6L12 2L10 6.8L16.9 13.7L22 9.2Z" />
    </g>
    <g id="mdi-star-off" transform="translate(612 108) scale(1.5)" fill="#fff">
      <path d="M20.8 22.7L17.9 19.8L18.2 21L12 17.3L5.8 21L7.4 14L2 9.2L6.9 8.8L1.1 3L2.4 1.7L22.1 21.4L20.8 22.7M22 9.2L14.8 8.6L12 2L10 6.8L16.9 13.7L22 9.2Z" />
    </g>
    <g id="mdi-star-off-outline" transform="translate(648 108) scale(1.5)" fill="#555">
      <path d="M22.1 21.5L2.4 1.7L1.1 3L6.9 8.8L2 9.2L7.5 14L5.9 21L12.1 17.3L18.3 21L18 19.8L20.9 22.7L22.1 21.5M15.8 17.7L12 15.4L8.2 17.7L9.2 13.4L5.9 10.5L8.4 10.3L15.8 17.7M11.2 8L10 6.8L12 2L14.8 8.6L22 9.2L16.9 13.6L15.8 12.5L18.2 10.5L13.8 10.1L12.1 6.1L11.2 8Z" />
    </g>
    <g id="mdi-star-off-outline" transform="translate(684 108) scale(1.5)" fill="#fff">
      <path d="M22.1 21.5L2.4 1.7L1.1 3L6.9 8.8L2 9.2L7.5 14L5.9 21L12.1 17.3L18.3 21L18 19.8L20.9 22.7L22.1 21.5M15.8 17.7L12 15.4L8.2 17.7L9.2 13.4L5.9 10.5L8.4 10.3L15.8 17.7M11.2 8L10 6.8L12 2L14.8 8.6L22 9.2L16.9 13.6L15.8 12.5L18.2 10.5L13.8 10.1L12.1 6.1L11.2 8Z" />
    </g>
    <g id="mdi-star-outline" transform="translate(0 144) scale(1.5)" fill="#555">
      <path d="M12,15.39L8.24,17.66L9.23,13.38L5.91,10.5L10.29,10.13L12,6.09L13.71,10.13L18.09,10.5L14.77,13.38L15.76,17.66M22,9.24L14.81,8.63L12,2L9.19,8.63L2,9.24L7.45,13.97L5.82,21L12,17.27L18.18,21L16.54,13.97L22,9.24Z" />
    </g>
    <g id="mdi-star-outline" transform="translate(36 144) scale(1.5)" fill="#fff">
      <path d="M12,15.39L8.24,17.66L9.23,13.38L5.91,10.5L10.29,10.13L12,6.09L13.71,10.13L18.09,10.5L14.77,13.38L15.76,17.66M22,9.24L14.81,8.63L12,2L9.19,8.63L2,9.24L7.45,13.97L5.82,21L12,17.27L18.18,21L16.54,13.97L22,9.24Z" />
    </g>
    <g id="mdi-star-plus" transform="translate(72 144) scale(1.5)" fill="#555">
      <path d="M5.8 21L7.4 14L2 9.2L9.2 8.6L12 2L14.8 8.6L22 9.2L18.8 12H18C14.9 12 12.4 14.3 12 17.3L5.8 21M17 14V17H14V19H17V22H19V19H22V17H19V14H17Z" />
    </g>
    <g id="mdi-star-plus" transform="translate(108 144) scale(1.5)" fill="#fff">
      <path d="M5.8 21L7.4 14L2 9.2L9.2 8.6L12 2L14.8 8.6L22 9.2L18.8 12H18C14.9 12 12.4 14.3 12 17.3L5.8 21M17 14V17H14V19H17V22H19V19H22V17H19V14H17Z" />
    </g>
    <g id="mdi-star-plus-outline" transform="translate(144 144) scale(1.5)" fill="#555">
      <path d="M5.8 21L7.4 14L2 9.2L9.2 8.6L12 2L14.8 8.6L22 9.2L18.8 12H18C17.3 12 16.6 12.1 15.9 12.4L18.1 10.5L13.7 10.1L12 6.1L10.3 10.1L5.9 10.5L9.2 13.4L8.2 17.7L12 15.4L12.5 15.7C12.3 16.2 12.1 16.8 12.1 17.3L5.8 21M17 14V17H14V19H17V22H19V19H22V17H19V14H17Z" />
    </g>
    <g id="mdi-star-plus-outline" transform="translate(180 144) scale(1.5)" fill="#fff">
      <path d="M5.8 21L7.4 14L2 9.2L9.2 8.6L12 2L14.8 8.6L22 9.2L18.8 12H18C17.3 12 16.6 12.1 15.9 12.4L18.1 10.5L13.7 10.1L12 6.1L10.3 10.1L5.9 10.5L9.2 13.4L8.2 17.7L12 15.4L12.5 15.7C12.3 16.2 12.1 16.8 12.1 17.3L5.8 21M17 14V17H14V19H17V22H19V19H22V17H19V14H17Z" />
    </g>
    <g id="mdi-star-remove" transform="translate(216 144) scale(1.5)" fill="#555">
      <path d="M5.8 21L7.4 14L2 9.2L9.2 8.6L12 2L14.8 8.6L22 9.2L18.8 12H18C14.9 12 12.4 14.3 12 17.3L5.8 21M20.1 14.5L18 16.6L15.9 14.5L14.5 15.9L16.6 18L14.5 20.1L15.9 21.5L18 19.4L20.1 21.5L21.5 20.1L19.4 18L21.5 15.9L20.1 14.5Z" />
    </g>
    <g id="mdi-star-remove" transform="translate(252 144) scale(1.5)" fill="#fff">
      <path d="M5.8 21L7.4 14L2 9.2L9.2 8.6L12 2L14.8 8.6L22 9.2L18.8 12H18C14.9 12 12.4 14.3 12 17.3L5.8 21M20.1 14.5L18 16.6L15.9 14.5L14.5 15.9L16.6 18L14.5 20.1L15.9 21.5L18 19.4L20.1 21.5L21.5 20.1L19.4 18L21.5 15.9L20.1 14.5Z" />
    </g>
    <g id="mdi-star-remove-outline" transform="translate(288 144) scale(1.5)" fill="#555">
      <path d="M5.8 21L7.4 14L2 9.2L9.2 8.6L12 2L14.8 8.6L22 9.2L18.8 12H18C17.3 12 16.6 12.1 15.9 12.4L18.1 10.5L13.7 10.1L12 6.1L10.3 10.1L5.9 10.5L9.2 13.4L8.2 17.7L12 15.4L12.5 15.7C12.3 16.2 12.1 16.8 12.1 17.3L5.8 21M20.1 14.5L18 16.6L15.9 14.5L14.5 15.9L16.6 18L14.5 20.1L15.9 21.5L18 19.4L20.1 21.5L21.5 20.1L19.4 18L21.5 15.9L20.1 14.5Z" />
    </g>
    <g id="mdi-star-remove-outline" transform="translate(324 144) scale(1.5)" fill="#fff">
      <path d="M5.8 21L7.4 14L2 9.2L9.2 8.6L12 2L14.8 8.6L22 9.2L18.8 12H18C17.3 12 16.6 12.1 15.9 12.4L18.1 10.5L13.7 10.1L12 6.1L10.3 10.1L5.9 10.5L9.2 13.4L8.2 17.7L12 15.4L12.5 15.7C12.3 16.2 12.1 16.8 12.1 17.3L5.8 21M20.1 14.5L18 16.6L15.9 14.5L14.5 15.9L16.6 18L14.5 20.1L15.9 21.5L18 19.4L20.1 21.5L21.5 20.1L19.4 18L21.5 15.9L20.1 14.5Z" />
    </g>
    <g id="mdi-star-settings" transform="translate(360 144) scale(1.5)" fill="#555">
      <path d="M7 22H9V24H7V22M11 24H13V22H11V24M15 24H17V22H15V24M22 9.24L14.81 8.62L12 2L9.19 8.62L2 9.24L7.45 13.97L5.82 21L12 17.27L18.18 21L16.54 13.97L22 9.24Z" />
    </g>
    <g id="mdi-star-settings" transform="translate(396 144) scale(1.5)" fill="#fff">
      <path d="M7 22H9V24H7V22M11 24H13V22H11V24M15 24H17V22H15V24M22 9.24L14.81 8.62L12 2L9.19 8.62L2 9.24L7.45 13.97L5.82 21L12 17.27L18.18 21L16.54 13.97L22 9.24Z" />
    </g>
    <g id="mdi-star-settings-outline" transform="translate(432 144) scale(1.5)" fill="#555">
      <path d="M11 22H13V24H11V22M7 24H9V22H7V24M15 24H17V22H15V24M16.54 13.97L18.18 21L12 17.27L5.82 21L7.45 13.97L2 9.24L9.19 8.63L12 2L14.81 8.63L22 9.24L16.54 13.97M15.76 17.66L14.77 13.38L18.09 10.5L13.71 10.13L12 6.09L10.29 10.13L5.91 10.5L9.23 13.38L8.24 17.66L12 15.39L15.76 17.66Z" />
    </g>
    <g id="mdi-star-settings-outline" transform="translate(468 144) scale(1.5)" fill="#fff">
      <path d="M11 22H13V24H11V22M7 24H9V22H7V24M15 24H17V22H15V24M16.54 13.97L18.18 21L12 17.27L5.82 21L7.45 13.97L2 9.24L9.19 8.63L12 2L14.81 8.63L22 9.24L16.54 13.97M15.76 17.66L14.77 13.38L18.09 10.5L13.71 10.13L12 6.09L10.29 10.13L5.91 10.5L9.23 13.38L8.24 17.66L12 15.39L15.76 17.66Z" />
    </g>
    <g id="mdi-star-three-points" transform="translate(504 144) scale(1.5)" fill="#555">
      <path d="M12,2.6L9,12.4L2,19.9L12,17.6L22,20L15,12.5L12,2.6Z" />
    </g>
    <g id="mdi-star-three-points" transform="translate(540 144) scale(1.5)" fill="#fff">
      <path d="M12,2.6L9,12.4L2,19.9L12,17.6L22,20L15,12.5L12,2.6Z" />
    </g>
    <g id="mdi-star-three-points-outline" transform="translate(576 144) scale(1.5)" fill="#555">
      <path d="M12,9.5L13.2,13.5L16,16.5L12,15.6L7.9,16.5L10.7,13.5L12,9.5M12,2.6L9,12.4L2,19.9L12,17.6L22,20L15,12.5L12,2.6Z" />
    </g>
    <g id="mdi-star-three-points-outline" transform="translate(612 144) scale(1.5)" fill="#fff">
      <path d="M12,9.5L13.2,13.5L16,16.5L12,15.6L7.9,16.5L10.7,13.5L12,9.5M12,2.6L9,12.4L2,19.9L12,17.6L22,20L15,12.5L12,2.6Z" />
    </g>
    <g id="mdi-state-machine" transform="translate(648 144) scale(1.5)" fill="#555">
      <path d="M6.27 17.05C6.72 17.58 7 18.25 7 19C7 20.66 5.66 22 4 22S1 20.66 1 19 2.34 16 4 16C4.18 16 4.36 16 4.53 16.05L7.6 10.69L5.86 9.7L9.95 8.58L11.07 12.67L9.33 11.68L6.27 17.05M20 16C18.7 16 17.6 16.84 17.18 18H11V16L8 19L11 22V20H17.18C17.6 21.16 18.7 22 20 22C21.66 22 23 20.66 23 19S21.66 16 20 16M12 8C12.18 8 12.36 8 12.53 7.95L15.6 13.31L13.86 14.3L17.95 15.42L19.07 11.33L17.33 12.32L14.27 6.95C14.72 6.42 15 5.75 15 5C15 3.34 13.66 2 12 2S9 3.34 9 5 10.34 8 12 8Z" />
    </g>
    <g id="mdi-state-machine" transform="translate(684 144) scale(1.5)" fill="#fff">
      <path d="M6.27 17.05C6.72 17.58 7 18.25 7 19C7 20.66 5.66 22 4 22S1 20.66 1 19 2.34 16 4 16C4.18 16 4.36 16 4.53 16.05L7.6 10.69L5.86 9.7L9.95 8.58L11.07 12.67L9.33 11.68L6.27 17.05M20 16C18.7 16 17.6 16.84 17.18 18H11V16L8 19L11 22V20H17.18C17.6 21.16 18.7 22 20 22C21.66 22 23 20.66 23 19S21.66 16 20 16M12 8C12.18 8 12.36 8 12.53 7.95L15.6 13.31L13.86 14.3L17.95 15.42L19.07 11.33L17.33 12.32L14.27 6.95C14.72 6.42 15 5.75 15 5C15 3.34 13.66 2 12 2S9 3.34 9 5 10.34 8 12 8Z" />
    </g>
    <g id="mdi-steam" transform="translate(0 180) scale(1.5)" fill="#555">
      <path d="M12,2A10,10 0 0,1 22,12A10,10 0 0,1 12,22C7.4,22 3.55,18.92 2.36,14.73L6.19,16.31C6.45,17.6 7.6,18.58 8.97,18.58C10.53,18.58 11.8,17.31 11.8,15.75V15.62L15.2,13.19H15.28C17.36,13.19 19.05,11.5 19.05,9.42C19.05,7.34 17.36,5.65 15.28,5.65C13.2,5.65 11.5,7.34 11.5,9.42V9.47L9.13,12.93L8.97,12.92C8.38,12.92 7.83,13.1 7.38,13.41L2,11.2C2.43,6.05 6.73,2 12,2M8.28,17.17C9.08,17.5 10,17.13 10.33,16.33C10.66,15.53 10.28,14.62 9.5,14.29L8.22,13.76C8.71,13.58 9.26,13.57 9.78,13.79C10.31,14 10.72,14.41 10.93,14.94C11.15,15.46 11.15,16.04 10.93,16.56C10.5,17.64 9.23,18.16 8.15,17.71C7.65,17.5 7.27,17.12 7.06,16.67L8.28,17.17M17.8,9.42C17.8,10.81 16.67,11.94 15.28,11.94C13.9,11.94 12.77,10.81 12.77,9.42A2.5,2.5 0 0,1 15.28,6.91C16.67,6.91 17.8,8.04 17.8,9.42M13.4,9.42C13.4,10.46 14.24,11.31 15.29,11.31C16.33,11.31 17.17,10.46 17.17,9.42C17.17,8.38 16.33,7.53 15.29,7.53C14.24,7.53 13.4,8.38 13.4,9.42Z" />
    </g>
    <g id="mdi-steam" transform="translate(36 180) scale(1.5)" fill="#fff">
      <path d="M12,2A10,10 0 0,1 22,12A10,10 0 0,1 12,22C7.4,22 3.55,18.92 2.36,14.73L6.19,16.31C6.45,17.6 7.6,18.58 8.97,18.58C10.53,18.58 11.8,17.31 11.8,15.75V15.62L15.2,13.19H15.28C17.36,13.19 19.05,11.5 19.05,9.42C19.05,7.34 17.36,5.65 15.28,5.65C13.2,5.65 11.5,7.34 11.5,9.42V9.47L9.13,12.93L8.97,12.92C8.38,12.92 7.83,13.1 7.38,13.41L2,11.2C2.43,6.05 6.73,2 12,2M8.28,17.17C9.08,17.5 10,17.13 10.33,16.33C10.66,15.53 10.28,14.62 9.5,14.29L8.22,13.76C8.71,13.58 9.26,13.57 9.78,13.79C10.31,14 10.72,14.41 10.93,14.94C11.15,15.46 11.15,16.04 10.93,16.56C10.5,17.64 9.23,18.16 8.15,17.71C7.65,17.5 7.27,17.12 7.06,16.67L8.28,17.17M17.8,9.42C17.8,10.81 16.67,11.94 15.28,11.94C13.9,11.94 12.77,10.81 12.77,9.42A2.5,2.5 0 0,1 15.28,6.91C16.67,6.91 17.8,8.04 17.8,9.42M13.4,9.42C13.4,10.46 14.24,11.31 15.29,11.31C16.33,11.31 17.17,10.46 17.17,9.42C17.17,8.38 16.33,7.53 15.29,7.53C14.24,7.53 13.4,8.38 13.4,9.42Z" />
    </g>
    <g id="mdi-steering" transform="translate(72 180) scale(1.5)" fill="#555">
      <path d="M13,19.92C14.8,19.7 16.35,18.95 17.65,17.65C18.95,16.35 19.7,14.8 19.92,13H16.92C16.7,14 16.24,14.84 15.54,15.54C14.84,16.24 14,16.7 13,16.92V19.92M10,8H14L17,11H19.92C19.67,9.05 18.79,7.38 17.27,6C15.76,4.66 14,4 12,4C10,4 8.24,4.66 6.73,6C5.21,7.38 4.33,9.05 4.08,11H7L10,8M11,19.92V16.92C10,16.7 9.16,16.24 8.46,15.54C7.76,14.84 7.3,14 7.08,13H4.08C4.3,14.77 5.05,16.3 6.35,17.6C7.65,18.9 9.2,19.67 11,19.92M12,2C14.75,2 17.1,3 19.05,4.95C21,6.9 22,9.25 22,12C22,14.75 21,17.1 19.05,19.05C17.1,21 14.75,22 12,22C9.25,22 6.9,21 4.95,19.05C3,17.1 2,14.75 2,12C2,9.25 3,6.9 4.95,4.95C6.9,3 9.25,2 12,2Z" />
    </g>
    <g id="mdi-steering" transform="translate(108 180) scale(1.5)" fill="#fff">
      <path d="M13,19.92C14.8,19.7 16.35,18.95 17.65,17.65C18.95,16.35 19.7,14.8 19.92,13H16.92C16.7,14 16.24,14.84 15.54,15.54C14.84,16.24 14,16.7 13,16.92V19.92M10,8H14L17,11H19.92C19.67,9.05 18.79,7.38 17.27,6C15.76,4.66 14,4 12,4C10,4 8.24,4.66 6.73,6C5.21,7.38 4.33,9.05 4.08,11H7L10,8M11,19.92V16.92C10,16.7 9.16,16.24 8.46,15.54C7.76,14.84 7.3,14 7.08,13H4.08C4.3,14.77 5.05,16.3 6.35,17.6C7.65,18.9 9.2,19.67 11,19.92M12,2C14.75,2 17.1,3 19.05,4.95C21,6.9 22,9.25 22,12C22,14.75 21,17.1 19.05,19.05C17.1,21 14.75,22 12,22C9.25,22 6.9,21 4.95,19.05C3,17.1 2,14.75 2,12C2,9.25 3,6.9 4.95,4.95C6.9,3 9.25,2 12,2Z" />
    </g>
    <g id="mdi-steering-off" transform="translate(144 180) scale(1.5)" fill="#555">
      <path d="M2,5.27L3.28,4L20,20.72L18.73,22L17.25,20.5C15.7,21.5 13.95,22 12,22C9.25,22 6.9,21 4.95,19.05C3,17.1 2,14.75 2,12C2,10.05 2.5,8.3 3.5,6.75L2,5.27M13,19.92C14,19.8 14.93,19.5 15.78,19.05L13.5,16.78C13.34,16.84 13.16,16.88 13,16.92V19.92M4.08,11H7L7.37,10.63L4.96,8.23C4.5,9.08 4.21,10 4.08,11M19.92,13H16.92C16.8,13.54 16.6,14.05 16.33,14.5L9.91,8.09L10,8H14L17,11H19.92C19.67,9.05 18.79,7.38 17.27,6C15.76,4.66 14,4 12,4C10.26,4 8.71,4.5 7.34,5.5L5.91,4.09C7.66,2.71 9.69,2 12,2C14.75,2 17.1,3 19.05,4.95C21,6.9 22,9.25 22,12C22,14.31 21.29,16.34 19.91,18.09L18.5,16.67C19.28,15.59 19.76,14.36 19.92,13M11,19.92V16.92C10,16.7 9.16,16.24 8.46,15.54C7.76,14.84 7.3,14 7.08,13H4.08C4.3,14.77 5.05,16.3 6.35,17.6C7.65,18.9 9.2,19.67 11,19.92Z" />
    </g>
    <g id="mdi-steering-off" transform="translate(180 180) scale(1.5)" fill="#fff">
      <path d="M2,5.27L3.28,4L20,20.72L18.73,22L17.25,20.5C15.7,21.5 13.95,22 12,22C9.25,22 6.9,21 4.95,19.05C3,17.1 2,14.75 2,12C2,10.05 2.5,8.3 3.5,6.75L2,5.27M13,19.92C14,19.8 14.93,19.5 15.78,19.05L13.5,16.78C13.34,16.84 13.16,16.88 13,16.92V19.92M4.08,11H7L7.37,10.63L4.96,8.23C4.5,9.08 4.21,10 4.08,11M19.92,13H16.92C16.8,13.54 16.6,14.05 16.33,14.5L9.91,8.09L10,8H14L17,11H19.92C19.67,9.05 18.79,7.38 17.27,6C15.76,4.66 14,4 12,4C10.26,4 8.71,4.5 7.34,5.5L5.91,4.09C7.66,2.71 9.69,2 12,2C14.75,2 17.1,3 19.05,4.95C21,6.9 22,9.25 22,12C22,14.31 21.29,16.34 19.91,18.09L18.5,16.67C19.28,15.59 19.76,14.36 19.92,13M11,19.92V16.92C10,16.7 9.16,16.24 8.46,15.54C7.76,14.84 7.3,14 7.08,13H4.08C4.3,14.77 5.05,16.3 6.35,17.6C7.65,18.9 9.2,19.67 11,19.92Z" />
    </g>
    <g id="mdi-step-backward" transform="translate(216 180) scale(1.5)" fill="#555">
      <path d="M19,5V19H16V5M14,5V19L3,12" />
    </g>
    <g id="mdi-step-backward" transform="translate(252 180) scale(1.5)" fill="#fff">
      <path d="M19,5V19H16V5M14,5V19L3,12" />
    </g>
    <g id="mdi-step-backward-2" transform="translate(288 180) scale(1.5)" fill="#555">
      <path d="M17,5H14V19H17V5M12,5L1,12L12,19V5M22,5H19V19H22V5Z" />
    </g>
    <g id="mdi-step-backward-2" transform="translate(324 180) scale(1.5)" fill="#fff">
      <path d="M17,5H14V19H17V5M12,5L1,12L12,19V5M22,5H19V19H22V5Z" />
    </g>
    <g id="mdi-step-forward" transform="translate(360 180) scale(1.5)" fill="#555">
      <path d="M5,5V19H8V5M10,5V19L21,12" />
    </g>
    <g id="mdi-step-forward" transform="translate(396 180) scale(1.5)" fill="#fff">
      <path d="M5,5V19H8V5M10,5V19L21,12" />
    </g>
    <g id="mdi-step-forward-2" transform="translate(432 180) scale(1.5)" fill="#555">
      <path d="M7,5H10V19H7V5M12,5L23,12L12,19V5M2,5H5V19H2V5Z" />
    </g>
    <g id="mdi-step-forward-2" transform="translate(468 180) scale(1.5)" fill="#fff">
      <path d="M7,5H10V19H7V5M12,5L23,12L12,19V5M2,5H5V19H2V5Z" />
    </g>
    <g id="mdi-stethoscope" transform="translate(504 180) scale(1.5)" fill="#555">
      <path d="M19,8C19.56,8 20,8.43 20,9A1,1 0 0,1 19,10C18.43,10 18,9.55 18,9C18,8.43 18.43,8 19,8M2,2V11C2,13.96 4.19,16.5 7.14,16.91C7.76,19.92 10.42,22 13.5,22A6.5,6.5 0 0,0 20,15.5V11.81C21.16,11.39 22,10.29 22,9A3,3 0 0,0 19,6A3,3 0 0,0 16,9C16,10.29 16.84,11.4 18,11.81V15.41C18,17.91 16,19.91 13.5,19.91C11.5,19.91 9.82,18.7 9.22,16.9C12,16.3 14,13.8 14,11V2H10V5H12V11A4,4 0 0,1 8,15A4,4 0 0,1 4,11V5H6V2H2Z" />
    </g>
    <g id="mdi-stethoscope" transform="translate(540 180) scale(1.5)" fill="#fff">
      <path d="M19,8C19.56,8 20,8.43 20,9A1,1 0 0,1 19,10C18.43,10 18,9.55 18,9C18,8.43 18.43,8 19,8M2,2V11C2,13.96 4.19,16.5 7.14,16.91C7.76,19.92 10.42,22 13.5,22A6.5,6.5 0 0,0 20,15.5V11.81C21.16,11.39 22,10.29 22,9A3,3 0 0,0 19,6A3,3 0 0,0 16,9C16,10.29 16.84,11.4 18,11.81V15.41C18,17.91 16,19.91 13.5,19.91C11.5,19.91 9.82,18.7 9.22,16.9C12,16.3 14,13.8 14,11V2H10V5H12V11A4,4 0 0,1 8,15A4,4 0 0,1 4,11V5H6V2H2Z" />
    </g>
    <g id="mdi-sticker" transform="translate(576 180) scale(1.5)" fill="#555">
      <path d="M18.5 2H5.5C3.6 2 2 3.6 2 5.5V18.5C2 20.4 3.6 22 5.5 22H16L22 16V5.5C22 3.6 20.4 2 18.5 2M15 20V18.5C15 16.6 16.6 15 18.5 15H20L15 20Z" />
    </g>
    <g id="mdi-sticker" transform="translate(612 180) scale(1.5)" fill="#fff">
      <path d="M18.5 2H5.5C3.6 2 2 3.6 2 5.5V18.5C2 20.4 3.6 22 5.5 22H16L22 16V5.5C22 3.6 20.4 2 18.5 2M15 20V18.5C15 16.6 16.6 15 18.5 15H20L15 20Z" />
    </g>
    <g id="mdi-sticker-alert" transform="translate(648 180) scale(1.5)" fill="#555">
      <path d="M18.5 2H5.5C3.6 2 2 3.6 2 5.5V18.5C2 20.4 3.6 22 5.5 22H16L22 16V5.5C22 3.6 20.4 2 18.5 2M13 17H11V15H13V16M13 13H11V7H13V12M15 20V18.5C15 16.6 16.6 15 18.5 15H20L15 20Z" />
    </g>
    <g id="mdi-sticker-alert" transform="translate(684 180) scale(1.5)" fill="#fff">
      <path d="M18.5 2H5.5C3.6 2 2 3.6 2 5.5V18.5C2 20.4 3.6 22 5.5 22H16L22 16V5.5C22 3.6 20.4 2 18.5 2M13 17H11V15H13V16M13 13H11V7H13V12M15 20V18.5C15 16.6 16.6 15 18.5 15H20L15 20Z" />
    </g>
    <g id="mdi-sticker-alert-outline" transform="translate(0 216) scale(1.5)" fill="#555">
      <path d="M11 15H13V17H11V15M11 13H13V7H11V13M22 5.5V16L16 22H5.5C3.6 22 2 20.4 2 18.5V5.5C2 3.6 3.6 2 5.5 2H18.5C20.4 2 22 3.6 22 5.5M20 5.8C20 4.8 19.2 4 18.2 4H5.8C4.8 4 4 4.8 4 5.8V18.3C4 19.3 4.8 20.1 5.8 20.1H15V18.6C15 16.7 16.6 15.1 18.5 15.1H20V5.8Z" />
    </g>
    <g id="mdi-sticker-alert-outline" transform="translate(36 216) scale(1.5)" fill="#fff">
      <path d="M11 15H13V17H11V15M11 13H13V7H11V13M22 5.5V16L16 22H5.5C3.6 22 2 20.4 2 18.5V5.5C2 3.6 3.6 2 5.5 2H18.5C20.4 2 22 3.6 22 5.5M20 5.8C20 4.8 19.2 4 18.2 4H5.8C4.8 4 4 4.8 4 5.8V18.3C4 19.3 4.8 20.1 5.8 20.1H15V18.6C15 16.7 16.6 15.1 18.5 15.1H20V5.8Z" />
    </g>
    <g id="mdi-sticker-check" transform="translate(72 216) scale(1.5)" fill="#555">
      <path d="M18.5 2H5.5C3.6 2 2 3.6 2 5.5V18.5C2 20.4 3.6 22 5.5 22H16L22 16V5.5C22 3.6 20.4 2 18.5 2M7 12.5L8.3 11.1L10.4 13.2L15.6 8L17 9.4L10.5 16L7 12.5M15 20V18.5C15 16.6 16.6 15 18.5 15H20L15 20Z" />
    </g>
    <g id="mdi-sticker-check" transform="translate(108 216) scale(1.5)" fill="#fff">
      <path d="M18.5 2H5.5C3.6 2 2 3.6 2 5.5V18.5C2 20.4 3.6 22 5.5 22H16L22 16V5.5C22 3.6 20.4 2 18.5 2M7 12.5L8.3 11.1L10.4 13.2L15.6 8L17 9.4L10.5 16L7 12.5M15 20V18.5C15 16.6 16.6 15 18.5 15H20L15 20Z" />
    </g>
    <g id="mdi-sticker-check-outline" transform="translate(144 216) scale(1.5)" fill="#555">
      <path d="M18.5 2H5.5C3.6 2 2 3.6 2 5.5V18.5C2 20.4 3.6 22 5.5 22H16L22 16V5.5C22 3.6 20.4 2 18.5 2M20 15H18.5C16.6 15 15 16.6 15 18.5V20H5.8C4.8 20 4 19.2 4 18.2V5.8C4 4.8 4.8 4 5.8 4H18.3C19.3 4 20.1 4.8 20.1 5.8V15M15.2 8.2L16.7 9.7L10.7 15.7L7.2 12.2L8.7 10.7L10.7 12.7L15.2 8.2Z" />
    </g>
    <g id="mdi-sticker-check-outline" transform="translate(180 216) scale(1.5)" fill="#fff">
      <path d="M18.5 2H5.5C3.6 2 2 3.6 2 5.5V18.5C2 20.4 3.6 22 5.5 22H16L22 16V5.5C22 3.6 20.4 2 18.5 2M20 15H18.5C16.6 15 15 16.6 15 18.5V20H5.8C4.8 20 4 19.2 4 18.2V5.8C4 4.8 4.8 4 5.8 4H18.3C19.3 4 20.1 4.8 20.1 5.8V15M15.2 8.2L16.7 9.7L10.7 15.7L7.2 12.2L8.7 10.7L10.7 12.7L15.2 8.2Z" />
    </g>
    <g id="mdi-sticker-circle-outline" transform="translate(216 216) scale(1.5)" fill="#555">
      <path d="M12.12,18.46L18.3,12.28C16.94,12.59 15.31,13.2 14.07,14.46C13.04,15.5 12.39,16.83 12.12,18.46M20.75,10H21.05C21.44,10 21.79,10.27 21.93,10.64C22.07,11 22,11.43 21.7,11.71L11.7,21.71C11.5,21.9 11.26,22 11,22L10.64,21.93C10.27,21.79 10,21.44 10,21.05C9.84,17.66 10.73,14.96 12.66,13.03C15.5,10.2 19.62,10 20.75,10M12,2C16.5,2 20.34,5 21.58,9.11L20,9H19.42C18.24,6.07 15.36,4 12,4A8,8 0 0,0 4,12C4,15.36 6.07,18.24 9,19.42C8.97,20.13 9,20.85 9.11,21.57C5,20.33 2,16.5 2,12C2,6.47 6.5,2 12,2Z" />
    </g>
    <g id="mdi-sticker-circle-outline" transform="translate(252 216) scale(1.5)" fill="#fff">
      <path d="M12.12,18.46L18.3,12.28C16.94,12.59 15.31,13.2 14.07,14.46C13.04,15.5 12.39,16.83 12.12,18.46M20.75,10H21.05C21.44,10 21.79,10.27 21.93,10.64C22.07,11 22,11.43 21.7,11.71L11.7,21.71C11.5,21.9 11.26,22 11,22L10.64,21.93C10.27,21.79 10,21.44 10,21.05C9.84,17.66 10.73,14.96 12.66,13.03C15.5,10.2 19.62,10 20.75,10M12,2C16.5,2 20.34,5 21.58,9.11L20,9H19.42C18.24,6.07 15.36,4 12,4A8,8 0 0,0 4,12C4,15.36 6.07,18.24 9,19.42C8.97,20.13 9,20.85 9.11,21.57C5,20.33 2,16.5 2,12C2,6.47 6.5,2 12,2Z" />
    </g>
    <g id="mdi-sticker-emoji" transform="translate(288 216) scale(1.5)" fill="#555">
      <path d="M5.5,2C3.56,2 2,3.56 2,5.5V18.5C2,20.44 3.56,22 5.5,22H16L22,16V5.5C22,3.56 20.44,2 18.5,2H5.5M5.75,4H18.25A1.75,1.75 0 0,1 20,5.75V15H18.5C16.56,15 15,16.56 15,18.5V20H5.75A1.75,1.75 0 0,1 4,18.25V5.75A1.75,1.75 0 0,1 5.75,4M14.44,6.77C14.28,6.77 14.12,6.79 13.97,6.83C13.03,7.09 12.5,8.05 12.74,9C12.79,9.15 12.86,9.3 12.95,9.44L16.18,8.56C16.18,8.39 16.16,8.22 16.12,8.05C15.91,7.3 15.22,6.77 14.44,6.77M8.17,8.5C8,8.5 7.85,8.5 7.7,8.55C6.77,8.81 6.22,9.77 6.47,10.7C6.5,10.86 6.59,11 6.68,11.16L9.91,10.28C9.91,10.11 9.89,9.94 9.85,9.78C9.64,9 8.95,8.5 8.17,8.5M16.72,11.26L7.59,13.77C8.91,15.3 11,15.94 12.95,15.41C14.9,14.87 16.36,13.25 16.72,11.26Z" />
    </g>
    <g id="mdi-sticker-emoji" transform="translate(324 216) scale(1.5)" fill="#fff">
      <path d="M5.5,2C3.56,2 2,3.56 2,5.5V18.5C2,20.44 3.56,22 5.5,22H16L22,16V5.5C22,3.56 20.44,2 18.5,2H5.5M5.75,4H18.25A1.75,1.75 0 0,1 20,5.75V15H18.5C16.56,15 15,16.56 15,18.5V20H5.75A1.75,1.75 0 0,1 4,18.25V5.75A1.75,1.75 0 0,1 5.75,4M14.44,6.77C14.28,6.77 14.12,6.79 13.97,6.83C13.03,7.09 12.5,8.05 12.74,9C12.79,9.15 12.86,9.3 12.95,9.44L16.18,8.56C16.18,8.39 16.16,8.22 16.12,8.05C15.91,7.3 15.22,6.77 14.44,6.77M8.17,8.5C8,8.5 7.85,8.5 7.7,8.55C6.77,8.81 6.22,9.77 6.47,10.7C6.5,10.86 6.59,11 6.68,11.16L9.91,10.28C9.91,10.11 9.89,9.94 9.85,9.78C9.64,9 8.95,8.5 8.17,8.5M16.72,11.26L7.59,13.77C8.91,15.3 11,15.94 12.95,15.41C14.9,14.87 16.36,13.25 16.72,11.26Z" />
    </g>
    <g id="mdi-sticker-minus" transform="translate(360 216) scale(1.5)" fill="#555">
      <path d="M18.5 2H5.5C3.6 2 2 3.6 2 5.5V18.5C2 20.4 3.6 22 5.5 22H16L22 16V5.5C22 3.6 20.4 2 18.5 2M8 11H16V13H8V11M15 20V18.5C15 16.6 16.6 15 18.5 15H20L15 20Z" />
    </g>
    <g id="mdi-sticker-minus" transform="translate(396 216) scale(1.5)" fill="#fff">
      <path d="M18.5 2H5.5C3.6 2 2 3.6 2 5.5V18.5C2 20.4 3.6 22 5.5 22H16L22 16V5.5C22 3.6 20.4 2 18.5 2M8 11H16V13H8V11M15 20V18.5C15 16.6 16.6 15 18.5 15H20L15 20Z" />
    </g>
    <g id="mdi-sticker-minus-outline" transform="translate(432 216) scale(1.5)" fill="#555">
      <path d="M8 11H16V13H8V11M22 5.5V16L16 22H5.5C3.6 22 2 20.4 2 18.5V5.5C2 3.6 3.6 2 5.5 2H18.5C20.4 2 22 3.6 22 5.5M20 5.8C20 4.8 19.2 4 18.2 4H5.8C4.8 4 4 4.8 4 5.8V18.3C4 19.3 4.8 20.1 5.8 20.1H15V18.6C15 16.7 16.6 15.1 18.5 15.1H20V5.8Z" />
    </g>
    <g id="mdi-sticker-minus-outline" transform="translate(468 216) scale(1.5)" fill="#fff">
      <path d="M8 11H16V13H8V11M22 5.5V16L16 22H5.5C3.6 22 2 20.4 2 18.5V5.5C2 3.6 3.6 2 5.5 2H18.5C20.4 2 22 3.6 22 5.5M20 5.8C20 4.8 19.2 4 18.2 4H5.8C4.8 4 4 4.8 4 5.8V18.3C4 19.3 4.8 20.1 5.8 20.1H15V18.6C15 16.7 16.6 15.1 18.5 15.1H20V5.8Z" />
    </g>
    <g id="mdi-sticker-outline" transform="translate(504 216) scale(1.5)" fill="#555">
      <path d="M5.5 2C3.6 2 2 3.6 2 5.5V18.5C2 20.4 3.6 22 5.5 22H16L22 16V5.5C22 3.6 20.4 2 18.5 2H5.5M5.8 4H18.3C19.3 4 20.1 4.8 20.1 5.8V15H18.6C16.7 15 15.1 16.6 15.1 18.5V20H5.8C4.8 20 4 19.2 4 18.2V5.8C4 4.8 4.8 4 5.8 4" />
    </g>
    <g id="mdi-sticker-outline" transform="translate(540 216) scale(1.5)" fill="#fff">
      <path d="M5.5 2C3.6 2 2 3.6 2 5.5V18.5C2 20.4 3.6 22 5.5 22H16L22 16V5.5C22 3.6 20.4 2 18.5 2H5.5M5.8 4H18.3C19.3 4 20.1 4.8 20.1 5.8V15H18.6C16.7 15 15.1 16.6 15.1 18.5V20H5.8C4.8 20 4 19.2 4 18.2V5.8C4 4.8 4.8 4 5.8 4" />
    </g>
    <g id="mdi-sticker-plus" transform="translate(576 216) scale(1.5)" fill="#555">
      <path d="M18.5 2H5.5C3.6 2 2 3.6 2 5.5V18.5C2 20.4 3.6 22 5.5 22H16L22 16V5.5C22 3.6 20.4 2 18.5 2M13 16H11V13H8V11H11V8H13V11H16V13H13V16M15 20V18.5C15 16.6 16.6 15 18.5 15H20L15 20Z" />
    </g>
    <g id="mdi-sticker-plus" transform="translate(612 216) scale(1.5)" fill="#fff">
      <path d="M18.5 2H5.5C3.6 2 2 3.6 2 5.5V18.5C2 20.4 3.6 22 5.5 22H16L22 16V5.5C22 3.6 20.4 2 18.5 2M13 16H11V13H8V11H11V8H13V11H16V13H13V16M15 20V18.5C15 16.6 16.6 15 18.5 15H20L15 20Z" />
    </g>
    <g id="mdi-sticker-plus-outline" transform="translate(648 216) scale(1.5)" fill="#555">
      <path d="M13 11H16V13H13V16H11V13H8V11H11V8H13V11M22 5.5V16L16 22H5.5C3.6 22 2 20.4 2 18.5V5.5C2 3.6 3.6 2 5.5 2H18.5C20.4 2 22 3.6 22 5.5M20 5.8C20 4.8 19.2 4 18.2 4H5.8C4.8 4 4 4.8 4 5.8V18.3C4 19.3 4.8 20.1 5.8 20.1H15V18.6C15 16.7 16.6 15.1 18.5 15.1H20V5.8Z" />
    </g>
    <g id="mdi-sticker-plus-outline" transform="translate(684 216) scale(1.5)" fill="#fff">
      <path d="M13 11H16V13H13V16H11V13H8V11H11V8H13V11M22 5.5V16L16 22H5.5C3.6 22 2 20.4 2 18.5V5.5C2 3.6 3.6 2 5.5 2H18.5C20.4 2 22 3.6 22 5.5M20 5.8C20 4.8 19.2 4 18.2 4H5.8C4.8 4 4 4.8 4 5.8V18.3C4 19.3 4.8 20.1 5.8 20.1H15V18.6C15 16.7 16.6 15.1 18.5 15.1H20V5.8Z" />
    </g>
    <g id="mdi-sticker-remove" transform="translate(0 252) scale(1.5)" fill="#555">
      <path d="M18.5 2H5.5C3.6 2 2 3.6 2 5.5V18.5C2 20.4 3.6 22 5.5 22H16L22 16V5.5C22 3.6 20.4 2 18.5 2M12 13.4L9.9 15.5L8.5 14.1L10.6 12L8.5 9.9L9.9 8.5L12 10.6L14.1 8.5L15.5 9.9L13.4 12L15.5 14.1L14.1 15.5L12 13.4M15 20V18.5C15 16.6 16.6 15 18.5 15H20L15 20Z" />
    </g>
    <g id="mdi-sticker-remove" transform="translate(36 252) scale(1.5)" fill="#fff">
      <path d="M18.5 2H5.5C3.6 2 2 3.6 2 5.5V18.5C2 20.4 3.6 22 5.5 22H16L22 16V5.5C22 3.6 20.4 2 18.5 2M12 13.4L9.9 15.5L8.5 14.1L10.6 12L8.5 9.9L9.9 8.5L12 10.6L14.1 8.5L15.5 9.9L13.4 12L15.5 14.1L14.1 15.5L12 13.4M15 20V18.5C15 16.6 16.6 15 18.5 15H20L15 20Z" />
    </g>
    <g id="mdi-sticker-remove-outline" transform="translate(72 252) scale(1.5)" fill="#555">
      <path d="M16 9.4L13.4 12L16 14.6L14.6 16L12 13.4L9.4 16L8 14.6L10.6 12L8 9.4L9.4 8L12 10.6L14.6 8L16 9.4M22 5.5V16L16 22H5.5C3.6 22 2 20.4 2 18.5V5.5C2 3.6 3.6 2 5.5 2H18.5C20.4 2 22 3.6 22 5.5M20 5.8C20 4.8 19.2 4 18.2 4H5.8C4.8 4 4 4.8 4 5.8V18.3C4 19.3 4.8 20.1 5.8 20.1H15V18.6C15 16.7 16.6 15.1 18.5 15.1H20V5.8Z" />
    </g>
    <g id="mdi-sticker-remove-outline" transform="translate(108 252) scale(1.5)" fill="#fff">
      <path d="M16 9.4L13.4 12L16 14.6L14.6 16L12 13.4L9.4 16L8 14.6L10.6 12L8 9.4L9.4 8L12 10.6L14.6 8L16 9.4M22 5.5V16L16 22H5.5C3.6 22 2 20.4 2 18.5V5.5C2 3.6 3.6 2 5.5 2H18.5C20.4 2 22 3.6 22 5.5M20 5.8C20 4.8 19.2 4 18.2 4H5.8C4.8 4 4 4.8 4 5.8V18.3C4 19.3 4.8 20.1 5.8 20.1H15V18.6C15 16.7 16.6 15.1 18.5 15.1H20V5.8Z" />
    </g>
    <g id="mdi-stocking" transform="translate(144 252) scale(1.5)" fill="#555">
      <path d="M17,2A2,2 0 0,1 19,4V7A2,2 0 0,1 17,9V17C17,17.85 16.5,18.57 15.74,18.86L9.5,21.77C8.5,22.24 7.29,21.81 6.83,20.81L6,19C5.5,18 5.95,16.8 6.95,16.34L10,14.91V9A2,2 0 0,1 8,7V4A2,2 0 0,1 10,2H17M10,4V7H17V4H10Z" />
    </g>
    <g id="mdi-stocking" transform="translate(180 252) scale(1.5)" fill="#fff">
      <path d="M17,2A2,2 0 0,1 19,4V7A2,2 0 0,1 17,9V17C17,17.85 16.5,18.57 15.74,18.86L9.5,21.77C8.5,22.24 7.29,21.81 6.83,20.81L6,19C5.5,18 5.95,16.8 6.95,16.34L10,14.91V9A2,2 0 0,1 8,7V4A2,2 0 0,1 10,2H17M10,4V7H17V4H10Z" />
    </g>
    <g id="mdi-stomach" transform="translate(216 252) scale(1.5)" fill="#555">
      <path d="M4 18C4.67 19.85 6.07 22 12 22C14.36 22 17.07 21.93 19 20C20 19 22 17 22 11S20 4 18 4C16.62 4 15 4 14 6V6.03A1.82 1.82 0 0 1 12.13 6.95C11 6.81 11 6.37 11 6V2H9V6A2.92 2.92 0 0 0 12 9C13 9 13 10.78 13 12C13 13.89 12.5 15.26 11 16C8.69 17.15 6.39 17 5.61 15.47A1.5 1.5 0 0 0 3.14 14.87A3.67 3.67 0 0 0 2 18V22H4Z" />
    </g>
    <g id="mdi-stomach" transform="translate(252 252) scale(1.5)" fill="#fff">
      <path d="M4 18C4.67 19.85 6.07 22 12 22C14.36 22 17.07 21.93 19 20C20 19 22 17 22 11S20 4 18 4C16.62 4 15 4 14 6V6.03A1.82 1.82 0 0 1 12.13 6.95C11 6.81 11 6.37 11 6V2H9V6A2.92 2.92 0 0 0 12 9C13 9 13 10.78 13 12C13 13.89 12.5 15.26 11 16C8.69 17.15 6.39 17 5.61 15.47A1.5 1.5 0 0 0 3.14 14.87A3.67 3.67 0 0 0 2 18V22H4Z" />
    </g>
    <g id="mdi-stop" transform="translate(288 252) scale(1.5)" fill="#555">
      <path d="M18,18H6V6H18V18Z" />
    </g>
    <g id="mdi-stop" transform="translate(324 252) scale(1.5)" fill="#fff">
      <path d="M18,18H6V6H18V18Z" />
    </g>
    <g id="mdi-stop-circle" transform="translate(360 252) scale(1.5)" fill="#555">
      <path d="M12,2A10,10 0 0,0 2,12A10,10 0 0,0 12,22A10,10 0 0,0 22,12A10,10 0 0,0 12,2M9,9H15V15H9" />
    </g>
    <g id="mdi-stop-circle" transform="translate(396 252) scale(1.5)" fill="#fff">
      <path d="M12,2A10,10 0 0,0 2,12A10,10 0 0,0 12,22A10,10 0 0,0 22,12A10,10 0 0,0 12,2M9,9H15V15H9" />
    </g>
    <g id="mdi-stop-circle-outline" transform="translate(432 252) scale(1.5)" fill="#555">
      <path d="M12,2A10,10 0 0,0 2,12A10,10 0 0,0 12,22A10,10 0 0,0 22,12A10,10 0 0,0 12,2M12,4C16.41,4 20,7.59 20,12C20,16.41 16.41,20 12,20C7.59,20 4,16.41 4,12C4,7.59 7.59,4 12,4M9,9V15H15V9" />
    </g>
    <g id="mdi-stop-circle-outline" transform="translate(468 252) scale(1.5)" fill="#fff">
      <path d="M12,2A10,10 0 0,0 2,12A10,10 0 0,0 12,22A10,10 0 0,0 22,12A10,10 0 0,0 12,2M12,4C16.41,4 20,7.59 20,12C20,16.41 16.41,20 12,20C7.59,20 4,16.41 4,12C4,7.59 7.59,4 12,4M9,9V15H15V9" />
    </g>
    <g id="mdi-store" transform="translate(504 252) scale(1.5)" fill="#555">
      <path d="M12,18H6V14H12M21,14V12L20,7H4L3,12V14H4V20H14V14H18V20H20V14M20,4H4V6H20V4Z" />
    </g>
    <g id="mdi-store" transform="translate(540 252) scale(1.5)" fill="#fff">
      <path d="M12,18H6V14H12M21,14V12L20,7H4L3,12V14H4V20H14V14H18V20H20V14M20,4H4V6H20V4Z" />
    </g>
    <g id="mdi-store-24-hour" transform="translate(576 252) scale(1.5)" fill="#555">
      <path d="M16,12H15V10H13V7H14V9H15V7H16M11,10H9V11H11V12H8V9H10V8H8V7H11M19,7V4H5V7H2V20H10V16H14V20H22V7H19Z" />
    </g>
    <g id="mdi-store-24-hour" transform="translate(612 252) scale(1.5)" fill="#fff">
      <path d="M16,12H15V10H13V7H14V9H15V7H16M11,10H9V11H11V12H8V9H10V8H8V7H11M19,7V4H5V7H2V20H10V16H14V20H22V7H19Z" />
    </g>
    <g id="mdi-store-minus" transform="translate(648 252) scale(1.5)" fill="#555">
      <path d="M4 4V6H20V4M4 7L3 12V14H4V20H13C12.95 19.66 12.92 19.31 12.92 18.95C12.92 17.73 13.3 16.53 14 15.53V14H15.54C16.54 13.33 17.71 12.96 18.91 12.96C19.62 12.96 20.33 13.09 21 13.34V12L20 7M6 14H12V18H6M15 18V20H23V18" />
    </g>
    <g id="mdi-store-minus" transform="translate(684 252) scale(1.5)" fill="#fff">
      <path d="M4 4V6H20V4M4 7L3 12V14H4V20H13C12.95 19.66 12.92 19.31 12.92 18.95C12.92 17.73 13.3 16.53 14 15.53V14H15.54C16.54 13.33 17.71 12.96 18.91 12.96C19.62 12.96 20.33 13.09 21 13.34V12L20 7M6 14H12V18H6M15 18V20H23V18" />
    </g>
    <g id="mdi-store-outline" transform="translate(0 288) scale(1.5)" fill="#555">
      <path d="M18.36 9L18.96 12H5.04L5.64 9H18.36M20 4H4V6H20V4M20 7H4L3 12V14H4V20H14V14H18V20H20V14H21V12L20 7M6 18V14H12V18H6Z" />
    </g>
    <g id="mdi-store-outline" transform="translate(36 288) scale(1.5)" fill="#fff">
      <path d="M18.36 9L18.96 12H5.04L5.64 9H18.36M20 4H4V6H20V4M20 7H4L3 12V14H4V20H14V14H18V20H20V14H21V12L20 7M6 18V14H12V18H6Z" />
    </g>
    <g id="mdi-store-plus" transform="translate(72 288) scale(1.5)" fill="#555">
      <path d="M4 4V6H20V4M4 7L3 12V14H4V20H13C12.95 19.66 12.92 19.31 12.92 18.95C12.92 17.73 13.3 16.53 14 15.53V14H15.54C16.54 13.33 17.71 12.96 18.91 12.96C19.62 12.96 20.33 13.09 21 13.34V12L20 7M6 14H12V18H6M18 15V18H15V20H18V23H20V20H23V18H20V15" />
    </g>
    <g id="mdi-store-plus" transform="translate(108 288) scale(1.5)" fill="#fff">
      <path d="M4 4V6H20V4M4 7L3 12V14H4V20H13C12.95 19.66 12.92 19.31 12.92 18.95C12.92 17.73 13.3 16.53 14 15.53V14H15.54C16.54 13.33 17.71 12.96 18.91 12.96C19.62 12.96 20.33 13.09 21 13.34V12L20 7M6 14H12V18H6M18 15V18H15V20H18V23H20V20H23V18H20V15" />
    </g>
    <g id="mdi-store-remove" transform="translate(144 288) scale(1.5)" fill="#555">
      <path d="M4 4H20V6H4V4M15.46 16.88L16.88 15.46L19 17.59L21.12 15.47L22.54 16.88L20.41 19L22.54 21.12L21.12 22.54L19 20.41L16.88 22.54L15.46 21.12L17.59 19L15.47 16.88M4 7H20L21 12V13.34C20.33 13.09 19.62 12.96 18.91 12.96C17.71 12.96 16.54 13.33 15.54 14H14V15.53C13.3 16.53 12.92 17.73 12.92 18.95L13 20H4V14H3V12L4 7M6 14V18H12V14H6Z" />
    </g>
    <g id="mdi-store-remove" transform="translate(180 288) scale(1.5)" fill="#fff">
      <path d="M4 4H20V6H4V4M15.46 16.88L16.88 15.46L19 17.59L21.12 15.47L22.54 16.88L20.41 19L22.54 21.12L21.12 22.54L19 20.41L16.88 22.54L15.46 21.12L17.59 19L15.47 16.88M4 7H20L21 12V13.34C20.33 13.09 19.62 12.96 18.91 12.96C17.71 12.96 16.54 13.33 15.54 14H14V15.53C13.3 16.53 12.92 17.73 12.92 18.95L13 20H4V14H3V12L4 7M6 14V18H12V14H6Z" />
    </g>
    <g id="mdi-storefront" transform="translate(216 288) scale(1.5)" fill="#555">
      <path d="M5.06 3C4.63 3 4.22 3.14 3.84 3.42C3.46 3.7 3.24 4.06 3.14 4.5L2.11 8.91C1.86 10 2.06 10.92 2.69 11.73C2.81 11.85 2.93 11.97 3.04 12.07C3.63 12.64 4.28 13 5.22 13C6.16 13 6.91 12.59 7.47 12.05C8.1 12.67 8.86 13 9.8 13C10.64 13 11.44 12.63 12 12.07C12.68 12.7 13.45 13 14.3 13C15.17 13 15.91 12.67 16.54 12.05C17.11 12.62 17.86 13 18.81 13C19.76 13 20.43 12.65 21 12.06C21.09 11.97 21.18 11.87 21.28 11.77C21.94 10.95 22.14 10 21.89 8.91L20.86 4.5C20.73 4.06 20.5 3.7 20.13 3.42C19.77 3.14 19.38 3 18.94 3M18.89 4.97L19.97 9.38C20.06 9.81 19.97 10.2 19.69 10.55C19.44 10.86 19.13 11 18.75 11C18.44 11 18.17 10.9 17.95 10.66C17.73 10.43 17.61 10.16 17.58 9.84L16.97 5M5.06 5H7.03L6.42 9.84C6.3 10.63 5.91 11 5.25 11C4.84 11 4.53 10.86 4.31 10.55C4.03 10.2 3.94 9.81 4.03 9.38M9.05 5H11V9.7C11 10.05 10.89 10.35 10.64 10.62C10.39 10.88 10.08 11 9.7 11C9.36 11 9.07 10.88 8.84 10.59C8.61 10.3 8.5 10 8.5 9.66V9.5M13 5H14.95L15.5 9.5C15.58 9.92 15.5 10.27 15.21 10.57C14.95 10.87 14.61 11 14.2 11C13.89 11 13.61 10.88 13.36 10.62C13.11 10.35 13 10.05 13 9.7M3 14.03V19C3 20.11 3.89 21 5 21C9.67 21 14.33 21 19 21C20.1 21 21 20.11 21 19V14.05C20.45 14.63 19.75 14.96 19 15C18 15.03 17.25 14.74 16.54 14.05C15.94 14.65 15.14 15 14.3 15C13.4 15 12.6 14.64 12 14.07C11.43 14.64 10.65 15 9.78 15C8.87 15 8.07 14.65 7.47 14.05C6.89 14.64 6.1 15 5.23 15C4.33 15 3.66 14.65 3 14.03Z" />
    </g>
    <g id="mdi-storefront" transform="translate(252 288) scale(1.5)" fill="#fff">
      <path d="M5.06 3C4.63 3 4.22 3.14 3.84 3.42C3.46 3.7 3.24 4.06 3.14 4.5L2.11 8.91C1.86 10 2.06 10.92 2.69 11.73C2.81 11.85 2.93 11.97 3.04 12.07C3.63 12.64 4.28 13 5.22 13C6.16 13 6.91 12.59 7.47 12.05C8.1 12.67 8.86 13 9.8 13C10.64 13 11.44 12.63 12 12.07C12.68 12.7 13.45 13 14.3 13C15.17 13 15.91 12.67 16.54 12.05C17.11 12.62 17.86 13 18.81 13C19.76 13 20.43 12.65 21 12.06C21.09 11.97 21.18 11.87 21.28 11.77C21.94 10.95 22.14 10 21.89 8.91L20.86 4.5C20.73 4.06 20.5 3.7 20.13 3.42C19.77 3.14 19.38 3 18.94 3M18.89 4.97L19.97 9.38C20.06 9.81 19.97 10.2 19.69 10.55C19.44 10.86 19.13 11 18.75 11C18.44 11 18.17 10.9 17.95 10.66C17.73 10.43 17.61 10.16 17.58 9.84L16.97 5M5.06 5H7.03L6.42 9.84C6.3 10.63 5.91 11 5.25 11C4.84 11 4.53 10.86 4.31 10.55C4.03 10.2 3.94 9.81 4.03 9.38M9.05 5H11V9.7C11 10.05 10.89 10.35 10.64 10.62C10.39 10.88 10.08 11 9.7 11C9.36 11 9.07 10.88 8.84 10.59C8.61 10.3 8.5 10 8.5 9.66V9.5M13 5H14.95L15.5 9.5C15.58 9.92 15.5 10.27 15.21 10.57C14.95 10.87 14.61 11 14.2 11C13.89 11 13.61 10.88 13.36 10.62C13.11 10.35 13 10.05 13 9.7M3 14.03V19C3 20.11 3.89 21 5 21C9.67 21 14.33 21 19 21C20.1 21 21 20.11 21 19V14.05C20.45 14.63 19.75 14.96 19 15C18 15.03 17.25 14.74 16.54 14.05C15.94 14.65 15.14 15 14.3 15C13.4 15 12.6 14.64 12 14.07C11.43 14.64 10.65 15 9.78 15C8.87 15 8.07 14.65 7.47 14.05C6.89 14.64 6.1 15 5.23 15C4.33 15 3.66 14.65 3 14.03Z" />
    </g>
    <g id="mdi-storefront-outline" transform="translate(288 288) scale(1.5)" fill="#555">
      <path d="M5.06 3C4.63 3 4.22 3.14 3.84 3.42S3.24 4.06 3.14 4.5L2.11 8.91C1.86 10 2.06 10.95 2.72 11.77L3 12.05V19C3 19.5 3.2 20 3.61 20.39S4.5 21 5 21H19C19.5 21 20 20.8 20.39 20.39S21 19.5 21 19V12.05L21.28 11.77C21.94 10.95 22.14 10 21.89 8.91L20.86 4.5C20.73 4.06 20.5 3.7 20.13 3.42C19.77 3.14 19.38 3 18.94 3H5.06M18.89 4.97L19.97 9.38C20.06 9.81 19.97 10.2 19.69 10.55C19.44 10.86 19.13 11 18.75 11C18.44 11 18.17 10.9 17.95 10.66C17.73 10.43 17.61 10.16 17.58 9.84L16.97 5L18.89 4.97M5.06 5H7.03L6.42 9.84C6.3 10.63 5.91 11 5.25 11C4.84 11 4.53 10.86 4.31 10.55C4.03 10.2 3.94 9.81 4.03 9.38L5.06 5M9.05 5H11V9.7C11 10.05 10.89 10.35 10.64 10.62C10.39 10.88 10.08 11 9.7 11C9.36 11 9.07 10.88 8.84 10.59S8.5 10 8.5 9.66V9.5L9.05 5M13 5H14.95L15.5 9.5C15.58 9.92 15.5 10.27 15.21 10.57C14.95 10.87 14.61 11 14.2 11C13.89 11 13.61 10.88 13.36 10.62C13.11 10.35 13 10.05 13 9.7V5M7.45 12.05C8.08 12.67 8.86 13 9.8 13C10.64 13 11.38 12.67 12 12.05C12.69 12.67 13.45 13 14.3 13C15.17 13 15.92 12.67 16.55 12.05C17.11 12.67 17.86 13 18.8 13H19.03V19H5V13H5.25C6.16 13 6.89 12.67 7.45 12.05Z" />
    </g>
    <g id="mdi-storefront-outline" transform="translate(324 288) scale(1.5)" fill="#fff">
      <path d="M5.06 3C4.63 3 4.22 3.14 3.84 3.42S3.24 4.06 3.14 4.5L2.11 8.91C1.86 10 2.06 10.95 2.72 11.77L3 12.05V19C3 19.5 3.2 20 3.61 20.39S4.5 21 5 21H19C19.5 21 20 20.8 20.39 20.39S21 19.5 21 19V12.05L21.28 11.77C21.94 10.95 22.14 10 21.89 8.91L20.86 4.5C20.73 4.06 20.5 3.7 20.13 3.42C19.77 3.14 19.38 3 18.94 3H5.06M18.89 4.97L19.97 9.38C20.06 9.81 19.97 10.2 19.69 10.55C19.44 10.86 19.13 11 18.75 11C18.44 11 18.17 10.9 17.95 10.66C17.73 10.43 17.61 10.16 17.58 9.84L16.97 5L18.89 4.97M5.06 5H7.03L6.42 9.84C6.3 10.63 5.91 11 5.25 11C4.84 11 4.53 10.86 4.31 10.55C4.03 10.2 3.94 9.81 4.03 9.38L5.06 5M9.05 5H11V9.7C11 10.05 10.89 10.35 10.64 10.62C10.39 10.88 10.08 11 9.7 11C9.36 11 9.07 10.88 8.84 10.59S8.5 10 8.5 9.66V9.5L9.05 5M13 5H14.95L15.5 9.5C15.58 9.92 15.5 10.27 15.21 10.57C14.95 10.87 14.61 11 14.2 11C13.89 11 13.61 10.88 13.36 10.62C13.11 10.35 13 10.05 13 9.7V5M7.45 12.05C8.08 12.67 8.86 13 9.8 13C10.64 13 11.38 12.67 12 12.05C12.69 12.67 13.45 13 14.3 13C15.17 13 15.92 12.67 16.55 12.05C17.11 12.67 17.86 13 18.8 13H19.03V19H5V13H5.25C6.16 13 6.89 12.67 7.45 12.05Z" />
    </g>
    <g id="mdi-stove" transform="translate(360 288) scale(1.5)" fill="#555">
      <path d="M6,14H8L11,17H9L6,14M4,4H5V3A1,1 0 0,1 6,2H10A1,1 0 0,1 11,3V4H13V3A1,1 0 0,1 14,2H18A1,1 0 0,1 19,3V4H20A2,2 0 0,1 22,6V19A2,2 0 0,1 20,21V22H17V21H7V22H4V21A2,2 0 0,1 2,19V6A2,2 0 0,1 4,4M18,7A1,1 0 0,1 19,8A1,1 0 0,1 18,9A1,1 0 0,1 17,8A1,1 0 0,1 18,7M14,7A1,1 0 0,1 15,8A1,1 0 0,1 14,9A1,1 0 0,1 13,8A1,1 0 0,1 14,7M20,6H4V10H20V6M4,19H20V12H4V19M6,7A1,1 0 0,1 7,8A1,1 0 0,1 6,9A1,1 0 0,1 5,8A1,1 0 0,1 6,7M13,14H15L18,17H16L13,14Z" />
    </g>
    <g id="mdi-stove" transform="translate(396 288) scale(1.5)" fill="#fff">
      <path d="M6,14H8L11,17H9L6,14M4,4H5V3A1,1 0 0,1 6,2H10A1,1 0 0,1 11,3V4H13V3A1,1 0 0,1 14,2H18A1,1 0 0,1 19,3V4H20A2,2 0 0,1 22,6V19A2,2 0 0,1 20,21V22H17V21H7V22H4V21A2,2 0 0,1 2,19V6A2,2 0 0,1 4,4M18,7A1,1 0 0,1 19,8A1,1 0 0,1 18,9A1,1 0 0,1 17,8A1,1 0 0,1 18,7M14,7A1,1 0 0,1 15,8A1,1 0 0,1 14,9A1,1 0 0,1 13,8A1,1 0 0,1 14,7M20,6H4V10H20V6M4,19H20V12H4V19M6,7A1,1 0 0,1 7,8A1,1 0 0,1 6,9A1,1 0 0,1 5,8A1,1 0 0,1 6,7M13,14H15L18,17H16L13,14Z" />
    </g>
    <g id="mdi-strategy" transform="translate(432 288) scale(1.5)" fill="#555">
      <path d="M6.91 5.5L9.21 7.79L7.79 9.21L5.5 6.91L3.21 9.21L1.79 7.79L4.09 5.5L1.79 3.21L3.21 1.79L5.5 4.09L7.79 1.79L9.21 3.21M22.21 16.21L20.79 14.79L18.5 17.09L16.21 14.79L14.79 16.21L17.09 18.5L14.79 20.79L16.21 22.21L18.5 19.91L20.79 22.21L22.21 20.79L19.91 18.5M20.4 6.83L17.18 11L15.6 9.73L16.77 8.23A9.08 9.08 0 0 0 10.11 13.85A4.5 4.5 0 1 1 7.5 13A4 4 0 0 1 8.28 13.08A11.27 11.27 0 0 1 16.43 6.26L15 5.18L16.27 3.6M10 17.5A2.5 2.5 0 1 0 7.5 20A2.5 2.5 0 0 0 10 17.5Z" />
    </g>
    <g id="mdi-strategy" transform="translate(468 288) scale(1.5)" fill="#fff">
      <path d="M6.91 5.5L9.21 7.79L7.79 9.21L5.5 6.91L3.21 9.21L1.79 7.79L4.09 5.5L1.79 3.21L3.21 1.79L5.5 4.09L7.79 1.79L9.21 3.21M22.21 16.21L20.79 14.79L18.5 17.09L16.21 14.79L14.79 16.21L17.09 18.5L14.79 20.79L16.21 22.21L18.5 19.91L20.79 22.21L22.21 20.79L19.91 18.5M20.4 6.83L17.18 11L15.6 9.73L16.77 8.23A9.08 9.08 0 0 0 10.11 13.85A4.5 4.5 0 1 1 7.5 13A4 4 0 0 1 8.28 13.08A11.27 11.27 0 0 1 16.43 6.26L15 5.18L16.27 3.6M10 17.5A2.5 2.5 0 1 0 7.5 20A2.5 2.5 0 0 0 10 17.5Z" />
    </g>
    <g id="mdi-stretch-to-page" transform="translate(504 288) scale(1.5)" fill="#555">
      <path d="M20,2H4C2.89,2 2,2.89 2,4V20C2,21.11 2.89,22 4,22H20C21.11,22 22,21.11 22,20V4C22,2.89 21.11,2 20,2M9,19H5V15L6.29,16.29L7.83,14.75L9.25,16.17L7.71,17.71M7.83,9.25L6.29,7.71L5,9V5H9L7.71,6.29L9.25,7.83M19,19H15L16.29,17.71L14.75,16.17L16.17,14.75L17.71,16.29L19,15M19,9L17.71,7.71L16.17,9.25L14.75,7.83L16.29,6.29L15,5H19" />
    </g>
    <g id="mdi-stretch-to-page" transform="translate(540 288) scale(1.5)" fill="#fff">
      <path d="M20,2H4C2.89,2 2,2.89 2,4V20C2,21.11 2.89,22 4,22H20C21.11,22 22,21.11 22,20V4C22,2.89 21.11,2 20,2M9,19H5V15L6.29,16.29L7.83,14.75L9.25,16.17L7.71,17.71M7.83,9.25L6.29,7.71L5,9V5H9L7.71,6.29L9.25,7.83M19,19H15L16.29,17.71L14.75,16.17L16.17,14.75L17.71,16.29L19,15M19,9L17.71,7.71L16.17,9.25L14.75,7.83L16.29,6.29L15,5H19" />
    </g>
    <g id="mdi-stretch-to-page-outline" transform="translate(576 288) scale(1.5)" fill="#555">
      <path d="M20,2H4C2.89,2 2,2.89 2,4V20C2,21.11 2.89,22 4,22H20C21.11,22 22,21.11 22,20V4C22,2.89 21.11,2 20,2M20,20H4V4H20M8.83,10.25L7.29,8.71L6,10V6H10L8.71,7.29L10.25,8.83M13.75,8.83L15.29,7.29L14,6H18V10L16.71,8.71L15.17,10.25M15.17,13.75L16.71,15.29L18,14V18H14L15.29,16.71L13.75,15.17M10.25,15.17L8.71,16.71L10,18H6V14L7.29,15.29L8.83,13.75" />
    </g>
    <g id="mdi-stretch-to-page-outline" transform="translate(612 288) scale(1.5)" fill="#fff">
      <path d="M20,2H4C2.89,2 2,2.89 2,4V20C2,21.11 2.89,22 4,22H20C21.11,22 22,21.11 22,20V4C22,2.89 21.11,2 20,2M20,20H4V4H20M8.83,10.25L7.29,8.71L6,10V6H10L8.71,7.29L10.25,8.83M13.75,8.83L15.29,7.29L14,6H18V10L16.71,8.71L15.17,10.25M15.17,13.75L16.71,15.29L18,14V18H14L15.29,16.71L13.75,15.17M10.25,15.17L8.71,16.71L10,18H6V14L7.29,15.29L8.83,13.75" />
    </g>
    <g id="mdi-string-lights" transform="translate(648 288) scale(1.5)" fill="#555">
      <path d="M22.56 11.39C22.36 10.59 21.82 9.85 21.05 9.44L20.63 7.74C21.11 7.58 21.57 7.41 22 7.23V5C20 6.07 16.53 7.03 12 7.03S4 6.07 2 5V7.23C2.43 7.41 2.89 7.58 3.37 7.74L2.95 9.44C2.18 9.85 1.64 10.59 1.44 11.39C.905 13.57 .385 17.31 2.92 17.93C4 18.2 6 17.89 7.27 12.82C7.46 12 7.33 11.12 6.84 10.39L7.26 8.67C8.14 8.81 9.05 8.9 10 8.96V10.74C9.35 11.33 9 12.17 9 13C9 15.24 9.39 19 12 19C13.12 19 15 18.22 15 13C15 12.17 14.65 11.33 14 10.74V8.96C14.95 8.9 15.86 8.81 16.74 8.67L17.16 10.39C16.67 11.12 16.54 12 16.73 12.82C18 17.89 20 18.2 21.08 17.93C23.61 17.31 23.09 13.57 22.56 11.39M5.81 12.47C5.81 12.47 4.74 16.84 3.28 16.5C1.82 16.12 2.9 11.75 2.9 11.75S3.26 10.29 4.71 10.65 5.81 12.47 5.81 12.47M12 17.5C10.5 17.5 10.5 13 10.5 13S10.5 11.5 12 11.5 13.5 13 13.5 13 13.5 17.5 12 17.5M20.72 16.5C19.27 16.84 18.19 12.47 18.19 12.47S17.83 11 19.29 10.65 21.1 11.75 21.1 11.75 22.18 16.12 20.72 16.5Z" />
    </g>
    <g id="mdi-string-lights" transform="translate(684 288) scale(1.5)" fill="#fff">
      <path d="M22.56 11.39C22.36 10.59 21.82 9.85 21.05 9.44L20.63 7.74C21.11 7.58 21.57 7.41 22 7.23V5C20 6.07 16.53 7.03 12 7.03S4 6.07 2 5V7.23C2.43 7.41 2.89 7.58 3.37 7.74L2.95 9.44C2.18 9.85 1.64 10.59 1.44 11.39C.905 13.57 .385 17.31 2.92 17.93C4 18.2 6 17.89 7.27 12.82C7.46 12 7.33 11.12 6.84 10.39L7.26 8.67C8.14 8.81 9.05 8.9 10 8.96V10.74C9.35 11.33 9 12.17 9 13C9 15.24 9.39 19 12 19C13.12 19 15 18.22 15 13C15 12.17 14.65 11.33 14 10.74V8.96C14.95 8.9 15.86 8.81 16.74 8.67L17.16 10.39C16.67 11.12 16.54 12 16.73 12.82C18 17.89 20 18.2 21.08 17.93C23.61 17.31 23.09 13.57 22.56 11.39M5.81 12.47C5.81 12.47 4.74 16.84 3.28 16.5C1.82 16.12 2.9 11.75 2.9 11.75S3.26 10.29 4.71 10.65 5.81 12.47 5.81 12.47M12 17.5C10.5 17.5 10.5 13 10.5 13S10.5 11.5 12 11.5 13.5 13 13.5 13 13.5 17.5 12 17.5M20.72 16.5C19.27 16.84 18.19 12.47 18.19 12.47S17.83 11 19.29 10.65 21.1 11.75 21.1 11.75 22.18 16.12 20.72 16.5Z" />
    </g>
    <g id="mdi-string-lights-off" transform="translate(0 324) scale(1.5)" fill="#555">
      <path d="M14 10.74V8.96C14.95 8.9 15.86 8.81 16.74 8.67L17.16 10.39C16.67 11.12 16.54 12 16.73 12.82C16.82 13.17 16.91 13.5 17 13.8L21.12 17.92C23.61 17.26 23.09 13.55 22.56 11.39C22.36 10.59 21.82 9.85 21.05 9.44L20.63 7.74C21.11 7.58 21.57 7.41 22 7.23V5C20 6.07 16.53 7.03 12 7.03C11.37 7.03 10.76 7 10.17 6.97M20.72 16.5C19.27 16.84 18.19 12.47 18.19 12.47S17.83 11 19.29 10.65 21.1 11.75 21.1 11.75 22.18 16.12 20.72 16.5M14.95 14.29L13.5 12.83V12.83L12.18 11.5H12.18L10 9.34V9.34L9.58 8.93H9.59L7.32 6.66H7.32L2.39 1.73L1.11 3L3.91 5.8C3.19 5.55 2.53 5.28 2 5V7.23C2.43 7.41 2.89 7.58 3.37 7.74L2.95 9.44C2.18 9.85 1.64 10.59 1.44 11.39C.905 13.57 .385 17.31 2.92 17.93C4 18.2 6 17.89 7.27 12.82C7.46 12 7.33 11.12 6.84 10.39L7.17 9.06L9.5 11.38C9.18 11.87 9 12.44 9 13C9 15.24 9.39 19 12 19C12.8 19 13.97 18.59 14.59 16.5L20.84 22.73L22.11 21.46L14.95 14.3L14.95 14.29M5.81 12.47C5.81 12.47 4.74 16.84 3.28 16.5C1.82 16.12 2.9 11.75 2.9 11.75S3.26 10.29 4.71 10.65 5.81 12.47 5.81 12.47M12 17.5C10.5 17.5 10.5 13 10.5 13S10.5 12.77 10.6 12.5L13.32 15.21C13.13 16.35 12.76 17.5 12 17.5Z" />
    </g>
    <g id="mdi-string-lights-off" transform="translate(36 324) scale(1.5)" fill="#fff">
      <path d="M14 10.74V8.96C14.95 8.9 15.86 8.81 16.74 8.67L17.16 10.39C16.67 11.12 16.54 12 16.73 12.82C16.82 13.17 16.91 13.5 17 13.8L21.12 17.92C23.61 17.26 23.09 13.55 22.56 11.39C22.36 10.59 21.82 9.85 21.05 9.44L20.63 7.74C21.11 7.58 21.57 7.41 22 7.23V5C20 6.07 16.53 7.03 12 7.03C11.37 7.03 10.76 7 10.17 6.97M20.72 16.5C19.27 16.84 18.19 12.47 18.19 12.47S17.83 11 19.29 10.65 21.1 11.75 21.1 11.75 22.18 16.12 20.72 16.5M14.95 14.29L13.5 12.83V12.83L12.18 11.5H12.18L10 9.34V9.34L9.58 8.93H9.59L7.32 6.66H7.32L2.39 1.73L1.11 3L3.91 5.8C3.19 5.55 2.53 5.28 2 5V7.23C2.43 7.41 2.89 7.58 3.37 7.74L2.95 9.44C2.18 9.85 1.64 10.59 1.44 11.39C.905 13.57 .385 17.31 2.92 17.93C4 18.2 6 17.89 7.27 12.82C7.46 12 7.33 11.12 6.84 10.39L7.17 9.06L9.5 11.38C9.18 11.87 9 12.44 9 13C9 15.24 9.39 19 12 19C12.8 19 13.97 18.59 14.59 16.5L20.84 22.73L22.11 21.46L14.95 14.3L14.95 14.29M5.81 12.47C5.81 12.47 4.74 16.84 3.28 16.5C1.82 16.12 2.9 11.75 2.9 11.75S3.26 10.29 4.71 10.65 5.81 12.47 5.81 12.47M12 17.5C10.5 17.5 10.5 13 10.5 13S10.5 12.77 10.6 12.5L13.32 15.21C13.13 16.35 12.76 17.5 12 17.5Z" />
    </g>
    <g id="mdi-subdirectory-arrow-left" transform="translate(72 324) scale(1.5)" fill="#555">
      <path d="M11,9L12.42,10.42L8.83,14H18V4H20V16H8.83L12.42,19.58L11,21L5,15L11,9Z" />
    </g>
    <g id="mdi-subdirectory-arrow-left" transform="translate(108 324) scale(1.5)" fill="#fff">
      <path d="M11,9L12.42,10.42L8.83,14H18V4H20V16H8.83L12.42,19.58L11,21L5,15L11,9Z" />
    </g>
    <g id="mdi-subdirectory-arrow-right" transform="translate(144 324) scale(1.5)" fill="#555">
      <path d="M19,15L13,21L11.58,19.58L15.17,16H4V4H6V14H15.17L11.58,10.42L13,9L19,15Z" />
    </g>
    <g id="mdi-subdirectory-arrow-right" transform="translate(180 324) scale(1.5)" fill="#fff">
      <path d="M19,15L13,21L11.58,19.58L15.17,16H4V4H6V14H15.17L11.58,10.42L13,9L19,15Z" />
    </g>
    <g id="mdi-submarine" transform="translate(216 324) scale(1.5)" fill="#555">
      <path d="M8 3.67C6.78 4.53 5.39 4.93 4 5H2V7H4C5.37 7 6.74 6.65 8 6C10.5 7.3 13.5 7.3 16 6C17.26 6.65 18.62 6.94 20 7H22V5H20C18.61 5 17.22 4.53 16 3.67C13.56 5.38 10.44 5.38 8 3.67M16 8.67L15 10V12H14L12 14H9L6 16L5 14H4V16L2 17L4 18V20H5.14L6 18L9 20H20A2 2 0 0 0 22 18V16A2 2 0 0 0 20 14H18L17 13V12H16V10H17V8.67Z" />
    </g>
    <g id="mdi-submarine" transform="translate(252 324) scale(1.5)" fill="#fff">
      <path d="M8 3.67C6.78 4.53 5.39 4.93 4 5H2V7H4C5.37 7 6.74 6.65 8 6C10.5 7.3 13.5 7.3 16 6C17.26 6.65 18.62 6.94 20 7H22V5H20C18.61 5 17.22 4.53 16 3.67C13.56 5.38 10.44 5.38 8 3.67M16 8.67L15 10V12H14L12 14H9L6 16L5 14H4V16L2 17L4 18V20H5.14L6 18L9 20H20A2 2 0 0 0 22 18V16A2 2 0 0 0 20 14H18L17 13V12H16V10H17V8.67Z" />
    </g>
    <g id="mdi-subtitles" transform="translate(288 324) scale(1.5)" fill="#555">
      <path d="M20,4H4A2,2 0 0,0 2,6V18A2,2 0 0,0 4,20H20A2,2 0 0,0 22,18V6A2,2 0 0,0 20,4M4,12H8V14H4V12M14,18H4V16H14V18M20,18H16V16H20V18M20,14H10V12H20V14Z" />
    </g>
    <g id="mdi-subtitles" transform="translate(324 324) scale(1.5)" fill="#fff">
      <path d="M20,4H4A2,2 0 0,0 2,6V18A2,2 0 0,0 4,20H20A2,2 0 0,0 22,18V6A2,2 0 0,0 20,4M4,12H8V14H4V12M14,18H4V16H14V18M20,18H16V16H20V18M20,14H10V12H20V14Z" />
    </g>
    <g id="mdi-subtitles-outline" transform="translate(360 324) scale(1.5)" fill="#555">
      <path d="M20,4A2,2 0 0,1 22,6V18A2,2 0 0,1 20,20H4A2,2 0 0,1 2,18V6A2,2 0 0,1 4,4H20M20,18V6H4V18H20M6,10H8V12H6V10M6,14H14V16H6V14M16,14H18V16H16V14M10,10H18V12H10V10Z" />
    </g>
    <g id="mdi-subtitles-outline" transform="translate(396 324) scale(1.5)" fill="#fff">
      <path d="M20,4A2,2 0 0,1 22,6V18A2,2 0 0,1 20,20H4A2,2 0 0,1 2,18V6A2,2 0 0,1 4,4H20M20,18V6H4V18H20M6,10H8V12H6V10M6,14H14V16H6V14M16,14H18V16H16V14M10,10H18V12H10V10Z" />
    </g>
    <g id="mdi-subway" transform="translate(432 324) scale(1.5)" fill="#555">
      <path d="M8.5,15A1,1 0 0,1 9.5,16A1,1 0 0,1 8.5,17A1,1 0 0,1 7.5,16A1,1 0 0,1 8.5,15M7,9H17V14H7V9M15.5,15A1,1 0 0,1 16.5,16A1,1 0 0,1 15.5,17A1,1 0 0,1 14.5,16A1,1 0 0,1 15.5,15M18,15.88V9C18,6.38 15.32,6 12,6C9,6 6,6.37 6,9V15.88A2.62,2.62 0 0,0 8.62,18.5L7.5,19.62V20H9.17L10.67,18.5H13.5L15,20H16.5V19.62L15.37,18.5C16.82,18.5 18,17.33 18,15.88M17.8,2.8C20.47,3.84 22,6.05 22,8.86V22H2V8.86C2,6.05 3.53,3.84 6.2,2.8C8,2.09 10.14,2 12,2C13.86,2 16,2.09 17.8,2.8Z" />
    </g>
    <g id="mdi-subway" transform="translate(468 324) scale(1.5)" fill="#fff">
      <path d="M8.5,15A1,1 0 0,1 9.5,16A1,1 0 0,1 8.5,17A1,1 0 0,1 7.5,16A1,1 0 0,1 8.5,15M7,9H17V14H7V9M15.5,15A1,1 0 0,1 16.5,16A1,1 0 0,1 15.5,17A1,1 0 0,1 14.5,16A1,1 0 0,1 15.5,15M18,15.88V9C18,6.38 15.32,6 12,6C9,6 6,6.37 6,9V15.88A2.62,2.62 0 0,0 8.62,18.5L7.5,19.62V20H9.17L10.67,18.5H13.5L15,20H16.5V19.62L15.37,18.5C16.82,18.5 18,17.33 18,15.88M17.8,2.8C20.47,3.84 22,6.05 22,8.86V22H2V8.86C2,6.05 3.53,3.84 6.2,2.8C8,2.09 10.14,2 12,2C13.86,2 16,2.09 17.8,2.8Z" />
    </g>
    <g id="mdi-subway-alert-variant" transform="translate(504 324) scale(1.5)" fill="#555">
      <path d="M16 11V6H11V11H16M14.5 17C15.3 17 16 16.3 16 15.5C16 14.7 15.3 14 14.5 14S13 14.7 13 15.5C13 16.3 13.7 17 14.5 17M9 11V6H4V11H9M5.5 17C6.3 17 7 16.3 7 15.5C7 14.7 6.3 14 5.5 14S4 14.7 4 15.5C4 16.3 4.7 17 5.5 17M10 2C14.4 2 18 2.5 18 6V15.5C18 17.4 16.4 19 14.5 19L16 20.5V21H4V20.5L5.5 19C3.6 19 2 17.4 2 15.5V6C2 2.5 5.6 2 10 2M20 13V7H22V13H20M20 17V15H22V17H20Z" />
    </g>
    <g id="mdi-subway-alert-variant" transform="translate(540 324) scale(1.5)" fill="#fff">
      <path d="M16 11V6H11V11H16M14.5 17C15.3 17 16 16.3 16 15.5C16 14.7 15.3 14 14.5 14S13 14.7 13 15.5C13 16.3 13.7 17 14.5 17M9 11V6H4V11H9M5.5 17C6.3 17 7 16.3 7 15.5C7 14.7 6.3 14 5.5 14S4 14.7 4 15.5C4 16.3 4.7 17 5.5 17M10 2C14.4 2 18 2.5 18 6V15.5C18 17.4 16.4 19 14.5 19L16 20.5V21H4V20.5L5.5 19C3.6 19 2 17.4 2 15.5V6C2 2.5 5.6 2 10 2M20 13V7H22V13H20M20 17V15H22V17H20Z" />
    </g>
    <g id="mdi-subway-variant" transform="translate(576 324) scale(1.5)" fill="#555">
      <path d="M18,11H13V6H18M16.5,17A1.5,1.5 0 0,1 15,15.5A1.5,1.5 0 0,1 16.5,14A1.5,1.5 0 0,1 18,15.5A1.5,1.5 0 0,1 16.5,17M11,11H6V6H11M7.5,17A1.5,1.5 0 0,1 6,15.5A1.5,1.5 0 0,1 7.5,14A1.5,1.5 0 0,1 9,15.5A1.5,1.5 0 0,1 7.5,17M12,2C7.58,2 4,2.5 4,6V15.5A3.5,3.5 0 0,0 7.5,19L6,20.5V21H18V20.5L16.5,19A3.5,3.5 0 0,0 20,15.5V6C20,2.5 16.42,2 12,2Z" />
    </g>
    <g id="mdi-subway-variant" transform="translate(612 324) scale(1.5)" fill="#fff">
      <path d="M18,11H13V6H18M16.5,17A1.5,1.5 0 0,1 15,15.5A1.5,1.5 0 0,1 16.5,14A1.5,1.5 0 0,1 18,15.5A1.5,1.5 0 0,1 16.5,17M11,11H6V6H11M7.5,17A1.5,1.5 0 0,1 6,15.5A1.5,1.5 0 0,1 7.5,14A1.5,1.5 0 0,1 9,15.5A1.5,1.5 0 0,1 7.5,17M12,2C7.58,2 4,2.5 4,6V15.5A3.5,3.5 0 0,0 7.5,19L6,20.5V21H18V20.5L16.5,19A3.5,3.5 0 0,0 20,15.5V6C20,2.5 16.42,2 12,2Z" />
    </g>
    <g id="mdi-summit" transform="translate(648 324) scale(1.5)" fill="#555">
      <path d="M15,3H17L22,5L17,7V10.17L22,21H2L8,13L11.5,17.7L15,10.17V3Z" />
    </g>
    <g id="mdi-summit" transform="translate(684 324) scale(1.5)" fill="#fff">
      <path d="M15,3H17L22,5L17,7V10.17L22,21H2L8,13L11.5,17.7L15,10.17V3Z" />
    </g>
  </svg>