<svg xmlns="http://www.w3.org/2000/svg" width="720" height="900"><path d="M22.1 21.5 2.4 1.7 1.1 3l6.8 6.8-4.4 7.6c-.3.4-.5 1-.5 1.6 0 1.7 1.3 3 3 3h12c.6 0 1.2-.2 1.6-.5l1.2 1.2 1.3-1.2M18 20H6c-.6 0-1-.4-1-1 0-.2.1-.4.2-.6l4.2-7.2L18 20c.1 0 0 0 0 0M11 7.8l-3-3V4c0-1.1.9-2 2-2h4c1.1 0 2 .9 2 2v1c0 .6-.4 1-1 1v1.8l5.4 9.4-5.4-5.4-2-3.4V4h-2v3.8Z" transform="scale(1.5)" id="mdi-flask-empty-off-outline" fill="#555"/><path d="M22.1 21.5 2.4 1.7 1.1 3l6.8 6.8-4.4 7.6c-.3.4-.5 1-.5 1.6 0 1.7 1.3 3 3 3h12c.6 0 1.2-.2 1.6-.5l1.2 1.2 1.3-1.2M18 20H6c-.6 0-1-.4-1-1 0-.2.1-.4.2-.6l4.2-7.2L18 20c.1 0 0 0 0 0M11 7.8l-3-3V4c0-1.1.9-2 2-2h4c1.1 0 2 .9 2 2v1c0 .6-.4 1-1 1v1.8l5.4 9.4-5.4-5.4-2-3.4V4h-2v3.8Z" transform="translate(36) scale(1.5)" id="mdi-flask-empty-off-outline" fill="#fff"/><path d="M5 19a1 1 0 0 0 1 1h12a1 1 0 0 0 1-1c0-.21-.07-.41-.18-.57L13 8.35V4h-2v4.35L5.18 18.43c-.11.16-.18.36-.18.57m1 3a3 3 0 0 1-3-3c0-.6.18-1.16.5-1.63L9 7.81V6a1 1 0 0 1-1-1V4a2 2 0 0 1 2-2h4a2 2 0 0 1 2 2v1a1 1 0 0 1-1 1v1.81l5.5 9.56c.32.47.5 1.03.5 1.63a3 3 0 0 1-3 3H6Z" transform="translate(72) scale(1.5)" id="mdi-flask-empty-outline" fill="#555"/><path d="M5 19a1 1 0 0 0 1 1h12a1 1 0 0 0 1-1c0-.21-.07-.41-.18-.57L13 8.35V4h-2v4.35L5.18 18.43c-.11.16-.18.36-.18.57m1 3a3 3 0 0 1-3-3c0-.6.18-1.16.5-1.63L9 7.81V6a1 1 0 0 1-1-1V4a2 2 0 0 1 2-2h4a2 2 0 0 1 2 2v1a1 1 0 0 1-1 1v1.81l5.5 9.56c.32.47.5 1.03.5 1.63a3 3 0 0 1-3 3H6Z" transform="translate(108) scale(1.5)" id="mdi-flask-empty-outline" fill="#fff"/><path d="M18 14h2v3h3v2h-3v3h-2v-3h-3v-2h3v-3M6 22c-1.66 0-3-1.34-3-3 0-.6.18-1.16.5-1.64L9 7.81V6c-.55 0-1-.45-1-1V4c0-1.1.9-2 2-2h4a2 2 0 0 1 2 2v1c0 .55-.45 1-1 1v1.81l2.5 4.37C14.92 12.84 13 15.2 13 18c0 1.54.58 2.94 1.53 4H6Z" transform="translate(144) scale(1.5)" id="mdi-flask-empty-plus" fill="#555"/><path d="M18 14h2v3h3v2h-3v3h-2v-3h-3v-2h3v-3M6 22c-1.66 0-3-1.34-3-3 0-.6.18-1.16.5-1.64L9 7.81V6c-.55 0-1-.45-1-1V4c0-1.1.9-2 2-2h4a2 2 0 0 1 2 2v1c0 .55-.45 1-1 1v1.81l2.5 4.37C14.92 12.84 13 15.2 13 18c0 1.54.58 2.94 1.53 4H6Z" transform="translate(180) scale(1.5)" id="mdi-flask-empty-plus" fill="#fff"/><path d="M18 14h2v3h3v2h-3v3h-2v-3h-3v-2h3v-3M5 19c0 .55.45 1 1 1h7.34c.27.75.66 1.42 1.19 2H6c-1.66 0-3-1.34-3-3 0-.6.18-1.16.5-1.64L9 7.81V6c-.55 0-1-.45-1-1V4c0-1.1.9-2 2-2h4a2 2 0 0 1 2 2v1c0 .55-.45 1-1 1v1.81l2.5 4.37c-.64.17-1.26.45-1.81.82L13 8.35V4h-2v4.35L5.18 18.43c-.11.16-.18.36-.18.57Z" transform="translate(216) scale(1.5)" id="mdi-flask-empty-plus-outline" fill="#555"/><path d="M18 14h2v3h3v2h-3v3h-2v-3h-3v-2h3v-3M5 19c0 .55.45 1 1 1h7.34c.27.75.66 1.42 1.19 2H6c-1.66 0-3-1.34-3-3 0-.6.18-1.16.5-1.64L9 7.81V6c-.55 0-1-.45-1-1V4c0-1.1.9-2 2-2h4a2 2 0 0 1 2 2v1c0 .55-.45 1-1 1v1.81l2.5 4.37c-.64.17-1.26.45-1.81.82L13 8.35V4h-2v4.35L5.18 18.43c-.11.16-.18.36-.18.57Z" transform="translate(252) scale(1.5)" id="mdi-flask-empty-plus-outline" fill="#fff"/><path d="m15.46 15.88 1.42-1.42L19 16.59l2.12-2.12 1.41 1.41L20.41 18l2.13 2.12-1.42 1.42L19 19.41l-2.12 2.12-1.41-1.41L17.59 18l-2.13-2.12M6 22c-1.66 0-3-1.34-3-3 0-.6.18-1.16.5-1.64L9 7.81V6c-.55 0-1-.45-1-1V4c0-1.1.9-2 2-2h4a2 2 0 0 1 2 2v1c0 .55-.45 1-1 1v1.81l2.5 4.37C14.92 12.84 13 15.2 13 18c0 1.54.58 2.94 1.53 4H6Z" transform="translate(288) scale(1.5)" id="mdi-flask-empty-remove" fill="#555"/><path d="m15.46 15.88 1.42-1.42L19 16.59l2.12-2.12 1.41 1.41L20.41 18l2.13 2.12-1.42 1.42L19 19.41l-2.12 2.12-1.41-1.41L17.59 18l-2.13-2.12M6 22c-1.66 0-3-1.34-3-3 0-.6.18-1.16.5-1.64L9 7.81V6c-.55 0-1-.45-1-1V4c0-1.1.9-2 2-2h4a2 2 0 0 1 2 2v1c0 .55-.45 1-1 1v1.81l2.5 4.37C14.92 12.84 13 15.2 13 18c0 1.54.58 2.94 1.53 4H6Z" transform="translate(324) scale(1.5)" id="mdi-flask-empty-remove" fill="#fff"/><path d="m15.46 15.88 1.42-1.42L19 16.59l2.12-2.12 1.41 1.41L20.41 18l2.13 2.12-1.42 1.42L19 19.41l-2.12 2.12-1.41-1.41L17.59 18l-2.13-2.12M5 19c0 .55.45 1 1 1h7.34c.27.75.66 1.42 1.19 2H6c-1.66 0-3-1.34-3-3 0-.6.18-1.16.5-1.64L9 7.81V6c-.55 0-1-.45-1-1V4c0-1.1.9-2 2-2h4a2 2 0 0 1 2 2v1c0 .55-.45 1-1 1v1.81l2.5 4.37c-.64.17-1.26.45-1.81.82L13 8.35V4h-2v4.35L5.18 18.43c-.11.16-.18.36-.18.57Z" transform="translate(360) scale(1.5)" id="mdi-flask-empty-remove-outline" fill="#555"/><path d="m15.46 15.88 1.42-1.42L19 16.59l2.12-2.12 1.41 1.41L20.41 18l2.13 2.12-1.42 1.42L19 19.41l-2.12 2.12-1.41-1.41L17.59 18l-2.13-2.12M5 19c0 .55.45 1 1 1h7.34c.27.75.66 1.42 1.19 2H6c-1.66 0-3-1.34-3-3 0-.6.18-1.16.5-1.64L9 7.81V6c-.55 0-1-.45-1-1V4c0-1.1.9-2 2-2h4a2 2 0 0 1 2 2v1c0 .55-.45 1-1 1v1.81l2.5 4.37c-.64.17-1.26.45-1.81.82L13 8.35V4h-2v4.35L5.18 18.43c-.11.16-.18.36-.18.57Z" transform="translate(396) scale(1.5)" id="mdi-flask-empty-remove-outline" fill="#fff"/><path d="M23 17v2h-8v-2h8M6 22c-1.66 0-3-1.34-3-3 0-.6.18-1.16.5-1.64L9 7.81V6c-.55 0-1-.45-1-1V4c0-1.1.9-2 2-2h4a2 2 0 0 1 2 2v1c0 .55-.45 1-1 1v1.81l2.5 4.37c-2 .52-3.64 2.08-4.24 4.08l-4.33-4.33-3.75 6.5c-.11.16-.18.36-.18.57 0 .55.45 1 1 1h7.34c.27.75.66 1.42 1.19 2H6m7-12c-.55 0-1 .45-1 1s.45 1 1 1 1-.45 1-1-.45-1-1-1Z" transform="translate(432) scale(1.5)" id="mdi-flask-minus" fill="#555"/><path d="M23 17v2h-8v-2h8M6 22c-1.66 0-3-1.34-3-3 0-.6.18-1.16.5-1.64L9 7.81V6c-.55 0-1-.45-1-1V4c0-1.1.9-2 2-2h4a2 2 0 0 1 2 2v1c0 .55-.45 1-1 1v1.81l2.5 4.37c-2 .52-3.64 2.08-4.24 4.08l-4.33-4.33-3.75 6.5c-.11.16-.18.36-.18.57 0 .55.45 1 1 1h7.34c.27.75.66 1.42 1.19 2H6m7-12c-.55 0-1 .45-1 1s.45 1 1 1 1-.45 1-1-.45-1-1-1Z" transform="translate(468) scale(1.5)" id="mdi-flask-minus" fill="#fff"/><path d="M23 17v2h-8v-2h8M5 19c0 .55.45 1 1 1h7.34c.27.75.66 1.42 1.19 2H6c-1.66 0-3-1.34-3-3 0-.6.18-1.16.5-1.64L9 7.81V6c-.55 0-1-.45-1-1V4c0-1.1.9-2 2-2h4a2 2 0 0 1 2 2v1c0 .55-.45 1-1 1v1.81l2.5 4.37c-.64.17-1.26.45-1.81.82L13 8.35V4h-2v4.35L5.18 18.43c-.11.16-.18.36-.18.57m8-3 .58-.58c-.37.78-.58 1.66-.58 2.58H7.73l2.66-4.61L13 16m-.5-4c.28 0 .5.22.5.5s-.22.5-.5.5-.5-.22-.5-.5.22-.5.5-.5Z" transform="translate(504) scale(1.5)" id="mdi-flask-minus-outline" fill="#555"/><path d="M23 17v2h-8v-2h8M5 19c0 .55.45 1 1 1h7.34c.27.75.66 1.42 1.19 2H6c-1.66 0-3-1.34-3-3 0-.6.18-1.16.5-1.64L9 7.81V6c-.55 0-1-.45-1-1V4c0-1.1.9-2 2-2h4a2 2 0 0 1 2 2v1c0 .55-.45 1-1 1v1.81l2.5 4.37c-.64.17-1.26.45-1.81.82L13 8.35V4h-2v4.35L5.18 18.43c-.11.16-.18.36-.18.57m8-3 .58-.58c-.37.78-.58 1.66-.58 2.58H7.73l2.66-4.61L13 16m-.5-4c.28 0 .5.22.5.5s-.22.5-.5.5-.5-.22-.5-.5.22-.5.5-.5Z" transform="translate(540) scale(1.5)" id="mdi-flask-minus-outline" fill="#fff"/><path d="M22.1 21.5 2.4 1.7 1.1 3l6.8 6.8-4.4 7.6c-.3.4-.5 1-.5 1.6 0 1.7 1.3 3 3 3h12c.6 0 1.2-.2 1.6-.5l1.2 1.2 1.3-1.2M18 20H6c-.6 0-1-.4-1-1 0-.2.1-.4.2-.6L9 11.9l5 5.1.6-.6L18 20c.1 0 0 0 0 0M8 4.8V4c0-1.1.9-2 2-2h4c1.1 0 2 .9 2 2v1c0 .6-.4 1-1 1v1.8l5.4 9.4L8 4.8Z" transform="translate(576) scale(1.5)" id="mdi-flask-off" fill="#555"/><path d="M22.1 21.5 2.4 1.7 1.1 3l6.8 6.8-4.4 7.6c-.3.4-.5 1-.5 1.6 0 1.7 1.3 3 3 3h12c.6 0 1.2-.2 1.6-.5l1.2 1.2 1.3-1.2M18 20H6c-.6 0-1-.4-1-1 0-.2.1-.4.2-.6L9 11.9l5 5.1.6-.6L18 20c.1 0 0 0 0 0M8 4.8V4c0-1.1.9-2 2-2h4c1.1 0 2 .9 2 2v1c0 .6-.4 1-1 1v1.8l5.4 9.4L8 4.8Z" transform="translate(612) scale(1.5)" id="mdi-flask-off" fill="#fff"/><path d="M22.1 21.5 2.4 1.7 1.1 3l6.8 6.8-4.4 7.6c-.3.4-.5 1-.5 1.6 0 1.7 1.3 3 3 3h12c.6 0 1.2-.2 1.6-.5l1.2 1.2 1.3-1.2M18 20H6c-.6 0-1-.4-1-1 0-.2.1-.4.2-.6l4.2-7.2 4.2 4.2-.6.6-2.6-2.6L7.7 18h8.4l1.9 2c.1 0 0 0 0 0M11 7.8l-3-3V4c0-1.1.9-2 2-2h4c1.1 0 2 .9 2 2v1c0 .6-.4 1-1 1v1.8l5.4 9.4-5.4-5.4-2-3.4V4h-2v3.8Z" transform="translate(648) scale(1.5)" id="mdi-flask-off-outline" fill="#555"/><path d="M22.1 21.5 2.4 1.7 1.1 3l6.8 6.8-4.4 7.6c-.3.4-.5 1-.5 1.6 0 1.7 1.3 3 3 3h12c.6 0 1.2-.2 1.6-.5l1.2 1.2 1.3-1.2M18 20H6c-.6 0-1-.4-1-1 0-.2.1-.4.2-.6l4.2-7.2 4.2 4.2-.6.6-2.6-2.6L7.7 18h8.4l1.9 2c.1 0 0 0 0 0M11 7.8l-3-3V4c0-1.1.9-2 2-2h4c1.1 0 2 .9 2 2v1c0 .6-.4 1-1 1v1.8l5.4 9.4-5.4-5.4-2-3.4V4h-2v3.8Z" transform="translate(684) scale(1.5)" id="mdi-flask-off-outline" fill="#fff"/><path d="M5 19a1 1 0 0 0 1 1h12a1 1 0 0 0 1-1c0-.21-.07-.41-.18-.57L13 8.35V4h-2v4.35L5.18 18.43c-.11.16-.18.36-.18.57m1 3a3 3 0 0 1-3-3c0-.6.18-1.16.5-1.63L9 7.81V6a1 1 0 0 1-1-1V4a2 2 0 0 1 2-2h4a2 2 0 0 1 2 2v1a1 1 0 0 1-1 1v1.81l5.5 9.56c.32.47.5 1.03.5 1.63a3 3 0 0 1-3 3H6m7-6 1.34-1.34L16.27 18H7.73l2.66-4.61L13 16m-.5-4a.5.5 0 0 1 .5.5.5.5 0 0 1-.5.5.5.5 0 0 1-.5-.5.5.5 0 0 1 .5-.5Z" transform="matrix(1.5 0 0 1.5 0 36)" id="mdi-flask-outline" fill="#555"/><path d="M5 19a1 1 0 0 0 1 1h12a1 1 0 0 0 1-1c0-.21-.07-.41-.18-.57L13 8.35V4h-2v4.35L5.18 18.43c-.11.16-.18.36-.18.57m1 3a3 3 0 0 1-3-3c0-.6.18-1.16.5-1.63L9 7.81V6a1 1 0 0 1-1-1V4a2 2 0 0 1 2-2h4a2 2 0 0 1 2 2v1a1 1 0 0 1-1 1v1.81l5.5 9.56c.32.47.5 1.03.5 1.63a3 3 0 0 1-3 3H6m7-6 1.34-1.34L16.27 18H7.73l2.66-4.61L13 16m-.5-4a.5.5 0 0 1 .5.5.5.5 0 0 1-.5.5.5.5 0 0 1-.5-.5.5.5 0 0 1 .5-.5Z" transform="matrix(1.5 0 0 1.5 36 36)" id="mdi-flask-outline" fill="#fff"/><path d="M18 14h2v3h3v2h-3v3h-2v-3h-3v-2h3v-3M6 22c-1.66 0-3-1.34-3-3 0-.6.18-1.16.5-1.64L9 7.81V6c-.55 0-1-.45-1-1V4c0-1.1.9-2 2-2h4a2 2 0 0 1 2 2v1c0 .55-.45 1-1 1v1.81l2.5 4.37c-2 .52-3.64 2.08-4.24 4.08l-4.33-4.33-3.75 6.5c-.11.16-.18.36-.18.57 0 .55.45 1 1 1h7.34c.27.75.66 1.42 1.19 2H6m7-12c-.55 0-1 .45-1 1s.45 1 1 1 1-.45 1-1-.45-1-1-1Z" transform="matrix(1.5 0 0 1.5 72 36)" id="mdi-flask-plus" fill="#555"/><path d="M18 14h2v3h3v2h-3v3h-2v-3h-3v-2h3v-3M6 22c-1.66 0-3-1.34-3-3 0-.6.18-1.16.5-1.64L9 7.81V6c-.55 0-1-.45-1-1V4c0-1.1.9-2 2-2h4a2 2 0 0 1 2 2v1c0 .55-.45 1-1 1v1.81l2.5 4.37c-2 .52-3.64 2.08-4.24 4.08l-4.33-4.33-3.75 6.5c-.11.16-.18.36-.18.57 0 .55.45 1 1 1h7.34c.27.75.66 1.42 1.19 2H6m7-12c-.55 0-1 .45-1 1s.45 1 1 1 1-.45 1-1-.45-1-1-1Z" transform="matrix(1.5 0 0 1.5 108 36)" id="mdi-flask-plus" fill="#fff"/><path d="M18 14h2v3h3v2h-3v3h-2v-3h-3v-2h3v-3M5 19c0 .55.45 1 1 1h7.34c.27.75.66 1.42 1.19 2H6c-1.66 0-3-1.34-3-3 0-.6.18-1.16.5-1.64L9 7.81V6c-.55 0-1-.45-1-1V4c0-1.1.9-2 2-2h4a2 2 0 0 1 2 2v1c0 .55-.45 1-1 1v1.81l2.5 4.37c-.64.17-1.26.45-1.81.82L13 8.35V4h-2v4.35L5.18 18.43c-.11.16-.18.36-.18.57m8-3 .58-.58c-.37.78-.58 1.66-.58 2.58H7.73l2.66-4.61L13 16m-.5-4c.28 0 .5.22.5.5s-.22.5-.5.5-.5-.22-.5-.5.22-.5.5-.5Z" transform="matrix(1.5 0 0 1.5 144 36)" id="mdi-flask-plus-outline" fill="#555"/><path d="M18 14h2v3h3v2h-3v3h-2v-3h-3v-2h3v-3M5 19c0 .55.45 1 1 1h7.34c.27.75.66 1.42 1.19 2H6c-1.66 0-3-1.34-3-3 0-.6.18-1.16.5-1.64L9 7.81V6c-.55 0-1-.45-1-1V4c0-1.1.9-2 2-2h4a2 2 0 0 1 2 2v1c0 .55-.45 1-1 1v1.81l2.5 4.37c-.64.17-1.26.45-1.81.82L13 8.35V4h-2v4.35L5.18 18.43c-.11.16-.18.36-.18.57m8-3 .58-.58c-.37.78-.58 1.66-.58 2.58H7.73l2.66-4.61L13 16m-.5-4c.28 0 .5.22.5.5s-.22.5-.5.5-.5-.22-.5-.5.22-.5.5-.5Z" transform="matrix(1.5 0 0 1.5 180 36)" id="mdi-flask-plus-outline" fill="#fff"/><path d="m15.46 15.88 1.42-1.42L19 16.59l2.12-2.12 1.41 1.41L20.41 18l2.13 2.12-1.42 1.42L19 19.41l-2.12 2.12-1.41-1.41L17.59 18l-2.13-2.12M6 22c-1.66 0-3-1.34-3-3 0-.6.18-1.16.5-1.64L9 7.81V6c-.55 0-1-.45-1-1V4c0-1.1.9-2 2-2h4a2 2 0 0 1 2 2v1c0 .55-.45 1-1 1v1.81l2.5 4.37c-2 .52-3.64 2.08-4.24 4.08l-4.33-4.33-3.75 6.5c-.11.16-.18.36-.18.57 0 .55.45 1 1 1h7.34c.27.75.66 1.42 1.19 2H6m7-12c-.55 0-1 .45-1 1s.45 1 1 1 1-.45 1-1-.45-1-1-1Z" transform="matrix(1.5 0 0 1.5 216 36)" id="mdi-flask-remove" fill="#555"/><path d="m15.46 15.88 1.42-1.42L19 16.59l2.12-2.12 1.41 1.41L20.41 18l2.13 2.12-1.42 1.42L19 19.41l-2.12 2.12-1.41-1.41L17.59 18l-2.13-2.12M6 22c-1.66 0-3-1.34-3-3 0-.6.18-1.16.5-1.64L9 7.81V6c-.55 0-1-.45-1-1V4c0-1.1.9-2 2-2h4a2 2 0 0 1 2 2v1c0 .55-.45 1-1 1v1.81l2.5 4.37c-2 .52-3.64 2.08-4.24 4.08l-4.33-4.33-3.75 6.5c-.11.16-.18.36-.18.57 0 .55.45 1 1 1h7.34c.27.75.66 1.42 1.19 2H6m7-12c-.55 0-1 .45-1 1s.45 1 1 1 1-.45 1-1-.45-1-1-1Z" transform="matrix(1.5 0 0 1.5 252 36)" id="mdi-flask-remove" fill="#fff"/><path d="m15.46 15.88 1.42-1.42L19 16.59l2.12-2.12 1.41 1.41L20.41 18l2.13 2.12-1.42 1.42L19 19.41l-2.12 2.12-1.41-1.41L17.59 18l-2.13-2.12M5 19c0 .55.45 1 1 1h7.34c.27.75.66 1.42 1.19 2H6c-1.66 0-3-1.34-3-3 0-.6.18-1.16.5-1.64L9 7.81V6c-.55 0-1-.45-1-1V4c0-1.1.9-2 2-2h4a2 2 0 0 1 2 2v1c0 .55-.45 1-1 1v1.81l2.5 4.37c-.64.17-1.26.45-1.81.82L13 8.35V4h-2v4.35L5.18 18.43c-.11.16-.18.36-.18.57m8-3 .58-.58c-.37.78-.58 1.66-.58 2.58H7.73l2.66-4.61L13 16m-.5-4c.28 0 .5.22.5.5s-.22.5-.5.5-.5-.22-.5-.5.22-.5.5-.5Z" transform="matrix(1.5 0 0 1.5 288 36)" id="mdi-flask-remove-outline" fill="#555"/><path d="m15.46 15.88 1.42-1.42L19 16.59l2.12-2.12 1.41 1.41L20.41 18l2.13 2.12-1.42 1.42L19 19.41l-2.12 2.12-1.41-1.41L17.59 18l-2.13-2.12M5 19c0 .55.45 1 1 1h7.34c.27.75.66 1.42 1.19 2H6c-1.66 0-3-1.34-3-3 0-.6.18-1.16.5-1.64L9 7.81V6c-.55 0-1-.45-1-1V4c0-1.1.9-2 2-2h4a2 2 0 0 1 2 2v1c0 .55-.45 1-1 1v1.81l2.5 4.37c-.64.17-1.26.45-1.81.82L13 8.35V4h-2v4.35L5.18 18.43c-.11.16-.18.36-.18.57m8-3 .58-.58c-.37.78-.58 1.66-.58 2.58H7.73l2.66-4.61L13 16m-.5-4c.28 0 .5.22.5.5s-.22.5-.5.5-.5-.22-.5-.5.22-.5.5-.5Z" transform="matrix(1.5 0 0 1.5 324 36)" id="mdi-flask-remove-outline" fill="#fff"/><path d="M19 15c0 3.87-3.13 7-7 7s-7-3.13-7-7c0-2.79 1.64-5.2 4-6.33V5c0-.55.45-1 1-1h.5l-1-2h5l-1 2h.5c.55 0 1 .45 1 1v3.67c2.36 1.13 4 3.54 4 6.33m-8-9v4.1A5 5 0 0 0 7 15l.08.91L9 13.93 13.07 18l3.86-3.86A5.013 5.013 0 0 0 13 10.1V6h-2m2.07 6c.55 0 1 .45 1 1s-.45 1-1 1c-.57 0-1-.45-1-1s.43-1 1-1Z" transform="matrix(1.5 0 0 1.5 360 36)" id="mdi-flask-round-bottom" fill="#555"/><path d="M19 15c0 3.87-3.13 7-7 7s-7-3.13-7-7c0-2.79 1.64-5.2 4-6.33V5c0-.55.45-1 1-1h.5l-1-2h5l-1 2h.5c.55 0 1 .45 1 1v3.67c2.36 1.13 4 3.54 4 6.33m-8-9v4.1A5 5 0 0 0 7 15l.08.91L9 13.93 13.07 18l3.86-3.86A5.013 5.013 0 0 0 13 10.1V6h-2m2.07 6c.55 0 1 .45 1 1s-.45 1-1 1c-.57 0-1-.45-1-1s.43-1 1-1Z" transform="matrix(1.5 0 0 1.5 396 36)" id="mdi-flask-round-bottom" fill="#fff"/><path d="M19 15c0 3.87-3.13 7-7 7s-7-3.13-7-7c0-2.79 1.64-5.2 4-6.33V5c0-.55.45-1 1-1h.5l-1-2h5l-1 2h.5c.55 0 1 .45 1 1v3.67c2.36 1.13 4 3.54 4 6.33Z" transform="matrix(1.5 0 0 1.5 432 36)" id="mdi-flask-round-bottom-empty" fill="#555"/><path d="M19 15c0 3.87-3.13 7-7 7s-7-3.13-7-7c0-2.79 1.64-5.2 4-6.33V5c0-.55.45-1 1-1h.5l-1-2h5l-1 2h.5c.55 0 1 .45 1 1v3.67c2.36 1.13 4 3.54 4 6.33Z" transform="matrix(1.5 0 0 1.5 468 36)" id="mdi-flask-round-bottom-empty" fill="#fff"/><path d="M19 15c0 3.87-3.13 7-7 7s-7-3.13-7-7c0-2.79 1.64-5.2 4-6.33V5c0-.55.45-1 1-1h.5l-1-2h5l-1 2h.5c.55 0 1 .45 1 1v3.67c2.36 1.13 4 3.54 4 6.33m-8-9v4.1a5 5 0 1 0 2 0V6h-2Z" transform="matrix(1.5 0 0 1.5 504 36)" id="mdi-flask-round-bottom-empty-outline" fill="#555"/><path d="M19 15c0 3.87-3.13 7-7 7s-7-3.13-7-7c0-2.79 1.64-5.2 4-6.33V5c0-.55.45-1 1-1h.5l-1-2h5l-1 2h.5c.55 0 1 .45 1 1v3.67c2.36 1.13 4 3.54 4 6.33m-8-9v4.1a5 5 0 1 0 2 0V6h-2Z" transform="matrix(1.5 0 0 1.5 540 36)" id="mdi-flask-round-bottom-empty-outline" fill="#fff"/><path d="M15 15c0 1.66-1.34 3-3 3s-3-1.34-3-3v-1h2v1c0 .55.45 1 1 1s1-.45 1-1v-1h2v1m4 0c0 3.87-3.13 7-7 7s-7-3.13-7-7c0-2.79 1.64-5.2 4-6.33V5c0-.55.45-1 1-1h.5l-1-2h5l-1 2h.5c.55 0 1 .45 1 1v3.67c2.36 1.13 4 3.54 4 6.33m-8-9v4.1a5 5 0 1 0 2 0V6h-2Z" transform="matrix(1.5 0 0 1.5 576 36)" id="mdi-flask-round-bottom-outline" fill="#555"/><path d="M15 15c0 1.66-1.34 3-3 3s-3-1.34-3-3v-1h2v1c0 .55.45 1 1 1s1-.45 1-1v-1h2v1m4 0c0 3.87-3.13 7-7 7s-7-3.13-7-7c0-2.79 1.64-5.2 4-6.33V5c0-.55.45-1 1-1h.5l-1-2h5l-1 2h.5c.55 0 1 .45 1 1v3.67c2.36 1.13 4 3.54 4 6.33m-8-9v4.1a5 5 0 1 0 2 0V6h-2Z" transform="matrix(1.5 0 0 1.5 612 36)" id="mdi-flask-round-bottom-outline" fill="#fff"/><path d="M12 2S9 4 9 7s2 5 2 9h-1s0-2-1-4c-2-4-6-2-6 1s2 3 2 3c0-3 3.5-3 3.5 0H7v2h3.5L9 20s1 1 2 0l1 2 1-2c1 1 2 0 2 0l-1.5-2H17v-2h-1.5c0-3 3.5-3 3.5 0 0 0 2 0 2-3s-4-5-6-1c-1 2-1 4-1 4h-1c0-4 2-6 2-9s-3-5-3-5Z" transform="matrix(1.5 0 0 1.5 648 36)" id="mdi-fleur-de-lis" fill="#555"/><path d="M12 2S9 4 9 7s2 5 2 9h-1s0-2-1-4c-2-4-6-2-6 1s2 3 2 3c0-3 3.5-3 3.5 0H7v2h3.5L9 20s1 1 2 0l1 2 1-2c1 1 2 0 2 0l-1.5-2H17v-2h-1.5c0-3 3.5-3 3.5 0 0 0 2 0 2-3s-4-5-6-1c-1 2-1 4-1 4h-1c0-4 2-6 2-9s-3-5-3-5Z" transform="matrix(1.5 0 0 1.5 684 36)" id="mdi-fleur-de-lis" fill="#fff"/><path d="M15 21h2v-2h-2m4-10h2V7h-2M3 5v14c0 1.1.9 2 2 2h4v-2H5V5h4V3H5c-1.1 0-2 .9-2 2m16-2v2h2c0-1.1-.9-2-2-2m-8 20h2V1h-2m8 16h2v-2h-2M15 5h2V3h-2m4 10h2v-2h-2m0 10c1.1 0 2-.9 2-2h-2Z" transform="matrix(1.5 0 0 1.5 0 72)" id="mdi-flip-horizontal" fill="#555"/><path d="M15 21h2v-2h-2m4-10h2V7h-2M3 5v14c0 1.1.9 2 2 2h4v-2H5V5h4V3H5c-1.1 0-2 .9-2 2m16-2v2h2c0-1.1-.9-2-2-2m-8 20h2V1h-2m8 16h2v-2h-2M15 5h2V3h-2m4 10h2v-2h-2m0 10c1.1 0 2-.9 2-2h-2Z" transform="matrix(1.5 0 0 1.5 36 72)" id="mdi-flip-horizontal" fill="#fff"/><path d="M15 17h2v-2h-2m0-10h2V3h-2M5 7H3v12a2 2 0 0 0 2 2h12v-2H5m14-2a2 2 0 0 0 2-2h-2m0-6h2V7h-2m0 6h2v-2h-2M9 17v-2H7a2 2 0 0 0 2 2m4-14h-2v2h2m6-2v2h2a2 2 0 0 0-2-2m-6 12h-2v2h2M9 3c-1.11 0-2 .89-2 2h2m0 6H7v2h2m0-6H7v2h2V7Z" transform="matrix(1.5 0 0 1.5 72 72)" id="mdi-flip-to-back" fill="#555"/><path d="M15 17h2v-2h-2m0-10h2V3h-2M5 7H3v12a2 2 0 0 0 2 2h12v-2H5m14-2a2 2 0 0 0 2-2h-2m0-6h2V7h-2m0 6h2v-2h-2M9 17v-2H7a2 2 0 0 0 2 2m4-14h-2v2h2m6-2v2h2a2 2 0 0 0-2-2m-6 12h-2v2h2M9 3c-1.11 0-2 .89-2 2h2m0 6H7v2h2m0-6H7v2h2V7Z" transform="matrix(1.5 0 0 1.5 108 72)" id="mdi-flip-to-back" fill="#fff"/><path d="M7 21h2v-2H7m4 2h2v-2h-2m8-4H9V5h10m0-2H9c-1.11 0-2 .89-2 2v10a2 2 0 0 0 2 2h10a2 2 0 0 0 2-2V5a2 2 0 0 0-2-2m-4 18h2v-2h-2M3 9h2V7H3m2 14v-2H3a2 2 0 0 0 2 2m-2-4h2v-2H3m0-2h2v-2H3v2Z" transform="matrix(1.5 0 0 1.5 144 72)" id="mdi-flip-to-front" fill="#555"/><path d="M7 21h2v-2H7m4 2h2v-2h-2m8-4H9V5h10m0-2H9c-1.11 0-2 .89-2 2v10a2 2 0 0 0 2 2h10a2 2 0 0 0 2-2V5a2 2 0 0 0-2-2m-4 18h2v-2h-2M3 9h2V7H3m2 14v-2H3a2 2 0 0 0 2 2m-2-4h2v-2H3m0-2h2v-2H3v2Z" transform="matrix(1.5 0 0 1.5 180 72)" id="mdi-flip-to-front" fill="#fff"/><path d="M3 15v2h2v-2m10 4v2h2v-2m2-16H5c-1.1 0-2 .9-2 2v4h2V5h14v4h2V5c0-1.1-.9-2-2-2m2 16h-2v2c1.1 0 2-.9 2-2M1 11v2h22v-2M7 19v2h2v-2m10-4v2h2v-2m-10 4v2h2v-2M3 19c0 1.1.9 2 2 2v-2Z" transform="matrix(1.5 0 0 1.5 216 72)" id="mdi-flip-vertical" fill="#555"/><path d="M3 15v2h2v-2m10 4v2h2v-2m2-16H5c-1.1 0-2 .9-2 2v4h2V5h14v4h2V5c0-1.1-.9-2-2-2m2 16h-2v2c1.1 0 2-.9 2-2M1 11v2h22v-2M7 19v2h2v-2m10-4v2h2v-2m-10 4v2h2v-2M3 19c0 1.1.9 2 2 2v-2Z" transform="matrix(1.5 0 0 1.5 252 72)" id="mdi-flip-vertical" fill="#fff"/><path d="m15 2 2 7H7l2-7m2 8h2v10h3v2H8v-2h3V10Z" transform="matrix(1.5 0 0 1.5 288 72)" id="mdi-floor-lamp" fill="#555"/><path d="m15 2 2 7H7l2-7m2 8h2v10h3v2H8v-2h3V10Z" transform="matrix(1.5 0 0 1.5 324 72)" id="mdi-floor-lamp" fill="#fff"/><path d="m11.73 10.06-1.56 1.18.83.96V20H8v2h8v-2h-3v-7.7l.85-1.04-1.58-1.19-.54-.01m-2.65.76L3 6.81 9.39 2l2.16 6.93-2.47 1.89M14.61 2 21 6.81l-6.08 4.01-2.48-1.87L14.61 2Z" transform="matrix(1.5 0 0 1.5 360 72)" id="mdi-floor-lamp-dual" fill="#555"/><path d="m11.73 10.06-1.56 1.18.83.96V20H8v2h8v-2h-3v-7.7l.85-1.04-1.58-1.19-.54-.01m-2.65.76L3 6.81 9.39 2l2.16 6.93-2.47 1.89M14.61 2 21 6.81l-6.08 4.01-2.48-1.87L14.61 2Z" transform="matrix(1.5 0 0 1.5 396 72)" id="mdi-floor-lamp-dual" fill="#fff"/><path d="m11.73 10.06-1.56 1.18.83.96V20H8v2h8v-2h-3v-7.7l.85-1.04-1.58-1.19-.54-.01M8.32 5.31l.91 2.88-.23.18L6.47 6.7l1.85-1.39M9.39 2 3 6.81l6.08 4.01 2.47-1.89L9.39 2m6.28 3.3 1.86 1.4L15 8.37l-.23-.17.9-2.9M14.61 2l-2.17 6.95 2.48 1.87L21 6.81 14.61 2Z" transform="matrix(1.5 0 0 1.5 432 72)" id="mdi-floor-lamp-dual-outline" fill="#555"/><path d="m11.73 10.06-1.56 1.18.83.96V20H8v2h8v-2h-3v-7.7l.85-1.04-1.58-1.19-.54-.01M8.32 5.31l.91 2.88-.23.18L6.47 6.7l1.85-1.39M9.39 2 3 6.81l6.08 4.01 2.47-1.89L9.39 2m6.28 3.3 1.86 1.4L15 8.37l-.23-.17.9-2.9M14.61 2l-2.17 6.95 2.48 1.87L21 6.81 14.61 2Z" transform="matrix(1.5 0 0 1.5 468 72)" id="mdi-floor-lamp-dual-outline" fill="#fff"/><path d="m15 2 2 7H7l2-7m4.6 2h-3.2l-.85 3h4.9M11 10h2v10h3v2H8v-2h3Z" transform="matrix(1.5 0 0 1.5 504 72)" id="mdi-floor-lamp-outline" fill="#555"/><path d="m15 2 2 7H7l2-7m4.6 2h-3.2l-.85 3h4.9M11 10h2v10h3v2H8v-2h3Z" transform="matrix(1.5 0 0 1.5 540 72)" id="mdi-floor-lamp-outline" fill="#fff"/><path d="m7 2 3 7h4l3-7H7m6 18h3v2H8v-2h3V10h2v10Z" transform="matrix(1.5 0 0 1.5 576 72)" id="mdi-floor-lamp-torchiere" fill="#555"/><path d="m7 2 3 7h4l3-7H7m6 18h3v2H8v-2h3V10h2v10Z" transform="matrix(1.5 0 0 1.5 612 72)" id="mdi-floor-lamp-torchiere" fill="#fff"/><path d="m14 4-1.3 3h-1.4L10 4h4m3-2H7l3 7h4l3-7m-4 18h3v2H8v-2h3V10h2v10Z" transform="matrix(1.5 0 0 1.5 648 72)" id="mdi-floor-lamp-torchiere-outline" fill="#555"/><path d="m14 4-1.3 3h-1.4L10 4h4m3-2H7l3 7h4l3-7m-4 18h3v2H8v-2h3V10h2v10Z" transform="matrix(1.5 0 0 1.5 684 72)" id="mdi-floor-lamp-torchiere-outline" fill="#fff"/><path d="m7 2 3 7h4l3-7H7m8.92 20L13 15v7h-2v-7l-2.92 7H5.92l5-12h2.16l5 12h-2.16Z" transform="matrix(1.5 0 0 1.5 0 108)" id="mdi-floor-lamp-torchiere-variant" fill="#555"/><path d="m7 2 3 7h4l3-7H7m8.92 20L13 15v7h-2v-7l-2.92 7H5.92l5-12h2.16l5 12h-2.16Z" transform="matrix(1.5 0 0 1.5 36 108)" id="mdi-floor-lamp-torchiere-variant" fill="#fff"/><path d="m13.97 4-1.29 3h-1.36l-1.29-3h3.94M17 2H7l3 7h4l3-7m-1.08 20L13 15v7h-2v-7l-2.92 7H5.92l5-12h2.16l5 12h-2.16Z" transform="matrix(1.5 0 0 1.5 72 108)" id="mdi-floor-lamp-torchiere-variant-outline" fill="#555"/><path d="m13.97 4-1.29 3h-1.36l-1.29-3h3.94M17 2H7l3 7h4l3-7m-1.08 20L13 15v7h-2v-7l-2.92 7H5.92l5-12h2.16l5 12h-2.16Z" transform="matrix(1.5 0 0 1.5 108 108)" id="mdi-floor-lamp-torchiere-variant-outline" fill="#fff"/><path d="M10 5v5H9V5H5v8h4v-1h1v5H9v-3H5v5h7v-2h1v2h6v-2h2v4H3V3h18v12h-2v-5h-6v5h-1V9h7V5h-9Z" transform="matrix(1.5 0 0 1.5 144 108)" id="mdi-floor-plan" fill="#555"/><path d="M10 5v5H9V5H5v8h4v-1h1v5H9v-3H5v5h7v-2h1v2h6v-2h2v4H3V3h18v12h-2v-5h-6v5h-1V9h7V5h-9Z" transform="matrix(1.5 0 0 1.5 180 108)" id="mdi-floor-plan" fill="#fff"/><path d="M5 3a2 2 0 0 0-2 2v14a2 2 0 0 0 2 2h14a2 2 0 0 0 2-2V5.5L18.5 3H17v6a1 1 0 0 1-1 1H8a1 1 0 0 1-1-1V3H5m7 1v5h3V4h-3m-5 8h10a1 1 0 0 1 1 1v6H6v-6a1 1 0 0 1 1-1Z" transform="matrix(1.5 0 0 1.5 216 108)" id="mdi-floppy" fill="#555"/><path d="M5 3a2 2 0 0 0-2 2v14a2 2 0 0 0 2 2h14a2 2 0 0 0 2-2V5.5L18.5 3H17v6a1 1 0 0 1-1 1H8a1 1 0 0 1-1-1V3H5m7 1v5h3V4h-3m-5 8h10a1 1 0 0 1 1 1v6H6v-6a1 1 0 0 1 1-1Z" transform="matrix(1.5 0 0 1.5 252 108)" id="mdi-floppy" fill="#fff"/><path d="M3 3v18h18V3H3m9 7a2 2 0 0 1 2 2 2 2 0 0 1-2 2 2 2 0 0 1-2-2 2 2 0 0 1 2-2m0 5a1 1 0 0 1 1 1v3a1 1 0 0 1-1 1 1 1 0 0 1-1-1v-3a1 1 0 0 1 1-1Z" transform="matrix(1.5 0 0 1.5 288 108)" id="mdi-floppy-variant" fill="#555"/><path d="M3 3v18h18V3H3m9 7a2 2 0 0 1 2 2 2 2 0 0 1-2 2 2 2 0 0 1-2-2 2 2 0 0 1 2-2m0 5a1 1 0 0 1 1 1v3a1 1 0 0 1-1 1 1 1 0 0 1-1-1v-3a1 1 0 0 1 1-1Z" transform="matrix(1.5 0 0 1.5 324 108)" id="mdi-floppy-variant" fill="#fff"/><path d="M3 13a9 9 0 0 0 9 9c0-5-4.03-9-9-9m9-7.5A2.5 2.5 0 0 1 14.5 8a2.5 2.5 0 0 1-2.5 2.5A2.5 2.5 0 0 1 9.5 8 2.5 2.5 0 0 1 12 5.5m-6.4 4.75a2.5 2.5 0 0 0 2.5 2.5c.53 0 1.02-.17 1.4-.44v.19A2.5 2.5 0 0 0 12 15a2.5 2.5 0 0 0 2.5-2.5v-.19c.38.27.87.44 1.4.44a2.5 2.5 0 0 0 2.5-2.5c0-1-.59-1.85-1.43-2.25.84-.4 1.43-1.26 1.43-2.25a2.5 2.5 0 0 0-2.5-2.5c-.53 0-1.02.16-1.4.44V3.5A2.5 2.5 0 0 0 12 1a2.5 2.5 0 0 0-2.5 2.5v.19c-.38-.28-.87-.44-1.4-.44a2.5 2.5 0 0 0-2.5 2.5c0 .99.59 1.85 1.43 2.25-.84.4-1.43 1.25-1.43 2.25M12 22a9 9 0 0 0 9-9c-5 0-9 4-9 9Z" transform="matrix(1.5 0 0 1.5 360 108)" id="mdi-flower" fill="#555"/><path d="M3 13a9 9 0 0 0 9 9c0-5-4.03-9-9-9m9-7.5A2.5 2.5 0 0 1 14.5 8a2.5 2.5 0 0 1-2.5 2.5A2.5 2.5 0 0 1 9.5 8 2.5 2.5 0 0 1 12 5.5m-6.4 4.75a2.5 2.5 0 0 0 2.5 2.5c.53 0 1.02-.17 1.4-.44v.19A2.5 2.5 0 0 0 12 15a2.5 2.5 0 0 0 2.5-2.5v-.19c.38.27.87.44 1.4.44a2.5 2.5 0 0 0 2.5-2.5c0-1-.59-1.85-1.43-2.25.84-.4 1.43-1.26 1.43-2.25a2.5 2.5 0 0 0-2.5-2.5c-.53 0-1.02.16-1.4.44V3.5A2.5 2.5 0 0 0 12 1a2.5 2.5 0 0 0-2.5 2.5v.19c-.38-.28-.87-.44-1.4-.44a2.5 2.5 0 0 0-2.5 2.5c0 .99.59 1.85 1.43 2.25-.84.4-1.43 1.25-1.43 2.25M12 22a9 9 0 0 0 9-9c-5 0-9 4-9 9Z" transform="matrix(1.5 0 0 1.5 396 108)" id="mdi-flower" fill="#fff"/><path d="M8.66 13.07c-1.74 0-3.16-1.41-3.16-3.14 0-.71.26-1.39.69-1.93-.42-.54-.69-1.22-.69-1.93 0-1.73 1.43-3.14 3.16-3.14l.43.03A3.15 3.15 0 0 1 12 1c1.31 0 2.44.81 2.91 1.96l.43-.03c1.73 0 3.16 1.41 3.16 3.14 0 .71-.26 1.39-.69 1.93.42.54.69 1.22.69 1.93 0 1.73-1.43 3.14-3.16 3.14l-.43-.03A3.15 3.15 0 0 1 12 15a3.15 3.15 0 0 1-2.91-1.96l-.43.03M12 13c.62 0 1.12-.5 1.14-1.1l-.11-1.09c-.32.12-.67.19-1.03.19s-.7-.07-1-.19l-.14 1.09c.02.6.52 1.1 1.14 1.1m3.34-1.93c.63 0 1.16-.51 1.16-1.15 0-.42-.27-.84-.67-1.03l-.88-.42c-.12.74-.51 1.38-1.06 1.83l.81.57c.18.13.4.2.64.2m-.65-5.94-.82.56c.56.45.95 1.09 1.07 1.81l.88-.4c.41-.2.68-.6.68-1.03 0-.63-.53-1.14-1.16-1.14-.23 0-.45.07-.65.2M12 3c-.62 0-1.12.5-1.14 1.1L11 5.19c.3-.12.64-.19 1-.19s.71.07 1.03.19l.11-1.09C13.12 3.5 12.62 3 12 3M8.66 4.93c-.63 0-1.16.51-1.16 1.14 0 .43.27.83.67 1.03l.88.4c.12-.72.51-1.36 1.06-1.81l-.81-.56c-.18-.13-.4-.2-.64-.2M8.17 8.9c-.4.2-.67.6-.67 1.02 0 .63.53 1.14 1.16 1.14.23 0 .45-.06.65-.2l.81-.55c-.56-.45-.95-1.09-1.07-1.81l-.88.4M12 22a9 9 0 0 1-9-9 9 9 0 0 1 9 9 9 9 0 0 1 9-9 9 9 0 0 1-9 9m2.44-2.44a7.04 7.04 0 0 0 4.12-4.12c-1.9.7-3.41 2.22-4.12 4.12m-9-4.12a7.04 7.04 0 0 0 4.12 4.12c-.7-1.9-2.22-3.41-4.12-4.12Z" transform="matrix(1.5 0 0 1.5 432 108)" id="mdi-flower-outline" fill="#555"/><path d="M8.66 13.07c-1.74 0-3.16-1.41-3.16-3.14 0-.71.26-1.39.69-1.93-.42-.54-.69-1.22-.69-1.93 0-1.73 1.43-3.14 3.16-3.14l.43.03A3.15 3.15 0 0 1 12 1c1.31 0 2.44.81 2.91 1.96l.43-.03c1.73 0 3.16 1.41 3.16 3.14 0 .71-.26 1.39-.69 1.93.42.54.69 1.22.69 1.93 0 1.73-1.43 3.14-3.16 3.14l-.43-.03A3.15 3.15 0 0 1 12 15a3.15 3.15 0 0 1-2.91-1.96l-.43.03M12 13c.62 0 1.12-.5 1.14-1.1l-.11-1.09c-.32.12-.67.19-1.03.19s-.7-.07-1-.19l-.14 1.09c.02.6.52 1.1 1.14 1.1m3.34-1.93c.63 0 1.16-.51 1.16-1.15 0-.42-.27-.84-.67-1.03l-.88-.42c-.12.74-.51 1.38-1.06 1.83l.81.57c.18.13.4.2.64.2m-.65-5.94-.82.56c.56.45.95 1.09 1.07 1.81l.88-.4c.41-.2.68-.6.68-1.03 0-.63-.53-1.14-1.16-1.14-.23 0-.45.07-.65.2M12 3c-.62 0-1.12.5-1.14 1.1L11 5.19c.3-.12.64-.19 1-.19s.71.07 1.03.19l.11-1.09C13.12 3.5 12.62 3 12 3M8.66 4.93c-.63 0-1.16.51-1.16 1.14 0 .43.27.83.67 1.03l.88.4c.12-.72.51-1.36 1.06-1.81l-.81-.56c-.18-.13-.4-.2-.64-.2M8.17 8.9c-.4.2-.67.6-.67 1.02 0 .63.53 1.14 1.16 1.14.23 0 .45-.06.65-.2l.81-.55c-.56-.45-.95-1.09-1.07-1.81l-.88.4M12 22a9 9 0 0 1-9-9 9 9 0 0 1 9 9 9 9 0 0 1 9-9 9 9 0 0 1-9 9m2.44-2.44a7.04 7.04 0 0 0 4.12-4.12c-1.9.7-3.41 2.22-4.12 4.12m-9-4.12a7.04 7.04 0 0 0 4.12 4.12c-.7-1.9-2.22-3.41-4.12-4.12Z" transform="matrix(1.5 0 0 1.5 468 108)" id="mdi-flower-outline" fill="#fff"/><path d="M18.4 12.75a2.5 2.5 0 0 0-2.5-2.5c-.53 0-1.02.16-1.4.44v-.19a2.5 2.5 0 0 0-5 0v.19c-.38-.28-.87-.44-1.4-.44a2.5 2.5 0 0 0-2.5 2.5c0 .99.59 1.85 1.43 2.25-.84.4-1.43 1.25-1.43 2.25a2.5 2.5 0 0 0 2.5 2.5c.53 0 1.02-.17 1.4-.44v.19a2.5 2.5 0 0 0 5 0v-.19c.38.27.87.44 1.4.44a2.5 2.5 0 0 0 2.5-2.5c0-1-.59-1.85-1.43-2.25.84-.4 1.43-1.26 1.43-2.25M12 17.5a2.5 2.5 0 0 1 0-5 2.5 2.5 0 0 1 0 5M11 6c0-.55.45-1 1-1s1 .45 1 1-.45 1-1 1-1-.45-1-1M7 8c0-.55.45-1 1-1s1 .45 1 1-.45 1-1 1-1-.45-1-1M5 6c-.55 0-1-.45-1-1s.45-1 1-1 1 .45 1 1-.45 1-1 1m3-3c0-.55.45-1 1-1s1 .45 1 1-.45 1-1 1-1-.45-1-1m6 0c0-.55.45-1 1-1s1 .45 1 1-.45 1-1 1-1-.45-1-1m6 2c0 .55-.45 1-1 1s-1-.45-1-1 .45-1 1-1 1 .45 1 1m-4 2c.55 0 1 .45 1 1s-.45 1-1 1-1-.45-1-1 .45-1 1-1Z" transform="matrix(1.5 0 0 1.5 504 108)" id="mdi-flower-pollen" fill="#555"/><path d="M18.4 12.75a2.5 2.5 0 0 0-2.5-2.5c-.53 0-1.02.16-1.4.44v-.19a2.5 2.5 0 0 0-5 0v.19c-.38-.28-.87-.44-1.4-.44a2.5 2.5 0 0 0-2.5 2.5c0 .99.59 1.85 1.43 2.25-.84.4-1.43 1.25-1.43 2.25a2.5 2.5 0 0 0 2.5 2.5c.53 0 1.02-.17 1.4-.44v.19a2.5 2.5 0 0 0 5 0v-.19c.38.27.87.44 1.4.44a2.5 2.5 0 0 0 2.5-2.5c0-1-.59-1.85-1.43-2.25.84-.4 1.43-1.26 1.43-2.25M12 17.5a2.5 2.5 0 0 1 0-5 2.5 2.5 0 0 1 0 5M11 6c0-.55.45-1 1-1s1 .45 1 1-.45 1-1 1-1-.45-1-1M7 8c0-.55.45-1 1-1s1 .45 1 1-.45 1-1 1-1-.45-1-1M5 6c-.55 0-1-.45-1-1s.45-1 1-1 1 .45 1 1-.45 1-1 1m3-3c0-.55.45-1 1-1s1 .45 1 1-.45 1-1 1-1-.45-1-1m6 0c0-.55.45-1 1-1s1 .45 1 1-.45 1-1 1-1-.45-1-1m6 2c0 .55-.45 1-1 1s-1-.45-1-1 .45-1 1-1 1 .45 1 1m-4 2c.55 0 1 .45 1 1s-.45 1-1 1-1-.45-1-1 .45-1 1-1Z" transform="matrix(1.5 0 0 1.5 540 108)" id="mdi-flower-pollen" fill="#fff"/><path d="M11 6c0-.55.45-1 1-1s1 .45 1 1-.45 1-1 1-1-.45-1-1M8 9c.55 0 1-.45 1-1s-.45-1-1-1-1 .45-1 1 .45 1 1 1M6 5c0-.55-.45-1-1-1s-1 .45-1 1 .45 1 1 1 1-.45 1-1m3-1c.55 0 1-.45 1-1s-.45-1-1-1-1 .45-1 1 .45 1 1 1m6 0c.55 0 1-.45 1-1s-.45-1-1-1-1 .45-1 1 .45 1 1 1m4 0c-.55 0-1 .45-1 1s.45 1 1 1 1-.45 1-1-.45-1-1-1m-4 4c0 .55.45 1 1 1s1-.45 1-1-.45-1-1-1-1 .45-1 1m3.5 5.07c0 .71-.26 1.39-.69 1.93.42.54.69 1.22.69 1.93 0 1.73-1.43 3.14-3.16 3.14l-.43-.03C14.44 21.19 13.31 22 12 22s-2.44-.81-2.91-1.96l-.43.03c-1.74 0-3.16-1.41-3.16-3.14 0-.71.26-1.39.69-1.93-.42-.54-.69-1.22-.69-1.93 0-1.73 1.43-3.14 3.16-3.14l.43.03C9.56 8.81 10.69 8 12 8s2.44.81 2.91 1.96l.43-.03c1.73 0 3.16 1.41 3.16 3.14m-11 0c0 .43.27.83.67 1.03l.88.4c.12-.72.51-1.36 1.06-1.81l-.81-.56c-.18-.13-.4-.2-.64-.2-.63 0-1.16.51-1.16 1.14m2.62 4.24c-.56-.45-.95-1.09-1.07-1.81l-.88.4c-.4.2-.67.6-.67 1.02 0 .63.53 1.14 1.16 1.14.23 0 .45-.06.65-.2l.81-.55m3.02 1.59-.11-1.09c-.32.12-.67.19-1.03.19s-.7-.07-1-.19l-.14 1.09c.02.6.52 1.1 1.14 1.1s1.12-.5 1.14-1.1m0-7.8c-.02-.6-.52-1.1-1.14-1.1s-1.12.5-1.14 1.1l.14 1.09c.3-.12.64-.19 1-.19s.71.07 1.03.19l.11-1.09m3.36 5.82c0-.42-.27-.84-.67-1.03l-.88-.42c-.12.74-.51 1.38-1.06 1.83l.81.57c.18.13.4.2.64.2.63 0 1.16-.51 1.16-1.15m0-3.85c0-.63-.53-1.14-1.16-1.14-.23 0-.45.07-.65.2l-.82.56c.56.45.95 1.09 1.07 1.81l.88-.4c.41-.2.68-.6.68-1.03Z" transform="matrix(1.5 0 0 1.5 576 108)" id="mdi-flower-pollen-outline" fill="#555"/><path d="M11 6c0-.55.45-1 1-1s1 .45 1 1-.45 1-1 1-1-.45-1-1M8 9c.55 0 1-.45 1-1s-.45-1-1-1-1 .45-1 1 .45 1 1 1M6 5c0-.55-.45-1-1-1s-1 .45-1 1 .45 1 1 1 1-.45 1-1m3-1c.55 0 1-.45 1-1s-.45-1-1-1-1 .45-1 1 .45 1 1 1m6 0c.55 0 1-.45 1-1s-.45-1-1-1-1 .45-1 1 .45 1 1 1m4 0c-.55 0-1 .45-1 1s.45 1 1 1 1-.45 1-1-.45-1-1-1m-4 4c0 .55.45 1 1 1s1-.45 1-1-.45-1-1-1-1 .45-1 1m3.5 5.07c0 .71-.26 1.39-.69 1.93.42.54.69 1.22.69 1.93 0 1.73-1.43 3.14-3.16 3.14l-.43-.03C14.44 21.19 13.31 22 12 22s-2.44-.81-2.91-1.96l-.43.03c-1.74 0-3.16-1.41-3.16-3.14 0-.71.26-1.39.69-1.93-.42-.54-.69-1.22-.69-1.93 0-1.73 1.43-3.14 3.16-3.14l.43.03C9.56 8.81 10.69 8 12 8s2.44.81 2.91 1.96l.43-.03c1.73 0 3.16 1.41 3.16 3.14m-11 0c0 .43.27.83.67 1.03l.88.4c.12-.72.51-1.36 1.06-1.81l-.81-.56c-.18-.13-.4-.2-.64-.2-.63 0-1.16.51-1.16 1.14m2.62 4.24c-.56-.45-.95-1.09-1.07-1.81l-.88.4c-.4.2-.67.6-.67 1.02 0 .63.53 1.14 1.16 1.14.23 0 .45-.06.65-.2l.81-.55m3.02 1.59-.11-1.09c-.32.12-.67.19-1.03.19s-.7-.07-1-.19l-.14 1.09c.02.6.52 1.1 1.14 1.1s1.12-.5 1.14-1.1m0-7.8c-.02-.6-.52-1.1-1.14-1.1s-1.12.5-1.14 1.1l.14 1.09c.3-.12.64-.19 1-.19s.71.07 1.03.19l.11-1.09m3.36 5.82c0-.42-.27-.84-.67-1.03l-.88-.42c-.12.74-.51 1.38-1.06 1.83l.81.57c.18.13.4.2.64.2.63 0 1.16-.51 1.16-1.15m0-3.85c0-.63-.53-1.14-1.16-1.14-.23 0-.45.07-.65.2l-.82.56c.56.45.95 1.09 1.07 1.81l.88-.4c.41-.2.68-.6.68-1.03Z" transform="matrix(1.5 0 0 1.5 612 108)" id="mdi-flower-pollen-outline" fill="#fff"/><path d="M18.5 12A3.5 3.5 0 0 0 22 8.5 6.5 6.5 0 0 0 15.5 2 3.5 3.5 0 0 0 12 5.5 3.5 3.5 0 0 0 8.5 2 6.5 6.5 0 0 0 2 8.5 3.5 3.5 0 0 0 5.5 12 3.5 3.5 0 0 0 2 15.5 6.5 6.5 0 0 0 8.5 22a3.5 3.5 0 0 0 3.5-3.5 3.5 3.5 0 0 0 3.5 3.5 6.5 6.5 0 0 0 6.5-6.5 3.5 3.5 0 0 0-3.5-3.5M12 16a4 4 0 0 1-4-4 4 4 0 0 1 4-4 4 4 0 0 1 4 4 4 4 0 0 1-4 4m2.5-4a2.5 2.5 0 0 1-2.5 2.5A2.5 2.5 0 0 1 9.5 12 2.5 2.5 0 0 1 12 9.5a2.5 2.5 0 0 1 2.5 2.5Z" transform="matrix(1.5 0 0 1.5 648 108)" id="mdi-flower-poppy" fill="#555"/><path d="M18.5 12A3.5 3.5 0 0 0 22 8.5 6.5 6.5 0 0 0 15.5 2 3.5 3.5 0 0 0 12 5.5 3.5 3.5 0 0 0 8.5 2 6.5 6.5 0 0 0 2 8.5 3.5 3.5 0 0 0 5.5 12 3.5 3.5 0 0 0 2 15.5 6.5 6.5 0 0 0 8.5 22a3.5 3.5 0 0 0 3.5-3.5 3.5 3.5 0 0 0 3.5 3.5 6.5 6.5 0 0 0 6.5-6.5 3.5 3.5 0 0 0-3.5-3.5M12 16a4 4 0 0 1-4-4 4 4 0 0 1 4-4 4 4 0 0 1 4 4 4 4 0 0 1-4 4m2.5-4a2.5 2.5 0 0 1-2.5 2.5A2.5 2.5 0 0 1 9.5 12 2.5 2.5 0 0 1 12 9.5a2.5 2.5 0 0 1 2.5 2.5Z" transform="matrix(1.5 0 0 1.5 684 108)" id="mdi-flower-poppy" fill="#fff"/><path d="M3 13a9 9 0 0 0 9 9 9 9 0 0 0-9-9m9 9a9 9 0 0 0 9-9 9 9 0 0 0-9 9m6-19v5a6 6 0 0 1-6 6 6 6 0 0 1-6-6V3c.74 0 1.47.12 2.16.39.55.23 1.04.57 1.45 1L12 2l2.39 2.39c.41-.43.9-.77 1.45-1A5.9 5.9 0 0 1 18 3Z" transform="matrix(1.5 0 0 1.5 0 144)" id="mdi-flower-tulip" fill="#555"/><path d="M3 13a9 9 0 0 0 9 9 9 9 0 0 0-9-9m9 9a9 9 0 0 0 9-9 9 9 0 0 0-9 9m6-19v5a6 6 0 0 1-6 6 6 6 0 0 1-6-6V3c.74 0 1.47.12 2.16.39.55.23 1.04.57 1.45 1L12 2l2.39 2.39c.41-.43.9-.77 1.45-1A5.9 5.9 0 0 1 18 3Z" transform="matrix(1.5 0 0 1.5 36 144)" id="mdi-flower-tulip" fill="#fff"/><path d="M3 13a9 9 0 0 0 9 9 9 9 0 0 0-9-9m2.44 2.44c1.91.71 3.41 2.21 4.12 4.12a6.986 6.986 0 0 1-4.12-4.12M12 22a9 9 0 0 0 9-9 9 9 0 0 0-9 9m2.42-2.43a6.876 6.876 0 0 1 4.15-4.15 7.03 7.03 0 0 1-4.15 4.15M12 14a6 6 0 0 0 6-6V3a5.9 5.9 0 0 0-2.16.39c-.55.23-1.04.57-1.45 1L12 2 9.61 4.39c-.41-.43-.9-.77-1.45-1A5.9 5.9 0 0 0 6 3v5a6 6 0 0 0 6 6M8 5.61l1.57 1.65L12 4.83l2.43 2.43L16 5.61V8a4 4 0 0 1-4 4 4 4 0 0 1-4-4V5.61Z" transform="matrix(1.5 0 0 1.5 72 144)" id="mdi-flower-tulip-outline" fill="#555"/><path d="M3 13a9 9 0 0 0 9 9 9 9 0 0 0-9-9m2.44 2.44c1.91.71 3.41 2.21 4.12 4.12a6.986 6.986 0 0 1-4.12-4.12M12 22a9 9 0 0 0 9-9 9 9 0 0 0-9 9m2.42-2.43a6.876 6.876 0 0 1 4.15-4.15 7.03 7.03 0 0 1-4.15 4.15M12 14a6 6 0 0 0 6-6V3a5.9 5.9 0 0 0-2.16.39c-.55.23-1.04.57-1.45 1L12 2 9.61 4.39c-.41-.43-.9-.77-1.45-1A5.9 5.9 0 0 0 6 3v5a6 6 0 0 0 6 6M8 5.61l1.57 1.65L12 4.83l2.43 2.43L16 5.61V8a4 4 0 0 1-4 4 4 4 0 0 1-4-4V5.61Z" transform="matrix(1.5 0 0 1.5 108 144)" id="mdi-flower-tulip-outline" fill="#fff"/><path d="M19 19h-4v2h4c1.1 0 2-.9 2-2v-4h-2m0-12h-4v2h4v4h2V5c0-1.1-.9-2-2-2M5 5h4V3H5c-1.1 0-2 .9-2 2v4h2m0 6H3v4c0 1.1.9 2 2 2h4v-2H5v-4m3-8c-1.1 0-2 .9-2 2v8h2v-4h2v4h2V9c0-1.1-.9-2-2-2H8m0 2h2v2H8V9m5-2v10h2v-4h2v-2h-2V9h3V7h-5Z" transform="matrix(1.5 0 0 1.5 144 144)" id="mdi-focus-auto" fill="#555"/><path d="M19 19h-4v2h4c1.1 0 2-.9 2-2v-4h-2m0-12h-4v2h4v4h2V5c0-1.1-.9-2-2-2M5 5h4V3H5c-1.1 0-2 .9-2 2v4h2m0 6H3v4c0 1.1.9 2 2 2h4v-2H5v-4m3-8c-1.1 0-2 .9-2 2v8h2v-4h2v4h2V9c0-1.1-.9-2-2-2H8m0 2h2v2H8V9m5-2v10h2v-4h2v-2h-2V9h3V7h-5Z" transform="matrix(1.5 0 0 1.5 180 144)" id="mdi-focus-auto" fill="#fff"/><path d="M19 19h-4v2h4c1.1 0 2-.9 2-2v-4h-2m0-12h-4v2h4v4h2V5c0-1.1-.9-2-2-2M5 5h4V3H5c-1.1 0-2 .9-2 2v4h2m0 6H3v4c0 1.1.9 2 2 2h4v-2H5v-4m2-4h2v2H7v-2m4 0h2v2h-2v-2m4 0h2v2h-2v-2M7 7h2v2H7V7m4 0h2v2h-2V7m4 0h2v2h-2V7m-8 8h2v2H7v-2m4 0h2v2h-2v-2m4 0h2v2h-2v-2Z" transform="matrix(1.5 0 0 1.5 216 144)" id="mdi-focus-field" fill="#555"/><path d="M19 19h-4v2h4c1.1 0 2-.9 2-2v-4h-2m0-12h-4v2h4v4h2V5c0-1.1-.9-2-2-2M5 5h4V3H5c-1.1 0-2 .9-2 2v4h2m0 6H3v4c0 1.1.9 2 2 2h4v-2H5v-4m2-4h2v2H7v-2m4 0h2v2h-2v-2m4 0h2v2h-2v-2M7 7h2v2H7V7m4 0h2v2h-2V7m4 0h2v2h-2V7m-8 8h2v2H7v-2m4 0h2v2h-2v-2m4 0h2v2h-2v-2Z" transform="matrix(1.5 0 0 1.5 252 144)" id="mdi-focus-field" fill="#fff"/><path d="M19 19h-4v2h4c1.1 0 2-.9 2-2v-4h-2m0-12h-4v2h4v4h2V5c0-1.1-.9-2-2-2M5 5h4V3H5c-1.1 0-2 .9-2 2v4h2m0 6H3v4c0 1.1.9 2 2 2h4v-2H5v-4m2-4h2v2H7v-2m4 0h2v2h-2v-2m4 0h2v2h-2v-2Z" transform="matrix(1.5 0 0 1.5 288 144)" id="mdi-focus-field-horizontal" fill="#555"/><path d="M19 19h-4v2h4c1.1 0 2-.9 2-2v-4h-2m0-12h-4v2h4v4h2V5c0-1.1-.9-2-2-2M5 5h4V3H5c-1.1 0-2 .9-2 2v4h2m0 6H3v4c0 1.1.9 2 2 2h4v-2H5v-4m2-4h2v2H7v-2m4 0h2v2h-2v-2m4 0h2v2h-2v-2Z" transform="matrix(1.5 0 0 1.5 324 144)" id="mdi-focus-field-horizontal" fill="#fff"/><path d="M19 19h-4v2h4c1.1 0 2-.9 2-2v-4h-2m0-12h-4v2h4v4h2V5c0-1.1-.9-2-2-2M5 5h4V3H5c-1.1 0-2 .9-2 2v4h2m0 6H3v4c0 1.1.9 2 2 2h4v-2H5v-4m6-4h2v2h-2v-2m0-4h2v2h-2V7m0 8h2v2h-2v-2Z" transform="matrix(1.5 0 0 1.5 360 144)" id="mdi-focus-field-vertical" fill="#555"/><path d="M19 19h-4v2h4c1.1 0 2-.9 2-2v-4h-2m0-12h-4v2h4v4h2V5c0-1.1-.9-2-2-2M5 5h4V3H5c-1.1 0-2 .9-2 2v4h2m0 6H3v4c0 1.1.9 2 2 2h4v-2H5v-4m6-4h2v2h-2v-2m0-4h2v2h-2V7m0 8h2v2h-2v-2Z" transform="matrix(1.5 0 0 1.5 396 144)" id="mdi-focus-field-vertical" fill="#fff"/><path d="M10 4H4c-1.11 0-2 .89-2 2v12a2 2 0 0 0 2 2h16a2 2 0 0 0 2-2V8a2 2 0 0 0-2-2h-8l-2-2Z" transform="matrix(1.5 0 0 1.5 432 144)" id="mdi-folder" fill="#555"/><path d="M10 4H4c-1.11 0-2 .89-2 2v12a2 2 0 0 0 2 2h16a2 2 0 0 0 2-2V8a2 2 0 0 0-2-2h-8l-2-2Z" transform="matrix(1.5 0 0 1.5 468 144)" id="mdi-folder" fill="#fff"/><path d="M19 17h-8v-1c0-1.33 2.67-2 4-2s4 .67 4 2m-4-7a2 2 0 0 1 2 2 2 2 0 0 1-2 2 2 2 0 0 1-2-2 2 2 0 0 1 2-2m5-3h-8l-2-2H4c-1.11 0-2 .89-2 2v12a2 2 0 0 0 2 2h16a2 2 0 0 0 2-2V8a2 2 0 0 0-2-2Z" transform="matrix(1.5 0 0 1.5 504 144)" id="mdi-folder-account" fill="#555"/><path d="M19 17h-8v-1c0-1.33 2.67-2 4-2s4 .67 4 2m-4-7a2 2 0 0 1 2 2 2 2 0 0 1-2 2 2 2 0 0 1-2-2 2 2 0 0 1 2-2m5-3h-8l-2-2H4c-1.11 0-2 .89-2 2v12a2 2 0 0 0 2 2h16a2 2 0 0 0 2-2V8a2 2 0 0 0-2-2Z" transform="matrix(1.5 0 0 1.5 540 144)" id="mdi-folder-account" fill="#fff"/><path d="M15 14c1.33 0 4 .67 4 2v1h-8v-1c0-1.33 2.67-2 4-2m0-1c1.11 0 2-.89 2-2s-.89-2-2-2a2 2 0 1 0 0 4m7-5v10c0 1.11-.89 2-2 2H4a2 2 0 0 1-2-2V6a2 2 0 0 1 2-2h6l2 2h8a2 2 0 0 1 2 2m-2 0H4v10h16V8Z" transform="matrix(1.5 0 0 1.5 576 144)" id="mdi-folder-account-outline" fill="#555"/><path d="M15 14c1.33 0 4 .67 4 2v1h-8v-1c0-1.33 2.67-2 4-2m0-1c1.11 0 2-.89 2-2s-.89-2-2-2a2 2 0 1 0 0 4m7-5v10c0 1.11-.89 2-2 2H4a2 2 0 0 1-2-2V6a2 2 0 0 1 2-2h6l2 2h8a2 2 0 0 1 2 2m-2 0H4v10h16V8Z" transform="matrix(1.5 0 0 1.5 612 144)" id="mdi-folder-account-outline" fill="#fff"/><path d="M15 12h2v5h-2v-5m0 6h2v2h-2v-2m8-2a7 7 0 0 1-7 7c-2.38 0-4.5-1.19-5.75-3H3a2 2 0 0 1-2-2V6c0-1.11.89-2 2-2h6l2 2h8a2 2 0 0 1 2 2v3.1c1.24 1.26 2 2.99 2 4.9m-7-5a5 5 0 0 0-5 5 5 5 0 0 0 5 5 5 5 0 0 0 5-5 5 5 0 0 0-5-5Z" transform="matrix(1.5 0 0 1.5 648 144)" id="mdi-folder-alert" fill="#555"/><path d="M15 12h2v5h-2v-5m0 6h2v2h-2v-2m8-2a7 7 0 0 1-7 7c-2.38 0-4.5-1.19-5.75-3H3a2 2 0 0 1-2-2V6c0-1.11.89-2 2-2h6l2 2h8a2 2 0 0 1 2 2v3.1c1.24 1.26 2 2.99 2 4.9m-7-5a5 5 0 0 0-5 5 5 5 0 0 0 5 5 5 5 0 0 0 5-5 5 5 0 0 0-5-5Z" transform="matrix(1.5 0 0 1.5 684 144)" id="mdi-folder-alert" fill="#fff"/><path d="M15 12h2v5h-2v-5m0 6h2v2h-2v-2m1-9c1.07 0 2.09.24 3 .67V8H3v10h6.29A7.01 7.01 0 0 1 9 16a7 7 0 0 1 7-7m7 7a7 7 0 0 1-7 7c-2.38 0-4.5-1.19-5.75-3H3a2 2 0 0 1-2-2V6c0-1.11.89-2 2-2h6l2 2h8a2 2 0 0 1 2 2v3.1c1.24 1.26 2 2.99 2 4.9m-7-5a5 5 0 0 0-5 5 5 5 0 0 0 5 5 5 5 0 0 0 5-5 5 5 0 0 0-5-5Z" transform="matrix(1.5 0 0 1.5 0 180)" id="mdi-folder-alert-outline" fill="#555"/><path d="M15 12h2v5h-2v-5m0 6h2v2h-2v-2m1-9c1.07 0 2.09.24 3 .67V8H3v10h6.29A7.01 7.01 0 0 1 9 16a7 7 0 0 1 7-7m7 7a7 7 0 0 1-7 7c-2.38 0-4.5-1.19-5.75-3H3a2 2 0 0 1-2-2V6c0-1.11.89-2 2-2h6l2 2h8a2 2 0 0 1 2 2v3.1c1.24 1.26 2 2.99 2 4.9m-7-5a5 5 0 0 0-5 5 5 5 0 0 0 5 5 5 5 0 0 0 5-5 5 5 0 0 0-5-5Z" transform="matrix(1.5 0 0 1.5 36 180)" id="mdi-folder-alert-outline" fill="#fff"/><path d="M20 6h-8l-2-2H4c-1.1 0-2 .9-2 2v12c0 1.1.9 2 2 2h16c1.1 0 2-.9 2-2V8c0-1.1-.9-2-2-2m-5.8 10.2-2.8-3 1.2-1.2 1.6 1.6 3.6-3.6 1.2 1.4-4.8 4.8Z" transform="matrix(1.5 0 0 1.5 72 180)" id="mdi-folder-check" fill="#555"/><path d="M20 6h-8l-2-2H4c-1.1 0-2 .9-2 2v12c0 1.1.9 2 2 2h16c1.1 0 2-.9 2-2V8c0-1.1-.9-2-2-2m-5.8 10.2-2.8-3 1.2-1.2 1.6 1.6 3.6-3.6 1.2 1.4-4.8 4.8Z" transform="matrix(1.5 0 0 1.5 108 180)" id="mdi-folder-check" fill="#fff"/><path d="M20 18H4V8h16m0-2h-8l-2-2H4c-1.1 0-2 .9-2 2v12c0 1.1.9 2 2 2h16c1.1 0 2-.9 2-2V8c0-1.1-.9-2-2-2m-6.8 10.2-2.8-3 1.2-1.2 1.6 1.6 3.6-3.6 1.2 1.4-4.8 4.8Z" transform="matrix(1.5 0 0 1.5 144 180)" id="mdi-folder-check-outline" fill="#555"/><path d="M20 18H4V8h16m0-2h-8l-2-2H4c-1.1 0-2 .9-2 2v12c0 1.1.9 2 2 2h16c1.1 0 2-.9 2-2V8c0-1.1-.9-2-2-2m-6.8 10.2-2.8-3 1.2-1.2 1.6 1.6 3.6-3.6 1.2 1.4-4.8 4.8Z" transform="matrix(1.5 0 0 1.5 180 180)" id="mdi-folder-check-outline" fill="#fff"/><path d="M3 4c-1.11 0-2 .89-2 2v12a2 2 0 0 0 2 2h7.26c1.31 1.88 3.45 3 5.74 3a7 7 0 0 0 7-7c0-1.83-.72-3.58-2-4.89V8a2 2 0 0 0-2-2h-8L9 4H3m13 7a5 5 0 0 1 5 5 5 5 0 0 1-5 5 5 5 0 0 1-5-5 5 5 0 0 1 5-5m-1 1v5l3.61 2.16.75-1.22-2.86-1.69V12H15Z" transform="matrix(1.5 0 0 1.5 216 180)" id="mdi-folder-clock" fill="#555"/><path d="M3 4c-1.11 0-2 .89-2 2v12a2 2 0 0 0 2 2h7.26c1.31 1.88 3.45 3 5.74 3a7 7 0 0 0 7-7c0-1.83-.72-3.58-2-4.89V8a2 2 0 0 0-2-2h-8L9 4H3m13 7a5 5 0 0 1 5 5 5 5 0 0 1-5 5 5 5 0 0 1-5-5 5 5 0 0 1 5-5m-1 1v5l3.61 2.16.75-1.22-2.86-1.69V12H15Z" transform="matrix(1.5 0 0 1.5 252 180)" id="mdi-folder-clock" fill="#fff"/><path d="M15 12h1.5v4.25l2.86 1.69-.75 1.22L15 17v-5m4-4H3v10h6.29C9.1 17.37 9 16.7 9 16a7 7 0 0 1 7-7c1.07 0 2.09.24 3 .67V8M3 20a2 2 0 0 1-2-2V6a2 2 0 0 1 2-2h6l2 2h8a2 2 0 0 1 2 2v3.1c1.24 1.26 2 2.99 2 4.9a7 7 0 0 1-7 7c-2.38 0-4.5-1.19-5.75-3H3m13-9a5 5 0 0 0-5 5 5 5 0 0 0 5 5 5 5 0 0 0 5-5 5 5 0 0 0-5-5Z" transform="matrix(1.5 0 0 1.5 288 180)" id="mdi-folder-clock-outline" fill="#555"/><path d="M15 12h1.5v4.25l2.86 1.69-.75 1.22L15 17v-5m4-4H3v10h6.29C9.1 17.37 9 16.7 9 16a7 7 0 0 1 7-7c1.07 0 2.09.24 3 .67V8M3 20a2 2 0 0 1-2-2V6a2 2 0 0 1 2-2h6l2 2h8a2 2 0 0 1 2 2v3.1c1.24 1.26 2 2.99 2 4.9a7 7 0 0 1-7 7c-2.38 0-4.5-1.19-5.75-3H3m13-9a5 5 0 0 0-5 5 5 5 0 0 0 5 5 5 5 0 0 0 5-5 5 5 0 0 0-5-5Z" transform="matrix(1.5 0 0 1.5 324 180)" id="mdi-folder-clock-outline" fill="#fff"/><path d="M4 4c-1.11 0-2 .89-2 2v12a2 2 0 0 0 2 2h8.08a7 7 0 0 1-.08-1 7 7 0 0 1 7-7 7 7 0 0 1 3 .69V8a2 2 0 0 0-2-2h-8l-2-2H4m14 10a.26.26 0 0 0-.26.21l-.19 1.32c-.3.13-.59.29-.85.47l-1.24-.5c-.11 0-.24 0-.31.13l-1 1.73c-.06.11-.04.24.06.32l1.06.82a4.193 4.193 0 0 0 0 1l-1.06.82a.26.26 0 0 0-.06.32l1 1.73c.06.13.19.13.31.13l1.24-.5c.26.18.54.35.85.47l.19 1.32c.02.12.12.21.26.21h2c.11 0 .22-.09.24-.21l.19-1.32c.3-.13.57-.29.84-.47l1.23.5c.13 0 .26 0 .33-.13l1-1.73a.26.26 0 0 0-.06-.32l-1.07-.82c.02-.17.04-.33.04-.5 0-.17-.01-.33-.04-.5l1.06-.82a.26.26 0 0 0 .06-.32l-1-1.73c-.06-.13-.19-.13-.32-.13l-1.23.5c-.27-.18-.54-.35-.85-.47l-.19-1.32A.236.236 0 0 0 20 14h-2m1 3.5c.83 0 1.5.67 1.5 1.5s-.67 1.5-1.5 1.5c-.84 0-1.5-.67-1.5-1.5s.67-1.5 1.5-1.5Z" transform="matrix(1.5 0 0 1.5 360 180)" id="mdi-folder-cog" fill="#555"/><path d="M4 4c-1.11 0-2 .89-2 2v12a2 2 0 0 0 2 2h8.08a7 7 0 0 1-.08-1 7 7 0 0 1 7-7 7 7 0 0 1 3 .69V8a2 2 0 0 0-2-2h-8l-2-2H4m14 10a.26.26 0 0 0-.26.21l-.19 1.32c-.3.13-.59.29-.85.47l-1.24-.5c-.11 0-.24 0-.31.13l-1 1.73c-.06.11-.04.24.06.32l1.06.82a4.193 4.193 0 0 0 0 1l-1.06.82a.26.26 0 0 0-.06.32l1 1.73c.06.13.19.13.31.13l1.24-.5c.26.18.54.35.85.47l.19 1.32c.02.12.12.21.26.21h2c.11 0 .22-.09.24-.21l.19-1.32c.3-.13.57-.29.84-.47l1.23.5c.13 0 .26 0 .33-.13l1-1.73a.26.26 0 0 0-.06-.32l-1.07-.82c.02-.17.04-.33.04-.5 0-.17-.01-.33-.04-.5l1.06-.82a.26.26 0 0 0 .06-.32l-1-1.73c-.06-.13-.19-.13-.32-.13l-1.23.5c-.27-.18-.54-.35-.85-.47l-.19-1.32A.236.236 0 0 0 20 14h-2m1 3.5c.83 0 1.5.67 1.5 1.5s-.67 1.5-1.5 1.5c-.84 0-1.5-.67-1.5-1.5s.67-1.5 1.5-1.5Z" transform="matrix(1.5 0 0 1.5 396 180)" id="mdi-folder-cog" fill="#fff"/><path d="M4 4c-1.11 0-2 .89-2 2v12a2 2 0 0 0 2 2h8v-2H4V8h16v4h2V8a2 2 0 0 0-2-2h-8l-2-2m8 10a.26.26 0 0 0-.26.21l-.19 1.32c-.3.13-.59.29-.85.47l-1.24-.5c-.11 0-.24 0-.31.13l-1 1.73c-.06.11-.04.24.06.32l1.06.82a4.193 4.193 0 0 0 0 1l-1.06.82a.26.26 0 0 0-.06.32l1 1.73c.06.13.19.13.31.13l1.24-.5c.26.18.54.35.85.47l.19 1.32c.02.12.12.21.26.21h2c.11 0 .22-.09.24-.21l.19-1.32c.3-.13.57-.29.84-.47l1.23.5c.13 0 .26 0 .33-.13l1-1.73a.26.26 0 0 0-.06-.32l-1.07-.82c.02-.17.04-.33.04-.5 0-.17-.01-.33-.04-.5l1.06-.82a.26.26 0 0 0 .06-.32l-1-1.73c-.06-.13-.19-.13-.32-.13l-1.23.5c-.27-.18-.54-.35-.85-.47l-.19-1.32A.236.236 0 0 0 20 14m-1 3.5c.83 0 1.5.67 1.5 1.5s-.67 1.5-1.5 1.5c-.84 0-1.5-.67-1.5-1.5s.67-1.5 1.5-1.5Z" transform="matrix(1.5 0 0 1.5 432 180)" id="mdi-folder-cog-outline" fill="#555"/><path d="M4 4c-1.11 0-2 .89-2 2v12a2 2 0 0 0 2 2h8v-2H4V8h16v4h2V8a2 2 0 0 0-2-2h-8l-2-2m8 10a.26.26 0 0 0-.26.21l-.19 1.32c-.3.13-.59.29-.85.47l-1.24-.5c-.11 0-.24 0-.31.13l-1 1.73c-.06.11-.04.24.06.32l1.06.82a4.193 4.193 0 0 0 0 1l-1.06.82a.26.26 0 0 0-.06.32l1 1.73c.06.13.19.13.31.13l1.24-.5c.26.18.54.35.85.47l.19 1.32c.02.12.12.21.26.21h2c.11 0 .22-.09.24-.21l.19-1.32c.3-.13.57-.29.84-.47l1.23.5c.13 0 .26 0 .33-.13l1-1.73a.26.26 0 0 0-.06-.32l-1.07-.82c.02-.17.04-.33.04-.5 0-.17-.01-.33-.04-.5l1.06-.82a.26.26 0 0 0 .06-.32l-1-1.73c-.06-.13-.19-.13-.32-.13l-1.23.5c-.27-.18-.54-.35-.85-.47l-.19-1.32A.236.236 0 0 0 20 14m-1 3.5c.83 0 1.5.67 1.5 1.5s-.67 1.5-1.5 1.5c-.84 0-1.5-.67-1.5-1.5s.67-1.5 1.5-1.5Z" transform="matrix(1.5 0 0 1.5 468 180)" id="mdi-folder-cog-outline" fill="#fff"/><path d="M20 6a2 2 0 0 1 2 2v10a2 2 0 0 1-2 2H4a2 2 0 0 1-2-2V6c0-1.11.89-2 2-2h6l2 2h8m-.75 7H16V9h-2v4h-3.25L15 17.25" transform="matrix(1.5 0 0 1.5 504 180)" id="mdi-folder-download" fill="#555"/><path d="M20 6a2 2 0 0 1 2 2v10a2 2 0 0 1-2 2H4a2 2 0 0 1-2-2V6c0-1.11.89-2 2-2h6l2 2h8m-.75 7H16V9h-2v4h-3.25L15 17.25" transform="matrix(1.5 0 0 1.5 540 180)" id="mdi-folder-download" fill="#fff"/><path d="M20 18H4V8h16m0-2h-8l-2-2H4a2 2 0 0 0-2 2v12a2 2 0 0 0 2 2h16a2 2 0 0 0 2-2V8a2 2 0 0 0-2-2m-6 3h2v4h3l-4 4-4-4h3Z" transform="matrix(1.5 0 0 1.5 576 180)" id="mdi-folder-download-outline" fill="#555"/><path d="M20 18H4V8h16m0-2h-8l-2-2H4a2 2 0 0 0-2 2v12a2 2 0 0 0 2 2h16a2 2 0 0 0 2-2V8a2 2 0 0 0-2-2m-6 3h2v4h3l-4 4-4-4h3Z" transform="matrix(1.5 0 0 1.5 612 180)" id="mdi-folder-download-outline" fill="#fff"/><path d="M3 4c-1.11 0-2 .89-2 2v12a2 2 0 0 0 2 2h8v-1.89l10-10V8a2 2 0 0 0-2-2h-8L9 4H3m18.04 7.13c-.14 0-.28.06-.39.17l-1 1 2.05 2.05 1-1c.22-.21.22-.56 0-.77l-1.28-1.28a.533.533 0 0 0-.38-.17m-1.97 1.75L13 18.94V21h2.06l6.06-6.07-2.05-2.05Z" transform="matrix(1.5 0 0 1.5 648 180)" id="mdi-folder-edit" fill="#555"/><path d="M3 4c-1.11 0-2 .89-2 2v12a2 2 0 0 0 2 2h8v-1.89l10-10V8a2 2 0 0 0-2-2h-8L9 4H3m18.04 7.13c-.14 0-.28.06-.39.17l-1 1 2.05 2.05 1-1c.22-.21.22-.56 0-.77l-1.28-1.28a.533.533 0 0 0-.38-.17m-1.97 1.75L13 18.94V21h2.06l6.06-6.07-2.05-2.05Z" transform="matrix(1.5 0 0 1.5 684 180)" id="mdi-folder-edit" fill="#fff"/><path d="M21 11.11c-.08 0-.28.1-.38.2l-1 1 2.1 2.11 1-1.01c.2-.2.2-.6 0-.8l-1.3-1.3c-.1-.1-.2-.2-.42-.2m-1.88 1.8L13 18.92V21h2.12l6.1-6.08-2.1-2.01M21 8v.11l-2 2V8H3v10h8v2H3a2 2 0 0 1-2-2V6c0-1.09.9-2 2-2h6l2 2h8a2 2 0 0 1 2 2Z" transform="matrix(1.5 0 0 1.5 0 216)" id="mdi-folder-edit-outline" fill="#555"/><path d="M21 11.11c-.08 0-.28.1-.38.2l-1 1 2.1 2.11 1-1.01c.2-.2.2-.6 0-.8l-1.3-1.3c-.1-.1-.2-.2-.42-.2m-1.88 1.8L13 18.92V21h2.12l6.1-6.08-2.1-2.01M21 8v.11l-2 2V8H3v10h8v2H3a2 2 0 0 1-2-2V6c0-1.09.9-2 2-2h6l2 2h8a2 2 0 0 1 2 2Z" transform="matrix(1.5 0 0 1.5 36 216)" id="mdi-folder-edit-outline" fill="#fff"/><path d="M9.3 20H4c-1.1 0-2-.9-2-2V6c0-1.1.9-2 2-2h6l2 2h8c1.1 0 2 .9 2 2v6.6c-1.4-1-3.1-1.6-5-1.6-3.5 0-6.6 2.1-7.9 5.3l-.3.7.3.7c.1.1.1.2.2.3M23 19c-.9 2.3-3.3 4-6 4s-5.1-1.7-6-4c.9-2.3 3.3-4 6-4s5.1 1.7 6 4m-3.5 0c0-1.4-1.1-2.5-2.5-2.5s-2.5 1.1-2.5 2.5 1.1 2.5 2.5 2.5 2.5-1.1 2.5-2.5M17 18c-.6 0-1 .4-1 1s.4 1 1 1 1-.4 1-1-.4-1-1-1" transform="matrix(1.5 0 0 1.5 72 216)" id="mdi-folder-eye" fill="#555"/><path d="M9.3 20H4c-1.1 0-2-.9-2-2V6c0-1.1.9-2 2-2h6l2 2h8c1.1 0 2 .9 2 2v6.6c-1.4-1-3.1-1.6-5-1.6-3.5 0-6.6 2.1-7.9 5.3l-.3.7.3.7c.1.1.1.2.2.3M23 19c-.9 2.3-3.3 4-6 4s-5.1-1.7-6-4c.9-2.3 3.3-4 6-4s5.1 1.7 6 4m-3.5 0c0-1.4-1.1-2.5-2.5-2.5s-2.5 1.1-2.5 2.5 1.1 2.5 2.5 2.5 2.5-1.1 2.5-2.5M17 18c-.6 0-1 .4-1 1s.4 1 1 1 1-.4 1-1-.4-1-1-1" transform="matrix(1.5 0 0 1.5 108 216)" id="mdi-folder-eye" fill="#fff"/><path d="M9.3 20H4c-1.1 0-2-.9-2-2V6c0-1.1.9-2 2-2h6l2 2h8c1.1 0 2 .9 2 2v6.6c-.6-.4-1.3-.8-2-1.1V8H4v10h5.3c0 .1-.1.2-.1.3l-.4.7.3.7c.1.1.1.2.2.3M23 19c-.9 2.3-3.3 4-6 4s-5.1-1.7-6-4c.9-2.3 3.3-4 6-4s5.1 1.7 6 4m-3.5 0c0-1.4-1.1-2.5-2.5-2.5s-2.5 1.1-2.5 2.5 1.1 2.5 2.5 2.5 2.5-1.1 2.5-2.5M17 18c-.6 0-1 .4-1 1s.4 1 1 1 1-.4 1-1-.4-1-1-1" transform="matrix(1.5 0 0 1.5 144 216)" id="mdi-folder-eye-outline" fill="#555"/><path d="M9.3 20H4c-1.1 0-2-.9-2-2V6c0-1.1.9-2 2-2h6l2 2h8c1.1 0 2 .9 2 2v6.6c-.6-.4-1.3-.8-2-1.1V8H4v10h5.3c0 .1-.1.2-.1.3l-.4.7.3.7c.1.1.1.2.2.3M23 19c-.9 2.3-3.3 4-6 4s-5.1-1.7-6-4c.9-2.3 3.3-4 6-4s5.1 1.7 6 4m-3.5 0c0-1.4-1.1-2.5-2.5-2.5s-2.5 1.1-2.5 2.5 1.1 2.5 2.5 2.5 2.5-1.1 2.5-2.5M17 18c-.6 0-1 .4-1 1s.4 1 1 1 1-.4 1-1-.4-1-1-1" transform="matrix(1.5 0 0 1.5 180 216)" id="mdi-folder-eye-outline" fill="#fff"/><path d="M13.75 9h2.39L19 14h-2.95L13.5 9.46M18.3 17h-5.55l1.4-2.5h5.12l.26.46M11.5 17l-1.1-2.14 2.84-4.96 1.5 2.66L12.25 17M20 6h-8l-2-2H4c-1.11 0-2 .89-2 2v12a2 2 0 0 0 2 2h16a2 2 0 0 0 2-2V8a2 2 0 0 0-2-2Z" transform="matrix(1.5 0 0 1.5 216 216)" id="mdi-folder-google-drive" fill="#555"/><path d="M13.75 9h2.39L19 14h-2.95L13.5 9.46M18.3 17h-5.55l1.4-2.5h5.12l.26.46M11.5 17l-1.1-2.14 2.84-4.96 1.5 2.66L12.25 17M20 6h-8l-2-2H4c-1.11 0-2 .89-2 2v12a2 2 0 0 0 2 2h16a2 2 0 0 0 2-2V8a2 2 0 0 0-2-2Z" transform="matrix(1.5 0 0 1.5 252 216)" id="mdi-folder-google-drive" fill="#fff"/><path d="M20 6h-8l-2-2H4c-1.11 0-2 .89-2 2v12a2 2 0 0 0 2 2h16c1.1 0 2-.9 2-2V8c0-1.1-.9-2-2-2m-1.58 7.5L15 17l-3.41-3.5c-.37-.38-.59-.88-.59-1.45 0-1.13.9-2.05 2-2.05.54 0 1.05.23 1.42.61l.58.59.59-.6c.36-.37.87-.6 1.41-.6 1.1 0 2 .92 2 2.05 0 .56-.22 1.08-.58 1.45Z" transform="matrix(1.5 0 0 1.5 288 216)" id="mdi-folder-heart" fill="#555"/><path d="M20 6h-8l-2-2H4c-1.11 0-2 .89-2 2v12a2 2 0 0 0 2 2h16c1.1 0 2-.9 2-2V8c0-1.1-.9-2-2-2m-1.58 7.5L15 17l-3.41-3.5c-.37-.38-.59-.88-.59-1.45 0-1.13.9-2.05 2-2.05.54 0 1.05.23 1.42.61l.58.59.59-.6c.36-.37.87-.6 1.41-.6 1.1 0 2 .92 2 2.05 0 .56-.22 1.08-.58 1.45Z" transform="matrix(1.5 0 0 1.5 324 216)" id="mdi-folder-heart" fill="#fff"/><path d="M20 18H4V8h16m0-2h-8l-2-2H4c-1.11 0-2 .89-2 2v12c0 1.1.9 2 2 2h16c1.1 0 2-.9 2-2V8a2 2 0 0 0-2-2m-7 4c-1.1 0-2 .92-2 2.05 0 .57.22 1.07.59 1.45L15 17l3.42-3.5c.36-.37.58-.89.58-1.45 0-1.13-.9-2.05-2-2.05-.54 0-1.05.23-1.41.6l-.59.6-.58-.59A1.99 1.99 0 0 0 13 10Z" transform="matrix(1.5 0 0 1.5 360 216)" id="mdi-folder-heart-outline" fill="#555"/><path d="M20 18H4V8h16m0-2h-8l-2-2H4c-1.11 0-2 .89-2 2v12c0 1.1.9 2 2 2h16c1.1 0 2-.9 2-2V8a2 2 0 0 0-2-2m-7 4c-1.1 0-2 .92-2 2.05 0 .57.22 1.07.59 1.45L15 17l3.42-3.5c.36-.37.58-.89.58-1.45 0-1.13-.9-2.05-2-2.05-.54 0-1.05.23-1.41.6l-.59.6-.58-.59A1.99 1.99 0 0 0 13 10Z" transform="matrix(1.5 0 0 1.5 396 216)" id="mdi-folder-heart-outline" fill="#fff"/><path d="M9 4v4H6V4h3M4 16v-3H2v3h2m-2-4h2V9H2v3m16-4h4a2 2 0 0 0-2-2h-2v2m4 5h-2v3h2v-3m-2-4v3h2V9h-2M9 20v-2H6v2h3m-4-2H4v-1H2v1a2 2 0 0 0 2 2h1v-2m15-1v1h-2v2h2c1.11 0 2-.89 2-2v-1h-2M4 8h1V4H4c-1.11 0-2 .89-2 2v2h2m13 10h-3v2h3v-2m-4 0h-3v2h3v-2m4-12h-3v2h3V6m-7 2h3V6h-1l-2-2v4Z" transform="matrix(1.5 0 0 1.5 432 216)" id="mdi-folder-hidden" fill="#555"/><path d="M9 4v4H6V4h3M4 16v-3H2v3h2m-2-4h2V9H2v3m16-4h4a2 2 0 0 0-2-2h-2v2m4 5h-2v3h2v-3m-2-4v3h2V9h-2M9 20v-2H6v2h3m-4-2H4v-1H2v1a2 2 0 0 0 2 2h1v-2m15-1v1h-2v2h2c1.11 0 2-.89 2-2v-1h-2M4 8h1V4H4c-1.11 0-2 .89-2 2v2h2m13 10h-3v2h3v-2m-4 0h-3v2h3v-2m4-12h-3v2h3V6m-7 2h3V6h-1l-2-2v4Z" transform="matrix(1.5 0 0 1.5 468 216)" id="mdi-folder-hidden" fill="#fff"/><path d="M20 6h-8l-2-2H4a2 2 0 0 0-2 2v12a2 2 0 0 0 2 2h16a2 2 0 0 0 2-2V8a2 2 0 0 0-2-2m-3 7v4h-2v-3h-2v3h-2v-4H9l5-4 5 4Z" transform="matrix(1.5 0 0 1.5 504 216)" id="mdi-folder-home" fill="#555"/><path d="M20 6h-8l-2-2H4a2 2 0 0 0-2 2v12a2 2 0 0 0 2 2h16a2 2 0 0 0 2-2V8a2 2 0 0 0-2-2m-3 7v4h-2v-3h-2v3h-2v-4H9l5-4 5 4Z" transform="matrix(1.5 0 0 1.5 540 216)" id="mdi-folder-home" fill="#fff"/><path d="M20 6h-8l-2-2H4a2 2 0 0 0-2 2v12a2 2 0 0 0 2 2h16a2 2 0 0 0 2-2V8a2 2 0 0 0-2-2m0 12H4V8h16m-7 9v-3h2v3h2v-4h2l-5-4-5 4h2v4Z" transform="matrix(1.5 0 0 1.5 576 216)" id="mdi-folder-home-outline" fill="#555"/><path d="M20 6h-8l-2-2H4a2 2 0 0 0-2 2v12a2 2 0 0 0 2 2h16a2 2 0 0 0 2-2V8a2 2 0 0 0-2-2m0 12H4V8h16m-7 9v-3h2v3h2v-4h2l-5-4-5 4h2v4Z" transform="matrix(1.5 0 0 1.5 612 216)" id="mdi-folder-home-outline" fill="#fff"/><path d="m5 17 4.5-6 3.5 4.5 2.5-3L19 17m1-11h-8l-2-2H4a2 2 0 0 0-2 2v12a2 2 0 0 0 2 2h16a2 2 0 0 0 2-2V8a2 2 0 0 0-2-2Z" transform="matrix(1.5 0 0 1.5 648 216)" id="mdi-folder-image" fill="#555"/><path d="m5 17 4.5-6 3.5 4.5 2.5-3L19 17m1-11h-8l-2-2H4a2 2 0 0 0-2 2v12a2 2 0 0 0 2 2h16a2 2 0 0 0 2-2V8a2 2 0 0 0-2-2Z" transform="matrix(1.5 0 0 1.5 684 216)" id="mdi-folder-image" fill="#fff"/><path d="M21 11.1V8c0-1.1-.9-2-2-2h-8L9 4H3c-1.1 0-2 .9-2 2v12c0 1.1.9 2 2 2h7.3c1.3 1.9 3.5 3 5.7 3 3.9 0 7-3.1 7-7 0-1.8-.7-3.6-2-4.9M16 21c-2.8 0-5-2.2-5-5s2.2-5 5-5 5 2.2 5 5-2.2 5-5 5m1-1h-2v-5h2v5m0-6h-2v-2h2v2Z" transform="matrix(1.5 0 0 1.5 0 252)" id="mdi-folder-information" fill="#555"/><path d="M21 11.1V8c0-1.1-.9-2-2-2h-8L9 4H3c-1.1 0-2 .9-2 2v12c0 1.1.9 2 2 2h7.3c1.3 1.9 3.5 3 5.7 3 3.9 0 7-3.1 7-7 0-1.8-.7-3.6-2-4.9M16 21c-2.8 0-5-2.2-5-5s2.2-5 5-5 5 2.2 5 5-2.2 5-5 5m1-1h-2v-5h2v5m0-6h-2v-2h2v2Z" transform="matrix(1.5 0 0 1.5 36 252)" id="mdi-folder-information" fill="#fff"/><path d="M21 11.1V8c0-1.1-.9-2-2-2h-8L9 4H3c-1.1 0-2 .9-2 2v12c0 1.1.9 2 2 2h7.2c1.2 1.8 3.4 3 5.8 3 3.9 0 7-3.1 7-7 0-1.9-.8-3.6-2-4.9M9.3 18H3V8h16v1.7c-.9-.5-1.9-.7-3-.7-3.9 0-7 3.1-7 7 0 .7.1 1.4.3 2m6.7 3c-2.8 0-5-2.2-5-5s2.2-5 5-5 5 2.2 5 5-2.2 5-5 5m1-7h-2v-2h2v2m0 6h-2v-5h2v5Z" transform="matrix(1.5 0 0 1.5 72 252)" id="mdi-folder-information-outline" fill="#555"/><path d="M21 11.1V8c0-1.1-.9-2-2-2h-8L9 4H3c-1.1 0-2 .9-2 2v12c0 1.1.9 2 2 2h7.2c1.2 1.8 3.4 3 5.8 3 3.9 0 7-3.1 7-7 0-1.9-.8-3.6-2-4.9M9.3 18H3V8h16v1.7c-.9-.5-1.9-.7-3-.7-3.9 0-7 3.1-7 7 0 .7.1 1.4.3 2m6.7 3c-2.8 0-5-2.2-5-5s2.2-5 5-5 5 2.2 5 5-2.2 5-5 5m1-7h-2v-2h2v2m0 6h-2v-5h2v5Z" transform="matrix(1.5 0 0 1.5 108 252)" id="mdi-folder-information-outline" fill="#fff"/><path d="M4 4c-1.1 0-2 .9-2 2v12c0 1.1.9 2 2 2h16c1.1 0 2-.9 2-2V8c0-1.1-.9-2-2-2h-8l-2-2m1 6c1.3 0 2.4.8 2.8 2H20v2h-2v2h-2v-2h-2.2c-.4 1.2-1.5 2-2.8 2-1.7 0-3-1.3-3-3s1.3-3 3-3m0 2c-.6 0-1 .4-1 1s.4 1 1 1 1-.4 1-1-.4-1-1-1Z" transform="matrix(1.5 0 0 1.5 144 252)" id="mdi-folder-key" fill="#555"/><path d="M4 4c-1.1 0-2 .9-2 2v12c0 1.1.9 2 2 2h16c1.1 0 2-.9 2-2V8c0-1.1-.9-2-2-2h-8l-2-2m1 6c1.3 0 2.4.8 2.8 2H20v2h-2v2h-2v-2h-2.2c-.4 1.2-1.5 2-2.8 2-1.7 0-3-1.3-3-3s1.3-3 3-3m0 2c-.6 0-1 .4-1 1s.4 1 1 1 1-.4 1-1-.4-1-1-1Z" transform="matrix(1.5 0 0 1.5 180 252)" id="mdi-folder-key" fill="#fff"/><path d="M6 5c-1.1 0-2 .9-2 2v8c0 1.1.9 2 2 2h5v2h-1c-.6 0-1 .4-1 1H2v2h7c0 .6.4 1 1 1h4c.6 0 1-.4 1-1h7v-2h-7c0-.6-.4-1-1-1h-1v-2h5c1.1 0 2-.9 2-2V9c0-1.1-.9-2-2-2h-6l-2-2H6m3 4c1.3 0 2.4.8 2.8 2H18v2h-2v2h-2v-2h-2.2c-.4 1.2-1.5 2-2.8 2-1.7 0-3-1.3-3-3s1.3-3 3-3m0 2c-.6 0-1 .4-1 1s.4 1 1 1 1-.4 1-1-.4-1-1-1Z" transform="matrix(1.5 0 0 1.5 216 252)" id="mdi-folder-key-network" fill="#555"/><path d="M6 5c-1.1 0-2 .9-2 2v8c0 1.1.9 2 2 2h5v2h-1c-.6 0-1 .4-1 1H2v2h7c0 .6.4 1 1 1h4c.6 0 1-.4 1-1h7v-2h-7c0-.6-.4-1-1-1h-1v-2h5c1.1 0 2-.9 2-2V9c0-1.1-.9-2-2-2h-6l-2-2H6m3 4c1.3 0 2.4.8 2.8 2H18v2h-2v2h-2v-2h-2.2c-.4 1.2-1.5 2-2.8 2-1.7 0-3-1.3-3-3s1.3-3 3-3m0 2c-.6 0-1 .4-1 1s.4 1 1 1 1-.4 1-1-.4-1-1-1Z" transform="matrix(1.5 0 0 1.5 252 252)" id="mdi-folder-key-network" fill="#fff"/><path d="M9 8c-1.7 0-3 1.3-3 3s1.3 3 3 3c1.3 0 2.4-.8 2.8-2H14v2h2v-2h2v-2h-6.2c-.4-1.2-1.5-2-2.8-2m0 4c-.6 0-1-.4-1-1s.4-1 1-1 1 .4 1 1-.4 1-1 1m6 8c0-.5-.4-1-1-1h-1v-2h6c1.1 0 2-.9 2-2V7c0-1.1-.9-2-2-2h-6l-2-2H5c-1.1 0-2 .9-2 2v10c0 1.1.9 2 2 2h6v2h-1c-.6 0-1 .5-1 1H2v2h7c0 .5.4 1 1 1h4c.6 0 1-.5 1-1h7v-2h-7M5 15V7h14v8H5Z" transform="matrix(1.5 0 0 1.5 288 252)" id="mdi-folder-key-network-outline" fill="#555"/><path d="M9 8c-1.7 0-3 1.3-3 3s1.3 3 3 3c1.3 0 2.4-.8 2.8-2H14v2h2v-2h2v-2h-6.2c-.4-1.2-1.5-2-2.8-2m0 4c-.6 0-1-.4-1-1s.4-1 1-1 1 .4 1 1-.4 1-1 1m6 8c0-.5-.4-1-1-1h-1v-2h6c1.1 0 2-.9 2-2V7c0-1.1-.9-2-2-2h-6l-2-2H5c-1.1 0-2 .9-2 2v10c0 1.1.9 2 2 2h6v2h-1c-.6 0-1 .5-1 1H2v2h7c0 .5.4 1 1 1h4c.6 0 1-.5 1-1h7v-2h-7M5 15V7h14v8H5Z" transform="matrix(1.5 0 0 1.5 324 252)" id="mdi-folder-key-network-outline" fill="#fff"/><path d="M20 18H4V8h16m0-2h-8l-2-2H4c-1.1 0-2 .9-2 2v12c0 1.1.9 2 2 2h16c1.1 0 2-.9 2-2V8c0-1.1-.9-2-2-2m-7.2 6c-.4-1.2-1.5-2-2.8-2-1.7 0-3 1.3-3 3s1.3 3 3 3c1.3 0 2.4-.8 2.8-2H15v2h2v-2h2v-2h-6.2M10 14c-.6 0-1-.4-1-1s.4-1 1-1 1 .4 1 1-.4 1-1 1Z" transform="matrix(1.5 0 0 1.5 360 252)" id="mdi-folder-key-outline" fill="#555"/><path d="M20 18H4V8h16m0-2h-8l-2-2H4c-1.1 0-2 .9-2 2v12c0 1.1.9 2 2 2h16c1.1 0 2-.9 2-2V8c0-1.1-.9-2-2-2m-7.2 6c-.4-1.2-1.5-2-2.8-2-1.7 0-3 1.3-3 3s1.3 3 3 3c1.3 0 2.4-.8 2.8-2H15v2h2v-2h2v-2h-6.2M10 14c-.6 0-1-.4-1-1s.4-1 1-1 1 .4 1 1-.4 1-1 1Z" transform="matrix(1.5 0 0 1.5 396 252)" id="mdi-folder-key-outline" fill="#fff"/><path d="M20 6a2 2 0 0 1 2 2v10a2 2 0 0 1-2 2H4a2 2 0 0 1-2-2V6c0-1.11.89-2 2-2h6l2 2h8m-1 11v-4h-1v-1a3 3 0 0 0-3-3 3 3 0 0 0-3 3v1h-1v4h8m-4-6a1 1 0 0 1 1 1v1h-2v-1a1 1 0 0 1 1-1Z" transform="matrix(1.5 0 0 1.5 432 252)" id="mdi-folder-lock" fill="#555"/><path d="M20 6a2 2 0 0 1 2 2v10a2 2 0 0 1-2 2H4a2 2 0 0 1-2-2V6c0-1.11.89-2 2-2h6l2 2h8m-1 11v-4h-1v-1a3 3 0 0 0-3-3 3 3 0 0 0-3 3v1h-1v4h8m-4-6a1 1 0 0 1 1 1v1h-2v-1a1 1 0 0 1 1-1Z" transform="matrix(1.5 0 0 1.5 468 252)" id="mdi-folder-lock" fill="#fff"/><path d="M20 6a2 2 0 0 1 2 2v10a2 2 0 0 1-2 2H4a2 2 0 0 1-2-2V6c0-1.11.89-2 2-2h6l2 2h8m-1 11v-4h-5v-2a1 1 0 0 1 1-1 1 1 0 0 1 1 1h2a3 3 0 0 0-3-3 3 3 0 0 0-3 3v2h-1v4h8Z" transform="matrix(1.5 0 0 1.5 504 252)" id="mdi-folder-lock-open" fill="#555"/><path d="M20 6a2 2 0 0 1 2 2v10a2 2 0 0 1-2 2H4a2 2 0 0 1-2-2V6c0-1.11.89-2 2-2h6l2 2h8m-1 11v-4h-5v-2a1 1 0 0 1 1-1 1 1 0 0 1 1 1h2a3 3 0 0 0-3-3 3 3 0 0 0-3 3v2h-1v4h8Z" transform="matrix(1.5 0 0 1.5 540 252)" id="mdi-folder-lock-open" fill="#fff"/><path d="m10 4 2 2h8a2 2 0 0 1 2 2v3.34c-.96-.84-2.18-1.34-3.5-1.34-3 0-5.5 2.65-5.5 5.5 0 1.47.65 3.05 1.5 4.5H4a2 2 0 0 1-2-2V6c0-1.11.89-2 2-2h6m8.5 8c1.9 0 3.5 1.6 3.5 3.5 0 2.6-3.5 6.5-3.5 6.5S15 18.1 15 15.5c0-1.9 1.6-3.5 3.5-3.5m0 4.8c.7 0 1.3-.6 1.2-1.2 0-.6-.6-1.2-1.2-1.2s-1.2.5-1.2 1.2c0 .6.5 1.2 1.2 1.2Z" transform="matrix(1.5 0 0 1.5 576 252)" id="mdi-folder-marker" fill="#555"/><path d="m10 4 2 2h8a2 2 0 0 1 2 2v3.34c-.96-.84-2.18-1.34-3.5-1.34-3 0-5.5 2.65-5.5 5.5 0 1.47.65 3.05 1.5 4.5H4a2 2 0 0 1-2-2V6c0-1.11.89-2 2-2h6m8.5 8c1.9 0 3.5 1.6 3.5 3.5 0 2.6-3.5 6.5-3.5 6.5S15 18.1 15 15.5c0-1.9 1.6-3.5 3.5-3.5m0 4.8c.7 0 1.3-.6 1.2-1.2 0-.6-.6-1.2-1.2-1.2s-1.2.5-1.2 1.2c0 .6.5 1.2 1.2 1.2Z" transform="matrix(1.5 0 0 1.5 612 252)" id="mdi-folder-marker" fill="#fff"/><path d="M18.5 12c1.9 0 3.5 1.6 3.5 3.5 0 2.6-3.5 6.5-3.5 6.5S15 18.1 15 15.5c0-1.9 1.6-3.5 3.5-3.5m0 4.8c.7 0 1.3-.6 1.2-1.2 0-.6-.6-1.2-1.2-1.2s-1.2.5-1.2 1.2c0 .6.5 1.2 1.2 1.2M20 8H4v10h9.5c.29.68.63 1.35 1 2H4a2 2 0 0 1-2-2V6c0-1.11.89-2 2-2h6l2 2h8a2 2 0 0 1 2 2v3.34c-.58-.5-1.26-.89-2-1.11V8Z" transform="matrix(1.5 0 0 1.5 648 252)" id="mdi-folder-marker-outline" fill="#555"/><path d="M18.5 12c1.9 0 3.5 1.6 3.5 3.5 0 2.6-3.5 6.5-3.5 6.5S15 18.1 15 15.5c0-1.9 1.6-3.5 3.5-3.5m0 4.8c.7 0 1.3-.6 1.2-1.2 0-.6-.6-1.2-1.2-1.2s-1.2.5-1.2 1.2c0 .6.5 1.2 1.2 1.2M20 8H4v10h9.5c.29.68.63 1.35 1 2H4a2 2 0 0 1-2-2V6c0-1.11.89-2 2-2h6l2 2h8a2 2 0 0 1 2 2v3.34c-.58-.5-1.26-.89-2-1.11V8Z" transform="matrix(1.5 0 0 1.5 684 252)" id="mdi-folder-marker-outline" fill="#fff"/><path d="M14 18v-3h-4v-4h4V8l5 5m1-7h-8l-2-2H4c-1.11 0-2 .89-2 2v12a2 2 0 0 0 2 2h16a2 2 0 0 0 2-2V8a2 2 0 0 0-2-2Z" transform="matrix(1.5 0 0 1.5 0 288)" id="mdi-folder-move" fill="#555"/><path d="M14 18v-3h-4v-4h4V8l5 5m1-7h-8l-2-2H4c-1.11 0-2 .89-2 2v12a2 2 0 0 0 2 2h16a2 2 0 0 0 2-2V8a2 2 0 0 0-2-2Z" transform="matrix(1.5 0 0 1.5 36 288)" id="mdi-folder-move" fill="#fff"/><path d="M20 18H4V8h16v10M12 6l-2-2H4a2 2 0 0 0-2 2v12a2 2 0 0 0 2 2h16c1.11 0 2-.89 2-2V8a2 2 0 0 0-2-2h-8m-1 8v-2h4V9l4 4-4 4v-3h-4Z" transform="matrix(1.5 0 0 1.5 72 288)" id="mdi-folder-move-outline" fill="#555"/><path d="M20 18H4V8h16v10M12 6l-2-2H4a2 2 0 0 0-2 2v12a2 2 0 0 0 2 2h16c1.11 0 2-.89 2-2V8a2 2 0 0 0-2-2h-8m-1 8v-2h4V9l4 4-4 4v-3h-4Z" transform="matrix(1.5 0 0 1.5 108 288)" id="mdi-folder-move-outline" fill="#fff"/><path d="M22 4h-8l-2-2H6a2 2 0 0 0-2 2v12a2 2 0 0 0 2 2h16a2 2 0 0 0 2-2V6a2 2 0 0 0-2-2M2 6H0v14a2 2 0 0 0 2 2h18v-2H2V6Z" transform="matrix(1.5 0 0 1.5 144 288)" id="mdi-folder-multiple" fill="#555"/><path d="M22 4h-8l-2-2H6a2 2 0 0 0-2 2v12a2 2 0 0 0 2 2h16a2 2 0 0 0 2-2V6a2 2 0 0 0-2-2M2 6H0v14a2 2 0 0 0 2 2h18v-2H2V6Z" transform="matrix(1.5 0 0 1.5 180 288)" id="mdi-folder-multiple" fill="#fff"/><path d="m7 15 4.5-6 3.5 4.5 2.5-3L21 15m1-11h-8l-2-2H6a2 2 0 0 0-2 2v12a2 2 0 0 0 2 2h16a2 2 0 0 0 2-2V6a2 2 0 0 0-2-2M2 6H0v14a2 2 0 0 0 2 2h18v-2H2V6Z" transform="matrix(1.5 0 0 1.5 216 288)" id="mdi-folder-multiple-image" fill="#555"/><path d="m7 15 4.5-6 3.5 4.5 2.5-3L21 15m1-11h-8l-2-2H6a2 2 0 0 0-2 2v12a2 2 0 0 0 2 2h16a2 2 0 0 0 2-2V6a2 2 0 0 0-2-2M2 6H0v14a2 2 0 0 0 2 2h18v-2H2V6Z" transform="matrix(1.5 0 0 1.5 252 288)" id="mdi-folder-multiple-image" fill="#fff"/><path d="M22 4a2 2 0 0 1 2 2v10a2 2 0 0 1-2 2H6a2 2 0 0 1-2-2V4a2 2 0 0 1 2-2h6l2 2h8M2 6v14h18v2H2a2 2 0 0 1-2-2V6h2m4 0v10h16V6H6Z" transform="matrix(1.5 0 0 1.5 288 288)" id="mdi-folder-multiple-outline" fill="#555"/><path d="M22 4a2 2 0 0 1 2 2v10a2 2 0 0 1-2 2H6a2 2 0 0 1-2-2V4a2 2 0 0 1 2-2h6l2 2h8M2 6v14h18v2H2a2 2 0 0 1-2-2V6h2m4 0v10h16V6H6Z" transform="matrix(1.5 0 0 1.5 324 288)" id="mdi-folder-multiple-outline" fill="#fff"/><path d="M2 20V6H0v14c0 1.1.9 2 2 2h18v-2H2M22 4h-8l-2-2H6c-.4 0-.8.1-1.1.3l-.6.6c-.2.3-.3.7-.3 1.1v12c0 .4.1.8.3 1.1.1.1.2.2.2.3.5.4 1 .6 1.5.6h16c1.1 0 2-.9 2-2V6c0-1.1-.9-2-2-2m0 8h-3v3h-2v-3h-3v-2h3V7h2v3h3v2Z" transform="matrix(1.5 0 0 1.5 360 288)" id="mdi-folder-multiple-plus" fill="#555"/><path d="M2 20V6H0v14c0 1.1.9 2 2 2h18v-2H2M22 4h-8l-2-2H6c-.4 0-.8.1-1.1.3l-.6.6c-.2.3-.3.7-.3 1.1v12c0 .4.1.8.3 1.1.1.1.2.2.2.3.5.4 1 .6 1.5.6h16c1.1 0 2-.9 2-2V6c0-1.1-.9-2-2-2m0 8h-3v3h-2v-3h-3v-2h3V7h2v3h3v2Z" transform="matrix(1.5 0 0 1.5 396 288)" id="mdi-folder-multiple-plus" fill="#fff"/><path d="M22 4c1.1 0 2 .9 2 2v10c0 1.1-.9 2-2 2H6c-1.1 0-2-.9-2-2V4c0-1.1.9-2 2-2h6l2 2h8M2 6v14h18v2H2c-1.1 0-2-.9-2-2V6h2m4 0v10h16V6H6m8 4h2V8h2v2h2v2h-2v2h-2v-2h-2v-2Z" transform="matrix(1.5 0 0 1.5 432 288)" id="mdi-folder-multiple-plus-outline" fill="#555"/><path d="M22 4c1.1 0 2 .9 2 2v10c0 1.1-.9 2-2 2H6c-1.1 0-2-.9-2-2V4c0-1.1.9-2 2-2h6l2 2h8M2 6v14h18v2H2c-1.1 0-2-.9-2-2V6h2m4 0v10h16V6H6m8 4h2V8h2v2h2v2h-2v2h-2v-2h-2v-2Z" transform="matrix(1.5 0 0 1.5 468 288)" id="mdi-folder-multiple-plus-outline" fill="#fff"/><path d="m10 4 2 2h8a2 2 0 0 1 2 2v10c0 1.1-.9 2-2 2H4a2 2 0 0 1-2-2V6c0-1.11.89-2 2-2h6m9 5h-3.5v4.06L15 13a2 2 0 1 0 0 4c1.11 0 2-.89 2-2v-4h2V9Z" transform="matrix(1.5 0 0 1.5 504 288)" id="mdi-folder-music" fill="#555"/><path d="m10 4 2 2h8a2 2 0 0 1 2 2v10c0 1.1-.9 2-2 2H4a2 2 0 0 1-2-2V6c0-1.11.89-2 2-2h6m9 5h-3.5v4.06L15 13a2 2 0 1 0 0 4c1.11 0 2-.89 2-2v-4h2V9Z" transform="matrix(1.5 0 0 1.5 540 288)" id="mdi-folder-music" fill="#fff"/><path d="M20 18V8H4v10h16m0-12a2 2 0 0 1 2 2v10c0 1.1-.9 2-2 2H4a2 2 0 0 1-2-2V6c0-1.11.89-2 2-2h6l2 2h8m-2 3v2h-2v4c0 1.11-.89 2-2 2a2 2 0 1 1 0-4c.17 0 .34 0 .5.06V9H18Z" transform="matrix(1.5 0 0 1.5 576 288)" id="mdi-folder-music-outline" fill="#555"/><path d="M20 18V8H4v10h16m0-12a2 2 0 0 1 2 2v10c0 1.1-.9 2-2 2H4a2 2 0 0 1-2-2V6c0-1.11.89-2 2-2h6l2 2h8m-2 3v2h-2v4c0 1.11-.89 2-2 2a2 2 0 1 1 0-4c.17 0 .34 0 .5.06V9H18Z" transform="matrix(1.5 0 0 1.5 612 288)" id="mdi-folder-music-outline" fill="#fff"/><path d="M3 15V5a2 2 0 0 1 2-2h6l2 2h6a2 2 0 0 1 2 2v8a2 2 0 0 1-2 2h-6v2h1a1 1 0 0 1 1 1h7v2h-7a1 1 0 0 1-1 1h-4a1 1 0 0 1-1-1H2v-2h7a1 1 0 0 1 1-1h1v-2H5a2 2 0 0 1-2-2Z" transform="matrix(1.5 0 0 1.5 648 288)" id="mdi-folder-network" fill="#555"/><path d="M3 15V5a2 2 0 0 1 2-2h6l2 2h6a2 2 0 0 1 2 2v8a2 2 0 0 1-2 2h-6v2h1a1 1 0 0 1 1 1h7v2h-7a1 1 0 0 1-1 1h-4a1 1 0 0 1-1-1H2v-2h7a1 1 0 0 1 1-1h1v-2H5a2 2 0 0 1-2-2Z" transform="matrix(1.5 0 0 1.5 684 288)" id="mdi-folder-network" fill="#fff"/><path d="M15 20c0-.55-.45-1-1-1h-1v-2h6c1.11 0 2-.89 2-2V7a2 2 0 0 0-2-2h-6l-2-2H5c-1.1 0-2 .9-2 2v10a2 2 0 0 0 2 2h6v2h-1c-.55 0-1 .45-1 1H2v2h7c0 .55.45 1 1 1h4c.55 0 1-.45 1-1h7v-2h-7M5 15V7h14v8H5Z" transform="matrix(1.5 0 0 1.5 0 324)" id="mdi-folder-network-outline" fill="#555"/><path d="M15 20c0-.55-.45-1-1-1h-1v-2h6c1.11 0 2-.89 2-2V7a2 2 0 0 0-2-2h-6l-2-2H5c-1.1 0-2 .9-2 2v10a2 2 0 0 0 2 2h6v2h-1c-.55 0-1 .45-1 1H2v2h7c0 .55.45 1 1 1h4c.55 0 1-.45 1-1h7v-2h-7M5 15V7h14v8H5Z" transform="matrix(1.5 0 0 1.5 36 324)" id="mdi-folder-network-outline" fill="#fff"/><path d="M19 20H4a2 2 0 0 1-2-2V6c0-1.11.89-2 2-2h6l2 2h7a2 2 0 0 1 2 2H4v10l2.14-8h17.07l-2.28 8.5c-.23.87-1.01 1.5-1.93 1.5Z" transform="matrix(1.5 0 0 1.5 72 324)" id="mdi-folder-open" fill="#555"/><path d="M19 20H4a2 2 0 0 1-2-2V6c0-1.11.89-2 2-2h6l2 2h7a2 2 0 0 1 2 2H4v10l2.14-8h17.07l-2.28 8.5c-.23.87-1.01 1.5-1.93 1.5Z" transform="matrix(1.5 0 0 1.5 108 324)" id="mdi-folder-open" fill="#fff"/><path d="M6.1 10 4 18V8h17a2 2 0 0 0-2-2h-7l-2-2H4a2 2 0 0 0-2 2v12a2 2 0 0 0 2 2h15c.9 0 1.7-.6 1.9-1.5l2.3-8.5H6.1M19 18H6l1.6-6h13L19 18Z" transform="matrix(1.5 0 0 1.5 144 324)" id="mdi-folder-open-outline" fill="#555"/><path d="M6.1 10 4 18V8h17a2 2 0 0 0-2-2h-7l-2-2H4a2 2 0 0 0-2 2v12a2 2 0 0 0 2 2h15c.9 0 1.7-.6 1.9-1.5l2.3-8.5H6.1M19 18H6l1.6-6h13L19 18Z" transform="matrix(1.5 0 0 1.5 180 324)" id="mdi-folder-open-outline" fill="#fff"/><path d="M20 18H4V8h16m0-2h-8l-2-2H4c-1.11 0-2 .89-2 2v12a2 2 0 0 0 2 2h16a2 2 0 0 0 2-2V8a2 2 0 0 0-2-2Z" transform="matrix(1.5 0 0 1.5 216 324)" id="mdi-folder-outline" fill="#555"/><path d="M20 18H4V8h16m0-2h-8l-2-2H4c-1.11 0-2 .89-2 2v12a2 2 0 0 0 2 2h16a2 2 0 0 0 2-2V8a2 2 0 0 0-2-2Z" transform="matrix(1.5 0 0 1.5 252 324)" id="mdi-folder-outline" fill="#fff"/><path d="m10 4 2 2h8a2 2 0 0 1 2 2v10a2 2 0 0 1-2 2H4a2 2 0 0 1-2-2V6c0-1.11.89-2 2-2h6m5 5v3h-3v2h3v3h2v-3h3v-2h-3V9h-2Z" transform="matrix(1.5 0 0 1.5 288 324)" id="mdi-folder-plus" fill="#555"/><path d="m10 4 2 2h8a2 2 0 0 1 2 2v10a2 2 0 0 1-2 2H4a2 2 0 0 1-2-2V6c0-1.11.89-2 2-2h6m5 5v3h-3v2h3v3h2v-3h3v-2h-3V9h-2Z" transform="matrix(1.5 0 0 1.5 324 324)" id="mdi-folder-plus" fill="#fff"/><path d="M12 12h2v-2h2v2h2v2h-2v2h-2v-2h-2v-2m10-4v10c0 1.11-.89 2-2 2H4c-1.11 0-2-.89-2-2V6c0-1.11.89-2 2-2h6l2 2h8c1.11 0 2 .89 2 2m-2 0H4v10h16V8Z" transform="matrix(1.5 0 0 1.5 360 324)" id="mdi-folder-plus-outline" fill="#555"/><path d="M12 12h2v-2h2v2h2v2h-2v2h-2v-2h-2v-2m10-4v10c0 1.11-.89 2-2 2H4c-1.11 0-2-.89-2-2V6c0-1.11.89-2 2-2h6l2 2h8c1.11 0 2 .89 2 2m-2 0H4v10h16V8Z" transform="matrix(1.5 0 0 1.5 396 324)" id="mdi-folder-plus-outline" fill="#fff"/><path d="M15.25 13h2l-.5 2h-2l.5-2M22 8v10a2 2 0 0 1-2 2H4a2 2 0 0 1-2-2V6c0-1.11.89-2 2-2h6l2 2h8a2 2 0 0 1 2 2m-2 4h-1.5l.5-2h-1l-.5 2h-2l.5-2h-1l-.5 2H13v1h1.25l-.5 2H12v1h1.5l-.5 2h1l.5-2h2l-.5 2h1l.5-2H19v-1h-1.25l.5-2H20v-1Z" transform="matrix(1.5 0 0 1.5 432 324)" id="mdi-folder-pound" fill="#555"/><path d="M15.25 13h2l-.5 2h-2l.5-2M22 8v10a2 2 0 0 1-2 2H4a2 2 0 0 1-2-2V6c0-1.11.89-2 2-2h6l2 2h8a2 2 0 0 1 2 2m-2 4h-1.5l.5-2h-1l-.5 2h-2l.5-2h-1l-.5 2H13v1h1.25l-.5 2H12v1h1.5l-.5 2h1l.5-2h2l-.5 2h1l.5-2H19v-1h-1.25l.5-2H20v-1Z" transform="matrix(1.5 0 0 1.5 468 324)" id="mdi-folder-pound" fill="#fff"/><path d="M20 18H4V8h16m0-2h-8l-2-2H4c-1.11 0-2 .89-2 2v12a2 2 0 0 0 2 2h16a2 2 0 0 0 2-2V8a2 2 0 0 0-2-2m-1 6v-1h-1.5l.5-2h-1l-.5 2h-2l.5-2h-1l-.5 2H12v1h1.25l-.5 2H11v1h1.5l-.5 2h1l.5-2h2l-.5 2h1l.5-2H18v-1h-1.25l.5-2H19m-3.25 2h-2l.5-2h2l-.5 2Z" transform="matrix(1.5 0 0 1.5 504 324)" id="mdi-folder-pound-outline" fill="#555"/><path d="M20 18H4V8h16m0-2h-8l-2-2H4c-1.11 0-2 .89-2 2v12a2 2 0 0 0 2 2h16a2 2 0 0 0 2-2V8a2 2 0 0 0-2-2m-1 6v-1h-1.5l.5-2h-1l-.5 2h-2l.5-2h-1l-.5 2H12v1h1.25l-.5 2H11v1h1.5l-.5 2h1l.5-2h2l-.5 2h1l.5-2H18v-1h-1.25l.5-2H19m-3.25 2h-2l.5-2h2l-.5 2Z" transform="matrix(1.5 0 0 1.5 540 324)" id="mdi-folder-pound-outline" fill="#fff"/><path d="M18 14.5c1.11 0 2.11.45 2.83 1.17L22 14.5v4h-4l1.77-1.77A2.5 2.5 0 1 0 20 20h1.71A3.991 3.991 0 0 1 18 22.5c-2.21 0-4-1.79-4-4s1.79-4 4-4M10 4l2 2h8a2 2 0 0 1 2 2v5c-1-.62-2.21-1-3.5-1a6.5 6.5 0 0 0-6.5 6.5c0 .5.06 1 .17 1.5H4a2 2 0 0 1-2-2V6c0-1.11.89-2 2-2h6Z" transform="matrix(1.5 0 0 1.5 576 324)" id="mdi-folder-refresh" fill="#555"/><path d="M18 14.5c1.11 0 2.11.45 2.83 1.17L22 14.5v4h-4l1.77-1.77A2.5 2.5 0 1 0 20 20h1.71A3.991 3.991 0 0 1 18 22.5c-2.21 0-4-1.79-4-4s1.79-4 4-4M10 4l2 2h8a2 2 0 0 1 2 2v5c-1-.62-2.21-1-3.5-1a6.5 6.5 0 0 0-6.5 6.5c0 .5.06 1 .17 1.5H4a2 2 0 0 1-2-2V6c0-1.11.89-2 2-2h6Z" transform="matrix(1.5 0 0 1.5 612 324)" id="mdi-folder-refresh" fill="#fff"/><path d="M18 14.5c1.11 0 2.11.45 2.83 1.17L22 14.5v4h-4l1.77-1.77A2.5 2.5 0 1 0 20 20h1.71A3.991 3.991 0 0 1 18 22.5c-2.21 0-4-1.79-4-4s1.79-4 4-4M20 8H4v10h8v.5c0 .5.06 1 .17 1.5H4a2 2 0 0 1-2-2V6c0-1.11.89-2 2-2h6l2 2h8a2 2 0 0 1 2 2v5a6.93 6.93 0 0 0-2-.83V8Z" transform="matrix(1.5 0 0 1.5 648 324)" id="mdi-folder-refresh-outline" fill="#555"/><path d="M18 14.5c1.11 0 2.11.45 2.83 1.17L22 14.5v4h-4l1.77-1.77A2.5 2.5 0 1 0 20 20h1.71A3.991 3.991 0 0 1 18 22.5c-2.21 0-4-1.79-4-4s1.79-4 4-4M20 8H4v10h8v.5c0 .5.06 1 .17 1.5H4a2 2 0 0 1-2-2V6c0-1.11.89-2 2-2h6l2 2h8a2 2 0 0 1 2 2v5a6.93 6.93 0 0 0-2-.83V8Z" transform="matrix(1.5 0 0 1.5 684 324)" id="mdi-folder-refresh-outline" fill="#fff"/></svg>