<?xml version="1.0" encoding="UTF-8"?>
<!DOCTYPE svg PUBLIC "-//W3C//DTD SVG 1.1//EN" "http://www.w3.org/Graphics/SVG/1.1/DTD/svg11.dtd"><svg
  xmlns="http://www.w3.org/2000/svg" xmlns:xlink="http://www.w3.org/1999/xlink" version="1.1"
  width="720" height="900" viewBox="0 0 720 900">
    <g id="mdi-check-network-outline" transform="translate(0 0) scale(1.5)" fill="#555">
      <path d="M15,20A1,1 0 0,0 14,19H13V17H17A2,2 0 0,0 19,15V5A2,2 0 0,0 17,3H7A2,2 0 0,0 5,5V15A2,2 0 0,0 7,17H11V19H10A1,1 0 0,0 9,20H2V22H9A1,1 0 0,0 10,23H14A1,1 0 0,0 15,22H22V20H15M7,15V5H17V15H7M8,10.37L9.24,9.13L10.93,10.83L14.76,7L16,8.5L10.93,13.57L8,10.37Z" />
    </g>
    <g id="mdi-check-network-outline" transform="translate(36 0) scale(1.5)" fill="#fff">
      <path d="M15,20A1,1 0 0,0 14,19H13V17H17A2,2 0 0,0 19,15V5A2,2 0 0,0 17,3H7A2,2 0 0,0 5,5V15A2,2 0 0,0 7,17H11V19H10A1,1 0 0,0 9,20H2V22H9A1,1 0 0,0 10,23H14A1,1 0 0,0 15,22H22V20H15M7,15V5H17V15H7M8,10.37L9.24,9.13L10.93,10.83L14.76,7L16,8.5L10.93,13.57L8,10.37Z" />
    </g>
    <g id="mdi-check-outline" transform="translate(72 0) scale(1.5)" fill="#555">
      <path d="M19.78,2.2L24,6.42L8.44,22L0,13.55L4.22,9.33L8.44,13.55L19.78,2.2M19.78,5L8.44,16.36L4.22,12.19L2.81,13.55L8.44,19.17L21.19,6.42L19.78,5Z" />
    </g>
    <g id="mdi-check-outline" transform="translate(108 0) scale(1.5)" fill="#fff">
      <path d="M19.78,2.2L24,6.42L8.44,22L0,13.55L4.22,9.33L8.44,13.55L19.78,2.2M19.78,5L8.44,16.36L4.22,12.19L2.81,13.55L8.44,19.17L21.19,6.42L19.78,5Z" />
    </g>
    <g id="mdi-check-underline" transform="translate(144 0) scale(1.5)" fill="#555">
      <path d="M21,5L9,17L3.5,11.5L4.91,10.09L9,14.17L19.59,3.59L21,5M3,21V19H21V21H3Z" />
    </g>
    <g id="mdi-check-underline" transform="translate(180 0) scale(1.5)" fill="#fff">
      <path d="M21,5L9,17L3.5,11.5L4.91,10.09L9,14.17L19.59,3.59L21,5M3,21V19H21V21H3Z" />
    </g>
    <g id="mdi-check-underline-circle" transform="translate(216 0) scale(1.5)" fill="#555">
      <path d="M12,2A10,10 0 0,0 2,12A10,10 0 0,0 12,22A10,10 0 0,0 22,12A10,10 0 0,0 12,2M17,18H7V16H17V18M10.3,14L7,10.7L8.4,9.3L10.3,11.2L15.6,5.9L17,7.3L10.3,14Z" />
    </g>
    <g id="mdi-check-underline-circle" transform="translate(252 0) scale(1.5)" fill="#fff">
      <path d="M12,2A10,10 0 0,0 2,12A10,10 0 0,0 12,22A10,10 0 0,0 22,12A10,10 0 0,0 12,2M17,18H7V16H17V18M10.3,14L7,10.7L8.4,9.3L10.3,11.2L15.6,5.9L17,7.3L10.3,14Z" />
    </g>
    <g id="mdi-check-underline-circle-outline" transform="translate(288 0) scale(1.5)" fill="#555">
      <path d="M12,2A10,10 0 0,0 2,12A10,10 0 0,0 12,22A10,10 0 0,0 22,12A10,10 0 0,0 12,2M12,20C7.59,20 4,16.41 4,12C4,7.59 7.59,4 12,4C16.41,4 20,7.59 20,12C20,16.41 16.41,20 12,20M7,15H17V17H7V15M10.3,11.2L8.4,9.3L7,10.7L10.3,14L17,7.3L15.6,5.9L10.3,11.2Z" />
    </g>
    <g id="mdi-check-underline-circle-outline" transform="translate(324 0) scale(1.5)" fill="#fff">
      <path d="M12,2A10,10 0 0,0 2,12A10,10 0 0,0 12,22A10,10 0 0,0 22,12A10,10 0 0,0 12,2M12,20C7.59,20 4,16.41 4,12C4,7.59 7.59,4 12,4C16.41,4 20,7.59 20,12C20,16.41 16.41,20 12,20M7,15H17V17H7V15M10.3,11.2L8.4,9.3L7,10.7L10.3,14L17,7.3L15.6,5.9L10.3,11.2Z" />
    </g>
    <g id="mdi-checkbook" transform="translate(360 0) scale(1.5)" fill="#555">
      <path d="M5,14H19V15H5V14M21,17V8H3V17H21M1,5H23V19H1V5M5,10H12V12H5V10Z" />
    </g>
    <g id="mdi-checkbook" transform="translate(396 0) scale(1.5)" fill="#fff">
      <path d="M5,14H19V15H5V14M21,17V8H3V17H21M1,5H23V19H1V5M5,10H12V12H5V10Z" />
    </g>
    <g id="mdi-checkbox-blank" transform="translate(432 0) scale(1.5)" fill="#555">
      <path d="M19,3H5C3.89,3 3,3.89 3,5V19A2,2 0 0,0 5,21H19A2,2 0 0,0 21,19V5C21,3.89 20.1,3 19,3Z" />
    </g>
    <g id="mdi-checkbox-blank" transform="translate(468 0) scale(1.5)" fill="#fff">
      <path d="M19,3H5C3.89,3 3,3.89 3,5V19A2,2 0 0,0 5,21H19A2,2 0 0,0 21,19V5C21,3.89 20.1,3 19,3Z" />
    </g>
    <g id="mdi-checkbox-blank-circle" transform="translate(504 0) scale(1.5)" fill="#555">
      <path d="M12,2A10,10 0 0,0 2,12A10,10 0 0,0 12,22A10,10 0 0,0 22,12A10,10 0 0,0 12,2Z" />
    </g>
    <g id="mdi-checkbox-blank-circle" transform="translate(540 0) scale(1.5)" fill="#fff">
      <path d="M12,2A10,10 0 0,0 2,12A10,10 0 0,0 12,22A10,10 0 0,0 22,12A10,10 0 0,0 12,2Z" />
    </g>
    <g id="mdi-checkbox-blank-circle-outline" transform="translate(576 0) scale(1.5)" fill="#555">
      <path d="M12,20A8,8 0 0,1 4,12A8,8 0 0,1 12,4A8,8 0 0,1 20,12A8,8 0 0,1 12,20M12,2A10,10 0 0,0 2,12A10,10 0 0,0 12,22A10,10 0 0,0 22,12A10,10 0 0,0 12,2Z" />
    </g>
    <g id="mdi-checkbox-blank-circle-outline" transform="translate(612 0) scale(1.5)" fill="#fff">
      <path d="M12,20A8,8 0 0,1 4,12A8,8 0 0,1 12,4A8,8 0 0,1 20,12A8,8 0 0,1 12,20M12,2A10,10 0 0,0 2,12A10,10 0 0,0 12,22A10,10 0 0,0 22,12A10,10 0 0,0 12,2Z" />
    </g>
    <g id="mdi-checkbox-blank-off" transform="translate(648 0) scale(1.5)" fill="#555">
      <path d="M20.84 22.73L19.1 21C19.06 21 19.03 21 19 21H5C3.9 21 3 20.11 3 19V5C3 4.97 3 4.94 3 4.9L1.11 3L2.39 1.73L22.11 21.46L20.84 22.73M21 5C21 3.89 20.1 3 19 3H6.2L21 17.8V5Z" />
    </g>
    <g id="mdi-checkbox-blank-off" transform="translate(684 0) scale(1.5)" fill="#fff">
      <path d="M20.84 22.73L19.1 21C19.06 21 19.03 21 19 21H5C3.9 21 3 20.11 3 19V5C3 4.97 3 4.94 3 4.9L1.11 3L2.39 1.73L22.11 21.46L20.84 22.73M21 5C21 3.89 20.1 3 19 3H6.2L21 17.8V5Z" />
    </g>
    <g id="mdi-checkbox-blank-off-outline" transform="translate(0 36) scale(1.5)" fill="#555">
      <path d="M22.11 21.46L2.39 1.73L1.11 3L3 4.9V19C3 20.11 3.9 21 5 21H19.1L20.84 22.73L22.11 21.46M5 19V6.89L17.11 19H5M8.2 5L6.2 3H19C20.1 3 21 3.89 21 5V17.8L19 15.8V5H8.2Z" />
    </g>
    <g id="mdi-checkbox-blank-off-outline" transform="translate(36 36) scale(1.5)" fill="#fff">
      <path d="M22.11 21.46L2.39 1.73L1.11 3L3 4.9V19C3 20.11 3.9 21 5 21H19.1L20.84 22.73L22.11 21.46M5 19V6.89L17.11 19H5M8.2 5L6.2 3H19C20.1 3 21 3.89 21 5V17.8L19 15.8V5H8.2Z" />
    </g>
    <g id="mdi-checkbox-blank-outline" transform="translate(72 36) scale(1.5)" fill="#555">
      <path d="M19,3H5C3.89,3 3,3.89 3,5V19A2,2 0 0,0 5,21H19A2,2 0 0,0 21,19V5C21,3.89 20.1,3 19,3M19,5V19H5V5H19Z" />
    </g>
    <g id="mdi-checkbox-blank-outline" transform="translate(108 36) scale(1.5)" fill="#fff">
      <path d="M19,3H5C3.89,3 3,3.89 3,5V19A2,2 0 0,0 5,21H19A2,2 0 0,0 21,19V5C21,3.89 20.1,3 19,3M19,5V19H5V5H19Z" />
    </g>
    <g id="mdi-checkbox-intermediate" transform="translate(144 36) scale(1.5)" fill="#555">
      <path d="M19,3H5A2,2 0 0,0 3,5V19A2,2 0 0,0 5,21H19A2,2 0 0,0 21,19V5A2,2 0 0,0 19,3M19,19H5V5H19V19M17,17H7V7H17V17Z" />
    </g>
    <g id="mdi-checkbox-intermediate" transform="translate(180 36) scale(1.5)" fill="#fff">
      <path d="M19,3H5A2,2 0 0,0 3,5V19A2,2 0 0,0 5,21H19A2,2 0 0,0 21,19V5A2,2 0 0,0 19,3M19,19H5V5H19V19M17,17H7V7H17V17Z" />
    </g>
    <g id="mdi-checkbox-marked" transform="translate(216 36) scale(1.5)" fill="#555">
      <path d="M10,17L5,12L6.41,10.58L10,14.17L17.59,6.58L19,8M19,3H5C3.89,3 3,3.89 3,5V19A2,2 0 0,0 5,21H19A2,2 0 0,0 21,19V5C21,3.89 20.1,3 19,3Z" />
    </g>
    <g id="mdi-checkbox-marked" transform="translate(252 36) scale(1.5)" fill="#fff">
      <path d="M10,17L5,12L6.41,10.58L10,14.17L17.59,6.58L19,8M19,3H5C3.89,3 3,3.89 3,5V19A2,2 0 0,0 5,21H19A2,2 0 0,0 21,19V5C21,3.89 20.1,3 19,3Z" />
    </g>
    <g id="mdi-checkbox-marked-circle" transform="translate(288 36) scale(1.5)" fill="#555">
      <path d="M10,17L5,12L6.41,10.58L10,14.17L17.59,6.58L19,8M12,2A10,10 0 0,0 2,12A10,10 0 0,0 12,22A10,10 0 0,0 22,12A10,10 0 0,0 12,2Z" />
    </g>
    <g id="mdi-checkbox-marked-circle" transform="translate(324 36) scale(1.5)" fill="#fff">
      <path d="M10,17L5,12L6.41,10.58L10,14.17L17.59,6.58L19,8M12,2A10,10 0 0,0 2,12A10,10 0 0,0 12,22A10,10 0 0,0 22,12A10,10 0 0,0 12,2Z" />
    </g>
    <g id="mdi-checkbox-marked-circle-outline" transform="translate(360 36) scale(1.5)" fill="#555">
      <path d="M20,12A8,8 0 0,1 12,20A8,8 0 0,1 4,12A8,8 0 0,1 12,4C12.76,4 13.5,4.11 14.2,4.31L15.77,2.74C14.61,2.26 13.34,2 12,2A10,10 0 0,0 2,12A10,10 0 0,0 12,22A10,10 0 0,0 22,12M7.91,10.08L6.5,11.5L11,16L21,6L19.59,4.58L11,13.17L7.91,10.08Z" />
    </g>
    <g id="mdi-checkbox-marked-circle-outline" transform="translate(396 36) scale(1.5)" fill="#fff">
      <path d="M20,12A8,8 0 0,1 12,20A8,8 0 0,1 4,12A8,8 0 0,1 12,4C12.76,4 13.5,4.11 14.2,4.31L15.77,2.74C14.61,2.26 13.34,2 12,2A10,10 0 0,0 2,12A10,10 0 0,0 12,22A10,10 0 0,0 22,12M7.91,10.08L6.5,11.5L11,16L21,6L19.59,4.58L11,13.17L7.91,10.08Z" />
    </g>
    <g id="mdi-checkbox-marked-outline" transform="translate(432 36) scale(1.5)" fill="#555">
      <path d="M19,19H5V5H15V3H5C3.89,3 3,3.89 3,5V19A2,2 0 0,0 5,21H19A2,2 0 0,0 21,19V11H19M7.91,10.08L6.5,11.5L11,16L21,6L19.59,4.58L11,13.17L7.91,10.08Z" />
    </g>
    <g id="mdi-checkbox-marked-outline" transform="translate(468 36) scale(1.5)" fill="#fff">
      <path d="M19,19H5V5H15V3H5C3.89,3 3,3.89 3,5V19A2,2 0 0,0 5,21H19A2,2 0 0,0 21,19V11H19M7.91,10.08L6.5,11.5L11,16L21,6L19.59,4.58L11,13.17L7.91,10.08Z" />
    </g>
    <g id="mdi-checkbox-multiple-blank" transform="translate(504 36) scale(1.5)" fill="#555">
      <path d="M22,16A2,2 0 0,1 20,18H8C6.89,18 6,17.1 6,16V4C6,2.89 6.89,2 8,2H20A2,2 0 0,1 22,4V16M16,20V22H4A2,2 0 0,1 2,20V7H4V20H16Z" />
    </g>
    <g id="mdi-checkbox-multiple-blank" transform="translate(540 36) scale(1.5)" fill="#fff">
      <path d="M22,16A2,2 0 0,1 20,18H8C6.89,18 6,17.1 6,16V4C6,2.89 6.89,2 8,2H20A2,2 0 0,1 22,4V16M16,20V22H4A2,2 0 0,1 2,20V7H4V20H16Z" />
    </g>
    <g id="mdi-checkbox-multiple-blank-circle" transform="translate(576 36) scale(1.5)" fill="#555">
      <path d="M14,2A8,8 0 0,0 6,10A8,8 0 0,0 14,18A8,8 0 0,0 22,10A8,8 0 0,0 14,2M4.93,5.82C3.08,7.34 2,9.61 2,12A8,8 0 0,0 10,20C10.64,20 11.27,19.92 11.88,19.77C10.12,19.38 8.5,18.5 7.17,17.29C5.22,16.25 4,14.21 4,12C4,11.7 4.03,11.41 4.07,11.11C4.03,10.74 4,10.37 4,10C4,8.56 4.32,7.13 4.93,5.82Z" />
    </g>
    <g id="mdi-checkbox-multiple-blank-circle" transform="translate(612 36) scale(1.5)" fill="#fff">
      <path d="M14,2A8,8 0 0,0 6,10A8,8 0 0,0 14,18A8,8 0 0,0 22,10A8,8 0 0,0 14,2M4.93,5.82C3.08,7.34 2,9.61 2,12A8,8 0 0,0 10,20C10.64,20 11.27,19.92 11.88,19.77C10.12,19.38 8.5,18.5 7.17,17.29C5.22,16.25 4,14.21 4,12C4,11.7 4.03,11.41 4.07,11.11C4.03,10.74 4,10.37 4,10C4,8.56 4.32,7.13 4.93,5.82Z" />
    </g>
    <g id="mdi-checkbox-multiple-blank-circle-outline" transform="translate(648 36) scale(1.5)" fill="#555">
      <path d="M14,2A8,8 0 0,0 6,10A8,8 0 0,0 14,18A8,8 0 0,0 22,10A8,8 0 0,0 14,2M14,4C17.32,4 20,6.69 20,10C20,13.32 17.32,16 14,16A6,6 0 0,1 8,10A6,6 0 0,1 14,4M4.93,5.82C3.08,7.34 2,9.61 2,12A8,8 0 0,0 10,20C10.64,20 11.27,19.92 11.88,19.77C10.12,19.38 8.5,18.5 7.17,17.29C5.22,16.25 4,14.21 4,12C4,11.7 4.03,11.41 4.07,11.11C4.03,10.74 4,10.37 4,10C4,8.56 4.32,7.13 4.93,5.82Z" />
    </g>
    <g id="mdi-checkbox-multiple-blank-circle-outline" transform="translate(684 36) scale(1.5)" fill="#fff">
      <path d="M14,2A8,8 0 0,0 6,10A8,8 0 0,0 14,18A8,8 0 0,0 22,10A8,8 0 0,0 14,2M14,4C17.32,4 20,6.69 20,10C20,13.32 17.32,16 14,16A6,6 0 0,1 8,10A6,6 0 0,1 14,4M4.93,5.82C3.08,7.34 2,9.61 2,12A8,8 0 0,0 10,20C10.64,20 11.27,19.92 11.88,19.77C10.12,19.38 8.5,18.5 7.17,17.29C5.22,16.25 4,14.21 4,12C4,11.7 4.03,11.41 4.07,11.11C4.03,10.74 4,10.37 4,10C4,8.56 4.32,7.13 4.93,5.82Z" />
    </g>
    <g id="mdi-checkbox-multiple-blank-outline" transform="translate(0 72) scale(1.5)" fill="#555">
      <path d="M20,16V4H8V16H20M22,16A2,2 0 0,1 20,18H8C6.89,18 6,17.1 6,16V4C6,2.89 6.89,2 8,2H20A2,2 0 0,1 22,4V16M16,20V22H4A2,2 0 0,1 2,20V7H4V20H16Z" />
    </g>
    <g id="mdi-checkbox-multiple-blank-outline" transform="translate(36 72) scale(1.5)" fill="#fff">
      <path d="M20,16V4H8V16H20M22,16A2,2 0 0,1 20,18H8C6.89,18 6,17.1 6,16V4C6,2.89 6.89,2 8,2H20A2,2 0 0,1 22,4V16M16,20V22H4A2,2 0 0,1 2,20V7H4V20H16Z" />
    </g>
    <g id="mdi-checkbox-multiple-marked" transform="translate(72 72) scale(1.5)" fill="#555">
      <path d="M22,16A2,2 0 0,1 20,18H8C6.89,18 6,17.1 6,16V4C6,2.89 6.89,2 8,2H20A2,2 0 0,1 22,4V16M16,20V22H4A2,2 0 0,1 2,20V7H4V20H16M13,14L20,7L18.59,5.59L13,11.17L9.91,8.09L8.5,9.5L13,14Z" />
    </g>
    <g id="mdi-checkbox-multiple-marked" transform="translate(108 72) scale(1.5)" fill="#fff">
      <path d="M22,16A2,2 0 0,1 20,18H8C6.89,18 6,17.1 6,16V4C6,2.89 6.89,2 8,2H20A2,2 0 0,1 22,4V16M16,20V22H4A2,2 0 0,1 2,20V7H4V20H16M13,14L20,7L18.59,5.59L13,11.17L9.91,8.09L8.5,9.5L13,14Z" />
    </g>
    <g id="mdi-checkbox-multiple-marked-circle" transform="translate(144 72) scale(1.5)" fill="#555">
      <path d="M14,2A8,8 0 0,0 6,10A8,8 0 0,0 14,18A8,8 0 0,0 22,10A8,8 0 0,0 14,2M4.93,5.82C3.08,7.34 2,9.61 2,12A8,8 0 0,0 10,20C10.64,20 11.27,19.92 11.88,19.77C10.12,19.38 8.5,18.5 7.17,17.29C5.22,16.25 4,14.21 4,12C4,11.7 4.03,11.41 4.07,11.11C4.03,10.74 4,10.37 4,10C4,8.56 4.32,7.13 4.93,5.82M18.09,6.08L19.5,7.5L13,14L9.21,10.21L10.63,8.79L13,11.17" />
    </g>
    <g id="mdi-checkbox-multiple-marked-circle" transform="translate(180 72) scale(1.5)" fill="#fff">
      <path d="M14,2A8,8 0 0,0 6,10A8,8 0 0,0 14,18A8,8 0 0,0 22,10A8,8 0 0,0 14,2M4.93,5.82C3.08,7.34 2,9.61 2,12A8,8 0 0,0 10,20C10.64,20 11.27,19.92 11.88,19.77C10.12,19.38 8.5,18.5 7.17,17.29C5.22,16.25 4,14.21 4,12C4,11.7 4.03,11.41 4.07,11.11C4.03,10.74 4,10.37 4,10C4,8.56 4.32,7.13 4.93,5.82M18.09,6.08L19.5,7.5L13,14L9.21,10.21L10.63,8.79L13,11.17" />
    </g>
    <g id="mdi-checkbox-multiple-marked-circle-outline" transform="translate(216 72) scale(1.5)" fill="#555">
      <path d="M14,2A8,8 0 0,0 6,10A8,8 0 0,0 14,18A8,8 0 0,0 22,10H20C20,13.32 17.32,16 14,16A6,6 0 0,1 8,10A6,6 0 0,1 14,4C14.43,4 14.86,4.05 15.27,4.14L16.88,2.54C15.96,2.18 15,2 14,2M20.59,3.58L14,10.17L11.62,7.79L10.21,9.21L14,13L22,5M4.93,5.82C3.08,7.34 2,9.61 2,12A8,8 0 0,0 10,20C10.64,20 11.27,19.92 11.88,19.77C10.12,19.38 8.5,18.5 7.17,17.29C5.22,16.25 4,14.21 4,12C4,11.7 4.03,11.41 4.07,11.11C4.03,10.74 4,10.37 4,10C4,8.56 4.32,7.13 4.93,5.82Z" />
    </g>
    <g id="mdi-checkbox-multiple-marked-circle-outline" transform="translate(252 72) scale(1.5)" fill="#fff">
      <path d="M14,2A8,8 0 0,0 6,10A8,8 0 0,0 14,18A8,8 0 0,0 22,10H20C20,13.32 17.32,16 14,16A6,6 0 0,1 8,10A6,6 0 0,1 14,4C14.43,4 14.86,4.05 15.27,4.14L16.88,2.54C15.96,2.18 15,2 14,2M20.59,3.58L14,10.17L11.62,7.79L10.21,9.21L14,13L22,5M4.93,5.82C3.08,7.34 2,9.61 2,12A8,8 0 0,0 10,20C10.64,20 11.27,19.92 11.88,19.77C10.12,19.38 8.5,18.5 7.17,17.29C5.22,16.25 4,14.21 4,12C4,11.7 4.03,11.41 4.07,11.11C4.03,10.74 4,10.37 4,10C4,8.56 4.32,7.13 4.93,5.82Z" />
    </g>
    <g id="mdi-checkbox-multiple-marked-outline" transform="translate(288 72) scale(1.5)" fill="#555">
      <path d="M20,16V10H22V16A2,2 0 0,1 20,18H8C6.89,18 6,17.1 6,16V4C6,2.89 6.89,2 8,2H16V4H8V16H20M10.91,7.08L14,10.17L20.59,3.58L22,5L14,13L9.5,8.5L10.91,7.08M16,20V22H4A2,2 0 0,1 2,20V7H4V20H16Z" />
    </g>
    <g id="mdi-checkbox-multiple-marked-outline" transform="translate(324 72) scale(1.5)" fill="#fff">
      <path d="M20,16V10H22V16A2,2 0 0,1 20,18H8C6.89,18 6,17.1 6,16V4C6,2.89 6.89,2 8,2H16V4H8V16H20M10.91,7.08L14,10.17L20.59,3.58L22,5L14,13L9.5,8.5L10.91,7.08M16,20V22H4A2,2 0 0,1 2,20V7H4V20H16Z" />
    </g>
    <g id="mdi-checkerboard" transform="translate(360 72) scale(1.5)" fill="#555">
      <path d="M2 2V22H22V2H2M20 12H16V16H20V20H16V16H12V20H8V16H4V12H8V8H4V4H8V8H12V4H16V8H20V12M16 8V12H12V8H16M12 12V16H8V12H12Z" />
    </g>
    <g id="mdi-checkerboard" transform="translate(396 72) scale(1.5)" fill="#fff">
      <path d="M2 2V22H22V2H2M20 12H16V16H20V20H16V16H12V20H8V16H4V12H8V8H4V4H8V8H12V4H16V8H20V12M16 8V12H12V8H16M12 12V16H8V12H12Z" />
    </g>
    <g id="mdi-checkerboard-minus" transform="translate(432 72) scale(1.5)" fill="#555">
      <path d="M14 17V19H22V17M8 16H12V12H8V16M12 12H16V8H12V12M2 2V22H13.5C13 21.4 12.6 20.7 12.3 20H8V16H4V12H8V8H4V4H8V8H12V4H16V8H20V12.4C20.7 12.7 21.4 13.1 22 13.6V2H2Z" />
    </g>
    <g id="mdi-checkerboard-minus" transform="translate(468 72) scale(1.5)" fill="#fff">
      <path d="M14 17V19H22V17M8 16H12V12H8V16M12 12H16V8H12V12M2 2V22H13.5C13 21.4 12.6 20.7 12.3 20H8V16H4V12H8V8H4V4H8V8H12V4H16V8H20V12.4C20.7 12.7 21.4 13.1 22 13.6V2H2Z" />
    </g>
    <g id="mdi-checkerboard-plus" transform="translate(504 72) scale(1.5)" fill="#555">
      <path d="M19 17H22V19H19V22H17V19H14V17H17V14H19V17M8 16H12V12H8V16M12 12H16V8H12V12M2 2V22H13.54C13 21.42 12.63 20.74 12.36 20H8V16H4V12H8V8H4V4H8V8H12V4H16V8H20V12.36C20.74 12.63 21.42 13 22 13.54V2H2Z" />
    </g>
    <g id="mdi-checkerboard-plus" transform="translate(540 72) scale(1.5)" fill="#fff">
      <path d="M19 17H22V19H19V22H17V19H14V17H17V14H19V17M8 16H12V12H8V16M12 12H16V8H12V12M2 2V22H13.54C13 21.42 12.63 20.74 12.36 20H8V16H4V12H8V8H4V4H8V8H12V4H16V8H20V12.36C20.74 12.63 21.42 13 22 13.54V2H2Z" />
    </g>
    <g id="mdi-checkerboard-remove" transform="translate(576 72) scale(1.5)" fill="#555">
      <path d="M8 16H12V12H8V16M12 12H16V8H12V12M2 2V22H13.5C13 21.4 12.6 20.7 12.3 20H8V16H4V12H8V8H4V4H8V8H12V4H16V8H20V12.4C20.7 12.7 21.4 13.1 22 13.6V2H2M20.1 14.5L18 16.6L15.9 14.5L14.5 15.9L16.6 18L14.5 20.1L15.9 21.5L18 19.4L20.1 21.5L21.5 20.1L19.4 18L21.5 15.9L20.1 14.5Z" />
    </g>
    <g id="mdi-checkerboard-remove" transform="translate(612 72) scale(1.5)" fill="#fff">
      <path d="M8 16H12V12H8V16M12 12H16V8H12V12M2 2V22H13.5C13 21.4 12.6 20.7 12.3 20H8V16H4V12H8V8H4V4H8V8H12V4H16V8H20V12.4C20.7 12.7 21.4 13.1 22 13.6V2H2M20.1 14.5L18 16.6L15.9 14.5L14.5 15.9L16.6 18L14.5 20.1L15.9 21.5L18 19.4L20.1 21.5L21.5 20.1L19.4 18L21.5 15.9L20.1 14.5Z" />
    </g>
    <g id="mdi-cheese" transform="translate(648 72) scale(1.5)" fill="#555">
      <path d="M11 17.5C11 16.67 11.67 16 12.5 16C12.79 16 13.06 16.09 13.29 16.23L20.75 11.93C20.35 11.22 19.9 10.55 19.41 9.9C19.29 9.96 19.15 10 19 10C18.45 10 18 9.55 18 9C18 8.8 18.08 8.62 18.18 8.46C16.45 6.64 14.34 5.2 12 4.25C11.85 5.24 11 6 10 6C8.9 6 8 5.11 8 4C8 3.72 8.06 3.45 8.16 3.21C7.3 3.08 6.41 3 5.5 3C5.33 3 5.17 3 5 3.03V9.05C6.14 9.28 7 10.29 7 11.5S6.14 13.72 5 13.95V21L11 17.54C11 17.53 11 17.5 11 17.5M14 9C15.11 9 16 9.9 16 11S15.11 13 14 13 12 12.11 12 11 12.9 9 14 9M9 16C8.45 16 8 15.55 8 15S8.45 14 9 14 10 14.45 10 15 9.55 16 9 16M9 10C8.45 10 8 9.55 8 9S8.45 8 9 8 10 8.45 10 9 9.55 10 9 10Z" />
    </g>
    <g id="mdi-cheese" transform="translate(684 72) scale(1.5)" fill="#fff">
      <path d="M11 17.5C11 16.67 11.67 16 12.5 16C12.79 16 13.06 16.09 13.29 16.23L20.75 11.93C20.35 11.22 19.9 10.55 19.41 9.9C19.29 9.96 19.15 10 19 10C18.45 10 18 9.55 18 9C18 8.8 18.08 8.62 18.18 8.46C16.45 6.64 14.34 5.2 12 4.25C11.85 5.24 11 6 10 6C8.9 6 8 5.11 8 4C8 3.72 8.06 3.45 8.16 3.21C7.3 3.08 6.41 3 5.5 3C5.33 3 5.17 3 5 3.03V9.05C6.14 9.28 7 10.29 7 11.5S6.14 13.72 5 13.95V21L11 17.54C11 17.53 11 17.5 11 17.5M14 9C15.11 9 16 9.9 16 11S15.11 13 14 13 12 12.11 12 11 12.9 9 14 9M9 16C8.45 16 8 15.55 8 15S8.45 14 9 14 10 14.45 10 15 9.55 16 9 16M9 10C8.45 10 8 9.55 8 9S8.45 8 9 8 10 8.45 10 9 9.55 10 9 10Z" />
    </g>
    <g id="mdi-cheese-off" transform="translate(0 108) scale(1.5)" fill="#555">
      <path d="M3.5 1.7L2.2 3L6.1 6.9V9C7.2 9.2 8.1 10.2 8.1 11.5S7.2 13.7 6.1 14V21L12.1 17.5C12.1 16.7 12.8 16 13.6 16C13.9 16 14.2 16.1 14.4 16.2L15.1 15.8L20.3 21L21.6 19.7L3.5 1.7M10.1 16C9.6 16 9.1 15.5 9.1 15S9.6 14 10.1 14 11.1 14.5 11.1 15 10.6 16 10.1 16M13.8 9.5L9.9 5.6C10.2 5.9 10.6 6 11.1 6C12.1 6 12.9 5.2 13.1 4.2C15.4 5.2 17.6 6.6 19.3 8.4C19.2 8.6 19.1 8.7 19.1 8.9C19.1 9.4 19.6 9.9 20.1 9.9C20.3 9.9 20.4 9.9 20.5 9.8C21 10.4 21.4 11.1 21.8 11.8L18.3 13.8L16.6 12.1C16.9 11.8 17.1 11.3 17.1 10.8C17.1 9.7 16.2 8.8 15.1 8.8C14.6 9 14.1 9.2 13.8 9.5M9.5 5.2L7.3 3C8 3 8.6 3.1 9.2 3.2C9.1 3.5 9.1 3.7 9.1 4C9.1 4.4 9.2 4.9 9.5 5.2Z" />
    </g>
    <g id="mdi-cheese-off" transform="translate(36 108) scale(1.5)" fill="#fff">
      <path d="M3.5 1.7L2.2 3L6.1 6.9V9C7.2 9.2 8.1 10.2 8.1 11.5S7.2 13.7 6.1 14V21L12.1 17.5C12.1 16.7 12.8 16 13.6 16C13.9 16 14.2 16.1 14.4 16.2L15.1 15.8L20.3 21L21.6 19.7L3.5 1.7M10.1 16C9.6 16 9.1 15.5 9.1 15S9.6 14 10.1 14 11.1 14.5 11.1 15 10.6 16 10.1 16M13.8 9.5L9.9 5.6C10.2 5.9 10.6 6 11.1 6C12.1 6 12.9 5.2 13.1 4.2C15.4 5.2 17.6 6.6 19.3 8.4C19.2 8.6 19.1 8.7 19.1 8.9C19.1 9.4 19.6 9.9 20.1 9.9C20.3 9.9 20.4 9.9 20.5 9.8C21 10.4 21.4 11.1 21.8 11.8L18.3 13.8L16.6 12.1C16.9 11.8 17.1 11.3 17.1 10.8C17.1 9.7 16.2 8.8 15.1 8.8C14.6 9 14.1 9.2 13.8 9.5M9.5 5.2L7.3 3C8 3 8.6 3.1 9.2 3.2C9.1 3.5 9.1 3.7 9.1 4C9.1 4.4 9.2 4.9 9.5 5.2Z" />
    </g>
    <g id="mdi-chef-hat" transform="translate(72 108) scale(1.5)" fill="#555">
      <path d="M12.5,1.5C10.73,1.5 9.17,2.67 8.67,4.37C8.14,4.13 7.58,4 7,4A4,4 0 0,0 3,8C3,9.82 4.24,11.41 6,11.87V19H19V11.87C20.76,11.41 22,9.82 22,8A4,4 0 0,0 18,4C17.42,4 16.86,4.13 16.33,4.37C15.83,2.67 14.27,1.5 12.5,1.5M12,10.5H13V17.5H12V10.5M9,12.5H10V17.5H9V12.5M15,12.5H16V17.5H15V12.5M6,20V21A1,1 0 0,0 7,22H18A1,1 0 0,0 19,21V20H6Z" />
    </g>
    <g id="mdi-chef-hat" transform="translate(108 108) scale(1.5)" fill="#fff">
      <path d="M12.5,1.5C10.73,1.5 9.17,2.67 8.67,4.37C8.14,4.13 7.58,4 7,4A4,4 0 0,0 3,8C3,9.82 4.24,11.41 6,11.87V19H19V11.87C20.76,11.41 22,9.82 22,8A4,4 0 0,0 18,4C17.42,4 16.86,4.13 16.33,4.37C15.83,2.67 14.27,1.5 12.5,1.5M12,10.5H13V17.5H12V10.5M9,12.5H10V17.5H9V12.5M15,12.5H16V17.5H15V12.5M6,20V21A1,1 0 0,0 7,22H18A1,1 0 0,0 19,21V20H6Z" />
    </g>
    <g id="mdi-chemical-weapon" transform="translate(144 108) scale(1.5)" fill="#555">
      <path d="M11,7.83C9.83,7.42 9,6.3 9,5A3,3 0 0,1 12,2A3,3 0 0,1 15,5C15,6.31 14.16,7.42 13,7.83V10.64C12.68,10.55 12.35,10.5 12,10.5C11.65,10.5 11.32,10.55 11,10.64V7.83M18.3,21.1C17.16,20.45 16.62,19.18 16.84,17.96L14.4,16.55C14.88,16.09 15.24,15.5 15.4,14.82L17.84,16.23C18.78,15.42 20.16,15.26 21.29,15.91C22.73,16.74 23.22,18.57 22.39,20C21.56,21.44 19.73,21.93 18.3,21.1M2.7,15.9C3.83,15.25 5.21,15.42 6.15,16.22L8.6,14.81C8.76,15.5 9.11,16.08 9.6,16.54L7.15,17.95C7.38,19.17 6.83,20.45 5.7,21.1C4.26,21.93 2.43,21.44 1.6,20C0.77,18.57 1.26,16.73 2.7,15.9M14,14A2,2 0 0,1 12,16C10.89,16 10,15.1 10,14A2,2 0 0,1 12,12C13.11,12 14,12.9 14,14M17,14L16.97,14.57L15.5,13.71C15.4,12.64 14.83,11.71 14,11.12V9.41C15.77,10.19 17,11.95 17,14M14.97,18.03C14.14,18.64 13.11,19 12,19C10.89,19 9.86,18.64 9.03,18L10.5,17.17C10.96,17.38 11.47,17.5 12,17.5C12.53,17.5 13.03,17.38 13.5,17.17L14.97,18.03M7.03,14.56L7,14C7,11.95 8.23,10.19 10,9.42V11.13C9.17,11.71 8.6,12.64 8.5,13.7L7.03,14.56Z" />
    </g>
    <g id="mdi-chemical-weapon" transform="translate(180 108) scale(1.5)" fill="#fff">
      <path d="M11,7.83C9.83,7.42 9,6.3 9,5A3,3 0 0,1 12,2A3,3 0 0,1 15,5C15,6.31 14.16,7.42 13,7.83V10.64C12.68,10.55 12.35,10.5 12,10.5C11.65,10.5 11.32,10.55 11,10.64V7.83M18.3,21.1C17.16,20.45 16.62,19.18 16.84,17.96L14.4,16.55C14.88,16.09 15.24,15.5 15.4,14.82L17.84,16.23C18.78,15.42 20.16,15.26 21.29,15.91C22.73,16.74 23.22,18.57 22.39,20C21.56,21.44 19.73,21.93 18.3,21.1M2.7,15.9C3.83,15.25 5.21,15.42 6.15,16.22L8.6,14.81C8.76,15.5 9.11,16.08 9.6,16.54L7.15,17.95C7.38,19.17 6.83,20.45 5.7,21.1C4.26,21.93 2.43,21.44 1.6,20C0.77,18.57 1.26,16.73 2.7,15.9M14,14A2,2 0 0,1 12,16C10.89,16 10,15.1 10,14A2,2 0 0,1 12,12C13.11,12 14,12.9 14,14M17,14L16.97,14.57L15.5,13.71C15.4,12.64 14.83,11.71 14,11.12V9.41C15.77,10.19 17,11.95 17,14M14.97,18.03C14.14,18.64 13.11,19 12,19C10.89,19 9.86,18.64 9.03,18L10.5,17.17C10.96,17.38 11.47,17.5 12,17.5C12.53,17.5 13.03,17.38 13.5,17.17L14.97,18.03M7.03,14.56L7,14C7,11.95 8.23,10.19 10,9.42V11.13C9.17,11.71 8.6,12.64 8.5,13.7L7.03,14.56Z" />
    </g>
    <g id="mdi-chess-bishop" transform="translate(216 108) scale(1.5)" fill="#555">
      <path d="M19,22H5V20H19V22M17.16,8.26C18.22,9.63 18.86,11.28 19,13C19,15.76 15.87,18 12,18C8.13,18 5,15.76 5,13C5,10.62 7.33,6.39 10.46,5.27C10.16,4.91 10,4.46 10,4A2,2 0 0,1 12,2A2,2 0 0,1 14,4C14,4.46 13.84,4.91 13.54,5.27C14.4,5.6 15.18,6.1 15.84,6.74L11.29,11.29L12.71,12.71L17.16,8.26Z" />
    </g>
    <g id="mdi-chess-bishop" transform="translate(252 108) scale(1.5)" fill="#fff">
      <path d="M19,22H5V20H19V22M17.16,8.26C18.22,9.63 18.86,11.28 19,13C19,15.76 15.87,18 12,18C8.13,18 5,15.76 5,13C5,10.62 7.33,6.39 10.46,5.27C10.16,4.91 10,4.46 10,4A2,2 0 0,1 12,2A2,2 0 0,1 14,4C14,4.46 13.84,4.91 13.54,5.27C14.4,5.6 15.18,6.1 15.84,6.74L11.29,11.29L12.71,12.71L17.16,8.26Z" />
    </g>
    <g id="mdi-chess-king" transform="translate(288 108) scale(1.5)" fill="#555">
      <path d="M19,22H5V20H19V22M17,10C15.58,10 14.26,10.77 13.55,12H13V7H16V5H13V2H11V5H8V7H11V12H10.45C9.35,10.09 6.9,9.43 5,10.54C3.07,11.64 2.42,14.09 3.5,16C4.24,17.24 5.57,18 7,18H17A4,4 0 0,0 21,14A4,4 0 0,0 17,10Z" />
    </g>
    <g id="mdi-chess-king" transform="translate(324 108) scale(1.5)" fill="#fff">
      <path d="M19,22H5V20H19V22M17,10C15.58,10 14.26,10.77 13.55,12H13V7H16V5H13V2H11V5H8V7H11V12H10.45C9.35,10.09 6.9,9.43 5,10.54C3.07,11.64 2.42,14.09 3.5,16C4.24,17.24 5.57,18 7,18H17A4,4 0 0,0 21,14A4,4 0 0,0 17,10Z" />
    </g>
    <g id="mdi-chess-knight" transform="translate(360 108) scale(1.5)" fill="#555">
      <path d="M19,22H5V20H19V22M13,2V2C11.75,2 10.58,2.62 9.89,3.66L7,8L9,10L11.06,8.63C11.5,8.32 12.14,8.44 12.45,8.9C12.47,8.93 12.5,8.96 12.5,9V9C12.8,9.59 12.69,10.3 12.22,10.77L7.42,15.57C6.87,16.13 6.87,17.03 7.43,17.58C7.69,17.84 8.05,18 8.42,18H17V6A4,4 0 0,0 13,2Z" />
    </g>
    <g id="mdi-chess-knight" transform="translate(396 108) scale(1.5)" fill="#fff">
      <path d="M19,22H5V20H19V22M13,2V2C11.75,2 10.58,2.62 9.89,3.66L7,8L9,10L11.06,8.63C11.5,8.32 12.14,8.44 12.45,8.9C12.47,8.93 12.5,8.96 12.5,9V9C12.8,9.59 12.69,10.3 12.22,10.77L7.42,15.57C6.87,16.13 6.87,17.03 7.43,17.58C7.69,17.84 8.05,18 8.42,18H17V6A4,4 0 0,0 13,2Z" />
    </g>
    <g id="mdi-chess-pawn" transform="translate(432 108) scale(1.5)" fill="#555">
      <path d="M19 22H5V20H19V22M16 18H8L10.18 10H8V8H10.72L10.79 7.74C10.1 7.44 9.55 6.89 9.25 6.2C8.58 4.68 9.27 2.91 10.79 2.25C12.31 1.58 14.08 2.27 14.74 3.79C15.41 5.31 14.72 7.07 13.2 7.74L13.27 8H16V10H13.82L16 18Z" />
    </g>
    <g id="mdi-chess-pawn" transform="translate(468 108) scale(1.5)" fill="#fff">
      <path d="M19 22H5V20H19V22M16 18H8L10.18 10H8V8H10.72L10.79 7.74C10.1 7.44 9.55 6.89 9.25 6.2C8.58 4.68 9.27 2.91 10.79 2.25C12.31 1.58 14.08 2.27 14.74 3.79C15.41 5.31 14.72 7.07 13.2 7.74L13.27 8H16V10H13.82L16 18Z" />
    </g>
    <g id="mdi-chess-queen" transform="translate(504 108) scale(1.5)" fill="#555">
      <path d="M18,3A2,2 0 0,1 20,5C20,5.81 19.5,6.5 18.83,6.82L17,13.15V18H7V13.15L5.17,6.82C4.5,6.5 4,5.81 4,5A2,2 0 0,1 6,3A2,2 0 0,1 8,5C8,5.5 7.82,5.95 7.5,6.3L10.3,9.35L10.83,5.62C10.33,5.26 10,4.67 10,4A2,2 0 0,1 12,2A2,2 0 0,1 14,4C14,4.67 13.67,5.26 13.17,5.62L13.7,9.35L16.47,6.29C16.18,5.94 16,5.5 16,5A2,2 0 0,1 18,3M5,20H19V22H5V20Z" />
    </g>
    <g id="mdi-chess-queen" transform="translate(540 108) scale(1.5)" fill="#fff">
      <path d="M18,3A2,2 0 0,1 20,5C20,5.81 19.5,6.5 18.83,6.82L17,13.15V18H7V13.15L5.17,6.82C4.5,6.5 4,5.81 4,5A2,2 0 0,1 6,3A2,2 0 0,1 8,5C8,5.5 7.82,5.95 7.5,6.3L10.3,9.35L10.83,5.62C10.33,5.26 10,4.67 10,4A2,2 0 0,1 12,2A2,2 0 0,1 14,4C14,4.67 13.67,5.26 13.17,5.62L13.7,9.35L16.47,6.29C16.18,5.94 16,5.5 16,5A2,2 0 0,1 18,3M5,20H19V22H5V20Z" />
    </g>
    <g id="mdi-chess-rook" transform="translate(576 108) scale(1.5)" fill="#555">
      <path d="M5,20H19V22H5V20M17,2V5H15V2H13V5H11V2H9V5H7V2H5V8H7V18H17V8H19V2H17Z" />
    </g>
    <g id="mdi-chess-rook" transform="translate(612 108) scale(1.5)" fill="#fff">
      <path d="M5,20H19V22H5V20M17,2V5H15V2H13V5H11V2H9V5H7V2H5V8H7V18H17V8H19V2H17Z" />
    </g>
    <g id="mdi-chevron-double-down" transform="translate(648 108) scale(1.5)" fill="#555">
      <path d="M16.59,5.59L18,7L12,13L6,7L7.41,5.59L12,10.17L16.59,5.59M16.59,11.59L18,13L12,19L6,13L7.41,11.59L12,16.17L16.59,11.59Z" />
    </g>
    <g id="mdi-chevron-double-down" transform="translate(684 108) scale(1.5)" fill="#fff">
      <path d="M16.59,5.59L18,7L12,13L6,7L7.41,5.59L12,10.17L16.59,5.59M16.59,11.59L18,13L12,19L6,13L7.41,11.59L12,16.17L16.59,11.59Z" />
    </g>
    <g id="mdi-chevron-double-left" transform="translate(0 144) scale(1.5)" fill="#555">
      <path d="M18.41,7.41L17,6L11,12L17,18L18.41,16.59L13.83,12L18.41,7.41M12.41,7.41L11,6L5,12L11,18L12.41,16.59L7.83,12L12.41,7.41Z" />
    </g>
    <g id="mdi-chevron-double-left" transform="translate(36 144) scale(1.5)" fill="#fff">
      <path d="M18.41,7.41L17,6L11,12L17,18L18.41,16.59L13.83,12L18.41,7.41M12.41,7.41L11,6L5,12L11,18L12.41,16.59L7.83,12L12.41,7.41Z" />
    </g>
    <g id="mdi-chevron-double-right" transform="translate(72 144) scale(1.5)" fill="#555">
      <path d="M5.59,7.41L7,6L13,12L7,18L5.59,16.59L10.17,12L5.59,7.41M11.59,7.41L13,6L19,12L13,18L11.59,16.59L16.17,12L11.59,7.41Z" />
    </g>
    <g id="mdi-chevron-double-right" transform="translate(108 144) scale(1.5)" fill="#fff">
      <path d="M5.59,7.41L7,6L13,12L7,18L5.59,16.59L10.17,12L5.59,7.41M11.59,7.41L13,6L19,12L13,18L11.59,16.59L16.17,12L11.59,7.41Z" />
    </g>
    <g id="mdi-chevron-double-up" transform="translate(144 144) scale(1.5)" fill="#555">
      <path d="M7.41,18.41L6,17L12,11L18,17L16.59,18.41L12,13.83L7.41,18.41M7.41,12.41L6,11L12,5L18,11L16.59,12.41L12,7.83L7.41,12.41Z" />
    </g>
    <g id="mdi-chevron-double-up" transform="translate(180 144) scale(1.5)" fill="#fff">
      <path d="M7.41,18.41L6,17L12,11L18,17L16.59,18.41L12,13.83L7.41,18.41M7.41,12.41L6,11L12,5L18,11L16.59,12.41L12,7.83L7.41,12.41Z" />
    </g>
    <g id="mdi-chevron-down" transform="translate(216 144) scale(1.5)" fill="#555">
      <path d="M7.41,8.58L12,13.17L16.59,8.58L18,10L12,16L6,10L7.41,8.58Z" />
    </g>
    <g id="mdi-chevron-down" transform="translate(252 144) scale(1.5)" fill="#fff">
      <path d="M7.41,8.58L12,13.17L16.59,8.58L18,10L12,16L6,10L7.41,8.58Z" />
    </g>
    <g id="mdi-chevron-down-box" transform="translate(288 144) scale(1.5)" fill="#555">
      <path d="M19,3H5A2,2 0 0,0 3,5V19C3,20.11 3.9,21 5,21H19C20.11,21 21,20.11 21,19V5A2,2 0 0,0 19,3M12,15.71L6,9.71L7.41,8.29L12,12.88L16.59,8.29L18,9.71L12,15.71Z" />
    </g>
    <g id="mdi-chevron-down-box" transform="translate(324 144) scale(1.5)" fill="#fff">
      <path d="M19,3H5A2,2 0 0,0 3,5V19C3,20.11 3.9,21 5,21H19C20.11,21 21,20.11 21,19V5A2,2 0 0,0 19,3M12,15.71L6,9.71L7.41,8.29L12,12.88L16.59,8.29L18,9.71L12,15.71Z" />
    </g>
    <g id="mdi-chevron-down-box-outline" transform="translate(360 144) scale(1.5)" fill="#555">
      <path d="M19,3H5A2,2 0 0,0 3,5V19C3,20.11 3.9,21 5,21H19C20.11,21 21,20.11 21,19V5A2,2 0 0,0 19,3M19,19H5V5H19V19M7.41,8.29L12,12.88L16.59,8.29L18,9.71L12,15.71L6,9.71L7.41,8.29Z" />
    </g>
    <g id="mdi-chevron-down-box-outline" transform="translate(396 144) scale(1.5)" fill="#fff">
      <path d="M19,3H5A2,2 0 0,0 3,5V19C3,20.11 3.9,21 5,21H19C20.11,21 21,20.11 21,19V5A2,2 0 0,0 19,3M19,19H5V5H19V19M7.41,8.29L12,12.88L16.59,8.29L18,9.71L12,15.71L6,9.71L7.41,8.29Z" />
    </g>
    <g id="mdi-chevron-down-circle" transform="translate(432 144) scale(1.5)" fill="#555">
      <path d="M22,12A10,10 0 0,1 12,22A10,10 0 0,1 2,12A10,10 0 0,1 12,2A10,10 0 0,1 22,12M6,10L12,16L18,10L16.6,8.6L12,13.2L7.4,8.6L6,10Z" />
    </g>
    <g id="mdi-chevron-down-circle" transform="translate(468 144) scale(1.5)" fill="#fff">
      <path d="M22,12A10,10 0 0,1 12,22A10,10 0 0,1 2,12A10,10 0 0,1 12,2A10,10 0 0,1 22,12M6,10L12,16L18,10L16.6,8.6L12,13.2L7.4,8.6L6,10Z" />
    </g>
    <g id="mdi-chevron-down-circle-outline" transform="translate(504 144) scale(1.5)" fill="#555">
      <path d="M22,12A10,10 0 0,1 12,22A10,10 0 0,1 2,12A10,10 0 0,1 12,2A10,10 0 0,1 22,12M20,12A8,8 0 0,0 12,4A8,8 0 0,0 4,12A8,8 0 0,0 12,20A8,8 0 0,0 20,12M6,10L12,16L18,10L16.6,8.6L12,13.2L7.4,8.6L6,10Z" />
    </g>
    <g id="mdi-chevron-down-circle-outline" transform="translate(540 144) scale(1.5)" fill="#fff">
      <path d="M22,12A10,10 0 0,1 12,22A10,10 0 0,1 2,12A10,10 0 0,1 12,2A10,10 0 0,1 22,12M20,12A8,8 0 0,0 12,4A8,8 0 0,0 4,12A8,8 0 0,0 12,20A8,8 0 0,0 20,12M6,10L12,16L18,10L16.6,8.6L12,13.2L7.4,8.6L6,10Z" />
    </g>
    <g id="mdi-chevron-left" transform="translate(576 144) scale(1.5)" fill="#555">
      <path d="M15.41,16.58L10.83,12L15.41,7.41L14,6L8,12L14,18L15.41,16.58Z" />
    </g>
    <g id="mdi-chevron-left" transform="translate(612 144) scale(1.5)" fill="#fff">
      <path d="M15.41,16.58L10.83,12L15.41,7.41L14,6L8,12L14,18L15.41,16.58Z" />
    </g>
    <g id="mdi-chevron-left-box" transform="translate(648 144) scale(1.5)" fill="#555">
      <path d="M19,3H5A2,2 0 0,0 3,5V19C3,20.11 3.9,21 5,21H19C20.11,21 21,20.11 21,19V5A2,2 0 0,0 19,3M15.71,16.59L14.29,18L8.29,12L14.29,6L15.71,7.41L11.12,12L15.71,16.59Z" />
    </g>
    <g id="mdi-chevron-left-box" transform="translate(684 144) scale(1.5)" fill="#fff">
      <path d="M19,3H5A2,2 0 0,0 3,5V19C3,20.11 3.9,21 5,21H19C20.11,21 21,20.11 21,19V5A2,2 0 0,0 19,3M15.71,16.59L14.29,18L8.29,12L14.29,6L15.71,7.41L11.12,12L15.71,16.59Z" />
    </g>
    <g id="mdi-chevron-left-box-outline" transform="translate(0 180) scale(1.5)" fill="#555">
      <path d="M19,3H5A2,2 0 0,0 3,5V19C3,20.11 3.9,21 5,21H19C20.11,21 21,20.11 21,19V5A2,2 0 0,0 19,3M19,19H5V5H19V19M15.71,7.41L11.12,12L15.71,16.59L14.29,18L8.29,12L14.29,6L15.71,7.41Z" />
    </g>
    <g id="mdi-chevron-left-box-outline" transform="translate(36 180) scale(1.5)" fill="#fff">
      <path d="M19,3H5A2,2 0 0,0 3,5V19C3,20.11 3.9,21 5,21H19C20.11,21 21,20.11 21,19V5A2,2 0 0,0 19,3M19,19H5V5H19V19M15.71,7.41L11.12,12L15.71,16.59L14.29,18L8.29,12L14.29,6L15.71,7.41Z" />
    </g>
    <g id="mdi-chevron-left-circle" transform="translate(72 180) scale(1.5)" fill="#555">
      <path d="M22,12A10,10 0 0,1 12,22A10,10 0 0,1 2,12A10,10 0 0,1 12,2A10,10 0 0,1 22,12M15.4,16.6L10.8,12L15.4,7.4L14,6L8,12L14,18L15.4,16.6Z" />
    </g>
    <g id="mdi-chevron-left-circle" transform="translate(108 180) scale(1.5)" fill="#fff">
      <path d="M22,12A10,10 0 0,1 12,22A10,10 0 0,1 2,12A10,10 0 0,1 12,2A10,10 0 0,1 22,12M15.4,16.6L10.8,12L15.4,7.4L14,6L8,12L14,18L15.4,16.6Z" />
    </g>
    <g id="mdi-chevron-left-circle-outline" transform="translate(144 180) scale(1.5)" fill="#555">
      <path d="M22,12A10,10 0 0,1 12,22A10,10 0 0,1 2,12A10,10 0 0,1 12,2A10,10 0 0,1 22,12M20,12A8,8 0 0,0 12,4A8,8 0 0,0 4,12A8,8 0 0,0 12,20A8,8 0 0,0 20,12M15.4,16.6L10.8,12L15.4,7.4L14,6L8,12L14,18L15.4,16.6Z" />
    </g>
    <g id="mdi-chevron-left-circle-outline" transform="translate(180 180) scale(1.5)" fill="#fff">
      <path d="M22,12A10,10 0 0,1 12,22A10,10 0 0,1 2,12A10,10 0 0,1 12,2A10,10 0 0,1 22,12M20,12A8,8 0 0,0 12,4A8,8 0 0,0 4,12A8,8 0 0,0 12,20A8,8 0 0,0 20,12M15.4,16.6L10.8,12L15.4,7.4L14,6L8,12L14,18L15.4,16.6Z" />
    </g>
    <g id="mdi-chevron-right" transform="translate(216 180) scale(1.5)" fill="#555">
      <path d="M8.59,16.58L13.17,12L8.59,7.41L10,6L16,12L10,18L8.59,16.58Z" />
    </g>
    <g id="mdi-chevron-right" transform="translate(252 180) scale(1.5)" fill="#fff">
      <path d="M8.59,16.58L13.17,12L8.59,7.41L10,6L16,12L10,18L8.59,16.58Z" />
    </g>
    <g id="mdi-chevron-right-box" transform="translate(288 180) scale(1.5)" fill="#555">
      <path d="M19,3H5A2,2 0 0,0 3,5V19C3,20.11 3.9,21 5,21H19C20.11,21 21,20.11 21,19V5A2,2 0 0,0 19,3M9.71,18L8.29,16.59L12.88,12L8.29,7.41L9.71,6L15.71,12L9.71,18Z" />
    </g>
    <g id="mdi-chevron-right-box" transform="translate(324 180) scale(1.5)" fill="#fff">
      <path d="M19,3H5A2,2 0 0,0 3,5V19C3,20.11 3.9,21 5,21H19C20.11,21 21,20.11 21,19V5A2,2 0 0,0 19,3M9.71,18L8.29,16.59L12.88,12L8.29,7.41L9.71,6L15.71,12L9.71,18Z" />
    </g>
    <g id="mdi-chevron-right-box-outline" transform="translate(360 180) scale(1.5)" fill="#555">
      <path d="M19,3H5A2,2 0 0,0 3,5V19C3,20.11 3.9,21 5,21H19C20.11,21 21,20.11 21,19V5A2,2 0 0,0 19,3M19,19H5V5H19V19M8.29,16.59L12.88,12L8.29,7.41L9.71,6L15.71,12L9.71,18L8.29,16.59Z" />
    </g>
    <g id="mdi-chevron-right-box-outline" transform="translate(396 180) scale(1.5)" fill="#fff">
      <path d="M19,3H5A2,2 0 0,0 3,5V19C3,20.11 3.9,21 5,21H19C20.11,21 21,20.11 21,19V5A2,2 0 0,0 19,3M19,19H5V5H19V19M8.29,16.59L12.88,12L8.29,7.41L9.71,6L15.71,12L9.71,18L8.29,16.59Z" />
    </g>
    <g id="mdi-chevron-right-circle" transform="translate(432 180) scale(1.5)" fill="#555">
      <path d="M22,12A10,10 0 0,1 12,22A10,10 0 0,1 2,12A10,10 0 0,1 12,2A10,10 0 0,1 22,12M10,18L16,12L10,6L8.6,7.4L13.2,12L8.6,16.6L10,18Z" />
    </g>
    <g id="mdi-chevron-right-circle" transform="translate(468 180) scale(1.5)" fill="#fff">
      <path d="M22,12A10,10 0 0,1 12,22A10,10 0 0,1 2,12A10,10 0 0,1 12,2A10,10 0 0,1 22,12M10,18L16,12L10,6L8.6,7.4L13.2,12L8.6,16.6L10,18Z" />
    </g>
    <g id="mdi-chevron-right-circle-outline" transform="translate(504 180) scale(1.5)" fill="#555">
      <path d="M22,12A10,10 0 0,1 12,22A10,10 0 0,1 2,12A10,10 0 0,1 12,2A10,10 0 0,1 22,12M20,12A8,8 0 0,0 12,4A8,8 0 0,0 4,12A8,8 0 0,0 12,20A8,8 0 0,0 20,12M8.6,16.6L13.2,12L8.6,7.4L10,6L16,12L10,18L8.6,16.6Z" />
    </g>
    <g id="mdi-chevron-right-circle-outline" transform="translate(540 180) scale(1.5)" fill="#fff">
      <path d="M22,12A10,10 0 0,1 12,22A10,10 0 0,1 2,12A10,10 0 0,1 12,2A10,10 0 0,1 22,12M20,12A8,8 0 0,0 12,4A8,8 0 0,0 4,12A8,8 0 0,0 12,20A8,8 0 0,0 20,12M8.6,16.6L13.2,12L8.6,7.4L10,6L16,12L10,18L8.6,16.6Z" />
    </g>
    <g id="mdi-chevron-triple-down" transform="translate(576 180) scale(1.5)" fill="#555">
      <path d="M7.41,14.58L12,19.17L16.59,14.58L18,16L12,22L6,16L7.41,14.58M7.41,8.58L12,13.17L16.59,8.58L18,10L12,16L6,10L7.41,8.58M7.41,2.58L12,7.17L16.59,2.58L18,4L12,10L6,4L7.41,2.58Z" />
    </g>
    <g id="mdi-chevron-triple-down" transform="translate(612 180) scale(1.5)" fill="#fff">
      <path d="M7.41,14.58L12,19.17L16.59,14.58L18,16L12,22L6,16L7.41,14.58M7.41,8.58L12,13.17L16.59,8.58L18,10L12,16L6,10L7.41,8.58M7.41,2.58L12,7.17L16.59,2.58L18,4L12,10L6,4L7.41,2.58Z" />
    </g>
    <g id="mdi-chevron-triple-left" transform="translate(648 180) scale(1.5)" fill="#555">
      <path d="M9.42,7.41L4.83,12L9.42,16.59L8,18L2,12L8,6L9.42,7.41M15.42,7.41L10.83,12L15.42,16.59L14,18L8,12L14,6L15.42,7.41M21.42,7.41L16.83,12L21.42,16.59L20,18L14,12L20,6L21.42,7.41Z" />
    </g>
    <g id="mdi-chevron-triple-left" transform="translate(684 180) scale(1.5)" fill="#fff">
      <path d="M9.42,7.41L4.83,12L9.42,16.59L8,18L2,12L8,6L9.42,7.41M15.42,7.41L10.83,12L15.42,16.59L14,18L8,12L14,6L15.42,7.41M21.42,7.41L16.83,12L21.42,16.59L20,18L14,12L20,6L21.42,7.41Z" />
    </g>
    <g id="mdi-chevron-triple-right" transform="translate(0 216) scale(1.5)" fill="#555">
      <path d="M14.58,16.59L19.17,12L14.58,7.41L16,6L22,12L16,18L14.58,16.59M8.58,16.59L13.17,12L8.58,7.41L10,6L16,12L10,18L8.58,16.59M2.58,16.59L7.17,12L2.58,7.41L4,6L10,12L4,18L2.58,16.59Z" />
    </g>
    <g id="mdi-chevron-triple-right" transform="translate(36 216) scale(1.5)" fill="#fff">
      <path d="M14.58,16.59L19.17,12L14.58,7.41L16,6L22,12L16,18L14.58,16.59M8.58,16.59L13.17,12L8.58,7.41L10,6L16,12L10,18L8.58,16.59M2.58,16.59L7.17,12L2.58,7.41L4,6L10,12L4,18L2.58,16.59Z" />
    </g>
    <g id="mdi-chevron-triple-up" transform="translate(72 216) scale(1.5)" fill="#555">
      <path d="M16.59,9.42L12,4.83L7.41,9.42L6,8L12,2L18,8L16.59,9.42M16.59,15.42L12,10.83L7.41,15.42L6,14L12,8L18,14L16.59,15.42M16.59,21.42L12,16.83L7.41,21.42L6,20L12,14L18,20L16.59,21.42Z" />
    </g>
    <g id="mdi-chevron-triple-up" transform="translate(108 216) scale(1.5)" fill="#fff">
      <path d="M16.59,9.42L12,4.83L7.41,9.42L6,8L12,2L18,8L16.59,9.42M16.59,15.42L12,10.83L7.41,15.42L6,14L12,8L18,14L16.59,15.42M16.59,21.42L12,16.83L7.41,21.42L6,20L12,14L18,20L16.59,21.42Z" />
    </g>
    <g id="mdi-chevron-up" transform="translate(144 216) scale(1.5)" fill="#555">
      <path d="M7.41,15.41L12,10.83L16.59,15.41L18,14L12,8L6,14L7.41,15.41Z" />
    </g>
    <g id="mdi-chevron-up" transform="translate(180 216) scale(1.5)" fill="#fff">
      <path d="M7.41,15.41L12,10.83L16.59,15.41L18,14L12,8L6,14L7.41,15.41Z" />
    </g>
    <g id="mdi-chevron-up-box" transform="translate(216 216) scale(1.5)" fill="#555">
      <path d="M19,3H5A2,2 0 0,0 3,5V19C3,20.11 3.9,21 5,21H19C20.11,21 21,20.11 21,19V5A2,2 0 0,0 19,3M16.59,15.71L12,11.12L7.41,15.71L6,14.29L12,8.29L18,14.29L16.59,15.71Z" />
    </g>
    <g id="mdi-chevron-up-box" transform="translate(252 216) scale(1.5)" fill="#fff">
      <path d="M19,3H5A2,2 0 0,0 3,5V19C3,20.11 3.9,21 5,21H19C20.11,21 21,20.11 21,19V5A2,2 0 0,0 19,3M16.59,15.71L12,11.12L7.41,15.71L6,14.29L12,8.29L18,14.29L16.59,15.71Z" />
    </g>
    <g id="mdi-chevron-up-box-outline" transform="translate(288 216) scale(1.5)" fill="#555">
      <path d="M19,3H5A2,2 0 0,0 3,5V19C3,20.11 3.9,21 5,21H19C20.11,21 21,20.11 21,19V5A2,2 0 0,0 19,3M19,19H5V5H19V19M16.59,15.71L12,11.12L7.41,15.71L6,14.29L12,8.29L18,14.29L16.59,15.71Z" />
    </g>
    <g id="mdi-chevron-up-box-outline" transform="translate(324 216) scale(1.5)" fill="#fff">
      <path d="M19,3H5A2,2 0 0,0 3,5V19C3,20.11 3.9,21 5,21H19C20.11,21 21,20.11 21,19V5A2,2 0 0,0 19,3M19,19H5V5H19V19M16.59,15.71L12,11.12L7.41,15.71L6,14.29L12,8.29L18,14.29L16.59,15.71Z" />
    </g>
    <g id="mdi-chevron-up-circle" transform="translate(360 216) scale(1.5)" fill="#555">
      <path d="M22,12A10,10 0 0,1 12,22A10,10 0 0,1 2,12A10,10 0 0,1 12,2A10,10 0 0,1 22,12M7.4,15.4L12,10.8L16.6,15.4L18,14L12,8L6,14L7.4,15.4Z" />
    </g>
    <g id="mdi-chevron-up-circle" transform="translate(396 216) scale(1.5)" fill="#fff">
      <path d="M22,12A10,10 0 0,1 12,22A10,10 0 0,1 2,12A10,10 0 0,1 12,2A10,10 0 0,1 22,12M7.4,15.4L12,10.8L16.6,15.4L18,14L12,8L6,14L7.4,15.4Z" />
    </g>
    <g id="mdi-chevron-up-circle-outline" transform="translate(432 216) scale(1.5)" fill="#555">
      <path d="M22,12A10,10 0 0,1 12,22A10,10 0 0,1 2,12A10,10 0 0,1 12,2A10,10 0 0,1 22,12M20,12A8,8 0 0,0 12,4A8,8 0 0,0 4,12A8,8 0 0,0 12,20A8,8 0 0,0 20,12M7.4,15.4L12,10.8L16.6,15.4L18,14L12,8L6,14L7.4,15.4Z" />
    </g>
    <g id="mdi-chevron-up-circle-outline" transform="translate(468 216) scale(1.5)" fill="#fff">
      <path d="M22,12A10,10 0 0,1 12,22A10,10 0 0,1 2,12A10,10 0 0,1 12,2A10,10 0 0,1 22,12M20,12A8,8 0 0,0 12,4A8,8 0 0,0 4,12A8,8 0 0,0 12,20A8,8 0 0,0 20,12M7.4,15.4L12,10.8L16.6,15.4L18,14L12,8L6,14L7.4,15.4Z" />
    </g>
    <g id="mdi-chili-hot" transform="translate(504 216) scale(1.5)" fill="#555">
      <path d="M17.75,9L18.95,8.24C19.58,8.58 20,9.24 20,10V21.75C20,21.75 12,20 12,11V10C12,9.27 12.39,8.63 12.97,8.28L14.43,9L16,8L17.75,9M14,2C15.53,2 16.8,3.15 17,4.64C18,4.93 18.81,5.67 19.22,6.63L17.75,7.5L16,6.5L14.43,7.5L12.76,6.67C13.15,5.72 13.95,5 14.94,4.66C14.8,4.28 14.43,4 14,4V2M10,10C10,18 13.63,19.84 16,21.75C16,21.75 8,20 8,11V10C8,9.27 8.39,8.63 8.97,8.28L10.3,8.94C10.11,9.25 10,9.61 10,10M10.43,7.5L8.76,6.67C9.15,5.72 9.95,5 10.94,4.66C10.8,4.28 10.43,4 10,4V2C10.77,2 11.47,2.29 12,2.76V4C12.43,4 12.8,4.28 12.94,4.66C11.95,5 11.15,5.72 10.43,7.5M6,10C6,18 9.63,19.84 12,21.75C12,21.75 4,20 4,11V10C4,9.27 4.39,8.63 4.97,8.28L6.3,8.94C6.11,9.25 6,9.61 6,10M6.43,7.5L4.76,6.67C5.15,5.72 5.95,5 6.94,4.66C6.8,4.28 6.43,4 6,4V2C6.77,2 7.47,2.29 8,2.76V4C8.43,4 8.8,4.28 8.94,4.66C7.95,5 7.15,5.72 6.43,7.5Z" />
    </g>
    <g id="mdi-chili-hot" transform="translate(540 216) scale(1.5)" fill="#fff">
      <path d="M17.75,9L18.95,8.24C19.58,8.58 20,9.24 20,10V21.75C20,21.75 12,20 12,11V10C12,9.27 12.39,8.63 12.97,8.28L14.43,9L16,8L17.75,9M14,2C15.53,2 16.8,3.15 17,4.64C18,4.93 18.81,5.67 19.22,6.63L17.75,7.5L16,6.5L14.43,7.5L12.76,6.67C13.15,5.72 13.95,5 14.94,4.66C14.8,4.28 14.43,4 14,4V2M10,10C10,18 13.63,19.84 16,21.75C16,21.75 8,20 8,11V10C8,9.27 8.39,8.63 8.97,8.28L10.3,8.94C10.11,9.25 10,9.61 10,10M10.43,7.5L8.76,6.67C9.15,5.72 9.95,5 10.94,4.66C10.8,4.28 10.43,4 10,4V2C10.77,2 11.47,2.29 12,2.76V4C12.43,4 12.8,4.28 12.94,4.66C11.95,5 11.15,5.72 10.43,7.5M6,10C6,18 9.63,19.84 12,21.75C12,21.75 4,20 4,11V10C4,9.27 4.39,8.63 4.97,8.28L6.3,8.94C6.11,9.25 6,9.61 6,10M6.43,7.5L4.76,6.67C5.15,5.72 5.95,5 6.94,4.66C6.8,4.28 6.43,4 6,4V2C6.77,2 7.47,2.29 8,2.76V4C8.43,4 8.8,4.28 8.94,4.66C7.95,5 7.15,5.72 6.43,7.5Z" />
    </g>
    <g id="mdi-chili-medium" transform="translate(576 216) scale(1.5)" fill="#555">
      <path d="M15.75,9L16.95,8.24C17.58,8.58 18,9.24 18,10V21.75C18,21.75 10,20 10,11V10C10,9.27 10.39,8.63 10.97,8.28L12.43,9L14,8L15.75,9M12,2C13.53,2 14.8,3.15 15,4.64C16,4.93 16.81,5.67 17.22,6.63L15.75,7.5L14,6.5L12.43,7.5L10.76,6.67C11.15,5.72 11.95,5 12.94,4.66C12.8,4.28 12.43,4 12,4V2M8,10C8,18 11.63,19.84 14,21.75C14,21.75 6,20 6,11V10C6,9.27 6.39,8.63 6.97,8.28L8.3,8.94C8.11,9.25 8,9.61 8,10M8.43,7.5L6.76,6.67C7.15,5.72 7.95,5 8.94,4.66C8.8,4.28 8.43,4 8,4V2C8.77,2 9.47,2.29 10,2.76V4C10.43,4 10.8,4.28 10.94,4.66C9.95,5 9.15,5.72 8.43,7.5Z" />
    </g>
    <g id="mdi-chili-medium" transform="translate(612 216) scale(1.5)" fill="#fff">
      <path d="M15.75,9L16.95,8.24C17.58,8.58 18,9.24 18,10V21.75C18,21.75 10,20 10,11V10C10,9.27 10.39,8.63 10.97,8.28L12.43,9L14,8L15.75,9M12,2C13.53,2 14.8,3.15 15,4.64C16,4.93 16.81,5.67 17.22,6.63L15.75,7.5L14,6.5L12.43,7.5L10.76,6.67C11.15,5.72 11.95,5 12.94,4.66C12.8,4.28 12.43,4 12,4V2M8,10C8,18 11.63,19.84 14,21.75C14,21.75 6,20 6,11V10C6,9.27 6.39,8.63 6.97,8.28L8.3,8.94C8.11,9.25 8,9.61 8,10M8.43,7.5L6.76,6.67C7.15,5.72 7.95,5 8.94,4.66C8.8,4.28 8.43,4 8,4V2C8.77,2 9.47,2.29 10,2.76V4C10.43,4 10.8,4.28 10.94,4.66C9.95,5 9.15,5.72 8.43,7.5Z" />
    </g>
    <g id="mdi-chili-mild" transform="translate(648 216) scale(1.5)" fill="#555">
      <path d="M13.75,9L14.95,8.24C15.58,8.58 16,9.24 16,10V21.75C16,21.75 8,20 8,11V10C8,9.27 8.39,8.63 8.97,8.28L10.43,9L12,8L13.75,9M10,2C11.53,2 12.8,3.15 13,4.64C14,4.93 14.81,5.67 15.22,6.63L13.75,7.5L12,6.5L10.43,7.5L8.76,6.67C9.15,5.72 9.95,5 10.94,4.66C10.8,4.28 10.43,4 10,4V2Z" />
    </g>
    <g id="mdi-chili-mild" transform="translate(684 216) scale(1.5)" fill="#fff">
      <path d="M13.75,9L14.95,8.24C15.58,8.58 16,9.24 16,10V21.75C16,21.75 8,20 8,11V10C8,9.27 8.39,8.63 8.97,8.28L10.43,9L12,8L13.75,9M10,2C11.53,2 12.8,3.15 13,4.64C14,4.93 14.81,5.67 15.22,6.63L13.75,7.5L12,6.5L10.43,7.5L8.76,6.67C9.15,5.72 9.95,5 10.94,4.66C10.8,4.28 10.43,4 10,4V2Z" />
    </g>
    <g id="mdi-chili-off" transform="translate(0 252) scale(1.5)" fill="#555">
      <path d="M20.8 22.7L16 17.9V21.8C16 21.8 8 20 8 11V10 9.9L1.1 3L2.4 1.7L22.1 21.4L20.8 22.7M13.8 9L12 8L11.5 8.3L16 12.8V10C16 9.2 15.6 8.6 15 8.2L13.8 9M12 6.5L13.8 7.5L15.3 6.6C14.9 5.6 14.1 4.9 13.1 4.6C12.8 3.2 11.5 2 10 2V4C10.4 4 10.8 4.3 10.9 4.7C10.2 4.9 9.6 5.4 9.2 6L10.6 7.4L12 6.5Z" />
    </g>
    <g id="mdi-chili-off" transform="translate(36 252) scale(1.5)" fill="#fff">
      <path d="M20.8 22.7L16 17.9V21.8C16 21.8 8 20 8 11V10 9.9L1.1 3L2.4 1.7L22.1 21.4L20.8 22.7M13.8 9L12 8L11.5 8.3L16 12.8V10C16 9.2 15.6 8.6 15 8.2L13.8 9M12 6.5L13.8 7.5L15.3 6.6C14.9 5.6 14.1 4.9 13.1 4.6C12.8 3.2 11.5 2 10 2V4C10.4 4 10.8 4.3 10.9 4.7C10.2 4.9 9.6 5.4 9.2 6L10.6 7.4L12 6.5Z" />
    </g>
    <g id="mdi-chip" transform="translate(72 252) scale(1.5)" fill="#555">
      <path d="M6,4H18V5H21V7H18V9H21V11H18V13H21V15H18V17H21V19H18V20H6V19H3V17H6V15H3V13H6V11H3V9H6V7H3V5H6V4M11,15V18H12V15H11M13,15V18H14V15H13M15,15V18H16V15H15Z" />
    </g>
    <g id="mdi-chip" transform="translate(108 252) scale(1.5)" fill="#fff">
      <path d="M6,4H18V5H21V7H18V9H21V11H18V13H21V15H18V17H21V19H18V20H6V19H3V17H6V15H3V13H6V11H3V9H6V7H3V5H6V4M11,15V18H12V15H11M13,15V18H14V15H13M15,15V18H16V15H15Z" />
    </g>
    <g id="mdi-christianity" transform="translate(144 252) scale(1.5)" fill="#555">
      <path d="M10.5,2H13.5V8H19V11H13.5V22H10.5V11H5V8H10.5V2Z" />
    </g>
    <g id="mdi-christianity" transform="translate(180 252) scale(1.5)" fill="#fff">
      <path d="M10.5,2H13.5V8H19V11H13.5V22H10.5V11H5V8H10.5V2Z" />
    </g>
    <g id="mdi-christianity-outline" transform="translate(216 252) scale(1.5)" fill="#555">
      <path d="M15.5,6V1H8.5V6H3V13H8.5V23H15.5V13H21V6H15.5M19,11H13.5V21H10.5V11H5V8H10.5V3H13.5V8H19V11Z" />
    </g>
    <g id="mdi-christianity-outline" transform="translate(252 252) scale(1.5)" fill="#fff">
      <path d="M15.5,6V1H8.5V6H3V13H8.5V23H15.5V13H21V6H15.5M19,11H13.5V21H10.5V11H5V8H10.5V3H13.5V8H19V11Z" />
    </g>
    <g id="mdi-church" transform="translate(288 252) scale(1.5)" fill="#555">
      <path d="M11,2H13V4H15V6H13V9.4L22,13V15L20,14.2V22H14V17A2,2 0 0,0 12,15A2,2 0 0,0 10,17V22H4V14.2L2,15V13L11,9.4V6H9V4H11V2M6,20H8V15L7,14L6,15V20M16,20H18V15L17,14L16,15V20Z" />
    </g>
    <g id="mdi-church" transform="translate(324 252) scale(1.5)" fill="#fff">
      <path d="M11,2H13V4H15V6H13V9.4L22,13V15L20,14.2V22H14V17A2,2 0 0,0 12,15A2,2 0 0,0 10,17V22H4V14.2L2,15V13L11,9.4V6H9V4H11V2M6,20H8V15L7,14L6,15V20M16,20H18V15L17,14L16,15V20Z" />
    </g>
    <g id="mdi-cigar" transform="translate(360 252) scale(1.5)" fill="#555">
      <path d="M16 10.2H14.5A2 2 0 0 1 12.65 8.2A1.78 1.78 0 0 1 14.5 6.45V5A3.35 3.35 0 1 0 14.5 11.7H16A1.93 1.93 0 0 1 18 13.7V15H19.5V13.36A3.31 3.31 0 0 0 16 10.2M18.82 7.73A3.34 3.34 0 0 0 16.5 2V3.5A1.85 1.85 0 1 1 16.5 7.2V8.7A4 4 0 0 1 20.5 12.77V15H22V12.76A5.55 5.55 0 0 0 18.85 7.73M18 16V22H19.5V16M20.5 16V22H22V16M12 16V17.27A2 2 0 0 1 12 20.73V22H17V16M2.88 16.88A3 3 0 0 0 5 22H10V20.73A2 2 0 0 1 10 17.27V16H5A3 3 0 0 0 2.88 16.88M12 19A1 1 0 1 1 11 18A1 1 0 0 1 12 19Z" />
    </g>
    <g id="mdi-cigar" transform="translate(396 252) scale(1.5)" fill="#fff">
      <path d="M16 10.2H14.5A2 2 0 0 1 12.65 8.2A1.78 1.78 0 0 1 14.5 6.45V5A3.35 3.35 0 1 0 14.5 11.7H16A1.93 1.93 0 0 1 18 13.7V15H19.5V13.36A3.31 3.31 0 0 0 16 10.2M18.82 7.73A3.34 3.34 0 0 0 16.5 2V3.5A1.85 1.85 0 1 1 16.5 7.2V8.7A4 4 0 0 1 20.5 12.77V15H22V12.76A5.55 5.55 0 0 0 18.85 7.73M18 16V22H19.5V16M20.5 16V22H22V16M12 16V17.27A2 2 0 0 1 12 20.73V22H17V16M2.88 16.88A3 3 0 0 0 5 22H10V20.73A2 2 0 0 1 10 17.27V16H5A3 3 0 0 0 2.88 16.88M12 19A1 1 0 1 1 11 18A1 1 0 0 1 12 19Z" />
    </g>
    <g id="mdi-cigar-off" transform="translate(432 252) scale(1.5)" fill="#555">
      <path d="M20.84 22.73L18.11 20H18V19.89L17 18.89V20H12V18.73C12.3 18.56 12.55 18.31 12.73 18C13.28 17.05 12.96 15.83 12 15.27V14H12.11L1.11 3L2.39 1.73L22.11 21.46L20.84 22.73M14.5 9.7H16C17.07 9.66 17.96 10.5 18 11.56C18 11.61 18 11.65 18 11.7V13H19.5V11.36C19.42 9.53 17.88 8.12 16.05 8.2L16 8.2H14.5C13.45 8.12 12.65 7.25 12.65 6.2C12.67 5.22 13.5 4.43 14.46 4.45L14.5 4.45V3C12.65 3 11.15 4.5 11.15 6.35S12.65 9.7 14.5 9.7M20.5 10.7L20.5 10.77V13H22V10.76C22 8.62 20.78 6.66 18.85 5.73H18.82C19.58 5 19.9 4 19.8 3H18.32C18.34 3.11 18.35 3.23 18.35 3.35C18.35 4.37 17.5 5.2 16.5 5.2H16.5V6.7C18.71 6.7 20.5 8.5 20.5 10.7M9.27 16C9.45 15.7 9.7 15.45 10 15.27V14H5C4.21 14 3.44 14.32 2.88 14.88C1.71 16.05 1.71 17.95 2.88 19.12C3.45 19.68 4.21 20 5 20H10V18.73C9.05 18.18 8.72 16.95 9.27 16M18 14.8L19.5 16.3V14H18V14.8M20.5 17.3L22 18.8V14H20.5V17.3M11 16C10.45 16 10 16.45 10 17S10.45 18 11 18 12 17.55 12 17 11.55 16 11 16Z" />
    </g>
    <g id="mdi-cigar-off" transform="translate(468 252) scale(1.5)" fill="#fff">
      <path d="M20.84 22.73L18.11 20H18V19.89L17 18.89V20H12V18.73C12.3 18.56 12.55 18.31 12.73 18C13.28 17.05 12.96 15.83 12 15.27V14H12.11L1.11 3L2.39 1.73L22.11 21.46L20.84 22.73M14.5 9.7H16C17.07 9.66 17.96 10.5 18 11.56C18 11.61 18 11.65 18 11.7V13H19.5V11.36C19.42 9.53 17.88 8.12 16.05 8.2L16 8.2H14.5C13.45 8.12 12.65 7.25 12.65 6.2C12.67 5.22 13.5 4.43 14.46 4.45L14.5 4.45V3C12.65 3 11.15 4.5 11.15 6.35S12.65 9.7 14.5 9.7M20.5 10.7L20.5 10.77V13H22V10.76C22 8.62 20.78 6.66 18.85 5.73H18.82C19.58 5 19.9 4 19.8 3H18.32C18.34 3.11 18.35 3.23 18.35 3.35C18.35 4.37 17.5 5.2 16.5 5.2H16.5V6.7C18.71 6.7 20.5 8.5 20.5 10.7M9.27 16C9.45 15.7 9.7 15.45 10 15.27V14H5C4.21 14 3.44 14.32 2.88 14.88C1.71 16.05 1.71 17.95 2.88 19.12C3.45 19.68 4.21 20 5 20H10V18.73C9.05 18.18 8.72 16.95 9.27 16M18 14.8L19.5 16.3V14H18V14.8M20.5 17.3L22 18.8V14H20.5V17.3M11 16C10.45 16 10 16.45 10 17S10.45 18 11 18 12 17.55 12 17 11.55 16 11 16Z" />
    </g>
    <g id="mdi-circle" transform="translate(504 252) scale(1.5)" fill="#555">
      <path d="M12,2A10,10 0 0,0 2,12A10,10 0 0,0 12,22A10,10 0 0,0 22,12A10,10 0 0,0 12,2Z" />
    </g>
    <g id="mdi-circle" transform="translate(540 252) scale(1.5)" fill="#fff">
      <path d="M12,2A10,10 0 0,0 2,12A10,10 0 0,0 12,22A10,10 0 0,0 22,12A10,10 0 0,0 12,2Z" />
    </g>
    <g id="mdi-circle-box" transform="translate(576 252) scale(1.5)" fill="#555">
      <path d="M19 3H5C3.9 3 3 3.9 3 5V19C3 20.11 3.9 21 5 21H19C20.11 21 21 20.11 21 19V5C21 3.9 20.11 3 19 3M12 16C9.79 16 8 14.21 8 12S9.79 8 12 8 16 9.79 16 12 14.21 16 12 16Z" />
    </g>
    <g id="mdi-circle-box" transform="translate(612 252) scale(1.5)" fill="#fff">
      <path d="M19 3H5C3.9 3 3 3.9 3 5V19C3 20.11 3.9 21 5 21H19C20.11 21 21 20.11 21 19V5C21 3.9 20.11 3 19 3M12 16C9.79 16 8 14.21 8 12S9.79 8 12 8 16 9.79 16 12 14.21 16 12 16Z" />
    </g>
    <g id="mdi-circle-box-outline" transform="translate(648 252) scale(1.5)" fill="#555">
      <path d="M19 5V19H5V5H19M19 3H5C3.9 3 3 3.9 3 5V19C3 20.11 3.9 21 5 21H19C20.11 21 21 20.11 21 19V5C21 3.9 20.11 3 19 3M12 8C9.79 8 8 9.79 8 12S9.79 16 12 16 16 14.21 16 12 14.21 8 12 8Z" />
    </g>
    <g id="mdi-circle-box-outline" transform="translate(684 252) scale(1.5)" fill="#fff">
      <path d="M19 5V19H5V5H19M19 3H5C3.9 3 3 3.9 3 5V19C3 20.11 3.9 21 5 21H19C20.11 21 21 20.11 21 19V5C21 3.9 20.11 3 19 3M12 8C9.79 8 8 9.79 8 12S9.79 16 12 16 16 14.21 16 12 14.21 8 12 8Z" />
    </g>
    <g id="mdi-circle-double" transform="translate(0 288) scale(1.5)" fill="#555">
      <path d="M12,2A10,10 0 0,0 2,12A10,10 0 0,0 12,22A10,10 0 0,0 22,12A10,10 0 0,0 12,2M12,4A8,8 0 0,1 20,12A8,8 0 0,1 12,20A8,8 0 0,1 4,12A8,8 0 0,1 12,4M12,6A6,6 0 0,0 6,12A6,6 0 0,0 12,18A6,6 0 0,0 18,12A6,6 0 0,0 12,6M12,8A4,4 0 0,1 16,12A4,4 0 0,1 12,16A4,4 0 0,1 8,12A4,4 0 0,1 12,8Z" />
    </g>
    <g id="mdi-circle-double" transform="translate(36 288) scale(1.5)" fill="#fff">
      <path d="M12,2A10,10 0 0,0 2,12A10,10 0 0,0 12,22A10,10 0 0,0 22,12A10,10 0 0,0 12,2M12,4A8,8 0 0,1 20,12A8,8 0 0,1 12,20A8,8 0 0,1 4,12A8,8 0 0,1 12,4M12,6A6,6 0 0,0 6,12A6,6 0 0,0 12,18A6,6 0 0,0 18,12A6,6 0 0,0 12,6M12,8A4,4 0 0,1 16,12A4,4 0 0,1 12,16A4,4 0 0,1 8,12A4,4 0 0,1 12,8Z" />
    </g>
    <g id="mdi-circle-edit-outline" transform="translate(72 288) scale(1.5)" fill="#555">
      <path d="M12,2A10,10 0 0,0 2,12A10,10 0 0,0 12,22A10,10 0 0,0 22,12H20A8,8 0 0,1 12,20A8,8 0 0,1 4,12A8,8 0 0,1 12,4V2M18.78,3C18.61,3 18.43,3.07 18.3,3.2L17.08,4.41L19.58,6.91L20.8,5.7C21.06,5.44 21.06,5 20.8,4.75L19.25,3.2C19.12,3.07 18.95,3 18.78,3M16.37,5.12L9,12.5V15H11.5L18.87,7.62L16.37,5.12Z" />
    </g>
    <g id="mdi-circle-edit-outline" transform="translate(108 288) scale(1.5)" fill="#fff">
      <path d="M12,2A10,10 0 0,0 2,12A10,10 0 0,0 12,22A10,10 0 0,0 22,12H20A8,8 0 0,1 12,20A8,8 0 0,1 4,12A8,8 0 0,1 12,4V2M18.78,3C18.61,3 18.43,3.07 18.3,3.2L17.08,4.41L19.58,6.91L20.8,5.7C21.06,5.44 21.06,5 20.8,4.75L19.25,3.2C19.12,3.07 18.95,3 18.78,3M16.37,5.12L9,12.5V15H11.5L18.87,7.62L16.37,5.12Z" />
    </g>
    <g id="mdi-circle-expand" transform="translate(144 288) scale(1.5)" fill="#555">
      <path d="M16,4L20,8V4M20,16L16,20H20M8,20L4,16V20M4,8L8,4H4M16.95,7.05C14.22,4.32 9.78,4.32 7.05,7.05C4.32,9.78 4.32,14.22 7.05,16.95C9.78,19.68 14.22,19.68 16.95,16.95C19.68,14.22 19.68,9.79 16.95,7.05M15.85,15.85C13.72,18 10.28,18 8.15,15.85C6,13.72 6,10.28 8.15,8.15C10.28,6 13.72,6 15.85,8.15C18,10.28 18,13.72 15.85,15.85Z" />
    </g>
    <g id="mdi-circle-expand" transform="translate(180 288) scale(1.5)" fill="#fff">
      <path d="M16,4L20,8V4M20,16L16,20H20M8,20L4,16V20M4,8L8,4H4M16.95,7.05C14.22,4.32 9.78,4.32 7.05,7.05C4.32,9.78 4.32,14.22 7.05,16.95C9.78,19.68 14.22,19.68 16.95,16.95C19.68,14.22 19.68,9.79 16.95,7.05M15.85,15.85C13.72,18 10.28,18 8.15,15.85C6,13.72 6,10.28 8.15,8.15C10.28,6 13.72,6 15.85,8.15C18,10.28 18,13.72 15.85,15.85Z" />
    </g>
    <g id="mdi-circle-half" transform="translate(216 288) scale(1.5)" fill="#555">
      <path d="M12 2A10 10 0 0 0 2 12A10 10 0 0 0 12 22V2Z" />
    </g>
    <g id="mdi-circle-half" transform="translate(252 288) scale(1.5)" fill="#fff">
      <path d="M12 2A10 10 0 0 0 2 12A10 10 0 0 0 12 22V2Z" />
    </g>
    <g id="mdi-circle-half-full" transform="translate(288 288) scale(1.5)" fill="#555">
      <path d="M12 2A10 10 0 0 0 2 12A10 10 0 0 0 12 22A10 10 0 0 0 22 12A10 10 0 0 0 12 2M12 4A8 8 0 0 1 20 12A8 8 0 0 1 12 20V4Z" />
    </g>
    <g id="mdi-circle-half-full" transform="translate(324 288) scale(1.5)" fill="#fff">
      <path d="M12 2A10 10 0 0 0 2 12A10 10 0 0 0 12 22A10 10 0 0 0 22 12A10 10 0 0 0 12 2M12 4A8 8 0 0 1 20 12A8 8 0 0 1 12 20V4Z" />
    </g>
    <g id="mdi-circle-medium" transform="translate(360 288) scale(1.5)" fill="#555">
      <path d="M12,8A4,4 0 0,0 8,12A4,4 0 0,0 12,16A4,4 0 0,0 16,12A4,4 0 0,0 12,8Z" />
    </g>
    <g id="mdi-circle-medium" transform="translate(396 288) scale(1.5)" fill="#fff">
      <path d="M12,8A4,4 0 0,0 8,12A4,4 0 0,0 12,16A4,4 0 0,0 16,12A4,4 0 0,0 12,8Z" />
    </g>
    <g id="mdi-circle-multiple" transform="translate(432 288) scale(1.5)" fill="#555">
      <path d="M15 4A8 8 0 1 1 7 12A8 8 0 0 1 15 4M3 12A6 6 0 0 0 7 17.65V19.74A8 8 0 0 1 7 4.26V6.35A6 6 0 0 0 3 12Z" />
    </g>
    <g id="mdi-circle-multiple" transform="translate(468 288) scale(1.5)" fill="#fff">
      <path d="M15 4A8 8 0 1 1 7 12A8 8 0 0 1 15 4M3 12A6 6 0 0 0 7 17.65V19.74A8 8 0 0 1 7 4.26V6.35A6 6 0 0 0 3 12Z" />
    </g>
    <g id="mdi-circle-multiple-outline" transform="translate(504 288) scale(1.5)" fill="#555">
      <path d="M15,4A8,8 0 0,1 23,12A8,8 0 0,1 15,20A8,8 0 0,1 7,12A8,8 0 0,1 15,4M15,18A6,6 0 0,0 21,12A6,6 0 0,0 15,6A6,6 0 0,0 9,12A6,6 0 0,0 15,18M3,12C3,14.61 4.67,16.83 7,17.65V19.74C3.55,18.85 1,15.73 1,12C1,8.27 3.55,5.15 7,4.26V6.35C4.67,7.17 3,9.39 3,12Z" />
    </g>
    <g id="mdi-circle-multiple-outline" transform="translate(540 288) scale(1.5)" fill="#fff">
      <path d="M15,4A8,8 0 0,1 23,12A8,8 0 0,1 15,20A8,8 0 0,1 7,12A8,8 0 0,1 15,4M15,18A6,6 0 0,0 21,12A6,6 0 0,0 15,6A6,6 0 0,0 9,12A6,6 0 0,0 15,18M3,12C3,14.61 4.67,16.83 7,17.65V19.74C3.55,18.85 1,15.73 1,12C1,8.27 3.55,5.15 7,4.26V6.35C4.67,7.17 3,9.39 3,12Z" />
    </g>
    <g id="mdi-circle-off-outline" transform="translate(576 288) scale(1.5)" fill="#555">
      <path d="M22.11 21.46L2.39 1.73L1.11 3L4.06 5.95C2.78 7.63 2 9.72 2 12C2 17.5 6.5 22 12 22C14.28 22 16.37 21.23 18.05 19.94L20.84 22.73L22.11 21.46M12 20C7.58 20 4 16.42 4 12C4 10.27 4.56 8.68 5.5 7.38L16.62 18.5C15.32 19.45 13.73 20 12 20M8.17 4.97L6.72 3.5C8.25 2.56 10.06 2 12 2C17.5 2 22 6.5 22 12C22 13.94 21.44 15.75 20.5 17.28L19.03 15.83C19.65 14.69 20 13.39 20 12C20 7.58 16.42 4 12 4C10.61 4 9.31 4.35 8.17 4.97Z" />
    </g>
    <g id="mdi-circle-off-outline" transform="translate(612 288) scale(1.5)" fill="#fff">
      <path d="M22.11 21.46L2.39 1.73L1.11 3L4.06 5.95C2.78 7.63 2 9.72 2 12C2 17.5 6.5 22 12 22C14.28 22 16.37 21.23 18.05 19.94L20.84 22.73L22.11 21.46M12 20C7.58 20 4 16.42 4 12C4 10.27 4.56 8.68 5.5 7.38L16.62 18.5C15.32 19.45 13.73 20 12 20M8.17 4.97L6.72 3.5C8.25 2.56 10.06 2 12 2C17.5 2 22 6.5 22 12C22 13.94 21.44 15.75 20.5 17.28L19.03 15.83C19.65 14.69 20 13.39 20 12C20 7.58 16.42 4 12 4C10.61 4 9.31 4.35 8.17 4.97Z" />
    </g>
    <g id="mdi-circle-outline" transform="translate(648 288) scale(1.5)" fill="#555">
      <path d="M12,20A8,8 0 0,1 4,12A8,8 0 0,1 12,4A8,8 0 0,1 20,12A8,8 0 0,1 12,20M12,2A10,10 0 0,0 2,12A10,10 0 0,0 12,22A10,10 0 0,0 22,12A10,10 0 0,0 12,2Z" />
    </g>
    <g id="mdi-circle-outline" transform="translate(684 288) scale(1.5)" fill="#fff">
      <path d="M12,20A8,8 0 0,1 4,12A8,8 0 0,1 12,4A8,8 0 0,1 20,12A8,8 0 0,1 12,20M12,2A10,10 0 0,0 2,12A10,10 0 0,0 12,22A10,10 0 0,0 22,12A10,10 0 0,0 12,2Z" />
    </g>
    <g id="mdi-circle-slice-1" transform="translate(0 324) scale(1.5)" fill="#555">
      <path d="M12 2C17.5 2 22 6.5 22 12C22 17.5 17.5 22 12 22C6.5 22 2 17.5 2 12C2 6.5 6.5 2 12 2M12 4C7.58 4 4 7.58 4 12C4 16.42 7.58 20 12 20C16.42 20 20 16.42 20 12C20 7.58 16.42 4 12 4M12 5C13.93 5 15.68 5.78 16.95 7.05L12 12V5Z" />
    </g>
    <g id="mdi-circle-slice-1" transform="translate(36 324) scale(1.5)" fill="#fff">
      <path d="M12 2C17.5 2 22 6.5 22 12C22 17.5 17.5 22 12 22C6.5 22 2 17.5 2 12C2 6.5 6.5 2 12 2M12 4C7.58 4 4 7.58 4 12C4 16.42 7.58 20 12 20C16.42 20 20 16.42 20 12C20 7.58 16.42 4 12 4M12 5C13.93 5 15.68 5.78 16.95 7.05L12 12V5Z" />
    </g>
    <g id="mdi-circle-slice-2" transform="translate(72 324) scale(1.5)" fill="#555">
      <path d="M12 2C17.5 2 22 6.5 22 12C22 17.5 17.5 22 12 22C6.5 22 2 17.5 2 12C2 6.5 6.5 2 12 2M12 4C7.58 4 4 7.58 4 12C4 16.42 7.58 20 12 20C16.42 20 20 16.42 20 12C20 7.58 16.42 4 12 4M12 5C15.87 5 19 8.13 19 12H12V5Z" />
    </g>
    <g id="mdi-circle-slice-2" transform="translate(108 324) scale(1.5)" fill="#fff">
      <path d="M12 2C17.5 2 22 6.5 22 12C22 17.5 17.5 22 12 22C6.5 22 2 17.5 2 12C2 6.5 6.5 2 12 2M12 4C7.58 4 4 7.58 4 12C4 16.42 7.58 20 12 20C16.42 20 20 16.42 20 12C20 7.58 16.42 4 12 4M12 5C15.87 5 19 8.13 19 12H12V5Z" />
    </g>
    <g id="mdi-circle-slice-3" transform="translate(144 324) scale(1.5)" fill="#555">
      <path d="M12 2C17.5 2 22 6.5 22 12C22 17.5 17.5 22 12 22C6.5 22 2 17.5 2 12C2 6.5 6.5 2 12 2M12 4C7.58 4 4 7.58 4 12C4 16.42 7.58 20 12 20C16.42 20 20 16.42 20 12C20 7.58 16.42 4 12 4M12 5C15.87 5 19 8.13 19 12C19 13.93 18.22 15.68 16.95 16.95L12 12V5Z" />
    </g>
    <g id="mdi-circle-slice-3" transform="translate(180 324) scale(1.5)" fill="#fff">
      <path d="M12 2C17.5 2 22 6.5 22 12C22 17.5 17.5 22 12 22C6.5 22 2 17.5 2 12C2 6.5 6.5 2 12 2M12 4C7.58 4 4 7.58 4 12C4 16.42 7.58 20 12 20C16.42 20 20 16.42 20 12C20 7.58 16.42 4 12 4M12 5C15.87 5 19 8.13 19 12C19 13.93 18.22 15.68 16.95 16.95L12 12V5Z" />
    </g>
    <g id="mdi-circle-slice-4" transform="translate(216 324) scale(1.5)" fill="#555">
      <path d="M12 2C17.5 2 22 6.5 22 12C22 17.5 17.5 22 12 22C6.5 22 2 17.5 2 12C2 6.5 6.5 2 12 2M12 4C7.58 4 4 7.58 4 12C4 16.42 7.58 20 12 20C16.42 20 20 16.42 20 12C20 7.58 16.42 4 12 4M12 5C15.87 5 19 8.13 19 12C19 15.87 15.87 19 12 19V5Z" />
    </g>
    <g id="mdi-circle-slice-4" transform="translate(252 324) scale(1.5)" fill="#fff">
      <path d="M12 2C17.5 2 22 6.5 22 12C22 17.5 17.5 22 12 22C6.5 22 2 17.5 2 12C2 6.5 6.5 2 12 2M12 4C7.58 4 4 7.58 4 12C4 16.42 7.58 20 12 20C16.42 20 20 16.42 20 12C20 7.58 16.42 4 12 4M12 5C15.87 5 19 8.13 19 12C19 15.87 15.87 19 12 19V5Z" />
    </g>
    <g id="mdi-circle-slice-5" transform="translate(288 324) scale(1.5)" fill="#555">
      <path d="M12 2C17.5 2 22 6.5 22 12C22 17.5 17.5 22 12 22C6.5 22 2 17.5 2 12C2 6.5 6.5 2 12 2M12 4C7.58 4 4 7.58 4 12C4 16.42 7.58 20 12 20C16.42 20 20 16.42 20 12C20 7.58 16.42 4 12 4M12 5C15.87 5 19 8.13 19 12C19 15.87 15.87 19 12 19C10.07 19 8.32 18.22 7.05 16.95L12 12V5Z" />
    </g>
    <g id="mdi-circle-slice-5" transform="translate(324 324) scale(1.5)" fill="#fff">
      <path d="M12 2C17.5 2 22 6.5 22 12C22 17.5 17.5 22 12 22C6.5 22 2 17.5 2 12C2 6.5 6.5 2 12 2M12 4C7.58 4 4 7.58 4 12C4 16.42 7.58 20 12 20C16.42 20 20 16.42 20 12C20 7.58 16.42 4 12 4M12 5C15.87 5 19 8.13 19 12C19 15.87 15.87 19 12 19C10.07 19 8.32 18.22 7.05 16.95L12 12V5Z" />
    </g>
    <g id="mdi-circle-slice-6" transform="translate(360 324) scale(1.5)" fill="#555">
      <path d="M12 2C17.5 2 22 6.5 22 12C22 17.5 17.5 22 12 22C6.5 22 2 17.5 2 12C2 6.5 6.5 2 12 2M12 4C7.58 4 4 7.58 4 12C4 16.42 7.58 20 12 20C16.42 20 20 16.42 20 12C20 7.58 16.42 4 12 4M12 5C15.87 5 19 8.13 19 12C19 15.87 15.87 19 12 19C8.13 19 5 15.87 5 12H12V5Z" />
    </g>
    <g id="mdi-circle-slice-6" transform="translate(396 324) scale(1.5)" fill="#fff">
      <path d="M12 2C17.5 2 22 6.5 22 12C22 17.5 17.5 22 12 22C6.5 22 2 17.5 2 12C2 6.5 6.5 2 12 2M12 4C7.58 4 4 7.58 4 12C4 16.42 7.58 20 12 20C16.42 20 20 16.42 20 12C20 7.58 16.42 4 12 4M12 5C15.87 5 19 8.13 19 12C19 15.87 15.87 19 12 19C8.13 19 5 15.87 5 12H12V5Z" />
    </g>
    <g id="mdi-circle-slice-7" transform="translate(432 324) scale(1.5)" fill="#555">
      <path d="M12 2C17.5 2 22 6.5 22 12C22 17.5 17.5 22 12 22C6.5 22 2 17.5 2 12C2 6.5 6.5 2 12 2M12 4C7.58 4 4 7.58 4 12C4 16.42 7.58 20 12 20C16.42 20 20 16.42 20 12C20 7.58 16.42 4 12 4M12 5C15.87 5 19 8.13 19 12C19 15.87 15.87 19 12 19C8.13 19 5 15.87 5 12C5 10.07 5.78 8.32 7.05 7.05L12 12V5Z" />
    </g>
    <g id="mdi-circle-slice-7" transform="translate(468 324) scale(1.5)" fill="#fff">
      <path d="M12 2C17.5 2 22 6.5 22 12C22 17.5 17.5 22 12 22C6.5 22 2 17.5 2 12C2 6.5 6.5 2 12 2M12 4C7.58 4 4 7.58 4 12C4 16.42 7.58 20 12 20C16.42 20 20 16.42 20 12C20 7.58 16.42 4 12 4M12 5C15.87 5 19 8.13 19 12C19 15.87 15.87 19 12 19C8.13 19 5 15.87 5 12C5 10.07 5.78 8.32 7.05 7.05L12 12V5Z" />
    </g>
    <g id="mdi-circle-slice-8" transform="translate(504 324) scale(1.5)" fill="#555">
      <path d="M12 5C15.87 5 19 8.13 19 12C19 15.87 15.87 19 12 19C8.13 19 5 15.87 5 12C5 8.13 8.13 5 12 5M12 2C17.5 2 22 6.5 22 12C22 17.5 17.5 22 12 22C6.5 22 2 17.5 2 12C2 6.5 6.5 2 12 2M12 4C7.58 4 4 7.58 4 12C4 16.42 7.58 20 12 20C16.42 20 20 16.42 20 12C20 7.58 16.42 4 12 4Z" />
    </g>
    <g id="mdi-circle-slice-8" transform="translate(540 324) scale(1.5)" fill="#fff">
      <path d="M12 5C15.87 5 19 8.13 19 12C19 15.87 15.87 19 12 19C8.13 19 5 15.87 5 12C5 8.13 8.13 5 12 5M12 2C17.5 2 22 6.5 22 12C22 17.5 17.5 22 12 22C6.5 22 2 17.5 2 12C2 6.5 6.5 2 12 2M12 4C7.58 4 4 7.58 4 12C4 16.42 7.58 20 12 20C16.42 20 20 16.42 20 12C20 7.58 16.42 4 12 4Z" />
    </g>
    <g id="mdi-circle-small" transform="translate(576 324) scale(1.5)" fill="#555">
      <path d="M12,10A2,2 0 0,0 10,12C10,13.11 10.9,14 12,14C13.11,14 14,13.11 14,12A2,2 0 0,0 12,10Z" />
    </g>
    <g id="mdi-circle-small" transform="translate(612 324) scale(1.5)" fill="#fff">
      <path d="M12,10A2,2 0 0,0 10,12C10,13.11 10.9,14 12,14C13.11,14 14,13.11 14,12A2,2 0 0,0 12,10Z" />
    </g>
    <g id="mdi-circular-saw" transform="translate(648 324) scale(1.5)" fill="#555">
      <path d="M13,11A1,1 0 0,1 14,12A1,1 0 0,1 13,13A1,1 0 0,1 12,12A1,1 0 0,1 13,11M7.86,6.25C9.14,4.87 10.97,4 13,4C16.5,4 19.44,6.61 19.93,10H22V12H16A3,3 0 0,0 13,9A3,3 0 0,0 10,12H2V10H2.05C2.25,7.73 3.14,5.66 4.5,4L7.86,6.25M6.73,7.89L5.06,6.77C4.53,7.75 4.18,8.84 4.06,10H6.07C6.18,9.25 6.4,8.54 6.73,7.89M7.4,15.4L6,14H11.79C12.03,14.42 12.5,14.7 13,14.7C13.5,14.7 13.97,14.42 14.21,14H20V15.4C18.39,14.42 18.46,15.75 18.46,15.75V17.71L16.5,19.67C16,17.92 15.1,18.9 15.1,18.9L13.7,20.3H10.9C11.88,18.69 10.55,18.76 10.55,18.76H8.59L6.63,16.8C8.38,16.31 7.4,15.4 7.4,15.4Z" />
    </g>
    <g id="mdi-circular-saw" transform="translate(684 324) scale(1.5)" fill="#fff">
      <path d="M13,11A1,1 0 0,1 14,12A1,1 0 0,1 13,13A1,1 0 0,1 12,12A1,1 0 0,1 13,11M7.86,6.25C9.14,4.87 10.97,4 13,4C16.5,4 19.44,6.61 19.93,10H22V12H16A3,3 0 0,0 13,9A3,3 0 0,0 10,12H2V10H2.05C2.25,7.73 3.14,5.66 4.5,4L7.86,6.25M6.73,7.89L5.06,6.77C4.53,7.75 4.18,8.84 4.06,10H6.07C6.18,9.25 6.4,8.54 6.73,7.89M7.4,15.4L6,14H11.79C12.03,14.42 12.5,14.7 13,14.7C13.5,14.7 13.97,14.42 14.21,14H20V15.4C18.39,14.42 18.46,15.75 18.46,15.75V17.71L16.5,19.67C16,17.92 15.1,18.9 15.1,18.9L13.7,20.3H10.9C11.88,18.69 10.55,18.76 10.55,18.76H8.59L6.63,16.8C8.38,16.31 7.4,15.4 7.4,15.4Z" />
    </g>
  </svg>