<svg xmlns="http://www.w3.org/2000/svg" width="720" height="900"><path d="m20.07 4.93-1.41 1.41c3.13 3.12 3.13 8.19 0 11.32l1.41 1.41c3.9-3.9 3.9-10.23 0-14.14m-2.83 2.83-1.41 1.41a4.008 4.008 0 0 1 0 5.66l1.41 1.41a6 6 0 0 0 0-8.48M13 4h-2V2H5v2H3a1 1 0 0 0-1 1v16a1 1 0 0 0 1 1h10a1 1 0 0 0 1-1V5a1 1 0 0 0-1-1m-1 16H4V6h8v14Z" transform="scale(1.5)" id="mdi-battery-charging-wireless-outline" fill="#555"/><path d="m20.07 4.93-1.41 1.41c3.13 3.12 3.13 8.19 0 11.32l1.41 1.41c3.9-3.9 3.9-10.23 0-14.14m-2.83 2.83-1.41 1.41a4.008 4.008 0 0 1 0 5.66l1.41 1.41a6 6 0 0 0 0-8.48M13 4h-2V2H5v2H3a1 1 0 0 0-1 1v16a1 1 0 0 0 1 1h10a1 1 0 0 0 1-1V5a1 1 0 0 0-1-1m-1 16H4V6h8v14Z" transform="translate(36) scale(1.5)" id="mdi-battery-charging-wireless-outline" fill="#fff"/><path d="m16.75 21.16-2.75-3L15.16 17l1.59 1.59L20.34 15l1.16 1.41-4.75 4.75M12 18c0-3.31 2.69-6 6-6V5.33C18 4.6 17.4 4 16.67 4H15V2H9v2H7.33C6.6 4 6 4.6 6 5.33v15.34C6 21.4 6.6 22 7.33 22h6.21A5.93 5.93 0 0 1 12 18Z" transform="translate(72) scale(1.5)" id="mdi-battery-check" fill="#555"/><path d="m16.75 21.16-2.75-3L15.16 17l1.59 1.59L20.34 15l1.16 1.41-4.75 4.75M12 18c0-3.31 2.69-6 6-6V5.33C18 4.6 17.4 4 16.67 4H15V2H9v2H7.33C6.6 4 6 4.6 6 5.33v15.34C6 21.4 6.6 22 7.33 22h6.21A5.93 5.93 0 0 1 12 18Z" transform="translate(108) scale(1.5)" id="mdi-battery-check" fill="#fff"/><path d="m16.75 21.16-2.75-3L15.16 17l1.59 1.59L20.34 15l1.16 1.41-4.75 4.75M12.35 20H8V6h8v6.35c.63-.22 1.3-.35 2-.35V5.33C18 4.6 17.4 4 16.67 4H15V2H9v2H7.33C6.6 4 6 4.6 6 5.33v15.34C6 21.4 6.6 22 7.33 22h6.21c-.54-.58-.93-1.25-1.19-2Z" transform="translate(144) scale(1.5)" id="mdi-battery-check-outline" fill="#555"/><path d="m16.75 21.16-2.75-3L15.16 17l1.59 1.59L20.34 15l1.16 1.41-4.75 4.75M12.35 20H8V6h8v6.35c.63-.22 1.3-.35 2-.35V5.33C18 4.6 17.4 4 16.67 4H15V2H9v2H7.33C6.6 4 6 4.6 6 5.33v15.34C6 21.4 6.6 22 7.33 22h6.21c-.54-.58-.93-1.25-1.19-2Z" transform="translate(180) scale(1.5)" id="mdi-battery-check-outline" fill="#fff"/><path d="M12.67 4H11V2H5v2H3.33A1.34 1.34 0 0 0 2 5.33v15.34A1.34 1.34 0 0 0 3.33 22h9.34A1.34 1.34 0 0 0 14 20.67V5.33A1.34 1.34 0 0 0 12.67 4M19 16.17l-.58-.53C16.36 13.77 15 12.54 15 11a2.18 2.18 0 0 1 2.2-2.2 2.4 2.4 0 0 1 1.8.83 2.4 2.4 0 0 1 1.8-.83A2.18 2.18 0 0 1 23 11c0 1.5-1.36 2.74-3.42 4.61Z" transform="translate(216) scale(1.5)" id="mdi-battery-heart" fill="#555"/><path d="M12.67 4H11V2H5v2H3.33A1.34 1.34 0 0 0 2 5.33v15.34A1.34 1.34 0 0 0 3.33 22h9.34A1.34 1.34 0 0 0 14 20.67V5.33A1.34 1.34 0 0 0 12.67 4M19 16.17l-.58-.53C16.36 13.77 15 12.54 15 11a2.18 2.18 0 0 1 2.2-2.2 2.4 2.4 0 0 1 1.8.83 2.4 2.4 0 0 1 1.8-.83A2.18 2.18 0 0 1 23 11c0 1.5-1.36 2.74-3.42 4.61Z" transform="translate(252) scale(1.5)" id="mdi-battery-heart" fill="#fff"/><path d="m19 16.2-.6-.5c-2-1.9-3.4-3.2-3.4-4.7 0-1.2 1-2.2 2.2-2.2.7 0 1.3.3 1.8.8.5-.5 1.1-.8 1.8-.8 1.2 0 2.2 1 2.2 2.2 0 1.5-1.4 2.7-3.4 4.6l-.6.6M12.7 4H11V2H5v2H3.3C2.6 4 2 4.6 2 5.3v15.3c0 .8.6 1.4 1.3 1.4h9.3c.7 0 1.3-.6 1.3-1.3V5.3c.1-.7-.5-1.3-1.2-1.3M12 20H4V6h8v14Z" transform="translate(288) scale(1.5)" id="mdi-battery-heart-outline" fill="#555"/><path d="m19 16.2-.6-.5c-2-1.9-3.4-3.2-3.4-4.7 0-1.2 1-2.2 2.2-2.2.7 0 1.3.3 1.8.8.5-.5 1.1-.8 1.8-.8 1.2 0 2.2 1 2.2 2.2 0 1.5-1.4 2.7-3.4 4.6l-.6.6M12.7 4H11V2H5v2H3.3C2.6 4 2 4.6 2 5.3v15.3c0 .8.6 1.4 1.3 1.4h9.3c.7 0 1.3-.6 1.3-1.3V5.3c.1-.7-.5-1.3-1.2-1.3M12 20H4V6h8v14Z" transform="translate(324) scale(1.5)" id="mdi-battery-heart-outline" fill="#fff"/><path d="M16.67 4H15V2H9v2H7.33A1.34 1.34 0 0 0 6 5.33v15.34A1.34 1.34 0 0 0 7.33 22h9.34A1.34 1.34 0 0 0 18 20.67V5.33A1.34 1.34 0 0 0 16.67 4m-4.09 11.64-.58.53-.58-.53C9.36 13.77 8 12.54 8 11a2.18 2.18 0 0 1 2.2-2.2 2.4 2.4 0 0 1 1.8.83 2.4 2.4 0 0 1 1.8-.83A2.18 2.18 0 0 1 16 11c0 1.54-1.36 2.77-3.42 4.64Z" transform="translate(360) scale(1.5)" id="mdi-battery-heart-variant" fill="#555"/><path d="M16.67 4H15V2H9v2H7.33A1.34 1.34 0 0 0 6 5.33v15.34A1.34 1.34 0 0 0 7.33 22h9.34A1.34 1.34 0 0 0 18 20.67V5.33A1.34 1.34 0 0 0 16.67 4m-4.09 11.64-.58.53-.58-.53C9.36 13.77 8 12.54 8 11a2.18 2.18 0 0 1 2.2-2.2 2.4 2.4 0 0 1 1.8.83 2.4 2.4 0 0 1 1.8-.83A2.18 2.18 0 0 1 16 11c0 1.54-1.36 2.77-3.42 4.64Z" transform="translate(396) scale(1.5)" id="mdi-battery-heart-variant" fill="#fff"/><path d="M16 20H8V6h8m.67-2H15V2H9v2H7.33C6.6 4 6 4.6 6 5.33v15.34C6 21.4 6.6 22 7.33 22h9.34c.74 0 1.33-.59 1.33-1.33V5.33C18 4.6 17.4 4 16.67 4M15 16H9v3h6v-3m0-9H9v3h6V7m0 4.5H9v3h6v-3Z" transform="translate(432) scale(1.5)" id="mdi-battery-high" fill="#555"/><path d="M16 20H8V6h8m.67-2H15V2H9v2H7.33C6.6 4 6 4.6 6 5.33v15.34C6 21.4 6.6 22 7.33 22h9.34c.74 0 1.33-.59 1.33-1.33V5.33C18 4.6 17.4 4 16.67 4M15 16H9v3h6v-3m0-9H9v3h6V7m0 4.5H9v3h6v-3Z" transform="translate(468) scale(1.5)" id="mdi-battery-high" fill="#fff"/><path d="M19.8 16v-1.5c0-1.4-1.4-2.5-2.8-2.5s-2.8 1.1-2.8 2.5V16c-.6 0-1.2.6-1.2 1.2v3.5c0 .7.6 1.3 1.2 1.3h5.5c.7 0 1.3-.6 1.3-1.2v-3.5c0-.7-.6-1.3-1.2-1.3m-1.3 0h-3v-1.5c0-.8.7-1.3 1.5-1.3s1.5.5 1.5 1.3V16m-7.23 6H5.33C4.6 22 4 21.4 4 20.67V5.33C4 4.6 4.6 4 5.33 4H7V2h6v2h1.67C15.4 4 16 4.6 16 5.33v4.78c-2.14.44-3.8 2.27-3.8 4.39v.24c-.7.6-1.2 1.5-1.2 2.46v3.5c0 .46.1.9.27 1.3Z" transform="translate(504) scale(1.5)" id="mdi-battery-lock" fill="#555"/><path d="M19.8 16v-1.5c0-1.4-1.4-2.5-2.8-2.5s-2.8 1.1-2.8 2.5V16c-.6 0-1.2.6-1.2 1.2v3.5c0 .7.6 1.3 1.2 1.3h5.5c.7 0 1.3-.6 1.3-1.2v-3.5c0-.7-.6-1.3-1.2-1.3m-1.3 0h-3v-1.5c0-.8.7-1.3 1.5-1.3s1.5.5 1.5 1.3V16m-7.23 6H5.33C4.6 22 4 21.4 4 20.67V5.33C4 4.6 4.6 4 5.33 4H7V2h6v2h1.67C15.4 4 16 4.6 16 5.33v4.78c-2.14.44-3.8 2.27-3.8 4.39v.24c-.7.6-1.2 1.5-1.2 2.46v3.5c0 .46.1.9.27 1.3Z" transform="translate(540) scale(1.5)" id="mdi-battery-lock" fill="#fff"/><path d="M19.8 16h-4.3v-2.5c0-.8.7-1.3 1.5-1.3s1.5.5 1.5 1.3v.5h1.3v-.5c0-1.4-1.4-2.5-2.8-2.5s-2.8 1.1-2.8 2.5V16c-.6 0-1.2.6-1.2 1.2v3.5c0 .7.6 1.3 1.2 1.3h5.5c.7 0 1.3-.6 1.3-1.2v-3.5c0-.7-.6-1.3-1.2-1.3m-8.53 6H5.33C4.6 22 4 21.4 4 20.67V5.33C4 4.6 4.6 4 5.33 4H7V2h6v2h1.67C15.4 4 16 4.6 16 5.33v3.78c-2.14.44-3.8 2.27-3.8 4.39v1.24c-.7.6-1.2 1.5-1.2 2.46v3.5c0 .23.03.45.07.67l.01.02c.04.21.11.41.19.61Z" transform="translate(576) scale(1.5)" id="mdi-battery-lock-open" fill="#555"/><path d="M19.8 16h-4.3v-2.5c0-.8.7-1.3 1.5-1.3s1.5.5 1.5 1.3v.5h1.3v-.5c0-1.4-1.4-2.5-2.8-2.5s-2.8 1.1-2.8 2.5V16c-.6 0-1.2.6-1.2 1.2v3.5c0 .7.6 1.3 1.2 1.3h5.5c.7 0 1.3-.6 1.3-1.2v-3.5c0-.7-.6-1.3-1.2-1.3m-8.53 6H5.33C4.6 22 4 21.4 4 20.67V5.33C4 4.6 4.6 4 5.33 4H7V2h6v2h1.67C15.4 4 16 4.6 16 5.33v3.78c-2.14.44-3.8 2.27-3.8 4.39v1.24c-.7.6-1.2 1.5-1.2 2.46v3.5c0 .23.03.45.07.67l.01.02c.04.21.11.41.19.61Z" transform="translate(612) scale(1.5)" id="mdi-battery-lock-open" fill="#fff"/><path d="M16 20H8V6h8m.67-2H15V2H9v2H7.33C6.6 4 6 4.6 6 5.33v15.34C6 21.4 6.6 22 7.33 22h9.34c.74 0 1.33-.59 1.33-1.33V5.33C18 4.6 17.4 4 16.67 4M15 16H9v3h6v-3" transform="translate(648) scale(1.5)" id="mdi-battery-low" fill="#555"/><path d="M16 20H8V6h8m.67-2H15V2H9v2H7.33C6.6 4 6 4.6 6 5.33v15.34C6 21.4 6.6 22 7.33 22h9.34c.74 0 1.33-.59 1.33-1.33V5.33C18 4.6 17.4 4 16.67 4M15 16H9v3h6v-3" transform="translate(684) scale(1.5)" id="mdi-battery-low" fill="#fff"/><path d="M16 20H8V6h8m.67-2H15V2H9v2H7.33C6.6 4 6 4.6 6 5.33v15.34C6 21.4 6.6 22 7.33 22h9.34c.74 0 1.33-.59 1.33-1.33V5.33C18 4.6 17.4 4 16.67 4M15 16H9v3h6v-3m0-4.5H9v3h6v-3Z" transform="matrix(1.5 0 0 1.5 0 36)" id="mdi-battery-medium" fill="#555"/><path d="M16 20H8V6h8m.67-2H15V2H9v2H7.33C6.6 4 6 4.6 6 5.33v15.34C6 21.4 6.6 22 7.33 22h9.34c.74 0 1.33-.59 1.33-1.33V5.33C18 4.6 17.4 4 16.67 4M15 16H9v3h6v-3m0-4.5H9v3h6v-3Z" transform="matrix(1.5 0 0 1.5 36 36)" id="mdi-battery-medium" fill="#fff"/><path d="M13.54 22H7.33C6.6 22 6 21.4 6 20.67V5.33C6 4.6 6.6 4 7.33 4H9V2h6v2h1.67C17.4 4 18 4.6 18 5.33V12c-3.31 0-6 2.69-6 6 0 1.54.58 2.94 1.54 4M22 17v2h-8v-2h8Z" transform="matrix(1.5 0 0 1.5 72 36)" id="mdi-battery-minus" fill="#555"/><path d="M13.54 22H7.33C6.6 22 6 21.4 6 20.67V5.33C6 4.6 6.6 4 7.33 4H9V2h6v2h1.67C17.4 4 18 4.6 18 5.33V12c-3.31 0-6 2.69-6 6 0 1.54.58 2.94 1.54 4M22 17v2h-8v-2h8Z" transform="matrix(1.5 0 0 1.5 108 36)" id="mdi-battery-minus" fill="#fff"/><path d="M13.54 22H7.33C6.6 22 6 21.4 6 20.67V5.33C6 4.6 6.6 4 7.33 4H9V2h6v2h1.67C17.4 4 18 4.6 18 5.33V12c-.7 0-1.37.13-2 .35V6H8v14h4.35c.26.75.65 1.42 1.19 2M22 17v2h-8v-2h8Z" transform="matrix(1.5 0 0 1.5 144 36)" id="mdi-battery-minus-outline" fill="#555"/><path d="M13.54 22H7.33C6.6 22 6 21.4 6 20.67V5.33C6 4.6 6.6 4 7.33 4H9V2h6v2h1.67C17.4 4 18 4.6 18 5.33V12c-.7 0-1.37.13-2 .35V6H8v14h4.35c.26.75.65 1.42 1.19 2M22 17v2h-8v-2h8Z" transform="matrix(1.5 0 0 1.5 180 36)" id="mdi-battery-minus-outline" fill="#fff"/><path d="M16.67 4C17.4 4 18 4.6 18 5.33v15.34A1.33 1.33 0 0 1 16.67 22H7.33C6.6 22 6 21.4 6 20.67V5.33A1.33 1.33 0 0 1 7.33 4H9V2h6v2h1.67M8 12v2h8v-2" transform="matrix(1.5 0 0 1.5 216 36)" id="mdi-battery-minus-variant" fill="#555"/><path d="M16.67 4C17.4 4 18 4.6 18 5.33v15.34A1.33 1.33 0 0 1 16.67 22H7.33C6.6 22 6 21.4 6 20.67V5.33A1.33 1.33 0 0 1 7.33 4H9V2h6v2h1.67M8 12v2h8v-2" transform="matrix(1.5 0 0 1.5 252 36)" id="mdi-battery-minus-variant" fill="#fff"/><path d="M11.67 4A1.33 1.33 0 0 1 13 5.33v15.34c0 .73-.6 1.33-1.33 1.33H2.33C1.6 22 1 21.4 1 20.67V5.33A1.33 1.33 0 0 1 2.33 4H4V2h6v2h1.67M15 12h8v2h-8v-2M3 13h8V6H3v7Z" transform="matrix(1.5 0 0 1.5 288 36)" id="mdi-battery-negative" fill="#555"/><path d="M11.67 4A1.33 1.33 0 0 1 13 5.33v15.34c0 .73-.6 1.33-1.33 1.33H2.33C1.6 22 1 21.4 1 20.67V5.33A1.33 1.33 0 0 1 2.33 4H4V2h6v2h1.67M15 12h8v2h-8v-2M3 13h8V6H3v7Z" transform="matrix(1.5 0 0 1.5 324 36)" id="mdi-battery-negative" fill="#fff"/><path d="M18 14.8 7.21 4H9V2h6v2h1.67A1.34 1.34 0 0 1 18 5.33m0 12.02L3.38 2.73 2.11 4 6 7.89v12.78A1.34 1.34 0 0 0 7.33 22h9.34A1.34 1.34 0 0 0 18 20.67v-.78l2.84 2.84 1.27-1.27Z" transform="matrix(1.5 0 0 1.5 360 36)" id="mdi-battery-off" fill="#555"/><path d="M18 14.8 7.21 4H9V2h6v2h1.67A1.34 1.34 0 0 1 18 5.33m0 12.02L3.38 2.73 2.11 4 6 7.89v12.78A1.34 1.34 0 0 0 7.33 22h9.34A1.34 1.34 0 0 0 18 20.67v-.78l2.84 2.84 1.27-1.27Z" transform="matrix(1.5 0 0 1.5 396 36)" id="mdi-battery-off" fill="#fff"/><path d="M18 17.35 3.38 2.73 2.11 4 6 7.89v12.78A1.34 1.34 0 0 0 7.33 22h9.34A1.34 1.34 0 0 0 18 20.67v-.78l2.84 2.84 1.27-1.27M16 20H8V9.89l8 8M16 6v6.8l2 2V5.33A1.34 1.34 0 0 0 16.67 4H15V2H9v2H7.21l2 2Z" transform="matrix(1.5 0 0 1.5 432 36)" id="mdi-battery-off-outline" fill="#555"/><path d="M18 17.35 3.38 2.73 2.11 4 6 7.89v12.78A1.34 1.34 0 0 0 7.33 22h9.34A1.34 1.34 0 0 0 18 20.67v-.78l2.84 2.84 1.27-1.27M16 20H8V9.89l8 8M16 6v6.8l2 2V5.33A1.34 1.34 0 0 0 16.67 4H15V2H9v2H7.21l2 2Z" transform="matrix(1.5 0 0 1.5 468 36)" id="mdi-battery-off-outline" fill="#fff"/><path d="M16 20H8V6h8m.67-2H15V2H9v2H7.33A1.33 1.33 0 0 0 6 5.33v15.34C6 21.4 6.6 22 7.33 22h9.34A1.33 1.33 0 0 0 18 20.67V5.33C18 4.6 17.4 4 16.67 4Z" transform="matrix(1.5 0 0 1.5 504 36)" id="mdi-battery-outline" fill="#555"/><path d="M16 20H8V6h8m.67-2H15V2H9v2H7.33A1.33 1.33 0 0 0 6 5.33v15.34C6 21.4 6.6 22 7.33 22h9.34A1.33 1.33 0 0 0 18 20.67V5.33C18 4.6 17.4 4 16.67 4Z" transform="matrix(1.5 0 0 1.5 540 36)" id="mdi-battery-outline" fill="#fff"/><path d="M13.54 22H7.33C6.6 22 6 21.4 6 20.67V5.33C6 4.6 6.6 4 7.33 4H9V2h6v2h1.67C17.4 4 18 4.6 18 5.33V12c-3.31 0-6 2.69-6 6 0 1.54.58 2.94 1.54 4M22 17v2h-3v3h-2v-3h-3v-2h3v-3h2v3h3Z" transform="matrix(1.5 0 0 1.5 576 36)" id="mdi-battery-plus" fill="#555"/><path d="M13.54 22H7.33C6.6 22 6 21.4 6 20.67V5.33C6 4.6 6.6 4 7.33 4H9V2h6v2h1.67C17.4 4 18 4.6 18 5.33V12c-3.31 0-6 2.69-6 6 0 1.54.58 2.94 1.54 4M22 17v2h-3v3h-2v-3h-3v-2h3v-3h2v3h3Z" transform="matrix(1.5 0 0 1.5 612 36)" id="mdi-battery-plus" fill="#fff"/><path d="M13.54 22H7.33C6.6 22 6 21.4 6 20.67V5.33C6 4.6 6.6 4 7.33 4H9V2h6v2h1.67C17.4 4 18 4.6 18 5.33V12c-.7 0-1.37.13-2 .35V6H8v14h4.35c.26.75.65 1.42 1.19 2M22 17v2h-3v3h-2v-3h-3v-2h3v-3h2v3h3Z" transform="matrix(1.5 0 0 1.5 648 36)" id="mdi-battery-plus-outline" fill="#555"/><path d="M13.54 22H7.33C6.6 22 6 21.4 6 20.67V5.33C6 4.6 6.6 4 7.33 4H9V2h6v2h1.67C17.4 4 18 4.6 18 5.33V12c-.7 0-1.37.13-2 .35V6H8v14h4.35c.26.75.65 1.42 1.19 2M22 17v2h-3v3h-2v-3h-3v-2h3v-3h2v3h3Z" transform="matrix(1.5 0 0 1.5 684 36)" id="mdi-battery-plus-outline" fill="#fff"/><path d="M16.67 4C17.4 4 18 4.6 18 5.33v15.34A1.33 1.33 0 0 1 16.67 22H7.33C6.6 22 6 21.4 6 20.67V5.33A1.33 1.33 0 0 1 7.33 4H9V2h6v2h1.67M16 14v-2h-3V9h-2v3H8v2h3v3h2v-3h3Z" transform="matrix(1.5 0 0 1.5 0 72)" id="mdi-battery-plus-variant" fill="#555"/><path d="M16.67 4C17.4 4 18 4.6 18 5.33v15.34A1.33 1.33 0 0 1 16.67 22H7.33C6.6 22 6 21.4 6 20.67V5.33A1.33 1.33 0 0 1 7.33 4H9V2h6v2h1.67M16 14v-2h-3V9h-2v3H8v2h3v3h2v-3h3Z" transform="matrix(1.5 0 0 1.5 36 72)" id="mdi-battery-plus-variant" fill="#fff"/><path d="M11.67 4A1.33 1.33 0 0 1 13 5.33v15.34c0 .73-.6 1.33-1.33 1.33H2.33C1.6 22 1 21.4 1 20.67V5.33A1.33 1.33 0 0 1 2.33 4H4V2h6v2h1.67M23 14h-3v3h-2v-3h-3v-2h3V9h2v3h3v2M3 13h8V6H3v7Z" transform="matrix(1.5 0 0 1.5 72 72)" id="mdi-battery-positive" fill="#555"/><path d="M11.67 4A1.33 1.33 0 0 1 13 5.33v15.34c0 .73-.6 1.33-1.33 1.33H2.33C1.6 22 1 21.4 1 20.67V5.33A1.33 1.33 0 0 1 2.33 4H4V2h6v2h1.67M23 14h-3v3h-2v-3h-3v-2h3V9h2v3h3v2M3 13h8V6H3v7Z" transform="matrix(1.5 0 0 1.5 108 72)" id="mdi-battery-positive" fill="#fff"/><path d="M13.54 22H7.33C6.6 22 6 21.4 6 20.67V5.33C6 4.6 6.6 4 7.33 4H9V2h6v2h1.67C17.4 4 18 4.6 18 5.33V12c-3.31 0-6 2.69-6 6 0 1.54.58 2.94 1.54 4m8-1.88-1.42 1.42L18 19.41l-2.12 2.13-1.41-1.42L16.59 18l-2.12-2.12 1.41-1.41L18 16.59l2.12-2.12 1.42 1.41L19.41 18l2.13 2.12Z" transform="matrix(1.5 0 0 1.5 144 72)" id="mdi-battery-remove" fill="#555"/><path d="M13.54 22H7.33C6.6 22 6 21.4 6 20.67V5.33C6 4.6 6.6 4 7.33 4H9V2h6v2h1.67C17.4 4 18 4.6 18 5.33V12c-3.31 0-6 2.69-6 6 0 1.54.58 2.94 1.54 4m8-1.88-1.42 1.42L18 19.41l-2.12 2.13-1.41-1.42L16.59 18l-2.12-2.12 1.41-1.41L18 16.59l2.12-2.12 1.42 1.41L19.41 18l2.13 2.12Z" transform="matrix(1.5 0 0 1.5 180 72)" id="mdi-battery-remove" fill="#fff"/><path d="M13.54 22H7.33C6.6 22 6 21.4 6 20.67V5.33C6 4.6 6.6 4 7.33 4H9V2h6v2h1.67C17.4 4 18 4.6 18 5.33V12c-.7 0-1.37.13-2 .35V6H8v14h4.35c.26.75.65 1.42 1.19 2m8-1.88-1.42 1.42L18 19.41l-2.12 2.13-1.41-1.42L16.59 18l-2.12-2.12 1.41-1.41L18 16.59l2.12-2.12 1.42 1.41L19.41 18l2.13 2.12Z" transform="matrix(1.5 0 0 1.5 216 72)" id="mdi-battery-remove-outline" fill="#555"/><path d="M13.54 22H7.33C6.6 22 6 21.4 6 20.67V5.33C6 4.6 6.6 4 7.33 4H9V2h6v2h1.67C17.4 4 18 4.6 18 5.33V12c-.7 0-1.37.13-2 .35V6H8v14h4.35c.26.75.65 1.42 1.19 2m8-1.88-1.42 1.42L18 19.41l-2.12 2.13-1.41-1.42L16.59 18l-2.12-2.12 1.41-1.41L18 16.59l2.12-2.12 1.42 1.41L19.41 18l2.13 2.12Z" transform="matrix(1.5 0 0 1.5 252 72)" id="mdi-battery-remove-outline" fill="#fff"/><path d="M13.54 22H7.33C6.6 22 6 21.4 6 20.67V5.33C6 4.6 6.6 4 7.33 4H9V2h6v2h1.67C17.4 4 18 4.6 18 5.33V12c-3.31 0-6 2.69-6 6 0 1.54.58 2.94 1.54 4M18 13l2.25 2.25L18 17.5V16c-1.85 0-3.06 1.96-2.24 3.62l-1.09 1.09c-1.76-2.66.14-6.21 3.33-6.21V13m0 11-2.25-2.25L18 19.5V21c1.85 0 3.06-1.96 2.24-3.62l1.09-1.09c1.76 2.66-.14 6.21-3.33 6.21V24" transform="matrix(1.5 0 0 1.5 288 72)" id="mdi-battery-sync" fill="#555"/><path d="M13.54 22H7.33C6.6 22 6 21.4 6 20.67V5.33C6 4.6 6.6 4 7.33 4H9V2h6v2h1.67C17.4 4 18 4.6 18 5.33V12c-3.31 0-6 2.69-6 6 0 1.54.58 2.94 1.54 4M18 13l2.25 2.25L18 17.5V16c-1.85 0-3.06 1.96-2.24 3.62l-1.09 1.09c-1.76-2.66.14-6.21 3.33-6.21V13m0 11-2.25-2.25L18 19.5V21c1.85 0 3.06-1.96 2.24-3.62l1.09-1.09c1.76 2.66-.14 6.21-3.33 6.21V24" transform="matrix(1.5 0 0 1.5 324 72)" id="mdi-battery-sync" fill="#fff"/><path d="M13.54 22H7.33C6.6 22 6 21.4 6 20.67V5.33C6 4.6 6.6 4 7.33 4H9V2h6v2h1.67C17.4 4 18 4.6 18 5.33V12c-.7 0-1.37.13-2 .35V6H8v14h4.35c.26.75.65 1.42 1.19 2M18 13l2.25 2.25L18 17.5V16c-1.85 0-3.06 1.96-2.24 3.62l-1.09 1.09c-1.76-2.66.14-6.21 3.33-6.21V13m0 11-2.25-2.25L18 19.5V21c1.85 0 3.06-1.96 2.24-3.62l1.09-1.09c1.76 2.66-.14 6.21-3.33 6.21V24" transform="matrix(1.5 0 0 1.5 360 72)" id="mdi-battery-sync-outline" fill="#555"/><path d="M13.54 22H7.33C6.6 22 6 21.4 6 20.67V5.33C6 4.6 6.6 4 7.33 4H9V2h6v2h1.67C17.4 4 18 4.6 18 5.33V12c-.7 0-1.37.13-2 .35V6H8v14h4.35c.26.75.65 1.42 1.19 2M18 13l2.25 2.25L18 17.5V16c-1.85 0-3.06 1.96-2.24 3.62l-1.09 1.09c-1.76-2.66.14-6.21 3.33-6.21V13m0 11-2.25-2.25L18 19.5V21c1.85 0 3.06-1.96 2.24-3.62l1.09-1.09c1.76 2.66-.14 6.21-3.33 6.21V24" transform="matrix(1.5 0 0 1.5 396 72)" id="mdi-battery-sync-outline" fill="#fff"/><path d="m15.07 12.25-.9.92c-.54.54-.92 1.01-1.08 1.83h-2.04c.11-.9.51-1.72 1.12-2.33l1.24-1.26c.37-.36.59-.86.59-1.41a2 2 0 0 0-2-2 2 2 0 0 0-2 2H8a4 4 0 0 1 4-4 4 4 0 0 1 4 4c0 .88-.36 1.68-.93 2.25M13 19h-2v-2h2m3.67-13H15V2H9v2H7.33A1.33 1.33 0 0 0 6 5.33v15.33C6 21.4 6.6 22 7.33 22h9.34c.73 0 1.33-.6 1.33-1.34V5.33C18 4.59 17.4 4 16.67 4Z" transform="matrix(1.5 0 0 1.5 432 72)" id="mdi-battery-unknown" fill="#555"/><path d="m15.07 12.25-.9.92c-.54.54-.92 1.01-1.08 1.83h-2.04c.11-.9.51-1.72 1.12-2.33l1.24-1.26c.37-.36.59-.86.59-1.41a2 2 0 0 0-2-2 2 2 0 0 0-2 2H8a4 4 0 0 1 4-4 4 4 0 0 1 4 4c0 .88-.36 1.68-.93 2.25M13 19h-2v-2h2m3.67-13H15V2H9v2H7.33A1.33 1.33 0 0 0 6 5.33v15.33C6 21.4 6.6 22 7.33 22h9.34c.73 0 1.33-.6 1.33-1.34V5.33C18 4.59 17.4 4 16.67 4Z" transform="matrix(1.5 0 0 1.5 468 72)" id="mdi-battery-unknown" fill="#fff"/><path d="M5 2v2H3.33A1.33 1.33 0 0 0 2 5.33v15.33C2 21.4 2.6 22 3.33 22h9.34c.73 0 1.33-.6 1.33-1.34V5.33C14 4.59 13.4 4 12.67 4H11V2H5m3 4a4 4 0 0 1 4 4c0 .88-.36 1.68-.93 2.25l-.9.92c-.54.54-.92 1.01-1.08 1.83H7.05c.11-.9.51-1.72 1.12-2.33l1.24-1.26c.37-.36.59-.86.59-1.41a2 2 0 0 0-2-2 2 2 0 0 0-2 2H4a4 4 0 0 1 4-4m11 2v3.79L16.71 9.5l-.71.71L18.79 13 16 15.79l.71.71L19 14.21V18h.5l2.85-2.86L20.21 13l2.14-2.15L19.5 8H19m1 1.91.94.94-.94.94V9.91m0 4.3.94.93-.94.94v-1.87M7 17h2v2H7v-2Z" transform="matrix(1.5 0 0 1.5 504 72)" id="mdi-battery-unknown-bluetooth" fill="#555"/><path d="M5 2v2H3.33A1.33 1.33 0 0 0 2 5.33v15.33C2 21.4 2.6 22 3.33 22h9.34c.73 0 1.33-.6 1.33-1.34V5.33C14 4.59 13.4 4 12.67 4H11V2H5m3 4a4 4 0 0 1 4 4c0 .88-.36 1.68-.93 2.25l-.9.92c-.54.54-.92 1.01-1.08 1.83H7.05c.11-.9.51-1.72 1.12-2.33l1.24-1.26c.37-.36.59-.86.59-1.41a2 2 0 0 0-2-2 2 2 0 0 0-2 2H4a4 4 0 0 1 4-4m11 2v3.79L16.71 9.5l-.71.71L18.79 13 16 15.79l.71.71L19 14.21V18h.5l2.85-2.86L20.21 13l2.14-2.15L19.5 8H19m1 1.91.94.94-.94.94V9.91m0 4.3.94.93-.94.94v-1.87M7 17h2v2H7v-2Z" transform="matrix(1.5 0 0 1.5 540 72)" id="mdi-battery-unknown-bluetooth" fill="#fff"/><path d="M15 18.54c2.13-.33 4.5-.54 7-.54v4H5c0-.65 3.2-2.14 8-3.1v-6.5c-.84.25-1.55.81-2 1.55a3.495 3.495 0 0 0-6 0c.03-3.58 3.5-6.52 8-6.91V7a1 1 0 0 1 1-1 1 1 0 0 1 1 1v.04c4.5.39 7.96 3.33 8 6.91a3.495 3.495 0 0 0-6 0c-.45-.74-1.16-1.3-2-1.56v6.15M7 2a5 5 0 0 1-5 5V2h5Z" transform="matrix(1.5 0 0 1.5 576 72)" id="mdi-beach" fill="#555"/><path d="M15 18.54c2.13-.33 4.5-.54 7-.54v4H5c0-.65 3.2-2.14 8-3.1v-6.5c-.84.25-1.55.81-2 1.55a3.495 3.495 0 0 0-6 0c.03-3.58 3.5-6.52 8-6.91V7a1 1 0 0 1 1-1 1 1 0 0 1 1 1v.04c4.5.39 7.96 3.33 8 6.91a3.495 3.495 0 0 0-6 0c-.45-.74-1.16-1.3-2-1.56v6.15M7 2a5 5 0 0 1-5 5V2h5Z" transform="matrix(1.5 0 0 1.5 612 72)" id="mdi-beach" fill="#fff"/><path d="M3 3v2a2 2 0 0 1 2 2v12a2 2 0 0 0 2 2h10a2 2 0 0 0 2-2V7a2 2 0 0 1 2-2V3H3m4 6h3v1H7V9m0 2h3v1H7v-1m3 5H7v-1h3v1m2-2H7v-1h5v1m0-6H7V7h5v1Z" transform="matrix(1.5 0 0 1.5 648 72)" id="mdi-beaker" fill="#555"/><path d="M3 3v2a2 2 0 0 1 2 2v12a2 2 0 0 0 2 2h10a2 2 0 0 0 2-2V7a2 2 0 0 1 2-2V3H3m4 6h3v1H7V9m0 2h3v1H7v-1m3 5H7v-1h3v1m2-2H7v-1h5v1m0-6H7V7h5v1Z" transform="matrix(1.5 0 0 1.5 684 72)" id="mdi-beaker" fill="#fff"/><path d="M3 3h18v2c-1.1 0-2 .9-2 2v12c0 1.1-.9 2-2 2H7c-1.1 0-2-.9-2-2V7c0-1.1-.9-2-2-2V3m4 6v1h3V9H7m0 2v1h3v-1H7m3 5v-1H7v1h3m2-2v-1H7v1h5m0-6V7H7v1h5m9 5V7h2v6h-2m0 4v-2h2v2h-2Z" transform="matrix(1.5 0 0 1.5 0 108)" id="mdi-beaker-alert" fill="#555"/><path d="M3 3h18v2c-1.1 0-2 .9-2 2v12c0 1.1-.9 2-2 2H7c-1.1 0-2-.9-2-2V7c0-1.1-.9-2-2-2V3m4 6v1h3V9H7m0 2v1h3v-1H7m3 5v-1H7v1h3m2-2v-1H7v1h5m0-6V7H7v1h5m9 5V7h2v6h-2m0 4v-2h2v2h-2Z" transform="matrix(1.5 0 0 1.5 36 108)" id="mdi-beaker-alert" fill="#fff"/><path d="M3 3h18v2c-1.1 0-2 .9-2 2v12c0 1.11-.89 2-2 2H7a2 2 0 0 1-2-2V7a2 2 0 0 0-2-2V3m4 2v2h5v1H7v1h3v1H7v1h3v1H7v1h5v1H7v1h3v1H7v3h10V5H7m14 8V7h2v6h-2m0 4v-2h2v2h-2Z" transform="matrix(1.5 0 0 1.5 72 108)" id="mdi-beaker-alert-outline" fill="#555"/><path d="M3 3h18v2c-1.1 0-2 .9-2 2v12c0 1.11-.89 2-2 2H7a2 2 0 0 1-2-2V7a2 2 0 0 0-2-2V3m4 2v2h5v1H7v1h3v1H7v1h3v1H7v1h5v1H7v1h3v1H7v3h10V5H7m14 8V7h2v6h-2m0 4v-2h2v2h-2Z" transform="matrix(1.5 0 0 1.5 108 108)" id="mdi-beaker-alert-outline" fill="#fff"/><path d="m17.75 21.16-2.75-3L16.16 17l1.59 1.59L21.34 15l1.16 1.41-4.75 4.75M3 3h18v2c-1.1 0-2 .9-2 2v5a6.005 6.005 0 0 0-5.2 9H7c-1.1 0-2-.9-2-2V7c0-1.1-.9-2-2-2V3m4 6v1h3V9H7m0 2v1h3v-1H7m3 5v-1H7v1h3m2-2v-1H7v1h5m0-6V7H7v1h5Z" transform="matrix(1.5 0 0 1.5 144 108)" id="mdi-beaker-check" fill="#555"/><path d="m17.75 21.16-2.75-3L16.16 17l1.59 1.59L21.34 15l1.16 1.41-4.75 4.75M3 3h18v2c-1.1 0-2 .9-2 2v5a6.005 6.005 0 0 0-5.2 9H7c-1.1 0-2-.9-2-2V7c0-1.1-.9-2-2-2V3m4 6v1h3V9H7m0 2v1h3v-1H7m3 5v-1H7v1h3m2-2v-1H7v1h5m0-6V7H7v1h5Z" transform="matrix(1.5 0 0 1.5 180 108)" id="mdi-beaker-check" fill="#fff"/><path d="m17.75 21.16-2.75-3L16.16 17l1.59 1.59L21.34 15l1.16 1.41-4.75 4.75M3 3h18v2c-1.1 0-2 .9-2 2v5c-.7 0-1.37.12-2 .34V5H7v2h5v1H7v1h3v1H7v1h3v1H7v1h5v1H7v1h3v1H7v3h6.08c.12.72.37 1.39.72 2H7a2 2 0 0 1-2-2V7a2 2 0 0 0-2-2V3Z" transform="matrix(1.5 0 0 1.5 216 108)" id="mdi-beaker-check-outline" fill="#555"/><path d="m17.75 21.16-2.75-3L16.16 17l1.59 1.59L21.34 15l1.16 1.41-4.75 4.75M3 3h18v2c-1.1 0-2 .9-2 2v5c-.7 0-1.37.12-2 .34V5H7v2h5v1H7v1h3v1H7v1h3v1H7v1h5v1H7v1h3v1H7v3h6.08c.12.72.37 1.39.72 2H7a2 2 0 0 1-2-2V7a2 2 0 0 0-2-2V3Z" transform="matrix(1.5 0 0 1.5 252 108)" id="mdi-beaker-check-outline" fill="#fff"/><path d="M23 17v2h-8v-2h8M3 3h18v2c-1.1 0-2 .9-2 2v5a6.005 6.005 0 0 0-5.2 9H7c-1.1 0-2-.9-2-2V7c0-1.1-.9-2-2-2V3m4 6v1h3V9H7m0 2v1h3v-1H7m3 5v-1H7v1h3m2-2v-1H7v1h5m0-6V7H7v1h5Z" transform="matrix(1.5 0 0 1.5 288 108)" id="mdi-beaker-minus" fill="#555"/><path d="M23 17v2h-8v-2h8M3 3h18v2c-1.1 0-2 .9-2 2v5a6.005 6.005 0 0 0-5.2 9H7c-1.1 0-2-.9-2-2V7c0-1.1-.9-2-2-2V3m4 6v1h3V9H7m0 2v1h3v-1H7m3 5v-1H7v1h3m2-2v-1H7v1h5m0-6V7H7v1h5Z" transform="matrix(1.5 0 0 1.5 324 108)" id="mdi-beaker-minus" fill="#fff"/><path d="M23 17v2h-8v-2M3 3h18v2c-1.1 0-2 .9-2 2v5c-.7 0-1.37.12-2 .34V5H7v2h5v1H7v1h3v1H7v1h3v1H7v1h5v1H7v1h3v1H7v3h6.08c.12.72.37 1.39.72 2H7a2 2 0 0 1-2-2V7a2 2 0 0 0-2-2V3Z" transform="matrix(1.5 0 0 1.5 360 108)" id="mdi-beaker-minus-outline" fill="#555"/><path d="M23 17v2h-8v-2M3 3h18v2c-1.1 0-2 .9-2 2v5c-.7 0-1.37.12-2 .34V5H7v2h5v1H7v1h3v1H7v1h3v1H7v1h5v1H7v1h3v1H7v3h6.08c.12.72.37 1.39.72 2H7a2 2 0 0 1-2-2V7a2 2 0 0 0-2-2V3Z" transform="matrix(1.5 0 0 1.5 396 108)" id="mdi-beaker-minus-outline" fill="#fff"/><path d="M3 3h18v2a2 2 0 0 0-2 2v12a2 2 0 0 1-2 2H7a2 2 0 0 1-2-2V7a2 2 0 0 0-2-2V3m4 2v2h5v1H7v1h3v1H7v1h3v1H7v1h5v1H7v1h3v1H7v3h10V5H7Z" transform="matrix(1.5 0 0 1.5 432 108)" id="mdi-beaker-outline" fill="#555"/><path d="M3 3h18v2a2 2 0 0 0-2 2v12a2 2 0 0 1-2 2H7a2 2 0 0 1-2-2V7a2 2 0 0 0-2-2V3m4 2v2h5v1H7v1h3v1H7v1h3v1H7v1h5v1H7v1h3v1H7v3h10V5H7Z" transform="matrix(1.5 0 0 1.5 468 108)" id="mdi-beaker-outline" fill="#fff"/><path d="M18 14h2v3h3v2h-3v3h-2v-3h-3v-2h3v-3M3 3h18v2c-1.1 0-2 .9-2 2v5a6.005 6.005 0 0 0-5.2 9H7c-1.1 0-2-.9-2-2V7c0-1.1-.9-2-2-2V3m4 6v1h3V9H7m0 2v1h3v-1H7m3 5v-1H7v1h3m2-2v-1H7v1h5m0-6V7H7v1h5Z" transform="matrix(1.5 0 0 1.5 504 108)" id="mdi-beaker-plus" fill="#555"/><path d="M18 14h2v3h3v2h-3v3h-2v-3h-3v-2h3v-3M3 3h18v2c-1.1 0-2 .9-2 2v5a6.005 6.005 0 0 0-5.2 9H7c-1.1 0-2-.9-2-2V7c0-1.1-.9-2-2-2V3m4 6v1h3V9H7m0 2v1h3v-1H7m3 5v-1H7v1h3m2-2v-1H7v1h5m0-6V7H7v1h5Z" transform="matrix(1.5 0 0 1.5 540 108)" id="mdi-beaker-plus" fill="#fff"/><path d="M18 14h2v3h3v2h-3v3h-2v-3h-3v-2h3v-3M3 3h18v2c-1.1 0-2 .9-2 2v5c-.7 0-1.37.12-2 .34V5H7v2h5v1H7v1h3v1H7v1h3v1H7v1h5v1H7v1h3v1H7v3h6.08c.12.72.37 1.39.72 2H7a2 2 0 0 1-2-2V7a2 2 0 0 0-2-2V3Z" transform="matrix(1.5 0 0 1.5 576 108)" id="mdi-beaker-plus-outline" fill="#555"/><path d="M18 14h2v3h3v2h-3v3h-2v-3h-3v-2h3v-3M3 3h18v2c-1.1 0-2 .9-2 2v5c-.7 0-1.37.12-2 .34V5H7v2h5v1H7v1h3v1H7v1h3v1H7v1h5v1H7v1h3v1H7v3h6.08c.12.72.37 1.39.72 2H7a2 2 0 0 1-2-2V7a2 2 0 0 0-2-2V3Z" transform="matrix(1.5 0 0 1.5 612 108)" id="mdi-beaker-plus-outline" fill="#fff"/><path d="M0 3h18v2c-1.1 0-2 .9-2 2v12c0 1.1-.9 2-2 2H4c-1.1 0-2-.9-2-2V7c0-1.1-.9-2-2-2V3m4 6v1h3V9H4m0 2v1h3v-1H4m3 5v-1H4v1h3m2-2v-1H4v1h5m0-6V7H4v1h5m12.5 7.5V17H20v-1.5h1.5m-2-5H18V10c0-1.66 1.34-3 3-3s3 1.34 3 3c0 .97-.5 1.88-1.29 2.41l-.3.19c-.57.4-.91 1.02-.91 1.7v.2H20v-.2c0-1.19.6-2.3 1.59-2.95l.29-.19c.39-.26.62-.69.62-1.16 0-.82-.67-1.5-1.5-1.5s-1.5.67-1.5 1.5v.5Z" transform="matrix(1.5 0 0 1.5 648 108)" id="mdi-beaker-question" fill="#555"/><path d="M0 3h18v2c-1.1 0-2 .9-2 2v12c0 1.1-.9 2-2 2H4c-1.1 0-2-.9-2-2V7c0-1.1-.9-2-2-2V3m4 6v1h3V9H4m0 2v1h3v-1H4m3 5v-1H4v1h3m2-2v-1H4v1h5m0-6V7H4v1h5m12.5 7.5V17H20v-1.5h1.5m-2-5H18V10c0-1.66 1.34-3 3-3s3 1.34 3 3c0 .97-.5 1.88-1.29 2.41l-.3.19c-.57.4-.91 1.02-.91 1.7v.2H20v-.2c0-1.19.6-2.3 1.59-2.95l.29-.19c.39-.26.62-.69.62-1.16 0-.82-.67-1.5-1.5-1.5s-1.5.67-1.5 1.5v.5Z" transform="matrix(1.5 0 0 1.5 684 108)" id="mdi-beaker-question" fill="#fff"/><path d="M0 3h18v2c-1.1 0-2 .9-2 2v12c0 1.11-.89 2-2 2H4a2 2 0 0 1-2-2V7a2 2 0 0 0-2-2V3m4 2v2h5v1H4v1h3v1H4v1h3v1H4v1h5v1H4v1h3v1H4v3h10V5H4m17.5 10.5V17H20v-1.5h1.5m-2-5H18V10c0-1.66 1.34-3 3-3s3 1.34 3 3c0 .97-.5 1.88-1.29 2.41l-.3.19c-.57.4-.91 1.02-.91 1.7v.2H20v-.2c0-1.19.6-2.3 1.59-2.95l.29-.19c.39-.26.62-.69.62-1.16 0-.82-.67-1.5-1.5-1.5s-1.5.67-1.5 1.5v.5Z" transform="matrix(1.5 0 0 1.5 0 144)" id="mdi-beaker-question-outline" fill="#555"/><path d="M0 3h18v2c-1.1 0-2 .9-2 2v12c0 1.11-.89 2-2 2H4a2 2 0 0 1-2-2V7a2 2 0 0 0-2-2V3m4 2v2h5v1H4v1h3v1H4v1h3v1H4v1h5v1H4v1h3v1H4v3h10V5H4m17.5 10.5V17H20v-1.5h1.5m-2-5H18V10c0-1.66 1.34-3 3-3s3 1.34 3 3c0 .97-.5 1.88-1.29 2.41l-.3.19c-.57.4-.91 1.02-.91 1.7v.2H20v-.2c0-1.19.6-2.3 1.59-2.95l.29-.19c.39-.26.62-.69.62-1.16 0-.82-.67-1.5-1.5-1.5s-1.5.67-1.5 1.5v.5Z" transform="matrix(1.5 0 0 1.5 36 144)" id="mdi-beaker-question-outline" fill="#fff"/><path d="m15.46 15.88 1.42-1.42L19 16.59l2.12-2.12 1.41 1.41L20.41 18l2.13 2.12-1.42 1.42L19 19.41l-2.12 2.12-1.41-1.41L17.59 18l-2.13-2.12M3 3h18v2c-1.1 0-2 .9-2 2v5a6.005 6.005 0 0 0-5.2 9H7c-1.1 0-2-.9-2-2V7c0-1.1-.9-2-2-2V3m4 6v1h3V9H7m0 2v1h3v-1H7m3 5v-1H7v1h3m2-2v-1H7v1h5m0-6V7H7v1h5Z" transform="matrix(1.5 0 0 1.5 72 144)" id="mdi-beaker-remove" fill="#555"/><path d="m15.46 15.88 1.42-1.42L19 16.59l2.12-2.12 1.41 1.41L20.41 18l2.13 2.12-1.42 1.42L19 19.41l-2.12 2.12-1.41-1.41L17.59 18l-2.13-2.12M3 3h18v2c-1.1 0-2 .9-2 2v5a6.005 6.005 0 0 0-5.2 9H7c-1.1 0-2-.9-2-2V7c0-1.1-.9-2-2-2V3m4 6v1h3V9H7m0 2v1h3v-1H7m3 5v-1H7v1h3m2-2v-1H7v1h5m0-6V7H7v1h5Z" transform="matrix(1.5 0 0 1.5 108 144)" id="mdi-beaker-remove" fill="#fff"/><path d="m15.46 15.88 1.42-1.42L19 16.59l2.12-2.12 1.41 1.41L20.41 18l2.13 2.12-1.42 1.42L19 19.41l-2.12 2.12-1.41-1.41L17.59 18l-2.13-2.12M3 3h18v2c-1.1 0-2 .9-2 2v5c-.7 0-1.37.12-2 .34V5H7v2h5v1H7v1h3v1H7v1h3v1H7v1h5v1H7v1h3v1H7v3h6.08c.12.72.37 1.39.72 2H7a2 2 0 0 1-2-2V7a2 2 0 0 0-2-2V3Z" transform="matrix(1.5 0 0 1.5 144 144)" id="mdi-beaker-remove-outline" fill="#555"/><path d="m15.46 15.88 1.42-1.42L19 16.59l2.12-2.12 1.41 1.41L20.41 18l2.13 2.12-1.42 1.42L19 19.41l-2.12 2.12-1.41-1.41L17.59 18l-2.13-2.12M3 3h18v2c-1.1 0-2 .9-2 2v5c-.7 0-1.37.12-2 .34V5H7v2h5v1H7v1h3v1H7v1h3v1H7v1h5v1H7v1h3v1H7v3h6.08c.12.72.37 1.39.72 2H7a2 2 0 0 1-2-2V7a2 2 0 0 0-2-2V3Z" transform="matrix(1.5 0 0 1.5 180 144)" id="mdi-beaker-remove-outline" fill="#fff"/><path d="M19 7h-8v7H3V5H1v15h2v-3h18v3h2v-9a4 4 0 0 0-4-4M7 13a3 3 0 0 0 3-3 3 3 0 0 0-3-3 3 3 0 0 0-3 3 3 3 0 0 0 3 3Z" transform="matrix(1.5 0 0 1.5 216 144)" id="mdi-bed" fill="#555"/><path d="M19 7h-8v7H3V5H1v15h2v-3h18v3h2v-9a4 4 0 0 0-4-4M7 13a3 3 0 0 0 3-3 3 3 0 0 0-3-3 3 3 0 0 0-3 3 3 3 0 0 0 3 3Z" transform="matrix(1.5 0 0 1.5 252 144)" id="mdi-bed" fill="#fff"/><path d="M18 10V7a2 2 0 0 0-2-2H8a2 2 0 0 0-2 2v3a2 2 0 0 0-2 2v5h1.33L6 19h1l.67-2h8.66l.67 2h1l.67-2H20v-5a2 2 0 0 0-2-2m-7 0H8V7h3m5 3h-3V7h3Z" transform="matrix(1.5 0 0 1.5 288 144)" id="mdi-bed-double" fill="#555"/><path d="M18 10V7a2 2 0 0 0-2-2H8a2 2 0 0 0-2 2v3a2 2 0 0 0-2 2v5h1.33L6 19h1l.67-2h8.66l.67 2h1l.67-2H20v-5a2 2 0 0 0-2-2m-7 0H8V7h3m5 3h-3V7h3Z" transform="matrix(1.5 0 0 1.5 324 144)" id="mdi-bed-double" fill="#fff"/><path d="M8 5c-.5 0-1 .21-1.39.6S6 6.45 6 7v3c-.53 0-1 .19-1.41.59S4 11.47 4 12v5h1.34L6 19h1l.69-2h8.67l.64 2h1l.66-2H20v-5c0-.53-.19-1-.59-1.41S18.53 10 18 10V7c0-.55-.2-1-.61-1.4S16.5 5 16 5M8 7h3v3H8m5-3h3v3h-3m-7 2h12v3H6Z" transform="matrix(1.5 0 0 1.5 360 144)" id="mdi-bed-double-outline" fill="#555"/><path d="M8 5c-.5 0-1 .21-1.39.6S6 6.45 6 7v3c-.53 0-1 .19-1.41.59S4 11.47 4 12v5h1.34L6 19h1l.69-2h8.67l.64 2h1l.66-2H20v-5c0-.53-.19-1-.59-1.41S18.53 10 18 10V7c0-.55-.2-1-.61-1.4S16.5 5 16 5M8 7h3v3H8m5-3h3v3h-3m-7 2h12v3H6Z" transform="matrix(1.5 0 0 1.5 396 144)" id="mdi-bed-double-outline" fill="#fff"/><path d="M19 7H5v7H3V5H1v15h2v-3h18v3h2v-9a4 4 0 0 0-4-4" transform="matrix(1.5 0 0 1.5 432 144)" id="mdi-bed-empty" fill="#555"/><path d="M19 7H5v7H3V5H1v15h2v-3h18v3h2v-9a4 4 0 0 0-4-4" transform="matrix(1.5 0 0 1.5 468 144)" id="mdi-bed-empty" fill="#fff"/><path d="M6 5c-.53 0-1 .21-1.41.6S4 6.45 4 7v3c-.55 0-1 .19-1.4.59S2 11.47 2 12v5h1.33L4 19h1l.67-2h12.66l.67 2h1l.67-2H22v-5c0-.53-.21-1-.6-1.41-.4-.4-.85-.59-1.4-.59V7c0-.55-.19-1-.59-1.4S18.53 5 18 5M6 7h5v3H6m7-3h5v3h-5Z" transform="matrix(1.5 0 0 1.5 504 144)" id="mdi-bed-king" fill="#555"/><path d="M6 5c-.53 0-1 .21-1.41.6S4 6.45 4 7v3c-.55 0-1 .19-1.4.59S2 11.47 2 12v5h1.33L4 19h1l.67-2h12.66l.67 2h1l.67-2H22v-5c0-.53-.21-1-.6-1.41-.4-.4-.85-.59-1.4-.59V7c0-.55-.19-1-.59-1.4S18.53 5 18 5M6 7h5v3H6m7-3h5v3h-5Z" transform="matrix(1.5 0 0 1.5 540 144)" id="mdi-bed-king" fill="#fff"/><path d="M20 10V7a2 2 0 0 0-2-2H6a2 2 0 0 0-2 2v3a2 2 0 0 0-2 2v5h1.33L4 19h1l.67-2h12.66l.67 2h1l.67-2H22v-5a2 2 0 0 0-2-2m-7-3h5v3h-5M6 7h5v3H6m14 5H4v-3h16Z" transform="matrix(1.5 0 0 1.5 576 144)" id="mdi-bed-king-outline" fill="#555"/><path d="M20 10V7a2 2 0 0 0-2-2H6a2 2 0 0 0-2 2v3a2 2 0 0 0-2 2v5h1.33L4 19h1l.67-2h12.66l.67 2h1l.67-2H22v-5a2 2 0 0 0-2-2m-7-3h5v3h-5M6 7h5v3H6m14 5H4v-3h16Z" transform="matrix(1.5 0 0 1.5 612 144)" id="mdi-bed-king-outline" fill="#fff"/><path d="M7 14c1.66 0 3-1.34 3-3S8.66 8 7 8s-3 1.34-3 3 1.34 3 3 3m0-4c.55 0 1 .45 1 1s-.45 1-1 1-1-.45-1-1 .45-1 1-1m12-3h-8v8H3V5H1v15h2v-3h18v3h2v-9c0-2.21-1.79-4-4-4m2 8h-8V9h6c1.1 0 2 .9 2 2Z" transform="matrix(1.5 0 0 1.5 648 144)" id="mdi-bed-outline" fill="#555"/><path d="M7 14c1.66 0 3-1.34 3-3S8.66 8 7 8s-3 1.34-3 3 1.34 3 3 3m0-4c.55 0 1 .45 1 1s-.45 1-1 1-1-.45-1-1 .45-1 1-1m12-3h-8v8H3V5H1v15h2v-3h18v3h2v-9c0-2.21-1.79-4-4-4m2 8h-8V9h6c1.1 0 2 .9 2 2Z" transform="matrix(1.5 0 0 1.5 684 144)" id="mdi-bed-outline" fill="#fff"/><path d="M19 10V7a2 2 0 0 0-2-2H7a2 2 0 0 0-2 2v3a2 2 0 0 0-2 2v5h1.33L5 19h1l.67-2h10.66l.67 2h1l.67-2H21v-5a2 2 0 0 0-2-2m-2 0H7V7h10Z" transform="matrix(1.5 0 0 1.5 0 180)" id="mdi-bed-queen" fill="#555"/><path d="M19 10V7a2 2 0 0 0-2-2H7a2 2 0 0 0-2 2v3a2 2 0 0 0-2 2v5h1.33L5 19h1l.67-2h10.66l.67 2h1l.67-2H21v-5a2 2 0 0 0-2-2m-2 0H7V7h10Z" transform="matrix(1.5 0 0 1.5 36 180)" id="mdi-bed-queen" fill="#fff"/><path d="M19 10V7a2 2 0 0 0-2-2H7a2 2 0 0 0-2 2v3a2 2 0 0 0-2 2v5h1.33L5 19h1l.67-2h10.66l.67 2h1l.67-2H21v-5a2 2 0 0 0-2-2M7 7h10v3H7m12 5H5v-3h14Z" transform="matrix(1.5 0 0 1.5 72 180)" id="mdi-bed-queen-outline" fill="#555"/><path d="M19 10V7a2 2 0 0 0-2-2H7a2 2 0 0 0-2 2v3a2 2 0 0 0-2 2v5h1.33L5 19h1l.67-2h10.66l.67 2h1l.67-2H21v-5a2 2 0 0 0-2-2M7 7h10v3H7m12 5H5v-3h14Z" transform="matrix(1.5 0 0 1.5 108 180)" id="mdi-bed-queen-outline" fill="#fff"/><path d="M17 10V7a2 2 0 0 0-2-2H9c-1.1 0-2 .9-2 2v3c-1.1 0-2.11.9-2 2v5h1.33L7 19h1l.67-2h6.66l.67 2h1l.67-2H19v-5a2 2 0 0 0-2-2m-2 0H9V7h6Z" transform="matrix(1.5 0 0 1.5 144 180)" id="mdi-bed-single" fill="#555"/><path d="M17 10V7a2 2 0 0 0-2-2H9c-1.1 0-2 .9-2 2v3c-1.1 0-2.11.9-2 2v5h1.33L7 19h1l.67-2h6.66l.67 2h1l.67-2H19v-5a2 2 0 0 0-2-2m-2 0H9V7h6Z" transform="matrix(1.5 0 0 1.5 180 180)" id="mdi-bed-single" fill="#fff"/><path d="M17 10V7a2 2 0 0 0-2-2H9c-1.1 0-2 .9-2 2v3c-1.1 0-2 .9-2 2v5h1.33L7 19h1l.67-2h6.66l.67 2h1l.67-2H19v-5a2 2 0 0 0-2-2M9 7h6v3H9m8 5H7v-3h10Z" transform="matrix(1.5 0 0 1.5 216 180)" id="mdi-bed-single-outline" fill="#555"/><path d="M17 10V7a2 2 0 0 0-2-2H9c-1.1 0-2 .9-2 2v3c-1.1 0-2 .9-2 2v5h1.33L7 19h1l.67-2h6.66l.67 2h1l.67-2H19v-5a2 2 0 0 0-2-2M9 7h6v3H9m8 5H7v-3h10Z" transform="matrix(1.5 0 0 1.5 252 180)" id="mdi-bed-single-outline" fill="#fff"/><path d="M17.4 9C17 7.8 16.2 7 15 6.5V5h-1v1.4h-.4c-1.1 0-2 .4-2.8 1.2l-.4.4L9 7.5c-.3-.1-.6-.2-1-.2-.6 0-1.2.2-1.7.6-.6.4-.9.9-1.1 1.4-.2.7-.2 1.3 0 2 .3.7.6 1.2 1.1 1.5-.4 1.5-.1 2.8 1 3.9.8.8 1.7 1.2 2.8 1.2.5 0 .8 0 1.1-.1.6.8 1.4 1.3 2.4 1.3.3 0 .7 0 1-.1.6-.2 1-.6 1.4-1.1.4-.6.6-1.1.6-1.7 0-.4 0-.7-.1-1l-.5-1.6.6-.4c.8-.8 1.2-1.9 1.1-3.1H19V9h-1.6m-9.7 2.3c-.6-.3-.8-.7-.6-1.3.2-.6.6-.8 1.2-.6l3.2 1.2c-1.6.8-2.8 1-3.8.7m6.3 5.6c-.6.2-1 0-1.3-.6-.3-1-.1-2.2.7-3.8l1.2 3.1c.2.7 0 1.1-.6 1.3m1.2-5.3-.6-1.6v-.1l-.3-.3h-.1L12.6 9c.4-.3.8-.5 1.3-.5s1 .2 1.4.6c.4.4.6.8.6 1.3-.2.3-.4.8-.7 1.2Z" transform="matrix(1.5 0 0 1.5 288 180)" id="mdi-bee" fill="#555"/><path d="M17.4 9C17 7.8 16.2 7 15 6.5V5h-1v1.4h-.4c-1.1 0-2 .4-2.8 1.2l-.4.4L9 7.5c-.3-.1-.6-.2-1-.2-.6 0-1.2.2-1.7.6-.6.4-.9.9-1.1 1.4-.2.7-.2 1.3 0 2 .3.7.6 1.2 1.1 1.5-.4 1.5-.1 2.8 1 3.9.8.8 1.7 1.2 2.8 1.2.5 0 .8 0 1.1-.1.6.8 1.4 1.3 2.4 1.3.3 0 .7 0 1-.1.6-.2 1-.6 1.4-1.1.4-.6.6-1.1.6-1.7 0-.4 0-.7-.1-1l-.5-1.6.6-.4c.8-.8 1.2-1.9 1.1-3.1H19V9h-1.6m-9.7 2.3c-.6-.3-.8-.7-.6-1.3.2-.6.6-.8 1.2-.6l3.2 1.2c-1.6.8-2.8 1-3.8.7m6.3 5.6c-.6.2-1 0-1.3-.6-.3-1-.1-2.2.7-3.8l1.2 3.1c.2.7 0 1.1-.6 1.3m1.2-5.3-.6-1.6v-.1l-.3-.3h-.1L12.6 9c.4-.3.8-.5 1.3-.5s1 .2 1.4.6c.4.4.6.8.6 1.3-.2.3-.4.8-.7 1.2Z" transform="matrix(1.5 0 0 1.5 324 180)" id="mdi-bee" fill="#fff"/><path d="M11.6 13v-.1l-.3-.3h-.1L9.6 12c.4-.3.8-.5 1.3-.5s1 .2 1.4.6c.4.4.6.8.6 1.3s-.1.9-.5 1.3l-.8-1.7m-1.9 6.3c-.3-1-.1-2.2.7-3.8l1.2 3.1c.2.6 0 1-.6 1.3-.6.3-1 .1-1.3-.6m-5.6-6.2c.2-.6.6-.8 1.2-.6l3.2 1.2c-1.6.8-2.8 1-3.8.7-.6-.3-.8-.7-.6-1.3m7.9-5h-1v1.4h-.4c-1.1 0-2 .4-2.8 1.2l-.4.6-1.4-.8c-.3-.1-.6-.1-1-.1-.6 0-1.2.2-1.7.6s-.9.8-1.1 1.4c-.2.7-.2 1.3 0 2 .3.7.6 1.2 1.1 1.5-.4 1.5-.1 2.8 1 3.9.8.8 1.7 1.2 2.8 1.2.5 0 .8 0 1.1-.1.6.8 1.4 1.3 2.4 1.3.3 0 .7 0 1-.1.6-.2 1-.6 1.4-1.1.4-.6.6-1.1.6-1.7 0-.4 0-.7-.1-1l-.6-1.4.6-.4c.8-.8 1.2-1.9 1.1-3.1H16v-1h-1.6c-.4-1.2-1.2-2-2.4-2.4V8.1m5.3-1.3c-.2-.2-.3-.5-.3-.7 0-.3.1-.5.3-.7.2-.2.4-.3.7-.3s.5.1.7.3c.2.1.3.4.3.7 0 .3-.1.5-.3.7-.2.2-.4.2-.7.2s-.5 0-.7-.2m3.4-2.7h-1.1l-.3-.9c-.2-.7-.6-1-1.3-1-.7 0-1.2.3-1.3 1l-.3.9h-1.1c-.6 0-1 .3-1.3.9-.2.6 0 1.1.6 1.5l.9.5-.4 1.2c-.2.4-.1.8.1 1.2.3.4.6.6 1.1.6.4 0 .7-.1.9-.3l.8-.6.8.7c.2.1.5.2.9.2.5 0 .8-.2 1.1-.6.2-.4.3-.8.1-1.2L20.5 7l.8-.5c.6-.4.8-.9.6-1.5-.2-.7-.6-.9-1.2-.9Z" transform="matrix(1.5 0 0 1.5 360 180)" id="mdi-bee-flower" fill="#555"/><path d="M11.6 13v-.1l-.3-.3h-.1L9.6 12c.4-.3.8-.5 1.3-.5s1 .2 1.4.6c.4.4.6.8.6 1.3s-.1.9-.5 1.3l-.8-1.7m-1.9 6.3c-.3-1-.1-2.2.7-3.8l1.2 3.1c.2.6 0 1-.6 1.3-.6.3-1 .1-1.3-.6m-5.6-6.2c.2-.6.6-.8 1.2-.6l3.2 1.2c-1.6.8-2.8 1-3.8.7-.6-.3-.8-.7-.6-1.3m7.9-5h-1v1.4h-.4c-1.1 0-2 .4-2.8 1.2l-.4.6-1.4-.8c-.3-.1-.6-.1-1-.1-.6 0-1.2.2-1.7.6s-.9.8-1.1 1.4c-.2.7-.2 1.3 0 2 .3.7.6 1.2 1.1 1.5-.4 1.5-.1 2.8 1 3.9.8.8 1.7 1.2 2.8 1.2.5 0 .8 0 1.1-.1.6.8 1.4 1.3 2.4 1.3.3 0 .7 0 1-.1.6-.2 1-.6 1.4-1.1.4-.6.6-1.1.6-1.7 0-.4 0-.7-.1-1l-.6-1.4.6-.4c.8-.8 1.2-1.9 1.1-3.1H16v-1h-1.6c-.4-1.2-1.2-2-2.4-2.4V8.1m5.3-1.3c-.2-.2-.3-.5-.3-.7 0-.3.1-.5.3-.7.2-.2.4-.3.7-.3s.5.1.7.3c.2.1.3.4.3.7 0 .3-.1.5-.3.7-.2.2-.4.2-.7.2s-.5 0-.7-.2m3.4-2.7h-1.1l-.3-.9c-.2-.7-.6-1-1.3-1-.7 0-1.2.3-1.3 1l-.3.9h-1.1c-.6 0-1 .3-1.3.9-.2.6 0 1.1.6 1.5l.9.5-.4 1.2c-.2.4-.1.8.1 1.2.3.4.6.6 1.1.6.4 0 .7-.1.9-.3l.8-.6.8.7c.2.1.5.2.9.2.5 0 .8-.2 1.1-.6.2-.4.3-.8.1-1.2L20.5 7l.8-.5c.6-.4.8-.9.6-1.5-.2-.7-.6-.9-1.2-.9Z" transform="matrix(1.5 0 0 1.5 396 180)" id="mdi-bee-flower" fill="#fff"/><path d="m1.1 3 3.6 3.5c-1 .7-1.7 1.7-1.7 3 0 .6.2 1.2.5 1.7C2 11.6 1 12.9 1 14.5c0 1.3.7 2.3 1.7 3-.5.5-.7 1.2-.7 2C2 21.4 3.6 23 5.5 23h13c.8 0 1.5-.3 2.1-.7l.7.7 1.3-1.3-20.2-20L1.1 3m8.1 8H6.5C5.7 11 5 10.3 5 9.5c0-.7.5-1.3 1.2-1.5l3 3M9 21H5.5c-.8 0-1.5-.7-1.5-1.5S4.7 18 5.5 18H9v3m.2-5H4.5c-.8 0-1.5-.7-1.5-1.5S3.7 13 4.5 13h6.7l1 1H12c-1.3 0-2.4.8-2.8 2m9.3 5H15v-3h1.2l2.9 2.9c-.2.1-.4.1-.6.1M7.1 3.9 5.7 2.5C6.3 1.6 7.3 1 8.5 1h7C17.4 1 19 2.6 19 4.5c0 .6-.2 1.2-.5 1.7C20 6.6 21 7.9 21 9.5c0 .6-.2 1.2-.5 1.7 1.4.5 2.5 1.8 2.5 3.3 0 1.3-.7 2.3-1.7 3 .3.4.5.8.6 1.2L19.2 16h.3c.8 0 1.5-.7 1.5-1.5s-.7-1.5-1.5-1.5h-3.3l-2-2h3.3c.8 0 1.5-.7 1.5-1.5S18.3 8 17.5 8h-6.3l-2-2h6.3c.8 0 1.5-.7 1.5-1.5S16.3 3 15.5 3h-7c-.6 0-1.2.4-1.4.9Z" transform="matrix(1.5 0 0 1.5 432 180)" id="mdi-beehive-off-outline" fill="#555"/><path d="m1.1 3 3.6 3.5c-1 .7-1.7 1.7-1.7 3 0 .6.2 1.2.5 1.7C2 11.6 1 12.9 1 14.5c0 1.3.7 2.3 1.7 3-.5.5-.7 1.2-.7 2C2 21.4 3.6 23 5.5 23h13c.8 0 1.5-.3 2.1-.7l.7.7 1.3-1.3-20.2-20L1.1 3m8.1 8H6.5C5.7 11 5 10.3 5 9.5c0-.7.5-1.3 1.2-1.5l3 3M9 21H5.5c-.8 0-1.5-.7-1.5-1.5S4.7 18 5.5 18H9v3m.2-5H4.5c-.8 0-1.5-.7-1.5-1.5S3.7 13 4.5 13h6.7l1 1H12c-1.3 0-2.4.8-2.8 2m9.3 5H15v-3h1.2l2.9 2.9c-.2.1-.4.1-.6.1M7.1 3.9 5.7 2.5C6.3 1.6 7.3 1 8.5 1h7C17.4 1 19 2.6 19 4.5c0 .6-.2 1.2-.5 1.7C20 6.6 21 7.9 21 9.5c0 .6-.2 1.2-.5 1.7 1.4.5 2.5 1.8 2.5 3.3 0 1.3-.7 2.3-1.7 3 .3.4.5.8.6 1.2L19.2 16h.3c.8 0 1.5-.7 1.5-1.5s-.7-1.5-1.5-1.5h-3.3l-2-2h3.3c.8 0 1.5-.7 1.5-1.5S18.3 8 17.5 8h-6.3l-2-2h6.3c.8 0 1.5-.7 1.5-1.5S16.3 3 15.5 3h-7c-.6 0-1.2.4-1.4.9Z" transform="matrix(1.5 0 0 1.5 468 180)" id="mdi-beehive-off-outline" fill="#fff"/><path d="M23 14.5c0-1.56-1.03-2.87-2.45-3.32.28-.5.45-1.07.45-1.68 0-1.56-1.03-2.87-2.45-3.32.28-.5.45-1.07.45-1.68C19 2.57 17.43 1 15.5 1h-7C6.57 1 5 2.57 5 4.5c0 .61.17 1.18.45 1.68C4.04 6.63 3 7.94 3 9.5c0 .61.17 1.18.45 1.68C2.04 11.63 1 12.94 1 14.5c0 1.26.67 2.34 1.67 2.96-.42.57-.67 1.28-.67 2.04C2 21.43 3.57 23 5.5 23h13c1.93 0 3.5-1.57 3.5-3.5 0-.76-.25-1.47-.67-2.04 1-.62 1.67-1.7 1.67-2.96M8.5 3h7c.83 0 1.5.67 1.5 1.5S16.33 6 15.5 6h-7C7.67 6 7 5.33 7 4.5S7.67 3 8.5 3m-2 5h11c.83 0 1.5.67 1.5 1.5s-.67 1.5-1.5 1.5h-11C5.67 11 5 10.33 5 9.5S5.67 8 6.5 8M4 19.5c0-.83.67-1.5 1.5-1.5H9v3H5.5c-.83 0-1.5-.67-1.5-1.5M18.5 21H15v-3h3.5c.83 0 1.5.67 1.5 1.5s-.67 1.5-1.5 1.5m1-5h-4.68c-.42-1.16-1.52-2-2.82-2s-2.4.84-2.82 2H4.5c-.83 0-1.5-.67-1.5-1.5S3.67 13 4.5 13h15c.83 0 1.5.67 1.5 1.5s-.67 1.5-1.5 1.5Z" transform="matrix(1.5 0 0 1.5 504 180)" id="mdi-beehive-outline" fill="#555"/><path d="M23 14.5c0-1.56-1.03-2.87-2.45-3.32.28-.5.45-1.07.45-1.68 0-1.56-1.03-2.87-2.45-3.32.28-.5.45-1.07.45-1.68C19 2.57 17.43 1 15.5 1h-7C6.57 1 5 2.57 5 4.5c0 .61.17 1.18.45 1.68C4.04 6.63 3 7.94 3 9.5c0 .61.17 1.18.45 1.68C2.04 11.63 1 12.94 1 14.5c0 1.26.67 2.34 1.67 2.96-.42.57-.67 1.28-.67 2.04C2 21.43 3.57 23 5.5 23h13c1.93 0 3.5-1.57 3.5-3.5 0-.76-.25-1.47-.67-2.04 1-.62 1.67-1.7 1.67-2.96M8.5 3h7c.83 0 1.5.67 1.5 1.5S16.33 6 15.5 6h-7C7.67 6 7 5.33 7 4.5S7.67 3 8.5 3m-2 5h11c.83 0 1.5.67 1.5 1.5s-.67 1.5-1.5 1.5h-11C5.67 11 5 10.33 5 9.5S5.67 8 6.5 8M4 19.5c0-.83.67-1.5 1.5-1.5H9v3H5.5c-.83 0-1.5-.67-1.5-1.5M18.5 21H15v-3h3.5c.83 0 1.5.67 1.5 1.5s-.67 1.5-1.5 1.5m1-5h-4.68c-.42-1.16-1.52-2-2.82-2s-2.4.84-2.82 2H4.5c-.83 0-1.5-.67-1.5-1.5S3.67 13 4.5 13h15c.83 0 1.5.67 1.5 1.5s-.67 1.5-1.5 1.5Z" transform="matrix(1.5 0 0 1.5 540 180)" id="mdi-beehive-outline" fill="#fff"/><path d="M19 5h-3c0-1.66-1.79-3-4-3S8 3.34 8 5H5c-.55 0-1 .45-1 1s.45 1 1 1v7a2 2 0 0 0 2 2h10c1.11 0 2-.89 2-2V7c.55 0 1-.45 1-1s-.45-1-1-1m-2 9H7V7h10v7m-1.14-6c.08.32.14.65.14 1 0 2.21-1.79 4-4 4s-4-1.79-4-4c0-.35.06-.68.14-1h2.14c-.17.3-.28.63-.28 1 0 1.1.9 2 2 2s2-.9 2-2c0-.37-.11-.7-.28-1h2.14M20 19v3H4v-3c0-.78.47-1.45 1.18-2H12c-2.72 0-5.81 1.29-6 2v1h12v-1c-.19-.71-3.28-2-6-2h6.82c.71.55 1.18 1.22 1.18 2Z" transform="matrix(1.5 0 0 1.5 576 180)" id="mdi-beekeeper" fill="#555"/><path d="M19 5h-3c0-1.66-1.79-3-4-3S8 3.34 8 5H5c-.55 0-1 .45-1 1s.45 1 1 1v7a2 2 0 0 0 2 2h10c1.11 0 2-.89 2-2V7c.55 0 1-.45 1-1s-.45-1-1-1m-2 9H7V7h10v7m-1.14-6c.08.32.14.65.14 1 0 2.21-1.79 4-4 4s-4-1.79-4-4c0-.35.06-.68.14-1h2.14c-.17.3-.28.63-.28 1 0 1.1.9 2 2 2s2-.9 2-2c0-.37-.11-.7-.28-1h2.14M20 19v3H4v-3c0-.78.47-1.45 1.18-2H12c-2.72 0-5.81 1.29-6 2v1h12v-1c-.19-.71-3.28-2-6-2h6.82c.71.55 1.18 1.22 1.18 2Z" transform="matrix(1.5 0 0 1.5 612 180)" id="mdi-beekeeper" fill="#fff"/><path d="M4 2h15l-2 20H6L4 2m2.2 2 1.6 16h1L7.43 6.34C8.5 6 9.89 5.89 11 7c1.56 1.56 4.33.69 5.5.23L16.8 4H6.2Z" transform="matrix(1.5 0 0 1.5 648 180)" id="mdi-beer" fill="#555"/><path d="M4 2h15l-2 20H6L4 2m2.2 2 1.6 16h1L7.43 6.34C8.5 6 9.89 5.89 11 7c1.56 1.56 4.33.69 5.5.23L16.8 4H6.2Z" transform="matrix(1.5 0 0 1.5 684 180)" id="mdi-beer" fill="#fff"/><path d="m4 2 2 20h11l2-20H4m2.2 2h10.6l-.3 3.23c-3.32 1.27-4.65.44-5.12.08-.25-.19-.61-.62-1.27-.92-.66-.31-1.56-.39-2.61-.07-.41.11-.73.29-1 .47L6.2 4m2.66 4.11c.19 0 .3.04.41.09.23.1.44.35.9.7.86.66 2.86 1.46 6.09.51L15.2 20H7.8L6.71 9.06c.05-.06.2-.17.46-.35.33-.21.74-.43.83-.46h.03c.38-.11.64-.15.83-.14Z" transform="matrix(1.5 0 0 1.5 0 216)" id="mdi-beer-outline" fill="#555"/><path d="m4 2 2 20h11l2-20H4m2.2 2h10.6l-.3 3.23c-3.32 1.27-4.65.44-5.12.08-.25-.19-.61-.62-1.27-.92-.66-.31-1.56-.39-2.61-.07-.41.11-.73.29-1 .47L6.2 4m2.66 4.11c.19 0 .3.04.41.09.23.1.44.35.9.7.86.66 2.86 1.46 6.09.51L15.2 20H7.8L6.71 9.06c.05-.06.2-.17.46-.35.33-.21.74-.43.83-.46h.03c.38-.11.64-.15.83-.14Z" transform="matrix(1.5 0 0 1.5 36 216)" id="mdi-beer-outline" fill="#fff"/><path d="M21 19v1H3v-1l2-2v-6c0-3.1 2.03-5.83 5-6.71V4a2 2 0 0 1 2-2 2 2 0 0 1 2 2v.29c2.97.88 5 3.61 5 6.71v6l2 2m-7 2a2 2 0 0 1-2 2 2 2 0 0 1-2-2" transform="matrix(1.5 0 0 1.5 72 216)" id="mdi-bell" fill="#555"/><path d="M21 19v1H3v-1l2-2v-6c0-3.1 2.03-5.83 5-6.71V4a2 2 0 0 1 2-2 2 2 0 0 1 2 2v.29c2.97.88 5 3.61 5 6.71v6l2 2m-7 2a2 2 0 0 1-2 2 2 2 0 0 1-2-2" transform="matrix(1.5 0 0 1.5 108 216)" id="mdi-bell" fill="#fff"/><path d="M23 7v6h-2V7m0 8h2v2h-2M12 2a2 2 0 0 0-2 2 2 2 0 0 0 0 .29C7.12 5.14 5 7.82 5 11v6l-2 2v1h18v-1l-2-2v-6c0-3.18-2.12-5.86-5-6.71A2 2 0 0 0 14 4a2 2 0 0 0-2-2m-2 19a2 2 0 0 0 2 2 2 2 0 0 0 2-2Z" transform="matrix(1.5 0 0 1.5 144 216)" id="mdi-bell-alert" fill="#555"/><path d="M23 7v6h-2V7m0 8h2v2h-2M12 2a2 2 0 0 0-2 2 2 2 0 0 0 0 .29C7.12 5.14 5 7.82 5 11v6l-2 2v1h18v-1l-2-2v-6c0-3.18-2.12-5.86-5-6.71A2 2 0 0 0 14 4a2 2 0 0 0-2-2m-2 19a2 2 0 0 0 2 2 2 2 0 0 0 2-2Z" transform="matrix(1.5 0 0 1.5 180 216)" id="mdi-bell-alert" fill="#fff"/><path d="M12 2a2 2 0 0 0-2 2 2 2 0 0 0 0 .29C7.12 5.14 5 7.82 5 11v6l-2 2v1h18v-1l-2-2v-6c0-3.18-2.12-5.86-5-6.71A2 2 0 0 0 14 4a2 2 0 0 0-2-2m0 4a5 5 0 0 1 5 5v7H7v-7a5 5 0 0 1 5-5m9 1v6h2V7h-2m0 8v2h2v-2h-2m-11 6a2 2 0 0 0 2 2 2 2 0 0 0 2-2h-4Z" transform="matrix(1.5 0 0 1.5 216 216)" id="mdi-bell-alert-outline" fill="#555"/><path d="M12 2a2 2 0 0 0-2 2 2 2 0 0 0 0 .29C7.12 5.14 5 7.82 5 11v6l-2 2v1h18v-1l-2-2v-6c0-3.18-2.12-5.86-5-6.71A2 2 0 0 0 14 4a2 2 0 0 0-2-2m0 4a5 5 0 0 1 5 5v7H7v-7a5 5 0 0 1 5-5m9 1v6h2V7h-2m0 8v2h2v-2h-2m-11 6a2 2 0 0 0 2 2 2 2 0 0 0 2-2h-4Z" transform="matrix(1.5 0 0 1.5 252 216)" id="mdi-bell-alert-outline" fill="#fff"/><path d="M21 6.5c0 1.93-1.57 3.5-3.5 3.5S14 8.43 14 6.5 15.57 3 17.5 3 21 4.57 21 6.5m-2 5.29c-.5.13-1 .21-1.5.21A5.51 5.51 0 0 1 12 6.5c0-1.47.58-2.8 1.5-3.79A1.93 1.93 0 0 0 12 2c-1.1 0-2 .9-2 2v.29C7.03 5.17 5 7.9 5 11v6l-2 2v1h18v-1l-2-2v-5.21M12 23c1.11 0 2-.89 2-2h-4a2 2 0 0 0 2 2Z" transform="matrix(1.5 0 0 1.5 288 216)" id="mdi-bell-badge" fill="#555"/><path d="M21 6.5c0 1.93-1.57 3.5-3.5 3.5S14 8.43 14 6.5 15.57 3 17.5 3 21 4.57 21 6.5m-2 5.29c-.5.13-1 .21-1.5.21A5.51 5.51 0 0 1 12 6.5c0-1.47.58-2.8 1.5-3.79A1.93 1.93 0 0 0 12 2c-1.1 0-2 .9-2 2v.29C7.03 5.17 5 7.9 5 11v6l-2 2v1h18v-1l-2-2v-5.21M12 23c1.11 0 2-.89 2-2h-4a2 2 0 0 0 2 2Z" transform="matrix(1.5 0 0 1.5 324 216)" id="mdi-bell-badge" fill="#fff"/><path d="M21 6.5c0 1.93-1.57 3.5-3.5 3.5S14 8.43 14 6.5 15.57 3 17.5 3 21 4.57 21 6.5M11.5 22c1.11 0 2-.89 2-2h-4a2 2 0 0 0 2 2M18 12h-.5c-.5 0-1-.08-1.5-.21V17H7v-6.5C7 8 9 6 11.5 6c.18 0 .35.03.5.05.1-.99.45-1.91 1-2.68C12.92 2.6 12.28 2 11.5 2c-.83 0-1.5.67-1.5 1.5v.68c-2.87.68-5 3.25-5 6.32V16l-2 2v1h17v-1l-2-2v-4Z" transform="matrix(1.5 0 0 1.5 360 216)" id="mdi-bell-badge-outline" fill="#555"/><path d="M21 6.5c0 1.93-1.57 3.5-3.5 3.5S14 8.43 14 6.5 15.57 3 17.5 3 21 4.57 21 6.5M11.5 22c1.11 0 2-.89 2-2h-4a2 2 0 0 0 2 2M18 12h-.5c-.5 0-1-.08-1.5-.21V17H7v-6.5C7 8 9 6 11.5 6c.18 0 .35.03.5.05.1-.99.45-1.91 1-2.68C12.92 2.6 12.28 2 11.5 2c-.83 0-1.5.67-1.5 1.5v.68c-2.87.68-5 3.25-5 6.32V16l-2 2v1h17v-1l-2-2v-4Z" transform="matrix(1.5 0 0 1.5 396 216)" id="mdi-bell-badge-outline" fill="#fff"/><path d="M17.5 13a4.5 4.5 0 0 0-4.5 4.5 4.5 4.5 0 0 0 4.5 4.5 4.5 4.5 0 0 0 4.5-4.5 4.5 4.5 0 0 0-4.5-4.5m0 1.5a3 3 0 0 1 3 3 3 3 0 0 1-.42 1.5L16 14.92a3 3 0 0 1 1.5-.42M14.92 16 19 20.08a3 3 0 0 1-1.5.42 3 3 0 0 1-3-3 3 3 0 0 1 .42-1.5M12 2c-1.1 0-2 .9-2 2v.29C7.12 5.14 5 7.82 5 11v6l-2 2v1h8.5a6.5 6.5 0 0 1-.5-2.5 6.5 6.5 0 0 1 6.5-6.5 6.5 6.5 0 0 1 1.5.18V11c0-3.18-2.12-5.86-5-6.71V4a2 2 0 0 0-2-2m-2 19a2 2 0 0 0 2 2c.5 0 .97-.19 1.33-.5a6.5 6.5 0 0 1-1.3-1.5Z" transform="matrix(1.5 0 0 1.5 432 216)" id="mdi-bell-cancel" fill="#555"/><path d="M17.5 13a4.5 4.5 0 0 0-4.5 4.5 4.5 4.5 0 0 0 4.5 4.5 4.5 4.5 0 0 0 4.5-4.5 4.5 4.5 0 0 0-4.5-4.5m0 1.5a3 3 0 0 1 3 3 3 3 0 0 1-.42 1.5L16 14.92a3 3 0 0 1 1.5-.42M14.92 16 19 20.08a3 3 0 0 1-1.5.42 3 3 0 0 1-3-3 3 3 0 0 1 .42-1.5M12 2c-1.1 0-2 .9-2 2v.29C7.12 5.14 5 7.82 5 11v6l-2 2v1h8.5a6.5 6.5 0 0 1-.5-2.5 6.5 6.5 0 0 1 6.5-6.5 6.5 6.5 0 0 1 1.5.18V11c0-3.18-2.12-5.86-5-6.71V4a2 2 0 0 0-2-2m-2 19a2 2 0 0 0 2 2c.5 0 .97-.19 1.33-.5a6.5 6.5 0 0 1-1.3-1.5Z" transform="matrix(1.5 0 0 1.5 468 216)" id="mdi-bell-cancel" fill="#fff"/><path d="M17.5 13a4.5 4.5 0 0 0-4.5 4.5 4.5 4.5 0 0 0 4.5 4.5 4.5 4.5 0 0 0 4.5-4.5 4.5 4.5 0 0 0-4.5-4.5m0 1.5a3 3 0 0 1 3 3 3 3 0 0 1-.42 1.5L16 14.92a3 3 0 0 1 1.5-.42M14.92 16 19 20.08a3 3 0 0 1-1.5.42 3 3 0 0 1-3-3 3 3 0 0 1 .42-1.5M12 2c-1.1 0-2 .9-2 2v.29C7.12 5.14 5 7.82 5 11v6l-2 2v1h8.5a6.5 6.5 0 0 1-.47-2H7v-7a5 5 0 0 1 5-5 5 5 0 0 1 5 5 6.5 6.5 0 0 1 .5 0 6.5 6.5 0 0 1 1.5.18V11c0-3.18-2.12-5.86-5-6.71V4a2 2 0 0 0-2-2m-2 19a2 2 0 0 0 2 2c.5 0 .97-.19 1.33-.5a6.5 6.5 0 0 1-1.3-1.5Z" transform="matrix(1.5 0 0 1.5 504 216)" id="mdi-bell-cancel-outline" fill="#555"/><path d="M17.5 13a4.5 4.5 0 0 0-4.5 4.5 4.5 4.5 0 0 0 4.5 4.5 4.5 4.5 0 0 0 4.5-4.5 4.5 4.5 0 0 0-4.5-4.5m0 1.5a3 3 0 0 1 3 3 3 3 0 0 1-.42 1.5L16 14.92a3 3 0 0 1 1.5-.42M14.92 16 19 20.08a3 3 0 0 1-1.5.42 3 3 0 0 1-3-3 3 3 0 0 1 .42-1.5M12 2c-1.1 0-2 .9-2 2v.29C7.12 5.14 5 7.82 5 11v6l-2 2v1h8.5a6.5 6.5 0 0 1-.47-2H7v-7a5 5 0 0 1 5-5 5 5 0 0 1 5 5 6.5 6.5 0 0 1 .5 0 6.5 6.5 0 0 1 1.5.18V11c0-3.18-2.12-5.86-5-6.71V4a2 2 0 0 0-2-2m-2 19a2 2 0 0 0 2 2c.5 0 .97-.19 1.33-.5a6.5 6.5 0 0 1-1.3-1.5Z" transform="matrix(1.5 0 0 1.5 540 216)" id="mdi-bell-cancel-outline" fill="#fff"/><path d="m17.75 21.16-2.75-3L16.16 17l1.59 1.59L21.34 15l1.16 1.41-4.75 4.75M3 20v-1l2-2v-6a7 7 0 0 1 5-6.71V4a2 2 0 1 1 4 0v.29A7 7 0 0 1 19 11v1.08L18 12a6.005 6.005 0 0 0-5.66 8H3m9 3a2 2 0 0 1-2-2h2.8c.24.41.53.79.85 1.13-.36.53-.96.87-1.65.87Z" transform="matrix(1.5 0 0 1.5 576 216)" id="mdi-bell-check" fill="#555"/><path d="m17.75 21.16-2.75-3L16.16 17l1.59 1.59L21.34 15l1.16 1.41-4.75 4.75M3 20v-1l2-2v-6a7 7 0 0 1 5-6.71V4a2 2 0 1 1 4 0v.29A7 7 0 0 1 19 11v1.08L18 12a6.005 6.005 0 0 0-5.66 8H3m9 3a2 2 0 0 1-2-2h2.8c.24.41.53.79.85 1.13-.36.53-.96.87-1.65.87Z" transform="matrix(1.5 0 0 1.5 612 216)" id="mdi-bell-check" fill="#fff"/><path d="m17.75 21.16-2.75-3L16.16 17l1.59 1.59L21.34 15l1.16 1.41-4.75 4.75M10 21h2.8c.24.41.53.79.85 1.13-.36.53-.96.87-1.65.87a2 2 0 0 1-2-2m-7-1v-1l2-2v-6a7 7 0 0 1 5-6.71V4a2 2 0 1 1 4 0v.29A7 7 0 0 1 19 11v1.08L18 12l-1 .08V11c0-2.76-2.24-5-5-5s-5 2.24-5 5v7h5c0 .7.12 1.37.34 2H3Z" transform="matrix(1.5 0 0 1.5 648 216)" id="mdi-bell-check-outline" fill="#555"/><path d="m17.75 21.16-2.75-3L16.16 17l1.59 1.59L21.34 15l1.16 1.41-4.75 4.75M10 21h2.8c.24.41.53.79.85 1.13-.36.53-.96.87-1.65.87a2 2 0 0 1-2-2m-7-1v-1l2-2v-6a7 7 0 0 1 5-6.71V4a2 2 0 1 1 4 0v.29A7 7 0 0 1 19 11v1.08L18 12l-1 .08V11c0-2.76-2.24-5-5-5s-5 2.24-5 5v7h5c0 .7.12 1.37.34 2H3Z" transform="matrix(1.5 0 0 1.5 684 216)" id="mdi-bell-check-outline" fill="#fff"/><path d="M12 2a10 10 0 0 1 10 10 10 10 0 0 1-10 10A10 10 0 0 1 2 12 10 10 0 0 1 12 2m5 14v-1l-1-1v-2.61c0-1.09-.27-2.05-.79-2.86C14.7 7.72 13.96 7.21 13 7v-.5a1 1 0 0 0-1-1 1 1 0 0 0-1 1V7c-.96.21-1.7.72-2.21 1.53-.52.81-.79 1.77-.79 2.86V14l-1 1v1h10m-3.5 1h-3a1.5 1.5 0 0 0 1.5 1.5 1.5 1.5 0 0 0 1.5-1.5Z" transform="matrix(1.5 0 0 1.5 0 252)" id="mdi-bell-circle" fill="#555"/><path d="M12 2a10 10 0 0 1 10 10 10 10 0 0 1-10 10A10 10 0 0 1 2 12 10 10 0 0 1 12 2m5 14v-1l-1-1v-2.61c0-1.09-.27-2.05-.79-2.86C14.7 7.72 13.96 7.21 13 7v-.5a1 1 0 0 0-1-1 1 1 0 0 0-1 1V7c-.96.21-1.7.72-2.21 1.53-.52.81-.79 1.77-.79 2.86V14l-1 1v1h10m-3.5 1h-3a1.5 1.5 0 0 0 1.5 1.5 1.5 1.5 0 0 0 1.5-1.5Z" transform="matrix(1.5 0 0 1.5 36 252)" id="mdi-bell-circle" fill="#fff"/><path d="M17 16H7v-1l1-1v-2.61c0-1.09.27-2.05.79-2.86C9.3 7.72 10.04 7.21 11 7v-.5a1 1 0 0 1 1-1 1 1 0 0 1 1 1V7c.96.21 1.7.72 2.21 1.53.52.81.79 1.77.79 2.86V14l1 1v1m-3.5 1a1.5 1.5 0 0 1-1.5 1.5 1.5 1.5 0 0 1-1.5-1.5h3M12 2a10 10 0 0 1 10 10 10 10 0 0 1-10 10A10 10 0 0 1 2 12 10 10 0 0 1 12 2m0 2a8 8 0 0 0-8 8 8 8 0 0 0 8 8 8 8 0 0 0 8-8 8 8 0 0 0-8-8Z" transform="matrix(1.5 0 0 1.5 72 252)" id="mdi-bell-circle-outline" fill="#555"/><path d="M17 16H7v-1l1-1v-2.61c0-1.09.27-2.05.79-2.86C9.3 7.72 10.04 7.21 11 7v-.5a1 1 0 0 1 1-1 1 1 0 0 1 1 1V7c.96.21 1.7.72 2.21 1.53.52.81.79 1.77.79 2.86V14l1 1v1m-3.5 1a1.5 1.5 0 0 1-1.5 1.5 1.5 1.5 0 0 1-1.5-1.5h3M12 2a10 10 0 0 1 10 10 10 10 0 0 1-10 10A10 10 0 0 1 2 12 10 10 0 0 1 12 2m0 2a8 8 0 0 0-8 8 8 8 0 0 0 8 8 8 8 0 0 0 8-8 8 8 0 0 0-8-8Z" transform="matrix(1.5 0 0 1.5 108 252)" id="mdi-bell-circle-outline" fill="#fff"/><path d="M22 19v-2h-8v2h8M12 2c-1.1 0-2 .9-2 2v.29C7.12 5.14 5 7.82 5 11v6l-2 2v1h9.35a5.93 5.93 0 0 1-.35-2c0-3.31 2.69-6 6-6 .34 0 .67.03 1 .09V11c0-3.18-2.12-5.86-5-6.71V4a2 2 0 0 0-2-2m-2 19a2 2 0 0 0 3.65 1.13c-.32-.34-.6-.72-.84-1.13H10Z" transform="matrix(1.5 0 0 1.5 144 252)" id="mdi-bell-minus" fill="#555"/><path d="M22 19v-2h-8v2h8M12 2c-1.1 0-2 .9-2 2v.29C7.12 5.14 5 7.82 5 11v6l-2 2v1h9.35a5.93 5.93 0 0 1-.35-2c0-3.31 2.69-6 6-6 .34 0 .67.03 1 .09V11c0-3.18-2.12-5.86-5-6.71V4a2 2 0 0 0-2-2m-2 19a2 2 0 0 0 3.65 1.13c-.32-.34-.6-.72-.84-1.13H10Z" transform="matrix(1.5 0 0 1.5 180 252)" id="mdi-bell-minus" fill="#fff"/><path d="M12 2c-1.1 0-2 .9-2 2v.29C7.12 5.14 5 7.82 5 11v6l-2 2v1h9.35a5.93 5.93 0 0 1-.35-2H7v-7c0-2.76 2.24-5 5-5s5 2.24 5 5v1.09a5.634 5.634 0 0 1 2 0V11c0-3.18-2.12-5.86-5-6.71V4a2 2 0 0 0-2-2m2 15v2h8v-2m-12 4a2 2 0 0 0 3.65 1.13c-.32-.34-.6-.72-.84-1.13H10Z" transform="matrix(1.5 0 0 1.5 216 252)" id="mdi-bell-minus-outline" fill="#555"/><path d="M12 2c-1.1 0-2 .9-2 2v.29C7.12 5.14 5 7.82 5 11v6l-2 2v1h9.35a5.93 5.93 0 0 1-.35-2H7v-7c0-2.76 2.24-5 5-5s5 2.24 5 5v1.09a5.634 5.634 0 0 1 2 0V11c0-3.18-2.12-5.86-5-6.71V4a2 2 0 0 0-2-2m2 15v2h8v-2m-12 4a2 2 0 0 0 3.65 1.13c-.32-.34-.6-.72-.84-1.13H10Z" transform="matrix(1.5 0 0 1.5 252 252)" id="mdi-bell-minus-outline" fill="#fff"/><path d="M20.84 22.73 18.11 20H3v-1l2-2v-6c0-1.14.29-2.27.83-3.28L1.11 3l1.28-1.27 19.72 19.73-1.27 1.27M19 15.8V11c0-3.1-2.03-5.83-5-6.71V4a2 2 0 0 0-2-2 2 2 0 0 0-2 2v.29c-.61.18-1.2.45-1.74.8L19 15.8M12 23a2 2 0 0 0 2-2h-4a2 2 0 0 0 2 2Z" transform="matrix(1.5 0 0 1.5 288 252)" id="mdi-bell-off" fill="#555"/><path d="M20.84 22.73 18.11 20H3v-1l2-2v-6c0-1.14.29-2.27.83-3.28L1.11 3l1.28-1.27 19.72 19.73-1.27 1.27M19 15.8V11c0-3.1-2.03-5.83-5-6.71V4a2 2 0 0 0-2-2 2 2 0 0 0-2 2v.29c-.61.18-1.2.45-1.74.8L19 15.8M12 23a2 2 0 0 0 2-2h-4a2 2 0 0 0 2 2Z" transform="matrix(1.5 0 0 1.5 324 252)" id="mdi-bell-off" fill="#fff"/><path d="M22.11 21.46 2.39 1.73 1.11 3l4.72 4.72A6.975 6.975 0 0 0 5 11v6l-2 2v1h15.11l2.73 2.73 1.27-1.27M7 18v-7c0-.61.11-1.21.34-1.77L16.11 18H7m3 3h4a2 2 0 0 1-2 2 2 2 0 0 1-2-2M8.29 5.09c.53-.34 1.11-.59 1.71-.8V4a2 2 0 0 1 2-2 2 2 0 0 1 2 2v.29c2.97.88 5 3.61 5 6.71v4.8l-2-2V11a5 5 0 0 0-5-5c-.78 0-1.55.2-2.24.56L8.29 5.09Z" transform="matrix(1.5 0 0 1.5 360 252)" id="mdi-bell-off-outline" fill="#555"/><path d="M22.11 21.46 2.39 1.73 1.11 3l4.72 4.72A6.975 6.975 0 0 0 5 11v6l-2 2v1h15.11l2.73 2.73 1.27-1.27M7 18v-7c0-.61.11-1.21.34-1.77L16.11 18H7m3 3h4a2 2 0 0 1-2 2 2 2 0 0 1-2-2M8.29 5.09c.53-.34 1.11-.59 1.71-.8V4a2 2 0 0 1 2-2 2 2 0 0 1 2 2v.29c2.97.88 5 3.61 5 6.71v4.8l-2-2V11a5 5 0 0 0-5-5c-.78 0-1.55.2-2.24.56L8.29 5.09Z" transform="matrix(1.5 0 0 1.5 396 252)" id="mdi-bell-off-outline" fill="#fff"/><path d="M10 21h4c0 1.1-.9 2-2 2s-2-.9-2-2m11-2v1H3v-1l2-2v-6c0-3.1 2-5.8 5-6.7V4c0-1.1.9-2 2-2s2 .9 2 2v.3c3 .9 5 3.6 5 6.7v6l2 2m-4-8c0-2.8-2.2-5-5-5s-5 2.2-5 5v7h10v-7Z" transform="matrix(1.5 0 0 1.5 432 252)" id="mdi-bell-outline" fill="#555"/><path d="M10 21h4c0 1.1-.9 2-2 2s-2-.9-2-2m11-2v1H3v-1l2-2v-6c0-3.1 2-5.8 5-6.7V4c0-1.1.9-2 2-2s2 .9 2 2v.3c3 .9 5 3.6 5 6.7v6l2 2m-4-8c0-2.8-2.2-5-5-5s-5 2.2-5 5v7h10v-7Z" transform="matrix(1.5 0 0 1.5 468 252)" id="mdi-bell-outline" fill="#fff"/><path d="M17 14v3h-3v2h3v3h2v-3h3v-2h-3v-3M12 2a2 2 0 0 0-2 2 2 2 0 0 0 0 .29C7.12 5.14 5 7.82 5 11v6l-2 2v1h9.35a6 6 0 0 1-.35-2 6 6 0 0 1 6-6 6 6 0 0 1 1 .09V11c0-3.18-2.12-5.86-5-6.71A2 2 0 0 0 14 4a2 2 0 0 0-2-2m-2 19a2 2 0 0 0 2 2 2 2 0 0 0 1.65-.87 6 6 0 0 1-.84-1.13Z" transform="matrix(1.5 0 0 1.5 504 252)" id="mdi-bell-plus" fill="#555"/><path d="M17 14v3h-3v2h3v3h2v-3h3v-2h-3v-3M12 2a2 2 0 0 0-2 2 2 2 0 0 0 0 .29C7.12 5.14 5 7.82 5 11v6l-2 2v1h9.35a6 6 0 0 1-.35-2 6 6 0 0 1 6-6 6 6 0 0 1 1 .09V11c0-3.18-2.12-5.86-5-6.71A2 2 0 0 0 14 4a2 2 0 0 0-2-2m-2 19a2 2 0 0 0 2 2 2 2 0 0 0 1.65-.87 6 6 0 0 1-.84-1.13Z" transform="matrix(1.5 0 0 1.5 540 252)" id="mdi-bell-plus" fill="#fff"/><path d="M12 2c-1.1 0-2 .9-2 2v.29C7.12 5.14 5 7.82 5 11v6l-2 2v1h9.35a5.93 5.93 0 0 1-.35-2H7v-7c0-2.76 2.24-5 5-5s5 2.24 5 5v1.09a5.634 5.634 0 0 1 2 0V11c0-3.18-2.12-5.86-5-6.71V4a2 2 0 0 0-2-2m5 12v3h-3v2h3v3h2v-3h3v-2h-3v-3m-9 7a2 2 0 0 0 3.65 1.13c-.32-.34-.6-.72-.84-1.13Z" transform="matrix(1.5 0 0 1.5 576 252)" id="mdi-bell-plus-outline" fill="#555"/><path d="M12 2c-1.1 0-2 .9-2 2v.29C7.12 5.14 5 7.82 5 11v6l-2 2v1h9.35a5.93 5.93 0 0 1-.35-2H7v-7c0-2.76 2.24-5 5-5s5 2.24 5 5v1.09a5.634 5.634 0 0 1 2 0V11c0-3.18-2.12-5.86-5-6.71V4a2 2 0 0 0-2-2m5 12v3h-3v2h3v3h2v-3h3v-2h-3v-3m-9 7a2 2 0 0 0 3.65 1.13c-.32-.34-.6-.72-.84-1.13Z" transform="matrix(1.5 0 0 1.5 612 252)" id="mdi-bell-plus-outline" fill="#fff"/><path d="M20.12 14.46 18 16.59l-2.12-2.13-1.42 1.42L16.59 18l-2.13 2.12 1.42 1.42L18 19.41l2.12 2.13 1.42-1.42L19.41 18l2.13-2.12M12 2c-1.1 0-2 .9-2 2v.29C7.12 5.14 5 7.82 5 11v6l-2 2v1h9.35a5.93 5.93 0 0 1-.35-2c0-3.31 2.69-6 6-6 .34 0 .67.03 1 .09V11c0-3.18-2.12-5.86-5-6.71V4a2 2 0 0 0-2-2m-2 19a2 2 0 0 0 3.65 1.13c-.32-.34-.6-.72-.84-1.13Z" transform="matrix(1.5 0 0 1.5 648 252)" id="mdi-bell-remove" fill="#555"/><path d="M20.12 14.46 18 16.59l-2.12-2.13-1.42 1.42L16.59 18l-2.13 2.12 1.42 1.42L18 19.41l2.12 2.13 1.42-1.42L19.41 18l2.13-2.12M12 2c-1.1 0-2 .9-2 2v.29C7.12 5.14 5 7.82 5 11v6l-2 2v1h9.35a5.93 5.93 0 0 1-.35-2c0-3.31 2.69-6 6-6 .34 0 .67.03 1 .09V11c0-3.18-2.12-5.86-5-6.71V4a2 2 0 0 0-2-2m-2 19a2 2 0 0 0 3.65 1.13c-.32-.34-.6-.72-.84-1.13Z" transform="matrix(1.5 0 0 1.5 684 252)" id="mdi-bell-remove" fill="#fff"/><path d="M20.12 14.46 18 16.59l-2.12-2.13-1.42 1.42L16.59 18l-2.13 2.12 1.42 1.42L18 19.41l2.12 2.13 1.42-1.42L19.41 18l2.13-2.12M12 2c-1.1 0-2 .9-2 2v.29C7.12 5.14 5 7.82 5 11v6l-2 2v1h9.35a5.93 5.93 0 0 1-.35-2H7v-7a5 5 0 0 1 5-5 5 5 0 0 1 5 5v1.09c.33-.05.66-.09 1-.09.34 0 .67.03 1 .09V11c0-3.18-2.12-5.86-5-6.71V4a2 2 0 0 0-2-2m-2 19a2 2 0 0 0 3.65 1.13c-.32-.34-.6-.72-.84-1.13Z" transform="matrix(1.5 0 0 1.5 0 288)" id="mdi-bell-remove-outline" fill="#555"/><path d="M20.12 14.46 18 16.59l-2.12-2.13-1.42 1.42L16.59 18l-2.13 2.12 1.42 1.42L18 19.41l2.12 2.13 1.42-1.42L19.41 18l2.13-2.12M12 2c-1.1 0-2 .9-2 2v.29C7.12 5.14 5 7.82 5 11v6l-2 2v1h9.35a5.93 5.93 0 0 1-.35-2H7v-7a5 5 0 0 1 5-5 5 5 0 0 1 5 5v1.09c.33-.05.66-.09 1-.09.34 0 .67.03 1 .09V11c0-3.18-2.12-5.86-5-6.71V4a2 2 0 0 0-2-2m-2 19a2 2 0 0 0 3.65 1.13c-.32-.34-.6-.72-.84-1.13Z" transform="matrix(1.5 0 0 1.5 36 288)" id="mdi-bell-remove-outline" fill="#fff"/><path d="M21 19v1H3v-1l2-2v-6c0-3.1 2.03-5.83 5-6.71V4a2 2 0 0 1 2-2 2 2 0 0 1 2 2v.29c2.97.88 5 3.61 5 6.71v6l2 2m-7 2a2 2 0 0 1-2 2 2 2 0 0 1-2-2m9.75-17.81-1.42 1.42A8.982 8.982 0 0 1 21 11h2c0-2.93-1.16-5.75-3.25-7.81M1 11h2c0-2.4.96-4.7 2.67-6.39L4.25 3.19A10.96 10.96 0 0 0 1 11Z" transform="matrix(1.5 0 0 1.5 72 288)" id="mdi-bell-ring" fill="#555"/><path d="M21 19v1H3v-1l2-2v-6c0-3.1 2.03-5.83 5-6.71V4a2 2 0 0 1 2-2 2 2 0 0 1 2 2v.29c2.97.88 5 3.61 5 6.71v6l2 2m-7 2a2 2 0 0 1-2 2 2 2 0 0 1-2-2m9.75-17.81-1.42 1.42A8.982 8.982 0 0 1 21 11h2c0-2.93-1.16-5.75-3.25-7.81M1 11h2c0-2.4.96-4.7 2.67-6.39L4.25 3.19A10.96 10.96 0 0 0 1 11Z" transform="matrix(1.5 0 0 1.5 108 288)" id="mdi-bell-ring" fill="#fff"/><path d="M10 21h4a2 2 0 0 1-2 2 2 2 0 0 1-2-2m11-2v1H3v-1l2-2v-6c0-3.1 2.03-5.83 5-6.71V4a2 2 0 0 1 2-2 2 2 0 0 1 2 2v.29c2.97.88 5 3.61 5 6.71v6l2 2m-4-8a5 5 0 0 0-5-5 5 5 0 0 0-5 5v7h10v-7m2.75-7.81-1.42 1.42A8.982 8.982 0 0 1 21 11h2c0-2.93-1.16-5.75-3.25-7.81M1 11h2c0-2.4.96-4.7 2.67-6.39L4.25 3.19A10.96 10.96 0 0 0 1 11Z" transform="matrix(1.5 0 0 1.5 144 288)" id="mdi-bell-ring-outline" fill="#555"/><path d="M10 21h4a2 2 0 0 1-2 2 2 2 0 0 1-2-2m11-2v1H3v-1l2-2v-6c0-3.1 2.03-5.83 5-6.71V4a2 2 0 0 1 2-2 2 2 0 0 1 2 2v.29c2.97.88 5 3.61 5 6.71v6l2 2m-4-8a5 5 0 0 0-5-5 5 5 0 0 0-5 5v7h10v-7m2.75-7.81-1.42 1.42A8.982 8.982 0 0 1 21 11h2c0-2.93-1.16-5.75-3.25-7.81M1 11h2c0-2.4.96-4.7 2.67-6.39L4.25 3.19A10.96 10.96 0 0 0 1 11Z" transform="matrix(1.5 0 0 1.5 180 288)" id="mdi-bell-ring-outline" fill="#fff"/><path d="M10 21h4a2 2 0 0 1-2 2 2 2 0 0 1-2-2m11-2v1H3v-1l2-2v-6c0-3.1 2.03-5.83 5-6.71V4a2 2 0 0 1 2-2 2 2 0 0 1 2 2v.29c2.97.88 5 3.61 5 6.71v6l2 2M15 9H9v2h3.24L9 13.7V16h6v-2h-3.24L15 11.3V9Z" transform="matrix(1.5 0 0 1.5 216 288)" id="mdi-bell-sleep" fill="#555"/><path d="M10 21h4a2 2 0 0 1-2 2 2 2 0 0 1-2-2m11-2v1H3v-1l2-2v-6c0-3.1 2.03-5.83 5-6.71V4a2 2 0 0 1 2-2 2 2 0 0 1 2 2v.29c2.97.88 5 3.61 5 6.71v6l2 2M15 9H9v2h3.24L9 13.7V16h6v-2h-3.24L15 11.3V9Z" transform="matrix(1.5 0 0 1.5 252 288)" id="mdi-bell-sleep" fill="#fff"/><path d="M10 21h4a2 2 0 0 1-2 2 2 2 0 0 1-2-2m11-2v1H3v-1l2-2v-6c0-3.1 2.03-5.83 5-6.71V4a2 2 0 0 1 2-2 2 2 0 0 1 2 2v.29c2.97.88 5 3.61 5 6.71v6l2 2m-4-8a5 5 0 0 0-5-5 5 5 0 0 0-5 5v7h10v-7M9 9v2h3.24L9 13.7V16h6v-2h-3.24L15 11.3V9H9Z" transform="matrix(1.5 0 0 1.5 288 288)" id="mdi-bell-sleep-outline" fill="#555"/><path d="M10 21h4a2 2 0 0 1-2 2 2 2 0 0 1-2-2m11-2v1H3v-1l2-2v-6c0-3.1 2.03-5.83 5-6.71V4a2 2 0 0 1 2-2 2 2 0 0 1 2 2v.29c2.97.88 5 3.61 5 6.71v6l2 2m-4-8a5 5 0 0 0-5-5 5 5 0 0 0-5 5v7h10v-7M9 9v2h3.24L9 13.7V16h6v-2h-3.24L15 11.3V9H9Z" transform="matrix(1.5 0 0 1.5 324 288)" id="mdi-bell-sleep-outline" fill="#fff"/><path d="M9.23 17.59v5.53H6.88V6.72c0-1.45.43-2.59 1.28-3.44C9 2.43 10.17 2 11.61 2c1.39 0 2.46.34 3.26 1 .79.68 1.18 1.62 1.18 2.81 0 .82-.26 1.59-.78 2.3-.52.71-1.19 1.2-2.02 1.47v.04c1.25.2 2.22.65 2.88 1.38.66.71.99 1.62.99 2.74 0 1.32-.46 2.4-1.37 3.23-.92.83-2.12 1.24-3.62 1.24-1.06 0-2.03-.21-2.9-.62m1.49-6.84V8.83c.87-.11 1.58-.43 2.15-.97.56-.55.84-1.16.84-1.86 0-1.38-.71-2.08-2.11-2.08-.76 0-1.35.24-1.76.73-.41.49-.61 1.17-.61 2.06v8.79c.91.53 1.8.79 2.66.79.84 0 1.5-.22 1.97-.65.47-.44.7-1.06.7-1.85 0-1.79-1.28-2.79-3.84-3.04Z" transform="matrix(1.5 0 0 1.5 360 288)" id="mdi-beta" fill="#555"/><path d="M9.23 17.59v5.53H6.88V6.72c0-1.45.43-2.59 1.28-3.44C9 2.43 10.17 2 11.61 2c1.39 0 2.46.34 3.26 1 .79.68 1.18 1.62 1.18 2.81 0 .82-.26 1.59-.78 2.3-.52.71-1.19 1.2-2.02 1.47v.04c1.25.2 2.22.65 2.88 1.38.66.71.99 1.62.99 2.74 0 1.32-.46 2.4-1.37 3.23-.92.83-2.12 1.24-3.62 1.24-1.06 0-2.03-.21-2.9-.62m1.49-6.84V8.83c.87-.11 1.58-.43 2.15-.97.56-.55.84-1.16.84-1.86 0-1.38-.71-2.08-2.11-2.08-.76 0-1.35.24-1.76.73-.41.49-.61 1.17-.61 2.06v8.79c.91.53 1.8.79 2.66.79.84 0 1.5-.22 1.97-.65.47-.44.7-1.06.7-1.85 0-1.79-1.28-2.79-3.84-3.04Z" transform="matrix(1.5 0 0 1.5 396 288)" id="mdi-beta" fill="#fff"/><path d="M4 5a2 2 0 0 0-2 2v10a2 2 0 0 0 2 2h16a2 2 0 0 0 2-2V7a2 2 0 0 0-2-2H4m4 4a4 4 0 0 1 4 4 4 4 0 0 1-4 4 4 4 0 0 1-4-4 4 4 0 0 1 4-4m5 0h7v8h-7V9m-5 2a2 2 0 0 0-2 2 2 2 0 0 0 2 2 2 2 0 0 0 2-2 2 2 0 0 0-2-2Z" transform="matrix(1.5 0 0 1.5 432 288)" id="mdi-betamax" fill="#555"/><path d="M4 5a2 2 0 0 0-2 2v10a2 2 0 0 0 2 2h16a2 2 0 0 0 2-2V7a2 2 0 0 0-2-2H4m4 4a4 4 0 0 1 4 4 4 4 0 0 1-4 4 4 4 0 0 1-4-4 4 4 0 0 1 4-4m5 0h7v8h-7V9m-5 2a2 2 0 0 0-2 2 2 2 0 0 0 2 2 2 2 0 0 0 2-2 2 2 0 0 0-2-2Z" transform="matrix(1.5 0 0 1.5 468 288)" id="mdi-betamax" fill="#fff"/><path d="M12.88 3.64c.77 0 1.4.63 1.4 1.4 0 .77-.63 1.4-1.4 1.4-.77 0-1.38-.63-1.38-1.4 0-.77.61-1.4 1.38-1.4M15 13h1.5v6H15v-6m0-4.5h1.5V10H15V8.5m-4.96-5.9L8 2.04 6.06 8.58 3.9 11.42l3.27.95 2.87-9.77m9.63 15.95c-.36.38-.79.95-1.27 1.15-.49.22-.86.3-1.4.3h-3.5l-.07-3c-.01-.17-.06-.33-.15-.5l-2.4-4.26.88-2.74a245.5 245.5 0 0 0 1.3 2.33c.15.17.39.3.63.3h2.21a.81.81 0 0 0 .81-.81c0-.42-.33-.76-.75-.79l-1.67-.13L12.4 7s-.4-.58-1.26-.58c-.87 0-1.14.42-1.31 1L6 20H3v2h14c1.37 0 2.53-.66 3.5-1.63l-.83-1.82m-9.92-4.16 1.87 3 .13 2.61h-4l2-5.61Z" transform="matrix(1.5 0 0 1.5 504 288)" id="mdi-biathlon" fill="#555"/><path d="M12.88 3.64c.77 0 1.4.63 1.4 1.4 0 .77-.63 1.4-1.4 1.4-.77 0-1.38-.63-1.38-1.4 0-.77.61-1.4 1.38-1.4M15 13h1.5v6H15v-6m0-4.5h1.5V10H15V8.5m-4.96-5.9L8 2.04 6.06 8.58 3.9 11.42l3.27.95 2.87-9.77m9.63 15.95c-.36.38-.79.95-1.27 1.15-.49.22-.86.3-1.4.3h-3.5l-.07-3c-.01-.17-.06-.33-.15-.5l-2.4-4.26.88-2.74a245.5 245.5 0 0 0 1.3 2.33c.15.17.39.3.63.3h2.21a.81.81 0 0 0 .81-.81c0-.42-.33-.76-.75-.79l-1.67-.13L12.4 7s-.4-.58-1.26-.58c-.87 0-1.14.42-1.31 1L6 20H3v2h14c1.37 0 2.53-.66 3.5-1.63l-.83-1.82m-9.92-4.16 1.87 3 .13 2.61h-4l2-5.61Z" transform="matrix(1.5 0 0 1.5 540 288)" id="mdi-biathlon" fill="#fff"/><path d="M19 10c-.56 0-1.09.11-1.59.28L14.46 4.5H11V6h2.54l.88 1.72L12 13.13l-1.77-4.18c.27-.1.51-.37.51-.7 0-.41-.33-.75-.74-.75H8c-.42 0-.76.34-.76.75S7.58 9 8 9h.61l2.25 5.25h-.94C9.56 11.85 7.5 10 5 10c-2.76 0-5 2.24-5 5s2.24 5 5 5c2.5 0 4.56-1.85 4.92-4.25h2.58l2.79-6.32.79 1.53A4.976 4.976 0 0 0 14 15c0 2.76 2.24 5 5 5s5-2.24 5-5-2.24-5-5-5M5 18.5c-1.93 0-3.5-1.57-3.5-3.5s1.57-3.5 3.5-3.5c1.67 0 3.07 1.18 3.41 2.75H4v1.5h4.41A3.495 3.495 0 0 1 5 18.5m14 0c-1.93 0-3.5-1.57-3.5-3.5 0-1.08.5-2.03 1.27-2.67l1.8 3.52 1.32-.72-1.79-3.5c.29-.07.59-.13.9-.13 1.93 0 3.5 1.57 3.5 3.5s-1.57 3.5-3.5 3.5Z" transform="matrix(1.5 0 0 1.5 576 288)" id="mdi-bicycle" fill="#555"/><path d="M19 10c-.56 0-1.09.11-1.59.28L14.46 4.5H11V6h2.54l.88 1.72L12 13.13l-1.77-4.18c.27-.1.51-.37.51-.7 0-.41-.33-.75-.74-.75H8c-.42 0-.76.34-.76.75S7.58 9 8 9h.61l2.25 5.25h-.94C9.56 11.85 7.5 10 5 10c-2.76 0-5 2.24-5 5s2.24 5 5 5c2.5 0 4.56-1.85 4.92-4.25h2.58l2.79-6.32.79 1.53A4.976 4.976 0 0 0 14 15c0 2.76 2.24 5 5 5s5-2.24 5-5-2.24-5-5-5M5 18.5c-1.93 0-3.5-1.57-3.5-3.5s1.57-3.5 3.5-3.5c1.67 0 3.07 1.18 3.41 2.75H4v1.5h4.41A3.495 3.495 0 0 1 5 18.5m14 0c-1.93 0-3.5-1.57-3.5-3.5 0-1.08.5-2.03 1.27-2.67l1.8 3.52 1.32-.72-1.79-3.5c.29-.07.59-.13.9-.13 1.93 0 3.5 1.57 3.5 3.5s-1.57 3.5-3.5 3.5Z" transform="matrix(1.5 0 0 1.5 612 288)" id="mdi-bicycle" fill="#fff"/><path d="m11.74 13.36 2.4-5.65-1.08-2.21H10.5V4H14l.73 1.5h7.02l-1 3.5h-4.31l.67 1.37A5.002 5.002 0 0 1 24 15c0 2.76-2.24 5-5 5s-5-2.24-5-5c0-1.55.71-2.94 1.82-3.85L15 9.5 12.25 16H9.9A5 5 0 1 1 5 10c2.59 0 4.72 1.97 5 4.5h.58L8.3 9h-.8c-.41 0-.75-.34-.75-.75s.34-.75.75-.75h2.75c.41 0 .75.34.75.75s-.34.75-.75.75h-.28l1.77 4.36M5 11.5c-1.93 0-3.5 1.57-3.5 3.5a3.504 3.504 0 0 0 6.86 1H4v-1.5h4.47c-.25-1.7-1.71-3-3.47-3m14 0c-.43 0-.85.08-1.23.22l1.93 3.96-1.35.66-1.85-3.79c-.62.63-1 1.5-1 2.45 0 1.93 1.57 3.5 3.5 3.5s3.5-1.57 3.5-3.5-1.57-3.5-3.5-3.5Z" transform="matrix(1.5 0 0 1.5 648 288)" id="mdi-bicycle-basket" fill="#555"/><path d="m11.74 13.36 2.4-5.65-1.08-2.21H10.5V4H14l.73 1.5h7.02l-1 3.5h-4.31l.67 1.37A5.002 5.002 0 0 1 24 15c0 2.76-2.24 5-5 5s-5-2.24-5-5c0-1.55.71-2.94 1.82-3.85L15 9.5 12.25 16H9.9A5 5 0 1 1 5 10c2.59 0 4.72 1.97 5 4.5h.58L8.3 9h-.8c-.41 0-.75-.34-.75-.75s.34-.75.75-.75h2.75c.41 0 .75.34.75.75s-.34.75-.75.75h-.28l1.77 4.36M5 11.5c-1.93 0-3.5 1.57-3.5 3.5a3.504 3.504 0 0 0 6.86 1H4v-1.5h4.47c-.25-1.7-1.71-3-3.47-3m14 0c-.43 0-.85.08-1.23.22l1.93 3.96-1.35.66-1.85-3.79c-.62.63-1 1.5-1 2.45 0 1.93 1.57 3.5 3.5 3.5s3.5-1.57 3.5-3.5-1.57-3.5-3.5-3.5Z" transform="matrix(1.5 0 0 1.5 684 288)" id="mdi-bicycle-basket" fill="#fff"/><path d="M21 11.5V10l-7.5-1V5H9v1.5h3v7.8h-1L9 10c.3-.1.5-.4.5-.7 0-.4-.3-.8-.7-.8h-2c-.5 0-.8.3-.8.7s.3.8.8.8h.6l2 4.2H7.9C7.6 12.4 6 11 4 11c-2.2 0-4 1.8-4 4s1.8 4 4 4c2 0 3.6-1.4 3.9-3.2h8.6c.2-2.4 2.1-4.3 4.5-4.3M6.4 15.8c-.3 1-1.3 1.8-2.4 1.8-1.4 0-2.5-1.1-2.5-2.5s1.1-2.5 2.5-2.5c1.1 0 2.1.7 2.4 1.8H4v1.5h2.4M21 13c-1.7 0-3 1.3-3 3s1.3 3 3 3 3-1.3 3-3-1.3-3-3-3m0 4.5c-.8 0-1.5-.7-1.5-1.5s.7-1.5 1.5-1.5 1.5.7 1.5 1.5-.7 1.5-1.5 1.5Z" transform="matrix(1.5 0 0 1.5 0 324)" id="mdi-bicycle-cargo" fill="#555"/><path d="M21 11.5V10l-7.5-1V5H9v1.5h3v7.8h-1L9 10c.3-.1.5-.4.5-.7 0-.4-.3-.8-.7-.8h-2c-.5 0-.8.3-.8.7s.3.8.8.8h.6l2 4.2H7.9C7.6 12.4 6 11 4 11c-2.2 0-4 1.8-4 4s1.8 4 4 4c2 0 3.6-1.4 3.9-3.2h8.6c.2-2.4 2.1-4.3 4.5-4.3M6.4 15.8c-.3 1-1.3 1.8-2.4 1.8-1.4 0-2.5-1.1-2.5-2.5s1.1-2.5 2.5-2.5c1.1 0 2.1.7 2.4 1.8H4v1.5h2.4M21 13c-1.7 0-3 1.3-3 3s1.3 3 3 3 3-1.3 3-3-1.3-3-3-3m0 4.5c-.8 0-1.5-.7-1.5-1.5s.7-1.5 1.5-1.5 1.5.7 1.5 1.5-.7 1.5-1.5 1.5Z" transform="matrix(1.5 0 0 1.5 36 324)" id="mdi-bicycle-cargo" fill="#fff"/><path d="M19 7c-.56 0-1.09.11-1.59.28L14.46 1.5H11V3h2.54l.88 1.72L12 10.13l-1.77-4.18c.27-.1.51-.37.51-.7 0-.41-.33-.75-.74-.75H8c-.42 0-.76.34-.76.75S7.58 6 8 6h.61l2.25 5.25h-.94C9.56 8.85 7.5 7 5 7c-2.76 0-5 2.24-5 5s2.24 5 5 5c2.5 0 4.56-1.85 4.92-4.25h2.58l2.79-6.32.79 1.53A4.976 4.976 0 0 0 14 12c0 2.76 2.24 5 5 5s5-2.24 5-5-2.24-5-5-5M5 15.5c-1.93 0-3.5-1.57-3.5-3.5S3.07 8.5 5 8.5c1.67 0 3.07 1.18 3.41 2.75H4v1.5h4.41A3.495 3.495 0 0 1 5 15.5m14 0c-1.93 0-3.5-1.57-3.5-3.5 0-1.08.5-2.03 1.27-2.67l1.8 3.52 1.32-.72-1.79-3.5c.29-.07.59-.13.9-.13 1.93 0 3.5 1.57 3.5 3.5s-1.57 3.5-3.5 3.5M11 20H7l6 3v-2h4l-6-3v2Z" transform="matrix(1.5 0 0 1.5 72 324)" id="mdi-bicycle-electric" fill="#555"/><path d="M19 7c-.56 0-1.09.11-1.59.28L14.46 1.5H11V3h2.54l.88 1.72L12 10.13l-1.77-4.18c.27-.1.51-.37.51-.7 0-.41-.33-.75-.74-.75H8c-.42 0-.76.34-.76.75S7.58 6 8 6h.61l2.25 5.25h-.94C9.56 8.85 7.5 7 5 7c-2.76 0-5 2.24-5 5s2.24 5 5 5c2.5 0 4.56-1.85 4.92-4.25h2.58l2.79-6.32.79 1.53A4.976 4.976 0 0 0 14 12c0 2.76 2.24 5 5 5s5-2.24 5-5-2.24-5-5-5M5 15.5c-1.93 0-3.5-1.57-3.5-3.5S3.07 8.5 5 8.5c1.67 0 3.07 1.18 3.41 2.75H4v1.5h4.41A3.495 3.495 0 0 1 5 15.5m14 0c-1.93 0-3.5-1.57-3.5-3.5 0-1.08.5-2.03 1.27-2.67l1.8 3.52 1.32-.72-1.79-3.5c.29-.07.59-.13.9-.13 1.93 0 3.5 1.57 3.5 3.5s-1.57 3.5-3.5 3.5M11 20H7l6 3v-2h4l-6-3v2Z" transform="matrix(1.5 0 0 1.5 108 324)" id="mdi-bicycle-electric" fill="#fff"/><path d="M15.5 5.06V2H12v2h1.5v1.04c-.79.07-1.56.23-2.3.46-.17-.3-.48-.5-.84-.5H7c-.55 0-1 .45-1 1s.45 1 1 1h1.05A11.5 11.5 0 0 0 3 16.18c-1.15.41-2 1.51-2 2.82 0 1.66 1.34 3 3 3s3-1.34 3-3c0-1.3-.83-2.39-2-2.81.07-1.52.46-2.94 1.14-4.19-.09.5-.14 1-.14 1.5 0 4.69 3.81 8.5 8.5 8.5 4.69 0 8.5-3.81 8.5-8.5 0-4.36-3.28-7.94-7.5-8.44M4 20c-.55 0-1-.45-1-1s.45-1 1-1 1 .45 1 1-.45 1-1 1m10.5 0C10.92 20 8 17.08 8 13.5c0-3.24 2.39-5.93 5.5-6.41V15h2V7.09c3.11.48 5.5 3.17 5.5 6.41 0 3.58-2.92 6.5-6.5 6.5Z" transform="matrix(1.5 0 0 1.5 144 324)" id="mdi-bicycle-penny-farthing" fill="#555"/><path d="M15.5 5.06V2H12v2h1.5v1.04c-.79.07-1.56.23-2.3.46-.17-.3-.48-.5-.84-.5H7c-.55 0-1 .45-1 1s.45 1 1 1h1.05A11.5 11.5 0 0 0 3 16.18c-1.15.41-2 1.51-2 2.82 0 1.66 1.34 3 3 3s3-1.34 3-3c0-1.3-.83-2.39-2-2.81.07-1.52.46-2.94 1.14-4.19-.09.5-.14 1-.14 1.5 0 4.69 3.81 8.5 8.5 8.5 4.69 0 8.5-3.81 8.5-8.5 0-4.36-3.28-7.94-7.5-8.44M4 20c-.55 0-1-.45-1-1s.45-1 1-1 1 .45 1 1-.45 1-1 1m10.5 0C10.92 20 8 17.08 8 13.5c0-3.24 2.39-5.93 5.5-6.41V15h2V7.09c3.11.48 5.5 3.17 5.5 6.41 0 3.58-2.92 6.5-6.5 6.5Z" transform="matrix(1.5 0 0 1.5 180 324)" id="mdi-bicycle-penny-farthing" fill="#fff"/><path d="M5 20.5A3.5 3.5 0 0 1 1.5 17 3.5 3.5 0 0 1 5 13.5 3.5 3.5 0 0 1 8.5 17 3.5 3.5 0 0 1 5 20.5M5 12a5 5 0 0 0-5 5 5 5 0 0 0 5 5 5 5 0 0 0 5-5 5 5 0 0 0-5-5m9.8-2H19V8.2h-3.2l-1.94-3.27c-.29-.5-.86-.83-1.46-.83-.47 0-.9.19-1.2.5L7.5 8.29C7.19 8.6 7 9 7 9.5c0 .63.33 1.16.85 1.47L11.2 13v5H13v-6.5l-2.25-1.65 2.32-2.35m5.93 13a3.5 3.5 0 0 1-3.5-3.5 3.5 3.5 0 0 1 3.5-3.5 3.5 3.5 0 0 1 3.5 3.5 3.5 3.5 0 0 1-3.5 3.5m0-8.5a5 5 0 0 0-5 5 5 5 0 0 0 5 5 5 5 0 0 0 5-5 5 5 0 0 0-5-5m-3-7.2c1 0 1.8-.8 1.8-1.8S17 1.2 16 1.2 14.2 2 14.2 3 15 4.8 16 4.8Z" transform="matrix(1.5 0 0 1.5 216 324)" id="mdi-bike" fill="#555"/><path d="M5 20.5A3.5 3.5 0 0 1 1.5 17 3.5 3.5 0 0 1 5 13.5 3.5 3.5 0 0 1 8.5 17 3.5 3.5 0 0 1 5 20.5M5 12a5 5 0 0 0-5 5 5 5 0 0 0 5 5 5 5 0 0 0 5-5 5 5 0 0 0-5-5m9.8-2H19V8.2h-3.2l-1.94-3.27c-.29-.5-.86-.83-1.46-.83-.47 0-.9.19-1.2.5L7.5 8.29C7.19 8.6 7 9 7 9.5c0 .63.33 1.16.85 1.47L11.2 13v5H13v-6.5l-2.25-1.65 2.32-2.35m5.93 13a3.5 3.5 0 0 1-3.5-3.5 3.5 3.5 0 0 1 3.5-3.5 3.5 3.5 0 0 1 3.5 3.5 3.5 3.5 0 0 1-3.5 3.5m0-8.5a5 5 0 0 0-5 5 5 5 0 0 0 5 5 5 5 0 0 0 5-5 5 5 0 0 0-5-5m-3-7.2c1 0 1.8-.8 1.8-1.8S17 1.2 16 1.2 14.2 2 14.2 3 15 4.8 16 4.8Z" transform="matrix(1.5 0 0 1.5 252 324)" id="mdi-bike" fill="#fff"/><path d="M16 1.2c-1 0-1.8.8-1.8 1.8S15 4.8 16 4.8 17.8 4 17.8 3 17 1.2 16 1.2m-3.6 2.9c-.47 0-.9.19-1.2.5L7.5 8.29C7.19 8.6 7 9 7 9.5c0 .63.33 1.16.85 1.47L11.2 13v5H13v-6.5l-2.25-1.65 2.32-2.35L14.8 10H19V8.2h-3.2l-1.94-3.27c-.29-.5-.86-.83-1.46-.83M10 3H3c-.55 0-1-.45-1-1s.45-1 1-1h9.79c-.21.34-.38.71-.47 1.11-.86.02-1.67.34-2.32.89m-5 9c-2.76 0-5 2.24-5 5s2.24 5 5 5 5-2.24 5-5-2.24-5-5-5m0 8.5c-1.93 0-3.5-1.57-3.5-3.5s1.57-3.5 3.5-3.5 3.5 1.57 3.5 3.5-1.57 3.5-3.5 3.5M19 12c-2.76 0-5 2.24-5 5s2.24 5 5 5 5-2.24 5-5-2.24-5-5-5m0 8.5c-1.93 0-3.5-1.57-3.5-3.5s1.57-3.5 3.5-3.5 3.5 1.57 3.5 3.5-1.57 3.5-3.5 3.5M5.32 11H1c-.552 0-1-.45-1-1s.448-1 1-1h4.05c-.02.16-.05.33-.05.5 0 .53.12 1.04.32 1.5M6 7H2c-.55 0-1-.45-1-1s.45-1 1-1h5.97L6.09 6.87C6.05 6.91 6 6.96 6 7Z" transform="matrix(1.5 0 0 1.5 288 324)" id="mdi-bike-fast" fill="#555"/><path d="M16 1.2c-1 0-1.8.8-1.8 1.8S15 4.8 16 4.8 17.8 4 17.8 3 17 1.2 16 1.2m-3.6 2.9c-.47 0-.9.19-1.2.5L7.5 8.29C7.19 8.6 7 9 7 9.5c0 .63.33 1.16.85 1.47L11.2 13v5H13v-6.5l-2.25-1.65 2.32-2.35L14.8 10H19V8.2h-3.2l-1.94-3.27c-.29-.5-.86-.83-1.46-.83M10 3H3c-.55 0-1-.45-1-1s.45-1 1-1h9.79c-.21.34-.38.71-.47 1.11-.86.02-1.67.34-2.32.89m-5 9c-2.76 0-5 2.24-5 5s2.24 5 5 5 5-2.24 5-5-2.24-5-5-5m0 8.5c-1.93 0-3.5-1.57-3.5-3.5s1.57-3.5 3.5-3.5 3.5 1.57 3.5 3.5-1.57 3.5-3.5 3.5M19 12c-2.76 0-5 2.24-5 5s2.24 5 5 5 5-2.24 5-5-2.24-5-5-5m0 8.5c-1.93 0-3.5-1.57-3.5-3.5s1.57-3.5 3.5-3.5 3.5 1.57 3.5 3.5-1.57 3.5-3.5 3.5M5.32 11H1c-.552 0-1-.45-1-1s.448-1 1-1h4.05c-.02.16-.05.33-.05.5 0 .53.12 1.04.32 1.5M6 7H2c-.55 0-1-.45-1-1s.45-1 1-1h5.97L6.09 6.87C6.05 6.91 6 6.96 6 7Z" transform="matrix(1.5 0 0 1.5 324 324)" id="mdi-bike-fast" fill="#fff"/><path d="M20 22h-2v-5h2M6 22H4v-5h2M23 4v9a2 2 0 0 1-2 2H3a2 2 0 0 1-2-2V4a2 2 0 0 1 2-2h18a2 2 0 0 1 2 2m-2 0H3v9h18m-1-7h-5v2h5m-2 1h-3v2h3m-4 0H4l2.73-3.64 2 2.73.73-.54L8.2 7.82l1.71-2.27Z" transform="matrix(1.5 0 0 1.5 360 324)" id="mdi-billboard" fill="#555"/><path d="M20 22h-2v-5h2M6 22H4v-5h2M23 4v9a2 2 0 0 1-2 2H3a2 2 0 0 1-2-2V4a2 2 0 0 1 2-2h18a2 2 0 0 1 2 2m-2 0H3v9h18m-1-7h-5v2h5m-2 1h-3v2h3m-4 0H4l2.73-3.64 2 2.73.73-.54L8.2 7.82l1.71-2.27Z" transform="matrix(1.5 0 0 1.5 396 324)" id="mdi-billboard" fill="#fff"/><path d="M11 13h2v2h-2m0-6h2v2h-2m0 6h2a2 2 0 0 0 2-2v-1.5a1.5 1.5 0 0 0-1.5-1.5 1.5 1.5 0 0 0 1.5-1.5V9a2 2 0 0 0-2-2h-2a2 2 0 0 0-2 2v1.5a1.5 1.5 0 0 0 1.5 1.5A1.5 1.5 0 0 0 9 13.5V15a2 2 0 0 0 2 2m1-16C5.92 1 1 5.92 1 12s4.92 11 11 11 11-4.92 11-11S18.08 1 12 1m0 18a7 7 0 0 1-7-7 7 7 0 0 1 7-7 7 7 0 0 1 7 7 7 7 0 0 1-7 7Z" transform="matrix(1.5 0 0 1.5 432 324)" id="mdi-billiards" fill="#555"/><path d="M11 13h2v2h-2m0-6h2v2h-2m0 6h2a2 2 0 0 0 2-2v-1.5a1.5 1.5 0 0 0-1.5-1.5 1.5 1.5 0 0 0 1.5-1.5V9a2 2 0 0 0-2-2h-2a2 2 0 0 0-2 2v1.5a1.5 1.5 0 0 0 1.5 1.5A1.5 1.5 0 0 0 9 13.5V15a2 2 0 0 0 2 2m1-16C5.92 1 1 5.92 1 12s4.92 11 11 11 11-4.92 11-11S18.08 1 12 1m0 18a7 7 0 0 1-7-7 7 7 0 0 1 7-7 7 7 0 0 1 7 7 7 7 0 0 1-7 7Z" transform="matrix(1.5 0 0 1.5 468 324)" id="mdi-billiards" fill="#fff"/><path d="m20.31 16.44-5.77-9.97a2.978 2.978 0 0 0-4.08-1.09c-.46.26-.83.62-1.1 1.09L3.6 16.44a2.953 2.953 0 0 0 1.09 4.06c.45.28.96.42 1.49.42h11.55a2.992 2.992 0 0 0 2.98-3c0-.52-.14-1.03-.4-1.48m-14.94.99 5.74-9.96c.27-.47.89-.65 1.35-.37.16.08.29.21.38.37l5.74 9.96c.27.48.11 1.07-.37 1.36-.15.09-.32.14-.49.14H6.21c-.55-.01-1-.46-.99-1.01 0-.17.04-.34.13-.49h.02m6.6-3.98c-1.1 0-1.97-.89-1.97-1.99 0-1.11.87-2 1.97-2a2 2 0 0 1 2 2c0 1.1-.9 1.99-2.02 1.99h.02m-2.51 4.48c-1.1 0-1.99-.89-1.99-1.99s.89-1.99 1.99-1.99 2 .89 2 1.99-.9 1.99-2 1.99m4.98 0a2 2 0 0 1-1.99-1.99 2 2 0 0 1 1.99-1.99c1.1 0 2 .89 2 1.99s-.9 1.99-2 1.99Z" transform="matrix(1.5 0 0 1.5 504 324)" id="mdi-billiards-rack" fill="#555"/><path d="m20.31 16.44-5.77-9.97a2.978 2.978 0 0 0-4.08-1.09c-.46.26-.83.62-1.1 1.09L3.6 16.44a2.953 2.953 0 0 0 1.09 4.06c.45.28.96.42 1.49.42h11.55a2.992 2.992 0 0 0 2.98-3c0-.52-.14-1.03-.4-1.48m-14.94.99 5.74-9.96c.27-.47.89-.65 1.35-.37.16.08.29.21.38.37l5.74 9.96c.27.48.11 1.07-.37 1.36-.15.09-.32.14-.49.14H6.21c-.55-.01-1-.46-.99-1.01 0-.17.04-.34.13-.49h.02m6.6-3.98c-1.1 0-1.97-.89-1.97-1.99 0-1.11.87-2 1.97-2a2 2 0 0 1 2 2c0 1.1-.9 1.99-2.02 1.99h.02m-2.51 4.48c-1.1 0-1.99-.89-1.99-1.99s.89-1.99 1.99-1.99 2 .89 2 1.99-.9 1.99-2 1.99m4.98 0a2 2 0 0 1-1.99-1.99 2 2 0 0 1 1.99-1.99c1.1 0 2 .89 2 1.99s-.9 1.99-2 1.99Z" transform="matrix(1.5 0 0 1.5 540 324)" id="mdi-billiards-rack" fill="#fff"/><path d="M11 6h2v7h-2V6M9 20a1 1 0 0 1-1 1H5a1 1 0 0 1-1-1v-5l2-9h4v7a1 1 0 0 1-1 1v6m1-15H7V3h3v2m5 15v-6a1 1 0 0 1-1-1V6h4l2 9v5a1 1 0 0 1-1 1h-3a1 1 0 0 1-1-1M14 5V3h3v2h-3Z" transform="matrix(1.5 0 0 1.5 576 324)" id="mdi-binoculars" fill="#555"/><path d="M11 6h2v7h-2V6M9 20a1 1 0 0 1-1 1H5a1 1 0 0 1-1-1v-5l2-9h4v7a1 1 0 0 1-1 1v6m1-15H7V3h3v2m5 15v-6a1 1 0 0 1-1-1V6h4l2 9v5a1 1 0 0 1-1 1h-3a1 1 0 0 1-1-1M14 5V3h3v2h-3Z" transform="matrix(1.5 0 0 1.5 612 324)" id="mdi-binoculars" fill="#fff"/><path d="M17 12h3a2 2 0 0 1 2 2v3a2 2 0 0 1-2 2h-3a2 2 0 0 1-2-2v-3a2 2 0 0 1 2-2m0 2v3h3v-3h-3M2 7h5a2 2 0 0 1 2 2v2a2 2 0 0 1-2 2 2 2 0 0 1 2 2v2a2 2 0 0 1-2 2H2V7m2 2v3h3V9H4m0 8h3v-3H4v3m7-4h2v6h-2v-6m0-4h2v2h-2V9Z" transform="matrix(1.5 0 0 1.5 648 324)" id="mdi-bio" fill="#555"/><path d="M17 12h3a2 2 0 0 1 2 2v3a2 2 0 0 1-2 2h-3a2 2 0 0 1-2-2v-3a2 2 0 0 1 2-2m0 2v3h3v-3h-3M2 7h5a2 2 0 0 1 2 2v2a2 2 0 0 1-2 2 2 2 0 0 1 2 2v2a2 2 0 0 1-2 2H2V7m2 2v3h3V9H4m0 8h3v-3H4v3m7-4h2v6h-2v-6m0-4h2v2h-2V9Z" transform="matrix(1.5 0 0 1.5 684 324)" id="mdi-bio" fill="#fff"/></svg>