<?xml version="1.0" encoding="UTF-8"?>
<!DOCTYPE svg PUBLIC "-//W3C//DTD SVG 1.1//EN" "http://www.w3.org/Graphics/SVG/1.1/DTD/svg11.dtd"><svg
  xmlns="http://www.w3.org/2000/svg" xmlns:xlink="http://www.w3.org/1999/xlink" version="1.1"
  width="720" height="900" viewBox="0 0 720 900">
    <g id="mdi-bowling" transform="translate(0 0) scale(1.5)" fill="#555">
      <path d="M12,2A10,10 0 0,1 22,12A10,10 0 0,1 12,22A10,10 0 0,1 2,12A10,10 0 0,1 12,2M12.5,11A1.5,1.5 0 0,0 11,12.5A1.5,1.5 0 0,0 12.5,14A1.5,1.5 0 0,0 14,12.5A1.5,1.5 0 0,0 12.5,11M12,5A2,2 0 0,0 10,7A2,2 0 0,0 12,9A2,2 0 0,0 14,7A2,2 0 0,0 12,5M5.93,8.5C5.38,9.45 5.71,10.67 6.66,11.22C7.62,11.78 8.84,11.45 9.4,10.5C9.95,9.53 9.62,8.31 8.66,7.76C7.71,7.21 6.5,7.53 5.93,8.5Z" />
    </g>
    <g id="mdi-bowling" transform="translate(36 0) scale(1.5)" fill="#fff">
      <path d="M12,2A10,10 0 0,1 22,12A10,10 0 0,1 12,22A10,10 0 0,1 2,12A10,10 0 0,1 12,2M12.5,11A1.5,1.5 0 0,0 11,12.5A1.5,1.5 0 0,0 12.5,14A1.5,1.5 0 0,0 14,12.5A1.5,1.5 0 0,0 12.5,11M12,5A2,2 0 0,0 10,7A2,2 0 0,0 12,9A2,2 0 0,0 14,7A2,2 0 0,0 12,5M5.93,8.5C5.38,9.45 5.71,10.67 6.66,11.22C7.62,11.78 8.84,11.45 9.4,10.5C9.95,9.53 9.62,8.31 8.66,7.76C7.71,7.21 6.5,7.53 5.93,8.5Z" />
    </g>
    <g id="mdi-box" transform="translate(72 0) scale(1.5)" fill="#555">
      <path d="M15.39,14.04V14.04C15.39,12.62 14.24,11.47 12.82,11.47C11.41,11.47 10.26,12.62 10.26,14.04V14.04C10.26,15.45 11.41,16.6 12.82,16.6C14.24,16.6 15.39,15.45 15.39,14.04M17.1,14.04C17.1,16.4 15.18,18.31 12.82,18.31C11.19,18.31 9.77,17.39 9.05,16.04C8.33,17.39 6.91,18.31 5.28,18.31C2.94,18.31 1.04,16.43 1,14.11V14.11H1V7H1V7C1,6.56 1.39,6.18 1.86,6.18C2.33,6.18 2.7,6.56 2.71,7V7H2.71V10.62C3.43,10.08 4.32,9.76 5.28,9.76C6.91,9.76 8.33,10.68 9.05,12.03C9.77,10.68 11.19,9.76 12.82,9.76C15.18,9.76 17.1,11.68 17.1,14.04V14.04M7.84,14.04V14.04C7.84,12.62 6.69,11.47 5.28,11.47C3.86,11.47 2.71,12.62 2.71,14.04V14.04C2.71,15.45 3.86,16.6 5.28,16.6C6.69,16.6 7.84,15.45 7.84,14.04M22.84,16.96V16.96C22.95,17.12 23,17.3 23,17.47C23,17.73 22.88,18 22.66,18.15C22.5,18.26 22.33,18.32 22.15,18.32C21.9,18.32 21.65,18.21 21.5,18L19.59,15.47L17.7,18V18C17.53,18.21 17.28,18.32 17.03,18.32C16.85,18.32 16.67,18.26 16.5,18.15C16.29,18 16.17,17.72 16.17,17.46C16.17,17.29 16.23,17.11 16.33,16.96V16.96H16.33V16.96L18.5,14.04L16.33,11.11V11.11H16.33V11.11C16.22,10.96 16.17,10.79 16.17,10.61C16.17,10.35 16.29,10.1 16.5,9.93C16.89,9.65 17.41,9.72 17.7,10.09V10.09L19.59,12.61L21.5,10.09C21.76,9.72 22.29,9.65 22.66,9.93C22.89,10.1 23,10.36 23,10.63C23,10.8 22.95,10.97 22.84,11.11V11.11H22.84V11.11L20.66,14.04L22.84,16.96V16.96H22.84Z" />
    </g>
    <g id="mdi-box" transform="translate(108 0) scale(1.5)" fill="#fff">
      <path d="M15.39,14.04V14.04C15.39,12.62 14.24,11.47 12.82,11.47C11.41,11.47 10.26,12.62 10.26,14.04V14.04C10.26,15.45 11.41,16.6 12.82,16.6C14.24,16.6 15.39,15.45 15.39,14.04M17.1,14.04C17.1,16.4 15.18,18.31 12.82,18.31C11.19,18.31 9.77,17.39 9.05,16.04C8.33,17.39 6.91,18.31 5.28,18.31C2.94,18.31 1.04,16.43 1,14.11V14.11H1V7H1V7C1,6.56 1.39,6.18 1.86,6.18C2.33,6.18 2.7,6.56 2.71,7V7H2.71V10.62C3.43,10.08 4.32,9.76 5.28,9.76C6.91,9.76 8.33,10.68 9.05,12.03C9.77,10.68 11.19,9.76 12.82,9.76C15.18,9.76 17.1,11.68 17.1,14.04V14.04M7.84,14.04V14.04C7.84,12.62 6.69,11.47 5.28,11.47C3.86,11.47 2.71,12.62 2.71,14.04V14.04C2.71,15.45 3.86,16.6 5.28,16.6C6.69,16.6 7.84,15.45 7.84,14.04M22.84,16.96V16.96C22.95,17.12 23,17.3 23,17.47C23,17.73 22.88,18 22.66,18.15C22.5,18.26 22.33,18.32 22.15,18.32C21.9,18.32 21.65,18.21 21.5,18L19.59,15.47L17.7,18V18C17.53,18.21 17.28,18.32 17.03,18.32C16.85,18.32 16.67,18.26 16.5,18.15C16.29,18 16.17,17.72 16.17,17.46C16.17,17.29 16.23,17.11 16.33,16.96V16.96H16.33V16.96L18.5,14.04L16.33,11.11V11.11H16.33V11.11C16.22,10.96 16.17,10.79 16.17,10.61C16.17,10.35 16.29,10.1 16.5,9.93C16.89,9.65 17.41,9.72 17.7,10.09V10.09L19.59,12.61L21.5,10.09C21.76,9.72 22.29,9.65 22.66,9.93C22.89,10.1 23,10.36 23,10.63C23,10.8 22.95,10.97 22.84,11.11V11.11H22.84V11.11L20.66,14.04L22.84,16.96V16.96H22.84Z" />
    </g>
    <g id="mdi-box-cutter" transform="translate(144 0) scale(1.5)" fill="#555">
      <path d="M7.22,11.91C6.89,12.24 6.71,12.65 6.66,13.08L12.17,15.44L20.66,6.96C21.44,6.17 21.44,4.91 20.66,4.13L19.24,2.71C18.46,1.93 17.2,1.93 16.41,2.71L7.22,11.91M5,16V21.75L10.81,16.53L5.81,14.53L5,16M17.12,4.83C17.5,4.44 18.15,4.44 18.54,4.83C18.93,5.23 18.93,5.86 18.54,6.25C18.15,6.64 17.5,6.64 17.12,6.25C16.73,5.86 16.73,5.23 17.12,4.83Z" />
    </g>
    <g id="mdi-box-cutter" transform="translate(180 0) scale(1.5)" fill="#fff">
      <path d="M7.22,11.91C6.89,12.24 6.71,12.65 6.66,13.08L12.17,15.44L20.66,6.96C21.44,6.17 21.44,4.91 20.66,4.13L19.24,2.71C18.46,1.93 17.2,1.93 16.41,2.71L7.22,11.91M5,16V21.75L10.81,16.53L5.81,14.53L5,16M17.12,4.83C17.5,4.44 18.15,4.44 18.54,4.83C18.93,5.23 18.93,5.86 18.54,6.25C18.15,6.64 17.5,6.64 17.12,6.25C16.73,5.86 16.73,5.23 17.12,4.83Z" />
    </g>
    <g id="mdi-box-cutter-off" transform="translate(216 0) scale(1.5)" fill="#555">
      <path d="M20.84 22.73L12.86 14.75L12.17 15.44L6.66 13.08C6.71 12.65 6.89 12.24 7.22 11.91L8.62 10.5L1.11 3L2.39 1.73L22.11 21.46L20.84 22.73M15.41 12.21L11.16 7.96L16.41 2.71C17.2 1.93 18.46 1.93 19.24 2.71L20.66 4.13C21.44 4.91 21.44 6.17 20.66 6.96L15.41 12.21M17.12 6.25C17.5 6.64 18.15 6.64 18.54 6.25C18.93 5.86 18.93 5.23 18.54 4.83C18.15 4.44 17.5 4.44 17.12 4.83C16.73 5.23 16.73 5.86 17.12 6.25M5 16V21.75L10.81 16.53L5.81 14.53L5 16Z" />
    </g>
    <g id="mdi-box-cutter-off" transform="translate(252 0) scale(1.5)" fill="#fff">
      <path d="M20.84 22.73L12.86 14.75L12.17 15.44L6.66 13.08C6.71 12.65 6.89 12.24 7.22 11.91L8.62 10.5L1.11 3L2.39 1.73L22.11 21.46L20.84 22.73M15.41 12.21L11.16 7.96L16.41 2.71C17.2 1.93 18.46 1.93 19.24 2.71L20.66 4.13C21.44 4.91 21.44 6.17 20.66 6.96L15.41 12.21M17.12 6.25C17.5 6.64 18.15 6.64 18.54 6.25C18.93 5.86 18.93 5.23 18.54 4.83C18.15 4.44 17.5 4.44 17.12 4.83C16.73 5.23 16.73 5.86 17.12 6.25M5 16V21.75L10.81 16.53L5.81 14.53L5 16Z" />
    </g>
    <g id="mdi-box-shadow" transform="translate(288 0) scale(1.5)" fill="#555">
      <path d="M3,3H18V18H3V3M19,19H21V21H19V19M19,16H21V18H19V16M19,13H21V15H19V13M19,10H21V12H19V10M19,7H21V9H19V7M16,19H18V21H16V19M13,19H15V21H13V19M10,19H12V21H10V19M7,19H9V21H7V19Z" />
    </g>
    <g id="mdi-box-shadow" transform="translate(324 0) scale(1.5)" fill="#fff">
      <path d="M3,3H18V18H3V3M19,19H21V21H19V19M19,16H21V18H19V16M19,13H21V15H19V13M19,10H21V12H19V10M19,7H21V9H19V7M16,19H18V21H16V19M13,19H15V21H13V19M10,19H12V21H10V19M7,19H9V21H7V19Z" />
    </g>
    <g id="mdi-boxing-glove" transform="translate(360 0) scale(1.5)" fill="#555">
      <path d="M19,16V6H22V16H19M12,4C8,4 7,4 7,4C7,4 2,4 2,8V14C2,15.77 3,16.76 4.07,17.31C4.4,15.43 6.03,14 8,14H11V16H8A2,2 0 0,0 6,18C6,19.11 6.9,20 8,20H13C17,20 17,16 17,16V6C17,6 16,4 12,4Z" />
    </g>
    <g id="mdi-boxing-glove" transform="translate(396 0) scale(1.5)" fill="#fff">
      <path d="M19,16V6H22V16H19M12,4C8,4 7,4 7,4C7,4 2,4 2,8V14C2,15.77 3,16.76 4.07,17.31C4.4,15.43 6.03,14 8,14H11V16H8A2,2 0 0,0 6,18C6,19.11 6.9,20 8,20H13C17,20 17,16 17,16V6C17,6 16,4 12,4Z" />
    </g>
    <g id="mdi-braille" transform="translate(432 0) scale(1.5)" fill="#555">
      <path d="M7,8A1,1 0 0,1 8,7A1,1 0 0,1 9,8V12.47L10.21,12.6L15.15,14.79C15.67,15.03 16,15.56 16,16.14V20.5C15.97,21.32 15.32,21.97 14.5,22H8C7.62,22 7.26,21.85 7,21.57L2.1,17.37L2.84,16.6C3.03,16.39 3.3,16.28 3.58,16.28H3.8L7,18V8M19.5,2A1.5,1.5 0 0,0 18,3.5A1.5,1.5 0 0,0 19.5,5A1.5,1.5 0 0,0 21,3.5A1.5,1.5 0 0,0 19.5,2M19.5,7A1.5,1.5 0 0,0 18,8.5A1.5,1.5 0 0,0 19.5,10A1.5,1.5 0 0,0 21,8.5A1.5,1.5 0 0,0 19.5,7M14.5,7A1.5,1.5 0 0,0 13,8.5A1.5,1.5 0 0,0 14.5,10A1.5,1.5 0 0,0 16,8.5A1.5,1.5 0 0,0 14.5,7M19.5,12A1.5,1.5 0 0,0 18,13.5A1.5,1.5 0 0,0 19.5,15A1.5,1.5 0 0,0 21,13.5A1.5,1.5 0 0,0 19.5,12Z" />
    </g>
    <g id="mdi-braille" transform="translate(468 0) scale(1.5)" fill="#fff">
      <path d="M7,8A1,1 0 0,1 8,7A1,1 0 0,1 9,8V12.47L10.21,12.6L15.15,14.79C15.67,15.03 16,15.56 16,16.14V20.5C15.97,21.32 15.32,21.97 14.5,22H8C7.62,22 7.26,21.85 7,21.57L2.1,17.37L2.84,16.6C3.03,16.39 3.3,16.28 3.58,16.28H3.8L7,18V8M19.5,2A1.5,1.5 0 0,0 18,3.5A1.5,1.5 0 0,0 19.5,5A1.5,1.5 0 0,0 21,3.5A1.5,1.5 0 0,0 19.5,2M19.5,7A1.5,1.5 0 0,0 18,8.5A1.5,1.5 0 0,0 19.5,10A1.5,1.5 0 0,0 21,8.5A1.5,1.5 0 0,0 19.5,7M14.5,7A1.5,1.5 0 0,0 13,8.5A1.5,1.5 0 0,0 14.5,10A1.5,1.5 0 0,0 16,8.5A1.5,1.5 0 0,0 14.5,7M19.5,12A1.5,1.5 0 0,0 18,13.5A1.5,1.5 0 0,0 19.5,15A1.5,1.5 0 0,0 21,13.5A1.5,1.5 0 0,0 19.5,12Z" />
    </g>
    <g id="mdi-brain" transform="translate(504 0) scale(1.5)" fill="#555">
      <path d="M21.33,12.91C21.42,14.46 20.71,15.95 19.44,16.86L20.21,18.35C20.44,18.8 20.47,19.33 20.27,19.8C20.08,20.27 19.69,20.64 19.21,20.8L18.42,21.05C18.25,21.11 18.06,21.14 17.88,21.14C17.37,21.14 16.89,20.91 16.56,20.5L14.44,18C13.55,17.85 12.71,17.47 12,16.9C11.5,17.05 11,17.13 10.5,17.13C9.62,17.13 8.74,16.86 8,16.34C7.47,16.5 6.93,16.57 6.38,16.56C5.59,16.57 4.81,16.41 4.08,16.11C2.65,15.47 1.7,14.07 1.65,12.5C1.57,11.78 1.69,11.05 2,10.39C1.71,9.64 1.68,8.82 1.93,8.06C2.3,7.11 3,6.32 3.87,5.82C4.45,4.13 6.08,3 7.87,3.12C9.47,1.62 11.92,1.46 13.7,2.75C14.12,2.64 14.56,2.58 15,2.58C16.36,2.55 17.65,3.15 18.5,4.22C20.54,4.75 22,6.57 22.08,8.69C22.13,9.8 21.83,10.89 21.22,11.82C21.29,12.18 21.33,12.54 21.33,12.91M16.33,11.5C16.9,11.57 17.35,12 17.35,12.57A1,1 0 0,1 16.35,13.57H15.72C15.4,14.47 14.84,15.26 14.1,15.86C14.35,15.95 14.61,16 14.87,16.07C20,16 19.4,12.87 19.4,12.82C19.34,11.39 18.14,10.27 16.71,10.33A1,1 0 0,1 15.71,9.33A1,1 0 0,1 16.71,8.33C17.94,8.36 19.12,8.82 20.04,9.63C20.09,9.34 20.12,9.04 20.12,8.74C20.06,7.5 19.5,6.42 17.25,6.21C16,3.25 12.85,4.89 12.85,5.81V5.81C12.82,6.04 13.06,6.53 13.1,6.56A1,1 0 0,1 14.1,7.56C14.1,8.11 13.65,8.56 13.1,8.56V8.56C12.57,8.54 12.07,8.34 11.67,8C11.19,8.31 10.64,8.5 10.07,8.56V8.56C9.5,8.61 9.03,8.21 9,7.66C8.92,7.1 9.33,6.61 9.88,6.56C10.04,6.54 10.82,6.42 10.82,5.79V5.79C10.82,5.13 11.07,4.5 11.5,4C10.58,3.75 9.59,4.08 8.59,5.29C6.75,5 6,5.25 5.45,7.2C4.5,7.67 4,8 3.78,9C4.86,8.78 5.97,8.87 7,9.25C7.5,9.44 7.78,10 7.59,10.54C7.4,11.06 6.82,11.32 6.3,11.13C5.57,10.81 4.75,10.79 4,11.07C3.68,11.34 3.68,11.9 3.68,12.34C3.68,13.08 4.05,13.77 4.68,14.17C5.21,14.44 5.8,14.58 6.39,14.57C6.24,14.31 6.11,14.04 6,13.76C5.81,13.22 6.1,12.63 6.64,12.44C7.18,12.25 7.77,12.54 7.96,13.08C8.36,14.22 9.38,15 10.58,15.13C11.95,15.06 13.17,14.25 13.77,13C14,11.62 15.11,11.5 16.33,11.5M18.33,18.97L17.71,17.67L17,17.83L18,19.08L18.33,18.97M13.68,10.36C13.7,9.83 13.3,9.38 12.77,9.33C12.06,9.29 11.37,9.53 10.84,10C10.27,10.58 9.97,11.38 10,12.19A1,1 0 0,0 11,13.19C11.57,13.19 12,12.74 12,12.19C12,11.92 12.07,11.65 12.23,11.43C12.35,11.33 12.5,11.28 12.66,11.28C13.21,11.31 13.68,10.9 13.68,10.36Z" />
    </g>
    <g id="mdi-brain" transform="translate(540 0) scale(1.5)" fill="#fff">
      <path d="M21.33,12.91C21.42,14.46 20.71,15.95 19.44,16.86L20.21,18.35C20.44,18.8 20.47,19.33 20.27,19.8C20.08,20.27 19.69,20.64 19.21,20.8L18.42,21.05C18.25,21.11 18.06,21.14 17.88,21.14C17.37,21.14 16.89,20.91 16.56,20.5L14.44,18C13.55,17.85 12.71,17.47 12,16.9C11.5,17.05 11,17.13 10.5,17.13C9.62,17.13 8.74,16.86 8,16.34C7.47,16.5 6.93,16.57 6.38,16.56C5.59,16.57 4.81,16.41 4.08,16.11C2.65,15.47 1.7,14.07 1.65,12.5C1.57,11.78 1.69,11.05 2,10.39C1.71,9.64 1.68,8.82 1.93,8.06C2.3,7.11 3,6.32 3.87,5.82C4.45,4.13 6.08,3 7.87,3.12C9.47,1.62 11.92,1.46 13.7,2.75C14.12,2.64 14.56,2.58 15,2.58C16.36,2.55 17.65,3.15 18.5,4.22C20.54,4.75 22,6.57 22.08,8.69C22.13,9.8 21.83,10.89 21.22,11.82C21.29,12.18 21.33,12.54 21.33,12.91M16.33,11.5C16.9,11.57 17.35,12 17.35,12.57A1,1 0 0,1 16.35,13.57H15.72C15.4,14.47 14.84,15.26 14.1,15.86C14.35,15.95 14.61,16 14.87,16.07C20,16 19.4,12.87 19.4,12.82C19.34,11.39 18.14,10.27 16.71,10.33A1,1 0 0,1 15.71,9.33A1,1 0 0,1 16.71,8.33C17.94,8.36 19.12,8.82 20.04,9.63C20.09,9.34 20.12,9.04 20.12,8.74C20.06,7.5 19.5,6.42 17.25,6.21C16,3.25 12.85,4.89 12.85,5.81V5.81C12.82,6.04 13.06,6.53 13.1,6.56A1,1 0 0,1 14.1,7.56C14.1,8.11 13.65,8.56 13.1,8.56V8.56C12.57,8.54 12.07,8.34 11.67,8C11.19,8.31 10.64,8.5 10.07,8.56V8.56C9.5,8.61 9.03,8.21 9,7.66C8.92,7.1 9.33,6.61 9.88,6.56C10.04,6.54 10.82,6.42 10.82,5.79V5.79C10.82,5.13 11.07,4.5 11.5,4C10.58,3.75 9.59,4.08 8.59,5.29C6.75,5 6,5.25 5.45,7.2C4.5,7.67 4,8 3.78,9C4.86,8.78 5.97,8.87 7,9.25C7.5,9.44 7.78,10 7.59,10.54C7.4,11.06 6.82,11.32 6.3,11.13C5.57,10.81 4.75,10.79 4,11.07C3.68,11.34 3.68,11.9 3.68,12.34C3.68,13.08 4.05,13.77 4.68,14.17C5.21,14.44 5.8,14.58 6.39,14.57C6.24,14.31 6.11,14.04 6,13.76C5.81,13.22 6.1,12.63 6.64,12.44C7.18,12.25 7.77,12.54 7.96,13.08C8.36,14.22 9.38,15 10.58,15.13C11.95,15.06 13.17,14.25 13.77,13C14,11.62 15.11,11.5 16.33,11.5M18.33,18.97L17.71,17.67L17,17.83L18,19.08L18.33,18.97M13.68,10.36C13.7,9.83 13.3,9.38 12.77,9.33C12.06,9.29 11.37,9.53 10.84,10C10.27,10.58 9.97,11.38 10,12.19A1,1 0 0,0 11,13.19C11.57,13.19 12,12.74 12,12.19C12,11.92 12.07,11.65 12.23,11.43C12.35,11.33 12.5,11.28 12.66,11.28C13.21,11.31 13.68,10.9 13.68,10.36Z" />
    </g>
    <g id="mdi-bread-slice" transform="translate(576 0) scale(1.5)" fill="#555">
      <path d="M12,2C17.5,2 22,5.36 22,9.5C22,11.19 21.26,12.75 20,14V22H4V14C2.74,12.75 2,11.19 2,9.5C2,5.36 6.5,2 12,2M8,18H12V14H8V18Z" />
    </g>
    <g id="mdi-bread-slice" transform="translate(612 0) scale(1.5)" fill="#fff">
      <path d="M12,2C17.5,2 22,5.36 22,9.5C22,11.19 21.26,12.75 20,14V22H4V14C2.74,12.75 2,11.19 2,9.5C2,5.36 6.5,2 12,2M8,18H12V14H8V18Z" />
    </g>
    <g id="mdi-bread-slice-outline" transform="translate(648 0) scale(1.5)" fill="#555">
      <path d="M12,2C17.5,2 22,5.36 22,9.5C22,11.19 21.26,12.75 20,14V22H4V14C2.74,12.75 2,11.19 2,9.5C2,5.36 6.5,2 12,2M18,13.14C19.24,12.17 20,10.89 20,9.5C20,6.46 16.42,4 12,4C7.58,4 4,6.46 4,9.5C4,10.89 4.76,12.17 6,13.14V20H18V13.14M8,18V14H12V18H8Z" />
    </g>
    <g id="mdi-bread-slice-outline" transform="translate(684 0) scale(1.5)" fill="#fff">
      <path d="M12,2C17.5,2 22,5.36 22,9.5C22,11.19 21.26,12.75 20,14V22H4V14C2.74,12.75 2,11.19 2,9.5C2,5.36 6.5,2 12,2M18,13.14C19.24,12.17 20,10.89 20,9.5C20,6.46 16.42,4 12,4C7.58,4 4,6.46 4,9.5C4,10.89 4.76,12.17 6,13.14V20H18V13.14M8,18V14H12V18H8Z" />
    </g>
    <g id="mdi-bridge" transform="translate(0 36) scale(1.5)" fill="#555">
      <path d="M7,14V10.91C6.28,10.58 5.61,10.18 5,9.71V14H7M5,18H3V16H1V14H3V7H5V8.43C6.8,10 9.27,11 12,11C14.73,11 17.2,10 19,8.43V7H21V14H23V16H21V18H19V16H5V18M17,10.91V14H19V9.71C18.39,10.18 17.72,10.58 17,10.91M16,14V11.32C15.36,11.55 14.69,11.72 14,11.84V14H16M13,14V11.96L12,12L11,11.96V14H13M10,14V11.84C9.31,11.72 8.64,11.55 8,11.32V14H10Z" />
    </g>
    <g id="mdi-bridge" transform="translate(36 36) scale(1.5)" fill="#fff">
      <path d="M7,14V10.91C6.28,10.58 5.61,10.18 5,9.71V14H7M5,18H3V16H1V14H3V7H5V8.43C6.8,10 9.27,11 12,11C14.73,11 17.2,10 19,8.43V7H21V14H23V16H21V18H19V16H5V18M17,10.91V14H19V9.71C18.39,10.18 17.72,10.58 17,10.91M16,14V11.32C15.36,11.55 14.69,11.72 14,11.84V14H16M13,14V11.96L12,12L11,11.96V14H13M10,14V11.84C9.31,11.72 8.64,11.55 8,11.32V14H10Z" />
    </g>
    <g id="mdi-briefcase" transform="translate(72 36) scale(1.5)" fill="#555">
      <path d="M10,2H14A2,2 0 0,1 16,4V6H20A2,2 0 0,1 22,8V19A2,2 0 0,1 20,21H4C2.89,21 2,20.1 2,19V8C2,6.89 2.89,6 4,6H8V4C8,2.89 8.89,2 10,2M14,6V4H10V6H14Z" />
    </g>
    <g id="mdi-briefcase" transform="translate(108 36) scale(1.5)" fill="#fff">
      <path d="M10,2H14A2,2 0 0,1 16,4V6H20A2,2 0 0,1 22,8V19A2,2 0 0,1 20,21H4C2.89,21 2,20.1 2,19V8C2,6.89 2.89,6 4,6H8V4C8,2.89 8.89,2 10,2M14,6V4H10V6H14Z" />
    </g>
    <g id="mdi-briefcase-account" transform="translate(144 36) scale(1.5)" fill="#555">
      <path d="M20,6H16V4A2,2 0 0,0 14,2H10C8.89,2 8,2.89 8,4V6H4C2.89,6 2,6.89 2,8V19A2,2 0 0,0 4,21H20A2,2 0 0,0 22,19V8A2,2 0 0,0 20,6M10,4H14V6H10V4M12,9A2.5,2.5 0 0,1 14.5,11.5A2.5,2.5 0 0,1 12,14A2.5,2.5 0 0,1 9.5,11.5A2.5,2.5 0 0,1 12,9M17,19H7V17.75C7,16.37 9.24,15.25 12,15.25C14.76,15.25 17,16.37 17,17.75V19Z" />
    </g>
    <g id="mdi-briefcase-account" transform="translate(180 36) scale(1.5)" fill="#fff">
      <path d="M20,6H16V4A2,2 0 0,0 14,2H10C8.89,2 8,2.89 8,4V6H4C2.89,6 2,6.89 2,8V19A2,2 0 0,0 4,21H20A2,2 0 0,0 22,19V8A2,2 0 0,0 20,6M10,4H14V6H10V4M12,9A2.5,2.5 0 0,1 14.5,11.5A2.5,2.5 0 0,1 12,14A2.5,2.5 0 0,1 9.5,11.5A2.5,2.5 0 0,1 12,9M17,19H7V17.75C7,16.37 9.24,15.25 12,15.25C14.76,15.25 17,16.37 17,17.75V19Z" />
    </g>
    <g id="mdi-briefcase-account-outline" transform="translate(216 36) scale(1.5)" fill="#555">
      <path d="M20,6C20.58,6 21.05,6.2 21.42,6.59C21.8,7 22,7.45 22,8V19C22,19.55 21.8,20 21.42,20.41C21.05,20.8 20.58,21 20,21H4C3.42,21 2.95,20.8 2.58,20.41C2.2,20 2,19.55 2,19V8C2,7.45 2.2,7 2.58,6.59C2.95,6.2 3.42,6 4,6H8V4C8,3.42 8.2,2.95 8.58,2.58C8.95,2.2 9.42,2 10,2H14C14.58,2 15.05,2.2 15.42,2.58C15.8,2.95 16,3.42 16,4V6H20M4,8V19H20V8H4M14,6V4H10V6H14M12,9A2.25,2.25 0 0,1 14.25,11.25C14.25,12.5 13.24,13.5 12,13.5A2.25,2.25 0 0,1 9.75,11.25C9.75,10 10.76,9 12,9M16.5,18H7.5V16.88C7.5,15.63 9.5,14.63 12,14.63C14.5,14.63 16.5,15.63 16.5,16.88V18Z" />
    </g>
    <g id="mdi-briefcase-account-outline" transform="translate(252 36) scale(1.5)" fill="#fff">
      <path d="M20,6C20.58,6 21.05,6.2 21.42,6.59C21.8,7 22,7.45 22,8V19C22,19.55 21.8,20 21.42,20.41C21.05,20.8 20.58,21 20,21H4C3.42,21 2.95,20.8 2.58,20.41C2.2,20 2,19.55 2,19V8C2,7.45 2.2,7 2.58,6.59C2.95,6.2 3.42,6 4,6H8V4C8,3.42 8.2,2.95 8.58,2.58C8.95,2.2 9.42,2 10,2H14C14.58,2 15.05,2.2 15.42,2.58C15.8,2.95 16,3.42 16,4V6H20M4,8V19H20V8H4M14,6V4H10V6H14M12,9A2.25,2.25 0 0,1 14.25,11.25C14.25,12.5 13.24,13.5 12,13.5A2.25,2.25 0 0,1 9.75,11.25C9.75,10 10.76,9 12,9M16.5,18H7.5V16.88C7.5,15.63 9.5,14.63 12,14.63C14.5,14.63 16.5,15.63 16.5,16.88V18Z" />
    </g>
    <g id="mdi-briefcase-check" transform="translate(288 36) scale(1.5)" fill="#555">
      <path d="M10,2H14A2,2 0 0,1 16,4V6H20A2,2 0 0,1 22,8V19A2,2 0 0,1 20,21H4A2,2 0 0,1 2,19V8A2,2 0 0,1 4,6H8V4A2,2 0 0,1 10,2M14,6V4H10V6H14M10.5,17.5L17.09,10.91L15.68,9.5L10.5,14.67L8.41,12.59L7,14L10.5,17.5Z" />
    </g>
    <g id="mdi-briefcase-check" transform="translate(324 36) scale(1.5)" fill="#fff">
      <path d="M10,2H14A2,2 0 0,1 16,4V6H20A2,2 0 0,1 22,8V19A2,2 0 0,1 20,21H4A2,2 0 0,1 2,19V8A2,2 0 0,1 4,6H8V4A2,2 0 0,1 10,2M14,6V4H10V6H14M10.5,17.5L17.09,10.91L15.68,9.5L10.5,14.67L8.41,12.59L7,14L10.5,17.5Z" />
    </g>
    <g id="mdi-briefcase-check-outline" transform="translate(360 36) scale(1.5)" fill="#555">
      <path d="M20 6C20.58 6 21.05 6.2 21.42 6.59C21.8 7 22 7.45 22 8V19C22 19.55 21.8 20 21.42 20.41C21.05 20.8 20.58 21 20 21H4C3.42 21 2.95 20.8 2.58 20.41C2.2 20 2 19.55 2 19V8C2 7.45 2.2 7 2.58 6.59C2.95 6.2 3.42 6 4 6H8V4C8 3.42 8.2 2.95 8.58 2.58C8.95 2.2 9.42 2 10 2H14C14.58 2 15.05 2.2 15.42 2.58C15.8 2.95 16 3.42 16 4V6H20M4 8V19H20V8H4M14 6V4H10V6H14M10.46 17.5L17.05 10.91L15.64 9.5L10.46 14.67L8.37 12.59L6.96 14L10.46 17.5Z" />
    </g>
    <g id="mdi-briefcase-check-outline" transform="translate(396 36) scale(1.5)" fill="#fff">
      <path d="M20 6C20.58 6 21.05 6.2 21.42 6.59C21.8 7 22 7.45 22 8V19C22 19.55 21.8 20 21.42 20.41C21.05 20.8 20.58 21 20 21H4C3.42 21 2.95 20.8 2.58 20.41C2.2 20 2 19.55 2 19V8C2 7.45 2.2 7 2.58 6.59C2.95 6.2 3.42 6 4 6H8V4C8 3.42 8.2 2.95 8.58 2.58C8.95 2.2 9.42 2 10 2H14C14.58 2 15.05 2.2 15.42 2.58C15.8 2.95 16 3.42 16 4V6H20M4 8V19H20V8H4M14 6V4H10V6H14M10.46 17.5L17.05 10.91L15.64 9.5L10.46 14.67L8.37 12.59L6.96 14L10.46 17.5Z" />
    </g>
    <g id="mdi-briefcase-clock" transform="translate(432 36) scale(1.5)" fill="#555">
      <path d="M21 11.11V7A2 2 0 0 0 19 5H15V3A2 2 0 0 0 13 1H9A2 2 0 0 0 7 3V5H3A2 2 0 0 0 1 7V18A2 2 0 0 0 3 20H10.26A7 7 0 1 0 21 11.11M9 3H13V5H9M19 20A5 5 0 0 1 13 20A5 5 0 1 1 19 20M15 13H16.5V15.82L18.94 17.23L18.19 18.53L15 16.69V13" />
    </g>
    <g id="mdi-briefcase-clock" transform="translate(468 36) scale(1.5)" fill="#fff">
      <path d="M21 11.11V7A2 2 0 0 0 19 5H15V3A2 2 0 0 0 13 1H9A2 2 0 0 0 7 3V5H3A2 2 0 0 0 1 7V18A2 2 0 0 0 3 20H10.26A7 7 0 1 0 21 11.11M9 3H13V5H9M19 20A5 5 0 0 1 13 20A5 5 0 1 1 19 20M15 13H16.5V15.82L18.94 17.23L18.19 18.53L15 16.69V13" />
    </g>
    <g id="mdi-briefcase-clock-outline" transform="translate(504 36) scale(1.5)" fill="#555">
      <path d="M21 11.11V7A2 2 0 0 0 20.42 5.59A1.87 1.87 0 0 0 19 5H15V3A1.9 1.9 0 0 0 14.42 1.58A1.9 1.9 0 0 0 13 1H9A1.9 1.9 0 0 0 7.58 1.58A1.9 1.9 0 0 0 7 3V5H3A1.87 1.87 0 0 0 1.58 5.59A2 2 0 0 0 1 7V18A2 2 0 0 0 1.58 19.41A1.87 1.87 0 0 0 3 20H10.26A7 7 0 1 0 21 11.11M9 3H13V5H9M3 18V7H19V9.68A6.84 6.84 0 0 0 16 9A7 7 0 0 0 9 16A6.91 6.91 0 0 0 9.29 18M19 20A5 5 0 0 1 13 20A4.94 4.94 0 0 1 11 16A5 5 0 0 1 16 11A4.94 4.94 0 0 1 19 12A5 5 0 0 1 19 20M15 13H16.5V15.82L18.94 17.23L18.19 18.53L15 16.69V13" />
    </g>
    <g id="mdi-briefcase-clock-outline" transform="translate(540 36) scale(1.5)" fill="#fff">
      <path d="M21 11.11V7A2 2 0 0 0 20.42 5.59A1.87 1.87 0 0 0 19 5H15V3A1.9 1.9 0 0 0 14.42 1.58A1.9 1.9 0 0 0 13 1H9A1.9 1.9 0 0 0 7.58 1.58A1.9 1.9 0 0 0 7 3V5H3A1.87 1.87 0 0 0 1.58 5.59A2 2 0 0 0 1 7V18A2 2 0 0 0 1.58 19.41A1.87 1.87 0 0 0 3 20H10.26A7 7 0 1 0 21 11.11M9 3H13V5H9M3 18V7H19V9.68A6.84 6.84 0 0 0 16 9A7 7 0 0 0 9 16A6.91 6.91 0 0 0 9.29 18M19 20A5 5 0 0 1 13 20A4.94 4.94 0 0 1 11 16A5 5 0 0 1 16 11A4.94 4.94 0 0 1 19 12A5 5 0 0 1 19 20M15 13H16.5V15.82L18.94 17.23L18.19 18.53L15 16.69V13" />
    </g>
    <g id="mdi-briefcase-download" transform="translate(576 36) scale(1.5)" fill="#555">
      <path d="M10,2H14A2,2 0 0,1 16,4V6H20A2,2 0 0,1 22,8V19A2,2 0 0,1 20,21H4C2.89,21 2,20.1 2,19V8C2,6.89 2.89,6 4,6H8V4C8,2.89 8.89,2 10,2M14,6V4H10V6H14M12,19L17,14H14V10H10V14H7L12,19Z" />
    </g>
    <g id="mdi-briefcase-download" transform="translate(612 36) scale(1.5)" fill="#fff">
      <path d="M10,2H14A2,2 0 0,1 16,4V6H20A2,2 0 0,1 22,8V19A2,2 0 0,1 20,21H4C2.89,21 2,20.1 2,19V8C2,6.89 2.89,6 4,6H8V4C8,2.89 8.89,2 10,2M14,6V4H10V6H14M12,19L17,14H14V10H10V14H7L12,19Z" />
    </g>
    <g id="mdi-briefcase-download-outline" transform="translate(648 36) scale(1.5)" fill="#555">
      <path d="M12,18L7,13H10V9H14V13H17L12,18M10,2H14A2,2 0 0,1 16,4V6H20A2,2 0 0,1 22,8V19A2,2 0 0,1 20,21H4C2.89,21 2,20.1 2,19V8C2,6.89 2.89,6 4,6H8V4C8,2.89 8.89,2 10,2M14,6V4H10V6H14M4,8V19H20V8H4Z" />
    </g>
    <g id="mdi-briefcase-download-outline" transform="translate(684 36) scale(1.5)" fill="#fff">
      <path d="M12,18L7,13H10V9H14V13H17L12,18M10,2H14A2,2 0 0,1 16,4V6H20A2,2 0 0,1 22,8V19A2,2 0 0,1 20,21H4C2.89,21 2,20.1 2,19V8C2,6.89 2.89,6 4,6H8V4C8,2.89 8.89,2 10,2M14,6V4H10V6H14M4,8V19H20V8H4Z" />
    </g>
    <g id="mdi-briefcase-edit" transform="translate(0 72) scale(1.5)" fill="#555">
      <path d="M14,2A2,2 0 0,1 16,4V6H20A2,2 0 0,1 22,8L10.85,19C10.85,20.1 10.85,19.5 10.85,21H4C2.89,21 2,20.1 2,19V8C2,6.89 2.89,6 4,6H8V4C8,2.89 8.89,2 10,2H14M14,6V4H10V6H14M21.04,12.13C20.9,12.13 20.76,12.19 20.65,12.3L19.65,13.3L21.7,15.35L22.7,14.35C22.92,14.14 22.92,13.79 22.7,13.58L21.42,12.3C21.31,12.19 21.18,12.13 21.04,12.13M19.07,13.88L13,19.94V22H15.06L21.12,15.93L19.07,13.88Z" />
    </g>
    <g id="mdi-briefcase-edit" transform="translate(36 72) scale(1.5)" fill="#fff">
      <path d="M14,2A2,2 0 0,1 16,4V6H20A2,2 0 0,1 22,8L10.85,19C10.85,20.1 10.85,19.5 10.85,21H4C2.89,21 2,20.1 2,19V8C2,6.89 2.89,6 4,6H8V4C8,2.89 8.89,2 10,2H14M14,6V4H10V6H14M21.04,12.13C20.9,12.13 20.76,12.19 20.65,12.3L19.65,13.3L21.7,15.35L22.7,14.35C22.92,14.14 22.92,13.79 22.7,13.58L21.42,12.3C21.31,12.19 21.18,12.13 21.04,12.13M19.07,13.88L13,19.94V22H15.06L21.12,15.93L19.07,13.88Z" />
    </g>
    <g id="mdi-briefcase-edit-outline" transform="translate(72 72) scale(1.5)" fill="#555">
      <path d="M21.04,12.13C21.18,12.13 21.31,12.19 21.42,12.3L22.7,13.58C22.92,13.79 22.92,14.14 22.7,14.35L21.7,15.35L19.65,13.3L20.65,12.3C20.76,12.19 20.9,12.13 21.04,12.13M19.07,13.88L21.12,15.93L15.06,22H13V19.94L19.07,13.88M10,2H14A2,2 0 0,1 16,4V6H20A2,2 0 0,1 22,8L20,10V8H4V19H11V21H4A2,2 0 0,1 2,19V8A2,2 0 0,1 4,6H8V4A2,2 0 0,1 10,2M14,6V4H10V6H14Z" />
    </g>
    <g id="mdi-briefcase-edit-outline" transform="translate(108 72) scale(1.5)" fill="#fff">
      <path d="M21.04,12.13C21.18,12.13 21.31,12.19 21.42,12.3L22.7,13.58C22.92,13.79 22.92,14.14 22.7,14.35L21.7,15.35L19.65,13.3L20.65,12.3C20.76,12.19 20.9,12.13 21.04,12.13M19.07,13.88L21.12,15.93L15.06,22H13V19.94L19.07,13.88M10,2H14A2,2 0 0,1 16,4V6H20A2,2 0 0,1 22,8L20,10V8H4V19H11V21H4A2,2 0 0,1 2,19V8A2,2 0 0,1 4,6H8V4A2,2 0 0,1 10,2M14,6V4H10V6H14Z" />
    </g>
    <g id="mdi-briefcase-minus" transform="translate(144 72) scale(1.5)" fill="#555">
      <path d="M22,17V19H14V17H22M10,2H14A2,2 0 0,1 16,4V6H20A2,2 0 0,1 22,8V13.53C20.94,12.58 19.54,12 18,12A6,6 0 0,0 12,18C12,19.09 12.29,20.12 12.8,21H4C2.89,21 2,20.1 2,19V8C2,6.89 2.89,6 4,6H8V4C8,2.89 8.89,2 10,2M14,6V4H10V6H14Z" />
    </g>
    <g id="mdi-briefcase-minus" transform="translate(180 72) scale(1.5)" fill="#fff">
      <path d="M22,17V19H14V17H22M10,2H14A2,2 0 0,1 16,4V6H20A2,2 0 0,1 22,8V13.53C20.94,12.58 19.54,12 18,12A6,6 0 0,0 12,18C12,19.09 12.29,20.12 12.8,21H4C2.89,21 2,20.1 2,19V8C2,6.89 2.89,6 4,6H8V4C8,2.89 8.89,2 10,2M14,6V4H10V6H14Z" />
    </g>
    <g id="mdi-briefcase-minus-outline" transform="translate(216 72) scale(1.5)" fill="#555">
      <path d="M10,2H14A2,2 0 0,1 16,4V6H20A2,2 0 0,1 22,8V13.53C21.42,13 20.75,12.6 20,12.34V8H4V19H12.08C12.2,19.72 12.45,20.39 12.8,21H4A2,2 0 0,1 2,19V8A2,2 0 0,1 4,6H8V4A2,2 0 0,1 10,2M14,6V4H10V6H14M14,17H22V19H14V17Z" />
    </g>
    <g id="mdi-briefcase-minus-outline" transform="translate(252 72) scale(1.5)" fill="#fff">
      <path d="M10,2H14A2,2 0 0,1 16,4V6H20A2,2 0 0,1 22,8V13.53C21.42,13 20.75,12.6 20,12.34V8H4V19H12.08C12.2,19.72 12.45,20.39 12.8,21H4A2,2 0 0,1 2,19V8A2,2 0 0,1 4,6H8V4A2,2 0 0,1 10,2M14,6V4H10V6H14M14,17H22V19H14V17Z" />
    </g>
    <g id="mdi-briefcase-outline" transform="translate(288 72) scale(1.5)" fill="#555">
      <path d="M20,6C20.58,6 21.05,6.2 21.42,6.59C21.8,7 22,7.45 22,8V19C22,19.55 21.8,20 21.42,20.41C21.05,20.8 20.58,21 20,21H4C3.42,21 2.95,20.8 2.58,20.41C2.2,20 2,19.55 2,19V8C2,7.45 2.2,7 2.58,6.59C2.95,6.2 3.42,6 4,6H8V4C8,3.42 8.2,2.95 8.58,2.58C8.95,2.2 9.42,2 10,2H14C14.58,2 15.05,2.2 15.42,2.58C15.8,2.95 16,3.42 16,4V6H20M4,8V19H20V8H4M14,6V4H10V6H14Z" />
    </g>
    <g id="mdi-briefcase-outline" transform="translate(324 72) scale(1.5)" fill="#fff">
      <path d="M20,6C20.58,6 21.05,6.2 21.42,6.59C21.8,7 22,7.45 22,8V19C22,19.55 21.8,20 21.42,20.41C21.05,20.8 20.58,21 20,21H4C3.42,21 2.95,20.8 2.58,20.41C2.2,20 2,19.55 2,19V8C2,7.45 2.2,7 2.58,6.59C2.95,6.2 3.42,6 4,6H8V4C8,3.42 8.2,2.95 8.58,2.58C8.95,2.2 9.42,2 10,2H14C14.58,2 15.05,2.2 15.42,2.58C15.8,2.95 16,3.42 16,4V6H20M4,8V19H20V8H4M14,6V4H10V6H14Z" />
    </g>
    <g id="mdi-briefcase-plus" transform="translate(360 72) scale(1.5)" fill="#555">
      <path d="M17,14H19V17H22V19H19V22H17V19H14V17H17V14M10,2H14A2,2 0 0,1 16,4V6H20A2,2 0 0,1 22,8V13.53C20.94,12.58 19.54,12 18,12A6,6 0 0,0 12,18C12,19.09 12.29,20.12 12.8,21H4C2.89,21 2,20.1 2,19V8C2,6.89 2.89,6 4,6H8V4C8,2.89 8.89,2 10,2M14,6V4H10V6H14Z" />
    </g>
    <g id="mdi-briefcase-plus" transform="translate(396 72) scale(1.5)" fill="#fff">
      <path d="M17,14H19V17H22V19H19V22H17V19H14V17H17V14M10,2H14A2,2 0 0,1 16,4V6H20A2,2 0 0,1 22,8V13.53C20.94,12.58 19.54,12 18,12A6,6 0 0,0 12,18C12,19.09 12.29,20.12 12.8,21H4C2.89,21 2,20.1 2,19V8C2,6.89 2.89,6 4,6H8V4C8,2.89 8.89,2 10,2M14,6V4H10V6H14Z" />
    </g>
    <g id="mdi-briefcase-plus-outline" transform="translate(432 72) scale(1.5)" fill="#555">
      <path d="M10,2H14A2,2 0 0,1 16,4V6H20A2,2 0 0,1 22,8V13.53C21.42,13 20.75,12.6 20,12.34V8H4V19H12.08C12.2,19.72 12.45,20.39 12.8,21H4A2,2 0 0,1 2,19V8A2,2 0 0,1 4,6H8V4A2,2 0 0,1 10,2M14,6V4H10V6H14M14,17H17V14H19V17H22V19H19V22H17V19H14V17Z" />
    </g>
    <g id="mdi-briefcase-plus-outline" transform="translate(468 72) scale(1.5)" fill="#fff">
      <path d="M10,2H14A2,2 0 0,1 16,4V6H20A2,2 0 0,1 22,8V13.53C21.42,13 20.75,12.6 20,12.34V8H4V19H12.08C12.2,19.72 12.45,20.39 12.8,21H4A2,2 0 0,1 2,19V8A2,2 0 0,1 4,6H8V4A2,2 0 0,1 10,2M14,6V4H10V6H14M14,17H17V14H19V17H22V19H19V22H17V19H14V17Z" />
    </g>
    <g id="mdi-briefcase-remove" transform="translate(504 72) scale(1.5)" fill="#555">
      <path d="M14.46,15.88L15.88,14.46L18,16.59L20.12,14.46L21.54,15.88L19.41,18L21.54,20.12L20.12,21.54L18,19.41L15.88,21.54L14.46,20.12L16.59,18L14.46,15.88M10,2H14A2,2 0 0,1 16,4V6H20A2,2 0 0,1 22,8V13.53C20.94,12.58 19.54,12 18,12A6,6 0 0,0 12,18C12,19.09 12.29,20.12 12.8,21H4C2.89,21 2,20.1 2,19V8C2,6.89 2.89,6 4,6H8V4C8,2.89 8.89,2 10,2M14,6V4H10V6H14Z" />
    </g>
    <g id="mdi-briefcase-remove" transform="translate(540 72) scale(1.5)" fill="#fff">
      <path d="M14.46,15.88L15.88,14.46L18,16.59L20.12,14.46L21.54,15.88L19.41,18L21.54,20.12L20.12,21.54L18,19.41L15.88,21.54L14.46,20.12L16.59,18L14.46,15.88M10,2H14A2,2 0 0,1 16,4V6H20A2,2 0 0,1 22,8V13.53C20.94,12.58 19.54,12 18,12A6,6 0 0,0 12,18C12,19.09 12.29,20.12 12.8,21H4C2.89,21 2,20.1 2,19V8C2,6.89 2.89,6 4,6H8V4C8,2.89 8.89,2 10,2M14,6V4H10V6H14Z" />
    </g>
    <g id="mdi-briefcase-remove-outline" transform="translate(576 72) scale(1.5)" fill="#555">
      <path d="M10,2H14A2,2 0 0,1 16,4V6H20A2,2 0 0,1 22,8V13.53C21.42,13 20.75,12.6 20,12.34V8H4V19H12.08C12.2,19.72 12.45,20.39 12.8,21H4A2,2 0 0,1 2,19V8A2,2 0 0,1 4,6H8V4A2,2 0 0,1 10,2M14,6V4H10V6H14M14.46,15.88L15.88,14.46L18,16.59L20.12,14.46L21.54,15.88L19.41,18L21.54,20.12L20.12,21.54L18,19.41L15.88,21.54L14.46,20.12L16.59,18L14.46,15.88Z" />
    </g>
    <g id="mdi-briefcase-remove-outline" transform="translate(612 72) scale(1.5)" fill="#fff">
      <path d="M10,2H14A2,2 0 0,1 16,4V6H20A2,2 0 0,1 22,8V13.53C21.42,13 20.75,12.6 20,12.34V8H4V19H12.08C12.2,19.72 12.45,20.39 12.8,21H4A2,2 0 0,1 2,19V8A2,2 0 0,1 4,6H8V4A2,2 0 0,1 10,2M14,6V4H10V6H14M14.46,15.88L15.88,14.46L18,16.59L20.12,14.46L21.54,15.88L19.41,18L21.54,20.12L20.12,21.54L18,19.41L15.88,21.54L14.46,20.12L16.59,18L14.46,15.88Z" />
    </g>
    <g id="mdi-briefcase-search" transform="translate(648 72) scale(1.5)" fill="#555">
      <path d="M16.5,12C19,12 21,14 21,16.5C21,17.38 20.75,18.21 20.31,18.9L23.39,22L22,23.39L18.88,20.32C18.19,20.75 17.37,21 16.5,21C14,21 12,19 12,16.5C12,14 14,12 16.5,12M16.5,14A2.5,2.5 0 0,0 14,16.5A2.5,2.5 0 0,0 16.5,19A2.5,2.5 0 0,0 19,16.5A2.5,2.5 0 0,0 16.5,14M10,2H14A2,2 0 0,1 16,4V6H20A2,2 0 0,1 22,8V13.03C20.85,11.21 18.82,10 16.5,10A6.5,6.5 0 0,0 10,16.5C10,18.25 10.69,19.83 11.81,21H4C2.89,21 2,20.1 2,19V8C2,6.89 2.89,6 4,6H8V4C8,2.89 8.89,2 10,2M14,6V4H10V6H14Z" />
    </g>
    <g id="mdi-briefcase-search" transform="translate(684 72) scale(1.5)" fill="#fff">
      <path d="M16.5,12C19,12 21,14 21,16.5C21,17.38 20.75,18.21 20.31,18.9L23.39,22L22,23.39L18.88,20.32C18.19,20.75 17.37,21 16.5,21C14,21 12,19 12,16.5C12,14 14,12 16.5,12M16.5,14A2.5,2.5 0 0,0 14,16.5A2.5,2.5 0 0,0 16.5,19A2.5,2.5 0 0,0 19,16.5A2.5,2.5 0 0,0 16.5,14M10,2H14A2,2 0 0,1 16,4V6H20A2,2 0 0,1 22,8V13.03C20.85,11.21 18.82,10 16.5,10A6.5,6.5 0 0,0 10,16.5C10,18.25 10.69,19.83 11.81,21H4C2.89,21 2,20.1 2,19V8C2,6.89 2.89,6 4,6H8V4C8,2.89 8.89,2 10,2M14,6V4H10V6H14Z" />
    </g>
    <g id="mdi-briefcase-search-outline" transform="translate(0 108) scale(1.5)" fill="#555">
      <path d="M10,2H14A2,2 0 0,1 16,4V6H20A2,2 0 0,1 22,8V13.03C21.5,12.23 20.8,11.54 20,11V8H4V19H10.5C10.81,19.75 11.26,20.42 11.81,21H4C2.89,21 2,20.1 2,19V8C2,6.89 2.89,6 4,6H8V4C8,2.89 8.89,2 10,2M14,6V4H10V6H14M20.31,18.9L23.39,22L22,23.39L18.88,20.32C18.19,20.75 17.37,21 16.5,21C14,21 12,19 12,16.5C12,14 14,12 16.5,12C19,12 21,14 21,16.5C21,17.38 20.75,18.21 20.31,18.9M16.5,19A2.5,2.5 0 0,0 19,16.5A2.5,2.5 0 0,0 16.5,14A2.5,2.5 0 0,0 14,16.5A2.5,2.5 0 0,0 16.5,19Z" />
    </g>
    <g id="mdi-briefcase-search-outline" transform="translate(36 108) scale(1.5)" fill="#fff">
      <path d="M10,2H14A2,2 0 0,1 16,4V6H20A2,2 0 0,1 22,8V13.03C21.5,12.23 20.8,11.54 20,11V8H4V19H10.5C10.81,19.75 11.26,20.42 11.81,21H4C2.89,21 2,20.1 2,19V8C2,6.89 2.89,6 4,6H8V4C8,2.89 8.89,2 10,2M14,6V4H10V6H14M20.31,18.9L23.39,22L22,23.39L18.88,20.32C18.19,20.75 17.37,21 16.5,21C14,21 12,19 12,16.5C12,14 14,12 16.5,12C19,12 21,14 21,16.5C21,17.38 20.75,18.21 20.31,18.9M16.5,19A2.5,2.5 0 0,0 19,16.5A2.5,2.5 0 0,0 16.5,14A2.5,2.5 0 0,0 14,16.5A2.5,2.5 0 0,0 16.5,19Z" />
    </g>
    <g id="mdi-briefcase-upload" transform="translate(72 108) scale(1.5)" fill="#555">
      <path d="M10,2H14A2,2 0 0,1 16,4V6H20A2,2 0 0,1 22,8V19A2,2 0 0,1 20,21H4C2.89,21 2,20.1 2,19V8C2,6.89 2.89,6 4,6H8V4C8,2.89 8.89,2 10,2M14,6V4H10V6H14M12,9L7,14H10V18H14V14H17L12,9Z" />
    </g>
    <g id="mdi-briefcase-upload" transform="translate(108 108) scale(1.5)" fill="#fff">
      <path d="M10,2H14A2,2 0 0,1 16,4V6H20A2,2 0 0,1 22,8V19A2,2 0 0,1 20,21H4C2.89,21 2,20.1 2,19V8C2,6.89 2.89,6 4,6H8V4C8,2.89 8.89,2 10,2M14,6V4H10V6H14M12,9L7,14H10V18H14V14H17L12,9Z" />
    </g>
    <g id="mdi-briefcase-upload-outline" transform="translate(144 108) scale(1.5)" fill="#555">
      <path d="M12,9L17,14H14V18H10V14H7L12,9M10,2H14A2,2 0 0,1 16,4V6H20A2,2 0 0,1 22,8V19A2,2 0 0,1 20,21H4C2.89,21 2,20.1 2,19V8C2,6.89 2.89,6 4,6H8V4C8,2.89 8.89,2 10,2M14,6V4H10V6H14M4,8V19H20V8H4Z" />
    </g>
    <g id="mdi-briefcase-upload-outline" transform="translate(180 108) scale(1.5)" fill="#fff">
      <path d="M12,9L17,14H14V18H10V14H7L12,9M10,2H14A2,2 0 0,1 16,4V6H20A2,2 0 0,1 22,8V19A2,2 0 0,1 20,21H4C2.89,21 2,20.1 2,19V8C2,6.89 2.89,6 4,6H8V4C8,2.89 8.89,2 10,2M14,6V4H10V6H14M4,8V19H20V8H4Z" />
    </g>
    <g id="mdi-brightness-1" transform="translate(216 108) scale(1.5)" fill="#555">
      <path d="M12,2A10,10 0 0,1 22,12A10,10 0 0,1 12,22A10,10 0 0,1 2,12A10,10 0 0,1 12,2Z" />
    </g>
    <g id="mdi-brightness-1" transform="translate(252 108) scale(1.5)" fill="#fff">
      <path d="M12,2A10,10 0 0,1 22,12A10,10 0 0,1 12,22A10,10 0 0,1 2,12A10,10 0 0,1 12,2Z" />
    </g>
    <g id="mdi-brightness-2" transform="translate(288 108) scale(1.5)" fill="#555">
      <path d="M10,2C8.18,2 6.47,2.5 5,3.35C8,5.08 10,8.3 10,12C10,15.7 8,18.92 5,20.65C6.47,21.5 8.18,22 10,22A10,10 0 0,0 20,12A10,10 0 0,0 10,2Z" />
    </g>
    <g id="mdi-brightness-2" transform="translate(324 108) scale(1.5)" fill="#fff">
      <path d="M10,2C8.18,2 6.47,2.5 5,3.35C8,5.08 10,8.3 10,12C10,15.7 8,18.92 5,20.65C6.47,21.5 8.18,22 10,22A10,10 0 0,0 20,12A10,10 0 0,0 10,2Z" />
    </g>
    <g id="mdi-brightness-3" transform="translate(360 108) scale(1.5)" fill="#555">
      <path d="M9,2C7.95,2 6.95,2.16 6,2.46C10.06,3.73 13,7.5 13,12C13,16.5 10.06,20.27 6,21.54C6.95,21.84 7.95,22 9,22A10,10 0 0,0 19,12A10,10 0 0,0 9,2Z" />
    </g>
    <g id="mdi-brightness-3" transform="translate(396 108) scale(1.5)" fill="#fff">
      <path d="M9,2C7.95,2 6.95,2.16 6,2.46C10.06,3.73 13,7.5 13,12C13,16.5 10.06,20.27 6,21.54C6.95,21.84 7.95,22 9,22A10,10 0 0,0 19,12A10,10 0 0,0 9,2Z" />
    </g>
    <g id="mdi-brightness-4" transform="translate(432 108) scale(1.5)" fill="#555">
      <path d="M12,18C11.11,18 10.26,17.8 9.5,17.45C11.56,16.5 13,14.42 13,12C13,9.58 11.56,7.5 9.5,6.55C10.26,6.2 11.11,6 12,6A6,6 0 0,1 18,12A6,6 0 0,1 12,18M20,8.69V4H15.31L12,0.69L8.69,4H4V8.69L0.69,12L4,15.31V20H8.69L12,23.31L15.31,20H20V15.31L23.31,12L20,8.69Z" />
    </g>
    <g id="mdi-brightness-4" transform="translate(468 108) scale(1.5)" fill="#fff">
      <path d="M12,18C11.11,18 10.26,17.8 9.5,17.45C11.56,16.5 13,14.42 13,12C13,9.58 11.56,7.5 9.5,6.55C10.26,6.2 11.11,6 12,6A6,6 0 0,1 18,12A6,6 0 0,1 12,18M20,8.69V4H15.31L12,0.69L8.69,4H4V8.69L0.69,12L4,15.31V20H8.69L12,23.31L15.31,20H20V15.31L23.31,12L20,8.69Z" />
    </g>
    <g id="mdi-brightness-5" transform="translate(504 108) scale(1.5)" fill="#555">
      <path d="M12,18A6,6 0 0,1 6,12A6,6 0 0,1 12,6A6,6 0 0,1 18,12A6,6 0 0,1 12,18M20,15.31L23.31,12L20,8.69V4H15.31L12,0.69L8.69,4H4V8.69L0.69,12L4,15.31V20H8.69L12,23.31L15.31,20H20V15.31Z" />
    </g>
    <g id="mdi-brightness-5" transform="translate(540 108) scale(1.5)" fill="#fff">
      <path d="M12,18A6,6 0 0,1 6,12A6,6 0 0,1 12,6A6,6 0 0,1 18,12A6,6 0 0,1 12,18M20,15.31L23.31,12L20,8.69V4H15.31L12,0.69L8.69,4H4V8.69L0.69,12L4,15.31V20H8.69L12,23.31L15.31,20H20V15.31Z" />
    </g>
    <g id="mdi-brightness-6" transform="translate(576 108) scale(1.5)" fill="#555">
      <path d="M12,18V6A6,6 0 0,1 18,12A6,6 0 0,1 12,18M20,15.31L23.31,12L20,8.69V4H15.31L12,0.69L8.69,4H4V8.69L0.69,12L4,15.31V20H8.69L12,23.31L15.31,20H20V15.31Z" />
    </g>
    <g id="mdi-brightness-6" transform="translate(612 108) scale(1.5)" fill="#fff">
      <path d="M12,18V6A6,6 0 0,1 18,12A6,6 0 0,1 12,18M20,15.31L23.31,12L20,8.69V4H15.31L12,0.69L8.69,4H4V8.69L0.69,12L4,15.31V20H8.69L12,23.31L15.31,20H20V15.31Z" />
    </g>
    <g id="mdi-brightness-7" transform="translate(648 108) scale(1.5)" fill="#555">
      <path d="M12,8A4,4 0 0,0 8,12A4,4 0 0,0 12,16A4,4 0 0,0 16,12A4,4 0 0,0 12,8M12,18A6,6 0 0,1 6,12A6,6 0 0,1 12,6A6,6 0 0,1 18,12A6,6 0 0,1 12,18M20,8.69V4H15.31L12,0.69L8.69,4H4V8.69L0.69,12L4,15.31V20H8.69L12,23.31L15.31,20H20V15.31L23.31,12L20,8.69Z" />
    </g>
    <g id="mdi-brightness-7" transform="translate(684 108) scale(1.5)" fill="#fff">
      <path d="M12,8A4,4 0 0,0 8,12A4,4 0 0,0 12,16A4,4 0 0,0 16,12A4,4 0 0,0 12,8M12,18A6,6 0 0,1 6,12A6,6 0 0,1 12,6A6,6 0 0,1 18,12A6,6 0 0,1 12,18M20,8.69V4H15.31L12,0.69L8.69,4H4V8.69L0.69,12L4,15.31V20H8.69L12,23.31L15.31,20H20V15.31L23.31,12L20,8.69Z" />
    </g>
    <g id="mdi-brightness-auto" transform="translate(0 144) scale(1.5)" fill="#555">
      <path d="M14.3,16L13.6,14H10.4L9.7,16H7.8L11,7H13L16.2,16H14.3M20,8.69V4H15.31L12,0.69L8.69,4H4V8.69L0.69,12L4,15.31V20H8.69L12,23.31L15.31,20H20V15.31L23.31,12L20,8.69M10.85,12.65H13.15L12,9L10.85,12.65Z" />
    </g>
    <g id="mdi-brightness-auto" transform="translate(36 144) scale(1.5)" fill="#fff">
      <path d="M14.3,16L13.6,14H10.4L9.7,16H7.8L11,7H13L16.2,16H14.3M20,8.69V4H15.31L12,0.69L8.69,4H4V8.69L0.69,12L4,15.31V20H8.69L12,23.31L15.31,20H20V15.31L23.31,12L20,8.69M10.85,12.65H13.15L12,9L10.85,12.65Z" />
    </g>
    <g id="mdi-brightness-percent" transform="translate(72 144) scale(1.5)" fill="#555">
      <path d="M20.04,8.71V4H15.34L12,0.69L8.71,4H4V8.71L0.69,12L4,15.34V20.04H8.71L12,23.35L15.34,20.04H20.04V15.34L23.35,12L20.04,8.71M8.83,7.05C9.81,7.05 10.6,7.84 10.6,8.83A1.77,1.77 0 0,1 8.83,10.6C7.84,10.6 7.05,9.81 7.05,8.83C7.05,7.84 7.84,7.05 8.83,7.05M15.22,17C14.24,17 13.45,16.2 13.45,15.22A1.77,1.77 0 0,1 15.22,13.45C16.2,13.45 17,14.24 17,15.22A1.78,1.78 0 0,1 15.22,17M8.5,17.03L7,15.53L15.53,7L17.03,8.5L8.5,17.03Z" />
    </g>
    <g id="mdi-brightness-percent" transform="translate(108 144) scale(1.5)" fill="#fff">
      <path d="M20.04,8.71V4H15.34L12,0.69L8.71,4H4V8.71L0.69,12L4,15.34V20.04H8.71L12,23.35L15.34,20.04H20.04V15.34L23.35,12L20.04,8.71M8.83,7.05C9.81,7.05 10.6,7.84 10.6,8.83A1.77,1.77 0 0,1 8.83,10.6C7.84,10.6 7.05,9.81 7.05,8.83C7.05,7.84 7.84,7.05 8.83,7.05M15.22,17C14.24,17 13.45,16.2 13.45,15.22A1.77,1.77 0 0,1 15.22,13.45C16.2,13.45 17,14.24 17,15.22A1.78,1.78 0 0,1 15.22,17M8.5,17.03L7,15.53L15.53,7L17.03,8.5L8.5,17.03Z" />
    </g>
    <g id="mdi-broom" transform="translate(144 144) scale(1.5)" fill="#555">
      <path d="M19.36,2.72L20.78,4.14L15.06,9.85C16.13,11.39 16.28,13.24 15.38,14.44L9.06,8.12C10.26,7.22 12.11,7.37 13.65,8.44L19.36,2.72M5.93,17.57C3.92,15.56 2.69,13.16 2.35,10.92L7.23,8.83L14.67,16.27L12.58,21.15C10.34,20.81 7.94,19.58 5.93,17.57Z" />
    </g>
    <g id="mdi-broom" transform="translate(180 144) scale(1.5)" fill="#fff">
      <path d="M19.36,2.72L20.78,4.14L15.06,9.85C16.13,11.39 16.28,13.24 15.38,14.44L9.06,8.12C10.26,7.22 12.11,7.37 13.65,8.44L19.36,2.72M5.93,17.57C3.92,15.56 2.69,13.16 2.35,10.92L7.23,8.83L14.67,16.27L12.58,21.15C10.34,20.81 7.94,19.58 5.93,17.57Z" />
    </g>
    <g id="mdi-brush" transform="translate(216 144) scale(1.5)" fill="#555">
      <path d="M20.71,4.63L19.37,3.29C19,2.9 18.35,2.9 17.96,3.29L9,12.25L11.75,15L20.71,6.04C21.1,5.65 21.1,5 20.71,4.63M7,14A3,3 0 0,0 4,17C4,18.31 2.84,19 2,19C2.92,20.22 4.5,21 6,21A4,4 0 0,0 10,17A3,3 0 0,0 7,14Z" />
    </g>
    <g id="mdi-brush" transform="translate(252 144) scale(1.5)" fill="#fff">
      <path d="M20.71,4.63L19.37,3.29C19,2.9 18.35,2.9 17.96,3.29L9,12.25L11.75,15L20.71,6.04C21.1,5.65 21.1,5 20.71,4.63M7,14A3,3 0 0,0 4,17C4,18.31 2.84,19 2,19C2.92,20.22 4.5,21 6,21A4,4 0 0,0 10,17A3,3 0 0,0 7,14Z" />
    </g>
    <g id="mdi-buddhism" transform="translate(288 144) scale(1.5)" fill="#555">
      <path d="M11,2V3C9.27,3.2 7.69,3.9 6.4,4.94L5.64,4.18L4.22,5.6L5,6.35C3.9,7.68 3.21,9.3 3,11H2V13H3C3.21,14.68 3.9,16.26 5,17.56L4.22,18.32L5.64,19.74L6.39,19C7.71,20.07 9.3,20.77 11,21V22H13V21C14.69,20.77 16.29,20.07 17.6,19L18.36,19.74L19.78,18.32L19,17.57C20.1,16.27 20.79,14.68 21,13H22V11H21C20.79,9.3 20.1,7.69 19,6.36L19.78,5.6L18.36,4.18L17.61,4.94C16.29,3.87 14.69,3.2 13,3V2H11M11,5V8L10,8.5L7.81,6.35C8.72,5.67 9.81,5.17 11,5M13,5C14.16,5.18 15.26,5.64 16.2,6.35L14,8.5L13,8V5M6.4,7.76L8.5,10L8,11H5C5.16,9.84 5.7,8.7 6.39,7.75L6.4,7.76M17.6,7.76C18.33,8.71 18.81,9.82 19,11H16L15.5,10L17.61,7.76H17.6M12,10C13.12,10 14,10.88 14,12C14,13.12 13.12,14 12,14C10.88,14 10,13.12 10,12C10,10.88 10.88,10 12,10M5,13H8L8.57,14L6.39,16.15C5.67,15.24 5.19,14.16 5,13V13M16,13H19C18.81,14.15 18.33,15.24 17.61,16.16L15.5,14L16,13M10,15.5L11,16V19C9.83,18.8 8.73,18.31 7.8,17.57L10,15.5M14,15.5L16.19,17.57C15.28,18.25 14.19,18.83 13,19V16L14,15.5Z" />
    </g>
    <g id="mdi-buddhism" transform="translate(324 144) scale(1.5)" fill="#fff">
      <path d="M11,2V3C9.27,3.2 7.69,3.9 6.4,4.94L5.64,4.18L4.22,5.6L5,6.35C3.9,7.68 3.21,9.3 3,11H2V13H3C3.21,14.68 3.9,16.26 5,17.56L4.22,18.32L5.64,19.74L6.39,19C7.71,20.07 9.3,20.77 11,21V22H13V21C14.69,20.77 16.29,20.07 17.6,19L18.36,19.74L19.78,18.32L19,17.57C20.1,16.27 20.79,14.68 21,13H22V11H21C20.79,9.3 20.1,7.69 19,6.36L19.78,5.6L18.36,4.18L17.61,4.94C16.29,3.87 14.69,3.2 13,3V2H11M11,5V8L10,8.5L7.81,6.35C8.72,5.67 9.81,5.17 11,5M13,5C14.16,5.18 15.26,5.64 16.2,6.35L14,8.5L13,8V5M6.4,7.76L8.5,10L8,11H5C5.16,9.84 5.7,8.7 6.39,7.75L6.4,7.76M17.6,7.76C18.33,8.71 18.81,9.82 19,11H16L15.5,10L17.61,7.76H17.6M12,10C13.12,10 14,10.88 14,12C14,13.12 13.12,14 12,14C10.88,14 10,13.12 10,12C10,10.88 10.88,10 12,10M5,13H8L8.57,14L6.39,16.15C5.67,15.24 5.19,14.16 5,13V13M16,13H19C18.81,14.15 18.33,15.24 17.61,16.16L15.5,14L16,13M10,15.5L11,16V19C9.83,18.8 8.73,18.31 7.8,17.57L10,15.5M14,15.5L16.19,17.57C15.28,18.25 14.19,18.83 13,19V16L14,15.5Z" />
    </g>
    <g id="mdi-buffer" transform="translate(360 144) scale(1.5)" fill="#555">
      <path d="M12.6,2.86C15.27,4.1 18,5.39 20.66,6.63C20.81,6.7 21,6.75 21,6.95C21,7.15 20.81,7.19 20.66,7.26C18,8.5 15.3,9.77 12.62,11C12.21,11.21 11.79,11.21 11.38,11C8.69,9.76 6,8.5 3.32,7.25C3.18,7.19 3,7.14 3,6.94C3,6.76 3.18,6.71 3.31,6.65C6,5.39 8.74,4.1 11.44,2.85C11.73,2.72 12.3,2.73 12.6,2.86M12,21.15C11.8,21.15 11.66,21.07 11.38,20.97C8.69,19.73 6,18.47 3.33,17.22C3.19,17.15 3,17.11 3,16.9C3,16.7 3.19,16.66 3.34,16.59C3.78,16.38 4.23,16.17 4.67,15.96C5.12,15.76 5.56,15.76 6,15.97C7.79,16.8 9.57,17.63 11.35,18.46C11.79,18.67 12.23,18.66 12.67,18.46C14.45,17.62 16.23,16.79 18,15.96C18.44,15.76 18.87,15.75 19.29,15.95C19.77,16.16 20.24,16.39 20.71,16.61C20.78,16.64 20.85,16.68 20.91,16.73C21.04,16.83 21.04,17 20.91,17.08C20.83,17.14 20.74,17.19 20.65,17.23C18,18.5 15.33,19.72 12.66,20.95C12.46,21.05 12.19,21.15 12,21.15M12,16.17C11.9,16.17 11.55,16.07 11.36,16C8.68,14.74 6,13.5 3.34,12.24C3.2,12.18 3,12.13 3,11.93C3,11.72 3.2,11.68 3.35,11.61C3.8,11.39 4.25,11.18 4.7,10.97C5.13,10.78 5.56,10.78 6,11C7.78,11.82 9.58,12.66 11.38,13.5C11.79,13.69 12.21,13.69 12.63,13.5C14.43,12.65 16.23,11.81 18.04,10.97C18.45,10.78 18.87,10.78 19.29,10.97C19.76,11.19 20.24,11.41 20.71,11.63C20.77,11.66 20.84,11.69 20.9,11.74C21.04,11.85 21.04,12 20.89,12.12C20.84,12.16 20.77,12.19 20.71,12.22C18,13.5 15.31,14.75 12.61,16C12.42,16.09 12.08,16.17 12,16.17Z" />
    </g>
    <g id="mdi-buffer" transform="translate(396 144) scale(1.5)" fill="#fff">
      <path d="M12.6,2.86C15.27,4.1 18,5.39 20.66,6.63C20.81,6.7 21,6.75 21,6.95C21,7.15 20.81,7.19 20.66,7.26C18,8.5 15.3,9.77 12.62,11C12.21,11.21 11.79,11.21 11.38,11C8.69,9.76 6,8.5 3.32,7.25C3.18,7.19 3,7.14 3,6.94C3,6.76 3.18,6.71 3.31,6.65C6,5.39 8.74,4.1 11.44,2.85C11.73,2.72 12.3,2.73 12.6,2.86M12,21.15C11.8,21.15 11.66,21.07 11.38,20.97C8.69,19.73 6,18.47 3.33,17.22C3.19,17.15 3,17.11 3,16.9C3,16.7 3.19,16.66 3.34,16.59C3.78,16.38 4.23,16.17 4.67,15.96C5.12,15.76 5.56,15.76 6,15.97C7.79,16.8 9.57,17.63 11.35,18.46C11.79,18.67 12.23,18.66 12.67,18.46C14.45,17.62 16.23,16.79 18,15.96C18.44,15.76 18.87,15.75 19.29,15.95C19.77,16.16 20.24,16.39 20.71,16.61C20.78,16.64 20.85,16.68 20.91,16.73C21.04,16.83 21.04,17 20.91,17.08C20.83,17.14 20.74,17.19 20.65,17.23C18,18.5 15.33,19.72 12.66,20.95C12.46,21.05 12.19,21.15 12,21.15M12,16.17C11.9,16.17 11.55,16.07 11.36,16C8.68,14.74 6,13.5 3.34,12.24C3.2,12.18 3,12.13 3,11.93C3,11.72 3.2,11.68 3.35,11.61C3.8,11.39 4.25,11.18 4.7,10.97C5.13,10.78 5.56,10.78 6,11C7.78,11.82 9.58,12.66 11.38,13.5C11.79,13.69 12.21,13.69 12.63,13.5C14.43,12.65 16.23,11.81 18.04,10.97C18.45,10.78 18.87,10.78 19.29,10.97C19.76,11.19 20.24,11.41 20.71,11.63C20.77,11.66 20.84,11.69 20.9,11.74C21.04,11.85 21.04,12 20.89,12.12C20.84,12.16 20.77,12.19 20.71,12.22C18,13.5 15.31,14.75 12.61,16C12.42,16.09 12.08,16.17 12,16.17Z" />
    </g>
    <g id="mdi-buffet" transform="translate(432 144) scale(1.5)" fill="#555">
      <path d="M9 14C9.55 14 10 14.45 10 15C10 15.55 9.55 16 9 16C8.45 16 8 15.55 8 15C8 14.45 8.45 14 9 14M15 14C15.55 14 16 14.45 16 15C16 15.55 15.55 16 15 16C14.45 16 14 15.55 14 15C14 14.45 14.45 14 15 14M3 22L4 19H3C2.45 19 2 18.55 2 18V12C2 11.45 2.45 11 3 11H21C21.55 11 22 11.45 22 12V18C22 18.55 21.55 19 21 19H20L21 22H19L18 19H6L5 22H3M13 13V17H20V13H13M4 13V17H11V13H4Z" />
    </g>
    <g id="mdi-buffet" transform="translate(468 144) scale(1.5)" fill="#fff">
      <path d="M9 14C9.55 14 10 14.45 10 15C10 15.55 9.55 16 9 16C8.45 16 8 15.55 8 15C8 14.45 8.45 14 9 14M15 14C15.55 14 16 14.45 16 15C16 15.55 15.55 16 15 16C14.45 16 14 15.55 14 15C14 14.45 14.45 14 15 14M3 22L4 19H3C2.45 19 2 18.55 2 18V12C2 11.45 2.45 11 3 11H21C21.55 11 22 11.45 22 12V18C22 18.55 21.55 19 21 19H20L21 22H19L18 19H6L5 22H3M13 13V17H20V13H13M4 13V17H11V13H4Z" />
    </g>
    <g id="mdi-bug" transform="translate(504 144) scale(1.5)" fill="#555">
      <path d="M14,12H10V10H14M14,16H10V14H14M20,8H17.19C16.74,7.22 16.12,6.55 15.37,6.04L17,4.41L15.59,3L13.42,5.17C12.96,5.06 12.5,5 12,5C11.5,5 11.04,5.06 10.59,5.17L8.41,3L7,4.41L8.62,6.04C7.88,6.55 7.26,7.22 6.81,8H4V10H6.09C6.04,10.33 6,10.66 6,11V12H4V14H6V15C6,15.34 6.04,15.67 6.09,16H4V18H6.81C7.85,19.79 9.78,21 12,21C14.22,21 16.15,19.79 17.19,18H20V16H17.91C17.96,15.67 18,15.34 18,15V14H20V12H18V11C18,10.66 17.96,10.33 17.91,10H20V8Z" />
    </g>
    <g id="mdi-bug" transform="translate(540 144) scale(1.5)" fill="#fff">
      <path d="M14,12H10V10H14M14,16H10V14H14M20,8H17.19C16.74,7.22 16.12,6.55 15.37,6.04L17,4.41L15.59,3L13.42,5.17C12.96,5.06 12.5,5 12,5C11.5,5 11.04,5.06 10.59,5.17L8.41,3L7,4.41L8.62,6.04C7.88,6.55 7.26,7.22 6.81,8H4V10H6.09C6.04,10.33 6,10.66 6,11V12H4V14H6V15C6,15.34 6.04,15.67 6.09,16H4V18H6.81C7.85,19.79 9.78,21 12,21C14.22,21 16.15,19.79 17.19,18H20V16H17.91C17.96,15.67 18,15.34 18,15V14H20V12H18V11C18,10.66 17.96,10.33 17.91,10H20V8Z" />
    </g>
    <g id="mdi-bug-check" transform="translate(576 144) scale(1.5)" fill="#555">
      <path d="M18,7H15.19C14.74,6.2 14.12,5.5 13.37,5L15,3.41L13.59,2L11.42,4.17C10.96,4.06 10.5,4 10,4C9.5,4 9.05,4.06 8.59,4.17L6.41,2L5,3.41L6.62,5C5.87,5.5 5.26,6.21 4.81,7H2V9H4.09C4.03,9.33 4,9.66 4,10V11H2V13H4V14C4,14.34 4.03,14.67 4.09,15H2V17H4.81C6.26,19.5 9.28,20.61 12,19.65C12,19.43 12,19.22 12,19C12,16.46 13.61,14.2 16,13.35V13H18V11H16V10C16,9.66 15.97,9.33 15.91,9H18V7M12,15H8V13H12V15M12,11H8V9H12V11M17.75,22.16L15,19.16L16.16,18L17.75,19.59L21.34,16L22.5,17.41L17.75,22.16Z" />
    </g>
    <g id="mdi-bug-check" transform="translate(612 144) scale(1.5)" fill="#fff">
      <path d="M18,7H15.19C14.74,6.2 14.12,5.5 13.37,5L15,3.41L13.59,2L11.42,4.17C10.96,4.06 10.5,4 10,4C9.5,4 9.05,4.06 8.59,4.17L6.41,2L5,3.41L6.62,5C5.87,5.5 5.26,6.21 4.81,7H2V9H4.09C4.03,9.33 4,9.66 4,10V11H2V13H4V14C4,14.34 4.03,14.67 4.09,15H2V17H4.81C6.26,19.5 9.28,20.61 12,19.65C12,19.43 12,19.22 12,19C12,16.46 13.61,14.2 16,13.35V13H18V11H16V10C16,9.66 15.97,9.33 15.91,9H18V7M12,15H8V13H12V15M12,11H8V9H12V11M17.75,22.16L15,19.16L16.16,18L17.75,19.59L21.34,16L22.5,17.41L17.75,22.16Z" />
    </g>
    <g id="mdi-bug-check-outline" transform="translate(648 144) scale(1.5)" fill="#555">
      <path d="M18,7H15.19C14.74,6.2 14.12,5.5 13.37,5L15,3.41L13.59,2L11.42,4.17C10.96,4.06 10.5,4 10,4C9.5,4 9.05,4.06 8.59,4.17L6.41,2L5,3.41L6.62,5C5.87,5.5 5.26,6.21 4.81,7H2V9H4.09C4.03,9.33 4,9.66 4,10V11H2V13H4V14C4,14.34 4.03,14.67 4.09,15H2V17H4.81C6.26,19.5 9.28,20.61 12,19.65C12,19.43 12,19.22 12,19C12,18.43 12.09,17.86 12.25,17.31C11.59,17.76 10.8,18 10,18A4,4 0 0,1 6,14V10A4,4 0 0,1 10,6A4,4 0 0,1 14,10V14C14,14.19 14,14.39 13.95,14.58C14.54,14.04 15.24,13.62 16,13.35V13H18V11H16V10C16,9.66 15.97,9.33 15.91,9H18V7M21.34,16L17.75,19.59L16.16,18L15,19.16L17.75,22.16L22.5,17.41L21.34,16M12,9V11H8V9H12M12,13V15H8V13H12Z" />
    </g>
    <g id="mdi-bug-check-outline" transform="translate(684 144) scale(1.5)" fill="#fff">
      <path d="M18,7H15.19C14.74,6.2 14.12,5.5 13.37,5L15,3.41L13.59,2L11.42,4.17C10.96,4.06 10.5,4 10,4C9.5,4 9.05,4.06 8.59,4.17L6.41,2L5,3.41L6.62,5C5.87,5.5 5.26,6.21 4.81,7H2V9H4.09C4.03,9.33 4,9.66 4,10V11H2V13H4V14C4,14.34 4.03,14.67 4.09,15H2V17H4.81C6.26,19.5 9.28,20.61 12,19.65C12,19.43 12,19.22 12,19C12,18.43 12.09,17.86 12.25,17.31C11.59,17.76 10.8,18 10,18A4,4 0 0,1 6,14V10A4,4 0 0,1 10,6A4,4 0 0,1 14,10V14C14,14.19 14,14.39 13.95,14.58C14.54,14.04 15.24,13.62 16,13.35V13H18V11H16V10C16,9.66 15.97,9.33 15.91,9H18V7M21.34,16L17.75,19.59L16.16,18L15,19.16L17.75,22.16L22.5,17.41L21.34,16M12,9V11H8V9H12M12,13V15H8V13H12Z" />
    </g>
    <g id="mdi-bug-outline" transform="translate(0 180) scale(1.5)" fill="#555">
      <path d="M20,8H17.19C16.74,7.2 16.12,6.5 15.37,6L17,4.41L15.59,3L13.42,5.17C12.96,5.06 12.5,5 12,5C11.5,5 11.05,5.06 10.59,5.17L8.41,3L7,4.41L8.62,6C7.87,6.5 7.26,7.21 6.81,8H4V10H6.09C6.03,10.33 6,10.66 6,11V12H4V14H6V15C6,15.34 6.03,15.67 6.09,16H4V18H6.81C8.47,20.87 12.14,21.84 15,20.18C15.91,19.66 16.67,18.9 17.19,18H20V16H17.91C17.97,15.67 18,15.34 18,15V14H20V12H18V11C18,10.66 17.97,10.33 17.91,10H20V8M16,15A4,4 0 0,1 12,19A4,4 0 0,1 8,15V11A4,4 0 0,1 12,7A4,4 0 0,1 16,11V15M14,10V12H10V10H14M10,14H14V16H10V14Z" />
    </g>
    <g id="mdi-bug-outline" transform="translate(36 180) scale(1.5)" fill="#fff">
      <path d="M20,8H17.19C16.74,7.2 16.12,6.5 15.37,6L17,4.41L15.59,3L13.42,5.17C12.96,5.06 12.5,5 12,5C11.5,5 11.05,5.06 10.59,5.17L8.41,3L7,4.41L8.62,6C7.87,6.5 7.26,7.21 6.81,8H4V10H6.09C6.03,10.33 6,10.66 6,11V12H4V14H6V15C6,15.34 6.03,15.67 6.09,16H4V18H6.81C8.47,20.87 12.14,21.84 15,20.18C15.91,19.66 16.67,18.9 17.19,18H20V16H17.91C17.97,15.67 18,15.34 18,15V14H20V12H18V11C18,10.66 17.97,10.33 17.91,10H20V8M16,15A4,4 0 0,1 12,19A4,4 0 0,1 8,15V11A4,4 0 0,1 12,7A4,4 0 0,1 16,11V15M14,10V12H10V10H14M10,14H14V16H10V14Z" />
    </g>
    <g id="mdi-bugle" transform="translate(72 180) scale(1.5)" fill="#555">
      <path d="M21,6C21,11 12,11 12,11C12,11 6,11 5,11C4,11 3,10 3,10H2V14H3C3,14 4,13 5,13C5.2,13 5.7,13 6.3,13C5.5,13.5 5,14.2 5,15C5,16.8 7.3,18 10.5,18C13.7,18 16,16.8 16,15C16,14.4 15.7,13.8 15.2,13.3C17.8,13.8 21,15 21,18H22V6H21M10.5,16.7C8.2,16.7 6.4,15.9 6.4,15C6.4,14.1 8.2,13.3 10.5,13.3C12.8,13.3 14.6,14.1 14.6,15C14.6,15.9 12.8,16.7 10.5,16.7Z" />
    </g>
    <g id="mdi-bugle" transform="translate(108 180) scale(1.5)" fill="#fff">
      <path d="M21,6C21,11 12,11 12,11C12,11 6,11 5,11C4,11 3,10 3,10H2V14H3C3,14 4,13 5,13C5.2,13 5.7,13 6.3,13C5.5,13.5 5,14.2 5,15C5,16.8 7.3,18 10.5,18C13.7,18 16,16.8 16,15C16,14.4 15.7,13.8 15.2,13.3C17.8,13.8 21,15 21,18H22V6H21M10.5,16.7C8.2,16.7 6.4,15.9 6.4,15C6.4,14.1 8.2,13.3 10.5,13.3C12.8,13.3 14.6,14.1 14.6,15C14.6,15.9 12.8,16.7 10.5,16.7Z" />
    </g>
    <g id="mdi-bulldozer" transform="translate(144 180) scale(1.5)" fill="#555">
      <path d="M4,4A1,1 0 0,0 3,5V10C2.54,10 2.14,10.31 2.03,10.76V13.97H2.29C2.65,13.37 3.3,13 4,13H13C13.7,13 14.35,13.37 14.71,13.97H16.03L16,11V11A1,1 0 0,0 15,10H13V8A1,1 0 0,0 12,7A1,1 0 0,0 11,8V10H9V5A1,1 0 0,0 8,4H4M5,6H7V10L7,11H5V6M17,11V19H22V18L19,17L18,11H17M4,15A2,2 0 0,0 2,17A2,2 0 0,0 4,19H13A2,2 0 0,0 15,17A2,2 0 0,0 13,15H4Z" />
    </g>
    <g id="mdi-bulldozer" transform="translate(180 180) scale(1.5)" fill="#fff">
      <path d="M4,4A1,1 0 0,0 3,5V10C2.54,10 2.14,10.31 2.03,10.76V13.97H2.29C2.65,13.37 3.3,13 4,13H13C13.7,13 14.35,13.37 14.71,13.97H16.03L16,11V11A1,1 0 0,0 15,10H13V8A1,1 0 0,0 12,7A1,1 0 0,0 11,8V10H9V5A1,1 0 0,0 8,4H4M5,6H7V10L7,11H5V6M17,11V19H22V18L19,17L18,11H17M4,15A2,2 0 0,0 2,17A2,2 0 0,0 4,19H13A2,2 0 0,0 15,17A2,2 0 0,0 13,15H4Z" />
    </g>
    <g id="mdi-bullet" transform="translate(216 180) scale(1.5)" fill="#555">
      <path d="M14,22H10V21H14V22M13,10V7H11V10L10,11.5V20H14V11.5L13,10M12,2C12,2 11,3 11,5V6H13V5C13,5 13,3 12,2Z" />
    </g>
    <g id="mdi-bullet" transform="translate(252 180) scale(1.5)" fill="#fff">
      <path d="M14,22H10V21H14V22M13,10V7H11V10L10,11.5V20H14V11.5L13,10M12,2C12,2 11,3 11,5V6H13V5C13,5 13,3 12,2Z" />
    </g>
    <g id="mdi-bulletin-board" transform="translate(288 180) scale(1.5)" fill="#555">
      <path d="M12.04,2.5L9.53,5H14.53L12.04,2.5M4,7V20H20V7H4M12,0L17,5V5H20A2,2 0 0,1 22,7V20A2,2 0 0,1 20,22H4A2,2 0 0,1 2,20V7A2,2 0 0,1 4,5H7V5L12,0M7,18V14H12V18H7M14,17V10H18V17H14M6,12V9H11V12H6Z" />
    </g>
    <g id="mdi-bulletin-board" transform="translate(324 180) scale(1.5)" fill="#fff">
      <path d="M12.04,2.5L9.53,5H14.53L12.04,2.5M4,7V20H20V7H4M12,0L17,5V5H20A2,2 0 0,1 22,7V20A2,2 0 0,1 20,22H4A2,2 0 0,1 2,20V7A2,2 0 0,1 4,5H7V5L12,0M7,18V14H12V18H7M14,17V10H18V17H14M6,12V9H11V12H6Z" />
    </g>
    <g id="mdi-bullhorn" transform="translate(360 180) scale(1.5)" fill="#555">
      <path d="M12,8H4A2,2 0 0,0 2,10V14A2,2 0 0,0 4,16H5V20A1,1 0 0,0 6,21H8A1,1 0 0,0 9,20V16H12L17,20V4L12,8M21.5,12C21.5,13.71 20.54,15.26 19,16V8C20.53,8.75 21.5,10.3 21.5,12Z" />
    </g>
    <g id="mdi-bullhorn" transform="translate(396 180) scale(1.5)" fill="#fff">
      <path d="M12,8H4A2,2 0 0,0 2,10V14A2,2 0 0,0 4,16H5V20A1,1 0 0,0 6,21H8A1,1 0 0,0 9,20V16H12L17,20V4L12,8M21.5,12C21.5,13.71 20.54,15.26 19,16V8C20.53,8.75 21.5,10.3 21.5,12Z" />
    </g>
    <g id="mdi-bullhorn-outline" transform="translate(432 180) scale(1.5)" fill="#555">
      <path d="M12,8H4A2,2 0 0,0 2,10V14A2,2 0 0,0 4,16H5V20A1,1 0 0,0 6,21H8A1,1 0 0,0 9,20V16H12L17,20V4L12,8M15,15.6L13,14H4V10H13L15,8.4V15.6M21.5,12C21.5,13.71 20.54,15.26 19,16V8C20.53,8.75 21.5,10.3 21.5,12Z" />
    </g>
    <g id="mdi-bullhorn-outline" transform="translate(468 180) scale(1.5)" fill="#fff">
      <path d="M12,8H4A2,2 0 0,0 2,10V14A2,2 0 0,0 4,16H5V20A1,1 0 0,0 6,21H8A1,1 0 0,0 9,20V16H12L17,20V4L12,8M15,15.6L13,14H4V10H13L15,8.4V15.6M21.5,12C21.5,13.71 20.54,15.26 19,16V8C20.53,8.75 21.5,10.3 21.5,12Z" />
    </g>
    <g id="mdi-bullseye" transform="translate(504 180) scale(1.5)" fill="#555">
      <path d="M12,2A10,10 0 0,0 2,12A10,10 0 0,0 12,22A10,10 0 0,0 22,12A10,10 0 0,0 12,2M12,4A8,8 0 0,1 20,12A8,8 0 0,1 12,20A8,8 0 0,1 4,12A8,8 0 0,1 12,4M12,6A6,6 0 0,0 6,12A6,6 0 0,0 12,18A6,6 0 0,0 18,12A6,6 0 0,0 12,6M12,8A4,4 0 0,1 16,12A4,4 0 0,1 12,16A4,4 0 0,1 8,12A4,4 0 0,1 12,8M12,10A2,2 0 0,0 10,12A2,2 0 0,0 12,14A2,2 0 0,0 14,12A2,2 0 0,0 12,10Z" />
    </g>
    <g id="mdi-bullseye" transform="translate(540 180) scale(1.5)" fill="#fff">
      <path d="M12,2A10,10 0 0,0 2,12A10,10 0 0,0 12,22A10,10 0 0,0 22,12A10,10 0 0,0 12,2M12,4A8,8 0 0,1 20,12A8,8 0 0,1 12,20A8,8 0 0,1 4,12A8,8 0 0,1 12,4M12,6A6,6 0 0,0 6,12A6,6 0 0,0 12,18A6,6 0 0,0 18,12A6,6 0 0,0 12,6M12,8A4,4 0 0,1 16,12A4,4 0 0,1 12,16A4,4 0 0,1 8,12A4,4 0 0,1 12,8M12,10A2,2 0 0,0 10,12A2,2 0 0,0 12,14A2,2 0 0,0 14,12A2,2 0 0,0 12,10Z" />
    </g>
    <g id="mdi-bullseye-arrow" transform="translate(576 180) scale(1.5)" fill="#555">
      <path d="M12,2A10,10 0 0,0 2,12A10,10 0 0,0 12,22A10,10 0 0,0 22,12C22,10.84 21.79,9.69 21.39,8.61L19.79,10.21C19.93,10.8 20,11.4 20,12A8,8 0 0,1 12,20A8,8 0 0,1 4,12A8,8 0 0,1 12,4C12.6,4 13.2,4.07 13.79,4.21L15.4,2.6C14.31,2.21 13.16,2 12,2M19,2L15,6V7.5L12.45,10.05C12.3,10 12.15,10 12,10A2,2 0 0,0 10,12A2,2 0 0,0 12,14A2,2 0 0,0 14,12C14,11.85 14,11.7 13.95,11.55L16.5,9H18L22,5H19V2M12,6A6,6 0 0,0 6,12A6,6 0 0,0 12,18A6,6 0 0,0 18,12H16A4,4 0 0,1 12,16A4,4 0 0,1 8,12A4,4 0 0,1 12,8V6Z" />
    </g>
    <g id="mdi-bullseye-arrow" transform="translate(612 180) scale(1.5)" fill="#fff">
      <path d="M12,2A10,10 0 0,0 2,12A10,10 0 0,0 12,22A10,10 0 0,0 22,12C22,10.84 21.79,9.69 21.39,8.61L19.79,10.21C19.93,10.8 20,11.4 20,12A8,8 0 0,1 12,20A8,8 0 0,1 4,12A8,8 0 0,1 12,4C12.6,4 13.2,4.07 13.79,4.21L15.4,2.6C14.31,2.21 13.16,2 12,2M19,2L15,6V7.5L12.45,10.05C12.3,10 12.15,10 12,10A2,2 0 0,0 10,12A2,2 0 0,0 12,14A2,2 0 0,0 14,12C14,11.85 14,11.7 13.95,11.55L16.5,9H18L22,5H19V2M12,6A6,6 0 0,0 6,12A6,6 0 0,0 12,18A6,6 0 0,0 18,12H16A4,4 0 0,1 12,16A4,4 0 0,1 8,12A4,4 0 0,1 12,8V6Z" />
    </g>
    <g id="mdi-bulma" transform="translate(648 180) scale(1.5)" fill="#555">
      <path d="M11.38 2L6.38 7L5.13 15.75L11.38 22L18.88 17L13.88 12L17.63 8.25L11.38 2Z" />
    </g>
    <g id="mdi-bulma" transform="translate(684 180) scale(1.5)" fill="#fff">
      <path d="M11.38 2L6.38 7L5.13 15.75L11.38 22L18.88 17L13.88 12L17.63 8.25L11.38 2Z" />
    </g>
    <g id="mdi-bunk-bed" transform="translate(0 216) scale(1.5)" fill="#555">
      <path d="M1 2V23H3V21H21V23H23V7C23 4.79 21.21 3 19 3H10V8H3V2M6.5 2A2.5 2.5 0 0 0 4 4.5A2.5 2.5 0 0 0 6.5 7A2.5 2.5 0 0 0 9 4.5A2.5 2.5 0 0 0 6.5 2M3 11H21V13.56C20.41 13.21 19.73 13 19 13H10V18H3M6.5 12A2.5 2.5 0 0 0 4 14.5A2.5 2.5 0 0 0 6.5 17A2.5 2.5 0 0 0 9 14.5A2.5 2.5 0 0 0 6.5 12Z" />
    </g>
    <g id="mdi-bunk-bed" transform="translate(36 216) scale(1.5)" fill="#fff">
      <path d="M1 2V23H3V21H21V23H23V7C23 4.79 21.21 3 19 3H10V8H3V2M6.5 2A2.5 2.5 0 0 0 4 4.5A2.5 2.5 0 0 0 6.5 7A2.5 2.5 0 0 0 9 4.5A2.5 2.5 0 0 0 6.5 2M3 11H21V13.56C20.41 13.21 19.73 13 19 13H10V18H3M6.5 12A2.5 2.5 0 0 0 4 14.5A2.5 2.5 0 0 0 6.5 17A2.5 2.5 0 0 0 9 14.5A2.5 2.5 0 0 0 6.5 12Z" />
    </g>
    <g id="mdi-bunk-bed-outline" transform="translate(72 216) scale(1.5)" fill="#555">
      <path d="M1 2H3V9H10V3H19C21.2 3 23 4.8 23 7V23H21V21H3V23H1V2M12 5V9H21V7C21 5.9 20.1 5 19 5H12M3 11V19H10V13H19C19.7 13 20.4 13.2 21 13.6V11H3M6.5 13C7.9 13 9 14.1 9 15.5S7.9 18 6.5 18 4 16.9 4 15.5 5.1 13 6.5 13M6.5 14.6C6 14.6 5.6 15 5.6 15.5S6 16.4 6.5 16.4 7.4 16 7.4 15.5 7 14.6 6.5 14.6M12 15V19H21V17C21 15.9 20.1 15 19 15H12M6.5 3C7.9 3 9 4.1 9 5.5S7.9 8 6.5 8 4 6.9 4 5.5 5.1 3 6.5 3M6.5 4.6C6 4.6 5.6 5 5.6 5.5S6 6.4 6.5 6.4 7.4 6 7.4 5.5 7 4.6 6.5 4.6Z" />
    </g>
    <g id="mdi-bunk-bed-outline" transform="translate(108 216) scale(1.5)" fill="#fff">
      <path d="M1 2H3V9H10V3H19C21.2 3 23 4.8 23 7V23H21V21H3V23H1V2M12 5V9H21V7C21 5.9 20.1 5 19 5H12M3 11V19H10V13H19C19.7 13 20.4 13.2 21 13.6V11H3M6.5 13C7.9 13 9 14.1 9 15.5S7.9 18 6.5 18 4 16.9 4 15.5 5.1 13 6.5 13M6.5 14.6C6 14.6 5.6 15 5.6 15.5S6 16.4 6.5 16.4 7.4 16 7.4 15.5 7 14.6 6.5 14.6M12 15V19H21V17C21 15.9 20.1 15 19 15H12M6.5 3C7.9 3 9 4.1 9 5.5S7.9 8 6.5 8 4 6.9 4 5.5 5.1 3 6.5 3M6.5 4.6C6 4.6 5.6 5 5.6 5.5S6 6.4 6.5 6.4 7.4 6 7.4 5.5 7 4.6 6.5 4.6Z" />
    </g>
    <g id="mdi-bus" transform="translate(144 216) scale(1.5)" fill="#555">
      <path d="M18,11H6V6H18M16.5,17A1.5,1.5 0 0,1 15,15.5A1.5,1.5 0 0,1 16.5,14A1.5,1.5 0 0,1 18,15.5A1.5,1.5 0 0,1 16.5,17M7.5,17A1.5,1.5 0 0,1 6,15.5A1.5,1.5 0 0,1 7.5,14A1.5,1.5 0 0,1 9,15.5A1.5,1.5 0 0,1 7.5,17M4,16C4,16.88 4.39,17.67 5,18.22V20A1,1 0 0,0 6,21H7A1,1 0 0,0 8,20V19H16V20A1,1 0 0,0 17,21H18A1,1 0 0,0 19,20V18.22C19.61,17.67 20,16.88 20,16V6C20,2.5 16.42,2 12,2C7.58,2 4,2.5 4,6V16Z" />
    </g>
    <g id="mdi-bus" transform="translate(180 216) scale(1.5)" fill="#fff">
      <path d="M18,11H6V6H18M16.5,17A1.5,1.5 0 0,1 15,15.5A1.5,1.5 0 0,1 16.5,14A1.5,1.5 0 0,1 18,15.5A1.5,1.5 0 0,1 16.5,17M7.5,17A1.5,1.5 0 0,1 6,15.5A1.5,1.5 0 0,1 7.5,14A1.5,1.5 0 0,1 9,15.5A1.5,1.5 0 0,1 7.5,17M4,16C4,16.88 4.39,17.67 5,18.22V20A1,1 0 0,0 6,21H7A1,1 0 0,0 8,20V19H16V20A1,1 0 0,0 17,21H18A1,1 0 0,0 19,20V18.22C19.61,17.67 20,16.88 20,16V6C20,2.5 16.42,2 12,2C7.58,2 4,2.5 4,6V16Z" />
    </g>
    <g id="mdi-bus-alert" transform="translate(216 216) scale(1.5)" fill="#555">
      <path d="M16,1A7,7 0 0,1 23,8C23,11.53 20.39,14.45 17,14.93V18C17,18.84 16.65,19.58 15.96,20.2V22C15.96,22.27 15.87,22.5 15.68,22.71C15.5,22.91 15.26,23 15,23H14C13.71,23 13.47,22.91 13.27,22.71C13.06,22.5 12.96,22.27 12.96,22V21H5.04V22C5.04,22.27 4.94,22.5 4.73,22.71C4.53,22.91 4.29,23 4,23H3C2.74,23 2.5,22.91 2.32,22.71C2.13,22.5 2.04,22.27 2.04,22V20.2C1.35,19.58 1,18.84 1,18V8C1,6.42 1.7,5.35 3.07,4.8C4.44,4.26 6.42,4 9,4L10.23,4.03C11.5,2.2 13.61,1 16,1M16,3A5,5 0 0,0 11,8A5,5 0 0,0 16,13A5,5 0 0,0 21,8A5,5 0 0,0 16,3M15,10H17V12H15V10M15,4H17V9H15V4M3,13H11.09C9.8,11.72 9,9.96 9,8H3V13M4.5,16C3.69,16 3,16.67 3,17.5A1.5,1.5 0 0,0 4.5,19C5.35,19 6,18.33 6,17.5A1.5,1.5 0 0,0 4.5,16M13.5,16C12.65,16 12,16.67 12,17.5A1.5,1.5 0 0,0 13.5,19C14.31,19 15,18.33 15,17.5A1.5,1.5 0 0,0 13.5,16Z" />
    </g>
    <g id="mdi-bus-alert" transform="translate(252 216) scale(1.5)" fill="#fff">
      <path d="M16,1A7,7 0 0,1 23,8C23,11.53 20.39,14.45 17,14.93V18C17,18.84 16.65,19.58 15.96,20.2V22C15.96,22.27 15.87,22.5 15.68,22.71C15.5,22.91 15.26,23 15,23H14C13.71,23 13.47,22.91 13.27,22.71C13.06,22.5 12.96,22.27 12.96,22V21H5.04V22C5.04,22.27 4.94,22.5 4.73,22.71C4.53,22.91 4.29,23 4,23H3C2.74,23 2.5,22.91 2.32,22.71C2.13,22.5 2.04,22.27 2.04,22V20.2C1.35,19.58 1,18.84 1,18V8C1,6.42 1.7,5.35 3.07,4.8C4.44,4.26 6.42,4 9,4L10.23,4.03C11.5,2.2 13.61,1 16,1M16,3A5,5 0 0,0 11,8A5,5 0 0,0 16,13A5,5 0 0,0 21,8A5,5 0 0,0 16,3M15,10H17V12H15V10M15,4H17V9H15V4M3,13H11.09C9.8,11.72 9,9.96 9,8H3V13M4.5,16C3.69,16 3,16.67 3,17.5A1.5,1.5 0 0,0 4.5,19C5.35,19 6,18.33 6,17.5A1.5,1.5 0 0,0 4.5,16M13.5,16C12.65,16 12,16.67 12,17.5A1.5,1.5 0 0,0 13.5,19C14.31,19 15,18.33 15,17.5A1.5,1.5 0 0,0 13.5,16Z" />
    </g>
    <g id="mdi-bus-articulated-end" transform="translate(288 216) scale(1.5)" fill="#555">
      <path d="M21.5,6L20,7.5L21.5,9L20,10.5L21.5,12L20,13.5L21.5,15H12.5A3,3 0 0,1 9.5,18A3,3 0 0,1 6.5,15H2.5V8C2.5,6.89 3.39,6 4.5,6H21.5M18.5,7.5H15V10H18.5V7.5M13.5,7.5H9.5V10H13.5V7.5M8,7.5H4V10H8V7.5M9.5,13.5A1.5,1.5 0 0,0 8,15A1.5,1.5 0 0,0 9.5,16.5A1.5,1.5 0 0,0 11,15A1.5,1.5 0 0,0 9.5,13.5Z" />
    </g>
    <g id="mdi-bus-articulated-end" transform="translate(324 216) scale(1.5)" fill="#fff">
      <path d="M21.5,6L20,7.5L21.5,9L20,10.5L21.5,12L20,13.5L21.5,15H12.5A3,3 0 0,1 9.5,18A3,3 0 0,1 6.5,15H2.5V8C2.5,6.89 3.39,6 4.5,6H21.5M18.5,7.5H15V10H18.5V7.5M13.5,7.5H9.5V10H13.5V7.5M8,7.5H4V10H8V7.5M9.5,13.5A1.5,1.5 0 0,0 8,15A1.5,1.5 0 0,0 9.5,16.5A1.5,1.5 0 0,0 11,15A1.5,1.5 0 0,0 9.5,13.5Z" />
    </g>
    <g id="mdi-bus-articulated-front" transform="translate(360 216) scale(1.5)" fill="#555">
      <path d="M1,6L2.5,7.5L1,9L2.5,10.5L1,12L2.5,13.5L1,15H3A3,3 0 0,0 6,18A3,3 0 0,0 9,15H15A3,3 0 0,0 18,18A3,3 0 0,0 21,15H23V8C23,6.89 22.11,6 21,6H1M4,7.5H6.5V10H4V7.5M8,7.5H12V10H8V7.5M13.5,7.5H17.5V10H13.5V7.5M19,7.5H21.5V13L19,11V7.5M6,13.5A1.5,1.5 0 0,1 7.5,15A1.5,1.5 0 0,1 6,16.5A1.5,1.5 0 0,1 4.5,15A1.5,1.5 0 0,1 6,13.5M18,13.5A1.5,1.5 0 0,1 19.5,15A1.5,1.5 0 0,1 18,16.5A1.5,1.5 0 0,1 16.5,15A1.5,1.5 0 0,1 18,13.5Z" />
    </g>
    <g id="mdi-bus-articulated-front" transform="translate(396 216) scale(1.5)" fill="#fff">
      <path d="M1,6L2.5,7.5L1,9L2.5,10.5L1,12L2.5,13.5L1,15H3A3,3 0 0,0 6,18A3,3 0 0,0 9,15H15A3,3 0 0,0 18,18A3,3 0 0,0 21,15H23V8C23,6.89 22.11,6 21,6H1M4,7.5H6.5V10H4V7.5M8,7.5H12V10H8V7.5M13.5,7.5H17.5V10H13.5V7.5M19,7.5H21.5V13L19,11V7.5M6,13.5A1.5,1.5 0 0,1 7.5,15A1.5,1.5 0 0,1 6,16.5A1.5,1.5 0 0,1 4.5,15A1.5,1.5 0 0,1 6,13.5M18,13.5A1.5,1.5 0 0,1 19.5,15A1.5,1.5 0 0,1 18,16.5A1.5,1.5 0 0,1 16.5,15A1.5,1.5 0 0,1 18,13.5Z" />
    </g>
    <g id="mdi-bus-clock" transform="translate(432 216) scale(1.5)" fill="#555">
      <path d="M16.5,4V8.25L19.36,9.94L18.61,11.16L15,9V4H16.5M16,13C17.36,13 18.54,12.5 19.5,11.53C20.5,10.56 21,9.39 21,8C21,6.64 20.5,5.46 19.5,4.5C18.54,3.5 17.36,3 16,3C14.61,3 13.44,3.5 12.47,4.5C11.5,5.46 11,6.64 11,8C11,9.39 11.5,10.56 12.47,11.53C13.44,12.5 14.61,13 16,13M13.5,19C13.94,19 14.3,18.84 14.58,18.54C14.86,18.24 15,17.89 15,17.5C15,17.08 14.86,16.73 14.58,16.43C14.3,16.13 13.94,16 13.5,16C13.06,16 12.7,16.13 12.42,16.43C12.14,16.73 12,17.08 12,17.5C12,17.89 12.14,18.24 12.42,18.54C12.7,18.84 13.06,19 13.5,19M3,13H11.11C9.7,11.64 9,10 9,8H3V13M4.5,19C4.94,19 5.3,18.84 5.58,18.54C5.86,18.24 6,17.89 6,17.5C6,17.08 5.86,16.73 5.58,16.43C5.3,16.13 4.94,16 4.5,16C4.06,16 3.7,16.13 3.42,16.43C3.14,16.73 3,17.08 3,17.5C3,17.89 3.14,18.24 3.42,18.54C3.7,18.84 4.06,19 4.5,19M16,1C17.92,1 19.58,1.67 20.95,3.05C22.33,4.42 23,6.08 23,8C23,9.77 22.44,11.29 21.28,12.59C20.13,13.88 18.7,14.66 17,14.91V18C17,18.84 16.67,19.58 16,20.2V22C16,22.27 15.89,22.5 15.7,22.71C15.5,22.91 15.28,23 15,23H14C13.73,23 13.5,22.91 13.29,22.71C13.09,22.5 13,22.27 13,22V21H5V22C5,22.27 4.91,22.5 4.71,22.71C4.5,22.91 4.27,23 4,23H3C2.72,23 2.5,22.91 2.3,22.71C2.11,22.5 2,22.27 2,22V20.2C1.33,19.58 1,18.84 1,18V8C1,6.42 1.67,5.35 3.05,4.8C4.42,4.26 6.41,4 9,4C9.13,4 9.33,4 9.61,4C9.89,4 10.09,4.03 10.22,4.03C11.63,2 13.55,1 16,1Z" />
    </g>
    <g id="mdi-bus-clock" transform="translate(468 216) scale(1.5)" fill="#fff">
      <path d="M16.5,4V8.25L19.36,9.94L18.61,11.16L15,9V4H16.5M16,13C17.36,13 18.54,12.5 19.5,11.53C20.5,10.56 21,9.39 21,8C21,6.64 20.5,5.46 19.5,4.5C18.54,3.5 17.36,3 16,3C14.61,3 13.44,3.5 12.47,4.5C11.5,5.46 11,6.64 11,8C11,9.39 11.5,10.56 12.47,11.53C13.44,12.5 14.61,13 16,13M13.5,19C13.94,19 14.3,18.84 14.58,18.54C14.86,18.24 15,17.89 15,17.5C15,17.08 14.86,16.73 14.58,16.43C14.3,16.13 13.94,16 13.5,16C13.06,16 12.7,16.13 12.42,16.43C12.14,16.73 12,17.08 12,17.5C12,17.89 12.14,18.24 12.42,18.54C12.7,18.84 13.06,19 13.5,19M3,13H11.11C9.7,11.64 9,10 9,8H3V13M4.5,19C4.94,19 5.3,18.84 5.58,18.54C5.86,18.24 6,17.89 6,17.5C6,17.08 5.86,16.73 5.58,16.43C5.3,16.13 4.94,16 4.5,16C4.06,16 3.7,16.13 3.42,16.43C3.14,16.73 3,17.08 3,17.5C3,17.89 3.14,18.24 3.42,18.54C3.7,18.84 4.06,19 4.5,19M16,1C17.92,1 19.58,1.67 20.95,3.05C22.33,4.42 23,6.08 23,8C23,9.77 22.44,11.29 21.28,12.59C20.13,13.88 18.7,14.66 17,14.91V18C17,18.84 16.67,19.58 16,20.2V22C16,22.27 15.89,22.5 15.7,22.71C15.5,22.91 15.28,23 15,23H14C13.73,23 13.5,22.91 13.29,22.71C13.09,22.5 13,22.27 13,22V21H5V22C5,22.27 4.91,22.5 4.71,22.71C4.5,22.91 4.27,23 4,23H3C2.72,23 2.5,22.91 2.3,22.71C2.11,22.5 2,22.27 2,22V20.2C1.33,19.58 1,18.84 1,18V8C1,6.42 1.67,5.35 3.05,4.8C4.42,4.26 6.41,4 9,4C9.13,4 9.33,4 9.61,4C9.89,4 10.09,4.03 10.22,4.03C11.63,2 13.55,1 16,1Z" />
    </g>
    <g id="mdi-bus-double-decker" transform="translate(504 216) scale(1.5)" fill="#555">
      <path d="M3,4C1.89,4 1,4.89 1,6V17H3A3,3 0 0,0 6,20A3,3 0 0,0 9,17H15A3,3 0 0,0 18,20A3,3 0 0,0 21,17H23V14C23,12.89 22.11,12 21,12H19V9.5H23V6C23,4.89 22.11,4 21,4H3M2.5,5.5H6.5V8H2.5V5.5M8,5.5H12V8H8V5.5M13.5,5.5H17.5V8H13.5V5.5M19,5.5H21.5V8H19V5.5M13.5,9.5H17.5V12H13.5V9.5M2.5,9.5H6.5V12H2.5V9.5M8,9.5H12V12H8V9.5M6,15.5A1.5,1.5 0 0,1 7.5,17A1.5,1.5 0 0,1 6,18.5A1.5,1.5 0 0,1 4.5,17A1.5,1.5 0 0,1 6,15.5M18,15.5A1.5,1.5 0 0,1 19.5,17A1.5,1.5 0 0,1 18,18.5A1.5,1.5 0 0,1 16.5,17A1.5,1.5 0 0,1 18,15.5Z" />
    </g>
    <g id="mdi-bus-double-decker" transform="translate(540 216) scale(1.5)" fill="#fff">
      <path d="M3,4C1.89,4 1,4.89 1,6V17H3A3,3 0 0,0 6,20A3,3 0 0,0 9,17H15A3,3 0 0,0 18,20A3,3 0 0,0 21,17H23V14C23,12.89 22.11,12 21,12H19V9.5H23V6C23,4.89 22.11,4 21,4H3M2.5,5.5H6.5V8H2.5V5.5M8,5.5H12V8H8V5.5M13.5,5.5H17.5V8H13.5V5.5M19,5.5H21.5V8H19V5.5M13.5,9.5H17.5V12H13.5V9.5M2.5,9.5H6.5V12H2.5V9.5M8,9.5H12V12H8V9.5M6,15.5A1.5,1.5 0 0,1 7.5,17A1.5,1.5 0 0,1 6,18.5A1.5,1.5 0 0,1 4.5,17A1.5,1.5 0 0,1 6,15.5M18,15.5A1.5,1.5 0 0,1 19.5,17A1.5,1.5 0 0,1 18,18.5A1.5,1.5 0 0,1 16.5,17A1.5,1.5 0 0,1 18,15.5Z" />
    </g>
    <g id="mdi-bus-marker" transform="translate(576 216) scale(1.5)" fill="#555">
      <path d="M12 2C7.58 2 4 2.5 4 6V16A3 3 0 0 0 5 18.22V20A1 1 0 0 0 6 21H7A1 1 0 0 0 8 20V19H14A8 8 0 0 1 13 15.5A5.55 5.55 0 0 1 15.38 11H6V6H18V10A4.07 4.07 0 0 1 18.5 10A5.34 5.34 0 0 1 20 10.22V6C20 2.5 16.42 2 12 2M7.5 14A1.5 1.5 0 1 1 6 15.5A1.5 1.5 0 0 1 7.5 14M18.5 12A3.54 3.54 0 0 0 15 15.5C15 18.1 18.5 22 18.5 22S22 18.1 22 15.5A3.54 3.54 0 0 0 18.5 12M18.5 16.8A1.2 1.2 0 1 1 18.5 14.4A1.29 1.29 0 0 1 19.7 15.6A1.15 1.15 0 0 1 18.5 16.8Z" />
    </g>
    <g id="mdi-bus-marker" transform="translate(612 216) scale(1.5)" fill="#fff">
      <path d="M12 2C7.58 2 4 2.5 4 6V16A3 3 0 0 0 5 18.22V20A1 1 0 0 0 6 21H7A1 1 0 0 0 8 20V19H14A8 8 0 0 1 13 15.5A5.55 5.55 0 0 1 15.38 11H6V6H18V10A4.07 4.07 0 0 1 18.5 10A5.34 5.34 0 0 1 20 10.22V6C20 2.5 16.42 2 12 2M7.5 14A1.5 1.5 0 1 1 6 15.5A1.5 1.5 0 0 1 7.5 14M18.5 12A3.54 3.54 0 0 0 15 15.5C15 18.1 18.5 22 18.5 22S22 18.1 22 15.5A3.54 3.54 0 0 0 18.5 12M18.5 16.8A1.2 1.2 0 1 1 18.5 14.4A1.29 1.29 0 0 1 19.7 15.6A1.15 1.15 0 0 1 18.5 16.8Z" />
    </g>
    <g id="mdi-bus-multiple" transform="translate(648 216) scale(1.5)" fill="#555">
      <path d="M10 5C5.58 5 2 5.5 2 9V19C2 19.85 2.37 20.66 3 21.22V23C3 23.55 3.45 24 4 24H5C5.55 24 6 23.55 6 23V22H14V23C14 23.55 14.45 24 15 24H16C16.55 24 17 23.55 17 23V21.22C17.63 20.66 18 19.85 18 19V9C18 5.5 14.42 5 10 5M5.5 20C4.67 20 4 19.33 4 18.5S4.67 17 5.5 17 7 17.67 7 18.5 6.33 20 5.5 20M14.5 20C13.67 20 13 19.33 13 18.5S13.67 17 14.5 17 16 17.67 16 18.5 15.33 20 14.5 20M16 14H4V9H16V14M22 5V15C22 15.85 21.63 16.66 21 17.22V19C21 19.55 20.55 20 20 20H19.88C19.95 19.68 20 19.35 20 19V9C20 3 13 3 10 3C9.09 3 7.8 3 6.46 3.17C7.55 1.32 10.5 1 14 1C18.42 1 22 1.5 22 5Z" />
    </g>
    <g id="mdi-bus-multiple" transform="translate(684 216) scale(1.5)" fill="#fff">
      <path d="M10 5C5.58 5 2 5.5 2 9V19C2 19.85 2.37 20.66 3 21.22V23C3 23.55 3.45 24 4 24H5C5.55 24 6 23.55 6 23V22H14V23C14 23.55 14.45 24 15 24H16C16.55 24 17 23.55 17 23V21.22C17.63 20.66 18 19.85 18 19V9C18 5.5 14.42 5 10 5M5.5 20C4.67 20 4 19.33 4 18.5S4.67 17 5.5 17 7 17.67 7 18.5 6.33 20 5.5 20M14.5 20C13.67 20 13 19.33 13 18.5S13.67 17 14.5 17 16 17.67 16 18.5 15.33 20 14.5 20M16 14H4V9H16V14M22 5V15C22 15.85 21.63 16.66 21 17.22V19C21 19.55 20.55 20 20 20H19.88C19.95 19.68 20 19.35 20 19V9C20 3 13 3 10 3C9.09 3 7.8 3 6.46 3.17C7.55 1.32 10.5 1 14 1C18.42 1 22 1.5 22 5Z" />
    </g>
    <g id="mdi-bus-school" transform="translate(0 252) scale(1.5)" fill="#555">
      <path d="M3,6C1.89,6 1,6.89 1,8V15H3A3,3 0 0,0 6,18A3,3 0 0,0 9,15H15A3,3 0 0,0 18,18A3,3 0 0,0 21,15H23V12C23,10.89 22.11,10 21,10H19V8C19,6.89 18.11,6 17,6H3M13.5,7.5H17.5V10H13.5V7.5M2.5,7.5H6.5V10H2.5V7.5M8,7.5H12V10H8V7.5M6,13.5A1.5,1.5 0 0,1 7.5,15A1.5,1.5 0 0,1 6,16.5A1.5,1.5 0 0,1 4.5,15A1.5,1.5 0 0,1 6,13.5M18,13.5A1.5,1.5 0 0,1 19.5,15A1.5,1.5 0 0,1 18,16.5A1.5,1.5 0 0,1 16.5,15A1.5,1.5 0 0,1 18,13.5Z" />
    </g>
    <g id="mdi-bus-school" transform="translate(36 252) scale(1.5)" fill="#fff">
      <path d="M3,6C1.89,6 1,6.89 1,8V15H3A3,3 0 0,0 6,18A3,3 0 0,0 9,15H15A3,3 0 0,0 18,18A3,3 0 0,0 21,15H23V12C23,10.89 22.11,10 21,10H19V8C19,6.89 18.11,6 17,6H3M13.5,7.5H17.5V10H13.5V7.5M2.5,7.5H6.5V10H2.5V7.5M8,7.5H12V10H8V7.5M6,13.5A1.5,1.5 0 0,1 7.5,15A1.5,1.5 0 0,1 6,16.5A1.5,1.5 0 0,1 4.5,15A1.5,1.5 0 0,1 6,13.5M18,13.5A1.5,1.5 0 0,1 19.5,15A1.5,1.5 0 0,1 18,16.5A1.5,1.5 0 0,1 16.5,15A1.5,1.5 0 0,1 18,13.5Z" />
    </g>
    <g id="mdi-bus-side" transform="translate(72 252) scale(1.5)" fill="#555">
      <path d="M3,6C1.89,6 1,6.89 1,8V15H3A3,3 0 0,0 6,18A3,3 0 0,0 9,15H15A3,3 0 0,0 18,18A3,3 0 0,0 21,15H23V8C23,6.89 22.11,6 21,6H3M2.5,7.5H6.5V10H2.5V7.5M8,7.5H12V10H8V7.5M13.5,7.5H17.5V10H13.5V7.5M19,7.5H21.5V13L19,11V7.5M6,13.5A1.5,1.5 0 0,1 7.5,15A1.5,1.5 0 0,1 6,16.5A1.5,1.5 0 0,1 4.5,15A1.5,1.5 0 0,1 6,13.5M18,13.5A1.5,1.5 0 0,1 19.5,15A1.5,1.5 0 0,1 18,16.5A1.5,1.5 0 0,1 16.5,15A1.5,1.5 0 0,1 18,13.5Z" />
    </g>
    <g id="mdi-bus-side" transform="translate(108 252) scale(1.5)" fill="#fff">
      <path d="M3,6C1.89,6 1,6.89 1,8V15H3A3,3 0 0,0 6,18A3,3 0 0,0 9,15H15A3,3 0 0,0 18,18A3,3 0 0,0 21,15H23V8C23,6.89 22.11,6 21,6H3M2.5,7.5H6.5V10H2.5V7.5M8,7.5H12V10H8V7.5M13.5,7.5H17.5V10H13.5V7.5M19,7.5H21.5V13L19,11V7.5M6,13.5A1.5,1.5 0 0,1 7.5,15A1.5,1.5 0 0,1 6,16.5A1.5,1.5 0 0,1 4.5,15A1.5,1.5 0 0,1 6,13.5M18,13.5A1.5,1.5 0 0,1 19.5,15A1.5,1.5 0 0,1 18,16.5A1.5,1.5 0 0,1 16.5,15A1.5,1.5 0 0,1 18,13.5Z" />
    </g>
    <g id="mdi-bus-stop" transform="translate(144 252) scale(1.5)" fill="#555">
      <path d="M22 7V16C22 16.71 21.62 17.36 21 17.72V19.25C21 19.66 20.66 20 20.25 20H19.75C19.34 20 19 19.66 19 19.25V18H12V19.25C12 19.66 11.66 20 11.25 20H10.75C10.34 20 10 19.66 10 19.25V17.72C9.39 17.36 9 16.71 9 16V7C9 4 12 4 15.5 4S22 4 22 7M13 15C13 14.45 12.55 14 12 14S11 14.45 11 15 11.45 16 12 16 13 15.55 13 15M20 15C20 14.45 19.55 14 19 14S18 14.45 18 15 18.45 16 19 16 20 15.55 20 15M20 7H11V11H20V7M7 9.5C6.97 8.12 5.83 7 4.45 7.05C3.07 7.08 1.97 8.22 2 9.6C2.03 10.77 2.86 11.77 4 12V20H5V12C6.18 11.76 7 10.71 7 9.5Z" />
    </g>
    <g id="mdi-bus-stop" transform="translate(180 252) scale(1.5)" fill="#fff">
      <path d="M22 7V16C22 16.71 21.62 17.36 21 17.72V19.25C21 19.66 20.66 20 20.25 20H19.75C19.34 20 19 19.66 19 19.25V18H12V19.25C12 19.66 11.66 20 11.25 20H10.75C10.34 20 10 19.66 10 19.25V17.72C9.39 17.36 9 16.71 9 16V7C9 4 12 4 15.5 4S22 4 22 7M13 15C13 14.45 12.55 14 12 14S11 14.45 11 15 11.45 16 12 16 13 15.55 13 15M20 15C20 14.45 19.55 14 19 14S18 14.45 18 15 18.45 16 19 16 20 15.55 20 15M20 7H11V11H20V7M7 9.5C6.97 8.12 5.83 7 4.45 7.05C3.07 7.08 1.97 8.22 2 9.6C2.03 10.77 2.86 11.77 4 12V20H5V12C6.18 11.76 7 10.71 7 9.5Z" />
    </g>
    <g id="mdi-bus-stop-covered" transform="translate(216 252) scale(1.5)" fill="#555">
      <path d="M20 3H7V2H6A1.78 1.78 0 0 0 4.59 3H2V5H3.73C2 10.58 2 22 2 22H7V5H20M22 8.5A2.5 2.5 0 1 0 19 11V22H20V11A2.5 2.5 0 0 0 22 8.5M15 11.5V16H14V22H12.5V17H11.5V22H10V16H9V11.5A1.5 1.5 0 0 1 10.5 10H13.5A1.5 1.5 0 0 1 15 11.5M12 6.5A1.5 1.5 0 1 0 13.5 8A1.5 1.5 0 0 0 12 6.5Z" />
    </g>
    <g id="mdi-bus-stop-covered" transform="translate(252 252) scale(1.5)" fill="#fff">
      <path d="M20 3H7V2H6A1.78 1.78 0 0 0 4.59 3H2V5H3.73C2 10.58 2 22 2 22H7V5H20M22 8.5A2.5 2.5 0 1 0 19 11V22H20V11A2.5 2.5 0 0 0 22 8.5M15 11.5V16H14V22H12.5V17H11.5V22H10V16H9V11.5A1.5 1.5 0 0 1 10.5 10H13.5A1.5 1.5 0 0 1 15 11.5M12 6.5A1.5 1.5 0 1 0 13.5 8A1.5 1.5 0 0 0 12 6.5Z" />
    </g>
    <g id="mdi-bus-stop-uncovered" transform="translate(288 252) scale(1.5)" fill="#555">
      <path d="M6 22V19H4V22H2V14A1 1 0 0 1 3 13A1 1 0 0 1 4 14V17H7A1 1 0 0 1 8 18V22M20 11V22H19V11A2.5 2.5 0 1 1 20 11M15 11.55V16H14V22H12.5V17H11.5V22H10V16H9V11.5A1.5 1.5 0 0 1 10.5 10H13.5A1.5 1.5 0 0 1 15 11.5M12 6.55A1.5 1.5 0 1 0 13.5 8A1.5 1.5 0 0 0 12 6.5Z" />
    </g>
    <g id="mdi-bus-stop-uncovered" transform="translate(324 252) scale(1.5)" fill="#fff">
      <path d="M6 22V19H4V22H2V14A1 1 0 0 1 3 13A1 1 0 0 1 4 14V17H7A1 1 0 0 1 8 18V22M20 11V22H19V11A2.5 2.5 0 1 1 20 11M15 11.55V16H14V22H12.5V17H11.5V22H10V16H9V11.5A1.5 1.5 0 0 1 10.5 10H13.5A1.5 1.5 0 0 1 15 11.5M12 6.55A1.5 1.5 0 1 0 13.5 8A1.5 1.5 0 0 0 12 6.5Z" />
    </g>
    <g id="mdi-cable-data" transform="translate(360 252) scale(1.5)" fill="#555">
      <path d="M7.05 3.5C5.68 4.88 5.68 7.1 7.05 8.47L15.54 16.95C16.12 17.54 16.12 18.5 15.54 19.07C14.95 19.66 14 19.66 13.41 19.07L9.17 14.83L10.23 13.77L6.7 10.23L6.34 10.59L4.93 9.17C4.54 8.78 3.91 8.78 3.5 9.17L2.1 10.59C1.71 11 1.71 11.61 2.1 12L3.5 13.41L3.16 13.77L6.7 17.3L7.76 16.24L12 20.5C13.37 21.85 15.58 21.85 16.95 20.5C18.32 19.12 18.32 16.9 16.95 15.54L8.46 7.05C7.88 6.46 7.88 5.5 8.46 4.93C9.05 4.34 10 4.34 10.59 4.93L14.83 9.17L13.77 10.23L17.3 13.77L17.66 13.41L19.07 14.83C19.46 15.22 20.1 15.22 20.5 14.83L21.9 13.41C22.29 13 22.29 12.39 21.9 12L20.5 10.59L20.84 10.23L17.3 6.7L16.24 7.76L12 3.5C10.63 2.15 8.42 2.15 7.05 3.5M2.81 11.29L4.22 9.88L5.64 11.29L4.22 12.71M18.36 12.71L19.78 11.29L21.19 12.71L19.78 14.12Z" />
    </g>
    <g id="mdi-cable-data" transform="translate(396 252) scale(1.5)" fill="#fff">
      <path d="M7.05 3.5C5.68 4.88 5.68 7.1 7.05 8.47L15.54 16.95C16.12 17.54 16.12 18.5 15.54 19.07C14.95 19.66 14 19.66 13.41 19.07L9.17 14.83L10.23 13.77L6.7 10.23L6.34 10.59L4.93 9.17C4.54 8.78 3.91 8.78 3.5 9.17L2.1 10.59C1.71 11 1.71 11.61 2.1 12L3.5 13.41L3.16 13.77L6.7 17.3L7.76 16.24L12 20.5C13.37 21.85 15.58 21.85 16.95 20.5C18.32 19.12 18.32 16.9 16.95 15.54L8.46 7.05C7.88 6.46 7.88 5.5 8.46 4.93C9.05 4.34 10 4.34 10.59 4.93L14.83 9.17L13.77 10.23L17.3 13.77L17.66 13.41L19.07 14.83C19.46 15.22 20.1 15.22 20.5 14.83L21.9 13.41C22.29 13 22.29 12.39 21.9 12L20.5 10.59L20.84 10.23L17.3 6.7L16.24 7.76L12 3.5C10.63 2.15 8.42 2.15 7.05 3.5M2.81 11.29L4.22 9.88L5.64 11.29L4.22 12.71M18.36 12.71L19.78 11.29L21.19 12.71L19.78 14.12Z" />
    </g>
    <g id="mdi-cached" transform="translate(432 252) scale(1.5)" fill="#555">
      <path d="M19,8L15,12H18A6,6 0 0,1 12,18C11,18 10.03,17.75 9.2,17.3L7.74,18.76C8.97,19.54 10.43,20 12,20A8,8 0 0,0 20,12H23M6,12A6,6 0 0,1 12,6C13,6 13.97,6.25 14.8,6.7L16.26,5.24C15.03,4.46 13.57,4 12,4A8,8 0 0,0 4,12H1L5,16L9,12" />
    </g>
    <g id="mdi-cached" transform="translate(468 252) scale(1.5)" fill="#fff">
      <path d="M19,8L15,12H18A6,6 0 0,1 12,18C11,18 10.03,17.75 9.2,17.3L7.74,18.76C8.97,19.54 10.43,20 12,20A8,8 0 0,0 20,12H23M6,12A6,6 0 0,1 12,6C13,6 13.97,6.25 14.8,6.7L16.26,5.24C15.03,4.46 13.57,4 12,4A8,8 0 0,0 4,12H1L5,16L9,12" />
    </g>
    <g id="mdi-cactus" transform="translate(504 252) scale(1.5)" fill="#555">
      <path d="M14,16V21H10V18H9A3,3 0 0,1 6,15V12A1,1 0 0,1 7,11A1,1 0 0,1 8,12V15C8,15.56 8.45,16 9,16H10V6A2,2 0 0,1 12,4A2,2 0 0,1 14,6V14H15A1,1 0 0,0 16,13V11A1,1 0 0,1 17,10A1,1 0 0,1 18,11V13A3,3 0 0,1 15,16H14Z" />
    </g>
    <g id="mdi-cactus" transform="translate(540 252) scale(1.5)" fill="#fff">
      <path d="M14,16V21H10V18H9A3,3 0 0,1 6,15V12A1,1 0 0,1 7,11A1,1 0 0,1 8,12V15C8,15.56 8.45,16 9,16H10V6A2,2 0 0,1 12,4A2,2 0 0,1 14,6V14H15A1,1 0 0,0 16,13V11A1,1 0 0,1 17,10A1,1 0 0,1 18,11V13A3,3 0 0,1 15,16H14Z" />
    </g>
    <g id="mdi-cake" transform="translate(576 252) scale(1.5)" fill="#555">
      <path d="M11.5,0.5C12,0.75 13,2.4 13,3.5C13,4.6 12.33,5 11.5,5C10.67,5 10,4.85 10,3.75C10,2.65 11,2 11.5,0.5M18.5,9C21,9 23,11 23,13.5C23,15.06 22.21,16.43 21,17.24V23H12L3,23V17.24C1.79,16.43 1,15.06 1,13.5C1,11 3,9 5.5,9H10V6H13V9H18.5M12,16A2.5,2.5 0 0,0 14.5,13.5H16A2.5,2.5 0 0,0 18.5,16A2.5,2.5 0 0,0 21,13.5A2.5,2.5 0 0,0 18.5,11H5.5A2.5,2.5 0 0,0 3,13.5A2.5,2.5 0 0,0 5.5,16A2.5,2.5 0 0,0 8,13.5H9.5A2.5,2.5 0 0,0 12,16Z" />
    </g>
    <g id="mdi-cake" transform="translate(612 252) scale(1.5)" fill="#fff">
      <path d="M11.5,0.5C12,0.75 13,2.4 13,3.5C13,4.6 12.33,5 11.5,5C10.67,5 10,4.85 10,3.75C10,2.65 11,2 11.5,0.5M18.5,9C21,9 23,11 23,13.5C23,15.06 22.21,16.43 21,17.24V23H12L3,23V17.24C1.79,16.43 1,15.06 1,13.5C1,11 3,9 5.5,9H10V6H13V9H18.5M12,16A2.5,2.5 0 0,0 14.5,13.5H16A2.5,2.5 0 0,0 18.5,16A2.5,2.5 0 0,0 21,13.5A2.5,2.5 0 0,0 18.5,11H5.5A2.5,2.5 0 0,0 3,13.5A2.5,2.5 0 0,0 5.5,16A2.5,2.5 0 0,0 8,13.5H9.5A2.5,2.5 0 0,0 12,16Z" />
    </g>
    <g id="mdi-cake-layered" transform="translate(648 252) scale(1.5)" fill="#555">
      <path d="M21,21V17C21,15.89 20.1,15 19,15H18V12C18,10.89 17.1,10 16,10H13V8H11V10H8C6.89,10 6,10.89 6,12V15H5C3.89,15 3,15.89 3,17V21H1V23H23V21M12,7A2,2 0 0,0 14,5C14,4.62 13.9,4.27 13.71,3.97L12,1L10.28,3.97C10.1,4.27 10,4.62 10,5A2,2 0 0,0 12,7Z" />
    </g>
    <g id="mdi-cake-layered" transform="translate(684 252) scale(1.5)" fill="#fff">
      <path d="M21,21V17C21,15.89 20.1,15 19,15H18V12C18,10.89 17.1,10 16,10H13V8H11V10H8C6.89,10 6,10.89 6,12V15H5C3.89,15 3,15.89 3,17V21H1V23H23V21M12,7A2,2 0 0,0 14,5C14,4.62 13.9,4.27 13.71,3.97L12,1L10.28,3.97C10.1,4.27 10,4.62 10,5A2,2 0 0,0 12,7Z" />
    </g>
    <g id="mdi-cake-variant" transform="translate(0 288) scale(1.5)" fill="#555">
      <path d="M12,6C13.11,6 14,5.1 14,4C14,3.62 13.9,3.27 13.71,2.97L12,0L10.29,2.97C10.1,3.27 10,3.62 10,4A2,2 0 0,0 12,6M16.6,16L15.53,14.92L14.45,16C13.15,17.29 10.87,17.3 9.56,16L8.5,14.92L7.4,16C6.75,16.64 5.88,17 4.96,17C4.23,17 3.56,16.77 3,16.39V21A1,1 0 0,0 4,22H20A1,1 0 0,0 21,21V16.39C20.44,16.77 19.77,17 19.04,17C18.12,17 17.25,16.64 16.6,16M18,9H13V7H11V9H6A3,3 0 0,0 3,12V13.54C3,14.62 3.88,15.5 4.96,15.5C5.5,15.5 6,15.3 6.34,14.93L8.5,12.8L10.61,14.93C11.35,15.67 12.64,15.67 13.38,14.93L15.5,12.8L17.65,14.93C18,15.3 18.5,15.5 19.03,15.5C20.11,15.5 21,14.62 21,13.54V12A3,3 0 0,0 18,9Z" />
    </g>
    <g id="mdi-cake-variant" transform="translate(36 288) scale(1.5)" fill="#fff">
      <path d="M12,6C13.11,6 14,5.1 14,4C14,3.62 13.9,3.27 13.71,2.97L12,0L10.29,2.97C10.1,3.27 10,3.62 10,4A2,2 0 0,0 12,6M16.6,16L15.53,14.92L14.45,16C13.15,17.29 10.87,17.3 9.56,16L8.5,14.92L7.4,16C6.75,16.64 5.88,17 4.96,17C4.23,17 3.56,16.77 3,16.39V21A1,1 0 0,0 4,22H20A1,1 0 0,0 21,21V16.39C20.44,16.77 19.77,17 19.04,17C18.12,17 17.25,16.64 16.6,16M18,9H13V7H11V9H6A3,3 0 0,0 3,12V13.54C3,14.62 3.88,15.5 4.96,15.5C5.5,15.5 6,15.3 6.34,14.93L8.5,12.8L10.61,14.93C11.35,15.67 12.64,15.67 13.38,14.93L15.5,12.8L17.65,14.93C18,15.3 18.5,15.5 19.03,15.5C20.11,15.5 21,14.62 21,13.54V12A3,3 0 0,0 18,9Z" />
    </g>
    <g id="mdi-calculator" transform="translate(72 288) scale(1.5)" fill="#555">
      <path d="M7,2H17A2,2 0 0,1 19,4V20A2,2 0 0,1 17,22H7A2,2 0 0,1 5,20V4A2,2 0 0,1 7,2M7,4V8H17V4H7M7,10V12H9V10H7M11,10V12H13V10H11M15,10V12H17V10H15M7,14V16H9V14H7M11,14V16H13V14H11M15,14V16H17V14H15M7,18V20H9V18H7M11,18V20H13V18H11M15,18V20H17V18H15Z" />
    </g>
    <g id="mdi-calculator" transform="translate(108 288) scale(1.5)" fill="#fff">
      <path d="M7,2H17A2,2 0 0,1 19,4V20A2,2 0 0,1 17,22H7A2,2 0 0,1 5,20V4A2,2 0 0,1 7,2M7,4V8H17V4H7M7,10V12H9V10H7M11,10V12H13V10H11M15,10V12H17V10H15M7,14V16H9V14H7M11,14V16H13V14H11M15,14V16H17V14H15M7,18V20H9V18H7M11,18V20H13V18H11M15,18V20H17V18H15Z" />
    </g>
    <g id="mdi-calculator-variant" transform="translate(144 288) scale(1.5)" fill="#555">
      <path d="M9,2H4A2,2 0 0,0 2,4V9A2,2 0 0,0 4,11H9A2,2 0 0,0 11,9V4A2,2 0 0,0 9,2M9,7H4V6H9V7M20,13H15A2,2 0 0,0 13,15V20A2,2 0 0,0 15,22H20A2,2 0 0,0 22,20V15A2,2 0 0,0 20,13M20,19H15V18H20V19M20,17H15V16H20V17M20,2H15A2,2 0 0,0 13,4V9A2,2 0 0,0 15,11H20A2,2 0 0,0 22,9V4A2,2 0 0,0 20,2M20,7H18V9H17V7H15V6H17V4H18V6H20V7M9,13H4A2,2 0 0,0 2,15V20A2,2 0 0,0 4,22H9A2,2 0 0,0 11,20V15A2,2 0 0,0 9,13M8.62,18.91L7.91,19.62L6.5,18.21L5.09,19.62L4.38,18.91L5.79,17.5L4.38,16.09L5.09,15.38L6.5,16.79L7.91,15.38L8.62,16.09L7.21,17.5L8.62,18.91Z" />
    </g>
    <g id="mdi-calculator-variant" transform="translate(180 288) scale(1.5)" fill="#fff">
      <path d="M9,2H4A2,2 0 0,0 2,4V9A2,2 0 0,0 4,11H9A2,2 0 0,0 11,9V4A2,2 0 0,0 9,2M9,7H4V6H9V7M20,13H15A2,2 0 0,0 13,15V20A2,2 0 0,0 15,22H20A2,2 0 0,0 22,20V15A2,2 0 0,0 20,13M20,19H15V18H20V19M20,17H15V16H20V17M20,2H15A2,2 0 0,0 13,4V9A2,2 0 0,0 15,11H20A2,2 0 0,0 22,9V4A2,2 0 0,0 20,2M20,7H18V9H17V7H15V6H17V4H18V6H20V7M9,13H4A2,2 0 0,0 2,15V20A2,2 0 0,0 4,22H9A2,2 0 0,0 11,20V15A2,2 0 0,0 9,13M8.62,18.91L7.91,19.62L6.5,18.21L5.09,19.62L4.38,18.91L5.79,17.5L4.38,16.09L5.09,15.38L6.5,16.79L7.91,15.38L8.62,16.09L7.21,17.5L8.62,18.91Z" />
    </g>
    <g id="mdi-calendar" transform="translate(216 288) scale(1.5)" fill="#555">
      <path d="M19,19H5V8H19M16,1V3H8V1H6V3H5C3.89,3 3,3.89 3,5V19A2,2 0 0,0 5,21H19A2,2 0 0,0 21,19V5C21,3.89 20.1,3 19,3H18V1M17,12H12V17H17V12Z" />
    </g>
    <g id="mdi-calendar" transform="translate(252 288) scale(1.5)" fill="#fff">
      <path d="M19,19H5V8H19M16,1V3H8V1H6V3H5C3.89,3 3,3.89 3,5V19A2,2 0 0,0 5,21H19A2,2 0 0,0 21,19V5C21,3.89 20.1,3 19,3H18V1M17,12H12V17H17V12Z" />
    </g>
    <g id="mdi-calendar-account" transform="translate(288 288) scale(1.5)" fill="#555">
      <path d="M12,10C14,10 15,12.42 13.59,13.84C12.17,15.26 9.75,14.25 9.75,12.25C9.75,11 10.75,10 12,10M16.5,19H7.5V17.88C7.5,16.63 9.5,15.63 12,15.63C14.5,15.63 16.5,16.63 16.5,17.88M19,20H5V9H19M16,2V4H8V2H6V4H5A2,2 0 0,0 3,6V20A2,2 0 0,0 5,22H19A2,2 0 0,0 21,20V6A2,2 0 0,0 19,4H18V2H16Z" />
    </g>
    <g id="mdi-calendar-account" transform="translate(324 288) scale(1.5)" fill="#fff">
      <path d="M12,10C14,10 15,12.42 13.59,13.84C12.17,15.26 9.75,14.25 9.75,12.25C9.75,11 10.75,10 12,10M16.5,19H7.5V17.88C7.5,16.63 9.5,15.63 12,15.63C14.5,15.63 16.5,16.63 16.5,17.88M19,20H5V9H19M16,2V4H8V2H6V4H5A2,2 0 0,0 3,6V20A2,2 0 0,0 5,22H19A2,2 0 0,0 21,20V6A2,2 0 0,0 19,4H18V2H16Z" />
    </g>
    <g id="mdi-calendar-account-outline" transform="translate(360 288) scale(1.5)" fill="#555">
      <path d="M19,4H18V2H16V4H8V2H6V4H5A2,2 0 0,0 3,6V20A2,2 0 0,0 5,22H19A2,2 0 0,0 21,20V6A2,2 0 0,0 19,4M19,20H5V10H19V20M19,8H5V6H19M12,11C14,11 15,13.42 13.59,14.84C12.17,16.26 9.75,15.25 9.75,13.25C9.75,12 10.75,11 12,11M16.5,18.88V19H7.5V18.88C7.5,17.63 9.5,16.63 12,16.63C14.5,16.63 16.5,17.63 16.5,18.88Z" />
    </g>
    <g id="mdi-calendar-account-outline" transform="translate(396 288) scale(1.5)" fill="#fff">
      <path d="M19,4H18V2H16V4H8V2H6V4H5A2,2 0 0,0 3,6V20A2,2 0 0,0 5,22H19A2,2 0 0,0 21,20V6A2,2 0 0,0 19,4M19,20H5V10H19V20M19,8H5V6H19M12,11C14,11 15,13.42 13.59,14.84C12.17,16.26 9.75,15.25 9.75,13.25C9.75,12 10.75,11 12,11M16.5,18.88V19H7.5V18.88C7.5,17.63 9.5,16.63 12,16.63C14.5,16.63 16.5,17.63 16.5,18.88Z" />
    </g>
    <g id="mdi-calendar-alert" transform="translate(432 288) scale(1.5)" fill="#555">
      <path d="M6 1V3H5C3.89 3 3 3.89 3 5V19C3 20.11 3.9 21 5 21H19C20.11 21 21 20.11 21 19V5C21 3.9 20.11 3 19 3H18V1H16V3H8V1H6M5 8H19V19H5V7M11 9V14H13V9H11M11 16V18H13V16H11Z" />
    </g>
    <g id="mdi-calendar-alert" transform="translate(468 288) scale(1.5)" fill="#fff">
      <path d="M6 1V3H5C3.89 3 3 3.89 3 5V19C3 20.11 3.9 21 5 21H19C20.11 21 21 20.11 21 19V5C21 3.9 20.11 3 19 3H18V1H16V3H8V1H6M5 8H19V19H5V7M11 9V14H13V9H11M11 16V18H13V16H11Z" />
    </g>
    <g id="mdi-calendar-arrow-left" transform="translate(504 288) scale(1.5)" fill="#555">
      <path d="M19 3H18V1H16V3H8V1H6V3H5C3.89 3 3 3.89 3 5V19C3 20.1 3.89 21 5 21H19C20.1 21 21 20.1 21 19V5C21 3.89 20.1 3 19 3M19 19H5V8H19V19M12 10V12H16V15H12V17L8 13.5L12 10Z" />
    </g>
    <g id="mdi-calendar-arrow-left" transform="translate(540 288) scale(1.5)" fill="#fff">
      <path d="M19 3H18V1H16V3H8V1H6V3H5C3.89 3 3 3.89 3 5V19C3 20.1 3.89 21 5 21H19C20.1 21 21 20.1 21 19V5C21 3.89 20.1 3 19 3M19 19H5V8H19V19M12 10V12H16V15H12V17L8 13.5L12 10Z" />
    </g>
    <g id="mdi-calendar-arrow-right" transform="translate(576 288) scale(1.5)" fill="#555">
      <path d="M19 3H18V1H16V3H8V1H6V3H5C3.89 3 3 3.89 3 5V19C3 20.1 3.89 21 5 21H19C20.1 21 21 20.1 21 19V5C21 3.89 20.1 3 19 3M19 19H5V8H19V19M12 17V15H8V12H12V10L16 13.5L12 17Z" />
    </g>
    <g id="mdi-calendar-arrow-right" transform="translate(612 288) scale(1.5)" fill="#fff">
      <path d="M19 3H18V1H16V3H8V1H6V3H5C3.89 3 3 3.89 3 5V19C3 20.1 3.89 21 5 21H19C20.1 21 21 20.1 21 19V5C21 3.89 20.1 3 19 3M19 19H5V8H19V19M12 17V15H8V12H12V10L16 13.5L12 17Z" />
    </g>
    <g id="mdi-calendar-blank" transform="translate(648 288) scale(1.5)" fill="#555">
      <path d="M19,19H5V8H19M16,1V3H8V1H6V3H5C3.89,3 3,3.89 3,5V19A2,2 0 0,0 5,21H19A2,2 0 0,0 21,19V5C21,3.89 20.1,3 19,3H18V1" />
    </g>
    <g id="mdi-calendar-blank" transform="translate(684 288) scale(1.5)" fill="#fff">
      <path d="M19,19H5V8H19M16,1V3H8V1H6V3H5C3.89,3 3,3.89 3,5V19A2,2 0 0,0 5,21H19A2,2 0 0,0 21,19V5C21,3.89 20.1,3 19,3H18V1" />
    </g>
    <g id="mdi-calendar-blank-multiple" transform="translate(0 324) scale(1.5)" fill="#555">
      <path d="M21 17V8H7V17H21M21 3C22.1 3 23 3.9 23 5V17C23 18.1 22.1 19 21 19H7C5.89 19 5 18.1 5 17V5C5 3.9 5.9 3 7 3H8V1H10V3H18V1H20V3H21M3 21H17V23H3C1.89 23 1 22.1 1 21V9H3V21Z" />
    </g>
    <g id="mdi-calendar-blank-multiple" transform="translate(36 324) scale(1.5)" fill="#fff">
      <path d="M21 17V8H7V17H21M21 3C22.1 3 23 3.9 23 5V17C23 18.1 22.1 19 21 19H7C5.89 19 5 18.1 5 17V5C5 3.9 5.9 3 7 3H8V1H10V3H18V1H20V3H21M3 21H17V23H3C1.89 23 1 22.1 1 21V9H3V21Z" />
    </g>
    <g id="mdi-calendar-blank-outline" transform="translate(72 324) scale(1.5)" fill="#555">
      <path d="M19,4H18V2H16V4H8V2H6V4H5C3.89,4 3,4.9 3,6V20A2,2 0 0,0 5,22H19A2,2 0 0,0 21,20V6A2,2 0 0,0 19,4M19,20H5V10H19V20M19,8H5V6H19V8Z" />
    </g>
    <g id="mdi-calendar-blank-outline" transform="translate(108 324) scale(1.5)" fill="#fff">
      <path d="M19,4H18V2H16V4H8V2H6V4H5C3.89,4 3,4.9 3,6V20A2,2 0 0,0 5,22H19A2,2 0 0,0 21,20V6A2,2 0 0,0 19,4M19,20H5V10H19V20M19,8H5V6H19V8Z" />
    </g>
    <g id="mdi-calendar-check" transform="translate(144 324) scale(1.5)" fill="#555">
      <path d="M19,19H5V8H19M19,3H18V1H16V3H8V1H6V3H5C3.89,3 3,3.9 3,5V19A2,2 0 0,0 5,21H19A2,2 0 0,0 21,19V5A2,2 0 0,0 19,3M16.53,11.06L15.47,10L10.59,14.88L8.47,12.76L7.41,13.82L10.59,17L16.53,11.06Z" />
    </g>
    <g id="mdi-calendar-check" transform="translate(180 324) scale(1.5)" fill="#fff">
      <path d="M19,19H5V8H19M19,3H18V1H16V3H8V1H6V3H5C3.89,3 3,3.9 3,5V19A2,2 0 0,0 5,21H19A2,2 0 0,0 21,19V5A2,2 0 0,0 19,3M16.53,11.06L15.47,10L10.59,14.88L8.47,12.76L7.41,13.82L10.59,17L16.53,11.06Z" />
    </g>
    <g id="mdi-calendar-check-outline" transform="translate(216 324) scale(1.5)" fill="#555">
      <path d="M19,4H18V2H16V4H8V2H6V4H5A2,2 0 0,0 3,6V20A2,2 0 0,0 5,22H19A2,2 0 0,0 21,20V6A2,2 0 0,0 19,4M19,20H5V10H19V20M5,8V6H19V8H5M10.56,18.46L16.5,12.53L15.43,11.47L10.56,16.34L8.45,14.23L7.39,15.29L10.56,18.46Z" />
    </g>
    <g id="mdi-calendar-check-outline" transform="translate(252 324) scale(1.5)" fill="#fff">
      <path d="M19,4H18V2H16V4H8V2H6V4H5A2,2 0 0,0 3,6V20A2,2 0 0,0 5,22H19A2,2 0 0,0 21,20V6A2,2 0 0,0 19,4M19,20H5V10H19V20M5,8V6H19V8H5M10.56,18.46L16.5,12.53L15.43,11.47L10.56,16.34L8.45,14.23L7.39,15.29L10.56,18.46Z" />
    </g>
    <g id="mdi-calendar-clock" transform="translate(288 324) scale(1.5)" fill="#555">
      <path d="M15,13H16.5V15.82L18.94,17.23L18.19,18.53L15,16.69V13M19,8H5V19H9.67C9.24,18.09 9,17.07 9,16A7,7 0 0,1 16,9C17.07,9 18.09,9.24 19,9.67V8M5,21C3.89,21 3,20.1 3,19V5C3,3.89 3.89,3 5,3H6V1H8V3H16V1H18V3H19A2,2 0 0,1 21,5V11.1C22.24,12.36 23,14.09 23,16A7,7 0 0,1 16,23C14.09,23 12.36,22.24 11.1,21H5M16,11.15A4.85,4.85 0 0,0 11.15,16C11.15,18.68 13.32,20.85 16,20.85A4.85,4.85 0 0,0 20.85,16C20.85,13.32 18.68,11.15 16,11.15Z" />
    </g>
    <g id="mdi-calendar-clock" transform="translate(324 324) scale(1.5)" fill="#fff">
      <path d="M15,13H16.5V15.82L18.94,17.23L18.19,18.53L15,16.69V13M19,8H5V19H9.67C9.24,18.09 9,17.07 9,16A7,7 0 0,1 16,9C17.07,9 18.09,9.24 19,9.67V8M5,21C3.89,21 3,20.1 3,19V5C3,3.89 3.89,3 5,3H6V1H8V3H16V1H18V3H19A2,2 0 0,1 21,5V11.1C22.24,12.36 23,14.09 23,16A7,7 0 0,1 16,23C14.09,23 12.36,22.24 11.1,21H5M16,11.15A4.85,4.85 0 0,0 11.15,16C11.15,18.68 13.32,20.85 16,20.85A4.85,4.85 0 0,0 20.85,16C20.85,13.32 18.68,11.15 16,11.15Z" />
    </g>
    <g id="mdi-calendar-edit" transform="translate(360 324) scale(1.5)" fill="#555">
      <path d="M19,3H18V1H16V3H8V1H6V3H5A2,2 0 0,0 3,5V19A2,2 0 0,0 5,21H10V19H5V8H19V9H21V5A2,2 0 0,0 19,3M21.7,13.35L20.7,14.35L18.65,12.35L19.65,11.35C19.85,11.14 20.19,11.13 20.42,11.35L21.7,12.63C21.89,12.83 21.89,13.15 21.7,13.35M12,18.94L18.07,12.88L20.12,14.88L14.06,21H12V18.94Z" />
    </g>
    <g id="mdi-calendar-edit" transform="translate(396 324) scale(1.5)" fill="#fff">
      <path d="M19,3H18V1H16V3H8V1H6V3H5A2,2 0 0,0 3,5V19A2,2 0 0,0 5,21H10V19H5V8H19V9H21V5A2,2 0 0,0 19,3M21.7,13.35L20.7,14.35L18.65,12.35L19.65,11.35C19.85,11.14 20.19,11.13 20.42,11.35L21.7,12.63C21.89,12.83 21.89,13.15 21.7,13.35M12,18.94L18.07,12.88L20.12,14.88L14.06,21H12V18.94Z" />
    </g>
    <g id="mdi-calendar-export" transform="translate(432 324) scale(1.5)" fill="#555">
      <path d="M12,22L16,18H13V12H11V18H8M19,4H18V2H16V4H8V2H6V4H5A2,2 0 0,0 3,6V20A2,2 0 0,0 5,22H8V20H5V9H19V20H16V22H19A2,2 0 0,0 21,20V6A2,2 0 0,0 19,4Z" />
    </g>
    <g id="mdi-calendar-export" transform="translate(468 324) scale(1.5)" fill="#fff">
      <path d="M12,22L16,18H13V12H11V18H8M19,4H18V2H16V4H8V2H6V4H5A2,2 0 0,0 3,6V20A2,2 0 0,0 5,22H8V20H5V9H19V20H16V22H19A2,2 0 0,0 21,20V6A2,2 0 0,0 19,4Z" />
    </g>
    <g id="mdi-calendar-heart" transform="translate(504 324) scale(1.5)" fill="#555">
      <path d="M19,20V9H5V20H19M16,2H18V4H19A2,2 0 0,1 21,6V20A2,2 0 0,1 19,22H5A2,2 0 0,1 3,20V6A2,2 0 0,1 5,4H6V2H8V4H16V2M12,18.17L11.42,17.64C9.36,15.77 8,14.54 8,13.03C8,11.8 8.97,10.83 10.2,10.83C10.9,10.83 11.56,11.15 12,11.66C12.44,11.15 13.1,10.83 13.8,10.83C15.03,10.83 16,11.8 16,13.03C16,14.54 14.64,15.77 12.58,17.64L12,18.17Z" />
    </g>
    <g id="mdi-calendar-heart" transform="translate(540 324) scale(1.5)" fill="#fff">
      <path d="M19,20V9H5V20H19M16,2H18V4H19A2,2 0 0,1 21,6V20A2,2 0 0,1 19,22H5A2,2 0 0,1 3,20V6A2,2 0 0,1 5,4H6V2H8V4H16V2M12,18.17L11.42,17.64C9.36,15.77 8,14.54 8,13.03C8,11.8 8.97,10.83 10.2,10.83C10.9,10.83 11.56,11.15 12,11.66C12.44,11.15 13.1,10.83 13.8,10.83C15.03,10.83 16,11.8 16,13.03C16,14.54 14.64,15.77 12.58,17.64L12,18.17Z" />
    </g>
    <g id="mdi-calendar-import" transform="translate(576 324) scale(1.5)" fill="#555">
      <path d="M12,12L8,16H11V22H13V16H16M19,4H18V2H16V4H8V2H6V4H5A2,2 0 0,0 3,6V20A2,2 0 0,0 5,22H9V20H5V9H19V20H15V22H19A2,2 0 0,0 21,20V6A2,2 0 0,0 19,4Z" />
    </g>
    <g id="mdi-calendar-import" transform="translate(612 324) scale(1.5)" fill="#fff">
      <path d="M12,12L8,16H11V22H13V16H16M19,4H18V2H16V4H8V2H6V4H5A2,2 0 0,0 3,6V20A2,2 0 0,0 5,22H9V20H5V9H19V20H15V22H19A2,2 0 0,0 21,20V6A2,2 0 0,0 19,4Z" />
    </g>
    <g id="mdi-calendar-minus" transform="translate(648 324) scale(1.5)" fill="#555">
      <path d="M19 19V8H5V19H19M16 1H18V3H19C20.11 3 21 3.9 21 5V19C21 20.11 20.11 21 19 21H5C3.89 21 3 20.1 3 19V5C3 3.89 3.89 3 5 3H6V1H8V3H16V1M16 12.5V14.5H8V12.5H16Z" />
    </g>
    <g id="mdi-calendar-minus" transform="translate(684 324) scale(1.5)" fill="#fff">
      <path d="M19 19V8H5V19H19M16 1H18V3H19C20.11 3 21 3.9 21 5V19C21 20.11 20.11 21 19 21H5C3.89 21 3 20.1 3 19V5C3 3.89 3.89 3 5 3H6V1H8V3H16V1M16 12.5V14.5H8V12.5H16Z" />
    </g>
  </svg>