<?xml version="1.0" encoding="UTF-8"?>
<!DOCTYPE svg PUBLIC "-//W3C//DTD SVG 1.1//EN" "http://www.w3.org/Graphics/SVG/1.1/DTD/svg11.dtd"><svg
  xmlns="http://www.w3.org/2000/svg" xmlns:xlink="http://www.w3.org/1999/xlink" version="1.1"
  width="720" height="900" viewBox="0 0 720 900">
    <g id="mdi-lightbulb" transform="translate(0 0) scale(1.5)" fill="#555">
      <path d="M12,2A7,7 0 0,0 5,9C5,11.38 6.19,13.47 8,14.74V17A1,1 0 0,0 9,18H15A1,1 0 0,0 16,17V14.74C17.81,13.47 19,11.38 19,9A7,7 0 0,0 12,2M9,21A1,1 0 0,0 10,22H14A1,1 0 0,0 15,21V20H9V21Z" />
    </g>
    <g id="mdi-lightbulb" transform="translate(36 0) scale(1.5)" fill="#fff">
      <path d="M12,2A7,7 0 0,0 5,9C5,11.38 6.19,13.47 8,14.74V17A1,1 0 0,0 9,18H15A1,1 0 0,0 16,17V14.74C17.81,13.47 19,11.38 19,9A7,7 0 0,0 12,2M9,21A1,1 0 0,0 10,22H14A1,1 0 0,0 15,21V20H9V21Z" />
    </g>
    <g id="mdi-lightbulb-cfl" transform="translate(72 0) scale(1.5)" fill="#555">
      <path d="M10.5 2C11.88 2 13 3.12 13 4.5V14H14V4.47C14 3.56 13.63 2.7 13 2.05C13.17 2 13.33 2 13.5 2C14.88 2 16 3.12 16 4.5V14H17V17C17 17.55 16.55 18 16 18H8C7.45 18 7 17.55 7 17V14H8V4.5C8 3.12 9.12 2 10.5 2M10.5 4C10.22 4 10 4.22 10 4.5V14H11V4.5C11 4.22 10.78 4 10.5 4M9 20H15V21C15 21.55 14.55 22 14 22H10C9.45 22 9 21.55 9 21V20Z" />
    </g>
    <g id="mdi-lightbulb-cfl" transform="translate(108 0) scale(1.5)" fill="#fff">
      <path d="M10.5 2C11.88 2 13 3.12 13 4.5V14H14V4.47C14 3.56 13.63 2.7 13 2.05C13.17 2 13.33 2 13.5 2C14.88 2 16 3.12 16 4.5V14H17V17C17 17.55 16.55 18 16 18H8C7.45 18 7 17.55 7 17V14H8V4.5C8 3.12 9.12 2 10.5 2M10.5 4C10.22 4 10 4.22 10 4.5V14H11V4.5C11 4.22 10.78 4 10.5 4M9 20H15V21C15 21.55 14.55 22 14 22H10C9.45 22 9 21.55 9 21V20Z" />
    </g>
    <g id="mdi-lightbulb-cfl-off" transform="translate(144 0) scale(1.5)" fill="#555">
      <path d="M14 4.47C14 3.56 13.63 2.7 13 2.05C13.17 2 13.33 2 13.5 2C14.88 2 16 3.12 16 4.5V14H17V15.18L14 12.18V4.5L14 4.47M10 4.5C10 4.22 10.22 4 10.5 4S11 4.22 11 4.5V9.18L13 11.18V4.5C13 3.12 11.88 2 10.5 2S8 3.12 8 4.5V6.18L10 8.18V4.5M9 21C9 21.55 9.45 22 10 22H14C14.55 22 15 21.55 15 21V20H9V21M20 20.72L18.73 22L14.73 18H8C7.45 18 7 17.55 7 17V14H8V11.27L2 5.27L3.28 4L20 20.72Z" />
    </g>
    <g id="mdi-lightbulb-cfl-off" transform="translate(180 0) scale(1.5)" fill="#fff">
      <path d="M14 4.47C14 3.56 13.63 2.7 13 2.05C13.17 2 13.33 2 13.5 2C14.88 2 16 3.12 16 4.5V14H17V15.18L14 12.18V4.5L14 4.47M10 4.5C10 4.22 10.22 4 10.5 4S11 4.22 11 4.5V9.18L13 11.18V4.5C13 3.12 11.88 2 10.5 2S8 3.12 8 4.5V6.18L10 8.18V4.5M9 21C9 21.55 9.45 22 10 22H14C14.55 22 15 21.55 15 21V20H9V21M20 20.72L18.73 22L14.73 18H8C7.45 18 7 17.55 7 17V14H8V11.27L2 5.27L3.28 4L20 20.72Z" />
    </g>
    <g id="mdi-lightbulb-cfl-spiral" transform="translate(216 0) scale(1.5)" fill="#555">
      <path d="M11 2C10.84 2 10.69 2.03 10.55 2.1L8.55 3.1C7.56 3.66 8 5 9 5C9.16 5 9.32 4.95 9.45 4.9L11.45 3.9C12.43 3.36 12 2 11 2M15 4C14.83 4 14.69 4.03 14.55 4.1L8.55 7.1C7.56 7.68 8 9 9 9C9.18 9 9.32 8.95 9.45 8.9L15.45 5.9C16.41 5.43 16 4 15 4M15 8C14.84 8 14.69 8.03 14.55 8.1L8.7 11.03C8.2 11.25 8 11.6 8 12V14H7V17C7 17.55 7.44 18 8 18H16C16.55 18 17 17.55 17 17V14H16V13C16 12.44 15.55 12 15 12C14.45 12 14 12.45 14 13V14H10V12.62L15.45 9.9C16.42 9.34 16 8 15 8M9 20V21C9 21.57 9.46 22 10 22H14C14.56 22 15 21.55 15 21V20" />
    </g>
    <g id="mdi-lightbulb-cfl-spiral" transform="translate(252 0) scale(1.5)" fill="#fff">
      <path d="M11 2C10.84 2 10.69 2.03 10.55 2.1L8.55 3.1C7.56 3.66 8 5 9 5C9.16 5 9.32 4.95 9.45 4.9L11.45 3.9C12.43 3.36 12 2 11 2M15 4C14.83 4 14.69 4.03 14.55 4.1L8.55 7.1C7.56 7.68 8 9 9 9C9.18 9 9.32 8.95 9.45 8.9L15.45 5.9C16.41 5.43 16 4 15 4M15 8C14.84 8 14.69 8.03 14.55 8.1L8.7 11.03C8.2 11.25 8 11.6 8 12V14H7V17C7 17.55 7.44 18 8 18H16C16.55 18 17 17.55 17 17V14H16V13C16 12.44 15.55 12 15 12C14.45 12 14 12.45 14 13V14H10V12.62L15.45 9.9C16.42 9.34 16 8 15 8M9 20V21C9 21.57 9.46 22 10 22H14C14.56 22 15 21.55 15 21V20" />
    </g>
    <g id="mdi-lightbulb-cfl-spiral-off" transform="translate(288 0) scale(1.5)" fill="#555">
      <path d="M15.45 9.9L13.88 10.68L12.38 9.18L14.55 8.1C14.69 8.03 14.84 8 15 8C16 8 16.42 9.34 15.45 9.9M11.22 8L15.45 5.9C16.41 5.43 16 4 15 4C14.83 4 14.69 4.03 14.55 4.1L9.72 6.5L11.22 8M20.84 22.73L16.09 18H8C7.44 18 7 17.55 7 17V14H8V12C8 11.6 8.2 11.25 8.7 11.03L9 10.88L1.11 3L2.39 1.73L22.11 21.46L20.84 22.73M12.11 14L10.5 12.38L10 12.62V14H12.11M9 21C9 21.57 9.46 22 10 22H14C14.56 22 15 21.55 15 21V20H9V21M9 5C9.16 5 9.32 4.95 9.45 4.9L11.45 3.9C12.43 3.36 12 2 11 2C10.84 2 10.69 2.03 10.55 2.1L8.55 3.1C7.56 3.66 8 5 9 5Z" />
    </g>
    <g id="mdi-lightbulb-cfl-spiral-off" transform="translate(324 0) scale(1.5)" fill="#fff">
      <path d="M15.45 9.9L13.88 10.68L12.38 9.18L14.55 8.1C14.69 8.03 14.84 8 15 8C16 8 16.42 9.34 15.45 9.9M11.22 8L15.45 5.9C16.41 5.43 16 4 15 4C14.83 4 14.69 4.03 14.55 4.1L9.72 6.5L11.22 8M20.84 22.73L16.09 18H8C7.44 18 7 17.55 7 17V14H8V12C8 11.6 8.2 11.25 8.7 11.03L9 10.88L1.11 3L2.39 1.73L22.11 21.46L20.84 22.73M12.11 14L10.5 12.38L10 12.62V14H12.11M9 21C9 21.57 9.46 22 10 22H14C14.56 22 15 21.55 15 21V20H9V21M9 5C9.16 5 9.32 4.95 9.45 4.9L11.45 3.9C12.43 3.36 12 2 11 2C10.84 2 10.69 2.03 10.55 2.1L8.55 3.1C7.56 3.66 8 5 9 5Z" />
    </g>
    <g id="mdi-lightbulb-group" transform="translate(360 0) scale(1.5)" fill="#555">
      <path d="M15 14V16A1 1 0 0 1 14 17H10A1 1 0 0 1 9 16V14A5 5 0 1 1 15 14M14 18H10V19A1 1 0 0 0 11 20H13A1 1 0 0 0 14 19M7 19V18H5V19A1 1 0 0 0 6 20H7.17A2.93 2.93 0 0 1 7 19M5 10A6.79 6.79 0 0 1 5.68 7A4 4 0 0 0 4 14.45V16A1 1 0 0 0 5 17H7V14.88A6.92 6.92 0 0 1 5 10M17 18V19A2.93 2.93 0 0 1 16.83 20H18A1 1 0 0 0 19 19V18M18.32 7A6.79 6.79 0 0 1 19 10A6.92 6.92 0 0 1 17 14.88V17H19A1 1 0 0 0 20 16V14.45A4 4 0 0 0 18.32 7Z" />
    </g>
    <g id="mdi-lightbulb-group" transform="translate(396 0) scale(1.5)" fill="#fff">
      <path d="M15 14V16A1 1 0 0 1 14 17H10A1 1 0 0 1 9 16V14A5 5 0 1 1 15 14M14 18H10V19A1 1 0 0 0 11 20H13A1 1 0 0 0 14 19M7 19V18H5V19A1 1 0 0 0 6 20H7.17A2.93 2.93 0 0 1 7 19M5 10A6.79 6.79 0 0 1 5.68 7A4 4 0 0 0 4 14.45V16A1 1 0 0 0 5 17H7V14.88A6.92 6.92 0 0 1 5 10M17 18V19A2.93 2.93 0 0 1 16.83 20H18A1 1 0 0 0 19 19V18M18.32 7A6.79 6.79 0 0 1 19 10A6.92 6.92 0 0 1 17 14.88V17H19A1 1 0 0 0 20 16V14.45A4 4 0 0 0 18.32 7Z" />
    </g>
    <g id="mdi-lightbulb-group-off" transform="translate(432 0) scale(1.5)" fill="#555">
      <path d="M20.84 22.73L18.09 20C18.06 20 18.03 20 18 20H16.83C16.94 19.68 17 19.34 17 19V18.89L14.75 16.64C14.57 16.86 14.31 17 14 17H10C9.45 17 9 16.55 9 16V14C7.4 12.8 6.74 10.84 7.12 9L5.5 7.4C5.18 8.23 5 9.11 5 10C5 11.83 5.72 13.58 7 14.88V17H5C4.45 17 4 16.55 4 16V14.45C2.86 13.79 2.12 12.62 2 11.31C1.85 9.27 3.25 7.5 5.2 7.09L1.11 3L2.39 1.73L22.11 21.46L20.84 22.73M15 6C13.22 4.67 10.86 4.72 9.13 5.93L16.08 12.88C17.63 10.67 17.17 7.63 15 6M19.79 16.59C19.91 16.42 20 16.22 20 16V14.45C21.91 13.34 22.57 10.9 21.46 9C20.8 7.85 19.63 7.11 18.32 7C18.77 7.94 19 8.96 19 10C19 11.57 18.47 13.09 17.5 14.31L19.79 16.59M10 19C10 19.55 10.45 20 11 20H13C13.55 20 14 19.55 14 19V18H10V19M7 18H5V19C5 19.55 5.45 20 6 20H7.17C7.06 19.68 7 19.34 7 19V18Z" />
    </g>
    <g id="mdi-lightbulb-group-off" transform="translate(468 0) scale(1.5)" fill="#fff">
      <path d="M20.84 22.73L18.09 20C18.06 20 18.03 20 18 20H16.83C16.94 19.68 17 19.34 17 19V18.89L14.75 16.64C14.57 16.86 14.31 17 14 17H10C9.45 17 9 16.55 9 16V14C7.4 12.8 6.74 10.84 7.12 9L5.5 7.4C5.18 8.23 5 9.11 5 10C5 11.83 5.72 13.58 7 14.88V17H5C4.45 17 4 16.55 4 16V14.45C2.86 13.79 2.12 12.62 2 11.31C1.85 9.27 3.25 7.5 5.2 7.09L1.11 3L2.39 1.73L22.11 21.46L20.84 22.73M15 6C13.22 4.67 10.86 4.72 9.13 5.93L16.08 12.88C17.63 10.67 17.17 7.63 15 6M19.79 16.59C19.91 16.42 20 16.22 20 16V14.45C21.91 13.34 22.57 10.9 21.46 9C20.8 7.85 19.63 7.11 18.32 7C18.77 7.94 19 8.96 19 10C19 11.57 18.47 13.09 17.5 14.31L19.79 16.59M10 19C10 19.55 10.45 20 11 20H13C13.55 20 14 19.55 14 19V18H10V19M7 18H5V19C5 19.55 5.45 20 6 20H7.17C7.06 19.68 7 19.34 7 19V18Z" />
    </g>
    <g id="mdi-lightbulb-group-off-outline" transform="translate(504 0) scale(1.5)" fill="#555">
      <path d="M22.11 21.46L2.39 1.73L1.11 3L5.2 7.09C3.25 7.5 1.85 9.27 2 11.31C2.12 12.62 2.86 13.79 4 14.45V16C4 16.55 4.45 17 5 17H7V14.88C5.72 13.58 5 11.83 5 10C5 9.11 5.18 8.23 5.5 7.4L7.12 9C6.74 10.84 7.4 12.8 9 14V16C9 16.55 9.45 17 10 17H14C14.31 17 14.57 16.86 14.75 16.64L17 18.89V19C17 19.34 16.94 19.68 16.83 20H18C18.03 20 18.06 20 18.09 20L20.84 22.73L22.11 21.46M9.23 11.12L10.87 12.76C10.11 12.46 9.53 11.86 9.23 11.12M13 15H11V12.89L13 14.89V15M10.57 7.37L9.13 5.93C10.86 4.72 13.22 4.67 15 6C16.26 6.94 17 8.43 17 10C17 11.05 16.67 12.05 16.08 12.88L14.63 11.43C14.86 11 15 10.5 15 10C15 8.34 13.67 7 12 7C11.5 7 11 7.14 10.57 7.37M17.5 14.31C18.47 13.09 19 11.57 19 10C19 8.96 18.77 7.94 18.32 7C19.63 7.11 20.8 7.85 21.46 9C22.57 10.9 21.91 13.34 20 14.45V16C20 16.22 19.91 16.42 19.79 16.59L17.5 14.31M10 18H14V19C14 19.55 13.55 20 13 20H11C10.45 20 10 19.55 10 19V18M7 19C7 19.34 7.06 19.68 7.17 20H6C5.45 20 5 19.55 5 19V18H7V19Z" />
    </g>
    <g id="mdi-lightbulb-group-off-outline" transform="translate(540 0) scale(1.5)" fill="#fff">
      <path d="M22.11 21.46L2.39 1.73L1.11 3L5.2 7.09C3.25 7.5 1.85 9.27 2 11.31C2.12 12.62 2.86 13.79 4 14.45V16C4 16.55 4.45 17 5 17H7V14.88C5.72 13.58 5 11.83 5 10C5 9.11 5.18 8.23 5.5 7.4L7.12 9C6.74 10.84 7.4 12.8 9 14V16C9 16.55 9.45 17 10 17H14C14.31 17 14.57 16.86 14.75 16.64L17 18.89V19C17 19.34 16.94 19.68 16.83 20H18C18.03 20 18.06 20 18.09 20L20.84 22.73L22.11 21.46M9.23 11.12L10.87 12.76C10.11 12.46 9.53 11.86 9.23 11.12M13 15H11V12.89L13 14.89V15M10.57 7.37L9.13 5.93C10.86 4.72 13.22 4.67 15 6C16.26 6.94 17 8.43 17 10C17 11.05 16.67 12.05 16.08 12.88L14.63 11.43C14.86 11 15 10.5 15 10C15 8.34 13.67 7 12 7C11.5 7 11 7.14 10.57 7.37M17.5 14.31C18.47 13.09 19 11.57 19 10C19 8.96 18.77 7.94 18.32 7C19.63 7.11 20.8 7.85 21.46 9C22.57 10.9 21.91 13.34 20 14.45V16C20 16.22 19.91 16.42 19.79 16.59L17.5 14.31M10 18H14V19C14 19.55 13.55 20 13 20H11C10.45 20 10 19.55 10 19V18M7 19C7 19.34 7.06 19.68 7.17 20H6C5.45 20 5 19.55 5 19V18H7V19Z" />
    </g>
    <g id="mdi-lightbulb-group-outline" transform="translate(576 0) scale(1.5)" fill="#555">
      <path d="M7 19A2.93 2.93 0 0 0 7.17 20H6A1 1 0 0 1 5 19V18H7M10 19A1 1 0 0 0 11 20H13A1 1 0 0 0 14 19V18H10M4 16A1 1 0 0 0 5 17H7V14.88A6.92 6.92 0 0 1 5 10A6.79 6.79 0 0 1 5.68 7A4 4 0 0 0 4 14.45M17 19A2.93 2.93 0 0 1 16.83 20H18A1 1 0 0 0 19 19V18H17M17 10A5 5 0 0 1 15 14V16A1 1 0 0 1 14 17H10A1 1 0 0 1 9 16V14A5 5 0 1 1 17 10M15 10A3 3 0 1 0 11 12.82V15H13V12.82A3 3 0 0 0 15 10M18.32 7A6.79 6.79 0 0 1 19 10A6.92 6.92 0 0 1 17 14.88V17H19A1 1 0 0 0 20 16V14.45A4 4 0 0 0 18.32 7Z" />
    </g>
    <g id="mdi-lightbulb-group-outline" transform="translate(612 0) scale(1.5)" fill="#fff">
      <path d="M7 19A2.93 2.93 0 0 0 7.17 20H6A1 1 0 0 1 5 19V18H7M10 19A1 1 0 0 0 11 20H13A1 1 0 0 0 14 19V18H10M4 16A1 1 0 0 0 5 17H7V14.88A6.92 6.92 0 0 1 5 10A6.79 6.79 0 0 1 5.68 7A4 4 0 0 0 4 14.45M17 19A2.93 2.93 0 0 1 16.83 20H18A1 1 0 0 0 19 19V18H17M17 10A5 5 0 0 1 15 14V16A1 1 0 0 1 14 17H10A1 1 0 0 1 9 16V14A5 5 0 1 1 17 10M15 10A3 3 0 1 0 11 12.82V15H13V12.82A3 3 0 0 0 15 10M18.32 7A6.79 6.79 0 0 1 19 10A6.92 6.92 0 0 1 17 14.88V17H19A1 1 0 0 0 20 16V14.45A4 4 0 0 0 18.32 7Z" />
    </g>
    <g id="mdi-lightbulb-multiple" transform="translate(648 0) scale(1.5)" fill="#555">
      <path d="M17 16V18C17 18.55 16.53 19 16 19H12C11.42 19 11 18.55 11 18V16C8.77 14.34 8.32 11.21 10 9S14.77 6.34 17 8 19.63 12.79 18 15C17.69 15.38 17.35 15.72 17 16M16 20H12V21C12 21.55 12.42 22 13 22H15C15.53 22 16 21.55 16 21M7.66 15H7V16C7 16.55 7.42 17 8 17H9V16.88C8.44 16.33 8 15.7 7.66 15M13.58 5C12.46 2.47 9.5 1.33 7 2.45S3.31 6.5 4.43 9.04C4.77 9.81 5.3 10.5 6 11V13C6 13.55 6.42 14 7 14H7.28C7.07 13.35 6.97 12.68 7 12C6.97 8.29 9.87 5.21 13.58 5Z" />
    </g>
    <g id="mdi-lightbulb-multiple" transform="translate(684 0) scale(1.5)" fill="#fff">
      <path d="M17 16V18C17 18.55 16.53 19 16 19H12C11.42 19 11 18.55 11 18V16C8.77 14.34 8.32 11.21 10 9S14.77 6.34 17 8 19.63 12.79 18 15C17.69 15.38 17.35 15.72 17 16M16 20H12V21C12 21.55 12.42 22 13 22H15C15.53 22 16 21.55 16 21M7.66 15H7V16C7 16.55 7.42 17 8 17H9V16.88C8.44 16.33 8 15.7 7.66 15M13.58 5C12.46 2.47 9.5 1.33 7 2.45S3.31 6.5 4.43 9.04C4.77 9.81 5.3 10.5 6 11V13C6 13.55 6.42 14 7 14H7.28C7.07 13.35 6.97 12.68 7 12C6.97 8.29 9.87 5.21 13.58 5Z" />
    </g>
    <g id="mdi-lightbulb-multiple-off" transform="translate(0 36) scale(1.5)" fill="#555">
      <path d="M20.84 22.73L16.74 18.63C16.55 18.85 16.29 19 16 19H12C11.42 19 11 18.55 11 18V16C9.37 14.8 8.71 12.82 9.1 11L7.5 9.39C7.17 10.2 6.97 11.08 7 12C6.97 12.68 7.07 13.35 7.28 14H7C6.42 14 6 13.55 6 13V11C5.3 10.5 4.77 9.81 4.43 9.04C4 8.05 3.91 7 4.12 6L1.11 3L2.39 1.73L22.11 21.46L20.84 22.73M13.58 5C12.46 2.47 9.5 1.33 7 2.45C6.68 2.58 6.39 2.75 6.13 2.93L9.67 6.47C10.76 5.63 12.1 5.08 13.58 5M18.06 14.86C19.6 12.66 19.14 9.62 17 8C15.2 6.67 12.84 6.72 11.12 7.92L18.06 14.86M12 21C12 21.55 12.42 22 13 22H15C15.53 22 16 21.55 16 21V20H12V21M7 15V16C7 16.55 7.42 17 8 17H9V16.88C8.43 16.33 8 15.7 7.66 15H7Z" />
    </g>
    <g id="mdi-lightbulb-multiple-off" transform="translate(36 36) scale(1.5)" fill="#fff">
      <path d="M20.84 22.73L16.74 18.63C16.55 18.85 16.29 19 16 19H12C11.42 19 11 18.55 11 18V16C9.37 14.8 8.71 12.82 9.1 11L7.5 9.39C7.17 10.2 6.97 11.08 7 12C6.97 12.68 7.07 13.35 7.28 14H7C6.42 14 6 13.55 6 13V11C5.3 10.5 4.77 9.81 4.43 9.04C4 8.05 3.91 7 4.12 6L1.11 3L2.39 1.73L22.11 21.46L20.84 22.73M13.58 5C12.46 2.47 9.5 1.33 7 2.45C6.68 2.58 6.39 2.75 6.13 2.93L9.67 6.47C10.76 5.63 12.1 5.08 13.58 5M18.06 14.86C19.6 12.66 19.14 9.62 17 8C15.2 6.67 12.84 6.72 11.12 7.92L18.06 14.86M12 21C12 21.55 12.42 22 13 22H15C15.53 22 16 21.55 16 21V20H12V21M7 15V16C7 16.55 7.42 17 8 17H9V16.88C8.43 16.33 8 15.7 7.66 15H7Z" />
    </g>
    <g id="mdi-lightbulb-multiple-off-outline" transform="translate(72 36) scale(1.5)" fill="#555">
      <path d="M22.11 21.46L2.39 1.73L1.11 3L4.14 6.03C3.93 7 4 8.05 4.45 9.04C4.79 9.81 5.33 10.5 6 11V13C6 13.55 6.45 14 7 14H7.3C7.1 13.35 7 12.68 7 12C7 11.08 7.19 10.21 7.5 9.41L9.11 11C9.05 11.33 9 11.66 9 12C9 13.57 9.74 15.06 11 16V18C11 18.55 11.45 19 12 19H16C16.31 19 16.57 18.86 16.75 18.64L20.84 22.73L22.11 21.46M11.23 13.12L12.87 14.76C12.1 14.44 11.53 13.85 11.23 13.12M15 17H13V14.89L15 16.89V17M9.69 6.5L6.14 2.94C6.41 2.75 6.7 2.58 7 2.44C9.53 1.33 12.5 2.47 13.6 5C12.12 5.09 10.77 5.63 9.69 6.5M11.12 7.92C11.94 7.35 12.93 7 14 7C15.57 7 17.06 7.74 18 9C19.33 10.78 19.28 13.14 18.07 14.87L16.62 13.42C16.7 13.28 16.77 13.14 16.83 13C17.38 11.43 16.56 9.72 15 9.16C14.16 8.87 13.29 8.97 12.57 9.37L11.12 7.92M7.68 15C8 15.7 8.46 16.33 9 16.88V17H8C7.45 17 7 16.55 7 16V15H7.68M12 20H16V21C16 21.55 15.55 22 15 22H13C12.45 22 12 21.55 12 21V20Z" />
    </g>
    <g id="mdi-lightbulb-multiple-off-outline" transform="translate(108 36) scale(1.5)" fill="#fff">
      <path d="M22.11 21.46L2.39 1.73L1.11 3L4.14 6.03C3.93 7 4 8.05 4.45 9.04C4.79 9.81 5.33 10.5 6 11V13C6 13.55 6.45 14 7 14H7.3C7.1 13.35 7 12.68 7 12C7 11.08 7.19 10.21 7.5 9.41L9.11 11C9.05 11.33 9 11.66 9 12C9 13.57 9.74 15.06 11 16V18C11 18.55 11.45 19 12 19H16C16.31 19 16.57 18.86 16.75 18.64L20.84 22.73L22.11 21.46M11.23 13.12L12.87 14.76C12.1 14.44 11.53 13.85 11.23 13.12M15 17H13V14.89L15 16.89V17M9.69 6.5L6.14 2.94C6.41 2.75 6.7 2.58 7 2.44C9.53 1.33 12.5 2.47 13.6 5C12.12 5.09 10.77 5.63 9.69 6.5M11.12 7.92C11.94 7.35 12.93 7 14 7C15.57 7 17.06 7.74 18 9C19.33 10.78 19.28 13.14 18.07 14.87L16.62 13.42C16.7 13.28 16.77 13.14 16.83 13C17.38 11.43 16.56 9.72 15 9.16C14.16 8.87 13.29 8.97 12.57 9.37L11.12 7.92M7.68 15C8 15.7 8.46 16.33 9 16.88V17H8C7.45 17 7 16.55 7 16V15H7.68M12 20H16V21C16 21.55 15.55 22 15 22H13C12.45 22 12 21.55 12 21V20Z" />
    </g>
    <g id="mdi-lightbulb-multiple-outline" transform="translate(144 36) scale(1.5)" fill="#555">
      <path d="M12 21C12 21.55 12.45 22 13 22H15C15.55 22 16 21.55 16 21V20H12M14 7C11.24 7 9 9.24 9 12C9 13.57 9.74 15.06 11 16V18C11 18.55 11.45 19 12 19H16C16.55 19 17 18.55 17 18V16C19.21 14.34 19.66 11.21 18 9C17.06 7.74 15.57 7 14 7M15 14.82V17H13V14.82C11.44 14.27 10.62 12.55 11.17 11C11.72 9.43 13.44 8.61 15 9.16C16.56 9.72 17.38 11.43 16.83 13C16.53 13.85 15.85 14.5 15 14.82M7.68 15H7V16C7 16.55 7.45 17 8 17H9V16.88C8.46 16.33 8 15.7 7.68 15M13.6 5C12.5 2.47 9.53 1.33 7 2.45S3.34 6.5 4.45 9.04C4.79 9.81 5.33 10.5 6 11V13C6 13.55 6.45 14 7 14H7.3C7.1 13.35 7 12.68 7 12C7 8.29 9.89 5.21 13.6 5Z" />
    </g>
    <g id="mdi-lightbulb-multiple-outline" transform="translate(180 36) scale(1.5)" fill="#fff">
      <path d="M12 21C12 21.55 12.45 22 13 22H15C15.55 22 16 21.55 16 21V20H12M14 7C11.24 7 9 9.24 9 12C9 13.57 9.74 15.06 11 16V18C11 18.55 11.45 19 12 19H16C16.55 19 17 18.55 17 18V16C19.21 14.34 19.66 11.21 18 9C17.06 7.74 15.57 7 14 7M15 14.82V17H13V14.82C11.44 14.27 10.62 12.55 11.17 11C11.72 9.43 13.44 8.61 15 9.16C16.56 9.72 17.38 11.43 16.83 13C16.53 13.85 15.85 14.5 15 14.82M7.68 15H7V16C7 16.55 7.45 17 8 17H9V16.88C8.46 16.33 8 15.7 7.68 15M13.6 5C12.5 2.47 9.53 1.33 7 2.45S3.34 6.5 4.45 9.04C4.79 9.81 5.33 10.5 6 11V13C6 13.55 6.45 14 7 14H7.3C7.1 13.35 7 12.68 7 12C7 8.29 9.89 5.21 13.6 5Z" />
    </g>
    <g id="mdi-lightbulb-off" transform="translate(216 36) scale(1.5)" fill="#555">
      <path d="M12,2C9.76,2 7.78,3.05 6.5,4.68L16.31,14.5C17.94,13.21 19,11.24 19,9A7,7 0 0,0 12,2M3.28,4L2,5.27L5.04,8.3C5,8.53 5,8.76 5,9C5,11.38 6.19,13.47 8,14.74V17A1,1 0 0,0 9,18H14.73L18.73,22L20,20.72L3.28,4M9,20V21A1,1 0 0,0 10,22H14A1,1 0 0,0 15,21V20H9Z" />
    </g>
    <g id="mdi-lightbulb-off" transform="translate(252 36) scale(1.5)" fill="#fff">
      <path d="M12,2C9.76,2 7.78,3.05 6.5,4.68L16.31,14.5C17.94,13.21 19,11.24 19,9A7,7 0 0,0 12,2M3.28,4L2,5.27L5.04,8.3C5,8.53 5,8.76 5,9C5,11.38 6.19,13.47 8,14.74V17A1,1 0 0,0 9,18H14.73L18.73,22L20,20.72L3.28,4M9,20V21A1,1 0 0,0 10,22H14A1,1 0 0,0 15,21V20H9Z" />
    </g>
    <g id="mdi-lightbulb-off-outline" transform="translate(288 36) scale(1.5)" fill="#555">
      <path d="M12,2C9.76,2 7.78,3.05 6.5,4.68L7.93,6.11C8.84,4.84 10.32,4 12,4A5,5 0 0,1 17,9C17,10.68 16.16,12.16 14.89,13.06L16.31,14.5C17.94,13.21 19,11.24 19,9A7,7 0 0,0 12,2M3.28,4L2,5.27L5.04,8.3C5,8.53 5,8.76 5,9C5,11.38 6.19,13.47 8,14.74V17A1,1 0 0,0 9,18H14.73L18.73,22L20,20.72L3.28,4M7.23,10.5L12.73,16H10V13.58C8.68,13 7.66,11.88 7.23,10.5M9,20V21A1,1 0 0,0 10,22H14A1,1 0 0,0 15,21V20H9Z" />
    </g>
    <g id="mdi-lightbulb-off-outline" transform="translate(324 36) scale(1.5)" fill="#fff">
      <path d="M12,2C9.76,2 7.78,3.05 6.5,4.68L7.93,6.11C8.84,4.84 10.32,4 12,4A5,5 0 0,1 17,9C17,10.68 16.16,12.16 14.89,13.06L16.31,14.5C17.94,13.21 19,11.24 19,9A7,7 0 0,0 12,2M3.28,4L2,5.27L5.04,8.3C5,8.53 5,8.76 5,9C5,11.38 6.19,13.47 8,14.74V17A1,1 0 0,0 9,18H14.73L18.73,22L20,20.72L3.28,4M7.23,10.5L12.73,16H10V13.58C8.68,13 7.66,11.88 7.23,10.5M9,20V21A1,1 0 0,0 10,22H14A1,1 0 0,0 15,21V20H9Z" />
    </g>
    <g id="mdi-lightbulb-on" transform="translate(360 36) scale(1.5)" fill="#555">
      <path d="M12,6A6,6 0 0,1 18,12C18,14.22 16.79,16.16 15,17.2V19A1,1 0 0,1 14,20H10A1,1 0 0,1 9,19V17.2C7.21,16.16 6,14.22 6,12A6,6 0 0,1 12,6M14,21V22A1,1 0 0,1 13,23H11A1,1 0 0,1 10,22V21H14M20,11H23V13H20V11M1,11H4V13H1V11M13,1V4H11V1H13M4.92,3.5L7.05,5.64L5.63,7.05L3.5,4.93L4.92,3.5M16.95,5.63L19.07,3.5L20.5,4.93L18.37,7.05L16.95,5.63Z" />
    </g>
    <g id="mdi-lightbulb-on" transform="translate(396 36) scale(1.5)" fill="#fff">
      <path d="M12,6A6,6 0 0,1 18,12C18,14.22 16.79,16.16 15,17.2V19A1,1 0 0,1 14,20H10A1,1 0 0,1 9,19V17.2C7.21,16.16 6,14.22 6,12A6,6 0 0,1 12,6M14,21V22A1,1 0 0,1 13,23H11A1,1 0 0,1 10,22V21H14M20,11H23V13H20V11M1,11H4V13H1V11M13,1V4H11V1H13M4.92,3.5L7.05,5.64L5.63,7.05L3.5,4.93L4.92,3.5M16.95,5.63L19.07,3.5L20.5,4.93L18.37,7.05L16.95,5.63Z" />
    </g>
    <g id="mdi-lightbulb-on-outline" transform="translate(432 36) scale(1.5)" fill="#555">
      <path d="M20,11H23V13H20V11M1,11H4V13H1V11M13,1V4H11V1H13M4.92,3.5L7.05,5.64L5.63,7.05L3.5,4.93L4.92,3.5M16.95,5.63L19.07,3.5L20.5,4.93L18.37,7.05L16.95,5.63M12,6A6,6 0 0,1 18,12C18,14.22 16.79,16.16 15,17.2V19A1,1 0 0,1 14,20H10A1,1 0 0,1 9,19V17.2C7.21,16.16 6,14.22 6,12A6,6 0 0,1 12,6M14,21V22A1,1 0 0,1 13,23H11A1,1 0 0,1 10,22V21H14M11,18H13V15.87C14.73,15.43 16,13.86 16,12A4,4 0 0,0 12,8A4,4 0 0,0 8,12C8,13.86 9.27,15.43 11,15.87V18Z" />
    </g>
    <g id="mdi-lightbulb-on-outline" transform="translate(468 36) scale(1.5)" fill="#fff">
      <path d="M20,11H23V13H20V11M1,11H4V13H1V11M13,1V4H11V1H13M4.92,3.5L7.05,5.64L5.63,7.05L3.5,4.93L4.92,3.5M16.95,5.63L19.07,3.5L20.5,4.93L18.37,7.05L16.95,5.63M12,6A6,6 0 0,1 18,12C18,14.22 16.79,16.16 15,17.2V19A1,1 0 0,1 14,20H10A1,1 0 0,1 9,19V17.2C7.21,16.16 6,14.22 6,12A6,6 0 0,1 12,6M14,21V22A1,1 0 0,1 13,23H11A1,1 0 0,1 10,22V21H14M11,18H13V15.87C14.73,15.43 16,13.86 16,12A4,4 0 0,0 12,8A4,4 0 0,0 8,12C8,13.86 9.27,15.43 11,15.87V18Z" />
    </g>
    <g id="mdi-lightbulb-outline" transform="translate(504 36) scale(1.5)" fill="#555">
      <path d="M12,2A7,7 0 0,1 19,9C19,11.38 17.81,13.47 16,14.74V17A1,1 0 0,1 15,18H9A1,1 0 0,1 8,17V14.74C6.19,13.47 5,11.38 5,9A7,7 0 0,1 12,2M9,21V20H15V21A1,1 0 0,1 14,22H10A1,1 0 0,1 9,21M12,4A5,5 0 0,0 7,9C7,11.05 8.23,12.81 10,13.58V16H14V13.58C15.77,12.81 17,11.05 17,9A5,5 0 0,0 12,4Z" />
    </g>
    <g id="mdi-lightbulb-outline" transform="translate(540 36) scale(1.5)" fill="#fff">
      <path d="M12,2A7,7 0 0,1 19,9C19,11.38 17.81,13.47 16,14.74V17A1,1 0 0,1 15,18H9A1,1 0 0,1 8,17V14.74C6.19,13.47 5,11.38 5,9A7,7 0 0,1 12,2M9,21V20H15V21A1,1 0 0,1 14,22H10A1,1 0 0,1 9,21M12,4A5,5 0 0,0 7,9C7,11.05 8.23,12.81 10,13.58V16H14V13.58C15.77,12.81 17,11.05 17,9A5,5 0 0,0 12,4Z" />
    </g>
    <g id="mdi-lighthouse" transform="translate(576 36) scale(1.5)" fill="#555">
      <path d="M8,10V8H9V4H8V3L12,1L16,3V4H15V8H16V10H14.74L8.44,13.64L9,10H8M13,8V4H11V8H13M7,23L7.04,22.76L16.15,17.5L16.67,20.88L13,23H7M8.05,16.17L15.31,12L15.83,15.37L7.43,20.22L8.05,16.17Z" />
    </g>
    <g id="mdi-lighthouse" transform="translate(612 36) scale(1.5)" fill="#fff">
      <path d="M8,10V8H9V4H8V3L12,1L16,3V4H15V8H16V10H14.74L8.44,13.64L9,10H8M13,8V4H11V8H13M7,23L7.04,22.76L16.15,17.5L16.67,20.88L13,23H7M8.05,16.17L15.31,12L15.83,15.37L7.43,20.22L8.05,16.17Z" />
    </g>
    <g id="mdi-lighthouse-on" transform="translate(648 36) scale(1.5)" fill="#555">
      <path d="M1,10V2L10,5V7L1,10M8,10V8H13V4H8V3L12,1L16,3V4H15V8H16V10H14.74L8.44,13.64L9,10H8M7,23L7.04,22.76L16.15,17.5L16.67,20.88L13,23H7M8.05,16.17L15.31,12L15.83,15.37L7.43,20.22L8.05,16.17Z" />
    </g>
    <g id="mdi-lighthouse-on" transform="translate(684 36) scale(1.5)" fill="#fff">
      <path d="M1,10V2L10,5V7L1,10M8,10V8H13V4H8V3L12,1L16,3V4H15V8H16V10H14.74L8.44,13.64L9,10H8M7,23L7.04,22.76L16.15,17.5L16.67,20.88L13,23H7M8.05,16.17L15.31,12L15.83,15.37L7.43,20.22L8.05,16.17Z" />
    </g>
    <g id="mdi-lightning-bolt" transform="translate(0 72) scale(1.5)" fill="#555">
      <path d="M11 15H6L13 1V9H18L11 23V15Z" />
    </g>
    <g id="mdi-lightning-bolt" transform="translate(36 72) scale(1.5)" fill="#fff">
      <path d="M11 15H6L13 1V9H18L11 23V15Z" />
    </g>
    <g id="mdi-lightning-bolt-outline" transform="translate(72 72) scale(1.5)" fill="#555">
      <path d="M11 9.47V11H14.76L13 14.53V13H9.24L11 9.47M13 1L6 15H11V23L18 9H13V1Z" />
    </g>
    <g id="mdi-lightning-bolt-outline" transform="translate(108 72) scale(1.5)" fill="#fff">
      <path d="M11 9.47V11H14.76L13 14.53V13H9.24L11 9.47M13 1L6 15H11V23L18 9H13V1Z" />
    </g>
    <g id="mdi-lingerie" transform="translate(144 72) scale(1.5)" fill="#555">
      <path d="M22 7H20V2H18V4.34L12 6.91L6 4.34V2H4V7H2V9H4.05C4.3 11.25 6.19 13 8.5 13C9.92 13 11.18 12.33 12 11.3C12.83 12.33 14.08 13 15.5 13C17.81 13 19.7 11.25 19.95 9H22V7M8.5 11C7.12 11 6 9.88 6 8.5V6.5L11 8.65C10.9 9.96 9.83 11 8.5 11M18 8.5C18 9.88 16.88 11 15.5 11C14.17 11 13.1 9.96 13 8.65L18 6.5V8.5M2 15V17H3C5.97 17 8.43 19.17 8.91 22H15.09C15.57 19.17 18.03 17 21 17H22V15H2M13.59 20H10.41C9.94 18.84 9.21 17.82 8.29 17H15.71C14.79 17.82 14.06 18.84 13.59 20Z" />
    </g>
    <g id="mdi-lingerie" transform="translate(180 72) scale(1.5)" fill="#fff">
      <path d="M22 7H20V2H18V4.34L12 6.91L6 4.34V2H4V7H2V9H4.05C4.3 11.25 6.19 13 8.5 13C9.92 13 11.18 12.33 12 11.3C12.83 12.33 14.08 13 15.5 13C17.81 13 19.7 11.25 19.95 9H22V7M8.5 11C7.12 11 6 9.88 6 8.5V6.5L11 8.65C10.9 9.96 9.83 11 8.5 11M18 8.5C18 9.88 16.88 11 15.5 11C14.17 11 13.1 9.96 13 8.65L18 6.5V8.5M2 15V17H3C5.97 17 8.43 19.17 8.91 22H15.09C15.57 19.17 18.03 17 21 17H22V15H2M13.59 20H10.41C9.94 18.84 9.21 17.82 8.29 17H15.71C14.79 17.82 14.06 18.84 13.59 20Z" />
    </g>
    <g id="mdi-link" transform="translate(216 72) scale(1.5)" fill="#555">
      <path d="M3.9,12C3.9,10.29 5.29,8.9 7,8.9H11V7H7A5,5 0 0,0 2,12A5,5 0 0,0 7,17H11V15.1H7C5.29,15.1 3.9,13.71 3.9,12M8,13H16V11H8V13M17,7H13V8.9H17C18.71,8.9 20.1,10.29 20.1,12C20.1,13.71 18.71,15.1 17,15.1H13V17H17A5,5 0 0,0 22,12A5,5 0 0,0 17,7Z" />
    </g>
    <g id="mdi-link" transform="translate(252 72) scale(1.5)" fill="#fff">
      <path d="M3.9,12C3.9,10.29 5.29,8.9 7,8.9H11V7H7A5,5 0 0,0 2,12A5,5 0 0,0 7,17H11V15.1H7C5.29,15.1 3.9,13.71 3.9,12M8,13H16V11H8V13M17,7H13V8.9H17C18.71,8.9 20.1,10.29 20.1,12C20.1,13.71 18.71,15.1 17,15.1H13V17H17A5,5 0 0,0 22,12A5,5 0 0,0 17,7Z" />
    </g>
    <g id="mdi-link-box" transform="translate(288 72) scale(1.5)" fill="#555">
      <path d="M19,3H5A2,2 0 0,0 3,5V19A2,2 0 0,0 5,21H19A2,2 0 0,0 21,19V5A2,2 0 0,0 19,3M11,16H10C8.39,16 6,14.94 6,12C6,9.07 8.39,8 10,8H11V10H10C9.54,10 8,10.17 8,12C8,13.9 9.67,14 10,14H11V16M15,11V13H9V11H15M14,16H13V14H14C14.46,14 16,13.83 16,12C16,10.1 14.33,10 14,10H13V8H14C15.61,8 18,9.07 18,12C18,14.94 15.61,16 14,16Z" />
    </g>
    <g id="mdi-link-box" transform="translate(324 72) scale(1.5)" fill="#fff">
      <path d="M19,3H5A2,2 0 0,0 3,5V19A2,2 0 0,0 5,21H19A2,2 0 0,0 21,19V5A2,2 0 0,0 19,3M11,16H10C8.39,16 6,14.94 6,12C6,9.07 8.39,8 10,8H11V10H10C9.54,10 8,10.17 8,12C8,13.9 9.67,14 10,14H11V16M15,11V13H9V11H15M14,16H13V14H14C14.46,14 16,13.83 16,12C16,10.1 14.33,10 14,10H13V8H14C15.61,8 18,9.07 18,12C18,14.94 15.61,16 14,16Z" />
    </g>
    <g id="mdi-link-box-outline" transform="translate(360 72) scale(1.5)" fill="#555">
      <path d="M19,3H5A2,2 0 0,0 3,5V19A2,2 0 0,0 5,21H19A2,2 0 0,0 21,19V5A2,2 0 0,0 19,3M19,19H5V5H19V19M11,16H10C8.39,16 6,14.94 6,12C6,9.07 8.39,8 10,8H11V10H10C9.54,10 8,10.17 8,12C8,13.9 9.67,14 10,14H11V16M14,16H13V14H14C14.46,14 16,13.83 16,12C16,10.1 14.33,10 14,10H13V8H14C15.61,8 18,9.07 18,12C18,14.94 15.61,16 14,16M15,13H9V11H15V13Z" />
    </g>
    <g id="mdi-link-box-outline" transform="translate(396 72) scale(1.5)" fill="#fff">
      <path d="M19,3H5A2,2 0 0,0 3,5V19A2,2 0 0,0 5,21H19A2,2 0 0,0 21,19V5A2,2 0 0,0 19,3M19,19H5V5H19V19M11,16H10C8.39,16 6,14.94 6,12C6,9.07 8.39,8 10,8H11V10H10C9.54,10 8,10.17 8,12C8,13.9 9.67,14 10,14H11V16M14,16H13V14H14C14.46,14 16,13.83 16,12C16,10.1 14.33,10 14,10H13V8H14C15.61,8 18,9.07 18,12C18,14.94 15.61,16 14,16M15,13H9V11H15V13Z" />
    </g>
    <g id="mdi-link-box-variant" transform="translate(432 72) scale(1.5)" fill="#555">
      <path d="M19,3H5A2,2 0 0,0 3,5V19A2,2 0 0,0 5,21H19A2,2 0 0,0 21,19V5A2,2 0 0,0 19,3M13.94,14.81L11.73,17C11.08,17.67 10.22,18 9.36,18C8.5,18 7.64,17.67 7,17C5.67,15.71 5.67,13.58 7,12.26L8.35,10.9L8.34,11.5C8.33,12 8.41,12.5 8.57,12.94L8.62,13.09L8.22,13.5C7.91,13.8 7.74,14.21 7.74,14.64C7.74,15.07 7.91,15.47 8.22,15.78C8.83,16.4 9.89,16.4 10.5,15.78L12.7,13.59C13,13.28 13.18,12.87 13.18,12.44C13.18,12 13,11.61 12.7,11.3C12.53,11.14 12.44,10.92 12.44,10.68C12.44,10.45 12.53,10.23 12.7,10.06C13.03,9.73 13.61,9.74 13.94,10.06C14.57,10.7 14.92,11.54 14.92,12.44C14.92,13.34 14.57,14.18 13.94,14.81M17,11.74L15.66,13.1V12.5C15.67,12 15.59,11.5 15.43,11.06L15.38,10.92L15.78,10.5C16.09,10.2 16.26,9.79 16.26,9.36C16.26,8.93 16.09,8.53 15.78,8.22C15.17,7.6 14.1,7.61 13.5,8.22L11.3,10.42C11,10.72 10.82,11.13 10.82,11.56C10.82,12 11,12.39 11.3,12.7C11.47,12.86 11.56,13.08 11.56,13.32C11.56,13.56 11.47,13.78 11.3,13.94C11.13,14.11 10.91,14.19 10.68,14.19C10.46,14.19 10.23,14.11 10.06,13.94C8.75,12.63 8.75,10.5 10.06,9.19L12.27,7C13.58,5.67 15.71,5.68 17,7C17.65,7.62 18,8.46 18,9.36C18,10.26 17.65,11.1 17,11.74Z" />
    </g>
    <g id="mdi-link-box-variant" transform="translate(468 72) scale(1.5)" fill="#fff">
      <path d="M19,3H5A2,2 0 0,0 3,5V19A2,2 0 0,0 5,21H19A2,2 0 0,0 21,19V5A2,2 0 0,0 19,3M13.94,14.81L11.73,17C11.08,17.67 10.22,18 9.36,18C8.5,18 7.64,17.67 7,17C5.67,15.71 5.67,13.58 7,12.26L8.35,10.9L8.34,11.5C8.33,12 8.41,12.5 8.57,12.94L8.62,13.09L8.22,13.5C7.91,13.8 7.74,14.21 7.74,14.64C7.74,15.07 7.91,15.47 8.22,15.78C8.83,16.4 9.89,16.4 10.5,15.78L12.7,13.59C13,13.28 13.18,12.87 13.18,12.44C13.18,12 13,11.61 12.7,11.3C12.53,11.14 12.44,10.92 12.44,10.68C12.44,10.45 12.53,10.23 12.7,10.06C13.03,9.73 13.61,9.74 13.94,10.06C14.57,10.7 14.92,11.54 14.92,12.44C14.92,13.34 14.57,14.18 13.94,14.81M17,11.74L15.66,13.1V12.5C15.67,12 15.59,11.5 15.43,11.06L15.38,10.92L15.78,10.5C16.09,10.2 16.26,9.79 16.26,9.36C16.26,8.93 16.09,8.53 15.78,8.22C15.17,7.6 14.1,7.61 13.5,8.22L11.3,10.42C11,10.72 10.82,11.13 10.82,11.56C10.82,12 11,12.39 11.3,12.7C11.47,12.86 11.56,13.08 11.56,13.32C11.56,13.56 11.47,13.78 11.3,13.94C11.13,14.11 10.91,14.19 10.68,14.19C10.46,14.19 10.23,14.11 10.06,13.94C8.75,12.63 8.75,10.5 10.06,9.19L12.27,7C13.58,5.67 15.71,5.68 17,7C17.65,7.62 18,8.46 18,9.36C18,10.26 17.65,11.1 17,11.74Z" />
    </g>
    <g id="mdi-link-box-variant-outline" transform="translate(504 72) scale(1.5)" fill="#555">
      <path d="M19,3H5A2,2 0 0,0 3,5V19A2,2 0 0,0 5,21H19A2,2 0 0,0 21,19V5A2,2 0 0,0 19,3M19,19H5V5H19V19M13.94,10.06C14.57,10.7 14.92,11.54 14.92,12.44C14.92,13.34 14.57,14.18 13.94,14.81L11.73,17C11.08,17.67 10.22,18 9.36,18C8.5,18 7.64,17.67 7,17C5.67,15.71 5.67,13.58 7,12.26L8.35,10.9L8.34,11.5C8.33,12 8.41,12.5 8.57,12.94L8.62,13.09L8.22,13.5C7.91,13.8 7.74,14.21 7.74,14.64C7.74,15.07 7.91,15.47 8.22,15.78C8.83,16.4 9.89,16.4 10.5,15.78L12.7,13.59C13,13.28 13.18,12.87 13.18,12.44C13.18,12 13,11.61 12.7,11.3C12.53,11.14 12.44,10.92 12.44,10.68C12.44,10.45 12.53,10.23 12.7,10.06C13.03,9.73 13.61,9.74 13.94,10.06M18,9.36C18,10.26 17.65,11.1 17,11.74L15.66,13.1V12.5C15.67,12 15.59,11.5 15.43,11.06L15.38,10.92L15.78,10.5C16.09,10.2 16.26,9.79 16.26,9.36C16.26,8.93 16.09,8.53 15.78,8.22C15.17,7.6 14.1,7.61 13.5,8.22L11.3,10.42C11,10.72 10.82,11.13 10.82,11.56C10.82,12 11,12.39 11.3,12.7C11.47,12.86 11.56,13.08 11.56,13.32C11.56,13.56 11.47,13.78 11.3,13.94C11.13,14.11 10.91,14.19 10.68,14.19C10.46,14.19 10.23,14.11 10.06,13.94C8.75,12.63 8.75,10.5 10.06,9.19L12.27,7C13.58,5.67 15.71,5.68 17,7C17.65,7.62 18,8.46 18,9.36Z" />
    </g>
    <g id="mdi-link-box-variant-outline" transform="translate(540 72) scale(1.5)" fill="#fff">
      <path d="M19,3H5A2,2 0 0,0 3,5V19A2,2 0 0,0 5,21H19A2,2 0 0,0 21,19V5A2,2 0 0,0 19,3M19,19H5V5H19V19M13.94,10.06C14.57,10.7 14.92,11.54 14.92,12.44C14.92,13.34 14.57,14.18 13.94,14.81L11.73,17C11.08,17.67 10.22,18 9.36,18C8.5,18 7.64,17.67 7,17C5.67,15.71 5.67,13.58 7,12.26L8.35,10.9L8.34,11.5C8.33,12 8.41,12.5 8.57,12.94L8.62,13.09L8.22,13.5C7.91,13.8 7.74,14.21 7.74,14.64C7.74,15.07 7.91,15.47 8.22,15.78C8.83,16.4 9.89,16.4 10.5,15.78L12.7,13.59C13,13.28 13.18,12.87 13.18,12.44C13.18,12 13,11.61 12.7,11.3C12.53,11.14 12.44,10.92 12.44,10.68C12.44,10.45 12.53,10.23 12.7,10.06C13.03,9.73 13.61,9.74 13.94,10.06M18,9.36C18,10.26 17.65,11.1 17,11.74L15.66,13.1V12.5C15.67,12 15.59,11.5 15.43,11.06L15.38,10.92L15.78,10.5C16.09,10.2 16.26,9.79 16.26,9.36C16.26,8.93 16.09,8.53 15.78,8.22C15.17,7.6 14.1,7.61 13.5,8.22L11.3,10.42C11,10.72 10.82,11.13 10.82,11.56C10.82,12 11,12.39 11.3,12.7C11.47,12.86 11.56,13.08 11.56,13.32C11.56,13.56 11.47,13.78 11.3,13.94C11.13,14.11 10.91,14.19 10.68,14.19C10.46,14.19 10.23,14.11 10.06,13.94C8.75,12.63 8.75,10.5 10.06,9.19L12.27,7C13.58,5.67 15.71,5.68 17,7C17.65,7.62 18,8.46 18,9.36Z" />
    </g>
    <g id="mdi-link-lock" transform="translate(576 72) scale(1.5)" fill="#555">
      <path d="M23 16V15.5A2.5 2.5 0 0 0 18 15.5V16A1 1 0 0 0 17 17V21A1 1 0 0 0 18 22H23A1 1 0 0 0 24 21V17A1 1 0 0 0 23 16M22 16H19V15.5A1.5 1.5 0 0 1 22 15.5M7 8.9H11V7H7A5 5 0 0 0 7 17H11V15.1H7A3.1 3.1 0 0 1 7 8.9M8 11V13H16V11M13 15.1V17H15V15.1M17 7H13V8.9H17A3.09 3.09 0 0 1 19.94 11A5.12 5.12 0 0 1 20.5 11H21.9A5 5 0 0 0 17 7Z" />
    </g>
    <g id="mdi-link-lock" transform="translate(612 72) scale(1.5)" fill="#fff">
      <path d="M23 16V15.5A2.5 2.5 0 0 0 18 15.5V16A1 1 0 0 0 17 17V21A1 1 0 0 0 18 22H23A1 1 0 0 0 24 21V17A1 1 0 0 0 23 16M22 16H19V15.5A1.5 1.5 0 0 1 22 15.5M7 8.9H11V7H7A5 5 0 0 0 7 17H11V15.1H7A3.1 3.1 0 0 1 7 8.9M8 11V13H16V11M13 15.1V17H15V15.1M17 7H13V8.9H17A3.09 3.09 0 0 1 19.94 11A5.12 5.12 0 0 1 20.5 11H21.9A5 5 0 0 0 17 7Z" />
    </g>
    <g id="mdi-link-off" transform="translate(648 72) scale(1.5)" fill="#555">
      <path d="M17,7H13V8.9H17C18.71,8.9 20.1,10.29 20.1,12C20.1,13.43 19.12,14.63 17.79,15L19.25,16.44C20.88,15.61 22,13.95 22,12A5,5 0 0,0 17,7M16,11H13.81L15.81,13H16V11M2,4.27L5.11,7.38C3.29,8.12 2,9.91 2,12A5,5 0 0,0 7,17H11V15.1H7C5.29,15.1 3.9,13.71 3.9,12C3.9,10.41 5.11,9.1 6.66,8.93L8.73,11H8V13H10.73L13,15.27V17H14.73L18.74,21L20,19.74L3.27,3L2,4.27Z" />
    </g>
    <g id="mdi-link-off" transform="translate(684 72) scale(1.5)" fill="#fff">
      <path d="M17,7H13V8.9H17C18.71,8.9 20.1,10.29 20.1,12C20.1,13.43 19.12,14.63 17.79,15L19.25,16.44C20.88,15.61 22,13.95 22,12A5,5 0 0,0 17,7M16,11H13.81L15.81,13H16V11M2,4.27L5.11,7.38C3.29,8.12 2,9.91 2,12A5,5 0 0,0 7,17H11V15.1H7C5.29,15.1 3.9,13.71 3.9,12C3.9,10.41 5.11,9.1 6.66,8.93L8.73,11H8V13H10.73L13,15.27V17H14.73L18.74,21L20,19.74L3.27,3L2,4.27Z" />
    </g>
    <g id="mdi-link-plus" transform="translate(0 108) scale(1.5)" fill="#555">
      <path d="M7,7H11V9H7A3,3 0 0,0 4,12A3,3 0 0,0 7,15H11V17H7A5,5 0 0,1 2,12A5,5 0 0,1 7,7M17,7A5,5 0 0,1 22,12H20A3,3 0 0,0 17,9H13V7H17M8,11H16V13H8V11M17,12H19V15H22V17H19V20H17V17H14V15H17V12Z" />
    </g>
    <g id="mdi-link-plus" transform="translate(36 108) scale(1.5)" fill="#fff">
      <path d="M7,7H11V9H7A3,3 0 0,0 4,12A3,3 0 0,0 7,15H11V17H7A5,5 0 0,1 2,12A5,5 0 0,1 7,7M17,7A5,5 0 0,1 22,12H20A3,3 0 0,0 17,9H13V7H17M8,11H16V13H8V11M17,12H19V15H22V17H19V20H17V17H14V15H17V12Z" />
    </g>
    <g id="mdi-link-variant" transform="translate(72 108) scale(1.5)" fill="#555">
      <path d="M10.59,13.41C11,13.8 11,14.44 10.59,14.83C10.2,15.22 9.56,15.22 9.17,14.83C7.22,12.88 7.22,9.71 9.17,7.76V7.76L12.71,4.22C14.66,2.27 17.83,2.27 19.78,4.22C21.73,6.17 21.73,9.34 19.78,11.29L18.29,12.78C18.3,11.96 18.17,11.14 17.89,10.36L18.36,9.88C19.54,8.71 19.54,6.81 18.36,5.64C17.19,4.46 15.29,4.46 14.12,5.64L10.59,9.17C9.41,10.34 9.41,12.24 10.59,13.41M13.41,9.17C13.8,8.78 14.44,8.78 14.83,9.17C16.78,11.12 16.78,14.29 14.83,16.24V16.24L11.29,19.78C9.34,21.73 6.17,21.73 4.22,19.78C2.27,17.83 2.27,14.66 4.22,12.71L5.71,11.22C5.7,12.04 5.83,12.86 6.11,13.65L5.64,14.12C4.46,15.29 4.46,17.19 5.64,18.36C6.81,19.54 8.71,19.54 9.88,18.36L13.41,14.83C14.59,13.66 14.59,11.76 13.41,10.59C13,10.2 13,9.56 13.41,9.17Z" />
    </g>
    <g id="mdi-link-variant" transform="translate(108 108) scale(1.5)" fill="#fff">
      <path d="M10.59,13.41C11,13.8 11,14.44 10.59,14.83C10.2,15.22 9.56,15.22 9.17,14.83C7.22,12.88 7.22,9.71 9.17,7.76V7.76L12.71,4.22C14.66,2.27 17.83,2.27 19.78,4.22C21.73,6.17 21.73,9.34 19.78,11.29L18.29,12.78C18.3,11.96 18.17,11.14 17.89,10.36L18.36,9.88C19.54,8.71 19.54,6.81 18.36,5.64C17.19,4.46 15.29,4.46 14.12,5.64L10.59,9.17C9.41,10.34 9.41,12.24 10.59,13.41M13.41,9.17C13.8,8.78 14.44,8.78 14.83,9.17C16.78,11.12 16.78,14.29 14.83,16.24V16.24L11.29,19.78C9.34,21.73 6.17,21.73 4.22,19.78C2.27,17.83 2.27,14.66 4.22,12.71L5.71,11.22C5.7,12.04 5.83,12.86 6.11,13.65L5.64,14.12C4.46,15.29 4.46,17.19 5.64,18.36C6.81,19.54 8.71,19.54 9.88,18.36L13.41,14.83C14.59,13.66 14.59,11.76 13.41,10.59C13,10.2 13,9.56 13.41,9.17Z" />
    </g>
    <g id="mdi-link-variant-minus" transform="translate(144 108) scale(1.5)" fill="#555">
      <path d="M10.6 13.4A1 1 0 0 1 9.2 14.8A4.8 4.8 0 0 1 9.2 7.8L12.7 4.2A5.1 5.1 0 0 1 19.8 4.2A5.1 5.1 0 0 1 19.8 11.3L18.3 12.8A6.4 6.4 0 0 0 17.9 10.4L18.4 9.9A3.2 3.2 0 0 0 18.4 5.6A3.2 3.2 0 0 0 14.1 5.6L10.6 9.2A2.9 2.9 0 0 0 10.6 13.4M23 18V20H15V18M16.2 13.7A4.8 4.8 0 0 0 14.8 9.2A1 1 0 0 0 13.4 10.6A2.9 2.9 0 0 1 13.4 14.8L9.9 18.4A3.2 3.2 0 0 1 5.6 18.4A3.2 3.2 0 0 1 5.6 14.1L6.1 13.7A7.3 7.3 0 0 1 5.7 11.2L4.2 12.7A5.1 5.1 0 0 0 4.2 19.8A5.1 5.1 0 0 0 11.3 19.8L13.1 18A6 6 0 0 1 16.2 13.7Z" />
    </g>
    <g id="mdi-link-variant-minus" transform="translate(180 108) scale(1.5)" fill="#fff">
      <path d="M10.6 13.4A1 1 0 0 1 9.2 14.8A4.8 4.8 0 0 1 9.2 7.8L12.7 4.2A5.1 5.1 0 0 1 19.8 4.2A5.1 5.1 0 0 1 19.8 11.3L18.3 12.8A6.4 6.4 0 0 0 17.9 10.4L18.4 9.9A3.2 3.2 0 0 0 18.4 5.6A3.2 3.2 0 0 0 14.1 5.6L10.6 9.2A2.9 2.9 0 0 0 10.6 13.4M23 18V20H15V18M16.2 13.7A4.8 4.8 0 0 0 14.8 9.2A1 1 0 0 0 13.4 10.6A2.9 2.9 0 0 1 13.4 14.8L9.9 18.4A3.2 3.2 0 0 1 5.6 18.4A3.2 3.2 0 0 1 5.6 14.1L6.1 13.7A7.3 7.3 0 0 1 5.7 11.2L4.2 12.7A5.1 5.1 0 0 0 4.2 19.8A5.1 5.1 0 0 0 11.3 19.8L13.1 18A6 6 0 0 1 16.2 13.7Z" />
    </g>
    <g id="mdi-link-variant-off" transform="translate(216 108) scale(1.5)" fill="#555">
      <path d="M2,5.27L3.28,4L20,20.72L18.73,22L13.9,17.17L11.29,19.78C9.34,21.73 6.17,21.73 4.22,19.78C2.27,17.83 2.27,14.66 4.22,12.71L5.71,11.22C5.7,12.04 5.83,12.86 6.11,13.65L5.64,14.12C4.46,15.29 4.46,17.19 5.64,18.36C6.81,19.54 8.71,19.54 9.88,18.36L12.5,15.76L10.88,14.15C10.87,14.39 10.77,14.64 10.59,14.83C10.2,15.22 9.56,15.22 9.17,14.83C8.12,13.77 7.63,12.37 7.72,11L2,5.27M12.71,4.22C14.66,2.27 17.83,2.27 19.78,4.22C21.73,6.17 21.73,9.34 19.78,11.29L18.29,12.78C18.3,11.96 18.17,11.14 17.89,10.36L18.36,9.88C19.54,8.71 19.54,6.81 18.36,5.64C17.19,4.46 15.29,4.46 14.12,5.64L10.79,8.97L9.38,7.55L12.71,4.22M13.41,9.17C13.8,8.78 14.44,8.78 14.83,9.17C16.2,10.54 16.61,12.5 16.06,14.23L14.28,12.46C14.23,11.78 13.94,11.11 13.41,10.59C13,10.2 13,9.56 13.41,9.17Z" />
    </g>
    <g id="mdi-link-variant-off" transform="translate(252 108) scale(1.5)" fill="#fff">
      <path d="M2,5.27L3.28,4L20,20.72L18.73,22L13.9,17.17L11.29,19.78C9.34,21.73 6.17,21.73 4.22,19.78C2.27,17.83 2.27,14.66 4.22,12.71L5.71,11.22C5.7,12.04 5.83,12.86 6.11,13.65L5.64,14.12C4.46,15.29 4.46,17.19 5.64,18.36C6.81,19.54 8.71,19.54 9.88,18.36L12.5,15.76L10.88,14.15C10.87,14.39 10.77,14.64 10.59,14.83C10.2,15.22 9.56,15.22 9.17,14.83C8.12,13.77 7.63,12.37 7.72,11L2,5.27M12.71,4.22C14.66,2.27 17.83,2.27 19.78,4.22C21.73,6.17 21.73,9.34 19.78,11.29L18.29,12.78C18.3,11.96 18.17,11.14 17.89,10.36L18.36,9.88C19.54,8.71 19.54,6.81 18.36,5.64C17.19,4.46 15.29,4.46 14.12,5.64L10.79,8.97L9.38,7.55L12.71,4.22M13.41,9.17C13.8,8.78 14.44,8.78 14.83,9.17C16.2,10.54 16.61,12.5 16.06,14.23L14.28,12.46C14.23,11.78 13.94,11.11 13.41,10.59C13,10.2 13,9.56 13.41,9.17Z" />
    </g>
    <g id="mdi-link-variant-plus" transform="translate(288 108) scale(1.5)" fill="#555">
      <path d="M10.6 13.4A1 1 0 0 1 9.2 14.8A4.8 4.8 0 0 1 9.2 7.8L12.7 4.2A5.1 5.1 0 0 1 19.8 4.2A5.1 5.1 0 0 1 19.8 11.3L18.3 12.8A6.4 6.4 0 0 0 17.9 10.4L18.4 9.9A3.2 3.2 0 0 0 18.4 5.6A3.2 3.2 0 0 0 14.1 5.6L10.6 9.2A2.9 2.9 0 0 0 10.6 13.4M23 18V20H20V23H18V20H15V18H18V15H20V18M16.2 13.7A4.8 4.8 0 0 0 14.8 9.2A1 1 0 0 0 13.4 10.6A2.9 2.9 0 0 1 13.4 14.8L9.9 18.4A3.2 3.2 0 0 1 5.6 18.4A3.2 3.2 0 0 1 5.6 14.1L6.1 13.7A7.3 7.3 0 0 1 5.7 11.2L4.2 12.7A5.1 5.1 0 0 0 4.2 19.8A5.1 5.1 0 0 0 11.3 19.8L13.1 18A6 6 0 0 1 16.2 13.7Z" />
    </g>
    <g id="mdi-link-variant-plus" transform="translate(324 108) scale(1.5)" fill="#fff">
      <path d="M10.6 13.4A1 1 0 0 1 9.2 14.8A4.8 4.8 0 0 1 9.2 7.8L12.7 4.2A5.1 5.1 0 0 1 19.8 4.2A5.1 5.1 0 0 1 19.8 11.3L18.3 12.8A6.4 6.4 0 0 0 17.9 10.4L18.4 9.9A3.2 3.2 0 0 0 18.4 5.6A3.2 3.2 0 0 0 14.1 5.6L10.6 9.2A2.9 2.9 0 0 0 10.6 13.4M23 18V20H20V23H18V20H15V18H18V15H20V18M16.2 13.7A4.8 4.8 0 0 0 14.8 9.2A1 1 0 0 0 13.4 10.6A2.9 2.9 0 0 1 13.4 14.8L9.9 18.4A3.2 3.2 0 0 1 5.6 18.4A3.2 3.2 0 0 1 5.6 14.1L6.1 13.7A7.3 7.3 0 0 1 5.7 11.2L4.2 12.7A5.1 5.1 0 0 0 4.2 19.8A5.1 5.1 0 0 0 11.3 19.8L13.1 18A6 6 0 0 1 16.2 13.7Z" />
    </g>
    <g id="mdi-link-variant-remove" transform="translate(360 108) scale(1.5)" fill="#555">
      <path d="M10.6 13.4A1 1 0 0 1 9.2 14.8A4.8 4.8 0 0 1 9.2 7.8L12.7 4.2A5.1 5.1 0 0 1 19.8 4.2A5.1 5.1 0 0 1 19.8 11.3L18.3 12.8A6.4 6.4 0 0 0 17.9 10.4L18.4 9.9A3.2 3.2 0 0 0 18.4 5.6A3.2 3.2 0 0 0 14.1 5.6L10.6 9.2A2.9 2.9 0 0 0 10.6 13.4M16.2 13.7A4.8 4.8 0 0 0 14.8 9.2A1 1 0 0 0 13.4 10.6A2.9 2.9 0 0 1 13.4 14.8L9.9 18.4A3.2 3.2 0 0 1 5.6 18.4A3.2 3.2 0 0 1 5.6 14.1L6.1 13.7A7.3 7.3 0 0 1 5.7 11.2L4.2 12.7A5.1 5.1 0 0 0 4.2 19.8A5.1 5.1 0 0 0 11.3 19.8L13.1 18A6 6 0 0 1 16.2 13.7M21.1 15.5L19 17.6L16.9 15.5L15.5 16.9L17.6 19L15.5 21.1L16.9 22.5L19 20.4L21.1 22.5L22.5 21.1L20.4 19L22.5 16.9Z" />
    </g>
    <g id="mdi-link-variant-remove" transform="translate(396 108) scale(1.5)" fill="#fff">
      <path d="M10.6 13.4A1 1 0 0 1 9.2 14.8A4.8 4.8 0 0 1 9.2 7.8L12.7 4.2A5.1 5.1 0 0 1 19.8 4.2A5.1 5.1 0 0 1 19.8 11.3L18.3 12.8A6.4 6.4 0 0 0 17.9 10.4L18.4 9.9A3.2 3.2 0 0 0 18.4 5.6A3.2 3.2 0 0 0 14.1 5.6L10.6 9.2A2.9 2.9 0 0 0 10.6 13.4M16.2 13.7A4.8 4.8 0 0 0 14.8 9.2A1 1 0 0 0 13.4 10.6A2.9 2.9 0 0 1 13.4 14.8L9.9 18.4A3.2 3.2 0 0 1 5.6 18.4A3.2 3.2 0 0 1 5.6 14.1L6.1 13.7A7.3 7.3 0 0 1 5.7 11.2L4.2 12.7A5.1 5.1 0 0 0 4.2 19.8A5.1 5.1 0 0 0 11.3 19.8L13.1 18A6 6 0 0 1 16.2 13.7M21.1 15.5L19 17.6L16.9 15.5L15.5 16.9L17.6 19L15.5 21.1L16.9 22.5L19 20.4L21.1 22.5L22.5 21.1L20.4 19L22.5 16.9Z" />
    </g>
    <g id="mdi-linkedin" transform="translate(432 108) scale(1.5)" fill="#555">
      <path d="M19 3A2 2 0 0 1 21 5V19A2 2 0 0 1 19 21H5A2 2 0 0 1 3 19V5A2 2 0 0 1 5 3H19M18.5 18.5V13.2A3.26 3.26 0 0 0 15.24 9.94C14.39 9.94 13.4 10.46 12.92 11.24V10.13H10.13V18.5H12.92V13.57C12.92 12.8 13.54 12.17 14.31 12.17A1.4 1.4 0 0 1 15.71 13.57V18.5H18.5M6.88 8.56A1.68 1.68 0 0 0 8.56 6.88C8.56 5.95 7.81 5.19 6.88 5.19A1.69 1.69 0 0 0 5.19 6.88C5.19 7.81 5.95 8.56 6.88 8.56M8.27 18.5V10.13H5.5V18.5H8.27Z" />
    </g>
    <g id="mdi-linkedin" transform="translate(468 108) scale(1.5)" fill="#fff">
      <path d="M19 3A2 2 0 0 1 21 5V19A2 2 0 0 1 19 21H5A2 2 0 0 1 3 19V5A2 2 0 0 1 5 3H19M18.5 18.5V13.2A3.26 3.26 0 0 0 15.24 9.94C14.39 9.94 13.4 10.46 12.92 11.24V10.13H10.13V18.5H12.92V13.57C12.92 12.8 13.54 12.17 14.31 12.17A1.4 1.4 0 0 1 15.71 13.57V18.5H18.5M6.88 8.56A1.68 1.68 0 0 0 8.56 6.88C8.56 5.95 7.81 5.19 6.88 5.19A1.69 1.69 0 0 0 5.19 6.88C5.19 7.81 5.95 8.56 6.88 8.56M8.27 18.5V10.13H5.5V18.5H8.27Z" />
    </g>
    <g id="mdi-linux" transform="translate(504 108) scale(1.5)" fill="#555">
      <path d="M14.62,8.35C14.2,8.63 12.87,9.39 12.67,9.54C12.28,9.85 11.92,9.83 11.53,9.53C11.33,9.37 10,8.61 9.58,8.34C9.1,8.03 9.13,7.64 9.66,7.42C11.3,6.73 12.94,6.78 14.57,7.45C15.06,7.66 15.08,8.05 14.62,8.35M21.84,15.63C20.91,13.54 19.64,11.64 18,9.97C17.47,9.42 17.14,8.8 16.94,8.09C16.84,7.76 16.77,7.42 16.7,7.08C16.5,6.2 16.41,5.3 16,4.47C15.27,2.89 14,2.07 12.16,2C10.35,2.05 9,2.81 8.21,4.4C8,4.83 7.85,5.28 7.75,5.74C7.58,6.5 7.43,7.29 7.25,8.06C7.1,8.71 6.8,9.27 6.29,9.77C4.68,11.34 3.39,13.14 2.41,15.12C2.27,15.41 2.13,15.7 2.04,16C1.85,16.66 2.33,17.12 3.03,16.96C3.47,16.87 3.91,16.78 4.33,16.65C4.74,16.5 4.9,16.6 5,17C5.65,19.15 7.07,20.66 9.24,21.5C13.36,23.06 18.17,20.84 19.21,16.92C19.28,16.65 19.38,16.55 19.68,16.65C20.14,16.79 20.61,16.89 21.08,17C21.57,17.09 21.93,16.84 22,16.36C22.03,16.1 21.94,15.87 21.84,15.63" />
    </g>
    <g id="mdi-linux" transform="translate(540 108) scale(1.5)" fill="#fff">
      <path d="M14.62,8.35C14.2,8.63 12.87,9.39 12.67,9.54C12.28,9.85 11.92,9.83 11.53,9.53C11.33,9.37 10,8.61 9.58,8.34C9.1,8.03 9.13,7.64 9.66,7.42C11.3,6.73 12.94,6.78 14.57,7.45C15.06,7.66 15.08,8.05 14.62,8.35M21.84,15.63C20.91,13.54 19.64,11.64 18,9.97C17.47,9.42 17.14,8.8 16.94,8.09C16.84,7.76 16.77,7.42 16.7,7.08C16.5,6.2 16.41,5.3 16,4.47C15.27,2.89 14,2.07 12.16,2C10.35,2.05 9,2.81 8.21,4.4C8,4.83 7.85,5.28 7.75,5.74C7.58,6.5 7.43,7.29 7.25,8.06C7.1,8.71 6.8,9.27 6.29,9.77C4.68,11.34 3.39,13.14 2.41,15.12C2.27,15.41 2.13,15.7 2.04,16C1.85,16.66 2.33,17.12 3.03,16.96C3.47,16.87 3.91,16.78 4.33,16.65C4.74,16.5 4.9,16.6 5,17C5.65,19.15 7.07,20.66 9.24,21.5C13.36,23.06 18.17,20.84 19.21,16.92C19.28,16.65 19.38,16.55 19.68,16.65C20.14,16.79 20.61,16.89 21.08,17C21.57,17.09 21.93,16.84 22,16.36C22.03,16.1 21.94,15.87 21.84,15.63" />
    </g>
    <g id="mdi-linux-mint" transform="translate(576 108) scale(1.5)" fill="#555">
      <path d="M2,3.23V6.8H3.5C4.59,6.8 4.78,7.53 4.78,8.55V14.86C4.78,18.12 7.65,20.77 11.18,20.77H19.9C21,20.77 22,20.07 22,19V9.2C22,5.93 19.13,3.28 15.6,3.28H11.93V3.27L2,3.23V3.23M6.62,5.46H8.37V14.45C8.37,15.65 9.19,16.59 10.16,16.59L16.13,16.61C17.38,16.61 18.35,15.75 18.35,14.73L18.34,9.96C18.34,9.65 18.24,9.41 18,9.19C17.79,8.96 17.56,8.86 17.25,8.86C16.94,8.86 16.71,8.96 16.5,9.19C16.27,9.41 16.16,9.65 16.16,9.96V14.05H14.31V9.96C14.31,9.65 14.21,9.41 14,9.19C13.77,8.96 13.54,8.86 13.22,8.86C12.92,8.86 12.68,8.96 12.46,9.19C12.24,9.41 12.14,9.65 12.14,9.96V14.05H10.29V9.96C10.29,9.15 10.58,8.44 11.15,7.86C11.72,7.29 12.43,7 13.22,7C14,7 14.68,7.28 15.24,7.82C15.79,7.28 16.47,7 17.25,7C18.05,7 18.76,7.29 19.32,7.86C19.89,8.44 20.19,9.15 20.19,9.96L20.2,15.06C20.11,15.91 19.75,16.67 19.13,17.31V17.31C18.4,18.04 17.5,18.42 16.5,18.42H9.83C9,18.34 8.29,17.95 7.69,17.36C7,16.65 6.62,15.79 6.62,14.79V5.46H6.62Z" />
    </g>
    <g id="mdi-linux-mint" transform="translate(612 108) scale(1.5)" fill="#fff">
      <path d="M2,3.23V6.8H3.5C4.59,6.8 4.78,7.53 4.78,8.55V14.86C4.78,18.12 7.65,20.77 11.18,20.77H19.9C21,20.77 22,20.07 22,19V9.2C22,5.93 19.13,3.28 15.6,3.28H11.93V3.27L2,3.23V3.23M6.62,5.46H8.37V14.45C8.37,15.65 9.19,16.59 10.16,16.59L16.13,16.61C17.38,16.61 18.35,15.75 18.35,14.73L18.34,9.96C18.34,9.65 18.24,9.41 18,9.19C17.79,8.96 17.56,8.86 17.25,8.86C16.94,8.86 16.71,8.96 16.5,9.19C16.27,9.41 16.16,9.65 16.16,9.96V14.05H14.31V9.96C14.31,9.65 14.21,9.41 14,9.19C13.77,8.96 13.54,8.86 13.22,8.86C12.92,8.86 12.68,8.96 12.46,9.19C12.24,9.41 12.14,9.65 12.14,9.96V14.05H10.29V9.96C10.29,9.15 10.58,8.44 11.15,7.86C11.72,7.29 12.43,7 13.22,7C14,7 14.68,7.28 15.24,7.82C15.79,7.28 16.47,7 17.25,7C18.05,7 18.76,7.29 19.32,7.86C19.89,8.44 20.19,9.15 20.19,9.96L20.2,15.06C20.11,15.91 19.75,16.67 19.13,17.31V17.31C18.4,18.04 17.5,18.42 16.5,18.42H9.83C9,18.34 8.29,17.95 7.69,17.36C7,16.65 6.62,15.79 6.62,14.79V5.46H6.62Z" />
    </g>
    <g id="mdi-lipstick" transform="translate(648 108) scale(1.5)" fill="#555">
      <path d="M9 23C8.45 23 8 22.55 8 22V13C8 12.45 8.45 12 9 12H15C15.55 12 16 12.45 16 13V22C16 22.55 15.55 23 15 23H9M10 11C9.45 11 9 10.55 9 10V5.25C9 5.25 11 3 11.75 1C12.83 1.67 13.92 2.33 14.46 3.83C15 5.33 15 7.67 15 10C15 10.55 14.55 11 14 11H10Z" />
    </g>
    <g id="mdi-lipstick" transform="translate(684 108) scale(1.5)" fill="#fff">
      <path d="M9 23C8.45 23 8 22.55 8 22V13C8 12.45 8.45 12 9 12H15C15.55 12 16 12.45 16 13V22C16 22.55 15.55 23 15 23H9M10 11C9.45 11 9 10.55 9 10V5.25C9 5.25 11 3 11.75 1C12.83 1.67 13.92 2.33 14.46 3.83C15 5.33 15 7.67 15 10C15 10.55 14.55 11 14 11H10Z" />
    </g>
    <g id="mdi-list-status" transform="translate(0 144) scale(1.5)" fill="#555">
      <path d="M16.5 11L13 7.5L14.4 6.1L16.5 8.2L20.7 4L22.1 5.4L16.5 11M11 7H2V9H11V7M21 13.4L19.6 12L17 14.6L14.4 12L13 13.4L15.6 16L13 18.6L14.4 20L17 17.4L19.6 20L21 18.6L18.4 16L21 13.4M11 15H2V17H11V15Z" />
    </g>
    <g id="mdi-list-status" transform="translate(36 144) scale(1.5)" fill="#fff">
      <path d="M16.5 11L13 7.5L14.4 6.1L16.5 8.2L20.7 4L22.1 5.4L16.5 11M11 7H2V9H11V7M21 13.4L19.6 12L17 14.6L14.4 12L13 13.4L15.6 16L13 18.6L14.4 20L17 17.4L19.6 20L21 18.6L18.4 16L21 13.4M11 15H2V17H11V15Z" />
    </g>
    <g id="mdi-litecoin" transform="translate(72 144) scale(1.5)" fill="#555">
      <path d="M12.55,15.92L13.16,13.78L14.81,13.19L16.25,7.63L14.56,8.31L16.25,2H8L5.38,11.77L3.72,12.34L2.22,17.91L4,17.27L2.66,22H20.16L21.78,15.92H12.55M19.39,21H4L5.46,15.65L3.72,16.3L4.58,13.11L6.24,12.54L8.74,3H15L13.13,10L14.83,9.3L14,12.42L12.33,13L11.22,16.91H20.5L19.39,21Z" />
    </g>
    <g id="mdi-litecoin" transform="translate(108 144) scale(1.5)" fill="#fff">
      <path d="M12.55,15.92L13.16,13.78L14.81,13.19L16.25,7.63L14.56,8.31L16.25,2H8L5.38,11.77L3.72,12.34L2.22,17.91L4,17.27L2.66,22H20.16L21.78,15.92H12.55M19.39,21H4L5.46,15.65L3.72,16.3L4.58,13.11L6.24,12.54L8.74,3H15L13.13,10L14.83,9.3L14,12.42L12.33,13L11.22,16.91H20.5L19.39,21Z" />
    </g>
    <g id="mdi-loading" transform="translate(144 144) scale(1.5)" fill="#555">
      <path d="M12,4V2A10,10 0 0,0 2,12H4A8,8 0 0,1 12,4Z" />
    </g>
    <g id="mdi-loading" transform="translate(180 144) scale(1.5)" fill="#fff">
      <path d="M12,4V2A10,10 0 0,0 2,12H4A8,8 0 0,1 12,4Z" />
    </g>
    <g id="mdi-location-enter" transform="translate(216 144) scale(1.5)" fill="#555">
      <path d="M14 12L10 8V11H2V13H10V16M22 12A10 10 0 0 1 2.46 15H4.59A8 8 0 1 0 4.59 9H2.46A10 10 0 0 1 22 12Z" />
    </g>
    <g id="mdi-location-enter" transform="translate(252 144) scale(1.5)" fill="#fff">
      <path d="M14 12L10 8V11H2V13H10V16M22 12A10 10 0 0 1 2.46 15H4.59A8 8 0 1 0 4.59 9H2.46A10 10 0 0 1 22 12Z" />
    </g>
    <g id="mdi-location-exit" transform="translate(288 144) scale(1.5)" fill="#555">
      <path d="M22 12L18 8V11H10V13H18V16M20 18A10 10 0 1 1 20 6H17.27A8 8 0 1 0 17.27 18Z" />
    </g>
    <g id="mdi-location-exit" transform="translate(324 144) scale(1.5)" fill="#fff">
      <path d="M22 12L18 8V11H10V13H18V16M20 18A10 10 0 1 1 20 6H17.27A8 8 0 1 0 17.27 18Z" />
    </g>
    <g id="mdi-lock" transform="translate(360 144) scale(1.5)" fill="#555">
      <path d="M12,17A2,2 0 0,0 14,15C14,13.89 13.1,13 12,13A2,2 0 0,0 10,15A2,2 0 0,0 12,17M18,8A2,2 0 0,1 20,10V20A2,2 0 0,1 18,22H6A2,2 0 0,1 4,20V10C4,8.89 4.9,8 6,8H7V6A5,5 0 0,1 12,1A5,5 0 0,1 17,6V8H18M12,3A3,3 0 0,0 9,6V8H15V6A3,3 0 0,0 12,3Z" />
    </g>
    <g id="mdi-lock" transform="translate(396 144) scale(1.5)" fill="#fff">
      <path d="M12,17A2,2 0 0,0 14,15C14,13.89 13.1,13 12,13A2,2 0 0,0 10,15A2,2 0 0,0 12,17M18,8A2,2 0 0,1 20,10V20A2,2 0 0,1 18,22H6A2,2 0 0,1 4,20V10C4,8.89 4.9,8 6,8H7V6A5,5 0 0,1 12,1A5,5 0 0,1 17,6V8H18M12,3A3,3 0 0,0 9,6V8H15V6A3,3 0 0,0 12,3Z" />
    </g>
    <g id="mdi-lock-alert" transform="translate(432 144) scale(1.5)" fill="#555">
      <path d="M10 17C11.1 17 12 16.1 12 15C12 13.9 11.1 13 10 13C8.9 13 8 13.9 8 15S8.9 17 10 17M16 8C17.1 8 18 8.9 18 10V20C18 21.1 17.1 22 16 22H4C2.9 22 2 21.1 2 20V10C2 8.9 2.9 8 4 8H5V6C5 3.2 7.2 1 10 1S15 3.2 15 6V8H16M10 3C8.3 3 7 4.3 7 6V8H13V6C13 4.3 11.7 3 10 3M22 13H20V7H22V13M22 17H20V15H22V17Z" />
    </g>
    <g id="mdi-lock-alert" transform="translate(468 144) scale(1.5)" fill="#fff">
      <path d="M10 17C11.1 17 12 16.1 12 15C12 13.9 11.1 13 10 13C8.9 13 8 13.9 8 15S8.9 17 10 17M16 8C17.1 8 18 8.9 18 10V20C18 21.1 17.1 22 16 22H4C2.9 22 2 21.1 2 20V10C2 8.9 2.9 8 4 8H5V6C5 3.2 7.2 1 10 1S15 3.2 15 6V8H16M10 3C8.3 3 7 4.3 7 6V8H13V6C13 4.3 11.7 3 10 3M22 13H20V7H22V13M22 17H20V15H22V17Z" />
    </g>
    <g id="mdi-lock-alert-outline" transform="translate(504 144) scale(1.5)" fill="#555">
      <path d="M10 17C8.9 17 8 16.1 8 15C8 13.9 8.9 13 10 13C11.1 13 12 13.9 12 15S11.1 17 10 17M16 20V10H4V20H16M16 8C17.1 8 18 8.9 18 10V20C18 21.1 17.1 22 16 22H4C2.9 22 2 21.1 2 20V10C2 8.9 2.9 8 4 8H5V6C5 3.2 7.2 1 10 1S15 3.2 15 6V8H16M10 3C8.3 3 7 4.3 7 6V8H13V6C13 4.3 11.7 3 10 3M22 7H20V13H22V7M22 15H20V17H22V15Z" />
    </g>
    <g id="mdi-lock-alert-outline" transform="translate(540 144) scale(1.5)" fill="#fff">
      <path d="M10 17C8.9 17 8 16.1 8 15C8 13.9 8.9 13 10 13C11.1 13 12 13.9 12 15S11.1 17 10 17M16 20V10H4V20H16M16 8C17.1 8 18 8.9 18 10V20C18 21.1 17.1 22 16 22H4C2.9 22 2 21.1 2 20V10C2 8.9 2.9 8 4 8H5V6C5 3.2 7.2 1 10 1S15 3.2 15 6V8H16M10 3C8.3 3 7 4.3 7 6V8H13V6C13 4.3 11.7 3 10 3M22 7H20V13H22V7M22 15H20V17H22V15Z" />
    </g>
    <g id="mdi-lock-check" transform="translate(576 144) scale(1.5)" fill="#555">
      <path d="M19 13C19.34 13 19.67 13.04 20 13.09V10C20 8.9 19.11 8 18 8H17V6C17 3.24 14.76 1 12 1S7 3.24 7 6V8H6C4.9 8 4 8.89 4 10V20C4 21.11 4.89 22 6 22H13.81C13.3 21.12 13 20.1 13 19C13 15.69 15.69 13 19 13M9 6C9 4.34 10.34 3 12 3S15 4.34 15 6V8H9V6M12 17C10.9 17 10 16.11 10 15S10.9 13 12 13C13.1 13 14 13.89 14 15C14 16.11 13.11 17 12 17M22.5 17.25L17.75 22L15 19L16.16 17.84L17.75 19.43L21.34 15.84L22.5 17.25Z" />
    </g>
    <g id="mdi-lock-check" transform="translate(612 144) scale(1.5)" fill="#fff">
      <path d="M19 13C19.34 13 19.67 13.04 20 13.09V10C20 8.9 19.11 8 18 8H17V6C17 3.24 14.76 1 12 1S7 3.24 7 6V8H6C4.9 8 4 8.89 4 10V20C4 21.11 4.89 22 6 22H13.81C13.3 21.12 13 20.1 13 19C13 15.69 15.69 13 19 13M9 6C9 4.34 10.34 3 12 3S15 4.34 15 6V8H9V6M12 17C10.9 17 10 16.11 10 15S10.9 13 12 13C13.1 13 14 13.89 14 15C14 16.11 13.11 17 12 17M22.5 17.25L17.75 22L15 19L16.16 17.84L17.75 19.43L21.34 15.84L22.5 17.25Z" />
    </g>
    <g id="mdi-lock-check-outline" transform="translate(648 144) scale(1.5)" fill="#555">
      <path d="M14 15C14 16.11 13.11 17 12 17C10.89 17 10 16.1 10 15C10 13.89 10.89 13 12 13C13.11 13 14 13.9 14 15M13.09 20C13.21 20.72 13.46 21.39 13.81 22H6C4.89 22 4 21.1 4 20V10C4 8.89 4.89 8 6 8H7V6C7 3.24 9.24 1 12 1S17 3.24 17 6V8H18C19.11 8 20 8.9 20 10V13.09C19.67 13.04 19.34 13 19 13C18.66 13 18.33 13.04 18 13.09V10H6V20H13.09M9 8H15V6C15 4.34 13.66 3 12 3S9 4.34 9 6V8M21.34 15.84L17.75 19.43L16.16 17.84L15 19L17.75 22L22.5 17.25L21.34 15.84Z" />
    </g>
    <g id="mdi-lock-check-outline" transform="translate(684 144) scale(1.5)" fill="#fff">
      <path d="M14 15C14 16.11 13.11 17 12 17C10.89 17 10 16.1 10 15C10 13.89 10.89 13 12 13C13.11 13 14 13.9 14 15M13.09 20C13.21 20.72 13.46 21.39 13.81 22H6C4.89 22 4 21.1 4 20V10C4 8.89 4.89 8 6 8H7V6C7 3.24 9.24 1 12 1S17 3.24 17 6V8H18C19.11 8 20 8.9 20 10V13.09C19.67 13.04 19.34 13 19 13C18.66 13 18.33 13.04 18 13.09V10H6V20H13.09M9 8H15V6C15 4.34 13.66 3 12 3S9 4.34 9 6V8M21.34 15.84L17.75 19.43L16.16 17.84L15 19L17.75 22L22.5 17.25L21.34 15.84Z" />
    </g>
    <g id="mdi-lock-clock" transform="translate(0 180) scale(1.5)" fill="#555">
      <path d="M8.5,2C6,2 4,4 4,6.5V7C2.89,7 2,7.89 2,9V18C2,19.11 2.89,20 4,20H8.72C10.18,21.29 12.06,22 14,22A8,8 0 0,0 22,14A8,8 0 0,0 14,6C13.66,6 13.32,6.03 13,6.08C12.76,3.77 10.82,2 8.5,2M8.5,4A2.5,2.5 0 0,1 11,6.5V7H6V6.5A2.5,2.5 0 0,1 8.5,4M14,8A6,6 0 0,1 20,14A6,6 0 0,1 14,20A6,6 0 0,1 8,14A6,6 0 0,1 14,8M13,10V15L16.64,17.19L17.42,15.9L14.5,14.15V10H13Z" />
    </g>
    <g id="mdi-lock-clock" transform="translate(36 180) scale(1.5)" fill="#fff">
      <path d="M8.5,2C6,2 4,4 4,6.5V7C2.89,7 2,7.89 2,9V18C2,19.11 2.89,20 4,20H8.72C10.18,21.29 12.06,22 14,22A8,8 0 0,0 22,14A8,8 0 0,0 14,6C13.66,6 13.32,6.03 13,6.08C12.76,3.77 10.82,2 8.5,2M8.5,4A2.5,2.5 0 0,1 11,6.5V7H6V6.5A2.5,2.5 0 0,1 8.5,4M14,8A6,6 0 0,1 20,14A6,6 0 0,1 14,20A6,6 0 0,1 8,14A6,6 0 0,1 14,8M13,10V15L16.64,17.19L17.42,15.9L14.5,14.15V10H13Z" />
    </g>
    <g id="mdi-lock-minus" transform="translate(72 180) scale(1.5)" fill="#555">
      <path d="M19 13C19.34 13 19.67 13.04 20 13.09V10C20 8.9 19.11 8 18 8H17V6C17 3.24 14.76 1 12 1S7 3.24 7 6V8H6C4.9 8 4 8.89 4 10V20C4 21.11 4.89 22 6 22H13.81C13.3 21.12 13 20.1 13 19C13 15.69 15.69 13 19 13M9 6C9 4.34 10.34 3 12 3S15 4.34 15 6V8H9V6M12 17C10.9 17 10 16.11 10 15S10.9 13 12 13C13.1 13 14 13.89 14 15C14 16.11 13.11 17 12 17M23 18V20H15V18H23Z" />
    </g>
    <g id="mdi-lock-minus" transform="translate(108 180) scale(1.5)" fill="#fff">
      <path d="M19 13C19.34 13 19.67 13.04 20 13.09V10C20 8.9 19.11 8 18 8H17V6C17 3.24 14.76 1 12 1S7 3.24 7 6V8H6C4.9 8 4 8.89 4 10V20C4 21.11 4.89 22 6 22H13.81C13.3 21.12 13 20.1 13 19C13 15.69 15.69 13 19 13M9 6C9 4.34 10.34 3 12 3S15 4.34 15 6V8H9V6M12 17C10.9 17 10 16.11 10 15S10.9 13 12 13C13.1 13 14 13.89 14 15C14 16.11 13.11 17 12 17M23 18V20H15V18H23Z" />
    </g>
    <g id="mdi-lock-minus-outline" transform="translate(144 180) scale(1.5)" fill="#555">
      <path d="M14 15C14 16.11 13.11 17 12 17C10.89 17 10 16.1 10 15C10 13.89 10.89 13 12 13C13.11 13 14 13.9 14 15M13.09 20C13.21 20.72 13.46 21.39 13.81 22H6C4.89 22 4 21.1 4 20V10C4 8.89 4.89 8 6 8H7V6C7 3.24 9.24 1 12 1S17 3.24 17 6V8H18C19.11 8 20 8.9 20 10V13.09C19.67 13.04 19.34 13 19 13C18.66 13 18.33 13.04 18 13.09V10H6V20H13.09M9 8H15V6C15 4.34 13.66 3 12 3S9 4.34 9 6V8M15 18V20H23V18H15Z" />
    </g>
    <g id="mdi-lock-minus-outline" transform="translate(180 180) scale(1.5)" fill="#fff">
      <path d="M14 15C14 16.11 13.11 17 12 17C10.89 17 10 16.1 10 15C10 13.89 10.89 13 12 13C13.11 13 14 13.9 14 15M13.09 20C13.21 20.72 13.46 21.39 13.81 22H6C4.89 22 4 21.1 4 20V10C4 8.89 4.89 8 6 8H7V6C7 3.24 9.24 1 12 1S17 3.24 17 6V8H18C19.11 8 20 8.9 20 10V13.09C19.67 13.04 19.34 13 19 13C18.66 13 18.33 13.04 18 13.09V10H6V20H13.09M9 8H15V6C15 4.34 13.66 3 12 3S9 4.34 9 6V8M15 18V20H23V18H15Z" />
    </g>
    <g id="mdi-lock-off" transform="translate(216 180) scale(1.5)" fill="#555">
      <path d="M9 5.82L7.36 4.16C8.09 2.31 9.89 1 12 1C14.76 1 17 3.24 17 6V8H18C19.11 8 20 8.9 20 10V16.8L11.2 8H15V6C15 4.34 13.66 3 12 3C10.41 3 9.11 4.25 9 5.82M22.11 21.46L20.84 22.73L19.46 21.35C19.1 21.75 18.58 22 18 22H6C4.89 22 4 21.11 4 20V10C4 8.89 4.9 8 6 8H6.11L1.11 3L2.39 1.73L22.11 21.46M13.85 15.74L11.26 13.15C10.5 13.44 10 14.16 10 15C10 16.11 10.9 17 12 17C12.84 17 13.56 16.5 13.85 15.74Z" />
    </g>
    <g id="mdi-lock-off" transform="translate(252 180) scale(1.5)" fill="#fff">
      <path d="M9 5.82L7.36 4.16C8.09 2.31 9.89 1 12 1C14.76 1 17 3.24 17 6V8H18C19.11 8 20 8.9 20 10V16.8L11.2 8H15V6C15 4.34 13.66 3 12 3C10.41 3 9.11 4.25 9 5.82M22.11 21.46L20.84 22.73L19.46 21.35C19.1 21.75 18.58 22 18 22H6C4.89 22 4 21.11 4 20V10C4 8.89 4.9 8 6 8H6.11L1.11 3L2.39 1.73L22.11 21.46M13.85 15.74L11.26 13.15C10.5 13.44 10 14.16 10 15C10 16.11 10.9 17 12 17C12.84 17 13.56 16.5 13.85 15.74Z" />
    </g>
    <g id="mdi-lock-off-outline" transform="translate(288 180) scale(1.5)" fill="#555">
      <path d="M9 5.82L7.36 4.16C8.09 2.31 9.89 1 12 1C14.76 1 17 3.24 17 6V8H18C19.11 8 20 8.9 20 10V16.8L18 14.8V10H13.2L11.2 8H15V6C15 4.34 13.66 3 12 3C10.41 3 9.11 4.25 9 5.82M22.11 21.46L20.84 22.73L19.46 21.35C19.1 21.75 18.58 22 18 22H6C4.89 22 4 21.1 4 20V10C4 8.89 4.89 8 6 8H6.11L1.11 3L2.39 1.73L22.11 21.46M18 19.89L13.85 15.74C13.56 16.5 12.84 17 12 17C10.89 17 10 16.1 10 15C10 14.15 10.5 13.44 11.26 13.15L8.11 10H6V20H18V19.89Z" />
    </g>
    <g id="mdi-lock-off-outline" transform="translate(324 180) scale(1.5)" fill="#fff">
      <path d="M9 5.82L7.36 4.16C8.09 2.31 9.89 1 12 1C14.76 1 17 3.24 17 6V8H18C19.11 8 20 8.9 20 10V16.8L18 14.8V10H13.2L11.2 8H15V6C15 4.34 13.66 3 12 3C10.41 3 9.11 4.25 9 5.82M22.11 21.46L20.84 22.73L19.46 21.35C19.1 21.75 18.58 22 18 22H6C4.89 22 4 21.1 4 20V10C4 8.89 4.89 8 6 8H6.11L1.11 3L2.39 1.73L22.11 21.46M18 19.89L13.85 15.74C13.56 16.5 12.84 17 12 17C10.89 17 10 16.1 10 15C10 14.15 10.5 13.44 11.26 13.15L8.11 10H6V20H18V19.89Z" />
    </g>
    <g id="mdi-lock-open" transform="translate(360 180) scale(1.5)" fill="#555">
      <path d="M18,8A2,2 0 0,1 20,10V20A2,2 0 0,1 18,22H6C4.89,22 4,21.1 4,20V10A2,2 0 0,1 6,8H15V6A3,3 0 0,0 12,3A3,3 0 0,0 9,6H7A5,5 0 0,1 12,1A5,5 0 0,1 17,6V8H18M12,17A2,2 0 0,0 14,15A2,2 0 0,0 12,13A2,2 0 0,0 10,15A2,2 0 0,0 12,17Z" />
    </g>
    <g id="mdi-lock-open" transform="translate(396 180) scale(1.5)" fill="#fff">
      <path d="M18,8A2,2 0 0,1 20,10V20A2,2 0 0,1 18,22H6C4.89,22 4,21.1 4,20V10A2,2 0 0,1 6,8H15V6A3,3 0 0,0 12,3A3,3 0 0,0 9,6H7A5,5 0 0,1 12,1A5,5 0 0,1 17,6V8H18M12,17A2,2 0 0,0 14,15A2,2 0 0,0 12,13A2,2 0 0,0 10,15A2,2 0 0,0 12,17Z" />
    </g>
    <g id="mdi-lock-open-alert" transform="translate(432 180) scale(1.5)" fill="#555">
      <path d="M16 8C17.1 8 18 8.9 18 10V20C18 21.1 17.1 22 16 22H4C2.9 22 2 21.1 2 20V10C2 8.9 2.9 8 4 8H13V6C13 4.3 11.7 3 10 3S7 4.3 7 6H5C5 3.2 7.2 1 10 1S15 3.2 15 6V8H16M10 17C11.1 17 12 16.1 12 15S11.1 13 10 13 8 13.9 8 15 8.9 17 10 17M22 13H20V7H22V13M22 17H20V15H22V17Z" />
    </g>
    <g id="mdi-lock-open-alert" transform="translate(468 180) scale(1.5)" fill="#fff">
      <path d="M16 8C17.1 8 18 8.9 18 10V20C18 21.1 17.1 22 16 22H4C2.9 22 2 21.1 2 20V10C2 8.9 2.9 8 4 8H13V6C13 4.3 11.7 3 10 3S7 4.3 7 6H5C5 3.2 7.2 1 10 1S15 3.2 15 6V8H16M10 17C11.1 17 12 16.1 12 15S11.1 13 10 13 8 13.9 8 15 8.9 17 10 17M22 13H20V7H22V13M22 17H20V15H22V17Z" />
    </g>
    <g id="mdi-lock-open-alert-outline" transform="translate(504 180) scale(1.5)" fill="#555">
      <path d="M16 20V10H4V20H16M16 8C17.1 8 18 8.9 18 10V20C18 21.1 17.1 22 16 22H4C2.9 22 2 21.1 2 20V10C2 8.9 2.9 8 4 8H13V6C13 4.3 11.7 3 10 3S7 4.3 7 6H5C5 3.2 7.2 1 10 1S15 3.2 15 6V8H16M10 17C8.9 17 8 16.1 8 15S8.9 13 10 13 12 13.9 12 15 11.1 17 10 17M22 7H20V13H22V7M22 15H20V17H22V15Z" />
    </g>
    <g id="mdi-lock-open-alert-outline" transform="translate(540 180) scale(1.5)" fill="#fff">
      <path d="M16 20V10H4V20H16M16 8C17.1 8 18 8.9 18 10V20C18 21.1 17.1 22 16 22H4C2.9 22 2 21.1 2 20V10C2 8.9 2.9 8 4 8H13V6C13 4.3 11.7 3 10 3S7 4.3 7 6H5C5 3.2 7.2 1 10 1S15 3.2 15 6V8H16M10 17C8.9 17 8 16.1 8 15S8.9 13 10 13 12 13.9 12 15 11.1 17 10 17M22 7H20V13H22V7M22 15H20V17H22V15Z" />
    </g>
    <g id="mdi-lock-open-check" transform="translate(576 180) scale(1.5)" fill="#555">
      <path d="M19 13C19.34 13 19.67 13.04 20 13.09V10C20 8.9 19.11 8 18 8H17V6C17 3.24 14.76 1 12 1S7 3.24 7 6H9C9 4.34 10.34 3 12 3S15 4.34 15 6V8H6C4.89 8 4 8.9 4 10V20C4 21.1 4.89 22 6 22H13.81C13.3 21.12 13 20.1 13 19C13 15.69 15.69 13 19 13M12 17C10.9 17 10 16.11 10 15S10.9 13 12 13 14 13.9 14 15 13.11 17 12 17M22.5 17.25L17.75 22L15 19L16.16 17.84L17.75 19.43L21.34 15.84L22.5 17.25Z" />
    </g>
    <g id="mdi-lock-open-check" transform="translate(612 180) scale(1.5)" fill="#fff">
      <path d="M19 13C19.34 13 19.67 13.04 20 13.09V10C20 8.9 19.11 8 18 8H17V6C17 3.24 14.76 1 12 1S7 3.24 7 6H9C9 4.34 10.34 3 12 3S15 4.34 15 6V8H6C4.89 8 4 8.9 4 10V20C4 21.1 4.89 22 6 22H13.81C13.3 21.12 13 20.1 13 19C13 15.69 15.69 13 19 13M12 17C10.9 17 10 16.11 10 15S10.9 13 12 13 14 13.9 14 15 13.11 17 12 17M22.5 17.25L17.75 22L15 19L16.16 17.84L17.75 19.43L21.34 15.84L22.5 17.25Z" />
    </g>
    <g id="mdi-lock-open-check-outline" transform="translate(648 180) scale(1.5)" fill="#555">
      <path d="M14 15C14 16.11 13.11 17 12 17S10 16.11 10 15 10.9 13 12 13 14 13.9 14 15M6 20V10H18V13.09C18.33 13.04 18.66 13 19 13C19.34 13 19.67 13.04 20 13.09V10C20 8.9 19.11 8 18 8H17V6C17 3.24 14.76 1 12 1S7 3.24 7 6H9C9 4.34 10.34 3 12 3S15 4.34 15 6V8H6C4.89 8 4 8.9 4 10V20C4 21.1 4.89 22 6 22H13.81C13.46 21.39 13.22 20.72 13.09 20H6M21.34 15.84L17.75 19.43L16.16 17.84L15 19L17.75 22L22.5 17.25L21.34 15.84Z" />
    </g>
    <g id="mdi-lock-open-check-outline" transform="translate(684 180) scale(1.5)" fill="#fff">
      <path d="M14 15C14 16.11 13.11 17 12 17S10 16.11 10 15 10.9 13 12 13 14 13.9 14 15M6 20V10H18V13.09C18.33 13.04 18.66 13 19 13C19.34 13 19.67 13.04 20 13.09V10C20 8.9 19.11 8 18 8H17V6C17 3.24 14.76 1 12 1S7 3.24 7 6H9C9 4.34 10.34 3 12 3S15 4.34 15 6V8H6C4.89 8 4 8.9 4 10V20C4 21.1 4.89 22 6 22H13.81C13.46 21.39 13.22 20.72 13.09 20H6M21.34 15.84L17.75 19.43L16.16 17.84L15 19L17.75 22L22.5 17.25L21.34 15.84Z" />
    </g>
    <g id="mdi-lock-open-minus" transform="translate(0 216) scale(1.5)" fill="#555">
      <path d="M19 13C19.34 13 19.67 13.04 20 13.09V10C20 8.9 19.11 8 18 8H17V6C17 3.24 14.76 1 12 1S7 3.24 7 6H9C9 4.34 10.34 3 12 3S15 4.34 15 6V8H6C4.89 8 4 8.9 4 10V20C4 21.1 4.89 22 6 22H13.81C13.3 21.12 13 20.1 13 19C13 15.69 15.69 13 19 13M12 17C10.9 17 10 16.11 10 15S10.9 13 12 13 14 13.9 14 15 13.11 17 12 17M23 18V20H15V18H23Z" />
    </g>
    <g id="mdi-lock-open-minus" transform="translate(36 216) scale(1.5)" fill="#fff">
      <path d="M19 13C19.34 13 19.67 13.04 20 13.09V10C20 8.9 19.11 8 18 8H17V6C17 3.24 14.76 1 12 1S7 3.24 7 6H9C9 4.34 10.34 3 12 3S15 4.34 15 6V8H6C4.89 8 4 8.9 4 10V20C4 21.1 4.89 22 6 22H13.81C13.3 21.12 13 20.1 13 19C13 15.69 15.69 13 19 13M12 17C10.9 17 10 16.11 10 15S10.9 13 12 13 14 13.9 14 15 13.11 17 12 17M23 18V20H15V18H23Z" />
    </g>
    <g id="mdi-lock-open-minus-outline" transform="translate(72 216) scale(1.5)" fill="#555">
      <path d="M14 15C14 16.11 13.11 17 12 17S10 16.11 10 15 10.9 13 12 13 14 13.9 14 15M6 20V10H18V13.09C18.33 13.04 18.66 13 19 13C19.34 13 19.67 13.04 20 13.09V10C20 8.9 19.11 8 18 8H17V6C17 3.24 14.76 1 12 1S7 3.24 7 6H9C9 4.34 10.34 3 12 3S15 4.34 15 6V8H6C4.89 8 4 8.9 4 10V20C4 21.1 4.89 22 6 22H13.81C13.46 21.39 13.22 20.72 13.09 20H6M15 18V20H23V18H15Z" />
    </g>
    <g id="mdi-lock-open-minus-outline" transform="translate(108 216) scale(1.5)" fill="#fff">
      <path d="M14 15C14 16.11 13.11 17 12 17S10 16.11 10 15 10.9 13 12 13 14 13.9 14 15M6 20V10H18V13.09C18.33 13.04 18.66 13 19 13C19.34 13 19.67 13.04 20 13.09V10C20 8.9 19.11 8 18 8H17V6C17 3.24 14.76 1 12 1S7 3.24 7 6H9C9 4.34 10.34 3 12 3S15 4.34 15 6V8H6C4.89 8 4 8.9 4 10V20C4 21.1 4.89 22 6 22H13.81C13.46 21.39 13.22 20.72 13.09 20H6M15 18V20H23V18H15Z" />
    </g>
    <g id="mdi-lock-open-outline" transform="translate(144 216) scale(1.5)" fill="#555">
      <path d="M18,20V10H6V20H18M18,8A2,2 0 0,1 20,10V20A2,2 0 0,1 18,22H6C4.89,22 4,21.1 4,20V10A2,2 0 0,1 6,8H15V6A3,3 0 0,0 12,3A3,3 0 0,0 9,6H7A5,5 0 0,1 12,1A5,5 0 0,1 17,6V8H18M12,17A2,2 0 0,1 10,15A2,2 0 0,1 12,13A2,2 0 0,1 14,15A2,2 0 0,1 12,17Z" />
    </g>
    <g id="mdi-lock-open-outline" transform="translate(180 216) scale(1.5)" fill="#fff">
      <path d="M18,20V10H6V20H18M18,8A2,2 0 0,1 20,10V20A2,2 0 0,1 18,22H6C4.89,22 4,21.1 4,20V10A2,2 0 0,1 6,8H15V6A3,3 0 0,0 12,3A3,3 0 0,0 9,6H7A5,5 0 0,1 12,1A5,5 0 0,1 17,6V8H18M12,17A2,2 0 0,1 10,15A2,2 0 0,1 12,13A2,2 0 0,1 14,15A2,2 0 0,1 12,17Z" />
    </g>
    <g id="mdi-lock-open-plus" transform="translate(216 216) scale(1.5)" fill="#555">
      <path d="M19 13C19.34 13 19.67 13.04 20 13.09V10C20 8.9 19.11 8 18 8H17V6C17 3.24 14.76 1 12 1S7 3.24 7 6H9C9 4.34 10.34 3 12 3S15 4.34 15 6V8H6C4.89 8 4 8.9 4 10V20C4 21.1 4.89 22 6 22H13.81C13.3 21.12 13 20.1 13 19C13 15.69 15.69 13 19 13M12 17C10.9 17 10 16.11 10 15S10.9 13 12 13 14 13.9 14 15 13.11 17 12 17M23 18V20H20V23H18V20H15V18H18V15H20V18H23Z" />
    </g>
    <g id="mdi-lock-open-plus" transform="translate(252 216) scale(1.5)" fill="#fff">
      <path d="M19 13C19.34 13 19.67 13.04 20 13.09V10C20 8.9 19.11 8 18 8H17V6C17 3.24 14.76 1 12 1S7 3.24 7 6H9C9 4.34 10.34 3 12 3S15 4.34 15 6V8H6C4.89 8 4 8.9 4 10V20C4 21.1 4.89 22 6 22H13.81C13.3 21.12 13 20.1 13 19C13 15.69 15.69 13 19 13M12 17C10.9 17 10 16.11 10 15S10.9 13 12 13 14 13.9 14 15 13.11 17 12 17M23 18V20H20V23H18V20H15V18H18V15H20V18H23Z" />
    </g>
    <g id="mdi-lock-open-plus-outline" transform="translate(288 216) scale(1.5)" fill="#555">
      <path d="M14 15C14 16.11 13.11 17 12 17S10 16.11 10 15 10.9 13 12 13 14 13.9 14 15M6 20V10H18V13.09C18.33 13.04 18.66 13 19 13C19.34 13 19.67 13.04 20 13.09V10C20 8.9 19.11 8 18 8H17V6C17 3.24 14.76 1 12 1S7 3.24 7 6H9C9 4.34 10.34 3 12 3S15 4.34 15 6V8H6C4.89 8 4 8.9 4 10V20C4 21.1 4.89 22 6 22H13.81C13.46 21.39 13.22 20.72 13.09 20H6M20 18V15H18V18H15V20H18V23H20V20H23V18H20Z" />
    </g>
    <g id="mdi-lock-open-plus-outline" transform="translate(324 216) scale(1.5)" fill="#fff">
      <path d="M14 15C14 16.11 13.11 17 12 17S10 16.11 10 15 10.9 13 12 13 14 13.9 14 15M6 20V10H18V13.09C18.33 13.04 18.66 13 19 13C19.34 13 19.67 13.04 20 13.09V10C20 8.9 19.11 8 18 8H17V6C17 3.24 14.76 1 12 1S7 3.24 7 6H9C9 4.34 10.34 3 12 3S15 4.34 15 6V8H6C4.89 8 4 8.9 4 10V20C4 21.1 4.89 22 6 22H13.81C13.46 21.39 13.22 20.72 13.09 20H6M20 18V15H18V18H15V20H18V23H20V20H23V18H20Z" />
    </g>
    <g id="mdi-lock-open-remove" transform="translate(360 216) scale(1.5)" fill="#555">
      <path d="M19 13C19.34 13 19.67 13.04 20 13.09V10C20 8.9 19.11 8 18 8H17V6C17 3.24 14.76 1 12 1S7 3.24 7 6H9C9 4.34 10.34 3 12 3S15 4.34 15 6V8H6C4.89 8 4 8.9 4 10V20C4 21.1 4.89 22 6 22H13.81C13.3 21.12 13 20.1 13 19C13 15.69 15.69 13 19 13M12 17C10.9 17 10 16.11 10 15S10.9 13 12 13 14 13.9 14 15 13.11 17 12 17M20.41 19L22.54 21.12L21.12 22.54L19 20.41L16.88 22.54L15.47 21.12L17.59 19L15.47 16.88L16.88 15.47L19 17.59L21.12 15.47L22.54 16.88L20.41 19Z" />
    </g>
    <g id="mdi-lock-open-remove" transform="translate(396 216) scale(1.5)" fill="#fff">
      <path d="M19 13C19.34 13 19.67 13.04 20 13.09V10C20 8.9 19.11 8 18 8H17V6C17 3.24 14.76 1 12 1S7 3.24 7 6H9C9 4.34 10.34 3 12 3S15 4.34 15 6V8H6C4.89 8 4 8.9 4 10V20C4 21.1 4.89 22 6 22H13.81C13.3 21.12 13 20.1 13 19C13 15.69 15.69 13 19 13M12 17C10.9 17 10 16.11 10 15S10.9 13 12 13 14 13.9 14 15 13.11 17 12 17M20.41 19L22.54 21.12L21.12 22.54L19 20.41L16.88 22.54L15.47 21.12L17.59 19L15.47 16.88L16.88 15.47L19 17.59L21.12 15.47L22.54 16.88L20.41 19Z" />
    </g>
    <g id="mdi-lock-open-remove-outline" transform="translate(432 216) scale(1.5)" fill="#555">
      <path d="M14 15C14 16.11 13.11 17 12 17S10 16.11 10 15 10.9 13 12 13 14 13.9 14 15M6 20V10H18V13.09C18.33 13.04 18.66 13 19 13C19.34 13 19.67 13.04 20 13.09V10C20 8.9 19.11 8 18 8H17V6C17 3.24 14.76 1 12 1S7 3.24 7 6H9C9 4.34 10.34 3 12 3S15 4.34 15 6V8H6C4.89 8 4 8.9 4 10V20C4 21.1 4.89 22 6 22H13.81C13.46 21.39 13.22 20.72 13.09 20H6M22.54 16.88L21.12 15.47L19 17.59L16.88 15.47L15.47 16.88L17.59 19L15.47 21.12L16.88 22.54L19 20.41L21.12 22.54L22.54 21.12L20.41 19L22.54 16.88Z" />
    </g>
    <g id="mdi-lock-open-remove-outline" transform="translate(468 216) scale(1.5)" fill="#fff">
      <path d="M14 15C14 16.11 13.11 17 12 17S10 16.11 10 15 10.9 13 12 13 14 13.9 14 15M6 20V10H18V13.09C18.33 13.04 18.66 13 19 13C19.34 13 19.67 13.04 20 13.09V10C20 8.9 19.11 8 18 8H17V6C17 3.24 14.76 1 12 1S7 3.24 7 6H9C9 4.34 10.34 3 12 3S15 4.34 15 6V8H6C4.89 8 4 8.9 4 10V20C4 21.1 4.89 22 6 22H13.81C13.46 21.39 13.22 20.72 13.09 20H6M22.54 16.88L21.12 15.47L19 17.59L16.88 15.47L15.47 16.88L17.59 19L15.47 21.12L16.88 22.54L19 20.41L21.12 22.54L22.54 21.12L20.41 19L22.54 16.88Z" />
    </g>
    <g id="mdi-lock-open-variant" transform="translate(504 216) scale(1.5)" fill="#555">
      <path d="M18 1C15.24 1 13 3.24 13 6V8H4C2.9 8 2 8.89 2 10V20C2 21.11 2.9 22 4 22H16C17.11 22 18 21.11 18 20V10C18 8.9 17.11 8 16 8H15V6C15 4.34 16.34 3 18 3C19.66 3 21 4.34 21 6V8H23V6C23 3.24 20.76 1 18 1M10 13C11.1 13 12 13.89 12 15C12 16.11 11.11 17 10 17C8.9 17 8 16.11 8 15C8 13.9 8.9 13 10 13Z" />
    </g>
    <g id="mdi-lock-open-variant" transform="translate(540 216) scale(1.5)" fill="#fff">
      <path d="M18 1C15.24 1 13 3.24 13 6V8H4C2.9 8 2 8.89 2 10V20C2 21.11 2.9 22 4 22H16C17.11 22 18 21.11 18 20V10C18 8.9 17.11 8 16 8H15V6C15 4.34 16.34 3 18 3C19.66 3 21 4.34 21 6V8H23V6C23 3.24 20.76 1 18 1M10 13C11.1 13 12 13.89 12 15C12 16.11 11.11 17 10 17C8.9 17 8 16.11 8 15C8 13.9 8.9 13 10 13Z" />
    </g>
    <g id="mdi-lock-open-variant-outline" transform="translate(576 216) scale(1.5)" fill="#555">
      <path d="M10 13C11.1 13 12 13.89 12 15C12 16.11 11.11 17 10 17S8 16.11 8 15 8.9 13 10 13M18 1C15.24 1 13 3.24 13 6V8H4C2.9 8 2 8.9 2 10V20C2 21.1 2.9 22 4 22H16C17.1 22 18 21.1 18 20V10C18 8.9 17.1 8 16 8H15V6C15 4.34 16.34 3 18 3S21 4.34 21 6V8H23V6C23 3.24 20.76 1 18 1M16 10V20H4V10H16Z" />
    </g>
    <g id="mdi-lock-open-variant-outline" transform="translate(612 216) scale(1.5)" fill="#fff">
      <path d="M10 13C11.1 13 12 13.89 12 15C12 16.11 11.11 17 10 17S8 16.11 8 15 8.9 13 10 13M18 1C15.24 1 13 3.24 13 6V8H4C2.9 8 2 8.9 2 10V20C2 21.1 2.9 22 4 22H16C17.1 22 18 21.1 18 20V10C18 8.9 17.1 8 16 8H15V6C15 4.34 16.34 3 18 3S21 4.34 21 6V8H23V6C23 3.24 20.76 1 18 1M16 10V20H4V10H16Z" />
    </g>
    <g id="mdi-lock-outline" transform="translate(648 216) scale(1.5)" fill="#555">
      <path d="M12,17C10.89,17 10,16.1 10,15C10,13.89 10.89,13 12,13A2,2 0 0,1 14,15A2,2 0 0,1 12,17M18,20V10H6V20H18M18,8A2,2 0 0,1 20,10V20A2,2 0 0,1 18,22H6C4.89,22 4,21.1 4,20V10C4,8.89 4.89,8 6,8H7V6A5,5 0 0,1 12,1A5,5 0 0,1 17,6V8H18M12,3A3,3 0 0,0 9,6V8H15V6A3,3 0 0,0 12,3Z" />
    </g>
    <g id="mdi-lock-outline" transform="translate(684 216) scale(1.5)" fill="#fff">
      <path d="M12,17C10.89,17 10,16.1 10,15C10,13.89 10.89,13 12,13A2,2 0 0,1 14,15A2,2 0 0,1 12,17M18,20V10H6V20H18M18,8A2,2 0 0,1 20,10V20A2,2 0 0,1 18,22H6C4.89,22 4,21.1 4,20V10C4,8.89 4.89,8 6,8H7V6A5,5 0 0,1 12,1A5,5 0 0,1 17,6V8H18M12,3A3,3 0 0,0 9,6V8H15V6A3,3 0 0,0 12,3Z" />
    </g>
    <g id="mdi-lock-pattern" transform="translate(0 252) scale(1.5)" fill="#555">
      <path d="M7,3A4,4 0 0,1 11,7C11,8.86 9.73,10.43 8,10.87V13.13C8.37,13.22 8.72,13.37 9.04,13.56L13.56,9.04C13.2,8.44 13,7.75 13,7A4,4 0 0,1 17,3A4,4 0 0,1 21,7A4,4 0 0,1 17,11C16.26,11 15.57,10.8 15,10.45L10.45,15C10.8,15.57 11,16.26 11,17A4,4 0 0,1 7,21A4,4 0 0,1 3,17C3,15.14 4.27,13.57 6,13.13V10.87C4.27,10.43 3,8.86 3,7A4,4 0 0,1 7,3M17,13A4,4 0 0,1 21,17A4,4 0 0,1 17,21A4,4 0 0,1 13,17A4,4 0 0,1 17,13M17,15A2,2 0 0,0 15,17A2,2 0 0,0 17,19A2,2 0 0,0 19,17A2,2 0 0,0 17,15Z" />
    </g>
    <g id="mdi-lock-pattern" transform="translate(36 252) scale(1.5)" fill="#fff">
      <path d="M7,3A4,4 0 0,1 11,7C11,8.86 9.73,10.43 8,10.87V13.13C8.37,13.22 8.72,13.37 9.04,13.56L13.56,9.04C13.2,8.44 13,7.75 13,7A4,4 0 0,1 17,3A4,4 0 0,1 21,7A4,4 0 0,1 17,11C16.26,11 15.57,10.8 15,10.45L10.45,15C10.8,15.57 11,16.26 11,17A4,4 0 0,1 7,21A4,4 0 0,1 3,17C3,15.14 4.27,13.57 6,13.13V10.87C4.27,10.43 3,8.86 3,7A4,4 0 0,1 7,3M17,13A4,4 0 0,1 21,17A4,4 0 0,1 17,21A4,4 0 0,1 13,17A4,4 0 0,1 17,13M17,15A2,2 0 0,0 15,17A2,2 0 0,0 17,19A2,2 0 0,0 19,17A2,2 0 0,0 17,15Z" />
    </g>
    <g id="mdi-lock-plus" transform="translate(72 252) scale(1.5)" fill="#555">
      <path d="M19 13C19.34 13 19.67 13.04 20 13.09V10C20 8.9 19.11 8 18 8H17V6C17 3.24 14.76 1 12 1S7 3.24 7 6V8H6C4.9 8 4 8.89 4 10V20C4 21.11 4.89 22 6 22H13.81C13.3 21.12 13 20.1 13 19C13 15.69 15.69 13 19 13M9 6C9 4.34 10.34 3 12 3S15 4.34 15 6V8H9V6M12 17C10.9 17 10 16.11 10 15S10.9 13 12 13C13.1 13 14 13.89 14 15C14 16.11 13.11 17 12 17M23 18V20H20V23H18V20H15V18H18V15H20V18H23Z" />
    </g>
    <g id="mdi-lock-plus" transform="translate(108 252) scale(1.5)" fill="#fff">
      <path d="M19 13C19.34 13 19.67 13.04 20 13.09V10C20 8.9 19.11 8 18 8H17V6C17 3.24 14.76 1 12 1S7 3.24 7 6V8H6C4.9 8 4 8.89 4 10V20C4 21.11 4.89 22 6 22H13.81C13.3 21.12 13 20.1 13 19C13 15.69 15.69 13 19 13M9 6C9 4.34 10.34 3 12 3S15 4.34 15 6V8H9V6M12 17C10.9 17 10 16.11 10 15S10.9 13 12 13C13.1 13 14 13.89 14 15C14 16.11 13.11 17 12 17M23 18V20H20V23H18V20H15V18H18V15H20V18H23Z" />
    </g>
    <g id="mdi-lock-plus-outline" transform="translate(144 252) scale(1.5)" fill="#555">
      <path d="M6 20V10H18V13.09C18.33 13.04 18.66 13 19 13C19.34 13 19.67 13.04 20 13.09V10C20 8.9 19.11 8 18 8H17V6C17 3.24 14.76 1 12 1S7 3.24 7 6V8H6C4.89 8 4 8.89 4 10V20C4 21.1 4.89 22 6 22H13.81C13.46 21.39 13.22 20.72 13.09 20H6M9 6C9 4.34 10.34 3 12 3S15 4.34 15 6V8H9V6M14 15C14 16.11 13.11 17 12 17C10.89 17 10 16.1 10 15C10 13.89 10.89 13 12 13C13.11 13 14 13.9 14 15M23 18V20H20V23H18V20H15V18H18V15H20V18H23Z" />
    </g>
    <g id="mdi-lock-plus-outline" transform="translate(180 252) scale(1.5)" fill="#fff">
      <path d="M6 20V10H18V13.09C18.33 13.04 18.66 13 19 13C19.34 13 19.67 13.04 20 13.09V10C20 8.9 19.11 8 18 8H17V6C17 3.24 14.76 1 12 1S7 3.24 7 6V8H6C4.89 8 4 8.89 4 10V20C4 21.1 4.89 22 6 22H13.81C13.46 21.39 13.22 20.72 13.09 20H6M9 6C9 4.34 10.34 3 12 3S15 4.34 15 6V8H9V6M14 15C14 16.11 13.11 17 12 17C10.89 17 10 16.1 10 15C10 13.89 10.89 13 12 13C13.11 13 14 13.9 14 15M23 18V20H20V23H18V20H15V18H18V15H20V18H23Z" />
    </g>
    <g id="mdi-lock-question" transform="translate(216 252) scale(1.5)" fill="#555">
      <path d="M12,1A5,5 0 0,0 7,6V8H6A2,2 0 0,0 4,10V20A2,2 0 0,0 6,22H18A2,2 0 0,0 20,20V10A2,2 0 0,0 18,8H17V6A5,5 0 0,0 12,1M12,2.9C13.71,2.9 15.1,4.29 15.1,6V8H8.9V6C8.9,4.29 10.29,2.9 12,2.9M12.19,10.5C13.13,10.5 13.88,10.71 14.42,11.12C14.96,11.54 15.23,12.1 15.23,12.8C15.23,13.24 15.08,13.63 14.79,14C14.5,14.36 14.12,14.64 13.66,14.85C13.4,15 13.23,15.15 13.14,15.32C13.05,15.5 13,15.72 13,16H11C11,15.5 11.1,15.16 11.29,14.92C11.5,14.68 11.84,14.4 12.36,14.08C12.62,13.94 12.83,13.76 13,13.54C13.14,13.33 13.22,13.08 13.22,12.8C13.22,12.5 13.13,12.28 12.95,12.11C12.77,11.93 12.5,11.85 12.19,11.85C11.92,11.85 11.7,11.92 11.5,12.06C11.34,12.2 11.24,12.41 11.24,12.69H9.27C9.22,12 9.5,11.4 10.05,11.04C10.59,10.68 11.3,10.5 12.19,10.5M11,17H13V19H11V17Z" />
    </g>
    <g id="mdi-lock-question" transform="translate(252 252) scale(1.5)" fill="#fff">
      <path d="M12,1A5,5 0 0,0 7,6V8H6A2,2 0 0,0 4,10V20A2,2 0 0,0 6,22H18A2,2 0 0,0 20,20V10A2,2 0 0,0 18,8H17V6A5,5 0 0,0 12,1M12,2.9C13.71,2.9 15.1,4.29 15.1,6V8H8.9V6C8.9,4.29 10.29,2.9 12,2.9M12.19,10.5C13.13,10.5 13.88,10.71 14.42,11.12C14.96,11.54 15.23,12.1 15.23,12.8C15.23,13.24 15.08,13.63 14.79,14C14.5,14.36 14.12,14.64 13.66,14.85C13.4,15 13.23,15.15 13.14,15.32C13.05,15.5 13,15.72 13,16H11C11,15.5 11.1,15.16 11.29,14.92C11.5,14.68 11.84,14.4 12.36,14.08C12.62,13.94 12.83,13.76 13,13.54C13.14,13.33 13.22,13.08 13.22,12.8C13.22,12.5 13.13,12.28 12.95,12.11C12.77,11.93 12.5,11.85 12.19,11.85C11.92,11.85 11.7,11.92 11.5,12.06C11.34,12.2 11.24,12.41 11.24,12.69H9.27C9.22,12 9.5,11.4 10.05,11.04C10.59,10.68 11.3,10.5 12.19,10.5M11,17H13V19H11V17Z" />
    </g>
    <g id="mdi-lock-remove" transform="translate(288 252) scale(1.5)" fill="#555">
      <path d="M19 13C19.34 13 19.67 13.04 20 13.09V10C20 8.9 19.11 8 18 8H17V6C17 3.24 14.76 1 12 1S7 3.24 7 6V8H6C4.9 8 4 8.89 4 10V20C4 21.11 4.89 22 6 22H13.81C13.3 21.12 13 20.1 13 19C13 15.69 15.69 13 19 13M9 6C9 4.34 10.34 3 12 3S15 4.34 15 6V8H9V6M12 17C10.9 17 10 16.11 10 15S10.9 13 12 13C13.1 13 14 13.89 14 15C14 16.11 13.11 17 12 17M20.41 19L22.54 21.12L21.12 22.54L19 20.41L16.88 22.54L15.47 21.12L17.59 19L15.47 16.88L16.88 15.47L19 17.59L21.12 15.47L22.54 16.88L20.41 19Z" />
    </g>
    <g id="mdi-lock-remove" transform="translate(324 252) scale(1.5)" fill="#fff">
      <path d="M19 13C19.34 13 19.67 13.04 20 13.09V10C20 8.9 19.11 8 18 8H17V6C17 3.24 14.76 1 12 1S7 3.24 7 6V8H6C4.9 8 4 8.89 4 10V20C4 21.11 4.89 22 6 22H13.81C13.3 21.12 13 20.1 13 19C13 15.69 15.69 13 19 13M9 6C9 4.34 10.34 3 12 3S15 4.34 15 6V8H9V6M12 17C10.9 17 10 16.11 10 15S10.9 13 12 13C13.1 13 14 13.89 14 15C14 16.11 13.11 17 12 17M20.41 19L22.54 21.12L21.12 22.54L19 20.41L16.88 22.54L15.47 21.12L17.59 19L15.47 16.88L16.88 15.47L19 17.59L21.12 15.47L22.54 16.88L20.41 19Z" />
    </g>
    <g id="mdi-lock-remove-outline" transform="translate(360 252) scale(1.5)" fill="#555">
      <path d="M14 15C14 16.11 13.11 17 12 17C10.89 17 10 16.1 10 15C10 13.89 10.89 13 12 13C13.11 13 14 13.9 14 15M13.09 20C13.21 20.72 13.46 21.39 13.81 22H6C4.89 22 4 21.1 4 20V10C4 8.89 4.89 8 6 8H7V6C7 3.24 9.24 1 12 1S17 3.24 17 6V8H18C19.11 8 20 8.9 20 10V13.09C19.67 13.04 19.34 13 19 13C18.66 13 18.33 13.04 18 13.09V10H6V20H13.09M9 8H15V6C15 4.34 13.66 3 12 3S9 4.34 9 6V8M22.54 16.88L21.12 15.47L19 17.59L16.88 15.47L15.47 16.88L17.59 19L15.47 21.12L16.88 22.54L19 20.41L21.12 22.54L22.54 21.12L20.41 19L22.54 16.88Z" />
    </g>
    <g id="mdi-lock-remove-outline" transform="translate(396 252) scale(1.5)" fill="#fff">
      <path d="M14 15C14 16.11 13.11 17 12 17C10.89 17 10 16.1 10 15C10 13.89 10.89 13 12 13C13.11 13 14 13.9 14 15M13.09 20C13.21 20.72 13.46 21.39 13.81 22H6C4.89 22 4 21.1 4 20V10C4 8.89 4.89 8 6 8H7V6C7 3.24 9.24 1 12 1S17 3.24 17 6V8H18C19.11 8 20 8.9 20 10V13.09C19.67 13.04 19.34 13 19 13C18.66 13 18.33 13.04 18 13.09V10H6V20H13.09M9 8H15V6C15 4.34 13.66 3 12 3S9 4.34 9 6V8M22.54 16.88L21.12 15.47L19 17.59L16.88 15.47L15.47 16.88L17.59 19L15.47 21.12L16.88 22.54L19 20.41L21.12 22.54L22.54 21.12L20.41 19L22.54 16.88Z" />
    </g>
    <g id="mdi-lock-reset" transform="translate(432 252) scale(1.5)" fill="#555">
      <path d="M12.63,2C18.16,2 22.64,6.5 22.64,12C22.64,17.5 18.16,22 12.63,22C9.12,22 6.05,20.18 4.26,17.43L5.84,16.18C7.25,18.47 9.76,20 12.64,20A8,8 0 0,0 20.64,12A8,8 0 0,0 12.64,4C8.56,4 5.2,7.06 4.71,11H7.47L3.73,14.73L0,11H2.69C3.19,5.95 7.45,2 12.63,2M15.59,10.24C16.09,10.25 16.5,10.65 16.5,11.16V15.77C16.5,16.27 16.09,16.69 15.58,16.69H10.05C9.54,16.69 9.13,16.27 9.13,15.77V11.16C9.13,10.65 9.54,10.25 10.04,10.24V9.23C10.04,7.7 11.29,6.46 12.81,6.46C14.34,6.46 15.59,7.7 15.59,9.23V10.24M12.81,7.86C12.06,7.86 11.44,8.47 11.44,9.23V10.24H14.19V9.23C14.19,8.47 13.57,7.86 12.81,7.86Z" />
    </g>
    <g id="mdi-lock-reset" transform="translate(468 252) scale(1.5)" fill="#fff">
      <path d="M12.63,2C18.16,2 22.64,6.5 22.64,12C22.64,17.5 18.16,22 12.63,22C9.12,22 6.05,20.18 4.26,17.43L5.84,16.18C7.25,18.47 9.76,20 12.64,20A8,8 0 0,0 20.64,12A8,8 0 0,0 12.64,4C8.56,4 5.2,7.06 4.71,11H7.47L3.73,14.73L0,11H2.69C3.19,5.95 7.45,2 12.63,2M15.59,10.24C16.09,10.25 16.5,10.65 16.5,11.16V15.77C16.5,16.27 16.09,16.69 15.58,16.69H10.05C9.54,16.69 9.13,16.27 9.13,15.77V11.16C9.13,10.65 9.54,10.25 10.04,10.24V9.23C10.04,7.7 11.29,6.46 12.81,6.46C14.34,6.46 15.59,7.7 15.59,9.23V10.24M12.81,7.86C12.06,7.86 11.44,8.47 11.44,9.23V10.24H14.19V9.23C14.19,8.47 13.57,7.86 12.81,7.86Z" />
    </g>
    <g id="mdi-lock-smart" transform="translate(504 252) scale(1.5)" fill="#555">
      <path d="M12,2A6,6 0 0,0 6,8V16A6,6 0 0,0 12,22A6,6 0 0,0 18,16V8A6,6 0 0,0 12,2M8,6H10V8H8V6M11,6H13V8H11V6M14,6H16V8H14V6M8,9H10V11H8V9M11,9H13V11H11V9M14,9H16V11H14V9M8,12H10V14H8V12M11,12H13V14H11V12M14,12H16V14H14V12M12,16A2,2 0 0,1 14,18A2,2 0 0,1 12,20A2,2 0 0,1 10,18A2,2 0 0,1 12,16Z" />
    </g>
    <g id="mdi-lock-smart" transform="translate(540 252) scale(1.5)" fill="#fff">
      <path d="M12,2A6,6 0 0,0 6,8V16A6,6 0 0,0 12,22A6,6 0 0,0 18,16V8A6,6 0 0,0 12,2M8,6H10V8H8V6M11,6H13V8H11V6M14,6H16V8H14V6M8,9H10V11H8V9M11,9H13V11H11V9M14,9H16V11H14V9M8,12H10V14H8V12M11,12H13V14H11V12M14,12H16V14H14V12M12,16A2,2 0 0,1 14,18A2,2 0 0,1 12,20A2,2 0 0,1 10,18A2,2 0 0,1 12,16Z" />
    </g>
    <g id="mdi-locker" transform="translate(576 252) scale(1.5)" fill="#555">
      <path d="M8,2H16A2,2 0 0,1 18,4V20A2,2 0 0,1 16,22H8A2,2 0 0,1 6,20V4A2,2 0 0,1 8,2M8,4V20H16V4H8M10,13H12V17H10V13M10,6H14V7.5H10V6M10,9H14V10.5H10V9Z" />
    </g>
    <g id="mdi-locker" transform="translate(612 252) scale(1.5)" fill="#fff">
      <path d="M8,2H16A2,2 0 0,1 18,4V20A2,2 0 0,1 16,22H8A2,2 0 0,1 6,20V4A2,2 0 0,1 8,2M8,4V20H16V4H8M10,13H12V17H10V13M10,6H14V7.5H10V6M10,9H14V10.5H10V9Z" />
    </g>
    <g id="mdi-locker-multiple" transform="translate(648 252) scale(1.5)" fill="#555">
      <path d="M3,2H21A2,2 0 0,1 23,4V20A2,2 0 0,1 21,22H3A2,2 0 0,1 1,20V4A2,2 0 0,1 3,2M13,4V20H21V4H13M3,4V20H11V4H3M5,13H7V17H5V13M5,6H9V7.5H5V6M5,9H9V10.5H5V9M15,13H17V17H15V13M15,6H19V7.5H15V6M15,9H19V10.5H15V9Z" />
    </g>
    <g id="mdi-locker-multiple" transform="translate(684 252) scale(1.5)" fill="#fff">
      <path d="M3,2H21A2,2 0 0,1 23,4V20A2,2 0 0,1 21,22H3A2,2 0 0,1 1,20V4A2,2 0 0,1 3,2M13,4V20H21V4H13M3,4V20H11V4H3M5,13H7V17H5V13M5,6H9V7.5H5V6M5,9H9V10.5H5V9M15,13H17V17H15V13M15,6H19V7.5H15V6M15,9H19V10.5H15V9Z" />
    </g>
    <g id="mdi-login" transform="translate(0 288) scale(1.5)" fill="#555">
      <path d="M10,17V14H3V10H10V7L15,12L10,17M10,2H19A2,2 0 0,1 21,4V20A2,2 0 0,1 19,22H10A2,2 0 0,1 8,20V18H10V20H19V4H10V6H8V4A2,2 0 0,1 10,2Z" />
    </g>
    <g id="mdi-login" transform="translate(36 288) scale(1.5)" fill="#fff">
      <path d="M10,17V14H3V10H10V7L15,12L10,17M10,2H19A2,2 0 0,1 21,4V20A2,2 0 0,1 19,22H10A2,2 0 0,1 8,20V18H10V20H19V4H10V6H8V4A2,2 0 0,1 10,2Z" />
    </g>
    <g id="mdi-login-variant" transform="translate(72 288) scale(1.5)" fill="#555">
      <path d="M19,3H5C3.89,3 3,3.89 3,5V9H5V5H19V19H5V15H3V19A2,2 0 0,0 5,21H19A2,2 0 0,0 21,19V5C21,3.89 20.1,3 19,3M10.08,15.58L11.5,17L16.5,12L11.5,7L10.08,8.41L12.67,11H3V13H12.67L10.08,15.58Z" />
    </g>
    <g id="mdi-login-variant" transform="translate(108 288) scale(1.5)" fill="#fff">
      <path d="M19,3H5C3.89,3 3,3.89 3,5V9H5V5H19V19H5V15H3V19A2,2 0 0,0 5,21H19A2,2 0 0,0 21,19V5C21,3.89 20.1,3 19,3M10.08,15.58L11.5,17L16.5,12L11.5,7L10.08,8.41L12.67,11H3V13H12.67L10.08,15.58Z" />
    </g>
    <g id="mdi-logout" transform="translate(144 288) scale(1.5)" fill="#555">
      <path d="M16,17V14H9V10H16V7L21,12L16,17M14,2A2,2 0 0,1 16,4V6H14V4H5V20H14V18H16V20A2,2 0 0,1 14,22H5A2,2 0 0,1 3,20V4A2,2 0 0,1 5,2H14Z" />
    </g>
    <g id="mdi-logout" transform="translate(180 288) scale(1.5)" fill="#fff">
      <path d="M16,17V14H9V10H16V7L21,12L16,17M14,2A2,2 0 0,1 16,4V6H14V4H5V20H14V18H16V20A2,2 0 0,1 14,22H5A2,2 0 0,1 3,20V4A2,2 0 0,1 5,2H14Z" />
    </g>
    <g id="mdi-logout-variant" transform="translate(216 288) scale(1.5)" fill="#555">
      <path d="M14.08,15.59L16.67,13H7V11H16.67L14.08,8.41L15.5,7L20.5,12L15.5,17L14.08,15.59M19,3A2,2 0 0,1 21,5V9.67L19,7.67V5H5V19H19V16.33L21,14.33V19A2,2 0 0,1 19,21H5C3.89,21 3,20.1 3,19V5C3,3.89 3.89,3 5,3H19Z" />
    </g>
    <g id="mdi-logout-variant" transform="translate(252 288) scale(1.5)" fill="#fff">
      <path d="M14.08,15.59L16.67,13H7V11H16.67L14.08,8.41L15.5,7L20.5,12L15.5,17L14.08,15.59M19,3A2,2 0 0,1 21,5V9.67L19,7.67V5H5V19H19V16.33L21,14.33V19A2,2 0 0,1 19,21H5C3.89,21 3,20.1 3,19V5C3,3.89 3.89,3 5,3H19Z" />
    </g>
    <g id="mdi-longitude" transform="translate(288 288) scale(1.5)" fill="#555">
      <path d="M12 2A10 10 0 1 0 22 12A10.03 10.03 0 0 0 12 2M9.4 19.6A8.05 8.05 0 0 1 9.4 4.4A16.45 16.45 0 0 0 7.5 12A16.45 16.45 0 0 0 9.4 19.6M12 20A13.81 13.81 0 0 1 9.5 12A13.81 13.81 0 0 1 12 4A13.81 13.81 0 0 1 14.5 12A13.81 13.81 0 0 1 12 20M14.6 19.6A16.15 16.15 0 0 0 14.6 4.4A8.03 8.03 0 0 1 20 12A7.9 7.9 0 0 1 14.6 19.6Z" />
    </g>
    <g id="mdi-longitude" transform="translate(324 288) scale(1.5)" fill="#fff">
      <path d="M12 2A10 10 0 1 0 22 12A10.03 10.03 0 0 0 12 2M9.4 19.6A8.05 8.05 0 0 1 9.4 4.4A16.45 16.45 0 0 0 7.5 12A16.45 16.45 0 0 0 9.4 19.6M12 20A13.81 13.81 0 0 1 9.5 12A13.81 13.81 0 0 1 12 4A13.81 13.81 0 0 1 14.5 12A13.81 13.81 0 0 1 12 20M14.6 19.6A16.15 16.15 0 0 0 14.6 4.4A8.03 8.03 0 0 1 20 12A7.9 7.9 0 0 1 14.6 19.6Z" />
    </g>
    <g id="mdi-looks" transform="translate(360 288) scale(1.5)" fill="#555">
      <path d="M12,6A11,11 0 0,0 1,17H3C3,12.04 7.04,8 12,8C16.96,8 21,12.04 21,17H23A11,11 0 0,0 12,6M12,10C8.14,10 5,13.14 5,17H7A5,5 0 0,1 12,12A5,5 0 0,1 17,17H19C19,13.14 15.86,10 12,10Z" />
    </g>
    <g id="mdi-looks" transform="translate(396 288) scale(1.5)" fill="#fff">
      <path d="M12,6A11,11 0 0,0 1,17H3C3,12.04 7.04,8 12,8C16.96,8 21,12.04 21,17H23A11,11 0 0,0 12,6M12,10C8.14,10 5,13.14 5,17H7A5,5 0 0,1 12,12A5,5 0 0,1 17,17H19C19,13.14 15.86,10 12,10Z" />
    </g>
    <g id="mdi-lotion" transform="translate(432 288) scale(1.5)" fill="#555">
      <path d="M15.5 6.5C15.5 5.66 17 4 17 4S18.5 5.66 18.5 6.5C18.5 7.33 17.83 8 17 8S15.5 7.33 15.5 6.5M19.5 15C20.88 15 22 13.88 22 12.5C22 10.83 19.5 8 19.5 8S17 10.83 17 12.5C17 13.88 18.12 15 19.5 15M16 12V22H4V12C4 9.03 6.16 6.57 9 6.09V4H7V2H13C14.13 2 15.15 2.39 16 3L14.56 4.44C14.1 4.17 13.57 4 13 4H11V6.09C13.84 6.57 16 9.03 16 12Z" />
    </g>
    <g id="mdi-lotion" transform="translate(468 288) scale(1.5)" fill="#fff">
      <path d="M15.5 6.5C15.5 5.66 17 4 17 4S18.5 5.66 18.5 6.5C18.5 7.33 17.83 8 17 8S15.5 7.33 15.5 6.5M19.5 15C20.88 15 22 13.88 22 12.5C22 10.83 19.5 8 19.5 8S17 10.83 17 12.5C17 13.88 18.12 15 19.5 15M16 12V22H4V12C4 9.03 6.16 6.57 9 6.09V4H7V2H13C14.13 2 15.15 2.39 16 3L14.56 4.44C14.1 4.17 13.57 4 13 4H11V6.09C13.84 6.57 16 9.03 16 12Z" />
    </g>
    <g id="mdi-lotion-outline" transform="translate(504 288) scale(1.5)" fill="#555">
      <path d="M15.5 6.5C15.5 5.66 17 4 17 4S18.5 5.66 18.5 6.5C18.5 7.33 17.83 8 17 8S15.5 7.33 15.5 6.5M19.5 15C20.88 15 22 13.88 22 12.5C22 10.83 19.5 8 19.5 8S17 10.83 17 12.5C17 13.88 18.12 15 19.5 15M16 12V20C16 21.1 15.1 22 14 22H6C4.9 22 4 21.1 4 20V12C4 9.03 6.16 6.57 9 6.09V4H7V2H13C14.13 2 15.15 2.39 16 3L14.56 4.44C14.1 4.17 13.57 4 13 4H11V6.09C13.84 6.57 16 9.03 16 12M14 12C14 9.79 12.21 8 10 8S6 9.79 6 12V20H14V12Z" />
    </g>
    <g id="mdi-lotion-outline" transform="translate(540 288) scale(1.5)" fill="#fff">
      <path d="M15.5 6.5C15.5 5.66 17 4 17 4S18.5 5.66 18.5 6.5C18.5 7.33 17.83 8 17 8S15.5 7.33 15.5 6.5M19.5 15C20.88 15 22 13.88 22 12.5C22 10.83 19.5 8 19.5 8S17 10.83 17 12.5C17 13.88 18.12 15 19.5 15M16 12V20C16 21.1 15.1 22 14 22H6C4.9 22 4 21.1 4 20V12C4 9.03 6.16 6.57 9 6.09V4H7V2H13C14.13 2 15.15 2.39 16 3L14.56 4.44C14.1 4.17 13.57 4 13 4H11V6.09C13.84 6.57 16 9.03 16 12M14 12C14 9.79 12.21 8 10 8S6 9.79 6 12V20H14V12Z" />
    </g>
    <g id="mdi-lotion-plus" transform="translate(576 288) scale(1.5)" fill="#555">
      <path d="M15.5 6.5C15.5 5.66 17 4 17 4S18.5 5.66 18.5 6.5C18.5 7.33 17.83 8 17 8S15.5 7.33 15.5 6.5M19.5 15C20.88 15 22 13.88 22 12.5C22 10.83 19.5 8 19.5 8S17 10.83 17 12.5C17 13.88 18.12 15 19.5 15M13 14H11V12H9V14H7V16H9V18H11V16H13V14M16 12V22H4V12C4 9.03 6.16 6.57 9 6.09V4H7V2H13C14.13 2 15.15 2.39 16 3L14.56 4.44C14.1 4.17 13.57 4 13 4H11V6.09C13.84 6.57 16 9.03 16 12Z" />
    </g>
    <g id="mdi-lotion-plus" transform="translate(612 288) scale(1.5)" fill="#fff">
      <path d="M15.5 6.5C15.5 5.66 17 4 17 4S18.5 5.66 18.5 6.5C18.5 7.33 17.83 8 17 8S15.5 7.33 15.5 6.5M19.5 15C20.88 15 22 13.88 22 12.5C22 10.83 19.5 8 19.5 8S17 10.83 17 12.5C17 13.88 18.12 15 19.5 15M13 14H11V12H9V14H7V16H9V18H11V16H13V14M16 12V22H4V12C4 9.03 6.16 6.57 9 6.09V4H7V2H13C14.13 2 15.15 2.39 16 3L14.56 4.44C14.1 4.17 13.57 4 13 4H11V6.09C13.84 6.57 16 9.03 16 12Z" />
    </g>
    <g id="mdi-lotion-plus-outline" transform="translate(648 288) scale(1.5)" fill="#555">
      <path d="M15.5 6.5C15.5 5.66 17 4 17 4S18.5 5.66 18.5 6.5C18.5 7.33 17.83 8 17 8S15.5 7.33 15.5 6.5M19.5 15C20.88 15 22 13.88 22 12.5C22 10.83 19.5 8 19.5 8S17 10.83 17 12.5C17 13.88 18.12 15 19.5 15M13 14H11V12H9V14H7V16H9V18H11V16H13V14M16 12V20C16 21.1 15.1 22 14 22H6C4.9 22 4 21.1 4 20V12C4 9.03 6.16 6.57 9 6.09V4H7V2H13C14.13 2 15.15 2.39 16 3L14.56 4.44C14.1 4.17 13.57 4 13 4H11V6.09C13.84 6.57 16 9.03 16 12M14 12C14 9.79 12.21 8 10 8S6 9.79 6 12V20H14V12Z" />
    </g>
    <g id="mdi-lotion-plus-outline" transform="translate(684 288) scale(1.5)" fill="#fff">
      <path d="M15.5 6.5C15.5 5.66 17 4 17 4S18.5 5.66 18.5 6.5C18.5 7.33 17.83 8 17 8S15.5 7.33 15.5 6.5M19.5 15C20.88 15 22 13.88 22 12.5C22 10.83 19.5 8 19.5 8S17 10.83 17 12.5C17 13.88 18.12 15 19.5 15M13 14H11V12H9V14H7V16H9V18H11V16H13V14M16 12V20C16 21.1 15.1 22 14 22H6C4.9 22 4 21.1 4 20V12C4 9.03 6.16 6.57 9 6.09V4H7V2H13C14.13 2 15.15 2.39 16 3L14.56 4.44C14.1 4.17 13.57 4 13 4H11V6.09C13.84 6.57 16 9.03 16 12M14 12C14 9.79 12.21 8 10 8S6 9.79 6 12V20H14V12Z" />
    </g>
    <g id="mdi-loupe" transform="translate(0 324) scale(1.5)" fill="#555">
      <path d="M12,20C7.59,20 4,16.41 4,12C4,7.59 7.59,4 12,4C16.41,4 20,7.59 20,12C20,16.41 16.41,20 12,20M12,2A10,10 0 0,0 2,12A10,10 0 0,0 12,22H20A2,2 0 0,0 22,20V12A10,10 0 0,0 12,2M13,7H11V11H7V13H11V17H13V13H17V11H13V7Z" />
    </g>
    <g id="mdi-loupe" transform="translate(36 324) scale(1.5)" fill="#fff">
      <path d="M12,20C7.59,20 4,16.41 4,12C4,7.59 7.59,4 12,4C16.41,4 20,7.59 20,12C20,16.41 16.41,20 12,20M12,2A10,10 0 0,0 2,12A10,10 0 0,0 12,22H20A2,2 0 0,0 22,20V12A10,10 0 0,0 12,2M13,7H11V11H7V13H11V17H13V13H17V11H13V7Z" />
    </g>
    <g id="mdi-lumx" transform="translate(72 324) scale(1.5)" fill="#555">
      <path d="M12.35,1.75L20.13,9.53L13.77,15.89L12.35,14.47L17.3,9.53L10.94,3.16L12.35,1.75M15.89,9.53L14.47,10.94L10.23,6.7L5.28,11.65L3.87,10.23L10.23,3.87L15.89,9.53M10.23,8.11L11.65,9.53L6.7,14.47L13.06,20.84L11.65,22.25L3.87,14.47L10.23,8.11M8.11,14.47L9.53,13.06L13.77,17.3L18.72,12.35L20.13,13.77L13.77,20.13L8.11,14.47Z" />
    </g>
    <g id="mdi-lumx" transform="translate(108 324) scale(1.5)" fill="#fff">
      <path d="M12.35,1.75L20.13,9.53L13.77,15.89L12.35,14.47L17.3,9.53L10.94,3.16L12.35,1.75M15.89,9.53L14.47,10.94L10.23,6.7L5.28,11.65L3.87,10.23L10.23,3.87L15.89,9.53M10.23,8.11L11.65,9.53L6.7,14.47L13.06,20.84L11.65,22.25L3.87,14.47L10.23,8.11M8.11,14.47L9.53,13.06L13.77,17.3L18.72,12.35L20.13,13.77L13.77,20.13L8.11,14.47Z" />
    </g>
    <g id="mdi-lungs" transform="translate(144 324) scale(1.5)" fill="#555">
      <path d="M15.47 3.11C15 2.85 14.37 3.05 14.11 3.54C14.04 3.68 14 3.84 14 4V6.59L13.29 5.88C13.1 5.69 13 5.44 13 5.18V1H11V5.17C11 5.44 10.9 5.69 10.71 5.88L10 6.59V4C10 3.44 9.54 3 9 3C8.83 3 8.67 3.04 8.53 3.11C4.72 5 2 9.97 2 15.77C2 17.67 2.33 19.55 3 21.32C3.19 21.85 3.76 22.13 4.29 21.94C4.34 21.92 4.39 21.9 4.44 21.87L9.5 19.07C9.81 18.9 10 18.56 10 18.19V9.41L11.3 8.12C11.69 7.73 12.32 7.73 12.71 8.12L14 9.42V18.2C14 18.56 14.21 18.9 14.5 19.08L19.58 21.88C20.07 22.14 20.68 21.96 20.94 21.46C20.96 21.42 21 21.37 21 21.32C21.67 19.55 22 17.67 22 15.77C22 9.97 19.29 5 15.47 3.11Z" />
    </g>
    <g id="mdi-lungs" transform="translate(180 324) scale(1.5)" fill="#fff">
      <path d="M15.47 3.11C15 2.85 14.37 3.05 14.11 3.54C14.04 3.68 14 3.84 14 4V6.59L13.29 5.88C13.1 5.69 13 5.44 13 5.18V1H11V5.17C11 5.44 10.9 5.69 10.71 5.88L10 6.59V4C10 3.44 9.54 3 9 3C8.83 3 8.67 3.04 8.53 3.11C4.72 5 2 9.97 2 15.77C2 17.67 2.33 19.55 3 21.32C3.19 21.85 3.76 22.13 4.29 21.94C4.34 21.92 4.39 21.9 4.44 21.87L9.5 19.07C9.81 18.9 10 18.56 10 18.19V9.41L11.3 8.12C11.69 7.73 12.32 7.73 12.71 8.12L14 9.42V18.2C14 18.56 14.21 18.9 14.5 19.08L19.58 21.88C20.07 22.14 20.68 21.96 20.94 21.46C20.96 21.42 21 21.37 21 21.32C21.67 19.55 22 17.67 22 15.77C22 9.97 19.29 5 15.47 3.11Z" />
    </g>
    <g id="mdi-magnet" transform="translate(216 324) scale(1.5)" fill="#555">
      <path d="M3,7V13A9,9 0 0,0 12,22A9,9 0 0,0 21,13V7H17V13A5,5 0 0,1 12,18A5,5 0 0,1 7,13V7M17,5H21V2H17M3,5H7V2H3" />
    </g>
    <g id="mdi-magnet" transform="translate(252 324) scale(1.5)" fill="#fff">
      <path d="M3,7V13A9,9 0 0,0 12,22A9,9 0 0,0 21,13V7H17V13A5,5 0 0,1 12,18A5,5 0 0,1 7,13V7M17,5H21V2H17M3,5H7V2H3" />
    </g>
    <g id="mdi-magnet-on" transform="translate(288 324) scale(1.5)" fill="#555">
      <path d="M3,7V13A9,9 0 0,0 12,22A9,9 0 0,0 21,13V7H17V13A5,5 0 0,1 12,18A5,5 0 0,1 7,13V7M17,5H21V2H17M3,5H7V2H3M13,1.5L9,9H11V14.5L15,7H13V1.5Z" />
    </g>
    <g id="mdi-magnet-on" transform="translate(324 324) scale(1.5)" fill="#fff">
      <path d="M3,7V13A9,9 0 0,0 12,22A9,9 0 0,0 21,13V7H17V13A5,5 0 0,1 12,18A5,5 0 0,1 7,13V7M17,5H21V2H17M3,5H7V2H3M13,1.5L9,9H11V14.5L15,7H13V1.5Z" />
    </g>
    <g id="mdi-magnify" transform="translate(360 324) scale(1.5)" fill="#555">
      <path d="M9.5,3A6.5,6.5 0 0,1 16,9.5C16,11.11 15.41,12.59 14.44,13.73L14.71,14H15.5L20.5,19L19,20.5L14,15.5V14.71L13.73,14.44C12.59,15.41 11.11,16 9.5,16A6.5,6.5 0 0,1 3,9.5A6.5,6.5 0 0,1 9.5,3M9.5,5C7,5 5,7 5,9.5C5,12 7,14 9.5,14C12,14 14,12 14,9.5C14,7 12,5 9.5,5Z" />
    </g>
    <g id="mdi-magnify" transform="translate(396 324) scale(1.5)" fill="#fff">
      <path d="M9.5,3A6.5,6.5 0 0,1 16,9.5C16,11.11 15.41,12.59 14.44,13.73L14.71,14H15.5L20.5,19L19,20.5L14,15.5V14.71L13.73,14.44C12.59,15.41 11.11,16 9.5,16A6.5,6.5 0 0,1 3,9.5A6.5,6.5 0 0,1 9.5,3M9.5,5C7,5 5,7 5,9.5C5,12 7,14 9.5,14C12,14 14,12 14,9.5C14,7 12,5 9.5,5Z" />
    </g>
    <g id="mdi-magnify-close" transform="translate(432 324) scale(1.5)" fill="#555">
      <path d="M9,2A7,7 0 0,1 16,9C16,10.5 15.5,12 14.61,13.19L15.41,14H16L22,20L20,22L14,16V15.41L13.19,14.61C12,15.5 10.5,16 9,16A7,7 0 0,1 2,9A7,7 0 0,1 9,2M11.12,5.46L9,7.59L6.88,5.46L5.46,6.88L7.59,9L5.46,11.12L6.88,12.54L9,10.41L11.12,12.54L12.54,11.12L10.41,9L12.54,6.88L11.12,5.46Z" />
    </g>
    <g id="mdi-magnify-close" transform="translate(468 324) scale(1.5)" fill="#fff">
      <path d="M9,2A7,7 0 0,1 16,9C16,10.5 15.5,12 14.61,13.19L15.41,14H16L22,20L20,22L14,16V15.41L13.19,14.61C12,15.5 10.5,16 9,16A7,7 0 0,1 2,9A7,7 0 0,1 9,2M11.12,5.46L9,7.59L6.88,5.46L5.46,6.88L7.59,9L5.46,11.12L6.88,12.54L9,10.41L11.12,12.54L12.54,11.12L10.41,9L12.54,6.88L11.12,5.46Z" />
    </g>
    <g id="mdi-magnify-minus" transform="translate(504 324) scale(1.5)" fill="#555">
      <path d="M9,2A7,7 0 0,1 16,9C16,10.57 15.5,12 14.61,13.19L15.41,14H16L22,20L20,22L14,16V15.41L13.19,14.61C12,15.5 10.57,16 9,16A7,7 0 0,1 2,9A7,7 0 0,1 9,2M5,8V10H13V8H5Z" />
    </g>
    <g id="mdi-magnify-minus" transform="translate(540 324) scale(1.5)" fill="#fff">
      <path d="M9,2A7,7 0 0,1 16,9C16,10.57 15.5,12 14.61,13.19L15.41,14H16L22,20L20,22L14,16V15.41L13.19,14.61C12,15.5 10.57,16 9,16A7,7 0 0,1 2,9A7,7 0 0,1 9,2M5,8V10H13V8H5Z" />
    </g>
    <g id="mdi-magnify-minus-cursor" transform="translate(576 324) scale(1.5)" fill="#555">
      <path d="M11,4A7,7 0 0,1 18,11C18,12.5 17.5,14 16.61,15.19L17.42,16H18L23,21L21,23L16,18V17.41L15.19,16.6C12.1,18.92 7.71,18.29 5.39,15.2C3.07,12.11 3.7,7.72 6.79,5.4C8,4.5 9.5,4 11,4M7,10V12H15V10H7M1,1V8L8,1H1Z" />
    </g>
    <g id="mdi-magnify-minus-cursor" transform="translate(612 324) scale(1.5)" fill="#fff">
      <path d="M11,4A7,7 0 0,1 18,11C18,12.5 17.5,14 16.61,15.19L17.42,16H18L23,21L21,23L16,18V17.41L15.19,16.6C12.1,18.92 7.71,18.29 5.39,15.2C3.07,12.11 3.7,7.72 6.79,5.4C8,4.5 9.5,4 11,4M7,10V12H15V10H7M1,1V8L8,1H1Z" />
    </g>
    <g id="mdi-magnify-minus-outline" transform="translate(648 324) scale(1.5)" fill="#555">
      <path d="M15.5,14H14.71L14.43,13.73C15.41,12.59 16,11.11 16,9.5A6.5,6.5 0 0,0 9.5,3A6.5,6.5 0 0,0 3,9.5A6.5,6.5 0 0,0 9.5,16C11.11,16 12.59,15.41 13.73,14.43L14,14.71V15.5L19,20.5L20.5,19L15.5,14M9.5,14C7,14 5,12 5,9.5C5,7 7,5 9.5,5C12,5 14,7 14,9.5C14,12 12,14 9.5,14M7,9H12V10H7V9Z" />
    </g>
    <g id="mdi-magnify-minus-outline" transform="translate(684 324) scale(1.5)" fill="#fff">
      <path d="M15.5,14H14.71L14.43,13.73C15.41,12.59 16,11.11 16,9.5A6.5,6.5 0 0,0 9.5,3A6.5,6.5 0 0,0 3,9.5A6.5,6.5 0 0,0 9.5,16C11.11,16 12.59,15.41 13.73,14.43L14,14.71V15.5L19,20.5L20.5,19L15.5,14M9.5,14C7,14 5,12 5,9.5C5,7 7,5 9.5,5C12,5 14,7 14,9.5C14,12 12,14 9.5,14M7,9H12V10H7V9Z" />
    </g>
  </svg>