<?xml version="1.0" encoding="UTF-8"?>
<!DOCTYPE svg PUBLIC "-//W3C//DTD SVG 1.1//EN" "http://www.w3.org/Graphics/SVG/1.1/DTD/svg11.dtd"><svg
  xmlns="http://www.w3.org/2000/svg" xmlns:xlink="http://www.w3.org/1999/xlink" version="1.1"
  width="720" height="900" viewBox="0 0 720 900">
    <g id="mdi-city" transform="translate(0 0) scale(1.5)" fill="#555">
      <path d="M19,15H17V13H19M19,19H17V17H19M13,7H11V5H13M13,11H11V9H13M13,15H11V13H13M13,19H11V17H13M7,11H5V9H7M7,15H5V13H7M7,19H5V17H7M15,11V5L12,2L9,5V7H3V21H21V11H15Z" />
    </g>
    <g id="mdi-city" transform="translate(36 0) scale(1.5)" fill="#fff">
      <path d="M19,15H17V13H19M19,19H17V17H19M13,7H11V5H13M13,11H11V9H13M13,15H11V13H13M13,19H11V17H13M7,11H5V9H7M7,15H5V13H7M7,19H5V17H7M15,11V5L12,2L9,5V7H3V21H21V11H15Z" />
    </g>
    <g id="mdi-city-variant" transform="translate(72 0) scale(1.5)" fill="#555">
      <path d="M19,9V7A2,2 0 0,0 17,5H16V2H14V5H13A2,2 0 0,0 11,7V9A2,2 0 0,0 9,11V12H5A2,2 0 0,0 3,14V22H6V20H8V22H12V20H14V22H16V20H18V22H21V11A2,2 0 0,0 19,9M8,18H6V16H8V18M14,18H12V16H14V18M14,14H12V12H14V14M13,9V7H17V9H13M18,18H16V16H18V18M18,14H16V12H18V14Z" />
    </g>
    <g id="mdi-city-variant" transform="translate(108 0) scale(1.5)" fill="#fff">
      <path d="M19,9V7A2,2 0 0,0 17,5H16V2H14V5H13A2,2 0 0,0 11,7V9A2,2 0 0,0 9,11V12H5A2,2 0 0,0 3,14V22H6V20H8V22H12V20H14V22H16V20H18V22H21V11A2,2 0 0,0 19,9M8,18H6V16H8V18M14,18H12V16H14V18M14,14H12V12H14V14M13,9V7H17V9H13M18,18H16V16H18V18M18,14H16V12H18V14Z" />
    </g>
    <g id="mdi-city-variant-outline" transform="translate(144 0) scale(1.5)" fill="#555">
      <path d="M15,23H13V21H15V23M19,21H17V23H19V21M15,17H13V19H15V17M7,21H5V23H7V21M7,17H5V19H7V17M19,17H17V19H19V17M15,13H13V15H15V13M19,13H17V15H19V13M21,9A2,2 0 0,1 23,11V23H21V11H11V23H9V15H3V23H1V15A2,2 0 0,1 3,13H9V11A2,2 0 0,1 11,9V7A2,2 0 0,1 13,5H15V1H17V5H19A2,2 0 0,1 21,7V9M19,9V7H13V9H19Z" />
    </g>
    <g id="mdi-city-variant-outline" transform="translate(180 0) scale(1.5)" fill="#fff">
      <path d="M15,23H13V21H15V23M19,21H17V23H19V21M15,17H13V19H15V17M7,21H5V23H7V21M7,17H5V19H7V17M19,17H17V19H19V17M15,13H13V15H15V13M19,13H17V15H19V13M21,9A2,2 0 0,1 23,11V23H21V11H11V23H9V15H3V23H1V15A2,2 0 0,1 3,13H9V11A2,2 0 0,1 11,9V7A2,2 0 0,1 13,5H15V1H17V5H19A2,2 0 0,1 21,7V9M19,9V7H13V9H19Z" />
    </g>
    <g id="mdi-clipboard" transform="translate(216 0) scale(1.5)" fill="#555">
      <path d="M19,3H14.82C14.4,1.84 13.3,1 12,1C10.7,1 9.6,1.84 9.18,3H5A2,2 0 0,0 3,5V19A2,2 0 0,0 5,21H19A2,2 0 0,0 21,19V5A2,2 0 0,0 19,3M12,3A1,1 0 0,1 13,4A1,1 0 0,1 12,5A1,1 0 0,1 11,4A1,1 0 0,1 12,3" />
    </g>
    <g id="mdi-clipboard" transform="translate(252 0) scale(1.5)" fill="#fff">
      <path d="M19,3H14.82C14.4,1.84 13.3,1 12,1C10.7,1 9.6,1.84 9.18,3H5A2,2 0 0,0 3,5V19A2,2 0 0,0 5,21H19A2,2 0 0,0 21,19V5A2,2 0 0,0 19,3M12,3A1,1 0 0,1 13,4A1,1 0 0,1 12,5A1,1 0 0,1 11,4A1,1 0 0,1 12,3" />
    </g>
    <g id="mdi-clipboard-account" transform="translate(288 0) scale(1.5)" fill="#555">
      <path d="M18,19H6V17.6C6,15.6 10,14.5 12,14.5C14,14.5 18,15.6 18,17.6M12,7A3,3 0 0,1 15,10A3,3 0 0,1 12,13A3,3 0 0,1 9,10A3,3 0 0,1 12,7M12,3A1,1 0 0,1 13,4A1,1 0 0,1 12,5A1,1 0 0,1 11,4A1,1 0 0,1 12,3M19,3H14.82C14.4,1.84 13.3,1 12,1C10.7,1 9.6,1.84 9.18,3H5A2,2 0 0,0 3,5V19A2,2 0 0,0 5,21H19A2,2 0 0,0 21,19V5A2,2 0 0,0 19,3Z" />
    </g>
    <g id="mdi-clipboard-account" transform="translate(324 0) scale(1.5)" fill="#fff">
      <path d="M18,19H6V17.6C6,15.6 10,14.5 12,14.5C14,14.5 18,15.6 18,17.6M12,7A3,3 0 0,1 15,10A3,3 0 0,1 12,13A3,3 0 0,1 9,10A3,3 0 0,1 12,7M12,3A1,1 0 0,1 13,4A1,1 0 0,1 12,5A1,1 0 0,1 11,4A1,1 0 0,1 12,3M19,3H14.82C14.4,1.84 13.3,1 12,1C10.7,1 9.6,1.84 9.18,3H5A2,2 0 0,0 3,5V19A2,2 0 0,0 5,21H19A2,2 0 0,0 21,19V5A2,2 0 0,0 19,3Z" />
    </g>
    <g id="mdi-clipboard-account-outline" transform="translate(360 0) scale(1.5)" fill="#555">
      <path d="M19,3A2,2 0 0,1 21,5V19A2,2 0 0,1 19,21H5A2,2 0 0,1 3,19V5A2,2 0 0,1 5,3H9.18C9.6,1.84 10.7,1 12,1C13.3,1 14.4,1.84 14.82,3H19M12,3A1,1 0 0,0 11,4A1,1 0 0,0 12,5A1,1 0 0,0 13,4A1,1 0 0,0 12,3M7,7V5H5V19H19V5H17V7H7M12,9A2,2 0 0,1 14,11A2,2 0 0,1 12,13A2,2 0 0,1 10,11A2,2 0 0,1 12,9M8,17V16C8,14.9 9.79,14 12,14C14.21,14 16,14.9 16,16V17H8Z" />
    </g>
    <g id="mdi-clipboard-account-outline" transform="translate(396 0) scale(1.5)" fill="#fff">
      <path d="M19,3A2,2 0 0,1 21,5V19A2,2 0 0,1 19,21H5A2,2 0 0,1 3,19V5A2,2 0 0,1 5,3H9.18C9.6,1.84 10.7,1 12,1C13.3,1 14.4,1.84 14.82,3H19M12,3A1,1 0 0,0 11,4A1,1 0 0,0 12,5A1,1 0 0,0 13,4A1,1 0 0,0 12,3M7,7V5H5V19H19V5H17V7H7M12,9A2,2 0 0,1 14,11A2,2 0 0,1 12,13A2,2 0 0,1 10,11A2,2 0 0,1 12,9M8,17V16C8,14.9 9.79,14 12,14C14.21,14 16,14.9 16,16V17H8Z" />
    </g>
    <g id="mdi-clipboard-alert" transform="translate(432 0) scale(1.5)" fill="#555">
      <path d="M12,5A1,1 0 0,1 11,4A1,1 0 0,1 12,3A1,1 0 0,1 13,4A1,1 0 0,1 12,5M13,14H11V8H13M13,18H11V16H13M19,3H14.82C14.4,1.84 13.3,1 12,1C10.7,1 9.6,1.84 9.18,3H5A2,2 0 0,0 3,5V19A2,2 0 0,0 5,21H19A2,2 0 0,0 21,19V5A2,2 0 0,0 19,3Z" />
    </g>
    <g id="mdi-clipboard-alert" transform="translate(468 0) scale(1.5)" fill="#fff">
      <path d="M12,5A1,1 0 0,1 11,4A1,1 0 0,1 12,3A1,1 0 0,1 13,4A1,1 0 0,1 12,5M13,14H11V8H13M13,18H11V16H13M19,3H14.82C14.4,1.84 13.3,1 12,1C10.7,1 9.6,1.84 9.18,3H5A2,2 0 0,0 3,5V19A2,2 0 0,0 5,21H19A2,2 0 0,0 21,19V5A2,2 0 0,0 19,3Z" />
    </g>
    <g id="mdi-clipboard-alert-outline" transform="translate(504 0) scale(1.5)" fill="#555">
      <path d="M19,3A2,2 0 0,1 21,5V19A2,2 0 0,1 19,21H5A2,2 0 0,1 3,19V5A2,2 0 0,1 5,3H9.18C9.6,1.84 10.7,1 12,1C13.3,1 14.4,1.84 14.82,3H19M12,3A1,1 0 0,0 11,4A1,1 0 0,0 12,5A1,1 0 0,0 13,4A1,1 0 0,0 12,3M7,7V5H5V19H19V5H17V7H7M11,9H13V13.5H11V9M11,15H13V17H11V15Z" />
    </g>
    <g id="mdi-clipboard-alert-outline" transform="translate(540 0) scale(1.5)" fill="#fff">
      <path d="M19,3A2,2 0 0,1 21,5V19A2,2 0 0,1 19,21H5A2,2 0 0,1 3,19V5A2,2 0 0,1 5,3H9.18C9.6,1.84 10.7,1 12,1C13.3,1 14.4,1.84 14.82,3H19M12,3A1,1 0 0,0 11,4A1,1 0 0,0 12,5A1,1 0 0,0 13,4A1,1 0 0,0 12,3M7,7V5H5V19H19V5H17V7H7M11,9H13V13.5H11V9M11,15H13V17H11V15Z" />
    </g>
    <g id="mdi-clipboard-arrow-down" transform="translate(576 0) scale(1.5)" fill="#555">
      <path d="M12,18L7,13H10V9H14V13H17M12,3A1,1 0 0,1 13,4A1,1 0 0,1 12,5A1,1 0 0,1 11,4A1,1 0 0,1 12,3M19,3H14.82C14.4,1.84 13.3,1 12,1C10.7,1 9.6,1.84 9.18,3H5A2,2 0 0,0 3,5V19A2,2 0 0,0 5,21H19A2,2 0 0,0 21,19V5A2,2 0 0,0 19,3Z" />
    </g>
    <g id="mdi-clipboard-arrow-down" transform="translate(612 0) scale(1.5)" fill="#fff">
      <path d="M12,18L7,13H10V9H14V13H17M12,3A1,1 0 0,1 13,4A1,1 0 0,1 12,5A1,1 0 0,1 11,4A1,1 0 0,1 12,3M19,3H14.82C14.4,1.84 13.3,1 12,1C10.7,1 9.6,1.84 9.18,3H5A2,2 0 0,0 3,5V19A2,2 0 0,0 5,21H19A2,2 0 0,0 21,19V5A2,2 0 0,0 19,3Z" />
    </g>
    <g id="mdi-clipboard-arrow-down-outline" transform="translate(648 0) scale(1.5)" fill="#555">
      <path d="M19,3A2,2 0 0,1 21,5V19A2,2 0 0,1 19,21H5A2,2 0 0,1 3,19V5A2,2 0 0,1 5,3H9.18C9.6,1.84 10.7,1 12,1C13.3,1 14.4,1.84 14.82,3H19M12,3A1,1 0 0,0 11,4A1,1 0 0,0 12,5A1,1 0 0,0 13,4A1,1 0 0,0 12,3M7,7V5H5V19H19V5H17V7H7M12,18L7,13H10V9H14V13H17L12,18Z" />
    </g>
    <g id="mdi-clipboard-arrow-down-outline" transform="translate(684 0) scale(1.5)" fill="#fff">
      <path d="M19,3A2,2 0 0,1 21,5V19A2,2 0 0,1 19,21H5A2,2 0 0,1 3,19V5A2,2 0 0,1 5,3H9.18C9.6,1.84 10.7,1 12,1C13.3,1 14.4,1.84 14.82,3H19M12,3A1,1 0 0,0 11,4A1,1 0 0,0 12,5A1,1 0 0,0 13,4A1,1 0 0,0 12,3M7,7V5H5V19H19V5H17V7H7M12,18L7,13H10V9H14V13H17L12,18Z" />
    </g>
    <g id="mdi-clipboard-arrow-left" transform="translate(0 36) scale(1.5)" fill="#555">
      <path d="M16,15H12V18L7,13L12,8V11H16M12,3A1,1 0 0,1 13,4A1,1 0 0,1 12,5A1,1 0 0,1 11,4A1,1 0 0,1 12,3M19,3H14.82C14.4,1.84 13.3,1 12,1C10.7,1 9.6,1.84 9.18,3H5A2,2 0 0,0 3,5V19A2,2 0 0,0 5,21H19A2,2 0 0,0 21,19V5A2,2 0 0,0 19,3Z" />
    </g>
    <g id="mdi-clipboard-arrow-left" transform="translate(36 36) scale(1.5)" fill="#fff">
      <path d="M16,15H12V18L7,13L12,8V11H16M12,3A1,1 0 0,1 13,4A1,1 0 0,1 12,5A1,1 0 0,1 11,4A1,1 0 0,1 12,3M19,3H14.82C14.4,1.84 13.3,1 12,1C10.7,1 9.6,1.84 9.18,3H5A2,2 0 0,0 3,5V19A2,2 0 0,0 5,21H19A2,2 0 0,0 21,19V5A2,2 0 0,0 19,3Z" />
    </g>
    <g id="mdi-clipboard-arrow-left-outline" transform="translate(72 36) scale(1.5)" fill="#555">
      <path d="M19,3A2,2 0 0,1 21,5V19A2,2 0 0,1 19,21H5A2,2 0 0,1 3,19V5A2,2 0 0,1 5,3H9.18C9.6,1.84 10.7,1 12,1C13.3,1 14.4,1.84 14.82,3H19M12,3A1,1 0 0,0 11,4A1,1 0 0,0 12,5A1,1 0 0,0 13,4A1,1 0 0,0 12,3M7,7V5H5V19H19V5H17V7H7M7,13L12,18V15H16V11H12V8L7,13Z" />
    </g>
    <g id="mdi-clipboard-arrow-left-outline" transform="translate(108 36) scale(1.5)" fill="#fff">
      <path d="M19,3A2,2 0 0,1 21,5V19A2,2 0 0,1 19,21H5A2,2 0 0,1 3,19V5A2,2 0 0,1 5,3H9.18C9.6,1.84 10.7,1 12,1C13.3,1 14.4,1.84 14.82,3H19M12,3A1,1 0 0,0 11,4A1,1 0 0,0 12,5A1,1 0 0,0 13,4A1,1 0 0,0 12,3M7,7V5H5V19H19V5H17V7H7M7,13L12,18V15H16V11H12V8L7,13Z" />
    </g>
    <g id="mdi-clipboard-arrow-right" transform="translate(144 36) scale(1.5)" fill="#555">
      <path d="M17,13L12,18V15H8V11H12V8M12,3A1,1 0 0,1 13,4A1,1 0 0,1 12,5A1,1 0 0,1 11,4A1,1 0 0,1 12,3M19,3H14.82C14.4,1.84 13.3,1 12,1C10.7,1 9.6,1.84 9.18,3H5A2,2 0 0,0 3,5V19A2,2 0 0,0 5,21H19A2,2 0 0,0 21,19V5A2,2 0 0,0 19,3Z" />
    </g>
    <g id="mdi-clipboard-arrow-right" transform="translate(180 36) scale(1.5)" fill="#fff">
      <path d="M17,13L12,18V15H8V11H12V8M12,3A1,1 0 0,1 13,4A1,1 0 0,1 12,5A1,1 0 0,1 11,4A1,1 0 0,1 12,3M19,3H14.82C14.4,1.84 13.3,1 12,1C10.7,1 9.6,1.84 9.18,3H5A2,2 0 0,0 3,5V19A2,2 0 0,0 5,21H19A2,2 0 0,0 21,19V5A2,2 0 0,0 19,3Z" />
    </g>
    <g id="mdi-clipboard-arrow-right-outline" transform="translate(216 36) scale(1.5)" fill="#555">
      <path d="M19,3A2,2 0 0,1 21,5V19A2,2 0 0,1 19,21H5A2,2 0 0,1 3,19V5A2,2 0 0,1 5,3H9.18C9.6,1.84 10.7,1 12,1C13.3,1 14.4,1.84 14.82,3H19M12,3A1,1 0 0,0 11,4A1,1 0 0,0 12,5A1,1 0 0,0 13,4A1,1 0 0,0 12,3M7,7V5H5V19H19V5H17V7H7M16.91,13L11.91,18V15H7.91V11H11.91V8L16.91,13Z" />
    </g>
    <g id="mdi-clipboard-arrow-right-outline" transform="translate(252 36) scale(1.5)" fill="#fff">
      <path d="M19,3A2,2 0 0,1 21,5V19A2,2 0 0,1 19,21H5A2,2 0 0,1 3,19V5A2,2 0 0,1 5,3H9.18C9.6,1.84 10.7,1 12,1C13.3,1 14.4,1.84 14.82,3H19M12,3A1,1 0 0,0 11,4A1,1 0 0,0 12,5A1,1 0 0,0 13,4A1,1 0 0,0 12,3M7,7V5H5V19H19V5H17V7H7M16.91,13L11.91,18V15H7.91V11H11.91V8L16.91,13Z" />
    </g>
    <g id="mdi-clipboard-arrow-up" transform="translate(288 36) scale(1.5)" fill="#555">
      <path d="M19,3A2,2 0 0,1 21,5V19A2,2 0 0,1 19,21H5A2,2 0 0,1 3,19V5A2,2 0 0,1 5,3H9.18C9.6,1.84 10.7,1 12,1C13.3,1 14.4,1.84 14.82,3H19M12,8L7,13H10V17H14V13H17L12,8M12,3A1,1 0 0,0 11,4A1,1 0 0,0 12,5A1,1 0 0,0 13,4A1,1 0 0,0 12,3Z" />
    </g>
    <g id="mdi-clipboard-arrow-up" transform="translate(324 36) scale(1.5)" fill="#fff">
      <path d="M19,3A2,2 0 0,1 21,5V19A2,2 0 0,1 19,21H5A2,2 0 0,1 3,19V5A2,2 0 0,1 5,3H9.18C9.6,1.84 10.7,1 12,1C13.3,1 14.4,1.84 14.82,3H19M12,8L7,13H10V17H14V13H17L12,8M12,3A1,1 0 0,0 11,4A1,1 0 0,0 12,5A1,1 0 0,0 13,4A1,1 0 0,0 12,3Z" />
    </g>
    <g id="mdi-clipboard-arrow-up-outline" transform="translate(360 36) scale(1.5)" fill="#555">
      <path d="M12,8L17,13H14V17H10V13H7L12,8M19,3A2,2 0 0,1 21,5V19A2,2 0 0,1 19,21H5A2,2 0 0,1 3,19V5A2,2 0 0,1 5,3H9.18C9.6,1.84 10.7,1 12,1C13.3,1 14.4,1.84 14.82,3H19M12,3A1,1 0 0,0 11,4A1,1 0 0,0 12,5A1,1 0 0,0 13,4A1,1 0 0,0 12,3M7,7V5H5V19H19V5H17V7H7Z" />
    </g>
    <g id="mdi-clipboard-arrow-up-outline" transform="translate(396 36) scale(1.5)" fill="#fff">
      <path d="M12,8L17,13H14V17H10V13H7L12,8M19,3A2,2 0 0,1 21,5V19A2,2 0 0,1 19,21H5A2,2 0 0,1 3,19V5A2,2 0 0,1 5,3H9.18C9.6,1.84 10.7,1 12,1C13.3,1 14.4,1.84 14.82,3H19M12,3A1,1 0 0,0 11,4A1,1 0 0,0 12,5A1,1 0 0,0 13,4A1,1 0 0,0 12,3M7,7V5H5V19H19V5H17V7H7Z" />
    </g>
    <g id="mdi-clipboard-check" transform="translate(432 36) scale(1.5)" fill="#555">
      <path d="M10,17L6,13L7.41,11.59L10,14.17L16.59,7.58L18,9M12,3A1,1 0 0,1 13,4A1,1 0 0,1 12,5A1,1 0 0,1 11,4A1,1 0 0,1 12,3M19,3H14.82C14.4,1.84 13.3,1 12,1C10.7,1 9.6,1.84 9.18,3H5A2,2 0 0,0 3,5V19A2,2 0 0,0 5,21H19A2,2 0 0,0 21,19V5A2,2 0 0,0 19,3Z" />
    </g>
    <g id="mdi-clipboard-check" transform="translate(468 36) scale(1.5)" fill="#fff">
      <path d="M10,17L6,13L7.41,11.59L10,14.17L16.59,7.58L18,9M12,3A1,1 0 0,1 13,4A1,1 0 0,1 12,5A1,1 0 0,1 11,4A1,1 0 0,1 12,3M19,3H14.82C14.4,1.84 13.3,1 12,1C10.7,1 9.6,1.84 9.18,3H5A2,2 0 0,0 3,5V19A2,2 0 0,0 5,21H19A2,2 0 0,0 21,19V5A2,2 0 0,0 19,3Z" />
    </g>
    <g id="mdi-clipboard-check-multiple" transform="translate(504 36) scale(1.5)" fill="#555">
      <path d="M4 7H2V21C2 22.1 2.9 23 4 23H18V21H4M20 3H16.8C16.4 1.8 15.3 1 14 1C12.7 1 11.6 1.8 11.2 3H8C6.9 3 6 3.9 6 5V17C6 18.1 6.9 19 8 19H20C21.1 19 22 18.1 22 17V5C22 3.9 21.1 3 20 3M14 3C14.6 3 15 3.5 15 4C15 4.5 14.5 5 14 5C13.5 5 13 4.5 13 4C13 3.5 13.4 3 14 3M12.3 15.1L9 11.8L10.4 10.4L12.3 12.3L17.6 7L19 8.4" />
    </g>
    <g id="mdi-clipboard-check-multiple" transform="translate(540 36) scale(1.5)" fill="#fff">
      <path d="M4 7H2V21C2 22.1 2.9 23 4 23H18V21H4M20 3H16.8C16.4 1.8 15.3 1 14 1C12.7 1 11.6 1.8 11.2 3H8C6.9 3 6 3.9 6 5V17C6 18.1 6.9 19 8 19H20C21.1 19 22 18.1 22 17V5C22 3.9 21.1 3 20 3M14 3C14.6 3 15 3.5 15 4C15 4.5 14.5 5 14 5C13.5 5 13 4.5 13 4C13 3.5 13.4 3 14 3M12.3 15.1L9 11.8L10.4 10.4L12.3 12.3L17.6 7L19 8.4" />
    </g>
    <g id="mdi-clipboard-check-multiple-outline" transform="translate(576 36) scale(1.5)" fill="#555">
      <path d="M4 7V21H18V23H4C2.9 23 2 22.1 2 21V7H4M12.8 15.35L9.5 12.05L10.9 10.65L12.8 12.55L17.1 8.25L18.5 9.65L12.8 15.35M20 3C21.1 3 22 3.9 22 5V17C22 18.1 21.1 19 20 19H8C6.9 19 6 18.1 6 17V5C6 3.9 6.9 3 8 3H11.18C11.6 1.84 12.7 1 14 1C15.3 1 16.4 1.84 16.82 3H20M14 3C13.45 3 13 3.45 13 4C13 4.55 13.45 5 14 5C14.55 5 15 4.55 15 4C15 3.45 14.55 3 14 3M10 7V5H8V17H20V5H18V7H10Z" />
    </g>
    <g id="mdi-clipboard-check-multiple-outline" transform="translate(612 36) scale(1.5)" fill="#fff">
      <path d="M4 7V21H18V23H4C2.9 23 2 22.1 2 21V7H4M12.8 15.35L9.5 12.05L10.9 10.65L12.8 12.55L17.1 8.25L18.5 9.65L12.8 15.35M20 3C21.1 3 22 3.9 22 5V17C22 18.1 21.1 19 20 19H8C6.9 19 6 18.1 6 17V5C6 3.9 6.9 3 8 3H11.18C11.6 1.84 12.7 1 14 1C15.3 1 16.4 1.84 16.82 3H20M14 3C13.45 3 13 3.45 13 4C13 4.55 13.45 5 14 5C14.55 5 15 4.55 15 4C15 3.45 14.55 3 14 3M10 7V5H8V17H20V5H18V7H10Z" />
    </g>
    <g id="mdi-clipboard-check-outline" transform="translate(648 36) scale(1.5)" fill="#555">
      <path d="M19,3H14.82C14.4,1.84 13.3,1 12,1C10.7,1 9.6,1.84 9.18,3H5A2,2 0 0,0 3,5V19A2,2 0 0,0 5,21H19A2,2 0 0,0 21,19V5A2,2 0 0,0 19,3M12,3A1,1 0 0,1 13,4A1,1 0 0,1 12,5A1,1 0 0,1 11,4A1,1 0 0,1 12,3M7,7H17V5H19V19H5V5H7V7M7.5,13.5L9,12L11,14L15.5,9.5L17,11L11,17L7.5,13.5Z" />
    </g>
    <g id="mdi-clipboard-check-outline" transform="translate(684 36) scale(1.5)" fill="#fff">
      <path d="M19,3H14.82C14.4,1.84 13.3,1 12,1C10.7,1 9.6,1.84 9.18,3H5A2,2 0 0,0 3,5V19A2,2 0 0,0 5,21H19A2,2 0 0,0 21,19V5A2,2 0 0,0 19,3M12,3A1,1 0 0,1 13,4A1,1 0 0,1 12,5A1,1 0 0,1 11,4A1,1 0 0,1 12,3M7,7H17V5H19V19H5V5H7V7M7.5,13.5L9,12L11,14L15.5,9.5L17,11L11,17L7.5,13.5Z" />
    </g>
    <g id="mdi-clipboard-edit" transform="translate(0 72) scale(1.5)" fill="#555">
      <path d="M21.04 12.13C21.18 12.13 21.31 12.19 21.42 12.3L22.7 13.58C22.92 13.79 22.92 14.14 22.7 14.35L21.7 15.35L19.65 13.3L20.65 12.3C20.76 12.19 20.9 12.13 21.04 12.13M19.07 13.88L21.12 15.93L15.06 22H13V19.94L19.07 13.88M19 3C20.1 3 21 3.9 21 5V9L11 19V21H5C3.9 21 3 20.1 3 19V5C3 3.9 3.9 3 5 3H9.18C9.6 1.84 10.7 1 12 1C13.3 1 14.4 1.84 14.82 3H19M12 3C11.45 3 11 3.45 11 4C11 4.55 11.45 5 12 5C12.55 5 13 4.55 13 4C13 3.45 12.55 3 12 3Z" />
    </g>
    <g id="mdi-clipboard-edit" transform="translate(36 72) scale(1.5)" fill="#fff">
      <path d="M21.04 12.13C21.18 12.13 21.31 12.19 21.42 12.3L22.7 13.58C22.92 13.79 22.92 14.14 22.7 14.35L21.7 15.35L19.65 13.3L20.65 12.3C20.76 12.19 20.9 12.13 21.04 12.13M19.07 13.88L21.12 15.93L15.06 22H13V19.94L19.07 13.88M19 3C20.1 3 21 3.9 21 5V9L11 19V21H5C3.9 21 3 20.1 3 19V5C3 3.9 3.9 3 5 3H9.18C9.6 1.84 10.7 1 12 1C13.3 1 14.4 1.84 14.82 3H19M12 3C11.45 3 11 3.45 11 4C11 4.55 11.45 5 12 5C12.55 5 13 4.55 13 4C13 3.45 12.55 3 12 3Z" />
    </g>
    <g id="mdi-clipboard-edit-outline" transform="translate(72 72) scale(1.5)" fill="#555">
      <path d="M21.04 12.13C21.18 12.13 21.31 12.19 21.42 12.3L22.7 13.58C22.92 13.79 22.92 14.14 22.7 14.35L21.7 15.35L19.65 13.3L20.65 12.3C20.76 12.19 20.9 12.13 21.04 12.13M19.07 13.88L21.12 15.93L15.06 22H13V19.94L19.07 13.88M11 19L9 21H5C3.9 21 3 20.1 3 19V5C3 3.9 3.9 3 5 3H9.18C9.6 1.84 10.7 1 12 1C13.3 1 14.4 1.84 14.82 3H19C20.1 3 21 3.9 21 5V9L19 11V5H17V7H7V5H5V19H11M12 3C11.45 3 11 3.45 11 4C11 4.55 11.45 5 12 5C12.55 5 13 4.55 13 4C13 3.45 12.55 3 12 3Z" />
    </g>
    <g id="mdi-clipboard-edit-outline" transform="translate(108 72) scale(1.5)" fill="#fff">
      <path d="M21.04 12.13C21.18 12.13 21.31 12.19 21.42 12.3L22.7 13.58C22.92 13.79 22.92 14.14 22.7 14.35L21.7 15.35L19.65 13.3L20.65 12.3C20.76 12.19 20.9 12.13 21.04 12.13M19.07 13.88L21.12 15.93L15.06 22H13V19.94L19.07 13.88M11 19L9 21H5C3.9 21 3 20.1 3 19V5C3 3.9 3.9 3 5 3H9.18C9.6 1.84 10.7 1 12 1C13.3 1 14.4 1.84 14.82 3H19C20.1 3 21 3.9 21 5V9L19 11V5H17V7H7V5H5V19H11M12 3C11.45 3 11 3.45 11 4C11 4.55 11.45 5 12 5C12.55 5 13 4.55 13 4C13 3.45 12.55 3 12 3Z" />
    </g>
    <g id="mdi-clipboard-file" transform="translate(144 72) scale(1.5)" fill="#555">
      <path d="M19 3C20.1 3 21 3.9 21 5V9.17L19.83 8H15C12.79 8 11 9.79 11 12V21H5C3.9 21 3 20.1 3 19V5C3 3.9 3.9 3 5 3H9.18C9.6 1.84 10.7 1 12 1C13.3 1 14.4 1.84 14.82 3H19M12 3C11.45 3 11 3.45 11 4C11 4.55 11.45 5 12 5C12.55 5 13 4.55 13 4C13 3.45 12.55 3 12 3M15 23C13.9 23 13 22.11 13 21V12C13 10.9 13.9 10 15 10H19L23 14V21C23 22.11 22.11 23 21 23H15M21 14.83L18.17 12H18V15H21V14.83Z" />
    </g>
    <g id="mdi-clipboard-file" transform="translate(180 72) scale(1.5)" fill="#fff">
      <path d="M19 3C20.1 3 21 3.9 21 5V9.17L19.83 8H15C12.79 8 11 9.79 11 12V21H5C3.9 21 3 20.1 3 19V5C3 3.9 3.9 3 5 3H9.18C9.6 1.84 10.7 1 12 1C13.3 1 14.4 1.84 14.82 3H19M12 3C11.45 3 11 3.45 11 4C11 4.55 11.45 5 12 5C12.55 5 13 4.55 13 4C13 3.45 12.55 3 12 3M15 23C13.9 23 13 22.11 13 21V12C13 10.9 13.9 10 15 10H19L23 14V21C23 22.11 22.11 23 21 23H15M21 14.83L18.17 12H18V15H21V14.83Z" />
    </g>
    <g id="mdi-clipboard-file-outline" transform="translate(216 72) scale(1.5)" fill="#555">
      <path d="M15 23C13.9 23 13 22.11 13 21V12C13 10.9 13.9 10 15 10H19L23 14V21C23 22.11 22.11 23 21 23H15M15 21H21V14.83L18.17 12H15V21M19 3C20.1 3 21 3.9 21 5V9.17L19.83 8H19V5H17V7H7V5H5V19H11V21H5C3.9 21 3 20.1 3 19V5C3 3.9 3.9 3 5 3H9.18C9.6 1.84 10.7 1 12 1C13.3 1 14.4 1.84 14.82 3H19M12 3C11.45 3 11 3.45 11 4C11 4.55 11.45 5 12 5C12.55 5 13 4.55 13 4C13 3.45 12.55 3 12 3Z" />
    </g>
    <g id="mdi-clipboard-file-outline" transform="translate(252 72) scale(1.5)" fill="#fff">
      <path d="M15 23C13.9 23 13 22.11 13 21V12C13 10.9 13.9 10 15 10H19L23 14V21C23 22.11 22.11 23 21 23H15M15 21H21V14.83L18.17 12H15V21M19 3C20.1 3 21 3.9 21 5V9.17L19.83 8H19V5H17V7H7V5H5V19H11V21H5C3.9 21 3 20.1 3 19V5C3 3.9 3.9 3 5 3H9.18C9.6 1.84 10.7 1 12 1C13.3 1 14.4 1.84 14.82 3H19M12 3C11.45 3 11 3.45 11 4C11 4.55 11.45 5 12 5C12.55 5 13 4.55 13 4C13 3.45 12.55 3 12 3Z" />
    </g>
    <g id="mdi-clipboard-flow" transform="translate(288 72) scale(1.5)" fill="#555">
      <path d="M19,3H14.82C14.4,1.84 13.3,1 12,1C10.7,1 9.6,1.84 9.18,3H5A2,2 0 0,0 3,5V19A2,2 0 0,0 5,21H19A2,2 0 0,0 21,19V5A2,2 0 0,0 19,3M12,3A1,1 0 0,1 13,4A1,1 0 0,1 12,5A1,1 0 0,1 11,4A1,1 0 0,1 12,3M15,19L11,15H14V8H16V15H19L15,19M10,16H8V9H5L9,5L13,9H10V16" />
    </g>
    <g id="mdi-clipboard-flow" transform="translate(324 72) scale(1.5)" fill="#fff">
      <path d="M19,3H14.82C14.4,1.84 13.3,1 12,1C10.7,1 9.6,1.84 9.18,3H5A2,2 0 0,0 3,5V19A2,2 0 0,0 5,21H19A2,2 0 0,0 21,19V5A2,2 0 0,0 19,3M12,3A1,1 0 0,1 13,4A1,1 0 0,1 12,5A1,1 0 0,1 11,4A1,1 0 0,1 12,3M15,19L11,15H14V8H16V15H19L15,19M10,16H8V9H5L9,5L13,9H10V16" />
    </g>
    <g id="mdi-clipboard-flow-outline" transform="translate(360 72) scale(1.5)" fill="#555">
      <path d="M19 3H14.82C14.4 1.84 13.3 1 12 1S9.6 1.84 9.18 3H5C3.9 3 3 3.9 3 5V19C3 20.11 3.9 21 5 21H19C20.11 21 21 20.11 21 19V5C21 3.9 20.11 3 19 3M12 3C12.55 3 13 3.45 13 4S12.55 5 12 5 11 4.55 11 4 11.45 3 12 3M7 7H17V5H19V19H5V5H7V7M10 16H8V11H6L9 8L12 11H10V16M14 10H16V15H18L15 18L12 15H14V10Z" />
    </g>
    <g id="mdi-clipboard-flow-outline" transform="translate(396 72) scale(1.5)" fill="#fff">
      <path d="M19 3H14.82C14.4 1.84 13.3 1 12 1S9.6 1.84 9.18 3H5C3.9 3 3 3.9 3 5V19C3 20.11 3.9 21 5 21H19C20.11 21 21 20.11 21 19V5C21 3.9 20.11 3 19 3M12 3C12.55 3 13 3.45 13 4S12.55 5 12 5 11 4.55 11 4 11.45 3 12 3M7 7H17V5H19V19H5V5H7V7M10 16H8V11H6L9 8L12 11H10V16M14 10H16V15H18L15 18L12 15H14V10Z" />
    </g>
    <g id="mdi-clipboard-list" transform="translate(432 72) scale(1.5)" fill="#555">
      <path d="M19 3H14.82C14.4 1.84 13.3 1 12 1S9.6 1.84 9.18 3H5C3.9 3 3 3.9 3 5V19C3 20.1 3.9 21 5 21H19C20.1 21 21 20.1 21 19V5C21 3.9 20.1 3 19 3M7 8H9V12H8V9H7V8M10 17V18H7V17.08L9 15H7V14H9.25C9.66 14 10 14.34 10 14.75C10 14.95 9.92 15.14 9.79 15.27L8.12 17H10M11 4C11 3.45 11.45 3 12 3S13 3.45 13 4 12.55 5 12 5 11 4.55 11 4M17 17H12V15H17V17M17 11H12V9H17V11Z" />
    </g>
    <g id="mdi-clipboard-list" transform="translate(468 72) scale(1.5)" fill="#fff">
      <path d="M19 3H14.82C14.4 1.84 13.3 1 12 1S9.6 1.84 9.18 3H5C3.9 3 3 3.9 3 5V19C3 20.1 3.9 21 5 21H19C20.1 21 21 20.1 21 19V5C21 3.9 20.1 3 19 3M7 8H9V12H8V9H7V8M10 17V18H7V17.08L9 15H7V14H9.25C9.66 14 10 14.34 10 14.75C10 14.95 9.92 15.14 9.79 15.27L8.12 17H10M11 4C11 3.45 11.45 3 12 3S13 3.45 13 4 12.55 5 12 5 11 4.55 11 4M17 17H12V15H17V17M17 11H12V9H17V11Z" />
    </g>
    <g id="mdi-clipboard-list-outline" transform="translate(504 72) scale(1.5)" fill="#555">
      <path d="M19 3H14.82C14.4 1.84 13.3 1 12 1S9.6 1.84 9.18 3H5C3.9 3 3 3.9 3 5V19C3 20.1 3.9 21 5 21H19C20.1 21 21 20.1 21 19V5C21 3.9 20.1 3 19 3M12 3C12.55 3 13 3.45 13 4S12.55 5 12 5 11 4.55 11 4 11.45 3 12 3M7 7H17V5H19V19H5V5H7V7M12 17V15H17V17H12M12 11V9H17V11H12M8 12V9H7V8H9V12H8M9.25 14C9.66 14 10 14.34 10 14.75C10 14.95 9.92 15.14 9.79 15.27L8.12 17H10V18H7V17.08L9 15H7V14H9.25" />
    </g>
    <g id="mdi-clipboard-list-outline" transform="translate(540 72) scale(1.5)" fill="#fff">
      <path d="M19 3H14.82C14.4 1.84 13.3 1 12 1S9.6 1.84 9.18 3H5C3.9 3 3 3.9 3 5V19C3 20.1 3.9 21 5 21H19C20.1 21 21 20.1 21 19V5C21 3.9 20.1 3 19 3M12 3C12.55 3 13 3.45 13 4S12.55 5 12 5 11 4.55 11 4 11.45 3 12 3M7 7H17V5H19V19H5V5H7V7M12 17V15H17V17H12M12 11V9H17V11H12M8 12V9H7V8H9V12H8M9.25 14C9.66 14 10 14.34 10 14.75C10 14.95 9.92 15.14 9.79 15.27L8.12 17H10V18H7V17.08L9 15H7V14H9.25" />
    </g>
    <g id="mdi-clipboard-minus" transform="translate(576 72) scale(1.5)" fill="#555">
      <path d="M19 3H14.82C14.4 1.84 13.3 1 12 1S9.6 1.84 9.18 3H5C3.9 3 3 3.9 3 5V19C3 20.11 3.9 21 5 21H19C20.11 21 21 20.11 21 19V5C21 3.9 20.11 3 19 3M12 3C12.55 3 13 3.45 13 4S12.55 5 12 5 11 4.55 11 4 11.45 3 12 3M16 14H8V12H16V14Z" />
    </g>
    <g id="mdi-clipboard-minus" transform="translate(612 72) scale(1.5)" fill="#fff">
      <path d="M19 3H14.82C14.4 1.84 13.3 1 12 1S9.6 1.84 9.18 3H5C3.9 3 3 3.9 3 5V19C3 20.11 3.9 21 5 21H19C20.11 21 21 20.11 21 19V5C21 3.9 20.11 3 19 3M12 3C12.55 3 13 3.45 13 4S12.55 5 12 5 11 4.55 11 4 11.45 3 12 3M16 14H8V12H16V14Z" />
    </g>
    <g id="mdi-clipboard-minus-outline" transform="translate(648 72) scale(1.5)" fill="#555">
      <path d="M19 3H14.82C14.4 1.84 13.3 1 12 1S9.6 1.84 9.18 3H5C3.9 3 3 3.9 3 5V19C3 20.11 3.9 21 5 21H19C20.11 21 21 20.11 21 19V5C21 3.9 20.11 3 19 3M12 3C12.55 3 13 3.45 13 4S12.55 5 12 5 11 4.55 11 4 11.45 3 12 3M19 19H5V5H7V7H17V5H19V19M8 12H16V14H8V12Z" />
    </g>
    <g id="mdi-clipboard-minus-outline" transform="translate(684 72) scale(1.5)" fill="#fff">
      <path d="M19 3H14.82C14.4 1.84 13.3 1 12 1S9.6 1.84 9.18 3H5C3.9 3 3 3.9 3 5V19C3 20.11 3.9 21 5 21H19C20.11 21 21 20.11 21 19V5C21 3.9 20.11 3 19 3M12 3C12.55 3 13 3.45 13 4S12.55 5 12 5 11 4.55 11 4 11.45 3 12 3M19 19H5V5H7V7H17V5H19V19M8 12H16V14H8V12Z" />
    </g>
    <g id="mdi-clipboard-multiple" transform="translate(0 108) scale(1.5)" fill="#555">
      <path d="M4 7H2V21C2 22.1 2.9 23 4 23H18V21H4M20 3H16.8C16.4 1.8 15.3 1 14 1C12.7 1 11.6 1.8 11.2 3H8C6.9 3 6 3.9 6 5V17C6 18.1 6.9 19 8 19H20C21.1 19 22 18.1 22 17V5C22 3.9 21.1 3 20 3M14 3C14.6 3 15 3.5 15 4C15 4.5 14.5 5 14 5C13.5 5 13 4.5 13 4C13 3.5 13.4 3 14 3Z" />
    </g>
    <g id="mdi-clipboard-multiple" transform="translate(36 108) scale(1.5)" fill="#fff">
      <path d="M4 7H2V21C2 22.1 2.9 23 4 23H18V21H4M20 3H16.8C16.4 1.8 15.3 1 14 1C12.7 1 11.6 1.8 11.2 3H8C6.9 3 6 3.9 6 5V17C6 18.1 6.9 19 8 19H20C21.1 19 22 18.1 22 17V5C22 3.9 21.1 3 20 3M14 3C14.6 3 15 3.5 15 4C15 4.5 14.5 5 14 5C13.5 5 13 4.5 13 4C13 3.5 13.4 3 14 3Z" />
    </g>
    <g id="mdi-clipboard-multiple-outline" transform="translate(72 108) scale(1.5)" fill="#555">
      <path d="M4 7V21H18V23H4C2.9 23 2 22.1 2 21V7H4M20 3C21.1 3 22 3.9 22 5V17C22 18.1 21.1 19 20 19H8C6.9 19 6 18.1 6 17V5C6 3.9 6.9 3 8 3H11.18C11.6 1.84 12.7 1 14 1C15.3 1 16.4 1.84 16.82 3H20M14 3C13.45 3 13 3.45 13 4C13 4.55 13.45 5 14 5C14.55 5 15 4.55 15 4C15 3.45 14.55 3 14 3M10 7V5H8V17H20V5H18V7H10Z" />
    </g>
    <g id="mdi-clipboard-multiple-outline" transform="translate(108 108) scale(1.5)" fill="#fff">
      <path d="M4 7V21H18V23H4C2.9 23 2 22.1 2 21V7H4M20 3C21.1 3 22 3.9 22 5V17C22 18.1 21.1 19 20 19H8C6.9 19 6 18.1 6 17V5C6 3.9 6.9 3 8 3H11.18C11.6 1.84 12.7 1 14 1C15.3 1 16.4 1.84 16.82 3H20M14 3C13.45 3 13 3.45 13 4C13 4.55 13.45 5 14 5C14.55 5 15 4.55 15 4C15 3.45 14.55 3 14 3M10 7V5H8V17H20V5H18V7H10Z" />
    </g>
    <g id="mdi-clipboard-off" transform="translate(144 108) scale(1.5)" fill="#555">
      <path d="M21 5C21 3.9 20.11 3 19 3H14.82C14.4 1.84 13.3 1 12 1S9.6 1.84 9.18 3H6.2L21 17.8V5M12 5C11.45 5 11 4.55 11 4S11.45 3 12 3 13 3.45 13 4 12.55 5 12 5M22.11 21.46L20.84 22.73L19.1 21C19.07 21 19.03 21 19 21H5C3.9 21 3 20.11 3 19V5C3 4.97 3 4.93 3 4.9L1.11 3L2.39 1.73L22.11 21.46Z" />
    </g>
    <g id="mdi-clipboard-off" transform="translate(180 108) scale(1.5)" fill="#fff">
      <path d="M21 5C21 3.9 20.11 3 19 3H14.82C14.4 1.84 13.3 1 12 1S9.6 1.84 9.18 3H6.2L21 17.8V5M12 5C11.45 5 11 4.55 11 4S11.45 3 12 3 13 3.45 13 4 12.55 5 12 5M22.11 21.46L20.84 22.73L19.1 21C19.07 21 19.03 21 19 21H5C3.9 21 3 20.11 3 19V5C3 4.97 3 4.93 3 4.9L1.11 3L2.39 1.73L22.11 21.46Z" />
    </g>
    <g id="mdi-clipboard-off-outline" transform="translate(216 108) scale(1.5)" fill="#555">
      <path d="M2.39 1.73L1.11 3L3 4.9C3 4.93 3 4.97 3 5V19C3 20.11 3.9 21 5 21H19C19.03 21 19.07 21 19.1 21L20.84 22.73L22.11 21.46L2.39 1.73M5 19V6.89L17.11 19H5M17 7V5H19V15.8L21 17.8V5C21 3.9 20.11 3 19 3H14.82C14.4 1.84 13.3 1 12 1S9.6 1.84 9.18 3H6.2L10.2 7H17M12 3C12.55 3 13 3.45 13 4S12.55 5 12 5 11 4.55 11 4 11.45 3 12 3Z" />
    </g>
    <g id="mdi-clipboard-off-outline" transform="translate(252 108) scale(1.5)" fill="#fff">
      <path d="M2.39 1.73L1.11 3L3 4.9C3 4.93 3 4.97 3 5V19C3 20.11 3.9 21 5 21H19C19.03 21 19.07 21 19.1 21L20.84 22.73L22.11 21.46L2.39 1.73M5 19V6.89L17.11 19H5M17 7V5H19V15.8L21 17.8V5C21 3.9 20.11 3 19 3H14.82C14.4 1.84 13.3 1 12 1S9.6 1.84 9.18 3H6.2L10.2 7H17M12 3C12.55 3 13 3.45 13 4S12.55 5 12 5 11 4.55 11 4 11.45 3 12 3Z" />
    </g>
    <g id="mdi-clipboard-outline" transform="translate(288 108) scale(1.5)" fill="#555">
      <path d="M19,3H14.82C14.4,1.84 13.3,1 12,1C10.7,1 9.6,1.84 9.18,3H5A2,2 0 0,0 3,5V19A2,2 0 0,0 5,21H19A2,2 0 0,0 21,19V5A2,2 0 0,0 19,3M12,3A1,1 0 0,1 13,4A1,1 0 0,1 12,5A1,1 0 0,1 11,4A1,1 0 0,1 12,3M7,7H17V5H19V19H5V5H7V7Z" />
    </g>
    <g id="mdi-clipboard-outline" transform="translate(324 108) scale(1.5)" fill="#fff">
      <path d="M19,3H14.82C14.4,1.84 13.3,1 12,1C10.7,1 9.6,1.84 9.18,3H5A2,2 0 0,0 3,5V19A2,2 0 0,0 5,21H19A2,2 0 0,0 21,19V5A2,2 0 0,0 19,3M12,3A1,1 0 0,1 13,4A1,1 0 0,1 12,5A1,1 0 0,1 11,4A1,1 0 0,1 12,3M7,7H17V5H19V19H5V5H7V7Z" />
    </g>
    <g id="mdi-clipboard-play" transform="translate(360 108) scale(1.5)" fill="#555">
      <path d="M19,3H14.82C14.25,1.44 12.53,0.64 11,1.2C10.14,1.5 9.5,2.16 9.18,3H5A2,2 0 0,0 3,5V19A2,2 0 0,0 5,21H19A2,2 0 0,0 21,19V5A2,2 0 0,0 19,3M12,3A1,1 0 0,1 13,4A1,1 0 0,1 12,5A1,1 0 0,1 11,4A1,1 0 0,1 12,3M10,17V9L15,13L10,17Z" />
    </g>
    <g id="mdi-clipboard-play" transform="translate(396 108) scale(1.5)" fill="#fff">
      <path d="M19,3H14.82C14.25,1.44 12.53,0.64 11,1.2C10.14,1.5 9.5,2.16 9.18,3H5A2,2 0 0,0 3,5V19A2,2 0 0,0 5,21H19A2,2 0 0,0 21,19V5A2,2 0 0,0 19,3M12,3A1,1 0 0,1 13,4A1,1 0 0,1 12,5A1,1 0 0,1 11,4A1,1 0 0,1 12,3M10,17V9L15,13L10,17Z" />
    </g>
    <g id="mdi-clipboard-play-multiple" transform="translate(432 108) scale(1.5)" fill="#555">
      <path d="M4 21H18V23H4C2.9 23 2 22.1 2 21V7H4M22 5V17C22 18.1 21.1 19 20 19H8C6.9 19 6 18.1 6 17V5C6 3.9 6.9 3 8 3H11.2C11.6 1.8 12.7 1 14 1C15.3 1 16.4 1.8 16.8 3H20C21.1 3 22 3.9 22 5M13 4C13 4.5 13.5 5 14 5C14.5 5 15 4.5 15 4C15 3.5 14.6 3 14 3C13.4 3 13 3.5 13 4M17 12L12 8V16" />
    </g>
    <g id="mdi-clipboard-play-multiple" transform="translate(468 108) scale(1.5)" fill="#fff">
      <path d="M4 21H18V23H4C2.9 23 2 22.1 2 21V7H4M22 5V17C22 18.1 21.1 19 20 19H8C6.9 19 6 18.1 6 17V5C6 3.9 6.9 3 8 3H11.2C11.6 1.8 12.7 1 14 1C15.3 1 16.4 1.8 16.8 3H20C21.1 3 22 3.9 22 5M13 4C13 4.5 13.5 5 14 5C14.5 5 15 4.5 15 4C15 3.5 14.6 3 14 3C13.4 3 13 3.5 13 4M17 12L12 8V16" />
    </g>
    <g id="mdi-clipboard-play-multiple-outline" transform="translate(504 108) scale(1.5)" fill="#555">
      <path d="M4 7V21H18V23H4C2.9 23 2 22.1 2 21V7H4M20 3C21.1 3 22 3.9 22 5V17C22 18.1 21.1 19 20 19H8C6.9 19 6 18.1 6 17V5C6 3.9 6.9 3 8 3H11.2C11.6 1.8 12.7 1 14 1C15.3 1 16.4 1.8 16.8 3H20M14 3C13.4 3 13 3.5 13 4C13 4.5 13.4 5 14 5C14.6 5 15 4.6 15 4C15 3.4 14.6 3 14 3M10 7V5H8V17H20V5H18V7M12 15V9L17 12" />
    </g>
    <g id="mdi-clipboard-play-multiple-outline" transform="translate(540 108) scale(1.5)" fill="#fff">
      <path d="M4 7V21H18V23H4C2.9 23 2 22.1 2 21V7H4M20 3C21.1 3 22 3.9 22 5V17C22 18.1 21.1 19 20 19H8C6.9 19 6 18.1 6 17V5C6 3.9 6.9 3 8 3H11.2C11.6 1.8 12.7 1 14 1C15.3 1 16.4 1.8 16.8 3H20M14 3C13.4 3 13 3.5 13 4C13 4.5 13.4 5 14 5C14.6 5 15 4.6 15 4C15 3.4 14.6 3 14 3M10 7V5H8V17H20V5H18V7M12 15V9L17 12" />
    </g>
    <g id="mdi-clipboard-play-outline" transform="translate(576 108) scale(1.5)" fill="#555">
      <path d="M19,3H14.82C14.25,1.44 12.53,0.64 11,1.2C10.14,1.5 9.5,2.16 9.18,3H5A2,2 0 0,0 3,5V19A2,2 0 0,0 5,21H19A2,2 0 0,0 21,19V5A2,2 0 0,0 19,3M12,3A1,1 0 0,1 13,4A1,1 0 0,1 12,5A1,1 0 0,1 11,4A1,1 0 0,1 12,3M7,7H17V5H19V19H5V5H7V7M10,17V9L15,13L10,17Z" />
    </g>
    <g id="mdi-clipboard-play-outline" transform="translate(612 108) scale(1.5)" fill="#fff">
      <path d="M19,3H14.82C14.25,1.44 12.53,0.64 11,1.2C10.14,1.5 9.5,2.16 9.18,3H5A2,2 0 0,0 3,5V19A2,2 0 0,0 5,21H19A2,2 0 0,0 21,19V5A2,2 0 0,0 19,3M12,3A1,1 0 0,1 13,4A1,1 0 0,1 12,5A1,1 0 0,1 11,4A1,1 0 0,1 12,3M7,7H17V5H19V19H5V5H7V7M10,17V9L15,13L10,17Z" />
    </g>
    <g id="mdi-clipboard-plus" transform="translate(648 108) scale(1.5)" fill="#555">
      <path d="M19,3H14.82C14.4,1.84 13.3,1 12,1C10.7,1 9.6,1.84 9.18,3H5A2,2 0 0,0 3,5V19A2,2 0 0,0 5,21H19A2,2 0 0,0 21,19V5A2,2 0 0,0 19,3M12,3A1,1 0 0,1 13,4A1,1 0 0,1 12,5A1,1 0 0,1 11,4A1,1 0 0,1 12,3M13,12H16V14H13V17H11V14H8V12H11V9H13V12Z" />
    </g>
    <g id="mdi-clipboard-plus" transform="translate(684 108) scale(1.5)" fill="#fff">
      <path d="M19,3H14.82C14.4,1.84 13.3,1 12,1C10.7,1 9.6,1.84 9.18,3H5A2,2 0 0,0 3,5V19A2,2 0 0,0 5,21H19A2,2 0 0,0 21,19V5A2,2 0 0,0 19,3M12,3A1,1 0 0,1 13,4A1,1 0 0,1 12,5A1,1 0 0,1 11,4A1,1 0 0,1 12,3M13,12H16V14H13V17H11V14H8V12H11V9H13V12Z" />
    </g>
    <g id="mdi-clipboard-plus-outline" transform="translate(0 144) scale(1.5)" fill="#555">
      <path d="M19 3H14.82C14.4 1.84 13.3 1 12 1S9.6 1.84 9.18 3H5C3.9 3 3 3.9 3 5V19C3 20.11 3.9 21 5 21H19C20.11 21 21 20.11 21 19V5C21 3.9 20.11 3 19 3M12 3C12.55 3 13 3.45 13 4S12.55 5 12 5 11 4.55 11 4 11.45 3 12 3M7 7H17V5H19V19H5V5H7V7M13 12H16V14H13V17H11V14H8V12H11V9H13V12Z" />
    </g>
    <g id="mdi-clipboard-plus-outline" transform="translate(36 144) scale(1.5)" fill="#fff">
      <path d="M19 3H14.82C14.4 1.84 13.3 1 12 1S9.6 1.84 9.18 3H5C3.9 3 3 3.9 3 5V19C3 20.11 3.9 21 5 21H19C20.11 21 21 20.11 21 19V5C21 3.9 20.11 3 19 3M12 3C12.55 3 13 3.45 13 4S12.55 5 12 5 11 4.55 11 4 11.45 3 12 3M7 7H17V5H19V19H5V5H7V7M13 12H16V14H13V17H11V14H8V12H11V9H13V12Z" />
    </g>
    <g id="mdi-clipboard-pulse" transform="translate(72 144) scale(1.5)" fill="#555">
      <path d="M19,3H14.82C14.4,1.84 13.3,1 12,1C10.7,1 9.6,1.84 9.18,3H5A2,2 0 0,0 3,5V19A2,2 0 0,0 5,21H19A2,2 0 0,0 21,19V5A2,2 0 0,0 19,3M12,3A1,1 0 0,1 13,4A1,1 0 0,1 12,5A1,1 0 0,1 11,4A1,1 0 0,1 12,3M5,13.46H7.17L10.5,7.08L11.44,14.05L13.93,10.86L16.53,13.46H19V15H15.89L14.07,13.21L10.38,17.92L9.62,12.15L8.11,15H5V13.46Z" />
    </g>
    <g id="mdi-clipboard-pulse" transform="translate(108 144) scale(1.5)" fill="#fff">
      <path d="M19,3H14.82C14.4,1.84 13.3,1 12,1C10.7,1 9.6,1.84 9.18,3H5A2,2 0 0,0 3,5V19A2,2 0 0,0 5,21H19A2,2 0 0,0 21,19V5A2,2 0 0,0 19,3M12,3A1,1 0 0,1 13,4A1,1 0 0,1 12,5A1,1 0 0,1 11,4A1,1 0 0,1 12,3M5,13.46H7.17L10.5,7.08L11.44,14.05L13.93,10.86L16.53,13.46H19V15H15.89L14.07,13.21L10.38,17.92L9.62,12.15L8.11,15H5V13.46Z" />
    </g>
    <g id="mdi-clipboard-pulse-outline" transform="translate(144 144) scale(1.5)" fill="#555">
      <path d="M19,3H14.82C14.4,1.84 13.3,1 12,1C10.7,1 9.6,1.84 9.18,3H5A2,2 0 0,0 3,5V19A2,2 0 0,0 5,21H19A2,2 0 0,0 21,19V5A2,2 0 0,0 19,3M12,3A1,1 0 0,1 13,4A1,1 0 0,1 12,5A1,1 0 0,1 11,4A1,1 0 0,1 12,3M5,15H8.11L9.62,12.15L10.38,17.92L14.07,13.21L15.89,15H19V19H5V15M19,13.46H16.53L13.93,10.86L11.44,14.05L10.5,7.08L7.17,13.46H5V5H7V6H17V5H19V6L19,13.46Z" />
    </g>
    <g id="mdi-clipboard-pulse-outline" transform="translate(180 144) scale(1.5)" fill="#fff">
      <path d="M19,3H14.82C14.4,1.84 13.3,1 12,1C10.7,1 9.6,1.84 9.18,3H5A2,2 0 0,0 3,5V19A2,2 0 0,0 5,21H19A2,2 0 0,0 21,19V5A2,2 0 0,0 19,3M12,3A1,1 0 0,1 13,4A1,1 0 0,1 12,5A1,1 0 0,1 11,4A1,1 0 0,1 12,3M5,15H8.11L9.62,12.15L10.38,17.92L14.07,13.21L15.89,15H19V19H5V15M19,13.46H16.53L13.93,10.86L11.44,14.05L10.5,7.08L7.17,13.46H5V5H7V6H17V5H19V6L19,13.46Z" />
    </g>
    <g id="mdi-clipboard-remove" transform="translate(216 144) scale(1.5)" fill="#555">
      <path d="M19 3H14.82C14.4 1.84 13.3 1 12 1S9.6 1.84 9.18 3H5C3.9 3 3 3.9 3 5V19C3 20.11 3.9 21 5 21H19C20.11 21 21 20.11 21 19V5C21 3.9 20.11 3 19 3M12 3C12.55 3 13 3.45 13 4S12.55 5 12 5 11 4.55 11 4 11.45 3 12 3M15.54 15.12L14.12 16.54L12 14.41L9.88 16.54L8.47 15.12L10.59 13L8.47 10.88L9.88 9.47L12 11.59L14.12 9.47L15.54 10.88L13.41 13L15.54 15.12Z" />
    </g>
    <g id="mdi-clipboard-remove" transform="translate(252 144) scale(1.5)" fill="#fff">
      <path d="M19 3H14.82C14.4 1.84 13.3 1 12 1S9.6 1.84 9.18 3H5C3.9 3 3 3.9 3 5V19C3 20.11 3.9 21 5 21H19C20.11 21 21 20.11 21 19V5C21 3.9 20.11 3 19 3M12 3C12.55 3 13 3.45 13 4S12.55 5 12 5 11 4.55 11 4 11.45 3 12 3M15.54 15.12L14.12 16.54L12 14.41L9.88 16.54L8.47 15.12L10.59 13L8.47 10.88L9.88 9.47L12 11.59L14.12 9.47L15.54 10.88L13.41 13L15.54 15.12Z" />
    </g>
    <g id="mdi-clipboard-remove-outline" transform="translate(288 144) scale(1.5)" fill="#555">
      <path d="M19 3H14.82C14.4 1.84 13.3 1 12 1S9.6 1.84 9.18 3H5C3.9 3 3 3.9 3 5V19C3 20.11 3.9 21 5 21H19C20.11 21 21 20.11 21 19V5C21 3.9 20.11 3 19 3M12 3C12.55 3 13 3.45 13 4S12.55 5 12 5 11 4.55 11 4 11.45 3 12 3M19 19H5V5H7V7H17V5H19V19M15.54 10.88L13.41 13L15.54 15.12L14.12 16.54L12 14.41L9.88 16.54L8.47 15.12L10.59 13L8.47 10.88L9.88 9.47L12 11.59L14.12 9.47L15.54 10.88Z" />
    </g>
    <g id="mdi-clipboard-remove-outline" transform="translate(324 144) scale(1.5)" fill="#fff">
      <path d="M19 3H14.82C14.4 1.84 13.3 1 12 1S9.6 1.84 9.18 3H5C3.9 3 3 3.9 3 5V19C3 20.11 3.9 21 5 21H19C20.11 21 21 20.11 21 19V5C21 3.9 20.11 3 19 3M12 3C12.55 3 13 3.45 13 4S12.55 5 12 5 11 4.55 11 4 11.45 3 12 3M19 19H5V5H7V7H17V5H19V19M15.54 10.88L13.41 13L15.54 15.12L14.12 16.54L12 14.41L9.88 16.54L8.47 15.12L10.59 13L8.47 10.88L9.88 9.47L12 11.59L14.12 9.47L15.54 10.88Z" />
    </g>
    <g id="mdi-clipboard-search" transform="translate(360 144) scale(1.5)" fill="#555">
      <path d="M11.9 10.9C14.41 8.4 18.45 8.37 21 10.82V5C21 3.9 20.11 3 19 3H14.82C14.4 1.84 13.3 1 12 1S9.6 1.84 9.18 3H5C3.9 3 3 3.9 3 5V19C3 20.11 3.9 21 5 21H13.06C12.65 20.74 12.26 20.45 11.9 20.1C9.37 17.56 9.37 13.44 11.9 10.9M12 3C12.55 3 13 3.45 13 4S12.55 5 12 5 11 4.55 11 4 11.45 3 12 3M20.31 17.9C20.75 17.21 21 16.38 21 15.5C21 13 19 11 16.5 11S12 13 12 15.5 14 20 16.5 20C17.37 20 18.19 19.75 18.88 19.32L22 22.39L23.39 21L20.31 17.9M16.5 18C15.12 18 14 16.88 14 15.5S15.12 13 16.5 13 19 14.12 19 15.5 17.88 18 16.5 18Z" />
    </g>
    <g id="mdi-clipboard-search" transform="translate(396 144) scale(1.5)" fill="#fff">
      <path d="M11.9 10.9C14.41 8.4 18.45 8.37 21 10.82V5C21 3.9 20.11 3 19 3H14.82C14.4 1.84 13.3 1 12 1S9.6 1.84 9.18 3H5C3.9 3 3 3.9 3 5V19C3 20.11 3.9 21 5 21H13.06C12.65 20.74 12.26 20.45 11.9 20.1C9.37 17.56 9.37 13.44 11.9 10.9M12 3C12.55 3 13 3.45 13 4S12.55 5 12 5 11 4.55 11 4 11.45 3 12 3M20.31 17.9C20.75 17.21 21 16.38 21 15.5C21 13 19 11 16.5 11S12 13 12 15.5 14 20 16.5 20C17.37 20 18.19 19.75 18.88 19.32L22 22.39L23.39 21L20.31 17.9M16.5 18C15.12 18 14 16.88 14 15.5S15.12 13 16.5 13 19 14.12 19 15.5 17.88 18 16.5 18Z" />
    </g>
    <g id="mdi-clipboard-search-outline" transform="translate(432 144) scale(1.5)" fill="#555">
      <path d="M11.03 19H5V5H7V7H17V5H19V9.5C19.72 9.8 20.4 10.24 21 10.82V5C21 3.9 20.11 3 19 3H14.82C14.4 1.84 13.3 1 12 1S9.6 1.84 9.18 3H5C3.9 3 3 3.9 3 5V19C3 20.11 3.9 21 5 21H13.06C12.65 20.74 12.26 20.45 11.9 20.1C11.57 19.76 11.27 19.39 11.03 19M12 3C12.55 3 13 3.45 13 4S12.55 5 12 5 11 4.55 11 4 11.45 3 12 3M20.31 17.9C20.75 17.21 21 16.38 21 15.5C21 13 19 11 16.5 11S12 13 12 15.5 14 20 16.5 20C17.37 20 18.19 19.75 18.88 19.32L22 22.39L23.39 21L20.31 17.9M16.5 18C15.12 18 14 16.88 14 15.5S15.12 13 16.5 13 19 14.12 19 15.5 17.88 18 16.5 18Z" />
    </g>
    <g id="mdi-clipboard-search-outline" transform="translate(468 144) scale(1.5)" fill="#fff">
      <path d="M11.03 19H5V5H7V7H17V5H19V9.5C19.72 9.8 20.4 10.24 21 10.82V5C21 3.9 20.11 3 19 3H14.82C14.4 1.84 13.3 1 12 1S9.6 1.84 9.18 3H5C3.9 3 3 3.9 3 5V19C3 20.11 3.9 21 5 21H13.06C12.65 20.74 12.26 20.45 11.9 20.1C11.57 19.76 11.27 19.39 11.03 19M12 3C12.55 3 13 3.45 13 4S12.55 5 12 5 11 4.55 11 4 11.45 3 12 3M20.31 17.9C20.75 17.21 21 16.38 21 15.5C21 13 19 11 16.5 11S12 13 12 15.5 14 20 16.5 20C17.37 20 18.19 19.75 18.88 19.32L22 22.39L23.39 21L20.31 17.9M16.5 18C15.12 18 14 16.88 14 15.5S15.12 13 16.5 13 19 14.12 19 15.5 17.88 18 16.5 18Z" />
    </g>
    <g id="mdi-clipboard-text" transform="translate(504 144) scale(1.5)" fill="#555">
      <path d="M17,9H7V7H17M17,13H7V11H17M14,17H7V15H14M12,3A1,1 0 0,1 13,4A1,1 0 0,1 12,5A1,1 0 0,1 11,4A1,1 0 0,1 12,3M19,3H14.82C14.4,1.84 13.3,1 12,1C10.7,1 9.6,1.84 9.18,3H5A2,2 0 0,0 3,5V19A2,2 0 0,0 5,21H19A2,2 0 0,0 21,19V5A2,2 0 0,0 19,3Z" />
    </g>
    <g id="mdi-clipboard-text" transform="translate(540 144) scale(1.5)" fill="#fff">
      <path d="M17,9H7V7H17M17,13H7V11H17M14,17H7V15H14M12,3A1,1 0 0,1 13,4A1,1 0 0,1 12,5A1,1 0 0,1 11,4A1,1 0 0,1 12,3M19,3H14.82C14.4,1.84 13.3,1 12,1C10.7,1 9.6,1.84 9.18,3H5A2,2 0 0,0 3,5V19A2,2 0 0,0 5,21H19A2,2 0 0,0 21,19V5A2,2 0 0,0 19,3Z" />
    </g>
    <g id="mdi-clipboard-text-multiple" transform="translate(576 144) scale(1.5)" fill="#555">
      <path d="M20 3H16.8C16.4 1.8 15.3 1 14 1C12.7 1 11.6 1.8 11.2 3H8C6.9 3 6 3.9 6 5V17C6 18.1 6.9 19 8 19H20C21.1 19 22 18.1 22 17V5C22 3.9 21.1 3 20 3M14 3C14.6 3 15 3.5 15 4C15 4.5 14.5 5 14 5C13.5 5 13 4.5 13 4C13 3.5 13.4 3 14 3M16 14H9V12H16M19 10H9V8H19M4 21H18V23H4C2.9 23 2 22.1 2 21V7H4" />
    </g>
    <g id="mdi-clipboard-text-multiple" transform="translate(612 144) scale(1.5)" fill="#fff">
      <path d="M20 3H16.8C16.4 1.8 15.3 1 14 1C12.7 1 11.6 1.8 11.2 3H8C6.9 3 6 3.9 6 5V17C6 18.1 6.9 19 8 19H20C21.1 19 22 18.1 22 17V5C22 3.9 21.1 3 20 3M14 3C14.6 3 15 3.5 15 4C15 4.5 14.5 5 14 5C13.5 5 13 4.5 13 4C13 3.5 13.4 3 14 3M16 14H9V12H16M19 10H9V8H19M4 21H18V23H4C2.9 23 2 22.1 2 21V7H4" />
    </g>
    <g id="mdi-clipboard-text-multiple-outline" transform="translate(648 144) scale(1.5)" fill="#555">
      <path d="M4 7V21H18V23H4C2.9 23 2 22.1 2 21V7H4M20 3C21.1 3 22 3.9 22 5V17C22 18.1 21.1 19 20 19H8C6.9 19 6 18.1 6 17V5C6 3.9 6.9 3 8 3H11.18C11.6 1.84 12.7 1 14 1C15.3 1 16.4 1.84 16.82 3H20M14 3C13.45 3 13 3.45 13 4C13 4.55 13.45 5 14 5C14.55 5 15 4.55 15 4C15 3.45 14.55 3 14 3M10 7V5H8V17H20V5H18V7M15 15H10V13H15M18 11H10V9H18V11Z" />
    </g>
    <g id="mdi-clipboard-text-multiple-outline" transform="translate(684 144) scale(1.5)" fill="#fff">
      <path d="M4 7V21H18V23H4C2.9 23 2 22.1 2 21V7H4M20 3C21.1 3 22 3.9 22 5V17C22 18.1 21.1 19 20 19H8C6.9 19 6 18.1 6 17V5C6 3.9 6.9 3 8 3H11.18C11.6 1.84 12.7 1 14 1C15.3 1 16.4 1.84 16.82 3H20M14 3C13.45 3 13 3.45 13 4C13 4.55 13.45 5 14 5C14.55 5 15 4.55 15 4C15 3.45 14.55 3 14 3M10 7V5H8V17H20V5H18V7M15 15H10V13H15M18 11H10V9H18V11Z" />
    </g>
    <g id="mdi-clipboard-text-off" transform="translate(0 180) scale(1.5)" fill="#555">
      <path d="M2.39 1.73L1.11 3L3 4.9C3 4.93 3 4.97 3 5V19C3 20.11 3.9 21 5 21H19C19.03 21 19.07 21 19.1 21L20.84 22.73L22.11 21.46L2.39 1.73M7 11H9.11L11.11 13H7V11M14 17H7V15H13.11L14 15.89V17M17 7V9H12.2L14.2 11H17V13H16.2L21 17.8V5C21 3.9 20.11 3 19 3H14.82C14.4 1.84 13.3 1 12 1S9.6 1.84 9.18 3H6.2L10.2 7H17M12 3C12.55 3 13 3.45 13 4S12.55 5 12 5 11 4.55 11 4 11.45 3 12 3Z" />
    </g>
    <g id="mdi-clipboard-text-off" transform="translate(36 180) scale(1.5)" fill="#fff">
      <path d="M2.39 1.73L1.11 3L3 4.9C3 4.93 3 4.97 3 5V19C3 20.11 3.9 21 5 21H19C19.03 21 19.07 21 19.1 21L20.84 22.73L22.11 21.46L2.39 1.73M7 11H9.11L11.11 13H7V11M14 17H7V15H13.11L14 15.89V17M17 7V9H12.2L14.2 11H17V13H16.2L21 17.8V5C21 3.9 20.11 3 19 3H14.82C14.4 1.84 13.3 1 12 1S9.6 1.84 9.18 3H6.2L10.2 7H17M12 3C12.55 3 13 3.45 13 4S12.55 5 12 5 11 4.55 11 4 11.45 3 12 3Z" />
    </g>
    <g id="mdi-clipboard-text-off-outline" transform="translate(72 180) scale(1.5)" fill="#555">
      <path d="M17 7V5H19V15.8L21 17.8V5C21 3.9 20.11 3 19 3H14.82C14.25 1.44 12.53 .64 11 1.2C10.14 1.5 9.5 2.16 9.18 3H6.2L10.2 7H17M12 3C12.55 3 13 3.45 13 4S12.55 5 12 5 11 4.55 11 4 11.45 3 12 3M14.2 11L12.2 9H17V11H14.2M2.39 1.73L1.11 3L3 4.9C3 4.93 3 4.97 3 5V19C3 20.11 3.9 21 5 21H19C19.03 21 19.07 21 19.1 21L20.84 22.73L22.11 21.46L2.39 1.73M5 19V6.89L7.11 9H7V11H9.11L11.11 13H7V15H13.11L17.11 19H5Z" />
    </g>
    <g id="mdi-clipboard-text-off-outline" transform="translate(108 180) scale(1.5)" fill="#fff">
      <path d="M17 7V5H19V15.8L21 17.8V5C21 3.9 20.11 3 19 3H14.82C14.25 1.44 12.53 .64 11 1.2C10.14 1.5 9.5 2.16 9.18 3H6.2L10.2 7H17M12 3C12.55 3 13 3.45 13 4S12.55 5 12 5 11 4.55 11 4 11.45 3 12 3M14.2 11L12.2 9H17V11H14.2M2.39 1.73L1.11 3L3 4.9C3 4.93 3 4.97 3 5V19C3 20.11 3.9 21 5 21H19C19.03 21 19.07 21 19.1 21L20.84 22.73L22.11 21.46L2.39 1.73M5 19V6.89L7.11 9H7V11H9.11L11.11 13H7V15H13.11L17.11 19H5Z" />
    </g>
    <g id="mdi-clipboard-text-outline" transform="translate(144 180) scale(1.5)" fill="#555">
      <path d="M19,3H14.82C14.25,1.44 12.53,0.64 11,1.2C10.14,1.5 9.5,2.16 9.18,3H5A2,2 0 0,0 3,5V19A2,2 0 0,0 5,21H19A2,2 0 0,0 21,19V5A2,2 0 0,0 19,3M12,3A1,1 0 0,1 13,4A1,1 0 0,1 12,5A1,1 0 0,1 11,4A1,1 0 0,1 12,3M7,7H17V5H19V19H5V5H7V7M17,11H7V9H17V11M15,15H7V13H15V15Z" />
    </g>
    <g id="mdi-clipboard-text-outline" transform="translate(180 180) scale(1.5)" fill="#fff">
      <path d="M19,3H14.82C14.25,1.44 12.53,0.64 11,1.2C10.14,1.5 9.5,2.16 9.18,3H5A2,2 0 0,0 3,5V19A2,2 0 0,0 5,21H19A2,2 0 0,0 21,19V5A2,2 0 0,0 19,3M12,3A1,1 0 0,1 13,4A1,1 0 0,1 12,5A1,1 0 0,1 11,4A1,1 0 0,1 12,3M7,7H17V5H19V19H5V5H7V7M17,11H7V9H17V11M15,15H7V13H15V15Z" />
    </g>
    <g id="mdi-clipboard-text-play" transform="translate(216 180) scale(1.5)" fill="#555">
      <path d="M19,3A2,2 0 0,1 21,5V13.34C20.36,13.11 19.68,13 19,13C15.68,13 13,15.69 13,19C13,19.68 13.11,20.36 13.34,21H5A2,2 0 0,1 3,19V5A2,2 0 0,1 5,3H9.18C9.5,2.16 10.14,1.5 11,1.2C12.53,0.64 14.25,1.44 14.82,3H19M12,3A1,1 0 0,0 11,4A1,1 0 0,0 12,5A1,1 0 0,0 13,4A1,1 0 0,0 12,3M11,17V15H7V17H11M13,13V11H7V13H13M17,9V7H7V9H17M17,16L22,19L17,22V16Z" />
    </g>
    <g id="mdi-clipboard-text-play" transform="translate(252 180) scale(1.5)" fill="#fff">
      <path d="M19,3A2,2 0 0,1 21,5V13.34C20.36,13.11 19.68,13 19,13C15.68,13 13,15.69 13,19C13,19.68 13.11,20.36 13.34,21H5A2,2 0 0,1 3,19V5A2,2 0 0,1 5,3H9.18C9.5,2.16 10.14,1.5 11,1.2C12.53,0.64 14.25,1.44 14.82,3H19M12,3A1,1 0 0,0 11,4A1,1 0 0,0 12,5A1,1 0 0,0 13,4A1,1 0 0,0 12,3M11,17V15H7V17H11M13,13V11H7V13H13M17,9V7H7V9H17M17,16L22,19L17,22V16Z" />
    </g>
    <g id="mdi-clipboard-text-play-outline" transform="translate(288 180) scale(1.5)" fill="#555">
      <path d="M19,3H14.82C14.25,1.44 12.53,0.64 11,1.2C10.14,1.5 9.5,2.16 9.18,3H5A2,2 0 0,0 3,5V19A2,2 0 0,0 5,21H15V19H5V5H7V7H17V5H19V14H21V5A2,2 0 0,0 19,3M12,5A1,1 0 0,1 11,4A1,1 0 0,1 12,3A1,1 0 0,1 13,4A1,1 0 0,1 12,5M17,16V22L22,19L17,16M17,11H7V9H17V11M15,15H7V13H15V15Z" />
    </g>
    <g id="mdi-clipboard-text-play-outline" transform="translate(324 180) scale(1.5)" fill="#fff">
      <path d="M19,3H14.82C14.25,1.44 12.53,0.64 11,1.2C10.14,1.5 9.5,2.16 9.18,3H5A2,2 0 0,0 3,5V19A2,2 0 0,0 5,21H15V19H5V5H7V7H17V5H19V14H21V5A2,2 0 0,0 19,3M12,5A1,1 0 0,1 11,4A1,1 0 0,1 12,3A1,1 0 0,1 13,4A1,1 0 0,1 12,5M17,16V22L22,19L17,16M17,11H7V9H17V11M15,15H7V13H15V15Z" />
    </g>
    <g id="mdi-clipboard-text-search" transform="translate(360 180) scale(1.5)" fill="#555">
      <path d="M10.18 17H7V15H10C10.08 14.32 10.23 13.64 10.5 13H7V11H11.82C11.85 10.97 11.87 10.94 11.9 10.9C13.17 9.64 14.84 9 16.5 9H7V7H17V9H16.5C18.12 9 19.74 9.61 21 10.82V5C21 3.9 20.11 3 19 3H14.82C14.4 1.84 13.3 1 12 1S9.6 1.84 9.18 3H5C3.9 3 3 3.9 3 5V19C3 20.11 3.9 21 5 21H13.06C12.65 20.74 12.26 20.45 11.9 20.1C11 19.21 10.45 18.13 10.18 17M12 3C12.55 3 13 3.45 13 4S12.55 5 12 5 11 4.55 11 4 11.45 3 12 3M20.31 17.9C20.75 17.21 21 16.38 21 15.5C21 13 19 11 16.5 11S12 13 12 15.5 14 20 16.5 20C17.37 20 18.19 19.75 18.88 19.32L22 22.39L23.39 21L20.31 17.9M16.5 18C15.12 18 14 16.88 14 15.5S15.12 13 16.5 13 19 14.12 19 15.5 17.88 18 16.5 18Z" />
    </g>
    <g id="mdi-clipboard-text-search" transform="translate(396 180) scale(1.5)" fill="#fff">
      <path d="M10.18 17H7V15H10C10.08 14.32 10.23 13.64 10.5 13H7V11H11.82C11.85 10.97 11.87 10.94 11.9 10.9C13.17 9.64 14.84 9 16.5 9H7V7H17V9H16.5C18.12 9 19.74 9.61 21 10.82V5C21 3.9 20.11 3 19 3H14.82C14.4 1.84 13.3 1 12 1S9.6 1.84 9.18 3H5C3.9 3 3 3.9 3 5V19C3 20.11 3.9 21 5 21H13.06C12.65 20.74 12.26 20.45 11.9 20.1C11 19.21 10.45 18.13 10.18 17M12 3C12.55 3 13 3.45 13 4S12.55 5 12 5 11 4.55 11 4 11.45 3 12 3M20.31 17.9C20.75 17.21 21 16.38 21 15.5C21 13 19 11 16.5 11S12 13 12 15.5 14 20 16.5 20C17.37 20 18.19 19.75 18.88 19.32L22 22.39L23.39 21L20.31 17.9M16.5 18C15.12 18 14 16.88 14 15.5S15.12 13 16.5 13 19 14.12 19 15.5 17.88 18 16.5 18Z" />
    </g>
    <g id="mdi-clipboard-text-search-outline" transform="translate(432 180) scale(1.5)" fill="#555">
      <path d="M17 9H16.5 17M7 15H10C10.08 14.32 10.23 13.64 10.5 13H7V15M11.9 10.9C13.17 9.64 14.84 9 16.5 9H7V11H11.82C11.85 10.97 11.87 10.94 11.9 10.9M11.9 20.1C12.26 20.45 12.65 20.74 13.06 21H5C3.9 21 3 20.11 3 19V5C3 3.9 3.9 3 5 3H9.18C9.5 2.16 10.14 1.5 11 1.2C12.53 .64 14.25 1.44 14.82 3H19C20.11 3 21 3.9 21 5V10.82C20.4 10.24 19.72 9.8 19 9.5V5H17V7H7V5H5V19H11.03C11.27 19.39 11.57 19.76 11.9 20.1M11 4C11 4.55 11.45 5 12 5S13 4.55 13 4 12.55 3 12 3 11 3.45 11 4M23.39 21L22 22.39L18.88 19.32C18.19 19.75 17.37 20 16.5 20C14 20 12 18 12 15.5S14 11 16.5 11 21 13 21 15.5C21 16.38 20.75 17.21 20.31 17.9L23.39 21M19 15.5C19 14.12 17.88 13 16.5 13S14 14.12 14 15.5 15.12 18 16.5 18 19 16.88 19 15.5Z" />
    </g>
    <g id="mdi-clipboard-text-search-outline" transform="translate(468 180) scale(1.5)" fill="#fff">
      <path d="M17 9H16.5 17M7 15H10C10.08 14.32 10.23 13.64 10.5 13H7V15M11.9 10.9C13.17 9.64 14.84 9 16.5 9H7V11H11.82C11.85 10.97 11.87 10.94 11.9 10.9M11.9 20.1C12.26 20.45 12.65 20.74 13.06 21H5C3.9 21 3 20.11 3 19V5C3 3.9 3.9 3 5 3H9.18C9.5 2.16 10.14 1.5 11 1.2C12.53 .64 14.25 1.44 14.82 3H19C20.11 3 21 3.9 21 5V10.82C20.4 10.24 19.72 9.8 19 9.5V5H17V7H7V5H5V19H11.03C11.27 19.39 11.57 19.76 11.9 20.1M11 4C11 4.55 11.45 5 12 5S13 4.55 13 4 12.55 3 12 3 11 3.45 11 4M23.39 21L22 22.39L18.88 19.32C18.19 19.75 17.37 20 16.5 20C14 20 12 18 12 15.5S14 11 16.5 11 21 13 21 15.5C21 16.38 20.75 17.21 20.31 17.9L23.39 21M19 15.5C19 14.12 17.88 13 16.5 13S14 14.12 14 15.5 15.12 18 16.5 18 19 16.88 19 15.5Z" />
    </g>
    <g id="mdi-clippy" transform="translate(504 180) scale(1.5)" fill="#555">
      <path d="M15,15.5A2.5,2.5 0 0,1 12.5,18A2.5,2.5 0 0,1 10,15.5V13.75A0.75,0.75 0 0,1 10.75,13A0.75,0.75 0 0,1 11.5,13.75V15.5A1,1 0 0,0 12.5,16.5A1,1 0 0,0 13.5,15.5V11.89C12.63,11.61 12,10.87 12,10C12,8.9 13,8 14.25,8C15.5,8 16.5,8.9 16.5,10C16.5,10.87 15.87,11.61 15,11.89V15.5M8.25,8C9.5,8 10.5,8.9 10.5,10C10.5,10.87 9.87,11.61 9,11.89V17.25A3.25,3.25 0 0,0 12.25,20.5A3.25,3.25 0 0,0 15.5,17.25V13.75A0.75,0.75 0 0,1 16.25,13A0.75,0.75 0 0,1 17,13.75V17.25A4.75,4.75 0 0,1 12.25,22A4.75,4.75 0 0,1 7.5,17.25V11.89C6.63,11.61 6,10.87 6,10C6,8.9 7,8 8.25,8M10.06,6.13L9.63,7.59C9.22,7.37 8.75,7.25 8.25,7.25C7.34,7.25 6.53,7.65 6.03,8.27L4.83,7.37C5.46,6.57 6.41,6 7.5,5.81V5.75A3.75,3.75 0 0,1 11.25,2A3.75,3.75 0 0,1 15,5.75V5.81C16.09,6 17.04,6.57 17.67,7.37L16.47,8.27C15.97,7.65 15.16,7.25 14.25,7.25C13.75,7.25 13.28,7.37 12.87,7.59L12.44,6.13C12.77,6 13.13,5.87 13.5,5.81V5.75C13.5,4.5 12.5,3.5 11.25,3.5C10,3.5 9,4.5 9,5.75V5.81C9.37,5.87 9.73,6 10.06,6.13M14.25,9.25C13.7,9.25 13.25,9.59 13.25,10C13.25,10.41 13.7,10.75 14.25,10.75C14.8,10.75 15.25,10.41 15.25,10C15.25,9.59 14.8,9.25 14.25,9.25M8.25,9.25C7.7,9.25 7.25,9.59 7.25,10C7.25,10.41 7.7,10.75 8.25,10.75C8.8,10.75 9.25,10.41 9.25,10C9.25,9.59 8.8,9.25 8.25,9.25Z" />
    </g>
    <g id="mdi-clippy" transform="translate(540 180) scale(1.5)" fill="#fff">
      <path d="M15,15.5A2.5,2.5 0 0,1 12.5,18A2.5,2.5 0 0,1 10,15.5V13.75A0.75,0.75 0 0,1 10.75,13A0.75,0.75 0 0,1 11.5,13.75V15.5A1,1 0 0,0 12.5,16.5A1,1 0 0,0 13.5,15.5V11.89C12.63,11.61 12,10.87 12,10C12,8.9 13,8 14.25,8C15.5,8 16.5,8.9 16.5,10C16.5,10.87 15.87,11.61 15,11.89V15.5M8.25,8C9.5,8 10.5,8.9 10.5,10C10.5,10.87 9.87,11.61 9,11.89V17.25A3.25,3.25 0 0,0 12.25,20.5A3.25,3.25 0 0,0 15.5,17.25V13.75A0.75,0.75 0 0,1 16.25,13A0.75,0.75 0 0,1 17,13.75V17.25A4.75,4.75 0 0,1 12.25,22A4.75,4.75 0 0,1 7.5,17.25V11.89C6.63,11.61 6,10.87 6,10C6,8.9 7,8 8.25,8M10.06,6.13L9.63,7.59C9.22,7.37 8.75,7.25 8.25,7.25C7.34,7.25 6.53,7.65 6.03,8.27L4.83,7.37C5.46,6.57 6.41,6 7.5,5.81V5.75A3.75,3.75 0 0,1 11.25,2A3.75,3.75 0 0,1 15,5.75V5.81C16.09,6 17.04,6.57 17.67,7.37L16.47,8.27C15.97,7.65 15.16,7.25 14.25,7.25C13.75,7.25 13.28,7.37 12.87,7.59L12.44,6.13C12.77,6 13.13,5.87 13.5,5.81V5.75C13.5,4.5 12.5,3.5 11.25,3.5C10,3.5 9,4.5 9,5.75V5.81C9.37,5.87 9.73,6 10.06,6.13M14.25,9.25C13.7,9.25 13.25,9.59 13.25,10C13.25,10.41 13.7,10.75 14.25,10.75C14.8,10.75 15.25,10.41 15.25,10C15.25,9.59 14.8,9.25 14.25,9.25M8.25,9.25C7.7,9.25 7.25,9.59 7.25,10C7.25,10.41 7.7,10.75 8.25,10.75C8.8,10.75 9.25,10.41 9.25,10C9.25,9.59 8.8,9.25 8.25,9.25Z" />
    </g>
    <g id="mdi-clock" transform="translate(576 180) scale(1.5)" fill="#555">
      <path d="M12,2A10,10 0 0,0 2,12A10,10 0 0,0 12,22A10,10 0 0,0 22,12A10,10 0 0,0 12,2M16.2,16.2L11,13V7H12.5V12.2L17,14.9L16.2,16.2Z" />
    </g>
    <g id="mdi-clock" transform="translate(612 180) scale(1.5)" fill="#fff">
      <path d="M12,2A10,10 0 0,0 2,12A10,10 0 0,0 12,22A10,10 0 0,0 22,12A10,10 0 0,0 12,2M16.2,16.2L11,13V7H12.5V12.2L17,14.9L16.2,16.2Z" />
    </g>
    <g id="mdi-clock-alert" transform="translate(648 180) scale(1.5)" fill="#555">
      <path d="M20 12H22V18H20V12M20 20H22V22H20V20M12 2C6.5 2 2 6.5 2 12S6.5 22 12 22C14.3 22 16.3 21.2 18 20V10H21.8C20.9 5.4 16.8 2 12 2M16.2 16.2L11 13V7H12.5V12.2L17 14.9L16.2 16.2Z" />
    </g>
    <g id="mdi-clock-alert" transform="translate(684 180) scale(1.5)" fill="#fff">
      <path d="M20 12H22V18H20V12M20 20H22V22H20V20M12 2C6.5 2 2 6.5 2 12S6.5 22 12 22C14.3 22 16.3 21.2 18 20V10H21.8C20.9 5.4 16.8 2 12 2M16.2 16.2L11 13V7H12.5V12.2L17 14.9L16.2 16.2Z" />
    </g>
    <g id="mdi-clock-alert-outline" transform="translate(0 216) scale(1.5)" fill="#555">
      <path d="M11 7V13L16.2 16.1L17 14.9L12.5 12.2V7H11M20 12V18H22V12H20M20 20V22H22V20H20M18 20C16.3 21.3 14.3 22 12 22C6.5 22 2 17.5 2 12S6.5 2 12 2C16.8 2 20.9 5.4 21.8 10H19.7C18.8 6.6 15.7 4 12 4C7.6 4 4 7.6 4 12S7.6 20 12 20C14.4 20 16.5 18.9 18 17.3V20Z" />
    </g>
    <g id="mdi-clock-alert-outline" transform="translate(36 216) scale(1.5)" fill="#fff">
      <path d="M11 7V13L16.2 16.1L17 14.9L12.5 12.2V7H11M20 12V18H22V12H20M20 20V22H22V20H20M18 20C16.3 21.3 14.3 22 12 22C6.5 22 2 17.5 2 12S6.5 2 12 2C16.8 2 20.9 5.4 21.8 10H19.7C18.8 6.6 15.7 4 12 4C7.6 4 4 7.6 4 12S7.6 20 12 20C14.4 20 16.5 18.9 18 17.3V20Z" />
    </g>
    <g id="mdi-clock-check" transform="translate(72 216) scale(1.5)" fill="#555">
      <path d="M23.5 17L18.5 22L15 18.5L16.5 17L18.5 19L22 15.5L23.5 17M13 19C13 17.5 13.5 16.2 14.4 15.1L11 13V7H12.5V12.2L15.6 14.1C16.6 13.4 17.7 13 19 13C20 13 21 13.3 21.8 13.7C21.9 13.1 22 12.6 22 12C22 6.5 17.5 2 12 2S2 6.5 2 12 6.5 22 12 22C12.6 22 13.2 21.9 13.7 21.8C13.3 21 13 20 13 19Z" />
    </g>
    <g id="mdi-clock-check" transform="translate(108 216) scale(1.5)" fill="#fff">
      <path d="M23.5 17L18.5 22L15 18.5L16.5 17L18.5 19L22 15.5L23.5 17M13 19C13 17.5 13.5 16.2 14.4 15.1L11 13V7H12.5V12.2L15.6 14.1C16.6 13.4 17.7 13 19 13C20 13 21 13.3 21.8 13.7C21.9 13.1 22 12.6 22 12C22 6.5 17.5 2 12 2S2 6.5 2 12 6.5 22 12 22C12.6 22 13.2 21.9 13.7 21.8C13.3 21 13 20 13 19Z" />
    </g>
    <g id="mdi-clock-check-outline" transform="translate(144 216) scale(1.5)" fill="#555">
      <path d="M23.5 17L18.5 22L15 18.5L16.5 17L18.5 19L22 15.5L23.5 17M13.1 19.9C12.7 20 12.4 20 12 20C7.6 20 4 16.4 4 12S7.6 4 12 4 20 7.6 20 12C20 12.4 20 12.7 19.9 13.1C20.6 13.2 21.2 13.4 21.8 13.7C21.9 13.1 22 12.6 22 12C22 6.5 17.5 2 12 2S2 6.5 2 12C2 17.5 6.5 22 12 22C12.6 22 13.2 21.9 13.7 21.8C13.4 21.3 13.2 20.6 13.1 19.9M15.6 14.1L12.5 12.3V7H11V13L14.5 15.1C14.8 14.7 15.2 14.4 15.6 14.1Z" />
    </g>
    <g id="mdi-clock-check-outline" transform="translate(180 216) scale(1.5)" fill="#fff">
      <path d="M23.5 17L18.5 22L15 18.5L16.5 17L18.5 19L22 15.5L23.5 17M13.1 19.9C12.7 20 12.4 20 12 20C7.6 20 4 16.4 4 12S7.6 4 12 4 20 7.6 20 12C20 12.4 20 12.7 19.9 13.1C20.6 13.2 21.2 13.4 21.8 13.7C21.9 13.1 22 12.6 22 12C22 6.5 17.5 2 12 2S2 6.5 2 12C2 17.5 6.5 22 12 22C12.6 22 13.2 21.9 13.7 21.8C13.4 21.3 13.2 20.6 13.1 19.9M15.6 14.1L12.5 12.3V7H11V13L14.5 15.1C14.8 14.7 15.2 14.4 15.6 14.1Z" />
    </g>
    <g id="mdi-clock-digital" transform="translate(216 216) scale(1.5)" fill="#555">
      <path d="M2,6A2,2 0 0,0 0,8V16A2,2 0 0,0 2,18H22A2,2 0 0,0 24,16V8A2,2 0 0,0 22,6M2,8H22V16H2M3,9V10.5H6.25L3,15H4.75L8,10.5V9M9.25,9V10.5H10.75V9M12,9V10.5H13.5V15H15V9M17,9A1,1 0 0,0 16,10V14A1,1 0 0,0 17,15H20A1,1 0 0,0 21,14V10A1,1 0 0,0 20,9M17.5,10.5H19.5V13.5H17.5M9.25,13.5V15H10.75V13.5" />
    </g>
    <g id="mdi-clock-digital" transform="translate(252 216) scale(1.5)" fill="#fff">
      <path d="M2,6A2,2 0 0,0 0,8V16A2,2 0 0,0 2,18H22A2,2 0 0,0 24,16V8A2,2 0 0,0 22,6M2,8H22V16H2M3,9V10.5H6.25L3,15H4.75L8,10.5V9M9.25,9V10.5H10.75V9M12,9V10.5H13.5V15H15V9M17,9A1,1 0 0,0 16,10V14A1,1 0 0,0 17,15H20A1,1 0 0,0 21,14V10A1,1 0 0,0 20,9M17.5,10.5H19.5V13.5H17.5M9.25,13.5V15H10.75V13.5" />
    </g>
    <g id="mdi-clock-end" transform="translate(288 216) scale(1.5)" fill="#555">
      <path d="M12,1C8.14,1 5,4.14 5,8A7,7 0 0,0 12,15C15.86,15 19,11.87 19,8C19,4.14 15.86,1 12,1M12,3.15C14.67,3.15 16.85,5.32 16.85,8C16.85,10.68 14.67,12.85 12,12.85A4.85,4.85 0 0,1 7.15,8A4.85,4.85 0 0,1 12,3.15M11,5V8.69L14.19,10.53L14.94,9.23L12.5,7.82V5M15,16V19H3V21H15V24L19,20M19,20V24H21V16H19" />
    </g>
    <g id="mdi-clock-end" transform="translate(324 216) scale(1.5)" fill="#fff">
      <path d="M12,1C8.14,1 5,4.14 5,8A7,7 0 0,0 12,15C15.86,15 19,11.87 19,8C19,4.14 15.86,1 12,1M12,3.15C14.67,3.15 16.85,5.32 16.85,8C16.85,10.68 14.67,12.85 12,12.85A4.85,4.85 0 0,1 7.15,8A4.85,4.85 0 0,1 12,3.15M11,5V8.69L14.19,10.53L14.94,9.23L12.5,7.82V5M15,16V19H3V21H15V24L19,20M19,20V24H21V16H19" />
    </g>
    <g id="mdi-clock-fast" transform="translate(360 216) scale(1.5)" fill="#555">
      <path d="M15,4A8,8 0 0,1 23,12A8,8 0 0,1 15,20A8,8 0 0,1 7,12A8,8 0 0,1 15,4M15,6A6,6 0 0,0 9,12A6,6 0 0,0 15,18A6,6 0 0,0 21,12A6,6 0 0,0 15,6M14,8H15.5V11.78L17.83,14.11L16.77,15.17L14,12.4V8M2,18A1,1 0 0,1 1,17A1,1 0 0,1 2,16H5.83C6.14,16.71 6.54,17.38 7,18H2M3,13A1,1 0 0,1 2,12A1,1 0 0,1 3,11H5.05L5,12L5.05,13H3M4,8A1,1 0 0,1 3,7A1,1 0 0,1 4,6H7C6.54,6.62 6.14,7.29 5.83,8H4Z" />
    </g>
    <g id="mdi-clock-fast" transform="translate(396 216) scale(1.5)" fill="#fff">
      <path d="M15,4A8,8 0 0,1 23,12A8,8 0 0,1 15,20A8,8 0 0,1 7,12A8,8 0 0,1 15,4M15,6A6,6 0 0,0 9,12A6,6 0 0,0 15,18A6,6 0 0,0 21,12A6,6 0 0,0 15,6M14,8H15.5V11.78L17.83,14.11L16.77,15.17L14,12.4V8M2,18A1,1 0 0,1 1,17A1,1 0 0,1 2,16H5.83C6.14,16.71 6.54,17.38 7,18H2M3,13A1,1 0 0,1 2,12A1,1 0 0,1 3,11H5.05L5,12L5.05,13H3M4,8A1,1 0 0,1 3,7A1,1 0 0,1 4,6H7C6.54,6.62 6.14,7.29 5.83,8H4Z" />
    </g>
    <g id="mdi-clock-in" transform="translate(432 216) scale(1.5)" fill="#555">
      <path d="M2.21,0.79L0.79,2.21L4.8,6.21L3,8H8V3L6.21,4.8M12,8C8.14,8 5,11.13 5,15A7,7 0 0,0 12,22C15.86,22 19,18.87 19,15A7,7 0 0,0 12,8M12,10.15C14.67,10.15 16.85,12.32 16.85,15A4.85,4.85 0 0,1 12,19.85C9.32,19.85 7.15,17.68 7.15,15A4.85,4.85 0 0,1 12,10.15M11,12V15.69L14.19,17.53L14.94,16.23L12.5,14.82V12" />
    </g>
    <g id="mdi-clock-in" transform="translate(468 216) scale(1.5)" fill="#fff">
      <path d="M2.21,0.79L0.79,2.21L4.8,6.21L3,8H8V3L6.21,4.8M12,8C8.14,8 5,11.13 5,15A7,7 0 0,0 12,22C15.86,22 19,18.87 19,15A7,7 0 0,0 12,8M12,10.15C14.67,10.15 16.85,12.32 16.85,15A4.85,4.85 0 0,1 12,19.85C9.32,19.85 7.15,17.68 7.15,15A4.85,4.85 0 0,1 12,10.15M11,12V15.69L14.19,17.53L14.94,16.23L12.5,14.82V12" />
    </g>
    <g id="mdi-clock-out" transform="translate(504 216) scale(1.5)" fill="#555">
      <path d="M18,1L19.8,2.79L15.79,6.79L17.21,8.21L21.21,4.21L23,6V1M12,8C8.14,8 5,11.13 5,15A7,7 0 0,0 12,22C15.86,22 19,18.87 19,15A7,7 0 0,0 12,8M12,10.15C14.67,10.15 16.85,12.32 16.85,15A4.85,4.85 0 0,1 12,19.85C9.32,19.85 7.15,17.68 7.15,15A4.85,4.85 0 0,1 12,10.15M11,12V15.69L14.19,17.53L14.94,16.23L12.5,14.82V12" />
    </g>
    <g id="mdi-clock-out" transform="translate(540 216) scale(1.5)" fill="#fff">
      <path d="M18,1L19.8,2.79L15.79,6.79L17.21,8.21L21.21,4.21L23,6V1M12,8C8.14,8 5,11.13 5,15A7,7 0 0,0 12,22C15.86,22 19,18.87 19,15A7,7 0 0,0 12,8M12,10.15C14.67,10.15 16.85,12.32 16.85,15A4.85,4.85 0 0,1 12,19.85C9.32,19.85 7.15,17.68 7.15,15A4.85,4.85 0 0,1 12,10.15M11,12V15.69L14.19,17.53L14.94,16.23L12.5,14.82V12" />
    </g>
    <g id="mdi-clock-outline" transform="translate(576 216) scale(1.5)" fill="#555">
      <path d="M12,20A8,8 0 0,0 20,12A8,8 0 0,0 12,4A8,8 0 0,0 4,12A8,8 0 0,0 12,20M12,2A10,10 0 0,1 22,12A10,10 0 0,1 12,22C6.47,22 2,17.5 2,12A10,10 0 0,1 12,2M12.5,7V12.25L17,14.92L16.25,16.15L11,13V7H12.5Z" />
    </g>
    <g id="mdi-clock-outline" transform="translate(612 216) scale(1.5)" fill="#fff">
      <path d="M12,20A8,8 0 0,0 20,12A8,8 0 0,0 12,4A8,8 0 0,0 4,12A8,8 0 0,0 12,20M12,2A10,10 0 0,1 22,12A10,10 0 0,1 12,22C6.47,22 2,17.5 2,12A10,10 0 0,1 12,2M12.5,7V12.25L17,14.92L16.25,16.15L11,13V7H12.5Z" />
    </g>
    <g id="mdi-clock-start" transform="translate(648 216) scale(1.5)" fill="#555">
      <path d="M12,1C8.14,1 5,4.14 5,8A7,7 0 0,0 12,15C15.86,15 19,11.87 19,8C19,4.14 15.86,1 12,1M12,3.15C14.67,3.15 16.85,5.32 16.85,8C16.85,10.68 14.67,12.85 12,12.85A4.85,4.85 0 0,1 7.15,8A4.85,4.85 0 0,1 12,3.15M11,5V8.69L14.19,10.53L14.94,9.23L12.5,7.82V5M4,16V24H6V21H18V24L22,20L18,16V19H6V16" />
    </g>
    <g id="mdi-clock-start" transform="translate(684 216) scale(1.5)" fill="#fff">
      <path d="M12,1C8.14,1 5,4.14 5,8A7,7 0 0,0 12,15C15.86,15 19,11.87 19,8C19,4.14 15.86,1 12,1M12,3.15C14.67,3.15 16.85,5.32 16.85,8C16.85,10.68 14.67,12.85 12,12.85A4.85,4.85 0 0,1 7.15,8A4.85,4.85 0 0,1 12,3.15M11,5V8.69L14.19,10.53L14.94,9.23L12.5,7.82V5M4,16V24H6V21H18V24L22,20L18,16V19H6V16" />
    </g>
    <g id="mdi-clock-time-eight" transform="translate(0 252) scale(1.5)" fill="#555">
      <path d="M12 2C6.5 2 2 6.5 2 12C2 17.5 6.5 22 12 22C17.5 22 22 17.5 22 12S17.5 2 12 2M7.7 15.5L7 14.2L11 11.9V7H12.5V12.8L7.7 15.5Z" />
    </g>
    <g id="mdi-clock-time-eight" transform="translate(36 252) scale(1.5)" fill="#fff">
      <path d="M12 2C6.5 2 2 6.5 2 12C2 17.5 6.5 22 12 22C17.5 22 22 17.5 22 12S17.5 2 12 2M7.7 15.5L7 14.2L11 11.9V7H12.5V12.8L7.7 15.5Z" />
    </g>
    <g id="mdi-clock-time-eight-outline" transform="translate(72 252) scale(1.5)" fill="#555">
      <path d="M12 20C16.4 20 20 16.4 20 12S16.4 4 12 4 4 7.6 4 12 7.6 20 12 20M12 2C17.5 2 22 6.5 22 12S17.5 22 12 22C6.5 22 2 17.5 2 12C2 6.5 6.5 2 12 2M12.5 12.8L7.7 15.6L7 14.2L11 11.9V7H12.5V12.8Z" />
    </g>
    <g id="mdi-clock-time-eight-outline" transform="translate(108 252) scale(1.5)" fill="#fff">
      <path d="M12 20C16.4 20 20 16.4 20 12S16.4 4 12 4 4 7.6 4 12 7.6 20 12 20M12 2C17.5 2 22 6.5 22 12S17.5 22 12 22C6.5 22 2 17.5 2 12C2 6.5 6.5 2 12 2M12.5 12.8L7.7 15.6L7 14.2L11 11.9V7H12.5V12.8Z" />
    </g>
    <g id="mdi-clock-time-eleven" transform="translate(144 252) scale(1.5)" fill="#555">
      <path d="M12 2C6.5 2 2 6.5 2 12C2 17.5 6.5 22 12 22C17.5 22 22 17.5 22 12S17.5 2 12 2M12.5 13H11L8.5 8.6L9.8 7.8L11 10V7H12.5V13Z" />
    </g>
    <g id="mdi-clock-time-eleven" transform="translate(180 252) scale(1.5)" fill="#fff">
      <path d="M12 2C6.5 2 2 6.5 2 12C2 17.5 6.5 22 12 22C17.5 22 22 17.5 22 12S17.5 2 12 2M12.5 13H11L8.5 8.6L9.8 7.8L11 10V7H12.5V13Z" />
    </g>
    <g id="mdi-clock-time-eleven-outline" transform="translate(216 252) scale(1.5)" fill="#555">
      <path d="M12 20C16.4 20 20 16.4 20 12S16.4 4 12 4 4 7.6 4 12 7.6 20 12 20M12 2C17.5 2 22 6.5 22 12S17.5 22 12 22C6.5 22 2 17.5 2 12C2 6.5 6.5 2 12 2M12.5 7V13H11L8.5 8.6L9.8 7.8L11 10V7H12.5Z" />
    </g>
    <g id="mdi-clock-time-eleven-outline" transform="translate(252 252) scale(1.5)" fill="#fff">
      <path d="M12 20C16.4 20 20 16.4 20 12S16.4 4 12 4 4 7.6 4 12 7.6 20 12 20M12 2C17.5 2 22 6.5 22 12S17.5 22 12 22C6.5 22 2 17.5 2 12C2 6.5 6.5 2 12 2M12.5 7V13H11L8.5 8.6L9.8 7.8L11 10V7H12.5Z" />
    </g>
    <g id="mdi-clock-time-five" transform="translate(288 252) scale(1.5)" fill="#555">
      <path d="M12 2C6.5 2 2 6.5 2 12C2 17.5 6.5 22 12 22C17.5 22 22 17.5 22 12S17.5 2 12 2M14 17L11 11.8V7H12.5V11.4L15.3 16.3L14 17Z" />
    </g>
    <g id="mdi-clock-time-five" transform="translate(324 252) scale(1.5)" fill="#fff">
      <path d="M12 2C6.5 2 2 6.5 2 12C2 17.5 6.5 22 12 22C17.5 22 22 17.5 22 12S17.5 2 12 2M14 17L11 11.8V7H12.5V11.4L15.3 16.3L14 17Z" />
    </g>
    <g id="mdi-clock-time-five-outline" transform="translate(360 252) scale(1.5)" fill="#555">
      <path d="M12 20C16.4 20 20 16.4 20 12S16.4 4 12 4 4 7.6 4 12 7.6 20 12 20M12 2C17.5 2 22 6.5 22 12S17.5 22 12 22C6.5 22 2 17.5 2 12C2 6.5 6.5 2 12 2M15.3 16.2L14 17L11 11.8V7H12.5V11.4L15.3 16.2Z" />
    </g>
    <g id="mdi-clock-time-five-outline" transform="translate(396 252) scale(1.5)" fill="#fff">
      <path d="M12 20C16.4 20 20 16.4 20 12S16.4 4 12 4 4 7.6 4 12 7.6 20 12 20M12 2C17.5 2 22 6.5 22 12S17.5 22 12 22C6.5 22 2 17.5 2 12C2 6.5 6.5 2 12 2M15.3 16.2L14 17L11 11.8V7H12.5V11.4L15.3 16.2Z" />
    </g>
    <g id="mdi-clock-time-four" transform="translate(432 252) scale(1.5)" fill="#555">
      <path d="M12 2C6.5 2 2 6.5 2 12C2 17.5 6.5 22 12 22C17.5 22 22 17.5 22 12S17.5 2 12 2M16.3 15.2L11 12.3V7H12.5V11.4L17 13.9L16.3 15.2Z" />
    </g>
    <g id="mdi-clock-time-four" transform="translate(468 252) scale(1.5)" fill="#fff">
      <path d="M12 2C6.5 2 2 6.5 2 12C2 17.5 6.5 22 12 22C17.5 22 22 17.5 22 12S17.5 2 12 2M16.3 15.2L11 12.3V7H12.5V11.4L17 13.9L16.3 15.2Z" />
    </g>
    <g id="mdi-clock-time-four-outline" transform="translate(504 252) scale(1.5)" fill="#555">
      <path d="M12 20C16.4 20 20 16.4 20 12S16.4 4 12 4 4 7.6 4 12 7.6 20 12 20M12 2C17.5 2 22 6.5 22 12S17.5 22 12 22C6.5 22 2 17.5 2 12C2 6.5 6.5 2 12 2M17 13.9L16.3 15.2L11 12.3V7H12.5V11.4L17 13.9Z" />
    </g>
    <g id="mdi-clock-time-four-outline" transform="translate(540 252) scale(1.5)" fill="#fff">
      <path d="M12 20C16.4 20 20 16.4 20 12S16.4 4 12 4 4 7.6 4 12 7.6 20 12 20M12 2C17.5 2 22 6.5 22 12S17.5 22 12 22C6.5 22 2 17.5 2 12C2 6.5 6.5 2 12 2M17 13.9L16.3 15.2L11 12.3V7H12.5V11.4L17 13.9Z" />
    </g>
    <g id="mdi-clock-time-nine" transform="translate(576 252) scale(1.5)" fill="#555">
      <path d="M12 2C6.5 2 2 6.5 2 12C2 17.5 6.5 22 12 22C17.5 22 22 17.5 22 12S17.5 2 12 2M12.5 13H7V11.5H11V7H12.5V13Z" />
    </g>
    <g id="mdi-clock-time-nine" transform="translate(612 252) scale(1.5)" fill="#fff">
      <path d="M12 2C6.5 2 2 6.5 2 12C2 17.5 6.5 22 12 22C17.5 22 22 17.5 22 12S17.5 2 12 2M12.5 13H7V11.5H11V7H12.5V13Z" />
    </g>
    <g id="mdi-clock-time-nine-outline" transform="translate(648 252) scale(1.5)" fill="#555">
      <path d="M12 20C16.4 20 20 16.4 20 12S16.4 4 12 4 4 7.6 4 12 7.6 20 12 20M12 2C17.5 2 22 6.5 22 12S17.5 22 12 22C6.5 22 2 17.5 2 12C2 6.5 6.5 2 12 2M12.5 7V13H7V11.5H11V7H12.5Z" />
    </g>
    <g id="mdi-clock-time-nine-outline" transform="translate(684 252) scale(1.5)" fill="#fff">
      <path d="M12 20C16.4 20 20 16.4 20 12S16.4 4 12 4 4 7.6 4 12 7.6 20 12 20M12 2C17.5 2 22 6.5 22 12S17.5 22 12 22C6.5 22 2 17.5 2 12C2 6.5 6.5 2 12 2M12.5 7V13H7V11.5H11V7H12.5Z" />
    </g>
    <g id="mdi-clock-time-one" transform="translate(0 288) scale(1.5)" fill="#555">
      <path d="M12 2C6.5 2 2 6.5 2 12C2 17.5 6.5 22 12 22C17.5 22 22 17.5 22 12S17.5 2 12 2M12.3 13H11V7H12.5V9.7L14 7.1L15.3 7.9L12.3 13Z" />
    </g>
    <g id="mdi-clock-time-one" transform="translate(36 288) scale(1.5)" fill="#fff">
      <path d="M12 2C6.5 2 2 6.5 2 12C2 17.5 6.5 22 12 22C17.5 22 22 17.5 22 12S17.5 2 12 2M12.3 13H11V7H12.5V9.7L14 7.1L15.3 7.9L12.3 13Z" />
    </g>
    <g id="mdi-clock-time-one-outline" transform="translate(72 288) scale(1.5)" fill="#555">
      <path d="M12 20C16.42 20 20 16.42 20 12S16.42 4 12 4 4 7.58 4 12 7.58 20 12 20M12 2C17.5 2 22 6.5 22 12S17.5 22 12 22C6.47 22 2 17.5 2 12C2 6.5 6.5 2 12 2M15.3 7.8L12.3 13H11V7H12.5V9.65L14 7.05L15.3 7.8Z" />
    </g>
    <g id="mdi-clock-time-one-outline" transform="translate(108 288) scale(1.5)" fill="#fff">
      <path d="M12 20C16.42 20 20 16.42 20 12S16.42 4 12 4 4 7.58 4 12 7.58 20 12 20M12 2C17.5 2 22 6.5 22 12S17.5 22 12 22C6.47 22 2 17.5 2 12C2 6.5 6.5 2 12 2M15.3 7.8L12.3 13H11V7H12.5V9.65L14 7.05L15.3 7.8Z" />
    </g>
    <g id="mdi-clock-time-seven" transform="translate(144 288) scale(1.5)" fill="#555">
      <path d="M12 2C6.5 2 2 6.5 2 12C2 17.5 6.5 22 12 22C17.5 22 22 17.5 22 12S17.5 2 12 2M12.5 12.2L9.8 17L8.5 16.2L11 11.8V7H12.5V12.2Z" />
    </g>
    <g id="mdi-clock-time-seven" transform="translate(180 288) scale(1.5)" fill="#fff">
      <path d="M12 2C6.5 2 2 6.5 2 12C2 17.5 6.5 22 12 22C17.5 22 22 17.5 22 12S17.5 2 12 2M12.5 12.2L9.8 17L8.5 16.2L11 11.8V7H12.5V12.2Z" />
    </g>
    <g id="mdi-clock-time-seven-outline" transform="translate(216 288) scale(1.5)" fill="#555">
      <path d="M12 20C16.4 20 20 16.4 20 12S16.4 4 12 4 4 7.6 4 12 7.6 20 12 20M12 2C17.5 2 22 6.5 22 12S17.5 22 12 22C6.5 22 2 17.5 2 12C2 6.5 6.5 2 12 2M12.5 7V12.2L9.8 17L8.5 16.2L11 11.8V7H12.5Z" />
    </g>
    <g id="mdi-clock-time-seven-outline" transform="translate(252 288) scale(1.5)" fill="#fff">
      <path d="M12 20C16.4 20 20 16.4 20 12S16.4 4 12 4 4 7.6 4 12 7.6 20 12 20M12 2C17.5 2 22 6.5 22 12S17.5 22 12 22C6.5 22 2 17.5 2 12C2 6.5 6.5 2 12 2M12.5 7V12.2L9.8 17L8.5 16.2L11 11.8V7H12.5Z" />
    </g>
    <g id="mdi-clock-time-six" transform="translate(288 288) scale(1.5)" fill="#555">
      <path d="M12 2C6.5 2 2 6.5 2 12C2 17.5 6.5 22 12 22C17.5 22 22 17.5 22 12S17.5 2 12 2M12.5 17H11V7H12.5V17Z" />
    </g>
    <g id="mdi-clock-time-six" transform="translate(324 288) scale(1.5)" fill="#fff">
      <path d="M12 2C6.5 2 2 6.5 2 12C2 17.5 6.5 22 12 22C17.5 22 22 17.5 22 12S17.5 2 12 2M12.5 17H11V7H12.5V17Z" />
    </g>
    <g id="mdi-clock-time-six-outline" transform="translate(360 288) scale(1.5)" fill="#555">
      <path d="M12 20C16.4 20 20 16.4 20 12S16.4 4 12 4 4 7.6 4 12 7.6 20 12 20M12 2C17.5 2 22 6.5 22 12S17.5 22 12 22C6.5 22 2 17.5 2 12C2 6.5 6.5 2 12 2M12.5 7V17H11V7H12.5Z" />
    </g>
    <g id="mdi-clock-time-six-outline" transform="translate(396 288) scale(1.5)" fill="#fff">
      <path d="M12 20C16.4 20 20 16.4 20 12S16.4 4 12 4 4 7.6 4 12 7.6 20 12 20M12 2C17.5 2 22 6.5 22 12S17.5 22 12 22C6.5 22 2 17.5 2 12C2 6.5 6.5 2 12 2M12.5 7V17H11V7H12.5Z" />
    </g>
    <g id="mdi-clock-time-ten" transform="translate(432 288) scale(1.5)" fill="#555">
      <path d="M12 2C6.5 2 2 6.5 2 12C2 17.5 6.5 22 12 22C17.5 22 22 17.5 22 12S17.5 2 12 2M12.5 13H11L7 10.7L7.8 9.4L11.1 11.3V7H12.6V13Z" />
    </g>
    <g id="mdi-clock-time-ten" transform="translate(468 288) scale(1.5)" fill="#fff">
      <path d="M12 2C6.5 2 2 6.5 2 12C2 17.5 6.5 22 12 22C17.5 22 22 17.5 22 12S17.5 2 12 2M12.5 13H11L7 10.7L7.8 9.4L11.1 11.3V7H12.6V13Z" />
    </g>
    <g id="mdi-clock-time-ten-outline" transform="translate(504 288) scale(1.5)" fill="#555">
      <path d="M12 20C16.4 20 20 16.4 20 12S16.4 4 12 4 4 7.6 4 12 7.6 20 12 20M12 2C17.5 2 22 6.5 22 12S17.5 22 12 22C6.5 22 2 17.5 2 12C2 6.5 6.5 2 12 2M12.5 13H11L7 10.7L7.8 9.4L11.1 11.3V7H12.6V13Z" />
    </g>
    <g id="mdi-clock-time-ten-outline" transform="translate(540 288) scale(1.5)" fill="#fff">
      <path d="M12 20C16.4 20 20 16.4 20 12S16.4 4 12 4 4 7.6 4 12 7.6 20 12 20M12 2C17.5 2 22 6.5 22 12S17.5 22 12 22C6.5 22 2 17.5 2 12C2 6.5 6.5 2 12 2M12.5 13H11L7 10.7L7.8 9.4L11.1 11.3V7H12.6V13Z" />
    </g>
    <g id="mdi-clock-time-three" transform="translate(576 288) scale(1.5)" fill="#555">
      <path d="M12 2C6.5 2 2 6.5 2 12C2 17.5 6.5 22 12 22C17.5 22 22 17.5 22 12S17.5 2 12 2M17 13H11V7H12.5V11.5H17V13Z" />
    </g>
    <g id="mdi-clock-time-three" transform="translate(612 288) scale(1.5)" fill="#fff">
      <path d="M12 2C6.5 2 2 6.5 2 12C2 17.5 6.5 22 12 22C17.5 22 22 17.5 22 12S17.5 2 12 2M17 13H11V7H12.5V11.5H17V13Z" />
    </g>
    <g id="mdi-clock-time-three-outline" transform="translate(648 288) scale(1.5)" fill="#555">
      <path d="M12 20C16.4 20 20 16.4 20 12S16.4 4 12 4 4 7.6 4 12 7.6 20 12 20M12 2C17.5 2 22 6.5 22 12S17.5 22 12 22C6.5 22 2 17.5 2 12C2 6.5 6.5 2 12 2M17 11.5V13H11V7H12.5V11.5H17Z" />
    </g>
    <g id="mdi-clock-time-three-outline" transform="translate(684 288) scale(1.5)" fill="#fff">
      <path d="M12 20C16.4 20 20 16.4 20 12S16.4 4 12 4 4 7.6 4 12 7.6 20 12 20M12 2C17.5 2 22 6.5 22 12S17.5 22 12 22C6.5 22 2 17.5 2 12C2 6.5 6.5 2 12 2M17 11.5V13H11V7H12.5V11.5H17Z" />
    </g>
    <g id="mdi-clock-time-twelve" transform="translate(0 324) scale(1.5)" fill="#555">
      <path d="M12 2C6.5 2 2 6.5 2 12C2 17.5 6.5 22 12 22C17.5 22 22 17.5 22 12S17.5 2 12 2M12.5 13H11V7H12.5V13Z" />
    </g>
    <g id="mdi-clock-time-twelve" transform="translate(36 324) scale(1.5)" fill="#fff">
      <path d="M12 2C6.5 2 2 6.5 2 12C2 17.5 6.5 22 12 22C17.5 22 22 17.5 22 12S17.5 2 12 2M12.5 13H11V7H12.5V13Z" />
    </g>
    <g id="mdi-clock-time-twelve-outline" transform="translate(72 324) scale(1.5)" fill="#555">
      <path d="M12 20C16.42 20 20 16.42 20 12S16.42 4 12 4 4 7.58 4 12 7.58 20 12 20M12 2C17.5 2 22 6.5 22 12S17.5 22 12 22C6.47 22 2 17.5 2 12C2 6.5 6.5 2 12 2M12.5 13.03H11V7H12.5V13.03Z" />
    </g>
    <g id="mdi-clock-time-twelve-outline" transform="translate(108 324) scale(1.5)" fill="#fff">
      <path d="M12 20C16.42 20 20 16.42 20 12S16.42 4 12 4 4 7.58 4 12 7.58 20 12 20M12 2C17.5 2 22 6.5 22 12S17.5 22 12 22C6.47 22 2 17.5 2 12C2 6.5 6.5 2 12 2M12.5 13.03H11V7H12.5V13.03Z" />
    </g>
    <g id="mdi-clock-time-two" transform="translate(144 324) scale(1.5)" fill="#555">
      <path d="M12 2C6.5 2 2 6.5 2 12C2 17.5 6.5 22 12 22C17.5 22 22 17.5 22 12S17.5 2 12 2M12.5 13H11V7H12.5V11.3L16.2 9.2L17 10.5L12.5 13Z" />
    </g>
    <g id="mdi-clock-time-two" transform="translate(180 324) scale(1.5)" fill="#fff">
      <path d="M12 2C6.5 2 2 6.5 2 12C2 17.5 6.5 22 12 22C17.5 22 22 17.5 22 12S17.5 2 12 2M12.5 13H11V7H12.5V11.3L16.2 9.2L17 10.5L12.5 13Z" />
    </g>
    <g id="mdi-clock-time-two-outline" transform="translate(216 324) scale(1.5)" fill="#555">
      <path d="M12 20C16.42 20 20 16.42 20 12S16.42 4 12 4 4 7.58 4 12 7.58 20 12 20M12 2C17.5 2 22 6.5 22 12S17.5 22 12 22C6.47 22 2 17.5 2 12C2 6.5 6.5 2 12 2M12.5 13V13H11V7H12.5V11.26L16.2 9.13L16.95 10.43L12.5 13Z" />
    </g>
    <g id="mdi-clock-time-two-outline" transform="translate(252 324) scale(1.5)" fill="#fff">
      <path d="M12 20C16.42 20 20 16.42 20 12S16.42 4 12 4 4 7.58 4 12 7.58 20 12 20M12 2C17.5 2 22 6.5 22 12S17.5 22 12 22C6.47 22 2 17.5 2 12C2 6.5 6.5 2 12 2M12.5 13V13H11V7H12.5V11.26L16.2 9.13L16.95 10.43L12.5 13Z" />
    </g>
    <g id="mdi-close" transform="translate(288 324) scale(1.5)" fill="#555">
      <path d="M19,6.41L17.59,5L12,10.59L6.41,5L5,6.41L10.59,12L5,17.59L6.41,19L12,13.41L17.59,19L19,17.59L13.41,12L19,6.41Z" />
    </g>
    <g id="mdi-close" transform="translate(324 324) scale(1.5)" fill="#fff">
      <path d="M19,6.41L17.59,5L12,10.59L6.41,5L5,6.41L10.59,12L5,17.59L6.41,19L12,13.41L17.59,19L19,17.59L13.41,12L19,6.41Z" />
    </g>
    <g id="mdi-close-box" transform="translate(360 324) scale(1.5)" fill="#555">
      <path d="M19,3H16.3H7.7H5A2,2 0 0,0 3,5V7.7V16.4V19A2,2 0 0,0 5,21H7.7H16.4H19A2,2 0 0,0 21,19V16.3V7.7V5A2,2 0 0,0 19,3M15.6,17L12,13.4L8.4,17L7,15.6L10.6,12L7,8.4L8.4,7L12,10.6L15.6,7L17,8.4L13.4,12L17,15.6L15.6,17Z" />
    </g>
    <g id="mdi-close-box" transform="translate(396 324) scale(1.5)" fill="#fff">
      <path d="M19,3H16.3H7.7H5A2,2 0 0,0 3,5V7.7V16.4V19A2,2 0 0,0 5,21H7.7H16.4H19A2,2 0 0,0 21,19V16.3V7.7V5A2,2 0 0,0 19,3M15.6,17L12,13.4L8.4,17L7,15.6L10.6,12L7,8.4L8.4,7L12,10.6L15.6,7L17,8.4L13.4,12L17,15.6L15.6,17Z" />
    </g>
    <g id="mdi-close-box-multiple" transform="translate(432 324) scale(1.5)" fill="#555">
      <path d="M4 20H18V22H4C2.9 22 2 21.11 2 20V6H4V20M20.22 2H7.78C6.8 2 6 2.8 6 3.78V16.22C6 17.2 6.8 18 7.78 18H20.22C21.2 18 22 17.2 22 16.22V3.78C22 2.8 21.2 2 20.22 2M19 13.6L17.6 15L14 11.4L10.4 15L9 13.6L12.6 10L9 6.4L10.4 5L14 8.6L17.6 5L19 6.4L15.4 10L19 13.6Z" />
    </g>
    <g id="mdi-close-box-multiple" transform="translate(468 324) scale(1.5)" fill="#fff">
      <path d="M4 20H18V22H4C2.9 22 2 21.11 2 20V6H4V20M20.22 2H7.78C6.8 2 6 2.8 6 3.78V16.22C6 17.2 6.8 18 7.78 18H20.22C21.2 18 22 17.2 22 16.22V3.78C22 2.8 21.2 2 20.22 2M19 13.6L17.6 15L14 11.4L10.4 15L9 13.6L12.6 10L9 6.4L10.4 5L14 8.6L17.6 5L19 6.4L15.4 10L19 13.6Z" />
    </g>
    <g id="mdi-close-box-multiple-outline" transform="translate(504 324) scale(1.5)" fill="#555">
      <path d="M20 2H8C6.9 2 6 2.9 6 4V16C6 17.11 6.9 18 8 18H20C21.11 18 22 17.11 22 16V4C22 2.9 21.11 2 20 2M20 16H8V4H20V16M4 6V20H18V22H4C2.9 22 2 21.11 2 20V6H4M9.77 12.84L12.6 10L9.77 7.15L11.17 5.75L14 8.6L16.84 5.77L18.24 7.17L15.4 10L18.23 12.84L16.83 14.24L14 11.4L11.17 14.24L9.77 12.84Z" />
    </g>
    <g id="mdi-close-box-multiple-outline" transform="translate(540 324) scale(1.5)" fill="#fff">
      <path d="M20 2H8C6.9 2 6 2.9 6 4V16C6 17.11 6.9 18 8 18H20C21.11 18 22 17.11 22 16V4C22 2.9 21.11 2 20 2M20 16H8V4H20V16M4 6V20H18V22H4C2.9 22 2 21.11 2 20V6H4M9.77 12.84L12.6 10L9.77 7.15L11.17 5.75L14 8.6L16.84 5.77L18.24 7.17L15.4 10L18.23 12.84L16.83 14.24L14 11.4L11.17 14.24L9.77 12.84Z" />
    </g>
    <g id="mdi-close-box-outline" transform="translate(576 324) scale(1.5)" fill="#555">
      <path d="M19,3H5A2,2 0 0,0 3,5V19A2,2 0 0,0 5,21H19A2,2 0 0,0 21,19V5A2,2 0 0,0 19,3M19,19H5V5H19V19M17,8.4L13.4,12L17,15.6L15.6,17L12,13.4L8.4,17L7,15.6L10.6,12L7,8.4L8.4,7L12,10.6L15.6,7L17,8.4Z" />
    </g>
    <g id="mdi-close-box-outline" transform="translate(612 324) scale(1.5)" fill="#fff">
      <path d="M19,3H5A2,2 0 0,0 3,5V19A2,2 0 0,0 5,21H19A2,2 0 0,0 21,19V5A2,2 0 0,0 19,3M19,19H5V5H19V19M17,8.4L13.4,12L17,15.6L15.6,17L12,13.4L8.4,17L7,15.6L10.6,12L7,8.4L8.4,7L12,10.6L15.6,7L17,8.4Z" />
    </g>
    <g id="mdi-close-circle" transform="translate(648 324) scale(1.5)" fill="#555">
      <path d="M12,2C17.53,2 22,6.47 22,12C22,17.53 17.53,22 12,22C6.47,22 2,17.53 2,12C2,6.47 6.47,2 12,2M15.59,7L12,10.59L8.41,7L7,8.41L10.59,12L7,15.59L8.41,17L12,13.41L15.59,17L17,15.59L13.41,12L17,8.41L15.59,7Z" />
    </g>
    <g id="mdi-close-circle" transform="translate(684 324) scale(1.5)" fill="#fff">
      <path d="M12,2C17.53,2 22,6.47 22,12C22,17.53 17.53,22 12,22C6.47,22 2,17.53 2,12C2,6.47 6.47,2 12,2M15.59,7L12,10.59L8.41,7L7,8.41L10.59,12L7,15.59L8.41,17L12,13.41L15.59,17L17,15.59L13.41,12L17,8.41L15.59,7Z" />
    </g>
  </svg>