<svg xmlns="http://www.w3.org/2000/svg" width="720" height="900"><path d="M9 10H7v2h2v-2m4 0h-2v2h2v-2m4 0h-2v2h2v-2m2-7h-1V1h-2v2H8V1H6v2H5a2 2 0 0 0-2 2v14a2 2 0 0 0 2 2h14a2 2 0 0 0 2-2V5a2 2 0 0 0-2-2m0 16H5V8h14v11Z" transform="scale(1.5)" id="mdi-calendar-range" fill="#555"/><path d="M9 10H7v2h2v-2m4 0h-2v2h2v-2m4 0h-2v2h2v-2m2-7h-1V1h-2v2H8V1H6v2H5a2 2 0 0 0-2 2v14a2 2 0 0 0 2 2h14a2 2 0 0 0 2-2V5a2 2 0 0 0-2-2m0 16H5V8h14v11Z" transform="translate(36) scale(1.5)" id="mdi-calendar-range" fill="#fff"/><path d="M7 12h2v2H7v-2m14-6v14a2 2 0 0 1-2 2H5a2 2 0 0 1-2-2V6a2 2 0 0 1 2-2h1V2h2v2h8V2h2v2h1a2 2 0 0 1 2 2M5 8h14V6H5v2m14 12V10H5v10h14m-4-6h2v-2h-2v2m-4 0h2v-2h-2v2Z" transform="translate(72) scale(1.5)" id="mdi-calendar-range-outline" fill="#555"/><path d="M7 12h2v2H7v-2m14-6v14a2 2 0 0 1-2 2H5a2 2 0 0 1-2-2V6a2 2 0 0 1 2-2h1V2h2v2h8V2h2v2h1a2 2 0 0 1 2 2M5 8h14V6H5v2m14 12V10H5v10h14m-4-6h2v-2h-2v2m-4 0h2v-2h-2v2Z" transform="translate(108) scale(1.5)" id="mdi-calendar-range-outline" fill="#fff"/><path d="M19 3h-1V1h-2v2H8V1H6v2H5c-1.1 0-2 .9-2 2v14c0 1.1.9 2 2 2h9c-.6-.5-1.1-1.2-1.5-2H5V8h14v2.6c.7.1 1.4.3 2 .7V5c0-1.1-.9-2-2-2m-1 9.5c1.1 0 2.1.4 2.8 1.2l1.2-1.2v4h-4l1.8-1.8c-.5-.4-1.1-.7-1.8-.7-1.4 0-2.5 1.1-2.5 2.5S16.6 19 18 19c.8 0 1.5-.4 2-1h1.7c-.6 1.5-2 2.5-3.7 2.5-2.2 0-4-1.8-4-4s1.8-4 4-4Z" transform="translate(144) scale(1.5)" id="mdi-calendar-refresh" fill="#555"/><path d="M19 3h-1V1h-2v2H8V1H6v2H5c-1.1 0-2 .9-2 2v14c0 1.1.9 2 2 2h9c-.6-.5-1.1-1.2-1.5-2H5V8h14v2.6c.7.1 1.4.3 2 .7V5c0-1.1-.9-2-2-2m-1 9.5c1.1 0 2.1.4 2.8 1.2l1.2-1.2v4h-4l1.8-1.8c-.5-.4-1.1-.7-1.8-.7-1.4 0-2.5 1.1-2.5 2.5S16.6 19 18 19c.8 0 1.5-.4 2-1h1.7c-.6 1.5-2 2.5-3.7 2.5-2.2 0-4-1.8-4-4s1.8-4 4-4Z" transform="translate(180) scale(1.5)" id="mdi-calendar-refresh" fill="#fff"/><path d="M19 3h-1V1h-2v2H8V1H6v2H5c-1.1 0-2 .9-2 2v14c0 1.1.9 2 2 2h9c-.6-.5-1.1-1.2-1.5-2H5V9h14v1.6c.7.1 1.4.3 2 .7V5c0-1.1-.9-2-2-2m0 4H5V5h14m-1 7.5c1.1 0 2.1.4 2.8 1.2l1.2-1.2v4h-4l1.8-1.8c-.5-.4-1.1-.7-1.8-.7-1.4 0-2.5 1.1-2.5 2.5S16.6 19 18 19c.8 0 1.5-.4 2-1h1.7c-.6 1.5-2 2.5-3.7 2.5-2.2 0-4-1.8-4-4s1.8-4 4-4Z" transform="translate(216) scale(1.5)" id="mdi-calendar-refresh-outline" fill="#555"/><path d="M19 3h-1V1h-2v2H8V1H6v2H5c-1.1 0-2 .9-2 2v14c0 1.1.9 2 2 2h9c-.6-.5-1.1-1.2-1.5-2H5V9h14v1.6c.7.1 1.4.3 2 .7V5c0-1.1-.9-2-2-2m0 4H5V5h14m-1 7.5c1.1 0 2.1.4 2.8 1.2l1.2-1.2v4h-4l1.8-1.8c-.5-.4-1.1-.7-1.8-.7-1.4 0-2.5 1.1-2.5 2.5S16.6 19 18 19c.8 0 1.5-.4 2-1h1.7c-.6 1.5-2 2.5-3.7 2.5-2.2 0-4-1.8-4-4s1.8-4 4-4Z" transform="translate(252) scale(1.5)" id="mdi-calendar-refresh-outline" fill="#fff"/><path d="M19 19H5V8h14m0-5h-1V1h-2v2H8V1H6v2H5a2 2 0 0 0-2 2v14a2 2 0 0 0 2 2h14a2 2 0 0 0 2-2V5a2 2 0 0 0-2-2M9.31 17l2.44-2.44L14.19 17l1.06-1.06-2.44-2.44 2.44-2.44L14.19 10l-2.44 2.44L9.31 10l-1.06 1.06 2.44 2.44-2.44 2.44L9.31 17Z" transform="translate(288) scale(1.5)" id="mdi-calendar-remove" fill="#555"/><path d="M19 19H5V8h14m0-5h-1V1h-2v2H8V1H6v2H5a2 2 0 0 0-2 2v14a2 2 0 0 0 2 2h14a2 2 0 0 0 2-2V5a2 2 0 0 0-2-2M9.31 17l2.44-2.44L14.19 17l1.06-1.06-2.44-2.44 2.44-2.44L14.19 10l-2.44 2.44L9.31 10l-1.06 1.06 2.44 2.44-2.44 2.44L9.31 17Z" transform="translate(324) scale(1.5)" id="mdi-calendar-remove" fill="#fff"/><path d="M19 4h-1V2h-2v2H8V2H6v2H5a2 2 0 0 0-2 2v14a2 2 0 0 0 2 2h14a2 2 0 0 0 2-2V6a2 2 0 0 0-2-2m0 16H5V10h14v10M5 8V6h14v2H5m3.23 9.41 1.06 1.06 2.44-2.44 2.44 2.44 1.06-1.06-2.44-2.44 2.44-2.44-1.06-1.06-2.44 2.44-2.44-2.44-1.06 1.06 2.44 2.44-2.44 2.44Z" transform="translate(360) scale(1.5)" id="mdi-calendar-remove-outline" fill="#555"/><path d="M19 4h-1V2h-2v2H8V2H6v2H5a2 2 0 0 0-2 2v14a2 2 0 0 0 2 2h14a2 2 0 0 0 2-2V6a2 2 0 0 0-2-2m0 16H5V10h14v10M5 8V6h14v2H5m3.23 9.41 1.06 1.06 2.44-2.44 2.44 2.44 1.06-1.06-2.44-2.44 2.44-2.44-1.06-1.06-2.44 2.44-2.44-2.44-1.06 1.06 2.44 2.44-2.44 2.44Z" transform="translate(396) scale(1.5)" id="mdi-calendar-remove-outline" fill="#fff"/><path d="M15.5 12c2.5 0 4.5 2 4.5 4.5 0 .88-.25 1.71-.69 2.4l3.08 3.1L21 23.39l-3.12-3.07c-.69.43-1.51.68-2.38.68-2.5 0-4.5-2-4.5-4.5s2-4.5 4.5-4.5m0 2a2.5 2.5 0 0 0-2.5 2.5 2.5 2.5 0 0 0 2.5 2.5 2.5 2.5 0 0 0 2.5-2.5 2.5 2.5 0 0 0-2.5-2.5M19 8H5v11h4.5c.31.75.76 1.42 1.31 2H5a2 2 0 0 1-2-2V5c0-1.11.89-2 2-2h1V1h2v2h8V1h2v2h1a2 2 0 0 1 2 2v8.03c-.5-.81-1.2-1.49-2-2.03V8Z" transform="translate(432) scale(1.5)" id="mdi-calendar-search" fill="#555"/><path d="M15.5 12c2.5 0 4.5 2 4.5 4.5 0 .88-.25 1.71-.69 2.4l3.08 3.1L21 23.39l-3.12-3.07c-.69.43-1.51.68-2.38.68-2.5 0-4.5-2-4.5-4.5s2-4.5 4.5-4.5m0 2a2.5 2.5 0 0 0-2.5 2.5 2.5 2.5 0 0 0 2.5 2.5 2.5 2.5 0 0 0 2.5-2.5 2.5 2.5 0 0 0-2.5-2.5M19 8H5v11h4.5c.31.75.76 1.42 1.31 2H5a2 2 0 0 1-2-2V5c0-1.11.89-2 2-2h1V1h2v2h8V1h2v2h1a2 2 0 0 1 2 2v8.03c-.5-.81-1.2-1.49-2-2.03V8Z" transform="translate(468) scale(1.5)" id="mdi-calendar-search" fill="#fff"/><path d="M19 20H5V9h14m-3-7v2H8V2H6v2H5a2 2 0 0 0-2 2v14a2 2 0 0 0 2 2h14a2 2 0 0 0 2-2V6a2 2 0 0 0-2-2h-1V2m-7.12 11H7.27l2.92 2.11-1.11 3.45L12 16.43l2.92 2.13-1.12-3.44L16.72 13h-3.6L12 9.56 10.88 13Z" transform="translate(504) scale(1.5)" id="mdi-calendar-star" fill="#555"/><path d="M19 20H5V9h14m-3-7v2H8V2H6v2H5a2 2 0 0 0-2 2v14a2 2 0 0 0 2 2h14a2 2 0 0 0 2-2V6a2 2 0 0 0-2-2h-1V2m-7.12 11H7.27l2.92 2.11-1.11 3.45L12 16.43l2.92 2.13-1.12-3.44L16.72 13h-3.6L12 9.56 10.88 13Z" transform="translate(540) scale(1.5)" id="mdi-calendar-star" fill="#fff"/><path d="M2 14h2v3h5v-3l4 4-4 4v-3H4v3H2v-8m17 5V8H5v4H3V5c0-1.11.89-2 2-2h1V.998h2V3h8V.998h2V3h1a2 2 0 0 1 2 2v14c0 1.1-.9 2-2 2h-6.17l2-2H19Z" transform="translate(576) scale(1.5)" id="mdi-calendar-start" fill="#555"/><path d="M2 14h2v3h5v-3l4 4-4 4v-3H4v3H2v-8m17 5V8H5v4H3V5c0-1.11.89-2 2-2h1V.998h2V3h8V.998h2V3h1a2 2 0 0 1 2 2v14c0 1.1-.9 2-2 2h-6.17l2-2H19Z" transform="translate(612) scale(1.5)" id="mdi-calendar-start" fill="#fff"/><path d="M18 11v1.5c3.19 0 5.09 3.55 3.33 6.21l-1.09-1.09C21.06 15.96 19.85 14 18 14v1.5l-2.25-2.25L18 11m0 11v-1.5c-3.19 0-5.09-3.55-3.33-6.21l1.09 1.09C14.94 17.04 16.15 19 18 19v-1.5l2.25 2.25L18 22m1-19h-1V1h-2v2H8V1H6v2H5a2 2 0 0 0-2 2v14a2 2 0 0 0 2 2h9a5.919 5.919 0 0 1-1.5-2H5V8h14v2.59c.71.11 1.39.35 2 .72V5a2 2 0 0 0-2-2Z" transform="translate(648) scale(1.5)" id="mdi-calendar-sync" fill="#555"/><path d="M18 11v1.5c3.19 0 5.09 3.55 3.33 6.21l-1.09-1.09C21.06 15.96 19.85 14 18 14v1.5l-2.25-2.25L18 11m0 11v-1.5c-3.19 0-5.09-3.55-3.33-6.21l1.09 1.09C14.94 17.04 16.15 19 18 19v-1.5l2.25 2.25L18 22m1-19h-1V1h-2v2H8V1H6v2H5a2 2 0 0 0-2 2v14a2 2 0 0 0 2 2h9a5.919 5.919 0 0 1-1.5-2H5V8h14v2.59c.71.11 1.39.35 2 .72V5a2 2 0 0 0-2-2Z" transform="translate(684) scale(1.5)" id="mdi-calendar-sync" fill="#fff"/><path d="M18 11v1.5c3.19 0 5.09 3.55 3.33 6.21l-1.09-1.09C21.06 15.96 19.85 14 18 14v1.5l-2.25-2.25L18 11m0 11v-1.5c-3.19 0-5.09-3.55-3.33-6.21l1.09 1.09C14.94 17.04 16.15 19 18 19v-1.5l2.25 2.25L18 22m1-19h-1V1h-2v2H8V1H6v2H5a2 2 0 0 0-2 2v14a2 2 0 0 0 2 2h9a5.919 5.919 0 0 1-1.5-2H5V9h14v1.59c.71.11 1.39.35 2 .72V5a2 2 0 0 0-2-2m0 4H5V5h14" transform="matrix(1.5 0 0 1.5 0 36)" id="mdi-calendar-sync-outline" fill="#555"/><path d="M18 11v1.5c3.19 0 5.09 3.55 3.33 6.21l-1.09-1.09C21.06 15.96 19.85 14 18 14v1.5l-2.25-2.25L18 11m0 11v-1.5c-3.19 0-5.09-3.55-3.33-6.21l1.09 1.09C14.94 17.04 16.15 19 18 19v-1.5l2.25 2.25L18 22m1-19h-1V1h-2v2H8V1H6v2H5a2 2 0 0 0-2 2v14a2 2 0 0 0 2 2h9a5.919 5.919 0 0 1-1.5-2H5V9h14v1.59c.71.11 1.39.35 2 .72V5a2 2 0 0 0-2-2m0 4H5V5h14" transform="matrix(1.5 0 0 1.5 36 36)" id="mdi-calendar-sync-outline" fill="#fff"/><path d="M14 14H7v2h7m5 3H5V8h14m0-5h-1V1h-2v2H8V1H6v2H5a2 2 0 0 0-2 2v14a2 2 0 0 0 2 2h14a2 2 0 0 0 2-2V5a2 2 0 0 0-2-2m-2 7H7v2h10v-2Z" transform="matrix(1.5 0 0 1.5 72 36)" id="mdi-calendar-text" fill="#555"/><path d="M14 14H7v2h7m5 3H5V8h14m0-5h-1V1h-2v2H8V1H6v2H5a2 2 0 0 0-2 2v14a2 2 0 0 0 2 2h14a2 2 0 0 0 2-2V5a2 2 0 0 0-2-2m-2 7H7v2h10v-2Z" transform="matrix(1.5 0 0 1.5 108 36)" id="mdi-calendar-text" fill="#fff"/><path d="M19 4h-1V2h-2v2H8V2H6v2H5a2 2 0 0 0-2 2v14a2 2 0 0 0 2 2h14a2 2 0 0 0 2-2V6a2 2 0 0 0-2-2m0 16H5V10h14v10M5 8V6h14v2H5m2 4h10v2H7v-2m0 4h7v2H7v-2Z" transform="matrix(1.5 0 0 1.5 144 36)" id="mdi-calendar-text-outline" fill="#555"/><path d="M19 4h-1V2h-2v2H8V2H6v2H5a2 2 0 0 0-2 2v14a2 2 0 0 0 2 2h14a2 2 0 0 0 2-2V6a2 2 0 0 0-2-2m0 16H5V10h14v10M5 8V6h14v2H5m2 4h10v2H7v-2m0 4h7v2H7v-2Z" transform="matrix(1.5 0 0 1.5 180 36)" id="mdi-calendar-text-outline" fill="#fff"/><path d="M7 10h5v5H7m12 4H5V8h14m0-5h-1V1h-2v2H8V1H6v2H5a2 2 0 0 0-2 2v14a2 2 0 0 0 2 2h14a2 2 0 0 0 2-2V5a2 2 0 0 0-2-2Z" transform="matrix(1.5 0 0 1.5 216 36)" id="mdi-calendar-today" fill="#555"/><path d="M7 10h5v5H7m12 4H5V8h14m0-5h-1V1h-2v2H8V1H6v2H5a2 2 0 0 0-2 2v14a2 2 0 0 0 2 2h14a2 2 0 0 0 2-2V5a2 2 0 0 0-2-2Z" transform="matrix(1.5 0 0 1.5 252 36)" id="mdi-calendar-today" fill="#fff"/><path d="M6 1h2v2h8V1h2v2h1a2 2 0 0 1 2 2v14c0 1.11-.89 2-2 2H5a2 2 0 0 1-2-2V5c0-1.11.89-2 2-2h1V1M5 8v11h14V8H5m2 2h10v2H7v-2Z" transform="matrix(1.5 0 0 1.5 288 36)" id="mdi-calendar-week" fill="#555"/><path d="M6 1h2v2h8V1h2v2h1a2 2 0 0 1 2 2v14c0 1.11-.89 2-2 2H5a2 2 0 0 1-2-2V5c0-1.11.89-2 2-2h1V1M5 8v11h14V8H5m2 2h10v2H7v-2Z" transform="matrix(1.5 0 0 1.5 324 36)" id="mdi-calendar-week" fill="#fff"/><path d="M19 19H5V8h14m-3-7v2H8V1H6v2H5c-1.11 0-2 .89-2 2v14a2 2 0 0 0 2 2h14a2 2 0 0 0 2-2V5a2 2 0 0 0-2-2h-1V1m-9 9H7v7h2v-7Z" transform="matrix(1.5 0 0 1.5 360 36)" id="mdi-calendar-week-begin" fill="#555"/><path d="M19 19H5V8h14m-3-7v2H8V1H6v2H5c-1.11 0-2 .89-2 2v14a2 2 0 0 0 2 2h14a2 2 0 0 0 2-2V5a2 2 0 0 0-2-2h-1V1m-9 9H7v7h2v-7Z" transform="matrix(1.5 0 0 1.5 396 36)" id="mdi-calendar-week-begin" fill="#fff"/><path d="M19 20V9H5v11h14M16 2h2v2h1a2 2 0 0 1 2 2v14a2 2 0 0 1-2 2H5a2 2 0 0 1-2-2V6a2 2 0 0 1 2-2h1V2h2v2h8V2M7 18v-7h2v7H7m8-7h2v7h-2v-7Z" transform="matrix(1.5 0 0 1.5 432 36)" id="mdi-calendar-weekend" fill="#555"/><path d="M19 20V9H5v11h14M16 2h2v2h1a2 2 0 0 1 2 2v14a2 2 0 0 1-2 2H5a2 2 0 0 1-2-2V6a2 2 0 0 1 2-2h1V2h2v2h8V2M7 18v-7h2v7H7m8-7h2v7h-2v-7Z" transform="matrix(1.5 0 0 1.5 468 36)" id="mdi-calendar-weekend" fill="#fff"/><path d="M19 4a2 2 0 0 1 2 2v14a2 2 0 0 1-2 2H5a2 2 0 0 1-2-2V6a2 2 0 0 1 2-2h1V2h2v2h8V2h2v2h1m0 16V10H5v10h14m0-12V6H5v2h14M7 12h2v6H7v-6m8 0h2v6h-2v-6Z" transform="matrix(1.5 0 0 1.5 504 36)" id="mdi-calendar-weekend-outline" fill="#555"/><path d="M19 4a2 2 0 0 1 2 2v14a2 2 0 0 1-2 2H5a2 2 0 0 1-2-2V6a2 2 0 0 1 2-2h1V2h2v2h8V2h2v2h1m0 16V10H5v10h14m0-12V6H5v2h14M7 12h2v6H7v-6m8 0h2v6h-2v-6Z" transform="matrix(1.5 0 0 1.5 540 36)" id="mdi-calendar-weekend-outline" fill="#fff"/><path d="M9 5v2h6.59L4 18.59 5.41 20 17 8.41V15h2V5" transform="matrix(1.5 0 0 1.5 576 36)" id="mdi-call-made" fill="#555"/><path d="M9 5v2h6.59L4 18.59 5.41 20 17 8.41V15h2V5" transform="matrix(1.5 0 0 1.5 612 36)" id="mdi-call-made" fill="#fff"/><path d="M17 20.41 18.41 19 15 15.59 13.59 17M7.5 8H11v5.59L5.59 19 7 20.41l6-6V8h3.5L12 3.5" transform="matrix(1.5 0 0 1.5 648 36)" id="mdi-call-merge" fill="#555"/><path d="M17 20.41 18.41 19 15 15.59 13.59 17M7.5 8H11v5.59L5.59 19 7 20.41l6-6V8h3.5L12 3.5" transform="matrix(1.5 0 0 1.5 684 36)" id="mdi-call-merge" fill="#fff"/><path d="M19.59 7 12 14.59 6.41 9H11V7H3v8h2v-4.59l7 7 9-9" transform="matrix(1.5 0 0 1.5 0 72)" id="mdi-call-missed" fill="#555"/><path d="M19.59 7 12 14.59 6.41 9H11V7H3v8h2v-4.59l7 7 9-9" transform="matrix(1.5 0 0 1.5 36 72)" id="mdi-call-missed" fill="#fff"/><path d="M20 5.41 18.59 4 7 15.59V9H5v10h10v-2H8.41" transform="matrix(1.5 0 0 1.5 72 72)" id="mdi-call-received" fill="#555"/><path d="M20 5.41 18.59 4 7 15.59V9H5v10h10v-2H8.41" transform="matrix(1.5 0 0 1.5 108 72)" id="mdi-call-received" fill="#fff"/><path d="m14 4 2.29 2.29-2.88 2.88 1.42 1.42 2.88-2.88L20 10V4M10 4H4v6l2.29-2.29 4.71 4.7V20h2v-8.41l-5.29-5.3" transform="matrix(1.5 0 0 1.5 144 72)" id="mdi-call-split" fill="#555"/><path d="m14 4 2.29 2.29-2.88 2.88 1.42 1.42 2.88-2.88L20 10V4M10 4H4v6l2.29-2.29 4.71 4.7V20h2v-8.41l-5.29-5.3" transform="matrix(1.5 0 0 1.5 180 72)" id="mdi-call-split" fill="#fff"/><path d="M7 2C4.24 2 2 4.24 2 7v13c0 1.1.9 2 2 2h6c1.1 0 2-.9 2-2V7c0-2.76-2.24-5-5-5M5 20c-.55 0-1-.45-1-1s.45-1 1-1 1 .45 1 1-.45 1-1 1m2-10c-1.66 0-3-1.34-3-3s1.34-3 3-3 3 1.34 3 3-1.34 3-3 3m15-1v5c0 1.1-.9 2-2 2h-7v-2h7V9h-7V7h7c1.1 0 2 .9 2 2Z" transform="matrix(1.5 0 0 1.5 216 72)" id="mdi-camcorder" fill="#555"/><path d="M7 2C4.24 2 2 4.24 2 7v13c0 1.1.9 2 2 2h6c1.1 0 2-.9 2-2V7c0-2.76-2.24-5-5-5M5 20c-.55 0-1-.45-1-1s.45-1 1-1 1 .45 1 1-.45 1-1 1m2-10c-1.66 0-3-1.34-3-3s1.34-3 3-3 3 1.34 3 3-1.34 3-3 3m15-1v5c0 1.1-.9 2-2 2h-7v-2h7V9h-7V7h7c1.1 0 2 .9 2 2Z" transform="matrix(1.5 0 0 1.5 252 72)" id="mdi-camcorder" fill="#fff"/><path d="M22.1 21.5 9.4 8.8l-7-7L1.1 3l1.6 1.6C2.2 5.3 2 6.1 2 7v13c0 1.1.9 2 2 2h6c1.1 0 2-.9 2-2v-6.1l1 1V16h1.1l6.7 6.7 1.3-1.2M5 20c-.5 0-1-.5-1-1s.5-1 1-1 1 .5 1 1-.5 1-1 1m2-10c-1.7 0-3-1.3-3-3 0-.3.1-.6.2-.9L8 9.9c-.4 0-.7.1-1 .1m.2-6L5.5 2.3C6 2.1 6.5 2 7 2c2.8 0 5 2.2 5 5v1.8l-2-2C9.9 5.3 8.7 4.1 7.2 4M20 9h-7V7h7c1.1 0 2 .9 2 2v5c0 1.1-.9 2-2 2h-.8l-2-2H20V9Z" transform="matrix(1.5 0 0 1.5 288 72)" id="mdi-camcorder-off" fill="#555"/><path d="M22.1 21.5 9.4 8.8l-7-7L1.1 3l1.6 1.6C2.2 5.3 2 6.1 2 7v13c0 1.1.9 2 2 2h6c1.1 0 2-.9 2-2v-6.1l1 1V16h1.1l6.7 6.7 1.3-1.2M5 20c-.5 0-1-.5-1-1s.5-1 1-1 1 .5 1 1-.5 1-1 1m2-10c-1.7 0-3-1.3-3-3 0-.3.1-.6.2-.9L8 9.9c-.4 0-.7.1-1 .1m.2-6L5.5 2.3C6 2.1 6.5 2 7 2c2.8 0 5 2.2 5 5v1.8l-2-2C9.9 5.3 8.7 4.1 7.2 4M20 9h-7V7h7c1.1 0 2 .9 2 2v5c0 1.1-.9 2-2 2h-.8l-2-2H20V9Z" transform="matrix(1.5 0 0 1.5 324 72)" id="mdi-camcorder-off" fill="#fff"/><path d="M4 4h3l2-2h6l2 2h3a2 2 0 0 1 2 2v12a2 2 0 0 1-2 2H4a2 2 0 0 1-2-2V6a2 2 0 0 1 2-2m8 3a5 5 0 0 0-5 5 5 5 0 0 0 5 5 5 5 0 0 0 5-5 5 5 0 0 0-5-5m0 2a3 3 0 0 1 3 3 3 3 0 0 1-3 3 3 3 0 0 1-3-3 3 3 0 0 1 3-3Z" transform="matrix(1.5 0 0 1.5 360 72)" id="mdi-camera" fill="#555"/><path d="M4 4h3l2-2h6l2 2h3a2 2 0 0 1 2 2v12a2 2 0 0 1-2 2H4a2 2 0 0 1-2-2V6a2 2 0 0 1 2-2m8 3a5 5 0 0 0-5 5 5 5 0 0 0 5 5 5 5 0 0 0 5-5 5 5 0 0 0-5-5m0 2a3 3 0 0 1 3 3 3 3 0 0 1-3 3 3 3 0 0 1-3-3 3 3 0 0 1 3-3Z" transform="matrix(1.5 0 0 1.5 396 72)" id="mdi-camera" fill="#fff"/><path d="M4 5h3l2-2h6l2 2h3a2 2 0 0 1 2 2v12a2 2 0 0 1-2 2H4a2 2 0 0 1-2-2V7a2 2 0 0 1 2-2m12 12v-1c0-1.33-2.67-2-4-2s-4 .67-4 2v1h8m-4-8a2 2 0 0 0-2 2 2 2 0 0 0 2 2 2 2 0 0 0 2-2 2 2 0 0 0-2-2Z" transform="matrix(1.5 0 0 1.5 432 72)" id="mdi-camera-account" fill="#555"/><path d="M4 5h3l2-2h6l2 2h3a2 2 0 0 1 2 2v12a2 2 0 0 1-2 2H4a2 2 0 0 1-2-2V7a2 2 0 0 1 2-2m12 12v-1c0-1.33-2.67-2-4-2s-4 .67-4 2v1h8m-4-8a2 2 0 0 0-2 2 2 2 0 0 0 2 2 2 2 0 0 0 2-2 2 2 0 0 0-2-2Z" transform="matrix(1.5 0 0 1.5 468 72)" id="mdi-camera-account" fill="#fff"/><path d="M1 5h2v14H1V5m4 0h2v14H5V5m17 0H10a1 1 0 0 0-1 1v12a1 1 0 0 0 1 1h12a1 1 0 0 0 1-1V6a1 1 0 0 0-1-1M11 17l2.5-3.15L15.29 16l2.5-3.22L21 17H11Z" transform="matrix(1.5 0 0 1.5 504 72)" id="mdi-camera-burst" fill="#555"/><path d="M1 5h2v14H1V5m4 0h2v14H5V5m17 0H10a1 1 0 0 0-1 1v12a1 1 0 0 0 1 1h12a1 1 0 0 0 1-1V6a1 1 0 0 0-1-1M11 17l2.5-3.15L15.29 16l2.5-3.22L21 17H11Z" transform="matrix(1.5 0 0 1.5 540 72)" id="mdi-camera-burst" fill="#fff"/><path d="M9 12c0-.81.3-1.5.89-2.11C10.5 9.3 11.19 9 12 9c.81 0 1.5.3 2.11.89.59.61.89 1.3.89 2.11 0 .81-.3 1.5-.89 2.11-.61.59-1.3.89-2.11.89-.81 0-1.5-.3-2.11-.89C9.3 13.5 9 12.81 9 12M5.53 8.44l1.78 1.78L5.53 12l1.78 1.78-1.78 1.78L2 12l3.53-3.56m2.91 10.03 1.78-1.78L12 18.47l1.78-1.78 1.78 1.78L12 22l-3.56-3.53m10.03-2.91-1.78-1.78L18.47 12l-1.78-1.78 1.78-1.78L22 12l-3.53 3.56M15.56 5.53l-1.78 1.78L12 5.53l-1.78 1.78-1.78-1.78L12 2l3.56 3.53Z" transform="matrix(1.5 0 0 1.5 576 72)" id="mdi-camera-control" fill="#555"/><path d="M9 12c0-.81.3-1.5.89-2.11C10.5 9.3 11.19 9 12 9c.81 0 1.5.3 2.11.89.59.61.89 1.3.89 2.11 0 .81-.3 1.5-.89 2.11-.61.59-1.3.89-2.11.89-.81 0-1.5-.3-2.11-.89C9.3 13.5 9 12.81 9 12M5.53 8.44l1.78 1.78L5.53 12l1.78 1.78-1.78 1.78L2 12l3.53-3.56m2.91 10.03 1.78-1.78L12 18.47l1.78-1.78 1.78 1.78L12 22l-3.56-3.53m10.03-2.91-1.78-1.78L18.47 12l-1.78-1.78 1.78-1.78L22 12l-3.53 3.56M15.56 5.53l-1.78 1.78L12 5.53l-1.78 1.78-1.78-1.78L12 2l3.56 3.53Z" transform="matrix(1.5 0 0 1.5 612 72)" id="mdi-camera-control" fill="#fff"/><path d="M21 7v15H3v-2h16V7h-4.28c-.34.6-.98 1-1.72 1a2 2 0 0 1-2 2H8c-1.1 0-2-.9-2-2V4c0-1.1.9-2 2-2h3c1.1 0 2 .9 2 2 .74 0 1.38.41 1.72 1H19c1.11 0 2 .89 2 2M6 15h7l-2-4H8l-2 4Z" transform="matrix(1.5 0 0 1.5 648 72)" id="mdi-camera-document" fill="#555"/><path d="M21 7v15H3v-2h16V7h-4.28c-.34.6-.98 1-1.72 1a2 2 0 0 1-2 2H8c-1.1 0-2-.9-2-2V4c0-1.1.9-2 2-2h3c1.1 0 2 .9 2 2 .74 0 1.38.41 1.72 1H19c1.11 0 2 .89 2 2M6 15h7l-2-4H8l-2 4Z" transform="matrix(1.5 0 0 1.5 684 72)" id="mdi-camera-document" fill="#fff"/><path d="m20.84 22.73-.73-.73H3v-2h15.11l-5.22-5.22.11.22H6l2-4h1.11l-1-1H8c-1.1 0-2-.9-2-2v-.11L1.11 3l1.28-1.27 19.72 19.73-1.27 1.27M13 8c.74 0 1.38-.4 1.72-1H19v8.8l2 2V7c0-1.11-.89-2-2-2h-4.28c-.34-.59-.98-1-1.72-1 0-1.1-.9-2-2-2H8c-.76 0-1.41.43-1.75 1.05L12.5 9.3c.31-.35.5-.8.5-1.3Z" transform="matrix(1.5 0 0 1.5 0 108)" id="mdi-camera-document-off" fill="#555"/><path d="m20.84 22.73-.73-.73H3v-2h15.11l-5.22-5.22.11.22H6l2-4h1.11l-1-1H8c-1.1 0-2-.9-2-2v-.11L1.11 3l1.28-1.27 19.72 19.73-1.27 1.27M13 8c.74 0 1.38-.4 1.72-1H19v8.8l2 2V7c0-1.11-.89-2-2-2h-4.28c-.34-.59-.98-1-1.72-1 0-1.1-.9-2-2-2H8c-.76 0-1.41.43-1.75 1.05L12.5 9.3c.31-.35.5-.8.5-1.3Z" transform="matrix(1.5 0 0 1.5 36 108)" id="mdi-camera-document-off" fill="#fff"/><path d="M9 3 7.17 5H4a2 2 0 0 0-2 2v12a2 2 0 0 0 2 2h16a2 2 0 0 0 2-2V7a2 2 0 0 0-2-2h-3.17L15 3m-3 15a5 5 0 0 1-5-5 5 5 0 0 1 5-5 5 5 0 0 1 5 5 5 5 0 0 1-5 5m0-1 1.25-2.75L16 13l-2.75-1.25L12 9l-1.25 2.75L8 13l2.75 1.25" transform="matrix(1.5 0 0 1.5 72 108)" id="mdi-camera-enhance" fill="#555"/><path d="M9 3 7.17 5H4a2 2 0 0 0-2 2v12a2 2 0 0 0 2 2h16a2 2 0 0 0 2-2V7a2 2 0 0 0-2-2h-3.17L15 3m-3 15a5 5 0 0 1-5-5 5 5 0 0 1 5-5 5 5 0 0 1 5 5 5 5 0 0 1-5 5m0-1 1.25-2.75L16 13l-2.75-1.25L12 9l-1.25 2.75L8 13l2.75 1.25" transform="matrix(1.5 0 0 1.5 108 108)" id="mdi-camera-enhance" fill="#fff"/><path d="m12 10-.94 2.06L9 13l2.06.94L12 16l.94-2.06L15 13l-2.06-.94L12 10m8-5h-3.17L15 3H9L7.17 5H4a2 2 0 0 0-2 2v12a2 2 0 0 0 2 2h16a2 2 0 0 0 2-2V7a2 2 0 0 0-2-2m0 14H4V7h4.05l.59-.65L9.88 5h4.24l1.24 1.35.59.65H20v12M12 8a5 5 0 0 0-5 5 5 5 0 0 0 5 5 5 5 0 0 0 5-5 5 5 0 0 0-5-5m0 8a3 3 0 0 1-3-3 3 3 0 0 1 3-3 3 3 0 0 1 3 3 3 3 0 0 1-3 3Z" transform="matrix(1.5 0 0 1.5 144 108)" id="mdi-camera-enhance-outline" fill="#555"/><path d="m12 10-.94 2.06L9 13l2.06.94L12 16l.94-2.06L15 13l-2.06-.94L12 10m8-5h-3.17L15 3H9L7.17 5H4a2 2 0 0 0-2 2v12a2 2 0 0 0 2 2h16a2 2 0 0 0 2-2V7a2 2 0 0 0-2-2m0 14H4V7h4.05l.59-.65L9.88 5h4.24l1.24 1.35.59.65H20v12M12 8a5 5 0 0 0-5 5 5 5 0 0 0 5 5 5 5 0 0 0 5-5 5 5 0 0 0-5-5m0 8a3 3 0 0 1-3-3 3 3 0 0 1 3-3 3 3 0 0 1 3 3 3 3 0 0 1-3 3Z" transform="matrix(1.5 0 0 1.5 180 108)" id="mdi-camera-enhance-outline" fill="#fff"/><path d="M20 5h-3l-2-2H9L7 5H4c-1.1 0-2 .9-2 2v12a2 2 0 0 0 2 2h16c1.11 0 2-.89 2-2V7a2 2 0 0 0-2-2M5 12h2.1A4.997 4.997 0 0 1 13 8.1c.76.15 1.43.49 2 .9l-1.44 1.45c-.45-.28-.98-.45-1.56-.45-1.26 0-2.4.8-2.82 2H11l-3 3-3-3m11.91 2c-.55 2.71-3.19 4.45-5.91 3.9a5.44 5.44 0 0 1-2-.9l1.44-1.45c.46.28.99.45 1.56.45 1.27 0 2.41-.8 2.83-2H13l3-3 3 3h-2.09Z" transform="matrix(1.5 0 0 1.5 216 108)" id="mdi-camera-flip" fill="#555"/><path d="M20 5h-3l-2-2H9L7 5H4c-1.1 0-2 .9-2 2v12a2 2 0 0 0 2 2h16c1.11 0 2-.89 2-2V7a2 2 0 0 0-2-2M5 12h2.1A4.997 4.997 0 0 1 13 8.1c.76.15 1.43.49 2 .9l-1.44 1.45c-.45-.28-.98-.45-1.56-.45-1.26 0-2.4.8-2.82 2H11l-3 3-3-3m11.91 2c-.55 2.71-3.19 4.45-5.91 3.9a5.44 5.44 0 0 1-2-.9l1.44-1.45c.46.28.99.45 1.56.45 1.27 0 2.41-.8 2.83-2H13l3-3 3 3h-2.09Z" transform="matrix(1.5 0 0 1.5 252 108)" id="mdi-camera-flip" fill="#fff"/><path d="M20 5h-3.17L15 3H9L7.17 5H4c-1.1 0-2 .9-2 2v12a2 2 0 0 0 2 2h16c1.11 0 2-.89 2-2V7a2 2 0 0 0-2-2m0 14H4V7h4.05l1.83-2h4.24L16 7h4v12M5 12h2.1A4.997 4.997 0 0 1 13 8.1c.76.15 1.43.49 2 .9l-1.44 1.45c-.45-.28-.98-.45-1.56-.45-1.26 0-2.4.8-2.82 2H11l-3 3-3-3m11.91 2c-.55 2.71-3.19 4.45-5.91 3.9a5.44 5.44 0 0 1-2-.9l1.44-1.45c.46.28.99.45 1.56.45 1.27 0 2.41-.8 2.83-2H13l3-3 3 3h-2.09Z" transform="matrix(1.5 0 0 1.5 288 108)" id="mdi-camera-flip-outline" fill="#555"/><path d="M20 5h-3.17L15 3H9L7.17 5H4c-1.1 0-2 .9-2 2v12a2 2 0 0 0 2 2h16c1.11 0 2-.89 2-2V7a2 2 0 0 0-2-2m0 14H4V7h4.05l1.83-2h4.24L16 7h4v12M5 12h2.1A4.997 4.997 0 0 1 13 8.1c.76.15 1.43.49 2 .9l-1.44 1.45c-.45-.28-.98-.45-1.56-.45-1.26 0-2.4.8-2.82 2H11l-3 3-3-3m11.91 2c-.55 2.71-3.19 4.45-5.91 3.9a5.44 5.44 0 0 1-2-.9l1.44-1.45c.46.28.99.45 1.56.45 1.27 0 2.41-.8 2.83-2H13l3-3 3 3h-2.09Z" transform="matrix(1.5 0 0 1.5 324 108)" id="mdi-camera-flip-outline" fill="#fff"/><path d="M7 2h10v10.5c0-1.67-3.33-2.5-5-2.5s-5 .83-5 2.5M17 0H7a2 2 0 0 0-2 2v14a2 2 0 0 0 2 2h10a2 2 0 0 0 2-2V2a2 2 0 0 0-2-2m-5 8a2 2 0 0 0 2-2 2 2 0 0 0-2-2 2 2 0 0 0-2 2 2 2 0 0 0 2 2m2 12v2h5v-2m-9 0H5v2h5v2l3-3-3-3v2Z" transform="matrix(1.5 0 0 1.5 360 108)" id="mdi-camera-front" fill="#555"/><path d="M7 2h10v10.5c0-1.67-3.33-2.5-5-2.5s-5 .83-5 2.5M17 0H7a2 2 0 0 0-2 2v14a2 2 0 0 0 2 2h10a2 2 0 0 0 2-2V2a2 2 0 0 0-2-2m-5 8a2 2 0 0 0 2-2 2 2 0 0 0-2-2 2 2 0 0 0-2 2 2 2 0 0 0 2 2m2 12v2h5v-2m-9 0H5v2h5v2l3-3-3-3v2Z" transform="matrix(1.5 0 0 1.5 396 108)" id="mdi-camera-front" fill="#fff"/><path d="M6 0h12a2 2 0 0 1 2 2v20a2 2 0 0 1-2 2H6a2 2 0 0 1-2-2V2a2 2 0 0 1 2-2m6 6a3 3 0 0 1 3 3 3 3 0 0 1-3 3 3 3 0 0 1-3-3 3 3 0 0 1 3-3m-1-5v2h2V1h-2M6 4v12.5c0-1.38 2.69-2.5 6-2.5s6 1.12 6 2.5V4H6m7 14H9v2h4v2l3-3-3-3v2Z" transform="matrix(1.5 0 0 1.5 432 108)" id="mdi-camera-front-variant" fill="#555"/><path d="M6 0h12a2 2 0 0 1 2 2v20a2 2 0 0 1-2 2H6a2 2 0 0 1-2-2V2a2 2 0 0 1 2-2m6 6a3 3 0 0 1 3 3 3 3 0 0 1-3 3 3 3 0 0 1-3-3 3 3 0 0 1 3-3m-1-5v2h2V1h-2M6 4v12.5c0-1.38 2.69-2.5 6-2.5s6 1.12 6 2.5V4H6m7 14H9v2h4v2l3-3-3-3v2Z" transform="matrix(1.5 0 0 1.5 468 108)" id="mdi-camera-front-variant" fill="#fff"/><path d="M20 5h-5a2 2 0 0 0-2 2v5a2 2 0 0 0 2 2h5a2 2 0 0 0 2-2V7a2 2 0 0 0-2-2m-2.5 7.5a3 3 0 0 1-3-3 3 3 0 0 1 3-3 3 3 0 0 1 3 3 3 3 0 0 1-3 3m0-1.5A1.5 1.5 0 0 1 16 9.5 1.5 1.5 0 0 1 17.5 8 1.5 1.5 0 0 1 19 9.5a1.5 1.5 0 0 1-1.5 1.5M12 15V5H4a2 2 0 0 0-2 2v10a2 2 0 0 0 2 2h16a2 2 0 0 0 2-2v-2H12m-2-3H4V7h6v5Z" transform="matrix(1.5 0 0 1.5 504 108)" id="mdi-camera-gopro" fill="#555"/><path d="M20 5h-5a2 2 0 0 0-2 2v5a2 2 0 0 0 2 2h5a2 2 0 0 0 2-2V7a2 2 0 0 0-2-2m-2.5 7.5a3 3 0 0 1-3-3 3 3 0 0 1 3-3 3 3 0 0 1 3 3 3 3 0 0 1-3 3m0-1.5A1.5 1.5 0 0 1 16 9.5 1.5 1.5 0 0 1 17.5 8 1.5 1.5 0 0 1 19 9.5a1.5 1.5 0 0 1-1.5 1.5M12 15V5H4a2 2 0 0 0-2 2v10a2 2 0 0 0 2 2h16a2 2 0 0 0 2-2v-2H12m-2-3H4V7h6v5Z" transform="matrix(1.5 0 0 1.5 540 108)" id="mdi-camera-gopro" fill="#fff"/><path d="M4 5h3l2-2h6l2 2h3a2 2 0 0 1 2 2v12a2 2 0 0 1-2 2H4a2 2 0 0 1-2-2V7a2 2 0 0 1 2-2m9.09 4.45-2.04 2.73 1.55 2.07-.87.66-2.46-3.27L6 16h12l-4.91-6.55Z" transform="matrix(1.5 0 0 1.5 576 108)" id="mdi-camera-image" fill="#555"/><path d="M4 5h3l2-2h6l2 2h3a2 2 0 0 1 2 2v12a2 2 0 0 1-2 2H4a2 2 0 0 1-2-2V7a2 2 0 0 1 2-2m9.09 4.45-2.04 2.73 1.55 2.07-.87.66-2.46-3.27L6 16h12l-4.91-6.55Z" transform="matrix(1.5 0 0 1.5 612 108)" id="mdi-camera-image" fill="#fff"/><path d="m13.73 15-3.9 6.76a9.984 9.984 0 0 0 8.49-2.01l-3.66-6.35M2.46 15c.92 2.92 3.15 5.26 5.99 6.34L12.12 15m-3.58-3-3.9-6.75A9.855 9.855 0 0 0 2 12c0 .68.07 1.35.2 2h7.49m12.11-4h-7.49l.29.5 4.76 8.25A9.93 9.93 0 0 0 22 12c0-.69-.07-1.36-.2-2m-.26-1c-.92-2.93-3.15-5.26-5.99-6.34L11.88 9M9.4 10.5l4.77-8.26C13.47 2.09 12.75 2 12 2c-2.4 0-4.6.84-6.32 2.25l3.66 6.35.06-.1Z" transform="matrix(1.5 0 0 1.5 648 108)" id="mdi-camera-iris" fill="#555"/><path d="m13.73 15-3.9 6.76a9.984 9.984 0 0 0 8.49-2.01l-3.66-6.35M2.46 15c.92 2.92 3.15 5.26 5.99 6.34L12.12 15m-3.58-3-3.9-6.75A9.855 9.855 0 0 0 2 12c0 .68.07 1.35.2 2h7.49m12.11-4h-7.49l.29.5 4.76 8.25A9.93 9.93 0 0 0 22 12c0-.69-.07-1.36-.2-2m-.26-1c-.92-2.93-3.15-5.26-5.99-6.34L11.88 9M9.4 10.5l4.77-8.26C13.47 2.09 12.75 2 12 2c-2.4 0-4.6.84-6.32 2.25l3.66 6.35.06-.1Z" transform="matrix(1.5 0 0 1.5 684 108)" id="mdi-camera-iris" fill="#fff"/><path d="M18.5 16.8c-.7 0-1.2-.6-1.2-1.2 0-.7.6-1.2 1.2-1.2s1.2.6 1.2 1.2c.1.6-.5 1.2-1.2 1.2m0-4.8c-1.9 0-3.5 1.6-3.5 3.5 0 2.6 3.5 6.5 3.5 6.5s3.5-3.9 3.5-6.5c0-1.9-1.6-3.5-3.5-3.5M9 2 7 4H4c-1.1 0-2 .9-2 2v12c0 1.1.9 2 2 2h10.5c-.6-.9-1.1-1.9-1.4-3.1-.3.1-.7.1-1.1.1-2.8 0-5-2.2-5-5s2.2-5 5-5c2.1 0 4 1.3 4.7 3.3.6-.2 1.2-.3 1.8-.3 1.3 0 2.5.5 3.5 1.3V6c0-1.1-.9-2-2-2h-3l-2-2H9m2.9 7C10.3 9 9 10.4 9 12c0 1.7 1.3 3 3 3 .4 0 .7-.1 1-.2.2-1.4.9-2.6 1.9-3.5-.3-1.3-1.5-2.3-3-2.3.1 0 .1 0 0 0Z" transform="matrix(1.5 0 0 1.5 0 144)" id="mdi-camera-marker" fill="#555"/><path d="M18.5 16.8c-.7 0-1.2-.6-1.2-1.2 0-.7.6-1.2 1.2-1.2s1.2.6 1.2 1.2c.1.6-.5 1.2-1.2 1.2m0-4.8c-1.9 0-3.5 1.6-3.5 3.5 0 2.6 3.5 6.5 3.5 6.5s3.5-3.9 3.5-6.5c0-1.9-1.6-3.5-3.5-3.5M9 2 7 4H4c-1.1 0-2 .9-2 2v12c0 1.1.9 2 2 2h10.5c-.6-.9-1.1-1.9-1.4-3.1-.3.1-.7.1-1.1.1-2.8 0-5-2.2-5-5s2.2-5 5-5c2.1 0 4 1.3 4.7 3.3.6-.2 1.2-.3 1.8-.3 1.3 0 2.5.5 3.5 1.3V6c0-1.1-.9-2-2-2h-3l-2-2H9m2.9 7C10.3 9 9 10.4 9 12c0 1.7 1.3 3 3 3 .4 0 .7-.1 1-.2.2-1.4.9-2.6 1.9-3.5-.3-1.3-1.5-2.3-3-2.3.1 0 .1 0 0 0Z" transform="matrix(1.5 0 0 1.5 36 144)" id="mdi-camera-marker" fill="#fff"/><path d="M18.5 16.8c-.7 0-1.2-.6-1.2-1.2 0-.7.6-1.2 1.2-1.2s1.2.6 1.2 1.2c.1.6-.5 1.2-1.2 1.2m0-4.8c-1.9 0-3.5 1.6-3.5 3.5 0 2.6 3.5 6.5 3.5 6.5s3.5-3.9 3.5-6.5c0-1.9-1.6-3.5-3.5-3.5M9 2 7.2 4H4c-1.1 0-2 .9-2 2v12c0 1.1.9 2 2 2h10.5c-.4-.6-.8-1.3-1-2H4V6h4.1l1.8-2h4.2l1.8 2H20v4.2c.7.2 1.4.6 2 1.1V6c0-1.1-.9-2-2-2h-3.2L15 2H9m3 5c-2.8 0-5 2.2-5 5s2.2 5 5 5c.4 0 .8 0 1.2-.1-.1-.5-.2-.9-.2-1.4v-.7c-.3.1-.7.2-1 .2-1.7 0-3-1.3-3-3s1.3-3 3-3c1.4 0 2.6 1 2.9 2.3.5-.4 1.1-.8 1.8-1C16 8.3 14.1 7 12 7Z" transform="matrix(1.5 0 0 1.5 72 144)" id="mdi-camera-marker-outline" fill="#555"/><path d="M18.5 16.8c-.7 0-1.2-.6-1.2-1.2 0-.7.6-1.2 1.2-1.2s1.2.6 1.2 1.2c.1.6-.5 1.2-1.2 1.2m0-4.8c-1.9 0-3.5 1.6-3.5 3.5 0 2.6 3.5 6.5 3.5 6.5s3.5-3.9 3.5-6.5c0-1.9-1.6-3.5-3.5-3.5M9 2 7.2 4H4c-1.1 0-2 .9-2 2v12c0 1.1.9 2 2 2h10.5c-.4-.6-.8-1.3-1-2H4V6h4.1l1.8-2h4.2l1.8 2H20v4.2c.7.2 1.4.6 2 1.1V6c0-1.1-.9-2-2-2h-3.2L15 2H9m3 5c-2.8 0-5 2.2-5 5s2.2 5 5 5c.4 0 .8 0 1.2-.1-.1-.5-.2-.9-.2-1.4v-.7c-.3.1-.7.2-1 .2-1.7 0-3-1.3-3-3s1.3-3 3-3c1.4 0 2.6 1 2.9 2.3.5-.4 1.1-.8 1.8-1C16 8.3 14.1 7 12 7Z" transform="matrix(1.5 0 0 1.5 108 144)" id="mdi-camera-marker-outline" fill="#fff"/><path d="M4 4h16a2 2 0 0 1 2 2v12a2 2 0 0 1-2 2H4a2 2 0 0 1-2-2V6a2 2 0 0 1 2-2m0 2v12h16V6H4m8 4.5a1.5 1.5 0 0 1 1.5 1.5 1.5 1.5 0 0 1-1.5 1.5 1.5 1.5 0 0 1-1.5-1.5 1.5 1.5 0 0 1 1.5-1.5m0-3c2.14 0 3.93 1.5 4.39 3.5h-1.56A2.99 2.99 0 0 0 12 9c-1.31 0-2.42.83-2.83 2H7.61C8.07 9 9.86 7.5 12 7.5m0 9c-2.14 0-3.93-1.5-4.39-3.5h1.56c.41 1.17 1.52 2 2.83 2s2.42-.83 2.83-2h1.56c-.46 2-2.25 3.5-4.39 3.5Z" transform="matrix(1.5 0 0 1.5 144 144)" id="mdi-camera-metering-center" fill="#555"/><path d="M4 4h16a2 2 0 0 1 2 2v12a2 2 0 0 1-2 2H4a2 2 0 0 1-2-2V6a2 2 0 0 1 2-2m0 2v12h16V6H4m8 4.5a1.5 1.5 0 0 1 1.5 1.5 1.5 1.5 0 0 1-1.5 1.5 1.5 1.5 0 0 1-1.5-1.5 1.5 1.5 0 0 1 1.5-1.5m0-3c2.14 0 3.93 1.5 4.39 3.5h-1.56A2.99 2.99 0 0 0 12 9c-1.31 0-2.42.83-2.83 2H7.61C8.07 9 9.86 7.5 12 7.5m0 9c-2.14 0-3.93-1.5-4.39-3.5h1.56c.41 1.17 1.52 2 2.83 2s2.42-.83 2.83-2h1.56c-.46 2-2.25 3.5-4.39 3.5Z" transform="matrix(1.5 0 0 1.5 180 144)" id="mdi-camera-metering-center" fill="#fff"/><path d="M4 4h16a2 2 0 0 1 2 2v12a2 2 0 0 1-2 2H4a2 2 0 0 1-2-2V6a2 2 0 0 1 2-2m0 2v12h16V6H4m1.5 1.5H11v1.67c-.85.3-1.53.98-1.83 1.83H5.5V7.5m13 0V11h-3.67c-.3-.85-.98-1.53-1.83-1.83V7.5h5.5m0 9H13v-1.67c.85-.3 1.53-.98 1.83-1.83h3.67v3.5m-13 0V13h3.67c.3.85.98 1.53 1.83 1.83v1.67H5.5m6.5-6a1.5 1.5 0 0 1 1.5 1.5 1.5 1.5 0 0 1-1.5 1.5 1.5 1.5 0 0 1-1.5-1.5 1.5 1.5 0 0 1 1.5-1.5Z" transform="matrix(1.5 0 0 1.5 216 144)" id="mdi-camera-metering-matrix" fill="#555"/><path d="M4 4h16a2 2 0 0 1 2 2v12a2 2 0 0 1-2 2H4a2 2 0 0 1-2-2V6a2 2 0 0 1 2-2m0 2v12h16V6H4m1.5 1.5H11v1.67c-.85.3-1.53.98-1.83 1.83H5.5V7.5m13 0V11h-3.67c-.3-.85-.98-1.53-1.83-1.83V7.5h5.5m0 9H13v-1.67c.85-.3 1.53-.98 1.83-1.83h3.67v3.5m-13 0V13h3.67c.3.85.98 1.53 1.83 1.83v1.67H5.5m6.5-6a1.5 1.5 0 0 1 1.5 1.5 1.5 1.5 0 0 1-1.5 1.5 1.5 1.5 0 0 1-1.5-1.5 1.5 1.5 0 0 1 1.5-1.5Z" transform="matrix(1.5 0 0 1.5 252 144)" id="mdi-camera-metering-matrix" fill="#fff"/><path d="M4 4h16a2 2 0 0 1 2 2v12a2 2 0 0 1-2 2H4a2 2 0 0 1-2-2V6a2 2 0 0 1 2-2m0 2v12h16V6H4m8 1.5c2.14 0 3.93 1.5 4.39 3.5h-1.56A2.99 2.99 0 0 0 12 9c-1.31 0-2.42.83-2.83 2H7.61C8.07 9 9.86 7.5 12 7.5m0 9c-2.14 0-3.93-1.5-4.39-3.5h1.56c.41 1.17 1.52 2 2.83 2s2.42-.83 2.83-2h1.56c-.46 2-2.25 3.5-4.39 3.5Z" transform="matrix(1.5 0 0 1.5 288 144)" id="mdi-camera-metering-partial" fill="#555"/><path d="M4 4h16a2 2 0 0 1 2 2v12a2 2 0 0 1-2 2H4a2 2 0 0 1-2-2V6a2 2 0 0 1 2-2m0 2v12h16V6H4m8 1.5c2.14 0 3.93 1.5 4.39 3.5h-1.56A2.99 2.99 0 0 0 12 9c-1.31 0-2.42.83-2.83 2H7.61C8.07 9 9.86 7.5 12 7.5m0 9c-2.14 0-3.93-1.5-4.39-3.5h1.56c.41 1.17 1.52 2 2.83 2s2.42-.83 2.83-2h1.56c-.46 2-2.25 3.5-4.39 3.5Z" transform="matrix(1.5 0 0 1.5 324 144)" id="mdi-camera-metering-partial" fill="#fff"/><path d="M4 4h16a2 2 0 0 1 2 2v12a2 2 0 0 1-2 2H4a2 2 0 0 1-2-2V6a2 2 0 0 1 2-2m0 2v12h16V6H4m8 4.5a1.5 1.5 0 0 1 1.5 1.5 1.5 1.5 0 0 1-1.5 1.5 1.5 1.5 0 0 1-1.5-1.5 1.5 1.5 0 0 1 1.5-1.5Z" transform="matrix(1.5 0 0 1.5 360 144)" id="mdi-camera-metering-spot" fill="#555"/><path d="M4 4h16a2 2 0 0 1 2 2v12a2 2 0 0 1-2 2H4a2 2 0 0 1-2-2V6a2 2 0 0 1 2-2m0 2v12h16V6H4m8 4.5a1.5 1.5 0 0 1 1.5 1.5 1.5 1.5 0 0 1-1.5 1.5 1.5 1.5 0 0 1-1.5-1.5 1.5 1.5 0 0 1 1.5-1.5Z" transform="matrix(1.5 0 0 1.5 396 144)" id="mdi-camera-metering-spot" fill="#fff"/><path d="M1.2 4.47 2.5 3.2 20 20.72 18.73 22l-2-2H4a2 2 0 0 1-2-2V6c0-.22.04-.43.1-.63l-.9-.9M7 4l2-2h6l2 2h3a2 2 0 0 1 2 2v12c0 .6-.26 1.13-.68 1.5l-4.99-5c.43-.73.67-1.59.67-2.5a5 5 0 0 0-5-5c-.91 0-1.77.24-2.5.67L5.82 4H7m0 8a5 5 0 0 0 5 5c.5 0 1.03-.08 1.5-.23L11.72 15A3.064 3.064 0 0 1 9 12.28L7.23 10.5c-.15.47-.23 1-.23 1.5m5-3a3 3 0 0 1 3 3 3 3 0 0 1-.17 1L11 9.17A3 3 0 0 1 12 9Z" transform="matrix(1.5 0 0 1.5 432 144)" id="mdi-camera-off" fill="#555"/><path d="M1.2 4.47 2.5 3.2 20 20.72 18.73 22l-2-2H4a2 2 0 0 1-2-2V6c0-.22.04-.43.1-.63l-.9-.9M7 4l2-2h6l2 2h3a2 2 0 0 1 2 2v12c0 .6-.26 1.13-.68 1.5l-4.99-5c.43-.73.67-1.59.67-2.5a5 5 0 0 0-5-5c-.91 0-1.77.24-2.5.67L5.82 4H7m0 8a5 5 0 0 0 5 5c.5 0 1.03-.08 1.5-.23L11.72 15A3.064 3.064 0 0 1 9 12.28L7.23 10.5c-.15.47-.23 1-.23 1.5m5-3a3 3 0 0 1 3 3 3 3 0 0 1-.17 1L11 9.17A3 3 0 0 1 12 9Z" transform="matrix(1.5 0 0 1.5 468 144)" id="mdi-camera-off" fill="#fff"/><path d="M17 12c0 .54-.1 1.05-.26 1.54L15 11.78A3.057 3.057 0 0 0 12.22 9l-1.76-1.74c.49-.16 1-.26 1.54-.26 2.76 0 5 2.24 5 5M9.88 4h4.24l1.83 2H20v10.8l1.88 1.88c.08-.21.12-.44.12-.68V6c0-1.11-.89-2-2-2h-3.17L15 2H9L7.18 4 8.6 5.4 9.88 4m12.23 17.46-1.27 1.27L18.11 20H4a2 2 0 0 1-2-2V6c0-.58.25-1.1.65-1.46L1.11 3l1.28-1.27 19.72 19.73M9 12c0 1.66 1.34 3 3 3 .33 0 .65-.07.94-.17l-3.77-3.77c-.1.3-.17.61-.17.94m7.11 6-1.66-1.66c-.73.41-1.56.66-2.45.66-2.76 0-5-2.24-5-5 0-.89.25-1.72.66-2.45L4.11 6H4v12h12.11Z" transform="matrix(1.5 0 0 1.5 504 144)" id="mdi-camera-off-outline" fill="#555"/><path d="M17 12c0 .54-.1 1.05-.26 1.54L15 11.78A3.057 3.057 0 0 0 12.22 9l-1.76-1.74c.49-.16 1-.26 1.54-.26 2.76 0 5 2.24 5 5M9.88 4h4.24l1.83 2H20v10.8l1.88 1.88c.08-.21.12-.44.12-.68V6c0-1.11-.89-2-2-2h-3.17L15 2H9L7.18 4 8.6 5.4 9.88 4m12.23 17.46-1.27 1.27L18.11 20H4a2 2 0 0 1-2-2V6c0-.58.25-1.1.65-1.46L1.11 3l1.28-1.27 19.72 19.73M9 12c0 1.66 1.34 3 3 3 .33 0 .65-.07.94-.17l-3.77-3.77c-.1.3-.17.61-.17.94m7.11 6-1.66-1.66c-.73.41-1.56.66-2.45.66-2.76 0-5-2.24-5-5 0-.89.25-1.72.66-2.45L4.11 6H4v12h12.11Z" transform="matrix(1.5 0 0 1.5 540 144)" id="mdi-camera-off-outline" fill="#fff"/><path d="M20 4h-3.17L15 2H9L7.17 4H4a2 2 0 0 0-2 2v12a2 2 0 0 0 2 2h16a2 2 0 0 0 2-2V6a2 2 0 0 0-2-2m0 14H4V6h4.05l1.83-2h4.24l1.83 2H20v12M12 7a5 5 0 0 0-5 5 5 5 0 0 0 5 5 5 5 0 0 0 5-5 5 5 0 0 0-5-5m0 8a3 3 0 0 1-3-3 3 3 0 0 1 3-3 3 3 0 0 1 3 3 3 3 0 0 1-3 3Z" transform="matrix(1.5 0 0 1.5 576 144)" id="mdi-camera-outline" fill="#555"/><path d="M20 4h-3.17L15 2H9L7.17 4H4a2 2 0 0 0-2 2v12a2 2 0 0 0 2 2h16a2 2 0 0 0 2-2V6a2 2 0 0 0-2-2m0 14H4V6h4.05l1.83-2h4.24l1.83 2H20v12M12 7a5 5 0 0 0-5 5 5 5 0 0 0 5 5 5 5 0 0 0 5-5 5 5 0 0 0-5-5m0 8a3 3 0 0 1-3-3 3 3 0 0 1 3-3 3 3 0 0 1 3 3 3 3 0 0 1-3 3Z" transform="matrix(1.5 0 0 1.5 612 144)" id="mdi-camera-outline" fill="#fff"/><path d="M12 17c-1.63 0-3.06-.79-4-2h4a3 3 0 0 0 3-3c0-.35-.07-.69-.18-1h2.08c.06.32.1.66.1 1a5 5 0 0 1-5 5m0-10c1.63 0 3.06.79 4 2h-4a3 3 0 0 0-3 3c0 .35.07.68.18 1H7.1c-.07-.32-.1-.66-.1-1a5 5 0 0 1 5-5m8-3h-3.17L15 2H9L7.17 4H4a2 2 0 0 0-2 2v12a2 2 0 0 0 2 2h16a2 2 0 0 0 2-2V6a2 2 0 0 0-2-2Z" transform="matrix(1.5 0 0 1.5 648 144)" id="mdi-camera-party-mode" fill="#555"/><path d="M12 17c-1.63 0-3.06-.79-4-2h4a3 3 0 0 0 3-3c0-.35-.07-.69-.18-1h2.08c.06.32.1.66.1 1a5 5 0 0 1-5 5m0-10c1.63 0 3.06.79 4 2h-4a3 3 0 0 0-3 3c0 .35.07.68.18 1H7.1c-.07-.32-.1-.66-.1-1a5 5 0 0 1 5-5m8-3h-3.17L15 2H9L7.17 4H4a2 2 0 0 0-2 2v12a2 2 0 0 0 2 2h16a2 2 0 0 0 2-2V6a2 2 0 0 0-2-2Z" transform="matrix(1.5 0 0 1.5 684 144)" id="mdi-camera-party-mode" fill="#fff"/><path d="M3 4V1h2v3h3v2H5v3H3V6H0V4m6 6V7h3V4h7l1.8 2H21c1.1 0 2 .9 2 2v12c0 1.1-.9 2-2 2H5c-1.1 0-2-.9-2-2V10m10 9c4.45 0 6.69-5.38 3.54-8.54C13.39 7.31 8 9.55 8 14c0 2.76 2.24 5 5 5m-3.2-5c0 2.85 3.45 4.28 5.46 2.26 2.02-2.01.59-5.46-2.26-5.46A3.21 3.21 0 0 0 9.8 14Z" transform="matrix(1.5 0 0 1.5 0 180)" id="mdi-camera-plus" fill="#555"/><path d="M3 4V1h2v3h3v2H5v3H3V6H0V4m6 6V7h3V4h7l1.8 2H21c1.1 0 2 .9 2 2v12c0 1.1-.9 2-2 2H5c-1.1 0-2-.9-2-2V10m10 9c4.45 0 6.69-5.38 3.54-8.54C13.39 7.31 8 9.55 8 14c0 2.76 2.24 5 5 5m-3.2-5c0 2.85 3.45 4.28 5.46 2.26 2.02-2.01.59-5.46-2.26-5.46A3.21 3.21 0 0 0 9.8 14Z" transform="matrix(1.5 0 0 1.5 36 180)" id="mdi-camera-plus" fill="#fff"/><path d="M21 6h-3.2L16 4h-6v2h5.1L17 8h4v12H5v-9H3v9c0 1.1.9 2 2 2h16c1.1 0 2-.9 2-2V8c0-1.1-.9-2-2-2M8 14c0 4.45 5.39 6.69 8.54 3.54C19.69 14.39 17.45 9 13 9c-2.76 0-5 2.24-5 5m5-3a3.09 3.09 0 0 1 3 3 3.09 3.09 0 0 1-3 3 3.09 3.09 0 0 1-3-3 3.09 3.09 0 0 1 3-3M5 6h3V4H5V1H3v3H0v2h3v3h2" transform="matrix(1.5 0 0 1.5 72 180)" id="mdi-camera-plus-outline" fill="#555"/><path d="M21 6h-3.2L16 4h-6v2h5.1L17 8h4v12H5v-9H3v9c0 1.1.9 2 2 2h16c1.1 0 2-.9 2-2V8c0-1.1-.9-2-2-2M8 14c0 4.45 5.39 6.69 8.54 3.54C19.69 14.39 17.45 9 13 9c-2.76 0-5 2.24-5 5m5-3a3.09 3.09 0 0 1 3 3 3.09 3.09 0 0 1-3 3 3.09 3.09 0 0 1-3-3 3.09 3.09 0 0 1 3-3M5 6h3V4H5V1H3v3H0v2h3v3h2" transform="matrix(1.5 0 0 1.5 108 180)" id="mdi-camera-plus-outline" fill="#fff"/><path d="M12 6a2 2 0 0 1-2-2 2 2 0 0 1 2-2c1.09 0 2 .9 2 2a2 2 0 0 1-2 2m5-6H7a2 2 0 0 0-2 2v14a2 2 0 0 0 2 2h10a2 2 0 0 0 2-2V2a2 2 0 0 0-2-2m-3 20v2h5v-2m-9 0H5v2h5v2l3-3-3-3v2Z" transform="matrix(1.5 0 0 1.5 144 180)" id="mdi-camera-rear" fill="#555"/><path d="M12 6a2 2 0 0 1-2-2 2 2 0 0 1 2-2c1.09 0 2 .9 2 2a2 2 0 0 1-2 2m5-6H7a2 2 0 0 0-2 2v14a2 2 0 0 0 2 2h10a2 2 0 0 0 2-2V2a2 2 0 0 0-2-2m-3 20v2h5v-2m-9 0H5v2h5v2l3-3-3-3v2Z" transform="matrix(1.5 0 0 1.5 180 180)" id="mdi-camera-rear" fill="#fff"/><path d="M6 0h12a2 2 0 0 1 2 2v20a2 2 0 0 1-2 2H6a2 2 0 0 1-2-2V2a2 2 0 0 1 2-2m6 2a2 2 0 0 0-2 2 2 2 0 0 0 2 2 2 2 0 0 0 2-2 2 2 0 0 0-2-2m1 16H9v2h4v2l3-3-3-3v2Z" transform="matrix(1.5 0 0 1.5 216 180)" id="mdi-camera-rear-variant" fill="#555"/><path d="M6 0h12a2 2 0 0 1 2 2v20a2 2 0 0 1-2 2H6a2 2 0 0 1-2-2V2a2 2 0 0 1 2-2m6 2a2 2 0 0 0-2 2 2 2 0 0 0 2 2 2 2 0 0 0 2-2 2 2 0 0 0-2-2m1 16H9v2h4v2l3-3-3-3v2Z" transform="matrix(1.5 0 0 1.5 252 180)" id="mdi-camera-rear-variant" fill="#fff"/><path d="M20 5h-3l-2-2H9L7 5H4a2 2 0 0 0-2 2v12a2 2 0 0 0 2 2h16a2 2 0 0 0 2-2V7a2 2 0 0 0-2-2m-8 13c-1.08 0-2.14-.35-3-1l1.44-1.44c.47.29 1.01.44 1.56.44a3 3 0 0 0 3-3 3 3 0 0 0-3-3c-1.26 0-2.4.8-2.82 2H11l-3 3-3-3h2.1A4.997 4.997 0 0 1 13 8.1a5 5 0 0 1-1 9.9Z" transform="matrix(1.5 0 0 1.5 288 180)" id="mdi-camera-retake" fill="#555"/><path d="M20 5h-3l-2-2H9L7 5H4a2 2 0 0 0-2 2v12a2 2 0 0 0 2 2h16a2 2 0 0 0 2-2V7a2 2 0 0 0-2-2m-8 13c-1.08 0-2.14-.35-3-1l1.44-1.44c.47.29 1.01.44 1.56.44a3 3 0 0 0 3-3 3 3 0 0 0-3-3c-1.26 0-2.4.8-2.82 2H11l-3 3-3-3h2.1A4.997 4.997 0 0 1 13 8.1a5 5 0 0 1-1 9.9Z" transform="matrix(1.5 0 0 1.5 324 180)" id="mdi-camera-retake" fill="#fff"/><path d="M20 5h-3.17L15 3H9L7.17 5H4a2 2 0 0 0-2 2v12a2 2 0 0 0 2 2h16a2 2 0 0 0 2-2V7a2 2 0 0 0-2-2m0 14H4V7h4.05l1.83-2h4.24L16 7h4v12m-8-1c-1.08 0-2.14-.35-3-1l1.44-1.44c.47.29 1.01.44 1.56.44a3 3 0 0 0 3-3 3 3 0 0 0-3-3c-1.26 0-2.4.8-2.82 2H11l-3 3-3-3h2.1A4.997 4.997 0 0 1 13 8.1a5 5 0 0 1-1 9.9Z" transform="matrix(1.5 0 0 1.5 360 180)" id="mdi-camera-retake-outline" fill="#555"/><path d="M20 5h-3.17L15 3H9L7.17 5H4a2 2 0 0 0-2 2v12a2 2 0 0 0 2 2h16a2 2 0 0 0 2-2V7a2 2 0 0 0-2-2m0 14H4V7h4.05l1.83-2h4.24L16 7h4v12m-8-1c-1.08 0-2.14-.35-3-1l1.44-1.44c.47.29 1.01.44 1.56.44a3 3 0 0 0 3-3 3 3 0 0 0-3-3c-1.26 0-2.4.8-2.82 2H11l-3 3-3-3h2.1A4.997 4.997 0 0 1 13 8.1a5 5 0 0 1-1 9.9Z" transform="matrix(1.5 0 0 1.5 396 180)" id="mdi-camera-retake-outline" fill="#fff"/><path d="M15 15.5V13H9v2.5L5.5 12 9 8.5V11h6V8.5l3.5 3.5M20 4h-3.17L15 2H9L7.17 4H4a2 2 0 0 0-2 2v12a2 2 0 0 0 2 2h16a2 2 0 0 0 2-2V6a2 2 0 0 0-2-2Z" transform="matrix(1.5 0 0 1.5 432 180)" id="mdi-camera-switch" fill="#555"/><path d="M15 15.5V13H9v2.5L5.5 12 9 8.5V11h6V8.5l3.5 3.5M20 4h-3.17L15 2H9L7.17 4H4a2 2 0 0 0-2 2v12a2 2 0 0 0 2 2h16a2 2 0 0 0 2-2V6a2 2 0 0 0-2-2Z" transform="matrix(1.5 0 0 1.5 468 180)" id="mdi-camera-switch" fill="#fff"/><path d="M20 4h-3.2L15 2H9L7.2 4H4c-1.1 0-2 .9-2 2v12c0 1.1.9 2 2 2h16c1.1 0 2-.9 2-2V6c0-1.1-.9-2-2-2M9.9 4h4.2l1.8 2H20v12H4V6h4.1m6.9 5H9V8.5L5.5 12 9 15.5V13h6v2.5l3.5-3.5L15 8.5V11Z" transform="matrix(1.5 0 0 1.5 504 180)" id="mdi-camera-switch-outline" fill="#555"/><path d="M20 4h-3.2L15 2H9L7.2 4H4c-1.1 0-2 .9-2 2v12c0 1.1.9 2 2 2h16c1.1 0 2-.9 2-2V6c0-1.1-.9-2-2-2M9.9 4h4.2l1.8 2H20v12H4V6h4.1m6.9 5H9V8.5L5.5 12 9 15.5V13h6v2.5l3.5-3.5L15 8.5V11Z" transform="matrix(1.5 0 0 1.5 540 180)" id="mdi-camera-switch-outline" fill="#fff"/><path d="M4.94 6.35c-.39-.39-.39-1.03 0-1.42a.996.996 0 0 1 1.41 0l6.72 5.38.35.28c.78.78.78 2.05 0 2.83-.78.78-2.05.78-2.83 0l-.28-.35-5.37-6.72M12 20a8 8 0 0 0 8-8c0-2.21-.9-4.21-2.34-5.66l1.41-1.41A9.969 9.969 0 0 1 22 12a10 10 0 0 1-10 10A10 10 0 0 1 2 12h2a8 8 0 0 0 8 8m0-19a2 2 0 0 1 2 2 2 2 0 0 1-2 2 2 2 0 0 1-2-2 2 2 0 0 1 2-2Z" transform="matrix(1.5 0 0 1.5 576 180)" id="mdi-camera-timer" fill="#555"/><path d="M4.94 6.35c-.39-.39-.39-1.03 0-1.42a.996.996 0 0 1 1.41 0l6.72 5.38.35.28c.78.78.78 2.05 0 2.83-.78.78-2.05.78-2.83 0l-.28-.35-5.37-6.72M12 20a8 8 0 0 0 8-8c0-2.21-.9-4.21-2.34-5.66l1.41-1.41A9.969 9.969 0 0 1 22 12a10 10 0 0 1-10 10A10 10 0 0 1 2 12h2a8 8 0 0 0 8 8m0-19a2 2 0 0 1 2 2 2 2 0 0 1-2 2 2 2 0 0 1-2-2 2 2 0 0 1 2-2Z" transform="matrix(1.5 0 0 1.5 612 180)" id="mdi-camera-timer" fill="#fff"/><path d="M12 10.8a3.2 3.2 0 0 1 3.2 3.2 3.2 3.2 0 0 1-3.2 3.2A3.2 3.2 0 0 1 8.8 14a3.2 3.2 0 0 1 3.2-3.2m4-7.47V2a6 6 0 0 1 6 6h-1.33c0-2.58-2.09-4.67-4.67-4.67M16 6V4.67c1.84 0 3.33 1.49 3.33 3.33H18c0-1.11-.89-2-2-2m1 3h5v11a2 2 0 0 1-2 2H4a2 2 0 0 1-2-2V8a2 2 0 0 1 2-2h3.17L9 4h6v3c1.11 0 2 .89 2 2m-5 10a5 5 0 0 0 5-5 5 5 0 0 0-5-5 5 5 0 0 0-5 5 5 5 0 0 0 5 5Z" transform="matrix(1.5 0 0 1.5 648 180)" id="mdi-camera-wireless" fill="#555"/><path d="M12 10.8a3.2 3.2 0 0 1 3.2 3.2 3.2 3.2 0 0 1-3.2 3.2A3.2 3.2 0 0 1 8.8 14a3.2 3.2 0 0 1 3.2-3.2m4-7.47V2a6 6 0 0 1 6 6h-1.33c0-2.58-2.09-4.67-4.67-4.67M16 6V4.67c1.84 0 3.33 1.49 3.33 3.33H18c0-1.11-.89-2-2-2m1 3h5v11a2 2 0 0 1-2 2H4a2 2 0 0 1-2-2V8a2 2 0 0 1 2-2h3.17L9 4h6v3c1.11 0 2 .89 2 2m-5 10a5 5 0 0 0 5-5 5 5 0 0 0-5-5 5 5 0 0 0-5 5 5 5 0 0 0 5 5Z" transform="matrix(1.5 0 0 1.5 684 180)" id="mdi-camera-wireless" fill="#fff"/><path d="M20 9v11H4V8h4.05l1.83-2H15V4H9L7.17 6H4a2 2 0 0 0-2 2v12a2 2 0 0 0 2 2h16a2 2 0 0 0 2-2V9h-2m.67-1H22c0-3.32-2.69-6-6-6v1.33c2.58 0 4.66 2.08 4.67 4.67M18 8h1.33A3.329 3.329 0 0 0 16 4.67V6c1.11 0 2 .89 2 2M7 14a5 5 0 0 0 5 5 5 5 0 0 0 5-5 5 5 0 0 0-5-5 5 5 0 0 0-5 5m8 0a3 3 0 0 1-3 3 3 3 0 0 1-3-3 3 3 0 0 1 3-3 3 3 0 0 1 3 3Z" transform="matrix(1.5 0 0 1.5 0 216)" id="mdi-camera-wireless-outline" fill="#555"/><path d="M20 9v11H4V8h4.05l1.83-2H15V4H9L7.17 6H4a2 2 0 0 0-2 2v12a2 2 0 0 0 2 2h16a2 2 0 0 0 2-2V9h-2m.67-1H22c0-3.32-2.69-6-6-6v1.33c2.58 0 4.66 2.08 4.67 4.67M18 8h1.33A3.329 3.329 0 0 0 16 4.67V6c1.11 0 2 .89 2 2M7 14a5 5 0 0 0 5 5 5 5 0 0 0 5-5 5 5 0 0 0-5-5 5 5 0 0 0-5 5m8 0a3 3 0 0 1-3 3 3 3 0 0 1-3-3 3 3 0 0 1 3-3 3 3 0 0 1 3 3Z" transform="matrix(1.5 0 0 1.5 36 216)" id="mdi-camera-wireless-outline" fill="#fff"/><path d="m15.9 18.5 6 1.6-.4 1.9-9.4-2.5L2.7 22l-.5-1.9 6-1.6-6.1-1.6.5-1.9 9.4 2.5 9.4-2.5.5 1.9-6 1.6m.17-10.58c-.16-.22-.36-.42-.57-.59-.45-.43-1-.74-1.44-1.2C13 5.08 12.79 3.34 13.44 2c-.65.17-1.26.54-1.77.95C9.84 4.46 9.11 7.1 10 9.38c0 .07.04.15.04.24 0 .16-.11.3-.25.38a.512.512 0 0 1-.57-.23c-.8-1.03-.93-2.51-.38-3.7-1.19.99-1.84 2.65-1.73 4.22.02.36.07.71.19 1.07.11.44.29.87.52 1.25.75 1.25 2.08 2.15 3.5 2.33 1.52.2 3.14-.09 4.31-1.15 1.3-1.2 1.77-3.12 1.08-4.79l-.1-.17c-.14-.33-.33-.63-.57-.9l.03-.01m-2.24 4.55c-.2.18-.52.36-.78.44-.79.28-1.59-.12-2.05-.6.84-.2 1.34-.84 1.5-1.48.11-.58-.11-1.05-.21-1.61-.08-.53-.07-.99.13-1.49.13.27.27.55.44.77.55.72 1.41 1.04 1.59 2 .02.13.05.22.05.33 0 .6-.24 1.24-.68 1.64" transform="matrix(1.5 0 0 1.5 72 216)" id="mdi-campfire" fill="#555"/><path d="m15.9 18.5 6 1.6-.4 1.9-9.4-2.5L2.7 22l-.5-1.9 6-1.6-6.1-1.6.5-1.9 9.4 2.5 9.4-2.5.5 1.9-6 1.6m.17-10.58c-.16-.22-.36-.42-.57-.59-.45-.43-1-.74-1.44-1.2C13 5.08 12.79 3.34 13.44 2c-.65.17-1.26.54-1.77.95C9.84 4.46 9.11 7.1 10 9.38c0 .07.04.15.04.24 0 .16-.11.3-.25.38a.512.512 0 0 1-.57-.23c-.8-1.03-.93-2.51-.38-3.7-1.19.99-1.84 2.65-1.73 4.22.02.36.07.71.19 1.07.11.44.29.87.52 1.25.75 1.25 2.08 2.15 3.5 2.33 1.52.2 3.14-.09 4.31-1.15 1.3-1.2 1.77-3.12 1.08-4.79l-.1-.17c-.14-.33-.33-.63-.57-.9l.03-.01m-2.24 4.55c-.2.18-.52.36-.78.44-.79.28-1.59-.12-2.05-.6.84-.2 1.34-.84 1.5-1.48.11-.58-.11-1.05-.21-1.61-.08-.53-.07-.99.13-1.49.13.27.27.55.44.77.55.72 1.41 1.04 1.59 2 .02.13.05.22.05.33 0 .6-.24 1.24-.68 1.64" transform="matrix(1.5 0 0 1.5 108 216)" id="mdi-campfire" fill="#fff"/><path d="M12 2c5.5 0 10 4.5 10 10s-4.5 10-10 10S2 17.5 2 12 6.5 2 12 2m0 2c-1.9 0-3.6.6-4.9 1.7l11.2 11.2c1-1.4 1.7-3.1 1.7-4.9 0-4.4-3.6-8-8-8m4.9 14.3L5.7 7.1C4.6 8.4 4 10.1 4 12c0 4.4 3.6 8 8 8 1.9 0 3.6-.6 4.9-1.7Z" transform="matrix(1.5 0 0 1.5 144 216)" id="mdi-cancel" fill="#555"/><path d="M12 2c5.5 0 10 4.5 10 10s-4.5 10-10 10S2 17.5 2 12 6.5 2 12 2m0 2c-1.9 0-3.6.6-4.9 1.7l11.2 11.2c1-1.4 1.7-3.1 1.7-4.9 0-4.4-3.6-8-8-8m4.9 14.3L5.7 7.1C4.6 8.4 4 10.1 4 12c0 4.4 3.6 8 8 8 1.9 0 3.6-.6 4.9-1.7Z" transform="matrix(1.5 0 0 1.5 180 216)" id="mdi-cancel" fill="#fff"/><path d="M20.5 11c0 .55-.45 1-1 1H19v2c0 1.11-.89 2-2 2h-4v4h1a2 2 0 0 1 2 2H8c0-1.1.9-2 2-2h1v-4H7a2 2 0 0 1-2-2v-2h-.5c-.55 0-1-.45-1-1s.45-1 1-1H5V4l2 1v5h.5c.55 0 1 .45 1 1s-.45 1-1 1H7v2h4v-2h-.5c-.55 0-1-.45-1-1s.45-1 1-1h.5V2l2 1v7h.5c.55 0 1 .45 1 1s-.45 1-1 1H13v2h4v-2h-.5c-.55 0-1-.45-1-1s.45-1 1-1h.5V4l2 1v5h.5c.55 0 1 .45 1 1Z" transform="matrix(1.5 0 0 1.5 216 216)" id="mdi-candelabra" fill="#555"/><path d="M20.5 11c0 .55-.45 1-1 1H19v2c0 1.11-.89 2-2 2h-4v4h1a2 2 0 0 1 2 2H8c0-1.1.9-2 2-2h1v-4H7a2 2 0 0 1-2-2v-2h-.5c-.55 0-1-.45-1-1s.45-1 1-1H5V4l2 1v5h.5c.55 0 1 .45 1 1s-.45 1-1 1H7v2h4v-2h-.5c-.55 0-1-.45-1-1s.45-1 1-1h.5V2l2 1v7h.5c.55 0 1 .45 1 1s-.45 1-1 1H13v2h4v-2h-.5c-.55 0-1-.45-1-1s.45-1 1-1h.5V4l2 1v5h.5c.55 0 1 .45 1 1Z" transform="matrix(1.5 0 0 1.5 252 216)" id="mdi-candelabra" fill="#fff"/><path d="M18 7c.83 0 1.5-.67 1.5-1.5S18.83 3 18 3s-1.5 1.67-1.5 2.5c0 .83.67 1.5 1.5 1.5m0-1.75c.28 0 .5.22.5.5s-.22.5-.5.5-.5-.22-.5-.5.22-.5.5-.5M12 6c.83 0 1.5-.67 1.5-1.5S12.83 2 12 2s-1.5 1.67-1.5 2.5c0 .83.67 1.5 1.5 1.5m0-1.75c.28 0 .5.22.5.5s-.22.5-.5.5-.5-.22-.5-.5.22-.5.5-.5M6 7c.83 0 1.5-.67 1.5-1.5S6.83 3 6 3 4.5 4.67 4.5 5.5C4.5 6.33 5.17 7 6 7m0-1.75c.28 0 .5.22.5.5s-.22.5-.5.5-.5-.22-.5-.5.22-.5.5-.5M20.5 11c0 .55-.45 1-1 1H19v2c0 1.11-.89 2-2 2h-4v4h1a2 2 0 0 1 2 2H8c0-1.1.9-2 2-2h1v-4H7a2 2 0 0 1-2-2v-2h-.5c-.55 0-1-.45-1-1s.45-1 1-1V9c0-.55.45-1 1-1h1c.55 0 1 .45 1 1v1c.55 0 1 .45 1 1s-.45 1-1 1H7v2h4v-2h-.5c-.55 0-1-.45-1-1s.45-1 1-1V8c0-.55.45-1 1-1h1c.55 0 1 .45 1 1v2c.55 0 1 .45 1 1s-.45 1-1 1H13v2h4v-2h-.5c-.55 0-1-.45-1-1s.45-1 1-1V9c0-.55.45-1 1-1h1c.55 0 1 .45 1 1v1c.55 0 1 .45 1 1Z" transform="matrix(1.5 0 0 1.5 288 216)" id="mdi-candelabra-fire" fill="#555"/><path d="M18 7c.83 0 1.5-.67 1.5-1.5S18.83 3 18 3s-1.5 1.67-1.5 2.5c0 .83.67 1.5 1.5 1.5m0-1.75c.28 0 .5.22.5.5s-.22.5-.5.5-.5-.22-.5-.5.22-.5.5-.5M12 6c.83 0 1.5-.67 1.5-1.5S12.83 2 12 2s-1.5 1.67-1.5 2.5c0 .83.67 1.5 1.5 1.5m0-1.75c.28 0 .5.22.5.5s-.22.5-.5.5-.5-.22-.5-.5.22-.5.5-.5M6 7c.83 0 1.5-.67 1.5-1.5S6.83 3 6 3 4.5 4.67 4.5 5.5C4.5 6.33 5.17 7 6 7m0-1.75c.28 0 .5.22.5.5s-.22.5-.5.5-.5-.22-.5-.5.22-.5.5-.5M20.5 11c0 .55-.45 1-1 1H19v2c0 1.11-.89 2-2 2h-4v4h1a2 2 0 0 1 2 2H8c0-1.1.9-2 2-2h1v-4H7a2 2 0 0 1-2-2v-2h-.5c-.55 0-1-.45-1-1s.45-1 1-1V9c0-.55.45-1 1-1h1c.55 0 1 .45 1 1v1c.55 0 1 .45 1 1s-.45 1-1 1H7v2h4v-2h-.5c-.55 0-1-.45-1-1s.45-1 1-1V8c0-.55.45-1 1-1h1c.55 0 1 .45 1 1v2c.55 0 1 .45 1 1s-.45 1-1 1H13v2h4v-2h-.5c-.55 0-1-.45-1-1s.45-1 1-1V9c0-.55.45-1 1-1h1c.55 0 1 .45 1 1v1c.55 0 1 .45 1 1Z" transform="matrix(1.5 0 0 1.5 324 216)" id="mdi-candelabra-fire" fill="#fff"/><path d="M12.5 2c-1.66 0-3 3.34-3 5a3 3 0 0 0 3 3 3 3 0 0 0 3-3c0-1.66-1.34-5-3-5m0 4.5a1 1 0 0 1 1 1 1 1 0 0 1-1 1 1 1 0 0 1-1-1 1 1 0 0 1 1-1M10 11a1 1 0 0 0-1 1v8H7a1 1 0 0 1-1-1v-1a1 1 0 0 0-1-1 1 1 0 0 0-1 1v1a3 3 0 0 0 3 3h12a1 1 0 0 0 1-1 1 1 0 0 0-1-1h-3v-8a1 1 0 0 0-1-1h-5Z" transform="matrix(1.5 0 0 1.5 360 216)" id="mdi-candle" fill="#555"/><path d="M12.5 2c-1.66 0-3 3.34-3 5a3 3 0 0 0 3 3 3 3 0 0 0 3-3c0-1.66-1.34-5-3-5m0 4.5a1 1 0 0 1 1 1 1 1 0 0 1-1 1 1 1 0 0 1-1-1 1 1 0 0 1 1-1M10 11a1 1 0 0 0-1 1v8H7a1 1 0 0 1-1-1v-1a1 1 0 0 0-1-1 1 1 0 0 0-1 1v1a3 3 0 0 0 3 3h12a1 1 0 0 0 1-1 1 1 0 0 0-1-1h-3v-8a1 1 0 0 0-1-1h-5Z" transform="matrix(1.5 0 0 1.5 396 216)" id="mdi-candle" fill="#fff"/><path d="M15.54 8.46c1.96 1.96 1.96 5.12 0 7.08s-5.12 1.96-7.07 0-1.97-5.12 0-7.08 5.11-1.96 7.07 0m3.93-3.91s-.97.12-2.04.81a5.243 5.243 0 0 0-1.5-2.94 4.027 4.027 0 0 0-1.1 3.92c1.39.36 2.47 1.44 2.83 2.83 1.12.3 2.68.15 3.92-1.1a5.247 5.247 0 0 0-2.9-1.49c.39-.58.7-1.25.79-2.03M4.53 19.45s.97-.12 2.04-.81c.15 1.04.65 2.09 1.5 2.94 1.25-1.24 1.4-2.8 1.1-3.92a3.939 3.939 0 0 1-2.83-2.83c-1.12-.3-2.68-.15-3.92 1.1.84.84 1.87 1.34 2.9 1.49-.39.58-.7 1.26-.79 2.03Z" transform="matrix(1.5 0 0 1.5 432 216)" id="mdi-candy" fill="#555"/><path d="M15.54 8.46c1.96 1.96 1.96 5.12 0 7.08s-5.12 1.96-7.07 0-1.97-5.12 0-7.08 5.11-1.96 7.07 0m3.93-3.91s-.97.12-2.04.81a5.243 5.243 0 0 0-1.5-2.94 4.027 4.027 0 0 0-1.1 3.92c1.39.36 2.47 1.44 2.83 2.83 1.12.3 2.68.15 3.92-1.1a5.247 5.247 0 0 0-2.9-1.49c.39-.58.7-1.25.79-2.03M4.53 19.45s.97-.12 2.04-.81c.15 1.04.65 2.09 1.5 2.94 1.25-1.24 1.4-2.8 1.1-3.92a3.939 3.939 0 0 1-2.83-2.83c-1.12-.3-2.68-.15-3.92 1.1.84.84 1.87 1.34 2.9 1.49-.39.58-.7 1.26-.79 2.03Z" transform="matrix(1.5 0 0 1.5 468 216)" id="mdi-candy" fill="#fff"/><path d="m20.8 22.7-6.4-6.4c-1.9 1.1-4.4.8-6-.8-1.6-1.6-1.9-4.1-.8-6L1.1 3l1.3-1.3 19.7 19.7-1.3 1.3M15.5 8.5c-1.4-1.4-3.3-1.8-5.1-1.2l6.3 6.3c.6-1.8.2-3.8-1.2-5.1m2.2.7c1.1.3 2.7.1 3.9-1.1-.8-.8-1.9-1.3-2.9-1.5.4-.6.7-1.3.8-2 0 0-1 .1-2 .8-.1-1-.6-2.1-1.5-2.9-1.2 1.2-1.4 2.8-1.1 3.9 1.3.3 2.4 1.4 2.8 2.8M6.3 14.8c-1.1-.3-2.7-.1-3.9 1.1.8.8 1.9 1.3 2.9 1.5-.4.6-.7 1.3-.8 2 0 0 1-.1 2-.8.1 1 .6 2.1 1.5 2.9 1.2-1.2 1.4-2.8 1.1-3.9-1.3-.3-2.4-1.4-2.8-2.8Z" transform="matrix(1.5 0 0 1.5 504 216)" id="mdi-candy-off" fill="#555"/><path d="m20.8 22.7-6.4-6.4c-1.9 1.1-4.4.8-6-.8-1.6-1.6-1.9-4.1-.8-6L1.1 3l1.3-1.3 19.7 19.7-1.3 1.3M15.5 8.5c-1.4-1.4-3.3-1.8-5.1-1.2l6.3 6.3c.6-1.8.2-3.8-1.2-5.1m2.2.7c1.1.3 2.7.1 3.9-1.1-.8-.8-1.9-1.3-2.9-1.5.4-.6.7-1.3.8-2 0 0-1 .1-2 .8-.1-1-.6-2.1-1.5-2.9-1.2 1.2-1.4 2.8-1.1 3.9 1.3.3 2.4 1.4 2.8 2.8M6.3 14.8c-1.1-.3-2.7-.1-3.9 1.1.8.8 1.9 1.3 2.9 1.5-.4.6-.7 1.3-.8 2 0 0 1-.1 2-.8.1 1 .6 2.1 1.5 2.9 1.2-1.2 1.4-2.8 1.1-3.9-1.3-.3-2.4-1.4-2.8-2.8Z" transform="matrix(1.5 0 0 1.5 540 216)" id="mdi-candy-off" fill="#fff"/><path d="M22.1 21.5 2.4 1.7 1.1 3l6.6 6.6c-1.1 1.9-.8 4.4.8 6s4.1 1.9 6 .8l6.4 6.4 1.2-1.3M9.9 14.1c-.8-.8-1.1-2-.7-3.1l3.8 3.8c-1.1.4-2.3.2-3.1-.7m4.9-7.8c-.3-1.1-.2-2.7 1.1-3.9.9.9 1.4 1.9 1.5 2.9 1.1-.7 2-.8 2-.8-.1.8-.4 1.5-.8 2 1 .2 2.1.7 2.9 1.5-1.2 1.2-2.8 1.4-3.9 1.1-.3-1.3-1.4-2.4-2.8-2.8M12.2 9l-1.8-1.8c1.7-.6 3.7-.2 5.1 1.2 1.4 1.4 1.8 3.3 1.2 5.1L15 11.8c-.1-.7-.3-1.4-.9-1.9s-1.2-.8-1.9-.9m-3 8.7c.3 1.1.2 2.7-1.1 3.9-.9-.9-1.4-1.9-1.5-2.9-1.1.7-2 .8-2 .8.1-.8.4-1.5.8-2-1-.2-2.1-.7-2.9-1.5 1.2-1.2 2.8-1.4 3.9-1.1.3 1.3 1.4 2.4 2.8 2.8Z" transform="matrix(1.5 0 0 1.5 576 216)" id="mdi-candy-off-outline" fill="#555"/><path d="M22.1 21.5 2.4 1.7 1.1 3l6.6 6.6c-1.1 1.9-.8 4.4.8 6s4.1 1.9 6 .8l6.4 6.4 1.2-1.3M9.9 14.1c-.8-.8-1.1-2-.7-3.1l3.8 3.8c-1.1.4-2.3.2-3.1-.7m4.9-7.8c-.3-1.1-.2-2.7 1.1-3.9.9.9 1.4 1.9 1.5 2.9 1.1-.7 2-.8 2-.8-.1.8-.4 1.5-.8 2 1 .2 2.1.7 2.9 1.5-1.2 1.2-2.8 1.4-3.9 1.1-.3-1.3-1.4-2.4-2.8-2.8M12.2 9l-1.8-1.8c1.7-.6 3.7-.2 5.1 1.2 1.4 1.4 1.8 3.3 1.2 5.1L15 11.8c-.1-.7-.3-1.4-.9-1.9s-1.2-.8-1.9-.9m-3 8.7c.3 1.1.2 2.7-1.1 3.9-.9-.9-1.4-1.9-1.5-2.9-1.1.7-2 .8-2 .8.1-.8.4-1.5.8-2-1-.2-2.1-.7-2.9-1.5 1.2-1.2 2.8-1.4 3.9-1.1.3 1.3 1.4 2.4 2.8 2.8Z" transform="matrix(1.5 0 0 1.5 612 216)" id="mdi-candy-off-outline" fill="#fff"/><path d="M9.88 9.88c1.17-1.17 3.07-1.17 4.24 0s1.17 3.07 0 4.24-3.07 1.17-4.24 0a3 3 0 0 1 0-4.24M8.46 8.46c-1.96 1.96-1.96 5.12 0 7.08s5.12 1.96 7.08 0 1.96-5.12 0-7.08-5.12-1.96-7.08 0m11.01-3.91s-.97.12-2.04.82c-.15-1.05-.65-2.1-1.5-2.95-1.25 1.25-1.4 2.8-1.1 3.92 1.39.36 2.47 1.44 2.83 2.83 1.12.3 2.68.15 3.92-1.1a5.247 5.247 0 0 0-2.9-1.49c.39-.58.7-1.25.79-2.03M4.53 19.45s.97-.12 2.04-.81c.15 1.04.65 2.09 1.5 2.94 1.25-1.24 1.4-2.8 1.1-3.92a3.955 3.955 0 0 1-2.83-2.83c-1.12-.3-2.67-.15-3.92 1.1.84.84 1.87 1.34 2.9 1.49-.39.58-.7 1.26-.79 2.03Z" transform="matrix(1.5 0 0 1.5 648 216)" id="mdi-candy-outline" fill="#555"/><path d="M9.88 9.88c1.17-1.17 3.07-1.17 4.24 0s1.17 3.07 0 4.24-3.07 1.17-4.24 0a3 3 0 0 1 0-4.24M8.46 8.46c-1.96 1.96-1.96 5.12 0 7.08s5.12 1.96 7.08 0 1.96-5.12 0-7.08-5.12-1.96-7.08 0m11.01-3.91s-.97.12-2.04.82c-.15-1.05-.65-2.1-1.5-2.95-1.25 1.25-1.4 2.8-1.1 3.92 1.39.36 2.47 1.44 2.83 2.83 1.12.3 2.68.15 3.92-1.1a5.247 5.247 0 0 0-2.9-1.49c.39-.58.7-1.25.79-2.03M4.53 19.45s.97-.12 2.04-.81c.15 1.04.65 2.09 1.5 2.94 1.25-1.24 1.4-2.8 1.1-3.92a3.955 3.955 0 0 1-2.83-2.83c-1.12-.3-2.67-.15-3.92 1.1.84.84 1.87 1.34 2.9 1.49-.39.58-.7 1.26-.79 2.03Z" transform="matrix(1.5 0 0 1.5 684 216)" id="mdi-candy-outline" fill="#fff"/><path d="M10 10a2 2 0 0 1-2 2 2 2 0 0 1-2-2V8c0-.63.1-1.23.27-1.8L10 9.93V10m2-8c.74 0 1.44.13 2.09.38L11.97 6c-.83 0-1.53.5-1.82 1.25L7.24 4.34A6.008 6.008 0 0 1 12 2m5.76 4.31L14 10.07V8c0-.38-.1-.73-.28-1.03l2.11-3.59a5.98 5.98 0 0 1 1.93 2.93m.24 6.78-4 4V12.9l4-4v4.19M18 20a2 2 0 0 1-2 2 2 2 0 0 1-2-2v-.09l4-4V20Z" transform="matrix(1.5 0 0 1.5 0 252)" id="mdi-candycane" fill="#555"/><path d="M10 10a2 2 0 0 1-2 2 2 2 0 0 1-2-2V8c0-.63.1-1.23.27-1.8L10 9.93V10m2-8c.74 0 1.44.13 2.09.38L11.97 6c-.83 0-1.53.5-1.82 1.25L7.24 4.34A6.008 6.008 0 0 1 12 2m5.76 4.31L14 10.07V8c0-.38-.1-.73-.28-1.03l2.11-3.59a5.98 5.98 0 0 1 1.93 2.93m.24 6.78-4 4V12.9l4-4v4.19M18 20a2 2 0 0 1-2 2 2 2 0 0 1-2-2v-.09l4-4V20Z" transform="matrix(1.5 0 0 1.5 36 252)" id="mdi-candycane" fill="#fff"/><path d="M11.5 22v-4.65c-.5.78-1.5 1.74-3.47 2.46 0 0 .5-1.71 1.91-2.86-1.3.28-3.26.24-5.94-.95 0 0 2.47-1.41 5.28-1.03C7.69 14 5.7 12.08 4.17 8.11c0 0 4.5 1.23 6.74 5.03C8.88 8.24 12 2 12 2c2.43 5.47 1.91 9.1 1.12 11.1 2.25-3.77 6.71-4.99 6.71-4.99-1.53 3.97-3.52 5.89-5.11 6.86C17.53 14.59 20 16 20 16c-2.68 1.19-4.64 1.23-5.94.95 1.41 1.15 1.91 2.86 1.91 2.86-1.97-.72-2.97-1.68-3.47-2.46V22h-1Z" transform="matrix(1.5 0 0 1.5 72 252)" id="mdi-cannabis" fill="#555"/><path d="M11.5 22v-4.65c-.5.78-1.5 1.74-3.47 2.46 0 0 .5-1.71 1.91-2.86-1.3.28-3.26.24-5.94-.95 0 0 2.47-1.41 5.28-1.03C7.69 14 5.7 12.08 4.17 8.11c0 0 4.5 1.23 6.74 5.03C8.88 8.24 12 2 12 2c2.43 5.47 1.91 9.1 1.12 11.1 2.25-3.77 6.71-4.99 6.71-4.99-1.53 3.97-3.52 5.89-5.11 6.86C17.53 14.59 20 16 20 16c-2.68 1.19-4.64 1.23-5.94.95 1.41 1.15 1.91 2.86 1.91 2.86-1.97-.72-2.97-1.68-3.47-2.46V22h-1Z" transform="matrix(1.5 0 0 1.5 108 252)" id="mdi-cannabis" fill="#fff"/><path d="m16.62 13.42-2.12-2.1c2.34-2.38 5.33-3.21 5.33-3.21-.96 2.49-2.1 4.16-3.21 5.31M12 2s-1.14 2.3-1.59 5.21l3.31 3.29c.2-2.05-.11-4.87-1.72-8.5m8.84 20.73 1.27-1.27L2.39 1.73 1.11 3l7.51 7.5C6.5 8.75 4.17 8.11 4.17 8.11 5.7 12.08 7.69 14 9.28 14.97 6.47 14.59 4 16 4 16c2.68 1.19 4.64 1.23 5.94.95-1.41 1.15-1.91 2.86-1.91 2.86 1.97-.72 2.97-1.68 3.47-2.46V22h1v-4.65c.5.78 1.5 1.74 3.47 2.46 0 0-.5-1.71-1.91-2.86.33.05.71.12 1.14.14l5.64 5.64Z" transform="matrix(1.5 0 0 1.5 144 252)" id="mdi-cannabis-off" fill="#555"/><path d="m16.62 13.42-2.12-2.1c2.34-2.38 5.33-3.21 5.33-3.21-.96 2.49-2.1 4.16-3.21 5.31M12 2s-1.14 2.3-1.59 5.21l3.31 3.29c.2-2.05-.11-4.87-1.72-8.5m8.84 20.73 1.27-1.27L2.39 1.73 1.11 3l7.51 7.5C6.5 8.75 4.17 8.11 4.17 8.11 5.7 12.08 7.69 14 9.28 14.97 6.47 14.59 4 16 4 16c2.68 1.19 4.64 1.23 5.94.95-1.41 1.15-1.91 2.86-1.91 2.86 1.97-.72 2.97-1.68 3.47-2.46V22h1v-4.65c.5.78 1.5 1.74 3.47 2.46 0 0-.5-1.71-1.91-2.86.33.05.71.12 1.14.14l5.64 5.64Z" transform="matrix(1.5 0 0 1.5 180 252)" id="mdi-cannabis-off" fill="#fff"/><path d="M9.96 13.71 12 8.29l2.03 5.43M11.14 6 6.43 18h1.93l.96-2.57h5.36l.96 2.57h1.93L12.86 6h-1.72M20 2H4c-1.11 0-2 .89-2 2v16a2 2 0 0 0 2 2h16c1.11 0 2-.89 2-2V4a2 2 0 0 0-2-2m0 18H4V4h16v16Z" transform="matrix(1.5 0 0 1.5 216 252)" id="mdi-caps-lock" fill="#555"/><path d="M9.96 13.71 12 8.29l2.03 5.43M11.14 6 6.43 18h1.93l.96-2.57h5.36l.96 2.57h1.93L12.86 6h-1.72M20 2H4c-1.11 0-2 .89-2 2v16a2 2 0 0 0 2 2h16c1.11 0 2-.89 2-2V4a2 2 0 0 0-2-2m0 18H4V4h16v16Z" transform="matrix(1.5 0 0 1.5 252 252)" id="mdi-caps-lock" fill="#fff"/><path d="m5 11 1.5-4.5h11L19 11m-1.5 5a1.5 1.5 0 0 1-1.5-1.5 1.5 1.5 0 0 1 1.5-1.5 1.5 1.5 0 0 1 1.5 1.5 1.5 1.5 0 0 1-1.5 1.5m-11 0A1.5 1.5 0 0 1 5 14.5 1.5 1.5 0 0 1 6.5 13 1.5 1.5 0 0 1 8 14.5 1.5 1.5 0 0 1 6.5 16M18.92 6c-.2-.58-.76-1-1.42-1h-11c-.66 0-1.22.42-1.42 1L3 12v8a1 1 0 0 0 1 1h1a1 1 0 0 0 1-1v-1h12v1a1 1 0 0 0 1 1h1a1 1 0 0 0 1-1v-8l-2.08-6Z" transform="matrix(1.5 0 0 1.5 288 252)" id="mdi-car" fill="#555"/><path d="m5 11 1.5-4.5h11L19 11m-1.5 5a1.5 1.5 0 0 1-1.5-1.5 1.5 1.5 0 0 1 1.5-1.5 1.5 1.5 0 0 1 1.5 1.5 1.5 1.5 0 0 1-1.5 1.5m-11 0A1.5 1.5 0 0 1 5 14.5 1.5 1.5 0 0 1 6.5 13 1.5 1.5 0 0 1 8 14.5 1.5 1.5 0 0 1 6.5 16M18.92 6c-.2-.58-.76-1-1.42-1h-11c-.66 0-1.22.42-1.42 1L3 12v8a1 1 0 0 0 1 1h1a1 1 0 0 0 1-1v-1h12v1a1 1 0 0 0 1 1h1a1 1 0 0 0 1-1v-8l-2.08-6Z" transform="matrix(1.5 0 0 1.5 324 252)" id="mdi-car" fill="#fff"/><path d="M8 16c0-2.4 1.1-4.5 2.7-6H3l1.5-4.5h11l.8 2.5c.6 0 1.2.1 1.7.3L16.9 5c-.2-.6-.8-1-1.4-1h-11c-.7 0-1.2.4-1.4 1L1 11v8c0 .5.5 1 1 1h1c.5 0 1-.5 1-1v-1h4.3c-.2-.6-.3-1.3-.3-2m-3.5-1c-.8 0-1.5-.7-1.5-1.5S3.7 12 4.5 12s1.5.7 1.5 1.5S5.3 15 4.5 15M16 20v-2h-3v-1h1c1.1 0 2-.9 2-2v-1c0-1.1-.9-2-2-2h-3v2h3v1h-1c-1.1 0-2 .9-2 2v3m12-3h-2v2h-2v-2h-2v-2h2v-2h2v2h2v2Z" transform="matrix(1.5 0 0 1.5 360 252)" id="mdi-car-2-plus" fill="#555"/><path d="M8 16c0-2.4 1.1-4.5 2.7-6H3l1.5-4.5h11l.8 2.5c.6 0 1.2.1 1.7.3L16.9 5c-.2-.6-.8-1-1.4-1h-11c-.7 0-1.2.4-1.4 1L1 11v8c0 .5.5 1 1 1h1c.5 0 1-.5 1-1v-1h4.3c-.2-.6-.3-1.3-.3-2m-3.5-1c-.8 0-1.5-.7-1.5-1.5S3.7 12 4.5 12s1.5.7 1.5 1.5S5.3 15 4.5 15M16 20v-2h-3v-1h1c1.1 0 2-.9 2-2v-1c0-1.1-.9-2-2-2h-3v2h3v1h-1c-1.1 0-2 .9-2 2v3m12-3h-2v2h-2v-2h-2v-2h2v-2h2v2h2v2Z" transform="matrix(1.5 0 0 1.5 396 252)" id="mdi-car-2-plus" fill="#fff"/><path d="M16.9 5c-.2-.6-.8-1-1.4-1h-11c-.7 0-1.2.4-1.4 1L1 11v8c0 .5.5 1 1 1h1c.5 0 1-.5 1-1v-1h4.3c-.2-.6-.3-1.3-.3-2 0-2.4 1.1-4.5 2.7-6H3l1.5-4.5h11l.8 2.5c.6 0 1.2.1 1.7.3L16.9 5M4.5 12c.8 0 1.5.7 1.5 1.5S5.3 15 4.5 15 3 14.3 3 13.5 3.7 12 4.5 12M23 17h-2v2h-2v-2h-2v-2h2v-2h2v2h2v2m-8.5-1c.8 0 1.5-1.2 1.5-2 0-1.1-.9-2-2-2h-3v2h3v1h-2v2h2v1h-3v2h3c1.1 0 2-.9 2-2 0-.8-.7-2-1.5-2Z" transform="matrix(1.5 0 0 1.5 432 252)" id="mdi-car-3-plus" fill="#555"/><path d="M16.9 5c-.2-.6-.8-1-1.4-1h-11c-.7 0-1.2.4-1.4 1L1 11v8c0 .5.5 1 1 1h1c.5 0 1-.5 1-1v-1h4.3c-.2-.6-.3-1.3-.3-2 0-2.4 1.1-4.5 2.7-6H3l1.5-4.5h11l.8 2.5c.6 0 1.2.1 1.7.3L16.9 5M4.5 12c.8 0 1.5.7 1.5 1.5S5.3 15 4.5 15 3 14.3 3 13.5 3.7 12 4.5 12M23 17h-2v2h-2v-2h-2v-2h2v-2h2v2h2v2m-8.5-1c.8 0 1.5-1.2 1.5-2 0-1.1-.9-2-2-2h-3v2h3v1h-2v2h2v1h-3v2h3c1.1 0 2-.9 2-2 0-.8-.7-2-1.5-2Z" transform="matrix(1.5 0 0 1.5 468 252)" id="mdi-car-3-plus" fill="#fff"/><path d="M12 18c0-3.31 2.69-6 6-6 1.09 0 2.12.3 3 .81V12l-2.08-6c-.2-.58-.76-1-1.42-1h-11c-.66 0-1.22.42-1.42 1L3 12v8c0 .55.45 1 1 1h1c.55 0 1-.45 1-1v-1h6.09c-.05-.33-.09-.66-.09-1M6.5 6.5h11L19 11H5l1.5-4.5m0 9.5c-.83 0-1.5-.67-1.5-1.5S5.67 13 6.5 13s1.5.67 1.5 1.5S7.33 16 6.5 16M18 15v2h4v2h-4v2l-3-3 3-3" transform="matrix(1.5 0 0 1.5 504 252)" id="mdi-car-arrow-left" fill="#555"/><path d="M12 18c0-3.31 2.69-6 6-6 1.09 0 2.12.3 3 .81V12l-2.08-6c-.2-.58-.76-1-1.42-1h-11c-.66 0-1.22.42-1.42 1L3 12v8c0 .55.45 1 1 1h1c.55 0 1-.45 1-1v-1h6.09c-.05-.33-.09-.66-.09-1M6.5 6.5h11L19 11H5l1.5-4.5m0 9.5c-.83 0-1.5-.67-1.5-1.5S5.67 13 6.5 13s1.5.67 1.5 1.5S7.33 16 6.5 16M18 15v2h4v2h-4v2l-3-3 3-3" transform="matrix(1.5 0 0 1.5 540 252)" id="mdi-car-arrow-left" fill="#fff"/><path d="M12 18c0-3.31 2.69-6 6-6 1.09 0 2.12.3 3 .81V12l-2.08-6c-.2-.58-.76-1-1.42-1h-11c-.66 0-1.22.42-1.42 1L3 12v8c0 .55.45 1 1 1h1c.55 0 1-.45 1-1v-1h6.09c-.05-.33-.09-.66-.09-1M6.5 6.5h11L19 11H5l1.5-4.5m0 9.5c-.83 0-1.5-.67-1.5-1.5S5.67 13 6.5 13s1.5.67 1.5 1.5S7.33 16 6.5 16M19 21v-2h-4v-2h4v-2l3 3-3 3" transform="matrix(1.5 0 0 1.5 576 252)" id="mdi-car-arrow-right" fill="#555"/><path d="M12 18c0-3.31 2.69-6 6-6 1.09 0 2.12.3 3 .81V12l-2.08-6c-.2-.58-.76-1-1.42-1h-11c-.66 0-1.22.42-1.42 1L3 12v8c0 .55.45 1 1 1h1c.55 0 1-.45 1-1v-1h6.09c-.05-.33-.09-.66-.09-1M6.5 6.5h11L19 11H5l1.5-4.5m0 9.5c-.83 0-1.5-.67-1.5-1.5S5.67 13 6.5 13s1.5.67 1.5 1.5S7.33 16 6.5 16M19 21v-2h-4v-2h4v-2l3 3-3 3" transform="matrix(1.5 0 0 1.5 612 252)" id="mdi-car-arrow-right" fill="#fff"/><path d="m6 11 1-4h10l1 4m.92-5c-.21-.6-.78-1-1.42-1h-11c-.64 0-1.21.4-1.42 1L3 12v8a1 1 0 0 0 1 1h1a1 1 0 0 0 1-1v-2h12v2a1 1 0 0 0 1 1h1a1 1 0 0 0 1-1v-8l-2.08-6M7 16H5v-2h2v2m12 0h-2v-2h2v2m-5 0h-4v-2h4v2Z" transform="matrix(1.5 0 0 1.5 648 252)" id="mdi-car-back" fill="#555"/><path d="m6 11 1-4h10l1 4m.92-5c-.21-.6-.78-1-1.42-1h-11c-.64 0-1.21.4-1.42 1L3 12v8a1 1 0 0 0 1 1h1a1 1 0 0 0 1-1v-2h12v2a1 1 0 0 0 1 1h1a1 1 0 0 0 1-1v-8l-2.08-6M7 16H5v-2h2v2m12 0h-2v-2h2v2m-5 0h-4v-2h4v2Z" transform="matrix(1.5 0 0 1.5 684 252)" id="mdi-car-back" fill="#fff"/><path d="M4 3v3H1v14h22V6h-3V3h-6v3h-4V3H4M3 8h18v10H3V8m12 2v2h-2v2h2v2h2v-2h2v-2h-2v-2h-2M5 12v2h6v-2H5Z" transform="matrix(1.5 0 0 1.5 0 288)" id="mdi-car-battery" fill="#555"/><path d="M4 3v3H1v14h22V6h-3V3h-6v3h-4V3H4M3 8h18v10H3V8m12 2v2h-2v2h2v2h2v-2h2v-2h-2v-2h-2M5 12v2h6v-2H5Z" transform="matrix(1.5 0 0 1.5 36 288)" id="mdi-car-battery" fill="#fff"/><path d="M24 12c0 3.31-1.34 6.31-3.5 8.5l-1.08-1.08c1.9-1.92 3.08-4.52 3.08-7.42 0-2.89-1.18-5.5-3.08-7.42L20.5 3.5C22.66 5.69 24 8.69 24 12m-4-2.4V8h-3.2c-.88 0-1.6.72-1.6 1.6v1.6a1.6 1.6 0 0 0 1.6 1.6h1.6v1.6h-3.2V16h3.2c.88 0 1.6-.72 1.6-1.6v-1.6a1.6 1.6 0 0 0-1.6-1.6h-1.6V9.6H20M8.42 6c1.05-.63 2.27-1 3.58-1s2.53.37 3.58 1h3.11C17.05 4.16 14.66 3 12 3S6.95 4.16 5.31 6h3.11m4.78 6c.64 0 1.2.56 1.2 1.2v1.2a1.6 1.6 0 0 1-1.6 1.6H9.6V8h3.2a1.6 1.6 0 0 1 1.6 1.6v1.2c0 .64-.56 1.2-1.2 1.2m-.4.8h-1.6v1.6h1.6v-1.6m0-3.2h-1.6v1.6h1.6V9.6M4.58 4.58 3.5 3.5C1.34 5.69 0 8.69 0 12c0 3.31 1.34 6.31 3.5 8.5l1.08-1.08C2.68 17.5 1.5 14.9 1.5 12c0-2.89 1.18-5.5 3.08-7.42M7.2 16v-3.2H5.6V16H4V9.6A1.6 1.6 0 0 1 5.6 8h1.6c.88 0 1.6.72 1.6 1.6V16H7.2m0-4.8V9.6H5.6v1.6h1.6m8.38 6.8c-1.05.63-2.27 1-3.58 1a6.93 6.93 0 0 1-3.58-1H5.31c1.64 1.84 4.03 3 6.69 3s5.05-1.16 6.69-3h-3.11Z" transform="matrix(1.5 0 0 1.5 72 288)" id="mdi-car-brake-abs" fill="#555"/><path d="M24 12c0 3.31-1.34 6.31-3.5 8.5l-1.08-1.08c1.9-1.92 3.08-4.52 3.08-7.42 0-2.89-1.18-5.5-3.08-7.42L20.5 3.5C22.66 5.69 24 8.69 24 12m-4-2.4V8h-3.2c-.88 0-1.6.72-1.6 1.6v1.6a1.6 1.6 0 0 0 1.6 1.6h1.6v1.6h-3.2V16h3.2c.88 0 1.6-.72 1.6-1.6v-1.6a1.6 1.6 0 0 0-1.6-1.6h-1.6V9.6H20M8.42 6c1.05-.63 2.27-1 3.58-1s2.53.37 3.58 1h3.11C17.05 4.16 14.66 3 12 3S6.95 4.16 5.31 6h3.11m4.78 6c.64 0 1.2.56 1.2 1.2v1.2a1.6 1.6 0 0 1-1.6 1.6H9.6V8h3.2a1.6 1.6 0 0 1 1.6 1.6v1.2c0 .64-.56 1.2-1.2 1.2m-.4.8h-1.6v1.6h1.6v-1.6m0-3.2h-1.6v1.6h1.6V9.6M4.58 4.58 3.5 3.5C1.34 5.69 0 8.69 0 12c0 3.31 1.34 6.31 3.5 8.5l1.08-1.08C2.68 17.5 1.5 14.9 1.5 12c0-2.89 1.18-5.5 3.08-7.42M7.2 16v-3.2H5.6V16H4V9.6A1.6 1.6 0 0 1 5.6 8h1.6c.88 0 1.6.72 1.6 1.6V16H7.2m0-4.8V9.6H5.6v1.6h1.6m8.38 6.8c-1.05.63-2.27 1-3.58 1a6.93 6.93 0 0 1-3.58-1H5.31c1.64 1.84 4.03 3 6.69 3s5.05-1.16 6.69-3h-3.11Z" transform="matrix(1.5 0 0 1.5 108 288)" id="mdi-car-brake-abs" fill="#fff"/><path d="M11 15h2v2h-2v-2m0-8h2v6h-2V7m1-4a9 9 0 0 0-9 9 9 9 0 0 0 9 9 9 9 0 0 0 9-9 9 9 0 0 0-9-9m0 16c-3.86 0-7-3.14-7-7s3.14-7 7-7 7 3.14 7 7-3.14 7-7 7m8.5 1.5c2.16-2.19 3.5-5.19 3.5-8.5 0-3.31-1.34-6.31-3.5-8.5l-1.08 1.08C21.32 6.5 22.5 9.11 22.5 12c0 2.9-1.18 5.5-3.08 7.42l1.08 1.08M4.58 19.42C2.68 17.5 1.5 14.9 1.5 12c0-2.89 1.18-5.5 3.08-7.42L3.5 3.5C1.34 5.69 0 8.69 0 12c0 3.31 1.34 6.31 3.5 8.5l1.08-1.08Z" transform="matrix(1.5 0 0 1.5 144 288)" id="mdi-car-brake-alert" fill="#555"/><path d="M11 15h2v2h-2v-2m0-8h2v6h-2V7m1-4a9 9 0 0 0-9 9 9 9 0 0 0 9 9 9 9 0 0 0 9-9 9 9 0 0 0-9-9m0 16c-3.86 0-7-3.14-7-7s3.14-7 7-7 7 3.14 7 7-3.14 7-7 7m8.5 1.5c2.16-2.19 3.5-5.19 3.5-8.5 0-3.31-1.34-6.31-3.5-8.5l-1.08 1.08C21.32 6.5 22.5 9.11 22.5 12c0 2.9-1.18 5.5-3.08 7.42l1.08 1.08M4.58 19.42C2.68 17.5 1.5 14.9 1.5 12c0-2.89 1.18-5.5 3.08-7.42L3.5 3.5C1.34 5.69 0 8.69 0 12c0 3.31 1.34 6.31 3.5 8.5l1.08-1.08Z" transform="matrix(1.5 0 0 1.5 180 288)" id="mdi-car-brake-alert" fill="#fff"/><path d="M1.5 12c0 2.9 1.18 5.5 3.08 7.42L3.5 20.5C1.34 18.31 0 15.31 0 12s1.34-6.31 3.5-8.5l1.08 1.08C2.68 6.5 1.5 9.11 1.5 12M21 12a9 9 0 1 1-18.001-.001A9 9 0 0 1 21 12M5 12c0 .44.05.86.12 1.28.18-.19.34-.28.66-.28.52 0 .61.21 1 .71S7.85 15 8.89 15c1.03 0 1.72-.79 2.11-1.29.26-.34.39-.53.61-.63.1-.05.22-.08.39-.08.5 0 .61.21 1 .71S14.08 15 15.11 15c1.04 0 1.72-.79 2.11-1.29.39-.5.48-.71 1-.71.32 0 .48.09.66.28.07-.42.12-.84.12-1.28 0-3.86-3.14-7-7-7s-7 3.14-7 7m15.5-8.5-1.08 1.08C21.32 6.5 22.5 9.11 22.5 12c0 2.9-1.18 5.5-3.08 7.42l1.08 1.08c2.16-2.19 3.5-5.19 3.5-8.5s-1.34-6.31-3.5-8.5Z" transform="matrix(1.5 0 0 1.5 216 288)" id="mdi-car-brake-fluid-level" fill="#555"/><path d="M1.5 12c0 2.9 1.18 5.5 3.08 7.42L3.5 20.5C1.34 18.31 0 15.31 0 12s1.34-6.31 3.5-8.5l1.08 1.08C2.68 6.5 1.5 9.11 1.5 12M21 12a9 9 0 1 1-18.001-.001A9 9 0 0 1 21 12M5 12c0 .44.05.86.12 1.28.18-.19.34-.28.66-.28.52 0 .61.21 1 .71S7.85 15 8.89 15c1.03 0 1.72-.79 2.11-1.29.26-.34.39-.53.61-.63.1-.05.22-.08.39-.08.5 0 .61.21 1 .71S14.08 15 15.11 15c1.04 0 1.72-.79 2.11-1.29.39-.5.48-.71 1-.71.32 0 .48.09.66.28.07-.42.12-.84.12-1.28 0-3.86-3.14-7-7-7s-7 3.14-7 7m15.5-8.5-1.08 1.08C21.32 6.5 22.5 9.11 22.5 12c0 2.9-1.18 5.5-3.08 7.42l1.08 1.08c2.16-2.19 3.5-5.19 3.5-8.5s-1.34-6.31-3.5-8.5Z" transform="matrix(1.5 0 0 1.5 252 288)" id="mdi-car-brake-fluid-level" fill="#fff"/><path d="M12 3c-5 0-9 4-9 9s4 9 9 9 9-4 9-9-4-9-9-9m0 16c-3.9 0-7-3.1-7-7s3.1-7 7-7 7 3.1 7 7-3.1 7-7 7m8.5 1.5c2.2-2.2 3.5-5.2 3.5-8.5s-1.3-6.3-3.5-8.5l-1.1 1.1c1.9 1.9 3.1 4.5 3.1 7.4 0 2.9-1.2 5.5-3.1 7.4l1.1 1.1M4.6 19.4c-1.9-1.9-3.1-4.5-3.1-7.4 0-2.9 1.2-5.5 3.1-7.4L3.5 3.5C1.3 5.7 0 8.7 0 12s1.3 6.3 3.5 8.5l1.1-1.1M9 7v10h2v-4h2v4h2V7h-2v4h-2V7H9Z" transform="matrix(1.5 0 0 1.5 288 288)" id="mdi-car-brake-hold" fill="#555"/><path d="M12 3c-5 0-9 4-9 9s4 9 9 9 9-4 9-9-4-9-9-9m0 16c-3.9 0-7-3.1-7-7s3.1-7 7-7 7 3.1 7 7-3.1 7-7 7m8.5 1.5c2.2-2.2 3.5-5.2 3.5-8.5s-1.3-6.3-3.5-8.5l-1.1 1.1c1.9 1.9 3.1 4.5 3.1 7.4 0 2.9-1.2 5.5-3.1 7.4l1.1 1.1M4.6 19.4c-1.9-1.9-3.1-4.5-3.1-7.4 0-2.9 1.2-5.5 3.1-7.4L3.5 3.5C1.3 5.7 0 8.7 0 12s1.3 6.3 3.5 8.5l1.1-1.1M9 7v10h2v-4h2v4h2V7h-2v4h-2V7H9Z" transform="matrix(1.5 0 0 1.5 324 288)" id="mdi-car-brake-hold" fill="#fff"/><path d="M13 12c0 .55-.45 1-1 1s-1-.45-1-1 .45-1 1-1 1 .45 1 1m-3 0L7 9v2H3v2h4v2l3-3m4 0 3 3v-2h4v-2h-4V9l-3 3m6.5-8.5-1.08 1.08C21.32 6.5 22.5 9.11 22.5 12c0 2.9-1.18 5.5-3.08 7.42l1.08 1.08c2.16-2.19 3.5-5.19 3.5-8.5s-1.34-6.31-3.5-8.5M5.69 9C6.81 6.64 9.22 5 12 5s5.19 1.64 6.32 4h2.18c-1.26-3.5-4.58-6-8.5-6S4.76 5.5 3.5 9h2.19M4.58 4.58 3.5 3.5C1.34 5.69 0 8.69 0 12s1.34 6.31 3.5 8.5l1.08-1.08C2.68 17.5 1.5 14.9 1.5 12c0-2.89 1.18-5.5 3.08-7.42M18.32 15c-1.13 2.36-3.53 4-6.32 4s-5.19-1.64-6.31-4H3.5c1.26 3.5 4.58 6 8.5 6s7.24-2.5 8.5-6h-2.18Z" transform="matrix(1.5 0 0 1.5 360 288)" id="mdi-car-brake-low-pressure" fill="#555"/><path d="M13 12c0 .55-.45 1-1 1s-1-.45-1-1 .45-1 1-1 1 .45 1 1m-3 0L7 9v2H3v2h4v2l3-3m4 0 3 3v-2h4v-2h-4V9l-3 3m6.5-8.5-1.08 1.08C21.32 6.5 22.5 9.11 22.5 12c0 2.9-1.18 5.5-3.08 7.42l1.08 1.08c2.16-2.19 3.5-5.19 3.5-8.5s-1.34-6.31-3.5-8.5M5.69 9C6.81 6.64 9.22 5 12 5s5.19 1.64 6.32 4h2.18c-1.26-3.5-4.58-6-8.5-6S4.76 5.5 3.5 9h2.19M4.58 4.58 3.5 3.5C1.34 5.69 0 8.69 0 12s1.34 6.31 3.5 8.5l1.08-1.08C2.68 17.5 1.5 14.9 1.5 12c0-2.89 1.18-5.5 3.08-7.42M18.32 15c-1.13 2.36-3.53 4-6.32 4s-5.19-1.64-6.31-4H3.5c1.26 3.5 4.58 6 8.5 6s7.24-2.5 8.5-6h-2.18Z" transform="matrix(1.5 0 0 1.5 396 288)" id="mdi-car-brake-low-pressure" fill="#fff"/><path d="M12 3c-5 0-9 4-9 9s4 9 9 9 9-4 9-9-4-9-9-9m0 16c-3.9 0-7-3.1-7-7s3.1-7 7-7 7 3.1 7 7-3.1 7-7 7m8.5 1.5c2.2-2.2 3.5-5.2 3.5-8.5s-1.3-6.3-3.5-8.5l-1.1 1.1c1.9 1.9 3.1 4.5 3.1 7.4 0 2.9-1.2 5.5-3.1 7.4l1.1 1.1M4.6 19.4c-1.9-1.9-3.1-4.5-3.1-7.4 0-2.9 1.2-5.5 3.1-7.4L3.5 3.5C1.3 5.7 0 8.7 0 12s1.3 6.3 3.5 8.5l1.1-1.1M9.5 7v10h2v-4h2a2 2 0 0 0 2-2V9a2 2 0 0 0-2-2h-4m2 2h2v2h-2V9Z" transform="matrix(1.5 0 0 1.5 432 288)" id="mdi-car-brake-parking" fill="#555"/><path d="M12 3c-5 0-9 4-9 9s4 9 9 9 9-4 9-9-4-9-9-9m0 16c-3.9 0-7-3.1-7-7s3.1-7 7-7 7 3.1 7 7-3.1 7-7 7m8.5 1.5c2.2-2.2 3.5-5.2 3.5-8.5s-1.3-6.3-3.5-8.5l-1.1 1.1c1.9 1.9 3.1 4.5 3.1 7.4 0 2.9-1.2 5.5-3.1 7.4l1.1 1.1M4.6 19.4c-1.9-1.9-3.1-4.5-3.1-7.4 0-2.9 1.2-5.5 3.1-7.4L3.5 3.5C1.3 5.7 0 8.7 0 12s1.3 6.3 3.5 8.5l1.1-1.1M9.5 7v10h2v-4h2a2 2 0 0 0 2-2V9a2 2 0 0 0-2-2h-4m2 2h2v2h-2V9Z" transform="matrix(1.5 0 0 1.5 468 288)" id="mdi-car-brake-parking" fill="#fff"/><path d="M12 3c-5 0-9 4-9 9s4 9 9 9 9-4 9-9-4-9-9-9m0 16c-3.9 0-7-3.1-7-7s3.1-7 7-7 7 3.1 7 7-3.1 7-7 7m8.5 1.5c2.2-2.2 3.5-5.2 3.5-8.5s-1.3-6.3-3.5-8.5l-1.1 1.1c1.9 1.9 3.1 4.5 3.1 7.4s-1.2 5.5-3.1 7.4l1.1 1.1M4.6 19.4c-1.9-1.9-3.1-4.5-3.1-7.4s1.2-5.5 3.1-7.4L3.5 3.5C1.3 5.7 0 8.7 0 12s1.3 6.3 3.5 8.5l1.1-1.1m10.7-8.9c.66 0 1.2.67 1.2 1.5 0 .81-.55 1.5-1.2 1.5-.37 0-.64-.21-.8-.39l-.03-.03-.03-.03L13.38 12l1.09-1.08.03-.03.03-.03c.21-.23.47-.36.77-.36m-6.6 0c.37 0 .64.21.8.38v.04l.06.03L10.62 12l-1.09 1.08-.03.03-.03.04c-.21.22-.47.35-.77.35-.65 0-1.2-.69-1.2-1.5s.55-1.5 1.2-1.5M15.3 9c-.72 0-1.4.31-1.88.85L12 11.25l-1.39-1.37C10.1 9.31 9.42 9 8.7 9 7.21 9 6 10.35 6 12s1.21 3 2.7 3c.72 0 1.4-.31 1.89-.85l1.41-1.4 1.39 1.37c.51.56 1.19.88 1.91.88 1.49 0 2.7-1.35 2.7-3 0-1.67-1.21-3-2.7-3Z" transform="matrix(1.5 0 0 1.5 504 288)" id="mdi-car-brake-retarder" fill="#555"/><path d="M12 3c-5 0-9 4-9 9s4 9 9 9 9-4 9-9-4-9-9-9m0 16c-3.9 0-7-3.1-7-7s3.1-7 7-7 7 3.1 7 7-3.1 7-7 7m8.5 1.5c2.2-2.2 3.5-5.2 3.5-8.5s-1.3-6.3-3.5-8.5l-1.1 1.1c1.9 1.9 3.1 4.5 3.1 7.4s-1.2 5.5-3.1 7.4l1.1 1.1M4.6 19.4c-1.9-1.9-3.1-4.5-3.1-7.4s1.2-5.5 3.1-7.4L3.5 3.5C1.3 5.7 0 8.7 0 12s1.3 6.3 3.5 8.5l1.1-1.1m10.7-8.9c.66 0 1.2.67 1.2 1.5 0 .81-.55 1.5-1.2 1.5-.37 0-.64-.21-.8-.39l-.03-.03-.03-.03L13.38 12l1.09-1.08.03-.03.03-.03c.21-.23.47-.36.77-.36m-6.6 0c.37 0 .64.21.8.38v.04l.06.03L10.62 12l-1.09 1.08-.03.03-.03.04c-.21.22-.47.35-.77.35-.65 0-1.2-.69-1.2-1.5s.55-1.5 1.2-1.5M15.3 9c-.72 0-1.4.31-1.88.85L12 11.25l-1.39-1.37C10.1 9.31 9.42 9 8.7 9 7.21 9 6 10.35 6 12s1.21 3 2.7 3c.72 0 1.4-.31 1.89-.85l1.41-1.4 1.39 1.37c.51.56 1.19.88 1.91.88 1.49 0 2.7-1.35 2.7-3 0-1.67-1.21-3-2.7-3Z" transform="matrix(1.5 0 0 1.5 540 288)" id="mdi-car-brake-retarder" fill="#fff"/><path d="M12 10h3V8h-3V7c0-.6-.4-1-1-1s-1 .4-1 1v10.3c-.6.3-1 1-1 1.7 0 1.1.9 2 2 2s2-.9 2-2c0-.7-.4-1.4-1-1.7V14h3v-2h-3v-2m12 2c0 3.31-1.34 6.31-3.5 8.5l-1.08-1.08c1.9-1.92 3.08-4.52 3.08-7.42 0-2.89-1.18-5.5-3.08-7.42L20.5 3.5C22.66 5.69 24 8.69 24 12M1.5 12c0 2.9 1.18 5.5 3.08 7.42L3.5 20.5C1.34 18.31 0 15.31 0 12s1.34-6.31 3.5-8.5l1.08 1.08C2.68 6.5 1.5 9.11 1.5 12M21 12c0 3.53-2.04 6.58-5 8.05v-2.31A7.01 7.01 0 0 0 19 12c0-3.86-3.14-7-7-7s-7 3.14-7 7a7.01 7.01 0 0 0 3 5.74v2.31C5.04 18.58 3 15.53 3 12a9 9 0 0 1 18 0Z" transform="matrix(1.5 0 0 1.5 576 288)" id="mdi-car-brake-temperature" fill="#555"/><path d="M12 10h3V8h-3V7c0-.6-.4-1-1-1s-1 .4-1 1v10.3c-.6.3-1 1-1 1.7 0 1.1.9 2 2 2s2-.9 2-2c0-.7-.4-1.4-1-1.7V14h3v-2h-3v-2m12 2c0 3.31-1.34 6.31-3.5 8.5l-1.08-1.08c1.9-1.92 3.08-4.52 3.08-7.42 0-2.89-1.18-5.5-3.08-7.42L20.5 3.5C22.66 5.69 24 8.69 24 12M1.5 12c0 2.9 1.18 5.5 3.08 7.42L3.5 20.5C1.34 18.31 0 15.31 0 12s1.34-6.31 3.5-8.5l1.08 1.08C2.68 6.5 1.5 9.11 1.5 12M21 12c0 3.53-2.04 6.58-5 8.05v-2.31A7.01 7.01 0 0 0 19 12c0-3.86-3.14-7-7-7s-7 3.14-7 7a7.01 7.01 0 0 0 3 5.74v2.31C5.04 18.58 3 15.53 3 12a9 9 0 0 1 18 0Z" transform="matrix(1.5 0 0 1.5 612 288)" id="mdi-car-brake-temperature" fill="#fff"/><path d="M12 5c3.86 0 7 3.14 7 7s-3.14 7-7 7-7-3.14-7-7 3.14-7 7-7m0-2a9 9 0 1 0 .001 18.001A9 9 0 0 0 12 3M4.58 4.58 3.5 3.5A12.318 12.318 0 0 0 .861 7.55L2.3 8a10.73 10.73 0 0 1 2.28-3.42M1.71 14.1c-.14-.68-.21-1.38-.21-2.1 0-.72.07-1.42.21-2.1L.275 9.46C.098 10.28 0 11.13 0 12s.098 1.72.275 2.54l1.435-.44m21.43-6.55c-.61-1.52-1.51-2.9-2.64-4.05l-1.08 1.08c.97.98 1.74 2.13 2.28 3.42l1.44-.45M.861 16.45C1.47 18 2.37 19.35 3.5 20.5l1.08-1.08A10.73 10.73 0 0 1 2.3 16l-1.439.45m18.559 2.97 1.08 1.08c1.13-1.15 2.03-2.5 2.64-4.05L21.7 16a10.73 10.73 0 0 1-2.28 3.42m2.87-9.52c.14.68.21 1.38.21 2.1 0 .72-.07 1.42-.21 2.1l1.44.44c.17-.82.27-1.67.27-2.54s-.1-1.72-.27-2.54l-1.44.44Z" transform="matrix(1.5 0 0 1.5 648 288)" id="mdi-car-brake-worn-linings" fill="#555"/><path d="M12 5c3.86 0 7 3.14 7 7s-3.14 7-7 7-7-3.14-7-7 3.14-7 7-7m0-2a9 9 0 1 0 .001 18.001A9 9 0 0 0 12 3M4.58 4.58 3.5 3.5A12.318 12.318 0 0 0 .861 7.55L2.3 8a10.73 10.73 0 0 1 2.28-3.42M1.71 14.1c-.14-.68-.21-1.38-.21-2.1 0-.72.07-1.42.21-2.1L.275 9.46C.098 10.28 0 11.13 0 12s.098 1.72.275 2.54l1.435-.44m21.43-6.55c-.61-1.52-1.51-2.9-2.64-4.05l-1.08 1.08c.97.98 1.74 2.13 2.28 3.42l1.44-.45M.861 16.45C1.47 18 2.37 19.35 3.5 20.5l1.08-1.08A10.73 10.73 0 0 1 2.3 16l-1.439.45m18.559 2.97 1.08 1.08c1.13-1.15 2.03-2.5 2.64-4.05L21.7 16a10.73 10.73 0 0 1-2.28 3.42m2.87-9.52c.14.68.21 1.38.21 2.1 0 .72-.07 1.42-.21 2.1l1.44.44c.17-.82.27-1.67.27-2.54s-.1-1.72-.27-2.54l-1.44.44Z" transform="matrix(1.5 0 0 1.5 684 288)" id="mdi-car-brake-worn-linings" fill="#fff"/><path d="M17 4.5C17 5.9 15.9 7 14.5 7S12 5.9 12 4.5 13.1 2 14.5 2 17 3.1 17 4.5M15 8h-.8c-2.1 0-4.1-1.2-5.1-3.1-.1-.1-.2-.2-.2-.3l-1.8.8c.5 1.4 2.1 3.2 4.4 4.1l-1.8 5-3.9-1.1L3 18.9l2 .5 1.8-3.6 4.5 1.2c1 .2 2-.3 2.4-1.2L16 9.4c.2-.7-.3-1.4-1-1.4m3.9-1-3.4 9.4c-.6 1.6-2.1 2.6-3.7 2.6-.3 0-.7 0-1-.1l-2.9-.8-.9 1.8 2 .5 1.4.4c.5.1 1 .2 1.5.2 2.5 0 4.7-1.5 5.6-3.9L21 7h-2.1Z" transform="matrix(1.5 0 0 1.5 0 324)" id="mdi-car-child-seat" fill="#555"/><path d="M17 4.5C17 5.9 15.9 7 14.5 7S12 5.9 12 4.5 13.1 2 14.5 2 17 3.1 17 4.5M15 8h-.8c-2.1 0-4.1-1.2-5.1-3.1-.1-.1-.2-.2-.2-.3l-1.8.8c.5 1.4 2.1 3.2 4.4 4.1l-1.8 5-3.9-1.1L3 18.9l2 .5 1.8-3.6 4.5 1.2c1 .2 2-.3 2.4-1.2L16 9.4c.2-.7-.3-1.4-1-1.4m3.9-1-3.4 9.4c-.6 1.6-2.1 2.6-3.7 2.6-.3 0-.7 0-1-.1l-2.9-.8-.9 1.8 2 .5 1.4.4c.5.1 1 .2 1.5.2 2.5 0 4.7-1.5 5.6-3.9L21 7h-2.1Z" transform="matrix(1.5 0 0 1.5 36 324)" id="mdi-car-child-seat" fill="#fff"/><path d="M23 8c0-3.87-3.13-7-7-7-3.53 0-6.43 2.61-6.92 6H4.5c-.66 0-1.22.42-1.42 1L1 14v8c0 .55.45 1 1 1h1c.55 0 1-.45 1-1v-1h12v1c0 .55.45 1 1 1h1c.55 0 1-.45 1-1v-7.68c2.36-1.13 4-3.53 4-6.32m-18.5.5h4.53c.12 1.76.89 3.34 2.08 4.5H3l1.5-4.5m0 9.5c-.83 0-1.5-.67-1.5-1.5S3.67 15 4.5 15s1.5.67 1.5 1.5S5.33 18 4.5 18m11 0c-.83 0-1.5-.67-1.5-1.5s.67-1.5 1.5-1.5 1.5.67 1.5 1.5-.67 1.5-1.5 1.5m.5-5c-1.39 0-2.56-.5-3.53-1.47C11.5 10.56 11 9.39 11 8c0-1.36.5-2.54 1.47-3.5.97-1 2.14-1.5 3.53-1.5 1.36 0 2.54.5 3.5 1.5 1 .96 1.5 2.14 1.5 3.5 0 1.39-.5 2.56-1.5 3.53-.96.97-2.14 1.47-3.5 1.47m.5-4.75 2.86 1.69-.75 1.22L15 9V4h1.5v4.25Z" transform="matrix(1.5 0 0 1.5 72 324)" id="mdi-car-clock" fill="#555"/><path d="M23 8c0-3.87-3.13-7-7-7-3.53 0-6.43 2.61-6.92 6H4.5c-.66 0-1.22.42-1.42 1L1 14v8c0 .55.45 1 1 1h1c.55 0 1-.45 1-1v-1h12v1c0 .55.45 1 1 1h1c.55 0 1-.45 1-1v-7.68c2.36-1.13 4-3.53 4-6.32m-18.5.5h4.53c.12 1.76.89 3.34 2.08 4.5H3l1.5-4.5m0 9.5c-.83 0-1.5-.67-1.5-1.5S3.67 15 4.5 15s1.5.67 1.5 1.5S5.33 18 4.5 18m11 0c-.83 0-1.5-.67-1.5-1.5s.67-1.5 1.5-1.5 1.5.67 1.5 1.5-.67 1.5-1.5 1.5m.5-5c-1.39 0-2.56-.5-3.53-1.47C11.5 10.56 11 9.39 11 8c0-1.36.5-2.54 1.47-3.5.97-1 2.14-1.5 3.53-1.5 1.36 0 2.54.5 3.5 1.5 1 .96 1.5 2.14 1.5 3.5 0 1.39-.5 2.56-1.5 3.53-.96.97-2.14 1.47-3.5 1.47m.5-4.75 2.86 1.69-.75 1.22L15 9V4h1.5v4.25Z" transform="matrix(1.5 0 0 1.5 108 324)" id="mdi-car-clock" fill="#fff"/><path d="m10 18.84 4 1.86V23l-6-3v-6H5v-4h3V4l6-3v2.3l-4 1.86v13.68M19 10h-4V5.41L12 6.8v10.4l3 1.4V14h4v-4Z" transform="matrix(1.5 0 0 1.5 144 324)" id="mdi-car-clutch" fill="#555"/><path d="m10 18.84 4 1.86V23l-6-3v-6H5v-4h3V4l6-3v2.3l-4 1.86v13.68M19 10h-4V5.41L12 6.8v10.4l3 1.4V14h4v-4Z" transform="matrix(1.5 0 0 1.5 180 324)" id="mdi-car-clutch" fill="#fff"/><path d="M6.5 5c-.66 0-1.22.42-1.42 1L3 12v8a1 1 0 0 0 1 1h1a1 1 0 0 0 1-1v-1h5.3a7 7 0 0 1-.3-2 7 7 0 0 1 3.41-6H5l1.5-4.5h11l1.18 3.53a7 7 0 0 1 1.79.43L18.92 6c-.2-.58-.76-1-1.42-1h-11M17 12a.26.26 0 0 0-.26.21l-.19 1.32c-.3.13-.59.29-.85.47l-1.24-.5c-.11 0-.24 0-.31.13l-1 1.73c-.06.11-.04.24.06.32l1.06.82a4.193 4.193 0 0 0 0 1l-1.06.82a.26.26 0 0 0-.06.32l1 1.73c.06.13.19.13.31.13l1.24-.5c.26.18.54.35.85.47l.19 1.32c.02.12.12.21.26.21h2c.11 0 .22-.09.24-.21l.19-1.32c.3-.13.57-.29.84-.47l1.23.5c.13 0 .26 0 .33-.13l1-1.73a.26.26 0 0 0-.06-.32l-1.07-.82c.02-.17.04-.33.04-.5 0-.17-.01-.33-.04-.5l1.06-.82a.26.26 0 0 0 .06-.32l-1-1.73c-.06-.13-.19-.13-.32-.13l-1.23.5c-.27-.18-.54-.35-.85-.47l-.19-1.32A.236.236 0 0 0 19 12h-2M6.5 13A1.5 1.5 0 0 1 8 14.5 1.5 1.5 0 0 1 6.5 16 1.5 1.5 0 0 1 5 14.5 1.5 1.5 0 0 1 6.5 13M18 15.5c.83 0 1.5.67 1.5 1.5s-.67 1.5-1.5 1.5c-.84 0-1.5-.67-1.5-1.5s.67-1.5 1.5-1.5Z" transform="matrix(1.5 0 0 1.5 216 324)" id="mdi-car-cog" fill="#555"/><path d="M6.5 5c-.66 0-1.22.42-1.42 1L3 12v8a1 1 0 0 0 1 1h1a1 1 0 0 0 1-1v-1h5.3a7 7 0 0 1-.3-2 7 7 0 0 1 3.41-6H5l1.5-4.5h11l1.18 3.53a7 7 0 0 1 1.79.43L18.92 6c-.2-.58-.76-1-1.42-1h-11M17 12a.26.26 0 0 0-.26.21l-.19 1.32c-.3.13-.59.29-.85.47l-1.24-.5c-.11 0-.24 0-.31.13l-1 1.73c-.06.11-.04.24.06.32l1.06.82a4.193 4.193 0 0 0 0 1l-1.06.82a.26.26 0 0 0-.06.32l1 1.73c.06.13.19.13.31.13l1.24-.5c.26.18.54.35.85.47l.19 1.32c.02.12.12.21.26.21h2c.11 0 .22-.09.24-.21l.19-1.32c.3-.13.57-.29.84-.47l1.23.5c.13 0 .26 0 .33-.13l1-1.73a.26.26 0 0 0-.06-.32l-1.07-.82c.02-.17.04-.33.04-.5 0-.17-.01-.33-.04-.5l1.06-.82a.26.26 0 0 0 .06-.32l-1-1.73c-.06-.13-.19-.13-.32-.13l-1.23.5c-.27-.18-.54-.35-.85-.47l-.19-1.32A.236.236 0 0 0 19 12h-2M6.5 13A1.5 1.5 0 0 1 8 14.5 1.5 1.5 0 0 1 6.5 16 1.5 1.5 0 0 1 5 14.5 1.5 1.5 0 0 1 6.5 13M18 15.5c.83 0 1.5.67 1.5 1.5s-.67 1.5-1.5 1.5c-.84 0-1.5-.67-1.5-1.5s.67-1.5 1.5-1.5Z" transform="matrix(1.5 0 0 1.5 252 324)" id="mdi-car-cog" fill="#fff"/><path d="M5 14h14l-1.5-4.5h-11L5 14m12.5 5a1.5 1.5 0 0 0 1.5-1.5 1.5 1.5 0 0 0-1.5-1.5 1.5 1.5 0 0 0-1.5 1.5 1.5 1.5 0 0 0 1.5 1.5m-11 0A1.5 1.5 0 0 0 8 17.5 1.5 1.5 0 0 0 6.5 16 1.5 1.5 0 0 0 5 17.5 1.5 1.5 0 0 0 6.5 19M18.92 9 21 15v8a1 1 0 0 1-1 1h-1a1 1 0 0 1-1-1v-1H6v1a1 1 0 0 1-1 1H4a1 1 0 0 1-1-1v-8l2.08-6c.2-.58.77-1 1.42-1h11c.65 0 1.22.42 1.42 1M12 0c2.12 0 4.15.86 5.65 2.35l-1.42 1.42A6.016 6.016 0 0 0 12 2c-1.58 0-3.11.65-4.23 1.77L6.36 2.35A7.996 7.996 0 0 1 12 0m0 4c1.06 0 2.07.44 2.82 1.18L13.4 6.6c-.37-.37-.87-.6-1.4-.6-.5 0-1.03.23-1.4.6L9.18 5.18C9.93 4.44 10.94 4 12 4Z" transform="matrix(1.5 0 0 1.5 288 324)" id="mdi-car-connected" fill="#555"/><path d="M5 14h14l-1.5-4.5h-11L5 14m12.5 5a1.5 1.5 0 0 0 1.5-1.5 1.5 1.5 0 0 0-1.5-1.5 1.5 1.5 0 0 0-1.5 1.5 1.5 1.5 0 0 0 1.5 1.5m-11 0A1.5 1.5 0 0 0 8 17.5 1.5 1.5 0 0 0 6.5 16 1.5 1.5 0 0 0 5 17.5 1.5 1.5 0 0 0 6.5 19M18.92 9 21 15v8a1 1 0 0 1-1 1h-1a1 1 0 0 1-1-1v-1H6v1a1 1 0 0 1-1 1H4a1 1 0 0 1-1-1v-8l2.08-6c.2-.58.77-1 1.42-1h11c.65 0 1.22.42 1.42 1M12 0c2.12 0 4.15.86 5.65 2.35l-1.42 1.42A6.016 6.016 0 0 0 12 2c-1.58 0-3.11.65-4.23 1.77L6.36 2.35A7.996 7.996 0 0 1 12 0m0 4c1.06 0 2.07.44 2.82 1.18L13.4 6.6c-.37-.37-.87-.6-1.4-.6-.5 0-1.03.23-1.4.6L9.18 5.18C9.93 4.44 10.94 4 12 4Z" transform="matrix(1.5 0 0 1.5 324 324)" id="mdi-car-connected" fill="#fff"/><path d="m16 6-1 .75L17.5 10h-4V8.5H12V10H3c-1.11 0-2 .89-2 2v3h2a3 3 0 0 0 3 3 3 3 0 0 0 3-3h6a3 3 0 0 0 3 3 3 3 0 0 0 3-3h2v-3c0-1.11-.89-2-2-2h-2l-3-4M6 13.5A1.5 1.5 0 0 1 7.5 15 1.5 1.5 0 0 1 6 16.5 1.5 1.5 0 0 1 4.5 15 1.5 1.5 0 0 1 6 13.5m12 0a1.5 1.5 0 0 1 1.5 1.5 1.5 1.5 0 0 1-1.5 1.5 1.5 1.5 0 0 1-1.5-1.5 1.5 1.5 0 0 1 1.5-1.5Z" transform="matrix(1.5 0 0 1.5 360 324)" id="mdi-car-convertible" fill="#555"/><path d="m16 6-1 .75L17.5 10h-4V8.5H12V10H3c-1.11 0-2 .89-2 2v3h2a3 3 0 0 0 3 3 3 3 0 0 0 3-3h6a3 3 0 0 0 3 3 3 3 0 0 0 3-3h2v-3c0-1.11-.89-2-2-2h-2l-3-4M6 13.5A1.5 1.5 0 0 1 7.5 15 1.5 1.5 0 0 1 6 16.5 1.5 1.5 0 0 1 4.5 15 1.5 1.5 0 0 1 6 13.5m12 0a1.5 1.5 0 0 1 1.5 1.5 1.5 1.5 0 0 1-1.5 1.5 1.5 1.5 0 0 1-1.5-1.5 1.5 1.5 0 0 1 1.5-1.5Z" transform="matrix(1.5 0 0 1.5 396 324)" id="mdi-car-convertible" fill="#fff"/><path d="M19 7V5h2V3h-8v2h2v2H1v14h22V7h-4m2 7.42c-.29-.29-.5-.42-1-.42-.67 0-.79.21-1.29.71S17.33 16 16 16s-2.21-.79-2.71-1.29S12.67 14 12 14c-.22 0-.37.03-.5.08-.28.1-.45.29-.79.63-.5.5-1.38 1.29-2.71 1.29s-2.21-.79-2.71-1.29S4.67 14 4 14c-.5 0-.71.13-1 .42V9h18v5.42Z" transform="matrix(1.5 0 0 1.5 432 324)" id="mdi-car-coolant-level" fill="#555"/><path d="M19 7V5h2V3h-8v2h2v2H1v14h22V7h-4m2 7.42c-.29-.29-.5-.42-1-.42-.67 0-.79.21-1.29.71S17.33 16 16 16s-2.21-.79-2.71-1.29S12.67 14 12 14c-.22 0-.37.03-.5.08-.28.1-.45.29-.79.63-.5.5-1.38 1.29-2.71 1.29s-2.21-.79-2.71-1.29S4.67 14 4 14c-.5 0-.71.13-1 .42V9h18v5.42Z" transform="matrix(1.5 0 0 1.5 468 324)" id="mdi-car-coolant-level" fill="#fff"/><path d="M22 15c0 2.6-1.2 4.9-3.1 6.3l-.5-.5-2.1-2.1 1.4-1.4 1.2 1.2c.5-.7.9-1.6 1-2.5H18v-2h1.9c-.2-.9-.5-1.7-1-2.5l-1.2 1.2-1.4-1.4 1.2-1.2c-.7-.5-1.6-.9-2.5-1V11h-2V9.1c-.9.2-1.7.5-2.5 1l3 3c.2 0 .3-.1.5-.1a2 2 0 0 1 2 2 2 2 0 0 1-2 2 2 2 0 0 1-2-2c0-.2 0-.3.1-.5l-3-3c-.5.7-.9 1.6-1 2.5H10v2H8.1c.2.9.5 1.7 1 2.5l1.2-1.2 1.4 1.4-2.6 2.6C7.2 19.9 6 17.6 6 15a8 8 0 0 1 8-8 8 8 0 0 1 8 8M6.7 5.3 3.4 2 2 3.4l3.3 3.3L4 8h4V4L6.7 5.3Z" transform="matrix(1.5 0 0 1.5 504 324)" id="mdi-car-cruise-control" fill="#555"/><path d="M22 15c0 2.6-1.2 4.9-3.1 6.3l-.5-.5-2.1-2.1 1.4-1.4 1.2 1.2c.5-.7.9-1.6 1-2.5H18v-2h1.9c-.2-.9-.5-1.7-1-2.5l-1.2 1.2-1.4-1.4 1.2-1.2c-.7-.5-1.6-.9-2.5-1V11h-2V9.1c-.9.2-1.7.5-2.5 1l3 3c.2 0 .3-.1.5-.1a2 2 0 0 1 2 2 2 2 0 0 1-2 2 2 2 0 0 1-2-2c0-.2 0-.3.1-.5l-3-3c-.5.7-.9 1.6-1 2.5H10v2H8.1c.2.9.5 1.7 1 2.5l1.2-1.2 1.4 1.4-2.6 2.6C7.2 19.9 6 17.6 6 15a8 8 0 0 1 8-8 8 8 0 0 1 8 8M6.7 5.3 3.4 2 2 3.4l3.3 3.3L4 8h4V4L6.7 5.3Z" transform="matrix(1.5 0 0 1.5 540 324)" id="mdi-car-cruise-control" fill="#fff"/><path d="M15 23c-.3 0-.5-.1-.7-.3-.4-.4-.3-1 .1-1.4.5-.4 1.7-1.8 1.7-2.9 0-.6-.4-1.2-.8-1.9-.5-.8-1.2-1.8-1.2-3 0-2.3 1.3-3.2 1.5-3.3.5-.3 1.1-.1 1.4.3.3.5.1 1.1-.3 1.4 0 0-.5.4-.5 1.6 0 .6.4 1.2.8 1.9.5.8 1.2 1.8 1.2 3 0 2.2-2.1 4.2-2.3 4.4-.4.1-.7.2-.9.2m-3.3-.3c.2-.2 2.3-2.2 2.3-4.4 0-1.2-.6-2.2-1.2-3-.4-.7-.8-1.3-.8-1.9 0-1.2.5-1.6.5-1.6.5-.3.6-.9.3-1.4-.3-.5-.9-.6-1.4-.3-.2.1-1.5 1-1.5 3.3 0 1.2.6 2.2 1.2 3 .4.7.8 1.3.8 1.9 0 1.1-1.2 2.5-1.7 2.9-.4.4-.4 1-.1 1.4.2.2.5.3.7.3.4.1.7 0 .9-.2m-4 0c.2-.2 2.3-2.2 2.3-4.4 0-1.2-.6-2.2-1.2-3-.4-.6-.8-1.2-.8-1.9 0-1.2.5-1.6.5-1.6.5-.3.6-.9.3-1.4-.2-.4-.9-.5-1.3-.3-.2.1-1.5 1-1.5 3.3 0 1.2.6 2.2 1.2 3 .4.7.8 1.3.8 1.9 0 1.1-1.2 2.5-1.7 2.9-.4.4-.4 1-.1 1.4.3.3.5.4.8.4.2 0 .5-.1.7-.3M12 3C9.4 3 1 3.3 1 7c0 2.4 1.2 8.4 1.8 11H5v-2h-.6C3.8 13.1 3 8.8 3 7c0-1 4.4-2 9-2s9 1 9 2c0 1.8-.8 6.1-1.4 9H19v2h2.2c.6-2.6 1.8-8.6 1.8-11 0-3.7-8.4-4-11-4Z" transform="matrix(1.5 0 0 1.5 576 324)" id="mdi-car-defrost-front" fill="#555"/><path d="M15 23c-.3 0-.5-.1-.7-.3-.4-.4-.3-1 .1-1.4.5-.4 1.7-1.8 1.7-2.9 0-.6-.4-1.2-.8-1.9-.5-.8-1.2-1.8-1.2-3 0-2.3 1.3-3.2 1.5-3.3.5-.3 1.1-.1 1.4.3.3.5.1 1.1-.3 1.4 0 0-.5.4-.5 1.6 0 .6.4 1.2.8 1.9.5.8 1.2 1.8 1.2 3 0 2.2-2.1 4.2-2.3 4.4-.4.1-.7.2-.9.2m-3.3-.3c.2-.2 2.3-2.2 2.3-4.4 0-1.2-.6-2.2-1.2-3-.4-.7-.8-1.3-.8-1.9 0-1.2.5-1.6.5-1.6.5-.3.6-.9.3-1.4-.3-.5-.9-.6-1.4-.3-.2.1-1.5 1-1.5 3.3 0 1.2.6 2.2 1.2 3 .4.7.8 1.3.8 1.9 0 1.1-1.2 2.5-1.7 2.9-.4.4-.4 1-.1 1.4.2.2.5.3.7.3.4.1.7 0 .9-.2m-4 0c.2-.2 2.3-2.2 2.3-4.4 0-1.2-.6-2.2-1.2-3-.4-.6-.8-1.2-.8-1.9 0-1.2.5-1.6.5-1.6.5-.3.6-.9.3-1.4-.2-.4-.9-.5-1.3-.3-.2.1-1.5 1-1.5 3.3 0 1.2.6 2.2 1.2 3 .4.7.8 1.3.8 1.9 0 1.1-1.2 2.5-1.7 2.9-.4.4-.4 1-.1 1.4.3.3.5.4.8.4.2 0 .5-.1.7-.3M12 3C9.4 3 1 3.3 1 7c0 2.4 1.2 8.4 1.8 11H5v-2h-.6C3.8 13.1 3 8.8 3 7c0-1 4.4-2 9-2s9 1 9 2c0 1.8-.8 6.1-1.4 9H19v2h2.2c.6-2.6 1.8-8.6 1.8-11 0-3.7-8.4-4-11-4Z" transform="matrix(1.5 0 0 1.5 612 324)" id="mdi-car-defrost-front" fill="#fff"/><path d="M10 18.3c0 2.2-2.1 4.2-2.3 4.4-.2.2-.5.3-.7.3-.3 0-.5-.1-.8-.4-.3-.4-.3-1 .1-1.4.5-.4 1.7-1.8 1.7-2.9 0-.6-.4-1.2-.8-1.9-.6-.8-1.2-1.8-1.2-3 0-2.3 1.3-3.2 1.5-3.3.4-.2 1.1-.1 1.3.3.3.5.2 1.1-.3 1.4 0 0-.5.4-.5 1.6 0 .7.4 1.3.8 1.9.6.8 1.2 1.8 1.2 3m2-4.9c0-1.2.5-1.6.5-1.6.5-.3.6-.9.3-1.4-.3-.5-.9-.6-1.4-.3-.2.1-1.5 1-1.5 3.3 0 1.2.6 2.2 1.2 3 .4.7.8 1.3.8 1.9 0 1.1-1.2 2.5-1.7 2.9-.4.4-.4 1-.1 1.4.2.2.5.3.7.3.4.1.7 0 .9-.2.2-.2 2.3-2.2 2.3-4.4 0-1.2-.6-2.2-1.2-3-.4-.7-.8-1.3-.8-1.9M20 3H4a2 2 0 0 0-2 2v11a2 2 0 0 0 2 2h1v-2H4V5h16v11h-1v2h1a2 2 0 0 0 2-2V5a2 2 0 0 0-2-2m-3.8 10.5c0-1.2.5-1.6.5-1.6.4-.3.6-.9.3-1.4-.3-.4-.9-.6-1.4-.3-.2.1-1.5 1-1.5 3.3 0 1.2.7 2.2 1.2 3 .4.7.8 1.3.8 1.9 0 1.1-1.2 2.5-1.7 2.9-.4.4-.5 1-.1 1.4.2.2.4.3.7.3.2 0 .5-.1.9-.2.2-.2 2.3-2.2 2.3-4.4 0-1.2-.7-2.2-1.2-3-.4-.7-.8-1.3-.8-1.9Z" transform="matrix(1.5 0 0 1.5 648 324)" id="mdi-car-defrost-rear" fill="#555"/><path d="M10 18.3c0 2.2-2.1 4.2-2.3 4.4-.2.2-.5.3-.7.3-.3 0-.5-.1-.8-.4-.3-.4-.3-1 .1-1.4.5-.4 1.7-1.8 1.7-2.9 0-.6-.4-1.2-.8-1.9-.6-.8-1.2-1.8-1.2-3 0-2.3 1.3-3.2 1.5-3.3.4-.2 1.1-.1 1.3.3.3.5.2 1.1-.3 1.4 0 0-.5.4-.5 1.6 0 .7.4 1.3.8 1.9.6.8 1.2 1.8 1.2 3m2-4.9c0-1.2.5-1.6.5-1.6.5-.3.6-.9.3-1.4-.3-.5-.9-.6-1.4-.3-.2.1-1.5 1-1.5 3.3 0 1.2.6 2.2 1.2 3 .4.7.8 1.3.8 1.9 0 1.1-1.2 2.5-1.7 2.9-.4.4-.4 1-.1 1.4.2.2.5.3.7.3.4.1.7 0 .9-.2.2-.2 2.3-2.2 2.3-4.4 0-1.2-.6-2.2-1.2-3-.4-.7-.8-1.3-.8-1.9M20 3H4a2 2 0 0 0-2 2v11a2 2 0 0 0 2 2h1v-2H4V5h16v11h-1v2h1a2 2 0 0 0 2-2V5a2 2 0 0 0-2-2m-3.8 10.5c0-1.2.5-1.6.5-1.6.4-.3.6-.9.3-1.4-.3-.4-.9-.6-1.4-.3-.2.1-1.5 1-1.5 3.3 0 1.2.7 2.2 1.2 3 .4.7.8 1.3.8 1.9 0 1.1-1.2 2.5-1.7 2.9-.4.4-.5 1-.1 1.4.2.2.4.3.7.3.2 0 .5-.1.9-.2.2-.2 2.3-2.2 2.3-4.4 0-1.2-.7-2.2-1.2-3-.4-.7-.8-1.3-.8-1.9Z" transform="matrix(1.5 0 0 1.5 684 324)" id="mdi-car-defrost-rear" fill="#fff"/></svg>