<?xml version="1.0" encoding="UTF-8"?>
<!DOCTYPE svg PUBLIC "-//W3C//DTD SVG 1.1//EN" "http://www.w3.org/Graphics/SVG/1.1/DTD/svg11.dtd"><svg
  xmlns="http://www.w3.org/2000/svg" xmlns:xlink="http://www.w3.org/1999/xlink" version="1.1"
  width="720" height="900" viewBox="0 0 720 900">
    <g id="mdi-relation-many-to-zero-or-many" transform="translate(0 0) scale(1.5)" fill="#555">
      <path d="M21 13L19 15H18.79A2.5 2.5 0 0 0 14.21 15H13V7H5L3 5H2V11H3L5 9H11V17H14.21A2.5 2.5 0 0 0 18.79 17H19L21 19H22V13M16.5 17A1 1 0 1 1 17.5 16A1 1 0 0 1 16.5 17Z" />
    </g>
    <g id="mdi-relation-many-to-zero-or-many" transform="translate(36 0) scale(1.5)" fill="#fff">
      <path d="M21 13L19 15H18.79A2.5 2.5 0 0 0 14.21 15H13V7H5L3 5H2V11H3L5 9H11V17H14.21A2.5 2.5 0 0 0 18.79 17H19L21 19H22V13M16.5 17A1 1 0 1 1 17.5 16A1 1 0 0 1 16.5 17Z" />
    </g>
    <g id="mdi-relation-many-to-zero-or-one" transform="translate(72 0) scale(1.5)" fill="#555">
      <path d="M21 15V13H19V15H18.79A2.5 2.5 0 0 0 14.21 15H13V7H5L3 5H2V11H3L5 9H11V17H14.21A2.5 2.5 0 0 0 18.79 17H19V19H21V17H22V15M16.5 17A1 1 0 1 1 17.5 16A1 1 0 0 1 16.5 17Z" />
    </g>
    <g id="mdi-relation-many-to-zero-or-one" transform="translate(108 0) scale(1.5)" fill="#fff">
      <path d="M21 15V13H19V15H18.79A2.5 2.5 0 0 0 14.21 15H13V7H5L3 5H2V11H3L5 9H11V17H14.21A2.5 2.5 0 0 0 18.79 17H19V19H21V17H22V15M16.5 17A1 1 0 1 1 17.5 16A1 1 0 0 1 16.5 17Z" />
    </g>
    <g id="mdi-relation-one-or-many-to-many" transform="translate(144 0) scale(1.5)" fill="#555">
      <path d="M22 13V19H21L19 17H11V9H7V11H5V9L3 11H2V5H3L5 7V5H7V7H13V15H19L21 13Z" />
    </g>
    <g id="mdi-relation-one-or-many-to-many" transform="translate(180 0) scale(1.5)" fill="#fff">
      <path d="M22 13V19H21L19 17H11V9H7V11H5V9L3 11H2V5H3L5 7V5H7V7H13V15H19L21 13Z" />
    </g>
    <g id="mdi-relation-one-or-many-to-one" transform="translate(216 0) scale(1.5)" fill="#555">
      <path d="M22 15V17H19V19H17V17H11V9H7V11H5V9L3 11H2V5H3L5 7V5H7V7H13V15H17V13H19V15Z" />
    </g>
    <g id="mdi-relation-one-or-many-to-one" transform="translate(252 0) scale(1.5)" fill="#fff">
      <path d="M22 15V17H19V19H17V17H11V9H7V11H5V9L3 11H2V5H3L5 7V5H7V7H13V15H17V13H19V15Z" />
    </g>
    <g id="mdi-relation-one-or-many-to-one-or-many" transform="translate(288 0) scale(1.5)" fill="#555">
      <path d="M22 13V19H21L19 17V19H17V17H11V9H7V11H5V9L3 11H2V5H3L5 7V5H7V7H13V15H17V13H19V15L21 13Z" />
    </g>
    <g id="mdi-relation-one-or-many-to-one-or-many" transform="translate(324 0) scale(1.5)" fill="#fff">
      <path d="M22 13V19H21L19 17V19H17V17H11V9H7V11H5V9L3 11H2V5H3L5 7V5H7V7H13V15H17V13H19V15L21 13Z" />
    </g>
    <g id="mdi-relation-one-or-many-to-only-one" transform="translate(360 0) scale(1.5)" fill="#555">
      <path d="M22 15V17H21V19H19V17H18V19H16V17H11V9H7V11H5V9L3 11H2V5H3L5 7V5H7V7H13V15H16V13H18V15H19V13H21V15Z" />
    </g>
    <g id="mdi-relation-one-or-many-to-only-one" transform="translate(396 0) scale(1.5)" fill="#fff">
      <path d="M22 15V17H21V19H19V17H18V19H16V17H11V9H7V11H5V9L3 11H2V5H3L5 7V5H7V7H13V15H16V13H18V15H19V13H21V15Z" />
    </g>
    <g id="mdi-relation-one-or-many-to-zero-or-many" transform="translate(432 0) scale(1.5)" fill="#555">
      <path d="M21 13L19 15H18.79A2.5 2.5 0 0 0 14.21 15H13V7H7V5H5V7L3 5H2V11H3L5 9V11H7V9H11V17H14.21A2.5 2.5 0 0 0 18.79 17H19L21 19H22V13M16.5 17A1 1 0 1 1 17.5 16A1 1 0 0 1 16.5 17Z" />
    </g>
    <g id="mdi-relation-one-or-many-to-zero-or-many" transform="translate(468 0) scale(1.5)" fill="#fff">
      <path d="M21 13L19 15H18.79A2.5 2.5 0 0 0 14.21 15H13V7H7V5H5V7L3 5H2V11H3L5 9V11H7V9H11V17H14.21A2.5 2.5 0 0 0 18.79 17H19L21 19H22V13M16.5 17A1 1 0 1 1 17.5 16A1 1 0 0 1 16.5 17Z" />
    </g>
    <g id="mdi-relation-one-or-many-to-zero-or-one" transform="translate(504 0) scale(1.5)" fill="#555">
      <path d="M21 15V13H19V15H18.79A2.5 2.5 0 0 0 14.21 15H13V7H7V5H5V7L3 5H2V11H3L5 9V11H7V9H11V17H14.21A2.5 2.5 0 0 0 18.79 17H19V19H21V17H22V15M16.5 17A1 1 0 1 1 17.5 16A1 1 0 0 1 16.5 17Z" />
    </g>
    <g id="mdi-relation-one-or-many-to-zero-or-one" transform="translate(540 0) scale(1.5)" fill="#fff">
      <path d="M21 15V13H19V15H18.79A2.5 2.5 0 0 0 14.21 15H13V7H7V5H5V7L3 5H2V11H3L5 9V11H7V9H11V17H14.21A2.5 2.5 0 0 0 18.79 17H19V19H21V17H22V15M16.5 17A1 1 0 1 1 17.5 16A1 1 0 0 1 16.5 17Z" />
    </g>
    <g id="mdi-relation-one-to-many" transform="translate(576 0) scale(1.5)" fill="#555">
      <path d="M22 13V19H21L19 17H11V9H7V11H5V9H2V7H5V5H7V7H13V15H19L21 13Z" />
    </g>
    <g id="mdi-relation-one-to-many" transform="translate(612 0) scale(1.5)" fill="#fff">
      <path d="M22 13V19H21L19 17H11V9H7V11H5V9H2V7H5V5H7V7H13V15H19L21 13Z" />
    </g>
    <g id="mdi-relation-one-to-one" transform="translate(648 0) scale(1.5)" fill="#555">
      <path d="M22 15V17H19V19H17V17H11V9H7V11H5V9H2V7H5V5H7V7H13V15H17V13H19V15Z" />
    </g>
    <g id="mdi-relation-one-to-one" transform="translate(684 0) scale(1.5)" fill="#fff">
      <path d="M22 15V17H19V19H17V17H11V9H7V11H5V9H2V7H5V5H7V7H13V15H17V13H19V15Z" />
    </g>
    <g id="mdi-relation-one-to-one-or-many" transform="translate(0 36) scale(1.5)" fill="#555">
      <path d="M22 13V19H21L19 17V19H17V17H11V9H7V11H5V9H2V7H5V5H7V7H13V15H17V13H19V15L21 13Z" />
    </g>
    <g id="mdi-relation-one-to-one-or-many" transform="translate(36 36) scale(1.5)" fill="#fff">
      <path d="M22 13V19H21L19 17V19H17V17H11V9H7V11H5V9H2V7H5V5H7V7H13V15H17V13H19V15L21 13Z" />
    </g>
    <g id="mdi-relation-one-to-only-one" transform="translate(72 36) scale(1.5)" fill="#555">
      <path d="M22 15V17H21V19H19V17H18V19H16V17H11V9H7V11H5V9H2V7H5V5H7V7H13V15H16V13H18V15H19V13H21V15Z" />
    </g>
    <g id="mdi-relation-one-to-only-one" transform="translate(108 36) scale(1.5)" fill="#fff">
      <path d="M22 15V17H21V19H19V17H18V19H16V17H11V9H7V11H5V9H2V7H5V5H7V7H13V15H16V13H18V15H19V13H21V15Z" />
    </g>
    <g id="mdi-relation-one-to-zero-or-many" transform="translate(144 36) scale(1.5)" fill="#555">
      <path d="M21 13L19 15H18.79A2.5 2.5 0 0 0 14.21 15H13V7H7V5H5V7H2V9H5V11H7V9H11V17H14.21A2.5 2.5 0 0 0 18.79 17H19L21 19H22V13M16.5 17A1 1 0 1 1 17.5 16A1 1 0 0 1 16.5 17Z" />
    </g>
    <g id="mdi-relation-one-to-zero-or-many" transform="translate(180 36) scale(1.5)" fill="#fff">
      <path d="M21 13L19 15H18.79A2.5 2.5 0 0 0 14.21 15H13V7H7V5H5V7H2V9H5V11H7V9H11V17H14.21A2.5 2.5 0 0 0 18.79 17H19L21 19H22V13M16.5 17A1 1 0 1 1 17.5 16A1 1 0 0 1 16.5 17Z" />
    </g>
    <g id="mdi-relation-one-to-zero-or-one" transform="translate(216 36) scale(1.5)" fill="#555">
      <path d="M21 15V13H19V15H18.79A2.5 2.5 0 0 0 14.21 15H13V7H7V5H5V7H2V9H5V11H7V9H11V17H14.21A2.5 2.5 0 0 0 18.79 17H19V19H21V17H22V15M16.5 17A1 1 0 1 1 17.5 16A1 1 0 0 1 16.5 17Z" />
    </g>
    <g id="mdi-relation-one-to-zero-or-one" transform="translate(252 36) scale(1.5)" fill="#fff">
      <path d="M21 15V13H19V15H18.79A2.5 2.5 0 0 0 14.21 15H13V7H7V5H5V7H2V9H5V11H7V9H11V17H14.21A2.5 2.5 0 0 0 18.79 17H19V19H21V17H22V15M16.5 17A1 1 0 1 1 17.5 16A1 1 0 0 1 16.5 17Z" />
    </g>
    <g id="mdi-relation-only-one-to-many" transform="translate(288 36) scale(1.5)" fill="#555">
      <path d="M22 13V19H21L19 17H11V9H8V11H6V9H5V11H3V9H2V7H3V5H5V7H6V5H8V7H13V15H19L21 13Z" />
    </g>
    <g id="mdi-relation-only-one-to-many" transform="translate(324 36) scale(1.5)" fill="#fff">
      <path d="M22 13V19H21L19 17H11V9H8V11H6V9H5V11H3V9H2V7H3V5H5V7H6V5H8V7H13V15H19L21 13Z" />
    </g>
    <g id="mdi-relation-only-one-to-one" transform="translate(360 36) scale(1.5)" fill="#555">
      <path d="M22 15V17H19V19H17V17H11V9H8V11H6V9H5V11H3V9H2V7H3V5H5V7H6V5H8V7H13V15H17V13H19V15Z" />
    </g>
    <g id="mdi-relation-only-one-to-one" transform="translate(396 36) scale(1.5)" fill="#fff">
      <path d="M22 15V17H19V19H17V17H11V9H8V11H6V9H5V11H3V9H2V7H3V5H5V7H6V5H8V7H13V15H17V13H19V15Z" />
    </g>
    <g id="mdi-relation-only-one-to-one-or-many" transform="translate(432 36) scale(1.5)" fill="#555">
      <path d="M22 13V19H21L19 17V19H17V17H11V9H8V11H6V9H5V11H3V9H2V7H3V5H5V7H6V5H8V7H13V15H17V13H19V15L21 13Z" />
    </g>
    <g id="mdi-relation-only-one-to-one-or-many" transform="translate(468 36) scale(1.5)" fill="#fff">
      <path d="M22 13V19H21L19 17V19H17V17H11V9H8V11H6V9H5V11H3V9H2V7H3V5H5V7H6V5H8V7H13V15H17V13H19V15L21 13Z" />
    </g>
    <g id="mdi-relation-only-one-to-only-one" transform="translate(504 36) scale(1.5)" fill="#555">
      <path d="M22 15V17H21V19H19V17H18V19H16V17H11V9H8V11H6V9H5V11H3V9H2V7H3V5H5V7H6V5H8V7H13V15H16V13H18V15H19V13H21V15Z" />
    </g>
    <g id="mdi-relation-only-one-to-only-one" transform="translate(540 36) scale(1.5)" fill="#fff">
      <path d="M22 15V17H21V19H19V17H18V19H16V17H11V9H8V11H6V9H5V11H3V9H2V7H3V5H5V7H6V5H8V7H13V15H16V13H18V15H19V13H21V15Z" />
    </g>
    <g id="mdi-relation-only-one-to-zero-or-many" transform="translate(576 36) scale(1.5)" fill="#555">
      <path d="M21 13L19 15H18.79A2.5 2.5 0 0 0 14.21 15H13V7H8V5H6V7H5V5H3V7H2V9H3V11H5V9H6V11H8V9H11V17H14.21A2.5 2.5 0 0 0 18.79 17H19L21 19H22V13M16.5 17A1 1 0 1 1 17.5 16A1 1 0 0 1 16.5 17Z" />
    </g>
    <g id="mdi-relation-only-one-to-zero-or-many" transform="translate(612 36) scale(1.5)" fill="#fff">
      <path d="M21 13L19 15H18.79A2.5 2.5 0 0 0 14.21 15H13V7H8V5H6V7H5V5H3V7H2V9H3V11H5V9H6V11H8V9H11V17H14.21A2.5 2.5 0 0 0 18.79 17H19L21 19H22V13M16.5 17A1 1 0 1 1 17.5 16A1 1 0 0 1 16.5 17Z" />
    </g>
    <g id="mdi-relation-only-one-to-zero-or-one" transform="translate(648 36) scale(1.5)" fill="#555">
      <path d="M21 15V13H19V15H18.79A2.5 2.5 0 0 0 14.21 15H13V7H8V5H6V7H5V5H3V7H2V9H3V11H5V9H6V11H8V9H11V17H14.21A2.5 2.5 0 0 0 18.79 17H19V19H21V17H22V15M16.5 17A1 1 0 1 1 17.5 16A1 1 0 0 1 16.5 17Z" />
    </g>
    <g id="mdi-relation-only-one-to-zero-or-one" transform="translate(684 36) scale(1.5)" fill="#fff">
      <path d="M21 15V13H19V15H18.79A2.5 2.5 0 0 0 14.21 15H13V7H8V5H6V7H5V5H3V7H2V9H3V11H5V9H6V11H8V9H11V17H14.21A2.5 2.5 0 0 0 18.79 17H19V19H21V17H22V15M16.5 17A1 1 0 1 1 17.5 16A1 1 0 0 1 16.5 17Z" />
    </g>
    <g id="mdi-relation-zero-or-many-to-many" transform="translate(0 72) scale(1.5)" fill="#555">
      <path d="M21 13L19 15H13V7H9.79A2.5 2.5 0 0 0 5.21 7H5L3 5H2V11H3L5 9H5.21A2.5 2.5 0 0 0 9.79 9H11V17H19L21 19H22V13M7.5 9A1 1 0 1 1 8.5 8A1 1 0 0 1 7.5 9Z" />
    </g>
    <g id="mdi-relation-zero-or-many-to-many" transform="translate(36 72) scale(1.5)" fill="#fff">
      <path d="M21 13L19 15H13V7H9.79A2.5 2.5 0 0 0 5.21 7H5L3 5H2V11H3L5 9H5.21A2.5 2.5 0 0 0 9.79 9H11V17H19L21 19H22V13M7.5 9A1 1 0 1 1 8.5 8A1 1 0 0 1 7.5 9Z" />
    </g>
    <g id="mdi-relation-zero-or-many-to-one" transform="translate(72 72) scale(1.5)" fill="#555">
      <path d="M19 15V13H17V15H13V7H9.79A2.5 2.5 0 0 0 5.21 7H5L3 5H2V11H3L5 9H5.21A2.5 2.5 0 0 0 9.79 9H11V17H17V19H19V17H22V15M7.5 9A1 1 0 1 1 8.5 8A1 1 0 0 1 7.5 9Z" />
    </g>
    <g id="mdi-relation-zero-or-many-to-one" transform="translate(108 72) scale(1.5)" fill="#fff">
      <path d="M19 15V13H17V15H13V7H9.79A2.5 2.5 0 0 0 5.21 7H5L3 5H2V11H3L5 9H5.21A2.5 2.5 0 0 0 9.79 9H11V17H17V19H19V17H22V15M7.5 9A1 1 0 1 1 8.5 8A1 1 0 0 1 7.5 9Z" />
    </g>
    <g id="mdi-relation-zero-or-many-to-one-or-many" transform="translate(144 72) scale(1.5)" fill="#555">
      <path d="M21 13L19 15V13H17V15H13V7H9.79A2.5 2.5 0 0 0 5.21 7H5L3 5H2V11H3L5 9H5.21A2.5 2.5 0 0 0 9.79 9H11V17H17V19H19V17L21 19H22V13M7.5 9A1 1 0 1 1 8.5 8A1 1 0 0 1 7.5 9Z" />
    </g>
    <g id="mdi-relation-zero-or-many-to-one-or-many" transform="translate(180 72) scale(1.5)" fill="#fff">
      <path d="M21 13L19 15V13H17V15H13V7H9.79A2.5 2.5 0 0 0 5.21 7H5L3 5H2V11H3L5 9H5.21A2.5 2.5 0 0 0 9.79 9H11V17H17V19H19V17L21 19H22V13M7.5 9A1 1 0 1 1 8.5 8A1 1 0 0 1 7.5 9Z" />
    </g>
    <g id="mdi-relation-zero-or-many-to-only-one" transform="translate(216 72) scale(1.5)" fill="#555">
      <path d="M21 15V13H19V15H18V13H16V15H13V7H9.79A2.5 2.5 0 0 0 5.21 7H5L3 5H2V11H3L5 9H5.21A2.5 2.5 0 0 0 9.79 9H11V17H16V19H18V17H19V19H21V17H22V15M7.5 9A1 1 0 1 1 8.5 8A1 1 0 0 1 7.5 9Z" />
    </g>
    <g id="mdi-relation-zero-or-many-to-only-one" transform="translate(252 72) scale(1.5)" fill="#fff">
      <path d="M21 15V13H19V15H18V13H16V15H13V7H9.79A2.5 2.5 0 0 0 5.21 7H5L3 5H2V11H3L5 9H5.21A2.5 2.5 0 0 0 9.79 9H11V17H16V19H18V17H19V19H21V17H22V15M7.5 9A1 1 0 1 1 8.5 8A1 1 0 0 1 7.5 9Z" />
    </g>
    <g id="mdi-relation-zero-or-many-to-zero-or-many" transform="translate(288 72) scale(1.5)" fill="#555">
      <path d="M21 13L19 15H18.79A2.5 2.5 0 0 0 14.21 15H13V7H9.79A2.5 2.5 0 0 0 5.21 7H5L3 5H2V11H3L5 9H5.21A2.5 2.5 0 0 0 9.79 9H11V17H14.21A2.5 2.5 0 0 0 18.79 17H19L21 19H22V13M7.5 9A1 1 0 1 1 8.5 8A1 1 0 0 1 7.5 9M16.5 17A1 1 0 1 1 17.5 16A1 1 0 0 1 16.5 17Z" />
    </g>
    <g id="mdi-relation-zero-or-many-to-zero-or-many" transform="translate(324 72) scale(1.5)" fill="#fff">
      <path d="M21 13L19 15H18.79A2.5 2.5 0 0 0 14.21 15H13V7H9.79A2.5 2.5 0 0 0 5.21 7H5L3 5H2V11H3L5 9H5.21A2.5 2.5 0 0 0 9.79 9H11V17H14.21A2.5 2.5 0 0 0 18.79 17H19L21 19H22V13M7.5 9A1 1 0 1 1 8.5 8A1 1 0 0 1 7.5 9M16.5 17A1 1 0 1 1 17.5 16A1 1 0 0 1 16.5 17Z" />
    </g>
    <g id="mdi-relation-zero-or-many-to-zero-or-one" transform="translate(360 72) scale(1.5)" fill="#555">
      <path d="M21 15V13H19V15H18.79A2.5 2.5 0 0 0 14.21 15H13V7H9.79A2.5 2.5 0 0 0 5.21 7H5L3 5H2V11H3L5 9H5.21A2.5 2.5 0 0 0 9.79 9H11V17H14.21A2.5 2.5 0 0 0 18.79 17H19V19H21V17H22V15M7.5 9A1 1 0 1 1 8.5 8A1 1 0 0 1 7.5 9M16.5 17A1 1 0 1 1 17.5 16A1 1 0 0 1 16.5 17Z" />
    </g>
    <g id="mdi-relation-zero-or-many-to-zero-or-one" transform="translate(396 72) scale(1.5)" fill="#fff">
      <path d="M21 15V13H19V15H18.79A2.5 2.5 0 0 0 14.21 15H13V7H9.79A2.5 2.5 0 0 0 5.21 7H5L3 5H2V11H3L5 9H5.21A2.5 2.5 0 0 0 9.79 9H11V17H14.21A2.5 2.5 0 0 0 18.79 17H19V19H21V17H22V15M7.5 9A1 1 0 1 1 8.5 8A1 1 0 0 1 7.5 9M16.5 17A1 1 0 1 1 17.5 16A1 1 0 0 1 16.5 17Z" />
    </g>
    <g id="mdi-relation-zero-or-one-to-many" transform="translate(432 72) scale(1.5)" fill="#555">
      <path d="M21 13L19 15H13V7H9.79A2.5 2.5 0 0 0 5.21 7H5V5H3V7H2V9H3V11H5V9H5.21A2.5 2.5 0 0 0 9.79 9H11V17H19L21 19H22V13M7.5 9A1 1 0 1 1 8.5 8A1 1 0 0 1 7.5 9Z" />
    </g>
    <g id="mdi-relation-zero-or-one-to-many" transform="translate(468 72) scale(1.5)" fill="#fff">
      <path d="M21 13L19 15H13V7H9.79A2.5 2.5 0 0 0 5.21 7H5V5H3V7H2V9H3V11H5V9H5.21A2.5 2.5 0 0 0 9.79 9H11V17H19L21 19H22V13M7.5 9A1 1 0 1 1 8.5 8A1 1 0 0 1 7.5 9Z" />
    </g>
    <g id="mdi-relation-zero-or-one-to-one" transform="translate(504 72) scale(1.5)" fill="#555">
      <path d="M19 15V13H17V15H13V7H9.79A2.5 2.5 0 0 0 5.21 7H5V5H3V7H2V9H3V11H5V9H5.21A2.5 2.5 0 0 0 9.79 9H11V17H17V19H19V17H22V15M7.5 9A1 1 0 1 1 8.5 8A1 1 0 0 1 7.5 9Z" />
    </g>
    <g id="mdi-relation-zero-or-one-to-one" transform="translate(540 72) scale(1.5)" fill="#fff">
      <path d="M19 15V13H17V15H13V7H9.79A2.5 2.5 0 0 0 5.21 7H5V5H3V7H2V9H3V11H5V9H5.21A2.5 2.5 0 0 0 9.79 9H11V17H17V19H19V17H22V15M7.5 9A1 1 0 1 1 8.5 8A1 1 0 0 1 7.5 9Z" />
    </g>
    <g id="mdi-relation-zero-or-one-to-one-or-many" transform="translate(576 72) scale(1.5)" fill="#555">
      <path d="M21 13L19 15V13H17V15H13V7H9.79A2.5 2.5 0 0 0 5.21 7H5V5H3V7H2V9H3V11H5V9H5.21A2.5 2.5 0 0 0 9.79 9H11V17H17V19H19V17L21 19H22V13M7.5 9A1 1 0 1 1 8.5 8A1 1 0 0 1 7.5 9Z" />
    </g>
    <g id="mdi-relation-zero-or-one-to-one-or-many" transform="translate(612 72) scale(1.5)" fill="#fff">
      <path d="M21 13L19 15V13H17V15H13V7H9.79A2.5 2.5 0 0 0 5.21 7H5V5H3V7H2V9H3V11H5V9H5.21A2.5 2.5 0 0 0 9.79 9H11V17H17V19H19V17L21 19H22V13M7.5 9A1 1 0 1 1 8.5 8A1 1 0 0 1 7.5 9Z" />
    </g>
    <g id="mdi-relation-zero-or-one-to-only-one" transform="translate(648 72) scale(1.5)" fill="#555">
      <path d="M21 15V13H19V15H18V13H16V15H13V7H9.79A2.5 2.5 0 0 0 5.21 7H5V5H3V7H2V9H3V11H5V9H5.21A2.5 2.5 0 0 0 9.79 9H11V17H16V19H18V17H19V19H21V17H22V15M7.5 9A1 1 0 1 1 8.5 8A1 1 0 0 1 7.5 9Z" />
    </g>
    <g id="mdi-relation-zero-or-one-to-only-one" transform="translate(684 72) scale(1.5)" fill="#fff">
      <path d="M21 15V13H19V15H18V13H16V15H13V7H9.79A2.5 2.5 0 0 0 5.21 7H5V5H3V7H2V9H3V11H5V9H5.21A2.5 2.5 0 0 0 9.79 9H11V17H16V19H18V17H19V19H21V17H22V15M7.5 9A1 1 0 1 1 8.5 8A1 1 0 0 1 7.5 9Z" />
    </g>
    <g id="mdi-relation-zero-or-one-to-zero-or-many" transform="translate(0 108) scale(1.5)" fill="#555">
      <path d="M21 13L19 15H18.79A2.5 2.5 0 0 0 14.21 15H13V7H9.79A2.5 2.5 0 0 0 5.21 7H5V5H3V7H2V9H3V11H5V9H5.21A2.5 2.5 0 0 0 9.79 9H11V17H14.21A2.5 2.5 0 0 0 18.79 17H19L21 19H22V13M7.5 9A1 1 0 1 1 8.5 8A1 1 0 0 1 7.5 9M16.5 17A1 1 0 1 1 17.5 16A1 1 0 0 1 16.5 17Z" />
    </g>
    <g id="mdi-relation-zero-or-one-to-zero-or-many" transform="translate(36 108) scale(1.5)" fill="#fff">
      <path d="M21 13L19 15H18.79A2.5 2.5 0 0 0 14.21 15H13V7H9.79A2.5 2.5 0 0 0 5.21 7H5V5H3V7H2V9H3V11H5V9H5.21A2.5 2.5 0 0 0 9.79 9H11V17H14.21A2.5 2.5 0 0 0 18.79 17H19L21 19H22V13M7.5 9A1 1 0 1 1 8.5 8A1 1 0 0 1 7.5 9M16.5 17A1 1 0 1 1 17.5 16A1 1 0 0 1 16.5 17Z" />
    </g>
    <g id="mdi-relation-zero-or-one-to-zero-or-one" transform="translate(72 108) scale(1.5)" fill="#555">
      <path d="M21 15V13H19V15H18.79A2.5 2.5 0 0 0 14.21 15H13V7H9.79A2.5 2.5 0 0 0 5.21 7H5V5H3V7H2V9H3V11H5V9H5.21A2.5 2.5 0 0 0 9.79 9H11V17H14.21A2.5 2.5 0 0 0 18.79 17H19V19H21V17H22V15M7.5 9A1 1 0 1 1 8.5 8A1 1 0 0 1 7.5 9M16.5 17A1 1 0 1 1 17.5 16A1 1 0 0 1 16.5 17Z" />
    </g>
    <g id="mdi-relation-zero-or-one-to-zero-or-one" transform="translate(108 108) scale(1.5)" fill="#fff">
      <path d="M21 15V13H19V15H18.79A2.5 2.5 0 0 0 14.21 15H13V7H9.79A2.5 2.5 0 0 0 5.21 7H5V5H3V7H2V9H3V11H5V9H5.21A2.5 2.5 0 0 0 9.79 9H11V17H14.21A2.5 2.5 0 0 0 18.79 17H19V19H21V17H22V15M7.5 9A1 1 0 1 1 8.5 8A1 1 0 0 1 7.5 9M16.5 17A1 1 0 1 1 17.5 16A1 1 0 0 1 16.5 17Z" />
    </g>
    <g id="mdi-relative-scale" transform="translate(144 108) scale(1.5)" fill="#555">
      <path d="M20,18H4V6H20M20,4H4C2.89,4 2,4.89 2,6V18A2,2 0 0,0 4,20H20A2,2 0 0,0 22,18V6C22,4.89 21.1,4 20,4M12,10H10V12H12M8,10H6V12H8M16,14H14V16H16M16,10H14V12H16V10Z" />
    </g>
    <g id="mdi-relative-scale" transform="translate(180 108) scale(1.5)" fill="#fff">
      <path d="M20,18H4V6H20M20,4H4C2.89,4 2,4.89 2,6V18A2,2 0 0,0 4,20H20A2,2 0 0,0 22,18V6C22,4.89 21.1,4 20,4M12,10H10V12H12M8,10H6V12H8M16,14H14V16H16M16,10H14V12H16V10Z" />
    </g>
    <g id="mdi-reload" transform="translate(216 108) scale(1.5)" fill="#555">
      <path d="M2 12C2 16.97 6.03 21 11 21C13.39 21 15.68 20.06 17.4 18.4L15.9 16.9C14.63 18.25 12.86 19 11 19C4.76 19 1.64 11.46 6.05 7.05C10.46 2.64 18 5.77 18 12H15L19 16H19.1L23 12H20C20 7.03 15.97 3 11 3C6.03 3 2 7.03 2 12Z" />
    </g>
    <g id="mdi-reload" transform="translate(252 108) scale(1.5)" fill="#fff">
      <path d="M2 12C2 16.97 6.03 21 11 21C13.39 21 15.68 20.06 17.4 18.4L15.9 16.9C14.63 18.25 12.86 19 11 19C4.76 19 1.64 11.46 6.05 7.05C10.46 2.64 18 5.77 18 12H15L19 16H19.1L23 12H20C20 7.03 15.97 3 11 3C6.03 3 2 7.03 2 12Z" />
    </g>
    <g id="mdi-reload-alert" transform="translate(288 108) scale(1.5)" fill="#555">
      <path d="M2 12C2 17 6 21 11 21C13.4 21 15.7 20.1 17.4 18.4L15.9 16.9C14.6 18.3 12.9 19 11 19C4.8 19 1.6 11.5 6.1 7.1S18 5.8 18 12H15L19 16H19.1L23 12H20C20 7 16 3 11 3S2 7 2 12M10 15H12V17H10V15M10 7H12V13H10V7" />
    </g>
    <g id="mdi-reload-alert" transform="translate(324 108) scale(1.5)" fill="#fff">
      <path d="M2 12C2 17 6 21 11 21C13.4 21 15.7 20.1 17.4 18.4L15.9 16.9C14.6 18.3 12.9 19 11 19C4.8 19 1.6 11.5 6.1 7.1S18 5.8 18 12H15L19 16H19.1L23 12H20C20 7 16 3 11 3S2 7 2 12M10 15H12V17H10V15M10 7H12V13H10V7" />
    </g>
    <g id="mdi-reminder" transform="translate(360 108) scale(1.5)" fill="#555">
      <path d="M7.25,3C7.9,3 8.5,3.21 9,3.56V3A2,2 0 0,1 11,1A2,2 0 0,1 13,3V3.57C13.5,3.22 14.1,3 14.75,3A3,3 0 0,1 17.75,6C17.75,7.58 16.54,8.87 15,9H13V10H14.24L14.72,10.13L19.31,12.42C20.13,12.73 20.53,13.34 20.53,14.25L20.5,14.39V14.53L19.5,21.28C19.44,21.75 19.22,22.16 18.84,22.5C18.47,22.84 18.05,23 17.58,23H10C9.45,23 9,22.81 8.58,22.41L2,15.84L3.05,14.77C3.33,14.5 3.69,14.34 4.13,14.34H4.45L9,15.33V10L9,9H7V9C5.46,8.86 4.25,7.57 4.25,6A3,3 0 0,1 7.25,3M9,6A1.75,1.75 0 0,0 7.25,4.25A1.75,1.75 0 0,0 5.5,6C5.5,6.88 6.15,7.61 7,7.73V7.75H9V6M15,7.75V7.74C15.85,7.62 16.5,6.89 16.5,6C16.5,5.04 15.72,4.26 14.75,4.26C13.78,4.26 13,5.04 13,6V7.75H15Z" />
    </g>
    <g id="mdi-reminder" transform="translate(396 108) scale(1.5)" fill="#fff">
      <path d="M7.25,3C7.9,3 8.5,3.21 9,3.56V3A2,2 0 0,1 11,1A2,2 0 0,1 13,3V3.57C13.5,3.22 14.1,3 14.75,3A3,3 0 0,1 17.75,6C17.75,7.58 16.54,8.87 15,9H13V10H14.24L14.72,10.13L19.31,12.42C20.13,12.73 20.53,13.34 20.53,14.25L20.5,14.39V14.53L19.5,21.28C19.44,21.75 19.22,22.16 18.84,22.5C18.47,22.84 18.05,23 17.58,23H10C9.45,23 9,22.81 8.58,22.41L2,15.84L3.05,14.77C3.33,14.5 3.69,14.34 4.13,14.34H4.45L9,15.33V10L9,9H7V9C5.46,8.86 4.25,7.57 4.25,6A3,3 0 0,1 7.25,3M9,6A1.75,1.75 0 0,0 7.25,4.25A1.75,1.75 0 0,0 5.5,6C5.5,6.88 6.15,7.61 7,7.73V7.75H9V6M15,7.75V7.74C15.85,7.62 16.5,6.89 16.5,6C16.5,5.04 15.72,4.26 14.75,4.26C13.78,4.26 13,5.04 13,6V7.75H15Z" />
    </g>
    <g id="mdi-remote" transform="translate(432 108) scale(1.5)" fill="#555">
      <path d="M12,0C8.96,0 6.21,1.23 4.22,3.22L5.63,4.63C7.26,3 9.5,2 12,2C14.5,2 16.74,3 18.36,4.64L19.77,3.23C17.79,1.23 15.04,0 12,0M7.05,6.05L8.46,7.46C9.37,6.56 10.62,6 12,6C13.38,6 14.63,6.56 15.54,7.46L16.95,6.05C15.68,4.78 13.93,4 12,4C10.07,4 8.32,4.78 7.05,6.05M12,15A2,2 0 0,1 10,13A2,2 0 0,1 12,11A2,2 0 0,1 14,13A2,2 0 0,1 12,15M15,9H9A1,1 0 0,0 8,10V22A1,1 0 0,0 9,23H15A1,1 0 0,0 16,22V10A1,1 0 0,0 15,9Z" />
    </g>
    <g id="mdi-remote" transform="translate(468 108) scale(1.5)" fill="#fff">
      <path d="M12,0C8.96,0 6.21,1.23 4.22,3.22L5.63,4.63C7.26,3 9.5,2 12,2C14.5,2 16.74,3 18.36,4.64L19.77,3.23C17.79,1.23 15.04,0 12,0M7.05,6.05L8.46,7.46C9.37,6.56 10.62,6 12,6C13.38,6 14.63,6.56 15.54,7.46L16.95,6.05C15.68,4.78 13.93,4 12,4C10.07,4 8.32,4.78 7.05,6.05M12,15A2,2 0 0,1 10,13A2,2 0 0,1 12,11A2,2 0 0,1 14,13A2,2 0 0,1 12,15M15,9H9A1,1 0 0,0 8,10V22A1,1 0 0,0 9,23H15A1,1 0 0,0 16,22V10A1,1 0 0,0 15,9Z" />
    </g>
    <g id="mdi-remote-desktop" transform="translate(504 108) scale(1.5)" fill="#555">
      <path d="M3,2A2,2 0 0,0 1,4V16C1,17.11 1.9,18 3,18H10V20H8V22H16V20H14V18H21A2,2 0 0,0 23,16V4A2,2 0 0,0 21,2M3,4H21V16H3M15,5L11.5,8.5L15,12L16.4,10.6L14.3,8.5L16.4,6.4M9,8L7.6,9.4L9.7,11.5L7.6,13.6L9,15L12.5,11.5" />
    </g>
    <g id="mdi-remote-desktop" transform="translate(540 108) scale(1.5)" fill="#fff">
      <path d="M3,2A2,2 0 0,0 1,4V16C1,17.11 1.9,18 3,18H10V20H8V22H16V20H14V18H21A2,2 0 0,0 23,16V4A2,2 0 0,0 21,2M3,4H21V16H3M15,5L11.5,8.5L15,12L16.4,10.6L14.3,8.5L16.4,6.4M9,8L7.6,9.4L9.7,11.5L7.6,13.6L9,15L12.5,11.5" />
    </g>
    <g id="mdi-remote-off" transform="translate(576 108) scale(1.5)" fill="#555">
      <path d="M2,5.27L3.28,4L21,21.72L19.73,23L16,19.27V22A1,1 0 0,1 15,23H9C8.46,23 8,22.55 8,22V11.27L2,5.27M12,0C15.05,0 17.8,1.23 19.77,3.23L18.36,4.64C16.75,3 14.5,2 12,2C9.72,2 7.64,2.85 6.06,4.24L4.64,2.82C6.59,1.07 9.17,0 12,0M12,4C13.94,4 15.69,4.78 16.95,6.05L15.55,7.46C14.64,6.56 13.39,6 12,6C10.83,6 9.76,6.4 8.9,7.08L7.5,5.66C8.7,4.62 10.28,4 12,4M15,9C15.56,9 16,9.45 16,10V14.18L13.5,11.69L13.31,11.5L10.82,9H15M10.03,13.3C10.16,14.16 10.84,14.85 11.71,15L10.03,13.3Z" />
    </g>
    <g id="mdi-remote-off" transform="translate(612 108) scale(1.5)" fill="#fff">
      <path d="M2,5.27L3.28,4L21,21.72L19.73,23L16,19.27V22A1,1 0 0,1 15,23H9C8.46,23 8,22.55 8,22V11.27L2,5.27M12,0C15.05,0 17.8,1.23 19.77,3.23L18.36,4.64C16.75,3 14.5,2 12,2C9.72,2 7.64,2.85 6.06,4.24L4.64,2.82C6.59,1.07 9.17,0 12,0M12,4C13.94,4 15.69,4.78 16.95,6.05L15.55,7.46C14.64,6.56 13.39,6 12,6C10.83,6 9.76,6.4 8.9,7.08L7.5,5.66C8.7,4.62 10.28,4 12,4M15,9C15.56,9 16,9.45 16,10V14.18L13.5,11.69L13.31,11.5L10.82,9H15M10.03,13.3C10.16,14.16 10.84,14.85 11.71,15L10.03,13.3Z" />
    </g>
    <g id="mdi-remote-tv" transform="translate(648 108) scale(1.5)" fill="#555">
      <path d="M9,2C7.89,2 7,2.89 7,4V20C7,21.11 7.89,22 9,22H15C16.11,22 17,21.11 17,20V4C17,2.89 16.11,2 15,2H13V4H11V2H9M11,6H13V8H15V10H13V12H11V10H9V8H11V6M9,14H11V16H9V14M13,14H15V16H13V14M9,18H11V20H9V18M13,18H15V20H13V18Z" />
    </g>
    <g id="mdi-remote-tv" transform="translate(684 108) scale(1.5)" fill="#fff">
      <path d="M9,2C7.89,2 7,2.89 7,4V20C7,21.11 7.89,22 9,22H15C16.11,22 17,21.11 17,20V4C17,2.89 16.11,2 15,2H13V4H11V2H9M11,6H13V8H15V10H13V12H11V10H9V8H11V6M9,14H11V16H9V14M13,14H15V16H13V14M9,18H11V20H9V18M13,18H15V20H13V18Z" />
    </g>
    <g id="mdi-remote-tv-off" transform="translate(0 144) scale(1.5)" fill="#555">
      <path d="M2,5.27L3.28,4L20,20.72L18.73,22L17,20.25C16.86,21.24 16,22 15,22H9A2,2 0 0,1 7,20V10.27L2,5.27M9,2H11V4H13V2H15A2,2 0 0,1 17,4V15.18L13,11.18V10H15V8H13V6H11V8H9.82L7,5.18V4A2,2 0 0,1 9,2M9,20H11V18H9V20M13,20H15V18.27L14.73,18H13V20M9,14V16H11V14.27L10.73,14H9Z" />
    </g>
    <g id="mdi-remote-tv-off" transform="translate(36 144) scale(1.5)" fill="#fff">
      <path d="M2,5.27L3.28,4L20,20.72L18.73,22L17,20.25C16.86,21.24 16,22 15,22H9A2,2 0 0,1 7,20V10.27L2,5.27M9,2H11V4H13V2H15A2,2 0 0,1 17,4V15.18L13,11.18V10H15V8H13V6H11V8H9.82L7,5.18V4A2,2 0 0,1 9,2M9,20H11V18H9V20M13,20H15V18.27L14.73,18H13V20M9,14V16H11V14.27L10.73,14H9Z" />
    </g>
    <g id="mdi-rename-box" transform="translate(72 144) scale(1.5)" fill="#555">
      <path d="M18,17H10.5L12.5,15H18M6,17V14.5L13.88,6.65C14.07,6.45 14.39,6.45 14.59,6.65L16.35,8.41C16.55,8.61 16.55,8.92 16.35,9.12L8.47,17M19,3H5C3.89,3 3,3.89 3,5V19A2,2 0 0,0 5,21H19A2,2 0 0,0 21,19V5C21,3.89 20.1,3 19,3Z" />
    </g>
    <g id="mdi-rename-box" transform="translate(108 144) scale(1.5)" fill="#fff">
      <path d="M18,17H10.5L12.5,15H18M6,17V14.5L13.88,6.65C14.07,6.45 14.39,6.45 14.59,6.65L16.35,8.41C16.55,8.61 16.55,8.92 16.35,9.12L8.47,17M19,3H5C3.89,3 3,3.89 3,5V19A2,2 0 0,0 5,21H19A2,2 0 0,0 21,19V5C21,3.89 20.1,3 19,3Z" />
    </g>
    <g id="mdi-reorder-horizontal" transform="translate(144 144) scale(1.5)" fill="#555">
      <path d="M3,15H21V13H3V15M3,19H21V17H3V19M3,11H21V9H3V11M3,5V7H21V5H3Z" />
    </g>
    <g id="mdi-reorder-horizontal" transform="translate(180 144) scale(1.5)" fill="#fff">
      <path d="M3,15H21V13H3V15M3,19H21V17H3V19M3,11H21V9H3V11M3,5V7H21V5H3Z" />
    </g>
    <g id="mdi-reorder-vertical" transform="translate(216 144) scale(1.5)" fill="#555">
      <path d="M9,3V21H11V3H9M5,3V21H7V3H5M13,3V21H15V3H13M19,3H17V21H19V3Z" />
    </g>
    <g id="mdi-reorder-vertical" transform="translate(252 144) scale(1.5)" fill="#fff">
      <path d="M9,3V21H11V3H9M5,3V21H7V3H5M13,3V21H15V3H13M19,3H17V21H19V3Z" />
    </g>
    <g id="mdi-repeat" transform="translate(288 144) scale(1.5)" fill="#555">
      <path d="M17,17H7V14L3,18L7,22V19H19V13H17M7,7H17V10L21,6L17,2V5H5V11H7V7Z" />
    </g>
    <g id="mdi-repeat" transform="translate(324 144) scale(1.5)" fill="#fff">
      <path d="M17,17H7V14L3,18L7,22V19H19V13H17M7,7H17V10L21,6L17,2V5H5V11H7V7Z" />
    </g>
    <g id="mdi-repeat-off" transform="translate(360 144) scale(1.5)" fill="#555">
      <path d="M2,5.27L3.28,4L20,20.72L18.73,22L15.73,19H7V22L3,18L7,14V17H13.73L7,10.27V11H5V8.27L2,5.27M17,13H19V17.18L17,15.18V13M17,5V2L21,6L17,10V7H8.82L6.82,5H17Z" />
    </g>
    <g id="mdi-repeat-off" transform="translate(396 144) scale(1.5)" fill="#fff">
      <path d="M2,5.27L3.28,4L20,20.72L18.73,22L15.73,19H7V22L3,18L7,14V17H13.73L7,10.27V11H5V8.27L2,5.27M17,13H19V17.18L17,15.18V13M17,5V2L21,6L17,10V7H8.82L6.82,5H17Z" />
    </g>
    <g id="mdi-repeat-once" transform="translate(432 144) scale(1.5)" fill="#555">
      <path d="M13,15V9H12L10,10V11H11.5V15M17,17H7V14L3,18L7,22V19H19V13H17M7,7H17V10L21,6L17,2V5H5V11H7V7Z" />
    </g>
    <g id="mdi-repeat-once" transform="translate(468 144) scale(1.5)" fill="#fff">
      <path d="M13,15V9H12L10,10V11H11.5V15M17,17H7V14L3,18L7,22V19H19V13H17M7,7H17V10L21,6L17,2V5H5V11H7V7Z" />
    </g>
    <g id="mdi-replay" transform="translate(504 144) scale(1.5)" fill="#555">
      <path d="M12,5V1L7,6L12,11V7A6,6 0 0,1 18,13A6,6 0 0,1 12,19A6,6 0 0,1 6,13H4A8,8 0 0,0 12,21A8,8 0 0,0 20,13A8,8 0 0,0 12,5Z" />
    </g>
    <g id="mdi-replay" transform="translate(540 144) scale(1.5)" fill="#fff">
      <path d="M12,5V1L7,6L12,11V7A6,6 0 0,1 18,13A6,6 0 0,1 12,19A6,6 0 0,1 6,13H4A8,8 0 0,0 12,21A8,8 0 0,0 20,13A8,8 0 0,0 12,5Z" />
    </g>
    <g id="mdi-reply" transform="translate(576 144) scale(1.5)" fill="#555">
      <path d="M10,9V5L3,12L10,19V14.9C15,14.9 18.5,16.5 21,20C20,15 17,10 10,9Z" />
    </g>
    <g id="mdi-reply" transform="translate(612 144) scale(1.5)" fill="#fff">
      <path d="M10,9V5L3,12L10,19V14.9C15,14.9 18.5,16.5 21,20C20,15 17,10 10,9Z" />
    </g>
    <g id="mdi-reply-all" transform="translate(648 144) scale(1.5)" fill="#555">
      <path d="M13,9V5L6,12L13,19V14.9C18,14.9 21.5,16.5 24,20C23,15 20,10 13,9M7,8V5L0,12L7,19V16L3,12L7,8Z" />
    </g>
    <g id="mdi-reply-all" transform="translate(684 144) scale(1.5)" fill="#fff">
      <path d="M13,9V5L6,12L13,19V14.9C18,14.9 21.5,16.5 24,20C23,15 20,10 13,9M7,8V5L0,12L7,19V16L3,12L7,8Z" />
    </g>
    <g id="mdi-reply-all-outline" transform="translate(0 180) scale(1.5)" fill="#555">
      <path d="M11,9.8V10.7L12.7,10.9C15.3,11.3 17.2,12.3 18.6,13.6C16.9,13.1 15.1,12.8 13,12.8H11V14.1L8.8,12L11,9.8M13,5L6,12L13,19V14.9C18,14.9 21.5,16.5 24,20C23,15 20,10 13,9M7,8V5L0,12L7,19V16L3,12" />
    </g>
    <g id="mdi-reply-all-outline" transform="translate(36 180) scale(1.5)" fill="#fff">
      <path d="M11,9.8V10.7L12.7,10.9C15.3,11.3 17.2,12.3 18.6,13.6C16.9,13.1 15.1,12.8 13,12.8H11V14.1L8.8,12L11,9.8M13,5L6,12L13,19V14.9C18,14.9 21.5,16.5 24,20C23,15 20,10 13,9M7,8V5L0,12L7,19V16L3,12" />
    </g>
    <g id="mdi-reply-circle" transform="translate(72 180) scale(1.5)" fill="#555">
      <path d="M2 12C2 17.5 6.5 22 12 22S22 17.5 22 12 17.5 2 12 2 2 6.5 2 12M5 11L10 6V9C15.06 9.73 17.28 13.33 18 17C16.19 14.43 13.61 13 10 13V16L5 11Z" />
    </g>
    <g id="mdi-reply-circle" transform="translate(108 180) scale(1.5)" fill="#fff">
      <path d="M2 12C2 17.5 6.5 22 12 22S22 17.5 22 12 17.5 2 12 2 2 6.5 2 12M5 11L10 6V9C15.06 9.73 17.28 13.33 18 17C16.19 14.43 13.61 13 10 13V16L5 11Z" />
    </g>
    <g id="mdi-reply-outline" transform="translate(144 180) scale(1.5)" fill="#555">
      <path d="M8,9.8V10.7L9.7,11C12.3,11.4 14.2,12.4 15.6,13.7C13.9,13.2 12.1,12.9 10,12.9H8V14.2L5.8,12L8,9.8M10,5L3,12L10,19V14.9C15,14.9 18.5,16.5 21,20C20,15 17,10 10,9" />
    </g>
    <g id="mdi-reply-outline" transform="translate(180 180) scale(1.5)" fill="#fff">
      <path d="M8,9.8V10.7L9.7,11C12.3,11.4 14.2,12.4 15.6,13.7C13.9,13.2 12.1,12.9 10,12.9H8V14.2L5.8,12L8,9.8M10,5L3,12L10,19V14.9C15,14.9 18.5,16.5 21,20C20,15 17,10 10,9" />
    </g>
    <g id="mdi-reproduction" transform="translate(216 180) scale(1.5)" fill="#555">
      <path d="M12.72,13.15L13.62,12.26C13.6,11 14.31,9.44 15.62,8.14C17.57,6.18 20.11,5.55 21.28,6.72C22.45,7.89 21.82,10.43 19.86,12.38C18.56,13.69 17,14.4 15.74,14.38L14.85,15.28C14.5,15.61 14,15.66 13.6,15.41C12.76,15.71 12,16.08 11.56,16.8C11.03,17.68 11.03,19.1 10.47,19.95C9.91,20.81 8.79,21.1 7.61,21.1C6.43,21.1 5,21 3.95,19.5L6.43,19.92C7,20 8.5,19.39 9.05,18.54C9.61,17.68 9.61,16.27 10.14,15.38C10.61,14.6 11.5,14.23 12.43,13.91C12.42,13.64 12.5,13.36 12.72,13.15M7,2A5,5 0 0,1 12,7A5,5 0 0,1 7,12A5,5 0 0,1 2,7A5,5 0 0,1 7,2M7,4A3,3 0 0,0 4,7A3,3 0 0,0 7,10A3,3 0 0,0 10,7A3,3 0 0,0 7,4Z" />
    </g>
    <g id="mdi-reproduction" transform="translate(252 180) scale(1.5)" fill="#fff">
      <path d="M12.72,13.15L13.62,12.26C13.6,11 14.31,9.44 15.62,8.14C17.57,6.18 20.11,5.55 21.28,6.72C22.45,7.89 21.82,10.43 19.86,12.38C18.56,13.69 17,14.4 15.74,14.38L14.85,15.28C14.5,15.61 14,15.66 13.6,15.41C12.76,15.71 12,16.08 11.56,16.8C11.03,17.68 11.03,19.1 10.47,19.95C9.91,20.81 8.79,21.1 7.61,21.1C6.43,21.1 5,21 3.95,19.5L6.43,19.92C7,20 8.5,19.39 9.05,18.54C9.61,17.68 9.61,16.27 10.14,15.38C10.61,14.6 11.5,14.23 12.43,13.91C12.42,13.64 12.5,13.36 12.72,13.15M7,2A5,5 0 0,1 12,7A5,5 0 0,1 7,12A5,5 0 0,1 2,7A5,5 0 0,1 7,2M7,4A3,3 0 0,0 4,7A3,3 0 0,0 7,10A3,3 0 0,0 10,7A3,3 0 0,0 7,4Z" />
    </g>
    <g id="mdi-resistor" transform="translate(288 180) scale(1.5)" fill="#555">
      <path d="M2,11H7L10.07,15.35L13.11,4L18,11H22V13H17L13.93,8.65L10.89,20L6,13H2V11Z" />
    </g>
    <g id="mdi-resistor" transform="translate(324 180) scale(1.5)" fill="#fff">
      <path d="M2,11H7L10.07,15.35L13.11,4L18,11H22V13H17L13.93,8.65L10.89,20L6,13H2V11Z" />
    </g>
    <g id="mdi-resistor-nodes" transform="translate(360 180) scale(1.5)" fill="#555">
      <path d="M2,11H3.67C4.08,9.83 5.19,9 6.5,9A3,3 0 0,1 9.5,12C9.5,12.65 9.29,13.25 8.94,13.74L10.07,15.35L13.11,4L14.61,6.13L16.7,9.11L17.5,9C18.81,9 19.92,9.83 20.33,11H22V13H20.33C19.92,14.17 18.81,15 17.5,15A3,3 0 0,1 14.5,12C14.5,11.35 14.71,10.75 15.06,10.26L13.93,8.65L10.89,20L7.3,14.89C7.05,14.96 6.78,15 6.5,15C5.19,15 4.08,14.17 3.67,13H2V11M17.5,10.5A1.5,1.5 0 0,0 16,12A1.5,1.5 0 0,0 17.5,13.5A1.5,1.5 0 0,0 19,12A1.5,1.5 0 0,0 17.5,10.5M6.5,10.5A1.5,1.5 0 0,0 5,12A1.5,1.5 0 0,0 6.5,13.5A1.5,1.5 0 0,0 8,12A1.5,1.5 0 0,0 6.5,10.5Z" />
    </g>
    <g id="mdi-resistor-nodes" transform="translate(396 180) scale(1.5)" fill="#fff">
      <path d="M2,11H3.67C4.08,9.83 5.19,9 6.5,9A3,3 0 0,1 9.5,12C9.5,12.65 9.29,13.25 8.94,13.74L10.07,15.35L13.11,4L14.61,6.13L16.7,9.11L17.5,9C18.81,9 19.92,9.83 20.33,11H22V13H20.33C19.92,14.17 18.81,15 17.5,15A3,3 0 0,1 14.5,12C14.5,11.35 14.71,10.75 15.06,10.26L13.93,8.65L10.89,20L7.3,14.89C7.05,14.96 6.78,15 6.5,15C5.19,15 4.08,14.17 3.67,13H2V11M17.5,10.5A1.5,1.5 0 0,0 16,12A1.5,1.5 0 0,0 17.5,13.5A1.5,1.5 0 0,0 19,12A1.5,1.5 0 0,0 17.5,10.5M6.5,10.5A1.5,1.5 0 0,0 5,12A1.5,1.5 0 0,0 6.5,13.5A1.5,1.5 0 0,0 8,12A1.5,1.5 0 0,0 6.5,10.5Z" />
    </g>
    <g id="mdi-resize" transform="translate(432 180) scale(1.5)" fill="#555">
      <path d="M10.59,12L14.59,8H11V6H18V13H16V9.41L12,13.41V16H20V4H8V12H10.59M22,2V18H12V22H2V12H6V2H22M10,14H4V20H10V14Z" />
    </g>
    <g id="mdi-resize" transform="translate(468 180) scale(1.5)" fill="#fff">
      <path d="M10.59,12L14.59,8H11V6H18V13H16V9.41L12,13.41V16H20V4H8V12H10.59M22,2V18H12V22H2V12H6V2H22M10,14H4V20H10V14Z" />
    </g>
    <g id="mdi-resize-bottom-right" transform="translate(504 180) scale(1.5)" fill="#555">
      <path d="M22,22H20V20H22V22M22,18H20V16H22V18M18,22H16V20H18V22M18,18H16V16H18V18M14,22H12V20H14V22M22,14H20V12H22V14Z" />
    </g>
    <g id="mdi-resize-bottom-right" transform="translate(540 180) scale(1.5)" fill="#fff">
      <path d="M22,22H20V20H22V22M22,18H20V16H22V18M18,22H16V20H18V22M18,18H16V16H18V18M14,22H12V20H14V22M22,14H20V12H22V14Z" />
    </g>
    <g id="mdi-responsive" transform="translate(576 180) scale(1.5)" fill="#555">
      <path d="M4,6V16H9V12A2,2 0 0,1 11,10H16A2,2 0 0,1 18,12V16H20V6H4M0,20V18H4A2,2 0 0,1 2,16V6A2,2 0 0,1 4,4H20A2,2 0 0,1 22,6V16A2,2 0 0,1 20,18H24V20H18V20C18,21.11 17.1,22 16,22H11A2,2 0 0,1 9,20H9L0,20M11.5,20A0.5,0.5 0 0,0 11,20.5A0.5,0.5 0 0,0 11.5,21A0.5,0.5 0 0,0 12,20.5A0.5,0.5 0 0,0 11.5,20M15.5,20A0.5,0.5 0 0,0 15,20.5A0.5,0.5 0 0,0 15.5,21A0.5,0.5 0 0,0 16,20.5A0.5,0.5 0 0,0 15.5,20M13,20V21H14V20H13M11,12V19H16V12H11Z" />
    </g>
    <g id="mdi-responsive" transform="translate(612 180) scale(1.5)" fill="#fff">
      <path d="M4,6V16H9V12A2,2 0 0,1 11,10H16A2,2 0 0,1 18,12V16H20V6H4M0,20V18H4A2,2 0 0,1 2,16V6A2,2 0 0,1 4,4H20A2,2 0 0,1 22,6V16A2,2 0 0,1 20,18H24V20H18V20C18,21.11 17.1,22 16,22H11A2,2 0 0,1 9,20H9L0,20M11.5,20A0.5,0.5 0 0,0 11,20.5A0.5,0.5 0 0,0 11.5,21A0.5,0.5 0 0,0 12,20.5A0.5,0.5 0 0,0 11.5,20M15.5,20A0.5,0.5 0 0,0 15,20.5A0.5,0.5 0 0,0 15.5,21A0.5,0.5 0 0,0 16,20.5A0.5,0.5 0 0,0 15.5,20M13,20V21H14V20H13M11,12V19H16V12H11Z" />
    </g>
    <g id="mdi-restart" transform="translate(648 180) scale(1.5)" fill="#555">
      <path d="M12,4C14.1,4 16.1,4.8 17.6,6.3C20.7,9.4 20.7,14.5 17.6,17.6C15.8,19.5 13.3,20.2 10.9,19.9L11.4,17.9C13.1,18.1 14.9,17.5 16.2,16.2C18.5,13.9 18.5,10.1 16.2,7.7C15.1,6.6 13.5,6 12,6V10.6L7,5.6L12,0.6V4M6.3,17.6C3.7,15 3.3,11 5.1,7.9L6.6,9.4C5.5,11.6 5.9,14.4 7.8,16.2C8.3,16.7 8.9,17.1 9.6,17.4L9,19.4C8,19 7.1,18.4 6.3,17.6Z" />
    </g>
    <g id="mdi-restart" transform="translate(684 180) scale(1.5)" fill="#fff">
      <path d="M12,4C14.1,4 16.1,4.8 17.6,6.3C20.7,9.4 20.7,14.5 17.6,17.6C15.8,19.5 13.3,20.2 10.9,19.9L11.4,17.9C13.1,18.1 14.9,17.5 16.2,16.2C18.5,13.9 18.5,10.1 16.2,7.7C15.1,6.6 13.5,6 12,6V10.6L7,5.6L12,0.6V4M6.3,17.6C3.7,15 3.3,11 5.1,7.9L6.6,9.4C5.5,11.6 5.9,14.4 7.8,16.2C8.3,16.7 8.9,17.1 9.6,17.4L9,19.4C8,19 7.1,18.4 6.3,17.6Z" />
    </g>
    <g id="mdi-restart-alert" transform="translate(0 216) scale(1.5)" fill="#555">
      <path d="M10 4.03V.633L5 5.63L10 10.63V6.03C11.5 6.03 13.11 6.63 14.21 7.73C16.5 10.13 16.5 13.93 14.21 16.23C12.91 17.53 11.11 18.13 9.4 17.93L8.9 19.93C11.31 20.23 13.81 19.53 15.61 17.63C18.7 14.53 18.7 9.43 15.61 6.33C14.11 4.83 12.11 4.03 10 4.03M4.31 17.63C5.11 18.43 6 19.03 7 19.43L7.61 17.43C6.91 17.13 6.31 16.73 5.81 16.23C3.91 14.43 3.5 11.63 4.61 9.43L3.11 7.93C1.31 11.03 1.71 15.03 4.31 17.63M20 13H22V7H20V13M20 17H22V15H20V17Z" />
    </g>
    <g id="mdi-restart-alert" transform="translate(36 216) scale(1.5)" fill="#fff">
      <path d="M10 4.03V.633L5 5.63L10 10.63V6.03C11.5 6.03 13.11 6.63 14.21 7.73C16.5 10.13 16.5 13.93 14.21 16.23C12.91 17.53 11.11 18.13 9.4 17.93L8.9 19.93C11.31 20.23 13.81 19.53 15.61 17.63C18.7 14.53 18.7 9.43 15.61 6.33C14.11 4.83 12.11 4.03 10 4.03M4.31 17.63C5.11 18.43 6 19.03 7 19.43L7.61 17.43C6.91 17.13 6.31 16.73 5.81 16.23C3.91 14.43 3.5 11.63 4.61 9.43L3.11 7.93C1.31 11.03 1.71 15.03 4.31 17.63M20 13H22V7H20V13M20 17H22V15H20V17Z" />
    </g>
    <g id="mdi-restart-off" transform="translate(72 216) scale(1.5)" fill="#555">
      <path d="M20.8,22.7L16.6,18.5C14.9,19.7 12.9,20.2 10.9,19.9L11.4,17.9C12.7,18 14,17.7 15.1,17L1.1,3L2.4,1.7L16.5,15.8L17.9,17.2L22.1,21.4L20.8,22.7M12,6C13.5,6 15.1,6.6 16.2,7.8C18,9.6 18.4,12.2 17.5,14.4L19,15.9C20.7,12.9 20.2,9 17.6,6.4C16.1,4.8 14,4 12,4V0.7L7.9,4.7L12,8.8V6M6.6,9.4L5.1,7.9C3.3,11 3.7,15 6.3,17.7C7.1,18.4 8,19 9,19.4L9.5,17.4C8.9,17.1 8.3,16.7 7.7,16.2C5.9,14.4 5.5,11.6 6.6,9.4Z" />
    </g>
    <g id="mdi-restart-off" transform="translate(108 216) scale(1.5)" fill="#fff">
      <path d="M20.8,22.7L16.6,18.5C14.9,19.7 12.9,20.2 10.9,19.9L11.4,17.9C12.7,18 14,17.7 15.1,17L1.1,3L2.4,1.7L16.5,15.8L17.9,17.2L22.1,21.4L20.8,22.7M12,6C13.5,6 15.1,6.6 16.2,7.8C18,9.6 18.4,12.2 17.5,14.4L19,15.9C20.7,12.9 20.2,9 17.6,6.4C16.1,4.8 14,4 12,4V0.7L7.9,4.7L12,8.8V6M6.6,9.4L5.1,7.9C3.3,11 3.7,15 6.3,17.7C7.1,18.4 8,19 9,19.4L9.5,17.4C8.9,17.1 8.3,16.7 7.7,16.2C5.9,14.4 5.5,11.6 6.6,9.4Z" />
    </g>
    <g id="mdi-restore" transform="translate(144 216) scale(1.5)" fill="#555">
      <path d="M13,3A9,9 0 0,0 4,12H1L4.89,15.89L4.96,16.03L9,12H6A7,7 0 0,1 13,5A7,7 0 0,1 20,12A7,7 0 0,1 13,19C11.07,19 9.32,18.21 8.06,16.94L6.64,18.36C8.27,20 10.5,21 13,21A9,9 0 0,0 22,12A9,9 0 0,0 13,3Z" />
    </g>
    <g id="mdi-restore" transform="translate(180 216) scale(1.5)" fill="#fff">
      <path d="M13,3A9,9 0 0,0 4,12H1L4.89,15.89L4.96,16.03L9,12H6A7,7 0 0,1 13,5A7,7 0 0,1 20,12A7,7 0 0,1 13,19C11.07,19 9.32,18.21 8.06,16.94L6.64,18.36C8.27,20 10.5,21 13,21A9,9 0 0,0 22,12A9,9 0 0,0 13,3Z" />
    </g>
    <g id="mdi-restore-alert" transform="translate(216 216) scale(1.5)" fill="#555">
      <path d="M13 3C8 3 4 7 4 12H1L4.9 15.9L5 16L9 12H6C6 8.1 9.1 5 13 5S20 8.1 20 12 16.9 19 13 19C11.1 19 9.3 18.2 8.1 16.9L6.7 18.3C8.3 20 10.5 21 13 21C18 21 22 17 22 12S18 3 13 3M12 15H14V17H12V15M12 7H14V13H12V7" />
    </g>
    <g id="mdi-restore-alert" transform="translate(252 216) scale(1.5)" fill="#fff">
      <path d="M13 3C8 3 4 7 4 12H1L4.9 15.9L5 16L9 12H6C6 8.1 9.1 5 13 5S20 8.1 20 12 16.9 19 13 19C11.1 19 9.3 18.2 8.1 16.9L6.7 18.3C8.3 20 10.5 21 13 21C18 21 22 17 22 12S18 3 13 3M12 15H14V17H12V15M12 7H14V13H12V7" />
    </g>
    <g id="mdi-rewind" transform="translate(288 216) scale(1.5)" fill="#555">
      <path d="M11.5,12L20,18V6M11,18V6L2.5,12L11,18Z" />
    </g>
    <g id="mdi-rewind" transform="translate(324 216) scale(1.5)" fill="#fff">
      <path d="M11.5,12L20,18V6M11,18V6L2.5,12L11,18Z" />
    </g>
    <g id="mdi-rewind-10" transform="translate(360 216) scale(1.5)" fill="#555">
      <path d="M12.5,3C17.15,3 21.08,6.03 22.47,10.22L20.1,11C19.05,7.81 16.04,5.5 12.5,5.5C10.54,5.5 8.77,6.22 7.38,7.38L10,10H3V3L5.6,5.6C7.45,4 9.85,3 12.5,3M10,12V22H8V14H6V12H10M18,14V20C18,21.11 17.11,22 16,22H14A2,2 0 0,1 12,20V14A2,2 0 0,1 14,12H16C17.11,12 18,12.9 18,14M14,14V20H16V14H14Z" />
    </g>
    <g id="mdi-rewind-10" transform="translate(396 216) scale(1.5)" fill="#fff">
      <path d="M12.5,3C17.15,3 21.08,6.03 22.47,10.22L20.1,11C19.05,7.81 16.04,5.5 12.5,5.5C10.54,5.5 8.77,6.22 7.38,7.38L10,10H3V3L5.6,5.6C7.45,4 9.85,3 12.5,3M10,12V22H8V14H6V12H10M18,14V20C18,21.11 17.11,22 16,22H14A2,2 0 0,1 12,20V14A2,2 0 0,1 14,12H16C17.11,12 18,12.9 18,14M14,14V20H16V14H14Z" />
    </g>
    <g id="mdi-rewind-30" transform="translate(432 216) scale(1.5)" fill="#555">
      <path d="M19,14V20C19,21.11 18.11,22 17,22H15A2,2 0 0,1 13,20V14A2,2 0 0,1 15,12H17C18.11,12 19,12.9 19,14M15,14V20H17V14H15M11,20C11,21.11 10.1,22 9,22H5V20H9V18H7V16H9V14H5V12H9A2,2 0 0,1 11,14V15.5A1.5,1.5 0 0,1 9.5,17A1.5,1.5 0 0,1 11,18.5V20M12.5,3C17.15,3 21.08,6.03 22.47,10.22L20.1,11C19.05,7.81 16.04,5.5 12.5,5.5C10.54,5.5 8.77,6.22 7.38,7.38L10,10H3V3L5.6,5.6C7.45,4 9.85,3 12.5,3Z" />
    </g>
    <g id="mdi-rewind-30" transform="translate(468 216) scale(1.5)" fill="#fff">
      <path d="M19,14V20C19,21.11 18.11,22 17,22H15A2,2 0 0,1 13,20V14A2,2 0 0,1 15,12H17C18.11,12 19,12.9 19,14M15,14V20H17V14H15M11,20C11,21.11 10.1,22 9,22H5V20H9V18H7V16H9V14H5V12H9A2,2 0 0,1 11,14V15.5A1.5,1.5 0 0,1 9.5,17A1.5,1.5 0 0,1 11,18.5V20M12.5,3C17.15,3 21.08,6.03 22.47,10.22L20.1,11C19.05,7.81 16.04,5.5 12.5,5.5C10.54,5.5 8.77,6.22 7.38,7.38L10,10H3V3L5.6,5.6C7.45,4 9.85,3 12.5,3Z" />
    </g>
    <g id="mdi-rewind-5" transform="translate(504 216) scale(1.5)" fill="#555">
      <path d="M12.5 3C17.15 3 21.08 6.03 22.47 10.22L20.1 11C19.05 7.81 16.04 5.5 12.5 5.5C10.54 5.5 8.77 6.22 7.38 7.38L10 10H3V3L5.6 5.6C7.45 4 9.85 3 12.5 3M9 12H15V14H11V16H13C14.11 16 15 16.9 15 18V20C15 21.11 14.11 22 13 22H9V20H13V18H9V12Z" />
    </g>
    <g id="mdi-rewind-5" transform="translate(540 216) scale(1.5)" fill="#fff">
      <path d="M12.5 3C17.15 3 21.08 6.03 22.47 10.22L20.1 11C19.05 7.81 16.04 5.5 12.5 5.5C10.54 5.5 8.77 6.22 7.38 7.38L10 10H3V3L5.6 5.6C7.45 4 9.85 3 12.5 3M9 12H15V14H11V16H13C14.11 16 15 16.9 15 18V20C15 21.11 14.11 22 13 22H9V20H13V18H9V12Z" />
    </g>
    <g id="mdi-rewind-60" transform="translate(576 216) scale(1.5)" fill="#555">
      <path d="M19 14V20C19 21.1 18.1 22 17 22H15C13.9 22 13 21.1 13 20V14C13 12.9 13.9 12 15 12H17C18.1 12 19 12.9 19 14M15 14V20H17V14H15M12.5 3C17.1 3 21.1 6 22.5 10.2L20.1 11C19 7.8 16 5.5 12.5 5.5C10.5 5.5 8.8 6.2 7.4 7.4L10 10H3V3L5.6 5.6C7.4 4 9.9 3 12.5 3M7 12C5.9 12 5 12.9 5 14V20C5 21.1 5.9 22 7 22H9C10.1 22 11 21.1 11 20V18C11 16.9 10.1 16 9 16H7V14H11V12H7M7 18H9V20H7V18Z" />
    </g>
    <g id="mdi-rewind-60" transform="translate(612 216) scale(1.5)" fill="#fff">
      <path d="M19 14V20C19 21.1 18.1 22 17 22H15C13.9 22 13 21.1 13 20V14C13 12.9 13.9 12 15 12H17C18.1 12 19 12.9 19 14M15 14V20H17V14H15M12.5 3C17.1 3 21.1 6 22.5 10.2L20.1 11C19 7.8 16 5.5 12.5 5.5C10.5 5.5 8.8 6.2 7.4 7.4L10 10H3V3L5.6 5.6C7.4 4 9.9 3 12.5 3M7 12C5.9 12 5 12.9 5 14V20C5 21.1 5.9 22 7 22H9C10.1 22 11 21.1 11 20V18C11 16.9 10.1 16 9 16H7V14H11V12H7M7 18H9V20H7V18Z" />
    </g>
    <g id="mdi-rewind-outline" transform="translate(648 216) scale(1.5)" fill="#555">
      <path d="M10,9.9L7,12L10,14.1V9.9M19,9.9L16,12L19,14.1V9.9M12,6V18L3.5,12L12,6M21,6V18L12.5,12L21,6Z" />
    </g>
    <g id="mdi-rewind-outline" transform="translate(684 216) scale(1.5)" fill="#fff">
      <path d="M10,9.9L7,12L10,14.1V9.9M19,9.9L16,12L19,14.1V9.9M12,6V18L3.5,12L12,6M21,6V18L12.5,12L21,6Z" />
    </g>
    <g id="mdi-rhombus" transform="translate(0 252) scale(1.5)" fill="#555">
      <path d="M12 2C11.5 2 11 2.19 10.59 2.59L2.59 10.59C1.8 11.37 1.8 12.63 2.59 13.41L10.59 21.41C11.37 22.2 12.63 22.2 13.41 21.41L21.41 13.41C22.2 12.63 22.2 11.37 21.41 10.59L13.41 2.59C13 2.19 12.5 2 12 2Z" />
    </g>
    <g id="mdi-rhombus" transform="translate(36 252) scale(1.5)" fill="#fff">
      <path d="M12 2C11.5 2 11 2.19 10.59 2.59L2.59 10.59C1.8 11.37 1.8 12.63 2.59 13.41L10.59 21.41C11.37 22.2 12.63 22.2 13.41 21.41L21.41 13.41C22.2 12.63 22.2 11.37 21.41 10.59L13.41 2.59C13 2.19 12.5 2 12 2Z" />
    </g>
    <g id="mdi-rhombus-medium" transform="translate(72 252) scale(1.5)" fill="#555">
      <path d="M12 6.46C11.72 6.46 11.44 6.56 11.22 6.78L6.78 11.22C6.35 11.65 6.35 12.35 6.78 12.78L11.22 17.22C11.65 17.65 12.35 17.65 12.78 17.22L17.22 12.78C17.65 12.35 17.65 11.65 17.22 11.22L12.78 6.78C12.56 6.56 12.28 6.46 12 6.46Z" />
    </g>
    <g id="mdi-rhombus-medium" transform="translate(108 252) scale(1.5)" fill="#fff">
      <path d="M12 6.46C11.72 6.46 11.44 6.56 11.22 6.78L6.78 11.22C6.35 11.65 6.35 12.35 6.78 12.78L11.22 17.22C11.65 17.65 12.35 17.65 12.78 17.22L17.22 12.78C17.65 12.35 17.65 11.65 17.22 11.22L12.78 6.78C12.56 6.56 12.28 6.46 12 6.46Z" />
    </g>
    <g id="mdi-rhombus-medium-outline" transform="translate(144 252) scale(1.5)" fill="#555">
      <path d="M12 6.46C11.72 6.46 11.44 6.56 11.22 6.78L6.78 11.22C6.35 11.65 6.35 12.35 6.78 12.78L11.22 17.22C11.65 17.65 12.35 17.65 12.78 17.22L17.22 12.78C17.65 12.35 17.65 11.65 17.22 11.22L12.78 6.78C12.56 6.56 12.28 6.46 12 6.46M12 8.83L15.17 12L12 15.17L8.83 12L12 8.83Z" />
    </g>
    <g id="mdi-rhombus-medium-outline" transform="translate(180 252) scale(1.5)" fill="#fff">
      <path d="M12 6.46C11.72 6.46 11.44 6.56 11.22 6.78L6.78 11.22C6.35 11.65 6.35 12.35 6.78 12.78L11.22 17.22C11.65 17.65 12.35 17.65 12.78 17.22L17.22 12.78C17.65 12.35 17.65 11.65 17.22 11.22L12.78 6.78C12.56 6.56 12.28 6.46 12 6.46M12 8.83L15.17 12L12 15.17L8.83 12L12 8.83Z" />
    </g>
    <g id="mdi-rhombus-outline" transform="translate(216 252) scale(1.5)" fill="#555">
      <path d="M12 2C11.5 2 11 2.19 10.59 2.59L2.59 10.59C1.8 11.37 1.8 12.63 2.59 13.41L10.59 21.41C11.37 22.2 12.63 22.2 13.41 21.41L21.41 13.41C22.2 12.63 22.2 11.37 21.41 10.59L13.41 2.59C13 2.19 12.5 2 12 2M12 4L20 12L12 20L4 12Z" />
    </g>
    <g id="mdi-rhombus-outline" transform="translate(252 252) scale(1.5)" fill="#fff">
      <path d="M12 2C11.5 2 11 2.19 10.59 2.59L2.59 10.59C1.8 11.37 1.8 12.63 2.59 13.41L10.59 21.41C11.37 22.2 12.63 22.2 13.41 21.41L21.41 13.41C22.2 12.63 22.2 11.37 21.41 10.59L13.41 2.59C13 2.19 12.5 2 12 2M12 4L20 12L12 20L4 12Z" />
    </g>
    <g id="mdi-rhombus-split" transform="translate(288 252) scale(1.5)" fill="#555">
      <path d="M12 2C11.5 2 11 2.19 10.59 2.59L7.29 5.88L12 10.58L16.71 5.88L13.41 2.59C13 2.19 12.5 2 12 2M5.88 7.29L2.59 10.59C1.8 11.37 1.8 12.63 2.59 13.41L5.88 16.71L10.58 12L5.88 7.29M18.12 7.29L13.42 12L18.12 16.71L21.41 13.41C22.2 12.63 22.2 11.37 21.41 10.59L18.12 7.29M12 13.42L7.29 18.12L10.59 21.41C11.37 22.2 12.63 22.2 13.41 21.41L16.71 18.12L12 13.42Z" />
    </g>
    <g id="mdi-rhombus-split" transform="translate(324 252) scale(1.5)" fill="#fff">
      <path d="M12 2C11.5 2 11 2.19 10.59 2.59L7.29 5.88L12 10.58L16.71 5.88L13.41 2.59C13 2.19 12.5 2 12 2M5.88 7.29L2.59 10.59C1.8 11.37 1.8 12.63 2.59 13.41L5.88 16.71L10.58 12L5.88 7.29M18.12 7.29L13.42 12L18.12 16.71L21.41 13.41C22.2 12.63 22.2 11.37 21.41 10.59L18.12 7.29M12 13.42L7.29 18.12L10.59 21.41C11.37 22.2 12.63 22.2 13.41 21.41L16.71 18.12L12 13.42Z" />
    </g>
    <g id="mdi-rhombus-split-outline" transform="translate(360 252) scale(1.5)" fill="#555">
      <path d="M12 2C11.5 2 11 2.19 10.59 2.59L2.59 10.59C1.8 11.37 1.8 12.63 2.59 13.41L10.59 21.41C11.37 22.2 12.63 22.2 13.41 21.41L21.41 13.41C22.2 12.63 22.2 11.37 21.41 10.59L13.41 2.59C13 2.19 12.5 2 12 2M12 4L15.29 7.29L12 10.59L8.71 7.29L12 4M7.29 8.71L10.59 12L7.29 15.29L4 12L7.29 8.71M16.71 8.71L20 12L16.71 15.29L13.41 12L16.71 8.71M12 13.41L15.29 16.71L12 20L8.71 16.71L12 13.41Z" />
    </g>
    <g id="mdi-rhombus-split-outline" transform="translate(396 252) scale(1.5)" fill="#fff">
      <path d="M12 2C11.5 2 11 2.19 10.59 2.59L2.59 10.59C1.8 11.37 1.8 12.63 2.59 13.41L10.59 21.41C11.37 22.2 12.63 22.2 13.41 21.41L21.41 13.41C22.2 12.63 22.2 11.37 21.41 10.59L13.41 2.59C13 2.19 12.5 2 12 2M12 4L15.29 7.29L12 10.59L8.71 7.29L12 4M7.29 8.71L10.59 12L7.29 15.29L4 12L7.29 8.71M16.71 8.71L20 12L16.71 15.29L13.41 12L16.71 8.71M12 13.41L15.29 16.71L12 20L8.71 16.71L12 13.41Z" />
    </g>
    <g id="mdi-ribbon" transform="translate(432 252) scale(1.5)" fill="#555">
      <path d="M13.41,19.31L16.59,22.5L18,21.07L14.83,17.9M15.54,11.53H15.53L12,15.07L8.47,11.53H8.46V11.53C7.56,10.63 7,9.38 7,8A5,5 0 0,1 12,3A5,5 0 0,1 17,8C17,9.38 16.44,10.63 15.54,11.53M16.9,13C18.2,11.73 19,9.96 19,8A7,7 0 0,0 12,1A7,7 0 0,0 5,8C5,9.96 5.81,11.73 7.1,13V13L10.59,16.5L6,21.07L7.41,22.5L16.9,13Z" />
    </g>
    <g id="mdi-ribbon" transform="translate(468 252) scale(1.5)" fill="#fff">
      <path d="M13.41,19.31L16.59,22.5L18,21.07L14.83,17.9M15.54,11.53H15.53L12,15.07L8.47,11.53H8.46V11.53C7.56,10.63 7,9.38 7,8A5,5 0 0,1 12,3A5,5 0 0,1 17,8C17,9.38 16.44,10.63 15.54,11.53M16.9,13C18.2,11.73 19,9.96 19,8A7,7 0 0,0 12,1A7,7 0 0,0 5,8C5,9.96 5.81,11.73 7.1,13V13L10.59,16.5L6,21.07L7.41,22.5L16.9,13Z" />
    </g>
    <g id="mdi-rice" transform="translate(504 252) scale(1.5)" fill="#555">
      <path d="M22,11H19.7C19.4,9.9 18.9,8.8 18.2,8L21.6,2.6L19.9,1.5L16.7,6.6C16.3,6.3 16,6.1 15.5,5.9L16.4,2.3L14.5,1.8L13.7,5.2C13.1,5.1 12.6,5 12,5C8.3,5 5.2,7.6 4.3,11H2C2,15.1 4.5,18.6 8,20.2V22H16V20.2C19.5,18.6 22,15.1 22,11M12,7C14.6,7 16.8,8.7 17.6,11H6.4C7.2,8.7 9.4,7 12,7Z" />
    </g>
    <g id="mdi-rice" transform="translate(540 252) scale(1.5)" fill="#fff">
      <path d="M22,11H19.7C19.4,9.9 18.9,8.8 18.2,8L21.6,2.6L19.9,1.5L16.7,6.6C16.3,6.3 16,6.1 15.5,5.9L16.4,2.3L14.5,1.8L13.7,5.2C13.1,5.1 12.6,5 12,5C8.3,5 5.2,7.6 4.3,11H2C2,15.1 4.5,18.6 8,20.2V22H16V20.2C19.5,18.6 22,15.1 22,11M12,7C14.6,7 16.8,8.7 17.6,11H6.4C7.2,8.7 9.4,7 12,7Z" />
    </g>
    <g id="mdi-rickshaw" transform="translate(576 252) scale(1.5)" fill="#555">
      <path d="M20 14.05V12.73C20 12.26 19.84 11.8 19.54 11.44L15.6 6.72C15.22 6.26 14.66 6 14.06 6H4C2.9 6 2 6.9 2 8V15C2 16.1 2.9 17 4 17H4.05C4.28 18.14 5.29 19 6.5 19S8.72 18.14 8.95 17H17.05C17.28 18.14 18.29 19 19.5 19C20.88 19 22 17.88 22 16.5C22 15.29 21.14 14.28 20 14.05M3.5 8C3.5 7.73 3.73 7.5 4 7.5H7V12H3.5V8M6.5 17.5C5.95 17.5 5.5 17.05 5.5 16.5S5.95 15.5 6.5 15.5 7.5 15.95 7.5 16.5 7.05 17.5 6.5 17.5M13 15.5H9V14H11V12H9V7.5H13V15.5M15 8.34L18.05 12H15V8.34M19.5 17.5C18.95 17.5 18.5 17.05 18.5 16.5S18.95 15.5 19.5 15.5 20.5 15.95 20.5 16.5 20.05 17.5 19.5 17.5Z" />
    </g>
    <g id="mdi-rickshaw" transform="translate(612 252) scale(1.5)" fill="#fff">
      <path d="M20 14.05V12.73C20 12.26 19.84 11.8 19.54 11.44L15.6 6.72C15.22 6.26 14.66 6 14.06 6H4C2.9 6 2 6.9 2 8V15C2 16.1 2.9 17 4 17H4.05C4.28 18.14 5.29 19 6.5 19S8.72 18.14 8.95 17H17.05C17.28 18.14 18.29 19 19.5 19C20.88 19 22 17.88 22 16.5C22 15.29 21.14 14.28 20 14.05M3.5 8C3.5 7.73 3.73 7.5 4 7.5H7V12H3.5V8M6.5 17.5C5.95 17.5 5.5 17.05 5.5 16.5S5.95 15.5 6.5 15.5 7.5 15.95 7.5 16.5 7.05 17.5 6.5 17.5M13 15.5H9V14H11V12H9V7.5H13V15.5M15 8.34L18.05 12H15V8.34M19.5 17.5C18.95 17.5 18.5 17.05 18.5 16.5S18.95 15.5 19.5 15.5 20.5 15.95 20.5 16.5 20.05 17.5 19.5 17.5Z" />
    </g>
    <g id="mdi-rickshaw-electric" transform="translate(648 252) scale(1.5)" fill="#555">
      <path d="M20 12.05V10.73C20 10.26 19.84 9.8 19.54 9.44L15.6 4.72C15.22 4.26 14.66 4 14.06 4H4C2.9 4 2 4.9 2 6V13C2 14.1 2.9 15 4 15H4.05C4.28 16.14 5.29 17 6.5 17S8.72 16.14 8.95 15H17.05C17.28 16.14 18.29 17 19.5 17C20.88 17 22 15.88 22 14.5C22 13.29 21.14 12.28 20 12.05M3.5 6C3.5 5.73 3.73 5.5 4 5.5H7V10H3.5V6M6.5 15.5C5.95 15.5 5.5 15.05 5.5 14.5S5.95 13.5 6.5 13.5 7.5 13.95 7.5 14.5 7.05 15.5 6.5 15.5M13 13.5H9V12H11V10H9V5.5H13V13.5M15 6.34L18.05 10H15V6.34M19.5 15.5C18.95 15.5 18.5 15.05 18.5 14.5S18.95 13.5 19.5 13.5 20.5 13.95 20.5 14.5 20.05 15.5 19.5 15.5M11 20H7L13 23V21H17L11 18V20Z" />
    </g>
    <g id="mdi-rickshaw-electric" transform="translate(684 252) scale(1.5)" fill="#fff">
      <path d="M20 12.05V10.73C20 10.26 19.84 9.8 19.54 9.44L15.6 4.72C15.22 4.26 14.66 4 14.06 4H4C2.9 4 2 4.9 2 6V13C2 14.1 2.9 15 4 15H4.05C4.28 16.14 5.29 17 6.5 17S8.72 16.14 8.95 15H17.05C17.28 16.14 18.29 17 19.5 17C20.88 17 22 15.88 22 14.5C22 13.29 21.14 12.28 20 12.05M3.5 6C3.5 5.73 3.73 5.5 4 5.5H7V10H3.5V6M6.5 15.5C5.95 15.5 5.5 15.05 5.5 14.5S5.95 13.5 6.5 13.5 7.5 13.95 7.5 14.5 7.05 15.5 6.5 15.5M13 13.5H9V12H11V10H9V5.5H13V13.5M15 6.34L18.05 10H15V6.34M19.5 15.5C18.95 15.5 18.5 15.05 18.5 14.5S18.95 13.5 19.5 13.5 20.5 13.95 20.5 14.5 20.05 15.5 19.5 15.5M11 20H7L13 23V21H17L11 18V20Z" />
    </g>
    <g id="mdi-ring" transform="translate(0 288) scale(1.5)" fill="#555">
      <path d="M12,10L8,4.4L9.6,2H14.4L16,4.4L12,10M15.5,6.8L14.3,8.5C16.5,9.4 18,11.5 18,14A6,6 0 0,1 12,20A6,6 0 0,1 6,14C6,11.5 7.5,9.4 9.7,8.5L8.5,6.8C5.8,8.1 4,10.8 4,14A8,8 0 0,0 12,22A8,8 0 0,0 20,14C20,10.8 18.2,8.1 15.5,6.8Z" />
    </g>
    <g id="mdi-ring" transform="translate(36 288) scale(1.5)" fill="#fff">
      <path d="M12,10L8,4.4L9.6,2H14.4L16,4.4L12,10M15.5,6.8L14.3,8.5C16.5,9.4 18,11.5 18,14A6,6 0 0,1 12,20A6,6 0 0,1 6,14C6,11.5 7.5,9.4 9.7,8.5L8.5,6.8C5.8,8.1 4,10.8 4,14A8,8 0 0,0 12,22A8,8 0 0,0 20,14C20,10.8 18.2,8.1 15.5,6.8Z" />
    </g>
    <g id="mdi-rivet" transform="translate(72 288) scale(1.5)" fill="#555">
      <path d="M11.43,2C10.61,2 9.94,2.65 9.94,3.5C9.94,4.64 9.94,5.8 9.94,6.96H7.95V7.95H15.91V6.96H13.92C13.92,5.8 13.92,4.64 13.92,3.5C13.92,2.65 13.25,2 12.43,2H11.43M10.94,8.95V21.87L11.93,22.87L12.92,21.87V8.95H10.94Z" />
    </g>
    <g id="mdi-rivet" transform="translate(108 288) scale(1.5)" fill="#fff">
      <path d="M11.43,2C10.61,2 9.94,2.65 9.94,3.5C9.94,4.64 9.94,5.8 9.94,6.96H7.95V7.95H15.91V6.96H13.92C13.92,5.8 13.92,4.64 13.92,3.5C13.92,2.65 13.25,2 12.43,2H11.43M10.94,8.95V21.87L11.93,22.87L12.92,21.87V8.95H10.94Z" />
    </g>
    <g id="mdi-road" transform="translate(144 288) scale(1.5)" fill="#555">
      <path d="M11,16H13V20H11M11,10H13V14H11M11,4H13V8H11M4,22H20V2H4V22Z" />
    </g>
    <g id="mdi-road" transform="translate(180 288) scale(1.5)" fill="#fff">
      <path d="M11,16H13V20H11M11,10H13V14H11M11,4H13V8H11M4,22H20V2H4V22Z" />
    </g>
    <g id="mdi-road-variant" transform="translate(216 288) scale(1.5)" fill="#555">
      <path d="M18.1,4.8C18,4.3 17.6,4 17.1,4H13L13.2,7H10.8L11,4H6.8C6.3,4 5.9,4.4 5.8,4.8L3.1,18.8C3,19.4 3.5,20 4.1,20H10L10.3,15H13.7L14,20H19.8C20.4,20 20.9,19.4 20.8,18.8L18.1,4.8M10.4,13L10.6,9H13.2L13.4,13H10.4Z" />
    </g>
    <g id="mdi-road-variant" transform="translate(252 288) scale(1.5)" fill="#fff">
      <path d="M18.1,4.8C18,4.3 17.6,4 17.1,4H13L13.2,7H10.8L11,4H6.8C6.3,4 5.9,4.4 5.8,4.8L3.1,18.8C3,19.4 3.5,20 4.1,20H10L10.3,15H13.7L14,20H19.8C20.4,20 20.9,19.4 20.8,18.8L18.1,4.8M10.4,13L10.6,9H13.2L13.4,13H10.4Z" />
    </g>
    <g id="mdi-robber" transform="translate(288 288) scale(1.5)" fill="#555">
      <path d="M10.7 12.5C10.7 12.8 9.4 13.2 8.4 13.2S6.3 12.5 6.3 12.3C6.3 12 7 11.1 8.6 11C9.5 10.9 10.5 11.5 10.7 12.5M15.4 11C14.4 10.9 13.5 11.5 13.3 12.5C13.3 12.8 14.5 13.2 15.6 13.2C16.7 13.2 17.7 12.5 17.7 12.3S17 11.1 15.4 11M22 12C22 17.5 17.5 22 12 22S2 17.5 2 12 6.5 2 12 2 22 6.5 22 12M20 11.2C20 9.2 19.3 8.5 16.7 8.5C14.1 8.5 13.3 9.6 12 9.6S10 8.5 7.3 8.5 4 9.1 4 11.2C4 14.6 5.5 16.5 7.6 16.5C9.2 16.5 10.4 14.5 12 14.5S14.7 16.5 16.4 16.5C18.5 16.5 20 14.6 20 11.2Z" />
    </g>
    <g id="mdi-robber" transform="translate(324 288) scale(1.5)" fill="#fff">
      <path d="M10.7 12.5C10.7 12.8 9.4 13.2 8.4 13.2S6.3 12.5 6.3 12.3C6.3 12 7 11.1 8.6 11C9.5 10.9 10.5 11.5 10.7 12.5M15.4 11C14.4 10.9 13.5 11.5 13.3 12.5C13.3 12.8 14.5 13.2 15.6 13.2C16.7 13.2 17.7 12.5 17.7 12.3S17 11.1 15.4 11M22 12C22 17.5 17.5 22 12 22S2 17.5 2 12 6.5 2 12 2 22 6.5 22 12M20 11.2C20 9.2 19.3 8.5 16.7 8.5C14.1 8.5 13.3 9.6 12 9.6S10 8.5 7.3 8.5 4 9.1 4 11.2C4 14.6 5.5 16.5 7.6 16.5C9.2 16.5 10.4 14.5 12 14.5S14.7 16.5 16.4 16.5C18.5 16.5 20 14.6 20 11.2Z" />
    </g>
    <g id="mdi-robot" transform="translate(360 288) scale(1.5)" fill="#555">
      <path d="M12,2A2,2 0 0,1 14,4C14,4.74 13.6,5.39 13,5.73V7H14A7,7 0 0,1 21,14H22A1,1 0 0,1 23,15V18A1,1 0 0,1 22,19H21V20A2,2 0 0,1 19,22H5A2,2 0 0,1 3,20V19H2A1,1 0 0,1 1,18V15A1,1 0 0,1 2,14H3A7,7 0 0,1 10,7H11V5.73C10.4,5.39 10,4.74 10,4A2,2 0 0,1 12,2M7.5,13A2.5,2.5 0 0,0 5,15.5A2.5,2.5 0 0,0 7.5,18A2.5,2.5 0 0,0 10,15.5A2.5,2.5 0 0,0 7.5,13M16.5,13A2.5,2.5 0 0,0 14,15.5A2.5,2.5 0 0,0 16.5,18A2.5,2.5 0 0,0 19,15.5A2.5,2.5 0 0,0 16.5,13Z" />
    </g>
    <g id="mdi-robot" transform="translate(396 288) scale(1.5)" fill="#fff">
      <path d="M12,2A2,2 0 0,1 14,4C14,4.74 13.6,5.39 13,5.73V7H14A7,7 0 0,1 21,14H22A1,1 0 0,1 23,15V18A1,1 0 0,1 22,19H21V20A2,2 0 0,1 19,22H5A2,2 0 0,1 3,20V19H2A1,1 0 0,1 1,18V15A1,1 0 0,1 2,14H3A7,7 0 0,1 10,7H11V5.73C10.4,5.39 10,4.74 10,4A2,2 0 0,1 12,2M7.5,13A2.5,2.5 0 0,0 5,15.5A2.5,2.5 0 0,0 7.5,18A2.5,2.5 0 0,0 10,15.5A2.5,2.5 0 0,0 7.5,13M16.5,13A2.5,2.5 0 0,0 14,15.5A2.5,2.5 0 0,0 16.5,18A2.5,2.5 0 0,0 19,15.5A2.5,2.5 0 0,0 16.5,13Z" />
    </g>
    <g id="mdi-robot-angry" transform="translate(432 288) scale(1.5)" fill="#555">
      <path d="M22 14H21C21 10.13 17.87 7 14 7H13V5.73C13.6 5.39 14 4.74 14 4C14 2.9 13.11 2 12 2S10 2.9 10 4C10 4.74 10.4 5.39 11 5.73V7H10C6.13 7 3 10.13 3 14H2C1.45 14 1 14.45 1 15V18C1 18.55 1.45 19 2 19H3V20C3 21.11 3.9 22 5 22H19C20.11 22 21 21.11 21 20V19H22C22.55 19 23 18.55 23 18V15C23 14.45 22.55 14 22 14M7.5 18C6.12 18 5 16.88 5 15.5C5 14.68 5.4 13.96 6 13.5L9.83 16.38C9.5 17.32 8.57 18 7.5 18M16.5 18C15.43 18 14.5 17.32 14.17 16.38L18 13.5C18.6 13.96 19 14.68 19 15.5C19 16.88 17.88 18 16.5 18Z" />
    </g>
    <g id="mdi-robot-angry" transform="translate(468 288) scale(1.5)" fill="#fff">
      <path d="M22 14H21C21 10.13 17.87 7 14 7H13V5.73C13.6 5.39 14 4.74 14 4C14 2.9 13.11 2 12 2S10 2.9 10 4C10 4.74 10.4 5.39 11 5.73V7H10C6.13 7 3 10.13 3 14H2C1.45 14 1 14.45 1 15V18C1 18.55 1.45 19 2 19H3V20C3 21.11 3.9 22 5 22H19C20.11 22 21 21.11 21 20V19H22C22.55 19 23 18.55 23 18V15C23 14.45 22.55 14 22 14M7.5 18C6.12 18 5 16.88 5 15.5C5 14.68 5.4 13.96 6 13.5L9.83 16.38C9.5 17.32 8.57 18 7.5 18M16.5 18C15.43 18 14.5 17.32 14.17 16.38L18 13.5C18.6 13.96 19 14.68 19 15.5C19 16.88 17.88 18 16.5 18Z" />
    </g>
    <g id="mdi-robot-angry-outline" transform="translate(504 288) scale(1.5)" fill="#555">
      <path d="M22 14H21C21 10.13 17.87 7 14 7H13V5.73C13.6 5.39 14 4.74 14 4C14 2.9 13.11 2 12 2S10 2.9 10 4C10 4.74 10.4 5.39 11 5.73V7H10C6.13 7 3 10.13 3 14H2C1.45 14 1 14.45 1 15V18C1 18.55 1.45 19 2 19H3V20C3 21.11 3.9 22 5 22H19C20.11 22 21 21.11 21 20V19H22C22.55 19 23 18.55 23 18V15C23 14.45 22.55 14 22 14M21 17H19V20H5V17H3V16H5V14C5 11.24 7.24 9 10 9H14C16.76 9 19 11.24 19 14V16H21V17M17.5 15.5C17.5 16.61 16.61 17.5 15.5 17.5C14.53 17.5 13.73 16.81 13.54 15.9L16.5 13.78C17.1 14.13 17.5 14.76 17.5 15.5M7.5 13.78L10.46 15.9C10.28 16.81 9.47 17.5 8.5 17.5C7.4 17.5 6.5 16.61 6.5 15.5C6.5 14.76 6.9 14.13 7.5 13.78Z" />
    </g>
    <g id="mdi-robot-angry-outline" transform="translate(540 288) scale(1.5)" fill="#fff">
      <path d="M22 14H21C21 10.13 17.87 7 14 7H13V5.73C13.6 5.39 14 4.74 14 4C14 2.9 13.11 2 12 2S10 2.9 10 4C10 4.74 10.4 5.39 11 5.73V7H10C6.13 7 3 10.13 3 14H2C1.45 14 1 14.45 1 15V18C1 18.55 1.45 19 2 19H3V20C3 21.11 3.9 22 5 22H19C20.11 22 21 21.11 21 20V19H22C22.55 19 23 18.55 23 18V15C23 14.45 22.55 14 22 14M21 17H19V20H5V17H3V16H5V14C5 11.24 7.24 9 10 9H14C16.76 9 19 11.24 19 14V16H21V17M17.5 15.5C17.5 16.61 16.61 17.5 15.5 17.5C14.53 17.5 13.73 16.81 13.54 15.9L16.5 13.78C17.1 14.13 17.5 14.76 17.5 15.5M7.5 13.78L10.46 15.9C10.28 16.81 9.47 17.5 8.5 17.5C7.4 17.5 6.5 16.61 6.5 15.5C6.5 14.76 6.9 14.13 7.5 13.78Z" />
    </g>
    <g id="mdi-robot-confused" transform="translate(576 288) scale(1.5)" fill="#555">
      <path d="M20 4H18V3H20.5C20.78 3 21 3.22 21 3.5V5.5C21 5.78 20.78 6 20.5 6H20V7H19V5H20V4M19 9H20V8H19V9M17 3H16V7H17V3M23 15V18C23 18.55 22.55 19 22 19H21V20C21 21.11 20.11 22 19 22H5C3.9 22 3 21.11 3 20V19H2C1.45 19 1 18.55 1 18V15C1 14.45 1.45 14 2 14H3C3 10.13 6.13 7 10 7H11V5.73C10.4 5.39 10 4.74 10 4C10 2.9 10.9 2 12 2S14 2.9 14 4C14 4.74 13.6 5.39 13 5.73V7H14C14.34 7 14.67 7.03 15 7.08V10H19.74C20.53 11.13 21 12.5 21 14H22C22.55 14 23 14.45 23 15M10 15.5C10 14.12 8.88 13 7.5 13S5 14.12 5 15.5 6.12 18 7.5 18 10 16.88 10 15.5M19 15.5C19 14.12 17.88 13 16.5 13S14 14.12 14 15.5 15.12 18 16.5 18 19 16.88 19 15.5M17 8H16V9H17V8Z" />
    </g>
    <g id="mdi-robot-confused" transform="translate(612 288) scale(1.5)" fill="#fff">
      <path d="M20 4H18V3H20.5C20.78 3 21 3.22 21 3.5V5.5C21 5.78 20.78 6 20.5 6H20V7H19V5H20V4M19 9H20V8H19V9M17 3H16V7H17V3M23 15V18C23 18.55 22.55 19 22 19H21V20C21 21.11 20.11 22 19 22H5C3.9 22 3 21.11 3 20V19H2C1.45 19 1 18.55 1 18V15C1 14.45 1.45 14 2 14H3C3 10.13 6.13 7 10 7H11V5.73C10.4 5.39 10 4.74 10 4C10 2.9 10.9 2 12 2S14 2.9 14 4C14 4.74 13.6 5.39 13 5.73V7H14C14.34 7 14.67 7.03 15 7.08V10H19.74C20.53 11.13 21 12.5 21 14H22C22.55 14 23 14.45 23 15M10 15.5C10 14.12 8.88 13 7.5 13S5 14.12 5 15.5 6.12 18 7.5 18 10 16.88 10 15.5M19 15.5C19 14.12 17.88 13 16.5 13S14 14.12 14 15.5 15.12 18 16.5 18 19 16.88 19 15.5M17 8H16V9H17V8Z" />
    </g>
    <g id="mdi-robot-confused-outline" transform="translate(648 288) scale(1.5)" fill="#555">
      <path d="M19 8H20V9H19V8M20 5H19V7H20V6H20.5C20.78 6 21 5.78 21 5.5V3.5C21 3.22 20.78 3 20.5 3H18V4H20V5M17 3H16V7H17V3M13.5 15.5C13.5 16.61 14.4 17.5 15.5 17.5S17.5 16.61 17.5 15.5 16.61 13.5 15.5 13.5 13.5 14.4 13.5 15.5M17 8H16V9H17V8M22 14H21C21 12.5 20.53 11.13 19.74 10H16.97C18.19 10.91 19 12.36 19 14V16H21V17H19V20H5V17H3V16H5V14C5 11.24 7.24 9 10 9H14C14.34 9 14.68 9.04 15 9.1V7.08C14.67 7.03 14.34 7 14 7H13V5.73C13.6 5.39 14 4.74 14 4C14 2.9 13.11 2 12 2S10 2.9 10 4C10 4.74 10.4 5.39 11 5.73V7H10C6.13 7 3 10.13 3 14H2C1.45 14 1 14.45 1 15V18C1 18.55 1.45 19 2 19H3V20C3 21.11 3.9 22 5 22H19C20.11 22 21 21.11 21 20V19H22C22.55 19 23 18.55 23 18V15C23 14.45 22.55 14 22 14M8.5 13.5C7.4 13.5 6.5 14.4 6.5 15.5S7.4 17.5 8.5 17.5 10.5 16.61 10.5 15.5 9.61 13.5 8.5 13.5Z" />
    </g>
    <g id="mdi-robot-confused-outline" transform="translate(684 288) scale(1.5)" fill="#fff">
      <path d="M19 8H20V9H19V8M20 5H19V7H20V6H20.5C20.78 6 21 5.78 21 5.5V3.5C21 3.22 20.78 3 20.5 3H18V4H20V5M17 3H16V7H17V3M13.5 15.5C13.5 16.61 14.4 17.5 15.5 17.5S17.5 16.61 17.5 15.5 16.61 13.5 15.5 13.5 13.5 14.4 13.5 15.5M17 8H16V9H17V8M22 14H21C21 12.5 20.53 11.13 19.74 10H16.97C18.19 10.91 19 12.36 19 14V16H21V17H19V20H5V17H3V16H5V14C5 11.24 7.24 9 10 9H14C14.34 9 14.68 9.04 15 9.1V7.08C14.67 7.03 14.34 7 14 7H13V5.73C13.6 5.39 14 4.74 14 4C14 2.9 13.11 2 12 2S10 2.9 10 4C10 4.74 10.4 5.39 11 5.73V7H10C6.13 7 3 10.13 3 14H2C1.45 14 1 14.45 1 15V18C1 18.55 1.45 19 2 19H3V20C3 21.11 3.9 22 5 22H19C20.11 22 21 21.11 21 20V19H22C22.55 19 23 18.55 23 18V15C23 14.45 22.55 14 22 14M8.5 13.5C7.4 13.5 6.5 14.4 6.5 15.5S7.4 17.5 8.5 17.5 10.5 16.61 10.5 15.5 9.61 13.5 8.5 13.5Z" />
    </g>
    <g id="mdi-robot-dead" transform="translate(0 324) scale(1.5)" fill="#555">
      <path d="M22 14H21C21 10.13 17.87 7 14 7H13V5.73C13.6 5.39 14 4.74 14 4C14 2.9 13.11 2 12 2S10 2.9 10 4C10 4.74 10.4 5.39 11 5.73V7H10C6.13 7 3 10.13 3 14H2C1.45 14 1 14.45 1 15V18C1 18.55 1.45 19 2 19H3V20C3 21.11 3.9 22 5 22H19C20.11 22 21 21.11 21 20V19H22C22.55 19 23 18.55 23 18V15C23 14.45 22.55 14 22 14M9.86 16.68L8.68 17.86L7.5 16.68L6.32 17.86L5.14 16.68L6.32 15.5L5.14 14.32L6.32 13.14L7.5 14.32L8.68 13.14L9.86 14.32L8.68 15.5L9.86 16.68M18.86 16.68L17.68 17.86L16.5 16.68L15.32 17.86L14.14 16.68L15.32 15.5L14.14 14.32L15.32 13.14L16.5 14.32L17.68 13.14L18.86 14.32L17.68 15.5L18.86 16.68Z" />
    </g>
    <g id="mdi-robot-dead" transform="translate(36 324) scale(1.5)" fill="#fff">
      <path d="M22 14H21C21 10.13 17.87 7 14 7H13V5.73C13.6 5.39 14 4.74 14 4C14 2.9 13.11 2 12 2S10 2.9 10 4C10 4.74 10.4 5.39 11 5.73V7H10C6.13 7 3 10.13 3 14H2C1.45 14 1 14.45 1 15V18C1 18.55 1.45 19 2 19H3V20C3 21.11 3.9 22 5 22H19C20.11 22 21 21.11 21 20V19H22C22.55 19 23 18.55 23 18V15C23 14.45 22.55 14 22 14M9.86 16.68L8.68 17.86L7.5 16.68L6.32 17.86L5.14 16.68L6.32 15.5L5.14 14.32L6.32 13.14L7.5 14.32L8.68 13.14L9.86 14.32L8.68 15.5L9.86 16.68M18.86 16.68L17.68 17.86L16.5 16.68L15.32 17.86L14.14 16.68L15.32 15.5L14.14 14.32L15.32 13.14L16.5 14.32L17.68 13.14L18.86 14.32L17.68 15.5L18.86 16.68Z" />
    </g>
    <g id="mdi-robot-dead-outline" transform="translate(72 324) scale(1.5)" fill="#555">
      <path d="M10.62 14.44L9.56 15.5L10.62 16.56L9.56 17.62L8.5 16.56L7.44 17.62L6.38 16.56L7.44 15.5L6.38 14.44L7.44 13.38L8.5 14.44L9.56 13.38L10.62 14.44M16.56 13.38L15.5 14.44L14.44 13.38L13.38 14.44L14.44 15.5L13.38 16.56L14.44 17.62L15.5 16.56L16.56 17.62L17.62 16.56L16.56 15.5L17.62 14.44L16.56 13.38M23 15V18C23 18.55 22.55 19 22 19H21V20C21 21.11 20.11 22 19 22H5C3.9 22 3 21.11 3 20V19H2C1.45 19 1 18.55 1 18V15C1 14.45 1.45 14 2 14H3C3 10.13 6.13 7 10 7H11V5.73C10.4 5.39 10 4.74 10 4C10 2.9 10.9 2 12 2S14 2.9 14 4C14 4.74 13.6 5.39 13 5.73V7H14C17.87 7 21 10.13 21 14H22C22.55 14 23 14.45 23 15M21 16H19V14C19 11.24 16.76 9 14 9H10C7.24 9 5 11.24 5 14V16H3V17H5V20H19V17H21V16Z" />
    </g>
    <g id="mdi-robot-dead-outline" transform="translate(108 324) scale(1.5)" fill="#fff">
      <path d="M10.62 14.44L9.56 15.5L10.62 16.56L9.56 17.62L8.5 16.56L7.44 17.62L6.38 16.56L7.44 15.5L6.38 14.44L7.44 13.38L8.5 14.44L9.56 13.38L10.62 14.44M16.56 13.38L15.5 14.44L14.44 13.38L13.38 14.44L14.44 15.5L13.38 16.56L14.44 17.62L15.5 16.56L16.56 17.62L17.62 16.56L16.56 15.5L17.62 14.44L16.56 13.38M23 15V18C23 18.55 22.55 19 22 19H21V20C21 21.11 20.11 22 19 22H5C3.9 22 3 21.11 3 20V19H2C1.45 19 1 18.55 1 18V15C1 14.45 1.45 14 2 14H3C3 10.13 6.13 7 10 7H11V5.73C10.4 5.39 10 4.74 10 4C10 2.9 10.9 2 12 2S14 2.9 14 4C14 4.74 13.6 5.39 13 5.73V7H14C17.87 7 21 10.13 21 14H22C22.55 14 23 14.45 23 15M21 16H19V14C19 11.24 16.76 9 14 9H10C7.24 9 5 11.24 5 14V16H3V17H5V20H19V17H21V16Z" />
    </g>
    <g id="mdi-robot-excited" transform="translate(144 324) scale(1.5)" fill="#555">
      <path d="M22 14H21C21 10.13 17.87 7 14 7H13V5.73C13.6 5.39 14 4.74 14 4C14 2.9 13.11 2 12 2S10 2.9 10 4C10 4.74 10.4 5.39 11 5.73V7H10C6.13 7 3 10.13 3 14H2C1.45 14 1 14.45 1 15V18C1 18.55 1.45 19 2 19H3V20C3 21.11 3.9 22 5 22H19C20.11 22 21 21.11 21 20V19H22C22.55 19 23 18.55 23 18V15C23 14.45 22.55 14 22 14M8.68 17.04L7.5 15.86L6.32 17.04L5.14 15.86L7.5 13.5L9.86 15.86L8.68 17.04M17.68 17.04L16.5 15.86L15.32 17.04L14.14 15.86L16.5 13.5L18.86 15.86L17.68 17.04Z" />
    </g>
    <g id="mdi-robot-excited" transform="translate(180 324) scale(1.5)" fill="#fff">
      <path d="M22 14H21C21 10.13 17.87 7 14 7H13V5.73C13.6 5.39 14 4.74 14 4C14 2.9 13.11 2 12 2S10 2.9 10 4C10 4.74 10.4 5.39 11 5.73V7H10C6.13 7 3 10.13 3 14H2C1.45 14 1 14.45 1 15V18C1 18.55 1.45 19 2 19H3V20C3 21.11 3.9 22 5 22H19C20.11 22 21 21.11 21 20V19H22C22.55 19 23 18.55 23 18V15C23 14.45 22.55 14 22 14M8.68 17.04L7.5 15.86L6.32 17.04L5.14 15.86L7.5 13.5L9.86 15.86L8.68 17.04M17.68 17.04L16.5 15.86L15.32 17.04L14.14 15.86L16.5 13.5L18.86 15.86L17.68 17.04Z" />
    </g>
    <g id="mdi-robot-excited-outline" transform="translate(216 324) scale(1.5)" fill="#555">
      <path d="M22 14H21C21 10.13 17.87 7 14 7H13V5.73C13.6 5.39 14 4.74 14 4C14 2.9 13.11 2 12 2S10 2.9 10 4C10 4.74 10.4 5.39 11 5.73V7H10C6.13 7 3 10.13 3 14H2C1.45 14 1 14.45 1 15V18C1 18.55 1.45 19 2 19H3V20C3 21.11 3.9 22 5 22H19C20.11 22 21 21.11 21 20V19H22C22.55 19 23 18.55 23 18V15C23 14.45 22.55 14 22 14M21 17H19V20H5V17H3V16H5V14C5 11.24 7.24 9 10 9H14C16.76 9 19 11.24 19 14V16H21V17M8.5 13.5L10.86 15.86L9.68 17.04L8.5 15.86L7.32 17.04L6.14 15.86L8.5 13.5M15.5 13.5L17.86 15.86L16.68 17.04L15.5 15.86L14.32 17.04L13.14 15.86L15.5 13.5Z" />
    </g>
    <g id="mdi-robot-excited-outline" transform="translate(252 324) scale(1.5)" fill="#fff">
      <path d="M22 14H21C21 10.13 17.87 7 14 7H13V5.73C13.6 5.39 14 4.74 14 4C14 2.9 13.11 2 12 2S10 2.9 10 4C10 4.74 10.4 5.39 11 5.73V7H10C6.13 7 3 10.13 3 14H2C1.45 14 1 14.45 1 15V18C1 18.55 1.45 19 2 19H3V20C3 21.11 3.9 22 5 22H19C20.11 22 21 21.11 21 20V19H22C22.55 19 23 18.55 23 18V15C23 14.45 22.55 14 22 14M21 17H19V20H5V17H3V16H5V14C5 11.24 7.24 9 10 9H14C16.76 9 19 11.24 19 14V16H21V17M8.5 13.5L10.86 15.86L9.68 17.04L8.5 15.86L7.32 17.04L6.14 15.86L8.5 13.5M15.5 13.5L17.86 15.86L16.68 17.04L15.5 15.86L14.32 17.04L13.14 15.86L15.5 13.5Z" />
    </g>
    <g id="mdi-robot-happy" transform="translate(288 324) scale(1.5)" fill="#555">
      <path d="M22 14H21C21 10.13 17.87 7 14 7H13V5.73C13.6 5.39 14 4.74 14 4C14 2.9 13.11 2 12 2S10 2.9 10 4C10 4.74 10.4 5.39 11 5.73V7H10C6.13 7 3 10.13 3 14H2C1.45 14 1 14.45 1 15V18C1 18.55 1.45 19 2 19H3V20C3 21.11 3.9 22 5 22H19C20.11 22 21 21.11 21 20V19H22C22.55 19 23 18.55 23 18V15C23 14.45 22.55 14 22 14M9.79 16.5C9.4 15.62 8.53 15 7.5 15S5.6 15.62 5.21 16.5C5.08 16.19 5 15.86 5 15.5C5 14.12 6.12 13 7.5 13S10 14.12 10 15.5C10 15.86 9.92 16.19 9.79 16.5M18.79 16.5C18.4 15.62 17.5 15 16.5 15S14.6 15.62 14.21 16.5C14.08 16.19 14 15.86 14 15.5C14 14.12 15.12 13 16.5 13S19 14.12 19 15.5C19 15.86 18.92 16.19 18.79 16.5Z" />
    </g>
    <g id="mdi-robot-happy" transform="translate(324 324) scale(1.5)" fill="#fff">
      <path d="M22 14H21C21 10.13 17.87 7 14 7H13V5.73C13.6 5.39 14 4.74 14 4C14 2.9 13.11 2 12 2S10 2.9 10 4C10 4.74 10.4 5.39 11 5.73V7H10C6.13 7 3 10.13 3 14H2C1.45 14 1 14.45 1 15V18C1 18.55 1.45 19 2 19H3V20C3 21.11 3.9 22 5 22H19C20.11 22 21 21.11 21 20V19H22C22.55 19 23 18.55 23 18V15C23 14.45 22.55 14 22 14M9.79 16.5C9.4 15.62 8.53 15 7.5 15S5.6 15.62 5.21 16.5C5.08 16.19 5 15.86 5 15.5C5 14.12 6.12 13 7.5 13S10 14.12 10 15.5C10 15.86 9.92 16.19 9.79 16.5M18.79 16.5C18.4 15.62 17.5 15 16.5 15S14.6 15.62 14.21 16.5C14.08 16.19 14 15.86 14 15.5C14 14.12 15.12 13 16.5 13S19 14.12 19 15.5C19 15.86 18.92 16.19 18.79 16.5Z" />
    </g>
    <g id="mdi-robot-happy-outline" transform="translate(360 324) scale(1.5)" fill="#555">
      <path d="M10.5 15.5C10.5 15.87 10.4 16.2 10.22 16.5C9.88 15.91 9.24 15.5 8.5 15.5S7.12 15.91 6.78 16.5C6.61 16.2 6.5 15.87 6.5 15.5C6.5 14.4 7.4 13.5 8.5 13.5S10.5 14.4 10.5 15.5M23 15V18C23 18.55 22.55 19 22 19H21V20C21 21.11 20.11 22 19 22H5C3.9 22 3 21.11 3 20V19H2C1.45 19 1 18.55 1 18V15C1 14.45 1.45 14 2 14H3C3 10.13 6.13 7 10 7H11V5.73C10.4 5.39 10 4.74 10 4C10 2.9 10.9 2 12 2S14 2.9 14 4C14 4.74 13.6 5.39 13 5.73V7H14C17.87 7 21 10.13 21 14H22C22.55 14 23 14.45 23 15M21 16H19V14C19 11.24 16.76 9 14 9H10C7.24 9 5 11.24 5 14V16H3V17H5V20H19V17H21V16M15.5 13.5C14.4 13.5 13.5 14.4 13.5 15.5C13.5 15.87 13.61 16.2 13.78 16.5C14.12 15.91 14.76 15.5 15.5 15.5S16.88 15.91 17.22 16.5C17.4 16.2 17.5 15.87 17.5 15.5C17.5 14.4 16.61 13.5 15.5 13.5Z" />
    </g>
    <g id="mdi-robot-happy-outline" transform="translate(396 324) scale(1.5)" fill="#fff">
      <path d="M10.5 15.5C10.5 15.87 10.4 16.2 10.22 16.5C9.88 15.91 9.24 15.5 8.5 15.5S7.12 15.91 6.78 16.5C6.61 16.2 6.5 15.87 6.5 15.5C6.5 14.4 7.4 13.5 8.5 13.5S10.5 14.4 10.5 15.5M23 15V18C23 18.55 22.55 19 22 19H21V20C21 21.11 20.11 22 19 22H5C3.9 22 3 21.11 3 20V19H2C1.45 19 1 18.55 1 18V15C1 14.45 1.45 14 2 14H3C3 10.13 6.13 7 10 7H11V5.73C10.4 5.39 10 4.74 10 4C10 2.9 10.9 2 12 2S14 2.9 14 4C14 4.74 13.6 5.39 13 5.73V7H14C17.87 7 21 10.13 21 14H22C22.55 14 23 14.45 23 15M21 16H19V14C19 11.24 16.76 9 14 9H10C7.24 9 5 11.24 5 14V16H3V17H5V20H19V17H21V16M15.5 13.5C14.4 13.5 13.5 14.4 13.5 15.5C13.5 15.87 13.61 16.2 13.78 16.5C14.12 15.91 14.76 15.5 15.5 15.5S16.88 15.91 17.22 16.5C17.4 16.2 17.5 15.87 17.5 15.5C17.5 14.4 16.61 13.5 15.5 13.5Z" />
    </g>
    <g id="mdi-robot-industrial" transform="translate(432 324) scale(1.5)" fill="#555">
      <path d="M18.41,4L16,6.41V6.59L18.41,9H22V11H17.59L16,9.41V12H15A2,2 0 0,1 13,10V7.5H9.86C9.77,7.87 9.62,8.22 9.42,8.55L15.18,19H20A2,2 0 0,1 22,21V22H2V21A2,2 0 0,1 4,19H10.61L5.92,10.5C4.12,10.47 2.56,9.24 2.11,7.5C1.56,5.36 2.85,3.18 5,2.63C7.13,2.08 9.31,3.36 9.86,5.5H13V3A2,2 0 0,1 15,1H16V3.59L17.59,2H22V4H18.41M6,4.5A2,2 0 0,0 4,6.5A2,2 0 0,0 6,8.5A2,2 0 0,0 8,6.5A2,2 0 0,0 6,4.5Z" />
    </g>
    <g id="mdi-robot-industrial" transform="translate(468 324) scale(1.5)" fill="#fff">
      <path d="M18.41,4L16,6.41V6.59L18.41,9H22V11H17.59L16,9.41V12H15A2,2 0 0,1 13,10V7.5H9.86C9.77,7.87 9.62,8.22 9.42,8.55L15.18,19H20A2,2 0 0,1 22,21V22H2V21A2,2 0 0,1 4,19H10.61L5.92,10.5C4.12,10.47 2.56,9.24 2.11,7.5C1.56,5.36 2.85,3.18 5,2.63C7.13,2.08 9.31,3.36 9.86,5.5H13V3A2,2 0 0,1 15,1H16V3.59L17.59,2H22V4H18.41M6,4.5A2,2 0 0,0 4,6.5A2,2 0 0,0 6,8.5A2,2 0 0,0 8,6.5A2,2 0 0,0 6,4.5Z" />
    </g>
    <g id="mdi-robot-love" transform="translate(504 324) scale(1.5)" fill="#555">
      <path d="M22 14H21C21 10.13 17.87 7 14 7H13V5.73C13.6 5.39 14 4.74 14 4C14 2.9 13.11 2 12 2S10 2.9 10 4C10 4.74 10.4 5.39 11 5.73V7H10C6.13 7 3 10.13 3 14H2C1.45 14 1 14.45 1 15V18C1 18.55 1.45 19 2 19H3V20C3 21.11 3.9 22 5 22H19C20.11 22 21 21.11 21 20V19H22C22.55 19 23 18.55 23 18V15C23 14.45 22.55 14 22 14M9.7 15.45L8.97 16.18L7.5 17.65L5.3 15.45C4.9 15.05 4.9 14.39 5.3 14C5.71 13.58 6.36 13.58 6.77 14L7.5 14.72L8.23 14C8.64 13.58 9.29 13.58 9.7 14C10.1 14.39 10.1 15.05 9.7 15.45M18.7 15.45L17.97 16.18L16.5 17.65L14.3 15.45C13.9 15.05 13.9 14.39 14.3 14C14.71 13.58 15.36 13.58 15.77 14L16.5 14.72L17.23 14C17.64 13.58 18.29 13.58 18.7 14C19.1 14.39 19.1 15.05 18.7 15.45Z" />
    </g>
    <g id="mdi-robot-love" transform="translate(540 324) scale(1.5)" fill="#fff">
      <path d="M22 14H21C21 10.13 17.87 7 14 7H13V5.73C13.6 5.39 14 4.74 14 4C14 2.9 13.11 2 12 2S10 2.9 10 4C10 4.74 10.4 5.39 11 5.73V7H10C6.13 7 3 10.13 3 14H2C1.45 14 1 14.45 1 15V18C1 18.55 1.45 19 2 19H3V20C3 21.11 3.9 22 5 22H19C20.11 22 21 21.11 21 20V19H22C22.55 19 23 18.55 23 18V15C23 14.45 22.55 14 22 14M9.7 15.45L8.97 16.18L7.5 17.65L5.3 15.45C4.9 15.05 4.9 14.39 5.3 14C5.71 13.58 6.36 13.58 6.77 14L7.5 14.72L8.23 14C8.64 13.58 9.29 13.58 9.7 14C10.1 14.39 10.1 15.05 9.7 15.45M18.7 15.45L17.97 16.18L16.5 17.65L14.3 15.45C13.9 15.05 13.9 14.39 14.3 14C14.71 13.58 15.36 13.58 15.77 14L16.5 14.72L17.23 14C17.64 13.58 18.29 13.58 18.7 14C19.1 14.39 19.1 15.05 18.7 15.45Z" />
    </g>
    <g id="mdi-robot-love-outline" transform="translate(576 324) scale(1.5)" fill="#555">
      <path d="M22 14H21C21 10.13 17.87 7 14 7H13V5.73C13.6 5.39 14 4.74 14 4C14 2.9 13.11 2 12 2S10 2.9 10 4C10 4.74 10.4 5.39 11 5.73V7H10C6.13 7 3 10.13 3 14H2C1.45 14 1 14.45 1 15V18C1 18.55 1.45 19 2 19H3V20C3 21.11 3.9 22 5 22H19C20.11 22 21 21.11 21 20V19H22C22.55 19 23 18.55 23 18V15C23 14.45 22.55 14 22 14M21 17H19V20H5V17H3V16H5V14C5 11.24 7.24 9 10 9H14C16.76 9 19 11.24 19 14V16H21V17M10.7 14C11.1 14.39 11.1 15.05 10.7 15.45L9.97 16.18L8.5 17.65L6.3 15.45C5.9 15.05 5.9 14.39 6.3 14C6.71 13.58 7.36 13.58 7.77 14L8.5 14.72L9.23 14C9.64 13.58 10.29 13.58 10.7 14M17.7 14C18.1 14.39 18.1 15.05 17.7 15.45L16.97 16.18L15.5 17.65L13.3 15.45C12.9 15.05 12.9 14.39 13.3 14C13.71 13.58 14.36 13.58 14.77 14L15.5 14.72L16.23 14C16.64 13.58 17.29 13.58 17.7 14Z" />
    </g>
    <g id="mdi-robot-love-outline" transform="translate(612 324) scale(1.5)" fill="#fff">
      <path d="M22 14H21C21 10.13 17.87 7 14 7H13V5.73C13.6 5.39 14 4.74 14 4C14 2.9 13.11 2 12 2S10 2.9 10 4C10 4.74 10.4 5.39 11 5.73V7H10C6.13 7 3 10.13 3 14H2C1.45 14 1 14.45 1 15V18C1 18.55 1.45 19 2 19H3V20C3 21.11 3.9 22 5 22H19C20.11 22 21 21.11 21 20V19H22C22.55 19 23 18.55 23 18V15C23 14.45 22.55 14 22 14M21 17H19V20H5V17H3V16H5V14C5 11.24 7.24 9 10 9H14C16.76 9 19 11.24 19 14V16H21V17M10.7 14C11.1 14.39 11.1 15.05 10.7 15.45L9.97 16.18L8.5 17.65L6.3 15.45C5.9 15.05 5.9 14.39 6.3 14C6.71 13.58 7.36 13.58 7.77 14L8.5 14.72L9.23 14C9.64 13.58 10.29 13.58 10.7 14M17.7 14C18.1 14.39 18.1 15.05 17.7 15.45L16.97 16.18L15.5 17.65L13.3 15.45C12.9 15.05 12.9 14.39 13.3 14C13.71 13.58 14.36 13.58 14.77 14L15.5 14.72L16.23 14C16.64 13.58 17.29 13.58 17.7 14Z" />
    </g>
    <g id="mdi-robot-mower" transform="translate(648 324) scale(1.5)" fill="#555">
      <path d="M1 14V5H13C18.5 5 23 9.5 23 15V17H20.83C20.42 18.17 19.31 19 18 19C16.69 19 15.58 18.17 15.17 17H10C9.09 18.21 7.64 19 6 19C3.24 19 1 16.76 1 14M6 11C4.34 11 3 12.34 3 14C3 15.66 4.34 17 6 17C7.66 17 9 15.66 9 14C9 12.34 7.66 11 6 11M15 10V12H20.25C19.92 11.27 19.5 10.6 19 10H15Z" />
    </g>
    <g id="mdi-robot-mower" transform="translate(684 324) scale(1.5)" fill="#fff">
      <path d="M1 14V5H13C18.5 5 23 9.5 23 15V17H20.83C20.42 18.17 19.31 19 18 19C16.69 19 15.58 18.17 15.17 17H10C9.09 18.21 7.64 19 6 19C3.24 19 1 16.76 1 14M6 11C4.34 11 3 12.34 3 14C3 15.66 4.34 17 6 17C7.66 17 9 15.66 9 14C9 12.34 7.66 11 6 11M15 10V12H20.25C19.92 11.27 19.5 10.6 19 10H15Z" />
    </g>
  </svg>