<?xml version="1.0" encoding="UTF-8"?>
<!DOCTYPE svg PUBLIC "-//W3C//DTD SVG 1.1//EN" "http://www.w3.org/Graphics/SVG/1.1/DTD/svg11.dtd"><svg
  xmlns="http://www.w3.org/2000/svg" xmlns:xlink="http://www.w3.org/1999/xlink" version="1.1"
  width="720" height="900" viewBox="0 0 720 900">
    <g id="mdi-arrow-down-circle-outline" transform="translate(0 0) scale(1.5)" fill="#555">
      <path d="M11,6H13V14L16.5,10.5L17.92,11.92L12,17.84L6.08,11.92L7.5,10.5L11,14V6M12,22A10,10 0 0,1 2,12A10,10 0 0,1 12,2A10,10 0 0,1 22,12A10,10 0 0,1 12,22M12,20A8,8 0 0,0 20,12A8,8 0 0,0 12,4A8,8 0 0,0 4,12A8,8 0 0,0 12,20Z" />
    </g>
    <g id="mdi-arrow-down-circle-outline" transform="translate(36 0) scale(1.5)" fill="#fff">
      <path d="M11,6H13V14L16.5,10.5L17.92,11.92L12,17.84L6.08,11.92L7.5,10.5L11,14V6M12,22A10,10 0 0,1 2,12A10,10 0 0,1 12,2A10,10 0 0,1 22,12A10,10 0 0,1 12,22M12,20A8,8 0 0,0 20,12A8,8 0 0,0 12,4A8,8 0 0,0 4,12A8,8 0 0,0 12,20Z" />
    </g>
    <g id="mdi-arrow-down-drop-circle" transform="translate(72 0) scale(1.5)" fill="#555">
      <path d="M12,2A10,10 0 0,1 22,12A10,10 0 0,1 12,22A10,10 0 0,1 2,12A10,10 0 0,1 12,2M7,10L12,15L17,10H7Z" />
    </g>
    <g id="mdi-arrow-down-drop-circle" transform="translate(108 0) scale(1.5)" fill="#fff">
      <path d="M12,2A10,10 0 0,1 22,12A10,10 0 0,1 12,22A10,10 0 0,1 2,12A10,10 0 0,1 12,2M7,10L12,15L17,10H7Z" />
    </g>
    <g id="mdi-arrow-down-drop-circle-outline" transform="translate(144 0) scale(1.5)" fill="#555">
      <path d="M12,2A10,10 0 0,0 2,12A10,10 0 0,0 12,22A10,10 0 0,0 22,12A10,10 0 0,0 12,2M12,4A8,8 0 0,1 20,12A8,8 0 0,1 12,20A8,8 0 0,1 4,12A8,8 0 0,1 12,4M7,10L12,15L17,10H7Z" />
    </g>
    <g id="mdi-arrow-down-drop-circle-outline" transform="translate(180 0) scale(1.5)" fill="#fff">
      <path d="M12,2A10,10 0 0,0 2,12A10,10 0 0,0 12,22A10,10 0 0,0 22,12A10,10 0 0,0 12,2M12,4A8,8 0 0,1 20,12A8,8 0 0,1 12,20A8,8 0 0,1 4,12A8,8 0 0,1 12,4M7,10L12,15L17,10H7Z" />
    </g>
    <g id="mdi-arrow-down-thick" transform="translate(216 0) scale(1.5)" fill="#555">
      <path d="M10,4H14V13L17.5,9.5L19.92,11.92L12,19.84L4.08,11.92L6.5,9.5L10,13V4Z" />
    </g>
    <g id="mdi-arrow-down-thick" transform="translate(252 0) scale(1.5)" fill="#fff">
      <path d="M10,4H14V13L17.5,9.5L19.92,11.92L12,19.84L4.08,11.92L6.5,9.5L10,13V4Z" />
    </g>
    <g id="mdi-arrow-down-thin-circle-outline" transform="translate(288 0) scale(1.5)" fill="#555">
      <path d="M12 20.03C16.41 20.03 20.03 16.41 20.03 12C20.03 7.59 16.41 3.97 12 3.97C7.59 3.97 3.97 7.59 3.97 12C3.97 16.41 7.59 20.03 12 20.03M12 22C6.46 22 2 17.54 2 12C2 6.46 6.46 2 12 2C17.54 2 22 6.46 22 12C22 17.54 17.54 22 12 22M11 13.54H8L12 17.5L16 13.54H13V6.5H11" />
    </g>
    <g id="mdi-arrow-down-thin-circle-outline" transform="translate(324 0) scale(1.5)" fill="#fff">
      <path d="M12 20.03C16.41 20.03 20.03 16.41 20.03 12C20.03 7.59 16.41 3.97 12 3.97C7.59 3.97 3.97 7.59 3.97 12C3.97 16.41 7.59 20.03 12 20.03M12 22C6.46 22 2 17.54 2 12C2 6.46 6.46 2 12 2C17.54 2 22 6.46 22 12C22 17.54 17.54 22 12 22M11 13.54H8L12 17.5L16 13.54H13V6.5H11" />
    </g>
    <g id="mdi-arrow-expand" transform="translate(360 0) scale(1.5)" fill="#555">
      <path d="M10,21V19H6.41L10.91,14.5L9.5,13.09L5,17.59V14H3V21H10M14.5,10.91L19,6.41V10H21V3H14V5H17.59L13.09,9.5L14.5,10.91Z" />
    </g>
    <g id="mdi-arrow-expand" transform="translate(396 0) scale(1.5)" fill="#fff">
      <path d="M10,21V19H6.41L10.91,14.5L9.5,13.09L5,17.59V14H3V21H10M14.5,10.91L19,6.41V10H21V3H14V5H17.59L13.09,9.5L14.5,10.91Z" />
    </g>
    <g id="mdi-arrow-expand-all" transform="translate(432 0) scale(1.5)" fill="#555">
      <path d="M9.5,13.09L10.91,14.5L6.41,19H10V21H3V14H5V17.59L9.5,13.09M10.91,9.5L9.5,10.91L5,6.41V10H3V3H10V5H6.41L10.91,9.5M14.5,13.09L19,17.59V14H21V21H14V19H17.59L13.09,14.5L14.5,13.09M13.09,9.5L17.59,5H14V3H21V10H19V6.41L14.5,10.91L13.09,9.5Z" />
    </g>
    <g id="mdi-arrow-expand-all" transform="translate(468 0) scale(1.5)" fill="#fff">
      <path d="M9.5,13.09L10.91,14.5L6.41,19H10V21H3V14H5V17.59L9.5,13.09M10.91,9.5L9.5,10.91L5,6.41V10H3V3H10V5H6.41L10.91,9.5M14.5,13.09L19,17.59V14H21V21H14V19H17.59L13.09,14.5L14.5,13.09M13.09,9.5L17.59,5H14V3H21V10H19V6.41L14.5,10.91L13.09,9.5Z" />
    </g>
    <g id="mdi-arrow-expand-down" transform="translate(504 0) scale(1.5)" fill="#555">
      <path d="M22,4V2H2V4H11V18.17L5.5,12.67L4.08,14.08L12,22L19.92,14.08L18.5,12.67L13,18.17V4H22Z" />
    </g>
    <g id="mdi-arrow-expand-down" transform="translate(540 0) scale(1.5)" fill="#fff">
      <path d="M22,4V2H2V4H11V18.17L5.5,12.67L4.08,14.08L12,22L19.92,14.08L18.5,12.67L13,18.17V4H22Z" />
    </g>
    <g id="mdi-arrow-expand-horizontal" transform="translate(576 0) scale(1.5)" fill="#555">
      <path d="M9,11H15V8L19,12L15,16V13H9V16L5,12L9,8V11M2,20V4H4V20H2M20,20V4H22V20H20Z" />
    </g>
    <g id="mdi-arrow-expand-horizontal" transform="translate(612 0) scale(1.5)" fill="#fff">
      <path d="M9,11H15V8L19,12L15,16V13H9V16L5,12L9,8V11M2,20V4H4V20H2M20,20V4H22V20H20Z" />
    </g>
    <g id="mdi-arrow-expand-left" transform="translate(648 0) scale(1.5)" fill="#555">
      <path d="M20,22H22V2H20V11H5.83L11.33,5.5L9.92,4.08L2,12L9.92,19.92L11.33,18.5L5.83,13H20V22Z" />
    </g>
    <g id="mdi-arrow-expand-left" transform="translate(684 0) scale(1.5)" fill="#fff">
      <path d="M20,22H22V2H20V11H5.83L11.33,5.5L9.92,4.08L2,12L9.92,19.92L11.33,18.5L5.83,13H20V22Z" />
    </g>
    <g id="mdi-arrow-expand-right" transform="translate(0 36) scale(1.5)" fill="#555">
      <path d="M4,2H2V22H4V13H18.17L12.67,18.5L14.08,19.92L22,12L14.08,4.08L12.67,5.5L18.17,11H4V2Z" />
    </g>
    <g id="mdi-arrow-expand-right" transform="translate(36 36) scale(1.5)" fill="#fff">
      <path d="M4,2H2V22H4V13H18.17L12.67,18.5L14.08,19.92L22,12L14.08,4.08L12.67,5.5L18.17,11H4V2Z" />
    </g>
    <g id="mdi-arrow-expand-up" transform="translate(72 36) scale(1.5)" fill="#555">
      <path d="M2,20V22H22V20H13V5.83L18.5,11.33L19.92,9.92L12,2L4.08,9.92L5.5,11.33L11,5.83V20H2Z" />
    </g>
    <g id="mdi-arrow-expand-up" transform="translate(108 36) scale(1.5)" fill="#fff">
      <path d="M2,20V22H22V20H13V5.83L18.5,11.33L19.92,9.92L12,2L4.08,9.92L5.5,11.33L11,5.83V20H2Z" />
    </g>
    <g id="mdi-arrow-expand-vertical" transform="translate(144 36) scale(1.5)" fill="#555">
      <path d="M13,9V15H16L12,19L8,15H11V9H8L12,5L16,9H13M4,2H20V4H4V2M4,20H20V22H4V20Z" />
    </g>
    <g id="mdi-arrow-expand-vertical" transform="translate(180 36) scale(1.5)" fill="#fff">
      <path d="M13,9V15H16L12,19L8,15H11V9H8L12,5L16,9H13M4,2H20V4H4V2M4,20H20V22H4V20Z" />
    </g>
    <g id="mdi-arrow-horizontal-lock" transform="translate(216 36) scale(1.5)" fill="#555">
      <path d="M14.8 7V5.5C14.8 4.1 13.4 3 12 3S9.2 4.1 9.2 5.5V7C8.6 7 8 7.6 8 8.2V11.7C8 12.4 8.6 13 9.2 13H14.7C15.4 13 16 12.4 16 11.8V8.3C16 7.6 15.4 7 14.8 7M13.5 7H10.5V5.5C10.5 4.7 11.2 4.2 12 4.2S13.5 4.7 13.5 5.5V7M6 17V20L2 16L6 12V15H18V12L22 16L18 20V17H6Z" />
    </g>
    <g id="mdi-arrow-horizontal-lock" transform="translate(252 36) scale(1.5)" fill="#fff">
      <path d="M14.8 7V5.5C14.8 4.1 13.4 3 12 3S9.2 4.1 9.2 5.5V7C8.6 7 8 7.6 8 8.2V11.7C8 12.4 8.6 13 9.2 13H14.7C15.4 13 16 12.4 16 11.8V8.3C16 7.6 15.4 7 14.8 7M13.5 7H10.5V5.5C10.5 4.7 11.2 4.2 12 4.2S13.5 4.7 13.5 5.5V7M6 17V20L2 16L6 12V15H18V12L22 16L18 20V17H6Z" />
    </g>
    <g id="mdi-arrow-left" transform="translate(288 36) scale(1.5)" fill="#555">
      <path d="M20,11V13H8L13.5,18.5L12.08,19.92L4.16,12L12.08,4.08L13.5,5.5L8,11H20Z" />
    </g>
    <g id="mdi-arrow-left" transform="translate(324 36) scale(1.5)" fill="#fff">
      <path d="M20,11V13H8L13.5,18.5L12.08,19.92L4.16,12L12.08,4.08L13.5,5.5L8,11H20Z" />
    </g>
    <g id="mdi-arrow-left-bold" transform="translate(360 36) scale(1.5)" fill="#555">
      <path d="M20,9V15H12V19.84L4.16,12L12,4.16V9H20Z" />
    </g>
    <g id="mdi-arrow-left-bold" transform="translate(396 36) scale(1.5)" fill="#fff">
      <path d="M20,9V15H12V19.84L4.16,12L12,4.16V9H20Z" />
    </g>
    <g id="mdi-arrow-left-bold-box" transform="translate(432 36) scale(1.5)" fill="#555">
      <path d="M21,5V19A2,2 0 0,1 19,21H5A2,2 0 0,1 3,19V5A2,2 0 0,1 5,3H19A2,2 0 0,1 21,5M7,12L12,17V14H16V10H12V7L7,12Z" />
    </g>
    <g id="mdi-arrow-left-bold-box" transform="translate(468 36) scale(1.5)" fill="#fff">
      <path d="M21,5V19A2,2 0 0,1 19,21H5A2,2 0 0,1 3,19V5A2,2 0 0,1 5,3H19A2,2 0 0,1 21,5M7,12L12,17V14H16V10H12V7L7,12Z" />
    </g>
    <g id="mdi-arrow-left-bold-box-outline" transform="translate(504 36) scale(1.5)" fill="#555">
      <path d="M7,12L12,7V10H16V14H12V17L7,12M21,5V19A2,2 0 0,1 19,21H5A2,2 0 0,1 3,19V5A2,2 0 0,1 5,3H19A2,2 0 0,1 21,5M19,5H5V19H19V5Z" />
    </g>
    <g id="mdi-arrow-left-bold-box-outline" transform="translate(540 36) scale(1.5)" fill="#fff">
      <path d="M7,12L12,7V10H16V14H12V17L7,12M21,5V19A2,2 0 0,1 19,21H5A2,2 0 0,1 3,19V5A2,2 0 0,1 5,3H19A2,2 0 0,1 21,5M19,5H5V19H19V5Z" />
    </g>
    <g id="mdi-arrow-left-bold-circle" transform="translate(576 36) scale(1.5)" fill="#555">
      <path d="M22,12A10,10 0 0,1 12,22A10,10 0 0,1 2,12A10,10 0 0,1 12,2A10,10 0 0,1 22,12M7,12L12,17V14H16V10H12V7L7,12Z" />
    </g>
    <g id="mdi-arrow-left-bold-circle" transform="translate(612 36) scale(1.5)" fill="#fff">
      <path d="M22,12A10,10 0 0,1 12,22A10,10 0 0,1 2,12A10,10 0 0,1 12,2A10,10 0 0,1 22,12M7,12L12,17V14H16V10H12V7L7,12Z" />
    </g>
    <g id="mdi-arrow-left-bold-circle-outline" transform="translate(648 36) scale(1.5)" fill="#555">
      <path d="M7,12L12,7V10H16V14H12V17L7,12M22,12A10,10 0 0,1 12,22A10,10 0 0,1 2,12A10,10 0 0,1 12,2A10,10 0 0,1 22,12M20,12A8,8 0 0,0 12,4A8,8 0 0,0 4,12A8,8 0 0,0 12,20A8,8 0 0,0 20,12Z" />
    </g>
    <g id="mdi-arrow-left-bold-circle-outline" transform="translate(684 36) scale(1.5)" fill="#fff">
      <path d="M7,12L12,7V10H16V14H12V17L7,12M22,12A10,10 0 0,1 12,22A10,10 0 0,1 2,12A10,10 0 0,1 12,2A10,10 0 0,1 22,12M20,12A8,8 0 0,0 12,4A8,8 0 0,0 4,12A8,8 0 0,0 12,20A8,8 0 0,0 20,12Z" />
    </g>
    <g id="mdi-arrow-left-bold-hexagon-outline" transform="translate(0 72) scale(1.5)" fill="#555">
      <path d="M7,12L12,7V10H16V14H12V17L7,12M21,16.5C21,16.88 20.79,17.21 20.47,17.38L12.57,21.82C12.41,21.94 12.21,22 12,22C11.79,22 11.59,21.94 11.43,21.82L3.53,17.38C3.21,17.21 3,16.88 3,16.5V7.5C3,7.12 3.21,6.79 3.53,6.62L11.43,2.18C11.59,2.06 11.79,2 12,2C12.21,2 12.41,2.06 12.57,2.18L20.47,6.62C20.79,6.79 21,7.12 21,7.5V16.5M12,4.15L5,8.09V15.91L12,19.85L19,15.91V8.09L12,4.15Z" />
    </g>
    <g id="mdi-arrow-left-bold-hexagon-outline" transform="translate(36 72) scale(1.5)" fill="#fff">
      <path d="M7,12L12,7V10H16V14H12V17L7,12M21,16.5C21,16.88 20.79,17.21 20.47,17.38L12.57,21.82C12.41,21.94 12.21,22 12,22C11.79,22 11.59,21.94 11.43,21.82L3.53,17.38C3.21,17.21 3,16.88 3,16.5V7.5C3,7.12 3.21,6.79 3.53,6.62L11.43,2.18C11.59,2.06 11.79,2 12,2C12.21,2 12.41,2.06 12.57,2.18L20.47,6.62C20.79,6.79 21,7.12 21,7.5V16.5M12,4.15L5,8.09V15.91L12,19.85L19,15.91V8.09L12,4.15Z" />
    </g>
    <g id="mdi-arrow-left-bold-outline" transform="translate(72 72) scale(1.5)" fill="#555">
      <path d="M13,22L3,12L13,2V8H21V16H13V22M6,12L11,17V14H19V10H11V7L6,12Z" />
    </g>
    <g id="mdi-arrow-left-bold-outline" transform="translate(108 72) scale(1.5)" fill="#fff">
      <path d="M13,22L3,12L13,2V8H21V16H13V22M6,12L11,17V14H19V10H11V7L6,12Z" />
    </g>
    <g id="mdi-arrow-left-box" transform="translate(144 72) scale(1.5)" fill="#555">
      <path d="M19,3A2,2 0 0,1 21,5V19A2,2 0 0,1 19,21H5A2,2 0 0,1 3,19V5C3,3.89 3.9,3 5,3H19M18,11H9.5L13,7.5L11.58,6.08L5.66,12L11.58,17.92L13,16.5L9.5,13H18V11Z" />
    </g>
    <g id="mdi-arrow-left-box" transform="translate(180 72) scale(1.5)" fill="#fff">
      <path d="M19,3A2,2 0 0,1 21,5V19A2,2 0 0,1 19,21H5A2,2 0 0,1 3,19V5C3,3.89 3.9,3 5,3H19M18,11H9.5L13,7.5L11.58,6.08L5.66,12L11.58,17.92L13,16.5L9.5,13H18V11Z" />
    </g>
    <g id="mdi-arrow-left-circle" transform="translate(216 72) scale(1.5)" fill="#555">
      <path d="M2,12A10,10 0 0,1 12,2A10,10 0 0,1 22,12A10,10 0 0,1 12,22A10,10 0 0,1 2,12M18,11H10L13.5,7.5L12.08,6.08L6.16,12L12.08,17.92L13.5,16.5L10,13H18V11Z" />
    </g>
    <g id="mdi-arrow-left-circle" transform="translate(252 72) scale(1.5)" fill="#fff">
      <path d="M2,12A10,10 0 0,1 12,2A10,10 0 0,1 22,12A10,10 0 0,1 12,22A10,10 0 0,1 2,12M18,11H10L13.5,7.5L12.08,6.08L6.16,12L12.08,17.92L13.5,16.5L10,13H18V11Z" />
    </g>
    <g id="mdi-arrow-left-circle-outline" transform="translate(288 72) scale(1.5)" fill="#555">
      <path d="M18,11V13H10L13.5,16.5L12.08,17.92L6.16,12L12.08,6.08L13.5,7.5L10,11H18M2,12A10,10 0 0,1 12,2A10,10 0 0,1 22,12A10,10 0 0,1 12,22A10,10 0 0,1 2,12M4,12A8,8 0 0,0 12,20A8,8 0 0,0 20,12A8,8 0 0,0 12,4A8,8 0 0,0 4,12Z" />
    </g>
    <g id="mdi-arrow-left-circle-outline" transform="translate(324 72) scale(1.5)" fill="#fff">
      <path d="M18,11V13H10L13.5,16.5L12.08,17.92L6.16,12L12.08,6.08L13.5,7.5L10,11H18M2,12A10,10 0 0,1 12,2A10,10 0 0,1 22,12A10,10 0 0,1 12,22A10,10 0 0,1 2,12M4,12A8,8 0 0,0 12,20A8,8 0 0,0 20,12A8,8 0 0,0 12,4A8,8 0 0,0 4,12Z" />
    </g>
    <g id="mdi-arrow-left-drop-circle" transform="translate(360 72) scale(1.5)" fill="#555">
      <path d="M22,12A10,10 0 0,1 12,22A10,10 0 0,1 2,12A10,10 0 0,1 12,2A10,10 0 0,1 22,12M14,7L9,12L14,17V7Z" />
    </g>
    <g id="mdi-arrow-left-drop-circle" transform="translate(396 72) scale(1.5)" fill="#fff">
      <path d="M22,12A10,10 0 0,1 12,22A10,10 0 0,1 2,12A10,10 0 0,1 12,2A10,10 0 0,1 22,12M14,7L9,12L14,17V7Z" />
    </g>
    <g id="mdi-arrow-left-drop-circle-outline" transform="translate(432 72) scale(1.5)" fill="#555">
      <path d="M22,12A10,10 0 0,0 12,2A10,10 0 0,0 2,12A10,10 0 0,0 12,22A10,10 0 0,0 22,12M20,12A8,8 0 0,1 12,20A8,8 0 0,1 4,12A8,8 0 0,1 12,4A8,8 0 0,1 20,12M14,7L9,12L14,17V7Z" />
    </g>
    <g id="mdi-arrow-left-drop-circle-outline" transform="translate(468 72) scale(1.5)" fill="#fff">
      <path d="M22,12A10,10 0 0,0 12,2A10,10 0 0,0 2,12A10,10 0 0,0 12,22A10,10 0 0,0 22,12M20,12A8,8 0 0,1 12,20A8,8 0 0,1 4,12A8,8 0 0,1 12,4A8,8 0 0,1 20,12M14,7L9,12L14,17V7Z" />
    </g>
    <g id="mdi-arrow-left-right" transform="translate(504 72) scale(1.5)" fill="#555">
      <path d="M6.45,17.45L1,12L6.45,6.55L7.86,7.96L4.83,11H19.17L16.14,7.96L17.55,6.55L23,12L17.55,17.45L16.14,16.04L19.17,13H4.83L7.86,16.04L6.45,17.45Z" />
    </g>
    <g id="mdi-arrow-left-right" transform="translate(540 72) scale(1.5)" fill="#fff">
      <path d="M6.45,17.45L1,12L6.45,6.55L7.86,7.96L4.83,11H19.17L16.14,7.96L17.55,6.55L23,12L17.55,17.45L16.14,16.04L19.17,13H4.83L7.86,16.04L6.45,17.45Z" />
    </g>
    <g id="mdi-arrow-left-right-bold" transform="translate(576 72) scale(1.5)" fill="#555">
      <path d="M8,14V18L2,12L8,6V10H16V6L22,12L16,18V14H8Z" />
    </g>
    <g id="mdi-arrow-left-right-bold" transform="translate(612 72) scale(1.5)" fill="#fff">
      <path d="M8,14V18L2,12L8,6V10H16V6L22,12L16,18V14H8Z" />
    </g>
    <g id="mdi-arrow-left-right-bold-outline" transform="translate(648 72) scale(1.5)" fill="#555">
      <path d="M14,16V22L24,12L14,2V8H10V2L0,12L10,22V16H14M8,14V17L3,12L8,7V10H16V7L21,12L16,17V14H8Z" />
    </g>
    <g id="mdi-arrow-left-right-bold-outline" transform="translate(684 72) scale(1.5)" fill="#fff">
      <path d="M14,16V22L24,12L14,2V8H10V2L0,12L10,22V16H14M8,14V17L3,12L8,7V10H16V7L21,12L16,17V14H8Z" />
    </g>
    <g id="mdi-arrow-left-thick" transform="translate(0 108) scale(1.5)" fill="#555">
      <path d="M20,10V14H11L14.5,17.5L12.08,19.92L4.16,12L12.08,4.08L14.5,6.5L11,10H20Z" />
    </g>
    <g id="mdi-arrow-left-thick" transform="translate(36 108) scale(1.5)" fill="#fff">
      <path d="M20,10V14H11L14.5,17.5L12.08,19.92L4.16,12L12.08,4.08L14.5,6.5L11,10H20Z" />
    </g>
    <g id="mdi-arrow-left-thin-circle-outline" transform="translate(72 108) scale(1.5)" fill="#555">
      <path d="M3.97 12C3.97 16.41 7.59 20.03 12 20.03C16.41 20.03 20.03 16.41 20.03 12C20.03 7.59 16.41 3.97 12 3.97C7.59 3.97 3.97 7.59 3.97 12M2 12C2 6.46 6.46 2 12 2C17.54 2 22 6.46 22 12C22 17.54 17.54 22 12 22C6.46 22 2 17.54 2 12M10.46 11V8L6.5 12L10.46 16V13H17.5V11" />
    </g>
    <g id="mdi-arrow-left-thin-circle-outline" transform="translate(108 108) scale(1.5)" fill="#fff">
      <path d="M3.97 12C3.97 16.41 7.59 20.03 12 20.03C16.41 20.03 20.03 16.41 20.03 12C20.03 7.59 16.41 3.97 12 3.97C7.59 3.97 3.97 7.59 3.97 12M2 12C2 6.46 6.46 2 12 2C17.54 2 22 6.46 22 12C22 17.54 17.54 22 12 22C6.46 22 2 17.54 2 12M10.46 11V8L6.5 12L10.46 16V13H17.5V11" />
    </g>
    <g id="mdi-arrow-right" transform="translate(144 108) scale(1.5)" fill="#555">
      <path d="M4,11V13H16L10.5,18.5L11.92,19.92L19.84,12L11.92,4.08L10.5,5.5L16,11H4Z" />
    </g>
    <g id="mdi-arrow-right" transform="translate(180 108) scale(1.5)" fill="#fff">
      <path d="M4,11V13H16L10.5,18.5L11.92,19.92L19.84,12L11.92,4.08L10.5,5.5L16,11H4Z" />
    </g>
    <g id="mdi-arrow-right-bold" transform="translate(216 108) scale(1.5)" fill="#555">
      <path d="M4,15V9H12V4.16L19.84,12L12,19.84V15H4Z" />
    </g>
    <g id="mdi-arrow-right-bold" transform="translate(252 108) scale(1.5)" fill="#fff">
      <path d="M4,15V9H12V4.16L19.84,12L12,19.84V15H4Z" />
    </g>
    <g id="mdi-arrow-right-bold-box" transform="translate(288 108) scale(1.5)" fill="#555">
      <path d="M3,19V5A2,2 0 0,1 5,3H19A2,2 0 0,1 21,5V19A2,2 0 0,1 19,21H5A2,2 0 0,1 3,19M17,12L12,7V10H8V14H12V17L17,12Z" />
    </g>
    <g id="mdi-arrow-right-bold-box" transform="translate(324 108) scale(1.5)" fill="#fff">
      <path d="M3,19V5A2,2 0 0,1 5,3H19A2,2 0 0,1 21,5V19A2,2 0 0,1 19,21H5A2,2 0 0,1 3,19M17,12L12,7V10H8V14H12V17L17,12Z" />
    </g>
    <g id="mdi-arrow-right-bold-box-outline" transform="translate(360 108) scale(1.5)" fill="#555">
      <path d="M17,12L12,17V14H8V10H12V7L17,12M3,19V5A2,2 0 0,1 5,3H19A2,2 0 0,1 21,5V19A2,2 0 0,1 19,21H5A2,2 0 0,1 3,19M5,19H19V5H5V19Z" />
    </g>
    <g id="mdi-arrow-right-bold-box-outline" transform="translate(396 108) scale(1.5)" fill="#fff">
      <path d="M17,12L12,17V14H8V10H12V7L17,12M3,19V5A2,2 0 0,1 5,3H19A2,2 0 0,1 21,5V19A2,2 0 0,1 19,21H5A2,2 0 0,1 3,19M5,19H19V5H5V19Z" />
    </g>
    <g id="mdi-arrow-right-bold-circle" transform="translate(432 108) scale(1.5)" fill="#555">
      <path d="M2,12A10,10 0 0,1 12,2A10,10 0 0,1 22,12A10,10 0 0,1 12,22A10,10 0 0,1 2,12M17,12L12,7V10H8V14H12V17L17,12Z" />
    </g>
    <g id="mdi-arrow-right-bold-circle" transform="translate(468 108) scale(1.5)" fill="#fff">
      <path d="M2,12A10,10 0 0,1 12,2A10,10 0 0,1 22,12A10,10 0 0,1 12,22A10,10 0 0,1 2,12M17,12L12,7V10H8V14H12V17L17,12Z" />
    </g>
    <g id="mdi-arrow-right-bold-circle-outline" transform="translate(504 108) scale(1.5)" fill="#555">
      <path d="M17,12L12,17V14H8V10H12V7L17,12M2,12A10,10 0 0,1 12,2A10,10 0 0,1 22,12A10,10 0 0,1 12,22A10,10 0 0,1 2,12M4,12A8,8 0 0,0 12,20A8,8 0 0,0 20,12A8,8 0 0,0 12,4A8,8 0 0,0 4,12Z" />
    </g>
    <g id="mdi-arrow-right-bold-circle-outline" transform="translate(540 108) scale(1.5)" fill="#fff">
      <path d="M17,12L12,17V14H8V10H12V7L17,12M2,12A10,10 0 0,1 12,2A10,10 0 0,1 22,12A10,10 0 0,1 12,22A10,10 0 0,1 2,12M4,12A8,8 0 0,0 12,20A8,8 0 0,0 20,12A8,8 0 0,0 12,4A8,8 0 0,0 4,12Z" />
    </g>
    <g id="mdi-arrow-right-bold-hexagon-outline" transform="translate(576 108) scale(1.5)" fill="#555">
      <path d="M17,12L12,17V14H8V10H12V7L17,12M21,16.5C21,16.88 20.79,17.21 20.47,17.38L12.57,21.82C12.41,21.94 12.21,22 12,22C11.79,22 11.59,21.94 11.43,21.82L3.53,17.38C3.21,17.21 3,16.88 3,16.5V7.5C3,7.12 3.21,6.79 3.53,6.62L11.43,2.18C11.59,2.06 11.79,2 12,2C12.21,2 12.41,2.06 12.57,2.18L20.47,6.62C20.79,6.79 21,7.12 21,7.5V16.5M12,4.15L5,8.09V15.91L12,19.85L19,15.91V8.09L12,4.15Z" />
    </g>
    <g id="mdi-arrow-right-bold-hexagon-outline" transform="translate(612 108) scale(1.5)" fill="#fff">
      <path d="M17,12L12,17V14H8V10H12V7L17,12M21,16.5C21,16.88 20.79,17.21 20.47,17.38L12.57,21.82C12.41,21.94 12.21,22 12,22C11.79,22 11.59,21.94 11.43,21.82L3.53,17.38C3.21,17.21 3,16.88 3,16.5V7.5C3,7.12 3.21,6.79 3.53,6.62L11.43,2.18C11.59,2.06 11.79,2 12,2C12.21,2 12.41,2.06 12.57,2.18L20.47,6.62C20.79,6.79 21,7.12 21,7.5V16.5M12,4.15L5,8.09V15.91L12,19.85L19,15.91V8.09L12,4.15Z" />
    </g>
    <g id="mdi-arrow-right-bold-outline" transform="translate(648 108) scale(1.5)" fill="#555">
      <path d="M11,16H3V8H11V2L21,12L11,22V16M13,7V10H5V14H13V17L18,12L13,7Z" />
    </g>
    <g id="mdi-arrow-right-bold-outline" transform="translate(684 108) scale(1.5)" fill="#fff">
      <path d="M11,16H3V8H11V2L21,12L11,22V16M13,7V10H5V14H13V17L18,12L13,7Z" />
    </g>
    <g id="mdi-arrow-right-box" transform="translate(0 144) scale(1.5)" fill="#555">
      <path d="M5,21A2,2 0 0,1 3,19V5A2,2 0 0,1 5,3H19A2,2 0 0,1 21,5V19C21,20.11 20.1,21 19,21H5M6,13H14.5L11,16.5L12.42,17.92L18.34,12L12.42,6.08L11,7.5L14.5,11H6V13Z" />
    </g>
    <g id="mdi-arrow-right-box" transform="translate(36 144) scale(1.5)" fill="#fff">
      <path d="M5,21A2,2 0 0,1 3,19V5A2,2 0 0,1 5,3H19A2,2 0 0,1 21,5V19C21,20.11 20.1,21 19,21H5M6,13H14.5L11,16.5L12.42,17.92L18.34,12L12.42,6.08L11,7.5L14.5,11H6V13Z" />
    </g>
    <g id="mdi-arrow-right-circle" transform="translate(72 144) scale(1.5)" fill="#555">
      <path d="M22,12A10,10 0 0,1 12,22A10,10 0 0,1 2,12A10,10 0 0,1 12,2A10,10 0 0,1 22,12M6,13H14L10.5,16.5L11.92,17.92L17.84,12L11.92,6.08L10.5,7.5L14,11H6V13Z" />
    </g>
    <g id="mdi-arrow-right-circle" transform="translate(108 144) scale(1.5)" fill="#fff">
      <path d="M22,12A10,10 0 0,1 12,22A10,10 0 0,1 2,12A10,10 0 0,1 12,2A10,10 0 0,1 22,12M6,13H14L10.5,16.5L11.92,17.92L17.84,12L11.92,6.08L10.5,7.5L14,11H6V13Z" />
    </g>
    <g id="mdi-arrow-right-circle-outline" transform="translate(144 144) scale(1.5)" fill="#555">
      <path d="M6,13V11H14L10.5,7.5L11.92,6.08L17.84,12L11.92,17.92L10.5,16.5L14,13H6M22,12A10,10 0 0,1 12,22A10,10 0 0,1 2,12A10,10 0 0,1 12,2A10,10 0 0,1 22,12M20,12A8,8 0 0,0 12,4A8,8 0 0,0 4,12A8,8 0 0,0 12,20A8,8 0 0,0 20,12Z" />
    </g>
    <g id="mdi-arrow-right-circle-outline" transform="translate(180 144) scale(1.5)" fill="#fff">
      <path d="M6,13V11H14L10.5,7.5L11.92,6.08L17.84,12L11.92,17.92L10.5,16.5L14,13H6M22,12A10,10 0 0,1 12,22A10,10 0 0,1 2,12A10,10 0 0,1 12,2A10,10 0 0,1 22,12M20,12A8,8 0 0,0 12,4A8,8 0 0,0 4,12A8,8 0 0,0 12,20A8,8 0 0,0 20,12Z" />
    </g>
    <g id="mdi-arrow-right-drop-circle" transform="translate(216 144) scale(1.5)" fill="#555">
      <path d="M2,12A10,10 0 0,1 12,2A10,10 0 0,1 22,12A10,10 0 0,1 12,22A10,10 0 0,1 2,12M10,17L15,12L10,7V17Z" />
    </g>
    <g id="mdi-arrow-right-drop-circle" transform="translate(252 144) scale(1.5)" fill="#fff">
      <path d="M2,12A10,10 0 0,1 12,2A10,10 0 0,1 22,12A10,10 0 0,1 12,22A10,10 0 0,1 2,12M10,17L15,12L10,7V17Z" />
    </g>
    <g id="mdi-arrow-right-drop-circle-outline" transform="translate(288 144) scale(1.5)" fill="#555">
      <path d="M2,12A10,10 0 0,0 12,22A10,10 0 0,0 22,12A10,10 0 0,0 12,2A10,10 0 0,0 2,12M4,12A8,8 0 0,1 12,4A8,8 0 0,1 20,12A8,8 0 0,1 12,20A8,8 0 0,1 4,12M10,17L15,12L10,7V17Z" />
    </g>
    <g id="mdi-arrow-right-drop-circle-outline" transform="translate(324 144) scale(1.5)" fill="#fff">
      <path d="M2,12A10,10 0 0,0 12,22A10,10 0 0,0 22,12A10,10 0 0,0 12,2A10,10 0 0,0 2,12M4,12A8,8 0 0,1 12,4A8,8 0 0,1 20,12A8,8 0 0,1 12,20A8,8 0 0,1 4,12M10,17L15,12L10,7V17Z" />
    </g>
    <g id="mdi-arrow-right-thick" transform="translate(360 144) scale(1.5)" fill="#555">
      <path d="M4,10V14H13L9.5,17.5L11.92,19.92L19.84,12L11.92,4.08L9.5,6.5L13,10H4Z" />
    </g>
    <g id="mdi-arrow-right-thick" transform="translate(396 144) scale(1.5)" fill="#fff">
      <path d="M4,10V14H13L9.5,17.5L11.92,19.92L19.84,12L11.92,4.08L9.5,6.5L13,10H4Z" />
    </g>
    <g id="mdi-arrow-right-thin-circle-outline" transform="translate(432 144) scale(1.5)" fill="#555">
      <path d="M20.03 12C20.03 7.59 16.41 3.97 12 3.97C7.59 3.97 3.97 7.59 3.97 12C3.97 16.41 7.59 20.03 12 20.03C16.41 20.03 20.03 16.41 20.03 12M22 12C22 17.54 17.54 22 12 22C6.46 22 2 17.54 2 12C2 6.46 6.46 2 12 2C17.54 2 22 6.46 22 12M13.54 13V16L17.5 12L13.54 8V11H6.5V13" />
    </g>
    <g id="mdi-arrow-right-thin-circle-outline" transform="translate(468 144) scale(1.5)" fill="#fff">
      <path d="M20.03 12C20.03 7.59 16.41 3.97 12 3.97C7.59 3.97 3.97 7.59 3.97 12C3.97 16.41 7.59 20.03 12 20.03C16.41 20.03 20.03 16.41 20.03 12M22 12C22 17.54 17.54 22 12 22C6.46 22 2 17.54 2 12C2 6.46 6.46 2 12 2C17.54 2 22 6.46 22 12M13.54 13V16L17.5 12L13.54 8V11H6.5V13" />
    </g>
    <g id="mdi-arrow-split-horizontal" transform="translate(504 144) scale(1.5)" fill="#555">
      <path d="M8,18H11V15H2V13H22V15H13V18H16L12,22L8,18M12,2L8,6H11V9H2V11H22V9H13V6H16L12,2Z" />
    </g>
    <g id="mdi-arrow-split-horizontal" transform="translate(540 144) scale(1.5)" fill="#fff">
      <path d="M8,18H11V15H2V13H22V15H13V18H16L12,22L8,18M12,2L8,6H11V9H2V11H22V9H13V6H16L12,2Z" />
    </g>
    <g id="mdi-arrow-split-vertical" transform="translate(576 144) scale(1.5)" fill="#555">
      <path d="M18,16V13H15V22H13V2H15V11H18V8L22,12L18,16M2,12L6,16V13H9V22H11V2H9V11H6V8L2,12Z" />
    </g>
    <g id="mdi-arrow-split-vertical" transform="translate(612 144) scale(1.5)" fill="#fff">
      <path d="M18,16V13H15V22H13V2H15V11H18V8L22,12L18,16M2,12L6,16V13H9V22H11V2H9V11H6V8L2,12Z" />
    </g>
    <g id="mdi-arrow-top-left" transform="translate(648 144) scale(1.5)" fill="#555">
      <path d="M19,17.59L17.59,19L7,8.41V15H5V5H15V7H8.41L19,17.59Z" />
    </g>
    <g id="mdi-arrow-top-left" transform="translate(684 144) scale(1.5)" fill="#fff">
      <path d="M19,17.59L17.59,19L7,8.41V15H5V5H15V7H8.41L19,17.59Z" />
    </g>
    <g id="mdi-arrow-top-left-bold-outline" transform="translate(0 180) scale(1.5)" fill="#555">
      <path d="M14.12,8.46L19.78,14.12L14.12,19.78L8.46,14.12L4.22,18.36V4.22H18.36L14.12,8.46M6.34,13.41L8.46,11.29L14.12,16.95L16.95,14.12L11.29,8.47L13.41,6.34H6.34V13.41Z" />
    </g>
    <g id="mdi-arrow-top-left-bold-outline" transform="translate(36 180) scale(1.5)" fill="#fff">
      <path d="M14.12,8.46L19.78,14.12L14.12,19.78L8.46,14.12L4.22,18.36V4.22H18.36L14.12,8.46M6.34,13.41L8.46,11.29L14.12,16.95L16.95,14.12L11.29,8.47L13.41,6.34H6.34V13.41Z" />
    </g>
    <g id="mdi-arrow-top-left-bottom-right" transform="translate(72 180) scale(1.5)" fill="#555">
      <path d="M13,21H21V13H19V17.59L6.41,5H11V3H3V11H5V6.41L17.59,19H13V21Z" />
    </g>
    <g id="mdi-arrow-top-left-bottom-right" transform="translate(108 180) scale(1.5)" fill="#fff">
      <path d="M13,21H21V13H19V17.59L6.41,5H11V3H3V11H5V6.41L17.59,19H13V21Z" />
    </g>
    <g id="mdi-arrow-top-left-bottom-right-bold" transform="translate(144 180) scale(1.5)" fill="#555">
      <path d="M5.83,8.66L3,11.5V3H11.5L8.66,5.83L18.17,15.34L21,12.5V21H12.5L15.34,18.17L5.83,8.66Z" />
    </g>
    <g id="mdi-arrow-top-left-bottom-right-bold" transform="translate(180 180) scale(1.5)" fill="#fff">
      <path d="M5.83,8.66L3,11.5V3H11.5L8.66,5.83L18.17,15.34L21,12.5V21H12.5L15.34,18.17L5.83,8.66Z" />
    </g>
    <g id="mdi-arrow-top-left-thick" transform="translate(216 180) scale(1.5)" fill="#555">
      <path d="M9.12,11.94V16.89H5.69V5.69H16.89V9.12H11.94L18.31,15.5L15.5,18.31L9.12,11.94Z" />
    </g>
    <g id="mdi-arrow-top-left-thick" transform="translate(252 180) scale(1.5)" fill="#fff">
      <path d="M9.12,11.94V16.89H5.69V5.69H16.89V9.12H11.94L18.31,15.5L15.5,18.31L9.12,11.94Z" />
    </g>
    <g id="mdi-arrow-top-left-thin-circle-outline" transform="translate(288 180) scale(1.5)" fill="#555">
      <path d="M12 3.97C16.41 3.97 20.03 7.59 20.03 12C20.03 16.41 16.41 20.03 12 20.03C7.59 20.03 3.97 16.41 3.97 12C3.97 7.59 7.59 3.97 12 3.97M12 2C6.46 2 2 6.46 2 12C2 17.54 6.46 22 12 22C17.54 22 22 17.54 22 12C22 6.46 17.54 2 12 2M10.12 11.53L8 13.64V8H13.64L11.53 10.12L16.5 15.1L15.1 16.5" />
    </g>
    <g id="mdi-arrow-top-left-thin-circle-outline" transform="translate(324 180) scale(1.5)" fill="#fff">
      <path d="M12 3.97C16.41 3.97 20.03 7.59 20.03 12C20.03 16.41 16.41 20.03 12 20.03C7.59 20.03 3.97 16.41 3.97 12C3.97 7.59 7.59 3.97 12 3.97M12 2C6.46 2 2 6.46 2 12C2 17.54 6.46 22 12 22C17.54 22 22 17.54 22 12C22 6.46 17.54 2 12 2M10.12 11.53L8 13.64V8H13.64L11.53 10.12L16.5 15.1L15.1 16.5" />
    </g>
    <g id="mdi-arrow-top-right" transform="translate(360 180) scale(1.5)" fill="#555">
      <path d="M5,17.59L15.59,7H9V5H19V15H17V8.41L6.41,19L5,17.59Z" />
    </g>
    <g id="mdi-arrow-top-right" transform="translate(396 180) scale(1.5)" fill="#fff">
      <path d="M5,17.59L15.59,7H9V5H19V15H17V8.41L6.41,19L5,17.59Z" />
    </g>
    <g id="mdi-arrow-top-right-bold-outline" transform="translate(432 180) scale(1.5)" fill="#555">
      <path d="M5.64,4.22H19.78V18.36L15.54,14.12L9.88,19.78L4.22,14.12L9.88,8.46L5.64,4.22M17.66,6.34H10.59L12.71,8.46L7.05,14.12L9.88,16.95L15.54,11.29L17.66,13.41V6.34H17.66Z" />
    </g>
    <g id="mdi-arrow-top-right-bold-outline" transform="translate(468 180) scale(1.5)" fill="#fff">
      <path d="M5.64,4.22H19.78V18.36L15.54,14.12L9.88,19.78L4.22,14.12L9.88,8.46L5.64,4.22M17.66,6.34H10.59L12.71,8.46L7.05,14.12L9.88,16.95L15.54,11.29L17.66,13.41V6.34H17.66Z" />
    </g>
    <g id="mdi-arrow-top-right-bottom-left" transform="translate(504 180) scale(1.5)" fill="#555">
      <path d="M11,21H3V13H5V17.59L17.59,5H13V3H21V11H19V6.41L6.41,19H11V21Z" />
    </g>
    <g id="mdi-arrow-top-right-bottom-left" transform="translate(540 180) scale(1.5)" fill="#fff">
      <path d="M11,21H3V13H5V17.59L17.59,5H13V3H21V11H19V6.41L6.41,19H11V21Z" />
    </g>
    <g id="mdi-arrow-top-right-bottom-left-bold" transform="translate(576 180) scale(1.5)" fill="#555">
      <path d="M18.17,8.66L21,11.5V3H12.5L15.34,5.83L5.83,15.34L3,12.5V21H11.5L8.66,18.17L18.17,8.66Z" />
    </g>
    <g id="mdi-arrow-top-right-bottom-left-bold" transform="translate(612 180) scale(1.5)" fill="#fff">
      <path d="M18.17,8.66L21,11.5V3H12.5L15.34,5.83L5.83,15.34L3,12.5V21H11.5L8.66,18.17L18.17,8.66Z" />
    </g>
    <g id="mdi-arrow-top-right-thick" transform="translate(648 180) scale(1.5)" fill="#555">
      <path d="M8.5,18.31L5.69,15.5L12.06,9.12H7.11V5.69H18.31V16.89H14.89V11.94L8.5,18.31Z" />
    </g>
    <g id="mdi-arrow-top-right-thick" transform="translate(684 180) scale(1.5)" fill="#fff">
      <path d="M8.5,18.31L5.69,15.5L12.06,9.12H7.11V5.69H18.31V16.89H14.89V11.94L8.5,18.31Z" />
    </g>
    <g id="mdi-arrow-top-right-thin-circle-outline" transform="translate(0 216) scale(1.5)" fill="#555">
      <path d="M12 3.97C7.59 3.97 3.97 7.59 3.97 12C3.97 16.41 7.59 20.03 12 20.03C16.41 20.03 20.03 16.41 20.03 12C20.03 7.59 16.41 3.97 12 3.97M12 2C17.54 2 22 6.46 22 12C22 17.54 17.54 22 12 22C6.46 22 2 17.54 2 12C2 6.46 6.46 2 12 2M13.88 11.53L16 13.64V8H10.36L12.47 10.12L7.5 15.1L8.9 16.5" />
    </g>
    <g id="mdi-arrow-top-right-thin-circle-outline" transform="translate(36 216) scale(1.5)" fill="#fff">
      <path d="M12 3.97C7.59 3.97 3.97 7.59 3.97 12C3.97 16.41 7.59 20.03 12 20.03C16.41 20.03 20.03 16.41 20.03 12C20.03 7.59 16.41 3.97 12 3.97M12 2C17.54 2 22 6.46 22 12C22 17.54 17.54 22 12 22C6.46 22 2 17.54 2 12C2 6.46 6.46 2 12 2M13.88 11.53L16 13.64V8H10.36L12.47 10.12L7.5 15.1L8.9 16.5" />
    </g>
    <g id="mdi-arrow-up" transform="translate(72 216) scale(1.5)" fill="#555">
      <path d="M13,20H11V8L5.5,13.5L4.08,12.08L12,4.16L19.92,12.08L18.5,13.5L13,8V20Z" />
    </g>
    <g id="mdi-arrow-up" transform="translate(108 216) scale(1.5)" fill="#fff">
      <path d="M13,20H11V8L5.5,13.5L4.08,12.08L12,4.16L19.92,12.08L18.5,13.5L13,8V20Z" />
    </g>
    <g id="mdi-arrow-up-bold" transform="translate(144 216) scale(1.5)" fill="#555">
      <path d="M15,20H9V12H4.16L12,4.16L19.84,12H15V20Z" />
    </g>
    <g id="mdi-arrow-up-bold" transform="translate(180 216) scale(1.5)" fill="#fff">
      <path d="M15,20H9V12H4.16L12,4.16L19.84,12H15V20Z" />
    </g>
    <g id="mdi-arrow-up-bold-box" transform="translate(216 216) scale(1.5)" fill="#555">
      <path d="M19,21H5A2,2 0 0,1 3,19V5A2,2 0 0,1 5,3H19A2,2 0 0,1 21,5V19A2,2 0 0,1 19,21M12,7L7,12H10V16H14V12H17L12,7Z" />
    </g>
    <g id="mdi-arrow-up-bold-box" transform="translate(252 216) scale(1.5)" fill="#fff">
      <path d="M19,21H5A2,2 0 0,1 3,19V5A2,2 0 0,1 5,3H19A2,2 0 0,1 21,5V19A2,2 0 0,1 19,21M12,7L7,12H10V16H14V12H17L12,7Z" />
    </g>
    <g id="mdi-arrow-up-bold-box-outline" transform="translate(288 216) scale(1.5)" fill="#555">
      <path d="M12,7L17,12H14V16H10V12H7L12,7M19,21H5A2,2 0 0,1 3,19V5A2,2 0 0,1 5,3H19A2,2 0 0,1 21,5V19A2,2 0 0,1 19,21M19,19V5H5V19H19Z" />
    </g>
    <g id="mdi-arrow-up-bold-box-outline" transform="translate(324 216) scale(1.5)" fill="#fff">
      <path d="M12,7L17,12H14V16H10V12H7L12,7M19,21H5A2,2 0 0,1 3,19V5A2,2 0 0,1 5,3H19A2,2 0 0,1 21,5V19A2,2 0 0,1 19,21M19,19V5H5V19H19Z" />
    </g>
    <g id="mdi-arrow-up-bold-circle" transform="translate(360 216) scale(1.5)" fill="#555">
      <path d="M12,22A10,10 0 0,1 2,12A10,10 0 0,1 12,2A10,10 0 0,1 22,12A10,10 0 0,1 12,22M12,7L7,12H10V16H14V12H17L12,7Z" />
    </g>
    <g id="mdi-arrow-up-bold-circle" transform="translate(396 216) scale(1.5)" fill="#fff">
      <path d="M12,22A10,10 0 0,1 2,12A10,10 0 0,1 12,2A10,10 0 0,1 22,12A10,10 0 0,1 12,22M12,7L7,12H10V16H14V12H17L12,7Z" />
    </g>
    <g id="mdi-arrow-up-bold-circle-outline" transform="translate(432 216) scale(1.5)" fill="#555">
      <path d="M12,7L17,12H14V16H10V12H7L12,7M12,22A10,10 0 0,1 2,12A10,10 0 0,1 12,2A10,10 0 0,1 22,12A10,10 0 0,1 12,22M12,20A8,8 0 0,0 20,12A8,8 0 0,0 12,4A8,8 0 0,0 4,12A8,8 0 0,0 12,20Z" />
    </g>
    <g id="mdi-arrow-up-bold-circle-outline" transform="translate(468 216) scale(1.5)" fill="#fff">
      <path d="M12,7L17,12H14V16H10V12H7L12,7M12,22A10,10 0 0,1 2,12A10,10 0 0,1 12,2A10,10 0 0,1 22,12A10,10 0 0,1 12,22M12,20A8,8 0 0,0 20,12A8,8 0 0,0 12,4A8,8 0 0,0 4,12A8,8 0 0,0 12,20Z" />
    </g>
    <g id="mdi-arrow-up-bold-hexagon-outline" transform="translate(504 216) scale(1.5)" fill="#555">
      <path d="M12,7L17,12H14V16H10V12H7L12,7M21,16.5C21,16.88 20.79,17.21 20.47,17.38L12.57,21.82C12.41,21.94 12.21,22 12,22C11.79,22 11.59,21.94 11.43,21.82L3.53,17.38C3.21,17.21 3,16.88 3,16.5V7.5C3,7.12 3.21,6.79 3.53,6.62L11.43,2.18C11.59,2.06 11.79,2 12,2C12.21,2 12.41,2.06 12.57,2.18L20.47,6.62C20.79,6.79 21,7.12 21,7.5V16.5M12,4.15L5,8.09V15.91L12,19.85L19,15.91V8.09L12,4.15Z" />
    </g>
    <g id="mdi-arrow-up-bold-hexagon-outline" transform="translate(540 216) scale(1.5)" fill="#fff">
      <path d="M12,7L17,12H14V16H10V12H7L12,7M21,16.5C21,16.88 20.79,17.21 20.47,17.38L12.57,21.82C12.41,21.94 12.21,22 12,22C11.79,22 11.59,21.94 11.43,21.82L3.53,17.38C3.21,17.21 3,16.88 3,16.5V7.5C3,7.12 3.21,6.79 3.53,6.62L11.43,2.18C11.59,2.06 11.79,2 12,2C12.21,2 12.41,2.06 12.57,2.18L20.47,6.62C20.79,6.79 21,7.12 21,7.5V16.5M12,4.15L5,8.09V15.91L12,19.85L19,15.91V8.09L12,4.15Z" />
    </g>
    <g id="mdi-arrow-up-bold-outline" transform="translate(576 216) scale(1.5)" fill="#555">
      <path d="M16,13V21H8V13H2L12,3L22,13H16M7,11H10V19H14V11H17L12,6L7,11Z" />
    </g>
    <g id="mdi-arrow-up-bold-outline" transform="translate(612 216) scale(1.5)" fill="#fff">
      <path d="M16,13V21H8V13H2L12,3L22,13H16M7,11H10V19H14V11H17L12,6L7,11Z" />
    </g>
    <g id="mdi-arrow-up-box" transform="translate(648 216) scale(1.5)" fill="#555">
      <path d="M21,19A2,2 0 0,1 19,21H5A2,2 0 0,1 3,19V5A2,2 0 0,1 5,3H19C20.11,3 21,3.9 21,5V19M13,18V9.5L16.5,13L17.92,11.58L12,5.66L6.08,11.58L7.5,13L11,9.5V18H13Z" />
    </g>
    <g id="mdi-arrow-up-box" transform="translate(684 216) scale(1.5)" fill="#fff">
      <path d="M21,19A2,2 0 0,1 19,21H5A2,2 0 0,1 3,19V5A2,2 0 0,1 5,3H19C20.11,3 21,3.9 21,5V19M13,18V9.5L16.5,13L17.92,11.58L12,5.66L6.08,11.58L7.5,13L11,9.5V18H13Z" />
    </g>
    <g id="mdi-arrow-up-circle" transform="translate(0 252) scale(1.5)" fill="#555">
      <path d="M13,18V10L16.5,13.5L17.92,12.08L12,6.16L6.08,12.08L7.5,13.5L11,10V18H13M12,2A10,10 0 0,1 22,12A10,10 0 0,1 12,22A10,10 0 0,1 2,12A10,10 0 0,1 12,2Z" />
    </g>
    <g id="mdi-arrow-up-circle" transform="translate(36 252) scale(1.5)" fill="#fff">
      <path d="M13,18V10L16.5,13.5L17.92,12.08L12,6.16L6.08,12.08L7.5,13.5L11,10V18H13M12,2A10,10 0 0,1 22,12A10,10 0 0,1 12,22A10,10 0 0,1 2,12A10,10 0 0,1 12,2Z" />
    </g>
    <g id="mdi-arrow-up-circle-outline" transform="translate(72 252) scale(1.5)" fill="#555">
      <path d="M13,18H11V10L7.5,13.5L6.08,12.08L12,6.16L17.92,12.08L16.5,13.5L13,10V18M12,2A10,10 0 0,1 22,12A10,10 0 0,1 12,22A10,10 0 0,1 2,12A10,10 0 0,1 12,2M12,4A8,8 0 0,0 4,12A8,8 0 0,0 12,20A8,8 0 0,0 20,12A8,8 0 0,0 12,4Z" />
    </g>
    <g id="mdi-arrow-up-circle-outline" transform="translate(108 252) scale(1.5)" fill="#fff">
      <path d="M13,18H11V10L7.5,13.5L6.08,12.08L12,6.16L17.92,12.08L16.5,13.5L13,10V18M12,2A10,10 0 0,1 22,12A10,10 0 0,1 12,22A10,10 0 0,1 2,12A10,10 0 0,1 12,2M12,4A8,8 0 0,0 4,12A8,8 0 0,0 12,20A8,8 0 0,0 20,12A8,8 0 0,0 12,4Z" />
    </g>
    <g id="mdi-arrow-up-down" transform="translate(144 252) scale(1.5)" fill="#555">
      <path d="M17.45,17.55L12,23L6.55,17.55L7.96,16.14L11,19.17V4.83L7.96,7.86L6.55,6.45L12,1L17.45,6.45L16.04,7.86L13,4.83V19.17L16.04,16.14L17.45,17.55Z" />
    </g>
    <g id="mdi-arrow-up-down" transform="translate(180 252) scale(1.5)" fill="#fff">
      <path d="M17.45,17.55L12,23L6.55,17.55L7.96,16.14L11,19.17V4.83L7.96,7.86L6.55,6.45L12,1L17.45,6.45L16.04,7.86L13,4.83V19.17L16.04,16.14L17.45,17.55Z" />
    </g>
    <g id="mdi-arrow-up-down-bold" transform="translate(216 252) scale(1.5)" fill="#555">
      <path d="M10,8H6L12,2L18,8H14V16H18L12,22L6,16H10V8Z" />
    </g>
    <g id="mdi-arrow-up-down-bold" transform="translate(252 252) scale(1.5)" fill="#fff">
      <path d="M10,8H6L12,2L18,8H14V16H18L12,22L6,16H10V8Z" />
    </g>
    <g id="mdi-arrow-up-down-bold-outline" transform="translate(288 252) scale(1.5)" fill="#555">
      <path d="M16,10H22L12,0L2,10H8V14H2L12,24L22,14H16V10M14,16H17L12,21L7,16H10V8H7L12,3L17,8H14V16Z" />
    </g>
    <g id="mdi-arrow-up-down-bold-outline" transform="translate(324 252) scale(1.5)" fill="#fff">
      <path d="M16,10H22L12,0L2,10H8V14H2L12,24L22,14H16V10M14,16H17L12,21L7,16H10V8H7L12,3L17,8H14V16Z" />
    </g>
    <g id="mdi-arrow-up-drop-circle" transform="translate(360 252) scale(1.5)" fill="#555">
      <path d="M12,22A10,10 0 0,1 2,12A10,10 0 0,1 12,2A10,10 0 0,1 22,12A10,10 0 0,1 12,22M17,14L12,9L7,14H17Z" />
    </g>
    <g id="mdi-arrow-up-drop-circle" transform="translate(396 252) scale(1.5)" fill="#fff">
      <path d="M12,22A10,10 0 0,1 2,12A10,10 0 0,1 12,2A10,10 0 0,1 22,12A10,10 0 0,1 12,22M17,14L12,9L7,14H17Z" />
    </g>
    <g id="mdi-arrow-up-drop-circle-outline" transform="translate(432 252) scale(1.5)" fill="#555">
      <path d="M12,22A10,10 0 0,0 22,12A10,10 0 0,0 12,2A10,10 0 0,0 2,12A10,10 0 0,0 12,22M12,20A8,8 0 0,1 4,12A8,8 0 0,1 12,4A8,8 0 0,1 20,12A8,8 0 0,1 12,20M17,14L12,9L7,14H17Z" />
    </g>
    <g id="mdi-arrow-up-drop-circle-outline" transform="translate(468 252) scale(1.5)" fill="#fff">
      <path d="M12,22A10,10 0 0,0 22,12A10,10 0 0,0 12,2A10,10 0 0,0 2,12A10,10 0 0,0 12,22M12,20A8,8 0 0,1 4,12A8,8 0 0,1 12,4A8,8 0 0,1 20,12A8,8 0 0,1 12,20M17,14L12,9L7,14H17Z" />
    </g>
    <g id="mdi-arrow-up-thick" transform="translate(504 252) scale(1.5)" fill="#555">
      <path d="M14,20H10V11L6.5,14.5L4.08,12.08L12,4.16L19.92,12.08L17.5,14.5L14,11V20Z" />
    </g>
    <g id="mdi-arrow-up-thick" transform="translate(540 252) scale(1.5)" fill="#fff">
      <path d="M14,20H10V11L6.5,14.5L4.08,12.08L12,4.16L19.92,12.08L17.5,14.5L14,11V20Z" />
    </g>
    <g id="mdi-arrow-up-thin-circle-outline" transform="translate(576 252) scale(1.5)" fill="#555">
      <path d="M12 3.97C7.59 3.97 3.97 7.59 3.97 12C3.97 16.41 7.59 20.03 12 20.03C16.41 20.03 20.03 16.41 20.03 12C20.03 7.59 16.41 3.97 12 3.97M12 2C17.54 2 22 6.46 22 12C22 17.54 17.54 22 12 22C6.46 22 2 17.54 2 12C2 6.46 6.46 2 12 2M13 10.46H16L12 6.5L8 10.46H11V17.5H13" />
    </g>
    <g id="mdi-arrow-up-thin-circle-outline" transform="translate(612 252) scale(1.5)" fill="#fff">
      <path d="M12 3.97C7.59 3.97 3.97 7.59 3.97 12C3.97 16.41 7.59 20.03 12 20.03C16.41 20.03 20.03 16.41 20.03 12C20.03 7.59 16.41 3.97 12 3.97M12 2C17.54 2 22 6.46 22 12C22 17.54 17.54 22 12 22C6.46 22 2 17.54 2 12C2 6.46 6.46 2 12 2M13 10.46H16L12 6.5L8 10.46H11V17.5H13" />
    </g>
    <g id="mdi-arrow-vertical-lock" transform="translate(648 252) scale(1.5)" fill="#555">
      <path d="M18.8 11V9.5C18.8 8.1 17.4 7 16 7S13.2 8.1 13.2 9.5V11C12.6 11 12 11.6 12 12.2V15.7C12 16.4 12.6 17 13.2 17H18.7C19.4 17 20 16.4 20 15.8V12.3C20 11.6 19.4 11 18.8 11M17.5 11H14.5V9.5C14.5 8.7 15.2 8.2 16 8.2C16.8 8.2 17.5 8.7 17.5 9.5V11M9 6H12L8 2L4 6H7V18H4L8 22L12 18H9V6Z" />
    </g>
    <g id="mdi-arrow-vertical-lock" transform="translate(684 252) scale(1.5)" fill="#fff">
      <path d="M18.8 11V9.5C18.8 8.1 17.4 7 16 7S13.2 8.1 13.2 9.5V11C12.6 11 12 11.6 12 12.2V15.7C12 16.4 12.6 17 13.2 17H18.7C19.4 17 20 16.4 20 15.8V12.3C20 11.6 19.4 11 18.8 11M17.5 11H14.5V9.5C14.5 8.7 15.2 8.2 16 8.2C16.8 8.2 17.5 8.7 17.5 9.5V11M9 6H12L8 2L4 6H7V18H4L8 22L12 18H9V6Z" />
    </g>
    <g id="mdi-artstation" transform="translate(0 288) scale(1.5)" fill="#555">
      <path d="M1.77,16.88L3.5,19.86C3.84,20.54 4.54,21 5.33,21H16.79L14.43,16.88H1.77M22.23,16.9C22.23,16.5 22.11,16.11 21.9,15.78L15.17,4.1C14.82,3.44 14.15,3 13.35,3H9.8L20.18,21L21.82,18.14C22.13,17.6 22.23,17.36 22.23,16.9M12.73,13.94L8.1,5.92L3.45,13.94H12.73Z" />
    </g>
    <g id="mdi-artstation" transform="translate(36 288) scale(1.5)" fill="#fff">
      <path d="M1.77,16.88L3.5,19.86C3.84,20.54 4.54,21 5.33,21H16.79L14.43,16.88H1.77M22.23,16.9C22.23,16.5 22.11,16.11 21.9,15.78L15.17,4.1C14.82,3.44 14.15,3 13.35,3H9.8L20.18,21L21.82,18.14C22.13,17.6 22.23,17.36 22.23,16.9M12.73,13.94L8.1,5.92L3.45,13.94H12.73Z" />
    </g>
    <g id="mdi-aspect-ratio" transform="translate(72 288) scale(1.5)" fill="#555">
      <path d="M19,12H17V15H14V17H19V12M7,9H10V7H5V12H7V9M21,3H3A2,2 0 0,0 1,5V19A2,2 0 0,0 3,21H21A2,2 0 0,0 23,19V5A2,2 0 0,0 21,3M21,19H3V5H21V19Z" />
    </g>
    <g id="mdi-aspect-ratio" transform="translate(108 288) scale(1.5)" fill="#fff">
      <path d="M19,12H17V15H14V17H19V12M7,9H10V7H5V12H7V9M21,3H3A2,2 0 0,0 1,5V19A2,2 0 0,0 3,21H21A2,2 0 0,0 23,19V5A2,2 0 0,0 21,3M21,19H3V5H21V19Z" />
    </g>
    <g id="mdi-assistant" transform="translate(144 288) scale(1.5)" fill="#555">
      <path d="M19,2H5A2,2 0 0,0 3,4V18A2,2 0 0,0 5,20H9L12,23L15,20H19A2,2 0 0,0 21,18V4A2,2 0 0,0 19,2M13.88,12.88L12,17L10.12,12.88L6,11L10.12,9.12L12,5L13.88,9.12L18,11" />
    </g>
    <g id="mdi-assistant" transform="translate(180 288) scale(1.5)" fill="#fff">
      <path d="M19,2H5A2,2 0 0,0 3,4V18A2,2 0 0,0 5,20H9L12,23L15,20H19A2,2 0 0,0 21,18V4A2,2 0 0,0 19,2M13.88,12.88L12,17L10.12,12.88L6,11L10.12,9.12L12,5L13.88,9.12L18,11" />
    </g>
    <g id="mdi-asterisk" transform="translate(216 288) scale(1.5)" fill="#555">
      <path d="M10,2H14L13.21,9.91L19.66,5.27L21.66,8.73L14.42,12L21.66,15.27L19.66,18.73L13.21,14.09L14,22H10L10.79,14.09L4.34,18.73L2.34,15.27L9.58,12L2.34,8.73L4.34,5.27L10.79,9.91L10,2Z" />
    </g>
    <g id="mdi-asterisk" transform="translate(252 288) scale(1.5)" fill="#fff">
      <path d="M10,2H14L13.21,9.91L19.66,5.27L21.66,8.73L14.42,12L21.66,15.27L19.66,18.73L13.21,14.09L14,22H10L10.79,14.09L4.34,18.73L2.34,15.27L9.58,12L2.34,8.73L4.34,5.27L10.79,9.91L10,2Z" />
    </g>
    <g id="mdi-at" transform="translate(288 288) scale(1.5)" fill="#555">
      <path d="M12,15C12.81,15 13.5,14.7 14.11,14.11C14.7,13.5 15,12.81 15,12C15,11.19 14.7,10.5 14.11,9.89C13.5,9.3 12.81,9 12,9C11.19,9 10.5,9.3 9.89,9.89C9.3,10.5 9,11.19 9,12C9,12.81 9.3,13.5 9.89,14.11C10.5,14.7 11.19,15 12,15M12,2C14.75,2 17.1,3 19.05,4.95C21,6.9 22,9.25 22,12V13.45C22,14.45 21.65,15.3 21,16C20.3,16.67 19.5,17 18.5,17C17.3,17 16.31,16.5 15.56,15.5C14.56,16.5 13.38,17 12,17C10.63,17 9.45,16.5 8.46,15.54C7.5,14.55 7,13.38 7,12C7,10.63 7.5,9.45 8.46,8.46C9.45,7.5 10.63,7 12,7C13.38,7 14.55,7.5 15.54,8.46C16.5,9.45 17,10.63 17,12V13.45C17,13.86 17.16,14.22 17.46,14.53C17.76,14.84 18.11,15 18.5,15C18.92,15 19.27,14.84 19.57,14.53C19.87,14.22 20,13.86 20,13.45V12C20,9.81 19.23,7.93 17.65,6.35C16.07,4.77 14.19,4 12,4C9.81,4 7.93,4.77 6.35,6.35C4.77,7.93 4,9.81 4,12C4,14.19 4.77,16.07 6.35,17.65C7.93,19.23 9.81,20 12,20H17V22H12C9.25,22 6.9,21 4.95,19.05C3,17.1 2,14.75 2,12C2,9.25 3,6.9 4.95,4.95C6.9,3 9.25,2 12,2Z" />
    </g>
    <g id="mdi-at" transform="translate(324 288) scale(1.5)" fill="#fff">
      <path d="M12,15C12.81,15 13.5,14.7 14.11,14.11C14.7,13.5 15,12.81 15,12C15,11.19 14.7,10.5 14.11,9.89C13.5,9.3 12.81,9 12,9C11.19,9 10.5,9.3 9.89,9.89C9.3,10.5 9,11.19 9,12C9,12.81 9.3,13.5 9.89,14.11C10.5,14.7 11.19,15 12,15M12,2C14.75,2 17.1,3 19.05,4.95C21,6.9 22,9.25 22,12V13.45C22,14.45 21.65,15.3 21,16C20.3,16.67 19.5,17 18.5,17C17.3,17 16.31,16.5 15.56,15.5C14.56,16.5 13.38,17 12,17C10.63,17 9.45,16.5 8.46,15.54C7.5,14.55 7,13.38 7,12C7,10.63 7.5,9.45 8.46,8.46C9.45,7.5 10.63,7 12,7C13.38,7 14.55,7.5 15.54,8.46C16.5,9.45 17,10.63 17,12V13.45C17,13.86 17.16,14.22 17.46,14.53C17.76,14.84 18.11,15 18.5,15C18.92,15 19.27,14.84 19.57,14.53C19.87,14.22 20,13.86 20,13.45V12C20,9.81 19.23,7.93 17.65,6.35C16.07,4.77 14.19,4 12,4C9.81,4 7.93,4.77 6.35,6.35C4.77,7.93 4,9.81 4,12C4,14.19 4.77,16.07 6.35,17.65C7.93,19.23 9.81,20 12,20H17V22H12C9.25,22 6.9,21 4.95,19.05C3,17.1 2,14.75 2,12C2,9.25 3,6.9 4.95,4.95C6.9,3 9.25,2 12,2Z" />
    </g>
    <g id="mdi-atlassian" transform="translate(360 288) scale(1.5)" fill="#555">
      <path d="M7.93,11.24C7.74,11 7.38,10.94 7.13,11.13C7.06,11.19 7,11.26 6.96,11.34L2.06,21.15C1.91,21.44 2.03,21.79 2.32,21.94C2.4,22 2.5,22 2.59,22H9.41C9.63,22 9.84,21.88 9.94,21.68C11.41,18.63 10.5,14 7.93,11.24M11.53,2.31C9.05,6.14 8.76,11 10.77,15.09L14.06,21.68C14.17,21.88 14.37,22 14.59,22H21.41A0.59,0.59 0 0,0 22,21.41C22,21.32 22,21.23 21.94,21.15C21.94,21.15 12.76,2.77 12.5,2.31C12.39,2.04 12.06,1.92 11.78,2.06C11.67,2.11 11.58,2.2 11.53,2.31Z" />
    </g>
    <g id="mdi-atlassian" transform="translate(396 288) scale(1.5)" fill="#fff">
      <path d="M7.93,11.24C7.74,11 7.38,10.94 7.13,11.13C7.06,11.19 7,11.26 6.96,11.34L2.06,21.15C1.91,21.44 2.03,21.79 2.32,21.94C2.4,22 2.5,22 2.59,22H9.41C9.63,22 9.84,21.88 9.94,21.68C11.41,18.63 10.5,14 7.93,11.24M11.53,2.31C9.05,6.14 8.76,11 10.77,15.09L14.06,21.68C14.17,21.88 14.37,22 14.59,22H21.41A0.59,0.59 0 0,0 22,21.41C22,21.32 22,21.23 21.94,21.15C21.94,21.15 12.76,2.77 12.5,2.31C12.39,2.04 12.06,1.92 11.78,2.06C11.67,2.11 11.58,2.2 11.53,2.31Z" />
    </g>
    <g id="mdi-atm" transform="translate(432 288) scale(1.5)" fill="#555">
      <path d="M8,9V10.5H10.25V15H11.75V10.5H14V9H8M6,9H3A1,1 0 0,0 2,10V15H3.5V13.5H5.5V15H7V10A1,1 0 0,0 6,9M5.5,12H3.5V10.5H5.5V12M21,9H16.5A1,1 0 0,0 15.5,10V15H17V10.5H18V14H19.5V10.5H20.5V15H22V10A1,1 0 0,0 21,9Z" />
    </g>
    <g id="mdi-atm" transform="translate(468 288) scale(1.5)" fill="#fff">
      <path d="M8,9V10.5H10.25V15H11.75V10.5H14V9H8M6,9H3A1,1 0 0,0 2,10V15H3.5V13.5H5.5V15H7V10A1,1 0 0,0 6,9M5.5,12H3.5V10.5H5.5V12M21,9H16.5A1,1 0 0,0 15.5,10V15H17V10.5H18V14H19.5V10.5H20.5V15H22V10A1,1 0 0,0 21,9Z" />
    </g>
    <g id="mdi-atom" transform="translate(504 288) scale(1.5)" fill="#555">
      <path d="M12,11A1,1 0 0,1 13,12A1,1 0 0,1 12,13A1,1 0 0,1 11,12A1,1 0 0,1 12,11M4.22,4.22C5.65,2.79 8.75,3.43 12,5.56C15.25,3.43 18.35,2.79 19.78,4.22C21.21,5.65 20.57,8.75 18.44,12C20.57,15.25 21.21,18.35 19.78,19.78C18.35,21.21 15.25,20.57 12,18.44C8.75,20.57 5.65,21.21 4.22,19.78C2.79,18.35 3.43,15.25 5.56,12C3.43,8.75 2.79,5.65 4.22,4.22M15.54,8.46C16.15,9.08 16.71,9.71 17.23,10.34C18.61,8.21 19.11,6.38 18.36,5.64C17.62,4.89 15.79,5.39 13.66,6.77C14.29,7.29 14.92,7.85 15.54,8.46M8.46,15.54C7.85,14.92 7.29,14.29 6.77,13.66C5.39,15.79 4.89,17.62 5.64,18.36C6.38,19.11 8.21,18.61 10.34,17.23C9.71,16.71 9.08,16.15 8.46,15.54M5.64,5.64C4.89,6.38 5.39,8.21 6.77,10.34C7.29,9.71 7.85,9.08 8.46,8.46C9.08,7.85 9.71,7.29 10.34,6.77C8.21,5.39 6.38,4.89 5.64,5.64M9.88,14.12C10.58,14.82 11.3,15.46 12,16.03C12.7,15.46 13.42,14.82 14.12,14.12C14.82,13.42 15.46,12.7 16.03,12C15.46,11.3 14.82,10.58 14.12,9.88C13.42,9.18 12.7,8.54 12,7.97C11.3,8.54 10.58,9.18 9.88,9.88C9.18,10.58 8.54,11.3 7.97,12C8.54,12.7 9.18,13.42 9.88,14.12M18.36,18.36C19.11,17.62 18.61,15.79 17.23,13.66C16.71,14.29 16.15,14.92 15.54,15.54C14.92,16.15 14.29,16.71 13.66,17.23C15.79,18.61 17.62,19.11 18.36,18.36Z" />
    </g>
    <g id="mdi-atom" transform="translate(540 288) scale(1.5)" fill="#fff">
      <path d="M12,11A1,1 0 0,1 13,12A1,1 0 0,1 12,13A1,1 0 0,1 11,12A1,1 0 0,1 12,11M4.22,4.22C5.65,2.79 8.75,3.43 12,5.56C15.25,3.43 18.35,2.79 19.78,4.22C21.21,5.65 20.57,8.75 18.44,12C20.57,15.25 21.21,18.35 19.78,19.78C18.35,21.21 15.25,20.57 12,18.44C8.75,20.57 5.65,21.21 4.22,19.78C2.79,18.35 3.43,15.25 5.56,12C3.43,8.75 2.79,5.65 4.22,4.22M15.54,8.46C16.15,9.08 16.71,9.71 17.23,10.34C18.61,8.21 19.11,6.38 18.36,5.64C17.62,4.89 15.79,5.39 13.66,6.77C14.29,7.29 14.92,7.85 15.54,8.46M8.46,15.54C7.85,14.92 7.29,14.29 6.77,13.66C5.39,15.79 4.89,17.62 5.64,18.36C6.38,19.11 8.21,18.61 10.34,17.23C9.71,16.71 9.08,16.15 8.46,15.54M5.64,5.64C4.89,6.38 5.39,8.21 6.77,10.34C7.29,9.71 7.85,9.08 8.46,8.46C9.08,7.85 9.71,7.29 10.34,6.77C8.21,5.39 6.38,4.89 5.64,5.64M9.88,14.12C10.58,14.82 11.3,15.46 12,16.03C12.7,15.46 13.42,14.82 14.12,14.12C14.82,13.42 15.46,12.7 16.03,12C15.46,11.3 14.82,10.58 14.12,9.88C13.42,9.18 12.7,8.54 12,7.97C11.3,8.54 10.58,9.18 9.88,9.88C9.18,10.58 8.54,11.3 7.97,12C8.54,12.7 9.18,13.42 9.88,14.12M18.36,18.36C19.11,17.62 18.61,15.79 17.23,13.66C16.71,14.29 16.15,14.92 15.54,15.54C14.92,16.15 14.29,16.71 13.66,17.23C15.79,18.61 17.62,19.11 18.36,18.36Z" />
    </g>
    <g id="mdi-atom-variant" transform="translate(576 288) scale(1.5)" fill="#555">
      <path d="M18.36,2.64C20,2.64 21.36,4 21.36,5.64C21.36,7.29 20,8.64 18.36,8.64C16.71,8.64 15.36,7.29 15.36,5.64C15.36,5.34 15.41,5.06 15.5,4.8C14.43,4.29 13.25,4 12,4A8,8 0 0,0 4,12L4.04,12.84L2.05,13.05L2,12A10,10 0 0,1 12,2C13.69,2 15.28,2.42 16.67,3.16C17.16,2.83 17.74,2.64 18.36,2.64M18.36,4.64A1,1 0 0,0 17.36,5.64A1,1 0 0,0 18.36,6.64C18.92,6.64 19.36,6.19 19.36,5.64C19.36,5.08 18.92,4.64 18.36,4.64M5.64,15.36C7.29,15.36 8.64,16.71 8.64,18.36C8.64,18.66 8.59,18.94 8.5,19.2C9.57,19.71 10.75,20 12,20A8,8 0 0,0 20,12L19.96,11.16L21.95,10.95L22,12A10,10 0 0,1 12,22C10.31,22 8.72,21.58 7.33,20.84C6.84,21.17 6.26,21.36 5.64,21.36C4,21.36 2.64,20 2.64,18.36C2.64,16.71 4,15.36 5.64,15.36M5.64,17.36C5.08,17.36 4.64,17.81 4.64,18.36C4.64,18.92 5.08,19.36 5.64,19.36A1,1 0 0,0 6.64,18.36A1,1 0 0,0 5.64,17.36M12,8A4,4 0 0,1 16,12A4,4 0 0,1 12,16A4,4 0 0,1 8,12A4,4 0 0,1 12,8Z" />
    </g>
    <g id="mdi-atom-variant" transform="translate(612 288) scale(1.5)" fill="#fff">
      <path d="M18.36,2.64C20,2.64 21.36,4 21.36,5.64C21.36,7.29 20,8.64 18.36,8.64C16.71,8.64 15.36,7.29 15.36,5.64C15.36,5.34 15.41,5.06 15.5,4.8C14.43,4.29 13.25,4 12,4A8,8 0 0,0 4,12L4.04,12.84L2.05,13.05L2,12A10,10 0 0,1 12,2C13.69,2 15.28,2.42 16.67,3.16C17.16,2.83 17.74,2.64 18.36,2.64M18.36,4.64A1,1 0 0,0 17.36,5.64A1,1 0 0,0 18.36,6.64C18.92,6.64 19.36,6.19 19.36,5.64C19.36,5.08 18.92,4.64 18.36,4.64M5.64,15.36C7.29,15.36 8.64,16.71 8.64,18.36C8.64,18.66 8.59,18.94 8.5,19.2C9.57,19.71 10.75,20 12,20A8,8 0 0,0 20,12L19.96,11.16L21.95,10.95L22,12A10,10 0 0,1 12,22C10.31,22 8.72,21.58 7.33,20.84C6.84,21.17 6.26,21.36 5.64,21.36C4,21.36 2.64,20 2.64,18.36C2.64,16.71 4,15.36 5.64,15.36M5.64,17.36C5.08,17.36 4.64,17.81 4.64,18.36C4.64,18.92 5.08,19.36 5.64,19.36A1,1 0 0,0 6.64,18.36A1,1 0 0,0 5.64,17.36M12,8A4,4 0 0,1 16,12A4,4 0 0,1 12,16A4,4 0 0,1 8,12A4,4 0 0,1 12,8Z" />
    </g>
    <g id="mdi-attachment" transform="translate(648 288) scale(1.5)" fill="#555">
      <path d="M7.5,18A5.5,5.5 0 0,1 2,12.5A5.5,5.5 0 0,1 7.5,7H18A4,4 0 0,1 22,11A4,4 0 0,1 18,15H9.5A2.5,2.5 0 0,1 7,12.5A2.5,2.5 0 0,1 9.5,10H17V11.5H9.5A1,1 0 0,0 8.5,12.5A1,1 0 0,0 9.5,13.5H18A2.5,2.5 0 0,0 20.5,11A2.5,2.5 0 0,0 18,8.5H7.5A4,4 0 0,0 3.5,12.5A4,4 0 0,0 7.5,16.5H17V18H7.5Z" />
    </g>
    <g id="mdi-attachment" transform="translate(684 288) scale(1.5)" fill="#fff">
      <path d="M7.5,18A5.5,5.5 0 0,1 2,12.5A5.5,5.5 0 0,1 7.5,7H18A4,4 0 0,1 22,11A4,4 0 0,1 18,15H9.5A2.5,2.5 0 0,1 7,12.5A2.5,2.5 0 0,1 9.5,10H17V11.5H9.5A1,1 0 0,0 8.5,12.5A1,1 0 0,0 9.5,13.5H18A2.5,2.5 0 0,0 20.5,11A2.5,2.5 0 0,0 18,8.5H7.5A4,4 0 0,0 3.5,12.5A4,4 0 0,0 7.5,16.5H17V18H7.5Z" />
    </g>
    <g id="mdi-audio-video" transform="translate(0 324) scale(1.5)" fill="#555">
      <path d="M20,7H4A2,2 0 0,0 2,9V15A2,2 0 0,0 4,17H5V18C5,18.6 5.4,19 6,19H8C8.6,19 9,18.6 9,18V17H15V18C15,18.6 15.4,19 16,19H18C18.6,19 19,18.6 19,18V17H20A2,2 0 0,0 22,15V9A2,2 0 0,0 20,7M14,12H4V10H14V12M18,13A2,2 0 0,1 16,11A2,2 0 0,1 18,9A2,2 0 0,1 20,11A2,2 0 0,1 18,13M6,15H4V14H6V15M10,15H8V14H10V15M14,15H12V14H14V15Z" />
    </g>
    <g id="mdi-audio-video" transform="translate(36 324) scale(1.5)" fill="#fff">
      <path d="M20,7H4A2,2 0 0,0 2,9V15A2,2 0 0,0 4,17H5V18C5,18.6 5.4,19 6,19H8C8.6,19 9,18.6 9,18V17H15V18C15,18.6 15.4,19 16,19H18C18.6,19 19,18.6 19,18V17H20A2,2 0 0,0 22,15V9A2,2 0 0,0 20,7M14,12H4V10H14V12M18,13A2,2 0 0,1 16,11A2,2 0 0,1 18,9A2,2 0 0,1 20,11A2,2 0 0,1 18,13M6,15H4V14H6V15M10,15H8V14H10V15M14,15H12V14H14V15Z" />
    </g>
    <g id="mdi-audio-video-off" transform="translate(72 324) scale(1.5)" fill="#555">
      <path d="M22.1 21.5L2.4 1.7L1.1 3L5.1 7H4C2.9 7 2 7.9 2 9V15C2 16.1 2.9 17 4 17H5V18C5 18.6 5.4 19 6 19H8C8.6 19 9 18.6 9 18V17H15V18C15 18.6 15.4 19 16 19H17.1L20.8 22.7L22.1 21.5M6 15H4V14H6V15M4 12V10H8.1L10.1 12H4M10 15H8V14H10V15M12 15V14H12.1L13.1 15H12M14 10V10.8L20.2 17C21.2 16.9 22 16.1 22 15V9C22 7.9 21.1 7 20 7H10.2L13.2 10H14M18 9C19.1 9 20 9.9 20 11S19.1 13 18 13 16 12.1 16 11 16.9 9 18 9Z" />
    </g>
    <g id="mdi-audio-video-off" transform="translate(108 324) scale(1.5)" fill="#fff">
      <path d="M22.1 21.5L2.4 1.7L1.1 3L5.1 7H4C2.9 7 2 7.9 2 9V15C2 16.1 2.9 17 4 17H5V18C5 18.6 5.4 19 6 19H8C8.6 19 9 18.6 9 18V17H15V18C15 18.6 15.4 19 16 19H17.1L20.8 22.7L22.1 21.5M6 15H4V14H6V15M4 12V10H8.1L10.1 12H4M10 15H8V14H10V15M12 15V14H12.1L13.1 15H12M14 10V10.8L20.2 17C21.2 16.9 22 16.1 22 15V9C22 7.9 21.1 7 20 7H10.2L13.2 10H14M18 9C19.1 9 20 9.9 20 11S19.1 13 18 13 16 12.1 16 11 16.9 9 18 9Z" />
    </g>
    <g id="mdi-augmented-reality" transform="translate(144 324) scale(1.5)" fill="#555">
      <path d="M5,3C3.89,3 3,3.9 3,5V19A2,2 0 0,0 5,21H19A2,2 0 0,0 21,19V5A2,2 0 0,0 19,3H5M7,9H10C10.6,9 11,9.5 11,10V15H9.5V13.5H7.5V15H6V10C6,9.5 6.4,9 7,9M13,9H16.5C17.35,9 18,9.65 18,10.5V11.5C18,12.1 17.6,12.65 17.1,12.9L18,15H16.5L15.65,13H14.5V15H13V9M7.5,10.5V12H9.5V10.5H7.5M14.5,10.5V11.5H16.5V10.5H14.5" />
    </g>
    <g id="mdi-augmented-reality" transform="translate(180 324) scale(1.5)" fill="#fff">
      <path d="M5,3C3.89,3 3,3.9 3,5V19A2,2 0 0,0 5,21H19A2,2 0 0,0 21,19V5A2,2 0 0,0 19,3H5M7,9H10C10.6,9 11,9.5 11,10V15H9.5V13.5H7.5V15H6V10C6,9.5 6.4,9 7,9M13,9H16.5C17.35,9 18,9.65 18,10.5V11.5C18,12.1 17.6,12.65 17.1,12.9L18,15H16.5L15.65,13H14.5V15H13V9M7.5,10.5V12H9.5V10.5H7.5M14.5,10.5V11.5H16.5V10.5H14.5" />
    </g>
    <g id="mdi-auto-download" transform="translate(216 324) scale(1.5)" fill="#555">
      <path d="M22 17V19H11V17H22M19 4.5V9.5H22L16.5 15L11 9.5H14V4.5H19M10.7 15H8.8L8.1 13H4.9L4.2 15H2.3L5.5 6H7.5L10.7 15M7.65 11.65L6.5 8L5.35 11.65H7.65Z" />
    </g>
    <g id="mdi-auto-download" transform="translate(252 324) scale(1.5)" fill="#fff">
      <path d="M22 17V19H11V17H22M19 4.5V9.5H22L16.5 15L11 9.5H14V4.5H19M10.7 15H8.8L8.1 13H4.9L4.2 15H2.3L5.5 6H7.5L10.7 15M7.65 11.65L6.5 8L5.35 11.65H7.65Z" />
    </g>
    <g id="mdi-auto-fix" transform="translate(288 324) scale(1.5)" fill="#555">
      <path d="M7.5,5.6L5,7L6.4,4.5L5,2L7.5,3.4L10,2L8.6,4.5L10,7L7.5,5.6M19.5,15.4L22,14L20.6,16.5L22,19L19.5,17.6L17,19L18.4,16.5L17,14L19.5,15.4M22,2L20.6,4.5L22,7L19.5,5.6L17,7L18.4,4.5L17,2L19.5,3.4L22,2M13.34,12.78L15.78,10.34L13.66,8.22L11.22,10.66L13.34,12.78M14.37,7.29L16.71,9.63C17.1,10 17.1,10.65 16.71,11.04L5.04,22.71C4.65,23.1 4,23.1 3.63,22.71L1.29,20.37C0.9,20 0.9,19.35 1.29,18.96L12.96,7.29C13.35,6.9 14,6.9 14.37,7.29Z" />
    </g>
    <g id="mdi-auto-fix" transform="translate(324 324) scale(1.5)" fill="#fff">
      <path d="M7.5,5.6L5,7L6.4,4.5L5,2L7.5,3.4L10,2L8.6,4.5L10,7L7.5,5.6M19.5,15.4L22,14L20.6,16.5L22,19L19.5,17.6L17,19L18.4,16.5L17,14L19.5,15.4M22,2L20.6,4.5L22,7L19.5,5.6L17,7L18.4,4.5L17,2L19.5,3.4L22,2M13.34,12.78L15.78,10.34L13.66,8.22L11.22,10.66L13.34,12.78M14.37,7.29L16.71,9.63C17.1,10 17.1,10.65 16.71,11.04L5.04,22.71C4.65,23.1 4,23.1 3.63,22.71L1.29,20.37C0.9,20 0.9,19.35 1.29,18.96L12.96,7.29C13.35,6.9 14,6.9 14.37,7.29Z" />
    </g>
    <g id="mdi-auto-upload" transform="translate(360 324) scale(1.5)" fill="#555">
      <path d="M5.35,12.65L6.5,9L7.65,12.65M5.5,7L2.3,16H4.2L4.9,14H8.1L8.8,16H10.7L7.5,7M11,20H22V18H11M14,16H19V11H22L16.5,5.5L11,11H14V16Z" />
    </g>
    <g id="mdi-auto-upload" transform="translate(396 324) scale(1.5)" fill="#fff">
      <path d="M5.35,12.65L6.5,9L7.65,12.65M5.5,7L2.3,16H4.2L4.9,14H8.1L8.8,16H10.7L7.5,7M11,20H22V18H11M14,16H19V11H22L16.5,5.5L11,11H14V16Z" />
    </g>
    <g id="mdi-autorenew" transform="translate(432 324) scale(1.5)" fill="#555">
      <path d="M12,6V9L16,5L12,1V4A8,8 0 0,0 4,12C4,13.57 4.46,15.03 5.24,16.26L6.7,14.8C6.25,13.97 6,13 6,12A6,6 0 0,1 12,6M18.76,7.74L17.3,9.2C17.74,10.04 18,11 18,12A6,6 0 0,1 12,18V15L8,19L12,23V20A8,8 0 0,0 20,12C20,10.43 19.54,8.97 18.76,7.74Z" />
    </g>
    <g id="mdi-autorenew" transform="translate(468 324) scale(1.5)" fill="#fff">
      <path d="M12,6V9L16,5L12,1V4A8,8 0 0,0 4,12C4,13.57 4.46,15.03 5.24,16.26L6.7,14.8C6.25,13.97 6,13 6,12A6,6 0 0,1 12,6M18.76,7.74L17.3,9.2C17.74,10.04 18,11 18,12A6,6 0 0,1 12,18V15L8,19L12,23V20A8,8 0 0,0 20,12C20,10.43 19.54,8.97 18.76,7.74Z" />
    </g>
    <g id="mdi-av-timer" transform="translate(504 324) scale(1.5)" fill="#555">
      <path d="M11,17A1,1 0 0,0 12,18A1,1 0 0,0 13,17A1,1 0 0,0 12,16A1,1 0 0,0 11,17M11,3V7H13V5.08C16.39,5.57 19,8.47 19,12A7,7 0 0,1 12,19A7,7 0 0,1 5,12C5,10.32 5.59,8.78 6.58,7.58L12,13L13.41,11.59L6.61,4.79V4.81C4.42,6.45 3,9.05 3,12A9,9 0 0,0 12,21A9,9 0 0,0 21,12A9,9 0 0,0 12,3M18,12A1,1 0 0,0 17,11A1,1 0 0,0 16,12A1,1 0 0,0 17,13A1,1 0 0,0 18,12M6,12A1,1 0 0,0 7,13A1,1 0 0,0 8,12A1,1 0 0,0 7,11A1,1 0 0,0 6,12Z" />
    </g>
    <g id="mdi-av-timer" transform="translate(540 324) scale(1.5)" fill="#fff">
      <path d="M11,17A1,1 0 0,0 12,18A1,1 0 0,0 13,17A1,1 0 0,0 12,16A1,1 0 0,0 11,17M11,3V7H13V5.08C16.39,5.57 19,8.47 19,12A7,7 0 0,1 12,19A7,7 0 0,1 5,12C5,10.32 5.59,8.78 6.58,7.58L12,13L13.41,11.59L6.61,4.79V4.81C4.42,6.45 3,9.05 3,12A9,9 0 0,0 12,21A9,9 0 0,0 21,12A9,9 0 0,0 12,3M18,12A1,1 0 0,0 17,11A1,1 0 0,0 16,12A1,1 0 0,0 17,13A1,1 0 0,0 18,12M6,12A1,1 0 0,0 7,13A1,1 0 0,0 8,12A1,1 0 0,0 7,11A1,1 0 0,0 6,12Z" />
    </g>
    <g id="mdi-aws" transform="translate(576 324) scale(1.5)" fill="#555">
      <path d="M7.64,10.38C7.64,10.63 7.66,10.83 7.71,11C7.76,11.12 7.83,11.28 7.92,11.46C7.96,11.5 7.97,11.56 7.97,11.61C7.97,11.68 7.93,11.74 7.84,11.81L7.42,12.09C7.36,12.13 7.3,12.15 7.25,12.15C7.18,12.15 7.12,12.11 7.05,12.05C6.96,11.95 6.88,11.85 6.81,11.74C6.75,11.63 6.68,11.5 6.61,11.35C6.09,11.96 5.44,12.27 4.65,12.27C4.09,12.27 3.65,12.11 3.32,11.79C3,11.47 2.83,11.04 2.83,10.5C2.83,9.95 3.03,9.5 3.43,9.14C3.84,8.8 4.38,8.62 5.06,8.62C5.29,8.62 5.5,8.64 5.77,8.68C6,8.71 6.27,8.76 6.53,8.82V8.34C6.53,7.83 6.43,7.5 6.22,7.27C6,7.06 5.65,6.97 5.14,6.97C4.9,6.97 4.66,7 4.42,7.05C4.17,7.11 3.93,7.18 3.7,7.28C3.59,7.32 3.5,7.35 3.47,7.36C3.42,7.38 3.39,7.38 3.36,7.38C3.27,7.38 3.22,7.32 3.22,7.18V6.85C3.22,6.75 3.23,6.67 3.27,6.62C3.3,6.57 3.36,6.53 3.45,6.5C3.69,6.36 3.96,6.26 4.29,6.18C4.62,6.09 4.96,6.05 5.33,6.05C6.12,6.05 6.7,6.23 7.07,6.59C7.44,6.95 7.62,7.5 7.62,8.23V10.38H7.64M4.94,11.4C5.16,11.4 5.38,11.36 5.62,11.28C5.86,11.2 6.07,11.05 6.25,10.85C6.36,10.72 6.44,10.58 6.5,10.42C6.5,10.26 6.55,10.07 6.55,9.84V9.57C6.35,9.5 6.15,9.5 5.93,9.45C5.72,9.43 5.5,9.41 5.31,9.41C4.86,9.41 4.54,9.5 4.32,9.68C4.1,9.86 4,10.11 4,10.44C4,10.76 4.07,11 4.24,11.15C4.4,11.32 4.63,11.4 4.94,11.4M10.28,12.11C10.16,12.11 10.08,12.09 10,12.05C9.97,12 9.92,11.91 9.88,11.79L8.32,6.65C8.28,6.5 8.26,6.43 8.26,6.38C8.26,6.27 8.31,6.21 8.42,6.21H9.07C9.2,6.21 9.29,6.23 9.33,6.28C9.39,6.32 9.43,6.41 9.47,6.54L10.58,10.94L11.62,6.54C11.65,6.41 11.69,6.32 11.75,6.28C11.8,6.24 11.89,6.21 12,6.21H12.55C12.67,6.21 12.76,6.23 12.81,6.28C12.86,6.32 12.91,6.41 12.94,6.54L14,11L15.14,6.54C15.18,6.41 15.23,6.32 15.27,6.28C15.33,6.24 15.41,6.21 15.53,6.21H16.15C16.26,6.21 16.32,6.27 16.32,6.38C16.32,6.41 16.31,6.45 16.3,6.5C16.3,6.5 16.28,6.58 16.26,6.65L14.65,11.79C14.61,11.93 14.57,12 14.5,12.05C14.46,12.09 14.37,12.12 14.26,12.12H13.69C13.56,12.12 13.5,12.1 13.42,12.05C13.37,12 13.32,11.92 13.3,11.79L12.27,7.5L11.24,11.78C11.21,11.91 11.17,12 11.12,12.05C11.06,12.09 10.97,12.11 10.85,12.11H10.28M18.83,12.29C18.5,12.29 18.13,12.25 17.8,12.17C17.47,12.09 17.21,12 17.04,11.91C16.93,11.85 16.86,11.78 16.83,11.72C16.8,11.66 16.79,11.6 16.79,11.54V11.2C16.79,11.06 16.84,11 16.94,11C17,11 17,11 17.06,11C17.1,11 17.16,11.05 17.23,11.08C17.45,11.18 17.7,11.26 17.96,11.31C18.23,11.36 18.5,11.39 18.75,11.39C19.17,11.39 19.5,11.32 19.72,11.17C19.95,11 20.07,10.81 20.07,10.54C20.07,10.35 20,10.2 19.89,10.07C19.77,9.95 19.54,9.83 19.22,9.73L18.25,9.43C17.77,9.27 17.41,9.05 17.19,8.75C16.97,8.46 16.86,8.13 16.86,7.78C16.86,7.5 16.92,7.26 17.04,7.05C17.16,6.83 17.32,6.65 17.5,6.5C17.72,6.35 17.94,6.24 18.21,6.16C18.47,6.08 18.75,6.04 19.05,6.04C19.19,6.04 19.34,6.05 19.5,6.07C19.64,6.09 19.78,6.12 19.92,6.14C20.06,6.18 20.18,6.21 20.3,6.25C20.42,6.29 20.5,6.33 20.58,6.37C20.67,6.42 20.74,6.47 20.78,6.53C20.82,6.59 20.84,6.66 20.84,6.75V7.07C20.84,7.21 20.79,7.28 20.69,7.28C20.64,7.28 20.55,7.25 20.43,7.2C20.06,7.03 19.63,6.94 19.16,6.94C18.78,6.94 18.5,7 18.27,7.13C18.07,7.25 17.96,7.45 17.96,7.72C17.96,7.91 18.03,8.07 18.16,8.19C18.29,8.32 18.54,8.44 18.89,8.56L19.84,8.86C20.32,9 20.66,9.22 20.87,9.5C21.07,9.77 21.17,10.08 21.17,10.43C21.17,10.71 21.11,10.97 21,11.2C20.88,11.42 20.72,11.62 20.5,11.78C20.31,11.95 20.06,12.07 19.78,12.16C19.5,12.25 19.16,12.29 18.83,12.29M20.08,15.53C17.89,17.14 14.71,18 12,18C8.15,18 4.7,16.58 2.09,14.23C1.88,14.04 2.07,13.79 2.32,13.94C5.14,15.57 8.61,16.56 12.21,16.56C14.64,16.56 17.31,16.06 19.76,15C20.13,14.85 20.44,15.26 20.08,15.53M21,14.5C20.71,14.13 19.14,14.32 18.43,14.4C18.22,14.43 18.19,14.24 18.38,14.1C19.63,13.23 21.69,13.5 21.92,13.77C22.16,14.07 21.86,16.13 20.69,17.11C20.5,17.26 20.33,17.18 20.41,17C20.68,16.32 21.27,14.84 21,14.5Z" />
    </g>
    <g id="mdi-aws" transform="translate(612 324) scale(1.5)" fill="#fff">
      <path d="M7.64,10.38C7.64,10.63 7.66,10.83 7.71,11C7.76,11.12 7.83,11.28 7.92,11.46C7.96,11.5 7.97,11.56 7.97,11.61C7.97,11.68 7.93,11.74 7.84,11.81L7.42,12.09C7.36,12.13 7.3,12.15 7.25,12.15C7.18,12.15 7.12,12.11 7.05,12.05C6.96,11.95 6.88,11.85 6.81,11.74C6.75,11.63 6.68,11.5 6.61,11.35C6.09,11.96 5.44,12.27 4.65,12.27C4.09,12.27 3.65,12.11 3.32,11.79C3,11.47 2.83,11.04 2.83,10.5C2.83,9.95 3.03,9.5 3.43,9.14C3.84,8.8 4.38,8.62 5.06,8.62C5.29,8.62 5.5,8.64 5.77,8.68C6,8.71 6.27,8.76 6.53,8.82V8.34C6.53,7.83 6.43,7.5 6.22,7.27C6,7.06 5.65,6.97 5.14,6.97C4.9,6.97 4.66,7 4.42,7.05C4.17,7.11 3.93,7.18 3.7,7.28C3.59,7.32 3.5,7.35 3.47,7.36C3.42,7.38 3.39,7.38 3.36,7.38C3.27,7.38 3.22,7.32 3.22,7.18V6.85C3.22,6.75 3.23,6.67 3.27,6.62C3.3,6.57 3.36,6.53 3.45,6.5C3.69,6.36 3.96,6.26 4.29,6.18C4.62,6.09 4.96,6.05 5.33,6.05C6.12,6.05 6.7,6.23 7.07,6.59C7.44,6.95 7.62,7.5 7.62,8.23V10.38H7.64M4.94,11.4C5.16,11.4 5.38,11.36 5.62,11.28C5.86,11.2 6.07,11.05 6.25,10.85C6.36,10.72 6.44,10.58 6.5,10.42C6.5,10.26 6.55,10.07 6.55,9.84V9.57C6.35,9.5 6.15,9.5 5.93,9.45C5.72,9.43 5.5,9.41 5.31,9.41C4.86,9.41 4.54,9.5 4.32,9.68C4.1,9.86 4,10.11 4,10.44C4,10.76 4.07,11 4.24,11.15C4.4,11.32 4.63,11.4 4.94,11.4M10.28,12.11C10.16,12.11 10.08,12.09 10,12.05C9.97,12 9.92,11.91 9.88,11.79L8.32,6.65C8.28,6.5 8.26,6.43 8.26,6.38C8.26,6.27 8.31,6.21 8.42,6.21H9.07C9.2,6.21 9.29,6.23 9.33,6.28C9.39,6.32 9.43,6.41 9.47,6.54L10.58,10.94L11.62,6.54C11.65,6.41 11.69,6.32 11.75,6.28C11.8,6.24 11.89,6.21 12,6.21H12.55C12.67,6.21 12.76,6.23 12.81,6.28C12.86,6.32 12.91,6.41 12.94,6.54L14,11L15.14,6.54C15.18,6.41 15.23,6.32 15.27,6.28C15.33,6.24 15.41,6.21 15.53,6.21H16.15C16.26,6.21 16.32,6.27 16.32,6.38C16.32,6.41 16.31,6.45 16.3,6.5C16.3,6.5 16.28,6.58 16.26,6.65L14.65,11.79C14.61,11.93 14.57,12 14.5,12.05C14.46,12.09 14.37,12.12 14.26,12.12H13.69C13.56,12.12 13.5,12.1 13.42,12.05C13.37,12 13.32,11.92 13.3,11.79L12.27,7.5L11.24,11.78C11.21,11.91 11.17,12 11.12,12.05C11.06,12.09 10.97,12.11 10.85,12.11H10.28M18.83,12.29C18.5,12.29 18.13,12.25 17.8,12.17C17.47,12.09 17.21,12 17.04,11.91C16.93,11.85 16.86,11.78 16.83,11.72C16.8,11.66 16.79,11.6 16.79,11.54V11.2C16.79,11.06 16.84,11 16.94,11C17,11 17,11 17.06,11C17.1,11 17.16,11.05 17.23,11.08C17.45,11.18 17.7,11.26 17.96,11.31C18.23,11.36 18.5,11.39 18.75,11.39C19.17,11.39 19.5,11.32 19.72,11.17C19.95,11 20.07,10.81 20.07,10.54C20.07,10.35 20,10.2 19.89,10.07C19.77,9.95 19.54,9.83 19.22,9.73L18.25,9.43C17.77,9.27 17.41,9.05 17.19,8.75C16.97,8.46 16.86,8.13 16.86,7.78C16.86,7.5 16.92,7.26 17.04,7.05C17.16,6.83 17.32,6.65 17.5,6.5C17.72,6.35 17.94,6.24 18.21,6.16C18.47,6.08 18.75,6.04 19.05,6.04C19.19,6.04 19.34,6.05 19.5,6.07C19.64,6.09 19.78,6.12 19.92,6.14C20.06,6.18 20.18,6.21 20.3,6.25C20.42,6.29 20.5,6.33 20.58,6.37C20.67,6.42 20.74,6.47 20.78,6.53C20.82,6.59 20.84,6.66 20.84,6.75V7.07C20.84,7.21 20.79,7.28 20.69,7.28C20.64,7.28 20.55,7.25 20.43,7.2C20.06,7.03 19.63,6.94 19.16,6.94C18.78,6.94 18.5,7 18.27,7.13C18.07,7.25 17.96,7.45 17.96,7.72C17.96,7.91 18.03,8.07 18.16,8.19C18.29,8.32 18.54,8.44 18.89,8.56L19.84,8.86C20.32,9 20.66,9.22 20.87,9.5C21.07,9.77 21.17,10.08 21.17,10.43C21.17,10.71 21.11,10.97 21,11.2C20.88,11.42 20.72,11.62 20.5,11.78C20.31,11.95 20.06,12.07 19.78,12.16C19.5,12.25 19.16,12.29 18.83,12.29M20.08,15.53C17.89,17.14 14.71,18 12,18C8.15,18 4.7,16.58 2.09,14.23C1.88,14.04 2.07,13.79 2.32,13.94C5.14,15.57 8.61,16.56 12.21,16.56C14.64,16.56 17.31,16.06 19.76,15C20.13,14.85 20.44,15.26 20.08,15.53M21,14.5C20.71,14.13 19.14,14.32 18.43,14.4C18.22,14.43 18.19,14.24 18.38,14.1C19.63,13.23 21.69,13.5 21.92,13.77C22.16,14.07 21.86,16.13 20.69,17.11C20.5,17.26 20.33,17.18 20.41,17C20.68,16.32 21.27,14.84 21,14.5Z" />
    </g>
    <g id="mdi-axe" transform="translate(648 324) scale(1.5)" fill="#555">
      <path d="M12,2L22,8C22,12 20,14 16,15L13,10L9,6L12,2M4.11,19.84L2.12,18.33L9.19,9L11,10.81L4.11,19.84Z" />
    </g>
    <g id="mdi-axe" transform="translate(684 324) scale(1.5)" fill="#fff">
      <path d="M12,2L22,8C22,12 20,14 16,15L13,10L9,6L12,2M4.11,19.84L2.12,18.33L9.19,9L11,10.81L4.11,19.84Z" />
    </g>
  </svg>