<?xml version="1.0" encoding="UTF-8"?>
<!DOCTYPE svg PUBLIC "-//W3C//DTD SVG 1.1//EN" "http://www.w3.org/Graphics/SVG/1.1/DTD/svg11.dtd"><svg
  xmlns="http://www.w3.org/2000/svg" xmlns:xlink="http://www.w3.org/1999/xlink" version="1.1"
  width="720" height="900" viewBox="0 0 720 900">
    <g id="mdi-spellcheck" transform="translate(0 0) scale(1.5)" fill="#555">
      <path d="M21.59,11.59L13.5,19.68L9.83,16L8.42,17.41L13.5,22.5L23,13M6.43,11L8.5,5.5L10.57,11M12.45,16H14.54L9.43,3H7.57L2.46,16H4.55L5.67,13H11.31L12.45,16Z" />
    </g>
    <g id="mdi-spellcheck" transform="translate(36 0) scale(1.5)" fill="#fff">
      <path d="M21.59,11.59L13.5,19.68L9.83,16L8.42,17.41L13.5,22.5L23,13M6.43,11L8.5,5.5L10.57,11M12.45,16H14.54L9.43,3H7.57L2.46,16H4.55L5.67,13H11.31L12.45,16Z" />
    </g>
    <g id="mdi-spider" transform="translate(72 0) scale(1.5)" fill="#555">
      <path d="M21.29 16.71L22.71 15.29L19.5 12.11L16.5 11.26L18.41 11L22.6 7.8L21.4 6.2L17.59 9.05L14.91 9.5L18.11 6.31L17 1.76L15 2.24L15.86 5.69L14.76 6.83A3 3 0 0 0 9.24 6.83L8.11 5.69L9 2.24L7 1.76L5.89 6.31L9.09 9.5L6.4 9.05L2.6 6.2L1.4 7.8L5.6 11L7.46 11.31L4.46 12.16L1.29 15.29L2.71 16.71L5.5 13.89L7.87 13.22L4 16.54V22H6V17.46L7.56 16.12A4.5 4.5 0 0 0 16.44 16.12L18 17.46V22H20V16.54L16.13 13.22L18.5 13.89Z" />
    </g>
    <g id="mdi-spider" transform="translate(108 0) scale(1.5)" fill="#fff">
      <path d="M21.29 16.71L22.71 15.29L19.5 12.11L16.5 11.26L18.41 11L22.6 7.8L21.4 6.2L17.59 9.05L14.91 9.5L18.11 6.31L17 1.76L15 2.24L15.86 5.69L14.76 6.83A3 3 0 0 0 9.24 6.83L8.11 5.69L9 2.24L7 1.76L5.89 6.31L9.09 9.5L6.4 9.05L2.6 6.2L1.4 7.8L5.6 11L7.46 11.31L4.46 12.16L1.29 15.29L2.71 16.71L5.5 13.89L7.87 13.22L4 16.54V22H6V17.46L7.56 16.12A4.5 4.5 0 0 0 16.44 16.12L18 17.46V22H20V16.54L16.13 13.22L18.5 13.89Z" />
    </g>
    <g id="mdi-spider-thread" transform="translate(144 0) scale(1.5)" fill="#555">
      <path d="M13 2V7.08A5.47 5.47 0 0 0 12 7A5.47 5.47 0 0 0 11 7.08V2M16.9 15A5 5 0 0 1 16.73 15.55L20 17.42V22H18V18.58L15.74 17.29A4.94 4.94 0 0 1 8.26 17.29L6 18.58V22H4V17.42L7.27 15.55A5 5 0 0 1 7.1 15H5.3L2.55 16.83L1.45 15.17L4.7 13H7.1A5 5 0 0 1 7.37 12.12L5.81 11.12L2.24 12L1.76 10L6.19 8.92L8.5 10.45A5 5 0 0 1 15.5 10.45L17.77 8.92L22.24 10L21.76 12L18.19 11.11L16.63 12.11A5 5 0 0 1 16.9 13H19.3L22.55 15.16L21.45 16.82L18.7 15M11 14A1 1 0 1 0 10 15A1 1 0 0 0 11 14M15 14A1 1 0 1 0 14 15A1 1 0 0 0 15 14Z" />
    </g>
    <g id="mdi-spider-thread" transform="translate(180 0) scale(1.5)" fill="#fff">
      <path d="M13 2V7.08A5.47 5.47 0 0 0 12 7A5.47 5.47 0 0 0 11 7.08V2M16.9 15A5 5 0 0 1 16.73 15.55L20 17.42V22H18V18.58L15.74 17.29A4.94 4.94 0 0 1 8.26 17.29L6 18.58V22H4V17.42L7.27 15.55A5 5 0 0 1 7.1 15H5.3L2.55 16.83L1.45 15.17L4.7 13H7.1A5 5 0 0 1 7.37 12.12L5.81 11.12L2.24 12L1.76 10L6.19 8.92L8.5 10.45A5 5 0 0 1 15.5 10.45L17.77 8.92L22.24 10L21.76 12L18.19 11.11L16.63 12.11A5 5 0 0 1 16.9 13H19.3L22.55 15.16L21.45 16.82L18.7 15M11 14A1 1 0 1 0 10 15A1 1 0 0 0 11 14M15 14A1 1 0 1 0 14 15A1 1 0 0 0 15 14Z" />
    </g>
    <g id="mdi-spider-web" transform="translate(216 0) scale(1.5)" fill="#555">
      <path d="M13.62,13.28L15.26,15.54C15.29,15 15.38,14.47 15.56,13.93C15.74,13.37 16,12.86 16.3,12.41L13.62,13.28M17.77,19C17.75,17.68 17.95,16.27 18.41,14.85C18.88,13.42 19.56,12.14 20.36,11.09L18.32,11.75C17.54,12.26 16.87,13.14 16.5,14.23C16.17,15.29 16.18,16.36 16.5,17.22L17.77,19M19.25,21C18.75,21.46 18.21,21.86 17.63,22.2L17.31,21.76C15.9,21 14.04,20.5 12,20.5C9.96,20.5 8.1,21 6.69,21.76L6.37,22.2C5.79,21.86 5.25,21.46 4.75,21L5,20.69C5.33,19.08 5.22,17.12 4.58,15.14C3.94,13.19 2.9,11.56 1.71,10.46L1.27,10.32C1.42,9.66 1.63,9 1.89,8.41L2.29,8.54C3.92,8.37 5.74,7.65 7.43,6.43C9.09,5.22 10.32,3.73 11,2.26V1.79L12,1.75L13,1.79V2.21C13.67,3.71 14.91,5.23 16.6,6.45C18.26,7.66 20.06,8.37 21.67,8.56L22.11,8.41C22.37,9 22.58,9.66 22.73,10.32L22.23,10.5C21.04,11.58 20,13.21 19.37,15.16C18.74,17.09 18.62,19 18.92,20.57L19.25,21M11,11.37V8.5C10.66,8.92 10.26,9.32 9.78,9.67C9.29,10 8.77,10.29 8.25,10.5L11,11.37M11,4.22C10.25,5.31 9.24,6.35 8,7.24C6.78,8.14 5.46,8.78 4.18,9.16L6.15,9.8C7.11,9.88 8.22,9.56 9.19,8.86C10.13,8.18 10.76,7.27 11,6.36V4.22M13,11.37L15.74,10.5C15.23,10.3 14.72,10.03 14.25,9.69C13.76,9.33 13.34,8.92 13,8.5V11.37M19.8,9.16C18.53,8.78 17.23,8.15 16,7.26C14.77,6.36 13.76,5.31 13,4.2V6.27C13.22,7.21 13.86,8.17 14.84,8.88C15.77,9.56 16.83,9.87 17.77,9.82L19.8,9.16M10.38,13.28L7.64,12.39C7.95,12.84 8.2,13.35 8.38,13.91C8.57,14.5 8.66,15.06 8.68,15.62L10.38,13.28M3.58,11.07C4.38,12.12 5.06,13.4 5.53,14.83C6,16.29 6.2,17.74 6.17,19.08L7.38,17.41C7.76,16.5 7.8,15.36 7.43,14.22C7.07,13.12 6.4,12.24 5.61,11.73L3.58,11.07M12,14.45L10.35,16.72C10.87,16.58 11.42,16.5 12,16.5C12.58,16.5 13.13,16.58 13.65,16.72L12,14.45M7.84,20.18C9.08,19.75 10.5,19.5 12,19.5C13.5,19.5 14.92,19.75 16.16,20.18L14.88,18.42C14.16,17.85 13.13,17.5 12,17.5C10.87,17.5 9.84,17.85 9.12,18.42L7.84,20.18Z" />
    </g>
    <g id="mdi-spider-web" transform="translate(252 0) scale(1.5)" fill="#fff">
      <path d="M13.62,13.28L15.26,15.54C15.29,15 15.38,14.47 15.56,13.93C15.74,13.37 16,12.86 16.3,12.41L13.62,13.28M17.77,19C17.75,17.68 17.95,16.27 18.41,14.85C18.88,13.42 19.56,12.14 20.36,11.09L18.32,11.75C17.54,12.26 16.87,13.14 16.5,14.23C16.17,15.29 16.18,16.36 16.5,17.22L17.77,19M19.25,21C18.75,21.46 18.21,21.86 17.63,22.2L17.31,21.76C15.9,21 14.04,20.5 12,20.5C9.96,20.5 8.1,21 6.69,21.76L6.37,22.2C5.79,21.86 5.25,21.46 4.75,21L5,20.69C5.33,19.08 5.22,17.12 4.58,15.14C3.94,13.19 2.9,11.56 1.71,10.46L1.27,10.32C1.42,9.66 1.63,9 1.89,8.41L2.29,8.54C3.92,8.37 5.74,7.65 7.43,6.43C9.09,5.22 10.32,3.73 11,2.26V1.79L12,1.75L13,1.79V2.21C13.67,3.71 14.91,5.23 16.6,6.45C18.26,7.66 20.06,8.37 21.67,8.56L22.11,8.41C22.37,9 22.58,9.66 22.73,10.32L22.23,10.5C21.04,11.58 20,13.21 19.37,15.16C18.74,17.09 18.62,19 18.92,20.57L19.25,21M11,11.37V8.5C10.66,8.92 10.26,9.32 9.78,9.67C9.29,10 8.77,10.29 8.25,10.5L11,11.37M11,4.22C10.25,5.31 9.24,6.35 8,7.24C6.78,8.14 5.46,8.78 4.18,9.16L6.15,9.8C7.11,9.88 8.22,9.56 9.19,8.86C10.13,8.18 10.76,7.27 11,6.36V4.22M13,11.37L15.74,10.5C15.23,10.3 14.72,10.03 14.25,9.69C13.76,9.33 13.34,8.92 13,8.5V11.37M19.8,9.16C18.53,8.78 17.23,8.15 16,7.26C14.77,6.36 13.76,5.31 13,4.2V6.27C13.22,7.21 13.86,8.17 14.84,8.88C15.77,9.56 16.83,9.87 17.77,9.82L19.8,9.16M10.38,13.28L7.64,12.39C7.95,12.84 8.2,13.35 8.38,13.91C8.57,14.5 8.66,15.06 8.68,15.62L10.38,13.28M3.58,11.07C4.38,12.12 5.06,13.4 5.53,14.83C6,16.29 6.2,17.74 6.17,19.08L7.38,17.41C7.76,16.5 7.8,15.36 7.43,14.22C7.07,13.12 6.4,12.24 5.61,11.73L3.58,11.07M12,14.45L10.35,16.72C10.87,16.58 11.42,16.5 12,16.5C12.58,16.5 13.13,16.58 13.65,16.72L12,14.45M7.84,20.18C9.08,19.75 10.5,19.5 12,19.5C13.5,19.5 14.92,19.75 16.16,20.18L14.88,18.42C14.16,17.85 13.13,17.5 12,17.5C10.87,17.5 9.84,17.85 9.12,18.42L7.84,20.18Z" />
    </g>
    <g id="mdi-spotify" transform="translate(288 0) scale(1.5)" fill="#555">
      <path d="M17.9,10.9C14.7,9 9.35,8.8 6.3,9.75C5.8,9.9 5.3,9.6 5.15,9.15C5,8.65 5.3,8.15 5.75,8C9.3,6.95 15.15,7.15 18.85,9.35C19.3,9.6 19.45,10.2 19.2,10.65C18.95,11 18.35,11.15 17.9,10.9M17.8,13.7C17.55,14.05 17.1,14.2 16.75,13.95C14.05,12.3 9.95,11.8 6.8,12.8C6.4,12.9 5.95,12.7 5.85,12.3C5.75,11.9 5.95,11.45 6.35,11.35C10,10.25 14.5,10.8 17.6,12.7C17.9,12.85 18.05,13.35 17.8,13.7M16.6,16.45C16.4,16.75 16.05,16.85 15.75,16.65C13.4,15.2 10.45,14.9 6.95,15.7C6.6,15.8 6.3,15.55 6.2,15.25C6.1,14.9 6.35,14.6 6.65,14.5C10.45,13.65 13.75,14 16.35,15.6C16.7,15.75 16.75,16.15 16.6,16.45M12,2A10,10 0 0,0 2,12A10,10 0 0,0 12,22A10,10 0 0,0 22,12A10,10 0 0,0 12,2Z" />
    </g>
    <g id="mdi-spotify" transform="translate(324 0) scale(1.5)" fill="#fff">
      <path d="M17.9,10.9C14.7,9 9.35,8.8 6.3,9.75C5.8,9.9 5.3,9.6 5.15,9.15C5,8.65 5.3,8.15 5.75,8C9.3,6.95 15.15,7.15 18.85,9.35C19.3,9.6 19.45,10.2 19.2,10.65C18.95,11 18.35,11.15 17.9,10.9M17.8,13.7C17.55,14.05 17.1,14.2 16.75,13.95C14.05,12.3 9.95,11.8 6.8,12.8C6.4,12.9 5.95,12.7 5.85,12.3C5.75,11.9 5.95,11.45 6.35,11.35C10,10.25 14.5,10.8 17.6,12.7C17.9,12.85 18.05,13.35 17.8,13.7M16.6,16.45C16.4,16.75 16.05,16.85 15.75,16.65C13.4,15.2 10.45,14.9 6.95,15.7C6.6,15.8 6.3,15.55 6.2,15.25C6.1,14.9 6.35,14.6 6.65,14.5C10.45,13.65 13.75,14 16.35,15.6C16.7,15.75 16.75,16.15 16.6,16.45M12,2A10,10 0 0,0 2,12A10,10 0 0,0 12,22A10,10 0 0,0 22,12A10,10 0 0,0 12,2Z" />
    </g>
    <g id="mdi-spotlight" transform="translate(360 0) scale(1.5)" fill="#555">
      <path d="M2,6L7.09,8.55C6.4,9.5 6,10.71 6,12C6,13.29 6.4,14.5 7.09,15.45L2,18V6M6,3H18L15.45,7.09C14.5,6.4 13.29,6 12,6C10.71,6 9.5,6.4 8.55,7.09L6,3M22,6V18L16.91,15.45C17.6,14.5 18,13.29 18,12C18,10.71 17.6,9.5 16.91,8.55L22,6M18,21H6L8.55,16.91C9.5,17.6 10.71,18 12,18C13.29,18 14.5,17.6 15.45,16.91L18,21M12,8A4,4 0 0,1 16,12A4,4 0 0,1 12,16A4,4 0 0,1 8,12A4,4 0 0,1 12,8M12,10A2,2 0 0,0 10,12A2,2 0 0,0 12,14A2,2 0 0,0 14,12A2,2 0 0,0 12,10Z" />
    </g>
    <g id="mdi-spotlight" transform="translate(396 0) scale(1.5)" fill="#fff">
      <path d="M2,6L7.09,8.55C6.4,9.5 6,10.71 6,12C6,13.29 6.4,14.5 7.09,15.45L2,18V6M6,3H18L15.45,7.09C14.5,6.4 13.29,6 12,6C10.71,6 9.5,6.4 8.55,7.09L6,3M22,6V18L16.91,15.45C17.6,14.5 18,13.29 18,12C18,10.71 17.6,9.5 16.91,8.55L22,6M18,21H6L8.55,16.91C9.5,17.6 10.71,18 12,18C13.29,18 14.5,17.6 15.45,16.91L18,21M12,8A4,4 0 0,1 16,12A4,4 0 0,1 12,16A4,4 0 0,1 8,12A4,4 0 0,1 12,8M12,10A2,2 0 0,0 10,12A2,2 0 0,0 12,14A2,2 0 0,0 14,12A2,2 0 0,0 12,10Z" />
    </g>
    <g id="mdi-spotlight-beam" transform="translate(432 0) scale(1.5)" fill="#555">
      <path d="M9,16.5L9.91,15.59L15.13,20.8L14.21,21.71L9,16.5M15.5,10L16.41,9.09L21.63,14.3L20.71,15.21L15.5,10M6.72,2.72L10.15,6.15L6.15,10.15L2.72,6.72C1.94,5.94 1.94,4.67 2.72,3.89L3.89,2.72C4.67,1.94 5.94,1.94 6.72,2.72M14.57,7.5L15.28,8.21L8.21,15.28L7.5,14.57L6.64,11.07L11.07,6.64L14.57,7.5Z" />
    </g>
    <g id="mdi-spotlight-beam" transform="translate(468 0) scale(1.5)" fill="#fff">
      <path d="M9,16.5L9.91,15.59L15.13,20.8L14.21,21.71L9,16.5M15.5,10L16.41,9.09L21.63,14.3L20.71,15.21L15.5,10M6.72,2.72L10.15,6.15L6.15,10.15L2.72,6.72C1.94,5.94 1.94,4.67 2.72,3.89L3.89,2.72C4.67,1.94 5.94,1.94 6.72,2.72M14.57,7.5L15.28,8.21L8.21,15.28L7.5,14.57L6.64,11.07L11.07,6.64L14.57,7.5Z" />
    </g>
    <g id="mdi-spray" transform="translate(504 0) scale(1.5)" fill="#555">
      <path d="M10,4H12V6H10V4M7,3H9V5H7V3M7,6H9V8H7V6M6,8V10H4V8H6M6,5V7H4V5H6M6,2V4H4V2H6M13,22A2,2 0 0,1 11,20V10A2,2 0 0,1 13,8V7H14V4H17V7H18V8A2,2 0 0,1 20,10V20A2,2 0 0,1 18,22H13M13,10V20H18V10H13Z" />
    </g>
    <g id="mdi-spray" transform="translate(540 0) scale(1.5)" fill="#fff">
      <path d="M10,4H12V6H10V4M7,3H9V5H7V3M7,6H9V8H7V6M6,8V10H4V8H6M6,5V7H4V5H6M6,2V4H4V2H6M13,22A2,2 0 0,1 11,20V10A2,2 0 0,1 13,8V7H14V4H17V7H18V8A2,2 0 0,1 20,10V20A2,2 0 0,1 18,22H13M13,10V20H18V10H13Z" />
    </g>
    <g id="mdi-spray-bottle" transform="translate(576 0) scale(1.5)" fill="#555">
      <path d="M12,7H15C15.66,7.64 16,8.31 16,9V22H8V15C8,14.72 8.11,14.39 8.3,14L12,7M16,4L15,6H12V5L10,7H9L10,5V4H9V2H14.5A1.5,1.5 0 0,1 16,3.5V4Z" />
    </g>
    <g id="mdi-spray-bottle" transform="translate(612 0) scale(1.5)" fill="#fff">
      <path d="M12,7H15C15.66,7.64 16,8.31 16,9V22H8V15C8,14.72 8.11,14.39 8.3,14L12,7M16,4L15,6H12V5L10,7H9L10,5V4H9V2H14.5A1.5,1.5 0 0,1 16,3.5V4Z" />
    </g>
    <g id="mdi-sprinkler" transform="translate(648 0) scale(1.5)" fill="#555">
      <path d="M11 7H13V9H11V7M5 22H9V10H5V22M14 11H16V9H14V11M17 10H19V8H17V10M17 5V7H19V5H17M14 8H16V6H14V8M17 13H19V11H17V13M5 7H5.33L6 9H8L8.67 7H9V6H5V7Z" />
    </g>
    <g id="mdi-sprinkler" transform="translate(684 0) scale(1.5)" fill="#fff">
      <path d="M11 7H13V9H11V7M5 22H9V10H5V22M14 11H16V9H14V11M17 10H19V8H17V10M17 5V7H19V5H17M14 8H16V6H14V8M17 13H19V11H17V13M5 7H5.33L6 9H8L8.67 7H9V6H5V7Z" />
    </g>
    <g id="mdi-sprinkler-variant" transform="translate(0 36) scale(1.5)" fill="#555">
      <path d="M10 10H14V22H10V10M7 9H9V7H7V9M4 8H6V6H4V8M4 11H6V9H4V11M1 13H3V11H1V13M1 7H3V5H1V7M1 10H3V8H1V10M18 11H20V9H18V11M21 10H23V8H21V10M21 5V7H23V5H21M21 13H23V11H21V13M15 9H17V7H15V9M18 8H20V6H18V8M10 7H10.33L11 9H13L13.67 7H14V6H10V7Z" />
    </g>
    <g id="mdi-sprinkler-variant" transform="translate(36 36) scale(1.5)" fill="#fff">
      <path d="M10 10H14V22H10V10M7 9H9V7H7V9M4 8H6V6H4V8M4 11H6V9H4V11M1 13H3V11H1V13M1 7H3V5H1V7M1 10H3V8H1V10M18 11H20V9H18V11M21 10H23V8H21V10M21 5V7H23V5H21M21 13H23V11H21V13M15 9H17V7H15V9M18 8H20V6H18V8M10 7H10.33L11 9H13L13.67 7H14V6H10V7Z" />
    </g>
    <g id="mdi-sprout" transform="translate(72 36) scale(1.5)" fill="#555">
      <path d="M2,22V20C2,20 7,18 12,18C17,18 22,20 22,20V22H2M11.3,9.1C10.1,5.2 4,6.1 4,6.1C4,6.1 4.2,13.9 9.9,12.7C9.5,9.8 8,9 8,9C10.8,9 11,12.4 11,12.4V17C11.3,17 11.7,17 12,17C12.3,17 12.7,17 13,17V12.8C13,12.8 13,8.9 16,7.9C16,7.9 14,10.9 14,12.9C21,13.6 21,4 21,4C21,4 12.1,3 11.3,9.1Z" />
    </g>
    <g id="mdi-sprout" transform="translate(108 36) scale(1.5)" fill="#fff">
      <path d="M2,22V20C2,20 7,18 12,18C17,18 22,20 22,20V22H2M11.3,9.1C10.1,5.2 4,6.1 4,6.1C4,6.1 4.2,13.9 9.9,12.7C9.5,9.8 8,9 8,9C10.8,9 11,12.4 11,12.4V17C11.3,17 11.7,17 12,17C12.3,17 12.7,17 13,17V12.8C13,12.8 13,8.9 16,7.9C16,7.9 14,10.9 14,12.9C21,13.6 21,4 21,4C21,4 12.1,3 11.3,9.1Z" />
    </g>
    <g id="mdi-sprout-outline" transform="translate(144 36) scale(1.5)" fill="#555">
      <path d="M23,4.1V2.3L21.2,2.1C21.1,2.1 20.5,2 19.5,2C15.4,2 12.4,3.2 10.7,5.3C9.4,4.5 7.6,4 5.5,4C4.5,4 3.8,4.1 3.8,4.1L1.9,4.4L2,6.1C2.1,9.1 3.6,14.8 8.8,14.8C8.9,14.8 8.9,14.8 9,14.8V18.2C5.2,18.7 2,20 2,20V22H22V20C22,20 18.8,18.7 15,18.2V15C21.3,14.9 23,7.8 23,4.1M12,18C11.7,18 11.3,18 11,18V12.4C11,12.4 10.8,9 8,9C8,9 9.5,9.8 9.9,12.7C9.5,12.8 9.1,12.8 8.8,12.8C4.2,12.8 4,6.1 4,6.1C4,6.1 4.6,6 5.5,6C7.4,6 10.5,6.4 11.4,9.1C11.9,4.6 17,4 19.5,4C20.4,4 21,4.1 21,4.1C21,4.1 21,13.1 14.7,13.1C14.5,13.1 14.2,13.1 14,13.1C14,11.1 16,8.1 16,8.1C13,9.1 13,13 13,13V18C12.7,18 12.3,18 12,18Z" />
    </g>
    <g id="mdi-sprout-outline" transform="translate(180 36) scale(1.5)" fill="#fff">
      <path d="M23,4.1V2.3L21.2,2.1C21.1,2.1 20.5,2 19.5,2C15.4,2 12.4,3.2 10.7,5.3C9.4,4.5 7.6,4 5.5,4C4.5,4 3.8,4.1 3.8,4.1L1.9,4.4L2,6.1C2.1,9.1 3.6,14.8 8.8,14.8C8.9,14.8 8.9,14.8 9,14.8V18.2C5.2,18.7 2,20 2,20V22H22V20C22,20 18.8,18.7 15,18.2V15C21.3,14.9 23,7.8 23,4.1M12,18C11.7,18 11.3,18 11,18V12.4C11,12.4 10.8,9 8,9C8,9 9.5,9.8 9.9,12.7C9.5,12.8 9.1,12.8 8.8,12.8C4.2,12.8 4,6.1 4,6.1C4,6.1 4.6,6 5.5,6C7.4,6 10.5,6.4 11.4,9.1C11.9,4.6 17,4 19.5,4C20.4,4 21,4.1 21,4.1C21,4.1 21,13.1 14.7,13.1C14.5,13.1 14.2,13.1 14,13.1C14,11.1 16,8.1 16,8.1C13,9.1 13,13 13,13V18C12.7,18 12.3,18 12,18Z" />
    </g>
    <g id="mdi-square" transform="translate(216 36) scale(1.5)" fill="#555">
      <path d="M3,3V21H21V3" />
    </g>
    <g id="mdi-square" transform="translate(252 36) scale(1.5)" fill="#fff">
      <path d="M3,3V21H21V3" />
    </g>
    <g id="mdi-square-edit-outline" transform="translate(288 36) scale(1.5)" fill="#555">
      <path d="M5,3C3.89,3 3,3.89 3,5V19A2,2 0 0,0 5,21H19A2,2 0 0,0 21,19V12H19V19H5V5H12V3H5M17.78,4C17.61,4 17.43,4.07 17.3,4.2L16.08,5.41L18.58,7.91L19.8,6.7C20.06,6.44 20.06,6 19.8,5.75L18.25,4.2C18.12,4.07 17.95,4 17.78,4M15.37,6.12L8,13.5V16H10.5L17.87,8.62L15.37,6.12Z" />
    </g>
    <g id="mdi-square-edit-outline" transform="translate(324 36) scale(1.5)" fill="#fff">
      <path d="M5,3C3.89,3 3,3.89 3,5V19A2,2 0 0,0 5,21H19A2,2 0 0,0 21,19V12H19V19H5V5H12V3H5M17.78,4C17.61,4 17.43,4.07 17.3,4.2L16.08,5.41L18.58,7.91L19.8,6.7C20.06,6.44 20.06,6 19.8,5.75L18.25,4.2C18.12,4.07 17.95,4 17.78,4M15.37,6.12L8,13.5V16H10.5L17.87,8.62L15.37,6.12Z" />
    </g>
    <g id="mdi-square-medium" transform="translate(360 36) scale(1.5)" fill="#555">
      <path d="M16,8H8V16H16V8Z" />
    </g>
    <g id="mdi-square-medium" transform="translate(396 36) scale(1.5)" fill="#fff">
      <path d="M16,8H8V16H16V8Z" />
    </g>
    <g id="mdi-square-medium-outline" transform="translate(432 36) scale(1.5)" fill="#555">
      <path d="M14,10V14H10V10H14M16,8H8V16H16V8Z" />
    </g>
    <g id="mdi-square-medium-outline" transform="translate(468 36) scale(1.5)" fill="#fff">
      <path d="M14,10V14H10V10H14M16,8H8V16H16V8Z" />
    </g>
    <g id="mdi-square-off" transform="translate(504 36) scale(1.5)" fill="#555">
      <path d="M20.84 22.73L19.11 21H3V4.89L1.11 3L2.39 1.73L22.11 21.46L20.84 22.73M21 3H6.2L21 17.8V3Z" />
    </g>
    <g id="mdi-square-off" transform="translate(540 36) scale(1.5)" fill="#fff">
      <path d="M20.84 22.73L19.11 21H3V4.89L1.11 3L2.39 1.73L22.11 21.46L20.84 22.73M21 3H6.2L21 17.8V3Z" />
    </g>
    <g id="mdi-square-off-outline" transform="translate(576 36) scale(1.5)" fill="#555">
      <path d="M22.11 21.46L2.39 1.73L1.11 3L3 4.89V21H19.11L20.84 22.73L22.11 21.46M5 19V6.89L17.11 19H5M8.2 5L6.2 3H21V17.8L19 15.8V5H8.2Z" />
    </g>
    <g id="mdi-square-off-outline" transform="translate(612 36) scale(1.5)" fill="#fff">
      <path d="M22.11 21.46L2.39 1.73L1.11 3L3 4.89V21H19.11L20.84 22.73L22.11 21.46M5 19V6.89L17.11 19H5M8.2 5L6.2 3H21V17.8L19 15.8V5H8.2Z" />
    </g>
    <g id="mdi-square-outline" transform="translate(648 36) scale(1.5)" fill="#555">
      <path d="M3,3H21V21H3V3M5,5V19H19V5H5Z" />
    </g>
    <g id="mdi-square-outline" transform="translate(684 36) scale(1.5)" fill="#fff">
      <path d="M3,3H21V21H3V3M5,5V19H19V5H5Z" />
    </g>
    <g id="mdi-square-root" transform="translate(0 72) scale(1.5)" fill="#555">
      <path d="M11.76,16.83L14.59,14L11.76,11.17L13.17,9.76L16,12.59L18.83,9.76L20.24,11.17L17.41,14L20.24,16.83L18.83,18.24L16,15.41L13.17,18.24L11.76,16.83M2,11H5V11H5L7.29,16.4L10,6H22V8H11.55L8.68,19H6.22L3.68,13H2V11Z" />
    </g>
    <g id="mdi-square-root" transform="translate(36 72) scale(1.5)" fill="#fff">
      <path d="M11.76,16.83L14.59,14L11.76,11.17L13.17,9.76L16,12.59L18.83,9.76L20.24,11.17L17.41,14L20.24,16.83L18.83,18.24L16,15.41L13.17,18.24L11.76,16.83M2,11H5V11H5L7.29,16.4L10,6H22V8H11.55L8.68,19H6.22L3.68,13H2V11Z" />
    </g>
    <g id="mdi-square-root-box" transform="translate(72 72) scale(1.5)" fill="#555">
      <path d="M5,3C3.89,3 3,3.89 3,5V19A2,2 0 0,0 5,21H19A2,2 0 0,0 21,19V5A2,2 0 0,0 19,3H5M11.24,6H19V8H12.76L10,18H8L6.25,12H5V10H7.75L9,14.28L11.24,6V6M14,10.59L15.79,12.38L17.59,10.59L19,12L17.21,13.79L19,15.59L17.59,17L15.79,15.21L14,17L12.59,15.59L14.38,13.79L12.59,12L14,10.59Z" />
    </g>
    <g id="mdi-square-root-box" transform="translate(108 72) scale(1.5)" fill="#fff">
      <path d="M5,3C3.89,3 3,3.89 3,5V19A2,2 0 0,0 5,21H19A2,2 0 0,0 21,19V5A2,2 0 0,0 19,3H5M11.24,6H19V8H12.76L10,18H8L6.25,12H5V10H7.75L9,14.28L11.24,6V6M14,10.59L15.79,12.38L17.59,10.59L19,12L17.21,13.79L19,15.59L17.59,17L15.79,15.21L14,17L12.59,15.59L14.38,13.79L12.59,12L14,10.59Z" />
    </g>
    <g id="mdi-square-small" transform="translate(144 72) scale(1.5)" fill="#555">
      <path d="M10,14V10H14V14H10Z" />
    </g>
    <g id="mdi-square-small" transform="translate(180 72) scale(1.5)" fill="#fff">
      <path d="M10,14V10H14V14H10Z" />
    </g>
    <g id="mdi-squeegee" transform="translate(216 72) scale(1.5)" fill="#555">
      <path d="M22,2V5H2V2H22M2,8H7L9,10H10V20A2,2 0 0,0 12,22A2,2 0 0,0 14,20V10H15L17,8H22V6H2V8Z" />
    </g>
    <g id="mdi-squeegee" transform="translate(252 72) scale(1.5)" fill="#fff">
      <path d="M22,2V5H2V2H22M2,8H7L9,10H10V20A2,2 0 0,0 12,22A2,2 0 0,0 14,20V10H15L17,8H22V6H2V8Z" />
    </g>
    <g id="mdi-ssh" transform="translate(288 72) scale(1.5)" fill="#555">
      <path d="M4.5,9C3.9,9 3.5,9.5 3.5,10V11.75C3.5,12.25 3.9,12.75 4.5,12.75H7V13.5H3.5V15H7.5C8.1,15 8.5,14.5 8.5,14V12.25C8.5,11.75 8.1,11.25 7.5,11.25H5V10.5H8.5V9H4.5M10.5,9C9.9,9 9.5,9.5 9.5,10V11.75C9.5,12.25 9.9,12.75 10.5,12.75H13V13.5H9.5V15H13.5C14.1,15 14.5,14.5 14.5,14V12.25C14.5,11.75 14.1,11.25 13.5,11.25H11V10.5H14.5V9H10.5M15.5,9V15H17V12.5H19V15H20.5V9H19V11H17V9H15.5Z" />
    </g>
    <g id="mdi-ssh" transform="translate(324 72) scale(1.5)" fill="#fff">
      <path d="M4.5,9C3.9,9 3.5,9.5 3.5,10V11.75C3.5,12.25 3.9,12.75 4.5,12.75H7V13.5H3.5V15H7.5C8.1,15 8.5,14.5 8.5,14V12.25C8.5,11.75 8.1,11.25 7.5,11.25H5V10.5H8.5V9H4.5M10.5,9C9.9,9 9.5,9.5 9.5,10V11.75C9.5,12.25 9.9,12.75 10.5,12.75H13V13.5H9.5V15H13.5C14.1,15 14.5,14.5 14.5,14V12.25C14.5,11.75 14.1,11.25 13.5,11.25H11V10.5H14.5V9H10.5M15.5,9V15H17V12.5H19V15H20.5V9H19V11H17V9H15.5Z" />
    </g>
    <g id="mdi-stack-exchange" transform="translate(360 72) scale(1.5)" fill="#555">
      <path d="M3.9 10.72H20V14.03H3.9V10.72M3.9 6.44H20V9.75H3.9V6.44M17.5 2H6.5C5.06 2 3.9 3.18 3.9 4.65V5.5H20V4.65C20 3.18 18.88 2 17.5 2M3.9 15V15.84C3.9 17.31 5.06 18.5 6.5 18.5H13.37V22L16.77 18.5H17.5C18.94 18.5 20.11 17.31 20.11 15.84V15H3.9Z" />
    </g>
    <g id="mdi-stack-exchange" transform="translate(396 72) scale(1.5)" fill="#fff">
      <path d="M3.9 10.72H20V14.03H3.9V10.72M3.9 6.44H20V9.75H3.9V6.44M17.5 2H6.5C5.06 2 3.9 3.18 3.9 4.65V5.5H20V4.65C20 3.18 18.88 2 17.5 2M3.9 15V15.84C3.9 17.31 5.06 18.5 6.5 18.5H13.37V22L16.77 18.5H17.5C18.94 18.5 20.11 17.31 20.11 15.84V15H3.9Z" />
    </g>
    <g id="mdi-stack-overflow" transform="translate(432 72) scale(1.5)" fill="#555">
      <path d="M17.36,20.2V14.82H19.15V22H3V14.82H4.8V20.2H17.36M6.77,14.32L7.14,12.56L15.93,14.41L15.56,16.17L6.77,14.32M7.93,10.11L8.69,8.5L16.83,12.28L16.07,13.9L7.93,10.11M10.19,6.12L11.34,4.74L18.24,10.5L17.09,11.87L10.19,6.12M14.64,1.87L20,9.08L18.56,10.15L13.2,2.94L14.64,1.87M6.59,18.41V16.61H15.57V18.41H6.59Z" />
    </g>
    <g id="mdi-stack-overflow" transform="translate(468 72) scale(1.5)" fill="#fff">
      <path d="M17.36,20.2V14.82H19.15V22H3V14.82H4.8V20.2H17.36M6.77,14.32L7.14,12.56L15.93,14.41L15.56,16.17L6.77,14.32M7.93,10.11L8.69,8.5L16.83,12.28L16.07,13.9L7.93,10.11M10.19,6.12L11.34,4.74L18.24,10.5L17.09,11.87L10.19,6.12M14.64,1.87L20,9.08L18.56,10.15L13.2,2.94L14.64,1.87M6.59,18.41V16.61H15.57V18.41H6.59Z" />
    </g>
    <g id="mdi-stackpath" transform="translate(504 72) scale(1.5)" fill="#555">
      <path d="M4.91 8C4.04 8 3.32 8.2 2.76 8.61C2.19 9 1.91 9.53 1.91 10.19C1.91 10.85 2.15 11.37 2.62 11.72C3.1 12.07 3.82 12.41 4.8 12.72C5.27 12.88 5.6 13.04 5.78 13.19C5.96 13.34 6.05 13.55 6.05 13.83C6.05 14.07 5.96 14.26 5.78 14.41C5.6 14.56 5.32 14.63 4.94 14.63C4.45 14.63 4.09 14.54 3.85 14.35C3.6 14.16 3.5 13.84 3.5 13.39H1.72L1.71 13.42C1.7 14.25 2 14.89 2.66 15.33C3.3 15.78 4.06 16 4.94 16C5.82 16 6.5 15.8 7.06 15.42C7.59 15.03 7.86 14.5 7.86 13.81C7.86 13.14 7.63 12.61 7.19 12.23C6.74 11.84 6.08 11.5 5.2 11.26C4.62 11.05 4.23 10.88 4 10.74C3.81 10.6 3.71 10.42 3.71 10.2C3.71 9.96 3.81 9.76 4 9.6C4.22 9.44 4.5 9.36 4.87 9.36C5.24 9.36 5.53 9.46 5.74 9.65C5.96 9.84 6.07 10.12 6.06 10.41H7.8L7.82 10.37C7.84 9.68 7.57 9.11 7 8.66C6.47 8.22 5.77 8 4.91 8M9 8.05V15.93H10.84V13.23H11.96C12.89 13.23 13.63 13 14.18 12.5C14.73 12.05 15 11.42 15 10.64C15 9.87 14.73 9.25 14.18 8.77C13.63 8.29 12.89 8.05 11.96 8.05H9M17.24 8.05L14.5 15.93H16.22L19 8.05M20.5 8.05L17.79 15.93H19.5L22.29 8.05M10.84 9.46H11.96C12.35 9.46 12.66 9.57 12.86 9.8C13.07 10 13.17 10.31 13.17 10.65C13.17 11 13.07 11.28 12.86 11.5C12.66 11.71 12.35 11.82 11.96 11.82H10.84" />
    </g>
    <g id="mdi-stackpath" transform="translate(540 72) scale(1.5)" fill="#fff">
      <path d="M4.91 8C4.04 8 3.32 8.2 2.76 8.61C2.19 9 1.91 9.53 1.91 10.19C1.91 10.85 2.15 11.37 2.62 11.72C3.1 12.07 3.82 12.41 4.8 12.72C5.27 12.88 5.6 13.04 5.78 13.19C5.96 13.34 6.05 13.55 6.05 13.83C6.05 14.07 5.96 14.26 5.78 14.41C5.6 14.56 5.32 14.63 4.94 14.63C4.45 14.63 4.09 14.54 3.85 14.35C3.6 14.16 3.5 13.84 3.5 13.39H1.72L1.71 13.42C1.7 14.25 2 14.89 2.66 15.33C3.3 15.78 4.06 16 4.94 16C5.82 16 6.5 15.8 7.06 15.42C7.59 15.03 7.86 14.5 7.86 13.81C7.86 13.14 7.63 12.61 7.19 12.23C6.74 11.84 6.08 11.5 5.2 11.26C4.62 11.05 4.23 10.88 4 10.74C3.81 10.6 3.71 10.42 3.71 10.2C3.71 9.96 3.81 9.76 4 9.6C4.22 9.44 4.5 9.36 4.87 9.36C5.24 9.36 5.53 9.46 5.74 9.65C5.96 9.84 6.07 10.12 6.06 10.41H7.8L7.82 10.37C7.84 9.68 7.57 9.11 7 8.66C6.47 8.22 5.77 8 4.91 8M9 8.05V15.93H10.84V13.23H11.96C12.89 13.23 13.63 13 14.18 12.5C14.73 12.05 15 11.42 15 10.64C15 9.87 14.73 9.25 14.18 8.77C13.63 8.29 12.89 8.05 11.96 8.05H9M17.24 8.05L14.5 15.93H16.22L19 8.05M20.5 8.05L17.79 15.93H19.5L22.29 8.05M10.84 9.46H11.96C12.35 9.46 12.66 9.57 12.86 9.8C13.07 10 13.17 10.31 13.17 10.65C13.17 11 13.07 11.28 12.86 11.5C12.66 11.71 12.35 11.82 11.96 11.82H10.84" />
    </g>
    <g id="mdi-stadium" transform="translate(576 72) scale(1.5)" fill="#555">
      <path d="M22 13.5V17.5C22 19.2 17.5 20.5 12 20.5C10.6 20.5 9.2 20.4 8 20.2V17.5L4 16.5V19.3C2.7 18.8 2 18.2 2 17.5V11.5C2 10.5 4 9.5 6 9.5C12 9.5 14 15 19 15C21 15 22 13.5 22 13.5M5 8L9 9V6L5 5V8M18 6.5L22 7.5V4.5L18 3.5V6.5M22.3 10.8C22.3 9.8 21.5 8 18.7 8S13.4 10.7 13.3 10.9C15.1 12.2 16.5 13.5 19 13.5C22.3 13.5 22.3 10.8 22.3 10.8Z" />
    </g>
    <g id="mdi-stadium" transform="translate(612 72) scale(1.5)" fill="#fff">
      <path d="M22 13.5V17.5C22 19.2 17.5 20.5 12 20.5C10.6 20.5 9.2 20.4 8 20.2V17.5L4 16.5V19.3C2.7 18.8 2 18.2 2 17.5V11.5C2 10.5 4 9.5 6 9.5C12 9.5 14 15 19 15C21 15 22 13.5 22 13.5M5 8L9 9V6L5 5V8M18 6.5L22 7.5V4.5L18 3.5V6.5M22.3 10.8C22.3 9.8 21.5 8 18.7 8S13.4 10.7 13.3 10.9C15.1 12.2 16.5 13.5 19 13.5C22.3 13.5 22.3 10.8 22.3 10.8Z" />
    </g>
    <g id="mdi-stadium-variant" transform="translate(648 72) scale(1.5)" fill="#555">
      <path d="M5,3H7L10,5L7,7V8.33C8.47,8.12 10.18,8 12,8C13.82,8 15.53,8.12 17,8.33V3H19L22,5L19,7V8.71C20.85,9.17 22,9.8 22,10.5C22,11.88 17.5,13 12,13C6.5,13 2,11.88 2,10.5C2,9.8 3.15,9.17 5,8.71V3M12,9.5C8.69,9.5 7,9.67 7,10.5C7,11.33 8.69,11.5 12,11.5C15.31,11.5 17,11.33 17,10.5C17,9.67 15.31,9.5 12,9.5M12,14.75C15.81,14.75 19.2,14.08 21.4,13.05L20,21H15V19A2,2 0 0,0 13,17H11A2,2 0 0,0 9,19V21H4L2.6,13.05C4.8,14.08 8.19,14.75 12,14.75Z" />
    </g>
    <g id="mdi-stadium-variant" transform="translate(684 72) scale(1.5)" fill="#fff">
      <path d="M5,3H7L10,5L7,7V8.33C8.47,8.12 10.18,8 12,8C13.82,8 15.53,8.12 17,8.33V3H19L22,5L19,7V8.71C20.85,9.17 22,9.8 22,10.5C22,11.88 17.5,13 12,13C6.5,13 2,11.88 2,10.5C2,9.8 3.15,9.17 5,8.71V3M12,9.5C8.69,9.5 7,9.67 7,10.5C7,11.33 8.69,11.5 12,11.5C15.31,11.5 17,11.33 17,10.5C17,9.67 15.31,9.5 12,9.5M12,14.75C15.81,14.75 19.2,14.08 21.4,13.05L20,21H15V19A2,2 0 0,0 13,17H11A2,2 0 0,0 9,19V21H4L2.6,13.05C4.8,14.08 8.19,14.75 12,14.75Z" />
    </g>
    <g id="mdi-stairs" transform="translate(0 108) scale(1.5)" fill="#555">
      <path d="M15,5V9H11V13H7V17H3V20H10V16H14V12H18V8H22V5H15Z" />
    </g>
    <g id="mdi-stairs" transform="translate(36 108) scale(1.5)" fill="#fff">
      <path d="M15,5V9H11V13H7V17H3V20H10V16H14V12H18V8H22V5H15Z" />
    </g>
    <g id="mdi-stairs-box" transform="translate(72 108) scale(1.5)" fill="#555">
      <path d="M5 3C3.89 3 3 3.89 3 5V19C3 20.11 3.89 21 5 21H19C20.11 21 21 20.11 21 19V5C21 3.89 20.11 3 19 3H5M14 7H19V9H16V12H13V15H10V18H5V16H8V13H11V10H14V7Z" />
    </g>
    <g id="mdi-stairs-box" transform="translate(108 108) scale(1.5)" fill="#fff">
      <path d="M5 3C3.89 3 3 3.89 3 5V19C3 20.11 3.89 21 5 21H19C20.11 21 21 20.11 21 19V5C21 3.89 20.11 3 19 3H5M14 7H19V9H16V12H13V15H10V18H5V16H8V13H11V10H14V7Z" />
    </g>
    <g id="mdi-stairs-down" transform="translate(144 108) scale(1.5)" fill="#555">
      <path d="M15 6H22V9H18V13H14V17H10V21H3V18H7V14H11V10H15V6M4.83 8.34L10.34 2.83L12.17 4.66L6.66 10.17L8.5 12H3V6.5L4.83 8.34Z" />
    </g>
    <g id="mdi-stairs-down" transform="translate(180 108) scale(1.5)" fill="#fff">
      <path d="M15 6H22V9H18V13H14V17H10V21H3V18H7V14H11V10H15V6M4.83 8.34L10.34 2.83L12.17 4.66L6.66 10.17L8.5 12H3V6.5L4.83 8.34Z" />
    </g>
    <g id="mdi-stairs-up" transform="translate(216 108) scale(1.5)" fill="#555">
      <path d="M15 6H22V9H18V13H14V17H10V21H3V18H7V14H11V10H15V6M10.17 6.66L4.66 12.17L2.83 10.34L8.34 4.83L6.5 3H12V8.5L10.17 6.66Z" />
    </g>
    <g id="mdi-stairs-up" transform="translate(252 108) scale(1.5)" fill="#fff">
      <path d="M15 6H22V9H18V13H14V17H10V21H3V18H7V14H11V10H15V6M10.17 6.66L4.66 12.17L2.83 10.34L8.34 4.83L6.5 3H12V8.5L10.17 6.66Z" />
    </g>
    <g id="mdi-stamper" transform="translate(288 108) scale(1.5)" fill="#555">
      <path d="M12,3A3,3 0 0,0 9,6C9,9 14,13 6,13A2,2 0 0,0 4,15V17H20V15A2,2 0 0,0 18,13C10,13 15,9 15,6C15,4 13.66,3 12,3M6,19V21H18V19H6Z" />
    </g>
    <g id="mdi-stamper" transform="translate(324 108) scale(1.5)" fill="#fff">
      <path d="M12,3A3,3 0 0,0 9,6C9,9 14,13 6,13A2,2 0 0,0 4,15V17H20V15A2,2 0 0,0 18,13C10,13 15,9 15,6C15,4 13.66,3 12,3M6,19V21H18V19H6Z" />
    </g>
    <g id="mdi-standard-definition" transform="translate(360 108) scale(1.5)" fill="#555">
      <path d="M13,7H16A3,3 0 0,1 19,10V14A3,3 0 0,1 16,17H13V7M16,15A1,1 0 0,0 17,14V10A1,1 0 0,0 16,9H15V15H16M7,7H11V9H7V11H9A2,2 0 0,1 11,13V15A2,2 0 0,1 9,17H5V15H9V13H7A2,2 0 0,1 5,11V9A2,2 0 0,1 7,7Z" />
    </g>
    <g id="mdi-standard-definition" transform="translate(396 108) scale(1.5)" fill="#fff">
      <path d="M13,7H16A3,3 0 0,1 19,10V14A3,3 0 0,1 16,17H13V7M16,15A1,1 0 0,0 17,14V10A1,1 0 0,0 16,9H15V15H16M7,7H11V9H7V11H9A2,2 0 0,1 11,13V15A2,2 0 0,1 9,17H5V15H9V13H7A2,2 0 0,1 5,11V9A2,2 0 0,1 7,7Z" />
    </g>
    <g id="mdi-star" transform="translate(432 108) scale(1.5)" fill="#555">
      <path d="M12,17.27L18.18,21L16.54,13.97L22,9.24L14.81,8.62L12,2L9.19,8.62L2,9.24L7.45,13.97L5.82,21L12,17.27Z" />
    </g>
    <g id="mdi-star" transform="translate(468 108) scale(1.5)" fill="#fff">
      <path d="M12,17.27L18.18,21L16.54,13.97L22,9.24L14.81,8.62L12,2L9.19,8.62L2,9.24L7.45,13.97L5.82,21L12,17.27Z" />
    </g>
    <g id="mdi-star-box" transform="translate(504 108) scale(1.5)" fill="#555">
      <path d="M19,3A2,2 0 0,1 21,5V19C21,20.11 20.1,21 19,21H5A2,2 0 0,1 3,19V5A2,2 0 0,1 5,3H19M15.58,17L14.63,12.92L17.79,10.19L13.62,9.83L12,6L10.38,9.84L6.21,10.2L9.37,12.93L8.42,17L12,14.84L15.58,17Z" />
    </g>
    <g id="mdi-star-box" transform="translate(540 108) scale(1.5)" fill="#fff">
      <path d="M19,3A2,2 0 0,1 21,5V19C21,20.11 20.1,21 19,21H5A2,2 0 0,1 3,19V5A2,2 0 0,1 5,3H19M15.58,17L14.63,12.92L17.79,10.19L13.62,9.83L12,6L10.38,9.84L6.21,10.2L9.37,12.93L8.42,17L12,14.84L15.58,17Z" />
    </g>
    <g id="mdi-star-box-multiple" transform="translate(576 108) scale(1.5)" fill="#555">
      <path d="M4 6V20H18V22H3C2.4 22 2 21.6 2 21V6H4M8 2H20C21.11 2 22 2.9 22 4V16C22 17.11 21.11 18 20 18H8C6.9 18 6 17.11 6 16V4C6 2.9 6.9 2 8 2M16.3 13.3L15.9 10.7L17.8 8.8L15.2 8.4L14 6L12.8 8.4L10.2 8.8L12.1 10.6L11.6 13.2L14 12L16.3 13.3Z" />
    </g>
    <g id="mdi-star-box-multiple" transform="translate(612 108) scale(1.5)" fill="#fff">
      <path d="M4 6V20H18V22H3C2.4 22 2 21.6 2 21V6H4M8 2H20C21.11 2 22 2.9 22 4V16C22 17.11 21.11 18 20 18H8C6.9 18 6 17.11 6 16V4C6 2.9 6.9 2 8 2M16.3 13.3L15.9 10.7L17.8 8.8L15.2 8.4L14 6L12.8 8.4L10.2 8.8L12.1 10.6L11.6 13.2L14 12L16.3 13.3Z" />
    </g>
    <g id="mdi-star-box-multiple-outline" transform="translate(648 108) scale(1.5)" fill="#555">
      <path d="M4 6V20H18V22H3C2.4 22 2 21.6 2 21V6H4M12.1 10.6L10.2 8.8L12.8 8.4L14 6L15.2 8.4L17.8 8.8L15.9 10.7L16.3 13.3L14 12L11.6 13.2L12.1 10.6M8 2H20C21.11 2 22 2.9 22 4V16C22 17.11 21.11 18 20 18H8C6.9 18 6 17.11 6 16V4C6 2.9 6.9 2 8 2M8 4V16H20V4H8Z" />
    </g>
    <g id="mdi-star-box-multiple-outline" transform="translate(684 108) scale(1.5)" fill="#fff">
      <path d="M4 6V20H18V22H3C2.4 22 2 21.6 2 21V6H4M12.1 10.6L10.2 8.8L12.8 8.4L14 6L15.2 8.4L17.8 8.8L15.9 10.7L16.3 13.3L14 12L11.6 13.2L12.1 10.6M8 2H20C21.11 2 22 2.9 22 4V16C22 17.11 21.11 18 20 18H8C6.9 18 6 17.11 6 16V4C6 2.9 6.9 2 8 2M8 4V16H20V4H8Z" />
    </g>
    <g id="mdi-star-box-outline" transform="translate(0 144) scale(1.5)" fill="#555">
      <path d="M15.58,17L12,14.84L8.42,17L9.37,12.93L6.21,10.2L10.38,9.84L12,6L13.62,9.83L17.79,10.19L14.63,12.92L15.58,17M19,3A2,2 0 0,1 21,5V19C21,20.11 20.1,21 19,21H5A2,2 0 0,1 3,19V5A2,2 0 0,1 5,3H19M5,5V19H19V5H5Z" />
    </g>
    <g id="mdi-star-box-outline" transform="translate(36 144) scale(1.5)" fill="#fff">
      <path d="M15.58,17L12,14.84L8.42,17L9.37,12.93L6.21,10.2L10.38,9.84L12,6L13.62,9.83L17.79,10.19L14.63,12.92L15.58,17M19,3A2,2 0 0,1 21,5V19C21,20.11 20.1,21 19,21H5A2,2 0 0,1 3,19V5A2,2 0 0,1 5,3H19M5,5V19H19V5H5Z" />
    </g>
    <g id="mdi-star-circle" transform="translate(72 144) scale(1.5)" fill="#555">
      <path d="M16.23,18L12,15.45L7.77,18L8.89,13.19L5.16,9.96L10.08,9.54L12,5L13.92,9.53L18.84,9.95L15.11,13.18L16.23,18M12,2C6.47,2 2,6.5 2,12A10,10 0 0,0 12,22A10,10 0 0,0 22,12A10,10 0 0,0 12,2Z" />
    </g>
    <g id="mdi-star-circle" transform="translate(108 144) scale(1.5)" fill="#fff">
      <path d="M16.23,18L12,15.45L7.77,18L8.89,13.19L5.16,9.96L10.08,9.54L12,5L13.92,9.53L18.84,9.95L15.11,13.18L16.23,18M12,2C6.47,2 2,6.5 2,12A10,10 0 0,0 12,22A10,10 0 0,0 22,12A10,10 0 0,0 12,2Z" />
    </g>
    <g id="mdi-star-circle-outline" transform="translate(144 144) scale(1.5)" fill="#555">
      <path d="M8.58,17.25L9.5,13.36L6.5,10.78L10.45,10.41L12,6.8L13.55,10.45L17.5,10.78L14.5,13.36L15.42,17.25L12,15.19L8.58,17.25M12,2A10,10 0 0,1 22,12A10,10 0 0,1 12,22A10,10 0 0,1 2,12A10,10 0 0,1 12,2M12,4A8,8 0 0,0 4,12A8,8 0 0,0 12,20A8,8 0 0,0 20,12A8,8 0 0,0 12,4Z" />
    </g>
    <g id="mdi-star-circle-outline" transform="translate(180 144) scale(1.5)" fill="#fff">
      <path d="M8.58,17.25L9.5,13.36L6.5,10.78L10.45,10.41L12,6.8L13.55,10.45L17.5,10.78L14.5,13.36L15.42,17.25L12,15.19L8.58,17.25M12,2A10,10 0 0,1 22,12A10,10 0 0,1 12,22A10,10 0 0,1 2,12A10,10 0 0,1 12,2M12,4A8,8 0 0,0 4,12A8,8 0 0,0 12,20A8,8 0 0,0 20,12A8,8 0 0,0 12,4Z" />
    </g>
    <g id="mdi-star-face" transform="translate(216 144) scale(1.5)" fill="#555">
      <path d="M12,2.5L8.42,8.06L2,9.74L6.2,14.88L5.82,21.5L12,19.09L18.18,21.5L17.8,14.88L22,9.74L15.58,8.06L12,2.5M9.38,10.5C10,10.5 10.5,11 10.5,11.63A1.12,1.12 0 0,1 9.38,12.75C8.75,12.75 8.25,12.25 8.25,11.63C8.25,11 8.75,10.5 9.38,10.5M14.63,10.5C15.25,10.5 15.75,11 15.75,11.63A1.12,1.12 0 0,1 14.63,12.75C14,12.75 13.5,12.25 13.5,11.63C13.5,11 14,10.5 14.63,10.5M9,15H15C14.5,16.21 13.31,17 12,17C10.69,17 9.5,16.21 9,15Z" />
    </g>
    <g id="mdi-star-face" transform="translate(252 144) scale(1.5)" fill="#fff">
      <path d="M12,2.5L8.42,8.06L2,9.74L6.2,14.88L5.82,21.5L12,19.09L18.18,21.5L17.8,14.88L22,9.74L15.58,8.06L12,2.5M9.38,10.5C10,10.5 10.5,11 10.5,11.63A1.12,1.12 0 0,1 9.38,12.75C8.75,12.75 8.25,12.25 8.25,11.63C8.25,11 8.75,10.5 9.38,10.5M14.63,10.5C15.25,10.5 15.75,11 15.75,11.63A1.12,1.12 0 0,1 14.63,12.75C14,12.75 13.5,12.25 13.5,11.63C13.5,11 14,10.5 14.63,10.5M9,15H15C14.5,16.21 13.31,17 12,17C10.69,17 9.5,16.21 9,15Z" />
    </g>
    <g id="mdi-star-four-points" transform="translate(288 144) scale(1.5)" fill="#555">
      <path d="M12,1L9,9L1,12L9,15L12,23L15,15L23,12L15,9L12,1Z" />
    </g>
    <g id="mdi-star-four-points" transform="translate(324 144) scale(1.5)" fill="#fff">
      <path d="M12,1L9,9L1,12L9,15L12,23L15,15L23,12L15,9L12,1Z" />
    </g>
    <g id="mdi-star-four-points-outline" transform="translate(360 144) scale(1.5)" fill="#555">
      <path d="M12,6.7L13.45,10.55L17.3,12L13.45,13.45L12,17.3L10.55,13.45L6.7,12L10.55,10.55L12,6.7M12,1L9,9L1,12L9,15L12,23L15,15L23,12L15,9L12,1Z" />
    </g>
    <g id="mdi-star-four-points-outline" transform="translate(396 144) scale(1.5)" fill="#fff">
      <path d="M12,6.7L13.45,10.55L17.3,12L13.45,13.45L12,17.3L10.55,13.45L6.7,12L10.55,10.55L12,6.7M12,1L9,9L1,12L9,15L12,23L15,15L23,12L15,9L12,1Z" />
    </g>
    <g id="mdi-star-half" transform="translate(432 144) scale(1.5)" fill="#555">
      <path d="M12 2L9.19 8.62L2 9.24L7.45 13.97L5.82 21L12 17.27V2Z" />
    </g>
    <g id="mdi-star-half" transform="translate(468 144) scale(1.5)" fill="#fff">
      <path d="M12 2L9.19 8.62L2 9.24L7.45 13.97L5.82 21L12 17.27V2Z" />
    </g>
    <g id="mdi-star-half-full" transform="translate(504 144) scale(1.5)" fill="#555">
      <path d="M12,15.4V6.1L13.71,10.13L18.09,10.5L14.77,13.39L15.76,17.67M22,9.24L14.81,8.63L12,2L9.19,8.63L2,9.24L7.45,13.97L5.82,21L12,17.27L18.18,21L16.54,13.97L22,9.24Z" />
    </g>
    <g id="mdi-star-half-full" transform="translate(540 144) scale(1.5)" fill="#fff">
      <path d="M12,15.4V6.1L13.71,10.13L18.09,10.5L14.77,13.39L15.76,17.67M22,9.24L14.81,8.63L12,2L9.19,8.63L2,9.24L7.45,13.97L5.82,21L12,17.27L18.18,21L16.54,13.97L22,9.24Z" />
    </g>
    <g id="mdi-star-off" transform="translate(576 144) scale(1.5)" fill="#555">
      <path d="M2,5.27L3.28,4L20,20.72L18.73,22L17.05,20.31L12,17.27L5.82,21L7.45,13.97L2,9.24L5.66,8.93L2,5.27M12,2L14.81,8.62L22,9.24L16.54,13.97L16.77,14.95L9.56,7.74L12,2Z" />
    </g>
    <g id="mdi-star-off" transform="translate(612 144) scale(1.5)" fill="#fff">
      <path d="M2,5.27L3.28,4L20,20.72L18.73,22L17.05,20.31L12,17.27L5.82,21L7.45,13.97L2,9.24L5.66,8.93L2,5.27M12,2L14.81,8.62L22,9.24L16.54,13.97L16.77,14.95L9.56,7.74L12,2Z" />
    </g>
    <g id="mdi-star-outline" transform="translate(648 144) scale(1.5)" fill="#555">
      <path d="M12,15.39L8.24,17.66L9.23,13.38L5.91,10.5L10.29,10.13L12,6.09L13.71,10.13L18.09,10.5L14.77,13.38L15.76,17.66M22,9.24L14.81,8.63L12,2L9.19,8.63L2,9.24L7.45,13.97L5.82,21L12,17.27L18.18,21L16.54,13.97L22,9.24Z" />
    </g>
    <g id="mdi-star-outline" transform="translate(684 144) scale(1.5)" fill="#fff">
      <path d="M12,15.39L8.24,17.66L9.23,13.38L5.91,10.5L10.29,10.13L12,6.09L13.71,10.13L18.09,10.5L14.77,13.38L15.76,17.66M22,9.24L14.81,8.63L12,2L9.19,8.63L2,9.24L7.45,13.97L5.82,21L12,17.27L18.18,21L16.54,13.97L22,9.24Z" />
    </g>
    <g id="mdi-star-three-points" transform="translate(0 180) scale(1.5)" fill="#555">
      <path d="M12,2.6L9,12.4L2,19.9L12,17.6L22,20L15,12.5L12,2.6Z" />
    </g>
    <g id="mdi-star-three-points" transform="translate(36 180) scale(1.5)" fill="#fff">
      <path d="M12,2.6L9,12.4L2,19.9L12,17.6L22,20L15,12.5L12,2.6Z" />
    </g>
    <g id="mdi-star-three-points-outline" transform="translate(72 180) scale(1.5)" fill="#555">
      <path d="M12,9.5L13.2,13.5L16,16.5L12,15.6L7.9,16.5L10.7,13.5L12,9.5M12,2.6L9,12.4L2,19.9L12,17.6L22,20L15,12.5L12,2.6Z" />
    </g>
    <g id="mdi-star-three-points-outline" transform="translate(108 180) scale(1.5)" fill="#fff">
      <path d="M12,9.5L13.2,13.5L16,16.5L12,15.6L7.9,16.5L10.7,13.5L12,9.5M12,2.6L9,12.4L2,19.9L12,17.6L22,20L15,12.5L12,2.6Z" />
    </g>
    <g id="mdi-state-machine" transform="translate(144 180) scale(1.5)" fill="#555">
      <path d="M6.27 17.05C6.72 17.58 7 18.25 7 19C7 20.66 5.66 22 4 22S1 20.66 1 19 2.34 16 4 16C4.18 16 4.36 16 4.53 16.05L7.6 10.69L5.86 9.7L9.95 8.58L11.07 12.67L9.33 11.68L6.27 17.05M20 16C18.7 16 17.6 16.84 17.18 18H11V16L8 19L11 22V20H17.18C17.6 21.16 18.7 22 20 22C21.66 22 23 20.66 23 19S21.66 16 20 16M12 8C12.18 8 12.36 8 12.53 7.95L15.6 13.31L13.86 14.3L17.95 15.42L19.07 11.33L17.33 12.32L14.27 6.95C14.72 6.42 15 5.75 15 5C15 3.34 13.66 2 12 2S9 3.34 9 5 10.34 8 12 8Z" />
    </g>
    <g id="mdi-state-machine" transform="translate(180 180) scale(1.5)" fill="#fff">
      <path d="M6.27 17.05C6.72 17.58 7 18.25 7 19C7 20.66 5.66 22 4 22S1 20.66 1 19 2.34 16 4 16C4.18 16 4.36 16 4.53 16.05L7.6 10.69L5.86 9.7L9.95 8.58L11.07 12.67L9.33 11.68L6.27 17.05M20 16C18.7 16 17.6 16.84 17.18 18H11V16L8 19L11 22V20H17.18C17.6 21.16 18.7 22 20 22C21.66 22 23 20.66 23 19S21.66 16 20 16M12 8C12.18 8 12.36 8 12.53 7.95L15.6 13.31L13.86 14.3L17.95 15.42L19.07 11.33L17.33 12.32L14.27 6.95C14.72 6.42 15 5.75 15 5C15 3.34 13.66 2 12 2S9 3.34 9 5 10.34 8 12 8Z" />
    </g>
    <g id="mdi-steam" transform="translate(216 180) scale(1.5)" fill="#555">
      <path d="M12,2A10,10 0 0,1 22,12A10,10 0 0,1 12,22C7.4,22 3.55,18.92 2.36,14.73L6.19,16.31C6.45,17.6 7.6,18.58 8.97,18.58C10.53,18.58 11.8,17.31 11.8,15.75V15.62L15.2,13.19H15.28C17.36,13.19 19.05,11.5 19.05,9.42C19.05,7.34 17.36,5.65 15.28,5.65C13.2,5.65 11.5,7.34 11.5,9.42V9.47L9.13,12.93L8.97,12.92C8.38,12.92 7.83,13.1 7.38,13.41L2,11.2C2.43,6.05 6.73,2 12,2M8.28,17.17C9.08,17.5 10,17.13 10.33,16.33C10.66,15.53 10.28,14.62 9.5,14.29L8.22,13.76C8.71,13.58 9.26,13.57 9.78,13.79C10.31,14 10.72,14.41 10.93,14.94C11.15,15.46 11.15,16.04 10.93,16.56C10.5,17.64 9.23,18.16 8.15,17.71C7.65,17.5 7.27,17.12 7.06,16.67L8.28,17.17M17.8,9.42C17.8,10.81 16.67,11.94 15.28,11.94C13.9,11.94 12.77,10.81 12.77,9.42A2.5,2.5 0 0,1 15.28,6.91C16.67,6.91 17.8,8.04 17.8,9.42M13.4,9.42C13.4,10.46 14.24,11.31 15.29,11.31C16.33,11.31 17.17,10.46 17.17,9.42C17.17,8.38 16.33,7.53 15.29,7.53C14.24,7.53 13.4,8.38 13.4,9.42Z" />
    </g>
    <g id="mdi-steam" transform="translate(252 180) scale(1.5)" fill="#fff">
      <path d="M12,2A10,10 0 0,1 22,12A10,10 0 0,1 12,22C7.4,22 3.55,18.92 2.36,14.73L6.19,16.31C6.45,17.6 7.6,18.58 8.97,18.58C10.53,18.58 11.8,17.31 11.8,15.75V15.62L15.2,13.19H15.28C17.36,13.19 19.05,11.5 19.05,9.42C19.05,7.34 17.36,5.65 15.28,5.65C13.2,5.65 11.5,7.34 11.5,9.42V9.47L9.13,12.93L8.97,12.92C8.38,12.92 7.83,13.1 7.38,13.41L2,11.2C2.43,6.05 6.73,2 12,2M8.28,17.17C9.08,17.5 10,17.13 10.33,16.33C10.66,15.53 10.28,14.62 9.5,14.29L8.22,13.76C8.71,13.58 9.26,13.57 9.78,13.79C10.31,14 10.72,14.41 10.93,14.94C11.15,15.46 11.15,16.04 10.93,16.56C10.5,17.64 9.23,18.16 8.15,17.71C7.65,17.5 7.27,17.12 7.06,16.67L8.28,17.17M17.8,9.42C17.8,10.81 16.67,11.94 15.28,11.94C13.9,11.94 12.77,10.81 12.77,9.42A2.5,2.5 0 0,1 15.28,6.91C16.67,6.91 17.8,8.04 17.8,9.42M13.4,9.42C13.4,10.46 14.24,11.31 15.29,11.31C16.33,11.31 17.17,10.46 17.17,9.42C17.17,8.38 16.33,7.53 15.29,7.53C14.24,7.53 13.4,8.38 13.4,9.42Z" />
    </g>
    <g id="mdi-steering" transform="translate(288 180) scale(1.5)" fill="#555">
      <path d="M13,19.92C14.8,19.7 16.35,18.95 17.65,17.65C18.95,16.35 19.7,14.8 19.92,13H16.92C16.7,14 16.24,14.84 15.54,15.54C14.84,16.24 14,16.7 13,16.92V19.92M10,8H14L17,11H19.92C19.67,9.05 18.79,7.38 17.27,6C15.76,4.66 14,4 12,4C10,4 8.24,4.66 6.73,6C5.21,7.38 4.33,9.05 4.08,11H7L10,8M11,19.92V16.92C10,16.7 9.16,16.24 8.46,15.54C7.76,14.84 7.3,14 7.08,13H4.08C4.3,14.77 5.05,16.3 6.35,17.6C7.65,18.9 9.2,19.67 11,19.92M12,2C14.75,2 17.1,3 19.05,4.95C21,6.9 22,9.25 22,12C22,14.75 21,17.1 19.05,19.05C17.1,21 14.75,22 12,22C9.25,22 6.9,21 4.95,19.05C3,17.1 2,14.75 2,12C2,9.25 3,6.9 4.95,4.95C6.9,3 9.25,2 12,2Z" />
    </g>
    <g id="mdi-steering" transform="translate(324 180) scale(1.5)" fill="#fff">
      <path d="M13,19.92C14.8,19.7 16.35,18.95 17.65,17.65C18.95,16.35 19.7,14.8 19.92,13H16.92C16.7,14 16.24,14.84 15.54,15.54C14.84,16.24 14,16.7 13,16.92V19.92M10,8H14L17,11H19.92C19.67,9.05 18.79,7.38 17.27,6C15.76,4.66 14,4 12,4C10,4 8.24,4.66 6.73,6C5.21,7.38 4.33,9.05 4.08,11H7L10,8M11,19.92V16.92C10,16.7 9.16,16.24 8.46,15.54C7.76,14.84 7.3,14 7.08,13H4.08C4.3,14.77 5.05,16.3 6.35,17.6C7.65,18.9 9.2,19.67 11,19.92M12,2C14.75,2 17.1,3 19.05,4.95C21,6.9 22,9.25 22,12C22,14.75 21,17.1 19.05,19.05C17.1,21 14.75,22 12,22C9.25,22 6.9,21 4.95,19.05C3,17.1 2,14.75 2,12C2,9.25 3,6.9 4.95,4.95C6.9,3 9.25,2 12,2Z" />
    </g>
    <g id="mdi-steering-off" transform="translate(360 180) scale(1.5)" fill="#555">
      <path d="M2,5.27L3.28,4L20,20.72L18.73,22L17.25,20.5C15.7,21.5 13.95,22 12,22C9.25,22 6.9,21 4.95,19.05C3,17.1 2,14.75 2,12C2,10.05 2.5,8.3 3.5,6.75L2,5.27M13,19.92C14,19.8 14.93,19.5 15.78,19.05L13.5,16.78C13.34,16.84 13.16,16.88 13,16.92V19.92M4.08,11H7L7.37,10.63L4.96,8.23C4.5,9.08 4.21,10 4.08,11M19.92,13H16.92C16.8,13.54 16.6,14.05 16.33,14.5L9.91,8.09L10,8H14L17,11H19.92C19.67,9.05 18.79,7.38 17.27,6C15.76,4.66 14,4 12,4C10.26,4 8.71,4.5 7.34,5.5L5.91,4.09C7.66,2.71 9.69,2 12,2C14.75,2 17.1,3 19.05,4.95C21,6.9 22,9.25 22,12C22,14.31 21.29,16.34 19.91,18.09L18.5,16.67C19.28,15.59 19.76,14.36 19.92,13M11,19.92V16.92C10,16.7 9.16,16.24 8.46,15.54C7.76,14.84 7.3,14 7.08,13H4.08C4.3,14.77 5.05,16.3 6.35,17.6C7.65,18.9 9.2,19.67 11,19.92Z" />
    </g>
    <g id="mdi-steering-off" transform="translate(396 180) scale(1.5)" fill="#fff">
      <path d="M2,5.27L3.28,4L20,20.72L18.73,22L17.25,20.5C15.7,21.5 13.95,22 12,22C9.25,22 6.9,21 4.95,19.05C3,17.1 2,14.75 2,12C2,10.05 2.5,8.3 3.5,6.75L2,5.27M13,19.92C14,19.8 14.93,19.5 15.78,19.05L13.5,16.78C13.34,16.84 13.16,16.88 13,16.92V19.92M4.08,11H7L7.37,10.63L4.96,8.23C4.5,9.08 4.21,10 4.08,11M19.92,13H16.92C16.8,13.54 16.6,14.05 16.33,14.5L9.91,8.09L10,8H14L17,11H19.92C19.67,9.05 18.79,7.38 17.27,6C15.76,4.66 14,4 12,4C10.26,4 8.71,4.5 7.34,5.5L5.91,4.09C7.66,2.71 9.69,2 12,2C14.75,2 17.1,3 19.05,4.95C21,6.9 22,9.25 22,12C22,14.31 21.29,16.34 19.91,18.09L18.5,16.67C19.28,15.59 19.76,14.36 19.92,13M11,19.92V16.92C10,16.7 9.16,16.24 8.46,15.54C7.76,14.84 7.3,14 7.08,13H4.08C4.3,14.77 5.05,16.3 6.35,17.6C7.65,18.9 9.2,19.67 11,19.92Z" />
    </g>
    <g id="mdi-step-backward" transform="translate(432 180) scale(1.5)" fill="#555">
      <path d="M19,5V19H16V5M14,5V19L3,12" />
    </g>
    <g id="mdi-step-backward" transform="translate(468 180) scale(1.5)" fill="#fff">
      <path d="M19,5V19H16V5M14,5V19L3,12" />
    </g>
    <g id="mdi-step-backward-2" transform="translate(504 180) scale(1.5)" fill="#555">
      <path d="M17,5H14V19H17V5M12,5L1,12L12,19V5M22,5H19V19H22V5Z" />
    </g>
    <g id="mdi-step-backward-2" transform="translate(540 180) scale(1.5)" fill="#fff">
      <path d="M17,5H14V19H17V5M12,5L1,12L12,19V5M22,5H19V19H22V5Z" />
    </g>
    <g id="mdi-step-forward" transform="translate(576 180) scale(1.5)" fill="#555">
      <path d="M5,5V19H8V5M10,5V19L21,12" />
    </g>
    <g id="mdi-step-forward" transform="translate(612 180) scale(1.5)" fill="#fff">
      <path d="M5,5V19H8V5M10,5V19L21,12" />
    </g>
    <g id="mdi-step-forward-2" transform="translate(648 180) scale(1.5)" fill="#555">
      <path d="M7,5H10V19H7V5M12,5L23,12L12,19V5M2,5H5V19H2V5Z" />
    </g>
    <g id="mdi-step-forward-2" transform="translate(684 180) scale(1.5)" fill="#fff">
      <path d="M7,5H10V19H7V5M12,5L23,12L12,19V5M2,5H5V19H2V5Z" />
    </g>
    <g id="mdi-stethoscope" transform="translate(0 216) scale(1.5)" fill="#555">
      <path d="M19,8C19.56,8 20,8.43 20,9A1,1 0 0,1 19,10C18.43,10 18,9.55 18,9C18,8.43 18.43,8 19,8M2,2V11C2,13.96 4.19,16.5 7.14,16.91C7.76,19.92 10.42,22 13.5,22A6.5,6.5 0 0,0 20,15.5V11.81C21.16,11.39 22,10.29 22,9A3,3 0 0,0 19,6A3,3 0 0,0 16,9C16,10.29 16.84,11.4 18,11.81V15.41C18,17.91 16,19.91 13.5,19.91C11.5,19.91 9.82,18.7 9.22,16.9C12,16.3 14,13.8 14,11V2H10V5H12V11A4,4 0 0,1 8,15A4,4 0 0,1 4,11V5H6V2H2Z" />
    </g>
    <g id="mdi-stethoscope" transform="translate(36 216) scale(1.5)" fill="#fff">
      <path d="M19,8C19.56,8 20,8.43 20,9A1,1 0 0,1 19,10C18.43,10 18,9.55 18,9C18,8.43 18.43,8 19,8M2,2V11C2,13.96 4.19,16.5 7.14,16.91C7.76,19.92 10.42,22 13.5,22A6.5,6.5 0 0,0 20,15.5V11.81C21.16,11.39 22,10.29 22,9A3,3 0 0,0 19,6A3,3 0 0,0 16,9C16,10.29 16.84,11.4 18,11.81V15.41C18,17.91 16,19.91 13.5,19.91C11.5,19.91 9.82,18.7 9.22,16.9C12,16.3 14,13.8 14,11V2H10V5H12V11A4,4 0 0,1 8,15A4,4 0 0,1 4,11V5H6V2H2Z" />
    </g>
    <g id="mdi-sticker" transform="translate(72 216) scale(1.5)" fill="#555">
      <path d="M18.5 2H5.5C3.6 2 2 3.6 2 5.5V18.5C2 20.4 3.6 22 5.5 22H16L22 16V5.5C22 3.6 20.4 2 18.5 2M15 20V18.5C15 16.6 16.6 15 18.5 15H20L15 20Z" />
    </g>
    <g id="mdi-sticker" transform="translate(108 216) scale(1.5)" fill="#fff">
      <path d="M18.5 2H5.5C3.6 2 2 3.6 2 5.5V18.5C2 20.4 3.6 22 5.5 22H16L22 16V5.5C22 3.6 20.4 2 18.5 2M15 20V18.5C15 16.6 16.6 15 18.5 15H20L15 20Z" />
    </g>
    <g id="mdi-sticker-alert" transform="translate(144 216) scale(1.5)" fill="#555">
      <path d="M18.5 2H5.5C3.6 2 2 3.6 2 5.5V18.5C2 20.4 3.6 22 5.5 22H16L22 16V5.5C22 3.6 20.4 2 18.5 2M13 16H11V14H13V16M13 12H11V8H13V12M15 20V18.5C15 16.6 16.6 15 18.5 15H20L15 20Z" />
    </g>
    <g id="mdi-sticker-alert" transform="translate(180 216) scale(1.5)" fill="#fff">
      <path d="M18.5 2H5.5C3.6 2 2 3.6 2 5.5V18.5C2 20.4 3.6 22 5.5 22H16L22 16V5.5C22 3.6 20.4 2 18.5 2M13 16H11V14H13V16M13 12H11V8H13V12M15 20V18.5C15 16.6 16.6 15 18.5 15H20L15 20Z" />
    </g>
    <g id="mdi-sticker-alert-outline" transform="translate(216 216) scale(1.5)" fill="#555">
      <path d="M11 14H13V16H11V14M11 12.5H13V8H11V12.5M22 5.5V16L16 22H5.5C3.6 22 2 20.4 2 18.5V5.5C2 3.6 3.6 2 5.5 2H18.5C20.4 2 22 3.6 22 5.5M20 5.8C20 4.8 19.2 4 18.2 4H5.8C4.8 4 4 4.8 4 5.8V18.3C4 19.3 4.8 20.1 5.8 20.1H15V18.6C15 16.7 16.6 15.1 18.5 15.1H20V5.8Z" />
    </g>
    <g id="mdi-sticker-alert-outline" transform="translate(252 216) scale(1.5)" fill="#fff">
      <path d="M11 14H13V16H11V14M11 12.5H13V8H11V12.5M22 5.5V16L16 22H5.5C3.6 22 2 20.4 2 18.5V5.5C2 3.6 3.6 2 5.5 2H18.5C20.4 2 22 3.6 22 5.5M20 5.8C20 4.8 19.2 4 18.2 4H5.8C4.8 4 4 4.8 4 5.8V18.3C4 19.3 4.8 20.1 5.8 20.1H15V18.6C15 16.7 16.6 15.1 18.5 15.1H20V5.8Z" />
    </g>
    <g id="mdi-sticker-check" transform="translate(288 216) scale(1.5)" fill="#555">
      <path d="M18.5 2H5.5C3.6 2 2 3.6 2 5.5V18.5C2 20.4 3.6 22 5.5 22H16L22 16V5.5C22 3.6 20.4 2 18.5 2M7 12.5L8.3 11.1L10.4 13.2L15.6 8L17 9.4L10.5 16L7 12.5M15 20V18.5C15 16.6 16.6 15 18.5 15H20L15 20Z" />
    </g>
    <g id="mdi-sticker-check" transform="translate(324 216) scale(1.5)" fill="#fff">
      <path d="M18.5 2H5.5C3.6 2 2 3.6 2 5.5V18.5C2 20.4 3.6 22 5.5 22H16L22 16V5.5C22 3.6 20.4 2 18.5 2M7 12.5L8.3 11.1L10.4 13.2L15.6 8L17 9.4L10.5 16L7 12.5M15 20V18.5C15 16.6 16.6 15 18.5 15H20L15 20Z" />
    </g>
    <g id="mdi-sticker-check-outline" transform="translate(360 216) scale(1.5)" fill="#555">
      <path d="M18.5 2H5.5C3.6 2 2 3.6 2 5.5V18.5C2 20.4 3.6 22 5.5 22H16L22 16V5.5C22 3.6 20.4 2 18.5 2M20 15H18.5C16.6 15 15 16.6 15 18.5V20H5.8C4.8 20 4 19.2 4 18.2V5.8C4 4.8 4.8 4 5.8 4H18.3C19.3 4 20.1 4.8 20.1 5.8V15M15.2 8.2L16.7 9.7L10.7 15.7L7.2 12.2L8.7 10.7L10.7 12.7L15.2 8.2Z" />
    </g>
    <g id="mdi-sticker-check-outline" transform="translate(396 216) scale(1.5)" fill="#fff">
      <path d="M18.5 2H5.5C3.6 2 2 3.6 2 5.5V18.5C2 20.4 3.6 22 5.5 22H16L22 16V5.5C22 3.6 20.4 2 18.5 2M20 15H18.5C16.6 15 15 16.6 15 18.5V20H5.8C4.8 20 4 19.2 4 18.2V5.8C4 4.8 4.8 4 5.8 4H18.3C19.3 4 20.1 4.8 20.1 5.8V15M15.2 8.2L16.7 9.7L10.7 15.7L7.2 12.2L8.7 10.7L10.7 12.7L15.2 8.2Z" />
    </g>
    <g id="mdi-sticker-circle-outline" transform="translate(432 216) scale(1.5)" fill="#555">
      <path d="M12.12,18.46L18.3,12.28C16.94,12.59 15.31,13.2 14.07,14.46C13.04,15.5 12.39,16.83 12.12,18.46M20.75,10H21.05C21.44,10 21.79,10.27 21.93,10.64C22.07,11 22,11.43 21.7,11.71L11.7,21.71C11.5,21.9 11.26,22 11,22L10.64,21.93C10.27,21.79 10,21.44 10,21.05C9.84,17.66 10.73,14.96 12.66,13.03C15.5,10.2 19.62,10 20.75,10M12,2C16.5,2 20.34,5 21.58,9.11L20,9H19.42C18.24,6.07 15.36,4 12,4A8,8 0 0,0 4,12C4,15.36 6.07,18.24 9,19.42C8.97,20.13 9,20.85 9.11,21.57C5,20.33 2,16.5 2,12C2,6.47 6.5,2 12,2Z" />
    </g>
    <g id="mdi-sticker-circle-outline" transform="translate(468 216) scale(1.5)" fill="#fff">
      <path d="M12.12,18.46L18.3,12.28C16.94,12.59 15.31,13.2 14.07,14.46C13.04,15.5 12.39,16.83 12.12,18.46M20.75,10H21.05C21.44,10 21.79,10.27 21.93,10.64C22.07,11 22,11.43 21.7,11.71L11.7,21.71C11.5,21.9 11.26,22 11,22L10.64,21.93C10.27,21.79 10,21.44 10,21.05C9.84,17.66 10.73,14.96 12.66,13.03C15.5,10.2 19.62,10 20.75,10M12,2C16.5,2 20.34,5 21.58,9.11L20,9H19.42C18.24,6.07 15.36,4 12,4A8,8 0 0,0 4,12C4,15.36 6.07,18.24 9,19.42C8.97,20.13 9,20.85 9.11,21.57C5,20.33 2,16.5 2,12C2,6.47 6.5,2 12,2Z" />
    </g>
    <g id="mdi-sticker-emoji" transform="translate(504 216) scale(1.5)" fill="#555">
      <path d="M5.5,2C3.56,2 2,3.56 2,5.5V18.5C2,20.44 3.56,22 5.5,22H16L22,16V5.5C22,3.56 20.44,2 18.5,2H5.5M5.75,4H18.25A1.75,1.75 0 0,1 20,5.75V15H18.5C16.56,15 15,16.56 15,18.5V20H5.75A1.75,1.75 0 0,1 4,18.25V5.75A1.75,1.75 0 0,1 5.75,4M14.44,6.77C14.28,6.77 14.12,6.79 13.97,6.83C13.03,7.09 12.5,8.05 12.74,9C12.79,9.15 12.86,9.3 12.95,9.44L16.18,8.56C16.18,8.39 16.16,8.22 16.12,8.05C15.91,7.3 15.22,6.77 14.44,6.77M8.17,8.5C8,8.5 7.85,8.5 7.7,8.55C6.77,8.81 6.22,9.77 6.47,10.7C6.5,10.86 6.59,11 6.68,11.16L9.91,10.28C9.91,10.11 9.89,9.94 9.85,9.78C9.64,9 8.95,8.5 8.17,8.5M16.72,11.26L7.59,13.77C8.91,15.3 11,15.94 12.95,15.41C14.9,14.87 16.36,13.25 16.72,11.26Z" />
    </g>
    <g id="mdi-sticker-emoji" transform="translate(540 216) scale(1.5)" fill="#fff">
      <path d="M5.5,2C3.56,2 2,3.56 2,5.5V18.5C2,20.44 3.56,22 5.5,22H16L22,16V5.5C22,3.56 20.44,2 18.5,2H5.5M5.75,4H18.25A1.75,1.75 0 0,1 20,5.75V15H18.5C16.56,15 15,16.56 15,18.5V20H5.75A1.75,1.75 0 0,1 4,18.25V5.75A1.75,1.75 0 0,1 5.75,4M14.44,6.77C14.28,6.77 14.12,6.79 13.97,6.83C13.03,7.09 12.5,8.05 12.74,9C12.79,9.15 12.86,9.3 12.95,9.44L16.18,8.56C16.18,8.39 16.16,8.22 16.12,8.05C15.91,7.3 15.22,6.77 14.44,6.77M8.17,8.5C8,8.5 7.85,8.5 7.7,8.55C6.77,8.81 6.22,9.77 6.47,10.7C6.5,10.86 6.59,11 6.68,11.16L9.91,10.28C9.91,10.11 9.89,9.94 9.85,9.78C9.64,9 8.95,8.5 8.17,8.5M16.72,11.26L7.59,13.77C8.91,15.3 11,15.94 12.95,15.41C14.9,14.87 16.36,13.25 16.72,11.26Z" />
    </g>
    <g id="mdi-sticker-minus" transform="translate(576 216) scale(1.5)" fill="#555">
      <path d="M18.5 2H5.5C3.6 2 2 3.6 2 5.5V18.5C2 20.4 3.6 22 5.5 22H16L22 16V5.5C22 3.6 20.4 2 18.5 2M8 11H16V13H8V11M15 20V18.5C15 16.6 16.6 15 18.5 15H20L15 20Z" />
    </g>
    <g id="mdi-sticker-minus" transform="translate(612 216) scale(1.5)" fill="#fff">
      <path d="M18.5 2H5.5C3.6 2 2 3.6 2 5.5V18.5C2 20.4 3.6 22 5.5 22H16L22 16V5.5C22 3.6 20.4 2 18.5 2M8 11H16V13H8V11M15 20V18.5C15 16.6 16.6 15 18.5 15H20L15 20Z" />
    </g>
    <g id="mdi-sticker-minus-outline" transform="translate(648 216) scale(1.5)" fill="#555">
      <path d="M8 11H16V13H8V11M22 5.5V16L16 22H5.5C3.6 22 2 20.4 2 18.5V5.5C2 3.6 3.6 2 5.5 2H18.5C20.4 2 22 3.6 22 5.5M20 5.8C20 4.8 19.2 4 18.2 4H5.8C4.8 4 4 4.8 4 5.8V18.3C4 19.3 4.8 20.1 5.8 20.1H15V18.6C15 16.7 16.6 15.1 18.5 15.1H20V5.8Z" />
    </g>
    <g id="mdi-sticker-minus-outline" transform="translate(684 216) scale(1.5)" fill="#fff">
      <path d="M8 11H16V13H8V11M22 5.5V16L16 22H5.5C3.6 22 2 20.4 2 18.5V5.5C2 3.6 3.6 2 5.5 2H18.5C20.4 2 22 3.6 22 5.5M20 5.8C20 4.8 19.2 4 18.2 4H5.8C4.8 4 4 4.8 4 5.8V18.3C4 19.3 4.8 20.1 5.8 20.1H15V18.6C15 16.7 16.6 15.1 18.5 15.1H20V5.8Z" />
    </g>
    <g id="mdi-sticker-outline" transform="translate(0 252) scale(1.5)" fill="#555">
      <path d="M5.5 2C3.6 2 2 3.6 2 5.5V18.5C2 20.4 3.6 22 5.5 22H16L22 16V5.5C22 3.6 20.4 2 18.5 2H5.5M5.8 4H18.3C19.3 4 20.1 4.8 20.1 5.8V15H18.6C16.7 15 15.1 16.6 15.1 18.5V20H5.8C4.8 20 4 19.2 4 18.2V5.8C4 4.8 4.8 4 5.8 4" />
    </g>
    <g id="mdi-sticker-outline" transform="translate(36 252) scale(1.5)" fill="#fff">
      <path d="M5.5 2C3.6 2 2 3.6 2 5.5V18.5C2 20.4 3.6 22 5.5 22H16L22 16V5.5C22 3.6 20.4 2 18.5 2H5.5M5.8 4H18.3C19.3 4 20.1 4.8 20.1 5.8V15H18.6C16.7 15 15.1 16.6 15.1 18.5V20H5.8C4.8 20 4 19.2 4 18.2V5.8C4 4.8 4.8 4 5.8 4" />
    </g>
    <g id="mdi-sticker-plus" transform="translate(72 252) scale(1.5)" fill="#555">
      <path d="M18.5 2H5.5C3.6 2 2 3.6 2 5.5V18.5C2 20.4 3.6 22 5.5 22H16L22 16V5.5C22 3.6 20.4 2 18.5 2M13 16H11V13H8V11H11V8H13V11H16V13H13V16M15 20V18.5C15 16.6 16.6 15 18.5 15H20L15 20Z" />
    </g>
    <g id="mdi-sticker-plus" transform="translate(108 252) scale(1.5)" fill="#fff">
      <path d="M18.5 2H5.5C3.6 2 2 3.6 2 5.5V18.5C2 20.4 3.6 22 5.5 22H16L22 16V5.5C22 3.6 20.4 2 18.5 2M13 16H11V13H8V11H11V8H13V11H16V13H13V16M15 20V18.5C15 16.6 16.6 15 18.5 15H20L15 20Z" />
    </g>
    <g id="mdi-sticker-plus-outline" transform="translate(144 252) scale(1.5)" fill="#555">
      <path d="M13 11H16V13H13V16H11V13H8V11H11V8H13V11M22 5.5V16L16 22H5.5C3.6 22 2 20.4 2 18.5V5.5C2 3.6 3.6 2 5.5 2H18.5C20.4 2 22 3.6 22 5.5M20 5.8C20 4.8 19.2 4 18.2 4H5.8C4.8 4 4 4.8 4 5.8V18.3C4 19.3 4.8 20.1 5.8 20.1H15V18.6C15 16.7 16.6 15.1 18.5 15.1H20V5.8Z" />
    </g>
    <g id="mdi-sticker-plus-outline" transform="translate(180 252) scale(1.5)" fill="#fff">
      <path d="M13 11H16V13H13V16H11V13H8V11H11V8H13V11M22 5.5V16L16 22H5.5C3.6 22 2 20.4 2 18.5V5.5C2 3.6 3.6 2 5.5 2H18.5C20.4 2 22 3.6 22 5.5M20 5.8C20 4.8 19.2 4 18.2 4H5.8C4.8 4 4 4.8 4 5.8V18.3C4 19.3 4.8 20.1 5.8 20.1H15V18.6C15 16.7 16.6 15.1 18.5 15.1H20V5.8Z" />
    </g>
    <g id="mdi-sticker-remove" transform="translate(216 252) scale(1.5)" fill="#555">
      <path d="M18.5 2H5.5C3.6 2 2 3.6 2 5.5V18.5C2 20.4 3.6 22 5.5 22H16L22 16V5.5C22 3.6 20.4 2 18.5 2M12 13.4L9.9 15.5L8.5 14.1L10.6 12L8.5 9.9L9.9 8.5L12 10.6L14.1 8.5L15.5 9.9L13.4 12L15.5 14.1L14.1 15.5L12 13.4M15 20V18.5C15 16.6 16.6 15 18.5 15H20L15 20Z" />
    </g>
    <g id="mdi-sticker-remove" transform="translate(252 252) scale(1.5)" fill="#fff">
      <path d="M18.5 2H5.5C3.6 2 2 3.6 2 5.5V18.5C2 20.4 3.6 22 5.5 22H16L22 16V5.5C22 3.6 20.4 2 18.5 2M12 13.4L9.9 15.5L8.5 14.1L10.6 12L8.5 9.9L9.9 8.5L12 10.6L14.1 8.5L15.5 9.9L13.4 12L15.5 14.1L14.1 15.5L12 13.4M15 20V18.5C15 16.6 16.6 15 18.5 15H20L15 20Z" />
    </g>
    <g id="mdi-sticker-remove-outline" transform="translate(288 252) scale(1.5)" fill="#555">
      <path d="M16 9.4L13.4 12L16 14.6L14.6 16L12 13.4L9.4 16L8 14.6L10.6 12L8 9.4L9.4 8L12 10.6L14.6 8L16 9.4M22 5.5V16L16 22H5.5C3.6 22 2 20.4 2 18.5V5.5C2 3.6 3.6 2 5.5 2H18.5C20.4 2 22 3.6 22 5.5M20 5.8C20 4.8 19.2 4 18.2 4H5.8C4.8 4 4 4.8 4 5.8V18.3C4 19.3 4.8 20.1 5.8 20.1H15V18.6C15 16.7 16.6 15.1 18.5 15.1H20V5.8Z" />
    </g>
    <g id="mdi-sticker-remove-outline" transform="translate(324 252) scale(1.5)" fill="#fff">
      <path d="M16 9.4L13.4 12L16 14.6L14.6 16L12 13.4L9.4 16L8 14.6L10.6 12L8 9.4L9.4 8L12 10.6L14.6 8L16 9.4M22 5.5V16L16 22H5.5C3.6 22 2 20.4 2 18.5V5.5C2 3.6 3.6 2 5.5 2H18.5C20.4 2 22 3.6 22 5.5M20 5.8C20 4.8 19.2 4 18.2 4H5.8C4.8 4 4 4.8 4 5.8V18.3C4 19.3 4.8 20.1 5.8 20.1H15V18.6C15 16.7 16.6 15.1 18.5 15.1H20V5.8Z" />
    </g>
    <g id="mdi-stocking" transform="translate(360 252) scale(1.5)" fill="#555">
      <path d="M17,2A2,2 0 0,1 19,4V7A2,2 0 0,1 17,9V17C17,17.85 16.5,18.57 15.74,18.86L9.5,21.77C8.5,22.24 7.29,21.81 6.83,20.81L6,19C5.5,18 5.95,16.8 6.95,16.34L10,14.91V9A2,2 0 0,1 8,7V4A2,2 0 0,1 10,2H17M10,4V7H17V4H10Z" />
    </g>
    <g id="mdi-stocking" transform="translate(396 252) scale(1.5)" fill="#fff">
      <path d="M17,2A2,2 0 0,1 19,4V7A2,2 0 0,1 17,9V17C17,17.85 16.5,18.57 15.74,18.86L9.5,21.77C8.5,22.24 7.29,21.81 6.83,20.81L6,19C5.5,18 5.95,16.8 6.95,16.34L10,14.91V9A2,2 0 0,1 8,7V4A2,2 0 0,1 10,2H17M10,4V7H17V4H10Z" />
    </g>
    <g id="mdi-stomach" transform="translate(432 252) scale(1.5)" fill="#555">
      <path d="M4 18C4.67 19.85 6.07 22 12 22C14.36 22 17.07 21.93 19 20C20 19 22 17 22 11S20 4 18 4C16.62 4 15 4 14 6V6.03A1.82 1.82 0 0 1 12.13 6.95C11 6.81 11 6.37 11 6V2H9V6A2.92 2.92 0 0 0 12 9C13 9 13 10.78 13 12C13 13.89 12.5 15.26 11 16C8.69 17.15 6.39 17 5.61 15.47A1.5 1.5 0 0 0 3.14 14.87A3.67 3.67 0 0 0 2 18V22H4Z" />
    </g>
    <g id="mdi-stomach" transform="translate(468 252) scale(1.5)" fill="#fff">
      <path d="M4 18C4.67 19.85 6.07 22 12 22C14.36 22 17.07 21.93 19 20C20 19 22 17 22 11S20 4 18 4C16.62 4 15 4 14 6V6.03A1.82 1.82 0 0 1 12.13 6.95C11 6.81 11 6.37 11 6V2H9V6A2.92 2.92 0 0 0 12 9C13 9 13 10.78 13 12C13 13.89 12.5 15.26 11 16C8.69 17.15 6.39 17 5.61 15.47A1.5 1.5 0 0 0 3.14 14.87A3.67 3.67 0 0 0 2 18V22H4Z" />
    </g>
    <g id="mdi-stop" transform="translate(504 252) scale(1.5)" fill="#555">
      <path d="M18,18H6V6H18V18Z" />
    </g>
    <g id="mdi-stop" transform="translate(540 252) scale(1.5)" fill="#fff">
      <path d="M18,18H6V6H18V18Z" />
    </g>
    <g id="mdi-stop-circle" transform="translate(576 252) scale(1.5)" fill="#555">
      <path d="M12,2A10,10 0 0,0 2,12A10,10 0 0,0 12,22A10,10 0 0,0 22,12A10,10 0 0,0 12,2M9,9H15V15H9" />
    </g>
    <g id="mdi-stop-circle" transform="translate(612 252) scale(1.5)" fill="#fff">
      <path d="M12,2A10,10 0 0,0 2,12A10,10 0 0,0 12,22A10,10 0 0,0 22,12A10,10 0 0,0 12,2M9,9H15V15H9" />
    </g>
    <g id="mdi-stop-circle-outline" transform="translate(648 252) scale(1.5)" fill="#555">
      <path d="M12,2A10,10 0 0,0 2,12A10,10 0 0,0 12,22A10,10 0 0,0 22,12A10,10 0 0,0 12,2M12,4C16.41,4 20,7.59 20,12C20,16.41 16.41,20 12,20C7.59,20 4,16.41 4,12C4,7.59 7.59,4 12,4M9,9V15H15V9" />
    </g>
    <g id="mdi-stop-circle-outline" transform="translate(684 252) scale(1.5)" fill="#fff">
      <path d="M12,2A10,10 0 0,0 2,12A10,10 0 0,0 12,22A10,10 0 0,0 22,12A10,10 0 0,0 12,2M12,4C16.41,4 20,7.59 20,12C20,16.41 16.41,20 12,20C7.59,20 4,16.41 4,12C4,7.59 7.59,4 12,4M9,9V15H15V9" />
    </g>
    <g id="mdi-store" transform="translate(0 288) scale(1.5)" fill="#555">
      <path d="M12,18H6V14H12M21,14V12L20,7H4L3,12V14H4V20H14V14H18V20H20V14M20,4H4V6H20V4Z" />
    </g>
    <g id="mdi-store" transform="translate(36 288) scale(1.5)" fill="#fff">
      <path d="M12,18H6V14H12M21,14V12L20,7H4L3,12V14H4V20H14V14H18V20H20V14M20,4H4V6H20V4Z" />
    </g>
    <g id="mdi-store-24-hour" transform="translate(72 288) scale(1.5)" fill="#555">
      <path d="M16,12H15V10H13V7H14V9H15V7H16M11,10H9V11H11V12H8V9H10V8H8V7H11M19,7V4H5V7H2V20H10V16H14V20H22V7H19Z" />
    </g>
    <g id="mdi-store-24-hour" transform="translate(108 288) scale(1.5)" fill="#fff">
      <path d="M16,12H15V10H13V7H14V9H15V7H16M11,10H9V11H11V12H8V9H10V8H8V7H11M19,7V4H5V7H2V20H10V16H14V20H22V7H19Z" />
    </g>
    <g id="mdi-store-outline" transform="translate(144 288) scale(1.5)" fill="#555">
      <path d="M18.36 9L18.96 12H5.04L5.64 9H18.36M20 4H4V6H20V4M20 7H4L3 12V14H4V20H14V14H18V20H20V14H21V12L20 7M6 18V14H12V18H6Z" />
    </g>
    <g id="mdi-store-outline" transform="translate(180 288) scale(1.5)" fill="#fff">
      <path d="M18.36 9L18.96 12H5.04L5.64 9H18.36M20 4H4V6H20V4M20 7H4L3 12V14H4V20H14V14H18V20H20V14H21V12L20 7M6 18V14H12V18H6Z" />
    </g>
    <g id="mdi-storefront" transform="translate(216 288) scale(1.5)" fill="#555">
      <path d="M5.06 3C4.63 3 4.22 3.14 3.84 3.42C3.46 3.7 3.24 4.06 3.14 4.5L2.11 8.91C1.86 10 2.06 10.92 2.69 11.73C2.81 11.85 2.93 11.97 3.04 12.07C3.63 12.64 4.28 13 5.22 13C6.16 13 6.91 12.59 7.47 12.05C8.1 12.67 8.86 13 9.8 13C10.64 13 11.44 12.63 12 12.07C12.68 12.7 13.45 13 14.3 13C15.17 13 15.91 12.67 16.54 12.05C17.11 12.62 17.86 13 18.81 13C19.76 13 20.43 12.65 21 12.06C21.09 11.97 21.18 11.87 21.28 11.77C21.94 10.95 22.14 10 21.89 8.91L20.86 4.5C20.73 4.06 20.5 3.7 20.13 3.42C19.77 3.14 19.38 3 18.94 3M18.89 4.97L19.97 9.38C20.06 9.81 19.97 10.2 19.69 10.55C19.44 10.86 19.13 11 18.75 11C18.44 11 18.17 10.9 17.95 10.66C17.73 10.43 17.61 10.16 17.58 9.84L16.97 5M5.06 5H7.03L6.42 9.84C6.3 10.63 5.91 11 5.25 11C4.84 11 4.53 10.86 4.31 10.55C4.03 10.2 3.94 9.81 4.03 9.38M9.05 5H11V9.7C11 10.05 10.89 10.35 10.64 10.62C10.39 10.88 10.08 11 9.7 11C9.36 11 9.07 10.88 8.84 10.59C8.61 10.3 8.5 10 8.5 9.66V9.5M13 5H14.95L15.5 9.5C15.58 9.92 15.5 10.27 15.21 10.57C14.95 10.87 14.61 11 14.2 11C13.89 11 13.61 10.88 13.36 10.62C13.11 10.35 13 10.05 13 9.7M3 14.03V19C3 20.11 3.89 21 5 21C9.67 21 14.33 21 19 21C20.1 21 21 20.11 21 19V14.05C20.45 14.63 19.75 14.96 19 15C18 15.03 17.25 14.74 16.54 14.05C15.94 14.65 15.14 15 14.3 15C13.4 15 12.6 14.64 12 14.07C11.43 14.64 10.65 15 9.78 15C8.87 15 8.07 14.65 7.47 14.05C6.89 14.64 6.1 15 5.23 15C4.33 15 3.66 14.65 3 14.03Z" />
    </g>
    <g id="mdi-storefront" transform="translate(252 288) scale(1.5)" fill="#fff">
      <path d="M5.06 3C4.63 3 4.22 3.14 3.84 3.42C3.46 3.7 3.24 4.06 3.14 4.5L2.11 8.91C1.86 10 2.06 10.92 2.69 11.73C2.81 11.85 2.93 11.97 3.04 12.07C3.63 12.64 4.28 13 5.22 13C6.16 13 6.91 12.59 7.47 12.05C8.1 12.67 8.86 13 9.8 13C10.64 13 11.44 12.63 12 12.07C12.68 12.7 13.45 13 14.3 13C15.17 13 15.91 12.67 16.54 12.05C17.11 12.62 17.86 13 18.81 13C19.76 13 20.43 12.65 21 12.06C21.09 11.97 21.18 11.87 21.28 11.77C21.94 10.95 22.14 10 21.89 8.91L20.86 4.5C20.73 4.06 20.5 3.7 20.13 3.42C19.77 3.14 19.38 3 18.94 3M18.89 4.97L19.97 9.38C20.06 9.81 19.97 10.2 19.69 10.55C19.44 10.86 19.13 11 18.75 11C18.44 11 18.17 10.9 17.95 10.66C17.73 10.43 17.61 10.16 17.58 9.84L16.97 5M5.06 5H7.03L6.42 9.84C6.3 10.63 5.91 11 5.25 11C4.84 11 4.53 10.86 4.31 10.55C4.03 10.2 3.94 9.81 4.03 9.38M9.05 5H11V9.7C11 10.05 10.89 10.35 10.64 10.62C10.39 10.88 10.08 11 9.7 11C9.36 11 9.07 10.88 8.84 10.59C8.61 10.3 8.5 10 8.5 9.66V9.5M13 5H14.95L15.5 9.5C15.58 9.92 15.5 10.27 15.21 10.57C14.95 10.87 14.61 11 14.2 11C13.89 11 13.61 10.88 13.36 10.62C13.11 10.35 13 10.05 13 9.7M3 14.03V19C3 20.11 3.89 21 5 21C9.67 21 14.33 21 19 21C20.1 21 21 20.11 21 19V14.05C20.45 14.63 19.75 14.96 19 15C18 15.03 17.25 14.74 16.54 14.05C15.94 14.65 15.14 15 14.3 15C13.4 15 12.6 14.64 12 14.07C11.43 14.64 10.65 15 9.78 15C8.87 15 8.07 14.65 7.47 14.05C6.89 14.64 6.1 15 5.23 15C4.33 15 3.66 14.65 3 14.03Z" />
    </g>
    <g id="mdi-storefront-outline" transform="translate(288 288) scale(1.5)" fill="#555">
      <path d="M5.06 3C4.63 3 4.22 3.14 3.84 3.42S3.24 4.06 3.14 4.5L2.11 8.91C1.86 10 2.06 10.95 2.72 11.77L3 12.05V19C3 19.5 3.2 20 3.61 20.39S4.5 21 5 21H19C19.5 21 20 20.8 20.39 20.39S21 19.5 21 19V12.05L21.28 11.77C21.94 10.95 22.14 10 21.89 8.91L20.86 4.5C20.73 4.06 20.5 3.7 20.13 3.42C19.77 3.14 19.38 3 18.94 3H5.06M18.89 4.97L19.97 9.38C20.06 9.81 19.97 10.2 19.69 10.55C19.44 10.86 19.13 11 18.75 11C18.44 11 18.17 10.9 17.95 10.66C17.73 10.43 17.61 10.16 17.58 9.84L16.97 5L18.89 4.97M5.06 5H7.03L6.42 9.84C6.3 10.63 5.91 11 5.25 11C4.84 11 4.53 10.86 4.31 10.55C4.03 10.2 3.94 9.81 4.03 9.38L5.06 5M9.05 5H11V9.7C11 10.05 10.89 10.35 10.64 10.62C10.39 10.88 10.08 11 9.7 11C9.36 11 9.07 10.88 8.84 10.59S8.5 10 8.5 9.66V9.5L9.05 5M13 5H14.95L15.5 9.5C15.58 9.92 15.5 10.27 15.21 10.57C14.95 10.87 14.61 11 14.2 11C13.89 11 13.61 10.88 13.36 10.62C13.11 10.35 13 10.05 13 9.7V5M7.45 12.05C8.08 12.67 8.86 13 9.8 13C10.64 13 11.38 12.67 12 12.05C12.69 12.67 13.45 13 14.3 13C15.17 13 15.92 12.67 16.55 12.05C17.11 12.67 17.86 13 18.8 13H19.03V19H5V13H5.25C6.16 13 6.89 12.67 7.45 12.05Z" />
    </g>
    <g id="mdi-storefront-outline" transform="translate(324 288) scale(1.5)" fill="#fff">
      <path d="M5.06 3C4.63 3 4.22 3.14 3.84 3.42S3.24 4.06 3.14 4.5L2.11 8.91C1.86 10 2.06 10.95 2.72 11.77L3 12.05V19C3 19.5 3.2 20 3.61 20.39S4.5 21 5 21H19C19.5 21 20 20.8 20.39 20.39S21 19.5 21 19V12.05L21.28 11.77C21.94 10.95 22.14 10 21.89 8.91L20.86 4.5C20.73 4.06 20.5 3.7 20.13 3.42C19.77 3.14 19.38 3 18.94 3H5.06M18.89 4.97L19.97 9.38C20.06 9.81 19.97 10.2 19.69 10.55C19.44 10.86 19.13 11 18.75 11C18.44 11 18.17 10.9 17.95 10.66C17.73 10.43 17.61 10.16 17.58 9.84L16.97 5L18.89 4.97M5.06 5H7.03L6.42 9.84C6.3 10.63 5.91 11 5.25 11C4.84 11 4.53 10.86 4.31 10.55C4.03 10.2 3.94 9.81 4.03 9.38L5.06 5M9.05 5H11V9.7C11 10.05 10.89 10.35 10.64 10.62C10.39 10.88 10.08 11 9.7 11C9.36 11 9.07 10.88 8.84 10.59S8.5 10 8.5 9.66V9.5L9.05 5M13 5H14.95L15.5 9.5C15.58 9.92 15.5 10.27 15.21 10.57C14.95 10.87 14.61 11 14.2 11C13.89 11 13.61 10.88 13.36 10.62C13.11 10.35 13 10.05 13 9.7V5M7.45 12.05C8.08 12.67 8.86 13 9.8 13C10.64 13 11.38 12.67 12 12.05C12.69 12.67 13.45 13 14.3 13C15.17 13 15.92 12.67 16.55 12.05C17.11 12.67 17.86 13 18.8 13H19.03V19H5V13H5.25C6.16 13 6.89 12.67 7.45 12.05Z" />
    </g>
    <g id="mdi-stove" transform="translate(360 288) scale(1.5)" fill="#555">
      <path d="M6,14H8L11,17H9L6,14M4,4H5V3A1,1 0 0,1 6,2H10A1,1 0 0,1 11,3V4H13V3A1,1 0 0,1 14,2H18A1,1 0 0,1 19,3V4H20A2,2 0 0,1 22,6V19A2,2 0 0,1 20,21V22H17V21H7V22H4V21A2,2 0 0,1 2,19V6A2,2 0 0,1 4,4M18,7A1,1 0 0,1 19,8A1,1 0 0,1 18,9A1,1 0 0,1 17,8A1,1 0 0,1 18,7M14,7A1,1 0 0,1 15,8A1,1 0 0,1 14,9A1,1 0 0,1 13,8A1,1 0 0,1 14,7M20,6H4V10H20V6M4,19H20V12H4V19M6,7A1,1 0 0,1 7,8A1,1 0 0,1 6,9A1,1 0 0,1 5,8A1,1 0 0,1 6,7M13,14H15L18,17H16L13,14Z" />
    </g>
    <g id="mdi-stove" transform="translate(396 288) scale(1.5)" fill="#fff">
      <path d="M6,14H8L11,17H9L6,14M4,4H5V3A1,1 0 0,1 6,2H10A1,1 0 0,1 11,3V4H13V3A1,1 0 0,1 14,2H18A1,1 0 0,1 19,3V4H20A2,2 0 0,1 22,6V19A2,2 0 0,1 20,21V22H17V21H7V22H4V21A2,2 0 0,1 2,19V6A2,2 0 0,1 4,4M18,7A1,1 0 0,1 19,8A1,1 0 0,1 18,9A1,1 0 0,1 17,8A1,1 0 0,1 18,7M14,7A1,1 0 0,1 15,8A1,1 0 0,1 14,9A1,1 0 0,1 13,8A1,1 0 0,1 14,7M20,6H4V10H20V6M4,19H20V12H4V19M6,7A1,1 0 0,1 7,8A1,1 0 0,1 6,9A1,1 0 0,1 5,8A1,1 0 0,1 6,7M13,14H15L18,17H16L13,14Z" />
    </g>
    <g id="mdi-strategy" transform="translate(432 288) scale(1.5)" fill="#555">
      <path d="M6.91 5.5L9.21 7.79L7.79 9.21L5.5 6.91L3.21 9.21L1.79 7.79L4.09 5.5L1.79 3.21L3.21 1.79L5.5 4.09L7.79 1.79L9.21 3.21M22.21 16.21L20.79 14.79L18.5 17.09L16.21 14.79L14.79 16.21L17.09 18.5L14.79 20.79L16.21 22.21L18.5 19.91L20.79 22.21L22.21 20.79L19.91 18.5M20.4 6.83L17.18 11L15.6 9.73L16.77 8.23A9.08 9.08 0 0 0 10.11 13.85A4.5 4.5 0 1 1 7.5 13A4 4 0 0 1 8.28 13.08A11.27 11.27 0 0 1 16.43 6.26L15 5.18L16.27 3.6M10 17.5A2.5 2.5 0 1 0 7.5 20A2.5 2.5 0 0 0 10 17.5Z" />
    </g>
    <g id="mdi-strategy" transform="translate(468 288) scale(1.5)" fill="#fff">
      <path d="M6.91 5.5L9.21 7.79L7.79 9.21L5.5 6.91L3.21 9.21L1.79 7.79L4.09 5.5L1.79 3.21L3.21 1.79L5.5 4.09L7.79 1.79L9.21 3.21M22.21 16.21L20.79 14.79L18.5 17.09L16.21 14.79L14.79 16.21L17.09 18.5L14.79 20.79L16.21 22.21L18.5 19.91L20.79 22.21L22.21 20.79L19.91 18.5M20.4 6.83L17.18 11L15.6 9.73L16.77 8.23A9.08 9.08 0 0 0 10.11 13.85A4.5 4.5 0 1 1 7.5 13A4 4 0 0 1 8.28 13.08A11.27 11.27 0 0 1 16.43 6.26L15 5.18L16.27 3.6M10 17.5A2.5 2.5 0 1 0 7.5 20A2.5 2.5 0 0 0 10 17.5Z" />
    </g>
    <g id="mdi-stretch-to-page" transform="translate(504 288) scale(1.5)" fill="#555">
      <path d="M20,2H4C2.89,2 2,2.89 2,4V20C2,21.11 2.89,22 4,22H20C21.11,22 22,21.11 22,20V4C22,2.89 21.11,2 20,2M9,19H5V15L6.29,16.29L7.83,14.75L9.25,16.17L7.71,17.71M7.83,9.25L6.29,7.71L5,9V5H9L7.71,6.29L9.25,7.83M19,19H15L16.29,17.71L14.75,16.17L16.17,14.75L17.71,16.29L19,15M19,9L17.71,7.71L16.17,9.25L14.75,7.83L16.29,6.29L15,5H19" />
    </g>
    <g id="mdi-stretch-to-page" transform="translate(540 288) scale(1.5)" fill="#fff">
      <path d="M20,2H4C2.89,2 2,2.89 2,4V20C2,21.11 2.89,22 4,22H20C21.11,22 22,21.11 22,20V4C22,2.89 21.11,2 20,2M9,19H5V15L6.29,16.29L7.83,14.75L9.25,16.17L7.71,17.71M7.83,9.25L6.29,7.71L5,9V5H9L7.71,6.29L9.25,7.83M19,19H15L16.29,17.71L14.75,16.17L16.17,14.75L17.71,16.29L19,15M19,9L17.71,7.71L16.17,9.25L14.75,7.83L16.29,6.29L15,5H19" />
    </g>
    <g id="mdi-stretch-to-page-outline" transform="translate(576 288) scale(1.5)" fill="#555">
      <path d="M20,2H4C2.89,2 2,2.89 2,4V20C2,21.11 2.89,22 4,22H20C21.11,22 22,21.11 22,20V4C22,2.89 21.11,2 20,2M20,20H4V4H20M8.83,10.25L7.29,8.71L6,10V6H10L8.71,7.29L10.25,8.83M13.75,8.83L15.29,7.29L14,6H18V10L16.71,8.71L15.17,10.25M15.17,13.75L16.71,15.29L18,14V18H14L15.29,16.71L13.75,15.17M10.25,15.17L8.71,16.71L10,18H6V14L7.29,15.29L8.83,13.75" />
    </g>
    <g id="mdi-stretch-to-page-outline" transform="translate(612 288) scale(1.5)" fill="#fff">
      <path d="M20,2H4C2.89,2 2,2.89 2,4V20C2,21.11 2.89,22 4,22H20C21.11,22 22,21.11 22,20V4C22,2.89 21.11,2 20,2M20,20H4V4H20M8.83,10.25L7.29,8.71L6,10V6H10L8.71,7.29L10.25,8.83M13.75,8.83L15.29,7.29L14,6H18V10L16.71,8.71L15.17,10.25M15.17,13.75L16.71,15.29L18,14V18H14L15.29,16.71L13.75,15.17M10.25,15.17L8.71,16.71L10,18H6V14L7.29,15.29L8.83,13.75" />
    </g>
    <g id="mdi-string-lights" transform="translate(648 288) scale(1.5)" fill="#555">
      <path d="M22.56 11.39C22.36 10.59 21.82 9.85 21.05 9.44L20.63 7.74C21.11 7.58 21.57 7.41 22 7.23V5C20 6.07 16.53 7.03 12 7.03S4 6.07 2 5V7.23C2.43 7.41 2.89 7.58 3.37 7.74L2.95 9.44C2.18 9.85 1.64 10.59 1.44 11.39C.905 13.57 .385 17.31 2.92 17.93C4 18.2 6 17.89 7.27 12.82C7.46 12 7.33 11.12 6.84 10.39L7.26 8.67C8.14 8.81 9.05 8.9 10 8.96V10.74C9.35 11.33 9 12.17 9 13C9 15.24 9.39 19 12 19C13.12 19 15 18.22 15 13C15 12.17 14.65 11.33 14 10.74V8.96C14.95 8.9 15.86 8.81 16.74 8.67L17.16 10.39C16.67 11.12 16.54 12 16.73 12.82C18 17.89 20 18.2 21.08 17.93C23.61 17.31 23.09 13.57 22.56 11.39M5.81 12.47C5.81 12.47 4.74 16.84 3.28 16.5C1.82 16.12 2.9 11.75 2.9 11.75S3.26 10.29 4.71 10.65 5.81 12.47 5.81 12.47M12 17.5C10.5 17.5 10.5 13 10.5 13S10.5 11.5 12 11.5 13.5 13 13.5 13 13.5 17.5 12 17.5M20.72 16.5C19.27 16.84 18.19 12.47 18.19 12.47S17.83 11 19.29 10.65 21.1 11.75 21.1 11.75 22.18 16.12 20.72 16.5Z" />
    </g>
    <g id="mdi-string-lights" transform="translate(684 288) scale(1.5)" fill="#fff">
      <path d="M22.56 11.39C22.36 10.59 21.82 9.85 21.05 9.44L20.63 7.74C21.11 7.58 21.57 7.41 22 7.23V5C20 6.07 16.53 7.03 12 7.03S4 6.07 2 5V7.23C2.43 7.41 2.89 7.58 3.37 7.74L2.95 9.44C2.18 9.85 1.64 10.59 1.44 11.39C.905 13.57 .385 17.31 2.92 17.93C4 18.2 6 17.89 7.27 12.82C7.46 12 7.33 11.12 6.84 10.39L7.26 8.67C8.14 8.81 9.05 8.9 10 8.96V10.74C9.35 11.33 9 12.17 9 13C9 15.24 9.39 19 12 19C13.12 19 15 18.22 15 13C15 12.17 14.65 11.33 14 10.74V8.96C14.95 8.9 15.86 8.81 16.74 8.67L17.16 10.39C16.67 11.12 16.54 12 16.73 12.82C18 17.89 20 18.2 21.08 17.93C23.61 17.31 23.09 13.57 22.56 11.39M5.81 12.47C5.81 12.47 4.74 16.84 3.28 16.5C1.82 16.12 2.9 11.75 2.9 11.75S3.26 10.29 4.71 10.65 5.81 12.47 5.81 12.47M12 17.5C10.5 17.5 10.5 13 10.5 13S10.5 11.5 12 11.5 13.5 13 13.5 13 13.5 17.5 12 17.5M20.72 16.5C19.27 16.84 18.19 12.47 18.19 12.47S17.83 11 19.29 10.65 21.1 11.75 21.1 11.75 22.18 16.12 20.72 16.5Z" />
    </g>
    <g id="mdi-string-lights-off" transform="translate(0 324) scale(1.5)" fill="#555">
      <path d="M14 10.74V8.96C14.95 8.9 15.86 8.81 16.74 8.67L17.16 10.39C16.67 11.12 16.54 12 16.73 12.82C16.82 13.17 16.91 13.5 17 13.8L21.12 17.92C23.61 17.26 23.09 13.55 22.56 11.39C22.36 10.59 21.82 9.85 21.05 9.44L20.63 7.74C21.11 7.58 21.57 7.41 22 7.23V5C20 6.07 16.53 7.03 12 7.03C11.37 7.03 10.76 7 10.17 6.97M20.72 16.5C19.27 16.84 18.19 12.47 18.19 12.47S17.83 11 19.29 10.65 21.1 11.75 21.1 11.75 22.18 16.12 20.72 16.5M14.95 14.29L13.5 12.83V12.83L12.18 11.5H12.18L10 9.34V9.34L9.58 8.93H9.59L7.32 6.66H7.32L2.39 1.73L1.11 3L3.91 5.8C3.19 5.55 2.53 5.28 2 5V7.23C2.43 7.41 2.89 7.58 3.37 7.74L2.95 9.44C2.18 9.85 1.64 10.59 1.44 11.39C.905 13.57 .385 17.31 2.92 17.93C4 18.2 6 17.89 7.27 12.82C7.46 12 7.33 11.12 6.84 10.39L7.17 9.06L9.5 11.38C9.18 11.87 9 12.44 9 13C9 15.24 9.39 19 12 19C12.8 19 13.97 18.59 14.59 16.5L20.84 22.73L22.11 21.46L14.95 14.3L14.95 14.29M5.81 12.47C5.81 12.47 4.74 16.84 3.28 16.5C1.82 16.12 2.9 11.75 2.9 11.75S3.26 10.29 4.71 10.65 5.81 12.47 5.81 12.47M12 17.5C10.5 17.5 10.5 13 10.5 13S10.5 12.77 10.6 12.5L13.32 15.21C13.13 16.35 12.76 17.5 12 17.5Z" />
    </g>
    <g id="mdi-string-lights-off" transform="translate(36 324) scale(1.5)" fill="#fff">
      <path d="M14 10.74V8.96C14.95 8.9 15.86 8.81 16.74 8.67L17.16 10.39C16.67 11.12 16.54 12 16.73 12.82C16.82 13.17 16.91 13.5 17 13.8L21.12 17.92C23.61 17.26 23.09 13.55 22.56 11.39C22.36 10.59 21.82 9.85 21.05 9.44L20.63 7.74C21.11 7.58 21.57 7.41 22 7.23V5C20 6.07 16.53 7.03 12 7.03C11.37 7.03 10.76 7 10.17 6.97M20.72 16.5C19.27 16.84 18.19 12.47 18.19 12.47S17.83 11 19.29 10.65 21.1 11.75 21.1 11.75 22.18 16.12 20.72 16.5M14.95 14.29L13.5 12.83V12.83L12.18 11.5H12.18L10 9.34V9.34L9.58 8.93H9.59L7.32 6.66H7.32L2.39 1.73L1.11 3L3.91 5.8C3.19 5.55 2.53 5.28 2 5V7.23C2.43 7.41 2.89 7.58 3.37 7.74L2.95 9.44C2.18 9.85 1.64 10.59 1.44 11.39C.905 13.57 .385 17.31 2.92 17.93C4 18.2 6 17.89 7.27 12.82C7.46 12 7.33 11.12 6.84 10.39L7.17 9.06L9.5 11.38C9.18 11.87 9 12.44 9 13C9 15.24 9.39 19 12 19C12.8 19 13.97 18.59 14.59 16.5L20.84 22.73L22.11 21.46L14.95 14.3L14.95 14.29M5.81 12.47C5.81 12.47 4.74 16.84 3.28 16.5C1.82 16.12 2.9 11.75 2.9 11.75S3.26 10.29 4.71 10.65 5.81 12.47 5.81 12.47M12 17.5C10.5 17.5 10.5 13 10.5 13S10.5 12.77 10.6 12.5L13.32 15.21C13.13 16.35 12.76 17.5 12 17.5Z" />
    </g>
    <g id="mdi-subdirectory-arrow-left" transform="translate(72 324) scale(1.5)" fill="#555">
      <path d="M11,9L12.42,10.42L8.83,14H18V4H20V16H8.83L12.42,19.58L11,21L5,15L11,9Z" />
    </g>
    <g id="mdi-subdirectory-arrow-left" transform="translate(108 324) scale(1.5)" fill="#fff">
      <path d="M11,9L12.42,10.42L8.83,14H18V4H20V16H8.83L12.42,19.58L11,21L5,15L11,9Z" />
    </g>
    <g id="mdi-subdirectory-arrow-right" transform="translate(144 324) scale(1.5)" fill="#555">
      <path d="M19,15L13,21L11.58,19.58L15.17,16H4V4H6V14H15.17L11.58,10.42L13,9L19,15Z" />
    </g>
    <g id="mdi-subdirectory-arrow-right" transform="translate(180 324) scale(1.5)" fill="#fff">
      <path d="M19,15L13,21L11.58,19.58L15.17,16H4V4H6V14H15.17L11.58,10.42L13,9L19,15Z" />
    </g>
    <g id="mdi-subtitles" transform="translate(216 324) scale(1.5)" fill="#555">
      <path d="M20,4H4A2,2 0 0,0 2,6V18A2,2 0 0,0 4,20H20A2,2 0 0,0 22,18V6A2,2 0 0,0 20,4M4,12H8V14H4V12M14,18H4V16H14V18M20,18H16V16H20V18M20,14H10V12H20V14Z" />
    </g>
    <g id="mdi-subtitles" transform="translate(252 324) scale(1.5)" fill="#fff">
      <path d="M20,4H4A2,2 0 0,0 2,6V18A2,2 0 0,0 4,20H20A2,2 0 0,0 22,18V6A2,2 0 0,0 20,4M4,12H8V14H4V12M14,18H4V16H14V18M20,18H16V16H20V18M20,14H10V12H20V14Z" />
    </g>
    <g id="mdi-subtitles-outline" transform="translate(288 324) scale(1.5)" fill="#555">
      <path d="M20,4A2,2 0 0,1 22,6V18A2,2 0 0,1 20,20H4A2,2 0 0,1 2,18V6A2,2 0 0,1 4,4H20M20,18V6H4V18H20M6,10H8V12H6V10M6,14H14V16H6V14M16,14H18V16H16V14M10,10H18V12H10V10Z" />
    </g>
    <g id="mdi-subtitles-outline" transform="translate(324 324) scale(1.5)" fill="#fff">
      <path d="M20,4A2,2 0 0,1 22,6V18A2,2 0 0,1 20,20H4A2,2 0 0,1 2,18V6A2,2 0 0,1 4,4H20M20,18V6H4V18H20M6,10H8V12H6V10M6,14H14V16H6V14M16,14H18V16H16V14M10,10H18V12H10V10Z" />
    </g>
    <g id="mdi-subway" transform="translate(360 324) scale(1.5)" fill="#555">
      <path d="M8.5,15A1,1 0 0,1 9.5,16A1,1 0 0,1 8.5,17A1,1 0 0,1 7.5,16A1,1 0 0,1 8.5,15M7,9H17V14H7V9M15.5,15A1,1 0 0,1 16.5,16A1,1 0 0,1 15.5,17A1,1 0 0,1 14.5,16A1,1 0 0,1 15.5,15M18,15.88V9C18,6.38 15.32,6 12,6C9,6 6,6.37 6,9V15.88A2.62,2.62 0 0,0 8.62,18.5L7.5,19.62V20H9.17L10.67,18.5H13.5L15,20H16.5V19.62L15.37,18.5C16.82,18.5 18,17.33 18,15.88M17.8,2.8C20.47,3.84 22,6.05 22,8.86V22H2V8.86C2,6.05 3.53,3.84 6.2,2.8C8,2.09 10.14,2 12,2C13.86,2 16,2.09 17.8,2.8Z" />
    </g>
    <g id="mdi-subway" transform="translate(396 324) scale(1.5)" fill="#fff">
      <path d="M8.5,15A1,1 0 0,1 9.5,16A1,1 0 0,1 8.5,17A1,1 0 0,1 7.5,16A1,1 0 0,1 8.5,15M7,9H17V14H7V9M15.5,15A1,1 0 0,1 16.5,16A1,1 0 0,1 15.5,17A1,1 0 0,1 14.5,16A1,1 0 0,1 15.5,15M18,15.88V9C18,6.38 15.32,6 12,6C9,6 6,6.37 6,9V15.88A2.62,2.62 0 0,0 8.62,18.5L7.5,19.62V20H9.17L10.67,18.5H13.5L15,20H16.5V19.62L15.37,18.5C16.82,18.5 18,17.33 18,15.88M17.8,2.8C20.47,3.84 22,6.05 22,8.86V22H2V8.86C2,6.05 3.53,3.84 6.2,2.8C8,2.09 10.14,2 12,2C13.86,2 16,2.09 17.8,2.8Z" />
    </g>
    <g id="mdi-subway-alert-variant" transform="translate(432 324) scale(1.5)" fill="#555">
      <path d="M16,11V6H11V11H16M14.5,17A1.5,1.5 0 0,0 16,15.5A1.5,1.5 0 0,0 14.5,14A1.5,1.5 0 0,0 13,15.5A1.5,1.5 0 0,0 14.5,17M9,11V6H4V11H9M5.5,17A1.5,1.5 0 0,0 7,15.5A1.5,1.5 0 0,0 5.5,14A1.5,1.5 0 0,0 4,15.5A1.5,1.5 0 0,0 5.5,17M10,2C14.42,2 18,2.5 18,6V15.5A3.5,3.5 0 0,1 14.5,19L16,20.5V21H4V20.5L5.5,19A3.5,3.5 0 0,1 2,15.5V6C2,2.5 5.58,2 10,2M20,12V7H22V12H20M20,16V14H22V16H20Z" />
    </g>
    <g id="mdi-subway-alert-variant" transform="translate(468 324) scale(1.5)" fill="#fff">
      <path d="M16,11V6H11V11H16M14.5,17A1.5,1.5 0 0,0 16,15.5A1.5,1.5 0 0,0 14.5,14A1.5,1.5 0 0,0 13,15.5A1.5,1.5 0 0,0 14.5,17M9,11V6H4V11H9M5.5,17A1.5,1.5 0 0,0 7,15.5A1.5,1.5 0 0,0 5.5,14A1.5,1.5 0 0,0 4,15.5A1.5,1.5 0 0,0 5.5,17M10,2C14.42,2 18,2.5 18,6V15.5A3.5,3.5 0 0,1 14.5,19L16,20.5V21H4V20.5L5.5,19A3.5,3.5 0 0,1 2,15.5V6C2,2.5 5.58,2 10,2M20,12V7H22V12H20M20,16V14H22V16H20Z" />
    </g>
    <g id="mdi-subway-variant" transform="translate(504 324) scale(1.5)" fill="#555">
      <path d="M18,11H13V6H18M16.5,17A1.5,1.5 0 0,1 15,15.5A1.5,1.5 0 0,1 16.5,14A1.5,1.5 0 0,1 18,15.5A1.5,1.5 0 0,1 16.5,17M11,11H6V6H11M7.5,17A1.5,1.5 0 0,1 6,15.5A1.5,1.5 0 0,1 7.5,14A1.5,1.5 0 0,1 9,15.5A1.5,1.5 0 0,1 7.5,17M12,2C7.58,2 4,2.5 4,6V15.5A3.5,3.5 0 0,0 7.5,19L6,20.5V21H18V20.5L16.5,19A3.5,3.5 0 0,0 20,15.5V6C20,2.5 16.42,2 12,2Z" />
    </g>
    <g id="mdi-subway-variant" transform="translate(540 324) scale(1.5)" fill="#fff">
      <path d="M18,11H13V6H18M16.5,17A1.5,1.5 0 0,1 15,15.5A1.5,1.5 0 0,1 16.5,14A1.5,1.5 0 0,1 18,15.5A1.5,1.5 0 0,1 16.5,17M11,11H6V6H11M7.5,17A1.5,1.5 0 0,1 6,15.5A1.5,1.5 0 0,1 7.5,14A1.5,1.5 0 0,1 9,15.5A1.5,1.5 0 0,1 7.5,17M12,2C7.58,2 4,2.5 4,6V15.5A3.5,3.5 0 0,0 7.5,19L6,20.5V21H18V20.5L16.5,19A3.5,3.5 0 0,0 20,15.5V6C20,2.5 16.42,2 12,2Z" />
    </g>
    <g id="mdi-summit" transform="translate(576 324) scale(1.5)" fill="#555">
      <path d="M15,3H17L22,5L17,7V10.17L22,21H2L8,13L11.5,17.7L15,10.17V3Z" />
    </g>
    <g id="mdi-summit" transform="translate(612 324) scale(1.5)" fill="#fff">
      <path d="M15,3H17L22,5L17,7V10.17L22,21H2L8,13L11.5,17.7L15,10.17V3Z" />
    </g>
    <g id="mdi-sunglasses" transform="translate(648 324) scale(1.5)" fill="#555">
      <path d="M7,17H4C2.38,17 0.96,15.74 0.76,14.14L0.26,11.15C0.15,10.3 0.39,9.5 0.91,8.92C1.43,8.34 2.19,8 3,8H9C9.83,8 10.58,8.35 11.06,8.96C11.17,9.11 11.27,9.27 11.35,9.45C11.78,9.36 12.22,9.36 12.64,9.45C12.72,9.27 12.82,9.11 12.94,8.96C13.41,8.35 14.16,8 15,8H21C21.81,8 22.57,8.34 23.09,8.92C23.6,9.5 23.84,10.3 23.74,11.11L23.23,14.18C23.04,15.74 21.61,17 20,17H17C15.44,17 13.92,15.81 13.54,14.3L12.64,11.59C12.26,11.31 11.73,11.31 11.35,11.59L10.43,14.37C10.07,15.82 8.56,17 7,17Z" />
    </g>
    <g id="mdi-sunglasses" transform="translate(684 324) scale(1.5)" fill="#fff">
      <path d="M7,17H4C2.38,17 0.96,15.74 0.76,14.14L0.26,11.15C0.15,10.3 0.39,9.5 0.91,8.92C1.43,8.34 2.19,8 3,8H9C9.83,8 10.58,8.35 11.06,8.96C11.17,9.11 11.27,9.27 11.35,9.45C11.78,9.36 12.22,9.36 12.64,9.45C12.72,9.27 12.82,9.11 12.94,8.96C13.41,8.35 14.16,8 15,8H21C21.81,8 22.57,8.34 23.09,8.92C23.6,9.5 23.84,10.3 23.74,11.11L23.23,14.18C23.04,15.74 21.61,17 20,17H17C15.44,17 13.92,15.81 13.54,14.3L12.64,11.59C12.26,11.31 11.73,11.31 11.35,11.59L10.43,14.37C10.07,15.82 8.56,17 7,17Z" />
    </g>
  </svg>