<?xml version="1.0" encoding="UTF-8"?>
<!DOCTYPE svg PUBLIC "-//W3C//DTD SVG 1.1//EN" "http://www.w3.org/Graphics/SVG/1.1/DTD/svg11.dtd"><svg
  xmlns="http://www.w3.org/2000/svg" xmlns:xlink="http://www.w3.org/1999/xlink" version="1.1"
  width="720" height="900" viewBox="0 0 720 900">
    <g id="mdi-timelapse" transform="translate(0 0) scale(1.5)" fill="#555">
      <path d="M12,20A8,8 0 0,1 4,12A8,8 0 0,1 12,4A8,8 0 0,1 20,12A8,8 0 0,1 12,20M12,2A10,10 0 0,0 2,12A10,10 0 0,0 12,22A10,10 0 0,0 22,12A10,10 0 0,0 12,2M16.24,7.76C15.07,6.58 13.53,6 12,6V12L7.76,16.24C10.1,18.58 13.9,18.58 16.24,16.24C18.59,13.9 18.59,10.1 16.24,7.76Z" />
    </g>
    <g id="mdi-timelapse" transform="translate(36 0) scale(1.5)" fill="#fff">
      <path d="M12,20A8,8 0 0,1 4,12A8,8 0 0,1 12,4A8,8 0 0,1 20,12A8,8 0 0,1 12,20M12,2A10,10 0 0,0 2,12A10,10 0 0,0 12,22A10,10 0 0,0 22,12A10,10 0 0,0 12,2M16.24,7.76C15.07,6.58 13.53,6 12,6V12L7.76,16.24C10.1,18.58 13.9,18.58 16.24,16.24C18.59,13.9 18.59,10.1 16.24,7.76Z" />
    </g>
    <g id="mdi-timeline" transform="translate(72 0) scale(1.5)" fill="#555">
      <path d="M4 2V8H2V2H4M2 22V16H4V22H2M5 12C5 13.11 4.11 14 3 14C1.9 14 1 13.11 1 12C1 10.9 1.9 10 3 10C4.11 10 5 10.9 5 12M24 6V18C24 19.11 23.11 20 22 20H10C8.9 20 8 19.11 8 18V14L6 12L8 10V6C8 4.89 8.9 4 10 4H22C23.11 4 24 4.89 24 6Z" />
    </g>
    <g id="mdi-timeline" transform="translate(108 0) scale(1.5)" fill="#fff">
      <path d="M4 2V8H2V2H4M2 22V16H4V22H2M5 12C5 13.11 4.11 14 3 14C1.9 14 1 13.11 1 12C1 10.9 1.9 10 3 10C4.11 10 5 10.9 5 12M24 6V18C24 19.11 23.11 20 22 20H10C8.9 20 8 19.11 8 18V14L6 12L8 10V6C8 4.89 8.9 4 10 4H22C23.11 4 24 4.89 24 6Z" />
    </g>
    <g id="mdi-timeline-alert" transform="translate(144 0) scale(1.5)" fill="#555">
      <path d="M4 2V8H2V2H4M2 22V16H4V22H2M5 12C5 13.11 4.11 14 3 14C1.9 14 1 13.11 1 12C1 10.9 1.9 10 3 10C4.11 10 5 10.9 5 12M24 6V18C24 19.11 23.11 20 22 20H10C8.9 20 8 19.11 8 18V14L6 12L8 10V6C8 4.89 8.9 4 10 4H22C23.11 4 24 4.89 24 6M15 7V13H17V7H15M15 15V17H17V15H15Z" />
    </g>
    <g id="mdi-timeline-alert" transform="translate(180 0) scale(1.5)" fill="#fff">
      <path d="M4 2V8H2V2H4M2 22V16H4V22H2M5 12C5 13.11 4.11 14 3 14C1.9 14 1 13.11 1 12C1 10.9 1.9 10 3 10C4.11 10 5 10.9 5 12M24 6V18C24 19.11 23.11 20 22 20H10C8.9 20 8 19.11 8 18V14L6 12L8 10V6C8 4.89 8.9 4 10 4H22C23.11 4 24 4.89 24 6M15 7V13H17V7H15M15 15V17H17V15H15Z" />
    </g>
    <g id="mdi-timeline-alert-outline" transform="translate(216 0) scale(1.5)" fill="#555">
      <path d="M4 2V8H2V2H4M2 22V16H4V22H2M5 12C5 13.11 4.11 14 3 14C1.9 14 1 13.11 1 12C1 10.9 1.9 10 3 10C4.11 10 5 10.9 5 12M24 6V18C24 19.11 23.11 20 22 20H10C8.9 20 8 19.11 8 18V14L6 12L8 10V6C8 4.89 8.9 4 10 4H22C23.11 4 24 4.89 24 6M10 6V18H22V6H10M15 7H17V13H15V7M15 15H17V17H15V15Z" />
    </g>
    <g id="mdi-timeline-alert-outline" transform="translate(252 0) scale(1.5)" fill="#fff">
      <path d="M4 2V8H2V2H4M2 22V16H4V22H2M5 12C5 13.11 4.11 14 3 14C1.9 14 1 13.11 1 12C1 10.9 1.9 10 3 10C4.11 10 5 10.9 5 12M24 6V18C24 19.11 23.11 20 22 20H10C8.9 20 8 19.11 8 18V14L6 12L8 10V6C8 4.89 8.9 4 10 4H22C23.11 4 24 4.89 24 6M10 6V18H22V6H10M15 7H17V13H15V7M15 15H17V17H15V15Z" />
    </g>
    <g id="mdi-timeline-clock" transform="translate(288 0) scale(1.5)" fill="#555">
      <path d="M4 2V8H2V2H4M2 22V16H4V22H2M5 12C5 13.11 4.11 14 3 14C1.9 14 1 13.11 1 12C1 10.9 1.9 10 3 10C4.11 10 5 10.9 5 12M16 4C20.42 4 24 7.58 24 12C24 16.42 20.42 20 16 20C12.4 20 9.36 17.62 8.35 14.35L6 12L8.35 9.65C9.36 6.38 12.4 4 16 4M15 13L19.53 15.79L20.33 14.5L16.5 12.2V7H15V13Z" />
    </g>
    <g id="mdi-timeline-clock" transform="translate(324 0) scale(1.5)" fill="#fff">
      <path d="M4 2V8H2V2H4M2 22V16H4V22H2M5 12C5 13.11 4.11 14 3 14C1.9 14 1 13.11 1 12C1 10.9 1.9 10 3 10C4.11 10 5 10.9 5 12M16 4C20.42 4 24 7.58 24 12C24 16.42 20.42 20 16 20C12.4 20 9.36 17.62 8.35 14.35L6 12L8.35 9.65C9.36 6.38 12.4 4 16 4M15 13L19.53 15.79L20.33 14.5L16.5 12.2V7H15V13Z" />
    </g>
    <g id="mdi-timeline-clock-outline" transform="translate(360 0) scale(1.5)" fill="#555">
      <path d="M4 2V8H2V2H4M2 22V16H4V22H2M5 12C5 13.11 4.11 14 3 14C1.9 14 1 13.11 1 12C1 10.9 1.9 10 3 10C4.11 10 5 10.9 5 12M16 4C20.42 4 24 7.58 24 12C24 16.42 20.42 20 16 20C12.4 20 9.36 17.62 8.35 14.35L6 12L8.35 9.65C9.36 6.38 12.4 4 16 4M16 6C12.69 6 10 8.69 10 12C10 15.31 12.69 18 16 18C19.31 18 22 15.31 22 12C22 8.69 19.31 6 16 6M15 13V8H16.5V12.2L19.5 14L18.68 15.26L15 13Z" />
    </g>
    <g id="mdi-timeline-clock-outline" transform="translate(396 0) scale(1.5)" fill="#fff">
      <path d="M4 2V8H2V2H4M2 22V16H4V22H2M5 12C5 13.11 4.11 14 3 14C1.9 14 1 13.11 1 12C1 10.9 1.9 10 3 10C4.11 10 5 10.9 5 12M16 4C20.42 4 24 7.58 24 12C24 16.42 20.42 20 16 20C12.4 20 9.36 17.62 8.35 14.35L6 12L8.35 9.65C9.36 6.38 12.4 4 16 4M16 6C12.69 6 10 8.69 10 12C10 15.31 12.69 18 16 18C19.31 18 22 15.31 22 12C22 8.69 19.31 6 16 6M15 13V8H16.5V12.2L19.5 14L18.68 15.26L15 13Z" />
    </g>
    <g id="mdi-timeline-help" transform="translate(432 0) scale(1.5)" fill="#555">
      <path d="M4 2V8H2V2H4M2 22V16H4V22H2M5 12C5 13.11 4.11 14 3 14C1.9 14 1 13.11 1 12C1 10.9 1.9 10 3 10C4.11 10 5 10.9 5 12M24 6V18C24 19.11 23.11 20 22 20H10C8.9 20 8 19.11 8 18V14L6 12L8 10V6C8 4.89 8.9 4 10 4H22C23.11 4 24 4.89 24 6M16.5 15.5H15V17H16.5V15.5M14.5 10.5V10C14.5 9.17 15.17 8.5 16 8.5C16.83 8.5 17.5 9.18 17.5 10C17.5 10.47 17.27 10.9 16.88 11.16L16.59 11.35C15.6 12 15 13.11 15 14.3V14.5H16.5V14.3C16.5 13.62 16.84 13 17.41 12.6L17.71 12.41C18.5 11.88 19 10.97 19 10C19 8.34 17.66 7 16 7C14.34 7 13 8.34 13 10V10.5H14.5Z" />
    </g>
    <g id="mdi-timeline-help" transform="translate(468 0) scale(1.5)" fill="#fff">
      <path d="M4 2V8H2V2H4M2 22V16H4V22H2M5 12C5 13.11 4.11 14 3 14C1.9 14 1 13.11 1 12C1 10.9 1.9 10 3 10C4.11 10 5 10.9 5 12M24 6V18C24 19.11 23.11 20 22 20H10C8.9 20 8 19.11 8 18V14L6 12L8 10V6C8 4.89 8.9 4 10 4H22C23.11 4 24 4.89 24 6M16.5 15.5H15V17H16.5V15.5M14.5 10.5V10C14.5 9.17 15.17 8.5 16 8.5C16.83 8.5 17.5 9.18 17.5 10C17.5 10.47 17.27 10.9 16.88 11.16L16.59 11.35C15.6 12 15 13.11 15 14.3V14.5H16.5V14.3C16.5 13.62 16.84 13 17.41 12.6L17.71 12.41C18.5 11.88 19 10.97 19 10C19 8.34 17.66 7 16 7C14.34 7 13 8.34 13 10V10.5H14.5Z" />
    </g>
    <g id="mdi-timeline-help-outline" transform="translate(504 0) scale(1.5)" fill="#555">
      <path d="M5 12C5 13.11 4.11 14 3 14C1.9 14 1 13.11 1 12C1 10.9 1.9 10 3 10C4.11 10 5 10.9 5 12M4 2V8H2V2H4M2 22V16H4V22H2M24 6V18C24 19.11 23.11 20 22 20H10C8.9 20 8 19.11 8 18V14L6 12L8 10V6C8 4.89 8.9 4 10 4H22C23.11 4 24 4.89 24 6M22 6H10V10.83L8.83 12L10 13.17V18H22V6M16.5 15.5V17H15V15.5H16.5M14.5 10.5H13V10C13 8.34 14.34 7 16 7C17.66 7 19 8.34 19 10C19 10.97 18.5 11.88 17.71 12.41L17.41 12.6C16.84 13 16.5 13.62 16.5 14.3V14.5H15V14.3C15 13.11 15.6 12 16.59 11.35L16.88 11.16C17.27 10.9 17.5 10.47 17.5 10C17.5 9.18 16.83 8.5 16 8.5C15.17 8.5 14.5 9.17 14.5 10V10.5Z" />
    </g>
    <g id="mdi-timeline-help-outline" transform="translate(540 0) scale(1.5)" fill="#fff">
      <path d="M5 12C5 13.11 4.11 14 3 14C1.9 14 1 13.11 1 12C1 10.9 1.9 10 3 10C4.11 10 5 10.9 5 12M4 2V8H2V2H4M2 22V16H4V22H2M24 6V18C24 19.11 23.11 20 22 20H10C8.9 20 8 19.11 8 18V14L6 12L8 10V6C8 4.89 8.9 4 10 4H22C23.11 4 24 4.89 24 6M22 6H10V10.83L8.83 12L10 13.17V18H22V6M16.5 15.5V17H15V15.5H16.5M14.5 10.5H13V10C13 8.34 14.34 7 16 7C17.66 7 19 8.34 19 10C19 10.97 18.5 11.88 17.71 12.41L17.41 12.6C16.84 13 16.5 13.62 16.5 14.3V14.5H15V14.3C15 13.11 15.6 12 16.59 11.35L16.88 11.16C17.27 10.9 17.5 10.47 17.5 10C17.5 9.18 16.83 8.5 16 8.5C15.17 8.5 14.5 9.17 14.5 10V10.5Z" />
    </g>
    <g id="mdi-timeline-outline" transform="translate(576 0) scale(1.5)" fill="#555">
      <path d="M4 2V8H2V2H4M2 22V16H4V22H2M5 12C5 13.11 4.11 14 3 14C1.9 14 1 13.11 1 12C1 10.9 1.9 10 3 10C4.11 10 5 10.9 5 12M24 6V18C24 19.11 23.11 20 22 20H10C8.9 20 8 19.11 8 18V14L6 12L8 10V6C8 4.89 8.9 4 10 4H22C23.11 4 24 4.89 24 6M10 6V18H22V6H10Z" />
    </g>
    <g id="mdi-timeline-outline" transform="translate(612 0) scale(1.5)" fill="#fff">
      <path d="M4 2V8H2V2H4M2 22V16H4V22H2M5 12C5 13.11 4.11 14 3 14C1.9 14 1 13.11 1 12C1 10.9 1.9 10 3 10C4.11 10 5 10.9 5 12M24 6V18C24 19.11 23.11 20 22 20H10C8.9 20 8 19.11 8 18V14L6 12L8 10V6C8 4.89 8.9 4 10 4H22C23.11 4 24 4.89 24 6M10 6V18H22V6H10Z" />
    </g>
    <g id="mdi-timeline-plus" transform="translate(648 0) scale(1.5)" fill="#555">
      <path d="M4 2V8H2V2H4M2 22V16H4V22H2M5 12C5 13.11 4.11 14 3 14C1.9 14 1 13.11 1 12C1 10.9 1.9 10 3 10C4.11 10 5 10.9 5 12M24 6V18C24 19.11 23.11 20 22 20H10C8.9 20 8 19.11 8 18V14L6 12L8 10V6C8 4.89 8.9 4 10 4H22C23.11 4 24 4.89 24 6M20 11H17V8H15V11H12V13H15V16H17V13H20V11Z" />
    </g>
    <g id="mdi-timeline-plus" transform="translate(684 0) scale(1.5)" fill="#fff">
      <path d="M4 2V8H2V2H4M2 22V16H4V22H2M5 12C5 13.11 4.11 14 3 14C1.9 14 1 13.11 1 12C1 10.9 1.9 10 3 10C4.11 10 5 10.9 5 12M24 6V18C24 19.11 23.11 20 22 20H10C8.9 20 8 19.11 8 18V14L6 12L8 10V6C8 4.89 8.9 4 10 4H22C23.11 4 24 4.89 24 6M20 11H17V8H15V11H12V13H15V16H17V13H20V11Z" />
    </g>
    <g id="mdi-timeline-plus-outline" transform="translate(0 36) scale(1.5)" fill="#555">
      <path d="M4 2V8H2V2H4M2 22V16H4V22H2M5 12C5 13.11 4.11 14 3 14C1.9 14 1 13.11 1 12C1 10.9 1.9 10 3 10C4.11 10 5 10.9 5 12M20 11V13H17V16H15V13H12V11H15V8H17V11H20M24 6V18C24 19.11 23.11 20 22 20H10C8.9 20 8 19.11 8 18V14L6 12L8 10V6C8 4.89 8.9 4 10 4H22C23.11 4 24 4.89 24 6M10 6V18H22V6H10Z" />
    </g>
    <g id="mdi-timeline-plus-outline" transform="translate(36 36) scale(1.5)" fill="#fff">
      <path d="M4 2V8H2V2H4M2 22V16H4V22H2M5 12C5 13.11 4.11 14 3 14C1.9 14 1 13.11 1 12C1 10.9 1.9 10 3 10C4.11 10 5 10.9 5 12M20 11V13H17V16H15V13H12V11H15V8H17V11H20M24 6V18C24 19.11 23.11 20 22 20H10C8.9 20 8 19.11 8 18V14L6 12L8 10V6C8 4.89 8.9 4 10 4H22C23.11 4 24 4.89 24 6M10 6V18H22V6H10Z" />
    </g>
    <g id="mdi-timeline-text" transform="translate(72 36) scale(1.5)" fill="#555">
      <path d="M4 2V8H2V2H4M2 22H4V16H2V22M5 12C5 10.9 4.11 10 3 10C1.9 10 1 10.9 1 12C1 13.11 1.9 14 3 14C4.11 14 5 13.11 5 12M24 6V18C24 19.11 23.11 20 22 20H10C8.9 20 8 19.11 8 18V14L6 12L8 10V6C8 4.89 8.9 4 10 4H22C23.11 4 24 4.89 24 6M19 13H11V15H19V13M21 9H11V11H21V9Z" />
    </g>
    <g id="mdi-timeline-text" transform="translate(108 36) scale(1.5)" fill="#fff">
      <path d="M4 2V8H2V2H4M2 22H4V16H2V22M5 12C5 10.9 4.11 10 3 10C1.9 10 1 10.9 1 12C1 13.11 1.9 14 3 14C4.11 14 5 13.11 5 12M24 6V18C24 19.11 23.11 20 22 20H10C8.9 20 8 19.11 8 18V14L6 12L8 10V6C8 4.89 8.9 4 10 4H22C23.11 4 24 4.89 24 6M19 13H11V15H19V13M21 9H11V11H21V9Z" />
    </g>
    <g id="mdi-timeline-text-outline" transform="translate(144 36) scale(1.5)" fill="#555">
      <path d="M5 12C5 13.11 4.11 14 3 14C1.9 14 1 13.11 1 12C1 10.9 1.9 10 3 10C4.11 10 5 10.9 5 12M4 2V8H2V2H4M2 22V16H4V22H2M24 6V18C24 19.11 23.11 20 22 20H10C8.9 20 8 19.11 8 18V14L6 12L8 10V6C8 4.89 8.9 4 10 4H22C23.11 4 24 4.89 24 6M22 6H10V10.83L8.83 12L10 13.17V18H22V6M12 9H20V11H12V9M12 13H18V15H12V13Z" />
    </g>
    <g id="mdi-timeline-text-outline" transform="translate(180 36) scale(1.5)" fill="#fff">
      <path d="M5 12C5 13.11 4.11 14 3 14C1.9 14 1 13.11 1 12C1 10.9 1.9 10 3 10C4.11 10 5 10.9 5 12M4 2V8H2V2H4M2 22V16H4V22H2M24 6V18C24 19.11 23.11 20 22 20H10C8.9 20 8 19.11 8 18V14L6 12L8 10V6C8 4.89 8.9 4 10 4H22C23.11 4 24 4.89 24 6M22 6H10V10.83L8.83 12L10 13.17V18H22V6M12 9H20V11H12V9M12 13H18V15H12V13Z" />
    </g>
    <g id="mdi-timer" transform="translate(216 36) scale(1.5)" fill="#555">
      <path d="M12,20A7,7 0 0,1 5,13A7,7 0 0,1 12,6A7,7 0 0,1 19,13A7,7 0 0,1 12,20M19.03,7.39L20.45,5.97C20,5.46 19.55,5 19.04,4.56L17.62,6C16.07,4.74 14.12,4 12,4A9,9 0 0,0 3,13A9,9 0 0,0 12,22C17,22 21,17.97 21,13C21,10.88 20.26,8.93 19.03,7.39M11,14H13V8H11M15,1H9V3H15V1Z" />
    </g>
    <g id="mdi-timer" transform="translate(252 36) scale(1.5)" fill="#fff">
      <path d="M12,20A7,7 0 0,1 5,13A7,7 0 0,1 12,6A7,7 0 0,1 19,13A7,7 0 0,1 12,20M19.03,7.39L20.45,5.97C20,5.46 19.55,5 19.04,4.56L17.62,6C16.07,4.74 14.12,4 12,4A9,9 0 0,0 3,13A9,9 0 0,0 12,22C17,22 21,17.97 21,13C21,10.88 20.26,8.93 19.03,7.39M11,14H13V8H11M15,1H9V3H15V1Z" />
    </g>
    <g id="mdi-timer-10" transform="translate(288 36) scale(1.5)" fill="#555">
      <path d="M12.9,13.22C12.9,13.82 12.86,14.33 12.78,14.75C12.7,15.17 12.58,15.5 12.42,15.77C12.26,16.03 12.06,16.22 11.83,16.34C11.6,16.46 11.32,16.5 11,16.5C10.71,16.5 10.43,16.46 10.19,16.34C9.95,16.22 9.75,16.03 9.59,15.77C9.43,15.5 9.3,15.17 9.21,14.75C9.12,14.33 9.08,13.82 9.08,13.22V10.72C9.08,10.12 9.12,9.61 9.21,9.2C9.3,8.79 9.42,8.46 9.59,8.2C9.75,7.95 9.95,7.77 10.19,7.65C10.43,7.54 10.7,7.5 11,7.5C11.31,7.5 11.58,7.54 11.81,7.65C12.05,7.76 12.25,7.94 12.41,8.2C12.57,8.45 12.7,8.78 12.78,9.19C12.86,9.6 12.91,10.11 12.91,10.71V13.22M13.82,7.05C13.5,6.65 13.07,6.35 12.59,6.17C12.12,6 11.58,5.9 11,5.9C10.42,5.9 9.89,6 9.41,6.17C8.93,6.35 8.5,6.64 8.18,7.05C7.84,7.46 7.58,8 7.39,8.64C7.21,9.29 7.11,10.09 7.11,11.03V12.95C7.11,13.89 7.2,14.69 7.39,15.34C7.58,16 7.84,16.53 8.19,16.94C8.53,17.35 8.94,17.65 9.42,17.83C9.9,18 10.43,18.11 11,18.11C11.6,18.11 12.13,18 12.6,17.83C13.08,17.65 13.5,17.35 13.82,16.94C14.16,16.53 14.42,16 14.6,15.34C14.78,14.69 14.88,13.89 14.88,12.95V11.03C14.88,10.09 14.79,9.29 14.6,8.64C14.42,8 14.16,7.45 13.82,7.05M23.78,14.37C23.64,14.09 23.43,13.84 23.15,13.63C22.87,13.42 22.54,13.24 22.14,13.1C21.74,12.96 21.29,12.83 20.79,12.72C20.44,12.65 20.15,12.57 19.92,12.5C19.69,12.41 19.5,12.33 19.37,12.24C19.23,12.15 19.14,12.05 19.09,11.94C19.04,11.83 19,11.7 19,11.55C19,11.41 19.04,11.27 19.1,11.14C19.16,11 19.25,10.89 19.37,10.8C19.5,10.7 19.64,10.62 19.82,10.56C20,10.5 20.22,10.47 20.46,10.47C20.71,10.47 20.93,10.5 21.12,10.58C21.31,10.65 21.47,10.75 21.6,10.87C21.73,11 21.82,11.13 21.89,11.29C21.95,11.45 22,11.61 22,11.78H23.94C23.94,11.39 23.86,11.03 23.7,10.69C23.54,10.35 23.31,10.06 23,9.81C22.71,9.56 22.35,9.37 21.92,9.22C21.5,9.07 21,9 20.46,9C19.95,9 19.5,9.07 19.07,9.21C18.66,9.35 18.3,9.54 18,9.78C17.72,10 17.5,10.3 17.34,10.62C17.18,10.94 17.11,11.27 17.11,11.63C17.11,12 17.19,12.32 17.34,12.59C17.5,12.87 17.7,13.11 18,13.32C18.25,13.53 18.58,13.7 18.96,13.85C19.34,14 19.77,14.11 20.23,14.21C20.62,14.29 20.94,14.38 21.18,14.47C21.42,14.56 21.61,14.66 21.75,14.76C21.88,14.86 21.97,15 22,15.1C22.07,15.22 22.09,15.35 22.09,15.5C22.09,15.81 21.96,16.06 21.69,16.26C21.42,16.46 21.03,16.55 20.5,16.55C20.3,16.55 20.09,16.53 19.88,16.47C19.67,16.42 19.5,16.34 19.32,16.23C19.15,16.12 19,15.97 18.91,15.79C18.8,15.61 18.74,15.38 18.73,15.12H16.84C16.84,15.5 16.92,15.83 17.08,16.17C17.24,16.5 17.47,16.82 17.78,17.1C18.09,17.37 18.47,17.59 18.93,17.76C19.39,17.93 19.91,18 20.5,18C21.04,18 21.5,17.95 21.95,17.82C22.38,17.69 22.75,17.5 23.06,17.28C23.37,17.05 23.6,16.77 23.77,16.45C23.94,16.13 24,15.78 24,15.39C24,15 23.93,14.65 23.78,14.37M0,7.72V9.4L3,8.4V18H5V6H4.75L0,7.72Z" />
    </g>
    <g id="mdi-timer-10" transform="translate(324 36) scale(1.5)" fill="#fff">
      <path d="M12.9,13.22C12.9,13.82 12.86,14.33 12.78,14.75C12.7,15.17 12.58,15.5 12.42,15.77C12.26,16.03 12.06,16.22 11.83,16.34C11.6,16.46 11.32,16.5 11,16.5C10.71,16.5 10.43,16.46 10.19,16.34C9.95,16.22 9.75,16.03 9.59,15.77C9.43,15.5 9.3,15.17 9.21,14.75C9.12,14.33 9.08,13.82 9.08,13.22V10.72C9.08,10.12 9.12,9.61 9.21,9.2C9.3,8.79 9.42,8.46 9.59,8.2C9.75,7.95 9.95,7.77 10.19,7.65C10.43,7.54 10.7,7.5 11,7.5C11.31,7.5 11.58,7.54 11.81,7.65C12.05,7.76 12.25,7.94 12.41,8.2C12.57,8.45 12.7,8.78 12.78,9.19C12.86,9.6 12.91,10.11 12.91,10.71V13.22M13.82,7.05C13.5,6.65 13.07,6.35 12.59,6.17C12.12,6 11.58,5.9 11,5.9C10.42,5.9 9.89,6 9.41,6.17C8.93,6.35 8.5,6.64 8.18,7.05C7.84,7.46 7.58,8 7.39,8.64C7.21,9.29 7.11,10.09 7.11,11.03V12.95C7.11,13.89 7.2,14.69 7.39,15.34C7.58,16 7.84,16.53 8.19,16.94C8.53,17.35 8.94,17.65 9.42,17.83C9.9,18 10.43,18.11 11,18.11C11.6,18.11 12.13,18 12.6,17.83C13.08,17.65 13.5,17.35 13.82,16.94C14.16,16.53 14.42,16 14.6,15.34C14.78,14.69 14.88,13.89 14.88,12.95V11.03C14.88,10.09 14.79,9.29 14.6,8.64C14.42,8 14.16,7.45 13.82,7.05M23.78,14.37C23.64,14.09 23.43,13.84 23.15,13.63C22.87,13.42 22.54,13.24 22.14,13.1C21.74,12.96 21.29,12.83 20.79,12.72C20.44,12.65 20.15,12.57 19.92,12.5C19.69,12.41 19.5,12.33 19.37,12.24C19.23,12.15 19.14,12.05 19.09,11.94C19.04,11.83 19,11.7 19,11.55C19,11.41 19.04,11.27 19.1,11.14C19.16,11 19.25,10.89 19.37,10.8C19.5,10.7 19.64,10.62 19.82,10.56C20,10.5 20.22,10.47 20.46,10.47C20.71,10.47 20.93,10.5 21.12,10.58C21.31,10.65 21.47,10.75 21.6,10.87C21.73,11 21.82,11.13 21.89,11.29C21.95,11.45 22,11.61 22,11.78H23.94C23.94,11.39 23.86,11.03 23.7,10.69C23.54,10.35 23.31,10.06 23,9.81C22.71,9.56 22.35,9.37 21.92,9.22C21.5,9.07 21,9 20.46,9C19.95,9 19.5,9.07 19.07,9.21C18.66,9.35 18.3,9.54 18,9.78C17.72,10 17.5,10.3 17.34,10.62C17.18,10.94 17.11,11.27 17.11,11.63C17.11,12 17.19,12.32 17.34,12.59C17.5,12.87 17.7,13.11 18,13.32C18.25,13.53 18.58,13.7 18.96,13.85C19.34,14 19.77,14.11 20.23,14.21C20.62,14.29 20.94,14.38 21.18,14.47C21.42,14.56 21.61,14.66 21.75,14.76C21.88,14.86 21.97,15 22,15.1C22.07,15.22 22.09,15.35 22.09,15.5C22.09,15.81 21.96,16.06 21.69,16.26C21.42,16.46 21.03,16.55 20.5,16.55C20.3,16.55 20.09,16.53 19.88,16.47C19.67,16.42 19.5,16.34 19.32,16.23C19.15,16.12 19,15.97 18.91,15.79C18.8,15.61 18.74,15.38 18.73,15.12H16.84C16.84,15.5 16.92,15.83 17.08,16.17C17.24,16.5 17.47,16.82 17.78,17.1C18.09,17.37 18.47,17.59 18.93,17.76C19.39,17.93 19.91,18 20.5,18C21.04,18 21.5,17.95 21.95,17.82C22.38,17.69 22.75,17.5 23.06,17.28C23.37,17.05 23.6,16.77 23.77,16.45C23.94,16.13 24,15.78 24,15.39C24,15 23.93,14.65 23.78,14.37M0,7.72V9.4L3,8.4V18H5V6H4.75L0,7.72Z" />
    </g>
    <g id="mdi-timer-3" transform="translate(360 36) scale(1.5)" fill="#555">
      <path d="M20.87,14.37C20.73,14.09 20.5,13.84 20.24,13.63C19.96,13.42 19.63,13.24 19.23,13.1C18.83,12.96 18.38,12.83 17.88,12.72C17.53,12.65 17.24,12.57 17,12.5C16.78,12.41 16.6,12.33 16.46,12.24C16.32,12.15 16.23,12.05 16.18,11.94C16.13,11.83 16.1,11.7 16.1,11.55C16.1,11.4 16.13,11.27 16.19,11.14C16.25,11 16.34,10.89 16.46,10.8C16.58,10.7 16.73,10.62 16.91,10.56C17.09,10.5 17.31,10.47 17.55,10.47C17.8,10.47 18,10.5 18.21,10.58C18.4,10.65 18.56,10.75 18.69,10.87C18.82,11 18.91,11.13 19,11.29C19.04,11.45 19.08,11.61 19.08,11.78H21.03C21.03,11.39 20.95,11.03 20.79,10.69C20.63,10.35 20.4,10.06 20.1,9.81C19.8,9.56 19.44,9.37 19,9.22C18.58,9.07 18.09,9 17.55,9C17.04,9 16.57,9.07 16.16,9.21C15.75,9.35 15.39,9.54 15.1,9.78C14.81,10 14.59,10.3 14.43,10.62C14.27,10.94 14.2,11.27 14.2,11.63C14.2,12 14.28,12.31 14.43,12.59C14.58,12.87 14.8,13.11 15.07,13.32C15.34,13.53 15.67,13.7 16.05,13.85C16.43,14 16.86,14.11 17.32,14.21C17.71,14.29 18.03,14.38 18.27,14.47C18.5,14.56 18.7,14.66 18.84,14.76C18.97,14.86 19.06,15 19.11,15.1C19.16,15.22 19.18,15.35 19.18,15.5C19.18,15.81 19.05,16.06 18.78,16.26C18.5,16.46 18.12,16.55 17.61,16.55C17.39,16.55 17.18,16.53 16.97,16.47C16.76,16.42 16.57,16.34 16.41,16.23C16.24,16.12 16.11,15.97 16,15.79C15.89,15.61 15.83,15.38 15.82,15.12H13.93C13.93,15.5 14,15.83 14.17,16.17C14.33,16.5 14.56,16.82 14.87,17.1C15.18,17.37 15.56,17.59 16,17.76C16.5,17.93 17,18 17.6,18C18.13,18 18.61,17.95 19.04,17.82C19.47,17.69 19.84,17.5 20.15,17.28C20.46,17.05 20.69,16.77 20.86,16.45C21.03,16.13 21.11,15.78 21.11,15.39C21.09,15 21,14.65 20.87,14.37M11.61,12.97C11.45,12.73 11.25,12.5 11,12.32C10.74,12.13 10.43,11.97 10.06,11.84C10.36,11.7 10.63,11.54 10.86,11.34C11.09,11.14 11.28,10.93 11.43,10.7C11.58,10.47 11.7,10.24 11.77,10C11.85,9.75 11.88,9.5 11.88,9.26C11.88,8.71 11.79,8.22 11.6,7.8C11.42,7.38 11.16,7.03 10.82,6.74C10.5,6.46 10.09,6.24 9.62,6.1C9.17,5.97 8.65,5.9 8.09,5.9C7.54,5.9 7.03,6 6.57,6.14C6.1,6.31 5.7,6.54 5.37,6.83C5.04,7.12 4.77,7.46 4.59,7.86C4.39,8.25 4.3,8.69 4.3,9.15H6.28C6.28,8.89 6.33,8.66 6.42,8.46C6.5,8.26 6.64,8.08 6.8,7.94C6.97,7.8 7.16,7.69 7.38,7.61C7.6,7.53 7.84,7.5 8.11,7.5C8.72,7.5 9.17,7.65 9.47,7.96C9.77,8.27 9.91,8.71 9.91,9.28C9.91,9.55 9.87,9.8 9.79,10C9.71,10.24 9.58,10.43 9.41,10.59C9.24,10.75 9.03,10.87 8.78,10.96C8.53,11.05 8.23,11.09 7.89,11.09H6.72V12.66H7.9C8.24,12.66 8.54,12.7 8.81,12.77C9.08,12.85 9.31,12.96 9.5,13.12C9.69,13.28 9.84,13.5 9.94,13.73C10.04,13.97 10.1,14.27 10.1,14.6C10.1,15.22 9.92,15.69 9.57,16C9.22,16.35 8.73,16.5 8.12,16.5C7.83,16.5 7.56,16.47 7.32,16.38C7.08,16.3 6.88,16.18 6.71,16C6.54,15.86 6.41,15.68 6.32,15.46C6.23,15.24 6.18,15 6.18,14.74H4.19C4.19,15.29 4.3,15.77 4.5,16.19C4.72,16.61 5,16.96 5.37,17.24C5.73,17.5 6.14,17.73 6.61,17.87C7.08,18 7.57,18.08 8.09,18.08C8.66,18.08 9.18,18 9.67,17.85C10.16,17.7 10.58,17.47 10.93,17.17C11.29,16.87 11.57,16.5 11.77,16.07C11.97,15.64 12.07,15.14 12.07,14.59C12.07,14.3 12.03,14 11.96,13.73C11.88,13.5 11.77,13.22 11.61,12.97Z" />
    </g>
    <g id="mdi-timer-3" transform="translate(396 36) scale(1.5)" fill="#fff">
      <path d="M20.87,14.37C20.73,14.09 20.5,13.84 20.24,13.63C19.96,13.42 19.63,13.24 19.23,13.1C18.83,12.96 18.38,12.83 17.88,12.72C17.53,12.65 17.24,12.57 17,12.5C16.78,12.41 16.6,12.33 16.46,12.24C16.32,12.15 16.23,12.05 16.18,11.94C16.13,11.83 16.1,11.7 16.1,11.55C16.1,11.4 16.13,11.27 16.19,11.14C16.25,11 16.34,10.89 16.46,10.8C16.58,10.7 16.73,10.62 16.91,10.56C17.09,10.5 17.31,10.47 17.55,10.47C17.8,10.47 18,10.5 18.21,10.58C18.4,10.65 18.56,10.75 18.69,10.87C18.82,11 18.91,11.13 19,11.29C19.04,11.45 19.08,11.61 19.08,11.78H21.03C21.03,11.39 20.95,11.03 20.79,10.69C20.63,10.35 20.4,10.06 20.1,9.81C19.8,9.56 19.44,9.37 19,9.22C18.58,9.07 18.09,9 17.55,9C17.04,9 16.57,9.07 16.16,9.21C15.75,9.35 15.39,9.54 15.1,9.78C14.81,10 14.59,10.3 14.43,10.62C14.27,10.94 14.2,11.27 14.2,11.63C14.2,12 14.28,12.31 14.43,12.59C14.58,12.87 14.8,13.11 15.07,13.32C15.34,13.53 15.67,13.7 16.05,13.85C16.43,14 16.86,14.11 17.32,14.21C17.71,14.29 18.03,14.38 18.27,14.47C18.5,14.56 18.7,14.66 18.84,14.76C18.97,14.86 19.06,15 19.11,15.1C19.16,15.22 19.18,15.35 19.18,15.5C19.18,15.81 19.05,16.06 18.78,16.26C18.5,16.46 18.12,16.55 17.61,16.55C17.39,16.55 17.18,16.53 16.97,16.47C16.76,16.42 16.57,16.34 16.41,16.23C16.24,16.12 16.11,15.97 16,15.79C15.89,15.61 15.83,15.38 15.82,15.12H13.93C13.93,15.5 14,15.83 14.17,16.17C14.33,16.5 14.56,16.82 14.87,17.1C15.18,17.37 15.56,17.59 16,17.76C16.5,17.93 17,18 17.6,18C18.13,18 18.61,17.95 19.04,17.82C19.47,17.69 19.84,17.5 20.15,17.28C20.46,17.05 20.69,16.77 20.86,16.45C21.03,16.13 21.11,15.78 21.11,15.39C21.09,15 21,14.65 20.87,14.37M11.61,12.97C11.45,12.73 11.25,12.5 11,12.32C10.74,12.13 10.43,11.97 10.06,11.84C10.36,11.7 10.63,11.54 10.86,11.34C11.09,11.14 11.28,10.93 11.43,10.7C11.58,10.47 11.7,10.24 11.77,10C11.85,9.75 11.88,9.5 11.88,9.26C11.88,8.71 11.79,8.22 11.6,7.8C11.42,7.38 11.16,7.03 10.82,6.74C10.5,6.46 10.09,6.24 9.62,6.1C9.17,5.97 8.65,5.9 8.09,5.9C7.54,5.9 7.03,6 6.57,6.14C6.1,6.31 5.7,6.54 5.37,6.83C5.04,7.12 4.77,7.46 4.59,7.86C4.39,8.25 4.3,8.69 4.3,9.15H6.28C6.28,8.89 6.33,8.66 6.42,8.46C6.5,8.26 6.64,8.08 6.8,7.94C6.97,7.8 7.16,7.69 7.38,7.61C7.6,7.53 7.84,7.5 8.11,7.5C8.72,7.5 9.17,7.65 9.47,7.96C9.77,8.27 9.91,8.71 9.91,9.28C9.91,9.55 9.87,9.8 9.79,10C9.71,10.24 9.58,10.43 9.41,10.59C9.24,10.75 9.03,10.87 8.78,10.96C8.53,11.05 8.23,11.09 7.89,11.09H6.72V12.66H7.9C8.24,12.66 8.54,12.7 8.81,12.77C9.08,12.85 9.31,12.96 9.5,13.12C9.69,13.28 9.84,13.5 9.94,13.73C10.04,13.97 10.1,14.27 10.1,14.6C10.1,15.22 9.92,15.69 9.57,16C9.22,16.35 8.73,16.5 8.12,16.5C7.83,16.5 7.56,16.47 7.32,16.38C7.08,16.3 6.88,16.18 6.71,16C6.54,15.86 6.41,15.68 6.32,15.46C6.23,15.24 6.18,15 6.18,14.74H4.19C4.19,15.29 4.3,15.77 4.5,16.19C4.72,16.61 5,16.96 5.37,17.24C5.73,17.5 6.14,17.73 6.61,17.87C7.08,18 7.57,18.08 8.09,18.08C8.66,18.08 9.18,18 9.67,17.85C10.16,17.7 10.58,17.47 10.93,17.17C11.29,16.87 11.57,16.5 11.77,16.07C11.97,15.64 12.07,15.14 12.07,14.59C12.07,14.3 12.03,14 11.96,13.73C11.88,13.5 11.77,13.22 11.61,12.97Z" />
    </g>
    <g id="mdi-timer-off" transform="translate(432 36) scale(1.5)" fill="#555">
      <path d="M12,20A7,7 0 0,1 5,13C5,11.72 5.35,10.5 5.95,9.5L15.5,19.04C14.5,19.65 13.28,20 12,20M3,4L1.75,5.27L4.5,8.03C3.55,9.45 3,11.16 3,13A9,9 0 0,0 12,22C13.84,22 15.55,21.45 17,20.5L19.5,23L20.75,21.73L13.04,14L3,4M11,9.44L13,11.44V8H11M15,1H9V3H15M19.04,4.55L17.62,5.97C16.07,4.74 14.12,4 12,4C10.17,4 8.47,4.55 7.05,5.5L8.5,6.94C9.53,6.35 10.73,6 12,6A7,7 0 0,1 19,13C19,14.27 18.65,15.47 18.06,16.5L19.5,17.94C20.45,16.53 21,14.83 21,13C21,10.88 20.26,8.93 19.03,7.39L20.45,5.97L19.04,4.55Z" />
    </g>
    <g id="mdi-timer-off" transform="translate(468 36) scale(1.5)" fill="#fff">
      <path d="M12,20A7,7 0 0,1 5,13C5,11.72 5.35,10.5 5.95,9.5L15.5,19.04C14.5,19.65 13.28,20 12,20M3,4L1.75,5.27L4.5,8.03C3.55,9.45 3,11.16 3,13A9,9 0 0,0 12,22C13.84,22 15.55,21.45 17,20.5L19.5,23L20.75,21.73L13.04,14L3,4M11,9.44L13,11.44V8H11M15,1H9V3H15M19.04,4.55L17.62,5.97C16.07,4.74 14.12,4 12,4C10.17,4 8.47,4.55 7.05,5.5L8.5,6.94C9.53,6.35 10.73,6 12,6A7,7 0 0,1 19,13C19,14.27 18.65,15.47 18.06,16.5L19.5,17.94C20.45,16.53 21,14.83 21,13C21,10.88 20.26,8.93 19.03,7.39L20.45,5.97L19.04,4.55Z" />
    </g>
    <g id="mdi-timer-sand" transform="translate(504 36) scale(1.5)" fill="#555">
      <path d="M6,2H18V8H18V8L14,12L18,16V16H18V22H6V16H6V16L10,12L6,8V8H6V2M16,16.5L12,12.5L8,16.5V20H16V16.5M12,11.5L16,7.5V4H8V7.5L12,11.5M10,6H14V6.75L12,8.75L10,6.75V6Z" />
    </g>
    <g id="mdi-timer-sand" transform="translate(540 36) scale(1.5)" fill="#fff">
      <path d="M6,2H18V8H18V8L14,12L18,16V16H18V22H6V16H6V16L10,12L6,8V8H6V2M16,16.5L12,12.5L8,16.5V20H16V16.5M12,11.5L16,7.5V4H8V7.5L12,11.5M10,6H14V6.75L12,8.75L10,6.75V6Z" />
    </g>
    <g id="mdi-timer-sand-empty" transform="translate(576 36) scale(1.5)" fill="#555">
      <path d="M6,2V8H6V8L10,12L6,16V16H6V22H18V16H18V16L14,12L18,8V8H18V2H6M16,16.5V20H8V16.5L12,12.5L16,16.5M12,11.5L8,7.5V4H16V7.5L12,11.5Z" />
    </g>
    <g id="mdi-timer-sand-empty" transform="translate(612 36) scale(1.5)" fill="#fff">
      <path d="M6,2V8H6V8L10,12L6,16V16H6V22H18V16H18V16L14,12L18,8V8H18V2H6M16,16.5V20H8V16.5L12,12.5L16,16.5M12,11.5L8,7.5V4H16V7.5L12,11.5Z" />
    </g>
    <g id="mdi-timer-sand-full" transform="translate(648 36) scale(1.5)" fill="#555">
      <path d="M6,2V8H6V8L10,12L6,16V16H6V22H18V16H18V16L14,12L18,8V8H18V2H6Z" />
    </g>
    <g id="mdi-timer-sand-full" transform="translate(684 36) scale(1.5)" fill="#fff">
      <path d="M6,2V8H6V8L10,12L6,16V16H6V22H18V16H18V16L14,12L18,8V8H18V2H6Z" />
    </g>
    <g id="mdi-timetable" transform="translate(0 72) scale(1.5)" fill="#555">
      <path d="M14,12H15.5V14.82L17.94,16.23L17.19,17.53L14,15.69V12M4,2H18A2,2 0 0,1 20,4V10.1C21.24,11.36 22,13.09 22,15A7,7 0 0,1 15,22C13.09,22 11.36,21.24 10.1,20H4A2,2 0 0,1 2,18V4A2,2 0 0,1 4,2M4,15V18H8.67C8.24,17.09 8,16.07 8,15H4M4,8H10V5H4V8M18,8V5H12V8H18M4,13H8.29C8.63,11.85 9.26,10.82 10.1,10H4V13M15,10.15A4.85,4.85 0 0,0 10.15,15C10.15,17.68 12.32,19.85 15,19.85A4.85,4.85 0 0,0 19.85,15C19.85,12.32 17.68,10.15 15,10.15Z" />
    </g>
    <g id="mdi-timetable" transform="translate(36 72) scale(1.5)" fill="#fff">
      <path d="M14,12H15.5V14.82L17.94,16.23L17.19,17.53L14,15.69V12M4,2H18A2,2 0 0,1 20,4V10.1C21.24,11.36 22,13.09 22,15A7,7 0 0,1 15,22C13.09,22 11.36,21.24 10.1,20H4A2,2 0 0,1 2,18V4A2,2 0 0,1 4,2M4,15V18H8.67C8.24,17.09 8,16.07 8,15H4M4,8H10V5H4V8M18,8V5H12V8H18M4,13H8.29C8.63,11.85 9.26,10.82 10.1,10H4V13M15,10.15A4.85,4.85 0 0,0 10.15,15C10.15,17.68 12.32,19.85 15,19.85A4.85,4.85 0 0,0 19.85,15C19.85,12.32 17.68,10.15 15,10.15Z" />
    </g>
    <g id="mdi-toaster" transform="translate(72 72) scale(1.5)" fill="#555">
      <path d="M21 11A2 2 0 0 0 19 9H5A2 2 0 0 0 3 11H2V13H3V20H21V13H22V11M17 15A2 2 0 1 1 19 13A2 2 0 0 1 17 15M18 8H6C6.33 5.75 8.88 4 12 4S17.63 5.75 18 8Z" />
    </g>
    <g id="mdi-toaster" transform="translate(108 72) scale(1.5)" fill="#fff">
      <path d="M21 11A2 2 0 0 0 19 9H5A2 2 0 0 0 3 11H2V13H3V20H21V13H22V11M17 15A2 2 0 1 1 19 13A2 2 0 0 1 17 15M18 8H6C6.33 5.75 8.88 4 12 4S17.63 5.75 18 8Z" />
    </g>
    <g id="mdi-toaster-off" transform="translate(144 72) scale(1.5)" fill="#555">
      <path d="M20.8 22.7L18.1 20H3V13H2V11H3C3 9.9 3.9 9 5 9H7.1L1.1 3L2.4 1.7L22.1 21.4L20.8 22.7M15.3 12.1C15.6 11.5 16.3 11 17 11C18.1 11 19 11.9 19 13C19 13.8 18.6 14.4 17.9 14.7L21 17.8V13H22V11H21C21 9.9 20.1 9 19 9H12.2L15.3 12.1M18 8C17.6 5.8 15.1 4 12 4C10.6 4 9.2 4.4 8.2 5L11.2 8H18Z" />
    </g>
    <g id="mdi-toaster-off" transform="translate(180 72) scale(1.5)" fill="#fff">
      <path d="M20.8 22.7L18.1 20H3V13H2V11H3C3 9.9 3.9 9 5 9H7.1L1.1 3L2.4 1.7L22.1 21.4L20.8 22.7M15.3 12.1C15.6 11.5 16.3 11 17 11C18.1 11 19 11.9 19 13C19 13.8 18.6 14.4 17.9 14.7L21 17.8V13H22V11H21C21 9.9 20.1 9 19 9H12.2L15.3 12.1M18 8C17.6 5.8 15.1 4 12 4C10.6 4 9.2 4.4 8.2 5L11.2 8H18Z" />
    </g>
    <g id="mdi-toaster-oven" transform="translate(216 72) scale(1.5)" fill="#555">
      <path d="M4,5A2,2 0 0,0 2,7V17A2,2 0 0,0 4,19H20A2,2 0 0,0 22,17V7A2,2 0 0,0 20,5H4M4,7H16V17H4V7M19,7A1,1 0 0,1 20,8A1,1 0 0,1 19,9A1,1 0 0,1 18,8A1,1 0 0,1 19,7M6,9V11H14V9H6M19,11A1,1 0 0,1 20,12A1,1 0 0,1 19,13A1,1 0 0,1 18,12A1,1 0 0,1 19,11Z" />
    </g>
    <g id="mdi-toaster-oven" transform="translate(252 72) scale(1.5)" fill="#fff">
      <path d="M4,5A2,2 0 0,0 2,7V17A2,2 0 0,0 4,19H20A2,2 0 0,0 22,17V7A2,2 0 0,0 20,5H4M4,7H16V17H4V7M19,7A1,1 0 0,1 20,8A1,1 0 0,1 19,9A1,1 0 0,1 18,8A1,1 0 0,1 19,7M6,9V11H14V9H6M19,11A1,1 0 0,1 20,12A1,1 0 0,1 19,13A1,1 0 0,1 18,12A1,1 0 0,1 19,11Z" />
    </g>
    <g id="mdi-toggle-switch" transform="translate(288 72) scale(1.5)" fill="#555">
      <path d="M17,7H7A5,5 0 0,0 2,12A5,5 0 0,0 7,17H17A5,5 0 0,0 22,12A5,5 0 0,0 17,7M17,15A3,3 0 0,1 14,12A3,3 0 0,1 17,9A3,3 0 0,1 20,12A3,3 0 0,1 17,15Z" />
    </g>
    <g id="mdi-toggle-switch" transform="translate(324 72) scale(1.5)" fill="#fff">
      <path d="M17,7H7A5,5 0 0,0 2,12A5,5 0 0,0 7,17H17A5,5 0 0,0 22,12A5,5 0 0,0 17,7M17,15A3,3 0 0,1 14,12A3,3 0 0,1 17,9A3,3 0 0,1 20,12A3,3 0 0,1 17,15Z" />
    </g>
    <g id="mdi-toggle-switch-off" transform="translate(360 72) scale(1.5)" fill="#555">
      <path d="M17,7H7A5,5 0 0,0 2,12A5,5 0 0,0 7,17H17A5,5 0 0,0 22,12A5,5 0 0,0 17,7M7,15A3,3 0 0,1 4,12A3,3 0 0,1 7,9A3,3 0 0,1 10,12A3,3 0 0,1 7,15Z" />
    </g>
    <g id="mdi-toggle-switch-off" transform="translate(396 72) scale(1.5)" fill="#fff">
      <path d="M17,7H7A5,5 0 0,0 2,12A5,5 0 0,0 7,17H17A5,5 0 0,0 22,12A5,5 0 0,0 17,7M7,15A3,3 0 0,1 4,12A3,3 0 0,1 7,9A3,3 0 0,1 10,12A3,3 0 0,1 7,15Z" />
    </g>
    <g id="mdi-toggle-switch-off-outline" transform="translate(432 72) scale(1.5)" fill="#555">
      <path d="M7,10A2,2 0 0,1 9,12A2,2 0 0,1 7,14A2,2 0 0,1 5,12A2,2 0 0,1 7,10M17,7A5,5 0 0,1 22,12A5,5 0 0,1 17,17H7A5,5 0 0,1 2,12A5,5 0 0,1 7,7H17M7,9A3,3 0 0,0 4,12A3,3 0 0,0 7,15H17A3,3 0 0,0 20,12A3,3 0 0,0 17,9H7Z" />
    </g>
    <g id="mdi-toggle-switch-off-outline" transform="translate(468 72) scale(1.5)" fill="#fff">
      <path d="M7,10A2,2 0 0,1 9,12A2,2 0 0,1 7,14A2,2 0 0,1 5,12A2,2 0 0,1 7,10M17,7A5,5 0 0,1 22,12A5,5 0 0,1 17,17H7A5,5 0 0,1 2,12A5,5 0 0,1 7,7H17M7,9A3,3 0 0,0 4,12A3,3 0 0,0 7,15H17A3,3 0 0,0 20,12A3,3 0 0,0 17,9H7Z" />
    </g>
    <g id="mdi-toggle-switch-outline" transform="translate(504 72) scale(1.5)" fill="#555">
      <path d="M17,10A2,2 0 0,1 19,12A2,2 0 0,1 17,14A2,2 0 0,1 15,12A2,2 0 0,1 17,10M17,7A5,5 0 0,1 22,12A5,5 0 0,1 17,17H7A5,5 0 0,1 2,12A5,5 0 0,1 7,7H17M7,9A3,3 0 0,0 4,12A3,3 0 0,0 7,15H17A3,3 0 0,0 20,12A3,3 0 0,0 17,9H7Z" />
    </g>
    <g id="mdi-toggle-switch-outline" transform="translate(540 72) scale(1.5)" fill="#fff">
      <path d="M17,10A2,2 0 0,1 19,12A2,2 0 0,1 17,14A2,2 0 0,1 15,12A2,2 0 0,1 17,10M17,7A5,5 0 0,1 22,12A5,5 0 0,1 17,17H7A5,5 0 0,1 2,12A5,5 0 0,1 7,7H17M7,9A3,3 0 0,0 4,12A3,3 0 0,0 7,15H17A3,3 0 0,0 20,12A3,3 0 0,0 17,9H7Z" />
    </g>
    <g id="mdi-toilet" transform="translate(576 72) scale(1.5)" fill="#555">
      <path d="M9,22H17V19.5C19.41,17.87 21,15.12 21,12V4A2,2 0 0,0 19,2H15C13.89,2 13,2.9 13,4V12H3C3,15.09 5,18 9,19.5V22M5.29,14H18.71C18.14,15.91 16.77,17.5 15,18.33V20H11V18.33C9,18 5.86,15.91 5.29,14M15,4H19V12H15V4M16,5V8H18V5H16Z" />
    </g>
    <g id="mdi-toilet" transform="translate(612 72) scale(1.5)" fill="#fff">
      <path d="M9,22H17V19.5C19.41,17.87 21,15.12 21,12V4A2,2 0 0,0 19,2H15C13.89,2 13,2.9 13,4V12H3C3,15.09 5,18 9,19.5V22M5.29,14H18.71C18.14,15.91 16.77,17.5 15,18.33V20H11V18.33C9,18 5.86,15.91 5.29,14M15,4H19V12H15V4M16,5V8H18V5H16Z" />
    </g>
    <g id="mdi-toolbox" transform="translate(648 72) scale(1.5)" fill="#555">
      <path d="M9,5V6H15V5H9M22,18C22,18.53 21.79,19 21.4,19.41C21,19.81 20.55,20 20,20H4C3.45,20 3,19.81 2.6,19.41C2.21,19 2,18.53 2,18V14H7V15H9V14H15V15H17V14H22V18M4.5,7.22C4.84,6.41 5.45,6 6.33,6H7V5C7,4.45 7.18,4 7.57,3.59C7.96,3.2 8.44,3 9,3H15C15.56,3 16.04,3.2 16.43,3.59C16.82,4 17,4.45 17,5V6H17.67C18.55,6 19.16,6.41 19.5,7.22L21.58,12H17V11H15V12H9V11H7V12H2.42L4.5,7.22Z" />
    </g>
    <g id="mdi-toolbox" transform="translate(684 72) scale(1.5)" fill="#fff">
      <path d="M9,5V6H15V5H9M22,18C22,18.53 21.79,19 21.4,19.41C21,19.81 20.55,20 20,20H4C3.45,20 3,19.81 2.6,19.41C2.21,19 2,18.53 2,18V14H7V15H9V14H15V15H17V14H22V18M4.5,7.22C4.84,6.41 5.45,6 6.33,6H7V5C7,4.45 7.18,4 7.57,3.59C7.96,3.2 8.44,3 9,3H15C15.56,3 16.04,3.2 16.43,3.59C16.82,4 17,4.45 17,5V6H17.67C18.55,6 19.16,6.41 19.5,7.22L21.58,12H17V11H15V12H9V11H7V12H2.42L4.5,7.22Z" />
    </g>
    <g id="mdi-toolbox-outline" transform="translate(0 108) scale(1.5)" fill="#555">
      <path d="M20,18V14H17V15H15V14H9V15H7V14H4V18H20M6.33,8L4.59,12H7V11H9V12H15V11H17V12H19.41L17.67,8H6.33M9,5V6H15V5H9M21.84,12.61C21.94,12.83 22,13.09 22,13.41V18C22,18.53 21.79,19 21.4,19.41C21,19.81 20.55,20 20,20H4C3.45,20 3,19.81 2.6,19.41C2.21,19 2,18.53 2,18V13.41C2,13.09 2.06,12.83 2.16,12.61L4.5,7.22C4.84,6.41 5.45,6 6.33,6H7V5C7,4.45 7.18,4 7.57,3.59C7.96,3.2 8.44,3 9,3H15C15.56,3 16.04,3.2 16.43,3.59C16.82,4 17,4.45 17,5V6H17.67C18.55,6 19.16,6.41 19.5,7.22L21.84,12.61Z" />
    </g>
    <g id="mdi-toolbox-outline" transform="translate(36 108) scale(1.5)" fill="#fff">
      <path d="M20,18V14H17V15H15V14H9V15H7V14H4V18H20M6.33,8L4.59,12H7V11H9V12H15V11H17V12H19.41L17.67,8H6.33M9,5V6H15V5H9M21.84,12.61C21.94,12.83 22,13.09 22,13.41V18C22,18.53 21.79,19 21.4,19.41C21,19.81 20.55,20 20,20H4C3.45,20 3,19.81 2.6,19.41C2.21,19 2,18.53 2,18V13.41C2,13.09 2.06,12.83 2.16,12.61L4.5,7.22C4.84,6.41 5.45,6 6.33,6H7V5C7,4.45 7.18,4 7.57,3.59C7.96,3.2 8.44,3 9,3H15C15.56,3 16.04,3.2 16.43,3.59C16.82,4 17,4.45 17,5V6H17.67C18.55,6 19.16,6.41 19.5,7.22L21.84,12.61Z" />
    </g>
    <g id="mdi-tools" transform="translate(72 108) scale(1.5)" fill="#555">
      <path d="M21.71 20.29L20.29 21.71A1 1 0 0 1 18.88 21.71L7 9.85A3.81 3.81 0 0 1 6 10A4 4 0 0 1 2.22 4.7L4.76 7.24L5.29 6.71L6.71 5.29L7.24 4.76L4.7 2.22A4 4 0 0 1 10 6A3.81 3.81 0 0 1 9.85 7L21.71 18.88A1 1 0 0 1 21.71 20.29M2.29 18.88A1 1 0 0 0 2.29 20.29L3.71 21.71A1 1 0 0 0 5.12 21.71L10.59 16.25L7.76 13.42M20 2L16 4V6L13.83 8.17L15.83 10.17L18 8H20L22 4Z" />
    </g>
    <g id="mdi-tools" transform="translate(108 108) scale(1.5)" fill="#fff">
      <path d="M21.71 20.29L20.29 21.71A1 1 0 0 1 18.88 21.71L7 9.85A3.81 3.81 0 0 1 6 10A4 4 0 0 1 2.22 4.7L4.76 7.24L5.29 6.71L6.71 5.29L7.24 4.76L4.7 2.22A4 4 0 0 1 10 6A3.81 3.81 0 0 1 9.85 7L21.71 18.88A1 1 0 0 1 21.71 20.29M2.29 18.88A1 1 0 0 0 2.29 20.29L3.71 21.71A1 1 0 0 0 5.12 21.71L10.59 16.25L7.76 13.42M20 2L16 4V6L13.83 8.17L15.83 10.17L18 8H20L22 4Z" />
    </g>
    <g id="mdi-tooltip" transform="translate(144 108) scale(1.5)" fill="#555">
      <path d="M4,2H20A2,2 0 0,1 22,4V16A2,2 0 0,1 20,18H16L12,22L8,18H4A2,2 0 0,1 2,16V4A2,2 0 0,1 4,2Z" />
    </g>
    <g id="mdi-tooltip" transform="translate(180 108) scale(1.5)" fill="#fff">
      <path d="M4,2H20A2,2 0 0,1 22,4V16A2,2 0 0,1 20,18H16L12,22L8,18H4A2,2 0 0,1 2,16V4A2,2 0 0,1 4,2Z" />
    </g>
    <g id="mdi-tooltip-account" transform="translate(216 108) scale(1.5)" fill="#555">
      <path d="M20,2H4A2,2 0 0,0 2,4V16A2,2 0 0,0 4,18H8L12,22L16,18H20A2,2 0 0,0 22,16V4A2,2 0 0,0 20,2M12,4.3C13.5,4.3 14.7,5.5 14.7,7C14.7,8.5 13.5,9.7 12,9.7C10.5,9.7 9.3,8.5 9.3,7C9.3,5.5 10.5,4.3 12,4.3M18,15H6V14.1C6,12.1 10,11 12,11C14,11 18,12.1 18,14.1V15Z" />
    </g>
    <g id="mdi-tooltip-account" transform="translate(252 108) scale(1.5)" fill="#fff">
      <path d="M20,2H4A2,2 0 0,0 2,4V16A2,2 0 0,0 4,18H8L12,22L16,18H20A2,2 0 0,0 22,16V4A2,2 0 0,0 20,2M12,4.3C13.5,4.3 14.7,5.5 14.7,7C14.7,8.5 13.5,9.7 12,9.7C10.5,9.7 9.3,8.5 9.3,7C9.3,5.5 10.5,4.3 12,4.3M18,15H6V14.1C6,12.1 10,11 12,11C14,11 18,12.1 18,14.1V15Z" />
    </g>
    <g id="mdi-tooltip-edit" transform="translate(288 108) scale(1.5)" fill="#555">
      <path d="M20 2H4C2.9 2 2 2.9 2 4V16C2 17.11 2.9 18 4 18H8L12 22L16 18H20C21.11 18 22 17.11 22 16V4C22 2.9 21.11 2 20 2M9.08 15H7V12.91L13.17 6.72L15.24 8.8L9.08 15M16.84 7.2L15.83 8.21L13.76 6.18L14.77 5.16C14.97 4.95 15.31 4.94 15.55 5.16L16.84 6.41C17.05 6.62 17.06 6.96 16.84 7.2Z" />
    </g>
    <g id="mdi-tooltip-edit" transform="translate(324 108) scale(1.5)" fill="#fff">
      <path d="M20 2H4C2.9 2 2 2.9 2 4V16C2 17.11 2.9 18 4 18H8L12 22L16 18H20C21.11 18 22 17.11 22 16V4C22 2.9 21.11 2 20 2M9.08 15H7V12.91L13.17 6.72L15.24 8.8L9.08 15M16.84 7.2L15.83 8.21L13.76 6.18L14.77 5.16C14.97 4.95 15.31 4.94 15.55 5.16L16.84 6.41C17.05 6.62 17.06 6.96 16.84 7.2Z" />
    </g>
    <g id="mdi-tooltip-edit-outline" transform="translate(360 108) scale(1.5)" fill="#555">
      <path d="M4 2H20C21.11 2 22 2.9 22 4V16C22 17.11 21.11 18 20 18H16L12 22L8 18H4C2.9 18 2 17.11 2 16V4C2 2.9 2.9 2 4 2M4 4V16H8.83L12 19.17L15.17 16H20V4H4M15.84 8.2L14.83 9.21L12.76 7.18L13.77 6.16C13.97 5.95 14.31 5.94 14.55 6.16L15.84 7.41C16.05 7.62 16.06 7.96 15.84 8.2M8 11.91L12.17 7.72L14.24 9.8L10.08 14H8V11.91Z" />
    </g>
    <g id="mdi-tooltip-edit-outline" transform="translate(396 108) scale(1.5)" fill="#fff">
      <path d="M4 2H20C21.11 2 22 2.9 22 4V16C22 17.11 21.11 18 20 18H16L12 22L8 18H4C2.9 18 2 17.11 2 16V4C2 2.9 2.9 2 4 2M4 4V16H8.83L12 19.17L15.17 16H20V4H4M15.84 8.2L14.83 9.21L12.76 7.18L13.77 6.16C13.97 5.95 14.31 5.94 14.55 6.16L15.84 7.41C16.05 7.62 16.06 7.96 15.84 8.2M8 11.91L12.17 7.72L14.24 9.8L10.08 14H8V11.91Z" />
    </g>
    <g id="mdi-tooltip-image" transform="translate(432 108) scale(1.5)" fill="#555">
      <path d="M4,2H20A2,2 0 0,1 22,4V16A2,2 0 0,1 20,18H16L12,22L8,18H4A2,2 0 0,1 2,16V4A2,2 0 0,1 4,2M19,15V7L15,11L13,9L7,15H19M7,5A2,2 0 0,0 5,7A2,2 0 0,0 7,9A2,2 0 0,0 9,7A2,2 0 0,0 7,5Z" />
    </g>
    <g id="mdi-tooltip-image" transform="translate(468 108) scale(1.5)" fill="#fff">
      <path d="M4,2H20A2,2 0 0,1 22,4V16A2,2 0 0,1 20,18H16L12,22L8,18H4A2,2 0 0,1 2,16V4A2,2 0 0,1 4,2M19,15V7L15,11L13,9L7,15H19M7,5A2,2 0 0,0 5,7A2,2 0 0,0 7,9A2,2 0 0,0 9,7A2,2 0 0,0 7,5Z" />
    </g>
    <g id="mdi-tooltip-image-outline" transform="translate(504 108) scale(1.5)" fill="#555">
      <path d="M4,2H20A2,2 0 0,1 22,4V16A2,2 0 0,1 20,18H16L12,22L8,18H4A2,2 0 0,1 2,16V4A2,2 0 0,1 4,2M4,4V16H8.83L12,19.17L15.17,16H20V4H4M7.5,6A1.5,1.5 0 0,1 9,7.5A1.5,1.5 0 0,1 7.5,9A1.5,1.5 0 0,1 6,7.5A1.5,1.5 0 0,1 7.5,6M6,14L11,9L13,11L18,6V14H6Z" />
    </g>
    <g id="mdi-tooltip-image-outline" transform="translate(540 108) scale(1.5)" fill="#fff">
      <path d="M4,2H20A2,2 0 0,1 22,4V16A2,2 0 0,1 20,18H16L12,22L8,18H4A2,2 0 0,1 2,16V4A2,2 0 0,1 4,2M4,4V16H8.83L12,19.17L15.17,16H20V4H4M7.5,6A1.5,1.5 0 0,1 9,7.5A1.5,1.5 0 0,1 7.5,9A1.5,1.5 0 0,1 6,7.5A1.5,1.5 0 0,1 7.5,6M6,14L11,9L13,11L18,6V14H6Z" />
    </g>
    <g id="mdi-tooltip-outline" transform="translate(576 108) scale(1.5)" fill="#555">
      <path d="M4,2H20A2,2 0 0,1 22,4V16A2,2 0 0,1 20,18H16L12,22L8,18H4A2,2 0 0,1 2,16V4A2,2 0 0,1 4,2M4,4V16H8.83L12,19.17L15.17,16H20V4H4Z" />
    </g>
    <g id="mdi-tooltip-outline" transform="translate(612 108) scale(1.5)" fill="#fff">
      <path d="M4,2H20A2,2 0 0,1 22,4V16A2,2 0 0,1 20,18H16L12,22L8,18H4A2,2 0 0,1 2,16V4A2,2 0 0,1 4,2M4,4V16H8.83L12,19.17L15.17,16H20V4H4Z" />
    </g>
    <g id="mdi-tooltip-plus" transform="translate(648 108) scale(1.5)" fill="#555">
      <path d="M4,2H20A2,2 0 0,1 22,4V16A2,2 0 0,1 20,18H16L12,22L8,18H4A2,2 0 0,1 2,16V4A2,2 0 0,1 4,2M11,6V9H8V11H11V14H13V11H16V9H13V6H11Z" />
    </g>
    <g id="mdi-tooltip-plus" transform="translate(684 108) scale(1.5)" fill="#fff">
      <path d="M4,2H20A2,2 0 0,1 22,4V16A2,2 0 0,1 20,18H16L12,22L8,18H4A2,2 0 0,1 2,16V4A2,2 0 0,1 4,2M11,6V9H8V11H11V14H13V11H16V9H13V6H11Z" />
    </g>
    <g id="mdi-tooltip-plus-outline" transform="translate(0 144) scale(1.5)" fill="#555">
      <path d="M4,2H20A2,2 0 0,1 22,4V16A2,2 0 0,1 20,18H16L12,22L8,18H4A2,2 0 0,1 2,16V4A2,2 0 0,1 4,2M4,4V16H8.83L12,19.17L15.17,16H20V4H4M11,6H13V9H16V11H13V14H11V11H8V9H11V6Z" />
    </g>
    <g id="mdi-tooltip-plus-outline" transform="translate(36 144) scale(1.5)" fill="#fff">
      <path d="M4,2H20A2,2 0 0,1 22,4V16A2,2 0 0,1 20,18H16L12,22L8,18H4A2,2 0 0,1 2,16V4A2,2 0 0,1 4,2M4,4V16H8.83L12,19.17L15.17,16H20V4H4M11,6H13V9H16V11H13V14H11V11H8V9H11V6Z" />
    </g>
    <g id="mdi-tooltip-text" transform="translate(72 144) scale(1.5)" fill="#555">
      <path d="M4,2H20A2,2 0 0,1 22,4V16A2,2 0 0,1 20,18H16L12,22L8,18H4A2,2 0 0,1 2,16V4A2,2 0 0,1 4,2M5,5V7H19V5H5M5,9V11H15V9H5M5,13V15H17V13H5Z" />
    </g>
    <g id="mdi-tooltip-text" transform="translate(108 144) scale(1.5)" fill="#fff">
      <path d="M4,2H20A2,2 0 0,1 22,4V16A2,2 0 0,1 20,18H16L12,22L8,18H4A2,2 0 0,1 2,16V4A2,2 0 0,1 4,2M5,5V7H19V5H5M5,9V11H15V9H5M5,13V15H17V13H5Z" />
    </g>
    <g id="mdi-tooltip-text-outline" transform="translate(144 144) scale(1.5)" fill="#555">
      <path d="M4,2H20A2,2 0 0,1 22,4V16A2,2 0 0,1 20,18H16L12,22L8,18H4A2,2 0 0,1 2,16V4A2,2 0 0,1 4,2M4,4V16H8.83L12,19.17L15.17,16H20V4H4M6,7H18V9H6V7M6,11H16V13H6V11Z" />
    </g>
    <g id="mdi-tooltip-text-outline" transform="translate(180 144) scale(1.5)" fill="#fff">
      <path d="M4,2H20A2,2 0 0,1 22,4V16A2,2 0 0,1 20,18H16L12,22L8,18H4A2,2 0 0,1 2,16V4A2,2 0 0,1 4,2M4,4V16H8.83L12,19.17L15.17,16H20V4H4M6,7H18V9H6V7M6,11H16V13H6V11Z" />
    </g>
    <g id="mdi-tooth" transform="translate(216 144) scale(1.5)" fill="#555">
      <path d="M7,2C4,2 2,5 2,8C2,10.11 3,13 4,14C5,15 6,22 8,22C12.54,22 10,15 12,15C14,15 11.46,22 16,22C18,22 19,15 20,14C21,13 22,10.11 22,8C22,5 20,2 17,2C14,2 14,3 12,3C10,3 10,2 7,2Z" />
    </g>
    <g id="mdi-tooth" transform="translate(252 144) scale(1.5)" fill="#fff">
      <path d="M7,2C4,2 2,5 2,8C2,10.11 3,13 4,14C5,15 6,22 8,22C12.54,22 10,15 12,15C14,15 11.46,22 16,22C18,22 19,15 20,14C21,13 22,10.11 22,8C22,5 20,2 17,2C14,2 14,3 12,3C10,3 10,2 7,2Z" />
    </g>
    <g id="mdi-tooth-outline" transform="translate(288 144) scale(1.5)" fill="#555">
      <path d="M7,2C4,2 2,5 2,8C2,10.11 3,13 4,14C5,15 6,22 8,22C12.54,22 10,15 12,15C14,15 11.46,22 16,22C18,22 19,15 20,14C21,13 22,10.11 22,8C22,5 20,2 17,2C14,2 14,3 12,3C10,3 10,2 7,2M7,4C9,4 10,5 12,5C14,5 15,4 17,4C18.67,4 20,6 20,8C20,9.75 19.14,12.11 18.19,13.06C17.33,13.92 16.06,19.94 15.5,19.94C15.29,19.94 15,18.88 15,17.59C15,15.55 14.43,13 12,13C9.57,13 9,15.55 9,17.59C9,18.88 8.71,19.94 8.5,19.94C7.94,19.94 6.67,13.92 5.81,13.06C4.86,12.11 4,9.75 4,8C4,6 5.33,4 7,4Z" />
    </g>
    <g id="mdi-tooth-outline" transform="translate(324 144) scale(1.5)" fill="#fff">
      <path d="M7,2C4,2 2,5 2,8C2,10.11 3,13 4,14C5,15 6,22 8,22C12.54,22 10,15 12,15C14,15 11.46,22 16,22C18,22 19,15 20,14C21,13 22,10.11 22,8C22,5 20,2 17,2C14,2 14,3 12,3C10,3 10,2 7,2M7,4C9,4 10,5 12,5C14,5 15,4 17,4C18.67,4 20,6 20,8C20,9.75 19.14,12.11 18.19,13.06C17.33,13.92 16.06,19.94 15.5,19.94C15.29,19.94 15,18.88 15,17.59C15,15.55 14.43,13 12,13C9.57,13 9,15.55 9,17.59C9,18.88 8.71,19.94 8.5,19.94C7.94,19.94 6.67,13.92 5.81,13.06C4.86,12.11 4,9.75 4,8C4,6 5.33,4 7,4Z" />
    </g>
    <g id="mdi-toothbrush" transform="translate(360 144) scale(1.5)" fill="#555">
      <path d="M12.91 6.43L15.03 8.55L16.09 7.5L15.03 6.43L17.86 3.6L18.92 4.66L20 3.6L17.86 1.5M3 20.57L4.43 22L14.5 11.9L16.63 11.19L21.4 6.43C22.18 5.65 22.18 4.38 21.4 3.6L15.55 9.44L13.43 10.15Z" />
    </g>
    <g id="mdi-toothbrush" transform="translate(396 144) scale(1.5)" fill="#fff">
      <path d="M12.91 6.43L15.03 8.55L16.09 7.5L15.03 6.43L17.86 3.6L18.92 4.66L20 3.6L17.86 1.5M3 20.57L4.43 22L14.5 11.9L16.63 11.19L21.4 6.43C22.18 5.65 22.18 4.38 21.4 3.6L15.55 9.44L13.43 10.15Z" />
    </g>
    <g id="mdi-toothbrush-electric" transform="translate(432 144) scale(1.5)" fill="#555">
      <path d="M12 1.5V14C10.34 14 9 15.34 9 17V22H17V17C17 15.34 15.66 14 14 14V3.5C14 2.4 13.11 1.5 12 1.5M7.5 2V9H11V7.5H9V3.5H11V2H7.5M13 17.5C13.83 17.5 14.5 18.17 14.5 19C14.5 19.83 13.83 20.5 13 20.5C12.17 20.5 11.5 19.83 11.5 19C11.5 18.17 12.17 17.5 13 17.5Z" />
    </g>
    <g id="mdi-toothbrush-electric" transform="translate(468 144) scale(1.5)" fill="#fff">
      <path d="M12 1.5V14C10.34 14 9 15.34 9 17V22H17V17C17 15.34 15.66 14 14 14V3.5C14 2.4 13.11 1.5 12 1.5M7.5 2V9H11V7.5H9V3.5H11V2H7.5M13 17.5C13.83 17.5 14.5 18.17 14.5 19C14.5 19.83 13.83 20.5 13 20.5C12.17 20.5 11.5 19.83 11.5 19C11.5 18.17 12.17 17.5 13 17.5Z" />
    </g>
    <g id="mdi-toothbrush-paste" transform="translate(504 144) scale(1.5)" fill="#555">
      <path d="M17.86 1.5L12.91 6.43L15.03 8.55L16.09 7.5L15.03 6.43L17.86 3.6L18.92 4.66L20 3.6M21.4 3.6L15.56 9.44L13.43 10.15L3 20.57L4.43 22L10.08 16.33L14.33 20.57L18.57 16.33L14.33 12.09L14.5 11.9L16.63 11.19L21.4 6.43C22.18 5.65 22.18 4.38 21.4 3.6M6.55 4.31L2.31 8.55L7.26 13.5L11.5 9.26M18.22 18.1L16.09 20.22L17.5 21.63L19.63 19.5Z" />
    </g>
    <g id="mdi-toothbrush-paste" transform="translate(540 144) scale(1.5)" fill="#fff">
      <path d="M17.86 1.5L12.91 6.43L15.03 8.55L16.09 7.5L15.03 6.43L17.86 3.6L18.92 4.66L20 3.6M21.4 3.6L15.56 9.44L13.43 10.15L3 20.57L4.43 22L10.08 16.33L14.33 20.57L18.57 16.33L14.33 12.09L14.5 11.9L16.63 11.19L21.4 6.43C22.18 5.65 22.18 4.38 21.4 3.6M6.55 4.31L2.31 8.55L7.26 13.5L11.5 9.26M18.22 18.1L16.09 20.22L17.5 21.63L19.63 19.5Z" />
    </g>
    <g id="mdi-tor" transform="translate(576 144) scale(1.5)" fill="#555">
      <path d="M12,14C11,14 9,15 9,16C9,18 12,18 12,18V17A1,1 0 0,1 11,16A1,1 0 0,1 12,15V14M12,19C12,19 8,18.5 8,16.5C8,13.5 11,12.75 12,12.75V11.5C11,11.5 7,13 7,16C7,20 12,20 12,20V19M10.07,7.03L11.26,7.56C11.69,5.12 12.84,3.5 12.84,3.5C12.41,4.53 12.13,5.38 11.95,6.05C13.16,3.55 15.61,2 15.61,2C14.43,3.18 13.56,4.46 12.97,5.53C14.55,3.85 16.74,2.75 16.74,2.75C14.05,4.47 12.84,7.2 12.54,7.96L13.09,8.04C13.09,8.56 13.09,9.04 13.34,9.42C14.1,11.31 18,11.47 18,16C18,20.53 13.97,22 11.83,22C9.69,22 5,21.03 5,16C5,10.97 9.95,10.93 10.83,8.92C10.95,8.54 10.07,7.03 10.07,7.03Z" />
    </g>
    <g id="mdi-tor" transform="translate(612 144) scale(1.5)" fill="#fff">
      <path d="M12,14C11,14 9,15 9,16C9,18 12,18 12,18V17A1,1 0 0,1 11,16A1,1 0 0,1 12,15V14M12,19C12,19 8,18.5 8,16.5C8,13.5 11,12.75 12,12.75V11.5C11,11.5 7,13 7,16C7,20 12,20 12,20V19M10.07,7.03L11.26,7.56C11.69,5.12 12.84,3.5 12.84,3.5C12.41,4.53 12.13,5.38 11.95,6.05C13.16,3.55 15.61,2 15.61,2C14.43,3.18 13.56,4.46 12.97,5.53C14.55,3.85 16.74,2.75 16.74,2.75C14.05,4.47 12.84,7.2 12.54,7.96L13.09,8.04C13.09,8.56 13.09,9.04 13.34,9.42C14.1,11.31 18,11.47 18,16C18,20.53 13.97,22 11.83,22C9.69,22 5,21.03 5,16C5,10.97 9.95,10.93 10.83,8.92C10.95,8.54 10.07,7.03 10.07,7.03Z" />
    </g>
    <g id="mdi-tortoise" transform="translate(648 144) scale(1.5)" fill="#555">
      <path d="M19.31,5.6C18.09,5.56 16.88,6.5 16.5,8C16,10 16,10 15,11C13,13 10,14 4,15C3,15.16 2.5,15.5 2,16C4,16 6,16 4.5,17.5L3,19H6L8,17C10,18 11.33,18 13.33,17L14,19H17L16,16C16,16 17,12 18,11C19,10 19,11 20,11C21,11 22,10 22,8.5C22,8 22,7 20.5,6C20.15,5.76 19.74,5.62 19.31,5.6M9,6A6,6 0 0,0 3,12C3,12.6 3.13,13.08 3.23,13.6C9.15,12.62 12.29,11.59 13.93,9.94L14.43,9.44C13.44,7.34 11.32,6 9,6Z" />
    </g>
    <g id="mdi-tortoise" transform="translate(684 144) scale(1.5)" fill="#fff">
      <path d="M19.31,5.6C18.09,5.56 16.88,6.5 16.5,8C16,10 16,10 15,11C13,13 10,14 4,15C3,15.16 2.5,15.5 2,16C4,16 6,16 4.5,17.5L3,19H6L8,17C10,18 11.33,18 13.33,17L14,19H17L16,16C16,16 17,12 18,11C19,10 19,11 20,11C21,11 22,10 22,8.5C22,8 22,7 20.5,6C20.15,5.76 19.74,5.62 19.31,5.6M9,6A6,6 0 0,0 3,12C3,12.6 3.13,13.08 3.23,13.6C9.15,12.62 12.29,11.59 13.93,9.94L14.43,9.44C13.44,7.34 11.32,6 9,6Z" />
    </g>
    <g id="mdi-toslink" transform="translate(0 180) scale(1.5)" fill="#555">
      <path d="M20 10V7L17 4H7L4 7V10C2.9 10 2 10.9 2 12S2.9 14 4 14V18C4 19.1 4.9 20 6 20H18C19.1 20 20 19.1 20 18V14C21.11 14 22 13.11 22 12S21.11 10 20 10M12 16C9.79 16 8 14.21 8 12S9.79 8 12 8 16 9.79 16 12 14.21 16 12 16M14 12C14 13.11 13.11 14 12 14S10 13.11 10 12 10.9 10 12 10 14 10.9 14 12Z" />
    </g>
    <g id="mdi-toslink" transform="translate(36 180) scale(1.5)" fill="#fff">
      <path d="M20 10V7L17 4H7L4 7V10C2.9 10 2 10.9 2 12S2.9 14 4 14V18C4 19.1 4.9 20 6 20H18C19.1 20 20 19.1 20 18V14C21.11 14 22 13.11 22 12S21.11 10 20 10M12 16C9.79 16 8 14.21 8 12S9.79 8 12 8 16 9.79 16 12 14.21 16 12 16M14 12C14 13.11 13.11 14 12 14S10 13.11 10 12 10.9 10 12 10 14 10.9 14 12Z" />
    </g>
    <g id="mdi-tournament" transform="translate(72 180) scale(1.5)" fill="#555">
      <path d="M2,2V4H7V8H2V10H7C8.11,10 9,9.11 9,8V7H14V17H9V16C9,14.89 8.11,14 7,14H2V16H7V20H2V22H7C8.11,22 9,21.11 9,20V19H14C15.11,19 16,18.11 16,17V13H22V11H16V7C16,5.89 15.11,5 14,5H9V4C9,2.89 8.11,2 7,2H2Z" />
    </g>
    <g id="mdi-tournament" transform="translate(108 180) scale(1.5)" fill="#fff">
      <path d="M2,2V4H7V8H2V10H7C8.11,10 9,9.11 9,8V7H14V17H9V16C9,14.89 8.11,14 7,14H2V16H7V20H2V22H7C8.11,22 9,21.11 9,20V19H14C15.11,19 16,18.11 16,17V13H22V11H16V7C16,5.89 15.11,5 14,5H9V4C9,2.89 8.11,2 7,2H2Z" />
    </g>
    <g id="mdi-tower-beach" transform="translate(144 180) scale(1.5)" fill="#555">
      <path d="M17,4V8H18V10H17.64L21,23H18.93L18.37,20.83L12,17.15L5.63,20.83L5.07,23H3L6.36,10H6V8H7V4H6V3L18,1V4H17M7.28,14.43L6.33,18.12L10,16L7.28,14.43M15.57,10H8.43L7.8,12.42L12,14.85L16.2,12.42L15.57,10M17.67,18.12L16.72,14.43L14,16L17.67,18.12Z" />
    </g>
    <g id="mdi-tower-beach" transform="translate(180 180) scale(1.5)" fill="#fff">
      <path d="M17,4V8H18V10H17.64L21,23H18.93L18.37,20.83L12,17.15L5.63,20.83L5.07,23H3L6.36,10H6V8H7V4H6V3L18,1V4H17M7.28,14.43L6.33,18.12L10,16L7.28,14.43M15.57,10H8.43L7.8,12.42L12,14.85L16.2,12.42L15.57,10M17.67,18.12L16.72,14.43L14,16L17.67,18.12Z" />
    </g>
    <g id="mdi-tower-fire" transform="translate(216 180) scale(1.5)" fill="#555">
      <path d="M17,4V8H18V10H17.64L21,23H18.93L18.37,20.83L12,17.15L5.63,20.83L5.07,23H3L6.36,10H6V8H7V4H6V3L12,1L18,3V4H17M7.28,14.43L6.33,18.12L10,16L7.28,14.43M15.57,10H8.43L7.8,12.42L12,14.85L16.2,12.42L15.57,10M17.67,18.12L16.72,14.43L14,16L17.67,18.12Z" />
    </g>
    <g id="mdi-tower-fire" transform="translate(252 180) scale(1.5)" fill="#fff">
      <path d="M17,4V8H18V10H17.64L21,23H18.93L18.37,20.83L12,17.15L5.63,20.83L5.07,23H3L6.36,10H6V8H7V4H6V3L12,1L18,3V4H17M7.28,14.43L6.33,18.12L10,16L7.28,14.43M15.57,10H8.43L7.8,12.42L12,14.85L16.2,12.42L15.57,10M17.67,18.12L16.72,14.43L14,16L17.67,18.12Z" />
    </g>
    <g id="mdi-towing" transform="translate(288 180) scale(1.5)" fill="#555">
      <path d="M15,10H20.39L17.06,6H15V10M17.5,18.5C17.89,18.5 18.24,18.37 18.54,18.07C18.84,17.77 19,17.42 19,17C19,16.61 18.84,16.26 18.54,15.96C18.24,15.66 17.89,15.5 17.5,15.5C17.08,15.5 16.73,15.66 16.43,15.96C16.13,16.26 16,16.61 16,17C16,17.42 16.13,17.77 16.43,18.07C16.73,18.37 17.08,18.5 17.5,18.5M6,18.5C6.44,18.5 6.8,18.37 7.08,18.07C7.36,17.77 7.5,17.42 7.5,17C7.5,16.61 7.36,16.26 7.08,15.96C6.8,15.66 6.44,15.5 6,15.5C5.56,15.5 5.2,15.66 4.92,15.96C4.64,16.26 4.5,16.61 4.5,17C4.5,17.42 4.64,17.77 4.92,18.07C5.2,18.37 5.56,18.5 6,18.5M18,4L23,10V17H20.5C20.5,17.83 20.19,18.53 19.59,19.13C19,19.72 18.3,20 17.5,20C16.67,20 15.97,19.72 15.38,19.13C14.78,18.53 14.5,17.83 14.5,17H9C9,17.83 8.7,18.53 8.11,19.13C7.5,19.72 6.81,20 6,20C5.19,20 4.5,19.72 3.89,19.13C3.3,18.53 3,17.83 3,17H1V13H9.19L3,8.11V11H1V5H2L13,11.06V4H18Z" />
    </g>
    <g id="mdi-towing" transform="translate(324 180) scale(1.5)" fill="#fff">
      <path d="M15,10H20.39L17.06,6H15V10M17.5,18.5C17.89,18.5 18.24,18.37 18.54,18.07C18.84,17.77 19,17.42 19,17C19,16.61 18.84,16.26 18.54,15.96C18.24,15.66 17.89,15.5 17.5,15.5C17.08,15.5 16.73,15.66 16.43,15.96C16.13,16.26 16,16.61 16,17C16,17.42 16.13,17.77 16.43,18.07C16.73,18.37 17.08,18.5 17.5,18.5M6,18.5C6.44,18.5 6.8,18.37 7.08,18.07C7.36,17.77 7.5,17.42 7.5,17C7.5,16.61 7.36,16.26 7.08,15.96C6.8,15.66 6.44,15.5 6,15.5C5.56,15.5 5.2,15.66 4.92,15.96C4.64,16.26 4.5,16.61 4.5,17C4.5,17.42 4.64,17.77 4.92,18.07C5.2,18.37 5.56,18.5 6,18.5M18,4L23,10V17H20.5C20.5,17.83 20.19,18.53 19.59,19.13C19,19.72 18.3,20 17.5,20C16.67,20 15.97,19.72 15.38,19.13C14.78,18.53 14.5,17.83 14.5,17H9C9,17.83 8.7,18.53 8.11,19.13C7.5,19.72 6.81,20 6,20C5.19,20 4.5,19.72 3.89,19.13C3.3,18.53 3,17.83 3,17H1V13H9.19L3,8.11V11H1V5H2L13,11.06V4H18Z" />
    </g>
    <g id="mdi-toy-brick" transform="translate(360 180) scale(1.5)" fill="#555">
      <path d="M19 6V5A2 2 0 0 0 17 3H15A2 2 0 0 0 13 5V6H11V5A2 2 0 0 0 9 3H7A2 2 0 0 0 5 5V6H3V20H21V6Z" />
    </g>
    <g id="mdi-toy-brick" transform="translate(396 180) scale(1.5)" fill="#fff">
      <path d="M19 6V5A2 2 0 0 0 17 3H15A2 2 0 0 0 13 5V6H11V5A2 2 0 0 0 9 3H7A2 2 0 0 0 5 5V6H3V20H21V6Z" />
    </g>
    <g id="mdi-toy-brick-marker" transform="translate(432 180) scale(1.5)" fill="#555">
      <path d="M19 6V5A2 2 0 0 0 17 3H15A2 2 0 0 0 13 5V6H11V5A2 2 0 0 0 9 3H7A2 2 0 0 0 5 5V6H3V20H14.54A9.55 9.55 0 0 1 13 15.5A5.58 5.58 0 0 1 18.5 10A5.3 5.3 0 0 1 21 10.63V6M18.5 12A3.54 3.54 0 0 0 15 15.5C15 18.1 18.5 22 18.5 22S22 18.1 22 15.5A3.54 3.54 0 0 0 18.5 12M18.5 16.8A1.2 1.2 0 1 1 18.5 14.4A1.29 1.29 0 0 1 19.7 15.6A1.15 1.15 0 0 1 18.5 16.8Z" />
    </g>
    <g id="mdi-toy-brick-marker" transform="translate(468 180) scale(1.5)" fill="#fff">
      <path d="M19 6V5A2 2 0 0 0 17 3H15A2 2 0 0 0 13 5V6H11V5A2 2 0 0 0 9 3H7A2 2 0 0 0 5 5V6H3V20H14.54A9.55 9.55 0 0 1 13 15.5A5.58 5.58 0 0 1 18.5 10A5.3 5.3 0 0 1 21 10.63V6M18.5 12A3.54 3.54 0 0 0 15 15.5C15 18.1 18.5 22 18.5 22S22 18.1 22 15.5A3.54 3.54 0 0 0 18.5 12M18.5 16.8A1.2 1.2 0 1 1 18.5 14.4A1.29 1.29 0 0 1 19.7 15.6A1.15 1.15 0 0 1 18.5 16.8Z" />
    </g>
    <g id="mdi-toy-brick-marker-outline" transform="translate(504 180) scale(1.5)" fill="#555">
      <path d="M18.5 12A3.54 3.54 0 0 0 15 15.5C15 18.1 18.5 22 18.5 22S22 18.1 22 15.5A3.54 3.54 0 0 0 18.5 12M18.5 16.8A1.2 1.2 0 1 1 18.5 14.4A1.29 1.29 0 0 1 19.7 15.6A1.15 1.15 0 0 1 18.5 16.8M19 6V5A2 2 0 0 0 17 3H15A2 2 0 0 0 13 5V6H11V5A2 2 0 0 0 9 3H7A2 2 0 0 0 5 5V6H3V20H14.54A15.55 15.55 0 0 1 13.54 18H5V8H19V10A5.11 5.11 0 0 1 21 10.6V6Z" />
    </g>
    <g id="mdi-toy-brick-marker-outline" transform="translate(540 180) scale(1.5)" fill="#fff">
      <path d="M18.5 12A3.54 3.54 0 0 0 15 15.5C15 18.1 18.5 22 18.5 22S22 18.1 22 15.5A3.54 3.54 0 0 0 18.5 12M18.5 16.8A1.2 1.2 0 1 1 18.5 14.4A1.29 1.29 0 0 1 19.7 15.6A1.15 1.15 0 0 1 18.5 16.8M19 6V5A2 2 0 0 0 17 3H15A2 2 0 0 0 13 5V6H11V5A2 2 0 0 0 9 3H7A2 2 0 0 0 5 5V6H3V20H14.54A15.55 15.55 0 0 1 13.54 18H5V8H19V10A5.11 5.11 0 0 1 21 10.6V6Z" />
    </g>
    <g id="mdi-toy-brick-minus" transform="translate(576 180) scale(1.5)" fill="#555">
      <path d="M19 6V5A2 2 0 0 0 17 3H15A2 2 0 0 0 13 5V6H11V5A2 2 0 0 0 9 3H7A2 2 0 0 0 5 5V6H3V20H13V16H21V6M23 20H15V18H23Z" />
    </g>
    <g id="mdi-toy-brick-minus" transform="translate(612 180) scale(1.5)" fill="#fff">
      <path d="M19 6V5A2 2 0 0 0 17 3H15A2 2 0 0 0 13 5V6H11V5A2 2 0 0 0 9 3H7A2 2 0 0 0 5 5V6H3V20H13V16H21V6M23 20H15V18H23Z" />
    </g>
    <g id="mdi-toy-brick-minus-outline" transform="translate(648 180) scale(1.5)" fill="#555">
      <path d="M19 6V5A2 2 0 0 0 17 3H15A2 2 0 0 0 13 5V6H11V5A2 2 0 0 0 9 3H7A2 2 0 0 0 5 5V6H3V20H14V18H5V8H19V16H21V6M24 20H16V18H24Z" />
    </g>
    <g id="mdi-toy-brick-minus-outline" transform="translate(684 180) scale(1.5)" fill="#fff">
      <path d="M19 6V5A2 2 0 0 0 17 3H15A2 2 0 0 0 13 5V6H11V5A2 2 0 0 0 9 3H7A2 2 0 0 0 5 5V6H3V20H14V18H5V8H19V16H21V6M24 20H16V18H24Z" />
    </g>
    <g id="mdi-toy-brick-outline" transform="translate(0 216) scale(1.5)" fill="#555">
      <path d="M19 6V5A2 2 0 0 0 17 3H15A2 2 0 0 0 13 5V6H11V5A2 2 0 0 0 9 3H7A2 2 0 0 0 5 5V6H3V20H21V6M19 18H5V8H19Z" />
    </g>
    <g id="mdi-toy-brick-outline" transform="translate(36 216) scale(1.5)" fill="#fff">
      <path d="M19 6V5A2 2 0 0 0 17 3H15A2 2 0 0 0 13 5V6H11V5A2 2 0 0 0 9 3H7A2 2 0 0 0 5 5V6H3V20H21V6M19 18H5V8H19Z" />
    </g>
    <g id="mdi-toy-brick-plus" transform="translate(72 216) scale(1.5)" fill="#555">
      <path d="M19 6V5A2 2 0 0 0 17 3H15A2 2 0 0 0 13 5V6H11V5A2 2 0 0 0 9 3H7A2 2 0 0 0 5 5V6H3V20H13.09A5.47 5.47 0 0 1 13 19A6 6 0 0 1 21 13.34V6M20 15V18H23V20H20V23H18V20H15V18H18V15Z" />
    </g>
    <g id="mdi-toy-brick-plus" transform="translate(108 216) scale(1.5)" fill="#fff">
      <path d="M19 6V5A2 2 0 0 0 17 3H15A2 2 0 0 0 13 5V6H11V5A2 2 0 0 0 9 3H7A2 2 0 0 0 5 5V6H3V20H13.09A5.47 5.47 0 0 1 13 19A6 6 0 0 1 21 13.34V6M20 15V18H23V20H20V23H18V20H15V18H18V15Z" />
    </g>
    <g id="mdi-toy-brick-plus-outline" transform="translate(144 216) scale(1.5)" fill="#555">
      <path d="M19 6V5A2 2 0 0 0 17 3H15A2 2 0 0 0 13 5V6H11V5A2 2 0 0 0 9 3H7A2 2 0 0 0 5 5V6H3V20H14V18H5V8H19V13H21V6M21 15V18H24V20H21V23H19V20H16V18H19V15Z" />
    </g>
    <g id="mdi-toy-brick-plus-outline" transform="translate(180 216) scale(1.5)" fill="#fff">
      <path d="M19 6V5A2 2 0 0 0 17 3H15A2 2 0 0 0 13 5V6H11V5A2 2 0 0 0 9 3H7A2 2 0 0 0 5 5V6H3V20H14V18H5V8H19V13H21V6M21 15V18H24V20H21V23H19V20H16V18H19V15Z" />
    </g>
    <g id="mdi-toy-brick-remove" transform="translate(216 216) scale(1.5)" fill="#555">
      <path d="M19 6V5A2 2 0 0 0 17 3H15A2 2 0 0 0 13 5V6H11V5A2 2 0 0 0 9 3H7A2 2 0 0 0 5 5V6H3V20H13.09A5.47 5.47 0 0 1 13 19A6 6 0 0 1 21 13.34V6M22.54 16.88L20.41 19L22.54 21.12L21.12 22.54L19 20.41L16.88 22.54L15.46 21.12L17.59 19L15.46 16.88L16.88 15.46L19 17.59L21.12 15.46Z" />
    </g>
    <g id="mdi-toy-brick-remove" transform="translate(252 216) scale(1.5)" fill="#fff">
      <path d="M19 6V5A2 2 0 0 0 17 3H15A2 2 0 0 0 13 5V6H11V5A2 2 0 0 0 9 3H7A2 2 0 0 0 5 5V6H3V20H13.09A5.47 5.47 0 0 1 13 19A6 6 0 0 1 21 13.34V6M22.54 16.88L20.41 19L22.54 21.12L21.12 22.54L19 20.41L16.88 22.54L15.46 21.12L17.59 19L15.46 16.88L16.88 15.46L19 17.59L21.12 15.46Z" />
    </g>
    <g id="mdi-toy-brick-remove-outline" transform="translate(288 216) scale(1.5)" fill="#555">
      <path d="M19 6V5A2 2 0 0 0 17 3H15A2 2 0 0 0 13 5V6H11V5A2 2 0 0 0 9 3H7A2 2 0 0 0 5 5V6H3V20H14V18H5V8H19V13H21V6M21 15V18H24V20H21V23H19V20H16V18H19V15Z" />
    </g>
    <g id="mdi-toy-brick-remove-outline" transform="translate(324 216) scale(1.5)" fill="#fff">
      <path d="M19 6V5A2 2 0 0 0 17 3H15A2 2 0 0 0 13 5V6H11V5A2 2 0 0 0 9 3H7A2 2 0 0 0 5 5V6H3V20H14V18H5V8H19V13H21V6M21 15V18H24V20H21V23H19V20H16V18H19V15Z" />
    </g>
    <g id="mdi-toy-brick-search" transform="translate(360 216) scale(1.5)" fill="#555">
      <path d="M19 6V5A2 2 0 0 0 17 3H15A2 2 0 0 0 13 5V6H11V5A2 2 0 0 0 9 3H7A2 2 0 0 0 5 5V6H3V20H11.81A6.5 6.5 0 0 1 21 10.81V6M20.31 17.9A4.5 4.5 0 1 0 18.88 19.32L22 22.39L23.39 21M16.5 18A2.5 2.5 0 1 1 19 15.5A2.5 2.5 0 0 1 16.5 18Z" />
    </g>
    <g id="mdi-toy-brick-search" transform="translate(396 216) scale(1.5)" fill="#fff">
      <path d="M19 6V5A2 2 0 0 0 17 3H15A2 2 0 0 0 13 5V6H11V5A2 2 0 0 0 9 3H7A2 2 0 0 0 5 5V6H3V20H11.81A6.5 6.5 0 0 1 21 10.81V6M20.31 17.9A4.5 4.5 0 1 0 18.88 19.32L22 22.39L23.39 21M16.5 18A2.5 2.5 0 1 1 19 15.5A2.5 2.5 0 0 1 16.5 18Z" />
    </g>
    <g id="mdi-toy-brick-search-outline" transform="translate(432 216) scale(1.5)" fill="#555">
      <path d="M19 6V5A2 2 0 0 0 17 3H15A2 2 0 0 0 13 5V6H11V5A2 2 0 0 0 9 3H7A2 2 0 0 0 5 5V6H3V20H11.81A6.59 6.59 0 0 1 10.5 18H5V8H19V9.5A6.59 6.59 0 0 1 21 10.81V6M20.31 17.9A4.5 4.5 0 1 0 18.88 19.32L22 22.39L23.39 21M16.5 18A2.5 2.5 0 1 1 19 15.5A2.5 2.5 0 0 1 16.5 18Z" />
    </g>
    <g id="mdi-toy-brick-search-outline" transform="translate(468 216) scale(1.5)" fill="#fff">
      <path d="M19 6V5A2 2 0 0 0 17 3H15A2 2 0 0 0 13 5V6H11V5A2 2 0 0 0 9 3H7A2 2 0 0 0 5 5V6H3V20H11.81A6.59 6.59 0 0 1 10.5 18H5V8H19V9.5A6.59 6.59 0 0 1 21 10.81V6M20.31 17.9A4.5 4.5 0 1 0 18.88 19.32L22 22.39L23.39 21M16.5 18A2.5 2.5 0 1 1 19 15.5A2.5 2.5 0 0 1 16.5 18Z" />
    </g>
    <g id="mdi-track-light" transform="translate(504 216) scale(1.5)" fill="#555">
      <path d="M6,1V3H9V6.4L4.11,4.38L1.43,10.84L6.97,13.14L11.94,16.82L13.79,17.59L17.62,8.35L15.77,7.58L11,6.87V3H14V1H6M21.81,6.29L19.5,7.25L20.26,9.1L22.57,8.14L21.81,6.29M19.78,13.57L19,15.42L21.79,16.57L22.55,14.72L19.78,13.57M16.19,18.93L14.34,19.69L15.3,22L17.15,21.23L16.19,18.93Z" />
    </g>
    <g id="mdi-track-light" transform="translate(540 216) scale(1.5)" fill="#fff">
      <path d="M6,1V3H9V6.4L4.11,4.38L1.43,10.84L6.97,13.14L11.94,16.82L13.79,17.59L17.62,8.35L15.77,7.58L11,6.87V3H14V1H6M21.81,6.29L19.5,7.25L20.26,9.1L22.57,8.14L21.81,6.29M19.78,13.57L19,15.42L21.79,16.57L22.55,14.72L19.78,13.57M16.19,18.93L14.34,19.69L15.3,22L17.15,21.23L16.19,18.93Z" />
    </g>
    <g id="mdi-trackpad" transform="translate(576 216) scale(1.5)" fill="#555">
      <path d="M4,3H20A2,2 0 0,1 22,5V19A2,2 0 0,1 20,21H4A2,2 0 0,1 2,19V5A2,2 0 0,1 4,3M4,5V13H20V5H4M4,19H11V15H4V19M20,19V15H13V19H20Z" />
    </g>
    <g id="mdi-trackpad" transform="translate(612 216) scale(1.5)" fill="#fff">
      <path d="M4,3H20A2,2 0 0,1 22,5V19A2,2 0 0,1 20,21H4A2,2 0 0,1 2,19V5A2,2 0 0,1 4,3M4,5V13H20V5H4M4,19H11V15H4V19M20,19V15H13V19H20Z" />
    </g>
    <g id="mdi-trackpad-lock" transform="translate(648 216) scale(1.5)" fill="#555">
      <path d="M3,1C1.89,1 1,1.89 1,3V17C1,18.11 1.89,19 3,19H14V17H12V13H16.68C17.5,12.35 18.47,12 19.5,12C20,12 20.5,12.09 21,12.26V3C21,1.89 20.11,1 19,1H3M3,3H19V11H3V3M3,13H10V17H3V13M19.5,14A2.5,2.5 0 0,0 17,16.5V17A1,1 0 0,0 16,18V22A1,1 0 0,0 17,23H22A1,1 0 0,0 23,22V18A1,1 0 0,0 22,17V16.5A2.5,2.5 0 0,0 19.5,14M19.5,15A1.5,1.5 0 0,1 21,16.5V17H18V16.5A1.5,1.5 0 0,1 19.5,15Z" />
    </g>
    <g id="mdi-trackpad-lock" transform="translate(684 216) scale(1.5)" fill="#fff">
      <path d="M3,1C1.89,1 1,1.89 1,3V17C1,18.11 1.89,19 3,19H14V17H12V13H16.68C17.5,12.35 18.47,12 19.5,12C20,12 20.5,12.09 21,12.26V3C21,1.89 20.11,1 19,1H3M3,3H19V11H3V3M3,13H10V17H3V13M19.5,14A2.5,2.5 0 0,0 17,16.5V17A1,1 0 0,0 16,18V22A1,1 0 0,0 17,23H22A1,1 0 0,0 23,22V18A1,1 0 0,0 22,17V16.5A2.5,2.5 0 0,0 19.5,14M19.5,15A1.5,1.5 0 0,1 21,16.5V17H18V16.5A1.5,1.5 0 0,1 19.5,15Z" />
    </g>
    <g id="mdi-tractor" transform="translate(0 252) scale(1.5)" fill="#555">
      <path d="M5,4V11.26C3.2,11.9 2,13.6 2,15.5C2,18 4,20 6.5,20C8.79,20 10.71,18.28 10.97,16H15.17C15.06,16.32 15,16.66 15,17A3,3 0 0,0 18,20A3,3 0 0,0 21,17C21,16.66 20.94,16.32 20.82,16H22V13C22,11.89 21.11,11 20,11H15.04L13.65,4H5M7,6H12L13,11V14H10.74C10.16,12.38 8.71,11.23 7,11.03V6M6.5,13.25A2.25,2.25 0 0,1 8.75,15.5A2.25,2.25 0 0,1 6.5,17.75A2.25,2.25 0 0,1 4.25,15.5A2.25,2.25 0 0,1 6.5,13.25M18,15.5A1.5,1.5 0 0,1 19.5,17A1.5,1.5 0 0,1 18,18.5A1.5,1.5 0 0,1 16.5,17A1.5,1.5 0 0,1 18,15.5Z" />
    </g>
    <g id="mdi-tractor" transform="translate(36 252) scale(1.5)" fill="#fff">
      <path d="M5,4V11.26C3.2,11.9 2,13.6 2,15.5C2,18 4,20 6.5,20C8.79,20 10.71,18.28 10.97,16H15.17C15.06,16.32 15,16.66 15,17A3,3 0 0,0 18,20A3,3 0 0,0 21,17C21,16.66 20.94,16.32 20.82,16H22V13C22,11.89 21.11,11 20,11H15.04L13.65,4H5M7,6H12L13,11V14H10.74C10.16,12.38 8.71,11.23 7,11.03V6M6.5,13.25A2.25,2.25 0 0,1 8.75,15.5A2.25,2.25 0 0,1 6.5,17.75A2.25,2.25 0 0,1 4.25,15.5A2.25,2.25 0 0,1 6.5,13.25M18,15.5A1.5,1.5 0 0,1 19.5,17A1.5,1.5 0 0,1 18,18.5A1.5,1.5 0 0,1 16.5,17A1.5,1.5 0 0,1 18,15.5Z" />
    </g>
    <g id="mdi-trademark" transform="translate(72 252) scale(1.5)" fill="#555">
      <path d="M9.8,8.44H6.87V16H4.89V8.44H2V7H9.8V8.44M13.5,7L15.96,13.5L18.41,7H21V16H19V13.5L19.22,9.24L16.63,16H15.28L12.7,9.25L12.9,13.5V16H10.93V7H13.5Z" />
    </g>
    <g id="mdi-trademark" transform="translate(108 252) scale(1.5)" fill="#fff">
      <path d="M9.8,8.44H6.87V16H4.89V8.44H2V7H9.8V8.44M13.5,7L15.96,13.5L18.41,7H21V16H19V13.5L19.22,9.24L16.63,16H15.28L12.7,9.25L12.9,13.5V16H10.93V7H13.5Z" />
    </g>
    <g id="mdi-traffic-cone" transform="translate(144 252) scale(1.5)" fill="#555">
      <path d="M17 15L18 19H21V22H3V19H6L7 15H17M15 8L16 12H8L9 8H15M13 1L14 5H10L11 1H13Z" />
    </g>
    <g id="mdi-traffic-cone" transform="translate(180 252) scale(1.5)" fill="#fff">
      <path d="M17 15L18 19H21V22H3V19H6L7 15H17M15 8L16 12H8L9 8H15M13 1L14 5H10L11 1H13Z" />
    </g>
    <g id="mdi-traffic-light" transform="translate(216 252) scale(1.5)" fill="#555">
      <path d="M12,9A2,2 0 0,1 10,7C10,5.89 10.9,5 12,5C13.11,5 14,5.89 14,7A2,2 0 0,1 12,9M12,14A2,2 0 0,1 10,12C10,10.89 10.9,10 12,10C13.11,10 14,10.89 14,12A2,2 0 0,1 12,14M12,19A2,2 0 0,1 10,17C10,15.89 10.9,15 12,15C13.11,15 14,15.89 14,17A2,2 0 0,1 12,19M20,10H17V8.86C18.72,8.41 20,6.86 20,5H17V4A1,1 0 0,0 16,3H8A1,1 0 0,0 7,4V5H4C4,6.86 5.28,8.41 7,8.86V10H4C4,11.86 5.28,13.41 7,13.86V15H4C4,16.86 5.28,18.41 7,18.86V20A1,1 0 0,0 8,21H16A1,1 0 0,0 17,20V18.86C18.72,18.41 20,16.86 20,15H17V13.86C18.72,13.41 20,11.86 20,10Z" />
    </g>
    <g id="mdi-traffic-light" transform="translate(252 252) scale(1.5)" fill="#fff">
      <path d="M12,9A2,2 0 0,1 10,7C10,5.89 10.9,5 12,5C13.11,5 14,5.89 14,7A2,2 0 0,1 12,9M12,14A2,2 0 0,1 10,12C10,10.89 10.9,10 12,10C13.11,10 14,10.89 14,12A2,2 0 0,1 12,14M12,19A2,2 0 0,1 10,17C10,15.89 10.9,15 12,15C13.11,15 14,15.89 14,17A2,2 0 0,1 12,19M20,10H17V8.86C18.72,8.41 20,6.86 20,5H17V4A1,1 0 0,0 16,3H8A1,1 0 0,0 7,4V5H4C4,6.86 5.28,8.41 7,8.86V10H4C4,11.86 5.28,13.41 7,13.86V15H4C4,16.86 5.28,18.41 7,18.86V20A1,1 0 0,0 8,21H16A1,1 0 0,0 17,20V18.86C18.72,18.41 20,16.86 20,15H17V13.86C18.72,13.41 20,11.86 20,10Z" />
    </g>
    <g id="mdi-train" transform="translate(288 252) scale(1.5)" fill="#555">
      <path d="M12,2C8,2 4,2.5 4,6V15.5A3.5,3.5 0 0,0 7.5,19L6,20.5V21H8.23L10.23,19H14L16,21H18V20.5L16.5,19A3.5,3.5 0 0,0 20,15.5V6C20,2.5 16.42,2 12,2M7.5,17A1.5,1.5 0 0,1 6,15.5A1.5,1.5 0 0,1 7.5,14A1.5,1.5 0 0,1 9,15.5A1.5,1.5 0 0,1 7.5,17M11,10H6V6H11V10M13,10V6H18V10H13M16.5,17A1.5,1.5 0 0,1 15,15.5A1.5,1.5 0 0,1 16.5,14A1.5,1.5 0 0,1 18,15.5A1.5,1.5 0 0,1 16.5,17Z" />
    </g>
    <g id="mdi-train" transform="translate(324 252) scale(1.5)" fill="#fff">
      <path d="M12,2C8,2 4,2.5 4,6V15.5A3.5,3.5 0 0,0 7.5,19L6,20.5V21H8.23L10.23,19H14L16,21H18V20.5L16.5,19A3.5,3.5 0 0,0 20,15.5V6C20,2.5 16.42,2 12,2M7.5,17A1.5,1.5 0 0,1 6,15.5A1.5,1.5 0 0,1 7.5,14A1.5,1.5 0 0,1 9,15.5A1.5,1.5 0 0,1 7.5,17M11,10H6V6H11V10M13,10V6H18V10H13M16.5,17A1.5,1.5 0 0,1 15,15.5A1.5,1.5 0 0,1 16.5,14A1.5,1.5 0 0,1 18,15.5A1.5,1.5 0 0,1 16.5,17Z" />
    </g>
    <g id="mdi-train-car" transform="translate(360 252) scale(1.5)" fill="#555">
      <path d="M12,4H5A3,3 0 0,0 2,7V15A3,3 0 0,0 5,18L4,19V20H5L7,17.97L9,18V13H4V6H13V8H15V7A3,3 0 0,0 12,4M5,14A1,1 0 0,1 6,15A1,1 0 0,1 5,16A1,1 0 0,1 4,15A1,1 0 0,1 5,14M20.57,9.66C20.43,9.26 20.05,9 19.6,9H12.41C11.95,9 11.58,9.26 11.43,9.66L10,13.77V19.28C10,19.66 10.32,20 10.7,20H11.32C11.7,20 12,19.62 12,19.24V18H20V19.24C20,19.62 20.31,20 20.69,20H21.3C21.68,20 22,19.66 22,19.28V17.91L22,13.77L20.57,9.66M12.41,10H19.6L20.63,13H11.38L12.41,10M12,16A1,1 0 0,1 11,15A1,1 0 0,1 12,14A1,1 0 0,1 13,15A1,1 0 0,1 12,16M20,16A1,1 0 0,1 19,15A1,1 0 0,1 20,14A1,1 0 0,1 21,15A1,1 0 0,1 20,16Z" />
    </g>
    <g id="mdi-train-car" transform="translate(396 252) scale(1.5)" fill="#fff">
      <path d="M12,4H5A3,3 0 0,0 2,7V15A3,3 0 0,0 5,18L4,19V20H5L7,17.97L9,18V13H4V6H13V8H15V7A3,3 0 0,0 12,4M5,14A1,1 0 0,1 6,15A1,1 0 0,1 5,16A1,1 0 0,1 4,15A1,1 0 0,1 5,14M20.57,9.66C20.43,9.26 20.05,9 19.6,9H12.41C11.95,9 11.58,9.26 11.43,9.66L10,13.77V19.28C10,19.66 10.32,20 10.7,20H11.32C11.7,20 12,19.62 12,19.24V18H20V19.24C20,19.62 20.31,20 20.69,20H21.3C21.68,20 22,19.66 22,19.28V17.91L22,13.77L20.57,9.66M12.41,10H19.6L20.63,13H11.38L12.41,10M12,16A1,1 0 0,1 11,15A1,1 0 0,1 12,14A1,1 0 0,1 13,15A1,1 0 0,1 12,16M20,16A1,1 0 0,1 19,15A1,1 0 0,1 20,14A1,1 0 0,1 21,15A1,1 0 0,1 20,16Z" />
    </g>
    <g id="mdi-train-variant" transform="translate(432 252) scale(1.5)" fill="#555">
      <path d="M18,10H6V5H18M12,17C10.89,17 10,16.1 10,15C10,13.89 10.89,13 12,13A2,2 0 0,1 14,15A2,2 0 0,1 12,17M4,15.5A3.5,3.5 0 0,0 7.5,19L6,20.5V21H18V20.5L16.5,19A3.5,3.5 0 0,0 20,15.5V5C20,1.5 16.42,1 12,1C7.58,1 4,1.5 4,5V15.5Z" />
    </g>
    <g id="mdi-train-variant" transform="translate(468 252) scale(1.5)" fill="#fff">
      <path d="M18,10H6V5H18M12,17C10.89,17 10,16.1 10,15C10,13.89 10.89,13 12,13A2,2 0 0,1 14,15A2,2 0 0,1 12,17M4,15.5A3.5,3.5 0 0,0 7.5,19L6,20.5V21H18V20.5L16.5,19A3.5,3.5 0 0,0 20,15.5V5C20,1.5 16.42,1 12,1C7.58,1 4,1.5 4,5V15.5Z" />
    </g>
    <g id="mdi-tram" transform="translate(504 252) scale(1.5)" fill="#555">
      <path d="M19,16.94V8.5C19,5.71 16.39,5.1 13,5L13.75,3.5H17V2H7V3.5H11.75L11,5C7.86,5.11 5,5.73 5,8.5V16.94C5,18.39 6.19,19.6 7.59,19.91L6,21.5V22H8.23L10.23,20H14L16,22H18V21.5L16.5,20H16.42C18.11,20 19,18.63 19,16.94M12,18.5A1.5,1.5 0 0,1 10.5,17A1.5,1.5 0 0,1 12,15.5A1.5,1.5 0 0,1 13.5,17A1.5,1.5 0 0,1 12,18.5M17,14H7V9H17V14Z" />
    </g>
    <g id="mdi-tram" transform="translate(540 252) scale(1.5)" fill="#fff">
      <path d="M19,16.94V8.5C19,5.71 16.39,5.1 13,5L13.75,3.5H17V2H7V3.5H11.75L11,5C7.86,5.11 5,5.73 5,8.5V16.94C5,18.39 6.19,19.6 7.59,19.91L6,21.5V22H8.23L10.23,20H14L16,22H18V21.5L16.5,20H16.42C18.11,20 19,18.63 19,16.94M12,18.5A1.5,1.5 0 0,1 10.5,17A1.5,1.5 0 0,1 12,15.5A1.5,1.5 0 0,1 13.5,17A1.5,1.5 0 0,1 12,18.5M17,14H7V9H17V14Z" />
    </g>
    <g id="mdi-tram-side" transform="translate(576 252) scale(1.5)" fill="#555">
      <path d="M9 1L5 4L7.5 6H5C5 6 2 6 2 9V19H7C7 19 7 17 9 17H22V14H18V8H22V6H10.5L13 4L9 1M4 8H9V14H4V8M11 8H16V14H11V8M4 16H5V18H4V16M9 19V19.5C9 20.88 10.12 22 11.5 22C12.5 22 13.39 21.41 13.79 20.5H15.21C15.61 21.41 16.5 22 17.5 22C18.88 22 20 20.88 20 19.5V19H9Z" />
    </g>
    <g id="mdi-tram-side" transform="translate(612 252) scale(1.5)" fill="#fff">
      <path d="M9 1L5 4L7.5 6H5C5 6 2 6 2 9V19H7C7 19 7 17 9 17H22V14H18V8H22V6H10.5L13 4L9 1M4 8H9V14H4V8M11 8H16V14H11V8M4 16H5V18H4V16M9 19V19.5C9 20.88 10.12 22 11.5 22C12.5 22 13.39 21.41 13.79 20.5H15.21C15.61 21.41 16.5 22 17.5 22C18.88 22 20 20.88 20 19.5V19H9Z" />
    </g>
    <g id="mdi-transcribe" transform="translate(648 252) scale(1.5)" fill="#555">
      <path d="M20,5A2,2 0 0,1 22,7V17A2,2 0 0,1 20,19H4C2.89,19 2,18.1 2,17V7C2,5.89 2.89,5 4,5H20M18,17V15H12.5L10.5,17H18M6,17H8.5L15.35,10.12C15.55,9.93 15.55,9.61 15.35,9.41L13.59,7.65C13.39,7.45 13.07,7.45 12.88,7.65L6,14.53V17Z" />
    </g>
    <g id="mdi-transcribe" transform="translate(684 252) scale(1.5)" fill="#fff">
      <path d="M20,5A2,2 0 0,1 22,7V17A2,2 0 0,1 20,19H4C2.89,19 2,18.1 2,17V7C2,5.89 2.89,5 4,5H20M18,17V15H12.5L10.5,17H18M6,17H8.5L15.35,10.12C15.55,9.93 15.55,9.61 15.35,9.41L13.59,7.65C13.39,7.45 13.07,7.45 12.88,7.65L6,14.53V17Z" />
    </g>
    <g id="mdi-transcribe-close" transform="translate(0 288) scale(1.5)" fill="#555">
      <path d="M12,23L8,19H16L12,23M20,3A2,2 0 0,1 22,5V15A2,2 0 0,1 20,17H4A2,2 0 0,1 2,15V5A2,2 0 0,1 4,3H20M18,15V13H12.5L10.5,15H18M6,15H8.5L15.35,8.12C15.55,7.93 15.55,7.61 15.35,7.42L13.59,5.65C13.39,5.45 13.07,5.45 12.88,5.65L6,12.53V15Z" />
    </g>
    <g id="mdi-transcribe-close" transform="translate(36 288) scale(1.5)" fill="#fff">
      <path d="M12,23L8,19H16L12,23M20,3A2,2 0 0,1 22,5V15A2,2 0 0,1 20,17H4A2,2 0 0,1 2,15V5A2,2 0 0,1 4,3H20M18,15V13H12.5L10.5,15H18M6,15H8.5L15.35,8.12C15.55,7.93 15.55,7.61 15.35,7.42L13.59,5.65C13.39,5.45 13.07,5.45 12.88,5.65L6,12.53V15Z" />
    </g>
    <g id="mdi-transfer" transform="translate(72 288) scale(1.5)" fill="#555">
      <path d="M8 4A2 2 0 0 0 6 6V10H8V6H16V9H13.5L17 12.5L20.5 9H18V6A2 2 0 0 0 16 4H8M3 12V14H11V12H3M3 15V17H11V15H3M13 15V17H21V15H13M3 18V20H11V18H3M13 18V20H21V18H13Z" />
    </g>
    <g id="mdi-transfer" transform="translate(108 288) scale(1.5)" fill="#fff">
      <path d="M8 4A2 2 0 0 0 6 6V10H8V6H16V9H13.5L17 12.5L20.5 9H18V6A2 2 0 0 0 16 4H8M3 12V14H11V12H3M3 15V17H11V15H3M13 15V17H21V15H13M3 18V20H11V18H3M13 18V20H21V18H13Z" />
    </g>
    <g id="mdi-transfer-down" transform="translate(144 288) scale(1.5)" fill="#555">
      <path d="M16,3V5H8V3H16M16,7V9H8V7H16M16,11V13H8V11H16M5,15H19L12,22L5,15Z" />
    </g>
    <g id="mdi-transfer-down" transform="translate(180 288) scale(1.5)" fill="#fff">
      <path d="M16,3V5H8V3H16M16,7V9H8V7H16M16,11V13H8V11H16M5,15H19L12,22L5,15Z" />
    </g>
    <g id="mdi-transfer-left" transform="translate(216 288) scale(1.5)" fill="#555">
      <path d="M21,16H19V8H21V16M17,16H15V8H17V16M13,16H11V8H13V16M9,5V19L2,12L9,5Z" />
    </g>
    <g id="mdi-transfer-left" transform="translate(252 288) scale(1.5)" fill="#fff">
      <path d="M21,16H19V8H21V16M17,16H15V8H17V16M13,16H11V8H13V16M9,5V19L2,12L9,5Z" />
    </g>
    <g id="mdi-transfer-right" transform="translate(288 288) scale(1.5)" fill="#555">
      <path d="M3,8H5V16H3V8M7,8H9V16H7V8M11,8H13V16H11V8M15,19.25V4.75L22.25,12L15,19.25Z" />
    </g>
    <g id="mdi-transfer-right" transform="translate(324 288) scale(1.5)" fill="#fff">
      <path d="M3,8H5V16H3V8M7,8H9V16H7V8M11,8H13V16H11V8M15,19.25V4.75L22.25,12L15,19.25Z" />
    </g>
    <g id="mdi-transfer-up" transform="translate(360 288) scale(1.5)" fill="#555">
      <path d="M8,21V19H16V21H8M8,17V15H16V17H8M8,13V11H16V13H8M19,9H5L12,2L19,9Z" />
    </g>
    <g id="mdi-transfer-up" transform="translate(396 288) scale(1.5)" fill="#fff">
      <path d="M8,21V19H16V21H8M8,17V15H16V17H8M8,13V11H16V13H8M19,9H5L12,2L19,9Z" />
    </g>
    <g id="mdi-transit-connection" transform="translate(432 288) scale(1.5)" fill="#555">
      <path d="M15,12C15,10.7 14.16,9.6 13,9.18V6.82C14.16,6.4 15,5.3 15,4A3,3 0 0,0 12,1A3,3 0 0,0 9,4C9,5.3 9.84,6.4 11,6.82V9.19C9.84,9.6 9,10.7 9,12C9,13.3 9.84,14.4 11,14.82V17.18C9.84,17.6 9,18.7 9,20A3,3 0 0,0 12,23A3,3 0 0,0 15,20C15,18.7 14.16,17.6 13,17.18V14.82C14.16,14.4 15,13.3 15,12M12,3A1,1 0 0,1 13,4A1,1 0 0,1 12,5A1,1 0 0,1 11,4A1,1 0 0,1 12,3M12,21A1,1 0 0,1 11,20A1,1 0 0,1 12,19A1,1 0 0,1 13,20A1,1 0 0,1 12,21Z" />
    </g>
    <g id="mdi-transit-connection" transform="translate(468 288) scale(1.5)" fill="#fff">
      <path d="M15,12C15,10.7 14.16,9.6 13,9.18V6.82C14.16,6.4 15,5.3 15,4A3,3 0 0,0 12,1A3,3 0 0,0 9,4C9,5.3 9.84,6.4 11,6.82V9.19C9.84,9.6 9,10.7 9,12C9,13.3 9.84,14.4 11,14.82V17.18C9.84,17.6 9,18.7 9,20A3,3 0 0,0 12,23A3,3 0 0,0 15,20C15,18.7 14.16,17.6 13,17.18V14.82C14.16,14.4 15,13.3 15,12M12,3A1,1 0 0,1 13,4A1,1 0 0,1 12,5A1,1 0 0,1 11,4A1,1 0 0,1 12,3M12,21A1,1 0 0,1 11,20A1,1 0 0,1 12,19A1,1 0 0,1 13,20A1,1 0 0,1 12,21Z" />
    </g>
    <g id="mdi-transit-connection-variant" transform="translate(504 288) scale(1.5)" fill="#555">
      <path d="M18,11H14.82C14.4,9.84 13.3,9 12,9C10.7,9 9.6,9.84 9.18,11H6C5.67,11 4,10.9 4,9V8C4,6.17 5.54,6 6,6H16.18C16.6,7.16 17.7,8 19,8A3,3 0 0,0 22,5A3,3 0 0,0 19,2C17.7,2 16.6,2.84 16.18,4H6C4.39,4 2,5.06 2,8V9C2,11.94 4.39,13 6,13H9.18C9.6,14.16 10.7,15 12,15C13.3,15 14.4,14.16 14.82,13H18C18.33,13 20,13.1 20,15V16C20,17.83 18.46,18 18,18H7.82C7.4,16.84 6.3,16 5,16A3,3 0 0,0 2,19A3,3 0 0,0 5,22C6.3,22 7.4,21.16 7.82,20H18C19.61,20 22,18.93 22,16V15C22,12.07 19.61,11 18,11M19,4A1,1 0 0,1 20,5A1,1 0 0,1 19,6A1,1 0 0,1 18,5A1,1 0 0,1 19,4M5,20A1,1 0 0,1 4,19A1,1 0 0,1 5,18A1,1 0 0,1 6,19A1,1 0 0,1 5,20Z" />
    </g>
    <g id="mdi-transit-connection-variant" transform="translate(540 288) scale(1.5)" fill="#fff">
      <path d="M18,11H14.82C14.4,9.84 13.3,9 12,9C10.7,9 9.6,9.84 9.18,11H6C5.67,11 4,10.9 4,9V8C4,6.17 5.54,6 6,6H16.18C16.6,7.16 17.7,8 19,8A3,3 0 0,0 22,5A3,3 0 0,0 19,2C17.7,2 16.6,2.84 16.18,4H6C4.39,4 2,5.06 2,8V9C2,11.94 4.39,13 6,13H9.18C9.6,14.16 10.7,15 12,15C13.3,15 14.4,14.16 14.82,13H18C18.33,13 20,13.1 20,15V16C20,17.83 18.46,18 18,18H7.82C7.4,16.84 6.3,16 5,16A3,3 0 0,0 2,19A3,3 0 0,0 5,22C6.3,22 7.4,21.16 7.82,20H18C19.61,20 22,18.93 22,16V15C22,12.07 19.61,11 18,11M19,4A1,1 0 0,1 20,5A1,1 0 0,1 19,6A1,1 0 0,1 18,5A1,1 0 0,1 19,4M5,20A1,1 0 0,1 4,19A1,1 0 0,1 5,18A1,1 0 0,1 6,19A1,1 0 0,1 5,20Z" />
    </g>
    <g id="mdi-transit-detour" transform="translate(576 288) scale(1.5)" fill="#555">
      <path d="M19 3A3 3 0 0 0 16.61 4.21A11.5 11.5 0 0 0 13.75 4L13.88 6A9.47 9.47 0 0 1 16 6.13A3 3 0 1 0 19 3M19 7A1 1 0 1 1 20 6A1 1 0 0 1 19 7M8.86 7.86L7.67 6.25A11.5 11.5 0 0 1 11.6 4.37L12.1 6.31A9.5 9.5 0 0 0 8.86 7.86M21 18A3 3 0 1 1 15.69 16.11A9.47 9.47 0 0 0 8.59 13.46C8.37 13.47 8.16 13.5 7.94 13.54A3 3 0 1 1 4.39 10.06A11.54 11.54 0 0 1 6.04 7.7L7.5 9.06A9.34 9.34 0 0 0 6.5 10.41A3.04 3.04 0 0 1 7.62 11.56C7.91 11.5 8.19 11.5 8.5 11.46A11.47 11.47 0 0 1 17.46 15.05A2.96 2.96 0 0 1 18 15A3 3 0 0 1 21 18Z" />
    </g>
    <g id="mdi-transit-detour" transform="translate(612 288) scale(1.5)" fill="#fff">
      <path d="M19 3A3 3 0 0 0 16.61 4.21A11.5 11.5 0 0 0 13.75 4L13.88 6A9.47 9.47 0 0 1 16 6.13A3 3 0 1 0 19 3M19 7A1 1 0 1 1 20 6A1 1 0 0 1 19 7M8.86 7.86L7.67 6.25A11.5 11.5 0 0 1 11.6 4.37L12.1 6.31A9.5 9.5 0 0 0 8.86 7.86M21 18A3 3 0 1 1 15.69 16.11A9.47 9.47 0 0 0 8.59 13.46C8.37 13.47 8.16 13.5 7.94 13.54A3 3 0 1 1 4.39 10.06A11.54 11.54 0 0 1 6.04 7.7L7.5 9.06A9.34 9.34 0 0 0 6.5 10.41A3.04 3.04 0 0 1 7.62 11.56C7.91 11.5 8.19 11.5 8.5 11.46A11.47 11.47 0 0 1 17.46 15.05A2.96 2.96 0 0 1 18 15A3 3 0 0 1 21 18Z" />
    </g>
    <g id="mdi-transit-transfer" transform="translate(648 288) scale(1.5)" fill="#555">
      <path d="M16.5,15.5H22V17H16.5V18.75L14,16.25L16.5,13.75V15.5M19.5,19.75V18L22,20.5L19.5,23V21.25H14V19.75H19.5M9.5,5.5A2,2 0 0,1 7.5,3.5A2,2 0 0,1 9.5,1.5A2,2 0 0,1 11.5,3.5A2,2 0 0,1 9.5,5.5M5.75,8.9L4,9.65V13H2V8.3L7.25,6.15C7.5,6.05 7.75,6 8,6C8.7,6 9.35,6.35 9.7,6.95L10.65,8.55C11.55,10 13.15,11 15,11V13C12.8,13 10.85,12 9.55,10.4L8.95,13.4L11,15.45V23H9V17L6.85,15L5.1,23H3L5.75,8.9Z" />
    </g>
    <g id="mdi-transit-transfer" transform="translate(684 288) scale(1.5)" fill="#fff">
      <path d="M16.5,15.5H22V17H16.5V18.75L14,16.25L16.5,13.75V15.5M19.5,19.75V18L22,20.5L19.5,23V21.25H14V19.75H19.5M9.5,5.5A2,2 0 0,1 7.5,3.5A2,2 0 0,1 9.5,1.5A2,2 0 0,1 11.5,3.5A2,2 0 0,1 9.5,5.5M5.75,8.9L4,9.65V13H2V8.3L7.25,6.15C7.5,6.05 7.75,6 8,6C8.7,6 9.35,6.35 9.7,6.95L10.65,8.55C11.55,10 13.15,11 15,11V13C12.8,13 10.85,12 9.55,10.4L8.95,13.4L11,15.45V23H9V17L6.85,15L5.1,23H3L5.75,8.9Z" />
    </g>
    <g id="mdi-transition" transform="translate(0 324) scale(1.5)" fill="#555">
      <path d="M15,2A7,7 0 0,1 22,9C22,11.71 20.46,14.05 18.22,15.22C17.55,16.5 16.5,17.55 15.22,18.22C14.05,20.46 11.71,22 9,22A7,7 0 0,1 2,15C2,12.29 3.54,9.95 5.78,8.78C6.45,7.5 7.5,6.45 8.78,5.78C9.95,3.54 12.29,2 15,2M12,19A7,7 0 0,1 5,12C4.37,12.84 4,13.87 4,15A5,5 0 0,0 9,20C10.13,20 11.16,19.63 12,19M15,16A7,7 0 0,1 8,9H8C7.37,9.84 7,10.87 7,12A5,5 0 0,0 12,17C13.13,17 14.16,16.63 15,16V16M15,4C13.87,4 12.84,4.37 12,5V5A7,7 0 0,1 19,12H19C19.63,11.16 20,10.13 20,9A5,5 0 0,0 15,4M10,9A5,5 0 0,0 15,14C15.6,14 16.17,13.9 16.7,13.7C16.9,13.17 17,12.6 17,12A5,5 0 0,0 12,7C11.4,7 10.83,7.1 10.3,7.3C10.1,7.83 10,8.4 10,9Z" />
    </g>
    <g id="mdi-transition" transform="translate(36 324) scale(1.5)" fill="#fff">
      <path d="M15,2A7,7 0 0,1 22,9C22,11.71 20.46,14.05 18.22,15.22C17.55,16.5 16.5,17.55 15.22,18.22C14.05,20.46 11.71,22 9,22A7,7 0 0,1 2,15C2,12.29 3.54,9.95 5.78,8.78C6.45,7.5 7.5,6.45 8.78,5.78C9.95,3.54 12.29,2 15,2M12,19A7,7 0 0,1 5,12C4.37,12.84 4,13.87 4,15A5,5 0 0,0 9,20C10.13,20 11.16,19.63 12,19M15,16A7,7 0 0,1 8,9H8C7.37,9.84 7,10.87 7,12A5,5 0 0,0 12,17C13.13,17 14.16,16.63 15,16V16M15,4C13.87,4 12.84,4.37 12,5V5A7,7 0 0,1 19,12H19C19.63,11.16 20,10.13 20,9A5,5 0 0,0 15,4M10,9A5,5 0 0,0 15,14C15.6,14 16.17,13.9 16.7,13.7C16.9,13.17 17,12.6 17,12A5,5 0 0,0 12,7C11.4,7 10.83,7.1 10.3,7.3C10.1,7.83 10,8.4 10,9Z" />
    </g>
    <g id="mdi-transition-masked" transform="translate(72 324) scale(1.5)" fill="#555">
      <path d="M15,2C16.94,2 18.59,2.7 19.95,4.05C21.3,5.41 22,7.06 22,9C22,10.56 21.5,11.96 20.58,13.2C19.64,14.43 18.44,15.27 16.97,15.7L17,15.38V15C17,12.81 16.23,10.93 14.65,9.35C13.07,7.77 11.19,7 9,7H8.63L8.3,7.03C8.73,5.56 9.57,4.36 10.8,3.42C12.04,2.5 13.44,2 15,2M9,8A7,7 0 0,1 16,15A7,7 0 0,1 9,22A7,7 0 0,1 2,15A7,7 0 0,1 9,8M9,10A5,5 0 0,0 4,15A5,5 0 0,0 9,20A5,5 0 0,0 14,15A5,5 0 0,0 9,10Z" />
    </g>
    <g id="mdi-transition-masked" transform="translate(108 324) scale(1.5)" fill="#fff">
      <path d="M15,2C16.94,2 18.59,2.7 19.95,4.05C21.3,5.41 22,7.06 22,9C22,10.56 21.5,11.96 20.58,13.2C19.64,14.43 18.44,15.27 16.97,15.7L17,15.38V15C17,12.81 16.23,10.93 14.65,9.35C13.07,7.77 11.19,7 9,7H8.63L8.3,7.03C8.73,5.56 9.57,4.36 10.8,3.42C12.04,2.5 13.44,2 15,2M9,8A7,7 0 0,1 16,15A7,7 0 0,1 9,22A7,7 0 0,1 2,15A7,7 0 0,1 9,8M9,10A5,5 0 0,0 4,15A5,5 0 0,0 9,20A5,5 0 0,0 14,15A5,5 0 0,0 9,10Z" />
    </g>
    <g id="mdi-translate" transform="translate(144 324) scale(1.5)" fill="#555">
      <path d="M12.87,15.07L10.33,12.56L10.36,12.53C12.1,10.59 13.34,8.36 14.07,6H17V4H10V2H8V4H1V6H12.17C11.5,7.92 10.44,9.75 9,11.35C8.07,10.32 7.3,9.19 6.69,8H4.69C5.42,9.63 6.42,11.17 7.67,12.56L2.58,17.58L4,19L9,14L12.11,17.11L12.87,15.07M18.5,10H16.5L12,22H14L15.12,19H19.87L21,22H23L18.5,10M15.88,17L17.5,12.67L19.12,17H15.88Z" />
    </g>
    <g id="mdi-translate" transform="translate(180 324) scale(1.5)" fill="#fff">
      <path d="M12.87,15.07L10.33,12.56L10.36,12.53C12.1,10.59 13.34,8.36 14.07,6H17V4H10V2H8V4H1V6H12.17C11.5,7.92 10.44,9.75 9,11.35C8.07,10.32 7.3,9.19 6.69,8H4.69C5.42,9.63 6.42,11.17 7.67,12.56L2.58,17.58L4,19L9,14L12.11,17.11L12.87,15.07M18.5,10H16.5L12,22H14L15.12,19H19.87L21,22H23L18.5,10M15.88,17L17.5,12.67L19.12,17H15.88Z" />
    </g>
    <g id="mdi-translate-off" transform="translate(216 324) scale(1.5)" fill="#555">
      <path d="M12.17,5.81C11.87,6.69 11.47,7.55 11,8.39L12.35,9.74C13.11,8.5 13.71,7.18 14.13,5.81H17.16V3.75H9.94V1.69H7.87V3.75H6.37L8.43,5.81H12.17M15.53,12.91L17.03,14.41L17.67,12.69L19.08,16.47L22.39,19.77L18.7,9.94H16.64L15.53,12.91M1.31,1.31L0,2.62L1.13,3.75H0.65V5.81H3.19L5.26,7.88H4.46C5.21,9.56 6.24,11.15 7.53,12.58L2.28,17.76L3.75,19.22L8.91,14.07L12.11,17.27L12.8,15.43L14.1,16.72L12,22.31H14.06L15.22,19.22H16.6L21.38,24L22.69,22.69L1.31,1.31Z" />
    </g>
    <g id="mdi-translate-off" transform="translate(252 324) scale(1.5)" fill="#fff">
      <path d="M12.17,5.81C11.87,6.69 11.47,7.55 11,8.39L12.35,9.74C13.11,8.5 13.71,7.18 14.13,5.81H17.16V3.75H9.94V1.69H7.87V3.75H6.37L8.43,5.81H12.17M15.53,12.91L17.03,14.41L17.67,12.69L19.08,16.47L22.39,19.77L18.7,9.94H16.64L15.53,12.91M1.31,1.31L0,2.62L1.13,3.75H0.65V5.81H3.19L5.26,7.88H4.46C5.21,9.56 6.24,11.15 7.53,12.58L2.28,17.76L3.75,19.22L8.91,14.07L12.11,17.27L12.8,15.43L14.1,16.72L12,22.31H14.06L15.22,19.22H16.6L21.38,24L22.69,22.69L1.31,1.31Z" />
    </g>
    <g id="mdi-transmission-tower" transform="translate(288 324) scale(1.5)" fill="#555">
      <path d="M8.28,5.45L6.5,4.55L7.76,2H16.23L17.5,4.55L15.72,5.44L15,4H9L8.28,5.45M18.62,8H14.09L13.3,5H10.7L9.91,8H5.38L4.1,10.55L5.89,11.44L6.62,10H17.38L18.1,11.45L19.89,10.56L18.62,8M17.77,22H15.7L15.46,21.1L12,15.9L8.53,21.1L8.3,22H6.23L9.12,11H11.19L10.83,12.35L12,14.1L13.16,12.35L12.81,11H14.88L17.77,22M11.4,15L10.5,13.65L9.32,18.13L11.4,15M14.68,18.12L13.5,13.64L12.6,15L14.68,18.12Z" />
    </g>
    <g id="mdi-transmission-tower" transform="translate(324 324) scale(1.5)" fill="#fff">
      <path d="M8.28,5.45L6.5,4.55L7.76,2H16.23L17.5,4.55L15.72,5.44L15,4H9L8.28,5.45M18.62,8H14.09L13.3,5H10.7L9.91,8H5.38L4.1,10.55L5.89,11.44L6.62,10H17.38L18.1,11.45L19.89,10.56L18.62,8M17.77,22H15.7L15.46,21.1L12,15.9L8.53,21.1L8.3,22H6.23L9.12,11H11.19L10.83,12.35L12,14.1L13.16,12.35L12.81,11H14.88L17.77,22M11.4,15L10.5,13.65L9.32,18.13L11.4,15M14.68,18.12L13.5,13.64L12.6,15L14.68,18.12Z" />
    </g>
    <g id="mdi-trash-can" transform="translate(360 324) scale(1.5)" fill="#555">
      <path d="M9,3V4H4V6H5V19A2,2 0 0,0 7,21H17A2,2 0 0,0 19,19V6H20V4H15V3H9M9,8H11V17H9V8M13,8H15V17H13V8Z" />
    </g>
    <g id="mdi-trash-can" transform="translate(396 324) scale(1.5)" fill="#fff">
      <path d="M9,3V4H4V6H5V19A2,2 0 0,0 7,21H17A2,2 0 0,0 19,19V6H20V4H15V3H9M9,8H11V17H9V8M13,8H15V17H13V8Z" />
    </g>
    <g id="mdi-trash-can-outline" transform="translate(432 324) scale(1.5)" fill="#555">
      <path d="M9,3V4H4V6H5V19A2,2 0 0,0 7,21H17A2,2 0 0,0 19,19V6H20V4H15V3H9M7,6H17V19H7V6M9,8V17H11V8H9M13,8V17H15V8H13Z" />
    </g>
    <g id="mdi-trash-can-outline" transform="translate(468 324) scale(1.5)" fill="#fff">
      <path d="M9,3V4H4V6H5V19A2,2 0 0,0 7,21H17A2,2 0 0,0 19,19V6H20V4H15V3H9M7,6H17V19H7V6M9,8V17H11V8H9M13,8V17H15V8H13Z" />
    </g>
    <g id="mdi-tray" transform="translate(504 324) scale(1.5)" fill="#555">
      <path d="M2 12H4V17H20V12H22V17A2 2 0 0 1 20 19H4A2 2 0 0 1 2 17Z" />
    </g>
    <g id="mdi-tray" transform="translate(540 324) scale(1.5)" fill="#fff">
      <path d="M2 12H4V17H20V12H22V17A2 2 0 0 1 20 19H4A2 2 0 0 1 2 17Z" />
    </g>
    <g id="mdi-tray-alert" transform="translate(576 324) scale(1.5)" fill="#555">
      <path d="M2 12H4V17H20V12H22V17A2 2 0 0 1 20 19H4A2 2 0 0 1 2 17M13 12H11V14H13M13 4H11V10H13Z" />
    </g>
    <g id="mdi-tray-alert" transform="translate(612 324) scale(1.5)" fill="#fff">
      <path d="M2 12H4V17H20V12H22V17A2 2 0 0 1 20 19H4A2 2 0 0 1 2 17M13 12H11V14H13M13 4H11V10H13Z" />
    </g>
    <g id="mdi-tray-full" transform="translate(648 324) scale(1.5)" fill="#555">
      <path d="M18 5H6V7H18M6 9H18V11H6M2 12H4V17H20V12H22V17A2 2 0 0 1 20 19H4A2 2 0 0 1 2 17M18 13H6V15H18Z" />
    </g>
    <g id="mdi-tray-full" transform="translate(684 324) scale(1.5)" fill="#fff">
      <path d="M18 5H6V7H18M6 9H18V11H6M2 12H4V17H20V12H22V17A2 2 0 0 1 20 19H4A2 2 0 0 1 2 17M18 13H6V15H18Z" />
    </g>
  </svg>