<?xml version="1.0" encoding="UTF-8"?>
<!DOCTYPE svg PUBLIC "-//W3C//DTD SVG 1.1//EN" "http://www.w3.org/Graphics/SVG/1.1/DTD/svg11.dtd"><svg
  xmlns="http://www.w3.org/2000/svg" xmlns:xlink="http://www.w3.org/1999/xlink" version="1.1"
  width="720" height="900" viewBox="0 0 720 900">
    <g id="mdi-download-circle-outline" transform="translate(0 0) scale(1.5)" fill="#555">
      <path d="M8 17V15H16V17H8M16 10L12 14L8 10H10.5V6H13.5V10H16M12 2C17.5 2 22 6.5 22 12C22 17.5 17.5 22 12 22C6.5 22 2 17.5 2 12C2 6.5 6.5 2 12 2M12 4C7.58 4 4 7.58 4 12C4 16.42 7.58 20 12 20C16.42 20 20 16.42 20 12C20 7.58 16.42 4 12 4Z" />
    </g>
    <g id="mdi-download-circle-outline" transform="translate(36 0) scale(1.5)" fill="#fff">
      <path d="M8 17V15H16V17H8M16 10L12 14L8 10H10.5V6H13.5V10H16M12 2C17.5 2 22 6.5 22 12C22 17.5 17.5 22 12 22C6.5 22 2 17.5 2 12C2 6.5 6.5 2 12 2M12 4C7.58 4 4 7.58 4 12C4 16.42 7.58 20 12 20C16.42 20 20 16.42 20 12C20 7.58 16.42 4 12 4Z" />
    </g>
    <g id="mdi-download-lock" transform="translate(72 0) scale(1.5)" fill="#555">
      <path d="M5 20H14V18H5M19 9H15V3H9V9H5L12 16M22 16A1.08 1.08 0 0 1 23 17V21A1.08 1.08 0 0 1 22 22H17A1.08 1.08 0 0 1 16 21V17A1.08 1.08 0 0 1 17 16V14.5A2.5 2.5 0 0 1 22 14.5V16M21 16V14.5A1.5 1.5 0 0 0 18 14.5V16H21" />
    </g>
    <g id="mdi-download-lock" transform="translate(108 0) scale(1.5)" fill="#fff">
      <path d="M5 20H14V18H5M19 9H15V3H9V9H5L12 16M22 16A1.08 1.08 0 0 1 23 17V21A1.08 1.08 0 0 1 22 22H17A1.08 1.08 0 0 1 16 21V17A1.08 1.08 0 0 1 17 16V14.5A2.5 2.5 0 0 1 22 14.5V16M21 16V14.5A1.5 1.5 0 0 0 18 14.5V16H21" />
    </g>
    <g id="mdi-download-lock-outline" transform="translate(144 0) scale(1.5)" fill="#555">
      <path d="M22 16A1.08 1.08 0 0 1 23 17V21A1.08 1.08 0 0 1 22 22H17A1.08 1.08 0 0 1 16 21V17A1.08 1.08 0 0 1 17 16V14.5A2.5 2.5 0 0 1 22 14.5V16M21 16V14.5A1.5 1.5 0 0 0 18 14.5V16H21M13 5V11H14.17L12 13.17L9.83 11H11V5H13M15 3H9V9H5L12 16L19 9H15V3M14 18H5V20H14Z" />
    </g>
    <g id="mdi-download-lock-outline" transform="translate(180 0) scale(1.5)" fill="#fff">
      <path d="M22 16A1.08 1.08 0 0 1 23 17V21A1.08 1.08 0 0 1 22 22H17A1.08 1.08 0 0 1 16 21V17A1.08 1.08 0 0 1 17 16V14.5A2.5 2.5 0 0 1 22 14.5V16M21 16V14.5A1.5 1.5 0 0 0 18 14.5V16H21M13 5V11H14.17L12 13.17L9.83 11H11V5H13M15 3H9V9H5L12 16L19 9H15V3M14 18H5V20H14Z" />
    </g>
    <g id="mdi-download-multiple" transform="translate(216 0) scale(1.5)" fill="#555">
      <path d="M9,1V7H5L12,14L19,7H15V1H9M5,16V18H19V16H5M5,20V22H19V20H5Z" />
    </g>
    <g id="mdi-download-multiple" transform="translate(252 0) scale(1.5)" fill="#fff">
      <path d="M9,1V7H5L12,14L19,7H15V1H9M5,16V18H19V16H5M5,20V22H19V20H5Z" />
    </g>
    <g id="mdi-download-network" transform="translate(288 0) scale(1.5)" fill="#555">
      <path d="M17,3A2,2 0 0,1 19,5V15A2,2 0 0,1 17,17H13V19H14A1,1 0 0,1 15,20H22V22H15A1,1 0 0,1 14,23H10A1,1 0 0,1 9,22H2V20H9A1,1 0 0,1 10,19H11V17H7C5.89,17 5,16.1 5,15V5A2,2 0 0,1 7,3H17M12,14.5L16.5,10H13V6H11V10H7.5L12,14.5Z" />
    </g>
    <g id="mdi-download-network" transform="translate(324 0) scale(1.5)" fill="#fff">
      <path d="M17,3A2,2 0 0,1 19,5V15A2,2 0 0,1 17,17H13V19H14A1,1 0 0,1 15,20H22V22H15A1,1 0 0,1 14,23H10A1,1 0 0,1 9,22H2V20H9A1,1 0 0,1 10,19H11V17H7C5.89,17 5,16.1 5,15V5A2,2 0 0,1 7,3H17M12,14.5L16.5,10H13V6H11V10H7.5L12,14.5Z" />
    </g>
    <g id="mdi-download-network-outline" transform="translate(360 0) scale(1.5)" fill="#555">
      <path d="M15,20A1,1 0 0,0 14,19H13V17H17A2,2 0 0,0 19,15V5A2,2 0 0,0 17,3H7A2,2 0 0,0 5,5V15A2,2 0 0,0 7,17H11V19H10A1,1 0 0,0 9,20H2V22H9A1,1 0 0,0 10,23H14A1,1 0 0,0 15,22H22V20H15M7,15V5H17V15H7M12,14L16,10H13V6H11V10H8L12,14Z" />
    </g>
    <g id="mdi-download-network-outline" transform="translate(396 0) scale(1.5)" fill="#fff">
      <path d="M15,20A1,1 0 0,0 14,19H13V17H17A2,2 0 0,0 19,15V5A2,2 0 0,0 17,3H7A2,2 0 0,0 5,5V15A2,2 0 0,0 7,17H11V19H10A1,1 0 0,0 9,20H2V22H9A1,1 0 0,0 10,23H14A1,1 0 0,0 15,22H22V20H15M7,15V5H17V15H7M12,14L16,10H13V6H11V10H8L12,14Z" />
    </g>
    <g id="mdi-download-off" transform="translate(432 0) scale(1.5)" fill="#555">
      <path d="M20.84 22.73L18.11 20H5V18H16.11L13.06 14.95L12 16L5 9H7.11L1.11 3L2.39 1.73L22.11 21.46L20.84 22.73M19 9H15V3H9V5.8L15.6 12.4L19 9Z" />
    </g>
    <g id="mdi-download-off" transform="translate(468 0) scale(1.5)" fill="#fff">
      <path d="M20.84 22.73L18.11 20H5V18H16.11L13.06 14.95L12 16L5 9H7.11L1.11 3L2.39 1.73L22.11 21.46L20.84 22.73M19 9H15V3H9V5.8L15.6 12.4L19 9Z" />
    </g>
    <g id="mdi-download-off-outline" transform="translate(504 0) scale(1.5)" fill="#555">
      <path d="M22.11 21.46L2.39 1.73L1.11 3L7.11 9H5L12 16L13.06 14.95L16.11 18H5V20H18.11L20.84 22.73L22.11 21.46M11 5H13V9.8L15.6 12.4L19 9H15V3H9V5.8L11 7.8V5Z" />
    </g>
    <g id="mdi-download-off-outline" transform="translate(540 0) scale(1.5)" fill="#fff">
      <path d="M22.11 21.46L2.39 1.73L1.11 3L7.11 9H5L12 16L13.06 14.95L16.11 18H5V20H18.11L20.84 22.73L22.11 21.46M11 5H13V9.8L15.6 12.4L19 9H15V3H9V5.8L11 7.8V5Z" />
    </g>
    <g id="mdi-download-outline" transform="translate(576 0) scale(1.5)" fill="#555">
      <path d="M13,5V11H14.17L12,13.17L9.83,11H11V5H13M15,3H9V9H5L12,16L19,9H15V3M19,18H5V20H19V18Z" />
    </g>
    <g id="mdi-download-outline" transform="translate(612 0) scale(1.5)" fill="#fff">
      <path d="M13,5V11H14.17L12,13.17L9.83,11H11V5H13M15,3H9V9H5L12,16L19,9H15V3M19,18H5V20H19V18Z" />
    </g>
    <g id="mdi-drag" transform="translate(648 0) scale(1.5)" fill="#555">
      <path d="M7,19V17H9V19H7M11,19V17H13V19H11M15,19V17H17V19H15M7,15V13H9V15H7M11,15V13H13V15H11M15,15V13H17V15H15M7,11V9H9V11H7M11,11V9H13V11H11M15,11V9H17V11H15M7,7V5H9V7H7M11,7V5H13V7H11M15,7V5H17V7H15Z" />
    </g>
    <g id="mdi-drag" transform="translate(684 0) scale(1.5)" fill="#fff">
      <path d="M7,19V17H9V19H7M11,19V17H13V19H11M15,19V17H17V19H15M7,15V13H9V15H7M11,15V13H13V15H11M15,15V13H17V15H15M7,11V9H9V11H7M11,11V9H13V11H11M15,11V9H17V11H15M7,7V5H9V7H7M11,7V5H13V7H11M15,7V5H17V7H15Z" />
    </g>
    <g id="mdi-drag-horizontal" transform="translate(0 36) scale(1.5)" fill="#555">
      <path d="M3,15V13H5V15H3M3,11V9H5V11H3M7,15V13H9V15H7M7,11V9H9V11H7M11,15V13H13V15H11M11,11V9H13V11H11M15,15V13H17V15H15M15,11V9H17V11H15M19,15V13H21V15H19M19,11V9H21V11H19Z" />
    </g>
    <g id="mdi-drag-horizontal" transform="translate(36 36) scale(1.5)" fill="#fff">
      <path d="M3,15V13H5V15H3M3,11V9H5V11H3M7,15V13H9V15H7M7,11V9H9V11H7M11,15V13H13V15H11M11,11V9H13V11H11M15,15V13H17V15H15M15,11V9H17V11H15M19,15V13H21V15H19M19,11V9H21V11H19Z" />
    </g>
    <g id="mdi-drag-horizontal-variant" transform="translate(72 36) scale(1.5)" fill="#555">
      <path d="M21 11H3V9H21V11M21 13H3V15H21V13Z" />
    </g>
    <g id="mdi-drag-horizontal-variant" transform="translate(108 36) scale(1.5)" fill="#fff">
      <path d="M21 11H3V9H21V11M21 13H3V15H21V13Z" />
    </g>
    <g id="mdi-drag-variant" transform="translate(144 36) scale(1.5)" fill="#555">
      <path d="M22.67,12L18.18,16.5L15.67,14L17.65,12L15.67,10.04L18.18,7.53L22.67,12M12,1.33L16.47,5.82L13.96,8.33L12,6.35L10,8.33L7.5,5.82L12,1.33M12,22.67L7.53,18.18L10.04,15.67L12,17.65L14,15.67L16.5,18.18L12,22.67M1.33,12L5.82,7.5L8.33,10L6.35,12L8.33,13.96L5.82,16.47L1.33,12M12,10A2,2 0 0,1 14,12A2,2 0 0,1 12,14A2,2 0 0,1 10,12A2,2 0 0,1 12,10Z" />
    </g>
    <g id="mdi-drag-variant" transform="translate(180 36) scale(1.5)" fill="#fff">
      <path d="M22.67,12L18.18,16.5L15.67,14L17.65,12L15.67,10.04L18.18,7.53L22.67,12M12,1.33L16.47,5.82L13.96,8.33L12,6.35L10,8.33L7.5,5.82L12,1.33M12,22.67L7.53,18.18L10.04,15.67L12,17.65L14,15.67L16.5,18.18L12,22.67M1.33,12L5.82,7.5L8.33,10L6.35,12L8.33,13.96L5.82,16.47L1.33,12M12,10A2,2 0 0,1 14,12A2,2 0 0,1 12,14A2,2 0 0,1 10,12A2,2 0 0,1 12,10Z" />
    </g>
    <g id="mdi-drag-vertical" transform="translate(216 36) scale(1.5)" fill="#555">
      <path d="M9,3H11V5H9V3M13,3H15V5H13V3M9,7H11V9H9V7M13,7H15V9H13V7M9,11H11V13H9V11M13,11H15V13H13V11M9,15H11V17H9V15M13,15H15V17H13V15M9,19H11V21H9V19M13,19H15V21H13V19Z" />
    </g>
    <g id="mdi-drag-vertical" transform="translate(252 36) scale(1.5)" fill="#fff">
      <path d="M9,3H11V5H9V3M13,3H15V5H13V3M9,7H11V9H9V7M13,7H15V9H13V7M9,11H11V13H9V11M13,11H15V13H13V11M9,15H11V17H9V15M13,15H15V17H13V15M9,19H11V21H9V19M13,19H15V21H13V19Z" />
    </g>
    <g id="mdi-drag-vertical-variant" transform="translate(288 36) scale(1.5)" fill="#555">
      <path d="M11 21H9V3H11V21M15 3H13V21H15V3Z" />
    </g>
    <g id="mdi-drag-vertical-variant" transform="translate(324 36) scale(1.5)" fill="#fff">
      <path d="M11 21H9V3H11V21M15 3H13V21H15V3Z" />
    </g>
    <g id="mdi-drama-masks" transform="translate(360 36) scale(1.5)" fill="#555">
      <path d="M8.11,19.45C5.94,18.65 4.22,16.78 3.71,14.35L2.05,6.54C1.81,5.46 2.5,4.4 3.58,4.17L13.35,2.1L13.38,2.09C14.45,1.88 15.5,2.57 15.72,3.63L16.07,5.3L20.42,6.23H20.45C21.5,6.47 22.18,7.53 21.96,8.59L20.3,16.41C19.5,20.18 15.78,22.6 12,21.79C10.42,21.46 9.08,20.61 8.11,19.45V19.45M20,8.18L10.23,6.1L8.57,13.92V13.95C8,16.63 9.73,19.27 12.42,19.84C15.11,20.41 17.77,18.69 18.34,16L20,8.18M16,16.5C15.37,17.57 14.11,18.16 12.83,17.89C11.56,17.62 10.65,16.57 10.5,15.34L16,16.5M8.47,5.17L4,6.13L5.66,13.94L5.67,13.97C5.82,14.68 6.12,15.32 6.53,15.87C6.43,15.1 6.45,14.3 6.62,13.5L7.05,11.5C6.6,11.42 6.21,11.17 6,10.81C6.06,10.2 6.56,9.66 7.25,9.5C7.33,9.5 7.4,9.5 7.5,9.5L8.28,5.69C8.32,5.5 8.38,5.33 8.47,5.17M15.03,12.23C15.35,11.7 16.03,11.42 16.72,11.57C17.41,11.71 17.91,12.24 18,12.86C17.67,13.38 17,13.66 16.3,13.5C15.61,13.37 15.11,12.84 15.03,12.23M10.15,11.19C10.47,10.66 11.14,10.38 11.83,10.53C12.5,10.67 13.03,11.21 13.11,11.82C12.78,12.34 12.11,12.63 11.42,12.5C10.73,12.33 10.23,11.8 10.15,11.19M11.97,4.43L13.93,4.85L13.77,4.05L11.97,4.43Z" />
    </g>
    <g id="mdi-drama-masks" transform="translate(396 36) scale(1.5)" fill="#fff">
      <path d="M8.11,19.45C5.94,18.65 4.22,16.78 3.71,14.35L2.05,6.54C1.81,5.46 2.5,4.4 3.58,4.17L13.35,2.1L13.38,2.09C14.45,1.88 15.5,2.57 15.72,3.63L16.07,5.3L20.42,6.23H20.45C21.5,6.47 22.18,7.53 21.96,8.59L20.3,16.41C19.5,20.18 15.78,22.6 12,21.79C10.42,21.46 9.08,20.61 8.11,19.45V19.45M20,8.18L10.23,6.1L8.57,13.92V13.95C8,16.63 9.73,19.27 12.42,19.84C15.11,20.41 17.77,18.69 18.34,16L20,8.18M16,16.5C15.37,17.57 14.11,18.16 12.83,17.89C11.56,17.62 10.65,16.57 10.5,15.34L16,16.5M8.47,5.17L4,6.13L5.66,13.94L5.67,13.97C5.82,14.68 6.12,15.32 6.53,15.87C6.43,15.1 6.45,14.3 6.62,13.5L7.05,11.5C6.6,11.42 6.21,11.17 6,10.81C6.06,10.2 6.56,9.66 7.25,9.5C7.33,9.5 7.4,9.5 7.5,9.5L8.28,5.69C8.32,5.5 8.38,5.33 8.47,5.17M15.03,12.23C15.35,11.7 16.03,11.42 16.72,11.57C17.41,11.71 17.91,12.24 18,12.86C17.67,13.38 17,13.66 16.3,13.5C15.61,13.37 15.11,12.84 15.03,12.23M10.15,11.19C10.47,10.66 11.14,10.38 11.83,10.53C12.5,10.67 13.03,11.21 13.11,11.82C12.78,12.34 12.11,12.63 11.42,12.5C10.73,12.33 10.23,11.8 10.15,11.19M11.97,4.43L13.93,4.85L13.77,4.05L11.97,4.43Z" />
    </g>
    <g id="mdi-draw" transform="translate(432 36) scale(1.5)" fill="#555">
      <path d="M9.75 20.85C11.53 20.15 11.14 18.22 10.24 17C9.35 15.75 8.12 14.89 6.88 14.06C6 13.5 5.19 12.8 4.54 12C4.26 11.67 3.69 11.06 4.27 10.94C4.86 10.82 5.88 11.4 6.4 11.62C7.31 12 8.21 12.44 9.05 12.96L10.06 11.26C8.5 10.23 6.5 9.32 4.64 9.05C3.58 8.89 2.46 9.11 2.1 10.26C1.78 11.25 2.29 12.25 2.87 13.03C4.24 14.86 6.37 15.74 7.96 17.32C8.3 17.65 8.71 18.04 8.91 18.5C9.12 18.94 9.07 18.97 8.6 18.97C7.36 18.97 5.81 18 4.8 17.36L3.79 19.06C5.32 20 7.88 21.47 9.75 20.85M20.84 5.25C21.06 5.03 21.06 4.67 20.84 4.46L19.54 3.16C19.33 2.95 18.97 2.95 18.76 3.16L17.74 4.18L19.82 6.26M11 10.92V13H13.08L19.23 6.85L17.15 4.77L11 10.92Z" />
    </g>
    <g id="mdi-draw" transform="translate(468 36) scale(1.5)" fill="#fff">
      <path d="M9.75 20.85C11.53 20.15 11.14 18.22 10.24 17C9.35 15.75 8.12 14.89 6.88 14.06C6 13.5 5.19 12.8 4.54 12C4.26 11.67 3.69 11.06 4.27 10.94C4.86 10.82 5.88 11.4 6.4 11.62C7.31 12 8.21 12.44 9.05 12.96L10.06 11.26C8.5 10.23 6.5 9.32 4.64 9.05C3.58 8.89 2.46 9.11 2.1 10.26C1.78 11.25 2.29 12.25 2.87 13.03C4.24 14.86 6.37 15.74 7.96 17.32C8.3 17.65 8.71 18.04 8.91 18.5C9.12 18.94 9.07 18.97 8.6 18.97C7.36 18.97 5.81 18 4.8 17.36L3.79 19.06C5.32 20 7.88 21.47 9.75 20.85M20.84 5.25C21.06 5.03 21.06 4.67 20.84 4.46L19.54 3.16C19.33 2.95 18.97 2.95 18.76 3.16L17.74 4.18L19.82 6.26M11 10.92V13H13.08L19.23 6.85L17.15 4.77L11 10.92Z" />
    </g>
    <g id="mdi-drawing" transform="translate(504 36) scale(1.5)" fill="#555">
      <path d="M8.5,3A5.5,5.5 0 0,1 14,8.5C14,9.83 13.53,11.05 12.74,12H21V21H12V12.74C11.05,13.53 9.83,14 8.5,14A5.5,5.5 0 0,1 3,8.5A5.5,5.5 0 0,1 8.5,3Z" />
    </g>
    <g id="mdi-drawing" transform="translate(540 36) scale(1.5)" fill="#fff">
      <path d="M8.5,3A5.5,5.5 0 0,1 14,8.5C14,9.83 13.53,11.05 12.74,12H21V21H12V12.74C11.05,13.53 9.83,14 8.5,14A5.5,5.5 0 0,1 3,8.5A5.5,5.5 0 0,1 8.5,3Z" />
    </g>
    <g id="mdi-drawing-box" transform="translate(576 36) scale(1.5)" fill="#555">
      <path d="M18,18H12V12.21C11.34,12.82 10.47,13.2 9.5,13.2C7.46,13.2 5.8,11.54 5.8,9.5A3.7,3.7 0 0,1 9.5,5.8C11.54,5.8 13.2,7.46 13.2,9.5C13.2,10.47 12.82,11.34 12.21,12H18M19,3H5C3.89,3 3,3.89 3,5V19A2,2 0 0,0 5,21H19A2,2 0 0,0 21,19V5C21,3.89 20.1,3 19,3Z" />
    </g>
    <g id="mdi-drawing-box" transform="translate(612 36) scale(1.5)" fill="#fff">
      <path d="M18,18H12V12.21C11.34,12.82 10.47,13.2 9.5,13.2C7.46,13.2 5.8,11.54 5.8,9.5A3.7,3.7 0 0,1 9.5,5.8C11.54,5.8 13.2,7.46 13.2,9.5C13.2,10.47 12.82,11.34 12.21,12H18M19,3H5C3.89,3 3,3.89 3,5V19A2,2 0 0,0 5,21H19A2,2 0 0,0 21,19V5C21,3.89 20.1,3 19,3Z" />
    </g>
    <g id="mdi-dresser" transform="translate(648 36) scale(1.5)" fill="#555">
      <path d="M4 3C2.9 3 2 3.9 2 5V8H22V5C22 3.9 21.11 3 20 3H4M10 5H14V6H10V5M2 9V14H22V9H2M10 11H14V12H10V11M2 15V18C2 19.11 2.9 20 4 20V21H6V20H18V21H20V20C21.11 20 22 19.11 22 18V15H2M10 17H14V18H10V17Z" />
    </g>
    <g id="mdi-dresser" transform="translate(684 36) scale(1.5)" fill="#fff">
      <path d="M4 3C2.9 3 2 3.9 2 5V8H22V5C22 3.9 21.11 3 20 3H4M10 5H14V6H10V5M2 9V14H22V9H2M10 11H14V12H10V11M2 15V18C2 19.11 2.9 20 4 20V21H6V20H18V21H20V20C21.11 20 22 19.11 22 18V15H2M10 17H14V18H10V17Z" />
    </g>
    <g id="mdi-dresser-outline" transform="translate(0 72) scale(1.5)" fill="#555">
      <path d="M4 3C2.9 3 2 3.9 2 5V18C2 19.11 2.9 20 4 20V21H6V20H18V21H20V20C21.11 20 22 19.11 22 18V5C22 3.9 21.11 3 20 3H4M4 5H20V8H4V5M10 6V7H14V6H10M4 10H20V13H4V10M10 11V12H14V11H10M4 15H20V18H4V15M10 16V17H14V16H10Z" />
    </g>
    <g id="mdi-dresser-outline" transform="translate(36 72) scale(1.5)" fill="#fff">
      <path d="M4 3C2.9 3 2 3.9 2 5V18C2 19.11 2.9 20 4 20V21H6V20H18V21H20V20C21.11 20 22 19.11 22 18V5C22 3.9 21.11 3 20 3H4M4 5H20V8H4V5M10 6V7H14V6H10M4 10H20V13H4V10M10 11V12H14V11H10M4 15H20V18H4V15M10 16V17H14V16H10Z" />
    </g>
    <g id="mdi-drone" transform="translate(72 72) scale(1.5)" fill="#555">
      <path d="M22,11H21L20,9H13.75L16,12.5H14L10.75,9H4C3.45,9 2,8.55 2,8C2,7.45 3.5,5.5 5.5,5.5C7.5,5.5 7.67,6.5 9,7H21A1,1 0 0,1 22,8V9L22,11M10.75,6.5L14,3H16L13.75,6.5H10.75M18,11V9.5H19.75L19,11H18M3,19A1,1 0 0,1 2,18A1,1 0 0,1 3,17A4,4 0 0,1 7,21A1,1 0 0,1 6,22A1,1 0 0,1 5,21A2,2 0 0,0 3,19M11,21A1,1 0 0,1 10,22A1,1 0 0,1 9,21A6,6 0 0,0 3,15A1,1 0 0,1 2,14A1,1 0 0,1 3,13A8,8 0 0,1 11,21Z" />
    </g>
    <g id="mdi-drone" transform="translate(108 72) scale(1.5)" fill="#fff">
      <path d="M22,11H21L20,9H13.75L16,12.5H14L10.75,9H4C3.45,9 2,8.55 2,8C2,7.45 3.5,5.5 5.5,5.5C7.5,5.5 7.67,6.5 9,7H21A1,1 0 0,1 22,8V9L22,11M10.75,6.5L14,3H16L13.75,6.5H10.75M18,11V9.5H19.75L19,11H18M3,19A1,1 0 0,1 2,18A1,1 0 0,1 3,17A4,4 0 0,1 7,21A1,1 0 0,1 6,22A1,1 0 0,1 5,21A2,2 0 0,0 3,19M11,21A1,1 0 0,1 10,22A1,1 0 0,1 9,21A6,6 0 0,0 3,15A1,1 0 0,1 2,14A1,1 0 0,1 3,13A8,8 0 0,1 11,21Z" />
    </g>
    <g id="mdi-dropbox" transform="translate(144 72) scale(1.5)" fill="#555">
      <path d="M3 6.2L8 9.39L13 6.2L8 3L3 6.2M13 6.2L18 9.39L23 6.2L18 3L13 6.2M3 12.55L8 15.74L13 12.55L8 9.35L3 12.55M18 9.35L13 12.55L18 15.74L23 12.55L18 9.35M8.03 16.8L13.04 20L18.04 16.8L13.04 13.61L8.03 16.8Z" />
    </g>
    <g id="mdi-dropbox" transform="translate(180 72) scale(1.5)" fill="#fff">
      <path d="M3 6.2L8 9.39L13 6.2L8 3L3 6.2M13 6.2L18 9.39L23 6.2L18 3L13 6.2M3 12.55L8 15.74L13 12.55L8 9.35L3 12.55M18 9.35L13 12.55L18 15.74L23 12.55L18 9.35M8.03 16.8L13.04 20L18.04 16.8L13.04 13.61L8.03 16.8Z" />
    </g>
    <g id="mdi-drupal" transform="translate(216 72) scale(1.5)" fill="#555">
      <path d="M20.47,14.65C20.47,15.29 20.25,16.36 19.83,17.1C19.4,17.85 19.08,18.06 18.44,18.06C17.7,17.95 16.31,15.82 15.36,15.72C14.18,15.72 11.73,18.17 9.71,18.17C8.54,18.17 8.11,17.95 7.79,17.74C7.15,17.31 6.94,16.67 6.94,15.82C6.94,14.22 8.43,12.84 10.24,12.84C12.59,12.84 14.18,15.18 15.36,15.08C16.31,15.08 18.23,13.16 19.19,13.16C20.15,12.95 20.47,14 20.47,14.65M16.63,5.28C15.57,4.64 14.61,4.32 13.54,3.68C12.91,3.25 12.05,2.3 11.31,1.44C11,2.83 10.78,3.36 10.24,3.79C9.18,4.53 8.64,4.85 7.69,5.28C6.94,5.7 3,8.05 3,13.16C3,18.27 7.37,22 12.05,22C16.85,22 21,18.5 21,13.27C21.21,8.05 17.27,5.7 16.63,5.28Z" />
    </g>
    <g id="mdi-drupal" transform="translate(252 72) scale(1.5)" fill="#fff">
      <path d="M20.47,14.65C20.47,15.29 20.25,16.36 19.83,17.1C19.4,17.85 19.08,18.06 18.44,18.06C17.7,17.95 16.31,15.82 15.36,15.72C14.18,15.72 11.73,18.17 9.71,18.17C8.54,18.17 8.11,17.95 7.79,17.74C7.15,17.31 6.94,16.67 6.94,15.82C6.94,14.22 8.43,12.84 10.24,12.84C12.59,12.84 14.18,15.18 15.36,15.08C16.31,15.08 18.23,13.16 19.19,13.16C20.15,12.95 20.47,14 20.47,14.65M16.63,5.28C15.57,4.64 14.61,4.32 13.54,3.68C12.91,3.25 12.05,2.3 11.31,1.44C11,2.83 10.78,3.36 10.24,3.79C9.18,4.53 8.64,4.85 7.69,5.28C6.94,5.7 3,8.05 3,13.16C3,18.27 7.37,22 12.05,22C16.85,22 21,18.5 21,13.27C21.21,8.05 17.27,5.7 16.63,5.28Z" />
    </g>
    <g id="mdi-duck" transform="translate(288 72) scale(1.5)" fill="#555">
      <path d="M8.5,5A1.5,1.5 0 0,0 7,6.5A1.5,1.5 0 0,0 8.5,8A1.5,1.5 0 0,0 10,6.5A1.5,1.5 0 0,0 8.5,5M10,2A5,5 0 0,1 15,7C15,8.7 14.15,10.2 12.86,11.1C14.44,11.25 16.22,11.61 18,12.5C21,14 22,12 22,12C22,12 21,21 15,21H9C9,21 4,21 4,16C4,13 7,12 6,10C2,10 2,6.5 2,6.5C3,7 4.24,7 5,6.65C5.19,4.05 7.36,2 10,2Z" />
    </g>
    <g id="mdi-duck" transform="translate(324 72) scale(1.5)" fill="#fff">
      <path d="M8.5,5A1.5,1.5 0 0,0 7,6.5A1.5,1.5 0 0,0 8.5,8A1.5,1.5 0 0,0 10,6.5A1.5,1.5 0 0,0 8.5,5M10,2A5,5 0 0,1 15,7C15,8.7 14.15,10.2 12.86,11.1C14.44,11.25 16.22,11.61 18,12.5C21,14 22,12 22,12C22,12 21,21 15,21H9C9,21 4,21 4,16C4,13 7,12 6,10C2,10 2,6.5 2,6.5C3,7 4.24,7 5,6.65C5.19,4.05 7.36,2 10,2Z" />
    </g>
    <g id="mdi-dumbbell" transform="translate(360 72) scale(1.5)" fill="#555">
      <path d="M20.57,14.86L22,13.43L20.57,12L17,15.57L8.43,7L12,3.43L10.57,2L9.14,3.43L7.71,2L5.57,4.14L4.14,2.71L2.71,4.14L4.14,5.57L2,7.71L3.43,9.14L2,10.57L3.43,12L7,8.43L15.57,17L12,20.57L13.43,22L14.86,20.57L16.29,22L18.43,19.86L19.86,21.29L21.29,19.86L19.86,18.43L22,16.29L20.57,14.86Z" />
    </g>
    <g id="mdi-dumbbell" transform="translate(396 72) scale(1.5)" fill="#fff">
      <path d="M20.57,14.86L22,13.43L20.57,12L17,15.57L8.43,7L12,3.43L10.57,2L9.14,3.43L7.71,2L5.57,4.14L4.14,2.71L2.71,4.14L4.14,5.57L2,7.71L3.43,9.14L2,10.57L3.43,12L7,8.43L15.57,17L12,20.57L13.43,22L14.86,20.57L16.29,22L18.43,19.86L19.86,21.29L21.29,19.86L19.86,18.43L22,16.29L20.57,14.86Z" />
    </g>
    <g id="mdi-dump-truck" transform="translate(432 72) scale(1.5)" fill="#555">
      <path d="M20,8H19L17,8H15V14H2V17H3A3,3 0 0,0 6,20A3,3 0 0,0 9,17H15A3,3 0 0,0 18,20A3,3 0 0,0 21,17H23V12L20,8M6,18.5A1.5,1.5 0 0,1 4.5,17A1.5,1.5 0 0,1 6,15.5A1.5,1.5 0 0,1 7.5,17A1.5,1.5 0 0,1 6,18.5M18,18.5A1.5,1.5 0 0,1 16.5,17A1.5,1.5 0 0,1 18,15.5A1.5,1.5 0 0,1 19.5,17A1.5,1.5 0 0,1 18,18.5M17,12V9.5H19.5L21.46,12H17M18,7H14V13H3L1.57,8H1V6H13L14,5H18V7Z" />
    </g>
    <g id="mdi-dump-truck" transform="translate(468 72) scale(1.5)" fill="#fff">
      <path d="M20,8H19L17,8H15V14H2V17H3A3,3 0 0,0 6,20A3,3 0 0,0 9,17H15A3,3 0 0,0 18,20A3,3 0 0,0 21,17H23V12L20,8M6,18.5A1.5,1.5 0 0,1 4.5,17A1.5,1.5 0 0,1 6,15.5A1.5,1.5 0 0,1 7.5,17A1.5,1.5 0 0,1 6,18.5M18,18.5A1.5,1.5 0 0,1 16.5,17A1.5,1.5 0 0,1 18,15.5A1.5,1.5 0 0,1 19.5,17A1.5,1.5 0 0,1 18,18.5M17,12V9.5H19.5L21.46,12H17M18,7H14V13H3L1.57,8H1V6H13L14,5H18V7Z" />
    </g>
    <g id="mdi-ear-hearing" transform="translate(504 72) scale(1.5)" fill="#555">
      <path d="M17,20C16.71,20 16.44,19.94 16.24,19.85C15.53,19.5 15.03,18.97 14.53,17.47C14,15.91 13.06,15.18 12.14,14.47C11.35,13.86 10.53,13.23 9.82,11.94C9.29,11 9,9.93 9,9C9,6.2 11.2,4 14,4C16.8,4 19,6.2 19,9H21C21,5.07 17.93,2 14,2C10.07,2 7,5.07 7,9C7,10.26 7.38,11.65 8.07,12.9C9,14.55 10.05,15.38 10.92,16.05C11.73,16.67 12.31,17.12 12.63,18.1C13.23,19.92 14,20.94 15.36,21.65C15.87,21.88 16.43,22 17,22A4,4 0 0,0 21,18H19A2,2 0 0,1 17,20M7.64,2.64L6.22,1.22C4.23,3.21 3,5.96 3,9C3,12.04 4.23,14.79 6.22,16.78L7.63,15.37C6,13.74 5,11.5 5,9C5,6.5 6,4.26 7.64,2.64M11.5,9A2.5,2.5 0 0,0 14,11.5A2.5,2.5 0 0,0 16.5,9A2.5,2.5 0 0,0 14,6.5A2.5,2.5 0 0,0 11.5,9Z" />
    </g>
    <g id="mdi-ear-hearing" transform="translate(540 72) scale(1.5)" fill="#fff">
      <path d="M17,20C16.71,20 16.44,19.94 16.24,19.85C15.53,19.5 15.03,18.97 14.53,17.47C14,15.91 13.06,15.18 12.14,14.47C11.35,13.86 10.53,13.23 9.82,11.94C9.29,11 9,9.93 9,9C9,6.2 11.2,4 14,4C16.8,4 19,6.2 19,9H21C21,5.07 17.93,2 14,2C10.07,2 7,5.07 7,9C7,10.26 7.38,11.65 8.07,12.9C9,14.55 10.05,15.38 10.92,16.05C11.73,16.67 12.31,17.12 12.63,18.1C13.23,19.92 14,20.94 15.36,21.65C15.87,21.88 16.43,22 17,22A4,4 0 0,0 21,18H19A2,2 0 0,1 17,20M7.64,2.64L6.22,1.22C4.23,3.21 3,5.96 3,9C3,12.04 4.23,14.79 6.22,16.78L7.63,15.37C6,13.74 5,11.5 5,9C5,6.5 6,4.26 7.64,2.64M11.5,9A2.5,2.5 0 0,0 14,11.5A2.5,2.5 0 0,0 16.5,9A2.5,2.5 0 0,0 14,6.5A2.5,2.5 0 0,0 11.5,9Z" />
    </g>
    <g id="mdi-ear-hearing-off" transform="translate(576 72) scale(1.5)" fill="#555">
      <path d="M1,4.27L2.28,3L20,20.72L18.73,22L12.91,16.18C12.19,16.74 11.67,17.19 11.37,18.1C10.77,19.92 10,20.94 8.64,21.65C8.13,21.88 7.57,22 7,22A4,4 0 0,1 3,18H5A2,2 0 0,0 7,20C7.29,20 7.56,19.94 7.76,19.85C8.47,19.5 8.97,18.97 9.47,17.47C9.91,16.12 10.69,15.39 11.5,14.76L5.04,8.31C5,8.54 5,8.77 5,9H3C3,8.17 3.14,7.39 3.39,6.66L1,4.27M14.18,11.94C14.71,11 15,9.93 15,9C15,6.2 12.8,4 10,4C8.81,4 7.74,4.39 6.89,5.06L5.46,3.63C6.67,2.61 8.25,2 10,2C13.93,2 17,5.07 17,9C17,10.26 16.62,11.65 15.93,12.9L15.47,13.65L14.03,12.2L14.18,11.94M16.36,2.64L17.78,1.22C19.77,3.21 21,5.96 21,9C21,11.83 19.93,14.41 18.18,16.36L16.77,14.94C18.15,13.36 19,11.28 19,9C19,6.5 18,4.26 16.36,2.64M12.5,9C12.5,9.5 12.36,9.93 12.13,10.31L8.69,6.87C9.07,6.64 9.5,6.5 10,6.5A2.5,2.5 0 0,1 12.5,9Z" />
    </g>
    <g id="mdi-ear-hearing-off" transform="translate(612 72) scale(1.5)" fill="#fff">
      <path d="M1,4.27L2.28,3L20,20.72L18.73,22L12.91,16.18C12.19,16.74 11.67,17.19 11.37,18.1C10.77,19.92 10,20.94 8.64,21.65C8.13,21.88 7.57,22 7,22A4,4 0 0,1 3,18H5A2,2 0 0,0 7,20C7.29,20 7.56,19.94 7.76,19.85C8.47,19.5 8.97,18.97 9.47,17.47C9.91,16.12 10.69,15.39 11.5,14.76L5.04,8.31C5,8.54 5,8.77 5,9H3C3,8.17 3.14,7.39 3.39,6.66L1,4.27M14.18,11.94C14.71,11 15,9.93 15,9C15,6.2 12.8,4 10,4C8.81,4 7.74,4.39 6.89,5.06L5.46,3.63C6.67,2.61 8.25,2 10,2C13.93,2 17,5.07 17,9C17,10.26 16.62,11.65 15.93,12.9L15.47,13.65L14.03,12.2L14.18,11.94M16.36,2.64L17.78,1.22C19.77,3.21 21,5.96 21,9C21,11.83 19.93,14.41 18.18,16.36L16.77,14.94C18.15,13.36 19,11.28 19,9C19,6.5 18,4.26 16.36,2.64M12.5,9C12.5,9.5 12.36,9.93 12.13,10.31L8.69,6.87C9.07,6.64 9.5,6.5 10,6.5A2.5,2.5 0 0,1 12.5,9Z" />
    </g>
    <g id="mdi-earth" transform="translate(648 72) scale(1.5)" fill="#555">
      <path d="M17.9,17.39C17.64,16.59 16.89,16 16,16H15V13A1,1 0 0,0 14,12H8V10H10A1,1 0 0,0 11,9V7H13A2,2 0 0,0 15,5V4.59C17.93,5.77 20,8.64 20,12C20,14.08 19.2,15.97 17.9,17.39M11,19.93C7.05,19.44 4,16.08 4,12C4,11.38 4.08,10.78 4.21,10.21L9,15V16A2,2 0 0,0 11,18M12,2A10,10 0 0,0 2,12A10,10 0 0,0 12,22A10,10 0 0,0 22,12A10,10 0 0,0 12,2Z" />
    </g>
    <g id="mdi-earth" transform="translate(684 72) scale(1.5)" fill="#fff">
      <path d="M17.9,17.39C17.64,16.59 16.89,16 16,16H15V13A1,1 0 0,0 14,12H8V10H10A1,1 0 0,0 11,9V7H13A2,2 0 0,0 15,5V4.59C17.93,5.77 20,8.64 20,12C20,14.08 19.2,15.97 17.9,17.39M11,19.93C7.05,19.44 4,16.08 4,12C4,11.38 4.08,10.78 4.21,10.21L9,15V16A2,2 0 0,0 11,18M12,2A10,10 0 0,0 2,12A10,10 0 0,0 12,22A10,10 0 0,0 22,12A10,10 0 0,0 12,2Z" />
    </g>
    <g id="mdi-earth-arrow-right" transform="translate(0 108) scale(1.5)" fill="#555">
      <path d="M19 21V19H15V17H19V15L22 18L19 21M12 18C12 15.8 13.2 13.9 15 12.8C14.9 12.3 14.5 12 14 12H8V10H10C10.6 10 11 9.6 11 9V7H13C14.1 7 15 6.1 15 5V4.6C17.9 5.8 20 8.6 20 12V12.3C20.7 12.5 21.3 12.9 21.9 13.4C22 13 22 12.5 22 12C22 6.5 17.5 2 12 2S2 6.5 2 12 6.5 22 12 22C12.5 22 13 22 13.4 21.9C12.5 20.8 12 19.5 12 18M11 19.9C7 19.4 4 16.1 4 12C4 11.4 4.1 10.8 4.2 10.2L9 15V16C9 17.1 9.9 18 11 18V19.9Z" />
    </g>
    <g id="mdi-earth-arrow-right" transform="translate(36 108) scale(1.5)" fill="#fff">
      <path d="M19 21V19H15V17H19V15L22 18L19 21M12 18C12 15.8 13.2 13.9 15 12.8C14.9 12.3 14.5 12 14 12H8V10H10C10.6 10 11 9.6 11 9V7H13C14.1 7 15 6.1 15 5V4.6C17.9 5.8 20 8.6 20 12V12.3C20.7 12.5 21.3 12.9 21.9 13.4C22 13 22 12.5 22 12C22 6.5 17.5 2 12 2S2 6.5 2 12 6.5 22 12 22C12.5 22 13 22 13.4 21.9C12.5 20.8 12 19.5 12 18M11 19.9C7 19.4 4 16.1 4 12C4 11.4 4.1 10.8 4.2 10.2L9 15V16C9 17.1 9.9 18 11 18V19.9Z" />
    </g>
    <g id="mdi-earth-box" transform="translate(72 108) scale(1.5)" fill="#555">
      <path d="M5,3C3.89,3 3,3.89 3,5V19A2,2 0 0,0 5,21H19A2,2 0 0,0 21,19V5C21,3.89 20.1,3 19,3H5M15.78,5H19V17.18C18.74,16.38 17.69,15.79 16.8,15.79H15.8V12.79A1,1 0 0,0 14.8,11.79H8.8V9.79H10.8A1,1 0 0,0 11.8,8.79V6.79H13.8C14.83,6.79 15.67,6 15.78,5M5,10.29L9.8,14.79V15.79C9.8,16.9 10.7,17.79 11.8,17.79V19H5V10.29Z" />
    </g>
    <g id="mdi-earth-box" transform="translate(108 108) scale(1.5)" fill="#fff">
      <path d="M5,3C3.89,3 3,3.89 3,5V19A2,2 0 0,0 5,21H19A2,2 0 0,0 21,19V5C21,3.89 20.1,3 19,3H5M15.78,5H19V17.18C18.74,16.38 17.69,15.79 16.8,15.79H15.8V12.79A1,1 0 0,0 14.8,11.79H8.8V9.79H10.8A1,1 0 0,0 11.8,8.79V6.79H13.8C14.83,6.79 15.67,6 15.78,5M5,10.29L9.8,14.79V15.79C9.8,16.9 10.7,17.79 11.8,17.79V19H5V10.29Z" />
    </g>
    <g id="mdi-earth-box-minus" transform="translate(144 108) scale(1.5)" fill="#555">
      <path d="M22 17V19H14V17H22M5 3H19C20.1 3 21 3.89 21 5V12.8C20.39 12.45 19.72 12.2 19 12.08V5H15.78C15.67 6 14.83 6.79 13.8 6.79H11.8V8.79C11.8 9.35 11.35 9.79 10.8 9.79H8.8V11.79H14.8C15.23 11.79 15.6 12.06 15.74 12.44C13.6 13.31 12.07 15.39 12 17.83C10.7 17.79 9.8 16.9 9.8 15.79V14.79L5 10.29V19H12.08C12.2 19.72 12.45 20.39 12.8 21H5C3.9 21 3 20.11 3 19V5C3 3.89 3.89 3 5 3Z" />
    </g>
    <g id="mdi-earth-box-minus" transform="translate(180 108) scale(1.5)" fill="#fff">
      <path d="M22 17V19H14V17H22M5 3H19C20.1 3 21 3.89 21 5V12.8C20.39 12.45 19.72 12.2 19 12.08V5H15.78C15.67 6 14.83 6.79 13.8 6.79H11.8V8.79C11.8 9.35 11.35 9.79 10.8 9.79H8.8V11.79H14.8C15.23 11.79 15.6 12.06 15.74 12.44C13.6 13.31 12.07 15.39 12 17.83C10.7 17.79 9.8 16.9 9.8 15.79V14.79L5 10.29V19H12.08C12.2 19.72 12.45 20.39 12.8 21H5C3.9 21 3 20.11 3 19V5C3 3.89 3.89 3 5 3Z" />
    </g>
    <g id="mdi-earth-box-off" transform="translate(216 108) scale(1.5)" fill="#555">
      <path d="M23,4.27L21,6.27V19A2,2 0 0,1 19,21H6.27L4.27,23L3,21.72L21.72,3L23,4.27M5,3H19.18L17.18,5H15.78C15.67,6 14.83,6.79 13.8,6.79H11.8V8.79C11.8,9.35 11.35,9.79 10.8,9.79H8.8V11.79H10.38L8.55,13.62L5,10.29V17.18L3,19.18V5C3,3.89 3.89,3 5,3M11.8,19V17.79C11.17,17.79 10.6,17.5 10.23,17.04L8.27,19H11.8M15.8,12.79V15.79H16.8C17.69,15.79 18.74,16.38 19,17.18V8.27L15.33,11.94C15.61,12.12 15.8,12.43 15.8,12.79Z" />
    </g>
    <g id="mdi-earth-box-off" transform="translate(252 108) scale(1.5)" fill="#fff">
      <path d="M23,4.27L21,6.27V19A2,2 0 0,1 19,21H6.27L4.27,23L3,21.72L21.72,3L23,4.27M5,3H19.18L17.18,5H15.78C15.67,6 14.83,6.79 13.8,6.79H11.8V8.79C11.8,9.35 11.35,9.79 10.8,9.79H8.8V11.79H10.38L8.55,13.62L5,10.29V17.18L3,19.18V5C3,3.89 3.89,3 5,3M11.8,19V17.79C11.17,17.79 10.6,17.5 10.23,17.04L8.27,19H11.8M15.8,12.79V15.79H16.8C17.69,15.79 18.74,16.38 19,17.18V8.27L15.33,11.94C15.61,12.12 15.8,12.43 15.8,12.79Z" />
    </g>
    <g id="mdi-earth-box-plus" transform="translate(288 108) scale(1.5)" fill="#555">
      <path d="M17 14H19V17H22V19H19V22H17V19H14V17H17V14M5 3H19C20.1 3 21 3.89 21 5V12.8C20.39 12.45 19.72 12.2 19 12.08V5H15.78C15.67 6 14.83 6.79 13.8 6.79H11.8V8.79C11.8 9.35 11.35 9.79 10.8 9.79H8.8V11.79H14.8C15.23 11.79 15.6 12.06 15.74 12.44C13.6 13.31 12.07 15.39 12 17.83C10.7 17.79 9.8 16.9 9.8 15.79V14.79L5 10.29V19H12.08C12.2 19.72 12.45 20.39 12.8 21H5C3.9 21 3 20.11 3 19V5C3 3.89 3.89 3 5 3Z" />
    </g>
    <g id="mdi-earth-box-plus" transform="translate(324 108) scale(1.5)" fill="#fff">
      <path d="M17 14H19V17H22V19H19V22H17V19H14V17H17V14M5 3H19C20.1 3 21 3.89 21 5V12.8C20.39 12.45 19.72 12.2 19 12.08V5H15.78C15.67 6 14.83 6.79 13.8 6.79H11.8V8.79C11.8 9.35 11.35 9.79 10.8 9.79H8.8V11.79H14.8C15.23 11.79 15.6 12.06 15.74 12.44C13.6 13.31 12.07 15.39 12 17.83C10.7 17.79 9.8 16.9 9.8 15.79V14.79L5 10.29V19H12.08C12.2 19.72 12.45 20.39 12.8 21H5C3.9 21 3 20.11 3 19V5C3 3.89 3.89 3 5 3Z" />
    </g>
    <g id="mdi-earth-box-remove" transform="translate(360 108) scale(1.5)" fill="#555">
      <path d="M14.46 15.88L15.88 14.46L18 16.59L20.12 14.47L21.54 15.88L19.41 18L21.54 20.12L20.12 21.54L18 19.41L15.88 21.54L14.46 20.12L16.59 18L14.47 15.88M5 3H19C20.1 3 21 3.89 21 5V12.8C20.39 12.45 19.72 12.2 19 12.08V5H15.78C15.67 6 14.83 6.79 13.8 6.79H11.8V8.79C11.8 9.35 11.35 9.79 10.8 9.79H8.8V11.79H14.8C15.23 11.79 15.6 12.06 15.74 12.44C13.6 13.31 12.07 15.39 12 17.83C10.7 17.79 9.8 16.9 9.8 15.79V14.79L5 10.29V19H12.08C12.2 19.72 12.45 20.39 12.8 21H5C3.9 21 3 20.11 3 19V5C3 3.89 3.89 3 5 3Z" />
    </g>
    <g id="mdi-earth-box-remove" transform="translate(396 108) scale(1.5)" fill="#fff">
      <path d="M14.46 15.88L15.88 14.46L18 16.59L20.12 14.47L21.54 15.88L19.41 18L21.54 20.12L20.12 21.54L18 19.41L15.88 21.54L14.46 20.12L16.59 18L14.47 15.88M5 3H19C20.1 3 21 3.89 21 5V12.8C20.39 12.45 19.72 12.2 19 12.08V5H15.78C15.67 6 14.83 6.79 13.8 6.79H11.8V8.79C11.8 9.35 11.35 9.79 10.8 9.79H8.8V11.79H14.8C15.23 11.79 15.6 12.06 15.74 12.44C13.6 13.31 12.07 15.39 12 17.83C10.7 17.79 9.8 16.9 9.8 15.79V14.79L5 10.29V19H12.08C12.2 19.72 12.45 20.39 12.8 21H5C3.9 21 3 20.11 3 19V5C3 3.89 3.89 3 5 3Z" />
    </g>
    <g id="mdi-earth-minus" transform="translate(432 108) scale(1.5)" fill="#555">
      <path d="M14 17H22V19H14V17M20 12C20 8.64 17.93 5.77 15 4.59V5C15 6.1 14.1 7 13 7H11V9C11 9.55 10.55 10 10 10H8V12H14C14.5 12 14.9 12.35 15 12.81C13.2 13.85 12 15.79 12 18C12 19.5 12.54 20.85 13.44 21.9L12 22C6.5 22 2 17.5 2 12C2 6.5 6.5 2 12 2C17.5 2 22 6.5 22 12L21.9 13.44C21.34 12.96 20.7 12.59 20 12.34L20 12M11 19.93V18C9.9 18 9 17.1 9 16V15L4.21 10.21C4.08 10.78 4 11.38 4 12C4 16.08 7.06 19.44 11 19.93Z" />
    </g>
    <g id="mdi-earth-minus" transform="translate(468 108) scale(1.5)" fill="#fff">
      <path d="M14 17H22V19H14V17M20 12C20 8.64 17.93 5.77 15 4.59V5C15 6.1 14.1 7 13 7H11V9C11 9.55 10.55 10 10 10H8V12H14C14.5 12 14.9 12.35 15 12.81C13.2 13.85 12 15.79 12 18C12 19.5 12.54 20.85 13.44 21.9L12 22C6.5 22 2 17.5 2 12C2 6.5 6.5 2 12 2C17.5 2 22 6.5 22 12L21.9 13.44C21.34 12.96 20.7 12.59 20 12.34L20 12M11 19.93V18C9.9 18 9 17.1 9 16V15L4.21 10.21C4.08 10.78 4 11.38 4 12C4 16.08 7.06 19.44 11 19.93Z" />
    </g>
    <g id="mdi-earth-off" transform="translate(504 108) scale(1.5)" fill="#555">
      <path d="M22,5.27L20.5,6.75C21.46,8.28 22,10.07 22,12A10,10 0 0,1 12,22C10.08,22 8.28,21.46 6.75,20.5L5.27,22L4,20.72L20.72,4L22,5.27M17.9,17.39C19.2,15.97 20,14.08 20,12C20,10.63 19.66,9.34 19.05,8.22L14.83,12.44C14.94,12.6 15,12.79 15,13V16H16C16.89,16 17.64,16.59 17.9,17.39M11,19.93V18C10.5,18 10.07,17.83 9.73,17.54L8.22,19.05C9.07,19.5 10,19.8 11,19.93M15,4.59V5A2,2 0 0,1 13,7H11V9A1,1 0 0,1 10,10H8V12H10.18L8.09,14.09L4.21,10.21C4.08,10.78 4,11.38 4,12C4,13.74 4.56,15.36 5.5,16.67L4.08,18.1C2.77,16.41 2,14.3 2,12A10,10 0 0,1 12,2C14.3,2 16.41,2.77 18.1,4.08L16.67,5.5C16.16,5.14 15.6,4.83 15,4.59Z" />
    </g>
    <g id="mdi-earth-off" transform="translate(540 108) scale(1.5)" fill="#fff">
      <path d="M22,5.27L20.5,6.75C21.46,8.28 22,10.07 22,12A10,10 0 0,1 12,22C10.08,22 8.28,21.46 6.75,20.5L5.27,22L4,20.72L20.72,4L22,5.27M17.9,17.39C19.2,15.97 20,14.08 20,12C20,10.63 19.66,9.34 19.05,8.22L14.83,12.44C14.94,12.6 15,12.79 15,13V16H16C16.89,16 17.64,16.59 17.9,17.39M11,19.93V18C10.5,18 10.07,17.83 9.73,17.54L8.22,19.05C9.07,19.5 10,19.8 11,19.93M15,4.59V5A2,2 0 0,1 13,7H11V9A1,1 0 0,1 10,10H8V12H10.18L8.09,14.09L4.21,10.21C4.08,10.78 4,11.38 4,12C4,13.74 4.56,15.36 5.5,16.67L4.08,18.1C2.77,16.41 2,14.3 2,12A10,10 0 0,1 12,2C14.3,2 16.41,2.77 18.1,4.08L16.67,5.5C16.16,5.14 15.6,4.83 15,4.59Z" />
    </g>
    <g id="mdi-earth-plus" transform="translate(576 108) scale(1.5)" fill="#555">
      <path d="M17 14H19V17H22V19H19V22H17V19H14V17H17V14M20 12C20 8.64 17.93 5.77 15 4.59V5C15 6.1 14.1 7 13 7H11V9C11 9.55 10.55 10 10 10H8V12H14C14.5 12 14.9 12.35 15 12.81C13.2 13.85 12 15.79 12 18C12 19.5 12.54 20.85 13.44 21.9L12 22C6.5 22 2 17.5 2 12C2 6.5 6.5 2 12 2C17.5 2 22 6.5 22 12L21.9 13.44C21.34 12.96 20.7 12.59 20 12.34L20 12M11 19.93V18C9.9 18 9 17.1 9 16V15L4.21 10.21C4.08 10.78 4 11.38 4 12C4 16.08 7.06 19.44 11 19.93Z" />
    </g>
    <g id="mdi-earth-plus" transform="translate(612 108) scale(1.5)" fill="#fff">
      <path d="M17 14H19V17H22V19H19V22H17V19H14V17H17V14M20 12C20 8.64 17.93 5.77 15 4.59V5C15 6.1 14.1 7 13 7H11V9C11 9.55 10.55 10 10 10H8V12H14C14.5 12 14.9 12.35 15 12.81C13.2 13.85 12 15.79 12 18C12 19.5 12.54 20.85 13.44 21.9L12 22C6.5 22 2 17.5 2 12C2 6.5 6.5 2 12 2C17.5 2 22 6.5 22 12L21.9 13.44C21.34 12.96 20.7 12.59 20 12.34L20 12M11 19.93V18C9.9 18 9 17.1 9 16V15L4.21 10.21C4.08 10.78 4 11.38 4 12C4 16.08 7.06 19.44 11 19.93Z" />
    </g>
    <g id="mdi-earth-remove" transform="translate(648 108) scale(1.5)" fill="#555">
      <path d="M14.46 15.88L15.88 14.46L18 16.59L20.12 14.47L21.54 15.88L19.41 18L21.54 20.12L20.12 21.54L18 19.41L15.88 21.54L14.46 20.12L16.59 18L14.47 15.88M20 12C20 8.64 17.93 5.77 15 4.59V5C15 6.1 14.1 7 13 7H11V9C11 9.55 10.55 10 10 10H8V12H14C14.5 12 14.9 12.35 15 12.81C13.2 13.85 12 15.79 12 18C12 19.5 12.54 20.85 13.44 21.9L12 22C6.5 22 2 17.5 2 12C2 6.5 6.5 2 12 2C17.5 2 22 6.5 22 12L21.9 13.44C21.34 12.96 20.7 12.59 20 12.34L20 12M11 19.93V18C9.9 18 9 17.1 9 16V15L4.21 10.21C4.08 10.78 4 11.38 4 12C4 16.08 7.06 19.44 11 19.93Z" />
    </g>
    <g id="mdi-earth-remove" transform="translate(684 108) scale(1.5)" fill="#fff">
      <path d="M14.46 15.88L15.88 14.46L18 16.59L20.12 14.47L21.54 15.88L19.41 18L21.54 20.12L20.12 21.54L18 19.41L15.88 21.54L14.46 20.12L16.59 18L14.47 15.88M20 12C20 8.64 17.93 5.77 15 4.59V5C15 6.1 14.1 7 13 7H11V9C11 9.55 10.55 10 10 10H8V12H14C14.5 12 14.9 12.35 15 12.81C13.2 13.85 12 15.79 12 18C12 19.5 12.54 20.85 13.44 21.9L12 22C6.5 22 2 17.5 2 12C2 6.5 6.5 2 12 2C17.5 2 22 6.5 22 12L21.9 13.44C21.34 12.96 20.7 12.59 20 12.34L20 12M11 19.93V18C9.9 18 9 17.1 9 16V15L4.21 10.21C4.08 10.78 4 11.38 4 12C4 16.08 7.06 19.44 11 19.93Z" />
    </g>
    <g id="mdi-egg" transform="translate(0 144) scale(1.5)" fill="#555">
      <path d="M19.5,14.5A7.5,7.5 0 0,1 12,22A7.5,7.5 0 0,1 4.5,14.5C4.5,10.36 7.86,2 12,2C16.14,2 19.5,10.36 19.5,14.5Z" />
    </g>
    <g id="mdi-egg" transform="translate(36 144) scale(1.5)" fill="#fff">
      <path d="M19.5,14.5A7.5,7.5 0 0,1 12,22A7.5,7.5 0 0,1 4.5,14.5C4.5,10.36 7.86,2 12,2C16.14,2 19.5,10.36 19.5,14.5Z" />
    </g>
    <g id="mdi-egg-easter" transform="translate(72 144) scale(1.5)" fill="#555">
      <path d="M6.89,6.36C8.23,3.91 10,2 12,2C14,2 15.77,3.91 17.11,6.36C16.26,6.57 15.5,7.07 15,7.77C13.79,6.11 11.46,5.75 9.8,6.97C9.5,7.19 9.22,7.46 9,7.77C8.5,7.07 7.74,6.57 6.89,6.36M15,18.06L12,15.06L9,18.06L6,15.06L4.73,16.33C5.75,20.35 9.83,22.77 13.84,21.76C16.5,21.08 18.59,19 19.27,16.33L18,15.06L15,18.06M9,15.94L12,12.94L15,15.94L18,12.94L19.5,14.44C19.37,12.13 18.8,9.86 17.81,7.76C16.65,7.86 15.75,8.83 15.75,10H14.25A2.25,2.25 0 0,0 12,7.75A2.25,2.25 0 0,0 9.75,10H8.25C8.25,8.83 7.35,7.86 6.19,7.76C5.2,9.86 4.63,12.13 4.5,14.44L6,12.94L9,15.94Z" />
    </g>
    <g id="mdi-egg-easter" transform="translate(108 144) scale(1.5)" fill="#fff">
      <path d="M6.89,6.36C8.23,3.91 10,2 12,2C14,2 15.77,3.91 17.11,6.36C16.26,6.57 15.5,7.07 15,7.77C13.79,6.11 11.46,5.75 9.8,6.97C9.5,7.19 9.22,7.46 9,7.77C8.5,7.07 7.74,6.57 6.89,6.36M15,18.06L12,15.06L9,18.06L6,15.06L4.73,16.33C5.75,20.35 9.83,22.77 13.84,21.76C16.5,21.08 18.59,19 19.27,16.33L18,15.06L15,18.06M9,15.94L12,12.94L15,15.94L18,12.94L19.5,14.44C19.37,12.13 18.8,9.86 17.81,7.76C16.65,7.86 15.75,8.83 15.75,10H14.25A2.25,2.25 0 0,0 12,7.75A2.25,2.25 0 0,0 9.75,10H8.25C8.25,8.83 7.35,7.86 6.19,7.76C5.2,9.86 4.63,12.13 4.5,14.44L6,12.94L9,15.94Z" />
    </g>
    <g id="mdi-egg-off" transform="translate(144 144) scale(1.5)" fill="#555">
      <path d="M22.1 21.5L2.4 1.7L1.1 3L6.1 8C5.1 10.3 4.5 12.8 4.5 14.5C4.5 18.6 7.9 22 12 22C14.2 22 16.2 21 17.6 19.5L20.8 22.7L22.1 21.5M19.5 14.5C19.5 10.4 16.1 2 12 2C10.5 2 9.1 3.1 7.9 4.7L19.3 16.1C19.4 15.6 19.5 15.1 19.5 14.5Z" />
    </g>
    <g id="mdi-egg-off" transform="translate(180 144) scale(1.5)" fill="#fff">
      <path d="M22.1 21.5L2.4 1.7L1.1 3L6.1 8C5.1 10.3 4.5 12.8 4.5 14.5C4.5 18.6 7.9 22 12 22C14.2 22 16.2 21 17.6 19.5L20.8 22.7L22.1 21.5M19.5 14.5C19.5 10.4 16.1 2 12 2C10.5 2 9.1 3.1 7.9 4.7L19.3 16.1C19.4 15.6 19.5 15.1 19.5 14.5Z" />
    </g>
    <g id="mdi-egg-off-outline" transform="translate(216 144) scale(1.5)" fill="#555">
      <path d="M22.11 21.46L2.39 1.73L1.11 3L6.1 8C5.1 10.28 4.5 12.76 4.5 14.5C4.5 18.64 7.86 22 12 22C14.23 22 16.22 21 17.59 19.5L20.84 22.73L22.11 21.46M12 20C8.97 20 6.5 17.53 6.5 14.5C6.5 13.08 6.95 11.25 7.63 9.5L16.17 18.06C15.16 19.24 13.67 20 12 20M9.36 6.16L7.92 4.72C9.1 3.11 10.5 2 12 2C16.14 2 19.5 10.36 19.5 14.5C19.5 15.06 19.43 15.6 19.32 16.12L17.5 14.29C17.38 10.46 14.28 4 12 4C11.17 4 10.22 4.87 9.36 6.16Z" />
    </g>
    <g id="mdi-egg-off-outline" transform="translate(252 144) scale(1.5)" fill="#fff">
      <path d="M22.11 21.46L2.39 1.73L1.11 3L6.1 8C5.1 10.28 4.5 12.76 4.5 14.5C4.5 18.64 7.86 22 12 22C14.23 22 16.22 21 17.59 19.5L20.84 22.73L22.11 21.46M12 20C8.97 20 6.5 17.53 6.5 14.5C6.5 13.08 6.95 11.25 7.63 9.5L16.17 18.06C15.16 19.24 13.67 20 12 20M9.36 6.16L7.92 4.72C9.1 3.11 10.5 2 12 2C16.14 2 19.5 10.36 19.5 14.5C19.5 15.06 19.43 15.6 19.32 16.12L17.5 14.29C17.38 10.46 14.28 4 12 4C11.17 4 10.22 4.87 9.36 6.16Z" />
    </g>
    <g id="mdi-egg-outline" transform="translate(288 144) scale(1.5)" fill="#555">
      <path d="M12 4C14.32 4 17.5 10.7 17.5 14.5C17.5 17.53 15.03 20 12 20S6.5 17.53 6.5 14.5C6.5 10.7 9.68 4 12 4M12 2C7.86 2 4.5 10.36 4.5 14.5C4.5 18.64 7.86 22 12 22S19.5 18.64 19.5 14.5C19.5 10.36 16.14 2 12 2Z" />
    </g>
    <g id="mdi-egg-outline" transform="translate(324 144) scale(1.5)" fill="#fff">
      <path d="M12 4C14.32 4 17.5 10.7 17.5 14.5C17.5 17.53 15.03 20 12 20S6.5 17.53 6.5 14.5C6.5 10.7 9.68 4 12 4M12 2C7.86 2 4.5 10.36 4.5 14.5C4.5 18.64 7.86 22 12 22S19.5 18.64 19.5 14.5C19.5 10.36 16.14 2 12 2Z" />
    </g>
    <g id="mdi-eiffel-tower" transform="translate(360 144) scale(1.5)" fill="#555">
      <path d="M8.21 17C8.65 16.15 9.06 15.16 9.44 14H9V12H10C10.61 9.4 11 6.13 11 2H13C13 6.13 13.4 9.4 14 12H15V14H14.56C14.94 15.16 15.35 16.15 15.79 17H17L17 19L19 22H16.58C15.81 20.24 14.05 19 12 19C9.95 19 8.19 20.24 7.42 22H5L7 19L6.97 17H8.21M12.59 14H11.41C11.07 15.13 10.69 16.13 10.28 17H13.72C13.32 16.13 12.93 15.13 12.59 14Z" />
    </g>
    <g id="mdi-eiffel-tower" transform="translate(396 144) scale(1.5)" fill="#fff">
      <path d="M8.21 17C8.65 16.15 9.06 15.16 9.44 14H9V12H10C10.61 9.4 11 6.13 11 2H13C13 6.13 13.4 9.4 14 12H15V14H14.56C14.94 15.16 15.35 16.15 15.79 17H17L17 19L19 22H16.58C15.81 20.24 14.05 19 12 19C9.95 19 8.19 20.24 7.42 22H5L7 19L6.97 17H8.21M12.59 14H11.41C11.07 15.13 10.69 16.13 10.28 17H13.72C13.32 16.13 12.93 15.13 12.59 14Z" />
    </g>
    <g id="mdi-eight-track" transform="translate(432 144) scale(1.5)" fill="#555">
      <path d="M7,2L5,5V16L6,20C6.27,21.07 6.9,22 8,22H16A2,2 0 0,0 18,20L19,16V5L17,2H15V3H13V2H7M7,6H17V16H7V6Z" />
    </g>
    <g id="mdi-eight-track" transform="translate(468 144) scale(1.5)" fill="#fff">
      <path d="M7,2L5,5V16L6,20C6.27,21.07 6.9,22 8,22H16A2,2 0 0,0 18,20L19,16V5L17,2H15V3H13V2H7M7,6H17V16H7V6Z" />
    </g>
    <g id="mdi-eject" transform="translate(504 144) scale(1.5)" fill="#555">
      <path d="M12,5L5.33,15H18.67M5,17H19V19H5V17Z" />
    </g>
    <g id="mdi-eject" transform="translate(540 144) scale(1.5)" fill="#fff">
      <path d="M12,5L5.33,15H18.67M5,17H19V19H5V17Z" />
    </g>
    <g id="mdi-eject-outline" transform="translate(576 144) scale(1.5)" fill="#555">
      <path d="M5,17H19V19H5V17M12,5L5.33,15H18.67L12,5M12,8.6L14.93,13H9.07L12,8.6Z" />
    </g>
    <g id="mdi-eject-outline" transform="translate(612 144) scale(1.5)" fill="#fff">
      <path d="M5,17H19V19H5V17M12,5L5.33,15H18.67L12,5M12,8.6L14.93,13H9.07L12,8.6Z" />
    </g>
    <g id="mdi-electric-switch" transform="translate(648 144) scale(1.5)" fill="#555">
      <path d="M1,11H3.17C3.58,9.83 4.69,9 6,9C6.65,9 7.25,9.21 7.74,9.56L14.44,4.87L15.58,6.5L8.89,11.2C8.96,11.45 9,11.72 9,12A3,3 0 0,1 6,15C4.69,15 3.58,14.17 3.17,13H1V11M23,11V13H20.83C20.42,14.17 19.31,15 18,15A3,3 0 0,1 15,12A3,3 0 0,1 18,9C19.31,9 20.42,9.83 20.83,11H23M6,11A1,1 0 0,0 5,12A1,1 0 0,0 6,13A1,1 0 0,0 7,12A1,1 0 0,0 6,11M18,11A1,1 0 0,0 17,12A1,1 0 0,0 18,13A1,1 0 0,0 19,12A1,1 0 0,0 18,11Z" />
    </g>
    <g id="mdi-electric-switch" transform="translate(684 144) scale(1.5)" fill="#fff">
      <path d="M1,11H3.17C3.58,9.83 4.69,9 6,9C6.65,9 7.25,9.21 7.74,9.56L14.44,4.87L15.58,6.5L8.89,11.2C8.96,11.45 9,11.72 9,12A3,3 0 0,1 6,15C4.69,15 3.58,14.17 3.17,13H1V11M23,11V13H20.83C20.42,14.17 19.31,15 18,15A3,3 0 0,1 15,12A3,3 0 0,1 18,9C19.31,9 20.42,9.83 20.83,11H23M6,11A1,1 0 0,0 5,12A1,1 0 0,0 6,13A1,1 0 0,0 7,12A1,1 0 0,0 6,11M18,11A1,1 0 0,0 17,12A1,1 0 0,0 18,13A1,1 0 0,0 19,12A1,1 0 0,0 18,11Z" />
    </g>
    <g id="mdi-electric-switch-closed" transform="translate(0 180) scale(1.5)" fill="#555">
      <path d="M20.83 11A3 3 0 0 0 15.18 11H8.82A3 3 0 0 0 3.17 11H1V13H3.17A3 3 0 0 0 8.82 13H15.18A3 3 0 0 0 20.83 13H23V11M6 13A1 1 0 1 1 7 12A1 1 0 0 1 6 13M18 13A1 1 0 1 1 19 12A1 1 0 0 1 18 13Z" />
    </g>
    <g id="mdi-electric-switch-closed" transform="translate(36 180) scale(1.5)" fill="#fff">
      <path d="M20.83 11A3 3 0 0 0 15.18 11H8.82A3 3 0 0 0 3.17 11H1V13H3.17A3 3 0 0 0 8.82 13H15.18A3 3 0 0 0 20.83 13H23V11M6 13A1 1 0 1 1 7 12A1 1 0 0 1 6 13M18 13A1 1 0 1 1 19 12A1 1 0 0 1 18 13Z" />
    </g>
    <g id="mdi-electron-framework" transform="translate(72 180) scale(1.5)" fill="#555">
      <path d="M12 22C10.33 22 8.84 20.5 7.9 17.93C7.83 17.73 7.93 17.5 8.14 17.44C8.34 17.36 8.56 17.47 8.63 17.67C9.44 19.9 10.7 21.23 12 21.23C12.94 21.23 13.87 20.55 14.62 19.31C14.73 19.13 14.96 19.07 15.15 19.18C15.33 19.29 15.39 19.53 15.28 19.71C14.38 21.19 13.22 22 12 22M15.91 17.72C15.87 17.72 15.83 17.71 15.8 17.7C15.59 17.63 15.5 17.42 15.54 17.21C16 15.81 16.22 14.18 16.22 12.5C16.22 8.65 14.97 5.24 13.19 4.14C12.94 4.5 12.5 4.78 12 4.78C11.24 4.78 10.61 4.16 10.61 3.39C10.61 2.62 11.24 2 12 2C12.77 2 13.4 2.61 13.41 3.37C15.53 4.5 17 8.21 17 12.5C17 14.25 16.75 15.96 16.28 17.45C16.23 17.61 16.08 17.72 15.91 17.72M12 2.77C11.66 2.77 11.38 3.05 11.38 3.39C11.38 3.73 11.67 4 12 4C12.35 4 12.64 3.73 12.64 3.39C12.64 3.05 12.35 2.77 12 2.77M4.08 18.54C3.31 18.54 2.68 17.91 2.68 17.15C2.68 16.66 2.94 16.22 3.33 15.97C3.19 13.56 5.68 10.41 9.5 8.22C11.09 7.32 12.75 6.67 14.32 6.34C14.5 6.29 14.73 6.42 14.77 6.63C14.82 6.84 14.69 7.05 14.5 7.09C13 7.41 11.41 8.03 9.9 8.89C6.46 10.86 4.1 13.68 4.1 15.76C4.86 15.77 5.5 16.39 5.5 17.15C5.5 17.92 4.85 18.54 4.08 18.54M4.08 16.53C3.74 16.53 3.46 16.81 3.46 17.15C3.46 17.5 3.74 17.77 4.08 17.77S4.71 17.5 4.71 17.15C4.71 16.81 4.42 16.53 4.08 16.53M18.5 13.44C18.43 13.44 18.34 13.41 18.27 13.35C18.11 13.21 18.09 12.97 18.23 12.8C19.77 11 20.3 9.26 19.64 8.14C19.17 7.33 18.1 6.88 16.63 6.86C16.41 6.86 16.24 6.68 16.25 6.47C16.25 6.26 16.43 6.1 16.64 6.09C18.39 6.11 19.7 6.7 20.31 7.75C21.15 9.19 20.6 11.21 18.82 13.3C18.74 13.39 18.63 13.44 18.5 13.44M16.5 18.9C14.5 18.9 11.94 18.16 9.5 16.77C7.95 15.88 6.57 14.79 5.5 13.63C5.35 13.47 5.36 13.23 5.5 13.08C5.68 12.94 5.92 12.95 6.07 13.11C7.08 14.21 8.4 15.25 9.89 16.1C13.2 18 16.77 18.63 18.65 17.72C18.57 17.55 18.5 17.35 18.5 17.15C18.5 16.38 19.15 15.76 19.92 15.76C20.69 15.76 21.32 16.38 21.32 17.15C21.32 17.92 20.69 18.54 19.92 18.54C19.64 18.54 19.39 18.46 19.17 18.32C18.47 18.71 17.56 18.9 16.5 18.9M19.5 17.63C19.63 17.71 19.77 17.77 19.92 17.77C20.27 17.77 20.55 17.5 20.55 17.15C20.55 16.81 20.27 16.53 19.92 16.53S19.3 16.81 19.3 17.15C19.3 17.29 19.35 17.42 19.43 17.53C19.47 17.55 19.5 17.59 19.5 17.63M4.46 12C4.33 12 4.2 11.92 4.13 11.8C3.23 10.25 3.08 8.81 3.7 7.74C4.54 6.3 6.58 5.76 9.31 6.25C9.5 6.29 9.66 6.5 9.62 6.7C9.59 6.91 9.39 7.05 9.18 7C6.82 6.59 5 7 4.37 8.13C3.89 8.95 4.04 10.11 4.8 11.41C4.9 11.6 4.84 11.83 4.65 11.94C4.59 11.97 4.53 12 4.46 12M12.21 13.4C11.71 13.5 11.21 13.19 11.11 12.69C11 12.2 11.32 11.71 11.81 11.6C12.31 11.5 12.81 11.81 12.91 12.31C13 12.8 12.7 13.29 12.21 13.4Z" />
    </g>
    <g id="mdi-electron-framework" transform="translate(108 180) scale(1.5)" fill="#fff">
      <path d="M12 22C10.33 22 8.84 20.5 7.9 17.93C7.83 17.73 7.93 17.5 8.14 17.44C8.34 17.36 8.56 17.47 8.63 17.67C9.44 19.9 10.7 21.23 12 21.23C12.94 21.23 13.87 20.55 14.62 19.31C14.73 19.13 14.96 19.07 15.15 19.18C15.33 19.29 15.39 19.53 15.28 19.71C14.38 21.19 13.22 22 12 22M15.91 17.72C15.87 17.72 15.83 17.71 15.8 17.7C15.59 17.63 15.5 17.42 15.54 17.21C16 15.81 16.22 14.18 16.22 12.5C16.22 8.65 14.97 5.24 13.19 4.14C12.94 4.5 12.5 4.78 12 4.78C11.24 4.78 10.61 4.16 10.61 3.39C10.61 2.62 11.24 2 12 2C12.77 2 13.4 2.61 13.41 3.37C15.53 4.5 17 8.21 17 12.5C17 14.25 16.75 15.96 16.28 17.45C16.23 17.61 16.08 17.72 15.91 17.72M12 2.77C11.66 2.77 11.38 3.05 11.38 3.39C11.38 3.73 11.67 4 12 4C12.35 4 12.64 3.73 12.64 3.39C12.64 3.05 12.35 2.77 12 2.77M4.08 18.54C3.31 18.54 2.68 17.91 2.68 17.15C2.68 16.66 2.94 16.22 3.33 15.97C3.19 13.56 5.68 10.41 9.5 8.22C11.09 7.32 12.75 6.67 14.32 6.34C14.5 6.29 14.73 6.42 14.77 6.63C14.82 6.84 14.69 7.05 14.5 7.09C13 7.41 11.41 8.03 9.9 8.89C6.46 10.86 4.1 13.68 4.1 15.76C4.86 15.77 5.5 16.39 5.5 17.15C5.5 17.92 4.85 18.54 4.08 18.54M4.08 16.53C3.74 16.53 3.46 16.81 3.46 17.15C3.46 17.5 3.74 17.77 4.08 17.77S4.71 17.5 4.71 17.15C4.71 16.81 4.42 16.53 4.08 16.53M18.5 13.44C18.43 13.44 18.34 13.41 18.27 13.35C18.11 13.21 18.09 12.97 18.23 12.8C19.77 11 20.3 9.26 19.64 8.14C19.17 7.33 18.1 6.88 16.63 6.86C16.41 6.86 16.24 6.68 16.25 6.47C16.25 6.26 16.43 6.1 16.64 6.09C18.39 6.11 19.7 6.7 20.31 7.75C21.15 9.19 20.6 11.21 18.82 13.3C18.74 13.39 18.63 13.44 18.5 13.44M16.5 18.9C14.5 18.9 11.94 18.16 9.5 16.77C7.95 15.88 6.57 14.79 5.5 13.63C5.35 13.47 5.36 13.23 5.5 13.08C5.68 12.94 5.92 12.95 6.07 13.11C7.08 14.21 8.4 15.25 9.89 16.1C13.2 18 16.77 18.63 18.65 17.72C18.57 17.55 18.5 17.35 18.5 17.15C18.5 16.38 19.15 15.76 19.92 15.76C20.69 15.76 21.32 16.38 21.32 17.15C21.32 17.92 20.69 18.54 19.92 18.54C19.64 18.54 19.39 18.46 19.17 18.32C18.47 18.71 17.56 18.9 16.5 18.9M19.5 17.63C19.63 17.71 19.77 17.77 19.92 17.77C20.27 17.77 20.55 17.5 20.55 17.15C20.55 16.81 20.27 16.53 19.92 16.53S19.3 16.81 19.3 17.15C19.3 17.29 19.35 17.42 19.43 17.53C19.47 17.55 19.5 17.59 19.5 17.63M4.46 12C4.33 12 4.2 11.92 4.13 11.8C3.23 10.25 3.08 8.81 3.7 7.74C4.54 6.3 6.58 5.76 9.31 6.25C9.5 6.29 9.66 6.5 9.62 6.7C9.59 6.91 9.39 7.05 9.18 7C6.82 6.59 5 7 4.37 8.13C3.89 8.95 4.04 10.11 4.8 11.41C4.9 11.6 4.84 11.83 4.65 11.94C4.59 11.97 4.53 12 4.46 12M12.21 13.4C11.71 13.5 11.21 13.19 11.11 12.69C11 12.2 11.32 11.71 11.81 11.6C12.31 11.5 12.81 11.81 12.91 12.31C13 12.8 12.7 13.29 12.21 13.4Z" />
    </g>
    <g id="mdi-elephant" transform="translate(144 180) scale(1.5)" fill="#555">
      <path d="M19.5,15.5A0.5,0.5 0 0,1 19,16A0.5,0.5 0 0,1 18.5,15.5V8.5C18.5,6.57 16.43,5 14.5,5H6A4,4 0 0,0 2,9V19H6V15H11V19H15V14.5A0.5,0.5 0 0,1 15.5,14A0.5,0.5 0 0,1 16,14.5V16A3,3 0 0,0 19,19A3,3 0 0,0 22,16V14H19.5V15.5Z" />
    </g>
    <g id="mdi-elephant" transform="translate(180 180) scale(1.5)" fill="#fff">
      <path d="M19.5,15.5A0.5,0.5 0 0,1 19,16A0.5,0.5 0 0,1 18.5,15.5V8.5C18.5,6.57 16.43,5 14.5,5H6A4,4 0 0,0 2,9V19H6V15H11V19H15V14.5A0.5,0.5 0 0,1 15.5,14A0.5,0.5 0 0,1 16,14.5V16A3,3 0 0,0 19,19A3,3 0 0,0 22,16V14H19.5V15.5Z" />
    </g>
    <g id="mdi-elevation-decline" transform="translate(216 180) scale(1.5)" fill="#555">
      <path d="M21,21H3V11.25L9.45,15L13.22,12.8L21,17.29V21M3,8.94V6.75L9.45,10.5L13.22,8.3L21,12.79V15L13.22,10.5L9.45,12.67L3,8.94Z" />
    </g>
    <g id="mdi-elevation-decline" transform="translate(252 180) scale(1.5)" fill="#fff">
      <path d="M21,21H3V11.25L9.45,15L13.22,12.8L21,17.29V21M3,8.94V6.75L9.45,10.5L13.22,8.3L21,12.79V15L13.22,10.5L9.45,12.67L3,8.94Z" />
    </g>
    <g id="mdi-elevation-rise" transform="translate(288 180) scale(1.5)" fill="#555">
      <path d="M3,21V17.29L10.78,12.8L14.55,15L21,11.25V21H3M21,8.94L14.55,12.67L10.78,10.5L3,15V12.79L10.78,8.3L14.55,10.5L21,6.75V8.94Z" />
    </g>
    <g id="mdi-elevation-rise" transform="translate(324 180) scale(1.5)" fill="#fff">
      <path d="M3,21V17.29L10.78,12.8L14.55,15L21,11.25V21H3M21,8.94L14.55,12.67L10.78,10.5L3,15V12.79L10.78,8.3L14.55,10.5L21,6.75V8.94Z" />
    </g>
    <g id="mdi-elevator" transform="translate(360 180) scale(1.5)" fill="#555">
      <path d="M7,2L11,6H8V10H6V6H3L7,2M17,10L13,6H16V2H18V6H21L17,10M7,12H17A2,2 0 0,1 19,14V20A2,2 0 0,1 17,22H7A2,2 0 0,1 5,20V14A2,2 0 0,1 7,12M7,14V20H17V14H7Z" />
    </g>
    <g id="mdi-elevator" transform="translate(396 180) scale(1.5)" fill="#fff">
      <path d="M7,2L11,6H8V10H6V6H3L7,2M17,10L13,6H16V2H18V6H21L17,10M7,12H17A2,2 0 0,1 19,14V20A2,2 0 0,1 17,22H7A2,2 0 0,1 5,20V14A2,2 0 0,1 7,12M7,14V20H17V14H7Z" />
    </g>
    <g id="mdi-elevator-down" transform="translate(432 180) scale(1.5)" fill="#555">
      <path d="M7 10L11 6H8V2H6V6H3L7 10M17 10L13 6H16V2H18V6H21L17 10M7 12H17C18.11 12 19 12.9 19 14V20C19 21.11 18.11 22 17 22H7C5.9 22 5 21.11 5 20V14C5 12.9 5.9 12 7 12M7 14V20H17V14H7Z" />
    </g>
    <g id="mdi-elevator-down" transform="translate(468 180) scale(1.5)" fill="#fff">
      <path d="M7 10L11 6H8V2H6V6H3L7 10M17 10L13 6H16V2H18V6H21L17 10M7 12H17C18.11 12 19 12.9 19 14V20C19 21.11 18.11 22 17 22H7C5.9 22 5 21.11 5 20V14C5 12.9 5.9 12 7 12M7 14V20H17V14H7Z" />
    </g>
    <g id="mdi-elevator-passenger" transform="translate(504 180) scale(1.5)" fill="#555">
      <path d="M19 3H5C3.9 3 3 3.9 3 5V19C3 20.1 3.9 21 5 21H19C20.1 21 21 20.1 21 19V5C21 3.9 20.1 3 19 3M8 5C8.8 5 9.5 5.7 9.5 6.5S8.8 8 8 8 6.5 7.3 6.5 6.5 7.2 5 8 5M11 14H9.5V19H6.5V14H5V11C5 9.9 5.9 9 7 9H9C10.1 9 11 9.9 11 11V14M15.9 19L13 14.2H18.8L15.9 19M13 10L16 5L19 10H13Z" />
    </g>
    <g id="mdi-elevator-passenger" transform="translate(540 180) scale(1.5)" fill="#fff">
      <path d="M19 3H5C3.9 3 3 3.9 3 5V19C3 20.1 3.9 21 5 21H19C20.1 21 21 20.1 21 19V5C21 3.9 20.1 3 19 3M8 5C8.8 5 9.5 5.7 9.5 6.5S8.8 8 8 8 6.5 7.3 6.5 6.5 7.2 5 8 5M11 14H9.5V19H6.5V14H5V11C5 9.9 5.9 9 7 9H9C10.1 9 11 9.9 11 11V14M15.9 19L13 14.2H18.8L15.9 19M13 10L16 5L19 10H13Z" />
    </g>
    <g id="mdi-elevator-up" transform="translate(576 180) scale(1.5)" fill="#555">
      <path d="M7 2L11 6H8V10H6V6H3L7 2M17 2L13 6H16V10H18V6H21L17 2M7 12H17C18.11 12 19 12.9 19 14V20C19 21.11 18.11 22 17 22H7C5.9 22 5 21.11 5 20V14C5 12.9 5.9 12 7 12M7 14V20H17V14H7Z" />
    </g>
    <g id="mdi-elevator-up" transform="translate(612 180) scale(1.5)" fill="#fff">
      <path d="M7 2L11 6H8V10H6V6H3L7 2M17 2L13 6H16V10H18V6H21L17 2M7 12H17C18.11 12 19 12.9 19 14V20C19 21.11 18.11 22 17 22H7C5.9 22 5 21.11 5 20V14C5 12.9 5.9 12 7 12M7 14V20H17V14H7Z" />
    </g>
    <g id="mdi-ellipse" transform="translate(648 180) scale(1.5)" fill="#555">
      <path d="M12,4C6.5,4 2,7.58 2,12C2,16.42 6.5,20 12,20C17.5,20 22,16.42 22,12C22,7.58 17.5,4 12,4Z" />
    </g>
    <g id="mdi-ellipse" transform="translate(684 180) scale(1.5)" fill="#fff">
      <path d="M12,4C6.5,4 2,7.58 2,12C2,16.42 6.5,20 12,20C17.5,20 22,16.42 22,12C22,7.58 17.5,4 12,4Z" />
    </g>
    <g id="mdi-ellipse-outline" transform="translate(0 216) scale(1.5)" fill="#555">
      <path d="M12,6C16.41,6 20,8.69 20,12C20,15.31 16.41,18 12,18C7.59,18 4,15.31 4,12C4,8.69 7.59,6 12,6M12,4C6.5,4 2,7.58 2,12C2,16.42 6.5,20 12,20C17.5,20 22,16.42 22,12C22,7.58 17.5,4 12,4Z" />
    </g>
    <g id="mdi-ellipse-outline" transform="translate(36 216) scale(1.5)" fill="#fff">
      <path d="M12,6C16.41,6 20,8.69 20,12C20,15.31 16.41,18 12,18C7.59,18 4,15.31 4,12C4,8.69 7.59,6 12,6M12,4C6.5,4 2,7.58 2,12C2,16.42 6.5,20 12,20C17.5,20 22,16.42 22,12C22,7.58 17.5,4 12,4Z" />
    </g>
    <g id="mdi-email" transform="translate(72 216) scale(1.5)" fill="#555">
      <path d="M20,8L12,13L4,8V6L12,11L20,6M20,4H4C2.89,4 2,4.89 2,6V18A2,2 0 0,0 4,20H20A2,2 0 0,0 22,18V6C22,4.89 21.1,4 20,4Z" />
    </g>
    <g id="mdi-email" transform="translate(108 216) scale(1.5)" fill="#fff">
      <path d="M20,8L12,13L4,8V6L12,11L20,6M20,4H4C2.89,4 2,4.89 2,6V18A2,2 0 0,0 4,20H20A2,2 0 0,0 22,18V6C22,4.89 21.1,4 20,4Z" />
    </g>
    <g id="mdi-email-alert" transform="translate(144 216) scale(1.5)" fill="#555">
      <path d="M18 8L10 13L2 8V6L10 11L18 6M18 4H2C.9 4 0 4.9 0 6V18C0 19.1 .9 20 2 20H18C19.1 20 20 19.1 20 18V6C20 4.9 19.1 4 18 4M24 7H22V13H24V7M24 15H22V17H24V15Z" />
    </g>
    <g id="mdi-email-alert" transform="translate(180 216) scale(1.5)" fill="#fff">
      <path d="M18 8L10 13L2 8V6L10 11L18 6M18 4H2C.9 4 0 4.9 0 6V18C0 19.1 .9 20 2 20H18C19.1 20 20 19.1 20 18V6C20 4.9 19.1 4 18 4M24 7H22V13H24V7M24 15H22V17H24V15Z" />
    </g>
    <g id="mdi-email-alert-outline" transform="translate(216 216) scale(1.5)" fill="#555">
      <path d="M24 7H22V13H24V7M24 15H22V17H24V15M20 6C20 4.9 19.1 4 18 4H2C.9 4 0 4.9 0 6V18C0 19.1 .9 20 2 20H18C19.1 20 20 19.1 20 18V6M18 6L10 11L2 6H18M18 18H2V8L10 13L18 8V18Z" />
    </g>
    <g id="mdi-email-alert-outline" transform="translate(252 216) scale(1.5)" fill="#fff">
      <path d="M24 7H22V13H24V7M24 15H22V17H24V15M20 6C20 4.9 19.1 4 18 4H2C.9 4 0 4.9 0 6V18C0 19.1 .9 20 2 20H18C19.1 20 20 19.1 20 18V6M18 6L10 11L2 6H18M18 18H2V8L10 13L18 8V18Z" />
    </g>
    <g id="mdi-email-box" transform="translate(288 216) scale(1.5)" fill="#555">
      <path d="M5,3A2,2 0 0,0 3,5V19A2,2 0 0,0 5,21H19A2,2 0 0,0 21,19V5A2,2 0 0,0 19,3H5M6.4,6.5H17.6C18.37,6.5 19,7.12 19,7.9V16.1A1.4,1.4 0 0,1 17.6,17.5H6.4C5.63,17.5 5,16.87 5,16.1V7.9C5,7.12 5.62,6.5 6.4,6.5M6,8V10L12,14L18,10V8L12,12L6,8Z" />
    </g>
    <g id="mdi-email-box" transform="translate(324 216) scale(1.5)" fill="#fff">
      <path d="M5,3A2,2 0 0,0 3,5V19A2,2 0 0,0 5,21H19A2,2 0 0,0 21,19V5A2,2 0 0,0 19,3H5M6.4,6.5H17.6C18.37,6.5 19,7.12 19,7.9V16.1A1.4,1.4 0 0,1 17.6,17.5H6.4C5.63,17.5 5,16.87 5,16.1V7.9C5,7.12 5.62,6.5 6.4,6.5M6,8V10L12,14L18,10V8L12,12L6,8Z" />
    </g>
    <g id="mdi-email-check" transform="translate(360 216) scale(1.5)" fill="#555">
      <path d="M21,13.34C20.37,13.12 19.7,13 19,13A6,6 0 0,0 13,19C13,19.34 13.03,19.67 13.08,20H3A2,2 0 0,1 1,18V6C1,4.89 1.89,4 3,4H19A2,2 0 0,1 21,6V13.34M23.5,17L18.5,22L15,18.5L16.5,17L18.5,19L22,15.5L23.5,17M3,6V8L11,13L19,8V6L11,11L3,6Z" />
    </g>
    <g id="mdi-email-check" transform="translate(396 216) scale(1.5)" fill="#fff">
      <path d="M21,13.34C20.37,13.12 19.7,13 19,13A6,6 0 0,0 13,19C13,19.34 13.03,19.67 13.08,20H3A2,2 0 0,1 1,18V6C1,4.89 1.89,4 3,4H19A2,2 0 0,1 21,6V13.34M23.5,17L18.5,22L15,18.5L16.5,17L18.5,19L22,15.5L23.5,17M3,6V8L11,13L19,8V6L11,11L3,6Z" />
    </g>
    <g id="mdi-email-check-outline" transform="translate(432 216) scale(1.5)" fill="#555">
      <path d="M23.5 17L18.5 22L15 18.5L16.5 17L18.5 19L22 15.5L23.5 17M13 18H3V8L11 13L19 8V13H21V6C21 4.9 20.1 4 19 4H3C1.9 4 1 4.9 1 6V18C1 19.1 1.9 20 3 20H13V18M19 6L11 11L3 6H19Z" />
    </g>
    <g id="mdi-email-check-outline" transform="translate(468 216) scale(1.5)" fill="#fff">
      <path d="M23.5 17L18.5 22L15 18.5L16.5 17L18.5 19L22 15.5L23.5 17M13 18H3V8L11 13L19 8V13H21V6C21 4.9 20.1 4 19 4H3C1.9 4 1 4.9 1 6V18C1 19.1 1.9 20 3 20H13V18M19 6L11 11L3 6H19Z" />
    </g>
    <g id="mdi-email-edit" transform="translate(504 216) scale(1.5)" fill="#555">
      <path d="M21,12.13C20.85,12.14 20.71,12.19 20.61,12.3L19.61,13.3L21.66,15.3L22.66,14.3C22.88,14.09 22.88,13.74 22.66,13.53L21.42,12.3C21.32,12.19 21.18,12.14 21.04,12.13M19.04,13.88L13,19.94V22H15.06L21.12,15.93M20,4H4A2,2 0 0,0 2,6V18A2,2 0 0,0 4,20H11V19.11L19.24,10.89C19.71,10.4 20.36,10.13 21.04,10.13C21.38,10.13 21.72,10.19 22.04,10.32V6C22.04,4.88 21.12,4 20,4M20,8L12,13L4,8V6L12,11L20,6" />
    </g>
    <g id="mdi-email-edit" transform="translate(540 216) scale(1.5)" fill="#fff">
      <path d="M21,12.13C20.85,12.14 20.71,12.19 20.61,12.3L19.61,13.3L21.66,15.3L22.66,14.3C22.88,14.09 22.88,13.74 22.66,13.53L21.42,12.3C21.32,12.19 21.18,12.14 21.04,12.13M19.04,13.88L13,19.94V22H15.06L21.12,15.93M20,4H4A2,2 0 0,0 2,6V18A2,2 0 0,0 4,20H11V19.11L19.24,10.89C19.71,10.4 20.36,10.13 21.04,10.13C21.38,10.13 21.72,10.19 22.04,10.32V6C22.04,4.88 21.12,4 20,4M20,8L12,13L4,8V6L12,11L20,6" />
    </g>
    <g id="mdi-email-edit-outline" transform="translate(576 216) scale(1.5)" fill="#555">
      <path d="M19.07 13.88L13 19.94V22H15.06L21.12 15.93M22.7 13.58L21.42 12.3C21.32 12.19 21.18 12.13 21.04 12.13C20.89 12.14 20.75 12.19 20.65 12.3L19.65 13.3L21.7 15.3L22.7 14.3C22.89 14.1 22.89 13.78 22.7 13.58M11 18H4V8L12 13L20 8V10H22V6C22 4.9 21.1 4 20 4H4C2.9 4 2 4.9 2 6V18C2 19.1 2.9 20 4 20H11V18M20 6L12 11L4 6H20Z" />
    </g>
    <g id="mdi-email-edit-outline" transform="translate(612 216) scale(1.5)" fill="#fff">
      <path d="M19.07 13.88L13 19.94V22H15.06L21.12 15.93M22.7 13.58L21.42 12.3C21.32 12.19 21.18 12.13 21.04 12.13C20.89 12.14 20.75 12.19 20.65 12.3L19.65 13.3L21.7 15.3L22.7 14.3C22.89 14.1 22.89 13.78 22.7 13.58M11 18H4V8L12 13L20 8V10H22V6C22 4.9 21.1 4 20 4H4C2.9 4 2 4.9 2 6V18C2 19.1 2.9 20 4 20H11V18M20 6L12 11L4 6H20Z" />
    </g>
    <g id="mdi-email-lock" transform="translate(648 216) scale(1.5)" fill="#555">
      <path d="M20.5,0A2.5,2.5 0 0,1 23,2.5V3A1,1 0 0,1 24,4V8A1,1 0 0,1 23,9H18A1,1 0 0,1 17,8V4A1,1 0 0,1 18,3V2.5A2.5,2.5 0 0,1 20.5,0M12,11L4,6V8L12,13L16.18,10.39C16.69,10.77 17.32,11 18,11H22V18A2,2 0 0,1 20,20H4A2,2 0 0,1 2,18V6A2,2 0 0,1 4,4H15V8C15,8.36 15.06,8.7 15.18,9L12,11M20.5,1A1.5,1.5 0 0,0 19,2.5V3H22V2.5A1.5,1.5 0 0,0 20.5,1Z" />
    </g>
    <g id="mdi-email-lock" transform="translate(684 216) scale(1.5)" fill="#fff">
      <path d="M20.5,0A2.5,2.5 0 0,1 23,2.5V3A1,1 0 0,1 24,4V8A1,1 0 0,1 23,9H18A1,1 0 0,1 17,8V4A1,1 0 0,1 18,3V2.5A2.5,2.5 0 0,1 20.5,0M12,11L4,6V8L12,13L16.18,10.39C16.69,10.77 17.32,11 18,11H22V18A2,2 0 0,1 20,20H4A2,2 0 0,1 2,18V6A2,2 0 0,1 4,4H15V8C15,8.36 15.06,8.7 15.18,9L12,11M20.5,1A1.5,1.5 0 0,0 19,2.5V3H22V2.5A1.5,1.5 0 0,0 20.5,1Z" />
    </g>
    <g id="mdi-email-mark-as-unread" transform="translate(0 252) scale(1.5)" fill="#555">
      <path d="M18.84,7H16.22L10.5,4L4,7.41V17A2,2 0 0,1 2,15V7.17C2,6.5 2.28,6.06 2.81,5.81L10.5,2L18.05,5.81C18.5,6.09 18.78,6.5 18.84,7M7,8H20A2,2 0 0,1 22,10V19A2,2 0 0,1 20,21H7A2,2 0 0,1 5,19V10A2,2 0 0,1 7,8M20,11.67V10L13.5,13.31L7,10V11.67L13.5,15L20,11.67Z" />
    </g>
    <g id="mdi-email-mark-as-unread" transform="translate(36 252) scale(1.5)" fill="#fff">
      <path d="M18.84,7H16.22L10.5,4L4,7.41V17A2,2 0 0,1 2,15V7.17C2,6.5 2.28,6.06 2.81,5.81L10.5,2L18.05,5.81C18.5,6.09 18.78,6.5 18.84,7M7,8H20A2,2 0 0,1 22,10V19A2,2 0 0,1 20,21H7A2,2 0 0,1 5,19V10A2,2 0 0,1 7,8M20,11.67V10L13.5,13.31L7,10V11.67L13.5,15L20,11.67Z" />
    </g>
    <g id="mdi-email-minus" transform="translate(72 252) scale(1.5)" fill="#555">
      <path d="M3,4C1.89,4 1,4.89 1,6V18A2,2 0 0,0 3,20H14.09C14.03,19.67 14,19.34 14,19A6,6 0 0,1 20,13C20.34,13 20.67,13.03 21,13.09V6C21,4.89 20.1,4 19,4H3M3,6L11,11L19,6V8L11,13L3,8V6M16,18V20H24V18H16Z" />
    </g>
    <g id="mdi-email-minus" transform="translate(108 252) scale(1.5)" fill="#fff">
      <path d="M3,4C1.89,4 1,4.89 1,6V18A2,2 0 0,0 3,20H14.09C14.03,19.67 14,19.34 14,19A6,6 0 0,1 20,13C20.34,13 20.67,13.03 21,13.09V6C21,4.89 20.1,4 19,4H3M3,6L11,11L19,6V8L11,13L3,8V6M16,18V20H24V18H16Z" />
    </g>
    <g id="mdi-email-minus-outline" transform="translate(144 252) scale(1.5)" fill="#555">
      <path d="M16 18V20H24V18H16M14 19C14 18.66 14.04 18.33 14.09 18H3V8L11 13L19 8V13.09C19.33 13.04 19.66 13 20 13S20.67 13.04 21 13.09V6C21 4.9 20.1 4 19 4H3C1.9 4 1 4.9 1 6V18C1 19.1 1.9 20 3 20H14.09C14.04 19.67 14 19.34 14 19M19 6L11 11L3 6H19Z" />
    </g>
    <g id="mdi-email-minus-outline" transform="translate(180 252) scale(1.5)" fill="#fff">
      <path d="M16 18V20H24V18H16M14 19C14 18.66 14.04 18.33 14.09 18H3V8L11 13L19 8V13.09C19.33 13.04 19.66 13 20 13S20.67 13.04 21 13.09V6C21 4.9 20.1 4 19 4H3C1.9 4 1 4.9 1 6V18C1 19.1 1.9 20 3 20H14.09C14.04 19.67 14 19.34 14 19M19 6L11 11L3 6H19Z" />
    </g>
    <g id="mdi-email-multiple" transform="translate(216 252) scale(1.5)" fill="#555">
      <path d="M22,6V4L14,9L6,4V6L14,11L22,6M22,2A2,2 0 0,1 24,4V16A2,2 0 0,1 22,18H6C4.89,18 4,17.1 4,16V4C4,2.89 4.89,2 6,2H22M2,6V20H20V22H2A2,2 0 0,1 0,20V6H2Z" />
    </g>
    <g id="mdi-email-multiple" transform="translate(252 252) scale(1.5)" fill="#fff">
      <path d="M22,6V4L14,9L6,4V6L14,11L22,6M22,2A2,2 0 0,1 24,4V16A2,2 0 0,1 22,18H6C4.89,18 4,17.1 4,16V4C4,2.89 4.89,2 6,2H22M2,6V20H20V22H2A2,2 0 0,1 0,20V6H2Z" />
    </g>
    <g id="mdi-email-multiple-outline" transform="translate(288 252) scale(1.5)" fill="#555">
      <path d="M2 6V20H20V22H2C.895 22 0 21.11 0 20V6H2M24 4C24 2.9 23.1 2 22 2H6C4.9 2 4 2.9 4 4V16C4 17.1 4.9 18 6 18H22C23.1 18 24 17.1 24 16V4M22 4L14 9L6 4H22M22 16H6V6L14 11L22 6V16Z" />
    </g>
    <g id="mdi-email-multiple-outline" transform="translate(324 252) scale(1.5)" fill="#fff">
      <path d="M2 6V20H20V22H2C.895 22 0 21.11 0 20V6H2M24 4C24 2.9 23.1 2 22 2H6C4.9 2 4 2.9 4 4V16C4 17.1 4.9 18 6 18H22C23.1 18 24 17.1 24 16V4M22 4L14 9L6 4H22M22 16H6V6L14 11L22 6V16Z" />
    </g>
    <g id="mdi-email-newsletter" transform="translate(360 252) scale(1.5)" fill="#555">
      <path d="M12 .64L8.23 3H5V5L2.97 6.29C2.39 6.64 2 7.27 2 8V18C2 19.11 2.9 20 4 20H20C21.11 20 22 19.11 22 18V8C22 7.27 21.61 6.64 21.03 6.29L19 5V3H15.77M7 5H17V9.88L12 13L7 9.88M8 6V7.5H16V6M5 7.38V8.63L4 8M19 7.38L20 8L19 8.63M8 8.5V10H16V8.5Z" />
    </g>
    <g id="mdi-email-newsletter" transform="translate(396 252) scale(1.5)" fill="#fff">
      <path d="M12 .64L8.23 3H5V5L2.97 6.29C2.39 6.64 2 7.27 2 8V18C2 19.11 2.9 20 4 20H20C21.11 20 22 19.11 22 18V8C22 7.27 21.61 6.64 21.03 6.29L19 5V3H15.77M7 5H17V9.88L12 13L7 9.88M8 6V7.5H16V6M5 7.38V8.63L4 8M19 7.38L20 8L19 8.63M8 8.5V10H16V8.5Z" />
    </g>
    <g id="mdi-email-off" transform="translate(432 252) scale(1.5)" fill="#555">
      <path d="M22.1 21.5L2.4 1.7L1.1 3L2.6 4.5C2.2 4.9 2 5.4 2 6V18C2 19.1 2.9 20 4 20H18.1L20.8 22.7L22.1 21.5M4 8V6L4.3 6.2L9.6 11.5L4 8M13.4 10.2L7.2 4H20C21.1 4 22 4.9 22 6V18C22 18.2 22 18.5 21.9 18.7L14.6 11.4L20 8V6L13.4 10.2Z" />
    </g>
    <g id="mdi-email-off" transform="translate(468 252) scale(1.5)" fill="#fff">
      <path d="M22.1 21.5L2.4 1.7L1.1 3L2.6 4.5C2.2 4.9 2 5.4 2 6V18C2 19.1 2.9 20 4 20H18.1L20.8 22.7L22.1 21.5M4 8V6L4.3 6.2L9.6 11.5L4 8M13.4 10.2L7.2 4H20C21.1 4 22 4.9 22 6V18C22 18.2 22 18.5 21.9 18.7L14.6 11.4L20 8V6L13.4 10.2Z" />
    </g>
    <g id="mdi-email-off-outline" transform="translate(504 252) scale(1.5)" fill="#555">
      <path d="M22.1 21.5L2.4 1.7L1.1 3L2.6 4.5C2.3 4.9 2 5.4 2 6V18C2 19.1 2.9 20 4 20H18.1L20.8 22.7L22.1 21.5M4 18V8L9.6 11.5L16.1 18H4M9.2 6L7.2 4H20C21.1 4 22 4.9 22 6V18C22 18.2 22 18.5 21.9 18.7L20 16.8V8L14.6 11.4L13.4 10.2L20 6H9.2Z" />
    </g>
    <g id="mdi-email-off-outline" transform="translate(540 252) scale(1.5)" fill="#fff">
      <path d="M22.1 21.5L2.4 1.7L1.1 3L2.6 4.5C2.3 4.9 2 5.4 2 6V18C2 19.1 2.9 20 4 20H18.1L20.8 22.7L22.1 21.5M4 18V8L9.6 11.5L16.1 18H4M9.2 6L7.2 4H20C21.1 4 22 4.9 22 6V18C22 18.2 22 18.5 21.9 18.7L20 16.8V8L14.6 11.4L13.4 10.2L20 6H9.2Z" />
    </g>
    <g id="mdi-email-open" transform="translate(576 252) scale(1.5)" fill="#555">
      <path d="M4,8L12,13L20,8V8L12,3L4,8V8M22,8V18A2,2 0 0,1 20,20H4A2,2 0 0,1 2,18V8C2,7.27 2.39,6.64 2.97,6.29L12,0.64L21.03,6.29C21.61,6.64 22,7.27 22,8Z" />
    </g>
    <g id="mdi-email-open" transform="translate(612 252) scale(1.5)" fill="#fff">
      <path d="M4,8L12,13L20,8V8L12,3L4,8V8M22,8V18A2,2 0 0,1 20,20H4A2,2 0 0,1 2,18V8C2,7.27 2.39,6.64 2.97,6.29L12,0.64L21.03,6.29C21.61,6.64 22,7.27 22,8Z" />
    </g>
    <g id="mdi-email-open-multiple" transform="translate(648 252) scale(1.5)" fill="#555">
      <path d="M6,8L14,13L22,8V8L14,3L6,8V8M24,8V18A2,2 0 0,1 22,20H6A2,2 0 0,1 4,18V8C4,7.27 4.39,6.64 4.97,6.29L14,0.64L23.03,6.29C23.61,6.64 24,7.27 24,8M2,8V22H20V24H2A2,2 0 0,1 0,22V8H2Z" />
    </g>
    <g id="mdi-email-open-multiple" transform="translate(684 252) scale(1.5)" fill="#fff">
      <path d="M6,8L14,13L22,8V8L14,3L6,8V8M24,8V18A2,2 0 0,1 22,20H6A2,2 0 0,1 4,18V8C4,7.27 4.39,6.64 4.97,6.29L14,0.64L23.03,6.29C23.61,6.64 24,7.27 24,8M2,8V22H20V24H2A2,2 0 0,1 0,22V8H2Z" />
    </g>
    <g id="mdi-email-open-multiple-outline" transform="translate(0 288) scale(1.5)" fill="#555">
      <path d="M2 8V22H20V24H2C.895 24 0 23.11 0 22V8H2M23.03 6.29L14 .64L4.97 6.29C4.39 6.64 4 7.27 4 8V18C4 19.1 4.9 20 6 20H22C23.1 20 24 19.1 24 18V8C24 7.27 23.61 6.64 23.03 6.29M22 18H6V10L14 15L22 10V18M14 13L6 8L14 3L22 8L14 13Z" />
    </g>
    <g id="mdi-email-open-multiple-outline" transform="translate(36 288) scale(1.5)" fill="#fff">
      <path d="M2 8V22H20V24H2C.895 24 0 23.11 0 22V8H2M23.03 6.29L14 .64L4.97 6.29C4.39 6.64 4 7.27 4 8V18C4 19.1 4.9 20 6 20H22C23.1 20 24 19.1 24 18V8C24 7.27 23.61 6.64 23.03 6.29M22 18H6V10L14 15L22 10V18M14 13L6 8L14 3L22 8L14 13Z" />
    </g>
    <g id="mdi-email-open-outline" transform="translate(72 288) scale(1.5)" fill="#555">
      <path d="M21.03 6.29L12 .64L2.97 6.29C2.39 6.64 2 7.27 2 8V18C2 19.1 2.9 20 4 20H20C21.1 20 22 19.1 22 18V8C22 7.27 21.61 6.64 21.03 6.29M20 18H4V10L12 15L20 10V18M12 13L4 8L12 3L20 8L12 13Z" />
    </g>
    <g id="mdi-email-open-outline" transform="translate(108 288) scale(1.5)" fill="#fff">
      <path d="M21.03 6.29L12 .64L2.97 6.29C2.39 6.64 2 7.27 2 8V18C2 19.1 2.9 20 4 20H20C21.1 20 22 19.1 22 18V8C22 7.27 21.61 6.64 21.03 6.29M20 18H4V10L12 15L20 10V18M12 13L4 8L12 3L20 8L12 13Z" />
    </g>
    <g id="mdi-email-outline" transform="translate(144 288) scale(1.5)" fill="#555">
      <path d="M22 6C22 4.9 21.1 4 20 4H4C2.9 4 2 4.9 2 6V18C2 19.1 2.9 20 4 20H20C21.1 20 22 19.1 22 18V6M20 6L12 11L4 6H20M20 18H4V8L12 13L20 8V18Z" />
    </g>
    <g id="mdi-email-outline" transform="translate(180 288) scale(1.5)" fill="#fff">
      <path d="M22 6C22 4.9 21.1 4 20 4H4C2.9 4 2 4.9 2 6V18C2 19.1 2.9 20 4 20H20C21.1 20 22 19.1 22 18V6M20 6L12 11L4 6H20M20 18H4V8L12 13L20 8V18Z" />
    </g>
    <g id="mdi-email-plus" transform="translate(216 288) scale(1.5)" fill="#555">
      <path d="M3,4C1.89,4 1,4.89 1,6V18A2,2 0 0,0 3,20H14.09C14.03,19.67 14,19.34 14,19A6,6 0 0,1 20,13C20.34,13 20.67,13.03 21,13.09V6C21,4.89 20.1,4 19,4H3M3,6L11,11L19,6V8L11,13L3,8V6M19,15V18H16V20H19V23H21V20H24V18H21V15H19Z" />
    </g>
    <g id="mdi-email-plus" transform="translate(252 288) scale(1.5)" fill="#fff">
      <path d="M3,4C1.89,4 1,4.89 1,6V18A2,2 0 0,0 3,20H14.09C14.03,19.67 14,19.34 14,19A6,6 0 0,1 20,13C20.34,13 20.67,13.03 21,13.09V6C21,4.89 20.1,4 19,4H3M3,6L11,11L19,6V8L11,13L3,8V6M19,15V18H16V20H19V23H21V20H24V18H21V15H19Z" />
    </g>
    <g id="mdi-email-plus-outline" transform="translate(288 288) scale(1.5)" fill="#555">
      <path d="M19 15V18H16V20H19V23H21V20H24V18H21V15H19M14 18H3V8L11 13L19 8V13H21V6C21 4.9 20.1 4 19 4H3C1.9 4 1 4.9 1 6V18C1 19.1 1.9 20 3 20H14V18M19 6L11 11L3 6H19Z" />
    </g>
    <g id="mdi-email-plus-outline" transform="translate(324 288) scale(1.5)" fill="#fff">
      <path d="M19 15V18H16V20H19V23H21V20H24V18H21V15H19M14 18H3V8L11 13L19 8V13H21V6C21 4.9 20.1 4 19 4H3C1.9 4 1 4.9 1 6V18C1 19.1 1.9 20 3 20H14V18M19 6L11 11L3 6H19Z" />
    </g>
    <g id="mdi-email-receive" transform="translate(360 288) scale(1.5)" fill="#555">
      <path d="M22 20H18V23L13 18.5L18 14V17H22V20M20 4H4A2 2 0 0 0 2 6V18A2 2 0 0 0 4 20H11.35A5.8 5.8 0 0 1 11 18A6 6 0 0 1 22 14.69V6A2 2 0 0 0 20 4M20 8L12 13L4 8V6L12 11L20 6Z" />
    </g>
    <g id="mdi-email-receive" transform="translate(396 288) scale(1.5)" fill="#fff">
      <path d="M22 20H18V23L13 18.5L18 14V17H22V20M20 4H4A2 2 0 0 0 2 6V18A2 2 0 0 0 4 20H11.35A5.8 5.8 0 0 1 11 18A6 6 0 0 1 22 14.69V6A2 2 0 0 0 20 4M20 8L12 13L4 8V6L12 11L20 6Z" />
    </g>
    <g id="mdi-email-receive-outline" transform="translate(432 288) scale(1.5)" fill="#555">
      <path d="M22 20H18V23L13 18.5L18 14V17H22V20M20 4H4A2 2 0 0 0 2 6V18A2 2 0 0 0 4 20H11V18H4V8L12 13L20 8V15H22V6A2 2 0 0 0 20 4M12 11L4 6H20Z" />
    </g>
    <g id="mdi-email-receive-outline" transform="translate(468 288) scale(1.5)" fill="#fff">
      <path d="M22 20H18V23L13 18.5L18 14V17H22V20M20 4H4A2 2 0 0 0 2 6V18A2 2 0 0 0 4 20H11V18H4V8L12 13L20 8V15H22V6A2 2 0 0 0 20 4M12 11L4 6H20Z" />
    </g>
    <g id="mdi-email-search" transform="translate(504 288) scale(1.5)" fill="#555">
      <path d="M3,4H19A2,2 0 0,1 21,6V10.82C20,9.85 18.7,9.23 17.31,9.06L19,8V6L11,11L3,6V8L10.62,12.76C10.21,13.62 10,14.55 10,15.5C10,17.18 10.65,18.79 11.81,20H3A2,2 0 0,1 1,18V6C1,4.89 1.89,4 3,4M16.5,11C19,11 21,13 21,15.5C21,16.38 20.75,17.21 20.31,17.9L23.39,21L22,22.39L18.88,19.32C18.19,19.75 17.37,20 16.5,20C14,20 12,18 12,15.5C12,13 14,11 16.5,11M16.5,13A2.5,2.5 0 0,0 14,15.5A2.5,2.5 0 0,0 16.5,18A2.5,2.5 0 0,0 19,15.5A2.5,2.5 0 0,0 16.5,13Z" />
    </g>
    <g id="mdi-email-search" transform="translate(540 288) scale(1.5)" fill="#fff">
      <path d="M3,4H19A2,2 0 0,1 21,6V10.82C20,9.85 18.7,9.23 17.31,9.06L19,8V6L11,11L3,6V8L10.62,12.76C10.21,13.62 10,14.55 10,15.5C10,17.18 10.65,18.79 11.81,20H3A2,2 0 0,1 1,18V6C1,4.89 1.89,4 3,4M16.5,11C19,11 21,13 21,15.5C21,16.38 20.75,17.21 20.31,17.9L23.39,21L22,22.39L18.88,19.32C18.19,19.75 17.37,20 16.5,20C14,20 12,18 12,15.5C12,13 14,11 16.5,11M16.5,13A2.5,2.5 0 0,0 14,15.5A2.5,2.5 0 0,0 16.5,18A2.5,2.5 0 0,0 19,15.5A2.5,2.5 0 0,0 16.5,13Z" />
    </g>
    <g id="mdi-email-search-outline" transform="translate(576 288) scale(1.5)" fill="#555">
      <path d="M16.5 11C19 11 21 13 21 15.5C21 16.38 20.75 17.21 20.31 17.9L23.39 21L22 22.39L18.88 19.32C18.19 19.75 17.37 20 16.5 20C14 20 12 18 12 15.5S14 11 16.5 11M16.5 13C15.12 13 14 14.12 14 15.5S15.12 18 16.5 18 19 16.88 19 15.5 17.88 13 16.5 13M10.5 18H3V8L10.62 12.76C11.65 10.54 13.9 9 16.5 9C16.77 9 17.04 9 17.31 9.06L19 8V9.5C19.75 9.81 20.42 10.27 21 10.82V6C21 4.9 20.1 4 19 4H3C1.9 4 1 4.9 1 6V18C1 19.1 1.9 20 3 20H11.82C11.27 19.42 10.82 18.75 10.5 18M19 6L11 11L3 6H19Z" />
    </g>
    <g id="mdi-email-search-outline" transform="translate(612 288) scale(1.5)" fill="#fff">
      <path d="M16.5 11C19 11 21 13 21 15.5C21 16.38 20.75 17.21 20.31 17.9L23.39 21L22 22.39L18.88 19.32C18.19 19.75 17.37 20 16.5 20C14 20 12 18 12 15.5S14 11 16.5 11M16.5 13C15.12 13 14 14.12 14 15.5S15.12 18 16.5 18 19 16.88 19 15.5 17.88 13 16.5 13M10.5 18H3V8L10.62 12.76C11.65 10.54 13.9 9 16.5 9C16.77 9 17.04 9 17.31 9.06L19 8V9.5C19.75 9.81 20.42 10.27 21 10.82V6C21 4.9 20.1 4 19 4H3C1.9 4 1 4.9 1 6V18C1 19.1 1.9 20 3 20H11.82C11.27 19.42 10.82 18.75 10.5 18M19 6L11 11L3 6H19Z" />
    </g>
    <g id="mdi-email-send" transform="translate(648 288) scale(1.5)" fill="#555">
      <path d="M13 17H17V14L22 18.5L17 23V20H13V17M20 4H4A2 2 0 0 0 2 6V18A2 2 0 0 0 4 20H11.35A5.8 5.8 0 0 1 11 18A6 6 0 0 1 22 14.69V6A2 2 0 0 0 20 4M20 8L12 13L4 8V6L12 11L20 6Z" />
    </g>
    <g id="mdi-email-send" transform="translate(684 288) scale(1.5)" fill="#fff">
      <path d="M13 17H17V14L22 18.5L17 23V20H13V17M20 4H4A2 2 0 0 0 2 6V18A2 2 0 0 0 4 20H11.35A5.8 5.8 0 0 1 11 18A6 6 0 0 1 22 14.69V6A2 2 0 0 0 20 4M20 8L12 13L4 8V6L12 11L20 6Z" />
    </g>
    <g id="mdi-email-send-outline" transform="translate(0 324) scale(1.5)" fill="#555">
      <path d="M13 17H17V14L22 18.5L17 23V20H13V17M20 4H4A2 2 0 0 0 2 6V18A2 2 0 0 0 4 20H11V18H4V8L12 13L20 8V14H22V6A2 2 0 0 0 20 4M12 11L4 6H20Z" />
    </g>
    <g id="mdi-email-send-outline" transform="translate(36 324) scale(1.5)" fill="#fff">
      <path d="M13 17H17V14L22 18.5L17 23V20H13V17M20 4H4A2 2 0 0 0 2 6V18A2 2 0 0 0 4 20H11V18H4V8L12 13L20 8V14H22V6A2 2 0 0 0 20 4M12 11L4 6H20Z" />
    </g>
    <g id="mdi-email-sync" transform="translate(72 324) scale(1.5)" fill="#555">
      <path d="M3 4C1.89 4 1 4.89 1 6V18C1 19.11 1.9 20 3 20H13.5A6.5 6.5 0 0 1 13 17.5A6.5 6.5 0 0 1 19.5 11A6.5 6.5 0 0 1 21 11.18V6C21 4.89 20.1 4 19 4H3M3 6L11 11L19 6V8L11 13L3 8V6M19 12L16.75 14.25L19 16.5V15C20.38 15 21.5 16.12 21.5 17.5C21.5 17.9 21.41 18.28 21.24 18.62L22.33 19.71C22.75 19.08 23 18.32 23 17.5C23 15.29 21.21 13.5 19 13.5V12M15.67 15.29C15.25 15.92 15 16.68 15 17.5C15 19.71 16.79 21.5 19 21.5V23L21.25 20.75L19 18.5V20C17.62 20 16.5 18.88 16.5 17.5C16.5 17.1 16.59 16.72 16.76 16.38L15.67 15.29Z" />
    </g>
    <g id="mdi-email-sync" transform="translate(108 324) scale(1.5)" fill="#fff">
      <path d="M3 4C1.89 4 1 4.89 1 6V18C1 19.11 1.9 20 3 20H13.5A6.5 6.5 0 0 1 13 17.5A6.5 6.5 0 0 1 19.5 11A6.5 6.5 0 0 1 21 11.18V6C21 4.89 20.1 4 19 4H3M3 6L11 11L19 6V8L11 13L3 8V6M19 12L16.75 14.25L19 16.5V15C20.38 15 21.5 16.12 21.5 17.5C21.5 17.9 21.41 18.28 21.24 18.62L22.33 19.71C22.75 19.08 23 18.32 23 17.5C23 15.29 21.21 13.5 19 13.5V12M15.67 15.29C15.25 15.92 15 16.68 15 17.5C15 19.71 16.79 21.5 19 21.5V23L21.25 20.75L19 18.5V20C17.62 20 16.5 18.88 16.5 17.5C16.5 17.1 16.59 16.72 16.76 16.38L15.67 15.29Z" />
    </g>
    <g id="mdi-email-sync-outline" transform="translate(144 324) scale(1.5)" fill="#555">
      <path d="M3 4C1.9 4 1 4.9 1 6V18C1 19.1 1.9 20 3 20H13.5A6.5 6.5 0 0 1 13 18H3V8L11 13L19 8V11A6.5 6.5 0 0 1 19.5 11A6.5 6.5 0 0 1 21 11.18V6C21 4.9 20.1 4 19 4H3M3 6H19L11 11L3 6M19 12L16.75 14.25L19 16.5V15C20.38 15 21.5 16.12 21.5 17.5C21.5 17.9 21.41 18.28 21.24 18.62L22.33 19.71C22.75 19.08 23 18.32 23 17.5C23 15.29 21.21 13.5 19 13.5V12M15.67 15.29C15.25 15.92 15 16.68 15 17.5C15 19.71 16.79 21.5 19 21.5V23L21.25 20.75L19 18.5V20C17.62 20 16.5 18.88 16.5 17.5C16.5 17.1 16.59 16.72 16.76 16.38L15.67 15.29Z" />
    </g>
    <g id="mdi-email-sync-outline" transform="translate(180 324) scale(1.5)" fill="#fff">
      <path d="M3 4C1.9 4 1 4.9 1 6V18C1 19.1 1.9 20 3 20H13.5A6.5 6.5 0 0 1 13 18H3V8L11 13L19 8V11A6.5 6.5 0 0 1 19.5 11A6.5 6.5 0 0 1 21 11.18V6C21 4.9 20.1 4 19 4H3M3 6H19L11 11L3 6M19 12L16.75 14.25L19 16.5V15C20.38 15 21.5 16.12 21.5 17.5C21.5 17.9 21.41 18.28 21.24 18.62L22.33 19.71C22.75 19.08 23 18.32 23 17.5C23 15.29 21.21 13.5 19 13.5V12M15.67 15.29C15.25 15.92 15 16.68 15 17.5C15 19.71 16.79 21.5 19 21.5V23L21.25 20.75L19 18.5V20C17.62 20 16.5 18.88 16.5 17.5C16.5 17.1 16.59 16.72 16.76 16.38L15.67 15.29Z" />
    </g>
    <g id="mdi-email-variant" transform="translate(216 324) scale(1.5)" fill="#555">
      <path d="M12,13L2,6.76V6C2,4.89 2.89,4 4,4H20A2,2 0 0,1 22,6V6.75L12,13M22,18A2,2 0 0,1 20,20H4C2.89,20 2,19.1 2,18V9.11L4,10.36V18H20V10.36L22,9.11V18Z" />
    </g>
    <g id="mdi-email-variant" transform="translate(252 324) scale(1.5)" fill="#fff">
      <path d="M12,13L2,6.76V6C2,4.89 2.89,4 4,4H20A2,2 0 0,1 22,6V6.75L12,13M22,18A2,2 0 0,1 20,20H4C2.89,20 2,19.1 2,18V9.11L4,10.36V18H20V10.36L22,9.11V18Z" />
    </g>
    <g id="mdi-ember" transform="translate(288 324) scale(1.5)" fill="#555">
      <path d="M22,14.22C22,14.22 17.61,17.35 14.72,17.39C11.84,17.44 12.13,15.56 12.13,15.56C12.13,15.56 22.71,11.94 19.83,4.79C18.53,2.95 17,2.37 14.89,2.42C12.76,2.46 10.17,3.76 8.46,7.6C7.64,9.44 7.41,11.18 7.24,12.5V12.5C7.24,12.5 5.32,12.88 4.32,12.04C3.32,11.2 2.77,12.04 2.77,12.04C2.77,12.04 1.03,14.2 2.75,14.87C4.46,15.54 7.12,15.82 7.12,15.82V15.82C7.36,17 8.08,19 10.17,20.6C13.3,23 19.32,20.4 19.32,20.4M11.63,12.33C11.76,7.36 15,5.18 16.15,6.27C17.27,7.36 16.86,9.7 14.72,11.16C12.59,12.63 11.63,12.33 11.63,12.33Z" />
    </g>
    <g id="mdi-ember" transform="translate(324 324) scale(1.5)" fill="#fff">
      <path d="M22,14.22C22,14.22 17.61,17.35 14.72,17.39C11.84,17.44 12.13,15.56 12.13,15.56C12.13,15.56 22.71,11.94 19.83,4.79C18.53,2.95 17,2.37 14.89,2.42C12.76,2.46 10.17,3.76 8.46,7.6C7.64,9.44 7.41,11.18 7.24,12.5V12.5C7.24,12.5 5.32,12.88 4.32,12.04C3.32,11.2 2.77,12.04 2.77,12.04C2.77,12.04 1.03,14.2 2.75,14.87C4.46,15.54 7.12,15.82 7.12,15.82V15.82C7.36,17 8.08,19 10.17,20.6C13.3,23 19.32,20.4 19.32,20.4M11.63,12.33C11.76,7.36 15,5.18 16.15,6.27C17.27,7.36 16.86,9.7 14.72,11.16C12.59,12.63 11.63,12.33 11.63,12.33Z" />
    </g>
    <g id="mdi-emby" transform="translate(360 324) scale(1.5)" fill="#555">
      <path d="M11,2L6,7L7,8L2,13L7,18L8,17L13,22L18,17L17,16L22,11L17,6L16,7L11,2M10,8.5L16,12L10,15.5V8.5Z" />
    </g>
    <g id="mdi-emby" transform="translate(396 324) scale(1.5)" fill="#fff">
      <path d="M11,2L6,7L7,8L2,13L7,18L8,17L13,22L18,17L17,16L22,11L17,6L16,7L11,2M10,8.5L16,12L10,15.5V8.5Z" />
    </g>
    <g id="mdi-emoticon" transform="translate(432 324) scale(1.5)" fill="#555">
      <path d="M12,2C6.47,2 2,6.5 2,12A10,10 0 0,0 12,22A10,10 0 0,0 22,12A10,10 0 0,0 12,2M15.5,8A1.5,1.5 0 0,1 17,9.5A1.5,1.5 0 0,1 15.5,11A1.5,1.5 0 0,1 14,9.5A1.5,1.5 0 0,1 15.5,8M8.5,8A1.5,1.5 0 0,1 10,9.5A1.5,1.5 0 0,1 8.5,11A1.5,1.5 0 0,1 7,9.5A1.5,1.5 0 0,1 8.5,8M12,17.5C9.67,17.5 7.69,16.04 6.89,14H17.11C16.3,16.04 14.33,17.5 12,17.5Z" />
    </g>
    <g id="mdi-emoticon" transform="translate(468 324) scale(1.5)" fill="#fff">
      <path d="M12,2C6.47,2 2,6.5 2,12A10,10 0 0,0 12,22A10,10 0 0,0 22,12A10,10 0 0,0 12,2M15.5,8A1.5,1.5 0 0,1 17,9.5A1.5,1.5 0 0,1 15.5,11A1.5,1.5 0 0,1 14,9.5A1.5,1.5 0 0,1 15.5,8M8.5,8A1.5,1.5 0 0,1 10,9.5A1.5,1.5 0 0,1 8.5,11A1.5,1.5 0 0,1 7,9.5A1.5,1.5 0 0,1 8.5,8M12,17.5C9.67,17.5 7.69,16.04 6.89,14H17.11C16.3,16.04 14.33,17.5 12,17.5Z" />
    </g>
    <g id="mdi-emoticon-angry" transform="translate(504 324) scale(1.5)" fill="#555">
      <path d="M12,2A10,10 0 0,0 2,12A10,10 0 0,0 12,22A10,10 0 0,0 22,12A10,10 0 0,0 12,2M7,9.5V8L10,9.5C10,10.3 9.3,11 8.5,11C7.7,11 7,10.3 7,9.5M14.77,17.23C14.32,16.5 13.25,16 12,16C10.75,16 9.68,16.5 9.23,17.23L7.81,15.81C8.71,14.72 10.25,14 12,14C13.75,14 15.29,14.72 16.19,15.81L14.77,17.23M17,9.5C17,10.3 16.3,11 15.5,11C14.7,11 14,10.3 14,9.5L17,8V9.5Z" />
    </g>
    <g id="mdi-emoticon-angry" transform="translate(540 324) scale(1.5)" fill="#fff">
      <path d="M12,2A10,10 0 0,0 2,12A10,10 0 0,0 12,22A10,10 0 0,0 22,12A10,10 0 0,0 12,2M7,9.5V8L10,9.5C10,10.3 9.3,11 8.5,11C7.7,11 7,10.3 7,9.5M14.77,17.23C14.32,16.5 13.25,16 12,16C10.75,16 9.68,16.5 9.23,17.23L7.81,15.81C8.71,14.72 10.25,14 12,14C13.75,14 15.29,14.72 16.19,15.81L14.77,17.23M17,9.5C17,10.3 16.3,11 15.5,11C14.7,11 14,10.3 14,9.5L17,8V9.5Z" />
    </g>
    <g id="mdi-emoticon-angry-outline" transform="translate(576 324) scale(1.5)" fill="#555">
      <path d="M12,2A10,10 0 0,0 2,12A10,10 0 0,0 12,22A10,10 0 0,0 22,12A10,10 0 0,0 12,2M12,20A8,8 0 0,1 4,12A8,8 0 0,1 12,4A8,8 0 0,1 20,12A8,8 0 0,1 12,20M12,14C13.75,14 15.29,14.72 16.19,15.81L14.77,17.23C14.32,16.5 13.25,16 12,16C10.75,16 9.68,16.5 9.23,17.23L7.81,15.81C8.71,14.72 10.25,14 12,14M10,9.5C10,10.3 9.3,11 8.5,11C7.7,11 7,10.3 7,9.5V8L10,9.5M17,9.5C17,10.3 16.3,11 15.5,11C14.7,11 14,10.3 14,9.5L17,8V9.5" />
    </g>
    <g id="mdi-emoticon-angry-outline" transform="translate(612 324) scale(1.5)" fill="#fff">
      <path d="M12,2A10,10 0 0,0 2,12A10,10 0 0,0 12,22A10,10 0 0,0 22,12A10,10 0 0,0 12,2M12,20A8,8 0 0,1 4,12A8,8 0 0,1 12,4A8,8 0 0,1 20,12A8,8 0 0,1 12,20M12,14C13.75,14 15.29,14.72 16.19,15.81L14.77,17.23C14.32,16.5 13.25,16 12,16C10.75,16 9.68,16.5 9.23,17.23L7.81,15.81C8.71,14.72 10.25,14 12,14M10,9.5C10,10.3 9.3,11 8.5,11C7.7,11 7,10.3 7,9.5V8L10,9.5M17,9.5C17,10.3 16.3,11 15.5,11C14.7,11 14,10.3 14,9.5L17,8V9.5" />
    </g>
    <g id="mdi-emoticon-confused" transform="translate(648 324) scale(1.5)" fill="#555">
      <path d="M12 2A10 10 0 1 0 22 12A10 10 0 0 0 12 2M8.5 8A1.5 1.5 0 1 1 7 9.5A1.54 1.54 0 0 1 8.5 8M17 16H13A4 4 0 0 0 9.53 18L7.8 17A6 6 0 0 1 13 14H17M15.5 11A1.5 1.5 0 1 1 17 9.5A1.54 1.54 0 0 1 15.5 11Z" />
    </g>
    <g id="mdi-emoticon-confused" transform="translate(684 324) scale(1.5)" fill="#fff">
      <path d="M12 2A10 10 0 1 0 22 12A10 10 0 0 0 12 2M8.5 8A1.5 1.5 0 1 1 7 9.5A1.54 1.54 0 0 1 8.5 8M17 16H13A4 4 0 0 0 9.53 18L7.8 17A6 6 0 0 1 13 14H17M15.5 11A1.5 1.5 0 1 1 17 9.5A1.54 1.54 0 0 1 15.5 11Z" />
    </g>
  </svg>