<?xml version="1.0" encoding="UTF-8"?>
<!DOCTYPE svg PUBLIC "-//W3C//DTD SVG 1.1//EN" "http://www.w3.org/Graphics/SVG/1.1/DTD/svg11.dtd"><svg
  xmlns="http://www.w3.org/2000/svg" xmlns:xlink="http://www.w3.org/1999/xlink" version="1.1"
  width="720" height="900" viewBox="0 0 720 900">
    <g id="mdi-chevron-left-circle" transform="translate(0 0) scale(1.5)" fill="#555">
      <path d="M22,12A10,10 0 0,1 12,22A10,10 0 0,1 2,12A10,10 0 0,1 12,2A10,10 0 0,1 22,12M15.4,16.6L10.8,12L15.4,7.4L14,6L8,12L14,18L15.4,16.6Z" />
    </g>
    <g id="mdi-chevron-left-circle" transform="translate(36 0) scale(1.5)" fill="#fff">
      <path d="M22,12A10,10 0 0,1 12,22A10,10 0 0,1 2,12A10,10 0 0,1 12,2A10,10 0 0,1 22,12M15.4,16.6L10.8,12L15.4,7.4L14,6L8,12L14,18L15.4,16.6Z" />
    </g>
    <g id="mdi-chevron-left-circle-outline" transform="translate(72 0) scale(1.5)" fill="#555">
      <path d="M22,12A10,10 0 0,1 12,22A10,10 0 0,1 2,12A10,10 0 0,1 12,2A10,10 0 0,1 22,12M20,12A8,8 0 0,0 12,4A8,8 0 0,0 4,12A8,8 0 0,0 12,20A8,8 0 0,0 20,12M15.4,16.6L10.8,12L15.4,7.4L14,6L8,12L14,18L15.4,16.6Z" />
    </g>
    <g id="mdi-chevron-left-circle-outline" transform="translate(108 0) scale(1.5)" fill="#fff">
      <path d="M22,12A10,10 0 0,1 12,22A10,10 0 0,1 2,12A10,10 0 0,1 12,2A10,10 0 0,1 22,12M20,12A8,8 0 0,0 12,4A8,8 0 0,0 4,12A8,8 0 0,0 12,20A8,8 0 0,0 20,12M15.4,16.6L10.8,12L15.4,7.4L14,6L8,12L14,18L15.4,16.6Z" />
    </g>
    <g id="mdi-chevron-right" transform="translate(144 0) scale(1.5)" fill="#555">
      <path d="M8.59,16.58L13.17,12L8.59,7.41L10,6L16,12L10,18L8.59,16.58Z" />
    </g>
    <g id="mdi-chevron-right" transform="translate(180 0) scale(1.5)" fill="#fff">
      <path d="M8.59,16.58L13.17,12L8.59,7.41L10,6L16,12L10,18L8.59,16.58Z" />
    </g>
    <g id="mdi-chevron-right-box" transform="translate(216 0) scale(1.5)" fill="#555">
      <path d="M19,3H5A2,2 0 0,0 3,5V19C3,20.11 3.9,21 5,21H19C20.11,21 21,20.11 21,19V5A2,2 0 0,0 19,3M9.71,18L8.29,16.59L12.88,12L8.29,7.41L9.71,6L15.71,12L9.71,18Z" />
    </g>
    <g id="mdi-chevron-right-box" transform="translate(252 0) scale(1.5)" fill="#fff">
      <path d="M19,3H5A2,2 0 0,0 3,5V19C3,20.11 3.9,21 5,21H19C20.11,21 21,20.11 21,19V5A2,2 0 0,0 19,3M9.71,18L8.29,16.59L12.88,12L8.29,7.41L9.71,6L15.71,12L9.71,18Z" />
    </g>
    <g id="mdi-chevron-right-box-outline" transform="translate(288 0) scale(1.5)" fill="#555">
      <path d="M19,3H5A2,2 0 0,0 3,5V19C3,20.11 3.9,21 5,21H19C20.11,21 21,20.11 21,19V5A2,2 0 0,0 19,3M19,19H5V5H19V19M8.29,16.59L12.88,12L8.29,7.41L9.71,6L15.71,12L9.71,18L8.29,16.59Z" />
    </g>
    <g id="mdi-chevron-right-box-outline" transform="translate(324 0) scale(1.5)" fill="#fff">
      <path d="M19,3H5A2,2 0 0,0 3,5V19C3,20.11 3.9,21 5,21H19C20.11,21 21,20.11 21,19V5A2,2 0 0,0 19,3M19,19H5V5H19V19M8.29,16.59L12.88,12L8.29,7.41L9.71,6L15.71,12L9.71,18L8.29,16.59Z" />
    </g>
    <g id="mdi-chevron-right-circle" transform="translate(360 0) scale(1.5)" fill="#555">
      <path d="M22,12A10,10 0 0,1 12,22A10,10 0 0,1 2,12A10,10 0 0,1 12,2A10,10 0 0,1 22,12M10,18L16,12L10,6L8.6,7.4L13.2,12L8.6,16.6L10,18Z" />
    </g>
    <g id="mdi-chevron-right-circle" transform="translate(396 0) scale(1.5)" fill="#fff">
      <path d="M22,12A10,10 0 0,1 12,22A10,10 0 0,1 2,12A10,10 0 0,1 12,2A10,10 0 0,1 22,12M10,18L16,12L10,6L8.6,7.4L13.2,12L8.6,16.6L10,18Z" />
    </g>
    <g id="mdi-chevron-right-circle-outline" transform="translate(432 0) scale(1.5)" fill="#555">
      <path d="M22,12A10,10 0 0,1 12,22A10,10 0 0,1 2,12A10,10 0 0,1 12,2A10,10 0 0,1 22,12M20,12A8,8 0 0,0 12,4A8,8 0 0,0 4,12A8,8 0 0,0 12,20A8,8 0 0,0 20,12M8.6,16.6L13.2,12L8.6,7.4L10,6L16,12L10,18L8.6,16.6Z" />
    </g>
    <g id="mdi-chevron-right-circle-outline" transform="translate(468 0) scale(1.5)" fill="#fff">
      <path d="M22,12A10,10 0 0,1 12,22A10,10 0 0,1 2,12A10,10 0 0,1 12,2A10,10 0 0,1 22,12M20,12A8,8 0 0,0 12,4A8,8 0 0,0 4,12A8,8 0 0,0 12,20A8,8 0 0,0 20,12M8.6,16.6L13.2,12L8.6,7.4L10,6L16,12L10,18L8.6,16.6Z" />
    </g>
    <g id="mdi-chevron-triple-down" transform="translate(504 0) scale(1.5)" fill="#555">
      <path d="M7.41,14.58L12,19.17L16.59,14.58L18,16L12,22L6,16L7.41,14.58M7.41,8.58L12,13.17L16.59,8.58L18,10L12,16L6,10L7.41,8.58M7.41,2.58L12,7.17L16.59,2.58L18,4L12,10L6,4L7.41,2.58Z" />
    </g>
    <g id="mdi-chevron-triple-down" transform="translate(540 0) scale(1.5)" fill="#fff">
      <path d="M7.41,14.58L12,19.17L16.59,14.58L18,16L12,22L6,16L7.41,14.58M7.41,8.58L12,13.17L16.59,8.58L18,10L12,16L6,10L7.41,8.58M7.41,2.58L12,7.17L16.59,2.58L18,4L12,10L6,4L7.41,2.58Z" />
    </g>
    <g id="mdi-chevron-triple-left" transform="translate(576 0) scale(1.5)" fill="#555">
      <path d="M9.42,7.41L4.83,12L9.42,16.59L8,18L2,12L8,6L9.42,7.41M15.42,7.41L10.83,12L15.42,16.59L14,18L8,12L14,6L15.42,7.41M21.42,7.41L16.83,12L21.42,16.59L20,18L14,12L20,6L21.42,7.41Z" />
    </g>
    <g id="mdi-chevron-triple-left" transform="translate(612 0) scale(1.5)" fill="#fff">
      <path d="M9.42,7.41L4.83,12L9.42,16.59L8,18L2,12L8,6L9.42,7.41M15.42,7.41L10.83,12L15.42,16.59L14,18L8,12L14,6L15.42,7.41M21.42,7.41L16.83,12L21.42,16.59L20,18L14,12L20,6L21.42,7.41Z" />
    </g>
    <g id="mdi-chevron-triple-right" transform="translate(648 0) scale(1.5)" fill="#555">
      <path d="M14.58,16.59L19.17,12L14.58,7.41L16,6L22,12L16,18L14.58,16.59M8.58,16.59L13.17,12L8.58,7.41L10,6L16,12L10,18L8.58,16.59M2.58,16.59L7.17,12L2.58,7.41L4,6L10,12L4,18L2.58,16.59Z" />
    </g>
    <g id="mdi-chevron-triple-right" transform="translate(684 0) scale(1.5)" fill="#fff">
      <path d="M14.58,16.59L19.17,12L14.58,7.41L16,6L22,12L16,18L14.58,16.59M8.58,16.59L13.17,12L8.58,7.41L10,6L16,12L10,18L8.58,16.59M2.58,16.59L7.17,12L2.58,7.41L4,6L10,12L4,18L2.58,16.59Z" />
    </g>
    <g id="mdi-chevron-triple-up" transform="translate(0 36) scale(1.5)" fill="#555">
      <path d="M16.59,9.42L12,4.83L7.41,9.42L6,8L12,2L18,8L16.59,9.42M16.59,15.42L12,10.83L7.41,15.42L6,14L12,8L18,14L16.59,15.42M16.59,21.42L12,16.83L7.41,21.42L6,20L12,14L18,20L16.59,21.42Z" />
    </g>
    <g id="mdi-chevron-triple-up" transform="translate(36 36) scale(1.5)" fill="#fff">
      <path d="M16.59,9.42L12,4.83L7.41,9.42L6,8L12,2L18,8L16.59,9.42M16.59,15.42L12,10.83L7.41,15.42L6,14L12,8L18,14L16.59,15.42M16.59,21.42L12,16.83L7.41,21.42L6,20L12,14L18,20L16.59,21.42Z" />
    </g>
    <g id="mdi-chevron-up" transform="translate(72 36) scale(1.5)" fill="#555">
      <path d="M7.41,15.41L12,10.83L16.59,15.41L18,14L12,8L6,14L7.41,15.41Z" />
    </g>
    <g id="mdi-chevron-up" transform="translate(108 36) scale(1.5)" fill="#fff">
      <path d="M7.41,15.41L12,10.83L16.59,15.41L18,14L12,8L6,14L7.41,15.41Z" />
    </g>
    <g id="mdi-chevron-up-box" transform="translate(144 36) scale(1.5)" fill="#555">
      <path d="M19,3H5A2,2 0 0,0 3,5V19C3,20.11 3.9,21 5,21H19C20.11,21 21,20.11 21,19V5A2,2 0 0,0 19,3M16.59,15.71L12,11.12L7.41,15.71L6,14.29L12,8.29L18,14.29L16.59,15.71Z" />
    </g>
    <g id="mdi-chevron-up-box" transform="translate(180 36) scale(1.5)" fill="#fff">
      <path d="M19,3H5A2,2 0 0,0 3,5V19C3,20.11 3.9,21 5,21H19C20.11,21 21,20.11 21,19V5A2,2 0 0,0 19,3M16.59,15.71L12,11.12L7.41,15.71L6,14.29L12,8.29L18,14.29L16.59,15.71Z" />
    </g>
    <g id="mdi-chevron-up-box-outline" transform="translate(216 36) scale(1.5)" fill="#555">
      <path d="M19,3H5A2,2 0 0,0 3,5V19C3,20.11 3.9,21 5,21H19C20.11,21 21,20.11 21,19V5A2,2 0 0,0 19,3M19,19H5V5H19V19M16.59,15.71L12,11.12L7.41,15.71L6,14.29L12,8.29L18,14.29L16.59,15.71Z" />
    </g>
    <g id="mdi-chevron-up-box-outline" transform="translate(252 36) scale(1.5)" fill="#fff">
      <path d="M19,3H5A2,2 0 0,0 3,5V19C3,20.11 3.9,21 5,21H19C20.11,21 21,20.11 21,19V5A2,2 0 0,0 19,3M19,19H5V5H19V19M16.59,15.71L12,11.12L7.41,15.71L6,14.29L12,8.29L18,14.29L16.59,15.71Z" />
    </g>
    <g id="mdi-chevron-up-circle" transform="translate(288 36) scale(1.5)" fill="#555">
      <path d="M22,12A10,10 0 0,1 12,22A10,10 0 0,1 2,12A10,10 0 0,1 12,2A10,10 0 0,1 22,12M7.4,15.4L12,10.8L16.6,15.4L18,14L12,8L6,14L7.4,15.4Z" />
    </g>
    <g id="mdi-chevron-up-circle" transform="translate(324 36) scale(1.5)" fill="#fff">
      <path d="M22,12A10,10 0 0,1 12,22A10,10 0 0,1 2,12A10,10 0 0,1 12,2A10,10 0 0,1 22,12M7.4,15.4L12,10.8L16.6,15.4L18,14L12,8L6,14L7.4,15.4Z" />
    </g>
    <g id="mdi-chevron-up-circle-outline" transform="translate(360 36) scale(1.5)" fill="#555">
      <path d="M22,12A10,10 0 0,1 12,22A10,10 0 0,1 2,12A10,10 0 0,1 12,2A10,10 0 0,1 22,12M20,12A8,8 0 0,0 12,4A8,8 0 0,0 4,12A8,8 0 0,0 12,20A8,8 0 0,0 20,12M7.4,15.4L12,10.8L16.6,15.4L18,14L12,8L6,14L7.4,15.4Z" />
    </g>
    <g id="mdi-chevron-up-circle-outline" transform="translate(396 36) scale(1.5)" fill="#fff">
      <path d="M22,12A10,10 0 0,1 12,22A10,10 0 0,1 2,12A10,10 0 0,1 12,2A10,10 0 0,1 22,12M20,12A8,8 0 0,0 12,4A8,8 0 0,0 4,12A8,8 0 0,0 12,20A8,8 0 0,0 20,12M7.4,15.4L12,10.8L16.6,15.4L18,14L12,8L6,14L7.4,15.4Z" />
    </g>
    <g id="mdi-chili-hot" transform="translate(432 36) scale(1.5)" fill="#555">
      <path d="M17.75,9L18.95,8.24C19.58,8.58 20,9.24 20,10V21.75C20,21.75 12,20 12,11V10C12,9.27 12.39,8.63 12.97,8.28L14.43,9L16,8L17.75,9M14,2C15.53,2 16.8,3.15 17,4.64C18,4.93 18.81,5.67 19.22,6.63L17.75,7.5L16,6.5L14.43,7.5L12.76,6.67C13.15,5.72 13.95,5 14.94,4.66C14.8,4.28 14.43,4 14,4V2M10,10C10,18 13.63,19.84 16,21.75C16,21.75 8,20 8,11V10C8,9.27 8.39,8.63 8.97,8.28L10.3,8.94C10.11,9.25 10,9.61 10,10M10.43,7.5L8.76,6.67C9.15,5.72 9.95,5 10.94,4.66C10.8,4.28 10.43,4 10,4V2C10.77,2 11.47,2.29 12,2.76V4C12.43,4 12.8,4.28 12.94,4.66C11.95,5 11.15,5.72 10.43,7.5M6,10C6,18 9.63,19.84 12,21.75C12,21.75 4,20 4,11V10C4,9.27 4.39,8.63 4.97,8.28L6.3,8.94C6.11,9.25 6,9.61 6,10M6.43,7.5L4.76,6.67C5.15,5.72 5.95,5 6.94,4.66C6.8,4.28 6.43,4 6,4V2C6.77,2 7.47,2.29 8,2.76V4C8.43,4 8.8,4.28 8.94,4.66C7.95,5 7.15,5.72 6.43,7.5Z" />
    </g>
    <g id="mdi-chili-hot" transform="translate(468 36) scale(1.5)" fill="#fff">
      <path d="M17.75,9L18.95,8.24C19.58,8.58 20,9.24 20,10V21.75C20,21.75 12,20 12,11V10C12,9.27 12.39,8.63 12.97,8.28L14.43,9L16,8L17.75,9M14,2C15.53,2 16.8,3.15 17,4.64C18,4.93 18.81,5.67 19.22,6.63L17.75,7.5L16,6.5L14.43,7.5L12.76,6.67C13.15,5.72 13.95,5 14.94,4.66C14.8,4.28 14.43,4 14,4V2M10,10C10,18 13.63,19.84 16,21.75C16,21.75 8,20 8,11V10C8,9.27 8.39,8.63 8.97,8.28L10.3,8.94C10.11,9.25 10,9.61 10,10M10.43,7.5L8.76,6.67C9.15,5.72 9.95,5 10.94,4.66C10.8,4.28 10.43,4 10,4V2C10.77,2 11.47,2.29 12,2.76V4C12.43,4 12.8,4.28 12.94,4.66C11.95,5 11.15,5.72 10.43,7.5M6,10C6,18 9.63,19.84 12,21.75C12,21.75 4,20 4,11V10C4,9.27 4.39,8.63 4.97,8.28L6.3,8.94C6.11,9.25 6,9.61 6,10M6.43,7.5L4.76,6.67C5.15,5.72 5.95,5 6.94,4.66C6.8,4.28 6.43,4 6,4V2C6.77,2 7.47,2.29 8,2.76V4C8.43,4 8.8,4.28 8.94,4.66C7.95,5 7.15,5.72 6.43,7.5Z" />
    </g>
    <g id="mdi-chili-medium" transform="translate(504 36) scale(1.5)" fill="#555">
      <path d="M15.75,9L16.95,8.24C17.58,8.58 18,9.24 18,10V21.75C18,21.75 10,20 10,11V10C10,9.27 10.39,8.63 10.97,8.28L12.43,9L14,8L15.75,9M12,2C13.53,2 14.8,3.15 15,4.64C16,4.93 16.81,5.67 17.22,6.63L15.75,7.5L14,6.5L12.43,7.5L10.76,6.67C11.15,5.72 11.95,5 12.94,4.66C12.8,4.28 12.43,4 12,4V2M8,10C8,18 11.63,19.84 14,21.75C14,21.75 6,20 6,11V10C6,9.27 6.39,8.63 6.97,8.28L8.3,8.94C8.11,9.25 8,9.61 8,10M8.43,7.5L6.76,6.67C7.15,5.72 7.95,5 8.94,4.66C8.8,4.28 8.43,4 8,4V2C8.77,2 9.47,2.29 10,2.76V4C10.43,4 10.8,4.28 10.94,4.66C9.95,5 9.15,5.72 8.43,7.5Z" />
    </g>
    <g id="mdi-chili-medium" transform="translate(540 36) scale(1.5)" fill="#fff">
      <path d="M15.75,9L16.95,8.24C17.58,8.58 18,9.24 18,10V21.75C18,21.75 10,20 10,11V10C10,9.27 10.39,8.63 10.97,8.28L12.43,9L14,8L15.75,9M12,2C13.53,2 14.8,3.15 15,4.64C16,4.93 16.81,5.67 17.22,6.63L15.75,7.5L14,6.5L12.43,7.5L10.76,6.67C11.15,5.72 11.95,5 12.94,4.66C12.8,4.28 12.43,4 12,4V2M8,10C8,18 11.63,19.84 14,21.75C14,21.75 6,20 6,11V10C6,9.27 6.39,8.63 6.97,8.28L8.3,8.94C8.11,9.25 8,9.61 8,10M8.43,7.5L6.76,6.67C7.15,5.72 7.95,5 8.94,4.66C8.8,4.28 8.43,4 8,4V2C8.77,2 9.47,2.29 10,2.76V4C10.43,4 10.8,4.28 10.94,4.66C9.95,5 9.15,5.72 8.43,7.5Z" />
    </g>
    <g id="mdi-chili-mild" transform="translate(576 36) scale(1.5)" fill="#555">
      <path d="M13.75,9L14.95,8.24C15.58,8.58 16,9.24 16,10V21.75C16,21.75 8,20 8,11V10C8,9.27 8.39,8.63 8.97,8.28L10.43,9L12,8L13.75,9M10,2C11.53,2 12.8,3.15 13,4.64C14,4.93 14.81,5.67 15.22,6.63L13.75,7.5L12,6.5L10.43,7.5L8.76,6.67C9.15,5.72 9.95,5 10.94,4.66C10.8,4.28 10.43,4 10,4V2Z" />
    </g>
    <g id="mdi-chili-mild" transform="translate(612 36) scale(1.5)" fill="#fff">
      <path d="M13.75,9L14.95,8.24C15.58,8.58 16,9.24 16,10V21.75C16,21.75 8,20 8,11V10C8,9.27 8.39,8.63 8.97,8.28L10.43,9L12,8L13.75,9M10,2C11.53,2 12.8,3.15 13,4.64C14,4.93 14.81,5.67 15.22,6.63L13.75,7.5L12,6.5L10.43,7.5L8.76,6.67C9.15,5.72 9.95,5 10.94,4.66C10.8,4.28 10.43,4 10,4V2Z" />
    </g>
    <g id="mdi-chip" transform="translate(648 36) scale(1.5)" fill="#555">
      <path d="M6,4H18V5H21V7H18V9H21V11H18V13H21V15H18V17H21V19H18V20H6V19H3V17H6V15H3V13H6V11H3V9H6V7H3V5H6V4M11,15V18H12V15H11M13,15V18H14V15H13M15,15V18H16V15H15Z" />
    </g>
    <g id="mdi-chip" transform="translate(684 36) scale(1.5)" fill="#fff">
      <path d="M6,4H18V5H21V7H18V9H21V11H18V13H21V15H18V17H21V19H18V20H6V19H3V17H6V15H3V13H6V11H3V9H6V7H3V5H6V4M11,15V18H12V15H11M13,15V18H14V15H13M15,15V18H16V15H15Z" />
    </g>
    <g id="mdi-christianity" transform="translate(0 72) scale(1.5)" fill="#555">
      <path d="M10.5,2H13.5V8H19V11H13.5V22H10.5V11H5V8H10.5V2Z" />
    </g>
    <g id="mdi-christianity" transform="translate(36 72) scale(1.5)" fill="#fff">
      <path d="M10.5,2H13.5V8H19V11H13.5V22H10.5V11H5V8H10.5V2Z" />
    </g>
    <g id="mdi-christianity-outline" transform="translate(72 72) scale(1.5)" fill="#555">
      <path d="M15.5,6V1H8.5V6H3V13H8.5V23H15.5V13H21V6H15.5M19,11H13.5V21H10.5V11H5V8H10.5V3H13.5V8H19V11Z" />
    </g>
    <g id="mdi-christianity-outline" transform="translate(108 72) scale(1.5)" fill="#fff">
      <path d="M15.5,6V1H8.5V6H3V13H8.5V23H15.5V13H21V6H15.5M19,11H13.5V21H10.5V11H5V8H10.5V3H13.5V8H19V11Z" />
    </g>
    <g id="mdi-church" transform="translate(144 72) scale(1.5)" fill="#555">
      <path d="M11,2H13V4H15V6H13V9.4L22,13V15L20,14.2V22H14V17A2,2 0 0,0 12,15A2,2 0 0,0 10,17V22H4V14.2L2,15V13L11,9.4V6H9V4H11V2M6,20H8V15L7,14L6,15V20M16,20H18V15L17,14L16,15V20Z" />
    </g>
    <g id="mdi-church" transform="translate(180 72) scale(1.5)" fill="#fff">
      <path d="M11,2H13V4H15V6H13V9.4L22,13V15L20,14.2V22H14V17A2,2 0 0,0 12,15A2,2 0 0,0 10,17V22H4V14.2L2,15V13L11,9.4V6H9V4H11V2M6,20H8V15L7,14L6,15V20M16,20H18V15L17,14L16,15V20Z" />
    </g>
    <g id="mdi-cigar" transform="translate(216 72) scale(1.5)" fill="#555">
      <path d="M16 10.2H14.5A2 2 0 0 1 12.65 8.2A1.78 1.78 0 0 1 14.5 6.45V5A3.35 3.35 0 1 0 14.5 11.7H16A1.93 1.93 0 0 1 18 13.7V15H19.5V13.36A3.31 3.31 0 0 0 16 10.2M18.82 7.73A3.34 3.34 0 0 0 16.5 2V3.5A1.85 1.85 0 1 1 16.5 7.2V8.7A4 4 0 0 1 20.5 12.77V15H22V12.76A5.55 5.55 0 0 0 18.85 7.73M18 16V22H19.5V16M20.5 16V22H22V16M12 16V17.27A2 2 0 0 1 12 20.73V22H17V16M2.88 16.88A3 3 0 0 0 5 22H10V20.73A2 2 0 0 1 10 17.27V16H5A3 3 0 0 0 2.88 16.88M12 19A1 1 0 1 1 11 18A1 1 0 0 1 12 19Z" />
    </g>
    <g id="mdi-cigar" transform="translate(252 72) scale(1.5)" fill="#fff">
      <path d="M16 10.2H14.5A2 2 0 0 1 12.65 8.2A1.78 1.78 0 0 1 14.5 6.45V5A3.35 3.35 0 1 0 14.5 11.7H16A1.93 1.93 0 0 1 18 13.7V15H19.5V13.36A3.31 3.31 0 0 0 16 10.2M18.82 7.73A3.34 3.34 0 0 0 16.5 2V3.5A1.85 1.85 0 1 1 16.5 7.2V8.7A4 4 0 0 1 20.5 12.77V15H22V12.76A5.55 5.55 0 0 0 18.85 7.73M18 16V22H19.5V16M20.5 16V22H22V16M12 16V17.27A2 2 0 0 1 12 20.73V22H17V16M2.88 16.88A3 3 0 0 0 5 22H10V20.73A2 2 0 0 1 10 17.27V16H5A3 3 0 0 0 2.88 16.88M12 19A1 1 0 1 1 11 18A1 1 0 0 1 12 19Z" />
    </g>
    <g id="mdi-circle" transform="translate(288 72) scale(1.5)" fill="#555">
      <path d="M12,2A10,10 0 0,0 2,12A10,10 0 0,0 12,22A10,10 0 0,0 22,12A10,10 0 0,0 12,2Z" />
    </g>
    <g id="mdi-circle" transform="translate(324 72) scale(1.5)" fill="#fff">
      <path d="M12,2A10,10 0 0,0 2,12A10,10 0 0,0 12,22A10,10 0 0,0 22,12A10,10 0 0,0 12,2Z" />
    </g>
    <g id="mdi-circle-double" transform="translate(360 72) scale(1.5)" fill="#555">
      <path d="M12,2A10,10 0 0,0 2,12A10,10 0 0,0 12,22A10,10 0 0,0 22,12A10,10 0 0,0 12,2M12,4A8,8 0 0,1 20,12A8,8 0 0,1 12,20A8,8 0 0,1 4,12A8,8 0 0,1 12,4M12,6A6,6 0 0,0 6,12A6,6 0 0,0 12,18A6,6 0 0,0 18,12A6,6 0 0,0 12,6M12,8A4,4 0 0,1 16,12A4,4 0 0,1 12,16A4,4 0 0,1 8,12A4,4 0 0,1 12,8Z" />
    </g>
    <g id="mdi-circle-double" transform="translate(396 72) scale(1.5)" fill="#fff">
      <path d="M12,2A10,10 0 0,0 2,12A10,10 0 0,0 12,22A10,10 0 0,0 22,12A10,10 0 0,0 12,2M12,4A8,8 0 0,1 20,12A8,8 0 0,1 12,20A8,8 0 0,1 4,12A8,8 0 0,1 12,4M12,6A6,6 0 0,0 6,12A6,6 0 0,0 12,18A6,6 0 0,0 18,12A6,6 0 0,0 12,6M12,8A4,4 0 0,1 16,12A4,4 0 0,1 12,16A4,4 0 0,1 8,12A4,4 0 0,1 12,8Z" />
    </g>
    <g id="mdi-circle-edit-outline" transform="translate(432 72) scale(1.5)" fill="#555">
      <path d="M12,2A10,10 0 0,0 2,12A10,10 0 0,0 12,22A10,10 0 0,0 22,12H20A8,8 0 0,1 12,20A8,8 0 0,1 4,12A8,8 0 0,1 12,4V2M18.78,3C18.61,3 18.43,3.07 18.3,3.2L17.08,4.41L19.58,6.91L20.8,5.7C21.06,5.44 21.06,5 20.8,4.75L19.25,3.2C19.12,3.07 18.95,3 18.78,3M16.37,5.12L9,12.5V15H11.5L18.87,7.62L16.37,5.12Z" />
    </g>
    <g id="mdi-circle-edit-outline" transform="translate(468 72) scale(1.5)" fill="#fff">
      <path d="M12,2A10,10 0 0,0 2,12A10,10 0 0,0 12,22A10,10 0 0,0 22,12H20A8,8 0 0,1 12,20A8,8 0 0,1 4,12A8,8 0 0,1 12,4V2M18.78,3C18.61,3 18.43,3.07 18.3,3.2L17.08,4.41L19.58,6.91L20.8,5.7C21.06,5.44 21.06,5 20.8,4.75L19.25,3.2C19.12,3.07 18.95,3 18.78,3M16.37,5.12L9,12.5V15H11.5L18.87,7.62L16.37,5.12Z" />
    </g>
    <g id="mdi-circle-expand" transform="translate(504 72) scale(1.5)" fill="#555">
      <path d="M16,4L20,8V4M20,16L16,20H20M8,20L4,16V20M4,8L8,4H4M16.95,7.05C14.22,4.32 9.78,4.32 7.05,7.05C4.32,9.78 4.32,14.22 7.05,16.95C9.78,19.68 14.22,19.68 16.95,16.95C19.68,14.22 19.68,9.79 16.95,7.05M15.85,15.85C13.72,18 10.28,18 8.15,15.85C6,13.72 6,10.28 8.15,8.15C10.28,6 13.72,6 15.85,8.15C18,10.28 18,13.72 15.85,15.85Z" />
    </g>
    <g id="mdi-circle-expand" transform="translate(540 72) scale(1.5)" fill="#fff">
      <path d="M16,4L20,8V4M20,16L16,20H20M8,20L4,16V20M4,8L8,4H4M16.95,7.05C14.22,4.32 9.78,4.32 7.05,7.05C4.32,9.78 4.32,14.22 7.05,16.95C9.78,19.68 14.22,19.68 16.95,16.95C19.68,14.22 19.68,9.79 16.95,7.05M15.85,15.85C13.72,18 10.28,18 8.15,15.85C6,13.72 6,10.28 8.15,8.15C10.28,6 13.72,6 15.85,8.15C18,10.28 18,13.72 15.85,15.85Z" />
    </g>
    <g id="mdi-circle-medium" transform="translate(576 72) scale(1.5)" fill="#555">
      <path d="M12,8A4,4 0 0,0 8,12A4,4 0 0,0 12,16A4,4 0 0,0 16,12A4,4 0 0,0 12,8Z" />
    </g>
    <g id="mdi-circle-medium" transform="translate(612 72) scale(1.5)" fill="#fff">
      <path d="M12,8A4,4 0 0,0 8,12A4,4 0 0,0 12,16A4,4 0 0,0 16,12A4,4 0 0,0 12,8Z" />
    </g>
    <g id="mdi-circle-off-outline" transform="translate(648 72) scale(1.5)" fill="#555">
      <path d="M22.11 21.46L2.39 1.73L1.11 3L4.06 5.95C2.78 7.63 2 9.72 2 12C2 17.5 6.5 22 12 22C14.28 22 16.37 21.23 18.05 19.94L20.84 22.73L22.11 21.46M12 20C7.58 20 4 16.42 4 12C4 10.27 4.56 8.68 5.5 7.38L16.62 18.5C15.32 19.45 13.73 20 12 20M8.17 4.97L6.72 3.5C8.25 2.56 10.06 2 12 2C17.5 2 22 6.5 22 12C22 13.94 21.44 15.75 20.5 17.28L19.03 15.83C19.65 14.69 20 13.39 20 12C20 7.58 16.42 4 12 4C10.61 4 9.31 4.35 8.17 4.97Z" />
    </g>
    <g id="mdi-circle-off-outline" transform="translate(684 72) scale(1.5)" fill="#fff">
      <path d="M22.11 21.46L2.39 1.73L1.11 3L4.06 5.95C2.78 7.63 2 9.72 2 12C2 17.5 6.5 22 12 22C14.28 22 16.37 21.23 18.05 19.94L20.84 22.73L22.11 21.46M12 20C7.58 20 4 16.42 4 12C4 10.27 4.56 8.68 5.5 7.38L16.62 18.5C15.32 19.45 13.73 20 12 20M8.17 4.97L6.72 3.5C8.25 2.56 10.06 2 12 2C17.5 2 22 6.5 22 12C22 13.94 21.44 15.75 20.5 17.28L19.03 15.83C19.65 14.69 20 13.39 20 12C20 7.58 16.42 4 12 4C10.61 4 9.31 4.35 8.17 4.97Z" />
    </g>
    <g id="mdi-circle-outline" transform="translate(0 108) scale(1.5)" fill="#555">
      <path d="M12,20A8,8 0 0,1 4,12A8,8 0 0,1 12,4A8,8 0 0,1 20,12A8,8 0 0,1 12,20M12,2A10,10 0 0,0 2,12A10,10 0 0,0 12,22A10,10 0 0,0 22,12A10,10 0 0,0 12,2Z" />
    </g>
    <g id="mdi-circle-outline" transform="translate(36 108) scale(1.5)" fill="#fff">
      <path d="M12,20A8,8 0 0,1 4,12A8,8 0 0,1 12,4A8,8 0 0,1 20,12A8,8 0 0,1 12,20M12,2A10,10 0 0,0 2,12A10,10 0 0,0 12,22A10,10 0 0,0 22,12A10,10 0 0,0 12,2Z" />
    </g>
    <g id="mdi-circle-slice-1" transform="translate(72 108) scale(1.5)" fill="#555">
      <path d="M12,2A10,10 0 0,1 22,12A10,10 0 0,1 12,22A10,10 0 0,1 2,12A10,10 0 0,1 12,2M12,4A8,8 0 0,0 4,12A8,8 0 0,0 12,20A8,8 0 0,0 20,12A8,8 0 0,0 12,4M16.9,7.1L12,12V5C13.9,5 15.7,5.8 16.9,7.1Z" />
    </g>
    <g id="mdi-circle-slice-1" transform="translate(108 108) scale(1.5)" fill="#fff">
      <path d="M12,2A10,10 0 0,1 22,12A10,10 0 0,1 12,22A10,10 0 0,1 2,12A10,10 0 0,1 12,2M12,4A8,8 0 0,0 4,12A8,8 0 0,0 12,20A8,8 0 0,0 20,12A8,8 0 0,0 12,4M16.9,7.1L12,12V5C13.9,5 15.7,5.8 16.9,7.1Z" />
    </g>
    <g id="mdi-circle-slice-2" transform="translate(144 108) scale(1.5)" fill="#555">
      <path d="M12,2A10,10 0 0,1 22,12A10,10 0 0,1 12,22A10,10 0 0,1 2,12A10,10 0 0,1 12,2M12,4A8,8 0 0,0 4,12A8,8 0 0,0 12,20A8,8 0 0,0 20,12A8,8 0 0,0 12,4M19,12H12V5C13.9,5 15.6,5.9 16.9,7.1C18.2,8.3 19,10.1 19,12Z" />
    </g>
    <g id="mdi-circle-slice-2" transform="translate(180 108) scale(1.5)" fill="#fff">
      <path d="M12,2A10,10 0 0,1 22,12A10,10 0 0,1 12,22A10,10 0 0,1 2,12A10,10 0 0,1 12,2M12,4A8,8 0 0,0 4,12A8,8 0 0,0 12,20A8,8 0 0,0 20,12A8,8 0 0,0 12,4M19,12H12V5C13.9,5 15.6,5.9 16.9,7.1C18.2,8.3 19,10.1 19,12Z" />
    </g>
    <g id="mdi-circle-slice-3" transform="translate(216 108) scale(1.5)" fill="#555">
      <path d="M12,2A10,10 0 0,1 22,12A10,10 0 0,1 12,22A10,10 0 0,1 2,12A10,10 0 0,1 12,2M12,4A8,8 0 0,0 4,12A8,8 0 0,0 12,20A8,8 0 0,0 20,12A8,8 0 0,0 12,4M16.9,16.9L12,12V5C13.9,5 15.6,5.9 16.9,7.1C18.2,8.3 19,10.1 19,12C19,13.9 18.2,15.6 16.9,16.9Z" />
    </g>
    <g id="mdi-circle-slice-3" transform="translate(252 108) scale(1.5)" fill="#fff">
      <path d="M12,2A10,10 0 0,1 22,12A10,10 0 0,1 12,22A10,10 0 0,1 2,12A10,10 0 0,1 12,2M12,4A8,8 0 0,0 4,12A8,8 0 0,0 12,20A8,8 0 0,0 20,12A8,8 0 0,0 12,4M16.9,16.9L12,12V5C13.9,5 15.6,5.9 16.9,7.1C18.2,8.3 19,10.1 19,12C19,13.9 18.2,15.6 16.9,16.9Z" />
    </g>
    <g id="mdi-circle-slice-4" transform="translate(288 108) scale(1.5)" fill="#555">
      <path d="M12,2A10,10 0 0,1 22,12A10,10 0 0,1 12,22A10,10 0 0,1 2,12A10,10 0 0,1 12,2M12,4A8,8 0 0,0 4,12A8,8 0 0,0 12,20A8,8 0 0,0 20,12A8,8 0 0,0 12,4M16.9,7.1C18.2,8.3 19,10.1 19,12C19,13.9 18.1,15.6 16.9,16.9C15.7,18.2 13.9,19 12,19V12L12,5C13.9,5 15.7,5.8 16.9,7.1Z" />
    </g>
    <g id="mdi-circle-slice-4" transform="translate(324 108) scale(1.5)" fill="#fff">
      <path d="M12,2A10,10 0 0,1 22,12A10,10 0 0,1 12,22A10,10 0 0,1 2,12A10,10 0 0,1 12,2M12,4A8,8 0 0,0 4,12A8,8 0 0,0 12,20A8,8 0 0,0 20,12A8,8 0 0,0 12,4M16.9,7.1C18.2,8.3 19,10.1 19,12C19,13.9 18.1,15.6 16.9,16.9C15.7,18.2 13.9,19 12,19V12L12,5C13.9,5 15.7,5.8 16.9,7.1Z" />
    </g>
    <g id="mdi-circle-slice-5" transform="translate(360 108) scale(1.5)" fill="#555">
      <path d="M12,2A10,10 0 0,1 22,12A10,10 0 0,1 12,22A10,10 0 0,1 2,12A10,10 0 0,1 12,2M12,4A8,8 0 0,0 4,12A8,8 0 0,0 12,20A8,8 0 0,0 20,12A8,8 0 0,0 12,4M16.9,7.1C18.2,8.3 19,10.1 19,12C19,13.9 18.1,15.6 16.9,16.9C15.7,18.2 13.9,19 12,19C10.1,19 8.4,18.2 7.1,16.9L12,12V5C13.9,5 15.7,5.8 16.9,7.1Z" />
    </g>
    <g id="mdi-circle-slice-5" transform="translate(396 108) scale(1.5)" fill="#fff">
      <path d="M12,2A10,10 0 0,1 22,12A10,10 0 0,1 12,22A10,10 0 0,1 2,12A10,10 0 0,1 12,2M12,4A8,8 0 0,0 4,12A8,8 0 0,0 12,20A8,8 0 0,0 20,12A8,8 0 0,0 12,4M16.9,7.1C18.2,8.3 19,10.1 19,12C19,13.9 18.1,15.6 16.9,16.9C15.7,18.2 13.9,19 12,19C10.1,19 8.4,18.2 7.1,16.9L12,12V5C13.9,5 15.7,5.8 16.9,7.1Z" />
    </g>
    <g id="mdi-circle-slice-6" transform="translate(432 108) scale(1.5)" fill="#555">
      <path d="M12,2A10,10 0 0,1 22,12A10,10 0 0,1 12,22A10,10 0 0,1 2,12A10,10 0 0,1 12,2M12,4A8,8 0 0,0 4,12A8,8 0 0,0 12,20A8,8 0 0,0 20,12A8,8 0 0,0 12,4M16.9,7.1C18.2,8.3 19,10.1 19,12C19,13.9 18.1,15.6 16.9,16.9C15.7,18.2 13.9,19 12,19C10.1,19 8.4,18.1 7.1,16.9C5.8,15.7 5,13.9 5,12H12V5C13.9,5 15.7,5.8 16.9,7.1Z" />
    </g>
    <g id="mdi-circle-slice-6" transform="translate(468 108) scale(1.5)" fill="#fff">
      <path d="M12,2A10,10 0 0,1 22,12A10,10 0 0,1 12,22A10,10 0 0,1 2,12A10,10 0 0,1 12,2M12,4A8,8 0 0,0 4,12A8,8 0 0,0 12,20A8,8 0 0,0 20,12A8,8 0 0,0 12,4M16.9,7.1C18.2,8.3 19,10.1 19,12C19,13.9 18.1,15.6 16.9,16.9C15.7,18.2 13.9,19 12,19C10.1,19 8.4,18.1 7.1,16.9C5.8,15.7 5,13.9 5,12H12V5C13.9,5 15.7,5.8 16.9,7.1Z" />
    </g>
    <g id="mdi-circle-slice-7" transform="translate(504 108) scale(1.5)" fill="#555">
      <path d="M12,2A10,10 0 0,1 22,12A10,10 0 0,1 12,22A10,10 0 0,1 2,12A10,10 0 0,1 12,2M12,4A8,8 0 0,0 4,12A8,8 0 0,0 12,20A8,8 0 0,0 20,12A8,8 0 0,0 12,4M16.9,7.1C18.2,8.3 19,10.1 19,12C19,13.9 18.1,15.6 16.9,16.9C15.7,18.2 13.9,19 12,19C10.1,19 8.4,18.1 7.1,16.9C5.8,15.7 5,13.9 5,12C5,10.1 5.8,8.3 7.1,7.1L12,12V5C13.9,5 15.7,5.8 16.9,7.1Z" />
    </g>
    <g id="mdi-circle-slice-7" transform="translate(540 108) scale(1.5)" fill="#fff">
      <path d="M12,2A10,10 0 0,1 22,12A10,10 0 0,1 12,22A10,10 0 0,1 2,12A10,10 0 0,1 12,2M12,4A8,8 0 0,0 4,12A8,8 0 0,0 12,20A8,8 0 0,0 20,12A8,8 0 0,0 12,4M16.9,7.1C18.2,8.3 19,10.1 19,12C19,13.9 18.1,15.6 16.9,16.9C15.7,18.2 13.9,19 12,19C10.1,19 8.4,18.1 7.1,16.9C5.8,15.7 5,13.9 5,12C5,10.1 5.8,8.3 7.1,7.1L12,12V5C13.9,5 15.7,5.8 16.9,7.1Z" />
    </g>
    <g id="mdi-circle-slice-8" transform="translate(576 108) scale(1.5)" fill="#555">
      <path d="M12,2A10,10 0 0,1 22,12A10,10 0 0,1 12,22A10,10 0 0,1 2,12A10,10 0 0,1 12,2M12,4A8,8 0 0,0 4,12A8,8 0 0,0 12,20A8,8 0 0,0 20,12A8,8 0 0,0 12,4M12,19C10.1,19 8.3,18.2 7.1,16.9C5.9,15.6 5,13.9 5,12C5,10.1 5.8,8.3 7.1,7.1C8.4,5.9 10.1,5 12,5C13.9,5 15.7,5.8 16.9,7.1C18.1,8.4 19,10.1 19,12C19,13.9 18.2,15.7 16.9,16.9C15.6,18.1 13.9,19 12,19Z" />
    </g>
    <g id="mdi-circle-slice-8" transform="translate(612 108) scale(1.5)" fill="#fff">
      <path d="M12,2A10,10 0 0,1 22,12A10,10 0 0,1 12,22A10,10 0 0,1 2,12A10,10 0 0,1 12,2M12,4A8,8 0 0,0 4,12A8,8 0 0,0 12,20A8,8 0 0,0 20,12A8,8 0 0,0 12,4M12,19C10.1,19 8.3,18.2 7.1,16.9C5.9,15.6 5,13.9 5,12C5,10.1 5.8,8.3 7.1,7.1C8.4,5.9 10.1,5 12,5C13.9,5 15.7,5.8 16.9,7.1C18.1,8.4 19,10.1 19,12C19,13.9 18.2,15.7 16.9,16.9C15.6,18.1 13.9,19 12,19Z" />
    </g>
    <g id="mdi-circle-small" transform="translate(648 108) scale(1.5)" fill="#555">
      <path d="M12,10A2,2 0 0,0 10,12C10,13.11 10.9,14 12,14C13.11,14 14,13.11 14,12A2,2 0 0,0 12,10Z" />
    </g>
    <g id="mdi-circle-small" transform="translate(684 108) scale(1.5)" fill="#fff">
      <path d="M12,10A2,2 0 0,0 10,12C10,13.11 10.9,14 12,14C13.11,14 14,13.11 14,12A2,2 0 0,0 12,10Z" />
    </g>
    <g id="mdi-circular-saw" transform="translate(0 144) scale(1.5)" fill="#555">
      <path d="M13,11A1,1 0 0,1 14,12A1,1 0 0,1 13,13A1,1 0 0,1 12,12A1,1 0 0,1 13,11M7.86,6.25C9.14,4.87 10.97,4 13,4C16.5,4 19.44,6.61 19.93,10H22V12H16A3,3 0 0,0 13,9A3,3 0 0,0 10,12H2V10H2.05C2.25,7.73 3.14,5.66 4.5,4L7.86,6.25M6.73,7.89L5.06,6.77C4.53,7.75 4.18,8.84 4.06,10H6.07C6.18,9.25 6.4,8.54 6.73,7.89M7.4,15.4L6,14H11.79C12.03,14.42 12.5,14.7 13,14.7C13.5,14.7 13.97,14.42 14.21,14H20V15.4C18.39,14.42 18.46,15.75 18.46,15.75V17.71L16.5,19.67C16,17.92 15.1,18.9 15.1,18.9L13.7,20.3H10.9C11.88,18.69 10.55,18.76 10.55,18.76H8.59L6.63,16.8C8.38,16.31 7.4,15.4 7.4,15.4Z" />
    </g>
    <g id="mdi-circular-saw" transform="translate(36 144) scale(1.5)" fill="#fff">
      <path d="M13,11A1,1 0 0,1 14,12A1,1 0 0,1 13,13A1,1 0 0,1 12,12A1,1 0 0,1 13,11M7.86,6.25C9.14,4.87 10.97,4 13,4C16.5,4 19.44,6.61 19.93,10H22V12H16A3,3 0 0,0 13,9A3,3 0 0,0 10,12H2V10H2.05C2.25,7.73 3.14,5.66 4.5,4L7.86,6.25M6.73,7.89L5.06,6.77C4.53,7.75 4.18,8.84 4.06,10H6.07C6.18,9.25 6.4,8.54 6.73,7.89M7.4,15.4L6,14H11.79C12.03,14.42 12.5,14.7 13,14.7C13.5,14.7 13.97,14.42 14.21,14H20V15.4C18.39,14.42 18.46,15.75 18.46,15.75V17.71L16.5,19.67C16,17.92 15.1,18.9 15.1,18.9L13.7,20.3H10.9C11.88,18.69 10.55,18.76 10.55,18.76H8.59L6.63,16.8C8.38,16.31 7.4,15.4 7.4,15.4Z" />
    </g>
    <g id="mdi-cisco-webex" transform="translate(72 144) scale(1.5)" fill="#555">
      <path d="M12,3A9,9 0 0,1 21,12A9,9 0 0,1 12,21A9,9 0 0,1 3,12A9,9 0 0,1 12,3M5.94,8.5C4,11.85 5.15,16.13 8.5,18.06C11.85,20 18.85,7.87 15.5,5.94C12.15,4 7.87,5.15 5.94,8.5Z" />
    </g>
    <g id="mdi-cisco-webex" transform="translate(108 144) scale(1.5)" fill="#fff">
      <path d="M12,3A9,9 0 0,1 21,12A9,9 0 0,1 12,21A9,9 0 0,1 3,12A9,9 0 0,1 12,3M5.94,8.5C4,11.85 5.15,16.13 8.5,18.06C11.85,20 18.85,7.87 15.5,5.94C12.15,4 7.87,5.15 5.94,8.5Z" />
    </g>
    <g id="mdi-city" transform="translate(144 144) scale(1.5)" fill="#555">
      <path d="M19,15H17V13H19M19,19H17V17H19M13,7H11V5H13M13,11H11V9H13M13,15H11V13H13M13,19H11V17H13M7,11H5V9H7M7,15H5V13H7M7,19H5V17H7M15,11V5L12,2L9,5V7H3V21H21V11H15Z" />
    </g>
    <g id="mdi-city" transform="translate(180 144) scale(1.5)" fill="#fff">
      <path d="M19,15H17V13H19M19,19H17V17H19M13,7H11V5H13M13,11H11V9H13M13,15H11V13H13M13,19H11V17H13M7,11H5V9H7M7,15H5V13H7M7,19H5V17H7M15,11V5L12,2L9,5V7H3V21H21V11H15Z" />
    </g>
    <g id="mdi-city-variant" transform="translate(216 144) scale(1.5)" fill="#555">
      <path d="M19,9V7A2,2 0 0,0 17,5H16V2H14V5H13A2,2 0 0,0 11,7V9A2,2 0 0,0 9,11V12H5A2,2 0 0,0 3,14V22H6V20H8V22H12V20H14V22H16V20H18V22H21V11A2,2 0 0,0 19,9M8,18H6V16H8V18M14,18H12V16H14V18M14,14H12V12H14V14M13,9V7H17V9H13M18,18H16V16H18V18M18,14H16V12H18V14Z" />
    </g>
    <g id="mdi-city-variant" transform="translate(252 144) scale(1.5)" fill="#fff">
      <path d="M19,9V7A2,2 0 0,0 17,5H16V2H14V5H13A2,2 0 0,0 11,7V9A2,2 0 0,0 9,11V12H5A2,2 0 0,0 3,14V22H6V20H8V22H12V20H14V22H16V20H18V22H21V11A2,2 0 0,0 19,9M8,18H6V16H8V18M14,18H12V16H14V18M14,14H12V12H14V14M13,9V7H17V9H13M18,18H16V16H18V18M18,14H16V12H18V14Z" />
    </g>
    <g id="mdi-city-variant-outline" transform="translate(288 144) scale(1.5)" fill="#555">
      <path d="M15,23H13V21H15V23M19,21H17V23H19V21M15,17H13V19H15V17M7,21H5V23H7V21M7,17H5V19H7V17M19,17H17V19H19V17M15,13H13V15H15V13M19,13H17V15H19V13M21,9A2,2 0 0,1 23,11V23H21V11H11V23H9V15H3V23H1V15A2,2 0 0,1 3,13H9V11A2,2 0 0,1 11,9V7A2,2 0 0,1 13,5H15V1H17V5H19A2,2 0 0,1 21,7V9M19,9V7H13V9H19Z" />
    </g>
    <g id="mdi-city-variant-outline" transform="translate(324 144) scale(1.5)" fill="#fff">
      <path d="M15,23H13V21H15V23M19,21H17V23H19V21M15,17H13V19H15V17M7,21H5V23H7V21M7,17H5V19H7V17M19,17H17V19H19V17M15,13H13V15H15V13M19,13H17V15H19V13M21,9A2,2 0 0,1 23,11V23H21V11H11V23H9V15H3V23H1V15A2,2 0 0,1 3,13H9V11A2,2 0 0,1 11,9V7A2,2 0 0,1 13,5H15V1H17V5H19A2,2 0 0,1 21,7V9M19,9V7H13V9H19Z" />
    </g>
    <g id="mdi-clipboard" transform="translate(360 144) scale(1.5)" fill="#555">
      <path d="M19,3H14.82C14.4,1.84 13.3,1 12,1C10.7,1 9.6,1.84 9.18,3H5A2,2 0 0,0 3,5V19A2,2 0 0,0 5,21H19A2,2 0 0,0 21,19V5A2,2 0 0,0 19,3M12,3A1,1 0 0,1 13,4A1,1 0 0,1 12,5A1,1 0 0,1 11,4A1,1 0 0,1 12,3" />
    </g>
    <g id="mdi-clipboard" transform="translate(396 144) scale(1.5)" fill="#fff">
      <path d="M19,3H14.82C14.4,1.84 13.3,1 12,1C10.7,1 9.6,1.84 9.18,3H5A2,2 0 0,0 3,5V19A2,2 0 0,0 5,21H19A2,2 0 0,0 21,19V5A2,2 0 0,0 19,3M12,3A1,1 0 0,1 13,4A1,1 0 0,1 12,5A1,1 0 0,1 11,4A1,1 0 0,1 12,3" />
    </g>
    <g id="mdi-clipboard-account" transform="translate(432 144) scale(1.5)" fill="#555">
      <path d="M18,19H6V17.6C6,15.6 10,14.5 12,14.5C14,14.5 18,15.6 18,17.6M12,7A3,3 0 0,1 15,10A3,3 0 0,1 12,13A3,3 0 0,1 9,10A3,3 0 0,1 12,7M12,3A1,1 0 0,1 13,4A1,1 0 0,1 12,5A1,1 0 0,1 11,4A1,1 0 0,1 12,3M19,3H14.82C14.4,1.84 13.3,1 12,1C10.7,1 9.6,1.84 9.18,3H5A2,2 0 0,0 3,5V19A2,2 0 0,0 5,21H19A2,2 0 0,0 21,19V5A2,2 0 0,0 19,3Z" />
    </g>
    <g id="mdi-clipboard-account" transform="translate(468 144) scale(1.5)" fill="#fff">
      <path d="M18,19H6V17.6C6,15.6 10,14.5 12,14.5C14,14.5 18,15.6 18,17.6M12,7A3,3 0 0,1 15,10A3,3 0 0,1 12,13A3,3 0 0,1 9,10A3,3 0 0,1 12,7M12,3A1,1 0 0,1 13,4A1,1 0 0,1 12,5A1,1 0 0,1 11,4A1,1 0 0,1 12,3M19,3H14.82C14.4,1.84 13.3,1 12,1C10.7,1 9.6,1.84 9.18,3H5A2,2 0 0,0 3,5V19A2,2 0 0,0 5,21H19A2,2 0 0,0 21,19V5A2,2 0 0,0 19,3Z" />
    </g>
    <g id="mdi-clipboard-account-outline" transform="translate(504 144) scale(1.5)" fill="#555">
      <path d="M19,3A2,2 0 0,1 21,5V19A2,2 0 0,1 19,21H5A2,2 0 0,1 3,19V5A2,2 0 0,1 5,3H9.18C9.6,1.84 10.7,1 12,1C13.3,1 14.4,1.84 14.82,3H19M12,3A1,1 0 0,0 11,4A1,1 0 0,0 12,5A1,1 0 0,0 13,4A1,1 0 0,0 12,3M7,7V5H5V19H19V5H17V7H7M12,9A2,2 0 0,1 14,11A2,2 0 0,1 12,13A2,2 0 0,1 10,11A2,2 0 0,1 12,9M8,17V16C8,14.9 9.79,14 12,14C14.21,14 16,14.9 16,16V17H8Z" />
    </g>
    <g id="mdi-clipboard-account-outline" transform="translate(540 144) scale(1.5)" fill="#fff">
      <path d="M19,3A2,2 0 0,1 21,5V19A2,2 0 0,1 19,21H5A2,2 0 0,1 3,19V5A2,2 0 0,1 5,3H9.18C9.6,1.84 10.7,1 12,1C13.3,1 14.4,1.84 14.82,3H19M12,3A1,1 0 0,0 11,4A1,1 0 0,0 12,5A1,1 0 0,0 13,4A1,1 0 0,0 12,3M7,7V5H5V19H19V5H17V7H7M12,9A2,2 0 0,1 14,11A2,2 0 0,1 12,13A2,2 0 0,1 10,11A2,2 0 0,1 12,9M8,17V16C8,14.9 9.79,14 12,14C14.21,14 16,14.9 16,16V17H8Z" />
    </g>
    <g id="mdi-clipboard-alert" transform="translate(576 144) scale(1.5)" fill="#555">
      <path d="M12,5A1,1 0 0,1 11,4A1,1 0 0,1 12,3A1,1 0 0,1 13,4A1,1 0 0,1 12,5M13,14H11V8H13M13,18H11V16H13M19,3H14.82C14.4,1.84 13.3,1 12,1C10.7,1 9.6,1.84 9.18,3H5A2,2 0 0,0 3,5V19A2,2 0 0,0 5,21H19A2,2 0 0,0 21,19V5A2,2 0 0,0 19,3Z" />
    </g>
    <g id="mdi-clipboard-alert" transform="translate(612 144) scale(1.5)" fill="#fff">
      <path d="M12,5A1,1 0 0,1 11,4A1,1 0 0,1 12,3A1,1 0 0,1 13,4A1,1 0 0,1 12,5M13,14H11V8H13M13,18H11V16H13M19,3H14.82C14.4,1.84 13.3,1 12,1C10.7,1 9.6,1.84 9.18,3H5A2,2 0 0,0 3,5V19A2,2 0 0,0 5,21H19A2,2 0 0,0 21,19V5A2,2 0 0,0 19,3Z" />
    </g>
    <g id="mdi-clipboard-alert-outline" transform="translate(648 144) scale(1.5)" fill="#555">
      <path d="M19,3A2,2 0 0,1 21,5V19A2,2 0 0,1 19,21H5A2,2 0 0,1 3,19V5A2,2 0 0,1 5,3H9.18C9.6,1.84 10.7,1 12,1C13.3,1 14.4,1.84 14.82,3H19M12,3A1,1 0 0,0 11,4A1,1 0 0,0 12,5A1,1 0 0,0 13,4A1,1 0 0,0 12,3M7,7V5H5V19H19V5H17V7H7M11,9H13V13.5H11V9M11,15H13V17H11V15Z" />
    </g>
    <g id="mdi-clipboard-alert-outline" transform="translate(684 144) scale(1.5)" fill="#fff">
      <path d="M19,3A2,2 0 0,1 21,5V19A2,2 0 0,1 19,21H5A2,2 0 0,1 3,19V5A2,2 0 0,1 5,3H9.18C9.6,1.84 10.7,1 12,1C13.3,1 14.4,1.84 14.82,3H19M12,3A1,1 0 0,0 11,4A1,1 0 0,0 12,5A1,1 0 0,0 13,4A1,1 0 0,0 12,3M7,7V5H5V19H19V5H17V7H7M11,9H13V13.5H11V9M11,15H13V17H11V15Z" />
    </g>
    <g id="mdi-clipboard-arrow-down" transform="translate(0 180) scale(1.5)" fill="#555">
      <path d="M12,18L7,13H10V9H14V13H17M12,3A1,1 0 0,1 13,4A1,1 0 0,1 12,5A1,1 0 0,1 11,4A1,1 0 0,1 12,3M19,3H14.82C14.4,1.84 13.3,1 12,1C10.7,1 9.6,1.84 9.18,3H5A2,2 0 0,0 3,5V19A2,2 0 0,0 5,21H19A2,2 0 0,0 21,19V5A2,2 0 0,0 19,3Z" />
    </g>
    <g id="mdi-clipboard-arrow-down" transform="translate(36 180) scale(1.5)" fill="#fff">
      <path d="M12,18L7,13H10V9H14V13H17M12,3A1,1 0 0,1 13,4A1,1 0 0,1 12,5A1,1 0 0,1 11,4A1,1 0 0,1 12,3M19,3H14.82C14.4,1.84 13.3,1 12,1C10.7,1 9.6,1.84 9.18,3H5A2,2 0 0,0 3,5V19A2,2 0 0,0 5,21H19A2,2 0 0,0 21,19V5A2,2 0 0,0 19,3Z" />
    </g>
    <g id="mdi-clipboard-arrow-down-outline" transform="translate(72 180) scale(1.5)" fill="#555">
      <path d="M19,3A2,2 0 0,1 21,5V19A2,2 0 0,1 19,21H5A2,2 0 0,1 3,19V5A2,2 0 0,1 5,3H9.18C9.6,1.84 10.7,1 12,1C13.3,1 14.4,1.84 14.82,3H19M12,3A1,1 0 0,0 11,4A1,1 0 0,0 12,5A1,1 0 0,0 13,4A1,1 0 0,0 12,3M7,7V5H5V19H19V5H17V7H7M12,18L7,13H10V9H14V13H17L12,18Z" />
    </g>
    <g id="mdi-clipboard-arrow-down-outline" transform="translate(108 180) scale(1.5)" fill="#fff">
      <path d="M19,3A2,2 0 0,1 21,5V19A2,2 0 0,1 19,21H5A2,2 0 0,1 3,19V5A2,2 0 0,1 5,3H9.18C9.6,1.84 10.7,1 12,1C13.3,1 14.4,1.84 14.82,3H19M12,3A1,1 0 0,0 11,4A1,1 0 0,0 12,5A1,1 0 0,0 13,4A1,1 0 0,0 12,3M7,7V5H5V19H19V5H17V7H7M12,18L7,13H10V9H14V13H17L12,18Z" />
    </g>
    <g id="mdi-clipboard-arrow-left" transform="translate(144 180) scale(1.5)" fill="#555">
      <path d="M16,15H12V18L7,13L12,8V11H16M12,3A1,1 0 0,1 13,4A1,1 0 0,1 12,5A1,1 0 0,1 11,4A1,1 0 0,1 12,3M19,3H14.82C14.4,1.84 13.3,1 12,1C10.7,1 9.6,1.84 9.18,3H5A2,2 0 0,0 3,5V19A2,2 0 0,0 5,21H19A2,2 0 0,0 21,19V5A2,2 0 0,0 19,3Z" />
    </g>
    <g id="mdi-clipboard-arrow-left" transform="translate(180 180) scale(1.5)" fill="#fff">
      <path d="M16,15H12V18L7,13L12,8V11H16M12,3A1,1 0 0,1 13,4A1,1 0 0,1 12,5A1,1 0 0,1 11,4A1,1 0 0,1 12,3M19,3H14.82C14.4,1.84 13.3,1 12,1C10.7,1 9.6,1.84 9.18,3H5A2,2 0 0,0 3,5V19A2,2 0 0,0 5,21H19A2,2 0 0,0 21,19V5A2,2 0 0,0 19,3Z" />
    </g>
    <g id="mdi-clipboard-arrow-left-outline" transform="translate(216 180) scale(1.5)" fill="#555">
      <path d="M19,3A2,2 0 0,1 21,5V19A2,2 0 0,1 19,21H5A2,2 0 0,1 3,19V5A2,2 0 0,1 5,3H9.18C9.6,1.84 10.7,1 12,1C13.3,1 14.4,1.84 14.82,3H19M12,3A1,1 0 0,0 11,4A1,1 0 0,0 12,5A1,1 0 0,0 13,4A1,1 0 0,0 12,3M7,7V5H5V19H19V5H17V7H7M7,13L12,18V15H16V11H12V8L7,13Z" />
    </g>
    <g id="mdi-clipboard-arrow-left-outline" transform="translate(252 180) scale(1.5)" fill="#fff">
      <path d="M19,3A2,2 0 0,1 21,5V19A2,2 0 0,1 19,21H5A2,2 0 0,1 3,19V5A2,2 0 0,1 5,3H9.18C9.6,1.84 10.7,1 12,1C13.3,1 14.4,1.84 14.82,3H19M12,3A1,1 0 0,0 11,4A1,1 0 0,0 12,5A1,1 0 0,0 13,4A1,1 0 0,0 12,3M7,7V5H5V19H19V5H17V7H7M7,13L12,18V15H16V11H12V8L7,13Z" />
    </g>
    <g id="mdi-clipboard-arrow-right" transform="translate(288 180) scale(1.5)" fill="#555">
      <path d="M17,13L12,18V15H8V11H12V8M12,3A1,1 0 0,1 13,4A1,1 0 0,1 12,5A1,1 0 0,1 11,4A1,1 0 0,1 12,3M19,3H14.82C14.4,1.84 13.3,1 12,1C10.7,1 9.6,1.84 9.18,3H5A2,2 0 0,0 3,5V19A2,2 0 0,0 5,21H19A2,2 0 0,0 21,19V5A2,2 0 0,0 19,3Z" />
    </g>
    <g id="mdi-clipboard-arrow-right" transform="translate(324 180) scale(1.5)" fill="#fff">
      <path d="M17,13L12,18V15H8V11H12V8M12,3A1,1 0 0,1 13,4A1,1 0 0,1 12,5A1,1 0 0,1 11,4A1,1 0 0,1 12,3M19,3H14.82C14.4,1.84 13.3,1 12,1C10.7,1 9.6,1.84 9.18,3H5A2,2 0 0,0 3,5V19A2,2 0 0,0 5,21H19A2,2 0 0,0 21,19V5A2,2 0 0,0 19,3Z" />
    </g>
    <g id="mdi-clipboard-arrow-right-outline" transform="translate(360 180) scale(1.5)" fill="#555">
      <path d="M19,3A2,2 0 0,1 21,5V19A2,2 0 0,1 19,21H5A2,2 0 0,1 3,19V5A2,2 0 0,1 5,3H9.18C9.6,1.84 10.7,1 12,1C13.3,1 14.4,1.84 14.82,3H19M12,3A1,1 0 0,0 11,4A1,1 0 0,0 12,5A1,1 0 0,0 13,4A1,1 0 0,0 12,3M7,7V5H5V19H19V5H17V7H7M16.91,13L11.91,18V15H7.91V11H11.91V8L16.91,13Z" />
    </g>
    <g id="mdi-clipboard-arrow-right-outline" transform="translate(396 180) scale(1.5)" fill="#fff">
      <path d="M19,3A2,2 0 0,1 21,5V19A2,2 0 0,1 19,21H5A2,2 0 0,1 3,19V5A2,2 0 0,1 5,3H9.18C9.6,1.84 10.7,1 12,1C13.3,1 14.4,1.84 14.82,3H19M12,3A1,1 0 0,0 11,4A1,1 0 0,0 12,5A1,1 0 0,0 13,4A1,1 0 0,0 12,3M7,7V5H5V19H19V5H17V7H7M16.91,13L11.91,18V15H7.91V11H11.91V8L16.91,13Z" />
    </g>
    <g id="mdi-clipboard-arrow-up" transform="translate(432 180) scale(1.5)" fill="#555">
      <path d="M19,3A2,2 0 0,1 21,5V19A2,2 0 0,1 19,21H5A2,2 0 0,1 3,19V5A2,2 0 0,1 5,3H9.18C9.6,1.84 10.7,1 12,1C13.3,1 14.4,1.84 14.82,3H19M12,8L7,13H10V17H14V13H17L12,8M12,3A1,1 0 0,0 11,4A1,1 0 0,0 12,5A1,1 0 0,0 13,4A1,1 0 0,0 12,3Z" />
    </g>
    <g id="mdi-clipboard-arrow-up" transform="translate(468 180) scale(1.5)" fill="#fff">
      <path d="M19,3A2,2 0 0,1 21,5V19A2,2 0 0,1 19,21H5A2,2 0 0,1 3,19V5A2,2 0 0,1 5,3H9.18C9.6,1.84 10.7,1 12,1C13.3,1 14.4,1.84 14.82,3H19M12,8L7,13H10V17H14V13H17L12,8M12,3A1,1 0 0,0 11,4A1,1 0 0,0 12,5A1,1 0 0,0 13,4A1,1 0 0,0 12,3Z" />
    </g>
    <g id="mdi-clipboard-arrow-up-outline" transform="translate(504 180) scale(1.5)" fill="#555">
      <path d="M12,8L17,13H14V17H10V13H7L12,8M19,3A2,2 0 0,1 21,5V19A2,2 0 0,1 19,21H5A2,2 0 0,1 3,19V5A2,2 0 0,1 5,3H9.18C9.6,1.84 10.7,1 12,1C13.3,1 14.4,1.84 14.82,3H19M12,3A1,1 0 0,0 11,4A1,1 0 0,0 12,5A1,1 0 0,0 13,4A1,1 0 0,0 12,3M7,7V5H5V19H19V5H17V7H7Z" />
    </g>
    <g id="mdi-clipboard-arrow-up-outline" transform="translate(540 180) scale(1.5)" fill="#fff">
      <path d="M12,8L17,13H14V17H10V13H7L12,8M19,3A2,2 0 0,1 21,5V19A2,2 0 0,1 19,21H5A2,2 0 0,1 3,19V5A2,2 0 0,1 5,3H9.18C9.6,1.84 10.7,1 12,1C13.3,1 14.4,1.84 14.82,3H19M12,3A1,1 0 0,0 11,4A1,1 0 0,0 12,5A1,1 0 0,0 13,4A1,1 0 0,0 12,3M7,7V5H5V19H19V5H17V7H7Z" />
    </g>
    <g id="mdi-clipboard-check" transform="translate(576 180) scale(1.5)" fill="#555">
      <path d="M10,17L6,13L7.41,11.59L10,14.17L16.59,7.58L18,9M12,3A1,1 0 0,1 13,4A1,1 0 0,1 12,5A1,1 0 0,1 11,4A1,1 0 0,1 12,3M19,3H14.82C14.4,1.84 13.3,1 12,1C10.7,1 9.6,1.84 9.18,3H5A2,2 0 0,0 3,5V19A2,2 0 0,0 5,21H19A2,2 0 0,0 21,19V5A2,2 0 0,0 19,3Z" />
    </g>
    <g id="mdi-clipboard-check" transform="translate(612 180) scale(1.5)" fill="#fff">
      <path d="M10,17L6,13L7.41,11.59L10,14.17L16.59,7.58L18,9M12,3A1,1 0 0,1 13,4A1,1 0 0,1 12,5A1,1 0 0,1 11,4A1,1 0 0,1 12,3M19,3H14.82C14.4,1.84 13.3,1 12,1C10.7,1 9.6,1.84 9.18,3H5A2,2 0 0,0 3,5V19A2,2 0 0,0 5,21H19A2,2 0 0,0 21,19V5A2,2 0 0,0 19,3Z" />
    </g>
    <g id="mdi-clipboard-check-outline" transform="translate(648 180) scale(1.5)" fill="#555">
      <path d="M19,3H14.82C14.4,1.84 13.3,1 12,1C10.7,1 9.6,1.84 9.18,3H5A2,2 0 0,0 3,5V19A2,2 0 0,0 5,21H19A2,2 0 0,0 21,19V5A2,2 0 0,0 19,3M12,3A1,1 0 0,1 13,4A1,1 0 0,1 12,5A1,1 0 0,1 11,4A1,1 0 0,1 12,3M7,7H17V5H19V19H5V5H7V7M7.5,13.5L9,12L11,14L15.5,9.5L17,11L11,17L7.5,13.5Z" />
    </g>
    <g id="mdi-clipboard-check-outline" transform="translate(684 180) scale(1.5)" fill="#fff">
      <path d="M19,3H14.82C14.4,1.84 13.3,1 12,1C10.7,1 9.6,1.84 9.18,3H5A2,2 0 0,0 3,5V19A2,2 0 0,0 5,21H19A2,2 0 0,0 21,19V5A2,2 0 0,0 19,3M12,3A1,1 0 0,1 13,4A1,1 0 0,1 12,5A1,1 0 0,1 11,4A1,1 0 0,1 12,3M7,7H17V5H19V19H5V5H7V7M7.5,13.5L9,12L11,14L15.5,9.5L17,11L11,17L7.5,13.5Z" />
    </g>
    <g id="mdi-clipboard-flow" transform="translate(0 216) scale(1.5)" fill="#555">
      <path d="M19,3H14.82C14.4,1.84 13.3,1 12,1C10.7,1 9.6,1.84 9.18,3H5A2,2 0 0,0 3,5V19A2,2 0 0,0 5,21H19A2,2 0 0,0 21,19V5A2,2 0 0,0 19,3M12,3A1,1 0 0,1 13,4A1,1 0 0,1 12,5A1,1 0 0,1 11,4A1,1 0 0,1 12,3M15,19L11,15H14V8H16V15H19L15,19M10,16H8V9H5L9,5L13,9H10V16" />
    </g>
    <g id="mdi-clipboard-flow" transform="translate(36 216) scale(1.5)" fill="#fff">
      <path d="M19,3H14.82C14.4,1.84 13.3,1 12,1C10.7,1 9.6,1.84 9.18,3H5A2,2 0 0,0 3,5V19A2,2 0 0,0 5,21H19A2,2 0 0,0 21,19V5A2,2 0 0,0 19,3M12,3A1,1 0 0,1 13,4A1,1 0 0,1 12,5A1,1 0 0,1 11,4A1,1 0 0,1 12,3M15,19L11,15H14V8H16V15H19L15,19M10,16H8V9H5L9,5L13,9H10V16" />
    </g>
    <g id="mdi-clipboard-flow-outline" transform="translate(72 216) scale(1.5)" fill="#555">
      <path d="M19 3H14.82C14.4 1.84 13.3 1 12 1S9.6 1.84 9.18 3H5C3.9 3 3 3.9 3 5V19C3 20.11 3.9 21 5 21H19C20.11 21 21 20.11 21 19V5C21 3.9 20.11 3 19 3M12 3C12.55 3 13 3.45 13 4S12.55 5 12 5 11 4.55 11 4 11.45 3 12 3M7 7H17V5H19V19H5V5H7V7M10 16H8V11H6L9 8L12 11H10V16M14 10H16V15H18L15 18L12 15H14V10Z" />
    </g>
    <g id="mdi-clipboard-flow-outline" transform="translate(108 216) scale(1.5)" fill="#fff">
      <path d="M19 3H14.82C14.4 1.84 13.3 1 12 1S9.6 1.84 9.18 3H5C3.9 3 3 3.9 3 5V19C3 20.11 3.9 21 5 21H19C20.11 21 21 20.11 21 19V5C21 3.9 20.11 3 19 3M12 3C12.55 3 13 3.45 13 4S12.55 5 12 5 11 4.55 11 4 11.45 3 12 3M7 7H17V5H19V19H5V5H7V7M10 16H8V11H6L9 8L12 11H10V16M14 10H16V15H18L15 18L12 15H14V10Z" />
    </g>
    <g id="mdi-clipboard-list" transform="translate(144 216) scale(1.5)" fill="#555">
      <path d="M19 3H14.82C14.4 1.84 13.3 1 12 1S9.6 1.84 9.18 3H5C3.9 3 3 3.9 3 5V19C3 20.1 3.9 21 5 21H19C20.1 21 21 20.1 21 19V5C21 3.9 20.1 3 19 3M7 8H9V12H8V9H7V8M10 17V18H7V17.08L9 15H7V14H9.25C9.66 14 10 14.34 10 14.75C10 14.95 9.92 15.14 9.79 15.27L8.12 17H10M11 4C11 3.45 11.45 3 12 3S13 3.45 13 4 12.55 5 12 5 11 4.55 11 4M17 17H12V15H17V17M17 11H12V9H17V11Z" />
    </g>
    <g id="mdi-clipboard-list" transform="translate(180 216) scale(1.5)" fill="#fff">
      <path d="M19 3H14.82C14.4 1.84 13.3 1 12 1S9.6 1.84 9.18 3H5C3.9 3 3 3.9 3 5V19C3 20.1 3.9 21 5 21H19C20.1 21 21 20.1 21 19V5C21 3.9 20.1 3 19 3M7 8H9V12H8V9H7V8M10 17V18H7V17.08L9 15H7V14H9.25C9.66 14 10 14.34 10 14.75C10 14.95 9.92 15.14 9.79 15.27L8.12 17H10M11 4C11 3.45 11.45 3 12 3S13 3.45 13 4 12.55 5 12 5 11 4.55 11 4M17 17H12V15H17V17M17 11H12V9H17V11Z" />
    </g>
    <g id="mdi-clipboard-list-outline" transform="translate(216 216) scale(1.5)" fill="#555">
      <path d="M19 3H14.82C14.4 1.84 13.3 1 12 1S9.6 1.84 9.18 3H5C3.9 3 3 3.9 3 5V19C3 20.1 3.9 21 5 21H19C20.1 21 21 20.1 21 19V5C21 3.9 20.1 3 19 3M12 3C12.55 3 13 3.45 13 4S12.55 5 12 5 11 4.55 11 4 11.45 3 12 3M7 7H17V5H19V19H5V5H7V7M12 17V15H17V17H12M12 11V9H17V11H12M8 12V9H7V8H9V12H8M9.25 14C9.66 14 10 14.34 10 14.75C10 14.95 9.92 15.14 9.79 15.27L8.12 17H10V18H7V17.08L9 15H7V14H9.25" />
    </g>
    <g id="mdi-clipboard-list-outline" transform="translate(252 216) scale(1.5)" fill="#fff">
      <path d="M19 3H14.82C14.4 1.84 13.3 1 12 1S9.6 1.84 9.18 3H5C3.9 3 3 3.9 3 5V19C3 20.1 3.9 21 5 21H19C20.1 21 21 20.1 21 19V5C21 3.9 20.1 3 19 3M12 3C12.55 3 13 3.45 13 4S12.55 5 12 5 11 4.55 11 4 11.45 3 12 3M7 7H17V5H19V19H5V5H7V7M12 17V15H17V17H12M12 11V9H17V11H12M8 12V9H7V8H9V12H8M9.25 14C9.66 14 10 14.34 10 14.75C10 14.95 9.92 15.14 9.79 15.27L8.12 17H10V18H7V17.08L9 15H7V14H9.25" />
    </g>
    <g id="mdi-clipboard-outline" transform="translate(288 216) scale(1.5)" fill="#555">
      <path d="M19,3H14.82C14.4,1.84 13.3,1 12,1C10.7,1 9.6,1.84 9.18,3H5A2,2 0 0,0 3,5V19A2,2 0 0,0 5,21H19A2,2 0 0,0 21,19V5A2,2 0 0,0 19,3M12,3A1,1 0 0,1 13,4A1,1 0 0,1 12,5A1,1 0 0,1 11,4A1,1 0 0,1 12,3M7,7H17V5H19V19H5V5H7V7Z" />
    </g>
    <g id="mdi-clipboard-outline" transform="translate(324 216) scale(1.5)" fill="#fff">
      <path d="M19,3H14.82C14.4,1.84 13.3,1 12,1C10.7,1 9.6,1.84 9.18,3H5A2,2 0 0,0 3,5V19A2,2 0 0,0 5,21H19A2,2 0 0,0 21,19V5A2,2 0 0,0 19,3M12,3A1,1 0 0,1 13,4A1,1 0 0,1 12,5A1,1 0 0,1 11,4A1,1 0 0,1 12,3M7,7H17V5H19V19H5V5H7V7Z" />
    </g>
    <g id="mdi-clipboard-play" transform="translate(360 216) scale(1.5)" fill="#555">
      <path d="M19,3H14.82C14.25,1.44 12.53,0.64 11,1.2C10.14,1.5 9.5,2.16 9.18,3H5A2,2 0 0,0 3,5V19A2,2 0 0,0 5,21H19A2,2 0 0,0 21,19V5A2,2 0 0,0 19,3M12,3A1,1 0 0,1 13,4A1,1 0 0,1 12,5A1,1 0 0,1 11,4A1,1 0 0,1 12,3M10,17V9L15,13L10,17Z" />
    </g>
    <g id="mdi-clipboard-play" transform="translate(396 216) scale(1.5)" fill="#fff">
      <path d="M19,3H14.82C14.25,1.44 12.53,0.64 11,1.2C10.14,1.5 9.5,2.16 9.18,3H5A2,2 0 0,0 3,5V19A2,2 0 0,0 5,21H19A2,2 0 0,0 21,19V5A2,2 0 0,0 19,3M12,3A1,1 0 0,1 13,4A1,1 0 0,1 12,5A1,1 0 0,1 11,4A1,1 0 0,1 12,3M10,17V9L15,13L10,17Z" />
    </g>
    <g id="mdi-clipboard-play-outline" transform="translate(432 216) scale(1.5)" fill="#555">
      <path d="M19,3H14.82C14.25,1.44 12.53,0.64 11,1.2C10.14,1.5 9.5,2.16 9.18,3H5A2,2 0 0,0 3,5V19A2,2 0 0,0 5,21H19A2,2 0 0,0 21,19V5A2,2 0 0,0 19,3M12,3A1,1 0 0,1 13,4A1,1 0 0,1 12,5A1,1 0 0,1 11,4A1,1 0 0,1 12,3M7,7H17V5H19V19H5V5H7V7M10,17V9L15,13L10,17Z" />
    </g>
    <g id="mdi-clipboard-play-outline" transform="translate(468 216) scale(1.5)" fill="#fff">
      <path d="M19,3H14.82C14.25,1.44 12.53,0.64 11,1.2C10.14,1.5 9.5,2.16 9.18,3H5A2,2 0 0,0 3,5V19A2,2 0 0,0 5,21H19A2,2 0 0,0 21,19V5A2,2 0 0,0 19,3M12,3A1,1 0 0,1 13,4A1,1 0 0,1 12,5A1,1 0 0,1 11,4A1,1 0 0,1 12,3M7,7H17V5H19V19H5V5H7V7M10,17V9L15,13L10,17Z" />
    </g>
    <g id="mdi-clipboard-plus" transform="translate(504 216) scale(1.5)" fill="#555">
      <path d="M19,3H14.82C14.4,1.84 13.3,1 12,1C10.7,1 9.6,1.84 9.18,3H5A2,2 0 0,0 3,5V19A2,2 0 0,0 5,21H19A2,2 0 0,0 21,19V5A2,2 0 0,0 19,3M12,3A1,1 0 0,1 13,4A1,1 0 0,1 12,5A1,1 0 0,1 11,4A1,1 0 0,1 12,3M13,12H16V14H13V17H11V14H8V12H11V9H13V12Z" />
    </g>
    <g id="mdi-clipboard-plus" transform="translate(540 216) scale(1.5)" fill="#fff">
      <path d="M19,3H14.82C14.4,1.84 13.3,1 12,1C10.7,1 9.6,1.84 9.18,3H5A2,2 0 0,0 3,5V19A2,2 0 0,0 5,21H19A2,2 0 0,0 21,19V5A2,2 0 0,0 19,3M12,3A1,1 0 0,1 13,4A1,1 0 0,1 12,5A1,1 0 0,1 11,4A1,1 0 0,1 12,3M13,12H16V14H13V17H11V14H8V12H11V9H13V12Z" />
    </g>
    <g id="mdi-clipboard-pulse" transform="translate(576 216) scale(1.5)" fill="#555">
      <path d="M19,3H14.82C14.4,1.84 13.3,1 12,1C10.7,1 9.6,1.84 9.18,3H5A2,2 0 0,0 3,5V19A2,2 0 0,0 5,21H19A2,2 0 0,0 21,19V5A2,2 0 0,0 19,3M12,3A1,1 0 0,1 13,4A1,1 0 0,1 12,5A1,1 0 0,1 11,4A1,1 0 0,1 12,3M5,13.46H7.17L10.5,7.08L11.44,14.05L13.93,10.86L16.53,13.46H19V15H15.89L14.07,13.21L10.38,17.92L9.62,12.15L8.11,15H5V13.46Z" />
    </g>
    <g id="mdi-clipboard-pulse" transform="translate(612 216) scale(1.5)" fill="#fff">
      <path d="M19,3H14.82C14.4,1.84 13.3,1 12,1C10.7,1 9.6,1.84 9.18,3H5A2,2 0 0,0 3,5V19A2,2 0 0,0 5,21H19A2,2 0 0,0 21,19V5A2,2 0 0,0 19,3M12,3A1,1 0 0,1 13,4A1,1 0 0,1 12,5A1,1 0 0,1 11,4A1,1 0 0,1 12,3M5,13.46H7.17L10.5,7.08L11.44,14.05L13.93,10.86L16.53,13.46H19V15H15.89L14.07,13.21L10.38,17.92L9.62,12.15L8.11,15H5V13.46Z" />
    </g>
    <g id="mdi-clipboard-pulse-outline" transform="translate(648 216) scale(1.5)" fill="#555">
      <path d="M19,3H14.82C14.4,1.84 13.3,1 12,1C10.7,1 9.6,1.84 9.18,3H5A2,2 0 0,0 3,5V19A2,2 0 0,0 5,21H19A2,2 0 0,0 21,19V5A2,2 0 0,0 19,3M12,3A1,1 0 0,1 13,4A1,1 0 0,1 12,5A1,1 0 0,1 11,4A1,1 0 0,1 12,3M5,15H8.11L9.62,12.15L10.38,17.92L14.07,13.21L15.89,15H19V19H5V15M19,13.46H16.53L13.93,10.86L11.44,14.05L10.5,7.08L7.17,13.46H5V5H7V6H17V5H19V6L19,13.46Z" />
    </g>
    <g id="mdi-clipboard-pulse-outline" transform="translate(684 216) scale(1.5)" fill="#fff">
      <path d="M19,3H14.82C14.4,1.84 13.3,1 12,1C10.7,1 9.6,1.84 9.18,3H5A2,2 0 0,0 3,5V19A2,2 0 0,0 5,21H19A2,2 0 0,0 21,19V5A2,2 0 0,0 19,3M12,3A1,1 0 0,1 13,4A1,1 0 0,1 12,5A1,1 0 0,1 11,4A1,1 0 0,1 12,3M5,15H8.11L9.62,12.15L10.38,17.92L14.07,13.21L15.89,15H19V19H5V15M19,13.46H16.53L13.93,10.86L11.44,14.05L10.5,7.08L7.17,13.46H5V5H7V6H17V5H19V6L19,13.46Z" />
    </g>
    <g id="mdi-clipboard-text" transform="translate(0 252) scale(1.5)" fill="#555">
      <path d="M17,9H7V7H17M17,13H7V11H17M14,17H7V15H14M12,3A1,1 0 0,1 13,4A1,1 0 0,1 12,5A1,1 0 0,1 11,4A1,1 0 0,1 12,3M19,3H14.82C14.4,1.84 13.3,1 12,1C10.7,1 9.6,1.84 9.18,3H5A2,2 0 0,0 3,5V19A2,2 0 0,0 5,21H19A2,2 0 0,0 21,19V5A2,2 0 0,0 19,3Z" />
    </g>
    <g id="mdi-clipboard-text" transform="translate(36 252) scale(1.5)" fill="#fff">
      <path d="M17,9H7V7H17M17,13H7V11H17M14,17H7V15H14M12,3A1,1 0 0,1 13,4A1,1 0 0,1 12,5A1,1 0 0,1 11,4A1,1 0 0,1 12,3M19,3H14.82C14.4,1.84 13.3,1 12,1C10.7,1 9.6,1.84 9.18,3H5A2,2 0 0,0 3,5V19A2,2 0 0,0 5,21H19A2,2 0 0,0 21,19V5A2,2 0 0,0 19,3Z" />
    </g>
    <g id="mdi-clipboard-text-outline" transform="translate(72 252) scale(1.5)" fill="#555">
      <path d="M19,3H14.82C14.25,1.44 12.53,0.64 11,1.2C10.14,1.5 9.5,2.16 9.18,3H5A2,2 0 0,0 3,5V19A2,2 0 0,0 5,21H19A2,2 0 0,0 21,19V5A2,2 0 0,0 19,3M12,3A1,1 0 0,1 13,4A1,1 0 0,1 12,5A1,1 0 0,1 11,4A1,1 0 0,1 12,3M7,7H17V5H19V19H5V5H7V7M17,11H7V9H17V11M15,15H7V13H15V15Z" />
    </g>
    <g id="mdi-clipboard-text-outline" transform="translate(108 252) scale(1.5)" fill="#fff">
      <path d="M19,3H14.82C14.25,1.44 12.53,0.64 11,1.2C10.14,1.5 9.5,2.16 9.18,3H5A2,2 0 0,0 3,5V19A2,2 0 0,0 5,21H19A2,2 0 0,0 21,19V5A2,2 0 0,0 19,3M12,3A1,1 0 0,1 13,4A1,1 0 0,1 12,5A1,1 0 0,1 11,4A1,1 0 0,1 12,3M7,7H17V5H19V19H5V5H7V7M17,11H7V9H17V11M15,15H7V13H15V15Z" />
    </g>
    <g id="mdi-clipboard-text-play" transform="translate(144 252) scale(1.5)" fill="#555">
      <path d="M19,3A2,2 0 0,1 21,5V13.34C20.36,13.11 19.68,13 19,13C15.68,13 13,15.69 13,19C13,19.68 13.11,20.36 13.34,21H5A2,2 0 0,1 3,19V5A2,2 0 0,1 5,3H9.18C9.5,2.16 10.14,1.5 11,1.2C12.53,0.64 14.25,1.44 14.82,3H19M12,3A1,1 0 0,0 11,4A1,1 0 0,0 12,5A1,1 0 0,0 13,4A1,1 0 0,0 12,3M11,17V15H7V17H11M13,13V11H7V13H13M17,9V7H7V9H17M17,16L22,19L17,22V16Z" />
    </g>
    <g id="mdi-clipboard-text-play" transform="translate(180 252) scale(1.5)" fill="#fff">
      <path d="M19,3A2,2 0 0,1 21,5V13.34C20.36,13.11 19.68,13 19,13C15.68,13 13,15.69 13,19C13,19.68 13.11,20.36 13.34,21H5A2,2 0 0,1 3,19V5A2,2 0 0,1 5,3H9.18C9.5,2.16 10.14,1.5 11,1.2C12.53,0.64 14.25,1.44 14.82,3H19M12,3A1,1 0 0,0 11,4A1,1 0 0,0 12,5A1,1 0 0,0 13,4A1,1 0 0,0 12,3M11,17V15H7V17H11M13,13V11H7V13H13M17,9V7H7V9H17M17,16L22,19L17,22V16Z" />
    </g>
    <g id="mdi-clipboard-text-play-outline" transform="translate(216 252) scale(1.5)" fill="#555">
      <path d="M19,3H14.82C14.25,1.44 12.53,0.64 11,1.2C10.14,1.5 9.5,2.16 9.18,3H5A2,2 0 0,0 3,5V19A2,2 0 0,0 5,21H15V19H5V5H7V7H17V5H19V14H21V5A2,2 0 0,0 19,3M12,5A1,1 0 0,1 11,4A1,1 0 0,1 12,3A1,1 0 0,1 13,4A1,1 0 0,1 12,5M17,16V22L22,19L17,16M17,11H7V9H17V11M15,15H7V13H15V15Z" />
    </g>
    <g id="mdi-clipboard-text-play-outline" transform="translate(252 252) scale(1.5)" fill="#fff">
      <path d="M19,3H14.82C14.25,1.44 12.53,0.64 11,1.2C10.14,1.5 9.5,2.16 9.18,3H5A2,2 0 0,0 3,5V19A2,2 0 0,0 5,21H15V19H5V5H7V7H17V5H19V14H21V5A2,2 0 0,0 19,3M12,5A1,1 0 0,1 11,4A1,1 0 0,1 12,3A1,1 0 0,1 13,4A1,1 0 0,1 12,5M17,16V22L22,19L17,16M17,11H7V9H17V11M15,15H7V13H15V15Z" />
    </g>
    <g id="mdi-clippy" transform="translate(288 252) scale(1.5)" fill="#555">
      <path d="M15,15.5A2.5,2.5 0 0,1 12.5,18A2.5,2.5 0 0,1 10,15.5V13.75A0.75,0.75 0 0,1 10.75,13A0.75,0.75 0 0,1 11.5,13.75V15.5A1,1 0 0,0 12.5,16.5A1,1 0 0,0 13.5,15.5V11.89C12.63,11.61 12,10.87 12,10C12,8.9 13,8 14.25,8C15.5,8 16.5,8.9 16.5,10C16.5,10.87 15.87,11.61 15,11.89V15.5M8.25,8C9.5,8 10.5,8.9 10.5,10C10.5,10.87 9.87,11.61 9,11.89V17.25A3.25,3.25 0 0,0 12.25,20.5A3.25,3.25 0 0,0 15.5,17.25V13.75A0.75,0.75 0 0,1 16.25,13A0.75,0.75 0 0,1 17,13.75V17.25A4.75,4.75 0 0,1 12.25,22A4.75,4.75 0 0,1 7.5,17.25V11.89C6.63,11.61 6,10.87 6,10C6,8.9 7,8 8.25,8M10.06,6.13L9.63,7.59C9.22,7.37 8.75,7.25 8.25,7.25C7.34,7.25 6.53,7.65 6.03,8.27L4.83,7.37C5.46,6.57 6.41,6 7.5,5.81V5.75A3.75,3.75 0 0,1 11.25,2A3.75,3.75 0 0,1 15,5.75V5.81C16.09,6 17.04,6.57 17.67,7.37L16.47,8.27C15.97,7.65 15.16,7.25 14.25,7.25C13.75,7.25 13.28,7.37 12.87,7.59L12.44,6.13C12.77,6 13.13,5.87 13.5,5.81V5.75C13.5,4.5 12.5,3.5 11.25,3.5C10,3.5 9,4.5 9,5.75V5.81C9.37,5.87 9.73,6 10.06,6.13M14.25,9.25C13.7,9.25 13.25,9.59 13.25,10C13.25,10.41 13.7,10.75 14.25,10.75C14.8,10.75 15.25,10.41 15.25,10C15.25,9.59 14.8,9.25 14.25,9.25M8.25,9.25C7.7,9.25 7.25,9.59 7.25,10C7.25,10.41 7.7,10.75 8.25,10.75C8.8,10.75 9.25,10.41 9.25,10C9.25,9.59 8.8,9.25 8.25,9.25Z" />
    </g>
    <g id="mdi-clippy" transform="translate(324 252) scale(1.5)" fill="#fff">
      <path d="M15,15.5A2.5,2.5 0 0,1 12.5,18A2.5,2.5 0 0,1 10,15.5V13.75A0.75,0.75 0 0,1 10.75,13A0.75,0.75 0 0,1 11.5,13.75V15.5A1,1 0 0,0 12.5,16.5A1,1 0 0,0 13.5,15.5V11.89C12.63,11.61 12,10.87 12,10C12,8.9 13,8 14.25,8C15.5,8 16.5,8.9 16.5,10C16.5,10.87 15.87,11.61 15,11.89V15.5M8.25,8C9.5,8 10.5,8.9 10.5,10C10.5,10.87 9.87,11.61 9,11.89V17.25A3.25,3.25 0 0,0 12.25,20.5A3.25,3.25 0 0,0 15.5,17.25V13.75A0.75,0.75 0 0,1 16.25,13A0.75,0.75 0 0,1 17,13.75V17.25A4.75,4.75 0 0,1 12.25,22A4.75,4.75 0 0,1 7.5,17.25V11.89C6.63,11.61 6,10.87 6,10C6,8.9 7,8 8.25,8M10.06,6.13L9.63,7.59C9.22,7.37 8.75,7.25 8.25,7.25C7.34,7.25 6.53,7.65 6.03,8.27L4.83,7.37C5.46,6.57 6.41,6 7.5,5.81V5.75A3.75,3.75 0 0,1 11.25,2A3.75,3.75 0 0,1 15,5.75V5.81C16.09,6 17.04,6.57 17.67,7.37L16.47,8.27C15.97,7.65 15.16,7.25 14.25,7.25C13.75,7.25 13.28,7.37 12.87,7.59L12.44,6.13C12.77,6 13.13,5.87 13.5,5.81V5.75C13.5,4.5 12.5,3.5 11.25,3.5C10,3.5 9,4.5 9,5.75V5.81C9.37,5.87 9.73,6 10.06,6.13M14.25,9.25C13.7,9.25 13.25,9.59 13.25,10C13.25,10.41 13.7,10.75 14.25,10.75C14.8,10.75 15.25,10.41 15.25,10C15.25,9.59 14.8,9.25 14.25,9.25M8.25,9.25C7.7,9.25 7.25,9.59 7.25,10C7.25,10.41 7.7,10.75 8.25,10.75C8.8,10.75 9.25,10.41 9.25,10C9.25,9.59 8.8,9.25 8.25,9.25Z" />
    </g>
    <g id="mdi-clock" transform="translate(360 252) scale(1.5)" fill="#555">
      <path d="M12,2A10,10 0 0,0 2,12A10,10 0 0,0 12,22A10,10 0 0,0 22,12A10,10 0 0,0 12,2M16.2,16.2L11,13V7H12.5V12.2L17,14.9L16.2,16.2Z" />
    </g>
    <g id="mdi-clock" transform="translate(396 252) scale(1.5)" fill="#fff">
      <path d="M12,2A10,10 0 0,0 2,12A10,10 0 0,0 12,22A10,10 0 0,0 22,12A10,10 0 0,0 12,2M16.2,16.2L11,13V7H12.5V12.2L17,14.9L16.2,16.2Z" />
    </g>
    <g id="mdi-clock-alert" transform="translate(432 252) scale(1.5)" fill="#555">
      <path d="M12,2C16.46,2 20.26,4.95 21.54,9H18V20C16.33,21.25 14.25,22 12,22A10,10 0 0,1 2,12A10,10 0 0,1 12,2M16.2,16.2L17,14.9L12.5,12.2V7H11V13L16.2,16.2M20,11H22V18H20V11M20,20H22V22H20V20Z" />
    </g>
    <g id="mdi-clock-alert" transform="translate(468 252) scale(1.5)" fill="#fff">
      <path d="M12,2C16.46,2 20.26,4.95 21.54,9H18V20C16.33,21.25 14.25,22 12,22A10,10 0 0,1 2,12A10,10 0 0,1 12,2M16.2,16.2L17,14.9L12.5,12.2V7H11V13L16.2,16.2M20,11H22V18H20V11M20,20H22V22H20V20Z" />
    </g>
    <g id="mdi-clock-alert-outline" transform="translate(504 252) scale(1.5)" fill="#555">
      <path d="M12,2C6.47,2 2,6.5 2,12A10,10 0 0,0 12,22C14.25,22 16.33,21.24 18,20V17.28C16.53,18.94 14.39,20 12,20A8,8 0 0,1 4,12A8,8 0 0,1 12,4C15.36,4 18.23,6.07 19.41,9H21.54C20.27,4.94 16.5,2 12,2M11,7V13L16.25,16.15L17,14.92L12.5,12.25V7H11M20,11V18H22V11H20M20,20V22H22V20H20Z" />
    </g>
    <g id="mdi-clock-alert-outline" transform="translate(540 252) scale(1.5)" fill="#fff">
      <path d="M12,2C6.47,2 2,6.5 2,12A10,10 0 0,0 12,22C14.25,22 16.33,21.24 18,20V17.28C16.53,18.94 14.39,20 12,20A8,8 0 0,1 4,12A8,8 0 0,1 12,4C15.36,4 18.23,6.07 19.41,9H21.54C20.27,4.94 16.5,2 12,2M11,7V13L16.25,16.15L17,14.92L12.5,12.25V7H11M20,11V18H22V11H20M20,20V22H22V20H20Z" />
    </g>
    <g id="mdi-clock-check" transform="translate(576 252) scale(1.5)" fill="#555">
      <path d="M23.5 17L18.5 22L15 18.5L16.5 17L18.5 19L22 15.5L23.5 17M13 19C13 17.5 13.5 16.2 14.4 15.1L11 13V7H12.5V12.2L15.6 14.1C16.6 13.4 17.7 13 19 13C20 13 21 13.3 21.8 13.7C21.9 13.1 22 12.6 22 12C22 6.5 17.5 2 12 2S2 6.5 2 12 6.5 22 12 22C12.6 22 13.2 21.9 13.7 21.8C13.3 21 13 20 13 19Z" />
    </g>
    <g id="mdi-clock-check" transform="translate(612 252) scale(1.5)" fill="#fff">
      <path d="M23.5 17L18.5 22L15 18.5L16.5 17L18.5 19L22 15.5L23.5 17M13 19C13 17.5 13.5 16.2 14.4 15.1L11 13V7H12.5V12.2L15.6 14.1C16.6 13.4 17.7 13 19 13C20 13 21 13.3 21.8 13.7C21.9 13.1 22 12.6 22 12C22 6.5 17.5 2 12 2S2 6.5 2 12 6.5 22 12 22C12.6 22 13.2 21.9 13.7 21.8C13.3 21 13 20 13 19Z" />
    </g>
    <g id="mdi-clock-check-outline" transform="translate(648 252) scale(1.5)" fill="#555">
      <path d="M23.5 17L18.5 22L15 18.5L16.5 17L18.5 19L22 15.5L23.5 17M13.1 19.9C12.7 20 12.4 20 12 20C7.6 20 4 16.4 4 12S7.6 4 12 4 20 7.6 20 12C20 12.4 20 12.7 19.9 13.1C20.6 13.2 21.2 13.4 21.8 13.7C21.9 13.1 22 12.6 22 12C22 6.5 17.5 2 12 2S2 6.5 2 12C2 17.5 6.5 22 12 22C12.6 22 13.2 21.9 13.7 21.8C13.4 21.3 13.2 20.6 13.1 19.9M15.6 14.1L12.5 12.3V7H11V13L14.5 15.1C14.8 14.7 15.2 14.4 15.6 14.1Z" />
    </g>
    <g id="mdi-clock-check-outline" transform="translate(684 252) scale(1.5)" fill="#fff">
      <path d="M23.5 17L18.5 22L15 18.5L16.5 17L18.5 19L22 15.5L23.5 17M13.1 19.9C12.7 20 12.4 20 12 20C7.6 20 4 16.4 4 12S7.6 4 12 4 20 7.6 20 12C20 12.4 20 12.7 19.9 13.1C20.6 13.2 21.2 13.4 21.8 13.7C21.9 13.1 22 12.6 22 12C22 6.5 17.5 2 12 2S2 6.5 2 12C2 17.5 6.5 22 12 22C12.6 22 13.2 21.9 13.7 21.8C13.4 21.3 13.2 20.6 13.1 19.9M15.6 14.1L12.5 12.3V7H11V13L14.5 15.1C14.8 14.7 15.2 14.4 15.6 14.1Z" />
    </g>
    <g id="mdi-clock-digital" transform="translate(0 288) scale(1.5)" fill="#555">
      <path d="M2,6A2,2 0 0,0 0,8V16A2,2 0 0,0 2,18H22A2,2 0 0,0 24,16V8A2,2 0 0,0 22,6M2,8H22V16H2M3,9V10.5H6.25L3,15H4.75L8,10.5V9M9.25,9V10.5H10.75V9M12,9V10.5H13.5V15H15V9M17,9A1,1 0 0,0 16,10V14A1,1 0 0,0 17,15H20A1,1 0 0,0 21,14V10A1,1 0 0,0 20,9M17.5,10.5H19.5V13.5H17.5M9.25,13.5V15H10.75V13.5" />
    </g>
    <g id="mdi-clock-digital" transform="translate(36 288) scale(1.5)" fill="#fff">
      <path d="M2,6A2,2 0 0,0 0,8V16A2,2 0 0,0 2,18H22A2,2 0 0,0 24,16V8A2,2 0 0,0 22,6M2,8H22V16H2M3,9V10.5H6.25L3,15H4.75L8,10.5V9M9.25,9V10.5H10.75V9M12,9V10.5H13.5V15H15V9M17,9A1,1 0 0,0 16,10V14A1,1 0 0,0 17,15H20A1,1 0 0,0 21,14V10A1,1 0 0,0 20,9M17.5,10.5H19.5V13.5H17.5M9.25,13.5V15H10.75V13.5" />
    </g>
    <g id="mdi-clock-end" transform="translate(72 288) scale(1.5)" fill="#555">
      <path d="M12,1C8.14,1 5,4.14 5,8A7,7 0 0,0 12,15C15.86,15 19,11.87 19,8C19,4.14 15.86,1 12,1M12,3.15C14.67,3.15 16.85,5.32 16.85,8C16.85,10.68 14.67,12.85 12,12.85A4.85,4.85 0 0,1 7.15,8A4.85,4.85 0 0,1 12,3.15M11,5V8.69L14.19,10.53L14.94,9.23L12.5,7.82V5M15,16V19H3V21H15V24L19,20M19,20V24H21V16H19" />
    </g>
    <g id="mdi-clock-end" transform="translate(108 288) scale(1.5)" fill="#fff">
      <path d="M12,1C8.14,1 5,4.14 5,8A7,7 0 0,0 12,15C15.86,15 19,11.87 19,8C19,4.14 15.86,1 12,1M12,3.15C14.67,3.15 16.85,5.32 16.85,8C16.85,10.68 14.67,12.85 12,12.85A4.85,4.85 0 0,1 7.15,8A4.85,4.85 0 0,1 12,3.15M11,5V8.69L14.19,10.53L14.94,9.23L12.5,7.82V5M15,16V19H3V21H15V24L19,20M19,20V24H21V16H19" />
    </g>
    <g id="mdi-clock-fast" transform="translate(144 288) scale(1.5)" fill="#555">
      <path d="M15,4A8,8 0 0,1 23,12A8,8 0 0,1 15,20A8,8 0 0,1 7,12A8,8 0 0,1 15,4M15,6A6,6 0 0,0 9,12A6,6 0 0,0 15,18A6,6 0 0,0 21,12A6,6 0 0,0 15,6M14,8H15.5V11.78L17.83,14.11L16.77,15.17L14,12.4V8M2,18A1,1 0 0,1 1,17A1,1 0 0,1 2,16H5.83C6.14,16.71 6.54,17.38 7,18H2M3,13A1,1 0 0,1 2,12A1,1 0 0,1 3,11H5.05L5,12L5.05,13H3M4,8A1,1 0 0,1 3,7A1,1 0 0,1 4,6H7C6.54,6.62 6.14,7.29 5.83,8H4Z" />
    </g>
    <g id="mdi-clock-fast" transform="translate(180 288) scale(1.5)" fill="#fff">
      <path d="M15,4A8,8 0 0,1 23,12A8,8 0 0,1 15,20A8,8 0 0,1 7,12A8,8 0 0,1 15,4M15,6A6,6 0 0,0 9,12A6,6 0 0,0 15,18A6,6 0 0,0 21,12A6,6 0 0,0 15,6M14,8H15.5V11.78L17.83,14.11L16.77,15.17L14,12.4V8M2,18A1,1 0 0,1 1,17A1,1 0 0,1 2,16H5.83C6.14,16.71 6.54,17.38 7,18H2M3,13A1,1 0 0,1 2,12A1,1 0 0,1 3,11H5.05L5,12L5.05,13H3M4,8A1,1 0 0,1 3,7A1,1 0 0,1 4,6H7C6.54,6.62 6.14,7.29 5.83,8H4Z" />
    </g>
    <g id="mdi-clock-in" transform="translate(216 288) scale(1.5)" fill="#555">
      <path d="M2.21,0.79L0.79,2.21L4.8,6.21L3,8H8V3L6.21,4.8M12,8C8.14,8 5,11.13 5,15A7,7 0 0,0 12,22C15.86,22 19,18.87 19,15A7,7 0 0,0 12,8M12,10.15C14.67,10.15 16.85,12.32 16.85,15A4.85,4.85 0 0,1 12,19.85C9.32,19.85 7.15,17.68 7.15,15A4.85,4.85 0 0,1 12,10.15M11,12V15.69L14.19,17.53L14.94,16.23L12.5,14.82V12" />
    </g>
    <g id="mdi-clock-in" transform="translate(252 288) scale(1.5)" fill="#fff">
      <path d="M2.21,0.79L0.79,2.21L4.8,6.21L3,8H8V3L6.21,4.8M12,8C8.14,8 5,11.13 5,15A7,7 0 0,0 12,22C15.86,22 19,18.87 19,15A7,7 0 0,0 12,8M12,10.15C14.67,10.15 16.85,12.32 16.85,15A4.85,4.85 0 0,1 12,19.85C9.32,19.85 7.15,17.68 7.15,15A4.85,4.85 0 0,1 12,10.15M11,12V15.69L14.19,17.53L14.94,16.23L12.5,14.82V12" />
    </g>
    <g id="mdi-clock-out" transform="translate(288 288) scale(1.5)" fill="#555">
      <path d="M18,1L19.8,2.79L15.79,6.79L17.21,8.21L21.21,4.21L23,6V1M12,8C8.14,8 5,11.13 5,15A7,7 0 0,0 12,22C15.86,22 19,18.87 19,15A7,7 0 0,0 12,8M12,10.15C14.67,10.15 16.85,12.32 16.85,15A4.85,4.85 0 0,1 12,19.85C9.32,19.85 7.15,17.68 7.15,15A4.85,4.85 0 0,1 12,10.15M11,12V15.69L14.19,17.53L14.94,16.23L12.5,14.82V12" />
    </g>
    <g id="mdi-clock-out" transform="translate(324 288) scale(1.5)" fill="#fff">
      <path d="M18,1L19.8,2.79L15.79,6.79L17.21,8.21L21.21,4.21L23,6V1M12,8C8.14,8 5,11.13 5,15A7,7 0 0,0 12,22C15.86,22 19,18.87 19,15A7,7 0 0,0 12,8M12,10.15C14.67,10.15 16.85,12.32 16.85,15A4.85,4.85 0 0,1 12,19.85C9.32,19.85 7.15,17.68 7.15,15A4.85,4.85 0 0,1 12,10.15M11,12V15.69L14.19,17.53L14.94,16.23L12.5,14.82V12" />
    </g>
    <g id="mdi-clock-outline" transform="translate(360 288) scale(1.5)" fill="#555">
      <path d="M12,20A8,8 0 0,0 20,12A8,8 0 0,0 12,4A8,8 0 0,0 4,12A8,8 0 0,0 12,20M12,2A10,10 0 0,1 22,12A10,10 0 0,1 12,22C6.47,22 2,17.5 2,12A10,10 0 0,1 12,2M12.5,7V12.25L17,14.92L16.25,16.15L11,13V7H12.5Z" />
    </g>
    <g id="mdi-clock-outline" transform="translate(396 288) scale(1.5)" fill="#fff">
      <path d="M12,20A8,8 0 0,0 20,12A8,8 0 0,0 12,4A8,8 0 0,0 4,12A8,8 0 0,0 12,20M12,2A10,10 0 0,1 22,12A10,10 0 0,1 12,22C6.47,22 2,17.5 2,12A10,10 0 0,1 12,2M12.5,7V12.25L17,14.92L16.25,16.15L11,13V7H12.5Z" />
    </g>
    <g id="mdi-clock-start" transform="translate(432 288) scale(1.5)" fill="#555">
      <path d="M12,1C8.14,1 5,4.14 5,8A7,7 0 0,0 12,15C15.86,15 19,11.87 19,8C19,4.14 15.86,1 12,1M12,3.15C14.67,3.15 16.85,5.32 16.85,8C16.85,10.68 14.67,12.85 12,12.85A4.85,4.85 0 0,1 7.15,8A4.85,4.85 0 0,1 12,3.15M11,5V8.69L14.19,10.53L14.94,9.23L12.5,7.82V5M4,16V24H6V21H18V24L22,20L18,16V19H6V16" />
    </g>
    <g id="mdi-clock-start" transform="translate(468 288) scale(1.5)" fill="#fff">
      <path d="M12,1C8.14,1 5,4.14 5,8A7,7 0 0,0 12,15C15.86,15 19,11.87 19,8C19,4.14 15.86,1 12,1M12,3.15C14.67,3.15 16.85,5.32 16.85,8C16.85,10.68 14.67,12.85 12,12.85A4.85,4.85 0 0,1 7.15,8A4.85,4.85 0 0,1 12,3.15M11,5V8.69L14.19,10.53L14.94,9.23L12.5,7.82V5M4,16V24H6V21H18V24L22,20L18,16V19H6V16" />
    </g>
    <g id="mdi-close" transform="translate(504 288) scale(1.5)" fill="#555">
      <path d="M19,6.41L17.59,5L12,10.59L6.41,5L5,6.41L10.59,12L5,17.59L6.41,19L12,13.41L17.59,19L19,17.59L13.41,12L19,6.41Z" />
    </g>
    <g id="mdi-close" transform="translate(540 288) scale(1.5)" fill="#fff">
      <path d="M19,6.41L17.59,5L12,10.59L6.41,5L5,6.41L10.59,12L5,17.59L6.41,19L12,13.41L17.59,19L19,17.59L13.41,12L19,6.41Z" />
    </g>
    <g id="mdi-close-box" transform="translate(576 288) scale(1.5)" fill="#555">
      <path d="M19,3H16.3H7.7H5A2,2 0 0,0 3,5V7.7V16.4V19A2,2 0 0,0 5,21H7.7H16.4H19A2,2 0 0,0 21,19V16.3V7.7V5A2,2 0 0,0 19,3M15.6,17L12,13.4L8.4,17L7,15.6L10.6,12L7,8.4L8.4,7L12,10.6L15.6,7L17,8.4L13.4,12L17,15.6L15.6,17Z" />
    </g>
    <g id="mdi-close-box" transform="translate(612 288) scale(1.5)" fill="#fff">
      <path d="M19,3H16.3H7.7H5A2,2 0 0,0 3,5V7.7V16.4V19A2,2 0 0,0 5,21H7.7H16.4H19A2,2 0 0,0 21,19V16.3V7.7V5A2,2 0 0,0 19,3M15.6,17L12,13.4L8.4,17L7,15.6L10.6,12L7,8.4L8.4,7L12,10.6L15.6,7L17,8.4L13.4,12L17,15.6L15.6,17Z" />
    </g>
    <g id="mdi-close-box-multiple" transform="translate(648 288) scale(1.5)" fill="#555">
      <path d="M4 20H18V22H4C2.9 22 2 21.11 2 20V6H4V20M20.22 2H7.78C6.8 2 6 2.8 6 3.78V16.22C6 17.2 6.8 18 7.78 18H20.22C21.2 18 22 17.2 22 16.22V3.78C22 2.8 21.2 2 20.22 2M19 13.6L17.6 15L14 11.4L10.4 15L9 13.6L12.6 10L9 6.4L10.4 5L14 8.6L17.6 5L19 6.4L15.4 10L19 13.6Z" />
    </g>
    <g id="mdi-close-box-multiple" transform="translate(684 288) scale(1.5)" fill="#fff">
      <path d="M4 20H18V22H4C2.9 22 2 21.11 2 20V6H4V20M20.22 2H7.78C6.8 2 6 2.8 6 3.78V16.22C6 17.2 6.8 18 7.78 18H20.22C21.2 18 22 17.2 22 16.22V3.78C22 2.8 21.2 2 20.22 2M19 13.6L17.6 15L14 11.4L10.4 15L9 13.6L12.6 10L9 6.4L10.4 5L14 8.6L17.6 5L19 6.4L15.4 10L19 13.6Z" />
    </g>
    <g id="mdi-close-box-multiple-outline" transform="translate(0 324) scale(1.5)" fill="#555">
      <path d="M20 2H8C6.9 2 6 2.9 6 4V16C6 17.11 6.9 18 8 18H20C21.11 18 22 17.11 22 16V4C22 2.9 21.11 2 20 2M20 16H8V4H20V16M4 6V20H18V22H4C2.9 22 2 21.11 2 20V6H4M9.77 12.84L12.6 10L9.77 7.15L11.17 5.75L14 8.6L16.84 5.77L18.24 7.17L15.4 10L18.23 12.84L16.83 14.24L14 11.4L11.17 14.24L9.77 12.84Z" />
    </g>
    <g id="mdi-close-box-multiple-outline" transform="translate(36 324) scale(1.5)" fill="#fff">
      <path d="M20 2H8C6.9 2 6 2.9 6 4V16C6 17.11 6.9 18 8 18H20C21.11 18 22 17.11 22 16V4C22 2.9 21.11 2 20 2M20 16H8V4H20V16M4 6V20H18V22H4C2.9 22 2 21.11 2 20V6H4M9.77 12.84L12.6 10L9.77 7.15L11.17 5.75L14 8.6L16.84 5.77L18.24 7.17L15.4 10L18.23 12.84L16.83 14.24L14 11.4L11.17 14.24L9.77 12.84Z" />
    </g>
    <g id="mdi-close-box-outline" transform="translate(72 324) scale(1.5)" fill="#555">
      <path d="M19,3H5A2,2 0 0,0 3,5V19A2,2 0 0,0 5,21H19A2,2 0 0,0 21,19V5A2,2 0 0,0 19,3M19,19H5V5H19V19M17,8.4L13.4,12L17,15.6L15.6,17L12,13.4L8.4,17L7,15.6L10.6,12L7,8.4L8.4,7L12,10.6L15.6,7L17,8.4Z" />
    </g>
    <g id="mdi-close-box-outline" transform="translate(108 324) scale(1.5)" fill="#fff">
      <path d="M19,3H5A2,2 0 0,0 3,5V19A2,2 0 0,0 5,21H19A2,2 0 0,0 21,19V5A2,2 0 0,0 19,3M19,19H5V5H19V19M17,8.4L13.4,12L17,15.6L15.6,17L12,13.4L8.4,17L7,15.6L10.6,12L7,8.4L8.4,7L12,10.6L15.6,7L17,8.4Z" />
    </g>
    <g id="mdi-close-circle" transform="translate(144 324) scale(1.5)" fill="#555">
      <path d="M12,2C17.53,2 22,6.47 22,12C22,17.53 17.53,22 12,22C6.47,22 2,17.53 2,12C2,6.47 6.47,2 12,2M15.59,7L12,10.59L8.41,7L7,8.41L10.59,12L7,15.59L8.41,17L12,13.41L15.59,17L17,15.59L13.41,12L17,8.41L15.59,7Z" />
    </g>
    <g id="mdi-close-circle" transform="translate(180 324) scale(1.5)" fill="#fff">
      <path d="M12,2C17.53,2 22,6.47 22,12C22,17.53 17.53,22 12,22C6.47,22 2,17.53 2,12C2,6.47 6.47,2 12,2M15.59,7L12,10.59L8.41,7L7,8.41L10.59,12L7,15.59L8.41,17L12,13.41L15.59,17L17,15.59L13.41,12L17,8.41L15.59,7Z" />
    </g>
    <g id="mdi-close-circle-outline" transform="translate(216 324) scale(1.5)" fill="#555">
      <path d="M12,20C7.59,20 4,16.41 4,12C4,7.59 7.59,4 12,4C16.41,4 20,7.59 20,12C20,16.41 16.41,20 12,20M12,2C6.47,2 2,6.47 2,12C2,17.53 6.47,22 12,22C17.53,22 22,17.53 22,12C22,6.47 17.53,2 12,2M14.59,8L12,10.59L9.41,8L8,9.41L10.59,12L8,14.59L9.41,16L12,13.41L14.59,16L16,14.59L13.41,12L16,9.41L14.59,8Z" />
    </g>
    <g id="mdi-close-circle-outline" transform="translate(252 324) scale(1.5)" fill="#fff">
      <path d="M12,20C7.59,20 4,16.41 4,12C4,7.59 7.59,4 12,4C16.41,4 20,7.59 20,12C20,16.41 16.41,20 12,20M12,2C6.47,2 2,6.47 2,12C2,17.53 6.47,22 12,22C17.53,22 22,17.53 22,12C22,6.47 17.53,2 12,2M14.59,8L12,10.59L9.41,8L8,9.41L10.59,12L8,14.59L9.41,16L12,13.41L14.59,16L16,14.59L13.41,12L16,9.41L14.59,8Z" />
    </g>
    <g id="mdi-close-network" transform="translate(288 324) scale(1.5)" fill="#555">
      <path d="M14.59,6L12,8.59L9.41,6L8,7.41L10.59,10L8,12.59L9.41,14L12,11.41L14.59,14L16,12.59L13.41,10L16,7.41L14.59,6M17,3A2,2 0 0,1 19,5V15A2,2 0 0,1 17,17H13V19H14A1,1 0 0,1 15,20H22V22H15A1,1 0 0,1 14,23H10A1,1 0 0,1 9,22H2V20H9A1,1 0 0,1 10,19H11V17H7C5.89,17 5,16.1 5,15V5A2,2 0 0,1 7,3H17Z" />
    </g>
    <g id="mdi-close-network" transform="translate(324 324) scale(1.5)" fill="#fff">
      <path d="M14.59,6L12,8.59L9.41,6L8,7.41L10.59,10L8,12.59L9.41,14L12,11.41L14.59,14L16,12.59L13.41,10L16,7.41L14.59,6M17,3A2,2 0 0,1 19,5V15A2,2 0 0,1 17,17H13V19H14A1,1 0 0,1 15,20H22V22H15A1,1 0 0,1 14,23H10A1,1 0 0,1 9,22H2V20H9A1,1 0 0,1 10,19H11V17H7C5.89,17 5,16.1 5,15V5A2,2 0 0,1 7,3H17Z" />
    </g>
    <g id="mdi-close-network-outline" transform="translate(360 324) scale(1.5)" fill="#555">
      <path d="M15,20A1,1 0 0,0 14,19H13V17H17A2,2 0 0,0 19,15V5A2,2 0 0,0 17,3H7A2,2 0 0,0 5,5V15A2,2 0 0,0 7,17H11V19H10A1,1 0 0,0 9,20H2V22H9A1,1 0 0,0 10,23H14A1,1 0 0,0 15,22H22V20H15M7,15V5H17V15H7M15.54,12.12L13.41,10L15.53,7.87L14.12,6.46L12,8.59L9.88,6.46L8.47,7.87L10.59,10L8.47,12.13L9.88,13.54L12,11.41L14.12,13.54L15.54,12.12Z" />
    </g>
    <g id="mdi-close-network-outline" transform="translate(396 324) scale(1.5)" fill="#fff">
      <path d="M15,20A1,1 0 0,0 14,19H13V17H17A2,2 0 0,0 19,15V5A2,2 0 0,0 17,3H7A2,2 0 0,0 5,5V15A2,2 0 0,0 7,17H11V19H10A1,1 0 0,0 9,20H2V22H9A1,1 0 0,0 10,23H14A1,1 0 0,0 15,22H22V20H15M7,15V5H17V15H7M15.54,12.12L13.41,10L15.53,7.87L14.12,6.46L12,8.59L9.88,6.46L8.47,7.87L10.59,10L8.47,12.13L9.88,13.54L12,11.41L14.12,13.54L15.54,12.12Z" />
    </g>
    <g id="mdi-close-octagon" transform="translate(432 324) scale(1.5)" fill="#555">
      <path d="M8.27,3L3,8.27V15.73L8.27,21H15.73L21,15.73V8.27L15.73,3M8.41,7L12,10.59L15.59,7L17,8.41L13.41,12L17,15.59L15.59,17L12,13.41L8.41,17L7,15.59L10.59,12L7,8.41" />
    </g>
    <g id="mdi-close-octagon" transform="translate(468 324) scale(1.5)" fill="#fff">
      <path d="M8.27,3L3,8.27V15.73L8.27,21H15.73L21,15.73V8.27L15.73,3M8.41,7L12,10.59L15.59,7L17,8.41L13.41,12L17,15.59L15.59,17L12,13.41L8.41,17L7,15.59L10.59,12L7,8.41" />
    </g>
    <g id="mdi-close-octagon-outline" transform="translate(504 324) scale(1.5)" fill="#555">
      <path d="M8.27,3L3,8.27V15.73L8.27,21H15.73C17.5,19.24 21,15.73 21,15.73V8.27L15.73,3M9.1,5H14.9L19,9.1V14.9L14.9,19H9.1L5,14.9V9.1M9.12,7.71L7.71,9.12L10.59,12L7.71,14.88L9.12,16.29L12,13.41L14.88,16.29L16.29,14.88L13.41,12L16.29,9.12L14.88,7.71L12,10.59" />
    </g>
    <g id="mdi-close-octagon-outline" transform="translate(540 324) scale(1.5)" fill="#fff">
      <path d="M8.27,3L3,8.27V15.73L8.27,21H15.73C17.5,19.24 21,15.73 21,15.73V8.27L15.73,3M9.1,5H14.9L19,9.1V14.9L14.9,19H9.1L5,14.9V9.1M9.12,7.71L7.71,9.12L10.59,12L7.71,14.88L9.12,16.29L12,13.41L14.88,16.29L16.29,14.88L13.41,12L16.29,9.12L14.88,7.71L12,10.59" />
    </g>
    <g id="mdi-close-outline" transform="translate(576 324) scale(1.5)" fill="#555">
      <path d="M3,16.74L7.76,12L3,7.26L7.26,3L12,7.76L16.74,3L21,7.26L16.24,12L21,16.74L16.74,21L12,16.24L7.26,21L3,16.74M12,13.41L16.74,18.16L18.16,16.74L13.41,12L18.16,7.26L16.74,5.84L12,10.59L7.26,5.84L5.84,7.26L10.59,12L5.84,16.74L7.26,18.16L12,13.41Z" />
    </g>
    <g id="mdi-close-outline" transform="translate(612 324) scale(1.5)" fill="#fff">
      <path d="M3,16.74L7.76,12L3,7.26L7.26,3L12,7.76L16.74,3L21,7.26L16.24,12L21,16.74L16.74,21L12,16.24L7.26,21L3,16.74M12,13.41L16.74,18.16L18.16,16.74L13.41,12L18.16,7.26L16.74,5.84L12,10.59L7.26,5.84L5.84,7.26L10.59,12L5.84,16.74L7.26,18.16L12,13.41Z" />
    </g>
    <g id="mdi-closed-caption" transform="translate(648 324) scale(1.5)" fill="#555">
      <path d="M18,11H16.5V10.5H14.5V13.5H16.5V13H18V14A1,1 0 0,1 17,15H14A1,1 0 0,1 13,14V10A1,1 0 0,1 14,9H17A1,1 0 0,1 18,10M11,11H9.5V10.5H7.5V13.5H9.5V13H11V14A1,1 0 0,1 10,15H7A1,1 0 0,1 6,14V10A1,1 0 0,1 7,9H10A1,1 0 0,1 11,10M19,4H5C3.89,4 3,4.89 3,6V18A2,2 0 0,0 5,20H19A2,2 0 0,0 21,18V6C21,4.89 20.1,4 19,4Z" />
    </g>
    <g id="mdi-closed-caption" transform="translate(684 324) scale(1.5)" fill="#fff">
      <path d="M18,11H16.5V10.5H14.5V13.5H16.5V13H18V14A1,1 0 0,1 17,15H14A1,1 0 0,1 13,14V10A1,1 0 0,1 14,9H17A1,1 0 0,1 18,10M11,11H9.5V10.5H7.5V13.5H9.5V13H11V14A1,1 0 0,1 10,15H7A1,1 0 0,1 6,14V10A1,1 0 0,1 7,9H10A1,1 0 0,1 11,10M19,4H5C3.89,4 3,4.89 3,6V18A2,2 0 0,0 5,20H19A2,2 0 0,0 21,18V6C21,4.89 20.1,4 19,4Z" />
    </g>
  </svg>