<?xml version="1.0" encoding="UTF-8"?>
<!DOCTYPE svg PUBLIC "-//W3C//DTD SVG 1.1//EN" "http://www.w3.org/Graphics/SVG/1.1/DTD/svg11.dtd"><svg
  xmlns="http://www.w3.org/2000/svg" xmlns:xlink="http://www.w3.org/1999/xlink" version="1.1"
  width="720" height="900" viewBox="0 0 720 900">
    <g id="mdi-soccer" transform="translate(0 0) scale(1.5)" fill="#555">
      <path d="M12,2A10,10 0 0,0 2,12A10,10 0 0,0 12,22A10,10 0 0,0 22,12A10,10 0 0,0 12,2M12,3C13.76,3 15.4,3.53 16.78,4.41L16.5,5H13L12,5L10.28,4.16L10.63,3.13C11.08,3.05 11.53,3 12,3M9.53,3.38L9.19,4.41L6.63,5.69L5.38,5.94C6.5,4.73 7.92,3.84 9.53,3.38M13,6H16L18.69,9.59L17.44,12.16L14.81,12.78L11.53,8.94L13,6M6.16,6.66L7,10L5.78,13.06L3.22,13.94C3.08,13.31 3,12.67 3,12C3,10.1 3.59,8.36 4.59,6.91L6.16,6.66M20.56,9.22C20.85,10.09 21,11.03 21,12C21,13.44 20.63,14.79 20.03,16H19L18.16,12.66L19.66,9.66L20.56,9.22M8,10H11L13.81,13.28L12,16L8.84,16.78L6.53,13.69L8,10M12,17L15,19L14.13,20.72C13.44,20.88 12.73,21 12,21C10.25,21 8.63,20.5 7.25,19.63L8.41,17.91L12,17M19,17H19.5C18.5,18.5 17,19.67 15.31,20.34L16,19L19,17Z" />
    </g>
    <g id="mdi-soccer" transform="translate(36 0) scale(1.5)" fill="#fff">
      <path d="M12,2A10,10 0 0,0 2,12A10,10 0 0,0 12,22A10,10 0 0,0 22,12A10,10 0 0,0 12,2M12,3C13.76,3 15.4,3.53 16.78,4.41L16.5,5H13L12,5L10.28,4.16L10.63,3.13C11.08,3.05 11.53,3 12,3M9.53,3.38L9.19,4.41L6.63,5.69L5.38,5.94C6.5,4.73 7.92,3.84 9.53,3.38M13,6H16L18.69,9.59L17.44,12.16L14.81,12.78L11.53,8.94L13,6M6.16,6.66L7,10L5.78,13.06L3.22,13.94C3.08,13.31 3,12.67 3,12C3,10.1 3.59,8.36 4.59,6.91L6.16,6.66M20.56,9.22C20.85,10.09 21,11.03 21,12C21,13.44 20.63,14.79 20.03,16H19L18.16,12.66L19.66,9.66L20.56,9.22M8,10H11L13.81,13.28L12,16L8.84,16.78L6.53,13.69L8,10M12,17L15,19L14.13,20.72C13.44,20.88 12.73,21 12,21C10.25,21 8.63,20.5 7.25,19.63L8.41,17.91L12,17M19,17H19.5C18.5,18.5 17,19.67 15.31,20.34L16,19L19,17Z" />
    </g>
    <g id="mdi-soccer-field" transform="translate(72 0) scale(1.5)" fill="#555">
      <path d="M4,4C2.89,4 2,4.89 2,6V18A2,2 0 0,0 4,20H20A2,2 0 0,0 22,18V6C22,4.89 21.1,4 20,4H4M4,6H11V8.13C9.24,8.59 8,10.18 8,12C8,13.82 9.24,15.41 11,15.87V18H4V16H7V8H4V6M13,6H20V8H17V16H20V18H13V15.87C14.76,15.41 16,13.82 16,12C16,10.18 14.76,8.59 13,8.13V6M4,10H5V14H4V10M19,10H20V14H19V10M13,10.27C13.62,10.63 14,11.29 14,12C14,12.71 13.62,13.37 13,13.73V10.27M11,10.27V13.73C10.38,13.37 10,12.71 10,12C10,11.29 10.38,10.63 11,10.27Z" />
    </g>
    <g id="mdi-soccer-field" transform="translate(108 0) scale(1.5)" fill="#fff">
      <path d="M4,4C2.89,4 2,4.89 2,6V18A2,2 0 0,0 4,20H20A2,2 0 0,0 22,18V6C22,4.89 21.1,4 20,4H4M4,6H11V8.13C9.24,8.59 8,10.18 8,12C8,13.82 9.24,15.41 11,15.87V18H4V16H7V8H4V6M13,6H20V8H17V16H20V18H13V15.87C14.76,15.41 16,13.82 16,12C16,10.18 14.76,8.59 13,8.13V6M4,10H5V14H4V10M19,10H20V14H19V10M13,10.27C13.62,10.63 14,11.29 14,12C14,12.71 13.62,13.37 13,13.73V10.27M11,10.27V13.73C10.38,13.37 10,12.71 10,12C10,11.29 10.38,10.63 11,10.27Z" />
    </g>
    <g id="mdi-social-distance-2-meters" transform="translate(144 0) scale(1.5)" fill="#555">
      <path d="M6 6C7.1 6 8 5.1 8 4S7.1 2 6 2 4 2.9 4 4 4.9 6 6 6M10 9.43C10 8.62 9.5 7.9 8.78 7.58C7.93 7.21 7 7 6 7S4.07 7.21 3.22 7.58C2.5 7.9 2 8.62 2 9.43V10H10V9.43M18 6C19.1 6 20 5.1 20 4S19.1 2 18 2 16 2.9 16 4 16.9 6 18 6M22 9.43C22 8.62 21.5 7.9 20.78 7.58C19.93 7.21 19 7 18 7S16.07 7.21 15.22 7.58C14.5 7.9 14 8.62 14 9.43V10H22V9.43M19 17V15L5 15V17L2 14L5 11V13L19 13V11L22 14L19 17M9 20.5V21H11V22H8V20.5C8 19.95 8.45 19.5 9 19.5H10V19H8V18H10C10.55 18 11 18.45 11 19V19.5C11 20.05 10.55 20.5 10 20.5H9M16 19V22H15V19H14.5V21H13.5V19H13V22H12V19C12 18.45 12.45 18 13 18H15C15.55 18 16 18.45 16 19Z" />
    </g>
    <g id="mdi-social-distance-2-meters" transform="translate(180 0) scale(1.5)" fill="#fff">
      <path d="M6 6C7.1 6 8 5.1 8 4S7.1 2 6 2 4 2.9 4 4 4.9 6 6 6M10 9.43C10 8.62 9.5 7.9 8.78 7.58C7.93 7.21 7 7 6 7S4.07 7.21 3.22 7.58C2.5 7.9 2 8.62 2 9.43V10H10V9.43M18 6C19.1 6 20 5.1 20 4S19.1 2 18 2 16 2.9 16 4 16.9 6 18 6M22 9.43C22 8.62 21.5 7.9 20.78 7.58C19.93 7.21 19 7 18 7S16.07 7.21 15.22 7.58C14.5 7.9 14 8.62 14 9.43V10H22V9.43M19 17V15L5 15V17L2 14L5 11V13L19 13V11L22 14L19 17M9 20.5V21H11V22H8V20.5C8 19.95 8.45 19.5 9 19.5H10V19H8V18H10C10.55 18 11 18.45 11 19V19.5C11 20.05 10.55 20.5 10 20.5H9M16 19V22H15V19H14.5V21H13.5V19H13V22H12V19C12 18.45 12.45 18 13 18H15C15.55 18 16 18.45 16 19Z" />
    </g>
    <g id="mdi-social-distance-6-feet" transform="translate(216 0) scale(1.5)" fill="#555">
      <path d="M6 6C7.1 6 8 5.1 8 4S7.1 2 6 2 4 2.9 4 4 4.9 6 6 6M10 9.43C10 8.62 9.5 7.9 8.78 7.58C7.93 7.21 7 7 6 7S4.07 7.21 3.22 7.58C2.5 7.9 2 8.62 2 9.43V10H10V9.43M18 6C19.1 6 20 5.1 20 4S19.1 2 18 2 16 2.9 16 4 16.9 6 18 6M22 9.43C22 8.62 21.5 7.9 20.78 7.58C19.93 7.21 19 7 18 7S16.07 7.21 15.22 7.58C14.5 7.9 14 8.62 14 9.43V10H22V9.43M19 17V15H5V17L2 14L5 11V13H19V11L22 14L19 17M10 19V18H7.5C7.22 18 7 18.22 7 18.5V21.5C7 21.78 7.22 22 7.5 22H9.5C9.78 22 10 21.78 10 21.5V20C10 19.72 9.78 19.5 9.5 19.5H8V19H10M9 20.5V21H8V20.5H9M17.5 19H16.5V22H15.5V19H14.5V18H17.5V19M12.5 19V19.5H13.5V20.5H12.5V22H11.5V18H14V19H12.5Z" />
    </g>
    <g id="mdi-social-distance-6-feet" transform="translate(252 0) scale(1.5)" fill="#fff">
      <path d="M6 6C7.1 6 8 5.1 8 4S7.1 2 6 2 4 2.9 4 4 4.9 6 6 6M10 9.43C10 8.62 9.5 7.9 8.78 7.58C7.93 7.21 7 7 6 7S4.07 7.21 3.22 7.58C2.5 7.9 2 8.62 2 9.43V10H10V9.43M18 6C19.1 6 20 5.1 20 4S19.1 2 18 2 16 2.9 16 4 16.9 6 18 6M22 9.43C22 8.62 21.5 7.9 20.78 7.58C19.93 7.21 19 7 18 7S16.07 7.21 15.22 7.58C14.5 7.9 14 8.62 14 9.43V10H22V9.43M19 17V15H5V17L2 14L5 11V13H19V11L22 14L19 17M10 19V18H7.5C7.22 18 7 18.22 7 18.5V21.5C7 21.78 7.22 22 7.5 22H9.5C9.78 22 10 21.78 10 21.5V20C10 19.72 9.78 19.5 9.5 19.5H8V19H10M9 20.5V21H8V20.5H9M17.5 19H16.5V22H15.5V19H14.5V18H17.5V19M12.5 19V19.5H13.5V20.5H12.5V22H11.5V18H14V19H12.5Z" />
    </g>
    <g id="mdi-sofa" transform="translate(288 0) scale(1.5)" fill="#555">
      <path d="M12.5 7C12.5 5.89 13.39 5 14.5 5H18C19.1 5 20 5.9 20 7V9.16C18.84 9.57 18 10.67 18 11.97V14H12.5V7M6 11.96V14H11.5V7C11.5 5.89 10.61 5 9.5 5H6C4.9 5 4 5.9 4 7V9.15C5.16 9.56 6 10.67 6 11.96M20.66 10.03C19.68 10.19 19 11.12 19 12.12V15H5V12C5 10.9 4.11 10 3 10S1 10.9 1 12V17C1 18.1 1.9 19 3 19V21H5V19H19V21H21V19C22.1 19 23 18.1 23 17V12C23 10.79 21.91 9.82 20.66 10.03Z" />
    </g>
    <g id="mdi-sofa" transform="translate(324 0) scale(1.5)" fill="#fff">
      <path d="M12.5 7C12.5 5.89 13.39 5 14.5 5H18C19.1 5 20 5.9 20 7V9.16C18.84 9.57 18 10.67 18 11.97V14H12.5V7M6 11.96V14H11.5V7C11.5 5.89 10.61 5 9.5 5H6C4.9 5 4 5.9 4 7V9.15C5.16 9.56 6 10.67 6 11.96M20.66 10.03C19.68 10.19 19 11.12 19 12.12V15H5V12C5 10.9 4.11 10 3 10S1 10.9 1 12V17C1 18.1 1.9 19 3 19V21H5V19H19V21H21V19C22.1 19 23 18.1 23 17V12C23 10.79 21.91 9.82 20.66 10.03Z" />
    </g>
    <g id="mdi-sofa-outline" transform="translate(360 0) scale(1.5)" fill="#555">
      <path d="M21 9V7C21 5.35 19.65 4 18 4H14C13.23 4 12.53 4.3 12 4.78C11.47 4.3 10.77 4 10 4H6C4.35 4 3 5.35 3 7V9C1.35 9 0 10.35 0 12V17C0 18.65 1.35 20 3 20V22H5V20H19V22H21V20C22.65 20 24 18.65 24 17V12C24 10.35 22.65 9 21 9M14 6H18C18.55 6 19 6.45 19 7V9.78C18.39 10.33 18 11.12 18 12V14H13V7C13 6.45 13.45 6 14 6M5 7C5 6.45 5.45 6 6 6H10C10.55 6 11 6.45 11 7V14H6V12C6 11.12 5.61 10.33 5 9.78V7M22 17C22 17.55 21.55 18 21 18H3C2.45 18 2 17.55 2 17V12C2 11.45 2.45 11 3 11S4 11.45 4 12V16H20V12C20 11.45 20.45 11 21 11S22 11.45 22 12V17Z" />
    </g>
    <g id="mdi-sofa-outline" transform="translate(396 0) scale(1.5)" fill="#fff">
      <path d="M21 9V7C21 5.35 19.65 4 18 4H14C13.23 4 12.53 4.3 12 4.78C11.47 4.3 10.77 4 10 4H6C4.35 4 3 5.35 3 7V9C1.35 9 0 10.35 0 12V17C0 18.65 1.35 20 3 20V22H5V20H19V22H21V20C22.65 20 24 18.65 24 17V12C24 10.35 22.65 9 21 9M14 6H18C18.55 6 19 6.45 19 7V9.78C18.39 10.33 18 11.12 18 12V14H13V7C13 6.45 13.45 6 14 6M5 7C5 6.45 5.45 6 6 6H10C10.55 6 11 6.45 11 7V14H6V12C6 11.12 5.61 10.33 5 9.78V7M22 17C22 17.55 21.55 18 21 18H3C2.45 18 2 17.55 2 17V12C2 11.45 2.45 11 3 11S4 11.45 4 12V16H20V12C20 11.45 20.45 11 21 11S22 11.45 22 12V17Z" />
    </g>
    <g id="mdi-sofa-single" transform="translate(432 0) scale(1.5)" fill="#555">
      <path d="M5 9.15V7C5 5.9 5.9 5 7 5H17C18.1 5 19 5.9 19 7V9.16C17.84 9.57 17 10.67 17 11.97V14H7V11.96C7 10.67 6.16 9.56 5 9.15M20 10C18.9 10 18 10.9 18 12V15H6V12C6 10.9 5.11 10 4 10S2 10.9 2 12V17C2 18.1 2.9 19 4 19V21H6V19H18V21H20V19C21.1 19 22 18.1 22 17V12C22 10.9 21.1 10 20 10Z" />
    </g>
    <g id="mdi-sofa-single" transform="translate(468 0) scale(1.5)" fill="#fff">
      <path d="M5 9.15V7C5 5.9 5.9 5 7 5H17C18.1 5 19 5.9 19 7V9.16C17.84 9.57 17 10.67 17 11.97V14H7V11.96C7 10.67 6.16 9.56 5 9.15M20 10C18.9 10 18 10.9 18 12V15H6V12C6 10.9 5.11 10 4 10S2 10.9 2 12V17C2 18.1 2.9 19 4 19V21H6V19H18V21H20V19C21.1 19 22 18.1 22 17V12C22 10.9 21.1 10 20 10Z" />
    </g>
    <g id="mdi-sofa-single-outline" transform="translate(504 0) scale(1.5)" fill="#555">
      <path d="M19 9V7C19 5.35 17.65 4 16 4H8C6.35 4 5 5.35 5 7V9C3.35 9 2 10.35 2 12V17C2 18.65 3.35 20 5 20V22H7V20H17V22H19V20C20.65 20 22 18.65 22 17V12C22 10.35 20.65 9 19 9M7 7C7 6.45 7.45 6 8 6H16C16.55 6 17 6.45 17 7V9.78C16.39 10.33 16 11.12 16 12V14H8V12C8 11.12 7.61 10.33 7 9.78V7M20 17C20 17.55 19.55 18 19 18H5C4.45 18 4 17.55 4 17V12C4 11.45 4.45 11 5 11S6 11.45 6 12V16H18V12C18 11.45 18.45 11 19 11S20 11.45 20 12V17Z" />
    </g>
    <g id="mdi-sofa-single-outline" transform="translate(540 0) scale(1.5)" fill="#fff">
      <path d="M19 9V7C19 5.35 17.65 4 16 4H8C6.35 4 5 5.35 5 7V9C3.35 9 2 10.35 2 12V17C2 18.65 3.35 20 5 20V22H7V20H17V22H19V20C20.65 20 22 18.65 22 17V12C22 10.35 20.65 9 19 9M7 7C7 6.45 7.45 6 8 6H16C16.55 6 17 6.45 17 7V9.78C16.39 10.33 16 11.12 16 12V14H8V12C8 11.12 7.61 10.33 7 9.78V7M20 17C20 17.55 19.55 18 19 18H5C4.45 18 4 17.55 4 17V12C4 11.45 4.45 11 5 11S6 11.45 6 12V16H18V12C18 11.45 18.45 11 19 11S20 11.45 20 12V17Z" />
    </g>
    <g id="mdi-solar-panel" transform="translate(576 0) scale(1.5)" fill="#555">
      <path d="M4,2H20A2,2 0 0,1 22,4V14A2,2 0 0,1 20,16H15V20H18V22H13V16H11V22H6V20H9V16H4A2,2 0 0,1 2,14V4A2,2 0 0,1 4,2M4,4V8H11V4H4M4,14H11V10H4V14M20,14V10H13V14H20M20,4H13V8H20V4Z" />
    </g>
    <g id="mdi-solar-panel" transform="translate(612 0) scale(1.5)" fill="#fff">
      <path d="M4,2H20A2,2 0 0,1 22,4V14A2,2 0 0,1 20,16H15V20H18V22H13V16H11V22H6V20H9V16H4A2,2 0 0,1 2,14V4A2,2 0 0,1 4,2M4,4V8H11V4H4M4,14H11V10H4V14M20,14V10H13V14H20M20,4H13V8H20V4Z" />
    </g>
    <g id="mdi-solar-panel-large" transform="translate(648 0) scale(1.5)" fill="#555">
      <path d="M3,6H6V3H3V6M8,3V6H11V3H8M13,3V6H16V3H13M18,3V6H21V3H18M21,8H18V11H21V8M21,13H18V16H21V13M16,16V13H13V16H16M11,16V13H8V16H11M6,16V13H3V16H6M3,11H6V8H3V11M13,8V11H16V8H13M8,8V11H11V8H8M3,1H21A2,2 0 0,1 23,3V16A2,2 0 0,1 21,18H15V21H18V23H13V18H11V23H6V21H9V18H3A2,2 0 0,1 1,16V3A2,2 0 0,1 3,1Z" />
    </g>
    <g id="mdi-solar-panel-large" transform="translate(684 0) scale(1.5)" fill="#fff">
      <path d="M3,6H6V3H3V6M8,3V6H11V3H8M13,3V6H16V3H13M18,3V6H21V3H18M21,8H18V11H21V8M21,13H18V16H21V13M16,16V13H13V16H16M11,16V13H8V16H11M6,16V13H3V16H6M3,11H6V8H3V11M13,8V11H16V8H13M8,8V11H11V8H8M3,1H21A2,2 0 0,1 23,3V16A2,2 0 0,1 21,18H15V21H18V23H13V18H11V23H6V21H9V18H3A2,2 0 0,1 1,16V3A2,2 0 0,1 3,1Z" />
    </g>
    <g id="mdi-solar-power" transform="translate(0 36) scale(1.5)" fill="#555">
      <path d="M11.45,2V5.55L15,3.77L11.45,2M10.45,8L8,10.46L11.75,11.71L10.45,8M2,11.45L3.77,15L5.55,11.45H2M10,2H2V10C2.57,10.17 3.17,10.25 3.77,10.25C7.35,10.26 10.26,7.35 10.27,3.75C10.26,3.16 10.17,2.57 10,2M17,22V16H14L19,7V13H22L17,22Z" />
    </g>
    <g id="mdi-solar-power" transform="translate(36 36) scale(1.5)" fill="#fff">
      <path d="M11.45,2V5.55L15,3.77L11.45,2M10.45,8L8,10.46L11.75,11.71L10.45,8M2,11.45L3.77,15L5.55,11.45H2M10,2H2V10C2.57,10.17 3.17,10.25 3.77,10.25C7.35,10.26 10.26,7.35 10.27,3.75C10.26,3.16 10.17,2.57 10,2M17,22V16H14L19,7V13H22L17,22Z" />
    </g>
    <g id="mdi-soldering-iron" transform="translate(72 36) scale(1.5)" fill="#555">
      <path d="M4.86 4.03L2.03 6.86L5.21 10.04V12.87L6.63 14.28L12.28 8.63L10.87 7.21H8.04L4.86 4.03M17 6V7.5C18 7.5 18.85 8.33 18.85 9.35C18.85 10.37 18 11.2 17 11.2V12.7C19.24 12.7 21 14.53 21 16.77V21H22.5V16.76C22.5 14.54 21.22 12.62 19.35 11.73C19.97 11.12 20.35 10.28 20.35 9.35C20.35 7.5 18.85 6 17 6M11.93 11.1L9.1 13.93L14.05 18.88L14.76 18.17L16.88 20.29L19 21L18.29 18.88L16.17 16.76L16.88 16.05L11.93 11.1Z" />
    </g>
    <g id="mdi-soldering-iron" transform="translate(108 36) scale(1.5)" fill="#fff">
      <path d="M4.86 4.03L2.03 6.86L5.21 10.04V12.87L6.63 14.28L12.28 8.63L10.87 7.21H8.04L4.86 4.03M17 6V7.5C18 7.5 18.85 8.33 18.85 9.35C18.85 10.37 18 11.2 17 11.2V12.7C19.24 12.7 21 14.53 21 16.77V21H22.5V16.76C22.5 14.54 21.22 12.62 19.35 11.73C19.97 11.12 20.35 10.28 20.35 9.35C20.35 7.5 18.85 6 17 6M11.93 11.1L9.1 13.93L14.05 18.88L14.76 18.17L16.88 20.29L19 21L18.29 18.88L16.17 16.76L16.88 16.05L11.93 11.1Z" />
    </g>
    <g id="mdi-solid" transform="translate(144 36) scale(1.5)" fill="#555">
      <path d="M0,0H24V24H0" />
    </g>
    <g id="mdi-solid" transform="translate(180 36) scale(1.5)" fill="#fff">
      <path d="M0,0H24V24H0" />
    </g>
    <g id="mdi-sony-playstation" transform="translate(216 36) scale(1.5)" fill="#555">
      <path d="M9.5,4.27C10.88,4.53 12.9,5.14 14,5.5C16.75,6.45 17.69,7.63 17.69,10.29C17.69,12.89 16.09,13.87 14.05,12.89V8.05C14.05,7.5 13.95,6.97 13.41,6.82C13,6.69 12.76,7.07 12.76,7.63V19.73L9.5,18.69V4.27M13.37,17.62L18.62,15.75C19.22,15.54 19.31,15.24 18.83,15.08C18.34,14.92 17.47,14.97 16.87,15.18L13.37,16.41V14.45L13.58,14.38C13.58,14.38 14.59,14 16,13.87C17.43,13.71 19.17,13.89 20.53,14.4C22.07,14.89 22.25,15.61 21.86,16.1C21.46,16.6 20.5,16.95 20.5,16.95L13.37,19.5V17.62M3.5,17.42C1.93,17 1.66,16.05 2.38,15.5C3.05,15 4.18,14.65 4.18,14.65L8.86,13V14.88L5.5,16.09C4.9,16.3 4.81,16.6 5.29,16.76C5.77,16.92 6.65,16.88 7.24,16.66L8.86,16.08V17.77L8.54,17.83C6.92,18.09 5.2,18 3.5,17.42Z" />
    </g>
    <g id="mdi-sony-playstation" transform="translate(252 36) scale(1.5)" fill="#fff">
      <path d="M9.5,4.27C10.88,4.53 12.9,5.14 14,5.5C16.75,6.45 17.69,7.63 17.69,10.29C17.69,12.89 16.09,13.87 14.05,12.89V8.05C14.05,7.5 13.95,6.97 13.41,6.82C13,6.69 12.76,7.07 12.76,7.63V19.73L9.5,18.69V4.27M13.37,17.62L18.62,15.75C19.22,15.54 19.31,15.24 18.83,15.08C18.34,14.92 17.47,14.97 16.87,15.18L13.37,16.41V14.45L13.58,14.38C13.58,14.38 14.59,14 16,13.87C17.43,13.71 19.17,13.89 20.53,14.4C22.07,14.89 22.25,15.61 21.86,16.1C21.46,16.6 20.5,16.95 20.5,16.95L13.37,19.5V17.62M3.5,17.42C1.93,17 1.66,16.05 2.38,15.5C3.05,15 4.18,14.65 4.18,14.65L8.86,13V14.88L5.5,16.09C4.9,16.3 4.81,16.6 5.29,16.76C5.77,16.92 6.65,16.88 7.24,16.66L8.86,16.08V17.77L8.54,17.83C6.92,18.09 5.2,18 3.5,17.42Z" />
    </g>
    <g id="mdi-sort" transform="translate(288 36) scale(1.5)" fill="#555">
      <path d="M18 21L14 17H17V7H14L18 3L22 7H19V17H22M2 19V17H12V19M2 13V11H9V13M2 7V5H6V7H2Z" />
    </g>
    <g id="mdi-sort" transform="translate(324 36) scale(1.5)" fill="#fff">
      <path d="M18 21L14 17H17V7H14L18 3L22 7H19V17H22M2 19V17H12V19M2 13V11H9V13M2 7V5H6V7H2Z" />
    </g>
    <g id="mdi-sort-alphabetical-ascending" transform="translate(360 36) scale(1.5)" fill="#555">
      <path d="M19 17H22L18 21L14 17H17V3H19M11 13V15L7.67 19H11V21H5V19L8.33 15H5V13M9 3H7C5.9 3 5 3.9 5 5V11H7V9H9V11H11V5C11 3.9 10.11 3 9 3M9 7H7V5H9Z" />
    </g>
    <g id="mdi-sort-alphabetical-ascending" transform="translate(396 36) scale(1.5)" fill="#fff">
      <path d="M19 17H22L18 21L14 17H17V3H19M11 13V15L7.67 19H11V21H5V19L8.33 15H5V13M9 3H7C5.9 3 5 3.9 5 5V11H7V9H9V11H11V5C11 3.9 10.11 3 9 3M9 7H7V5H9Z" />
    </g>
    <g id="mdi-sort-alphabetical-ascending-variant" transform="translate(432 36) scale(1.5)" fill="#555">
      <path d="M9.25 5L12.5 1.75L15.75 5H9.25M8.89 14.3H6L5.28 17H2.91L6 7H9L12.13 17H9.67L8.89 14.3M6.33 12.68H8.56L7.93 10.56L7.67 9.59L7.42 8.63H7.39L7.17 9.6L6.93 10.58L6.33 12.68M13.05 17V15.74L17.8 8.97V8.91H13.5V7H20.73V8.34L16.09 15V15.08H20.8V17H13.05Z" />
    </g>
    <g id="mdi-sort-alphabetical-ascending-variant" transform="translate(468 36) scale(1.5)" fill="#fff">
      <path d="M9.25 5L12.5 1.75L15.75 5H9.25M8.89 14.3H6L5.28 17H2.91L6 7H9L12.13 17H9.67L8.89 14.3M6.33 12.68H8.56L7.93 10.56L7.67 9.59L7.42 8.63H7.39L7.17 9.6L6.93 10.58L6.33 12.68M13.05 17V15.74L17.8 8.97V8.91H13.5V7H20.73V8.34L16.09 15V15.08H20.8V17H13.05Z" />
    </g>
    <g id="mdi-sort-alphabetical-descending" transform="translate(504 36) scale(1.5)" fill="#555">
      <path d="M19 7H22L18 3L14 7H17V21H19M11 13V15L7.67 19H11V21H5V19L8.33 15H5V13M9 3H7C5.9 3 5 3.9 5 5V11H7V9H9V11H11V5C11 3.9 10.11 3 9 3M9 7H7V5H9Z" />
    </g>
    <g id="mdi-sort-alphabetical-descending" transform="translate(540 36) scale(1.5)" fill="#fff">
      <path d="M19 7H22L18 3L14 7H17V21H19M11 13V15L7.67 19H11V21H5V19L8.33 15H5V13M9 3H7C5.9 3 5 3.9 5 5V11H7V9H9V11H11V5C11 3.9 10.11 3 9 3M9 7H7V5H9Z" />
    </g>
    <g id="mdi-sort-alphabetical-descending-variant" transform="translate(576 36) scale(1.5)" fill="#555">
      <path d="M15.75 19L12.5 22.25L9.25 19H15.75M8.89 14.3H6L5.28 17H2.91L6 7H9L12.13 17H9.67L8.89 14.3M6.33 12.68H8.56L7.93 10.56L7.67 9.59L7.42 8.63H7.39L7.17 9.6L6.93 10.58L6.33 12.68M13.05 17V15.74L17.8 8.97V8.91H13.5V7H20.73V8.34L16.09 15V15.08H20.8V17H13.05Z" />
    </g>
    <g id="mdi-sort-alphabetical-descending-variant" transform="translate(612 36) scale(1.5)" fill="#fff">
      <path d="M15.75 19L12.5 22.25L9.25 19H15.75M8.89 14.3H6L5.28 17H2.91L6 7H9L12.13 17H9.67L8.89 14.3M6.33 12.68H8.56L7.93 10.56L7.67 9.59L7.42 8.63H7.39L7.17 9.6L6.93 10.58L6.33 12.68M13.05 17V15.74L17.8 8.97V8.91H13.5V7H20.73V8.34L16.09 15V15.08H20.8V17H13.05Z" />
    </g>
    <g id="mdi-sort-alphabetical-variant" transform="translate(648 36) scale(1.5)" fill="#555">
      <path d="M9.25,5L12.5,1.75L15.75,5H9.25M15.75,19L12.5,22.25L9.25,19H15.75M8.89,14.3H6L5.28,17H2.91L6,7H9L12.13,17H9.67L8.89,14.3M6.33,12.68H8.56L7.93,10.56L7.67,9.59L7.42,8.63H7.39L7.17,9.6L6.93,10.58L6.33,12.68M13.05,17V15.74L17.8,8.97V8.91H13.5V7H20.73V8.34L16.09,15V15.08H20.8V17H13.05Z" />
    </g>
    <g id="mdi-sort-alphabetical-variant" transform="translate(684 36) scale(1.5)" fill="#fff">
      <path d="M9.25,5L12.5,1.75L15.75,5H9.25M15.75,19L12.5,22.25L9.25,19H15.75M8.89,14.3H6L5.28,17H2.91L6,7H9L12.13,17H9.67L8.89,14.3M6.33,12.68H8.56L7.93,10.56L7.67,9.59L7.42,8.63H7.39L7.17,9.6L6.93,10.58L6.33,12.68M13.05,17V15.74L17.8,8.97V8.91H13.5V7H20.73V8.34L16.09,15V15.08H20.8V17H13.05Z" />
    </g>
    <g id="mdi-sort-ascending" transform="translate(0 72) scale(1.5)" fill="#555">
      <path d="M19 17H22L18 21L14 17H17V3H19M2 17H12V19H2M6 5V7H2V5M2 11H9V13H2V11Z" />
    </g>
    <g id="mdi-sort-ascending" transform="translate(36 72) scale(1.5)" fill="#fff">
      <path d="M19 17H22L18 21L14 17H17V3H19M2 17H12V19H2M6 5V7H2V5M2 11H9V13H2V11Z" />
    </g>
    <g id="mdi-sort-bool-ascending" transform="translate(72 72) scale(1.5)" fill="#555">
      <path d="M19 17H22L18 21L14 17H17V3H19V17M7 3C4.79 3 3 4.79 3 7S4.79 11 7 11 11 9.21 11 7 9.21 3 7 3M7 9C5.9 9 5 8.1 5 7S5.9 5 7 5 9 5.9 9 7 8.1 9 7 9M7 13C4.79 13 3 14.79 3 17S4.79 21 7 21 11 19.21 11 17 9.21 13 7 13Z" />
    </g>
    <g id="mdi-sort-bool-ascending" transform="translate(108 72) scale(1.5)" fill="#fff">
      <path d="M19 17H22L18 21L14 17H17V3H19V17M7 3C4.79 3 3 4.79 3 7S4.79 11 7 11 11 9.21 11 7 9.21 3 7 3M7 9C5.9 9 5 8.1 5 7S5.9 5 7 5 9 5.9 9 7 8.1 9 7 9M7 13C4.79 13 3 14.79 3 17S4.79 21 7 21 11 19.21 11 17 9.21 13 7 13Z" />
    </g>
    <g id="mdi-sort-bool-ascending-variant" transform="translate(144 72) scale(1.5)" fill="#555">
      <path d="M19 17H22L18 21L14 17H17V3H19V17M9 13H5C3.89 13 3 13.89 3 15V19C3 20.11 3.89 21 5 21H9C10.11 21 11 20.11 11 19V15C11 13.89 10.11 13 9 13M6.27 19.5L3.74 16.95L4.81 15.9L6.28 17.39L9.2 14.5L10.26 15.55L6.27 19.5M9 3H5C3.89 3 3 3.89 3 5V9C3 10.11 3.89 11 5 11H9C10.11 11 11 10.11 11 9V5C11 3.89 10.11 3 9 3M9 9H5V5H9V9Z" />
    </g>
    <g id="mdi-sort-bool-ascending-variant" transform="translate(180 72) scale(1.5)" fill="#fff">
      <path d="M19 17H22L18 21L14 17H17V3H19V17M9 13H5C3.89 13 3 13.89 3 15V19C3 20.11 3.89 21 5 21H9C10.11 21 11 20.11 11 19V15C11 13.89 10.11 13 9 13M6.27 19.5L3.74 16.95L4.81 15.9L6.28 17.39L9.2 14.5L10.26 15.55L6.27 19.5M9 3H5C3.89 3 3 3.89 3 5V9C3 10.11 3.89 11 5 11H9C10.11 11 11 10.11 11 9V5C11 3.89 10.11 3 9 3M9 9H5V5H9V9Z" />
    </g>
    <g id="mdi-sort-bool-descending" transform="translate(216 72) scale(1.5)" fill="#555">
      <path d="M19 7H22L18 3L14 7H17V21H19M5 7C5 8.1 5.9 9 7 9C8.1 9 9 8.1 9 7C9 5.9 8.1 5 7 5C5.9 5 5 5.9 5 7M7 3C9.21 3 11 4.79 11 7C11 9.21 9.21 11 7 11C4.79 11 3 9.21 3 7C3 4.79 4.79 3 7 3M7 13C4.79 13 3 14.79 3 17C3 19.21 4.79 21 7 21C9.21 21 11 19.21 11 17C11 14.79 9.21 13 7 13Z" />
    </g>
    <g id="mdi-sort-bool-descending" transform="translate(252 72) scale(1.5)" fill="#fff">
      <path d="M19 7H22L18 3L14 7H17V21H19M5 7C5 8.1 5.9 9 7 9C8.1 9 9 8.1 9 7C9 5.9 8.1 5 7 5C5.9 5 5 5.9 5 7M7 3C9.21 3 11 4.79 11 7C11 9.21 9.21 11 7 11C4.79 11 3 9.21 3 7C3 4.79 4.79 3 7 3M7 13C4.79 13 3 14.79 3 17C3 19.21 4.79 21 7 21C9.21 21 11 19.21 11 17C11 14.79 9.21 13 7 13Z" />
    </g>
    <g id="mdi-sort-bool-descending-variant" transform="translate(288 72) scale(1.5)" fill="#555">
      <path d="M19 7H22L18 3L14 7H17V21H19M5 13C3.89 13 3 13.89 3 15V19C3 20.11 3.89 21 5 21H9C10.11 21 11 20.11 11 19V15C11 13.89 10.11 13 9 13M9.2 14.5L10.26 15.55L6.27 19.5L3.74 16.95L4.81 15.9L6.28 17.39M5 3C3.89 3 3 3.89 3 5V9C3 10.11 3.89 11 5 11H9C10.11 11 11 10.11 11 9V5C11 3.89 10.11 3 9 3M5 5H9V9H5Z" />
    </g>
    <g id="mdi-sort-bool-descending-variant" transform="translate(324 72) scale(1.5)" fill="#fff">
      <path d="M19 7H22L18 3L14 7H17V21H19M5 13C3.89 13 3 13.89 3 15V19C3 20.11 3.89 21 5 21H9C10.11 21 11 20.11 11 19V15C11 13.89 10.11 13 9 13M9.2 14.5L10.26 15.55L6.27 19.5L3.74 16.95L4.81 15.9L6.28 17.39M5 3C3.89 3 3 3.89 3 5V9C3 10.11 3.89 11 5 11H9C10.11 11 11 10.11 11 9V5C11 3.89 10.11 3 9 3M5 5H9V9H5Z" />
    </g>
    <g id="mdi-sort-calendar-ascending" transform="translate(360 72) scale(1.5)" fill="#555">
      <path d="M21 17H24L20 21L16 17H19V3H21V17M8 16H11V13H8V16M13 5H12V3H10V5H6V3H4V5H3C1.89 5 1 5.89 1 7V18C1 19.11 1.89 20 3 20H13C14.11 20 15 19.11 15 18V7C15 5.89 14.11 5 13 5M3 18L3 11H13L13 18L3 18Z" />
    </g>
    <g id="mdi-sort-calendar-ascending" transform="translate(396 72) scale(1.5)" fill="#fff">
      <path d="M21 17H24L20 21L16 17H19V3H21V17M8 16H11V13H8V16M13 5H12V3H10V5H6V3H4V5H3C1.89 5 1 5.89 1 7V18C1 19.11 1.89 20 3 20H13C14.11 20 15 19.11 15 18V7C15 5.89 14.11 5 13 5M3 18L3 11H13L13 18L3 18Z" />
    </g>
    <g id="mdi-sort-calendar-descending" transform="translate(432 72) scale(1.5)" fill="#555">
      <path d="M19 7H16L20 3L24 7H21V21H19V7M8 16H11V13H8V16M13 5H12V3H10V5H6V3H4V5H3C1.89 5 1 5.89 1 7V18C1 19.11 1.89 20 3 20H13C14.11 20 15 19.11 15 18V7C15 5.89 14.11 5 13 5M3 18L3 11H13L13 18L3 18Z" />
    </g>
    <g id="mdi-sort-calendar-descending" transform="translate(468 72) scale(1.5)" fill="#fff">
      <path d="M19 7H16L20 3L24 7H21V21H19V7M8 16H11V13H8V16M13 5H12V3H10V5H6V3H4V5H3C1.89 5 1 5.89 1 7V18C1 19.11 1.89 20 3 20H13C14.11 20 15 19.11 15 18V7C15 5.89 14.11 5 13 5M3 18L3 11H13L13 18L3 18Z" />
    </g>
    <g id="mdi-sort-clock-ascending" transform="translate(504 72) scale(1.5)" fill="#555">
      <path d="M20 17H23L19 21L15 17H18V3H20V17M8 5C4.14 5 1 8.13 1 12C1 15.87 4.13 19 8 19C11.86 19 15 15.87 15 12C15 8.13 11.87 5 8 5M10.19 14.53L7 12.69V9H8.5V11.82L10.94 13.23L10.19 14.53Z" />
    </g>
    <g id="mdi-sort-clock-ascending" transform="translate(540 72) scale(1.5)" fill="#fff">
      <path d="M20 17H23L19 21L15 17H18V3H20V17M8 5C4.14 5 1 8.13 1 12C1 15.87 4.13 19 8 19C11.86 19 15 15.87 15 12C15 8.13 11.87 5 8 5M10.19 14.53L7 12.69V9H8.5V11.82L10.94 13.23L10.19 14.53Z" />
    </g>
    <g id="mdi-sort-clock-ascending-outline" transform="translate(576 72) scale(1.5)" fill="#555">
      <path d="M20 17H23L19 21L15 17H18V3H20V17M8 5C4.14 5 1 8.13 1 12C1 15.87 4.13 19 8 19C11.86 19 15 15.87 15 12C15 8.13 11.87 5 8 5M8 7.15C10.67 7.15 12.85 9.32 12.85 12C12.85 14.68 10.68 16.85 8 16.85C5.32 16.85 3.15 14.68 3.15 12C3.15 9.32 5.32 7.15 8 7.15M7 9V12.69L10.19 14.53L10.94 13.23L8.5 11.82V9" />
    </g>
    <g id="mdi-sort-clock-ascending-outline" transform="translate(612 72) scale(1.5)" fill="#fff">
      <path d="M20 17H23L19 21L15 17H18V3H20V17M8 5C4.14 5 1 8.13 1 12C1 15.87 4.13 19 8 19C11.86 19 15 15.87 15 12C15 8.13 11.87 5 8 5M8 7.15C10.67 7.15 12.85 9.32 12.85 12C12.85 14.68 10.68 16.85 8 16.85C5.32 16.85 3.15 14.68 3.15 12C3.15 9.32 5.32 7.15 8 7.15M7 9V12.69L10.19 14.53L10.94 13.23L8.5 11.82V9" />
    </g>
    <g id="mdi-sort-clock-descending" transform="translate(648 72) scale(1.5)" fill="#555">
      <path d="M18 7H15L19 3L23 7H20V21H18V7M8 5C4.14 5 1 8.13 1 12C1 15.87 4.13 19 8 19C11.86 19 15 15.87 15 12C15 8.13 11.87 5 8 5M10.19 14.53L7 12.69V9H8.5V11.82L10.94 13.23L10.19 14.53Z" />
    </g>
    <g id="mdi-sort-clock-descending" transform="translate(684 72) scale(1.5)" fill="#fff">
      <path d="M18 7H15L19 3L23 7H20V21H18V7M8 5C4.14 5 1 8.13 1 12C1 15.87 4.13 19 8 19C11.86 19 15 15.87 15 12C15 8.13 11.87 5 8 5M10.19 14.53L7 12.69V9H8.5V11.82L10.94 13.23L10.19 14.53Z" />
    </g>
    <g id="mdi-sort-clock-descending-outline" transform="translate(0 108) scale(1.5)" fill="#555">
      <path d="M18 7H15L19 3L23 7H20V21H18V7M8 5C4.14 5 1 8.13 1 12C1 15.87 4.13 19 8 19C11.86 19 15 15.87 15 12C15 8.13 11.87 5 8 5M8 7.15C10.67 7.15 12.85 9.32 12.85 12C12.85 14.68 10.68 16.85 8 16.85C5.32 16.85 3.15 14.68 3.15 12C3.15 9.32 5.32 7.15 8 7.15M7 9V12.69L10.19 14.53L10.94 13.23L8.5 11.82V9" />
    </g>
    <g id="mdi-sort-clock-descending-outline" transform="translate(36 108) scale(1.5)" fill="#fff">
      <path d="M18 7H15L19 3L23 7H20V21H18V7M8 5C4.14 5 1 8.13 1 12C1 15.87 4.13 19 8 19C11.86 19 15 15.87 15 12C15 8.13 11.87 5 8 5M8 7.15C10.67 7.15 12.85 9.32 12.85 12C12.85 14.68 10.68 16.85 8 16.85C5.32 16.85 3.15 14.68 3.15 12C3.15 9.32 5.32 7.15 8 7.15M7 9V12.69L10.19 14.53L10.94 13.23L8.5 11.82V9" />
    </g>
    <g id="mdi-sort-descending" transform="translate(72 108) scale(1.5)" fill="#555">
      <path d="M19 7H22L18 3L14 7H17V21H19M2 17H12V19H2M6 5V7H2V5M2 11H9V13H2V11Z" />
    </g>
    <g id="mdi-sort-descending" transform="translate(108 108) scale(1.5)" fill="#fff">
      <path d="M19 7H22L18 3L14 7H17V21H19M2 17H12V19H2M6 5V7H2V5M2 11H9V13H2V11Z" />
    </g>
    <g id="mdi-sort-numeric-ascending" transform="translate(144 108) scale(1.5)" fill="#555">
      <path d="M19 17H22L18 21L14 17H17V3H19V17M9 13H7C5.9 13 5 13.9 5 15V16C5 17.11 5.9 18 7 18H9V19H5V21H9C10.11 21 11 20.11 11 19V15C11 13.9 10.11 13 9 13M9 16H7V15H9V16M9 3H7C5.9 3 5 3.9 5 5V9C5 10.11 5.9 11 7 11H9C10.11 11 11 10.11 11 9V5C11 3.9 10.11 3 9 3M9 9H7V5H9V9Z" />
    </g>
    <g id="mdi-sort-numeric-ascending" transform="translate(180 108) scale(1.5)" fill="#fff">
      <path d="M19 17H22L18 21L14 17H17V3H19V17M9 13H7C5.9 13 5 13.9 5 15V16C5 17.11 5.9 18 7 18H9V19H5V21H9C10.11 21 11 20.11 11 19V15C11 13.9 10.11 13 9 13M9 16H7V15H9V16M9 3H7C5.9 3 5 3.9 5 5V9C5 10.11 5.9 11 7 11H9C10.11 11 11 10.11 11 9V5C11 3.9 10.11 3 9 3M9 9H7V5H9V9Z" />
    </g>
    <g id="mdi-sort-numeric-ascending-variant" transform="translate(216 108) scale(1.5)" fill="#555">
      <path d="M7.78 7C9.08 7.04 10 7.53 10.57 8.46C11.13 9.4 11.41 10.56 11.39 11.95C11.4 13.5 11.09 14.73 10.5 15.62C9.88 16.5 8.95 16.97 7.71 17C6.45 16.96 5.54 16.5 4.96 15.56C4.38 14.63 4.09 13.45 4.09 12S4.39 9.36 5 8.44C5.59 7.5 6.5 7.04 7.78 7M7.75 8.63C7.31 8.63 6.96 8.9 6.7 9.46C6.44 10 6.32 10.87 6.32 12C6.31 13.15 6.44 14 6.69 14.54C6.95 15.1 7.31 15.37 7.77 15.37C8.69 15.37 9.16 14.24 9.17 12C9.17 9.77 8.7 8.65 7.75 8.63M13.33 17V15.22L13.76 15.24L14.3 15.22L15.34 15.03C15.68 14.92 16 14.78 16.26 14.58C16.59 14.35 16.86 14.08 17.07 13.76C17.29 13.45 17.44 13.12 17.53 12.78L17.5 12.77C17.05 13.19 16.38 13.4 15.47 13.41C14.62 13.4 13.91 13.15 13.34 12.65S12.5 11.43 12.46 10.5C12.47 9.5 12.81 8.69 13.47 8.03C14.14 7.37 15 7.03 16.12 7C17.37 7.04 18.29 7.45 18.88 8.24C19.47 9 19.76 10 19.76 11.19C19.75 12.15 19.61 13 19.32 13.76C19.03 14.5 18.64 15.13 18.12 15.64C17.66 16.06 17.11 16.38 16.47 16.61C15.83 16.83 15.12 16.96 14.34 17H13.33M16.06 8.63C15.65 8.64 15.32 8.8 15.06 9.11C14.81 9.42 14.68 9.84 14.68 10.36C14.68 10.8 14.8 11.16 15.03 11.46C15.27 11.77 15.63 11.92 16.11 11.93C16.43 11.93 16.7 11.86 16.92 11.74C17.14 11.61 17.3 11.46 17.41 11.28C17.5 11.17 17.53 10.97 17.53 10.71C17.54 10.16 17.43 9.69 17.2 9.28C16.97 8.87 16.59 8.65 16.06 8.63M9.25 5L12.5 1.75L15.75 5H9.25" />
    </g>
    <g id="mdi-sort-numeric-ascending-variant" transform="translate(252 108) scale(1.5)" fill="#fff">
      <path d="M7.78 7C9.08 7.04 10 7.53 10.57 8.46C11.13 9.4 11.41 10.56 11.39 11.95C11.4 13.5 11.09 14.73 10.5 15.62C9.88 16.5 8.95 16.97 7.71 17C6.45 16.96 5.54 16.5 4.96 15.56C4.38 14.63 4.09 13.45 4.09 12S4.39 9.36 5 8.44C5.59 7.5 6.5 7.04 7.78 7M7.75 8.63C7.31 8.63 6.96 8.9 6.7 9.46C6.44 10 6.32 10.87 6.32 12C6.31 13.15 6.44 14 6.69 14.54C6.95 15.1 7.31 15.37 7.77 15.37C8.69 15.37 9.16 14.24 9.17 12C9.17 9.77 8.7 8.65 7.75 8.63M13.33 17V15.22L13.76 15.24L14.3 15.22L15.34 15.03C15.68 14.92 16 14.78 16.26 14.58C16.59 14.35 16.86 14.08 17.07 13.76C17.29 13.45 17.44 13.12 17.53 12.78L17.5 12.77C17.05 13.19 16.38 13.4 15.47 13.41C14.62 13.4 13.91 13.15 13.34 12.65S12.5 11.43 12.46 10.5C12.47 9.5 12.81 8.69 13.47 8.03C14.14 7.37 15 7.03 16.12 7C17.37 7.04 18.29 7.45 18.88 8.24C19.47 9 19.76 10 19.76 11.19C19.75 12.15 19.61 13 19.32 13.76C19.03 14.5 18.64 15.13 18.12 15.64C17.66 16.06 17.11 16.38 16.47 16.61C15.83 16.83 15.12 16.96 14.34 17H13.33M16.06 8.63C15.65 8.64 15.32 8.8 15.06 9.11C14.81 9.42 14.68 9.84 14.68 10.36C14.68 10.8 14.8 11.16 15.03 11.46C15.27 11.77 15.63 11.92 16.11 11.93C16.43 11.93 16.7 11.86 16.92 11.74C17.14 11.61 17.3 11.46 17.41 11.28C17.5 11.17 17.53 10.97 17.53 10.71C17.54 10.16 17.43 9.69 17.2 9.28C16.97 8.87 16.59 8.65 16.06 8.63M9.25 5L12.5 1.75L15.75 5H9.25" />
    </g>
    <g id="mdi-sort-numeric-descending" transform="translate(288 108) scale(1.5)" fill="#555">
      <path d="M19 7H22L18 3L14 7H17V21H19M9 21H5V19H9V18H7C5.9 18 5 17.11 5 16V15C5 13.9 5.9 13 7 13H9C10.11 13 11 13.9 11 15V19C11 20.11 10.11 21 9 21M9 15H7V16H9M7 3H9C10.11 3 11 3.9 11 5V9C11 10.11 10.11 11 9 11H7C5.9 11 5 10.11 5 9V5C5 3.9 5.9 3 7 3M7 9H9V5H7Z" />
    </g>
    <g id="mdi-sort-numeric-descending" transform="translate(324 108) scale(1.5)" fill="#fff">
      <path d="M19 7H22L18 3L14 7H17V21H19M9 21H5V19H9V18H7C5.9 18 5 17.11 5 16V15C5 13.9 5.9 13 7 13H9C10.11 13 11 13.9 11 15V19C11 20.11 10.11 21 9 21M9 15H7V16H9M7 3H9C10.11 3 11 3.9 11 5V9C11 10.11 10.11 11 9 11H7C5.9 11 5 10.11 5 9V5C5 3.9 5.9 3 7 3M7 9H9V5H7Z" />
    </g>
    <g id="mdi-sort-numeric-descending-variant" transform="translate(360 108) scale(1.5)" fill="#555">
      <path d="M7.78 7C9.08 7.04 10 7.53 10.57 8.46C11.13 9.4 11.41 10.56 11.39 11.95C11.4 13.5 11.09 14.73 10.5 15.62C9.88 16.5 8.95 16.97 7.71 17C6.45 16.96 5.54 16.5 4.96 15.56C4.38 14.63 4.09 13.45 4.09 12S4.39 9.36 5 8.44C5.59 7.5 6.5 7.04 7.78 7M7.75 8.63C7.31 8.63 6.96 8.9 6.7 9.46C6.44 10 6.32 10.87 6.32 12C6.31 13.15 6.44 14 6.69 14.54C6.95 15.1 7.31 15.37 7.77 15.37C8.69 15.37 9.16 14.24 9.17 12C9.17 9.77 8.7 8.65 7.75 8.63M13.33 17V15.22L13.76 15.24L14.3 15.22L15.34 15.03C15.68 14.92 16 14.78 16.26 14.58C16.59 14.35 16.86 14.08 17.07 13.76C17.29 13.45 17.44 13.12 17.53 12.78L17.5 12.77C17.05 13.19 16.38 13.4 15.47 13.41C14.62 13.4 13.91 13.15 13.34 12.65S12.5 11.43 12.46 10.5C12.47 9.5 12.81 8.69 13.47 8.03C14.14 7.37 15 7.03 16.12 7C17.37 7.04 18.29 7.45 18.88 8.24C19.47 9 19.76 10 19.76 11.19C19.75 12.15 19.61 13 19.32 13.76C19.03 14.5 18.64 15.13 18.12 15.64C17.66 16.06 17.11 16.38 16.47 16.61C15.83 16.83 15.12 16.96 14.34 17H13.33M16.06 8.63C15.65 8.64 15.32 8.8 15.06 9.11C14.81 9.42 14.68 9.84 14.68 10.36C14.68 10.8 14.8 11.16 15.03 11.46C15.27 11.77 15.63 11.92 16.11 11.93C16.43 11.93 16.7 11.86 16.92 11.74C17.14 11.61 17.3 11.46 17.41 11.28C17.5 11.17 17.53 10.97 17.53 10.71C17.54 10.16 17.43 9.69 17.2 9.28C16.97 8.87 16.59 8.65 16.06 8.63M15.75 19L12.5 22.25L9.25 19H15.75Z" />
    </g>
    <g id="mdi-sort-numeric-descending-variant" transform="translate(396 108) scale(1.5)" fill="#fff">
      <path d="M7.78 7C9.08 7.04 10 7.53 10.57 8.46C11.13 9.4 11.41 10.56 11.39 11.95C11.4 13.5 11.09 14.73 10.5 15.62C9.88 16.5 8.95 16.97 7.71 17C6.45 16.96 5.54 16.5 4.96 15.56C4.38 14.63 4.09 13.45 4.09 12S4.39 9.36 5 8.44C5.59 7.5 6.5 7.04 7.78 7M7.75 8.63C7.31 8.63 6.96 8.9 6.7 9.46C6.44 10 6.32 10.87 6.32 12C6.31 13.15 6.44 14 6.69 14.54C6.95 15.1 7.31 15.37 7.77 15.37C8.69 15.37 9.16 14.24 9.17 12C9.17 9.77 8.7 8.65 7.75 8.63M13.33 17V15.22L13.76 15.24L14.3 15.22L15.34 15.03C15.68 14.92 16 14.78 16.26 14.58C16.59 14.35 16.86 14.08 17.07 13.76C17.29 13.45 17.44 13.12 17.53 12.78L17.5 12.77C17.05 13.19 16.38 13.4 15.47 13.41C14.62 13.4 13.91 13.15 13.34 12.65S12.5 11.43 12.46 10.5C12.47 9.5 12.81 8.69 13.47 8.03C14.14 7.37 15 7.03 16.12 7C17.37 7.04 18.29 7.45 18.88 8.24C19.47 9 19.76 10 19.76 11.19C19.75 12.15 19.61 13 19.32 13.76C19.03 14.5 18.64 15.13 18.12 15.64C17.66 16.06 17.11 16.38 16.47 16.61C15.83 16.83 15.12 16.96 14.34 17H13.33M16.06 8.63C15.65 8.64 15.32 8.8 15.06 9.11C14.81 9.42 14.68 9.84 14.68 10.36C14.68 10.8 14.8 11.16 15.03 11.46C15.27 11.77 15.63 11.92 16.11 11.93C16.43 11.93 16.7 11.86 16.92 11.74C17.14 11.61 17.3 11.46 17.41 11.28C17.5 11.17 17.53 10.97 17.53 10.71C17.54 10.16 17.43 9.69 17.2 9.28C16.97 8.87 16.59 8.65 16.06 8.63M15.75 19L12.5 22.25L9.25 19H15.75Z" />
    </g>
    <g id="mdi-sort-numeric-variant" transform="translate(432 108) scale(1.5)" fill="#555">
      <path d="M7.78,7C9.08,7.04 10,7.53 10.57,8.46C11.13,9.4 11.41,10.56 11.39,11.95C11.4,13.5 11.09,14.73 10.5,15.62C9.88,16.5 8.95,16.97 7.71,17C6.45,16.96 5.54,16.5 4.96,15.56C4.38,14.63 4.09,13.45 4.09,12C4.09,10.55 4.39,9.36 5,8.44C5.59,7.5 6.5,7.04 7.78,7M7.75,8.63C7.31,8.63 6.96,8.9 6.7,9.46C6.44,10 6.32,10.87 6.32,12C6.31,13.15 6.44,14 6.69,14.54C6.95,15.1 7.31,15.37 7.77,15.37C8.69,15.37 9.16,14.24 9.17,12C9.17,9.77 8.7,8.65 7.75,8.63M13.33,17V15.22L13.76,15.24L14.3,15.22L15.34,15.03C15.68,14.92 16,14.78 16.26,14.58C16.59,14.35 16.86,14.08 17.07,13.76C17.29,13.45 17.44,13.12 17.53,12.78L17.5,12.77C17.05,13.19 16.38,13.4 15.47,13.41C14.62,13.4 13.91,13.15 13.34,12.65C12.77,12.15 12.5,11.43 12.46,10.5C12.47,9.5 12.81,8.69 13.47,8.03C14.14,7.37 15,7.03 16.12,7C17.37,7.04 18.29,7.45 18.88,8.24C19.47,9 19.76,10 19.76,11.19C19.75,12.15 19.61,13 19.32,13.76C19.03,14.5 18.64,15.13 18.12,15.64C17.66,16.06 17.11,16.38 16.47,16.61C15.83,16.83 15.12,16.96 14.34,17H13.33M16.06,8.63C15.65,8.64 15.32,8.8 15.06,9.11C14.81,9.42 14.68,9.84 14.68,10.36C14.68,10.8 14.8,11.16 15.03,11.46C15.27,11.77 15.63,11.92 16.11,11.93C16.43,11.93 16.7,11.86 16.92,11.74C17.14,11.61 17.3,11.46 17.41,11.28C17.5,11.17 17.53,10.97 17.53,10.71C17.54,10.16 17.43,9.69 17.2,9.28C16.97,8.87 16.59,8.65 16.06,8.63M9.25,5L12.5,1.75L15.75,5H9.25M15.75,19L12.5,22.25L9.25,19H15.75Z" />
    </g>
    <g id="mdi-sort-numeric-variant" transform="translate(468 108) scale(1.5)" fill="#fff">
      <path d="M7.78,7C9.08,7.04 10,7.53 10.57,8.46C11.13,9.4 11.41,10.56 11.39,11.95C11.4,13.5 11.09,14.73 10.5,15.62C9.88,16.5 8.95,16.97 7.71,17C6.45,16.96 5.54,16.5 4.96,15.56C4.38,14.63 4.09,13.45 4.09,12C4.09,10.55 4.39,9.36 5,8.44C5.59,7.5 6.5,7.04 7.78,7M7.75,8.63C7.31,8.63 6.96,8.9 6.7,9.46C6.44,10 6.32,10.87 6.32,12C6.31,13.15 6.44,14 6.69,14.54C6.95,15.1 7.31,15.37 7.77,15.37C8.69,15.37 9.16,14.24 9.17,12C9.17,9.77 8.7,8.65 7.75,8.63M13.33,17V15.22L13.76,15.24L14.3,15.22L15.34,15.03C15.68,14.92 16,14.78 16.26,14.58C16.59,14.35 16.86,14.08 17.07,13.76C17.29,13.45 17.44,13.12 17.53,12.78L17.5,12.77C17.05,13.19 16.38,13.4 15.47,13.41C14.62,13.4 13.91,13.15 13.34,12.65C12.77,12.15 12.5,11.43 12.46,10.5C12.47,9.5 12.81,8.69 13.47,8.03C14.14,7.37 15,7.03 16.12,7C17.37,7.04 18.29,7.45 18.88,8.24C19.47,9 19.76,10 19.76,11.19C19.75,12.15 19.61,13 19.32,13.76C19.03,14.5 18.64,15.13 18.12,15.64C17.66,16.06 17.11,16.38 16.47,16.61C15.83,16.83 15.12,16.96 14.34,17H13.33M16.06,8.63C15.65,8.64 15.32,8.8 15.06,9.11C14.81,9.42 14.68,9.84 14.68,10.36C14.68,10.8 14.8,11.16 15.03,11.46C15.27,11.77 15.63,11.92 16.11,11.93C16.43,11.93 16.7,11.86 16.92,11.74C17.14,11.61 17.3,11.46 17.41,11.28C17.5,11.17 17.53,10.97 17.53,10.71C17.54,10.16 17.43,9.69 17.2,9.28C16.97,8.87 16.59,8.65 16.06,8.63M9.25,5L12.5,1.75L15.75,5H9.25M15.75,19L12.5,22.25L9.25,19H15.75Z" />
    </g>
    <g id="mdi-sort-reverse-variant" transform="translate(504 108) scale(1.5)" fill="#555">
      <path d="M3 11H15V13H3M3 18V16H21V18M3 6H9V8H3Z" />
    </g>
    <g id="mdi-sort-reverse-variant" transform="translate(540 108) scale(1.5)" fill="#fff">
      <path d="M3 11H15V13H3M3 18V16H21V18M3 6H9V8H3Z" />
    </g>
    <g id="mdi-sort-variant" transform="translate(576 108) scale(1.5)" fill="#555">
      <path d="M3,13H15V11H3M3,6V8H21V6M3,18H9V16H3V18Z" />
    </g>
    <g id="mdi-sort-variant" transform="translate(612 108) scale(1.5)" fill="#fff">
      <path d="M3,13H15V11H3M3,6V8H21V6M3,18H9V16H3V18Z" />
    </g>
    <g id="mdi-sort-variant-lock" transform="translate(648 108) scale(1.5)" fill="#555">
      <path d="M3,13V11H15V13H3M3,6H21V8H3V6M3,18V16H9V18H3M22,22H14V18H15V17A3,3 0 0,1 18,14A3,3 0 0,1 21,17V18H22V22M18,16A1,1 0 0,0 17,17V18H19V17A1,1 0 0,0 18,16Z" />
    </g>
    <g id="mdi-sort-variant-lock" transform="translate(684 108) scale(1.5)" fill="#fff">
      <path d="M3,13V11H15V13H3M3,6H21V8H3V6M3,18V16H9V18H3M22,22H14V18H15V17A3,3 0 0,1 18,14A3,3 0 0,1 21,17V18H22V22M18,16A1,1 0 0,0 17,17V18H19V17A1,1 0 0,0 18,16Z" />
    </g>
    <g id="mdi-sort-variant-lock-open" transform="translate(0 144) scale(1.5)" fill="#555">
      <path d="M3,13V11H15V13H3M3,6H21V8H3V6M3,18V16H9V18H3M22,22H14V18H15V16A3,3 0 0,1 18,13A3,3 0 0,1 21,16H19A1,1 0 0,0 18,15A1,1 0 0,0 17,16V18H22V22Z" />
    </g>
    <g id="mdi-sort-variant-lock-open" transform="translate(36 144) scale(1.5)" fill="#fff">
      <path d="M3,13V11H15V13H3M3,6H21V8H3V6M3,18V16H9V18H3M22,22H14V18H15V16A3,3 0 0,1 18,13A3,3 0 0,1 21,16H19A1,1 0 0,0 18,15A1,1 0 0,0 17,16V18H22V22Z" />
    </g>
    <g id="mdi-sort-variant-remove" transform="translate(72 144) scale(1.5)" fill="#555">
      <path d="M3 13H15V11H3M3 6V8H21V6M3 18H9V16H3V18M22.54 16.88L20.41 19L22.54 21.12L21.12 22.54L19 20.41L16.88 22.54L15.47 21.12L17.59 19L15.47 16.88L16.88 15.47L19 17.59L21.12 15.46L22.54 16.88" />
    </g>
    <g id="mdi-sort-variant-remove" transform="translate(108 144) scale(1.5)" fill="#fff">
      <path d="M3 13H15V11H3M3 6V8H21V6M3 18H9V16H3V18M22.54 16.88L20.41 19L22.54 21.12L21.12 22.54L19 20.41L16.88 22.54L15.47 21.12L17.59 19L15.47 16.88L16.88 15.47L19 17.59L21.12 15.46L22.54 16.88" />
    </g>
    <g id="mdi-soundcloud" transform="translate(144 144) scale(1.5)" fill="#555">
      <path d="M11.56,8.87V17H20.32V17C22.17,16.87 23,15.73 23,14.33C23,12.85 21.88,11.66 20.38,11.66C20,11.66 19.68,11.74 19.35,11.88C19.11,9.54 17.12,7.71 14.67,7.71C13.5,7.71 12.39,8.15 11.56,8.87M10.68,9.89C10.38,9.71 10.06,9.57 9.71,9.5V17H11.1V9.34C10.95,9.5 10.81,9.7 10.68,9.89M8.33,9.35V17H9.25V9.38C9.06,9.35 8.87,9.34 8.67,9.34C8.55,9.34 8.44,9.34 8.33,9.35M6.5,10V17H7.41V9.54C7.08,9.65 6.77,9.81 6.5,10M4.83,12.5C4.77,12.5 4.71,12.44 4.64,12.41V17H5.56V10.86C5.19,11.34 4.94,11.91 4.83,12.5M2.79,12.22V16.91C3,16.97 3.24,17 3.5,17H3.72V12.14C3.64,12.13 3.56,12.12 3.5,12.12C3.24,12.12 3,12.16 2.79,12.22M1,14.56C1,15.31 1.34,15.97 1.87,16.42V12.71C1.34,13.15 1,13.82 1,14.56Z" />
    </g>
    <g id="mdi-soundcloud" transform="translate(180 144) scale(1.5)" fill="#fff">
      <path d="M11.56,8.87V17H20.32V17C22.17,16.87 23,15.73 23,14.33C23,12.85 21.88,11.66 20.38,11.66C20,11.66 19.68,11.74 19.35,11.88C19.11,9.54 17.12,7.71 14.67,7.71C13.5,7.71 12.39,8.15 11.56,8.87M10.68,9.89C10.38,9.71 10.06,9.57 9.71,9.5V17H11.1V9.34C10.95,9.5 10.81,9.7 10.68,9.89M8.33,9.35V17H9.25V9.38C9.06,9.35 8.87,9.34 8.67,9.34C8.55,9.34 8.44,9.34 8.33,9.35M6.5,10V17H7.41V9.54C7.08,9.65 6.77,9.81 6.5,10M4.83,12.5C4.77,12.5 4.71,12.44 4.64,12.41V17H5.56V10.86C5.19,11.34 4.94,11.91 4.83,12.5M2.79,12.22V16.91C3,16.97 3.24,17 3.5,17H3.72V12.14C3.64,12.13 3.56,12.12 3.5,12.12C3.24,12.12 3,12.16 2.79,12.22M1,14.56C1,15.31 1.34,15.97 1.87,16.42V12.71C1.34,13.15 1,13.82 1,14.56Z" />
    </g>
    <g id="mdi-source-branch" transform="translate(216 144) scale(1.5)" fill="#555">
      <path d="M13,14C9.64,14 8.54,15.35 8.18,16.24C9.25,16.7 10,17.76 10,19A3,3 0 0,1 7,22A3,3 0 0,1 4,19C4,17.69 4.83,16.58 6,16.17V7.83C4.83,7.42 4,6.31 4,5A3,3 0 0,1 7,2A3,3 0 0,1 10,5C10,6.31 9.17,7.42 8,7.83V13.12C8.88,12.47 10.16,12 12,12C14.67,12 15.56,10.66 15.85,9.77C14.77,9.32 14,8.25 14,7A3,3 0 0,1 17,4A3,3 0 0,1 20,7C20,8.34 19.12,9.5 17.91,9.86C17.65,11.29 16.68,14 13,14M7,18A1,1 0 0,0 6,19A1,1 0 0,0 7,20A1,1 0 0,0 8,19A1,1 0 0,0 7,18M7,4A1,1 0 0,0 6,5A1,1 0 0,0 7,6A1,1 0 0,0 8,5A1,1 0 0,0 7,4M17,6A1,1 0 0,0 16,7A1,1 0 0,0 17,8A1,1 0 0,0 18,7A1,1 0 0,0 17,6Z" />
    </g>
    <g id="mdi-source-branch" transform="translate(252 144) scale(1.5)" fill="#fff">
      <path d="M13,14C9.64,14 8.54,15.35 8.18,16.24C9.25,16.7 10,17.76 10,19A3,3 0 0,1 7,22A3,3 0 0,1 4,19C4,17.69 4.83,16.58 6,16.17V7.83C4.83,7.42 4,6.31 4,5A3,3 0 0,1 7,2A3,3 0 0,1 10,5C10,6.31 9.17,7.42 8,7.83V13.12C8.88,12.47 10.16,12 12,12C14.67,12 15.56,10.66 15.85,9.77C14.77,9.32 14,8.25 14,7A3,3 0 0,1 17,4A3,3 0 0,1 20,7C20,8.34 19.12,9.5 17.91,9.86C17.65,11.29 16.68,14 13,14M7,18A1,1 0 0,0 6,19A1,1 0 0,0 7,20A1,1 0 0,0 8,19A1,1 0 0,0 7,18M7,4A1,1 0 0,0 6,5A1,1 0 0,0 7,6A1,1 0 0,0 8,5A1,1 0 0,0 7,4M17,6A1,1 0 0,0 16,7A1,1 0 0,0 17,8A1,1 0 0,0 18,7A1,1 0 0,0 17,6Z" />
    </g>
    <g id="mdi-source-branch-check" transform="translate(288 144) scale(1.5)" fill="#555">
      <path d="M13 14C9.64 14 8.54 15.35 8.18 16.24C9.25 16.7 10 17.76 10 19C10 20.66 8.66 22 7 22S4 20.66 4 19C4 17.69 4.83 16.58 6 16.17V7.83C4.83 7.42 4 6.31 4 5C4 3.34 5.34 2 7 2S10 3.34 10 5C10 6.31 9.17 7.42 8 7.83V13.12C8.88 12.47 10.16 12 12 12C14.67 12 15.56 10.66 15.85 9.77C14.77 9.32 14 8.25 14 7C14 5.34 15.34 4 17 4S20 5.34 20 7C20 8.34 19.12 9.5 17.91 9.86C17.65 11.29 16.68 14 13 14M7 18C6.45 18 6 18.45 6 19S6.45 20 7 20 8 19.55 8 19 7.55 18 7 18M7 4C6.45 4 6 4.45 6 5S6.45 6 7 6 8 5.55 8 5 7.55 4 7 4M17 6C16.45 6 16 6.45 16 7S16.45 8 17 8 18 7.55 18 7 17.55 6 17 6M16.75 21.16L14 18.16L15.16 17L16.75 18.59L20.34 15L21.5 16.41L16.75 21.16" />
    </g>
    <g id="mdi-source-branch-check" transform="translate(324 144) scale(1.5)" fill="#fff">
      <path d="M13 14C9.64 14 8.54 15.35 8.18 16.24C9.25 16.7 10 17.76 10 19C10 20.66 8.66 22 7 22S4 20.66 4 19C4 17.69 4.83 16.58 6 16.17V7.83C4.83 7.42 4 6.31 4 5C4 3.34 5.34 2 7 2S10 3.34 10 5C10 6.31 9.17 7.42 8 7.83V13.12C8.88 12.47 10.16 12 12 12C14.67 12 15.56 10.66 15.85 9.77C14.77 9.32 14 8.25 14 7C14 5.34 15.34 4 17 4S20 5.34 20 7C20 8.34 19.12 9.5 17.91 9.86C17.65 11.29 16.68 14 13 14M7 18C6.45 18 6 18.45 6 19S6.45 20 7 20 8 19.55 8 19 7.55 18 7 18M7 4C6.45 4 6 4.45 6 5S6.45 6 7 6 8 5.55 8 5 7.55 4 7 4M17 6C16.45 6 16 6.45 16 7S16.45 8 17 8 18 7.55 18 7 17.55 6 17 6M16.75 21.16L14 18.16L15.16 17L16.75 18.59L20.34 15L21.5 16.41L16.75 21.16" />
    </g>
    <g id="mdi-source-branch-minus" transform="translate(360 144) scale(1.5)" fill="#555">
      <path d="M13 14C9.64 14 8.54 15.35 8.18 16.24C9.25 16.7 10 17.76 10 19C10 20.66 8.66 22 7 22S4 20.66 4 19C4 17.69 4.83 16.58 6 16.17V7.83C4.83 7.42 4 6.31 4 5C4 3.34 5.34 2 7 2S10 3.34 10 5C10 6.31 9.17 7.42 8 7.83V13.12C8.88 12.47 10.16 12 12 12C14.67 12 15.56 10.66 15.85 9.77C14.77 9.32 14 8.25 14 7C14 5.34 15.34 4 17 4S20 5.34 20 7C20 8.34 19.12 9.5 17.91 9.86C17.65 11.29 16.68 14 13 14M7 18C6.45 18 6 18.45 6 19S6.45 20 7 20 8 19.55 8 19 7.55 18 7 18M7 4C6.45 4 6 4.45 6 5S6.45 6 7 6 8 5.55 8 5 7.55 4 7 4M17 6C16.45 6 16 6.45 16 7S16.45 8 17 8 18 7.55 18 7 17.55 6 17 6M14 17V19H22V17H14Z" />
    </g>
    <g id="mdi-source-branch-minus" transform="translate(396 144) scale(1.5)" fill="#fff">
      <path d="M13 14C9.64 14 8.54 15.35 8.18 16.24C9.25 16.7 10 17.76 10 19C10 20.66 8.66 22 7 22S4 20.66 4 19C4 17.69 4.83 16.58 6 16.17V7.83C4.83 7.42 4 6.31 4 5C4 3.34 5.34 2 7 2S10 3.34 10 5C10 6.31 9.17 7.42 8 7.83V13.12C8.88 12.47 10.16 12 12 12C14.67 12 15.56 10.66 15.85 9.77C14.77 9.32 14 8.25 14 7C14 5.34 15.34 4 17 4S20 5.34 20 7C20 8.34 19.12 9.5 17.91 9.86C17.65 11.29 16.68 14 13 14M7 18C6.45 18 6 18.45 6 19S6.45 20 7 20 8 19.55 8 19 7.55 18 7 18M7 4C6.45 4 6 4.45 6 5S6.45 6 7 6 8 5.55 8 5 7.55 4 7 4M17 6C16.45 6 16 6.45 16 7S16.45 8 17 8 18 7.55 18 7 17.55 6 17 6M14 17V19H22V17H14Z" />
    </g>
    <g id="mdi-source-branch-plus" transform="translate(432 144) scale(1.5)" fill="#555">
      <path d="M13 14C9.64 14 8.54 15.35 8.18 16.24C9.25 16.7 10 17.76 10 19C10 20.66 8.66 22 7 22S4 20.66 4 19C4 17.69 4.83 16.58 6 16.17V7.83C4.83 7.42 4 6.31 4 5C4 3.34 5.34 2 7 2S10 3.34 10 5C10 6.31 9.17 7.42 8 7.83V13.12C8.88 12.47 10.16 12 12 12C14.67 12 15.56 10.66 15.85 9.77C14.77 9.32 14 8.25 14 7C14 5.34 15.34 4 17 4S20 5.34 20 7C20 8.34 19.12 9.5 17.91 9.86C17.65 11.29 16.68 14 13 14M7 18C6.45 18 6 18.45 6 19S6.45 20 7 20 8 19.55 8 19 7.55 18 7 18M7 4C6.45 4 6 4.45 6 5S6.45 6 7 6 8 5.55 8 5 7.55 4 7 4M17 6C16.45 6 16 6.45 16 7S16.45 8 17 8 18 7.55 18 7 17.55 6 17 6M17 14V17H14V19H17V22H19V19H22V17H19V14H17Z" />
    </g>
    <g id="mdi-source-branch-plus" transform="translate(468 144) scale(1.5)" fill="#fff">
      <path d="M13 14C9.64 14 8.54 15.35 8.18 16.24C9.25 16.7 10 17.76 10 19C10 20.66 8.66 22 7 22S4 20.66 4 19C4 17.69 4.83 16.58 6 16.17V7.83C4.83 7.42 4 6.31 4 5C4 3.34 5.34 2 7 2S10 3.34 10 5C10 6.31 9.17 7.42 8 7.83V13.12C8.88 12.47 10.16 12 12 12C14.67 12 15.56 10.66 15.85 9.77C14.77 9.32 14 8.25 14 7C14 5.34 15.34 4 17 4S20 5.34 20 7C20 8.34 19.12 9.5 17.91 9.86C17.65 11.29 16.68 14 13 14M7 18C6.45 18 6 18.45 6 19S6.45 20 7 20 8 19.55 8 19 7.55 18 7 18M7 4C6.45 4 6 4.45 6 5S6.45 6 7 6 8 5.55 8 5 7.55 4 7 4M17 6C16.45 6 16 6.45 16 7S16.45 8 17 8 18 7.55 18 7 17.55 6 17 6M17 14V17H14V19H17V22H19V19H22V17H19V14H17Z" />
    </g>
    <g id="mdi-source-branch-refresh" transform="translate(504 144) scale(1.5)" fill="#555">
      <path d="M13 14C9.64 14 8.54 15.35 8.18 16.24C9.25 16.7 10 17.76 10 19C10 20.66 8.66 22 7 22S4 20.66 4 19C4 17.69 4.83 16.58 6 16.17V7.83C4.83 7.42 4 6.31 4 5C4 3.34 5.34 2 7 2S10 3.34 10 5C10 6.31 9.17 7.42 8 7.83V13.12C8.88 12.47 10.16 12 12 12C14.67 12 15.56 10.66 15.85 9.77C14.77 9.32 14 8.25 14 7C14 5.34 15.34 4 17 4S20 5.34 20 7C20 8.34 19.12 9.5 17.91 9.86C17.65 11.29 16.68 14 13 14M7 18C6.45 18 6 18.45 6 19S6.45 20 7 20 8 19.55 8 19 7.55 18 7 18M7 4C6.45 4 6 4.45 6 5S6.45 6 7 6 8 5.55 8 5 7.55 4 7 4M17 6C16.45 6 16 6.45 16 7S16.45 8 17 8 18 7.55 18 7 17.55 6 17 6M18 14C19.1 14 20.1 14.4 20.8 15.2L22 14V18H18L19.8 16.2C19.3 15.8 18.7 15.5 18 15.5C16.6 15.5 15.5 16.6 15.5 18S16.6 20.5 18 20.5C18.8 20.5 19.5 20.1 20 19.5H21.7C21.1 21 19.7 22 18 22C15.8 22 14 20.2 14 18S15.8 14 18 14Z" />
    </g>
    <g id="mdi-source-branch-refresh" transform="translate(540 144) scale(1.5)" fill="#fff">
      <path d="M13 14C9.64 14 8.54 15.35 8.18 16.24C9.25 16.7 10 17.76 10 19C10 20.66 8.66 22 7 22S4 20.66 4 19C4 17.69 4.83 16.58 6 16.17V7.83C4.83 7.42 4 6.31 4 5C4 3.34 5.34 2 7 2S10 3.34 10 5C10 6.31 9.17 7.42 8 7.83V13.12C8.88 12.47 10.16 12 12 12C14.67 12 15.56 10.66 15.85 9.77C14.77 9.32 14 8.25 14 7C14 5.34 15.34 4 17 4S20 5.34 20 7C20 8.34 19.12 9.5 17.91 9.86C17.65 11.29 16.68 14 13 14M7 18C6.45 18 6 18.45 6 19S6.45 20 7 20 8 19.55 8 19 7.55 18 7 18M7 4C6.45 4 6 4.45 6 5S6.45 6 7 6 8 5.55 8 5 7.55 4 7 4M17 6C16.45 6 16 6.45 16 7S16.45 8 17 8 18 7.55 18 7 17.55 6 17 6M18 14C19.1 14 20.1 14.4 20.8 15.2L22 14V18H18L19.8 16.2C19.3 15.8 18.7 15.5 18 15.5C16.6 15.5 15.5 16.6 15.5 18S16.6 20.5 18 20.5C18.8 20.5 19.5 20.1 20 19.5H21.7C21.1 21 19.7 22 18 22C15.8 22 14 20.2 14 18S15.8 14 18 14Z" />
    </g>
    <g id="mdi-source-branch-remove" transform="translate(576 144) scale(1.5)" fill="#555">
      <path d="M13 14C9.64 14 8.54 15.35 8.18 16.24C9.25 16.7 10 17.76 10 19C10 20.66 8.66 22 7 22S4 20.66 4 19C4 17.69 4.83 16.58 6 16.17V7.83C4.83 7.42 4 6.31 4 5C4 3.34 5.34 2 7 2S10 3.34 10 5C10 6.31 9.17 7.42 8 7.83V13.12C8.88 12.47 10.16 12 12 12C14.67 12 15.56 10.66 15.85 9.77C14.77 9.32 14 8.25 14 7C14 5.34 15.34 4 17 4S20 5.34 20 7C20 8.34 19.12 9.5 17.91 9.86C17.65 11.29 16.68 14 13 14M7 18C6.45 18 6 18.45 6 19S6.45 20 7 20 8 19.55 8 19 7.55 18 7 18M7 4C6.45 4 6 4.45 6 5S6.45 6 7 6 8 5.55 8 5 7.55 4 7 4M17 6C16.45 6 16 6.45 16 7S16.45 8 17 8 18 7.55 18 7 17.55 6 17 6M20.12 14.46L18 16.59L15.88 14.47L14.47 15.88L16.59 18L14.47 20.12L15.88 21.54L18 19.41L20.12 21.54L21.54 20.12L19.41 18L21.54 15.88L20.12 14.46Z" />
    </g>
    <g id="mdi-source-branch-remove" transform="translate(612 144) scale(1.5)" fill="#fff">
      <path d="M13 14C9.64 14 8.54 15.35 8.18 16.24C9.25 16.7 10 17.76 10 19C10 20.66 8.66 22 7 22S4 20.66 4 19C4 17.69 4.83 16.58 6 16.17V7.83C4.83 7.42 4 6.31 4 5C4 3.34 5.34 2 7 2S10 3.34 10 5C10 6.31 9.17 7.42 8 7.83V13.12C8.88 12.47 10.16 12 12 12C14.67 12 15.56 10.66 15.85 9.77C14.77 9.32 14 8.25 14 7C14 5.34 15.34 4 17 4S20 5.34 20 7C20 8.34 19.12 9.5 17.91 9.86C17.65 11.29 16.68 14 13 14M7 18C6.45 18 6 18.45 6 19S6.45 20 7 20 8 19.55 8 19 7.55 18 7 18M7 4C6.45 4 6 4.45 6 5S6.45 6 7 6 8 5.55 8 5 7.55 4 7 4M17 6C16.45 6 16 6.45 16 7S16.45 8 17 8 18 7.55 18 7 17.55 6 17 6M20.12 14.46L18 16.59L15.88 14.47L14.47 15.88L16.59 18L14.47 20.12L15.88 21.54L18 19.41L20.12 21.54L21.54 20.12L19.41 18L21.54 15.88L20.12 14.46Z" />
    </g>
    <g id="mdi-source-branch-sync" transform="translate(648 144) scale(1.5)" fill="#555">
      <path d="M13 14C9.64 14 8.54 15.35 8.18 16.24C9.25 16.7 10 17.76 10 19C10 20.66 8.66 22 7 22S4 20.66 4 19C4 17.69 4.83 16.58 6 16.17V7.83C4.83 7.42 4 6.31 4 5C4 3.34 5.34 2 7 2S10 3.34 10 5C10 6.31 9.17 7.42 8 7.83V13.12C8.88 12.47 10.16 12 12 12C14.67 12 15.56 10.66 15.85 9.77C14.77 9.32 14 8.25 14 7C14 5.34 15.34 4 17 4S20 5.34 20 7C20 8.34 19.12 9.5 17.91 9.86C17.65 11.29 16.68 14 13 14M7 18C6.45 18 6 18.45 6 19S6.45 20 7 20 8 19.55 8 19 7.55 18 7 18M7 4C6.45 4 6 4.45 6 5S6.45 6 7 6 8 5.55 8 5 7.55 4 7 4M17 6C16.45 6 16 6.45 16 7S16.45 8 17 8 18 7.55 18 7 17.55 6 17 6M18 13V14.5C20.21 14.5 22 16.29 22 18.5C22 19.32 21.75 20.08 21.33 20.71L20.24 19.62C20.41 19.28 20.5 18.9 20.5 18.5C20.5 17.12 19.38 16 18 16V17.5L15.75 15.25L15.72 15.22C15.78 15.17 15.85 15.13 18 13M18 24V22.5C15.79 22.5 14 20.71 14 18.5C14 17.68 14.25 16.92 14.67 16.29L15.76 17.38C15.59 17.72 15.5 18.1 15.5 18.5C15.5 19.88 16.62 21 18 21V19.5L20.25 21.75L20.28 21.78C20.22 21.83 20.15 21.87 18 24" />
    </g>
    <g id="mdi-source-branch-sync" transform="translate(684 144) scale(1.5)" fill="#fff">
      <path d="M13 14C9.64 14 8.54 15.35 8.18 16.24C9.25 16.7 10 17.76 10 19C10 20.66 8.66 22 7 22S4 20.66 4 19C4 17.69 4.83 16.58 6 16.17V7.83C4.83 7.42 4 6.31 4 5C4 3.34 5.34 2 7 2S10 3.34 10 5C10 6.31 9.17 7.42 8 7.83V13.12C8.88 12.47 10.16 12 12 12C14.67 12 15.56 10.66 15.85 9.77C14.77 9.32 14 8.25 14 7C14 5.34 15.34 4 17 4S20 5.34 20 7C20 8.34 19.12 9.5 17.91 9.86C17.65 11.29 16.68 14 13 14M7 18C6.45 18 6 18.45 6 19S6.45 20 7 20 8 19.55 8 19 7.55 18 7 18M7 4C6.45 4 6 4.45 6 5S6.45 6 7 6 8 5.55 8 5 7.55 4 7 4M17 6C16.45 6 16 6.45 16 7S16.45 8 17 8 18 7.55 18 7 17.55 6 17 6M18 13V14.5C20.21 14.5 22 16.29 22 18.5C22 19.32 21.75 20.08 21.33 20.71L20.24 19.62C20.41 19.28 20.5 18.9 20.5 18.5C20.5 17.12 19.38 16 18 16V17.5L15.75 15.25L15.72 15.22C15.78 15.17 15.85 15.13 18 13M18 24V22.5C15.79 22.5 14 20.71 14 18.5C14 17.68 14.25 16.92 14.67 16.29L15.76 17.38C15.59 17.72 15.5 18.1 15.5 18.5C15.5 19.88 16.62 21 18 21V19.5L20.25 21.75L20.28 21.78C20.22 21.83 20.15 21.87 18 24" />
    </g>
    <g id="mdi-source-commit" transform="translate(0 180) scale(1.5)" fill="#555">
      <path d="M17,12C17,14.42 15.28,16.44 13,16.9V21H11V16.9C8.72,16.44 7,14.42 7,12C7,9.58 8.72,7.56 11,7.1V3H13V7.1C15.28,7.56 17,9.58 17,12M12,9A3,3 0 0,0 9,12A3,3 0 0,0 12,15A3,3 0 0,0 15,12A3,3 0 0,0 12,9Z" />
    </g>
    <g id="mdi-source-commit" transform="translate(36 180) scale(1.5)" fill="#fff">
      <path d="M17,12C17,14.42 15.28,16.44 13,16.9V21H11V16.9C8.72,16.44 7,14.42 7,12C7,9.58 8.72,7.56 11,7.1V3H13V7.1C15.28,7.56 17,9.58 17,12M12,9A3,3 0 0,0 9,12A3,3 0 0,0 12,15A3,3 0 0,0 15,12A3,3 0 0,0 12,9Z" />
    </g>
    <g id="mdi-source-commit-end" transform="translate(72 180) scale(1.5)" fill="#555">
      <path d="M17,12A5,5 0 0,1 12,17A5,5 0 0,1 7,12C7,9.58 8.72,7.56 11,7.1V3H13V7.1C15.28,7.56 17,9.58 17,12M12,9A3,3 0 0,0 9,12A3,3 0 0,0 12,15A3,3 0 0,0 15,12A3,3 0 0,0 12,9Z" />
    </g>
    <g id="mdi-source-commit-end" transform="translate(108 180) scale(1.5)" fill="#fff">
      <path d="M17,12A5,5 0 0,1 12,17A5,5 0 0,1 7,12C7,9.58 8.72,7.56 11,7.1V3H13V7.1C15.28,7.56 17,9.58 17,12M12,9A3,3 0 0,0 9,12A3,3 0 0,0 12,15A3,3 0 0,0 15,12A3,3 0 0,0 12,9Z" />
    </g>
    <g id="mdi-source-commit-end-local" transform="translate(144 180) scale(1.5)" fill="#555">
      <path d="M12,7A5,5 0 0,1 17,12A5,5 0 0,1 12,17A5,5 0 0,1 7,12A5,5 0 0,1 12,7M12,9A3,3 0 0,0 9,12A3,3 0 0,0 12,15A3,3 0 0,0 15,12A3,3 0 0,0 12,9M11,5V3H13V5H11Z" />
    </g>
    <g id="mdi-source-commit-end-local" transform="translate(180 180) scale(1.5)" fill="#fff">
      <path d="M12,7A5,5 0 0,1 17,12A5,5 0 0,1 12,17A5,5 0 0,1 7,12A5,5 0 0,1 12,7M12,9A3,3 0 0,0 9,12A3,3 0 0,0 12,15A3,3 0 0,0 15,12A3,3 0 0,0 12,9M11,5V3H13V5H11Z" />
    </g>
    <g id="mdi-source-commit-local" transform="translate(216 180) scale(1.5)" fill="#555">
      <path d="M12,7A5,5 0 0,1 17,12A5,5 0 0,1 12,17A5,5 0 0,1 7,12A5,5 0 0,1 12,7M12,9A3,3 0 0,0 9,12A3,3 0 0,0 12,15A3,3 0 0,0 15,12A3,3 0 0,0 12,9M11,5V3H13V5H11M11,21V19H13V21H11Z" />
    </g>
    <g id="mdi-source-commit-local" transform="translate(252 180) scale(1.5)" fill="#fff">
      <path d="M12,7A5,5 0 0,1 17,12A5,5 0 0,1 12,17A5,5 0 0,1 7,12A5,5 0 0,1 12,7M12,9A3,3 0 0,0 9,12A3,3 0 0,0 12,15A3,3 0 0,0 15,12A3,3 0 0,0 12,9M11,5V3H13V5H11M11,21V19H13V21H11Z" />
    </g>
    <g id="mdi-source-commit-next-local" transform="translate(288 180) scale(1.5)" fill="#555">
      <path d="M17,12A5,5 0 0,1 12,17A5,5 0 0,1 7,12C7,9.58 8.72,7.56 11,7.1V3H13V7.1C15.28,7.56 17,9.58 17,12M12,9A3,3 0 0,0 9,12A3,3 0 0,0 12,15A3,3 0 0,0 15,12A3,3 0 0,0 12,9M11,21V19H13V21H11Z" />
    </g>
    <g id="mdi-source-commit-next-local" transform="translate(324 180) scale(1.5)" fill="#fff">
      <path d="M17,12A5,5 0 0,1 12,17A5,5 0 0,1 7,12C7,9.58 8.72,7.56 11,7.1V3H13V7.1C15.28,7.56 17,9.58 17,12M12,9A3,3 0 0,0 9,12A3,3 0 0,0 12,15A3,3 0 0,0 15,12A3,3 0 0,0 12,9M11,21V19H13V21H11Z" />
    </g>
    <g id="mdi-source-commit-start" transform="translate(360 180) scale(1.5)" fill="#555">
      <path d="M12,7A5,5 0 0,1 17,12C17,14.42 15.28,16.44 13,16.9V21H11V16.9C8.72,16.44 7,14.42 7,12A5,5 0 0,1 12,7M12,9A3,3 0 0,0 9,12A3,3 0 0,0 12,15A3,3 0 0,0 15,12A3,3 0 0,0 12,9Z" />
    </g>
    <g id="mdi-source-commit-start" transform="translate(396 180) scale(1.5)" fill="#fff">
      <path d="M12,7A5,5 0 0,1 17,12C17,14.42 15.28,16.44 13,16.9V21H11V16.9C8.72,16.44 7,14.42 7,12A5,5 0 0,1 12,7M12,9A3,3 0 0,0 9,12A3,3 0 0,0 12,15A3,3 0 0,0 15,12A3,3 0 0,0 12,9Z" />
    </g>
    <g id="mdi-source-commit-start-next-local" transform="translate(432 180) scale(1.5)" fill="#555">
      <path d="M12,7A5,5 0 0,1 17,12A5,5 0 0,1 12,17A5,5 0 0,1 7,12A5,5 0 0,1 12,7M12,9A3,3 0 0,0 9,12A3,3 0 0,0 12,15A3,3 0 0,0 15,12A3,3 0 0,0 12,9M11,21V19H13V21H11Z" />
    </g>
    <g id="mdi-source-commit-start-next-local" transform="translate(468 180) scale(1.5)" fill="#fff">
      <path d="M12,7A5,5 0 0,1 17,12A5,5 0 0,1 12,17A5,5 0 0,1 7,12A5,5 0 0,1 12,7M12,9A3,3 0 0,0 9,12A3,3 0 0,0 12,15A3,3 0 0,0 15,12A3,3 0 0,0 12,9M11,21V19H13V21H11Z" />
    </g>
    <g id="mdi-source-fork" transform="translate(504 180) scale(1.5)" fill="#555">
      <path d="M6,2A3,3 0 0,1 9,5C9,6.28 8.19,7.38 7.06,7.81C7.15,8.27 7.39,8.83 8,9.63C9,10.92 11,12.83 12,14.17C13,12.83 15,10.92 16,9.63C16.61,8.83 16.85,8.27 16.94,7.81C15.81,7.38 15,6.28 15,5A3,3 0 0,1 18,2A3,3 0 0,1 21,5C21,6.32 20.14,7.45 18.95,7.85C18.87,8.37 18.64,9 18,9.83C17,11.17 15,13.08 14,14.38C13.39,15.17 13.15,15.73 13.06,16.19C14.19,16.62 15,17.72 15,19A3,3 0 0,1 12,22A3,3 0 0,1 9,19C9,17.72 9.81,16.62 10.94,16.19C10.85,15.73 10.61,15.17 10,14.38C9,13.08 7,11.17 6,9.83C5.36,9 5.13,8.37 5.05,7.85C3.86,7.45 3,6.32 3,5A3,3 0 0,1 6,2M6,4A1,1 0 0,0 5,5A1,1 0 0,0 6,6A1,1 0 0,0 7,5A1,1 0 0,0 6,4M18,4A1,1 0 0,0 17,5A1,1 0 0,0 18,6A1,1 0 0,0 19,5A1,1 0 0,0 18,4M12,18A1,1 0 0,0 11,19A1,1 0 0,0 12,20A1,1 0 0,0 13,19A1,1 0 0,0 12,18Z" />
    </g>
    <g id="mdi-source-fork" transform="translate(540 180) scale(1.5)" fill="#fff">
      <path d="M6,2A3,3 0 0,1 9,5C9,6.28 8.19,7.38 7.06,7.81C7.15,8.27 7.39,8.83 8,9.63C9,10.92 11,12.83 12,14.17C13,12.83 15,10.92 16,9.63C16.61,8.83 16.85,8.27 16.94,7.81C15.81,7.38 15,6.28 15,5A3,3 0 0,1 18,2A3,3 0 0,1 21,5C21,6.32 20.14,7.45 18.95,7.85C18.87,8.37 18.64,9 18,9.83C17,11.17 15,13.08 14,14.38C13.39,15.17 13.15,15.73 13.06,16.19C14.19,16.62 15,17.72 15,19A3,3 0 0,1 12,22A3,3 0 0,1 9,19C9,17.72 9.81,16.62 10.94,16.19C10.85,15.73 10.61,15.17 10,14.38C9,13.08 7,11.17 6,9.83C5.36,9 5.13,8.37 5.05,7.85C3.86,7.45 3,6.32 3,5A3,3 0 0,1 6,2M6,4A1,1 0 0,0 5,5A1,1 0 0,0 6,6A1,1 0 0,0 7,5A1,1 0 0,0 6,4M18,4A1,1 0 0,0 17,5A1,1 0 0,0 18,6A1,1 0 0,0 19,5A1,1 0 0,0 18,4M12,18A1,1 0 0,0 11,19A1,1 0 0,0 12,20A1,1 0 0,0 13,19A1,1 0 0,0 12,18Z" />
    </g>
    <g id="mdi-source-merge" transform="translate(576 180) scale(1.5)" fill="#555">
      <path d="M7,3A3,3 0 0,1 10,6C10,7.29 9.19,8.39 8.04,8.81C8.58,13.81 13.08,14.77 15.19,14.96C15.61,13.81 16.71,13 18,13A3,3 0 0,1 21,16A3,3 0 0,1 18,19C16.69,19 15.57,18.16 15.16,17C10.91,16.8 9.44,15.19 8,13.39V15.17C9.17,15.58 10,16.69 10,18A3,3 0 0,1 7,21A3,3 0 0,1 4,18C4,16.69 4.83,15.58 6,15.17V8.83C4.83,8.42 4,7.31 4,6A3,3 0 0,1 7,3M7,5A1,1 0 0,0 6,6A1,1 0 0,0 7,7A1,1 0 0,0 8,6A1,1 0 0,0 7,5M7,17A1,1 0 0,0 6,18A1,1 0 0,0 7,19A1,1 0 0,0 8,18A1,1 0 0,0 7,17M18,15A1,1 0 0,0 17,16A1,1 0 0,0 18,17A1,1 0 0,0 19,16A1,1 0 0,0 18,15Z" />
    </g>
    <g id="mdi-source-merge" transform="translate(612 180) scale(1.5)" fill="#fff">
      <path d="M7,3A3,3 0 0,1 10,6C10,7.29 9.19,8.39 8.04,8.81C8.58,13.81 13.08,14.77 15.19,14.96C15.61,13.81 16.71,13 18,13A3,3 0 0,1 21,16A3,3 0 0,1 18,19C16.69,19 15.57,18.16 15.16,17C10.91,16.8 9.44,15.19 8,13.39V15.17C9.17,15.58 10,16.69 10,18A3,3 0 0,1 7,21A3,3 0 0,1 4,18C4,16.69 4.83,15.58 6,15.17V8.83C4.83,8.42 4,7.31 4,6A3,3 0 0,1 7,3M7,5A1,1 0 0,0 6,6A1,1 0 0,0 7,7A1,1 0 0,0 8,6A1,1 0 0,0 7,5M7,17A1,1 0 0,0 6,18A1,1 0 0,0 7,19A1,1 0 0,0 8,18A1,1 0 0,0 7,17M18,15A1,1 0 0,0 17,16A1,1 0 0,0 18,17A1,1 0 0,0 19,16A1,1 0 0,0 18,15Z" />
    </g>
    <g id="mdi-source-pull" transform="translate(648 180) scale(1.5)" fill="#555">
      <path d="M6,3A3,3 0 0,1 9,6C9,7.31 8.17,8.42 7,8.83V15.17C8.17,15.58 9,16.69 9,18A3,3 0 0,1 6,21A3,3 0 0,1 3,18C3,16.69 3.83,15.58 5,15.17V8.83C3.83,8.42 3,7.31 3,6A3,3 0 0,1 6,3M6,5A1,1 0 0,0 5,6A1,1 0 0,0 6,7A1,1 0 0,0 7,6A1,1 0 0,0 6,5M6,17A1,1 0 0,0 5,18A1,1 0 0,0 6,19A1,1 0 0,0 7,18A1,1 0 0,0 6,17M21,18A3,3 0 0,1 18,21A3,3 0 0,1 15,18C15,16.69 15.83,15.58 17,15.17V7H15V10.25L10.75,6L15,1.75V5H17A2,2 0 0,1 19,7V15.17C20.17,15.58 21,16.69 21,18M18,17A1,1 0 0,0 17,18A1,1 0 0,0 18,19A1,1 0 0,0 19,18A1,1 0 0,0 18,17Z" />
    </g>
    <g id="mdi-source-pull" transform="translate(684 180) scale(1.5)" fill="#fff">
      <path d="M6,3A3,3 0 0,1 9,6C9,7.31 8.17,8.42 7,8.83V15.17C8.17,15.58 9,16.69 9,18A3,3 0 0,1 6,21A3,3 0 0,1 3,18C3,16.69 3.83,15.58 5,15.17V8.83C3.83,8.42 3,7.31 3,6A3,3 0 0,1 6,3M6,5A1,1 0 0,0 5,6A1,1 0 0,0 6,7A1,1 0 0,0 7,6A1,1 0 0,0 6,5M6,17A1,1 0 0,0 5,18A1,1 0 0,0 6,19A1,1 0 0,0 7,18A1,1 0 0,0 6,17M21,18A3,3 0 0,1 18,21A3,3 0 0,1 15,18C15,16.69 15.83,15.58 17,15.17V7H15V10.25L10.75,6L15,1.75V5H17A2,2 0 0,1 19,7V15.17C20.17,15.58 21,16.69 21,18M18,17A1,1 0 0,0 17,18A1,1 0 0,0 18,19A1,1 0 0,0 19,18A1,1 0 0,0 18,17Z" />
    </g>
    <g id="mdi-source-repository" transform="translate(0 216) scale(1.5)" fill="#555">
      <path d="M6,2H18A2,2 0 0,1 20,4V20A2,2 0 0,1 18,22H6A2,2 0 0,1 4,20V4A2,2 0 0,1 6,2M12.75,13.5C15.5,13.5 16.24,11.47 16.43,10.4C17.34,10.11 18,9.26 18,8.25C18,7 17,6 15.75,6C14.5,6 13.5,7 13.5,8.25C13.5,9.19 14.07,10 14.89,10.33C14.67,11 14,12 12,12C10.62,12 9.66,12.35 9,12.84V8.87C9.87,8.56 10.5,7.73 10.5,6.75C10.5,5.5 9.5,4.5 8.25,4.5C7,4.5 6,5.5 6,6.75C6,7.73 6.63,8.56 7.5,8.87V15.13C6.63,15.44 6,16.27 6,17.25C6,18.5 7,19.5 8.25,19.5C9.5,19.5 10.5,18.5 10.5,17.25C10.5,16.32 9.94,15.5 9.13,15.18C9.41,14.5 10.23,13.5 12.75,13.5M8.25,16.5A0.75,0.75 0 0,1 9,17.25A0.75,0.75 0 0,1 8.25,18A0.75,0.75 0 0,1 7.5,17.25A0.75,0.75 0 0,1 8.25,16.5M8.25,6A0.75,0.75 0 0,1 9,6.75A0.75,0.75 0 0,1 8.25,7.5A0.75,0.75 0 0,1 7.5,6.75A0.75,0.75 0 0,1 8.25,6M15.75,7.5A0.75,0.75 0 0,1 16.5,8.25A0.75,0.75 0 0,1 15.75,9A0.75,0.75 0 0,1 15,8.25A0.75,0.75 0 0,1 15.75,7.5Z" />
    </g>
    <g id="mdi-source-repository" transform="translate(36 216) scale(1.5)" fill="#fff">
      <path d="M6,2H18A2,2 0 0,1 20,4V20A2,2 0 0,1 18,22H6A2,2 0 0,1 4,20V4A2,2 0 0,1 6,2M12.75,13.5C15.5,13.5 16.24,11.47 16.43,10.4C17.34,10.11 18,9.26 18,8.25C18,7 17,6 15.75,6C14.5,6 13.5,7 13.5,8.25C13.5,9.19 14.07,10 14.89,10.33C14.67,11 14,12 12,12C10.62,12 9.66,12.35 9,12.84V8.87C9.87,8.56 10.5,7.73 10.5,6.75C10.5,5.5 9.5,4.5 8.25,4.5C7,4.5 6,5.5 6,6.75C6,7.73 6.63,8.56 7.5,8.87V15.13C6.63,15.44 6,16.27 6,17.25C6,18.5 7,19.5 8.25,19.5C9.5,19.5 10.5,18.5 10.5,17.25C10.5,16.32 9.94,15.5 9.13,15.18C9.41,14.5 10.23,13.5 12.75,13.5M8.25,16.5A0.75,0.75 0 0,1 9,17.25A0.75,0.75 0 0,1 8.25,18A0.75,0.75 0 0,1 7.5,17.25A0.75,0.75 0 0,1 8.25,16.5M8.25,6A0.75,0.75 0 0,1 9,6.75A0.75,0.75 0 0,1 8.25,7.5A0.75,0.75 0 0,1 7.5,6.75A0.75,0.75 0 0,1 8.25,6M15.75,7.5A0.75,0.75 0 0,1 16.5,8.25A0.75,0.75 0 0,1 15.75,9A0.75,0.75 0 0,1 15,8.25A0.75,0.75 0 0,1 15.75,7.5Z" />
    </g>
    <g id="mdi-source-repository-multiple" transform="translate(72 216) scale(1.5)" fill="#555">
      <path d="M8,0H20A2,2 0 0,1 22,2V18A2,2 0 0,1 20,20H8A2,2 0 0,1 6,18V2A2,2 0 0,1 8,0M14.75,11.5C17.5,11.5 18.24,9.47 18.43,8.4C19.34,8.11 20,7.26 20,6.25C20,5 19,4 17.75,4C16.5,4 15.5,5 15.5,6.25C15.5,7.19 16.07,8 16.89,8.33C16.67,9 16,10 14,10C12.62,10 11.66,10.35 11,10.84V6.87C11.87,6.56 12.5,5.73 12.5,4.75C12.5,3.5 11.5,2.5 10.25,2.5C9,2.5 8,3.5 8,4.75C8,5.73 8.63,6.56 9.5,6.87V13.13C8.63,13.44 8,14.27 8,15.25C8,16.5 9,17.5 10.25,17.5C11.5,17.5 12.5,16.5 12.5,15.25C12.5,14.32 11.94,13.5 11.13,13.18C11.41,12.5 12.23,11.5 14.75,11.5M10.25,14.5A0.75,0.75 0 0,1 11,15.25A0.75,0.75 0 0,1 10.25,16A0.75,0.75 0 0,1 9.5,15.25A0.75,0.75 0 0,1 10.25,14.5M10.25,4A0.75,0.75 0 0,1 11,4.75A0.75,0.75 0 0,1 10.25,5.5A0.75,0.75 0 0,1 9.5,4.75A0.75,0.75 0 0,1 10.25,4M17.75,5.5A0.75,0.75 0 0,1 18.5,6.25A0.75,0.75 0 0,1 17.75,7A0.75,0.75 0 0,1 17,6.25A0.75,0.75 0 0,1 17.75,5.5M16,22V24H4A2,2 0 0,1 2,22V6H4V22H16Z" />
    </g>
    <g id="mdi-source-repository-multiple" transform="translate(108 216) scale(1.5)" fill="#fff">
      <path d="M8,0H20A2,2 0 0,1 22,2V18A2,2 0 0,1 20,20H8A2,2 0 0,1 6,18V2A2,2 0 0,1 8,0M14.75,11.5C17.5,11.5 18.24,9.47 18.43,8.4C19.34,8.11 20,7.26 20,6.25C20,5 19,4 17.75,4C16.5,4 15.5,5 15.5,6.25C15.5,7.19 16.07,8 16.89,8.33C16.67,9 16,10 14,10C12.62,10 11.66,10.35 11,10.84V6.87C11.87,6.56 12.5,5.73 12.5,4.75C12.5,3.5 11.5,2.5 10.25,2.5C9,2.5 8,3.5 8,4.75C8,5.73 8.63,6.56 9.5,6.87V13.13C8.63,13.44 8,14.27 8,15.25C8,16.5 9,17.5 10.25,17.5C11.5,17.5 12.5,16.5 12.5,15.25C12.5,14.32 11.94,13.5 11.13,13.18C11.41,12.5 12.23,11.5 14.75,11.5M10.25,14.5A0.75,0.75 0 0,1 11,15.25A0.75,0.75 0 0,1 10.25,16A0.75,0.75 0 0,1 9.5,15.25A0.75,0.75 0 0,1 10.25,14.5M10.25,4A0.75,0.75 0 0,1 11,4.75A0.75,0.75 0 0,1 10.25,5.5A0.75,0.75 0 0,1 9.5,4.75A0.75,0.75 0 0,1 10.25,4M17.75,5.5A0.75,0.75 0 0,1 18.5,6.25A0.75,0.75 0 0,1 17.75,7A0.75,0.75 0 0,1 17,6.25A0.75,0.75 0 0,1 17.75,5.5M16,22V24H4A2,2 0 0,1 2,22V6H4V22H16Z" />
    </g>
    <g id="mdi-soy-sauce" transform="translate(144 216) scale(1.5)" fill="#555">
      <path d="M13.9,7.5C13.9,6.8 14.1,6.3 14.2,6H14.8L15.7,3.5H16.5V2H7.5V3.5H8.3L9.2,6H9.8C10,6.3 10.1,6.8 10.1,7.5C10.1,8.8 6,13.7 6,17.6V19.6C6,21 8.7,21.9 12,21.9C15.3,21.9 18,21 18,19.6V17.6C18,13.7 13.9,8.8 13.9,7.5M12,15A2,2 0 0,1 10,13A2,2 0 0,1 12,11A2,2 0 0,1 14,13A2,2 0 0,1 12,15Z" />
    </g>
    <g id="mdi-soy-sauce" transform="translate(180 216) scale(1.5)" fill="#fff">
      <path d="M13.9,7.5C13.9,6.8 14.1,6.3 14.2,6H14.8L15.7,3.5H16.5V2H7.5V3.5H8.3L9.2,6H9.8C10,6.3 10.1,6.8 10.1,7.5C10.1,8.8 6,13.7 6,17.6V19.6C6,21 8.7,21.9 12,21.9C15.3,21.9 18,21 18,19.6V17.6C18,13.7 13.9,8.8 13.9,7.5M12,15A2,2 0 0,1 10,13A2,2 0 0,1 12,11A2,2 0 0,1 14,13A2,2 0 0,1 12,15Z" />
    </g>
    <g id="mdi-soy-sauce-off" transform="translate(216 216) scale(1.5)" fill="#555">
      <path d="M22.1 21.5L2.4 1.7L1.1 3L8.6 10.5C7.5 12.6 6 15.3 6 17.6V19.6C6 21 8.7 21.9 12 21.9C15.1 21.9 17.7 21.1 18 19.9L20.9 22.8L22.1 21.5M12 15C10.9 15 10 14.1 10 13C10 12.7 10.1 12.4 10.2 12.1L12.9 14.8C12.6 14.9 12.3 15 12 15M8.3 3.5H7.5V2H16.5V3.5H15.7L14.8 6H14.2C14.1 6.3 13.9 6.8 13.9 7.5C13.9 8.4 15.9 11 17.1 13.9L10.1 6.9C10 6.5 9.9 6.2 9.8 6H9.2L8.3 3.5Z" />
    </g>
    <g id="mdi-soy-sauce-off" transform="translate(252 216) scale(1.5)" fill="#fff">
      <path d="M22.1 21.5L2.4 1.7L1.1 3L8.6 10.5C7.5 12.6 6 15.3 6 17.6V19.6C6 21 8.7 21.9 12 21.9C15.1 21.9 17.7 21.1 18 19.9L20.9 22.8L22.1 21.5M12 15C10.9 15 10 14.1 10 13C10 12.7 10.1 12.4 10.2 12.1L12.9 14.8C12.6 14.9 12.3 15 12 15M8.3 3.5H7.5V2H16.5V3.5H15.7L14.8 6H14.2C14.1 6.3 13.9 6.8 13.9 7.5C13.9 8.4 15.9 11 17.1 13.9L10.1 6.9C10 6.5 9.9 6.2 9.8 6H9.2L8.3 3.5Z" />
    </g>
    <g id="mdi-spa" transform="translate(288 216) scale(1.5)" fill="#555">
      <path d="M15.5,9.63C15.31,6.84 14.18,4.12 12.06,2C9.92,4.14 8.74,6.86 8.5,9.63C9.79,10.31 10.97,11.19 12,12.26C13.03,11.2 14.21,10.32 15.5,9.63M12,15.45C9.85,12.17 6.18,10 2,10C2,20 11.32,21.89 12,22C12.68,21.88 22,20 22,10C17.82,10 14.15,12.17 12,15.45Z" />
    </g>
    <g id="mdi-spa" transform="translate(324 216) scale(1.5)" fill="#fff">
      <path d="M15.5,9.63C15.31,6.84 14.18,4.12 12.06,2C9.92,4.14 8.74,6.86 8.5,9.63C9.79,10.31 10.97,11.19 12,12.26C13.03,11.2 14.21,10.32 15.5,9.63M12,15.45C9.85,12.17 6.18,10 2,10C2,20 11.32,21.89 12,22C12.68,21.88 22,20 22,10C17.82,10 14.15,12.17 12,15.45Z" />
    </g>
    <g id="mdi-spa-outline" transform="translate(360 216) scale(1.5)" fill="#555">
      <path d="M15.5,9.63C14.21,10.32 13.03,11.2 12,12.26C10.97,11.19 9.79,10.31 8.5,9.63C8.74,6.86 9.92,4.14 12.06,2C14.18,4.12 15.31,6.84 15.5,9.63M12,15.45C14.15,12.17 17.82,10 22,10C22,20 12.68,21.88 12,22C11.32,21.89 2,20 2,10C6.18,10 9.85,12.17 12,15.45M12.05,5.19C11.39,6.23 10.93,7.38 10.68,8.58L12,9.55L13.35,8.57C13.12,7.37 12.68,6.22 12.05,5.19M12,19.97C12,19.97 18,19 19.74,12.25C14,14 12,19.1 12,19.1C12,19.1 9,13 4.26,12.26C6,19 12,19.97 12,19.97Z" />
    </g>
    <g id="mdi-spa-outline" transform="translate(396 216) scale(1.5)" fill="#fff">
      <path d="M15.5,9.63C14.21,10.32 13.03,11.2 12,12.26C10.97,11.19 9.79,10.31 8.5,9.63C8.74,6.86 9.92,4.14 12.06,2C14.18,4.12 15.31,6.84 15.5,9.63M12,15.45C14.15,12.17 17.82,10 22,10C22,20 12.68,21.88 12,22C11.32,21.89 2,20 2,10C6.18,10 9.85,12.17 12,15.45M12.05,5.19C11.39,6.23 10.93,7.38 10.68,8.58L12,9.55L13.35,8.57C13.12,7.37 12.68,6.22 12.05,5.19M12,19.97C12,19.97 18,19 19.74,12.25C14,14 12,19.1 12,19.1C12,19.1 9,13 4.26,12.26C6,19 12,19.97 12,19.97Z" />
    </g>
    <g id="mdi-space-invaders" transform="translate(432 216) scale(1.5)" fill="#555">
      <path d="M7,6H5V4H7V6M17,6H19V4H17V6M23,12V18H21V14H19V18H17V16H7V18H5V14H3V18H1V12H3V10H5V8H7V6H9V8H15V6H17V8H19V10H21V12H23M15,10V12H17V10H15M7,12H9V10H7V12M11,18H7V20H11V18M17,18H13V20H17V18Z" />
    </g>
    <g id="mdi-space-invaders" transform="translate(468 216) scale(1.5)" fill="#fff">
      <path d="M7,6H5V4H7V6M17,6H19V4H17V6M23,12V18H21V14H19V18H17V16H7V18H5V14H3V18H1V12H3V10H5V8H7V6H9V8H15V6H17V8H19V10H21V12H23M15,10V12H17V10H15M7,12H9V10H7V12M11,18H7V20H11V18M17,18H13V20H17V18Z" />
    </g>
    <g id="mdi-space-station" transform="translate(504 216) scale(1.5)" fill="#555">
      <path d="M15.5 19V21H13.73C13.39 21.6 12.74 22 12 22C11.26 22 10.61 21.6 10.27 21H8.5V19H10.27C10.44 18.7 10.7 18.44 11 18.27V17H10C9.45 17 9 16.55 9 16V13H6V17C6 17.55 5.55 18 5 18H3C2.45 18 2 17.55 2 17V8C2 7.45 2.45 7 3 7H5C5.55 7 6 7.45 6 8V11H9V8C9 7.45 9.45 7 10 7H11V6H10C9.45 6 9 5.55 9 5V4C9 3.45 9.45 3 10 3H14C14.55 3 15 3.45 15 4V5C15 5.55 14.55 6 14 6H13V7H14C14.55 7 15 7.45 15 8V11H18V8C18 7.45 18.45 7 19 7H21C21.55 7 22 7.45 22 8V17C22 17.55 21.55 18 21 18H19C18.45 18 18 17.55 18 17V13H15V16C15 16.55 14.55 17 14 17H13V18.27C13.3 18.44 13.56 18.7 13.73 19H15.5M3 16V17H5V16H3M3 14V15H5V14H3M3 12V13H5V12H3M3 10V11H5V10H3M3 8V9H5V8H3M19 16V17H21V16H19M19 14V15H21V14H19M19 12V13H21V12H19M19 10V11H21V10H19M19 8V9H21V8H19Z" />
    </g>
    <g id="mdi-space-station" transform="translate(540 216) scale(1.5)" fill="#fff">
      <path d="M15.5 19V21H13.73C13.39 21.6 12.74 22 12 22C11.26 22 10.61 21.6 10.27 21H8.5V19H10.27C10.44 18.7 10.7 18.44 11 18.27V17H10C9.45 17 9 16.55 9 16V13H6V17C6 17.55 5.55 18 5 18H3C2.45 18 2 17.55 2 17V8C2 7.45 2.45 7 3 7H5C5.55 7 6 7.45 6 8V11H9V8C9 7.45 9.45 7 10 7H11V6H10C9.45 6 9 5.55 9 5V4C9 3.45 9.45 3 10 3H14C14.55 3 15 3.45 15 4V5C15 5.55 14.55 6 14 6H13V7H14C14.55 7 15 7.45 15 8V11H18V8C18 7.45 18.45 7 19 7H21C21.55 7 22 7.45 22 8V17C22 17.55 21.55 18 21 18H19C18.45 18 18 17.55 18 17V13H15V16C15 16.55 14.55 17 14 17H13V18.27C13.3 18.44 13.56 18.7 13.73 19H15.5M3 16V17H5V16H3M3 14V15H5V14H3M3 12V13H5V12H3M3 10V11H5V10H3M3 8V9H5V8H3M19 16V17H21V16H19M19 14V15H21V14H19M19 12V13H21V12H19M19 10V11H21V10H19M19 8V9H21V8H19Z" />
    </g>
    <g id="mdi-spade" transform="translate(576 216) scale(1.5)" fill="#555">
      <path d="M15.71,1.22L12.88,4.05C12.1,4.83 12.1,6.09 12.88,6.87L14.3,8.29L10.06,12.53L7.58,10.06L1.22,16.42L7.58,22.78L13.94,16.42L11.47,13.94L15.71,9.7L17.13,11.12C17.91,11.9 19.17,11.9 19.95,11.12L22.78,8.29L15.71,1.22M15.71,4.05L19.95,8.29L18.54,9.7L14.3,5.46L15.71,4.05Z" />
    </g>
    <g id="mdi-spade" transform="translate(612 216) scale(1.5)" fill="#fff">
      <path d="M15.71,1.22L12.88,4.05C12.1,4.83 12.1,6.09 12.88,6.87L14.3,8.29L10.06,12.53L7.58,10.06L1.22,16.42L7.58,22.78L13.94,16.42L11.47,13.94L15.71,9.7L17.13,11.12C17.91,11.9 19.17,11.9 19.95,11.12L22.78,8.29L15.71,1.22M15.71,4.05L19.95,8.29L18.54,9.7L14.3,5.46L15.71,4.05Z" />
    </g>
    <g id="mdi-sparkles" transform="translate(648 216) scale(1.5)" fill="#555">
      <path d="M10.6 9.6L9 15L7.4 9.6L2 8L7.4 6.4L9 1L10.6 6.4L16 8L10.6 9.6M17 14.2L21 12L18.8 16L21 20L17 17.8L13 20L15.2 16L13 12L17 14.2M10 16L8.3 19L10 22L7 20.3L4 22L5.7 19L4 16L7 17.7L10 16" />
    </g>
    <g id="mdi-sparkles" transform="translate(684 216) scale(1.5)" fill="#fff">
      <path d="M10.6 9.6L9 15L7.4 9.6L2 8L7.4 6.4L9 1L10.6 6.4L16 8L10.6 9.6M17 14.2L21 12L18.8 16L21 20L17 17.8L13 20L15.2 16L13 12L17 14.2M10 16L8.3 19L10 22L7 20.3L4 22L5.7 19L4 16L7 17.7L10 16" />
    </g>
    <g id="mdi-speaker" transform="translate(0 252) scale(1.5)" fill="#555">
      <path d="M12,12A3,3 0 0,0 9,15A3,3 0 0,0 12,18A3,3 0 0,0 15,15A3,3 0 0,0 12,12M12,20A5,5 0 0,1 7,15A5,5 0 0,1 12,10A5,5 0 0,1 17,15A5,5 0 0,1 12,20M12,4A2,2 0 0,1 14,6A2,2 0 0,1 12,8C10.89,8 10,7.1 10,6C10,4.89 10.89,4 12,4M17,2H7C5.89,2 5,2.89 5,4V20A2,2 0 0,0 7,22H17A2,2 0 0,0 19,20V4C19,2.89 18.1,2 17,2Z" />
    </g>
    <g id="mdi-speaker" transform="translate(36 252) scale(1.5)" fill="#fff">
      <path d="M12,12A3,3 0 0,0 9,15A3,3 0 0,0 12,18A3,3 0 0,0 15,15A3,3 0 0,0 12,12M12,20A5,5 0 0,1 7,15A5,5 0 0,1 12,10A5,5 0 0,1 17,15A5,5 0 0,1 12,20M12,4A2,2 0 0,1 14,6A2,2 0 0,1 12,8C10.89,8 10,7.1 10,6C10,4.89 10.89,4 12,4M17,2H7C5.89,2 5,2.89 5,4V20A2,2 0 0,0 7,22H17A2,2 0 0,0 19,20V4C19,2.89 18.1,2 17,2Z" />
    </g>
    <g id="mdi-speaker-bluetooth" transform="translate(72 252) scale(1.5)" fill="#555">
      <path d="M4,3A2,2 0 0,0 2,5V19A2,2 0 0,0 4,21H12A2,2 0 0,0 14,19V5A2,2 0 0,0 12,3H4M8,5A2,2 0 0,1 10,7A2,2 0 0,1 8,9A2,2 0 0,1 6,7A2,2 0 0,1 8,5M19,7V10.79L16.71,8.5L16,9.21L18.79,12L16,14.79L16.71,15.5L19,13.21V17H19.5L22.35,14.14L20.21,12L22.35,9.85L19.5,7H19M20,8.91L20.94,9.85L20,10.79V8.91M8,11A4,4 0 0,1 12,15A4,4 0 0,1 8,19A4,4 0 0,1 4,15A4,4 0 0,1 8,11M8,13A2,2 0 0,0 6,15A2,2 0 0,0 8,17A2,2 0 0,0 10,15A2,2 0 0,0 8,13M20,13.21L20.94,14.14L20,15.08V13.21Z" />
    </g>
    <g id="mdi-speaker-bluetooth" transform="translate(108 252) scale(1.5)" fill="#fff">
      <path d="M4,3A2,2 0 0,0 2,5V19A2,2 0 0,0 4,21H12A2,2 0 0,0 14,19V5A2,2 0 0,0 12,3H4M8,5A2,2 0 0,1 10,7A2,2 0 0,1 8,9A2,2 0 0,1 6,7A2,2 0 0,1 8,5M19,7V10.79L16.71,8.5L16,9.21L18.79,12L16,14.79L16.71,15.5L19,13.21V17H19.5L22.35,14.14L20.21,12L22.35,9.85L19.5,7H19M20,8.91L20.94,9.85L20,10.79V8.91M8,11A4,4 0 0,1 12,15A4,4 0 0,1 8,19A4,4 0 0,1 4,15A4,4 0 0,1 8,11M8,13A2,2 0 0,0 6,15A2,2 0 0,0 8,17A2,2 0 0,0 10,15A2,2 0 0,0 8,13M20,13.21L20.94,14.14L20,15.08V13.21Z" />
    </g>
    <g id="mdi-speaker-multiple" transform="translate(144 252) scale(1.5)" fill="#555">
      <path d="M14,10A3,3 0 0,0 11,13A3,3 0 0,0 14,16A3,3 0 0,0 17,13A3,3 0 0,0 14,10M14,18A5,5 0 0,1 9,13A5,5 0 0,1 14,8A5,5 0 0,1 19,13A5,5 0 0,1 14,18M14,2A2,2 0 0,1 16,4A2,2 0 0,1 14,6A2,2 0 0,1 12,4A2,2 0 0,1 14,2M19,0H9A2,2 0 0,0 7,2V18A2,2 0 0,0 9,20H19A2,2 0 0,0 21,18V2A2,2 0 0,0 19,0M5,22H17V24H5A2,2 0 0,1 3,22V4H5" />
    </g>
    <g id="mdi-speaker-multiple" transform="translate(180 252) scale(1.5)" fill="#fff">
      <path d="M14,10A3,3 0 0,0 11,13A3,3 0 0,0 14,16A3,3 0 0,0 17,13A3,3 0 0,0 14,10M14,18A5,5 0 0,1 9,13A5,5 0 0,1 14,8A5,5 0 0,1 19,13A5,5 0 0,1 14,18M14,2A2,2 0 0,1 16,4A2,2 0 0,1 14,6A2,2 0 0,1 12,4A2,2 0 0,1 14,2M19,0H9A2,2 0 0,0 7,2V18A2,2 0 0,0 9,20H19A2,2 0 0,0 21,18V2A2,2 0 0,0 19,0M5,22H17V24H5A2,2 0 0,1 3,22V4H5" />
    </g>
    <g id="mdi-speaker-off" transform="translate(216 252) scale(1.5)" fill="#555">
      <path d="M2,5.27L3.28,4L21,21.72L19.73,23L18.27,21.54C17.93,21.83 17.5,22 17,22H7C5.89,22 5,21.1 5,20V8.27L2,5.27M12,18A3,3 0 0,1 9,15C9,14.24 9.28,13.54 9.75,13L8.33,11.6C7.5,12.5 7,13.69 7,15A5,5 0 0,0 12,20C13.31,20 14.5,19.5 15.4,18.67L14,17.25C13.45,17.72 12.76,18 12,18M17,15A5,5 0 0,0 12,10H11.82L5.12,3.3C5.41,2.54 6.14,2 7,2H17A2,2 0 0,1 19,4V17.18L17,15.17V15M12,4C10.89,4 10,4.89 10,6A2,2 0 0,0 12,8A2,2 0 0,0 14,6C14,4.89 13.1,4 12,4Z" />
    </g>
    <g id="mdi-speaker-off" transform="translate(252 252) scale(1.5)" fill="#fff">
      <path d="M2,5.27L3.28,4L21,21.72L19.73,23L18.27,21.54C17.93,21.83 17.5,22 17,22H7C5.89,22 5,21.1 5,20V8.27L2,5.27M12,18A3,3 0 0,1 9,15C9,14.24 9.28,13.54 9.75,13L8.33,11.6C7.5,12.5 7,13.69 7,15A5,5 0 0,0 12,20C13.31,20 14.5,19.5 15.4,18.67L14,17.25C13.45,17.72 12.76,18 12,18M17,15A5,5 0 0,0 12,10H11.82L5.12,3.3C5.41,2.54 6.14,2 7,2H17A2,2 0 0,1 19,4V17.18L17,15.17V15M12,4C10.89,4 10,4.89 10,6A2,2 0 0,0 12,8A2,2 0 0,0 14,6C14,4.89 13.1,4 12,4Z" />
    </g>
    <g id="mdi-speaker-wireless" transform="translate(288 252) scale(1.5)" fill="#555">
      <path d="M20.07,19.07L18.66,17.66C20.11,16.22 21,14.21 21,12C21,9.78 20.11,7.78 18.66,6.34L20.07,4.93C21.88,6.74 23,9.24 23,12C23,14.76 21.88,17.26 20.07,19.07M17.24,16.24L15.83,14.83C16.55,14.11 17,13.11 17,12C17,10.89 16.55,9.89 15.83,9.17L17.24,7.76C18.33,8.85 19,10.35 19,12C19,13.65 18.33,15.15 17.24,16.24M4,3H12A2,2 0 0,1 14,5V19A2,2 0 0,1 12,21H4A2,2 0 0,1 2,19V5A2,2 0 0,1 4,3M8,5A2,2 0 0,0 6,7A2,2 0 0,0 8,9A2,2 0 0,0 10,7A2,2 0 0,0 8,5M8,11A4,4 0 0,0 4,15A4,4 0 0,0 8,19A4,4 0 0,0 12,15A4,4 0 0,0 8,11M8,13A2,2 0 0,1 10,15A2,2 0 0,1 8,17A2,2 0 0,1 6,15A2,2 0 0,1 8,13Z" />
    </g>
    <g id="mdi-speaker-wireless" transform="translate(324 252) scale(1.5)" fill="#fff">
      <path d="M20.07,19.07L18.66,17.66C20.11,16.22 21,14.21 21,12C21,9.78 20.11,7.78 18.66,6.34L20.07,4.93C21.88,6.74 23,9.24 23,12C23,14.76 21.88,17.26 20.07,19.07M17.24,16.24L15.83,14.83C16.55,14.11 17,13.11 17,12C17,10.89 16.55,9.89 15.83,9.17L17.24,7.76C18.33,8.85 19,10.35 19,12C19,13.65 18.33,15.15 17.24,16.24M4,3H12A2,2 0 0,1 14,5V19A2,2 0 0,1 12,21H4A2,2 0 0,1 2,19V5A2,2 0 0,1 4,3M8,5A2,2 0 0,0 6,7A2,2 0 0,0 8,9A2,2 0 0,0 10,7A2,2 0 0,0 8,5M8,11A4,4 0 0,0 4,15A4,4 0 0,0 8,19A4,4 0 0,0 12,15A4,4 0 0,0 8,11M8,13A2,2 0 0,1 10,15A2,2 0 0,1 8,17A2,2 0 0,1 6,15A2,2 0 0,1 8,13Z" />
    </g>
    <g id="mdi-speedometer" transform="translate(360 252) scale(1.5)" fill="#555">
      <path d="M12,16A3,3 0 0,1 9,13C9,11.88 9.61,10.9 10.5,10.39L20.21,4.77L14.68,14.35C14.18,15.33 13.17,16 12,16M12,3C13.81,3 15.5,3.5 16.97,4.32L14.87,5.53C14,5.19 13,5 12,5A8,8 0 0,0 4,13C4,15.21 4.89,17.21 6.34,18.65H6.35C6.74,19.04 6.74,19.67 6.35,20.06C5.96,20.45 5.32,20.45 4.93,20.07V20.07C3.12,18.26 2,15.76 2,13A10,10 0 0,1 12,3M22,13C22,15.76 20.88,18.26 19.07,20.07V20.07C18.68,20.45 18.05,20.45 17.66,20.06C17.27,19.67 17.27,19.04 17.66,18.65V18.65C19.11,17.2 20,15.21 20,13C20,12 19.81,11 19.46,10.1L20.67,8C21.5,9.5 22,11.18 22,13Z" />
    </g>
    <g id="mdi-speedometer" transform="translate(396 252) scale(1.5)" fill="#fff">
      <path d="M12,16A3,3 0 0,1 9,13C9,11.88 9.61,10.9 10.5,10.39L20.21,4.77L14.68,14.35C14.18,15.33 13.17,16 12,16M12,3C13.81,3 15.5,3.5 16.97,4.32L14.87,5.53C14,5.19 13,5 12,5A8,8 0 0,0 4,13C4,15.21 4.89,17.21 6.34,18.65H6.35C6.74,19.04 6.74,19.67 6.35,20.06C5.96,20.45 5.32,20.45 4.93,20.07V20.07C3.12,18.26 2,15.76 2,13A10,10 0 0,1 12,3M22,13C22,15.76 20.88,18.26 19.07,20.07V20.07C18.68,20.45 18.05,20.45 17.66,20.06C17.27,19.67 17.27,19.04 17.66,18.65V18.65C19.11,17.2 20,15.21 20,13C20,12 19.81,11 19.46,10.1L20.67,8C21.5,9.5 22,11.18 22,13Z" />
    </g>
    <g id="mdi-speedometer-medium" transform="translate(432 252) scale(1.5)" fill="#555">
      <path d="M12 1.38L9.14 12.06C8.8 13.1 9.04 14.29 9.86 15.12C11.04 16.29 12.94 16.29 14.11 15.12C14.9 14.33 15.16 13.2 14.89 12.21M14.6 3.35L15.22 5.68C18.04 6.92 20 9.73 20 13C20 15.21 19.11 17.21 17.66 18.65H17.65C17.26 19.04 17.26 19.67 17.65 20.06C18.04 20.45 18.68 20.45 19.07 20.07C20.88 18.26 22 15.76 22 13C22 8.38 18.86 4.5 14.6 3.35M9.4 3.36C5.15 4.5 2 8.4 2 13C2 15.76 3.12 18.26 4.93 20.07C5.32 20.45 5.95 20.45 6.34 20.06C6.73 19.67 6.73 19.04 6.34 18.65C4.89 17.2 4 15.21 4 13C4 9.65 5.94 6.86 8.79 5.65" />
    </g>
    <g id="mdi-speedometer-medium" transform="translate(468 252) scale(1.5)" fill="#fff">
      <path d="M12 1.38L9.14 12.06C8.8 13.1 9.04 14.29 9.86 15.12C11.04 16.29 12.94 16.29 14.11 15.12C14.9 14.33 15.16 13.2 14.89 12.21M14.6 3.35L15.22 5.68C18.04 6.92 20 9.73 20 13C20 15.21 19.11 17.21 17.66 18.65H17.65C17.26 19.04 17.26 19.67 17.65 20.06C18.04 20.45 18.68 20.45 19.07 20.07C20.88 18.26 22 15.76 22 13C22 8.38 18.86 4.5 14.6 3.35M9.4 3.36C5.15 4.5 2 8.4 2 13C2 15.76 3.12 18.26 4.93 20.07C5.32 20.45 5.95 20.45 6.34 20.06C6.73 19.67 6.73 19.04 6.34 18.65C4.89 17.2 4 15.21 4 13C4 9.65 5.94 6.86 8.79 5.65" />
    </g>
    <g id="mdi-speedometer-slow" transform="translate(504 252) scale(1.5)" fill="#555">
      <path d="M12 16C13.66 16 15 14.66 15 13C15 11.88 14.39 10.9 13.5 10.39L3.79 4.77L9.32 14.35C9.82 15.33 10.83 16 12 16M12 3C10.19 3 8.5 3.5 7.03 4.32L9.13 5.53C10 5.19 11 5 12 5C16.42 5 20 8.58 20 13C20 15.21 19.11 17.21 17.66 18.65H17.65C17.26 19.04 17.26 19.67 17.65 20.06C18.04 20.45 18.68 20.45 19.07 20.07C20.88 18.26 22 15.76 22 13C22 7.5 17.5 3 12 3M2 13C2 15.76 3.12 18.26 4.93 20.07C5.32 20.45 5.95 20.45 6.34 20.06C6.73 19.67 6.73 19.04 6.34 18.65C4.89 17.2 4 15.21 4 13C4 12 4.19 11 4.54 10.1L3.33 8C2.5 9.5 2 11.18 2 13Z" />
    </g>
    <g id="mdi-speedometer-slow" transform="translate(540 252) scale(1.5)" fill="#fff">
      <path d="M12 16C13.66 16 15 14.66 15 13C15 11.88 14.39 10.9 13.5 10.39L3.79 4.77L9.32 14.35C9.82 15.33 10.83 16 12 16M12 3C10.19 3 8.5 3.5 7.03 4.32L9.13 5.53C10 5.19 11 5 12 5C16.42 5 20 8.58 20 13C20 15.21 19.11 17.21 17.66 18.65H17.65C17.26 19.04 17.26 19.67 17.65 20.06C18.04 20.45 18.68 20.45 19.07 20.07C20.88 18.26 22 15.76 22 13C22 7.5 17.5 3 12 3M2 13C2 15.76 3.12 18.26 4.93 20.07C5.32 20.45 5.95 20.45 6.34 20.06C6.73 19.67 6.73 19.04 6.34 18.65C4.89 17.2 4 15.21 4 13C4 12 4.19 11 4.54 10.1L3.33 8C2.5 9.5 2 11.18 2 13Z" />
    </g>
    <g id="mdi-spellcheck" transform="translate(576 252) scale(1.5)" fill="#555">
      <path d="M21.59,11.59L13.5,19.68L9.83,16L8.42,17.41L13.5,22.5L23,13M6.43,11L8.5,5.5L10.57,11M12.45,16H14.54L9.43,3H7.57L2.46,16H4.55L5.67,13H11.31L12.45,16Z" />
    </g>
    <g id="mdi-spellcheck" transform="translate(612 252) scale(1.5)" fill="#fff">
      <path d="M21.59,11.59L13.5,19.68L9.83,16L8.42,17.41L13.5,22.5L23,13M6.43,11L8.5,5.5L10.57,11M12.45,16H14.54L9.43,3H7.57L2.46,16H4.55L5.67,13H11.31L12.45,16Z" />
    </g>
    <g id="mdi-spider" transform="translate(648 252) scale(1.5)" fill="#555">
      <path d="M21.29 16.71L22.71 15.29L19.5 12.11L16.5 11.26L18.41 11L22.6 7.8L21.4 6.2L17.59 9.05L14.91 9.5L18.11 6.31L17 1.76L15 2.24L15.86 5.69L14.76 6.83A3 3 0 0 0 9.24 6.83L8.11 5.69L9 2.24L7 1.76L5.89 6.31L9.09 9.5L6.4 9.05L2.6 6.2L1.4 7.8L5.6 11L7.46 11.31L4.46 12.16L1.29 15.29L2.71 16.71L5.5 13.89L7.87 13.22L4 16.54V22H6V17.46L7.56 16.12A4.5 4.5 0 0 0 16.44 16.12L18 17.46V22H20V16.54L16.13 13.22L18.5 13.89Z" />
    </g>
    <g id="mdi-spider" transform="translate(684 252) scale(1.5)" fill="#fff">
      <path d="M21.29 16.71L22.71 15.29L19.5 12.11L16.5 11.26L18.41 11L22.6 7.8L21.4 6.2L17.59 9.05L14.91 9.5L18.11 6.31L17 1.76L15 2.24L15.86 5.69L14.76 6.83A3 3 0 0 0 9.24 6.83L8.11 5.69L9 2.24L7 1.76L5.89 6.31L9.09 9.5L6.4 9.05L2.6 6.2L1.4 7.8L5.6 11L7.46 11.31L4.46 12.16L1.29 15.29L2.71 16.71L5.5 13.89L7.87 13.22L4 16.54V22H6V17.46L7.56 16.12A4.5 4.5 0 0 0 16.44 16.12L18 17.46V22H20V16.54L16.13 13.22L18.5 13.89Z" />
    </g>
    <g id="mdi-spider-thread" transform="translate(0 288) scale(1.5)" fill="#555">
      <path d="M13 2V7.08A5.47 5.47 0 0 0 12 7A5.47 5.47 0 0 0 11 7.08V2M16.9 15A5 5 0 0 1 16.73 15.55L20 17.42V22H18V18.58L15.74 17.29A4.94 4.94 0 0 1 8.26 17.29L6 18.58V22H4V17.42L7.27 15.55A5 5 0 0 1 7.1 15H5.3L2.55 16.83L1.45 15.17L4.7 13H7.1A5 5 0 0 1 7.37 12.12L5.81 11.12L2.24 12L1.76 10L6.19 8.92L8.5 10.45A5 5 0 0 1 15.5 10.45L17.77 8.92L22.24 10L21.76 12L18.19 11.11L16.63 12.11A5 5 0 0 1 16.9 13H19.3L22.55 15.16L21.45 16.82L18.7 15M11 14A1 1 0 1 0 10 15A1 1 0 0 0 11 14M15 14A1 1 0 1 0 14 15A1 1 0 0 0 15 14Z" />
    </g>
    <g id="mdi-spider-thread" transform="translate(36 288) scale(1.5)" fill="#fff">
      <path d="M13 2V7.08A5.47 5.47 0 0 0 12 7A5.47 5.47 0 0 0 11 7.08V2M16.9 15A5 5 0 0 1 16.73 15.55L20 17.42V22H18V18.58L15.74 17.29A4.94 4.94 0 0 1 8.26 17.29L6 18.58V22H4V17.42L7.27 15.55A5 5 0 0 1 7.1 15H5.3L2.55 16.83L1.45 15.17L4.7 13H7.1A5 5 0 0 1 7.37 12.12L5.81 11.12L2.24 12L1.76 10L6.19 8.92L8.5 10.45A5 5 0 0 1 15.5 10.45L17.77 8.92L22.24 10L21.76 12L18.19 11.11L16.63 12.11A5 5 0 0 1 16.9 13H19.3L22.55 15.16L21.45 16.82L18.7 15M11 14A1 1 0 1 0 10 15A1 1 0 0 0 11 14M15 14A1 1 0 1 0 14 15A1 1 0 0 0 15 14Z" />
    </g>
    <g id="mdi-spider-web" transform="translate(72 288) scale(1.5)" fill="#555">
      <path d="M13.62,13.28L15.26,15.54C15.29,15 15.38,14.47 15.56,13.93C15.74,13.37 16,12.86 16.3,12.41L13.62,13.28M17.77,19C17.75,17.68 17.95,16.27 18.41,14.85C18.88,13.42 19.56,12.14 20.36,11.09L18.32,11.75C17.54,12.26 16.87,13.14 16.5,14.23C16.17,15.29 16.18,16.36 16.5,17.22L17.77,19M19.25,21C18.75,21.46 18.21,21.86 17.63,22.2L17.31,21.76C15.9,21 14.04,20.5 12,20.5C9.96,20.5 8.1,21 6.69,21.76L6.37,22.2C5.79,21.86 5.25,21.46 4.75,21L5,20.69C5.33,19.08 5.22,17.12 4.58,15.14C3.94,13.19 2.9,11.56 1.71,10.46L1.27,10.32C1.42,9.66 1.63,9 1.89,8.41L2.29,8.54C3.92,8.37 5.74,7.65 7.43,6.43C9.09,5.22 10.32,3.73 11,2.26V1.79L12,1.75L13,1.79V2.21C13.67,3.71 14.91,5.23 16.6,6.45C18.26,7.66 20.06,8.37 21.67,8.56L22.11,8.41C22.37,9 22.58,9.66 22.73,10.32L22.23,10.5C21.04,11.58 20,13.21 19.37,15.16C18.74,17.09 18.62,19 18.92,20.57L19.25,21M11,11.37V8.5C10.66,8.92 10.26,9.32 9.78,9.67C9.29,10 8.77,10.29 8.25,10.5L11,11.37M11,4.22C10.25,5.31 9.24,6.35 8,7.24C6.78,8.14 5.46,8.78 4.18,9.16L6.15,9.8C7.11,9.88 8.22,9.56 9.19,8.86C10.13,8.18 10.76,7.27 11,6.36V4.22M13,11.37L15.74,10.5C15.23,10.3 14.72,10.03 14.25,9.69C13.76,9.33 13.34,8.92 13,8.5V11.37M19.8,9.16C18.53,8.78 17.23,8.15 16,7.26C14.77,6.36 13.76,5.31 13,4.2V6.27C13.22,7.21 13.86,8.17 14.84,8.88C15.77,9.56 16.83,9.87 17.77,9.82L19.8,9.16M10.38,13.28L7.64,12.39C7.95,12.84 8.2,13.35 8.38,13.91C8.57,14.5 8.66,15.06 8.68,15.62L10.38,13.28M3.58,11.07C4.38,12.12 5.06,13.4 5.53,14.83C6,16.29 6.2,17.74 6.17,19.08L7.38,17.41C7.76,16.5 7.8,15.36 7.43,14.22C7.07,13.12 6.4,12.24 5.61,11.73L3.58,11.07M12,14.45L10.35,16.72C10.87,16.58 11.42,16.5 12,16.5C12.58,16.5 13.13,16.58 13.65,16.72L12,14.45M7.84,20.18C9.08,19.75 10.5,19.5 12,19.5C13.5,19.5 14.92,19.75 16.16,20.18L14.88,18.42C14.16,17.85 13.13,17.5 12,17.5C10.87,17.5 9.84,17.85 9.12,18.42L7.84,20.18Z" />
    </g>
    <g id="mdi-spider-web" transform="translate(108 288) scale(1.5)" fill="#fff">
      <path d="M13.62,13.28L15.26,15.54C15.29,15 15.38,14.47 15.56,13.93C15.74,13.37 16,12.86 16.3,12.41L13.62,13.28M17.77,19C17.75,17.68 17.95,16.27 18.41,14.85C18.88,13.42 19.56,12.14 20.36,11.09L18.32,11.75C17.54,12.26 16.87,13.14 16.5,14.23C16.17,15.29 16.18,16.36 16.5,17.22L17.77,19M19.25,21C18.75,21.46 18.21,21.86 17.63,22.2L17.31,21.76C15.9,21 14.04,20.5 12,20.5C9.96,20.5 8.1,21 6.69,21.76L6.37,22.2C5.79,21.86 5.25,21.46 4.75,21L5,20.69C5.33,19.08 5.22,17.12 4.58,15.14C3.94,13.19 2.9,11.56 1.71,10.46L1.27,10.32C1.42,9.66 1.63,9 1.89,8.41L2.29,8.54C3.92,8.37 5.74,7.65 7.43,6.43C9.09,5.22 10.32,3.73 11,2.26V1.79L12,1.75L13,1.79V2.21C13.67,3.71 14.91,5.23 16.6,6.45C18.26,7.66 20.06,8.37 21.67,8.56L22.11,8.41C22.37,9 22.58,9.66 22.73,10.32L22.23,10.5C21.04,11.58 20,13.21 19.37,15.16C18.74,17.09 18.62,19 18.92,20.57L19.25,21M11,11.37V8.5C10.66,8.92 10.26,9.32 9.78,9.67C9.29,10 8.77,10.29 8.25,10.5L11,11.37M11,4.22C10.25,5.31 9.24,6.35 8,7.24C6.78,8.14 5.46,8.78 4.18,9.16L6.15,9.8C7.11,9.88 8.22,9.56 9.19,8.86C10.13,8.18 10.76,7.27 11,6.36V4.22M13,11.37L15.74,10.5C15.23,10.3 14.72,10.03 14.25,9.69C13.76,9.33 13.34,8.92 13,8.5V11.37M19.8,9.16C18.53,8.78 17.23,8.15 16,7.26C14.77,6.36 13.76,5.31 13,4.2V6.27C13.22,7.21 13.86,8.17 14.84,8.88C15.77,9.56 16.83,9.87 17.77,9.82L19.8,9.16M10.38,13.28L7.64,12.39C7.95,12.84 8.2,13.35 8.38,13.91C8.57,14.5 8.66,15.06 8.68,15.62L10.38,13.28M3.58,11.07C4.38,12.12 5.06,13.4 5.53,14.83C6,16.29 6.2,17.74 6.17,19.08L7.38,17.41C7.76,16.5 7.8,15.36 7.43,14.22C7.07,13.12 6.4,12.24 5.61,11.73L3.58,11.07M12,14.45L10.35,16.72C10.87,16.58 11.42,16.5 12,16.5C12.58,16.5 13.13,16.58 13.65,16.72L12,14.45M7.84,20.18C9.08,19.75 10.5,19.5 12,19.5C13.5,19.5 14.92,19.75 16.16,20.18L14.88,18.42C14.16,17.85 13.13,17.5 12,17.5C10.87,17.5 9.84,17.85 9.12,18.42L7.84,20.18Z" />
    </g>
    <g id="mdi-spirit-level" transform="translate(144 288) scale(1.5)" fill="#555">
      <path d="M22 8H2V16H22V8M18 14V10H20V14H18M11 12H13C14.1 12 15 11.11 15 10H17V14H7V10H9C9 11.11 9.9 12 11 12M4 14V10H6V14H4Z" />
    </g>
    <g id="mdi-spirit-level" transform="translate(180 288) scale(1.5)" fill="#fff">
      <path d="M22 8H2V16H22V8M18 14V10H20V14H18M11 12H13C14.1 12 15 11.11 15 10H17V14H7V10H9C9 11.11 9.9 12 11 12M4 14V10H6V14H4Z" />
    </g>
    <g id="mdi-spoon-sugar" transform="translate(216 288) scale(1.5)" fill="#555">
      <path d="M6 13H3V10H6V13M10 10H7V13H10V10M8 6H5V9H8V6M18 12C14.25 12 12.28 13.25 11 14H2C2 16.21 3.79 18 6 18H7C8 18 8.92 17.63 9.62 17C11.06 15.78 12.68 14.74 14.55 14.36C15.61 14.15 16.78 14 18 14H22V12H18Z" />
    </g>
    <g id="mdi-spoon-sugar" transform="translate(252 288) scale(1.5)" fill="#fff">
      <path d="M6 13H3V10H6V13M10 10H7V13H10V10M8 6H5V9H8V6M18 12C14.25 12 12.28 13.25 11 14H2C2 16.21 3.79 18 6 18H7C8 18 8.92 17.63 9.62 17C11.06 15.78 12.68 14.74 14.55 14.36C15.61 14.15 16.78 14 18 14H22V12H18Z" />
    </g>
    <g id="mdi-spotify" transform="translate(288 288) scale(1.5)" fill="#555">
      <path d="M17.9,10.9C14.7,9 9.35,8.8 6.3,9.75C5.8,9.9 5.3,9.6 5.15,9.15C5,8.65 5.3,8.15 5.75,8C9.3,6.95 15.15,7.15 18.85,9.35C19.3,9.6 19.45,10.2 19.2,10.65C18.95,11 18.35,11.15 17.9,10.9M17.8,13.7C17.55,14.05 17.1,14.2 16.75,13.95C14.05,12.3 9.95,11.8 6.8,12.8C6.4,12.9 5.95,12.7 5.85,12.3C5.75,11.9 5.95,11.45 6.35,11.35C10,10.25 14.5,10.8 17.6,12.7C17.9,12.85 18.05,13.35 17.8,13.7M16.6,16.45C16.4,16.75 16.05,16.85 15.75,16.65C13.4,15.2 10.45,14.9 6.95,15.7C6.6,15.8 6.3,15.55 6.2,15.25C6.1,14.9 6.35,14.6 6.65,14.5C10.45,13.65 13.75,14 16.35,15.6C16.7,15.75 16.75,16.15 16.6,16.45M12,2A10,10 0 0,0 2,12A10,10 0 0,0 12,22A10,10 0 0,0 22,12A10,10 0 0,0 12,2Z" />
    </g>
    <g id="mdi-spotify" transform="translate(324 288) scale(1.5)" fill="#fff">
      <path d="M17.9,10.9C14.7,9 9.35,8.8 6.3,9.75C5.8,9.9 5.3,9.6 5.15,9.15C5,8.65 5.3,8.15 5.75,8C9.3,6.95 15.15,7.15 18.85,9.35C19.3,9.6 19.45,10.2 19.2,10.65C18.95,11 18.35,11.15 17.9,10.9M17.8,13.7C17.55,14.05 17.1,14.2 16.75,13.95C14.05,12.3 9.95,11.8 6.8,12.8C6.4,12.9 5.95,12.7 5.85,12.3C5.75,11.9 5.95,11.45 6.35,11.35C10,10.25 14.5,10.8 17.6,12.7C17.9,12.85 18.05,13.35 17.8,13.7M16.6,16.45C16.4,16.75 16.05,16.85 15.75,16.65C13.4,15.2 10.45,14.9 6.95,15.7C6.6,15.8 6.3,15.55 6.2,15.25C6.1,14.9 6.35,14.6 6.65,14.5C10.45,13.65 13.75,14 16.35,15.6C16.7,15.75 16.75,16.15 16.6,16.45M12,2A10,10 0 0,0 2,12A10,10 0 0,0 12,22A10,10 0 0,0 22,12A10,10 0 0,0 12,2Z" />
    </g>
    <g id="mdi-spotlight" transform="translate(360 288) scale(1.5)" fill="#555">
      <path d="M2,6L7.09,8.55C6.4,9.5 6,10.71 6,12C6,13.29 6.4,14.5 7.09,15.45L2,18V6M6,3H18L15.45,7.09C14.5,6.4 13.29,6 12,6C10.71,6 9.5,6.4 8.55,7.09L6,3M22,6V18L16.91,15.45C17.6,14.5 18,13.29 18,12C18,10.71 17.6,9.5 16.91,8.55L22,6M18,21H6L8.55,16.91C9.5,17.6 10.71,18 12,18C13.29,18 14.5,17.6 15.45,16.91L18,21M12,8A4,4 0 0,1 16,12A4,4 0 0,1 12,16A4,4 0 0,1 8,12A4,4 0 0,1 12,8M12,10A2,2 0 0,0 10,12A2,2 0 0,0 12,14A2,2 0 0,0 14,12A2,2 0 0,0 12,10Z" />
    </g>
    <g id="mdi-spotlight" transform="translate(396 288) scale(1.5)" fill="#fff">
      <path d="M2,6L7.09,8.55C6.4,9.5 6,10.71 6,12C6,13.29 6.4,14.5 7.09,15.45L2,18V6M6,3H18L15.45,7.09C14.5,6.4 13.29,6 12,6C10.71,6 9.5,6.4 8.55,7.09L6,3M22,6V18L16.91,15.45C17.6,14.5 18,13.29 18,12C18,10.71 17.6,9.5 16.91,8.55L22,6M18,21H6L8.55,16.91C9.5,17.6 10.71,18 12,18C13.29,18 14.5,17.6 15.45,16.91L18,21M12,8A4,4 0 0,1 16,12A4,4 0 0,1 12,16A4,4 0 0,1 8,12A4,4 0 0,1 12,8M12,10A2,2 0 0,0 10,12A2,2 0 0,0 12,14A2,2 0 0,0 14,12A2,2 0 0,0 12,10Z" />
    </g>
    <g id="mdi-spotlight-beam" transform="translate(432 288) scale(1.5)" fill="#555">
      <path d="M9,16.5L9.91,15.59L15.13,20.8L14.21,21.71L9,16.5M15.5,10L16.41,9.09L21.63,14.3L20.71,15.21L15.5,10M6.72,2.72L10.15,6.15L6.15,10.15L2.72,6.72C1.94,5.94 1.94,4.67 2.72,3.89L3.89,2.72C4.67,1.94 5.94,1.94 6.72,2.72M14.57,7.5L15.28,8.21L8.21,15.28L7.5,14.57L6.64,11.07L11.07,6.64L14.57,7.5Z" />
    </g>
    <g id="mdi-spotlight-beam" transform="translate(468 288) scale(1.5)" fill="#fff">
      <path d="M9,16.5L9.91,15.59L15.13,20.8L14.21,21.71L9,16.5M15.5,10L16.41,9.09L21.63,14.3L20.71,15.21L15.5,10M6.72,2.72L10.15,6.15L6.15,10.15L2.72,6.72C1.94,5.94 1.94,4.67 2.72,3.89L3.89,2.72C4.67,1.94 5.94,1.94 6.72,2.72M14.57,7.5L15.28,8.21L8.21,15.28L7.5,14.57L6.64,11.07L11.07,6.64L14.57,7.5Z" />
    </g>
    <g id="mdi-spray" transform="translate(504 288) scale(1.5)" fill="#555">
      <path d="M10,4H12V6H10V4M7,3H9V5H7V3M7,6H9V8H7V6M6,8V10H4V8H6M6,5V7H4V5H6M6,2V4H4V2H6M13,22A2,2 0 0,1 11,20V10A2,2 0 0,1 13,8V7H14V4H17V7H18V8A2,2 0 0,1 20,10V20A2,2 0 0,1 18,22H13M13,10V20H18V10H13Z" />
    </g>
    <g id="mdi-spray" transform="translate(540 288) scale(1.5)" fill="#fff">
      <path d="M10,4H12V6H10V4M7,3H9V5H7V3M7,6H9V8H7V6M6,8V10H4V8H6M6,5V7H4V5H6M6,2V4H4V2H6M13,22A2,2 0 0,1 11,20V10A2,2 0 0,1 13,8V7H14V4H17V7H18V8A2,2 0 0,1 20,10V20A2,2 0 0,1 18,22H13M13,10V20H18V10H13Z" />
    </g>
    <g id="mdi-spray-bottle" transform="translate(576 288) scale(1.5)" fill="#555">
      <path d="M12,7H15C15.66,7.64 16,8.31 16,9V22H8V15C8,14.72 8.11,14.39 8.3,14L12,7M16,4L15,6H12V5L10,7H9L10,5V4H9V2H14.5A1.5,1.5 0 0,1 16,3.5V4Z" />
    </g>
    <g id="mdi-spray-bottle" transform="translate(612 288) scale(1.5)" fill="#fff">
      <path d="M12,7H15C15.66,7.64 16,8.31 16,9V22H8V15C8,14.72 8.11,14.39 8.3,14L12,7M16,4L15,6H12V5L10,7H9L10,5V4H9V2H14.5A1.5,1.5 0 0,1 16,3.5V4Z" />
    </g>
    <g id="mdi-sprinkler" transform="translate(648 288) scale(1.5)" fill="#555">
      <path d="M11 7H13V9H11V7M5 22H9V10H5V22M14 11H16V9H14V11M17 10H19V8H17V10M17 5V7H19V5H17M14 8H16V6H14V8M17 13H19V11H17V13M5 7H5.33L6 9H8L8.67 7H9V6H5V7Z" />
    </g>
    <g id="mdi-sprinkler" transform="translate(684 288) scale(1.5)" fill="#fff">
      <path d="M11 7H13V9H11V7M5 22H9V10H5V22M14 11H16V9H14V11M17 10H19V8H17V10M17 5V7H19V5H17M14 8H16V6H14V8M17 13H19V11H17V13M5 7H5.33L6 9H8L8.67 7H9V6H5V7Z" />
    </g>
    <g id="mdi-sprinkler-variant" transform="translate(0 324) scale(1.5)" fill="#555">
      <path d="M10 10H14V22H10V10M7 9H9V7H7V9M4 8H6V6H4V8M4 11H6V9H4V11M1 13H3V11H1V13M1 7H3V5H1V7M1 10H3V8H1V10M18 11H20V9H18V11M21 10H23V8H21V10M21 5V7H23V5H21M21 13H23V11H21V13M15 9H17V7H15V9M18 8H20V6H18V8M10 7H10.33L11 9H13L13.67 7H14V6H10V7Z" />
    </g>
    <g id="mdi-sprinkler-variant" transform="translate(36 324) scale(1.5)" fill="#fff">
      <path d="M10 10H14V22H10V10M7 9H9V7H7V9M4 8H6V6H4V8M4 11H6V9H4V11M1 13H3V11H1V13M1 7H3V5H1V7M1 10H3V8H1V10M18 11H20V9H18V11M21 10H23V8H21V10M21 5V7H23V5H21M21 13H23V11H21V13M15 9H17V7H15V9M18 8H20V6H18V8M10 7H10.33L11 9H13L13.67 7H14V6H10V7Z" />
    </g>
    <g id="mdi-sprout" transform="translate(72 324) scale(1.5)" fill="#555">
      <path d="M2,22V20C2,20 7,18 12,18C17,18 22,20 22,20V22H2M11.3,9.1C10.1,5.2 4,6.1 4,6.1C4,6.1 4.2,13.9 9.9,12.7C9.5,9.8 8,9 8,9C10.8,9 11,12.4 11,12.4V17C11.3,17 11.7,17 12,17C12.3,17 12.7,17 13,17V12.8C13,12.8 13,8.9 16,7.9C16,7.9 14,10.9 14,12.9C21,13.6 21,4 21,4C21,4 12.1,3 11.3,9.1Z" />
    </g>
    <g id="mdi-sprout" transform="translate(108 324) scale(1.5)" fill="#fff">
      <path d="M2,22V20C2,20 7,18 12,18C17,18 22,20 22,20V22H2M11.3,9.1C10.1,5.2 4,6.1 4,6.1C4,6.1 4.2,13.9 9.9,12.7C9.5,9.8 8,9 8,9C10.8,9 11,12.4 11,12.4V17C11.3,17 11.7,17 12,17C12.3,17 12.7,17 13,17V12.8C13,12.8 13,8.9 16,7.9C16,7.9 14,10.9 14,12.9C21,13.6 21,4 21,4C21,4 12.1,3 11.3,9.1Z" />
    </g>
    <g id="mdi-sprout-outline" transform="translate(144 324) scale(1.5)" fill="#555">
      <path d="M23,4.1V2.3L21.2,2.1C21.1,2.1 20.5,2 19.5,2C15.4,2 12.4,3.2 10.7,5.3C9.4,4.5 7.6,4 5.5,4C4.5,4 3.8,4.1 3.8,4.1L1.9,4.4L2,6.1C2.1,9.1 3.6,14.8 8.8,14.8C8.9,14.8 8.9,14.8 9,14.8V18.2C5.2,18.7 2,20 2,20V22H22V20C22,20 18.8,18.7 15,18.2V15C21.3,14.9 23,7.8 23,4.1M12,18C11.7,18 11.3,18 11,18V12.4C11,12.4 10.8,9 8,9C8,9 9.5,9.8 9.9,12.7C9.5,12.8 9.1,12.8 8.8,12.8C4.2,12.8 4,6.1 4,6.1C4,6.1 4.6,6 5.5,6C7.4,6 10.5,6.4 11.4,9.1C11.9,4.6 17,4 19.5,4C20.4,4 21,4.1 21,4.1C21,4.1 21,13.1 14.7,13.1C14.5,13.1 14.2,13.1 14,13.1C14,11.1 16,8.1 16,8.1C13,9.1 13,13 13,13V18C12.7,18 12.3,18 12,18Z" />
    </g>
    <g id="mdi-sprout-outline" transform="translate(180 324) scale(1.5)" fill="#fff">
      <path d="M23,4.1V2.3L21.2,2.1C21.1,2.1 20.5,2 19.5,2C15.4,2 12.4,3.2 10.7,5.3C9.4,4.5 7.6,4 5.5,4C4.5,4 3.8,4.1 3.8,4.1L1.9,4.4L2,6.1C2.1,9.1 3.6,14.8 8.8,14.8C8.9,14.8 8.9,14.8 9,14.8V18.2C5.2,18.7 2,20 2,20V22H22V20C22,20 18.8,18.7 15,18.2V15C21.3,14.9 23,7.8 23,4.1M12,18C11.7,18 11.3,18 11,18V12.4C11,12.4 10.8,9 8,9C8,9 9.5,9.8 9.9,12.7C9.5,12.8 9.1,12.8 8.8,12.8C4.2,12.8 4,6.1 4,6.1C4,6.1 4.6,6 5.5,6C7.4,6 10.5,6.4 11.4,9.1C11.9,4.6 17,4 19.5,4C20.4,4 21,4.1 21,4.1C21,4.1 21,13.1 14.7,13.1C14.5,13.1 14.2,13.1 14,13.1C14,11.1 16,8.1 16,8.1C13,9.1 13,13 13,13V18C12.7,18 12.3,18 12,18Z" />
    </g>
    <g id="mdi-square" transform="translate(216 324) scale(1.5)" fill="#555">
      <path d="M3,3V21H21V3" />
    </g>
    <g id="mdi-square" transform="translate(252 324) scale(1.5)" fill="#fff">
      <path d="M3,3V21H21V3" />
    </g>
    <g id="mdi-square-circle" transform="translate(288 324) scale(1.5)" fill="#555">
      <path d="M20 4V20H4V4H20M22 2H2V22H22V2M12 6C8.69 6 6 8.69 6 12S8.69 18 12 18 18 15.31 18 12 15.31 6 12 6Z" />
    </g>
    <g id="mdi-square-circle" transform="translate(324 324) scale(1.5)" fill="#fff">
      <path d="M20 4V20H4V4H20M22 2H2V22H22V2M12 6C8.69 6 6 8.69 6 12S8.69 18 12 18 18 15.31 18 12 15.31 6 12 6Z" />
    </g>
    <g id="mdi-square-edit-outline" transform="translate(360 324) scale(1.5)" fill="#555">
      <path d="M5,3C3.89,3 3,3.89 3,5V19A2,2 0 0,0 5,21H19A2,2 0 0,0 21,19V12H19V19H5V5H12V3H5M17.78,4C17.61,4 17.43,4.07 17.3,4.2L16.08,5.41L18.58,7.91L19.8,6.7C20.06,6.44 20.06,6 19.8,5.75L18.25,4.2C18.12,4.07 17.95,4 17.78,4M15.37,6.12L8,13.5V16H10.5L17.87,8.62L15.37,6.12Z" />
    </g>
    <g id="mdi-square-edit-outline" transform="translate(396 324) scale(1.5)" fill="#fff">
      <path d="M5,3C3.89,3 3,3.89 3,5V19A2,2 0 0,0 5,21H19A2,2 0 0,0 21,19V12H19V19H5V5H12V3H5M17.78,4C17.61,4 17.43,4.07 17.3,4.2L16.08,5.41L18.58,7.91L19.8,6.7C20.06,6.44 20.06,6 19.8,5.75L18.25,4.2C18.12,4.07 17.95,4 17.78,4M15.37,6.12L8,13.5V16H10.5L17.87,8.62L15.37,6.12Z" />
    </g>
    <g id="mdi-square-medium" transform="translate(432 324) scale(1.5)" fill="#555">
      <path d="M16,8H8V16H16V8Z" />
    </g>
    <g id="mdi-square-medium" transform="translate(468 324) scale(1.5)" fill="#fff">
      <path d="M16,8H8V16H16V8Z" />
    </g>
    <g id="mdi-square-medium-outline" transform="translate(504 324) scale(1.5)" fill="#555">
      <path d="M14,10V14H10V10H14M16,8H8V16H16V8Z" />
    </g>
    <g id="mdi-square-medium-outline" transform="translate(540 324) scale(1.5)" fill="#fff">
      <path d="M14,10V14H10V10H14M16,8H8V16H16V8Z" />
    </g>
    <g id="mdi-square-off" transform="translate(576 324) scale(1.5)" fill="#555">
      <path d="M20.84 22.73L19.11 21H3V4.89L1.11 3L2.39 1.73L22.11 21.46L20.84 22.73M21 3H6.2L21 17.8V3Z" />
    </g>
    <g id="mdi-square-off" transform="translate(612 324) scale(1.5)" fill="#fff">
      <path d="M20.84 22.73L19.11 21H3V4.89L1.11 3L2.39 1.73L22.11 21.46L20.84 22.73M21 3H6.2L21 17.8V3Z" />
    </g>
    <g id="mdi-square-off-outline" transform="translate(648 324) scale(1.5)" fill="#555">
      <path d="M22.11 21.46L2.39 1.73L1.11 3L3 4.89V21H19.11L20.84 22.73L22.11 21.46M5 19V6.89L17.11 19H5M8.2 5L6.2 3H21V17.8L19 15.8V5H8.2Z" />
    </g>
    <g id="mdi-square-off-outline" transform="translate(684 324) scale(1.5)" fill="#fff">
      <path d="M22.11 21.46L2.39 1.73L1.11 3L3 4.89V21H19.11L20.84 22.73L22.11 21.46M5 19V6.89L17.11 19H5M8.2 5L6.2 3H21V17.8L19 15.8V5H8.2Z" />
    </g>
  </svg>