<?xml version="1.0" encoding="UTF-8"?>
<!DOCTYPE svg PUBLIC "-//W3C//DTD SVG 1.1//EN" "http://www.w3.org/Graphics/SVG/1.1/DTD/svg11.dtd"><svg
  xmlns="http://www.w3.org/2000/svg" xmlns:xlink="http://www.w3.org/1999/xlink" version="1.1"
  width="720" height="900" viewBox="0 0 720 900">
    <g id="mdi-shield-edit" transform="translate(0 0) scale(1.5)" fill="#555">
      <path d="M21.7 14.4L20.7 15.4L18.6 13.3L19.6 12.3C19.8 12.1 20.2 12.1 20.4 12.3L21.7 13.6C21.9 13.8 21.9 14.1 21.7 14.4M12 19.9L18.1 13.8L20.2 15.9L14.1 22H12V19.9M10 19.1L21 8.1V5L12 1L3 5V11C3 15.8 5.9 20.3 10 22.3V19.1Z" />
    </g>
    <g id="mdi-shield-edit" transform="translate(36 0) scale(1.5)" fill="#fff">
      <path d="M21.7 14.4L20.7 15.4L18.6 13.3L19.6 12.3C19.8 12.1 20.2 12.1 20.4 12.3L21.7 13.6C21.9 13.8 21.9 14.1 21.7 14.4M12 19.9L18.1 13.8L20.2 15.9L14.1 22H12V19.9M10 19.1L21 8.1V5L12 1L3 5V11C3 15.8 5.9 20.3 10 22.3V19.1Z" />
    </g>
    <g id="mdi-shield-edit-outline" transform="translate(72 0) scale(1.5)" fill="#555">
      <path d="M21.7 13.6L20.4 12.3C20.3 12.2 20.2 12.1 20 12.1C19.9 12.1 19.7 12.2 19.6 12.3L18.6 13.3L20.6 15.3L21.6 14.3C21.9 14.1 21.9 13.8 21.7 13.6M12 19.9V22H14.1L20.2 15.9L18.2 13.8L12 19.9M10 22.3C5.9 20.3 3 15.8 3 11V5L12 1L21 5V8.1L19 10.1V6.3L12 3.2L5 6.3V11.2C5 14.7 7.2 18.3 10 20.1V22.3Z" />
    </g>
    <g id="mdi-shield-edit-outline" transform="translate(108 0) scale(1.5)" fill="#fff">
      <path d="M21.7 13.6L20.4 12.3C20.3 12.2 20.2 12.1 20 12.1C19.9 12.1 19.7 12.2 19.6 12.3L18.6 13.3L20.6 15.3L21.6 14.3C21.9 14.1 21.9 13.8 21.7 13.6M12 19.9V22H14.1L20.2 15.9L18.2 13.8L12 19.9M10 22.3C5.9 20.3 3 15.8 3 11V5L12 1L21 5V8.1L19 10.1V6.3L12 3.2L5 6.3V11.2C5 14.7 7.2 18.3 10 20.1V22.3Z" />
    </g>
    <g id="mdi-shield-half" transform="translate(144 0) scale(1.5)" fill="#555">
      <path d="M12 1L3 5V11C3 16.5 6.8 21.7 12 23V1Z" />
    </g>
    <g id="mdi-shield-half" transform="translate(180 0) scale(1.5)" fill="#fff">
      <path d="M12 1L3 5V11C3 16.5 6.8 21.7 12 23V1Z" />
    </g>
    <g id="mdi-shield-half-full" transform="translate(216 0) scale(1.5)" fill="#555">
      <path d="M21,11C21,16.55 17.16,21.74 12,23C6.84,21.74 3,16.55 3,11V5L12,1L21,5V11M12,21C15.75,20 19,15.54 19,11.22V6.3L12,3.18V21Z" />
    </g>
    <g id="mdi-shield-half-full" transform="translate(252 0) scale(1.5)" fill="#fff">
      <path d="M21,11C21,16.55 17.16,21.74 12,23C6.84,21.74 3,16.55 3,11V5L12,1L21,5V11M12,21C15.75,20 19,15.54 19,11.22V6.3L12,3.18V21Z" />
    </g>
    <g id="mdi-shield-home" transform="translate(288 0) scale(1.5)" fill="#555">
      <path d="M11,13H13V16H16V11H18L12,6L6,11H8V16H11V13M12,1L21,5V11C21,16.55 17.16,21.74 12,23C6.84,21.74 3,16.55 3,11V5L12,1Z" />
    </g>
    <g id="mdi-shield-home" transform="translate(324 0) scale(1.5)" fill="#fff">
      <path d="M11,13H13V16H16V11H18L12,6L6,11H8V16H11V13M12,1L21,5V11C21,16.55 17.16,21.74 12,23C6.84,21.74 3,16.55 3,11V5L12,1Z" />
    </g>
    <g id="mdi-shield-home-outline" transform="translate(360 0) scale(1.5)" fill="#555">
      <path d="M21,11C21,16.55 17.16,21.74 12,23C6.84,21.74 3,16.55 3,11V5L12,1L21,5V11M12,21C15.75,20 19,15.54 19,11.22V6.3L12,3.18L5,6.3V11.22C5,15.54 8.25,20 12,21M11,14H13V17H16V12H18L12,7L6,12H8V17H11V14" />
    </g>
    <g id="mdi-shield-home-outline" transform="translate(396 0) scale(1.5)" fill="#fff">
      <path d="M21,11C21,16.55 17.16,21.74 12,23C6.84,21.74 3,16.55 3,11V5L12,1L21,5V11M12,21C15.75,20 19,15.54 19,11.22V6.3L12,3.18L5,6.3V11.22C5,15.54 8.25,20 12,21M11,14H13V17H16V12H18L12,7L6,12H8V17H11V14" />
    </g>
    <g id="mdi-shield-key" transform="translate(432 0) scale(1.5)" fill="#555">
      <path d="M12,8A1,1 0 0,1 13,9A1,1 0 0,1 12,10A1,1 0 0,1 11,9A1,1 0 0,1 12,8M21,11C21,16.55 17.16,21.74 12,23C6.84,21.74 3,16.55 3,11V5L12,1L21,5V11M12,6A3,3 0 0,0 9,9C9,10.31 9.83,11.42 11,11.83V18H13V16H15V14H13V11.83C14.17,11.42 15,10.31 15,9A3,3 0 0,0 12,6Z" />
    </g>
    <g id="mdi-shield-key" transform="translate(468 0) scale(1.5)" fill="#fff">
      <path d="M12,8A1,1 0 0,1 13,9A1,1 0 0,1 12,10A1,1 0 0,1 11,9A1,1 0 0,1 12,8M21,11C21,16.55 17.16,21.74 12,23C6.84,21.74 3,16.55 3,11V5L12,1L21,5V11M12,6A3,3 0 0,0 9,9C9,10.31 9.83,11.42 11,11.83V18H13V16H15V14H13V11.83C14.17,11.42 15,10.31 15,9A3,3 0 0,0 12,6Z" />
    </g>
    <g id="mdi-shield-key-outline" transform="translate(504 0) scale(1.5)" fill="#555">
      <path d="M21,11C21,16.55 17.16,21.74 12,23C6.84,21.74 3,16.55 3,11V5L12,1L21,5V11M12,21C15.75,20 19,15.54 19,11.22V6.3L12,3.18L5,6.3V11.22C5,15.54 8.25,20 12,21M12,6A3,3 0 0,1 15,9C15,10.31 14.17,11.42 13,11.83V14H15V16H13V18H11V11.83C9.83,11.42 9,10.31 9,9A3,3 0 0,1 12,6M12,8A1,1 0 0,0 11,9A1,1 0 0,0 12,10A1,1 0 0,0 13,9A1,1 0 0,0 12,8Z" />
    </g>
    <g id="mdi-shield-key-outline" transform="translate(540 0) scale(1.5)" fill="#fff">
      <path d="M21,11C21,16.55 17.16,21.74 12,23C6.84,21.74 3,16.55 3,11V5L12,1L21,5V11M12,21C15.75,20 19,15.54 19,11.22V6.3L12,3.18L5,6.3V11.22C5,15.54 8.25,20 12,21M12,6A3,3 0 0,1 15,9C15,10.31 14.17,11.42 13,11.83V14H15V16H13V18H11V11.83C9.83,11.42 9,10.31 9,9A3,3 0 0,1 12,6M12,8A1,1 0 0,0 11,9A1,1 0 0,0 12,10A1,1 0 0,0 13,9A1,1 0 0,0 12,8Z" />
    </g>
    <g id="mdi-shield-link-variant" transform="translate(576 0) scale(1.5)" fill="#555">
      <path d="M12,1L3,5V11C3,16.55 6.84,21.74 12,23C17.16,21.74 21,16.55 21,11V5L12,1M14.28,14.08L12.26,16.1C11.66,16.7 10.87,17 10.08,17C9.29,17 8.5,16.7 7.9,16.1C6.7,14.9 6.7,12.95 7.9,11.74L9.15,10.5L9.14,11.06C9.14,11.5 9.21,11.95 9.36,12.37L9.41,12.5L9.04,12.87C8.76,13.15 8.6,13.53 8.6,13.92C8.6,14.32 8.76,14.69 9.04,14.97C9.6,15.53 10.57,15.53 11.13,14.97L13.14,12.96C13.43,12.67 13.58,12.3 13.58,11.91C13.58,11.5 13.43,11.14 13.15,10.86C13,10.71 12.9,10.5 12.9,10.29C12.9,10.08 13,9.88 13.15,9.73C13.45,9.42 14,9.43 14.28,9.73C14.86,10.31 15.18,11.08 15.18,11.9C15.18,12.73 14.86,13.5 14.28,14.08M17.1,11.26L15.85,12.5L15.86,11.94C15.86,11.5 15.79,11.06 15.64,10.64L15.6,10.5L15.96,10.13C16.25,9.85 16.4,9.5 16.4,9.08C16.4,8.69 16.25,8.32 15.97,8.04C15.4,7.47 14.43,7.47 13.87,8.04L11.86,10.05C11.58,10.33 11.42,10.7 11.42,11.1C11.42,11.5 11.57,11.86 11.86,12.14C12,12.29 12.1,12.5 12.1,12.71C12.1,12.93 12,13.13 11.85,13.28C11.7,13.44 11.5,13.5 11.29,13.5C11.09,13.5 10.88,13.43 10.72,13.28C9.5,12.08 9.5,10.12 10.72,8.92L12.74,6.9C13.95,5.7 15.9,5.7 17.1,6.9C17.68,7.5 18,8.26 18,9.08C18,9.9 17.68,10.68 17.1,11.26Z" />
    </g>
    <g id="mdi-shield-link-variant" transform="translate(612 0) scale(1.5)" fill="#fff">
      <path d="M12,1L3,5V11C3,16.55 6.84,21.74 12,23C17.16,21.74 21,16.55 21,11V5L12,1M14.28,14.08L12.26,16.1C11.66,16.7 10.87,17 10.08,17C9.29,17 8.5,16.7 7.9,16.1C6.7,14.9 6.7,12.95 7.9,11.74L9.15,10.5L9.14,11.06C9.14,11.5 9.21,11.95 9.36,12.37L9.41,12.5L9.04,12.87C8.76,13.15 8.6,13.53 8.6,13.92C8.6,14.32 8.76,14.69 9.04,14.97C9.6,15.53 10.57,15.53 11.13,14.97L13.14,12.96C13.43,12.67 13.58,12.3 13.58,11.91C13.58,11.5 13.43,11.14 13.15,10.86C13,10.71 12.9,10.5 12.9,10.29C12.9,10.08 13,9.88 13.15,9.73C13.45,9.42 14,9.43 14.28,9.73C14.86,10.31 15.18,11.08 15.18,11.9C15.18,12.73 14.86,13.5 14.28,14.08M17.1,11.26L15.85,12.5L15.86,11.94C15.86,11.5 15.79,11.06 15.64,10.64L15.6,10.5L15.96,10.13C16.25,9.85 16.4,9.5 16.4,9.08C16.4,8.69 16.25,8.32 15.97,8.04C15.4,7.47 14.43,7.47 13.87,8.04L11.86,10.05C11.58,10.33 11.42,10.7 11.42,11.1C11.42,11.5 11.57,11.86 11.86,12.14C12,12.29 12.1,12.5 12.1,12.71C12.1,12.93 12,13.13 11.85,13.28C11.7,13.44 11.5,13.5 11.29,13.5C11.09,13.5 10.88,13.43 10.72,13.28C9.5,12.08 9.5,10.12 10.72,8.92L12.74,6.9C13.95,5.7 15.9,5.7 17.1,6.9C17.68,7.5 18,8.26 18,9.08C18,9.9 17.68,10.68 17.1,11.26Z" />
    </g>
    <g id="mdi-shield-link-variant-outline" transform="translate(648 0) scale(1.5)" fill="#555">
      <path d="M21,11C21,16.55 17.16,21.74 12,23C6.84,21.74 3,16.55 3,11V5L12,1L21,5V11M12,21C15.75,20 19,15.54 19,11.22V6.3L12,3.18L5,6.3V11.22C5,15.54 8.25,20 12,21M14.28,9.73C14.86,10.31 15.18,11.08 15.18,11.9C15.18,12.73 14.86,13.5 14.28,14.08L12.26,16.1C11.66,16.7 10.87,17 10.08,17C9.29,17 8.5,16.7 7.9,16.1C6.7,14.9 6.7,12.95 7.9,11.74L9.15,10.5L9.14,11.06C9.14,11.5 9.21,11.95 9.36,12.36L9.4,12.5L9.04,12.87C8.75,13.15 8.6,13.5 8.6,13.92C8.6,14.31 8.75,14.68 9.03,14.96C9.6,15.53 10.57,15.53 11.13,14.97L13.14,12.95C13.43,12.67 13.58,12.3 13.58,11.91C13.58,11.5 13.43,11.14 13.14,10.86C13,10.71 12.9,10.5 12.9,10.29C12.9,10.08 13,9.87 13.14,9.72C13.45,9.42 14,9.42 14.28,9.73M18,9.08C18,9.9 17.68,10.68 17.1,11.26L15.85,12.5L15.86,11.94C15.86,11.5 15.79,11.06 15.64,10.64L15.59,10.5L15.96,10.13C16.25,9.85 16.4,9.5 16.4,9.08C16.4,8.69 16.25,8.32 15.96,8.04C15.4,7.47 14.43,7.47 13.87,8.03L11.86,10.05C11.57,10.33 11.42,10.7 11.42,11.1C11.42,11.5 11.57,11.86 11.85,12.14C12,12.29 12.1,12.5 12.1,12.71C12.1,12.93 12,13.13 11.85,13.28C11.7,13.43 11.5,13.5 11.29,13.5C11.09,13.5 10.88,13.43 10.72,13.28C9.5,12.07 9.5,10.12 10.72,8.92L12.74,6.9C13.95,5.7 15.9,5.7 17.1,6.9C17.68,7.5 18,8.26 18,9.08Z" />
    </g>
    <g id="mdi-shield-link-variant-outline" transform="translate(684 0) scale(1.5)" fill="#fff">
      <path d="M21,11C21,16.55 17.16,21.74 12,23C6.84,21.74 3,16.55 3,11V5L12,1L21,5V11M12,21C15.75,20 19,15.54 19,11.22V6.3L12,3.18L5,6.3V11.22C5,15.54 8.25,20 12,21M14.28,9.73C14.86,10.31 15.18,11.08 15.18,11.9C15.18,12.73 14.86,13.5 14.28,14.08L12.26,16.1C11.66,16.7 10.87,17 10.08,17C9.29,17 8.5,16.7 7.9,16.1C6.7,14.9 6.7,12.95 7.9,11.74L9.15,10.5L9.14,11.06C9.14,11.5 9.21,11.95 9.36,12.36L9.4,12.5L9.04,12.87C8.75,13.15 8.6,13.5 8.6,13.92C8.6,14.31 8.75,14.68 9.03,14.96C9.6,15.53 10.57,15.53 11.13,14.97L13.14,12.95C13.43,12.67 13.58,12.3 13.58,11.91C13.58,11.5 13.43,11.14 13.14,10.86C13,10.71 12.9,10.5 12.9,10.29C12.9,10.08 13,9.87 13.14,9.72C13.45,9.42 14,9.42 14.28,9.73M18,9.08C18,9.9 17.68,10.68 17.1,11.26L15.85,12.5L15.86,11.94C15.86,11.5 15.79,11.06 15.64,10.64L15.59,10.5L15.96,10.13C16.25,9.85 16.4,9.5 16.4,9.08C16.4,8.69 16.25,8.32 15.96,8.04C15.4,7.47 14.43,7.47 13.87,8.03L11.86,10.05C11.57,10.33 11.42,10.7 11.42,11.1C11.42,11.5 11.57,11.86 11.85,12.14C12,12.29 12.1,12.5 12.1,12.71C12.1,12.93 12,13.13 11.85,13.28C11.7,13.43 11.5,13.5 11.29,13.5C11.09,13.5 10.88,13.43 10.72,13.28C9.5,12.07 9.5,10.12 10.72,8.92L12.74,6.9C13.95,5.7 15.9,5.7 17.1,6.9C17.68,7.5 18,8.26 18,9.08Z" />
    </g>
    <g id="mdi-shield-lock" transform="translate(0 36) scale(1.5)" fill="#555">
      <path d="M12,1L3,5V11C3,16.55 6.84,21.74 12,23C17.16,21.74 21,16.55 21,11V5L12,1M12,7C13.4,7 14.8,8.1 14.8,9.5V11C15.4,11 16,11.6 16,12.3V15.8C16,16.4 15.4,17 14.7,17H9.2C8.6,17 8,16.4 8,15.7V12.2C8,11.6 8.6,11 9.2,11V9.5C9.2,8.1 10.6,7 12,7M12,8.2C11.2,8.2 10.5,8.7 10.5,9.5V11H13.5V9.5C13.5,8.7 12.8,8.2 12,8.2Z" />
    </g>
    <g id="mdi-shield-lock" transform="translate(36 36) scale(1.5)" fill="#fff">
      <path d="M12,1L3,5V11C3,16.55 6.84,21.74 12,23C17.16,21.74 21,16.55 21,11V5L12,1M12,7C13.4,7 14.8,8.1 14.8,9.5V11C15.4,11 16,11.6 16,12.3V15.8C16,16.4 15.4,17 14.7,17H9.2C8.6,17 8,16.4 8,15.7V12.2C8,11.6 8.6,11 9.2,11V9.5C9.2,8.1 10.6,7 12,7M12,8.2C11.2,8.2 10.5,8.7 10.5,9.5V11H13.5V9.5C13.5,8.7 12.8,8.2 12,8.2Z" />
    </g>
    <g id="mdi-shield-lock-outline" transform="translate(72 36) scale(1.5)" fill="#555">
      <path d="M21,11C21,16.55 17.16,21.74 12,23C6.84,21.74 3,16.55 3,11V5L12,1L21,5V11M12,21C15.75,20 19,15.54 19,11.22V6.3L12,3.18L5,6.3V11.22C5,15.54 8.25,20 12,21M14.8,11V9.5C14.8,8.1 13.4,7 12,7C10.6,7 9.2,8.1 9.2,9.5V11C8.6,11 8,11.6 8,12.2V15.7C8,16.4 8.6,17 9.2,17H14.7C15.4,17 16,16.4 16,15.8V12.3C16,11.6 15.4,11 14.8,11M13.5,11H10.5V9.5C10.5,8.7 11.2,8.2 12,8.2C12.8,8.2 13.5,8.7 13.5,9.5V11Z" />
    </g>
    <g id="mdi-shield-lock-outline" transform="translate(108 36) scale(1.5)" fill="#fff">
      <path d="M21,11C21,16.55 17.16,21.74 12,23C6.84,21.74 3,16.55 3,11V5L12,1L21,5V11M12,21C15.75,20 19,15.54 19,11.22V6.3L12,3.18L5,6.3V11.22C5,15.54 8.25,20 12,21M14.8,11V9.5C14.8,8.1 13.4,7 12,7C10.6,7 9.2,8.1 9.2,9.5V11C8.6,11 8,11.6 8,12.2V15.7C8,16.4 8.6,17 9.2,17H14.7C15.4,17 16,16.4 16,15.8V12.3C16,11.6 15.4,11 14.8,11M13.5,11H10.5V9.5C10.5,8.7 11.2,8.2 12,8.2C12.8,8.2 13.5,8.7 13.5,9.5V11Z" />
    </g>
    <g id="mdi-shield-off" transform="translate(144 36) scale(1.5)" fill="#555">
      <path d="M1,4.27L2.28,3L20.5,21.22L19.23,22.5L17,20.25C15.57,21.57 13.87,22.54 12,23C6.84,21.74 3,16.55 3,11V6.27L1,4.27M12,1L21,5V11C21,13.28 20.35,15.5 19.23,17.41L5.65,3.82L12,1Z" />
    </g>
    <g id="mdi-shield-off" transform="translate(180 36) scale(1.5)" fill="#fff">
      <path d="M1,4.27L2.28,3L20.5,21.22L19.23,22.5L17,20.25C15.57,21.57 13.87,22.54 12,23C6.84,21.74 3,16.55 3,11V6.27L1,4.27M12,1L21,5V11C21,13.28 20.35,15.5 19.23,17.41L5.65,3.82L12,1Z" />
    </g>
    <g id="mdi-shield-off-outline" transform="translate(216 36) scale(1.5)" fill="#555">
      <path d="M1,4.27L3,6.27V11C3,16.55 6.84,21.74 12,23C13.87,22.54 15.57,21.56 16.97,20.24L19.23,22.5L20.5,21.22L2.28,3L1,4.27M12,21C8.25,20 5,15.54 5,11.22V8.27L15.59,18.86C14.53,19.89 13.3,20.65 12,21M21,5V11C21,13.28 20.35,15.5 19.23,17.4L17.77,15.95C18.54,14.5 19,12.84 19,11.22V6.3L12,3.18L7.16,5.34L5.65,3.82L12,1L21,5Z" />
    </g>
    <g id="mdi-shield-off-outline" transform="translate(252 36) scale(1.5)" fill="#fff">
      <path d="M1,4.27L3,6.27V11C3,16.55 6.84,21.74 12,23C13.87,22.54 15.57,21.56 16.97,20.24L19.23,22.5L20.5,21.22L2.28,3L1,4.27M12,21C8.25,20 5,15.54 5,11.22V8.27L15.59,18.86C14.53,19.89 13.3,20.65 12,21M21,5V11C21,13.28 20.35,15.5 19.23,17.4L17.77,15.95C18.54,14.5 19,12.84 19,11.22V6.3L12,3.18L7.16,5.34L5.65,3.82L12,1L21,5Z" />
    </g>
    <g id="mdi-shield-outline" transform="translate(288 36) scale(1.5)" fill="#555">
      <path d="M21,11C21,16.55 17.16,21.74 12,23C6.84,21.74 3,16.55 3,11V5L12,1L21,5V11M12,21C15.75,20 19,15.54 19,11.22V6.3L12,3.18L5,6.3V11.22C5,15.54 8.25,20 12,21Z" />
    </g>
    <g id="mdi-shield-outline" transform="translate(324 36) scale(1.5)" fill="#fff">
      <path d="M21,11C21,16.55 17.16,21.74 12,23C6.84,21.74 3,16.55 3,11V5L12,1L21,5V11M12,21C15.75,20 19,15.54 19,11.22V6.3L12,3.18L5,6.3V11.22C5,15.54 8.25,20 12,21Z" />
    </g>
    <g id="mdi-shield-plus" transform="translate(360 36) scale(1.5)" fill="#555">
      <path d="M19,20V22.97H17V20H14V18H17V15H19V18H22V20H19M12,1L21,5V11C21,11.9 20.9,12.78 20.71,13.65C19.9,13.23 19,13 18,13A6,6 0 0,0 12,19C12,20.36 12.45,21.62 13.22,22.62L12,23C6.84,21.74 3,16.55 3,11V5L12,1Z" />
    </g>
    <g id="mdi-shield-plus" transform="translate(396 36) scale(1.5)" fill="#fff">
      <path d="M19,20V22.97H17V20H14V18H17V15H19V18H22V20H19M12,1L21,5V11C21,11.9 20.9,12.78 20.71,13.65C19.9,13.23 19,13 18,13A6,6 0 0,0 12,19C12,20.36 12.45,21.62 13.22,22.62L12,23C6.84,21.74 3,16.55 3,11V5L12,1Z" />
    </g>
    <g id="mdi-shield-plus-outline" transform="translate(432 36) scale(1.5)" fill="#555">
      <path d="M19,20V22.97H17V20H14V18H17V15H19V18H22V20H19M21,11C21,11.9 20.9,12.78 20.71,13.65C20.13,13.35 19.5,13.15 18.81,13.05C18.93,12.45 19,11.83 19,11.22V6.3L12,3.18L5,6.3V11.22C5,15.54 8.25,20 12,21L12.31,20.91C12.5,21.53 12.83,22.11 13.22,22.62L12,23C6.84,21.74 3,16.55 3,11V5L12,1L21,5V11Z" />
    </g>
    <g id="mdi-shield-plus-outline" transform="translate(468 36) scale(1.5)" fill="#fff">
      <path d="M19,20V22.97H17V20H14V18H17V15H19V18H22V20H19M21,11C21,11.9 20.9,12.78 20.71,13.65C20.13,13.35 19.5,13.15 18.81,13.05C18.93,12.45 19,11.83 19,11.22V6.3L12,3.18L5,6.3V11.22C5,15.54 8.25,20 12,21L12.31,20.91C12.5,21.53 12.83,22.11 13.22,22.62L12,23C6.84,21.74 3,16.55 3,11V5L12,1L21,5V11Z" />
    </g>
    <g id="mdi-shield-refresh" transform="translate(504 36) scale(1.5)" fill="#555">
      <path d="M18 12C19 12 20 12.2 20.9 12.7C21 12.1 21 11.6 21 11V5L12 1L3 5V11C3 16.5 6.8 21.7 12 23C12.4 22.9 12.7 22.8 13 22.7C12 21.5 11.5 20 11.5 18.5C11.5 14.9 14.4 12 18 12M18 14.5C19.1 14.5 20.1 14.9 20.8 15.7L22 14.5V18.5H18L19.8 16.7C19.3 16.3 18.7 16 18 16C16.6 16 15.5 17.1 15.5 18.5S16.6 21 18 21C18.8 21 19.5 20.6 20 20H21.7C21.1 21.5 19.7 22.5 18 22.5C15.8 22.5 14 20.7 14 18.5S15.8 14.5 18 14.5Z" />
    </g>
    <g id="mdi-shield-refresh" transform="translate(540 36) scale(1.5)" fill="#fff">
      <path d="M18 12C19 12 20 12.2 20.9 12.7C21 12.1 21 11.6 21 11V5L12 1L3 5V11C3 16.5 6.8 21.7 12 23C12.4 22.9 12.7 22.8 13 22.7C12 21.5 11.5 20 11.5 18.5C11.5 14.9 14.4 12 18 12M18 14.5C19.1 14.5 20.1 14.9 20.8 15.7L22 14.5V18.5H18L19.8 16.7C19.3 16.3 18.7 16 18 16C16.6 16 15.5 17.1 15.5 18.5S16.6 21 18 21C18.8 21 19.5 20.6 20 20H21.7C21.1 21.5 19.7 22.5 18 22.5C15.8 22.5 14 20.7 14 18.5S15.8 14.5 18 14.5Z" />
    </g>
    <g id="mdi-shield-refresh-outline" transform="translate(576 36) scale(1.5)" fill="#555">
      <path d="M12 21C8.2 20 5 15.5 5 11.2V6.3L12 3.2L19 6.3V12.1C19.7 12.2 20.3 12.4 20.9 12.7C21 12.1 21 11.6 21 11V5L12 1L3 5V11C3 16.5 6.8 21.7 12 23C12.4 22.9 12.7 22.8 13 22.7C12.6 22.2 12.2 21.6 12 21M18 14.5C19.1 14.5 20.1 14.9 20.8 15.7L22 14.5V18.5H18L19.8 16.7C19.3 16.3 18.7 16 18 16C16.6 16 15.5 17.1 15.5 18.5S16.6 21 18 21C18.8 21 19.5 20.6 20 20H21.7C21.1 21.5 19.7 22.5 18 22.5C15.8 22.5 14 20.7 14 18.5S15.8 14.5 18 14.5Z" />
    </g>
    <g id="mdi-shield-refresh-outline" transform="translate(612 36) scale(1.5)" fill="#fff">
      <path d="M12 21C8.2 20 5 15.5 5 11.2V6.3L12 3.2L19 6.3V12.1C19.7 12.2 20.3 12.4 20.9 12.7C21 12.1 21 11.6 21 11V5L12 1L3 5V11C3 16.5 6.8 21.7 12 23C12.4 22.9 12.7 22.8 13 22.7C12.6 22.2 12.2 21.6 12 21M18 14.5C19.1 14.5 20.1 14.9 20.8 15.7L22 14.5V18.5H18L19.8 16.7C19.3 16.3 18.7 16 18 16C16.6 16 15.5 17.1 15.5 18.5S16.6 21 18 21C18.8 21 19.5 20.6 20 20H21.7C21.1 21.5 19.7 22.5 18 22.5C15.8 22.5 14 20.7 14 18.5S15.8 14.5 18 14.5Z" />
    </g>
    <g id="mdi-shield-remove" transform="translate(648 36) scale(1.5)" fill="#555">
      <path d="M19.43,19L21.5,21.11L20.12,22.5L18.03,20.41L15.91,22.53L14.5,21.11L16.61,19L14.5,16.86L15.88,15.47L18,17.59L20.12,15.47L21.55,16.9L19.43,19M12,1L21,5V11C21,11.9 20.9,12.78 20.71,13.65C19.9,13.23 19,13 18,13A6,6 0 0,0 12,19C12,20.36 12.45,21.62 13.22,22.62L12,23C6.84,21.74 3,16.55 3,11V5L12,1Z" />
    </g>
    <g id="mdi-shield-remove" transform="translate(684 36) scale(1.5)" fill="#fff">
      <path d="M19.43,19L21.5,21.11L20.12,22.5L18.03,20.41L15.91,22.53L14.5,21.11L16.61,19L14.5,16.86L15.88,15.47L18,17.59L20.12,15.47L21.55,16.9L19.43,19M12,1L21,5V11C21,11.9 20.9,12.78 20.71,13.65C19.9,13.23 19,13 18,13A6,6 0 0,0 12,19C12,20.36 12.45,21.62 13.22,22.62L12,23C6.84,21.74 3,16.55 3,11V5L12,1Z" />
    </g>
    <g id="mdi-shield-remove-outline" transform="translate(0 72) scale(1.5)" fill="#555">
      <path d="M19.43,19L21.5,21.11L20.12,22.5L18.03,20.41L15.91,22.53L14.5,21.11L16.61,19L14.5,16.86L15.88,15.47L18,17.59L20.12,15.47L21.55,16.9L19.43,19M21,11C21,11.9 20.9,12.78 20.71,13.65C20.13,13.35 19.5,13.15 18.81,13.05C18.93,12.45 19,11.83 19,11.22V6.3L12,3.18L5,6.3V11.22C5,15.54 8.25,20 12,21L12.31,20.91C12.5,21.53 12.83,22.11 13.22,22.62L12,23C6.84,21.74 3,16.55 3,11V5L12,1L21,5V11Z" />
    </g>
    <g id="mdi-shield-remove-outline" transform="translate(36 72) scale(1.5)" fill="#fff">
      <path d="M19.43,19L21.5,21.11L20.12,22.5L18.03,20.41L15.91,22.53L14.5,21.11L16.61,19L14.5,16.86L15.88,15.47L18,17.59L20.12,15.47L21.55,16.9L19.43,19M21,11C21,11.9 20.9,12.78 20.71,13.65C20.13,13.35 19.5,13.15 18.81,13.05C18.93,12.45 19,11.83 19,11.22V6.3L12,3.18L5,6.3V11.22C5,15.54 8.25,20 12,21L12.31,20.91C12.5,21.53 12.83,22.11 13.22,22.62L12,23C6.84,21.74 3,16.55 3,11V5L12,1L21,5V11Z" />
    </g>
    <g id="mdi-shield-search" transform="translate(72 72) scale(1.5)" fill="#555">
      <path d="M12,9A3,3 0 0,1 15,12A3,3 0 0,1 12,15A3,3 0 0,1 9,12A3,3 0 0,1 12,9M17.86,19.31C16.23,21.22 14.28,22.45 12,23C9.44,22.39 7.3,20.93 5.58,18.63C3.86,16.34 3,13.8 3,11V5L12,1L21,5V11C21,13.39 20.36,15.61 19.08,17.67L16.17,14.76C16.69,13.97 17,13 17,12A5,5 0 0,0 12,7A5,5 0 0,0 7,12A5,5 0 0,0 12,17C13,17 13.97,16.69 14.76,16.17L17.86,19.31Z" />
    </g>
    <g id="mdi-shield-search" transform="translate(108 72) scale(1.5)" fill="#fff">
      <path d="M12,9A3,3 0 0,1 15,12A3,3 0 0,1 12,15A3,3 0 0,1 9,12A3,3 0 0,1 12,9M17.86,19.31C16.23,21.22 14.28,22.45 12,23C9.44,22.39 7.3,20.93 5.58,18.63C3.86,16.34 3,13.8 3,11V5L12,1L21,5V11C21,13.39 20.36,15.61 19.08,17.67L16.17,14.76C16.69,13.97 17,13 17,12A5,5 0 0,0 12,7A5,5 0 0,0 7,12A5,5 0 0,0 12,17C13,17 13.97,16.69 14.76,16.17L17.86,19.31Z" />
    </g>
    <g id="mdi-shield-star" transform="translate(144 72) scale(1.5)" fill="#555">
      <path d="M12 1L3 5V11C3 16.55 6.84 21.74 12 23C17.16 21.74 21 16.55 21 11V5L12 1M15.08 16L12 14.15L8.93 16L9.74 12.5L7.03 10.16L10.61 9.85L12 6.55L13.39 9.84L16.97 10.15L14.26 12.5L15.08 16Z" />
    </g>
    <g id="mdi-shield-star" transform="translate(180 72) scale(1.5)" fill="#fff">
      <path d="M12 1L3 5V11C3 16.55 6.84 21.74 12 23C17.16 21.74 21 16.55 21 11V5L12 1M15.08 16L12 14.15L8.93 16L9.74 12.5L7.03 10.16L10.61 9.85L12 6.55L13.39 9.84L16.97 10.15L14.26 12.5L15.08 16Z" />
    </g>
    <g id="mdi-shield-star-outline" transform="translate(216 72) scale(1.5)" fill="#555">
      <path d="M21 11C21 16.55 17.16 21.74 12 23C6.84 21.74 3 16.55 3 11V5L12 1L21 5V11M12 21C15.75 20 19 15.54 19 11.22V6.3L12 3.18L5 6.3V11.22C5 15.54 8.25 20 12 21M15.05 16L11.97 14.15L8.9 16L9.71 12.5L7 10.16L10.58 9.85L11.97 6.55L13.37 9.84L16.95 10.15L14.23 12.5L15.05 16" />
    </g>
    <g id="mdi-shield-star-outline" transform="translate(252 72) scale(1.5)" fill="#fff">
      <path d="M21 11C21 16.55 17.16 21.74 12 23C6.84 21.74 3 16.55 3 11V5L12 1L21 5V11M12 21C15.75 20 19 15.54 19 11.22V6.3L12 3.18L5 6.3V11.22C5 15.54 8.25 20 12 21M15.05 16L11.97 14.15L8.9 16L9.71 12.5L7 10.16L10.58 9.85L11.97 6.55L13.37 9.84L16.95 10.15L14.23 12.5L15.05 16" />
    </g>
    <g id="mdi-shield-sun" transform="translate(288 72) scale(1.5)" fill="#555">
      <path d="M12 1L3 5V11C3 16.55 6.84 21.74 12 23C17.16 21.74 21 16.55 21 11V5L12 1M12 8.89C13.6 8.89 14.89 10.18 14.89 11.78S13.6 14.67 12 14.67 9.11 13.37 9.11 11.78 10.41 8.89 12 8.89M12 6L13.38 8C12.96 7.82 12.5 7.73 12 7.73S11.05 7.82 10.62 8L12 6M7 8.89L9.4 8.69C9.06 9 8.74 9.34 8.5 9.76C8.25 10.18 8.1 10.62 8 11.08L7 8.89M7 14.67L8.03 12.5C8.11 12.93 8.27 13.38 8.5 13.8C8.75 14.23 9.06 14.59 9.4 14.88L7 14.67M17 8.89L16 11.08C15.9 10.62 15.74 10.18 15.5 9.76C15.26 9.34 14.95 9 14.6 8.68L17 8.89M17 14.67L14.6 14.87C14.94 14.58 15.25 14.22 15.5 13.8C15.74 13.38 15.89 12.93 15.97 12.5L17 14.67M12 17.55L10.61 15.57C11.04 15.72 11.5 15.82 12 15.82C12.5 15.82 12.95 15.72 13.37 15.57L12 17.55Z" />
    </g>
    <g id="mdi-shield-sun" transform="translate(324 72) scale(1.5)" fill="#fff">
      <path d="M12 1L3 5V11C3 16.55 6.84 21.74 12 23C17.16 21.74 21 16.55 21 11V5L12 1M12 8.89C13.6 8.89 14.89 10.18 14.89 11.78S13.6 14.67 12 14.67 9.11 13.37 9.11 11.78 10.41 8.89 12 8.89M12 6L13.38 8C12.96 7.82 12.5 7.73 12 7.73S11.05 7.82 10.62 8L12 6M7 8.89L9.4 8.69C9.06 9 8.74 9.34 8.5 9.76C8.25 10.18 8.1 10.62 8 11.08L7 8.89M7 14.67L8.03 12.5C8.11 12.93 8.27 13.38 8.5 13.8C8.75 14.23 9.06 14.59 9.4 14.88L7 14.67M17 8.89L16 11.08C15.9 10.62 15.74 10.18 15.5 9.76C15.26 9.34 14.95 9 14.6 8.68L17 8.89M17 14.67L14.6 14.87C14.94 14.58 15.25 14.22 15.5 13.8C15.74 13.38 15.89 12.93 15.97 12.5L17 14.67M12 17.55L10.61 15.57C11.04 15.72 11.5 15.82 12 15.82C12.5 15.82 12.95 15.72 13.37 15.57L12 17.55Z" />
    </g>
    <g id="mdi-shield-sun-outline" transform="translate(360 72) scale(1.5)" fill="#555">
      <path d="M21 11C21 16.55 17.16 21.74 12 23C6.84 21.74 3 16.55 3 11V5L12 1L21 5V11M12 21C15.75 20 19 15.54 19 11.22V6.3L12 3.18L5 6.3V11.22C5 15.54 8.25 20 12 21M12 8.89C13.6 8.89 14.89 10.18 14.89 11.78S13.6 14.67 12 14.67 9.11 13.37 9.11 11.78 10.41 8.89 12 8.89M12 6L13.38 8C12.96 7.82 12.5 7.73 12 7.73S11.05 7.82 10.62 8L12 6M7 8.89L9.4 8.69C9.06 9 8.74 9.34 8.5 9.76C8.25 10.18 8.1 10.62 8 11.08L7 8.89M7 14.67L8.03 12.5C8.11 12.93 8.27 13.38 8.5 13.8C8.75 14.23 9.06 14.59 9.4 14.88L7 14.67M17 8.89L16 11.08C15.9 10.62 15.74 10.18 15.5 9.76C15.26 9.34 14.95 9 14.6 8.68L17 8.89M17 14.67L14.6 14.87C14.94 14.58 15.25 14.22 15.5 13.8C15.74 13.38 15.89 12.93 15.97 12.5L17 14.67M12 17.55L10.61 15.57C11.04 15.72 11.5 15.82 12 15.82C12.5 15.82 12.95 15.72 13.37 15.57L12 17.55Z" />
    </g>
    <g id="mdi-shield-sun-outline" transform="translate(396 72) scale(1.5)" fill="#fff">
      <path d="M21 11C21 16.55 17.16 21.74 12 23C6.84 21.74 3 16.55 3 11V5L12 1L21 5V11M12 21C15.75 20 19 15.54 19 11.22V6.3L12 3.18L5 6.3V11.22C5 15.54 8.25 20 12 21M12 8.89C13.6 8.89 14.89 10.18 14.89 11.78S13.6 14.67 12 14.67 9.11 13.37 9.11 11.78 10.41 8.89 12 8.89M12 6L13.38 8C12.96 7.82 12.5 7.73 12 7.73S11.05 7.82 10.62 8L12 6M7 8.89L9.4 8.69C9.06 9 8.74 9.34 8.5 9.76C8.25 10.18 8.1 10.62 8 11.08L7 8.89M7 14.67L8.03 12.5C8.11 12.93 8.27 13.38 8.5 13.8C8.75 14.23 9.06 14.59 9.4 14.88L7 14.67M17 8.89L16 11.08C15.9 10.62 15.74 10.18 15.5 9.76C15.26 9.34 14.95 9 14.6 8.68L17 8.89M17 14.67L14.6 14.87C14.94 14.58 15.25 14.22 15.5 13.8C15.74 13.38 15.89 12.93 15.97 12.5L17 14.67M12 17.55L10.61 15.57C11.04 15.72 11.5 15.82 12 15.82C12.5 15.82 12.95 15.72 13.37 15.57L12 17.55Z" />
    </g>
    <g id="mdi-shield-sync" transform="translate(432 72) scale(1.5)" fill="#555">
      <path d="M18 12A6.41 6.41 0 0 1 20.87 12.67A11.63 11.63 0 0 0 21 11V5L12 1L3 5V11C3 16.55 6.84 21.74 12 23C12.35 22.91 12.7 22.8 13 22.68A6.42 6.42 0 0 1 11.5 18.5A6.5 6.5 0 0 1 18 12M18 14.5V13L15.75 15.25L18 17.5V16A2.5 2.5 0 0 1 20.24 19.62L21.33 20.71A4 4 0 0 0 18 14.5M18 21A2.5 2.5 0 0 1 15.76 17.38L14.67 16.29A4 4 0 0 0 18 22.5V24L20.25 21.75L18 19.5Z" />
    </g>
    <g id="mdi-shield-sync" transform="translate(468 72) scale(1.5)" fill="#fff">
      <path d="M18 12A6.41 6.41 0 0 1 20.87 12.67A11.63 11.63 0 0 0 21 11V5L12 1L3 5V11C3 16.55 6.84 21.74 12 23C12.35 22.91 12.7 22.8 13 22.68A6.42 6.42 0 0 1 11.5 18.5A6.5 6.5 0 0 1 18 12M18 14.5V13L15.75 15.25L18 17.5V16A2.5 2.5 0 0 1 20.24 19.62L21.33 20.71A4 4 0 0 0 18 14.5M18 21A2.5 2.5 0 0 1 15.76 17.38L14.67 16.29A4 4 0 0 0 18 22.5V24L20.25 21.75L18 19.5Z" />
    </g>
    <g id="mdi-shield-sync-outline" transform="translate(504 72) scale(1.5)" fill="#555">
      <path d="M12 21C8.25 20 5 15.54 5 11.22V6.3L12 3.18L19 6.3V12.07A6.45 6.45 0 0 1 20.91 12.67A11.63 11.63 0 0 0 21 11V5L12 1L3 5V11C3 16.55 6.84 21.74 12 23C12.35 22.91 12.7 22.8 13 22.68A6.3 6.3 0 0 1 12 21M18 14.5V13L15.75 15.25L18 17.5V16A2.5 2.5 0 0 1 20.24 19.62L21.33 20.71A4 4 0 0 0 18 14.5M18 21A2.5 2.5 0 0 1 15.76 17.38L14.67 16.29A4 4 0 0 0 18 22.5V24L20.25 21.75L18 19.5Z" />
    </g>
    <g id="mdi-shield-sync-outline" transform="translate(540 72) scale(1.5)" fill="#fff">
      <path d="M12 21C8.25 20 5 15.54 5 11.22V6.3L12 3.18L19 6.3V12.07A6.45 6.45 0 0 1 20.91 12.67A11.63 11.63 0 0 0 21 11V5L12 1L3 5V11C3 16.55 6.84 21.74 12 23C12.35 22.91 12.7 22.8 13 22.68A6.3 6.3 0 0 1 12 21M18 14.5V13L15.75 15.25L18 17.5V16A2.5 2.5 0 0 1 20.24 19.62L21.33 20.71A4 4 0 0 0 18 14.5M18 21A2.5 2.5 0 0 1 15.76 17.38L14.67 16.29A4 4 0 0 0 18 22.5V24L20.25 21.75L18 19.5Z" />
    </g>
    <g id="mdi-ship-wheel" transform="translate(576 72) scale(1.5)" fill="#555">
      <path d="M2,11L4.05,11.1C4.3,8.83 5.5,6.85 7.25,5.56L6.13,3.84C5.86,3.36 6,2.75 6.5,2.47C7,2.2 7.59,2.36 7.87,2.84L8.8,4.66C9.78,4.24 10.86,4 12,4C13.14,4 14.22,4.24 15.2,4.66L16.13,2.84C16.41,2.36 17,2.2 17.5,2.47C18,2.75 18.14,3.36 17.87,3.84L16.75,5.56C18.5,6.85 19.7,8.83 19.95,11.1L22,11A1,1 0 0,1 23,12A1,1 0 0,1 22,13L19.95,12.9C19.7,15.17 18.5,17.15 16.75,18.44L17.87,20.16C18.14,20.64 18,21.25 17.5,21.53C17,21.8 16.41,21.64 16.13,21.16L15.2,19.34C14.22,19.76 13.14,20 12,20C10.86,20 9.78,19.76 8.8,19.34L7.87,21.16C7.59,21.64 7,21.8 6.5,21.53C6,21.25 5.86,20.64 6.13,20.16L7.25,18.44C5.5,17.15 4.3,15.17 4.05,12.9L2,13A1,1 0 0,1 1,12A1,1 0 0,1 2,11M9.07,11.35C9.2,10.74 9.53,10.2 10,9.79L8.34,7.25C7.11,8.19 6.27,9.6 6.05,11.2L9.07,11.35M12,9C12.32,9 12.62,9.05 12.9,9.14L14.28,6.45C13.58,6.16 12.81,6 12,6C11.19,6 10.42,6.16 9.72,6.45L11.1,9.14C11.38,9.05 11.68,9 12,9M14.93,11.35L17.95,11.2C17.73,9.6 16.89,8.19 15.66,7.25L14,9.79C14.47,10.2 14.8,10.74 14.93,11.35M14.93,12.65C14.8,13.26 14.47,13.8 14,14.21L15.66,16.75C16.89,15.81 17.73,14.4 17.95,12.8L14.93,12.65M12,15C11.68,15 11.38,14.95 11.09,14.86L9.72,17.55C10.42,17.84 11.19,18 12,18C12.81,18 13.58,17.84 14.28,17.55L12.91,14.86C12.62,14.95 12.32,15 12,15M9.07,12.65L6.05,12.8C6.27,14.4 7.11,15.81 8.34,16.75L10,14.21C9.53,13.8 9.2,13.26 9.07,12.65Z" />
    </g>
    <g id="mdi-ship-wheel" transform="translate(612 72) scale(1.5)" fill="#fff">
      <path d="M2,11L4.05,11.1C4.3,8.83 5.5,6.85 7.25,5.56L6.13,3.84C5.86,3.36 6,2.75 6.5,2.47C7,2.2 7.59,2.36 7.87,2.84L8.8,4.66C9.78,4.24 10.86,4 12,4C13.14,4 14.22,4.24 15.2,4.66L16.13,2.84C16.41,2.36 17,2.2 17.5,2.47C18,2.75 18.14,3.36 17.87,3.84L16.75,5.56C18.5,6.85 19.7,8.83 19.95,11.1L22,11A1,1 0 0,1 23,12A1,1 0 0,1 22,13L19.95,12.9C19.7,15.17 18.5,17.15 16.75,18.44L17.87,20.16C18.14,20.64 18,21.25 17.5,21.53C17,21.8 16.41,21.64 16.13,21.16L15.2,19.34C14.22,19.76 13.14,20 12,20C10.86,20 9.78,19.76 8.8,19.34L7.87,21.16C7.59,21.64 7,21.8 6.5,21.53C6,21.25 5.86,20.64 6.13,20.16L7.25,18.44C5.5,17.15 4.3,15.17 4.05,12.9L2,13A1,1 0 0,1 1,12A1,1 0 0,1 2,11M9.07,11.35C9.2,10.74 9.53,10.2 10,9.79L8.34,7.25C7.11,8.19 6.27,9.6 6.05,11.2L9.07,11.35M12,9C12.32,9 12.62,9.05 12.9,9.14L14.28,6.45C13.58,6.16 12.81,6 12,6C11.19,6 10.42,6.16 9.72,6.45L11.1,9.14C11.38,9.05 11.68,9 12,9M14.93,11.35L17.95,11.2C17.73,9.6 16.89,8.19 15.66,7.25L14,9.79C14.47,10.2 14.8,10.74 14.93,11.35M14.93,12.65C14.8,13.26 14.47,13.8 14,14.21L15.66,16.75C16.89,15.81 17.73,14.4 17.95,12.8L14.93,12.65M12,15C11.68,15 11.38,14.95 11.09,14.86L9.72,17.55C10.42,17.84 11.19,18 12,18C12.81,18 13.58,17.84 14.28,17.55L12.91,14.86C12.62,14.95 12.32,15 12,15M9.07,12.65L6.05,12.8C6.27,14.4 7.11,15.81 8.34,16.75L10,14.21C9.53,13.8 9.2,13.26 9.07,12.65Z" />
    </g>
    <g id="mdi-shoe-formal" transform="translate(648 72) scale(1.5)" fill="#555">
      <path d="M21.5,9V8H20.5L19.5,9H15L14,8H13L7,12H4A2,2 0 0,0 2,14V16H10L13,15H15V16H21.5V14C21.5,14 22,13 22,11.5C22,10 21.5,9 21.5,9Z" />
    </g>
    <g id="mdi-shoe-formal" transform="translate(684 72) scale(1.5)" fill="#fff">
      <path d="M21.5,9V8H20.5L19.5,9H15L14,8H13L7,12H4A2,2 0 0,0 2,14V16H10L13,15H15V16H21.5V14C21.5,14 22,13 22,11.5C22,10 21.5,9 21.5,9Z" />
    </g>
    <g id="mdi-shoe-heel" transform="translate(0 108) scale(1.5)" fill="#555">
      <path d="M3,18H11.7L17,14H18V18H20V14C20,14 21,12 21,10C21,8 20.5,6 20.5,6H18.5L18,7L10,14H8L3,16V18Z" />
    </g>
    <g id="mdi-shoe-heel" transform="translate(36 108) scale(1.5)" fill="#fff">
      <path d="M3,18H11.7L17,14H18V18H20V14C20,14 21,12 21,10C21,8 20.5,6 20.5,6H18.5L18,7L10,14H8L3,16V18Z" />
    </g>
    <g id="mdi-shoe-print" transform="translate(72 108) scale(1.5)" fill="#555">
      <path d="M10.74,11.72C11.21,12.95 11.16,14.23 9.75,14.74C6.85,15.81 6.2,13 6.16,12.86L10.74,11.72M5.71,10.91L10.03,9.84C9.84,8.79 10.13,7.74 10.13,6.5C10.13,4.82 8.8,1.53 6.68,2.06C4.26,2.66 3.91,5.35 4,6.65C4.12,7.95 5.64,10.73 5.71,10.91M17.85,19.85C17.82,20 17.16,22.8 14.26,21.74C12.86,21.22 12.8,19.94 13.27,18.71L17.85,19.85M20,13.65C20.1,12.35 19.76,9.65 17.33,9.05C15.22,8.5 13.89,11.81 13.89,13.5C13.89,14.73 14.17,15.78 14,16.83L18.3,17.9C18.38,17.72 19.89,14.94 20,13.65Z" />
    </g>
    <g id="mdi-shoe-print" transform="translate(108 108) scale(1.5)" fill="#fff">
      <path d="M10.74,11.72C11.21,12.95 11.16,14.23 9.75,14.74C6.85,15.81 6.2,13 6.16,12.86L10.74,11.72M5.71,10.91L10.03,9.84C9.84,8.79 10.13,7.74 10.13,6.5C10.13,4.82 8.8,1.53 6.68,2.06C4.26,2.66 3.91,5.35 4,6.65C4.12,7.95 5.64,10.73 5.71,10.91M17.85,19.85C17.82,20 17.16,22.8 14.26,21.74C12.86,21.22 12.8,19.94 13.27,18.71L17.85,19.85M20,13.65C20.1,12.35 19.76,9.65 17.33,9.05C15.22,8.5 13.89,11.81 13.89,13.5C13.89,14.73 14.17,15.78 14,16.83L18.3,17.9C18.38,17.72 19.89,14.94 20,13.65Z" />
    </g>
    <g id="mdi-shopping" transform="translate(144 108) scale(1.5)" fill="#555">
      <path d="M12,13A5,5 0 0,1 7,8H9A3,3 0 0,0 12,11A3,3 0 0,0 15,8H17A5,5 0 0,1 12,13M12,3A3,3 0 0,1 15,6H9A3,3 0 0,1 12,3M19,6H17A5,5 0 0,0 12,1A5,5 0 0,0 7,6H5C3.89,6 3,6.89 3,8V20A2,2 0 0,0 5,22H19A2,2 0 0,0 21,20V8C21,6.89 20.1,6 19,6Z" />
    </g>
    <g id="mdi-shopping" transform="translate(180 108) scale(1.5)" fill="#fff">
      <path d="M12,13A5,5 0 0,1 7,8H9A3,3 0 0,0 12,11A3,3 0 0,0 15,8H17A5,5 0 0,1 12,13M12,3A3,3 0 0,1 15,6H9A3,3 0 0,1 12,3M19,6H17A5,5 0 0,0 12,1A5,5 0 0,0 7,6H5C3.89,6 3,6.89 3,8V20A2,2 0 0,0 5,22H19A2,2 0 0,0 21,20V8C21,6.89 20.1,6 19,6Z" />
    </g>
    <g id="mdi-shopping-music" transform="translate(216 108) scale(1.5)" fill="#555">
      <path d="M12,3A3,3 0 0,0 9,6H15A3,3 0 0,0 12,3M19,6A2,2 0 0,1 21,8V20A2,2 0 0,1 19,22H5C3.89,22 3,21.1 3,20V8C3,6.89 3.89,6 5,6H7A5,5 0 0,1 12,1A5,5 0 0,1 17,6H19M9,19L16.5,14L9,10V19Z" />
    </g>
    <g id="mdi-shopping-music" transform="translate(252 108) scale(1.5)" fill="#fff">
      <path d="M12,3A3,3 0 0,0 9,6H15A3,3 0 0,0 12,3M19,6A2,2 0 0,1 21,8V20A2,2 0 0,1 19,22H5C3.89,22 3,21.1 3,20V8C3,6.89 3.89,6 5,6H7A5,5 0 0,1 12,1A5,5 0 0,1 17,6H19M9,19L16.5,14L9,10V19Z" />
    </g>
    <g id="mdi-shopping-outline" transform="translate(288 108) scale(1.5)" fill="#555">
      <path d="M19 6H17C17 3.2 14.8 1 12 1S7 3.2 7 6H5C3.9 6 3 6.9 3 8V20C3 21.1 3.9 22 5 22H19C20.1 22 21 21.1 21 20V8C21 6.9 20.1 6 19 6M12 3C13.7 3 15 4.3 15 6H9C9 4.3 10.3 3 12 3M19 20H5V8H19V20M12 12C10.3 12 9 10.7 9 9H7C7 11.8 9.2 14 12 14S17 11.8 17 9H15C15 10.7 13.7 12 12 12Z" />
    </g>
    <g id="mdi-shopping-outline" transform="translate(324 108) scale(1.5)" fill="#fff">
      <path d="M19 6H17C17 3.2 14.8 1 12 1S7 3.2 7 6H5C3.9 6 3 6.9 3 8V20C3 21.1 3.9 22 5 22H19C20.1 22 21 21.1 21 20V8C21 6.9 20.1 6 19 6M12 3C13.7 3 15 4.3 15 6H9C9 4.3 10.3 3 12 3M19 20H5V8H19V20M12 12C10.3 12 9 10.7 9 9H7C7 11.8 9.2 14 12 14S17 11.8 17 9H15C15 10.7 13.7 12 12 12Z" />
    </g>
    <g id="mdi-shopping-search" transform="translate(360 108) scale(1.5)" fill="#555">
      <path d="M19 6H17A5 5 0 0 0 7 6H5A2 2 0 0 0 3 8V20A2 2 0 0 0 5 22H12.05A6.5 6.5 0 0 1 9 16.5A6.4 6.4 0 0 1 10.25 12.68A5 5 0 0 1 7 8H9A3 3 0 0 0 12 11H12.06A6.22 6.22 0 0 1 14.06 10.16A3 3 0 0 0 15 8H17A4.88 4.88 0 0 1 16.54 10.09A6.5 6.5 0 0 1 21 13.09V8A2 2 0 0 0 19 6M9 6A3 3 0 0 1 15 6M19.31 18.9A4.5 4.5 0 1 0 17.88 20.32L21 23.39L22.39 22M15.5 19A2.5 2.5 0 1 1 18 16.5A2.5 2.5 0 0 1 15.5 19Z" />
    </g>
    <g id="mdi-shopping-search" transform="translate(396 108) scale(1.5)" fill="#fff">
      <path d="M19 6H17A5 5 0 0 0 7 6H5A2 2 0 0 0 3 8V20A2 2 0 0 0 5 22H12.05A6.5 6.5 0 0 1 9 16.5A6.4 6.4 0 0 1 10.25 12.68A5 5 0 0 1 7 8H9A3 3 0 0 0 12 11H12.06A6.22 6.22 0 0 1 14.06 10.16A3 3 0 0 0 15 8H17A4.88 4.88 0 0 1 16.54 10.09A6.5 6.5 0 0 1 21 13.09V8A2 2 0 0 0 19 6M9 6A3 3 0 0 1 15 6M19.31 18.9A4.5 4.5 0 1 0 17.88 20.32L21 23.39L22.39 22M15.5 19A2.5 2.5 0 1 1 18 16.5A2.5 2.5 0 0 1 15.5 19Z" />
    </g>
    <g id="mdi-shovel" transform="translate(432 108) scale(1.5)" fill="#555">
      <path d="M15.1,1.81L12.27,4.64C11.5,5.42 11.5,6.69 12.27,7.47L13.68,8.88L9.13,13.43L6.31,10.6L4.89,12C-0.06,17 3.5,20.5 3.5,20.5C3.5,20.5 7,24 12,19.09L13.41,17.68L10.61,14.88L15.15,10.34L16.54,11.73C17.32,12.5 18.59,12.5 19.37,11.73L22.2,8.9L15.1,1.81M17.93,10.28L16.55,8.9L15.11,7.46L13.71,6.06L15.12,4.65L19.35,8.88L17.93,10.28Z" />
    </g>
    <g id="mdi-shovel" transform="translate(468 108) scale(1.5)" fill="#fff">
      <path d="M15.1,1.81L12.27,4.64C11.5,5.42 11.5,6.69 12.27,7.47L13.68,8.88L9.13,13.43L6.31,10.6L4.89,12C-0.06,17 3.5,20.5 3.5,20.5C3.5,20.5 7,24 12,19.09L13.41,17.68L10.61,14.88L15.15,10.34L16.54,11.73C17.32,12.5 18.59,12.5 19.37,11.73L22.2,8.9L15.1,1.81M17.93,10.28L16.55,8.9L15.11,7.46L13.71,6.06L15.12,4.65L19.35,8.88L17.93,10.28Z" />
    </g>
    <g id="mdi-shovel-off" transform="translate(504 108) scale(1.5)" fill="#555">
      <path d="M15.1,1.81L12.27,4.65C11.5,5.43 11.5,6.69 12.27,7.47L13.68,8.89L13,9.62L14.44,11.06L15.17,10.33L16.56,11.72C17.34,12.5 18.61,12.5 19.39,11.72L22.22,8.88L15.1,1.81M17.93,10.28L13.7,6.06L15.11,4.65L19.34,8.88L17.93,10.28M20.7,20.24L19.29,21.65L11.5,13.88L10.5,14.88L13.33,17.69L12,19.09C7,24 3.5,20.5 3.5,20.5C3.5,20.5 -0.06,17 4.89,12L6.31,10.6L9.13,13.43L10.13,12.43L2.35,4.68L3.77,3.26L20.7,20.24Z" />
    </g>
    <g id="mdi-shovel-off" transform="translate(540 108) scale(1.5)" fill="#fff">
      <path d="M15.1,1.81L12.27,4.65C11.5,5.43 11.5,6.69 12.27,7.47L13.68,8.89L13,9.62L14.44,11.06L15.17,10.33L16.56,11.72C17.34,12.5 18.61,12.5 19.39,11.72L22.22,8.88L15.1,1.81M17.93,10.28L13.7,6.06L15.11,4.65L19.34,8.88L17.93,10.28M20.7,20.24L19.29,21.65L11.5,13.88L10.5,14.88L13.33,17.69L12,19.09C7,24 3.5,20.5 3.5,20.5C3.5,20.5 -0.06,17 4.89,12L6.31,10.6L9.13,13.43L10.13,12.43L2.35,4.68L3.77,3.26L20.7,20.24Z" />
    </g>
    <g id="mdi-shower" transform="translate(576 108) scale(1.5)" fill="#555">
      <path d="M21,14V15C21,16.91 19.93,18.57 18.35,19.41L19,22H17L16.5,20C16.33,20 16.17,20 16,20H8C7.83,20 7.67,20 7.5,20L7,22H5L5.65,19.41C4.07,18.57 3,16.91 3,15V14H2V12H20V5A1,1 0 0,0 19,4C18.5,4 18.12,4.34 18,4.79C18.63,5.33 19,6.13 19,7H13A3,3 0 0,1 16,4C16.06,4 16.11,4 16.17,4C16.58,2.84 17.69,2 19,2A3,3 0 0,1 22,5V14H21V14M19,14H5V15A3,3 0 0,0 8,18H16A3,3 0 0,0 19,15V14Z" />
    </g>
    <g id="mdi-shower" transform="translate(612 108) scale(1.5)" fill="#fff">
      <path d="M21,14V15C21,16.91 19.93,18.57 18.35,19.41L19,22H17L16.5,20C16.33,20 16.17,20 16,20H8C7.83,20 7.67,20 7.5,20L7,22H5L5.65,19.41C4.07,18.57 3,16.91 3,15V14H2V12H20V5A1,1 0 0,0 19,4C18.5,4 18.12,4.34 18,4.79C18.63,5.33 19,6.13 19,7H13A3,3 0 0,1 16,4C16.06,4 16.11,4 16.17,4C16.58,2.84 17.69,2 19,2A3,3 0 0,1 22,5V14H21V14M19,14H5V15A3,3 0 0,0 8,18H16A3,3 0 0,0 19,15V14Z" />
    </g>
    <g id="mdi-shower-head" transform="translate(648 108) scale(1.5)" fill="#555">
      <path d="M20,20A1,1 0 0,1 21,21A1,1 0 0,1 20,22A1,1 0 0,1 19,21A1,1 0 0,1 20,20M16,20A1,1 0 0,1 17,21A1,1 0 0,1 16,22A1,1 0 0,1 15,21A1,1 0 0,1 16,20M12,20A1,1 0 0,1 13,21A1,1 0 0,1 12,22A1,1 0 0,1 11,21A1,1 0 0,1 12,20M8,20A1,1 0 0,1 9,21A1,1 0 0,1 8,22A1,1 0 0,1 7,21A1,1 0 0,1 8,20M4,20A1,1 0 0,1 5,21A1,1 0 0,1 4,22A1,1 0 0,1 3,21A1,1 0 0,1 4,20M6,17A1,1 0 0,1 7,18A1,1 0 0,1 6,19H6A1,1 0 0,1 5,18A1,1 0 0,1 6,17H6M10,17A1,1 0 0,1 11,18A1,1 0 0,1 10,19A1,1 0 0,1 9,18A1,1 0 0,1 10,17M14,17A1,1 0 0,1 15,18A1,1 0 0,1 14,19A1,1 0 0,1 13,18A1,1 0 0,1 14,17M18,17A1,1 0 0,1 19,18A1,1 0 0,1 18,19A1,1 0 0,1 17,18A1,1 0 0,1 18,17M8,14A1,1 0 0,1 9,15A1,1 0 0,1 8,16A1,1 0 0,1 7,15A1,1 0 0,1 8,14M12,14A1,1 0 0,1 13,15A1,1 0 0,1 12,16A1,1 0 0,1 11,15A1,1 0 0,1 12,14M16,14A1,1 0 0,1 17,15A1,1 0 0,1 16,16A1,1 0 0,1 15,15A1,1 0 0,1 16,14M19,12H5V10H19V12M17.92,9H6.08C6.5,6.5 8.5,4.5 11,4.08V2H13V4.08C15.5,4.5 17.5,6.5 17.92,9Z" />
    </g>
    <g id="mdi-shower-head" transform="translate(684 108) scale(1.5)" fill="#fff">
      <path d="M20,20A1,1 0 0,1 21,21A1,1 0 0,1 20,22A1,1 0 0,1 19,21A1,1 0 0,1 20,20M16,20A1,1 0 0,1 17,21A1,1 0 0,1 16,22A1,1 0 0,1 15,21A1,1 0 0,1 16,20M12,20A1,1 0 0,1 13,21A1,1 0 0,1 12,22A1,1 0 0,1 11,21A1,1 0 0,1 12,20M8,20A1,1 0 0,1 9,21A1,1 0 0,1 8,22A1,1 0 0,1 7,21A1,1 0 0,1 8,20M4,20A1,1 0 0,1 5,21A1,1 0 0,1 4,22A1,1 0 0,1 3,21A1,1 0 0,1 4,20M6,17A1,1 0 0,1 7,18A1,1 0 0,1 6,19H6A1,1 0 0,1 5,18A1,1 0 0,1 6,17H6M10,17A1,1 0 0,1 11,18A1,1 0 0,1 10,19A1,1 0 0,1 9,18A1,1 0 0,1 10,17M14,17A1,1 0 0,1 15,18A1,1 0 0,1 14,19A1,1 0 0,1 13,18A1,1 0 0,1 14,17M18,17A1,1 0 0,1 19,18A1,1 0 0,1 18,19A1,1 0 0,1 17,18A1,1 0 0,1 18,17M8,14A1,1 0 0,1 9,15A1,1 0 0,1 8,16A1,1 0 0,1 7,15A1,1 0 0,1 8,14M12,14A1,1 0 0,1 13,15A1,1 0 0,1 12,16A1,1 0 0,1 11,15A1,1 0 0,1 12,14M16,14A1,1 0 0,1 17,15A1,1 0 0,1 16,16A1,1 0 0,1 15,15A1,1 0 0,1 16,14M19,12H5V10H19V12M17.92,9H6.08C6.5,6.5 8.5,4.5 11,4.08V2H13V4.08C15.5,4.5 17.5,6.5 17.92,9Z" />
    </g>
    <g id="mdi-shredder" transform="translate(0 144) scale(1.5)" fill="#555">
      <path d="M6,3V7H8V5H16V7H18V3H6M5,8A3,3 0 0,0 2,11V17H5V14H19V17H22V11A3,3 0 0,0 19,8H5M18,10A1,1 0 0,1 19,11A1,1 0 0,1 18,12A1,1 0 0,1 17,11A1,1 0 0,1 18,10M7,16V21H9V16H7M11,16V20H13V16H11M15,16V21H17V16H15Z" />
    </g>
    <g id="mdi-shredder" transform="translate(36 144) scale(1.5)" fill="#fff">
      <path d="M6,3V7H8V5H16V7H18V3H6M5,8A3,3 0 0,0 2,11V17H5V14H19V17H22V11A3,3 0 0,0 19,8H5M18,10A1,1 0 0,1 19,11A1,1 0 0,1 18,12A1,1 0 0,1 17,11A1,1 0 0,1 18,10M7,16V21H9V16H7M11,16V20H13V16H11M15,16V21H17V16H15Z" />
    </g>
    <g id="mdi-shuffle" transform="translate(72 144) scale(1.5)" fill="#555">
      <path d="M14.83,13.41L13.42,14.82L16.55,17.95L14.5,20H20V14.5L17.96,16.54L14.83,13.41M14.5,4L16.54,6.04L4,18.59L5.41,20L17.96,7.46L20,9.5V4M10.59,9.17L5.41,4L4,5.41L9.17,10.58L10.59,9.17Z" />
    </g>
    <g id="mdi-shuffle" transform="translate(108 144) scale(1.5)" fill="#fff">
      <path d="M14.83,13.41L13.42,14.82L16.55,17.95L14.5,20H20V14.5L17.96,16.54L14.83,13.41M14.5,4L16.54,6.04L4,18.59L5.41,20L17.96,7.46L20,9.5V4M10.59,9.17L5.41,4L4,5.41L9.17,10.58L10.59,9.17Z" />
    </g>
    <g id="mdi-shuffle-disabled" transform="translate(144 144) scale(1.5)" fill="#555">
      <path d="M16,4.5V7H5V9H16V11.5L19.5,8M16,12.5V15H5V17H16V19.5L19.5,16" />
    </g>
    <g id="mdi-shuffle-disabled" transform="translate(180 144) scale(1.5)" fill="#fff">
      <path d="M16,4.5V7H5V9H16V11.5L19.5,8M16,12.5V15H5V17H16V19.5L19.5,16" />
    </g>
    <g id="mdi-shuffle-variant" transform="translate(216 144) scale(1.5)" fill="#555">
      <path d="M17,3L22.25,7.5L17,12L22.25,16.5L17,21V18H14.26L11.44,15.18L13.56,13.06L15.5,15H17V12L17,9H15.5L6.5,18H2V15H5.26L14.26,6H17V3M2,6H6.5L9.32,8.82L7.2,10.94L5.26,9H2V6Z" />
    </g>
    <g id="mdi-shuffle-variant" transform="translate(252 144) scale(1.5)" fill="#fff">
      <path d="M17,3L22.25,7.5L17,12L22.25,16.5L17,21V18H14.26L11.44,15.18L13.56,13.06L15.5,15H17V12L17,9H15.5L6.5,18H2V15H5.26L14.26,6H17V3M2,6H6.5L9.32,8.82L7.2,10.94L5.26,9H2V6Z" />
    </g>
    <g id="mdi-shuriken" transform="translate(288 144) scale(1.5)" fill="#555">
      <path d="M14.5 9.5L12 2L9.5 9.5L2 12L9.5 14.5L12 22L14.5 14.5L22 12L14.5 9.5M12 13.7C11.1 13.7 10.3 13 10.3 12C10.3 11.1 11 10.3 12 10.3C12.9 10.3 13.7 11 13.7 12C13.7 12.9 12.9 13.7 12 13.7Z" />
    </g>
    <g id="mdi-shuriken" transform="translate(324 144) scale(1.5)" fill="#fff">
      <path d="M14.5 9.5L12 2L9.5 9.5L2 12L9.5 14.5L12 22L14.5 14.5L22 12L14.5 9.5M12 13.7C11.1 13.7 10.3 13 10.3 12C10.3 11.1 11 10.3 12 10.3C12.9 10.3 13.7 11 13.7 12C13.7 12.9 12.9 13.7 12 13.7Z" />
    </g>
    <g id="mdi-sigma" transform="translate(360 144) scale(1.5)" fill="#555">
      <path d="M18,6H8.83L14.83,12L8.83,18H18V20H6V18L12,12L6,6V4H18V6Z" />
    </g>
    <g id="mdi-sigma" transform="translate(396 144) scale(1.5)" fill="#fff">
      <path d="M18,6H8.83L14.83,12L8.83,18H18V20H6V18L12,12L6,6V4H18V6Z" />
    </g>
    <g id="mdi-sigma-lower" transform="translate(432 144) scale(1.5)" fill="#555">
      <path d="M19,12C19,16.42 15.64,20 11.5,20C7.36,20 4,16.42 4,12C4,7.58 7.36,4 11.5,4H20V6H16.46C18,7.47 19,9.61 19,12M11.5,6C8.46,6 6,8.69 6,12C6,15.31 8.46,18 11.5,18C14.54,18 17,15.31 17,12C17,8.69 14.54,6 11.5,6Z" />
    </g>
    <g id="mdi-sigma-lower" transform="translate(468 144) scale(1.5)" fill="#fff">
      <path d="M19,12C19,16.42 15.64,20 11.5,20C7.36,20 4,16.42 4,12C4,7.58 7.36,4 11.5,4H20V6H16.46C18,7.47 19,9.61 19,12M11.5,6C8.46,6 6,8.69 6,12C6,15.31 8.46,18 11.5,18C14.54,18 17,15.31 17,12C17,8.69 14.54,6 11.5,6Z" />
    </g>
    <g id="mdi-sign-caution" transform="translate(504 144) scale(1.5)" fill="#555">
      <path d="M2,3H22V13H18V21H16V13H8V21H6V13H2V3M18.97,11L20,9.97V7.15L16.15,11H18.97M13.32,11L19.32,5H16.5L10.5,11H13.32M7.66,11L13.66,5H10.83L4.83,11H7.66M5.18,5L4,6.18V9L8,5H5.18Z" />
    </g>
    <g id="mdi-sign-caution" transform="translate(540 144) scale(1.5)" fill="#fff">
      <path d="M2,3H22V13H18V21H16V13H8V21H6V13H2V3M18.97,11L20,9.97V7.15L16.15,11H18.97M13.32,11L19.32,5H16.5L10.5,11H13.32M7.66,11L13.66,5H10.83L4.83,11H7.66M5.18,5L4,6.18V9L8,5H5.18Z" />
    </g>
    <g id="mdi-sign-direction" transform="translate(576 144) scale(1.5)" fill="#555">
      <path d="M11,12H3.5L6,9.5L3.5,7H11V3L12,2L13,3V7H18L20.5,9.5L18,12H13V20A2,2 0 0,1 15,22H9A2,2 0 0,1 11,20V12Z" />
    </g>
    <g id="mdi-sign-direction" transform="translate(612 144) scale(1.5)" fill="#fff">
      <path d="M11,12H3.5L6,9.5L3.5,7H11V3L12,2L13,3V7H18L20.5,9.5L18,12H13V20A2,2 0 0,1 15,22H9A2,2 0 0,1 11,20V12Z" />
    </g>
    <g id="mdi-sign-direction-minus" transform="translate(648 144) scale(1.5)" fill="#555">
      <path d="M20.5 9.5L18 12H13V22H9A2 2 0 0 1 11 20V12H3.5L6 9.5L3.5 7H11V3L12 2L13 3V7H18M23 18H15V20H23Z" />
    </g>
    <g id="mdi-sign-direction-minus" transform="translate(684 144) scale(1.5)" fill="#fff">
      <path d="M20.5 9.5L18 12H13V22H9A2 2 0 0 1 11 20V12H3.5L6 9.5L3.5 7H11V3L12 2L13 3V7H18M23 18H15V20H23Z" />
    </g>
    <g id="mdi-sign-direction-plus" transform="translate(0 180) scale(1.5)" fill="#555">
      <path d="M13 20H13.09A5.5 5.5 0 0 0 13.81 22H9A2 2 0 0 1 11 20V12H3.5L6 9.5L3.5 7H11V3L12 2L13 3V7H18L20.5 9.5L18 12H13M18 15V18H15V20H18V23H20V20H23V18H20V15Z" />
    </g>
    <g id="mdi-sign-direction-plus" transform="translate(36 180) scale(1.5)" fill="#fff">
      <path d="M13 20H13.09A5.5 5.5 0 0 0 13.81 22H9A2 2 0 0 1 11 20V12H3.5L6 9.5L3.5 7H11V3L12 2L13 3V7H18L20.5 9.5L18 12H13M18 15V18H15V20H18V23H20V20H23V18H20V15Z" />
    </g>
    <g id="mdi-sign-direction-remove" transform="translate(72 180) scale(1.5)" fill="#555">
      <path d="M13 20H13.09A5.5 5.5 0 0 0 13.81 22H9A2 2 0 0 1 11 20V12H3.5L6 9.5L3.5 7H11V3L12 2L13 3V7H18L20.5 9.5L18 12H13M21.12 15.46L19 17.59L16.88 15.46L15.46 16.88L17.59 19L15.46 21.12L16.88 22.54L19 20.41L21.12 22.54L22.54 21.12L20.41 19L22.54 16.88Z" />
    </g>
    <g id="mdi-sign-direction-remove" transform="translate(108 180) scale(1.5)" fill="#fff">
      <path d="M13 20H13.09A5.5 5.5 0 0 0 13.81 22H9A2 2 0 0 1 11 20V12H3.5L6 9.5L3.5 7H11V3L12 2L13 3V7H18L20.5 9.5L18 12H13M21.12 15.46L19 17.59L16.88 15.46L15.46 16.88L17.59 19L15.46 21.12L16.88 22.54L19 20.41L21.12 22.54L22.54 21.12L20.41 19L22.54 16.88Z" />
    </g>
    <g id="mdi-sign-real-estate" transform="translate(144 180) scale(1.5)" fill="#555">
      <path d="M18 8H8C6.9 8 6 8.9 6 10V16C6 17.11 6.9 18 8 18H18C19.11 18 20 17.11 20 16V10C20 8.9 19.11 8 18 8M14 16H8V14H14V16M18 12H8V10H18V12M22 6H4V22H2V2H4V4H22V6Z" />
    </g>
    <g id="mdi-sign-real-estate" transform="translate(180 180) scale(1.5)" fill="#fff">
      <path d="M18 8H8C6.9 8 6 8.9 6 10V16C6 17.11 6.9 18 8 18H18C19.11 18 20 17.11 20 16V10C20 8.9 19.11 8 18 8M14 16H8V14H14V16M18 12H8V10H18V12M22 6H4V22H2V2H4V4H22V6Z" />
    </g>
    <g id="mdi-sign-text" transform="translate(216 180) scale(1.5)" fill="#555">
      <path d="M11,3L12,2L13,3V5H20A1,1 0 0,1 21,6V16A1,1 0 0,1 20,17H13V20A2,2 0 0,1 15,22H9A2,2 0 0,1 11,20V17H4A1,1 0 0,1 3,16V6A1,1 0 0,1 4,5H11V3M6,8V10H18V8H6M6,12V14H13V12H6Z" />
    </g>
    <g id="mdi-sign-text" transform="translate(252 180) scale(1.5)" fill="#fff">
      <path d="M11,3L12,2L13,3V5H20A1,1 0 0,1 21,6V16A1,1 0 0,1 20,17H13V20A2,2 0 0,1 15,22H9A2,2 0 0,1 11,20V17H4A1,1 0 0,1 3,16V6A1,1 0 0,1 4,5H11V3M6,8V10H18V8H6M6,12V14H13V12H6Z" />
    </g>
    <g id="mdi-signal" transform="translate(288 180) scale(1.5)" fill="#555">
      <path d="M3,21H6V18H3M8,21H11V14H8M13,21H16V9H13M18,21H21V3H18V21Z" />
    </g>
    <g id="mdi-signal" transform="translate(324 180) scale(1.5)" fill="#fff">
      <path d="M3,21H6V18H3M8,21H11V14H8M13,21H16V9H13M18,21H21V3H18V21Z" />
    </g>
    <g id="mdi-signal-2g" transform="translate(360 180) scale(1.5)" fill="#555">
      <path d="" />
    </g>
    <g id="mdi-signal-2g" transform="translate(396 180) scale(1.5)" fill="#fff">
      <path d="" />
    </g>
    <g id="mdi-signal-3g" transform="translate(432 180) scale(1.5)" fill="#555">
      <path d="" />
    </g>
    <g id="mdi-signal-3g" transform="translate(468 180) scale(1.5)" fill="#fff">
      <path d="" />
    </g>
    <g id="mdi-signal-4g" transform="translate(504 180) scale(1.5)" fill="#555">
      <path d="" />
    </g>
    <g id="mdi-signal-4g" transform="translate(540 180) scale(1.5)" fill="#fff">
      <path d="" />
    </g>
    <g id="mdi-signal-5g" transform="translate(576 180) scale(1.5)" fill="#555">
      <path d="" />
    </g>
    <g id="mdi-signal-5g" transform="translate(612 180) scale(1.5)" fill="#fff">
      <path d="" />
    </g>
    <g id="mdi-signal-cellular-1" transform="translate(648 180) scale(1.5)" fill="#555">
      <path d="M19.5,5.5V18.5H17.5V5.5H19.5M12.5,10.5V18.5H10.5V10.5H12.5M21,4H16V20H21V4M14,9H9V20H14V9M7,14H2V20H7V14Z" />
    </g>
    <g id="mdi-signal-cellular-1" transform="translate(684 180) scale(1.5)" fill="#fff">
      <path d="M19.5,5.5V18.5H17.5V5.5H19.5M12.5,10.5V18.5H10.5V10.5H12.5M21,4H16V20H21V4M14,9H9V20H14V9M7,14H2V20H7V14Z" />
    </g>
    <g id="mdi-signal-cellular-2" transform="translate(0 216) scale(1.5)" fill="#555">
      <path d="M19.5,5.5V18.5H17.5V5.5H19.5M21,4H16V20H21V4M14,9H9V20H14V9M7,14H2V20H7V14Z" />
    </g>
    <g id="mdi-signal-cellular-2" transform="translate(36 216) scale(1.5)" fill="#fff">
      <path d="M19.5,5.5V18.5H17.5V5.5H19.5M21,4H16V20H21V4M14,9H9V20H14V9M7,14H2V20H7V14Z" />
    </g>
    <g id="mdi-signal-cellular-3" transform="translate(72 216) scale(1.5)" fill="#555">
      <path d="M21,4H16V20H21V4M14,9H9V20H14V9M7,14H2V20H7V14Z" />
    </g>
    <g id="mdi-signal-cellular-3" transform="translate(108 216) scale(1.5)" fill="#fff">
      <path d="M21,4H16V20H21V4M14,9H9V20H14V9M7,14H2V20H7V14Z" />
    </g>
    <g id="mdi-signal-cellular-outline" transform="translate(144 216) scale(1.5)" fill="#555">
      <path d="M19.5,5.5V18.5H17.5V5.5H19.5M12.5,10.5V18.5H10.5V10.5H12.5M5.5,15.5V18.5H3.5V15.5H5.5M21,4H16V20H21V4M14,9H9V20H14V9M7,14H2V20H7V14Z" />
    </g>
    <g id="mdi-signal-cellular-outline" transform="translate(180 216) scale(1.5)" fill="#fff">
      <path d="M19.5,5.5V18.5H17.5V5.5H19.5M12.5,10.5V18.5H10.5V10.5H12.5M5.5,15.5V18.5H3.5V15.5H5.5M21,4H16V20H21V4M14,9H9V20H14V9M7,14H2V20H7V14Z" />
    </g>
    <g id="mdi-signal-distance-variant" transform="translate(216 216) scale(1.5)" fill="#555">
      <path d="M4,6V4A12,12 0 0,1 16,16H14A10,10 0 0,0 4,6M4,10V8A8,8 0 0,1 12,16H10A6,6 0 0,0 4,10M4,12A4,4 0 0,1 8,16H4V12M3,18H19V16L22,19L19,22V20H3V18Z" />
    </g>
    <g id="mdi-signal-distance-variant" transform="translate(252 216) scale(1.5)" fill="#fff">
      <path d="M4,6V4A12,12 0 0,1 16,16H14A10,10 0 0,0 4,6M4,10V8A8,8 0 0,1 12,16H10A6,6 0 0,0 4,10M4,12A4,4 0 0,1 8,16H4V12M3,18H19V16L22,19L19,22V20H3V18Z" />
    </g>
    <g id="mdi-signal-hspa" transform="translate(288 216) scale(1.5)" fill="#555">
      <path d="M10.5,10.5H13.5V4.5H16.5V19.5H13.5V13.5H10.5V19.5H7.5V4.5H10.5V10.5Z" />
    </g>
    <g id="mdi-signal-hspa" transform="translate(324 216) scale(1.5)" fill="#fff">
      <path d="M10.5,10.5H13.5V4.5H16.5V19.5H13.5V13.5H10.5V19.5H7.5V4.5H10.5V10.5Z" />
    </g>
    <g id="mdi-signal-hspa-plus" transform="translate(360 216) scale(1.5)" fill="#555">
      <path d="M19,8V11H22V14H19V17H16V14H13V11H16V8H19M5,10.5H8V4.5H11V19.5H8V13.5H5V19.5H2V4.5H5V10.5Z" />
    </g>
    <g id="mdi-signal-hspa-plus" transform="translate(396 216) scale(1.5)" fill="#fff">
      <path d="M19,8V11H22V14H19V17H16V14H13V11H16V8H19M5,10.5H8V4.5H11V19.5H8V13.5H5V19.5H2V4.5H5V10.5Z" />
    </g>
    <g id="mdi-signal-off" transform="translate(432 216) scale(1.5)" fill="#555">
      <path d="M18,3V16.18L21,19.18V3H18M4.28,5L3,6.27L10.73,14H8V21H11V14.27L13,16.27V21H16V19.27L19.73,23L21,21.72L4.28,5M13,9V11.18L16,14.18V9H13M3,18V21H6V18H3Z" />
    </g>
    <g id="mdi-signal-off" transform="translate(468 216) scale(1.5)" fill="#fff">
      <path d="M18,3V16.18L21,19.18V3H18M4.28,5L3,6.27L10.73,14H8V21H11V14.27L13,16.27V21H16V19.27L19.73,23L21,21.72L4.28,5M13,9V11.18L16,14.18V9H13M3,18V21H6V18H3Z" />
    </g>
    <g id="mdi-signal-variant" transform="translate(504 216) scale(1.5)" fill="#555">
      <path d="M4,6V4H4.1C12.9,4 20,11.1 20,19.9V20H18V19.9C18,12.2 11.8,6 4,6M4,10V8A12,12 0 0,1 16,20H14A10,10 0 0,0 4,10M4,14V12A8,8 0 0,1 12,20H10A6,6 0 0,0 4,14M4,16A4,4 0 0,1 8,20H4V16Z" />
    </g>
    <g id="mdi-signal-variant" transform="translate(540 216) scale(1.5)" fill="#fff">
      <path d="M4,6V4H4.1C12.9,4 20,11.1 20,19.9V20H18V19.9C18,12.2 11.8,6 4,6M4,10V8A12,12 0 0,1 16,20H14A10,10 0 0,0 4,10M4,14V12A8,8 0 0,1 12,20H10A6,6 0 0,0 4,14M4,16A4,4 0 0,1 8,20H4V16Z" />
    </g>
    <g id="mdi-signature" transform="translate(576 216) scale(1.5)" fill="#555">
      <path d="M22,22H2V20H22V22M2.26,16.83L5.09,14L2.26,11.17L3.67,9.76L6.5,12.59L9.33,9.76L10.74,11.17L7.91,14L10.74,16.83L9.33,18.24L6.5,15.41L3.67,18.24L2.26,16.83Z" />
    </g>
    <g id="mdi-signature" transform="translate(612 216) scale(1.5)" fill="#fff">
      <path d="M22,22H2V20H22V22M2.26,16.83L5.09,14L2.26,11.17L3.67,9.76L6.5,12.59L9.33,9.76L10.74,11.17L7.91,14L10.74,16.83L9.33,18.24L6.5,15.41L3.67,18.24L2.26,16.83Z" />
    </g>
    <g id="mdi-signature-freehand" transform="translate(648 216) scale(1.5)" fill="#555">
      <path d="M22,22H2V20H22V22M6.2,17.3L5.5,18L4.1,16.6L2.7,18L2,17.3L3.4,15.9L2,14.5L2.7,13.8L4.1,15.2L5.5,13.8L6.2,14.5L4.8,15.9L6.2,17.3M16.22,14.43C16.22,13.85 15.5,13.2 14.06,12.46C12.23,11.54 11,10.79 10.36,10.24C9.71,9.68 9.39,9.06 9.39,8.37C9.39,6.59 10.3,5.12 12.12,3.95C13.94,2.78 15.43,2.19 16.57,2.19C17.31,2.19 17.85,2.32 18.18,2.58C18.5,2.83 18.68,3.27 18.68,3.9C18.68,4.18 18.56,4.42 18.31,4.63C18.07,4.83 17.87,4.93 17.74,4.93C17.63,4.93 17.43,4.83 17.13,4.64L16.55,4.38C16.08,4.38 15.14,4.71 13.71,5.38C12.29,6.04 11.58,6.79 11.58,7.63C11.58,8.14 11.82,8.6 12.32,9C12.82,9.42 13.71,9.93 15,10.53C16.03,11 16.86,11.5 17.5,12.07C18.1,12.61 18.41,13.25 18.41,14C18.41,15.34 17.47,16.41 15.58,17.17C13.7,17.94 11.9,18.32 10.19,18.32C8.75,18.32 8,17.83 8,16.86C8,16.5 8.19,16.27 8.5,16.11C8.83,15.95 9.16,15.87 9.5,15.87L10.25,16L10.97,16.13C11.95,16.13 13,15.97 14.13,15.64C15.26,15.32 15.96,14.91 16.22,14.43Z" />
    </g>
    <g id="mdi-signature-freehand" transform="translate(684 216) scale(1.5)" fill="#fff">
      <path d="M22,22H2V20H22V22M6.2,17.3L5.5,18L4.1,16.6L2.7,18L2,17.3L3.4,15.9L2,14.5L2.7,13.8L4.1,15.2L5.5,13.8L6.2,14.5L4.8,15.9L6.2,17.3M16.22,14.43C16.22,13.85 15.5,13.2 14.06,12.46C12.23,11.54 11,10.79 10.36,10.24C9.71,9.68 9.39,9.06 9.39,8.37C9.39,6.59 10.3,5.12 12.12,3.95C13.94,2.78 15.43,2.19 16.57,2.19C17.31,2.19 17.85,2.32 18.18,2.58C18.5,2.83 18.68,3.27 18.68,3.9C18.68,4.18 18.56,4.42 18.31,4.63C18.07,4.83 17.87,4.93 17.74,4.93C17.63,4.93 17.43,4.83 17.13,4.64L16.55,4.38C16.08,4.38 15.14,4.71 13.71,5.38C12.29,6.04 11.58,6.79 11.58,7.63C11.58,8.14 11.82,8.6 12.32,9C12.82,9.42 13.71,9.93 15,10.53C16.03,11 16.86,11.5 17.5,12.07C18.1,12.61 18.41,13.25 18.41,14C18.41,15.34 17.47,16.41 15.58,17.17C13.7,17.94 11.9,18.32 10.19,18.32C8.75,18.32 8,17.83 8,16.86C8,16.5 8.19,16.27 8.5,16.11C8.83,15.95 9.16,15.87 9.5,15.87L10.25,16L10.97,16.13C11.95,16.13 13,15.97 14.13,15.64C15.26,15.32 15.96,14.91 16.22,14.43Z" />
    </g>
    <g id="mdi-signature-image" transform="translate(0 252) scale(1.5)" fill="#555">
      <path d="M22,22H2V20H22V22M6.2,17.3L4.8,15.9L6.2,14.5L5.5,13.8L4.1,15.2L2.7,13.8L2,14.5L3.4,15.9L2,17.3L2.7,18L4.1,16.6L5.5,18L6.2,17.3M20,5H10A2,2 0 0,0 8,7V16A2,2 0 0,0 10,18H20A2,2 0 0,0 22,16V7A2,2 0 0,0 20,5M10,16L12.6,12.7L14.4,14.9L16.8,11.6L20,16H10Z" />
    </g>
    <g id="mdi-signature-image" transform="translate(36 252) scale(1.5)" fill="#fff">
      <path d="M22,22H2V20H22V22M6.2,17.3L4.8,15.9L6.2,14.5L5.5,13.8L4.1,15.2L2.7,13.8L2,14.5L3.4,15.9L2,17.3L2.7,18L4.1,16.6L5.5,18L6.2,17.3M20,5H10A2,2 0 0,0 8,7V16A2,2 0 0,0 10,18H20A2,2 0 0,0 22,16V7A2,2 0 0,0 20,5M10,16L12.6,12.7L14.4,14.9L16.8,11.6L20,16H10Z" />
    </g>
    <g id="mdi-signature-text" transform="translate(72 252) scale(1.5)" fill="#555">
      <path d="M22,22H2V20H22V22M6.2,17.3L4.8,15.9L6.2,14.5L5.5,13.8L4.1,15.2L2.7,13.8L2,14.5L3.4,15.9L2,17.3L2.7,18L4.1,16.6L5.5,18L6.2,17.3M20.5,3L21.7,7.4L20.7,7.7C20.2,6.8 19.8,6 19.3,5.5C18.7,5 18.1,5 17.5,5H15V15.5C15,16 15,16.5 15.3,16.7C15.6,16.9 16.3,16.9 17,16.9V17.9H11V16.9C11.7,16.9 12.3,16.9 12.7,16.7C13,16.5 13,16 13,15.5V5H10.5C9.9,5 9.3,5 8.7,5.4C8.2,5.8 7.7,6.7 7.3,7.6L6.3,7.3L7.5,3H20.5Z" />
    </g>
    <g id="mdi-signature-text" transform="translate(108 252) scale(1.5)" fill="#fff">
      <path d="M22,22H2V20H22V22M6.2,17.3L4.8,15.9L6.2,14.5L5.5,13.8L4.1,15.2L2.7,13.8L2,14.5L3.4,15.9L2,17.3L2.7,18L4.1,16.6L5.5,18L6.2,17.3M20.5,3L21.7,7.4L20.7,7.7C20.2,6.8 19.8,6 19.3,5.5C18.7,5 18.1,5 17.5,5H15V15.5C15,16 15,16.5 15.3,16.7C15.6,16.9 16.3,16.9 17,16.9V17.9H11V16.9C11.7,16.9 12.3,16.9 12.7,16.7C13,16.5 13,16 13,15.5V5H10.5C9.9,5 9.3,5 8.7,5.4C8.2,5.8 7.7,6.7 7.3,7.6L6.3,7.3L7.5,3H20.5Z" />
    </g>
    <g id="mdi-silo" transform="translate(144 252) scale(1.5)" fill="#555">
      <path d="M8.5,2C11.85,2 14.6,4.53 14.96,7.78L22,12V14L20,12.8V22H18V11.6L15,9.8V22H13V9H4V22H2V8.5A6.5,6.5 0 0,1 8.5,2M8.5,4C6.54,4 4.87,5.25 4.26,7H12.74C12.13,5.25 10.46,4 8.5,4M6,11H11V13H6V11M6,15H11V17H6V15M6,19H11V21H6V19Z" />
    </g>
    <g id="mdi-silo" transform="translate(180 252) scale(1.5)" fill="#fff">
      <path d="M8.5,2C11.85,2 14.6,4.53 14.96,7.78L22,12V14L20,12.8V22H18V11.6L15,9.8V22H13V9H4V22H2V8.5A6.5,6.5 0 0,1 8.5,2M8.5,4C6.54,4 4.87,5.25 4.26,7H12.74C12.13,5.25 10.46,4 8.5,4M6,11H11V13H6V11M6,15H11V17H6V15M6,19H11V21H6V19Z" />
    </g>
    <g id="mdi-silverware" transform="translate(216 252) scale(1.5)" fill="#555">
      <path d="M8.1,13.34L3.91,9.16C2.35,7.59 2.35,5.06 3.91,3.5L10.93,10.5L8.1,13.34M14.88,11.53L13.41,13L20.29,19.88L18.88,21.29L12,14.41L5.12,21.29L3.71,19.88L13.47,10.12C12.76,8.59 13.26,6.44 14.85,4.85C16.76,2.93 19.5,2.57 20.96,4.03C22.43,5.5 22.07,8.24 20.15,10.15C18.56,11.74 16.41,12.24 14.88,11.53Z" />
    </g>
    <g id="mdi-silverware" transform="translate(252 252) scale(1.5)" fill="#fff">
      <path d="M8.1,13.34L3.91,9.16C2.35,7.59 2.35,5.06 3.91,3.5L10.93,10.5L8.1,13.34M14.88,11.53L13.41,13L20.29,19.88L18.88,21.29L12,14.41L5.12,21.29L3.71,19.88L13.47,10.12C12.76,8.59 13.26,6.44 14.85,4.85C16.76,2.93 19.5,2.57 20.96,4.03C22.43,5.5 22.07,8.24 20.15,10.15C18.56,11.74 16.41,12.24 14.88,11.53Z" />
    </g>
    <g id="mdi-silverware-clean" transform="translate(288 252) scale(1.5)" fill="#555">
      <path d="M15 0L14.38 1.37L13 2L14.38 2.63L15 4L15.63 2.63L17 2L15.63 1.37L15 0M10.5 2L9.41 4.41L7 5.5L9.41 6.59L10.5 9L11.6 6.59L14 5.5L11.6 4.41L10.5 2M18.89 5.14C17.56 5.06 16.04 5.65 14.84 6.84C13.25 8.43 12.75 10.58 13.46 12.11L3.7 21.87L5.11 23.28L12 16.41L18.88 23.29L20.29 21.88L13.41 15L14.88 13.53C16.41 14.24 18.56 13.74 20.15 12.15C22.06 10.24 22.43 7.5 20.96 6.03C20.41 5.5 19.68 5.19 18.89 5.14M3.91 5.5C2.35 7.06 2.35 9.59 3.91 11.16L8.1 15.34L10.93 12.5L3.91 5.5Z" />
    </g>
    <g id="mdi-silverware-clean" transform="translate(324 252) scale(1.5)" fill="#fff">
      <path d="M15 0L14.38 1.37L13 2L14.38 2.63L15 4L15.63 2.63L17 2L15.63 1.37L15 0M10.5 2L9.41 4.41L7 5.5L9.41 6.59L10.5 9L11.6 6.59L14 5.5L11.6 4.41L10.5 2M18.89 5.14C17.56 5.06 16.04 5.65 14.84 6.84C13.25 8.43 12.75 10.58 13.46 12.11L3.7 21.87L5.11 23.28L12 16.41L18.88 23.29L20.29 21.88L13.41 15L14.88 13.53C16.41 14.24 18.56 13.74 20.15 12.15C22.06 10.24 22.43 7.5 20.96 6.03C20.41 5.5 19.68 5.19 18.89 5.14M3.91 5.5C2.35 7.06 2.35 9.59 3.91 11.16L8.1 15.34L10.93 12.5L3.91 5.5Z" />
    </g>
    <g id="mdi-silverware-fork" transform="translate(360 252) scale(1.5)" fill="#555">
      <path d="M5.12,21.29L3.71,19.88L13.36,10.22L13.16,10C12.38,9.23 12.38,7.97 13.16,7.19L17.5,2.82L18.43,3.74L15.19,7L16.15,7.94L19.39,4.69L20.31,5.61L17.06,8.85L18,9.81L21.26,6.56L22.18,7.5L17.81,11.84C17.03,12.62 15.77,12.62 15,11.84L14.78,11.64L5.12,21.29Z" />
    </g>
    <g id="mdi-silverware-fork" transform="translate(396 252) scale(1.5)" fill="#fff">
      <path d="M5.12,21.29L3.71,19.88L13.36,10.22L13.16,10C12.38,9.23 12.38,7.97 13.16,7.19L17.5,2.82L18.43,3.74L15.19,7L16.15,7.94L19.39,4.69L20.31,5.61L17.06,8.85L18,9.81L21.26,6.56L22.18,7.5L17.81,11.84C17.03,12.62 15.77,12.62 15,11.84L14.78,11.64L5.12,21.29Z" />
    </g>
    <g id="mdi-silverware-fork-knife" transform="translate(432 252) scale(1.5)" fill="#555">
      <path d="M11,9H9V2H7V9H5V2H3V9C3,11.12 4.66,12.84 6.75,12.97V22H9.25V12.97C11.34,12.84 13,11.12 13,9V2H11V9M16,6V14H18.5V22H21V2C18.24,2 16,4.24 16,6Z" />
    </g>
    <g id="mdi-silverware-fork-knife" transform="translate(468 252) scale(1.5)" fill="#fff">
      <path d="M11,9H9V2H7V9H5V2H3V9C3,11.12 4.66,12.84 6.75,12.97V22H9.25V12.97C11.34,12.84 13,11.12 13,9V2H11V9M16,6V14H18.5V22H21V2C18.24,2 16,4.24 16,6Z" />
    </g>
    <g id="mdi-silverware-spoon" transform="translate(504 252) scale(1.5)" fill="#555">
      <path d="M14.88,11.53L5.12,21.29L3.71,19.88L13.47,10.12C12.76,8.59 13.26,6.44 14.85,4.85C16.76,2.93 19.5,2.57 20.96,4.03C22.43,5.5 22.07,8.24 20.15,10.15C18.56,11.74 16.41,12.24 14.88,11.53Z" />
    </g>
    <g id="mdi-silverware-spoon" transform="translate(540 252) scale(1.5)" fill="#fff">
      <path d="M14.88,11.53L5.12,21.29L3.71,19.88L13.47,10.12C12.76,8.59 13.26,6.44 14.85,4.85C16.76,2.93 19.5,2.57 20.96,4.03C22.43,5.5 22.07,8.24 20.15,10.15C18.56,11.74 16.41,12.24 14.88,11.53Z" />
    </g>
    <g id="mdi-silverware-variant" transform="translate(576 252) scale(1.5)" fill="#555">
      <path d="M8.1,13.34L3.91,9.16C2.35,7.59 2.35,5.06 3.91,3.5L10.93,10.5L8.1,13.34M13.41,13L20.29,19.88L18.88,21.29L12,14.41L5.12,21.29L3.71,19.88L13.36,10.22L13.16,10C12.38,9.23 12.38,7.97 13.16,7.19L17.5,2.82L18.43,3.74L15.19,7L16.15,7.94L19.39,4.69L20.31,5.61L17.06,8.85L18,9.81L21.26,6.56L22.18,7.5L17.81,11.84C17.03,12.62 15.77,12.62 15,11.84L14.78,11.64L13.41,13Z" />
    </g>
    <g id="mdi-silverware-variant" transform="translate(612 252) scale(1.5)" fill="#fff">
      <path d="M8.1,13.34L3.91,9.16C2.35,7.59 2.35,5.06 3.91,3.5L10.93,10.5L8.1,13.34M13.41,13L20.29,19.88L18.88,21.29L12,14.41L5.12,21.29L3.71,19.88L13.36,10.22L13.16,10C12.38,9.23 12.38,7.97 13.16,7.19L17.5,2.82L18.43,3.74L15.19,7L16.15,7.94L19.39,4.69L20.31,5.61L17.06,8.85L18,9.81L21.26,6.56L22.18,7.5L17.81,11.84C17.03,12.62 15.77,12.62 15,11.84L14.78,11.64L13.41,13Z" />
    </g>
    <g id="mdi-sim" transform="translate(648 252) scale(1.5)" fill="#555">
      <path d="M20,4A2,2 0 0,0 18,2H10L4,8V20A2,2 0 0,0 6,22H18C19.11,22 20,21.1 20,20V4M9,19H7V17H9V19M17,19H15V17H17V19M9,15H7V11H9V15M13,19H11V15H13V19M13,13H11V11H13V13M17,15H15V11H17V15Z" />
    </g>
    <g id="mdi-sim" transform="translate(684 252) scale(1.5)" fill="#fff">
      <path d="M20,4A2,2 0 0,0 18,2H10L4,8V20A2,2 0 0,0 6,22H18C19.11,22 20,21.1 20,20V4M9,19H7V17H9V19M17,19H15V17H17V19M9,15H7V11H9V15M13,19H11V15H13V19M13,13H11V11H13V13M17,15H15V11H17V15Z" />
    </g>
    <g id="mdi-sim-alert" transform="translate(0 288) scale(1.5)" fill="#555">
      <path d="M13,13H11V8H13M13,17H11V15H13M18,2H10L4,8V20A2,2 0 0,0 6,22H18A2,2 0 0,0 20,20V4A2,2 0 0,0 18,2Z" />
    </g>
    <g id="mdi-sim-alert" transform="translate(36 288) scale(1.5)" fill="#fff">
      <path d="M13,13H11V8H13M13,17H11V15H13M18,2H10L4,8V20A2,2 0 0,0 6,22H18A2,2 0 0,0 20,20V4A2,2 0 0,0 18,2Z" />
    </g>
    <g id="mdi-sim-off" transform="translate(72 288) scale(1.5)" fill="#555">
      <path d="M19,5A2,2 0 0,0 17,3H10L7.66,5.34L19,16.68V5M3.65,3.88L2.38,5.15L5,7.77V19A2,2 0 0,0 7,21H17C17.36,21 17.68,20.9 17.97,20.74L19.85,22.62L21.12,21.35L3.65,3.88Z" />
    </g>
    <g id="mdi-sim-off" transform="translate(108 288) scale(1.5)" fill="#fff">
      <path d="M19,5A2,2 0 0,0 17,3H10L7.66,5.34L19,16.68V5M3.65,3.88L2.38,5.15L5,7.77V19A2,2 0 0,0 7,21H17C17.36,21 17.68,20.9 17.97,20.74L19.85,22.62L21.12,21.35L3.65,3.88Z" />
    </g>
    <g id="mdi-simple-icons" transform="translate(144 288) scale(1.5)" fill="#555">
      <path d="M18.25 17C18.25 17.88 18.07 18.74 17.71 19.53H16.31C17.71 17.15 16.91 14.09 14.53 12.69C13.76 12.24 12.89 12 12 12C9.24 12 7 9.76 7 7C7 4.24 9.24 2 12 2C14.76 2 17 4.24 17 7H15.75C15.75 4.93 14.07 3.25 12 3.25C9.93 3.25 8.25 4.93 8.25 7C8.25 9.07 9.93 10.75 12 10.75C15.45 10.75 18.25 13.56 18.25 17M6.29 19.53C5.93 18.74 5.75 17.87 5.75 17H7C7 17.93 7.25 18.79 7.69 19.53H6.29M18.25 20.75V22H5.75V20.75H9.5V15.75H8.25V14.5H15.75V15.75H14.5V20.75H18.25M13.25 15.75H10.75V20.75H13.25V15.75M14.44 7.07C14.4 8.4 13.33 9.47 12 9.5C10.62 9.46 9.53 8.32 9.57 6.94C9.6 5.61 10.67 4.53 12 4.5C13.38 4.54 14.47 5.68 14.44 7.07M13.25 7C13.25 6.31 12.69 5.75 12 5.75C11.31 5.75 10.75 6.31 10.75 7C10.75 7.69 11.31 8.25 12 8.25C12.69 8.25 13.25 7.69 13.25 7Z" />
    </g>
    <g id="mdi-simple-icons" transform="translate(180 288) scale(1.5)" fill="#fff">
      <path d="M18.25 17C18.25 17.88 18.07 18.74 17.71 19.53H16.31C17.71 17.15 16.91 14.09 14.53 12.69C13.76 12.24 12.89 12 12 12C9.24 12 7 9.76 7 7C7 4.24 9.24 2 12 2C14.76 2 17 4.24 17 7H15.75C15.75 4.93 14.07 3.25 12 3.25C9.93 3.25 8.25 4.93 8.25 7C8.25 9.07 9.93 10.75 12 10.75C15.45 10.75 18.25 13.56 18.25 17M6.29 19.53C5.93 18.74 5.75 17.87 5.75 17H7C7 17.93 7.25 18.79 7.69 19.53H6.29M18.25 20.75V22H5.75V20.75H9.5V15.75H8.25V14.5H15.75V15.75H14.5V20.75H18.25M13.25 15.75H10.75V20.75H13.25V15.75M14.44 7.07C14.4 8.4 13.33 9.47 12 9.5C10.62 9.46 9.53 8.32 9.57 6.94C9.6 5.61 10.67 4.53 12 4.5C13.38 4.54 14.47 5.68 14.44 7.07M13.25 7C13.25 6.31 12.69 5.75 12 5.75C11.31 5.75 10.75 6.31 10.75 7C10.75 7.69 11.31 8.25 12 8.25C12.69 8.25 13.25 7.69 13.25 7Z" />
    </g>
    <g id="mdi-sina-weibo" transform="translate(216 288) scale(1.5)" fill="#555">
      <path d="M9.82,13.87C10.89,13.87 11.77,14.74 11.77,15.82A1.95,1.95 0 0,1 9.82,17.77C8.74,17.77 7.87,16.89 7.87,15.82C7.87,14.74 8.74,13.87 9.82,13.87M14.5,3.34L15.18,3.31C18.94,3.31 22,6.37 22,10.13L21.95,10.95L20.76,10.58L20.78,10.13C20.78,7.04 18.27,4.53 15.18,4.53L14.83,4.54L14.5,3.34M15.32,6.23C17.38,6.3 19.05,8 19.08,10.06L17.84,9.68C17.65,8.56 16.78,7.68 15.67,7.5L15.32,6.23M2,15.41C1.97,14.8 2.07,12.64 4.95,9.97C8.35,6.81 9.82,7.05 9.82,7.05C9.82,7.05 13,6.75 11.06,10.46H11.13C11.6,9.96 12.62,9.21 14.69,9C16.77,8.79 16.77,10.5 16.5,11.7C18.38,12.64 19.56,14.03 19.56,15.58C19.56,18.4 15.63,20.69 10.78,20.69H10.65L10.5,20.69C7,20.69 4,19.42 2.71,17.59C2.25,16.97 2,16.29 2,15.58V15.41M9.82,11.92C6.59,11.92 3.97,13.67 3.97,15.82C3.97,17.97 6.59,19.72 9.82,19.72C13.05,19.72 15.67,17.97 15.67,15.82C15.67,13.67 13.05,11.92 9.82,11.92Z" />
    </g>
    <g id="mdi-sina-weibo" transform="translate(252 288) scale(1.5)" fill="#fff">
      <path d="M9.82,13.87C10.89,13.87 11.77,14.74 11.77,15.82A1.95,1.95 0 0,1 9.82,17.77C8.74,17.77 7.87,16.89 7.87,15.82C7.87,14.74 8.74,13.87 9.82,13.87M14.5,3.34L15.18,3.31C18.94,3.31 22,6.37 22,10.13L21.95,10.95L20.76,10.58L20.78,10.13C20.78,7.04 18.27,4.53 15.18,4.53L14.83,4.54L14.5,3.34M15.32,6.23C17.38,6.3 19.05,8 19.08,10.06L17.84,9.68C17.65,8.56 16.78,7.68 15.67,7.5L15.32,6.23M2,15.41C1.97,14.8 2.07,12.64 4.95,9.97C8.35,6.81 9.82,7.05 9.82,7.05C9.82,7.05 13,6.75 11.06,10.46H11.13C11.6,9.96 12.62,9.21 14.69,9C16.77,8.79 16.77,10.5 16.5,11.7C18.38,12.64 19.56,14.03 19.56,15.58C19.56,18.4 15.63,20.69 10.78,20.69H10.65L10.5,20.69C7,20.69 4,19.42 2.71,17.59C2.25,16.97 2,16.29 2,15.58V15.41M9.82,11.92C6.59,11.92 3.97,13.67 3.97,15.82C3.97,17.97 6.59,19.72 9.82,19.72C13.05,19.72 15.67,17.97 15.67,15.82C15.67,13.67 13.05,11.92 9.82,11.92Z" />
    </g>
    <g id="mdi-sitemap" transform="translate(288 288) scale(1.5)" fill="#555">
      <path d="M9,2V8H11V11H5C3.89,11 3,11.89 3,13V16H1V22H7V16H5V13H11V16H9V22H15V16H13V13H19V16H17V22H23V16H21V13C21,11.89 20.11,11 19,11H13V8H15V2H9Z" />
    </g>
    <g id="mdi-sitemap" transform="translate(324 288) scale(1.5)" fill="#fff">
      <path d="M9,2V8H11V11H5C3.89,11 3,11.89 3,13V16H1V22H7V16H5V13H11V16H9V22H15V16H13V13H19V16H17V22H23V16H21V13C21,11.89 20.11,11 19,11H13V8H15V2H9Z" />
    </g>
    <g id="mdi-size-l" transform="translate(360 288) scale(1.5)" fill="#555">
      <path d="M9 7V17H15V15H11V7H9Z" />
    </g>
    <g id="mdi-size-l" transform="translate(396 288) scale(1.5)" fill="#fff">
      <path d="M9 7V17H15V15H11V7H9Z" />
    </g>
    <g id="mdi-size-m" transform="translate(432 288) scale(1.5)" fill="#555">
      <path d="M9 7C7.9 7 7 7.9 7 9V17H9V9H11V16H13V9H15V17H17V9C17 7.9 16.11 7 15 7H9Z" />
    </g>
    <g id="mdi-size-m" transform="translate(468 288) scale(1.5)" fill="#fff">
      <path d="M9 7C7.9 7 7 7.9 7 9V17H9V9H11V16H13V9H15V17H17V9C17 7.9 16.11 7 15 7H9Z" />
    </g>
    <g id="mdi-size-s" transform="translate(504 288) scale(1.5)" fill="#555">
      <path d="M11 7C9.9 7 9 7.9 9 9V11C9 12.11 9.9 13 11 13H13V15H9V17H13C14.11 17 15 16.11 15 15V13C15 11.9 14.11 11 13 11H11V9H15V7H11Z" />
    </g>
    <g id="mdi-size-s" transform="translate(540 288) scale(1.5)" fill="#fff">
      <path d="M11 7C9.9 7 9 7.9 9 9V11C9 12.11 9.9 13 11 13H13V15H9V17H13C14.11 17 15 16.11 15 15V13C15 11.9 14.11 11 13 11H11V9H15V7H11Z" />
    </g>
    <g id="mdi-size-xl" transform="translate(576 288) scale(1.5)" fill="#555">
      <path d="M6 7H8L9 9.5L10 7H12L10 12L12 17H10L9 14.5L8 17H6L8 12L6 7M13 7H15V15H19V17H13V7Z" />
    </g>
    <g id="mdi-size-xl" transform="translate(612 288) scale(1.5)" fill="#fff">
      <path d="M6 7H8L9 9.5L10 7H12L10 12L12 17H10L9 14.5L8 17H6L8 12L6 7M13 7H15V15H19V17H13V7Z" />
    </g>
    <g id="mdi-size-xs" transform="translate(648 288) scale(1.5)" fill="#555">
      <path d="M6 7H8L9 9.5L10 7H12L10 12L12 17H10L9 14.5L8 17H6L8 12L6 7M15 7H19V9H15V11H17C18.11 11 19 11.9 19 13V15C19 16.11 18.11 17 17 17H13V15H17V13H15C13.9 13 13 12.11 13 11V9C13 7.9 13.9 7 15 7Z" />
    </g>
    <g id="mdi-size-xs" transform="translate(684 288) scale(1.5)" fill="#fff">
      <path d="M6 7H8L9 9.5L10 7H12L10 12L12 17H10L9 14.5L8 17H6L8 12L6 7M15 7H19V9H15V11H17C18.11 11 19 11.9 19 13V15C19 16.11 18.11 17 17 17H13V15H17V13H15C13.9 13 13 12.11 13 11V9C13 7.9 13.9 7 15 7Z" />
    </g>
    <g id="mdi-size-xxl" transform="translate(0 324) scale(1.5)" fill="#555">
      <path d="M9 7H11L12 9.5L13 7H15L13 12L15 17H13L12 14.5L11 17H9L11 12L9 7M16 7H18V15H22V17H16V7M2 7H4L5 9.5L6 7H8L6 12L8 17H6L5 14.5L4 17H2L4 12L2 7Z" />
    </g>
    <g id="mdi-size-xxl" transform="translate(36 324) scale(1.5)" fill="#fff">
      <path d="M9 7H11L12 9.5L13 7H15L13 12L15 17H13L12 14.5L11 17H9L11 12L9 7M16 7H18V15H22V17H16V7M2 7H4L5 9.5L6 7H8L6 12L8 17H6L5 14.5L4 17H2L4 12L2 7Z" />
    </g>
    <g id="mdi-size-xxs" transform="translate(72 324) scale(1.5)" fill="#555">
      <path d="M9 7H11L12 9.5L13 7H15L13 12L15 17H13L12 14.5L11 17H9L11 12L9 7M18 7H22V9H18V11H20C21.11 11 22 11.9 22 13V15C22 16.11 21.11 17 20 17H16V15H20V13H18C16.9 13 16 12.11 16 11V9C16 7.9 16.9 7 18 7M2 7H4L5 9.5L6 7H8L6 12L8 17H6L5 14.5L4 17H2L4 12L2 7Z" />
    </g>
    <g id="mdi-size-xxs" transform="translate(108 324) scale(1.5)" fill="#fff">
      <path d="M9 7H11L12 9.5L13 7H15L13 12L15 17H13L12 14.5L11 17H9L11 12L9 7M18 7H22V9H18V11H20C21.11 11 22 11.9 22 13V15C22 16.11 21.11 17 20 17H16V15H20V13H18C16.9 13 16 12.11 16 11V9C16 7.9 16.9 7 18 7M2 7H4L5 9.5L6 7H8L6 12L8 17H6L5 14.5L4 17H2L4 12L2 7Z" />
    </g>
    <g id="mdi-size-xxxl" transform="translate(144 324) scale(1.5)" fill="#555">
      <path d="M9 7H11L12 9.5L13 7H15L13 12L15 17H13L12 14.5L11 17H9L11 12L9 7M16 7H18V15H22V17H16V7M8 15C8 16.11 7.11 17 6 17H2V15H6V13H4V11H6V9H2V7H6C7.1 7 8 7.89 8 9V10.5C8 11.33 7.33 12 6.5 12C7.33 12 8 12.67 8 13.5V15Z" />
    </g>
    <g id="mdi-size-xxxl" transform="translate(180 324) scale(1.5)" fill="#fff">
      <path d="M9 7H11L12 9.5L13 7H15L13 12L15 17H13L12 14.5L11 17H9L11 12L9 7M16 7H18V15H22V17H16V7M8 15C8 16.11 7.11 17 6 17H2V15H6V13H4V11H6V9H2V7H6C7.1 7 8 7.89 8 9V10.5C8 11.33 7.33 12 6.5 12C7.33 12 8 12.67 8 13.5V15Z" />
    </g>
    <g id="mdi-skate" transform="translate(216 324) scale(1.5)" fill="#555">
      <path d="M21.1,16.5C20.36,16.17 19.5,16.5 19.19,17.26C19.06,17.58 18.8,17.87 18.5,18H3V21H17.97C19.68,21 21.22,20 21.88,18.41C22.2,17.67 21.86,16.81 21.1,16.5M19,15C19,15 19,16 17,16C15,16 4,16 4,16V3H11L11.21,4.5H9.24V6H11.43L11.64,7.5H9.24V9H11.86L12,10H14C14,10 19,10 19,15Z" />
    </g>
    <g id="mdi-skate" transform="translate(252 324) scale(1.5)" fill="#fff">
      <path d="M21.1,16.5C20.36,16.17 19.5,16.5 19.19,17.26C19.06,17.58 18.8,17.87 18.5,18H3V21H17.97C19.68,21 21.22,20 21.88,18.41C22.2,17.67 21.86,16.81 21.1,16.5M19,15C19,15 19,16 17,16C15,16 4,16 4,16V3H11L11.21,4.5H9.24V6H11.43L11.64,7.5H9.24V9H11.86L12,10H14C14,10 19,10 19,15Z" />
    </g>
    <g id="mdi-skew-less" transform="translate(288 324) scale(1.5)" fill="#555">
      <path d="M17.5,11L15.41,20H10.5L12.59,11H17.5M20,9H11L8,22H17L20,9M4,6L8,2V5H16V7H8V10L4,6Z" />
    </g>
    <g id="mdi-skew-less" transform="translate(324 324) scale(1.5)" fill="#fff">
      <path d="M17.5,11L15.41,20H10.5L12.59,11H17.5M20,9H11L8,22H17L20,9M4,6L8,2V5H16V7H8V10L4,6Z" />
    </g>
    <g id="mdi-skew-more" transform="translate(360 324) scale(1.5)" fill="#555">
      <path d="M12.5,11L10.41,20H5.5L7.59,11H12.5M15,9H6L3,22H12L15,9M21,6L17,2V5H9V7H17V10L21,6Z" />
    </g>
    <g id="mdi-skew-more" transform="translate(396 324) scale(1.5)" fill="#fff">
      <path d="M12.5,11L10.41,20H5.5L7.59,11H12.5M15,9H6L3,22H12L15,9M21,6L17,2V5H9V7H17V10L21,6Z" />
    </g>
    <g id="mdi-ski" transform="translate(432 324) scale(1.5)" fill="#555">
      <path d="M15.3 18.3L17 12.9L18.4 13.3L16.7 18.7L15.3 18.3M17.3 5.2C18.2 5.2 19 4.4 19 3.5S18.3 1.8 17.3 1.8C16.4 1.8 15.6 2.6 15.6 3.5S16.4 5.2 17.3 5.2M21.3 19.8C20.7 20.1 20.1 20.4 19.4 20.5C18.7 20.6 18 20.6 17.3 20.4L11 18.5L13.4 11.7L10.9 8.7L13.8 7.1C13.8 7.1 14.9 10 15 10.3S15.3 10.8 15.6 10.9L19.7 12.1L20.2 10.3L19.3 9.9L19.9 7.8L18.5 7.4L18 9.4L16.8 8.9L15.4 5C15 4.2 14 3.8 13.1 4.2L8.5 6.7C7.6 7.2 7.3 8.3 7.8 9.1C7.9 9.3 10.8 12.3 10.8 12.3L9.1 18L2.3 16L2 17.3L16.9 21.7C18.6 22.2 20.4 22 22 21.1L21.3 19.8Z" />
    </g>
    <g id="mdi-ski" transform="translate(468 324) scale(1.5)" fill="#fff">
      <path d="M15.3 18.3L17 12.9L18.4 13.3L16.7 18.7L15.3 18.3M17.3 5.2C18.2 5.2 19 4.4 19 3.5S18.3 1.8 17.3 1.8C16.4 1.8 15.6 2.6 15.6 3.5S16.4 5.2 17.3 5.2M21.3 19.8C20.7 20.1 20.1 20.4 19.4 20.5C18.7 20.6 18 20.6 17.3 20.4L11 18.5L13.4 11.7L10.9 8.7L13.8 7.1C13.8 7.1 14.9 10 15 10.3S15.3 10.8 15.6 10.9L19.7 12.1L20.2 10.3L19.3 9.9L19.9 7.8L18.5 7.4L18 9.4L16.8 8.9L15.4 5C15 4.2 14 3.8 13.1 4.2L8.5 6.7C7.6 7.2 7.3 8.3 7.8 9.1C7.9 9.3 10.8 12.3 10.8 12.3L9.1 18L2.3 16L2 17.3L16.9 21.7C18.6 22.2 20.4 22 22 21.1L21.3 19.8Z" />
    </g>
    <g id="mdi-ski-cross-country" transform="translate(504 324) scale(1.5)" fill="#555">
      <path d="M15 1.2C16 1.2 16.8 2 16.8 3S16 4.8 15 4.8 13.2 4 13.2 3 14 1.2 15 1.2M11 23V21.7H9.3L11.7 14.9L14 18V21.7H13V23H20V21.7H15.8V16.5L13.3 12L14 9.2L15.1 11H20V9.1H16.4L14.4 5.8C14.1 5.3 13.5 5 12.9 5C12.7 5 12.6 5.1 12.4 5.1L7 6.8V12H8.8V8.3L11 7.7L7.4 21.7H4V23" />
    </g>
    <g id="mdi-ski-cross-country" transform="translate(540 324) scale(1.5)" fill="#fff">
      <path d="M15 1.2C16 1.2 16.8 2 16.8 3S16 4.8 15 4.8 13.2 4 13.2 3 14 1.2 15 1.2M11 23V21.7H9.3L11.7 14.9L14 18V21.7H13V23H20V21.7H15.8V16.5L13.3 12L14 9.2L15.1 11H20V9.1H16.4L14.4 5.8C14.1 5.3 13.5 5 12.9 5C12.7 5 12.6 5.1 12.4 5.1L7 6.8V12H8.8V8.3L11 7.7L7.4 21.7H4V23" />
    </g>
    <g id="mdi-ski-water" transform="translate(576 324) scale(1.5)" fill="#555">
      <path d="M4.2 3.5C4.2 2.7 4.9 1.9 5.8 1.9C6.7 1.9 7.4 2.6 7.4 3.5S6.6 5 5.8 5 4.2 4.3 4.2 3.5M22 3.9L21.5 3L13.5 7.1L14 8L22 3.9M20.8 20.3L21.7 21.2C21.1 21.8 20.5 22.2 19.8 22.5S18.3 23 17.5 23H2V21.7H4.7L6.8 18.2L4.5 15L3.7 7.2C3.7 6.3 4.5 5.5 5.4 5.5C5.7 5.5 6 5.6 6.2 5.7L9.7 8.3L12 7.5L12.8 9.1L9.3 10.6C9.2 10.5 7.7 9.4 6.6 8.5L7 12L12.3 16.5L14 21.7H17.5C18.1 21.7 18.7 21.6 19.3 21.3C19.9 21.1 20.4 20.7 20.8 20.3M7 21.7H12L10.4 17.8L8.1 15.9L9.3 18.4L7 21.7Z" />
    </g>
    <g id="mdi-ski-water" transform="translate(612 324) scale(1.5)" fill="#fff">
      <path d="M4.2 3.5C4.2 2.7 4.9 1.9 5.8 1.9C6.7 1.9 7.4 2.6 7.4 3.5S6.6 5 5.8 5 4.2 4.3 4.2 3.5M22 3.9L21.5 3L13.5 7.1L14 8L22 3.9M20.8 20.3L21.7 21.2C21.1 21.8 20.5 22.2 19.8 22.5S18.3 23 17.5 23H2V21.7H4.7L6.8 18.2L4.5 15L3.7 7.2C3.7 6.3 4.5 5.5 5.4 5.5C5.7 5.5 6 5.6 6.2 5.7L9.7 8.3L12 7.5L12.8 9.1L9.3 10.6C9.2 10.5 7.7 9.4 6.6 8.5L7 12L12.3 16.5L14 21.7H17.5C18.1 21.7 18.7 21.6 19.3 21.3C19.9 21.1 20.4 20.7 20.8 20.3M7 21.7H12L10.4 17.8L8.1 15.9L9.3 18.4L7 21.7Z" />
    </g>
    <g id="mdi-skip-backward" transform="translate(648 324) scale(1.5)" fill="#555">
      <path d="M20,5V19L13,12M6,5V19H4V5M13,5V19L6,12" />
    </g>
    <g id="mdi-skip-backward" transform="translate(684 324) scale(1.5)" fill="#fff">
      <path d="M20,5V19L13,12M6,5V19H4V5M13,5V19L6,12" />
    </g>
  </svg>