<?xml version="1.0" encoding="UTF-8"?>
<!DOCTYPE svg PUBLIC "-//W3C//DTD SVG 1.1//EN" "http://www.w3.org/Graphics/SVG/1.1/DTD/svg11.dtd"><svg
  xmlns="http://www.w3.org/2000/svg" xmlns:xlink="http://www.w3.org/1999/xlink" version="1.1"
  width="720" height="900" viewBox="0 0 720 900">
    <g id="mdi-swap-vertical-circle-outline" transform="translate(0 0) scale(1.5)" fill="#555">
      <path d="M12 2C6.5 2 2 6.5 2 12S6.5 22 12 22 22 17.5 22 12 17.5 2 12 2M12 20C7.59 20 4 16.41 4 12S7.59 4 12 4 20 7.59 20 12 16.41 20 12 20M6.5 9L10 5.5L13.5 9H11V13H9V9H6.5M17.5 15L14 18.5L10.5 15H13V11H15V15H17.5Z" />
    </g>
    <g id="mdi-swap-vertical-circle-outline" transform="translate(36 0) scale(1.5)" fill="#fff">
      <path d="M12 2C6.5 2 2 6.5 2 12S6.5 22 12 22 22 17.5 22 12 17.5 2 12 2M12 20C7.59 20 4 16.41 4 12S7.59 4 12 4 20 7.59 20 12 16.41 20 12 20M6.5 9L10 5.5L13.5 9H11V13H9V9H6.5M17.5 15L14 18.5L10.5 15H13V11H15V15H17.5Z" />
    </g>
    <g id="mdi-swap-vertical-variant" transform="translate(72 0) scale(1.5)" fill="#555">
      <path d="M18,4L14,8H17V16A2,2 0 0,1 15,18A2,2 0 0,1 13,16V8A4,4 0 0,0 9,4A4,4 0 0,0 5,8V16H2L6,20L10,16H7V8A2,2 0 0,1 9,6A2,2 0 0,1 11,8V16A4,4 0 0,0 15,20A4,4 0 0,0 19,16V8H22L18,4Z" />
    </g>
    <g id="mdi-swap-vertical-variant" transform="translate(108 0) scale(1.5)" fill="#fff">
      <path d="M18,4L14,8H17V16A2,2 0 0,1 15,18A2,2 0 0,1 13,16V8A4,4 0 0,0 9,4A4,4 0 0,0 5,8V16H2L6,20L10,16H7V8A2,2 0 0,1 9,6A2,2 0 0,1 11,8V16A4,4 0 0,0 15,20A4,4 0 0,0 19,16V8H22L18,4Z" />
    </g>
    <g id="mdi-swim" transform="translate(144 0) scale(1.5)" fill="#555">
      <path d="M2,18C4.22,17 6.44,16 8.67,16C10.89,16 13.11,18 15.33,18C17.56,18 19.78,16 22,16V19C19.78,19 17.56,21 15.33,21C13.11,21 10.89,19 8.67,19C6.44,19 4.22,20 2,21V18M8.67,13C7.89,13 7.12,13.12 6.35,13.32L11.27,9.88L10.23,8.64C10.09,8.47 10,8.24 10,8C10,7.66 10.17,7.35 10.44,7.17L16.16,3.17L17.31,4.8L12.47,8.19L17.7,14.42C16.91,14.75 16.12,15 15.33,15C13.11,15 10.89,13 8.67,13M18,7A2,2 0 0,1 20,9A2,2 0 0,1 18,11A2,2 0 0,1 16,9A2,2 0 0,1 18,7Z" />
    </g>
    <g id="mdi-swim" transform="translate(180 0) scale(1.5)" fill="#fff">
      <path d="M2,18C4.22,17 6.44,16 8.67,16C10.89,16 13.11,18 15.33,18C17.56,18 19.78,16 22,16V19C19.78,19 17.56,21 15.33,21C13.11,21 10.89,19 8.67,19C6.44,19 4.22,20 2,21V18M8.67,13C7.89,13 7.12,13.12 6.35,13.32L11.27,9.88L10.23,8.64C10.09,8.47 10,8.24 10,8C10,7.66 10.17,7.35 10.44,7.17L16.16,3.17L17.31,4.8L12.47,8.19L17.7,14.42C16.91,14.75 16.12,15 15.33,15C13.11,15 10.89,13 8.67,13M18,7A2,2 0 0,1 20,9A2,2 0 0,1 18,11A2,2 0 0,1 16,9A2,2 0 0,1 18,7Z" />
    </g>
    <g id="mdi-switch" transform="translate(216 0) scale(1.5)" fill="#555">
      <path d="M13,18H14A1,1 0 0,1 15,19H22V21H15A1,1 0 0,1 14,22H10A1,1 0 0,1 9,21H2V19H9A1,1 0 0,1 10,18H11V16H8A1,1 0 0,1 7,15V3A1,1 0 0,1 8,2H16A1,1 0 0,1 17,3V15A1,1 0 0,1 16,16H13V18M13,6H14V4H13V6M9,4V6H11V4H9M9,8V10H11V8H9M9,12V14H11V12H9Z" />
    </g>
    <g id="mdi-switch" transform="translate(252 0) scale(1.5)" fill="#fff">
      <path d="M13,18H14A1,1 0 0,1 15,19H22V21H15A1,1 0 0,1 14,22H10A1,1 0 0,1 9,21H2V19H9A1,1 0 0,1 10,18H11V16H8A1,1 0 0,1 7,15V3A1,1 0 0,1 8,2H16A1,1 0 0,1 17,3V15A1,1 0 0,1 16,16H13V18M13,6H14V4H13V6M9,4V6H11V4H9M9,8V10H11V8H9M9,12V14H11V12H9Z" />
    </g>
    <g id="mdi-sword" transform="translate(288 0) scale(1.5)" fill="#555">
      <path d="M6.92,5H5L14,14L15,13.06M19.96,19.12L19.12,19.96C18.73,20.35 18.1,20.35 17.71,19.96L14.59,16.84L11.91,19.5L10.5,18.09L11.92,16.67L3,7.75V3H7.75L16.67,11.92L18.09,10.5L19.5,11.91L16.83,14.58L19.95,17.7C20.35,18.1 20.35,18.73 19.96,19.12Z" />
    </g>
    <g id="mdi-sword" transform="translate(324 0) scale(1.5)" fill="#fff">
      <path d="M6.92,5H5L14,14L15,13.06M19.96,19.12L19.12,19.96C18.73,20.35 18.1,20.35 17.71,19.96L14.59,16.84L11.91,19.5L10.5,18.09L11.92,16.67L3,7.75V3H7.75L16.67,11.92L18.09,10.5L19.5,11.91L16.83,14.58L19.95,17.7C20.35,18.1 20.35,18.73 19.96,19.12Z" />
    </g>
    <g id="mdi-sword-cross" transform="translate(360 0) scale(1.5)" fill="#555">
      <path d="M6.2,2.44L18.1,14.34L20.22,12.22L21.63,13.63L19.16,16.1L22.34,19.28C22.73,19.67 22.73,20.3 22.34,20.69L21.63,21.4C21.24,21.79 20.61,21.79 20.22,21.4L17,18.23L14.56,20.7L13.15,19.29L15.27,17.17L3.37,5.27V2.44H6.2M15.89,10L20.63,5.26V2.44H17.8L13.06,7.18L15.89,10M10.94,15L8.11,12.13L5.9,14.34L3.78,12.22L2.37,13.63L4.84,16.1L1.66,19.29C1.27,19.68 1.27,20.31 1.66,20.7L2.37,21.41C2.76,21.8 3.39,21.8 3.78,21.41L7,18.23L9.44,20.7L10.85,19.29L8.73,17.17L10.94,15Z" />
    </g>
    <g id="mdi-sword-cross" transform="translate(396 0) scale(1.5)" fill="#fff">
      <path d="M6.2,2.44L18.1,14.34L20.22,12.22L21.63,13.63L19.16,16.1L22.34,19.28C22.73,19.67 22.73,20.3 22.34,20.69L21.63,21.4C21.24,21.79 20.61,21.79 20.22,21.4L17,18.23L14.56,20.7L13.15,19.29L15.27,17.17L3.37,5.27V2.44H6.2M15.89,10L20.63,5.26V2.44H17.8L13.06,7.18L15.89,10M10.94,15L8.11,12.13L5.9,14.34L3.78,12.22L2.37,13.63L4.84,16.1L1.66,19.29C1.27,19.68 1.27,20.31 1.66,20.7L2.37,21.41C2.76,21.8 3.39,21.8 3.78,21.41L7,18.23L9.44,20.7L10.85,19.29L8.73,17.17L10.94,15Z" />
    </g>
    <g id="mdi-syllabary-hangul" transform="translate(432 0) scale(1.5)" fill="#555">
      <path d="M8 4V6H4V8H6.39C5.55 8.74 5 9.8 5 11C5 13.2 6.8 15 9 15C11.2 15 13 13.2 13 11C13 9.8 12.45 8.74 11.61 8H14V6H10V4M15 4V16H17V11H20V9H17V4M9 9C10.12 9 11 9.88 11 11C11 12.12 10.12 13 9 13C7.88 13 7 12.12 7 11C7 9.88 7.88 9 9 9M7 16V20H17V18H9V16Z" />
    </g>
    <g id="mdi-syllabary-hangul" transform="translate(468 0) scale(1.5)" fill="#fff">
      <path d="M8 4V6H4V8H6.39C5.55 8.74 5 9.8 5 11C5 13.2 6.8 15 9 15C11.2 15 13 13.2 13 11C13 9.8 12.45 8.74 11.61 8H14V6H10V4M15 4V16H17V11H20V9H17V4M9 9C10.12 9 11 9.88 11 11C11 12.12 10.12 13 9 13C7.88 13 7 12.12 7 11C7 9.88 7.88 9 9 9M7 16V20H17V18H9V16Z" />
    </g>
    <g id="mdi-syllabary-hiragana" transform="translate(504 0) scale(1.5)" fill="#555">
      <path d="M9 4V6H6V8H9V10C6.25 10 4 12.27 4 15.03C4 17.8 6.26 20.06 9.03 20.06C9.89 20.06 10.72 19.77 11.4 19.26C11.63 19.54 11.88 19.82 12.15 20.09L13.56 18.67C13.3 18.42 13.07 18.15 12.86 17.89L13.86 16.89C14.93 15.82 15.78 14.23 16.42 12.59C17.31 13.11 18 13.9 18 15C18 16.32 17.47 17.6 16.54 18.54L17.95 19.95C19.26 18.64 20 16.86 20 15C20 13.04 18.82 11.36 17.15 10.55L17.5 9.29L15.55 8.78L15.21 10.05C15.13 10.05 15.06 10 14.97 10H11V8H16V6H11V4M11 12H14.5C13.94 13.37 13.19 14.72 12.44 15.47L11.79 16.13C11.25 14.93 11 13.59 11 12M9 12C9 14.07 9.41 15.94 10.3 17.59C9.94 17.89 9.5 18.06 9.03 18.06C7.33 18.06 6 16.73 6 15.03C6 13.34 7.32 12 9 12Z" />
    </g>
    <g id="mdi-syllabary-hiragana" transform="translate(540 0) scale(1.5)" fill="#fff">
      <path d="M9 4V6H6V8H9V10C6.25 10 4 12.27 4 15.03C4 17.8 6.26 20.06 9.03 20.06C9.89 20.06 10.72 19.77 11.4 19.26C11.63 19.54 11.88 19.82 12.15 20.09L13.56 18.67C13.3 18.42 13.07 18.15 12.86 17.89L13.86 16.89C14.93 15.82 15.78 14.23 16.42 12.59C17.31 13.11 18 13.9 18 15C18 16.32 17.47 17.6 16.54 18.54L17.95 19.95C19.26 18.64 20 16.86 20 15C20 13.04 18.82 11.36 17.15 10.55L17.5 9.29L15.55 8.78L15.21 10.05C15.13 10.05 15.06 10 14.97 10H11V8H16V6H11V4M11 12H14.5C13.94 13.37 13.19 14.72 12.44 15.47L11.79 16.13C11.25 14.93 11 13.59 11 12M9 12C9 14.07 9.41 15.94 10.3 17.59C9.94 17.89 9.5 18.06 9.03 18.06C7.33 18.06 6 16.73 6 15.03C6 13.34 7.32 12 9 12Z" />
    </g>
    <g id="mdi-syllabary-katakana" transform="translate(576 0) scale(1.5)" fill="#555">
      <path d="M4 4V6H18V6.09L14.29 9.79L15.71 11.21L20 6.91V4M11 9V13C11 15.78 10.25 16.89 8.36 18.46L9.64 20C11.75 18.24 13 16.22 13 13V9Z" />
    </g>
    <g id="mdi-syllabary-katakana" transform="translate(612 0) scale(1.5)" fill="#fff">
      <path d="M4 4V6H18V6.09L14.29 9.79L15.71 11.21L20 6.91V4M11 9V13C11 15.78 10.25 16.89 8.36 18.46L9.64 20C11.75 18.24 13 16.22 13 13V9Z" />
    </g>
    <g id="mdi-syllabary-katakana-halfwidth" transform="translate(648 0) scale(1.5)" fill="#555">
      <path d="M8 4V6H14L13 10.81L15 11.2L16 6.1V4M10 9V12C10 14.86 9.34 17.29 8.08 18.61L9.5 20C11.35 18.08 12 15.15 12 12V9Z" />
    </g>
    <g id="mdi-syllabary-katakana-halfwidth" transform="translate(684 0) scale(1.5)" fill="#fff">
      <path d="M8 4V6H14L13 10.81L15 11.2L16 6.1V4M10 9V12C10 14.86 9.34 17.29 8.08 18.61L9.5 20C11.35 18.08 12 15.15 12 12V9Z" />
    </g>
    <g id="mdi-symbol" transform="translate(0 36) scale(1.5)" fill="#555">
      <path d="M2 7V14H4V7H2M6 7V9H10V11H8V14H10V13C11.11 13 12 12.11 12 11V9C12 7.89 11.11 7 10 7H6M15.8 7L15.6 9H14V11H15.4L15.2 13H14V15H15L14.8 17H16.8L17 15H18.4L18.2 17H20.2L20.4 15H22V13H20.6L20.8 11H22V9H21L21.2 7H19.2L19 9H17.6L17.8 7H15.8M17.4 11H18.8L18.6 13H17.2L17.4 11M2 15V17H4V15H2M8 15V17H10V15H8Z" />
    </g>
    <g id="mdi-symbol" transform="translate(36 36) scale(1.5)" fill="#fff">
      <path d="M2 7V14H4V7H2M6 7V9H10V11H8V14H10V13C11.11 13 12 12.11 12 11V9C12 7.89 11.11 7 10 7H6M15.8 7L15.6 9H14V11H15.4L15.2 13H14V15H15L14.8 17H16.8L17 15H18.4L18.2 17H20.2L20.4 15H22V13H20.6L20.8 11H22V9H21L21.2 7H19.2L19 9H17.6L17.8 7H15.8M17.4 11H18.8L18.6 13H17.2L17.4 11M2 15V17H4V15H2M8 15V17H10V15H8Z" />
    </g>
    <g id="mdi-symfony" transform="translate(72 36) scale(1.5)" fill="#555">
      <path d="M12,2A10,10 0 0,0 2,12A10,10 0 0,0 12,22A10,10 0 0,0 22,12A10,10 0 0,0 12,2M16.37,5.7V5.7C17.39,5.67 18.15,6.13 18.21,6.84C18.22,7.15 18.04,7.75 17.42,7.77C16.95,7.79 16.63,7.5 16.62,7.09C16.61,6.93 16.88,6.42 16.88,6.33C16.87,6.06 16.47,6.05 16.36,6.06C14.86,6.11 14.46,8.13 14.14,9.78L14,10.65C14.84,10.78 15.46,10.62 15.8,10.4C16.28,10.09 15.66,9.77 15.74,9.41C15.82,9.04 16.15,8.87 16.41,8.86C16.78,8.85 17.04,9.23 17.03,9.62C17,10.26 16.17,11.14 14.5,11.1C14.28,11.1 14.09,11.08 13.91,11.06C13.3,14.16 12.92,16 11.56,17.58C10.39,18.97 9.2,19.18 8.67,19.2C7.67,19.24 7,18.71 7,18C6.97,17.32 7.57,16.94 7.97,16.93C8.5,16.91 8.87,17.3 8.88,17.74C8.9,18.11 8.7,18.23 8.57,18.3C8.5,18.37 8.35,18.45 8.36,18.6C8.36,18.67 8.43,18.82 8.65,18.81C9.07,18.8 9.34,18.59 9.54,18.45C10.5,17.65 10.88,16.24 11.37,13.68C11.63,12.23 11.82,11.3 12.1,10.38C11.42,9.87 11,9.23 10.09,9C9.46,8.81 9.08,8.96 8.81,9.3C8.5,9.71 8.6,10.23 8.9,10.54C10.05,11.82 10.39,12.38 10.26,13.14C10.06,14.35 8.62,15.27 6.92,14.75C5.47,14.3 5.2,13.28 5.37,12.71C5.53,12.22 5.92,12.12 6.31,12.24C6.73,12.37 6.89,12.87 6.77,13.26C6.75,13.3 6.55,13.67 6.5,13.79C6.41,14.1 6.83,14.31 7.12,14.4C7.77,14.6 8.4,14.26 8.55,13.73C8.7,13.25 8.4,12.91 8.27,12.78C7.38,11.8 6.76,10.93 7.06,9.95C7.18,9.58 7.42,9.18 7.78,8.91C8.53,8.36 9.35,8.26 10.12,8.5C11.13,8.77 11.61,9.44 12.24,9.95C12.59,8.93 13.08,7.92 13.81,7.07C14.47,6.3 15.35,5.74 16.37,5.7Z" />
    </g>
    <g id="mdi-symfony" transform="translate(108 36) scale(1.5)" fill="#fff">
      <path d="M12,2A10,10 0 0,0 2,12A10,10 0 0,0 12,22A10,10 0 0,0 22,12A10,10 0 0,0 12,2M16.37,5.7V5.7C17.39,5.67 18.15,6.13 18.21,6.84C18.22,7.15 18.04,7.75 17.42,7.77C16.95,7.79 16.63,7.5 16.62,7.09C16.61,6.93 16.88,6.42 16.88,6.33C16.87,6.06 16.47,6.05 16.36,6.06C14.86,6.11 14.46,8.13 14.14,9.78L14,10.65C14.84,10.78 15.46,10.62 15.8,10.4C16.28,10.09 15.66,9.77 15.74,9.41C15.82,9.04 16.15,8.87 16.41,8.86C16.78,8.85 17.04,9.23 17.03,9.62C17,10.26 16.17,11.14 14.5,11.1C14.28,11.1 14.09,11.08 13.91,11.06C13.3,14.16 12.92,16 11.56,17.58C10.39,18.97 9.2,19.18 8.67,19.2C7.67,19.24 7,18.71 7,18C6.97,17.32 7.57,16.94 7.97,16.93C8.5,16.91 8.87,17.3 8.88,17.74C8.9,18.11 8.7,18.23 8.57,18.3C8.5,18.37 8.35,18.45 8.36,18.6C8.36,18.67 8.43,18.82 8.65,18.81C9.07,18.8 9.34,18.59 9.54,18.45C10.5,17.65 10.88,16.24 11.37,13.68C11.63,12.23 11.82,11.3 12.1,10.38C11.42,9.87 11,9.23 10.09,9C9.46,8.81 9.08,8.96 8.81,9.3C8.5,9.71 8.6,10.23 8.9,10.54C10.05,11.82 10.39,12.38 10.26,13.14C10.06,14.35 8.62,15.27 6.92,14.75C5.47,14.3 5.2,13.28 5.37,12.71C5.53,12.22 5.92,12.12 6.31,12.24C6.73,12.37 6.89,12.87 6.77,13.26C6.75,13.3 6.55,13.67 6.5,13.79C6.41,14.1 6.83,14.31 7.12,14.4C7.77,14.6 8.4,14.26 8.55,13.73C8.7,13.25 8.4,12.91 8.27,12.78C7.38,11.8 6.76,10.93 7.06,9.95C7.18,9.58 7.42,9.18 7.78,8.91C8.53,8.36 9.35,8.26 10.12,8.5C11.13,8.77 11.61,9.44 12.24,9.95C12.59,8.93 13.08,7.92 13.81,7.07C14.47,6.3 15.35,5.74 16.37,5.7Z" />
    </g>
    <g id="mdi-sync" transform="translate(144 36) scale(1.5)" fill="#555">
      <path d="M12,18A6,6 0 0,1 6,12C6,11 6.25,10.03 6.7,9.2L5.24,7.74C4.46,8.97 4,10.43 4,12A8,8 0 0,0 12,20V23L16,19L12,15M12,4V1L8,5L12,9V6A6,6 0 0,1 18,12C18,13 17.75,13.97 17.3,14.8L18.76,16.26C19.54,15.03 20,13.57 20,12A8,8 0 0,0 12,4Z" />
    </g>
    <g id="mdi-sync" transform="translate(180 36) scale(1.5)" fill="#fff">
      <path d="M12,18A6,6 0 0,1 6,12C6,11 6.25,10.03 6.7,9.2L5.24,7.74C4.46,8.97 4,10.43 4,12A8,8 0 0,0 12,20V23L16,19L12,15M12,4V1L8,5L12,9V6A6,6 0 0,1 18,12C18,13 17.75,13.97 17.3,14.8L18.76,16.26C19.54,15.03 20,13.57 20,12A8,8 0 0,0 12,4Z" />
    </g>
    <g id="mdi-sync-alert" transform="translate(216 36) scale(1.5)" fill="#555">
      <path d="M11,13H13V7H11M21,4H15V10L17.24,7.76C18.32,8.85 19,10.34 19,12C19,14.61 17.33,16.83 15,17.65V19.74C18.45,18.85 21,15.73 21,12C21,9.79 20.09,7.8 18.64,6.36M11,17H13V15H11M3,12C3,14.21 3.91,16.2 5.36,17.64L3,20H9V14L6.76,16.24C5.68,15.15 5,13.66 5,12C5,9.39 6.67,7.17 9,6.35V4.26C5.55,5.15 3,8.27 3,12Z" />
    </g>
    <g id="mdi-sync-alert" transform="translate(252 36) scale(1.5)" fill="#fff">
      <path d="M11,13H13V7H11M21,4H15V10L17.24,7.76C18.32,8.85 19,10.34 19,12C19,14.61 17.33,16.83 15,17.65V19.74C18.45,18.85 21,15.73 21,12C21,9.79 20.09,7.8 18.64,6.36M11,17H13V15H11M3,12C3,14.21 3.91,16.2 5.36,17.64L3,20H9V14L6.76,16.24C5.68,15.15 5,13.66 5,12C5,9.39 6.67,7.17 9,6.35V4.26C5.55,5.15 3,8.27 3,12Z" />
    </g>
    <g id="mdi-sync-circle" transform="translate(288 36) scale(1.5)" fill="#555">
      <path d="M2 12A10 10 0 1 0 12 2A10 10 0 0 0 2 12M15.6 13.72A4 4 0 0 0 16 12A4 4 0 0 0 12 8V10L8.88 7L12 4V6A6 6 0 0 1 18 12A5.9 5.9 0 0 1 17.07 15.19M6 12A5.9 5.9 0 0 1 6.93 8.81L8.4 10.28A4 4 0 0 0 8 12A4 4 0 0 0 12 16V14L15 17L12 20V18A6 6 0 0 1 6 12Z" />
    </g>
    <g id="mdi-sync-circle" transform="translate(324 36) scale(1.5)" fill="#fff">
      <path d="M2 12A10 10 0 1 0 12 2A10 10 0 0 0 2 12M15.6 13.72A4 4 0 0 0 16 12A4 4 0 0 0 12 8V10L8.88 7L12 4V6A6 6 0 0 1 18 12A5.9 5.9 0 0 1 17.07 15.19M6 12A5.9 5.9 0 0 1 6.93 8.81L8.4 10.28A4 4 0 0 0 8 12A4 4 0 0 0 12 16V14L15 17L12 20V18A6 6 0 0 1 6 12Z" />
    </g>
    <g id="mdi-sync-off" transform="translate(360 36) scale(1.5)" fill="#555">
      <path d="M20,4H14V10L16.24,7.76C17.32,8.85 18,10.34 18,12C18,13 17.75,13.94 17.32,14.77L18.78,16.23C19.55,15 20,13.56 20,12C20,9.79 19.09,7.8 17.64,6.36L20,4M2.86,5.41L5.22,7.77C4.45,9 4,10.44 4,12C4,14.21 4.91,16.2 6.36,17.64L4,20H10V14L7.76,16.24C6.68,15.15 6,13.66 6,12C6,11 6.25,10.06 6.68,9.23L14.76,17.31C14.5,17.44 14.26,17.56 14,17.65V19.74C14.79,19.53 15.54,19.2 16.22,18.78L18.58,21.14L19.85,19.87L4.14,4.14L2.86,5.41M10,6.35V4.26C9.2,4.47 8.45,4.8 7.77,5.22L9.23,6.68C9.5,6.56 9.73,6.44 10,6.35Z" />
    </g>
    <g id="mdi-sync-off" transform="translate(396 36) scale(1.5)" fill="#fff">
      <path d="M20,4H14V10L16.24,7.76C17.32,8.85 18,10.34 18,12C18,13 17.75,13.94 17.32,14.77L18.78,16.23C19.55,15 20,13.56 20,12C20,9.79 19.09,7.8 17.64,6.36L20,4M2.86,5.41L5.22,7.77C4.45,9 4,10.44 4,12C4,14.21 4.91,16.2 6.36,17.64L4,20H10V14L7.76,16.24C6.68,15.15 6,13.66 6,12C6,11 6.25,10.06 6.68,9.23L14.76,17.31C14.5,17.44 14.26,17.56 14,17.65V19.74C14.79,19.53 15.54,19.2 16.22,18.78L18.58,21.14L19.85,19.87L4.14,4.14L2.86,5.41M10,6.35V4.26C9.2,4.47 8.45,4.8 7.77,5.22L9.23,6.68C9.5,6.56 9.73,6.44 10,6.35Z" />
    </g>
    <g id="mdi-tab" transform="translate(432 36) scale(1.5)" fill="#555">
      <path d="M21,3H3A2,2 0 0,0 1,5V19A2,2 0 0,0 3,21H21A2,2 0 0,0 23,19V5A2,2 0 0,0 21,3M21,19H3V5H13V9H21V19Z" />
    </g>
    <g id="mdi-tab" transform="translate(468 36) scale(1.5)" fill="#fff">
      <path d="M21,3H3A2,2 0 0,0 1,5V19A2,2 0 0,0 3,21H21A2,2 0 0,0 23,19V5A2,2 0 0,0 21,3M21,19H3V5H13V9H21V19Z" />
    </g>
    <g id="mdi-tab-minus" transform="translate(504 36) scale(1.5)" fill="#555">
      <path d="M3,3A2,2 0 0,0 1,5V19A2,2 0 0,0 3,21H21A2,2 0 0,0 23,19V5A2,2 0 0,0 21,3H3M3,5H13V9H21V19H3V5M7,13V15H15V13H7Z" />
    </g>
    <g id="mdi-tab-minus" transform="translate(540 36) scale(1.5)" fill="#fff">
      <path d="M3,3A2,2 0 0,0 1,5V19A2,2 0 0,0 3,21H21A2,2 0 0,0 23,19V5A2,2 0 0,0 21,3H3M3,5H13V9H21V19H3V5M7,13V15H15V13H7Z" />
    </g>
    <g id="mdi-tab-plus" transform="translate(576 36) scale(1.5)" fill="#555">
      <path d="M3,3A2,2 0 0,0 1,5V19A2,2 0 0,0 3,21H21A2,2 0 0,0 23,19V5A2,2 0 0,0 21,3H3M3,5H13V9H21V19H3V5M10,10V13H7V15H10V18H12V15H15V13H12V10H10Z" />
    </g>
    <g id="mdi-tab-plus" transform="translate(612 36) scale(1.5)" fill="#fff">
      <path d="M3,3A2,2 0 0,0 1,5V19A2,2 0 0,0 3,21H21A2,2 0 0,0 23,19V5A2,2 0 0,0 21,3H3M3,5H13V9H21V19H3V5M10,10V13H7V15H10V18H12V15H15V13H12V10H10Z" />
    </g>
    <g id="mdi-tab-remove" transform="translate(648 36) scale(1.5)" fill="#555">
      <path d="M7.46,11.88L8.88,10.46L11,12.59L13.12,10.46L14.54,11.88L12.41,14L14.54,16.12L13.12,17.54L11,15.41L8.88,17.54L7.46,16.12L9.59,14L7.46,11.88M3,3H21A2,2 0 0,1 23,5V19A2,2 0 0,1 21,21H3A2,2 0 0,1 1,19V5A2,2 0 0,1 3,3M3,5V19H21V9H13V5H3Z" />
    </g>
    <g id="mdi-tab-remove" transform="translate(684 36) scale(1.5)" fill="#fff">
      <path d="M7.46,11.88L8.88,10.46L11,12.59L13.12,10.46L14.54,11.88L12.41,14L14.54,16.12L13.12,17.54L11,15.41L8.88,17.54L7.46,16.12L9.59,14L7.46,11.88M3,3H21A2,2 0 0,1 23,5V19A2,2 0 0,1 21,21H3A2,2 0 0,1 1,19V5A2,2 0 0,1 3,3M3,5V19H21V9H13V5H3Z" />
    </g>
    <g id="mdi-tab-unselected" transform="translate(0 72) scale(1.5)" fill="#555">
      <path d="M1,9H3V7H1V9M1,13H3V11H1V13M1,5H3V3A2,2 0 0,0 1,5M9,21H11V19H9V21M1,17H3V15H1V17M3,21V19H1A2,2 0 0,0 3,21M21,3H13V9H23V5A2,2 0 0,0 21,3M21,17H23V15H21V17M9,5H11V3H9V5M5,21H7V19H5V21M5,5H7V3H5V5M21,21A2,2 0 0,0 23,19H21V21M21,13H23V11H21V13M13,21H15V19H13V21M17,21H19V19H17V21Z" />
    </g>
    <g id="mdi-tab-unselected" transform="translate(36 72) scale(1.5)" fill="#fff">
      <path d="M1,9H3V7H1V9M1,13H3V11H1V13M1,5H3V3A2,2 0 0,0 1,5M9,21H11V19H9V21M1,17H3V15H1V17M3,21V19H1A2,2 0 0,0 3,21M21,3H13V9H23V5A2,2 0 0,0 21,3M21,17H23V15H21V17M9,5H11V3H9V5M5,21H7V19H5V21M5,5H7V3H5V5M21,21A2,2 0 0,0 23,19H21V21M21,13H23V11H21V13M13,21H15V19H13V21M17,21H19V19H17V21Z" />
    </g>
    <g id="mdi-table" transform="translate(72 72) scale(1.5)" fill="#555">
      <path d="M5,4H19A2,2 0 0,1 21,6V18A2,2 0 0,1 19,20H5A2,2 0 0,1 3,18V6A2,2 0 0,1 5,4M5,8V12H11V8H5M13,8V12H19V8H13M5,14V18H11V14H5M13,14V18H19V14H13Z" />
    </g>
    <g id="mdi-table" transform="translate(108 72) scale(1.5)" fill="#fff">
      <path d="M5,4H19A2,2 0 0,1 21,6V18A2,2 0 0,1 19,20H5A2,2 0 0,1 3,18V6A2,2 0 0,1 5,4M5,8V12H11V8H5M13,8V12H19V8H13M5,14V18H11V14H5M13,14V18H19V14H13Z" />
    </g>
    <g id="mdi-table-account" transform="translate(144 72) scale(1.5)" fill="#555">
      <path d="M4 3H18C19.11 3 20 3.9 20 5V12.08C18.45 11.82 16.92 12.18 15.68 13H12V17H13.08C12.97 17.68 12.97 18.35 13.08 19H4C2.9 19 2 18.11 2 17V5C2 3.9 2.9 3 4 3M4 7V11H10V7H4M12 7V11H18V7H12M4 13V17H10V13H4M23 22V21C23 19.67 20.33 19 19 19S15 19.67 15 21V22H23M19 14C17.9 14 17 14.9 17 16S17.9 18 19 18 21 17.11 21 16 20.11 14 19 14Z" />
    </g>
    <g id="mdi-table-account" transform="translate(180 72) scale(1.5)" fill="#fff">
      <path d="M4 3H18C19.11 3 20 3.9 20 5V12.08C18.45 11.82 16.92 12.18 15.68 13H12V17H13.08C12.97 17.68 12.97 18.35 13.08 19H4C2.9 19 2 18.11 2 17V5C2 3.9 2.9 3 4 3M4 7V11H10V7H4M12 7V11H18V7H12M4 13V17H10V13H4M23 22V21C23 19.67 20.33 19 19 19S15 19.67 15 21V22H23M19 14C17.9 14 17 14.9 17 16S17.9 18 19 18 21 17.11 21 16 20.11 14 19 14Z" />
    </g>
    <g id="mdi-table-alert" transform="translate(216 72) scale(1.5)" fill="#555">
      <path d="M3 4H17C18.11 4 19 4.89 19 6V18C19 19.11 18.11 20 17 20H3C1.9 20 1 19.11 1 18V6C1 4.89 1.9 4 3 4M3 8V12H9V8H3M11 8V12H17V8H11M3 14V18H9V14H3M11 14V18H17V14H11M23 7H21V13H23V7M23 15H21V17H23V15Z" />
    </g>
    <g id="mdi-table-alert" transform="translate(252 72) scale(1.5)" fill="#fff">
      <path d="M3 4H17C18.11 4 19 4.89 19 6V18C19 19.11 18.11 20 17 20H3C1.9 20 1 19.11 1 18V6C1 4.89 1.9 4 3 4M3 8V12H9V8H3M11 8V12H17V8H11M3 14V18H9V14H3M11 14V18H17V14H11M23 7H21V13H23V7M23 15H21V17H23V15Z" />
    </g>
    <g id="mdi-table-arrow-down" transform="translate(288 72) scale(1.5)" fill="#555">
      <path d="M4 3H18C19.11 3 20 3.9 20 5V12.08C18.45 11.82 16.92 12.18 15.68 13H12V17H13.08C12.97 17.68 12.97 18.35 13.08 19H4C2.9 19 2 18.11 2 17V5C2 3.9 2.9 3 4 3M4 7V11H10V7H4M12 7V11H18V7H12M4 13V17H10V13H4M15.94 18.5H17.94V14.5H19.94V18.5H21.94L18.94 21.5L15.94 18.5" />
    </g>
    <g id="mdi-table-arrow-down" transform="translate(324 72) scale(1.5)" fill="#fff">
      <path d="M4 3H18C19.11 3 20 3.9 20 5V12.08C18.45 11.82 16.92 12.18 15.68 13H12V17H13.08C12.97 17.68 12.97 18.35 13.08 19H4C2.9 19 2 18.11 2 17V5C2 3.9 2.9 3 4 3M4 7V11H10V7H4M12 7V11H18V7H12M4 13V17H10V13H4M15.94 18.5H17.94V14.5H19.94V18.5H21.94L18.94 21.5L15.94 18.5" />
    </g>
    <g id="mdi-table-arrow-left" transform="translate(360 72) scale(1.5)" fill="#555">
      <path d="M4 3H18C19.11 3 20 3.9 20 5V12.08C18.45 11.82 16.92 12.18 15.68 13H12V17H13.08C12.97 17.68 12.97 18.35 13.08 19H4C2.9 19 2 18.11 2 17V5C2 3.9 2.9 3 4 3M4 7V11H10V7H4M12 7V11H18V7H12M4 13V17H10V13H4M18.44 15V17H22.44V19H18.44V21L15.44 18L18.44 15" />
    </g>
    <g id="mdi-table-arrow-left" transform="translate(396 72) scale(1.5)" fill="#fff">
      <path d="M4 3H18C19.11 3 20 3.9 20 5V12.08C18.45 11.82 16.92 12.18 15.68 13H12V17H13.08C12.97 17.68 12.97 18.35 13.08 19H4C2.9 19 2 18.11 2 17V5C2 3.9 2.9 3 4 3M4 7V11H10V7H4M12 7V11H18V7H12M4 13V17H10V13H4M18.44 15V17H22.44V19H18.44V21L15.44 18L18.44 15" />
    </g>
    <g id="mdi-table-arrow-right" transform="translate(432 72) scale(1.5)" fill="#555">
      <path d="M4 3H18C19.11 3 20 3.9 20 5V12.08C18.45 11.82 16.92 12.18 15.68 13H12V17H13.08C12.97 17.68 12.97 18.35 13.08 19H4C2.9 19 2 18.11 2 17V5C2 3.9 2.9 3 4 3M4 7V11H10V7H4M12 7V11H18V7H12M4 13V17H10V13H4M19.44 21V19H15.44V17H19.44V15L22.44 18L19.44 21" />
    </g>
    <g id="mdi-table-arrow-right" transform="translate(468 72) scale(1.5)" fill="#fff">
      <path d="M4 3H18C19.11 3 20 3.9 20 5V12.08C18.45 11.82 16.92 12.18 15.68 13H12V17H13.08C12.97 17.68 12.97 18.35 13.08 19H4C2.9 19 2 18.11 2 17V5C2 3.9 2.9 3 4 3M4 7V11H10V7H4M12 7V11H18V7H12M4 13V17H10V13H4M19.44 21V19H15.44V17H19.44V15L22.44 18L19.44 21" />
    </g>
    <g id="mdi-table-arrow-up" transform="translate(504 72) scale(1.5)" fill="#555">
      <path d="M4 3H18C19.11 3 20 3.9 20 5V12.08C18.45 11.82 16.92 12.18 15.68 13H12V17H13.08C12.97 17.68 12.97 18.35 13.08 19H4C2.9 19 2 18.11 2 17V5C2 3.9 2.9 3 4 3M4 7V11H10V7H4M12 7V11H18V7H12M4 13V17H10V13H4M21.94 17.5H19.94V21.5H17.94V17.5H15.94L18.94 14.5L21.94 17.5" />
    </g>
    <g id="mdi-table-arrow-up" transform="translate(540 72) scale(1.5)" fill="#fff">
      <path d="M4 3H18C19.11 3 20 3.9 20 5V12.08C18.45 11.82 16.92 12.18 15.68 13H12V17H13.08C12.97 17.68 12.97 18.35 13.08 19H4C2.9 19 2 18.11 2 17V5C2 3.9 2.9 3 4 3M4 7V11H10V7H4M12 7V11H18V7H12M4 13V17H10V13H4M21.94 17.5H19.94V21.5H17.94V17.5H15.94L18.94 14.5L21.94 17.5" />
    </g>
    <g id="mdi-table-border" transform="translate(576 72) scale(1.5)" fill="#555">
      <path d="M21,19A1,1 0 0,1 20,20H19V18H21V19M15,20V18H17V20H15M11,20V18H13V20H11M7,20V18H9V20H7M4,20A1,1 0 0,1 3,19V18H5V20H4M19,4H5A2,2 0 0,0 3,6V8H5L11,8H13L19,8H21V6C21,4.89 20.11,4 19,4M5,14H3V16H5V14M5,10H3V12H5V10M21,10H19V12H21V10M21,14H19V16H21V14M11,16V14H13V16H11M11,12V10H13V12H11" />
    </g>
    <g id="mdi-table-border" transform="translate(612 72) scale(1.5)" fill="#fff">
      <path d="M21,19A1,1 0 0,1 20,20H19V18H21V19M15,20V18H17V20H15M11,20V18H13V20H11M7,20V18H9V20H7M4,20A1,1 0 0,1 3,19V18H5V20H4M19,4H5A2,2 0 0,0 3,6V8H5L11,8H13L19,8H21V6C21,4.89 20.11,4 19,4M5,14H3V16H5V14M5,10H3V12H5V10M21,10H19V12H21V10M21,14H19V16H21V14M11,16V14H13V16H11M11,12V10H13V12H11" />
    </g>
    <g id="mdi-table-cancel" transform="translate(648 72) scale(1.5)" fill="#555">
      <path d="M3 3H17C18.11 3 19 3.9 19 5V12.08C17.45 11.82 15.92 12.18 14.68 13H11V17H12.08C11.97 17.68 11.97 18.35 12.08 19H3C1.9 19 1 18.11 1 17V5C1 3.9 1.9 3 3 3M3 7V11H9V7H3M11 7V11H17V7H11M3 13V17H9V13H3M18.5 14C16 14 14 16 14 18.5S16 23 18.5 23 23 21 23 18.5 21 14 18.5 14M18.5 21.5C16.84 21.5 15.5 20.16 15.5 18.5C15.5 17.94 15.65 17.42 15.92 17L20 21.08C19.58 21.35 19.06 21.5 18.5 21.5M21.08 20L17 15.92C17.42 15.65 17.94 15.5 18.5 15.5C20.16 15.5 21.5 16.84 21.5 18.5C21.5 19.06 21.35 19.58 21.08 20Z" />
    </g>
    <g id="mdi-table-cancel" transform="translate(684 72) scale(1.5)" fill="#fff">
      <path d="M3 3H17C18.11 3 19 3.9 19 5V12.08C17.45 11.82 15.92 12.18 14.68 13H11V17H12.08C11.97 17.68 11.97 18.35 12.08 19H3C1.9 19 1 18.11 1 17V5C1 3.9 1.9 3 3 3M3 7V11H9V7H3M11 7V11H17V7H11M3 13V17H9V13H3M18.5 14C16 14 14 16 14 18.5S16 23 18.5 23 23 21 23 18.5 21 14 18.5 14M18.5 21.5C16.84 21.5 15.5 20.16 15.5 18.5C15.5 17.94 15.65 17.42 15.92 17L20 21.08C19.58 21.35 19.06 21.5 18.5 21.5M21.08 20L17 15.92C17.42 15.65 17.94 15.5 18.5 15.5C20.16 15.5 21.5 16.84 21.5 18.5C21.5 19.06 21.35 19.58 21.08 20Z" />
    </g>
    <g id="mdi-table-chair" transform="translate(0 108) scale(1.5)" fill="#555">
      <path d="M12 22H6A2 2 0 0 1 8 20V8H2V5H16V8H10V20A2 2 0 0 1 12 22M22 2V22H20V15H15V22H13V14A2 2 0 0 1 15 12H20V2Z" />
    </g>
    <g id="mdi-table-chair" transform="translate(36 108) scale(1.5)" fill="#fff">
      <path d="M12 22H6A2 2 0 0 1 8 20V8H2V5H16V8H10V20A2 2 0 0 1 12 22M22 2V22H20V15H15V22H13V14A2 2 0 0 1 15 12H20V2Z" />
    </g>
    <g id="mdi-table-check" transform="translate(72 108) scale(1.5)" fill="#555">
      <path d="M4 3H18C19.11 3 20 3.9 20 5V12.08C18.45 11.82 16.92 12.18 15.68 13H12V17H13.08C12.97 17.68 12.97 18.35 13.08 19H4C2.9 19 2 18.11 2 17V5C2 3.9 2.9 3 4 3M4 7V11H10V7H4M12 7V11H18V7H12M4 13V17H10V13H4M17.75 21L15 18L16.16 16.84L17.75 18.43L21.34 14.84L22.5 16.25L17.75 21" />
    </g>
    <g id="mdi-table-check" transform="translate(108 108) scale(1.5)" fill="#fff">
      <path d="M4 3H18C19.11 3 20 3.9 20 5V12.08C18.45 11.82 16.92 12.18 15.68 13H12V17H13.08C12.97 17.68 12.97 18.35 13.08 19H4C2.9 19 2 18.11 2 17V5C2 3.9 2.9 3 4 3M4 7V11H10V7H4M12 7V11H18V7H12M4 13V17H10V13H4M17.75 21L15 18L16.16 16.84L17.75 18.43L21.34 14.84L22.5 16.25L17.75 21" />
    </g>
    <g id="mdi-table-clock" transform="translate(144 108) scale(1.5)" fill="#555">
      <path d="M16.5 15.82L18.94 17.23L18.19 18.53L15 16.69V13H16.5V15.82M20 10.26V5C20 3.9 19.11 3 18 3H4C2.9 3 2 3.9 2 5V17C2 18.11 2.9 19 4 19H9.68C10.81 21.36 13.21 23 16 23C19.87 23 23 19.87 23 16C23 13.62 21.81 11.53 20 10.26M18 7V9.29C17.37 9.11 16.7 9 16 9C14.5 9 13.13 9.47 12 10.26V7H18M4 7H10V11H4V7M4 17V13H9.68C9.25 13.91 9 14.93 9 16C9 16.34 9.03 16.67 9.08 17H4M16 21C13.24 21 11 18.76 11 16S13.24 11 16 11 21 13.24 21 16 18.76 21 16 21Z" />
    </g>
    <g id="mdi-table-clock" transform="translate(180 108) scale(1.5)" fill="#fff">
      <path d="M16.5 15.82L18.94 17.23L18.19 18.53L15 16.69V13H16.5V15.82M20 10.26V5C20 3.9 19.11 3 18 3H4C2.9 3 2 3.9 2 5V17C2 18.11 2.9 19 4 19H9.68C10.81 21.36 13.21 23 16 23C19.87 23 23 19.87 23 16C23 13.62 21.81 11.53 20 10.26M18 7V9.29C17.37 9.11 16.7 9 16 9C14.5 9 13.13 9.47 12 10.26V7H18M4 7H10V11H4V7M4 17V13H9.68C9.25 13.91 9 14.93 9 16C9 16.34 9.03 16.67 9.08 17H4M16 21C13.24 21 11 18.76 11 16S13.24 11 16 11 21 13.24 21 16 18.76 21 16 21Z" />
    </g>
    <g id="mdi-table-cog" transform="translate(216 108) scale(1.5)" fill="#555">
      <path d="M3 3H17C18.11 3 19 3.9 19 5V12.08C17.45 11.82 15.92 12.18 14.68 13H11V17H12.08C11.97 17.68 11.97 18.35 12.08 19H3C1.9 19 1 18.11 1 17V5C1 3.9 1.9 3 3 3M3 7V11H9V7H3M11 7V11H17V7H11M3 13V17H9V13H3M22.78 19.32L21.71 18.5C21.73 18.33 21.75 18.17 21.75 18S21.74 17.67 21.71 17.5L22.77 16.68C22.86 16.6 22.89 16.47 22.83 16.36L21.83 14.63C21.77 14.5 21.64 14.5 21.5 14.5L20.28 15C20 14.82 19.74 14.65 19.43 14.53L19.24 13.21C19.23 13.09 19.12 13 19 13H17C16.88 13 16.77 13.09 16.75 13.21L16.56 14.53C16.26 14.66 15.97 14.82 15.71 15L14.47 14.5C14.36 14.5 14.23 14.5 14.16 14.63L13.16 16.36C13.1 16.47 13.12 16.6 13.22 16.68L14.28 17.5C14.26 17.67 14.25 17.83 14.25 18S14.26 18.33 14.28 18.5L13.22 19.32C13.13 19.4 13.1 19.53 13.16 19.64L14.16 21.37C14.22 21.5 14.35 21.5 14.47 21.5L15.71 21C15.97 21.18 16.25 21.35 16.56 21.47L16.75 22.79C16.77 22.91 16.87 23 17 23H19C19.12 23 19.23 22.91 19.25 22.79L19.44 21.47C19.74 21.34 20 21.18 20.28 21L21.5 21.5C21.64 21.5 21.77 21.5 21.84 21.37L22.84 19.64C22.9 19.53 22.87 19.4 22.78 19.32M18 19.5C17.17 19.5 16.5 18.83 16.5 18S17.18 16.5 18 16.5 19.5 17.17 19.5 18 18.84 19.5 18 19.5Z" />
    </g>
    <g id="mdi-table-cog" transform="translate(252 108) scale(1.5)" fill="#fff">
      <path d="M3 3H17C18.11 3 19 3.9 19 5V12.08C17.45 11.82 15.92 12.18 14.68 13H11V17H12.08C11.97 17.68 11.97 18.35 12.08 19H3C1.9 19 1 18.11 1 17V5C1 3.9 1.9 3 3 3M3 7V11H9V7H3M11 7V11H17V7H11M3 13V17H9V13H3M22.78 19.32L21.71 18.5C21.73 18.33 21.75 18.17 21.75 18S21.74 17.67 21.71 17.5L22.77 16.68C22.86 16.6 22.89 16.47 22.83 16.36L21.83 14.63C21.77 14.5 21.64 14.5 21.5 14.5L20.28 15C20 14.82 19.74 14.65 19.43 14.53L19.24 13.21C19.23 13.09 19.12 13 19 13H17C16.88 13 16.77 13.09 16.75 13.21L16.56 14.53C16.26 14.66 15.97 14.82 15.71 15L14.47 14.5C14.36 14.5 14.23 14.5 14.16 14.63L13.16 16.36C13.1 16.47 13.12 16.6 13.22 16.68L14.28 17.5C14.26 17.67 14.25 17.83 14.25 18S14.26 18.33 14.28 18.5L13.22 19.32C13.13 19.4 13.1 19.53 13.16 19.64L14.16 21.37C14.22 21.5 14.35 21.5 14.47 21.5L15.71 21C15.97 21.18 16.25 21.35 16.56 21.47L16.75 22.79C16.77 22.91 16.87 23 17 23H19C19.12 23 19.23 22.91 19.25 22.79L19.44 21.47C19.74 21.34 20 21.18 20.28 21L21.5 21.5C21.64 21.5 21.77 21.5 21.84 21.37L22.84 19.64C22.9 19.53 22.87 19.4 22.78 19.32M18 19.5C17.17 19.5 16.5 18.83 16.5 18S17.18 16.5 18 16.5 19.5 17.17 19.5 18 18.84 19.5 18 19.5Z" />
    </g>
    <g id="mdi-table-column" transform="translate(288 108) scale(1.5)" fill="#555">
      <path d="M8,2H16A2,2 0 0,1 18,4V20A2,2 0 0,1 16,22H8A2,2 0 0,1 6,20V4A2,2 0 0,1 8,2M8,10V14H16V10H8M8,16V20H16V16H8M8,4V8H16V4H8Z" />
    </g>
    <g id="mdi-table-column" transform="translate(324 108) scale(1.5)" fill="#fff">
      <path d="M8,2H16A2,2 0 0,1 18,4V20A2,2 0 0,1 16,22H8A2,2 0 0,1 6,20V4A2,2 0 0,1 8,2M8,10V14H16V10H8M8,16V20H16V16H8M8,4V8H16V4H8Z" />
    </g>
    <g id="mdi-table-column-plus-after" transform="translate(360 108) scale(1.5)" fill="#555">
      <path d="M11,2A2,2 0 0,1 13,4V20A2,2 0 0,1 11,22H2V2H11M4,10V14H11V10H4M4,16V20H11V16H4M4,4V8H11V4H4M15,11H18V8H20V11H23V13H20V16H18V13H15V11Z" />
    </g>
    <g id="mdi-table-column-plus-after" transform="translate(396 108) scale(1.5)" fill="#fff">
      <path d="M11,2A2,2 0 0,1 13,4V20A2,2 0 0,1 11,22H2V2H11M4,10V14H11V10H4M4,16V20H11V16H4M4,4V8H11V4H4M15,11H18V8H20V11H23V13H20V16H18V13H15V11Z" />
    </g>
    <g id="mdi-table-column-plus-before" transform="translate(432 108) scale(1.5)" fill="#555">
      <path d="M13,2A2,2 0 0,0 11,4V20A2,2 0 0,0 13,22H22V2H13M20,10V14H13V10H20M20,16V20H13V16H20M20,4V8H13V4H20M9,11H6V8H4V11H1V13H4V16H6V13H9V11Z" />
    </g>
    <g id="mdi-table-column-plus-before" transform="translate(468 108) scale(1.5)" fill="#fff">
      <path d="M13,2A2,2 0 0,0 11,4V20A2,2 0 0,0 13,22H22V2H13M20,10V14H13V10H20M20,16V20H13V16H20M20,4V8H13V4H20M9,11H6V8H4V11H1V13H4V16H6V13H9V11Z" />
    </g>
    <g id="mdi-table-column-remove" transform="translate(504 108) scale(1.5)" fill="#555">
      <path d="M4,2H11A2,2 0 0,1 13,4V20A2,2 0 0,1 11,22H4A2,2 0 0,1 2,20V4A2,2 0 0,1 4,2M4,10V14H11V10H4M4,16V20H11V16H4M4,4V8H11V4H4M17.59,12L15,9.41L16.41,8L19,10.59L21.59,8L23,9.41L20.41,12L23,14.59L21.59,16L19,13.41L16.41,16L15,14.59L17.59,12Z" />
    </g>
    <g id="mdi-table-column-remove" transform="translate(540 108) scale(1.5)" fill="#fff">
      <path d="M4,2H11A2,2 0 0,1 13,4V20A2,2 0 0,1 11,22H4A2,2 0 0,1 2,20V4A2,2 0 0,1 4,2M4,10V14H11V10H4M4,16V20H11V16H4M4,4V8H11V4H4M17.59,12L15,9.41L16.41,8L19,10.59L21.59,8L23,9.41L20.41,12L23,14.59L21.59,16L19,13.41L16.41,16L15,14.59L17.59,12Z" />
    </g>
    <g id="mdi-table-column-width" transform="translate(576 108) scale(1.5)" fill="#555">
      <path d="M5,8H19A2,2 0 0,1 21,10V20A2,2 0 0,1 19,22H5A2,2 0 0,1 3,20V10A2,2 0 0,1 5,8M5,12V15H11V12H5M13,12V15H19V12H13M5,17V20H11V17H5M13,17V20H19V17H13M11,2H21V6H19V4H13V6H11V2Z" />
    </g>
    <g id="mdi-table-column-width" transform="translate(612 108) scale(1.5)" fill="#fff">
      <path d="M5,8H19A2,2 0 0,1 21,10V20A2,2 0 0,1 19,22H5A2,2 0 0,1 3,20V10A2,2 0 0,1 5,8M5,12V15H11V12H5M13,12V15H19V12H13M5,17V20H11V17H5M13,17V20H19V17H13M11,2H21V6H19V4H13V6H11V2Z" />
    </g>
    <g id="mdi-table-edit" transform="translate(648 108) scale(1.5)" fill="#555">
      <path d="M21.7,13.35L20.7,14.35L18.65,12.3L19.65,11.3C19.86,11.08 20.21,11.08 20.42,11.3L21.7,12.58C21.92,12.79 21.92,13.14 21.7,13.35M12,18.94L18.07,12.88L20.12,14.93L14.06,21H12V18.94M4,2H18A2,2 0 0,1 20,4V8.17L16.17,12H12V16.17L10.17,18H4A2,2 0 0,1 2,16V4A2,2 0 0,1 4,2M4,6V10H10V6H4M12,6V10H18V6H12M4,12V16H10V12H4Z" />
    </g>
    <g id="mdi-table-edit" transform="translate(684 108) scale(1.5)" fill="#fff">
      <path d="M21.7,13.35L20.7,14.35L18.65,12.3L19.65,11.3C19.86,11.08 20.21,11.08 20.42,11.3L21.7,12.58C21.92,12.79 21.92,13.14 21.7,13.35M12,18.94L18.07,12.88L20.12,14.93L14.06,21H12V18.94M4,2H18A2,2 0 0,1 20,4V8.17L16.17,12H12V16.17L10.17,18H4A2,2 0 0,1 2,16V4A2,2 0 0,1 4,2M4,6V10H10V6H4M12,6V10H18V6H12M4,12V16H10V12H4Z" />
    </g>
    <g id="mdi-table-eye" transform="translate(0 144) scale(1.5)" fill="#555">
      <path d="M17 16.88C17.56 16.88 18 17.32 18 17.88S17.56 18.88 17 18.88 16 18.43 16 17.88 16.44 16.88 17 16.88M17 13.88C19.73 13.88 22.06 15.54 23 17.88C22.06 20.22 19.73 21.88 17 21.88S11.94 20.22 11 17.88C11.94 15.54 14.27 13.88 17 13.88M17 15.38C15.62 15.38 14.5 16.5 14.5 17.88S15.62 20.38 17 20.38 19.5 19.26 19.5 17.88 18.38 15.38 17 15.38M18 3H4C2.9 3 2 3.9 2 5V17C2 18.1 2.9 19 4 19H9.42C9.26 18.68 9.12 18.34 9 18C9.12 17.66 9.26 17.32 9.42 17H4V13H10V15.97C10.55 15.11 11.23 14.37 12 13.76V13H13.15C14.31 12.36 15.62 12 17 12C18.06 12 19.07 12.21 20 12.59V5C20 3.9 19.1 3 18 3M10 11H4V7H10V11M18 11H12V7H18V11Z" />
    </g>
    <g id="mdi-table-eye" transform="translate(36 144) scale(1.5)" fill="#fff">
      <path d="M17 16.88C17.56 16.88 18 17.32 18 17.88S17.56 18.88 17 18.88 16 18.43 16 17.88 16.44 16.88 17 16.88M17 13.88C19.73 13.88 22.06 15.54 23 17.88C22.06 20.22 19.73 21.88 17 21.88S11.94 20.22 11 17.88C11.94 15.54 14.27 13.88 17 13.88M17 15.38C15.62 15.38 14.5 16.5 14.5 17.88S15.62 20.38 17 20.38 19.5 19.26 19.5 17.88 18.38 15.38 17 15.38M18 3H4C2.9 3 2 3.9 2 5V17C2 18.1 2.9 19 4 19H9.42C9.26 18.68 9.12 18.34 9 18C9.12 17.66 9.26 17.32 9.42 17H4V13H10V15.97C10.55 15.11 11.23 14.37 12 13.76V13H13.15C14.31 12.36 15.62 12 17 12C18.06 12 19.07 12.21 20 12.59V5C20 3.9 19.1 3 18 3M10 11H4V7H10V11M18 11H12V7H18V11Z" />
    </g>
    <g id="mdi-table-eye-off" transform="translate(72 144) scale(1.5)" fill="#555">
      <path d="M12 8.8L6.2 3H18C19.1 3 20 3.9 20 5V12.59C19.07 12.21 18.06 12 17 12C16.45 12 15.91 12.07 15.38 12.18L14.2 11H18V7H12V8.8M17.09 13.89L22.31 19.11C22.58 18.73 22.82 18.32 23 17.88C22.07 15.57 19.78 13.92 17.09 13.89M22.11 21.46L20.84 22.73L19.5 21.37C18.71 21.69 17.88 21.88 17 21.88C14.27 21.88 11.94 20.22 11 17.88C11.45 16.76 12.23 15.8 13.21 15.1L11.93 13.82C11.19 14.42 10.53 15.14 10 15.97V13H4V17H9.42C9.26 17.32 9.12 17.66 9 18C9.12 18.34 9.26 18.68 9.42 19H4C2.9 19 2 18.1 2 17V5C2 4.68 2.08 4.38 2.22 4.11L1.11 3L2.39 1.73L22.11 21.46M9.11 11L5.11 7H4V11H9.11M18.18 20.07L14.81 16.7C14.61 17.05 14.5 17.45 14.5 17.88C14.5 19.26 15.62 20.38 17 20.38C17.43 20.38 17.83 20.27 18.18 20.07Z" />
    </g>
    <g id="mdi-table-eye-off" transform="translate(108 144) scale(1.5)" fill="#fff">
      <path d="M12 8.8L6.2 3H18C19.1 3 20 3.9 20 5V12.59C19.07 12.21 18.06 12 17 12C16.45 12 15.91 12.07 15.38 12.18L14.2 11H18V7H12V8.8M17.09 13.89L22.31 19.11C22.58 18.73 22.82 18.32 23 17.88C22.07 15.57 19.78 13.92 17.09 13.89M22.11 21.46L20.84 22.73L19.5 21.37C18.71 21.69 17.88 21.88 17 21.88C14.27 21.88 11.94 20.22 11 17.88C11.45 16.76 12.23 15.8 13.21 15.1L11.93 13.82C11.19 14.42 10.53 15.14 10 15.97V13H4V17H9.42C9.26 17.32 9.12 17.66 9 18C9.12 18.34 9.26 18.68 9.42 19H4C2.9 19 2 18.1 2 17V5C2 4.68 2.08 4.38 2.22 4.11L1.11 3L2.39 1.73L22.11 21.46M9.11 11L5.11 7H4V11H9.11M18.18 20.07L14.81 16.7C14.61 17.05 14.5 17.45 14.5 17.88C14.5 19.26 15.62 20.38 17 20.38C17.43 20.38 17.83 20.27 18.18 20.07Z" />
    </g>
    <g id="mdi-table-furniture" transform="translate(144 144) scale(1.5)" fill="#555">
      <path d="M2 7H22V10H20L21 19H18.5L17.94 14H6.06L5.5 19H3L4 10H2V7M17.5 10H6.5L6.29 12H17.71L17.5 10Z" />
    </g>
    <g id="mdi-table-furniture" transform="translate(180 144) scale(1.5)" fill="#fff">
      <path d="M2 7H22V10H20L21 19H18.5L17.94 14H6.06L5.5 19H3L4 10H2V7M17.5 10H6.5L6.29 12H17.71L17.5 10Z" />
    </g>
    <g id="mdi-table-headers-eye" transform="translate(216 144) scale(1.5)" fill="#555">
      <path d="M1 6V19A2 2 0 0 0 3 21H9V11H21V6A2 2 0 0 0 19 4H3A2 2 0 0 0 1 6M3 6H7V9H3M7 19H3V16H7M7 14H3V11H7M9 9V6H13V9M19 9H15V6H19M17 16A1 1 0 1 1 16 17A1 1 0 0 1 17 16M17 13A6.45 6.45 0 0 1 23 17A6.5 6.5 0 0 1 11 17A6.45 6.45 0 0 1 17 13M17 14.5A2.5 2.5 0 1 0 19.5 17A2.5 2.5 0 0 0 17 14.5" />
    </g>
    <g id="mdi-table-headers-eye" transform="translate(252 144) scale(1.5)" fill="#fff">
      <path d="M1 6V19A2 2 0 0 0 3 21H9V11H21V6A2 2 0 0 0 19 4H3A2 2 0 0 0 1 6M3 6H7V9H3M7 19H3V16H7M7 14H3V11H7M9 9V6H13V9M19 9H15V6H19M17 16A1 1 0 1 1 16 17A1 1 0 0 1 17 16M17 13A6.45 6.45 0 0 1 23 17A6.5 6.5 0 0 1 11 17A6.45 6.45 0 0 1 17 13M17 14.5A2.5 2.5 0 1 0 19.5 17A2.5 2.5 0 0 0 17 14.5" />
    </g>
    <g id="mdi-table-headers-eye-off" transform="translate(288 144) scale(1.5)" fill="#555">
      <path d="M2.38 1.73L1.11 3L2.26 4.15A2 2 0 0 0 1 6V19A2 2 0 0 0 3 21H9V11H9.11L12.72 14.61A6.21 6.21 0 0 0 11 17A6.45 6.45 0 0 0 17 21A6.55 6.55 0 0 0 18.84 20.73L20.84 22.73L22.11 21.46L20.58 19.93M7 19H3V16H7M7 14H3V11H7M7 9H3V6H4.11L7 8.89M17 19.5A2.5 2.5 0 0 1 14.56 16.45L17.56 19.45A2.5 2.5 0 0 1 17 19.5M16.24 13L17.85 14.61A2.5 2.5 0 0 1 19.35 16.11L21.94 18.7A6.44 6.44 0 0 0 23 17A6.45 6.45 0 0 0 17 13H16.24M13 6V9H12.2L14.2 11H21V6A2 2 0 0 0 19 4H7.2L9.2 6M15 6H19V9H15Z" />
    </g>
    <g id="mdi-table-headers-eye-off" transform="translate(324 144) scale(1.5)" fill="#fff">
      <path d="M2.38 1.73L1.11 3L2.26 4.15A2 2 0 0 0 1 6V19A2 2 0 0 0 3 21H9V11H9.11L12.72 14.61A6.21 6.21 0 0 0 11 17A6.45 6.45 0 0 0 17 21A6.55 6.55 0 0 0 18.84 20.73L20.84 22.73L22.11 21.46L20.58 19.93M7 19H3V16H7M7 14H3V11H7M7 9H3V6H4.11L7 8.89M17 19.5A2.5 2.5 0 0 1 14.56 16.45L17.56 19.45A2.5 2.5 0 0 1 17 19.5M16.24 13L17.85 14.61A2.5 2.5 0 0 1 19.35 16.11L21.94 18.7A6.44 6.44 0 0 0 23 17A6.45 6.45 0 0 0 17 13H16.24M13 6V9H12.2L14.2 11H21V6A2 2 0 0 0 19 4H7.2L9.2 6M15 6H19V9H15Z" />
    </g>
    <g id="mdi-table-heart" transform="translate(360 144) scale(1.5)" fill="#555">
      <path d="M4 3H18C19.11 3 20 3.9 20 5V12.08C18.45 11.82 16.92 12.18 15.68 13H12V17H13.08C12.97 17.68 12.97 18.35 13.08 19H4C2.9 19 2 18.11 2 17V5C2 3.9 2.9 3 4 3M4 7V11H10V7H4M12 7V11H18V7H12M4 13V17H10V13H4M19 22.3L18.4 21.8C16.4 19.9 15 18.7 15 17.2C15 16 16 15 17.2 15C17.9 15 18.6 15.3 19 15.8C19.4 15.3 20.1 15 20.8 15C22 15 23 15.9 23 17.2C23 18.7 21.6 19.9 19.6 21.8L19 22.3" />
    </g>
    <g id="mdi-table-heart" transform="translate(396 144) scale(1.5)" fill="#fff">
      <path d="M4 3H18C19.11 3 20 3.9 20 5V12.08C18.45 11.82 16.92 12.18 15.68 13H12V17H13.08C12.97 17.68 12.97 18.35 13.08 19H4C2.9 19 2 18.11 2 17V5C2 3.9 2.9 3 4 3M4 7V11H10V7H4M12 7V11H18V7H12M4 13V17H10V13H4M19 22.3L18.4 21.8C16.4 19.9 15 18.7 15 17.2C15 16 16 15 17.2 15C17.9 15 18.6 15.3 19 15.8C19.4 15.3 20.1 15 20.8 15C22 15 23 15.9 23 17.2C23 18.7 21.6 19.9 19.6 21.8L19 22.3" />
    </g>
    <g id="mdi-table-key" transform="translate(432 144) scale(1.5)" fill="#555">
      <path d="M16.83 17C16.42 15.83 15.31 15 14 15C12.34 15 11 16.34 11 18S12.34 21 14 21C15.31 21 16.42 20.17 16.83 19H19V21H21V19H22V17H16.83M14 19C13.45 19 13 18.55 13 18S13.45 17 14 17 15 17.45 15 18 14.55 19 14 19M9 18H4V14H10V15.03C10.91 13.81 12.36 13 14 13C15.1 13 16.14 13.37 17 14H18V15L18 15H20V6C20 4.89 19.11 4 18 4H4C2.9 4 2 4.89 2 6V18C2 19.11 2.9 20 4 20H9.42C9.15 19.39 9 18.71 9 18M12 8H18V12H12V8M4 8H10V12H4V8Z" />
    </g>
    <g id="mdi-table-key" transform="translate(468 144) scale(1.5)" fill="#fff">
      <path d="M16.83 17C16.42 15.83 15.31 15 14 15C12.34 15 11 16.34 11 18S12.34 21 14 21C15.31 21 16.42 20.17 16.83 19H19V21H21V19H22V17H16.83M14 19C13.45 19 13 18.55 13 18S13.45 17 14 17 15 17.45 15 18 14.55 19 14 19M9 18H4V14H10V15.03C10.91 13.81 12.36 13 14 13C15.1 13 16.14 13.37 17 14H18V15L18 15H20V6C20 4.89 19.11 4 18 4H4C2.9 4 2 4.89 2 6V18C2 19.11 2.9 20 4 20H9.42C9.15 19.39 9 18.71 9 18M12 8H18V12H12V8M4 8H10V12H4V8Z" />
    </g>
    <g id="mdi-table-large" transform="translate(504 144) scale(1.5)" fill="#555">
      <path d="M4,3H20A2,2 0 0,1 22,5V20A2,2 0 0,1 20,22H4A2,2 0 0,1 2,20V5A2,2 0 0,1 4,3M4,7V10H8V7H4M10,7V10H14V7H10M20,10V7H16V10H20M4,12V15H8V12H4M4,20H8V17H4V20M10,12V15H14V12H10M10,20H14V17H10V20M20,20V17H16V20H20M20,12H16V15H20V12Z" />
    </g>
    <g id="mdi-table-large" transform="translate(540 144) scale(1.5)" fill="#fff">
      <path d="M4,3H20A2,2 0 0,1 22,5V20A2,2 0 0,1 20,22H4A2,2 0 0,1 2,20V5A2,2 0 0,1 4,3M4,7V10H8V7H4M10,7V10H14V7H10M20,10V7H16V10H20M4,12V15H8V12H4M4,20H8V17H4V20M10,12V15H14V12H10M10,20H14V17H10V20M20,20V17H16V20H20M20,12H16V15H20V12Z" />
    </g>
    <g id="mdi-table-large-plus" transform="translate(576 144) scale(1.5)" fill="#555">
      <path d="M12.35 20H10V17H12.09C12.21 16.28 12.46 15.61 12.81 15H10V12H14V13.54C14.58 13 15.25 12.61 16 12.35V12H20V12.35C20.75 12.61 21.42 13 22 13.54V5C22 3.9 21.1 3 20 3H4C2.9 3 2 3.9 2 5V20C2 21.1 2.9 22 4 22H13.54C13 21.42 12.61 20.75 12.35 20M16 7H20V10H16V7M10 7H14V10H10V7M8 20H4V17H8V20M8 15H4V12H8V15M8 10H4V7H8V10M17 14H19V17H22V19H19V22H17V19H14V17H17V14" />
    </g>
    <g id="mdi-table-large-plus" transform="translate(612 144) scale(1.5)" fill="#fff">
      <path d="M12.35 20H10V17H12.09C12.21 16.28 12.46 15.61 12.81 15H10V12H14V13.54C14.58 13 15.25 12.61 16 12.35V12H20V12.35C20.75 12.61 21.42 13 22 13.54V5C22 3.9 21.1 3 20 3H4C2.9 3 2 3.9 2 5V20C2 21.1 2.9 22 4 22H13.54C13 21.42 12.61 20.75 12.35 20M16 7H20V10H16V7M10 7H14V10H10V7M8 20H4V17H8V20M8 15H4V12H8V15M8 10H4V7H8V10M17 14H19V17H22V19H19V22H17V19H14V17H17V14" />
    </g>
    <g id="mdi-table-large-remove" transform="translate(648 144) scale(1.5)" fill="#555">
      <path d="M12.35 20H10V17H12.09C12.21 16.28 12.46 15.61 12.81 15H10V12H14V13.54C14.58 13 15.25 12.61 16 12.35V12H20V12.35C20.75 12.61 21.42 13 22 13.54V5C22 3.9 21.1 3 20 3H4C2.9 3 2 3.9 2 5V20C2 21.1 2.9 22 4 22H13.54C13 21.42 12.61 20.75 12.35 20M16 7H20V10H16V7M10 7H14V10H10V7M8 20H4V17H8V20M8 15H4V12H8V15M8 10H4V7H8V10M14.46 15.88L15.88 14.46L18 16.59L20.12 14.46L21.54 15.88L19.41 18L21.54 20.12L20.12 21.54L18 19.41L15.88 21.54L14.46 20.12L16.59 18L14.46 15.88" />
    </g>
    <g id="mdi-table-large-remove" transform="translate(684 144) scale(1.5)" fill="#fff">
      <path d="M12.35 20H10V17H12.09C12.21 16.28 12.46 15.61 12.81 15H10V12H14V13.54C14.58 13 15.25 12.61 16 12.35V12H20V12.35C20.75 12.61 21.42 13 22 13.54V5C22 3.9 21.1 3 20 3H4C2.9 3 2 3.9 2 5V20C2 21.1 2.9 22 4 22H13.54C13 21.42 12.61 20.75 12.35 20M16 7H20V10H16V7M10 7H14V10H10V7M8 20H4V17H8V20M8 15H4V12H8V15M8 10H4V7H8V10M14.46 15.88L15.88 14.46L18 16.59L20.12 14.46L21.54 15.88L19.41 18L21.54 20.12L20.12 21.54L18 19.41L15.88 21.54L14.46 20.12L16.59 18L14.46 15.88" />
    </g>
    <g id="mdi-table-lock" transform="translate(0 180) scale(1.5)" fill="#555">
      <path d="M21 16V15.5C21 14.12 19.88 13 18.5 13S16 14.12 16 15.5V16C15.45 16 15 16.45 15 17V21C15 21.55 15.45 22 16 22H21C21.55 22 22 21.55 22 21V17C22 16.45 21.55 16 21 16M20 16H17V15.5C17 14.67 17.67 14 18.5 14S20 14.67 20 15.5V16M13 18H12V14H14.26C14.54 13.21 15.04 12.5 15.69 12H12V8H18V11.05C18.17 11.03 18.33 11 18.5 11C19.03 11 19.53 11.1 20 11.26V6C20 4.89 19.11 4 18 4H4C2.9 4 2 4.89 2 6V18C2 19.11 2.9 20 4 20H13V18M10 18H4V14H10V18M10 12H4V8H10V12Z" />
    </g>
    <g id="mdi-table-lock" transform="translate(36 180) scale(1.5)" fill="#fff">
      <path d="M21 16V15.5C21 14.12 19.88 13 18.5 13S16 14.12 16 15.5V16C15.45 16 15 16.45 15 17V21C15 21.55 15.45 22 16 22H21C21.55 22 22 21.55 22 21V17C22 16.45 21.55 16 21 16M20 16H17V15.5C17 14.67 17.67 14 18.5 14S20 14.67 20 15.5V16M13 18H12V14H14.26C14.54 13.21 15.04 12.5 15.69 12H12V8H18V11.05C18.17 11.03 18.33 11 18.5 11C19.03 11 19.53 11.1 20 11.26V6C20 4.89 19.11 4 18 4H4C2.9 4 2 4.89 2 6V18C2 19.11 2.9 20 4 20H13V18M10 18H4V14H10V18M10 12H4V8H10V12Z" />
    </g>
    <g id="mdi-table-merge-cells" transform="translate(72 180) scale(1.5)" fill="#555">
      <path d="M5,10H3V4H11V6H5V10M19,18H13V20H21V14H19V18M5,18V14H3V20H11V18H5M21,4H13V6H19V10H21V4M8,13V15L11,12L8,9V11H3V13H8M16,11V9L13,12L16,15V13H21V11H16Z" />
    </g>
    <g id="mdi-table-merge-cells" transform="translate(108 180) scale(1.5)" fill="#fff">
      <path d="M5,10H3V4H11V6H5V10M19,18H13V20H21V14H19V18M5,18V14H3V20H11V18H5M21,4H13V6H19V10H21V4M8,13V15L11,12L8,9V11H3V13H8M16,11V9L13,12L16,15V13H21V11H16Z" />
    </g>
    <g id="mdi-table-minus" transform="translate(144 180) scale(1.5)" fill="#555">
      <path d="M15 19V17H23V19H15M4 3H18C19.11 3 20 3.9 20 5V12.08C18.45 11.82 16.92 12.18 15.68 13H12V17H13.08C12.97 17.68 12.97 18.35 13.08 19H4C2.9 19 2 18.11 2 17V5C2 3.9 2.9 3 4 3M4 7V11H10V7H4M12 7V11H18V7H12M4 13V17H10V13H4Z" />
    </g>
    <g id="mdi-table-minus" transform="translate(180 180) scale(1.5)" fill="#fff">
      <path d="M15 19V17H23V19H15M4 3H18C19.11 3 20 3.9 20 5V12.08C18.45 11.82 16.92 12.18 15.68 13H12V17H13.08C12.97 17.68 12.97 18.35 13.08 19H4C2.9 19 2 18.11 2 17V5C2 3.9 2.9 3 4 3M4 7V11H10V7H4M12 7V11H18V7H12M4 13V17H10V13H4Z" />
    </g>
    <g id="mdi-table-multiple" transform="translate(216 180) scale(1.5)" fill="#555">
      <path d="M7 2H21C22.11 2 23 2.9 23 4V16C23 17.11 22.11 18 21 18H7C5.9 18 5 17.11 5 16V4C5 2.9 5.9 2 7 2M7 6V10H13V6H7M15 6V10H21V6H15M7 12V16H13V12H7M15 12V16H21V12H15M3 20V6H1V20C1 21.11 1.89 22 3 22H19V20H3Z" />
    </g>
    <g id="mdi-table-multiple" transform="translate(252 180) scale(1.5)" fill="#fff">
      <path d="M7 2H21C22.11 2 23 2.9 23 4V16C23 17.11 22.11 18 21 18H7C5.9 18 5 17.11 5 16V4C5 2.9 5.9 2 7 2M7 6V10H13V6H7M15 6V10H21V6H15M7 12V16H13V12H7M15 12V16H21V12H15M3 20V6H1V20C1 21.11 1.89 22 3 22H19V20H3Z" />
    </g>
    <g id="mdi-table-network" transform="translate(288 180) scale(1.5)" fill="#555">
      <path d="M15 20C15 19.45 14.55 19 14 19H13V17H19C20.11 17 21 16.11 21 15V3C21 1.9 20.11 1 19 1H5C3.9 1 3 1.9 3 3V15C3 16.11 3.9 17 5 17H11V19H10C9.45 19 9 19.45 9 20H2V22H9C9 22.55 9.45 23 10 23H14C14.55 23 15 22.55 15 22H22V20H15M13 5H19V9H13V5M13 11H19V15H13V11M5 5H11V9H5V5M5 15V11H11V15H5Z" />
    </g>
    <g id="mdi-table-network" transform="translate(324 180) scale(1.5)" fill="#fff">
      <path d="M15 20C15 19.45 14.55 19 14 19H13V17H19C20.11 17 21 16.11 21 15V3C21 1.9 20.11 1 19 1H5C3.9 1 3 1.9 3 3V15C3 16.11 3.9 17 5 17H11V19H10C9.45 19 9 19.45 9 20H2V22H9C9 22.55 9.45 23 10 23H14C14.55 23 15 22.55 15 22H22V20H15M13 5H19V9H13V5M13 11H19V15H13V11M5 5H11V9H5V5M5 15V11H11V15H5Z" />
    </g>
    <g id="mdi-table-of-contents" transform="translate(360 180) scale(1.5)" fill="#555">
      <path d="M3,9H17V7H3V9M3,13H17V11H3V13M3,17H17V15H3V17M19,17H21V15H19V17M19,7V9H21V7H19M19,13H21V11H19V13Z" />
    </g>
    <g id="mdi-table-of-contents" transform="translate(396 180) scale(1.5)" fill="#fff">
      <path d="M3,9H17V7H3V9M3,13H17V11H3V13M3,17H17V15H3V17M19,17H21V15H19V17M19,7V9H21V7H19M19,13H21V11H19V13Z" />
    </g>
    <g id="mdi-table-off" transform="translate(432 180) scale(1.5)" fill="#555">
      <path d="M22.11 21.46L2.39 1.73L1.11 3L3.22 5.11C3.08 5.38 3 5.68 3 6V18C3 19.11 3.9 20 5 20H18.11L20.84 22.73L22.11 21.46M10.11 12H5V8H6.11L10.11 12M11 18H5V14H11V18M13 18V14.89L16.11 18H13M13 9.8L7.2 4H19C20.11 4 21 4.89 21 6V17.8L19 15.8V14H17.2L15.2 12H19V8H13V9.8Z" />
    </g>
    <g id="mdi-table-off" transform="translate(468 180) scale(1.5)" fill="#fff">
      <path d="M22.11 21.46L2.39 1.73L1.11 3L3.22 5.11C3.08 5.38 3 5.68 3 6V18C3 19.11 3.9 20 5 20H18.11L20.84 22.73L22.11 21.46M10.11 12H5V8H6.11L10.11 12M11 18H5V14H11V18M13 18V14.89L16.11 18H13M13 9.8L7.2 4H19C20.11 4 21 4.89 21 6V17.8L19 15.8V14H17.2L15.2 12H19V8H13V9.8Z" />
    </g>
    <g id="mdi-table-picnic" transform="translate(504 180) scale(1.5)" fill="#555">
      <path d="M4 6H20V9H18L18.22 11H23V13H18.44L19 18H16.5L15.94 13H8.06L7.5 18H5L5.56 13H1V11H5.78L6 9H4M15.5 9H8.5L8.29 11H15.71Z" />
    </g>
    <g id="mdi-table-picnic" transform="translate(540 180) scale(1.5)" fill="#fff">
      <path d="M4 6H20V9H18L18.22 11H23V13H18.44L19 18H16.5L15.94 13H8.06L7.5 18H5L5.56 13H1V11H5.78L6 9H4M15.5 9H8.5L8.29 11H15.71Z" />
    </g>
    <g id="mdi-table-plus" transform="translate(576 180) scale(1.5)" fill="#555">
      <path d="M18,14H20V17H23V19H20V22H18V19H15V17H18V14M4,3H18A2,2 0 0,1 20,5V12.08C18.45,11.82 16.92,12.18 15.68,13H12V17H13.08C12.97,17.68 12.97,18.35 13.08,19H4A2,2 0 0,1 2,17V5A2,2 0 0,1 4,3M4,7V11H10V7H4M12,7V11H18V7H12M4,13V17H10V13H4Z" />
    </g>
    <g id="mdi-table-plus" transform="translate(612 180) scale(1.5)" fill="#fff">
      <path d="M18,14H20V17H23V19H20V22H18V19H15V17H18V14M4,3H18A2,2 0 0,1 20,5V12.08C18.45,11.82 16.92,12.18 15.68,13H12V17H13.08C12.97,17.68 12.97,18.35 13.08,19H4A2,2 0 0,1 2,17V5A2,2 0 0,1 4,3M4,7V11H10V7H4M12,7V11H18V7H12M4,13V17H10V13H4Z" />
    </g>
    <g id="mdi-table-refresh" transform="translate(648 180) scale(1.5)" fill="#555">
      <path d="M18 14.5C19.11 14.5 20.11 14.95 20.83 15.67L22 14.5V18.5H18L19.77 16.73C19.32 16.28 18.69 16 18 16C16.62 16 15.5 17.12 15.5 18.5C15.5 19.88 16.62 21 18 21C18.82 21 19.55 20.61 20 20H21.71C21.12 21.47 19.68 22.5 18 22.5C15.79 22.5 14 20.71 14 18.5C14 16.29 15.79 14.5 18 14.5M4 3H18C19.11 3 20 3.9 20 5V12.17C19.5 12.06 19 12 18.5 12C17.23 12 16.04 12.37 15.04 13H12V17H12.18C12.06 17.5 12 18 12 18.5L12 19H4C2.9 19 2 18.11 2 17V5C2 3.9 2.9 3 4 3M4 7V11H10V7H4M12 7V11H18V7H12M4 13V17H10V13H4Z" />
    </g>
    <g id="mdi-table-refresh" transform="translate(684 180) scale(1.5)" fill="#fff">
      <path d="M18 14.5C19.11 14.5 20.11 14.95 20.83 15.67L22 14.5V18.5H18L19.77 16.73C19.32 16.28 18.69 16 18 16C16.62 16 15.5 17.12 15.5 18.5C15.5 19.88 16.62 21 18 21C18.82 21 19.55 20.61 20 20H21.71C21.12 21.47 19.68 22.5 18 22.5C15.79 22.5 14 20.71 14 18.5C14 16.29 15.79 14.5 18 14.5M4 3H18C19.11 3 20 3.9 20 5V12.17C19.5 12.06 19 12 18.5 12C17.23 12 16.04 12.37 15.04 13H12V17H12.18C12.06 17.5 12 18 12 18.5L12 19H4C2.9 19 2 18.11 2 17V5C2 3.9 2.9 3 4 3M4 7V11H10V7H4M12 7V11H18V7H12M4 13V17H10V13H4Z" />
    </g>
    <g id="mdi-table-remove" transform="translate(0 216) scale(1.5)" fill="#555">
      <path d="M15.46,15.88L16.88,14.46L19,16.59L21.12,14.46L22.54,15.88L20.41,18L22.54,20.12L21.12,21.54L19,19.41L16.88,21.54L15.46,20.12L17.59,18L15.46,15.88M4,3H18A2,2 0 0,1 20,5V12.08C18.45,11.82 16.92,12.18 15.68,13H12V17H13.08C12.97,17.68 12.97,18.35 13.08,19H4A2,2 0 0,1 2,17V5A2,2 0 0,1 4,3M4,7V11H10V7H4M12,7V11H18V7H12M4,13V17H10V13H4Z" />
    </g>
    <g id="mdi-table-remove" transform="translate(36 216) scale(1.5)" fill="#fff">
      <path d="M15.46,15.88L16.88,14.46L19,16.59L21.12,14.46L22.54,15.88L20.41,18L22.54,20.12L21.12,21.54L19,19.41L16.88,21.54L15.46,20.12L17.59,18L15.46,15.88M4,3H18A2,2 0 0,1 20,5V12.08C18.45,11.82 16.92,12.18 15.68,13H12V17H13.08C12.97,17.68 12.97,18.35 13.08,19H4A2,2 0 0,1 2,17V5A2,2 0 0,1 4,3M4,7V11H10V7H4M12,7V11H18V7H12M4,13V17H10V13H4Z" />
    </g>
    <g id="mdi-table-row" transform="translate(72 216) scale(1.5)" fill="#555">
      <path d="M22,14A2,2 0 0,1 20,16H4A2,2 0 0,1 2,14V10A2,2 0 0,1 4,8H20A2,2 0 0,1 22,10V14M4,14H8V10H4V14M10,14H14V10H10V14M16,14H20V10H16V14Z" />
    </g>
    <g id="mdi-table-row" transform="translate(108 216) scale(1.5)" fill="#fff">
      <path d="M22,14A2,2 0 0,1 20,16H4A2,2 0 0,1 2,14V10A2,2 0 0,1 4,8H20A2,2 0 0,1 22,10V14M4,14H8V10H4V14M10,14H14V10H10V14M16,14H20V10H16V14Z" />
    </g>
    <g id="mdi-table-row-height" transform="translate(144 216) scale(1.5)" fill="#555">
      <path d="M3,5H15A2,2 0 0,1 17,7V17A2,2 0 0,1 15,19H3A2,2 0 0,1 1,17V7A2,2 0 0,1 3,5M3,9V12H8V9H3M10,9V12H15V9H10M3,14V17H8V14H3M10,14V17H15V14H10M23,14V7H19V9H21V12H19V14H23Z" />
    </g>
    <g id="mdi-table-row-height" transform="translate(180 216) scale(1.5)" fill="#fff">
      <path d="M3,5H15A2,2 0 0,1 17,7V17A2,2 0 0,1 15,19H3A2,2 0 0,1 1,17V7A2,2 0 0,1 3,5M3,9V12H8V9H3M10,9V12H15V9H10M3,14V17H8V14H3M10,14V17H15V14H10M23,14V7H19V9H21V12H19V14H23Z" />
    </g>
    <g id="mdi-table-row-plus-after" transform="translate(216 216) scale(1.5)" fill="#555">
      <path d="M22,10A2,2 0 0,1 20,12H4A2,2 0 0,1 2,10V3H4V5H8V3H10V5H14V3H16V5H20V3H22V10M4,10H8V7H4V10M10,10H14V7H10V10M20,10V7H16V10H20M11,14H13V17H16V19H13V22H11V19H8V17H11V14Z" />
    </g>
    <g id="mdi-table-row-plus-after" transform="translate(252 216) scale(1.5)" fill="#fff">
      <path d="M22,10A2,2 0 0,1 20,12H4A2,2 0 0,1 2,10V3H4V5H8V3H10V5H14V3H16V5H20V3H22V10M4,10H8V7H4V10M10,10H14V7H10V10M20,10V7H16V10H20M11,14H13V17H16V19H13V22H11V19H8V17H11V14Z" />
    </g>
    <g id="mdi-table-row-plus-before" transform="translate(288 216) scale(1.5)" fill="#555">
      <path d="M22,14A2,2 0 0,0 20,12H4A2,2 0 0,0 2,14V21H4V19H8V21H10V19H14V21H16V19H20V21H22V14M4,14H8V17H4V14M10,14H14V17H10V14M20,14V17H16V14H20M11,10H13V7H16V5H13V2H11V5H8V7H11V10Z" />
    </g>
    <g id="mdi-table-row-plus-before" transform="translate(324 216) scale(1.5)" fill="#fff">
      <path d="M22,14A2,2 0 0,0 20,12H4A2,2 0 0,0 2,14V21H4V19H8V21H10V19H14V21H16V19H20V21H22V14M4,14H8V17H4V14M10,14H14V17H10V14M20,14V17H16V14H20M11,10H13V7H16V5H13V2H11V5H8V7H11V10Z" />
    </g>
    <g id="mdi-table-row-remove" transform="translate(360 216) scale(1.5)" fill="#555">
      <path d="M9.41,13L12,15.59L14.59,13L16,14.41L13.41,17L16,19.59L14.59,21L12,18.41L9.41,21L8,19.59L10.59,17L8,14.41L9.41,13M22,9A2,2 0 0,1 20,11H4A2,2 0 0,1 2,9V6A2,2 0 0,1 4,4H20A2,2 0 0,1 22,6V9M4,9H8V6H4V9M10,9H14V6H10V9M16,9H20V6H16V9Z" />
    </g>
    <g id="mdi-table-row-remove" transform="translate(396 216) scale(1.5)" fill="#fff">
      <path d="M9.41,13L12,15.59L14.59,13L16,14.41L13.41,17L16,19.59L14.59,21L12,18.41L9.41,21L8,19.59L10.59,17L8,14.41L9.41,13M22,9A2,2 0 0,1 20,11H4A2,2 0 0,1 2,9V6A2,2 0 0,1 4,4H20A2,2 0 0,1 22,6V9M4,9H8V6H4V9M10,9H14V6H10V9M16,9H20V6H16V9Z" />
    </g>
    <g id="mdi-table-search" transform="translate(432 216) scale(1.5)" fill="#555">
      <path d="M19.3,17.89C20.62,15.79 20,13 17.89,11.68C15.79,10.36 13,11 11.68,13.09C10.36,15.2 11,18 13.09,19.3C14.56,20.22 16.42,20.22 17.89,19.3L21,22.39L22.39,21L19.3,17.89M17.3,17.27C16.32,18.25 14.74,18.24 13.76,17.27C12.79,16.29 12.79,14.71 13.77,13.73C14.74,12.76 16.32,12.76 17.3,13.73C18.26,14.72 18.25,16.3 17.27,17.27H17.3M19,4H5A2,2 0 0,0 3,6V18A2,2 0 0,0 5,20H10.81C10.25,19.42 9.8,18.74 9.5,18H5V14H9.18C9.34,13.29 9.61,12.61 10,12H5V8H11V10.81C11.58,10.25 12.26,9.8 13,9.5V8H19V10C19.4,10.25 19.77,10.55 20.1,10.88C20.44,11.22 20.74,11.59 21,12V6A2,2 0 0,0 19,4Z" />
    </g>
    <g id="mdi-table-search" transform="translate(468 216) scale(1.5)" fill="#fff">
      <path d="M19.3,17.89C20.62,15.79 20,13 17.89,11.68C15.79,10.36 13,11 11.68,13.09C10.36,15.2 11,18 13.09,19.3C14.56,20.22 16.42,20.22 17.89,19.3L21,22.39L22.39,21L19.3,17.89M17.3,17.27C16.32,18.25 14.74,18.24 13.76,17.27C12.79,16.29 12.79,14.71 13.77,13.73C14.74,12.76 16.32,12.76 17.3,13.73C18.26,14.72 18.25,16.3 17.27,17.27H17.3M19,4H5A2,2 0 0,0 3,6V18A2,2 0 0,0 5,20H10.81C10.25,19.42 9.8,18.74 9.5,18H5V14H9.18C9.34,13.29 9.61,12.61 10,12H5V8H11V10.81C11.58,10.25 12.26,9.8 13,9.5V8H19V10C19.4,10.25 19.77,10.55 20.1,10.88C20.44,11.22 20.74,11.59 21,12V6A2,2 0 0,0 19,4Z" />
    </g>
    <g id="mdi-table-settings" transform="translate(504 216) scale(1.5)" fill="#555">
      <path d="M7,22H9V24H7V22M11,22H13V24H11V22M15,22H17V24H15V22M5,4H19A2,2 0 0,1 21,6V18A2,2 0 0,1 19,20H5A2,2 0 0,1 3,18V6A2,2 0 0,1 5,4M5,8V12H11V8H5M13,8V12H19V8H13M5,14V18H11V14H5M13,14V18H19V14H13Z" />
    </g>
    <g id="mdi-table-settings" transform="translate(540 216) scale(1.5)" fill="#fff">
      <path d="M7,22H9V24H7V22M11,22H13V24H11V22M15,22H17V24H15V22M5,4H19A2,2 0 0,1 21,6V18A2,2 0 0,1 19,20H5A2,2 0 0,1 3,18V6A2,2 0 0,1 5,4M5,8V12H11V8H5M13,8V12H19V8H13M5,14V18H11V14H5M13,14V18H19V14H13Z" />
    </g>
    <g id="mdi-table-split-cell" transform="translate(576 216) scale(1.5)" fill="#555">
      <path d="M19 14H21V20H3V14H5V18H19V14M3 4V10H5V6H19V10H21V4H3M11 11V13H8V15L5 12L8 9V11H11M16 11V9L19 12L16 15V13H13V11H16Z" />
    </g>
    <g id="mdi-table-split-cell" transform="translate(612 216) scale(1.5)" fill="#fff">
      <path d="M19 14H21V20H3V14H5V18H19V14M3 4V10H5V6H19V10H21V4H3M11 11V13H8V15L5 12L8 9V11H11M16 11V9L19 12L16 15V13H13V11H16Z" />
    </g>
    <g id="mdi-table-star" transform="translate(648 216) scale(1.5)" fill="#555">
      <path d="M4 3H18C19.11 3 20 3.9 20 5V12.08C18.45 11.82 16.92 12.18 15.68 13H12V17H13.08C12.97 17.68 12.97 18.35 13.08 19H4C2.9 19 2 18.11 2 17V5C2 3.9 2.9 3 4 3M4 7V11H10V7H4M12 7V11H18V7H12M4 13V17H10V13H4M16.5 21.6L17.2 18.8L15 16.9L17.9 16.7L19 14L20.1 16.6L23 16.8L20.8 18.7L21.5 21.5L19 20.1L16.5 21.6Z" />
    </g>
    <g id="mdi-table-star" transform="translate(684 216) scale(1.5)" fill="#fff">
      <path d="M4 3H18C19.11 3 20 3.9 20 5V12.08C18.45 11.82 16.92 12.18 15.68 13H12V17H13.08C12.97 17.68 12.97 18.35 13.08 19H4C2.9 19 2 18.11 2 17V5C2 3.9 2.9 3 4 3M4 7V11H10V7H4M12 7V11H18V7H12M4 13V17H10V13H4M16.5 21.6L17.2 18.8L15 16.9L17.9 16.7L19 14L20.1 16.6L23 16.8L20.8 18.7L21.5 21.5L19 20.1L16.5 21.6Z" />
    </g>
    <g id="mdi-table-sync" transform="translate(0 252) scale(1.5)" fill="#555">
      <path d="M19 12V13.5C21.21 13.5 23 15.29 23 17.5C23 18.32 22.76 19.08 22.33 19.71L21.24 18.62C21.41 18.28 21.5 17.9 21.5 17.5C21.5 16.12 20.38 15 19 15V16.5L16.75 14.25L19 12M19 23V21.5C16.79 21.5 15 19.71 15 17.5C15 16.68 15.25 15.92 15.67 15.29L16.76 16.38C16.59 16.72 16.5 17.1 16.5 17.5C16.5 18.88 17.62 20 19 20V18.5L21.25 20.75L19 23M4 3H18C19.11 3 20 3.9 20 5V11L19.5 11C17.66 11 16 11.77 14.81 13H12V17H13L13 17.5C13 18 13.06 18.5 13.17 19H4C2.9 19 2 18.11 2 17V5C2 3.9 2.9 3 4 3M4 7V11H10V7H4M12 7V11H18V7H12M4 13V17H10V13H4Z" />
    </g>
    <g id="mdi-table-sync" transform="translate(36 252) scale(1.5)" fill="#fff">
      <path d="M19 12V13.5C21.21 13.5 23 15.29 23 17.5C23 18.32 22.76 19.08 22.33 19.71L21.24 18.62C21.41 18.28 21.5 17.9 21.5 17.5C21.5 16.12 20.38 15 19 15V16.5L16.75 14.25L19 12M19 23V21.5C16.79 21.5 15 19.71 15 17.5C15 16.68 15.25 15.92 15.67 15.29L16.76 16.38C16.59 16.72 16.5 17.1 16.5 17.5C16.5 18.88 17.62 20 19 20V18.5L21.25 20.75L19 23M4 3H18C19.11 3 20 3.9 20 5V11L19.5 11C17.66 11 16 11.77 14.81 13H12V17H13L13 17.5C13 18 13.06 18.5 13.17 19H4C2.9 19 2 18.11 2 17V5C2 3.9 2.9 3 4 3M4 7V11H10V7H4M12 7V11H18V7H12M4 13V17H10V13H4Z" />
    </g>
    <g id="mdi-table-tennis" transform="translate(72 252) scale(1.5)" fill="#555">
      <path d="M18.5,14C19.9,14 21,15.1 21,16.5C21,17.9 19.9,19 18.5,19C17.1,19 16,17.9 16,16.5C16,15.1 17.1,14 18.5,14M7,15C7,15 8,16 8,17V20.5C8,21.3 8.7,22 9.5,22C10.3,22 11,21.3 11,20.5V17C11,16 12,15 12,15H7M8,14H11C11,14 16,14 16,9C16,4 12,2 9.5,2C7,2 3,4 3,9C3,14 8,14 8,14Z" />
    </g>
    <g id="mdi-table-tennis" transform="translate(108 252) scale(1.5)" fill="#fff">
      <path d="M18.5,14C19.9,14 21,15.1 21,16.5C21,17.9 19.9,19 18.5,19C17.1,19 16,17.9 16,16.5C16,15.1 17.1,14 18.5,14M7,15C7,15 8,16 8,17V20.5C8,21.3 8.7,22 9.5,22C10.3,22 11,21.3 11,20.5V17C11,16 12,15 12,15H7M8,14H11C11,14 16,14 16,9C16,4 12,2 9.5,2C7,2 3,4 3,9C3,14 8,14 8,14Z" />
    </g>
    <g id="mdi-tablet" transform="translate(144 252) scale(1.5)" fill="#555">
      <path d="M19,18H5V6H19M21,4H3C1.89,4 1,4.89 1,6V18A2,2 0 0,0 3,20H21A2,2 0 0,0 23,18V6C23,4.89 22.1,4 21,4Z" />
    </g>
    <g id="mdi-tablet" transform="translate(180 252) scale(1.5)" fill="#fff">
      <path d="M19,18H5V6H19M21,4H3C1.89,4 1,4.89 1,6V18A2,2 0 0,0 3,20H21A2,2 0 0,0 23,18V6C23,4.89 22.1,4 21,4Z" />
    </g>
    <g id="mdi-tablet-android" transform="translate(216 252) scale(1.5)" fill="#555">
      <path d="M19.25,19H4.75V3H19.25M14,22H10V21H14M18,0H6A3,3 0 0,0 3,3V21A3,3 0 0,0 6,24H18A3,3 0 0,0 21,21V3A3,3 0 0,0 18,0Z" />
    </g>
    <g id="mdi-tablet-android" transform="translate(252 252) scale(1.5)" fill="#fff">
      <path d="M19.25,19H4.75V3H19.25M14,22H10V21H14M18,0H6A3,3 0 0,0 3,3V21A3,3 0 0,0 6,24H18A3,3 0 0,0 21,21V3A3,3 0 0,0 18,0Z" />
    </g>
    <g id="mdi-tablet-cellphone" transform="translate(288 252) scale(1.5)" fill="#555">
      <path d="M3,4H20A2,2 0 0,1 22,6V8H18V6H5V18H14V20H3A2,2 0 0,1 1,18V6A2,2 0 0,1 3,4M17,10H23A1,1 0 0,1 24,11V21A1,1 0 0,1 23,22H17A1,1 0 0,1 16,21V11A1,1 0 0,1 17,10M18,12V19H22V12H18Z" />
    </g>
    <g id="mdi-tablet-cellphone" transform="translate(324 252) scale(1.5)" fill="#fff">
      <path d="M3,4H20A2,2 0 0,1 22,6V8H18V6H5V18H14V20H3A2,2 0 0,1 1,18V6A2,2 0 0,1 3,4M17,10H23A1,1 0 0,1 24,11V21A1,1 0 0,1 23,22H17A1,1 0 0,1 16,21V11A1,1 0 0,1 17,10M18,12V19H22V12H18Z" />
    </g>
    <g id="mdi-tablet-dashboard" transform="translate(360 252) scale(1.5)" fill="#555">
      <path d="M19,18H5V6H19M21,4H3C1.89,4 1,4.89 1,6V18A2,2 0 0,0 3,20H21A2,2 0 0,0 23,18V6C23,4.89 22.1,4 21,4M7,8H13V13H7V8M14,8H17V10H14V8M17,11V16H14V11H17M7,14H13V16H7V14Z" />
    </g>
    <g id="mdi-tablet-dashboard" transform="translate(396 252) scale(1.5)" fill="#fff">
      <path d="M19,18H5V6H19M21,4H3C1.89,4 1,4.89 1,6V18A2,2 0 0,0 3,20H21A2,2 0 0,0 23,18V6C23,4.89 22.1,4 21,4M7,8H13V13H7V8M14,8H17V10H14V8M17,11V16H14V11H17M7,14H13V16H7V14Z" />
    </g>
    <g id="mdi-tablet-ipad" transform="translate(432 252) scale(1.5)" fill="#555">
      <path d="M19,19H4V3H19M11.5,23A1.5,1.5 0 0,1 10,21.5A1.5,1.5 0 0,1 11.5,20A1.5,1.5 0 0,1 13,21.5A1.5,1.5 0 0,1 11.5,23M18.5,0H4.5A2.5,2.5 0 0,0 2,2.5V21.5A2.5,2.5 0 0,0 4.5,24H18.5A2.5,2.5 0 0,0 21,21.5V2.5A2.5,2.5 0 0,0 18.5,0Z" />
    </g>
    <g id="mdi-tablet-ipad" transform="translate(468 252) scale(1.5)" fill="#fff">
      <path d="M19,19H4V3H19M11.5,23A1.5,1.5 0 0,1 10,21.5A1.5,1.5 0 0,1 11.5,20A1.5,1.5 0 0,1 13,21.5A1.5,1.5 0 0,1 11.5,23M18.5,0H4.5A2.5,2.5 0 0,0 2,2.5V21.5A2.5,2.5 0 0,0 4.5,24H18.5A2.5,2.5 0 0,0 21,21.5V2.5A2.5,2.5 0 0,0 18.5,0Z" />
    </g>
    <g id="mdi-taco" transform="translate(504 252) scale(1.5)" fill="#555">
      <path d="M19,18H5A4,4 0 0,1 1,14A8,8 0 0,1 9,6C10.06,6 11.07,6.21 12,6.58C12.93,6.21 13.94,6 15,6A8,8 0 0,1 23,14A4,4 0 0,1 19,18M3,14A2,2 0 0,0 5,16A2,2 0 0,0 7,14C7,11.63 8.03,9.5 9.67,8.04L9,8A6,6 0 0,0 3,14M19,16A2,2 0 0,0 21,14A6,6 0 0,0 15,8A6,6 0 0,0 9,14C9,14.73 8.81,15.41 8.46,16H19Z" />
    </g>
    <g id="mdi-taco" transform="translate(540 252) scale(1.5)" fill="#fff">
      <path d="M19,18H5A4,4 0 0,1 1,14A8,8 0 0,1 9,6C10.06,6 11.07,6.21 12,6.58C12.93,6.21 13.94,6 15,6A8,8 0 0,1 23,14A4,4 0 0,1 19,18M3,14A2,2 0 0,0 5,16A2,2 0 0,0 7,14C7,11.63 8.03,9.5 9.67,8.04L9,8A6,6 0 0,0 3,14M19,16A2,2 0 0,0 21,14A6,6 0 0,0 15,8A6,6 0 0,0 9,14C9,14.73 8.81,15.41 8.46,16H19Z" />
    </g>
    <g id="mdi-tag" transform="translate(576 252) scale(1.5)" fill="#555">
      <path d="M5.5,7A1.5,1.5 0 0,1 4,5.5A1.5,1.5 0 0,1 5.5,4A1.5,1.5 0 0,1 7,5.5A1.5,1.5 0 0,1 5.5,7M21.41,11.58L12.41,2.58C12.05,2.22 11.55,2 11,2H4C2.89,2 2,2.89 2,4V11C2,11.55 2.22,12.05 2.59,12.41L11.58,21.41C11.95,21.77 12.45,22 13,22C13.55,22 14.05,21.77 14.41,21.41L21.41,14.41C21.78,14.05 22,13.55 22,13C22,12.44 21.77,11.94 21.41,11.58Z" />
    </g>
    <g id="mdi-tag" transform="translate(612 252) scale(1.5)" fill="#fff">
      <path d="M5.5,7A1.5,1.5 0 0,1 4,5.5A1.5,1.5 0 0,1 5.5,4A1.5,1.5 0 0,1 7,5.5A1.5,1.5 0 0,1 5.5,7M21.41,11.58L12.41,2.58C12.05,2.22 11.55,2 11,2H4C2.89,2 2,2.89 2,4V11C2,11.55 2.22,12.05 2.59,12.41L11.58,21.41C11.95,21.77 12.45,22 13,22C13.55,22 14.05,21.77 14.41,21.41L21.41,14.41C21.78,14.05 22,13.55 22,13C22,12.44 21.77,11.94 21.41,11.58Z" />
    </g>
    <g id="mdi-tag-arrow-down" transform="translate(648 252) scale(1.5)" fill="#555">
      <path d="M21.41 11.58L12.41 2.58C12.04 2.21 11.53 2 11 2H4C2.9 2 2 2.9 2 4V11C2 11.53 2.21 12.04 2.59 12.41L3 12.81C3.9 12.27 4.94 12 6 12C9.31 12 12 14.69 12 18C12 19.06 11.72 20.09 11.18 21L11.58 21.4C11.95 21.78 12.47 22 13 22S14.04 21.79 14.41 21.41L21.41 14.41C21.79 14.04 22 13.53 22 13S21.79 11.96 21.41 11.58M5.5 7C4.67 7 4 6.33 4 5.5S4.67 4 5.5 4 7 4.67 7 5.5 6.33 7 5.5 7M7 19V15H5V19H3L6 22L9 19H7Z" />
    </g>
    <g id="mdi-tag-arrow-down" transform="translate(684 252) scale(1.5)" fill="#fff">
      <path d="M21.41 11.58L12.41 2.58C12.04 2.21 11.53 2 11 2H4C2.9 2 2 2.9 2 4V11C2 11.53 2.21 12.04 2.59 12.41L3 12.81C3.9 12.27 4.94 12 6 12C9.31 12 12 14.69 12 18C12 19.06 11.72 20.09 11.18 21L11.58 21.4C11.95 21.78 12.47 22 13 22S14.04 21.79 14.41 21.41L21.41 14.41C21.79 14.04 22 13.53 22 13S21.79 11.96 21.41 11.58M5.5 7C4.67 7 4 6.33 4 5.5S4.67 4 5.5 4 7 4.67 7 5.5 6.33 7 5.5 7M7 19V15H5V19H3L6 22L9 19H7Z" />
    </g>
    <g id="mdi-tag-arrow-down-outline" transform="translate(0 288) scale(1.5)" fill="#555">
      <path d="M6.5 5C5.67 5 5 5.67 5 6.5S5.67 8 6.5 8 8 7.33 8 6.5 7.33 5 6.5 5M6.5 5C5.67 5 5 5.67 5 6.5S5.67 8 6.5 8 8 7.33 8 6.5 7.33 5 6.5 5M21.41 11.58L12.41 2.58C12.04 2.21 11.53 2 11 2H4C2.9 2 2 2.9 2 4V11C2 11.53 2.21 12.04 2.59 12.42L3 12.82C3.64 12.44 4.35 12.19 5.08 12.08L4 11V4H11L20 13L13 20L11.92 18.92C11.82 19.66 11.56 20.36 11.18 21L11.59 21.41C11.96 21.79 12.47 22 13 22C13.53 22 14.04 21.79 14.41 21.41L21.41 14.41C21.79 14.04 22 13.53 22 13C22 12.47 21.79 11.96 21.41 11.58M6.5 5C5.67 5 5 5.67 5 6.5S5.67 8 6.5 8 8 7.33 8 6.5 7.33 5 6.5 5M8 18V14H6V18H4L7 21L10 18H8Z" />
    </g>
    <g id="mdi-tag-arrow-down-outline" transform="translate(36 288) scale(1.5)" fill="#fff">
      <path d="M6.5 5C5.67 5 5 5.67 5 6.5S5.67 8 6.5 8 8 7.33 8 6.5 7.33 5 6.5 5M6.5 5C5.67 5 5 5.67 5 6.5S5.67 8 6.5 8 8 7.33 8 6.5 7.33 5 6.5 5M21.41 11.58L12.41 2.58C12.04 2.21 11.53 2 11 2H4C2.9 2 2 2.9 2 4V11C2 11.53 2.21 12.04 2.59 12.42L3 12.82C3.64 12.44 4.35 12.19 5.08 12.08L4 11V4H11L20 13L13 20L11.92 18.92C11.82 19.66 11.56 20.36 11.18 21L11.59 21.41C11.96 21.79 12.47 22 13 22C13.53 22 14.04 21.79 14.41 21.41L21.41 14.41C21.79 14.04 22 13.53 22 13C22 12.47 21.79 11.96 21.41 11.58M6.5 5C5.67 5 5 5.67 5 6.5S5.67 8 6.5 8 8 7.33 8 6.5 7.33 5 6.5 5M8 18V14H6V18H4L7 21L10 18H8Z" />
    </g>
    <g id="mdi-tag-arrow-left" transform="translate(72 288) scale(1.5)" fill="#555">
      <path d="M21.41 11.58L12.41 2.58C12.04 2.21 11.53 2 11 2H4C2.9 2 2 2.9 2 4V11C2 11.53 2.21 12.04 2.59 12.41L3 12.81C3.9 12.27 4.94 12 6 12C9.31 12 12 14.69 12 18C12 19.06 11.72 20.09 11.18 21L11.58 21.4C11.95 21.78 12.47 22 13 22S14.04 21.79 14.41 21.41L21.41 14.41C21.79 14.04 22 13.53 22 13S21.79 11.96 21.41 11.58M5.5 7C4.67 7 4 6.33 4 5.5S4.67 4 5.5 4 7 4.67 7 5.5 6.33 7 5.5 7M5 19H9V17H5V15L2 18L5 21V19Z" />
    </g>
    <g id="mdi-tag-arrow-left" transform="translate(108 288) scale(1.5)" fill="#fff">
      <path d="M21.41 11.58L12.41 2.58C12.04 2.21 11.53 2 11 2H4C2.9 2 2 2.9 2 4V11C2 11.53 2.21 12.04 2.59 12.41L3 12.81C3.9 12.27 4.94 12 6 12C9.31 12 12 14.69 12 18C12 19.06 11.72 20.09 11.18 21L11.58 21.4C11.95 21.78 12.47 22 13 22S14.04 21.79 14.41 21.41L21.41 14.41C21.79 14.04 22 13.53 22 13S21.79 11.96 21.41 11.58M5.5 7C4.67 7 4 6.33 4 5.5S4.67 4 5.5 4 7 4.67 7 5.5 6.33 7 5.5 7M5 19H9V17H5V15L2 18L5 21V19Z" />
    </g>
    <g id="mdi-tag-arrow-left-outline" transform="translate(144 288) scale(1.5)" fill="#555">
      <path d="M6.5 5C5.67 5 5 5.67 5 6.5S5.67 8 6.5 8 8 7.33 8 6.5 7.33 5 6.5 5M6.5 5C5.67 5 5 5.67 5 6.5S5.67 8 6.5 8 8 7.33 8 6.5 7.33 5 6.5 5M21.41 11.58L12.41 2.58C12.04 2.21 11.53 2 11 2H4C2.9 2 2 2.9 2 4V11C2 11.53 2.21 12.04 2.59 12.42L3 12.82C3.64 12.44 4.35 12.19 5.08 12.08L4 11V4H11L20 13L13 20L11.92 18.92C11.82 19.66 11.56 20.36 11.18 21L11.59 21.41C11.96 21.79 12.47 22 13 22C13.53 22 14.04 21.79 14.41 21.41L21.41 14.41C21.79 14.04 22 13.53 22 13C22 12.47 21.79 11.96 21.41 11.58M6.5 5C5.67 5 5 5.67 5 6.5S5.67 8 6.5 8 8 7.33 8 6.5 7.33 5 6.5 5M5 19H9V17H5V15L2 18L5 21V19Z" />
    </g>
    <g id="mdi-tag-arrow-left-outline" transform="translate(180 288) scale(1.5)" fill="#fff">
      <path d="M6.5 5C5.67 5 5 5.67 5 6.5S5.67 8 6.5 8 8 7.33 8 6.5 7.33 5 6.5 5M6.5 5C5.67 5 5 5.67 5 6.5S5.67 8 6.5 8 8 7.33 8 6.5 7.33 5 6.5 5M21.41 11.58L12.41 2.58C12.04 2.21 11.53 2 11 2H4C2.9 2 2 2.9 2 4V11C2 11.53 2.21 12.04 2.59 12.42L3 12.82C3.64 12.44 4.35 12.19 5.08 12.08L4 11V4H11L20 13L13 20L11.92 18.92C11.82 19.66 11.56 20.36 11.18 21L11.59 21.41C11.96 21.79 12.47 22 13 22C13.53 22 14.04 21.79 14.41 21.41L21.41 14.41C21.79 14.04 22 13.53 22 13C22 12.47 21.79 11.96 21.41 11.58M6.5 5C5.67 5 5 5.67 5 6.5S5.67 8 6.5 8 8 7.33 8 6.5 7.33 5 6.5 5M5 19H9V17H5V15L2 18L5 21V19Z" />
    </g>
    <g id="mdi-tag-arrow-right" transform="translate(216 288) scale(1.5)" fill="#555">
      <path d="M21.41 11.58L12.41 2.58C12.04 2.21 11.53 2 11 2H4C2.9 2 2 2.9 2 4V11C2 11.53 2.21 12.04 2.59 12.41L3 12.81C3.9 12.27 4.94 12 6 12C9.31 12 12 14.69 12 18C12 19.06 11.72 20.09 11.18 21L11.58 21.4C11.95 21.78 12.47 22 13 22S14.04 21.79 14.41 21.41L21.41 14.41C21.79 14.04 22 13.53 22 13S21.79 11.96 21.41 11.58M5.5 7C4.67 7 4 6.33 4 5.5S4.67 4 5.5 4 7 4.67 7 5.5 6.33 7 5.5 7M6 17H2V19H6V21L9 18L6 15V17Z" />
    </g>
    <g id="mdi-tag-arrow-right" transform="translate(252 288) scale(1.5)" fill="#fff">
      <path d="M21.41 11.58L12.41 2.58C12.04 2.21 11.53 2 11 2H4C2.9 2 2 2.9 2 4V11C2 11.53 2.21 12.04 2.59 12.41L3 12.81C3.9 12.27 4.94 12 6 12C9.31 12 12 14.69 12 18C12 19.06 11.72 20.09 11.18 21L11.58 21.4C11.95 21.78 12.47 22 13 22S14.04 21.79 14.41 21.41L21.41 14.41C21.79 14.04 22 13.53 22 13S21.79 11.96 21.41 11.58M5.5 7C4.67 7 4 6.33 4 5.5S4.67 4 5.5 4 7 4.67 7 5.5 6.33 7 5.5 7M6 17H2V19H6V21L9 18L6 15V17Z" />
    </g>
    <g id="mdi-tag-arrow-right-outline" transform="translate(288 288) scale(1.5)" fill="#555">
      <path d="M6.5 5C5.67 5 5 5.67 5 6.5S5.67 8 6.5 8 8 7.33 8 6.5 7.33 5 6.5 5M6.5 5C5.67 5 5 5.67 5 6.5S5.67 8 6.5 8 8 7.33 8 6.5 7.33 5 6.5 5M21.41 11.58L12.41 2.58C12.04 2.21 11.53 2 11 2H4C2.9 2 2 2.9 2 4V11C2 11.53 2.21 12.04 2.59 12.42L3 12.82C3.64 12.44 4.35 12.19 5.08 12.08L4 11V4H11L20 13L13 20L11.92 18.92C11.82 19.66 11.56 20.36 11.18 21L11.59 21.41C11.96 21.79 12.47 22 13 22C13.53 22 14.04 21.79 14.41 21.41L21.41 14.41C21.79 14.04 22 13.53 22 13C22 12.47 21.79 11.96 21.41 11.58M6.5 5C5.67 5 5 5.67 5 6.5S5.67 8 6.5 8 8 7.33 8 6.5 7.33 5 6.5 5M6 17H2V19H6V21L9 18L6 15V17Z" />
    </g>
    <g id="mdi-tag-arrow-right-outline" transform="translate(324 288) scale(1.5)" fill="#fff">
      <path d="M6.5 5C5.67 5 5 5.67 5 6.5S5.67 8 6.5 8 8 7.33 8 6.5 7.33 5 6.5 5M6.5 5C5.67 5 5 5.67 5 6.5S5.67 8 6.5 8 8 7.33 8 6.5 7.33 5 6.5 5M21.41 11.58L12.41 2.58C12.04 2.21 11.53 2 11 2H4C2.9 2 2 2.9 2 4V11C2 11.53 2.21 12.04 2.59 12.42L3 12.82C3.64 12.44 4.35 12.19 5.08 12.08L4 11V4H11L20 13L13 20L11.92 18.92C11.82 19.66 11.56 20.36 11.18 21L11.59 21.41C11.96 21.79 12.47 22 13 22C13.53 22 14.04 21.79 14.41 21.41L21.41 14.41C21.79 14.04 22 13.53 22 13C22 12.47 21.79 11.96 21.41 11.58M6.5 5C5.67 5 5 5.67 5 6.5S5.67 8 6.5 8 8 7.33 8 6.5 7.33 5 6.5 5M6 17H2V19H6V21L9 18L6 15V17Z" />
    </g>
    <g id="mdi-tag-arrow-up" transform="translate(360 288) scale(1.5)" fill="#555">
      <path d="M21.41 11.58L12.41 2.58C12.04 2.21 11.53 2 11 2H4C2.9 2 2 2.9 2 4V11C2 11.53 2.21 12.04 2.59 12.41L3 12.81C3.9 12.27 4.94 12 6 12C9.31 12 12 14.69 12 18C12 19.06 11.72 20.09 11.18 21L11.58 21.4C11.95 21.78 12.47 22 13 22S14.04 21.79 14.41 21.41L21.41 14.41C21.79 14.04 22 13.53 22 13S21.79 11.96 21.41 11.58M5.5 7C4.67 7 4 6.33 4 5.5S4.67 4 5.5 4 7 4.67 7 5.5 6.33 7 5.5 7M5 17V21H7V17H9L6 14L3 17H5Z" />
    </g>
    <g id="mdi-tag-arrow-up" transform="translate(396 288) scale(1.5)" fill="#fff">
      <path d="M21.41 11.58L12.41 2.58C12.04 2.21 11.53 2 11 2H4C2.9 2 2 2.9 2 4V11C2 11.53 2.21 12.04 2.59 12.41L3 12.81C3.9 12.27 4.94 12 6 12C9.31 12 12 14.69 12 18C12 19.06 11.72 20.09 11.18 21L11.58 21.4C11.95 21.78 12.47 22 13 22S14.04 21.79 14.41 21.41L21.41 14.41C21.79 14.04 22 13.53 22 13S21.79 11.96 21.41 11.58M5.5 7C4.67 7 4 6.33 4 5.5S4.67 4 5.5 4 7 4.67 7 5.5 6.33 7 5.5 7M5 17V21H7V17H9L6 14L3 17H5Z" />
    </g>
    <g id="mdi-tag-arrow-up-outline" transform="translate(432 288) scale(1.5)" fill="#555">
      <path d="M6.5 5C5.67 5 5 5.67 5 6.5S5.67 8 6.5 8 8 7.33 8 6.5 7.33 5 6.5 5M6.5 5C5.67 5 5 5.67 5 6.5S5.67 8 6.5 8 8 7.33 8 6.5 7.33 5 6.5 5M21.41 11.58L12.41 2.58C12.04 2.21 11.53 2 11 2H4C2.9 2 2 2.9 2 4V11C2 11.53 2.21 12.04 2.59 12.42L3 12.82C3.64 12.44 4.35 12.19 5.08 12.08L4 11V4H11L20 13L13 20L11.92 18.92C11.82 19.66 11.56 20.36 11.18 21L11.59 21.41C11.96 21.79 12.47 22 13 22C13.53 22 14.04 21.79 14.41 21.41L21.41 14.41C21.79 14.04 22 13.53 22 13C22 12.47 21.79 11.96 21.41 11.58M6.5 5C5.67 5 5 5.67 5 6.5S5.67 8 6.5 8 8 7.33 8 6.5 7.33 5 6.5 5M6 17V21H8V17H10L7 14L4 17H6Z" />
    </g>
    <g id="mdi-tag-arrow-up-outline" transform="translate(468 288) scale(1.5)" fill="#fff">
      <path d="M6.5 5C5.67 5 5 5.67 5 6.5S5.67 8 6.5 8 8 7.33 8 6.5 7.33 5 6.5 5M6.5 5C5.67 5 5 5.67 5 6.5S5.67 8 6.5 8 8 7.33 8 6.5 7.33 5 6.5 5M21.41 11.58L12.41 2.58C12.04 2.21 11.53 2 11 2H4C2.9 2 2 2.9 2 4V11C2 11.53 2.21 12.04 2.59 12.42L3 12.82C3.64 12.44 4.35 12.19 5.08 12.08L4 11V4H11L20 13L13 20L11.92 18.92C11.82 19.66 11.56 20.36 11.18 21L11.59 21.41C11.96 21.79 12.47 22 13 22C13.53 22 14.04 21.79 14.41 21.41L21.41 14.41C21.79 14.04 22 13.53 22 13C22 12.47 21.79 11.96 21.41 11.58M6.5 5C5.67 5 5 5.67 5 6.5S5.67 8 6.5 8 8 7.33 8 6.5 7.33 5 6.5 5M6 17V21H8V17H10L7 14L4 17H6Z" />
    </g>
    <g id="mdi-tag-faces" transform="translate(504 288) scale(1.5)" fill="#555">
      <path d="M15,18C11.68,18 9,15.31 9,12C9,8.68 11.68,6 15,6A6,6 0 0,1 21,12A6,6 0 0,1 15,18M4,13A1,1 0 0,1 3,12A1,1 0 0,1 4,11A1,1 0 0,1 5,12A1,1 0 0,1 4,13M22,3H7.63C6.97,3 6.38,3.32 6,3.81L0,12L6,20.18C6.38,20.68 6.97,21 7.63,21H22A2,2 0 0,0 24,19V5C24,3.89 23.1,3 22,3M13,11A1,1 0 0,0 14,10A1,1 0 0,0 13,9A1,1 0 0,0 12,10A1,1 0 0,0 13,11M15,16C16.86,16 18.35,14.72 18.8,13H11.2C11.65,14.72 13.14,16 15,16M17,11A1,1 0 0,0 18,10A1,1 0 0,0 17,9A1,1 0 0,0 16,10A1,1 0 0,0 17,11Z" />
    </g>
    <g id="mdi-tag-faces" transform="translate(540 288) scale(1.5)" fill="#fff">
      <path d="M15,18C11.68,18 9,15.31 9,12C9,8.68 11.68,6 15,6A6,6 0 0,1 21,12A6,6 0 0,1 15,18M4,13A1,1 0 0,1 3,12A1,1 0 0,1 4,11A1,1 0 0,1 5,12A1,1 0 0,1 4,13M22,3H7.63C6.97,3 6.38,3.32 6,3.81L0,12L6,20.18C6.38,20.68 6.97,21 7.63,21H22A2,2 0 0,0 24,19V5C24,3.89 23.1,3 22,3M13,11A1,1 0 0,0 14,10A1,1 0 0,0 13,9A1,1 0 0,0 12,10A1,1 0 0,0 13,11M15,16C16.86,16 18.35,14.72 18.8,13H11.2C11.65,14.72 13.14,16 15,16M17,11A1,1 0 0,0 18,10A1,1 0 0,0 17,9A1,1 0 0,0 16,10A1,1 0 0,0 17,11Z" />
    </g>
    <g id="mdi-tag-heart" transform="translate(576 288) scale(1.5)" fill="#555">
      <path d="M21.41,11.58L12.41,2.58C12.05,2.22 11.55,2 11,2H4A2,2 0 0,0 2,4V11C2,11.55 2.22,12.05 2.59,12.42L11.59,21.42C11.95,21.78 12.45,22 13,22C13.55,22 14.05,21.78 14.41,21.41L21.41,14.41C21.78,14.05 22,13.55 22,13C22,12.45 21.77,11.94 21.41,11.58M5.5,7A1.5,1.5 0 0,1 4,5.5A1.5,1.5 0 0,1 5.5,4A1.5,1.5 0 0,1 7,5.5A1.5,1.5 0 0,1 5.5,7M17.27,15.27L13,19.54L8.73,15.27C8.28,14.81 8,14.19 8,13.5A2.5,2.5 0 0,1 10.5,11C11.19,11 11.82,11.28 12.27,11.74L13,12.46L13.73,11.73C14.18,11.28 14.81,11 15.5,11A2.5,2.5 0 0,1 18,13.5C18,14.19 17.72,14.82 17.27,15.27Z" />
    </g>
    <g id="mdi-tag-heart" transform="translate(612 288) scale(1.5)" fill="#fff">
      <path d="M21.41,11.58L12.41,2.58C12.05,2.22 11.55,2 11,2H4A2,2 0 0,0 2,4V11C2,11.55 2.22,12.05 2.59,12.42L11.59,21.42C11.95,21.78 12.45,22 13,22C13.55,22 14.05,21.78 14.41,21.41L21.41,14.41C21.78,14.05 22,13.55 22,13C22,12.45 21.77,11.94 21.41,11.58M5.5,7A1.5,1.5 0 0,1 4,5.5A1.5,1.5 0 0,1 5.5,4A1.5,1.5 0 0,1 7,5.5A1.5,1.5 0 0,1 5.5,7M17.27,15.27L13,19.54L8.73,15.27C8.28,14.81 8,14.19 8,13.5A2.5,2.5 0 0,1 10.5,11C11.19,11 11.82,11.28 12.27,11.74L13,12.46L13.73,11.73C14.18,11.28 14.81,11 15.5,11A2.5,2.5 0 0,1 18,13.5C18,14.19 17.72,14.82 17.27,15.27Z" />
    </g>
    <g id="mdi-tag-heart-outline" transform="translate(648 288) scale(1.5)" fill="#555">
      <path d="M4,2A2,2 0 0,0 2,4V11C2,11.55 2.22,12.05 2.59,12.42L11.59,21.42C11.95,21.78 12.45,22 13,22C13.55,22 14.05,21.78 14.41,21.41L21.41,14.41C21.78,14.05 22,13.55 22,13C22,12.45 21.77,11.94 21.41,11.58L12.41,2.58C12.05,2.22 11.55,2 11,2H4V2M11,4L20,13L13,20L4,11V4H11V4H11M6.5,5A1.5,1.5 0 0,0 5,6.5A1.5,1.5 0 0,0 6.5,8A1.5,1.5 0 0,0 8,6.5A1.5,1.5 0 0,0 6.5,5M10.95,10.5C9.82,10.5 8.9,11.42 8.9,12.55C8.9,13.12 9.13,13.62 9.5,14L13,17.5L16.5,14C16.87,13.63 17.1,13.11 17.1,12.55A2.05,2.05 0 0,0 15.05,10.5C14.5,10.5 13.97,10.73 13.6,11.1L13,11.7L12.4,11.11C12.03,10.73 11.5,10.5 10.95,10.5Z" />
    </g>
    <g id="mdi-tag-heart-outline" transform="translate(684 288) scale(1.5)" fill="#fff">
      <path d="M4,2A2,2 0 0,0 2,4V11C2,11.55 2.22,12.05 2.59,12.42L11.59,21.42C11.95,21.78 12.45,22 13,22C13.55,22 14.05,21.78 14.41,21.41L21.41,14.41C21.78,14.05 22,13.55 22,13C22,12.45 21.77,11.94 21.41,11.58L12.41,2.58C12.05,2.22 11.55,2 11,2H4V2M11,4L20,13L13,20L4,11V4H11V4H11M6.5,5A1.5,1.5 0 0,0 5,6.5A1.5,1.5 0 0,0 6.5,8A1.5,1.5 0 0,0 8,6.5A1.5,1.5 0 0,0 6.5,5M10.95,10.5C9.82,10.5 8.9,11.42 8.9,12.55C8.9,13.12 9.13,13.62 9.5,14L13,17.5L16.5,14C16.87,13.63 17.1,13.11 17.1,12.55A2.05,2.05 0 0,0 15.05,10.5C14.5,10.5 13.97,10.73 13.6,11.1L13,11.7L12.4,11.11C12.03,10.73 11.5,10.5 10.95,10.5Z" />
    </g>
    <g id="mdi-tag-minus" transform="translate(0 324) scale(1.5)" fill="#555">
      <path d="M21.41,11.58L12.41,2.58C12.04,2.21 11.53,2 11,2H4A2,2 0 0,0 2,4V11C2,11.53 2.21,12.04 2.59,12.41L3,12.81C3.9,12.27 4.94,12 6,12A6,6 0 0,1 12,18C12,19.06 11.72,20.09 11.18,21L11.58,21.4C11.95,21.78 12.47,22 13,22C13.53,22 14.04,21.79 14.41,21.41L21.41,14.41C21.79,14.04 22,13.53 22,13C22,12.47 21.79,11.96 21.41,11.58M5.5,7A1.5,1.5 0 0,1 4,5.5A1.5,1.5 0 0,1 5.5,4A1.5,1.5 0 0,1 7,5.5A1.5,1.5 0 0,1 5.5,7M10,19H2V17H10V19Z" />
    </g>
    <g id="mdi-tag-minus" transform="translate(36 324) scale(1.5)" fill="#fff">
      <path d="M21.41,11.58L12.41,2.58C12.04,2.21 11.53,2 11,2H4A2,2 0 0,0 2,4V11C2,11.53 2.21,12.04 2.59,12.41L3,12.81C3.9,12.27 4.94,12 6,12A6,6 0 0,1 12,18C12,19.06 11.72,20.09 11.18,21L11.58,21.4C11.95,21.78 12.47,22 13,22C13.53,22 14.04,21.79 14.41,21.41L21.41,14.41C21.79,14.04 22,13.53 22,13C22,12.47 21.79,11.96 21.41,11.58M5.5,7A1.5,1.5 0 0,1 4,5.5A1.5,1.5 0 0,1 5.5,4A1.5,1.5 0 0,1 7,5.5A1.5,1.5 0 0,1 5.5,7M10,19H2V17H10V19Z" />
    </g>
    <g id="mdi-tag-minus-outline" transform="translate(72 324) scale(1.5)" fill="#555">
      <path d="M6.5 5C5.67 5 5 5.67 5 6.5S5.67 8 6.5 8 8 7.33 8 6.5 7.33 5 6.5 5M6.5 5C5.67 5 5 5.67 5 6.5S5.67 8 6.5 8 8 7.33 8 6.5 7.33 5 6.5 5M21.41 11.58L12.41 2.58C12.04 2.21 11.53 2 11 2H4C2.9 2 2 2.9 2 4V11C2 11.53 2.21 12.04 2.59 12.42L3 12.82C3.64 12.44 4.35 12.19 5.08 12.08L4 11V4H11L20 13L13 20L11.92 18.92C11.82 19.66 11.56 20.36 11.18 21L11.59 21.41C11.96 21.79 12.47 22 13 22C13.53 22 14.04 21.79 14.41 21.41L21.41 14.41C21.79 14.04 22 13.53 22 13C22 12.47 21.79 11.96 21.41 11.58M6.5 5C5.67 5 5 5.67 5 6.5S5.67 8 6.5 8 8 7.33 8 6.5 7.33 5 6.5 5M10 19H2V17H10V19Z" />
    </g>
    <g id="mdi-tag-minus-outline" transform="translate(108 324) scale(1.5)" fill="#fff">
      <path d="M6.5 5C5.67 5 5 5.67 5 6.5S5.67 8 6.5 8 8 7.33 8 6.5 7.33 5 6.5 5M6.5 5C5.67 5 5 5.67 5 6.5S5.67 8 6.5 8 8 7.33 8 6.5 7.33 5 6.5 5M21.41 11.58L12.41 2.58C12.04 2.21 11.53 2 11 2H4C2.9 2 2 2.9 2 4V11C2 11.53 2.21 12.04 2.59 12.42L3 12.82C3.64 12.44 4.35 12.19 5.08 12.08L4 11V4H11L20 13L13 20L11.92 18.92C11.82 19.66 11.56 20.36 11.18 21L11.59 21.41C11.96 21.79 12.47 22 13 22C13.53 22 14.04 21.79 14.41 21.41L21.41 14.41C21.79 14.04 22 13.53 22 13C22 12.47 21.79 11.96 21.41 11.58M6.5 5C5.67 5 5 5.67 5 6.5S5.67 8 6.5 8 8 7.33 8 6.5 7.33 5 6.5 5M10 19H2V17H10V19Z" />
    </g>
    <g id="mdi-tag-multiple" transform="translate(144 324) scale(1.5)" fill="#555">
      <path d="M5.5,9A1.5,1.5 0 0,0 7,7.5A1.5,1.5 0 0,0 5.5,6A1.5,1.5 0 0,0 4,7.5A1.5,1.5 0 0,0 5.5,9M17.41,11.58C17.77,11.94 18,12.44 18,13C18,13.55 17.78,14.05 17.41,14.41L12.41,19.41C12.05,19.77 11.55,20 11,20C10.45,20 9.95,19.78 9.58,19.41L2.59,12.42C2.22,12.05 2,11.55 2,11V6C2,4.89 2.89,4 4,4H9C9.55,4 10.05,4.22 10.41,4.58L17.41,11.58M13.54,5.71L14.54,4.71L21.41,11.58C21.78,11.94 22,12.45 22,13C22,13.55 21.78,14.05 21.42,14.41L16.04,19.79L15.04,18.79L20.75,13L13.54,5.71Z" />
    </g>
    <g id="mdi-tag-multiple" transform="translate(180 324) scale(1.5)" fill="#fff">
      <path d="M5.5,9A1.5,1.5 0 0,0 7,7.5A1.5,1.5 0 0,0 5.5,6A1.5,1.5 0 0,0 4,7.5A1.5,1.5 0 0,0 5.5,9M17.41,11.58C17.77,11.94 18,12.44 18,13C18,13.55 17.78,14.05 17.41,14.41L12.41,19.41C12.05,19.77 11.55,20 11,20C10.45,20 9.95,19.78 9.58,19.41L2.59,12.42C2.22,12.05 2,11.55 2,11V6C2,4.89 2.89,4 4,4H9C9.55,4 10.05,4.22 10.41,4.58L17.41,11.58M13.54,5.71L14.54,4.71L21.41,11.58C21.78,11.94 22,12.45 22,13C22,13.55 21.78,14.05 21.42,14.41L16.04,19.79L15.04,18.79L20.75,13L13.54,5.71Z" />
    </g>
    <g id="mdi-tag-multiple-outline" transform="translate(216 324) scale(1.5)" fill="#555">
      <path d="M6.5 10C7.3 10 8 9.3 8 8.5S7.3 7 6.5 7 5 7.7 5 8.5 5.7 10 6.5 10M9 6L16 13L11 18L4 11V6H9M9 4H4C2.9 4 2 4.9 2 6V11C2 11.6 2.2 12.1 2.6 12.4L9.6 19.4C9.9 19.8 10.4 20 11 20S12.1 19.8 12.4 19.4L17.4 14.4C17.8 14 18 13.5 18 13C18 12.4 17.8 11.9 17.4 11.6L10.4 4.6C10.1 4.2 9.6 4 9 4M13.5 5.7L14.5 4.7L21.4 11.6C21.8 12 22 12.5 22 13S21.8 14.1 21.4 14.4L16 19.8L15 18.8L20.7 13L13.5 5.7Z" />
    </g>
    <g id="mdi-tag-multiple-outline" transform="translate(252 324) scale(1.5)" fill="#fff">
      <path d="M6.5 10C7.3 10 8 9.3 8 8.5S7.3 7 6.5 7 5 7.7 5 8.5 5.7 10 6.5 10M9 6L16 13L11 18L4 11V6H9M9 4H4C2.9 4 2 4.9 2 6V11C2 11.6 2.2 12.1 2.6 12.4L9.6 19.4C9.9 19.8 10.4 20 11 20S12.1 19.8 12.4 19.4L17.4 14.4C17.8 14 18 13.5 18 13C18 12.4 17.8 11.9 17.4 11.6L10.4 4.6C10.1 4.2 9.6 4 9 4M13.5 5.7L14.5 4.7L21.4 11.6C21.8 12 22 12.5 22 13S21.8 14.1 21.4 14.4L16 19.8L15 18.8L20.7 13L13.5 5.7Z" />
    </g>
    <g id="mdi-tag-off" transform="translate(288 324) scale(1.5)" fill="#555">
      <path d="M18.33 8.5L22.92 3.92L21.5 2.5L2.5 21.5L3.92 22.92L8.5 18.33L11.58 21.41A2 2 0 0 0 13 22A2 2 0 0 0 14.41 21.41L21.41 14.41A2 2 0 0 0 22 13A2 2 0 0 0 21.41 11.58M5.61 15.43L15.47 5.65L12.41 2.58A2 2 0 0 0 11 2H4A2 2 0 0 0 2 4V11A2 2 0 0 0 2.59 12.41M5.5 4A1.5 1.5 0 1 1 4 5.5A1.5 1.5 0 0 1 5.5 4Z" />
    </g>
    <g id="mdi-tag-off" transform="translate(324 324) scale(1.5)" fill="#fff">
      <path d="M18.33 8.5L22.92 3.92L21.5 2.5L2.5 21.5L3.92 22.92L8.5 18.33L11.58 21.41A2 2 0 0 0 13 22A2 2 0 0 0 14.41 21.41L21.41 14.41A2 2 0 0 0 22 13A2 2 0 0 0 21.41 11.58M5.61 15.43L15.47 5.65L12.41 2.58A2 2 0 0 0 11 2H4A2 2 0 0 0 2 4V11A2 2 0 0 0 2.59 12.41M5.5 4A1.5 1.5 0 1 1 4 5.5A1.5 1.5 0 0 1 5.5 4Z" />
    </g>
    <g id="mdi-tag-off-outline" transform="translate(360 324) scale(1.5)" fill="#555">
      <path d="M6.5 5A1.5 1.5 0 1 0 8 6.5A1.5 1.5 0 0 0 6.5 5M6.5 5A1.5 1.5 0 1 0 8 6.5A1.5 1.5 0 0 0 6.5 5M18.33 8.5L22.92 3.92L21.5 2.5L2.5 21.5L3.92 22.92L8.5 18.33L11.59 21.42A2 2 0 0 0 13 22A2 2 0 0 0 14.41 21.41L21.41 14.41A2 2 0 0 0 22 13A2 2 0 0 0 21.41 11.58M13 20L9.92 16.92L16.92 9.92L20 13M5.61 15.43L7 14L4 11V4H11L14.06 7.06L15.47 5.66L12.41 2.58A2 2 0 0 0 11 2H4A2 2 0 0 0 2 4V11A2 2 0 0 0 2.59 12.42M5 6.5A1.5 1.5 0 1 0 6.5 5A1.5 1.5 0 0 0 5 6.5Z" />
    </g>
    <g id="mdi-tag-off-outline" transform="translate(396 324) scale(1.5)" fill="#fff">
      <path d="M6.5 5A1.5 1.5 0 1 0 8 6.5A1.5 1.5 0 0 0 6.5 5M6.5 5A1.5 1.5 0 1 0 8 6.5A1.5 1.5 0 0 0 6.5 5M18.33 8.5L22.92 3.92L21.5 2.5L2.5 21.5L3.92 22.92L8.5 18.33L11.59 21.42A2 2 0 0 0 13 22A2 2 0 0 0 14.41 21.41L21.41 14.41A2 2 0 0 0 22 13A2 2 0 0 0 21.41 11.58M13 20L9.92 16.92L16.92 9.92L20 13M5.61 15.43L7 14L4 11V4H11L14.06 7.06L15.47 5.66L12.41 2.58A2 2 0 0 0 11 2H4A2 2 0 0 0 2 4V11A2 2 0 0 0 2.59 12.42M5 6.5A1.5 1.5 0 1 0 6.5 5A1.5 1.5 0 0 0 5 6.5Z" />
    </g>
    <g id="mdi-tag-outline" transform="translate(432 324) scale(1.5)" fill="#555">
      <path d="M21.41 11.58L12.41 2.58A2 2 0 0 0 11 2H4A2 2 0 0 0 2 4V11A2 2 0 0 0 2.59 12.42L11.59 21.42A2 2 0 0 0 13 22A2 2 0 0 0 14.41 21.41L21.41 14.41A2 2 0 0 0 22 13A2 2 0 0 0 21.41 11.58M13 20L4 11V4H11L20 13M6.5 5A1.5 1.5 0 1 1 5 6.5A1.5 1.5 0 0 1 6.5 5Z" />
    </g>
    <g id="mdi-tag-outline" transform="translate(468 324) scale(1.5)" fill="#fff">
      <path d="M21.41 11.58L12.41 2.58A2 2 0 0 0 11 2H4A2 2 0 0 0 2 4V11A2 2 0 0 0 2.59 12.42L11.59 21.42A2 2 0 0 0 13 22A2 2 0 0 0 14.41 21.41L21.41 14.41A2 2 0 0 0 22 13A2 2 0 0 0 21.41 11.58M13 20L4 11V4H11L20 13M6.5 5A1.5 1.5 0 1 1 5 6.5A1.5 1.5 0 0 1 6.5 5Z" />
    </g>
    <g id="mdi-tag-plus" transform="translate(504 324) scale(1.5)" fill="#555">
      <path d="M21.41,11.58L12.41,2.58C12.04,2.21 11.53,2 11,2H4A2,2 0 0,0 2,4V11C2,11.53 2.21,12.04 2.59,12.41L3,12.81C3.9,12.27 4.94,12 6,12A6,6 0 0,1 12,18C12,19.06 11.72,20.09 11.18,21L11.58,21.4C11.95,21.78 12.47,22 13,22C13.53,22 14.04,21.79 14.41,21.41L21.41,14.41C21.79,14.04 22,13.53 22,13C22,12.47 21.79,11.96 21.41,11.58M5.5,7A1.5,1.5 0 0,1 4,5.5A1.5,1.5 0 0,1 5.5,4A1.5,1.5 0 0,1 7,5.5A1.5,1.5 0 0,1 5.5,7M10,19H7V22H5V19H2V17H5V14H7V17H10V19Z" />
    </g>
    <g id="mdi-tag-plus" transform="translate(540 324) scale(1.5)" fill="#fff">
      <path d="M21.41,11.58L12.41,2.58C12.04,2.21 11.53,2 11,2H4A2,2 0 0,0 2,4V11C2,11.53 2.21,12.04 2.59,12.41L3,12.81C3.9,12.27 4.94,12 6,12A6,6 0 0,1 12,18C12,19.06 11.72,20.09 11.18,21L11.58,21.4C11.95,21.78 12.47,22 13,22C13.53,22 14.04,21.79 14.41,21.41L21.41,14.41C21.79,14.04 22,13.53 22,13C22,12.47 21.79,11.96 21.41,11.58M5.5,7A1.5,1.5 0 0,1 4,5.5A1.5,1.5 0 0,1 5.5,4A1.5,1.5 0 0,1 7,5.5A1.5,1.5 0 0,1 5.5,7M10,19H7V22H5V19H2V17H5V14H7V17H10V19Z" />
    </g>
    <g id="mdi-tag-plus-outline" transform="translate(576 324) scale(1.5)" fill="#555">
      <path d="M6.5 5A1.5 1.5 0 1 0 8 6.5A1.5 1.5 0 0 0 6.5 5M6.5 5A1.5 1.5 0 1 0 8 6.5A1.5 1.5 0 0 0 6.5 5M21.41 11.58L12.41 2.58A2 2 0 0 0 11 2H4A2 2 0 0 0 2 4V11A2 2 0 0 0 2.59 12.42L3 12.82A5.62 5.62 0 0 1 5.08 12.08L4 11V4H11L20 13L13 20L11.92 18.92A5.57 5.57 0 0 1 11.18 21L11.59 21.41A2 2 0 0 0 13 22A2 2 0 0 0 14.41 21.41L21.41 14.41A2 2 0 0 0 22 13A2 2 0 0 0 21.41 11.58M6.5 5A1.5 1.5 0 1 0 8 6.5A1.5 1.5 0 0 0 6.5 5M10 19H7V22H5V19H2V17H5V14H7V17H10Z" />
    </g>
    <g id="mdi-tag-plus-outline" transform="translate(612 324) scale(1.5)" fill="#fff">
      <path d="M6.5 5A1.5 1.5 0 1 0 8 6.5A1.5 1.5 0 0 0 6.5 5M6.5 5A1.5 1.5 0 1 0 8 6.5A1.5 1.5 0 0 0 6.5 5M21.41 11.58L12.41 2.58A2 2 0 0 0 11 2H4A2 2 0 0 0 2 4V11A2 2 0 0 0 2.59 12.42L3 12.82A5.62 5.62 0 0 1 5.08 12.08L4 11V4H11L20 13L13 20L11.92 18.92A5.57 5.57 0 0 1 11.18 21L11.59 21.41A2 2 0 0 0 13 22A2 2 0 0 0 14.41 21.41L21.41 14.41A2 2 0 0 0 22 13A2 2 0 0 0 21.41 11.58M6.5 5A1.5 1.5 0 1 0 8 6.5A1.5 1.5 0 0 0 6.5 5M10 19H7V22H5V19H2V17H5V14H7V17H10Z" />
    </g>
    <g id="mdi-tag-remove" transform="translate(648 324) scale(1.5)" fill="#555">
      <path d="M21.41,11.58L12.41,2.58C12.04,2.21 11.53,2 11,2H4A2,2 0 0,0 2,4V11C2,11.53 2.21,12.04 2.59,12.41L3,12.81C3.9,12.27 4.94,12 6,12A6,6 0 0,1 12,18C12,19.06 11.72,20.09 11.18,21L11.58,21.4C11.95,21.78 12.47,22 13,22C13.53,22 14.04,21.79 14.41,21.41L21.41,14.41C21.79,14.04 22,13.53 22,13C22,12.47 21.79,11.96 21.41,11.58M5.5,7A1.5,1.5 0 0,1 4,5.5A1.5,1.5 0 0,1 5.5,4A1.5,1.5 0 0,1 7,5.5A1.5,1.5 0 0,1 5.5,7M8.12,21.54L6,19.41L3.88,21.54L2.46,20.12L4.59,18L2.46,15.88L3.87,14.47L6,16.59L8.12,14.47L9.53,15.88L7.41,18L9.53,20.12L8.12,21.54Z" />
    </g>
    <g id="mdi-tag-remove" transform="translate(684 324) scale(1.5)" fill="#fff">
      <path d="M21.41,11.58L12.41,2.58C12.04,2.21 11.53,2 11,2H4A2,2 0 0,0 2,4V11C2,11.53 2.21,12.04 2.59,12.41L3,12.81C3.9,12.27 4.94,12 6,12A6,6 0 0,1 12,18C12,19.06 11.72,20.09 11.18,21L11.58,21.4C11.95,21.78 12.47,22 13,22C13.53,22 14.04,21.79 14.41,21.41L21.41,14.41C21.79,14.04 22,13.53 22,13C22,12.47 21.79,11.96 21.41,11.58M5.5,7A1.5,1.5 0 0,1 4,5.5A1.5,1.5 0 0,1 5.5,4A1.5,1.5 0 0,1 7,5.5A1.5,1.5 0 0,1 5.5,7M8.12,21.54L6,19.41L3.88,21.54L2.46,20.12L4.59,18L2.46,15.88L3.87,14.47L6,16.59L8.12,14.47L9.53,15.88L7.41,18L9.53,20.12L8.12,21.54Z" />
    </g>
  </svg>