<svg xmlns="http://www.w3.org/2000/svg" width="720" height="900"><path d="M19.5 5.5v13h-2v-13h2m-7 5v8h-2v-8h2M21 4h-5v16h5V4m-7 5H9v11h5V9m-7 5H2v6h5v-6Z" transform="translate(216) scale(1.5)" id="mdi-signal-cellular-1" fill="#555"/><path d="M19.5 5.5v13h-2v-13h2m-7 5v8h-2v-8h2M21 4h-5v16h5V4m-7 5H9v11h5V9m-7 5H2v6h5v-6Z" transform="translate(252) scale(1.5)" id="mdi-signal-cellular-1" fill="#fff"/><path d="M19.5 5.5v13h-2v-13h2M21 4h-5v16h5V4m-7 5H9v11h5V9m-7 5H2v6h5v-6Z" transform="translate(288) scale(1.5)" id="mdi-signal-cellular-2" fill="#555"/><path d="M19.5 5.5v13h-2v-13h2M21 4h-5v16h5V4m-7 5H9v11h5V9m-7 5H2v6h5v-6Z" transform="translate(324) scale(1.5)" id="mdi-signal-cellular-2" fill="#fff"/><path d="M21 4h-5v16h5V4m-7 5H9v11h5V9m-7 5H2v6h5v-6Z" transform="translate(360) scale(1.5)" id="mdi-signal-cellular-3" fill="#555"/><path d="M21 4h-5v16h5V4m-7 5H9v11h5V9m-7 5H2v6h5v-6Z" transform="translate(396) scale(1.5)" id="mdi-signal-cellular-3" fill="#fff"/><path d="M19.5 5.5v13h-2v-13h2m-7 5v8h-2v-8h2m-7 5v3h-2v-3h2M21 4h-5v16h5V4m-7 5H9v11h5V9m-7 5H2v6h5v-6Z" transform="translate(432) scale(1.5)" id="mdi-signal-cellular-outline" fill="#555"/><path d="M19.5 5.5v13h-2v-13h2m-7 5v8h-2v-8h2m-7 5v3h-2v-3h2M21 4h-5v16h5V4m-7 5H9v11h5V9m-7 5H2v6h5v-6Z" transform="translate(468) scale(1.5)" id="mdi-signal-cellular-outline" fill="#fff"/><path d="M4 6V4a12 12 0 0 1 12 12h-2A10 10 0 0 0 4 6m0 4V8a8 8 0 0 1 8 8h-2a6 6 0 0 0-6-6m0 2a4 4 0 0 1 4 4H4v-4m-1 6h16v-2l3 3-3 3v-2H3v-2Z" transform="translate(504) scale(1.5)" id="mdi-signal-distance-variant" fill="#555"/><path d="M4 6V4a12 12 0 0 1 12 12h-2A10 10 0 0 0 4 6m0 4V8a8 8 0 0 1 8 8h-2a6 6 0 0 0-6-6m0 2a4 4 0 0 1 4 4H4v-4m-1 6h16v-2l3 3-3 3v-2H3v-2Z" transform="translate(540) scale(1.5)" id="mdi-signal-distance-variant" fill="#fff"/><path d="M10.5 10.5h3v-6h3v15h-3v-6h-3v6h-3v-15h3v6Z" transform="translate(576) scale(1.5)" id="mdi-signal-hspa" fill="#555"/><path d="M10.5 10.5h3v-6h3v15h-3v-6h-3v6h-3v-15h3v6Z" transform="translate(612) scale(1.5)" id="mdi-signal-hspa" fill="#fff"/><path d="M19 8v3h3v3h-3v3h-3v-3h-3v-3h3V8h3M5 10.5h3v-6h3v15H8v-6H5v6H2v-15h3v6Z" transform="translate(648) scale(1.5)" id="mdi-signal-hspa-plus" fill="#555"/><path d="M19 8v3h3v3h-3v3h-3v-3h-3v-3h3V8h3M5 10.5h3v-6h3v15H8v-6H5v6H2v-15h3v6Z" transform="translate(684) scale(1.5)" id="mdi-signal-hspa-plus" fill="#fff"/><path d="M18 3v13.18l3 3V3h-3M4.28 5 3 6.27 10.73 14H8v7h3v-6.73l2 2V21h3v-1.73L19.73 23 21 21.72 4.28 5M13 9v2.18l3 3V9h-3M3 18v3h3v-3H3Z" transform="matrix(1.5 0 0 1.5 0 36)" id="mdi-signal-off" fill="#555"/><path d="M18 3v13.18l3 3V3h-3M4.28 5 3 6.27 10.73 14H8v7h3v-6.73l2 2V21h3v-1.73L19.73 23 21 21.72 4.28 5M13 9v2.18l3 3V9h-3M3 18v3h3v-3H3Z" transform="matrix(1.5 0 0 1.5 36 36)" id="mdi-signal-off" fill="#fff"/><path d="M4 6V4h.1C12.9 4 20 11.1 20 19.9v.1h-2v-.1C18 12.2 11.8 6 4 6m0 4V8a12 12 0 0 1 12 12h-2A10 10 0 0 0 4 10m0 4v-2a8 8 0 0 1 8 8h-2a6 6 0 0 0-6-6m0 2a4 4 0 0 1 4 4H4v-4Z" transform="matrix(1.5 0 0 1.5 72 36)" id="mdi-signal-variant" fill="#555"/><path d="M4 6V4h.1C12.9 4 20 11.1 20 19.9v.1h-2v-.1C18 12.2 11.8 6 4 6m0 4V8a12 12 0 0 1 12 12h-2A10 10 0 0 0 4 10m0 4v-2a8 8 0 0 1 8 8h-2a6 6 0 0 0-6-6m0 2a4 4 0 0 1 4 4H4v-4Z" transform="matrix(1.5 0 0 1.5 108 36)" id="mdi-signal-variant" fill="#fff"/><path d="M22 22H2v-2h20v2M2.26 16.83 5.09 14l-2.83-2.83 1.41-1.41 2.83 2.83 2.83-2.83 1.41 1.41L7.91 14l2.83 2.83-1.41 1.41-2.83-2.83-2.83 2.83-1.41-1.41Z" transform="matrix(1.5 0 0 1.5 144 36)" id="mdi-signature" fill="#555"/><path d="M22 22H2v-2h20v2M2.26 16.83 5.09 14l-2.83-2.83 1.41-1.41 2.83 2.83 2.83-2.83 1.41 1.41L7.91 14l2.83 2.83-1.41 1.41-2.83-2.83-2.83 2.83-1.41-1.41Z" transform="matrix(1.5 0 0 1.5 180 36)" id="mdi-signature" fill="#fff"/><path d="M22 22H2v-2h20v2M6.2 17.3l-.7.7-1.4-1.4L2.7 18l-.7-.7 1.4-1.4L2 14.5l.7-.7 1.4 1.4 1.4-1.4.7.7-1.4 1.4 1.4 1.4m10.02-2.87c0-.58-.72-1.23-2.16-1.97-1.83-.92-3.06-1.67-3.7-2.22-.65-.56-.97-1.18-.97-1.87 0-1.78.91-3.25 2.73-4.42 1.82-1.17 3.31-1.76 4.45-1.76.74 0 1.28.13 1.61.39.32.25.5.69.5 1.32 0 .28-.12.52-.37.73-.24.2-.44.3-.57.3-.11 0-.31-.1-.61-.29l-.58-.26c-.47 0-1.41.33-2.84 1-1.42.66-2.13 1.41-2.13 2.25 0 .51.24.97.74 1.37.5.42 1.39.93 2.68 1.53 1.03.47 1.86.97 2.5 1.54.6.54.91 1.18.91 1.93 0 1.34-.94 2.41-2.83 3.17-1.88.77-3.68 1.15-5.39 1.15-1.44 0-2.19-.49-2.19-1.46 0-.36.19-.59.5-.75.33-.16.66-.24 1-.24l.75.13.72.13c.98 0 2.03-.16 3.16-.49 1.13-.32 1.83-.73 2.09-1.21Z" transform="matrix(1.5 0 0 1.5 216 36)" id="mdi-signature-freehand" fill="#555"/><path d="M22 22H2v-2h20v2M6.2 17.3l-.7.7-1.4-1.4L2.7 18l-.7-.7 1.4-1.4L2 14.5l.7-.7 1.4 1.4 1.4-1.4.7.7-1.4 1.4 1.4 1.4m10.02-2.87c0-.58-.72-1.23-2.16-1.97-1.83-.92-3.06-1.67-3.7-2.22-.65-.56-.97-1.18-.97-1.87 0-1.78.91-3.25 2.73-4.42 1.82-1.17 3.31-1.76 4.45-1.76.74 0 1.28.13 1.61.39.32.25.5.69.5 1.32 0 .28-.12.52-.37.73-.24.2-.44.3-.57.3-.11 0-.31-.1-.61-.29l-.58-.26c-.47 0-1.41.33-2.84 1-1.42.66-2.13 1.41-2.13 2.25 0 .51.24.97.74 1.37.5.42 1.39.93 2.68 1.53 1.03.47 1.86.97 2.5 1.54.6.54.91 1.18.91 1.93 0 1.34-.94 2.41-2.83 3.17-1.88.77-3.68 1.15-5.39 1.15-1.44 0-2.19-.49-2.19-1.46 0-.36.19-.59.5-.75.33-.16.66-.24 1-.24l.75.13.72.13c.98 0 2.03-.16 3.16-.49 1.13-.32 1.83-.73 2.09-1.21Z" transform="matrix(1.5 0 0 1.5 252 36)" id="mdi-signature-freehand" fill="#fff"/><path d="M22 22H2v-2h20v2M6.2 17.3l-1.4-1.4 1.4-1.4-.7-.7-1.4 1.4-1.4-1.4-.7.7 1.4 1.4L2 17.3l.7.7 1.4-1.4L5.5 18l.7-.7M20 5H10a2 2 0 0 0-2 2v9a2 2 0 0 0 2 2h10a2 2 0 0 0 2-2V7a2 2 0 0 0-2-2M10 16l2.6-3.3 1.8 2.2 2.4-3.3L20 16H10Z" transform="matrix(1.5 0 0 1.5 288 36)" id="mdi-signature-image" fill="#555"/><path d="M22 22H2v-2h20v2M6.2 17.3l-1.4-1.4 1.4-1.4-.7-.7-1.4 1.4-1.4-1.4-.7.7 1.4 1.4L2 17.3l.7.7 1.4-1.4L5.5 18l.7-.7M20 5H10a2 2 0 0 0-2 2v9a2 2 0 0 0 2 2h10a2 2 0 0 0 2-2V7a2 2 0 0 0-2-2M10 16l2.6-3.3 1.8 2.2 2.4-3.3L20 16H10Z" transform="matrix(1.5 0 0 1.5 324 36)" id="mdi-signature-image" fill="#fff"/><path d="M22 22H2v-2h20v2M6.2 17.3l-1.4-1.4 1.4-1.4-.7-.7-1.4 1.4-1.4-1.4-.7.7 1.4 1.4L2 17.3l.7.7 1.4-1.4L5.5 18l.7-.7M20.5 3l1.2 4.4-1 .3c-.5-.9-.9-1.7-1.4-2.2-.6-.5-1.2-.5-1.8-.5H15v10.5c0 .5 0 1 .3 1.2.3.2 1 .2 1.7.2v1h-6v-1c.7 0 1.3 0 1.7-.2.3-.2.3-.7.3-1.2V5h-2.5c-.6 0-1.2 0-1.8.4-.5.4-1 1.3-1.4 2.2l-1-.3L7.5 3h13Z" transform="matrix(1.5 0 0 1.5 360 36)" id="mdi-signature-text" fill="#555"/><path d="M22 22H2v-2h20v2M6.2 17.3l-1.4-1.4 1.4-1.4-.7-.7-1.4 1.4-1.4-1.4-.7.7 1.4 1.4L2 17.3l.7.7 1.4-1.4L5.5 18l.7-.7M20.5 3l1.2 4.4-1 .3c-.5-.9-.9-1.7-1.4-2.2-.6-.5-1.2-.5-1.8-.5H15v10.5c0 .5 0 1 .3 1.2.3.2 1 .2 1.7.2v1h-6v-1c.7 0 1.3 0 1.7-.2.3-.2.3-.7.3-1.2V5h-2.5c-.6 0-1.2 0-1.8.4-.5.4-1 1.3-1.4 2.2l-1-.3L7.5 3h13Z" transform="matrix(1.5 0 0 1.5 396 36)" id="mdi-signature-text" fill="#fff"/><path d="M8.5 2a6.5 6.5 0 0 1 6.46 5.78L22 12v2l-2-1.2V22h-2V11.6l-3-1.8V22h-2V9H4v13H2V8.5A6.5 6.5 0 0 1 8.5 2m0 2C6.54 4 4.87 5.25 4.26 7h8.48c-.61-1.75-2.28-3-4.24-3M6 11h5v2H6v-2m0 4h5v2H6v-2m0 4h5v2H6v-2Z" transform="matrix(1.5 0 0 1.5 432 36)" id="mdi-silo" fill="#555"/><path d="M8.5 2a6.5 6.5 0 0 1 6.46 5.78L22 12v2l-2-1.2V22h-2V11.6l-3-1.8V22h-2V9H4v13H2V8.5A6.5 6.5 0 0 1 8.5 2m0 2C6.54 4 4.87 5.25 4.26 7h8.48c-.61-1.75-2.28-3-4.24-3M6 11h5v2H6v-2m0 4h5v2H6v-2m0 4h5v2H6v-2Z" transform="matrix(1.5 0 0 1.5 468 36)" id="mdi-silo" fill="#fff"/><path d="M8.1 13.34 3.91 9.16a4.008 4.008 0 0 1 0-5.66l7.02 7-2.83 2.84m6.78-1.81L13.41 13l6.88 6.88-1.41 1.41L12 14.41l-6.88 6.88-1.41-1.41 9.76-9.76c-.71-1.53-.21-3.68 1.38-5.27 1.91-1.92 4.65-2.28 6.11-.82 1.47 1.47 1.11 4.21-.81 6.12-1.59 1.59-3.74 2.09-5.27 1.38Z" transform="matrix(1.5 0 0 1.5 504 36)" id="mdi-silverware" fill="#555"/><path d="M8.1 13.34 3.91 9.16a4.008 4.008 0 0 1 0-5.66l7.02 7-2.83 2.84m6.78-1.81L13.41 13l6.88 6.88-1.41 1.41L12 14.41l-6.88 6.88-1.41-1.41 9.76-9.76c-.71-1.53-.21-3.68 1.38-5.27 1.91-1.92 4.65-2.28 6.11-.82 1.47 1.47 1.11 4.21-.81 6.12-1.59 1.59-3.74 2.09-5.27 1.38Z" transform="matrix(1.5 0 0 1.5 540 36)" id="mdi-silverware" fill="#fff"/><path d="m15 0-.62 1.37L13 2l1.38.63L15 4l.63-1.37L17 2l-1.37-.63L15 0m-4.5 2L9.41 4.41 7 5.5l2.41 1.09L10.5 9l1.1-2.41L14 5.5l-2.4-1.09L10.5 2m8.39 3.14c-1.33-.08-2.85.51-4.05 1.7-1.59 1.59-2.09 3.74-1.38 5.27L3.7 21.87l1.41 1.41L12 16.41l6.88 6.88 1.41-1.41L13.41 15l1.47-1.47c1.53.71 3.68.21 5.27-1.38 1.91-1.91 2.28-4.65.81-6.12-.55-.53-1.28-.84-2.07-.89M3.91 5.5a4.008 4.008 0 0 0 0 5.66l4.19 4.18 2.83-2.84-7.02-7Z" transform="matrix(1.5 0 0 1.5 576 36)" id="mdi-silverware-clean" fill="#555"/><path d="m15 0-.62 1.37L13 2l1.38.63L15 4l.63-1.37L17 2l-1.37-.63L15 0m-4.5 2L9.41 4.41 7 5.5l2.41 1.09L10.5 9l1.1-2.41L14 5.5l-2.4-1.09L10.5 2m8.39 3.14c-1.33-.08-2.85.51-4.05 1.7-1.59 1.59-2.09 3.74-1.38 5.27L3.7 21.87l1.41 1.41L12 16.41l6.88 6.88 1.41-1.41L13.41 15l1.47-1.47c1.53.71 3.68.21 5.27-1.38 1.91-1.91 2.28-4.65.81-6.12-.55-.53-1.28-.84-2.07-.89M3.91 5.5a4.008 4.008 0 0 0 0 5.66l4.19 4.18 2.83-2.84-7.02-7Z" transform="matrix(1.5 0 0 1.5 612 36)" id="mdi-silverware-clean" fill="#fff"/><path d="m5.12 21.29-1.41-1.41 9.65-9.66-.2-.22a1.98 1.98 0 0 1 0-2.81l4.34-4.37.93.92L15.19 7l.96.94 3.24-3.25.92.92-3.25 3.24.94.96 3.26-3.25.92.94-4.37 4.34c-.78.78-2.04.78-2.81 0l-.22-.2-9.66 9.65Z" transform="matrix(1.5 0 0 1.5 648 36)" id="mdi-silverware-fork" fill="#555"/><path d="m5.12 21.29-1.41-1.41 9.65-9.66-.2-.22a1.98 1.98 0 0 1 0-2.81l4.34-4.37.93.92L15.19 7l.96.94 3.24-3.25.92.92-3.25 3.24.94.96 3.26-3.25.92.94-4.37 4.34c-.78.78-2.04.78-2.81 0l-.22-.2-9.66 9.65Z" transform="matrix(1.5 0 0 1.5 684 36)" id="mdi-silverware-fork" fill="#fff"/><path d="M11 9H9V2H7v7H5V2H3v7c0 2.12 1.66 3.84 3.75 3.97V22h2.5v-9.03C11.34 12.84 13 11.12 13 9V2h-2v7m5-3v8h2.5v8H21V2c-2.76 0-5 2.24-5 4Z" transform="matrix(1.5 0 0 1.5 0 72)" id="mdi-silverware-fork-knife" fill="#555"/><path d="M11 9H9V2H7v7H5V2H3v7c0 2.12 1.66 3.84 3.75 3.97V22h2.5v-9.03C11.34 12.84 13 11.12 13 9V2h-2v7m5-3v8h2.5v8H21V2c-2.76 0-5 2.24-5 4Z" transform="matrix(1.5 0 0 1.5 36 72)" id="mdi-silverware-fork-knife" fill="#fff"/><path d="m14.88 11.53-9.76 9.76-1.41-1.41 9.76-9.76c-.71-1.53-.21-3.68 1.38-5.27 1.91-1.92 4.65-2.28 6.11-.82 1.47 1.47 1.11 4.21-.81 6.12-1.59 1.59-3.74 2.09-5.27 1.38Z" transform="matrix(1.5 0 0 1.5 72 72)" id="mdi-silverware-spoon" fill="#555"/><path d="m14.88 11.53-9.76 9.76-1.41-1.41 9.76-9.76c-.71-1.53-.21-3.68 1.38-5.27 1.91-1.92 4.65-2.28 6.11-.82 1.47 1.47 1.11 4.21-.81 6.12-1.59 1.59-3.74 2.09-5.27 1.38Z" transform="matrix(1.5 0 0 1.5 108 72)" id="mdi-silverware-spoon" fill="#fff"/><path d="M8.1 13.34 3.91 9.16a4.008 4.008 0 0 1 0-5.66l7.02 7-2.83 2.84m5.31-.34 6.88 6.88-1.41 1.41L12 14.41l-6.88 6.88-1.41-1.41 9.65-9.66-.2-.22a1.98 1.98 0 0 1 0-2.81l4.34-4.37.93.92L15.19 7l.96.94 3.24-3.25.92.92-3.25 3.24.94.96 3.26-3.25.92.94-4.37 4.34c-.78.78-2.04.78-2.81 0l-.22-.2L13.41 13Z" transform="matrix(1.5 0 0 1.5 144 72)" id="mdi-silverware-variant" fill="#555"/><path d="M8.1 13.34 3.91 9.16a4.008 4.008 0 0 1 0-5.66l7.02 7-2.83 2.84m5.31-.34 6.88 6.88-1.41 1.41L12 14.41l-6.88 6.88-1.41-1.41 9.65-9.66-.2-.22a1.98 1.98 0 0 1 0-2.81l4.34-4.37.93.92L15.19 7l.96.94 3.24-3.25.92.92-3.25 3.24.94.96 3.26-3.25.92.94-4.37 4.34c-.78.78-2.04.78-2.81 0l-.22-.2L13.41 13Z" transform="matrix(1.5 0 0 1.5 180 72)" id="mdi-silverware-variant" fill="#fff"/><path d="M20 4a2 2 0 0 0-2-2h-8L4 8v12a2 2 0 0 0 2 2h12a2 2 0 0 0 2-2V4M9 19H7v-2h2v2m8 0h-2v-2h2v2m-8-4H7v-4h2v4m4 4h-2v-4h2v4m0-6h-2v-2h2v2m4 2h-2v-4h2v4Z" transform="matrix(1.5 0 0 1.5 216 72)" id="mdi-sim" fill="#555"/><path d="M20 4a2 2 0 0 0-2-2h-8L4 8v12a2 2 0 0 0 2 2h12a2 2 0 0 0 2-2V4M9 19H7v-2h2v2m8 0h-2v-2h2v2m-8-4H7v-4h2v4m4 4h-2v-4h2v4m0-6h-2v-2h2v2m4 2h-2v-4h2v4Z" transform="matrix(1.5 0 0 1.5 252 72)" id="mdi-sim" fill="#fff"/><path d="M13 13h-2V7h2m0 10h-2v-2h2m5-13h-8L4 8v12c0 1.1.9 2 2 2h12c1.1 0 2-.9 2-2V4c0-1.1-.9-2-2-2Z" transform="matrix(1.5 0 0 1.5 288 72)" id="mdi-sim-alert" fill="#555"/><path d="M13 13h-2V7h2m0 10h-2v-2h2m5-13h-8L4 8v12c0 1.1.9 2 2 2h12c1.1 0 2-.9 2-2V4c0-1.1-.9-2-2-2Z" transform="matrix(1.5 0 0 1.5 324 72)" id="mdi-sim-alert" fill="#fff"/><path d="M13 13h-2V7h2m0 10h-2v-2h2m5-11v16H6V8.8L10.8 4H18m0-2h-8L4 8v12c0 1.1.9 2 2 2h12c1.1 0 2-.9 2-2V4c0-1.1-.9-2-2-2Z" transform="matrix(1.5 0 0 1.5 360 72)" id="mdi-sim-alert-outline" fill="#555"/><path d="M13 13h-2V7h2m0 10h-2v-2h2m5-11v16H6V8.8L10.8 4H18m0-2h-8L4 8v12c0 1.1.9 2 2 2h12c1.1 0 2-.9 2-2V4c0-1.1-.9-2-2-2Z" transform="matrix(1.5 0 0 1.5 396 72)" id="mdi-sim-alert-outline" fill="#fff"/><path d="m20.84 22.73-1.38-1.38c-.36.4-.88.65-1.46.65H6c-1.11 0-2-.89-2-2V8l1.06-1.05L1.11 3l1.28-1.27 19.72 19.73-1.27 1.27M20 4a2 2 0 0 0-2-2h-8L7.6 4.4 20 16.8V4Z" transform="matrix(1.5 0 0 1.5 432 72)" id="mdi-sim-off" fill="#555"/><path d="m20.84 22.73-1.38-1.38c-.36.4-.88.65-1.46.65H6c-1.11 0-2-.89-2-2V8l1.06-1.05L1.11 3l1.28-1.27 19.72 19.73-1.27 1.27M20 4a2 2 0 0 0-2-2h-8L7.6 4.4 20 16.8V4Z" transform="matrix(1.5 0 0 1.5 468 72)" id="mdi-sim-off" fill="#fff"/><path d="M22.11 21.46 2.39 1.73 1.11 3l3.95 3.95L4 8v12c0 1.11.89 2 2 2h12c.58 0 1.1-.25 1.46-.65l1.38 1.38 1.27-1.27M18 20H6V8.83l.47-.47L18 19.89V20M10.83 4H18v10.8l2 2V4a2 2 0 0 0-2-2h-8L7.6 4.4 9 5.81 10.83 4Z" transform="matrix(1.5 0 0 1.5 504 72)" id="mdi-sim-off-outline" fill="#555"/><path d="M22.11 21.46 2.39 1.73 1.11 3l3.95 3.95L4 8v12c0 1.11.89 2 2 2h12c.58 0 1.1-.25 1.46-.65l1.38 1.38 1.27-1.27M18 20H6V8.83l.47-.47L18 19.89V20M10.83 4H18v10.8l2 2V4a2 2 0 0 0-2-2h-8L7.6 4.4 9 5.81 10.83 4Z" transform="matrix(1.5 0 0 1.5 540 72)" id="mdi-sim-off-outline" fill="#fff"/><path d="M18 4v16H6V8.8L10.8 4H18m0-2h-8L4 8v12c0 1.1.9 2 2 2h12c1.1 0 2-.9 2-2V4c0-1.1-.9-2-2-2M9.5 19h-2v-2h2v2m7 0h-2v-2h2v2m-7-4h-2v-4h2v4m3.5 4h-2v-4h2v4m0-6h-2v-2h2v2m3.5 2h-2v-4h2v4Z" transform="matrix(1.5 0 0 1.5 576 72)" id="mdi-sim-outline" fill="#555"/><path d="M18 4v16H6V8.8L10.8 4H18m0-2h-8L4 8v12c0 1.1.9 2 2 2h12c1.1 0 2-.9 2-2V4c0-1.1-.9-2-2-2M9.5 19h-2v-2h2v2m7 0h-2v-2h2v2m-7-4h-2v-4h2v4m3.5 4h-2v-4h2v4m0-6h-2v-2h2v2m3.5 2h-2v-4h2v4Z" transform="matrix(1.5 0 0 1.5 612 72)" id="mdi-sim-outline" fill="#fff"/><path d="M18.25 17c0 .88-.18 1.74-.54 2.53h-1.4c1.4-2.38.6-5.44-1.78-6.84A5.01 5.01 0 0 0 12 12c-2.76 0-5-2.24-5-5s2.24-5 5-5 5 2.24 5 5h-1.25c0-2.07-1.68-3.75-3.75-3.75-2.07 0-3.75 1.68-3.75 3.75 0 2.07 1.68 3.75 3.75 3.75 3.45 0 6.25 2.81 6.25 6.25M6.29 19.53c-.36-.79-.54-1.66-.54-2.53H7c0 .93.25 1.79.69 2.53h-1.4m11.96 1.22V22H5.75v-1.25H9.5v-5H8.25V14.5h7.5v1.25H14.5v5h3.75m-5-5h-2.5v5h2.5v-5m1.19-8.68A2.502 2.502 0 0 1 12 9.5a2.493 2.493 0 0 1-2.43-2.56C9.6 5.61 10.67 4.53 12 4.5a2.51 2.51 0 0 1 2.44 2.57M13.25 7a1.25 1.25 0 1 0-2.5 0 1.25 1.25 0 0 0 2.5 0Z" transform="matrix(1.5 0 0 1.5 648 72)" id="mdi-simple-icons" fill="#555"/><path d="M18.25 17c0 .88-.18 1.74-.54 2.53h-1.4c1.4-2.38.6-5.44-1.78-6.84A5.01 5.01 0 0 0 12 12c-2.76 0-5-2.24-5-5s2.24-5 5-5 5 2.24 5 5h-1.25c0-2.07-1.68-3.75-3.75-3.75-2.07 0-3.75 1.68-3.75 3.75 0 2.07 1.68 3.75 3.75 3.75 3.45 0 6.25 2.81 6.25 6.25M6.29 19.53c-.36-.79-.54-1.66-.54-2.53H7c0 .93.25 1.79.69 2.53h-1.4m11.96 1.22V22H5.75v-1.25H9.5v-5H8.25V14.5h7.5v1.25H14.5v5h3.75m-5-5h-2.5v5h2.5v-5m1.19-8.68A2.502 2.502 0 0 1 12 9.5a2.493 2.493 0 0 1-2.43-2.56C9.6 5.61 10.67 4.53 12 4.5a2.51 2.51 0 0 1 2.44 2.57M13.25 7a1.25 1.25 0 1 0-2.5 0 1.25 1.25 0 0 0 2.5 0Z" transform="matrix(1.5 0 0 1.5 684 72)" id="mdi-simple-icons" fill="#fff"/><path d="M9.82 13.87c1.07 0 1.95.87 1.95 1.95a1.95 1.95 0 0 1-1.95 1.95c-1.08 0-1.95-.88-1.95-1.95 0-1.08.87-1.95 1.95-1.95M14.5 3.34l.68-.03c3.76 0 6.82 3.06 6.82 6.82l-.05.82-1.19-.37.02-.45c0-3.09-2.51-5.6-5.6-5.6l-.35.01-.33-1.2m.82 2.89c2.06.07 3.73 1.77 3.76 3.83l-1.24-.38c-.19-1.12-1.06-2-2.17-2.18l-.35-1.27M2 15.41c-.03-.61.07-2.77 2.95-5.44 3.4-3.16 4.87-2.92 4.87-2.92s3.18-.3 1.24 3.41h.07c.47-.5 1.49-1.25 3.56-1.46 2.08-.21 2.08 1.5 1.81 2.7 1.88.94 3.06 2.33 3.06 3.88 0 2.82-3.93 5.11-8.78 5.11h-.28c-3.5 0-6.5-1.27-7.79-3.1-.46-.62-.71-1.3-.71-2.01v-.17m7.82-3.49c-3.23 0-5.85 1.75-5.85 3.9s2.62 3.9 5.85 3.9c3.23 0 5.85-1.75 5.85-3.9s-2.62-3.9-5.85-3.9Z" transform="matrix(1.5 0 0 1.5 0 108)" id="mdi-sina-weibo" fill="#555"/><path d="M9.82 13.87c1.07 0 1.95.87 1.95 1.95a1.95 1.95 0 0 1-1.95 1.95c-1.08 0-1.95-.88-1.95-1.95 0-1.08.87-1.95 1.95-1.95M14.5 3.34l.68-.03c3.76 0 6.82 3.06 6.82 6.82l-.05.82-1.19-.37.02-.45c0-3.09-2.51-5.6-5.6-5.6l-.35.01-.33-1.2m.82 2.89c2.06.07 3.73 1.77 3.76 3.83l-1.24-.38c-.19-1.12-1.06-2-2.17-2.18l-.35-1.27M2 15.41c-.03-.61.07-2.77 2.95-5.44 3.4-3.16 4.87-2.92 4.87-2.92s3.18-.3 1.24 3.41h.07c.47-.5 1.49-1.25 3.56-1.46 2.08-.21 2.08 1.5 1.81 2.7 1.88.94 3.06 2.33 3.06 3.88 0 2.82-3.93 5.11-8.78 5.11h-.28c-3.5 0-6.5-1.27-7.79-3.1-.46-.62-.71-1.3-.71-2.01v-.17m7.82-3.49c-3.23 0-5.85 1.75-5.85 3.9s2.62 3.9 5.85 3.9c3.23 0 5.85-1.75 5.85-3.9s-2.62-3.9-5.85-3.9Z" transform="matrix(1.5 0 0 1.5 36 108)" id="mdi-sina-weibo" fill="#fff"/><path d="M16.5 21c-3 0-4.19-4.24-5.45-8.72C10.14 9.04 9 5 7.5 5 4.11 5 4 11.93 4 12H2c0-.37.06-9 5.5-9 3 0 4.21 4.25 5.47 8.74C13.83 14.8 15 19 16.5 19c3.44 0 3.53-6.93 3.53-7h2c0 .37-.06 9-5.53 9Z" transform="matrix(1.5 0 0 1.5 72 108)" id="mdi-sine-wave" fill="#555"/><path d="M16.5 21c-3 0-4.19-4.24-5.45-8.72C10.14 9.04 9 5 7.5 5 4.11 5 4 11.93 4 12H2c0-.37.06-9 5.5-9 3 0 4.21 4.25 5.47 8.74C13.83 14.8 15 19 16.5 19c3.44 0 3.53-6.93 3.53-7h2c0 .37-.06 9-5.53 9Z" transform="matrix(1.5 0 0 1.5 108 108)" id="mdi-sine-wave" fill="#fff"/><path d="M9 2v6h2v3H5c-1.11 0-2 .89-2 2v3H1v6h6v-6H5v-3h6v3H9v6h6v-6h-2v-3h6v3h-2v6h6v-6h-2v-3c0-1.11-.89-2-2-2h-6V8h2V2H9Z" transform="matrix(1.5 0 0 1.5 144 108)" id="mdi-sitemap" fill="#555"/><path d="M9 2v6h2v3H5c-1.11 0-2 .89-2 2v3H1v6h6v-6H5v-3h6v3H9v6h6v-6h-2v-3h6v3h-2v6h6v-6h-2v-3c0-1.11-.89-2-2-2h-6V8h2V2H9Z" transform="matrix(1.5 0 0 1.5 180 108)" id="mdi-sitemap" fill="#fff"/><path d="M21 16v-3c0-1.11-.89-2-2-2h-6V8h2V2H9v6h2v3H5c-1.11 0-2 .89-2 2v3H1v6h6v-6H5v-3h6v3H9v6h6v-6h-2v-3h6v3h-2v6h6v-6h-2M11 4h2v2h-2V4M5 20H3v-2h2v2m8 0h-2v-2h2v2m8 0h-2v-2h2v2Z" transform="matrix(1.5 0 0 1.5 216 108)" id="mdi-sitemap-outline" fill="#555"/><path d="M21 16v-3c0-1.11-.89-2-2-2h-6V8h2V2H9v6h2v3H5c-1.11 0-2 .89-2 2v3H1v6h6v-6H5v-3h6v3H9v6h6v-6h-2v-3h6v3h-2v6h6v-6h-2M11 4h2v2h-2V4M5 20H3v-2h2v2m8 0h-2v-2h2v2m8 0h-2v-2h2v2Z" transform="matrix(1.5 0 0 1.5 252 108)" id="mdi-sitemap-outline" fill="#fff"/><path d="M9 7v10h6v-2h-4V7H9Z" transform="matrix(1.5 0 0 1.5 288 108)" id="mdi-size-l" fill="#555"/><path d="M9 7v10h6v-2h-4V7H9Z" transform="matrix(1.5 0 0 1.5 324 108)" id="mdi-size-l" fill="#fff"/><path d="M9 7c-1.1 0-2 .9-2 2v8h2V9h2v7h2V9h2v8h2V9a2 2 0 0 0-2-2H9Z" transform="matrix(1.5 0 0 1.5 360 108)" id="mdi-size-m" fill="#555"/><path d="M9 7c-1.1 0-2 .9-2 2v8h2V9h2v7h2V9h2v8h2V9a2 2 0 0 0-2-2H9Z" transform="matrix(1.5 0 0 1.5 396 108)" id="mdi-size-m" fill="#fff"/><path d="M11 7c-1.1 0-2 .9-2 2v2a2 2 0 0 0 2 2h2v2H9v2h4c1.11 0 2-.89 2-2v-2a2 2 0 0 0-2-2h-2V9h4V7h-4Z" transform="matrix(1.5 0 0 1.5 432 108)" id="mdi-size-s" fill="#555"/><path d="M11 7c-1.1 0-2 .9-2 2v2a2 2 0 0 0 2 2h2v2H9v2h4c1.11 0 2-.89 2-2v-2a2 2 0 0 0-2-2h-2V9h4V7h-4Z" transform="matrix(1.5 0 0 1.5 468 108)" id="mdi-size-s" fill="#fff"/><path d="M6 7h2l1 2.5L10 7h2l-2 5 2 5h-2l-1-2.5L8 17H6l2-5-2-5m7 0h2v8h4v2h-6V7Z" transform="matrix(1.5 0 0 1.5 504 108)" id="mdi-size-xl" fill="#555"/><path d="M6 7h2l1 2.5L10 7h2l-2 5 2 5h-2l-1-2.5L8 17H6l2-5-2-5m7 0h2v8h4v2h-6V7Z" transform="matrix(1.5 0 0 1.5 540 108)" id="mdi-size-xl" fill="#fff"/><path d="M6 7h2l1 2.5L10 7h2l-2 5 2 5h-2l-1-2.5L8 17H6l2-5-2-5m9 0h4v2h-4v2h2a2 2 0 0 1 2 2v2c0 1.11-.89 2-2 2h-4v-2h4v-2h-2a2 2 0 0 1-2-2V9c0-1.1.9-2 2-2Z" transform="matrix(1.5 0 0 1.5 576 108)" id="mdi-size-xs" fill="#555"/><path d="M6 7h2l1 2.5L10 7h2l-2 5 2 5h-2l-1-2.5L8 17H6l2-5-2-5m9 0h4v2h-4v2h2a2 2 0 0 1 2 2v2c0 1.11-.89 2-2 2h-4v-2h4v-2h-2a2 2 0 0 1-2-2V9c0-1.1.9-2 2-2Z" transform="matrix(1.5 0 0 1.5 612 108)" id="mdi-size-xs" fill="#fff"/><path d="M9 7h2l1 2.5L13 7h2l-2 5 2 5h-2l-1-2.5-1 2.5H9l2-5-2-5m7 0h2v8h4v2h-6V7M2 7h2l1 2.5L6 7h2l-2 5 2 5H6l-1-2.5L4 17H2l2-5-2-5Z" transform="matrix(1.5 0 0 1.5 648 108)" id="mdi-size-xxl" fill="#555"/><path d="M9 7h2l1 2.5L13 7h2l-2 5 2 5h-2l-1-2.5-1 2.5H9l2-5-2-5m7 0h2v8h4v2h-6V7M2 7h2l1 2.5L6 7h2l-2 5 2 5H6l-1-2.5L4 17H2l2-5-2-5Z" transform="matrix(1.5 0 0 1.5 684 108)" id="mdi-size-xxl" fill="#fff"/><path d="M9 7h2l1 2.5L13 7h2l-2 5 2 5h-2l-1-2.5-1 2.5H9l2-5-2-5m9 0h4v2h-4v2h2a2 2 0 0 1 2 2v2c0 1.11-.89 2-2 2h-4v-2h4v-2h-2a2 2 0 0 1-2-2V9c0-1.1.9-2 2-2M2 7h2l1 2.5L6 7h2l-2 5 2 5H6l-1-2.5L4 17H2l2-5-2-5Z" transform="matrix(1.5 0 0 1.5 0 144)" id="mdi-size-xxs" fill="#555"/><path d="M9 7h2l1 2.5L13 7h2l-2 5 2 5h-2l-1-2.5-1 2.5H9l2-5-2-5m9 0h4v2h-4v2h2a2 2 0 0 1 2 2v2c0 1.11-.89 2-2 2h-4v-2h4v-2h-2a2 2 0 0 1-2-2V9c0-1.1.9-2 2-2M2 7h2l1 2.5L6 7h2l-2 5 2 5H6l-1-2.5L4 17H2l2-5-2-5Z" transform="matrix(1.5 0 0 1.5 36 144)" id="mdi-size-xxs" fill="#fff"/><path d="M9 7h2l1 2.5L13 7h2l-2 5 2 5h-2l-1-2.5-1 2.5H9l2-5-2-5m7 0h2v8h4v2h-6V7m-8 8c0 1.11-.89 2-2 2H2v-2h4v-2H4v-2h2V9H2V7h4a2 2 0 0 1 2 2v1.5c0 .83-.67 1.5-1.5 1.5.83 0 1.5.67 1.5 1.5V15Z" transform="matrix(1.5 0 0 1.5 72 144)" id="mdi-size-xxxl" fill="#555"/><path d="M9 7h2l1 2.5L13 7h2l-2 5 2 5h-2l-1-2.5-1 2.5H9l2-5-2-5m7 0h2v8h4v2h-6V7m-8 8c0 1.11-.89 2-2 2H2v-2h4v-2H4v-2h2V9H2V7h4a2 2 0 0 1 2 2v1.5c0 .83-.67 1.5-1.5 1.5.83 0 1.5.67 1.5 1.5V15Z" transform="matrix(1.5 0 0 1.5 108 144)" id="mdi-size-xxxl" fill="#fff"/><path d="M20.95 17c-.25 1.69-1.69 3-3.45 3H16v-2h3c-.07-1.28.26-3.96-.47-5.05-.97-2.05-3.7-2.39-5.6-2.9C12 10 11 9 10.84 8H8c-.28 0-.5-.22-.5-.5S7.72 7 8 7h2.5V6H8c-.28 0-.5-.22-.5-.5S7.72 5 8 5h2.5V2H2.03v16H5v2H1v2h16.5c2.86 0 5.22-2.2 5.5-5h-2.05M14 20H7v-2h7v2Z" transform="matrix(1.5 0 0 1.5 144 144)" id="mdi-skate" fill="#555"/><path d="M20.95 17c-.25 1.69-1.69 3-3.45 3H16v-2h3c-.07-1.28.26-3.96-.47-5.05-.97-2.05-3.7-2.39-5.6-2.9C12 10 11 9 10.84 8H8c-.28 0-.5-.22-.5-.5S7.72 7 8 7h2.5V6H8c-.28 0-.5-.22-.5-.5S7.72 5 8 5h2.5V2H2.03v16H5v2H1v2h16.5c2.86 0 5.22-2.2 5.5-5h-2.05M14 20H7v-2h7v2Z" transform="matrix(1.5 0 0 1.5 180 144)" id="mdi-skate" fill="#fff"/><path d="m19 15.81-5.64-5.65c1.86.46 4.27.89 5.17 2.79.42.62.47 1.76.47 2.86M20.95 17c-.03.21-.08.41-.15.6l1.52 1.52c.36-.62.6-1.35.68-2.12h-2.05M10.5 7V6H9.2l1 1h.3m11.61 14.46-1.27 1.27-1.18-1.18c-.66.28-1.39.45-2.16.45H1v-2h4v-2H2.03V3.92L1.11 3l.92-.91V2h.09l.27-.27 19.72 19.73M14 18H7v2h7v-2m4.06 1.95L16.11 18H16v2h1.5c.19 0 .38 0 .56-.05M10.5 5V2H5.2l3 3h2.3Z" transform="matrix(1.5 0 0 1.5 216 144)" id="mdi-skate-off" fill="#555"/><path d="m19 15.81-5.64-5.65c1.86.46 4.27.89 5.17 2.79.42.62.47 1.76.47 2.86M20.95 17c-.03.21-.08.41-.15.6l1.52 1.52c.36-.62.6-1.35.68-2.12h-2.05M10.5 7V6H9.2l1 1h.3m11.61 14.46-1.27 1.27-1.18-1.18c-.66.28-1.39.45-2.16.45H1v-2h4v-2H2.03V3.92L1.11 3l.92-.91V2h.09l.27-.27 19.72 19.73M14 18H7v2h7v-2m4.06 1.95L16.11 18H16v2h1.5c.19 0 .38 0 .56-.05M10.5 5V2H5.2l3 3h2.3Z" transform="matrix(1.5 0 0 1.5 252 144)" id="mdi-skate-off" fill="#fff"/><path d="M9 14.5c0 .83-.67 1.5-1.5 1.5S6 15.33 6 14.5 6.67 13 7.5 13s1.5.67 1.5 1.5m7.5-1.5c-.83 0-1.5.67-1.5 1.5s.67 1.5 1.5 1.5 1.5-.67 1.5-1.5-.67-1.5-1.5-1.5m5.09-3.81c-.45-.32-1.09-.22-1.4.22l-.13.18c-.18.26-.49.41-.8.41H4.74c-.31 0-.61-.15-.8-.41l-.13-.18c-.31-.44-.95-.54-1.4-.22-.45.31-.54.96-.22 1.4l.13.18c.56.77 1.47 1.23 2.42 1.23h14.52c.95 0 1.86-.46 2.42-1.23l.13-.18c.32-.44.23-1.09-.22-1.4Z" transform="matrix(1.5 0 0 1.5 288 144)" id="mdi-skateboard" fill="#555"/><path d="M9 14.5c0 .83-.67 1.5-1.5 1.5S6 15.33 6 14.5 6.67 13 7.5 13s1.5.67 1.5 1.5m7.5-1.5c-.83 0-1.5.67-1.5 1.5s.67 1.5 1.5 1.5 1.5-.67 1.5-1.5-.67-1.5-1.5-1.5m5.09-3.81c-.45-.32-1.09-.22-1.4.22l-.13.18c-.18.26-.49.41-.8.41H4.74c-.31 0-.61-.15-.8-.41l-.13-.18c-.31-.44-.95-.54-1.4-.22-.45.31-.54.96-.22 1.4l.13.18c.56.77 1.47 1.23 2.42 1.23h14.52c.95 0 1.86-.46 2.42-1.23l.13-.18c.32-.44.23-1.09-.22-1.4Z" transform="matrix(1.5 0 0 1.5 324 144)" id="mdi-skateboard" fill="#fff"/><path d="M19.78 18.39c.15.15.22.31.22.49 0 .12-.06.29-.18.44-.38.53-.86.94-1.45 1.24-.59.29-1.22.44-1.9.44H7.53c-.71 0-1.36-.15-1.94-.44-.59-.3-1.09-.71-1.46-1.24a.828.828 0 0 1-.13-.44c0-.18.07-.34.2-.49s.3-.22.51-.22c.23 0 .42.1.57.33.41.5.94.86 1.59 1.04l2.95-3.58-1.28-3.89c-.18-.57-.1-1.07.22-1.57L11 6.86H8.8L7 9.77 5.41 8.76 7.75 5h5.37c.42 0 .75.12 1.02.35.26.24.44.45.53.62l.48 1.15C15.5 7.89 16 8.5 16.7 9c.7.45 1.48.69 2.33.69v1.9c-1.09 0-2.08-.27-3-.8a6.073 6.073 0 0 1-2.16-2.08l-1.71 2.7 4.05 2.52v5.66h.26c.45 0 .86-.09 1.26-.31s.73-.47.99-.78c.15-.23.33-.33.53-.33s.38.08.53.22m-5.42-3.14-3.31-2.07.95 3.14-2.76 3.27h5.12v-4.34M15 1c-1.1 0-2 .9-2 2s.9 2 2 2 2-.89 2-2-.89-2-2-2M8 21.5c-.41 0-.75.34-.75.75s.34.75.75.75.75-.34.75-.75-.34-.75-.75-.75m8 0c-.41 0-.75.34-.75.75s.34.75.75.75.75-.34.75-.75-.34-.75-.75-.75Z" transform="matrix(1.5 0 0 1.5 360 144)" id="mdi-skateboarding" fill="#555"/><path d="M19.78 18.39c.15.15.22.31.22.49 0 .12-.06.29-.18.44-.38.53-.86.94-1.45 1.24-.59.29-1.22.44-1.9.44H7.53c-.71 0-1.36-.15-1.94-.44-.59-.3-1.09-.71-1.46-1.24a.828.828 0 0 1-.13-.44c0-.18.07-.34.2-.49s.3-.22.51-.22c.23 0 .42.1.57.33.41.5.94.86 1.59 1.04l2.95-3.58-1.28-3.89c-.18-.57-.1-1.07.22-1.57L11 6.86H8.8L7 9.77 5.41 8.76 7.75 5h5.37c.42 0 .75.12 1.02.35.26.24.44.45.53.62l.48 1.15C15.5 7.89 16 8.5 16.7 9c.7.45 1.48.69 2.33.69v1.9c-1.09 0-2.08-.27-3-.8a6.073 6.073 0 0 1-2.16-2.08l-1.71 2.7 4.05 2.52v5.66h.26c.45 0 .86-.09 1.26-.31s.73-.47.99-.78c.15-.23.33-.33.53-.33s.38.08.53.22m-5.42-3.14-3.31-2.07.95 3.14-2.76 3.27h5.12v-4.34M15 1c-1.1 0-2 .9-2 2s.9 2 2 2 2-.89 2-2-.89-2-2-2M8 21.5c-.41 0-.75.34-.75.75s.34.75.75.75.75-.34.75-.75-.34-.75-.75-.75m8 0c-.41 0-.75.34-.75.75s.34.75.75.75.75-.34.75-.75-.34-.75-.75-.75Z" transform="matrix(1.5 0 0 1.5 396 144)" id="mdi-skateboarding" fill="#fff"/><path d="m17.5 11-2.09 9H10.5l2.09-9h4.91M20 9h-9L8 22h9l3-13M4 6l4-4v3h8v2H8v3L4 6Z" transform="matrix(1.5 0 0 1.5 432 144)" id="mdi-skew-less" fill="#555"/><path d="m17.5 11-2.09 9H10.5l2.09-9h4.91M20 9h-9L8 22h9l3-13M4 6l4-4v3h8v2H8v3L4 6Z" transform="matrix(1.5 0 0 1.5 468 144)" id="mdi-skew-less" fill="#fff"/><path d="m12.5 11-2.09 9H5.5l2.09-9h4.91M15 9H6L3 22h9l3-13m6-3-4-4v3H9v2h8v3l4-4Z" transform="matrix(1.5 0 0 1.5 504 144)" id="mdi-skew-more" fill="#555"/><path d="m12.5 11-2.09 9H5.5l2.09-9h4.91M15 9H6L3 22h9l3-13m6-3-4-4v3H9v2h8v3l4-4Z" transform="matrix(1.5 0 0 1.5 540 144)" id="mdi-skew-more" fill="#fff"/><path d="M17.92 13.32c-.25-.04-1.21-.32-1.46-.43l-2.07 6.48-3.09-1.13 2.2-5.77L10.45 9 13 7.54c.45 1.13 1.17 2.08 2.12 2.86s2.04 1.27 3.26 1.46l1.12-3.43-1.44-.47-.52 1.6c-.66-.28-1.24-.7-1.74-1.24-.5-.55-.86-1.19-1.08-1.91l-.33-1.08c-.12-.4-.35-.72-.68-.96-.33-.23-.71-.37-1.08-.4-.39-.03-.77.03-1.13.24L8 6.23c-.37.21-.64.51-.81.89-.19.38-.23.76-.19 1.17s.26.77.54 1.08l3.57 3.71-1.69 4.46-6.95-2.49L2 16.46l14.04 5.12a7.522 7.522 0 0 0 4.32.19c.59-.16 1.14-.38 1.64-.66L20.87 20c-.75.33-1.53.5-2.34.5-.66 0-1.32-.11-1.98-.33l-.75-.28 2.12-6.57M19 3c0 1.11-.89 2-2 2s-2-.89-2-2 .9-2 2-2 2 .9 2 2Z" transform="matrix(1.5 0 0 1.5 576 144)" id="mdi-ski" fill="#555"/><path d="M17.92 13.32c-.25-.04-1.21-.32-1.46-.43l-2.07 6.48-3.09-1.13 2.2-5.77L10.45 9 13 7.54c.45 1.13 1.17 2.08 2.12 2.86s2.04 1.27 3.26 1.46l1.12-3.43-1.44-.47-.52 1.6c-.66-.28-1.24-.7-1.74-1.24-.5-.55-.86-1.19-1.08-1.91l-.33-1.08c-.12-.4-.35-.72-.68-.96-.33-.23-.71-.37-1.08-.4-.39-.03-.77.03-1.13.24L8 6.23c-.37.21-.64.51-.81.89-.19.38-.23.76-.19 1.17s.26.77.54 1.08l3.57 3.71-1.69 4.46-6.95-2.49L2 16.46l14.04 5.12a7.522 7.522 0 0 0 4.32.19c.59-.16 1.14-.38 1.64-.66L20.87 20c-.75.33-1.53.5-2.34.5-.66 0-1.32-.11-1.98-.33l-.75-.28 2.12-6.57M19 3c0 1.11-.89 2-2 2s-2-.89-2-2 .9-2 2-2 2 .9 2 2Z" transform="matrix(1.5 0 0 1.5 612 144)" id="mdi-ski" fill="#fff"/><path d="M19 14h-1.4v8H19v-8M6.44 22H5l2-8h1.44l-2 8M8.76 9.54V13H7V8.32l4.61-2.01c.43-.17.89-.18 1.35-.04s.83.42 1.1.83L15 8.58c.37.67.9 1.37 1.62 1.79.71.42 1.51.63 2.38.63v1.83c-1 0-2-.21-2.87-.63s-1.63-1.14-2.25-1.83l-.57 2.79L15.28 15v7H13.4v-5.5l-1.9-1.95L9.77 22H7.8l2.63-13.11-1.67.65M16 4c0 1.11-.89 2-2 2s-2-.89-2-2 .9-2 2-2 2 .9 2 2Z" transform="matrix(1.5 0 0 1.5 648 144)" id="mdi-ski-cross-country" fill="#555"/><path d="M19 14h-1.4v8H19v-8M6.44 22H5l2-8h1.44l-2 8M8.76 9.54V13H7V8.32l4.61-2.01c.43-.17.89-.18 1.35-.04s.83.42 1.1.83L15 8.58c.37.67.9 1.37 1.62 1.79.71.42 1.51.63 2.38.63v1.83c-1 0-2-.21-2.87-.63s-1.63-1.14-2.25-1.83l-.57 2.79L15.28 15v7H13.4v-5.5l-1.9-1.95L9.77 22H7.8l2.63-13.11-1.67.65M16 4c0 1.11-.89 2-2 2s-2-.89-2-2 .9-2 2-2 2 .9 2 2Z" transform="matrix(1.5 0 0 1.5 684 144)" id="mdi-ski-cross-country" fill="#fff"/><path d="M4.2 3.5c0-.8.7-1.6 1.6-1.6.9 0 1.6.7 1.6 1.6S6.6 5 5.8 5s-1.6-.7-1.6-1.5m17.8.4-.5-.9-8 4.1.5.9 8-4.1m-1.2 16.4.9.9c-.6.6-1.2 1-1.9 1.3s-1.5.5-2.3.5H2v-1.3h2.7l2.1-3.5L4.5 15l-.8-7.8c0-.9.8-1.7 1.7-1.7.3 0 .6.1.8.2l3.5 2.6 2.3-.8.8 1.6-3.5 1.5c-.1-.1-1.6-1.2-2.7-2.1L7 12l5.3 4.5 1.7 5.2h3.5c.6 0 1.2-.1 1.8-.4.6-.2 1.1-.6 1.5-1M7 21.7h5l-1.6-3.9-2.3-1.9 1.2 2.5L7 21.7Z" transform="matrix(1.5 0 0 1.5 0 180)" id="mdi-ski-water" fill="#555"/><path d="M4.2 3.5c0-.8.7-1.6 1.6-1.6.9 0 1.6.7 1.6 1.6S6.6 5 5.8 5s-1.6-.7-1.6-1.5m17.8.4-.5-.9-8 4.1.5.9 8-4.1m-1.2 16.4.9.9c-.6.6-1.2 1-1.9 1.3s-1.5.5-2.3.5H2v-1.3h2.7l2.1-3.5L4.5 15l-.8-7.8c0-.9.8-1.7 1.7-1.7.3 0 .6.1.8.2l3.5 2.6 2.3-.8.8 1.6-3.5 1.5c-.1-.1-1.6-1.2-2.7-2.1L7 12l5.3 4.5 1.7 5.2h3.5c.6 0 1.2-.1 1.8-.4.6-.2 1.1-.6 1.5-1M7 21.7h5l-1.6-3.9-2.3-1.9 1.2 2.5L7 21.7Z" transform="matrix(1.5 0 0 1.5 36 180)" id="mdi-ski-water" fill="#fff"/><path d="M20 5v14l-7-7M6 5v14H4V5m9 0v14l-7-7" transform="matrix(1.5 0 0 1.5 72 180)" id="mdi-skip-backward" fill="#555"/><path d="M20 5v14l-7-7M6 5v14H4V5m9 0v14l-7-7" transform="matrix(1.5 0 0 1.5 108 180)" id="mdi-skip-backward" fill="#fff"/><path d="M18 14.17 15.83 12 18 9.83v4.34M20 19V5l-7 7m-9 7h2V5H4m7 9.17L8.83 12 11 9.83v4.34M13 19V5l-7 7" transform="matrix(1.5 0 0 1.5 144 180)" id="mdi-skip-backward-outline" fill="#555"/><path d="M18 14.17 15.83 12 18 9.83v4.34M20 19V5l-7 7m-9 7h2V5H4m7 9.17L8.83 12 11 9.83v4.34M13 19V5l-7 7" transform="matrix(1.5 0 0 1.5 180 180)" id="mdi-skip-backward-outline" fill="#fff"/><path d="M4 5v14l7-7m7-7v14h2V5m-9 0v14l7-7" transform="matrix(1.5 0 0 1.5 216 180)" id="mdi-skip-forward" fill="#555"/><path d="M4 5v14l7-7m7-7v14h2V5m-9 0v14l7-7" transform="matrix(1.5 0 0 1.5 252 180)" id="mdi-skip-forward" fill="#fff"/><path d="M6 9.83 8.17 12 6 14.17V9.83M4 5v14l7-7m9-7h-2v14h2m-7-9.17L15.17 12 13 14.17V9.83M11 5v14l7-7" transform="matrix(1.5 0 0 1.5 288 180)" id="mdi-skip-forward-outline" fill="#555"/><path d="M6 9.83 8.17 12 6 14.17V9.83M4 5v14l7-7m9-7h-2v14h2m-7-9.17L15.17 12 13 14.17V9.83M11 5v14l7-7" transform="matrix(1.5 0 0 1.5 324 180)" id="mdi-skip-forward-outline" fill="#fff"/><path d="M16 18h2V6h-2M6 18l8.5-6L6 6v12Z" transform="matrix(1.5 0 0 1.5 360 180)" id="mdi-skip-next" fill="#555"/><path d="M16 18h2V6h-2M6 18l8.5-6L6 6v12Z" transform="matrix(1.5 0 0 1.5 396 180)" id="mdi-skip-next" fill="#fff"/><path d="M12 2A10 10 0 0 0 2 12a10 10 0 0 0 10 10 10 10 0 0 0 10-10A10 10 0 0 0 12 2M8 8l5 4-5 4m6-8h2v8h-2" transform="matrix(1.5 0 0 1.5 432 180)" id="mdi-skip-next-circle" fill="#555"/><path d="M12 2A10 10 0 0 0 2 12a10 10 0 0 0 10 10 10 10 0 0 0 10-10A10 10 0 0 0 12 2M8 8l5 4-5 4m6-8h2v8h-2" transform="matrix(1.5 0 0 1.5 468 180)" id="mdi-skip-next-circle" fill="#fff"/><path d="M12 2A10 10 0 0 0 2 12a10 10 0 0 0 10 10 10 10 0 0 0 10-10A10 10 0 0 0 12 2m0 2c4.41 0 8 3.59 8 8s-3.59 8-8 8-8-3.59-8-8 3.59-8 8-8M8 8v8l5-4m1-4v8h2V8" transform="matrix(1.5 0 0 1.5 504 180)" id="mdi-skip-next-circle-outline" fill="#555"/><path d="M12 2A10 10 0 0 0 2 12a10 10 0 0 0 10 10 10 10 0 0 0 10-10A10 10 0 0 0 12 2m0 2c4.41 0 8 3.59 8 8s-3.59 8-8 8-8-3.59-8-8 3.59-8 8-8M8 8v8l5-4m1-4v8h2V8" transform="matrix(1.5 0 0 1.5 540 180)" id="mdi-skip-next-circle-outline" fill="#fff"/><path d="m6 18 8.5-6L6 6m2 3.86L11.03 12 8 14.14M16 6h2v12h-2" transform="matrix(1.5 0 0 1.5 576 180)" id="mdi-skip-next-outline" fill="#555"/><path d="m6 18 8.5-6L6 6m2 3.86L11.03 12 8 14.14M16 6h2v12h-2" transform="matrix(1.5 0 0 1.5 612 180)" id="mdi-skip-next-outline" fill="#fff"/><path d="M6 18V6h2v12H6m3.5-6L18 6v12l-8.5-6Z" transform="matrix(1.5 0 0 1.5 648 180)" id="mdi-skip-previous" fill="#555"/><path d="M6 18V6h2v12H6m3.5-6L18 6v12l-8.5-6Z" transform="matrix(1.5 0 0 1.5 684 180)" id="mdi-skip-previous" fill="#fff"/><path d="M12 2A10 10 0 0 0 2 12a10 10 0 0 0 10 10 10 10 0 0 0 10-10A10 10 0 0 0 12 2M8 8h2v8H8m8-8v8l-5-4" transform="matrix(1.5 0 0 1.5 0 216)" id="mdi-skip-previous-circle" fill="#555"/><path d="M12 2A10 10 0 0 0 2 12a10 10 0 0 0 10 10 10 10 0 0 0 10-10A10 10 0 0 0 12 2M8 8h2v8H8m8-8v8l-5-4" transform="matrix(1.5 0 0 1.5 36 216)" id="mdi-skip-previous-circle" fill="#fff"/><path d="M12 2a10 10 0 0 1 10 10 10 10 0 0 1-10 10A10 10 0 0 1 2 12 10 10 0 0 1 12 2m0 2c-4.41 0-8 3.59-8 8s3.59 8 8 8 8-3.59 8-8-3.59-8-8-8m4 4v8l-5-4m-1-4v8H8V8" transform="matrix(1.5 0 0 1.5 72 216)" id="mdi-skip-previous-circle-outline" fill="#555"/><path d="M12 2a10 10 0 0 1 10 10 10 10 0 0 1-10 10A10 10 0 0 1 2 12 10 10 0 0 1 12 2m0 2c-4.41 0-8 3.59-8 8s3.59 8 8 8 8-3.59 8-8-3.59-8-8-8m4 4v8l-5-4m-1-4v8H8V8" transform="matrix(1.5 0 0 1.5 108 216)" id="mdi-skip-previous-circle-outline" fill="#fff"/><path d="M6 6h2v12H6m3.5-6 8.5 6V6m-2 8.14L12.97 12 16 9.86v4.28Z" transform="matrix(1.5 0 0 1.5 144 216)" id="mdi-skip-previous-outline" fill="#555"/><path d="M6 6h2v12H6m3.5-6 8.5 6V6m-2 8.14L12.97 12 16 9.86v4.28Z" transform="matrix(1.5 0 0 1.5 180 216)" id="mdi-skip-previous-outline" fill="#fff"/><path d="M12 2a9 9 0 0 0-9 9 8.99 8.99 0 0 0 4 7.47V22h2v-3h2v3h2v-3h2v3h2v-3.54c2.47-1.65 4-4.46 4-7.46a9 9 0 0 0-9-9m-4 9a2 2 0 0 1 2 2 2 2 0 0 1-2 2 2 2 0 0 1-2-2 2 2 0 0 1 2-2m8 0a2 2 0 0 1 2 2 2 2 0 0 1-2 2 2 2 0 0 1-2-2 2 2 0 0 1 2-2m-4 3 1.5 3h-3l1.5-3Z" transform="matrix(1.5 0 0 1.5 216 216)" id="mdi-skull" fill="#555"/><path d="M12 2a9 9 0 0 0-9 9 8.99 8.99 0 0 0 4 7.47V22h2v-3h2v3h2v-3h2v3h2v-3.54c2.47-1.65 4-4.46 4-7.46a9 9 0 0 0-9-9m-4 9a2 2 0 0 1 2 2 2 2 0 0 1-2 2 2 2 0 0 1-2-2 2 2 0 0 1 2-2m8 0a2 2 0 0 1 2 2 2 2 0 0 1-2 2 2 2 0 0 1-2-2 2 2 0 0 1 2-2m-4 3 1.5 3h-3l1.5-3Z" transform="matrix(1.5 0 0 1.5 252 216)" id="mdi-skull" fill="#fff"/><path d="m15.8 18.5 6 1.6-.4 1.9-9.4-2.5L2.6 22l-.5-1.9 6-1.6L2 16.9l.5-1.9 9.4 2.5 9.4-2.5.5 1.9-6 1.6M18 8c0 1.8-.8 3.3-2 4.4V15h-2v-2h-1v2h-2v-2h-1v2H8v-2.6C6.8 11.3 6 9.8 6 8a6 6 0 0 1 6-6 6 6 0 0 1 6 6m-7-.5c0-.8-.7-1.5-1.5-1.5S8 6.7 8 7.5 8.7 9 9.5 9 11 8.3 11 7.5m2 3.5-1-2-1 2h2m3-3.5c0-.8-.7-1.5-1.5-1.5S13 6.7 13 7.5 13.7 9 14.5 9 16 8.3 16 7.5Z" transform="matrix(1.5 0 0 1.5 288 216)" id="mdi-skull-crossbones" fill="#555"/><path d="m15.8 18.5 6 1.6-.4 1.9-9.4-2.5L2.6 22l-.5-1.9 6-1.6L2 16.9l.5-1.9 9.4 2.5 9.4-2.5.5 1.9-6 1.6M18 8c0 1.8-.8 3.3-2 4.4V15h-2v-2h-1v2h-2v-2h-1v2H8v-2.6C6.8 11.3 6 9.8 6 8a6 6 0 0 1 6-6 6 6 0 0 1 6 6m-7-.5c0-.8-.7-1.5-1.5-1.5S8 6.7 8 7.5 8.7 9 9.5 9 11 8.3 11 7.5m2 3.5-1-2-1 2h2m3-3.5c0-.8-.7-1.5-1.5-1.5S13 6.7 13 7.5 13.7 9 14.5 9 16 8.3 16 7.5Z" transform="matrix(1.5 0 0 1.5 324 216)" id="mdi-skull-crossbones" fill="#fff"/><path d="m15.8 18.5 6 1.6-.4 1.9-9.4-2.5L2.6 22l-.5-1.9 6-1.6L2 16.9l.5-1.9 9.4 2.5 9.4-2.5.5 1.9-6 1.6M9.5 6C8.7 6 8 6.7 8 7.5S8.7 9 9.5 9 11 8.3 11 7.5 10.3 6 9.5 6m5 0c-.8 0-1.5.7-1.5 1.5S13.7 9 14.5 9 16 8.3 16 7.5 15.3 6 14.5 6M13 11l-1-2-1 2h2M12 1C8.1 1 5 4.1 5 8c0 1.9.8 3.6 2 4.9V16h10v-3.1c1.2-1.3 2-3 2-4.9 0-3.9-3.1-7-7-7m3 11v2h-1v-2h-1v2h-2v-2h-1v2H9v-2c-1.2-.9-2-2.3-2-4 0-2.8 2.2-5 5-5s5 2.2 5 5c0 1.6-.8 3.1-2 4Z" transform="matrix(1.5 0 0 1.5 360 216)" id="mdi-skull-crossbones-outline" fill="#555"/><path d="m15.8 18.5 6 1.6-.4 1.9-9.4-2.5L2.6 22l-.5-1.9 6-1.6L2 16.9l.5-1.9 9.4 2.5 9.4-2.5.5 1.9-6 1.6M9.5 6C8.7 6 8 6.7 8 7.5S8.7 9 9.5 9 11 8.3 11 7.5 10.3 6 9.5 6m5 0c-.8 0-1.5.7-1.5 1.5S13.7 9 14.5 9 16 8.3 16 7.5 15.3 6 14.5 6M13 11l-1-2-1 2h2M12 1C8.1 1 5 4.1 5 8c0 1.9.8 3.6 2 4.9V16h10v-3.1c1.2-1.3 2-3 2-4.9 0-3.9-3.1-7-7-7m3 11v2h-1v-2h-1v2h-2v-2h-1v2H9v-2c-1.2-.9-2-2.3-2-4 0-2.8 2.2-5 5-5s5 2.2 5 5c0 1.6-.8 3.1-2 4Z" transform="matrix(1.5 0 0 1.5 396 216)" id="mdi-skull-crossbones-outline" fill="#fff"/><path d="M8 15a2 2 0 0 1-2-2 2 2 0 0 1 2-2 2 2 0 0 1 2 2 2 2 0 0 1-2 2m2.5 2 1.5-3 1.5 3h-3m5.5-2a2 2 0 0 1-2-2 2 2 0 0 1 2-2 2 2 0 0 1 2 2 2 2 0 0 1-2 2m6-4A10 10 0 0 0 12 1 10 10 0 0 0 2 11c0 2.8 1.2 5.3 3 7.1V22h14v-3.9c1.8-1.8 3-4.3 3-7.1m-5 9h-2v-2h-2v2h-2v-2H9v2H7v-2.8c-1.8-1.5-3-3.7-3-6.2a8 8 0 0 1 8-8 8 8 0 0 1 8 8c0 2.5-1.2 4.8-3 6.2V20Z" transform="matrix(1.5 0 0 1.5 432 216)" id="mdi-skull-outline" fill="#555"/><path d="M8 15a2 2 0 0 1-2-2 2 2 0 0 1 2-2 2 2 0 0 1 2 2 2 2 0 0 1-2 2m2.5 2 1.5-3 1.5 3h-3m5.5-2a2 2 0 0 1-2-2 2 2 0 0 1 2-2 2 2 0 0 1 2 2 2 2 0 0 1-2 2m6-4A10 10 0 0 0 12 1 10 10 0 0 0 2 11c0 2.8 1.2 5.3 3 7.1V22h14v-3.9c1.8-1.8 3-4.3 3-7.1m-5 9h-2v-2h-2v2h-2v-2H9v2H7v-2.8c-1.8-1.5-3-3.7-3-6.2a8 8 0 0 1 8-8 8 8 0 0 1 8 8c0 2.5-1.2 4.8-3 6.2V20Z" transform="matrix(1.5 0 0 1.5 468 216)" id="mdi-skull-outline" fill="#fff"/><path d="M2 0C.9 0 0 .9 0 2v4h2V2h4V0H2m16 0v2h4v4h2V2c0-1.1-.9-2-2-2h-4m-6 3c-4.4 0-8 3.6-8 8 0 2.5 1.2 4.8 3 6.2V21h2v-3h2v3h2v-3h2v3h2v-3.8c1.8-1.5 3-3.7 3-6.2 0-4.4-3.6-8-8-8M8 14c-1.1 0-2-.9-2-2s.9-2 2-2 2 .9 2 2-.9 2-2 2m2.5 2 1.5-3 1.5 3h-3m5.5-2c-1.1 0-2-.9-2-2s.9-2 2-2 2 .9 2 2-.9 2-2 2M0 18v4c0 1.1.9 2 2 2h4v-2H2v-4H0m22 0v4h-4v2h4c1.1 0 2-.9 2-2v-4h-2Z" transform="matrix(1.5 0 0 1.5 504 216)" id="mdi-skull-scan" fill="#555"/><path d="M2 0C.9 0 0 .9 0 2v4h2V2h4V0H2m16 0v2h4v4h2V2c0-1.1-.9-2-2-2h-4m-6 3c-4.4 0-8 3.6-8 8 0 2.5 1.2 4.8 3 6.2V21h2v-3h2v3h2v-3h2v3h2v-3.8c1.8-1.5 3-3.7 3-6.2 0-4.4-3.6-8-8-8M8 14c-1.1 0-2-.9-2-2s.9-2 2-2 2 .9 2 2-.9 2-2 2m2.5 2 1.5-3 1.5 3h-3m5.5-2c-1.1 0-2-.9-2-2s.9-2 2-2 2 .9 2 2-.9 2-2 2M0 18v4c0 1.1.9 2 2 2h4v-2H2v-4H0m22 0v4h-4v2h4c1.1 0 2-.9 2-2v-4h-2Z" transform="matrix(1.5 0 0 1.5 540 216)" id="mdi-skull-scan" fill="#fff"/><path d="M2 0C.9 0 0 .9 0 2v4h2V2h4V0H2m16 0v2h4v4h2V2c0-1.1-.9-2-2-2h-4M9.5 13c-.8 0-1.5-.7-1.5-1.5S8.7 10 9.5 10s1.5.7 1.5 1.5-.7 1.5-1.5 1.5m1.5 2 1-2 1 2h-2m3.5-2c-.8 0-1.5-.7-1.5-1.5s.7-1.5 1.5-1.5 1.5.7 1.5 1.5-.7 1.5-1.5 1.5M0 18v4c0 1.1.9 2 2 2h4v-2H2v-4H0m22 0v4h-4v2h4c1.1 0 2-.9 2-2v-4h-2M12 3c-4.4 0-8 3.6-8 8 0 2 .8 3.9 2 5.3V21h12v-4.7c1.2-1.4 2-3.2 2-5.3 0-4.4-3.6-8-8-8m4 12.4V19h-2v-2h-1v2h-2v-2h-1v2H8v-3.6c-1.2-1.1-2-2.7-2-4.4 0-3.3 2.7-6 6-6s6 2.7 6 6c0 1.8-.8 3.3-2 4.4Z" transform="matrix(1.5 0 0 1.5 576 216)" id="mdi-skull-scan-outline" fill="#555"/><path d="M2 0C.9 0 0 .9 0 2v4h2V2h4V0H2m16 0v2h4v4h2V2c0-1.1-.9-2-2-2h-4M9.5 13c-.8 0-1.5-.7-1.5-1.5S8.7 10 9.5 10s1.5.7 1.5 1.5-.7 1.5-1.5 1.5m1.5 2 1-2 1 2h-2m3.5-2c-.8 0-1.5-.7-1.5-1.5s.7-1.5 1.5-1.5 1.5.7 1.5 1.5-.7 1.5-1.5 1.5M0 18v4c0 1.1.9 2 2 2h4v-2H2v-4H0m22 0v4h-4v2h4c1.1 0 2-.9 2-2v-4h-2M12 3c-4.4 0-8 3.6-8 8 0 2 .8 3.9 2 5.3V21h12v-4.7c1.2-1.4 2-3.2 2-5.3 0-4.4-3.6-8-8-8m4 12.4V19h-2v-2h-1v2h-2v-2h-1v2H8v-3.6c-1.2-1.1-2-2.7-2-4.4 0-3.3 2.7-6 6-6s6 2.7 6 6c0 1.8-.8 3.3-2 4.4Z" transform="matrix(1.5 0 0 1.5 612 216)" id="mdi-skull-scan-outline" fill="#fff"/><path d="M18 6c2.07 2.04 2.85 4.89 2.36 7.55.41.72.64 1.56.64 2.45a5 5 0 0 1-5 5c-.89 0-1.73-.23-2.45-.64-2.66.49-5.51-.29-7.55-2.36-2.07-2.04-2.85-4.89-2.36-7.55C3.23 9.73 3 8.89 3 8a5 5 0 0 1 5-5c.89 0 1.73.23 2.45.64 2.66-.49 5.51.29 7.55 2.36m-5.96 11.16c2.87 0 4.3-1.38 4.3-3.24 0-1.19-.56-2.46-2.73-2.95l-1.99-.44c-.76-.17-1.62-.4-1.62-1.11 0-.72.6-1.22 1.7-1.22 2.23 0 2.02 1.53 3.13 1.53.58 0 1.08-.34 1.08-.93 0-1.37-2.19-2.4-4.05-2.4-2.01 0-4.16.86-4.16 3.14 0 1.1.39 2.27 2.55 2.81l2.69.68c.81.2 1.01.65 1.01 1.07 0 .68-.68 1.35-1.91 1.35-2.41 0-2.08-1.85-3.37-1.85-.58 0-1 .4-1 .97 0 1.11 1.33 2.59 4.37 2.59Z" transform="matrix(1.5 0 0 1.5 648 216)" id="mdi-skype" fill="#555"/><path d="M18 6c2.07 2.04 2.85 4.89 2.36 7.55.41.72.64 1.56.64 2.45a5 5 0 0 1-5 5c-.89 0-1.73-.23-2.45-.64-2.66.49-5.51-.29-7.55-2.36-2.07-2.04-2.85-4.89-2.36-7.55C3.23 9.73 3 8.89 3 8a5 5 0 0 1 5-5c.89 0 1.73.23 2.45.64 2.66-.49 5.51.29 7.55 2.36m-5.96 11.16c2.87 0 4.3-1.38 4.3-3.24 0-1.19-.56-2.46-2.73-2.95l-1.99-.44c-.76-.17-1.62-.4-1.62-1.11 0-.72.6-1.22 1.7-1.22 2.23 0 2.02 1.53 3.13 1.53.58 0 1.08-.34 1.08-.93 0-1.37-2.19-2.4-4.05-2.4-2.01 0-4.16.86-4.16 3.14 0 1.1.39 2.27 2.55 2.81l2.69.68c.81.2 1.01.65 1.01 1.07 0 .68-.68 1.35-1.91 1.35-2.41 0-2.08-1.85-3.37-1.85-.58 0-1 .4-1 .97 0 1.11 1.33 2.59 4.37 2.59Z" transform="matrix(1.5 0 0 1.5 684 216)" id="mdi-skype" fill="#fff"/><path d="M12.03 16.53c-2.66 0-3.85-1.31-3.85-2.29 0-.5.37-.86.88-.86 1.14 0 .85 1.62 2.97 1.62 1.09 0 1.7-.57 1.7-1.18 0-.36-.18-.76-.9-.94l-2.37-.59c-1.91-.48-2.26-1.51-2.26-2.48 0-2.02 1.9-2.78 3.68-2.78 1.62 0 3.58.91 3.58 2.12 0 .52-.46.82-.96.82-1 0-.8-1.35-2.76-1.35-.97 0-1.51.44-1.51 1.07 0 .63.77.81 1.43.99l1.76.39c1.92.43 2.41 1.55 2.41 2.6 0 1.64-1.26 2.86-3.8 2.86M18 6c2.07 2.04 2.85 4.89 2.36 7.55.41.72.64 1.56.64 2.45a5 5 0 0 1-5 5c-.89 0-1.73-.23-2.45-.64-2.66.49-5.51-.29-7.55-2.36-2.07-2.04-2.85-4.89-2.36-7.55C3.23 9.73 3 8.89 3 8a5 5 0 0 1 5-5c.89 0 1.73.23 2.45.64 2.66-.49 5.51.29 7.55 2.36M8 5a3 3 0 0 0-3 3c0 .79.3 1.5.8 2.04-.7 2.24-.17 4.78 1.6 6.56a6.527 6.527 0 0 0 6.56 1.6c.54.5 1.25.8 2.04.8a3 3 0 0 0 3-3c0-.79-.3-1.5-.8-2.04.7-2.24.17-4.78-1.6-6.56a6.527 6.527 0 0 0-6.56-1.6C9.5 5.3 8.79 5 8 5Z" transform="matrix(1.5 0 0 1.5 0 252)" id="mdi-skype-business" fill="#555"/><path d="M12.03 16.53c-2.66 0-3.85-1.31-3.85-2.29 0-.5.37-.86.88-.86 1.14 0 .85 1.62 2.97 1.62 1.09 0 1.7-.57 1.7-1.18 0-.36-.18-.76-.9-.94l-2.37-.59c-1.91-.48-2.26-1.51-2.26-2.48 0-2.02 1.9-2.78 3.68-2.78 1.62 0 3.58.91 3.58 2.12 0 .52-.46.82-.96.82-1 0-.8-1.35-2.76-1.35-.97 0-1.51.44-1.51 1.07 0 .63.77.81 1.43.99l1.76.39c1.92.43 2.41 1.55 2.41 2.6 0 1.64-1.26 2.86-3.8 2.86M18 6c2.07 2.04 2.85 4.89 2.36 7.55.41.72.64 1.56.64 2.45a5 5 0 0 1-5 5c-.89 0-1.73-.23-2.45-.64-2.66.49-5.51-.29-7.55-2.36-2.07-2.04-2.85-4.89-2.36-7.55C3.23 9.73 3 8.89 3 8a5 5 0 0 1 5-5c.89 0 1.73.23 2.45.64 2.66-.49 5.51.29 7.55 2.36M8 5a3 3 0 0 0-3 3c0 .79.3 1.5.8 2.04-.7 2.24-.17 4.78 1.6 6.56a6.527 6.527 0 0 0 6.56 1.6c.54.5 1.25.8 2.04.8a3 3 0 0 0 3-3c0-.79-.3-1.5-.8-2.04.7-2.24.17-4.78-1.6-6.56a6.527 6.527 0 0 0-6.56-1.6C9.5 5.3 8.79 5 8 5Z" transform="matrix(1.5 0 0 1.5 36 252)" id="mdi-skype-business" fill="#fff"/><path d="M6 15a2 2 0 0 1-2 2 2 2 0 0 1-2-2 2 2 0 0 1 2-2h2v2m1 0a2 2 0 0 1 2-2 2 2 0 0 1 2 2v5a2 2 0 0 1-2 2 2 2 0 0 1-2-2v-5m2-8a2 2 0 0 1-2-2 2 2 0 0 1 2-2 2 2 0 0 1 2 2v2H9m0 1a2 2 0 0 1 2 2 2 2 0 0 1-2 2H4a2 2 0 0 1-2-2 2 2 0 0 1 2-2h5m8 2a2 2 0 0 1 2-2 2 2 0 0 1 2 2 2 2 0 0 1-2 2h-2v-2m-1 0a2 2 0 0 1-2 2 2 2 0 0 1-2-2V5a2 2 0 0 1 2-2 2 2 0 0 1 2 2v5m-2 8a2 2 0 0 1 2 2 2 2 0 0 1-2 2 2 2 0 0 1-2-2v-2h2m0-1a2 2 0 0 1-2-2 2 2 0 0 1 2-2h5a2 2 0 0 1 2 2 2 2 0 0 1-2 2h-5Z" transform="matrix(1.5 0 0 1.5 72 252)" id="mdi-slack" fill="#555"/><path d="M6 15a2 2 0 0 1-2 2 2 2 0 0 1-2-2 2 2 0 0 1 2-2h2v2m1 0a2 2 0 0 1 2-2 2 2 0 0 1 2 2v5a2 2 0 0 1-2 2 2 2 0 0 1-2-2v-5m2-8a2 2 0 0 1-2-2 2 2 0 0 1 2-2 2 2 0 0 1 2 2v2H9m0 1a2 2 0 0 1 2 2 2 2 0 0 1-2 2H4a2 2 0 0 1-2-2 2 2 0 0 1 2-2h5m8 2a2 2 0 0 1 2-2 2 2 0 0 1 2 2 2 2 0 0 1-2 2h-2v-2m-1 0a2 2 0 0 1-2 2 2 2 0 0 1-2-2V5a2 2 0 0 1 2-2 2 2 0 0 1 2 2v5m-2 8a2 2 0 0 1 2 2 2 2 0 0 1-2 2 2 2 0 0 1-2-2v-2h2m0-1a2 2 0 0 1-2-2 2 2 0 0 1 2-2h5a2 2 0 0 1 2 2 2 2 0 0 1-2 2h-5Z" transform="matrix(1.5 0 0 1.5 108 252)" id="mdi-slack" fill="#fff"/><path d="m7 21 7.9-18H17L9.1 21H7Z" transform="matrix(1.5 0 0 1.5 144 252)" id="mdi-slash-forward" fill="#555"/><path d="m7 21 7.9-18H17L9.1 21H7Z" transform="matrix(1.5 0 0 1.5 180 252)" id="mdi-slash-forward" fill="#fff"/><path d="M19 3H5c-1.1 0-2 .9-2 2v14c0 1.1.9 2 2 2h14c1.1 0 2-.9 2-2V5c0-1.1-.9-2-2-2M9.3 19H7l7.7-14H17L9.3 19Z" transform="matrix(1.5 0 0 1.5 216 252)" id="mdi-slash-forward-box" fill="#555"/><path d="M19 3H5c-1.1 0-2 .9-2 2v14c0 1.1.9 2 2 2h14c1.1 0 2-.9 2-2V5c0-1.1-.9-2-2-2M9.3 19H7l7.7-14H17L9.3 19Z" transform="matrix(1.5 0 0 1.5 252 252)" id="mdi-slash-forward-box" fill="#fff"/><path d="M22.91 16.64a4.11 4.11 0 0 0-.94-1.83 3.82 3.82 0 0 0-1.77-1.12l-.43 1.45c.66.19 1.14.59 1.46 1.22.31.64.35 1.26.14 1.91-.22.66-.64 1.14-1.25 1.46s-1.24.35-1.89.13l-3.33-1.07.47-1.41 3.33 1.08.46-1.46-1.96-.6-2.06-4.49c-.19-.41-.48-.72-.87-.94-.39-.22-.82-.3-1.27-.23l-2.12.37 1.03-3.27c.15-.47.12-.93-.1-1.34-.21-.46-.57-.76-1.07-.91-.41-.13-.83-.09-1.27.09L4 8v4.1l-1.6-.52L1.94 13l3.93 1.3-.47 1.4-3.93-1.26-.47 1.4 16.76 5.48c.69.22 1.37.25 2.06.09.68-.15 1.3-.47 1.83-.91.53-.5.9-1.07 1.12-1.76.23-.74.3-1.42.14-2.1M6 9.33l1.93-.83-1.03 3.17c-.16.47-.11.94.14 1.41L6 12.75V9.33m7.5 8.99-6.69-2.15.46-1.41 6.65 2.16-.42 1.4m-4.03-4.45 3.98-.87 1.17 2.56-5.15-1.69M14 3c0 1.11-.89 2-2 2s-2-.89-2-2 .9-2 2-2 2 .9 2 2Z" transform="matrix(1.5 0 0 1.5 288 252)" id="mdi-sledding" fill="#555"/><path d="M22.91 16.64a4.11 4.11 0 0 0-.94-1.83 3.82 3.82 0 0 0-1.77-1.12l-.43 1.45c.66.19 1.14.59 1.46 1.22.31.64.35 1.26.14 1.91-.22.66-.64 1.14-1.25 1.46s-1.24.35-1.89.13l-3.33-1.07.47-1.41 3.33 1.08.46-1.46-1.96-.6-2.06-4.49c-.19-.41-.48-.72-.87-.94-.39-.22-.82-.3-1.27-.23l-2.12.37 1.03-3.27c.15-.47.12-.93-.1-1.34-.21-.46-.57-.76-1.07-.91-.41-.13-.83-.09-1.27.09L4 8v4.1l-1.6-.52L1.94 13l3.93 1.3-.47 1.4-3.93-1.26-.47 1.4 16.76 5.48c.69.22 1.37.25 2.06.09.68-.15 1.3-.47 1.83-.91.53-.5.9-1.07 1.12-1.76.23-.74.3-1.42.14-2.1M6 9.33l1.93-.83-1.03 3.17c-.16.47-.11.94.14 1.41L6 12.75V9.33m7.5 8.99-6.69-2.15.46-1.41 6.65 2.16-.42 1.4m-4.03-4.45 3.98-.87 1.17 2.56-5.15-1.69M14 3c0 1.11-.89 2-2 2s-2-.89-2-2 .9-2 2-2 2 .9 2 2Z" transform="matrix(1.5 0 0 1.5 324 252)" id="mdi-sledding" fill="#fff"/><path d="M23 12h-6v-2l3.39-4H17V4h6v2l-3.38 4H23v2m-8 4H9v-2l3.39-4H9V8h6v2l-3.38 4H15v2m-8 4H1v-2l3.39-4H1v-2h6v2l-3.38 4H7v2Z" transform="matrix(1.5 0 0 1.5 360 252)" id="mdi-sleep" fill="#555"/><path d="M23 12h-6v-2l3.39-4H17V4h6v2l-3.38 4H23v2m-8 4H9v-2l3.39-4H9V8h6v2l-3.38 4H15v2m-8 4H1v-2l3.39-4H1v-2h6v2l-3.38 4H7v2Z" transform="matrix(1.5 0 0 1.5 396 252)" id="mdi-sleep" fill="#fff"/><path d="M2 5.27 3.28 4 20 20.72 18.73 22l-6-6H9v-2l.79-.94L2 5.27M23 12h-6v-2l3.39-4H17V4h6v2l-3.38 4H23v2M9.82 8H15v2l-1.46 1.72L9.82 8M7 20H1v-2l3.39-4H1v-2h6v2l-3.38 4H7v2Z" transform="matrix(1.5 0 0 1.5 432 252)" id="mdi-sleep-off" fill="#555"/><path d="M2 5.27 3.28 4 20 20.72 18.73 22l-6-6H9v-2l.79-.94L2 5.27M23 12h-6v-2l3.39-4H17V4h6v2l-3.38 4H23v2M9.82 8H15v2l-1.46 1.72L9.82 8M7 20H1v-2l3.39-4H1v-2h6v2l-3.38 4H7v2Z" transform="matrix(1.5 0 0 1.5 468 252)" id="mdi-sleep-off" fill="#fff"/><path d="M14.83 15.45c-.36-.55-.65-1.06-.92-1.53-1.17-2.01-2.12-3.37-4.91-3.79V5.5C9 3.57 7.43 2 5.5 2S2 3.57 2 5.5V22h2v-2h3v2h2v-9.84c1.76.34 2.29 1.23 3.17 2.76.29.51.61 1.05 1 1.64C15.41 19.92 17.67 22 22 22v-2c-3.47 0-5.2-1.6-7.17-4.55M5.5 4C6.33 4 7 4.67 7 5.5V10H4V5.5C4 4.67 4.67 4 5.5 4M4 18v-2h3v2H4m3-4H4v-2h3v2Z" transform="matrix(1.5 0 0 1.5 504 252)" id="mdi-slide" fill="#555"/><path d="M14.83 15.45c-.36-.55-.65-1.06-.92-1.53-1.17-2.01-2.12-3.37-4.91-3.79V5.5C9 3.57 7.43 2 5.5 2S2 3.57 2 5.5V22h2v-2h3v2h2v-9.84c1.76.34 2.29 1.23 3.17 2.76.29.51.61 1.05 1 1.64C15.41 19.92 17.67 22 22 22v-2c-3.47 0-5.2-1.6-7.17-4.55M5.5 4C6.33 4 7 4.67 7 5.5V10H4V5.5C4 4.67 4.67 4 5.5 4M4 18v-2h3v2H4m3-4H4v-2h3v2Z" transform="matrix(1.5 0 0 1.5 540 252)" id="mdi-slide" fill="#fff"/><path d="M22 19v3H2v-9l20 6M19.09 7.5l-.84 2.76-10.12-3A2.89 2.89 0 0 0 5.1 4.5a2.89 2.89 0 0 0-2.76 3.03 2.897 2.897 0 0 0 5.23 1.58l10.12 3-.84 2.78 4.82-2.6-2.58-4.79Z" transform="matrix(1.5 0 0 1.5 576 252)" id="mdi-slope-downhill" fill="#555"/><path d="M22 19v3H2v-9l20 6M19.09 7.5l-.84 2.76-10.12-3A2.89 2.89 0 0 0 5.1 4.5a2.89 2.89 0 0 0-2.76 3.03 2.897 2.897 0 0 0 5.23 1.58l10.12 3-.84 2.78 4.82-2.6-2.58-4.79Z" transform="matrix(1.5 0 0 1.5 612 252)" id="mdi-slope-downhill" fill="#fff"/><path d="M22 13v9H2v-3l20-6m-.32-5.94-4.82-2.6.84 2.78-10.12 3a2.895 2.895 0 0 0-4.05-.62 2.895 2.895 0 0 0-.62 4.05c.94 1.3 2.76 1.57 4.05.62.71-.51 1.14-1.32 1.18-2.2l10.12-3 .84 2.78 2.58-4.81Z" transform="matrix(1.5 0 0 1.5 648 252)" id="mdi-slope-uphill" fill="#555"/><path d="M22 13v9H2v-3l20-6m-.32-5.94-4.82-2.6.84 2.78-10.12 3a2.895 2.895 0 0 0-4.05-.62 2.895 2.895 0 0 0-.62 4.05c.94 1.3 2.76 1.57 4.05.62.71-.51 1.14-1.32 1.18-2.2l10.12-3 .84 2.78 2.58-4.81Z" transform="matrix(1.5 0 0 1.5 684 252)" id="mdi-slope-uphill" fill="#fff"/><path d="m5 12 2-4V7H4v1h2l-2 4m5 0 2-4V7H8v1h2l-2 4m5 0 2-4V7h-3v1h2l-2 4m9-10c-1.1 0-2 .9-2 2 0 .7.4 1.4 1 1.7V17h-3v-2c.6 0 1-.4 1-1V5c0-.6-.4-1-1-1h-3.8c-.8-1.2-2.2-2-3.7-2s-2.9.8-3.7 2H2c-.6 0-1 .4-1 1v9c0 .6.4 1 1 1v7h15v-3h3c1.1 0 2-.9 2-2V5.7c.6-.3 1-1 1-1.7 0-1.1-.9-2-2-2m-8 17H6v-2h7v2m3-6H3V6h13v7Z" transform="matrix(1.5 0 0 1.5 0 288)" id="mdi-slot-machine" fill="#555"/><path d="m5 12 2-4V7H4v1h2l-2 4m5 0 2-4V7H8v1h2l-2 4m5 0 2-4V7h-3v1h2l-2 4m9-10c-1.1 0-2 .9-2 2 0 .7.4 1.4 1 1.7V17h-3v-2c.6 0 1-.4 1-1V5c0-.6-.4-1-1-1h-3.8c-.8-1.2-2.2-2-3.7-2s-2.9.8-3.7 2H2c-.6 0-1 .4-1 1v9c0 .6.4 1 1 1v7h15v-3h3c1.1 0 2-.9 2-2V5.7c.6-.3 1-1 1-1.7 0-1.1-.9-2-2-2m-8 17H6v-2h7v2m3-6H3V6h13v7Z" transform="matrix(1.5 0 0 1.5 36 288)" id="mdi-slot-machine" fill="#fff"/><path d="m5 12 2-4V7H4v1h2l-2 4m5 0 2-4V7H8v1h2l-2 4m5 0 2-4V7h-3v1h2l-2 4m9-10c-1.1 0-2 .9-2 2 0 .7.4 1.4 1 1.7V17h-3v-2c.6 0 1-.4 1-1V5c0-.6-.4-1-1-1h-3.8c-.8-1.2-2.2-2-3.7-2s-2.9.8-3.7 2H2c-.6 0-1 .4-1 1v9c0 .6.4 1 1 1v7h15v-3h3c1.1 0 2-.9 2-2V5.7c.6-.3 1-1 1-1.7 0-1.1-.9-2-2-2M3 6h13v7H3V6m12 14H4v-5h11v5m-2-1H6v-2h7v2Z" transform="matrix(1.5 0 0 1.5 72 288)" id="mdi-slot-machine-outline" fill="#555"/><path d="m5 12 2-4V7H4v1h2l-2 4m5 0 2-4V7H8v1h2l-2 4m5 0 2-4V7h-3v1h2l-2 4m9-10c-1.1 0-2 .9-2 2 0 .7.4 1.4 1 1.7V17h-3v-2c.6 0 1-.4 1-1V5c0-.6-.4-1-1-1h-3.8c-.8-1.2-2.2-2-3.7-2s-2.9.8-3.7 2H2c-.6 0-1 .4-1 1v9c0 .6.4 1 1 1v7h15v-3h3c1.1 0 2-.9 2-2V5.7c.6-.3 1-1 1-1.7 0-1.1-.9-2-2-2M3 6h13v7H3V6m12 14H4v-5h11v5m-2-1H6v-2h7v2Z" transform="matrix(1.5 0 0 1.5 108 288)" id="mdi-slot-machine-outline" fill="#fff"/><path d="M2 3h20a2.07 2.07 0 0 1 2 2v14a2.07 2.07 0 0 1-2 2H2a2.07 2.07 0 0 1-2-2V5a2.07 2.07 0 0 1 2-2m6 10.91C6 13.91 2 15 2 17v1h12v-1c0-2-4-3.09-6-3.09M8 6a3 3 0 1 0 3 3 3 3 0 0 0-3-3m9 4v3h4v-3h-4" transform="matrix(1.5 0 0 1.5 144 288)" id="mdi-smart-card" fill="#555"/><path d="M2 3h20a2.07 2.07 0 0 1 2 2v14a2.07 2.07 0 0 1-2 2H2a2.07 2.07 0 0 1-2-2V5a2.07 2.07 0 0 1 2-2m6 10.91C6 13.91 2 15 2 17v1h12v-1c0-2-4-3.09-6-3.09M8 6a3 3 0 1 0 3 3 3 3 0 0 0-3-3m9 4v3h4v-3h-4" transform="matrix(1.5 0 0 1.5 180 288)" id="mdi-smart-card" fill="#fff"/><path d="M2.39 1.73 1.11 3l.16.16A2.08 2.08 0 0 0 0 5v14a2.072 2.072 0 0 0 2 2h17.11l1.73 1.73 1.27-1.27L2.39 1.73M14 18H2v-1c0-2 4-3.09 6-3.09S14 15 14 17v1m-6-6c-1.66 0-3-1.34-3-3 0-.6.18-1.16.5-1.62l4.12 4.12c-.46.32-1.02.5-1.62.5m14-9H6.2l3.68 3.68c.16.13.31.28.44.44L23.5 20.29c.29-.35.5-.79.5-1.29V5a2.074 2.074 0 0 0-2-2m-1 10h-4v-3h4v3Z" transform="matrix(1.5 0 0 1.5 216 288)" id="mdi-smart-card-off" fill="#555"/><path d="M2.39 1.73 1.11 3l.16.16A2.08 2.08 0 0 0 0 5v14a2.072 2.072 0 0 0 2 2h17.11l1.73 1.73 1.27-1.27L2.39 1.73M14 18H2v-1c0-2 4-3.09 6-3.09S14 15 14 17v1m-6-6c-1.66 0-3-1.34-3-3 0-.6.18-1.16.5-1.62l4.12 4.12c-.46.32-1.02.5-1.62.5m14-9H6.2l3.68 3.68c.16.13.31.28.44.44L23.5 20.29c.29-.35.5-.79.5-1.29V5a2.074 2.074 0 0 0-2-2m-1 10h-4v-3h4v3Z" transform="matrix(1.5 0 0 1.5 252 288)" id="mdi-smart-card-off" fill="#fff"/><path d="M19 13h-2.8L15 11.8V10h4v3m3-10H6.2l2 2H22v13.8l1.5 1.49c.29-.35.5-.79.5-1.29V5a2.074 2.074 0 0 0-2-2m.11 18.46-1.27 1.27L19.11 21H2a2.072 2.072 0 0 1-2-2V5a2.08 2.08 0 0 1 1.27-1.84L1.11 3l1.28-1.27 19.72 19.73m-5-2.46L14 15.89V17H4v-1.25c0-1.66 3.34-2.5 5-2.5.78 0 1.91.19 2.91.55l-2-2c-.28.12-.58.2-.91.2a2.5 2.5 0 0 1-2.5-2.5c0-.33.08-.63.2-.91L3.11 5H2v14h15.11Z" transform="matrix(1.5 0 0 1.5 288 288)" id="mdi-smart-card-off-outline" fill="#555"/><path d="M19 13h-2.8L15 11.8V10h4v3m3-10H6.2l2 2H22v13.8l1.5 1.49c.29-.35.5-.79.5-1.29V5a2.074 2.074 0 0 0-2-2m.11 18.46-1.27 1.27L19.11 21H2a2.072 2.072 0 0 1-2-2V5a2.08 2.08 0 0 1 1.27-1.84L1.11 3l1.28-1.27 19.72 19.73m-5-2.46L14 15.89V17H4v-1.25c0-1.66 3.34-2.5 5-2.5.78 0 1.91.19 2.91.55l-2-2c-.28.12-.58.2-.91.2a2.5 2.5 0 0 1-2.5-2.5c0-.33.08-.63.2-.91L3.11 5H2v14h15.11Z" transform="matrix(1.5 0 0 1.5 324 288)" id="mdi-smart-card-off-outline" fill="#fff"/><path d="M22 3H2a2.07 2.07 0 0 0-2 2v14a2.07 2.07 0 0 0 2 2h20a2.07 2.07 0 0 0 2-2V5a2.07 2.07 0 0 0-2-2m0 16H2V5h20m-8 12v-1.25c0-1.66-3.34-2.5-5-2.5s-5 .84-5 2.5V17h10M9 7a2.5 2.5 0 1 0 2.5 2.5A2.5 2.5 0 0 0 9 7m6 3v3h4v-3h-4" transform="matrix(1.5 0 0 1.5 360 288)" id="mdi-smart-card-outline" fill="#555"/><path d="M22 3H2a2.07 2.07 0 0 0-2 2v14a2.07 2.07 0 0 0 2 2h20a2.07 2.07 0 0 0 2-2V5a2.07 2.07 0 0 0-2-2m0 16H2V5h20m-8 12v-1.25c0-1.66-3.34-2.5-5-2.5s-5 .84-5 2.5V17h10M9 7a2.5 2.5 0 1 0 2.5 2.5A2.5 2.5 0 0 0 9 7m6 3v3h4v-3h-4" transform="matrix(1.5 0 0 1.5 396 288)" id="mdi-smart-card-outline" fill="#fff"/><path d="M21 4a2.07 2.07 0 0 0-2-2H5a2.07 2.07 0 0 0-2 2v14h18M8.25 16H7V6h1.25c1.66 0 2.5 3.34 2.5 5s-.84 5-2.5 5m6.25-2.5A2.5 2.5 0 1 1 17 11a2.5 2.5 0 0 1-2.5 2.5M23 21v1H1v-1a2 2 0 0 1 2-2h18a2 2 0 0 1 2 2Z" transform="matrix(1.5 0 0 1.5 432 288)" id="mdi-smart-card-reader" fill="#555"/><path d="M21 4a2.07 2.07 0 0 0-2-2H5a2.07 2.07 0 0 0-2 2v14h18M8.25 16H7V6h1.25c1.66 0 2.5 3.34 2.5 5s-.84 5-2.5 5m6.25-2.5A2.5 2.5 0 1 1 17 11a2.5 2.5 0 0 1-2.5 2.5M23 21v1H1v-1a2 2 0 0 1 2-2h18a2 2 0 0 1 2 2Z" transform="matrix(1.5 0 0 1.5 468 288)" id="mdi-smart-card-reader" fill="#fff"/><path d="M14.5 8.5A2.5 2.5 0 1 0 17 11a2.5 2.5 0 0 0-2.5-2.5M8.25 6H7v10h1.25c1.66 0 2.5-3.34 2.5-5s-.84-5-2.5-5M19 2H5a2.07 2.07 0 0 0-2 2v14h2V4h14v14h2V4a2.07 2.07 0 0 0-2-2m4 20H1v-1a2 2 0 0 1 2-2h18a2 2 0 0 1 2 2Z" transform="matrix(1.5 0 0 1.5 504 288)" id="mdi-smart-card-reader-outline" fill="#555"/><path d="M14.5 8.5A2.5 2.5 0 1 0 17 11a2.5 2.5 0 0 0-2.5-2.5M8.25 6H7v10h1.25c1.66 0 2.5-3.34 2.5-5s-.84-5-2.5-5M19 2H5a2.07 2.07 0 0 0-2 2v14h2V4h14v14h2V4a2.07 2.07 0 0 0-2-2m4 20H1v-1a2 2 0 0 1 2-2h18a2 2 0 0 1 2 2Z" transform="matrix(1.5 0 0 1.5 540 288)" id="mdi-smart-card-reader-outline" fill="#fff"/><path d="M12 2c-1.92 0-3.5 1.35-3.91 3.15A3.467 3.467 0 0 0 5.5 4 3.5 3.5 0 0 0 2 7.5 3.5 3.5 0 0 0 5.5 11h1.18v1h4.04v-1h2.56v1h4.04v-1h1.18A3.5 3.5 0 0 0 22 7.5 3.5 3.5 0 0 0 18.5 4c-1.03 0-1.95.44-2.59 1.15C15.5 3.35 13.92 2 12 2M7.2 14l-.8 8H11l-.8-8h-3m6.6 0-.8 8h4.6l-.8-8h-3Z" transform="matrix(1.5 0 0 1.5 576 288)" id="mdi-smog" fill="#555"/><path d="M12 2c-1.92 0-3.5 1.35-3.91 3.15A3.467 3.467 0 0 0 5.5 4 3.5 3.5 0 0 0 2 7.5 3.5 3.5 0 0 0 5.5 11h1.18v1h4.04v-1h2.56v1h4.04v-1h1.18A3.5 3.5 0 0 0 22 7.5 3.5 3.5 0 0 0 18.5 4c-1.03 0-1.95.44-2.59 1.15C15.5 3.35 13.92 2 12 2M7.2 14l-.8 8H11l-.8-8h-3m6.6 0-.8 8h4.6l-.8-8h-3Z" transform="matrix(1.5 0 0 1.5 612 288)" id="mdi-smog" fill="#fff"/><path d="M17 19v3h-2v-3c0-1.1-.9-2-2-2h-3c-2.8 0-5-2.2-5-5 0-1.2.4-2.2 1.1-3.1C3.8 8.5 2 6.4 2 4c0-.7.2-1.4.4-2h2.4c-.5.5-.8 1.2-.8 2 0 1.7 1.3 3 3 3h3v2c-1.7 0-3 1.3-3 3s1.3 3 3 3h3c2.2 0 4 1.8 4 4m.9-10.1C20.2 8.5 22 6.4 22 4c0-.7-.2-1.4-.4-2h-2.4c.5.5.8 1.2.8 2 0 1.7-1.3 3-3 3h-1.2c.1.3.2.6.2 1 0 1.7-1.3 3-3 3v2c2.8 0 5 2.2 5 5v4h2v-4c0-2.7-1.5-5-3.8-6.2.9-.7 1.5-1.7 1.7-2.9Z" transform="matrix(1.5 0 0 1.5 648 288)" id="mdi-smoke" fill="#555"/><path d="M17 19v3h-2v-3c0-1.1-.9-2-2-2h-3c-2.8 0-5-2.2-5-5 0-1.2.4-2.2 1.1-3.1C3.8 8.5 2 6.4 2 4c0-.7.2-1.4.4-2h2.4c-.5.5-.8 1.2-.8 2 0 1.7 1.3 3 3 3h3v2c-1.7 0-3 1.3-3 3s1.3 3 3 3h3c2.2 0 4 1.8 4 4m.9-10.1C20.2 8.5 22 6.4 22 4c0-.7-.2-1.4-.4-2h-2.4c.5.5.8 1.2.8 2 0 1.7-1.3 3-3 3h-1.2c.1.3.2.6.2 1 0 1.7-1.3 3-3 3v2c2.8 0 5 2.2 5 5v4h2v-4c0-2.7-1.5-5-3.8-6.2.9-.7 1.5-1.7 1.7-2.9Z" transform="matrix(1.5 0 0 1.5 684 288)" id="mdi-smoke" fill="#fff"/><path d="M12 18a6 6 0 0 0 6-6c0-3.32-2.69-6-6-6-3.32 0-6 2.68-6 6a6 6 0 0 0 6 6m7-15a2 2 0 0 1 2 2v14a2 2 0 0 1-2 2H5a2 2 0 0 1-2-2V5c0-1.11.89-2 2-2h14M8 12a4 4 0 0 1 4-4 4 4 0 0 1 4 4 4 4 0 0 1-4 4 4 4 0 0 1-4-4Z" transform="matrix(1.5 0 0 1.5 0 324)" id="mdi-smoke-detector" fill="#555"/><path d="M12 18a6 6 0 0 0 6-6c0-3.32-2.69-6-6-6-3.32 0-6 2.68-6 6a6 6 0 0 0 6 6m7-15a2 2 0 0 1 2 2v14a2 2 0 0 1-2 2H5a2 2 0 0 1-2-2V5c0-1.11.89-2 2-2h14M8 12a4 4 0 0 1 4-4 4 4 0 0 1 4 4 4 4 0 0 1-4 4 4 4 0 0 1-4-4Z" transform="matrix(1.5 0 0 1.5 36 324)" id="mdi-smoke-detector" fill="#fff"/><path d="M10 18c3.3 0 6-2.7 6-6s-2.7-6-6-6-6 2.7-6 6 2.7 6 6 6m7-15c1.1 0 2 .9 2 2v14c0 1.1-.9 2-2 2H3c-1.1 0-2-.9-2-2V5c0-1.1.9-2 2-2h14M6 12c0-2.2 1.8-4 4-4s4 1.8 4 4-1.8 4-4 4-4-1.8-4-4m17-5h-2v6h2V8m0 7h-2v2h2v-2Z" transform="matrix(1.5 0 0 1.5 72 324)" id="mdi-smoke-detector-alert" fill="#555"/><path d="M10 18c3.3 0 6-2.7 6-6s-2.7-6-6-6-6 2.7-6 6 2.7 6 6 6m7-15c1.1 0 2 .9 2 2v14c0 1.1-.9 2-2 2H3c-1.1 0-2-.9-2-2V5c0-1.1.9-2 2-2h14M6 12c0-2.2 1.8-4 4-4s4 1.8 4 4-1.8 4-4 4-4-1.8-4-4m17-5h-2v6h2V8m0 7h-2v2h2v-2Z" transform="matrix(1.5 0 0 1.5 108 324)" id="mdi-smoke-detector-alert" fill="#fff"/><path d="M17 3H3c-1.1 0-2 .9-2 2v14c0 1.1.9 2 2 2h14c1.1 0 2-.9 2-2V5c0-1.1-.9-2-2-2m0 16H3V5h14v14m-7-1c3.3 0 6-2.7 6-6s-2.7-6-6-6-6 2.7-6 6 2.7 6 6 6m0-10c2.2 0 4 1.8 4 4s-1.8 4-4 4-4-1.8-4-4 1.8-4 4-4m13-1h-2v6h2V8m0 7h-2v2h2v-2Z" transform="matrix(1.5 0 0 1.5 144 324)" id="mdi-smoke-detector-alert-outline" fill="#555"/><path d="M17 3H3c-1.1 0-2 .9-2 2v14c0 1.1.9 2 2 2h14c1.1 0 2-.9 2-2V5c0-1.1-.9-2-2-2m0 16H3V5h14v14m-7-1c3.3 0 6-2.7 6-6s-2.7-6-6-6-6 2.7-6 6 2.7 6 6 6m0-10c2.2 0 4 1.8 4 4s-1.8 4-4 4-4-1.8-4-4 1.8-4 4-4m13-1h-2v6h2V8m0 7h-2v2h2v-2Z" transform="matrix(1.5 0 0 1.5 180 324)" id="mdi-smoke-detector-alert-outline" fill="#fff"/><path d="M12 8c2.21 0 4 1.79 4 4 0 .25-.03.5-.07.73l-4.66-4.66c.23-.04.48-.07.73-.07m0-2c3.31 0 6 2.68 6 6 0 .83-.18 1.6-.5 2.32L21 17.8V5a2 2 0 0 0-2-2H6.2l3.48 3.5C10.4 6.18 11.17 6 12 6m10.11 15.46-1.27 1.27L19.1 21H5a2 2 0 0 1-2-2V4.9L1.11 3l1.28-1.27 19.72 19.73m-6.92-4.38-1.48-1.48c-.52.25-1.09.4-1.71.4-2.21 0-4-1.79-4-4 0-.61.15-1.19.4-1.71L6.92 8.81C6.34 9.74 6 10.83 6 12c0 3.31 2.69 6 6 6 1.17 0 2.26-.34 3.19-.92Z" transform="matrix(1.5 0 0 1.5 216 324)" id="mdi-smoke-detector-off" fill="#555"/><path d="M12 8c2.21 0 4 1.79 4 4 0 .25-.03.5-.07.73l-4.66-4.66c.23-.04.48-.07.73-.07m0-2c3.31 0 6 2.68 6 6 0 .83-.18 1.6-.5 2.32L21 17.8V5a2 2 0 0 0-2-2H6.2l3.48 3.5C10.4 6.18 11.17 6 12 6m10.11 15.46-1.27 1.27L19.1 21H5a2 2 0 0 1-2-2V4.9L1.11 3l1.28-1.27 19.72 19.73m-6.92-4.38-1.48-1.48c-.52.25-1.09.4-1.71.4-2.21 0-4-1.79-4-4 0-.61.15-1.19.4-1.71L6.92 8.81C6.34 9.74 6 10.83 6 12c0 3.31 2.69 6 6 6 1.17 0 2.26-.34 3.19-.92Z" transform="matrix(1.5 0 0 1.5 252 324)" id="mdi-smoke-detector-off" fill="#fff"/><path d="m8.2 5-2-2H19a2 2 0 0 1 2 2v12.8l-2-2V5H8.2m9.3 9.32c.32-.72.5-1.49.5-2.32 0-3.32-2.69-6-6-6-.83 0-1.6.18-2.32.5l1.59 1.57c.23-.04.48-.07.73-.07 2.21 0 4 1.79 4 4 0 .25-.03.5-.07.73l1.57 1.59m4.61 7.14-1.27 1.27L19.1 21H5a2 2 0 0 1-2-2V4.9L1.11 3l1.28-1.27 19.72 19.73M8 12c0 2.21 1.79 4 4 4 .62 0 1.19-.15 1.71-.4L8.4 10.29c-.25.52-.4 1.1-.4 1.71m9.11 7-1.92-1.92c-.93.58-2.02.92-3.19.92-3.31 0-6-2.69-6-6 0-1.17.34-2.26.92-3.19L5 6.89V19h12.11Z" transform="matrix(1.5 0 0 1.5 288 324)" id="mdi-smoke-detector-off-outline" fill="#555"/><path d="m8.2 5-2-2H19a2 2 0 0 1 2 2v12.8l-2-2V5H8.2m9.3 9.32c.32-.72.5-1.49.5-2.32 0-3.32-2.69-6-6-6-.83 0-1.6.18-2.32.5l1.59 1.57c.23-.04.48-.07.73-.07 2.21 0 4 1.79 4 4 0 .25-.03.5-.07.73l1.57 1.59m4.61 7.14-1.27 1.27L19.1 21H5a2 2 0 0 1-2-2V4.9L1.11 3l1.28-1.27 19.72 19.73M8 12c0 2.21 1.79 4 4 4 .62 0 1.19-.15 1.71-.4L8.4 10.29c-.25.52-.4 1.1-.4 1.71m9.11 7-1.92-1.92c-.93.58-2.02.92-3.19.92-3.31 0-6-2.69-6-6 0-1.17.34-2.26.92-3.19L5 6.89V19h12.11Z" transform="matrix(1.5 0 0 1.5 324 324)" id="mdi-smoke-detector-off-outline" fill="#fff"/><path d="M19 3H5c-1.11 0-2 .89-2 2v14a2 2 0 0 0 2 2h14c1.11 0 2-.89 2-2V5a2 2 0 0 0-2-2m0 16H5V5h14v14m-7-1c3.31 0 6-2.69 6-6 0-3.32-2.69-6-6-6-3.32 0-6 2.68-6 6 0 3.31 2.69 6 6 6m0-10c2.21 0 4 1.79 4 4s-1.79 4-4 4-4-1.79-4-4 1.79-4 4-4Z" transform="matrix(1.5 0 0 1.5 360 324)" id="mdi-smoke-detector-outline" fill="#555"/><path d="M19 3H5c-1.11 0-2 .89-2 2v14a2 2 0 0 0 2 2h14c1.11 0 2-.89 2-2V5a2 2 0 0 0-2-2m0 16H5V5h14v14m-7-1c3.31 0 6-2.69 6-6 0-3.32-2.69-6-6-6-3.32 0-6 2.68-6 6 0 3.31 2.69 6 6 6m0-10c2.21 0 4 1.79 4 4s-1.79 4-4 4-4-1.79-4-4 1.79-4 4-4Z" transform="matrix(1.5 0 0 1.5 396 324)" id="mdi-smoke-detector-outline" fill="#fff"/><path d="M12 4c4.41 0 8 3.59 8 8s-3.59 8-8 8-8-3.59-8-8 3.59-8 8-8m0-2C6.5 2 2 6.5 2 12s4.5 10 10 10 10-4.5 10-10S17.5 2 12 2m0 9c-.55 0-1 .45-1 1s.45 1 1 1 1-.45 1-1-.45-1-1-1m-1.28-1.7c.39-.19.82-.3 1.28-.3s.89.11 1.29.3l.71-.73c-.57-.35-1.26-.57-2-.57s-1.42.22-2 .57l.72.73M15 12c0 .46-.11.89-.3 1.29l.73.71c.36-.57.57-1.26.57-2s-.21-1.42-.57-2l-.73.72c.19.39.3.82.3 1.28m-6 0c0-.46.11-.89.3-1.28L8.57 10c-.35.58-.57 1.26-.57 2s.22 1.43.57 2l.73-.71c-.19-.4-.3-.83-.3-1.29m4.29 2.7c-.4.19-.83.3-1.29.3s-.89-.11-1.28-.3l-.72.73c.58.36 1.26.57 2 .57s1.43-.21 2-.57l-.71-.73m3.6-6.17-.72.72c.52.79.83 1.75.83 2.75s-.31 1.96-.83 2.75l.72.72C17.59 14.5 18 13.3 18 12s-.41-2.5-1.11-3.47m-7.64-.7C10.04 7.31 11 7 12 7s1.96.31 2.75.83l.72-.72a5.978 5.978 0 0 0-6.94 0l.72.72m5.5 8.34c-.79.52-1.75.83-2.75.83s-1.96-.31-2.75-.83l-.72.72C9.5 17.59 10.7 18 12 18s2.5-.41 3.47-1.11l-.72-.72m-6.92-1.42C7.31 13.96 7 13 7 12s.31-1.96.83-2.75l-.72-.72a5.978 5.978 0 0 0 0 6.94l.72-.72Z" transform="matrix(1.5 0 0 1.5 432 324)" id="mdi-smoke-detector-variant" fill="#555"/><path d="M12 4c4.41 0 8 3.59 8 8s-3.59 8-8 8-8-3.59-8-8 3.59-8 8-8m0-2C6.5 2 2 6.5 2 12s4.5 10 10 10 10-4.5 10-10S17.5 2 12 2m0 9c-.55 0-1 .45-1 1s.45 1 1 1 1-.45 1-1-.45-1-1-1m-1.28-1.7c.39-.19.82-.3 1.28-.3s.89.11 1.29.3l.71-.73c-.57-.35-1.26-.57-2-.57s-1.42.22-2 .57l.72.73M15 12c0 .46-.11.89-.3 1.29l.73.71c.36-.57.57-1.26.57-2s-.21-1.42-.57-2l-.73.72c.19.39.3.82.3 1.28m-6 0c0-.46.11-.89.3-1.28L8.57 10c-.35.58-.57 1.26-.57 2s.22 1.43.57 2l.73-.71c-.19-.4-.3-.83-.3-1.29m4.29 2.7c-.4.19-.83.3-1.29.3s-.89-.11-1.28-.3l-.72.73c.58.36 1.26.57 2 .57s1.43-.21 2-.57l-.71-.73m3.6-6.17-.72.72c.52.79.83 1.75.83 2.75s-.31 1.96-.83 2.75l.72.72C17.59 14.5 18 13.3 18 12s-.41-2.5-1.11-3.47m-7.64-.7C10.04 7.31 11 7 12 7s1.96.31 2.75.83l.72-.72a5.978 5.978 0 0 0-6.94 0l.72.72m5.5 8.34c-.79.52-1.75.83-2.75.83s-1.96-.31-2.75-.83l-.72.72C9.5 17.59 10.7 18 12 18s2.5-.41 3.47-1.11l-.72-.72m-6.92-1.42C7.31 13.96 7 13 7 12s.31-1.96.83-2.75l-.72-.72a5.978 5.978 0 0 0 0 6.94l.72-.72Z" transform="matrix(1.5 0 0 1.5 468 324)" id="mdi-smoke-detector-variant" fill="#fff"/><path d="M10 4c4.4 0 8 3.6 8 8s-3.6 8-8 8-8-3.6-8-8 3.6-8 8-8m0-2C4.5 2 0 6.5 0 12s4.5 10 10 10 10-4.5 10-10S15.5 2 10 2m0 9c-.6 0-1 .4-1 1s.4 1 1 1 1-.4 1-1-.4-1-1-1M8.7 9.3c.4-.2.8-.3 1.3-.3s.9.1 1.3.3l.7-.7c-.6-.4-1.3-.6-2-.6s-1.4.2-2 .6l.7.7M13 12c0 .5-.1.9-.3 1.3l.7.7c.4-.6.6-1.3.6-2s-.2-1.4-.6-2l-.7.7c.2.4.3.8.3 1.3m-6 0c0-.5.1-.9.3-1.3l-.7-.7c-.4.6-.6 1.3-.6 2s.2 1.4.6 2l.7-.7c-.2-.4-.3-.8-.3-1.3m4.3 2.7c-.4.2-.8.3-1.3.3s-.9-.1-1.3-.3l-.7.7c.6.4 1.3.6 2 .6s1.4-.2 2-.6l-.7-.7m3.6-6.2-.7.7c.5.8.8 1.8.8 2.8s-.3 2-.8 2.8l.7.7c.7-1 1.1-2.2 1.1-3.5s-.4-2.5-1.1-3.5m-7.7-.7C8 7.3 9 7 10 7s2 .3 2.8.8l.7-.7C12.5 6.4 11.3 6 10 6s-2.5.4-3.5 1.1l.7.7m5.6 8.4c-.8.5-1.8.8-2.8.8s-2-.3-2.8-.8l-.7.7c1 .7 2.2 1.1 3.5 1.1s2.5-.4 3.5-1.1l-.7-.7m-7-1.4C5.3 14 5 13 5 12s.3-2 .8-2.8l-.7-.7C4.4 9.5 4 10.7 4 12s.4 2.5 1.1 3.5l.7-.7M24 7h-2v6h2V8m0 7h-2v2h2v-2Z" transform="matrix(1.5 0 0 1.5 504 324)" id="mdi-smoke-detector-variant-alert" fill="#555"/><path d="M10 4c4.4 0 8 3.6 8 8s-3.6 8-8 8-8-3.6-8-8 3.6-8 8-8m0-2C4.5 2 0 6.5 0 12s4.5 10 10 10 10-4.5 10-10S15.5 2 10 2m0 9c-.6 0-1 .4-1 1s.4 1 1 1 1-.4 1-1-.4-1-1-1M8.7 9.3c.4-.2.8-.3 1.3-.3s.9.1 1.3.3l.7-.7c-.6-.4-1.3-.6-2-.6s-1.4.2-2 .6l.7.7M13 12c0 .5-.1.9-.3 1.3l.7.7c.4-.6.6-1.3.6-2s-.2-1.4-.6-2l-.7.7c.2.4.3.8.3 1.3m-6 0c0-.5.1-.9.3-1.3l-.7-.7c-.4.6-.6 1.3-.6 2s.2 1.4.6 2l.7-.7c-.2-.4-.3-.8-.3-1.3m4.3 2.7c-.4.2-.8.3-1.3.3s-.9-.1-1.3-.3l-.7.7c.6.4 1.3.6 2 .6s1.4-.2 2-.6l-.7-.7m3.6-6.2-.7.7c.5.8.8 1.8.8 2.8s-.3 2-.8 2.8l.7.7c.7-1 1.1-2.2 1.1-3.5s-.4-2.5-1.1-3.5m-7.7-.7C8 7.3 9 7 10 7s2 .3 2.8.8l.7-.7C12.5 6.4 11.3 6 10 6s-2.5.4-3.5 1.1l.7.7m5.6 8.4c-.8.5-1.8.8-2.8.8s-2-.3-2.8-.8l-.7.7c1 .7 2.2 1.1 3.5 1.1s2.5-.4 3.5-1.1l-.7-.7m-7-1.4C5.3 14 5 13 5 12s.3-2 .8-2.8l-.7-.7C4.4 9.5 4 10.7 4 12s.4 2.5 1.1 3.5l.7-.7M24 7h-2v6h2V8m0 7h-2v2h2v-2Z" transform="matrix(1.5 0 0 1.5 540 324)" id="mdi-smoke-detector-variant-alert" fill="#fff"/><path d="M22.11 21.46 2.39 1.73 1.11 3l2.95 2.95A9.888 9.888 0 0 0 2 12c0 5.5 4.5 10 10 10 2.28 0 4.37-.77 6.05-2.06l2.79 2.79 1.27-1.27M12 20c-4.41 0-8-3.59-8-8 0-1.72.56-3.31 1.5-4.62l1.43 1.44A5.98 5.98 0 0 0 6 12c0 1.3.42 2.5 1.11 3.47l.72-.72C7.31 13.96 7 13 7 12c0-.89.25-1.72.66-2.45l.74.75c-.25.51-.4 1.09-.4 1.7 0 .74.22 1.43.57 2l.73-.71c-.19-.4-.3-.83-.3-1.29 0-.33.07-.64.18-.93l3.75 3.75c-.29.11-.6.18-.93.18-.46 0-.89-.11-1.28-.3l-.72.73c.58.36 1.26.57 2 .57.61 0 1.19-.15 1.71-.4l.74.74c-.73.41-1.56.66-2.45.66-1 0-1.96-.31-2.75-.83l-.72.72C9.5 17.59 10.7 18 12 18c1.17 0 2.25-.35 3.18-.93l1.44 1.43c-1.3.94-2.9 1.5-4.62 1.5m0-12c.74 0 1.43.22 2 .57l-.71.73c-.33-.15-.69-.24-1.06-.27l-.95-.95c.22-.05.47-.08.72-.08m2.97 3.77c-.03-.37-.11-.73-.27-1.05l.73-.72c.36.58.57 1.26.57 2 0 .25-.03.5-.08.72l-.95-.95m-.22-3.94C13.96 7.31 13 7 12 7c-.54 0-1.06.09-1.55.25l-.76-.75C10.4 6.18 11.18 6 12 6c1.3 0 2.5.42 3.47 1.11l-.72.72M8.18 5 6.72 3.5C8.25 2.56 10.06 2 12 2c5.5 0 10 4.5 10 10 0 1.94-.56 3.75-1.5 5.28L19 15.83c.65-1.14 1-2.45 1-3.83 0-4.41-3.59-8-8-8-1.38 0-2.69.35-3.82 1m8.57 8.55c.16-.49.25-1.01.25-1.55 0-1-.31-1.96-.83-2.75l.72-.72C17.59 9.5 18 10.7 18 12c0 .83-.18 1.6-.5 2.32l-.75-.77Z" transform="matrix(1.5 0 0 1.5 576 324)" id="mdi-smoke-detector-variant-off" fill="#555"/><path d="M22.11 21.46 2.39 1.73 1.11 3l2.95 2.95A9.888 9.888 0 0 0 2 12c0 5.5 4.5 10 10 10 2.28 0 4.37-.77 6.05-2.06l2.79 2.79 1.27-1.27M12 20c-4.41 0-8-3.59-8-8 0-1.72.56-3.31 1.5-4.62l1.43 1.44A5.98 5.98 0 0 0 6 12c0 1.3.42 2.5 1.11 3.47l.72-.72C7.31 13.96 7 13 7 12c0-.89.25-1.72.66-2.45l.74.75c-.25.51-.4 1.09-.4 1.7 0 .74.22 1.43.57 2l.73-.71c-.19-.4-.3-.83-.3-1.29 0-.33.07-.64.18-.93l3.75 3.75c-.29.11-.6.18-.93.18-.46 0-.89-.11-1.28-.3l-.72.73c.58.36 1.26.57 2 .57.61 0 1.19-.15 1.71-.4l.74.74c-.73.41-1.56.66-2.45.66-1 0-1.96-.31-2.75-.83l-.72.72C9.5 17.59 10.7 18 12 18c1.17 0 2.25-.35 3.18-.93l1.44 1.43c-1.3.94-2.9 1.5-4.62 1.5m0-12c.74 0 1.43.22 2 .57l-.71.73c-.33-.15-.69-.24-1.06-.27l-.95-.95c.22-.05.47-.08.72-.08m2.97 3.77c-.03-.37-.11-.73-.27-1.05l.73-.72c.36.58.57 1.26.57 2 0 .25-.03.5-.08.72l-.95-.95m-.22-3.94C13.96 7.31 13 7 12 7c-.54 0-1.06.09-1.55.25l-.76-.75C10.4 6.18 11.18 6 12 6c1.3 0 2.5.42 3.47 1.11l-.72.72M8.18 5 6.72 3.5C8.25 2.56 10.06 2 12 2c5.5 0 10 4.5 10 10 0 1.94-.56 3.75-1.5 5.28L19 15.83c.65-1.14 1-2.45 1-3.83 0-4.41-3.59-8-8-8-1.38 0-2.69.35-3.82 1m8.57 8.55c.16-.49.25-1.01.25-1.55 0-1-.31-1.96-.83-2.75l.72-.72C17.59 9.5 18 10.7 18 12c0 .83-.18 1.6-.5 2.32l-.75-.77Z" transform="matrix(1.5 0 0 1.5 612 324)" id="mdi-smoke-detector-variant-off" fill="#fff"/><path d="M2 16h15v3H2v-3m18.5 0H22v3h-1.5v-3M18 16h1.5v3H18v-3m.85-8.27c.62-.61 1-1.45 1-2.38C19.85 3.5 18.35 2 16.5 2v1.5c1 0 1.85.83 1.85 1.85S17.5 7.2 16.5 7.2v1.5c2.24 0 4 1.83 4 4.07V15H22v-2.24c0-2.22-1.28-4.14-3.15-5.03m-2.82 2.47H14.5c-1 0-1.85-.98-1.85-2s.85-1.75 1.85-1.75v-1.5a3.35 3.35 0 0 0-3.35 3.35 3.35 3.35 0 0 0 3.35 3.35h1.53c1.05 0 1.97.74 1.97 2.05V15h1.5v-1.64c0-1.81-1.6-3.16-3.47-3.16Z" transform="matrix(1.5 0 0 1.5 648 324)" id="mdi-smoking" fill="#555"/><path d="M2 16h15v3H2v-3m18.5 0H22v3h-1.5v-3M18 16h1.5v3H18v-3m.85-8.27c.62-.61 1-1.45 1-2.38C19.85 3.5 18.35 2 16.5 2v1.5c1 0 1.85.83 1.85 1.85S17.5 7.2 16.5 7.2v1.5c2.24 0 4 1.83 4 4.07V15H22v-2.24c0-2.22-1.28-4.14-3.15-5.03m-2.82 2.47H14.5c-1 0-1.85-.98-1.85-2s.85-1.75 1.85-1.75v-1.5a3.35 3.35 0 0 0-3.35 3.35 3.35 3.35 0 0 0 3.35 3.35h1.53c1.05 0 1.97.74 1.97 2.05V15h1.5v-1.64c0-1.81-1.6-3.16-3.47-3.16Z" transform="matrix(1.5 0 0 1.5 684 324)" id="mdi-smoking" fill="#fff"/></svg>