<?xml version="1.0" encoding="UTF-8"?>
<!DOCTYPE svg PUBLIC "-//W3C//DTD SVG 1.1//EN" "http://www.w3.org/Graphics/SVG/1.1/DTD/svg11.dtd"><svg
  xmlns="http://www.w3.org/2000/svg" xmlns:xlink="http://www.w3.org/1999/xlink" version="1.1"
  width="720" height="900" viewBox="0 0 720 900">
    <g id="mdi-upload-outline" transform="translate(0 0) scale(1.5)" fill="#555">
      <path d="M9,10V16H15V10H19L12,3L5,10H9M12,5.8L14.2,8H13V14H11V8H9.8L12,5.8M19,18H5V20H19V18Z" />
    </g>
    <g id="mdi-upload-outline" transform="translate(36 0) scale(1.5)" fill="#fff">
      <path d="M9,10V16H15V10H19L12,3L5,10H9M12,5.8L14.2,8H13V14H11V8H9.8L12,5.8M19,18H5V20H19V18Z" />
    </g>
    <g id="mdi-usb" transform="translate(72 0) scale(1.5)" fill="#555">
      <path d="M15,7V11H16V13H13V5H15L12,1L9,5H11V13H8V10.93C8.7,10.56 9.2,9.85 9.2,9C9.2,7.78 8.21,6.8 7,6.8C5.78,6.8 4.8,7.78 4.8,9C4.8,9.85 5.3,10.56 6,10.93V13A2,2 0 0,0 8,15H11V18.05C10.29,18.41 9.8,19.15 9.8,20A2.2,2.2 0 0,0 12,22.2A2.2,2.2 0 0,0 14.2,20C14.2,19.15 13.71,18.41 13,18.05V15H16A2,2 0 0,0 18,13V11H19V7H15Z" />
    </g>
    <g id="mdi-usb" transform="translate(108 0) scale(1.5)" fill="#fff">
      <path d="M15,7V11H16V13H13V5H15L12,1L9,5H11V13H8V10.93C8.7,10.56 9.2,9.85 9.2,9C9.2,7.78 8.21,6.8 7,6.8C5.78,6.8 4.8,7.78 4.8,9C4.8,9.85 5.3,10.56 6,10.93V13A2,2 0 0,0 8,15H11V18.05C10.29,18.41 9.8,19.15 9.8,20A2.2,2.2 0 0,0 12,22.2A2.2,2.2 0 0,0 14.2,20C14.2,19.15 13.71,18.41 13,18.05V15H16A2,2 0 0,0 18,13V11H19V7H15Z" />
    </g>
    <g id="mdi-usb-flash-drive" transform="translate(144 0) scale(1.5)" fill="#555">
      <path d="M8 15C8.55 15 9 15.45 9 16C9 16.55 8.55 17 8 17C7.45 17 7 16.55 7 16C7 15.45 7.45 15 8 15M15.07 4.69L16.5 6.1L15.07 7.5L13.66 6.1L15.07 4.69M17.9 7.5L19.31 8.93L17.9 10.34L16.5 8.93L17.9 7.5M8 13C6.34 13 5 14.34 5 16C5 17.66 6.34 19 8 19C9.66 19 11 17.66 11 16C11 14.34 9.66 13 8 13M9.77 4.33L10.5 5.08L14.29 1.29C14.47 1.11 14.72 1 15 1C15.28 1 15.53 1.11 15.71 1.29L22.78 8.36L22.78 8.37C22.92 8.54 23 8.76 23 9C23 9.3 22.87 9.57 22.66 9.76L22.66 9.76L18.93 13.5L19.67 14.23L12.95 20.95C11.68 22.22 9.93 23 8 23C4.13 23 1 19.87 1 16C1 14.07 1.78 12.32 3.05 11.05L9.77 4.33M20.59 9L15 3.41L11.93 6.5L17.5 12.08L20.59 9Z" />
    </g>
    <g id="mdi-usb-flash-drive" transform="translate(180 0) scale(1.5)" fill="#fff">
      <path d="M8 15C8.55 15 9 15.45 9 16C9 16.55 8.55 17 8 17C7.45 17 7 16.55 7 16C7 15.45 7.45 15 8 15M15.07 4.69L16.5 6.1L15.07 7.5L13.66 6.1L15.07 4.69M17.9 7.5L19.31 8.93L17.9 10.34L16.5 8.93L17.9 7.5M8 13C6.34 13 5 14.34 5 16C5 17.66 6.34 19 8 19C9.66 19 11 17.66 11 16C11 14.34 9.66 13 8 13M9.77 4.33L10.5 5.08L14.29 1.29C14.47 1.11 14.72 1 15 1C15.28 1 15.53 1.11 15.71 1.29L22.78 8.36L22.78 8.37C22.92 8.54 23 8.76 23 9C23 9.3 22.87 9.57 22.66 9.76L22.66 9.76L18.93 13.5L19.67 14.23L12.95 20.95C11.68 22.22 9.93 23 8 23C4.13 23 1 19.87 1 16C1 14.07 1.78 12.32 3.05 11.05L9.77 4.33M20.59 9L15 3.41L11.93 6.5L17.5 12.08L20.59 9Z" />
    </g>
    <g id="mdi-usb-flash-drive-outline" transform="translate(216 0) scale(1.5)" fill="#555">
      <path d="M8 13C9.66 13 11 14.34 11 16C11 17.66 9.66 19 8 19C6.34 19 5 17.66 5 16C5 14.34 6.34 13 8 13M8 15C7.45 15 7 15.45 7 16C7 16.55 7.45 17 8 17C8.55 17 9 16.55 9 16C9 15.45 8.55 15 8 15M9.77 4.33L10.5 5.08L14.29 1.29C14.47 1.11 14.72 1 15 1C15.28 1 15.53 1.11 15.71 1.29L22.78 8.36L22.78 8.37C22.92 8.54 23 8.76 23 9C23 9.3 22.87 9.57 22.66 9.76L22.66 9.76L18.93 13.5L19.67 14.23L12.95 20.95C11.68 22.22 9.93 23 8 23C4.13 23 1 19.87 1 16C1 14.07 1.78 12.32 3.05 11.05L9.77 4.33M11.54 19.54L16.84 14.23L9.77 7.16L4.46 12.46C3.56 13.37 3 14.62 3 16C3 18.76 5.24 21 8 21C9.38 21 10.63 20.44 11.54 19.54M15.07 4.69L16.5 6.1L15.07 7.5L13.66 6.1L15.07 4.69M17.9 7.5L19.31 8.93L17.9 10.34L16.5 8.93L17.9 7.5M20.59 9L15 3.41L11.93 6.5L17.5 12.08L20.59 9Z" />
    </g>
    <g id="mdi-usb-flash-drive-outline" transform="translate(252 0) scale(1.5)" fill="#fff">
      <path d="M8 13C9.66 13 11 14.34 11 16C11 17.66 9.66 19 8 19C6.34 19 5 17.66 5 16C5 14.34 6.34 13 8 13M8 15C7.45 15 7 15.45 7 16C7 16.55 7.45 17 8 17C8.55 17 9 16.55 9 16C9 15.45 8.55 15 8 15M9.77 4.33L10.5 5.08L14.29 1.29C14.47 1.11 14.72 1 15 1C15.28 1 15.53 1.11 15.71 1.29L22.78 8.36L22.78 8.37C22.92 8.54 23 8.76 23 9C23 9.3 22.87 9.57 22.66 9.76L22.66 9.76L18.93 13.5L19.67 14.23L12.95 20.95C11.68 22.22 9.93 23 8 23C4.13 23 1 19.87 1 16C1 14.07 1.78 12.32 3.05 11.05L9.77 4.33M11.54 19.54L16.84 14.23L9.77 7.16L4.46 12.46C3.56 13.37 3 14.62 3 16C3 18.76 5.24 21 8 21C9.38 21 10.63 20.44 11.54 19.54M15.07 4.69L16.5 6.1L15.07 7.5L13.66 6.1L15.07 4.69M17.9 7.5L19.31 8.93L17.9 10.34L16.5 8.93L17.9 7.5M20.59 9L15 3.41L11.93 6.5L17.5 12.08L20.59 9Z" />
    </g>
    <g id="mdi-usb-port" transform="translate(288 0) scale(1.5)" fill="#555">
      <path d="M8 2C6.9 2 6 2.9 6 4V12H5V16L9 20V22H15V20L19 16V12H18V4C18 2.9 17.11 2 16 2M8 4H16V12H8M9 7V9H11V7M13 7V9H15V7Z" />
    </g>
    <g id="mdi-usb-port" transform="translate(324 0) scale(1.5)" fill="#fff">
      <path d="M8 2C6.9 2 6 2.9 6 4V12H5V16L9 20V22H15V20L19 16V12H18V4C18 2.9 17.11 2 16 2M8 4H16V12H8M9 7V9H11V7M13 7V9H15V7Z" />
    </g>
    <g id="mdi-valve" transform="translate(360 0) scale(1.5)" fill="#555">
      <path d="M4 22H2V2H4M22 2H20V22H22M17.24 5.34L13.24 9.34A3 3 0 0 0 9.24 13.34L5.24 17.34L6.66 18.76L10.66 14.76A3 3 0 0 0 14.66 10.76L18.66 6.76Z" />
    </g>
    <g id="mdi-valve" transform="translate(396 0) scale(1.5)" fill="#fff">
      <path d="M4 22H2V2H4M22 2H20V22H22M17.24 5.34L13.24 9.34A3 3 0 0 0 9.24 13.34L5.24 17.34L6.66 18.76L10.66 14.76A3 3 0 0 0 14.66 10.76L18.66 6.76Z" />
    </g>
    <g id="mdi-valve-closed" transform="translate(432 0) scale(1.5)" fill="#555">
      <path d="M22 2V22H20V13H14.82A3 3 0 0 1 9.18 13H4V22H2V2H4V11H9.18A3 3 0 0 1 14.82 11H20V2Z" />
    </g>
    <g id="mdi-valve-closed" transform="translate(468 0) scale(1.5)" fill="#fff">
      <path d="M22 2V22H20V13H14.82A3 3 0 0 1 9.18 13H4V22H2V2H4V11H9.18A3 3 0 0 1 14.82 11H20V2Z" />
    </g>
    <g id="mdi-valve-open" transform="translate(504 0) scale(1.5)" fill="#555">
      <path d="M4 22H2V2H4M22 2H20V22H22M11 4V9.18A3 3 0 0 0 11 14.82V20H13V14.82A3 3 0 0 0 13 9.18V4Z" />
    </g>
    <g id="mdi-valve-open" transform="translate(540 0) scale(1.5)" fill="#fff">
      <path d="M4 22H2V2H4M22 2H20V22H22M11 4V9.18A3 3 0 0 0 11 14.82V20H13V14.82A3 3 0 0 0 13 9.18V4Z" />
    </g>
    <g id="mdi-van-passenger" transform="translate(576 0) scale(1.5)" fill="#555">
      <path d="M3,7C1.89,7 1,7.89 1,9V17H3A3,3 0 0,0 6,20A3,3 0 0,0 9,17H15A3,3 0 0,0 18,20A3,3 0 0,0 21,17H23V13C23,11.89 22.11,11 21,11L18,7H3M3,8.5H7V11H3V8.5M9,8.5H13V11H9V8.5M15,8.5H17.5L19.46,11H15V8.5M6,15.5A1.5,1.5 0 0,1 7.5,17A1.5,1.5 0 0,1 6,18.5A1.5,1.5 0 0,1 4.5,17A1.5,1.5 0 0,1 6,15.5M18,15.5A1.5,1.5 0 0,1 19.5,17A1.5,1.5 0 0,1 18,18.5A1.5,1.5 0 0,1 16.5,17A1.5,1.5 0 0,1 18,15.5Z" />
    </g>
    <g id="mdi-van-passenger" transform="translate(612 0) scale(1.5)" fill="#fff">
      <path d="M3,7C1.89,7 1,7.89 1,9V17H3A3,3 0 0,0 6,20A3,3 0 0,0 9,17H15A3,3 0 0,0 18,20A3,3 0 0,0 21,17H23V13C23,11.89 22.11,11 21,11L18,7H3M3,8.5H7V11H3V8.5M9,8.5H13V11H9V8.5M15,8.5H17.5L19.46,11H15V8.5M6,15.5A1.5,1.5 0 0,1 7.5,17A1.5,1.5 0 0,1 6,18.5A1.5,1.5 0 0,1 4.5,17A1.5,1.5 0 0,1 6,15.5M18,15.5A1.5,1.5 0 0,1 19.5,17A1.5,1.5 0 0,1 18,18.5A1.5,1.5 0 0,1 16.5,17A1.5,1.5 0 0,1 18,15.5Z" />
    </g>
    <g id="mdi-van-utility" transform="translate(648 0) scale(1.5)" fill="#555">
      <path d="M3,7C1.89,7 1,7.89 1,9V17H3A3,3 0 0,0 6,20A3,3 0 0,0 9,17H15A3,3 0 0,0 18,20A3,3 0 0,0 21,17H23V13C23,11.89 22.11,11 21,11L18,7H3M15,8.5H17.5L19.46,11H15V8.5M6,15.5A1.5,1.5 0 0,1 7.5,17A1.5,1.5 0 0,1 6,18.5A1.5,1.5 0 0,1 4.5,17A1.5,1.5 0 0,1 6,15.5M18,15.5A1.5,1.5 0 0,1 19.5,17A1.5,1.5 0 0,1 18,18.5A1.5,1.5 0 0,1 16.5,17A1.5,1.5 0 0,1 18,15.5Z" />
    </g>
    <g id="mdi-van-utility" transform="translate(684 0) scale(1.5)" fill="#fff">
      <path d="M3,7C1.89,7 1,7.89 1,9V17H3A3,3 0 0,0 6,20A3,3 0 0,0 9,17H15A3,3 0 0,0 18,20A3,3 0 0,0 21,17H23V13C23,11.89 22.11,11 21,11L18,7H3M15,8.5H17.5L19.46,11H15V8.5M6,15.5A1.5,1.5 0 0,1 7.5,17A1.5,1.5 0 0,1 6,18.5A1.5,1.5 0 0,1 4.5,17A1.5,1.5 0 0,1 6,15.5M18,15.5A1.5,1.5 0 0,1 19.5,17A1.5,1.5 0 0,1 18,18.5A1.5,1.5 0 0,1 16.5,17A1.5,1.5 0 0,1 18,15.5Z" />
    </g>
    <g id="mdi-vanish" transform="translate(0 36) scale(1.5)" fill="#555">
      <path d="M16,13V11H21V13H16M14.83,7.76L17.66,4.93L19.07,6.34L16.24,9.17L14.83,7.76M11,16H13V21H11V16M11,3H13V8H11V3M4.93,17.66L7.76,14.83L9.17,16.24L6.34,19.07L4.93,17.66M4.93,6.34L6.34,4.93L9.17,7.76L7.76,9.17L4.93,6.34M8,13H3V11H8V13M19.07,17.66L17.66,19.07L14.83,16.24L16.24,14.83L19.07,17.66Z" />
    </g>
    <g id="mdi-vanish" transform="translate(36 36) scale(1.5)" fill="#fff">
      <path d="M16,13V11H21V13H16M14.83,7.76L17.66,4.93L19.07,6.34L16.24,9.17L14.83,7.76M11,16H13V21H11V16M11,3H13V8H11V3M4.93,17.66L7.76,14.83L9.17,16.24L6.34,19.07L4.93,17.66M4.93,6.34L6.34,4.93L9.17,7.76L7.76,9.17L4.93,6.34M8,13H3V11H8V13M19.07,17.66L17.66,19.07L14.83,16.24L16.24,14.83L19.07,17.66Z" />
    </g>
    <g id="mdi-vanish-quarter" transform="translate(72 36) scale(1.5)" fill="#555">
      <path d="M11 3H13V8H11V3M4.9 6.3L6.3 4.9L9.1 7.7L7.8 9.2L4.9 6.3M8 13H3V11H8V13" />
    </g>
    <g id="mdi-vanish-quarter" transform="translate(108 36) scale(1.5)" fill="#fff">
      <path d="M11 3H13V8H11V3M4.9 6.3L6.3 4.9L9.1 7.7L7.8 9.2L4.9 6.3M8 13H3V11H8V13" />
    </g>
    <g id="mdi-vanity-light" transform="translate(144 36) scale(1.5)" fill="#555">
      <path d="M22 20H16C16 18.34 17.34 13 19 13S22 18.34 22 20M12 13C10.34 13 9 18.34 9 20H15C15 18.34 13.66 13 12 13M5 13C3.34 13 2 18.34 2 20H8C8 18.34 6.66 13 5 13M14.82 6C14.26 4.44 12.53 3.64 11 4.2C10.14 4.5 9.5 5.17 9.18 6H2V8H4V12H6V8H9.18C9.5 8.85 10.15 9.5 11 9.82V12H13V9.82C13.85 9.5 14.5 8.85 14.82 8H18V12H20V8H22V6H14.82Z" />
    </g>
    <g id="mdi-vanity-light" transform="translate(180 36) scale(1.5)" fill="#fff">
      <path d="M22 20H16C16 18.34 17.34 13 19 13S22 18.34 22 20M12 13C10.34 13 9 18.34 9 20H15C15 18.34 13.66 13 12 13M5 13C3.34 13 2 18.34 2 20H8C8 18.34 6.66 13 5 13M14.82 6C14.26 4.44 12.53 3.64 11 4.2C10.14 4.5 9.5 5.17 9.18 6H2V8H4V12H6V8H9.18C9.5 8.85 10.15 9.5 11 9.82V12H13V9.82C13.85 9.5 14.5 8.85 14.82 8H18V12H20V8H22V6H14.82Z" />
    </g>
    <g id="mdi-variable" transform="translate(216 36) scale(1.5)" fill="#555">
      <path d="M20.41,3C21.8,5.71 22.35,8.84 22,12C21.8,15.16 20.7,18.29 18.83,21L17.3,20C18.91,17.57 19.85,14.8 20,12C20.34,9.2 19.89,6.43 18.7,4L20.41,3M5.17,3L6.7,4C5.09,6.43 4.15,9.2 4,12C3.66,14.8 4.12,17.57 5.3,20L3.61,21C2.21,18.29 1.65,15.17 2,12C2.2,8.84 3.3,5.71 5.17,3M12.08,10.68L14.4,7.45H16.93L13.15,12.45L15.35,17.37H13.09L11.71,14L9.28,17.33H6.76L10.66,12.21L8.53,7.45H10.8L12.08,10.68Z" />
    </g>
    <g id="mdi-variable" transform="translate(252 36) scale(1.5)" fill="#fff">
      <path d="M20.41,3C21.8,5.71 22.35,8.84 22,12C21.8,15.16 20.7,18.29 18.83,21L17.3,20C18.91,17.57 19.85,14.8 20,12C20.34,9.2 19.89,6.43 18.7,4L20.41,3M5.17,3L6.7,4C5.09,6.43 4.15,9.2 4,12C3.66,14.8 4.12,17.57 5.3,20L3.61,21C2.21,18.29 1.65,15.17 2,12C2.2,8.84 3.3,5.71 5.17,3M12.08,10.68L14.4,7.45H16.93L13.15,12.45L15.35,17.37H13.09L11.71,14L9.28,17.33H6.76L10.66,12.21L8.53,7.45H10.8L12.08,10.68Z" />
    </g>
    <g id="mdi-variable-box" transform="translate(288 36) scale(1.5)" fill="#555">
      <path d="M19 3H5C3.9 3 3 3.9 3 5V19C3 20.1 3.9 21 5 21H19C20.1 21 21 20.1 21 19V5C21 3.9 20.1 3 19 3M7.4 18C5.9 16.5 5 14.3 5 12S5.9 7.5 7.4 6L9 6.7C7.7 7.9 7 9.9 7 12S7.7 16.1 9 17.3L7.4 18M12.7 15L11.9 13L10.5 15H9L11.3 11.9L10 9H11.3L12.1 11L13.5 9H15L12.8 12L14.1 15H12.7M16.6 18L15 17.3C16.3 16 17 14.1 17 12S16.3 7.9 15 6.7L16.6 6C18.1 7.5 19 9.7 19 12S18.1 16.5 16.6 18Z" />
    </g>
    <g id="mdi-variable-box" transform="translate(324 36) scale(1.5)" fill="#fff">
      <path d="M19 3H5C3.9 3 3 3.9 3 5V19C3 20.1 3.9 21 5 21H19C20.1 21 21 20.1 21 19V5C21 3.9 20.1 3 19 3M7.4 18C5.9 16.5 5 14.3 5 12S5.9 7.5 7.4 6L9 6.7C7.7 7.9 7 9.9 7 12S7.7 16.1 9 17.3L7.4 18M12.7 15L11.9 13L10.5 15H9L11.3 11.9L10 9H11.3L12.1 11L13.5 9H15L12.8 12L14.1 15H12.7M16.6 18L15 17.3C16.3 16 17 14.1 17 12S16.3 7.9 15 6.7L16.6 6C18.1 7.5 19 9.7 19 12S18.1 16.5 16.6 18Z" />
    </g>
    <g id="mdi-vector-arrange-above" transform="translate(360 36) scale(1.5)" fill="#555">
      <path d="M3,1C1.89,1 1,1.89 1,3V14C1,15.11 1.89,16 3,16C6.67,16 10.33,16 14,16C15.11,16 16,15.11 16,14C16,10.33 16,6.67 16,3C16,1.89 15.11,1 14,1H3M3,3H14V14H3V3M18,7V9H20V20H9V18H7V20C7,21.11 7.89,22 9,22H20C21.11,22 22,21.11 22,20V9C22,7.89 21.11,7 20,7H18Z" />
    </g>
    <g id="mdi-vector-arrange-above" transform="translate(396 36) scale(1.5)" fill="#fff">
      <path d="M3,1C1.89,1 1,1.89 1,3V14C1,15.11 1.89,16 3,16C6.67,16 10.33,16 14,16C15.11,16 16,15.11 16,14C16,10.33 16,6.67 16,3C16,1.89 15.11,1 14,1H3M3,3H14V14H3V3M18,7V9H20V20H9V18H7V20C7,21.11 7.89,22 9,22H20C21.11,22 22,21.11 22,20V9C22,7.89 21.11,7 20,7H18Z" />
    </g>
    <g id="mdi-vector-arrange-below" transform="translate(432 36) scale(1.5)" fill="#555">
      <path d="M20,22C21.11,22 22,21.11 22,20V9C22,7.89 21.11,7 20,7C16.33,7 12.67,7 9,7C7.89,7 7,7.89 7,9C7,12.67 7,16.33 7,20C7,21.11 7.89,22 9,22H20M20,20H9V9H20V20M5,16V14H3V3H14V5H16V3C16,1.89 15.11,1 14,1H3C1.89,1 1,1.89 1,3V14C1,15.11 1.89,16 3,16H5Z" />
    </g>
    <g id="mdi-vector-arrange-below" transform="translate(468 36) scale(1.5)" fill="#fff">
      <path d="M20,22C21.11,22 22,21.11 22,20V9C22,7.89 21.11,7 20,7C16.33,7 12.67,7 9,7C7.89,7 7,7.89 7,9C7,12.67 7,16.33 7,20C7,21.11 7.89,22 9,22H20M20,20H9V9H20V20M5,16V14H3V3H14V5H16V3C16,1.89 15.11,1 14,1H3C1.89,1 1,1.89 1,3V14C1,15.11 1.89,16 3,16H5Z" />
    </g>
    <g id="mdi-vector-bezier" transform="translate(504 36) scale(1.5)" fill="#555">
      <path d="M7.5,4A1.5,1.5 0 0,0 6,5.5A1.5,1.5 0 0,0 7.5,7C8.13,7 8.7,6.6 8.91,6H13C13.67,5.33 14.33,5 15,5H8.91C8.7,4.4 8.13,4 7.5,4M19,5C8,5 14,17 5,17V19C16,19 10,7 19,7V5M16.5,17C15.87,17 15.3,17.4 15.09,18H11C10.33,18.67 9.67,19 9,19H15.09C15.3,19.6 15.87,20 16.5,20A1.5,1.5 0 0,0 18,18.5A1.5,1.5 0 0,0 16.5,17Z" />
    </g>
    <g id="mdi-vector-bezier" transform="translate(540 36) scale(1.5)" fill="#fff">
      <path d="M7.5,4A1.5,1.5 0 0,0 6,5.5A1.5,1.5 0 0,0 7.5,7C8.13,7 8.7,6.6 8.91,6H13C13.67,5.33 14.33,5 15,5H8.91C8.7,4.4 8.13,4 7.5,4M19,5C8,5 14,17 5,17V19C16,19 10,7 19,7V5M16.5,17C15.87,17 15.3,17.4 15.09,18H11C10.33,18.67 9.67,19 9,19H15.09C15.3,19.6 15.87,20 16.5,20A1.5,1.5 0 0,0 18,18.5A1.5,1.5 0 0,0 16.5,17Z" />
    </g>
    <g id="mdi-vector-circle" transform="translate(576 36) scale(1.5)" fill="#555">
      <path d="M9,2V4.06C6.72,4.92 4.92,6.72 4.05,9H2V15H4.06C4.92,17.28 6.72,19.09 9,19.95V22H15V19.94C17.28,19.08 19.09,17.28 19.95,15H22V9H19.94C19.08,6.72 17.28,4.92 15,4.05V2M11,4H13V6H11M9,6.25V8H15V6.25C16.18,6.86 17.14,7.82 17.75,9H16V15H17.75C17.14,16.18 16.18,17.14 15,17.75V16H9V17.75C7.82,17.14 6.86,16.18 6.25,15H8V9H6.25C6.86,7.82 7.82,6.86 9,6.25M4,11H6V13H4M18,11H20V13H18M11,18H13V20H11" />
    </g>
    <g id="mdi-vector-circle" transform="translate(612 36) scale(1.5)" fill="#fff">
      <path d="M9,2V4.06C6.72,4.92 4.92,6.72 4.05,9H2V15H4.06C4.92,17.28 6.72,19.09 9,19.95V22H15V19.94C17.28,19.08 19.09,17.28 19.95,15H22V9H19.94C19.08,6.72 17.28,4.92 15,4.05V2M11,4H13V6H11M9,6.25V8H15V6.25C16.18,6.86 17.14,7.82 17.75,9H16V15H17.75C17.14,16.18 16.18,17.14 15,17.75V16H9V17.75C7.82,17.14 6.86,16.18 6.25,15H8V9H6.25C6.86,7.82 7.82,6.86 9,6.25M4,11H6V13H4M18,11H20V13H18M11,18H13V20H11" />
    </g>
    <g id="mdi-vector-circle-variant" transform="translate(648 36) scale(1.5)" fill="#555">
      <path d="M22,9H19.97C18.7,5.41 15.31,3 11.5,3A9,9 0 0,0 2.5,12C2.5,17 6.53,21 11.5,21C15.31,21 18.7,18.6 20,15H22M20,11V13H18V11M17.82,15C16.66,17.44 14.2,19 11.5,19C7.64,19 4.5,15.87 4.5,12C4.5,8.14 7.64,5 11.5,5C14.2,5 16.66,6.57 17.81,9H16V15" />
    </g>
    <g id="mdi-vector-circle-variant" transform="translate(684 36) scale(1.5)" fill="#fff">
      <path d="M22,9H19.97C18.7,5.41 15.31,3 11.5,3A9,9 0 0,0 2.5,12C2.5,17 6.53,21 11.5,21C15.31,21 18.7,18.6 20,15H22M20,11V13H18V11M17.82,15C16.66,17.44 14.2,19 11.5,19C7.64,19 4.5,15.87 4.5,12C4.5,8.14 7.64,5 11.5,5C14.2,5 16.66,6.57 17.81,9H16V15" />
    </g>
    <g id="mdi-vector-combine" transform="translate(0 72) scale(1.5)" fill="#555">
      <path d="M3,1C1.89,1 1,1.89 1,3V14C1,15.11 1.89,16 3,16C4.33,16 7,16 7,16C7,16 7,18.67 7,20C7,21.11 7.89,22 9,22H20C21.11,22 22,21.11 22,20V9C22,7.89 21.11,7 20,7C18.67,7 16,7 16,7C16,7 16,4.33 16,3C16,1.89 15.11,1 14,1H3M3,3H14C14,4.33 14,7 14,7H9C7.89,7 7,7.89 7,9V14C7,14 4.33,14 3,14V3M9,9H14V14H9V9M16,9C16,9 18.67,9 20,9V20H9C9,18.67 9,16 9,16H14C15.11,16 16,15.11 16,14V9Z" />
    </g>
    <g id="mdi-vector-combine" transform="translate(36 72) scale(1.5)" fill="#fff">
      <path d="M3,1C1.89,1 1,1.89 1,3V14C1,15.11 1.89,16 3,16C4.33,16 7,16 7,16C7,16 7,18.67 7,20C7,21.11 7.89,22 9,22H20C21.11,22 22,21.11 22,20V9C22,7.89 21.11,7 20,7C18.67,7 16,7 16,7C16,7 16,4.33 16,3C16,1.89 15.11,1 14,1H3M3,3H14C14,4.33 14,7 14,7H9C7.89,7 7,7.89 7,9V14C7,14 4.33,14 3,14V3M9,9H14V14H9V9M16,9C16,9 18.67,9 20,9V20H9C9,18.67 9,16 9,16H14C15.11,16 16,15.11 16,14V9Z" />
    </g>
    <g id="mdi-vector-curve" transform="translate(72 72) scale(1.5)" fill="#555">
      <path d="M18.5,2A1.5,1.5 0 0,1 20,3.5A1.5,1.5 0 0,1 18.5,5C18.27,5 18.05,4.95 17.85,4.85L14.16,8.55L14.5,9C16.69,7.74 19.26,7 22,7L23,7.03V9.04L22,9C19.42,9 17,9.75 15,11.04A3.96,3.96 0 0,1 11.04,15C9.75,17 9,19.42 9,22L9.04,23H7.03L7,22C7,19.26 7.74,16.69 9,14.5L8.55,14.16L4.85,17.85C4.95,18.05 5,18.27 5,18.5A1.5,1.5 0 0,1 3.5,20A1.5,1.5 0 0,1 2,18.5A1.5,1.5 0 0,1 3.5,17C3.73,17 3.95,17.05 4.15,17.15L7.84,13.45C7.31,12.78 7,11.92 7,11A4,4 0 0,1 11,7C11.92,7 12.78,7.31 13.45,7.84L17.15,4.15C17.05,3.95 17,3.73 17,3.5A1.5,1.5 0 0,1 18.5,2M11,9A2,2 0 0,0 9,11A2,2 0 0,0 11,13A2,2 0 0,0 13,11A2,2 0 0,0 11,9Z" />
    </g>
    <g id="mdi-vector-curve" transform="translate(108 72) scale(1.5)" fill="#fff">
      <path d="M18.5,2A1.5,1.5 0 0,1 20,3.5A1.5,1.5 0 0,1 18.5,5C18.27,5 18.05,4.95 17.85,4.85L14.16,8.55L14.5,9C16.69,7.74 19.26,7 22,7L23,7.03V9.04L22,9C19.42,9 17,9.75 15,11.04A3.96,3.96 0 0,1 11.04,15C9.75,17 9,19.42 9,22L9.04,23H7.03L7,22C7,19.26 7.74,16.69 9,14.5L8.55,14.16L4.85,17.85C4.95,18.05 5,18.27 5,18.5A1.5,1.5 0 0,1 3.5,20A1.5,1.5 0 0,1 2,18.5A1.5,1.5 0 0,1 3.5,17C3.73,17 3.95,17.05 4.15,17.15L7.84,13.45C7.31,12.78 7,11.92 7,11A4,4 0 0,1 11,7C11.92,7 12.78,7.31 13.45,7.84L17.15,4.15C17.05,3.95 17,3.73 17,3.5A1.5,1.5 0 0,1 18.5,2M11,9A2,2 0 0,0 9,11A2,2 0 0,0 11,13A2,2 0 0,0 13,11A2,2 0 0,0 11,9Z" />
    </g>
    <g id="mdi-vector-difference" transform="translate(144 72) scale(1.5)" fill="#555">
      <path d="M3,1C1.89,1 1,1.89 1,3V14C1,15.11 1.89,16 3,16H5V14H3V3H14V5H16V3C16,1.89 15.11,1 14,1H3M9,7C7.89,7 7,7.89 7,9V11H9V9H11V7H9M13,7V9H14V10H16V7H13M18,7V9H20V20H9V18H7V20C7,21.11 7.89,22 9,22H20C21.11,22 22,21.11 22,20V9C22,7.89 21.11,7 20,7H18M14,12V14H12V16H14C15.11,16 16,15.11 16,14V12H14M7,13V16H10V14H9V13H7Z" />
    </g>
    <g id="mdi-vector-difference" transform="translate(180 72) scale(1.5)" fill="#fff">
      <path d="M3,1C1.89,1 1,1.89 1,3V14C1,15.11 1.89,16 3,16H5V14H3V3H14V5H16V3C16,1.89 15.11,1 14,1H3M9,7C7.89,7 7,7.89 7,9V11H9V9H11V7H9M13,7V9H14V10H16V7H13M18,7V9H20V20H9V18H7V20C7,21.11 7.89,22 9,22H20C21.11,22 22,21.11 22,20V9C22,7.89 21.11,7 20,7H18M14,12V14H12V16H14C15.11,16 16,15.11 16,14V12H14M7,13V16H10V14H9V13H7Z" />
    </g>
    <g id="mdi-vector-difference-ab" transform="translate(216 72) scale(1.5)" fill="#555">
      <path d="M3,1C1.89,1 1,1.89 1,3V5H3V3H5V1H3M7,1V3H10V1H7M12,1V3H14V5H16V3C16,1.89 15.11,1 14,1H12M1,7V10H3V7H1M14,7C14,7 14,11.67 14,14C11.67,14 7,14 7,14C7,14 7,18 7,20C7,21.11 7.89,22 9,22H20C21.11,22 22,21.11 22,20V9C22,7.89 21.11,7 20,7C18,7 14,7 14,7M16,9H20V20H9V16H14C15.11,16 16,15.11 16,14V9M1,12V14C1,15.11 1.89,16 3,16H5V14H3V12H1Z" />
    </g>
    <g id="mdi-vector-difference-ab" transform="translate(252 72) scale(1.5)" fill="#fff">
      <path d="M3,1C1.89,1 1,1.89 1,3V5H3V3H5V1H3M7,1V3H10V1H7M12,1V3H14V5H16V3C16,1.89 15.11,1 14,1H12M1,7V10H3V7H1M14,7C14,7 14,11.67 14,14C11.67,14 7,14 7,14C7,14 7,18 7,20C7,21.11 7.89,22 9,22H20C21.11,22 22,21.11 22,20V9C22,7.89 21.11,7 20,7C18,7 14,7 14,7M16,9H20V20H9V16H14C15.11,16 16,15.11 16,14V9M1,12V14C1,15.11 1.89,16 3,16H5V14H3V12H1Z" />
    </g>
    <g id="mdi-vector-difference-ba" transform="translate(288 72) scale(1.5)" fill="#555">
      <path d="M20,22C21.11,22 22,21.11 22,20V18H20V20H18V22H20M16,22V20H13V22H16M11,22V20H9V18H7V20C7,21.11 7.89,22 9,22H11M22,16V13H20V16H22M9,16C9,16 9,11.33 9,9C11.33,9 16,9 16,9C16,9 16,5 16,3C16,1.89 15.11,1 14,1H3C1.89,1 1,1.89 1,3V14C1,15.11 1.89,16 3,16C5,16 9,16 9,16M7,14H3V3H14V7H9C7.89,7 7,7.89 7,9V14M22,11V9C22,7.89 21.11,7 20,7H18V9H20V11H22Z" />
    </g>
    <g id="mdi-vector-difference-ba" transform="translate(324 72) scale(1.5)" fill="#fff">
      <path d="M20,22C21.11,22 22,21.11 22,20V18H20V20H18V22H20M16,22V20H13V22H16M11,22V20H9V18H7V20C7,21.11 7.89,22 9,22H11M22,16V13H20V16H22M9,16C9,16 9,11.33 9,9C11.33,9 16,9 16,9C16,9 16,5 16,3C16,1.89 15.11,1 14,1H3C1.89,1 1,1.89 1,3V14C1,15.11 1.89,16 3,16C5,16 9,16 9,16M7,14H3V3H14V7H9C7.89,7 7,7.89 7,9V14M22,11V9C22,7.89 21.11,7 20,7H18V9H20V11H22Z" />
    </g>
    <g id="mdi-vector-ellipse" transform="translate(360 72) scale(1.5)" fill="#555">
      <path d="M23,9V15H20.35C19.38,17.12 17.43,18.78 15,19.54V22H9V19.54C5.5,18.45 3,15.5 3,12C3,7.58 7.03,4 12,4C15.78,4 19,6.07 20.35,9H23M17,15V9H18.06C16.85,7.21 14.59,6 12,6C8.13,6 5,8.69 5,12C5,14.39 6.64,16.46 9,17.42V16H15V17.42C16.29,16.9 17.35,16.05 18.06,15H17M19,13H21V11H19V13M11,20H13V18H11V20Z" />
    </g>
    <g id="mdi-vector-ellipse" transform="translate(396 72) scale(1.5)" fill="#fff">
      <path d="M23,9V15H20.35C19.38,17.12 17.43,18.78 15,19.54V22H9V19.54C5.5,18.45 3,15.5 3,12C3,7.58 7.03,4 12,4C15.78,4 19,6.07 20.35,9H23M17,15V9H18.06C16.85,7.21 14.59,6 12,6C8.13,6 5,8.69 5,12C5,14.39 6.64,16.46 9,17.42V16H15V17.42C16.29,16.9 17.35,16.05 18.06,15H17M19,13H21V11H19V13M11,20H13V18H11V20Z" />
    </g>
    <g id="mdi-vector-intersection" transform="translate(432 72) scale(1.5)" fill="#555">
      <path d="M3.14,1A2.14,2.14 0 0,0 1,3.14V5H3V3H5V1H3.14M7,1V3H10V1H7M12,1V3H14V5H16V3.14C16,1.96 15.04,1 13.86,1H12M1,7V10H3V7H1M9,7C7.89,7 7,7.89 7,9C7,11.33 7,16 7,16C7,16 11.57,16 13.86,16A2.14,2.14 0 0,0 16,13.86C16,11.57 16,7 16,7C16,7 11.33,7 9,7M18,7V9H20V11H22V9C22,7.89 21.11,7 20,7H18M9,9H14V14H9V9M1,12V13.86C1,15.04 1.96,16 3.14,16H5V14H3V12H1M20,13V16H22V13H20M7,18V20C7,21.11 7.89,22 9,22H11V20H9V18H7M20,18V20H18V22H20C21.11,22 22,21.11 22,20V18H20M13,20V22H16V20H13Z" />
    </g>
    <g id="mdi-vector-intersection" transform="translate(468 72) scale(1.5)" fill="#fff">
      <path d="M3.14,1A2.14,2.14 0 0,0 1,3.14V5H3V3H5V1H3.14M7,1V3H10V1H7M12,1V3H14V5H16V3.14C16,1.96 15.04,1 13.86,1H12M1,7V10H3V7H1M9,7C7.89,7 7,7.89 7,9C7,11.33 7,16 7,16C7,16 11.57,16 13.86,16A2.14,2.14 0 0,0 16,13.86C16,11.57 16,7 16,7C16,7 11.33,7 9,7M18,7V9H20V11H22V9C22,7.89 21.11,7 20,7H18M9,9H14V14H9V9M1,12V13.86C1,15.04 1.96,16 3.14,16H5V14H3V12H1M20,13V16H22V13H20M7,18V20C7,21.11 7.89,22 9,22H11V20H9V18H7M20,18V20H18V22H20C21.11,22 22,21.11 22,20V18H20M13,20V22H16V20H13Z" />
    </g>
    <g id="mdi-vector-line" transform="translate(504 72) scale(1.5)" fill="#555">
      <path d="M15,3V7.59L7.59,15H3V21H9V16.42L16.42,9H21V3M17,5H19V7H17M5,17H7V19H5" />
    </g>
    <g id="mdi-vector-line" transform="translate(540 72) scale(1.5)" fill="#fff">
      <path d="M15,3V7.59L7.59,15H3V21H9V16.42L16.42,9H21V3M17,5H19V7H17M5,17H7V19H5" />
    </g>
    <g id="mdi-vector-link" transform="translate(576 72) scale(1.5)" fill="#555">
      <path d="M3 1C1.89 1 1 1.89 1 3V14C1 15.11 1.89 16 3 16H14C15.11 16 16 15.11 16 14V11H14V14H3V3H14V5H16V3C16 1.89 15.11 1 14 1M9 7C7.89 7 7 7.89 7 9V12H9V9H20V20H9V18H7V20C7 21.11 7.89 22 9 22H20C21.11 22 22 21.11 22 20V9C22 7.89 21.11 7 20 7H9" />
    </g>
    <g id="mdi-vector-link" transform="translate(612 72) scale(1.5)" fill="#fff">
      <path d="M3 1C1.89 1 1 1.89 1 3V14C1 15.11 1.89 16 3 16H14C15.11 16 16 15.11 16 14V11H14V14H3V3H14V5H16V3C16 1.89 15.11 1 14 1M9 7C7.89 7 7 7.89 7 9V12H9V9H20V20H9V18H7V20C7 21.11 7.89 22 9 22H20C21.11 22 22 21.11 22 20V9C22 7.89 21.11 7 20 7H9" />
    </g>
    <g id="mdi-vector-point" transform="translate(648 72) scale(1.5)" fill="#555">
      <path d="M12,20L7,22L12,11L17,22L12,20M8,2H16V5H22V7H16V10H8V7H2V5H8V2M10,4V8H14V4H10Z" />
    </g>
    <g id="mdi-vector-point" transform="translate(684 72) scale(1.5)" fill="#fff">
      <path d="M12,20L7,22L12,11L17,22L12,20M8,2H16V5H22V7H16V10H8V7H2V5H8V2M10,4V8H14V4H10Z" />
    </g>
    <g id="mdi-vector-polygon" transform="translate(0 108) scale(1.5)" fill="#555">
      <path d="M2,2V8H4.28L5.57,16H4V22H10V20.06L15,20.05V22H21V16H19.17L20,9H22V3H16V6.53L14.8,8H9.59L8,5.82V2M4,4H6V6H4M18,5H20V7H18M6.31,8H7.11L9,10.59V14H15V10.91L16.57,9H18L17.16,16H15V18.06H10V16H7.6M11,10H13V12H11M6,18H8V20H6M17,18H19V20H17" />
    </g>
    <g id="mdi-vector-polygon" transform="translate(36 108) scale(1.5)" fill="#fff">
      <path d="M2,2V8H4.28L5.57,16H4V22H10V20.06L15,20.05V22H21V16H19.17L20,9H22V3H16V6.53L14.8,8H9.59L8,5.82V2M4,4H6V6H4M18,5H20V7H18M6.31,8H7.11L9,10.59V14H15V10.91L16.57,9H18L17.16,16H15V18.06H10V16H7.6M11,10H13V12H11M6,18H8V20H6M17,18H19V20H17" />
    </g>
    <g id="mdi-vector-polyline" transform="translate(72 108) scale(1.5)" fill="#555">
      <path d="M2 3V9H4.95L6.95 15H6V21H12V16.41L17.41 11H22V5H16V9.57L10.59 15H9.06L7.06 9H8V3M4 5H6V7H4M18 7H20V9H18M8 17H10V19H8Z" />
    </g>
    <g id="mdi-vector-polyline" transform="translate(108 108) scale(1.5)" fill="#fff">
      <path d="M2 3V9H4.95L6.95 15H6V21H12V16.41L17.41 11H22V5H16V9.57L10.59 15H9.06L7.06 9H8V3M4 5H6V7H4M18 7H20V9H18M8 17H10V19H8Z" />
    </g>
    <g id="mdi-vector-polyline-edit" transform="translate(144 108) scale(1.5)" fill="#555">
      <path d="M2 3V9H4.95L6.95 15H6V21H12V16.41L17.41 11H22V5H16V9.57L10.59 15H9.06L7.06 9H8V3H2M4 5H6V7H4V5M18 7H20V9H18V7M21.15 13C21 13 20.87 13.05 20.76 13.16L19.75 14.18L21.82 16.25L22.84 15.24C23.05 15.03 23.05 14.67 22.84 14.46L21.54 13.16C21.43 13.05 21.29 13 21.15 13M19.15 14.76L13 20.91V23H15.09L21.23 16.84L19.15 14.76M8 17H10V19H8V17Z" />
    </g>
    <g id="mdi-vector-polyline-edit" transform="translate(180 108) scale(1.5)" fill="#fff">
      <path d="M2 3V9H4.95L6.95 15H6V21H12V16.41L17.41 11H22V5H16V9.57L10.59 15H9.06L7.06 9H8V3H2M4 5H6V7H4V5M18 7H20V9H18V7M21.15 13C21 13 20.87 13.05 20.76 13.16L19.75 14.18L21.82 16.25L22.84 15.24C23.05 15.03 23.05 14.67 22.84 14.46L21.54 13.16C21.43 13.05 21.29 13 21.15 13M19.15 14.76L13 20.91V23H15.09L21.23 16.84L19.15 14.76M8 17H10V19H8V17Z" />
    </g>
    <g id="mdi-vector-polyline-minus" transform="translate(216 108) scale(1.5)" fill="#555">
      <path d="M2 3V9H4.95L6.95 15H6V21H12V16.41L17.41 11H22V5H16V9.57L10.59 15H9.06L7.06 9H8V3H2M4 5H6V7H4V5M18 7H20V9H18V7M8 17H10V19H8V17M15 18V20H23V18H15Z" />
    </g>
    <g id="mdi-vector-polyline-minus" transform="translate(252 108) scale(1.5)" fill="#fff">
      <path d="M2 3V9H4.95L6.95 15H6V21H12V16.41L17.41 11H22V5H16V9.57L10.59 15H9.06L7.06 9H8V3H2M4 5H6V7H4V5M18 7H20V9H18V7M8 17H10V19H8V17M15 18V20H23V18H15Z" />
    </g>
    <g id="mdi-vector-polyline-plus" transform="translate(288 108) scale(1.5)" fill="#555">
      <path d="M2 3V9H4.95L6.95 15H6V21H12V16.41L17.41 11H22V5H16V9.57L10.59 15H9.06L7.06 9H8V3H2M4 5H6V7H4V5M18 7H20V9H18V7M18 15V18H15V20H18V23H20V20H23V18H20V15H18M8 17H10V19H8V17Z" />
    </g>
    <g id="mdi-vector-polyline-plus" transform="translate(324 108) scale(1.5)" fill="#fff">
      <path d="M2 3V9H4.95L6.95 15H6V21H12V16.41L17.41 11H22V5H16V9.57L10.59 15H9.06L7.06 9H8V3H2M4 5H6V7H4V5M18 7H20V9H18V7M18 15V18H15V20H18V23H20V20H23V18H20V15H18M8 17H10V19H8V17Z" />
    </g>
    <g id="mdi-vector-polyline-remove" transform="translate(360 108) scale(1.5)" fill="#555">
      <path d="M21.1 15.5L19 17.6L16.9 15.5L15.5 16.9L17.6 19L15.5 21.1L16.9 22.5L19 20.4L21.1 22.5L22.5 21.1L20.4 19L22.5 16.9L21.1 15.5M16 5V9.6L10.6 15H9.1L7.1 9H8V3H2V9H5L7 15H6V21H12V16.4L17.4 11H22V5H16M6 7H4V5H6V7M10 19H8V17H10V19M20 9H18V7H20V9" />
    </g>
    <g id="mdi-vector-polyline-remove" transform="translate(396 108) scale(1.5)" fill="#fff">
      <path d="M21.1 15.5L19 17.6L16.9 15.5L15.5 16.9L17.6 19L15.5 21.1L16.9 22.5L19 20.4L21.1 22.5L22.5 21.1L20.4 19L22.5 16.9L21.1 15.5M16 5V9.6L10.6 15H9.1L7.1 9H8V3H2V9H5L7 15H6V21H12V16.4L17.4 11H22V5H16M6 7H4V5H6V7M10 19H8V17H10V19M20 9H18V7H20V9" />
    </g>
    <g id="mdi-vector-radius" transform="translate(432 108) scale(1.5)" fill="#555">
      <path d="M2,4H4V2H10V4A10,10 0 0,1 20,14H22V20H20V22H18V20H16V14H18A8,8 0 0,0 10,6V8H4V6H2V4M18,16V18H20V16H18M6,4V6H8V4H6Z" />
    </g>
    <g id="mdi-vector-radius" transform="translate(468 108) scale(1.5)" fill="#fff">
      <path d="M2,4H4V2H10V4A10,10 0 0,1 20,14H22V20H20V22H18V20H16V14H18A8,8 0 0,0 10,6V8H4V6H2V4M18,16V18H20V16H18M6,4V6H8V4H6Z" />
    </g>
    <g id="mdi-vector-rectangle" transform="translate(504 108) scale(1.5)" fill="#555">
      <path d="M2,4H8V6H16V4H22V10H20V14H22V20H16V18H8V20H2V14H4V10H2V4M16,10V8H8V10H6V14H8V16H16V14H18V10H16M4,6V8H6V6H4M18,6V8H20V6H18M4,16V18H6V16H4M18,16V18H20V16H18Z" />
    </g>
    <g id="mdi-vector-rectangle" transform="translate(540 108) scale(1.5)" fill="#fff">
      <path d="M2,4H8V6H16V4H22V10H20V14H22V20H16V18H8V20H2V14H4V10H2V4M16,10V8H8V10H6V14H8V16H16V14H18V10H16M4,6V8H6V6H4M18,6V8H20V6H18M4,16V18H6V16H4M18,16V18H20V16H18Z" />
    </g>
    <g id="mdi-vector-selection" transform="translate(576 108) scale(1.5)" fill="#555">
      <path d="M3,1H5V3H3V5H1V3A2,2 0 0,1 3,1M14,1A2,2 0 0,1 16,3V5H14V3H12V1H14M20,7A2,2 0 0,1 22,9V11H20V9H18V7H20M22,20A2,2 0 0,1 20,22H18V20H20V18H22V20M20,13H22V16H20V13M13,9V7H16V10H14V9H13M13,22V20H16V22H13M9,22A2,2 0 0,1 7,20V18H9V20H11V22H9M7,16V13H9V14H10V16H7M7,3V1H10V3H7M3,16A2,2 0 0,1 1,14V12H3V14H5V16H3M1,7H3V10H1V7M9,7H11V9H9V11H7V9A2,2 0 0,1 9,7M16,14A2,2 0 0,1 14,16H12V14H14V12H16V14Z" />
    </g>
    <g id="mdi-vector-selection" transform="translate(612 108) scale(1.5)" fill="#fff">
      <path d="M3,1H5V3H3V5H1V3A2,2 0 0,1 3,1M14,1A2,2 0 0,1 16,3V5H14V3H12V1H14M20,7A2,2 0 0,1 22,9V11H20V9H18V7H20M22,20A2,2 0 0,1 20,22H18V20H20V18H22V20M20,13H22V16H20V13M13,9V7H16V10H14V9H13M13,22V20H16V22H13M9,22A2,2 0 0,1 7,20V18H9V20H11V22H9M7,16V13H9V14H10V16H7M7,3V1H10V3H7M3,16A2,2 0 0,1 1,14V12H3V14H5V16H3M1,7H3V10H1V7M9,7H11V9H9V11H7V9A2,2 0 0,1 9,7M16,14A2,2 0 0,1 14,16H12V14H14V12H16V14Z" />
    </g>
    <g id="mdi-vector-square" transform="translate(648 108) scale(1.5)" fill="#555">
      <path d="M2,2H8V4H16V2H22V8H20V16H22V22H16V20H8V22H2V16H4V8H2V2M16,8V6H8V8H6V16H8V18H16V16H18V8H16M4,4V6H6V4H4M18,4V6H20V4H18M4,18V20H6V18H4M18,18V20H20V18H18Z" />
    </g>
    <g id="mdi-vector-square" transform="translate(684 108) scale(1.5)" fill="#fff">
      <path d="M2,2H8V4H16V2H22V8H20V16H22V22H16V20H8V22H2V16H4V8H2V2M16,8V6H8V8H6V16H8V18H16V16H18V8H16M4,4V6H6V4H4M18,4V6H20V4H18M4,18V20H6V18H4M18,18V20H20V18H18Z" />
    </g>
    <g id="mdi-vector-triangle" transform="translate(0 144) scale(1.5)" fill="#555">
      <path d="M9,3V9H9.73L5.79,16H2V22H8V20H16V22H22V16H18.21L14.27,9H15V3M11,5H13V7H11M12,9.04L16,16.15V18H8V16.15M4,18H6V20H4M18,18H20V20H18" />
    </g>
    <g id="mdi-vector-triangle" transform="translate(36 144) scale(1.5)" fill="#fff">
      <path d="M9,3V9H9.73L5.79,16H2V22H8V20H16V22H22V16H18.21L14.27,9H15V3M11,5H13V7H11M12,9.04L16,16.15V18H8V16.15M4,18H6V20H4M18,18H20V20H18" />
    </g>
    <g id="mdi-vector-union" transform="translate(72 144) scale(1.5)" fill="#555">
      <path d="M3,1C1.89,1 1,1.89 1,3V14C1,15.11 1.89,16 3,16H7V20C7,21.11 7.89,22 9,22H20C21.11,22 22,21.11 22,20V9C22,7.89 21.11,7 20,7H16V3C16,1.89 15.11,1 14,1H3M3,3H14V9H20V20H9V14H3V3Z" />
    </g>
    <g id="mdi-vector-union" transform="translate(108 144) scale(1.5)" fill="#fff">
      <path d="M3,1C1.89,1 1,1.89 1,3V14C1,15.11 1.89,16 3,16H7V20C7,21.11 7.89,22 9,22H20C21.11,22 22,21.11 22,20V9C22,7.89 21.11,7 20,7H16V3C16,1.89 15.11,1 14,1H3M3,3H14V9H20V20H9V14H3V3Z" />
    </g>
    <g id="mdi-vhs" transform="translate(144 144) scale(1.5)" fill="#555">
      <path d="M4,6A2,2 0 0,0 2,8V16A2,2 0 0,0 4,18H20A2,2 0 0,0 22,16V8A2,2 0 0,0 20,6H4M4.54,10H7V14H4.54C4.19,13.39 4,12.7 4,12C4,11.3 4.19,10.61 4.54,10M9,10H15V14H9V10M17,10H19.46C19.81,10.61 20,11.3 20,12C20,12.7 19.81,13.39 19.46,14H17V10Z" />
    </g>
    <g id="mdi-vhs" transform="translate(180 144) scale(1.5)" fill="#fff">
      <path d="M4,6A2,2 0 0,0 2,8V16A2,2 0 0,0 4,18H20A2,2 0 0,0 22,16V8A2,2 0 0,0 20,6H4M4.54,10H7V14H4.54C4.19,13.39 4,12.7 4,12C4,11.3 4.19,10.61 4.54,10M9,10H15V14H9V10M17,10H19.46C19.81,10.61 20,11.3 20,12C20,12.7 19.81,13.39 19.46,14H17V10Z" />
    </g>
    <g id="mdi-vibrate" transform="translate(216 144) scale(1.5)" fill="#555">
      <path d="M16,19H8V5H16M16.5,3H7.5A1.5,1.5 0 0,0 6,4.5V19.5A1.5,1.5 0 0,0 7.5,21H16.5A1.5,1.5 0 0,0 18,19.5V4.5A1.5,1.5 0 0,0 16.5,3M19,17H21V7H19M22,9V15H24V9M3,17H5V7H3M0,15H2V9H0V15Z" />
    </g>
    <g id="mdi-vibrate" transform="translate(252 144) scale(1.5)" fill="#fff">
      <path d="M16,19H8V5H16M16.5,3H7.5A1.5,1.5 0 0,0 6,4.5V19.5A1.5,1.5 0 0,0 7.5,21H16.5A1.5,1.5 0 0,0 18,19.5V4.5A1.5,1.5 0 0,0 16.5,3M19,17H21V7H19M22,9V15H24V9M3,17H5V7H3M0,15H2V9H0V15Z" />
    </g>
    <g id="mdi-vibrate-off" transform="translate(288 144) scale(1.5)" fill="#555">
      <path d="M8.2,5L6.55,3.35C6.81,3.12 7.15,3 7.5,3H16.5A1.5,1.5 0 0,1 18,4.5V14.8L16,12.8V5H8.2M0,15H2V9H0V15M21,17V7H19V15.8L20.2,17H21M3,17H5V7H3V17M18,17.35L22.11,21.46L20.84,22.73L18,19.85C17.83,20.54 17.21,21 16.5,21H7.5A1.5,1.5 0 0,1 6,19.5V7.89L1.11,3L2.39,1.73L6.09,5.44L8,7.34L16,15.34L18,17.34V17.35M16,17.89L8,9.89V19H16V17.89M22,9V15H24V9H22Z" />
    </g>
    <g id="mdi-vibrate-off" transform="translate(324 144) scale(1.5)" fill="#fff">
      <path d="M8.2,5L6.55,3.35C6.81,3.12 7.15,3 7.5,3H16.5A1.5,1.5 0 0,1 18,4.5V14.8L16,12.8V5H8.2M0,15H2V9H0V15M21,17V7H19V15.8L20.2,17H21M3,17H5V7H3V17M18,17.35L22.11,21.46L20.84,22.73L18,19.85C17.83,20.54 17.21,21 16.5,21H7.5A1.5,1.5 0 0,1 6,19.5V7.89L1.11,3L2.39,1.73L6.09,5.44L8,7.34L16,15.34L18,17.34V17.35M16,17.89L8,9.89V19H16V17.89M22,9V15H24V9H22Z" />
    </g>
    <g id="mdi-video" transform="translate(360 144) scale(1.5)" fill="#555">
      <path d="M17,10.5V7A1,1 0 0,0 16,6H4A1,1 0 0,0 3,7V17A1,1 0 0,0 4,18H16A1,1 0 0,0 17,17V13.5L21,17.5V6.5L17,10.5Z" />
    </g>
    <g id="mdi-video" transform="translate(396 144) scale(1.5)" fill="#fff">
      <path d="M17,10.5V7A1,1 0 0,0 16,6H4A1,1 0 0,0 3,7V17A1,1 0 0,0 4,18H16A1,1 0 0,0 17,17V13.5L21,17.5V6.5L17,10.5Z" />
    </g>
    <g id="mdi-video-3d" transform="translate(432 144) scale(1.5)" fill="#555">
      <path d="" />
    </g>
    <g id="mdi-video-3d" transform="translate(468 144) scale(1.5)" fill="#fff">
      <path d="" />
    </g>
    <g id="mdi-video-3d-off" transform="translate(504 144) scale(1.5)" fill="#555">
      <path d="" />
    </g>
    <g id="mdi-video-3d-off" transform="translate(540 144) scale(1.5)" fill="#fff">
      <path d="" />
    </g>
    <g id="mdi-video-3d-variant" transform="translate(576 144) scale(1.5)" fill="#555">
      <path d="" />
    </g>
    <g id="mdi-video-3d-variant" transform="translate(612 144) scale(1.5)" fill="#fff">
      <path d="" />
    </g>
    <g id="mdi-video-4k-box" transform="translate(648 144) scale(1.5)" fill="#555">
      <path d="" />
    </g>
    <g id="mdi-video-4k-box" transform="translate(684 144) scale(1.5)" fill="#fff">
      <path d="" />
    </g>
    <g id="mdi-video-account" transform="translate(0 180) scale(1.5)" fill="#555">
      <path d="M17,10.5L21,6.5V17.5L17,13.5V17A1,1 0 0,1 16,18H4A1,1 0 0,1 3,17V7A1,1 0 0,1 4,6H16A1,1 0 0,1 17,7V10.5M14,16V15C14,13.67 11.33,13 10,13C8.67,13 6,13.67 6,15V16H14M10,8A2,2 0 0,0 8,10A2,2 0 0,0 10,12A2,2 0 0,0 12,10A2,2 0 0,0 10,8Z" />
    </g>
    <g id="mdi-video-account" transform="translate(36 180) scale(1.5)" fill="#fff">
      <path d="M17,10.5L21,6.5V17.5L17,13.5V17A1,1 0 0,1 16,18H4A1,1 0 0,1 3,17V7A1,1 0 0,1 4,6H16A1,1 0 0,1 17,7V10.5M14,16V15C14,13.67 11.33,13 10,13C8.67,13 6,13.67 6,15V16H14M10,8A2,2 0 0,0 8,10A2,2 0 0,0 10,12A2,2 0 0,0 12,10A2,2 0 0,0 10,8Z" />
    </g>
    <g id="mdi-video-box" transform="translate(72 180) scale(1.5)" fill="#555">
      <path d="M18,16L14,12.8V16H6V8H14V11.2L18,8M20,4H4A2,2 0 0,0 2,6V18A2,2 0 0,0 4,20H20A2,2 0 0,0 22,18V6C22,4.89 21.1,4 20,4Z" />
    </g>
    <g id="mdi-video-box" transform="translate(108 180) scale(1.5)" fill="#fff">
      <path d="M18,16L14,12.8V16H6V8H14V11.2L18,8M20,4H4A2,2 0 0,0 2,6V18A2,2 0 0,0 4,20H20A2,2 0 0,0 22,18V6C22,4.89 21.1,4 20,4Z" />
    </g>
    <g id="mdi-video-box-off" transform="translate(144 180) scale(1.5)" fill="#555">
      <path d="M6,8H6.73L14,15.27V16H6M2.27,1L1,2.27L3,4.28C2.41,4.62 2,5.26 2,6V18A2,2 0 0,0 4,20H18.73L20.73,22L22,20.73M20,4H7.82L11.82,8H14V10.18L14.57,10.75L18,8V14.18L22,18.17C22,18.11 22,18.06 22,18V6A2,2 0 0,0 20,4Z" />
    </g>
    <g id="mdi-video-box-off" transform="translate(180 180) scale(1.5)" fill="#fff">
      <path d="M6,8H6.73L14,15.27V16H6M2.27,1L1,2.27L3,4.28C2.41,4.62 2,5.26 2,6V18A2,2 0 0,0 4,20H18.73L20.73,22L22,20.73M20,4H7.82L11.82,8H14V10.18L14.57,10.75L18,8V14.18L22,18.17C22,18.11 22,18.06 22,18V6A2,2 0 0,0 20,4Z" />
    </g>
    <g id="mdi-video-check" transform="translate(216 180) scale(1.5)" fill="#555">
      <path d="M17 10.5V7C17 6.45 16.55 6 16 6H4C3.45 6 3 6.45 3 7V17C3 17.55 3.45 18 4 18H16C16.55 18 17 17.55 17 17V13.5L21 17.5V6.5L17 10.5M8.93 15L6 11.8L7.24 10.56L8.93 12.26L12.76 8.43L14 9.93L8.93 15Z" />
    </g>
    <g id="mdi-video-check" transform="translate(252 180) scale(1.5)" fill="#fff">
      <path d="M17 10.5V7C17 6.45 16.55 6 16 6H4C3.45 6 3 6.45 3 7V17C3 17.55 3.45 18 4 18H16C16.55 18 17 17.55 17 17V13.5L21 17.5V6.5L17 10.5M8.93 15L6 11.8L7.24 10.56L8.93 12.26L12.76 8.43L14 9.93L8.93 15Z" />
    </g>
    <g id="mdi-video-check-outline" transform="translate(288 180) scale(1.5)" fill="#555">
      <path d="M15 8V16H5V8H15M16 6H4C3.45 6 3 6.45 3 7V17C3 17.55 3.45 18 4 18H16C16.55 18 17 17.55 17 17V13.5L21 17.5V6.5L17 10.5V7C17 6.45 16.55 6 16 6M6.35 12.08L7.5 10.95L9 12.5L12.5 9L13.65 10.37L9 15L6.35 12.08Z" />
    </g>
    <g id="mdi-video-check-outline" transform="translate(324 180) scale(1.5)" fill="#fff">
      <path d="M15 8V16H5V8H15M16 6H4C3.45 6 3 6.45 3 7V17C3 17.55 3.45 18 4 18H16C16.55 18 17 17.55 17 17V13.5L21 17.5V6.5L17 10.5V7C17 6.45 16.55 6 16 6M6.35 12.08L7.5 10.95L9 12.5L12.5 9L13.65 10.37L9 15L6.35 12.08Z" />
    </g>
    <g id="mdi-video-high-definition" transform="translate(360 180) scale(1.5)" fill="#555">
      <path d="M14 10V14C14 14.3 13.8 14.5 13.5 14.5H12.5V9.5H13.5C13.8 9.5 14 9.7 14 10M17 10.5V7C17 6.4 16.6 6 16 6H4C3.4 6 3 6.4 3 7V17C3 17.6 3.4 18 4 18H16C16.6 18 17 17.6 17 17V13.5L21 17.5V6.5L17 10.5M9.5 16H8V12.8H6V16H4.5V8H6V11.2H8V8H9.5V16M15.5 14.5C15.5 15.3 14.8 16 14 16H11V8H14C14.8 8 15.5 8.7 15.5 9.5V14.5Z" />
    </g>
    <g id="mdi-video-high-definition" transform="translate(396 180) scale(1.5)" fill="#fff">
      <path d="M14 10V14C14 14.3 13.8 14.5 13.5 14.5H12.5V9.5H13.5C13.8 9.5 14 9.7 14 10M17 10.5V7C17 6.4 16.6 6 16 6H4C3.4 6 3 6.4 3 7V17C3 17.6 3.4 18 4 18H16C16.6 18 17 17.6 17 17V13.5L21 17.5V6.5L17 10.5M9.5 16H8V12.8H6V16H4.5V8H6V11.2H8V8H9.5V16M15.5 14.5C15.5 15.3 14.8 16 14 16H11V8H14C14.8 8 15.5 8.7 15.5 9.5V14.5Z" />
    </g>
    <g id="mdi-video-image" transform="translate(432 180) scale(1.5)" fill="#555">
      <path d="M17,10.5L21,6.5V17.5L17,13.5V17A1,1 0 0,1 16,18H4A1,1 0 0,1 3,17V7A1,1 0 0,1 4,6H16A1,1 0 0,1 17,7V10.5M10.91,9.55L9.2,11.82L10.5,13.55L9.77,14.09L7.73,11.36L5,15H15L10.91,9.55Z" />
    </g>
    <g id="mdi-video-image" transform="translate(468 180) scale(1.5)" fill="#fff">
      <path d="M17,10.5L21,6.5V17.5L17,13.5V17A1,1 0 0,1 16,18H4A1,1 0 0,1 3,17V7A1,1 0 0,1 4,6H16A1,1 0 0,1 17,7V10.5M10.91,9.55L9.2,11.82L10.5,13.55L9.77,14.09L7.73,11.36L5,15H15L10.91,9.55Z" />
    </g>
    <g id="mdi-video-input-antenna" transform="translate(504 180) scale(1.5)" fill="#555">
      <path d="M12,5A7,7 0 0,0 5,12H7A5,5 0 0,1 12,7A5,5 0 0,1 17,12H19A7,7 0 0,0 12,5M13,14.29C13.88,13.9 14.5,13.03 14.5,12A2.5,2.5 0 0,0 12,9.5A2.5,2.5 0 0,0 9.5,12C9.5,13 10.12,13.9 11,14.29V17.59L7.59,21L9,22.41L12,19.41L15,22.41L16.41,21L13,17.59V14.29M12,1A11,11 0 0,0 1,12H3A9,9 0 0,1 12,3A9,9 0 0,1 21,12H23A11,11 0 0,0 12,1Z" />
    </g>
    <g id="mdi-video-input-antenna" transform="translate(540 180) scale(1.5)" fill="#fff">
      <path d="M12,5A7,7 0 0,0 5,12H7A5,5 0 0,1 12,7A5,5 0 0,1 17,12H19A7,7 0 0,0 12,5M13,14.29C13.88,13.9 14.5,13.03 14.5,12A2.5,2.5 0 0,0 12,9.5A2.5,2.5 0 0,0 9.5,12C9.5,13 10.12,13.9 11,14.29V17.59L7.59,21L9,22.41L12,19.41L15,22.41L16.41,21L13,17.59V14.29M12,1A11,11 0 0,0 1,12H3A9,9 0 0,1 12,3A9,9 0 0,1 21,12H23A11,11 0 0,0 12,1Z" />
    </g>
    <g id="mdi-video-input-component" transform="translate(576 180) scale(1.5)" fill="#555">
      <path d="M5,2A1,1 0 0,0 4,1A1,1 0 0,0 3,2V6H1V12H7V6H5V2M9,16C9,17.3 9.84,18.4 11,18.82V23H13V18.82C14.16,18.41 15,17.31 15,16V14H9V16M1,16C1,17.3 1.84,18.4 3,18.82V23H5V18.82C6.16,18.4 7,17.3 7,16V14H1V16M21,6V2A1,1 0 0,0 20,1A1,1 0 0,0 19,2V6H17V12H23V6H21M13,2A1,1 0 0,0 12,1A1,1 0 0,0 11,2V6H9V12H15V6H13V2M17,16C17,17.3 17.84,18.4 19,18.82V23H21V18.82C22.16,18.41 23,17.31 23,16V14H17V16Z" />
    </g>
    <g id="mdi-video-input-component" transform="translate(612 180) scale(1.5)" fill="#fff">
      <path d="M5,2A1,1 0 0,0 4,1A1,1 0 0,0 3,2V6H1V12H7V6H5V2M9,16C9,17.3 9.84,18.4 11,18.82V23H13V18.82C14.16,18.41 15,17.31 15,16V14H9V16M1,16C1,17.3 1.84,18.4 3,18.82V23H5V18.82C6.16,18.4 7,17.3 7,16V14H1V16M21,6V2A1,1 0 0,0 20,1A1,1 0 0,0 19,2V6H17V12H23V6H21M13,2A1,1 0 0,0 12,1A1,1 0 0,0 11,2V6H9V12H15V6H13V2M17,16C17,17.3 17.84,18.4 19,18.82V23H21V18.82C22.16,18.41 23,17.31 23,16V14H17V16Z" />
    </g>
    <g id="mdi-video-input-hdmi" transform="translate(648 180) scale(1.5)" fill="#555">
      <path d="M18,7V4A2,2 0 0,0 16,2H8A2,2 0 0,0 6,4V7H5V13L8,19V22H16V19L19,13V7H18M8,4H16V7H14V5H13V7H11V5H10V7H8V4Z" />
    </g>
    <g id="mdi-video-input-hdmi" transform="translate(684 180) scale(1.5)" fill="#fff">
      <path d="M18,7V4A2,2 0 0,0 16,2H8A2,2 0 0,0 6,4V7H5V13L8,19V22H16V19L19,13V7H18M8,4H16V7H14V5H13V7H11V5H10V7H8V4Z" />
    </g>
    <g id="mdi-video-input-scart" transform="translate(0 216) scale(1.5)" fill="#555">
      <path d="M20.6 2.2L17.3 2.4L13.8 4.4L13.3 3.5L2 10V17H3V19C3 20.1 3.9 21 5 21H15C16.1 21 17 20.1 17 19V17H18V10H17L16.8 9.6L20.3 7.6L22.1 4.8L20.6 2.2M15 17V19H5V17H15Z" />
    </g>
    <g id="mdi-video-input-scart" transform="translate(36 216) scale(1.5)" fill="#fff">
      <path d="M20.6 2.2L17.3 2.4L13.8 4.4L13.3 3.5L2 10V17H3V19C3 20.1 3.9 21 5 21H15C16.1 21 17 20.1 17 19V17H18V10H17L16.8 9.6L20.3 7.6L22.1 4.8L20.6 2.2M15 17V19H5V17H15Z" />
    </g>
    <g id="mdi-video-input-svideo" transform="translate(72 216) scale(1.5)" fill="#555">
      <path d="M8,11.5A1.5,1.5 0 0,0 6.5,10A1.5,1.5 0 0,0 5,11.5A1.5,1.5 0 0,0 6.5,13A1.5,1.5 0 0,0 8,11.5M15,6.5A1.5,1.5 0 0,0 13.5,5H10.5A1.5,1.5 0 0,0 9,6.5A1.5,1.5 0 0,0 10.5,8H13.5A1.5,1.5 0 0,0 15,6.5M8.5,15A1.5,1.5 0 0,0 7,16.5A1.5,1.5 0 0,0 8.5,18A1.5,1.5 0 0,0 10,16.5A1.5,1.5 0 0,0 8.5,15M12,1A11,11 0 0,0 1,12A11,11 0 0,0 12,23A11,11 0 0,0 23,12A11,11 0 0,0 12,1M12,21C7.04,21 3,16.96 3,12C3,7.04 7.04,3 12,3C16.96,3 21,7.04 21,12C21,16.96 16.96,21 12,21M17.5,10A1.5,1.5 0 0,0 16,11.5A1.5,1.5 0 0,0 17.5,13A1.5,1.5 0 0,0 19,11.5A1.5,1.5 0 0,0 17.5,10M15.5,15A1.5,1.5 0 0,0 14,16.5A1.5,1.5 0 0,0 15.5,18A1.5,1.5 0 0,0 17,16.5A1.5,1.5 0 0,0 15.5,15Z" />
    </g>
    <g id="mdi-video-input-svideo" transform="translate(108 216) scale(1.5)" fill="#fff">
      <path d="M8,11.5A1.5,1.5 0 0,0 6.5,10A1.5,1.5 0 0,0 5,11.5A1.5,1.5 0 0,0 6.5,13A1.5,1.5 0 0,0 8,11.5M15,6.5A1.5,1.5 0 0,0 13.5,5H10.5A1.5,1.5 0 0,0 9,6.5A1.5,1.5 0 0,0 10.5,8H13.5A1.5,1.5 0 0,0 15,6.5M8.5,15A1.5,1.5 0 0,0 7,16.5A1.5,1.5 0 0,0 8.5,18A1.5,1.5 0 0,0 10,16.5A1.5,1.5 0 0,0 8.5,15M12,1A11,11 0 0,0 1,12A11,11 0 0,0 12,23A11,11 0 0,0 23,12A11,11 0 0,0 12,1M12,21C7.04,21 3,16.96 3,12C3,7.04 7.04,3 12,3C16.96,3 21,7.04 21,12C21,16.96 16.96,21 12,21M17.5,10A1.5,1.5 0 0,0 16,11.5A1.5,1.5 0 0,0 17.5,13A1.5,1.5 0 0,0 19,11.5A1.5,1.5 0 0,0 17.5,10M15.5,15A1.5,1.5 0 0,0 14,16.5A1.5,1.5 0 0,0 15.5,18A1.5,1.5 0 0,0 17,16.5A1.5,1.5 0 0,0 15.5,15Z" />
    </g>
    <g id="mdi-video-minus" transform="translate(144 216) scale(1.5)" fill="#555">
      <path d="M17,10.5V7A1,1 0 0,0 16,6H4A1,1 0 0,0 3,7V17A1,1 0 0,0 4,18H16A1,1 0 0,0 17,17V13.5L21,17.5V6.5L17,10.5M14,13H6V11H14V13Z" />
    </g>
    <g id="mdi-video-minus" transform="translate(180 216) scale(1.5)" fill="#fff">
      <path d="M17,10.5V7A1,1 0 0,0 16,6H4A1,1 0 0,0 3,7V17A1,1 0 0,0 4,18H16A1,1 0 0,0 17,17V13.5L21,17.5V6.5L17,10.5M14,13H6V11H14V13Z" />
    </g>
    <g id="mdi-video-minus-outline" transform="translate(216 216) scale(1.5)" fill="#555">
      <path d="M15 8V16H5V8H15M16 6H4C3.45 6 3 6.45 3 7V17C3 17.55 3.45 18 4 18H16C16.55 18 17 17.55 17 17V13.5L21 17.5V6.5L17 10.5V7C17 6.45 16.55 6 16 6M13 13H7V11H13V13Z" />
    </g>
    <g id="mdi-video-minus-outline" transform="translate(252 216) scale(1.5)" fill="#fff">
      <path d="M15 8V16H5V8H15M16 6H4C3.45 6 3 6.45 3 7V17C3 17.55 3.45 18 4 18H16C16.55 18 17 17.55 17 17V13.5L21 17.5V6.5L17 10.5V7C17 6.45 16.55 6 16 6M13 13H7V11H13V13Z" />
    </g>
    <g id="mdi-video-off" transform="translate(288 216) scale(1.5)" fill="#555">
      <path d="M3.27,2L2,3.27L4.73,6H4A1,1 0 0,0 3,7V17A1,1 0 0,0 4,18H16C16.2,18 16.39,17.92 16.54,17.82L19.73,21L21,19.73M21,6.5L17,10.5V7A1,1 0 0,0 16,6H9.82L21,17.18V6.5Z" />
    </g>
    <g id="mdi-video-off" transform="translate(324 216) scale(1.5)" fill="#fff">
      <path d="M3.27,2L2,3.27L4.73,6H4A1,1 0 0,0 3,7V17A1,1 0 0,0 4,18H16C16.2,18 16.39,17.92 16.54,17.82L19.73,21L21,19.73M21,6.5L17,10.5V7A1,1 0 0,0 16,6H9.82L21,17.18V6.5Z" />
    </g>
    <g id="mdi-video-off-outline" transform="translate(360 216) scale(1.5)" fill="#555">
      <path d="M3.41,1.86L2,3.27L4.73,6H4A1,1 0 0,0 3,7V17A1,1 0 0,0 4,18H16C16.21,18 16.39,17.92 16.55,17.82L19.73,21L21.14,19.59L12.28,10.73L3.41,1.86M5,16V8H6.73L14.73,16H5M15,8V10.61L21,16.61V6.5L17,10.5V7A1,1 0 0,0 16,6H10.39L12.39,8H15Z" />
    </g>
    <g id="mdi-video-off-outline" transform="translate(396 216) scale(1.5)" fill="#fff">
      <path d="M3.41,1.86L2,3.27L4.73,6H4A1,1 0 0,0 3,7V17A1,1 0 0,0 4,18H16C16.21,18 16.39,17.92 16.55,17.82L19.73,21L21.14,19.59L12.28,10.73L3.41,1.86M5,16V8H6.73L14.73,16H5M15,8V10.61L21,16.61V6.5L17,10.5V7A1,1 0 0,0 16,6H10.39L12.39,8H15Z" />
    </g>
    <g id="mdi-video-outline" transform="translate(432 216) scale(1.5)" fill="#555">
      <path d="M15,8V16H5V8H15M16,6H4A1,1 0 0,0 3,7V17A1,1 0 0,0 4,18H16A1,1 0 0,0 17,17V13.5L21,17.5V6.5L17,10.5V7A1,1 0 0,0 16,6Z" />
    </g>
    <g id="mdi-video-outline" transform="translate(468 216) scale(1.5)" fill="#fff">
      <path d="M15,8V16H5V8H15M16,6H4A1,1 0 0,0 3,7V17A1,1 0 0,0 4,18H16A1,1 0 0,0 17,17V13.5L21,17.5V6.5L17,10.5V7A1,1 0 0,0 16,6Z" />
    </g>
    <g id="mdi-video-plus" transform="translate(504 216) scale(1.5)" fill="#555">
      <path d="M17,10.5V7A1,1 0 0,0 16,6H4A1,1 0 0,0 3,7V17A1,1 0 0,0 4,18H16A1,1 0 0,0 17,17V13.5L21,17.5V6.5L17,10.5M14,13H11V16H9V13H6V11H9V8H11V11H14V13Z" />
    </g>
    <g id="mdi-video-plus" transform="translate(540 216) scale(1.5)" fill="#fff">
      <path d="M17,10.5V7A1,1 0 0,0 16,6H4A1,1 0 0,0 3,7V17A1,1 0 0,0 4,18H16A1,1 0 0,0 17,17V13.5L21,17.5V6.5L17,10.5M14,13H11V16H9V13H6V11H9V8H11V11H14V13Z" />
    </g>
    <g id="mdi-video-plus-outline" transform="translate(576 216) scale(1.5)" fill="#555">
      <path d="M15 8V16H5V8H15M16 6H4C3.45 6 3 6.45 3 7V17C3 17.55 3.45 18 4 18H16C16.55 18 17 17.55 17 17V13.5L21 17.5V6.5L17 10.5V7C17 6.45 16.55 6 16 6M13 13H11V15H9V13H7V11H9V9H11V11H13V13Z" />
    </g>
    <g id="mdi-video-plus-outline" transform="translate(612 216) scale(1.5)" fill="#fff">
      <path d="M15 8V16H5V8H15M16 6H4C3.45 6 3 6.45 3 7V17C3 17.55 3.45 18 4 18H16C16.55 18 17 17.55 17 17V13.5L21 17.5V6.5L17 10.5V7C17 6.45 16.55 6 16 6M13 13H11V15H9V13H7V11H9V9H11V11H13V13Z" />
    </g>
    <g id="mdi-video-stabilization" transform="translate(648 216) scale(1.5)" fill="#555">
      <path d="M4,4H20A2,2 0 0,1 22,6V18A2,2 0 0,1 20,20H4A2,2 0 0,1 2,18V6A2,2 0 0,1 4,4M4,6V18H20V6H4M7.24,6.58L18.83,9.69L16.76,17.42L5.17,14.31L7.24,6.58Z" />
    </g>
    <g id="mdi-video-stabilization" transform="translate(684 216) scale(1.5)" fill="#fff">
      <path d="M4,4H20A2,2 0 0,1 22,6V18A2,2 0 0,1 20,20H4A2,2 0 0,1 2,18V6A2,2 0 0,1 4,4M4,6V18H20V6H4M7.24,6.58L18.83,9.69L16.76,17.42L5.17,14.31L7.24,6.58Z" />
    </g>
    <g id="mdi-video-switch" transform="translate(0 252) scale(1.5)" fill="#555">
      <path d="M13,15.5V13H7V15.5L3.5,12L7,8.5V11H13V8.5L16.5,12M18,9.5V6A1,1 0 0,0 17,5H3A1,1 0 0,0 2,6V18A1,1 0 0,0 3,19H17A1,1 0 0,0 18,18V14.5L22,18.5V5.5L18,9.5Z" />
    </g>
    <g id="mdi-video-switch" transform="translate(36 252) scale(1.5)" fill="#fff">
      <path d="M13,15.5V13H7V15.5L3.5,12L7,8.5V11H13V8.5L16.5,12M18,9.5V6A1,1 0 0,0 17,5H3A1,1 0 0,0 2,6V18A1,1 0 0,0 3,19H17A1,1 0 0,0 18,18V14.5L22,18.5V5.5L18,9.5Z" />
    </g>
    <g id="mdi-video-switch-outline" transform="translate(72 252) scale(1.5)" fill="#555">
      <path d="M8 13H12V15L15 12L12 9V11H8V9L5 12L8 15V13M18 9.5V6C18 5.4 17.5 5 17 5H3C2.5 5 2 5.4 2 6V18C2 18.5 2.5 19 3 19H17C17.5 19 18 18.5 18 18V14.5L22 18.5V5.5L18 9.5M16 17H4V7H16V17Z" />
    </g>
    <g id="mdi-video-switch-outline" transform="translate(108 252) scale(1.5)" fill="#fff">
      <path d="M8 13H12V15L15 12L12 9V11H8V9L5 12L8 15V13M18 9.5V6C18 5.4 17.5 5 17 5H3C2.5 5 2 5.4 2 6V18C2 18.5 2.5 19 3 19H17C17.5 19 18 18.5 18 18V14.5L22 18.5V5.5L18 9.5M16 17H4V7H16V17Z" />
    </g>
    <g id="mdi-video-vintage" transform="translate(144 252) scale(1.5)" fill="#555">
      <path d="M18,14.5V11A1,1 0 0,0 17,10H16C18.24,8.39 18.76,5.27 17.15,3C15.54,0.78 12.42,0.26 10.17,1.87C9.5,2.35 8.96,3 8.6,3.73C6.25,2.28 3.17,3 1.72,5.37C0.28,7.72 1,10.8 3.36,12.25C3.57,12.37 3.78,12.5 4,12.58V21A1,1 0 0,0 5,22H17A1,1 0 0,0 18,21V17.5L22,21.5V10.5L18,14.5M13,4A2,2 0 0,1 15,6A2,2 0 0,1 13,8A2,2 0 0,1 11,6A2,2 0 0,1 13,4M6,6A2,2 0 0,1 8,8A2,2 0 0,1 6,10A2,2 0 0,1 4,8A2,2 0 0,1 6,6Z" />
    </g>
    <g id="mdi-video-vintage" transform="translate(180 252) scale(1.5)" fill="#fff">
      <path d="M18,14.5V11A1,1 0 0,0 17,10H16C18.24,8.39 18.76,5.27 17.15,3C15.54,0.78 12.42,0.26 10.17,1.87C9.5,2.35 8.96,3 8.6,3.73C6.25,2.28 3.17,3 1.72,5.37C0.28,7.72 1,10.8 3.36,12.25C3.57,12.37 3.78,12.5 4,12.58V21A1,1 0 0,0 5,22H17A1,1 0 0,0 18,21V17.5L22,21.5V10.5L18,14.5M13,4A2,2 0 0,1 15,6A2,2 0 0,1 13,8A2,2 0 0,1 11,6A2,2 0 0,1 13,4M6,6A2,2 0 0,1 8,8A2,2 0 0,1 6,10A2,2 0 0,1 4,8A2,2 0 0,1 6,6Z" />
    </g>
    <g id="mdi-video-wireless" transform="translate(216 252) scale(1.5)" fill="#555">
      <path d="M17,14.5V11A1,1 0 0,0 16,10H4A1,1 0 0,0 3,11V21A1,1 0 0,0 4,22H16A1,1 0 0,0 17,21V17.5L21,21.5V10.5M3,3.86L4.4,5.24C7.5,2.19 12.5,2.19 15.6,5.24L17,3.86C13.14,0.05 6.87,0.05 3,3.86M5.8,6.62L7.2,8C8.75,6.5 11.25,6.5 12.8,8L14.2,6.62C11.88,4.34 8.12,4.34 5.8,6.62Z" />
    </g>
    <g id="mdi-video-wireless" transform="translate(252 252) scale(1.5)" fill="#fff">
      <path d="M17,14.5V11A1,1 0 0,0 16,10H4A1,1 0 0,0 3,11V21A1,1 0 0,0 4,22H16A1,1 0 0,0 17,21V17.5L21,21.5V10.5M3,3.86L4.4,5.24C7.5,2.19 12.5,2.19 15.6,5.24L17,3.86C13.14,0.05 6.87,0.05 3,3.86M5.8,6.62L7.2,8C8.75,6.5 11.25,6.5 12.8,8L14.2,6.62C11.88,4.34 8.12,4.34 5.8,6.62Z" />
    </g>
    <g id="mdi-video-wireless-outline" transform="translate(288 252) scale(1.5)" fill="#555">
      <path d="M15,12V20H5V12H15M16,10H4A1,1 0 0,0 3,11V21A1,1 0 0,0 4,22H16A1,1 0 0,0 17,21V17.5L21,21.5V10.5L17,14.5V11A1,1 0 0,0 16,10M3,3.86L4.4,5.24C7.5,2.19 12.5,2.19 15.6,5.24L17,3.86C13.14,0.05 6.87,0.05 3,3.86M5.8,6.63L7.2,8C8.75,6.5 11.25,6.5 12.8,8L14.2,6.63C11.88,4.34 8.12,4.34 5.8,6.63Z" />
    </g>
    <g id="mdi-video-wireless-outline" transform="translate(324 252) scale(1.5)" fill="#fff">
      <path d="M15,12V20H5V12H15M16,10H4A1,1 0 0,0 3,11V21A1,1 0 0,0 4,22H16A1,1 0 0,0 17,21V17.5L21,21.5V10.5L17,14.5V11A1,1 0 0,0 16,10M3,3.86L4.4,5.24C7.5,2.19 12.5,2.19 15.6,5.24L17,3.86C13.14,0.05 6.87,0.05 3,3.86M5.8,6.63L7.2,8C8.75,6.5 11.25,6.5 12.8,8L14.2,6.63C11.88,4.34 8.12,4.34 5.8,6.63Z" />
    </g>
    <g id="mdi-view-agenda" transform="translate(360 252) scale(1.5)" fill="#555">
      <path d="M21 3H3C2.4 3 2 3.4 2 4V10C2 10.6 2.4 11 3 11H21C21.6 11 22 10.6 22 10V4C22 3.4 21.6 3 21 3M21 13H3C2.4 13 2 13.4 2 14V20C2 20.6 2.4 21 3 21H21C21.6 21 22 20.6 22 20V14C22 13.4 21.6 13 21 13Z" />
    </g>
    <g id="mdi-view-agenda" transform="translate(396 252) scale(1.5)" fill="#fff">
      <path d="M21 3H3C2.4 3 2 3.4 2 4V10C2 10.6 2.4 11 3 11H21C21.6 11 22 10.6 22 10V4C22 3.4 21.6 3 21 3M21 13H3C2.4 13 2 13.4 2 14V20C2 20.6 2.4 21 3 21H21C21.6 21 22 20.6 22 20V14C22 13.4 21.6 13 21 13Z" />
    </g>
    <g id="mdi-view-agenda-outline" transform="translate(432 252) scale(1.5)" fill="#555">
      <path d="M21 13H3A1 1 0 0 0 2 14V20A1 1 0 0 0 3 21H21A1 1 0 0 0 22 20V14A1 1 0 0 0 21 13M20 19H4V15H20M21 3H3A1 1 0 0 0 2 4V10A1 1 0 0 0 3 11H21A1 1 0 0 0 22 10V4A1 1 0 0 0 21 3M20 9H4V5H20Z" />
    </g>
    <g id="mdi-view-agenda-outline" transform="translate(468 252) scale(1.5)" fill="#fff">
      <path d="M21 13H3A1 1 0 0 0 2 14V20A1 1 0 0 0 3 21H21A1 1 0 0 0 22 20V14A1 1 0 0 0 21 13M20 19H4V15H20M21 3H3A1 1 0 0 0 2 4V10A1 1 0 0 0 3 11H21A1 1 0 0 0 22 10V4A1 1 0 0 0 21 3M20 9H4V5H20Z" />
    </g>
    <g id="mdi-view-array" transform="translate(504 252) scale(1.5)" fill="#555">
      <path d="M8,18H17V5H8M18,5V18H21V5M4,18H7V5H4V18Z" />
    </g>
    <g id="mdi-view-array" transform="translate(540 252) scale(1.5)" fill="#fff">
      <path d="M8,18H17V5H8M18,5V18H21V5M4,18H7V5H4V18Z" />
    </g>
    <g id="mdi-view-array-outline" transform="translate(576 252) scale(1.5)" fill="#555">
      <path d="M15 7V16H10V7H15M21 5H18V18H21V5M17 5H8V18H17V5M7 5H4V18H7V5Z" />
    </g>
    <g id="mdi-view-array-outline" transform="translate(612 252) scale(1.5)" fill="#fff">
      <path d="M15 7V16H10V7H15M21 5H18V18H21V5M17 5H8V18H17V5M7 5H4V18H7V5Z" />
    </g>
    <g id="mdi-view-carousel" transform="translate(648 252) scale(1.5)" fill="#555">
      <path d="M18,6V17H22V6M2,17H6V6H2M7,19H17V4H7V19Z" />
    </g>
    <g id="mdi-view-carousel" transform="translate(684 252) scale(1.5)" fill="#fff">
      <path d="M18,6V17H22V6M2,17H6V6H2M7,19H17V4H7V19Z" />
    </g>
    <g id="mdi-view-carousel-outline" transform="translate(0 288) scale(1.5)" fill="#555">
      <path d="M2 6H6V17H2V6M7 19H17V4H7V19M9 6H15V17H9V6M18 6H22V17H18V6Z" />
    </g>
    <g id="mdi-view-carousel-outline" transform="translate(36 288) scale(1.5)" fill="#fff">
      <path d="M2 6H6V17H2V6M7 19H17V4H7V19M9 6H15V17H9V6M18 6H22V17H18V6Z" />
    </g>
    <g id="mdi-view-column" transform="translate(72 288) scale(1.5)" fill="#555">
      <path d="M16,5V18H21V5M4,18H9V5H4M10,18H15V5H10V18Z" />
    </g>
    <g id="mdi-view-column" transform="translate(108 288) scale(1.5)" fill="#fff">
      <path d="M16,5V18H21V5M4,18H9V5H4M10,18H15V5H10V18Z" />
    </g>
    <g id="mdi-view-column-outline" transform="translate(144 288) scale(1.5)" fill="#555">
      <path d="M4 5V18H21V5H4M14 7V16H11V7H14M6 7H9V16H6V7M19 16H16V7H19V16Z" />
    </g>
    <g id="mdi-view-column-outline" transform="translate(180 288) scale(1.5)" fill="#fff">
      <path d="M4 5V18H21V5H4M14 7V16H11V7H14M6 7H9V16H6V7M19 16H16V7H19V16Z" />
    </g>
    <g id="mdi-view-comfy" transform="translate(216 288) scale(1.5)" fill="#555">
      <path d="M3,9H7V5H3V9M3,14H7V10H3V14M8,14H12V10H8V14M13,14H17V10H13V14M8,9H12V5H8V9M13,5V9H17V5H13M18,14H22V10H18V14M3,19H7V15H3V19M8,19H12V15H8V19M13,19H17V15H13V19M18,19H22V15H18V19M18,5V9H22V5H18Z" />
    </g>
    <g id="mdi-view-comfy" transform="translate(252 288) scale(1.5)" fill="#fff">
      <path d="M3,9H7V5H3V9M3,14H7V10H3V14M8,14H12V10H8V14M13,14H17V10H13V14M8,9H12V5H8V9M13,5V9H17V5H13M18,14H22V10H18V14M3,19H7V15H3V19M8,19H12V15H8V19M13,19H17V15H13V19M18,19H22V15H18V19M18,5V9H22V5H18Z" />
    </g>
    <g id="mdi-view-comfy-outline" transform="translate(288 288) scale(1.5)" fill="#555">
      <path d="M3 5V19H22V5H3M20 9H17.75V7H20V9M9.25 11H11.5V13H9.25V11M7.25 13H5V11H7.25V13M11.5 9H9.25V7H11.5V9M13.5 7H15.75V9H13.5V7M11.5 15V17H9.25V15H11.5M13.5 15H15.75V17H13.5V15M13.5 13V11H15.75V13H13.5M17.75 11H20V13H17.75V11M7.25 7V9H5V7H7.25M5 15H7.25V17H5V15M17.75 17V15H20V17H17.75Z" />
    </g>
    <g id="mdi-view-comfy-outline" transform="translate(324 288) scale(1.5)" fill="#fff">
      <path d="M3 5V19H22V5H3M20 9H17.75V7H20V9M9.25 11H11.5V13H9.25V11M7.25 13H5V11H7.25V13M11.5 9H9.25V7H11.5V9M13.5 7H15.75V9H13.5V7M11.5 15V17H9.25V15H11.5M13.5 15H15.75V17H13.5V15M13.5 13V11H15.75V13H13.5M17.75 11H20V13H17.75V11M7.25 7V9H5V7H7.25M5 15H7.25V17H5V15M17.75 17V15H20V17H17.75Z" />
    </g>
    <g id="mdi-view-compact" transform="translate(360 288) scale(1.5)" fill="#555">
      <path d="M3,19H9V12H3V19M10,19H22V12H10V19M3,5V11H22V5H3Z" />
    </g>
    <g id="mdi-view-compact" transform="translate(396 288) scale(1.5)" fill="#fff">
      <path d="M3,19H9V12H3V19M10,19H22V12H10V19M3,5V11H22V5H3Z" />
    </g>
    <g id="mdi-view-compact-outline" transform="translate(432 288) scale(1.5)" fill="#555">
      <path d="M3,5V19H22V5H3M5,7H20V11H5V7M5,17V13H9V17H5M11,17V13H20V17H11Z" />
    </g>
    <g id="mdi-view-compact-outline" transform="translate(468 288) scale(1.5)" fill="#fff">
      <path d="M3,5V19H22V5H3M5,7H20V11H5V7M5,17V13H9V17H5M11,17V13H20V17H11Z" />
    </g>
    <g id="mdi-view-dashboard" transform="translate(504 288) scale(1.5)" fill="#555">
      <path d="M13,3V9H21V3M13,21H21V11H13M3,21H11V15H3M3,13H11V3H3V13Z" />
    </g>
    <g id="mdi-view-dashboard" transform="translate(540 288) scale(1.5)" fill="#fff">
      <path d="M13,3V9H21V3M13,21H21V11H13M3,21H11V15H3M3,13H11V3H3V13Z" />
    </g>
    <g id="mdi-view-dashboard-outline" transform="translate(576 288) scale(1.5)" fill="#555">
      <path d="M19,5V7H15V5H19M9,5V11H5V5H9M19,13V19H15V13H19M9,17V19H5V17H9M21,3H13V9H21V3M11,3H3V13H11V3M21,11H13V21H21V11M11,15H3V21H11V15Z" />
    </g>
    <g id="mdi-view-dashboard-outline" transform="translate(612 288) scale(1.5)" fill="#fff">
      <path d="M19,5V7H15V5H19M9,5V11H5V5H9M19,13V19H15V13H19M9,17V19H5V17H9M21,3H13V9H21V3M11,3H3V13H11V3M21,11H13V21H21V11M11,15H3V21H11V15Z" />
    </g>
    <g id="mdi-view-dashboard-variant" transform="translate(648 288) scale(1.5)" fill="#555">
      <path d="M2,5V19H8V5H2M9,5V10H15V5H9M16,5V14H22V5H16M9,11V19H15V11H9M16,15V19H22V15H16Z" />
    </g>
    <g id="mdi-view-dashboard-variant" transform="translate(684 288) scale(1.5)" fill="#fff">
      <path d="M2,5V19H8V5H2M9,5V10H15V5H9M16,5V14H22V5H16M9,11V19H15V11H9M16,15V19H22V15H16Z" />
    </g>
    <g id="mdi-view-dashboard-variant-outline" transform="translate(0 324) scale(1.5)" fill="#555">
      <path d="M2 5V19H22V5H2M20 12H16V7H20V12M14 10H10V7H14V10M10 12H14V17H10V12M4 7H8V17H4V7M16 17V14H20V17H16Z" />
    </g>
    <g id="mdi-view-dashboard-variant-outline" transform="translate(36 324) scale(1.5)" fill="#fff">
      <path d="M2 5V19H22V5H2M20 12H16V7H20V12M14 10H10V7H14V10M10 12H14V17H10V12M4 7H8V17H4V7M16 17V14H20V17H16Z" />
    </g>
    <g id="mdi-view-day" transform="translate(72 324) scale(1.5)" fill="#555">
      <path d="M2,3V6H21V3M20,8H3A1,1 0 0,0 2,9V15A1,1 0 0,0 3,16H20A1,1 0 0,0 21,15V9A1,1 0 0,0 20,8M2,21H21V18H2V21Z" />
    </g>
    <g id="mdi-view-day" transform="translate(108 324) scale(1.5)" fill="#fff">
      <path d="M2,3V6H21V3M20,8H3A1,1 0 0,0 2,9V15A1,1 0 0,0 3,16H20A1,1 0 0,0 21,15V9A1,1 0 0,0 20,8M2,21H21V18H2V21Z" />
    </g>
    <g id="mdi-view-day-outline" transform="translate(144 324) scale(1.5)" fill="#555">
      <path d="M21 18H2V20H21V18M19 10V14H4V10H19M20 8H3C2.45 8 2 8.45 2 9V15C2 15.55 2.45 16 3 16H20C20.55 16 21 15.55 21 15V9C21 8.45 20.55 8 20 8M21 4H2V6H21V4Z" />
    </g>
    <g id="mdi-view-day-outline" transform="translate(180 324) scale(1.5)" fill="#fff">
      <path d="M21 18H2V20H21V18M19 10V14H4V10H19M20 8H3C2.45 8 2 8.45 2 9V15C2 15.55 2.45 16 3 16H20C20.55 16 21 15.55 21 15V9C21 8.45 20.55 8 20 8M21 4H2V6H21V4Z" />
    </g>
    <g id="mdi-view-grid" transform="translate(216 324) scale(1.5)" fill="#555">
      <path d="M3,11H11V3H3M3,21H11V13H3M13,21H21V13H13M13,3V11H21V3" />
    </g>
    <g id="mdi-view-grid" transform="translate(252 324) scale(1.5)" fill="#fff">
      <path d="M3,11H11V3H3M3,21H11V13H3M13,21H21V13H13M13,3V11H21V3" />
    </g>
    <g id="mdi-view-grid-outline" transform="translate(288 324) scale(1.5)" fill="#555">
      <path d="M3 11H11V3H3M5 5H9V9H5M13 21H21V13H13M15 15H19V19H15M3 21H11V13H3M5 15H9V19H5M13 3V11H21V3M19 9H15V5H19Z" />
    </g>
    <g id="mdi-view-grid-outline" transform="translate(324 324) scale(1.5)" fill="#fff">
      <path d="M3 11H11V3H3M5 5H9V9H5M13 21H21V13H13M15 15H19V19H15M3 21H11V13H3M5 15H9V19H5M13 3V11H21V3M19 9H15V5H19Z" />
    </g>
    <g id="mdi-view-grid-plus" transform="translate(360 324) scale(1.5)" fill="#555">
      <path d="M13 3V11H21V3H13M3 21H11V13H3V21M3 3V11H11V3H3M13 16H16V13H18V16H21V18H18V21H16V18H13V16Z" />
    </g>
    <g id="mdi-view-grid-plus" transform="translate(396 324) scale(1.5)" fill="#fff">
      <path d="M13 3V11H21V3H13M3 21H11V13H3V21M3 3V11H11V3H3M13 16H16V13H18V16H21V18H18V21H16V18H13V16Z" />
    </g>
    <g id="mdi-view-grid-plus-outline" transform="translate(432 324) scale(1.5)" fill="#555">
      <path d="M3 21H11V13H3M5 15H9V19H5M3 11H11V3H3M5 5H9V9H5M13 3V11H21V3M19 9H15V5H19M18 16H21V18H18V21H16V18H13V16H16V13H18Z" />
    </g>
    <g id="mdi-view-grid-plus-outline" transform="translate(468 324) scale(1.5)" fill="#fff">
      <path d="M3 21H11V13H3M5 15H9V19H5M3 11H11V3H3M5 5H9V9H5M13 3V11H21V3M19 9H15V5H19M18 16H21V18H18V21H16V18H13V16H16V13H18Z" />
    </g>
    <g id="mdi-view-headline" transform="translate(504 324) scale(1.5)" fill="#555">
      <path d="M4,5V7H21V5M4,11H21V9H4M4,19H21V17H4M4,15H21V13H4V15Z" />
    </g>
    <g id="mdi-view-headline" transform="translate(540 324) scale(1.5)" fill="#fff">
      <path d="M4,5V7H21V5M4,11H21V9H4M4,19H21V17H4M4,15H21V13H4V15Z" />
    </g>
    <g id="mdi-view-list" transform="translate(576 324) scale(1.5)" fill="#555">
      <path d="M9,5V9H21V5M9,19H21V15H9M9,14H21V10H9M4,9H8V5H4M4,19H8V15H4M4,14H8V10H4V14Z" />
    </g>
    <g id="mdi-view-list" transform="translate(612 324) scale(1.5)" fill="#fff">
      <path d="M9,5V9H21V5M9,19H21V15H9M9,14H21V10H9M4,9H8V5H4M4,19H8V15H4M4,14H8V10H4V14Z" />
    </g>
    <g id="mdi-view-list-outline" transform="translate(648 324) scale(1.5)" fill="#555">
      <path d="M3 5V19H20V5H3M7 7V9H5V7H7M5 13V11H7V13H5M5 15H7V17H5V15M18 17H9V15H18V17M18 13H9V11H18V13M18 9H9V7H18V9Z" />
    </g>
    <g id="mdi-view-list-outline" transform="translate(684 324) scale(1.5)" fill="#fff">
      <path d="M3 5V19H20V5H3M7 7V9H5V7H7M5 13V11H7V13H5M5 15H7V17H5V15M18 17H9V15H18V17M18 13H9V11H18V13M18 9H9V7H18V9Z" />
    </g>
  </svg>