<?xml version="1.0" encoding="UTF-8"?>
<!DOCTYPE svg PUBLIC "-//W3C//DTD SVG 1.1//EN" "http://www.w3.org/Graphics/SVG/1.1/DTD/svg11.dtd"><svg
  xmlns="http://www.w3.org/2000/svg" xmlns:xlink="http://www.w3.org/1999/xlink" version="1.1"
  width="720" height="900" viewBox="0 0 720 900">
    <g id="mdi-alpha-n" transform="translate(0 0) scale(1.5)" fill="#555">
      <path d="M9,7V17H11V12L13,17H15V7H13V12L11,7H9Z" />
    </g>
    <g id="mdi-alpha-n" transform="translate(36 0) scale(1.5)" fill="#fff">
      <path d="M9,7V17H11V12L13,17H15V7H13V12L11,7H9Z" />
    </g>
    <g id="mdi-alpha-n-box" transform="translate(72 0) scale(1.5)" fill="#555">
      <path d="M9,7V17H11V12L13,17H15V7H13V12L11,7H9M5,3H19A2,2 0 0,1 21,5V19A2,2 0 0,1 19,21H5A2,2 0 0,1 3,19V5A2,2 0 0,1 5,3Z" />
    </g>
    <g id="mdi-alpha-n-box" transform="translate(108 0) scale(1.5)" fill="#fff">
      <path d="M9,7V17H11V12L13,17H15V7H13V12L11,7H9M5,3H19A2,2 0 0,1 21,5V19A2,2 0 0,1 19,21H5A2,2 0 0,1 3,19V5A2,2 0 0,1 5,3Z" />
    </g>
    <g id="mdi-alpha-n-box-outline" transform="translate(144 0) scale(1.5)" fill="#555">
      <path d="M9,7H11L13,12V7H15V17H13L11,12V17H9V7M5,3H19A2,2 0 0,1 21,5V19A2,2 0 0,1 19,21H5A2,2 0 0,1 3,19V5A2,2 0 0,1 5,3M5,5V19H19V5H5Z" />
    </g>
    <g id="mdi-alpha-n-box-outline" transform="translate(180 0) scale(1.5)" fill="#fff">
      <path d="M9,7H11L13,12V7H15V17H13L11,12V17H9V7M5,3H19A2,2 0 0,1 21,5V19A2,2 0 0,1 19,21H5A2,2 0 0,1 3,19V5A2,2 0 0,1 5,3M5,5V19H19V5H5Z" />
    </g>
    <g id="mdi-alpha-n-circle" transform="translate(216 0) scale(1.5)" fill="#555">
      <path d="M9,7V17H11V12L13,17H15V7H13V12L11,7H9M12,2A10,10 0 0,1 22,12A10,10 0 0,1 12,22A10,10 0 0,1 2,12A10,10 0 0,1 12,2Z" />
    </g>
    <g id="mdi-alpha-n-circle" transform="translate(252 0) scale(1.5)" fill="#fff">
      <path d="M9,7V17H11V12L13,17H15V7H13V12L11,7H9M12,2A10,10 0 0,1 22,12A10,10 0 0,1 12,22A10,10 0 0,1 2,12A10,10 0 0,1 12,2Z" />
    </g>
    <g id="mdi-alpha-n-circle-outline" transform="translate(288 0) scale(1.5)" fill="#555">
      <path d="M9,7H11L13,12V7H15V17H13L11,12V17H9V7M12,2A10,10 0 0,1 22,12A10,10 0 0,1 12,22A10,10 0 0,1 2,12A10,10 0 0,1 12,2M12,4A8,8 0 0,0 4,12A8,8 0 0,0 12,20A8,8 0 0,0 20,12A8,8 0 0,0 12,4Z" />
    </g>
    <g id="mdi-alpha-n-circle-outline" transform="translate(324 0) scale(1.5)" fill="#fff">
      <path d="M9,7H11L13,12V7H15V17H13L11,12V17H9V7M12,2A10,10 0 0,1 22,12A10,10 0 0,1 12,22A10,10 0 0,1 2,12A10,10 0 0,1 12,2M12,4A8,8 0 0,0 4,12A8,8 0 0,0 12,20A8,8 0 0,0 20,12A8,8 0 0,0 12,4Z" />
    </g>
    <g id="mdi-alpha-o" transform="translate(360 0) scale(1.5)" fill="#555">
      <path d="M11,7A2,2 0 0,0 9,9V15A2,2 0 0,0 11,17H13A2,2 0 0,0 15,15V9A2,2 0 0,0 13,7H11M11,9H13V15H11V9Z" />
    </g>
    <g id="mdi-alpha-o" transform="translate(396 0) scale(1.5)" fill="#fff">
      <path d="M11,7A2,2 0 0,0 9,9V15A2,2 0 0,0 11,17H13A2,2 0 0,0 15,15V9A2,2 0 0,0 13,7H11M11,9H13V15H11V9Z" />
    </g>
    <g id="mdi-alpha-o-box" transform="translate(432 0) scale(1.5)" fill="#555">
      <path d="M11,7A2,2 0 0,0 9,9V15A2,2 0 0,0 11,17H13A2,2 0 0,0 15,15V9A2,2 0 0,0 13,7H11M11,9H13V15H11V9M5,3H19A2,2 0 0,1 21,5V19A2,2 0 0,1 19,21H5A2,2 0 0,1 3,19V5A2,2 0 0,1 5,3Z" />
    </g>
    <g id="mdi-alpha-o-box" transform="translate(468 0) scale(1.5)" fill="#fff">
      <path d="M11,7A2,2 0 0,0 9,9V15A2,2 0 0,0 11,17H13A2,2 0 0,0 15,15V9A2,2 0 0,0 13,7H11M11,9H13V15H11V9M5,3H19A2,2 0 0,1 21,5V19A2,2 0 0,1 19,21H5A2,2 0 0,1 3,19V5A2,2 0 0,1 5,3Z" />
    </g>
    <g id="mdi-alpha-o-box-outline" transform="translate(504 0) scale(1.5)" fill="#555">
      <path d="M5,3H19A2,2 0 0,1 21,5V19A2,2 0 0,1 19,21H5A2,2 0 0,1 3,19V5A2,2 0 0,1 5,3M5,5V19H19V5H5M11,7H13A2,2 0 0,1 15,9V15A2,2 0 0,1 13,17H11A2,2 0 0,1 9,15V9A2,2 0 0,1 11,7M11,9V15H13V9H11Z" />
    </g>
    <g id="mdi-alpha-o-box-outline" transform="translate(540 0) scale(1.5)" fill="#fff">
      <path d="M5,3H19A2,2 0 0,1 21,5V19A2,2 0 0,1 19,21H5A2,2 0 0,1 3,19V5A2,2 0 0,1 5,3M5,5V19H19V5H5M11,7H13A2,2 0 0,1 15,9V15A2,2 0 0,1 13,17H11A2,2 0 0,1 9,15V9A2,2 0 0,1 11,7M11,9V15H13V9H11Z" />
    </g>
    <g id="mdi-alpha-o-circle" transform="translate(576 0) scale(1.5)" fill="#555">
      <path d="M11,7A2,2 0 0,0 9,9V15A2,2 0 0,0 11,17H13A2,2 0 0,0 15,15V9A2,2 0 0,0 13,7H11M11,9H13V15H11V9M12,2A10,10 0 0,1 22,12A10,10 0 0,1 12,22A10,10 0 0,1 2,12A10,10 0 0,1 12,2Z" />
    </g>
    <g id="mdi-alpha-o-circle" transform="translate(612 0) scale(1.5)" fill="#fff">
      <path d="M11,7A2,2 0 0,0 9,9V15A2,2 0 0,0 11,17H13A2,2 0 0,0 15,15V9A2,2 0 0,0 13,7H11M11,9H13V15H11V9M12,2A10,10 0 0,1 22,12A10,10 0 0,1 12,22A10,10 0 0,1 2,12A10,10 0 0,1 12,2Z" />
    </g>
    <g id="mdi-alpha-o-circle-outline" transform="translate(648 0) scale(1.5)" fill="#555">
      <path d="M11,7H13A2,2 0 0,1 15,9V15A2,2 0 0,1 13,17H11A2,2 0 0,1 9,15V9A2,2 0 0,1 11,7M11,9V15H13V9H11M12,2A10,10 0 0,1 22,12A10,10 0 0,1 12,22A10,10 0 0,1 2,12A10,10 0 0,1 12,2M12,4A8,8 0 0,0 4,12A8,8 0 0,0 12,20A8,8 0 0,0 20,12A8,8 0 0,0 12,4Z" />
    </g>
    <g id="mdi-alpha-o-circle-outline" transform="translate(684 0) scale(1.5)" fill="#fff">
      <path d="M11,7H13A2,2 0 0,1 15,9V15A2,2 0 0,1 13,17H11A2,2 0 0,1 9,15V9A2,2 0 0,1 11,7M11,9V15H13V9H11M12,2A10,10 0 0,1 22,12A10,10 0 0,1 12,22A10,10 0 0,1 2,12A10,10 0 0,1 12,2M12,4A8,8 0 0,0 4,12A8,8 0 0,0 12,20A8,8 0 0,0 20,12A8,8 0 0,0 12,4Z" />
    </g>
    <g id="mdi-alpha-p" transform="translate(0 36) scale(1.5)" fill="#555">
      <path d="M9,7V17H11V13H13A2,2 0 0,0 15,11V9A2,2 0 0,0 13,7H9M11,9H13V11H11V9Z" />
    </g>
    <g id="mdi-alpha-p" transform="translate(36 36) scale(1.5)" fill="#fff">
      <path d="M9,7V17H11V13H13A2,2 0 0,0 15,11V9A2,2 0 0,0 13,7H9M11,9H13V11H11V9Z" />
    </g>
    <g id="mdi-alpha-p-box" transform="translate(72 36) scale(1.5)" fill="#555">
      <path d="M9,7V17H11V13H13A2,2 0 0,0 15,11V9A2,2 0 0,0 13,7H9M11,9H13V11H11V9M5,3H19A2,2 0 0,1 21,5V19A2,2 0 0,1 19,21H5A2,2 0 0,1 3,19V5A2,2 0 0,1 5,3Z" />
    </g>
    <g id="mdi-alpha-p-box" transform="translate(108 36) scale(1.5)" fill="#fff">
      <path d="M9,7V17H11V13H13A2,2 0 0,0 15,11V9A2,2 0 0,0 13,7H9M11,9H13V11H11V9M5,3H19A2,2 0 0,1 21,5V19A2,2 0 0,1 19,21H5A2,2 0 0,1 3,19V5A2,2 0 0,1 5,3Z" />
    </g>
    <g id="mdi-alpha-p-box-outline" transform="translate(144 36) scale(1.5)" fill="#555">
      <path d="M9,7H13A2,2 0 0,1 15,9V11A2,2 0 0,1 13,13H11V17H9V7M11,9V11H13V9H11M5,3H19A2,2 0 0,1 21,5V19A2,2 0 0,1 19,21H5A2,2 0 0,1 3,19V5A2,2 0 0,1 5,3M5,5V19H19V5H5Z" />
    </g>
    <g id="mdi-alpha-p-box-outline" transform="translate(180 36) scale(1.5)" fill="#fff">
      <path d="M9,7H13A2,2 0 0,1 15,9V11A2,2 0 0,1 13,13H11V17H9V7M11,9V11H13V9H11M5,3H19A2,2 0 0,1 21,5V19A2,2 0 0,1 19,21H5A2,2 0 0,1 3,19V5A2,2 0 0,1 5,3M5,5V19H19V5H5Z" />
    </g>
    <g id="mdi-alpha-p-circle" transform="translate(216 36) scale(1.5)" fill="#555">
      <path d="M9,7V17H11V13H13A2,2 0 0,0 15,11V9A2,2 0 0,0 13,7H9M11,9H13V11H11V9M12,2A10,10 0 0,1 22,12A10,10 0 0,1 12,22A10,10 0 0,1 2,12A10,10 0 0,1 12,2Z" />
    </g>
    <g id="mdi-alpha-p-circle" transform="translate(252 36) scale(1.5)" fill="#fff">
      <path d="M9,7V17H11V13H13A2,2 0 0,0 15,11V9A2,2 0 0,0 13,7H9M11,9H13V11H11V9M12,2A10,10 0 0,1 22,12A10,10 0 0,1 12,22A10,10 0 0,1 2,12A10,10 0 0,1 12,2Z" />
    </g>
    <g id="mdi-alpha-p-circle-outline" transform="translate(288 36) scale(1.5)" fill="#555">
      <path d="M9,7H13A2,2 0 0,1 15,9V11A2,2 0 0,1 13,13H11V17H9V7M11,9V11H13V9H11M12,2A10,10 0 0,1 22,12A10,10 0 0,1 12,22A10,10 0 0,1 2,12A10,10 0 0,1 12,2M12,4A8,8 0 0,0 4,12A8,8 0 0,0 12,20A8,8 0 0,0 20,12A8,8 0 0,0 12,4Z" />
    </g>
    <g id="mdi-alpha-p-circle-outline" transform="translate(324 36) scale(1.5)" fill="#fff">
      <path d="M9,7H13A2,2 0 0,1 15,9V11A2,2 0 0,1 13,13H11V17H9V7M11,9V11H13V9H11M12,2A10,10 0 0,1 22,12A10,10 0 0,1 12,22A10,10 0 0,1 2,12A10,10 0 0,1 12,2M12,4A8,8 0 0,0 4,12A8,8 0 0,0 12,20A8,8 0 0,0 20,12A8,8 0 0,0 12,4Z" />
    </g>
    <g id="mdi-alpha-q" transform="translate(360 36) scale(1.5)" fill="#555">
      <path d="M11,7A2,2 0 0,0 9,9V15A2,2 0 0,0 11,17V19H13V17A2,2 0 0,0 15,15V9A2,2 0 0,0 13,7H11M11,9H13V15H11V9Z" />
    </g>
    <g id="mdi-alpha-q" transform="translate(396 36) scale(1.5)" fill="#fff">
      <path d="M11,7A2,2 0 0,0 9,9V15A2,2 0 0,0 11,17V19H13V17A2,2 0 0,0 15,15V9A2,2 0 0,0 13,7H11M11,9H13V15H11V9Z" />
    </g>
    <g id="mdi-alpha-q-box" transform="translate(432 36) scale(1.5)" fill="#555">
      <path d="M11,7A2,2 0 0,0 9,9V15A2,2 0 0,0 11,17V19H13V17A2,2 0 0,0 15,15V9A2,2 0 0,0 13,7H11M11,9H13V15H11V9M5,4H19A2,2 0 0,1 21,6V20A2,2 0 0,1 19,22H5A2,2 0 0,1 3,20V6A2,2 0 0,1 5,4Z" />
    </g>
    <g id="mdi-alpha-q-box" transform="translate(468 36) scale(1.5)" fill="#fff">
      <path d="M11,7A2,2 0 0,0 9,9V15A2,2 0 0,0 11,17V19H13V17A2,2 0 0,0 15,15V9A2,2 0 0,0 13,7H11M11,9H13V15H11V9M5,4H19A2,2 0 0,1 21,6V20A2,2 0 0,1 19,22H5A2,2 0 0,1 3,20V6A2,2 0 0,1 5,4Z" />
    </g>
    <g id="mdi-alpha-q-box-outline" transform="translate(504 36) scale(1.5)" fill="#555">
      <path d="M5,4H19A2,2 0 0,1 21,6V20A2,2 0 0,1 19,22H5A2,2 0 0,1 3,20V6A2,2 0 0,1 5,4M5,6V20H19V6H5M11,7H13A2,2 0 0,1 15,9V15A2,2 0 0,1 13,17V19H11V17A2,2 0 0,1 9,15V9A2,2 0 0,1 11,7M11,9V15H13V9H11Z" />
    </g>
    <g id="mdi-alpha-q-box-outline" transform="translate(540 36) scale(1.5)" fill="#fff">
      <path d="M5,4H19A2,2 0 0,1 21,6V20A2,2 0 0,1 19,22H5A2,2 0 0,1 3,20V6A2,2 0 0,1 5,4M5,6V20H19V6H5M11,7H13A2,2 0 0,1 15,9V15A2,2 0 0,1 13,17V19H11V17A2,2 0 0,1 9,15V9A2,2 0 0,1 11,7M11,9V15H13V9H11Z" />
    </g>
    <g id="mdi-alpha-q-circle" transform="translate(576 36) scale(1.5)" fill="#555">
      <path d="M12,2A10,10 0 0,1 22,12A10,10 0 0,1 12,22A10,10 0 0,1 2,12A10,10 0 0,1 12,2M11,7A2,2 0 0,0 9,9V15A2,2 0 0,0 11,17V19H13V17A2,2 0 0,0 15,15V9A2,2 0 0,0 13,7H11M11,9H13V15H11V9Z" />
    </g>
    <g id="mdi-alpha-q-circle" transform="translate(612 36) scale(1.5)" fill="#fff">
      <path d="M12,2A10,10 0 0,1 22,12A10,10 0 0,1 12,22A10,10 0 0,1 2,12A10,10 0 0,1 12,2M11,7A2,2 0 0,0 9,9V15A2,2 0 0,0 11,17V19H13V17A2,2 0 0,0 15,15V9A2,2 0 0,0 13,7H11M11,9H13V15H11V9Z" />
    </g>
    <g id="mdi-alpha-q-circle-outline" transform="translate(648 36) scale(1.5)" fill="#555">
      <path d="M12,2A10,10 0 0,1 22,12A10,10 0 0,1 12,22A10,10 0 0,1 2,12A10,10 0 0,1 12,2M12,4A8,8 0 0,0 4,12A8,8 0 0,0 12,20A8,8 0 0,0 20,12A8,8 0 0,0 12,4M11,7H13A2,2 0 0,1 15,9V15A2,2 0 0,1 13,17V19H11V17A2,2 0 0,1 9,15V9A2,2 0 0,1 11,7M11,9V15H13V9H11Z" />
    </g>
    <g id="mdi-alpha-q-circle-outline" transform="translate(684 36) scale(1.5)" fill="#fff">
      <path d="M12,2A10,10 0 0,1 22,12A10,10 0 0,1 12,22A10,10 0 0,1 2,12A10,10 0 0,1 12,2M12,4A8,8 0 0,0 4,12A8,8 0 0,0 12,20A8,8 0 0,0 20,12A8,8 0 0,0 12,4M11,7H13A2,2 0 0,1 15,9V15A2,2 0 0,1 13,17V19H11V17A2,2 0 0,1 9,15V9A2,2 0 0,1 11,7M11,9V15H13V9H11Z" />
    </g>
    <g id="mdi-alpha-r" transform="translate(0 72) scale(1.5)" fill="#555">
      <path d="M9,7V17H11V13H11.8L13,17H15L13.76,12.85C14.5,12.55 15,11.84 15,11V9A2,2 0 0,0 13,7H9M11,9H13V11H11V9Z" />
    </g>
    <g id="mdi-alpha-r" transform="translate(36 72) scale(1.5)" fill="#fff">
      <path d="M9,7V17H11V13H11.8L13,17H15L13.76,12.85C14.5,12.55 15,11.84 15,11V9A2,2 0 0,0 13,7H9M11,9H13V11H11V9Z" />
    </g>
    <g id="mdi-alpha-r-box" transform="translate(72 72) scale(1.5)" fill="#555">
      <path d="M9,7V17H11V13H11.8L13,17H15L13.76,12.85C14.5,12.55 15,11.84 15,11V9A2,2 0 0,0 13,7H9M11,9H13V11H11V9M5,3H19A2,2 0 0,1 21,5V19A2,2 0 0,1 19,21H5A2,2 0 0,1 3,19V5A2,2 0 0,1 5,3Z" />
    </g>
    <g id="mdi-alpha-r-box" transform="translate(108 72) scale(1.5)" fill="#fff">
      <path d="M9,7V17H11V13H11.8L13,17H15L13.76,12.85C14.5,12.55 15,11.84 15,11V9A2,2 0 0,0 13,7H9M11,9H13V11H11V9M5,3H19A2,2 0 0,1 21,5V19A2,2 0 0,1 19,21H5A2,2 0 0,1 3,19V5A2,2 0 0,1 5,3Z" />
    </g>
    <g id="mdi-alpha-r-box-outline" transform="translate(144 72) scale(1.5)" fill="#555">
      <path d="M9,7H13A2,2 0 0,1 15,9V11C15,11.84 14.5,12.55 13.76,12.85L15,17H13L11.8,13H11V17H9V7M11,9V11H13V9H11M5,3H19A2,2 0 0,1 21,5V19A2,2 0 0,1 19,21H5A2,2 0 0,1 3,19V5A2,2 0 0,1 5,3M5,5V19H19V5H5Z" />
    </g>
    <g id="mdi-alpha-r-box-outline" transform="translate(180 72) scale(1.5)" fill="#fff">
      <path d="M9,7H13A2,2 0 0,1 15,9V11C15,11.84 14.5,12.55 13.76,12.85L15,17H13L11.8,13H11V17H9V7M11,9V11H13V9H11M5,3H19A2,2 0 0,1 21,5V19A2,2 0 0,1 19,21H5A2,2 0 0,1 3,19V5A2,2 0 0,1 5,3M5,5V19H19V5H5Z" />
    </g>
    <g id="mdi-alpha-r-circle" transform="translate(216 72) scale(1.5)" fill="#555">
      <path d="M9,7V17H11V13H11.8L13,17H15L13.76,12.85C14.5,12.55 15,11.84 15,11V9A2,2 0 0,0 13,7H9M11,9H13V11H11V9M12,2A10,10 0 0,1 22,12A10,10 0 0,1 12,22A10,10 0 0,1 2,12A10,10 0 0,1 12,2Z" />
    </g>
    <g id="mdi-alpha-r-circle" transform="translate(252 72) scale(1.5)" fill="#fff">
      <path d="M9,7V17H11V13H11.8L13,17H15L13.76,12.85C14.5,12.55 15,11.84 15,11V9A2,2 0 0,0 13,7H9M11,9H13V11H11V9M12,2A10,10 0 0,1 22,12A10,10 0 0,1 12,22A10,10 0 0,1 2,12A10,10 0 0,1 12,2Z" />
    </g>
    <g id="mdi-alpha-r-circle-outline" transform="translate(288 72) scale(1.5)" fill="#555">
      <path d="M9,7H13A2,2 0 0,1 15,9V11C15,11.84 14.5,12.55 13.76,12.85L15,17H13L11.8,13H11V17H9V7M11,9V11H13V9H11M12,2A10,10 0 0,1 22,12A10,10 0 0,1 12,22A10,10 0 0,1 2,12A10,10 0 0,1 12,2M12,4A8,8 0 0,0 4,12C4,16.41 7.58,20 12,20A8,8 0 0,0 20,12A8,8 0 0,0 12,4Z" />
    </g>
    <g id="mdi-alpha-r-circle-outline" transform="translate(324 72) scale(1.5)" fill="#fff">
      <path d="M9,7H13A2,2 0 0,1 15,9V11C15,11.84 14.5,12.55 13.76,12.85L15,17H13L11.8,13H11V17H9V7M11,9V11H13V9H11M12,2A10,10 0 0,1 22,12A10,10 0 0,1 12,22A10,10 0 0,1 2,12A10,10 0 0,1 12,2M12,4A8,8 0 0,0 4,12C4,16.41 7.58,20 12,20A8,8 0 0,0 20,12A8,8 0 0,0 12,4Z" />
    </g>
    <g id="mdi-alpha-s" transform="translate(360 72) scale(1.5)" fill="#555">
      <path d="M11,7A2,2 0 0,0 9,9V11A2,2 0 0,0 11,13H13V15H9V17H13A2,2 0 0,0 15,15V13A2,2 0 0,0 13,11H11V9H15V7H11Z" />
    </g>
    <g id="mdi-alpha-s" transform="translate(396 72) scale(1.5)" fill="#fff">
      <path d="M11,7A2,2 0 0,0 9,9V11A2,2 0 0,0 11,13H13V15H9V17H13A2,2 0 0,0 15,15V13A2,2 0 0,0 13,11H11V9H15V7H11Z" />
    </g>
    <g id="mdi-alpha-s-box" transform="translate(432 72) scale(1.5)" fill="#555">
      <path d="M11,7A2,2 0 0,0 9,9V11A2,2 0 0,0 11,13H13V15H9V17H13A2,2 0 0,0 15,15V13A2,2 0 0,0 13,11H11V9H15V7H11M5,3H19A2,2 0 0,1 21,5V19A2,2 0 0,1 19,21H5A2,2 0 0,1 3,19V5A2,2 0 0,1 5,3Z" />
    </g>
    <g id="mdi-alpha-s-box" transform="translate(468 72) scale(1.5)" fill="#fff">
      <path d="M11,7A2,2 0 0,0 9,9V11A2,2 0 0,0 11,13H13V15H9V17H13A2,2 0 0,0 15,15V13A2,2 0 0,0 13,11H11V9H15V7H11M5,3H19A2,2 0 0,1 21,5V19A2,2 0 0,1 19,21H5A2,2 0 0,1 3,19V5A2,2 0 0,1 5,3Z" />
    </g>
    <g id="mdi-alpha-s-box-outline" transform="translate(504 72) scale(1.5)" fill="#555">
      <path d="M11,7H15V9H11V11H13A2,2 0 0,1 15,13V15A2,2 0 0,1 13,17H9V15H13V13H11A2,2 0 0,1 9,11V9A2,2 0 0,1 11,7M5,3H19A2,2 0 0,1 21,5V19A2,2 0 0,1 19,21H5A2,2 0 0,1 3,19V5A2,2 0 0,1 5,3M5,5V19H19V5H5Z" />
    </g>
    <g id="mdi-alpha-s-box-outline" transform="translate(540 72) scale(1.5)" fill="#fff">
      <path d="M11,7H15V9H11V11H13A2,2 0 0,1 15,13V15A2,2 0 0,1 13,17H9V15H13V13H11A2,2 0 0,1 9,11V9A2,2 0 0,1 11,7M5,3H19A2,2 0 0,1 21,5V19A2,2 0 0,1 19,21H5A2,2 0 0,1 3,19V5A2,2 0 0,1 5,3M5,5V19H19V5H5Z" />
    </g>
    <g id="mdi-alpha-s-circle" transform="translate(576 72) scale(1.5)" fill="#555">
      <path d="M11,7A2,2 0 0,0 9,9V11A2,2 0 0,0 11,13H13V15H9V17H13A2,2 0 0,0 15,15V13A2,2 0 0,0 13,11H11V9H15V7H11M12,2A10,10 0 0,1 22,12A10,10 0 0,1 12,22A10,10 0 0,1 2,12A10,10 0 0,1 12,2Z" />
    </g>
    <g id="mdi-alpha-s-circle" transform="translate(612 72) scale(1.5)" fill="#fff">
      <path d="M11,7A2,2 0 0,0 9,9V11A2,2 0 0,0 11,13H13V15H9V17H13A2,2 0 0,0 15,15V13A2,2 0 0,0 13,11H11V9H15V7H11M12,2A10,10 0 0,1 22,12A10,10 0 0,1 12,22A10,10 0 0,1 2,12A10,10 0 0,1 12,2Z" />
    </g>
    <g id="mdi-alpha-s-circle-outline" transform="translate(648 72) scale(1.5)" fill="#555">
      <path d="M11,7H15V9H11V11H13A2,2 0 0,1 15,13V15A2,2 0 0,1 13,17H9V15H13V13H11A2,2 0 0,1 9,11V9A2,2 0 0,1 11,7M12,2A10,10 0 0,1 22,12A10,10 0 0,1 12,22A10,10 0 0,1 2,12A10,10 0 0,1 12,2M12,4A8,8 0 0,0 4,12A8,8 0 0,0 12,20A8,8 0 0,0 20,12A8,8 0 0,0 12,4Z" />
    </g>
    <g id="mdi-alpha-s-circle-outline" transform="translate(684 72) scale(1.5)" fill="#fff">
      <path d="M11,7H15V9H11V11H13A2,2 0 0,1 15,13V15A2,2 0 0,1 13,17H9V15H13V13H11A2,2 0 0,1 9,11V9A2,2 0 0,1 11,7M12,2A10,10 0 0,1 22,12A10,10 0 0,1 12,22A10,10 0 0,1 2,12A10,10 0 0,1 12,2M12,4A8,8 0 0,0 4,12A8,8 0 0,0 12,20A8,8 0 0,0 20,12A8,8 0 0,0 12,4Z" />
    </g>
    <g id="mdi-alpha-t" transform="translate(0 108) scale(1.5)" fill="#555">
      <path d="M9,7V9H11V17H13V9H15V7H9Z" />
    </g>
    <g id="mdi-alpha-t" transform="translate(36 108) scale(1.5)" fill="#fff">
      <path d="M9,7V9H11V17H13V9H15V7H9Z" />
    </g>
    <g id="mdi-alpha-t-box" transform="translate(72 108) scale(1.5)" fill="#555">
      <path d="M9,7V9H11V17H13V9H15V7H9M5,3H19A2,2 0 0,1 21,5V19A2,2 0 0,1 19,21H5A2,2 0 0,1 3,19V5A2,2 0 0,1 5,3Z" />
    </g>
    <g id="mdi-alpha-t-box" transform="translate(108 108) scale(1.5)" fill="#fff">
      <path d="M9,7V9H11V17H13V9H15V7H9M5,3H19A2,2 0 0,1 21,5V19A2,2 0 0,1 19,21H5A2,2 0 0,1 3,19V5A2,2 0 0,1 5,3Z" />
    </g>
    <g id="mdi-alpha-t-box-outline" transform="translate(144 108) scale(1.5)" fill="#555">
      <path d="M9,7H15V9H13V17H11V9H9V7M5,3H19A2,2 0 0,1 21,5V19A2,2 0 0,1 19,21H5A2,2 0 0,1 3,19V5A2,2 0 0,1 5,3M5,5V19H19V5H5Z" />
    </g>
    <g id="mdi-alpha-t-box-outline" transform="translate(180 108) scale(1.5)" fill="#fff">
      <path d="M9,7H15V9H13V17H11V9H9V7M5,3H19A2,2 0 0,1 21,5V19A2,2 0 0,1 19,21H5A2,2 0 0,1 3,19V5A2,2 0 0,1 5,3M5,5V19H19V5H5Z" />
    </g>
    <g id="mdi-alpha-t-circle" transform="translate(216 108) scale(1.5)" fill="#555">
      <path d="M9,7V9H11V17H13V9H15V7H9M12,2A10,10 0 0,1 22,12A10,10 0 0,1 12,22A10,10 0 0,1 2,12A10,10 0 0,1 12,2Z" />
    </g>
    <g id="mdi-alpha-t-circle" transform="translate(252 108) scale(1.5)" fill="#fff">
      <path d="M9,7V9H11V17H13V9H15V7H9M12,2A10,10 0 0,1 22,12A10,10 0 0,1 12,22A10,10 0 0,1 2,12A10,10 0 0,1 12,2Z" />
    </g>
    <g id="mdi-alpha-t-circle-outline" transform="translate(288 108) scale(1.5)" fill="#555">
      <path d="M9,7H15V9H13V17H11V9H9V7M12,2A10,10 0 0,1 22,12A10,10 0 0,1 12,22A10,10 0 0,1 2,12A10,10 0 0,1 12,2M12,4A8,8 0 0,0 4,12A8,8 0 0,0 12,20A8,8 0 0,0 20,12A8,8 0 0,0 12,4Z" />
    </g>
    <g id="mdi-alpha-t-circle-outline" transform="translate(324 108) scale(1.5)" fill="#fff">
      <path d="M9,7H15V9H13V17H11V9H9V7M12,2A10,10 0 0,1 22,12A10,10 0 0,1 12,22A10,10 0 0,1 2,12A10,10 0 0,1 12,2M12,4A8,8 0 0,0 4,12A8,8 0 0,0 12,20A8,8 0 0,0 20,12A8,8 0 0,0 12,4Z" />
    </g>
    <g id="mdi-alpha-u" transform="translate(360 108) scale(1.5)" fill="#555">
      <path d="M9,7V15A2,2 0 0,0 11,17H13A2,2 0 0,0 15,15V7H13V15H11V7H9Z" />
    </g>
    <g id="mdi-alpha-u" transform="translate(396 108) scale(1.5)" fill="#fff">
      <path d="M9,7V15A2,2 0 0,0 11,17H13A2,2 0 0,0 15,15V7H13V15H11V7H9Z" />
    </g>
    <g id="mdi-alpha-u-box" transform="translate(432 108) scale(1.5)" fill="#555">
      <path d="M9,7V15A2,2 0 0,0 11,17H13A2,2 0 0,0 15,15V7H13V15H11V7H9M5,3H19A2,2 0 0,1 21,5V19A2,2 0 0,1 19,21H5A2,2 0 0,1 3,19V5A2,2 0 0,1 5,3Z" />
    </g>
    <g id="mdi-alpha-u-box" transform="translate(468 108) scale(1.5)" fill="#fff">
      <path d="M9,7V15A2,2 0 0,0 11,17H13A2,2 0 0,0 15,15V7H13V15H11V7H9M5,3H19A2,2 0 0,1 21,5V19A2,2 0 0,1 19,21H5A2,2 0 0,1 3,19V5A2,2 0 0,1 5,3Z" />
    </g>
    <g id="mdi-alpha-u-box-outline" transform="translate(504 108) scale(1.5)" fill="#555">
      <path d="M9,7H11V15H13V7H15V15A2,2 0 0,1 13,17H11A2,2 0 0,1 9,15V7M5,3H19A2,2 0 0,1 21,5V19A2,2 0 0,1 19,21H5A2,2 0 0,1 3,19V5A2,2 0 0,1 5,3M5,5V19H19V5H5Z" />
    </g>
    <g id="mdi-alpha-u-box-outline" transform="translate(540 108) scale(1.5)" fill="#fff">
      <path d="M9,7H11V15H13V7H15V15A2,2 0 0,1 13,17H11A2,2 0 0,1 9,15V7M5,3H19A2,2 0 0,1 21,5V19A2,2 0 0,1 19,21H5A2,2 0 0,1 3,19V5A2,2 0 0,1 5,3M5,5V19H19V5H5Z" />
    </g>
    <g id="mdi-alpha-u-circle" transform="translate(576 108) scale(1.5)" fill="#555">
      <path d="M9,7V15A2,2 0 0,0 11,17H13A2,2 0 0,0 15,15V7H13V15H11V7H9M12,2A10,10 0 0,1 22,12A10,10 0 0,1 12,22A10,10 0 0,1 2,12A10,10 0 0,1 12,2Z" />
    </g>
    <g id="mdi-alpha-u-circle" transform="translate(612 108) scale(1.5)" fill="#fff">
      <path d="M9,7V15A2,2 0 0,0 11,17H13A2,2 0 0,0 15,15V7H13V15H11V7H9M12,2A10,10 0 0,1 22,12A10,10 0 0,1 12,22A10,10 0 0,1 2,12A10,10 0 0,1 12,2Z" />
    </g>
    <g id="mdi-alpha-u-circle-outline" transform="translate(648 108) scale(1.5)" fill="#555">
      <path d="M9,7H11V15H13V7H15V15A2,2 0 0,1 13,17H11A2,2 0 0,1 9,15V7M12,2A10,10 0 0,1 22,12A10,10 0 0,1 12,22A10,10 0 0,1 2,12A10,10 0 0,1 12,2M12,4A8,8 0 0,0 4,12A8,8 0 0,0 12,20A8,8 0 0,0 20,12A8,8 0 0,0 12,4Z" />
    </g>
    <g id="mdi-alpha-u-circle-outline" transform="translate(684 108) scale(1.5)" fill="#fff">
      <path d="M9,7H11V15H13V7H15V15A2,2 0 0,1 13,17H11A2,2 0 0,1 9,15V7M12,2A10,10 0 0,1 22,12A10,10 0 0,1 12,22A10,10 0 0,1 2,12A10,10 0 0,1 12,2M12,4A8,8 0 0,0 4,12A8,8 0 0,0 12,20A8,8 0 0,0 20,12A8,8 0 0,0 12,4Z" />
    </g>
    <g id="mdi-alpha-v" transform="translate(0 144) scale(1.5)" fill="#555">
      <path d="M9,7L11,17H13L15,7H13L12,12L11,7H9Z" />
    </g>
    <g id="mdi-alpha-v" transform="translate(36 144) scale(1.5)" fill="#fff">
      <path d="M9,7L11,17H13L15,7H13L12,12L11,7H9Z" />
    </g>
    <g id="mdi-alpha-v-box" transform="translate(72 144) scale(1.5)" fill="#555">
      <path d="M9,7L11,17H13L15,7H13L12,12L11,7H9M5,3H19A2,2 0 0,1 21,5V19A2,2 0 0,1 19,21H5A2,2 0 0,1 3,19V5A2,2 0 0,1 5,3Z" />
    </g>
    <g id="mdi-alpha-v-box" transform="translate(108 144) scale(1.5)" fill="#fff">
      <path d="M9,7L11,17H13L15,7H13L12,12L11,7H9M5,3H19A2,2 0 0,1 21,5V19A2,2 0 0,1 19,21H5A2,2 0 0,1 3,19V5A2,2 0 0,1 5,3Z" />
    </g>
    <g id="mdi-alpha-v-box-outline" transform="translate(144 144) scale(1.5)" fill="#555">
      <path d="M9,7H11L12,12L13,7H15L13,17H11L9,7M5,3H19A2,2 0 0,1 21,5V19A2,2 0 0,1 19,21H5A2,2 0 0,1 3,19V5A2,2 0 0,1 5,3M5,5V19H19V5H5Z" />
    </g>
    <g id="mdi-alpha-v-box-outline" transform="translate(180 144) scale(1.5)" fill="#fff">
      <path d="M9,7H11L12,12L13,7H15L13,17H11L9,7M5,3H19A2,2 0 0,1 21,5V19A2,2 0 0,1 19,21H5A2,2 0 0,1 3,19V5A2,2 0 0,1 5,3M5,5V19H19V5H5Z" />
    </g>
    <g id="mdi-alpha-v-circle" transform="translate(216 144) scale(1.5)" fill="#555">
      <path d="M9,7L11,17H13L15,7H13L12,12L11,7H9M12,2A10,10 0 0,1 22,12A10,10 0 0,1 12,22A10,10 0 0,1 2,12A10,10 0 0,1 12,2Z" />
    </g>
    <g id="mdi-alpha-v-circle" transform="translate(252 144) scale(1.5)" fill="#fff">
      <path d="M9,7L11,17H13L15,7H13L12,12L11,7H9M12,2A10,10 0 0,1 22,12A10,10 0 0,1 12,22A10,10 0 0,1 2,12A10,10 0 0,1 12,2Z" />
    </g>
    <g id="mdi-alpha-v-circle-outline" transform="translate(288 144) scale(1.5)" fill="#555">
      <path d="M9,7H11L12,12L13,7H15L13,17H11L9,7M12,2A10,10 0 0,1 22,12A10,10 0 0,1 12,22A10,10 0 0,1 2,12A10,10 0 0,1 12,2M12,4A8,8 0 0,0 4,12A8,8 0 0,0 12,20A8,8 0 0,0 20,12A8,8 0 0,0 12,4Z" />
    </g>
    <g id="mdi-alpha-v-circle-outline" transform="translate(324 144) scale(1.5)" fill="#fff">
      <path d="M9,7H11L12,12L13,7H15L13,17H11L9,7M12,2A10,10 0 0,1 22,12A10,10 0 0,1 12,22A10,10 0 0,1 2,12A10,10 0 0,1 12,2M12,4A8,8 0 0,0 4,12A8,8 0 0,0 12,20A8,8 0 0,0 20,12A8,8 0 0,0 12,4Z" />
    </g>
    <g id="mdi-alpha-w" transform="translate(360 144) scale(1.5)" fill="#555">
      <path d="M9,17A2,2 0 0,1 7,15V7H9V15H11V8H13V15H15V7H17V15A2,2 0 0,1 15,17H9Z" />
    </g>
    <g id="mdi-alpha-w" transform="translate(396 144) scale(1.5)" fill="#fff">
      <path d="M9,17A2,2 0 0,1 7,15V7H9V15H11V8H13V15H15V7H17V15A2,2 0 0,1 15,17H9Z" />
    </g>
    <g id="mdi-alpha-w-box" transform="translate(432 144) scale(1.5)" fill="#555">
      <path d="M9,17H15A2,2 0 0,0 17,15V7H15V15H13V8H11V15H9V7H7V15A2,2 0 0,0 9,17M5,3H19A2,2 0 0,1 21,5V19A2,2 0 0,1 19,21H5A2,2 0 0,1 3,19V5A2,2 0 0,1 5,3Z" />
    </g>
    <g id="mdi-alpha-w-box" transform="translate(468 144) scale(1.5)" fill="#fff">
      <path d="M9,17H15A2,2 0 0,0 17,15V7H15V15H13V8H11V15H9V7H7V15A2,2 0 0,0 9,17M5,3H19A2,2 0 0,1 21,5V19A2,2 0 0,1 19,21H5A2,2 0 0,1 3,19V5A2,2 0 0,1 5,3Z" />
    </g>
    <g id="mdi-alpha-w-box-outline" transform="translate(504 144) scale(1.5)" fill="#555">
      <path d="M9,17A2,2 0 0,1 7,15V7H9V15H11V8H13V15H15V7H17V15A2,2 0 0,1 15,17H9M5,3H19A2,2 0 0,1 21,5V19A2,2 0 0,1 19,21H5A2,2 0 0,1 3,19V5A2,2 0 0,1 5,3M5,5V19H19V5H5Z" />
    </g>
    <g id="mdi-alpha-w-box-outline" transform="translate(540 144) scale(1.5)" fill="#fff">
      <path d="M9,17A2,2 0 0,1 7,15V7H9V15H11V8H13V15H15V7H17V15A2,2 0 0,1 15,17H9M5,3H19A2,2 0 0,1 21,5V19A2,2 0 0,1 19,21H5A2,2 0 0,1 3,19V5A2,2 0 0,1 5,3M5,5V19H19V5H5Z" />
    </g>
    <g id="mdi-alpha-w-circle" transform="translate(576 144) scale(1.5)" fill="#555">
      <path d="M9,17H15A2,2 0 0,0 17,15V7H15V15H13V8H11V15H9V7H7V15A2,2 0 0,0 9,17M12,2A10,10 0 0,1 22,12A10,10 0 0,1 12,22A10,10 0 0,1 2,12A10,10 0 0,1 12,2Z" />
    </g>
    <g id="mdi-alpha-w-circle" transform="translate(612 144) scale(1.5)" fill="#fff">
      <path d="M9,17H15A2,2 0 0,0 17,15V7H15V15H13V8H11V15H9V7H7V15A2,2 0 0,0 9,17M12,2A10,10 0 0,1 22,12A10,10 0 0,1 12,22A10,10 0 0,1 2,12A10,10 0 0,1 12,2Z" />
    </g>
    <g id="mdi-alpha-w-circle-outline" transform="translate(648 144) scale(1.5)" fill="#555">
      <path d="M9,17A2,2 0 0,1 7,15V7H9V15H11V8H13V15H15V7H17V15A2,2 0 0,1 15,17H9M12,2A10,10 0 0,1 22,12A10,10 0 0,1 12,22A10,10 0 0,1 2,12A10,10 0 0,1 12,2M12,4A8,8 0 0,0 4,12A8,8 0 0,0 12,20A8,8 0 0,0 20,12A8,8 0 0,0 12,4Z" />
    </g>
    <g id="mdi-alpha-w-circle-outline" transform="translate(684 144) scale(1.5)" fill="#fff">
      <path d="M9,17A2,2 0 0,1 7,15V7H9V15H11V8H13V15H15V7H17V15A2,2 0 0,1 15,17H9M12,2A10,10 0 0,1 22,12A10,10 0 0,1 12,22A10,10 0 0,1 2,12A10,10 0 0,1 12,2M12,4A8,8 0 0,0 4,12A8,8 0 0,0 12,20A8,8 0 0,0 20,12A8,8 0 0,0 12,4Z" />
    </g>
    <g id="mdi-alpha-x" transform="translate(0 180) scale(1.5)" fill="#555">
      <path d="M9,7L11,12L9,17H11L12,14.5L13,17H15L13,12L15,7H13L12,9.5L11,7H9Z" />
    </g>
    <g id="mdi-alpha-x" transform="translate(36 180) scale(1.5)" fill="#fff">
      <path d="M9,7L11,12L9,17H11L12,14.5L13,17H15L13,12L15,7H13L12,9.5L11,7H9Z" />
    </g>
    <g id="mdi-alpha-x-box" transform="translate(72 180) scale(1.5)" fill="#555">
      <path d="M9,7L11,12L9,17H11L12,14.5L13,17H15L13,12L15,7H13L12,9.5L11,7H9M5,3H19A2,2 0 0,1 21,5V19A2,2 0 0,1 19,21H5A2,2 0 0,1 3,19V5A2,2 0 0,1 5,3Z" />
    </g>
    <g id="mdi-alpha-x-box" transform="translate(108 180) scale(1.5)" fill="#fff">
      <path d="M9,7L11,12L9,17H11L12,14.5L13,17H15L13,12L15,7H13L12,9.5L11,7H9M5,3H19A2,2 0 0,1 21,5V19A2,2 0 0,1 19,21H5A2,2 0 0,1 3,19V5A2,2 0 0,1 5,3Z" />
    </g>
    <g id="mdi-alpha-x-box-outline" transform="translate(144 180) scale(1.5)" fill="#555">
      <path d="M9,7H11L12,9.5L13,7H15L13,12L15,17H13L12,14.5L11,17H9L11,12L9,7M5,3H19A2,2 0 0,1 21,5V19A2,2 0 0,1 19,21H5A2,2 0 0,1 3,19V5A2,2 0 0,1 5,3M5,5V19H19V5H5Z" />
    </g>
    <g id="mdi-alpha-x-box-outline" transform="translate(180 180) scale(1.5)" fill="#fff">
      <path d="M9,7H11L12,9.5L13,7H15L13,12L15,17H13L12,14.5L11,17H9L11,12L9,7M5,3H19A2,2 0 0,1 21,5V19A2,2 0 0,1 19,21H5A2,2 0 0,1 3,19V5A2,2 0 0,1 5,3M5,5V19H19V5H5Z" />
    </g>
    <g id="mdi-alpha-x-circle" transform="translate(216 180) scale(1.5)" fill="#555">
      <path d="M9,7L11,12L9,17H11L12,14.5L13,17H15L13,12L15,7H13L12,9.5L11,7H9M12,2A10,10 0 0,1 22,12A10,10 0 0,1 12,22A10,10 0 0,1 2,12A10,10 0 0,1 12,2Z" />
    </g>
    <g id="mdi-alpha-x-circle" transform="translate(252 180) scale(1.5)" fill="#fff">
      <path d="M9,7L11,12L9,17H11L12,14.5L13,17H15L13,12L15,7H13L12,9.5L11,7H9M12,2A10,10 0 0,1 22,12A10,10 0 0,1 12,22A10,10 0 0,1 2,12A10,10 0 0,1 12,2Z" />
    </g>
    <g id="mdi-alpha-x-circle-outline" transform="translate(288 180) scale(1.5)" fill="#555">
      <path d="M9,7H11L12,9.5L13,7H15L13,12L15,17H13L12,14.5L11,17H9L11,12L9,7M12,2A10,10 0 0,1 22,12A10,10 0 0,1 12,22A10,10 0 0,1 2,12A10,10 0 0,1 12,2M12,4A8,8 0 0,0 4,12A8,8 0 0,0 12,20A8,8 0 0,0 20,12A8,8 0 0,0 12,4Z" />
    </g>
    <g id="mdi-alpha-x-circle-outline" transform="translate(324 180) scale(1.5)" fill="#fff">
      <path d="M9,7H11L12,9.5L13,7H15L13,12L15,17H13L12,14.5L11,17H9L11,12L9,7M12,2A10,10 0 0,1 22,12A10,10 0 0,1 12,22A10,10 0 0,1 2,12A10,10 0 0,1 12,2M12,4A8,8 0 0,0 4,12A8,8 0 0,0 12,20A8,8 0 0,0 20,12A8,8 0 0,0 12,4Z" />
    </g>
    <g id="mdi-alpha-y" transform="translate(360 180) scale(1.5)" fill="#555">
      <path d="M9,7L11,13V17H13V13L15,7H13L12,10L11,7H9Z" />
    </g>
    <g id="mdi-alpha-y" transform="translate(396 180) scale(1.5)" fill="#fff">
      <path d="M9,7L11,13V17H13V13L15,7H13L12,10L11,7H9Z" />
    </g>
    <g id="mdi-alpha-y-box" transform="translate(432 180) scale(1.5)" fill="#555">
      <path d="M9,7L11,13V17H13V13L15,7H13L12,10L11,7H9M5,3H19A2,2 0 0,1 21,5V19A2,2 0 0,1 19,21H5A2,2 0 0,1 3,19V5A2,2 0 0,1 5,3Z" />
    </g>
    <g id="mdi-alpha-y-box" transform="translate(468 180) scale(1.5)" fill="#fff">
      <path d="M9,7L11,13V17H13V13L15,7H13L12,10L11,7H9M5,3H19A2,2 0 0,1 21,5V19A2,2 0 0,1 19,21H5A2,2 0 0,1 3,19V5A2,2 0 0,1 5,3Z" />
    </g>
    <g id="mdi-alpha-y-box-outline" transform="translate(504 180) scale(1.5)" fill="#555">
      <path d="M9,7H11L12,10L13,7H15L13,13V17H11V13L9,7M5,3H19A2,2 0 0,1 21,5V19A2,2 0 0,1 19,21H5A2,2 0 0,1 3,19V5A2,2 0 0,1 5,3M5,5V19H19V5H5Z" />
    </g>
    <g id="mdi-alpha-y-box-outline" transform="translate(540 180) scale(1.5)" fill="#fff">
      <path d="M9,7H11L12,10L13,7H15L13,13V17H11V13L9,7M5,3H19A2,2 0 0,1 21,5V19A2,2 0 0,1 19,21H5A2,2 0 0,1 3,19V5A2,2 0 0,1 5,3M5,5V19H19V5H5Z" />
    </g>
    <g id="mdi-alpha-y-circle" transform="translate(576 180) scale(1.5)" fill="#555">
      <path d="M9,7L11,13V17H13V13L15,7H13L12,10L11,7H9M12,2A10,10 0 0,1 22,12A10,10 0 0,1 12,22A10,10 0 0,1 2,12A10,10 0 0,1 12,2Z" />
    </g>
    <g id="mdi-alpha-y-circle" transform="translate(612 180) scale(1.5)" fill="#fff">
      <path d="M9,7L11,13V17H13V13L15,7H13L12,10L11,7H9M12,2A10,10 0 0,1 22,12A10,10 0 0,1 12,22A10,10 0 0,1 2,12A10,10 0 0,1 12,2Z" />
    </g>
    <g id="mdi-alpha-y-circle-outline" transform="translate(648 180) scale(1.5)" fill="#555">
      <path d="M9,7H11L12,10L13,7H15L13,13V17H11V13L9,7M12,2A10,10 0 0,1 22,12A10,10 0 0,1 12,22A10,10 0 0,1 2,12A10,10 0 0,1 12,2M12,4A8,8 0 0,0 4,12A8,8 0 0,0 12,20A8,8 0 0,0 20,12A8,8 0 0,0 12,4Z" />
    </g>
    <g id="mdi-alpha-y-circle-outline" transform="translate(684 180) scale(1.5)" fill="#fff">
      <path d="M9,7H11L12,10L13,7H15L13,13V17H11V13L9,7M12,2A10,10 0 0,1 22,12A10,10 0 0,1 12,22A10,10 0 0,1 2,12A10,10 0 0,1 12,2M12,4A8,8 0 0,0 4,12A8,8 0 0,0 12,20A8,8 0 0,0 20,12A8,8 0 0,0 12,4Z" />
    </g>
    <g id="mdi-alpha-z" transform="translate(0 216) scale(1.5)" fill="#555">
      <path d="M9,7V9H13L9,15V17H15V15H11L15,9V7H9Z" />
    </g>
    <g id="mdi-alpha-z" transform="translate(36 216) scale(1.5)" fill="#fff">
      <path d="M9,7V9H13L9,15V17H15V15H11L15,9V7H9Z" />
    </g>
    <g id="mdi-alpha-z-box" transform="translate(72 216) scale(1.5)" fill="#555">
      <path d="M9,7V9H13L9,15V17H15V15H11L15,9V7H9M5,3H19A2,2 0 0,1 21,5V19A2,2 0 0,1 19,21H5A2,2 0 0,1 3,19V5A2,2 0 0,1 5,3Z" />
    </g>
    <g id="mdi-alpha-z-box" transform="translate(108 216) scale(1.5)" fill="#fff">
      <path d="M9,7V9H13L9,15V17H15V15H11L15,9V7H9M5,3H19A2,2 0 0,1 21,5V19A2,2 0 0,1 19,21H5A2,2 0 0,1 3,19V5A2,2 0 0,1 5,3Z" />
    </g>
    <g id="mdi-alpha-z-box-outline" transform="translate(144 216) scale(1.5)" fill="#555">
      <path d="M9,7H15V9L11,15H15V17H9V15L13,9H9V7M5,3H19A2,2 0 0,1 21,5V19A2,2 0 0,1 19,21H5A2,2 0 0,1 3,19V5A2,2 0 0,1 5,3M5,5V19H19V5H5Z" />
    </g>
    <g id="mdi-alpha-z-box-outline" transform="translate(180 216) scale(1.5)" fill="#fff">
      <path d="M9,7H15V9L11,15H15V17H9V15L13,9H9V7M5,3H19A2,2 0 0,1 21,5V19A2,2 0 0,1 19,21H5A2,2 0 0,1 3,19V5A2,2 0 0,1 5,3M5,5V19H19V5H5Z" />
    </g>
    <g id="mdi-alpha-z-circle" transform="translate(216 216) scale(1.5)" fill="#555">
      <path d="M9,7V9H13L9,15V17H15V15H11L15,9V7H9M12,2A10,10 0 0,1 22,12A10,10 0 0,1 12,22A10,10 0 0,1 2,12A10,10 0 0,1 12,2Z" />
    </g>
    <g id="mdi-alpha-z-circle" transform="translate(252 216) scale(1.5)" fill="#fff">
      <path d="M9,7V9H13L9,15V17H15V15H11L15,9V7H9M12,2A10,10 0 0,1 22,12A10,10 0 0,1 12,22A10,10 0 0,1 2,12A10,10 0 0,1 12,2Z" />
    </g>
    <g id="mdi-alpha-z-circle-outline" transform="translate(288 216) scale(1.5)" fill="#555">
      <path d="M9,7H15V9L11,15H15V17H9V15L13,9H9V7M12,2A10,10 0 0,1 22,12A10,10 0 0,1 12,22A10,10 0 0,1 2,12A10,10 0 0,1 12,2M12,4A8,8 0 0,0 4,12A8,8 0 0,0 12,20A8,8 0 0,0 20,12A8,8 0 0,0 12,4Z" />
    </g>
    <g id="mdi-alpha-z-circle-outline" transform="translate(324 216) scale(1.5)" fill="#fff">
      <path d="M9,7H15V9L11,15H15V17H9V15L13,9H9V7M12,2A10,10 0 0,1 22,12A10,10 0 0,1 12,22A10,10 0 0,1 2,12A10,10 0 0,1 12,2M12,4A8,8 0 0,0 4,12A8,8 0 0,0 12,20A8,8 0 0,0 20,12A8,8 0 0,0 12,4Z" />
    </g>
    <g id="mdi-alphabetical" transform="translate(360 216) scale(1.5)" fill="#555">
      <path d="M6,11A2,2 0 0,1 8,13V17H4A2,2 0 0,1 2,15V13A2,2 0 0,1 4,11H6M4,13V15H6V13H4M20,13V15H22V17H20A2,2 0 0,1 18,15V13A2,2 0 0,1 20,11H22V13H20M12,7V11H14A2,2 0 0,1 16,13V15A2,2 0 0,1 14,17H12A2,2 0 0,1 10,15V7H12M12,15H14V13H12V15Z" />
    </g>
    <g id="mdi-alphabetical" transform="translate(396 216) scale(1.5)" fill="#fff">
      <path d="M6,11A2,2 0 0,1 8,13V17H4A2,2 0 0,1 2,15V13A2,2 0 0,1 4,11H6M4,13V15H6V13H4M20,13V15H22V17H20A2,2 0 0,1 18,15V13A2,2 0 0,1 20,11H22V13H20M12,7V11H14A2,2 0 0,1 16,13V15A2,2 0 0,1 14,17H12A2,2 0 0,1 10,15V7H12M12,15H14V13H12V15Z" />
    </g>
    <g id="mdi-alphabetical-off" transform="translate(432 216) scale(1.5)" fill="#555">
      <path d="M22.11 21.46L16 15.31L14 13.31L13.65 13L10 9.34L2.39 1.73L1.11 3L10 11.89V15A2 2 0 0 0 12 17H14A1.92 1.92 0 0 0 14.89 16.78L20.84 22.73M12 15V13.89L13.11 15M16 12.78L14.22 11A2 2 0 0 1 16 12.78M20.2 17L18 14.8V13A2 2 0 0 1 20 11H22V13H20V15H22V17M6 11H4A2 2 0 0 0 2 13V15A2 2 0 0 0 4 17H8V13A2 2 0 0 0 6 11M6 15H4V13H6M12 8.8L10.2 7H12Z" />
    </g>
    <g id="mdi-alphabetical-off" transform="translate(468 216) scale(1.5)" fill="#fff">
      <path d="M22.11 21.46L16 15.31L14 13.31L13.65 13L10 9.34L2.39 1.73L1.11 3L10 11.89V15A2 2 0 0 0 12 17H14A1.92 1.92 0 0 0 14.89 16.78L20.84 22.73M12 15V13.89L13.11 15M16 12.78L14.22 11A2 2 0 0 1 16 12.78M20.2 17L18 14.8V13A2 2 0 0 1 20 11H22V13H20V15H22V17M6 11H4A2 2 0 0 0 2 13V15A2 2 0 0 0 4 17H8V13A2 2 0 0 0 6 11M6 15H4V13H6M12 8.8L10.2 7H12Z" />
    </g>
    <g id="mdi-alphabetical-variant" transform="translate(504 216) scale(1.5)" fill="#555">
      <path d="M3 7A2 2 0 0 0 1 9V17H3V13H5V17H7V9A2 2 0 0 0 5 7H3M3 9H5V11H3M15 10.5V9A2 2 0 0 0 13 7H9V17H13A2 2 0 0 0 15 15V13.5A1.54 1.54 0 0 0 13.5 12A1.54 1.54 0 0 0 15 10.5M13 15H11V13H13V15M13 11H11V9H13M19 7A2 2 0 0 0 17 9V15A2 2 0 0 0 19 17H21A2 2 0 0 0 23 15V14H21V15H19V9H21V10H23V9A2 2 0 0 0 21 7Z" />
    </g>
    <g id="mdi-alphabetical-variant" transform="translate(540 216) scale(1.5)" fill="#fff">
      <path d="M3 7A2 2 0 0 0 1 9V17H3V13H5V17H7V9A2 2 0 0 0 5 7H3M3 9H5V11H3M15 10.5V9A2 2 0 0 0 13 7H9V17H13A2 2 0 0 0 15 15V13.5A1.54 1.54 0 0 0 13.5 12A1.54 1.54 0 0 0 15 10.5M13 15H11V13H13V15M13 11H11V9H13M19 7A2 2 0 0 0 17 9V15A2 2 0 0 0 19 17H21A2 2 0 0 0 23 15V14H21V15H19V9H21V10H23V9A2 2 0 0 0 21 7Z" />
    </g>
    <g id="mdi-alphabetical-variant-off" transform="translate(576 216) scale(1.5)" fill="#555">
      <path d="M12.2 9L10.2 7H13A2 2 0 0 1 15 9V10.5A1.47 1.47 0 0 1 14.64 11.44L13 9.8V9M23 10V9A2 2 0 0 0 21 7H19A2 2 0 0 0 17 9V13.8L20.2 17H21A2 2 0 0 0 23 15V14H21V15H19V9H21V10M15 14.35L22.11 21.46L20.84 22.73L14.46 16.35A2 2 0 0 1 13 17H9V10.89L7 8.89V17H5V13H3V17H1V9A2 2 0 0 1 3 7H5.12L1.12 3L2.39 1.73L9 8.34L11 10.34L11.66 11L15 14.34M5 9H3V11H5M13 14.89L11.11 13H11V15H13Z" />
    </g>
    <g id="mdi-alphabetical-variant-off" transform="translate(612 216) scale(1.5)" fill="#fff">
      <path d="M12.2 9L10.2 7H13A2 2 0 0 1 15 9V10.5A1.47 1.47 0 0 1 14.64 11.44L13 9.8V9M23 10V9A2 2 0 0 0 21 7H19A2 2 0 0 0 17 9V13.8L20.2 17H21A2 2 0 0 0 23 15V14H21V15H19V9H21V10M15 14.35L22.11 21.46L20.84 22.73L14.46 16.35A2 2 0 0 1 13 17H9V10.89L7 8.89V17H5V13H3V17H1V9A2 2 0 0 1 3 7H5.12L1.12 3L2.39 1.73L9 8.34L11 10.34L11.66 11L15 14.34M5 9H3V11H5M13 14.89L11.11 13H11V15H13Z" />
    </g>
    <g id="mdi-altimeter" transform="translate(648 216) scale(1.5)" fill="#555">
      <path d="M7,3V5H17V3H7M9,7V9H15V7H9M2,7.96V16.04L6.03,12L2,7.96M22.03,7.96L18,12L22.03,16.04V7.96M7,11V13H17V11H7M9,15V17H15V15H9M7,19V21H17V19H7Z" />
    </g>
    <g id="mdi-altimeter" transform="translate(684 216) scale(1.5)" fill="#fff">
      <path d="M7,3V5H17V3H7M9,7V9H15V7H9M2,7.96V16.04L6.03,12L2,7.96M22.03,7.96L18,12L22.03,16.04V7.96M7,11V13H17V11H7M9,15V17H15V15H9M7,19V21H17V19H7Z" />
    </g>
    <g id="mdi-amazon" transform="translate(0 252) scale(1.5)" fill="#555">
      <path d="M15.93,17.09C15.75,17.25 15.5,17.26 15.3,17.15C14.41,16.41 14.25,16.07 13.76,15.36C12.29,16.86 11.25,17.31 9.34,17.31C7.09,17.31 5.33,15.92 5.33,13.14C5.33,10.96 6.5,9.5 8.19,8.76C9.65,8.12 11.68,8 13.23,7.83V7.5C13.23,6.84 13.28,6.09 12.9,5.54C12.58,5.05 11.95,4.84 11.4,4.84C10.38,4.84 9.47,5.37 9.25,6.45C9.2,6.69 9,6.93 8.78,6.94L6.18,6.66C5.96,6.61 5.72,6.44 5.78,6.1C6.38,2.95 9.23,2 11.78,2C13.08,2 14.78,2.35 15.81,3.33C17.11,4.55 17,6.18 17,7.95V12.12C17,13.37 17.5,13.93 18,14.6C18.17,14.85 18.21,15.14 18,15.31L15.94,17.09H15.93M13.23,10.56V10C11.29,10 9.24,10.39 9.24,12.67C9.24,13.83 9.85,14.62 10.87,14.62C11.63,14.62 12.3,14.15 12.73,13.4C13.25,12.47 13.23,11.6 13.23,10.56M20.16,19.54C18,21.14 14.82,22 12.1,22C8.29,22 4.85,20.59 2.25,18.24C2.05,18.06 2.23,17.81 2.5,17.95C5.28,19.58 8.75,20.56 12.33,20.56C14.74,20.56 17.4,20.06 19.84,19.03C20.21,18.87 20.5,19.27 20.16,19.54M21.07,18.5C20.79,18.14 19.22,18.33 18.5,18.42C18.31,18.44 18.28,18.26 18.47,18.12C19.71,17.24 21.76,17.5 22,17.79C22.24,18.09 21.93,20.14 20.76,21.11C20.58,21.27 20.41,21.18 20.5,21C20.76,20.33 21.35,18.86 21.07,18.5Z" />
    </g>
    <g id="mdi-amazon" transform="translate(36 252) scale(1.5)" fill="#fff">
      <path d="M15.93,17.09C15.75,17.25 15.5,17.26 15.3,17.15C14.41,16.41 14.25,16.07 13.76,15.36C12.29,16.86 11.25,17.31 9.34,17.31C7.09,17.31 5.33,15.92 5.33,13.14C5.33,10.96 6.5,9.5 8.19,8.76C9.65,8.12 11.68,8 13.23,7.83V7.5C13.23,6.84 13.28,6.09 12.9,5.54C12.58,5.05 11.95,4.84 11.4,4.84C10.38,4.84 9.47,5.37 9.25,6.45C9.2,6.69 9,6.93 8.78,6.94L6.18,6.66C5.96,6.61 5.72,6.44 5.78,6.1C6.38,2.95 9.23,2 11.78,2C13.08,2 14.78,2.35 15.81,3.33C17.11,4.55 17,6.18 17,7.95V12.12C17,13.37 17.5,13.93 18,14.6C18.17,14.85 18.21,15.14 18,15.31L15.94,17.09H15.93M13.23,10.56V10C11.29,10 9.24,10.39 9.24,12.67C9.24,13.83 9.85,14.62 10.87,14.62C11.63,14.62 12.3,14.15 12.73,13.4C13.25,12.47 13.23,11.6 13.23,10.56M20.16,19.54C18,21.14 14.82,22 12.1,22C8.29,22 4.85,20.59 2.25,18.24C2.05,18.06 2.23,17.81 2.5,17.95C5.28,19.58 8.75,20.56 12.33,20.56C14.74,20.56 17.4,20.06 19.84,19.03C20.21,18.87 20.5,19.27 20.16,19.54M21.07,18.5C20.79,18.14 19.22,18.33 18.5,18.42C18.31,18.44 18.28,18.26 18.47,18.12C19.71,17.24 21.76,17.5 22,17.79C22.24,18.09 21.93,20.14 20.76,21.11C20.58,21.27 20.41,21.18 20.5,21C20.76,20.33 21.35,18.86 21.07,18.5Z" />
    </g>
    <g id="mdi-amazon-alexa" transform="translate(72 252) scale(1.5)" fill="#555">
      <path d="M12,2A10,10 0 0,0 2,12A10,10 0 0,0 12,22A10,10 0 0,0 22,12A10,10 0 0,0 12,2M10.43,21.87V19.91C10.43,19.22 10,18.57 9.35,18.3C6.91,17.26 5.17,14.83 5.17,12C5.17,8.26 8.22,5.17 12,5.17C15.78,5.17 18.83,8.26 18.83,12C18.83,16.43 15.39,20.61 10.43,21.87Z" />
    </g>
    <g id="mdi-amazon-alexa" transform="translate(108 252) scale(1.5)" fill="#fff">
      <path d="M12,2A10,10 0 0,0 2,12A10,10 0 0,0 12,22A10,10 0 0,0 22,12A10,10 0 0,0 12,2M10.43,21.87V19.91C10.43,19.22 10,18.57 9.35,18.3C6.91,17.26 5.17,14.83 5.17,12C5.17,8.26 8.22,5.17 12,5.17C15.78,5.17 18.83,8.26 18.83,12C18.83,16.43 15.39,20.61 10.43,21.87Z" />
    </g>
    <g id="mdi-amazon-drive" transform="translate(144 252) scale(1.5)" fill="#555">
      <path d="M4.94,11.12C5.23,11.12 5.5,11.16 5.76,11.23C5.77,9.09 7.5,7.35 9.65,7.35C11.27,7.35 12.67,8.35 13.24,9.77C13.83,9 14.74,8.53 15.76,8.53C17.5,8.53 18.94,9.95 18.94,11.71C18.94,11.95 18.91,12.2 18.86,12.43C19.1,12.34 19.37,12.29 19.65,12.29C20.95,12.29 22,13.35 22,14.65C22,15.95 20.95,17 19.65,17C18.35,17 6.36,17 4.94,17C3.32,17 2,15.68 2,14.06C2,12.43 3.32,11.12 4.94,11.12Z" />
    </g>
    <g id="mdi-amazon-drive" transform="translate(180 252) scale(1.5)" fill="#fff">
      <path d="M4.94,11.12C5.23,11.12 5.5,11.16 5.76,11.23C5.77,9.09 7.5,7.35 9.65,7.35C11.27,7.35 12.67,8.35 13.24,9.77C13.83,9 14.74,8.53 15.76,8.53C17.5,8.53 18.94,9.95 18.94,11.71C18.94,11.95 18.91,12.2 18.86,12.43C19.1,12.34 19.37,12.29 19.65,12.29C20.95,12.29 22,13.35 22,14.65C22,15.95 20.95,17 19.65,17C18.35,17 6.36,17 4.94,17C3.32,17 2,15.68 2,14.06C2,12.43 3.32,11.12 4.94,11.12Z" />
    </g>
    <g id="mdi-ambulance" transform="translate(216 252) scale(1.5)" fill="#555">
      <path d="M18,18.5A1.5,1.5 0 0,0 19.5,17A1.5,1.5 0 0,0 18,15.5A1.5,1.5 0 0,0 16.5,17A1.5,1.5 0 0,0 18,18.5M19.5,9.5H17V12H21.46L19.5,9.5M6,18.5A1.5,1.5 0 0,0 7.5,17A1.5,1.5 0 0,0 6,15.5A1.5,1.5 0 0,0 4.5,17A1.5,1.5 0 0,0 6,18.5M20,8L23,12V17H21A3,3 0 0,1 18,20A3,3 0 0,1 15,17H9A3,3 0 0,1 6,20A3,3 0 0,1 3,17H1V6C1,4.89 1.89,4 3,4H17V8H20M8,6V9H5V11H8V14H10V11H13V9H10V6H8Z" />
    </g>
    <g id="mdi-ambulance" transform="translate(252 252) scale(1.5)" fill="#fff">
      <path d="M18,18.5A1.5,1.5 0 0,0 19.5,17A1.5,1.5 0 0,0 18,15.5A1.5,1.5 0 0,0 16.5,17A1.5,1.5 0 0,0 18,18.5M19.5,9.5H17V12H21.46L19.5,9.5M6,18.5A1.5,1.5 0 0,0 7.5,17A1.5,1.5 0 0,0 6,15.5A1.5,1.5 0 0,0 4.5,17A1.5,1.5 0 0,0 6,18.5M20,8L23,12V17H21A3,3 0 0,1 18,20A3,3 0 0,1 15,17H9A3,3 0 0,1 6,20A3,3 0 0,1 3,17H1V6C1,4.89 1.89,4 3,4H17V8H20M8,6V9H5V11H8V14H10V11H13V9H10V6H8Z" />
    </g>
    <g id="mdi-ammunition" transform="translate(288 252) scale(1.5)" fill="#555">
      <path d="M14,22H10V21H14V22M13,10V7H11V10L10,11.5V20H14V11.5L13,10M12,2C12,2 11,3 11,5V6H13V5C13,5 13,3 12,2M8,22H4V21H8V22M7,10V7H5V10L4,11.5V20H8V11.5L7,10M6,2C6,2 5,3 5,5V6H7V5C7,5 7,3 6,2M20,22H16V21H20V22M19,10V7H17V10L16,11.5V20H20V11.5L19,10M18,2C18,2 17,3 17,5V6H19V5C19,5 19,3 18,2Z" />
    </g>
    <g id="mdi-ammunition" transform="translate(324 252) scale(1.5)" fill="#fff">
      <path d="M14,22H10V21H14V22M13,10V7H11V10L10,11.5V20H14V11.5L13,10M12,2C12,2 11,3 11,5V6H13V5C13,5 13,3 12,2M8,22H4V21H8V22M7,10V7H5V10L4,11.5V20H8V11.5L7,10M6,2C6,2 5,3 5,5V6H7V5C7,5 7,3 6,2M20,22H16V21H20V22M19,10V7H17V10L16,11.5V20H20V11.5L19,10M18,2C18,2 17,3 17,5V6H19V5C19,5 19,3 18,2Z" />
    </g>
    <g id="mdi-ampersand" transform="translate(360 252) scale(1.5)" fill="#555">
      <path d="M4.4,16.5C4.4,15.6 4.7,14.7 5.2,13.9C5.7,13.1 6.7,12.2 8.2,11.2C7.3,10.1 6.8,9.3 6.5,8.7C6.1,8 6,7.4 6,6.7C6,5.2 6.4,4.1 7.3,3.2C8.2,2.3 9.4,2 10.9,2C12.2,2 13.3,2.4 14.2,3.2C15.1,4 15.5,5 15.5,6.1C15.5,6.9 15.3,7.6 14.9,8.3C14.5,9 13.8,9.7 12.8,10.4L11.4,11.5L15.7,16.7C16.3,15.5 16.6,14.3 16.6,12.8H18.8C18.8,15.1 18.3,17 17.2,18.5L20,21.8H17L15.7,20.3C15,20.9 14.3,21.3 13.4,21.6C12.5,21.9 11.6,22.1 10.7,22.1C8.8,22.1 7.3,21.6 6.1,20.6C5,19.5 4.4,18.2 4.4,16.5M10.7,20C12,20 13.2,19.5 14.3,18.5L9.6,12.8L9.2,13.1C7.7,14.2 7,15.3 7,16.5C7,17.6 7.3,18.4 8,19C8.7,19.6 9.5,20 10.7,20M8.5,6.7C8.5,7.6 9,8.6 10.1,9.9L11.7,8.8C12.3,8.4 12.7,8 12.9,7.6C13.1,7.2 13.2,6.7 13.2,6.2C13.2,5.6 13,5.1 12.5,4.7C12.1,4.3 11.5,4.1 10.8,4.1C10.1,4.1 9.5,4.3 9.1,4.8C8.7,5.3 8.5,5.9 8.5,6.7Z" />
    </g>
    <g id="mdi-ampersand" transform="translate(396 252) scale(1.5)" fill="#fff">
      <path d="M4.4,16.5C4.4,15.6 4.7,14.7 5.2,13.9C5.7,13.1 6.7,12.2 8.2,11.2C7.3,10.1 6.8,9.3 6.5,8.7C6.1,8 6,7.4 6,6.7C6,5.2 6.4,4.1 7.3,3.2C8.2,2.3 9.4,2 10.9,2C12.2,2 13.3,2.4 14.2,3.2C15.1,4 15.5,5 15.5,6.1C15.5,6.9 15.3,7.6 14.9,8.3C14.5,9 13.8,9.7 12.8,10.4L11.4,11.5L15.7,16.7C16.3,15.5 16.6,14.3 16.6,12.8H18.8C18.8,15.1 18.3,17 17.2,18.5L20,21.8H17L15.7,20.3C15,20.9 14.3,21.3 13.4,21.6C12.5,21.9 11.6,22.1 10.7,22.1C8.8,22.1 7.3,21.6 6.1,20.6C5,19.5 4.4,18.2 4.4,16.5M10.7,20C12,20 13.2,19.5 14.3,18.5L9.6,12.8L9.2,13.1C7.7,14.2 7,15.3 7,16.5C7,17.6 7.3,18.4 8,19C8.7,19.6 9.5,20 10.7,20M8.5,6.7C8.5,7.6 9,8.6 10.1,9.9L11.7,8.8C12.3,8.4 12.7,8 12.9,7.6C13.1,7.2 13.2,6.7 13.2,6.2C13.2,5.6 13,5.1 12.5,4.7C12.1,4.3 11.5,4.1 10.8,4.1C10.1,4.1 9.5,4.3 9.1,4.8C8.7,5.3 8.5,5.9 8.5,6.7Z" />
    </g>
    <g id="mdi-amplifier" transform="translate(432 252) scale(1.5)" fill="#555">
      <path d="M10,2H14A1,1 0 0,1 15,3H21V21H19A1,1 0 0,1 18,22A1,1 0 0,1 17,21H7A1,1 0 0,1 6,22A1,1 0 0,1 5,21H3V3H9A1,1 0 0,1 10,2M5,5V9H19V5H5M7,6A1,1 0 0,1 8,7A1,1 0 0,1 7,8A1,1 0 0,1 6,7A1,1 0 0,1 7,6M12,6H14V7H12V6M15,6H16V8H15V6M17,6H18V8H17V6M12,11A4,4 0 0,0 8,15A4,4 0 0,0 12,19A4,4 0 0,0 16,15A4,4 0 0,0 12,11M10,6A1,1 0 0,1 11,7A1,1 0 0,1 10,8A1,1 0 0,1 9,7A1,1 0 0,1 10,6Z" />
    </g>
    <g id="mdi-amplifier" transform="translate(468 252) scale(1.5)" fill="#fff">
      <path d="M10,2H14A1,1 0 0,1 15,3H21V21H19A1,1 0 0,1 18,22A1,1 0 0,1 17,21H7A1,1 0 0,1 6,22A1,1 0 0,1 5,21H3V3H9A1,1 0 0,1 10,2M5,5V9H19V5H5M7,6A1,1 0 0,1 8,7A1,1 0 0,1 7,8A1,1 0 0,1 6,7A1,1 0 0,1 7,6M12,6H14V7H12V6M15,6H16V8H15V6M17,6H18V8H17V6M12,11A4,4 0 0,0 8,15A4,4 0 0,0 12,19A4,4 0 0,0 16,15A4,4 0 0,0 12,11M10,6A1,1 0 0,1 11,7A1,1 0 0,1 10,8A1,1 0 0,1 9,7A1,1 0 0,1 10,6Z" />
    </g>
    <g id="mdi-amplifier-off" transform="translate(504 252) scale(1.5)" fill="#555">
      <path d="M22.1 21.5L2.4 1.7L1.1 3L3 4.9V21H5C5 21.6 5.4 22 6 22S7 21.6 7 21H17C17 21.6 17.4 22 18 22S19 21.6 19 21H19.1L20.8 22.7L22.1 21.5M5 9V6.9L7.1 9H5M12 19C9.8 19 8 17.2 8 15C8 13.6 8.7 12.4 9.8 11.7L15.3 17.2C14.6 18.3 13.4 19 12 19M14 6V7H12V6H14M10 6C10.6 6 11 6.4 11 7C11 7.2 10.9 7.4 10.8 7.6L9.4 6.2C9.6 6.1 9.8 6 10 6M8.2 5L6.2 3H9C9 2.4 9.4 2 10 2H14C14.6 2 15 2.4 15 3H21V17.8L12.2 9H19V5H8.2M16 6V8H15V6H16M18 6V8H17V6H18Z" />
    </g>
    <g id="mdi-amplifier-off" transform="translate(540 252) scale(1.5)" fill="#fff">
      <path d="M22.1 21.5L2.4 1.7L1.1 3L3 4.9V21H5C5 21.6 5.4 22 6 22S7 21.6 7 21H17C17 21.6 17.4 22 18 22S19 21.6 19 21H19.1L20.8 22.7L22.1 21.5M5 9V6.9L7.1 9H5M12 19C9.8 19 8 17.2 8 15C8 13.6 8.7 12.4 9.8 11.7L15.3 17.2C14.6 18.3 13.4 19 12 19M14 6V7H12V6H14M10 6C10.6 6 11 6.4 11 7C11 7.2 10.9 7.4 10.8 7.6L9.4 6.2C9.6 6.1 9.8 6 10 6M8.2 5L6.2 3H9C9 2.4 9.4 2 10 2H14C14.6 2 15 2.4 15 3H21V17.8L12.2 9H19V5H8.2M16 6V8H15V6H16M18 6V8H17V6H18Z" />
    </g>
    <g id="mdi-anchor" transform="translate(576 252) scale(1.5)" fill="#555">
      <path d="M12,2A3,3 0 0,0 9,5C9,6.27 9.8,7.4 11,7.83V10H8V12H11V18.92C9.16,18.63 7.53,17.57 6.53,16H8V14H3V19H5V17.3C6.58,19.61 9.2,21 12,21C14.8,21 17.42,19.61 19,17.31V19H21V14H16V16H17.46C16.46,17.56 14.83,18.63 13,18.92V12H16V10H13V7.82C14.2,7.4 15,6.27 15,5A3,3 0 0,0 12,2M12,4A1,1 0 0,1 13,5A1,1 0 0,1 12,6A1,1 0 0,1 11,5A1,1 0 0,1 12,4Z" />
    </g>
    <g id="mdi-anchor" transform="translate(612 252) scale(1.5)" fill="#fff">
      <path d="M12,2A3,3 0 0,0 9,5C9,6.27 9.8,7.4 11,7.83V10H8V12H11V18.92C9.16,18.63 7.53,17.57 6.53,16H8V14H3V19H5V17.3C6.58,19.61 9.2,21 12,21C14.8,21 17.42,19.61 19,17.31V19H21V14H16V16H17.46C16.46,17.56 14.83,18.63 13,18.92V12H16V10H13V7.82C14.2,7.4 15,6.27 15,5A3,3 0 0,0 12,2M12,4A1,1 0 0,1 13,5A1,1 0 0,1 12,6A1,1 0 0,1 11,5A1,1 0 0,1 12,4Z" />
    </g>
    <g id="mdi-android" transform="translate(648 252) scale(1.5)" fill="#555">
      <path d="M16.61 15.15C16.15 15.15 15.77 14.78 15.77 14.32S16.15 13.5 16.61 13.5H16.61C17.07 13.5 17.45 13.86 17.45 14.32C17.45 14.78 17.07 15.15 16.61 15.15M7.41 15.15C6.95 15.15 6.57 14.78 6.57 14.32C6.57 13.86 6.95 13.5 7.41 13.5H7.41C7.87 13.5 8.24 13.86 8.24 14.32C8.24 14.78 7.87 15.15 7.41 15.15M16.91 10.14L18.58 7.26C18.67 7.09 18.61 6.88 18.45 6.79C18.28 6.69 18.07 6.75 18 6.92L16.29 9.83C14.95 9.22 13.5 8.9 12 8.91C10.47 8.91 9 9.24 7.73 9.82L6.04 6.91C5.95 6.74 5.74 6.68 5.57 6.78C5.4 6.87 5.35 7.08 5.44 7.25L7.1 10.13C4.25 11.69 2.29 14.58 2 18H22C21.72 14.59 19.77 11.7 16.91 10.14H16.91Z" />
    </g>
    <g id="mdi-android" transform="translate(684 252) scale(1.5)" fill="#fff">
      <path d="M16.61 15.15C16.15 15.15 15.77 14.78 15.77 14.32S16.15 13.5 16.61 13.5H16.61C17.07 13.5 17.45 13.86 17.45 14.32C17.45 14.78 17.07 15.15 16.61 15.15M7.41 15.15C6.95 15.15 6.57 14.78 6.57 14.32C6.57 13.86 6.95 13.5 7.41 13.5H7.41C7.87 13.5 8.24 13.86 8.24 14.32C8.24 14.78 7.87 15.15 7.41 15.15M16.91 10.14L18.58 7.26C18.67 7.09 18.61 6.88 18.45 6.79C18.28 6.69 18.07 6.75 18 6.92L16.29 9.83C14.95 9.22 13.5 8.9 12 8.91C10.47 8.91 9 9.24 7.73 9.82L6.04 6.91C5.95 6.74 5.74 6.68 5.57 6.78C5.4 6.87 5.35 7.08 5.44 7.25L7.1 10.13C4.25 11.69 2.29 14.58 2 18H22C21.72 14.59 19.77 11.7 16.91 10.14H16.91Z" />
    </g>
    <g id="mdi-android-auto" transform="translate(0 288) scale(1.5)" fill="#555">
      <path d="M22.78,17.91C22.94,18.16 23,18.42 23,18.7C23,19.08 22.87,19.39 22.57,19.64C22.27,19.89 21.94,20 21.56,20H19.08L12.42,8H11.58L4.92,20H2.39C1.92,20 1.53,19.8 1.22,19.38C0.91,18.96 0.89,18.5 1.17,18L10.78,1.69C11.09,1.22 11.5,1 12,1C12.53,1 12.92,1.22 13.17,1.69L22.78,17.91M4.78,22.31L12,9.38L19.22,22.31L18.5,23L12,20.34L5.44,23L4.78,22.31Z" />
    </g>
    <g id="mdi-android-auto" transform="translate(36 288) scale(1.5)" fill="#fff">
      <path d="M22.78,17.91C22.94,18.16 23,18.42 23,18.7C23,19.08 22.87,19.39 22.57,19.64C22.27,19.89 21.94,20 21.56,20H19.08L12.42,8H11.58L4.92,20H2.39C1.92,20 1.53,19.8 1.22,19.38C0.91,18.96 0.89,18.5 1.17,18L10.78,1.69C11.09,1.22 11.5,1 12,1C12.53,1 12.92,1.22 13.17,1.69L22.78,17.91M4.78,22.31L12,9.38L19.22,22.31L18.5,23L12,20.34L5.44,23L4.78,22.31Z" />
    </g>
    <g id="mdi-android-debug-bridge" transform="translate(72 288) scale(1.5)" fill="#555">
      <path d="M15,9A1,1 0 0,1 14,8A1,1 0 0,1 15,7A1,1 0 0,1 16,8A1,1 0 0,1 15,9M9,9A1,1 0 0,1 8,8A1,1 0 0,1 9,7A1,1 0 0,1 10,8A1,1 0 0,1 9,9M16.12,4.37L18.22,2.27L17.4,1.44L15.09,3.75C14.16,3.28 13.11,3 12,3C10.88,3 9.84,3.28 8.91,3.75L6.6,1.44L5.78,2.27L7.88,4.37C6.14,5.64 5,7.68 5,10V11H19V10C19,7.68 17.86,5.64 16.12,4.37M5,16C5,19.86 8.13,23 12,23A7,7 0 0,0 19,16V12H5V16Z" />
    </g>
    <g id="mdi-android-debug-bridge" transform="translate(108 288) scale(1.5)" fill="#fff">
      <path d="M15,9A1,1 0 0,1 14,8A1,1 0 0,1 15,7A1,1 0 0,1 16,8A1,1 0 0,1 15,9M9,9A1,1 0 0,1 8,8A1,1 0 0,1 9,7A1,1 0 0,1 10,8A1,1 0 0,1 9,9M16.12,4.37L18.22,2.27L17.4,1.44L15.09,3.75C14.16,3.28 13.11,3 12,3C10.88,3 9.84,3.28 8.91,3.75L6.6,1.44L5.78,2.27L7.88,4.37C6.14,5.64 5,7.68 5,10V11H19V10C19,7.68 17.86,5.64 16.12,4.37M5,16C5,19.86 8.13,23 12,23A7,7 0 0,0 19,16V12H5V16Z" />
    </g>
    <g id="mdi-android-head" transform="translate(144 288) scale(1.5)" fill="#555">
      <path d="M8,11.5A1.25,1.25 0 0,0 6.75,12.75A1.25,1.25 0 0,0 8,14A1.25,1.25 0 0,0 9.25,12.75A1.25,1.25 0 0,0 8,11.5M16,11.5A1.25,1.25 0 0,0 14.75,12.75A1.25,1.25 0 0,0 16,14A1.25,1.25 0 0,0 17.25,12.75A1.25,1.25 0 0,0 16,11.5M12,7C13.5,7 14.9,7.33 16.18,7.91L18.34,5.75C18.73,5.36 19.36,5.36 19.75,5.75C20.14,6.14 20.14,6.77 19.75,7.16L17.95,8.96C20.41,10.79 22,13.71 22,17H2C2,13.71 3.59,10.79 6.05,8.96L4.25,7.16C3.86,6.77 3.86,6.14 4.25,5.75C4.64,5.36 5.27,5.36 5.66,5.75L7.82,7.91C9.1,7.33 10.5,7 12,7Z" />
    </g>
    <g id="mdi-android-head" transform="translate(180 288) scale(1.5)" fill="#fff">
      <path d="M8,11.5A1.25,1.25 0 0,0 6.75,12.75A1.25,1.25 0 0,0 8,14A1.25,1.25 0 0,0 9.25,12.75A1.25,1.25 0 0,0 8,11.5M16,11.5A1.25,1.25 0 0,0 14.75,12.75A1.25,1.25 0 0,0 16,14A1.25,1.25 0 0,0 17.25,12.75A1.25,1.25 0 0,0 16,11.5M12,7C13.5,7 14.9,7.33 16.18,7.91L18.34,5.75C18.73,5.36 19.36,5.36 19.75,5.75C20.14,6.14 20.14,6.77 19.75,7.16L17.95,8.96C20.41,10.79 22,13.71 22,17H2C2,13.71 3.59,10.79 6.05,8.96L4.25,7.16C3.86,6.77 3.86,6.14 4.25,5.75C4.64,5.36 5.27,5.36 5.66,5.75L7.82,7.91C9.1,7.33 10.5,7 12,7Z" />
    </g>
    <g id="mdi-android-messages" transform="translate(216 288) scale(1.5)" fill="#555">
      <path d="M20,20H7A2,2 0 0,1 5,18V8.94L2.23,5.64C2.09,5.47 2,5.24 2,5A1,1 0 0,1 3,4H20A2,2 0 0,1 22,6V18A2,2 0 0,1 20,20M8.5,7A0.5,0.5 0 0,0 8,7.5V8.5A0.5,0.5 0 0,0 8.5,9H18.5A0.5,0.5 0 0,0 19,8.5V7.5A0.5,0.5 0 0,0 18.5,7H8.5M8.5,11A0.5,0.5 0 0,0 8,11.5V12.5A0.5,0.5 0 0,0 8.5,13H18.5A0.5,0.5 0 0,0 19,12.5V11.5A0.5,0.5 0 0,0 18.5,11H8.5M8.5,15A0.5,0.5 0 0,0 8,15.5V16.5A0.5,0.5 0 0,0 8.5,17H13.5A0.5,0.5 0 0,0 14,16.5V15.5A0.5,0.5 0 0,0 13.5,15H8.5Z" />
    </g>
    <g id="mdi-android-messages" transform="translate(252 288) scale(1.5)" fill="#fff">
      <path d="M20,20H7A2,2 0 0,1 5,18V8.94L2.23,5.64C2.09,5.47 2,5.24 2,5A1,1 0 0,1 3,4H20A2,2 0 0,1 22,6V18A2,2 0 0,1 20,20M8.5,7A0.5,0.5 0 0,0 8,7.5V8.5A0.5,0.5 0 0,0 8.5,9H18.5A0.5,0.5 0 0,0 19,8.5V7.5A0.5,0.5 0 0,0 18.5,7H8.5M8.5,11A0.5,0.5 0 0,0 8,11.5V12.5A0.5,0.5 0 0,0 8.5,13H18.5A0.5,0.5 0 0,0 19,12.5V11.5A0.5,0.5 0 0,0 18.5,11H8.5M8.5,15A0.5,0.5 0 0,0 8,15.5V16.5A0.5,0.5 0 0,0 8.5,17H13.5A0.5,0.5 0 0,0 14,16.5V15.5A0.5,0.5 0 0,0 13.5,15H8.5Z" />
    </g>
    <g id="mdi-android-studio" transform="translate(288 288) scale(1.5)" fill="#555">
      <path d="M11,2H13V4H13.5A1.5,1.5 0 0,1 15,5.5V9L14.56,9.44L16.2,12.28C17.31,11.19 18,9.68 18,8H20C20,10.42 18.93,12.59 17.23,14.06L20.37,19.5L20.5,21.72L18.63,20.5L15.56,15.17C14.5,15.7 13.28,16 12,16C10.72,16 9.5,15.7 8.44,15.17L5.37,20.5L3.5,21.72L3.63,19.5L9.44,9.44L9,9V5.5A1.5,1.5 0 0,1 10.5,4H11V2M9.44,13.43C10.22,13.8 11.09,14 12,14C12.91,14 13.78,13.8 14.56,13.43L13.1,10.9H13.09C12.47,11.5 11.53,11.5 10.91,10.9H10.9L9.44,13.43M12,6A1,1 0 0,0 11,7A1,1 0 0,0 12,8A1,1 0 0,0 13,7A1,1 0 0,0 12,6Z" />
    </g>
    <g id="mdi-android-studio" transform="translate(324 288) scale(1.5)" fill="#fff">
      <path d="M11,2H13V4H13.5A1.5,1.5 0 0,1 15,5.5V9L14.56,9.44L16.2,12.28C17.31,11.19 18,9.68 18,8H20C20,10.42 18.93,12.59 17.23,14.06L20.37,19.5L20.5,21.72L18.63,20.5L15.56,15.17C14.5,15.7 13.28,16 12,16C10.72,16 9.5,15.7 8.44,15.17L5.37,20.5L3.5,21.72L3.63,19.5L9.44,9.44L9,9V5.5A1.5,1.5 0 0,1 10.5,4H11V2M9.44,13.43C10.22,13.8 11.09,14 12,14C12.91,14 13.78,13.8 14.56,13.43L13.1,10.9H13.09C12.47,11.5 11.53,11.5 10.91,10.9H10.9L9.44,13.43M12,6A1,1 0 0,0 11,7A1,1 0 0,0 12,8A1,1 0 0,0 13,7A1,1 0 0,0 12,6Z" />
    </g>
    <g id="mdi-angle-acute" transform="translate(360 288) scale(1.5)" fill="#555">
      <path d="M20,19H4.09L14.18,4.43L15.82,5.57L11.28,12.13C12.89,12.96 14,14.62 14,16.54C14,16.7 14,16.85 13.97,17H20V19M7.91,17H11.96C12,16.85 12,16.7 12,16.54C12,15.28 11.24,14.22 10.14,13.78L7.91,17Z" />
    </g>
    <g id="mdi-angle-acute" transform="translate(396 288) scale(1.5)" fill="#fff">
      <path d="M20,19H4.09L14.18,4.43L15.82,5.57L11.28,12.13C12.89,12.96 14,14.62 14,16.54C14,16.7 14,16.85 13.97,17H20V19M7.91,17H11.96C12,16.85 12,16.7 12,16.54C12,15.28 11.24,14.22 10.14,13.78L7.91,17Z" />
    </g>
    <g id="mdi-angle-obtuse" transform="translate(432 288) scale(1.5)" fill="#555">
      <path d="M21,19H9.31L4.07,5.36L5.93,4.64L8.96,12.5C9.5,12.29 10.09,12.17 10.71,12.17V12.17C13.38,12.17 15.56,14.34 15.58,17H21V19M10.69,17H13.58C13.56,15.42 12.3,14.17 10.71,14.17C10.34,14.17 10,14.24 9.67,14.36L10.69,17Z" />
    </g>
    <g id="mdi-angle-obtuse" transform="translate(468 288) scale(1.5)" fill="#fff">
      <path d="M21,19H9.31L4.07,5.36L5.93,4.64L8.96,12.5C9.5,12.29 10.09,12.17 10.71,12.17V12.17C13.38,12.17 15.56,14.34 15.58,17H21V19M10.69,17H13.58C13.56,15.42 12.3,14.17 10.71,14.17C10.34,14.17 10,14.24 9.67,14.36L10.69,17Z" />
    </g>
    <g id="mdi-angle-right" transform="translate(504 288) scale(1.5)" fill="#555">
      <path d="M5,4H7V11H13V17H20V19H5V4M7,17H11V13H7V17Z" />
    </g>
    <g id="mdi-angle-right" transform="translate(540 288) scale(1.5)" fill="#fff">
      <path d="M5,4H7V11H13V17H20V19H5V4M7,17H11V13H7V17Z" />
    </g>
    <g id="mdi-angular" transform="translate(576 288) scale(1.5)" fill="#555">
      <path d="M12,2.5L20.84,5.65L19.5,17.35L12,21.5L4.5,17.35L3.16,5.65L12,2.5M12,4.6L6.47,17H8.53L9.64,14.22H14.34L15.45,17H17.5L12,4.6M13.62,12.5H10.39L12,8.63L13.62,12.5Z" />
    </g>
    <g id="mdi-angular" transform="translate(612 288) scale(1.5)" fill="#fff">
      <path d="M12,2.5L20.84,5.65L19.5,17.35L12,21.5L4.5,17.35L3.16,5.65L12,2.5M12,4.6L6.47,17H8.53L9.64,14.22H14.34L15.45,17H17.5L12,4.6M13.62,12.5H10.39L12,8.63L13.62,12.5Z" />
    </g>
    <g id="mdi-angularjs" transform="translate(648 288) scale(1.5)" fill="#555">
      <path d="M12,2.5L20.84,5.65L19.5,17.35L12,21.5L4.5,17.35L3.16,5.65L12,2.5M12,4.5L5,7L6.08,16.22L12,19.5L17.92,16.22L19,7L12,4.5M12,5.72L16.58,16H14.87L13.94,13.72H10.04L9.12,16H7.41L12,5.72M13.34,12.3L12,9.07L10.66,12.3H13.34Z" />
    </g>
    <g id="mdi-angularjs" transform="translate(684 288) scale(1.5)" fill="#fff">
      <path d="M12,2.5L20.84,5.65L19.5,17.35L12,21.5L4.5,17.35L3.16,5.65L12,2.5M12,4.5L5,7L6.08,16.22L12,19.5L17.92,16.22L19,7L12,4.5M12,5.72L16.58,16H14.87L13.94,13.72H10.04L9.12,16H7.41L12,5.72M13.34,12.3L12,9.07L10.66,12.3H13.34Z" />
    </g>
    <g id="mdi-animation" transform="translate(0 324) scale(1.5)" fill="#555">
      <path d="M4,2C2.89,2 2,2.89 2,4V14H4V4H14V2H4M8,6C6.89,6 6,6.89 6,8V18H8V8H18V6H8M12,10C10.89,10 10,10.89 10,12V20C10,21.11 10.89,22 12,22H20C21.11,22 22,21.11 22,20V12C22,10.89 21.11,10 20,10H12Z" />
    </g>
    <g id="mdi-animation" transform="translate(36 324) scale(1.5)" fill="#fff">
      <path d="M4,2C2.89,2 2,2.89 2,4V14H4V4H14V2H4M8,6C6.89,6 6,6.89 6,8V18H8V8H18V6H8M12,10C10.89,10 10,10.89 10,12V20C10,21.11 10.89,22 12,22H20C21.11,22 22,21.11 22,20V12C22,10.89 21.11,10 20,10H12Z" />
    </g>
    <g id="mdi-animation-outline" transform="translate(72 324) scale(1.5)" fill="#555">
      <path d="M4,2A2,2 0 0,0 2,4V14H4V4H14V2H4M8,6A2,2 0 0,0 6,8V18H8V8H18V6H8M20,12V20H12V12H20M20,10H12A2,2 0 0,0 10,12V20A2,2 0 0,0 12,22H20A2,2 0 0,0 22,20V12A2,2 0 0,0 20,10Z" />
    </g>
    <g id="mdi-animation-outline" transform="translate(108 324) scale(1.5)" fill="#fff">
      <path d="M4,2A2,2 0 0,0 2,4V14H4V4H14V2H4M8,6A2,2 0 0,0 6,8V18H8V8H18V6H8M20,12V20H12V12H20M20,10H12A2,2 0 0,0 10,12V20A2,2 0 0,0 12,22H20A2,2 0 0,0 22,20V12A2,2 0 0,0 20,10Z" />
    </g>
    <g id="mdi-animation-play" transform="translate(144 324) scale(1.5)" fill="#555">
      <path d="M4,2H14V4H4V14H2V4C2,2.89 2.89,2 4,2M8,6H18V8H8V18H6V8C6,6.89 6.89,6 8,6M12,10H20C21.11,10 22,10.89 22,12V20C22,21.11 21.11,22 20,22H12C10.89,22 10,21.11 10,20V12C10,10.89 10.89,10 12,10M14,12V20L20,16L14,12Z" />
    </g>
    <g id="mdi-animation-play" transform="translate(180 324) scale(1.5)" fill="#fff">
      <path d="M4,2H14V4H4V14H2V4C2,2.89 2.89,2 4,2M8,6H18V8H8V18H6V8C6,6.89 6.89,6 8,6M12,10H20C21.11,10 22,10.89 22,12V20C22,21.11 21.11,22 20,22H12C10.89,22 10,21.11 10,20V12C10,10.89 10.89,10 12,10M14,12V20L20,16L14,12Z" />
    </g>
    <g id="mdi-animation-play-outline" transform="translate(216 324) scale(1.5)" fill="#555">
      <path d="M4,2A2,2 0 0,0 2,4V14H4V4H14V2H4M8,6A2,2 0 0,0 6,8V18H8V8H18V6H8M20,12V20H12V12H20M20,10H12A2,2 0 0,0 10,12V20A2,2 0 0,0 12,22H20A2,2 0 0,0 22,20V12A2,2 0 0,0 20,10M14,13V19L18,16L14,13Z" />
    </g>
    <g id="mdi-animation-play-outline" transform="translate(252 324) scale(1.5)" fill="#fff">
      <path d="M4,2A2,2 0 0,0 2,4V14H4V4H14V2H4M8,6A2,2 0 0,0 6,8V18H8V8H18V6H8M20,12V20H12V12H20M20,10H12A2,2 0 0,0 10,12V20A2,2 0 0,0 12,22H20A2,2 0 0,0 22,20V12A2,2 0 0,0 20,10M14,13V19L18,16L14,13Z" />
    </g>
    <g id="mdi-ansible" transform="translate(288 324) scale(1.5)" fill="#555">
      <path d="M12 2C6.5 2 2 6.5 2 12C2 17.5 6.5 22 12 22C17.5 22 22 17.5 22 12C22 6.5 17.5 2 12 2M16.1 17C15.91 17 15.76 16.9 15.55 16.73L10.39 12.56L8.66 16.9H7.17L11.54 6.39C11.65 6.11 11.89 5.97 12.17 5.97C12.45 5.97 12.67 6.11 12.79 6.39L16.77 15.97C16.81 16.08 16.84 16.19 16.84 16.26C16.83 16.68 16.5 17 16.1 17M12.17 8.11L14.76 14.5L10.85 11.42L12.17 8.11Z" />
    </g>
    <g id="mdi-ansible" transform="translate(324 324) scale(1.5)" fill="#fff">
      <path d="M12 2C6.5 2 2 6.5 2 12C2 17.5 6.5 22 12 22C17.5 22 22 17.5 22 12C22 6.5 17.5 2 12 2M16.1 17C15.91 17 15.76 16.9 15.55 16.73L10.39 12.56L8.66 16.9H7.17L11.54 6.39C11.65 6.11 11.89 5.97 12.17 5.97C12.45 5.97 12.67 6.11 12.79 6.39L16.77 15.97C16.81 16.08 16.84 16.19 16.84 16.26C16.83 16.68 16.5 17 16.1 17M12.17 8.11L14.76 14.5L10.85 11.42L12.17 8.11Z" />
    </g>
    <g id="mdi-antenna" transform="translate(360 324) scale(1.5)" fill="#555">
      <path d="M12 7.5C12.69 7.5 13.27 7.73 13.76 8.2S14.5 9.27 14.5 10C14.5 11.05 14 11.81 13 12.28V21H11V12.28C10 11.81 9.5 11.05 9.5 10C9.5 9.27 9.76 8.67 10.24 8.2S11.31 7.5 12 7.5M16.69 5.3C17.94 6.55 18.61 8.11 18.7 10C18.7 11.8 18.03 13.38 16.69 14.72L15.5 13.5C16.5 12.59 17 11.42 17 10C17 8.67 16.5 7.5 15.5 6.5L16.69 5.3M6.09 4.08C4.5 5.67 3.7 7.64 3.7 10S4.5 14.3 6.09 15.89L4.92 17.11C3 15.08 2 12.7 2 10C2 7.3 3 4.94 4.92 2.91L6.09 4.08M19.08 2.91C21 4.94 22 7.3 22 10C22 12.8 21 15.17 19.08 17.11L17.91 15.89C19.5 14.3 20.3 12.33 20.3 10S19.5 5.67 17.91 4.08L19.08 2.91M7.31 5.3L8.5 6.5C7.5 7.42 7 8.58 7 10C7 11.33 7.5 12.5 8.5 13.5L7.31 14.72C5.97 13.38 5.3 11.8 5.3 10C5.3 8.2 5.97 6.64 7.31 5.3Z" />
    </g>
    <g id="mdi-antenna" transform="translate(396 324) scale(1.5)" fill="#fff">
      <path d="M12 7.5C12.69 7.5 13.27 7.73 13.76 8.2S14.5 9.27 14.5 10C14.5 11.05 14 11.81 13 12.28V21H11V12.28C10 11.81 9.5 11.05 9.5 10C9.5 9.27 9.76 8.67 10.24 8.2S11.31 7.5 12 7.5M16.69 5.3C17.94 6.55 18.61 8.11 18.7 10C18.7 11.8 18.03 13.38 16.69 14.72L15.5 13.5C16.5 12.59 17 11.42 17 10C17 8.67 16.5 7.5 15.5 6.5L16.69 5.3M6.09 4.08C4.5 5.67 3.7 7.64 3.7 10S4.5 14.3 6.09 15.89L4.92 17.11C3 15.08 2 12.7 2 10C2 7.3 3 4.94 4.92 2.91L6.09 4.08M19.08 2.91C21 4.94 22 7.3 22 10C22 12.8 21 15.17 19.08 17.11L17.91 15.89C19.5 14.3 20.3 12.33 20.3 10S19.5 5.67 17.91 4.08L19.08 2.91M7.31 5.3L8.5 6.5C7.5 7.42 7 8.58 7 10C7 11.33 7.5 12.5 8.5 13.5L7.31 14.72C5.97 13.38 5.3 11.8 5.3 10C5.3 8.2 5.97 6.64 7.31 5.3Z" />
    </g>
    <g id="mdi-anvil" transform="translate(432 324) scale(1.5)" fill="#555">
      <path d="M9,5V10C13.03,12.47 8.44,14.97 6,16V19H21V16C14.59,13.27 17.47,9 22,8V5H9M2,6C2.81,8.13 4.42,9.5 7,10V6H2Z" />
    </g>
    <g id="mdi-anvil" transform="translate(468 324) scale(1.5)" fill="#fff">
      <path d="M9,5V10C13.03,12.47 8.44,14.97 6,16V19H21V16C14.59,13.27 17.47,9 22,8V5H9M2,6C2.81,8.13 4.42,9.5 7,10V6H2Z" />
    </g>
    <g id="mdi-apache-kafka" transform="translate(504 324) scale(1.5)" fill="#555">
      <path d="M15.54 12.97C14.86 12.97 14.24 13.22 13.76 13.64L12.47 12.89C12.56 12.6 12.6 12.29 12.6 11.97C12.6 11.65 12.56 11.34 12.5 11.05L13.73 10.32C14.21 10.76 14.85 11 15.54 11C17.03 11 18.24 9.81 18.24 8.32S17.03 5.63 15.54 5.63 12.84 6.84 12.84 8.33C12.84 8.5 12.86 8.7 12.89 8.88L11.64 9.6C11.21 9.15 10.64 8.82 10 8.65V7.26C11.09 6.91 11.88 5.89 11.88 4.69C11.88 3.2 10.67 2 9.18 2C7.69 2 6.5 3.2 6.5 4.69C6.5 5.89 7.26 6.9 8.34 7.26V8.66C6.86 9.04 5.76 10.37 5.76 11.97C5.76 13.57 6.86 14.91 8.34 15.28V16.73C7.26 17.09 6.5 18.1 6.5 19.3C6.5 20.79 7.69 22 9.18 22C10.67 22 11.88 20.79 11.88 19.3C11.88 18.1 11.09 17.08 10 16.73V15.29C10.64 15.13 11.2 14.8 11.64 14.35L12.9 15.08C12.86 15.27 12.84 15.46 12.84 15.66C12.84 17.15 14.05 18.36 15.54 18.36S18.24 17.15 18.24 15.66 17.03 12.97 15.54 12.97M15.54 7C16.28 7 16.87 7.59 16.87 8.32S16.28 9.66 15.54 9.66 14.21 9.06 14.21 8.32 14.8 7 15.54 7M7.85 4.69C7.85 3.95 8.44 3.35 9.18 3.35C9.92 3.35 10.5 3.95 10.5 4.69S9.92 6.03 9.18 6.03C8.44 6.03 7.85 5.43 7.85 4.69M10.5 19.3C10.5 20.04 9.92 20.64 9.18 20.64C8.44 20.64 7.85 20.04 7.85 19.3C7.85 18.56 8.44 17.96 9.18 17.96C9.92 17.96 10.5 18.56 10.5 19.3M9.18 13.89C8.12 13.89 7.26 13.03 7.26 11.97C7.26 10.91 8.12 10.05 9.18 10.05S11.1 10.91 11.1 11.97C11.1 13.03 10.24 13.89 9.18 13.89M15.54 17C14.8 17 14.21 16.4 14.21 15.66S14.8 14.33 15.54 14.33 16.87 14.93 16.87 15.66 16.28 17 15.54 17Z" />
    </g>
    <g id="mdi-apache-kafka" transform="translate(540 324) scale(1.5)" fill="#fff">
      <path d="M15.54 12.97C14.86 12.97 14.24 13.22 13.76 13.64L12.47 12.89C12.56 12.6 12.6 12.29 12.6 11.97C12.6 11.65 12.56 11.34 12.5 11.05L13.73 10.32C14.21 10.76 14.85 11 15.54 11C17.03 11 18.24 9.81 18.24 8.32S17.03 5.63 15.54 5.63 12.84 6.84 12.84 8.33C12.84 8.5 12.86 8.7 12.89 8.88L11.64 9.6C11.21 9.15 10.64 8.82 10 8.65V7.26C11.09 6.91 11.88 5.89 11.88 4.69C11.88 3.2 10.67 2 9.18 2C7.69 2 6.5 3.2 6.5 4.69C6.5 5.89 7.26 6.9 8.34 7.26V8.66C6.86 9.04 5.76 10.37 5.76 11.97C5.76 13.57 6.86 14.91 8.34 15.28V16.73C7.26 17.09 6.5 18.1 6.5 19.3C6.5 20.79 7.69 22 9.18 22C10.67 22 11.88 20.79 11.88 19.3C11.88 18.1 11.09 17.08 10 16.73V15.29C10.64 15.13 11.2 14.8 11.64 14.35L12.9 15.08C12.86 15.27 12.84 15.46 12.84 15.66C12.84 17.15 14.05 18.36 15.54 18.36S18.24 17.15 18.24 15.66 17.03 12.97 15.54 12.97M15.54 7C16.28 7 16.87 7.59 16.87 8.32S16.28 9.66 15.54 9.66 14.21 9.06 14.21 8.32 14.8 7 15.54 7M7.85 4.69C7.85 3.95 8.44 3.35 9.18 3.35C9.92 3.35 10.5 3.95 10.5 4.69S9.92 6.03 9.18 6.03C8.44 6.03 7.85 5.43 7.85 4.69M10.5 19.3C10.5 20.04 9.92 20.64 9.18 20.64C8.44 20.64 7.85 20.04 7.85 19.3C7.85 18.56 8.44 17.96 9.18 17.96C9.92 17.96 10.5 18.56 10.5 19.3M9.18 13.89C8.12 13.89 7.26 13.03 7.26 11.97C7.26 10.91 8.12 10.05 9.18 10.05S11.1 10.91 11.1 11.97C11.1 13.03 10.24 13.89 9.18 13.89M15.54 17C14.8 17 14.21 16.4 14.21 15.66S14.8 14.33 15.54 14.33 16.87 14.93 16.87 15.66 16.28 17 15.54 17Z" />
    </g>
    <g id="mdi-api" transform="translate(576 324) scale(1.5)" fill="#555">
      <path d="M7 7H5A2 2 0 0 0 3 9V17H5V13H7V17H9V9A2 2 0 0 0 7 7M7 11H5V9H7M14 7H10V17H12V13H14A2 2 0 0 0 16 11V9A2 2 0 0 0 14 7M14 11H12V9H14M20 9V15H21V17H17V15H18V9H17V7H21V9Z" />
    </g>
    <g id="mdi-api" transform="translate(612 324) scale(1.5)" fill="#fff">
      <path d="M7 7H5A2 2 0 0 0 3 9V17H5V13H7V17H9V9A2 2 0 0 0 7 7M7 11H5V9H7M14 7H10V17H12V13H14A2 2 0 0 0 16 11V9A2 2 0 0 0 14 7M14 11H12V9H14M20 9V15H21V17H17V15H18V9H17V7H21V9Z" />
    </g>
    <g id="mdi-apple" transform="translate(648 324) scale(1.5)" fill="#555">
      <path d="M18.71,19.5C17.88,20.74 17,21.95 15.66,21.97C14.32,22 13.89,21.18 12.37,21.18C10.84,21.18 10.37,21.95 9.1,22C7.79,22.05 6.8,20.68 5.96,19.47C4.25,17 2.94,12.45 4.7,9.39C5.57,7.87 7.13,6.91 8.82,6.88C10.1,6.86 11.32,7.75 12.11,7.75C12.89,7.75 14.37,6.68 15.92,6.84C16.57,6.87 18.39,7.1 19.56,8.82C19.47,8.88 17.39,10.1 17.41,12.63C17.44,15.65 20.06,16.66 20.09,16.67C20.06,16.74 19.67,18.11 18.71,19.5M13,3.5C13.73,2.67 14.94,2.04 15.94,2C16.07,3.17 15.6,4.35 14.9,5.19C14.21,6.04 13.07,6.7 11.95,6.61C11.8,5.46 12.36,4.26 13,3.5Z" />
    </g>
    <g id="mdi-apple" transform="translate(684 324) scale(1.5)" fill="#fff">
      <path d="M18.71,19.5C17.88,20.74 17,21.95 15.66,21.97C14.32,22 13.89,21.18 12.37,21.18C10.84,21.18 10.37,21.95 9.1,22C7.79,22.05 6.8,20.68 5.96,19.47C4.25,17 2.94,12.45 4.7,9.39C5.57,7.87 7.13,6.91 8.82,6.88C10.1,6.86 11.32,7.75 12.11,7.75C12.89,7.75 14.37,6.68 15.92,6.84C16.57,6.87 18.39,7.1 19.56,8.82C19.47,8.88 17.39,10.1 17.41,12.63C17.44,15.65 20.06,16.66 20.09,16.67C20.06,16.74 19.67,18.11 18.71,19.5M13,3.5C13.73,2.67 14.94,2.04 15.94,2C16.07,3.17 15.6,4.35 14.9,5.19C14.21,6.04 13.07,6.7 11.95,6.61C11.8,5.46 12.36,4.26 13,3.5Z" />
    </g>
  </svg>