<?xml version="1.0" encoding="UTF-8"?>
<!DOCTYPE svg PUBLIC "-//W3C//DTD SVG 1.1//EN" "http://www.w3.org/Graphics/SVG/1.1/DTD/svg11.dtd"><svg
  xmlns="http://www.w3.org/2000/svg" xmlns:xlink="http://www.w3.org/1999/xlink" version="1.1"
  width="720" height="900" viewBox="0 0 720 900">
    <g id="mdi-content-save-cog" transform="translate(0 0) scale(1.5)" fill="#555">
      <path d="M21 11.7V7L17 3H5C3.9 3 3 3.9 3 5V19C3 20.1 3.9 21 5 21H11.7C11.4 20.3 11.2 19.6 11.1 18.8C9.9 18.4 9 17.3 9 16C9 14.3 10.3 13 12 13C12.3 13 12.6 13.1 12.9 13.2C14.2 11.8 16 11 18 11C19.1 11 20.1 11.2 21 11.7M15 9H5V5H15V9M21.7 18.6V17.6L22.8 16.8C22.9 16.7 23 16.6 22.9 16.5L21.9 14.8C21.9 14.7 21.7 14.7 21.6 14.7L20.4 15.2C20.1 15 19.8 14.8 19.5 14.7L19.3 13.4C19.3 13.3 19.2 13.2 19.1 13.2H17.1C16.9 13.2 16.8 13.3 16.8 13.4L16.6 14.7C16.3 14.9 16.1 15 15.8 15.2L14.6 14.7C14.5 14.7 14.4 14.7 14.3 14.8L13.3 16.5C13.3 16.6 13.3 16.7 13.4 16.8L14.5 17.6V18.6L13.4 19.4C13.3 19.5 13.2 19.6 13.3 19.7L14.3 21.4C14.4 21.5 14.5 21.5 14.6 21.5L15.8 21C16 21.2 16.3 21.4 16.6 21.5L16.8 22.8C16.9 22.9 17 23 17.1 23H19.1C19.2 23 19.3 22.9 19.3 22.8L19.5 21.5C19.8 21.3 20 21.2 20.3 21L21.5 21.4C21.6 21.4 21.7 21.4 21.8 21.3L22.8 19.6C22.9 19.5 22.9 19.4 22.8 19.4L21.7 18.6M18 19.5C17.2 19.5 16.5 18.8 16.5 18S17.2 16.5 18 16.5 19.5 17.2 19.5 18 18.8 19.5 18 19.5Z" />
    </g>
    <g id="mdi-content-save-cog" transform="translate(36 0) scale(1.5)" fill="#fff">
      <path d="M21 11.7V7L17 3H5C3.9 3 3 3.9 3 5V19C3 20.1 3.9 21 5 21H11.7C11.4 20.3 11.2 19.6 11.1 18.8C9.9 18.4 9 17.3 9 16C9 14.3 10.3 13 12 13C12.3 13 12.6 13.1 12.9 13.2C14.2 11.8 16 11 18 11C19.1 11 20.1 11.2 21 11.7M15 9H5V5H15V9M21.7 18.6V17.6L22.8 16.8C22.9 16.7 23 16.6 22.9 16.5L21.9 14.8C21.9 14.7 21.7 14.7 21.6 14.7L20.4 15.2C20.1 15 19.8 14.8 19.5 14.7L19.3 13.4C19.3 13.3 19.2 13.2 19.1 13.2H17.1C16.9 13.2 16.8 13.3 16.8 13.4L16.6 14.7C16.3 14.9 16.1 15 15.8 15.2L14.6 14.7C14.5 14.7 14.4 14.7 14.3 14.8L13.3 16.5C13.3 16.6 13.3 16.7 13.4 16.8L14.5 17.6V18.6L13.4 19.4C13.3 19.5 13.2 19.6 13.3 19.7L14.3 21.4C14.4 21.5 14.5 21.5 14.6 21.5L15.8 21C16 21.2 16.3 21.4 16.6 21.5L16.8 22.8C16.9 22.9 17 23 17.1 23H19.1C19.2 23 19.3 22.9 19.3 22.8L19.5 21.5C19.8 21.3 20 21.2 20.3 21L21.5 21.4C21.6 21.4 21.7 21.4 21.8 21.3L22.8 19.6C22.9 19.5 22.9 19.4 22.8 19.4L21.7 18.6M18 19.5C17.2 19.5 16.5 18.8 16.5 18S17.2 16.5 18 16.5 19.5 17.2 19.5 18 18.8 19.5 18 19.5Z" />
    </g>
    <g id="mdi-content-save-cog-outline" transform="translate(72 0) scale(1.5)" fill="#555">
      <path d="M11.1 19C11.2 19.7 11.4 20.4 11.7 21H5C3.9 21 3 20.1 3 19V5C3 3.9 3.9 3 5 3H17L21 7V11.7C20.4 11.4 19.7 11.2 19 11.1V7.8L16.2 5H5V19H11.1M12 12C10.3 12 9 13.3 9 15C9 16.3 9.8 17.4 11 17.8C11.1 15.6 12.1 13.7 13.7 12.5C13.2 12.2 12.6 12 12 12M15 10V6H6V10H15M22.8 19.6L21.8 21.3C21.7 21.4 21.6 21.4 21.5 21.4L20.3 21C20 21.2 19.8 21.3 19.5 21.5L19.3 22.8C19.3 22.9 19.2 23 19.1 23H17.1C17 23 16.9 22.9 16.8 22.8L16.6 21.5C16.3 21.4 16 21.2 15.8 21L14.6 21.5C14.5 21.5 14.4 21.5 14.3 21.4L13.3 19.7C13.2 19.6 13.3 19.5 13.4 19.4L14.5 18.6V17.6L13.4 16.8C13.3 16.7 13.3 16.6 13.3 16.5L14.3 14.8C14.4 14.7 14.5 14.7 14.6 14.7L15.8 15.2C16.1 15 16.3 14.9 16.6 14.7L16.8 13.4C16.8 13.3 16.9 13.2 17.1 13.2H19.1C19.2 13.2 19.3 13.3 19.3 13.4L19.5 14.7C19.8 14.8 20.1 15 20.4 15.2L21.6 14.7C21.7 14.7 21.9 14.7 21.9 14.8L22.9 16.5C23 16.6 22.9 16.7 22.8 16.8L21.7 17.6V18.6L22.8 19.4C22.9 19.4 22.9 19.5 22.8 19.6M19.5 18C19.5 17.2 18.8 16.5 18 16.5S16.5 17.2 16.5 18 17.2 19.5 18 19.5C18.8 19.5 19.5 18.8 19.5 18Z" />
    </g>
    <g id="mdi-content-save-cog-outline" transform="translate(108 0) scale(1.5)" fill="#fff">
      <path d="M11.1 19C11.2 19.7 11.4 20.4 11.7 21H5C3.9 21 3 20.1 3 19V5C3 3.9 3.9 3 5 3H17L21 7V11.7C20.4 11.4 19.7 11.2 19 11.1V7.8L16.2 5H5V19H11.1M12 12C10.3 12 9 13.3 9 15C9 16.3 9.8 17.4 11 17.8C11.1 15.6 12.1 13.7 13.7 12.5C13.2 12.2 12.6 12 12 12M15 10V6H6V10H15M22.8 19.6L21.8 21.3C21.7 21.4 21.6 21.4 21.5 21.4L20.3 21C20 21.2 19.8 21.3 19.5 21.5L19.3 22.8C19.3 22.9 19.2 23 19.1 23H17.1C17 23 16.9 22.9 16.8 22.8L16.6 21.5C16.3 21.4 16 21.2 15.8 21L14.6 21.5C14.5 21.5 14.4 21.5 14.3 21.4L13.3 19.7C13.2 19.6 13.3 19.5 13.4 19.4L14.5 18.6V17.6L13.4 16.8C13.3 16.7 13.3 16.6 13.3 16.5L14.3 14.8C14.4 14.7 14.5 14.7 14.6 14.7L15.8 15.2C16.1 15 16.3 14.9 16.6 14.7L16.8 13.4C16.8 13.3 16.9 13.2 17.1 13.2H19.1C19.2 13.2 19.3 13.3 19.3 13.4L19.5 14.7C19.8 14.8 20.1 15 20.4 15.2L21.6 14.7C21.7 14.7 21.9 14.7 21.9 14.8L22.9 16.5C23 16.6 22.9 16.7 22.8 16.8L21.7 17.6V18.6L22.8 19.4C22.9 19.4 22.9 19.5 22.8 19.6M19.5 18C19.5 17.2 18.8 16.5 18 16.5S16.5 17.2 16.5 18 17.2 19.5 18 19.5C18.8 19.5 19.5 18.8 19.5 18Z" />
    </g>
    <g id="mdi-content-save-edit" transform="translate(144 0) scale(1.5)" fill="#555">
      <path d="M10,19L10.14,18.86C8.9,18.5 8,17.36 8,16A3,3 0 0,1 11,13C12.36,13 13.5,13.9 13.86,15.14L20,9V7L16,3H4C2.89,3 2,3.9 2,5V19A2,2 0 0,0 4,21H10V19M4,5H14V9H4V5M20.04,12.13C19.9,12.13 19.76,12.19 19.65,12.3L18.65,13.3L20.7,15.35L21.7,14.35C21.92,14.14 21.92,13.79 21.7,13.58L20.42,12.3C20.31,12.19 20.18,12.13 20.04,12.13M18.07,13.88L12,19.94V22H14.06L20.12,15.93L18.07,13.88Z" />
    </g>
    <g id="mdi-content-save-edit" transform="translate(180 0) scale(1.5)" fill="#fff">
      <path d="M10,19L10.14,18.86C8.9,18.5 8,17.36 8,16A3,3 0 0,1 11,13C12.36,13 13.5,13.9 13.86,15.14L20,9V7L16,3H4C2.89,3 2,3.9 2,5V19A2,2 0 0,0 4,21H10V19M4,5H14V9H4V5M20.04,12.13C19.9,12.13 19.76,12.19 19.65,12.3L18.65,13.3L20.7,15.35L21.7,14.35C21.92,14.14 21.92,13.79 21.7,13.58L20.42,12.3C20.31,12.19 20.18,12.13 20.04,12.13M18.07,13.88L12,19.94V22H14.06L20.12,15.93L18.07,13.88Z" />
    </g>
    <g id="mdi-content-save-edit-outline" transform="translate(216 0) scale(1.5)" fill="#555">
      <path d="M4 19H10V21H4C2.89 21 2 20.1 2 19V5C2 3.9 2.89 3 4 3H16L20 7V9.12L18 11.12V7.83L15.17 5H4V19M14 10V6H5V10H14M20.42 12.3C20.31 12.19 20.18 12.13 20.04 12.13C19.9 12.13 19.76 12.19 19.65 12.3L18.65 13.3L20.7 15.35L21.7 14.35C21.92 14.14 21.92 13.79 21.7 13.58L20.42 12.3M12 19.94V22H14.06L20.12 15.93L18.07 13.88L12 19.94M14 15C14 13.34 12.66 12 11 12S8 13.34 8 15 9.34 18 11 18C11.04 18 11.08 18 11.13 18L14 15.13C14 15.09 14 15.05 14 15" />
    </g>
    <g id="mdi-content-save-edit-outline" transform="translate(252 0) scale(1.5)" fill="#fff">
      <path d="M4 19H10V21H4C2.89 21 2 20.1 2 19V5C2 3.9 2.89 3 4 3H16L20 7V9.12L18 11.12V7.83L15.17 5H4V19M14 10V6H5V10H14M20.42 12.3C20.31 12.19 20.18 12.13 20.04 12.13C19.9 12.13 19.76 12.19 19.65 12.3L18.65 13.3L20.7 15.35L21.7 14.35C21.92 14.14 21.92 13.79 21.7 13.58L20.42 12.3M12 19.94V22H14.06L20.12 15.93L18.07 13.88L12 19.94M14 15C14 13.34 12.66 12 11 12S8 13.34 8 15 9.34 18 11 18C11.04 18 11.08 18 11.13 18L14 15.13C14 15.09 14 15.05 14 15" />
    </g>
    <g id="mdi-content-save-move" transform="translate(288 0) scale(1.5)" fill="#555">
      <path d="M17,3H5A2,2 0 0,0 3,5V19A2,2 0 0,0 5,21H11.81C11.42,20.34 11.17,19.6 11.07,18.84C9.5,18.31 8.66,16.6 9.2,15.03C9.61,13.83 10.73,13 12,13C12.44,13 12.88,13.1 13.28,13.29C15.57,11.5 18.83,11.59 21,13.54V7L17,3M15,9H5V5H15V9M13,17H17V14L22,18.5L17,23V20H13V17" />
    </g>
    <g id="mdi-content-save-move" transform="translate(324 0) scale(1.5)" fill="#fff">
      <path d="M17,3H5A2,2 0 0,0 3,5V19A2,2 0 0,0 5,21H11.81C11.42,20.34 11.17,19.6 11.07,18.84C9.5,18.31 8.66,16.6 9.2,15.03C9.61,13.83 10.73,13 12,13C12.44,13 12.88,13.1 13.28,13.29C15.57,11.5 18.83,11.59 21,13.54V7L17,3M15,9H5V5H15V9M13,17H17V14L22,18.5L17,23V20H13V17" />
    </g>
    <g id="mdi-content-save-move-outline" transform="translate(360 0) scale(1.5)" fill="#555">
      <path d="M13 17H17V14L22 18.5L17 23V20H13V17M14 12.8C13.5 12.31 12.78 12 12 12C10.34 12 9 13.34 9 15C9 16.31 9.84 17.41 11 17.82C11.07 15.67 12.27 13.8 14 12.8M11.09 19H5V5H16.17L19 7.83V12.35C19.75 12.61 20.42 13 21 13.54V7L17 3H5C3.89 3 3 3.9 3 5V19C3 20.1 3.89 21 5 21H11.81C11.46 20.39 11.21 19.72 11.09 19M6 10H15V6H6V10Z" />
    </g>
    <g id="mdi-content-save-move-outline" transform="translate(396 0) scale(1.5)" fill="#fff">
      <path d="M13 17H17V14L22 18.5L17 23V20H13V17M14 12.8C13.5 12.31 12.78 12 12 12C10.34 12 9 13.34 9 15C9 16.31 9.84 17.41 11 17.82C11.07 15.67 12.27 13.8 14 12.8M11.09 19H5V5H16.17L19 7.83V12.35C19.75 12.61 20.42 13 21 13.54V7L17 3H5C3.89 3 3 3.9 3 5V19C3 20.1 3.89 21 5 21H11.81C11.46 20.39 11.21 19.72 11.09 19M6 10H15V6H6V10Z" />
    </g>
    <g id="mdi-content-save-outline" transform="translate(432 0) scale(1.5)" fill="#555">
      <path d="M17 3H5C3.89 3 3 3.9 3 5V19C3 20.1 3.89 21 5 21H19C20.1 21 21 20.1 21 19V7L17 3M19 19H5V5H16.17L19 7.83V19M12 12C10.34 12 9 13.34 9 15S10.34 18 12 18 15 16.66 15 15 13.66 12 12 12M6 6H15V10H6V6Z" />
    </g>
    <g id="mdi-content-save-outline" transform="translate(468 0) scale(1.5)" fill="#fff">
      <path d="M17 3H5C3.89 3 3 3.9 3 5V19C3 20.1 3.89 21 5 21H19C20.1 21 21 20.1 21 19V7L17 3M19 19H5V5H16.17L19 7.83V19M12 12C10.34 12 9 13.34 9 15S10.34 18 12 18 15 16.66 15 15 13.66 12 12 12M6 6H15V10H6V6Z" />
    </g>
    <g id="mdi-content-save-settings" transform="translate(504 0) scale(1.5)" fill="#555">
      <path d="M15,8V4H5V8H15M12,18A3,3 0 0,0 15,15A3,3 0 0,0 12,12A3,3 0 0,0 9,15A3,3 0 0,0 12,18M17,2L21,6V18A2,2 0 0,1 19,20H5C3.89,20 3,19.1 3,18V4A2,2 0 0,1 5,2H17M11,22H13V24H11V22M7,22H9V24H7V22M15,22H17V24H15V22Z" />
    </g>
    <g id="mdi-content-save-settings" transform="translate(540 0) scale(1.5)" fill="#fff">
      <path d="M15,8V4H5V8H15M12,18A3,3 0 0,0 15,15A3,3 0 0,0 12,12A3,3 0 0,0 9,15A3,3 0 0,0 12,18M17,2L21,6V18A2,2 0 0,1 19,20H5C3.89,20 3,19.1 3,18V4A2,2 0 0,1 5,2H17M11,22H13V24H11V22M7,22H9V24H7V22M15,22H17V24H15V22Z" />
    </g>
    <g id="mdi-content-save-settings-outline" transform="translate(576 0) scale(1.5)" fill="#555">
      <path d="M7 22H9V24H7V22M11 22H13V24H11V22M15 22H17V24H15V22M17 2H5C3.89 2 3 2.9 3 4V18C3 19.1 3.89 20 5 20H19C20.1 20 21 19.1 21 18V6L17 2M19 18H5V4H16.17L19 6.83V18M12 11C10.34 11 9 12.34 9 14S10.34 17 12 17 15 15.66 15 14 13.66 11 12 11M6 5H15V9H6V5Z" />
    </g>
    <g id="mdi-content-save-settings-outline" transform="translate(612 0) scale(1.5)" fill="#fff">
      <path d="M7 22H9V24H7V22M11 22H13V24H11V22M15 22H17V24H15V22M17 2H5C3.89 2 3 2.9 3 4V18C3 19.1 3.89 20 5 20H19C20.1 20 21 19.1 21 18V6L17 2M19 18H5V4H16.17L19 6.83V18M12 11C10.34 11 9 12.34 9 14S10.34 17 12 17 15 15.66 15 14 13.66 11 12 11M6 5H15V9H6V5Z" />
    </g>
    <g id="mdi-contrast" transform="translate(648 0) scale(1.5)" fill="#555">
      <path d="M4.38,20.9C3.78,20.71 3.3,20.23 3.1,19.63L19.63,3.1C20.23,3.3 20.71,3.78 20.9,4.38L4.38,20.9M20,16V18H13V16H20M3,6H6V3H8V6H11V8H8V11H6V8H3V6Z" />
    </g>
    <g id="mdi-contrast" transform="translate(684 0) scale(1.5)" fill="#fff">
      <path d="M4.38,20.9C3.78,20.71 3.3,20.23 3.1,19.63L19.63,3.1C20.23,3.3 20.71,3.78 20.9,4.38L4.38,20.9M20,16V18H13V16H20M3,6H6V3H8V6H11V8H8V11H6V8H3V6Z" />
    </g>
    <g id="mdi-contrast-box" transform="translate(0 36) scale(1.5)" fill="#555">
      <path d="M17,15.5H12V17H17M19,19H5L19,5M5.5,7.5H7.5V5.5H9V7.5H11V9H9V11H7.5V9H5.5M19,3H5C3.89,3 3,3.89 3,5V19A2,2 0 0,0 5,21H19A2,2 0 0,0 21,19V5C21,3.89 20.1,3 19,3Z" />
    </g>
    <g id="mdi-contrast-box" transform="translate(36 36) scale(1.5)" fill="#fff">
      <path d="M17,15.5H12V17H17M19,19H5L19,5M5.5,7.5H7.5V5.5H9V7.5H11V9H9V11H7.5V9H5.5M19,3H5C3.89,3 3,3.89 3,5V19A2,2 0 0,0 5,21H19A2,2 0 0,0 21,19V5C21,3.89 20.1,3 19,3Z" />
    </g>
    <g id="mdi-contrast-circle" transform="translate(72 36) scale(1.5)" fill="#555">
      <path d="M12,20C9.79,20 7.79,19.1 6.34,17.66L17.66,6.34C19.1,7.79 20,9.79 20,12A8,8 0 0,1 12,20M6,8H8V6H9.5V8H11.5V9.5H9.5V11.5H8V9.5H6M12,2A10,10 0 0,0 2,12A10,10 0 0,0 12,22A10,10 0 0,0 22,12A10,10 0 0,0 12,2M12,16H17V14.5H12V16Z" />
    </g>
    <g id="mdi-contrast-circle" transform="translate(108 36) scale(1.5)" fill="#fff">
      <path d="M12,20C9.79,20 7.79,19.1 6.34,17.66L17.66,6.34C19.1,7.79 20,9.79 20,12A8,8 0 0,1 12,20M6,8H8V6H9.5V8H11.5V9.5H9.5V11.5H8V9.5H6M12,2A10,10 0 0,0 2,12A10,10 0 0,0 12,22A10,10 0 0,0 22,12A10,10 0 0,0 12,2M12,16H17V14.5H12V16Z" />
    </g>
    <g id="mdi-controller-classic" transform="translate(144 36) scale(1.5)" fill="#555">
      <path d="M6,7H18A5,5 0 0,1 23,12A5,5 0 0,1 18,17C16.36,17 14.91,16.21 14,15H10C9.09,16.21 7.64,17 6,17A5,5 0 0,1 1,12A5,5 0 0,1 6,7M19.75,9.5A1.25,1.25 0 0,0 18.5,10.75A1.25,1.25 0 0,0 19.75,12A1.25,1.25 0 0,0 21,10.75A1.25,1.25 0 0,0 19.75,9.5M17.25,12A1.25,1.25 0 0,0 16,13.25A1.25,1.25 0 0,0 17.25,14.5A1.25,1.25 0 0,0 18.5,13.25A1.25,1.25 0 0,0 17.25,12M5,9V11H3V13H5V15H7V13H9V11H7V9H5Z" />
    </g>
    <g id="mdi-controller-classic" transform="translate(180 36) scale(1.5)" fill="#fff">
      <path d="M6,7H18A5,5 0 0,1 23,12A5,5 0 0,1 18,17C16.36,17 14.91,16.21 14,15H10C9.09,16.21 7.64,17 6,17A5,5 0 0,1 1,12A5,5 0 0,1 6,7M19.75,9.5A1.25,1.25 0 0,0 18.5,10.75A1.25,1.25 0 0,0 19.75,12A1.25,1.25 0 0,0 21,10.75A1.25,1.25 0 0,0 19.75,9.5M17.25,12A1.25,1.25 0 0,0 16,13.25A1.25,1.25 0 0,0 17.25,14.5A1.25,1.25 0 0,0 18.5,13.25A1.25,1.25 0 0,0 17.25,12M5,9V11H3V13H5V15H7V13H9V11H7V9H5Z" />
    </g>
    <g id="mdi-controller-classic-outline" transform="translate(216 36) scale(1.5)" fill="#555">
      <path d="M17.5,7A5.5,5.5 0 0,1 23,12.5A5.5,5.5 0 0,1 17.5,18C15.79,18 14.27,17.22 13.26,16H10.74C9.73,17.22 8.21,18 6.5,18A5.5,5.5 0 0,1 1,12.5A5.5,5.5 0 0,1 6.5,7H17.5M6.5,9A3.5,3.5 0 0,0 3,12.5A3.5,3.5 0 0,0 6.5,16C7.9,16 9.1,15.18 9.66,14H14.34C14.9,15.18 16.1,16 17.5,16A3.5,3.5 0 0,0 21,12.5A3.5,3.5 0 0,0 17.5,9H6.5M5.75,10.25H7.25V11.75H8.75V13.25H7.25V14.75H5.75V13.25H4.25V11.75H5.75V10.25M16.75,12.5A1,1 0 0,1 17.75,13.5A1,1 0 0,1 16.75,14.5A1,1 0 0,1 15.75,13.5A1,1 0 0,1 16.75,12.5M18.75,10.5A1,1 0 0,1 19.75,11.5A1,1 0 0,1 18.75,12.5A1,1 0 0,1 17.75,11.5A1,1 0 0,1 18.75,10.5Z" />
    </g>
    <g id="mdi-controller-classic-outline" transform="translate(252 36) scale(1.5)" fill="#fff">
      <path d="M17.5,7A5.5,5.5 0 0,1 23,12.5A5.5,5.5 0 0,1 17.5,18C15.79,18 14.27,17.22 13.26,16H10.74C9.73,17.22 8.21,18 6.5,18A5.5,5.5 0 0,1 1,12.5A5.5,5.5 0 0,1 6.5,7H17.5M6.5,9A3.5,3.5 0 0,0 3,12.5A3.5,3.5 0 0,0 6.5,16C7.9,16 9.1,15.18 9.66,14H14.34C14.9,15.18 16.1,16 17.5,16A3.5,3.5 0 0,0 21,12.5A3.5,3.5 0 0,0 17.5,9H6.5M5.75,10.25H7.25V11.75H8.75V13.25H7.25V14.75H5.75V13.25H4.25V11.75H5.75V10.25M16.75,12.5A1,1 0 0,1 17.75,13.5A1,1 0 0,1 16.75,14.5A1,1 0 0,1 15.75,13.5A1,1 0 0,1 16.75,12.5M18.75,10.5A1,1 0 0,1 19.75,11.5A1,1 0 0,1 18.75,12.5A1,1 0 0,1 17.75,11.5A1,1 0 0,1 18.75,10.5Z" />
    </g>
    <g id="mdi-cookie" transform="translate(288 36) scale(1.5)" fill="#555">
      <path d="M12,3A9,9 0 0,0 3,12A9,9 0 0,0 12,21A9,9 0 0,0 21,12C21,11.5 20.96,11 20.87,10.5C20.6,10 20,10 20,10H18V9C18,8 17,8 17,8H15V7C15,6 14,6 14,6H13V4C13,3 12,3 12,3M9.5,6A1.5,1.5 0 0,1 11,7.5A1.5,1.5 0 0,1 9.5,9A1.5,1.5 0 0,1 8,7.5A1.5,1.5 0 0,1 9.5,6M6.5,10A1.5,1.5 0 0,1 8,11.5A1.5,1.5 0 0,1 6.5,13A1.5,1.5 0 0,1 5,11.5A1.5,1.5 0 0,1 6.5,10M11.5,11A1.5,1.5 0 0,1 13,12.5A1.5,1.5 0 0,1 11.5,14A1.5,1.5 0 0,1 10,12.5A1.5,1.5 0 0,1 11.5,11M16.5,13A1.5,1.5 0 0,1 18,14.5A1.5,1.5 0 0,1 16.5,16H16.5A1.5,1.5 0 0,1 15,14.5H15A1.5,1.5 0 0,1 16.5,13M11,16A1.5,1.5 0 0,1 12.5,17.5A1.5,1.5 0 0,1 11,19A1.5,1.5 0 0,1 9.5,17.5A1.5,1.5 0 0,1 11,16Z" />
    </g>
    <g id="mdi-cookie" transform="translate(324 36) scale(1.5)" fill="#fff">
      <path d="M12,3A9,9 0 0,0 3,12A9,9 0 0,0 12,21A9,9 0 0,0 21,12C21,11.5 20.96,11 20.87,10.5C20.6,10 20,10 20,10H18V9C18,8 17,8 17,8H15V7C15,6 14,6 14,6H13V4C13,3 12,3 12,3M9.5,6A1.5,1.5 0 0,1 11,7.5A1.5,1.5 0 0,1 9.5,9A1.5,1.5 0 0,1 8,7.5A1.5,1.5 0 0,1 9.5,6M6.5,10A1.5,1.5 0 0,1 8,11.5A1.5,1.5 0 0,1 6.5,13A1.5,1.5 0 0,1 5,11.5A1.5,1.5 0 0,1 6.5,10M11.5,11A1.5,1.5 0 0,1 13,12.5A1.5,1.5 0 0,1 11.5,14A1.5,1.5 0 0,1 10,12.5A1.5,1.5 0 0,1 11.5,11M16.5,13A1.5,1.5 0 0,1 18,14.5A1.5,1.5 0 0,1 16.5,16H16.5A1.5,1.5 0 0,1 15,14.5H15A1.5,1.5 0 0,1 16.5,13M11,16A1.5,1.5 0 0,1 12.5,17.5A1.5,1.5 0 0,1 11,19A1.5,1.5 0 0,1 9.5,17.5A1.5,1.5 0 0,1 11,16Z" />
    </g>
    <g id="mdi-coolant-temperature" transform="translate(360 36) scale(1.5)" fill="#555">
      <path d="M11.5,1A1.5,1.5 0 0,0 10,2.5V14.5C9.37,14.97 9,15.71 9,16.5A2.5,2.5 0 0,0 11.5,19A2.5,2.5 0 0,0 14,16.5C14,15.71 13.63,15 13,14.5V13H17V11H13V9H17V7H13V5H17V3H13V2.5A1.5,1.5 0 0,0 11.5,1M0,15V17C0.67,17 0.79,17.21 1.29,17.71C1.79,18.21 2.67,19 4,19C5.33,19 6.21,18.21 6.71,17.71C6.82,17.59 6.91,17.5 7,17.41V15.16C6.21,15.42 5.65,15.93 5.29,16.29C4.79,16.79 4.67,17 4,17C3.33,17 3.21,16.79 2.71,16.29C2.21,15.79 1.33,15 0,15M16,15V17C16.67,17 16.79,17.21 17.29,17.71C17.79,18.21 18.67,19 20,19C21.33,19 22.21,18.21 22.71,17.71C23.21,17.21 23.33,17 24,17V15C22.67,15 21.79,15.79 21.29,16.29C20.79,16.79 20.67,17 20,17C19.33,17 19.21,16.79 18.71,16.29C18.21,15.79 17.33,15 16,15M8,20C6.67,20 5.79,20.79 5.29,21.29C4.79,21.79 4.67,22 4,22C3.33,22 3.21,21.79 2.71,21.29C2.35,20.93 1.79,20.42 1,20.16V22.41C1.09,22.5 1.18,22.59 1.29,22.71C1.79,23.21 2.67,24 4,24C5.33,24 6.21,23.21 6.71,22.71C7.21,22.21 7.33,22 8,22C8.67,22 8.79,22.21 9.29,22.71C9.73,23.14 10.44,23.8 11.5,23.96C11.66,24 11.83,24 12,24C13.33,24 14.21,23.21 14.71,22.71C15.21,22.21 15.33,22 16,22C16.67,22 16.79,22.21 17.29,22.71C17.79,23.21 18.67,24 20,24C21.33,24 22.21,23.21 22.71,22.71C22.82,22.59 22.91,22.5 23,22.41V20.16C22.21,20.42 21.65,20.93 21.29,21.29C20.79,21.79 20.67,22 20,22C19.33,22 19.21,21.79 18.71,21.29C18.21,20.79 17.33,20 16,20C14.67,20 13.79,20.79 13.29,21.29C12.79,21.79 12.67,22 12,22C11.78,22 11.63,21.97 11.5,21.92C11.22,21.82 11.05,21.63 10.71,21.29C10.21,20.79 9.33,20 8,20Z" />
    </g>
    <g id="mdi-coolant-temperature" transform="translate(396 36) scale(1.5)" fill="#fff">
      <path d="M11.5,1A1.5,1.5 0 0,0 10,2.5V14.5C9.37,14.97 9,15.71 9,16.5A2.5,2.5 0 0,0 11.5,19A2.5,2.5 0 0,0 14,16.5C14,15.71 13.63,15 13,14.5V13H17V11H13V9H17V7H13V5H17V3H13V2.5A1.5,1.5 0 0,0 11.5,1M0,15V17C0.67,17 0.79,17.21 1.29,17.71C1.79,18.21 2.67,19 4,19C5.33,19 6.21,18.21 6.71,17.71C6.82,17.59 6.91,17.5 7,17.41V15.16C6.21,15.42 5.65,15.93 5.29,16.29C4.79,16.79 4.67,17 4,17C3.33,17 3.21,16.79 2.71,16.29C2.21,15.79 1.33,15 0,15M16,15V17C16.67,17 16.79,17.21 17.29,17.71C17.79,18.21 18.67,19 20,19C21.33,19 22.21,18.21 22.71,17.71C23.21,17.21 23.33,17 24,17V15C22.67,15 21.79,15.79 21.29,16.29C20.79,16.79 20.67,17 20,17C19.33,17 19.21,16.79 18.71,16.29C18.21,15.79 17.33,15 16,15M8,20C6.67,20 5.79,20.79 5.29,21.29C4.79,21.79 4.67,22 4,22C3.33,22 3.21,21.79 2.71,21.29C2.35,20.93 1.79,20.42 1,20.16V22.41C1.09,22.5 1.18,22.59 1.29,22.71C1.79,23.21 2.67,24 4,24C5.33,24 6.21,23.21 6.71,22.71C7.21,22.21 7.33,22 8,22C8.67,22 8.79,22.21 9.29,22.71C9.73,23.14 10.44,23.8 11.5,23.96C11.66,24 11.83,24 12,24C13.33,24 14.21,23.21 14.71,22.71C15.21,22.21 15.33,22 16,22C16.67,22 16.79,22.21 17.29,22.71C17.79,23.21 18.67,24 20,24C21.33,24 22.21,23.21 22.71,22.71C22.82,22.59 22.91,22.5 23,22.41V20.16C22.21,20.42 21.65,20.93 21.29,21.29C20.79,21.79 20.67,22 20,22C19.33,22 19.21,21.79 18.71,21.29C18.21,20.79 17.33,20 16,20C14.67,20 13.79,20.79 13.29,21.29C12.79,21.79 12.67,22 12,22C11.78,22 11.63,21.97 11.5,21.92C11.22,21.82 11.05,21.63 10.71,21.29C10.21,20.79 9.33,20 8,20Z" />
    </g>
    <g id="mdi-copyright" transform="translate(432 36) scale(1.5)" fill="#555">
      <path d="M10.08,10.86C10.13,10.53 10.24,10.24 10.38,10C10.5,9.74 10.72,9.53 10.97,9.37C11.21,9.22 11.5,9.15 11.88,9.14C12.11,9.15 12.32,9.19 12.5,9.27C12.71,9.36 12.89,9.5 13.03,9.63C13.17,9.78 13.28,9.96 13.37,10.16C13.46,10.36 13.5,10.58 13.5,10.8H15.3C15.28,10.33 15.19,9.9 15,9.5C14.85,9.12 14.62,8.78 14.32,8.5C14,8.22 13.66,8 13.24,7.84C12.82,7.68 12.36,7.61 11.85,7.61C11.2,7.61 10.63,7.72 10.15,7.95C9.67,8.18 9.27,8.5 8.95,8.87C8.63,9.26 8.39,9.71 8.24,10.23C8.09,10.75 8,11.29 8,11.87V12.14C8,12.72 8.08,13.26 8.23,13.78C8.38,14.3 8.62,14.75 8.94,15.13C9.26,15.5 9.66,15.82 10.14,16.04C10.62,16.26 11.19,16.38 11.84,16.38C12.31,16.38 12.75,16.3 13.16,16.15C13.57,16 13.93,15.79 14.24,15.5C14.55,15.25 14.8,14.94 15,14.58C15.16,14.22 15.27,13.84 15.28,13.43H13.5C13.5,13.64 13.43,13.83 13.34,14C13.25,14.19 13.13,14.34 13,14.47C12.83,14.6 12.66,14.7 12.46,14.77C12.27,14.84 12.07,14.86 11.86,14.87C11.5,14.86 11.2,14.79 10.97,14.64C10.72,14.5 10.5,14.27 10.38,14C10.24,13.77 10.13,13.47 10.08,13.14C10.03,12.81 10,12.47 10,12.14V11.87C10,11.5 10.03,11.19 10.08,10.86M12,2A10,10 0 0,0 2,12A10,10 0 0,0 12,22A10,10 0 0,0 22,12A10,10 0 0,0 12,2M12,20C7.59,20 4,16.41 4,12C4,7.59 7.59,4 12,4C16.41,4 20,7.59 20,12C20,16.41 16.41,20 12,20Z" />
    </g>
    <g id="mdi-copyright" transform="translate(468 36) scale(1.5)" fill="#fff">
      <path d="M10.08,10.86C10.13,10.53 10.24,10.24 10.38,10C10.5,9.74 10.72,9.53 10.97,9.37C11.21,9.22 11.5,9.15 11.88,9.14C12.11,9.15 12.32,9.19 12.5,9.27C12.71,9.36 12.89,9.5 13.03,9.63C13.17,9.78 13.28,9.96 13.37,10.16C13.46,10.36 13.5,10.58 13.5,10.8H15.3C15.28,10.33 15.19,9.9 15,9.5C14.85,9.12 14.62,8.78 14.32,8.5C14,8.22 13.66,8 13.24,7.84C12.82,7.68 12.36,7.61 11.85,7.61C11.2,7.61 10.63,7.72 10.15,7.95C9.67,8.18 9.27,8.5 8.95,8.87C8.63,9.26 8.39,9.71 8.24,10.23C8.09,10.75 8,11.29 8,11.87V12.14C8,12.72 8.08,13.26 8.23,13.78C8.38,14.3 8.62,14.75 8.94,15.13C9.26,15.5 9.66,15.82 10.14,16.04C10.62,16.26 11.19,16.38 11.84,16.38C12.31,16.38 12.75,16.3 13.16,16.15C13.57,16 13.93,15.79 14.24,15.5C14.55,15.25 14.8,14.94 15,14.58C15.16,14.22 15.27,13.84 15.28,13.43H13.5C13.5,13.64 13.43,13.83 13.34,14C13.25,14.19 13.13,14.34 13,14.47C12.83,14.6 12.66,14.7 12.46,14.77C12.27,14.84 12.07,14.86 11.86,14.87C11.5,14.86 11.2,14.79 10.97,14.64C10.72,14.5 10.5,14.27 10.38,14C10.24,13.77 10.13,13.47 10.08,13.14C10.03,12.81 10,12.47 10,12.14V11.87C10,11.5 10.03,11.19 10.08,10.86M12,2A10,10 0 0,0 2,12A10,10 0 0,0 12,22A10,10 0 0,0 22,12A10,10 0 0,0 12,2M12,20C7.59,20 4,16.41 4,12C4,7.59 7.59,4 12,4C16.41,4 20,7.59 20,12C20,16.41 16.41,20 12,20Z" />
    </g>
    <g id="mdi-cordova" transform="translate(504 36) scale(1.5)" fill="#555">
      <path d="M20.18,21.55H16.94L17.17,18.82H15.58L15.35,21.55H8.65L8.42,18.82H6.83L7.06,21.55H3.82L2,9.73L6.55,2.45H17.45L22,9.73L20.18,21.55M16.55,6.09H13.62L13.82,7.45H10.18L10.38,6.09H7.45L5.64,9.73L6.55,17H17.45L18.36,9.73L16.55,6.09M14.95,14.59C14.7,14.59 14.5,13.83 14.5,12.9C14.5,11.96 14.7,11.2 14.95,11.2C15.21,11.2 15.41,11.96 15.41,12.9C15.41,13.83 15.21,14.59 14.95,14.59M9.22,14.73C8.96,14.73 8.76,13.97 8.76,13.04C8.76,12.1 8.96,11.35 9.22,11.35C9.47,11.35 9.67,12.1 9.67,13.04C9.67,13.97 9.47,14.73 9.22,14.73Z" />
    </g>
    <g id="mdi-cordova" transform="translate(540 36) scale(1.5)" fill="#fff">
      <path d="M20.18,21.55H16.94L17.17,18.82H15.58L15.35,21.55H8.65L8.42,18.82H6.83L7.06,21.55H3.82L2,9.73L6.55,2.45H17.45L22,9.73L20.18,21.55M16.55,6.09H13.62L13.82,7.45H10.18L10.38,6.09H7.45L5.64,9.73L6.55,17H17.45L18.36,9.73L16.55,6.09M14.95,14.59C14.7,14.59 14.5,13.83 14.5,12.9C14.5,11.96 14.7,11.2 14.95,11.2C15.21,11.2 15.41,11.96 15.41,12.9C15.41,13.83 15.21,14.59 14.95,14.59M9.22,14.73C8.96,14.73 8.76,13.97 8.76,13.04C8.76,12.1 8.96,11.35 9.22,11.35C9.47,11.35 9.67,12.1 9.67,13.04C9.67,13.97 9.47,14.73 9.22,14.73Z" />
    </g>
    <g id="mdi-corn" transform="translate(576 36) scale(1.5)" fill="#555">
      <path d="M11,12H8.82C9.62,12.5 10.35,13.07 11,13.68V12M7,11C7.27,5.88 9.37,2 12,2C14.66,2 16.77,5.94 17,11.12C18.5,10.43 20.17,10 22,10C16.25,12.57 18.25,22 12,22C6,22 7.93,12.57 2,10C3.82,10 5.5,10.4 7,11M11,11V9H8.24L8.03,11H11M11,8V6H9.05C8.8,6.6 8.6,7.27 8.43,8H11M11,5V3.3C10.45,3.63 9.95,4.22 9.5,5H11M12,3V5H13V6H12V8H14V9H12V11H15V12H12V14H14V15H12.23C13.42,16.45 14.15,18 14.32,19.23C15.31,17.56 15.96,14.84 16,11.76C15.94,7 14.13,3 12,3Z" />
    </g>
    <g id="mdi-corn" transform="translate(612 36) scale(1.5)" fill="#fff">
      <path d="M11,12H8.82C9.62,12.5 10.35,13.07 11,13.68V12M7,11C7.27,5.88 9.37,2 12,2C14.66,2 16.77,5.94 17,11.12C18.5,10.43 20.17,10 22,10C16.25,12.57 18.25,22 12,22C6,22 7.93,12.57 2,10C3.82,10 5.5,10.4 7,11M11,11V9H8.24L8.03,11H11M11,8V6H9.05C8.8,6.6 8.6,7.27 8.43,8H11M11,5V3.3C10.45,3.63 9.95,4.22 9.5,5H11M12,3V5H13V6H12V8H14V9H12V11H15V12H12V14H14V15H12.23C13.42,16.45 14.15,18 14.32,19.23C15.31,17.56 15.96,14.84 16,11.76C15.94,7 14.13,3 12,3Z" />
    </g>
    <g id="mdi-corn-off" transform="translate(648 36) scale(1.5)" fill="#555">
      <path d="M22.1 21.5L2.4 1.7L1.1 3L7.2 9.1C7.1 9.7 7 10.3 7 11C5.5 10.4 3.8 10 2 10C7.9 12.6 6 22 12 22C14.5 22 15.7 20.5 16.6 18.5L20.9 22.8L22.1 21.5M8.1 10L9.1 11H8L8.1 10M8.8 12H10.1L11 12.9V13.7C10.3 13.1 9.6 12.5 8.8 12M14.3 19.2C14.1 18 13.4 16.4 12.2 15H13.1L15.2 17.1C15 17.9 14.7 18.6 14.3 19.2M11 6V7.8L12.2 9H14V8H12V6H13V5H12V3C14.1 3 15.9 7 16 11.8V12.8L18 14.8C18.8 12.8 19.9 10.9 22 10C20.2 10 18.5 10.4 17 11.1C16.8 5.9 14.7 2 12 2C10.5 2 9.2 3.2 8.3 5.1L9.2 6H11M11 3.3V5H9.5C10 4.2 10.5 3.6 11 3.3M15 11.8L14.2 11H15V11.8Z" />
    </g>
    <g id="mdi-corn-off" transform="translate(684 36) scale(1.5)" fill="#fff">
      <path d="M22.1 21.5L2.4 1.7L1.1 3L7.2 9.1C7.1 9.7 7 10.3 7 11C5.5 10.4 3.8 10 2 10C7.9 12.6 6 22 12 22C14.5 22 15.7 20.5 16.6 18.5L20.9 22.8L22.1 21.5M8.1 10L9.1 11H8L8.1 10M8.8 12H10.1L11 12.9V13.7C10.3 13.1 9.6 12.5 8.8 12M14.3 19.2C14.1 18 13.4 16.4 12.2 15H13.1L15.2 17.1C15 17.9 14.7 18.6 14.3 19.2M11 6V7.8L12.2 9H14V8H12V6H13V5H12V3C14.1 3 15.9 7 16 11.8V12.8L18 14.8C18.8 12.8 19.9 10.9 22 10C20.2 10 18.5 10.4 17 11.1C16.8 5.9 14.7 2 12 2C10.5 2 9.2 3.2 8.3 5.1L9.2 6H11M11 3.3V5H9.5C10 4.2 10.5 3.6 11 3.3M15 11.8L14.2 11H15V11.8Z" />
    </g>
    <g id="mdi-cosine-wave" transform="translate(0 72) scale(1.5)" fill="#555">
      <path d="M22 2V4C20.26 4 19 8.58 17.96 12.27C16.57 17.27 15.26 22 12 22C8.74 22 7.43 17.27 6.04 12.27C5 8.58 3.74 4 2 4V2C5.26 2 6.57 6.73 7.96 11.73C9 15.42 10.26 20 12 20C13.74 20 15 15.42 16.04 11.73C17.43 6.73 18.74 2 22 2Z" />
    </g>
    <g id="mdi-cosine-wave" transform="translate(36 72) scale(1.5)" fill="#fff">
      <path d="M22 2V4C20.26 4 19 8.58 17.96 12.27C16.57 17.27 15.26 22 12 22C8.74 22 7.43 17.27 6.04 12.27C5 8.58 3.74 4 2 4V2C5.26 2 6.57 6.73 7.96 11.73C9 15.42 10.26 20 12 20C13.74 20 15 15.42 16.04 11.73C17.43 6.73 18.74 2 22 2Z" />
    </g>
    <g id="mdi-counter" transform="translate(72 72) scale(1.5)" fill="#555">
      <path d="M4,4H20A2,2 0 0,1 22,6V18A2,2 0 0,1 20,20H4A2,2 0 0,1 2,18V6A2,2 0 0,1 4,4M4,6V18H11V6H4M20,18V6H18.76C19,6.54 18.95,7.07 18.95,7.13C18.88,7.8 18.41,8.5 18.24,8.75L15.91,11.3L19.23,11.28L19.24,12.5L14.04,12.47L14,11.47C14,11.47 17.05,8.24 17.2,7.95C17.34,7.67 17.91,6 16.5,6C15.27,6.05 15.41,7.3 15.41,7.3L13.87,7.31C13.87,7.31 13.88,6.65 14.25,6H13V18H15.58L15.57,17.14L16.54,17.13C16.54,17.13 17.45,16.97 17.46,16.08C17.5,15.08 16.65,15.08 16.5,15.08C16.37,15.08 15.43,15.13 15.43,15.95H13.91C13.91,15.95 13.95,13.89 16.5,13.89C19.1,13.89 18.96,15.91 18.96,15.91C18.96,15.91 19,17.16 17.85,17.63L18.37,18H20M8.92,16H7.42V10.2L5.62,10.76V9.53L8.76,8.41H8.92V16Z" />
    </g>
    <g id="mdi-counter" transform="translate(108 72) scale(1.5)" fill="#fff">
      <path d="M4,4H20A2,2 0 0,1 22,6V18A2,2 0 0,1 20,20H4A2,2 0 0,1 2,18V6A2,2 0 0,1 4,4M4,6V18H11V6H4M20,18V6H18.76C19,6.54 18.95,7.07 18.95,7.13C18.88,7.8 18.41,8.5 18.24,8.75L15.91,11.3L19.23,11.28L19.24,12.5L14.04,12.47L14,11.47C14,11.47 17.05,8.24 17.2,7.95C17.34,7.67 17.91,6 16.5,6C15.27,6.05 15.41,7.3 15.41,7.3L13.87,7.31C13.87,7.31 13.88,6.65 14.25,6H13V18H15.58L15.57,17.14L16.54,17.13C16.54,17.13 17.45,16.97 17.46,16.08C17.5,15.08 16.65,15.08 16.5,15.08C16.37,15.08 15.43,15.13 15.43,15.95H13.91C13.91,15.95 13.95,13.89 16.5,13.89C19.1,13.89 18.96,15.91 18.96,15.91C18.96,15.91 19,17.16 17.85,17.63L18.37,18H20M8.92,16H7.42V10.2L5.62,10.76V9.53L8.76,8.41H8.92V16Z" />
    </g>
    <g id="mdi-cow" transform="translate(144 72) scale(1.5)" fill="#555">
      <path d="M10.5,18A0.5,0.5 0 0,1 11,18.5A0.5,0.5 0 0,1 10.5,19A0.5,0.5 0 0,1 10,18.5A0.5,0.5 0 0,1 10.5,18M13.5,18A0.5,0.5 0 0,1 14,18.5A0.5,0.5 0 0,1 13.5,19A0.5,0.5 0 0,1 13,18.5A0.5,0.5 0 0,1 13.5,18M10,11A1,1 0 0,1 11,12A1,1 0 0,1 10,13A1,1 0 0,1 9,12A1,1 0 0,1 10,11M14,11A1,1 0 0,1 15,12A1,1 0 0,1 14,13A1,1 0 0,1 13,12A1,1 0 0,1 14,11M18,18C18,20.21 15.31,22 12,22C8.69,22 6,20.21 6,18C6,17.1 6.45,16.27 7.2,15.6C6.45,14.6 6,13.35 6,12L6.12,10.78C5.58,10.93 4.93,10.93 4.4,10.78C3.38,10.5 1.84,9.35 2.07,8.55C2.3,7.75 4.21,7.6 5.23,7.9C5.82,8.07 6.45,8.5 6.82,8.96L7.39,8.15C6.79,7.05 7,4 10,3L9.91,3.14V3.14C9.63,3.58 8.91,4.97 9.67,6.47C10.39,6.17 11.17,6 12,6C12.83,6 13.61,6.17 14.33,6.47C15.09,4.97 14.37,3.58 14.09,3.14L14,3C17,4 17.21,7.05 16.61,8.15L17.18,8.96C17.55,8.5 18.18,8.07 18.77,7.9C19.79,7.6 21.7,7.75 21.93,8.55C22.16,9.35 20.62,10.5 19.6,10.78C19.07,10.93 18.42,10.93 17.88,10.78L18,12C18,13.35 17.55,14.6 16.8,15.6C17.55,16.27 18,17.1 18,18M12,16C9.79,16 8,16.9 8,18C8,19.1 9.79,20 12,20C14.21,20 16,19.1 16,18C16,16.9 14.21,16 12,16M12,14C13.12,14 14.17,14.21 15.07,14.56C15.65,13.87 16,13 16,12A4,4 0 0,0 12,8A4,4 0 0,0 8,12C8,13 8.35,13.87 8.93,14.56C9.83,14.21 10.88,14 12,14M14.09,3.14V3.14Z" />
    </g>
    <g id="mdi-cow" transform="translate(180 72) scale(1.5)" fill="#fff">
      <path d="M10.5,18A0.5,0.5 0 0,1 11,18.5A0.5,0.5 0 0,1 10.5,19A0.5,0.5 0 0,1 10,18.5A0.5,0.5 0 0,1 10.5,18M13.5,18A0.5,0.5 0 0,1 14,18.5A0.5,0.5 0 0,1 13.5,19A0.5,0.5 0 0,1 13,18.5A0.5,0.5 0 0,1 13.5,18M10,11A1,1 0 0,1 11,12A1,1 0 0,1 10,13A1,1 0 0,1 9,12A1,1 0 0,1 10,11M14,11A1,1 0 0,1 15,12A1,1 0 0,1 14,13A1,1 0 0,1 13,12A1,1 0 0,1 14,11M18,18C18,20.21 15.31,22 12,22C8.69,22 6,20.21 6,18C6,17.1 6.45,16.27 7.2,15.6C6.45,14.6 6,13.35 6,12L6.12,10.78C5.58,10.93 4.93,10.93 4.4,10.78C3.38,10.5 1.84,9.35 2.07,8.55C2.3,7.75 4.21,7.6 5.23,7.9C5.82,8.07 6.45,8.5 6.82,8.96L7.39,8.15C6.79,7.05 7,4 10,3L9.91,3.14V3.14C9.63,3.58 8.91,4.97 9.67,6.47C10.39,6.17 11.17,6 12,6C12.83,6 13.61,6.17 14.33,6.47C15.09,4.97 14.37,3.58 14.09,3.14L14,3C17,4 17.21,7.05 16.61,8.15L17.18,8.96C17.55,8.5 18.18,8.07 18.77,7.9C19.79,7.6 21.7,7.75 21.93,8.55C22.16,9.35 20.62,10.5 19.6,10.78C19.07,10.93 18.42,10.93 17.88,10.78L18,12C18,13.35 17.55,14.6 16.8,15.6C17.55,16.27 18,17.1 18,18M12,16C9.79,16 8,16.9 8,18C8,19.1 9.79,20 12,20C14.21,20 16,19.1 16,18C16,16.9 14.21,16 12,16M12,14C13.12,14 14.17,14.21 15.07,14.56C15.65,13.87 16,13 16,12A4,4 0 0,0 12,8A4,4 0 0,0 8,12C8,13 8.35,13.87 8.93,14.56C9.83,14.21 10.88,14 12,14M14.09,3.14V3.14Z" />
    </g>
    <g id="mdi-cpu-32-bit" transform="translate(216 72) scale(1.5)" fill="#555">
      <path d="M9,3V5H7A2,2 0 0,0 5,7V9H3V11H5V13H3V15H5V17A2,2 0 0,0 7,19H9V21H11V19H13V21H15V19H17A2,2 0 0,0 19,17V15H21V13H19V11H21V9H19V7A2,2 0 0,0 17,5H15V3H13V5H11V3M7,9H10.5A1,1 0 0,1 11.5,10V14A1,1 0 0,1 10.5,15H7V13.5H10V12.75H8.5V11.25H10V10.5H7M12.5,9H16A1,1 0 0,1 17,10V11.75A1,1 0 0,1 16,12.75H14V13.5H17V15H12.5V12.25A1,1 0 0,1 13.5,11.25H15.5V10.5H12.5" />
    </g>
    <g id="mdi-cpu-32-bit" transform="translate(252 72) scale(1.5)" fill="#fff">
      <path d="M9,3V5H7A2,2 0 0,0 5,7V9H3V11H5V13H3V15H5V17A2,2 0 0,0 7,19H9V21H11V19H13V21H15V19H17A2,2 0 0,0 19,17V15H21V13H19V11H21V9H19V7A2,2 0 0,0 17,5H15V3H13V5H11V3M7,9H10.5A1,1 0 0,1 11.5,10V14A1,1 0 0,1 10.5,15H7V13.5H10V12.75H8.5V11.25H10V10.5H7M12.5,9H16A1,1 0 0,1 17,10V11.75A1,1 0 0,1 16,12.75H14V13.5H17V15H12.5V12.25A1,1 0 0,1 13.5,11.25H15.5V10.5H12.5" />
    </g>
    <g id="mdi-cpu-64-bit" transform="translate(288 72) scale(1.5)" fill="#555">
      <path d="M9,3V5H7A2,2 0 0,0 5,7V9H3V11H5V13H3V15H5V17A2,2 0 0,0 7,19H9V21H11V19H13V21H15V19H17A2,2 0 0,0 19,17V15H21V13H19V11H21V9H19V7A2,2 0 0,0 17,5H15V3H13V5H11V3M8,9H11.5V10.5H8.5V11.25H10.5A1,1 0 0,1 11.5,12.25V14A1,1 0 0,1 10.5,15H8A1,1 0 0,1 7,14V10A1,1 0 0,1 8,9M12.5,9H14V11H15.5V9H17V15H15.5V12.5H12.5M8.5,12.75V13.5H10V12.75" />
    </g>
    <g id="mdi-cpu-64-bit" transform="translate(324 72) scale(1.5)" fill="#fff">
      <path d="M9,3V5H7A2,2 0 0,0 5,7V9H3V11H5V13H3V15H5V17A2,2 0 0,0 7,19H9V21H11V19H13V21H15V19H17A2,2 0 0,0 19,17V15H21V13H19V11H21V9H19V7A2,2 0 0,0 17,5H15V3H13V5H11V3M8,9H11.5V10.5H8.5V11.25H10.5A1,1 0 0,1 11.5,12.25V14A1,1 0 0,1 10.5,15H8A1,1 0 0,1 7,14V10A1,1 0 0,1 8,9M12.5,9H14V11H15.5V9H17V15H15.5V12.5H12.5M8.5,12.75V13.5H10V12.75" />
    </g>
    <g id="mdi-crane" transform="translate(360 72) scale(1.5)" fill="#555">
      <path d="M20,6V5A1,1 0 0,0 19,4H9V3H6V4H5V6H6V15H5V13H3V15H2V17H3V21H5V17H10V21H12V19.92L12,17H13V15H12V13H10V15H9V6H17V10.62C16.53,10.79 16.19,11.23 16.19,11.76C16.19,12.2 16.43,12.6 16.8,12.82V14H17.42C17.76,14 18.03,14.28 18.03,14.62C18.03,14.96 17.76,15.24 17.42,15.24C17.2,15.24 17,15.12 16.89,14.93C16.71,14.64 16.34,14.54 16.05,14.71C15.75,14.87 15.65,15.25 15.82,15.55C16.15,16.11 16.76,16.47 17.42,16.47C18.43,16.47 19.26,15.64 19.26,14.62C19.26,13.84 18.76,13.14 18.03,12.88V12.82C18.41,12.6 18.65,12.2 18.65,11.76C18.65,11.3 18.38,10.91 18,10.7V6H20M8,13.66L7,14.66V13.24L8,12.24V13.66M8,10.71L7,11.71V10.29L8,9.29V10.71M7,8.71V7.29L8,6.29V7.71L7,8.71Z" />
    </g>
    <g id="mdi-crane" transform="translate(396 72) scale(1.5)" fill="#fff">
      <path d="M20,6V5A1,1 0 0,0 19,4H9V3H6V4H5V6H6V15H5V13H3V15H2V17H3V21H5V17H10V21H12V19.92L12,17H13V15H12V13H10V15H9V6H17V10.62C16.53,10.79 16.19,11.23 16.19,11.76C16.19,12.2 16.43,12.6 16.8,12.82V14H17.42C17.76,14 18.03,14.28 18.03,14.62C18.03,14.96 17.76,15.24 17.42,15.24C17.2,15.24 17,15.12 16.89,14.93C16.71,14.64 16.34,14.54 16.05,14.71C15.75,14.87 15.65,15.25 15.82,15.55C16.15,16.11 16.76,16.47 17.42,16.47C18.43,16.47 19.26,15.64 19.26,14.62C19.26,13.84 18.76,13.14 18.03,12.88V12.82C18.41,12.6 18.65,12.2 18.65,11.76C18.65,11.3 18.38,10.91 18,10.7V6H20M8,13.66L7,14.66V13.24L8,12.24V13.66M8,10.71L7,11.71V10.29L8,9.29V10.71M7,8.71V7.29L8,6.29V7.71L7,8.71Z" />
    </g>
    <g id="mdi-creation" transform="translate(432 72) scale(1.5)" fill="#555">
      <path d="M19,1L17.74,3.75L15,5L17.74,6.26L19,9L20.25,6.26L23,5L20.25,3.75M9,4L6.5,9.5L1,12L6.5,14.5L9,20L11.5,14.5L17,12L11.5,9.5M19,15L17.74,17.74L15,19L17.74,20.25L19,23L20.25,20.25L23,19L20.25,17.74" />
    </g>
    <g id="mdi-creation" transform="translate(468 72) scale(1.5)" fill="#fff">
      <path d="M19,1L17.74,3.75L15,5L17.74,6.26L19,9L20.25,6.26L23,5L20.25,3.75M9,4L6.5,9.5L1,12L6.5,14.5L9,20L11.5,14.5L17,12L11.5,9.5M19,15L17.74,17.74L15,19L17.74,20.25L19,23L20.25,20.25L23,19L20.25,17.74" />
    </g>
    <g id="mdi-creative-commons" transform="translate(504 72) scale(1.5)" fill="#555">
      <path d="M11.89,10.34L10.55,11.04C10.41,10.74 10.24,10.53 10.03,10.41C9.82,10.29 9.62,10.23 9.45,10.23C8.55,10.23 8.11,10.82 8.11,12C8.11,12.54 8.22,12.97 8.45,13.29C8.67,13.61 9,13.77 9.45,13.77C10.03,13.77 10.44,13.5 10.68,12.91L11.91,13.54C11.65,14.03 11.29,14.41 10.82,14.69C10.36,14.97 9.85,15.11 9.29,15.11C8.39,15.11 7.67,14.84 7.12,14.29C6.58,13.74 6.3,13 6.3,12C6.3,11.05 6.58,10.3 7.13,9.74C7.69,9.18 8.39,8.9 9.23,8.9C10.47,8.89 11.36,9.38 11.89,10.34M17.66,10.34L16.34,11.04C16.2,10.74 16,10.53 15.81,10.41C15.6,10.29 15.4,10.23 15.21,10.23C14.32,10.23 13.87,10.82 13.87,12C13.87,12.54 14,12.97 14.21,13.29C14.44,13.61 14.77,13.77 15.21,13.77C15.8,13.77 16.21,13.5 16.45,12.91L17.7,13.54C17.42,14.03 17.05,14.41 16.59,14.69C16.12,14.97 15.62,15.11 15.07,15.11C14.17,15.11 13.44,14.84 12.9,14.29C12.36,13.74 12.09,13 12.09,12C12.09,11.05 12.37,10.3 12.92,9.74C13.47,9.18 14.17,8.9 15,8.9C16.26,8.89 17.14,9.38 17.66,10.34M12,3.5A8.5,8.5 0 0,1 20.5,12A8.5,8.5 0 0,1 12,20.5A8.5,8.5 0 0,1 3.5,12A8.5,8.5 0 0,1 12,3.5M12,2A10,10 0 0,0 2,12A10,10 0 0,0 12,22A10,10 0 0,0 22,12A10,10 0 0,0 12,2Z" />
    </g>
    <g id="mdi-creative-commons" transform="translate(540 72) scale(1.5)" fill="#fff">
      <path d="M11.89,10.34L10.55,11.04C10.41,10.74 10.24,10.53 10.03,10.41C9.82,10.29 9.62,10.23 9.45,10.23C8.55,10.23 8.11,10.82 8.11,12C8.11,12.54 8.22,12.97 8.45,13.29C8.67,13.61 9,13.77 9.45,13.77C10.03,13.77 10.44,13.5 10.68,12.91L11.91,13.54C11.65,14.03 11.29,14.41 10.82,14.69C10.36,14.97 9.85,15.11 9.29,15.11C8.39,15.11 7.67,14.84 7.12,14.29C6.58,13.74 6.3,13 6.3,12C6.3,11.05 6.58,10.3 7.13,9.74C7.69,9.18 8.39,8.9 9.23,8.9C10.47,8.89 11.36,9.38 11.89,10.34M17.66,10.34L16.34,11.04C16.2,10.74 16,10.53 15.81,10.41C15.6,10.29 15.4,10.23 15.21,10.23C14.32,10.23 13.87,10.82 13.87,12C13.87,12.54 14,12.97 14.21,13.29C14.44,13.61 14.77,13.77 15.21,13.77C15.8,13.77 16.21,13.5 16.45,12.91L17.7,13.54C17.42,14.03 17.05,14.41 16.59,14.69C16.12,14.97 15.62,15.11 15.07,15.11C14.17,15.11 13.44,14.84 12.9,14.29C12.36,13.74 12.09,13 12.09,12C12.09,11.05 12.37,10.3 12.92,9.74C13.47,9.18 14.17,8.9 15,8.9C16.26,8.89 17.14,9.38 17.66,10.34M12,3.5A8.5,8.5 0 0,1 20.5,12A8.5,8.5 0 0,1 12,20.5A8.5,8.5 0 0,1 3.5,12A8.5,8.5 0 0,1 12,3.5M12,2A10,10 0 0,0 2,12A10,10 0 0,0 12,22A10,10 0 0,0 22,12A10,10 0 0,0 12,2Z" />
    </g>
    <g id="mdi-credit-card" transform="translate(576 72) scale(1.5)" fill="#555">
      <path d="M20 4H4A2 2 0 0 0 2 6V18A2 2 0 0 0 4 20H20A2 2 0 0 0 22 18V6A2 2 0 0 0 20 4M20 11H4V8H20Z" />
    </g>
    <g id="mdi-credit-card" transform="translate(612 72) scale(1.5)" fill="#fff">
      <path d="M20 4H4A2 2 0 0 0 2 6V18A2 2 0 0 0 4 20H20A2 2 0 0 0 22 18V6A2 2 0 0 0 20 4M20 11H4V8H20Z" />
    </g>
    <g id="mdi-credit-card-check" transform="translate(648 72) scale(1.5)" fill="#555">
      <path d="M20 4H4C2.9 4 2 4.89 2 6V18C2 19.11 2.9 20 4 20H13.09C13.03 19.67 13 19.34 13 19C13 15.69 15.69 13 19 13C20.06 13 21.09 13.28 22 13.81V6C22 4.89 21.11 4 20 4M20 11H4V8H20M17.75 22L15 19L16.16 17.84L17.75 19.43L21.34 15.84L22.5 17.25L17.75 22" />
    </g>
    <g id="mdi-credit-card-check" transform="translate(684 72) scale(1.5)" fill="#fff">
      <path d="M20 4H4C2.9 4 2 4.89 2 6V18C2 19.11 2.9 20 4 20H13.09C13.03 19.67 13 19.34 13 19C13 15.69 15.69 13 19 13C20.06 13 21.09 13.28 22 13.81V6C22 4.89 21.11 4 20 4M20 11H4V8H20M17.75 22L15 19L16.16 17.84L17.75 19.43L21.34 15.84L22.5 17.25L17.75 22" />
    </g>
    <g id="mdi-credit-card-check-outline" transform="translate(0 108) scale(1.5)" fill="#555">
      <path d="M13 19C13 18.66 13.04 18.33 13.09 18H3V12H19V13C19.7 13 20.37 13.13 21 13.35V6C21 4.89 20.11 4 19 4H3C1.89 4 1 4.89 1 6V18C1 19.1 1.89 20 3 20H13.09C13.04 19.67 13 19.34 13 19M3 6H19V8H3V6M17.75 22L15 19L16.16 17.84L17.75 19.43L21.34 15.84L22.5 17.25L17.75 22" />
    </g>
    <g id="mdi-credit-card-check-outline" transform="translate(36 108) scale(1.5)" fill="#fff">
      <path d="M13 19C13 18.66 13.04 18.33 13.09 18H3V12H19V13C19.7 13 20.37 13.13 21 13.35V6C21 4.89 20.11 4 19 4H3C1.89 4 1 4.89 1 6V18C1 19.1 1.89 20 3 20H13.09C13.04 19.67 13 19.34 13 19M3 6H19V8H3V6M17.75 22L15 19L16.16 17.84L17.75 19.43L21.34 15.84L22.5 17.25L17.75 22" />
    </g>
    <g id="mdi-credit-card-clock" transform="translate(72 108) scale(1.5)" fill="#555">
      <path d="M16,14H17.5V16.82L19.94,18.23L19.19,19.53L16,17.69V14M24,17A7,7 0 0,1 17,24C14.21,24 11.8,22.36 10.67,20H4C2.89,20 2,19.1 2,18V6C2,4.89 2.89,4 4,4H20A2,2 0 0,1 22,6V12.1C23.24,13.36 24,15.09 24,17M17,12A5,5 0 0,0 12,17A5,5 0 0,0 17,22A5,5 0 0,0 22,17A5,5 0 0,0 17,12M20,10V7H4V10H20Z" />
    </g>
    <g id="mdi-credit-card-clock" transform="translate(108 108) scale(1.5)" fill="#fff">
      <path d="M16,14H17.5V16.82L19.94,18.23L19.19,19.53L16,17.69V14M24,17A7,7 0 0,1 17,24C14.21,24 11.8,22.36 10.67,20H4C2.89,20 2,19.1 2,18V6C2,4.89 2.89,4 4,4H20A2,2 0 0,1 22,6V12.1C23.24,13.36 24,15.09 24,17M17,12A5,5 0 0,0 12,17A5,5 0 0,0 17,22A5,5 0 0,0 22,17A5,5 0 0,0 17,12M20,10V7H4V10H20Z" />
    </g>
    <g id="mdi-credit-card-clock-outline" transform="translate(144 108) scale(1.5)" fill="#555">
      <path d="M16,14H17.5V16.82L19.94,18.23L19.19,19.53L16,17.69V14M24,17A7,7 0 0,1 17,24C14.21,24 11.8,22.36 10.67,20H4C2.89,20 2,19.1 2,18V6C2,4.89 2.89,4 4,4H20A2,2 0 0,1 22,6V12.1C23.24,13.36 24,15.09 24,17M10,17C10,15.04 10.81,13.27 12.1,12H4V18H10.07C10,17.67 10,17.34 10,17M17,12A5,5 0 0,0 12,17A5,5 0 0,0 17,22A5,5 0 0,0 22,17A5,5 0 0,0 17,12M20,8V6H4V8H20Z" />
    </g>
    <g id="mdi-credit-card-clock-outline" transform="translate(180 108) scale(1.5)" fill="#fff">
      <path d="M16,14H17.5V16.82L19.94,18.23L19.19,19.53L16,17.69V14M24,17A7,7 0 0,1 17,24C14.21,24 11.8,22.36 10.67,20H4C2.89,20 2,19.1 2,18V6C2,4.89 2.89,4 4,4H20A2,2 0 0,1 22,6V12.1C23.24,13.36 24,15.09 24,17M10,17C10,15.04 10.81,13.27 12.1,12H4V18H10.07C10,17.67 10,17.34 10,17M17,12A5,5 0 0,0 12,17A5,5 0 0,0 17,22A5,5 0 0,0 22,17A5,5 0 0,0 17,12M20,8V6H4V8H20Z" />
    </g>
    <g id="mdi-credit-card-marker" transform="translate(216 108) scale(1.5)" fill="#555">
      <path d="M18.5 12C16.6 12 15 13.6 15 15.5C15 18.1 18.5 22 18.5 22S22 18.1 22 15.5C22 13.6 20.4 12 18.5 12M18.5 16.8C17.8 16.8 17.3 16.2 17.3 15.6C17.3 14.9 17.9 14.4 18.5 14.4S19.7 15 19.7 15.6C19.8 16.2 19.2 16.8 18.5 16.8M14.55 20H4C2.9 20 2 19.11 2 18V6C2 4.89 2.9 4 4 4H20C21.11 4 22 4.89 22 6V11.3C21.42 10.81 20.74 10.44 20 10.22V8H4V11H15.39C13.96 12 13 13.66 13 15.5C13 17 13.72 18.61 14.55 20Z" />
    </g>
    <g id="mdi-credit-card-marker" transform="translate(252 108) scale(1.5)" fill="#fff">
      <path d="M18.5 12C16.6 12 15 13.6 15 15.5C15 18.1 18.5 22 18.5 22S22 18.1 22 15.5C22 13.6 20.4 12 18.5 12M18.5 16.8C17.8 16.8 17.3 16.2 17.3 15.6C17.3 14.9 17.9 14.4 18.5 14.4S19.7 15 19.7 15.6C19.8 16.2 19.2 16.8 18.5 16.8M14.55 20H4C2.9 20 2 19.11 2 18V6C2 4.89 2.9 4 4 4H20C21.11 4 22 4.89 22 6V11.3C21.42 10.81 20.74 10.44 20 10.22V8H4V11H15.39C13.96 12 13 13.66 13 15.5C13 17 13.72 18.61 14.55 20Z" />
    </g>
    <g id="mdi-credit-card-marker-outline" transform="translate(288 108) scale(1.5)" fill="#555">
      <path d="M13.5,18H4V12H14.3C15.3,10.8 16.8,10 18.5,10C19.8,10 21,10.5 22,11.3V6A2,2 0 0,0 20,4H4A2,2 0 0,0 2,6V18A2,2 0 0,0 4,20H14.6C14.2,19.4 13.8,18.7 13.5,18M4,6H20V8H4V6M18.5,12C16.6,12 15,13.6 15,15.5C15,18.1 18.5,22 18.5,22C18.5,22 22,18.1 22,15.5C22,13.6 20.4,12 18.5,12M18.5,16.8C17.8,16.8 17.3,16.2 17.3,15.6C17.3,14.9 17.9,14.4 18.5,14.4C19.1,14.4 19.7,15 19.7,15.6C19.8,16.2 19.2,16.8 18.5,16.8Z" />
    </g>
    <g id="mdi-credit-card-marker-outline" transform="translate(324 108) scale(1.5)" fill="#fff">
      <path d="M13.5,18H4V12H14.3C15.3,10.8 16.8,10 18.5,10C19.8,10 21,10.5 22,11.3V6A2,2 0 0,0 20,4H4A2,2 0 0,0 2,6V18A2,2 0 0,0 4,20H14.6C14.2,19.4 13.8,18.7 13.5,18M4,6H20V8H4V6M18.5,12C16.6,12 15,13.6 15,15.5C15,18.1 18.5,22 18.5,22C18.5,22 22,18.1 22,15.5C22,13.6 20.4,12 18.5,12M18.5,16.8C17.8,16.8 17.3,16.2 17.3,15.6C17.3,14.9 17.9,14.4 18.5,14.4C19.1,14.4 19.7,15 19.7,15.6C19.8,16.2 19.2,16.8 18.5,16.8Z" />
    </g>
    <g id="mdi-credit-card-minus" transform="translate(360 108) scale(1.5)" fill="#555">
      <path d="M20 4H4C2.9 4 2 4.89 2 6V18C2 19.11 2.9 20 4 20H13.09C13.03 19.67 13 19.34 13 19C13 15.69 15.69 13 19 13C20.06 13 21.09 13.28 22 13.81V6C22 4.89 21.11 4 20 4M20 11H4V8H20M23 18V20H15V18H23Z" />
    </g>
    <g id="mdi-credit-card-minus" transform="translate(396 108) scale(1.5)" fill="#fff">
      <path d="M20 4H4C2.9 4 2 4.89 2 6V18C2 19.11 2.9 20 4 20H13.09C13.03 19.67 13 19.34 13 19C13 15.69 15.69 13 19 13C20.06 13 21.09 13.28 22 13.81V6C22 4.89 21.11 4 20 4M20 11H4V8H20M23 18V20H15V18H23Z" />
    </g>
    <g id="mdi-credit-card-minus-outline" transform="translate(432 108) scale(1.5)" fill="#555">
      <path d="M24 18V20H16V18M19 8V6H3V8H19M19 12H3V18H14V20H3C1.89 20 1 19.1 1 18V6C1 4.89 1.89 4 3 4H19C20.11 4 21 4.89 21 6V13H19V12Z" />
    </g>
    <g id="mdi-credit-card-minus-outline" transform="translate(468 108) scale(1.5)" fill="#fff">
      <path d="M24 18V20H16V18M19 8V6H3V8H19M19 12H3V18H14V20H3C1.89 20 1 19.1 1 18V6C1 4.89 1.89 4 3 4H19C20.11 4 21 4.89 21 6V13H19V12Z" />
    </g>
    <g id="mdi-credit-card-multiple" transform="translate(504 108) scale(1.5)" fill="#555">
      <path d="M21 9V6H7V9H21M21 3A2 2 0 0 1 23 5V15A2 2 0 0 1 21 17H7A2 2 0 0 1 5 15V5A2 2 0 0 1 7 3H21M3 19H18V21H3A2 2 0 0 1 1 19V8H3Z" />
    </g>
    <g id="mdi-credit-card-multiple" transform="translate(540 108) scale(1.5)" fill="#fff">
      <path d="M21 9V6H7V9H21M21 3A2 2 0 0 1 23 5V15A2 2 0 0 1 21 17H7A2 2 0 0 1 5 15V5A2 2 0 0 1 7 3H21M3 19H18V21H3A2 2 0 0 1 1 19V8H3Z" />
    </g>
    <g id="mdi-credit-card-multiple-outline" transform="translate(576 108) scale(1.5)" fill="#555">
      <path d="M21,8V6H7V8H21M21,16V11H7V16H21M21,4A2,2 0 0,1 23,6V16A2,2 0 0,1 21,18H7C5.89,18 5,17.1 5,16V6C5,4.89 5.89,4 7,4H21M3,20H18V22H3A2,2 0 0,1 1,20V9H3V20Z" />
    </g>
    <g id="mdi-credit-card-multiple-outline" transform="translate(612 108) scale(1.5)" fill="#fff">
      <path d="M21,8V6H7V8H21M21,16V11H7V16H21M21,4A2,2 0 0,1 23,6V16A2,2 0 0,1 21,18H7C5.89,18 5,17.1 5,16V6C5,4.89 5.89,4 7,4H21M3,20H18V22H3A2,2 0 0,1 1,20V9H3V20Z" />
    </g>
    <g id="mdi-credit-card-off" transform="translate(648 108) scale(1.5)" fill="#555">
      <path d="M11.2 8L7.2 4H20A2 2 0 0 1 22 6V18A1.91 1.91 0 0 1 21.88 18.68L14.2 11H20V8M20.84 22.73L18.11 20H4A2 2 0 0 1 2 18V6A2 2 0 0 1 2.65 4.54L1.11 3L2.39 1.73L22.11 21.46M9.11 11L6.11 8H4V11Z" />
    </g>
    <g id="mdi-credit-card-off" transform="translate(684 108) scale(1.5)" fill="#fff">
      <path d="M11.2 8L7.2 4H20A2 2 0 0 1 22 6V18A1.91 1.91 0 0 1 21.88 18.68L14.2 11H20V8M20.84 22.73L18.11 20H4A2 2 0 0 1 2 18V6A2 2 0 0 1 2.65 4.54L1.11 3L2.39 1.73L22.11 21.46M9.11 11L6.11 8H4V11Z" />
    </g>
    <g id="mdi-credit-card-off-outline" transform="translate(0 144) scale(1.5)" fill="#555">
      <path d="M0.93,4.2L2.21,2.93L20,20.72L18.73,22L16.73,20H4C2.89,20 2,19.1 2,18V6C2,5.78 2.04,5.57 2.11,5.38L0.93,4.2M20,8V6H7.82L5.82,4H20A2,2 0 0,1 22,6V18C22,18.6 21.74,19.13 21.32,19.5L19.82,18H20V12H13.82L9.82,8H20M4,8H4.73L4,7.27V8M4,12V18H14.73L8.73,12H4Z" />
    </g>
    <g id="mdi-credit-card-off-outline" transform="translate(36 144) scale(1.5)" fill="#fff">
      <path d="M0.93,4.2L2.21,2.93L20,20.72L18.73,22L16.73,20H4C2.89,20 2,19.1 2,18V6C2,5.78 2.04,5.57 2.11,5.38L0.93,4.2M20,8V6H7.82L5.82,4H20A2,2 0 0,1 22,6V18C22,18.6 21.74,19.13 21.32,19.5L19.82,18H20V12H13.82L9.82,8H20M4,8H4.73L4,7.27V8M4,12V18H14.73L8.73,12H4Z" />
    </g>
    <g id="mdi-credit-card-outline" transform="translate(72 144) scale(1.5)" fill="#555">
      <path d="M20,8H4V6H20M20,18H4V12H20M20,4H4C2.89,4 2,4.89 2,6V18A2,2 0 0,0 4,20H20A2,2 0 0,0 22,18V6C22,4.89 21.1,4 20,4Z" />
    </g>
    <g id="mdi-credit-card-outline" transform="translate(108 144) scale(1.5)" fill="#fff">
      <path d="M20,8H4V6H20M20,18H4V12H20M20,4H4C2.89,4 2,4.89 2,6V18A2,2 0 0,0 4,20H20A2,2 0 0,0 22,18V6C22,4.89 21.1,4 20,4Z" />
    </g>
    <g id="mdi-credit-card-plus" transform="translate(144 144) scale(1.5)" fill="#555">
      <path d="M20 4H4A2 2 0 0 0 2 6V18A2 2 0 0 0 4 20H13.09A5.47 5.47 0 0 1 13 19A6 6 0 0 1 19 13A5.88 5.88 0 0 1 22 13.81V6A2 2 0 0 0 20 4M20 11H4V8H20M20 15V18H23V20H20V23H18V20H15V18H18V15Z" />
    </g>
    <g id="mdi-credit-card-plus" transform="translate(180 144) scale(1.5)" fill="#fff">
      <path d="M20 4H4A2 2 0 0 0 2 6V18A2 2 0 0 0 4 20H13.09A5.47 5.47 0 0 1 13 19A6 6 0 0 1 19 13A5.88 5.88 0 0 1 22 13.81V6A2 2 0 0 0 20 4M20 11H4V8H20M20 15V18H23V20H20V23H18V20H15V18H18V15Z" />
    </g>
    <g id="mdi-credit-card-plus-outline" transform="translate(216 144) scale(1.5)" fill="#555">
      <path d="M21,18H24V20H21V23H19V20H16V18H19V15H21V18M19,8V6H3V8H19M19,12H3V18H14V20H3C1.89,20 1,19.1 1,18V6C1,4.89 1.89,4 3,4H19A2,2 0 0,1 21,6V13H19V12Z" />
    </g>
    <g id="mdi-credit-card-plus-outline" transform="translate(252 144) scale(1.5)" fill="#fff">
      <path d="M21,18H24V20H21V23H19V20H16V18H19V15H21V18M19,8V6H3V8H19M19,12H3V18H14V20H3C1.89,20 1,19.1 1,18V6C1,4.89 1.89,4 3,4H19A2,2 0 0,1 21,6V13H19V12Z" />
    </g>
    <g id="mdi-credit-card-refund" transform="translate(288 144) scale(1.5)" fill="#555">
      <path d="M18 11H6A2 2 0 0 0 4 13V21A2 2 0 0 0 6 23H18A2 2 0 0 0 20 21V13A2 2 0 0 0 18 11M18 17H6V14H18M17 5V10H15.5V6.5H9.88L12.3 8.93L11.24 10L7 5.75L11.24 1.5L12.3 2.57L9.88 5Z" />
    </g>
    <g id="mdi-credit-card-refund" transform="translate(324 144) scale(1.5)" fill="#fff">
      <path d="M18 11H6A2 2 0 0 0 4 13V21A2 2 0 0 0 6 23H18A2 2 0 0 0 20 21V13A2 2 0 0 0 18 11M18 17H6V14H18M17 5V10H15.5V6.5H9.88L12.3 8.93L11.24 10L7 5.75L11.24 1.5L12.3 2.57L9.88 5Z" />
    </g>
    <g id="mdi-credit-card-refund-outline" transform="translate(360 144) scale(1.5)" fill="#555">
      <path d="M18,11H6A2,2 0 0,0 4,13V21A2,2 0 0,0 6,23H18A2,2 0 0,0 20,21V13A2,2 0 0,0 18,11M18,21H6V17H18V21M18,15H6V13H18V15M17,5V10H15.5V6.5H9.88L12.3,8.93L11.24,10L7,5.75L11.24,1.5L12.3,2.57L9.88,5H17Z" />
    </g>
    <g id="mdi-credit-card-refund-outline" transform="translate(396 144) scale(1.5)" fill="#fff">
      <path d="M18,11H6A2,2 0 0,0 4,13V21A2,2 0 0,0 6,23H18A2,2 0 0,0 20,21V13A2,2 0 0,0 18,11M18,21H6V17H18V21M18,15H6V13H18V15M17,5V10H15.5V6.5H9.88L12.3,8.93L11.24,10L7,5.75L11.24,1.5L12.3,2.57L9.88,5H17Z" />
    </g>
    <g id="mdi-credit-card-remove" transform="translate(432 144) scale(1.5)" fill="#555">
      <path d="M20 4H4A2 2 0 0 0 2 6V18A2 2 0 0 0 4 20H13.09A5.47 5.47 0 0 1 13 19A6 6 0 0 1 19 13A5.88 5.88 0 0 1 22 13.81V6A2 2 0 0 0 20 4M20 11H4V8H20M22.54 16.88L20.41 19L22.54 21.12L21.12 22.54L19 20.41L16.88 22.54L15.46 21.12L17.59 19L15.46 16.88L16.88 15.46L19 17.59L21.12 15.46Z" />
    </g>
    <g id="mdi-credit-card-remove" transform="translate(468 144) scale(1.5)" fill="#fff">
      <path d="M20 4H4A2 2 0 0 0 2 6V18A2 2 0 0 0 4 20H13.09A5.47 5.47 0 0 1 13 19A6 6 0 0 1 19 13A5.88 5.88 0 0 1 22 13.81V6A2 2 0 0 0 20 4M20 11H4V8H20M22.54 16.88L20.41 19L22.54 21.12L21.12 22.54L19 20.41L16.88 22.54L15.46 21.12L17.59 19L15.46 16.88L16.88 15.46L19 17.59L21.12 15.46Z" />
    </g>
    <g id="mdi-credit-card-remove-outline" transform="translate(504 144) scale(1.5)" fill="#555">
      <path d="M13 19C13 18.66 13.04 18.33 13.09 18H3V12H19V13C19.7 13 20.37 13.13 21 13.35V6C21 4.89 20.11 4 19 4H3C1.89 4 1 4.89 1 6V18C1 19.1 1.89 20 3 20H13.09C13.04 19.67 13 19.34 13 19M3 6H19V8H3V6M22.54 16.88L20.41 19L22.54 21.12L21.12 22.54L19 20.41L16.88 22.54L15.47 21.12L17.59 19L15.47 16.88L16.88 15.47L19 17.59L21.12 15.46L22.54 16.88Z" />
    </g>
    <g id="mdi-credit-card-remove-outline" transform="translate(540 144) scale(1.5)" fill="#fff">
      <path d="M13 19C13 18.66 13.04 18.33 13.09 18H3V12H19V13C19.7 13 20.37 13.13 21 13.35V6C21 4.89 20.11 4 19 4H3C1.89 4 1 4.89 1 6V18C1 19.1 1.89 20 3 20H13.09C13.04 19.67 13 19.34 13 19M3 6H19V8H3V6M22.54 16.88L20.41 19L22.54 21.12L21.12 22.54L19 20.41L16.88 22.54L15.47 21.12L17.59 19L15.47 16.88L16.88 15.47L19 17.59L21.12 15.46L22.54 16.88Z" />
    </g>
    <g id="mdi-credit-card-scan" transform="translate(576 144) scale(1.5)" fill="#555">
      <path d="M18 6H6A2 2 0 0 0 4 8V16A2 2 0 0 0 6 18H18A2 2 0 0 0 20 16V8A2 2 0 0 0 18 6M18 12H6V9H18M2 4H6V2H2A2 2 0 0 0 0 4V8H2V4M22 2H18V4H22V8H24V4A2 2 0 0 0 22 2M2 16H0V20A2 2 0 0 0 2 22H6V20H2V16M22 20H18V22H22A2 2 0 0 0 24 20V16H22V20" />
    </g>
    <g id="mdi-credit-card-scan" transform="translate(612 144) scale(1.5)" fill="#fff">
      <path d="M18 6H6A2 2 0 0 0 4 8V16A2 2 0 0 0 6 18H18A2 2 0 0 0 20 16V8A2 2 0 0 0 18 6M18 12H6V9H18M2 4H6V2H2A2 2 0 0 0 0 4V8H2V4M22 2H18V4H22V8H24V4A2 2 0 0 0 22 2M2 16H0V20A2 2 0 0 0 2 22H6V20H2V16M22 20H18V22H22A2 2 0 0 0 24 20V16H22V20" />
    </g>
    <g id="mdi-credit-card-scan-outline" transform="translate(648 144) scale(1.5)" fill="#555">
      <path d="M2,4H6V2H2A2,2 0 0,0 0,4V8H2V4M22,2H18V4H22V8H24V4A2,2 0 0,0 22,2M2,16H0V20A2,2 0 0,0 2,22H6V20H2V16M22,20H18V22H22A2,2 0 0,0 24,20V16H22V20M4,8V16A2,2 0 0,0 6,18H18A2,2 0 0,0 20,16V8A2,2 0 0,0 18,6H6A2,2 0 0,0 4,8M6,16V12H18V16H6M18,8V10H6V8H18Z" />
    </g>
    <g id="mdi-credit-card-scan-outline" transform="translate(684 144) scale(1.5)" fill="#fff">
      <path d="M2,4H6V2H2A2,2 0 0,0 0,4V8H2V4M22,2H18V4H22V8H24V4A2,2 0 0,0 22,2M2,16H0V20A2,2 0 0,0 2,22H6V20H2V16M22,20H18V22H22A2,2 0 0,0 24,20V16H22V20M4,8V16A2,2 0 0,0 6,18H18A2,2 0 0,0 20,16V8A2,2 0 0,0 18,6H6A2,2 0 0,0 4,8M6,16V12H18V16H6M18,8V10H6V8H18Z" />
    </g>
    <g id="mdi-credit-card-settings" transform="translate(0 180) scale(1.5)" fill="#555">
      <path d="M20 4H4A2 2 0 0 0 2 6V18A2 2 0 0 0 4 20H20A2 2 0 0 0 22 18V6A2 2 0 0 0 20 4M20 11H4V8H20M7 22H9V24H7V22M11 22H13V24H11V22M15 22H17V24H15Z" />
    </g>
    <g id="mdi-credit-card-settings" transform="translate(36 180) scale(1.5)" fill="#fff">
      <path d="M20 4H4A2 2 0 0 0 2 6V18A2 2 0 0 0 4 20H20A2 2 0 0 0 22 18V6A2 2 0 0 0 20 4M20 11H4V8H20M7 22H9V24H7V22M11 22H13V24H11V22M15 22H17V24H15Z" />
    </g>
    <g id="mdi-credit-card-settings-outline" transform="translate(72 180) scale(1.5)" fill="#555">
      <path d="M20,8H4V6H20M20,18H4V12H20M20,4H4C2.89,4 2,4.89 2,6V18A2,2 0 0,0 4,20H20A2,2 0 0,0 22,18V6C22,4.89 21.1,4 20,4M7,22H9V24H7V22M11,22H13V24H11V22M15,22H17V24H15V22Z" />
    </g>
    <g id="mdi-credit-card-settings-outline" transform="translate(108 180) scale(1.5)" fill="#fff">
      <path d="M20,8H4V6H20M20,18H4V12H20M20,4H4C2.89,4 2,4.89 2,6V18A2,2 0 0,0 4,20H20A2,2 0 0,0 22,18V6C22,4.89 21.1,4 20,4M7,22H9V24H7V22M11,22H13V24H11V22M15,22H17V24H15V22Z" />
    </g>
    <g id="mdi-credit-card-wireless" transform="translate(144 180) scale(1.5)" fill="#555">
      <path d="M4.93 4.92L6.34 6.33C9.46 3.2 14.53 3.2 17.66 6.33L19.07 4.92C15.17 1 8.84 1 4.93 4.92M7.76 7.75L9.17 9.16C10.73 7.6 13.26 7.6 14.83 9.16L16.24 7.75C13.9 5.41 10.1 5.41 7.76 7.75M18 11H6C4.89 11 4 11.9 4 13V21C4 22.11 4.89 23 6 23H18C19.11 23 20 22.11 20 21V13C20 11.9 19.11 11 18 11M18 17H6V14H18V17Z" />
    </g>
    <g id="mdi-credit-card-wireless" transform="translate(180 180) scale(1.5)" fill="#fff">
      <path d="M4.93 4.92L6.34 6.33C9.46 3.2 14.53 3.2 17.66 6.33L19.07 4.92C15.17 1 8.84 1 4.93 4.92M7.76 7.75L9.17 9.16C10.73 7.6 13.26 7.6 14.83 9.16L16.24 7.75C13.9 5.41 10.1 5.41 7.76 7.75M18 11H6C4.89 11 4 11.9 4 13V21C4 22.11 4.89 23 6 23H18C19.11 23 20 22.11 20 21V13C20 11.9 19.11 11 18 11M18 17H6V14H18V17Z" />
    </g>
    <g id="mdi-credit-card-wireless-off" transform="translate(216 180) scale(1.5)" fill="#555">
      <path d="M12 2C9.85 2 7.7 2.69 5.9 4.08L7.32 5.5C10.45 3.24 14.84 3.5 17.66 6.33L19.07 4.92C17.12 2.96 14.56 2 12 2M3.28 4L2 5.27L7.73 11H6C4.89 11 4 11.9 4 13V21C4 22.11 4.89 23 6 23H18C18.5 23 18.92 22.82 19.27 22.54L19.73 23L21 21.72M12 6C10.87 6 9.75 6.31 8.77 6.94L10.24 8.41C11.73 7.68 13.58 7.92 14.83 9.16L16.24 7.75C15.07 6.58 13.54 6 12 6M12.82 11L15.82 14H18V16.18L20 18.18V13C20 11.9 19.11 11 18 11M6 14H10.73L13.73 17H6Z" />
    </g>
    <g id="mdi-credit-card-wireless-off" transform="translate(252 180) scale(1.5)" fill="#fff">
      <path d="M12 2C9.85 2 7.7 2.69 5.9 4.08L7.32 5.5C10.45 3.24 14.84 3.5 17.66 6.33L19.07 4.92C17.12 2.96 14.56 2 12 2M3.28 4L2 5.27L7.73 11H6C4.89 11 4 11.9 4 13V21C4 22.11 4.89 23 6 23H18C18.5 23 18.92 22.82 19.27 22.54L19.73 23L21 21.72M12 6C10.87 6 9.75 6.31 8.77 6.94L10.24 8.41C11.73 7.68 13.58 7.92 14.83 9.16L16.24 7.75C15.07 6.58 13.54 6 12 6M12.82 11L15.82 14H18V16.18L20 18.18V13C20 11.9 19.11 11 18 11M6 14H10.73L13.73 17H6Z" />
    </g>
    <g id="mdi-credit-card-wireless-off-outline" transform="translate(288 180) scale(1.5)" fill="#555">
      <path d="M12 2C9.85 2 7.7 2.69 5.9 4.08L7.32 5.5C10.45 3.24 14.84 3.5 17.66 6.33L19.07 4.92C17.12 2.96 14.56 2 12 2M3.28 4L2 5.27L7.73 11H6C4.89 11 4 11.9 4 13V21C4 22.11 4.89 23 6 23H18C18.47 23 18.92 22.84 19.27 22.54L19.73 23L21 21.72M12 6C10.87 6 9.75 6.31 8.77 6.94L10.24 8.41C11.73 7.68 13.58 7.92 14.83 9.16L16.24 7.75C15.07 6.58 13.54 6 12 6M12.82 11L14.82 13H18V15H16.82L20 18.18V13C20 11.9 19.11 11 18 11M6 13H9.73L11.73 15H6M6 17H13.73L17.73 21H6Z" />
    </g>
    <g id="mdi-credit-card-wireless-off-outline" transform="translate(324 180) scale(1.5)" fill="#fff">
      <path d="M12 2C9.85 2 7.7 2.69 5.9 4.08L7.32 5.5C10.45 3.24 14.84 3.5 17.66 6.33L19.07 4.92C17.12 2.96 14.56 2 12 2M3.28 4L2 5.27L7.73 11H6C4.89 11 4 11.9 4 13V21C4 22.11 4.89 23 6 23H18C18.47 23 18.92 22.84 19.27 22.54L19.73 23L21 21.72M12 6C10.87 6 9.75 6.31 8.77 6.94L10.24 8.41C11.73 7.68 13.58 7.92 14.83 9.16L16.24 7.75C15.07 6.58 13.54 6 12 6M12.82 11L14.82 13H18V15H16.82L20 18.18V13C20 11.9 19.11 11 18 11M6 13H9.73L11.73 15H6M6 17H13.73L17.73 21H6Z" />
    </g>
    <g id="mdi-credit-card-wireless-outline" transform="translate(360 180) scale(1.5)" fill="#555">
      <path d="M18,11H6A2,2 0 0,0 4,13V21A2,2 0 0,0 6,23H18A2,2 0 0,0 20,21V13A2,2 0 0,0 18,11M18,21H6V17H18V21M18,15H6V13H18V15M4.93,4.92L6.34,6.33C9.46,3.2 14.53,3.2 17.66,6.33L19.07,4.92C15.17,1 8.84,1 4.93,4.92M7.76,7.75L9.17,9.16C10.73,7.6 13.26,7.6 14.83,9.16L16.24,7.75C13.9,5.41 10.1,5.41 7.76,7.75Z" />
    </g>
    <g id="mdi-credit-card-wireless-outline" transform="translate(396 180) scale(1.5)" fill="#fff">
      <path d="M18,11H6A2,2 0 0,0 4,13V21A2,2 0 0,0 6,23H18A2,2 0 0,0 20,21V13A2,2 0 0,0 18,11M18,21H6V17H18V21M18,15H6V13H18V15M4.93,4.92L6.34,6.33C9.46,3.2 14.53,3.2 17.66,6.33L19.07,4.92C15.17,1 8.84,1 4.93,4.92M7.76,7.75L9.17,9.16C10.73,7.6 13.26,7.6 14.83,9.16L16.24,7.75C13.9,5.41 10.1,5.41 7.76,7.75Z" />
    </g>
    <g id="mdi-cricket" transform="translate(432 180) scale(1.5)" fill="#555">
      <path d="M14.34,17.77L15.75,16.36L20,20.58L18.56,22L14.34,17.77M18.5,2A3.5,3.5 0 0,1 22,5.5A3.5,3.5 0 0,1 18.5,9A3.5,3.5 0 0,1 15,5.5A3.5,3.5 0 0,1 18.5,2M2.24,7.11L5.07,4.28C5.46,3.89 6.09,3.89 6.5,4.28L14.97,12.77C15.36,13.16 15.36,13.79 14.97,14.18L12.14,17C11.75,17.4 11.12,17.4 10.72,17L2.24,8.53C1.85,8.13 1.85,7.5 2.24,7.11Z" />
    </g>
    <g id="mdi-cricket" transform="translate(468 180) scale(1.5)" fill="#fff">
      <path d="M14.34,17.77L15.75,16.36L20,20.58L18.56,22L14.34,17.77M18.5,2A3.5,3.5 0 0,1 22,5.5A3.5,3.5 0 0,1 18.5,9A3.5,3.5 0 0,1 15,5.5A3.5,3.5 0 0,1 18.5,2M2.24,7.11L5.07,4.28C5.46,3.89 6.09,3.89 6.5,4.28L14.97,12.77C15.36,13.16 15.36,13.79 14.97,14.18L12.14,17C11.75,17.4 11.12,17.4 10.72,17L2.24,8.53C1.85,8.13 1.85,7.5 2.24,7.11Z" />
    </g>
    <g id="mdi-crop" transform="translate(504 180) scale(1.5)" fill="#555">
      <path d="M7,17V1H5V5H1V7H5V17A2,2 0 0,0 7,19H17V23H19V19H23V17M17,15H19V7C19,5.89 18.1,5 17,5H9V7H17V15Z" />
    </g>
    <g id="mdi-crop" transform="translate(540 180) scale(1.5)" fill="#fff">
      <path d="M7,17V1H5V5H1V7H5V17A2,2 0 0,0 7,19H17V23H19V19H23V17M17,15H19V7C19,5.89 18.1,5 17,5H9V7H17V15Z" />
    </g>
    <g id="mdi-crop-free" transform="translate(576 180) scale(1.5)" fill="#555">
      <path d="M19,3H15V5H19V9H21V5C21,3.89 20.1,3 19,3M19,19H15V21H19A2,2 0 0,0 21,19V15H19M5,15H3V19A2,2 0 0,0 5,21H9V19H5M3,5V9H5V5H9V3H5A2,2 0 0,0 3,5Z" />
    </g>
    <g id="mdi-crop-free" transform="translate(612 180) scale(1.5)" fill="#fff">
      <path d="M19,3H15V5H19V9H21V5C21,3.89 20.1,3 19,3M19,19H15V21H19A2,2 0 0,0 21,19V15H19M5,15H3V19A2,2 0 0,0 5,21H9V19H5M3,5V9H5V5H9V3H5A2,2 0 0,0 3,5Z" />
    </g>
    <g id="mdi-crop-landscape" transform="translate(648 180) scale(1.5)" fill="#555">
      <path d="M19,17H5V7H19M19,5H5A2,2 0 0,0 3,7V17A2,2 0 0,0 5,19H19A2,2 0 0,0 21,17V7C21,5.89 20.1,5 19,5Z" />
    </g>
    <g id="mdi-crop-landscape" transform="translate(684 180) scale(1.5)" fill="#fff">
      <path d="M19,17H5V7H19M19,5H5A2,2 0 0,0 3,7V17A2,2 0 0,0 5,19H19A2,2 0 0,0 21,17V7C21,5.89 20.1,5 19,5Z" />
    </g>
    <g id="mdi-crop-portrait" transform="translate(0 216) scale(1.5)" fill="#555">
      <path d="M17,19H7V5H17M17,3H7A2,2 0 0,0 5,5V19A2,2 0 0,0 7,21H17A2,2 0 0,0 19,19V5C19,3.89 18.1,3 17,3Z" />
    </g>
    <g id="mdi-crop-portrait" transform="translate(36 216) scale(1.5)" fill="#fff">
      <path d="M17,19H7V5H17M17,3H7A2,2 0 0,0 5,5V19A2,2 0 0,0 7,21H17A2,2 0 0,0 19,19V5C19,3.89 18.1,3 17,3Z" />
    </g>
    <g id="mdi-crop-rotate" transform="translate(72 216) scale(1.5)" fill="#555">
      <path d="M7.47,21.5C4.2,19.93 1.86,16.76 1.5,13H0C0.5,19.16 5.66,24 11.95,24C12.18,24 12.39,24 12.61,23.97L8.8,20.15L7.47,21.5M12.05,0C11.82,0 11.61,0 11.39,0.04L15.2,3.85L16.53,2.5C19.8,4.07 22.14,7.24 22.5,11H24C23.5,4.84 18.34,0 12.05,0M16,14H18V8C18,6.89 17.1,6 16,6H10V8H16V14M8,16V4H6V6H4V8H6V16A2,2 0 0,0 8,18H16V20H18V18H20V16H8Z" />
    </g>
    <g id="mdi-crop-rotate" transform="translate(108 216) scale(1.5)" fill="#fff">
      <path d="M7.47,21.5C4.2,19.93 1.86,16.76 1.5,13H0C0.5,19.16 5.66,24 11.95,24C12.18,24 12.39,24 12.61,23.97L8.8,20.15L7.47,21.5M12.05,0C11.82,0 11.61,0 11.39,0.04L15.2,3.85L16.53,2.5C19.8,4.07 22.14,7.24 22.5,11H24C23.5,4.84 18.34,0 12.05,0M16,14H18V8C18,6.89 17.1,6 16,6H10V8H16V14M8,16V4H6V6H4V8H6V16A2,2 0 0,0 8,18H16V20H18V18H20V16H8Z" />
    </g>
    <g id="mdi-crop-square" transform="translate(144 216) scale(1.5)" fill="#555">
      <path d="M18,18H6V6H18M18,4H6A2,2 0 0,0 4,6V18A2,2 0 0,0 6,20H18A2,2 0 0,0 20,18V6C20,4.89 19.1,4 18,4Z" />
    </g>
    <g id="mdi-crop-square" transform="translate(180 216) scale(1.5)" fill="#fff">
      <path d="M18,18H6V6H18M18,4H6A2,2 0 0,0 4,6V18A2,2 0 0,0 6,20H18A2,2 0 0,0 20,18V6C20,4.89 19.1,4 18,4Z" />
    </g>
    <g id="mdi-crosshairs" transform="translate(216 216) scale(1.5)" fill="#555">
      <path d="M3.05,13H1V11H3.05C3.5,6.83 6.83,3.5 11,3.05V1H13V3.05C17.17,3.5 20.5,6.83 20.95,11H23V13H20.95C20.5,17.17 17.17,20.5 13,20.95V23H11V20.95C6.83,20.5 3.5,17.17 3.05,13M12,5A7,7 0 0,0 5,12A7,7 0 0,0 12,19A7,7 0 0,0 19,12A7,7 0 0,0 12,5Z" />
    </g>
    <g id="mdi-crosshairs" transform="translate(252 216) scale(1.5)" fill="#fff">
      <path d="M3.05,13H1V11H3.05C3.5,6.83 6.83,3.5 11,3.05V1H13V3.05C17.17,3.5 20.5,6.83 20.95,11H23V13H20.95C20.5,17.17 17.17,20.5 13,20.95V23H11V20.95C6.83,20.5 3.5,17.17 3.05,13M12,5A7,7 0 0,0 5,12A7,7 0 0,0 12,19A7,7 0 0,0 19,12A7,7 0 0,0 12,5Z" />
    </g>
    <g id="mdi-crosshairs-gps" transform="translate(288 216) scale(1.5)" fill="#555">
      <path d="M12,8A4,4 0 0,1 16,12A4,4 0 0,1 12,16A4,4 0 0,1 8,12A4,4 0 0,1 12,8M3.05,13H1V11H3.05C3.5,6.83 6.83,3.5 11,3.05V1H13V3.05C17.17,3.5 20.5,6.83 20.95,11H23V13H20.95C20.5,17.17 17.17,20.5 13,20.95V23H11V20.95C6.83,20.5 3.5,17.17 3.05,13M12,5A7,7 0 0,0 5,12A7,7 0 0,0 12,19A7,7 0 0,0 19,12A7,7 0 0,0 12,5Z" />
    </g>
    <g id="mdi-crosshairs-gps" transform="translate(324 216) scale(1.5)" fill="#fff">
      <path d="M12,8A4,4 0 0,1 16,12A4,4 0 0,1 12,16A4,4 0 0,1 8,12A4,4 0 0,1 12,8M3.05,13H1V11H3.05C3.5,6.83 6.83,3.5 11,3.05V1H13V3.05C17.17,3.5 20.5,6.83 20.95,11H23V13H20.95C20.5,17.17 17.17,20.5 13,20.95V23H11V20.95C6.83,20.5 3.5,17.17 3.05,13M12,5A7,7 0 0,0 5,12A7,7 0 0,0 12,19A7,7 0 0,0 19,12A7,7 0 0,0 12,5Z" />
    </g>
    <g id="mdi-crosshairs-off" transform="translate(360 216) scale(1.5)" fill="#555">
      <path d="M20.94 11C20.5 6.83 17.17 3.5 13 3.06V1H11V3.06C9.87 3.18 8.81 3.5 7.84 4.03L9.34 5.53C10.16 5.19 11.06 5 12 5C15.87 5 19 8.13 19 12C19 12.94 18.81 13.84 18.5 14.65L20 16.15C20.5 15.19 20.82 14.13 20.95 13H23V11H20.94M3 4.27L5.04 6.31C3.97 7.62 3.25 9.23 3.06 11H1V13H3.06C3.5 17.17 6.83 20.5 11 20.94V23H13V20.94C14.77 20.74 16.38 20.03 17.69 18.96L19.73 21L21 19.73L4.27 3L3 4.27M16.27 17.54C15.09 18.45 13.61 19 12 19C8.13 19 5 15.87 5 12C5 10.39 5.55 8.91 6.46 7.73L16.27 17.54Z" />
    </g>
    <g id="mdi-crosshairs-off" transform="translate(396 216) scale(1.5)" fill="#fff">
      <path d="M20.94 11C20.5 6.83 17.17 3.5 13 3.06V1H11V3.06C9.87 3.18 8.81 3.5 7.84 4.03L9.34 5.53C10.16 5.19 11.06 5 12 5C15.87 5 19 8.13 19 12C19 12.94 18.81 13.84 18.5 14.65L20 16.15C20.5 15.19 20.82 14.13 20.95 13H23V11H20.94M3 4.27L5.04 6.31C3.97 7.62 3.25 9.23 3.06 11H1V13H3.06C3.5 17.17 6.83 20.5 11 20.94V23H13V20.94C14.77 20.74 16.38 20.03 17.69 18.96L19.73 21L21 19.73L4.27 3L3 4.27M16.27 17.54C15.09 18.45 13.61 19 12 19C8.13 19 5 15.87 5 12C5 10.39 5.55 8.91 6.46 7.73L16.27 17.54Z" />
    </g>
    <g id="mdi-crosshairs-question" transform="translate(432 216) scale(1.5)" fill="#555">
      <path d="M3.05 13H1V11H3.05C3.5 6.83 6.83 3.5 11 3.05V1H13V3.05C17.17 3.5 20.5 6.83 20.95 11H23V13H20.95C20.5 17.17 17.17 20.5 13 20.95V23H11V20.95C6.83 20.5 3.5 17.17 3.05 13M12 5C8.13 5 5 8.13 5 12S8.13 19 12 19 19 15.87 19 12 15.87 5 12 5M11.13 17.25H12.88V15.5H11.13V17.25M12 6.75C10.07 6.75 8.5 8.32 8.5 10.25H10.25C10.25 9.28 11.03 8.5 12 8.5S13.75 9.28 13.75 10.25C13.75 12 11.13 11.78 11.13 14.63H12.88C12.88 12.66 15.5 12.44 15.5 10.25C15.5 8.32 13.93 6.75 12 6.75Z" />
    </g>
    <g id="mdi-crosshairs-question" transform="translate(468 216) scale(1.5)" fill="#fff">
      <path d="M3.05 13H1V11H3.05C3.5 6.83 6.83 3.5 11 3.05V1H13V3.05C17.17 3.5 20.5 6.83 20.95 11H23V13H20.95C20.5 17.17 17.17 20.5 13 20.95V23H11V20.95C6.83 20.5 3.5 17.17 3.05 13M12 5C8.13 5 5 8.13 5 12S8.13 19 12 19 19 15.87 19 12 15.87 5 12 5M11.13 17.25H12.88V15.5H11.13V17.25M12 6.75C10.07 6.75 8.5 8.32 8.5 10.25H10.25C10.25 9.28 11.03 8.5 12 8.5S13.75 9.28 13.75 10.25C13.75 12 11.13 11.78 11.13 14.63H12.88C12.88 12.66 15.5 12.44 15.5 10.25C15.5 8.32 13.93 6.75 12 6.75Z" />
    </g>
    <g id="mdi-crown" transform="translate(504 216) scale(1.5)" fill="#555">
      <path d="M5 16L3 5L8.5 10L12 4L15.5 10L21 5L19 16H5M19 19C19 19.6 18.6 20 18 20H6C5.4 20 5 19.6 5 19V18H19V19Z" />
    </g>
    <g id="mdi-crown" transform="translate(540 216) scale(1.5)" fill="#fff">
      <path d="M5 16L3 5L8.5 10L12 4L15.5 10L21 5L19 16H5M19 19C19 19.6 18.6 20 18 20H6C5.4 20 5 19.6 5 19V18H19V19Z" />
    </g>
    <g id="mdi-crown-outline" transform="translate(576 216) scale(1.5)" fill="#555">
      <path d="M12 8L15 13.2L18 10.5L17.3 14H6.7L6 10.5L9 13.2L12 8M12 4L8.5 10L3 5L5 16H19L21 5L15.5 10L12 4M19 18H5V19C5 19.6 5.4 20 6 20H18C18.6 20 19 19.6 19 19V18Z" />
    </g>
    <g id="mdi-crown-outline" transform="translate(612 216) scale(1.5)" fill="#fff">
      <path d="M12 8L15 13.2L18 10.5L17.3 14H6.7L6 10.5L9 13.2L12 8M12 4L8.5 10L3 5L5 16H19L21 5L15.5 10L12 4M19 18H5V19C5 19.6 5.4 20 6 20H18C18.6 20 19 19.6 19 19V18Z" />
    </g>
    <g id="mdi-cryengine" transform="translate(648 216) scale(1.5)" fill="#555">
      <path d="M23.03,12.4M23.03,12.5V12.5C23,13 20.91,15.23 17.82,16.24C14.05,17.5 7.97,17.03 7.97,12.3C7.97,10.08 9.78,8.27 12,8.27C14.25,8.27 16.05,10.09 16.05,12.31C16.05,13.39 15.58,14.44 14.87,15.18C15.54,15.17 17.94,15 20.21,13.12C20.46,12.88 20.62,12.68 20.69,12.55C20.71,12.5 20.74,12.46 20.73,12.4C20.73,11.92 18.12,8.19 12.72,7.12C19.22,7.46 23,11.32 23.03,12.4V12.5H23.03M12,10C10.74,10 9.71,11.04 9.71,12.3C9.71,13.57 10.74,14.59 12,14.59C13.27,14.59 14.29,13.57 14.29,12.3C14.29,11.04 13.27,10 12,10M3.31,12.34C3.31,12.34 3.31,12.31 3.31,12.42V12.42C3.41,12.94 4.82,15.41 10.28,16.88C3.96,16.37 1.12,13.28 1.04,12.42H1.03C1.03,12.31 1.03,12.36 1.03,12.35C1.03,11.5 4.96,7.58 10.92,7.15C6.14,8.26 3.31,11.87 3.31,12.34V12.34Z" />
    </g>
    <g id="mdi-cryengine" transform="translate(684 216) scale(1.5)" fill="#fff">
      <path d="M23.03,12.4M23.03,12.5V12.5C23,13 20.91,15.23 17.82,16.24C14.05,17.5 7.97,17.03 7.97,12.3C7.97,10.08 9.78,8.27 12,8.27C14.25,8.27 16.05,10.09 16.05,12.31C16.05,13.39 15.58,14.44 14.87,15.18C15.54,15.17 17.94,15 20.21,13.12C20.46,12.88 20.62,12.68 20.69,12.55C20.71,12.5 20.74,12.46 20.73,12.4C20.73,11.92 18.12,8.19 12.72,7.12C19.22,7.46 23,11.32 23.03,12.4V12.5H23.03M12,10C10.74,10 9.71,11.04 9.71,12.3C9.71,13.57 10.74,14.59 12,14.59C13.27,14.59 14.29,13.57 14.29,12.3C14.29,11.04 13.27,10 12,10M3.31,12.34C3.31,12.34 3.31,12.31 3.31,12.42V12.42C3.41,12.94 4.82,15.41 10.28,16.88C3.96,16.37 1.12,13.28 1.04,12.42H1.03C1.03,12.31 1.03,12.36 1.03,12.35C1.03,11.5 4.96,7.58 10.92,7.15C6.14,8.26 3.31,11.87 3.31,12.34V12.34Z" />
    </g>
    <g id="mdi-crystal-ball" transform="translate(0 252) scale(1.5)" fill="#555">
      <path d="M9.38,8.38L11.5,9.34L13.62,8.38L12.66,10.5L13.62,12.62L11.5,11.66L9.38,12.62L10.34,10.5L9.38,8.38M16.5,2.5L17.59,5.41L20.5,6.5L17.59,7.59L16.5,10.5L15.41,7.59L12.5,6.5L15.41,5.41L16.5,2.5M6,19H7V18A1,1 0 0,1 8,17H8.26C6,15.7 4.5,13.28 4.5,10.5A7.5,7.5 0 0,1 12,3C13.05,3 14.05,3.22 14.96,3.61L14.59,4.59L13.17,5.12C12.79,5.04 12.4,5 12,5A5.5,5.5 0 0,0 6.5,10.5A5.5,5.5 0 0,0 12,16C14.91,16 17.3,13.73 17.5,10.87L18.41,8.41L19.12,8.14C19.37,8.88 19.5,9.68 19.5,10.5C19.5,13.28 18,15.7 15.74,17H16A1,1 0 0,1 17,18V19H18A2,2 0 0,1 20,21V22H4V21A2,2 0 0,1 6,19Z" />
    </g>
    <g id="mdi-crystal-ball" transform="translate(36 252) scale(1.5)" fill="#fff">
      <path d="M9.38,8.38L11.5,9.34L13.62,8.38L12.66,10.5L13.62,12.62L11.5,11.66L9.38,12.62L10.34,10.5L9.38,8.38M16.5,2.5L17.59,5.41L20.5,6.5L17.59,7.59L16.5,10.5L15.41,7.59L12.5,6.5L15.41,5.41L16.5,2.5M6,19H7V18A1,1 0 0,1 8,17H8.26C6,15.7 4.5,13.28 4.5,10.5A7.5,7.5 0 0,1 12,3C13.05,3 14.05,3.22 14.96,3.61L14.59,4.59L13.17,5.12C12.79,5.04 12.4,5 12,5A5.5,5.5 0 0,0 6.5,10.5A5.5,5.5 0 0,0 12,16C14.91,16 17.3,13.73 17.5,10.87L18.41,8.41L19.12,8.14C19.37,8.88 19.5,9.68 19.5,10.5C19.5,13.28 18,15.7 15.74,17H16A1,1 0 0,1 17,18V19H18A2,2 0 0,1 20,21V22H4V21A2,2 0 0,1 6,19Z" />
    </g>
    <g id="mdi-cube" transform="translate(72 252) scale(1.5)" fill="#555">
      <path d="M21,16.5C21,16.88 20.79,17.21 20.47,17.38L12.57,21.82C12.41,21.94 12.21,22 12,22C11.79,22 11.59,21.94 11.43,21.82L3.53,17.38C3.21,17.21 3,16.88 3,16.5V7.5C3,7.12 3.21,6.79 3.53,6.62L11.43,2.18C11.59,2.06 11.79,2 12,2C12.21,2 12.41,2.06 12.57,2.18L20.47,6.62C20.79,6.79 21,7.12 21,7.5V16.5M12,4.15L6.04,7.5L12,10.85L17.96,7.5L12,4.15Z" />
    </g>
    <g id="mdi-cube" transform="translate(108 252) scale(1.5)" fill="#fff">
      <path d="M21,16.5C21,16.88 20.79,17.21 20.47,17.38L12.57,21.82C12.41,21.94 12.21,22 12,22C11.79,22 11.59,21.94 11.43,21.82L3.53,17.38C3.21,17.21 3,16.88 3,16.5V7.5C3,7.12 3.21,6.79 3.53,6.62L11.43,2.18C11.59,2.06 11.79,2 12,2C12.21,2 12.41,2.06 12.57,2.18L20.47,6.62C20.79,6.79 21,7.12 21,7.5V16.5M12,4.15L6.04,7.5L12,10.85L17.96,7.5L12,4.15Z" />
    </g>
    <g id="mdi-cube-off" transform="translate(144 252) scale(1.5)" fill="#555">
      <path d="M20.84 22.73L17.28 19.17L12.57 21.82C12.41 21.94 12.21 22 12 22S11.59 21.94 11.43 21.82L3.53 17.38C3.21 17.21 3 16.88 3 16.5V7.5C3 7.12 3.21 6.79 3.53 6.62L4.3 6.19L1.11 3L2.39 1.73L22.11 21.46L20.84 22.73M12 4.15L17.96 7.5L13.31 10.11L20.53 17.33C20.82 17.16 21 16.85 21 16.5V7.5C21 7.12 20.79 6.79 20.47 6.62L12.57 2.18C12.41 2.06 12.21 2 12 2S11.59 2.06 11.43 2.18L7.56 4.36L9 5.82L12 4.15Z" />
    </g>
    <g id="mdi-cube-off" transform="translate(180 252) scale(1.5)" fill="#fff">
      <path d="M20.84 22.73L17.28 19.17L12.57 21.82C12.41 21.94 12.21 22 12 22S11.59 21.94 11.43 21.82L3.53 17.38C3.21 17.21 3 16.88 3 16.5V7.5C3 7.12 3.21 6.79 3.53 6.62L4.3 6.19L1.11 3L2.39 1.73L22.11 21.46L20.84 22.73M12 4.15L17.96 7.5L13.31 10.11L20.53 17.33C20.82 17.16 21 16.85 21 16.5V7.5C21 7.12 20.79 6.79 20.47 6.62L12.57 2.18C12.41 2.06 12.21 2 12 2S11.59 2.06 11.43 2.18L7.56 4.36L9 5.82L12 4.15Z" />
    </g>
    <g id="mdi-cube-off-outline" transform="translate(216 252) scale(1.5)" fill="#555">
      <path d="M22.11 21.46L2.39 1.73L1.11 3L4.3 6.19L3.53 6.62C3.21 6.79 3 7.12 3 7.5V16.5C3 16.88 3.21 17.21 3.53 17.38L11.43 21.82C11.59 21.94 11.79 22 12 22S12.41 21.94 12.57 21.82L17.28 19.17L20.84 22.73L22.11 21.46M5 15.91V9.21L10.29 12.18L11 12.89V19.29L5 15.91M13 19.29V14.89L15.82 17.7L13 19.29M9 5.82L7.56 4.36L11.43 2.18C11.59 2.06 11.79 2 12 2S12.41 2.06 12.57 2.18L20.47 6.62C20.79 6.79 21 7.12 21 7.5V16.5C21 16.85 20.82 17.16 20.53 17.33L19 15.8V9.21L14.78 11.58L13.31 10.11L17.96 7.5L12 4.15L9 5.82Z" />
    </g>
    <g id="mdi-cube-off-outline" transform="translate(252 252) scale(1.5)" fill="#fff">
      <path d="M22.11 21.46L2.39 1.73L1.11 3L4.3 6.19L3.53 6.62C3.21 6.79 3 7.12 3 7.5V16.5C3 16.88 3.21 17.21 3.53 17.38L11.43 21.82C11.59 21.94 11.79 22 12 22S12.41 21.94 12.57 21.82L17.28 19.17L20.84 22.73L22.11 21.46M5 15.91V9.21L10.29 12.18L11 12.89V19.29L5 15.91M13 19.29V14.89L15.82 17.7L13 19.29M9 5.82L7.56 4.36L11.43 2.18C11.59 2.06 11.79 2 12 2S12.41 2.06 12.57 2.18L20.47 6.62C20.79 6.79 21 7.12 21 7.5V16.5C21 16.85 20.82 17.16 20.53 17.33L19 15.8V9.21L14.78 11.58L13.31 10.11L17.96 7.5L12 4.15L9 5.82Z" />
    </g>
    <g id="mdi-cube-outline" transform="translate(288 252) scale(1.5)" fill="#555">
      <path d="M21,16.5C21,16.88 20.79,17.21 20.47,17.38L12.57,21.82C12.41,21.94 12.21,22 12,22C11.79,22 11.59,21.94 11.43,21.82L3.53,17.38C3.21,17.21 3,16.88 3,16.5V7.5C3,7.12 3.21,6.79 3.53,6.62L11.43,2.18C11.59,2.06 11.79,2 12,2C12.21,2 12.41,2.06 12.57,2.18L20.47,6.62C20.79,6.79 21,7.12 21,7.5V16.5M12,4.15L6.04,7.5L12,10.85L17.96,7.5L12,4.15M5,15.91L11,19.29V12.58L5,9.21V15.91M19,15.91V9.21L13,12.58V19.29L19,15.91Z" />
    </g>
    <g id="mdi-cube-outline" transform="translate(324 252) scale(1.5)" fill="#fff">
      <path d="M21,16.5C21,16.88 20.79,17.21 20.47,17.38L12.57,21.82C12.41,21.94 12.21,22 12,22C11.79,22 11.59,21.94 11.43,21.82L3.53,17.38C3.21,17.21 3,16.88 3,16.5V7.5C3,7.12 3.21,6.79 3.53,6.62L11.43,2.18C11.59,2.06 11.79,2 12,2C12.21,2 12.41,2.06 12.57,2.18L20.47,6.62C20.79,6.79 21,7.12 21,7.5V16.5M12,4.15L6.04,7.5L12,10.85L17.96,7.5L12,4.15M5,15.91L11,19.29V12.58L5,9.21V15.91M19,15.91V9.21L13,12.58V19.29L19,15.91Z" />
    </g>
    <g id="mdi-cube-scan" transform="translate(360 252) scale(1.5)" fill="#555">
      <path d="M17,22V20H20V17H22V20.5C22,20.89 21.84,21.24 21.54,21.54C21.24,21.84 20.89,22 20.5,22H17M7,22H3.5C3.11,22 2.76,21.84 2.46,21.54C2.16,21.24 2,20.89 2,20.5V17H4V20H7V22M17,2H20.5C20.89,2 21.24,2.16 21.54,2.46C21.84,2.76 22,3.11 22,3.5V7H20V4H17V2M7,2V4H4V7H2V3.5C2,3.11 2.16,2.76 2.46,2.46C2.76,2.16 3.11,2 3.5,2H7M13,17.25L17,14.95V10.36L13,12.66V17.25M12,10.92L16,8.63L12,6.28L8,8.63L12,10.92M7,14.95L11,17.25V12.66L7,10.36V14.95M18.23,7.59C18.73,7.91 19,8.34 19,8.91V15.23C19,15.8 18.73,16.23 18.23,16.55L12.75,19.73C12.25,20.05 11.75,20.05 11.25,19.73L5.77,16.55C5.27,16.23 5,15.8 5,15.23V8.91C5,8.34 5.27,7.91 5.77,7.59L11.25,4.41C11.5,4.28 11.75,4.22 12,4.22C12.25,4.22 12.5,4.28 12.75,4.41L18.23,7.59Z" />
    </g>
    <g id="mdi-cube-scan" transform="translate(396 252) scale(1.5)" fill="#fff">
      <path d="M17,22V20H20V17H22V20.5C22,20.89 21.84,21.24 21.54,21.54C21.24,21.84 20.89,22 20.5,22H17M7,22H3.5C3.11,22 2.76,21.84 2.46,21.54C2.16,21.24 2,20.89 2,20.5V17H4V20H7V22M17,2H20.5C20.89,2 21.24,2.16 21.54,2.46C21.84,2.76 22,3.11 22,3.5V7H20V4H17V2M7,2V4H4V7H2V3.5C2,3.11 2.16,2.76 2.46,2.46C2.76,2.16 3.11,2 3.5,2H7M13,17.25L17,14.95V10.36L13,12.66V17.25M12,10.92L16,8.63L12,6.28L8,8.63L12,10.92M7,14.95L11,17.25V12.66L7,10.36V14.95M18.23,7.59C18.73,7.91 19,8.34 19,8.91V15.23C19,15.8 18.73,16.23 18.23,16.55L12.75,19.73C12.25,20.05 11.75,20.05 11.25,19.73L5.77,16.55C5.27,16.23 5,15.8 5,15.23V8.91C5,8.34 5.27,7.91 5.77,7.59L11.25,4.41C11.5,4.28 11.75,4.22 12,4.22C12.25,4.22 12.5,4.28 12.75,4.41L18.23,7.59Z" />
    </g>
    <g id="mdi-cube-send" transform="translate(432 252) scale(1.5)" fill="#555">
      <path d="M16,4L9,8.04V15.96L16,20L23,15.96V8.04M16,6.31L19.8,8.5L16,10.69L12.21,8.5M0,7V9H7V7M11,10.11L15,12.42V17.11L11,14.81M21,10.11V14.81L17,17.11V12.42M2,11V13H7V11M4,15V17H7V15" />
    </g>
    <g id="mdi-cube-send" transform="translate(468 252) scale(1.5)" fill="#fff">
      <path d="M16,4L9,8.04V15.96L16,20L23,15.96V8.04M16,6.31L19.8,8.5L16,10.69L12.21,8.5M0,7V9H7V7M11,10.11L15,12.42V17.11L11,14.81M21,10.11V14.81L17,17.11V12.42M2,11V13H7V11M4,15V17H7V15" />
    </g>
    <g id="mdi-cube-unfolded" transform="translate(504 252) scale(1.5)" fill="#555">
      <path d="M6,9V4H13V9H23V16H18V21H11V16H1V9H6M16,16H13V19H16V16M8,9H11V6H8V9M6,14V11H3V14H6M18,11V14H21V11H18M13,11V14H16V11H13M8,11V14H11V11H8Z" />
    </g>
    <g id="mdi-cube-unfolded" transform="translate(540 252) scale(1.5)" fill="#fff">
      <path d="M6,9V4H13V9H23V16H18V21H11V16H1V9H6M16,16H13V19H16V16M8,9H11V6H8V9M6,14V11H3V14H6M18,11V14H21V11H18M13,11V14H16V11H13M8,11V14H11V11H8Z" />
    </g>
    <g id="mdi-cup" transform="translate(576 252) scale(1.5)" fill="#555">
      <path d="M18.32,8H5.67L5.23,4H18.77M3,2L5,20.23C5.13,21.23 5.97,22 7,22H17C18,22 18.87,21.23 19,20.23L21,2H3Z" />
    </g>
    <g id="mdi-cup" transform="translate(612 252) scale(1.5)" fill="#fff">
      <path d="M18.32,8H5.67L5.23,4H18.77M3,2L5,20.23C5.13,21.23 5.97,22 7,22H17C18,22 18.87,21.23 19,20.23L21,2H3Z" />
    </g>
    <g id="mdi-cup-off" transform="translate(648 252) scale(1.5)" fill="#555">
      <path d="M1,4.27L2.28,3L21,21.72L19.73,23L18.27,21.54C17.93,21.83 17.5,22 17,22H7C5.97,22 5.13,21.23 5,20.23L3.53,6.8L1,4.27M18.32,8L18.77,4H5.82L3.82,2H21L19.29,17.47L9.82,8H18.32Z" />
    </g>
    <g id="mdi-cup-off" transform="translate(684 252) scale(1.5)" fill="#fff">
      <path d="M1,4.27L2.28,3L21,21.72L19.73,23L18.27,21.54C17.93,21.83 17.5,22 17,22H7C5.97,22 5.13,21.23 5,20.23L3.53,6.8L1,4.27M18.32,8L18.77,4H5.82L3.82,2H21L19.29,17.47L9.82,8H18.32Z" />
    </g>
    <g id="mdi-cup-off-outline" transform="translate(0 288) scale(1.5)" fill="#555">
      <path d="M3.83 2L5.83 4H18.78L17.5 15.66L19.3 17.5L21 2M2.27 3L1 4.27L3.53 6.8L5 20.23C5.13 21.23 5.97 22 7 22H17C17.47 22 17.91 21.82 18.26 21.54L19.73 23L21 21.73M5.78 9.06L16.73 20H7Z" />
    </g>
    <g id="mdi-cup-off-outline" transform="translate(36 288) scale(1.5)" fill="#fff">
      <path d="M3.83 2L5.83 4H18.78L17.5 15.66L19.3 17.5L21 2M2.27 3L1 4.27L3.53 6.8L5 20.23C5.13 21.23 5.97 22 7 22H17C17.47 22 17.91 21.82 18.26 21.54L19.73 23L21 21.73M5.78 9.06L16.73 20H7Z" />
    </g>
    <g id="mdi-cup-outline" transform="translate(72 288) scale(1.5)" fill="#555">
      <path d="M3 2L5 20.23C5.13 21.23 5.97 22 7 22H17C18 22 18.87 21.23 19 20.23L21 2H3M5.22 4H18.78L17 20H7L5.22 4Z" />
    </g>
    <g id="mdi-cup-outline" transform="translate(108 288) scale(1.5)" fill="#fff">
      <path d="M3 2L5 20.23C5.13 21.23 5.97 22 7 22H17C18 22 18.87 21.23 19 20.23L21 2H3M5.22 4H18.78L17 20H7L5.22 4Z" />
    </g>
    <g id="mdi-cup-water" transform="translate(144 288) scale(1.5)" fill="#555">
      <path d="M18.32,8H5.67L5.23,4H18.77M12,19A3,3 0 0,1 9,16C9,14 12,10.6 12,10.6C12,10.6 15,14 15,16A3,3 0 0,1 12,19M3,2L5,20.23C5.13,21.23 5.97,22 7,22H17C18,22 18.87,21.23 19,20.23L21,2H3Z" />
    </g>
    <g id="mdi-cup-water" transform="translate(180 288) scale(1.5)" fill="#fff">
      <path d="M18.32,8H5.67L5.23,4H18.77M12,19A3,3 0 0,1 9,16C9,14 12,10.6 12,10.6C12,10.6 15,14 15,16A3,3 0 0,1 12,19M3,2L5,20.23C5.13,21.23 5.97,22 7,22H17C18,22 18.87,21.23 19,20.23L21,2H3Z" />
    </g>
    <g id="mdi-cupboard" transform="translate(216 288) scale(1.5)" fill="#555">
      <path d="M17 2H7C5.9 2 5 2.9 5 4V19C5 20.11 5.9 21 7 21V22H9V21H15V22H17V21C18.11 21 19 20.11 19 19V4C19 2.9 18.11 2 17 2M10 18H8V15H10V18M16 18H14V15H16V18M17 12H7V9H17V12M17 7H7V4H17V7Z" />
    </g>
    <g id="mdi-cupboard" transform="translate(252 288) scale(1.5)" fill="#fff">
      <path d="M17 2H7C5.9 2 5 2.9 5 4V19C5 20.11 5.9 21 7 21V22H9V21H15V22H17V21C18.11 21 19 20.11 19 19V4C19 2.9 18.11 2 17 2M10 18H8V15H10V18M16 18H14V15H16V18M17 12H7V9H17V12M17 7H7V4H17V7Z" />
    </g>
    <g id="mdi-cupboard-outline" transform="translate(288 288) scale(1.5)" fill="#555">
      <path d="M7 2C5.9 2 5 2.9 5 4V19C5 20.11 5.9 21 7 21V22H9V21H15V22H17V21C18.11 21 19 20.11 19 19V4C19 2.9 18.11 2 17 2H7M7 4H17V7H7V4M7 9H17V12H7V9M7 14H11V19H7V14M13 14H17V19H13V14M8 15V18H10V15H8M14 15V18H16V15H14Z" />
    </g>
    <g id="mdi-cupboard-outline" transform="translate(324 288) scale(1.5)" fill="#fff">
      <path d="M7 2C5.9 2 5 2.9 5 4V19C5 20.11 5.9 21 7 21V22H9V21H15V22H17V21C18.11 21 19 20.11 19 19V4C19 2.9 18.11 2 17 2H7M7 4H17V7H7V4M7 9H17V12H7V9M7 14H11V19H7V14M13 14H17V19H13V14M8 15V18H10V15H8M14 15V18H16V15H14Z" />
    </g>
    <g id="mdi-cupcake" transform="translate(360 288) scale(1.5)" fill="#555">
      <path d="M12,1.5A2.5,2.5 0 0,1 14.5,4A2.5,2.5 0 0,1 12,6.5A2.5,2.5 0 0,1 9.5,4A2.5,2.5 0 0,1 12,1.5M15.87,5C18,5 20,7 20,9C22.7,9 22.7,13 20,13H4C1.3,13 1.3,9 4,9C4,7 6,5 8.13,5C8.57,6.73 10.14,8 12,8C13.86,8 15.43,6.73 15.87,5M5,15H8L9,22H7L5,15M10,15H14L13,22H11L10,15M16,15H19L17,22H15L16,15Z" />
    </g>
    <g id="mdi-cupcake" transform="translate(396 288) scale(1.5)" fill="#fff">
      <path d="M12,1.5A2.5,2.5 0 0,1 14.5,4A2.5,2.5 0 0,1 12,6.5A2.5,2.5 0 0,1 9.5,4A2.5,2.5 0 0,1 12,1.5M15.87,5C18,5 20,7 20,9C22.7,9 22.7,13 20,13H4C1.3,13 1.3,9 4,9C4,7 6,5 8.13,5C8.57,6.73 10.14,8 12,8C13.86,8 15.43,6.73 15.87,5M5,15H8L9,22H7L5,15M10,15H14L13,22H11L10,15M16,15H19L17,22H15L16,15Z" />
    </g>
    <g id="mdi-curling" transform="translate(432 288) scale(1.5)" fill="#555">
      <path d="M10,3V5C12.5,5 13.9,5.05 14.72,5.41C15.26,5.65 15.73,6.21 16.25,7H5V9H19.62L18.89,7.55C17.86,5.5 16.96,4.22 15.53,3.59C14.1,2.95 12.5,3 10,3M6,11C3.78,11 2,12.78 2,15V18C2,20.22 3.78,22 6,22H18C20.22,22 22,20.22 22,18V15C22,12.78 20.22,11 18,11H6Z" />
    </g>
    <g id="mdi-curling" transform="translate(468 288) scale(1.5)" fill="#fff">
      <path d="M10,3V5C12.5,5 13.9,5.05 14.72,5.41C15.26,5.65 15.73,6.21 16.25,7H5V9H19.62L18.89,7.55C17.86,5.5 16.96,4.22 15.53,3.59C14.1,2.95 12.5,3 10,3M6,11C3.78,11 2,12.78 2,15V18C2,20.22 3.78,22 6,22H18C20.22,22 22,20.22 22,18V15C22,12.78 20.22,11 18,11H6Z" />
    </g>
    <g id="mdi-currency-bdt" transform="translate(504 288) scale(1.5)" fill="#555">
      <path d="M18.09,10.5V9H9.59V4.5A1.5,1.5 0 0,0 8.09,3A1.5,1.5 0 0,0 6.59,4.5A1.5,1.5 0 0,0 8.09,6V9H5.09V10.5H8.09V16.7C8.09,19.06 10,20.97 12.34,21C14.68,20.96 16.54,19.04 16.5,16.7C16.5,15.11 15.75,13.61 14.5,12.62C14.28,12.44 14.05,12.28 13.8,12.15C13.58,12.05 13.34,12 13.1,12C12.39,12 11.74,12.39 11.39,13C11.2,13.3 11.1,13.65 11.1,14C11.11,15.1 12,16 13.11,16C13.73,16 14.31,15.69 14.69,15.2C14.9,15.67 15,16.18 15,16.7C15.04,18.2 13.86,19.45 12.34,19.5C10.81,19.5 9.58,18.23 9.59,16.7V10.5H18.09Z" />
    </g>
    <g id="mdi-currency-bdt" transform="translate(540 288) scale(1.5)" fill="#fff">
      <path d="M18.09,10.5V9H9.59V4.5A1.5,1.5 0 0,0 8.09,3A1.5,1.5 0 0,0 6.59,4.5A1.5,1.5 0 0,0 8.09,6V9H5.09V10.5H8.09V16.7C8.09,19.06 10,20.97 12.34,21C14.68,20.96 16.54,19.04 16.5,16.7C16.5,15.11 15.75,13.61 14.5,12.62C14.28,12.44 14.05,12.28 13.8,12.15C13.58,12.05 13.34,12 13.1,12C12.39,12 11.74,12.39 11.39,13C11.2,13.3 11.1,13.65 11.1,14C11.11,15.1 12,16 13.11,16C13.73,16 14.31,15.69 14.69,15.2C14.9,15.67 15,16.18 15,16.7C15.04,18.2 13.86,19.45 12.34,19.5C10.81,19.5 9.58,18.23 9.59,16.7V10.5H18.09Z" />
    </g>
    <g id="mdi-currency-brl" transform="translate(576 288) scale(1.5)" fill="#555">
      <path d="M12,15H14C14,16.08 15.37,17 17,17C18.63,17 20,16.08 20,15C20,13.9 18.96,13.5 16.76,12.97C14.64,12.44 12,11.78 12,9C12,7.21 13.47,5.69 15.5,5.18V3H18.5V5.18C20.53,5.69 22,7.21 22,9H20C20,7.92 18.63,7 17,7C15.37,7 14,7.92 14,9C14,10.1 15.04,10.5 17.24,11.03C19.36,11.56 22,12.22 22,15C22,16.79 20.53,18.31 18.5,18.82V21H15.5V18.82C13.47,18.31 12,16.79 12,15M2,3H5.5A5.5,5.5 0 0,1 11,8.5C11,10.69 9.71,12.59 7.86,13.47L11.64,21H9.4L5.88,14H5.5L4,14V21H2V3M5.5,12A3.5,3.5 0 0,0 9,8.5A3.5,3.5 0 0,0 5.5,5H4V12H5.5Z" />
    </g>
    <g id="mdi-currency-brl" transform="translate(612 288) scale(1.5)" fill="#fff">
      <path d="M12,15H14C14,16.08 15.37,17 17,17C18.63,17 20,16.08 20,15C20,13.9 18.96,13.5 16.76,12.97C14.64,12.44 12,11.78 12,9C12,7.21 13.47,5.69 15.5,5.18V3H18.5V5.18C20.53,5.69 22,7.21 22,9H20C20,7.92 18.63,7 17,7C15.37,7 14,7.92 14,9C14,10.1 15.04,10.5 17.24,11.03C19.36,11.56 22,12.22 22,15C22,16.79 20.53,18.31 18.5,18.82V21H15.5V18.82C13.47,18.31 12,16.79 12,15M2,3H5.5A5.5,5.5 0 0,1 11,8.5C11,10.69 9.71,12.59 7.86,13.47L11.64,21H9.4L5.88,14H5.5L4,14V21H2V3M5.5,12A3.5,3.5 0 0,0 9,8.5A3.5,3.5 0 0,0 5.5,5H4V12H5.5Z" />
    </g>
    <g id="mdi-currency-btc" transform="translate(648 288) scale(1.5)" fill="#555">
      <path d="M6,4H8V2H10V4H12V2H14V4.03C16.25,4.28 18,6.18 18,8.5C18,9.8 17.45,11 16.56,11.8C17.73,12.61 18.5,13.97 18.5,15.5C18.5,18 16.5,20 14,20V22H12V20H10V22H8V20H6L6.5,18H8V6H6V4M10,13V18H14A2.5,2.5 0 0,0 16.5,15.5A2.5,2.5 0 0,0 14,13H10M10,6V11H13.5A2.5,2.5 0 0,0 16,8.5A2.5,2.5 0 0,0 13.5,6H13.5L10,6Z" />
    </g>
    <g id="mdi-currency-btc" transform="translate(684 288) scale(1.5)" fill="#fff">
      <path d="M6,4H8V2H10V4H12V2H14V4.03C16.25,4.28 18,6.18 18,8.5C18,9.8 17.45,11 16.56,11.8C17.73,12.61 18.5,13.97 18.5,15.5C18.5,18 16.5,20 14,20V22H12V20H10V22H8V20H6L6.5,18H8V6H6V4M10,13V18H14A2.5,2.5 0 0,0 16.5,15.5A2.5,2.5 0 0,0 14,13H10M10,6V11H13.5A2.5,2.5 0 0,0 16,8.5A2.5,2.5 0 0,0 13.5,6H13.5L10,6Z" />
    </g>
    <g id="mdi-currency-cny" transform="translate(0 324) scale(1.5)" fill="#555">
      <path d="M11,21V16H6V14H11V13.71L10.16,12H6V10H9.19L5.77,3H8L12,11.2L16,3H18.23L14.81,10H18V12H13.84L13,13.71V14H18V16H13V21H11Z" />
    </g>
    <g id="mdi-currency-cny" transform="translate(36 324) scale(1.5)" fill="#fff">
      <path d="M11,21V16H6V14H11V13.71L10.16,12H6V10H9.19L5.77,3H8L12,11.2L16,3H18.23L14.81,10H18V12H13.84L13,13.71V14H18V16H13V21H11Z" />
    </g>
    <g id="mdi-currency-eth" transform="translate(72 324) scale(1.5)" fill="#555">
      <path d="M6,5H18V7H6M7,11H17V13H7M5.5,17H18.5V19H5.5" />
    </g>
    <g id="mdi-currency-eth" transform="translate(108 324) scale(1.5)" fill="#fff">
      <path d="M6,5H18V7H6M7,11H17V13H7M5.5,17H18.5V19H5.5" />
    </g>
    <g id="mdi-currency-eur" transform="translate(144 324) scale(1.5)" fill="#555">
      <path d="M7.07,11L7,12L7.07,13H17.35L16.5,15H7.67C8.8,17.36 11.21,19 14,19C16.23,19 18.22,17.96 19.5,16.33V19.12C18,20.3 16.07,21 14,21C10.08,21 6.75,18.5 5.5,15H2L3,13H5.05L5,12L5.05,11H2L3,9H5.5C6.75,5.5 10.08,3 14,3C16.5,3 18.8,4.04 20.43,5.71L19.57,7.75C18.29,6.08 16.27,5 14,5C11.21,5 8.8,6.64 7.67,9H19.04L18.19,11H7.07Z" />
    </g>
    <g id="mdi-currency-eur" transform="translate(180 324) scale(1.5)" fill="#fff">
      <path d="M7.07,11L7,12L7.07,13H17.35L16.5,15H7.67C8.8,17.36 11.21,19 14,19C16.23,19 18.22,17.96 19.5,16.33V19.12C18,20.3 16.07,21 14,21C10.08,21 6.75,18.5 5.5,15H2L3,13H5.05L5,12L5.05,11H2L3,9H5.5C6.75,5.5 10.08,3 14,3C16.5,3 18.8,4.04 20.43,5.71L19.57,7.75C18.29,6.08 16.27,5 14,5C11.21,5 8.8,6.64 7.67,9H19.04L18.19,11H7.07Z" />
    </g>
    <g id="mdi-currency-eur-off" transform="translate(216 324) scale(1.5)" fill="#555">
      <path d="M22.11 21.46L2.39 1.73L1.11 3L6 7.89C5.81 8.25 5.64 8.62 5.5 9H3L2 11H5.05L5 12L5.05 13H3L2 15H5.5C6.75 18.5 10.08 21 14 21C15.5 21 16.89 20.65 18.12 20L20.84 22.73L22.11 21.46M7 12L7.07 11H9.12L11.12 13H7.07L7 12M14 19C11.21 19 8.8 17.37 7.67 15H13.12L16.6 18.5C15.79 18.81 14.92 19 14 19M17 13.81L16.21 13H17.35L17 13.81M18.19 11H14.21L12.21 9H19.04L18.19 11M9.7 6.5L8.27 5.07C9.83 3.78 11.82 3 14 3C16.5 3 18.8 4.05 20.43 5.72L19.57 7.76C18.29 6.09 16.27 5 14 5C12.38 5 10.89 5.58 9.7 6.5Z" />
    </g>
    <g id="mdi-currency-eur-off" transform="translate(252 324) scale(1.5)" fill="#fff">
      <path d="M22.11 21.46L2.39 1.73L1.11 3L6 7.89C5.81 8.25 5.64 8.62 5.5 9H3L2 11H5.05L5 12L5.05 13H3L2 15H5.5C6.75 18.5 10.08 21 14 21C15.5 21 16.89 20.65 18.12 20L20.84 22.73L22.11 21.46M7 12L7.07 11H9.12L11.12 13H7.07L7 12M14 19C11.21 19 8.8 17.37 7.67 15H13.12L16.6 18.5C15.79 18.81 14.92 19 14 19M17 13.81L16.21 13H17.35L17 13.81M18.19 11H14.21L12.21 9H19.04L18.19 11M9.7 6.5L8.27 5.07C9.83 3.78 11.82 3 14 3C16.5 3 18.8 4.05 20.43 5.72L19.57 7.76C18.29 6.09 16.27 5 14 5C12.38 5 10.89 5.58 9.7 6.5Z" />
    </g>
    <g id="mdi-currency-gbp" transform="translate(288 324) scale(1.5)" fill="#555">
      <path d="M6,21V19C10,17 9.5,13 9.5,13H7V11H9.5C8.5,6.5 10,3 14,3C16,3 17,3.5 17,3.5V5.5C11,3.5 11,8 11.5,11H16V13H11.5C11.5,13 12,17 9.5,19H18V21H6Z" />
    </g>
    <g id="mdi-currency-gbp" transform="translate(324 324) scale(1.5)" fill="#fff">
      <path d="M6,21V19C10,17 9.5,13 9.5,13H7V11H9.5C8.5,6.5 10,3 14,3C16,3 17,3.5 17,3.5V5.5C11,3.5 11,8 11.5,11H16V13H11.5C11.5,13 12,17 9.5,19H18V21H6Z" />
    </g>
    <g id="mdi-currency-ils" transform="translate(360 324) scale(1.5)" fill="#555">
      <path d="M22,16A5,5 0 0,1 17,21H8V9H10V19H17A3,3 0 0,0 20,16V3H22V16M16,8V15H14V8A3,3 0 0,0 11,5H4V21H2V3H11A5,5 0 0,1 16,8Z" />
    </g>
    <g id="mdi-currency-ils" transform="translate(396 324) scale(1.5)" fill="#fff">
      <path d="M22,16A5,5 0 0,1 17,21H8V9H10V19H17A3,3 0 0,0 20,16V3H22V16M16,8V15H14V8A3,3 0 0,0 11,5H4V21H2V3H11A5,5 0 0,1 16,8Z" />
    </g>
    <g id="mdi-currency-inr" transform="translate(432 324) scale(1.5)" fill="#555">
      <path d="M8,3H18L17,5H13.74C14.22,5.58 14.58,6.26 14.79,7H18L17,9H15C14.75,11.57 12.74,13.63 10.2,13.96V14H9.5L15.5,21H13L7,14V12H9.5V12C11.26,12 12.72,10.7 12.96,9H7L8,7H12.66C12.1,5.82 10.9,5 9.5,5H7L8,3Z" />
    </g>
    <g id="mdi-currency-inr" transform="translate(468 324) scale(1.5)" fill="#fff">
      <path d="M8,3H18L17,5H13.74C14.22,5.58 14.58,6.26 14.79,7H18L17,9H15C14.75,11.57 12.74,13.63 10.2,13.96V14H9.5L15.5,21H13L7,14V12H9.5V12C11.26,12 12.72,10.7 12.96,9H7L8,7H12.66C12.1,5.82 10.9,5 9.5,5H7L8,3Z" />
    </g>
    <g id="mdi-currency-jpy" transform="translate(504 324) scale(1.5)" fill="#555">
      <path d="M11,21V16H6V14H11V13.71L10.16,12H6V10H9.19L5.77,3H8L12,11.2L16,3H18.23L14.81,10H18V12H13.84L13,13.71V14H18V16H13V21H11Z" />
    </g>
    <g id="mdi-currency-jpy" transform="translate(540 324) scale(1.5)" fill="#fff">
      <path d="M11,21V16H6V14H11V13.71L10.16,12H6V10H9.19L5.77,3H8L12,11.2L16,3H18.23L14.81,10H18V12H13.84L13,13.71V14H18V16H13V21H11Z" />
    </g>
    <g id="mdi-currency-krw" transform="translate(576 324) scale(1.5)" fill="#555">
      <path d="M2,3H4L5.33,9H9.33L10.67,3H13.33L14.67,9H18.67L20,3H22L20.67,9H22V11H20.22L19.78,13H22V15H19.33L18,21H15.33L14,15H10L8.67,21H6L4.67,15H2V13H4.22L3.78,11H2V9H3.33L2,3M13.11,11H10.89L10.44,13H13.56L13.11,11M7.33,18L8,15H6.67L7.33,18M8.89,11H5.78L6.22,13H8.44L8.89,11M16.67,18L17.33,15H16L16.67,18M18.22,11H15.11L15.56,13H17.78L18.22,11M12,6L11.33,9H12.67L12,6Z" />
    </g>
    <g id="mdi-currency-krw" transform="translate(612 324) scale(1.5)" fill="#fff">
      <path d="M2,3H4L5.33,9H9.33L10.67,3H13.33L14.67,9H18.67L20,3H22L20.67,9H22V11H20.22L19.78,13H22V15H19.33L18,21H15.33L14,15H10L8.67,21H6L4.67,15H2V13H4.22L3.78,11H2V9H3.33L2,3M13.11,11H10.89L10.44,13H13.56L13.11,11M7.33,18L8,15H6.67L7.33,18M8.89,11H5.78L6.22,13H8.44L8.89,11M16.67,18L17.33,15H16L16.67,18M18.22,11H15.11L15.56,13H17.78L18.22,11M12,6L11.33,9H12.67L12,6Z" />
    </g>
    <g id="mdi-currency-kzt" transform="translate(648 324) scale(1.5)" fill="#555">
      <path d="M5,3H19V5H5V3M5,6H19V8H13V21H11V8H5V6Z" />
    </g>
    <g id="mdi-currency-kzt" transform="translate(684 324) scale(1.5)" fill="#fff">
      <path d="M5,3H19V5H5V3M5,6H19V8H13V21H11V8H5V6Z" />
    </g>
  </svg>