<svg xmlns="http://www.w3.org/2000/svg" width="720" height="900"><path d="M17 3a2 2 0 0 1 2 2v16l-7-3-7 3V5a2 2 0 0 1 2-2h10m-6 11 6.25-6.24-1.41-1.42L11 11.18 8.41 8.59 7 10l4 4Z" transform="scale(1.5)" id="mdi-bookmark-check" fill="#555"/><path d="M17 3a2 2 0 0 1 2 2v16l-7-3-7 3V5a2 2 0 0 1 2-2h10m-6 11 6.25-6.24-1.41-1.42L11 11.18 8.41 8.59 7 10l4 4Z" transform="translate(36) scale(1.5)" id="mdi-bookmark-check" fill="#fff"/><path d="m9.47 9.65-1.41 1.42L11 14l5.19-5.18-1.41-1.42L11 11.18M17 3H7c-1.1 0-2 .9-2 2v16l7-3 7 3V5c0-1.1-.9-2-2-2m0 15-5-2.18L7 18V5h10Z" transform="translate(72) scale(1.5)" id="mdi-bookmark-check-outline" fill="#555"/><path d="m9.47 9.65-1.41 1.42L11 14l5.19-5.18-1.41-1.42L11 11.18M17 3H7c-1.1 0-2 .9-2 2v16l7-3 7 3V5c0-1.1-.9-2-2-2m0 15-5-2.18L7 18V5h10Z" transform="translate(108) scale(1.5)" id="mdi-bookmark-check-outline" fill="#fff"/><path d="M17 3H7a2 2 0 0 0-2 2v16l7-3 7 3V5a2 2 0 0 0-2-2m-2 8H9V9h6v2Z" transform="translate(144) scale(1.5)" id="mdi-bookmark-minus" fill="#555"/><path d="M17 3H7a2 2 0 0 0-2 2v16l7-3 7 3V5a2 2 0 0 0-2-2m-2 8H9V9h6v2Z" transform="translate(180) scale(1.5)" id="mdi-bookmark-minus" fill="#fff"/><path d="M9 11V9h6v2H9m10-6v16l-7-3-7 3V5a2 2 0 0 1 2-2h10a2 2 0 0 1 2 2m-2 0H7v13l5-2.18L17 18V5Z" transform="translate(216) scale(1.5)" id="mdi-bookmark-minus-outline" fill="#555"/><path d="M9 11V9h6v2H9m10-6v16l-7-3-7 3V5a2 2 0 0 1 2-2h10a2 2 0 0 1 2 2m-2 0H7v13l5-2.18L17 18V5Z" transform="translate(252) scale(1.5)" id="mdi-bookmark-minus-outline" fill="#fff"/><path d="M15 5a2 2 0 0 1 2 2v16l-7-3-7 3V7a2 2 0 0 1 2-2h10M9 1h10a2 2 0 0 1 2 2v16l-2-.87V3H7a2 2 0 0 1 2-2Z" transform="translate(288) scale(1.5)" id="mdi-bookmark-multiple" fill="#555"/><path d="M15 5a2 2 0 0 1 2 2v16l-7-3-7 3V7a2 2 0 0 1 2-2h10M9 1h10a2 2 0 0 1 2 2v16l-2-.87V3H7a2 2 0 0 1 2-2Z" transform="translate(324) scale(1.5)" id="mdi-bookmark-multiple" fill="#fff"/><path d="M9 1h10a2 2 0 0 1 2 2v16l-2-.87V3H7a2 2 0 0 1 2-2m6 19V7H5v13l5-2.18L15 20m0-15a2 2 0 0 1 2 2v16l-7-3-7 3V7a2 2 0 0 1 2-2h10Z" transform="translate(360) scale(1.5)" id="mdi-bookmark-multiple-outline" fill="#555"/><path d="M9 1h10a2 2 0 0 1 2 2v16l-2-.87V3H7a2 2 0 0 1 2-2m6 19V7H5v13l5-2.18L15 20m0-15a2 2 0 0 1 2 2v16l-7-3-7 3V7a2 2 0 0 1 2-2h10Z" transform="translate(396) scale(1.5)" id="mdi-bookmark-multiple-outline" fill="#fff"/><path d="M17 3a2 2 0 0 1 2 2v16l-7-3-7 3V5a2 2 0 0 1 2-2h10m-6 8a2 2 0 0 0-2 2 2 2 0 0 0 2 2 2 2 0 0 0 2-2V8h3V6h-4v5.27c-.29-.17-.64-.27-1-.27Z" transform="translate(432) scale(1.5)" id="mdi-bookmark-music" fill="#555"/><path d="M17 3a2 2 0 0 1 2 2v16l-7-3-7 3V5a2 2 0 0 1 2-2h10m-6 8a2 2 0 0 0-2 2 2 2 0 0 0 2 2 2 2 0 0 0 2-2V8h3V6h-4v5.27c-.29-.17-.64-.27-1-.27Z" transform="translate(468) scale(1.5)" id="mdi-bookmark-music" fill="#fff"/><path d="M7 3c-1.1 0-2 .9-2 2v16l7-3 7 3V5a2 2 0 0 0-2-2H7m0 2h10v13l-5-2.18L7 18V5m5 1v5.3c-.3-.2-.6-.3-1-.3a2 2 0 1 0 0 4c1.11 0 2-.89 2-2V8h2V6h-3Z" transform="translate(504) scale(1.5)" id="mdi-bookmark-music-outline" fill="#555"/><path d="M7 3c-1.1 0-2 .9-2 2v16l7-3 7 3V5a2 2 0 0 0-2-2H7m0 2h10v13l-5-2.18L7 18V5m5 1v5.3c-.3-.2-.6-.3-1-.3a2 2 0 1 0 0 4c1.11 0 2-.89 2-2V8h2V6h-3Z" transform="translate(540) scale(1.5)" id="mdi-bookmark-music-outline" fill="#fff"/><path d="M20 20.72 18.73 22l-1.95-1.95L12 18l-7 3V8.27l-3-3L3.28 4 20 20.72m-1-3.56V5a2 2 0 0 0-2-2H7c-.59 0-1.11.27-1.5.68L19 17.16Z" transform="translate(576) scale(1.5)" id="mdi-bookmark-off" fill="#555"/><path d="M20 20.72 18.73 22l-1.95-1.95L12 18l-7 3V8.27l-3-3L3.28 4 20 20.72m-1-3.56V5a2 2 0 0 0-2-2H7c-.59 0-1.11.27-1.5.68L19 17.16Z" transform="translate(612) scale(1.5)" id="mdi-bookmark-off" fill="#fff"/><path d="M3.28 4 2 5.27l3 3V21l7-3 4.78 2.05L18.73 22 20 20.72 3.28 4M7 18v-7.73l6 5.98-1-.43L7 18M7 5.16 5.5 3.67C5.88 3.26 6.41 3 7 3h10a2 2 0 0 1 2 2v12.16l-2-2V5H7v.16Z" transform="translate(648) scale(1.5)" id="mdi-bookmark-off-outline" fill="#555"/><path d="M3.28 4 2 5.27l3 3V21l7-3 4.78 2.05L18.73 22 20 20.72 3.28 4M7 18v-7.73l6 5.98-1-.43L7 18M7 5.16 5.5 3.67C5.88 3.26 6.41 3 7 3h10a2 2 0 0 1 2 2v12.16l-2-2V5H7v.16Z" transform="translate(684) scale(1.5)" id="mdi-bookmark-off-outline" fill="#fff"/><path d="m17 18-5-2.18L7 18V5h10m0-2H7a2 2 0 0 0-2 2v16l7-3 7 3V5a2 2 0 0 0-2-2Z" transform="matrix(1.5 0 0 1.5 0 36)" id="mdi-bookmark-outline" fill="#555"/><path d="m17 18-5-2.18L7 18V5h10m0-2H7a2 2 0 0 0-2 2v16l7-3 7 3V5a2 2 0 0 0-2-2Z" transform="matrix(1.5 0 0 1.5 36 36)" id="mdi-bookmark-outline" fill="#fff"/><path d="M17 3a2 2 0 0 1 2 2v16l-7-3-7 3V5a2 2 0 0 1 2-2h10m-6 4v2H9v2h2v2h2v-2h2V9h-2V7h-2Z" transform="matrix(1.5 0 0 1.5 72 36)" id="mdi-bookmark-plus" fill="#555"/><path d="M17 3a2 2 0 0 1 2 2v16l-7-3-7 3V5a2 2 0 0 1 2-2h10m-6 4v2H9v2h2v2h2v-2h2V9h-2V7h-2Z" transform="matrix(1.5 0 0 1.5 108 36)" id="mdi-bookmark-plus" fill="#fff"/><path d="M17 18V5H7v13l5-2.18L17 18m0-15a2 2 0 0 1 2 2v16l-7-3-7 3V5a2 2 0 0 1 2-2h10m-6 4h2v2h2v2h-2v2h-2v-2H9V9h2V7Z" transform="matrix(1.5 0 0 1.5 144 36)" id="mdi-bookmark-plus-outline" fill="#555"/><path d="M17 18V5H7v13l5-2.18L17 18m0-15a2 2 0 0 1 2 2v16l-7-3-7 3V5a2 2 0 0 1 2-2h10m-6 4h2v2h2v2h-2v2h-2v-2H9V9h2V7Z" transform="matrix(1.5 0 0 1.5 180 36)" id="mdi-bookmark-plus-outline" fill="#fff"/><path d="M17 3a2 2 0 0 1 2 2v16l-7-3-7 3V5a2 2 0 0 1 2-2h10M8.17 8.58 10.59 11l-2.42 2.41 1.42 1.42L12 12.41l2.41 2.42 1.42-1.42L13.41 11l2.42-2.42-1.42-1.41L12 9.58 9.59 7.17 8.17 8.58Z" transform="matrix(1.5 0 0 1.5 216 36)" id="mdi-bookmark-remove" fill="#555"/><path d="M17 3a2 2 0 0 1 2 2v16l-7-3-7 3V5a2 2 0 0 1 2-2h10M8.17 8.58 10.59 11l-2.42 2.41 1.42 1.42L12 12.41l2.41 2.42 1.42-1.42L13.41 11l2.42-2.42-1.42-1.41L12 9.58 9.59 7.17 8.17 8.58Z" transform="matrix(1.5 0 0 1.5 252 36)" id="mdi-bookmark-remove" fill="#fff"/><path d="M7 3c-1.1 0-2 .9-2 2v16l7-3 7 3V5a2 2 0 0 0-2-2H7m0 2h10v13l-5-2.18L7 18V5m2.88 2.47L8.47 8.88 10.59 11l-2.12 2.12 1.41 1.42L12 12.42l2.12 2.11 1.42-1.41L13.42 11l2.11-2.12-1.41-1.41L12 9.59 9.88 7.47Z" transform="matrix(1.5 0 0 1.5 288 36)" id="mdi-bookmark-remove-outline" fill="#555"/><path d="M7 3c-1.1 0-2 .9-2 2v16l7-3 7 3V5a2 2 0 0 0-2-2H7m0 2h10v13l-5-2.18L7 18V5m2.88 2.47L8.47 8.88 10.59 11l-2.12 2.12 1.41 1.42L12 12.42l2.12 2.11 1.42-1.41L13.42 11l2.11-2.12-1.41-1.41L12 9.59 9.88 7.47Z" transform="matrix(1.5 0 0 1.5 324 36)" id="mdi-bookmark-remove-outline" fill="#fff"/><path d="M9 3v15h3V3H9m3 2 4 13 3-1-4-13-3 1M5 5v13h3V5H5M3 19v2h18v-2H3Z" transform="matrix(1.5 0 0 1.5 360 36)" id="mdi-bookshelf" fill="#555"/><path d="M9 3v15h3V3H9m3 2 4 13 3-1-4-13-3 1M5 5v13h3V5H5M3 19v2h18v-2H3Z" transform="matrix(1.5 0 0 1.5 396 36)" id="mdi-bookshelf" fill="#fff"/><path d="M20 9H8.22A2.97 2.97 0 0 0 4 8.8c-.64.56-1 1.36-1 2.2v9a1 1 0 0 0-1 1v1h8v-1a1 1 0 0 0-1-1v-7h11a2 2 0 0 0 2-2 2 2 0 0 0-2-2M6 12.5A1.5 1.5 0 0 1 4.5 11 1.5 1.5 0 0 1 6 9.5 1.5 1.5 0 0 1 7.5 11 1.5 1.5 0 0 1 6 12.5m4.5-.5L9 10h1.5l1.5 2h-1.5m4 0L13 10h1.5l1.5 2h-1.5m4 0L17 10h1.5l1.5 2h-1.5Z" transform="matrix(1.5 0 0 1.5 432 36)" id="mdi-boom-gate" fill="#555"/><path d="M20 9H8.22A2.97 2.97 0 0 0 4 8.8c-.64.56-1 1.36-1 2.2v9a1 1 0 0 0-1 1v1h8v-1a1 1 0 0 0-1-1v-7h11a2 2 0 0 0 2-2 2 2 0 0 0-2-2M6 12.5A1.5 1.5 0 0 1 4.5 11 1.5 1.5 0 0 1 6 9.5 1.5 1.5 0 0 1 7.5 11 1.5 1.5 0 0 1 6 12.5m4.5-.5L9 10h1.5l1.5 2h-1.5m4 0L13 10h1.5l1.5 2h-1.5m4 0L17 10h1.5l1.5 2h-1.5Z" transform="matrix(1.5 0 0 1.5 468 36)" id="mdi-boom-gate" fill="#fff"/><path d="M19.9 3c-.6-1-1.8-1.3-2.7-.7L6.9 8.2C6.6 8.1 6.3 8 6 8c-1.7 0-3 1.3-3 3v9c-.6 0-1 .4-1 1v1h8v-1c0-.6-.4-1-1-1v-8.4l10.1-5.8c1-.6 1.3-1.8.8-2.8M6 12.5c-.8 0-1.5-.7-1.5-1.5S5.2 9.5 6 9.5s1.5.7 1.5 1.5-.7 1.5-1.5 1.5m4.4-2.9-2.3-1 1.3-.8 2.3 1-1.3.8m3.5-2-2.3-1 1.3-.8 2.3 1-1.3.8m3.4-2-2.3-1 1.3-.8 2.3 1-1.3.8M20 18h-2v2h2v-2m0-8h-2v6h2v-6Z" transform="matrix(1.5 0 0 1.5 504 36)" id="mdi-boom-gate-alert" fill="#555"/><path d="M19.9 3c-.6-1-1.8-1.3-2.7-.7L6.9 8.2C6.6 8.1 6.3 8 6 8c-1.7 0-3 1.3-3 3v9c-.6 0-1 .4-1 1v1h8v-1c0-.6-.4-1-1-1v-8.4l10.1-5.8c1-.6 1.3-1.8.8-2.8M6 12.5c-.8 0-1.5-.7-1.5-1.5S5.2 9.5 6 9.5s1.5.7 1.5 1.5-.7 1.5-1.5 1.5m4.4-2.9-2.3-1 1.3-.8 2.3 1-1.3.8m3.5-2-2.3-1 1.3-.8 2.3 1-1.3.8m3.4-2-2.3-1 1.3-.8 2.3 1-1.3.8M20 18h-2v2h2v-2m0-8h-2v6h2v-6Z" transform="matrix(1.5 0 0 1.5 540 36)" id="mdi-boom-gate-alert" fill="#fff"/><path d="M19.9 3c-.6-1-1.8-1.3-2.7-.7L6.9 8.2C6.6 8.1 6.3 8 6 8c-1.7 0-3 1.3-3 3v9c-.6 0-1 .4-1 1v1h8v-1c0-.6-.4-1-1-1v-8.4l10.1-5.8c1-.6 1.3-1.8.8-2.8M7.5 20h-3v-6.4c.9.5 2.1.5 3 0V20M6 12.5c-.8 0-1.5-.7-1.5-1.5S5.2 9.5 6 9.5s1.5.7 1.5 1.5-.7 1.5-1.5 1.5m4.4-2.9-2.3-1 1.3-.8 2.3 1-1.3.8m3.5-2-2.3-1 1.3-.8 2.3 1-1.3.8m3.4-2-2.3-1 1.3-.8 2.3 1-1.3.8M20 16h-2v-6h2v6m0 4h-2v-2h2v2Z" transform="matrix(1.5 0 0 1.5 576 36)" id="mdi-boom-gate-alert-outline" fill="#555"/><path d="M19.9 3c-.6-1-1.8-1.3-2.7-.7L6.9 8.2C6.6 8.1 6.3 8 6 8c-1.7 0-3 1.3-3 3v9c-.6 0-1 .4-1 1v1h8v-1c0-.6-.4-1-1-1v-8.4l10.1-5.8c1-.6 1.3-1.8.8-2.8M7.5 20h-3v-6.4c.9.5 2.1.5 3 0V20M6 12.5c-.8 0-1.5-.7-1.5-1.5S5.2 9.5 6 9.5s1.5.7 1.5 1.5-.7 1.5-1.5 1.5m4.4-2.9-2.3-1 1.3-.8 2.3 1-1.3.8m3.5-2-2.3-1 1.3-.8 2.3 1-1.3.8m3.4-2-2.3-1 1.3-.8 2.3 1-1.3.8M20 16h-2v-6h2v6m0 4h-2v-2h2v2Z" transform="matrix(1.5 0 0 1.5 612 36)" id="mdi-boom-gate-alert-outline" fill="#fff"/><path d="M19.86 3a1.995 1.995 0 0 0-2.74-.73L6.92 8.16C6.62 8.06 6.31 8 6 8a3 3 0 0 0-3 3v9a1 1 0 0 0-1 1v1h8v-1a1 1 0 0 0-1-1v-8.42l10.12-5.85c.96-.55 1.29-1.77.74-2.73M6 12.5A1.5 1.5 0 0 1 4.5 11 1.5 1.5 0 0 1 6 9.5 1.5 1.5 0 0 1 7.5 11 1.5 1.5 0 0 1 6 12.5m4.4-2.88-2.3-1 1.3-.75 2.3 1-1.3.75m3.46-2-2.3-1 1.3-.75 2.3 1-1.3.75m3.47-2-2.3-1 1.3-.75 2.29 1-1.29.75M17 20l-5-5h3v-4h4v4h3l-5 5" transform="matrix(1.5 0 0 1.5 648 36)" id="mdi-boom-gate-arrow-down" fill="#555"/><path d="M19.86 3a1.995 1.995 0 0 0-2.74-.73L6.92 8.16C6.62 8.06 6.31 8 6 8a3 3 0 0 0-3 3v9a1 1 0 0 0-1 1v1h8v-1a1 1 0 0 0-1-1v-8.42l10.12-5.85c.96-.55 1.29-1.77.74-2.73M6 12.5A1.5 1.5 0 0 1 4.5 11 1.5 1.5 0 0 1 6 9.5 1.5 1.5 0 0 1 7.5 11 1.5 1.5 0 0 1 6 12.5m4.4-2.88-2.3-1 1.3-.75 2.3 1-1.3.75m3.46-2-2.3-1 1.3-.75 2.3 1-1.3.75m3.47-2-2.3-1 1.3-.75 2.29 1-1.29.75M17 20l-5-5h3v-4h4v4h3l-5 5" transform="matrix(1.5 0 0 1.5 684 36)" id="mdi-boom-gate-arrow-down" fill="#fff"/><path d="M19.86 3c.55.96.22 2.18-.74 2.73L9 11.58V20a1 1 0 0 1 1 1v1H2v-1a1 1 0 0 1 1-1v-9a3 3 0 0 1 3-3c.31 0 .62.06.92.16l10.2-5.89c.97-.56 2.19-.23 2.74.73M7.5 20v-6.4c-.93.54-2.07.54-3 0V20h3M6 12.5A1.5 1.5 0 0 0 7.5 11 1.5 1.5 0 0 0 6 9.5 1.5 1.5 0 0 0 4.5 11 1.5 1.5 0 0 0 6 12.5m4.4-2.88 1.3-.75-2.3-1-1.3.75 2.3 1m3.46-2 1.3-.75-2.3-1-1.3.75 2.3 1m3.47-2 1.29-.75-2.29-1-1.3.75 2.3 1M16 11.16h2v5.01l3-.01L17 20l-4-3.84 3 .01v-5.01Z" transform="matrix(1.5 0 0 1.5 0 72)" id="mdi-boom-gate-arrow-down-outline" fill="#555"/><path d="M19.86 3c.55.96.22 2.18-.74 2.73L9 11.58V20a1 1 0 0 1 1 1v1H2v-1a1 1 0 0 1 1-1v-9a3 3 0 0 1 3-3c.31 0 .62.06.92.16l10.2-5.89c.97-.56 2.19-.23 2.74.73M7.5 20v-6.4c-.93.54-2.07.54-3 0V20h3M6 12.5A1.5 1.5 0 0 0 7.5 11 1.5 1.5 0 0 0 6 9.5 1.5 1.5 0 0 0 4.5 11 1.5 1.5 0 0 0 6 12.5m4.4-2.88 1.3-.75-2.3-1-1.3.75 2.3 1m3.46-2 1.3-.75-2.3-1-1.3.75 2.3 1m3.47-2 1.29-.75-2.29-1-1.3.75 2.3 1M16 11.16h2v5.01l3-.01L17 20l-4-3.84 3 .01v-5.01Z" transform="matrix(1.5 0 0 1.5 36 72)" id="mdi-boom-gate-arrow-down-outline" fill="#fff"/><path d="M19.86 3a1.995 1.995 0 0 0-2.74-.73L6.92 8.16C6.62 8.06 6.31 8 6 8a3 3 0 0 0-3 3v9a1 1 0 0 0-1 1v1h8v-1a1 1 0 0 0-1-1v-8.42l10.12-5.85c.96-.55 1.29-1.77.74-2.73M6 12.5A1.5 1.5 0 0 1 4.5 11 1.5 1.5 0 0 1 6 9.5 1.5 1.5 0 0 1 7.5 11 1.5 1.5 0 0 1 6 12.5m4.4-2.88-2.3-1 1.3-.75 2.3 1-1.3.75m3.46-2-2.3-1 1.3-.75 2.3 1-1.3.75m3.47-2-2.3-1 1.3-.75 2.29 1-1.29.75M17 11l5 5h-3v4h-4v-4h-3l5-5" transform="matrix(1.5 0 0 1.5 72 72)" id="mdi-boom-gate-arrow-up" fill="#555"/><path d="M19.86 3a1.995 1.995 0 0 0-2.74-.73L6.92 8.16C6.62 8.06 6.31 8 6 8a3 3 0 0 0-3 3v9a1 1 0 0 0-1 1v1h8v-1a1 1 0 0 0-1-1v-8.42l10.12-5.85c.96-.55 1.29-1.77.74-2.73M6 12.5A1.5 1.5 0 0 1 4.5 11 1.5 1.5 0 0 1 6 9.5 1.5 1.5 0 0 1 7.5 11 1.5 1.5 0 0 1 6 12.5m4.4-2.88-2.3-1 1.3-.75 2.3 1-1.3.75m3.46-2-2.3-1 1.3-.75 2.3 1-1.3.75m3.47-2-2.3-1 1.3-.75 2.29 1-1.29.75M17 11l5 5h-3v4h-4v-4h-3l5-5" transform="matrix(1.5 0 0 1.5 108 72)" id="mdi-boom-gate-arrow-up" fill="#fff"/><path d="M19.86 3c.55.96.22 2.18-.74 2.73L9 11.58V20a1 1 0 0 1 1 1v1H2v-1a1 1 0 0 1 1-1v-9a3 3 0 0 1 3-3c.31 0 .62.06.92.16l10.2-5.89c.97-.56 2.19-.23 2.74.73M7.5 20v-6.4c-.93.54-2.07.54-3 0V20h3M6 12.5A1.5 1.5 0 0 0 7.5 11 1.5 1.5 0 0 0 6 9.5 1.5 1.5 0 0 0 4.5 11 1.5 1.5 0 0 0 6 12.5m4.4-2.88 1.3-.75-2.3-1-1.3.75 2.3 1m3.46-2 1.3-.75-2.3-1-1.3.75 2.3 1m3.47-2 1.29-.75-2.29-1-1.3.75 2.3 1M16 20v-5h-3l4-3.84L21 15h-3v5h-2Z" transform="matrix(1.5 0 0 1.5 144 72)" id="mdi-boom-gate-arrow-up-outline" fill="#555"/><path d="M19.86 3c.55.96.22 2.18-.74 2.73L9 11.58V20a1 1 0 0 1 1 1v1H2v-1a1 1 0 0 1 1-1v-9a3 3 0 0 1 3-3c.31 0 .62.06.92.16l10.2-5.89c.97-.56 2.19-.23 2.74.73M7.5 20v-6.4c-.93.54-2.07.54-3 0V20h3M6 12.5A1.5 1.5 0 0 0 7.5 11 1.5 1.5 0 0 0 6 9.5 1.5 1.5 0 0 0 4.5 11 1.5 1.5 0 0 0 6 12.5m4.4-2.88 1.3-.75-2.3-1-1.3.75 2.3 1m3.46-2 1.3-.75-2.3-1-1.3.75 2.3 1m3.47-2 1.29-.75-2.29-1-1.3.75 2.3 1M16 20v-5h-3l4-3.84L21 15h-3v5h-2Z" transform="matrix(1.5 0 0 1.5 180 72)" id="mdi-boom-gate-arrow-up-outline" fill="#fff"/><path d="M20 9H8.22A2.97 2.97 0 0 0 4 8.8c-.64.56-1 1.36-1 2.2v9a1 1 0 0 0-1 1v1h8v-1a1 1 0 0 0-1-1v-7h11a2 2 0 0 0 2-2 2 2 0 0 0-2-2M7.5 20h-3v-6.4c.93.54 2.07.54 3 0V20M6 12.5A1.5 1.5 0 0 1 4.5 11 1.5 1.5 0 0 1 6 9.5 1.5 1.5 0 0 1 7.5 11 1.5 1.5 0 0 1 6 12.5m4.5-.5L9 10h1.5l1.5 2h-1.5m4 0L13 10h1.5l1.5 2h-1.5m4 0L17 10h1.5l1.5 2h-1.5Z" transform="matrix(1.5 0 0 1.5 216 72)" id="mdi-boom-gate-outline" fill="#555"/><path d="M20 9H8.22A2.97 2.97 0 0 0 4 8.8c-.64.56-1 1.36-1 2.2v9a1 1 0 0 0-1 1v1h8v-1a1 1 0 0 0-1-1v-7h11a2 2 0 0 0 2-2 2 2 0 0 0-2-2M7.5 20h-3v-6.4c.93.54 2.07.54 3 0V20M6 12.5A1.5 1.5 0 0 1 4.5 11 1.5 1.5 0 0 1 6 9.5 1.5 1.5 0 0 1 7.5 11 1.5 1.5 0 0 1 6 12.5m4.5-.5L9 10h1.5l1.5 2h-1.5m4 0L13 10h1.5l1.5 2h-1.5m4 0L17 10h1.5l1.5 2h-1.5Z" transform="matrix(1.5 0 0 1.5 252 72)" id="mdi-boom-gate-outline" fill="#fff"/><path d="M19.9 3c-.6-1-1.8-1.3-2.7-.7L6.9 8.2C6.6 8.1 6.3 8 6 8c-1.7 0-3 1.3-3 3v9c-.6 0-1 .4-1 1v1h8v-1c0-.6-.4-1-1-1v-8.4l10.1-5.8c1-.6 1.3-1.8.8-2.8M6 12.5c-.8 0-1.5-.7-1.5-1.5S5.2 9.5 6 9.5s1.5.7 1.5 1.5-.7 1.5-1.5 1.5m4.4-2.9-2.3-1 1.3-.8 2.3 1-1.3.8m3.5-2-2.3-1 1.3-.8 2.3 1-1.3.8m3.4-2-2.3-1 1.3-.8 2.3 1-1.3.8" transform="matrix(1.5 0 0 1.5 288 72)" id="mdi-boom-gate-up" fill="#555"/><path d="M19.9 3c-.6-1-1.8-1.3-2.7-.7L6.9 8.2C6.6 8.1 6.3 8 6 8c-1.7 0-3 1.3-3 3v9c-.6 0-1 .4-1 1v1h8v-1c0-.6-.4-1-1-1v-8.4l10.1-5.8c1-.6 1.3-1.8.8-2.8M6 12.5c-.8 0-1.5-.7-1.5-1.5S5.2 9.5 6 9.5s1.5.7 1.5 1.5-.7 1.5-1.5 1.5m4.4-2.9-2.3-1 1.3-.8 2.3 1-1.3.8m3.5-2-2.3-1 1.3-.8 2.3 1-1.3.8m3.4-2-2.3-1 1.3-.8 2.3 1-1.3.8" transform="matrix(1.5 0 0 1.5 324 72)" id="mdi-boom-gate-up" fill="#fff"/><path d="M19.9 3c-.6-1-1.8-1.3-2.7-.7L6.9 8.2C6.6 8.1 6.3 8 6 8c-1.7 0-3 1.3-3 3v9c-.6 0-1 .4-1 1v1h8v-1c0-.6-.4-1-1-1v-8.4l10.1-5.8c1-.6 1.3-1.8.8-2.8M7.5 20h-3v-6.4c.9.5 2.1.5 3 0V20M6 12.5c-.8 0-1.5-.7-1.5-1.5S5.2 9.5 6 9.5s1.5.7 1.5 1.5-.7 1.5-1.5 1.5m4.4-2.9-2.3-1 1.3-.8 2.3 1-1.3.8m3.5-2-2.3-1 1.3-.8 2.3 1-1.3.8m3.4-2-2.3-1 1.3-.8 2.3 1-1.3.8" transform="matrix(1.5 0 0 1.5 360 72)" id="mdi-boom-gate-up-outline" fill="#555"/><path d="M19.9 3c-.6-1-1.8-1.3-2.7-.7L6.9 8.2C6.6 8.1 6.3 8 6 8c-1.7 0-3 1.3-3 3v9c-.6 0-1 .4-1 1v1h8v-1c0-.6-.4-1-1-1v-8.4l10.1-5.8c1-.6 1.3-1.8.8-2.8M7.5 20h-3v-6.4c.9.5 2.1.5 3 0V20M6 12.5c-.8 0-1.5-.7-1.5-1.5S5.2 9.5 6 9.5s1.5.7 1.5 1.5-.7 1.5-1.5 1.5m4.4-2.9-2.3-1 1.3-.8 2.3 1-1.3.8m3.5-2-2.3-1 1.3-.8 2.3 1-1.3.8m3.4-2-2.3-1 1.3-.8 2.3 1-1.3.8" transform="matrix(1.5 0 0 1.5 396 72)" id="mdi-boom-gate-up-outline" fill="#fff"/><path d="M7 5 5 7v1H3a1 1 0 0 0-1 1v8a1 1 0 0 0 1 1h18a1 1 0 0 0 1-1V9a1 1 0 0 0-1-1h-2V7l-2-2H7m0 2h10v1H7V7m4 2h2a.5.5 0 0 1 .5.5.5.5 0 0 1-.5.5h-2a.5.5 0 0 1-.5-.5.5.5 0 0 1 .5-.5m-3.5 1.5a3 3 0 0 1 3 3 3 3 0 0 1-3 3 3 3 0 0 1-3-3 3 3 0 0 1 3-3m9 0a3 3 0 0 1 3 3 3 3 0 0 1-3 3 3 3 0 0 1-3-3 3 3 0 0 1 3-3m-9 1.5A1.5 1.5 0 0 0 6 13.5 1.5 1.5 0 0 0 7.5 15 1.5 1.5 0 0 0 9 13.5 1.5 1.5 0 0 0 7.5 12m9 0a1.5 1.5 0 0 0-1.5 1.5 1.5 1.5 0 0 0 1.5 1.5 1.5 1.5 0 0 0 1.5-1.5 1.5 1.5 0 0 0-1.5-1.5Z" transform="matrix(1.5 0 0 1.5 432 72)" id="mdi-boombox" fill="#555"/><path d="M7 5 5 7v1H3a1 1 0 0 0-1 1v8a1 1 0 0 0 1 1h18a1 1 0 0 0 1-1V9a1 1 0 0 0-1-1h-2V7l-2-2H7m0 2h10v1H7V7m4 2h2a.5.5 0 0 1 .5.5.5.5 0 0 1-.5.5h-2a.5.5 0 0 1-.5-.5.5.5 0 0 1 .5-.5m-3.5 1.5a3 3 0 0 1 3 3 3 3 0 0 1-3 3 3 3 0 0 1-3-3 3 3 0 0 1 3-3m9 0a3 3 0 0 1 3 3 3 3 0 0 1-3 3 3 3 0 0 1-3-3 3 3 0 0 1 3-3m-9 1.5A1.5 1.5 0 0 0 6 13.5 1.5 1.5 0 0 0 7.5 15 1.5 1.5 0 0 0 9 13.5 1.5 1.5 0 0 0 7.5 12m9 0a1.5 1.5 0 0 0-1.5 1.5 1.5 1.5 0 0 0 1.5 1.5 1.5 1.5 0 0 0 1.5-1.5 1.5 1.5 0 0 0-1.5-1.5Z" transform="matrix(1.5 0 0 1.5 468 72)" id="mdi-boombox" fill="#fff"/><path d="M10 2H4c-1.1 0-2 .9-2 2s.9 2 2 2h4l2-4m8 0c2.2 0 4 1.8 4 4v6l-4 2c0-4.4-3.6-8-8-8l2-4h6m0 18v-4l4-2v6c0 1.1-.9 2-2 2s-2-.9-2-2Z" transform="matrix(1.5 0 0 1.5 504 72)" id="mdi-boomerang" fill="#555"/><path d="M10 2H4c-1.1 0-2 .9-2 2s.9 2 2 2h4l2-4m8 0c2.2 0 4 1.8 4 4v6l-4 2c0-4.4-3.6-8-8-8l2-4h6m0 18v-4l4-2v6c0 1.1-.9 2-2 2s-2-.9-2-2Z" transform="matrix(1.5 0 0 1.5 540 72)" id="mdi-boomerang" fill="#fff"/><path d="M11.79 11.5H9.72V8.19h2.47c1.26 0 1.96.56 1.96 1.59 0 1.12-.83 1.72-2.36 1.72m.37 1.13H9.72v3.64h2.56c1.56 0 2.38-.63 2.38-1.83s-.85-1.81-2.5-1.81M22 5.31v13.38C22 20.5 20.5 22 18.69 22H5.31C3.5 22 2 20.5 2 18.69V5.31C2 3.5 3.5 2 5.31 2h13.38C20.5 2 22 3.5 22 5.31m-6 9.19c0-1.38-.92-2.37-2.33-2.55v-.06c1-.18 1.79-1.18 1.79-2.26 0-1.55-1.2-2.58-2.96-2.58H8.43v10.36h4.04c2.21 0 3.53-1.09 3.53-2.91Z" transform="matrix(1.5 0 0 1.5 576 72)" id="mdi-bootstrap" fill="#555"/><path d="M11.79 11.5H9.72V8.19h2.47c1.26 0 1.96.56 1.96 1.59 0 1.12-.83 1.72-2.36 1.72m.37 1.13H9.72v3.64h2.56c1.56 0 2.38-.63 2.38-1.83s-.85-1.81-2.5-1.81M22 5.31v13.38C22 20.5 20.5 22 18.69 22H5.31C3.5 22 2 20.5 2 18.69V5.31C2 3.5 3.5 2 5.31 2h13.38C20.5 2 22 3.5 22 5.31m-6 9.19c0-1.38-.92-2.37-2.33-2.55v-.06c1-.18 1.79-1.18 1.79-2.26 0-1.55-1.2-2.58-2.96-2.58H8.43v10.36h4.04c2.21 0 3.53-1.09 3.53-2.91Z" transform="matrix(1.5 0 0 1.5 612 72)" id="mdi-bootstrap" fill="#fff"/><path d="M19 11h-6V5h6m0 14h-6v-6h6m-8-2H5V5h6m0 14H5v-6h6m-8 8h18V3H3v18Z" transform="matrix(1.5 0 0 1.5 648 72)" id="mdi-border-all" fill="#555"/><path d="M19 11h-6V5h6m0 14h-6v-6h6m-8-2H5V5h6m0 14H5v-6h6m-8 8h18V3H3v18Z" transform="matrix(1.5 0 0 1.5 684 72)" id="mdi-border-all" fill="#fff"/><path d="M3 21V3h18v18H3M5 5v14h14V5H5Z" transform="matrix(1.5 0 0 1.5 0 108)" id="mdi-border-all-variant" fill="#555"/><path d="M3 21V3h18v18H3M5 5v14h14V5H5Z" transform="matrix(1.5 0 0 1.5 36 108)" id="mdi-border-all-variant" fill="#fff"/><path d="M5 15H3v2h2m-2 4h18v-2H3m2-8H3v2h2m14-4h2V7h-2m0-2h2V3h-2M5 7H3v2h2m14 8h2v-2h-2m0-2h2v-2h-2m-2-8h-2v2h2m-4-2h-2v2h2m4 6h-2v2h2m-4-6h-2v2h2M5 3H3v2h2m8 6h-2v2h2M9 3H7v2h2m4 10h-2v2h2m-4-6H7v2h2v-2Z" transform="matrix(1.5 0 0 1.5 72 108)" id="mdi-border-bottom" fill="#555"/><path d="M5 15H3v2h2m-2 4h18v-2H3m2-8H3v2h2m14-4h2V7h-2m0-2h2V3h-2M5 7H3v2h2m14 8h2v-2h-2m0-2h2v-2h-2m-2-8h-2v2h2m-4-2h-2v2h2m4 6h-2v2h2m-4-6h-2v2h2M5 3H3v2h2m8 6h-2v2h2M9 3H7v2h2m4 10h-2v2h2m-4-6H7v2h2v-2Z" transform="matrix(1.5 0 0 1.5 108 108)" id="mdi-border-bottom" fill="#fff"/><path d="M5 15H3v2h2m-2 4h18v-2H3m2-8H3v2h2m14-4h2V7h-2m0-2h2V3h-2M5 7H3v2h2m14 8h2v-2h-2m0-2h2v-2h-2m-2-8h-2v2h2m-4-2h-2v2h2M5 3H3v2h2m4-2H7v2h2" transform="matrix(1.5 0 0 1.5 144 108)" id="mdi-border-bottom-variant" fill="#555"/><path d="M5 15H3v2h2m-2 4h18v-2H3m2-8H3v2h2m14-4h2V7h-2m0-2h2V3h-2M5 7H3v2h2m14 8h2v-2h-2m0-2h2v-2h-2m-2-8h-2v2h2m-4-2h-2v2h2M5 3H3v2h2m4-2H7v2h2" transform="matrix(1.5 0 0 1.5 180 108)" id="mdi-border-bottom-variant" fill="#fff"/><path d="M20.71 4.04c.39-.39.39-1.04 0-1.41L18.37.29C18-.1 17.35-.1 16.96.29L15 2.25 18.75 6m-1 1L14 3.25l-10 10V17h3.75l10-10Z" transform="matrix(1.5 0 0 1.5 216 108)" id="mdi-border-color" fill="#555"/><path d="M20.71 4.04c.39-.39.39-1.04 0-1.41L18.37.29C18-.1 17.35-.1 16.96.29L15 2.25 18.75 6m-1 1L14 3.25l-10 10V17h3.75l10-10Z" transform="matrix(1.5 0 0 1.5 252 108)" id="mdi-border-color" fill="#fff"/><path d="M19 21h2v-2h-2m-4 2h2v-2h-2m-4-2h2v-2h-2m8-6h2V7h-2m0-2h2V3h-2M3 13h18v-2H3m8 10h2v-2h-2m8-2h2v-2h-2M13 3h-2v2h2m0 2h-2v2h2m4-6h-2v2h2M9 3H7v2h2M5 3H3v2h2m2 16h2v-2H7m-4-2h2v-2H3m2-8H3v2h2M3 21h2v-2H3v2Z" transform="matrix(1.5 0 0 1.5 288 108)" id="mdi-border-horizontal" fill="#555"/><path d="M19 21h2v-2h-2m-4 2h2v-2h-2m-4-2h2v-2h-2m8-6h2V7h-2m0-2h2V3h-2M3 13h18v-2H3m8 10h2v-2h-2m8-2h2v-2h-2M13 3h-2v2h2m0 2h-2v2h2m4-6h-2v2h2M9 3H7v2h2M5 3H3v2h2m2 16h2v-2H7m-4-2h2v-2H3m2-8H3v2h2M3 21h2v-2H3v2Z" transform="matrix(1.5 0 0 1.5 324 108)" id="mdi-border-horizontal" fill="#fff"/><path d="M19 17h2v-2h-2m0 6h2v-2h-2M13 3h-2v8H3v2h8v8h2v-8h8v-2h-8m2 10h2v-2h-2m4-14h2V3h-2m0 6h2V7h-2m-2-4h-2v2h2M5 3H3v2h2m4-2H7v2h2M3 17h2v-2H3m2-8H3v2h2m2 12h2v-2H7m-4 2h2v-2H3v2Z" transform="matrix(1.5 0 0 1.5 360 108)" id="mdi-border-inside" fill="#555"/><path d="M19 17h2v-2h-2m0 6h2v-2h-2M13 3h-2v8H3v2h8v8h2v-8h8v-2h-8m2 10h2v-2h-2m4-14h2V3h-2m0 6h2V7h-2m-2-4h-2v2h2M5 3H3v2h2m4-2H7v2h2M3 17h2v-2H3m2-8H3v2h2m2 12h2v-2H7m-4 2h2v-2H3v2Z" transform="matrix(1.5 0 0 1.5 396 108)" id="mdi-border-inside" fill="#fff"/><path d="M15 5h2V3h-2m0 10h2v-2h-2m4 10h2v-2h-2m0-6h2v-2h-2m0-6h2V3h-2m0 14h2v-2h-2m-4 6h2v-2h-2m4-10h2V7h-2M3 21h2V3H3m4 10h2v-2H7m0-6h2V3H7m0 18h2v-2H7m4-6h2v-2h-2m0-2h2V7h-2m0-2h2V3h-2m0 14h2v-2h-2m0 6h2v-2h-2v2Z" transform="matrix(1.5 0 0 1.5 432 108)" id="mdi-border-left" fill="#555"/><path d="M15 5h2V3h-2m0 10h2v-2h-2m4 10h2v-2h-2m0-6h2v-2h-2m0-6h2V3h-2m0 14h2v-2h-2m-4 6h2v-2h-2m4-10h2V7h-2M3 21h2V3H3m4 10h2v-2H7m0-6h2V3H7m0 18h2v-2H7m4-6h2v-2h-2m0-2h2V7h-2m0-2h2V3h-2m0 14h2v-2h-2m0 6h2v-2h-2v2Z" transform="matrix(1.5 0 0 1.5 468 108)" id="mdi-border-left" fill="#fff"/><path d="M15 5h2V3h-2m4 18h2v-2h-2m0-6h2v-2h-2m0-6h2V3h-2m0 14h2v-2h-2m-4 6h2v-2h-2m4-10h2V7h-2M3 21h2V3H3m4 2h2V3H7m0 18h2v-2H7m4-14h2V3h-2m0 18h2v-2h-2v2Z" transform="matrix(1.5 0 0 1.5 504 108)" id="mdi-border-left-variant" fill="#555"/><path d="M15 5h2V3h-2m4 18h2v-2h-2m0-6h2v-2h-2m0-6h2V3h-2m0 14h2v-2h-2m-4 6h2v-2h-2m4-10h2V7h-2M3 21h2V3H3m4 2h2V3H7m0 18h2v-2H7m4-14h2V3h-2m0 18h2v-2h-2v2Z" transform="matrix(1.5 0 0 1.5 540 108)" id="mdi-border-left-variant" fill="#fff"/><path d="M15 5h2V3h-2m0 10h2v-2h-2m0 10h2v-2h-2M11 5h2V3h-2m8 2h2V3h-2m-8 6h2V7h-2m8 2h2V7h-2m0 14h2v-2h-2m0-6h2v-2h-2m0 6h2v-2h-2m-8-2h2v-2h-2M3 5h2V3H3m0 6h2V7H3m0 6h2v-2H3m0 6h2v-2H3m0 6h2v-2H3m8 2h2v-2h-2m0-2h2v-2h-2m-4 6h2v-2H7m0-6h2v-2H7m0-6h2V3H7v2Z" transform="matrix(1.5 0 0 1.5 576 108)" id="mdi-border-none" fill="#555"/><path d="M15 5h2V3h-2m0 10h2v-2h-2m0 10h2v-2h-2M11 5h2V3h-2m8 2h2V3h-2m-8 6h2V7h-2m8 2h2V7h-2m0 14h2v-2h-2m0-6h2v-2h-2m0 6h2v-2h-2m-8-2h2v-2h-2M3 5h2V3H3m0 6h2V7H3m0 6h2v-2H3m0 6h2v-2H3m0 6h2v-2H3m8 2h2v-2h-2m0-2h2v-2h-2m-4 6h2v-2H7m0-6h2v-2H7m0-6h2V3H7v2Z" transform="matrix(1.5 0 0 1.5 612 108)" id="mdi-border-none" fill="#fff"/><path d="M15 5h2V3h-2m0 18h2v-2h-2M11 5h2V3h-2m8 2h2V3h-2m0 6h2V7h-2m0 14h2v-2h-2m0-6h2v-2h-2m0 6h2v-2h-2M3 5h2V3H3m0 6h2V7H3m0 6h2v-2H3m0 6h2v-2H3m0 6h2v-2H3m8 2h2v-2h-2m-4 2h2v-2H7M7 5h2V3H7v2Z" transform="matrix(1.5 0 0 1.5 648 108)" id="mdi-border-none-variant" fill="#555"/><path d="M15 5h2V3h-2m0 18h2v-2h-2M11 5h2V3h-2m8 2h2V3h-2m0 6h2V7h-2m0 14h2v-2h-2m0-6h2v-2h-2m0 6h2v-2h-2M3 5h2V3H3m0 6h2V7H3m0 6h2v-2H3m0 6h2v-2H3m0 6h2v-2H3m8 2h2v-2h-2m-4 2h2v-2H7M7 5h2V3H7v2Z" transform="matrix(1.5 0 0 1.5 684 108)" id="mdi-border-none-variant" fill="#fff"/><path d="M9 11H7v2h2m4 2h-2v2h2m6 2H5V5h14M3 21h18V3H3m14 8h-2v2h2m-4-2h-2v2h2m0-6h-2v2h2V7Z" transform="matrix(1.5 0 0 1.5 0 144)" id="mdi-border-outside" fill="#555"/><path d="M9 11H7v2h2m4 2h-2v2h2m6 2H5V5h14M3 21h18V3H3m14 8h-2v2h2m-4-2h-2v2h2m0-6h-2v2h2V7Z" transform="matrix(1.5 0 0 1.5 36 144)" id="mdi-border-outside" fill="#fff"/><path d="M11 9h2V7h-2m0-2h2V3h-2m0 10h2v-2h-2m4-6h2V3h-2m0 18h2v-2h-2m4 2h2V3h-2m-4 10h2v-2h-2m-4 6h2v-2h-2M3 9h2V7H3m0 10h2v-2H3m0-2h2v-2H3m8 10h2v-2h-2m-8 2h2v-2H3m4-6h2v-2H7m0-6h2V3H7M3 5h2V3H3m4 18h2v-2H7v2Z" transform="matrix(1.5 0 0 1.5 72 144)" id="mdi-border-right" fill="#555"/><path d="M11 9h2V7h-2m0-2h2V3h-2m0 10h2v-2h-2m4-6h2V3h-2m0 18h2v-2h-2m4 2h2V3h-2m-4 10h2v-2h-2m-4 6h2v-2h-2M3 9h2V7H3m0 10h2v-2H3m0-2h2v-2H3m8 10h2v-2h-2m-8 2h2v-2H3m4-6h2v-2H7m0-6h2V3H7M3 5h2V3H3m4 18h2v-2H7v2Z" transform="matrix(1.5 0 0 1.5 108 144)" id="mdi-border-right" fill="#fff"/><path d="M11 5h2V3h-2m4 2h2V3h-2m0 18h2v-2h-2m4 2h2V3h-2M3 9h2V7H3m0 10h2v-2H3m0-2h2v-2H3m8 10h2v-2h-2m-8 2h2v-2H3M7 5h2V3H7M3 5h2V3H3m4 18h2v-2H7v2Z" transform="matrix(1.5 0 0 1.5 144 144)" id="mdi-border-right-variant" fill="#555"/><path d="M11 5h2V3h-2m4 2h2V3h-2m0 18h2v-2h-2m4 2h2V3h-2M3 9h2V7H3m0 10h2v-2H3m0-2h2v-2H3m8 10h2v-2h-2m-8 2h2v-2H3M7 5h2V3H7M3 5h2V3H3m4 18h2v-2H7v2Z" transform="matrix(1.5 0 0 1.5 180 144)" id="mdi-border-right-variant" fill="#fff"/><path d="M15 21h2v-2h-2m4 2h2v-2h-2M7 21h2v-2H7m4 2h2v-2h-2m8-2h2v-2h-2m0-2h2v-2h-2M3 3v18h2V5h16V3m-2 6h2V7h-2" transform="matrix(1.5 0 0 1.5 216 144)" id="mdi-border-style" fill="#555"/><path d="M15 21h2v-2h-2m4 2h2v-2h-2M7 21h2v-2H7m4 2h2v-2h-2m8-2h2v-2h-2m0-2h2v-2h-2M3 3v18h2V5h16V3m-2 6h2V7h-2" transform="matrix(1.5 0 0 1.5 252 144)" id="mdi-border-style" fill="#fff"/><path d="M15 13h2v-2h-2m4 10h2v-2h-2M11 9h2V7h-2m4 14h2v-2h-2m4-2h2v-2h-2M3 5h18V3H3m16 10h2v-2h-2m0-2h2V7h-2m-8 10h2v-2h-2M3 9h2V7H3m0 6h2v-2H3m0 10h2v-2H3m0-2h2v-2H3m8 6h2v-2h-2m0-6h2v-2h-2m-4 2h2v-2H7m0 10h2v-2H7v2Z" transform="matrix(1.5 0 0 1.5 288 144)" id="mdi-border-top" fill="#555"/><path d="M15 13h2v-2h-2m4 10h2v-2h-2M11 9h2V7h-2m4 14h2v-2h-2m4-2h2v-2h-2M3 5h18V3H3m16 10h2v-2h-2m0-2h2V7h-2m-8 10h2v-2h-2M3 9h2V7H3m0 6h2v-2H3m0 10h2v-2H3m0-2h2v-2H3m8 6h2v-2h-2m0-6h2v-2h-2m-4 2h2v-2H7m0 10h2v-2H7v2Z" transform="matrix(1.5 0 0 1.5 324 144)" id="mdi-border-top" fill="#fff"/><path d="M19 21h2v-2h-2m-4 2h2v-2h-2m4-2h2v-2h-2M3 5h18V3H3m16 10h2v-2h-2m0-2h2V7h-2M3 9h2V7H3m0 6h2v-2H3m0 10h2v-2H3m0-2h2v-2H3m8 6h2v-2h-2m-4 2h2v-2H7v2Z" transform="matrix(1.5 0 0 1.5 360 144)" id="mdi-border-top-variant" fill="#555"/><path d="M19 21h2v-2h-2m-4 2h2v-2h-2m4-2h2v-2h-2M3 5h18V3H3m16 10h2v-2h-2m0-2h2V7h-2M3 9h2V7H3m0 6h2v-2H3m0 10h2v-2H3m0-2h2v-2H3m8 6h2v-2h-2m-4 2h2v-2H7v2Z" transform="matrix(1.5 0 0 1.5 396 144)" id="mdi-border-top-variant" fill="#fff"/><path d="M15 13h2v-2h-2m0 10h2v-2h-2m0-14h2V3h-2m4 6h2V7h-2m0-2h2V3h-2m0 10h2v-2h-2m0 10h2v-2h-2m-8 2h2V3h-2m8 14h2v-2h-2M7 5h2V3H7M3 17h2v-2H3m0 6h2v-2H3m0-6h2v-2H3m4 2h2v-2H7m0 10h2v-2H7M3 5h2V3H3m0 6h2V7H3v2Z" transform="matrix(1.5 0 0 1.5 432 144)" id="mdi-border-vertical" fill="#555"/><path d="M15 13h2v-2h-2m0 10h2v-2h-2m0-14h2V3h-2m4 6h2V7h-2m0-2h2V3h-2m0 10h2v-2h-2m0 10h2v-2h-2m-8 2h2V3h-2m8 14h2v-2h-2M7 5h2V3H7M3 17h2v-2H3m0 6h2v-2H3m0-6h2v-2H3m4 2h2v-2H7m0 10h2v-2H7M3 5h2V3H3m0 6h2V7H3v2Z" transform="matrix(1.5 0 0 1.5 468 144)" id="mdi-border-vertical" fill="#fff"/><path d="M15 11v9a2 2 0 0 1-2 2h-2a2 2 0 0 1-2-2v-9a2 2 0 0 1 .6-1.42C11.1 7.89 11 4 11 4h-1V2h4v2h-1s-.1 3.89 1.4 5.58A2 2 0 0 1 15 11Z" transform="matrix(1.5 0 0 1.5 504 144)" id="mdi-bottle-soda" fill="#555"/><path d="M15 11v9a2 2 0 0 1-2 2h-2a2 2 0 0 1-2-2v-9a2 2 0 0 1 .6-1.42C11.1 7.89 11 4 11 4h-1V2h4v2h-1s-.1 3.89 1.4 5.58A2 2 0 0 1 15 11Z" transform="matrix(1.5 0 0 1.5 540 144)" id="mdi-bottle-soda" fill="#fff"/><path d="M15 13.77a3 3 0 0 0 0 4.46V20a2 2 0 0 1-2 2h-2a2 2 0 0 1-2-2v-1.77a3 3 0 0 0 0-4.46V9a12.28 12.28 0 0 0 1.91-5H10V2h4v2h-.91A12.28 12.28 0 0 0 15 9Z" transform="matrix(1.5 0 0 1.5 576 144)" id="mdi-bottle-soda-classic" fill="#555"/><path d="M15 13.77a3 3 0 0 0 0 4.46V20a2 2 0 0 1-2 2h-2a2 2 0 0 1-2-2v-1.77a3 3 0 0 0 0-4.46V9a12.28 12.28 0 0 0 1.91-5H10V2h4v2h-.91A12.28 12.28 0 0 0 15 9Z" transform="matrix(1.5 0 0 1.5 612 144)" id="mdi-bottle-soda-classic" fill="#fff"/><path d="M10 2v2h.91C10.65 5.79 9 7.5 8 9v4.77a3.007 3.007 0 0 1 0 4.46V20a2 2 0 0 0 2 2h4c1.11 0 2-.89 2-2v-1.77a3.007 3.007 0 0 1 0-4.46V9c-1-1.5-2.65-3.21-2.91-5H14V2m-2 4.5c.24.5 1.54 2 1.9 2.41L14 9v4c-.65.87-1 1.92-1 3s.35 2.13 1 3v1h-4v-1c.65-.87 1-1.92 1-3s-.35-2.13-1-3V9l.1-.09C10.46 8.5 11.76 7 12 6.5Z" transform="matrix(1.5 0 0 1.5 648 144)" id="mdi-bottle-soda-classic-outline" fill="#555"/><path d="M10 2v2h.91C10.65 5.79 9 7.5 8 9v4.77a3.007 3.007 0 0 1 0 4.46V20a2 2 0 0 0 2 2h4c1.11 0 2-.89 2-2v-1.77a3.007 3.007 0 0 1 0-4.46V9c-1-1.5-2.65-3.21-2.91-5H14V2m-2 4.5c.24.5 1.54 2 1.9 2.41L14 9v4c-.65.87-1 1.92-1 3s.35 2.13 1 3v1h-4v-1c.65-.87 1-1.92 1-3s-.35-2.13-1-3V9l.1-.09C10.46 8.5 11.76 7 12 6.5Z" transform="matrix(1.5 0 0 1.5 684 144)" id="mdi-bottle-soda-classic-outline" fill="#fff"/><path d="M14.4 9.58C12.9 7.89 13 4 13 4h1V2h-4v2h1s.1 3.89-1.4 5.58A2 2 0 0 0 9 11v9a2 2 0 0 0 2 2h2a2 2 0 0 0 2-2v-9a2 2 0 0 0-.6-1.42M13 20h-2v-9l.1-.09A6.26 6.26 0 0 0 12 9.5a6.26 6.26 0 0 0 .9 1.41l.1.09Z" transform="matrix(1.5 0 0 1.5 0 180)" id="mdi-bottle-soda-outline" fill="#555"/><path d="M14.4 9.58C12.9 7.89 13 4 13 4h1V2h-4v2h1s.1 3.89-1.4 5.58A2 2 0 0 0 9 11v9a2 2 0 0 0 2 2h2a2 2 0 0 0 2-2v-9a2 2 0 0 0-.6-1.42M13 20h-2v-9l.1-.09A6.26 6.26 0 0 0 12 9.5a6.26 6.26 0 0 0 .9 1.41l.1.09Z" transform="matrix(1.5 0 0 1.5 36 180)" id="mdi-bottle-soda-outline" fill="#fff"/><path d="M13 4h-2l-1-2h4l-1 2m6 9v9H5v-9c0-2.76 2.24-5 5-5V6H9V5h6v1h-1v2c2.76 0 5 2.24 5 5Z" transform="matrix(1.5 0 0 1.5 72 180)" id="mdi-bottle-tonic" fill="#555"/><path d="M13 4h-2l-1-2h4l-1 2m6 9v9H5v-9c0-2.76 2.24-5 5-5V6H9V5h6v1h-1v2c2.76 0 5 2.24 5 5Z" transform="matrix(1.5 0 0 1.5 108 180)" id="mdi-bottle-tonic" fill="#fff"/><path d="M13 4h-2l-1-2h4l-1 2m6 9v9H5v-9c0-2.76 2.24-5 5-5V6H9V5h6v1h-1v2c2.76 0 5 2.24 5 5m-2 0c0-1.65-1.35-3-3-3h-4c-1.65 0-3 1.35-3 3v7h10v-7Z" transform="matrix(1.5 0 0 1.5 144 180)" id="mdi-bottle-tonic-outline" fill="#555"/><path d="M13 4h-2l-1-2h4l-1 2m6 9v9H5v-9c0-2.76 2.24-5 5-5V6H9V5h6v1h-1v2c2.76 0 5 2.24 5 5m-2 0c0-1.65-1.35-3-3-3h-4c-1.65 0-3 1.35-3 3v7h10v-7Z" transform="matrix(1.5 0 0 1.5 180 180)" id="mdi-bottle-tonic-outline" fill="#fff"/><path d="M13 4h-2l-1-2h4l-1 2m1 4V6h1V5H9v1h1v2c-2.76 0-5 2.24-5 5v9h14v-9c0-2.76-2.24-5-5-5m2 9h-3v3h-2v-3H8v-2h3v-3h2v3h3v2Z" transform="matrix(1.5 0 0 1.5 216 180)" id="mdi-bottle-tonic-plus" fill="#555"/><path d="M13 4h-2l-1-2h4l-1 2m1 4V6h1V5H9v1h1v2c-2.76 0-5 2.24-5 5v9h14v-9c0-2.76-2.24-5-5-5m2 9h-3v3h-2v-3H8v-2h3v-3h2v3h3v2Z" transform="matrix(1.5 0 0 1.5 252 180)" id="mdi-bottle-tonic-plus" fill="#fff"/><path d="M13 4h-2l-1-2h4l-1 2m6 9v9H5v-9c0-2.76 2.24-5 5-5V6H9V5h6v1h-1v2c2.76 0 5 2.24 5 5m-2 0c0-1.65-1.35-3-3-3h-4c-1.65 0-3 1.35-3 3v7h10v-7m-2 3h-2v2h-2v-2H9v-2h2v-2h2v2h2v2Z" transform="matrix(1.5 0 0 1.5 288 180)" id="mdi-bottle-tonic-plus-outline" fill="#555"/><path d="M13 4h-2l-1-2h4l-1 2m6 9v9H5v-9c0-2.76 2.24-5 5-5V6H9V5h6v1h-1v2c2.76 0 5 2.24 5 5m-2 0c0-1.65-1.35-3-3-3h-4c-1.65 0-3 1.35-3 3v7h10v-7m-2 3h-2v2h-2v-2H9v-2h2v-2h2v2h2v2Z" transform="matrix(1.5 0 0 1.5 324 180)" id="mdi-bottle-tonic-plus-outline" fill="#fff"/><path d="M19 13v9H5v-9c0-2.76 2.24-5 5-5V6H9V5h6v1h-1v2c2.76 0 5 2.24 5 5m-6-9 1-2h-4l1 2h2m-1 7c-2.21 0-4 1.79-4 4 0 1 .39 1.9 1 2.59V19h1.25v-1.5h1.13V19h1.25v-1.5h1.12V19H15v-1.41A3.9 3.9 0 0 0 16 15c0-2.21-1.79-4-4-4m-1.5 4c-.55 0-1-.45-1-1s.45-1 1-1 1 .45 1 1-.45 1-1 1m.75 1.25L12 15l.75 1.25h-1.5M13.5 15c-.55 0-1-.45-1-1s.45-1 1-1 1 .45 1 1-.45 1-1 1Z" transform="matrix(1.5 0 0 1.5 360 180)" id="mdi-bottle-tonic-skull" fill="#555"/><path d="M19 13v9H5v-9c0-2.76 2.24-5 5-5V6H9V5h6v1h-1v2c2.76 0 5 2.24 5 5m-6-9 1-2h-4l1 2h2m-1 7c-2.21 0-4 1.79-4 4 0 1 .39 1.9 1 2.59V19h1.25v-1.5h1.13V19h1.25v-1.5h1.12V19H15v-1.41A3.9 3.9 0 0 0 16 15c0-2.21-1.79-4-4-4m-1.5 4c-.55 0-1-.45-1-1s.45-1 1-1 1 .45 1 1-.45 1-1 1m.75 1.25L12 15l.75 1.25h-1.5M13.5 15c-.55 0-1-.45-1-1s.45-1 1-1 1 .45 1 1-.45 1-1 1Z" transform="matrix(1.5 0 0 1.5 396 180)" id="mdi-bottle-tonic-skull" fill="#fff"/><path d="M13 4h-2l-1-2h4l-1 2m1 4V6h1V5H9v1h1v2c-2.76 0-5 2.24-5 5v9h14v-9c0-2.76-2.24-5-5-5m3 12H7v-7c0-1.65 1.35-3 3-3h4c1.65 0 3 1.35 3 3v7m-5-9c-2.21 0-4 1.79-4 4 0 1 .39 1.9 1 2.59V19h1.25v-1.5h1.13V19h1.25v-1.5h1.12V19H15v-1.41A3.9 3.9 0 0 0 16 15c0-2.21-1.79-4-4-4m-1.5 4c-.55 0-1-.45-1-1s.45-1 1-1 1 .45 1 1-.45 1-1 1m.75 1.25L12 15l.75 1.25h-1.5M13.5 15c-.55 0-1-.45-1-1s.45-1 1-1 1 .45 1 1-.45 1-1 1Z" transform="matrix(1.5 0 0 1.5 432 180)" id="mdi-bottle-tonic-skull-outline" fill="#555"/><path d="M13 4h-2l-1-2h4l-1 2m1 4V6h1V5H9v1h1v2c-2.76 0-5 2.24-5 5v9h14v-9c0-2.76-2.24-5-5-5m3 12H7v-7c0-1.65 1.35-3 3-3h4c1.65 0 3 1.35 3 3v7m-5-9c-2.21 0-4 1.79-4 4 0 1 .39 1.9 1 2.59V19h1.25v-1.5h1.13V19h1.25v-1.5h1.12V19H15v-1.41A3.9 3.9 0 0 0 16 15c0-2.21-1.79-4-4-4m-1.5 4c-.55 0-1-.45-1-1s.45-1 1-1 1 .45 1 1-.45 1-1 1m.75 1.25L12 15l.75 1.25h-1.5M13.5 15c-.55 0-1-.45-1-1s.45-1 1-1 1 .45 1 1-.45 1-1 1Z" transform="matrix(1.5 0 0 1.5 468 180)" id="mdi-bottle-tonic-skull-outline" fill="#fff"/><path d="M10 22a1 1 0 0 1-1-1V11c0-2 1-3.75 2-4V2.5a.5.5 0 0 1 .5-.5h1a.5.5 0 0 1 .5.5V7c1 .25 2 2 2 4v10a1 1 0 0 1-1 1h-4Z" transform="matrix(1.5 0 0 1.5 504 180)" id="mdi-bottle-wine" fill="#555"/><path d="M10 22a1 1 0 0 1-1-1V11c0-2 1-3.75 2-4V2.5a.5.5 0 0 1 .5-.5h1a.5.5 0 0 1 .5.5V7c1 .25 2 2 2 4v10a1 1 0 0 1-1 1h-4Z" transform="matrix(1.5 0 0 1.5 540 180)" id="mdi-bottle-wine" fill="#fff"/><path d="M11.5 2c-.28 0-.5.22-.5.5V7c-.07 0-.15 0-.22.03-.96.24-1.57.97-2.02 1.86C8.3 9.76 8 10.84 8 12c.05 3 0 6.03 0 9 0 .55.45 1 1 1h6c.55 0 1-.45 1-1 .04-3 0-6 0-9 0-1.16-.26-2.24-.72-3.12-.45-.88-1.06-1.61-2.02-1.84C13.18 7 13.05 7 13 7V2.5c0-.28-.22-.5-.5-.5M12 8.85c.32 0 .63.05.78.15.07.03.42.26.72.81.28.56.5 1.36.5 2.19v8h-4v-8c0-.83.22-1.63.5-2.19.3-.55.65-.78.72-.81.14-.1.46-.15.78-.15Z" transform="matrix(1.5 0 0 1.5 576 180)" id="mdi-bottle-wine-outline" fill="#555"/><path d="M11.5 2c-.28 0-.5.22-.5.5V7c-.07 0-.15 0-.22.03-.96.24-1.57.97-2.02 1.86C8.3 9.76 8 10.84 8 12c.05 3 0 6.03 0 9 0 .55.45 1 1 1h6c.55 0 1-.45 1-1 .04-3 0-6 0-9 0-1.16-.26-2.24-.72-3.12-.45-.88-1.06-1.61-2.02-1.84C13.18 7 13.05 7 13 7V2.5c0-.28-.22-.5-.5-.5M12 8.85c.32 0 .63.05.78.15.07.03.42.26.72.81.28.56.5 1.36.5 2.19v8h-4v-8c0-.83.22-1.63.5-2.19.3-.55.65-.78.72-.81.14-.1.46-.15.78-.15Z" transform="matrix(1.5 0 0 1.5 612 180)" id="mdi-bottle-wine-outline" fill="#fff"/><path d="M19.03 6.03 20 7l2-5-5 2 .97.97-1.82 1.82C10.87 2.16 3.3 3.94 2.97 4L2 4.26l.5 1.94.79-.2 6.83 6.82L6.94 16H5l-3 3 2 1 1 2 3-3v-1.94l3.18-3.18L18 20.71l-.19.79 1.93.5.26-.97c.06-.33 1.84-7.9-2.79-13.18l1.82-1.82M4.5 5.78c2.05-.28 6.78-.5 10.23 2.43l-3.91 3.91L4.5 5.78M18.22 19.5l-6.34-6.32 3.91-3.91c2.93 3.45 2.71 8.18 2.43 10.23Z" transform="matrix(1.5 0 0 1.5 648 180)" id="mdi-bow-arrow" fill="#555"/><path d="M19.03 6.03 20 7l2-5-5 2 .97.97-1.82 1.82C10.87 2.16 3.3 3.94 2.97 4L2 4.26l.5 1.94.79-.2 6.83 6.82L6.94 16H5l-3 3 2 1 1 2 3-3v-1.94l3.18-3.18L18 20.71l-.19.79 1.93.5.26-.97c.06-.33 1.84-7.9-2.79-13.18l1.82-1.82M4.5 5.78c2.05-.28 6.78-.5 10.23 2.43l-3.91 3.91L4.5 5.78M18.22 19.5l-6.34-6.32 3.91-3.91c2.93 3.45 2.71 8.18 2.43 10.23Z" transform="matrix(1.5 0 0 1.5 684 180)" id="mdi-bow-arrow" fill="#fff"/><path d="m15 14 6 3V7l-6 3v4m-6 0-6 3V7l6 3v4m1-4h4v4h-4v-4Z" transform="matrix(1.5 0 0 1.5 0 216)" id="mdi-bow-tie" fill="#555"/><path d="m15 14 6 3V7l-6 3v4m-6 0-6 3V7l6 3v4m1-4h4v4h-4v-4Z" transform="matrix(1.5 0 0 1.5 36 216)" id="mdi-bow-tie" fill="#fff"/><path d="M22 15c0 3.9-3.1 7-7 7H9c-3.9 0-7-3.1-7-7v-3h20v3Z" transform="matrix(1.5 0 0 1.5 72 216)" id="mdi-bowl" fill="#555"/><path d="M22 15c0 3.9-3.1 7-7 7H9c-3.9 0-7-3.1-7-7v-3h20v3Z" transform="matrix(1.5 0 0 1.5 108 216)" id="mdi-bowl" fill="#fff"/><path d="m16.2 11 4.1-6.5 1.7 1-3.4 5.5h-2.4m-.6 1H2v3c0 3.9 3.1 7 7 7h6c3.9 0 7-3.1 7-7v-3h-6.4Z" transform="matrix(1.5 0 0 1.5 144 216)" id="mdi-bowl-mix" fill="#555"/><path d="m16.2 11 4.1-6.5 1.7 1-3.4 5.5h-2.4m-.6 1H2v3c0 3.9 3.1 7 7 7h6c3.9 0 7-3.1 7-7v-3h-6.4Z" transform="matrix(1.5 0 0 1.5 180 216)" id="mdi-bowl-mix" fill="#fff"/><path d="M15.6 12H2v3c0 3.9 3.1 7 7 7h6c3.9 0 7-3.1 7-7v-3h-6.4m4.4 3c0 2.8-2.2 5-5 5H9c-2.8 0-5-2.2-5-5v-1h16v1m-3.8-4 4.1-6.6L22 5.5 18.6 11h-2.4Z" transform="matrix(1.5 0 0 1.5 216 216)" id="mdi-bowl-mix-outline" fill="#555"/><path d="M15.6 12H2v3c0 3.9 3.1 7 7 7h6c3.9 0 7-3.1 7-7v-3h-6.4m4.4 3c0 2.8-2.2 5-5 5H9c-2.8 0-5-2.2-5-5v-1h16v1m-3.8-4 4.1-6.6L22 5.5 18.6 11h-2.4Z" transform="matrix(1.5 0 0 1.5 252 216)" id="mdi-bowl-mix-outline" fill="#fff"/><path d="M2 12v3c0 3.9 3.1 7 7 7h6c3.9 0 7-3.1 7-7v-3H2m2 2h16v1c0 2.8-2.2 5-5 5H9c-2.8 0-5-2.2-5-5v-1Z" transform="matrix(1.5 0 0 1.5 288 216)" id="mdi-bowl-outline" fill="#555"/><path d="M2 12v3c0 3.9 3.1 7 7 7h6c3.9 0 7-3.1 7-7v-3H2m2 2h16v1c0 2.8-2.2 5-5 5H9c-2.8 0-5-2.2-5-5v-1Z" transform="matrix(1.5 0 0 1.5 324 216)" id="mdi-bowl-outline" fill="#fff"/><path d="M12 2a10 10 0 0 1 10 10 10 10 0 0 1-10 10A10 10 0 0 1 2 12 10 10 0 0 1 12 2m.5 9a1.5 1.5 0 0 0-1.5 1.5 1.5 1.5 0 0 0 1.5 1.5 1.5 1.5 0 0 0 1.5-1.5 1.5 1.5 0 0 0-1.5-1.5M12 5a2 2 0 0 0-2 2 2 2 0 0 0 2 2 2 2 0 0 0 2-2 2 2 0 0 0-2-2M5.93 8.5c-.55.95-.22 2.17.73 2.72.96.56 2.18.23 2.74-.72.55-.97.22-2.19-.74-2.74-.95-.55-2.16-.23-2.73.74Z" transform="matrix(1.5 0 0 1.5 360 216)" id="mdi-bowling" fill="#555"/><path d="M12 2a10 10 0 0 1 10 10 10 10 0 0 1-10 10A10 10 0 0 1 2 12 10 10 0 0 1 12 2m.5 9a1.5 1.5 0 0 0-1.5 1.5 1.5 1.5 0 0 0 1.5 1.5 1.5 1.5 0 0 0 1.5-1.5 1.5 1.5 0 0 0-1.5-1.5M12 5a2 2 0 0 0-2 2 2 2 0 0 0 2 2 2 2 0 0 0 2-2 2 2 0 0 0-2-2M5.93 8.5c-.55.95-.22 2.17.73 2.72.96.56 2.18.23 2.74-.72.55-.97.22-2.19-.74-2.74-.95-.55-2.16-.23-2.73.74Z" transform="matrix(1.5 0 0 1.5 396 216)" id="mdi-bowling" fill="#fff"/><path d="M15.39 14.04a2.57 2.57 0 0 0-2.57-2.57 2.565 2.565 0 1 0 2.57 2.57m1.71 0a4.274 4.274 0 0 1-8.05 2A4.274 4.274 0 0 1 1 14.11V7c0-.44.39-.82.86-.82s.84.38.85.82v3.62c.72-.54 1.61-.86 2.57-.86 1.63 0 3.05.92 3.77 2.27a4.274 4.274 0 0 1 3.77-2.27c2.36 0 4.28 1.92 4.28 4.28m-9.26 0c0-1.42-1.15-2.57-2.56-2.57a2.57 2.57 0 0 0-2.57 2.57 2.565 2.565 0 0 0 5.13 0m15 2.92c.11.16.16.34.16.51 0 .26-.12.53-.34.68a.89.89 0 0 1-.51.17c-.25 0-.5-.11-.65-.32l-1.91-2.53L17.7 18c-.17.21-.42.32-.67.32-.18 0-.36-.06-.53-.17-.21-.15-.33-.43-.33-.69 0-.17.06-.35.16-.5l2.17-2.92-2.17-2.93a.828.828 0 0 1-.16-.5c0-.26.12-.51.33-.68.39-.28.91-.21 1.2.16l1.89 2.52 1.91-2.52c.26-.37.79-.44 1.16-.16.23.17.34.43.34.7 0 .17-.05.34-.16.48l-2.18 2.93 2.18 2.92Z" transform="matrix(1.5 0 0 1.5 432 216)" id="mdi-box" fill="#555"/><path d="M15.39 14.04a2.57 2.57 0 0 0-2.57-2.57 2.565 2.565 0 1 0 2.57 2.57m1.71 0a4.274 4.274 0 0 1-8.05 2A4.274 4.274 0 0 1 1 14.11V7c0-.44.39-.82.86-.82s.84.38.85.82v3.62c.72-.54 1.61-.86 2.57-.86 1.63 0 3.05.92 3.77 2.27a4.274 4.274 0 0 1 3.77-2.27c2.36 0 4.28 1.92 4.28 4.28m-9.26 0c0-1.42-1.15-2.57-2.56-2.57a2.57 2.57 0 0 0-2.57 2.57 2.565 2.565 0 0 0 5.13 0m15 2.92c.11.16.16.34.16.51 0 .26-.12.53-.34.68a.89.89 0 0 1-.51.17c-.25 0-.5-.11-.65-.32l-1.91-2.53L17.7 18c-.17.21-.42.32-.67.32-.18 0-.36-.06-.53-.17-.21-.15-.33-.43-.33-.69 0-.17.06-.35.16-.5l2.17-2.92-2.17-2.93a.828.828 0 0 1-.16-.5c0-.26.12-.51.33-.68.39-.28.91-.21 1.2.16l1.89 2.52 1.91-2.52c.26-.37.79-.44 1.16-.16.23.17.34.43.34.7 0 .17-.05.34-.16.48l-2.18 2.93 2.18 2.92Z" transform="matrix(1.5 0 0 1.5 468 216)" id="mdi-box" fill="#fff"/><path d="M7.22 11.91c-.33.33-.51.74-.56 1.17l5.51 2.36 8.49-8.48c.78-.79.78-2.05 0-2.83l-1.42-1.42c-.78-.78-2.04-.78-2.83 0l-9.19 9.2M5 16v5.75l5.81-5.22-5-2L5 16M17.12 4.83c.38-.39 1.03-.39 1.42 0 .39.4.39 1.03 0 1.42-.39.39-1.04.39-1.42 0-.39-.39-.39-1.02 0-1.42Z" transform="matrix(1.5 0 0 1.5 504 216)" id="mdi-box-cutter" fill="#555"/><path d="M7.22 11.91c-.33.33-.51.74-.56 1.17l5.51 2.36 8.49-8.48c.78-.79.78-2.05 0-2.83l-1.42-1.42c-.78-.78-2.04-.78-2.83 0l-9.19 9.2M5 16v5.75l5.81-5.22-5-2L5 16M17.12 4.83c.38-.39 1.03-.39 1.42 0 .39.4.39 1.03 0 1.42-.39.39-1.04.39-1.42 0-.39-.39-.39-1.02 0-1.42Z" transform="matrix(1.5 0 0 1.5 540 216)" id="mdi-box-cutter" fill="#fff"/><path d="m20.84 22.73-7.98-7.98-.69.69-5.51-2.36c.05-.43.23-.84.56-1.17l1.4-1.41L1.11 3l1.28-1.27 19.72 19.73-1.27 1.27m-5.43-10.52-4.25-4.25 5.25-5.25c.79-.78 2.05-.78 2.83 0l1.42 1.42c.78.78.78 2.04 0 2.83l-5.25 5.25m1.71-5.96c.38.39 1.03.39 1.42 0 .39-.39.39-1.02 0-1.42-.39-.39-1.04-.39-1.42 0-.39.4-.39 1.03 0 1.42M5 16v5.75l5.81-5.22-5-2L5 16Z" transform="matrix(1.5 0 0 1.5 576 216)" id="mdi-box-cutter-off" fill="#555"/><path d="m20.84 22.73-7.98-7.98-.69.69-5.51-2.36c.05-.43.23-.84.56-1.17l1.4-1.41L1.11 3l1.28-1.27 19.72 19.73-1.27 1.27m-5.43-10.52-4.25-4.25 5.25-5.25c.79-.78 2.05-.78 2.83 0l1.42 1.42c.78.78.78 2.04 0 2.83l-5.25 5.25m1.71-5.96c.38.39 1.03.39 1.42 0 .39-.39.39-1.02 0-1.42-.39-.39-1.04-.39-1.42 0-.39.4-.39 1.03 0 1.42M5 16v5.75l5.81-5.22-5-2L5 16Z" transform="matrix(1.5 0 0 1.5 612 216)" id="mdi-box-cutter-off" fill="#fff"/><path d="M3 3h15v15H3V3m16 16h2v2h-2v-2m0-3h2v2h-2v-2m0-3h2v2h-2v-2m0-3h2v2h-2v-2m0-3h2v2h-2V7m-3 12h2v2h-2v-2m-3 0h2v2h-2v-2m-3 0h2v2h-2v-2m-3 0h2v2H7v-2Z" transform="matrix(1.5 0 0 1.5 648 216)" id="mdi-box-shadow" fill="#555"/><path d="M3 3h15v15H3V3m16 16h2v2h-2v-2m0-3h2v2h-2v-2m0-3h2v2h-2v-2m0-3h2v2h-2v-2m0-3h2v2h-2V7m-3 12h2v2h-2v-2m-3 0h2v2h-2v-2m-3 0h2v2h-2v-2m-3 0h2v2H7v-2Z" transform="matrix(1.5 0 0 1.5 684 216)" id="mdi-box-shadow" fill="#fff"/><path d="M19 16V6h3v10h-3M12 4H7S2 4 2 8v6c0 1.77 1 2.76 2.07 3.31A3.996 3.996 0 0 1 8 14h3v2H8a2 2 0 0 0-2 2 2 2 0 0 0 2 2h5c4 0 4-4 4-4V6s-1-2-5-2Z" transform="matrix(1.5 0 0 1.5 0 252)" id="mdi-boxing-glove" fill="#555"/><path d="M19 16V6h3v10h-3M12 4H7S2 4 2 8v6c0 1.77 1 2.76 2.07 3.31A3.996 3.996 0 0 1 8 14h3v2H8a2 2 0 0 0-2 2 2 2 0 0 0 2 2h5c4 0 4-4 4-4V6s-1-2-5-2Z" transform="matrix(1.5 0 0 1.5 36 252)" id="mdi-boxing-glove" fill="#fff"/><path d="M7 8a1 1 0 0 1 1-1 1 1 0 0 1 1 1v4.47l1.21.13 4.94 2.19c.52.24.85.77.85 1.35v4.36c-.03.82-.68 1.47-1.5 1.5H8c-.38 0-.74-.15-1-.43l-4.9-4.2.74-.77c.19-.21.46-.32.74-.32h.22L7 18V8m12.5-6A1.5 1.5 0 0 0 18 3.5 1.5 1.5 0 0 0 19.5 5 1.5 1.5 0 0 0 21 3.5 1.5 1.5 0 0 0 19.5 2m0 5A1.5 1.5 0 0 0 18 8.5a1.5 1.5 0 0 0 1.5 1.5A1.5 1.5 0 0 0 21 8.5 1.5 1.5 0 0 0 19.5 7m-5 0A1.5 1.5 0 0 0 13 8.5a1.5 1.5 0 0 0 1.5 1.5A1.5 1.5 0 0 0 16 8.5 1.5 1.5 0 0 0 14.5 7m5 5a1.5 1.5 0 0 0-1.5 1.5 1.5 1.5 0 0 0 1.5 1.5 1.5 1.5 0 0 0 1.5-1.5 1.5 1.5 0 0 0-1.5-1.5Z" transform="matrix(1.5 0 0 1.5 72 252)" id="mdi-braille" fill="#555"/><path d="M7 8a1 1 0 0 1 1-1 1 1 0 0 1 1 1v4.47l1.21.13 4.94 2.19c.52.24.85.77.85 1.35v4.36c-.03.82-.68 1.47-1.5 1.5H8c-.38 0-.74-.15-1-.43l-4.9-4.2.74-.77c.19-.21.46-.32.74-.32h.22L7 18V8m12.5-6A1.5 1.5 0 0 0 18 3.5 1.5 1.5 0 0 0 19.5 5 1.5 1.5 0 0 0 21 3.5 1.5 1.5 0 0 0 19.5 2m0 5A1.5 1.5 0 0 0 18 8.5a1.5 1.5 0 0 0 1.5 1.5A1.5 1.5 0 0 0 21 8.5 1.5 1.5 0 0 0 19.5 7m-5 0A1.5 1.5 0 0 0 13 8.5a1.5 1.5 0 0 0 1.5 1.5A1.5 1.5 0 0 0 16 8.5 1.5 1.5 0 0 0 14.5 7m5 5a1.5 1.5 0 0 0-1.5 1.5 1.5 1.5 0 0 0 1.5 1.5 1.5 1.5 0 0 0 1.5-1.5 1.5 1.5 0 0 0-1.5-1.5Z" transform="matrix(1.5 0 0 1.5 108 252)" id="mdi-braille" fill="#fff"/><path d="M21.33 12.91c.09 1.55-.62 3.04-1.89 3.95l.77 1.49c.23.45.26.98.06 1.45-.19.47-.58.84-1.06 1l-.79.25a1.687 1.687 0 0 1-1.86-.55L14.44 18c-.89-.15-1.73-.53-2.44-1.1-.5.15-1 .23-1.5.23-.88 0-1.76-.27-2.5-.79-.53.16-1.07.23-1.62.22-.79.01-1.57-.15-2.3-.45a4.105 4.105 0 0 1-2.43-3.61c-.08-.72.04-1.45.35-2.11-.29-.75-.32-1.57-.07-2.33C2.3 7.11 3 6.32 3.87 5.82c.58-1.69 2.21-2.82 4-2.7 1.6-1.5 4.05-1.66 5.83-.37.42-.11.86-.17 1.3-.17 1.36-.03 2.65.57 3.5 1.64 2.04.53 3.5 2.35 3.58 4.47.05 1.11-.25 2.2-.86 3.13.07.36.11.72.11 1.09m-5-1.41c.57.07 1.02.5 1.02 1.07a1 1 0 0 1-1 1h-.63c-.32.9-.88 1.69-1.62 2.29.25.09.51.14.77.21 5.13-.07 4.53-3.2 4.53-3.25a2.592 2.592 0 0 0-2.69-2.49 1 1 0 0 1-1-1 1 1 0 0 1 1-1c1.23.03 2.41.49 3.33 1.3.05-.29.08-.59.08-.89-.06-1.24-.62-2.32-2.87-2.53-1.25-2.96-4.4-1.32-4.4-.4-.03.23.21.72.25.75a1 1 0 0 1 1 1c0 .55-.45 1-1 1-.53-.02-1.03-.22-1.43-.56-.48.31-1.03.5-1.6.56-.57.05-1.04-.35-1.07-.9a.968.968 0 0 1 .88-1.1c.16-.02.94-.14.94-.77 0-.66.25-1.29.68-1.79-.92-.25-1.91.08-2.91 1.29C6.75 5 6 5.25 5.45 7.2 4.5 7.67 4 8 3.78 9c1.08-.22 2.19-.13 3.22.25.5.19.78.75.59 1.29-.19.52-.77.78-1.29.59-.73-.32-1.55-.34-2.3-.06-.32.27-.32.83-.32 1.27 0 .74.37 1.43 1 1.83.53.27 1.12.41 1.71.4-.15-.26-.28-.53-.39-.81a1.038 1.038 0 0 1 1.96-.68c.4 1.14 1.42 1.92 2.62 2.05 1.37-.07 2.59-.88 3.19-2.13.23-1.38 1.34-1.5 2.56-1.5m2 7.47-.62-1.3-.71.16 1 1.25.33-.11m-4.65-8.61a1 1 0 0 0-.91-1.03c-.71-.04-1.4.2-1.93.67-.57.58-.87 1.38-.84 2.19a1 1 0 0 0 1 1c.57 0 1-.45 1-1 0-.27.07-.54.23-.76.12-.1.27-.15.43-.15.55.03 1.02-.38 1.02-.92Z" transform="matrix(1.5 0 0 1.5 144 252)" id="mdi-brain" fill="#555"/><path d="M21.33 12.91c.09 1.55-.62 3.04-1.89 3.95l.77 1.49c.23.45.26.98.06 1.45-.19.47-.58.84-1.06 1l-.79.25a1.687 1.687 0 0 1-1.86-.55L14.44 18c-.89-.15-1.73-.53-2.44-1.1-.5.15-1 .23-1.5.23-.88 0-1.76-.27-2.5-.79-.53.16-1.07.23-1.62.22-.79.01-1.57-.15-2.3-.45a4.105 4.105 0 0 1-2.43-3.61c-.08-.72.04-1.45.35-2.11-.29-.75-.32-1.57-.07-2.33C2.3 7.11 3 6.32 3.87 5.82c.58-1.69 2.21-2.82 4-2.7 1.6-1.5 4.05-1.66 5.83-.37.42-.11.86-.17 1.3-.17 1.36-.03 2.65.57 3.5 1.64 2.04.53 3.5 2.35 3.58 4.47.05 1.11-.25 2.2-.86 3.13.07.36.11.72.11 1.09m-5-1.41c.57.07 1.02.5 1.02 1.07a1 1 0 0 1-1 1h-.63c-.32.9-.88 1.69-1.62 2.29.25.09.51.14.77.21 5.13-.07 4.53-3.2 4.53-3.25a2.592 2.592 0 0 0-2.69-2.49 1 1 0 0 1-1-1 1 1 0 0 1 1-1c1.23.03 2.41.49 3.33 1.3.05-.29.08-.59.08-.89-.06-1.24-.62-2.32-2.87-2.53-1.25-2.96-4.4-1.32-4.4-.4-.03.23.21.72.25.75a1 1 0 0 1 1 1c0 .55-.45 1-1 1-.53-.02-1.03-.22-1.43-.56-.48.31-1.03.5-1.6.56-.57.05-1.04-.35-1.07-.9a.968.968 0 0 1 .88-1.1c.16-.02.94-.14.94-.77 0-.66.25-1.29.68-1.79-.92-.25-1.91.08-2.91 1.29C6.75 5 6 5.25 5.45 7.2 4.5 7.67 4 8 3.78 9c1.08-.22 2.19-.13 3.22.25.5.19.78.75.59 1.29-.19.52-.77.78-1.29.59-.73-.32-1.55-.34-2.3-.06-.32.27-.32.83-.32 1.27 0 .74.37 1.43 1 1.83.53.27 1.12.41 1.71.4-.15-.26-.28-.53-.39-.81a1.038 1.038 0 0 1 1.96-.68c.4 1.14 1.42 1.92 2.62 2.05 1.37-.07 2.59-.88 3.19-2.13.23-1.38 1.34-1.5 2.56-1.5m2 7.47-.62-1.3-.71.16 1 1.25.33-.11m-4.65-8.61a1 1 0 0 0-.91-1.03c-.71-.04-1.4.2-1.93.67-.57.58-.87 1.38-.84 2.19a1 1 0 0 0 1 1c.57 0 1-.45 1-1 0-.27.07-.54.23-.76.12-.1.27-.15.43-.15.55.03 1.02-.38 1.02-.92Z" transform="matrix(1.5 0 0 1.5 180 252)" id="mdi-brain" fill="#fff"/><path d="M12 2c5.5 0 10 3.36 10 7.5 0 1.69-.74 3.25-2 4.5v8H4v-8c-1.26-1.25-2-2.81-2-4.5C2 5.36 6.5 2 12 2M8 18h4v-4H8v4Z" transform="matrix(1.5 0 0 1.5 216 252)" id="mdi-bread-slice" fill="#555"/><path d="M12 2c5.5 0 10 3.36 10 7.5 0 1.69-.74 3.25-2 4.5v8H4v-8c-1.26-1.25-2-2.81-2-4.5C2 5.36 6.5 2 12 2M8 18h4v-4H8v4Z" transform="matrix(1.5 0 0 1.5 252 252)" id="mdi-bread-slice" fill="#fff"/><path d="M12 2c5.5 0 10 3.36 10 7.5 0 1.69-.74 3.25-2 4.5v8H4v-8c-1.26-1.25-2-2.81-2-4.5C2 5.36 6.5 2 12 2m6 11.14c1.24-.97 2-2.25 2-3.64C20 6.46 16.42 4 12 4S4 6.46 4 9.5c0 1.39.76 2.67 2 3.64V20h12v-6.86M8 18v-4h4v4H8Z" transform="matrix(1.5 0 0 1.5 288 252)" id="mdi-bread-slice-outline" fill="#555"/><path d="M12 2c5.5 0 10 3.36 10 7.5 0 1.69-.74 3.25-2 4.5v8H4v-8c-1.26-1.25-2-2.81-2-4.5C2 5.36 6.5 2 12 2m6 11.14c1.24-.97 2-2.25 2-3.64C20 6.46 16.42 4 12 4S4 6.46 4 9.5c0 1.39.76 2.67 2 3.64V20h12v-6.86M8 18v-4h4v4H8Z" transform="matrix(1.5 0 0 1.5 324 252)" id="mdi-bread-slice-outline" fill="#fff"/><path d="M7 14v-3.09c-.72-.33-1.39-.73-2-1.2V14h2m-2 4H3v-2H1v-2h2V7h2v1.43C6.8 10 9.27 11 12 11c2.73 0 5.2-1 7-2.57V7h2v7h2v2h-2v2h-2v-2H5v2m12-7.09V14h2V9.71c-.61.47-1.28.87-2 1.2M16 14v-2.68c-.64.23-1.31.4-2 .52V14h2m-3 0v-2.04L12 12l-1-.04V14h2m-3 0v-2.16c-.69-.12-1.36-.29-2-.52V14h2Z" transform="matrix(1.5 0 0 1.5 360 252)" id="mdi-bridge" fill="#555"/><path d="M7 14v-3.09c-.72-.33-1.39-.73-2-1.2V14h2m-2 4H3v-2H1v-2h2V7h2v1.43C6.8 10 9.27 11 12 11c2.73 0 5.2-1 7-2.57V7h2v7h2v2h-2v2h-2v-2H5v2m12-7.09V14h2V9.71c-.61.47-1.28.87-2 1.2M16 14v-2.68c-.64.23-1.31.4-2 .52V14h2m-3 0v-2.04L12 12l-1-.04V14h2m-3 0v-2.16c-.69-.12-1.36-.29-2-.52V14h2Z" transform="matrix(1.5 0 0 1.5 396 252)" id="mdi-bridge" fill="#fff"/><path d="M10 2h4a2 2 0 0 1 2 2v2h4a2 2 0 0 1 2 2v11a2 2 0 0 1-2 2H4a2 2 0 0 1-2-2V8c0-1.11.89-2 2-2h4V4c0-1.11.89-2 2-2m4 4V4h-4v2h4Z" transform="matrix(1.5 0 0 1.5 432 252)" id="mdi-briefcase" fill="#555"/><path d="M10 2h4a2 2 0 0 1 2 2v2h4a2 2 0 0 1 2 2v11a2 2 0 0 1-2 2H4a2 2 0 0 1-2-2V8c0-1.11.89-2 2-2h4V4c0-1.11.89-2 2-2m4 4V4h-4v2h4Z" transform="matrix(1.5 0 0 1.5 468 252)" id="mdi-briefcase" fill="#fff"/><path d="M20 6h-4V4a2 2 0 0 0-2-2h-4c-1.11 0-2 .89-2 2v2H4c-1.11 0-2 .89-2 2v11a2 2 0 0 0 2 2h16a2 2 0 0 0 2-2V8a2 2 0 0 0-2-2M10 4h4v2h-4V4m2 5a2.5 2.5 0 0 1 2.5 2.5A2.5 2.5 0 0 1 12 14a2.5 2.5 0 0 1-2.5-2.5A2.5 2.5 0 0 1 12 9m5 10H7v-1.25c0-1.38 2.24-2.5 5-2.5s5 1.12 5 2.5V19Z" transform="matrix(1.5 0 0 1.5 504 252)" id="mdi-briefcase-account" fill="#555"/><path d="M20 6h-4V4a2 2 0 0 0-2-2h-4c-1.11 0-2 .89-2 2v2H4c-1.11 0-2 .89-2 2v11a2 2 0 0 0 2 2h16a2 2 0 0 0 2-2V8a2 2 0 0 0-2-2M10 4h4v2h-4V4m2 5a2.5 2.5 0 0 1 2.5 2.5A2.5 2.5 0 0 1 12 14a2.5 2.5 0 0 1-2.5-2.5A2.5 2.5 0 0 1 12 9m5 10H7v-1.25c0-1.38 2.24-2.5 5-2.5s5 1.12 5 2.5V19Z" transform="matrix(1.5 0 0 1.5 540 252)" id="mdi-briefcase-account" fill="#fff"/><path d="M20 6c.58 0 1.05.2 1.42.59.38.41.58.86.58 1.41v11c0 .55-.2 1-.58 1.41-.37.39-.84.59-1.42.59H4c-.58 0-1.05-.2-1.42-.59C2.2 20 2 19.55 2 19V8c0-.55.2-1 .58-1.41C2.95 6.2 3.42 6 4 6h4V4c0-.58.2-1.05.58-1.42C8.95 2.2 9.42 2 10 2h4c.58 0 1.05.2 1.42.58.38.37.58.84.58 1.42v2h4M4 8v11h16V8H4m10-2V4h-4v2h4m-2 3a2.25 2.25 0 0 1 2.25 2.25c0 1.25-1.01 2.25-2.25 2.25a2.25 2.25 0 0 1-2.25-2.25C9.75 10 10.76 9 12 9m4.5 9h-9v-1.12c0-1.25 2-2.25 4.5-2.25s4.5 1 4.5 2.25V18Z" transform="matrix(1.5 0 0 1.5 576 252)" id="mdi-briefcase-account-outline" fill="#555"/><path d="M20 6c.58 0 1.05.2 1.42.59.38.41.58.86.58 1.41v11c0 .55-.2 1-.58 1.41-.37.39-.84.59-1.42.59H4c-.58 0-1.05-.2-1.42-.59C2.2 20 2 19.55 2 19V8c0-.55.2-1 .58-1.41C2.95 6.2 3.42 6 4 6h4V4c0-.58.2-1.05.58-1.42C8.95 2.2 9.42 2 10 2h4c.58 0 1.05.2 1.42.58.38.37.58.84.58 1.42v2h4M4 8v11h16V8H4m10-2V4h-4v2h4m-2 3a2.25 2.25 0 0 1 2.25 2.25c0 1.25-1.01 2.25-2.25 2.25a2.25 2.25 0 0 1-2.25-2.25C9.75 10 10.76 9 12 9m4.5 9h-9v-1.12c0-1.25 2-2.25 4.5-2.25s4.5 1 4.5 2.25V18Z" transform="matrix(1.5 0 0 1.5 612 252)" id="mdi-briefcase-account-outline" fill="#fff"/><path d="M10 2h4a2 2 0 0 1 2 2v2h4a2 2 0 0 1 2 2v11a2 2 0 0 1-2 2H4a2 2 0 0 1-2-2V8a2 2 0 0 1 2-2h4V4a2 2 0 0 1 2-2m4 4V4h-4v2h4m-3.5 11.5 6.59-6.59-1.41-1.41-5.18 5.17-2.09-2.08L7 14l3.5 3.5Z" transform="matrix(1.5 0 0 1.5 648 252)" id="mdi-briefcase-check" fill="#555"/><path d="M10 2h4a2 2 0 0 1 2 2v2h4a2 2 0 0 1 2 2v11a2 2 0 0 1-2 2H4a2 2 0 0 1-2-2V8a2 2 0 0 1 2-2h4V4a2 2 0 0 1 2-2m4 4V4h-4v2h4m-3.5 11.5 6.59-6.59-1.41-1.41-5.18 5.17-2.09-2.08L7 14l3.5 3.5Z" transform="matrix(1.5 0 0 1.5 684 252)" id="mdi-briefcase-check" fill="#fff"/><path d="M20 6c.58 0 1.05.2 1.42.59.38.41.58.86.58 1.41v11c0 .55-.2 1-.58 1.41-.37.39-.84.59-1.42.59H4c-.58 0-1.05-.2-1.42-.59C2.2 20 2 19.55 2 19V8c0-.55.2-1 .58-1.41C2.95 6.2 3.42 6 4 6h4V4c0-.58.2-1.05.58-1.42C8.95 2.2 9.42 2 10 2h4c.58 0 1.05.2 1.42.58.38.37.58.84.58 1.42v2h4M4 8v11h16V8H4m10-2V4h-4v2h4m-3.54 11.5 6.59-6.59-1.41-1.41-5.18 5.17-2.09-2.08L6.96 14l3.5 3.5Z" transform="matrix(1.5 0 0 1.5 0 288)" id="mdi-briefcase-check-outline" fill="#555"/><path d="M20 6c.58 0 1.05.2 1.42.59.38.41.58.86.58 1.41v11c0 .55-.2 1-.58 1.41-.37.39-.84.59-1.42.59H4c-.58 0-1.05-.2-1.42-.59C2.2 20 2 19.55 2 19V8c0-.55.2-1 .58-1.41C2.95 6.2 3.42 6 4 6h4V4c0-.58.2-1.05.58-1.42C8.95 2.2 9.42 2 10 2h4c.58 0 1.05.2 1.42.58.38.37.58.84.58 1.42v2h4M4 8v11h16V8H4m10-2V4h-4v2h4m-3.54 11.5 6.59-6.59-1.41-1.41-5.18 5.17-2.09-2.08L6.96 14l3.5 3.5Z" transform="matrix(1.5 0 0 1.5 36 288)" id="mdi-briefcase-check-outline" fill="#fff"/><path d="M21 11.11V7a2 2 0 0 0-2-2h-4V3a2 2 0 0 0-2-2H9a2 2 0 0 0-2 2v2H3a2 2 0 0 0-2 2v11a2 2 0 0 0 2 2h7.26A7 7 0 1 0 21 11.11M9 3h4v2H9m10 15a5 5 0 0 1-6 0 5 5 0 1 1 6 0m-4-7h1.5v2.82l2.44 1.41-.75 1.3L15 16.69V13" transform="matrix(1.5 0 0 1.5 72 288)" id="mdi-briefcase-clock" fill="#555"/><path d="M21 11.11V7a2 2 0 0 0-2-2h-4V3a2 2 0 0 0-2-2H9a2 2 0 0 0-2 2v2H3a2 2 0 0 0-2 2v11a2 2 0 0 0 2 2h7.26A7 7 0 1 0 21 11.11M9 3h4v2H9m10 15a5 5 0 0 1-6 0 5 5 0 1 1 6 0m-4-7h1.5v2.82l2.44 1.41-.75 1.3L15 16.69V13" transform="matrix(1.5 0 0 1.5 108 288)" id="mdi-briefcase-clock" fill="#fff"/><path d="M21 11.11V7a2 2 0 0 0-.58-1.41A1.87 1.87 0 0 0 19 5h-4V3a1.9 1.9 0 0 0-.58-1.42A1.9 1.9 0 0 0 13 1H9a1.9 1.9 0 0 0-1.42.58A1.9 1.9 0 0 0 7 3v2H3a1.87 1.87 0 0 0-1.42.59A2 2 0 0 0 1 7v11a2 2 0 0 0 .58 1.41A1.87 1.87 0 0 0 3 20h7.26A7 7 0 1 0 21 11.11M9 3h4v2H9M3 18V7h16v2.68A6.84 6.84 0 0 0 16 9a7 7 0 0 0-7 7 6.91 6.91 0 0 0 .29 2M19 20a5 5 0 0 1-6 0 4.94 4.94 0 0 1-2-4 5 5 0 0 1 5-5 4.94 4.94 0 0 1 3 1 5 5 0 0 1 0 8m-4-7h1.5v2.82l2.44 1.41-.75 1.3L15 16.69V13" transform="matrix(1.5 0 0 1.5 144 288)" id="mdi-briefcase-clock-outline" fill="#555"/><path d="M21 11.11V7a2 2 0 0 0-.58-1.41A1.87 1.87 0 0 0 19 5h-4V3a1.9 1.9 0 0 0-.58-1.42A1.9 1.9 0 0 0 13 1H9a1.9 1.9 0 0 0-1.42.58A1.9 1.9 0 0 0 7 3v2H3a1.87 1.87 0 0 0-1.42.59A2 2 0 0 0 1 7v11a2 2 0 0 0 .58 1.41A1.87 1.87 0 0 0 3 20h7.26A7 7 0 1 0 21 11.11M9 3h4v2H9M3 18V7h16v2.68A6.84 6.84 0 0 0 16 9a7 7 0 0 0-7 7 6.91 6.91 0 0 0 .29 2M19 20a5 5 0 0 1-6 0 4.94 4.94 0 0 1-2-4 5 5 0 0 1 5-5 4.94 4.94 0 0 1 3 1 5 5 0 0 1 0 8m-4-7h1.5v2.82l2.44 1.41-.75 1.3L15 16.69V13" transform="matrix(1.5 0 0 1.5 180 288)" id="mdi-briefcase-clock-outline" fill="#fff"/><path d="M10 2h4a2 2 0 0 1 2 2v2h4a2 2 0 0 1 2 2v11a2 2 0 0 1-2 2H4a2 2 0 0 1-2-2V8c0-1.11.89-2 2-2h4V4c0-1.11.89-2 2-2m4 4V4h-4v2h4m-2 13 5-5h-3v-4h-4v4H7l5 5Z" transform="matrix(1.5 0 0 1.5 216 288)" id="mdi-briefcase-download" fill="#555"/><path d="M10 2h4a2 2 0 0 1 2 2v2h4a2 2 0 0 1 2 2v11a2 2 0 0 1-2 2H4a2 2 0 0 1-2-2V8c0-1.11.89-2 2-2h4V4c0-1.11.89-2 2-2m4 4V4h-4v2h4m-2 13 5-5h-3v-4h-4v4H7l5 5Z" transform="matrix(1.5 0 0 1.5 252 288)" id="mdi-briefcase-download" fill="#fff"/><path d="m12 18-5-5h3V9h4v4h3l-5 5M10 2h4a2 2 0 0 1 2 2v2h4a2 2 0 0 1 2 2v11a2 2 0 0 1-2 2H4a2 2 0 0 1-2-2V8c0-1.11.89-2 2-2h4V4c0-1.11.89-2 2-2m4 4V4h-4v2h4M4 8v11h16V8H4Z" transform="matrix(1.5 0 0 1.5 288 288)" id="mdi-briefcase-download-outline" fill="#555"/><path d="m12 18-5-5h3V9h4v4h3l-5 5M10 2h4a2 2 0 0 1 2 2v2h4a2 2 0 0 1 2 2v11a2 2 0 0 1-2 2H4a2 2 0 0 1-2-2V8c0-1.11.89-2 2-2h4V4c0-1.11.89-2 2-2m4 4V4h-4v2h4M4 8v11h16V8H4Z" transform="matrix(1.5 0 0 1.5 324 288)" id="mdi-briefcase-download-outline" fill="#fff"/><path d="M14 2a2 2 0 0 1 2 2v2h4a2 2 0 0 1 2 2L10.85 19v2H4a2 2 0 0 1-2-2V8c0-1.11.89-2 2-2h4V4c0-1.11.89-2 2-2h4m0 4V4h-4v2h4m7.04 6.13c-.14 0-.28.06-.39.17l-1 1 2.05 2.05 1-1c.22-.21.22-.56 0-.77l-1.28-1.28a.533.533 0 0 0-.38-.17m-1.97 1.75L13 19.94V22h2.06l6.06-6.07-2.05-2.05Z" transform="matrix(1.5 0 0 1.5 360 288)" id="mdi-briefcase-edit" fill="#555"/><path d="M14 2a2 2 0 0 1 2 2v2h4a2 2 0 0 1 2 2L10.85 19v2H4a2 2 0 0 1-2-2V8c0-1.11.89-2 2-2h4V4c0-1.11.89-2 2-2h4m0 4V4h-4v2h4m7.04 6.13c-.14 0-.28.06-.39.17l-1 1 2.05 2.05 1-1c.22-.21.22-.56 0-.77l-1.28-1.28a.533.533 0 0 0-.38-.17m-1.97 1.75L13 19.94V22h2.06l6.06-6.07-2.05-2.05Z" transform="matrix(1.5 0 0 1.5 396 288)" id="mdi-briefcase-edit" fill="#fff"/><path d="M21.04 12.13c.14 0 .27.06.38.17l1.28 1.28c.22.21.22.56 0 .77l-1 1-2.05-2.05 1-1c.11-.11.25-.17.39-.17m-1.97 1.75 2.05 2.05L15.06 22H13v-2.06l6.07-6.06M10 2h4a2 2 0 0 1 2 2v2h4a2 2 0 0 1 2 2l-2 2V8H4v11h7v2H4a2 2 0 0 1-2-2V8a2 2 0 0 1 2-2h4V4a2 2 0 0 1 2-2m4 4V4h-4v2h4Z" transform="matrix(1.5 0 0 1.5 432 288)" id="mdi-briefcase-edit-outline" fill="#555"/><path d="M21.04 12.13c.14 0 .27.06.38.17l1.28 1.28c.22.21.22.56 0 .77l-1 1-2.05-2.05 1-1c.11-.11.25-.17.39-.17m-1.97 1.75 2.05 2.05L15.06 22H13v-2.06l6.07-6.06M10 2h4a2 2 0 0 1 2 2v2h4a2 2 0 0 1 2 2l-2 2V8H4v11h7v2H4a2 2 0 0 1-2-2V8a2 2 0 0 1 2-2h4V4a2 2 0 0 1 2-2m4 4V4h-4v2h4Z" transform="matrix(1.5 0 0 1.5 468 288)" id="mdi-briefcase-edit-outline" fill="#fff"/><path d="M17 18c.6 0 1 .4 1 1s-.4 1-1 1-1-.4-1-1 .4-1 1-1m-7.9 1.7-.3-.7.3-.7c1.3-3.2 4.4-5.3 7.9-5.3 1.9 0 3.6.6 5 1.6V8c0-1.1-.9-2-2-2h-4V4c0-1.1-.9-2-2-2h-4c-1.1 0-2 .9-2 2v2H4c-1.1 0-2 .9-2 2v11c0 1.1.9 2 2 2h5.8c-.3-.4-.5-.8-.7-1.3M10 4h4v2h-4V4m7 11c-2.7 0-5.1 1.7-6 4 .9 2.3 3.3 4 6 4s5.1-1.7 6-4c-.9-2.3-3.3-4-6-4m0 6.5c-1.4 0-2.5-1.1-2.5-2.5s1.1-2.5 2.5-2.5 2.5 1.1 2.5 2.5-1.1 2.5-2.5 2.5Z" transform="matrix(1.5 0 0 1.5 504 288)" id="mdi-briefcase-eye" fill="#555"/><path d="M17 18c.6 0 1 .4 1 1s-.4 1-1 1-1-.4-1-1 .4-1 1-1m-7.9 1.7-.3-.7.3-.7c1.3-3.2 4.4-5.3 7.9-5.3 1.9 0 3.6.6 5 1.6V8c0-1.1-.9-2-2-2h-4V4c0-1.1-.9-2-2-2h-4c-1.1 0-2 .9-2 2v2H4c-1.1 0-2 .9-2 2v11c0 1.1.9 2 2 2h5.8c-.3-.4-.5-.8-.7-1.3M10 4h4v2h-4V4m7 11c-2.7 0-5.1 1.7-6 4 .9 2.3 3.3 4 6 4s5.1-1.7 6-4c-.9-2.3-3.3-4-6-4m0 6.5c-1.4 0-2.5-1.1-2.5-2.5s1.1-2.5 2.5-2.5 2.5 1.1 2.5 2.5-1.1 2.5-2.5 2.5Z" transform="matrix(1.5 0 0 1.5 540 288)" id="mdi-briefcase-eye" fill="#fff"/><path d="M17 18c.6 0 1 .4 1 1s-.4 1-1 1-1-.4-1-1 .4-1 1-1m0-3c-2.7 0-5.1 1.7-6 4 .9 2.3 3.3 4 6 4s5.1-1.7 6-4c-.9-2.3-3.3-4-6-4m0 6.5c-1.4 0-2.5-1.1-2.5-2.5s1.1-2.5 2.5-2.5 2.5 1.1 2.5 2.5-1.1 2.5-2.5 2.5m-7.9-1.8-.3-.7H4V8h16v5.6c.7.3 1.4.6 2 1.1V8c0-.5-.2-1-.6-1.4-.4-.4-.8-.6-1.4-.6h-4V4c0-.6-.2-1-.6-1.4-.4-.4-.8-.6-1.4-.6h-4c-.6 0-1 .2-1.4.6C8.2 3 8 3.4 8 4v2H4c-.6 0-1 .2-1.4.6C2.2 7 2 7.5 2 8v11c0 .5.2 1 .6 1.4.4.4.8.6 1.4.6h5.8c-.3-.4-.5-.8-.7-1.3M10 4h4v2h-4V4Z" transform="matrix(1.5 0 0 1.5 576 288)" id="mdi-briefcase-eye-outline" fill="#555"/><path d="M17 18c.6 0 1 .4 1 1s-.4 1-1 1-1-.4-1-1 .4-1 1-1m0-3c-2.7 0-5.1 1.7-6 4 .9 2.3 3.3 4 6 4s5.1-1.7 6-4c-.9-2.3-3.3-4-6-4m0 6.5c-1.4 0-2.5-1.1-2.5-2.5s1.1-2.5 2.5-2.5 2.5 1.1 2.5 2.5-1.1 2.5-2.5 2.5m-7.9-1.8-.3-.7H4V8h16v5.6c.7.3 1.4.6 2 1.1V8c0-.5-.2-1-.6-1.4-.4-.4-.8-.6-1.4-.6h-4V4c0-.6-.2-1-.6-1.4-.4-.4-.8-.6-1.4-.6h-4c-.6 0-1 .2-1.4.6C8.2 3 8 3.4 8 4v2H4c-.6 0-1 .2-1.4.6C2.2 7 2 7.5 2 8v11c0 .5.2 1 .6 1.4.4.4.8.6 1.4.6h5.8c-.3-.4-.5-.8-.7-1.3M10 4h4v2h-4V4Z" transform="matrix(1.5 0 0 1.5 612 288)" id="mdi-briefcase-eye-outline" fill="#fff"/><path d="M22 17v2h-8v-2h8M10 2h4a2 2 0 0 1 2 2v2h4a2 2 0 0 1 2 2v5.53A5.97 5.97 0 0 0 18 12a6 6 0 0 0-6 6c0 1.09.29 2.12.8 3H4a2 2 0 0 1-2-2V8c0-1.11.89-2 2-2h4V4c0-1.11.89-2 2-2m4 4V4h-4v2h4Z" transform="matrix(1.5 0 0 1.5 648 288)" id="mdi-briefcase-minus" fill="#555"/><path d="M22 17v2h-8v-2h8M10 2h4a2 2 0 0 1 2 2v2h4a2 2 0 0 1 2 2v5.53A5.97 5.97 0 0 0 18 12a6 6 0 0 0-6 6c0 1.09.29 2.12.8 3H4a2 2 0 0 1-2-2V8c0-1.11.89-2 2-2h4V4c0-1.11.89-2 2-2m4 4V4h-4v2h4Z" transform="matrix(1.5 0 0 1.5 684 288)" id="mdi-briefcase-minus" fill="#fff"/><path d="M10 2h4a2 2 0 0 1 2 2v2h4a2 2 0 0 1 2 2v5.53a5.72 5.72 0 0 0-2-1.19V8H4v11h8.08c.12.72.37 1.39.72 2H4a2 2 0 0 1-2-2V8a2 2 0 0 1 2-2h4V4a2 2 0 0 1 2-2m4 4V4h-4v2h4m0 11h8v2h-8v-2Z" transform="matrix(1.5 0 0 1.5 0 324)" id="mdi-briefcase-minus-outline" fill="#555"/><path d="M10 2h4a2 2 0 0 1 2 2v2h4a2 2 0 0 1 2 2v5.53a5.72 5.72 0 0 0-2-1.19V8H4v11h8.08c.12.72.37 1.39.72 2H4a2 2 0 0 1-2-2V8a2 2 0 0 1 2-2h4V4a2 2 0 0 1 2-2m4 4V4h-4v2h4m0 11h8v2h-8v-2Z" transform="matrix(1.5 0 0 1.5 36 324)" id="mdi-briefcase-minus-outline" fill="#fff"/><path d="m22.11 21.46-1.27 1.27L19.11 21H4a2 2 0 0 1-2-2V8c0-1.11.89-2 2-2h.11l-3-3 1.28-1.27 19.72 19.73M22 18.8 8 4.8V4c0-1.11.89-2 2-2h4a2 2 0 0 1 2 2v2h4a2 2 0 0 1 2 2v10.8M14 4h-4v2h4V4Z" transform="matrix(1.5 0 0 1.5 72 324)" id="mdi-briefcase-off" fill="#555"/><path d="m22.11 21.46-1.27 1.27L19.11 21H4a2 2 0 0 1-2-2V8c0-1.11.89-2 2-2h.11l-3-3 1.28-1.27 19.72 19.73M22 18.8 8 4.8V4c0-1.11.89-2 2-2h4a2 2 0 0 1 2 2v2h4a2 2 0 0 1 2 2v10.8M14 4h-4v2h4V4Z" transform="matrix(1.5 0 0 1.5 108 324)" id="mdi-briefcase-off" fill="#fff"/><path d="M20 8v8.8l2 2V8c0-.55-.2-1-.58-1.41C21.05 6.2 20.58 6 20 6h-4V4c0-.58-.2-1.05-.58-1.42C15.05 2.2 14.58 2 14 2h-4c-.58 0-1.05.2-1.42.58C8.2 2.95 8 3.42 8 4v.8L11.2 8H20M10 4h4v2h-4V4M2.39 1.73 1.11 3l3 3H4c-.58 0-1.05.2-1.42.59C2.2 7 2 7.45 2 8v11c0 .55.2 1 .58 1.41.37.39.84.59 1.42.59h15.11l1.73 1.73 1.27-1.27L2.39 1.73M4 19V8h2.11l11 11H4Z" transform="matrix(1.5 0 0 1.5 144 324)" id="mdi-briefcase-off-outline" fill="#555"/><path d="M20 8v8.8l2 2V8c0-.55-.2-1-.58-1.41C21.05 6.2 20.58 6 20 6h-4V4c0-.58-.2-1.05-.58-1.42C15.05 2.2 14.58 2 14 2h-4c-.58 0-1.05.2-1.42.58C8.2 2.95 8 3.42 8 4v.8L11.2 8H20M10 4h4v2h-4V4M2.39 1.73 1.11 3l3 3H4c-.58 0-1.05.2-1.42.59C2.2 7 2 7.45 2 8v11c0 .55.2 1 .58 1.41.37.39.84.59 1.42.59h15.11l1.73 1.73 1.27-1.27L2.39 1.73M4 19V8h2.11l11 11H4Z" transform="matrix(1.5 0 0 1.5 180 324)" id="mdi-briefcase-off-outline" fill="#fff"/><path d="M20 6c.58 0 1.05.2 1.42.59.38.41.58.86.58 1.41v11c0 .55-.2 1-.58 1.41-.37.39-.84.59-1.42.59H4c-.58 0-1.05-.2-1.42-.59C2.2 20 2 19.55 2 19V8c0-.55.2-1 .58-1.41C2.95 6.2 3.42 6 4 6h4V4c0-.58.2-1.05.58-1.42C8.95 2.2 9.42 2 10 2h4c.58 0 1.05.2 1.42.58.38.37.58.84.58 1.42v2h4M4 8v11h16V8H4m10-2V4h-4v2h4Z" transform="matrix(1.5 0 0 1.5 216 324)" id="mdi-briefcase-outline" fill="#555"/><path d="M20 6c.58 0 1.05.2 1.42.59.38.41.58.86.58 1.41v11c0 .55-.2 1-.58 1.41-.37.39-.84.59-1.42.59H4c-.58 0-1.05-.2-1.42-.59C2.2 20 2 19.55 2 19V8c0-.55.2-1 .58-1.41C2.95 6.2 3.42 6 4 6h4V4c0-.58.2-1.05.58-1.42C8.95 2.2 9.42 2 10 2h4c.58 0 1.05.2 1.42.58.38.37.58.84.58 1.42v2h4M4 8v11h16V8H4m10-2V4h-4v2h4Z" transform="matrix(1.5 0 0 1.5 252 324)" id="mdi-briefcase-outline" fill="#fff"/><path d="M17 14h2v3h3v2h-3v3h-2v-3h-3v-2h3v-3M10 2h4a2 2 0 0 1 2 2v2h4a2 2 0 0 1 2 2v5.53A5.97 5.97 0 0 0 18 12a6 6 0 0 0-6 6c0 1.09.29 2.12.8 3H4a2 2 0 0 1-2-2V8c0-1.11.89-2 2-2h4V4c0-1.11.89-2 2-2m4 4V4h-4v2h4Z" transform="matrix(1.5 0 0 1.5 288 324)" id="mdi-briefcase-plus" fill="#555"/><path d="M17 14h2v3h3v2h-3v3h-2v-3h-3v-2h3v-3M10 2h4a2 2 0 0 1 2 2v2h4a2 2 0 0 1 2 2v5.53A5.97 5.97 0 0 0 18 12a6 6 0 0 0-6 6c0 1.09.29 2.12.8 3H4a2 2 0 0 1-2-2V8c0-1.11.89-2 2-2h4V4c0-1.11.89-2 2-2m4 4V4h-4v2h4Z" transform="matrix(1.5 0 0 1.5 324 324)" id="mdi-briefcase-plus" fill="#fff"/><path d="M10 2h4a2 2 0 0 1 2 2v2h4a2 2 0 0 1 2 2v5.53a5.72 5.72 0 0 0-2-1.19V8H4v11h8.08c.12.72.37 1.39.72 2H4a2 2 0 0 1-2-2V8a2 2 0 0 1 2-2h4V4a2 2 0 0 1 2-2m4 4V4h-4v2h4m0 11h3v-3h2v3h3v2h-3v3h-2v-3h-3v-2Z" transform="matrix(1.5 0 0 1.5 360 324)" id="mdi-briefcase-plus-outline" fill="#555"/><path d="M10 2h4a2 2 0 0 1 2 2v2h4a2 2 0 0 1 2 2v5.53a5.72 5.72 0 0 0-2-1.19V8H4v11h8.08c.12.72.37 1.39.72 2H4a2 2 0 0 1-2-2V8a2 2 0 0 1 2-2h4V4a2 2 0 0 1 2-2m4 4V4h-4v2h4m0 11h3v-3h2v3h3v2h-3v3h-2v-3h-3v-2Z" transform="matrix(1.5 0 0 1.5 396 324)" id="mdi-briefcase-plus-outline" fill="#fff"/><path d="m14.46 15.88 1.42-1.42L18 16.59l2.12-2.13 1.42 1.42L19.41 18l2.13 2.12-1.42 1.42L18 19.41l-2.12 2.13-1.42-1.42L16.59 18l-2.13-2.12M10 2h4a2 2 0 0 1 2 2v2h4a2 2 0 0 1 2 2v5.53A5.97 5.97 0 0 0 18 12a6 6 0 0 0-6 6c0 1.09.29 2.12.8 3H4a2 2 0 0 1-2-2V8c0-1.11.89-2 2-2h4V4c0-1.11.89-2 2-2m4 4V4h-4v2h4Z" transform="matrix(1.5 0 0 1.5 432 324)" id="mdi-briefcase-remove" fill="#555"/><path d="m14.46 15.88 1.42-1.42L18 16.59l2.12-2.13 1.42 1.42L19.41 18l2.13 2.12-1.42 1.42L18 19.41l-2.12 2.13-1.42-1.42L16.59 18l-2.13-2.12M10 2h4a2 2 0 0 1 2 2v2h4a2 2 0 0 1 2 2v5.53A5.97 5.97 0 0 0 18 12a6 6 0 0 0-6 6c0 1.09.29 2.12.8 3H4a2 2 0 0 1-2-2V8c0-1.11.89-2 2-2h4V4c0-1.11.89-2 2-2m4 4V4h-4v2h4Z" transform="matrix(1.5 0 0 1.5 468 324)" id="mdi-briefcase-remove" fill="#fff"/><path d="M10 2h4a2 2 0 0 1 2 2v2h4a2 2 0 0 1 2 2v5.53a5.72 5.72 0 0 0-2-1.19V8H4v11h8.08c.12.72.37 1.39.72 2H4a2 2 0 0 1-2-2V8a2 2 0 0 1 2-2h4V4a2 2 0 0 1 2-2m4 4V4h-4v2h4m.46 9.88 1.42-1.42L18 16.59l2.12-2.13 1.42 1.42L19.41 18l2.13 2.12-1.42 1.42L18 19.41l-2.12 2.13-1.42-1.42L16.59 18l-2.13-2.12Z" transform="matrix(1.5 0 0 1.5 504 324)" id="mdi-briefcase-remove-outline" fill="#555"/><path d="M10 2h4a2 2 0 0 1 2 2v2h4a2 2 0 0 1 2 2v5.53a5.72 5.72 0 0 0-2-1.19V8H4v11h8.08c.12.72.37 1.39.72 2H4a2 2 0 0 1-2-2V8a2 2 0 0 1 2-2h4V4a2 2 0 0 1 2-2m4 4V4h-4v2h4m.46 9.88 1.42-1.42L18 16.59l2.12-2.13 1.42 1.42L19.41 18l2.13 2.12-1.42 1.42L18 19.41l-2.12 2.13-1.42-1.42L16.59 18l-2.13-2.12Z" transform="matrix(1.5 0 0 1.5 540 324)" id="mdi-briefcase-remove-outline" fill="#fff"/><path d="M16.5 12c2.5 0 4.5 2 4.5 4.5 0 .88-.25 1.71-.69 2.4l3.08 3.1L22 23.39l-3.12-3.07c-.69.43-1.51.68-2.38.68-2.5 0-4.5-2-4.5-4.5s2-4.5 4.5-4.5m0 2a2.5 2.5 0 0 0-2.5 2.5 2.5 2.5 0 0 0 2.5 2.5 2.5 2.5 0 0 0 2.5-2.5 2.5 2.5 0 0 0-2.5-2.5M10 2h4a2 2 0 0 1 2 2v2h4a2 2 0 0 1 2 2v5.03A6.492 6.492 0 0 0 16.5 10a6.5 6.5 0 0 0-6.5 6.5c0 1.75.69 3.33 1.81 4.5H4a2 2 0 0 1-2-2V8c0-1.11.89-2 2-2h4V4c0-1.11.89-2 2-2m4 4V4h-4v2h4Z" transform="matrix(1.5 0 0 1.5 576 324)" id="mdi-briefcase-search" fill="#555"/><path d="M16.5 12c2.5 0 4.5 2 4.5 4.5 0 .88-.25 1.71-.69 2.4l3.08 3.1L22 23.39l-3.12-3.07c-.69.43-1.51.68-2.38.68-2.5 0-4.5-2-4.5-4.5s2-4.5 4.5-4.5m0 2a2.5 2.5 0 0 0-2.5 2.5 2.5 2.5 0 0 0 2.5 2.5 2.5 2.5 0 0 0 2.5-2.5 2.5 2.5 0 0 0-2.5-2.5M10 2h4a2 2 0 0 1 2 2v2h4a2 2 0 0 1 2 2v5.03A6.492 6.492 0 0 0 16.5 10a6.5 6.5 0 0 0-6.5 6.5c0 1.75.69 3.33 1.81 4.5H4a2 2 0 0 1-2-2V8c0-1.11.89-2 2-2h4V4c0-1.11.89-2 2-2m4 4V4h-4v2h4Z" transform="matrix(1.5 0 0 1.5 612 324)" id="mdi-briefcase-search" fill="#fff"/><path d="M10 2h4a2 2 0 0 1 2 2v2h4a2 2 0 0 1 2 2v5.03c-.5-.8-1.2-1.49-2-2.03V8H4v11h6.5c.31.75.76 1.42 1.31 2H4a2 2 0 0 1-2-2V8c0-1.11.89-2 2-2h4V4c0-1.11.89-2 2-2m4 4V4h-4v2h4m6.31 12.9 3.08 3.1L22 23.39l-3.12-3.07c-.69.43-1.51.68-2.38.68-2.5 0-4.5-2-4.5-4.5s2-4.5 4.5-4.5 4.5 2 4.5 4.5c0 .88-.25 1.71-.69 2.4m-3.81.1a2.5 2.5 0 0 0 2.5-2.5 2.5 2.5 0 0 0-2.5-2.5 2.5 2.5 0 0 0-2.5 2.5 2.5 2.5 0 0 0 2.5 2.5Z" transform="matrix(1.5 0 0 1.5 648 324)" id="mdi-briefcase-search-outline" fill="#555"/><path d="M10 2h4a2 2 0 0 1 2 2v2h4a2 2 0 0 1 2 2v5.03c-.5-.8-1.2-1.49-2-2.03V8H4v11h6.5c.31.75.76 1.42 1.31 2H4a2 2 0 0 1-2-2V8c0-1.11.89-2 2-2h4V4c0-1.11.89-2 2-2m4 4V4h-4v2h4m6.31 12.9 3.08 3.1L22 23.39l-3.12-3.07c-.69.43-1.51.68-2.38.68-2.5 0-4.5-2-4.5-4.5s2-4.5 4.5-4.5 4.5 2 4.5 4.5c0 .88-.25 1.71-.69 2.4m-3.81.1a2.5 2.5 0 0 0 2.5-2.5 2.5 2.5 0 0 0-2.5-2.5 2.5 2.5 0 0 0-2.5 2.5 2.5 2.5 0 0 0 2.5 2.5Z" transform="matrix(1.5 0 0 1.5 684 324)" id="mdi-briefcase-search-outline" fill="#fff"/></svg>