<?xml version="1.0" encoding="UTF-8"?>
<!DOCTYPE svg PUBLIC "-//W3C//DTD SVG 1.1//EN" "http://www.w3.org/Graphics/SVG/1.1/DTD/svg11.dtd"><svg
  xmlns="http://www.w3.org/2000/svg" xmlns:xlink="http://www.w3.org/1999/xlink" version="1.1"
  width="720" height="900" viewBox="0 0 720 900">
    <g id="mdi-puzzle-star" transform="translate(0 0) scale(1.5)" fill="#555">
      <path d="M19 20.09L21.45 21.58L20.8 18.77L23 16.89L20.11 16.64L19 14L17.87 16.64L15 16.89L17.18 18.77L16.5 21.58L19 20.09M23 13.5C23 13.5 23 13.5 23 13.53C21.94 12.58 20.54 12 19 12C15.69 12 13 14.69 13 18C13 18.34 13.04 18.67 13.09 19H12.75C12.27 18.27 11.44 17.8 10.5 17.8C9 17.8 7.8 19 7.8 20.5V22H4C2.9 22 2 21.11 2 20V16.2H3.5C5 16.2 6.2 15 6.2 13.5S5 10.8 3.5 10.8H2V7C2 5.9 2.9 5 4 5H8V3.5C8 2.12 9.12 1 10.5 1S13 2.12 13 3.5V5H17C18.1 5 19 5.89 19 7V11H20.5C21.88 11 23 12.12 23 13.5Z" />
    </g>
    <g id="mdi-puzzle-star" transform="translate(36 0) scale(1.5)" fill="#fff">
      <path d="M19 20.09L21.45 21.58L20.8 18.77L23 16.89L20.11 16.64L19 14L17.87 16.64L15 16.89L17.18 18.77L16.5 21.58L19 20.09M23 13.5C23 13.5 23 13.5 23 13.53C21.94 12.58 20.54 12 19 12C15.69 12 13 14.69 13 18C13 18.34 13.04 18.67 13.09 19H12.75C12.27 18.27 11.44 17.8 10.5 17.8C9 17.8 7.8 19 7.8 20.5V22H4C2.9 22 2 21.11 2 20V16.2H3.5C5 16.2 6.2 15 6.2 13.5S5 10.8 3.5 10.8H2V7C2 5.9 2.9 5 4 5H8V3.5C8 2.12 9.12 1 10.5 1S13 2.12 13 3.5V5H17C18.1 5 19 5.89 19 7V11H20.5C21.88 11 23 12.12 23 13.5Z" />
    </g>
    <g id="mdi-puzzle-star-outline" transform="translate(72 0) scale(1.5)" fill="#555">
      <path d="M13.2 22V21.7C13.2 20.21 12 19 10.5 19C9 19 7.8 20.21 7.8 21.7V22H4C2.9 22 2 21.11 2 20V16.2H2.3C3.79 16.2 5 15 5 13.5S3.79 10.8 2.3 10.8H2V7C2 5.9 2.9 5 4 5H7.04C7.28 3.3 8.74 2 10.5 2S13.72 3.3 13.96 5H17C18.11 5 19 5.9 19 7V10.04C20.45 10.25 21.61 11.34 21.91 12.76C21.05 12.28 20.06 12 19 12C18.89 12 18.78 12 18.67 12C18.61 12 18.56 12 18.5 12H17V7H12V5.5C12 4.67 11.33 4 10.5 4S9 4.67 9 5.5V7H4V9.12C5.76 9.8 7 11.5 7 13.5S5.75 17.2 4 17.88V20H6.12C6.8 18.25 8.5 17 10.5 17C11.43 17 12.29 17.28 13 17.74C13 17.83 13 17.91 13 18C13 19.54 13.58 20.94 14.54 22H13.2M19 20.09L16.5 21.58L17.18 18.77L15 16.89L17.87 16.64L19 14L20.11 16.64L23 16.89L20.8 18.77L21.45 21.58L19 20.09" />
    </g>
    <g id="mdi-puzzle-star-outline" transform="translate(108 0) scale(1.5)" fill="#fff">
      <path d="M13.2 22V21.7C13.2 20.21 12 19 10.5 19C9 19 7.8 20.21 7.8 21.7V22H4C2.9 22 2 21.11 2 20V16.2H2.3C3.79 16.2 5 15 5 13.5S3.79 10.8 2.3 10.8H2V7C2 5.9 2.9 5 4 5H7.04C7.28 3.3 8.74 2 10.5 2S13.72 3.3 13.96 5H17C18.11 5 19 5.9 19 7V10.04C20.45 10.25 21.61 11.34 21.91 12.76C21.05 12.28 20.06 12 19 12C18.89 12 18.78 12 18.67 12C18.61 12 18.56 12 18.5 12H17V7H12V5.5C12 4.67 11.33 4 10.5 4S9 4.67 9 5.5V7H4V9.12C5.76 9.8 7 11.5 7 13.5S5.75 17.2 4 17.88V20H6.12C6.8 18.25 8.5 17 10.5 17C11.43 17 12.29 17.28 13 17.74C13 17.83 13 17.91 13 18C13 19.54 13.58 20.94 14.54 22H13.2M19 20.09L16.5 21.58L17.18 18.77L15 16.89L17.87 16.64L19 14L20.11 16.64L23 16.89L20.8 18.77L21.45 21.58L19 20.09" />
    </g>
    <g id="mdi-qi" transform="translate(144 0) scale(1.5)" fill="#555">
      <path d="M12.09,6.56V14.64C12.09,14.72 12,14.79 11.94,14.79C9.62,14.79 7.75,12.91 7.75,10.6C7.75,8.28 9.62,6.4 11.94,6.4C12,6.4 12.09,6.47 12.09,6.56M12.09,17.86V20.29C12.06,21.69 13.12,22.87 14.5,23C14.66,23 14.78,22.89 14.79,22.73V4.47C14.78,4.3 14.68,4.15 14.5,4.09C10.92,2.67 6.86,4.44 5.44,8.03C4,11.63 5.79,15.69 9.38,17.11C10.16,17.42 11,17.58 11.81,17.6C11.95,17.59 12.07,17.71 12.08,17.87M16.19,5.5V15.72C16.19,16 16.19,16.2 16.46,16V16C19.42,13.5 19.81,9.09 17.33,6.13C17.07,5.81 16.77,5.5 16.46,5.26C16.19,5.05 16.19,5.26 16.19,5.53M14.79,2.43C14.79,1.66 15.42,1.03 16.19,1.03C16.96,1.03 17.59,1.66 17.59,2.43C17.59,3.2 16.96,3.83 16.19,3.83V3.83C15.42,3.83 14.79,3.2 14.79,2.43" />
    </g>
    <g id="mdi-qi" transform="translate(180 0) scale(1.5)" fill="#fff">
      <path d="M12.09,6.56V14.64C12.09,14.72 12,14.79 11.94,14.79C9.62,14.79 7.75,12.91 7.75,10.6C7.75,8.28 9.62,6.4 11.94,6.4C12,6.4 12.09,6.47 12.09,6.56M12.09,17.86V20.29C12.06,21.69 13.12,22.87 14.5,23C14.66,23 14.78,22.89 14.79,22.73V4.47C14.78,4.3 14.68,4.15 14.5,4.09C10.92,2.67 6.86,4.44 5.44,8.03C4,11.63 5.79,15.69 9.38,17.11C10.16,17.42 11,17.58 11.81,17.6C11.95,17.59 12.07,17.71 12.08,17.87M16.19,5.5V15.72C16.19,16 16.19,16.2 16.46,16V16C19.42,13.5 19.81,9.09 17.33,6.13C17.07,5.81 16.77,5.5 16.46,5.26C16.19,5.05 16.19,5.26 16.19,5.53M14.79,2.43C14.79,1.66 15.42,1.03 16.19,1.03C16.96,1.03 17.59,1.66 17.59,2.43C17.59,3.2 16.96,3.83 16.19,3.83V3.83C15.42,3.83 14.79,3.2 14.79,2.43" />
    </g>
    <g id="mdi-qqchat" transform="translate(216 0) scale(1.5)" fill="#555">
      <path d="M3.18,13.54C3.76,12.16 4.57,11.14 5.17,10.92C5.16,10.12 5.31,9.62 5.56,9.22C5.56,9.19 5.5,8.86 5.72,8.45C5.87,4.85 8.21,2 12,2C15.79,2 18.13,4.85 18.28,8.45C18.5,8.86 18.44,9.19 18.44,9.22C18.69,9.62 18.84,10.12 18.83,10.92C19.43,11.14 20.24,12.16 20.82,13.55C21.57,15.31 21.69,17 21.09,17.3C20.68,17.5 20.03,17 19.42,16.12C19.18,17.1 18.58,18 17.73,18.71C18.63,19.04 19.21,19.58 19.21,20.19C19.21,21.19 17.63,22 15.69,22C13.93,22 12.5,21.34 12.21,20.5H11.79C11.5,21.34 10.07,22 8.31,22C6.37,22 4.79,21.19 4.79,20.19C4.79,19.58 5.37,19.04 6.27,18.71C5.42,18 4.82,17.1 4.58,16.12C3.97,17 3.32,17.5 2.91,17.3C2.31,17 2.43,15.31 3.18,13.54Z" />
    </g>
    <g id="mdi-qqchat" transform="translate(252 0) scale(1.5)" fill="#fff">
      <path d="M3.18,13.54C3.76,12.16 4.57,11.14 5.17,10.92C5.16,10.12 5.31,9.62 5.56,9.22C5.56,9.19 5.5,8.86 5.72,8.45C5.87,4.85 8.21,2 12,2C15.79,2 18.13,4.85 18.28,8.45C18.5,8.86 18.44,9.19 18.44,9.22C18.69,9.62 18.84,10.12 18.83,10.92C19.43,11.14 20.24,12.16 20.82,13.55C21.57,15.31 21.69,17 21.09,17.3C20.68,17.5 20.03,17 19.42,16.12C19.18,17.1 18.58,18 17.73,18.71C18.63,19.04 19.21,19.58 19.21,20.19C19.21,21.19 17.63,22 15.69,22C13.93,22 12.5,21.34 12.21,20.5H11.79C11.5,21.34 10.07,22 8.31,22C6.37,22 4.79,21.19 4.79,20.19C4.79,19.58 5.37,19.04 6.27,18.71C5.42,18 4.82,17.1 4.58,16.12C3.97,17 3.32,17.5 2.91,17.3C2.31,17 2.43,15.31 3.18,13.54Z" />
    </g>
    <g id="mdi-qrcode" transform="translate(288 0) scale(1.5)" fill="#555">
      <path d="M3,11H5V13H3V11M11,5H13V9H11V5M9,11H13V15H11V13H9V11M15,11H17V13H19V11H21V13H19V15H21V19H19V21H17V19H13V21H11V17H15V15H17V13H15V11M19,19V15H17V19H19M15,3H21V9H15V3M17,5V7H19V5H17M3,3H9V9H3V3M5,5V7H7V5H5M3,15H9V21H3V15M5,17V19H7V17H5Z" />
    </g>
    <g id="mdi-qrcode" transform="translate(324 0) scale(1.5)" fill="#fff">
      <path d="M3,11H5V13H3V11M11,5H13V9H11V5M9,11H13V15H11V13H9V11M15,11H17V13H19V11H21V13H19V15H21V19H19V21H17V19H13V21H11V17H15V15H17V13H15V11M19,19V15H17V19H19M15,3H21V9H15V3M17,5V7H19V5H17M3,3H9V9H3V3M5,5V7H7V5H5M3,15H9V21H3V15M5,17V19H7V17H5Z" />
    </g>
    <g id="mdi-qrcode-edit" transform="translate(360 0) scale(1.5)" fill="#555">
      <path d="M5,5H7V7H5V5M1,1H11V11H1V1M3,3V9H9V3H3M5,17H7V19H5V17M1,13H11V23H1V13M3,15V21H9V15H3M13,13H17V15H19V13H23V15H19V17H23V23H19V21H15V23H13V21H15V19H13V13M21,21V19H19V21H21M19,17H17V15H15V19H19V17M22.7,3.35L21.7,4.35L19.65,2.35L20.65,1.35C20.85,1.14 21.19,1.13 21.42,1.35L22.7,2.58C22.91,2.78 22.92,3.12 22.7,3.35M13,8.94L19.07,2.88L21.12,4.93L15.06,11H13V8.94Z" />
    </g>
    <g id="mdi-qrcode-edit" transform="translate(396 0) scale(1.5)" fill="#fff">
      <path d="M5,5H7V7H5V5M1,1H11V11H1V1M3,3V9H9V3H3M5,17H7V19H5V17M1,13H11V23H1V13M3,15V21H9V15H3M13,13H17V15H19V13H23V15H19V17H23V23H19V21H15V23H13V21H15V19H13V13M21,21V19H19V21H21M19,17H17V15H15V19H19V17M22.7,3.35L21.7,4.35L19.65,2.35L20.65,1.35C20.85,1.14 21.19,1.13 21.42,1.35L22.7,2.58C22.91,2.78 22.92,3.12 22.7,3.35M13,8.94L19.07,2.88L21.12,4.93L15.06,11H13V8.94Z" />
    </g>
    <g id="mdi-qrcode-minus" transform="translate(432 0) scale(1.5)" fill="#555">
      <path d="M5 5H7V7H5V5M1 1H11V11H1V1M3 3V9H9V3H3M5 17H7V19H5V17M1 13H11V23H1V13M3 15V21H9V15H3M13 13H17V15H19V13H23V15H19V17H23V23H19V21H15V23H13V21H15V19H13V13M21 21V19H19V21H21M19 17H17V15H15V19H19V17M14 5V7H22V5Z" />
    </g>
    <g id="mdi-qrcode-minus" transform="translate(468 0) scale(1.5)" fill="#fff">
      <path d="M5 5H7V7H5V5M1 1H11V11H1V1M3 3V9H9V3H3M5 17H7V19H5V17M1 13H11V23H1V13M3 15V21H9V15H3M13 13H17V15H19V13H23V15H19V17H23V23H19V21H15V23H13V21H15V19H13V13M21 21V19H19V21H21M19 17H17V15H15V19H19V17M14 5V7H22V5Z" />
    </g>
    <g id="mdi-qrcode-plus" transform="translate(504 0) scale(1.5)" fill="#555">
      <path d="M5 5H7V7H5V5M1 1H11V11H1V1M3 3V9H9V3H3M5 17H7V19H5V17M1 13H11V23H1V13M3 15V21H9V15H3M13 13H17V15H19V13H23V15H19V17H23V23H19V21H15V23H13V21H15V19H13V13M21 21V19H19V21H21M19 17H17V15H15V19H19V17M17 2V5H14V7H17V10H19V7H22V5H19V2Z" />
    </g>
    <g id="mdi-qrcode-plus" transform="translate(540 0) scale(1.5)" fill="#fff">
      <path d="M5 5H7V7H5V5M1 1H11V11H1V1M3 3V9H9V3H3M5 17H7V19H5V17M1 13H11V23H1V13M3 15V21H9V15H3M13 13H17V15H19V13H23V15H19V17H23V23H19V21H15V23H13V21H15V19H13V13M21 21V19H19V21H21M19 17H17V15H15V19H19V17M17 2V5H14V7H17V10H19V7H22V5H19V2Z" />
    </g>
    <g id="mdi-qrcode-remove" transform="translate(576 0) scale(1.5)" fill="#555">
      <path d="M5 5H7V7H5V5M1 1H11V11H1V1M3 3V9H9V3H3M5 17H7V19H5V17M1 13H11V23H1V13M3 15V21H9V15H3M13 13H17V15H19V13H23V15H19V17H23V23H19V21H15V23H13V21H15V19H13V13M21 21V19H19V21H21M19 17H17V15H15V19H19V17M15.17 1.76L13.76 3.17L16.59 6L13.76 8.83L15.17 10.24L18 7.41L20.83 10.24L22.24 8.83L19.41 6L22.24 3.17L20.83 1.76L18 4.59L15.17 1.76Z" />
    </g>
    <g id="mdi-qrcode-remove" transform="translate(612 0) scale(1.5)" fill="#fff">
      <path d="M5 5H7V7H5V5M1 1H11V11H1V1M3 3V9H9V3H3M5 17H7V19H5V17M1 13H11V23H1V13M3 15V21H9V15H3M13 13H17V15H19V13H23V15H19V17H23V23H19V21H15V23H13V21H15V19H13V13M21 21V19H19V21H21M19 17H17V15H15V19H19V17M15.17 1.76L13.76 3.17L16.59 6L13.76 8.83L15.17 10.24L18 7.41L20.83 10.24L22.24 8.83L19.41 6L22.24 3.17L20.83 1.76L18 4.59L15.17 1.76Z" />
    </g>
    <g id="mdi-qrcode-scan" transform="translate(648 0) scale(1.5)" fill="#555">
      <path d="M4,4H10V10H4V4M20,4V10H14V4H20M14,15H16V13H14V11H16V13H18V11H20V13H18V15H20V18H18V20H16V18H13V20H11V16H14V15M16,15V18H18V15H16M4,20V14H10V20H4M6,6V8H8V6H6M16,6V8H18V6H16M6,16V18H8V16H6M4,11H6V13H4V11M9,11H13V15H11V13H9V11M11,6H13V10H11V6M2,2V6H0V2A2,2 0 0,1 2,0H6V2H2M22,0A2,2 0 0,1 24,2V6H22V2H18V0H22M2,18V22H6V24H2A2,2 0 0,1 0,22V18H2M22,22V18H24V22A2,2 0 0,1 22,24H18V22H22Z" />
    </g>
    <g id="mdi-qrcode-scan" transform="translate(684 0) scale(1.5)" fill="#fff">
      <path d="M4,4H10V10H4V4M20,4V10H14V4H20M14,15H16V13H14V11H16V13H18V11H20V13H18V15H20V18H18V20H16V18H13V20H11V16H14V15M16,15V18H18V15H16M4,20V14H10V20H4M6,6V8H8V6H6M16,6V8H18V6H16M6,16V18H8V16H6M4,11H6V13H4V11M9,11H13V15H11V13H9V11M11,6H13V10H11V6M2,2V6H0V2A2,2 0 0,1 2,0H6V2H2M22,0A2,2 0 0,1 24,2V6H22V2H18V0H22M2,18V22H6V24H2A2,2 0 0,1 0,22V18H2M22,22V18H24V22A2,2 0 0,1 22,24H18V22H22Z" />
    </g>
    <g id="mdi-quadcopter" transform="translate(0 36) scale(1.5)" fill="#555">
      <path d="M5.5,1C8,1 10,3 10,5.5C10,6.38 9.75,7.2 9.31,7.9L9.41,8H14.59L14.69,7.9C14.25,7.2 14,6.38 14,5.5C14,3 16,1 18.5,1C21,1 23,3 23,5.5C23,8 21,10 18.5,10C17.62,10 16.8,9.75 16.1,9.31L15,10.41V13.59L16.1,14.69C16.8,14.25 17.62,14 18.5,14C21,14 23,16 23,18.5C23,21 21,23 18.5,23C16,23 14,21 14,18.5C14,17.62 14.25,16.8 14.69,16.1L14.59,16H9.41L9.31,16.1C9.75,16.8 10,17.62 10,18.5C10,21 8,23 5.5,23C3,23 1,21 1,18.5C1,16 3,14 5.5,14C6.38,14 7.2,14.25 7.9,14.69L9,13.59V10.41L7.9,9.31C7.2,9.75 6.38,10 5.5,10C3,10 1,8 1,5.5C1,3 3,1 5.5,1M5.5,3A2.5,2.5 0 0,0 3,5.5A2.5,2.5 0 0,0 5.5,8A2.5,2.5 0 0,0 8,5.5A2.5,2.5 0 0,0 5.5,3M5.5,16A2.5,2.5 0 0,0 3,18.5A2.5,2.5 0 0,0 5.5,21A2.5,2.5 0 0,0 8,18.5A2.5,2.5 0 0,0 5.5,16M18.5,3A2.5,2.5 0 0,0 16,5.5A2.5,2.5 0 0,0 18.5,8A2.5,2.5 0 0,0 21,5.5A2.5,2.5 0 0,0 18.5,3M18.5,16A2.5,2.5 0 0,0 16,18.5A2.5,2.5 0 0,0 18.5,21A2.5,2.5 0 0,0 21,18.5A2.5,2.5 0 0,0 18.5,16M3.91,17.25L5.04,17.91C5.17,17.81 5.33,17.75 5.5,17.75A0.75,0.75 0 0,1 6.25,18.5L6.24,18.6L7.37,19.25L7.09,19.75L5.96,19.09C5.83,19.19 5.67,19.25 5.5,19.25A0.75,0.75 0 0,1 4.75,18.5L4.76,18.4L3.63,17.75L3.91,17.25M3.63,6.25L4.76,5.6L4.75,5.5A0.75,0.75 0 0,1 5.5,4.75C5.67,4.75 5.83,4.81 5.96,4.91L7.09,4.25L7.37,4.75L6.24,5.4L6.25,5.5A0.75,0.75 0 0,1 5.5,6.25C5.33,6.25 5.17,6.19 5.04,6.09L3.91,6.75L3.63,6.25M16.91,4.25L18.04,4.91C18.17,4.81 18.33,4.75 18.5,4.75A0.75,0.75 0 0,1 19.25,5.5L19.24,5.6L20.37,6.25L20.09,6.75L18.96,6.09C18.83,6.19 18.67,6.25 18.5,6.25A0.75,0.75 0 0,1 17.75,5.5L17.76,5.4L16.63,4.75L16.91,4.25M16.63,19.25L17.75,18.5A0.75,0.75 0 0,1 18.5,17.75C18.67,17.75 18.83,17.81 18.96,17.91L20.09,17.25L20.37,17.75L19.25,18.5A0.75,0.75 0 0,1 18.5,19.25C18.33,19.25 18.17,19.19 18.04,19.09L16.91,19.75L16.63,19.25Z" />
    </g>
    <g id="mdi-quadcopter" transform="translate(36 36) scale(1.5)" fill="#fff">
      <path d="M5.5,1C8,1 10,3 10,5.5C10,6.38 9.75,7.2 9.31,7.9L9.41,8H14.59L14.69,7.9C14.25,7.2 14,6.38 14,5.5C14,3 16,1 18.5,1C21,1 23,3 23,5.5C23,8 21,10 18.5,10C17.62,10 16.8,9.75 16.1,9.31L15,10.41V13.59L16.1,14.69C16.8,14.25 17.62,14 18.5,14C21,14 23,16 23,18.5C23,21 21,23 18.5,23C16,23 14,21 14,18.5C14,17.62 14.25,16.8 14.69,16.1L14.59,16H9.41L9.31,16.1C9.75,16.8 10,17.62 10,18.5C10,21 8,23 5.5,23C3,23 1,21 1,18.5C1,16 3,14 5.5,14C6.38,14 7.2,14.25 7.9,14.69L9,13.59V10.41L7.9,9.31C7.2,9.75 6.38,10 5.5,10C3,10 1,8 1,5.5C1,3 3,1 5.5,1M5.5,3A2.5,2.5 0 0,0 3,5.5A2.5,2.5 0 0,0 5.5,8A2.5,2.5 0 0,0 8,5.5A2.5,2.5 0 0,0 5.5,3M5.5,16A2.5,2.5 0 0,0 3,18.5A2.5,2.5 0 0,0 5.5,21A2.5,2.5 0 0,0 8,18.5A2.5,2.5 0 0,0 5.5,16M18.5,3A2.5,2.5 0 0,0 16,5.5A2.5,2.5 0 0,0 18.5,8A2.5,2.5 0 0,0 21,5.5A2.5,2.5 0 0,0 18.5,3M18.5,16A2.5,2.5 0 0,0 16,18.5A2.5,2.5 0 0,0 18.5,21A2.5,2.5 0 0,0 21,18.5A2.5,2.5 0 0,0 18.5,16M3.91,17.25L5.04,17.91C5.17,17.81 5.33,17.75 5.5,17.75A0.75,0.75 0 0,1 6.25,18.5L6.24,18.6L7.37,19.25L7.09,19.75L5.96,19.09C5.83,19.19 5.67,19.25 5.5,19.25A0.75,0.75 0 0,1 4.75,18.5L4.76,18.4L3.63,17.75L3.91,17.25M3.63,6.25L4.76,5.6L4.75,5.5A0.75,0.75 0 0,1 5.5,4.75C5.67,4.75 5.83,4.81 5.96,4.91L7.09,4.25L7.37,4.75L6.24,5.4L6.25,5.5A0.75,0.75 0 0,1 5.5,6.25C5.33,6.25 5.17,6.19 5.04,6.09L3.91,6.75L3.63,6.25M16.91,4.25L18.04,4.91C18.17,4.81 18.33,4.75 18.5,4.75A0.75,0.75 0 0,1 19.25,5.5L19.24,5.6L20.37,6.25L20.09,6.75L18.96,6.09C18.83,6.19 18.67,6.25 18.5,6.25A0.75,0.75 0 0,1 17.75,5.5L17.76,5.4L16.63,4.75L16.91,4.25M16.63,19.25L17.75,18.5A0.75,0.75 0 0,1 18.5,17.75C18.67,17.75 18.83,17.81 18.96,17.91L20.09,17.25L20.37,17.75L19.25,18.5A0.75,0.75 0 0,1 18.5,19.25C18.33,19.25 18.17,19.19 18.04,19.09L16.91,19.75L16.63,19.25Z" />
    </g>
    <g id="mdi-quality-high" transform="translate(72 36) scale(1.5)" fill="#555">
      <path d="M14.5,13.5H16.5V10.5H14.5M18,14A1,1 0 0,1 17,15H16.25V16.5H14.75V15H14A1,1 0 0,1 13,14V10A1,1 0 0,1 14,9H17A1,1 0 0,1 18,10M11,15H9.5V13H7.5V15H6V9H7.5V11.5H9.5V9H11M19,4H5C3.89,4 3,4.89 3,6V18A2,2 0 0,0 5,20H19A2,2 0 0,0 21,18V6C21,4.89 20.1,4 19,4Z" />
    </g>
    <g id="mdi-quality-high" transform="translate(108 36) scale(1.5)" fill="#fff">
      <path d="M14.5,13.5H16.5V10.5H14.5M18,14A1,1 0 0,1 17,15H16.25V16.5H14.75V15H14A1,1 0 0,1 13,14V10A1,1 0 0,1 14,9H17A1,1 0 0,1 18,10M11,15H9.5V13H7.5V15H6V9H7.5V11.5H9.5V9H11M19,4H5C3.89,4 3,4.89 3,6V18A2,2 0 0,0 5,20H19A2,2 0 0,0 21,18V6C21,4.89 20.1,4 19,4Z" />
    </g>
    <g id="mdi-quality-low" transform="translate(144 36) scale(1.5)" fill="#555">
      <path d="M14.5,13.5H16.5V10.5H14.5M18,14C18,14.6 17.6,15 17,15H16.25V16.5H14.75V15H14C13.4,15 13,14.6 13,14V10C13,9.4 13.4,9 14,9H17C17.6,9 18,9.4 18,10M19,4H5A2,2 0 0,0 3,6V18A2,2 0 0,0 5,20H19A2,2 0 0,0 21,18V6A2,2 0 0,0 19,4M11,13.5V15H6V9H7.5V13.5H11Z" />
    </g>
    <g id="mdi-quality-low" transform="translate(180 36) scale(1.5)" fill="#fff">
      <path d="M14.5,13.5H16.5V10.5H14.5M18,14C18,14.6 17.6,15 17,15H16.25V16.5H14.75V15H14C13.4,15 13,14.6 13,14V10C13,9.4 13.4,9 14,9H17C17.6,9 18,9.4 18,10M19,4H5A2,2 0 0,0 3,6V18A2,2 0 0,0 5,20H19A2,2 0 0,0 21,18V6A2,2 0 0,0 19,4M11,13.5V15H6V9H7.5V13.5H11Z" />
    </g>
    <g id="mdi-quality-medium" transform="translate(216 36) scale(1.5)" fill="#555">
      <path d="M21,6V18A2,2 0 0,1 19,20H5A2,2 0 0,1 3,18V6A2,2 0 0,1 5,4H19A2,2 0 0,1 21,6M12,10C12,9.5 11.5,9 11,9H6.5C6,9 5.5,9.5 5.5,10V15H7V10.5H8V14H9.5V10.5H10.5V15H12V10M14.5,9A1,1 0 0,0 13.5,10V14A1,1 0 0,0 14.5,15H15.5V16.5H16.75V15H17.5A1,1 0 0,0 18.5,14V10A1,1 0 0,0 17.5,9H14.5M15,10.5H17V13.5H15V10.5Z" />
    </g>
    <g id="mdi-quality-medium" transform="translate(252 36) scale(1.5)" fill="#fff">
      <path d="M21,6V18A2,2 0 0,1 19,20H5A2,2 0 0,1 3,18V6A2,2 0 0,1 5,4H19A2,2 0 0,1 21,6M12,10C12,9.5 11.5,9 11,9H6.5C6,9 5.5,9.5 5.5,10V15H7V10.5H8V14H9.5V10.5H10.5V15H12V10M14.5,9A1,1 0 0,0 13.5,10V14A1,1 0 0,0 14.5,15H15.5V16.5H16.75V15H17.5A1,1 0 0,0 18.5,14V10A1,1 0 0,0 17.5,9H14.5M15,10.5H17V13.5H15V10.5Z" />
    </g>
    <g id="mdi-quora" transform="translate(288 36) scale(1.5)" fill="#555">
      <path d="M19.7,18.8C20.2,18.2 20.1,17.7 20.1,17.7H21.6C21.6,17.7 21.6,18.1 21.5,18.6C21.4,19 21.3,19.3 21.2,19.6C21,20.3 20,21.1 20,21.1C18.9,22 17.7,21.9 17.7,21.9C17.7,21.9 16.3,22.1 15.2,21.4C14.1,20.7 13.2,19.2 13.2,19.2C13.2,19.2 8.8,20.4 5.4,17.5C2,14.6 2.2,11.1 2.2,10.8C2.2,10.1 2.6,2.3 10.8,2C15.6,1.8 18.2,4.8 19.2,7.2C19.9,8.9 19.9,10.2 19.9,10.4C19.9,10.6 19.9,11.5 19.7,12.4C19.6,13.3 19.2,14.3 18.9,14.8C18.6,15.3 18.2,16 17.7,16.5C17.2,17.1 16.6,17.6 16.5,17.7C16.5,17.7 17.5,18.9 18.1,19.1C18.3,19.1 19.2,19.4 19.7,18.8M12.7,17.3C12.8,17.2 12.4,16.7 12.2,16.4C12,16.1 12.3,16.5 11.5,15.4C11.2,14.9 10.8,14.7 10.2,14.6C10,14.6 9.7,14.6 9.5,14.6C9,14.6 8.7,14.7 8.6,14.7C8.6,14.6 8.4,14.4 8.3,14.2C8.2,14 8.2,13.7 8.2,13.7C8.2,13.5 9.7,12.8 11.4,12.8C12.8,12.8 13.8,13.6 14.2,14C14.6,14.3 14.7,14.7 15.1,15C15.1,15 15.2,15 15.2,15.1C15.6,15.4 16.1,12.1 16,9.9C15.9,7.7 15.8,6.6 15,5.5C14.3,4.5 12.8,3.7 11.4,3.7C10.7,3.7 8.4,3.8 7.4,5.5C6.2,7.5 6.4,11.1 6.4,11.1C6.4,11.1 6.1,14.3 7.8,16C9.5,17.7 11.2,17.4 12,17.4L12.7,17.3Z" />
    </g>
    <g id="mdi-quora" transform="translate(324 36) scale(1.5)" fill="#fff">
      <path d="M19.7,18.8C20.2,18.2 20.1,17.7 20.1,17.7H21.6C21.6,17.7 21.6,18.1 21.5,18.6C21.4,19 21.3,19.3 21.2,19.6C21,20.3 20,21.1 20,21.1C18.9,22 17.7,21.9 17.7,21.9C17.7,21.9 16.3,22.1 15.2,21.4C14.1,20.7 13.2,19.2 13.2,19.2C13.2,19.2 8.8,20.4 5.4,17.5C2,14.6 2.2,11.1 2.2,10.8C2.2,10.1 2.6,2.3 10.8,2C15.6,1.8 18.2,4.8 19.2,7.2C19.9,8.9 19.9,10.2 19.9,10.4C19.9,10.6 19.9,11.5 19.7,12.4C19.6,13.3 19.2,14.3 18.9,14.8C18.6,15.3 18.2,16 17.7,16.5C17.2,17.1 16.6,17.6 16.5,17.7C16.5,17.7 17.5,18.9 18.1,19.1C18.3,19.1 19.2,19.4 19.7,18.8M12.7,17.3C12.8,17.2 12.4,16.7 12.2,16.4C12,16.1 12.3,16.5 11.5,15.4C11.2,14.9 10.8,14.7 10.2,14.6C10,14.6 9.7,14.6 9.5,14.6C9,14.6 8.7,14.7 8.6,14.7C8.6,14.6 8.4,14.4 8.3,14.2C8.2,14 8.2,13.7 8.2,13.7C8.2,13.5 9.7,12.8 11.4,12.8C12.8,12.8 13.8,13.6 14.2,14C14.6,14.3 14.7,14.7 15.1,15C15.1,15 15.2,15 15.2,15.1C15.6,15.4 16.1,12.1 16,9.9C15.9,7.7 15.8,6.6 15,5.5C14.3,4.5 12.8,3.7 11.4,3.7C10.7,3.7 8.4,3.8 7.4,5.5C6.2,7.5 6.4,11.1 6.4,11.1C6.4,11.1 6.1,14.3 7.8,16C9.5,17.7 11.2,17.4 12,17.4L12.7,17.3Z" />
    </g>
    <g id="mdi-rabbit" transform="translate(360 36) scale(1.5)" fill="#555">
      <path d="M18.05,21L15.32,16.26C15.32,14.53 14.25,13.42 12.95,13.42C12.05,13.42 11.27,13.92 10.87,14.66C11.2,14.47 11.59,14.37 12,14.37C13.3,14.37 14.36,15.43 14.36,16.73C14.36,18.04 13.31,19.11 12,19.11H15.3V21H6.79C6.55,21 6.3,20.91 6.12,20.72C5.75,20.35 5.75,19.75 6.12,19.38V19.38L6.62,18.88C6.28,18.73 6,18.5 5.72,18.26C5.5,18.76 5,19.11 4.42,19.11C3.64,19.11 3,18.47 3,17.68C3,16.9 3.64,16.26 4.42,16.26L4.89,16.34V14.37C4.89,11.75 7,9.63 9.63,9.63H9.65C11.77,9.64 13.42,10.47 13.42,9.16C13.42,8.23 13.62,7.86 13.96,7.34C13.23,7 12.4,6.79 11.53,6.79C11,6.79 10.58,6.37 10.58,5.84C10.58,5.41 10.86,5.05 11.25,4.93L10.58,4.89C10.06,4.89 9.63,4.47 9.63,3.95C9.63,3.42 10.06,3 10.58,3H11.53C13.63,3 15.47,4.15 16.46,5.85L16.74,5.84C17.45,5.84 18.11,6.07 18.65,6.45L19.1,6.83C21.27,8.78 21,10.1 21,10.11C21,11.39 19.94,12.44 18.65,12.44L18.16,12.39V12.47C18.16,13.58 17.68,14.57 16.93,15.27L20.24,21H18.05M18.16,7.74C17.63,7.74 17.21,8.16 17.21,8.68C17.21,9.21 17.63,9.63 18.16,9.63C18.68,9.63 19.11,9.21 19.11,8.68C19.11,8.16 18.68,7.74 18.16,7.74Z" />
    </g>
    <g id="mdi-rabbit" transform="translate(396 36) scale(1.5)" fill="#fff">
      <path d="M18.05,21L15.32,16.26C15.32,14.53 14.25,13.42 12.95,13.42C12.05,13.42 11.27,13.92 10.87,14.66C11.2,14.47 11.59,14.37 12,14.37C13.3,14.37 14.36,15.43 14.36,16.73C14.36,18.04 13.31,19.11 12,19.11H15.3V21H6.79C6.55,21 6.3,20.91 6.12,20.72C5.75,20.35 5.75,19.75 6.12,19.38V19.38L6.62,18.88C6.28,18.73 6,18.5 5.72,18.26C5.5,18.76 5,19.11 4.42,19.11C3.64,19.11 3,18.47 3,17.68C3,16.9 3.64,16.26 4.42,16.26L4.89,16.34V14.37C4.89,11.75 7,9.63 9.63,9.63H9.65C11.77,9.64 13.42,10.47 13.42,9.16C13.42,8.23 13.62,7.86 13.96,7.34C13.23,7 12.4,6.79 11.53,6.79C11,6.79 10.58,6.37 10.58,5.84C10.58,5.41 10.86,5.05 11.25,4.93L10.58,4.89C10.06,4.89 9.63,4.47 9.63,3.95C9.63,3.42 10.06,3 10.58,3H11.53C13.63,3 15.47,4.15 16.46,5.85L16.74,5.84C17.45,5.84 18.11,6.07 18.65,6.45L19.1,6.83C21.27,8.78 21,10.1 21,10.11C21,11.39 19.94,12.44 18.65,12.44L18.16,12.39V12.47C18.16,13.58 17.68,14.57 16.93,15.27L20.24,21H18.05M18.16,7.74C17.63,7.74 17.21,8.16 17.21,8.68C17.21,9.21 17.63,9.63 18.16,9.63C18.68,9.63 19.11,9.21 19.11,8.68C19.11,8.16 18.68,7.74 18.16,7.74Z" />
    </g>
    <g id="mdi-racing-helmet" transform="translate(432 36) scale(1.5)" fill="#555">
      <path d="M2.2,11.2C2,13.6 2.7,15.6 4.2,17.4C5.7,19.2 7.7,20 10.1,20H20.1C20.6,20 21.1,19.8 21.5,19.4C21.9,19 22.1,18.5 22.1,18V17.2C22.1,16.6 22,15.9 21.9,15H13.7C12.7,15 11.9,14.6 11.2,13.9C10.5,13.2 10.1,12.3 10.1,11.4C10.1,9.8 10.8,8.7 12.3,8.1L17.1,6C15.4,4.8 13.4,4.1 11.1,4C8.9,3.8 6.9,4.5 5.1,5.9C3.3,7.3 2.4,9 2.2,11.2M12.1,11.4C12.1,11.8 12.3,12.2 12.6,12.5C12.9,12.8 13.3,13 13.7,13H21.5C20.9,10.8 20,9 18.7,7.6L13.1,9.9C12.4,10.1 12.1,10.6 12.1,11.4Z" />
    </g>
    <g id="mdi-racing-helmet" transform="translate(468 36) scale(1.5)" fill="#fff">
      <path d="M2.2,11.2C2,13.6 2.7,15.6 4.2,17.4C5.7,19.2 7.7,20 10.1,20H20.1C20.6,20 21.1,19.8 21.5,19.4C21.9,19 22.1,18.5 22.1,18V17.2C22.1,16.6 22,15.9 21.9,15H13.7C12.7,15 11.9,14.6 11.2,13.9C10.5,13.2 10.1,12.3 10.1,11.4C10.1,9.8 10.8,8.7 12.3,8.1L17.1,6C15.4,4.8 13.4,4.1 11.1,4C8.9,3.8 6.9,4.5 5.1,5.9C3.3,7.3 2.4,9 2.2,11.2M12.1,11.4C12.1,11.8 12.3,12.2 12.6,12.5C12.9,12.8 13.3,13 13.7,13H21.5C20.9,10.8 20,9 18.7,7.6L13.1,9.9C12.4,10.1 12.1,10.6 12.1,11.4Z" />
    </g>
    <g id="mdi-racquetball" transform="translate(504 36) scale(1.5)" fill="#555">
      <path d="M18.5,16C19.9,16 21,17.1 21,18.5C21,19.9 19.9,21 18.5,21C17.1,21 16,19.9 16,18.5C16,17.1 17.1,16 18.5,16M10.5,1C3,1 3,3.7 3,9.8C3,13.2 6.4,16.9 9,18.1V23H12V18.1C14.6,16.9 18,13.2 18,9.8C18,3.6 18,1 10.5,1M15.4,4.2C15.7,4.6 15.8,5.2 15.9,6H15V3.8C15.2,3.9 15.3,4.1 15.4,4.2M16,9.8C16,9.9 16,10 16,10H15V7H16C16,7.8 16,8.7 16,9.8M14,14H11V11H14V14M7,14V11H10V14H7M5,9.8C5,8.8 5,7.9 5,7H6V10H5C5,9.9 5,9.8 5,9.8M7,7H10V10H7V7M11,3C12.4,3 13.4,3.2 14,3.3V6H11V3M10,6H7V3.4C7.6,3.2 8.6,3 10,3V6M11,10V7H14V10H11M6,3.8V6H5.1C5.2,5.2 5.3,4.6 5.6,4.2C5.7,4.1 5.8,4 6,3.8M5.2,11H6V12.7C5.7,12.1 5.4,11.6 5.2,11M8,15H10V16.3L9.8,16.2C9.2,16 8.6,15.5 8,15M11.2,16.3H11V15H13C12.4,15.5 11.8,16 11.2,16.3M15,12.7V11H15.8C15.6,11.5 15.3,12.1 15,12.7Z" />
    </g>
    <g id="mdi-racquetball" transform="translate(540 36) scale(1.5)" fill="#fff">
      <path d="M18.5,16C19.9,16 21,17.1 21,18.5C21,19.9 19.9,21 18.5,21C17.1,21 16,19.9 16,18.5C16,17.1 17.1,16 18.5,16M10.5,1C3,1 3,3.7 3,9.8C3,13.2 6.4,16.9 9,18.1V23H12V18.1C14.6,16.9 18,13.2 18,9.8C18,3.6 18,1 10.5,1M15.4,4.2C15.7,4.6 15.8,5.2 15.9,6H15V3.8C15.2,3.9 15.3,4.1 15.4,4.2M16,9.8C16,9.9 16,10 16,10H15V7H16C16,7.8 16,8.7 16,9.8M14,14H11V11H14V14M7,14V11H10V14H7M5,9.8C5,8.8 5,7.9 5,7H6V10H5C5,9.9 5,9.8 5,9.8M7,7H10V10H7V7M11,3C12.4,3 13.4,3.2 14,3.3V6H11V3M10,6H7V3.4C7.6,3.2 8.6,3 10,3V6M11,10V7H14V10H11M6,3.8V6H5.1C5.2,5.2 5.3,4.6 5.6,4.2C5.7,4.1 5.8,4 6,3.8M5.2,11H6V12.7C5.7,12.1 5.4,11.6 5.2,11M8,15H10V16.3L9.8,16.2C9.2,16 8.6,15.5 8,15M11.2,16.3H11V15H13C12.4,15.5 11.8,16 11.2,16.3M15,12.7V11H15.8C15.6,11.5 15.3,12.1 15,12.7Z" />
    </g>
    <g id="mdi-radar" transform="translate(576 36) scale(1.5)" fill="#555">
      <path d="M19.07,4.93L17.66,6.34C19.1,7.79 20,9.79 20,12A8,8 0 0,1 12,20A8,8 0 0,1 4,12C4,7.92 7.05,4.56 11,4.07V6.09C8.16,6.57 6,9.03 6,12A6,6 0 0,0 12,18A6,6 0 0,0 18,12C18,10.34 17.33,8.84 16.24,7.76L14.83,9.17C15.55,9.9 16,10.9 16,12A4,4 0 0,1 12,16A4,4 0 0,1 8,12C8,10.14 9.28,8.59 11,8.14V10.28C10.4,10.63 10,11.26 10,12A2,2 0 0,0 12,14A2,2 0 0,0 14,12C14,11.26 13.6,10.62 13,10.28V2H12A10,10 0 0,0 2,12A10,10 0 0,0 12,22A10,10 0 0,0 22,12C22,9.24 20.88,6.74 19.07,4.93Z" />
    </g>
    <g id="mdi-radar" transform="translate(612 36) scale(1.5)" fill="#fff">
      <path d="M19.07,4.93L17.66,6.34C19.1,7.79 20,9.79 20,12A8,8 0 0,1 12,20A8,8 0 0,1 4,12C4,7.92 7.05,4.56 11,4.07V6.09C8.16,6.57 6,9.03 6,12A6,6 0 0,0 12,18A6,6 0 0,0 18,12C18,10.34 17.33,8.84 16.24,7.76L14.83,9.17C15.55,9.9 16,10.9 16,12A4,4 0 0,1 12,16A4,4 0 0,1 8,12C8,10.14 9.28,8.59 11,8.14V10.28C10.4,10.63 10,11.26 10,12A2,2 0 0,0 12,14A2,2 0 0,0 14,12C14,11.26 13.6,10.62 13,10.28V2H12A10,10 0 0,0 2,12A10,10 0 0,0 12,22A10,10 0 0,0 22,12C22,9.24 20.88,6.74 19.07,4.93Z" />
    </g>
    <g id="mdi-radiator" transform="translate(648 36) scale(1.5)" fill="#555">
      <path d="M7.95,3L6.53,5.19L7.95,7.4H7.94L5.95,10.5L4.22,9.6L5.64,7.39L4.22,5.19L6.22,2.09L7.95,3M13.95,2.89L12.53,5.1L13.95,7.3L13.94,7.31L11.95,10.4L10.22,9.5L11.64,7.3L10.22,5.1L12.22,2L13.95,2.89M20,2.89L18.56,5.1L20,7.3V7.31L18,10.4L16.25,9.5L17.67,7.3L16.25,5.1L18.25,2L20,2.89M2,22V14A2,2 0 0,1 4,12H20A2,2 0 0,1 22,14V22H20V20H4V22H2M6,14A1,1 0 0,0 5,15V17A1,1 0 0,0 6,18A1,1 0 0,0 7,17V15A1,1 0 0,0 6,14M10,14A1,1 0 0,0 9,15V17A1,1 0 0,0 10,18A1,1 0 0,0 11,17V15A1,1 0 0,0 10,14M14,14A1,1 0 0,0 13,15V17A1,1 0 0,0 14,18A1,1 0 0,0 15,17V15A1,1 0 0,0 14,14M18,14A1,1 0 0,0 17,15V17A1,1 0 0,0 18,18A1,1 0 0,0 19,17V15A1,1 0 0,0 18,14Z" />
    </g>
    <g id="mdi-radiator" transform="translate(684 36) scale(1.5)" fill="#fff">
      <path d="M7.95,3L6.53,5.19L7.95,7.4H7.94L5.95,10.5L4.22,9.6L5.64,7.39L4.22,5.19L6.22,2.09L7.95,3M13.95,2.89L12.53,5.1L13.95,7.3L13.94,7.31L11.95,10.4L10.22,9.5L11.64,7.3L10.22,5.1L12.22,2L13.95,2.89M20,2.89L18.56,5.1L20,7.3V7.31L18,10.4L16.25,9.5L17.67,7.3L16.25,5.1L18.25,2L20,2.89M2,22V14A2,2 0 0,1 4,12H20A2,2 0 0,1 22,14V22H20V20H4V22H2M6,14A1,1 0 0,0 5,15V17A1,1 0 0,0 6,18A1,1 0 0,0 7,17V15A1,1 0 0,0 6,14M10,14A1,1 0 0,0 9,15V17A1,1 0 0,0 10,18A1,1 0 0,0 11,17V15A1,1 0 0,0 10,14M14,14A1,1 0 0,0 13,15V17A1,1 0 0,0 14,18A1,1 0 0,0 15,17V15A1,1 0 0,0 14,14M18,14A1,1 0 0,0 17,15V17A1,1 0 0,0 18,18A1,1 0 0,0 19,17V15A1,1 0 0,0 18,14Z" />
    </g>
    <g id="mdi-radiator-disabled" transform="translate(0 72) scale(1.5)" fill="#555">
      <path d="M20,12H4A2,2 0 0,0 2,14V22H4V20H20V22H22V14A2,2 0 0,0 20,12M7,17A1,1 0 0,1 6,18A1,1 0 0,1 5,17V15A1,1 0 0,1 6,14A1,1 0 0,1 7,15V17M11,17A1,1 0 0,1 10,18A1,1 0 0,1 9,17V15A1,1 0 0,1 10,14A1,1 0 0,1 11,15V17M15,17A1,1 0 0,1 14,18A1,1 0 0,1 13,17V15A1,1 0 0,1 14,14A1,1 0 0,1 15,15V17M19,17A1,1 0 0,1 18,18A1,1 0 0,1 17,17V15A1,1 0 0,1 18,14A1,1 0 0,1 19,15V17Z" />
    </g>
    <g id="mdi-radiator-disabled" transform="translate(36 72) scale(1.5)" fill="#fff">
      <path d="M20,12H4A2,2 0 0,0 2,14V22H4V20H20V22H22V14A2,2 0 0,0 20,12M7,17A1,1 0 0,1 6,18A1,1 0 0,1 5,17V15A1,1 0 0,1 6,14A1,1 0 0,1 7,15V17M11,17A1,1 0 0,1 10,18A1,1 0 0,1 9,17V15A1,1 0 0,1 10,14A1,1 0 0,1 11,15V17M15,17A1,1 0 0,1 14,18A1,1 0 0,1 13,17V15A1,1 0 0,1 14,14A1,1 0 0,1 15,15V17M19,17A1,1 0 0,1 18,18A1,1 0 0,1 17,17V15A1,1 0 0,1 18,14A1,1 0 0,1 19,15V17Z" />
    </g>
    <g id="mdi-radiator-off" transform="translate(72 72) scale(1.5)" fill="#555">
      <path d="M3.28,2L2,3.27L4.77,6.04L5.64,7.39L4.22,9.6L5.95,10.5L7.23,8.5L10.73,12H4A2,2 0 0,0 2,14V22H4V20H18.73L20,21.27V22H22V20.73L22,20.72V20.72L3.28,2M7,17A1,1 0 0,1 6,18A1,1 0 0,1 5,17V15A1,1 0 0,1 6,14A1,1 0 0,1 7,15V17M11,17A1,1 0 0,1 10,18A1,1 0 0,1 9,17V15A1,1 0 0,1 10,14A1,1 0 0,1 11,15V17M15,17A1,1 0 0,1 14,18A1,1 0 0,1 13,17V15C13,14.79 13.08,14.61 13.18,14.45L15,16.27V17M16.25,9.5L17.67,7.3L16.25,5.1L18.25,2L20,2.89L18.56,5.1L20,7.3V7.31L18,10.4L16.25,9.5M22,14V18.18L19,15.18V15A1,1 0 0,0 18,14C17.95,14 17.9,14 17.85,14.03L15.82,12H20C21.11,12 22,12.9 22,14M11.64,7.3L10.22,5.1L12.22,2L13.95,2.89L12.53,5.1L13.95,7.3L13.94,7.31L12.84,9L11.44,7.62L11.64,7.3M7.5,3.69L6.1,2.28L6.22,2.09L7.95,3L7.5,3.69Z" />
    </g>
    <g id="mdi-radiator-off" transform="translate(108 72) scale(1.5)" fill="#fff">
      <path d="M3.28,2L2,3.27L4.77,6.04L5.64,7.39L4.22,9.6L5.95,10.5L7.23,8.5L10.73,12H4A2,2 0 0,0 2,14V22H4V20H18.73L20,21.27V22H22V20.73L22,20.72V20.72L3.28,2M7,17A1,1 0 0,1 6,18A1,1 0 0,1 5,17V15A1,1 0 0,1 6,14A1,1 0 0,1 7,15V17M11,17A1,1 0 0,1 10,18A1,1 0 0,1 9,17V15A1,1 0 0,1 10,14A1,1 0 0,1 11,15V17M15,17A1,1 0 0,1 14,18A1,1 0 0,1 13,17V15C13,14.79 13.08,14.61 13.18,14.45L15,16.27V17M16.25,9.5L17.67,7.3L16.25,5.1L18.25,2L20,2.89L18.56,5.1L20,7.3V7.31L18,10.4L16.25,9.5M22,14V18.18L19,15.18V15A1,1 0 0,0 18,14C17.95,14 17.9,14 17.85,14.03L15.82,12H20C21.11,12 22,12.9 22,14M11.64,7.3L10.22,5.1L12.22,2L13.95,2.89L12.53,5.1L13.95,7.3L13.94,7.31L12.84,9L11.44,7.62L11.64,7.3M7.5,3.69L6.1,2.28L6.22,2.09L7.95,3L7.5,3.69Z" />
    </g>
    <g id="mdi-radio" transform="translate(144 72) scale(1.5)" fill="#555">
      <path d="M20,6A2,2 0 0,1 22,8V20A2,2 0 0,1 20,22H4A2,2 0 0,1 2,20V8C2,7.15 2.53,6.42 3.28,6.13L15.71,1L16.47,2.83L8.83,6H20M20,8H4V12H16V10H18V12H20V8M7,14A3,3 0 0,0 4,17A3,3 0 0,0 7,20A3,3 0 0,0 10,17A3,3 0 0,0 7,14Z" />
    </g>
    <g id="mdi-radio" transform="translate(180 72) scale(1.5)" fill="#fff">
      <path d="M20,6A2,2 0 0,1 22,8V20A2,2 0 0,1 20,22H4A2,2 0 0,1 2,20V8C2,7.15 2.53,6.42 3.28,6.13L15.71,1L16.47,2.83L8.83,6H20M20,8H4V12H16V10H18V12H20V8M7,14A3,3 0 0,0 4,17A3,3 0 0,0 7,20A3,3 0 0,0 10,17A3,3 0 0,0 7,14Z" />
    </g>
    <g id="mdi-radio-am" transform="translate(216 72) scale(1.5)" fill="#555">
      <path d="M5,7A2,2 0 0,0 3,9V17H5V13H7V17H9V9A2,2 0 0,0 7,7H5M5,9H7V11H5V9M13,7A2,2 0 0,0 11,9V17H13V9H15V16H17V9H19V17H21V9A2,2 0 0,0 19,7H13Z" />
    </g>
    <g id="mdi-radio-am" transform="translate(252 72) scale(1.5)" fill="#fff">
      <path d="M5,7A2,2 0 0,0 3,9V17H5V13H7V17H9V9A2,2 0 0,0 7,7H5M5,9H7V11H5V9M13,7A2,2 0 0,0 11,9V17H13V9H15V16H17V9H19V17H21V9A2,2 0 0,0 19,7H13Z" />
    </g>
    <g id="mdi-radio-fm" transform="translate(288 72) scale(1.5)" fill="#555">
      <path d="M3,7V17H5V13H8V11H5V9H9V7H3M13,7A2,2 0 0,0 11,9V17H13V9H15V16H17V9H19V17H21V9A2,2 0 0,0 19,7H13Z" />
    </g>
    <g id="mdi-radio-fm" transform="translate(324 72) scale(1.5)" fill="#fff">
      <path d="M3,7V17H5V13H8V11H5V9H9V7H3M13,7A2,2 0 0,0 11,9V17H13V9H15V16H17V9H19V17H21V9A2,2 0 0,0 19,7H13Z" />
    </g>
    <g id="mdi-radio-handheld" transform="translate(360 72) scale(1.5)" fill="#555">
      <path d="M9,2A1,1 0 0,0 8,3C8,8.67 8,14.33 8,20C8,21.11 8.89,22 10,22H15C16.11,22 17,21.11 17,20V9C17,7.89 16.11,7 15,7H10V3A1,1 0 0,0 9,2M10,9H15V13H10V9Z" />
    </g>
    <g id="mdi-radio-handheld" transform="translate(396 72) scale(1.5)" fill="#fff">
      <path d="M9,2A1,1 0 0,0 8,3C8,8.67 8,14.33 8,20C8,21.11 8.89,22 10,22H15C16.11,22 17,21.11 17,20V9C17,7.89 16.11,7 15,7H10V3A1,1 0 0,0 9,2M10,9H15V13H10V9Z" />
    </g>
    <g id="mdi-radio-off" transform="translate(432 72) scale(1.5)" fill="#555">
      <path d="M1 4.27L3 6.27C2.4 6.61 2 7.26 2 8V20C2 21.11 2.9 22 4 22H18.73L20.73 24L22 22.72L2.28 3L1 4.27M20 6H8.83L16.47 2.83L15.71 1L6.59 4.76L9.82 8H20V12H18V10H16V12H13.82L22 20.18V8C22 6.9 21.11 6 20 6M4 8H4.73L8.73 12H4V8M7 14C8.66 14 10 15.34 10 17C10 18.66 8.66 20 7 20C5.34 20 4 18.66 4 17C4 15.34 5.34 14 7 14Z" />
    </g>
    <g id="mdi-radio-off" transform="translate(468 72) scale(1.5)" fill="#fff">
      <path d="M1 4.27L3 6.27C2.4 6.61 2 7.26 2 8V20C2 21.11 2.9 22 4 22H18.73L20.73 24L22 22.72L2.28 3L1 4.27M20 6H8.83L16.47 2.83L15.71 1L6.59 4.76L9.82 8H20V12H18V10H16V12H13.82L22 20.18V8C22 6.9 21.11 6 20 6M4 8H4.73L8.73 12H4V8M7 14C8.66 14 10 15.34 10 17C10 18.66 8.66 20 7 20C5.34 20 4 18.66 4 17C4 15.34 5.34 14 7 14Z" />
    </g>
    <g id="mdi-radio-tower" transform="translate(504 72) scale(1.5)" fill="#555">
      <path d="M12,10A2,2 0 0,1 14,12C14,12.5 13.82,12.94 13.53,13.29L16.7,22H14.57L12,14.93L9.43,22H7.3L10.47,13.29C10.18,12.94 10,12.5 10,12A2,2 0 0,1 12,10M12,8A4,4 0 0,0 8,12C8,12.5 8.1,13 8.28,13.46L7.4,15.86C6.53,14.81 6,13.47 6,12A6,6 0 0,1 12,6A6,6 0 0,1 18,12C18,13.47 17.47,14.81 16.6,15.86L15.72,13.46C15.9,13 16,12.5 16,12A4,4 0 0,0 12,8M12,4A8,8 0 0,0 4,12C4,14.36 5,16.5 6.64,17.94L5.92,19.94C3.54,18.11 2,15.23 2,12A10,10 0 0,1 12,2A10,10 0 0,1 22,12C22,15.23 20.46,18.11 18.08,19.94L17.36,17.94C19,16.5 20,14.36 20,12A8,8 0 0,0 12,4Z" />
    </g>
    <g id="mdi-radio-tower" transform="translate(540 72) scale(1.5)" fill="#fff">
      <path d="M12,10A2,2 0 0,1 14,12C14,12.5 13.82,12.94 13.53,13.29L16.7,22H14.57L12,14.93L9.43,22H7.3L10.47,13.29C10.18,12.94 10,12.5 10,12A2,2 0 0,1 12,10M12,8A4,4 0 0,0 8,12C8,12.5 8.1,13 8.28,13.46L7.4,15.86C6.53,14.81 6,13.47 6,12A6,6 0 0,1 12,6A6,6 0 0,1 18,12C18,13.47 17.47,14.81 16.6,15.86L15.72,13.46C15.9,13 16,12.5 16,12A4,4 0 0,0 12,8M12,4A8,8 0 0,0 4,12C4,14.36 5,16.5 6.64,17.94L5.92,19.94C3.54,18.11 2,15.23 2,12A10,10 0 0,1 12,2A10,10 0 0,1 22,12C22,15.23 20.46,18.11 18.08,19.94L17.36,17.94C19,16.5 20,14.36 20,12A8,8 0 0,0 12,4Z" />
    </g>
    <g id="mdi-radioactive" transform="translate(576 72) scale(1.5)" fill="#555">
      <path d="M12,10A2,2 0 0,1 14,12A2,2 0 0,1 12,14A2,2 0 0,1 10,12A2,2 0 0,1 12,10M12,22C10.05,22 8.22,21.44 6.69,20.47L10,15.47C10.6,15.81 11.28,16 12,16C12.72,16 13.4,15.81 14,15.47L17.31,20.47C15.78,21.44 13.95,22 12,22M2,12C2,7.86 4.5,4.3 8.11,2.78L10.34,8.36C8.96,9 8,10.38 8,12H2M16,12C16,10.38 15.04,9 13.66,8.36L15.89,2.78C19.5,4.3 22,7.86 22,12H16Z" />
    </g>
    <g id="mdi-radioactive" transform="translate(612 72) scale(1.5)" fill="#fff">
      <path d="M12,10A2,2 0 0,1 14,12A2,2 0 0,1 12,14A2,2 0 0,1 10,12A2,2 0 0,1 12,10M12,22C10.05,22 8.22,21.44 6.69,20.47L10,15.47C10.6,15.81 11.28,16 12,16C12.72,16 13.4,15.81 14,15.47L17.31,20.47C15.78,21.44 13.95,22 12,22M2,12C2,7.86 4.5,4.3 8.11,2.78L10.34,8.36C8.96,9 8,10.38 8,12H2M16,12C16,10.38 15.04,9 13.66,8.36L15.89,2.78C19.5,4.3 22,7.86 22,12H16Z" />
    </g>
    <g id="mdi-radioactive-off" transform="translate(648 72) scale(1.5)" fill="#555">
      <path d="M1,4.27L2.28,3L21,21.72L19.73,23L17.25,20.5C15.72,21.46 13.92,22 12,22C10.05,22 8.22,21.44 6.69,20.47L10,15.47C10.6,15.81 11.28,16 12,16C12.23,16 12.46,16 12.67,15.94L8.06,11.33C8,11.54 8,11.77 8,12H2C2,10.08 2.54,8.28 3.5,6.75L1,4.27M12,10A2,2 0 0,1 14,12V12.17L11.83,10H12M8.11,2.78L10.23,8.41L5.9,4.08C6.57,3.56 7.32,3.12 8.11,2.78M16,12C16,10.38 15.04,9 13.66,8.36L15.89,2.78C19.5,4.3 22,7.86 22,12H16Z" />
    </g>
    <g id="mdi-radioactive-off" transform="translate(684 72) scale(1.5)" fill="#fff">
      <path d="M1,4.27L2.28,3L21,21.72L19.73,23L17.25,20.5C15.72,21.46 13.92,22 12,22C10.05,22 8.22,21.44 6.69,20.47L10,15.47C10.6,15.81 11.28,16 12,16C12.23,16 12.46,16 12.67,15.94L8.06,11.33C8,11.54 8,11.77 8,12H2C2,10.08 2.54,8.28 3.5,6.75L1,4.27M12,10A2,2 0 0,1 14,12V12.17L11.83,10H12M8.11,2.78L10.23,8.41L5.9,4.08C6.57,3.56 7.32,3.12 8.11,2.78M16,12C16,10.38 15.04,9 13.66,8.36L15.89,2.78C19.5,4.3 22,7.86 22,12H16Z" />
    </g>
    <g id="mdi-radiobox-blank" transform="translate(0 108) scale(1.5)" fill="#555">
      <path d="M12,20A8,8 0 0,1 4,12A8,8 0 0,1 12,4A8,8 0 0,1 20,12A8,8 0 0,1 12,20M12,2A10,10 0 0,0 2,12A10,10 0 0,0 12,22A10,10 0 0,0 22,12A10,10 0 0,0 12,2Z" />
    </g>
    <g id="mdi-radiobox-blank" transform="translate(36 108) scale(1.5)" fill="#fff">
      <path d="M12,20A8,8 0 0,1 4,12A8,8 0 0,1 12,4A8,8 0 0,1 20,12A8,8 0 0,1 12,20M12,2A10,10 0 0,0 2,12A10,10 0 0,0 12,22A10,10 0 0,0 22,12A10,10 0 0,0 12,2Z" />
    </g>
    <g id="mdi-radiobox-marked" transform="translate(72 108) scale(1.5)" fill="#555">
      <path d="M12,20A8,8 0 0,1 4,12A8,8 0 0,1 12,4A8,8 0 0,1 20,12A8,8 0 0,1 12,20M12,2A10,10 0 0,0 2,12A10,10 0 0,0 12,22A10,10 0 0,0 22,12A10,10 0 0,0 12,2M12,7A5,5 0 0,0 7,12A5,5 0 0,0 12,17A5,5 0 0,0 17,12A5,5 0 0,0 12,7Z" />
    </g>
    <g id="mdi-radiobox-marked" transform="translate(108 108) scale(1.5)" fill="#fff">
      <path d="M12,20A8,8 0 0,1 4,12A8,8 0 0,1 12,4A8,8 0 0,1 20,12A8,8 0 0,1 12,20M12,2A10,10 0 0,0 2,12A10,10 0 0,0 12,22A10,10 0 0,0 22,12A10,10 0 0,0 12,2M12,7A5,5 0 0,0 7,12A5,5 0 0,0 12,17A5,5 0 0,0 17,12A5,5 0 0,0 12,7Z" />
    </g>
    <g id="mdi-radiology-box" transform="translate(144 108) scale(1.5)" fill="#555">
      <path d="M19 3H5C3.89 3 3 3.89 3 5V19C3 20.11 3.89 21 5 21H19C20.11 21 21 20.11 21 19V5C21 3.89 20.11 3 19 3M17.1 13H13V14H17C17 14 16.94 17 15.5 17C14.15 17 14.5 15.47 13 15V17C13 17.55 12.55 18 12 18S11 17.55 11 17V15C9.5 15.47 9.85 17 8.5 17C7.06 17 7 14 7 14H11V13H6.9C6.85 12.69 6.84 12.35 6.8 12H11V11H6.81C6.83 10.67 6.91 10.33 7 10H11V9H7.34C7.5 8.65 7.65 8.31 7.83 8H11V7C11 6.45 11.45 6 12 6S13 6.45 13 7V8H16.17C16.35 8.31 16.5 8.65 16.66 9H13V10H17C17.1 10.33 17.17 10.67 17.19 11H13V12H17.2C17.16 12.35 17.15 12.69 17.1 13Z" />
    </g>
    <g id="mdi-radiology-box" transform="translate(180 108) scale(1.5)" fill="#fff">
      <path d="M19 3H5C3.89 3 3 3.89 3 5V19C3 20.11 3.89 21 5 21H19C20.11 21 21 20.11 21 19V5C21 3.89 20.11 3 19 3M17.1 13H13V14H17C17 14 16.94 17 15.5 17C14.15 17 14.5 15.47 13 15V17C13 17.55 12.55 18 12 18S11 17.55 11 17V15C9.5 15.47 9.85 17 8.5 17C7.06 17 7 14 7 14H11V13H6.9C6.85 12.69 6.84 12.35 6.8 12H11V11H6.81C6.83 10.67 6.91 10.33 7 10H11V9H7.34C7.5 8.65 7.65 8.31 7.83 8H11V7C11 6.45 11.45 6 12 6S13 6.45 13 7V8H16.17C16.35 8.31 16.5 8.65 16.66 9H13V10H17C17.1 10.33 17.17 10.67 17.19 11H13V12H17.2C17.16 12.35 17.15 12.69 17.1 13Z" />
    </g>
    <g id="mdi-radiology-box-outline" transform="translate(216 108) scale(1.5)" fill="#555">
      <path d="M19 5V19H5V5H19M19 3H5C3.89 3 3 3.89 3 5V19C3 20.11 3.89 21 5 21H19C20.11 21 21 20.11 21 19V5C21 3.89 20.11 3 19 3M12 6C12.55 6 13 6.45 13 7V8H16.17C16.35 8.31 16.5 8.65 16.66 9H13V10H17C17.1 10.33 17.17 10.67 17.19 11H13V12H17.2C17.16 12.35 17.15 12.69 17.1 13H13V14H17C17 14 16.94 17 15.5 17C14.15 17 14.5 15.47 13 15V17C13 17.55 12.55 18 12 18S11 17.55 11 17V15C9.5 15.47 9.85 17 8.5 17C7.06 17 7 14 7 14H11V13H6.9C6.85 12.69 6.84 12.35 6.8 12H11V11H6.81C6.83 10.67 6.91 10.33 7 10H11V9H7.34C7.5 8.65 7.65 8.31 7.83 8H11V7C11 6.45 11.45 6 12 6Z" />
    </g>
    <g id="mdi-radiology-box-outline" transform="translate(252 108) scale(1.5)" fill="#fff">
      <path d="M19 5V19H5V5H19M19 3H5C3.89 3 3 3.89 3 5V19C3 20.11 3.89 21 5 21H19C20.11 21 21 20.11 21 19V5C21 3.89 20.11 3 19 3M12 6C12.55 6 13 6.45 13 7V8H16.17C16.35 8.31 16.5 8.65 16.66 9H13V10H17C17.1 10.33 17.17 10.67 17.19 11H13V12H17.2C17.16 12.35 17.15 12.69 17.1 13H13V14H17C17 14 16.94 17 15.5 17C14.15 17 14.5 15.47 13 15V17C13 17.55 12.55 18 12 18S11 17.55 11 17V15C9.5 15.47 9.85 17 8.5 17C7.06 17 7 14 7 14H11V13H6.9C6.85 12.69 6.84 12.35 6.8 12H11V11H6.81C6.83 10.67 6.91 10.33 7 10H11V9H7.34C7.5 8.65 7.65 8.31 7.83 8H11V7C11 6.45 11.45 6 12 6Z" />
    </g>
    <g id="mdi-radius" transform="translate(288 108) scale(1.5)" fill="#555">
      <path d="M12,2A10,10 0 0,0 2,12A10,10 0 0,0 12,22A10,10 0 0,0 22,12A10,10 0 0,0 12,2M17,15V13H13.72C13.36,13.62 12.71,14 12,14A2,2 0 0,1 10,12A2,2 0 0,1 12,10C12.71,10 13.36,10.38 13.72,11H17V9L20,12L17,15Z" />
    </g>
    <g id="mdi-radius" transform="translate(324 108) scale(1.5)" fill="#fff">
      <path d="M12,2A10,10 0 0,0 2,12A10,10 0 0,0 12,22A10,10 0 0,0 22,12A10,10 0 0,0 12,2M17,15V13H13.72C13.36,13.62 12.71,14 12,14A2,2 0 0,1 10,12A2,2 0 0,1 12,10C12.71,10 13.36,10.38 13.72,11H17V9L20,12L17,15Z" />
    </g>
    <g id="mdi-radius-outline" transform="translate(360 108) scale(1.5)" fill="#555">
      <path d="M12,2A10,10 0 0,0 2,12A10,10 0 0,0 12,22A10,10 0 0,0 22,12A10,10 0 0,0 12,2M12,20A8,8 0 0,1 4,12A8,8 0 0,1 12,4A8,8 0 0,1 20,12A8,8 0 0,1 12,20M16,15V13H13.72C13.36,13.62 12.71,14 12,14A2,2 0 0,1 10,12A2,2 0 0,1 12,10C12.71,10 13.36,10.38 13.72,11H16V9L19,12L16,15Z" />
    </g>
    <g id="mdi-radius-outline" transform="translate(396 108) scale(1.5)" fill="#fff">
      <path d="M12,2A10,10 0 0,0 2,12A10,10 0 0,0 12,22A10,10 0 0,0 22,12A10,10 0 0,0 12,2M12,20A8,8 0 0,1 4,12A8,8 0 0,1 12,4A8,8 0 0,1 20,12A8,8 0 0,1 12,20M16,15V13H13.72C13.36,13.62 12.71,14 12,14A2,2 0 0,1 10,12A2,2 0 0,1 12,10C12.71,10 13.36,10.38 13.72,11H16V9L19,12L16,15Z" />
    </g>
    <g id="mdi-railroad-light" transform="translate(432 108) scale(1.5)" fill="#555">
      <path d="M17.67,10.5C16.4,10.5 15.27,11.3 14.85,12.5H13.17V7.77L16.66,9.86L17.66,8.14L14.11,6L17.68,3.86L16.68,2.14L13.17,4.23V2H11.17V4.23L7.68,2.14L6.68,3.86L10.23,6L6.66,8.14L7.66,9.86L11.17,7.77V12.5H9.5C8.36,9.32 3.66,10.13 3.66,13.5C3.66,16.87 8.36,17.68 9.5,14.5H11.17V20A2,2 0 0,0 9.17,22H15.17A2,2 0 0,0 13.17,20V14.5H14.85C15.66,16.8 18.73,17.22 20.13,15.23C21.53,13.24 20.1,10.5 17.67,10.5M6.67,14.5C5.78,14.5 5.33,13.42 5.96,12.79C6.59,12.16 7.67,12.61 7.67,13.5A1,1 0 0,1 6.67,14.5M17.67,14.5C16.78,14.5 16.33,13.42 16.96,12.79C17.59,12.16 18.67,12.61 18.67,13.5A1,1 0 0,1 17.67,14.5Z" />
    </g>
    <g id="mdi-railroad-light" transform="translate(468 108) scale(1.5)" fill="#fff">
      <path d="M17.67,10.5C16.4,10.5 15.27,11.3 14.85,12.5H13.17V7.77L16.66,9.86L17.66,8.14L14.11,6L17.68,3.86L16.68,2.14L13.17,4.23V2H11.17V4.23L7.68,2.14L6.68,3.86L10.23,6L6.66,8.14L7.66,9.86L11.17,7.77V12.5H9.5C8.36,9.32 3.66,10.13 3.66,13.5C3.66,16.87 8.36,17.68 9.5,14.5H11.17V20A2,2 0 0,0 9.17,22H15.17A2,2 0 0,0 13.17,20V14.5H14.85C15.66,16.8 18.73,17.22 20.13,15.23C21.53,13.24 20.1,10.5 17.67,10.5M6.67,14.5C5.78,14.5 5.33,13.42 5.96,12.79C6.59,12.16 7.67,12.61 7.67,13.5A1,1 0 0,1 6.67,14.5M17.67,14.5C16.78,14.5 16.33,13.42 16.96,12.79C17.59,12.16 18.67,12.61 18.67,13.5A1,1 0 0,1 17.67,14.5Z" />
    </g>
    <g id="mdi-rake" transform="translate(504 108) scale(1.5)" fill="#555">
      <path d="M10.5 17.05L9.43 16L22.07 3.35L20.66 1.93L8 14.58L6.95 13.5C6.17 12.73 4.9 12.73 4.12 13.5L2 15.64L2.71 16.34L4.83 14.22L5.54 14.93L3.41 17.05L4.12 17.76L6.24 15.64L6.95 16.34L4.83 18.46L5.54 19.17L7.66 17.05L8.36 17.76L6.24 19.88L6.95 20.59L9.07 18.46L9.78 19.17L7.66 21.29L8.36 22L10.5 19.88C11.27 19.1 11.27 17.83 10.5 17.05Z" />
    </g>
    <g id="mdi-rake" transform="translate(540 108) scale(1.5)" fill="#fff">
      <path d="M10.5 17.05L9.43 16L22.07 3.35L20.66 1.93L8 14.58L6.95 13.5C6.17 12.73 4.9 12.73 4.12 13.5L2 15.64L2.71 16.34L4.83 14.22L5.54 14.93L3.41 17.05L4.12 17.76L6.24 15.64L6.95 16.34L4.83 18.46L5.54 19.17L7.66 17.05L8.36 17.76L6.24 19.88L6.95 20.59L9.07 18.46L9.78 19.17L7.66 21.29L8.36 22L10.5 19.88C11.27 19.1 11.27 17.83 10.5 17.05Z" />
    </g>
    <g id="mdi-raspberry-pi" transform="translate(576 108) scale(1.5)" fill="#555">
      <path d="M20,8H22V10H20V8M4,5H20A2,2 0 0,1 22,7H19V9H5V13H8V16H19V17H22A2,2 0 0,1 20,19H16V20H14V19H11V20H7V19H4A2,2 0 0,1 2,17V7A2,2 0 0,1 4,5M19,15H9V10H19V11H22V13H19V15M13,12V14H15V12H13M5,6V8H6V6H5M7,6V8H8V6H7M9,6V8H10V6H9M11,6V8H12V6H11M13,6V8H14V6H13M15,6V8H16V6H15M20,14H22V16H20V14Z" />
    </g>
    <g id="mdi-raspberry-pi" transform="translate(612 108) scale(1.5)" fill="#fff">
      <path d="M20,8H22V10H20V8M4,5H20A2,2 0 0,1 22,7H19V9H5V13H8V16H19V17H22A2,2 0 0,1 20,19H16V20H14V19H11V20H7V19H4A2,2 0 0,1 2,17V7A2,2 0 0,1 4,5M19,15H9V10H19V11H22V13H19V15M13,12V14H15V12H13M5,6V8H6V6H5M7,6V8H8V6H7M9,6V8H10V6H9M11,6V8H12V6H11M13,6V8H14V6H13M15,6V8H16V6H15M20,14H22V16H20V14Z" />
    </g>
    <g id="mdi-ray-end" transform="translate(648 108) scale(1.5)" fill="#555">
      <path d="M20,9C18.69,9 17.58,9.83 17.17,11H2V13H17.17C17.58,14.17 18.69,15 20,15A3,3 0 0,0 23,12A3,3 0 0,0 20,9Z" />
    </g>
    <g id="mdi-ray-end" transform="translate(684 108) scale(1.5)" fill="#fff">
      <path d="M20,9C18.69,9 17.58,9.83 17.17,11H2V13H17.17C17.58,14.17 18.69,15 20,15A3,3 0 0,0 23,12A3,3 0 0,0 20,9Z" />
    </g>
    <g id="mdi-ray-end-arrow" transform="translate(0 144) scale(1.5)" fill="#555">
      <path d="M1,12L5,16V13H17.17C17.58,14.17 18.69,15 20,15A3,3 0 0,0 23,12A3,3 0 0,0 20,9C18.69,9 17.58,9.83 17.17,11H5V8L1,12Z" />
    </g>
    <g id="mdi-ray-end-arrow" transform="translate(36 144) scale(1.5)" fill="#fff">
      <path d="M1,12L5,16V13H17.17C17.58,14.17 18.69,15 20,15A3,3 0 0,0 23,12A3,3 0 0,0 20,9C18.69,9 17.58,9.83 17.17,11H5V8L1,12Z" />
    </g>
    <g id="mdi-ray-start" transform="translate(72 144) scale(1.5)" fill="#555">
      <path d="M4,9C5.31,9 6.42,9.83 6.83,11H22V13H6.83C6.42,14.17 5.31,15 4,15A3,3 0 0,1 1,12A3,3 0 0,1 4,9Z" />
    </g>
    <g id="mdi-ray-start" transform="translate(108 144) scale(1.5)" fill="#fff">
      <path d="M4,9C5.31,9 6.42,9.83 6.83,11H22V13H6.83C6.42,14.17 5.31,15 4,15A3,3 0 0,1 1,12A3,3 0 0,1 4,9Z" />
    </g>
    <g id="mdi-ray-start-arrow" transform="translate(144 144) scale(1.5)" fill="#555">
      <path d="M23,12L19,16V13H6.83C6.42,14.17 5.31,15 4,15A3,3 0 0,1 1,12A3,3 0 0,1 4,9C5.31,9 6.42,9.83 6.83,11H19V8L23,12Z" />
    </g>
    <g id="mdi-ray-start-arrow" transform="translate(180 144) scale(1.5)" fill="#fff">
      <path d="M23,12L19,16V13H6.83C6.42,14.17 5.31,15 4,15A3,3 0 0,1 1,12A3,3 0 0,1 4,9C5.31,9 6.42,9.83 6.83,11H19V8L23,12Z" />
    </g>
    <g id="mdi-ray-start-end" transform="translate(216 144) scale(1.5)" fill="#555">
      <path d="M4,9C5.31,9 6.42,9.83 6.83,11H17.17C17.58,9.83 18.69,9 20,9A3,3 0 0,1 23,12A3,3 0 0,1 20,15C18.69,15 17.58,14.17 17.17,13H6.83C6.42,14.17 5.31,15 4,15A3,3 0 0,1 1,12A3,3 0 0,1 4,9Z" />
    </g>
    <g id="mdi-ray-start-end" transform="translate(252 144) scale(1.5)" fill="#fff">
      <path d="M4,9C5.31,9 6.42,9.83 6.83,11H17.17C17.58,9.83 18.69,9 20,9A3,3 0 0,1 23,12A3,3 0 0,1 20,15C18.69,15 17.58,14.17 17.17,13H6.83C6.42,14.17 5.31,15 4,15A3,3 0 0,1 1,12A3,3 0 0,1 4,9Z" />
    </g>
    <g id="mdi-ray-start-vertex-end" transform="translate(288 144) scale(1.5)" fill="#555">
      <path d="M20 9C18.69 9 17.58 9.83 17.17 11H14.82C14.4 9.84 13.3 9 12 9S9.6 9.84 9.18 11H6.83C6.42 9.83 5.31 9 4 9C2.34 9 1 10.34 1 12S2.34 15 4 15C5.31 15 6.42 14.17 6.83 13H9.18C9.6 14.16 10.7 15 12 15S14.4 14.16 14.82 13H17.17C17.58 14.17 18.69 15 20 15C21.66 15 23 13.66 23 12S21.66 9 20 9" />
    </g>
    <g id="mdi-ray-start-vertex-end" transform="translate(324 144) scale(1.5)" fill="#fff">
      <path d="M20 9C18.69 9 17.58 9.83 17.17 11H14.82C14.4 9.84 13.3 9 12 9S9.6 9.84 9.18 11H6.83C6.42 9.83 5.31 9 4 9C2.34 9 1 10.34 1 12S2.34 15 4 15C5.31 15 6.42 14.17 6.83 13H9.18C9.6 14.16 10.7 15 12 15S14.4 14.16 14.82 13H17.17C17.58 14.17 18.69 15 20 15C21.66 15 23 13.66 23 12S21.66 9 20 9" />
    </g>
    <g id="mdi-ray-vertex" transform="translate(360 144) scale(1.5)" fill="#555">
      <path d="M2,11H9.17C9.58,9.83 10.69,9 12,9C13.31,9 14.42,9.83 14.83,11H22V13H14.83C14.42,14.17 13.31,15 12,15C10.69,15 9.58,14.17 9.17,13H2V11Z" />
    </g>
    <g id="mdi-ray-vertex" transform="translate(396 144) scale(1.5)" fill="#fff">
      <path d="M2,11H9.17C9.58,9.83 10.69,9 12,9C13.31,9 14.42,9.83 14.83,11H22V13H14.83C14.42,14.17 13.31,15 12,15C10.69,15 9.58,14.17 9.17,13H2V11Z" />
    </g>
    <g id="mdi-react" transform="translate(432 144) scale(1.5)" fill="#555">
      <path d="M12,10.11C13.03,10.11 13.87,10.95 13.87,12C13.87,13 13.03,13.85 12,13.85C10.97,13.85 10.13,13 10.13,12C10.13,10.95 10.97,10.11 12,10.11M7.37,20C8,20.38 9.38,19.8 10.97,18.3C10.45,17.71 9.94,17.07 9.46,16.4C8.64,16.32 7.83,16.2 7.06,16.04C6.55,18.18 6.74,19.65 7.37,20M8.08,14.26L7.79,13.75C7.68,14.04 7.57,14.33 7.5,14.61C7.77,14.67 8.07,14.72 8.38,14.77C8.28,14.6 8.18,14.43 8.08,14.26M14.62,13.5L15.43,12L14.62,10.5C14.32,9.97 14,9.5 13.71,9.03C13.17,9 12.6,9 12,9C11.4,9 10.83,9 10.29,9.03C10,9.5 9.68,9.97 9.38,10.5L8.57,12L9.38,13.5C9.68,14.03 10,14.5 10.29,14.97C10.83,15 11.4,15 12,15C12.6,15 13.17,15 13.71,14.97C14,14.5 14.32,14.03 14.62,13.5M12,6.78C11.81,7 11.61,7.23 11.41,7.5C11.61,7.5 11.8,7.5 12,7.5C12.2,7.5 12.39,7.5 12.59,7.5C12.39,7.23 12.19,7 12,6.78M12,17.22C12.19,17 12.39,16.77 12.59,16.5C12.39,16.5 12.2,16.5 12,16.5C11.8,16.5 11.61,16.5 11.41,16.5C11.61,16.77 11.81,17 12,17.22M16.62,4C16,3.62 14.62,4.2 13.03,5.7C13.55,6.29 14.06,6.93 14.54,7.6C15.36,7.68 16.17,7.8 16.94,7.96C17.45,5.82 17.26,4.35 16.62,4M15.92,9.74L16.21,10.25C16.32,9.96 16.43,9.67 16.5,9.39C16.23,9.33 15.93,9.28 15.62,9.23C15.72,9.4 15.82,9.57 15.92,9.74M17.37,2.69C18.84,3.53 19,5.74 18.38,8.32C20.92,9.07 22.75,10.31 22.75,12C22.75,13.69 20.92,14.93 18.38,15.68C19,18.26 18.84,20.47 17.37,21.31C15.91,22.15 13.92,21.19 12,19.36C10.08,21.19 8.09,22.15 6.62,21.31C5.16,20.47 5,18.26 5.62,15.68C3.08,14.93 1.25,13.69 1.25,12C1.25,10.31 3.08,9.07 5.62,8.32C5,5.74 5.16,3.53 6.62,2.69C8.09,1.85 10.08,2.81 12,4.64C13.92,2.81 15.91,1.85 17.37,2.69M17.08,12C17.42,12.75 17.72,13.5 17.97,14.26C20.07,13.63 21.25,12.73 21.25,12C21.25,11.27 20.07,10.37 17.97,9.74C17.72,10.5 17.42,11.25 17.08,12M6.92,12C6.58,11.25 6.28,10.5 6.03,9.74C3.93,10.37 2.75,11.27 2.75,12C2.75,12.73 3.93,13.63 6.03,14.26C6.28,13.5 6.58,12.75 6.92,12M15.92,14.26C15.82,14.43 15.72,14.6 15.62,14.77C15.93,14.72 16.23,14.67 16.5,14.61C16.43,14.33 16.32,14.04 16.21,13.75L15.92,14.26M13.03,18.3C14.62,19.8 16,20.38 16.62,20C17.26,19.65 17.45,18.18 16.94,16.04C16.17,16.2 15.36,16.32 14.54,16.4C14.06,17.07 13.55,17.71 13.03,18.3M8.08,9.74C8.18,9.57 8.28,9.4 8.38,9.23C8.07,9.28 7.77,9.33 7.5,9.39C7.57,9.67 7.68,9.96 7.79,10.25L8.08,9.74M10.97,5.7C9.38,4.2 8,3.62 7.37,4C6.74,4.35 6.55,5.82 7.06,7.96C7.83,7.8 8.64,7.68 9.46,7.6C9.94,6.93 10.45,6.29 10.97,5.7Z" />
    </g>
    <g id="mdi-react" transform="translate(468 144) scale(1.5)" fill="#fff">
      <path d="M12,10.11C13.03,10.11 13.87,10.95 13.87,12C13.87,13 13.03,13.85 12,13.85C10.97,13.85 10.13,13 10.13,12C10.13,10.95 10.97,10.11 12,10.11M7.37,20C8,20.38 9.38,19.8 10.97,18.3C10.45,17.71 9.94,17.07 9.46,16.4C8.64,16.32 7.83,16.2 7.06,16.04C6.55,18.18 6.74,19.65 7.37,20M8.08,14.26L7.79,13.75C7.68,14.04 7.57,14.33 7.5,14.61C7.77,14.67 8.07,14.72 8.38,14.77C8.28,14.6 8.18,14.43 8.08,14.26M14.62,13.5L15.43,12L14.62,10.5C14.32,9.97 14,9.5 13.71,9.03C13.17,9 12.6,9 12,9C11.4,9 10.83,9 10.29,9.03C10,9.5 9.68,9.97 9.38,10.5L8.57,12L9.38,13.5C9.68,14.03 10,14.5 10.29,14.97C10.83,15 11.4,15 12,15C12.6,15 13.17,15 13.71,14.97C14,14.5 14.32,14.03 14.62,13.5M12,6.78C11.81,7 11.61,7.23 11.41,7.5C11.61,7.5 11.8,7.5 12,7.5C12.2,7.5 12.39,7.5 12.59,7.5C12.39,7.23 12.19,7 12,6.78M12,17.22C12.19,17 12.39,16.77 12.59,16.5C12.39,16.5 12.2,16.5 12,16.5C11.8,16.5 11.61,16.5 11.41,16.5C11.61,16.77 11.81,17 12,17.22M16.62,4C16,3.62 14.62,4.2 13.03,5.7C13.55,6.29 14.06,6.93 14.54,7.6C15.36,7.68 16.17,7.8 16.94,7.96C17.45,5.82 17.26,4.35 16.62,4M15.92,9.74L16.21,10.25C16.32,9.96 16.43,9.67 16.5,9.39C16.23,9.33 15.93,9.28 15.62,9.23C15.72,9.4 15.82,9.57 15.92,9.74M17.37,2.69C18.84,3.53 19,5.74 18.38,8.32C20.92,9.07 22.75,10.31 22.75,12C22.75,13.69 20.92,14.93 18.38,15.68C19,18.26 18.84,20.47 17.37,21.31C15.91,22.15 13.92,21.19 12,19.36C10.08,21.19 8.09,22.15 6.62,21.31C5.16,20.47 5,18.26 5.62,15.68C3.08,14.93 1.25,13.69 1.25,12C1.25,10.31 3.08,9.07 5.62,8.32C5,5.74 5.16,3.53 6.62,2.69C8.09,1.85 10.08,2.81 12,4.64C13.92,2.81 15.91,1.85 17.37,2.69M17.08,12C17.42,12.75 17.72,13.5 17.97,14.26C20.07,13.63 21.25,12.73 21.25,12C21.25,11.27 20.07,10.37 17.97,9.74C17.72,10.5 17.42,11.25 17.08,12M6.92,12C6.58,11.25 6.28,10.5 6.03,9.74C3.93,10.37 2.75,11.27 2.75,12C2.75,12.73 3.93,13.63 6.03,14.26C6.28,13.5 6.58,12.75 6.92,12M15.92,14.26C15.82,14.43 15.72,14.6 15.62,14.77C15.93,14.72 16.23,14.67 16.5,14.61C16.43,14.33 16.32,14.04 16.21,13.75L15.92,14.26M13.03,18.3C14.62,19.8 16,20.38 16.62,20C17.26,19.65 17.45,18.18 16.94,16.04C16.17,16.2 15.36,16.32 14.54,16.4C14.06,17.07 13.55,17.71 13.03,18.3M8.08,9.74C8.18,9.57 8.28,9.4 8.38,9.23C8.07,9.28 7.77,9.33 7.5,9.39C7.57,9.67 7.68,9.96 7.79,10.25L8.08,9.74M10.97,5.7C9.38,4.2 8,3.62 7.37,4C6.74,4.35 6.55,5.82 7.06,7.96C7.83,7.8 8.64,7.68 9.46,7.6C9.94,6.93 10.45,6.29 10.97,5.7Z" />
    </g>
    <g id="mdi-read" transform="translate(504 144) scale(1.5)" fill="#555">
      <path d="M21.59,11.59L23,13L13.5,22.5L8.42,17.41L9.83,16L13.5,19.68L21.59,11.59M4,16V3H6L9,3A4,4 0 0,1 13,7C13,8.54 12.13,9.88 10.85,10.55L14,16H12L9.11,11H6V16H4M6,9H9A2,2 0 0,0 11,7A2,2 0 0,0 9,5H6V9Z" />
    </g>
    <g id="mdi-read" transform="translate(540 144) scale(1.5)" fill="#fff">
      <path d="M21.59,11.59L23,13L13.5,22.5L8.42,17.41L9.83,16L13.5,19.68L21.59,11.59M4,16V3H6L9,3A4,4 0 0,1 13,7C13,8.54 12.13,9.88 10.85,10.55L14,16H12L9.11,11H6V16H4M6,9H9A2,2 0 0,0 11,7A2,2 0 0,0 9,5H6V9Z" />
    </g>
    <g id="mdi-receipt" transform="translate(576 144) scale(1.5)" fill="#555">
      <path d="M3,22L4.5,20.5L6,22L7.5,20.5L9,22L10.5,20.5L12,22L13.5,20.5L15,22L16.5,20.5L18,22L19.5,20.5L21,22V2L19.5,3.5L18,2L16.5,3.5L15,2L13.5,3.5L12,2L10.5,3.5L9,2L7.5,3.5L6,2L4.5,3.5L3,2M18,9H6V7H18M18,13H6V11H18M18,17H6V15H18V17Z" />
    </g>
    <g id="mdi-receipt" transform="translate(612 144) scale(1.5)" fill="#fff">
      <path d="M3,22L4.5,20.5L6,22L7.5,20.5L9,22L10.5,20.5L12,22L13.5,20.5L15,22L16.5,20.5L18,22L19.5,20.5L21,22V2L19.5,3.5L18,2L16.5,3.5L15,2L13.5,3.5L12,2L10.5,3.5L9,2L7.5,3.5L6,2L4.5,3.5L3,2M18,9H6V7H18M18,13H6V11H18M18,17H6V15H18V17Z" />
    </g>
    <g id="mdi-record" transform="translate(648 144) scale(1.5)" fill="#555">
      <path d="M19,12C19,15.86 15.86,19 12,19C8.14,19 5,15.86 5,12C5,8.14 8.14,5 12,5C15.86,5 19,8.14 19,12Z" />
    </g>
    <g id="mdi-record" transform="translate(684 144) scale(1.5)" fill="#fff">
      <path d="M19,12C19,15.86 15.86,19 12,19C8.14,19 5,15.86 5,12C5,8.14 8.14,5 12,5C15.86,5 19,8.14 19,12Z" />
    </g>
    <g id="mdi-record-circle" transform="translate(0 180) scale(1.5)" fill="#555">
      <path d="M12,2A10,10 0 0,0 2,12A10,10 0 0,0 12,22A10,10 0 0,0 22,12A10,10 0 0,0 12,2M12,9A3,3 0 0,1 15,12A3,3 0 0,1 12,15A3,3 0 0,1 9,12A3,3 0 0,1 12,9Z" />
    </g>
    <g id="mdi-record-circle" transform="translate(36 180) scale(1.5)" fill="#fff">
      <path d="M12,2A10,10 0 0,0 2,12A10,10 0 0,0 12,22A10,10 0 0,0 22,12A10,10 0 0,0 12,2M12,9A3,3 0 0,1 15,12A3,3 0 0,1 12,15A3,3 0 0,1 9,12A3,3 0 0,1 12,9Z" />
    </g>
    <g id="mdi-record-circle-outline" transform="translate(72 180) scale(1.5)" fill="#555">
      <path d="M12,2A10,10 0 0,0 2,12A10,10 0 0,0 12,22A10,10 0 0,0 22,12A10,10 0 0,0 12,2M12,4A8,8 0 0,1 20,12A8,8 0 0,1 12,20A8,8 0 0,1 4,12A8,8 0 0,1 12,4M12,9A3,3 0 0,0 9,12A3,3 0 0,0 12,15A3,3 0 0,0 15,12A3,3 0 0,0 12,9Z" />
    </g>
    <g id="mdi-record-circle-outline" transform="translate(108 180) scale(1.5)" fill="#fff">
      <path d="M12,2A10,10 0 0,0 2,12A10,10 0 0,0 12,22A10,10 0 0,0 22,12A10,10 0 0,0 12,2M12,4A8,8 0 0,1 20,12A8,8 0 0,1 12,20A8,8 0 0,1 4,12A8,8 0 0,1 12,4M12,9A3,3 0 0,0 9,12A3,3 0 0,0 12,15A3,3 0 0,0 15,12A3,3 0 0,0 12,9Z" />
    </g>
    <g id="mdi-record-player" transform="translate(144 180) scale(1.5)" fill="#555">
      <path d="M5,17.5A0.5,0.5 0 0,1 4.5,18H3.5A0.5,0.5 0 0,1 3,17.5V17H2A1,1 0 0,1 1,16V13A1,1 0 0,1 2,12H19V10H7L6,11V9A1,1 0 0,1 7,8H19V7H21V8A1,1 0 0,1 22,9V10H21V12H22A1,1 0 0,1 23,13V16A1,1 0 0,1 22,17H21V17.5A0.5,0.5 0 0,1 20.5,18H19.5A0.5,0.5 0 0,1 19,17.5V17H5V17.5M3,14V15H5V14H3M6,14V15H8V14H6M20.5,13.5A1,1 0 0,0 19.5,14.5A1,1 0 0,0 20.5,15.5A1,1 0 0,0 21.5,14.5A1,1 0 0,0 20.5,13.5Z" />
    </g>
    <g id="mdi-record-player" transform="translate(180 180) scale(1.5)" fill="#fff">
      <path d="M5,17.5A0.5,0.5 0 0,1 4.5,18H3.5A0.5,0.5 0 0,1 3,17.5V17H2A1,1 0 0,1 1,16V13A1,1 0 0,1 2,12H19V10H7L6,11V9A1,1 0 0,1 7,8H19V7H21V8A1,1 0 0,1 22,9V10H21V12H22A1,1 0 0,1 23,13V16A1,1 0 0,1 22,17H21V17.5A0.5,0.5 0 0,1 20.5,18H19.5A0.5,0.5 0 0,1 19,17.5V17H5V17.5M3,14V15H5V14H3M6,14V15H8V14H6M20.5,13.5A1,1 0 0,0 19.5,14.5A1,1 0 0,0 20.5,15.5A1,1 0 0,0 21.5,14.5A1,1 0 0,0 20.5,13.5Z" />
    </g>
    <g id="mdi-record-rec" transform="translate(216 180) scale(1.5)" fill="#555">
      <path d="M12.5,5A7.5,7.5 0 0,0 5,12.5A7.5,7.5 0 0,0 12.5,20A7.5,7.5 0 0,0 20,12.5A7.5,7.5 0 0,0 12.5,5M7,10H9A1,1 0 0,1 10,11V12C10,12.5 9.62,12.9 9.14,12.97L10.31,15H9.15L8,13V15H7M12,10H14V11H12V12H14V13H12V14H14V15H12A1,1 0 0,1 11,14V11A1,1 0 0,1 12,10M16,10H18V11H16V14H18V15H16A1,1 0 0,1 15,14V11A1,1 0 0,1 16,10M8,11V12H9V11" />
    </g>
    <g id="mdi-record-rec" transform="translate(252 180) scale(1.5)" fill="#fff">
      <path d="M12.5,5A7.5,7.5 0 0,0 5,12.5A7.5,7.5 0 0,0 12.5,20A7.5,7.5 0 0,0 20,12.5A7.5,7.5 0 0,0 12.5,5M7,10H9A1,1 0 0,1 10,11V12C10,12.5 9.62,12.9 9.14,12.97L10.31,15H9.15L8,13V15H7M12,10H14V11H12V12H14V13H12V14H14V15H12A1,1 0 0,1 11,14V11A1,1 0 0,1 12,10M16,10H18V11H16V14H18V15H16A1,1 0 0,1 15,14V11A1,1 0 0,1 16,10M8,11V12H9V11" />
    </g>
    <g id="mdi-rectangle" transform="translate(288 180) scale(1.5)" fill="#555">
      <path d="M4,6V19H20V6H4Z" />
    </g>
    <g id="mdi-rectangle" transform="translate(324 180) scale(1.5)" fill="#fff">
      <path d="M4,6V19H20V6H4Z" />
    </g>
    <g id="mdi-rectangle-outline" transform="translate(360 180) scale(1.5)" fill="#555">
      <path d="M4,6V19H20V6H4M18,17H6V8H18V17Z" />
    </g>
    <g id="mdi-rectangle-outline" transform="translate(396 180) scale(1.5)" fill="#fff">
      <path d="M4,6V19H20V6H4M18,17H6V8H18V17Z" />
    </g>
    <g id="mdi-recycle" transform="translate(432 180) scale(1.5)" fill="#555">
      <path d="M21.82,15.42L19.32,19.75C18.83,20.61 17.92,21.06 17,21H15V23L12.5,18.5L15,14V16H17.82L15.6,12.15L19.93,9.65L21.73,12.77C22.25,13.54 22.32,14.57 21.82,15.42M9.21,3.06H14.21C15.19,3.06 16.04,3.63 16.45,4.45L17.45,6.19L19.18,5.19L16.54,9.6L11.39,9.69L13.12,8.69L11.71,6.24L9.5,10.09L5.16,7.59L6.96,4.47C7.37,3.64 8.22,3.06 9.21,3.06M5.05,19.76L2.55,15.43C2.06,14.58 2.13,13.56 2.64,12.79L3.64,11.06L1.91,10.06L7.05,10.14L9.7,14.56L7.97,13.56L6.56,16H11V21H7.4C6.47,21.07 5.55,20.61 5.05,19.76Z" />
    </g>
    <g id="mdi-recycle" transform="translate(468 180) scale(1.5)" fill="#fff">
      <path d="M21.82,15.42L19.32,19.75C18.83,20.61 17.92,21.06 17,21H15V23L12.5,18.5L15,14V16H17.82L15.6,12.15L19.93,9.65L21.73,12.77C22.25,13.54 22.32,14.57 21.82,15.42M9.21,3.06H14.21C15.19,3.06 16.04,3.63 16.45,4.45L17.45,6.19L19.18,5.19L16.54,9.6L11.39,9.69L13.12,8.69L11.71,6.24L9.5,10.09L5.16,7.59L6.96,4.47C7.37,3.64 8.22,3.06 9.21,3.06M5.05,19.76L2.55,15.43C2.06,14.58 2.13,13.56 2.64,12.79L3.64,11.06L1.91,10.06L7.05,10.14L9.7,14.56L7.97,13.56L6.56,16H11V21H7.4C6.47,21.07 5.55,20.61 5.05,19.76Z" />
    </g>
    <g id="mdi-recycle-variant" transform="translate(504 180) scale(1.5)" fill="#555">
      <path d="M7.17 7.91L8.9 8.91L12.08 3.42L14.33 7.31L11.73 8.81L17.19 10.27L18.66 4.81L16.06 6.31L13.81 2.41C13.26 1.45 12.03 1.12 11.08 1.68C10.81 1.83 10.58 2.05 10.41 2.31M10 20V18L3.66 18L5.9 14.1L8.5 15.6L7.04 10.14L1.57 11.6L4.17 13.1L1.92 17C1.37 17.96 1.7 19.18 2.65 19.73C2.92 19.89 3.22 19.97 3.54 20M19.06 11.5L17.32 12.5L20.5 18H16V15L12 19L16 23V20H20.5C21.61 20 22.5 19.11 22.5 18C22.5 17.69 22.42 17.38 22.28 17.11Z" />
    </g>
    <g id="mdi-recycle-variant" transform="translate(540 180) scale(1.5)" fill="#fff">
      <path d="M7.17 7.91L8.9 8.91L12.08 3.42L14.33 7.31L11.73 8.81L17.19 10.27L18.66 4.81L16.06 6.31L13.81 2.41C13.26 1.45 12.03 1.12 11.08 1.68C10.81 1.83 10.58 2.05 10.41 2.31M10 20V18L3.66 18L5.9 14.1L8.5 15.6L7.04 10.14L1.57 11.6L4.17 13.1L1.92 17C1.37 17.96 1.7 19.18 2.65 19.73C2.92 19.89 3.22 19.97 3.54 20M19.06 11.5L17.32 12.5L20.5 18H16V15L12 19L16 23V20H20.5C21.61 20 22.5 19.11 22.5 18C22.5 17.69 22.42 17.38 22.28 17.11Z" />
    </g>
    <g id="mdi-reddit" transform="translate(576 180) scale(1.5)" fill="#555">
      <path d="M14.5 15.41C14.58 15.5 14.58 15.69 14.5 15.8C13.77 16.5 12.41 16.56 12 16.56C11.61 16.56 10.25 16.5 9.54 15.8C9.44 15.69 9.44 15.5 9.54 15.41C9.65 15.31 9.82 15.31 9.92 15.41C10.38 15.87 11.33 16 12 16C12.69 16 13.66 15.87 14.1 15.41C14.21 15.31 14.38 15.31 14.5 15.41M10.75 13.04C10.75 12.47 10.28 12 9.71 12C9.14 12 8.67 12.47 8.67 13.04C8.67 13.61 9.14 14.09 9.71 14.08C10.28 14.08 10.75 13.61 10.75 13.04M14.29 12C13.72 12 13.25 12.5 13.25 13.05S13.72 14.09 14.29 14.09C14.86 14.09 15.33 13.61 15.33 13.05C15.33 12.5 14.86 12 14.29 12M22 12C22 17.5 17.5 22 12 22S2 17.5 2 12C2 6.5 6.5 2 12 2S22 6.5 22 12M18.67 12C18.67 11.19 18 10.54 17.22 10.54C16.82 10.54 16.46 10.7 16.2 10.95C15.2 10.23 13.83 9.77 12.3 9.71L12.97 6.58L15.14 7.05C15.16 7.6 15.62 8.04 16.18 8.04C16.75 8.04 17.22 7.57 17.22 7C17.22 6.43 16.75 5.96 16.18 5.96C15.77 5.96 15.41 6.2 15.25 6.55L12.82 6.03C12.75 6 12.68 6.03 12.63 6.07C12.57 6.11 12.54 6.17 12.53 6.24L11.79 9.72C10.24 9.77 8.84 10.23 7.82 10.96C7.56 10.71 7.2 10.56 6.81 10.56C6 10.56 5.35 11.21 5.35 12C5.35 12.61 5.71 13.11 6.21 13.34C6.19 13.5 6.18 13.62 6.18 13.78C6.18 16 8.79 17.85 12 17.85C15.23 17.85 17.85 16.03 17.85 13.78C17.85 13.64 17.84 13.5 17.81 13.34C18.31 13.11 18.67 12.6 18.67 12Z" />
    </g>
    <g id="mdi-reddit" transform="translate(612 180) scale(1.5)" fill="#fff">
      <path d="M14.5 15.41C14.58 15.5 14.58 15.69 14.5 15.8C13.77 16.5 12.41 16.56 12 16.56C11.61 16.56 10.25 16.5 9.54 15.8C9.44 15.69 9.44 15.5 9.54 15.41C9.65 15.31 9.82 15.31 9.92 15.41C10.38 15.87 11.33 16 12 16C12.69 16 13.66 15.87 14.1 15.41C14.21 15.31 14.38 15.31 14.5 15.41M10.75 13.04C10.75 12.47 10.28 12 9.71 12C9.14 12 8.67 12.47 8.67 13.04C8.67 13.61 9.14 14.09 9.71 14.08C10.28 14.08 10.75 13.61 10.75 13.04M14.29 12C13.72 12 13.25 12.5 13.25 13.05S13.72 14.09 14.29 14.09C14.86 14.09 15.33 13.61 15.33 13.05C15.33 12.5 14.86 12 14.29 12M22 12C22 17.5 17.5 22 12 22S2 17.5 2 12C2 6.5 6.5 2 12 2S22 6.5 22 12M18.67 12C18.67 11.19 18 10.54 17.22 10.54C16.82 10.54 16.46 10.7 16.2 10.95C15.2 10.23 13.83 9.77 12.3 9.71L12.97 6.58L15.14 7.05C15.16 7.6 15.62 8.04 16.18 8.04C16.75 8.04 17.22 7.57 17.22 7C17.22 6.43 16.75 5.96 16.18 5.96C15.77 5.96 15.41 6.2 15.25 6.55L12.82 6.03C12.75 6 12.68 6.03 12.63 6.07C12.57 6.11 12.54 6.17 12.53 6.24L11.79 9.72C10.24 9.77 8.84 10.23 7.82 10.96C7.56 10.71 7.2 10.56 6.81 10.56C6 10.56 5.35 11.21 5.35 12C5.35 12.61 5.71 13.11 6.21 13.34C6.19 13.5 6.18 13.62 6.18 13.78C6.18 16 8.79 17.85 12 17.85C15.23 17.85 17.85 16.03 17.85 13.78C17.85 13.64 17.84 13.5 17.81 13.34C18.31 13.11 18.67 12.6 18.67 12Z" />
    </g>
    <g id="mdi-redhat" transform="translate(648 180) scale(1.5)" fill="#555">
      <path d="M15.34 13.16C16.66 13.16 18.56 12.89 18.56 11.32C18.57 11.2 18.56 11.08 18.53 10.96L17.75 7.56C17.57 6.81 17.41 6.47 16.09 5.81C15.07 5.29 12.85 4.43 12.19 4.43C11.58 4.43 11.4 5.22 10.67 5.22C9.97 5.22 9.45 4.63 8.79 4.63C8.16 4.63 7.75 5.06 7.43 5.94C7.43 5.94 6.55 8.44 6.43 8.8C6.42 8.87 6.41 8.93 6.41 9C6.41 9.97 10.23 13.15 15.34 13.15M18.77 11.96C18.95 12.82 18.95 12.91 18.95 13C18.95 14.5 17.29 15.31 15.12 15.31C10.2 15.31 5.89 12.43 5.89 10.53C5.89 10.26 5.95 10 6.05 9.76C4.28 9.84 2 10.16 2 12.18C2 15.5 9.84 19.57 16.05 19.57C20.81 19.57 22 17.42 22 15.72C22 14.38 20.85 12.86 18.77 11.96" />
    </g>
    <g id="mdi-redhat" transform="translate(684 180) scale(1.5)" fill="#fff">
      <path d="M15.34 13.16C16.66 13.16 18.56 12.89 18.56 11.32C18.57 11.2 18.56 11.08 18.53 10.96L17.75 7.56C17.57 6.81 17.41 6.47 16.09 5.81C15.07 5.29 12.85 4.43 12.19 4.43C11.58 4.43 11.4 5.22 10.67 5.22C9.97 5.22 9.45 4.63 8.79 4.63C8.16 4.63 7.75 5.06 7.43 5.94C7.43 5.94 6.55 8.44 6.43 8.8C6.42 8.87 6.41 8.93 6.41 9C6.41 9.97 10.23 13.15 15.34 13.15M18.77 11.96C18.95 12.82 18.95 12.91 18.95 13C18.95 14.5 17.29 15.31 15.12 15.31C10.2 15.31 5.89 12.43 5.89 10.53C5.89 10.26 5.95 10 6.05 9.76C4.28 9.84 2 10.16 2 12.18C2 15.5 9.84 19.57 16.05 19.57C20.81 19.57 22 17.42 22 15.72C22 14.38 20.85 12.86 18.77 11.96" />
    </g>
    <g id="mdi-redo" transform="translate(0 216) scale(1.5)" fill="#555">
      <path d="M18.4,10.6C16.55,9 14.15,8 11.5,8C6.85,8 2.92,11.03 1.54,15.22L3.9,16C4.95,12.81 7.95,10.5 11.5,10.5C13.45,10.5 15.23,11.22 16.62,12.38L13,16H22V7L18.4,10.6Z" />
    </g>
    <g id="mdi-redo" transform="translate(36 216) scale(1.5)" fill="#fff">
      <path d="M18.4,10.6C16.55,9 14.15,8 11.5,8C6.85,8 2.92,11.03 1.54,15.22L3.9,16C4.95,12.81 7.95,10.5 11.5,10.5C13.45,10.5 15.23,11.22 16.62,12.38L13,16H22V7L18.4,10.6Z" />
    </g>
    <g id="mdi-redo-variant" transform="translate(72 216) scale(1.5)" fill="#555">
      <path d="M10.5,7A6.5,6.5 0 0,0 4,13.5A6.5,6.5 0 0,0 10.5,20H14V18H10.5C8,18 6,16 6,13.5C6,11 8,9 10.5,9H16.17L13.09,12.09L14.5,13.5L20,8L14.5,2.5L13.08,3.91L16.17,7H10.5M18,18H16V20H18V18Z" />
    </g>
    <g id="mdi-redo-variant" transform="translate(108 216) scale(1.5)" fill="#fff">
      <path d="M10.5,7A6.5,6.5 0 0,0 4,13.5A6.5,6.5 0 0,0 10.5,20H14V18H10.5C8,18 6,16 6,13.5C6,11 8,9 10.5,9H16.17L13.09,12.09L14.5,13.5L20,8L14.5,2.5L13.08,3.91L16.17,7H10.5M18,18H16V20H18V18Z" />
    </g>
    <g id="mdi-reflect-horizontal" transform="translate(144 216) scale(1.5)" fill="#555">
      <path d="M22,20H14A1,1 0 0,1 13,19V4.97C13,4.5 13.31,4.12 13.74,4C14.19,3.88 14.65,4.08 14.87,4.47L22.89,18.5C23.07,18.81 23.07,19.19 22.89,19.5C22.71,19.81 22.38,20 22,20M2,20C1.62,20 1.29,19.81 1.11,19.5C0.93,19.19 0.93,18.81 1.11,18.5L9.13,4.47C9.35,4.08 9.81,3.88 10.26,4C10.69,4.12 11,4.5 11,4.97V19A1,1 0 0,1 10,20H2M9,18V8.74L3.71,18H9Z" />
    </g>
    <g id="mdi-reflect-horizontal" transform="translate(180 216) scale(1.5)" fill="#fff">
      <path d="M22,20H14A1,1 0 0,1 13,19V4.97C13,4.5 13.31,4.12 13.74,4C14.19,3.88 14.65,4.08 14.87,4.47L22.89,18.5C23.07,18.81 23.07,19.19 22.89,19.5C22.71,19.81 22.38,20 22,20M2,20C1.62,20 1.29,19.81 1.11,19.5C0.93,19.19 0.93,18.81 1.11,18.5L9.13,4.47C9.35,4.08 9.81,3.88 10.26,4C10.69,4.12 11,4.5 11,4.97V19A1,1 0 0,1 10,20H2M9,18V8.74L3.71,18H9Z" />
    </g>
    <g id="mdi-reflect-vertical" transform="translate(216 216) scale(1.5)" fill="#555">
      <path d="M18,23H6C5.61,23 5.26,22.79 5.09,22.45C4.92,22.11 4.96,21.7 5.19,21.4L11.2,13.38C11.58,12.87 12.42,12.87 12.8,13.38L18.81,21.4C19.04,21.7 19.08,22.11 18.91,22.45C18.74,22.79 18.39,23 18,23M18,1C18.39,1 18.74,1.21 18.91,1.55C19.08,1.89 19.04,2.3 18.81,2.6L12.8,10.62C12.42,11.13 11.58,11.13 11.2,10.62L5.19,2.6C4.96,2.3 4.92,1.89 5.09,1.55C5.26,1.21 5.61,1 6,1H18M8,3L12,8.35L16,3H8Z" />
    </g>
    <g id="mdi-reflect-vertical" transform="translate(252 216) scale(1.5)" fill="#fff">
      <path d="M18,23H6C5.61,23 5.26,22.79 5.09,22.45C4.92,22.11 4.96,21.7 5.19,21.4L11.2,13.38C11.58,12.87 12.42,12.87 12.8,13.38L18.81,21.4C19.04,21.7 19.08,22.11 18.91,22.45C18.74,22.79 18.39,23 18,23M18,1C18.39,1 18.74,1.21 18.91,1.55C19.08,1.89 19.04,2.3 18.81,2.6L12.8,10.62C12.42,11.13 11.58,11.13 11.2,10.62L5.19,2.6C4.96,2.3 4.92,1.89 5.09,1.55C5.26,1.21 5.61,1 6,1H18M8,3L12,8.35L16,3H8Z" />
    </g>
    <g id="mdi-refresh" transform="translate(288 216) scale(1.5)" fill="#555">
      <path d="M17.65,6.35C16.2,4.9 14.21,4 12,4A8,8 0 0,0 4,12A8,8 0 0,0 12,20C15.73,20 18.84,17.45 19.73,14H17.65C16.83,16.33 14.61,18 12,18A6,6 0 0,1 6,12A6,6 0 0,1 12,6C13.66,6 15.14,6.69 16.22,7.78L13,11H20V4L17.65,6.35Z" />
    </g>
    <g id="mdi-refresh" transform="translate(324 216) scale(1.5)" fill="#fff">
      <path d="M17.65,6.35C16.2,4.9 14.21,4 12,4A8,8 0 0,0 4,12A8,8 0 0,0 12,20C15.73,20 18.84,17.45 19.73,14H17.65C16.83,16.33 14.61,18 12,18A6,6 0 0,1 6,12A6,6 0 0,1 12,6C13.66,6 15.14,6.69 16.22,7.78L13,11H20V4L17.65,6.35Z" />
    </g>
    <g id="mdi-refresh-circle" transform="translate(360 216) scale(1.5)" fill="#555">
      <path d="M12 2A10 10 0 1 0 22 12A10 10 0 0 0 12 2M18 11H13L14.81 9.19A3.94 3.94 0 0 0 12 8A4 4 0 1 0 15.86 13H17.91A6 6 0 1 1 12 6A5.91 5.91 0 0 1 16.22 7.78L18 6Z" />
    </g>
    <g id="mdi-refresh-circle" transform="translate(396 216) scale(1.5)" fill="#fff">
      <path d="M12 2A10 10 0 1 0 22 12A10 10 0 0 0 12 2M18 11H13L14.81 9.19A3.94 3.94 0 0 0 12 8A4 4 0 1 0 15.86 13H17.91A6 6 0 1 1 12 6A5.91 5.91 0 0 1 16.22 7.78L18 6Z" />
    </g>
    <g id="mdi-regex" transform="translate(432 216) scale(1.5)" fill="#555">
      <path d="M16,16.92C15.67,16.97 15.34,17 15,17C14.66,17 14.33,16.97 14,16.92V13.41L11.5,15.89C11,15.5 10.5,15 10.11,14.5L12.59,12H9.08C9.03,11.67 9,11.34 9,11C9,10.66 9.03,10.33 9.08,10H12.59L10.11,7.5C10.3,7.25 10.5,7 10.76,6.76V6.76C11,6.5 11.25,6.3 11.5,6.11L14,8.59V5.08C14.33,5.03 14.66,5 15,5C15.34,5 15.67,5.03 16,5.08V8.59L18.5,6.11C19,6.5 19.5,7 19.89,7.5L17.41,10H20.92C20.97,10.33 21,10.66 21,11C21,11.34 20.97,11.67 20.92,12H17.41L19.89,14.5C19.7,14.75 19.5,15 19.24,15.24V15.24C19,15.5 18.75,15.7 18.5,15.89L16,13.41V16.92H16V16.92M5,19A2,2 0 0,1 7,17A2,2 0 0,1 9,19A2,2 0 0,1 7,21A2,2 0 0,1 5,19H5Z" />
    </g>
    <g id="mdi-regex" transform="translate(468 216) scale(1.5)" fill="#fff">
      <path d="M16,16.92C15.67,16.97 15.34,17 15,17C14.66,17 14.33,16.97 14,16.92V13.41L11.5,15.89C11,15.5 10.5,15 10.11,14.5L12.59,12H9.08C9.03,11.67 9,11.34 9,11C9,10.66 9.03,10.33 9.08,10H12.59L10.11,7.5C10.3,7.25 10.5,7 10.76,6.76V6.76C11,6.5 11.25,6.3 11.5,6.11L14,8.59V5.08C14.33,5.03 14.66,5 15,5C15.34,5 15.67,5.03 16,5.08V8.59L18.5,6.11C19,6.5 19.5,7 19.89,7.5L17.41,10H20.92C20.97,10.33 21,10.66 21,11C21,11.34 20.97,11.67 20.92,12H17.41L19.89,14.5C19.7,14.75 19.5,15 19.24,15.24V15.24C19,15.5 18.75,15.7 18.5,15.89L16,13.41V16.92H16V16.92M5,19A2,2 0 0,1 7,17A2,2 0 0,1 9,19A2,2 0 0,1 7,21A2,2 0 0,1 5,19H5Z" />
    </g>
    <g id="mdi-registered-trademark" transform="translate(504 216) scale(1.5)" fill="#555">
      <path d="M12,2A10,10 0 0,0 2,12A10,10 0 0,0 12,22A10,10 0 0,0 22,12A10,10 0 0,0 12,2M12,20C7.59,20 4,16.41 4,12C4,7.59 7.59,4 12,4C16.41,4 20,7.59 20,12C20,16.41 16.41,20 12,20M12.25,13.27H10.81V16.5H9V7.71H12.26C13.29,7.71 14.09,7.94 14.66,8.4C15.22,8.87 15.5,9.5 15.5,10.36C15.5,10.96 15.37,11.46 15.11,11.86C14.85,12.26 14.46,12.58 13.93,12.81L15.83,16.4V16.5H13.89L12.25,13.27M10.81,11.81H12.27C12.72,11.81 13.07,11.69 13.32,11.46C13.57,11.23 13.69,10.91 13.69,10.5C13.69,10.09 13.58,9.77 13.34,9.53C13.11,9.29 12.75,9.18 12.26,9.18H10.81V11.81Z" />
    </g>
    <g id="mdi-registered-trademark" transform="translate(540 216) scale(1.5)" fill="#fff">
      <path d="M12,2A10,10 0 0,0 2,12A10,10 0 0,0 12,22A10,10 0 0,0 22,12A10,10 0 0,0 12,2M12,20C7.59,20 4,16.41 4,12C4,7.59 7.59,4 12,4C16.41,4 20,7.59 20,12C20,16.41 16.41,20 12,20M12.25,13.27H10.81V16.5H9V7.71H12.26C13.29,7.71 14.09,7.94 14.66,8.4C15.22,8.87 15.5,9.5 15.5,10.36C15.5,10.96 15.37,11.46 15.11,11.86C14.85,12.26 14.46,12.58 13.93,12.81L15.83,16.4V16.5H13.89L12.25,13.27M10.81,11.81H12.27C12.72,11.81 13.07,11.69 13.32,11.46C13.57,11.23 13.69,10.91 13.69,10.5C13.69,10.09 13.58,9.77 13.34,9.53C13.11,9.29 12.75,9.18 12.26,9.18H10.81V11.81Z" />
    </g>
    <g id="mdi-reiterate" transform="translate(576 216) scale(1.5)" fill="#555">
      <path d="M10.5 4A6.5 6.5 0 0 0 4 10H1L5 14L9 10H6.03A4.5 4.5 0 0 1 10.5 6A4.5 4.5 0 0 1 15 10.5A4.5 4.5 0 0 1 10.5 15H2V17H10.5A6.5 6.5 0 0 0 17 10.5A6.5 6.5 0 0 0 10.5 4M19 12V15H16.5A7.5 7.5 0 0 1 14.24 17H19V20L23 16Z" />
    </g>
    <g id="mdi-reiterate" transform="translate(612 216) scale(1.5)" fill="#fff">
      <path d="M10.5 4A6.5 6.5 0 0 0 4 10H1L5 14L9 10H6.03A4.5 4.5 0 0 1 10.5 6A4.5 4.5 0 0 1 15 10.5A4.5 4.5 0 0 1 10.5 15H2V17H10.5A6.5 6.5 0 0 0 17 10.5A6.5 6.5 0 0 0 10.5 4M19 12V15H16.5A7.5 7.5 0 0 1 14.24 17H19V20L23 16Z" />
    </g>
    <g id="mdi-relation-many-to-many" transform="translate(648 216) scale(1.5)" fill="#555">
      <path d="M22 13V19H21L19 17H11V9H5L3 11H2V5H3L5 7H13V15H19L21 13Z" />
    </g>
    <g id="mdi-relation-many-to-many" transform="translate(684 216) scale(1.5)" fill="#fff">
      <path d="M22 13V19H21L19 17H11V9H5L3 11H2V5H3L5 7H13V15H19L21 13Z" />
    </g>
    <g id="mdi-relation-many-to-one" transform="translate(0 252) scale(1.5)" fill="#555">
      <path d="M22 15V17H19V19H17V17H11V9H5L3 11H2V5H3L5 7H13V15H17V13H19V15Z" />
    </g>
    <g id="mdi-relation-many-to-one" transform="translate(36 252) scale(1.5)" fill="#fff">
      <path d="M22 15V17H19V19H17V17H11V9H5L3 11H2V5H3L5 7H13V15H17V13H19V15Z" />
    </g>
    <g id="mdi-relation-many-to-one-or-many" transform="translate(72 252) scale(1.5)" fill="#555">
      <path d="M22 13V19H21L19 17V19H17V17H11V9H5L3 11H2V5H3L5 7H13V15H17V13H19V15L21 13Z" />
    </g>
    <g id="mdi-relation-many-to-one-or-many" transform="translate(108 252) scale(1.5)" fill="#fff">
      <path d="M22 13V19H21L19 17V19H17V17H11V9H5L3 11H2V5H3L5 7H13V15H17V13H19V15L21 13Z" />
    </g>
    <g id="mdi-relation-many-to-only-one" transform="translate(144 252) scale(1.5)" fill="#555">
      <path d="M22 15V17H21V19H19V17H18V19H16V17H11V9H5L3 11H2V5H3L5 7H13V15H16V13H18V15H19V13H21V15Z" />
    </g>
    <g id="mdi-relation-many-to-only-one" transform="translate(180 252) scale(1.5)" fill="#fff">
      <path d="M22 15V17H21V19H19V17H18V19H16V17H11V9H5L3 11H2V5H3L5 7H13V15H16V13H18V15H19V13H21V15Z" />
    </g>
    <g id="mdi-relation-many-to-zero-or-many" transform="translate(216 252) scale(1.5)" fill="#555">
      <path d="M21 13L19 15H18.79A2.5 2.5 0 0 0 14.21 15H13V7H5L3 5H2V11H3L5 9H11V17H14.21A2.5 2.5 0 0 0 18.79 17H19L21 19H22V13M16.5 17A1 1 0 1 1 17.5 16A1 1 0 0 1 16.5 17Z" />
    </g>
    <g id="mdi-relation-many-to-zero-or-many" transform="translate(252 252) scale(1.5)" fill="#fff">
      <path d="M21 13L19 15H18.79A2.5 2.5 0 0 0 14.21 15H13V7H5L3 5H2V11H3L5 9H11V17H14.21A2.5 2.5 0 0 0 18.79 17H19L21 19H22V13M16.5 17A1 1 0 1 1 17.5 16A1 1 0 0 1 16.5 17Z" />
    </g>
    <g id="mdi-relation-many-to-zero-or-one" transform="translate(288 252) scale(1.5)" fill="#555">
      <path d="M21 15V13H19V15H18.79A2.5 2.5 0 0 0 14.21 15H13V7H5L3 5H2V11H3L5 9H11V17H14.21A2.5 2.5 0 0 0 18.79 17H19V19H21V17H22V15M16.5 17A1 1 0 1 1 17.5 16A1 1 0 0 1 16.5 17Z" />
    </g>
    <g id="mdi-relation-many-to-zero-or-one" transform="translate(324 252) scale(1.5)" fill="#fff">
      <path d="M21 15V13H19V15H18.79A2.5 2.5 0 0 0 14.21 15H13V7H5L3 5H2V11H3L5 9H11V17H14.21A2.5 2.5 0 0 0 18.79 17H19V19H21V17H22V15M16.5 17A1 1 0 1 1 17.5 16A1 1 0 0 1 16.5 17Z" />
    </g>
    <g id="mdi-relation-one-or-many-to-many" transform="translate(360 252) scale(1.5)" fill="#555">
      <path d="M22 13V19H21L19 17H11V9H7V11H5V9L3 11H2V5H3L5 7V5H7V7H13V15H19L21 13Z" />
    </g>
    <g id="mdi-relation-one-or-many-to-many" transform="translate(396 252) scale(1.5)" fill="#fff">
      <path d="M22 13V19H21L19 17H11V9H7V11H5V9L3 11H2V5H3L5 7V5H7V7H13V15H19L21 13Z" />
    </g>
    <g id="mdi-relation-one-or-many-to-one" transform="translate(432 252) scale(1.5)" fill="#555">
      <path d="M22 15V17H19V19H17V17H11V9H7V11H5V9L3 11H2V5H3L5 7V5H7V7H13V15H17V13H19V15Z" />
    </g>
    <g id="mdi-relation-one-or-many-to-one" transform="translate(468 252) scale(1.5)" fill="#fff">
      <path d="M22 15V17H19V19H17V17H11V9H7V11H5V9L3 11H2V5H3L5 7V5H7V7H13V15H17V13H19V15Z" />
    </g>
    <g id="mdi-relation-one-or-many-to-one-or-many" transform="translate(504 252) scale(1.5)" fill="#555">
      <path d="M22 13V19H21L19 17V19H17V17H11V9H7V11H5V9L3 11H2V5H3L5 7V5H7V7H13V15H17V13H19V15L21 13Z" />
    </g>
    <g id="mdi-relation-one-or-many-to-one-or-many" transform="translate(540 252) scale(1.5)" fill="#fff">
      <path d="M22 13V19H21L19 17V19H17V17H11V9H7V11H5V9L3 11H2V5H3L5 7V5H7V7H13V15H17V13H19V15L21 13Z" />
    </g>
    <g id="mdi-relation-one-or-many-to-only-one" transform="translate(576 252) scale(1.5)" fill="#555">
      <path d="M22 15V17H21V19H19V17H18V19H16V17H11V9H7V11H5V9L3 11H2V5H3L5 7V5H7V7H13V15H16V13H18V15H19V13H21V15Z" />
    </g>
    <g id="mdi-relation-one-or-many-to-only-one" transform="translate(612 252) scale(1.5)" fill="#fff">
      <path d="M22 15V17H21V19H19V17H18V19H16V17H11V9H7V11H5V9L3 11H2V5H3L5 7V5H7V7H13V15H16V13H18V15H19V13H21V15Z" />
    </g>
    <g id="mdi-relation-one-or-many-to-zero-or-many" transform="translate(648 252) scale(1.5)" fill="#555">
      <path d="M21 13L19 15H18.79A2.5 2.5 0 0 0 14.21 15H13V7H7V5H5V7L3 5H2V11H3L5 9V11H7V9H11V17H14.21A2.5 2.5 0 0 0 18.79 17H19L21 19H22V13M16.5 17A1 1 0 1 1 17.5 16A1 1 0 0 1 16.5 17Z" />
    </g>
    <g id="mdi-relation-one-or-many-to-zero-or-many" transform="translate(684 252) scale(1.5)" fill="#fff">
      <path d="M21 13L19 15H18.79A2.5 2.5 0 0 0 14.21 15H13V7H7V5H5V7L3 5H2V11H3L5 9V11H7V9H11V17H14.21A2.5 2.5 0 0 0 18.79 17H19L21 19H22V13M16.5 17A1 1 0 1 1 17.5 16A1 1 0 0 1 16.5 17Z" />
    </g>
    <g id="mdi-relation-one-or-many-to-zero-or-one" transform="translate(0 288) scale(1.5)" fill="#555">
      <path d="M21 15V13H19V15H18.79A2.5 2.5 0 0 0 14.21 15H13V7H7V5H5V7L3 5H2V11H3L5 9V11H7V9H11V17H14.21A2.5 2.5 0 0 0 18.79 17H19V19H21V17H22V15M16.5 17A1 1 0 1 1 17.5 16A1 1 0 0 1 16.5 17Z" />
    </g>
    <g id="mdi-relation-one-or-many-to-zero-or-one" transform="translate(36 288) scale(1.5)" fill="#fff">
      <path d="M21 15V13H19V15H18.79A2.5 2.5 0 0 0 14.21 15H13V7H7V5H5V7L3 5H2V11H3L5 9V11H7V9H11V17H14.21A2.5 2.5 0 0 0 18.79 17H19V19H21V17H22V15M16.5 17A1 1 0 1 1 17.5 16A1 1 0 0 1 16.5 17Z" />
    </g>
    <g id="mdi-relation-one-to-many" transform="translate(72 288) scale(1.5)" fill="#555">
      <path d="M22 13V19H21L19 17H11V9H7V11H5V9H2V7H5V5H7V7H13V15H19L21 13Z" />
    </g>
    <g id="mdi-relation-one-to-many" transform="translate(108 288) scale(1.5)" fill="#fff">
      <path d="M22 13V19H21L19 17H11V9H7V11H5V9H2V7H5V5H7V7H13V15H19L21 13Z" />
    </g>
    <g id="mdi-relation-one-to-one" transform="translate(144 288) scale(1.5)" fill="#555">
      <path d="M22 15V17H19V19H17V17H11V9H7V11H5V9H2V7H5V5H7V7H13V15H17V13H19V15Z" />
    </g>
    <g id="mdi-relation-one-to-one" transform="translate(180 288) scale(1.5)" fill="#fff">
      <path d="M22 15V17H19V19H17V17H11V9H7V11H5V9H2V7H5V5H7V7H13V15H17V13H19V15Z" />
    </g>
    <g id="mdi-relation-one-to-one-or-many" transform="translate(216 288) scale(1.5)" fill="#555">
      <path d="M22 13V19H21L19 17V19H17V17H11V9H7V11H5V9H2V7H5V5H7V7H13V15H17V13H19V15L21 13Z" />
    </g>
    <g id="mdi-relation-one-to-one-or-many" transform="translate(252 288) scale(1.5)" fill="#fff">
      <path d="M22 13V19H21L19 17V19H17V17H11V9H7V11H5V9H2V7H5V5H7V7H13V15H17V13H19V15L21 13Z" />
    </g>
    <g id="mdi-relation-one-to-only-one" transform="translate(288 288) scale(1.5)" fill="#555">
      <path d="M22 15V17H21V19H19V17H18V19H16V17H11V9H7V11H5V9H2V7H5V5H7V7H13V15H16V13H18V15H19V13H21V15Z" />
    </g>
    <g id="mdi-relation-one-to-only-one" transform="translate(324 288) scale(1.5)" fill="#fff">
      <path d="M22 15V17H21V19H19V17H18V19H16V17H11V9H7V11H5V9H2V7H5V5H7V7H13V15H16V13H18V15H19V13H21V15Z" />
    </g>
    <g id="mdi-relation-one-to-zero-or-many" transform="translate(360 288) scale(1.5)" fill="#555">
      <path d="M21 13L19 15H18.79A2.5 2.5 0 0 0 14.21 15H13V7H7V5H5V7H2V9H5V11H7V9H11V17H14.21A2.5 2.5 0 0 0 18.79 17H19L21 19H22V13M16.5 17A1 1 0 1 1 17.5 16A1 1 0 0 1 16.5 17Z" />
    </g>
    <g id="mdi-relation-one-to-zero-or-many" transform="translate(396 288) scale(1.5)" fill="#fff">
      <path d="M21 13L19 15H18.79A2.5 2.5 0 0 0 14.21 15H13V7H7V5H5V7H2V9H5V11H7V9H11V17H14.21A2.5 2.5 0 0 0 18.79 17H19L21 19H22V13M16.5 17A1 1 0 1 1 17.5 16A1 1 0 0 1 16.5 17Z" />
    </g>
    <g id="mdi-relation-one-to-zero-or-one" transform="translate(432 288) scale(1.5)" fill="#555">
      <path d="M21 15V13H19V15H18.79A2.5 2.5 0 0 0 14.21 15H13V7H7V5H5V7H2V9H5V11H7V9H11V17H14.21A2.5 2.5 0 0 0 18.79 17H19V19H21V17H22V15M16.5 17A1 1 0 1 1 17.5 16A1 1 0 0 1 16.5 17Z" />
    </g>
    <g id="mdi-relation-one-to-zero-or-one" transform="translate(468 288) scale(1.5)" fill="#fff">
      <path d="M21 15V13H19V15H18.79A2.5 2.5 0 0 0 14.21 15H13V7H7V5H5V7H2V9H5V11H7V9H11V17H14.21A2.5 2.5 0 0 0 18.79 17H19V19H21V17H22V15M16.5 17A1 1 0 1 1 17.5 16A1 1 0 0 1 16.5 17Z" />
    </g>
    <g id="mdi-relation-only-one-to-many" transform="translate(504 288) scale(1.5)" fill="#555">
      <path d="M22 13V19H21L19 17H11V9H8V11H6V9H5V11H3V9H2V7H3V5H5V7H6V5H8V7H13V15H19L21 13Z" />
    </g>
    <g id="mdi-relation-only-one-to-many" transform="translate(540 288) scale(1.5)" fill="#fff">
      <path d="M22 13V19H21L19 17H11V9H8V11H6V9H5V11H3V9H2V7H3V5H5V7H6V5H8V7H13V15H19L21 13Z" />
    </g>
    <g id="mdi-relation-only-one-to-one" transform="translate(576 288) scale(1.5)" fill="#555">
      <path d="M22 15V17H19V19H17V17H11V9H8V11H6V9H5V11H3V9H2V7H3V5H5V7H6V5H8V7H13V15H17V13H19V15Z" />
    </g>
    <g id="mdi-relation-only-one-to-one" transform="translate(612 288) scale(1.5)" fill="#fff">
      <path d="M22 15V17H19V19H17V17H11V9H8V11H6V9H5V11H3V9H2V7H3V5H5V7H6V5H8V7H13V15H17V13H19V15Z" />
    </g>
    <g id="mdi-relation-only-one-to-one-or-many" transform="translate(648 288) scale(1.5)" fill="#555">
      <path d="M22 13V19H21L19 17V19H17V17H11V9H8V11H6V9H5V11H3V9H2V7H3V5H5V7H6V5H8V7H13V15H17V13H19V15L21 13Z" />
    </g>
    <g id="mdi-relation-only-one-to-one-or-many" transform="translate(684 288) scale(1.5)" fill="#fff">
      <path d="M22 13V19H21L19 17V19H17V17H11V9H8V11H6V9H5V11H3V9H2V7H3V5H5V7H6V5H8V7H13V15H17V13H19V15L21 13Z" />
    </g>
    <g id="mdi-relation-only-one-to-only-one" transform="translate(0 324) scale(1.5)" fill="#555">
      <path d="M22 15V17H21V19H19V17H18V19H16V17H11V9H8V11H6V9H5V11H3V9H2V7H3V5H5V7H6V5H8V7H13V15H16V13H18V15H19V13H21V15Z" />
    </g>
    <g id="mdi-relation-only-one-to-only-one" transform="translate(36 324) scale(1.5)" fill="#fff">
      <path d="M22 15V17H21V19H19V17H18V19H16V17H11V9H8V11H6V9H5V11H3V9H2V7H3V5H5V7H6V5H8V7H13V15H16V13H18V15H19V13H21V15Z" />
    </g>
    <g id="mdi-relation-only-one-to-zero-or-many" transform="translate(72 324) scale(1.5)" fill="#555">
      <path d="M21 13L19 15H18.79A2.5 2.5 0 0 0 14.21 15H13V7H8V5H6V7H5V5H3V7H2V9H3V11H5V9H6V11H8V9H11V17H14.21A2.5 2.5 0 0 0 18.79 17H19L21 19H22V13M16.5 17A1 1 0 1 1 17.5 16A1 1 0 0 1 16.5 17Z" />
    </g>
    <g id="mdi-relation-only-one-to-zero-or-many" transform="translate(108 324) scale(1.5)" fill="#fff">
      <path d="M21 13L19 15H18.79A2.5 2.5 0 0 0 14.21 15H13V7H8V5H6V7H5V5H3V7H2V9H3V11H5V9H6V11H8V9H11V17H14.21A2.5 2.5 0 0 0 18.79 17H19L21 19H22V13M16.5 17A1 1 0 1 1 17.5 16A1 1 0 0 1 16.5 17Z" />
    </g>
    <g id="mdi-relation-only-one-to-zero-or-one" transform="translate(144 324) scale(1.5)" fill="#555">
      <path d="M21 15V13H19V15H18.79A2.5 2.5 0 0 0 14.21 15H13V7H8V5H6V7H5V5H3V7H2V9H3V11H5V9H6V11H8V9H11V17H14.21A2.5 2.5 0 0 0 18.79 17H19V19H21V17H22V15M16.5 17A1 1 0 1 1 17.5 16A1 1 0 0 1 16.5 17Z" />
    </g>
    <g id="mdi-relation-only-one-to-zero-or-one" transform="translate(180 324) scale(1.5)" fill="#fff">
      <path d="M21 15V13H19V15H18.79A2.5 2.5 0 0 0 14.21 15H13V7H8V5H6V7H5V5H3V7H2V9H3V11H5V9H6V11H8V9H11V17H14.21A2.5 2.5 0 0 0 18.79 17H19V19H21V17H22V15M16.5 17A1 1 0 1 1 17.5 16A1 1 0 0 1 16.5 17Z" />
    </g>
    <g id="mdi-relation-zero-or-many-to-many" transform="translate(216 324) scale(1.5)" fill="#555">
      <path d="M21 13L19 15H13V7H9.79A2.5 2.5 0 0 0 5.21 7H5L3 5H2V11H3L5 9H5.21A2.5 2.5 0 0 0 9.79 9H11V17H19L21 19H22V13M7.5 9A1 1 0 1 1 8.5 8A1 1 0 0 1 7.5 9Z" />
    </g>
    <g id="mdi-relation-zero-or-many-to-many" transform="translate(252 324) scale(1.5)" fill="#fff">
      <path d="M21 13L19 15H13V7H9.79A2.5 2.5 0 0 0 5.21 7H5L3 5H2V11H3L5 9H5.21A2.5 2.5 0 0 0 9.79 9H11V17H19L21 19H22V13M7.5 9A1 1 0 1 1 8.5 8A1 1 0 0 1 7.5 9Z" />
    </g>
    <g id="mdi-relation-zero-or-many-to-one" transform="translate(288 324) scale(1.5)" fill="#555">
      <path d="M19 15V13H17V15H13V7H9.79A2.5 2.5 0 0 0 5.21 7H5L3 5H2V11H3L5 9H5.21A2.5 2.5 0 0 0 9.79 9H11V17H17V19H19V17H22V15M7.5 9A1 1 0 1 1 8.5 8A1 1 0 0 1 7.5 9Z" />
    </g>
    <g id="mdi-relation-zero-or-many-to-one" transform="translate(324 324) scale(1.5)" fill="#fff">
      <path d="M19 15V13H17V15H13V7H9.79A2.5 2.5 0 0 0 5.21 7H5L3 5H2V11H3L5 9H5.21A2.5 2.5 0 0 0 9.79 9H11V17H17V19H19V17H22V15M7.5 9A1 1 0 1 1 8.5 8A1 1 0 0 1 7.5 9Z" />
    </g>
    <g id="mdi-relation-zero-or-many-to-one-or-many" transform="translate(360 324) scale(1.5)" fill="#555">
      <path d="M21 13L19 15V13H17V15H13V7H9.79A2.5 2.5 0 0 0 5.21 7H5L3 5H2V11H3L5 9H5.21A2.5 2.5 0 0 0 9.79 9H11V17H17V19H19V17L21 19H22V13M7.5 9A1 1 0 1 1 8.5 8A1 1 0 0 1 7.5 9Z" />
    </g>
    <g id="mdi-relation-zero-or-many-to-one-or-many" transform="translate(396 324) scale(1.5)" fill="#fff">
      <path d="M21 13L19 15V13H17V15H13V7H9.79A2.5 2.5 0 0 0 5.21 7H5L3 5H2V11H3L5 9H5.21A2.5 2.5 0 0 0 9.79 9H11V17H17V19H19V17L21 19H22V13M7.5 9A1 1 0 1 1 8.5 8A1 1 0 0 1 7.5 9Z" />
    </g>
    <g id="mdi-relation-zero-or-many-to-only-one" transform="translate(432 324) scale(1.5)" fill="#555">
      <path d="M21 15V13H19V15H18V13H16V15H13V7H9.79A2.5 2.5 0 0 0 5.21 7H5L3 5H2V11H3L5 9H5.21A2.5 2.5 0 0 0 9.79 9H11V17H16V19H18V17H19V19H21V17H22V15M7.5 9A1 1 0 1 1 8.5 8A1 1 0 0 1 7.5 9Z" />
    </g>
    <g id="mdi-relation-zero-or-many-to-only-one" transform="translate(468 324) scale(1.5)" fill="#fff">
      <path d="M21 15V13H19V15H18V13H16V15H13V7H9.79A2.5 2.5 0 0 0 5.21 7H5L3 5H2V11H3L5 9H5.21A2.5 2.5 0 0 0 9.79 9H11V17H16V19H18V17H19V19H21V17H22V15M7.5 9A1 1 0 1 1 8.5 8A1 1 0 0 1 7.5 9Z" />
    </g>
    <g id="mdi-relation-zero-or-many-to-zero-or-many" transform="translate(504 324) scale(1.5)" fill="#555">
      <path d="M21 13L19 15H18.79A2.5 2.5 0 0 0 14.21 15H13V7H9.79A2.5 2.5 0 0 0 5.21 7H5L3 5H2V11H3L5 9H5.21A2.5 2.5 0 0 0 9.79 9H11V17H14.21A2.5 2.5 0 0 0 18.79 17H19L21 19H22V13M7.5 9A1 1 0 1 1 8.5 8A1 1 0 0 1 7.5 9M16.5 17A1 1 0 1 1 17.5 16A1 1 0 0 1 16.5 17Z" />
    </g>
    <g id="mdi-relation-zero-or-many-to-zero-or-many" transform="translate(540 324) scale(1.5)" fill="#fff">
      <path d="M21 13L19 15H18.79A2.5 2.5 0 0 0 14.21 15H13V7H9.79A2.5 2.5 0 0 0 5.21 7H5L3 5H2V11H3L5 9H5.21A2.5 2.5 0 0 0 9.79 9H11V17H14.21A2.5 2.5 0 0 0 18.79 17H19L21 19H22V13M7.5 9A1 1 0 1 1 8.5 8A1 1 0 0 1 7.5 9M16.5 17A1 1 0 1 1 17.5 16A1 1 0 0 1 16.5 17Z" />
    </g>
    <g id="mdi-relation-zero-or-many-to-zero-or-one" transform="translate(576 324) scale(1.5)" fill="#555">
      <path d="M21 15V13H19V15H18.79A2.5 2.5 0 0 0 14.21 15H13V7H9.79A2.5 2.5 0 0 0 5.21 7H5L3 5H2V11H3L5 9H5.21A2.5 2.5 0 0 0 9.79 9H11V17H14.21A2.5 2.5 0 0 0 18.79 17H19V19H21V17H22V15M7.5 9A1 1 0 1 1 8.5 8A1 1 0 0 1 7.5 9M16.5 17A1 1 0 1 1 17.5 16A1 1 0 0 1 16.5 17Z" />
    </g>
    <g id="mdi-relation-zero-or-many-to-zero-or-one" transform="translate(612 324) scale(1.5)" fill="#fff">
      <path d="M21 15V13H19V15H18.79A2.5 2.5 0 0 0 14.21 15H13V7H9.79A2.5 2.5 0 0 0 5.21 7H5L3 5H2V11H3L5 9H5.21A2.5 2.5 0 0 0 9.79 9H11V17H14.21A2.5 2.5 0 0 0 18.79 17H19V19H21V17H22V15M7.5 9A1 1 0 1 1 8.5 8A1 1 0 0 1 7.5 9M16.5 17A1 1 0 1 1 17.5 16A1 1 0 0 1 16.5 17Z" />
    </g>
    <g id="mdi-relation-zero-or-one-to-many" transform="translate(648 324) scale(1.5)" fill="#555">
      <path d="M21 13L19 15H13V7H9.79A2.5 2.5 0 0 0 5.21 7H5V5H3V7H2V9H3V11H5V9H5.21A2.5 2.5 0 0 0 9.79 9H11V17H19L21 19H22V13M7.5 9A1 1 0 1 1 8.5 8A1 1 0 0 1 7.5 9Z" />
    </g>
    <g id="mdi-relation-zero-or-one-to-many" transform="translate(684 324) scale(1.5)" fill="#fff">
      <path d="M21 13L19 15H13V7H9.79A2.5 2.5 0 0 0 5.21 7H5V5H3V7H2V9H3V11H5V9H5.21A2.5 2.5 0 0 0 9.79 9H11V17H19L21 19H22V13M7.5 9A1 1 0 1 1 8.5 8A1 1 0 0 1 7.5 9Z" />
    </g>
  </svg>