<?xml version="1.0" encoding="UTF-8"?>
<!DOCTYPE svg PUBLIC "-//W3C//DTD SVG 1.1//EN" "http://www.w3.org/Graphics/SVG/1.1/DTD/svg11.dtd"><svg
  xmlns="http://www.w3.org/2000/svg" xmlns:xlink="http://www.w3.org/1999/xlink" version="1.1"
  width="720" height="900" viewBox="0 0 720 900">
    <g id="mdi-folder-heart" transform="translate(0 0) scale(1.5)" fill="#555">
      <path d="M20 6H12L10 4H4C2.89 4 2 4.89 2 6V18C2 19.1 2.89 20 4 20H20C21.1 20 22 19.1 22 18V8C22 6.9 21.1 6 20 6M18.42 13.5L15 17L11.59 13.5C11.22 13.12 11 12.62 11 12.05C11 10.92 11.9 10 13 10C13.54 10 14.05 10.23 14.42 10.61L15 11.2L15.59 10.6C15.95 10.23 16.46 10 17 10C18.1 10 19 10.92 19 12.05C19 12.61 18.78 13.13 18.42 13.5Z" />
    </g>
    <g id="mdi-folder-heart" transform="translate(36 0) scale(1.5)" fill="#fff">
      <path d="M20 6H12L10 4H4C2.89 4 2 4.89 2 6V18C2 19.1 2.89 20 4 20H20C21.1 20 22 19.1 22 18V8C22 6.9 21.1 6 20 6M18.42 13.5L15 17L11.59 13.5C11.22 13.12 11 12.62 11 12.05C11 10.92 11.9 10 13 10C13.54 10 14.05 10.23 14.42 10.61L15 11.2L15.59 10.6C15.95 10.23 16.46 10 17 10C18.1 10 19 10.92 19 12.05C19 12.61 18.78 13.13 18.42 13.5Z" />
    </g>
    <g id="mdi-folder-heart-outline" transform="translate(72 0) scale(1.5)" fill="#555">
      <path d="M20 18H4V8H20M20 6H12L10 4H4C2.89 4 2 4.89 2 6V18C2 19.1 2.9 20 4 20H20C21.1 20 22 19.1 22 18V8C22 6.89 21.1 6 20 6M13 10C11.9 10 11 10.92 11 12.05C11 12.62 11.22 13.12 11.59 13.5L15 17L18.42 13.5C18.78 13.13 19 12.61 19 12.05C19 10.92 18.1 10 17 10C16.46 10 15.95 10.23 15.59 10.6L15 11.2L14.42 10.61C14.05 10.23 13.54 10 13 10Z" />
    </g>
    <g id="mdi-folder-heart-outline" transform="translate(108 0) scale(1.5)" fill="#fff">
      <path d="M20 18H4V8H20M20 6H12L10 4H4C2.89 4 2 4.89 2 6V18C2 19.1 2.9 20 4 20H20C21.1 20 22 19.1 22 18V8C22 6.89 21.1 6 20 6M13 10C11.9 10 11 10.92 11 12.05C11 12.62 11.22 13.12 11.59 13.5L15 17L18.42 13.5C18.78 13.13 19 12.61 19 12.05C19 10.92 18.1 10 17 10C16.46 10 15.95 10.23 15.59 10.6L15 11.2L14.42 10.61C14.05 10.23 13.54 10 13 10Z" />
    </g>
    <g id="mdi-folder-home" transform="translate(144 0) scale(1.5)" fill="#555">
      <path d="M20 6H12L10 4H4A2 2 0 0 0 2 6V18A2 2 0 0 0 4 20H20A2 2 0 0 0 22 18V8A2 2 0 0 0 20 6M17 13V17H15V14H13V17H11V13H9L14 9L19 13Z" />
    </g>
    <g id="mdi-folder-home" transform="translate(180 0) scale(1.5)" fill="#fff">
      <path d="M20 6H12L10 4H4A2 2 0 0 0 2 6V18A2 2 0 0 0 4 20H20A2 2 0 0 0 22 18V8A2 2 0 0 0 20 6M17 13V17H15V14H13V17H11V13H9L14 9L19 13Z" />
    </g>
    <g id="mdi-folder-home-outline" transform="translate(216 0) scale(1.5)" fill="#555">
      <path d="M20 6H12L10 4H4A2 2 0 0 0 2 6V18A2 2 0 0 0 4 20H20A2 2 0 0 0 22 18V8A2 2 0 0 0 20 6M20 18H4V8H20M13 17V14H15V17H17V13H19L14 9L9 13H11V17Z" />
    </g>
    <g id="mdi-folder-home-outline" transform="translate(252 0) scale(1.5)" fill="#fff">
      <path d="M20 6H12L10 4H4A2 2 0 0 0 2 6V18A2 2 0 0 0 4 20H20A2 2 0 0 0 22 18V8A2 2 0 0 0 20 6M20 18H4V8H20M13 17V14H15V17H17V13H19L14 9L9 13H11V17Z" />
    </g>
    <g id="mdi-folder-image" transform="translate(288 0) scale(1.5)" fill="#555">
      <path d="M5,17L9.5,11L13,15.5L15.5,12.5L19,17M20,6H12L10,4H4A2,2 0 0,0 2,6V18A2,2 0 0,0 4,20H20A2,2 0 0,0 22,18V8A2,2 0 0,0 20,6Z" />
    </g>
    <g id="mdi-folder-image" transform="translate(324 0) scale(1.5)" fill="#fff">
      <path d="M5,17L9.5,11L13,15.5L15.5,12.5L19,17M20,6H12L10,4H4A2,2 0 0,0 2,6V18A2,2 0 0,0 4,20H20A2,2 0 0,0 22,18V8A2,2 0 0,0 20,6Z" />
    </g>
    <g id="mdi-folder-information" transform="translate(360 0) scale(1.5)" fill="#555">
      <path d="M21 11.1V8C21 6.9 20.1 6 19 6H11L9 4H3C1.9 4 1 4.9 1 6V18C1 19.1 1.9 20 3 20H10.3C11.6 21.9 13.8 23 16 23C19.9 23 23 19.9 23 16C23 14.2 22.3 12.4 21 11.1M16 21C13.2 21 11 18.8 11 16S13.2 11 16 11 21 13.2 21 16 18.8 21 16 21M17 20H15V15H17V20M17 14H15V12H17V14Z" />
    </g>
    <g id="mdi-folder-information" transform="translate(396 0) scale(1.5)" fill="#fff">
      <path d="M21 11.1V8C21 6.9 20.1 6 19 6H11L9 4H3C1.9 4 1 4.9 1 6V18C1 19.1 1.9 20 3 20H10.3C11.6 21.9 13.8 23 16 23C19.9 23 23 19.9 23 16C23 14.2 22.3 12.4 21 11.1M16 21C13.2 21 11 18.8 11 16S13.2 11 16 11 21 13.2 21 16 18.8 21 16 21M17 20H15V15H17V20M17 14H15V12H17V14Z" />
    </g>
    <g id="mdi-folder-information-outline" transform="translate(432 0) scale(1.5)" fill="#555">
      <path d="M21 11.1V8C21 6.9 20.1 6 19 6H11L9 4H3C1.9 4 1 4.9 1 6V18C1 19.1 1.9 20 3 20H10.2C11.4 21.8 13.6 23 16 23C19.9 23 23 19.9 23 16C23 14.1 22.2 12.4 21 11.1M9.3 18H3V8H19V9.7C18.1 9.2 17.1 9 16 9C12.1 9 9 12.1 9 16C9 16.7 9.1 17.4 9.3 18M16 21C13.2 21 11 18.8 11 16S13.2 11 16 11 21 13.2 21 16 18.8 21 16 21M17 14H15V12H17V14M17 20H15V15H17V20Z" />
    </g>
    <g id="mdi-folder-information-outline" transform="translate(468 0) scale(1.5)" fill="#fff">
      <path d="M21 11.1V8C21 6.9 20.1 6 19 6H11L9 4H3C1.9 4 1 4.9 1 6V18C1 19.1 1.9 20 3 20H10.2C11.4 21.8 13.6 23 16 23C19.9 23 23 19.9 23 16C23 14.1 22.2 12.4 21 11.1M9.3 18H3V8H19V9.7C18.1 9.2 17.1 9 16 9C12.1 9 9 12.1 9 16C9 16.7 9.1 17.4 9.3 18M16 21C13.2 21 11 18.8 11 16S13.2 11 16 11 21 13.2 21 16 18.8 21 16 21M17 14H15V12H17V14M17 20H15V15H17V20Z" />
    </g>
    <g id="mdi-folder-key" transform="translate(504 0) scale(1.5)" fill="#555">
      <path d="M4,4A2,2 0 0,0 2,6V18A2,2 0 0,0 4,20H20A2,2 0 0,0 22,18V8A2,2 0 0,0 20,6H12L10,4M11,10C12.31,10 13.42,10.84 13.83,12H19V14H18V16H16V14H13.83C13.42,15.17 12.31,16 11,16A3,3 0 0,1 8,13A3,3 0 0,1 11,10M11,12A1,1 0 0,0 10,13C10,13.56 10.45,14 11,14A1,1 0 0,0 12,13A1,1 0 0,0 11,12Z" />
    </g>
    <g id="mdi-folder-key" transform="translate(540 0) scale(1.5)" fill="#fff">
      <path d="M4,4A2,2 0 0,0 2,6V18A2,2 0 0,0 4,20H20A2,2 0 0,0 22,18V8A2,2 0 0,0 20,6H12L10,4M11,10C12.31,10 13.42,10.84 13.83,12H19V14H18V16H16V14H13.83C13.42,15.17 12.31,16 11,16A3,3 0 0,1 8,13A3,3 0 0,1 11,10M11,12A1,1 0 0,0 10,13C10,13.56 10.45,14 11,14A1,1 0 0,0 12,13A1,1 0 0,0 11,12Z" />
    </g>
    <g id="mdi-folder-key-network" transform="translate(576 0) scale(1.5)" fill="#555">
      <path d="M6,5C4.89,5 4,5.89 4,7V15A2,2 0 0,0 6,17H11V19H10A1,1 0 0,0 9,20H2V22H9A1,1 0 0,0 10,23H14A1,1 0 0,0 15,22H22V20H15A1,1 0 0,0 14,19H13V17H18A2,2 0 0,0 20,15V9A2,2 0 0,0 18,7H12L10,5H6M9,9C10.31,9 11.42,9.83 11.83,11H17V13H16V15H14V13H11.83C11.42,14.17 10.31,15 9,15A3,3 0 0,1 6,12A3,3 0 0,1 9,9M9,11A1,1 0 0,0 8,12C8,12.56 8.45,13 9,13A1,1 0 0,0 10,12A1,1 0 0,0 9,11Z" />
    </g>
    <g id="mdi-folder-key-network" transform="translate(612 0) scale(1.5)" fill="#fff">
      <path d="M6,5C4.89,5 4,5.89 4,7V15A2,2 0 0,0 6,17H11V19H10A1,1 0 0,0 9,20H2V22H9A1,1 0 0,0 10,23H14A1,1 0 0,0 15,22H22V20H15A1,1 0 0,0 14,19H13V17H18A2,2 0 0,0 20,15V9A2,2 0 0,0 18,7H12L10,5H6M9,9C10.31,9 11.42,9.83 11.83,11H17V13H16V15H14V13H11.83C11.42,14.17 10.31,15 9,15A3,3 0 0,1 6,12A3,3 0 0,1 9,9M9,11A1,1 0 0,0 8,12C8,12.56 8.45,13 9,13A1,1 0 0,0 10,12A1,1 0 0,0 9,11Z" />
    </g>
    <g id="mdi-folder-key-network-outline" transform="translate(648 0) scale(1.5)" fill="#555">
      <path d="M9 8C7.34 8 6 9.34 6 11S7.34 14 9 14C10.31 14 11.42 13.17 11.83 12H14V14H16V12H17V10H11.83C11.42 8.83 10.31 8 9 8M9 12C8.45 12 8 11.55 8 11S8.45 10 9 10 10 10.45 10 11 9.55 12 9 12M15 20C15 19.45 14.55 19 14 19H13V17H19C20.11 17 21 16.11 21 15V7C21 5.9 20.11 5 19 5H13L11 3H5C3.9 3 3 3.9 3 5V15C3 16.11 3.9 17 5 17H11V19H10C9.45 19 9 19.45 9 20H2V22H9C9 22.55 9.45 23 10 23H14C14.55 23 15 22.55 15 22H22V20H15M5 15V7H19V15H5Z" />
    </g>
    <g id="mdi-folder-key-network-outline" transform="translate(684 0) scale(1.5)" fill="#fff">
      <path d="M9 8C7.34 8 6 9.34 6 11S7.34 14 9 14C10.31 14 11.42 13.17 11.83 12H14V14H16V12H17V10H11.83C11.42 8.83 10.31 8 9 8M9 12C8.45 12 8 11.55 8 11S8.45 10 9 10 10 10.45 10 11 9.55 12 9 12M15 20C15 19.45 14.55 19 14 19H13V17H19C20.11 17 21 16.11 21 15V7C21 5.9 20.11 5 19 5H13L11 3H5C3.9 3 3 3.9 3 5V15C3 16.11 3.9 17 5 17H11V19H10C9.45 19 9 19.45 9 20H2V22H9C9 22.55 9.45 23 10 23H14C14.55 23 15 22.55 15 22H22V20H15M5 15V7H19V15H5Z" />
    </g>
    <g id="mdi-folder-key-outline" transform="translate(0 36) scale(1.5)" fill="#555">
      <path d="M20 18H4V8H20M20 6H12L10 4H4C2.89 4 2 4.89 2 6V18C2 19.1 2.9 20 4 20H20C21.1 20 22 19.1 22 18V8C22 6.89 21.1 6 20 6M13.83 12C13.42 10.84 12.31 10 11 10C9.34 10 8 11.34 8 13S9.34 16 11 16C12.31 16 13.42 15.17 13.83 14H16V16H18V14H19V12H13.83M11 14C10.45 14 10 13.56 10 13C10 12.45 10.45 12 11 12S12 12.45 12 13 11.55 14 11 14Z" />
    </g>
    <g id="mdi-folder-key-outline" transform="translate(36 36) scale(1.5)" fill="#fff">
      <path d="M20 18H4V8H20M20 6H12L10 4H4C2.89 4 2 4.89 2 6V18C2 19.1 2.9 20 4 20H20C21.1 20 22 19.1 22 18V8C22 6.89 21.1 6 20 6M13.83 12C13.42 10.84 12.31 10 11 10C9.34 10 8 11.34 8 13S9.34 16 11 16C12.31 16 13.42 15.17 13.83 14H16V16H18V14H19V12H13.83M11 14C10.45 14 10 13.56 10 13C10 12.45 10.45 12 11 12S12 12.45 12 13 11.55 14 11 14Z" />
    </g>
    <g id="mdi-folder-lock" transform="translate(72 36) scale(1.5)" fill="#555">
      <path d="M20,6A2,2 0 0,1 22,8V18A2,2 0 0,1 20,20H4C2.89,20 2,19.1 2,18V6C2,4.89 2.89,4 4,4H10L12,6H20M19,17V13H18V12A3,3 0 0,0 15,9A3,3 0 0,0 12,12V13H11V17H19M15,11A1,1 0 0,1 16,12V13H14V12A1,1 0 0,1 15,11Z" />
    </g>
    <g id="mdi-folder-lock" transform="translate(108 36) scale(1.5)" fill="#fff">
      <path d="M20,6A2,2 0 0,1 22,8V18A2,2 0 0,1 20,20H4C2.89,20 2,19.1 2,18V6C2,4.89 2.89,4 4,4H10L12,6H20M19,17V13H18V12A3,3 0 0,0 15,9A3,3 0 0,0 12,12V13H11V17H19M15,11A1,1 0 0,1 16,12V13H14V12A1,1 0 0,1 15,11Z" />
    </g>
    <g id="mdi-folder-lock-open" transform="translate(144 36) scale(1.5)" fill="#555">
      <path d="M20,6A2,2 0 0,1 22,8V18A2,2 0 0,1 20,20H4C2.89,20 2,19.1 2,18V6C2,4.89 2.89,4 4,4H10L12,6H20M19,17V13H18L16,13H14V11A1,1 0 0,1 15,10A1,1 0 0,1 16,11H18A3,3 0 0,0 15,8A3,3 0 0,0 12,11V13H11V17H19Z" />
    </g>
    <g id="mdi-folder-lock-open" transform="translate(180 36) scale(1.5)" fill="#fff">
      <path d="M20,6A2,2 0 0,1 22,8V18A2,2 0 0,1 20,20H4C2.89,20 2,19.1 2,18V6C2,4.89 2.89,4 4,4H10L12,6H20M19,17V13H18L16,13H14V11A1,1 0 0,1 15,10A1,1 0 0,1 16,11H18A3,3 0 0,0 15,8A3,3 0 0,0 12,11V13H11V17H19Z" />
    </g>
    <g id="mdi-folder-marker" transform="translate(216 36) scale(1.5)" fill="#555">
      <path d="M10 4L12 6H20C21.1 6 22 6.89 22 8V11.34C21.04 10.5 19.82 10 18.5 10C15.5 10 13 12.65 13 15.5C13 16.97 13.65 18.55 14.5 20H4C2.89 20 2 19.1 2 18L2 6C2 4.89 2.89 4 4 4H10M18.5 12C20.4 12 22 13.6 22 15.5C22 18.1 18.5 22 18.5 22C18.5 22 15 18.1 15 15.5C15 13.6 16.6 12 18.5 12M18.5 16.8C19.2 16.8 19.8 16.2 19.7 15.6C19.7 15 19.1 14.4 18.5 14.4C17.9 14.4 17.3 14.9 17.3 15.6C17.3 16.2 17.8 16.8 18.5 16.8Z" />
    </g>
    <g id="mdi-folder-marker" transform="translate(252 36) scale(1.5)" fill="#fff">
      <path d="M10 4L12 6H20C21.1 6 22 6.89 22 8V11.34C21.04 10.5 19.82 10 18.5 10C15.5 10 13 12.65 13 15.5C13 16.97 13.65 18.55 14.5 20H4C2.89 20 2 19.1 2 18L2 6C2 4.89 2.89 4 4 4H10M18.5 12C20.4 12 22 13.6 22 15.5C22 18.1 18.5 22 18.5 22C18.5 22 15 18.1 15 15.5C15 13.6 16.6 12 18.5 12M18.5 16.8C19.2 16.8 19.8 16.2 19.7 15.6C19.7 15 19.1 14.4 18.5 14.4C17.9 14.4 17.3 14.9 17.3 15.6C17.3 16.2 17.8 16.8 18.5 16.8Z" />
    </g>
    <g id="mdi-folder-marker-outline" transform="translate(288 36) scale(1.5)" fill="#555">
      <path d="M18.5 12C20.4 12 22 13.6 22 15.5C22 18.1 18.5 22 18.5 22C18.5 22 15 18.1 15 15.5C15 13.6 16.6 12 18.5 12M18.5 16.8C19.2 16.8 19.8 16.2 19.7 15.6C19.7 15 19.1 14.4 18.5 14.4C17.9 14.4 17.3 14.9 17.3 15.6C17.3 16.2 17.8 16.8 18.5 16.8M20 8H4V18H13.5C13.79 18.68 14.13 19.35 14.5 20H4C2.89 20 2 19.1 2 18L2 6C2 4.89 2.89 4 4 4H10L12 6H20C21.1 6 22 6.89 22 8V11.34C21.42 10.84 20.74 10.45 20 10.23V8Z" />
    </g>
    <g id="mdi-folder-marker-outline" transform="translate(324 36) scale(1.5)" fill="#fff">
      <path d="M18.5 12C20.4 12 22 13.6 22 15.5C22 18.1 18.5 22 18.5 22C18.5 22 15 18.1 15 15.5C15 13.6 16.6 12 18.5 12M18.5 16.8C19.2 16.8 19.8 16.2 19.7 15.6C19.7 15 19.1 14.4 18.5 14.4C17.9 14.4 17.3 14.9 17.3 15.6C17.3 16.2 17.8 16.8 18.5 16.8M20 8H4V18H13.5C13.79 18.68 14.13 19.35 14.5 20H4C2.89 20 2 19.1 2 18L2 6C2 4.89 2.89 4 4 4H10L12 6H20C21.1 6 22 6.89 22 8V11.34C21.42 10.84 20.74 10.45 20 10.23V8Z" />
    </g>
    <g id="mdi-folder-move" transform="translate(360 36) scale(1.5)" fill="#555">
      <path d="M14,18V15H10V11H14V8L19,13M20,6H12L10,4H4C2.89,4 2,4.89 2,6V18A2,2 0 0,0 4,20H20A2,2 0 0,0 22,18V8C22,6.89 21.1,6 20,6Z" />
    </g>
    <g id="mdi-folder-move" transform="translate(396 36) scale(1.5)" fill="#fff">
      <path d="M14,18V15H10V11H14V8L19,13M20,6H12L10,4H4C2.89,4 2,4.89 2,6V18A2,2 0 0,0 4,20H20A2,2 0 0,0 22,18V8C22,6.89 21.1,6 20,6Z" />
    </g>
    <g id="mdi-folder-move-outline" transform="translate(432 36) scale(1.5)" fill="#555">
      <path d="M20 18H4V8H20V18M12 6L10 4H4C2.9 4 2 4.89 2 6V18C2 19.11 2.9 20 4 20H20C21.11 20 22 19.11 22 18V8C22 6.9 21.11 6 20 6H12M11 14V12H15V9L19 13L15 17V14H11Z" />
    </g>
    <g id="mdi-folder-move-outline" transform="translate(468 36) scale(1.5)" fill="#fff">
      <path d="M20 18H4V8H20V18M12 6L10 4H4C2.9 4 2 4.89 2 6V18C2 19.11 2.9 20 4 20H20C21.11 20 22 19.11 22 18V8C22 6.9 21.11 6 20 6H12M11 14V12H15V9L19 13L15 17V14H11Z" />
    </g>
    <g id="mdi-folder-multiple" transform="translate(504 36) scale(1.5)" fill="#555">
      <path d="M22,4H14L12,2H6A2,2 0 0,0 4,4V16A2,2 0 0,0 6,18H22A2,2 0 0,0 24,16V6A2,2 0 0,0 22,4M2,6H0V11H0V20A2,2 0 0,0 2,22H20V20H2V6Z" />
    </g>
    <g id="mdi-folder-multiple" transform="translate(540 36) scale(1.5)" fill="#fff">
      <path d="M22,4H14L12,2H6A2,2 0 0,0 4,4V16A2,2 0 0,0 6,18H22A2,2 0 0,0 24,16V6A2,2 0 0,0 22,4M2,6H0V11H0V20A2,2 0 0,0 2,22H20V20H2V6Z" />
    </g>
    <g id="mdi-folder-multiple-image" transform="translate(576 36) scale(1.5)" fill="#555">
      <path d="M7,15L11.5,9L15,13.5L17.5,10.5L21,15M22,4H14L12,2H6A2,2 0 0,0 4,4V16A2,2 0 0,0 6,18H22A2,2 0 0,0 24,16V6A2,2 0 0,0 22,4M2,6H0V11H0V20A2,2 0 0,0 2,22H20V20H2V6Z" />
    </g>
    <g id="mdi-folder-multiple-image" transform="translate(612 36) scale(1.5)" fill="#fff">
      <path d="M7,15L11.5,9L15,13.5L17.5,10.5L21,15M22,4H14L12,2H6A2,2 0 0,0 4,4V16A2,2 0 0,0 6,18H22A2,2 0 0,0 24,16V6A2,2 0 0,0 22,4M2,6H0V11H0V20A2,2 0 0,0 2,22H20V20H2V6Z" />
    </g>
    <g id="mdi-folder-multiple-outline" transform="translate(648 36) scale(1.5)" fill="#555">
      <path d="M22,4A2,2 0 0,1 24,6V16A2,2 0 0,1 22,18H6A2,2 0 0,1 4,16V4A2,2 0 0,1 6,2H12L14,4H22M2,6V20H20V22H2A2,2 0 0,1 0,20V11H0V6H2M6,6V16H22V6H6Z" />
    </g>
    <g id="mdi-folder-multiple-outline" transform="translate(684 36) scale(1.5)" fill="#fff">
      <path d="M22,4A2,2 0 0,1 24,6V16A2,2 0 0,1 22,18H6A2,2 0 0,1 4,16V4A2,2 0 0,1 6,2H12L14,4H22M2,6V20H20V22H2A2,2 0 0,1 0,20V11H0V6H2M6,6V16H22V6H6Z" />
    </g>
    <g id="mdi-folder-music" transform="translate(0 72) scale(1.5)" fill="#555">
      <path d="M10 4L12 6H20C21.1 6 22 6.89 22 8V18C22 19.1 21.1 20 20 20H4C2.89 20 2 19.1 2 18L2 6C2 4.89 2.89 4 4 4H10M19 9H15.5V13.06L15 13C13.9 13 13 13.9 13 15C13 16.11 13.9 17 15 17C16.11 17 17 16.11 17 15V11H19V9Z" />
    </g>
    <g id="mdi-folder-music" transform="translate(36 72) scale(1.5)" fill="#fff">
      <path d="M10 4L12 6H20C21.1 6 22 6.89 22 8V18C22 19.1 21.1 20 20 20H4C2.89 20 2 19.1 2 18L2 6C2 4.89 2.89 4 4 4H10M19 9H15.5V13.06L15 13C13.9 13 13 13.9 13 15C13 16.11 13.9 17 15 17C16.11 17 17 16.11 17 15V11H19V9Z" />
    </g>
    <g id="mdi-folder-music-outline" transform="translate(72 72) scale(1.5)" fill="#555">
      <path d="M20 18V8H4V18H20M20 6C21.1 6 22 6.89 22 8V18C22 19.1 21.1 20 20 20H4C2.89 20 2 19.1 2 18L2 6C2 4.89 2.89 4 4 4H10L12 6H20M18 9V11H16V15C16 16.11 15.11 17 14 17C12.9 17 12 16.11 12 15C12 13.9 12.9 13 14 13C14.17 13 14.34 13 14.5 13.06V9H18Z" />
    </g>
    <g id="mdi-folder-music-outline" transform="translate(108 72) scale(1.5)" fill="#fff">
      <path d="M20 18V8H4V18H20M20 6C21.1 6 22 6.89 22 8V18C22 19.1 21.1 20 20 20H4C2.89 20 2 19.1 2 18L2 6C2 4.89 2.89 4 4 4H10L12 6H20M18 9V11H16V15C16 16.11 15.11 17 14 17C12.9 17 12 16.11 12 15C12 13.9 12.9 13 14 13C14.17 13 14.34 13 14.5 13.06V9H18Z" />
    </g>
    <g id="mdi-folder-network" transform="translate(144 72) scale(1.5)" fill="#555">
      <path d="M3,15V5A2,2 0 0,1 5,3H11L13,5H19A2,2 0 0,1 21,7V15A2,2 0 0,1 19,17H13V19H14A1,1 0 0,1 15,20H22V22H15A1,1 0 0,1 14,23H10A1,1 0 0,1 9,22H2V20H9A1,1 0 0,1 10,19H11V17H5A2,2 0 0,1 3,15Z" />
    </g>
    <g id="mdi-folder-network" transform="translate(180 72) scale(1.5)" fill="#fff">
      <path d="M3,15V5A2,2 0 0,1 5,3H11L13,5H19A2,2 0 0,1 21,7V15A2,2 0 0,1 19,17H13V19H14A1,1 0 0,1 15,20H22V22H15A1,1 0 0,1 14,23H10A1,1 0 0,1 9,22H2V20H9A1,1 0 0,1 10,19H11V17H5A2,2 0 0,1 3,15Z" />
    </g>
    <g id="mdi-folder-network-outline" transform="translate(216 72) scale(1.5)" fill="#555">
      <path d="M15 20C15 19.45 14.55 19 14 19H13V17H19C20.11 17 21 16.11 21 15V7C21 5.9 20.11 5 19 5H13L11 3H5C3.9 3 3 3.9 3 5V15C3 16.11 3.9 17 5 17H11V19H10C9.45 19 9 19.45 9 20H2V22H9C9 22.55 9.45 23 10 23H14C14.55 23 15 22.55 15 22H22V20H15M5 15V7H19V15H5Z" />
    </g>
    <g id="mdi-folder-network-outline" transform="translate(252 72) scale(1.5)" fill="#fff">
      <path d="M15 20C15 19.45 14.55 19 14 19H13V17H19C20.11 17 21 16.11 21 15V7C21 5.9 20.11 5 19 5H13L11 3H5C3.9 3 3 3.9 3 5V15C3 16.11 3.9 17 5 17H11V19H10C9.45 19 9 19.45 9 20H2V22H9C9 22.55 9.45 23 10 23H14C14.55 23 15 22.55 15 22H22V20H15M5 15V7H19V15H5Z" />
    </g>
    <g id="mdi-folder-open" transform="translate(288 72) scale(1.5)" fill="#555">
      <path d="M19,20H4C2.89,20 2,19.1 2,18V6C2,4.89 2.89,4 4,4H10L12,6H19A2,2 0 0,1 21,8H21L4,8V18L6.14,10H23.21L20.93,18.5C20.7,19.37 19.92,20 19,20Z" />
    </g>
    <g id="mdi-folder-open" transform="translate(324 72) scale(1.5)" fill="#fff">
      <path d="M19,20H4C2.89,20 2,19.1 2,18V6C2,4.89 2.89,4 4,4H10L12,6H19A2,2 0 0,1 21,8H21L4,8V18L6.14,10H23.21L20.93,18.5C20.7,19.37 19.92,20 19,20Z" />
    </g>
    <g id="mdi-folder-open-outline" transform="translate(360 72) scale(1.5)" fill="#555">
      <path d="M6.1,10L4,18V8H21A2,2 0 0,0 19,6H12L10,4H4A2,2 0 0,0 2,6V18A2,2 0 0,0 4,20H19C19.9,20 20.7,19.4 20.9,18.5L23.2,10H6.1M19,18H6L7.6,12H20.6L19,18Z" />
    </g>
    <g id="mdi-folder-open-outline" transform="translate(396 72) scale(1.5)" fill="#fff">
      <path d="M6.1,10L4,18V8H21A2,2 0 0,0 19,6H12L10,4H4A2,2 0 0,0 2,6V18A2,2 0 0,0 4,20H19C19.9,20 20.7,19.4 20.9,18.5L23.2,10H6.1M19,18H6L7.6,12H20.6L19,18Z" />
    </g>
    <g id="mdi-folder-outline" transform="translate(432 72) scale(1.5)" fill="#555">
      <path d="M20,18H4V8H20M20,6H12L10,4H4C2.89,4 2,4.89 2,6V18A2,2 0 0,0 4,20H20A2,2 0 0,0 22,18V8C22,6.89 21.1,6 20,6Z" />
    </g>
    <g id="mdi-folder-outline" transform="translate(468 72) scale(1.5)" fill="#fff">
      <path d="M20,18H4V8H20M20,6H12L10,4H4C2.89,4 2,4.89 2,6V18A2,2 0 0,0 4,20H20A2,2 0 0,0 22,18V8C22,6.89 21.1,6 20,6Z" />
    </g>
    <g id="mdi-folder-plus" transform="translate(504 72) scale(1.5)" fill="#555">
      <path d="M10,4L12,6H20A2,2 0 0,1 22,8V18A2,2 0 0,1 20,20H4C2.89,20 2,19.1 2,18V6C2,4.89 2.89,4 4,4H10M15,9V12H12V14H15V17H17V14H20V12H17V9H15Z" />
    </g>
    <g id="mdi-folder-plus" transform="translate(540 72) scale(1.5)" fill="#fff">
      <path d="M10,4L12,6H20A2,2 0 0,1 22,8V18A2,2 0 0,1 20,20H4C2.89,20 2,19.1 2,18V6C2,4.89 2.89,4 4,4H10M15,9V12H12V14H15V17H17V14H20V12H17V9H15Z" />
    </g>
    <g id="mdi-folder-plus-outline" transform="translate(576 72) scale(1.5)" fill="#555">
      <path d="M12 12H14V10H16V12H18V14H16V16H14V14H12V12M22 8V18C22 19.11 21.11 20 20 20H4C2.89 20 2 19.11 2 18V6C2 4.89 2.89 4 4 4H10L12 6H20C21.11 6 22 6.89 22 8M20 8H4V18H20V8Z" />
    </g>
    <g id="mdi-folder-plus-outline" transform="translate(612 72) scale(1.5)" fill="#fff">
      <path d="M12 12H14V10H16V12H18V14H16V16H14V14H12V12M22 8V18C22 19.11 21.11 20 20 20H4C2.89 20 2 19.11 2 18V6C2 4.89 2.89 4 4 4H10L12 6H20C21.11 6 22 6.89 22 8M20 8H4V18H20V8Z" />
    </g>
    <g id="mdi-folder-pound" transform="translate(648 72) scale(1.5)" fill="#555">
      <path d="M15.25,13H17.25L16.75,15H14.75L15.25,13M22,8V18A2,2 0 0,1 20,20H4A2,2 0 0,1 2,18V6C2,4.89 2.89,4 4,4H10L12,6H20A2,2 0 0,1 22,8M20,12H18.5L19,10H18L17.5,12H15.5L16,10H15L14.5,12H13V13H14.25L13.75,15H12V16H13.5L13,18H14L14.5,16H16.5L16,18H17L17.5,16H19V15H17.75L18.25,13H20V12Z" />
    </g>
    <g id="mdi-folder-pound" transform="translate(684 72) scale(1.5)" fill="#fff">
      <path d="M15.25,13H17.25L16.75,15H14.75L15.25,13M22,8V18A2,2 0 0,1 20,20H4A2,2 0 0,1 2,18V6C2,4.89 2.89,4 4,4H10L12,6H20A2,2 0 0,1 22,8M20,12H18.5L19,10H18L17.5,12H15.5L16,10H15L14.5,12H13V13H14.25L13.75,15H12V16H13.5L13,18H14L14.5,16H16.5L16,18H17L17.5,16H19V15H17.75L18.25,13H20V12Z" />
    </g>
    <g id="mdi-folder-pound-outline" transform="translate(0 108) scale(1.5)" fill="#555">
      <path d="M20,18H4V8H20M20,6H12L10,4H4C2.89,4 2,4.89 2,6V18A2,2 0 0,0 4,20H20A2,2 0 0,0 22,18V8C22,6.89 21.1,6 20,6M19,12V11H17.5L18,9H17L16.5,11H14.5L15,9H14L13.5,11H12V12H13.25L12.75,14H11V15H12.5L12,17H13L13.5,15H15.5L15,17H16L16.5,15H18V14H16.75L17.25,12H19M15.75,14H13.75L14.25,12H16.25L15.75,14Z" />
    </g>
    <g id="mdi-folder-pound-outline" transform="translate(36 108) scale(1.5)" fill="#fff">
      <path d="M20,18H4V8H20M20,6H12L10,4H4C2.89,4 2,4.89 2,6V18A2,2 0 0,0 4,20H20A2,2 0 0,0 22,18V8C22,6.89 21.1,6 20,6M19,12V11H17.5L18,9H17L16.5,11H14.5L15,9H14L13.5,11H12V12H13.25L12.75,14H11V15H12.5L12,17H13L13.5,15H15.5L15,17H16L16.5,15H18V14H16.75L17.25,12H19M15.75,14H13.75L14.25,12H16.25L15.75,14Z" />
    </g>
    <g id="mdi-folder-refresh" transform="translate(72 108) scale(1.5)" fill="#555">
      <path d="M18 14.5C19.11 14.5 20.11 14.95 20.83 15.67L22 14.5V18.5H18L19.77 16.73C19.32 16.28 18.69 16 18 16C16.62 16 15.5 17.12 15.5 18.5C15.5 19.88 16.62 21 18 21C18.82 21 19.54 20.61 20 20H21.71C21.12 21.47 19.68 22.5 18 22.5C15.79 22.5 14 20.71 14 18.5C14 16.29 15.79 14.5 18 14.5M10 4L12 6H20C21.1 6 22 6.89 22 8V13C21 12.38 19.79 12 18.5 12C14.91 12 12 14.91 12 18.5C12 19 12.06 19.5 12.17 20H4C2.89 20 2 19.1 2 18L2 6C2 4.89 2.89 4 4 4H10Z" />
    </g>
    <g id="mdi-folder-refresh" transform="translate(108 108) scale(1.5)" fill="#fff">
      <path d="M18 14.5C19.11 14.5 20.11 14.95 20.83 15.67L22 14.5V18.5H18L19.77 16.73C19.32 16.28 18.69 16 18 16C16.62 16 15.5 17.12 15.5 18.5C15.5 19.88 16.62 21 18 21C18.82 21 19.54 20.61 20 20H21.71C21.12 21.47 19.68 22.5 18 22.5C15.79 22.5 14 20.71 14 18.5C14 16.29 15.79 14.5 18 14.5M10 4L12 6H20C21.1 6 22 6.89 22 8V13C21 12.38 19.79 12 18.5 12C14.91 12 12 14.91 12 18.5C12 19 12.06 19.5 12.17 20H4C2.89 20 2 19.1 2 18L2 6C2 4.89 2.89 4 4 4H10Z" />
    </g>
    <g id="mdi-folder-refresh-outline" transform="translate(144 108) scale(1.5)" fill="#555">
      <path d="M18 14.5C19.11 14.5 20.11 14.95 20.83 15.67L22 14.5V18.5H18L19.77 16.73C19.32 16.28 18.69 16 18 16C16.62 16 15.5 17.12 15.5 18.5C15.5 19.88 16.62 21 18 21C18.82 21 19.54 20.61 20 20H21.71C21.12 21.47 19.68 22.5 18 22.5C15.79 22.5 14 20.71 14 18.5C14 16.29 15.79 14.5 18 14.5M20 8H4V18H12L12 18.5C12 19 12.06 19.5 12.17 20H4C2.89 20 2 19.1 2 18L2 6C2 4.89 2.89 4 4 4H10L12 6H20C21.1 6 22 6.89 22 8V13C21.39 12.63 20.72 12.34 20 12.17V8Z" />
    </g>
    <g id="mdi-folder-refresh-outline" transform="translate(180 108) scale(1.5)" fill="#fff">
      <path d="M18 14.5C19.11 14.5 20.11 14.95 20.83 15.67L22 14.5V18.5H18L19.77 16.73C19.32 16.28 18.69 16 18 16C16.62 16 15.5 17.12 15.5 18.5C15.5 19.88 16.62 21 18 21C18.82 21 19.54 20.61 20 20H21.71C21.12 21.47 19.68 22.5 18 22.5C15.79 22.5 14 20.71 14 18.5C14 16.29 15.79 14.5 18 14.5M20 8H4V18H12L12 18.5C12 19 12.06 19.5 12.17 20H4C2.89 20 2 19.1 2 18L2 6C2 4.89 2.89 4 4 4H10L12 6H20C21.1 6 22 6.89 22 8V13C21.39 12.63 20.72 12.34 20 12.17V8Z" />
    </g>
    <g id="mdi-folder-remove" transform="translate(216 108) scale(1.5)" fill="#555">
      <path d="M10,4L12,6H20A2,2 0 0,1 22,8V18A2,2 0 0,1 20,20H4C2.89,20 2,19.1 2,18V6C2,4.89 2.89,4 4,4H10M12.46,10.88L14.59,13L12.46,15.12L13.88,16.54L16,14.41L18.12,16.54L19.54,15.12L17.41,13L19.54,10.88L18.12,9.46L16,11.59L13.88,9.46L12.46,10.88Z" />
    </g>
    <g id="mdi-folder-remove" transform="translate(252 108) scale(1.5)" fill="#fff">
      <path d="M10,4L12,6H20A2,2 0 0,1 22,8V18A2,2 0 0,1 20,20H4C2.89,20 2,19.1 2,18V6C2,4.89 2.89,4 4,4H10M12.46,10.88L14.59,13L12.46,15.12L13.88,16.54L16,14.41L18.12,16.54L19.54,15.12L17.41,13L19.54,10.88L18.12,9.46L16,11.59L13.88,9.46L12.46,10.88Z" />
    </g>
    <g id="mdi-folder-remove-outline" transform="translate(288 108) scale(1.5)" fill="#555">
      <path d="M11.46 10.88L12.88 9.46L15 11.59L17.12 9.46L18.54 10.88L16.41 13L18.54 15.12L17.12 16.54L15 14.41L12.88 16.54L11.46 15.12L13.59 13L11.46 10.88M22 8V18C22 19.11 21.11 20 20 20H4C2.9 20 2 19.11 2 18V6C2 4.89 2.9 4 4 4H10L12 6H20C21.11 6 22 6.9 22 8M20 8H4V18H20V8Z" />
    </g>
    <g id="mdi-folder-remove-outline" transform="translate(324 108) scale(1.5)" fill="#fff">
      <path d="M11.46 10.88L12.88 9.46L15 11.59L17.12 9.46L18.54 10.88L16.41 13L18.54 15.12L17.12 16.54L15 14.41L12.88 16.54L11.46 15.12L13.59 13L11.46 10.88M22 8V18C22 19.11 21.11 20 20 20H4C2.9 20 2 19.11 2 18V6C2 4.89 2.9 4 4 4H10L12 6H20C21.11 6 22 6.9 22 8M20 8H4V18H20V8Z" />
    </g>
    <g id="mdi-folder-search" transform="translate(360 108) scale(1.5)" fill="#555">
      <path d="M16.5,12C19,12 21,14 21,16.5C21,17.38 20.75,18.21 20.31,18.9L23.39,22L22,23.39L18.88,20.32C18.19,20.75 17.37,21 16.5,21C14,21 12,19 12,16.5C12,14 14,12 16.5,12M16.5,14A2.5,2.5 0 0,0 14,16.5A2.5,2.5 0 0,0 16.5,19A2.5,2.5 0 0,0 19,16.5A2.5,2.5 0 0,0 16.5,14M9,4L11,6H19A2,2 0 0,1 21,8V11.81C19.83,10.69 18.25,10 16.5,10A6.5,6.5 0 0,0 10,16.5C10,17.79 10.37,19 11,20H3C1.89,20 1,19.1 1,18V6C1,4.89 1.89,4 3,4H9Z" />
    </g>
    <g id="mdi-folder-search" transform="translate(396 108) scale(1.5)" fill="#fff">
      <path d="M16.5,12C19,12 21,14 21,16.5C21,17.38 20.75,18.21 20.31,18.9L23.39,22L22,23.39L18.88,20.32C18.19,20.75 17.37,21 16.5,21C14,21 12,19 12,16.5C12,14 14,12 16.5,12M16.5,14A2.5,2.5 0 0,0 14,16.5A2.5,2.5 0 0,0 16.5,19A2.5,2.5 0 0,0 19,16.5A2.5,2.5 0 0,0 16.5,14M9,4L11,6H19A2,2 0 0,1 21,8V11.81C19.83,10.69 18.25,10 16.5,10A6.5,6.5 0 0,0 10,16.5C10,17.79 10.37,19 11,20H3C1.89,20 1,19.1 1,18V6C1,4.89 1.89,4 3,4H9Z" />
    </g>
    <g id="mdi-folder-search-outline" transform="translate(432 108) scale(1.5)" fill="#555">
      <path d="M16.5,12C19,12 21,14 21,16.5C21,17.38 20.75,18.21 20.31,18.9L23.39,22L22,23.39L18.88,20.32C18.19,20.75 17.37,21 16.5,21C14,21 12,19 12,16.5C12,14 14,12 16.5,12M16.5,14A2.5,2.5 0 0,0 14,16.5A2.5,2.5 0 0,0 16.5,19A2.5,2.5 0 0,0 19,16.5A2.5,2.5 0 0,0 16.5,14M19,8H3V18H10.17C10.34,18.72 10.63,19.39 11,20H3C1.89,20 1,19.1 1,18V6C1,4.89 1.89,4 3,4H9L11,6H19A2,2 0 0,1 21,8V11.81C20.42,11.26 19.75,10.81 19,10.5V8Z" />
    </g>
    <g id="mdi-folder-search-outline" transform="translate(468 108) scale(1.5)" fill="#fff">
      <path d="M16.5,12C19,12 21,14 21,16.5C21,17.38 20.75,18.21 20.31,18.9L23.39,22L22,23.39L18.88,20.32C18.19,20.75 17.37,21 16.5,21C14,21 12,19 12,16.5C12,14 14,12 16.5,12M16.5,14A2.5,2.5 0 0,0 14,16.5A2.5,2.5 0 0,0 16.5,19A2.5,2.5 0 0,0 19,16.5A2.5,2.5 0 0,0 16.5,14M19,8H3V18H10.17C10.34,18.72 10.63,19.39 11,20H3C1.89,20 1,19.1 1,18V6C1,4.89 1.89,4 3,4H9L11,6H19A2,2 0 0,1 21,8V11.81C20.42,11.26 19.75,10.81 19,10.5V8Z" />
    </g>
    <g id="mdi-folder-settings" transform="translate(504 108) scale(1.5)" fill="#555">
      <path d="M4 4C2.89 4 2 4.89 2 6V18A2 2 0 0 0 4 20H20A2 2 0 0 0 22 18V8C22 6.89 21.1 6 20 6H12L10 4H4M7 22V24H9V22H7M11 22V24H13V22H11M15 22V24H17V22H15Z" />
    </g>
    <g id="mdi-folder-settings" transform="translate(540 108) scale(1.5)" fill="#fff">
      <path d="M4 4C2.89 4 2 4.89 2 6V18A2 2 0 0 0 4 20H20A2 2 0 0 0 22 18V8C22 6.89 21.1 6 20 6H12L10 4H4M7 22V24H9V22H7M11 22V24H13V22H11M15 22V24H17V22H15Z" />
    </g>
    <g id="mdi-folder-settings-outline" transform="translate(576 108) scale(1.5)" fill="#555">
      <path d="M4 4C2.89 4 2 4.89 2 6V18A2 2 0 0 0 4 20H20A2 2 0 0 0 22 18V8C22 6.89 21.1 6 20 6H12L10 4H4M4 8H20V18H4V8M7 22V24H9V22H7M11 22V24H13V22H11M15 22V24H17V22H15" />
    </g>
    <g id="mdi-folder-settings-outline" transform="translate(612 108) scale(1.5)" fill="#fff">
      <path d="M4 4C2.89 4 2 4.89 2 6V18A2 2 0 0 0 4 20H20A2 2 0 0 0 22 18V8C22 6.89 21.1 6 20 6H12L10 4H4M4 8H20V18H4V8M7 22V24H9V22H7M11 22V24H13V22H11M15 22V24H17V22H15" />
    </g>
    <g id="mdi-folder-star" transform="translate(648 108) scale(1.5)" fill="#555">
      <path d="M20,6H12L10,4H4A2,2 0 0,0 2,6V18A2,2 0 0,0 4,20H20A2,2 0 0,0 22,18V8A2,2 0 0,0 20,6M17.94,17L15,15.28L12.06,17L12.84,13.67L10.25,11.43L13.66,11.14L15,8L16.34,11.14L19.75,11.43L17.16,13.67L17.94,17Z" />
    </g>
    <g id="mdi-folder-star" transform="translate(684 108) scale(1.5)" fill="#fff">
      <path d="M20,6H12L10,4H4A2,2 0 0,0 2,6V18A2,2 0 0,0 4,20H20A2,2 0 0,0 22,18V8A2,2 0 0,0 20,6M17.94,17L15,15.28L12.06,17L12.84,13.67L10.25,11.43L13.66,11.14L15,8L16.34,11.14L19.75,11.43L17.16,13.67L17.94,17Z" />
    </g>
    <g id="mdi-folder-star-multiple" transform="translate(0 144) scale(1.5)" fill="#555">
      <path d="M2 6H0V20C0 21.11 .895 22 2 22H20V20H2V6M22 4H14L12 2H6C4.89 2 4 2.89 4 4V16C4 17.1 4.89 18 6 18H22C23.11 18 24 17.1 24 16V6C24 4.89 23.11 4 22 4M19.94 15L17 13.27L14.06 15L14.84 11.66L12.25 9.42L15.66 9.13L17 6L18.34 9.13L21.75 9.42L19.16 11.66L19.94 15Z" />
    </g>
    <g id="mdi-folder-star-multiple" transform="translate(36 144) scale(1.5)" fill="#fff">
      <path d="M2 6H0V20C0 21.11 .895 22 2 22H20V20H2V6M22 4H14L12 2H6C4.89 2 4 2.89 4 4V16C4 17.1 4.89 18 6 18H22C23.11 18 24 17.1 24 16V6C24 4.89 23.11 4 22 4M19.94 15L17 13.27L14.06 15L14.84 11.66L12.25 9.42L15.66 9.13L17 6L18.34 9.13L21.75 9.42L19.16 11.66L19.94 15Z" />
    </g>
    <g id="mdi-folder-star-multiple-outline" transform="translate(72 144) scale(1.5)" fill="#555">
      <path d="M2 6V20H20V22H2C.895 22 0 21.11 0 20V6H2M12.78 10.05L15.81 9.79L17 7L18.19 9.79L21.22 10.05L18.92 12.04L19.61 15L17 13.47L14.39 15L15.08 12.04L12.78 10.05M24 6V16C24 17.11 23.11 18 22 18H6C4.9 18 4 17.11 4 16V4C4 2.89 4.9 2 6 2H12L14 4H22C23.11 4 24 4.9 24 6M22 6H6V16H22V6Z" />
    </g>
    <g id="mdi-folder-star-multiple-outline" transform="translate(108 144) scale(1.5)" fill="#fff">
      <path d="M2 6V20H20V22H2C.895 22 0 21.11 0 20V6H2M12.78 10.05L15.81 9.79L17 7L18.19 9.79L21.22 10.05L18.92 12.04L19.61 15L17 13.47L14.39 15L15.08 12.04L12.78 10.05M24 6V16C24 17.11 23.11 18 22 18H6C4.9 18 4 17.11 4 16V4C4 2.89 4.9 2 6 2H12L14 4H22C23.11 4 24 4.9 24 6M22 6H6V16H22V6Z" />
    </g>
    <g id="mdi-folder-star-outline" transform="translate(144 144) scale(1.5)" fill="#555">
      <path d="M10.78 12.05L13.81 11.79L15 9L16.19 11.79L19.22 12.05L16.92 14.04L17.61 17L15 15.47L12.39 17L13.08 14.04L10.78 12.05M22 8V18C22 19.11 21.11 20 20 20H4C2.9 20 2 19.11 2 18V6C2 4.89 2.9 4 4 4H10L12 6H20C21.11 6 22 6.9 22 8M20 8H4V18H20V8Z" />
    </g>
    <g id="mdi-folder-star-outline" transform="translate(180 144) scale(1.5)" fill="#fff">
      <path d="M10.78 12.05L13.81 11.79L15 9L16.19 11.79L19.22 12.05L16.92 14.04L17.61 17L15 15.47L12.39 17L13.08 14.04L10.78 12.05M22 8V18C22 19.11 21.11 20 20 20H4C2.9 20 2 19.11 2 18V6C2 4.89 2.9 4 4 4H10L12 6H20C21.11 6 22 6.9 22 8M20 8H4V18H20V8Z" />
    </g>
    <g id="mdi-folder-swap" transform="translate(216 144) scale(1.5)" fill="#555">
      <path d="M20 6H12L10 4H4A2 2 0 0 0 2 6V18A2 2 0 0 0 4 20H20A2 2 0 0 0 22 18V8A2 2 0 0 0 20 6M15 16V14H9V16L6 13L9 10V12H15V10L18 13Z" />
    </g>
    <g id="mdi-folder-swap" transform="translate(252 144) scale(1.5)" fill="#fff">
      <path d="M20 6H12L10 4H4A2 2 0 0 0 2 6V18A2 2 0 0 0 4 20H20A2 2 0 0 0 22 18V8A2 2 0 0 0 20 6M15 16V14H9V16L6 13L9 10V12H15V10L18 13Z" />
    </g>
    <g id="mdi-folder-swap-outline" transform="translate(288 144) scale(1.5)" fill="#555">
      <path d="M20 18H4V8H20M20 6H12L10 4H4A2 2 0 0 0 2 6V18A2 2 0 0 0 4 20H20A2 2 0 0 0 22 18V8A2 2 0 0 0 20 6M18 13L15 10V12H9V10L6 13L9 16V14H15V16Z" />
    </g>
    <g id="mdi-folder-swap-outline" transform="translate(324 144) scale(1.5)" fill="#fff">
      <path d="M20 18H4V8H20M20 6H12L10 4H4A2 2 0 0 0 2 6V18A2 2 0 0 0 4 20H20A2 2 0 0 0 22 18V8A2 2 0 0 0 20 6M18 13L15 10V12H9V10L6 13L9 16V14H15V16Z" />
    </g>
    <g id="mdi-folder-sync" transform="translate(360 144) scale(1.5)" fill="#555">
      <path d="M10,4L12,6H20A2,2 0 0,1 22,8V11.5C21.23,11.18 20.39,11 19.5,11A6.5,6.5 0 0,0 13,17.5C13,18.39 13.18,19.23 13.5,20H4C2.89,20 2,19.1 2,18V6C2,4.89 2.89,4 4,4H10M19,12V13.5A4,4 0 0,1 23,17.5C23,18.32 22.75,19.08 22.33,19.71L21.24,18.62C21.41,18.28 21.5,17.9 21.5,17.5A2.5,2.5 0 0,0 19,15V16.5L16.75,14.25L19,12M19,23V21.5A4,4 0 0,1 15,17.5C15,16.68 15.25,15.92 15.67,15.29L16.76,16.38C16.59,16.72 16.5,17.1 16.5,17.5A2.5,2.5 0 0,0 19,20V18.5L21.25,20.75L19,23Z" />
    </g>
    <g id="mdi-folder-sync" transform="translate(396 144) scale(1.5)" fill="#fff">
      <path d="M10,4L12,6H20A2,2 0 0,1 22,8V11.5C21.23,11.18 20.39,11 19.5,11A6.5,6.5 0 0,0 13,17.5C13,18.39 13.18,19.23 13.5,20H4C2.89,20 2,19.1 2,18V6C2,4.89 2.89,4 4,4H10M19,12V13.5A4,4 0 0,1 23,17.5C23,18.32 22.75,19.08 22.33,19.71L21.24,18.62C21.41,18.28 21.5,17.9 21.5,17.5A2.5,2.5 0 0,0 19,15V16.5L16.75,14.25L19,12M19,23V21.5A4,4 0 0,1 15,17.5C15,16.68 15.25,15.92 15.67,15.29L16.76,16.38C16.59,16.72 16.5,17.1 16.5,17.5A2.5,2.5 0 0,0 19,20V18.5L21.25,20.75L19,23Z" />
    </g>
    <g id="mdi-folder-sync-outline" transform="translate(432 144) scale(1.5)" fill="#555">
      <path d="M10,4L12,6H20A2,2 0 0,1 22,8V11.5C21.38,11.24 20.7,11.07 20,11V8H4V18H13C13.07,18.7 13.24,19.38 13.5,20H4C2.89,20 2,19.1 2,18V6C2,4.89 2.89,4 4,4H10M19,12V13.5A4,4 0 0,1 23,17.5C23,18.32 22.75,19.08 22.33,19.71L21.24,18.62C21.41,18.28 21.5,17.9 21.5,17.5A2.5,2.5 0 0,0 19,15V16.5L16.75,14.25L16.72,14.22C16.78,14.17 16.85,14.13 19,12M19,23V21.5A4,4 0 0,1 15,17.5C15,16.68 15.25,15.92 15.67,15.29L16.76,16.38C16.59,16.72 16.5,17.1 16.5,17.5A2.5,2.5 0 0,0 19,20V18.5L21.25,20.75L21.28,20.78C21.22,20.83 21.15,20.87 19,23Z" />
    </g>
    <g id="mdi-folder-sync-outline" transform="translate(468 144) scale(1.5)" fill="#fff">
      <path d="M10,4L12,6H20A2,2 0 0,1 22,8V11.5C21.38,11.24 20.7,11.07 20,11V8H4V18H13C13.07,18.7 13.24,19.38 13.5,20H4C2.89,20 2,19.1 2,18V6C2,4.89 2.89,4 4,4H10M19,12V13.5A4,4 0 0,1 23,17.5C23,18.32 22.75,19.08 22.33,19.71L21.24,18.62C21.41,18.28 21.5,17.9 21.5,17.5A2.5,2.5 0 0,0 19,15V16.5L16.75,14.25L16.72,14.22C16.78,14.17 16.85,14.13 19,12M19,23V21.5A4,4 0 0,1 15,17.5C15,16.68 15.25,15.92 15.67,15.29L16.76,16.38C16.59,16.72 16.5,17.1 16.5,17.5A2.5,2.5 0 0,0 19,20V18.5L21.25,20.75L21.28,20.78C21.22,20.83 21.15,20.87 19,23Z" />
    </g>
    <g id="mdi-folder-table" transform="translate(504 144) scale(1.5)" fill="#555">
      <path d="M4 4C2.89 4 2 4.89 2 6V18A2 2 0 0 0 4 20H20A2 2 0 0 0 22 18V8C22 6.89 21.1 6 20 6H12L10 4H4M12 9H15V11H12V9M16 9H19V11H16V9M12 12H15V14H12V12M16 12H19V14H16V12M12 15H15V17H12V15M16 15H19V17H16V15Z" />
    </g>
    <g id="mdi-folder-table" transform="translate(540 144) scale(1.5)" fill="#fff">
      <path d="M4 4C2.89 4 2 4.89 2 6V18A2 2 0 0 0 4 20H20A2 2 0 0 0 22 18V8C22 6.89 21.1 6 20 6H12L10 4H4M12 9H15V11H12V9M16 9H19V11H16V9M12 12H15V14H12V12M16 12H19V14H16V12M12 15H15V17H12V15M16 15H19V17H16V15Z" />
    </g>
    <g id="mdi-folder-table-outline" transform="translate(576 144) scale(1.5)" fill="#555">
      <path d="M4 4C2.89 4 2 4.89 2 6V18A2 2 0 0 0 4 20H20A2 2 0 0 0 22 18V8C22 6.89 21.1 6 20 6H12L10 4H4M4 8H20V18H4V8M12 9V11H15V9H12M16 9V11H19V9H16M12 12V14H15V12H12M16 12V14H19V12H16M12 15V17H15V15H12M16 15V17H19V15H16Z" />
    </g>
    <g id="mdi-folder-table-outline" transform="translate(612 144) scale(1.5)" fill="#fff">
      <path d="M4 4C2.89 4 2 4.89 2 6V18A2 2 0 0 0 4 20H20A2 2 0 0 0 22 18V8C22 6.89 21.1 6 20 6H12L10 4H4M4 8H20V18H4V8M12 9V11H15V9H12M16 9V11H19V9H16M12 12V14H15V12H12M16 12V14H19V12H16M12 15V17H15V15H12M16 15V17H19V15H16Z" />
    </g>
    <g id="mdi-folder-text" transform="translate(648 144) scale(1.5)" fill="#555">
      <path d="M20,6H12L10,4H4A2,2 0 0,0 2,6V18A2,2 0 0,0 4,20H20A2,2 0 0,0 22,18V8A2,2 0 0,0 20,6M15,16H6V14H15V16M18,12H6V10H18V12Z" />
    </g>
    <g id="mdi-folder-text" transform="translate(684 144) scale(1.5)" fill="#fff">
      <path d="M20,6H12L10,4H4A2,2 0 0,0 2,6V18A2,2 0 0,0 4,20H20A2,2 0 0,0 22,18V8A2,2 0 0,0 20,6M15,16H6V14H15V16M18,12H6V10H18V12Z" />
    </g>
    <g id="mdi-folder-text-outline" transform="translate(0 180) scale(1.5)" fill="#555">
      <path d="M20,18H4V8H20M20,6H12L10,4H4A2,2 0 0,0 2,6V18A2,2 0 0,0 4,20H20A2,2 0 0,0 22,18V8A2,2 0 0,0 20,6M15,16H6V14H15V16M18,12H6V10H18V12Z" />
    </g>
    <g id="mdi-folder-text-outline" transform="translate(36 180) scale(1.5)" fill="#fff">
      <path d="M20,18H4V8H20M20,6H12L10,4H4A2,2 0 0,0 2,6V18A2,2 0 0,0 4,20H20A2,2 0 0,0 22,18V8A2,2 0 0,0 20,6M15,16H6V14H15V16M18,12H6V10H18V12Z" />
    </g>
    <g id="mdi-folder-upload" transform="translate(72 180) scale(1.5)" fill="#555">
      <path d="M20,6A2,2 0 0,1 22,8V18A2,2 0 0,1 20,20H4A2,2 0 0,1 2,18V6A2,2 0 0,1 4,4H10L12,6H20M10.75,13H14V17H16V13H19.25L15,8.75" />
    </g>
    <g id="mdi-folder-upload" transform="translate(108 180) scale(1.5)" fill="#fff">
      <path d="M20,6A2,2 0 0,1 22,8V18A2,2 0 0,1 20,20H4A2,2 0 0,1 2,18V6A2,2 0 0,1 4,4H10L12,6H20M10.75,13H14V17H16V13H19.25L15,8.75" />
    </g>
    <g id="mdi-folder-upload-outline" transform="translate(144 180) scale(1.5)" fill="#555">
      <path d="M20 18H4V8H20M20 6H12L10 4H4A2 2 0 0 0 2 6V18A2 2 0 0 0 4 20H20A2 2 0 0 0 22 18V8A2 2 0 0 0 20 6M16 17H14V13H11L15 9L19 13H16Z" />
    </g>
    <g id="mdi-folder-upload-outline" transform="translate(180 180) scale(1.5)" fill="#fff">
      <path d="M20 18H4V8H20M20 6H12L10 4H4A2 2 0 0 0 2 6V18A2 2 0 0 0 4 20H20A2 2 0 0 0 22 18V8A2 2 0 0 0 20 6M16 17H14V13H11L15 9L19 13H16Z" />
    </g>
    <g id="mdi-folder-zip" transform="translate(216 180) scale(1.5)" fill="#555">
      <path d="M20 6H12L10 4H4C2.9 4 2 4.9 2 6V18C2 19.1 2.9 20 4 20H20C21.1 20 22 19.1 22 18V8C22 6.9 21.1 6 20 6M18 12H16V14H18V16H16V18H14V16H16V14H14V12H16V10H14V8H16V10H18V12Z" />
    </g>
    <g id="mdi-folder-zip" transform="translate(252 180) scale(1.5)" fill="#fff">
      <path d="M20 6H12L10 4H4C2.9 4 2 4.9 2 6V18C2 19.1 2.9 20 4 20H20C21.1 20 22 19.1 22 18V8C22 6.9 21.1 6 20 6M18 12H16V14H18V16H16V18H14V16H16V14H14V12H16V10H14V8H16V10H18V12Z" />
    </g>
    <g id="mdi-folder-zip-outline" transform="translate(288 180) scale(1.5)" fill="#555">
      <path d="M20 6H12L10 4H4C2.9 4 2 4.9 2 6V18C2 19.1 2.9 20 4 20H20C21.1 20 22 19.1 22 18V8C22 6.9 21.1 6 20 6M20 18H16V16H14V18H4V8H14V10H16V8H20V18M16 12V10H18V12H16M14 12H16V14H14V12M18 16H16V14H18V16Z" />
    </g>
    <g id="mdi-folder-zip-outline" transform="translate(324 180) scale(1.5)" fill="#fff">
      <path d="M20 6H12L10 4H4C2.9 4 2 4.9 2 6V18C2 19.1 2.9 20 4 20H20C21.1 20 22 19.1 22 18V8C22 6.9 21.1 6 20 6M20 18H16V16H14V18H4V8H14V10H16V8H20V18M16 12V10H18V12H16M14 12H16V14H14V12M18 16H16V14H18V16Z" />
    </g>
    <g id="mdi-font-awesome" transform="translate(360 180) scale(1.5)" fill="#555">
      <path d="M19.76 2H4.24C3 2 2 3 2 4.24V19.76C2 21 3 22 4.24 22H19.76C21 22 22 21 22 19.76V4.24C22 3 21 2 19.76 2M17.73 14.69C17.73 14.88 17.57 14.96 17.38 15.04C16.64 15.36 15.84 15.65 15 15.65C13.78 15.65 13.22 14.91 11.78 14.91C10.74 14.91 9.65 15.28 8.77 15.68C8.71 15.71 8.66 15.71 8.61 15.73V17.76C8.61 17.84 8.61 17.92 8.58 17.97V18.03C8.47 18.4 8.13 18.67 7.73 18.67C7.22 18.67 6.82 18.26 6.82 17.76V8C6.47 7.73 6.24 7.31 6.24 6.83C6.24 6 6.9 5.33 7.73 5.33C8.56 5.33 9.23 6 9.23 6.83C9.23 7.31 9 7.73 8.64 8V8.83C8.72 8.8 8.8 8.77 8.88 8.72C9.71 8.37 10.7 8.08 11.63 8.08C12.64 8.08 13.44 8.35 14.35 8.69C14.54 8.77 14.72 8.8 14.93 8.8C15.95 8.8 17.07 8.08 17.34 8.08C17.55 8.08 17.74 8.24 17.74 8.43V14.69H17.73Z" />
    </g>
    <g id="mdi-font-awesome" transform="translate(396 180) scale(1.5)" fill="#fff">
      <path d="M19.76 2H4.24C3 2 2 3 2 4.24V19.76C2 21 3 22 4.24 22H19.76C21 22 22 21 22 19.76V4.24C22 3 21 2 19.76 2M17.73 14.69C17.73 14.88 17.57 14.96 17.38 15.04C16.64 15.36 15.84 15.65 15 15.65C13.78 15.65 13.22 14.91 11.78 14.91C10.74 14.91 9.65 15.28 8.77 15.68C8.71 15.71 8.66 15.71 8.61 15.73V17.76C8.61 17.84 8.61 17.92 8.58 17.97V18.03C8.47 18.4 8.13 18.67 7.73 18.67C7.22 18.67 6.82 18.26 6.82 17.76V8C6.47 7.73 6.24 7.31 6.24 6.83C6.24 6 6.9 5.33 7.73 5.33C8.56 5.33 9.23 6 9.23 6.83C9.23 7.31 9 7.73 8.64 8V8.83C8.72 8.8 8.8 8.77 8.88 8.72C9.71 8.37 10.7 8.08 11.63 8.08C12.64 8.08 13.44 8.35 14.35 8.69C14.54 8.77 14.72 8.8 14.93 8.8C15.95 8.8 17.07 8.08 17.34 8.08C17.55 8.08 17.74 8.24 17.74 8.43V14.69H17.73Z" />
    </g>
    <g id="mdi-food" transform="translate(432 180) scale(1.5)" fill="#555">
      <path d="M15.5,21L14,8H16.23L15.1,3.46L16.84,3L18.09,8H22L20.5,21H15.5M5,11H10A3,3 0 0,1 13,14H2A3,3 0 0,1 5,11M13,18A3,3 0 0,1 10,21H5A3,3 0 0,1 2,18H13M3,15H8L9.5,16.5L11,15H12A1,1 0 0,1 13,16A1,1 0 0,1 12,17H3A1,1 0 0,1 2,16A1,1 0 0,1 3,15Z" />
    </g>
    <g id="mdi-food" transform="translate(468 180) scale(1.5)" fill="#fff">
      <path d="M15.5,21L14,8H16.23L15.1,3.46L16.84,3L18.09,8H22L20.5,21H15.5M5,11H10A3,3 0 0,1 13,14H2A3,3 0 0,1 5,11M13,18A3,3 0 0,1 10,21H5A3,3 0 0,1 2,18H13M3,15H8L9.5,16.5L11,15H12A1,1 0 0,1 13,16A1,1 0 0,1 12,17H3A1,1 0 0,1 2,16A1,1 0 0,1 3,15Z" />
    </g>
    <g id="mdi-food-apple" transform="translate(504 180) scale(1.5)" fill="#555">
      <path d="M20,10C22,13 17,22 15,22C13,22 13,21 12,21C11,21 11,22 9,22C7,22 2,13 4,10C6,7 9,7 11,8V5C5.38,8.07 4.11,3.78 4.11,3.78C4.11,3.78 6.77,0.19 11,5V3H13V8C15,7 18,7 20,10Z" />
    </g>
    <g id="mdi-food-apple" transform="translate(540 180) scale(1.5)" fill="#fff">
      <path d="M20,10C22,13 17,22 15,22C13,22 13,21 12,21C11,21 11,22 9,22C7,22 2,13 4,10C6,7 9,7 11,8V5C5.38,8.07 4.11,3.78 4.11,3.78C4.11,3.78 6.77,0.19 11,5V3H13V8C15,7 18,7 20,10Z" />
    </g>
    <g id="mdi-food-apple-outline" transform="translate(576 180) scale(1.5)" fill="#555">
      <path d="M20,10C18.58,7.57 15.5,6.69 13,8V3H11V8C8.5,6.69 5.42,7.57 4,10C2,13 7,22 9,22C11,22 11,21 12,21C13,21 13,22 15,22C17,22 22,13 20,10M18.25,13.38C17.63,15.85 16.41,18.12 14.7,20C14.5,20 14.27,19.9 14.1,19.75C12.87,18.76 11.13,18.76 9.9,19.75C9.73,19.9 9.5,20 9.3,20C7.59,18.13 6.36,15.85 5.75,13.39C5.5,12.66 5.45,11.87 5.66,11.12C6.24,10.09 7.32,9.43 8.5,9.4C9.06,9.41 9.61,9.54 10.11,9.79L11,10.24H13L13.89,9.79C14.39,9.54 14.94,9.41 15.5,9.4C16.68,9.43 17.76,10.08 18.34,11.11C18.55,11.86 18.5,12.65 18.25,13.38M11,5C5.38,8.07 4.11,3.78 4.11,3.78C4.11,3.78 6.77,0.19 11,5Z" />
    </g>
    <g id="mdi-food-apple-outline" transform="translate(612 180) scale(1.5)" fill="#fff">
      <path d="M20,10C18.58,7.57 15.5,6.69 13,8V3H11V8C8.5,6.69 5.42,7.57 4,10C2,13 7,22 9,22C11,22 11,21 12,21C13,21 13,22 15,22C17,22 22,13 20,10M18.25,13.38C17.63,15.85 16.41,18.12 14.7,20C14.5,20 14.27,19.9 14.1,19.75C12.87,18.76 11.13,18.76 9.9,19.75C9.73,19.9 9.5,20 9.3,20C7.59,18.13 6.36,15.85 5.75,13.39C5.5,12.66 5.45,11.87 5.66,11.12C6.24,10.09 7.32,9.43 8.5,9.4C9.06,9.41 9.61,9.54 10.11,9.79L11,10.24H13L13.89,9.79C14.39,9.54 14.94,9.41 15.5,9.4C16.68,9.43 17.76,10.08 18.34,11.11C18.55,11.86 18.5,12.65 18.25,13.38M11,5C5.38,8.07 4.11,3.78 4.11,3.78C4.11,3.78 6.77,0.19 11,5Z" />
    </g>
    <g id="mdi-food-croissant" transform="translate(648 180) scale(1.5)" fill="#555">
      <path d="M22,19L19,17L22,15V19M15,15L19,9L22,13L18,16L15,15M5,17L2,19V15L5,17M9,15L6,16L2,13L5,9L9,15M14,6L18,8L13,15H11L6,8L10,6H14Z" />
    </g>
    <g id="mdi-food-croissant" transform="translate(684 180) scale(1.5)" fill="#fff">
      <path d="M22,19L19,17L22,15V19M15,15L19,9L22,13L18,16L15,15M5,17L2,19V15L5,17M9,15L6,16L2,13L5,9L9,15M14,6L18,8L13,15H11L6,8L10,6H14Z" />
    </g>
    <g id="mdi-food-fork-drink" transform="translate(0 216) scale(1.5)" fill="#555">
      <path d="M3,3A1,1 0 0,0 2,4V8L2,9.5C2,11.19 3.03,12.63 4.5,13.22V19.5A1.5,1.5 0 0,0 6,21A1.5,1.5 0 0,0 7.5,19.5V13.22C8.97,12.63 10,11.19 10,9.5V8L10,4A1,1 0 0,0 9,3A1,1 0 0,0 8,4V8A0.5,0.5 0 0,1 7.5,8.5A0.5,0.5 0 0,1 7,8V4A1,1 0 0,0 6,3A1,1 0 0,0 5,4V8A0.5,0.5 0 0,1 4.5,8.5A0.5,0.5 0 0,1 4,8V4A1,1 0 0,0 3,3M19.88,3C19.75,3 19.62,3.09 19.5,3.16L16,5.25V9H12V11H13L14,21H20L21,11H22V9H18V6.34L20.5,4.84C21,4.56 21.13,4 20.84,3.5C20.63,3.14 20.26,2.95 19.88,3Z" />
    </g>
    <g id="mdi-food-fork-drink" transform="translate(36 216) scale(1.5)" fill="#fff">
      <path d="M3,3A1,1 0 0,0 2,4V8L2,9.5C2,11.19 3.03,12.63 4.5,13.22V19.5A1.5,1.5 0 0,0 6,21A1.5,1.5 0 0,0 7.5,19.5V13.22C8.97,12.63 10,11.19 10,9.5V8L10,4A1,1 0 0,0 9,3A1,1 0 0,0 8,4V8A0.5,0.5 0 0,1 7.5,8.5A0.5,0.5 0 0,1 7,8V4A1,1 0 0,0 6,3A1,1 0 0,0 5,4V8A0.5,0.5 0 0,1 4.5,8.5A0.5,0.5 0 0,1 4,8V4A1,1 0 0,0 3,3M19.88,3C19.75,3 19.62,3.09 19.5,3.16L16,5.25V9H12V11H13L14,21H20L21,11H22V9H18V6.34L20.5,4.84C21,4.56 21.13,4 20.84,3.5C20.63,3.14 20.26,2.95 19.88,3Z" />
    </g>
    <g id="mdi-food-off" transform="translate(72 216) scale(1.5)" fill="#555">
      <path d="M2,5.27L3.28,4L21,21.72L19.73,23L17.73,21H15.5L15.21,18.5L12.97,16.24C12.86,16.68 12.47,17 12,17H3A1,1 0 0,1 2,16A1,1 0 0,1 3,15H8L9.5,16.5L11,15H11.73L10.73,14H2A3,3 0 0,1 5,11H7.73L2,5.27M14,8H16.23L15.1,3.46L16.84,3L18.09,8H22L20.74,18.92L14.54,12.72L14,8M13,18A3,3 0 0,1 10,21H5A3,3 0 0,1 2,18H13Z" />
    </g>
    <g id="mdi-food-off" transform="translate(108 216) scale(1.5)" fill="#fff">
      <path d="M2,5.27L3.28,4L21,21.72L19.73,23L17.73,21H15.5L15.21,18.5L12.97,16.24C12.86,16.68 12.47,17 12,17H3A1,1 0 0,1 2,16A1,1 0 0,1 3,15H8L9.5,16.5L11,15H11.73L10.73,14H2A3,3 0 0,1 5,11H7.73L2,5.27M14,8H16.23L15.1,3.46L16.84,3L18.09,8H22L20.74,18.92L14.54,12.72L14,8M13,18A3,3 0 0,1 10,21H5A3,3 0 0,1 2,18H13Z" />
    </g>
    <g id="mdi-food-variant" transform="translate(144 216) scale(1.5)" fill="#555">
      <path d="M22,18A4,4 0 0,1 18,22H15A4,4 0 0,1 11,18V16H17.79L20.55,11.23L22.11,12.13L19.87,16H22V18M9,22H2C2,19 2,16 2.33,12.83C2.6,10.3 3.08,7.66 3.6,5H3V3H4L7,3H8V5H7.4C7.92,7.66 8.4,10.3 8.67,12.83C9,16 9,19 9,22Z" />
    </g>
    <g id="mdi-food-variant" transform="translate(180 216) scale(1.5)" fill="#fff">
      <path d="M22,18A4,4 0 0,1 18,22H15A4,4 0 0,1 11,18V16H17.79L20.55,11.23L22.11,12.13L19.87,16H22V18M9,22H2C2,19 2,16 2.33,12.83C2.6,10.3 3.08,7.66 3.6,5H3V3H4L7,3H8V5H7.4C7.92,7.66 8.4,10.3 8.67,12.83C9,16 9,19 9,22Z" />
    </g>
    <g id="mdi-food-variant-off" transform="translate(216 216) scale(1.5)" fill="#555">
      <path d="M2.28 3L1 4.27L3.31 6.58C2.91 8.7 2.55 10.8 2.33 12.83C2 16 2 19 2 22H9C9 19 9 16 8.67 12.83C8.63 12.5 8.58 12.15 8.54 11.81L12.73 16H11V18C11 20.21 12.79 22 15 22H18C18.23 22 18.45 22 18.67 21.94L19.73 23L21 21.72M4.82 3L7.53 5.71C7.5 5.47 7.45 5.24 7.4 5H8V3H7M20.55 11.23L17.8 16L21.59 19.76C21.86 19.21 22 18.61 22 18V16H19.87L22.11 12.13Z" />
    </g>
    <g id="mdi-food-variant-off" transform="translate(252 216) scale(1.5)" fill="#fff">
      <path d="M2.28 3L1 4.27L3.31 6.58C2.91 8.7 2.55 10.8 2.33 12.83C2 16 2 19 2 22H9C9 19 9 16 8.67 12.83C8.63 12.5 8.58 12.15 8.54 11.81L12.73 16H11V18C11 20.21 12.79 22 15 22H18C18.23 22 18.45 22 18.67 21.94L19.73 23L21 21.72M4.82 3L7.53 5.71C7.5 5.47 7.45 5.24 7.4 5H8V3H7M20.55 11.23L17.8 16L21.59 19.76C21.86 19.21 22 18.61 22 18V16H19.87L22.11 12.13Z" />
    </g>
    <g id="mdi-foot-print" transform="translate(288 216) scale(1.5)" fill="#555">
      <path d="M16 2A2 2 0 1 1 14 4A2 2 0 0 1 16 2M12.04 3A1.5 1.5 0 1 1 10.54 4.5A1.5 1.5 0 0 1 12.04 3M9.09 4.5A1 1 0 1 1 8.09 5.5A1 1 0 0 1 9.09 4.5M7.04 6A1 1 0 1 1 6.04 7A1 1 0 0 1 7.04 6M14.53 12A2.5 2.5 0 0 0 17 9.24A2.6 2.6 0 0 0 14.39 7H11.91A6 6 0 0 0 6.12 11.4A2 2 0 0 0 6.23 12.8A6.8 6.8 0 0 1 6.91 15.76A6.89 6.89 0 0 1 6.22 18.55A1.92 1.92 0 0 0 6.3 20.31A3.62 3.62 0 0 0 10.19 21.91A3.5 3.5 0 0 0 12.36 16.63A2.82 2.82 0 0 1 11.91 15S11.68 12 14.53 12Z" />
    </g>
    <g id="mdi-foot-print" transform="translate(324 216) scale(1.5)" fill="#fff">
      <path d="M16 2A2 2 0 1 1 14 4A2 2 0 0 1 16 2M12.04 3A1.5 1.5 0 1 1 10.54 4.5A1.5 1.5 0 0 1 12.04 3M9.09 4.5A1 1 0 1 1 8.09 5.5A1 1 0 0 1 9.09 4.5M7.04 6A1 1 0 1 1 6.04 7A1 1 0 0 1 7.04 6M14.53 12A2.5 2.5 0 0 0 17 9.24A2.6 2.6 0 0 0 14.39 7H11.91A6 6 0 0 0 6.12 11.4A2 2 0 0 0 6.23 12.8A6.8 6.8 0 0 1 6.91 15.76A6.89 6.89 0 0 1 6.22 18.55A1.92 1.92 0 0 0 6.3 20.31A3.62 3.62 0 0 0 10.19 21.91A3.5 3.5 0 0 0 12.36 16.63A2.82 2.82 0 0 1 11.91 15S11.68 12 14.53 12Z" />
    </g>
    <g id="mdi-football" transform="translate(360 216) scale(1.5)" fill="#555">
      <path d="M7.5,7.5C9.17,5.87 11.29,4.69 13.37,4.18C15.46,3.67 17.5,3.83 18.6,4C19.71,4.15 19.87,4.31 20.03,5.41C20.18,6.5 20.33,8.55 19.82,10.63C19.31,12.71 18.13,14.83 16.5,16.5C14.83,18.13 12.71,19.31 10.63,19.82C8.55,20.33 6.5,20.18 5.41,20.03C4.31,19.87 4.15,19.71 4,18.6C3.83,17.5 3.67,15.46 4.18,13.37C4.69,11.29 5.87,9.17 7.5,7.5M7.3,15.79L8.21,16.7L9.42,15.5L10.63,16.7L11.54,15.79L10.34,14.58L12,12.91L13.21,14.12L14.12,13.21L12.91,12L14.58,10.34L15.79,11.54L16.7,10.63L15.5,9.42L16.7,8.21L15.79,7.3L14.58,8.5L13.37,7.3L12.46,8.21L13.66,9.42L12,11.09L10.79,9.88L9.88,10.79L11.09,12L9.42,13.66L8.21,12.46L7.3,13.37L8.5,14.58L7.3,15.79Z" />
    </g>
    <g id="mdi-football" transform="translate(396 216) scale(1.5)" fill="#fff">
      <path d="M7.5,7.5C9.17,5.87 11.29,4.69 13.37,4.18C15.46,3.67 17.5,3.83 18.6,4C19.71,4.15 19.87,4.31 20.03,5.41C20.18,6.5 20.33,8.55 19.82,10.63C19.31,12.71 18.13,14.83 16.5,16.5C14.83,18.13 12.71,19.31 10.63,19.82C8.55,20.33 6.5,20.18 5.41,20.03C4.31,19.87 4.15,19.71 4,18.6C3.83,17.5 3.67,15.46 4.18,13.37C4.69,11.29 5.87,9.17 7.5,7.5M7.3,15.79L8.21,16.7L9.42,15.5L10.63,16.7L11.54,15.79L10.34,14.58L12,12.91L13.21,14.12L14.12,13.21L12.91,12L14.58,10.34L15.79,11.54L16.7,10.63L15.5,9.42L16.7,8.21L15.79,7.3L14.58,8.5L13.37,7.3L12.46,8.21L13.66,9.42L12,11.09L10.79,9.88L9.88,10.79L11.09,12L9.42,13.66L8.21,12.46L7.3,13.37L8.5,14.58L7.3,15.79Z" />
    </g>
    <g id="mdi-football-australian" transform="translate(432 216) scale(1.5)" fill="#555">
      <path d="M7.5,7.5C9.17,5.87 11.29,4.69 13.37,4.18C18,3 21,6 19.82,10.63C19.31,12.71 18.13,14.83 16.5,16.5C14.83,18.13 12.71,19.31 10.63,19.82C6,21 3,18 4.18,13.37C4.69,11.29 5.87,9.17 7.5,7.5M10.62,11.26L10.26,11.62L12.38,13.74L12.74,13.38L10.62,11.26M11.62,10.26L11.26,10.62L13.38,12.74L13.74,12.38L11.62,10.26M9.62,12.26L9.26,12.62L11.38,14.74L11.74,14.38L9.62,12.26M12.63,9.28L12.28,9.63L14.4,11.75L14.75,11.4L12.63,9.28M8.63,13.28L8.28,13.63L10.4,15.75L10.75,15.4L8.63,13.28M13.63,8.28L13.28,8.63L15.4,10.75L15.75,10.4L13.63,8.28Z" />
    </g>
    <g id="mdi-football-australian" transform="translate(468 216) scale(1.5)" fill="#fff">
      <path d="M7.5,7.5C9.17,5.87 11.29,4.69 13.37,4.18C18,3 21,6 19.82,10.63C19.31,12.71 18.13,14.83 16.5,16.5C14.83,18.13 12.71,19.31 10.63,19.82C6,21 3,18 4.18,13.37C4.69,11.29 5.87,9.17 7.5,7.5M10.62,11.26L10.26,11.62L12.38,13.74L12.74,13.38L10.62,11.26M11.62,10.26L11.26,10.62L13.38,12.74L13.74,12.38L11.62,10.26M9.62,12.26L9.26,12.62L11.38,14.74L11.74,14.38L9.62,12.26M12.63,9.28L12.28,9.63L14.4,11.75L14.75,11.4L12.63,9.28M8.63,13.28L8.28,13.63L10.4,15.75L10.75,15.4L8.63,13.28M13.63,8.28L13.28,8.63L15.4,10.75L15.75,10.4L13.63,8.28Z" />
    </g>
    <g id="mdi-football-helmet" transform="translate(504 216) scale(1.5)" fill="#555">
      <path d="M13.5,12A1.5,1.5 0 0,0 12,13.5A1.5,1.5 0 0,0 13.5,15A1.5,1.5 0 0,0 15,13.5A1.5,1.5 0 0,0 13.5,12M13.5,3C18.19,3 22,6.58 22,11C22,12.62 22,14 21.09,16C17,16 16,20 12.5,20C10.32,20 9.27,18.28 9.05,16H9L8.24,16L6.96,20.3C6.81,20.79 6.33,21.08 5.84,21H3A1,1 0 0,1 2,20A1,1 0 0,1 3,19V16A1,1 0 0,1 2,15A1,1 0 0,1 3,14H6.75L7.23,12.39C6.72,12.14 6.13,12 5.5,12H5.07L5,11C5,6.58 8.81,3 13.5,3M5,16V19H5.26L6.15,16H5Z" />
    </g>
    <g id="mdi-football-helmet" transform="translate(540 216) scale(1.5)" fill="#fff">
      <path d="M13.5,12A1.5,1.5 0 0,0 12,13.5A1.5,1.5 0 0,0 13.5,15A1.5,1.5 0 0,0 15,13.5A1.5,1.5 0 0,0 13.5,12M13.5,3C18.19,3 22,6.58 22,11C22,12.62 22,14 21.09,16C17,16 16,20 12.5,20C10.32,20 9.27,18.28 9.05,16H9L8.24,16L6.96,20.3C6.81,20.79 6.33,21.08 5.84,21H3A1,1 0 0,1 2,20A1,1 0 0,1 3,19V16A1,1 0 0,1 2,15A1,1 0 0,1 3,14H6.75L7.23,12.39C6.72,12.14 6.13,12 5.5,12H5.07L5,11C5,6.58 8.81,3 13.5,3M5,16V19H5.26L6.15,16H5Z" />
    </g>
    <g id="mdi-forklift" transform="translate(576 216) scale(1.5)" fill="#555">
      <path d="M6,4V11H4C2.89,11 2,11.89 2,13V17A3,3 0 0,0 5,20A3,3 0 0,0 8,17H10A3,3 0 0,0 13,20A3,3 0 0,0 16,17V13L12,4H6M17,5V19H22V17.5H18.5V5H17M7.5,5.5H11.2L14.5,13H7.5V5.5M5,15.5A1.5,1.5 0 0,1 6.5,17A1.5,1.5 0 0,1 5,18.5A1.5,1.5 0 0,1 3.5,17A1.5,1.5 0 0,1 5,15.5M13,15.5A1.5,1.5 0 0,1 14.5,17A1.5,1.5 0 0,1 13,18.5A1.5,1.5 0 0,1 11.5,17A1.5,1.5 0 0,1 13,15.5Z" />
    </g>
    <g id="mdi-forklift" transform="translate(612 216) scale(1.5)" fill="#fff">
      <path d="M6,4V11H4C2.89,11 2,11.89 2,13V17A3,3 0 0,0 5,20A3,3 0 0,0 8,17H10A3,3 0 0,0 13,20A3,3 0 0,0 16,17V13L12,4H6M17,5V19H22V17.5H18.5V5H17M7.5,5.5H11.2L14.5,13H7.5V5.5M5,15.5A1.5,1.5 0 0,1 6.5,17A1.5,1.5 0 0,1 5,18.5A1.5,1.5 0 0,1 3.5,17A1.5,1.5 0 0,1 5,15.5M13,15.5A1.5,1.5 0 0,1 14.5,17A1.5,1.5 0 0,1 13,18.5A1.5,1.5 0 0,1 11.5,17A1.5,1.5 0 0,1 13,15.5Z" />
    </g>
    <g id="mdi-form-dropdown" transform="translate(648 216) scale(1.5)" fill="#555">
      <path d="M17 5H20L18.5 7L17 5M3 2H21C22.11 2 23 2.9 23 4V8C23 9.11 22.11 10 21 10H16V20C16 21.11 15.11 22 14 22H3C1.9 22 1 21.11 1 20V4C1 2.9 1.9 2 3 2M3 4V8H14V4H3M21 8V4H16V8H21M3 20H14V10H3V20M5 12H12V14H5V12M5 16H12V18H5V16Z" />
    </g>
    <g id="mdi-form-dropdown" transform="translate(684 216) scale(1.5)" fill="#fff">
      <path d="M17 5H20L18.5 7L17 5M3 2H21C22.11 2 23 2.9 23 4V8C23 9.11 22.11 10 21 10H16V20C16 21.11 15.11 22 14 22H3C1.9 22 1 21.11 1 20V4C1 2.9 1.9 2 3 2M3 4V8H14V4H3M21 8V4H16V8H21M3 20H14V10H3V20M5 12H12V14H5V12M5 16H12V18H5V16Z" />
    </g>
    <g id="mdi-form-select" transform="translate(0 252) scale(1.5)" fill="#555">
      <path d="M15 5H18L16.5 7L15 5M5 2H19C20.11 2 21 2.9 21 4V20C21 21.11 20.11 22 19 22H5C3.9 22 3 21.11 3 20V4C3 2.9 3.9 2 5 2M5 4V8H19V4H5M5 20H19V10H5V20M7 12H17V14H7V12M7 16H17V18H7V16Z" />
    </g>
    <g id="mdi-form-select" transform="translate(36 252) scale(1.5)" fill="#fff">
      <path d="M15 5H18L16.5 7L15 5M5 2H19C20.11 2 21 2.9 21 4V20C21 21.11 20.11 22 19 22H5C3.9 22 3 21.11 3 20V4C3 2.9 3.9 2 5 2M5 4V8H19V4H5M5 20H19V10H5V20M7 12H17V14H7V12M7 16H17V18H7V16Z" />
    </g>
    <g id="mdi-form-textarea" transform="translate(72 252) scale(1.5)" fill="#555">
      <path d="M13 9H4V23H2V7H13M23 9V7H17V5A1 1 0 0 1 18 4H20V2H17.5C17 2 16 2.45 16 3C16 2.45 15.05 2 14.5 2H12V4H14A1 1 0 0 1 15 5V19A1 1 0 0 1 14 20H12V22H14.5C15.05 22 16 21.55 16 21C16 21.55 16.95 22 17.5 22H20V20H18A1 1 0 0 1 17 19V9Z" />
    </g>
    <g id="mdi-form-textarea" transform="translate(108 252) scale(1.5)" fill="#fff">
      <path d="M13 9H4V23H2V7H13M23 9V7H17V5A1 1 0 0 1 18 4H20V2H17.5C17 2 16 2.45 16 3C16 2.45 15.05 2 14.5 2H12V4H14A1 1 0 0 1 15 5V19A1 1 0 0 1 14 20H12V22H14.5C15.05 22 16 21.55 16 21C16 21.55 16.95 22 17.5 22H20V20H18A1 1 0 0 1 17 19V9Z" />
    </g>
    <g id="mdi-form-textbox" transform="translate(144 252) scale(1.5)" fill="#555">
      <path d="M17,7H22V17H17V19A1,1 0 0,0 18,20H20V22H17.5C16.95,22 16,21.55 16,21C16,21.55 15.05,22 14.5,22H12V20H14A1,1 0 0,0 15,19V5A1,1 0 0,0 14,4H12V2H14.5C15.05,2 16,2.45 16,3C16,2.45 16.95,2 17.5,2H20V4H18A1,1 0 0,0 17,5V7M2,7H13V9H4V15H13V17H2V7M20,15V9H17V15H20Z" />
    </g>
    <g id="mdi-form-textbox" transform="translate(180 252) scale(1.5)" fill="#fff">
      <path d="M17,7H22V17H17V19A1,1 0 0,0 18,20H20V22H17.5C16.95,22 16,21.55 16,21C16,21.55 15.05,22 14.5,22H12V20H14A1,1 0 0,0 15,19V5A1,1 0 0,0 14,4H12V2H14.5C15.05,2 16,2.45 16,3C16,2.45 16.95,2 17.5,2H20V4H18A1,1 0 0,0 17,5V7M2,7H13V9H4V15H13V17H2V7M20,15V9H17V15H20Z" />
    </g>
    <g id="mdi-form-textbox-lock" transform="translate(216 252) scale(1.5)" fill="#555">
      <path d="M2 7H6V9H4V15H6V17H2V7M10 7H22V12C21.42 11.56 20.74 11.25 20 11.1V9H10V15H14.25C13.56 15 13 15.56 13 16.25V17H10V19C10 19.55 10.45 20 11 20H13V22H10.5C9.95 22 9 21.55 9 21C9 21.55 8.05 22 7.5 22H5V20H7C7.55 20 8 19.55 8 19V5C8 4.45 7.55 4 7 4H5V2H7.5C8.05 2 9 2.45 9 3C9 2.45 9.95 2 10.5 2H13V4H11C10.45 4 10 4.45 10 5V7M21.8 17C22.4 17 23 17.6 23 18.3V21.8C23 22.4 22.4 23 21.7 23H16.2C15.6 23 15 22.4 15 21.7V18.2C15 17.6 15.6 17 16.2 17V15.5C16.2 14.1 17.6 13 19 13C20.4 13 21.8 14.1 21.8 15.5V17M20.5 17V15.5C20.5 14.7 19.8 14.2 19 14.2C18.2 14.2 17.5 14.7 17.5 15.5V17H20.5Z" />
    </g>
    <g id="mdi-form-textbox-lock" transform="translate(252 252) scale(1.5)" fill="#fff">
      <path d="M2 7H6V9H4V15H6V17H2V7M10 7H22V12C21.42 11.56 20.74 11.25 20 11.1V9H10V15H14.25C13.56 15 13 15.56 13 16.25V17H10V19C10 19.55 10.45 20 11 20H13V22H10.5C9.95 22 9 21.55 9 21C9 21.55 8.05 22 7.5 22H5V20H7C7.55 20 8 19.55 8 19V5C8 4.45 7.55 4 7 4H5V2H7.5C8.05 2 9 2.45 9 3C9 2.45 9.95 2 10.5 2H13V4H11C10.45 4 10 4.45 10 5V7M21.8 17C22.4 17 23 17.6 23 18.3V21.8C23 22.4 22.4 23 21.7 23H16.2C15.6 23 15 22.4 15 21.7V18.2C15 17.6 15.6 17 16.2 17V15.5C16.2 14.1 17.6 13 19 13C20.4 13 21.8 14.1 21.8 15.5V17M20.5 17V15.5C20.5 14.7 19.8 14.2 19 14.2C18.2 14.2 17.5 14.7 17.5 15.5V17H20.5Z" />
    </g>
    <g id="mdi-form-textbox-password" transform="translate(288 252) scale(1.5)" fill="#555">
      <path d="M17,7H22V17H17V19A1,1 0 0,0 18,20H20V22H17.5C16.95,22 16,21.55 16,21C16,21.55 15.05,22 14.5,22H12V20H14A1,1 0 0,0 15,19V5A1,1 0 0,0 14,4H12V2H14.5C15.05,2 16,2.45 16,3C16,2.45 16.95,2 17.5,2H20V4H18A1,1 0 0,0 17,5V7M2,7H13V9H4V15H13V17H2V7M20,15V9H17V15H20M8.5,12A1.5,1.5 0 0,0 7,10.5A1.5,1.5 0 0,0 5.5,12A1.5,1.5 0 0,0 7,13.5A1.5,1.5 0 0,0 8.5,12M13,10.89C12.39,10.33 11.44,10.38 10.88,11C10.32,11.6 10.37,12.55 11,13.11C11.55,13.63 12.43,13.63 13,13.11V10.89Z" />
    </g>
    <g id="mdi-form-textbox-password" transform="translate(324 252) scale(1.5)" fill="#fff">
      <path d="M17,7H22V17H17V19A1,1 0 0,0 18,20H20V22H17.5C16.95,22 16,21.55 16,21C16,21.55 15.05,22 14.5,22H12V20H14A1,1 0 0,0 15,19V5A1,1 0 0,0 14,4H12V2H14.5C15.05,2 16,2.45 16,3C16,2.45 16.95,2 17.5,2H20V4H18A1,1 0 0,0 17,5V7M2,7H13V9H4V15H13V17H2V7M20,15V9H17V15H20M8.5,12A1.5,1.5 0 0,0 7,10.5A1.5,1.5 0 0,0 5.5,12A1.5,1.5 0 0,0 7,13.5A1.5,1.5 0 0,0 8.5,12M13,10.89C12.39,10.33 11.44,10.38 10.88,11C10.32,11.6 10.37,12.55 11,13.11C11.55,13.63 12.43,13.63 13,13.11V10.89Z" />
    </g>
    <g id="mdi-format-align-bottom" transform="translate(360 252) scale(1.5)" fill="#555">
      <path d="M13,9L15.5,6.5L16.92,7.92L12,12.84L7.08,7.92L8.5,6.5L11,9V3H13V9M3,15H21V17H3V15M3,19H13V21H3V19Z" />
    </g>
    <g id="mdi-format-align-bottom" transform="translate(396 252) scale(1.5)" fill="#fff">
      <path d="M13,9L15.5,6.5L16.92,7.92L12,12.84L7.08,7.92L8.5,6.5L11,9V3H13V9M3,15H21V17H3V15M3,19H13V21H3V19Z" />
    </g>
    <g id="mdi-format-align-center" transform="translate(432 252) scale(1.5)" fill="#555">
      <path d="M3,3H21V5H3V3M7,7H17V9H7V7M3,11H21V13H3V11M7,15H17V17H7V15M3,19H21V21H3V19Z" />
    </g>
    <g id="mdi-format-align-center" transform="translate(468 252) scale(1.5)" fill="#fff">
      <path d="M3,3H21V5H3V3M7,7H17V9H7V7M3,11H21V13H3V11M7,15H17V17H7V15M3,19H21V21H3V19Z" />
    </g>
    <g id="mdi-format-align-justify" transform="translate(504 252) scale(1.5)" fill="#555">
      <path d="M3,3H21V5H3V3M3,7H21V9H3V7M3,11H21V13H3V11M3,15H21V17H3V15M3,19H21V21H3V19Z" />
    </g>
    <g id="mdi-format-align-justify" transform="translate(540 252) scale(1.5)" fill="#fff">
      <path d="M3,3H21V5H3V3M3,7H21V9H3V7M3,11H21V13H3V11M3,15H21V17H3V15M3,19H21V21H3V19Z" />
    </g>
    <g id="mdi-format-align-left" transform="translate(576 252) scale(1.5)" fill="#555">
      <path d="M3,3H21V5H3V3M3,7H15V9H3V7M3,11H21V13H3V11M3,15H15V17H3V15M3,19H21V21H3V19Z" />
    </g>
    <g id="mdi-format-align-left" transform="translate(612 252) scale(1.5)" fill="#fff">
      <path d="M3,3H21V5H3V3M3,7H15V9H3V7M3,11H21V13H3V11M3,15H15V17H3V15M3,19H21V21H3V19Z" />
    </g>
    <g id="mdi-format-align-middle" transform="translate(648 252) scale(1.5)" fill="#555">
      <path d="M13,6L15,4L16.42,5.42L12,9.84L7.58,5.42L9,4L11,6V2H13V6M3,11H21V13H3V11M13,18V22H11V18L9,20L7.58,18.58L12,14.16L16.42,18.58L15,20L13,18Z" />
    </g>
    <g id="mdi-format-align-middle" transform="translate(684 252) scale(1.5)" fill="#fff">
      <path d="M13,6L15,4L16.42,5.42L12,9.84L7.58,5.42L9,4L11,6V2H13V6M3,11H21V13H3V11M13,18V22H11V18L9,20L7.58,18.58L12,14.16L16.42,18.58L15,20L13,18Z" />
    </g>
    <g id="mdi-format-align-right" transform="translate(0 288) scale(1.5)" fill="#555">
      <path d="M3,3H21V5H3V3M9,7H21V9H9V7M3,11H21V13H3V11M9,15H21V17H9V15M3,19H21V21H3V19Z" />
    </g>
    <g id="mdi-format-align-right" transform="translate(36 288) scale(1.5)" fill="#fff">
      <path d="M3,3H21V5H3V3M9,7H21V9H9V7M3,11H21V13H3V11M9,15H21V17H9V15M3,19H21V21H3V19Z" />
    </g>
    <g id="mdi-format-align-top" transform="translate(72 288) scale(1.5)" fill="#555">
      <path d="M13,15L15.5,17.5L16.92,16.08L12,11.16L7.08,16.08L8.5,17.5L11,15V21H13V15M3,3H21V5H3V3M3,7H13V9H3V7Z" />
    </g>
    <g id="mdi-format-align-top" transform="translate(108 288) scale(1.5)" fill="#fff">
      <path d="M13,15L15.5,17.5L16.92,16.08L12,11.16L7.08,16.08L8.5,17.5L11,15V21H13V15M3,3H21V5H3V3M3,7H13V9H3V7Z" />
    </g>
    <g id="mdi-format-annotation-minus" transform="translate(144 288) scale(1.5)" fill="#555">
      <path d="M10.5,7H8.5L3,21H5.2L6.3,18H12.5L13.6,21H16L10.5,7M7.1,16L9.5,9.7L11.9,16H7.1M22,7H14V5H22V7Z" />
    </g>
    <g id="mdi-format-annotation-minus" transform="translate(180 288) scale(1.5)" fill="#fff">
      <path d="M10.5,7H8.5L3,21H5.2L6.3,18H12.5L13.6,21H16L10.5,7M7.1,16L9.5,9.7L11.9,16H7.1M22,7H14V5H22V7Z" />
    </g>
    <g id="mdi-format-annotation-plus" transform="translate(216 288) scale(1.5)" fill="#555">
      <path d="M8.5,7H10.5L16,21H13.6L12.5,18H6.3L5.2,21H3L8.5,7M7.1,16H11.9L9.5,9.7L7.1,16M22,5V7H19V10H17V7H14V5H17V2H19V5H22Z" />
    </g>
    <g id="mdi-format-annotation-plus" transform="translate(252 288) scale(1.5)" fill="#fff">
      <path d="M8.5,7H10.5L16,21H13.6L12.5,18H6.3L5.2,21H3L8.5,7M7.1,16H11.9L9.5,9.7L7.1,16M22,5V7H19V10H17V7H14V5H17V2H19V5H22Z" />
    </g>
    <g id="mdi-format-bold" transform="translate(288 288) scale(1.5)" fill="#555">
      <path d="M13.5,15.5H10V12.5H13.5A1.5,1.5 0 0,1 15,14A1.5,1.5 0 0,1 13.5,15.5M10,6.5H13A1.5,1.5 0 0,1 14.5,8A1.5,1.5 0 0,1 13,9.5H10M15.6,10.79C16.57,10.11 17.25,9 17.25,8C17.25,5.74 15.5,4 13.25,4H7V18H14.04C16.14,18 17.75,16.3 17.75,14.21C17.75,12.69 16.89,11.39 15.6,10.79Z" />
    </g>
    <g id="mdi-format-bold" transform="translate(324 288) scale(1.5)" fill="#fff">
      <path d="M13.5,15.5H10V12.5H13.5A1.5,1.5 0 0,1 15,14A1.5,1.5 0 0,1 13.5,15.5M10,6.5H13A1.5,1.5 0 0,1 14.5,8A1.5,1.5 0 0,1 13,9.5H10M15.6,10.79C16.57,10.11 17.25,9 17.25,8C17.25,5.74 15.5,4 13.25,4H7V18H14.04C16.14,18 17.75,16.3 17.75,14.21C17.75,12.69 16.89,11.39 15.6,10.79Z" />
    </g>
    <g id="mdi-format-clear" transform="translate(360 288) scale(1.5)" fill="#555">
      <path d="M6,5V5.18L8.82,8H11.22L10.5,9.68L12.6,11.78L14.21,8H20V5H6M3.27,5L2,6.27L8.97,13.24L6.5,19H9.5L11.07,15.34L16.73,21L18,19.73L3.55,5.27L3.27,5Z" />
    </g>
    <g id="mdi-format-clear" transform="translate(396 288) scale(1.5)" fill="#fff">
      <path d="M6,5V5.18L8.82,8H11.22L10.5,9.68L12.6,11.78L14.21,8H20V5H6M3.27,5L2,6.27L8.97,13.24L6.5,19H9.5L11.07,15.34L16.73,21L18,19.73L3.55,5.27L3.27,5Z" />
    </g>
    <g id="mdi-format-color-fill" transform="translate(432 288) scale(1.5)" fill="#555">
      <path d="M19,11.5C19,11.5 17,13.67 17,15A2,2 0 0,0 19,17A2,2 0 0,0 21,15C21,13.67 19,11.5 19,11.5M5.21,10L10,5.21L14.79,10M16.56,8.94L7.62,0L6.21,1.41L8.59,3.79L3.44,8.94C2.85,9.5 2.85,10.47 3.44,11.06L8.94,16.56C9.23,16.85 9.62,17 10,17C10.38,17 10.77,16.85 11.06,16.56L16.56,11.06C17.15,10.47 17.15,9.5 16.56,8.94Z" />
    </g>
    <g id="mdi-format-color-fill" transform="translate(468 288) scale(1.5)" fill="#fff">
      <path d="M19,11.5C19,11.5 17,13.67 17,15A2,2 0 0,0 19,17A2,2 0 0,0 21,15C21,13.67 19,11.5 19,11.5M5.21,10L10,5.21L14.79,10M16.56,8.94L7.62,0L6.21,1.41L8.59,3.79L3.44,8.94C2.85,9.5 2.85,10.47 3.44,11.06L8.94,16.56C9.23,16.85 9.62,17 10,17C10.38,17 10.77,16.85 11.06,16.56L16.56,11.06C17.15,10.47 17.15,9.5 16.56,8.94Z" />
    </g>
    <g id="mdi-format-color-highlight" transform="translate(504 288) scale(1.5)" fill="#555">
      <path d="M4,17L6.75,14.25L6.72,14.23C6.14,13.64 6.14,12.69 6.72,12.11L11.46,7.37L15.7,11.61L10.96,16.35C10.39,16.93 9.46,16.93 8.87,16.37L8.24,17H4M15.91,2.91C16.5,2.33 17.45,2.33 18.03,2.91L20.16,5.03C20.74,5.62 20.74,6.57 20.16,7.16L16.86,10.45L12.62,6.21L15.91,2.91Z" />
    </g>
    <g id="mdi-format-color-highlight" transform="translate(540 288) scale(1.5)" fill="#fff">
      <path d="M4,17L6.75,14.25L6.72,14.23C6.14,13.64 6.14,12.69 6.72,12.11L11.46,7.37L15.7,11.61L10.96,16.35C10.39,16.93 9.46,16.93 8.87,16.37L8.24,17H4M15.91,2.91C16.5,2.33 17.45,2.33 18.03,2.91L20.16,5.03C20.74,5.62 20.74,6.57 20.16,7.16L16.86,10.45L12.62,6.21L15.91,2.91Z" />
    </g>
    <g id="mdi-format-color-marker-cancel" transform="translate(576 288) scale(1.5)" fill="#555">
      <path d="M16.5 8C14 8 12 10 12 12.5S14 17 16.5 17 21 15 21 12.5 19 8 16.5 8M16.5 15.5C14.8 15.5 13.5 14.2 13.5 12.5C13.5 11.9 13.7 11.4 13.9 11L18 15.1C17.6 15.3 17.1 15.5 16.5 15.5M19.1 14L15 9.9C15.4 9.6 15.9 9.5 16.5 9.5C18.2 9.5 19.5 10.8 19.5 12.5C19.5 13.1 19.3 13.6 19.1 14M12.1 7.7L10.6 6.2L13.9 2.9C14.5 2.3 15.4 2.3 16 2.9L18.2 5C18.6 5.4 18.7 5.8 18.6 6.3C18 6.1 17.3 6 16.6 6C14.8 6 13.3 6.7 12.1 7.7M10.5 14.9L9 16.3C8.4 16.9 7.5 16.9 6.9 16.3L6.2 17H2L4.8 14.2C4.2 13.6 4.2 12.7 4.8 12.1L9.5 7.4L11.1 9C10.4 10 10 11.2 10 12.5C10 13.3 10.2 14.1 10.5 14.9Z" />
    </g>
    <g id="mdi-format-color-marker-cancel" transform="translate(612 288) scale(1.5)" fill="#fff">
      <path d="M16.5 8C14 8 12 10 12 12.5S14 17 16.5 17 21 15 21 12.5 19 8 16.5 8M16.5 15.5C14.8 15.5 13.5 14.2 13.5 12.5C13.5 11.9 13.7 11.4 13.9 11L18 15.1C17.6 15.3 17.1 15.5 16.5 15.5M19.1 14L15 9.9C15.4 9.6 15.9 9.5 16.5 9.5C18.2 9.5 19.5 10.8 19.5 12.5C19.5 13.1 19.3 13.6 19.1 14M12.1 7.7L10.6 6.2L13.9 2.9C14.5 2.3 15.4 2.3 16 2.9L18.2 5C18.6 5.4 18.7 5.8 18.6 6.3C18 6.1 17.3 6 16.6 6C14.8 6 13.3 6.7 12.1 7.7M10.5 14.9L9 16.3C8.4 16.9 7.5 16.9 6.9 16.3L6.2 17H2L4.8 14.2C4.2 13.6 4.2 12.7 4.8 12.1L9.5 7.4L11.1 9C10.4 10 10 11.2 10 12.5C10 13.3 10.2 14.1 10.5 14.9Z" />
    </g>
    <g id="mdi-format-color-text" transform="translate(648 288) scale(1.5)" fill="#555">
      <path d="M9.62,12L12,5.67L14.37,12M11,3L5.5,17H7.75L8.87,14H15.12L16.25,17H18.5L13,3H11Z" />
    </g>
    <g id="mdi-format-color-text" transform="translate(684 288) scale(1.5)" fill="#fff">
      <path d="M9.62,12L12,5.67L14.37,12M11,3L5.5,17H7.75L8.87,14H15.12L16.25,17H18.5L13,3H11Z" />
    </g>
    <g id="mdi-format-columns" transform="translate(0 324) scale(1.5)" fill="#555">
      <path d="M3,3H11V5H3V3M13,3H21V5H13V3M3,7H11V9H3V7M13,7H21V9H13V7M3,11H11V13H3V11M13,11H21V13H13V11M3,15H11V17H3V15M13,15H21V17H13V15M3,19H11V21H3V19M13,19H21V21H13V19Z" />
    </g>
    <g id="mdi-format-columns" transform="translate(36 324) scale(1.5)" fill="#fff">
      <path d="M3,3H11V5H3V3M13,3H21V5H13V3M3,7H11V9H3V7M13,7H21V9H13V7M3,11H11V13H3V11M13,11H21V13H13V11M3,15H11V17H3V15M13,15H21V17H13V15M3,19H11V21H3V19M13,19H21V21H13V19Z" />
    </g>
    <g id="mdi-format-float-center" transform="translate(72 324) scale(1.5)" fill="#555">
      <path d="M9,7H15V13H9V7M3,3H21V5H3V3M3,15H21V17H3V15M3,19H17V21H3V19Z" />
    </g>
    <g id="mdi-format-float-center" transform="translate(108 324) scale(1.5)" fill="#fff">
      <path d="M9,7H15V13H9V7M3,3H21V5H3V3M3,15H21V17H3V15M3,19H17V21H3V19Z" />
    </g>
    <g id="mdi-format-float-left" transform="translate(144 324) scale(1.5)" fill="#555">
      <path d="M3,7H9V13H3V7M3,3H21V5H3V3M21,7V9H11V7H21M21,11V13H11V11H21M3,15H17V17H3V15M3,19H21V21H3V19Z" />
    </g>
    <g id="mdi-format-float-left" transform="translate(180 324) scale(1.5)" fill="#fff">
      <path d="M3,7H9V13H3V7M3,3H21V5H3V3M21,7V9H11V7H21M21,11V13H11V11H21M3,15H17V17H3V15M3,19H21V21H3V19Z" />
    </g>
    <g id="mdi-format-float-none" transform="translate(216 324) scale(1.5)" fill="#555">
      <path d="M3,7H9V13H3V7M3,3H21V5H3V3M21,11V13H11V11H21M3,15H17V17H3V15M3,19H21V21H3V19Z" />
    </g>
    <g id="mdi-format-float-none" transform="translate(252 324) scale(1.5)" fill="#fff">
      <path d="M3,7H9V13H3V7M3,3H21V5H3V3M21,11V13H11V11H21M3,15H17V17H3V15M3,19H21V21H3V19Z" />
    </g>
    <g id="mdi-format-float-right" transform="translate(288 324) scale(1.5)" fill="#555">
      <path d="M15,7H21V13H15V7M3,3H21V5H3V3M13,7V9H3V7H13M9,11V13H3V11H9M3,15H17V17H3V15M3,19H21V21H3V19Z" />
    </g>
    <g id="mdi-format-float-right" transform="translate(324 324) scale(1.5)" fill="#fff">
      <path d="M15,7H21V13H15V7M3,3H21V5H3V3M13,7V9H3V7H13M9,11V13H3V11H9M3,15H17V17H3V15M3,19H21V21H3V19Z" />
    </g>
    <g id="mdi-format-font" transform="translate(360 324) scale(1.5)" fill="#555">
      <path d="M17,8H20V20H21V21H17V20H18V17H14L12.5,20H14V21H10V20H11L17,8M18,9L14.5,16H18V9M5,3H10C11.11,3 12,3.89 12,5V16H9V11H6V16H3V5C3,3.89 3.89,3 5,3M6,5V9H9V5H6Z" />
    </g>
    <g id="mdi-format-font" transform="translate(396 324) scale(1.5)" fill="#fff">
      <path d="M17,8H20V20H21V21H17V20H18V17H14L12.5,20H14V21H10V20H11L17,8M18,9L14.5,16H18V9M5,3H10C11.11,3 12,3.89 12,5V16H9V11H6V16H3V5C3,3.89 3.89,3 5,3M6,5V9H9V5H6Z" />
    </g>
    <g id="mdi-format-font-size-decrease" transform="translate(432 324) scale(1.5)" fill="#555">
      <path d="M5.12,14L7.5,7.67L9.87,14M6.5,5L1,19H3.25L4.37,16H10.62L11.75,19H14L8.5,5H6.5M18,17L23,11.93L21.59,10.5L19,13.1V7H17V13.1L14.41,10.5L13,11.93L18,17Z" />
    </g>
    <g id="mdi-format-font-size-decrease" transform="translate(468 324) scale(1.5)" fill="#fff">
      <path d="M5.12,14L7.5,7.67L9.87,14M6.5,5L1,19H3.25L4.37,16H10.62L11.75,19H14L8.5,5H6.5M18,17L23,11.93L21.59,10.5L19,13.1V7H17V13.1L14.41,10.5L13,11.93L18,17Z" />
    </g>
    <g id="mdi-format-font-size-increase" transform="translate(504 324) scale(1.5)" fill="#555">
      <path d="M5.12,14L7.5,7.67L9.87,14M6.5,5L1,19H3.25L4.37,16H10.62L11.75,19H14L8.5,5H6.5M18,7L13,12.07L14.41,13.5L17,10.9V17H19V10.9L21.59,13.5L23,12.07L18,7Z" />
    </g>
    <g id="mdi-format-font-size-increase" transform="translate(540 324) scale(1.5)" fill="#fff">
      <path d="M5.12,14L7.5,7.67L9.87,14M6.5,5L1,19H3.25L4.37,16H10.62L11.75,19H14L8.5,5H6.5M18,7L13,12.07L14.41,13.5L17,10.9V17H19V10.9L21.59,13.5L23,12.07L18,7Z" />
    </g>
    <g id="mdi-format-header-1" transform="translate(576 324) scale(1.5)" fill="#555">
      <path d="M3,4H5V10H9V4H11V18H9V12H5V18H3V4M14,18V16H16V6.31L13.5,7.75V5.44L16,4H18V16H20V18H14Z" />
    </g>
    <g id="mdi-format-header-1" transform="translate(612 324) scale(1.5)" fill="#fff">
      <path d="M3,4H5V10H9V4H11V18H9V12H5V18H3V4M14,18V16H16V6.31L13.5,7.75V5.44L16,4H18V16H20V18H14Z" />
    </g>
    <g id="mdi-format-header-2" transform="translate(648 324) scale(1.5)" fill="#555">
      <path d="M3,4H5V10H9V4H11V18H9V12H5V18H3V4M21,18H15A2,2 0 0,1 13,16C13,15.47 13.2,15 13.54,14.64L18.41,9.41C18.78,9.05 19,8.55 19,8A2,2 0 0,0 17,6A2,2 0 0,0 15,8H13A4,4 0 0,1 17,4A4,4 0 0,1 21,8C21,9.1 20.55,10.1 19.83,10.83L15,16H21V18Z" />
    </g>
    <g id="mdi-format-header-2" transform="translate(684 324) scale(1.5)" fill="#fff">
      <path d="M3,4H5V10H9V4H11V18H9V12H5V18H3V4M21,18H15A2,2 0 0,1 13,16C13,15.47 13.2,15 13.54,14.64L18.41,9.41C18.78,9.05 19,8.55 19,8A2,2 0 0,0 17,6A2,2 0 0,0 15,8H13A4,4 0 0,1 17,4A4,4 0 0,1 21,8C21,9.1 20.55,10.1 19.83,10.83L15,16H21V18Z" />
    </g>
  </svg>