<svg xmlns="http://www.w3.org/2000/svg" width="720" height="900"><path d="M19 14h-3v2h3v-2m3 7H3V11l8-8h10a1 1 0 0 1 1 1v17M11.83 5l-6 6H20V5h-8.17Z" transform="scale(1.5)" id="mdi-car-door" fill="#555"/><path d="M19 14h-3v2h3v-2m3 7H3V11l8-8h10a1 1 0 0 1 1 1v17M11.83 5l-6 6H20V5h-8.17Z" transform="translate(36) scale(1.5)" id="mdi-car-door" fill="#fff"/><path d="M7.8 17v-1.5C7.8 14.1 6.4 13 5 13s-2.8 1.1-2.8 2.5V17c-.6 0-1.2.6-1.2 1.2v3.5c0 .7.6 1.3 1.2 1.3h5.5c.7 0 1.3-.6 1.3-1.2v-3.5c0-.7-.6-1.3-1.2-1.3m-1.3 0h-3v-1.5c0-.8.7-1.3 1.5-1.3s1.5.5 1.5 1.3V17M21 3H11l-8 8v.44c.61-.27 1.29-.44 2-.44 2.6 0 4.8 2.06 4.8 4.5v.25c.73.61 1.2 1.53 1.2 2.55V21h11V4c0-.55-.45-1-1-1m-2 13h-3v-2h3v2m1-5H5.83l6-6H20v6Z" transform="translate(72) scale(1.5)" id="mdi-car-door-lock" fill="#555"/><path d="M7.8 17v-1.5C7.8 14.1 6.4 13 5 13s-2.8 1.1-2.8 2.5V17c-.6 0-1.2.6-1.2 1.2v3.5c0 .7.6 1.3 1.2 1.3h5.5c.7 0 1.3-.6 1.3-1.2v-3.5c0-.7-.6-1.3-1.2-1.3m-1.3 0h-3v-1.5c0-.8.7-1.3 1.5-1.3s1.5.5 1.5 1.3V17M21 3H11l-8 8v.44c.61-.27 1.29-.44 2-.44 2.6 0 4.8 2.06 4.8 4.5v.25c.73.61 1.2 1.53 1.2 2.55V21h11V4c0-.55-.45-1-1-1m-2 13h-3v-2h3v2m1-5H5.83l6-6H20v6Z" transform="translate(108) scale(1.5)" id="mdi-car-door-lock" fill="#fff"/><path d="M18.92 2c-.2-.58-.76-1-1.42-1h-11c-.66 0-1.21.42-1.42 1L3 8v8c0 .55.45 1 1 1h1c.55 0 1-.45 1-1v-1h12v1c0 .55.45 1 1 1h1c.55 0 1-.45 1-1V8l-2.08-6M6.5 12c-.83 0-1.5-.67-1.5-1.5S5.67 9 6.5 9 8 9.67 8 10.5 7.33 12 6.5 12m11 0c-.83 0-1.5-.67-1.5-1.5S16.67 9 17.5 9s1.5.67 1.5 1.5-.67 1.5-1.5 1.5M5 7l1.5-4.5h11L19 7H5m2 13h4v-2l6 3h-4v2l-6-3Z" transform="translate(144) scale(1.5)" id="mdi-car-electric" fill="#555"/><path d="M18.92 2c-.2-.58-.76-1-1.42-1h-11c-.66 0-1.21.42-1.42 1L3 8v8c0 .55.45 1 1 1h1c.55 0 1-.45 1-1v-1h12v1c0 .55.45 1 1 1h1c.55 0 1-.45 1-1V8l-2.08-6M6.5 12c-.83 0-1.5-.67-1.5-1.5S5.67 9 6.5 9 8 9.67 8 10.5 7.33 12 6.5 12m11 0c-.83 0-1.5-.67-1.5-1.5S16.67 9 17.5 9s1.5.67 1.5 1.5-.67 1.5-1.5 1.5M5 7l1.5-4.5h11L19 7H5m2 13h4v-2l6 3h-4v2l-6-3Z" transform="translate(180) scale(1.5)" id="mdi-car-electric" fill="#fff"/><path d="M18.92 2c-.2-.58-.76-1-1.42-1h-11c-.66 0-1.21.42-1.42 1L3 8v8c0 .55.45 1 1 1h1c.55 0 1-.45 1-1v-1h12v1c0 .55.45 1 1 1h1c.55 0 1-.45 1-1V8l-2.08-6M6.85 3h10.29l1.08 3.11H5.77L6.85 3M19 13H5V8h14v5M7.5 9c.83 0 1.5.67 1.5 1.5S8.33 12 7.5 12 6 11.33 6 10.5 6.67 9 7.5 9m9 0c.83 0 1.5.67 1.5 1.5s-.67 1.5-1.5 1.5-1.5-.67-1.5-1.5.67-1.5 1.5-1.5M7 20h4v-2l6 3h-4v2l-6-3Z" transform="translate(216) scale(1.5)" id="mdi-car-electric-outline" fill="#555"/><path d="M18.92 2c-.2-.58-.76-1-1.42-1h-11c-.66 0-1.21.42-1.42 1L3 8v8c0 .55.45 1 1 1h1c.55 0 1-.45 1-1v-1h12v1c0 .55.45 1 1 1h1c.55 0 1-.45 1-1V8l-2.08-6M6.85 3h10.29l1.08 3.11H5.77L6.85 3M19 13H5V8h14v5M7.5 9c.83 0 1.5.67 1.5 1.5S8.33 12 7.5 12 6 11.33 6 10.5 6.67 9 7.5 9m9 0c.83 0 1.5.67 1.5 1.5s-.67 1.5-1.5 1.5-1.5-.67-1.5-1.5.67-1.5 1.5-1.5M7 20h4v-2l6 3h-4v2l-6-3Z" transform="translate(252) scale(1.5)" id="mdi-car-electric-outline" fill="#fff"/><path d="M11 0v3h2V0h-2M7.88 1.46 6.46 2.87 8.59 5 10 3.58 7.88 1.46m8.24 0L14 3.58 15.41 5l2.13-2.12-1.42-1.42M12 5a2 2 0 0 0-2 2v1H6.5c-.66 0-1.22.42-1.42 1L3 15v8a1 1 0 0 0 1 1h1a1 1 0 0 0 1-1v-1h12v1a1 1 0 0 0 1 1h1a1 1 0 0 0 1-1v-8l-2.08-6c-.2-.58-.76-1-1.42-1H14V7a2 2 0 0 0-2-2M6.5 9.5h11L19 14H5l1.5-4.5m0 6.5A1.5 1.5 0 0 1 8 17.5 1.5 1.5 0 0 1 6.5 19 1.5 1.5 0 0 1 5 17.5 1.5 1.5 0 0 1 6.5 16m11 0a1.5 1.5 0 0 1 1.5 1.5 1.5 1.5 0 0 1-1.5 1.5 1.5 1.5 0 0 1-1.5-1.5 1.5 1.5 0 0 1 1.5-1.5Z" transform="translate(288) scale(1.5)" id="mdi-car-emergency" fill="#555"/><path d="M11 0v3h2V0h-2M7.88 1.46 6.46 2.87 8.59 5 10 3.58 7.88 1.46m8.24 0L14 3.58 15.41 5l2.13-2.12-1.42-1.42M12 5a2 2 0 0 0-2 2v1H6.5c-.66 0-1.22.42-1.42 1L3 15v8a1 1 0 0 0 1 1h1a1 1 0 0 0 1-1v-1h12v1a1 1 0 0 0 1 1h1a1 1 0 0 0 1-1v-8l-2.08-6c-.2-.58-.76-1-1.42-1H14V7a2 2 0 0 0-2-2M6.5 9.5h11L19 14H5l1.5-4.5m0 6.5A1.5 1.5 0 0 1 8 17.5 1.5 1.5 0 0 1 6.5 19 1.5 1.5 0 0 1 5 17.5 1.5 1.5 0 0 1 6.5 16m11 0a1.5 1.5 0 0 1 1.5 1.5 1.5 1.5 0 0 1-1.5 1.5 1.5 1.5 0 0 1-1.5-1.5 1.5 1.5 0 0 1 1.5-1.5Z" transform="translate(324) scale(1.5)" id="mdi-car-emergency" fill="#fff"/><path d="M5.31 6C6.95 4.16 9.34 3 12 3s5.05 1.16 6.69 3h-3.11A6.93 6.93 0 0 0 12 5c-1.31 0-2.53.37-3.58 1H5.31m9.09 3.6V8h-3.2a1.6 1.6 0 0 0-1.6 1.6v1.6c0 .88.72 1.6 1.6 1.6h1.6v1.6H9.6V16h3.2a1.6 1.6 0 0 0 1.6-1.6v-1.6c0-.88-.72-1.6-1.6-1.6h-1.6V9.6h3.2m4-1.6h-3.2v8h1.6v-3.2h1.6a1.6 1.6 0 0 0 1.6-1.6V9.6c0-.88-.72-1.6-1.6-1.6m0 3.2h-1.6V9.6h1.6v1.6M8.8 9.6V8H4v8h4.8v-1.6H5.6v-1.6h3.2v-1.6H5.6V9.6h3.2m6.78 8.4c-1.05.63-2.27 1-3.58 1a6.93 6.93 0 0 1-3.58-1H5.31c1.64 1.84 4.03 3 6.69 3s5.05-1.16 6.69-3h-3.11M20.5 3.5l-1.08 1.08C21.32 6.5 22.5 9.11 22.5 12c0 2.9-1.18 5.5-3.08 7.42l1.08 1.08c2.16-2.19 3.5-5.19 3.5-8.5 0-3.31-1.34-6.31-3.5-8.5M4.58 4.58 3.5 3.5C1.34 5.69 0 8.69 0 12c0 3.31 1.34 6.31 3.5 8.5l1.08-1.08C2.68 17.5 1.5 14.9 1.5 12c0-2.89 1.18-5.5 3.08-7.42Z" transform="translate(360) scale(1.5)" id="mdi-car-esp" fill="#555"/><path d="M5.31 6C6.95 4.16 9.34 3 12 3s5.05 1.16 6.69 3h-3.11A6.93 6.93 0 0 0 12 5c-1.31 0-2.53.37-3.58 1H5.31m9.09 3.6V8h-3.2a1.6 1.6 0 0 0-1.6 1.6v1.6c0 .88.72 1.6 1.6 1.6h1.6v1.6H9.6V16h3.2a1.6 1.6 0 0 0 1.6-1.6v-1.6c0-.88-.72-1.6-1.6-1.6h-1.6V9.6h3.2m4-1.6h-3.2v8h1.6v-3.2h1.6a1.6 1.6 0 0 0 1.6-1.6V9.6c0-.88-.72-1.6-1.6-1.6m0 3.2h-1.6V9.6h1.6v1.6M8.8 9.6V8H4v8h4.8v-1.6H5.6v-1.6h3.2v-1.6H5.6V9.6h3.2m6.78 8.4c-1.05.63-2.27 1-3.58 1a6.93 6.93 0 0 1-3.58-1H5.31c1.64 1.84 4.03 3 6.69 3s5.05-1.16 6.69-3h-3.11M20.5 3.5l-1.08 1.08C21.32 6.5 22.5 9.11 22.5 12c0 2.9-1.18 5.5-3.08 7.42l1.08 1.08c2.16-2.19 3.5-5.19 3.5-8.5 0-3.31-1.34-6.31-3.5-8.5M4.58 4.58 3.5 3.5C1.34 5.69 0 8.69 0 12c0 3.31 1.34 6.31 3.5 8.5l1.08-1.08C2.68 17.5 1.5 14.9 1.5 12c0-2.89 1.18-5.5 3.08-7.42Z" transform="translate(396) scale(1.5)" id="mdi-car-esp" fill="#fff"/><path d="M3 6h13l3 4h2c1.11 0 2 .89 2 2v3h-2a3 3 0 0 1-3 3 3 3 0 0 1-3-3H9a3 3 0 0 1-3 3 3 3 0 0 1-3-3H1V8c0-1.11.89-2 2-2m-.5 1.5V10h8V7.5h-8m9.5 0V10h5.14l-1.89-2.5H12m-6 6A1.5 1.5 0 0 0 4.5 15 1.5 1.5 0 0 0 6 16.5 1.5 1.5 0 0 0 7.5 15 1.5 1.5 0 0 0 6 13.5m12 0a1.5 1.5 0 0 0-1.5 1.5 1.5 1.5 0 0 0 1.5 1.5 1.5 1.5 0 0 0 1.5-1.5 1.5 1.5 0 0 0-1.5-1.5Z" transform="translate(432) scale(1.5)" id="mdi-car-estate" fill="#555"/><path d="M3 6h13l3 4h2c1.11 0 2 .89 2 2v3h-2a3 3 0 0 1-3 3 3 3 0 0 1-3-3H9a3 3 0 0 1-3 3 3 3 0 0 1-3-3H1V8c0-1.11.89-2 2-2m-.5 1.5V10h8V7.5h-8m9.5 0V10h5.14l-1.89-2.5H12m-6 6A1.5 1.5 0 0 0 4.5 15 1.5 1.5 0 0 0 6 16.5 1.5 1.5 0 0 0 7.5 15 1.5 1.5 0 0 0 6 13.5m12 0a1.5 1.5 0 0 0-1.5 1.5 1.5 1.5 0 0 0 1.5 1.5 1.5 1.5 0 0 0 1.5-1.5 1.5 1.5 0 0 0-1.5-1.5Z" transform="translate(468) scale(1.5)" id="mdi-car-estate" fill="#fff"/><path d="M16 6H6l-5 6v3h2a3 3 0 0 0 3 3 3 3 0 0 0 3-3h6a3 3 0 0 0 3 3 3 3 0 0 0 3-3h2v-3c0-1.11-.89-2-2-2h-2l-3-4M6.5 7.5h4V10h-6l2-2.5m5.5 0h3.5l1.96 2.5H12V7.5m-6 6A1.5 1.5 0 0 1 7.5 15 1.5 1.5 0 0 1 6 16.5 1.5 1.5 0 0 1 4.5 15 1.5 1.5 0 0 1 6 13.5m12 0a1.5 1.5 0 0 1 1.5 1.5 1.5 1.5 0 0 1-1.5 1.5 1.5 1.5 0 0 1-1.5-1.5 1.5 1.5 0 0 1 1.5-1.5Z" transform="translate(504) scale(1.5)" id="mdi-car-hatchback" fill="#555"/><path d="M16 6H6l-5 6v3h2a3 3 0 0 0 3 3 3 3 0 0 0 3-3h6a3 3 0 0 0 3 3 3 3 0 0 0 3-3h2v-3c0-1.11-.89-2-2-2h-2l-3-4M6.5 7.5h4V10h-6l2-2.5m5.5 0h3.5l1.96 2.5H12V7.5m-6 6A1.5 1.5 0 0 1 7.5 15 1.5 1.5 0 0 1 6 16.5 1.5 1.5 0 0 1 4.5 15 1.5 1.5 0 0 1 6 13.5m12 0a1.5 1.5 0 0 1 1.5 1.5 1.5 1.5 0 0 1-1.5 1.5 1.5 1.5 0 0 1-1.5-1.5 1.5 1.5 0 0 1 1.5-1.5Z" transform="translate(540) scale(1.5)" id="mdi-car-hatchback" fill="#fff"/><path d="M19 15h-2v-2h2m1 7v2h-4v-2h1v-2h-1v-2h3v4m-.08-15a1.5 1.5 0 0 0-1.42-1h-11a1.5 1.5 0 0 0-1.42 1L3 11v8a1 1 0 0 0 1 1h1a1 1 0 0 0 1-1v-1h5a7 7 0 0 1 7-7 6.84 6.84 0 0 1 3 .68V11M6.5 15A1.5 1.5 0 1 1 8 13.5 1.5 1.5 0 0 1 6.5 15M5 10l1.5-4.5h11L19 10Z" transform="translate(576) scale(1.5)" id="mdi-car-info" fill="#555"/><path d="M19 15h-2v-2h2m1 7v2h-4v-2h1v-2h-1v-2h3v4m-.08-15a1.5 1.5 0 0 0-1.42-1h-11a1.5 1.5 0 0 0-1.42 1L3 11v8a1 1 0 0 0 1 1h1a1 1 0 0 0 1-1v-1h5a7 7 0 0 1 7-7 6.84 6.84 0 0 1 3 .68V11M6.5 15A1.5 1.5 0 1 1 8 13.5 1.5 1.5 0 0 1 6.5 15M5 10l1.5-4.5h11L19 10Z" transform="translate(612) scale(1.5)" id="mdi-car-info" fill="#fff"/><path d="M9 0C7.3 0 6 1.3 6 3s1.3 3 3 3c1.3 0 2.4-.8 2.8-2H14v2h2V4h2V2h-6.2C11.4.8 10.3 0 9 0m0 2c.6 0 1 .4 1 1s-.4 1-1 1-1-.4-1-1 .4-1 1-1M6.5 8c-.7 0-1.2.4-1.4 1L3 15v8c0 .6.4 1 1 1h1c.6 0 1-.4 1-1v-1h12v1c0 .6.4 1 1 1h1c.6 0 1-.4 1-1v-8l-2.1-6c-.2-.6-.8-1-1.4-1h-11m0 1.5h11L19 14H5l1.5-4.5m0 6.5c.8 0 1.5.7 1.5 1.5S7.3 19 6.5 19 5 18.3 5 17.5 5.7 16 6.5 16m11 0c.8 0 1.5.7 1.5 1.5s-.7 1.5-1.5 1.5-1.5-.7-1.5-1.5.7-1.5 1.5-1.5Z" transform="translate(648) scale(1.5)" id="mdi-car-key" fill="#555"/><path d="M9 0C7.3 0 6 1.3 6 3s1.3 3 3 3c1.3 0 2.4-.8 2.8-2H14v2h2V4h2V2h-6.2C11.4.8 10.3 0 9 0m0 2c.6 0 1 .4 1 1s-.4 1-1 1-1-.4-1-1 .4-1 1-1M6.5 8c-.7 0-1.2.4-1.4 1L3 15v8c0 .6.4 1 1 1h1c.6 0 1-.4 1-1v-1h12v1c0 .6.4 1 1 1h1c.6 0 1-.4 1-1v-8l-2.1-6c-.2-.6-.8-1-1.4-1h-11m0 1.5h11L19 14H5l1.5-4.5m0 6.5c.8 0 1.5.7 1.5 1.5S7.3 19 6.5 19 5 18.3 5 17.5 5.7 16 6.5 16m11 0c.8 0 1.5.7 1.5 1.5s-.7 1.5-1.5 1.5-1.5-.7-1.5-1.5.7-1.5 1.5-1.5Z" transform="translate(684) scale(1.5)" id="mdi-car-key" fill="#fff"/><path d="m18 14 .79.1-.02.23.47.17.15-.16c.5.26.93.66 1.21 1.16l-.17.17.2.45.23-.02c.09.29.14.59.14.9l-.1.78-.24-.01-.19.47.19.15c-.27.51-.66.93-1.16 1.21l-.17-.18-.46.2.02.24c-.28.09-.58.14-.89.14l-.79-.1.01-.25-.46-.18-.16.19c-.5-.27-.93-.66-1.21-1.16l.18-.18-.2-.46-.24.02c-.08-.28-.13-.57-.13-.88l.11-.8.23.01.19-.46-.18-.15c.27-.51.65-.92 1.15-1.21l.17.17.46-.2-.02-.22c.28-.09.58-.14.89-.14m0 1.5c-.83 0-1.5.67-1.5 1.5s.67 1.5 1.5 1.5 1.5-.67 1.5-1.5-.67-1.5-1.5-1.5M6 14l.79.1-.02.23.47.17.15-.16c.5.26.93.66 1.21 1.16l-.17.17.2.45.23-.02c.09.29.14.59.14.9l-.1.78-.25-.01-.18.47.19.15c-.27.51-.66.93-1.16 1.21l-.17-.18-.46.2.02.24c-.28.09-.58.14-.89.14l-.79-.1.01-.25-.46-.18-.16.19c-.5-.27-.93-.66-1.21-1.16l.18-.18-.2-.46-.24.02C3.05 17.6 3 17.31 3 17l.11-.8.23.01.19-.46-.18-.15c.27-.51.65-.92 1.15-1.21l.17.17.46-.2-.02-.22c.28-.09.58-.14.89-.14m0 1.5c-.83 0-1.5.67-1.5 1.5s.67 1.5 1.5 1.5 1.5-.67 1.5-1.5-.67-1.5-1.5-1.5M16 6l3 4h2c1.11 0 2 .89 2 2v3h-2c0-1.66-1.34-3-3-3s-3 1.34-3 3H9c0-1.66-1.34-3-3-3s-3 1.34-3 3H1v-5h9.5V6H16m-4 1.5V10h5.46L15.5 7.5H12Z" transform="matrix(1.5 0 0 1.5 0 36)" id="mdi-car-lifted-pickup" fill="#555"/><path d="m18 14 .79.1-.02.23.47.17.15-.16c.5.26.93.66 1.21 1.16l-.17.17.2.45.23-.02c.09.29.14.59.14.9l-.1.78-.24-.01-.19.47.19.15c-.27.51-.66.93-1.16 1.21l-.17-.18-.46.2.02.24c-.28.09-.58.14-.89.14l-.79-.1.01-.25-.46-.18-.16.19c-.5-.27-.93-.66-1.21-1.16l.18-.18-.2-.46-.24.02c-.08-.28-.13-.57-.13-.88l.11-.8.23.01.19-.46-.18-.15c.27-.51.65-.92 1.15-1.21l.17.17.46-.2-.02-.22c.28-.09.58-.14.89-.14m0 1.5c-.83 0-1.5.67-1.5 1.5s.67 1.5 1.5 1.5 1.5-.67 1.5-1.5-.67-1.5-1.5-1.5M6 14l.79.1-.02.23.47.17.15-.16c.5.26.93.66 1.21 1.16l-.17.17.2.45.23-.02c.09.29.14.59.14.9l-.1.78-.25-.01-.18.47.19.15c-.27.51-.66.93-1.16 1.21l-.17-.18-.46.2.02.24c-.28.09-.58.14-.89.14l-.79-.1.01-.25-.46-.18-.16.19c-.5-.27-.93-.66-1.21-1.16l.18-.18-.2-.46-.24.02C3.05 17.6 3 17.31 3 17l.11-.8.23.01.19-.46-.18-.15c.27-.51.65-.92 1.15-1.21l.17.17.46-.2-.02-.22c.28-.09.58-.14.89-.14m0 1.5c-.83 0-1.5.67-1.5 1.5s.67 1.5 1.5 1.5 1.5-.67 1.5-1.5-.67-1.5-1.5-1.5M16 6l3 4h2c1.11 0 2 .89 2 2v3h-2c0-1.66-1.34-3-3-3s-3 1.34-3 3H9c0-1.66-1.34-3-3-3s-3 1.34-3 3H1v-5h9.5V6H16m-4 1.5V10h5.46L15.5 7.5H12Z" transform="matrix(1.5 0 0 1.5 36 36)" id="mdi-car-lifted-pickup" fill="#fff"/><path d="M23 7v6h-2V7h2m-2 10h2v-2h-2v2M1 9v2h4c.1-.7.1-1.4.2-2H1m4 4H1v2h4.2c-.1-.6-.1-1.3-.2-2m.9-6.6c.1-.6.4-1 .6-1.4H1v2h4.7c.1-.2.1-.4.2-.6M1 17v2h5.6c-.4-.6-.7-1.2-.9-2H1m9-12.2c-4 0-4 14.4 0 14.4s9-2.7 9-7.2-5-7.2-9-7.2m.1 12.4C9.7 16.8 9 15 9 12s.7-4.8 1.1-5.2C13 6.9 17 8.7 17 12s-4 5.1-6.9 5.2" transform="matrix(1.5 0 0 1.5 72 36)" id="mdi-car-light-alert" fill="#555"/><path d="M23 7v6h-2V7h2m-2 10h2v-2h-2v2M1 9v2h4c.1-.7.1-1.4.2-2H1m4 4H1v2h4.2c-.1-.6-.1-1.3-.2-2m.9-6.6c.1-.6.4-1 .6-1.4H1v2h4.7c.1-.2.1-.4.2-.6M1 17v2h5.6c-.4-.6-.7-1.2-.9-2H1m9-12.2c-4 0-4 14.4 0 14.4s9-2.7 9-7.2-5-7.2-9-7.2m.1 12.4C9.7 16.8 9 15 9 12s.7-4.8 1.1-5.2C13 6.9 17 8.7 17 12s-4 5.1-6.9 5.2" transform="matrix(1.5 0 0 1.5 108 36)" id="mdi-car-light-alert" fill="#fff"/><path d="M13 4.8c-4 0-4 14.4 0 14.4s9-2.7 9-7.2-5-7.2-9-7.2m.1 12.4C12.7 16.8 12 15 12 12s.7-4.8 1.1-5.2C16 6.9 20 8.7 20 12c0 3.3-4.1 5.1-6.9 5.2M8 10.5c0 .5-.1 1-.1 1.5v.6L2.4 14l-.5-1.9L8 10.5M2 7l7.4-1.9c-.2.3-.4.7-.5 1.2-.1.3-.2.7-.3 1.1L2.5 8.9 2 7m6.2 8.5c.1.7.3 1.4.5 1.9L2.4 19l-.5-1.9 6.3-1.6Z" transform="matrix(1.5 0 0 1.5 144 36)" id="mdi-car-light-dimmed" fill="#555"/><path d="M13 4.8c-4 0-4 14.4 0 14.4s9-2.7 9-7.2-5-7.2-9-7.2m.1 12.4C12.7 16.8 12 15 12 12s.7-4.8 1.1-5.2C16 6.9 20 8.7 20 12c0 3.3-4.1 5.1-6.9 5.2M8 10.5c0 .5-.1 1-.1 1.5v.6L2.4 14l-.5-1.9L8 10.5M2 7l7.4-1.9c-.2.3-.4.7-.5 1.2-.1.3-.2.7-.3 1.1L2.5 8.9 2 7m6.2 8.5c.1.7.3 1.4.5 1.9L2.4 19l-.5-1.9 6.3-1.6Z" transform="matrix(1.5 0 0 1.5 180 36)" id="mdi-car-light-dimmed" fill="#fff"/><path d="M13 4.8c-4 0-4 14.4 0 14.4s9-2.7 9-7.2-5-7.2-9-7.2m.1 12.4C12.7 16.8 12 15 12 12s.7-4.8 1.1-5.2C16 6.9 20 8.7 20 12c0 3.3-4 5.1-6.9 5.2M6 8v3h2v2H6v3h2.4c.2.7.4 1.4.6 2H6v3H4v-3H2v-2h2v-3H2v-2h2V8H2V6h2V3h2v3h3c0 .1-.1.2-.1.4-.2.5-.4 1-.5 1.6H6Z" transform="matrix(1.5 0 0 1.5 216 36)" id="mdi-car-light-fog" fill="#555"/><path d="M13 4.8c-4 0-4 14.4 0 14.4s9-2.7 9-7.2-5-7.2-9-7.2m.1 12.4C12.7 16.8 12 15 12 12s.7-4.8 1.1-5.2C16 6.9 20 8.7 20 12c0 3.3-4 5.1-6.9 5.2M6 8v3h2v2H6v3h2.4c.2.7.4 1.4.6 2H6v3H4v-3H2v-2h2v-3H2v-2h2V8H2V6h2V3h2v3h3c0 .1-.1.2-.1.4-.2.5-.4 1-.5 1.6H6Z" transform="matrix(1.5 0 0 1.5 252 36)" id="mdi-car-light-fog" fill="#fff"/><path d="M13 4.8c-4 0-4 14.4 0 14.4s9-2.7 9-7.2-5-7.2-9-7.2m.1 12.4C12.7 16.8 12 15 12 12s.7-4.8 1.1-5.2C16 6.9 20 8.7 20 12c0 3.3-4 5.1-6.9 5.2M2 5h7.5c-.2.4-.5.8-.6 1.4-.1.2-.1.4-.2.6H2V5m6 6H2V9h6.2c-.1.6-.1 1.3-.2 2m.7 6c.2.8.5 1.4.9 2H2.1v-2h6.6m-.5-2H2v-2h6c.1.7.1 1.4.2 2Z" transform="matrix(1.5 0 0 1.5 288 36)" id="mdi-car-light-high" fill="#555"/><path d="M13 4.8c-4 0-4 14.4 0 14.4s9-2.7 9-7.2-5-7.2-9-7.2m.1 12.4C12.7 16.8 12 15 12 12s.7-4.8 1.1-5.2C16 6.9 20 8.7 20 12c0 3.3-4 5.1-6.9 5.2M2 5h7.5c-.2.4-.5.8-.6 1.4-.1.2-.1.4-.2.6H2V5m6 6H2V9h6.2c-.1.6-.1 1.3-.2 2m.7 6c.2.8.5 1.4.9 2H2.1v-2h6.6m-.5-2H2v-2h6c.1.7.1 1.4.2 2Z" transform="matrix(1.5 0 0 1.5 324 36)" id="mdi-car-light-high" fill="#fff"/><path d="m1 6 1.5 1.5L1 9l1.5 1.5L1 12l1.5 1.5L1 15h14a3 3 0 0 0 3 3 3 3 0 0 0 3-3h2v-3c0-1.11-.89-2-2-2h-2l-3-4H1m3.62 1.5h5.88V10H4.12l-1-1 1.5-1.5m7.38 0h3.5l1.96 2.5H12V7.5m6 6a1.5 1.5 0 0 1 1.5 1.5 1.5 1.5 0 0 1-1.5 1.5 1.5 1.5 0 0 1-1.5-1.5 1.5 1.5 0 0 1 1.5-1.5Z" transform="matrix(1.5 0 0 1.5 360 36)" id="mdi-car-limousine" fill="#555"/><path d="m1 6 1.5 1.5L1 9l1.5 1.5L1 12l1.5 1.5L1 15h14a3 3 0 0 0 3 3 3 3 0 0 0 3-3h2v-3c0-1.11-.89-2-2-2h-2l-3-4H1m3.62 1.5h5.88V10H4.12l-1-1 1.5-1.5m7.38 0h3.5l1.96 2.5H12V7.5m6 6a1.5 1.5 0 0 1 1.5 1.5 1.5 1.5 0 0 1-1.5 1.5 1.5 1.5 0 0 1-1.5-1.5 1.5 1.5 0 0 1 1.5-1.5Z" transform="matrix(1.5 0 0 1.5 396 36)" id="mdi-car-limousine" fill="#fff"/><path d="m8 11 1.5-4.5h9L20 11m-1.5 5a1.5 1.5 0 0 1-1.5-1.5 1.5 1.5 0 0 1 1.5-1.5 1.5 1.5 0 0 1 1.5 1.5 1.5 1.5 0 0 1-1.5 1.5m-9 0A1.5 1.5 0 0 1 8 14.5 1.5 1.5 0 0 1 9.5 13a1.5 1.5 0 0 1 1.5 1.5A1.5 1.5 0 0 1 9.5 16M19.92 6c-.21-.6-.78-1-1.42-1h-9c-.64 0-1.21.4-1.42 1L6 12v8a1 1 0 0 0 1 1h1a1 1 0 0 0 1-1v-1h10v1a1 1 0 0 0 1 1h1a1 1 0 0 0 1-1v-8l-2.08-6m-5-3c-.21-.6-.78-1-1.42-1h-9c-.64 0-1.21.4-1.42 1L1 9v8a1 1 0 0 0 1 1h1a1 1 0 0 0 1-1v-4.09A1.492 1.492 0 0 1 3.1 11c.22-.6.77-1 1.4-1h.07l.7-2H3l1.5-4.5h10.59l-.17-.5Z" transform="matrix(1.5 0 0 1.5 432 36)" id="mdi-car-multiple" fill="#555"/><path d="m8 11 1.5-4.5h9L20 11m-1.5 5a1.5 1.5 0 0 1-1.5-1.5 1.5 1.5 0 0 1 1.5-1.5 1.5 1.5 0 0 1 1.5 1.5 1.5 1.5 0 0 1-1.5 1.5m-9 0A1.5 1.5 0 0 1 8 14.5 1.5 1.5 0 0 1 9.5 13a1.5 1.5 0 0 1 1.5 1.5A1.5 1.5 0 0 1 9.5 16M19.92 6c-.21-.6-.78-1-1.42-1h-9c-.64 0-1.21.4-1.42 1L6 12v8a1 1 0 0 0 1 1h1a1 1 0 0 0 1-1v-1h10v1a1 1 0 0 0 1 1h1a1 1 0 0 0 1-1v-8l-2.08-6m-5-3c-.21-.6-.78-1-1.42-1h-9c-.64 0-1.21.4-1.42 1L1 9v8a1 1 0 0 0 1 1h1a1 1 0 0 0 1-1v-4.09A1.492 1.492 0 0 1 3.1 11c.22-.6.77-1 1.4-1h.07l.7-2H3l1.5-4.5h10.59l-.17-.5Z" transform="matrix(1.5 0 0 1.5 468 36)" id="mdi-car-multiple" fill="#fff"/><path d="M20.5 19.85 6.41 5.76l-4-4L1.11 3l3.46 3.46L3 11v8a1 1 0 0 0 1 1h1a1 1 0 0 0 1-1v-1h10.11l4.73 4.73 1.27-1.27-1.61-1.61M6.5 15A1.5 1.5 0 0 1 5 13.5 1.5 1.5 0 0 1 6.5 12 1.5 1.5 0 0 1 8 13.5 1.5 1.5 0 0 1 6.5 15M5 10l.78-2.33L8.11 10H5m12.5-4.5L19 10h-5.8l2.92 2.92c.38-.75 1.25-1.06 2-.71.75.36 1.06 1.26.71 2-.15.29-.4.56-.71.71L21 17.8V11l-2.08-6c-.21-.6-.78-1-1.42-1H7.2l1.5 1.5h8.8Z" transform="matrix(1.5 0 0 1.5 504 36)" id="mdi-car-off" fill="#555"/><path d="M20.5 19.85 6.41 5.76l-4-4L1.11 3l3.46 3.46L3 11v8a1 1 0 0 0 1 1h1a1 1 0 0 0 1-1v-1h10.11l4.73 4.73 1.27-1.27-1.61-1.61M6.5 15A1.5 1.5 0 0 1 5 13.5 1.5 1.5 0 0 1 6.5 12 1.5 1.5 0 0 1 8 13.5 1.5 1.5 0 0 1 6.5 15M5 10l.78-2.33L8.11 10H5m12.5-4.5L19 10h-5.8l2.92 2.92c.38-.75 1.25-1.06 2-.71.75.36 1.06 1.26.71 2-.15.29-.4.56-.71.71L21 17.8V11l-2.08-6c-.21-.6-.78-1-1.42-1H7.2l1.5 1.5h8.8Z" transform="matrix(1.5 0 0 1.5 540 36)" id="mdi-car-off" fill="#fff"/><path d="M18.9 6c-.2-.6-.8-1-1.4-1h-11c-.7 0-1.2.4-1.4 1L3 12v8c0 .5.5 1 1 1h1c.6 0 1-.5 1-1v-1h12v1c0 .5.5 1 1 1h1c.5 0 1-.5 1-1v-8l-2.1-6M6.8 7h10.3l1.1 3H5.8l1-3M19 17H5v-5h14v5M7.5 13c.8 0 1.5.7 1.5 1.5S8.3 16 7.5 16 6 15.3 6 14.5 6.7 13 7.5 13m9 0c.8 0 1.5.7 1.5 1.5s-.7 1.5-1.5 1.5-1.5-.7-1.5-1.5.7-1.5 1.5-1.5Z" transform="matrix(1.5 0 0 1.5 576 36)" id="mdi-car-outline" fill="#555"/><path d="M18.9 6c-.2-.6-.8-1-1.4-1h-11c-.7 0-1.2.4-1.4 1L3 12v8c0 .5.5 1 1 1h1c.6 0 1-.5 1-1v-1h12v1c0 .5.5 1 1 1h1c.5 0 1-.5 1-1v-8l-2.1-6M6.8 7h10.3l1.1 3H5.8l1-3M19 17H5v-5h14v5M7.5 13c.8 0 1.5.7 1.5 1.5S8.3 16 7.5 16 6 15.3 6 14.5 6.7 13 7.5 13m9 0c.8 0 1.5.7 1.5 1.5s-.7 1.5-1.5 1.5-1.5-.7-1.5-1.5.7-1.5 1.5-1.5Z" transform="matrix(1.5 0 0 1.5 612 36)" id="mdi-car-outline" fill="#fff"/><path d="M7.3 9.2C8.1 9.6 9 10.5 9 12c0 1.5-.9 2.4-1.7 2.8-.4-1.4-.4-4.2 0-5.6M6.5 7c-2 0-2 10 0 10s4.5-1.9 4.5-5-2.5-5-4.5-5m10.2 2.2c.3 1.4.3 4.2 0 5.6-.8-.4-1.7-1.3-1.7-2.8 0-1.5.9-2.4 1.7-2.8m.8-2.2c-2 0-4.5 1.9-4.5 5s2.5 5 4.5 5 2-10 0-10M4.9 6.2 2.5 4.6 1.4 6.3 4 8c.2-.7.5-1.4.9-1.8M20 8l2.6-1.7-1.1-1.7-2.4 1.6c.3.4.7 1 .9 1.8M4 16l-2.6 1.7 1.1 1.7 2.4-1.6c-.3-.4-.7-1-.9-1.8m16.5-5v2H24v-2h-3.5m-1.4 6.8 2.4 1.6 1.1-1.7L20 16c-.2.7-.5 1.4-.9 1.8M3.5 12v-1H0v2h3.5v-1Z" transform="matrix(1.5 0 0 1.5 648 36)" id="mdi-car-parking-lights" fill="#555"/><path d="M7.3 9.2C8.1 9.6 9 10.5 9 12c0 1.5-.9 2.4-1.7 2.8-.4-1.4-.4-4.2 0-5.6M6.5 7c-2 0-2 10 0 10s4.5-1.9 4.5-5-2.5-5-4.5-5m10.2 2.2c.3 1.4.3 4.2 0 5.6-.8-.4-1.7-1.3-1.7-2.8 0-1.5.9-2.4 1.7-2.8m.8-2.2c-2 0-4.5 1.9-4.5 5s2.5 5 4.5 5 2-10 0-10M4.9 6.2 2.5 4.6 1.4 6.3 4 8c.2-.7.5-1.4.9-1.8M20 8l2.6-1.7-1.1-1.7-2.4 1.6c.3.4.7 1 .9 1.8M4 16l-2.6 1.7 1.1 1.7 2.4-1.6c-.3-.4-.7-1-.9-1.8m16.5-5v2H24v-2h-3.5m-1.4 6.8 2.4 1.6 1.1-1.7L20 16c-.2.7-.5 1.4-.9 1.8M3.5 12v-1H0v2h3.5v-1Z" transform="matrix(1.5 0 0 1.5 684 36)" id="mdi-car-parking-lights" fill="#fff"/><path d="M16 6h-5.5v4H1v5h2a3 3 0 0 0 3 3 3 3 0 0 0 3-3h6a3 3 0 0 0 3 3 3 3 0 0 0 3-3h2v-3c0-1.11-.89-2-2-2h-2l-3-4m-4 1.5h3.5l1.96 2.5H12V7.5m-6 6A1.5 1.5 0 0 1 7.5 15 1.5 1.5 0 0 1 6 16.5 1.5 1.5 0 0 1 4.5 15 1.5 1.5 0 0 1 6 13.5m12 0a1.5 1.5 0 0 1 1.5 1.5 1.5 1.5 0 0 1-1.5 1.5 1.5 1.5 0 0 1-1.5-1.5 1.5 1.5 0 0 1 1.5-1.5Z" transform="matrix(1.5 0 0 1.5 0 72)" id="mdi-car-pickup" fill="#555"/><path d="M16 6h-5.5v4H1v5h2a3 3 0 0 0 3 3 3 3 0 0 0 3-3h6a3 3 0 0 0 3 3 3 3 0 0 0 3-3h2v-3c0-1.11-.89-2-2-2h-2l-3-4m-4 1.5h3.5l1.96 2.5H12V7.5m-6 6A1.5 1.5 0 0 1 7.5 15 1.5 1.5 0 0 1 6 16.5 1.5 1.5 0 0 1 4.5 15 1.5 1.5 0 0 1 6 13.5m12 0a1.5 1.5 0 0 1 1.5 1.5 1.5 1.5 0 0 1-1.5 1.5 1.5 1.5 0 0 1-1.5-1.5 1.5 1.5 0 0 1 1.5-1.5Z" transform="matrix(1.5 0 0 1.5 36 72)" id="mdi-car-pickup" fill="#fff"/><path d="M7 18S4 10 4 6s2-4 2-4h1s1 0 1 1-1 1-1 3 3 4 3 7-3 5-3 5m5-1c-1 0-4 2.5-4 2.5-.3.2-.2.5 0 .8 0 0 1 1.8 3 1.8h6c1.1 0 2-.9 2-2v-1c0-1.1-.9-2-2-2h-5Z" transform="matrix(1.5 0 0 1.5 72 72)" id="mdi-car-seat" fill="#555"/><path d="M7 18S4 10 4 6s2-4 2-4h1s1 0 1 1-1 1-1 3 3 4 3 7-3 5-3 5m5-1c-1 0-4 2.5-4 2.5-.3.2-.2.5 0 .8 0 0 1 1.8 3 1.8h6c1.1 0 2-.9 2-2v-1c0-1.1-.9-2-2-2h-5Z" transform="matrix(1.5 0 0 1.5 108 72)" id="mdi-car-seat" fill="#fff"/><path d="m20.8 10.2-1.4.4-1.2-.7V8.2l1.2-.7 1.4.4.3-1.1-1.1-.3.3-1.1-1.1-.3-.4 1.4-1.2.7-1.5-.9V5l1-1-.8-.8-.8.8-.8-.8-.8.8 1 1v1.3l-1.5.9-1.2-.7-.3-1.4-1.1.3.3 1.1-1.1.2.3 1.1 1.4-.4 1.2.7v1.7l-1.2.7-1.4-.4-.3 1.3 1.1.3-.3 1 1.1.3.4-1.4 1.2-.7 1.5.9v1.3l-1 1 .8.8.8-.8.8.8.8-.8-1-1v-1.3l1.5-.9 1.2.7.4 1.4 1.1-.3-.4-1.1 1.1-.3-.3-1.1m-6.8-2 1.5-.9 1.5.9v1.7l-1.5.9-1.5-.9V8.2M5 18S2 10 2 6s2-4 2-4h1s1 0 1 1-1 1-1 3 3 4 3 7-3 5-3 5m10-1c1.1 0 2 .9 2 2v1c0 1.1-.9 2-2 2H9c-2 0-3-1.8-3-1.8-.2-.2-.3-.6 0-.8 0 0 3-2.5 4-2.5h5Z" transform="matrix(1.5 0 0 1.5 144 72)" id="mdi-car-seat-cooler" fill="#555"/><path d="m20.8 10.2-1.4.4-1.2-.7V8.2l1.2-.7 1.4.4.3-1.1-1.1-.3.3-1.1-1.1-.3-.4 1.4-1.2.7-1.5-.9V5l1-1-.8-.8-.8.8-.8-.8-.8.8 1 1v1.3l-1.5.9-1.2-.7-.3-1.4-1.1.3.3 1.1-1.1.2.3 1.1 1.4-.4 1.2.7v1.7l-1.2.7-1.4-.4-.3 1.3 1.1.3-.3 1 1.1.3.4-1.4 1.2-.7 1.5.9v1.3l-1 1 .8.8.8-.8.8.8.8-.8-1-1v-1.3l1.5-.9 1.2.7.4 1.4 1.1-.3-.4-1.1 1.1-.3-.3-1.1m-6.8-2 1.5-.9 1.5.9v1.7l-1.5.9-1.5-.9V8.2M5 18S2 10 2 6s2-4 2-4h1s1 0 1 1-1 1-1 3 3 4 3 7-3 5-3 5m10-1c1.1 0 2 .9 2 2v1c0 1.1-.9 2-2 2H9c-2 0-3-1.8-3-1.8-.2-.2-.3-.6 0-.8 0 0 3-2.5 4-2.5h5Z" transform="matrix(1.5 0 0 1.5 180 72)" id="mdi-car-seat-cooler" fill="#fff"/><path d="M5 18S2 10 2 6s2-4 2-4h1s1 0 1 1-1 1-1 3 3 4 3 7-3 5-3 5m10-1c1.1 0 2 .9 2 2v1c0 1.1-.9 2-2 2H9c-2 0-3-1.8-3-1.8-.2-.2-.3-.6 0-.8 0 0 3-2.5 4-2.5h5M13.7 3.4l-1.4 3.4 1.4 3.4-2 4.8-1.7-1.4 1.4-3.4L10 6.8 12 2l1.7 1.4m4.2 0-1.4 3.4 1.4 3.4-2 4.8-1.7-1.4 1.4-3.4-1.4-3.4 2-4.8 1.7 1.4m4.1 0-1.4 3.4 1.4 3.4-2 4.8-1.7-1.4 1.4-3.4-1.4-3.4 2-4.8L22 3.4" transform="matrix(1.5 0 0 1.5 216 72)" id="mdi-car-seat-heater" fill="#555"/><path d="M5 18S2 10 2 6s2-4 2-4h1s1 0 1 1-1 1-1 3 3 4 3 7-3 5-3 5m10-1c1.1 0 2 .9 2 2v1c0 1.1-.9 2-2 2H9c-2 0-3-1.8-3-1.8-.2-.2-.3-.6 0-.8 0 0 3-2.5 4-2.5h5M13.7 3.4l-1.4 3.4 1.4 3.4-2 4.8-1.7-1.4 1.4-3.4L10 6.8 12 2l1.7 1.4m4.2 0-1.4 3.4 1.4 3.4-2 4.8-1.7-1.4 1.4-3.4-1.4-3.4 2-4.8 1.7 1.4m4.1 0-1.4 3.4 1.4 3.4-2 4.8-1.7-1.4 1.4-3.4-1.4-3.4 2-4.8L22 3.4" transform="matrix(1.5 0 0 1.5 252 72)" id="mdi-car-seat-heater" fill="#fff"/><path d="m5 13 1.5-4.5h11L19 13m-1.5 5c-.8 0-1.5-.7-1.5-1.5s.7-1.5 1.5-1.5 1.5.7 1.5 1.5-.7 1.5-1.5 1.5m-11 0c-.8 0-1.5-.7-1.5-1.5S5.7 15 6.5 15s1.5.7 1.5 1.5S7.3 18 6.5 18M18.9 8c-.2-.6-.8-1-1.4-1h-11c-.7 0-1.2.4-1.4 1L3 14v8c0 .6.4 1 1 1h1c.6 0 1-.4 1-1v-1h12v1c0 .6.4 1 1 1h1c.6 0 1-.4 1-1v-8M8 1l4 4.5L16 1Z" transform="matrix(1.5 0 0 1.5 288 72)" id="mdi-car-select" fill="#555"/><path d="m5 13 1.5-4.5h11L19 13m-1.5 5c-.8 0-1.5-.7-1.5-1.5s.7-1.5 1.5-1.5 1.5.7 1.5 1.5-.7 1.5-1.5 1.5m-11 0c-.8 0-1.5-.7-1.5-1.5S5.7 15 6.5 15s1.5.7 1.5 1.5S7.3 18 6.5 18M18.9 8c-.2-.6-.8-1-1.4-1h-11c-.7 0-1.2.4-1.4 1L3 14v8c0 .6.4 1 1 1h1c.6 0 1-.4 1-1v-1h12v1c0 .6.4 1 1 1h1c.6 0 1-.4 1-1v-8M8 1l4 4.5L16 1Z" transform="matrix(1.5 0 0 1.5 324 72)" id="mdi-car-select" fill="#fff"/><path d="M15 22h2v2h-2m-4-2h2v2h-2m-4-2h2v2H7M5 11l1.5-4.5h11L19 11m-1.5 5a1.5 1.5 0 0 1-1.5-1.5 1.5 1.5 0 0 1 1.5-1.5 1.5 1.5 0 0 1 1.5 1.5 1.5 1.5 0 0 1-1.5 1.5m-11 0A1.5 1.5 0 0 1 5 14.5 1.5 1.5 0 0 1 6.5 13 1.5 1.5 0 0 1 8 14.5 1.5 1.5 0 0 1 6.5 16M18.92 6c-.2-.58-.76-1-1.42-1h-11c-.66 0-1.22.42-1.42 1L3 12v8a1 1 0 0 0 1 1h1a1 1 0 0 0 1-1v-1h12v1a1 1 0 0 0 1 1h1a1 1 0 0 0 1-1v-8Z" transform="matrix(1.5 0 0 1.5 360 72)" id="mdi-car-settings" fill="#555"/><path d="M15 22h2v2h-2m-4-2h2v2h-2m-4-2h2v2H7M5 11l1.5-4.5h11L19 11m-1.5 5a1.5 1.5 0 0 1-1.5-1.5 1.5 1.5 0 0 1 1.5-1.5 1.5 1.5 0 0 1 1.5 1.5 1.5 1.5 0 0 1-1.5 1.5m-11 0A1.5 1.5 0 0 1 5 14.5 1.5 1.5 0 0 1 6.5 13 1.5 1.5 0 0 1 8 14.5 1.5 1.5 0 0 1 6.5 16M18.92 6c-.2-.58-.76-1-1.42-1h-11c-.66 0-1.22.42-1.42 1L3 12v8a1 1 0 0 0 1 1h1a1 1 0 0 0 1-1v-1h12v1a1 1 0 0 0 1 1h1a1 1 0 0 0 1-1v-8Z" transform="matrix(1.5 0 0 1.5 396 72)" id="mdi-car-settings" fill="#fff"/><path d="M8 5H4V2h4v3M4 22h4v-3H4v3M14 2h-4v3h4V2m-4 20h4v-3h-4v3m6-20v3h4V2h-4m1 9h-4V7h-2v4H7V7H5v10h2v-4h4v4h2v-4h6V7h-2v4Z" transform="matrix(1.5 0 0 1.5 432 72)" id="mdi-car-shift-pattern" fill="#555"/><path d="M8 5H4V2h4v3M4 22h4v-3H4v3M14 2h-4v3h4V2m-4 20h4v-3h-4v3m6-20v3h4V2h-4m1 9h-4V7h-2v4H7V7H5v10h2v-4h4v4h2v-4h6V7h-2v4Z" transform="matrix(1.5 0 0 1.5 468 72)" id="mdi-car-shift-pattern" fill="#fff"/><path d="m16 6 3 4h2c1.11 0 2 .89 2 2v3h-2a3 3 0 0 1-3 3 3 3 0 0 1-3-3H9a3 3 0 0 1-3 3 3 3 0 0 1-3-3H1v-3c0-1.11.89-2 2-2l3-4h10m-5.5 1.5H6.75L4.86 10h5.64V7.5m1.5 0V10h5.14l-1.89-2.5H12m-6 6A1.5 1.5 0 0 0 4.5 15 1.5 1.5 0 0 0 6 16.5 1.5 1.5 0 0 0 7.5 15 1.5 1.5 0 0 0 6 13.5m12 0a1.5 1.5 0 0 0-1.5 1.5 1.5 1.5 0 0 0 1.5 1.5 1.5 1.5 0 0 0 1.5-1.5 1.5 1.5 0 0 0-1.5-1.5Z" transform="matrix(1.5 0 0 1.5 504 72)" id="mdi-car-side" fill="#555"/><path d="m16 6 3 4h2c1.11 0 2 .89 2 2v3h-2a3 3 0 0 1-3 3 3 3 0 0 1-3-3H9a3 3 0 0 1-3 3 3 3 0 0 1-3-3H1v-3c0-1.11.89-2 2-2l3-4h10m-5.5 1.5H6.75L4.86 10h5.64V7.5m1.5 0V10h5.14l-1.89-2.5H12m-6 6A1.5 1.5 0 0 0 4.5 15 1.5 1.5 0 0 0 6 16.5 1.5 1.5 0 0 0 7.5 15 1.5 1.5 0 0 0 6 13.5m12 0a1.5 1.5 0 0 0-1.5 1.5 1.5 1.5 0 0 0 1.5 1.5 1.5 1.5 0 0 0 1.5-1.5 1.5 1.5 0 0 0-1.5-1.5Z" transform="matrix(1.5 0 0 1.5 540 72)" id="mdi-car-side" fill="#fff"/><path d="M18 15c0 2.6-1.2 4.9-3.1 6.3l-.5-.5-2.1-2.1 1.4-1.4 1.2 1.2c.5-.7.9-1.6 1-2.5H14v-2h1.9c-.2-.9-.5-1.7-1-2.5l-1.2 1.2-1.4-1.4 1.2-1.2c-.7-.5-1.6-.9-2.5-1V11H9V9.1c-.9.2-1.7.5-2.5 1l3 3c.2 0 .3-.1.5-.1a2 2 0 1 1 0 4c-1.11 0-2-.89-2-2 0-.2 0-.3.1-.5l-3-3c-.5.7-.9 1.6-1 2.5H6v2H4.1c.2.9.5 1.7 1 2.5l1.2-1.2 1.4 1.4-2.6 2.6C3.2 19.9 2 17.6 2 15c0-4.42 3.58-8 8-8s8 3.58 8 8m5-10c0-1.66-1.34-3-3-3s-3 1.34-3 3c0 1.3.84 2.4 2 2.82V11h2V7.82C22.16 7.4 23 6.3 23 5m-3 1c-.55 0-1-.45-1-1s.45-1 1-1 1 .45 1 1-.45 1-1 1Z" transform="matrix(1.5 0 0 1.5 576 72)" id="mdi-car-speed-limiter" fill="#555"/><path d="M18 15c0 2.6-1.2 4.9-3.1 6.3l-.5-.5-2.1-2.1 1.4-1.4 1.2 1.2c.5-.7.9-1.6 1-2.5H14v-2h1.9c-.2-.9-.5-1.7-1-2.5l-1.2 1.2-1.4-1.4 1.2-1.2c-.7-.5-1.6-.9-2.5-1V11H9V9.1c-.9.2-1.7.5-2.5 1l3 3c.2 0 .3-.1.5-.1a2 2 0 1 1 0 4c-1.11 0-2-.89-2-2 0-.2 0-.3.1-.5l-3-3c-.5.7-.9 1.6-1 2.5H6v2H4.1c.2.9.5 1.7 1 2.5l1.2-1.2 1.4 1.4-2.6 2.6C3.2 19.9 2 17.6 2 15c0-4.42 3.58-8 8-8s8 3.58 8 8m5-10c0-1.66-1.34-3-3-3s-3 1.34-3 3c0 1.3.84 2.4 2 2.82V11h2V7.82C22.16 7.4 23 6.3 23 5m-3 1c-.55 0-1-.45-1-1s.45-1 1-1 1 .45 1 1-.45 1-1 1Z" transform="matrix(1.5 0 0 1.5 612 72)" id="mdi-car-speed-limiter" fill="#fff"/><path d="M12 8.5H7L4 11H3c-1.11 0-2 .89-2 2v3h2.17c.43 1.2 1.56 2 2.83 2s2.4-.8 2.82-2h6.35c.43 1.2 1.56 2 2.83 2s2.4-.8 2.82-2H23v-1c0-1.11-1.03-1.47-2-2l-9-4.5M5.25 12l2.25-2h4l4 2H5.25M6 13.5A1.5 1.5 0 0 1 7.5 15 1.5 1.5 0 0 1 6 16.5 1.5 1.5 0 0 1 4.5 15 1.5 1.5 0 0 1 6 13.5m12 0a1.5 1.5 0 0 1 1.5 1.5 1.5 1.5 0 0 1-1.5 1.5 1.5 1.5 0 0 1-1.5-1.5 1.5 1.5 0 0 1 1.5-1.5Z" transform="matrix(1.5 0 0 1.5 648 72)" id="mdi-car-sports" fill="#555"/><path d="M12 8.5H7L4 11H3c-1.11 0-2 .89-2 2v3h2.17c.43 1.2 1.56 2 2.83 2s2.4-.8 2.82-2h6.35c.43 1.2 1.56 2 2.83 2s2.4-.8 2.82-2H23v-1c0-1.11-1.03-1.47-2-2l-9-4.5M5.25 12l2.25-2h4l4 2H5.25M6 13.5A1.5 1.5 0 0 1 7.5 15 1.5 1.5 0 0 1 6 16.5 1.5 1.5 0 0 1 4.5 15 1.5 1.5 0 0 1 6 13.5m12 0a1.5 1.5 0 0 1 1.5 1.5 1.5 1.5 0 0 1-1.5 1.5 1.5 1.5 0 0 1-1.5-1.5 1.5 1.5 0 0 1 1.5-1.5Z" transform="matrix(1.5 0 0 1.5 684 72)" id="mdi-car-sports" fill="#fff"/><path d="M11 13h2v2h-2v-2m0-8h2v6h-2V5m6-.24c1.86 1.43 3 3.85 3 6.24a8 8 0 0 1-4.14 7H8.14A8 8 0 0 1 4 11c0-2.39 1.09-4.83 3-6.24V2H5v1.86C3.15 5.68 2 8.2 2 11s1.15 5.32 3 7.14V22h2v-2h2v2h2v-2h2v2h2v-2h2v2h2v-3.86c1.85-1.82 3-4.34 3-7.14s-1.15-5.32-3-7.14V2h-2v2.76Z" transform="matrix(1.5 0 0 1.5 0 108)" id="mdi-car-tire-alert" fill="#555"/><path d="M11 13h2v2h-2v-2m0-8h2v6h-2V5m6-.24c1.86 1.43 3 3.85 3 6.24a8 8 0 0 1-4.14 7H8.14A8 8 0 0 1 4 11c0-2.39 1.09-4.83 3-6.24V2H5v1.86C3.15 5.68 2 8.2 2 11s1.15 5.32 3 7.14V22h2v-2h2v2h2v-2h2v2h2v-2h2v2h2v-3.86c1.85-1.82 3-4.34 3-7.14s-1.15-5.32-3-7.14V2h-2v2.76Z" transform="matrix(1.5 0 0 1.5 36 108)" id="mdi-car-tire-alert" fill="#fff"/><path d="M9.5 11h1c.3 0 .5-.2.5-.5V9h8v1.5c0 .3.2.5.5.5h1c.3 0 .5-.2.5-.5V6l-1.4-4.3c-.1-.4-.5-.7-.9-.7h-7.3c-.4 0-.8.3-.9.7L9 6v4.5c0 .3.2.5.5.5m1.8-9h7.3l.9 3h-9.1l.9-3m.7 21h-2c0-.8-1.9-1.5-3.4-2.1C4.5 20.1 2 19.2 2 17c0-2.3 2.3-2.9 4.2-3.5C7.9 13.1 9 12.7 9 12h2c0 2.3-2.3 2.9-4.2 3.5-1.7.4-2.8.8-2.8 1.5 0 .8 1.9 1.5 3.4 2.1 2.1.8 4.6 1.7 4.6 3.9m10 0h-2c0-.8-1.9-1.5-3.4-2.1-2.1-.8-4.6-1.7-4.6-3.9 0-2.3 2.3-2.9 4.2-3.5 1.6-.5 2.8-.8 2.8-1.5h2c0 2.3-2.3 2.9-4.2 3.5-1.6.4-2.8.8-2.8 1.5 0 .8 1.9 1.5 3.4 2.1 2.1.8 4.6 1.7 4.6 3.9Z" transform="matrix(1.5 0 0 1.5 72 108)" id="mdi-car-traction-control" fill="#555"/><path d="M9.5 11h1c.3 0 .5-.2.5-.5V9h8v1.5c0 .3.2.5.5.5h1c.3 0 .5-.2.5-.5V6l-1.4-4.3c-.1-.4-.5-.7-.9-.7h-7.3c-.4 0-.8.3-.9.7L9 6v4.5c0 .3.2.5.5.5m1.8-9h7.3l.9 3h-9.1l.9-3m.7 21h-2c0-.8-1.9-1.5-3.4-2.1C4.5 20.1 2 19.2 2 17c0-2.3 2.3-2.9 4.2-3.5C7.9 13.1 9 12.7 9 12h2c0 2.3-2.3 2.9-4.2 3.5-1.7.4-2.8.8-2.8 1.5 0 .8 1.9 1.5 3.4 2.1 2.1.8 4.6 1.7 4.6 3.9m10 0h-2c0-.8-1.9-1.5-3.4-2.1-2.1-.8-4.6-1.7-4.6-3.9 0-2.3 2.3-2.9 4.2-3.5 1.6-.5 2.8-.8 2.8-1.5h2c0 2.3-2.3 2.9-4.2 3.5-1.6.4-2.8.8-2.8 1.5 0 .8 1.9 1.5 3.4 2.1 2.1.8 4.6 1.7 4.6 3.9Z" transform="matrix(1.5 0 0 1.5 108 108)" id="mdi-car-traction-control" fill="#fff"/><path d="M22 13v2h-3.68c.43-.91.68-1.92.68-3 0-3.86-3.14-7-7-7H2V3h10a9 9 0 0 1 9 9c0 .34-.03.67-.06 1H22m-10 6c-3.86 0-7-3.14-7-7 0-1.07.25-2.09.69-3H2v2h1.06c-.03.33-.06.66-.06 1a9 9 0 0 0 9 9h10v-2H12m4.86-6.8c-.93.74-2.14.27-2.86-.15V12c2.79-1.69 1.39-4.11 1.39-4.11s-1.06-1.85-.78 0c.17 1.18-.85 1.99-1.57 2.41l-.04-.02C12.93 7 10.13 7 10.13 7S8 7 9.74 7.69c1.11.44 1.3 1.73 1.31 2.56l-.05.03c-2.86-1.58-4.26.84-4.26.84s-1.07 1.85.4.68c.93-.73 2.14-.26 2.86.15V12c-2.79 1.7-1.39 4.12-1.39 4.12s1.06 1.85.79-.01c-.18-1.17.85-1.98 1.57-2.41l.03.03C11.07 17 13.87 17 13.87 17s2.13 0 .39-.69c-1.11-.44-1.3-1.73-1.31-2.56l.05-.02c2.86 1.58 4.26-.85 4.26-.85s1.07-1.84-.4-.68Z" transform="matrix(1.5 0 0 1.5 144 108)" id="mdi-car-turbocharger" fill="#555"/><path d="M22 13v2h-3.68c.43-.91.68-1.92.68-3 0-3.86-3.14-7-7-7H2V3h10a9 9 0 0 1 9 9c0 .34-.03.67-.06 1H22m-10 6c-3.86 0-7-3.14-7-7 0-1.07.25-2.09.69-3H2v2h1.06c-.03.33-.06.66-.06 1a9 9 0 0 0 9 9h10v-2H12m4.86-6.8c-.93.74-2.14.27-2.86-.15V12c2.79-1.69 1.39-4.11 1.39-4.11s-1.06-1.85-.78 0c.17 1.18-.85 1.99-1.57 2.41l-.04-.02C12.93 7 10.13 7 10.13 7S8 7 9.74 7.69c1.11.44 1.3 1.73 1.31 2.56l-.05.03c-2.86-1.58-4.26.84-4.26.84s-1.07 1.85.4.68c.93-.73 2.14-.26 2.86.15V12c-2.79 1.7-1.39 4.12-1.39 4.12s1.06 1.85.79-.01c-.18-1.17.85-1.98 1.57-2.41l.03.03C11.07 17 13.87 17 13.87 17s2.13 0 .39-.69c-1.11-.44-1.3-1.73-1.31-2.56l.05-.02c2.86 1.58 4.26-.85 4.26-.85s1.07-1.84-.4-.68Z" transform="matrix(1.5 0 0 1.5 180 108)" id="mdi-car-turbocharger" fill="#fff"/><path d="m5 13 1.5-4.5h11L19 13m-1.5 5a1.5 1.5 0 0 1-1.5-1.5 1.5 1.5 0 0 1 1.5-1.5 1.5 1.5 0 0 1 1.5 1.5 1.5 1.5 0 0 1-1.5 1.5m-11 0A1.5 1.5 0 0 1 5 16.5 1.5 1.5 0 0 1 6.5 15 1.5 1.5 0 0 1 8 16.5 1.5 1.5 0 0 1 6.5 18M18.92 8c-.2-.58-.76-1-1.42-1h-11c-.66 0-1.22.42-1.42 1L3 14v8a1 1 0 0 0 1 1h1a1 1 0 0 0 1-1v-1h12v1a1 1 0 0 0 1 1h1a1 1 0 0 0 1-1v-8M7 5a1.5 1.5 0 0 0 1.5-1.5C8.5 2.5 7 .8 7 .8S5.5 2.5 5.5 3.5A1.5 1.5 0 0 0 7 5m5 0a1.5 1.5 0 0 0 1.5-1.5c0-1-1.5-2.7-1.5-2.7s-1.5 1.7-1.5 2.7A1.5 1.5 0 0 0 12 5m5 0a1.5 1.5 0 0 0 1.5-1.5c0-1-1.5-2.7-1.5-2.7s-1.5 1.7-1.5 2.7A1.5 1.5 0 0 0 17 5Z" transform="matrix(1.5 0 0 1.5 216 108)" id="mdi-car-wash" fill="#555"/><path d="m5 13 1.5-4.5h11L19 13m-1.5 5a1.5 1.5 0 0 1-1.5-1.5 1.5 1.5 0 0 1 1.5-1.5 1.5 1.5 0 0 1 1.5 1.5 1.5 1.5 0 0 1-1.5 1.5m-11 0A1.5 1.5 0 0 1 5 16.5 1.5 1.5 0 0 1 6.5 15 1.5 1.5 0 0 1 8 16.5 1.5 1.5 0 0 1 6.5 18M18.92 8c-.2-.58-.76-1-1.42-1h-11c-.66 0-1.22.42-1.42 1L3 14v8a1 1 0 0 0 1 1h1a1 1 0 0 0 1-1v-1h12v1a1 1 0 0 0 1 1h1a1 1 0 0 0 1-1v-8M7 5a1.5 1.5 0 0 0 1.5-1.5C8.5 2.5 7 .8 7 .8S5.5 2.5 5.5 3.5A1.5 1.5 0 0 0 7 5m5 0a1.5 1.5 0 0 0 1.5-1.5c0-1-1.5-2.7-1.5-2.7s-1.5 1.7-1.5 2.7A1.5 1.5 0 0 0 12 5m5 0a1.5 1.5 0 0 0 1.5-1.5c0-1-1.5-2.7-1.5-2.7s-1.5 1.7-1.5 2.7A1.5 1.5 0 0 0 17 5Z" transform="matrix(1.5 0 0 1.5 252 108)" id="mdi-car-wash" fill="#fff"/><path d="m22.63 15.5-2.42-9.65a1 1 0 0 0-1.07-.75c-1.34.14-5 .4-7.14.4s-5.8-.26-7.14-.4a1 1 0 0 0-1.07.75L1.37 15.5a1.5 1.5 0 0 0 1.18 1.86A61.5 61.5 0 0 0 12 18a61.5 61.5 0 0 0 9.45-.64 1.5 1.5 0 0 0 1.18-1.86Z" transform="matrix(1.5 0 0 1.5 288 108)" id="mdi-car-windshield" fill="#555"/><path d="m22.63 15.5-2.42-9.65a1 1 0 0 0-1.07-.75c-1.34.14-5 .4-7.14.4s-5.8-.26-7.14-.4a1 1 0 0 0-1.07.75L1.37 15.5a1.5 1.5 0 0 0 1.18 1.86A61.5 61.5 0 0 0 12 18a61.5 61.5 0 0 0 9.45-.64 1.5 1.5 0 0 0 1.18-1.86Z" transform="matrix(1.5 0 0 1.5 324 108)" id="mdi-car-windshield" fill="#fff"/><path d="m22.63 15.5-2.42-9.65a1 1 0 0 0-1.07-.75c-1.34.14-5 .4-7.14.4s-5.8-.26-7.14-.4a1 1 0 0 0-1.07.75L1.37 15.5a1.5 1.5 0 0 0 1.18 1.86A61.5 61.5 0 0 0 12 18a61.5 61.5 0 0 0 9.45-.64 1.5 1.5 0 0 0 1.18-1.86M12 16a63.33 63.33 0 0 1-8.56-.5L5.5 7.18c1.5.14 4.66.32 6.5.32s5-.18 6.5-.32l2.06 8.32A63.33 63.33 0 0 1 12 16Z" transform="matrix(1.5 0 0 1.5 360 108)" id="mdi-car-windshield-outline" fill="#555"/><path d="m22.63 15.5-2.42-9.65a1 1 0 0 0-1.07-.75c-1.34.14-5 .4-7.14.4s-5.8-.26-7.14-.4a1 1 0 0 0-1.07.75L1.37 15.5a1.5 1.5 0 0 0 1.18 1.86A61.5 61.5 0 0 0 12 18a61.5 61.5 0 0 0 9.45-.64 1.5 1.5 0 0 0 1.18-1.86M12 16a63.33 63.33 0 0 1-8.56-.5L5.5 7.18c1.5.14 4.66.32 6.5.32s5-.18 6.5-.32l2.06 8.32A63.33 63.33 0 0 1 12 16Z" transform="matrix(1.5 0 0 1.5 396 108)" id="mdi-car-windshield-outline" fill="#fff"/><path d="M12 5c-1.1 0-2 .9-2 2v1H6.5c-.66 0-1.22.42-1.42 1L3 15v8c0 .55.45 1 1 1h1c.55 0 1-.45 1-1v-1h12v1c0 .55.45 1 1 1h1c.55 0 1-.45 1-1v-8l-2.08-6c-.2-.58-.76-1-1.42-1H14V7a2 2 0 0 0-2-2M6.5 9.5h11L19 14H5l1.5-4.5m0 6.5c.83 0 1.5.67 1.5 1.5S7.33 19 6.5 19 5 18.33 5 17.5 5.67 16 6.5 16m11 0c.83 0 1.5.67 1.5 1.5s-.67 1.5-1.5 1.5-1.5-.67-1.5-1.5.67-1.5 1.5-1.5M16.2 3.4C15 2.3 13.5 1.7 12 1.7s-3 .6-4.2 1.7L7 2.6C8.4 1.2 10.2.5 12 .5s3.6.7 5 2.1l-.8.8m-.9.8-.8.8c-.7-.7-1.6-1-2.5-1s-1.8.3-2.5 1l-.8-.8c.9-.9 2.1-1.4 3.3-1.4s2.4.5 3.3 1.4" transform="matrix(1.5 0 0 1.5 432 108)" id="mdi-car-wireless" fill="#555"/><path d="M12 5c-1.1 0-2 .9-2 2v1H6.5c-.66 0-1.22.42-1.42 1L3 15v8c0 .55.45 1 1 1h1c.55 0 1-.45 1-1v-1h12v1c0 .55.45 1 1 1h1c.55 0 1-.45 1-1v-8l-2.08-6c-.2-.58-.76-1-1.42-1H14V7a2 2 0 0 0-2-2M6.5 9.5h11L19 14H5l1.5-4.5m0 6.5c.83 0 1.5.67 1.5 1.5S7.33 19 6.5 19 5 18.33 5 17.5 5.67 16 6.5 16m11 0c.83 0 1.5.67 1.5 1.5s-.67 1.5-1.5 1.5-1.5-.67-1.5-1.5.67-1.5 1.5-1.5M16.2 3.4C15 2.3 13.5 1.7 12 1.7s-3 .6-4.2 1.7L7 2.6C8.4 1.2 10.2.5 12 .5s3.6.7 5 2.1l-.8.8m-.9.8-.8.8c-.7-.7-1.6-1-2.5-1s-1.8.3-2.5 1l-.8-.8c.9-.9 2.1-1.4 3.3-1.4s2.4.5 3.3 1.4" transform="matrix(1.5 0 0 1.5 468 108)" id="mdi-car-wireless" fill="#fff"/><path d="M20.96 16.45c.01-.15.04-.3.04-.45v.5l-.04-.05M11 16c0 .71.15 1.39.42 2H6v1c0 .55-.45 1-1 1H4c-.55 0-1-.45-1-1v-8l2.08-6c.2-.58.76-1 1.42-1h11c.66 0 1.22.42 1.42 1L21 11v5c0-2.76-2.24-5-5-5s-5 2.24-5 5m-3-2.5c0-.83-.67-1.5-1.5-1.5S5 12.67 5 13.5 5.67 15 6.5 15 8 14.33 8 13.5M19 10l-1.5-4.5h-11L5 10h14m3.87 11.19-4.11-4.11c.41-1.04.18-2.26-.68-3.11-.9-.91-2.25-1.09-3.34-.59l1.94 1.94-1.35 1.36-1.99-1.95c-.54 1.09-.29 2.44.59 3.35a2.91 2.91 0 0 0 3.12.68l4.11 4.1c.18.19.45.19.63 0l1.04-1.03c.22-.18.22-.5.04-.64Z" transform="matrix(1.5 0 0 1.5 504 108)" id="mdi-car-wrench" fill="#555"/><path d="M20.96 16.45c.01-.15.04-.3.04-.45v.5l-.04-.05M11 16c0 .71.15 1.39.42 2H6v1c0 .55-.45 1-1 1H4c-.55 0-1-.45-1-1v-8l2.08-6c.2-.58.76-1 1.42-1h11c.66 0 1.22.42 1.42 1L21 11v5c0-2.76-2.24-5-5-5s-5 2.24-5 5m-3-2.5c0-.83-.67-1.5-1.5-1.5S5 12.67 5 13.5 5.67 15 6.5 15 8 14.33 8 13.5M19 10l-1.5-4.5h-11L5 10h14m3.87 11.19-4.11-4.11c.41-1.04.18-2.26-.68-3.11-.9-.91-2.25-1.09-3.34-.59l1.94 1.94-1.35 1.36-1.99-1.95c-.54 1.09-.29 2.44.59 3.35a2.91 2.91 0 0 0 3.12.68l4.11 4.1c.18.19.45.19.63 0l1.04-1.03c.22-.18.22-.5.04-.64Z" transform="matrix(1.5 0 0 1.5 540 108)" id="mdi-car-wrench" fill="#fff"/><path d="M8 17.5c0 .83-.67 1.5-1.5 1.5S5 18.33 5 17.5 5.67 16 6.5 16s1.5.67 1.5 1.5M18 5.59C17.79 3.54 16.18 2 14.24 2H8.88C6.95 2 5.36 3.5 5.15 5.53L5 6.59C4.92 7.34 5.5 8 6.24 8c.63 0 1.15-.47 1.23-1.09l.14-1.09c.07-.75.62-1.32 1.27-1.32h5.36c.65 0 1.2.57 1.26 1.32l1 11.06c.09.86-.5 1.62-1.25 1.62l-5.21-.68a3.46 3.46 0 0 1-1.24 2.36l6.13.82h.32c1.02 0 2.01-.44 2.71-1.22A4.22 4.22 0 0 0 19 16.65L18 5.59m-6.34 2.35c-.58-.37-1.35-.19-1.72.4L6.39 14h.11c.88 0 1.68.34 2.3.88l3.26-5.22c.37-.58.19-1.35-.4-1.72Z" transform="matrix(1.5 0 0 1.5 576 108)" id="mdi-carabiner" fill="#555"/><path d="M8 17.5c0 .83-.67 1.5-1.5 1.5S5 18.33 5 17.5 5.67 16 6.5 16s1.5.67 1.5 1.5M18 5.59C17.79 3.54 16.18 2 14.24 2H8.88C6.95 2 5.36 3.5 5.15 5.53L5 6.59C4.92 7.34 5.5 8 6.24 8c.63 0 1.15-.47 1.23-1.09l.14-1.09c.07-.75.62-1.32 1.27-1.32h5.36c.65 0 1.2.57 1.26 1.32l1 11.06c.09.86-.5 1.62-1.25 1.62l-5.21-.68a3.46 3.46 0 0 1-1.24 2.36l6.13.82h.32c1.02 0 2.01-.44 2.71-1.22A4.22 4.22 0 0 0 19 16.65L18 5.59m-6.34 2.35c-.58-.37-1.35-.19-1.72.4L6.39 14h.11c.88 0 1.68.34 2.3.88l3.26-5.22c.37-.58.19-1.35-.4-1.72Z" transform="matrix(1.5 0 0 1.5 612 108)" id="mdi-carabiner" fill="#fff"/><path d="M5 7a2 2 0 0 0-2 2v6a2 2 0 0 0 2 2h2a3 3 0 0 0 3 3 3 3 0 0 0 3-3h8v-2h-2V9a2 2 0 0 0-2-2H5m0 2h5v3H5V9m8 0h4v3h-4V9m-3 7a1 1 0 0 1 1 1 1 1 0 0 1-1 1 1 1 0 0 1-1-1 1 1 0 0 1 1-1Z" transform="matrix(1.5 0 0 1.5 648 108)" id="mdi-caravan" fill="#555"/><path d="M5 7a2 2 0 0 0-2 2v6a2 2 0 0 0 2 2h2a3 3 0 0 0 3 3 3 3 0 0 0 3-3h8v-2h-2V9a2 2 0 0 0-2-2H5m0 2h5v3H5V9m8 0h4v3h-4V9m-3 7a1 1 0 0 1 1 1 1 1 0 0 1-1 1 1 1 0 0 1-1-1 1 1 0 0 1 1-1Z" transform="matrix(1.5 0 0 1.5 684 108)" id="mdi-caravan" fill="#fff"/><path d="M20 20H4a2 2 0 0 1-2-2V6a2 2 0 0 1 2-2h16a2 2 0 0 1 2 2v12a2 2 0 0 1-2 2Z" transform="matrix(1.5 0 0 1.5 0 144)" id="mdi-card" fill="#555"/><path d="M20 20H4a2 2 0 0 1-2-2V6a2 2 0 0 1 2-2h16a2 2 0 0 1 2 2v12a2 2 0 0 1-2 2Z" transform="matrix(1.5 0 0 1.5 36 144)" id="mdi-card" fill="#fff"/><path d="M2 3h20c1.05 0 2 .95 2 2v14c0 1.05-.95 2-2 2H2c-1.05 0-2-.95-2-2V5c0-1.05.95-2 2-2m12 3v1h8V6h-8m0 2v1h8V8h-8m0 2v1h7v-1h-7m-6 3.91C6 13.91 2 15 2 17v1h12v-1c0-2-4-3.09-6-3.09M8 6a3 3 0 0 0-3 3 3 3 0 0 0 3 3 3 3 0 0 0 3-3 3 3 0 0 0-3-3Z" transform="matrix(1.5 0 0 1.5 72 144)" id="mdi-card-account-details" fill="#555"/><path d="M2 3h20c1.05 0 2 .95 2 2v14c0 1.05-.95 2-2 2H2c-1.05 0-2-.95-2-2V5c0-1.05.95-2 2-2m12 3v1h8V6h-8m0 2v1h8V8h-8m0 2v1h7v-1h-7m-6 3.91C6 13.91 2 15 2 17v1h12v-1c0-2-4-3.09-6-3.09M8 6a3 3 0 0 0-3 3 3 3 0 0 0 3 3 3 3 0 0 0 3-3 3 3 0 0 0-3-3Z" transform="matrix(1.5 0 0 1.5 108 144)" id="mdi-card-account-details" fill="#fff"/><path d="M22 3H2c-1.09.04-1.96.91-2 2v14c.04 1.09.91 1.96 2 2h20c1.09-.04 1.96-.91 2-2V5a2.074 2.074 0 0 0-2-2m0 16H2V5h20v14m-8-2v-1.25c0-1.66-3.34-2.5-5-2.5-1.66 0-5 .84-5 2.5V17h10M9 7a2.5 2.5 0 0 0-2.5 2.5A2.5 2.5 0 0 0 9 12a2.5 2.5 0 0 0 2.5-2.5A2.5 2.5 0 0 0 9 7m5 0v1h6V7h-6m0 2v1h6V9h-6m0 2v1h4v-1h-4" transform="matrix(1.5 0 0 1.5 144 144)" id="mdi-card-account-details-outline" fill="#555"/><path d="M22 3H2c-1.09.04-1.96.91-2 2v14c.04 1.09.91 1.96 2 2h20c1.09-.04 1.96-.91 2-2V5a2.074 2.074 0 0 0-2-2m0 16H2V5h20v14m-8-2v-1.25c0-1.66-3.34-2.5-5-2.5-1.66 0-5 .84-5 2.5V17h10M9 7a2.5 2.5 0 0 0-2.5 2.5A2.5 2.5 0 0 0 9 12a2.5 2.5 0 0 0 2.5-2.5A2.5 2.5 0 0 0 9 7m5 0v1h6V7h-6m0 2v1h6V9h-6m0 2v1h4v-1h-4" transform="matrix(1.5 0 0 1.5 180 144)" id="mdi-card-account-details-outline" fill="#fff"/><path d="m20 22.09 2.45 1.49-.65-2.81 2.2-1.88-2.89-.25L20 16l-1.13 2.64-2.87.25 2.18 1.88-.68 2.81 2.5-1.49M14.08 21H2c-1.05 0-2-.95-2-2V5c0-1.05.95-2 2-2h20c1.05 0 2 .95 2 2v10.53A5.97 5.97 0 0 0 20 14c-3.31 0-6 2.69-6 6 0 .34.03.68.08 1M8 13.91C6 13.91 2 15 2 17v1h12v-1c0-2-4-3.09-6-3.09M8 6C6.35 6 5 7.35 5 9s1.35 3 3 3 3-1.35 3-3-1.35-3-3-3m13 4h-7v1h7v-1m1-2h-8v1h8V8m0-2h-8v1h8V6Z" transform="matrix(1.5 0 0 1.5 216 144)" id="mdi-card-account-details-star" fill="#555"/><path d="m20 22.09 2.45 1.49-.65-2.81 2.2-1.88-2.89-.25L20 16l-1.13 2.64-2.87.25 2.18 1.88-.68 2.81 2.5-1.49M14.08 21H2c-1.05 0-2-.95-2-2V5c0-1.05.95-2 2-2h20c1.05 0 2 .95 2 2v10.53A5.97 5.97 0 0 0 20 14c-3.31 0-6 2.69-6 6 0 .34.03.68.08 1M8 13.91C6 13.91 2 15 2 17v1h12v-1c0-2-4-3.09-6-3.09M8 6C6.35 6 5 7.35 5 9s1.35 3 3 3 3-1.35 3-3-1.35-3-3-3m13 4h-7v1h7v-1m1-2h-8v1h8V8m0-2h-8v1h8V6Z" transform="matrix(1.5 0 0 1.5 252 144)" id="mdi-card-account-details-star" fill="#fff"/><path d="m20 22.09 2.45 1.49-.65-2.81 2.2-1.88-2.89-.25L20 16l-1.13 2.64-2.87.25 2.18 1.88-.68 2.81 2.5-1.49M14.08 21H2a2.074 2.074 0 0 1-2-2V5c.04-1.09.91-1.96 2-2h20c1.09.04 1.96.91 2 2v10.53c-.58-.53-1.25-.92-2-1.19V5H2v14h12.08c-.05.33-.08.66-.08 1 0 .34.03.68.08 1M14 17H4v-1.25c0-1.66 3.34-2.5 5-2.5 1.66 0 5 .84 5 2.5V17m0-6h4v1h-4v-1M9 7C7.63 7 6.5 8.13 6.5 9.5S7.63 12 9 12s2.5-1.13 2.5-2.5S10.37 7 9 7m5 2h6v1h-6V9m0-2h6v1h-6V7Z" transform="matrix(1.5 0 0 1.5 288 144)" id="mdi-card-account-details-star-outline" fill="#555"/><path d="m20 22.09 2.45 1.49-.65-2.81 2.2-1.88-2.89-.25L20 16l-1.13 2.64-2.87.25 2.18 1.88-.68 2.81 2.5-1.49M14.08 21H2a2.074 2.074 0 0 1-2-2V5c.04-1.09.91-1.96 2-2h20c1.09.04 1.96.91 2 2v10.53c-.58-.53-1.25-.92-2-1.19V5H2v14h12.08c-.05.33-.08.66-.08 1 0 .34.03.68.08 1M14 17H4v-1.25c0-1.66 3.34-2.5 5-2.5 1.66 0 5 .84 5 2.5V17m0-6h4v1h-4v-1M9 7C7.63 7 6.5 8.13 6.5 9.5S7.63 12 9 12s2.5-1.13 2.5-2.5S10.37 7 9 7m5 2h6v1h-6V9m0-2h6v1h-6V7Z" transform="matrix(1.5 0 0 1.5 324 144)" id="mdi-card-account-details-star-outline" fill="#fff"/><path d="M21 8V7l-3 2-3-2v1l3 2m4-7H2a2 2 0 0 0-2 2v14a2 2 0 0 0 2 2h20a2 2 0 0 0 2-2V5a2 2 0 0 0-2-2M8 6a3 3 0 0 1 3 3 3 3 0 0 1-3 3 3 3 0 0 1-3-3 3 3 0 0 1 3-3m6 12H2v-1c0-2 4-3.1 6-3.1s6 1.1 6 3.1m8-5h-8V6h8" transform="matrix(1.5 0 0 1.5 360 144)" id="mdi-card-account-mail" fill="#555"/><path d="M21 8V7l-3 2-3-2v1l3 2m4-7H2a2 2 0 0 0-2 2v14a2 2 0 0 0 2 2h20a2 2 0 0 0 2-2V5a2 2 0 0 0-2-2M8 6a3 3 0 0 1 3 3 3 3 0 0 1-3 3 3 3 0 0 1-3-3 3 3 0 0 1 3-3m6 12H2v-1c0-2 4-3.1 6-3.1s6 1.1 6 3.1m8-5h-8V6h8" transform="matrix(1.5 0 0 1.5 396 144)" id="mdi-card-account-mail" fill="#fff"/><path d="M22 3H2a2 2 0 0 0-2 2v14a2 2 0 0 0 2 2h20a2 2 0 0 0 2-2V5a2 2 0 0 0-2-2m0 16H2V5h20v14M21 6h-7v5h7V6m-1 2-2.5 1.75L15 8V7l2.5 1.75L20 7v1M9 12a3 3 0 0 0 3-3 3 3 0 0 0-3-3 3 3 0 0 0-3 3 3 3 0 0 0 3 3m0-4a1 1 0 0 1 1 1 1 1 0 0 1-1 1 1 1 0 0 1-1-1 1 1 0 0 1 1-1m6 8.59c0-2.5-3.97-3.59-6-3.59s-6 1.09-6 3.59V18h12v-1.41M5.5 16c.72-.5 2.2-1 3.5-1 1.3 0 2.77.5 3.5 1h-7Z" transform="matrix(1.5 0 0 1.5 432 144)" id="mdi-card-account-mail-outline" fill="#555"/><path d="M22 3H2a2 2 0 0 0-2 2v14a2 2 0 0 0 2 2h20a2 2 0 0 0 2-2V5a2 2 0 0 0-2-2m0 16H2V5h20v14M21 6h-7v5h7V6m-1 2-2.5 1.75L15 8V7l2.5 1.75L20 7v1M9 12a3 3 0 0 0 3-3 3 3 0 0 0-3-3 3 3 0 0 0-3 3 3 3 0 0 0 3 3m0-4a1 1 0 0 1 1 1 1 1 0 0 1-1 1 1 1 0 0 1-1-1 1 1 0 0 1 1-1m6 8.59c0-2.5-3.97-3.59-6-3.59s-6 1.09-6 3.59V18h12v-1.41M5.5 16c.72-.5 2.2-1 3.5-1 1.3 0 2.77.5 3.5 1h-7Z" transform="matrix(1.5 0 0 1.5 468 144)" id="mdi-card-account-mail-outline" fill="#fff"/><path d="M22 3H2a2 2 0 0 0-2 2v14a2 2 0 0 0 2 2h20a2 2 0 0 0 2-2V5a2 2 0 0 0-2-2M8 6a3 3 0 0 1 3 3 3 3 0 0 1-3 3 3 3 0 0 1-3-3 3 3 0 0 1 3-3m6 12H2v-1c0-2 4-3.1 6-3.1s6 1.1 6 3.1v1m3.85-4h1.65l1.5 2-2 2c-1.3-1-2.27-2.39-2.72-4-.18-.64-.28-1.31-.28-2s.1-1.36.28-2c.45-1.62 1.42-3 2.72-4l2 2-1.5 2h-1.65c-.22.63-.35 1.3-.35 2s.13 1.37.35 2Z" transform="matrix(1.5 0 0 1.5 504 144)" id="mdi-card-account-phone" fill="#555"/><path d="M22 3H2a2 2 0 0 0-2 2v14a2 2 0 0 0 2 2h20a2 2 0 0 0 2-2V5a2 2 0 0 0-2-2M8 6a3 3 0 0 1 3 3 3 3 0 0 1-3 3 3 3 0 0 1-3-3 3 3 0 0 1 3-3m6 12H2v-1c0-2 4-3.1 6-3.1s6 1.1 6 3.1v1m3.85-4h1.65l1.5 2-2 2c-1.3-1-2.27-2.39-2.72-4-.18-.64-.28-1.31-.28-2s.1-1.36.28-2c.45-1.62 1.42-3 2.72-4l2 2-1.5 2h-1.65c-.22.63-.35 1.3-.35 2s.13 1.37.35 2Z" transform="matrix(1.5 0 0 1.5 540 144)" id="mdi-card-account-phone" fill="#fff"/><path d="M22 3H2a2 2 0 0 0-2 2v14a2 2 0 0 0 2 2h20a2 2 0 0 0 2-2V5a2 2 0 0 0-2-2m0 16H2V5h20v14m-3-1 2-2-1.5-2h-1.65c-.22-.63-.35-1.3-.35-2s.13-1.37.35-2h1.65L21 8l-2-2c-1.3 1-2.27 2.38-2.72 4-.18.64-.28 1.31-.28 2s.1 1.36.28 2c.45 1.61 1.42 3 2.72 4M9 12a3 3 0 0 0 3-3 3 3 0 0 0-3-3 3 3 0 0 0-3 3 3 3 0 0 0 3 3m0-4a1 1 0 0 1 1 1 1 1 0 0 1-1 1 1 1 0 0 1-1-1 1 1 0 0 1 1-1m6 8.59c0-2.5-3.97-3.59-6-3.59s-6 1.09-6 3.59V18h12v-1.41M5.5 16c.72-.5 2.2-1 3.5-1 1.3 0 2.77.5 3.5 1h-7Z" transform="matrix(1.5 0 0 1.5 576 144)" id="mdi-card-account-phone-outline" fill="#555"/><path d="M22 3H2a2 2 0 0 0-2 2v14a2 2 0 0 0 2 2h20a2 2 0 0 0 2-2V5a2 2 0 0 0-2-2m0 16H2V5h20v14m-3-1 2-2-1.5-2h-1.65c-.22-.63-.35-1.3-.35-2s.13-1.37.35-2h1.65L21 8l-2-2c-1.3 1-2.27 2.38-2.72 4-.18.64-.28 1.31-.28 2s.1 1.36.28 2c.45 1.61 1.42 3 2.72 4M9 12a3 3 0 0 0 3-3 3 3 0 0 0-3-3 3 3 0 0 0-3 3 3 3 0 0 0 3 3m0-4a1 1 0 0 1 1 1 1 1 0 0 1-1 1 1 1 0 0 1-1-1 1 1 0 0 1 1-1m6 8.59c0-2.5-3.97-3.59-6-3.59s-6 1.09-6 3.59V18h12v-1.41M5.5 16c.72-.5 2.2-1 3.5-1 1.3 0 2.77.5 3.5 1h-7Z" transform="matrix(1.5 0 0 1.5 612 144)" id="mdi-card-account-phone-outline" fill="#fff"/><path d="M20 4a2 2 0 0 1 2 2v12a2 2 0 0 1-2 2H4a2 2 0 0 1-2-2V6a2 2 0 0 1 2-2h16m-9 9H9v2h2v-2m8 0h-6v2h6v-2M7 9H5v2h2V9m12 0H9v2h10V9Z" transform="matrix(1.5 0 0 1.5 648 144)" id="mdi-card-bulleted" fill="#555"/><path d="M20 4a2 2 0 0 1 2 2v12a2 2 0 0 1-2 2H4a2 2 0 0 1-2-2V6a2 2 0 0 1 2-2h16m-9 9H9v2h2v-2m8 0h-6v2h6v-2M7 9H5v2h2V9m12 0H9v2h10V9Z" transform="matrix(1.5 0 0 1.5 684 144)" id="mdi-card-bulleted" fill="#fff"/><path d="m3.35 3.58 17.3 17.29-1.42 1.42L16.94 20H4a2 2 0 0 1-2-2V6c0-.28.06-.54.16-.78l-.93-.93 1.42-1.42.7.71M6.6 4H20a2 2 0 0 1 2 2v12c0 .4-.12.77-.32 1.08L17.6 15H20v-2h-4.4l-2-2H20V9h-8.4l-5-5m3.34 9H9v2h2v-.94L9.94 13m-4-4H5v2h2v-.94L5.94 9Z" transform="matrix(1.5 0 0 1.5 0 180)" id="mdi-card-bulleted-off" fill="#555"/><path d="m3.35 3.58 17.3 17.29-1.42 1.42L16.94 20H4a2 2 0 0 1-2-2V6c0-.28.06-.54.16-.78l-.93-.93 1.42-1.42.7.71M6.6 4H20a2 2 0 0 1 2 2v12c0 .4-.12.77-.32 1.08L17.6 15H20v-2h-4.4l-2-2H20V9h-8.4l-5-5m3.34 9H9v2h2v-.94L9.94 13m-4-4H5v2h2v-.94L5.94 9Z" transform="matrix(1.5 0 0 1.5 36 180)" id="mdi-card-bulleted-off" fill="#fff"/><path d="m20.59 20.87-1.42 1.42L16.88 20H4a2 2 0 0 1-2-2V6c0-.26.05-.5.14-.74l-.97-.97 1.42-1.42L3.73 4l16.86 16.87M6.54 4H20a2 2 0 0 1 2 2v12c0 .41-.13.8-.34 1.12L20 17.46V6H8.54l-2-2M4 18h10.88l-3-3H10v-1.88L7.88 11H6V9.12l-2-2V18m14-3h-.46l-2-2H18v2m0-4h-4.46l-2-2H18v2Z" transform="matrix(1.5 0 0 1.5 72 180)" id="mdi-card-bulleted-off-outline" fill="#555"/><path d="m20.59 20.87-1.42 1.42L16.88 20H4a2 2 0 0 1-2-2V6c0-.26.05-.5.14-.74l-.97-.97 1.42-1.42L3.73 4l16.86 16.87M6.54 4H20a2 2 0 0 1 2 2v12c0 .41-.13.8-.34 1.12L20 17.46V6H8.54l-2-2M4 18h10.88l-3-3H10v-1.88L7.88 11H6V9.12l-2-2V18m14-3h-.46l-2-2H18v2m0-4h-4.46l-2-2H18v2Z" transform="matrix(1.5 0 0 1.5 108 180)" id="mdi-card-bulleted-off-outline" fill="#fff"/><path d="M12 15h-2v-2h2v2m6 0h-4v-2h4v2M8 11H6V9h2v2m10 0h-8V9h8v2m2 9H4a2 2 0 0 1-2-2V6a2 2 0 0 1 2-2h16a2 2 0 0 1 2 2v12a2 2 0 0 1-2 2M4 6v12h16V6H4Z" transform="matrix(1.5 0 0 1.5 144 180)" id="mdi-card-bulleted-outline" fill="#555"/><path d="M12 15h-2v-2h2v2m6 0h-4v-2h4v2M8 11H6V9h2v2m10 0h-8V9h8v2m2 9H4a2 2 0 0 1-2-2V6a2 2 0 0 1 2-2h16a2 2 0 0 1 2 2v12a2 2 0 0 1-2 2M4 6v12h16V6H4Z" transform="matrix(1.5 0 0 1.5 180 180)" id="mdi-card-bulleted-outline" fill="#fff"/><path d="M9 22v2H7v-2h2m4 0v2h-2v-2h2m4 0v2h-2v-2h2m3-2H4a2 2 0 0 1-2-2V6a2 2 0 0 1 2-2h16a2 2 0 0 1 2 2v12a2 2 0 0 1-2 2m-9-7H9v2h2v-2m8 0h-6v2h6v-2M7 9H5v2h2V9m12 0H9v2h10V9Z" transform="matrix(1.5 0 0 1.5 216 180)" id="mdi-card-bulleted-settings" fill="#555"/><path d="M9 22v2H7v-2h2m4 0v2h-2v-2h2m4 0v2h-2v-2h2m3-2H4a2 2 0 0 1-2-2V6a2 2 0 0 1 2-2h16a2 2 0 0 1 2 2v12a2 2 0 0 1-2 2m-9-7H9v2h2v-2m8 0h-6v2h6v-2M7 9H5v2h2V9m12 0H9v2h10V9Z" transform="matrix(1.5 0 0 1.5 252 180)" id="mdi-card-bulleted-settings" fill="#fff"/><path d="M9 22v2H7v-2h2m4 0v2h-2v-2h2m4 0v2h-2v-2h2m-5-7h-2v-2h2v2m6 0h-4v-2h4v2M8 11H6V9h2v2m10 0h-8V9h8v2m2 9H4a2 2 0 0 1-2-2V6a2 2 0 0 1 2-2h16a2 2 0 0 1 2 2v12a2 2 0 0 1-2 2M4 6v12h16V6H4Z" transform="matrix(1.5 0 0 1.5 288 180)" id="mdi-card-bulleted-settings-outline" fill="#555"/><path d="M9 22v2H7v-2h2m4 0v2h-2v-2h2m4 0v2h-2v-2h2m-5-7h-2v-2h2v2m6 0h-4v-2h4v2M8 11H6V9h2v2m10 0h-8V9h8v2m2 9H4a2 2 0 0 1-2-2V6a2 2 0 0 1 2-2h16a2 2 0 0 1 2 2v12a2 2 0 0 1-2 2M4 6v12h16V6H4Z" transform="matrix(1.5 0 0 1.5 324 180)" id="mdi-card-bulleted-settings-outline" fill="#fff"/><path d="M23 18v2h-8v-2h8m-4-5c1.09 0 2.12.3 3 .81V6c0-1.11-.89-2-2-2H4a2 2 0 0 0-2 2v12a2 2 0 0 0 2 2h9.09c-.05-.33-.09-.66-.09-1 0-3.31 2.69-6 6-6Z" transform="matrix(1.5 0 0 1.5 360 180)" id="mdi-card-minus" fill="#555"/><path d="M23 18v2h-8v-2h8m-4-5c1.09 0 2.12.3 3 .81V6c0-1.11-.89-2-2-2H4a2 2 0 0 0-2 2v12a2 2 0 0 0 2 2h9.09c-.05-.33-.09-.66-.09-1 0-3.31 2.69-6 6-6Z" transform="matrix(1.5 0 0 1.5 396 180)" id="mdi-card-minus" fill="#fff"/><path d="M23 18v2h-8v-2h8m-9.91 0H4V6h16v7.09c.72.12 1.39.37 2 .72V6c0-1.11-.89-2-2-2H4a2 2 0 0 0-2 2v12a2 2 0 0 0 2 2h9.09c-.05-.33-.09-.66-.09-1 0-.34.04-.67.09-1Z" transform="matrix(1.5 0 0 1.5 432 180)" id="mdi-card-minus-outline" fill="#555"/><path d="M23 18v2h-8v-2h8m-9.91 0H4V6h16v7.09c.72.12 1.39.37 2 .72V6c0-1.11-.89-2-2-2H4a2 2 0 0 0-2 2v12a2 2 0 0 0 2 2h9.09c-.05-.33-.09-.66-.09-1 0-.34.04-.67.09-1Z" transform="matrix(1.5 0 0 1.5 468 180)" id="mdi-card-minus-outline" fill="#fff"/><path d="M21 3c.53 0 1.04.21 1.41.59.38.37.59.88.59 1.41v10c0 .53-.21 1.04-.59 1.41-.37.38-.88.59-1.41.59H7c-.53 0-1.04-.21-1.41-.59C5.21 16.04 5 15.53 5 15V5c0-.53.21-1.04.59-1.41C5.96 3.21 6.47 3 7 3h14M3 19h15v2H3c-.53 0-1.04-.21-1.41-.59C1.21 20.04 1 19.53 1 19V8h2v11Z" transform="matrix(1.5 0 0 1.5 504 180)" id="mdi-card-multiple" fill="#555"/><path d="M21 3c.53 0 1.04.21 1.41.59.38.37.59.88.59 1.41v10c0 .53-.21 1.04-.59 1.41-.37.38-.88.59-1.41.59H7c-.53 0-1.04-.21-1.41-.59C5.21 16.04 5 15.53 5 15V5c0-.53.21-1.04.59-1.41C5.96 3.21 6.47 3 7 3h14M3 19h15v2H3c-.53 0-1.04-.21-1.41-.59C1.21 20.04 1 19.53 1 19V8h2v11Z" transform="matrix(1.5 0 0 1.5 540 180)" id="mdi-card-multiple" fill="#fff"/><path d="M21 16V6H7v10h14m0-12c.53 0 1.04.21 1.41.59.38.37.59.88.59 1.41v10c0 .53-.21 1.04-.59 1.41-.37.38-.88.59-1.41.59H7a2 2 0 0 1-2-2V6c0-1.11.89-2 2-2h14M3 20h15v2H3c-.53 0-1.04-.21-1.41-.59C1.21 21.04 1 20.53 1 20V9h2v11Z" transform="matrix(1.5 0 0 1.5 576 180)" id="mdi-card-multiple-outline" fill="#555"/><path d="M21 16V6H7v10h14m0-12c.53 0 1.04.21 1.41.59.38.37.59.88.59 1.41v10c0 .53-.21 1.04-.59 1.41-.37.38-.88.59-1.41.59H7a2 2 0 0 1-2-2V6c0-1.11.89-2 2-2h14M3 20h15v2H3c-.53 0-1.04-.21-1.41-.59C1.21 21.04 1 20.53 1 20V9h2v11Z" transform="matrix(1.5 0 0 1.5 612 180)" id="mdi-card-multiple-outline" fill="#fff"/><path d="M21.88 18.68 7.2 4H20c1.11 0 2 .89 2 2v12c0 .24-.04.47-.12.68m-1.32 1.23h.01L2.39 1.73 1.11 3l1.54 1.54C2.25 4.9 2 5.42 2 6v12a2 2 0 0 0 2 2h14.11l2.73 2.73 1.27-1.27-1.55-1.55Z" transform="matrix(1.5 0 0 1.5 648 180)" id="mdi-card-off" fill="#555"/><path d="M21.88 18.68 7.2 4H20c1.11 0 2 .89 2 2v12c0 .24-.04.47-.12.68m-1.32 1.23h.01L2.39 1.73 1.11 3l1.54 1.54C2.25 4.9 2 5.42 2 6v12a2 2 0 0 0 2 2h14.11l2.73 2.73 1.27-1.27-1.55-1.55Z" transform="matrix(1.5 0 0 1.5 684 180)" id="mdi-card-off" fill="#fff"/><path d="m9.2 6-2-2H20c1.11 0 2 .89 2 2v12c0 .24-.04.47-.12.68L20 16.8V6H9.2m12.91 15.46-1.27 1.27L18.11 20H4a2 2 0 0 1-2-2V6c0-.58.25-1.1.65-1.46L1.11 3l1.28-1.27L6.66 6l11.99 12h.01l1.91 1.91h-.01l1.55 1.55m-6-3.46-12-12H4v12h12.11Z" transform="matrix(1.5 0 0 1.5 0 216)" id="mdi-card-off-outline" fill="#555"/><path d="m9.2 6-2-2H20c1.11 0 2 .89 2 2v12c0 .24-.04.47-.12.68L20 16.8V6H9.2m12.91 15.46-1.27 1.27L18.11 20H4a2 2 0 0 1-2-2V6c0-.58.25-1.1.65-1.46L1.11 3l1.28-1.27L6.66 6l11.99 12h.01l1.91 1.91h-.01l1.55 1.55m-6-3.46-12-12H4v12h12.11Z" transform="matrix(1.5 0 0 1.5 36 216)" id="mdi-card-off-outline" fill="#fff"/><path d="M20 20H4a2 2 0 0 1-2-2V6a2 2 0 0 1 2-2h16a2 2 0 0 1 2 2v12a2 2 0 0 1-2 2M4 6v12h16V6H4Z" transform="matrix(1.5 0 0 1.5 72 216)" id="mdi-card-outline" fill="#555"/><path d="M20 20H4a2 2 0 0 1-2-2V6a2 2 0 0 1 2-2h16a2 2 0 0 1 2 2v12a2 2 0 0 1-2 2M4 6v12h16V6H4Z" transform="matrix(1.5 0 0 1.5 108 216)" id="mdi-card-outline" fill="#fff"/><path d="M13.09 20H4a2 2 0 0 1-2-2V6a2 2 0 0 1 2-2h16c1.11 0 2 .89 2 2v7.81c-.88-.51-1.91-.81-3-.81-3.31 0-6 2.69-6 6 0 .34.04.67.09 1M18 15v3h-3v2h3v3h2v-3h3v-2h-3v-3h-2Z" transform="matrix(1.5 0 0 1.5 144 216)" id="mdi-card-plus" fill="#555"/><path d="M13.09 20H4a2 2 0 0 1-2-2V6a2 2 0 0 1 2-2h16c1.11 0 2 .89 2 2v7.81c-.88-.51-1.91-.81-3-.81-3.31 0-6 2.69-6 6 0 .34.04.67.09 1M18 15v3h-3v2h3v3h2v-3h3v-2h-3v-3h-2Z" transform="matrix(1.5 0 0 1.5 180 216)" id="mdi-card-plus" fill="#fff"/><path d="M21 15v3h3v2h-3v3h-2v-3h-3v-2h3v-3h2m-7 3H3V6h16v7h2V6c0-1.11-.89-2-2-2H3a2 2 0 0 0-2 2v12a2 2 0 0 0 2 2h11v-2Z" transform="matrix(1.5 0 0 1.5 216 216)" id="mdi-card-plus-outline" fill="#555"/><path d="M21 15v3h3v2h-3v3h-2v-3h-3v-2h3v-3h2m-7 3H3V6h16v7h2V6c0-1.11-.89-2-2-2H3a2 2 0 0 0-2 2v12a2 2 0 0 0 2 2h11v-2Z" transform="matrix(1.5 0 0 1.5 252 216)" id="mdi-card-plus-outline" fill="#fff"/><path d="m20.41 19 2.13 2.12-1.42 1.42L19 20.41l-2.12 2.13-1.41-1.42L17.59 19l-2.12-2.12 1.41-1.41L19 17.59l2.12-2.12 1.42 1.41L20.41 19M19 13c1.09 0 2.12.3 3 .81V6c0-1.11-.89-2-2-2H4a2 2 0 0 0-2 2v12a2 2 0 0 0 2 2h9.09c-.05-.33-.09-.66-.09-1 0-3.31 2.69-6 6-6Z" transform="matrix(1.5 0 0 1.5 288 216)" id="mdi-card-remove" fill="#555"/><path d="m20.41 19 2.13 2.12-1.42 1.42L19 20.41l-2.12 2.13-1.41-1.42L17.59 19l-2.12-2.12 1.41-1.41L19 17.59l2.12-2.12 1.42 1.41L20.41 19M19 13c1.09 0 2.12.3 3 .81V6c0-1.11-.89-2-2-2H4a2 2 0 0 0-2 2v12a2 2 0 0 0 2 2h9.09c-.05-.33-.09-.66-.09-1 0-3.31 2.69-6 6-6Z" transform="matrix(1.5 0 0 1.5 324 216)" id="mdi-card-remove" fill="#fff"/><path d="m20.41 19 2.13 2.12-1.42 1.42L19 20.41l-2.12 2.13-1.41-1.42L17.59 19l-2.12-2.12 1.41-1.41L19 17.59l2.12-2.12 1.42 1.41L20.41 19m-7.32-1H4V6h16v7.09c.72.12 1.39.37 2 .72V6c0-1.11-.89-2-2-2H4a2 2 0 0 0-2 2v12a2 2 0 0 0 2 2h9.09c-.05-.33-.09-.66-.09-1 0-.34.04-.67.09-1Z" transform="matrix(1.5 0 0 1.5 360 216)" id="mdi-card-remove-outline" fill="#555"/><path d="m20.41 19 2.13 2.12-1.42 1.42L19 20.41l-2.12 2.13-1.41-1.42L17.59 19l-2.12-2.12 1.41-1.41L19 17.59l2.12-2.12 1.42 1.41L20.41 19m-7.32-1H4V6h16v7.09c.72.12 1.39.37 2 .72V6c0-1.11-.89-2-2-2H4a2 2 0 0 0-2 2v12a2 2 0 0 0 2 2h9.09c-.05-.33-.09-.66-.09-1 0-.34.04-.67.09-1Z" transform="matrix(1.5 0 0 1.5 396 216)" id="mdi-card-remove-outline" fill="#fff"/><path d="M11.5 9a2.5 2.5 0 0 0 0 5 2.5 2.5 0 0 0 0-5M20 4H4c-1.1 0-2 .9-2 2v12c0 1.1.9 2 2 2h16c1.1 0 2-.9 2-2V6c0-1.1-.9-2-2-2m-3.21 14.21-2.91-2.91c-.69.44-1.51.7-2.38.7C9 16 7 14 7 11.5S9 7 11.5 7a4.481 4.481 0 0 1 3.8 6.89l2.91 2.9-1.42 1.42Z" transform="matrix(1.5 0 0 1.5 432 216)" id="mdi-card-search" fill="#555"/><path d="M11.5 9a2.5 2.5 0 0 0 0 5 2.5 2.5 0 0 0 0-5M20 4H4c-1.1 0-2 .9-2 2v12c0 1.1.9 2 2 2h16c1.1 0 2-.9 2-2V6c0-1.1-.9-2-2-2m-3.21 14.21-2.91-2.91c-.69.44-1.51.7-2.38.7C9 16 7 14 7 11.5S9 7 11.5 7a4.481 4.481 0 0 1 3.8 6.89l2.91 2.9-1.42 1.42Z" transform="matrix(1.5 0 0 1.5 468 216)" id="mdi-card-search" fill="#fff"/><path d="M11.5 16c.87 0 1.69-.26 2.38-.7l2.44 2.44 1.42-1.42-2.44-2.43A4.481 4.481 0 0 0 11.5 7C9 7 7 9 7 11.5S9 16 11.5 16m0-7a2.5 2.5 0 0 1 0 5 2.5 2.5 0 0 1 0-5M20 4H4c-1.1 0-2 .9-2 2v12c0 1.1.9 2 2 2h16c1.1 0 2-.9 2-2V6c0-1.1-.9-2-2-2m0 14H4V6h16v12Z" transform="matrix(1.5 0 0 1.5 504 216)" id="mdi-card-search-outline" fill="#555"/><path d="M11.5 16c.87 0 1.69-.26 2.38-.7l2.44 2.44 1.42-1.42-2.44-2.43A4.481 4.481 0 0 0 11.5 7C9 7 7 9 7 11.5S9 16 11.5 16m0-7a2.5 2.5 0 0 1 0 5 2.5 2.5 0 0 1 0-5M20 4H4c-1.1 0-2 .9-2 2v12c0 1.1.9 2 2 2h16c1.1 0 2-.9 2-2V6c0-1.1-.9-2-2-2m0 14H4V6h16v12Z" transform="matrix(1.5 0 0 1.5 540 216)" id="mdi-card-search-outline" fill="#fff"/><path d="M20 20H4a2 2 0 0 1-2-2V6a2 2 0 0 1 2-2h16a2 2 0 0 1 2 2v12a2 2 0 0 1-2 2M5 13v2h11v-2H5m0-4v2h14V9H5Z" transform="matrix(1.5 0 0 1.5 576 216)" id="mdi-card-text" fill="#555"/><path d="M20 20H4a2 2 0 0 1-2-2V6a2 2 0 0 1 2-2h16a2 2 0 0 1 2 2v12a2 2 0 0 1-2 2M5 13v2h11v-2H5m0-4v2h14V9H5Z" transform="matrix(1.5 0 0 1.5 612 216)" id="mdi-card-text" fill="#fff"/><path d="M20 20H4a2 2 0 0 1-2-2V6a2 2 0 0 1 2-2h16a2 2 0 0 1 2 2v12a2 2 0 0 1-2 2M4 6v12h16V6H4m2 3h12v2H6V9m0 4h10v2H6v-2Z" transform="matrix(1.5 0 0 1.5 648 216)" id="mdi-card-text-outline" fill="#555"/><path d="M20 20H4a2 2 0 0 1-2-2V6a2 2 0 0 1 2-2h16a2 2 0 0 1 2 2v12a2 2 0 0 1-2 2M4 6v12h16V6H4m2 3h12v2H6V9m0 4h10v2H6v-2Z" transform="matrix(1.5 0 0 1.5 684 216)" id="mdi-card-text-outline" fill="#fff"/><path d="m21.47 4.35-1.34-.56v9.03l2.43-5.86c.41-1.02-.06-2.19-1.09-2.61m-19.5 3.7L6.93 20a2.01 2.01 0 0 0 1.81 1.26c.26 0 .53-.05.79-.16l7.37-3.05c.75-.31 1.21-1.05 1.23-1.79.01-.26-.04-.55-.13-.81L13 3.5a1.954 1.954 0 0 0-1.81-1.25c-.26 0-.52.06-.77.15L3.06 5.45a1.994 1.994 0 0 0-1.09 2.6m16.15-3.8a2 2 0 0 0-2-2h-1.45l3.45 8.34" transform="matrix(1.5 0 0 1.5 0 252)" id="mdi-cards" fill="#555"/><path d="m21.47 4.35-1.34-.56v9.03l2.43-5.86c.41-1.02-.06-2.19-1.09-2.61m-19.5 3.7L6.93 20a2.01 2.01 0 0 0 1.81 1.26c.26 0 .53-.05.79-.16l7.37-3.05c.75-.31 1.21-1.05 1.23-1.79.01-.26-.04-.55-.13-.81L13 3.5a1.954 1.954 0 0 0-1.81-1.25c-.26 0-.52.06-.77.15L3.06 5.45a1.994 1.994 0 0 0-1.09 2.6m16.15-3.8a2 2 0 0 0-2-2h-1.45l3.45 8.34" transform="matrix(1.5 0 0 1.5 36 252)" id="mdi-cards" fill="#fff"/><path d="M12 2c2.3 0 4.3 2 4.3 4.2a4.445 4.445 0 0 1-2.26 3.8c1-.5 2.46-.5 2.46-.5 2.5 0 4.5 1.8 4.5 4.3S19 18 16.5 18c0 0-1.5 0-3.5-1 0 0-.3 2 2 5H9c2.3-3 2-5 2-5-2 1-3.5 1-3.5 1C5 18 3 16.3 3 13.8s2-4.3 4.5-4.3c0 0 1.46 0 2.46.5-.3-.17-2.17-1.23-2.26-3.8C7.7 4 9.7 2 12 2Z" transform="matrix(1.5 0 0 1.5 72 252)" id="mdi-cards-club" fill="#555"/><path d="M12 2c2.3 0 4.3 2 4.3 4.2a4.445 4.445 0 0 1-2.26 3.8c1-.5 2.46-.5 2.46-.5 2.5 0 4.5 1.8 4.5 4.3S19 18 16.5 18c0 0-1.5 0-3.5-1 0 0-.3 2 2 5H9c2.3-3 2-5 2-5-2 1-3.5 1-3.5 1C5 18 3 16.3 3 13.8s2-4.3 4.5-4.3c0 0 1.46 0 2.46.5-.3-.17-2.17-1.23-2.26-3.8C7.7 4 9.7 2 12 2Z" transform="matrix(1.5 0 0 1.5 108 252)" id="mdi-cards-club" fill="#fff"/><path d="M16.6 9.5c.2-.6.4-1.3.4-2 0-3-2.2-5.5-5-5.5S7 4.5 7 7.5c0 .7.1 1.4.4 2-2.5.1-4.4 1.9-4.4 4.3C3 16.3 5 18 7.5 18c0 0 2.5 0 3.5-1 0 0 .3 2-2 5h6c-2.3-3-2-5-2-5 1 1 3.5 1 3.5 1 2.5 0 4.5-1.7 4.5-4.2 0-2.4-1.9-4.2-4.4-4.3m-.1 6.5S14 16 13 15h-2c-1 1-3.5 1-3.5 1-1.2 0-2.5-.7-2.5-2.2 0-1.3 1.1-2.3 2.5-2.3.3 0 .8.1 1.3.2.1 0 .2.1.3.1l.9-1.7c-.2-.2-.3-.4-.4-.6-.4-.6-.6-1.2-.6-2C9 5.6 10.3 4 12 4s3 1.6 3 3.5c0 .8-.2 1.5-.6 2.1-.1.2-.2.3-.3.5l.9 1.7c.1 0 .2-.1.3-.1.4-.1.9-.2 1.3-.2 1.4 0 2.5 1 2.5 2.3-.1 1.5-1.4 2.2-2.6 2.2Z" transform="matrix(1.5 0 0 1.5 144 252)" id="mdi-cards-club-outline" fill="#555"/><path d="M16.6 9.5c.2-.6.4-1.3.4-2 0-3-2.2-5.5-5-5.5S7 4.5 7 7.5c0 .7.1 1.4.4 2-2.5.1-4.4 1.9-4.4 4.3C3 16.3 5 18 7.5 18c0 0 2.5 0 3.5-1 0 0 .3 2-2 5h6c-2.3-3-2-5-2-5 1 1 3.5 1 3.5 1 2.5 0 4.5-1.7 4.5-4.2 0-2.4-1.9-4.2-4.4-4.3m-.1 6.5S14 16 13 15h-2c-1 1-3.5 1-3.5 1-1.2 0-2.5-.7-2.5-2.2 0-1.3 1.1-2.3 2.5-2.3.3 0 .8.1 1.3.2.1 0 .2.1.3.1l.9-1.7c-.2-.2-.3-.4-.4-.6-.4-.6-.6-1.2-.6-2C9 5.6 10.3 4 12 4s3 1.6 3 3.5c0 .8-.2 1.5-.6 2.1-.1.2-.2.3-.3.5l.9 1.7c.1 0 .2-.1.3-.1.4-.1.9-.2 1.3-.2 1.4 0 2.5 1 2.5 2.3-.1 1.5-1.4 2.2-2.6 2.2Z" transform="matrix(1.5 0 0 1.5 180 252)" id="mdi-cards-club-outline" fill="#fff"/><path d="m19 12-7 10-7-10 7-10" transform="matrix(1.5 0 0 1.5 216 252)" id="mdi-cards-diamond" fill="#555"/><path d="m19 12-7 10-7-10 7-10" transform="matrix(1.5 0 0 1.5 252 252)" id="mdi-cards-diamond" fill="#fff"/><path d="M12 2 5 12l7 10 7-10M7.44 12 12 5.5l4.56 6.5L12 18.5" transform="matrix(1.5 0 0 1.5 288 252)" id="mdi-cards-diamond-outline" fill="#555"/><path d="M12 2 5 12l7 10 7-10M7.44 12 12 5.5l4.56 6.5L12 18.5" transform="matrix(1.5 0 0 1.5 324 252)" id="mdi-cards-diamond-outline" fill="#fff"/><path d="m12 21.35-1.45-1.32C5.4 15.36 2 12.27 2 8.5 2 5.41 4.42 3 7.5 3c1.74 0 3.41.81 4.5 2.08C13.09 3.81 14.76 3 16.5 3 19.58 3 22 5.41 22 8.5c0 3.77-3.4 6.86-8.55 11.53L12 21.35Z" transform="matrix(1.5 0 0 1.5 360 252)" id="mdi-cards-heart" fill="#555"/><path d="m12 21.35-1.45-1.32C5.4 15.36 2 12.27 2 8.5 2 5.41 4.42 3 7.5 3c1.74 0 3.41.81 4.5 2.08C13.09 3.81 14.76 3 16.5 3 19.58 3 22 5.41 22 8.5c0 3.77-3.4 6.86-8.55 11.53L12 21.35Z" transform="matrix(1.5 0 0 1.5 396 252)" id="mdi-cards-heart" fill="#fff"/><path d="m12.1 18.55-.1.1-.11-.1C7.14 14.24 4 11.39 4 8.5 4 6.5 5.5 5 7.5 5c1.54 0 3.04 1 3.57 2.36h1.86C13.46 6 14.96 5 16.5 5c2 0 3.5 1.5 3.5 3.5 0 2.89-3.14 5.74-7.9 10.05M16.5 3c-1.74 0-3.41.81-4.5 2.08C10.91 3.81 9.24 3 7.5 3 4.42 3 2 5.41 2 8.5c0 3.77 3.4 6.86 8.55 11.53L12 21.35l1.45-1.32C18.6 15.36 22 12.27 22 8.5 22 5.41 19.58 3 16.5 3Z" transform="matrix(1.5 0 0 1.5 432 252)" id="mdi-cards-heart-outline" fill="#555"/><path d="m12.1 18.55-.1.1-.11-.1C7.14 14.24 4 11.39 4 8.5 4 6.5 5.5 5 7.5 5c1.54 0 3.04 1 3.57 2.36h1.86C13.46 6 14.96 5 16.5 5c2 0 3.5 1.5 3.5 3.5 0 2.89-3.14 5.74-7.9 10.05M16.5 3c-1.74 0-3.41.81-4.5 2.08C10.91 3.81 9.24 3 7.5 3 4.42 3 2 5.41 2 8.5c0 3.77 3.4 6.86 8.55 11.53L12 21.35l1.45-1.32C18.6 15.36 22 12.27 22 8.5 22 5.41 19.58 3 16.5 3Z" transform="matrix(1.5 0 0 1.5 468 252)" id="mdi-cards-heart-outline" fill="#fff"/><path d="M11.19 2.25c-.26 0-.52.06-.77.15L3.06 5.45a1.994 1.994 0 0 0-1.09 2.6L6.93 20a2 2 0 0 0 1.81 1.25c.26 0 .53-.03.79-.15l7.37-3.05a2.02 2.02 0 0 0 1.23-1.8c.01-.25-.04-.54-.13-.8L13 3.5a1.954 1.954 0 0 0-1.81-1.25m3.48 0 3.45 8.35V4.25a2 2 0 0 0-2-2m4.01 1.54v9.03l2.43-5.86a1.99 1.99 0 0 0-1.09-2.6m-10.28-.14 4.98 12.02-7.39 3.06L3.8 7.29" transform="matrix(1.5 0 0 1.5 504 252)" id="mdi-cards-outline" fill="#555"/><path d="M11.19 2.25c-.26 0-.52.06-.77.15L3.06 5.45a1.994 1.994 0 0 0-1.09 2.6L6.93 20a2 2 0 0 0 1.81 1.25c.26 0 .53-.03.79-.15l7.37-3.05a2.02 2.02 0 0 0 1.23-1.8c.01-.25-.04-.54-.13-.8L13 3.5a1.954 1.954 0 0 0-1.81-1.25m3.48 0 3.45 8.35V4.25a2 2 0 0 0-2-2m4.01 1.54v9.03l2.43-5.86a1.99 1.99 0 0 0-1.09-2.6m-10.28-.14 4.98 12.02-7.39 3.06L3.8 7.29" transform="matrix(1.5 0 0 1.5 540 252)" id="mdi-cards-outline" fill="#fff"/><path d="M14.7 2.2h1.5c1.1 0 2 .9 2 2v6.4l-3.5-8.4m5.4 1.6 1.3.6c1 .4 1.5 1.6 1.1 2.6l-2.4 5.9V3.8M18 15.5l-5-12c-.3-.8-1-1.2-1.8-1.2-.3 0-.5.1-.8.2L3 5.5C2 5.9 1.5 7 2 8l5 12c.3.8 1 1.2 1.8 1.2.3 0 .5 0 .8-.2l7.4-3c.8-.3 1.2-1 1.2-1.8-.1-.2-.1-.5-.2-.7m-6.6-.5-3.2-2.4.4-4 3.2 2.4-.4 4" transform="matrix(1.5 0 0 1.5 576 252)" id="mdi-cards-playing" fill="#555"/><path d="M14.7 2.2h1.5c1.1 0 2 .9 2 2v6.4l-3.5-8.4m5.4 1.6 1.3.6c1 .4 1.5 1.6 1.1 2.6l-2.4 5.9V3.8M18 15.5l-5-12c-.3-.8-1-1.2-1.8-1.2-.3 0-.5.1-.8.2L3 5.5C2 5.9 1.5 7 2 8l5 12c.3.8 1 1.2 1.8 1.2.3 0 .5 0 .8-.2l7.4-3c.8-.3 1.2-1 1.2-1.8-.1-.2-.1-.5-.2-.7m-6.6-.5-3.2-2.4.4-4 3.2 2.4-.4 4" transform="matrix(1.5 0 0 1.5 612 252)" id="mdi-cards-playing" fill="#fff"/><path d="M17 2H7c-1.1 0-2 .9-2 2v16c0 1.1.9 2 2 2h10c1.1 0 2-.9 2-2V4c0-1.1-.9-2-2-2m-3 13c-.6 0-1.1-.3-1.5-.7l1 2.7h-3l1-2.7c-.4.4-.9.7-1.5.7-1.1 0-2-.9-2-2s.9-2 2-2h.3c-.2-.3-.3-.7-.3-1 0-1.1.9-2 2-2s2 .9 2 2c0 .4-.1.7-.3 1h.3c1.1 0 2 .9 2 2s-.9 2-2 2Z" transform="matrix(1.5 0 0 1.5 648 252)" id="mdi-cards-playing-club" fill="#555"/><path d="M17 2H7c-1.1 0-2 .9-2 2v16c0 1.1.9 2 2 2h10c1.1 0 2-.9 2-2V4c0-1.1-.9-2-2-2m-3 13c-.6 0-1.1-.3-1.5-.7l1 2.7h-3l1-2.7c-.4.4-.9.7-1.5.7-1.1 0-2-.9-2-2s.9-2 2-2h.3c-.2-.3-.3-.7-.3-1 0-1.1.9-2 2-2s2 .9 2 2c0 .4-.1.7-.3 1h.3c1.1 0 2 .9 2 2s-.9 2-2 2Z" transform="matrix(1.5 0 0 1.5 684 252)" id="mdi-cards-playing-club" fill="#fff"/><path d="M3 4v18c0 1.1.9 2 2 2h12v-2H5V4H3m16-4H9C7.9 0 7 .9 7 2v16c0 1.1.9 2 2 2h10c1.1 0 2-.9 2-2V2c0-1.1-.9-2-2-2m-3 13c-.6 0-1.1-.3-1.5-.7l1 2.7h-3l1-2.7c-.4.4-.9.7-1.5.7-1.1 0-2-.9-2-2s.9-2 2-2h.3c-.2-.3-.3-.6-.3-1 0-1.1.9-2 2-2s2 .9 2 2c0 .4-.1.7-.3 1h.3c1.1 0 2 .9 2 2s-.9 2-2 2Z" transform="matrix(1.5 0 0 1.5 0 288)" id="mdi-cards-playing-club-multiple" fill="#555"/><path d="M3 4v18c0 1.1.9 2 2 2h12v-2H5V4H3m16-4H9C7.9 0 7 .9 7 2v16c0 1.1.9 2 2 2h10c1.1 0 2-.9 2-2V2c0-1.1-.9-2-2-2m-3 13c-.6 0-1.1-.3-1.5-.7l1 2.7h-3l1-2.7c-.4.4-.9.7-1.5.7-1.1 0-2-.9-2-2s.9-2 2-2h.3c-.2-.3-.3-.6-.3-1 0-1.1.9-2 2-2s2 .9 2 2c0 .4-.1.7-.3 1h.3c1.1 0 2 .9 2 2s-.9 2-2 2Z" transform="matrix(1.5 0 0 1.5 36 288)" id="mdi-cards-playing-club-multiple" fill="#fff"/><path d="M19 0H9C7.9 0 7 .9 7 2v16c0 1.1.9 2 2 2h10c1.1 0 2-.9 2-2V2c0-1.1-.9-2-2-2m0 18H9V2h10v16M3 4v18c0 1.1.9 2 2 2h12v-2H5V4H3m11 2c-1.1 0-2 .9-2 2 0 .4.1.7.3 1H12c-1.1 0-2 .9-2 2s.9 2 2 2c.6 0 1.1-.3 1.5-.7l-1 2.7h3l-1-2.7c.4.4.9.7 1.5.7 1.1 0 2-.9 2-2s-.9-2-2-2h-.3c.2-.3.3-.6.3-1 0-1.1-.9-2-2-2Z" transform="matrix(1.5 0 0 1.5 72 288)" id="mdi-cards-playing-club-multiple-outline" fill="#555"/><path d="M19 0H9C7.9 0 7 .9 7 2v16c0 1.1.9 2 2 2h10c1.1 0 2-.9 2-2V2c0-1.1-.9-2-2-2m0 18H9V2h10v16M3 4v18c0 1.1.9 2 2 2h12v-2H5V4H3m11 2c-1.1 0-2 .9-2 2 0 .4.1.7.3 1H12c-1.1 0-2 .9-2 2s.9 2 2 2c.6 0 1.1-.3 1.5-.7l-1 2.7h3l-1-2.7c.4.4.9.7 1.5.7 1.1 0 2-.9 2-2s-.9-2-2-2h-.3c.2-.3.3-.6.3-1 0-1.1-.9-2-2-2Z" transform="matrix(1.5 0 0 1.5 108 288)" id="mdi-cards-playing-club-multiple-outline" fill="#fff"/><path d="M17 2H7c-1.1 0-2 .9-2 2v16c0 1.1.9 2 2 2h10c1.1 0 2-.9 2-2V4c0-1.1-.9-2-2-2m0 18H7V4h10v16M12 8c-1.1 0-2 .9-2 2 0 .4.1.7.3 1H10c-1.1 0-2 .9-2 2s.9 2 2 2c.6 0 1.1-.3 1.5-.7l-1 2.7h3l-1-2.7c.4.4.9.7 1.5.7 1.1 0 2-.9 2-2s-.9-2-2-2h-.3c.2-.3.3-.7.3-1 0-1.1-.9-2-2-2Z" transform="matrix(1.5 0 0 1.5 144 288)" id="mdi-cards-playing-club-outline" fill="#555"/><path d="M17 2H7c-1.1 0-2 .9-2 2v16c0 1.1.9 2 2 2h10c1.1 0 2-.9 2-2V4c0-1.1-.9-2-2-2m0 18H7V4h10v16M12 8c-1.1 0-2 .9-2 2 0 .4.1.7.3 1H10c-1.1 0-2 .9-2 2s.9 2 2 2c.6 0 1.1-.3 1.5-.7l-1 2.7h3l-1-2.7c.4.4.9.7 1.5.7 1.1 0 2-.9 2-2s-.9-2-2-2h-.3c.2-.3.3-.7.3-1 0-1.1-.9-2-2-2Z" transform="matrix(1.5 0 0 1.5 180 288)" id="mdi-cards-playing-club-outline" fill="#fff"/><path d="M17 2H7c-1.1 0-2 .9-2 2v16c0 1.1.9 2 2 2h10c1.1 0 2-.9 2-2V4c0-1.1-.9-2-2-2m-5 15-3-5 3-5 3 5-3 5Z" transform="matrix(1.5 0 0 1.5 216 288)" id="mdi-cards-playing-diamond" fill="#555"/><path d="M17 2H7c-1.1 0-2 .9-2 2v16c0 1.1.9 2 2 2h10c1.1 0 2-.9 2-2V4c0-1.1-.9-2-2-2m-5 15-3-5 3-5 3 5-3 5Z" transform="matrix(1.5 0 0 1.5 252 288)" id="mdi-cards-playing-diamond" fill="#fff"/><path d="M3 4v18c0 1.1.9 2 2 2h12v-2H5V4H3m16-4H9C7.9 0 7 .9 7 2v16c0 1.1.9 2 2 2h10c1.1 0 2-.9 2-2V2c0-1.1-.9-2-2-2m-5 15-3-5 3-5 3 5-3 5Z" transform="matrix(1.5 0 0 1.5 288 288)" id="mdi-cards-playing-diamond-multiple" fill="#555"/><path d="M3 4v18c0 1.1.9 2 2 2h12v-2H5V4H3m16-4H9C7.9 0 7 .9 7 2v16c0 1.1.9 2 2 2h10c1.1 0 2-.9 2-2V2c0-1.1-.9-2-2-2m-5 15-3-5 3-5 3 5-3 5Z" transform="matrix(1.5 0 0 1.5 324 288)" id="mdi-cards-playing-diamond-multiple" fill="#fff"/><path d="M19 0H9C7.9 0 7 .9 7 2v16c0 1.1.9 2 2 2h10c1.1 0 2-.9 2-2V2c0-1.1-.9-2-2-2m0 18H9V2h10v16M3 4v18c0 1.1.9 2 2 2h12v-2H5V4H3m11 1-3 5 3 5 3-5-3-5Z" transform="matrix(1.5 0 0 1.5 360 288)" id="mdi-cards-playing-diamond-multiple-outline" fill="#555"/><path d="M19 0H9C7.9 0 7 .9 7 2v16c0 1.1.9 2 2 2h10c1.1 0 2-.9 2-2V2c0-1.1-.9-2-2-2m0 18H9V2h10v16M3 4v18c0 1.1.9 2 2 2h12v-2H5V4H3m11 1-3 5 3 5 3-5-3-5Z" transform="matrix(1.5 0 0 1.5 396 288)" id="mdi-cards-playing-diamond-multiple-outline" fill="#fff"/><path d="M17 2H7c-1.1 0-2 .9-2 2v16c0 1.1.9 2 2 2h10c1.1 0 2-.9 2-2V4c0-1.1-.9-2-2-2m0 18H7V4h10v16M12 7l-3 5 3 5 3-5-3-5Z" transform="matrix(1.5 0 0 1.5 432 288)" id="mdi-cards-playing-diamond-outline" fill="#555"/><path d="M17 2H7c-1.1 0-2 .9-2 2v16c0 1.1.9 2 2 2h10c1.1 0 2-.9 2-2V4c0-1.1-.9-2-2-2m0 18H7V4h10v16M12 7l-3 5 3 5 3-5-3-5Z" transform="matrix(1.5 0 0 1.5 468 288)" id="mdi-cards-playing-diamond-outline" fill="#fff"/><path d="M17 2H7c-1.1 0-2 .9-2 2v16c0 1.1.9 2 2 2h10c1.1 0 2-.9 2-2V4c0-1.1-.9-2-2-2m-4.4 13.8-.6.5-.6-.5c-2-1.9-3.4-3.1-3.4-4.6C8 10 9 9 10.2 9c.7 0 1.4.3 1.8.8.4-.5 1.1-.8 1.8-.8 1.2 0 2.2.9 2.2 2.2 0 1.5-1.4 2.7-3.4 4.6Z" transform="matrix(1.5 0 0 1.5 504 288)" id="mdi-cards-playing-heart" fill="#555"/><path d="M17 2H7c-1.1 0-2 .9-2 2v16c0 1.1.9 2 2 2h10c1.1 0 2-.9 2-2V4c0-1.1-.9-2-2-2m-4.4 13.8-.6.5-.6-.5c-2-1.9-3.4-3.1-3.4-4.6C8 10 9 9 10.2 9c.7 0 1.4.3 1.8.8.4-.5 1.1-.8 1.8-.8 1.2 0 2.2.9 2.2 2.2 0 1.5-1.4 2.7-3.4 4.6Z" transform="matrix(1.5 0 0 1.5 540 288)" id="mdi-cards-playing-heart" fill="#fff"/><path d="M3 4v18c0 1.1.9 2 2 2h12v-2H5V4H3m16-4H9C7.9 0 7 .9 7 2v16c0 1.1.9 2 2 2h10c1.1 0 2-.9 2-2V2c0-1.1-.9-2-2-2m-4.4 13.8-.6.5-.6-.5c-2-1.9-3.4-3.1-3.4-4.6C10 8 11 7 12.2 7c.7 0 1.4.3 1.8.8.4-.5 1.1-.8 1.8-.8C17 7 18 7.9 18 9.2c0 1.5-1.4 2.7-3.4 4.6Z" transform="matrix(1.5 0 0 1.5 576 288)" id="mdi-cards-playing-heart-multiple" fill="#555"/><path d="M3 4v18c0 1.1.9 2 2 2h12v-2H5V4H3m16-4H9C7.9 0 7 .9 7 2v16c0 1.1.9 2 2 2h10c1.1 0 2-.9 2-2V2c0-1.1-.9-2-2-2m-4.4 13.8-.6.5-.6-.5c-2-1.9-3.4-3.1-3.4-4.6C10 8 11 7 12.2 7c.7 0 1.4.3 1.8.8.4-.5 1.1-.8 1.8-.8C17 7 18 7.9 18 9.2c0 1.5-1.4 2.7-3.4 4.6Z" transform="matrix(1.5 0 0 1.5 612 288)" id="mdi-cards-playing-heart-multiple" fill="#fff"/><path d="M19 0H9C7.9 0 7 .9 7 2v16c0 1.1.9 2 2 2h10c1.1 0 2-.9 2-2V2c0-1.1-.9-2-2-2m0 18H9V2h10v16M3 4v18c0 1.1.9 2 2 2h12v-2H5V4H3m9.2 3C11 7 10 8 10 9.2c0 1.5 1.4 2.7 3.4 4.6l.6.5.6-.5c2-1.9 3.4-3.1 3.4-4.6C18 7.9 17 7 15.8 7c-.7 0-1.4.3-1.8.8-.4-.5-1.1-.8-1.8-.8Z" transform="matrix(1.5 0 0 1.5 648 288)" id="mdi-cards-playing-heart-multiple-outline" fill="#555"/><path d="M19 0H9C7.9 0 7 .9 7 2v16c0 1.1.9 2 2 2h10c1.1 0 2-.9 2-2V2c0-1.1-.9-2-2-2m0 18H9V2h10v16M3 4v18c0 1.1.9 2 2 2h12v-2H5V4H3m9.2 3C11 7 10 8 10 9.2c0 1.5 1.4 2.7 3.4 4.6l.6.5.6-.5c2-1.9 3.4-3.1 3.4-4.6C18 7.9 17 7 15.8 7c-.7 0-1.4.3-1.8.8-.4-.5-1.1-.8-1.8-.8Z" transform="matrix(1.5 0 0 1.5 684 288)" id="mdi-cards-playing-heart-multiple-outline" fill="#fff"/><path d="M17 2H7c-1.1 0-2 .9-2 2v16c0 1.1.9 2 2 2h10c1.1 0 2-.9 2-2V4c0-1.1-.9-2-2-2m0 18H7V4h10v16M10.2 9C9 9 8 10 8 11.2c0 1.5 1.4 2.7 3.4 4.6l.6.5.6-.5c2-1.9 3.4-3.1 3.4-4.6C16 9.9 15 9 13.8 9c-.7 0-1.4.3-1.8.8-.4-.5-1.1-.8-1.8-.8Z" transform="matrix(1.5 0 0 1.5 0 324)" id="mdi-cards-playing-heart-outline" fill="#555"/><path d="M17 2H7c-1.1 0-2 .9-2 2v16c0 1.1.9 2 2 2h10c1.1 0 2-.9 2-2V4c0-1.1-.9-2-2-2m0 18H7V4h10v16M10.2 9C9 9 8 10 8 11.2c0 1.5 1.4 2.7 3.4 4.6l.6.5.6-.5c2-1.9 3.4-3.1 3.4-4.6C16 9.9 15 9 13.8 9c-.7 0-1.4.3-1.8.8-.4-.5-1.1-.8-1.8-.8Z" transform="matrix(1.5 0 0 1.5 36 324)" id="mdi-cards-playing-heart-outline" fill="#fff"/><path d="M11.19 2.25c.78.01 1.52.48 1.81 1.25l5 11.95c.09.26.14.55.13.8a2.02 2.02 0 0 1-1.23 1.8L9.53 21.1c-.26.12-.53.15-.79.15A2 2 0 0 1 6.93 20L1.97 8.05c-.42-1.01.07-2.18 1.09-2.6l7.36-3.05c.25-.09.51-.15.77-.15m3.48 0h1.45a2 2 0 0 1 2 2v6.35l-3.45-8.35m5.46 1.54 1.34.57a1.99 1.99 0 0 1 1.09 2.6l-2.43 5.86V3.79m-8.94.43L3.8 7.29 8.77 19.3l7.4-3.06-4.98-12.02M8.65 8.54l3.23 2.41-.44 4.01-3.23-2.42.44-4Z" transform="matrix(1.5 0 0 1.5 72 324)" id="mdi-cards-playing-outline" fill="#555"/><path d="M11.19 2.25c.78.01 1.52.48 1.81 1.25l5 11.95c.09.26.14.55.13.8a2.02 2.02 0 0 1-1.23 1.8L9.53 21.1c-.26.12-.53.15-.79.15A2 2 0 0 1 6.93 20L1.97 8.05c-.42-1.01.07-2.18 1.09-2.6l7.36-3.05c.25-.09.51-.15.77-.15m3.48 0h1.45a2 2 0 0 1 2 2v6.35l-3.45-8.35m5.46 1.54 1.34.57a1.99 1.99 0 0 1 1.09 2.6l-2.43 5.86V3.79m-8.94.43L3.8 7.29 8.77 19.3l7.4-3.06-4.98-12.02M8.65 8.54l3.23 2.41-.44 4.01-3.23-2.42.44-4Z" transform="matrix(1.5 0 0 1.5 108 324)" id="mdi-cards-playing-outline" fill="#fff"/><path d="M17 2H7c-1.1 0-2 .9-2 2v16c0 1.1.9 2 2 2h10c1.1 0 2-.9 2-2V4c0-1.1-.9-2-2-2m-3.2 13c-.4 0-.8-.1-1.2-.3l.9 2.3h-3l.9-2.3c-.4.2-.8.3-1.2.3C9 15 8 14 8 12.8c0-1.5 1.4-2.7 3.4-4.6l.6-.5.6.5c2 1.9 3.4 3.1 3.4 4.6 0 1.3-1 2.2-2.2 2.2Z" transform="matrix(1.5 0 0 1.5 144 324)" id="mdi-cards-playing-spade" fill="#555"/><path d="M17 2H7c-1.1 0-2 .9-2 2v16c0 1.1.9 2 2 2h10c1.1 0 2-.9 2-2V4c0-1.1-.9-2-2-2m-3.2 13c-.4 0-.8-.1-1.2-.3l.9 2.3h-3l.9-2.3c-.4.2-.8.3-1.2.3C9 15 8 14 8 12.8c0-1.5 1.4-2.7 3.4-4.6l.6-.5.6.5c2 1.9 3.4 3.1 3.4 4.6 0 1.3-1 2.2-2.2 2.2Z" transform="matrix(1.5 0 0 1.5 180 324)" id="mdi-cards-playing-spade" fill="#fff"/><path d="M3 4v18c0 1.1.9 2 2 2h12v-2H5V4H3m16-4H9C7.9 0 7 .9 7 2v16c0 1.1.9 2 2 2h10c1.1 0 2-.9 2-2V2c0-1.1-.9-2-2-2m-3.2 13c-.4 0-.8-.1-1.2-.3l.9 2.3h-3l.9-2.3c-.4.2-.8.3-1.2.3-1.2 0-2.2-1-2.2-2.2 0-1.5 1.4-2.7 3.4-4.6l.6-.5.6.5c2 1.9 3.4 3.1 3.4 4.6 0 1.3-1 2.2-2.2 2.2Z" transform="matrix(1.5 0 0 1.5 216 324)" id="mdi-cards-playing-spade-multiple" fill="#555"/><path d="M3 4v18c0 1.1.9 2 2 2h12v-2H5V4H3m16-4H9C7.9 0 7 .9 7 2v16c0 1.1.9 2 2 2h10c1.1 0 2-.9 2-2V2c0-1.1-.9-2-2-2m-3.2 13c-.4 0-.8-.1-1.2-.3l.9 2.3h-3l.9-2.3c-.4.2-.8.3-1.2.3-1.2 0-2.2-1-2.2-2.2 0-1.5 1.4-2.7 3.4-4.6l.6-.5.6.5c2 1.9 3.4 3.1 3.4 4.6 0 1.3-1 2.2-2.2 2.2Z" transform="matrix(1.5 0 0 1.5 252 324)" id="mdi-cards-playing-spade-multiple" fill="#fff"/><path d="M19 0H9C7.9 0 7 .9 7 2v16c0 1.1.9 2 2 2h10c1.1 0 2-.9 2-2V2c0-1.1-.9-2-2-2m0 18H9V2h10v16M3 4v18c0 1.1.9 2 2 2h12v-2H5V4H3m11 1.7-.6.5c-2 1.9-3.4 3.1-3.4 4.6 0 1.2 1 2.2 2.2 2.2.4 0 .8-.1 1.2-.3l-.9 2.3h3l-.9-2.3c.3.2.8.3 1.2.3 1.2 0 2.2-.9 2.2-2.2 0-1.5-1.4-2.7-3.4-4.6l-.6-.5Z" transform="matrix(1.5 0 0 1.5 288 324)" id="mdi-cards-playing-spade-multiple-outline" fill="#555"/><path d="M19 0H9C7.9 0 7 .9 7 2v16c0 1.1.9 2 2 2h10c1.1 0 2-.9 2-2V2c0-1.1-.9-2-2-2m0 18H9V2h10v16M3 4v18c0 1.1.9 2 2 2h12v-2H5V4H3m11 1.7-.6.5c-2 1.9-3.4 3.1-3.4 4.6 0 1.2 1 2.2 2.2 2.2.4 0 .8-.1 1.2-.3l-.9 2.3h3l-.9-2.3c.3.2.8.3 1.2.3 1.2 0 2.2-.9 2.2-2.2 0-1.5-1.4-2.7-3.4-4.6l-.6-.5Z" transform="matrix(1.5 0 0 1.5 324 324)" id="mdi-cards-playing-spade-multiple-outline" fill="#fff"/><path d="M17 2H7c-1.1 0-2 .9-2 2v16c0 1.1.9 2 2 2h10c1.1 0 2-.9 2-2V4c0-1.1-.9-2-2-2m0 18H7V4h10v16M12 7.7l-.6.5c-2 1.9-3.4 3.1-3.4 4.6C8 14 9 15 10.2 15c.4 0 .8-.1 1.2-.3l-.9 2.3h3l-.9-2.3c.3.2.8.3 1.2.3 1.2 0 2.2-.9 2.2-2.2 0-1.5-1.4-2.7-3.4-4.6l-.6-.5Z" transform="matrix(1.5 0 0 1.5 360 324)" id="mdi-cards-playing-spade-outline" fill="#555"/><path d="M17 2H7c-1.1 0-2 .9-2 2v16c0 1.1.9 2 2 2h10c1.1 0 2-.9 2-2V4c0-1.1-.9-2-2-2m0 18H7V4h10v16M12 7.7l-.6.5c-2 1.9-3.4 3.1-3.4 4.6C8 14 9 15 10.2 15c.4 0 .8-.1 1.2-.3l-.9 2.3h3l-.9-2.3c.3.2.8.3 1.2.3 1.2 0 2.2-.9 2.2-2.2 0-1.5-1.4-2.7-3.4-4.6l-.6-.5Z" transform="matrix(1.5 0 0 1.5 396 324)" id="mdi-cards-playing-spade-outline" fill="#fff"/><path d="M12 2C9 7 4 9 4 14c0 2 2 4 4 4 1 0 2 0 3-1 0 0 .32 2-2 5h6c-2-3-2-5-2-5 1 1 2 1 3 1 2 0 4-2 4-4 0-5-5-7-8-12Z" transform="matrix(1.5 0 0 1.5 432 324)" id="mdi-cards-spade" fill="#555"/><path d="M12 2C9 7 4 9 4 14c0 2 2 4 4 4 1 0 2 0 3-1 0 0 .32 2-2 5h6c-2-3-2-5-2-5 1 1 2 1 3 1 2 0 4-2 4-4 0-5-5-7-8-12Z" transform="matrix(1.5 0 0 1.5 468 324)" id="mdi-cards-spade" fill="#fff"/><path d="M11 17s.3 2-2 5h6c-2.3-3-2-5-2-5s1 1 3 1 4-2 4-4c0-5-5-7-8-12-3 5-8 7-8 12 0 2 2 4 4 4s3-1 3-1m2-3h-2s-1 2-3 2c-.9 0-2-1.1-2-2-.2-3 3.9-5.8 6-8.6 2.1 2.7 6.2 5.5 6 8.6 0 .9-1.1 2-2 2-2 0-3-2-3-2Z" transform="matrix(1.5 0 0 1.5 504 324)" id="mdi-cards-spade-outline" fill="#555"/><path d="M11 17s.3 2-2 5h6c-2.3-3-2-5-2-5s1 1 3 1 4-2 4-4c0-5-5-7-8-12-3 5-8 7-8 12 0 2 2 4 4 4s3-1 3-1m2-3h-2s-1 2-3 2c-.9 0-2-1.1-2-2-.2-3 3.9-5.8 6-8.6 2.1 2.7 6.2 5.5 6 8.6 0 .9-1.1 2-2 2-2 0-3-2-3-2Z" transform="matrix(1.5 0 0 1.5 540 324)" id="mdi-cards-spade-outline" fill="#fff"/><path d="M5 2h14a1 1 0 0 1 1 1v10a1 1 0 0 1-1 1H5a1 1 0 0 1-1-1V3a1 1 0 0 1 1-1m1 2v8h12V4H6m14 13a1 1 0 0 1-1 1H5a1 1 0 0 1-1-1v-1h16v1m0 4a1 1 0 0 1-1 1H5a1 1 0 0 1-1-1v-1h16v1Z" transform="matrix(1.5 0 0 1.5 576 324)" id="mdi-cards-variant" fill="#555"/><path d="M5 2h14a1 1 0 0 1 1 1v10a1 1 0 0 1-1 1H5a1 1 0 0 1-1-1V3a1 1 0 0 1 1-1m1 2v8h12V4H6m14 13a1 1 0 0 1-1 1H5a1 1 0 0 1-1-1v-1h16v1m0 4a1 1 0 0 1-1 1H5a1 1 0 0 1-1-1v-1h16v1Z" transform="matrix(1.5 0 0 1.5 612 324)" id="mdi-cards-variant" fill="#fff"/><path d="m16 10-.2 1h-2.3a.5.5 0 0 0-.5.5.5.5 0 0 0 .5.5h2.1l-1 5h-2.1a.5.5 0 0 0-.5.5.5.5 0 0 0 .5.5h1.9l-.4 2a2 2 0 0 1-2 2 2 2 0 0 1-2-2l-1-5h1.5a.5.5 0 0 0 .5-.5.5.5 0 0 0-.5-.5H8.8L8 10c0-1.2.93-2.23 2.29-2.71L8.9 5.28a.997.997 0 0 1 .26-1.39.998.998 0 0 1 1.39.25l.45.66V3a1 1 0 0 1 1-1 1 1 0 0 1 1 1v2.28l1.5-1.74c.33-.42.97-.47 1.39-.11.42.35.47.98.11 1.41l-2.13 2.51C15.14 7.85 16 8.85 16 10Z" transform="matrix(1.5 0 0 1.5 648 324)" id="mdi-carrot" fill="#555"/><path d="m16 10-.2 1h-2.3a.5.5 0 0 0-.5.5.5.5 0 0 0 .5.5h2.1l-1 5h-2.1a.5.5 0 0 0-.5.5.5.5 0 0 0 .5.5h1.9l-.4 2a2 2 0 0 1-2 2 2 2 0 0 1-2-2l-1-5h1.5a.5.5 0 0 0 .5-.5.5.5 0 0 0-.5-.5H8.8L8 10c0-1.2.93-2.23 2.29-2.71L8.9 5.28a.997.997 0 0 1 .26-1.39.998.998 0 0 1 1.39.25l.45.66V3a1 1 0 0 1 1-1 1 1 0 0 1 1 1v2.28l1.5-1.74c.33-.42.97-.47 1.39-.11.42.35.47.98.11 1.41l-2.13 2.51C15.14 7.85 16 8.85 16 10Z" transform="matrix(1.5 0 0 1.5 684 324)" id="mdi-carrot" fill="#fff"/></svg>