<?xml version="1.0" encoding="UTF-8"?>
<!DOCTYPE svg PUBLIC "-//W3C//DTD SVG 1.1//EN" "http://www.w3.org/Graphics/SVG/1.1/DTD/svg11.dtd"><svg
  xmlns="http://www.w3.org/2000/svg" xmlns:xlink="http://www.w3.org/1999/xlink" version="1.1"
  width="720" height="900" viewBox="0 0 720 900">
    <g id="mdi-movie-open-star" transform="translate(0 0) scale(1.5)" fill="#555">
      <path d="M19.65 6.5L16.91 2.96L20.84 2.18L21.62 6.1L19.65 6.5M16.71 7.07L13.97 3.54L12 3.93L14.75 7.46L16.71 7.07M19 13C20.1 13 21.12 13.3 22 13.81V10H2V20C2 21.11 2.9 22 4 22H13.81C13.3 21.12 13 20.1 13 19C13 15.69 15.69 13 19 13M4.16 5.5L3.18 5.69C2.1 5.91 1.4 6.96 1.61 8.04L2 10L6.9 9.03L4.16 5.5M11.81 8.05L9.07 4.5L7.1 4.91L9.85 8.44L11.81 8.05M23 17.89L20.11 17.64L19 15L17.87 17.64L15 17.89L17.18 19.77L16.5 22.58L19 21.09L21.45 22.58L20.8 19.77L23 17.89Z" />
    </g>
    <g id="mdi-movie-open-star" transform="translate(36 0) scale(1.5)" fill="#fff">
      <path d="M19.65 6.5L16.91 2.96L20.84 2.18L21.62 6.1L19.65 6.5M16.71 7.07L13.97 3.54L12 3.93L14.75 7.46L16.71 7.07M19 13C20.1 13 21.12 13.3 22 13.81V10H2V20C2 21.11 2.9 22 4 22H13.81C13.3 21.12 13 20.1 13 19C13 15.69 15.69 13 19 13M4.16 5.5L3.18 5.69C2.1 5.91 1.4 6.96 1.61 8.04L2 10L6.9 9.03L4.16 5.5M11.81 8.05L9.07 4.5L7.1 4.91L9.85 8.44L11.81 8.05M23 17.89L20.11 17.64L19 15L17.87 17.64L15 17.89L17.18 19.77L16.5 22.58L19 21.09L21.45 22.58L20.8 19.77L23 17.89Z" />
    </g>
    <g id="mdi-movie-open-star-outline" transform="translate(72 0) scale(1.5)" fill="#555">
      <path d="M19.65 6.5L16.91 2.96L20.84 2.18L21.62 6.1L19.65 6.5M16.71 7.07L13.97 3.54L12 3.93L14.75 7.46L16.71 7.07M4.16 5.5L3.18 5.69C2.1 5.9 1.39 6.96 1.61 8.04L2 10L6.9 9.03L4.16 5.5M11.81 8.05L9.07 4.5L7.1 4.91L9.85 8.44L11.81 8.05M4 20V12H20V13.09C20.72 13.21 21.39 13.46 22 13.81V10H2V20C2 21.11 2.9 22 4 22H13.81C13.46 21.39 13.22 20.72 13.09 20H4M23 17.89L20.11 17.64L19 15L17.87 17.64L15 17.89L17.18 19.77L16.5 22.58L19 21.09L21.45 22.58L20.8 19.77L23 17.89Z" />
    </g>
    <g id="mdi-movie-open-star-outline" transform="translate(108 0) scale(1.5)" fill="#fff">
      <path d="M19.65 6.5L16.91 2.96L20.84 2.18L21.62 6.1L19.65 6.5M16.71 7.07L13.97 3.54L12 3.93L14.75 7.46L16.71 7.07M4.16 5.5L3.18 5.69C2.1 5.9 1.39 6.96 1.61 8.04L2 10L6.9 9.03L4.16 5.5M11.81 8.05L9.07 4.5L7.1 4.91L9.85 8.44L11.81 8.05M4 20V12H20V13.09C20.72 13.21 21.39 13.46 22 13.81V10H2V20C2 21.11 2.9 22 4 22H13.81C13.46 21.39 13.22 20.72 13.09 20H4M23 17.89L20.11 17.64L19 15L17.87 17.64L15 17.89L17.18 19.77L16.5 22.58L19 21.09L21.45 22.58L20.8 19.77L23 17.89Z" />
    </g>
    <g id="mdi-movie-outline" transform="translate(144 0) scale(1.5)" fill="#555">
      <path d="M5.76,10H20V18H4V6.47M22,4H18L20,8H17L15,4H13L15,8H12L10,4H8L10,8H7L5,4H4A2,2 0 0,0 2,6V18A2,2 0 0,0 4,20H20A2,2 0 0,0 22,18V4Z" />
    </g>
    <g id="mdi-movie-outline" transform="translate(180 0) scale(1.5)" fill="#fff">
      <path d="M5.76,10H20V18H4V6.47M22,4H18L20,8H17L15,4H13L15,8H12L10,4H8L10,8H7L5,4H4A2,2 0 0,0 2,6V18A2,2 0 0,0 4,20H20A2,2 0 0,0 22,18V4Z" />
    </g>
    <g id="mdi-movie-play" transform="translate(216 0) scale(1.5)" fill="#555">
      <path d="M22 4V13.81C21.12 13.3 20.1 13 19 13C15.69 13 13 15.69 13 19C13 19.34 13.04 19.67 13.09 20H4C2.9 20 2 19.11 2 18V6C2 4.89 2.9 4 4 4H5L7 8H10L8 4H10L12 8H15L13 4H15L17 8H20L18 4H22M17 22L22 19L17 16V22Z" />
    </g>
    <g id="mdi-movie-play" transform="translate(252 0) scale(1.5)" fill="#fff">
      <path d="M22 4V13.81C21.12 13.3 20.1 13 19 13C15.69 13 13 15.69 13 19C13 19.34 13.04 19.67 13.09 20H4C2.9 20 2 19.11 2 18V6C2 4.89 2.9 4 4 4H5L7 8H10L8 4H10L12 8H15L13 4H15L17 8H20L18 4H22M17 22L22 19L17 16V22Z" />
    </g>
    <g id="mdi-movie-play-outline" transform="translate(288 0) scale(1.5)" fill="#555">
      <path d="M22 4V13.81C21.39 13.46 20.72 13.22 20 13.09V10H5.76L4 6.47V18H13.09C13.04 18.33 13 18.66 13 19C13 19.34 13.04 19.67 13.09 20H4C2.9 20 2 19.11 2 18V6C2 4.89 2.9 4 4 4H5L7 8H10L8 4H10L12 8H15L13 4H15L17 8H20L18 4H22M17 22L22 19L17 16V22Z" />
    </g>
    <g id="mdi-movie-play-outline" transform="translate(324 0) scale(1.5)" fill="#fff">
      <path d="M22 4V13.81C21.39 13.46 20.72 13.22 20 13.09V10H5.76L4 6.47V18H13.09C13.04 18.33 13 18.66 13 19C13 19.34 13.04 19.67 13.09 20H4C2.9 20 2 19.11 2 18V6C2 4.89 2.9 4 4 4H5L7 8H10L8 4H10L12 8H15L13 4H15L17 8H20L18 4H22M17 22L22 19L17 16V22Z" />
    </g>
    <g id="mdi-movie-plus" transform="translate(360 0) scale(1.5)" fill="#555">
      <path d="M13 19C13 19.34 13.04 19.67 13.09 20H4C2.9 20 2 19.11 2 18V6C2 4.89 2.9 4 4 4H5L7 8H10L8 4H10L12 8H15L13 4H15L17 8H20L18 4H22V13.81C21.12 13.3 20.1 13 19 13C15.69 13 13 15.69 13 19M20 18V15H18V18H15V20H18V23H20V20H23V18H20Z" />
    </g>
    <g id="mdi-movie-plus" transform="translate(396 0) scale(1.5)" fill="#fff">
      <path d="M13 19C13 19.34 13.04 19.67 13.09 20H4C2.9 20 2 19.11 2 18V6C2 4.89 2.9 4 4 4H5L7 8H10L8 4H10L12 8H15L13 4H15L17 8H20L18 4H22V13.81C21.12 13.3 20.1 13 19 13C15.69 13 13 15.69 13 19M20 18V15H18V18H15V20H18V23H20V20H23V18H20Z" />
    </g>
    <g id="mdi-movie-plus-outline" transform="translate(432 0) scale(1.5)" fill="#555">
      <path d="M13 19C13 19.34 13.04 19.67 13.09 20H4C2.9 20 2 19.11 2 18V6C2 4.89 2.9 4 4 4H5L7 8H10L8 4H10L12 8H15L13 4H15L17 8H20L18 4H22V13.81C21.39 13.46 20.72 13.22 20 13.09V10H5.76L4 6.47V18H13.09C13.04 18.33 13 18.66 13 19M20 18V15H18V18H15V20H18V23H20V20H23V18H20Z" />
    </g>
    <g id="mdi-movie-plus-outline" transform="translate(468 0) scale(1.5)" fill="#fff">
      <path d="M13 19C13 19.34 13.04 19.67 13.09 20H4C2.9 20 2 19.11 2 18V6C2 4.89 2.9 4 4 4H5L7 8H10L8 4H10L12 8H15L13 4H15L17 8H20L18 4H22V13.81C21.39 13.46 20.72 13.22 20 13.09V10H5.76L4 6.47V18H13.09C13.04 18.33 13 18.66 13 19M20 18V15H18V18H15V20H18V23H20V20H23V18H20Z" />
    </g>
    <g id="mdi-movie-remove" transform="translate(504 0) scale(1.5)" fill="#555">
      <path d="M13 19C13 19.34 13.04 19.67 13.09 20H4C2.9 20 2 19.11 2 18V6C2 4.89 2.9 4 4 4H5L7 8H10L8 4H10L12 8H15L13 4H15L17 8H20L18 4H22V13.81C21.12 13.3 20.1 13 19 13C15.69 13 13 15.69 13 19M22.54 16.88L21.12 15.47L19 17.59L16.88 15.47L15.47 16.88L17.59 19L15.47 21.12L16.88 22.54L19 20.41L21.12 22.54L22.54 21.12L20.41 19L22.54 16.88Z" />
    </g>
    <g id="mdi-movie-remove" transform="translate(540 0) scale(1.5)" fill="#fff">
      <path d="M13 19C13 19.34 13.04 19.67 13.09 20H4C2.9 20 2 19.11 2 18V6C2 4.89 2.9 4 4 4H5L7 8H10L8 4H10L12 8H15L13 4H15L17 8H20L18 4H22V13.81C21.12 13.3 20.1 13 19 13C15.69 13 13 15.69 13 19M22.54 16.88L21.12 15.47L19 17.59L16.88 15.47L15.47 16.88L17.59 19L15.47 21.12L16.88 22.54L19 20.41L21.12 22.54L22.54 21.12L20.41 19L22.54 16.88Z" />
    </g>
    <g id="mdi-movie-remove-outline" transform="translate(576 0) scale(1.5)" fill="#555">
      <path d="M13 19C13 19.34 13.04 19.67 13.09 20H4C2.9 20 2 19.11 2 18V6C2 4.89 2.9 4 4 4H5L7 8H10L8 4H10L12 8H15L13 4H15L17 8H20L18 4H22V13.81C21.39 13.46 20.72 13.22 20 13.09V10H5.76L4 6.47V18H13.09C13.04 18.33 13 18.66 13 19M22.54 16.88L21.12 15.47L19 17.59L16.88 15.47L15.47 16.88L17.59 19L15.47 21.12L16.88 22.54L19 20.41L21.12 22.54L22.54 21.12L20.41 19L22.54 16.88Z" />
    </g>
    <g id="mdi-movie-remove-outline" transform="translate(612 0) scale(1.5)" fill="#fff">
      <path d="M13 19C13 19.34 13.04 19.67 13.09 20H4C2.9 20 2 19.11 2 18V6C2 4.89 2.9 4 4 4H5L7 8H10L8 4H10L12 8H15L13 4H15L17 8H20L18 4H22V13.81C21.39 13.46 20.72 13.22 20 13.09V10H5.76L4 6.47V18H13.09C13.04 18.33 13 18.66 13 19M22.54 16.88L21.12 15.47L19 17.59L16.88 15.47L15.47 16.88L17.59 19L15.47 21.12L16.88 22.54L19 20.41L21.12 22.54L22.54 21.12L20.41 19L22.54 16.88Z" />
    </g>
    <g id="mdi-movie-roll" transform="translate(648 0) scale(1.5)" fill="#555">
      <path d="M12,2A10,10 0 0,1 22,12A10,10 0 0,1 12,22A10,10 0 0,1 2,12A10,10 0 0,1 12,2M12,4A2.5,2.5 0 0,0 9.5,6.5A2.5,2.5 0 0,0 12,9A2.5,2.5 0 0,0 14.5,6.5A2.5,2.5 0 0,0 12,4M4.4,9.53C3.97,10.84 4.69,12.25 6,12.68C7.32,13.1 8.73,12.39 9.15,11.07C9.58,9.76 8.86,8.35 7.55,7.92C6.24,7.5 4.82,8.21 4.4,9.53M19.61,9.5C19.18,8.21 17.77,7.5 16.46,7.92C15.14,8.34 14.42,9.75 14.85,11.07C15.28,12.38 16.69,13.1 18,12.67C19.31,12.25 20.03,10.83 19.61,9.5M7.31,18.46C8.42,19.28 10,19.03 10.8,17.91C11.61,16.79 11.36,15.23 10.24,14.42C9.13,13.61 7.56,13.86 6.75,14.97C5.94,16.09 6.19,17.65 7.31,18.46M16.7,18.46C17.82,17.65 18.07,16.09 17.26,14.97C16.45,13.85 14.88,13.6 13.77,14.42C12.65,15.23 12.4,16.79 13.21,17.91C14,19.03 15.59,19.27 16.7,18.46M12,10.5A1.5,1.5 0 0,0 10.5,12A1.5,1.5 0 0,0 12,13.5A1.5,1.5 0 0,0 13.5,12A1.5,1.5 0 0,0 12,10.5Z" />
    </g>
    <g id="mdi-movie-roll" transform="translate(684 0) scale(1.5)" fill="#fff">
      <path d="M12,2A10,10 0 0,1 22,12A10,10 0 0,1 12,22A10,10 0 0,1 2,12A10,10 0 0,1 12,2M12,4A2.5,2.5 0 0,0 9.5,6.5A2.5,2.5 0 0,0 12,9A2.5,2.5 0 0,0 14.5,6.5A2.5,2.5 0 0,0 12,4M4.4,9.53C3.97,10.84 4.69,12.25 6,12.68C7.32,13.1 8.73,12.39 9.15,11.07C9.58,9.76 8.86,8.35 7.55,7.92C6.24,7.5 4.82,8.21 4.4,9.53M19.61,9.5C19.18,8.21 17.77,7.5 16.46,7.92C15.14,8.34 14.42,9.75 14.85,11.07C15.28,12.38 16.69,13.1 18,12.67C19.31,12.25 20.03,10.83 19.61,9.5M7.31,18.46C8.42,19.28 10,19.03 10.8,17.91C11.61,16.79 11.36,15.23 10.24,14.42C9.13,13.61 7.56,13.86 6.75,14.97C5.94,16.09 6.19,17.65 7.31,18.46M16.7,18.46C17.82,17.65 18.07,16.09 17.26,14.97C16.45,13.85 14.88,13.6 13.77,14.42C12.65,15.23 12.4,16.79 13.21,17.91C14,19.03 15.59,19.27 16.7,18.46M12,10.5A1.5,1.5 0 0,0 10.5,12A1.5,1.5 0 0,0 12,13.5A1.5,1.5 0 0,0 13.5,12A1.5,1.5 0 0,0 12,10.5Z" />
    </g>
    <g id="mdi-movie-search" transform="translate(0 36) scale(1.5)" fill="#555">
      <path d="M11.03 20H4C2.9 20 2 19.1 2 18L2 6C2 4.9 2.9 4 4 4H5L7 8H10L8 4H10L12 8H15L13 4H15L17 8H20L18 4H22V13.05C20.85 11.22 18.82 10 16.5 10C12.92 10 10 12.92 10 16.5C10 17.79 10.38 19 11.03 20M23.39 22L22 23.39L18.88 20.32C18.19 20.75 17.37 21 16.5 21C14 21 12 19 12 16.5S14 12 16.5 12 21 14 21 16.5C21 17.38 20.75 18.21 20.31 18.9L23.39 22M19 16.5C19 15.12 17.88 14 16.5 14S14 15.12 14 16.5 15.12 19 16.5 19 19 17.88 19 16.5Z" />
    </g>
    <g id="mdi-movie-search" transform="translate(36 36) scale(1.5)" fill="#fff">
      <path d="M11.03 20H4C2.9 20 2 19.1 2 18L2 6C2 4.9 2.9 4 4 4H5L7 8H10L8 4H10L12 8H15L13 4H15L17 8H20L18 4H22V13.05C20.85 11.22 18.82 10 16.5 10C12.92 10 10 12.92 10 16.5C10 17.79 10.38 19 11.03 20M23.39 22L22 23.39L18.88 20.32C18.19 20.75 17.37 21 16.5 21C14 21 12 19 12 16.5S14 12 16.5 12 21 14 21 16.5C21 17.38 20.75 18.21 20.31 18.9L23.39 22M19 16.5C19 15.12 17.88 14 16.5 14S14 15.12 14 16.5 15.12 19 16.5 19 19 17.88 19 16.5Z" />
    </g>
    <g id="mdi-movie-search-outline" transform="translate(72 36) scale(1.5)" fill="#555">
      <path d="M11 20H4C2.9 20 2 19.1 2 18V6C2 4.9 2.9 4 4 4H5L7 8H10L8 4H10L12 8H15L13 4H15L17 8H20L18 4H22V13C21.5 12.2 20.8 11.5 20 11V10H5.8L4 6.5V18H10.2C10.4 18.7 10.6 19.4 11 20M20.3 18.9C20.7 18.2 21 17.4 21 16.5C21 14 19 12 16.5 12S12 14 12 16.5 14 21 16.5 21C17.4 21 18.2 20.8 18.9 20.3L22 23.4L23.4 22L20.3 18.9M16.5 19C15.1 19 14 17.9 14 16.5S15.1 14 16.5 14 19 15.1 19 16.5 17.9 19 16.5 19Z" />
    </g>
    <g id="mdi-movie-search-outline" transform="translate(108 36) scale(1.5)" fill="#fff">
      <path d="M11 20H4C2.9 20 2 19.1 2 18V6C2 4.9 2.9 4 4 4H5L7 8H10L8 4H10L12 8H15L13 4H15L17 8H20L18 4H22V13C21.5 12.2 20.8 11.5 20 11V10H5.8L4 6.5V18H10.2C10.4 18.7 10.6 19.4 11 20M20.3 18.9C20.7 18.2 21 17.4 21 16.5C21 14 19 12 16.5 12S12 14 12 16.5 14 21 16.5 21C17.4 21 18.2 20.8 18.9 20.3L22 23.4L23.4 22L20.3 18.9M16.5 19C15.1 19 14 17.9 14 16.5S15.1 14 16.5 14 19 15.1 19 16.5 17.9 19 16.5 19Z" />
    </g>
    <g id="mdi-movie-settings" transform="translate(144 36) scale(1.5)" fill="#555">
      <path d="M22 4V18C22 19.11 21.11 20 20 20H4C2.9 20 2 19.11 2 18V6C2 4.89 2.9 4 4 4H5L7 8H10L8 4H10L12 8H15L13 4H15L17 8H20L18 4H22M7 24H9V22H7V24M11 24H13V22H11V24M15 24H17V22H15V24Z" />
    </g>
    <g id="mdi-movie-settings" transform="translate(180 36) scale(1.5)" fill="#fff">
      <path d="M22 4V18C22 19.11 21.11 20 20 20H4C2.9 20 2 19.11 2 18V6C2 4.89 2.9 4 4 4H5L7 8H10L8 4H10L12 8H15L13 4H15L17 8H20L18 4H22M7 24H9V22H7V24M11 24H13V22H11V24M15 24H17V22H15V24Z" />
    </g>
    <g id="mdi-movie-settings-outline" transform="translate(216 36) scale(1.5)" fill="#555">
      <path d="M18 4L20 8H17L15 4H13L15 8H12L10 4H8L10 8H7L5 4H4C2.9 4 2 4.89 2 6V18C2 19.11 2.9 20 4 20H20C21.11 20 22 19.11 22 18V4H18M20 18H4V6.47L5.76 10H20V18M11 22H13V24H11V22M7 22H9V24H7V22M15 22H17V24H15V22Z" />
    </g>
    <g id="mdi-movie-settings-outline" transform="translate(252 36) scale(1.5)" fill="#fff">
      <path d="M18 4L20 8H17L15 4H13L15 8H12L10 4H8L10 8H7L5 4H4C2.9 4 2 4.89 2 6V18C2 19.11 2.9 20 4 20H20C21.11 20 22 19.11 22 18V4H18M20 18H4V6.47L5.76 10H20V18M11 22H13V24H11V22M7 22H9V24H7V22M15 22H17V24H15V22Z" />
    </g>
    <g id="mdi-movie-star" transform="translate(288 36) scale(1.5)" fill="#555">
      <path d="M13 19C13 19.34 13.04 19.67 13.09 20H4C2.9 20 2 19.11 2 18V6C2 4.89 2.9 4 4 4H5L7 8H10L8 4H10L12 8H15L13 4H15L17 8H20L18 4H22V13.81C21.12 13.3 20.1 13 19 13C15.69 13 13 15.69 13 19M23 17.89L20.11 17.64L19 15L17.87 17.64L15 17.89L17.18 19.77L16.5 22.58L19 21.09L21.45 22.58L20.8 19.77L23 17.89Z" />
    </g>
    <g id="mdi-movie-star" transform="translate(324 36) scale(1.5)" fill="#fff">
      <path d="M13 19C13 19.34 13.04 19.67 13.09 20H4C2.9 20 2 19.11 2 18V6C2 4.89 2.9 4 4 4H5L7 8H10L8 4H10L12 8H15L13 4H15L17 8H20L18 4H22V13.81C21.12 13.3 20.1 13 19 13C15.69 13 13 15.69 13 19M23 17.89L20.11 17.64L19 15L17.87 17.64L15 17.89L17.18 19.77L16.5 22.58L19 21.09L21.45 22.58L20.8 19.77L23 17.89Z" />
    </g>
    <g id="mdi-movie-star-outline" transform="translate(360 36) scale(1.5)" fill="#555">
      <path d="M13 19C13 19.34 13.04 19.67 13.09 20H4C2.9 20 2 19.11 2 18V6C2 4.89 2.9 4 4 4H5L7 8H10L8 4H10L12 8H15L13 4H15L17 8H20L18 4H22V13.81C21.39 13.46 20.72 13.22 20 13.09V10H5.76L4 6.47V18H13.09C13.04 18.33 13 18.66 13 19M23 17.89L20.11 17.64L19 15L17.87 17.64L15 17.89L17.18 19.77L16.5 22.58L19 21.09L21.45 22.58L20.8 19.77L23 17.89Z" />
    </g>
    <g id="mdi-movie-star-outline" transform="translate(396 36) scale(1.5)" fill="#fff">
      <path d="M13 19C13 19.34 13.04 19.67 13.09 20H4C2.9 20 2 19.11 2 18V6C2 4.89 2.9 4 4 4H5L7 8H10L8 4H10L12 8H15L13 4H15L17 8H20L18 4H22V13.81C21.39 13.46 20.72 13.22 20 13.09V10H5.76L4 6.47V18H13.09C13.04 18.33 13 18.66 13 19M23 17.89L20.11 17.64L19 15L17.87 17.64L15 17.89L17.18 19.77L16.5 22.58L19 21.09L21.45 22.58L20.8 19.77L23 17.89Z" />
    </g>
    <g id="mdi-mower" transform="translate(432 36) scale(1.5)" fill="#555">
      <path d="M18.5 14C17.55 14 16.69 14.38 16.06 15H9.39L5.74 3H2V5H4.26L7 14.05C6.85 14.03 6.68 14 6.5 14C4.57 14 3 15.57 3 17.5S4.57 21 6.5 21C7.89 21 9.09 20.18 9.65 19H15.35C15.91 20.18 17.11 21 18.5 21C20.43 21 22 19.43 22 17.5S20.43 14 18.5 14M6.5 19C5.67 19 5 18.33 5 17.5S5.67 16 6.5 16 8 16.67 8 17.5 7.33 19 6.5 19M18.5 19C17.67 19 17 18.33 17 17.5S17.67 16 18.5 16 20 16.67 20 17.5 19.33 19 18.5 19M10.13 14L9.53 12H12.76C13.5 12 14.21 12.43 14.55 13.11L15 14H10.13Z" />
    </g>
    <g id="mdi-mower" transform="translate(468 36) scale(1.5)" fill="#fff">
      <path d="M18.5 14C17.55 14 16.69 14.38 16.06 15H9.39L5.74 3H2V5H4.26L7 14.05C6.85 14.03 6.68 14 6.5 14C4.57 14 3 15.57 3 17.5S4.57 21 6.5 21C7.89 21 9.09 20.18 9.65 19H15.35C15.91 20.18 17.11 21 18.5 21C20.43 21 22 19.43 22 17.5S20.43 14 18.5 14M6.5 19C5.67 19 5 18.33 5 17.5S5.67 16 6.5 16 8 16.67 8 17.5 7.33 19 6.5 19M18.5 19C17.67 19 17 18.33 17 17.5S17.67 16 18.5 16 20 16.67 20 17.5 19.33 19 18.5 19M10.13 14L9.53 12H12.76C13.5 12 14.21 12.43 14.55 13.11L15 14H10.13Z" />
    </g>
    <g id="mdi-mower-bag" transform="translate(504 36) scale(1.5)" fill="#555">
      <path d="M11.95 14L10.82 12H14.76C15.5 12 16.21 12.43 16.55 13.11L17 14H11.95M23 18C23 19.66 21.66 21 20 21C18.7 21 17.6 20.16 17.18 19H11.65C11.09 20.18 9.89 21 8.5 21S5.91 20.18 5.35 19H2C1.45 19 1 18.55 1 18V11C1 10.67 1.17 10.36 1.44 10.17C1.71 10 2.06 9.95 2.37 10.07L7.43 12.09L3.42 5H1V3H4.58L11.37 15H20C21.66 15 23 16.34 23 18M7.34 14.21L3 12.5V17H5.05C5.24 15.7 6.13 14.64 7.34 14.21M10 17.5C10 16.67 9.33 16 8.5 16S7 16.67 7 17.5 7.67 19 8.5 19 10 18.33 10 17.5M21 18C21 17.45 20.55 17 20 17S19 17.45 19 18 19.45 19 20 19 21 18.55 21 18Z" />
    </g>
    <g id="mdi-mower-bag" transform="translate(540 36) scale(1.5)" fill="#fff">
      <path d="M11.95 14L10.82 12H14.76C15.5 12 16.21 12.43 16.55 13.11L17 14H11.95M23 18C23 19.66 21.66 21 20 21C18.7 21 17.6 20.16 17.18 19H11.65C11.09 20.18 9.89 21 8.5 21S5.91 20.18 5.35 19H2C1.45 19 1 18.55 1 18V11C1 10.67 1.17 10.36 1.44 10.17C1.71 10 2.06 9.95 2.37 10.07L7.43 12.09L3.42 5H1V3H4.58L11.37 15H20C21.66 15 23 16.34 23 18M7.34 14.21L3 12.5V17H5.05C5.24 15.7 6.13 14.64 7.34 14.21M10 17.5C10 16.67 9.33 16 8.5 16S7 16.67 7 17.5 7.67 19 8.5 19 10 18.33 10 17.5M21 18C21 17.45 20.55 17 20 17S19 17.45 19 18 19.45 19 20 19 21 18.55 21 18Z" />
    </g>
    <g id="mdi-muffin" transform="translate(576 36) scale(1.5)" fill="#555">
      <path d="M16,5C16,5 15,2 12,2C9,2 8,5 8,5C6,5 4,7 4,9C1.3,9 1.3,13 4,13H20C22.7,13 22.7,9 20,9C20,7 18,5 16,5M5,15L7,22H9L8,15H5M10,15L11,22H13L14,15H10M16,15L15,22H17L19,15H16Z" />
    </g>
    <g id="mdi-muffin" transform="translate(612 36) scale(1.5)" fill="#fff">
      <path d="M16,5C16,5 15,2 12,2C9,2 8,5 8,5C6,5 4,7 4,9C1.3,9 1.3,13 4,13H20C22.7,13 22.7,9 20,9C20,7 18,5 16,5M5,15L7,22H9L8,15H5M10,15L11,22H13L14,15H10M16,15L15,22H17L19,15H16Z" />
    </g>
    <g id="mdi-multiplication" transform="translate(648 36) scale(1.5)" fill="#555">
      <path d="M11,3H13V10.27L19.29,6.64L20.29,8.37L14,12L20.3,15.64L19.3,17.37L13,13.72V21H11V13.73L4.69,17.36L3.69,15.63L10,12L3.72,8.36L4.72,6.63L11,10.26V3Z" />
    </g>
    <g id="mdi-multiplication" transform="translate(684 36) scale(1.5)" fill="#fff">
      <path d="M11,3H13V10.27L19.29,6.64L20.29,8.37L14,12L20.3,15.64L19.3,17.37L13,13.72V21H11V13.73L4.69,17.36L3.69,15.63L10,12L3.72,8.36L4.72,6.63L11,10.26V3Z" />
    </g>
    <g id="mdi-multiplication-box" transform="translate(0 72) scale(1.5)" fill="#555">
      <path d="M19,3A2,2 0 0,1 21,5V19A2,2 0 0,1 19,21H5C3.89,21 3,20.1 3,19V5C3,3.89 3.89,3 5,3H19M11,17H13V13.73L15.83,15.36L16.83,13.63L14,12L16.83,10.36L15.83,8.63L13,10.27V7H11V10.27L8.17,8.63L7.17,10.36L10,12L7.17,13.63L8.17,15.36L11,13.73V17Z" />
    </g>
    <g id="mdi-multiplication-box" transform="translate(36 72) scale(1.5)" fill="#fff">
      <path d="M19,3A2,2 0 0,1 21,5V19A2,2 0 0,1 19,21H5C3.89,21 3,20.1 3,19V5C3,3.89 3.89,3 5,3H19M11,17H13V13.73L15.83,15.36L16.83,13.63L14,12L16.83,10.36L15.83,8.63L13,10.27V7H11V10.27L8.17,8.63L7.17,10.36L10,12L7.17,13.63L8.17,15.36L11,13.73V17Z" />
    </g>
    <g id="mdi-mushroom" transform="translate(72 72) scale(1.5)" fill="#555">
      <path d="M12,2A10,10 0 0,1 22,12A2,2 0 0,1 20,14H4A2,2 0 0,1 2,12A10,10 0 0,1 12,2M12,8A2,2 0 0,0 14,6A2,2 0 0,0 12,4A2,2 0 0,0 10,6A2,2 0 0,0 12,8M17,12A2,2 0 0,0 19,10A2,2 0 0,0 17,8A2,2 0 0,0 15,10A2,2 0 0,0 17,12M7,12A2,2 0 0,0 9,10A2,2 0 0,0 7,8A2,2 0 0,0 5,10A2,2 0 0,0 7,12M15,15L16.27,19.45L16.35,20C16.35,21.1 15.45,22 14.35,22H9.65A2,2 0 0,1 7.65,20L7.73,19.45L9,15H15Z" />
    </g>
    <g id="mdi-mushroom" transform="translate(108 72) scale(1.5)" fill="#fff">
      <path d="M12,2A10,10 0 0,1 22,12A2,2 0 0,1 20,14H4A2,2 0 0,1 2,12A10,10 0 0,1 12,2M12,8A2,2 0 0,0 14,6A2,2 0 0,0 12,4A2,2 0 0,0 10,6A2,2 0 0,0 12,8M17,12A2,2 0 0,0 19,10A2,2 0 0,0 17,8A2,2 0 0,0 15,10A2,2 0 0,0 17,12M7,12A2,2 0 0,0 9,10A2,2 0 0,0 7,8A2,2 0 0,0 5,10A2,2 0 0,0 7,12M15,15L16.27,19.45L16.35,20C16.35,21.1 15.45,22 14.35,22H9.65A2,2 0 0,1 7.65,20L7.73,19.45L9,15H15Z" />
    </g>
    <g id="mdi-mushroom-off" transform="translate(144 72) scale(1.5)" fill="#555">
      <path d="M22.1 21.5L2.4 1.7L1.1 3L4.1 6C2.8 7.6 2 9.7 2 12C2 13.1 2.9 14 4 14H12.1L13.1 15H9L7.7 19.5V20C7.7 21.1 8.6 22 9.7 22H14.4C15.5 22 16.4 21.1 16.4 20L16.3 19.5L15.8 17.7L20.9 22.8L22.1 21.5M7 12C5.9 12 5 11.1 5 10C5 9.2 5.5 8.4 6.3 8.1L8.9 10.7C8.6 11.5 7.8 12 7 12M10 6C10 4.9 10.9 4 12 4S14 4.9 14 6 13.1 8 12 8C11.5 8 11.1 7.8 10.7 7.5L17.2 14H20C21.1 14 22 13.1 22 12C22 6.5 17.5 2 12 2C10.1 2 8.3 2.6 6.7 3.5L10.4 7.2C10.2 6.9 10 6.5 10 6M17 8C18.1 8 19 8.9 19 10S18.1 12 17 12 15 11.1 15 10 15.9 8 17 8Z" />
    </g>
    <g id="mdi-mushroom-off" transform="translate(180 72) scale(1.5)" fill="#fff">
      <path d="M22.1 21.5L2.4 1.7L1.1 3L4.1 6C2.8 7.6 2 9.7 2 12C2 13.1 2.9 14 4 14H12.1L13.1 15H9L7.7 19.5V20C7.7 21.1 8.6 22 9.7 22H14.4C15.5 22 16.4 21.1 16.4 20L16.3 19.5L15.8 17.7L20.9 22.8L22.1 21.5M7 12C5.9 12 5 11.1 5 10C5 9.2 5.5 8.4 6.3 8.1L8.9 10.7C8.6 11.5 7.8 12 7 12M10 6C10 4.9 10.9 4 12 4S14 4.9 14 6 13.1 8 12 8C11.5 8 11.1 7.8 10.7 7.5L17.2 14H20C21.1 14 22 13.1 22 12C22 6.5 17.5 2 12 2C10.1 2 8.3 2.6 6.7 3.5L10.4 7.2C10.2 6.9 10 6.5 10 6M17 8C18.1 8 19 8.9 19 10S18.1 12 17 12 15 11.1 15 10 15.9 8 17 8Z" />
    </g>
    <g id="mdi-mushroom-off-outline" transform="translate(216 72) scale(1.5)" fill="#555">
      <path d="M22.1 21.5L2.4 1.7L1.1 3L4.1 6C2.8 7.6 2 9.7 2 12C2 13.1 2.9 14 4 14H12.1L13.1 15H9L8 18.5L7.7 19.5C7.4 20.6 8.1 21.7 9.1 21.9L9.7 22H14.4C15.5 22 16.4 21.1 16.4 20L16.3 19.5L16 18.5L15.8 17.6L20.9 22.7L22.1 21.5M4 12C4 10.3 4.6 8.7 5.5 7.4L6.2 8.1C6.1 8.4 6 8.7 6 9C6 10.1 6.9 11 8 11C8.3 11 8.6 10.9 8.9 10.8L10.1 12H4M9.7 20L10 19L10.6 17H13.6L14.2 19L14.5 20H9.7M16 11C14.9 11 14 10.1 14 9S14.9 7 16 7 18 7.9 18 9 17.1 11 16 11M8.2 5L6.7 3.5C8.3 2.6 10.1 2 12 2C17.5 2 22 6.5 22 12C22 13.1 21.1 14 20 14H17.2L15.2 12H20C20 8.3 17.4 5.1 14 4.2C13.9 5.2 13 6 12 6S10.1 5.2 10 4.2C9.4 4.4 8.7 4.7 8.2 5Z" />
    </g>
    <g id="mdi-mushroom-off-outline" transform="translate(252 72) scale(1.5)" fill="#fff">
      <path d="M22.1 21.5L2.4 1.7L1.1 3L4.1 6C2.8 7.6 2 9.7 2 12C2 13.1 2.9 14 4 14H12.1L13.1 15H9L8 18.5L7.7 19.5C7.4 20.6 8.1 21.7 9.1 21.9L9.7 22H14.4C15.5 22 16.4 21.1 16.4 20L16.3 19.5L16 18.5L15.8 17.6L20.9 22.7L22.1 21.5M4 12C4 10.3 4.6 8.7 5.5 7.4L6.2 8.1C6.1 8.4 6 8.7 6 9C6 10.1 6.9 11 8 11C8.3 11 8.6 10.9 8.9 10.8L10.1 12H4M9.7 20L10 19L10.6 17H13.6L14.2 19L14.5 20H9.7M16 11C14.9 11 14 10.1 14 9S14.9 7 16 7 18 7.9 18 9 17.1 11 16 11M8.2 5L6.7 3.5C8.3 2.6 10.1 2 12 2C17.5 2 22 6.5 22 12C22 13.1 21.1 14 20 14H17.2L15.2 12H20C20 8.3 17.4 5.1 14 4.2C13.9 5.2 13 6 12 6S10.1 5.2 10 4.2C9.4 4.4 8.7 4.7 8.2 5Z" />
    </g>
    <g id="mdi-mushroom-outline" transform="translate(288 72) scale(1.5)" fill="#555">
      <path d="M4,12H20C20,8.27 17.44,5.13 14,4.25C13.86,5.24 13,6 12,6C11,6 10.14,5.24 10,4.25C6.56,5.13 4,8.27 4,12M12,2A10,10 0 0,1 22,12A2,2 0 0,1 20,14H4A2,2 0 0,1 2,12A10,10 0 0,1 12,2M13.5,17H10.5L9.92,19L9.65,20H14.35L14.08,19L13.5,17M15,15L16,18.5L16.27,19.45L16.35,20C16.35,21.1 15.45,22 14.35,22H9.65L9.17,21.94C8.1,21.66 7.45,20.57 7.73,19.5L8,18.5L9,15H15M16,7A2,2 0 0,1 18,9A2,2 0 0,1 16,11A2,2 0 0,1 14,9A2,2 0 0,1 16,7M8,7A2,2 0 0,1 10,9A2,2 0 0,1 8,11A2,2 0 0,1 6,9A2,2 0 0,1 8,7Z" />
    </g>
    <g id="mdi-mushroom-outline" transform="translate(324 72) scale(1.5)" fill="#fff">
      <path d="M4,12H20C20,8.27 17.44,5.13 14,4.25C13.86,5.24 13,6 12,6C11,6 10.14,5.24 10,4.25C6.56,5.13 4,8.27 4,12M12,2A10,10 0 0,1 22,12A2,2 0 0,1 20,14H4A2,2 0 0,1 2,12A10,10 0 0,1 12,2M13.5,17H10.5L9.92,19L9.65,20H14.35L14.08,19L13.5,17M15,15L16,18.5L16.27,19.45L16.35,20C16.35,21.1 15.45,22 14.35,22H9.65L9.17,21.94C8.1,21.66 7.45,20.57 7.73,19.5L8,18.5L9,15H15M16,7A2,2 0 0,1 18,9A2,2 0 0,1 16,11A2,2 0 0,1 14,9A2,2 0 0,1 16,7M8,7A2,2 0 0,1 10,9A2,2 0 0,1 8,11A2,2 0 0,1 6,9A2,2 0 0,1 8,7Z" />
    </g>
    <g id="mdi-music" transform="translate(360 72) scale(1.5)" fill="#555">
      <path d="M21,3V15.5A3.5,3.5 0 0,1 17.5,19A3.5,3.5 0 0,1 14,15.5A3.5,3.5 0 0,1 17.5,12C18.04,12 18.55,12.12 19,12.34V6.47L9,8.6V17.5A3.5,3.5 0 0,1 5.5,21A3.5,3.5 0 0,1 2,17.5A3.5,3.5 0 0,1 5.5,14C6.04,14 6.55,14.12 7,14.34V6L21,3Z" />
    </g>
    <g id="mdi-music" transform="translate(396 72) scale(1.5)" fill="#fff">
      <path d="M21,3V15.5A3.5,3.5 0 0,1 17.5,19A3.5,3.5 0 0,1 14,15.5A3.5,3.5 0 0,1 17.5,12C18.04,12 18.55,12.12 19,12.34V6.47L9,8.6V17.5A3.5,3.5 0 0,1 5.5,21A3.5,3.5 0 0,1 2,17.5A3.5,3.5 0 0,1 5.5,14C6.04,14 6.55,14.12 7,14.34V6L21,3Z" />
    </g>
    <g id="mdi-music-accidental-double-flat" transform="translate(432 72) scale(1.5)" fill="#555">
      <path d="M15.5 9C14.8 9 14.11 9.28 13.5 9.67V5H11.5V9.62C11.04 9.24 10.39 9 9.5 9C8.8 9 8.11 9.28 7.5 9.67V5H5.5V19C8.5 17.32 10.43 15.79 11.5 14.41V19C16.36 16.26 18.5 13.91 18.5 12C18.5 10.59 17.79 9 15.5 9M7.5 15.38V12.26C8.12 11.59 8.95 11 9.5 11C10.09 11 10.5 11.07 10.5 12C10.5 12.15 10.4 13.3 7.5 15.38M13.5 15.38V12.26C14.12 11.59 14.95 11 15.5 11C16.09 11 16.5 11.07 16.5 12C16.5 12.15 16.4 13.3 13.5 15.38Z" />
    </g>
    <g id="mdi-music-accidental-double-flat" transform="translate(468 72) scale(1.5)" fill="#fff">
      <path d="M15.5 9C14.8 9 14.11 9.28 13.5 9.67V5H11.5V9.62C11.04 9.24 10.39 9 9.5 9C8.8 9 8.11 9.28 7.5 9.67V5H5.5V19C8.5 17.32 10.43 15.79 11.5 14.41V19C16.36 16.26 18.5 13.91 18.5 12C18.5 10.59 17.79 9 15.5 9M7.5 15.38V12.26C8.12 11.59 8.95 11 9.5 11C10.09 11 10.5 11.07 10.5 12C10.5 12.15 10.4 13.3 7.5 15.38M13.5 15.38V12.26C14.12 11.59 14.95 11 15.5 11C16.09 11 16.5 11.07 16.5 12C16.5 12.15 16.4 13.3 13.5 15.38Z" />
    </g>
    <g id="mdi-music-accidental-double-sharp" transform="translate(504 72) scale(1.5)" fill="#555">
      <path d="M15.41 10H17V7H14V8.59L12 10.59L10 8.59V7H7V10H8.59L10.59 12L8.59 14H7V17H10V15.41L12 13.41L14 15.41V17H17V14H15.41L13.41 12L15.41 10Z" />
    </g>
    <g id="mdi-music-accidental-double-sharp" transform="translate(540 72) scale(1.5)" fill="#fff">
      <path d="M15.41 10H17V7H14V8.59L12 10.59L10 8.59V7H7V10H8.59L10.59 12L8.59 14H7V17H10V15.41L12 13.41L14 15.41V17H17V14H15.41L13.41 12L15.41 10Z" />
    </g>
    <g id="mdi-music-accidental-flat" transform="translate(576 72) scale(1.5)" fill="#555">
      <path d="M8.5 19C13.36 16.26 15.5 13.91 15.5 12C15.5 10.59 14.79 9 12.5 9C11.8 9 11.11 9.28 10.5 9.67V5H8.5M10.5 15.38V12.26C11.12 11.59 11.95 11 12.5 11C13.09 11 13.5 11.07 13.5 12C13.5 12.15 13.4 13.3 10.5 15.38Z" />
    </g>
    <g id="mdi-music-accidental-flat" transform="translate(612 72) scale(1.5)" fill="#fff">
      <path d="M8.5 19C13.36 16.26 15.5 13.91 15.5 12C15.5 10.59 14.79 9 12.5 9C11.8 9 11.11 9.28 10.5 9.67V5H8.5M10.5 15.38V12.26C11.12 11.59 11.95 11 12.5 11C13.09 11 13.5 11.07 13.5 12C13.5 12.15 13.4 13.3 10.5 15.38Z" />
    </g>
    <g id="mdi-music-accidental-natural" transform="translate(648 72) scale(1.5)" fill="#555">
      <path d="M10 8.75V3.5H8V17.5L14 15.25V20.5H16V6.5L10 8.75M14 13.25L10 14.75V10.75L14 9.25V13.25Z" />
    </g>
    <g id="mdi-music-accidental-natural" transform="translate(684 72) scale(1.5)" fill="#fff">
      <path d="M10 8.75V3.5H8V17.5L14 15.25V20.5H16V6.5L10 8.75M14 13.25L10 14.75V10.75L14 9.25V13.25Z" />
    </g>
    <g id="mdi-music-accidental-sharp" transform="translate(0 108) scale(1.5)" fill="#555">
      <path d="M17 9.5V7.5L15 8.1V5.5H13V8.7L11 9.3V6.5H9V9.9L7 10.5V12.5L9 11.9V13.9L7 14.5V16.5L9 15.9V18.5H11V15.3L13 14.7V17.5H15V14.1L17 13.5V11.5L15 12.1V10.1L17 9.5M13 12.7L11 13.3V11.3L13 10.7V12.7Z" />
    </g>
    <g id="mdi-music-accidental-sharp" transform="translate(36 108) scale(1.5)" fill="#fff">
      <path d="M17 9.5V7.5L15 8.1V5.5H13V8.7L11 9.3V6.5H9V9.9L7 10.5V12.5L9 11.9V13.9L7 14.5V16.5L9 15.9V18.5H11V15.3L13 14.7V17.5H15V14.1L17 13.5V11.5L15 12.1V10.1L17 9.5M13 12.7L11 13.3V11.3L13 10.7V12.7Z" />
    </g>
    <g id="mdi-music-box" transform="translate(72 108) scale(1.5)" fill="#555">
      <path d="M16,9H13V14.5A2.5,2.5 0 0,1 10.5,17A2.5,2.5 0 0,1 8,14.5A2.5,2.5 0 0,1 10.5,12C11.07,12 11.58,12.19 12,12.5V7H16M19,3H5A2,2 0 0,0 3,5V19A2,2 0 0,0 5,21H19A2,2 0 0,0 21,19V5A2,2 0 0,0 19,3Z" />
    </g>
    <g id="mdi-music-box" transform="translate(108 108) scale(1.5)" fill="#fff">
      <path d="M16,9H13V14.5A2.5,2.5 0 0,1 10.5,17A2.5,2.5 0 0,1 8,14.5A2.5,2.5 0 0,1 10.5,12C11.07,12 11.58,12.19 12,12.5V7H16M19,3H5A2,2 0 0,0 3,5V19A2,2 0 0,0 5,21H19A2,2 0 0,0 21,19V5A2,2 0 0,0 19,3Z" />
    </g>
    <g id="mdi-music-box-multiple" transform="translate(144 108) scale(1.5)" fill="#555">
      <path d="M4,6H2V20A2,2 0 0,0 4,22H18V20H4M18,7H15V12.5A2.5,2.5 0 0,1 12.5,15A2.5,2.5 0 0,1 10,12.5A2.5,2.5 0 0,1 12.5,10C13.07,10 13.58,10.19 14,10.5V5H18M20,2H8A2,2 0 0,0 6,4V16A2,2 0 0,0 8,18H20A2,2 0 0,0 22,16V4A2,2 0 0,0 20,2Z" />
    </g>
    <g id="mdi-music-box-multiple" transform="translate(180 108) scale(1.5)" fill="#fff">
      <path d="M4,6H2V20A2,2 0 0,0 4,22H18V20H4M18,7H15V12.5A2.5,2.5 0 0,1 12.5,15A2.5,2.5 0 0,1 10,12.5A2.5,2.5 0 0,1 12.5,10C13.07,10 13.58,10.19 14,10.5V5H18M20,2H8A2,2 0 0,0 6,4V16A2,2 0 0,0 8,18H20A2,2 0 0,0 22,16V4A2,2 0 0,0 20,2Z" />
    </g>
    <g id="mdi-music-box-multiple-outline" transform="translate(216 108) scale(1.5)" fill="#555">
      <path d="M20,2H8A2,2 0 0,0 6,4V16A2,2 0 0,0 8,18H20A2,2 0 0,0 22,16V4A2,2 0 0,0 20,2M20,16H8V4H20M12.5,15A2.5,2.5 0 0,0 15,12.5V7H18V5H14V10.5C13.58,10.19 13.07,10 12.5,10A2.5,2.5 0 0,0 10,12.5A2.5,2.5 0 0,0 12.5,15M4,6H2V20A2,2 0 0,0 4,22H18V20H4" />
    </g>
    <g id="mdi-music-box-multiple-outline" transform="translate(252 108) scale(1.5)" fill="#fff">
      <path d="M20,2H8A2,2 0 0,0 6,4V16A2,2 0 0,0 8,18H20A2,2 0 0,0 22,16V4A2,2 0 0,0 20,2M20,16H8V4H20M12.5,15A2.5,2.5 0 0,0 15,12.5V7H18V5H14V10.5C13.58,10.19 13.07,10 12.5,10A2.5,2.5 0 0,0 10,12.5A2.5,2.5 0 0,0 12.5,15M4,6H2V20A2,2 0 0,0 4,22H18V20H4" />
    </g>
    <g id="mdi-music-box-outline" transform="translate(288 108) scale(1.5)" fill="#555">
      <path d="M16,9H13V14.5A2.5,2.5 0 0,1 10.5,17A2.5,2.5 0 0,1 8,14.5A2.5,2.5 0 0,1 10.5,12C11.07,12 11.58,12.19 12,12.5V7H16V9M19,3A2,2 0 0,1 21,5V19A2,2 0 0,1 19,21H5A2,2 0 0,1 3,19V5A2,2 0 0,1 5,3H19M5,5V19H19V5H5Z" />
    </g>
    <g id="mdi-music-box-outline" transform="translate(324 108) scale(1.5)" fill="#fff">
      <path d="M16,9H13V14.5A2.5,2.5 0 0,1 10.5,17A2.5,2.5 0 0,1 8,14.5A2.5,2.5 0 0,1 10.5,12C11.07,12 11.58,12.19 12,12.5V7H16V9M19,3A2,2 0 0,1 21,5V19A2,2 0 0,1 19,21H5A2,2 0 0,1 3,19V5A2,2 0 0,1 5,3H19M5,5V19H19V5H5Z" />
    </g>
    <g id="mdi-music-circle" transform="translate(360 108) scale(1.5)" fill="#555">
      <path d="M16,9V7H12V12.5C11.58,12.19 11.07,12 10.5,12A2.5,2.5 0 0,0 8,14.5A2.5,2.5 0 0,0 10.5,17A2.5,2.5 0 0,0 13,14.5V9H16M12,2A10,10 0 0,1 22,12A10,10 0 0,1 12,22A10,10 0 0,1 2,12A10,10 0 0,1 12,2Z" />
    </g>
    <g id="mdi-music-circle" transform="translate(396 108) scale(1.5)" fill="#fff">
      <path d="M16,9V7H12V12.5C11.58,12.19 11.07,12 10.5,12A2.5,2.5 0 0,0 8,14.5A2.5,2.5 0 0,0 10.5,17A2.5,2.5 0 0,0 13,14.5V9H16M12,2A10,10 0 0,1 22,12A10,10 0 0,1 12,22A10,10 0 0,1 2,12A10,10 0 0,1 12,2Z" />
    </g>
    <g id="mdi-music-circle-outline" transform="translate(432 108) scale(1.5)" fill="#555">
      <path d="M16,9H13V14.5A2.5,2.5 0 0,1 10.5,17A2.5,2.5 0 0,1 8,14.5A2.5,2.5 0 0,1 10.5,12C11.07,12 11.58,12.19 12,12.5V7H16V9M12,2A10,10 0 0,1 22,12A10,10 0 0,1 12,22A10,10 0 0,1 2,12A10,10 0 0,1 12,2M12,4A8,8 0 0,0 4,12A8,8 0 0,0 12,20A8,8 0 0,0 20,12A8,8 0 0,0 12,4Z" />
    </g>
    <g id="mdi-music-circle-outline" transform="translate(468 108) scale(1.5)" fill="#fff">
      <path d="M16,9H13V14.5A2.5,2.5 0 0,1 10.5,17A2.5,2.5 0 0,1 8,14.5A2.5,2.5 0 0,1 10.5,12C11.07,12 11.58,12.19 12,12.5V7H16V9M12,2A10,10 0 0,1 22,12A10,10 0 0,1 12,22A10,10 0 0,1 2,12A10,10 0 0,1 12,2M12,4A8,8 0 0,0 4,12A8,8 0 0,0 12,20A8,8 0 0,0 20,12A8,8 0 0,0 12,4Z" />
    </g>
    <g id="mdi-music-clef-alto" transform="translate(504 108) scale(1.5)" fill="#555">
      <path d="M5 4H7V20H5M15.46 13H14.83L13.83 12L14.83 11H15.46A3.5 3.5 0 1 0 11.96 7.5H13.96A1.5 1.5 0 1 1 15.46 9H14L12 11H11V4H9V20H11V13H12L14 15H15.46A1.5 1.5 0 1 1 13.96 16.5H11.96A3.5 3.5 0 1 0 15.46 13Z" />
    </g>
    <g id="mdi-music-clef-alto" transform="translate(540 108) scale(1.5)" fill="#fff">
      <path d="M5 4H7V20H5M15.46 13H14.83L13.83 12L14.83 11H15.46A3.5 3.5 0 1 0 11.96 7.5H13.96A1.5 1.5 0 1 1 15.46 9H14L12 11H11V4H9V20H11V13H12L14 15H15.46A1.5 1.5 0 1 1 13.96 16.5H11.96A3.5 3.5 0 1 0 15.46 13Z" />
    </g>
    <g id="mdi-music-clef-bass" transform="translate(576 108) scale(1.5)" fill="#555">
      <path d="M18.5 5A1.5 1.5 0 1 1 17 6.5A1.5 1.5 0 0 1 18.5 5M18.5 11A1.5 1.5 0 1 1 17 12.5A1.5 1.5 0 0 1 18.5 11M10 4A5 5 0 0 0 5 9V10A2 2 0 1 0 7.18 8A3 3 0 0 1 10 6A4 4 0 0 1 14 10C14 13.59 11.77 16.19 7 18.2L7.76 20.04C13.31 17.72 16 14.43 16 10A6 6 0 0 0 10 4Z" />
    </g>
    <g id="mdi-music-clef-bass" transform="translate(612 108) scale(1.5)" fill="#fff">
      <path d="M18.5 5A1.5 1.5 0 1 1 17 6.5A1.5 1.5 0 0 1 18.5 5M18.5 11A1.5 1.5 0 1 1 17 12.5A1.5 1.5 0 0 1 18.5 11M10 4A5 5 0 0 0 5 9V10A2 2 0 1 0 7.18 8A3 3 0 0 1 10 6A4 4 0 0 1 14 10C14 13.59 11.77 16.19 7 18.2L7.76 20.04C13.31 17.72 16 14.43 16 10A6 6 0 0 0 10 4Z" />
    </g>
    <g id="mdi-music-clef-treble" transform="translate(648 108) scale(1.5)" fill="#555">
      <path d="M13 11V7.5L15.2 5.29C16 4.5 16.15 3.24 15.59 2.26C15.14 1.47 14.32 1 13.45 1C13.24 1 13 1.03 12.81 1.09C11.73 1.38 11 2.38 11 3.5V6.74L7.86 9.91C6.2 11.6 5.7 14.13 6.61 16.34C7.38 18.24 9.06 19.55 11 19.89V20.5C11 20.76 10.77 21 10.5 21H9V23H10.5C11.85 23 13 21.89 13 20.5V20C15.03 20 17.16 18.08 17.16 15.25C17.16 12.95 15.24 11 13 11M13 3.5C13 3.27 13.11 3.09 13.32 3.03C13.54 2.97 13.77 3.06 13.88 3.26C14 3.46 13.96 3.71 13.8 3.87L13 4.73V3.5M11 11.5C10.03 12.14 9.3 13.24 9.04 14.26L11 14.78V17.83C9.87 17.53 8.9 16.71 8.43 15.57C7.84 14.11 8.16 12.45 9.26 11.33L11 9.5V11.5M13 18V12.94C14.17 12.94 15.18 14.04 15.18 15.25C15.18 17 13.91 18 13 18Z" />
    </g>
    <g id="mdi-music-clef-treble" transform="translate(684 108) scale(1.5)" fill="#fff">
      <path d="M13 11V7.5L15.2 5.29C16 4.5 16.15 3.24 15.59 2.26C15.14 1.47 14.32 1 13.45 1C13.24 1 13 1.03 12.81 1.09C11.73 1.38 11 2.38 11 3.5V6.74L7.86 9.91C6.2 11.6 5.7 14.13 6.61 16.34C7.38 18.24 9.06 19.55 11 19.89V20.5C11 20.76 10.77 21 10.5 21H9V23H10.5C11.85 23 13 21.89 13 20.5V20C15.03 20 17.16 18.08 17.16 15.25C17.16 12.95 15.24 11 13 11M13 3.5C13 3.27 13.11 3.09 13.32 3.03C13.54 2.97 13.77 3.06 13.88 3.26C14 3.46 13.96 3.71 13.8 3.87L13 4.73V3.5M11 11.5C10.03 12.14 9.3 13.24 9.04 14.26L11 14.78V17.83C9.87 17.53 8.9 16.71 8.43 15.57C7.84 14.11 8.16 12.45 9.26 11.33L11 9.5V11.5M13 18V12.94C14.17 12.94 15.18 14.04 15.18 15.25C15.18 17 13.91 18 13 18Z" />
    </g>
    <g id="mdi-music-note" transform="translate(0 144) scale(1.5)" fill="#555">
      <path d="M12 3V13.55C11.41 13.21 10.73 13 10 13C7.79 13 6 14.79 6 17S7.79 21 10 21 14 19.21 14 17V7H18V3H12Z" />
    </g>
    <g id="mdi-music-note" transform="translate(36 144) scale(1.5)" fill="#fff">
      <path d="M12 3V13.55C11.41 13.21 10.73 13 10 13C7.79 13 6 14.79 6 17S7.79 21 10 21 14 19.21 14 17V7H18V3H12Z" />
    </g>
    <g id="mdi-music-note-bluetooth" transform="translate(72 144) scale(1.5)" fill="#555">
      <path d="M22 9.85L19.14 7H18.64V10.79L16.35 8.5L15.64 9.21L18.43 12L15.64 14.79L16.35 15.5L18.64 13.21V17H19.14L22 14.15L19.85 12L22 9.85M19.64 8.91L20.58 9.85L19.64 10.79V8.91M20.58 14.15L19.64 15.09V13.21L20.58 14.15M9.64 3V13.55C9.05 13.21 8.37 13 7.64 13C5.43 13 3.64 14.79 3.64 17S5.43 21 7.64 21 11.64 19.21 11.64 17V7H15.64V3H9.64Z" />
    </g>
    <g id="mdi-music-note-bluetooth" transform="translate(108 144) scale(1.5)" fill="#fff">
      <path d="M22 9.85L19.14 7H18.64V10.79L16.35 8.5L15.64 9.21L18.43 12L15.64 14.79L16.35 15.5L18.64 13.21V17H19.14L22 14.15L19.85 12L22 9.85M19.64 8.91L20.58 9.85L19.64 10.79V8.91M20.58 14.15L19.64 15.09V13.21L20.58 14.15M9.64 3V13.55C9.05 13.21 8.37 13 7.64 13C5.43 13 3.64 14.79 3.64 17S5.43 21 7.64 21 11.64 19.21 11.64 17V7H15.64V3H9.64Z" />
    </g>
    <g id="mdi-music-note-bluetooth-off" transform="translate(144 144) scale(1.5)" fill="#555">
      <path d="M22 9.85L19.14 7H18.64V10.79L16.35 8.5L15.64 9.21L18.43 12L15.64 14.79L16.35 15.5L18.64 13.21V17H19.14L22 14.15L19.85 12L22 9.85M19.64 8.91L20.58 9.85L19.64 10.79V8.91M20.58 14.15L19.64 15.09V13.21L20.58 14.15M1.96 3L.687 4.27L9.69 13.27V13.55C9.1 13.21 8.42 13 7.69 13C5.5 13 3.69 14.79 3.69 17S5.5 21 7.69 21 11.69 19.21 11.69 17V15.27L17.42 21L18.69 19.73L1.96 3M11.69 7H15.69V3H9.69V8.18L11.69 10.18V7Z" />
    </g>
    <g id="mdi-music-note-bluetooth-off" transform="translate(180 144) scale(1.5)" fill="#fff">
      <path d="M22 9.85L19.14 7H18.64V10.79L16.35 8.5L15.64 9.21L18.43 12L15.64 14.79L16.35 15.5L18.64 13.21V17H19.14L22 14.15L19.85 12L22 9.85M19.64 8.91L20.58 9.85L19.64 10.79V8.91M20.58 14.15L19.64 15.09V13.21L20.58 14.15M1.96 3L.687 4.27L9.69 13.27V13.55C9.1 13.21 8.42 13 7.69 13C5.5 13 3.69 14.79 3.69 17S5.5 21 7.69 21 11.69 19.21 11.69 17V15.27L17.42 21L18.69 19.73L1.96 3M11.69 7H15.69V3H9.69V8.18L11.69 10.18V7Z" />
    </g>
    <g id="mdi-music-note-eighth" transform="translate(216 144) scale(1.5)" fill="#555">
      <path d="M12 3V13.55C11.41 13.21 10.73 13 10 13C7.79 13 6 14.79 6 17S7.79 21 10 21 14 19.21 14 17V7H18V3H12Z" />
    </g>
    <g id="mdi-music-note-eighth" transform="translate(252 144) scale(1.5)" fill="#fff">
      <path d="M12 3V13.55C11.41 13.21 10.73 13 10 13C7.79 13 6 14.79 6 17S7.79 21 10 21 14 19.21 14 17V7H18V3H12Z" />
    </g>
    <g id="mdi-music-note-eighth-dotted" transform="translate(288 144) scale(1.5)" fill="#555">
      <path d="M12 3V13.55A4 4 0 1 0 14 17V7H18V3M16.5 20A1.5 1.5 0 1 1 18 18.5A1.5 1.5 0 0 1 16.5 20Z" />
    </g>
    <g id="mdi-music-note-eighth-dotted" transform="translate(324 144) scale(1.5)" fill="#fff">
      <path d="M12 3V13.55A4 4 0 1 0 14 17V7H18V3M16.5 20A1.5 1.5 0 1 1 18 18.5A1.5 1.5 0 0 1 16.5 20Z" />
    </g>
    <g id="mdi-music-note-half" transform="translate(360 144) scale(1.5)" fill="#555">
      <path d="M16 3H14V13.56A3.96 3.96 0 0 0 12 13A4 4 0 1 0 16 17V3M12 19A2 2 0 1 1 14 17A2 2 0 0 1 12 19Z" />
    </g>
    <g id="mdi-music-note-half" transform="translate(396 144) scale(1.5)" fill="#fff">
      <path d="M16 3H14V13.56A3.96 3.96 0 0 0 12 13A4 4 0 1 0 16 17V3M12 19A2 2 0 1 1 14 17A2 2 0 0 1 12 19Z" />
    </g>
    <g id="mdi-music-note-half-dotted" transform="translate(432 144) scale(1.5)" fill="#555">
      <path d="M14 3H12V13.56A3.96 3.96 0 0 0 10 13A4 4 0 1 0 14 17V3M10 19A2 2 0 1 1 12 17A2 2 0 0 1 10 19M16.5 20A1.5 1.5 0 1 1 18 18.5A1.5 1.5 0 0 1 16.5 20Z" />
    </g>
    <g id="mdi-music-note-half-dotted" transform="translate(468 144) scale(1.5)" fill="#fff">
      <path d="M14 3H12V13.56A3.96 3.96 0 0 0 10 13A4 4 0 1 0 14 17V3M10 19A2 2 0 1 1 12 17A2 2 0 0 1 10 19M16.5 20A1.5 1.5 0 1 1 18 18.5A1.5 1.5 0 0 1 16.5 20Z" />
    </g>
    <g id="mdi-music-note-off" transform="translate(504 144) scale(1.5)" fill="#555">
      <path d="M4.27 3L3 4.27L12 13.27V13.55C11.41 13.21 10.73 13 10 13C7.79 13 6 14.79 6 17S7.79 21 10 21 14 19.21 14 17V15.27L19.73 21L21 19.73L4.27 3M14 7H18V3H12V8.18L14 10.18Z" />
    </g>
    <g id="mdi-music-note-off" transform="translate(540 144) scale(1.5)" fill="#fff">
      <path d="M4.27 3L3 4.27L12 13.27V13.55C11.41 13.21 10.73 13 10 13C7.79 13 6 14.79 6 17S7.79 21 10 21 14 19.21 14 17V15.27L19.73 21L21 19.73L4.27 3M14 7H18V3H12V8.18L14 10.18Z" />
    </g>
    <g id="mdi-music-note-off-outline" transform="translate(576 144) scale(1.5)" fill="#555">
      <path d="M14 7H18V3H12V7.61L14 9.61M12 10.44L4.41 2.86L3 4.27L12 13.27V13.55A3.94 3.94 0 0 0 8.67 13.23A4 4 0 0 0 10.65 20.95A4.1 4.1 0 0 0 14 16.85V15.27L19.73 21L21.14 19.59M10 19A2 2 0 1 1 12 17A2 2 0 0 1 10 19Z" />
    </g>
    <g id="mdi-music-note-off-outline" transform="translate(612 144) scale(1.5)" fill="#fff">
      <path d="M14 7H18V3H12V7.61L14 9.61M12 10.44L4.41 2.86L3 4.27L12 13.27V13.55A3.94 3.94 0 0 0 8.67 13.23A4 4 0 0 0 10.65 20.95A4.1 4.1 0 0 0 14 16.85V15.27L19.73 21L21.14 19.59M10 19A2 2 0 1 1 12 17A2 2 0 0 1 10 19Z" />
    </g>
    <g id="mdi-music-note-outline" transform="translate(648 144) scale(1.5)" fill="#555">
      <path d="M12 3V13.55A4 4 0 1 0 14 17V7H18V3M10 19A2 2 0 1 1 12 17A2 2 0 0 1 10 19Z" />
    </g>
    <g id="mdi-music-note-outline" transform="translate(684 144) scale(1.5)" fill="#fff">
      <path d="M12 3V13.55A4 4 0 1 0 14 17V7H18V3M10 19A2 2 0 1 1 12 17A2 2 0 0 1 10 19Z" />
    </g>
    <g id="mdi-music-note-plus" transform="translate(0 180) scale(1.5)" fill="#555">
      <path d="M17 9V12H14V14H17V17H19V14H22V12H19V9H17M9 3V13.55C8.41 13.21 7.73 13 7 13C4.79 13 3 14.79 3 17S4.79 21 7 21 11 19.21 11 17V7H15V3H9Z" />
    </g>
    <g id="mdi-music-note-plus" transform="translate(36 180) scale(1.5)" fill="#fff">
      <path d="M17 9V12H14V14H17V17H19V14H22V12H19V9H17M9 3V13.55C8.41 13.21 7.73 13 7 13C4.79 13 3 14.79 3 17S4.79 21 7 21 11 19.21 11 17V7H15V3H9Z" />
    </g>
    <g id="mdi-music-note-quarter" transform="translate(72 180) scale(1.5)" fill="#555">
      <path d="M14 3V13.56C13.41 13.21 12.73 13 12 13C9.79 13 8 14.79 8 17S9.79 21 12 21 16 19.21 16 17V3H14Z" />
    </g>
    <g id="mdi-music-note-quarter" transform="translate(108 180) scale(1.5)" fill="#fff">
      <path d="M14 3V13.56C13.41 13.21 12.73 13 12 13C9.79 13 8 14.79 8 17S9.79 21 12 21 16 19.21 16 17V3H14Z" />
    </g>
    <g id="mdi-music-note-quarter-dotted" transform="translate(144 180) scale(1.5)" fill="#555">
      <path d="M12 13V13.56A3.96 3.96 0 0 0 10 13A4 4 0 1 0 14 17V3H12M16.5 17A1.5 1.5 0 1 1 15 18.5A1.5 1.5 0 0 1 16.5 17Z" />
    </g>
    <g id="mdi-music-note-quarter-dotted" transform="translate(180 180) scale(1.5)" fill="#fff">
      <path d="M12 13V13.56A3.96 3.96 0 0 0 10 13A4 4 0 1 0 14 17V3H12M16.5 17A1.5 1.5 0 1 1 15 18.5A1.5 1.5 0 0 1 16.5 17Z" />
    </g>
    <g id="mdi-music-note-sixteenth" transform="translate(216 180) scale(1.5)" fill="#555">
      <path d="M18 7V3H12V13.55C11.41 13.21 10.73 13 10 13C7.79 13 6 14.79 6 17S7.79 21 10 21 14 19.21 14 17V11H18V8H14V7H18Z" />
    </g>
    <g id="mdi-music-note-sixteenth" transform="translate(252 180) scale(1.5)" fill="#fff">
      <path d="M18 7V3H12V13.55C11.41 13.21 10.73 13 10 13C7.79 13 6 14.79 6 17S7.79 21 10 21 14 19.21 14 17V11H18V8H14V7H18Z" />
    </g>
    <g id="mdi-music-note-sixteenth-dotted" transform="translate(288 180) scale(1.5)" fill="#555">
      <path d="M18 18.5A1.5 1.5 0 1 1 16.5 17A1.5 1.5 0 0 1 18 18.5M18 7V3H12V13.55A4 4 0 1 0 14 17V11H18V8H14V7Z" />
    </g>
    <g id="mdi-music-note-sixteenth-dotted" transform="translate(324 180) scale(1.5)" fill="#fff">
      <path d="M18 18.5A1.5 1.5 0 1 1 16.5 17A1.5 1.5 0 0 1 18 18.5M18 7V3H12V13.55A4 4 0 1 0 14 17V11H18V8H14V7Z" />
    </g>
    <g id="mdi-music-note-whole" transform="translate(360 180) scale(1.5)" fill="#555">
      <path d="M12 15A2 2 0 1 1 10 17A2 2 0 0 1 12 15M12 13A4 4 0 1 0 16 17A4 4 0 0 0 12 13Z" />
    </g>
    <g id="mdi-music-note-whole" transform="translate(396 180) scale(1.5)" fill="#fff">
      <path d="M12 15A2 2 0 1 1 10 17A2 2 0 0 1 12 15M12 13A4 4 0 1 0 16 17A4 4 0 0 0 12 13Z" />
    </g>
    <g id="mdi-music-note-whole-dotted" transform="translate(432 180) scale(1.5)" fill="#555">
      <path d="M10 15A2 2 0 1 1 8 17A2 2 0 0 1 10 15M10 13A4 4 0 1 0 14 17A4 4 0 0 0 10 13M16.5 17A1.5 1.5 0 1 1 15 18.5A1.5 1.5 0 0 1 16.5 17Z" />
    </g>
    <g id="mdi-music-note-whole-dotted" transform="translate(468 180) scale(1.5)" fill="#fff">
      <path d="M10 15A2 2 0 1 1 8 17A2 2 0 0 1 10 15M10 13A4 4 0 1 0 14 17A4 4 0 0 0 10 13M16.5 17A1.5 1.5 0 1 1 15 18.5A1.5 1.5 0 0 1 16.5 17Z" />
    </g>
    <g id="mdi-music-off" transform="translate(504 180) scale(1.5)" fill="#555">
      <path d="M2,5.27L3.28,4L20,20.72L18.73,22L9,12.27V17.5A3.5,3.5 0 0,1 5.5,21A3.5,3.5 0 0,1 2,17.5A3.5,3.5 0 0,1 5.5,14C6.04,14 6.55,14.12 7,14.34V10.27L2,5.27M21,3V15.5C21,16.5 20.57,17.42 19.88,18.06L14.94,13.12C15.58,12.43 16.5,12 17.5,12C18.04,12 18.55,12.12 19,12.34V6.47L10.17,8.35L7.66,5.84L21,3Z" />
    </g>
    <g id="mdi-music-off" transform="translate(540 180) scale(1.5)" fill="#fff">
      <path d="M2,5.27L3.28,4L20,20.72L18.73,22L9,12.27V17.5A3.5,3.5 0 0,1 5.5,21A3.5,3.5 0 0,1 2,17.5A3.5,3.5 0 0,1 5.5,14C6.04,14 6.55,14.12 7,14.34V10.27L2,5.27M21,3V15.5C21,16.5 20.57,17.42 19.88,18.06L14.94,13.12C15.58,12.43 16.5,12 17.5,12C18.04,12 18.55,12.12 19,12.34V6.47L10.17,8.35L7.66,5.84L21,3Z" />
    </g>
    <g id="mdi-music-rest-eighth" transform="translate(576 180) scale(1.5)" fill="#555">
      <path d="M14 6A5.56 5.56 0 0 1 10.95 7.86A1.5 1.5 0 1 0 9.5 9H9.74A6.32 6.32 0 0 0 13.25 7.93L10 18H12L16 6Z" />
    </g>
    <g id="mdi-music-rest-eighth" transform="translate(612 180) scale(1.5)" fill="#fff">
      <path d="M14 6A5.56 5.56 0 0 1 10.95 7.86A1.5 1.5 0 1 0 9.5 9H9.74A6.32 6.32 0 0 0 13.25 7.93L10 18H12L16 6Z" />
    </g>
    <g id="mdi-music-rest-half" transform="translate(648 180) scale(1.5)" fill="#555">
      <path d="M6 14H8V10H16V14H18V15H6V14Z" />
    </g>
    <g id="mdi-music-rest-half" transform="translate(684 180) scale(1.5)" fill="#fff">
      <path d="M6 14H8V10H16V14H18V15H6V14Z" />
    </g>
    <g id="mdi-music-rest-quarter" transform="translate(0 216) scale(1.5)" fill="#555">
      <path d="M11.71 16.81C10.91 17.6 10.88 18.84 11.64 19.58L10.19 21C8.66 19.5 8.72 17.03 10.32 15.46C10.85 14.94 11.5 14.61 12.16 14.42L9 11.34L10.45 9.92L10.82 9.57C11.82 8.59 11.85 7.04 10.9 6.11L9.16 4.42L10.62 3L14.78 7.06C15.54 7.81 15.5 9.05 14.71 9.83L12.53 11.95L16 15.33L15.61 15.72C15.11 16.21 14.38 16.46 13.72 16.28C13.04 16.1 12.26 16.28 11.71 16.81Z" />
    </g>
    <g id="mdi-music-rest-quarter" transform="translate(36 216) scale(1.5)" fill="#fff">
      <path d="M11.71 16.81C10.91 17.6 10.88 18.84 11.64 19.58L10.19 21C8.66 19.5 8.72 17.03 10.32 15.46C10.85 14.94 11.5 14.61 12.16 14.42L9 11.34L10.45 9.92L10.82 9.57C11.82 8.59 11.85 7.04 10.9 6.11L9.16 4.42L10.62 3L14.78 7.06C15.54 7.81 15.5 9.05 14.71 9.83L12.53 11.95L16 15.33L15.61 15.72C15.11 16.21 14.38 16.46 13.72 16.28C13.04 16.1 12.26 16.28 11.71 16.81Z" />
    </g>
    <g id="mdi-music-rest-sixteenth" transform="translate(72 216) scale(1.5)" fill="#555">
      <path d="M15 3A5.56 5.56 0 0 1 11.95 4.86A1.5 1.5 0 1 0 10.5 6H10.74A6.32 6.32 0 0 0 14.25 4.93L12.9 9.1A5.56 5.56 0 0 1 9.95 10.86A1.5 1.5 0 1 0 8.5 12H8.74A6.32 6.32 0 0 0 12.25 10.93L9 21H11L17 3Z" />
    </g>
    <g id="mdi-music-rest-sixteenth" transform="translate(108 216) scale(1.5)" fill="#fff">
      <path d="M15 3A5.56 5.56 0 0 1 11.95 4.86A1.5 1.5 0 1 0 10.5 6H10.74A6.32 6.32 0 0 0 14.25 4.93L12.9 9.1A5.56 5.56 0 0 1 9.95 10.86A1.5 1.5 0 1 0 8.5 12H8.74A6.32 6.32 0 0 0 12.25 10.93L9 21H11L17 3Z" />
    </g>
    <g id="mdi-music-rest-whole" transform="translate(144 216) scale(1.5)" fill="#555">
      <path d="M18 10H16V14H8V10H6V9H18V10Z" />
    </g>
    <g id="mdi-music-rest-whole" transform="translate(180 216) scale(1.5)" fill="#fff">
      <path d="M18 10H16V14H8V10H6V9H18V10Z" />
    </g>
    <g id="mdi-mustache" transform="translate(216 216) scale(1.5)" fill="#555">
      <path d="M21 12C19 12 18 9 15 9S12 11 12 11 12 9 9 9 5 12 3 12C2 12 1 11 1 11S2 16 6 16C11 16 12 13 12 13S13 16 18 16C22 16 23 11 23 11S22 12 21 12Z" />
    </g>
    <g id="mdi-mustache" transform="translate(252 216) scale(1.5)" fill="#fff">
      <path d="M21 12C19 12 18 9 15 9S12 11 12 11 12 9 9 9 5 12 3 12C2 12 1 11 1 11S2 16 6 16C11 16 12 13 12 13S13 16 18 16C22 16 23 11 23 11S22 12 21 12Z" />
    </g>
    <g id="mdi-nail" transform="translate(288 216) scale(1.5)" fill="#555">
      <path d="M13.5,5V16L12,22L10.5,16V5H13.5M17,2H7V4H17V2Z" />
    </g>
    <g id="mdi-nail" transform="translate(324 216) scale(1.5)" fill="#fff">
      <path d="M13.5,5V16L12,22L10.5,16V5H13.5M17,2H7V4H17V2Z" />
    </g>
    <g id="mdi-nas" transform="translate(360 216) scale(1.5)" fill="#555">
      <path d="M4,5C2.89,5 2,5.89 2,7V17C2,18.11 2.89,19 4,19H20C21.11,19 22,18.11 22,17V7C22,5.89 21.11,5 20,5H4M4.5,7A1,1 0 0,1 5.5,8A1,1 0 0,1 4.5,9A1,1 0 0,1 3.5,8A1,1 0 0,1 4.5,7M7,7H20V17H7V7M8,8V16H11V8H8M12,8V16H15V8H12M16,8V16H19V8H16M9,9H10V10H9V9M13,9H14V10H13V9M17,9H18V10H17V9Z" />
    </g>
    <g id="mdi-nas" transform="translate(396 216) scale(1.5)" fill="#fff">
      <path d="M4,5C2.89,5 2,5.89 2,7V17C2,18.11 2.89,19 4,19H20C21.11,19 22,18.11 22,17V7C22,5.89 21.11,5 20,5H4M4.5,7A1,1 0 0,1 5.5,8A1,1 0 0,1 4.5,9A1,1 0 0,1 3.5,8A1,1 0 0,1 4.5,7M7,7H20V17H7V7M8,8V16H11V8H8M12,8V16H15V8H12M16,8V16H19V8H16M9,9H10V10H9V9M13,9H14V10H13V9M17,9H18V10H17V9Z" />
    </g>
    <g id="mdi-nativescript" transform="translate(432 216) scale(1.5)" fill="#555">
      <path d="M7.5,3H16.5C19,3 21,5 21,7.5V16.5C21,19 19,21 16.5,21H7.5C5,21 3,19 3,16.5V7.5C3,5 5,3 7.5,3M6,13.5V16.5A1.5,1.5 0 0,0 7.5,18H9V10.5L15,18H16.5A1.5,1.5 0 0,0 18,16.5V13.5A1.5,1.5 0 0,1 19.5,12A1.5,1.5 0 0,1 18,10.5V7.5A1.5,1.5 0 0,0 16.5,6H15V13.5L9,6H7.5A1.5,1.5 0 0,0 6,7.5V10.5A1.5,1.5 0 0,1 4.5,12A1.5,1.5 0 0,1 6,13.5Z" />
    </g>
    <g id="mdi-nativescript" transform="translate(468 216) scale(1.5)" fill="#fff">
      <path d="M7.5,3H16.5C19,3 21,5 21,7.5V16.5C21,19 19,21 16.5,21H7.5C5,21 3,19 3,16.5V7.5C3,5 5,3 7.5,3M6,13.5V16.5A1.5,1.5 0 0,0 7.5,18H9V10.5L15,18H16.5A1.5,1.5 0 0,0 18,16.5V13.5A1.5,1.5 0 0,1 19.5,12A1.5,1.5 0 0,1 18,10.5V7.5A1.5,1.5 0 0,0 16.5,6H15V13.5L9,6H7.5A1.5,1.5 0 0,0 6,7.5V10.5A1.5,1.5 0 0,1 4.5,12A1.5,1.5 0 0,1 6,13.5Z" />
    </g>
    <g id="mdi-nature" transform="translate(504 216) scale(1.5)" fill="#555">
      <path d="M13,16.12C16.47,15.71 19.17,12.76 19.17,9.17C19.17,5.3 16.04,2.17 12.17,2.17A7,7 0 0,0 5.17,9.17C5.17,12.64 7.69,15.5 11,16.06V20H5V22H19V20H13V16.12Z" />
    </g>
    <g id="mdi-nature" transform="translate(540 216) scale(1.5)" fill="#fff">
      <path d="M13,16.12C16.47,15.71 19.17,12.76 19.17,9.17C19.17,5.3 16.04,2.17 12.17,2.17A7,7 0 0,0 5.17,9.17C5.17,12.64 7.69,15.5 11,16.06V20H5V22H19V20H13V16.12Z" />
    </g>
    <g id="mdi-nature-people" transform="translate(576 216) scale(1.5)" fill="#555">
      <path d="M4.5,11A1.5,1.5 0 0,0 6,9.5A1.5,1.5 0 0,0 4.5,8A1.5,1.5 0 0,0 3,9.5A1.5,1.5 0 0,0 4.5,11M22.17,9.17C22.17,5.3 19.04,2.17 15.17,2.17A7,7 0 0,0 8.17,9.17C8.17,12.64 10.69,15.5 14,16.06V20H6V17H7V13A1,1 0 0,0 6,12H3A1,1 0 0,0 2,13V17H3V22H19V20H16V16.12C19.47,15.71 22.17,12.76 22.17,9.17Z" />
    </g>
    <g id="mdi-nature-people" transform="translate(612 216) scale(1.5)" fill="#fff">
      <path d="M4.5,11A1.5,1.5 0 0,0 6,9.5A1.5,1.5 0 0,0 4.5,8A1.5,1.5 0 0,0 3,9.5A1.5,1.5 0 0,0 4.5,11M22.17,9.17C22.17,5.3 19.04,2.17 15.17,2.17A7,7 0 0,0 8.17,9.17C8.17,12.64 10.69,15.5 14,16.06V20H6V17H7V13A1,1 0 0,0 6,12H3A1,1 0 0,0 2,13V17H3V22H19V20H16V16.12C19.47,15.71 22.17,12.76 22.17,9.17Z" />
    </g>
    <g id="mdi-navigation" transform="translate(648 216) scale(1.5)" fill="#555">
      <path d="M12,2L4.5,20.29L5.21,21L12,18L18.79,21L19.5,20.29L12,2Z" />
    </g>
    <g id="mdi-navigation" transform="translate(684 216) scale(1.5)" fill="#fff">
      <path d="M12,2L4.5,20.29L5.21,21L12,18L18.79,21L19.5,20.29L12,2Z" />
    </g>
    <g id="mdi-navigation-outline" transform="translate(0 252) scale(1.5)" fill="#555">
      <path d="M12 7.3L16.3 17.7L12.8 16.2L12 15.8L11.2 16.2L7.7 17.7L12 7.3M12 2L4.5 20.3L5.2 21L12 18L18.8 21L19.5 20.3L12 2Z" />
    </g>
    <g id="mdi-navigation-outline" transform="translate(36 252) scale(1.5)" fill="#fff">
      <path d="M12 7.3L16.3 17.7L12.8 16.2L12 15.8L11.2 16.2L7.7 17.7L12 7.3M12 2L4.5 20.3L5.2 21L12 18L18.8 21L19.5 20.3L12 2Z" />
    </g>
    <g id="mdi-near-me" transform="translate(72 252) scale(1.5)" fill="#555">
      <path d="M21,3L3,10.53V11.5L9.84,14.16L12.5,21H13.46L21,3Z" />
    </g>
    <g id="mdi-near-me" transform="translate(108 252) scale(1.5)" fill="#fff">
      <path d="M21,3L3,10.53V11.5L9.84,14.16L12.5,21H13.46L21,3Z" />
    </g>
    <g id="mdi-necklace" transform="translate(144 252) scale(1.5)" fill="#555">
      <path d="M21.5 5H19.5C19.5 9.14 16.14 12.5 12 12.5C7.86 12.5 4.5 9.14 4.5 5H2.5C2.55 10.11 6.59 14.29 11.7 14.5C11.1 15.4 10 17.2 10 18C10 20.67 14 20.67 14 18C14 17.2 12.9 15.4 12.3 14.5C17.41 14.29 21.45 10.11 21.5 5Z" />
    </g>
    <g id="mdi-necklace" transform="translate(180 252) scale(1.5)" fill="#fff">
      <path d="M21.5 5H19.5C19.5 9.14 16.14 12.5 12 12.5C7.86 12.5 4.5 9.14 4.5 5H2.5C2.55 10.11 6.59 14.29 11.7 14.5C11.1 15.4 10 17.2 10 18C10 20.67 14 20.67 14 18C14 17.2 12.9 15.4 12.3 14.5C17.41 14.29 21.45 10.11 21.5 5Z" />
    </g>
    <g id="mdi-needle" transform="translate(216 252) scale(1.5)" fill="#555">
      <path d="M11.15,15.18L9.73,13.77L11.15,12.35L12.56,13.77L13.97,12.35L12.56,10.94L13.97,9.53L15.39,10.94L16.8,9.53L13.97,6.7L6.9,13.77L9.73,16.6L11.15,15.18M3.08,19L6.2,15.89L4.08,13.77L13.97,3.87L16.1,6L17.5,4.58L16.1,3.16L17.5,1.75L21.75,6L20.34,7.4L18.92,6L17.5,7.4L19.63,9.53L9.73,19.42L7.61,17.3L3.08,21.84V19Z" />
    </g>
    <g id="mdi-needle" transform="translate(252 252) scale(1.5)" fill="#fff">
      <path d="M11.15,15.18L9.73,13.77L11.15,12.35L12.56,13.77L13.97,12.35L12.56,10.94L13.97,9.53L15.39,10.94L16.8,9.53L13.97,6.7L6.9,13.77L9.73,16.6L11.15,15.18M3.08,19L6.2,15.89L4.08,13.77L13.97,3.87L16.1,6L17.5,4.58L16.1,3.16L17.5,1.75L21.75,6L20.34,7.4L18.92,6L17.5,7.4L19.63,9.53L9.73,19.42L7.61,17.3L3.08,21.84V19Z" />
    </g>
    <g id="mdi-netflix" transform="translate(288 252) scale(1.5)" fill="#555">
      <path d="M6.5,2H10.5L13.44,10.83L13.5,2H17.5V22C16.25,21.78 14.87,21.64 13.41,21.58L10.5,13L10.43,21.59C9.03,21.65 7.7,21.79 6.5,22V2Z" />
    </g>
    <g id="mdi-netflix" transform="translate(324 252) scale(1.5)" fill="#fff">
      <path d="M6.5,2H10.5L13.44,10.83L13.5,2H17.5V22C16.25,21.78 14.87,21.64 13.41,21.58L10.5,13L10.43,21.59C9.03,21.65 7.7,21.79 6.5,22V2Z" />
    </g>
    <g id="mdi-network" transform="translate(360 252) scale(1.5)" fill="#555">
      <path d="M17,3A2,2 0 0,1 19,5V15A2,2 0 0,1 17,17H13V19H14A1,1 0 0,1 15,20H22V22H15A1,1 0 0,1 14,23H10A1,1 0 0,1 9,22H2V20H9A1,1 0 0,1 10,19H11V17H7C5.89,17 5,16.1 5,15V5A2,2 0 0,1 7,3H17Z" />
    </g>
    <g id="mdi-network" transform="translate(396 252) scale(1.5)" fill="#fff">
      <path d="M17,3A2,2 0 0,1 19,5V15A2,2 0 0,1 17,17H13V19H14A1,1 0 0,1 15,20H22V22H15A1,1 0 0,1 14,23H10A1,1 0 0,1 9,22H2V20H9A1,1 0 0,1 10,19H11V17H7C5.89,17 5,16.1 5,15V5A2,2 0 0,1 7,3H17Z" />
    </g>
    <g id="mdi-network-off" transform="translate(432 252) scale(1.5)" fill="#555">
      <path d="M1,5.27L5,9.27V15A2,2 0 0,0 7,17H11V19H10A1,1 0 0,0 9,20H2V22H9A1,1 0 0,0 10,23H14A1,1 0 0,0 15,22H17.73L19.73,24L21,22.72L2.28,4L1,5.27M15,20A1,1 0 0,0 14,19H13V17.27L15.73,20H15M17.69,16.87L5.13,4.31C5.41,3.55 6.14,3 7,3H17A2,2 0 0,1 19,5V15C19,15.86 18.45,16.59 17.69,16.87M22,20V21.18L20.82,20H22Z" />
    </g>
    <g id="mdi-network-off" transform="translate(468 252) scale(1.5)" fill="#fff">
      <path d="M1,5.27L5,9.27V15A2,2 0 0,0 7,17H11V19H10A1,1 0 0,0 9,20H2V22H9A1,1 0 0,0 10,23H14A1,1 0 0,0 15,22H17.73L19.73,24L21,22.72L2.28,4L1,5.27M15,20A1,1 0 0,0 14,19H13V17.27L15.73,20H15M17.69,16.87L5.13,4.31C5.41,3.55 6.14,3 7,3H17A2,2 0 0,1 19,5V15C19,15.86 18.45,16.59 17.69,16.87M22,20V21.18L20.82,20H22Z" />
    </g>
    <g id="mdi-network-off-outline" transform="translate(504 252) scale(1.5)" fill="#555">
      <path d="M1.04,5.27L5,9.23V15A2,2 0 0,0 7,17H11V19H10A1,1 0 0,0 9,20H2V22H9A1,1 0 0,0 10,23H14A1,1 0 0,0 15,22H17.77L19.77,24L21.04,22.72L2.32,4L1.04,5.27M7,11.23L10.77,15H7V11.23M15,20A1,1 0 0,0 14,19H13V17.23L15.77,20H15M22,20V21.14L20.86,20H22M7,6.14L5.14,4.28C5.43,3.53 6.16,3 7,3H17A2,2 0 0,1 19,5V15C19,15.85 18.47,16.57 17.72,16.86L15.86,15H17V5H7V6.14Z" />
    </g>
    <g id="mdi-network-off-outline" transform="translate(540 252) scale(1.5)" fill="#fff">
      <path d="M1.04,5.27L5,9.23V15A2,2 0 0,0 7,17H11V19H10A1,1 0 0,0 9,20H2V22H9A1,1 0 0,0 10,23H14A1,1 0 0,0 15,22H17.77L19.77,24L21.04,22.72L2.32,4L1.04,5.27M7,11.23L10.77,15H7V11.23M15,20A1,1 0 0,0 14,19H13V17.23L15.77,20H15M22,20V21.14L20.86,20H22M7,6.14L5.14,4.28C5.43,3.53 6.16,3 7,3H17A2,2 0 0,1 19,5V15C19,15.85 18.47,16.57 17.72,16.86L15.86,15H17V5H7V6.14Z" />
    </g>
    <g id="mdi-network-outline" transform="translate(576 252) scale(1.5)" fill="#555">
      <path d="M15,20A1,1 0 0,0 14,19H13V17H17A2,2 0 0,0 19,15V5A2,2 0 0,0 17,3H7A2,2 0 0,0 5,5V15A2,2 0 0,0 7,17H11V19H10A1,1 0 0,0 9,20H2V22H9A1,1 0 0,0 10,23H14A1,1 0 0,0 15,22H22V20H15M7,15V5H17V15H7Z" />
    </g>
    <g id="mdi-network-outline" transform="translate(612 252) scale(1.5)" fill="#fff">
      <path d="M15,20A1,1 0 0,0 14,19H13V17H17A2,2 0 0,0 19,15V5A2,2 0 0,0 17,3H7A2,2 0 0,0 5,5V15A2,2 0 0,0 7,17H11V19H10A1,1 0 0,0 9,20H2V22H9A1,1 0 0,0 10,23H14A1,1 0 0,0 15,22H22V20H15M7,15V5H17V15H7Z" />
    </g>
    <g id="mdi-network-strength-1" transform="translate(648 252) scale(1.5)" fill="#555">
      <path d="M1,21H21V1M19,5.83V19H11V13.83" />
    </g>
    <g id="mdi-network-strength-1" transform="translate(684 252) scale(1.5)" fill="#fff">
      <path d="M1,21H21V1M19,5.83V19H11V13.83" />
    </g>
    <g id="mdi-network-strength-1-alert" transform="translate(0 288) scale(1.5)" fill="#555">
      <path d="M21 1L1 21H17V19H11V13.8L19 5.8V9H21M19 11V17H21V11M19 19V21H21V19" />
    </g>
    <g id="mdi-network-strength-1-alert" transform="translate(36 288) scale(1.5)" fill="#fff">
      <path d="M21 1L1 21H17V19H11V13.8L19 5.8V9H21M19 11V17H21V11M19 19V21H21V19" />
    </g>
    <g id="mdi-network-strength-2" transform="translate(72 288) scale(1.5)" fill="#555">
      <path d="M1,21H21V1M19,5.83V19H13V11.83" />
    </g>
    <g id="mdi-network-strength-2" transform="translate(108 288) scale(1.5)" fill="#fff">
      <path d="M1,21H21V1M19,5.83V19H13V11.83" />
    </g>
    <g id="mdi-network-strength-2-alert" transform="translate(144 288) scale(1.5)" fill="#555">
      <path d="M21 1L1 21H17V19H13V11.8L19 5.8V9H21M19 11V17H21V11M19 19V21H21V19" />
    </g>
    <g id="mdi-network-strength-2-alert" transform="translate(180 288) scale(1.5)" fill="#fff">
      <path d="M21 1L1 21H17V19H13V11.8L19 5.8V9H21M19 11V17H21V11M19 19V21H21V19" />
    </g>
    <g id="mdi-network-strength-3" transform="translate(216 288) scale(1.5)" fill="#555">
      <path d="M1,21H21V1M19,5.83V19H16V8.83" />
    </g>
    <g id="mdi-network-strength-3" transform="translate(252 288) scale(1.5)" fill="#fff">
      <path d="M1,21H21V1M19,5.83V19H16V8.83" />
    </g>
    <g id="mdi-network-strength-3-alert" transform="translate(288 288) scale(1.5)" fill="#555">
      <path d="M21 1L1 21H17V19H16V8.8L19 5.8V9H21M19 11V17H21V11M19 19V21H21V19" />
    </g>
    <g id="mdi-network-strength-3-alert" transform="translate(324 288) scale(1.5)" fill="#fff">
      <path d="M21 1L1 21H17V19H16V8.8L19 5.8V9H21M19 11V17H21V11M19 19V21H21V19" />
    </g>
    <g id="mdi-network-strength-4" transform="translate(360 288) scale(1.5)" fill="#555">
      <path d="M1,21H21V1" />
    </g>
    <g id="mdi-network-strength-4" transform="translate(396 288) scale(1.5)" fill="#fff">
      <path d="M1,21H21V1" />
    </g>
    <g id="mdi-network-strength-4-alert" transform="translate(432 288) scale(1.5)" fill="#555">
      <path d="M19 17H21V11H19M19 21H21V19H19M1 21H17V9H21V1" />
    </g>
    <g id="mdi-network-strength-4-alert" transform="translate(468 288) scale(1.5)" fill="#fff">
      <path d="M19 17H21V11H19M19 21H21V19H19M1 21H17V9H21V1" />
    </g>
    <g id="mdi-network-strength-off" transform="translate(504 288) scale(1.5)" fill="#555">
      <path d="M21,1L12.4,9.6L21,18.19M4.77,4.5L3.5,5.77L9.86,12.13L1,21H18.73L20.73,23L22,21.73" />
    </g>
    <g id="mdi-network-strength-off" transform="translate(540 288) scale(1.5)" fill="#fff">
      <path d="M21,1L12.4,9.6L21,18.19M4.77,4.5L3.5,5.77L9.86,12.13L1,21H18.73L20.73,23L22,21.73" />
    </g>
    <g id="mdi-network-strength-off-outline" transform="translate(576 288) scale(1.5)" fill="#555">
      <path d="M21,1L12.4,9.6L13.85,11.05L19,5.83V16.19L21,18.19M4.77,4.5L3.5,5.77L9.86,12.13L1,21H18.73L20.73,23L22,21.73M11.33,13.6L16.73,19H6" />
    </g>
    <g id="mdi-network-strength-off-outline" transform="translate(612 288) scale(1.5)" fill="#fff">
      <path d="M21,1L12.4,9.6L13.85,11.05L19,5.83V16.19L21,18.19M4.77,4.5L3.5,5.77L9.86,12.13L1,21H18.73L20.73,23L22,21.73M11.33,13.6L16.73,19H6" />
    </g>
    <g id="mdi-network-strength-outline" transform="translate(648 288) scale(1.5)" fill="#555">
      <path d="M1,21H21V1M19,5.83V19H6" />
    </g>
    <g id="mdi-network-strength-outline" transform="translate(684 288) scale(1.5)" fill="#fff">
      <path d="M1,21H21V1M19,5.83V19H6" />
    </g>
    <g id="mdi-new-box" transform="translate(0 324) scale(1.5)" fill="#555">
      <path d="M20,4C21.11,4 22,4.89 22,6V18C22,19.11 21.11,20 20,20H4C2.89,20 2,19.11 2,18V6C2,4.89 2.89,4 4,4H20M8.5,15V9H7.25V12.5L4.75,9H3.5V15H4.75V11.5L7.3,15H8.5M13.5,10.26V9H9.5V15H13.5V13.75H11V12.64H13.5V11.38H11V10.26H13.5M20.5,14V9H19.25V13.5H18.13V10H16.88V13.5H15.75V9H14.5V14A1,1 0 0,0 15.5,15H19.5A1,1 0 0,0 20.5,14Z" />
    </g>
    <g id="mdi-new-box" transform="translate(36 324) scale(1.5)" fill="#fff">
      <path d="M20,4C21.11,4 22,4.89 22,6V18C22,19.11 21.11,20 20,20H4C2.89,20 2,19.11 2,18V6C2,4.89 2.89,4 4,4H20M8.5,15V9H7.25V12.5L4.75,9H3.5V15H4.75V11.5L7.3,15H8.5M13.5,10.26V9H9.5V15H13.5V13.75H11V12.64H13.5V11.38H11V10.26H13.5M20.5,14V9H19.25V13.5H18.13V10H16.88V13.5H15.75V9H14.5V14A1,1 0 0,0 15.5,15H19.5A1,1 0 0,0 20.5,14Z" />
    </g>
    <g id="mdi-newspaper" transform="translate(72 324) scale(1.5)" fill="#555">
      <path d="M20,11H4V8H20M20,15H13V13H20M20,19H13V17H20M11,19H4V13H11M20.33,4.67L18.67,3L17,4.67L15.33,3L13.67,4.67L12,3L10.33,4.67L8.67,3L7,4.67L5.33,3L3.67,4.67L2,3V19A2,2 0 0,0 4,21H20A2,2 0 0,0 22,19V3L20.33,4.67Z" />
    </g>
    <g id="mdi-newspaper" transform="translate(108 324) scale(1.5)" fill="#fff">
      <path d="M20,11H4V8H20M20,15H13V13H20M20,19H13V17H20M11,19H4V13H11M20.33,4.67L18.67,3L17,4.67L15.33,3L13.67,4.67L12,3L10.33,4.67L8.67,3L7,4.67L5.33,3L3.67,4.67L2,3V19A2,2 0 0,0 4,21H20A2,2 0 0,0 22,19V3L20.33,4.67Z" />
    </g>
    <g id="mdi-newspaper-minus" transform="translate(144 324) scale(1.5)" fill="#555">
      <path d="M22,17V19H14V17H22M20,11V8H4V11H20M13,13V14.68C12.37,15.63 12,16.77 12,18C12,19.09 12.29,20.12 12.8,21H4A2,2 0 0,1 2,19V3L3.67,4.67L5.33,3L7,4.67L8.67,3L10.33,4.67L12,3L13.67,4.67L15.33,3L17,4.67L18.67,3L20.33,4.67L22,3V13.5C20.93,12.58 19.53,12 18,12C16.77,12 15.63,12.37 14.68,13H13M11,19V13H4V19H11Z" />
    </g>
    <g id="mdi-newspaper-minus" transform="translate(180 324) scale(1.5)" fill="#fff">
      <path d="M22,17V19H14V17H22M20,11V8H4V11H20M13,13V14.68C12.37,15.63 12,16.77 12,18C12,19.09 12.29,20.12 12.8,21H4A2,2 0 0,1 2,19V3L3.67,4.67L5.33,3L7,4.67L8.67,3L10.33,4.67L12,3L13.67,4.67L15.33,3L17,4.67L18.67,3L20.33,4.67L22,3V13.5C20.93,12.58 19.53,12 18,12C16.77,12 15.63,12.37 14.68,13H13M11,19V13H4V19H11Z" />
    </g>
    <g id="mdi-newspaper-plus" transform="translate(216 324) scale(1.5)" fill="#555">
      <path d="M17,14H19V17H22V19H19V22H17V19H14V17H17V14M20,11V8H4V11H20M13,13V14.68C12.37,15.63 12,16.77 12,18C12,19.09 12.29,20.12 12.8,21H4A2,2 0 0,1 2,19V3L3.67,4.67L5.33,3L7,4.67L8.67,3L10.33,4.67L12,3L13.67,4.67L15.33,3L17,4.67L18.67,3L20.33,4.67L22,3V13.5C20.93,12.58 19.53,12 18,12C16.77,12 15.63,12.37 14.68,13H13M11,19V13H4V19H11Z" />
    </g>
    <g id="mdi-newspaper-plus" transform="translate(252 324) scale(1.5)" fill="#fff">
      <path d="M17,14H19V17H22V19H19V22H17V19H14V17H17V14M20,11V8H4V11H20M13,13V14.68C12.37,15.63 12,16.77 12,18C12,19.09 12.29,20.12 12.8,21H4A2,2 0 0,1 2,19V3L3.67,4.67L5.33,3L7,4.67L8.67,3L10.33,4.67L12,3L13.67,4.67L15.33,3L17,4.67L18.67,3L20.33,4.67L22,3V13.5C20.93,12.58 19.53,12 18,12C16.77,12 15.63,12.37 14.68,13H13M11,19V13H4V19H11Z" />
    </g>
    <g id="mdi-newspaper-variant" transform="translate(288 324) scale(1.5)" fill="#555">
      <path d="M20 3H4C2.89 3 2 3.89 2 5V19C2 20.11 2.89 21 4 21H20C21.11 21 22 20.11 22 19V5C22 3.89 21.11 3 20 3M5 7H10V13H5V7M19 17H5V15H19V17M19 13H12V11H19V13M19 9H12V7H19V9Z" />
    </g>
    <g id="mdi-newspaper-variant" transform="translate(324 324) scale(1.5)" fill="#fff">
      <path d="M20 3H4C2.89 3 2 3.89 2 5V19C2 20.11 2.89 21 4 21H20C21.11 21 22 20.11 22 19V5C22 3.89 21.11 3 20 3M5 7H10V13H5V7M19 17H5V15H19V17M19 13H12V11H19V13M19 9H12V7H19V9Z" />
    </g>
    <g id="mdi-newspaper-variant-multiple" transform="translate(360 324) scale(1.5)" fill="#555">
      <path d="M4 7V19H19V21H4C2 21 2 19 2 19V7H4M21.3 3H7.7C6.76 3 6 3.7 6 4.55V15.45C6 16.31 6.76 17 7.7 17H21.3C22.24 17 23 16.31 23 15.45V4.55C23 3.7 22.24 3 21.3 3M8 5H13V11H8V5M21 15H8V13H21V15M21 11H15V9H21V11M21 7H15V5H21V7Z" />
    </g>
    <g id="mdi-newspaper-variant-multiple" transform="translate(396 324) scale(1.5)" fill="#fff">
      <path d="M4 7V19H19V21H4C2 21 2 19 2 19V7H4M21.3 3H7.7C6.76 3 6 3.7 6 4.55V15.45C6 16.31 6.76 17 7.7 17H21.3C22.24 17 23 16.31 23 15.45V4.55C23 3.7 22.24 3 21.3 3M8 5H13V11H8V5M21 15H8V13H21V15M21 11H15V9H21V11M21 7H15V5H21V7Z" />
    </g>
    <g id="mdi-newspaper-variant-multiple-outline" transform="translate(432 324) scale(1.5)" fill="#555">
      <path d="M4 7V19H19V21H4C2 21 2 19 2 19V7H4M21 5V15H8V5H21M21.3 3H7.7C6.76 3 6 3.7 6 4.55V15.45C6 16.31 6.76 17 7.7 17H21.3C22.24 17 23 16.31 23 15.45V4.55C23 3.7 22.24 3 21.3 3M9 6H12V11H9V6M20 14H9V12H20V14M20 8H14V6H20V8M20 11H14V9H20V11Z" />
    </g>
    <g id="mdi-newspaper-variant-multiple-outline" transform="translate(468 324) scale(1.5)" fill="#fff">
      <path d="M4 7V19H19V21H4C2 21 2 19 2 19V7H4M21 5V15H8V5H21M21.3 3H7.7C6.76 3 6 3.7 6 4.55V15.45C6 16.31 6.76 17 7.7 17H21.3C22.24 17 23 16.31 23 15.45V4.55C23 3.7 22.24 3 21.3 3M9 6H12V11H9V6M20 14H9V12H20V14M20 8H14V6H20V8M20 11H14V9H20V11Z" />
    </g>
    <g id="mdi-newspaper-variant-outline" transform="translate(504 324) scale(1.5)" fill="#555">
      <path d="M20 5L20 19L4 19L4 5H20M20 3H4C2.89 3 2 3.89 2 5V19C2 20.11 2.89 21 4 21H20C21.11 21 22 20.11 22 19V5C22 3.89 21.11 3 20 3M18 15H6V17H18V15M10 7H6V13H10V7M12 9H18V7H12V9M18 11H12V13H18V11Z" />
    </g>
    <g id="mdi-newspaper-variant-outline" transform="translate(540 324) scale(1.5)" fill="#fff">
      <path d="M20 5L20 19L4 19L4 5H20M20 3H4C2.89 3 2 3.89 2 5V19C2 20.11 2.89 21 4 21H20C21.11 21 22 20.11 22 19V5C22 3.89 21.11 3 20 3M18 15H6V17H18V15M10 7H6V13H10V7M12 9H18V7H12V9M18 11H12V13H18V11Z" />
    </g>
    <g id="mdi-nfc" transform="translate(576 324) scale(1.5)" fill="#555">
      <path d="M7.24 2C5.6 2 3.96 2 3.55 2.04C2.67 2.09 2.08 2.73 2.04 3.56C2 4.37 2 19.59 2.04 20.41C2.09 21.23 2.71 21.86 3.55 21.91C4.46 21.96 7.44 21.97 8.29 21.97C6.76 20.91 6.55 18.92 6.41 15.23C6.33 13.04 6.4 5.36 6.41 5.04L6.45 2.94L14.5 11V13.5L8.09 7.11C8.08 8.38 8.06 10.03 8.06 11.54C8.06 13 8.08 14.34 8.12 15.05C8.36 19.07 8.74 20.96 10.83 21.7C11.5 21.93 12.07 22 13.07 22C13.89 22 19.63 22 20.45 21.96C21.33 21.91 21.93 21.27 21.97 20.44C22 19.63 22 4.45 21.97 3.62C21.91 2.8 21.29 2.18 20.45 2.13C19.54 2.08 16.57 2.03 15.71 2.03C17.24 3.09 17.44 5.08 17.59 8.78C17.67 10.97 17.6 18.64 17.59 18.97L17.55 21.06L9.53 13V10.5L15.91 16.89C15.92 15.62 15.94 13.97 15.94 12.46C15.94 11 15.92 9.66 15.88 8.96C15.64 4.93 15.26 3.04 13.17 2.3C12.53 2.07 11.93 2 10.93 2H7.24Z" />
    </g>
    <g id="mdi-nfc" transform="translate(612 324) scale(1.5)" fill="#fff">
      <path d="M7.24 2C5.6 2 3.96 2 3.55 2.04C2.67 2.09 2.08 2.73 2.04 3.56C2 4.37 2 19.59 2.04 20.41C2.09 21.23 2.71 21.86 3.55 21.91C4.46 21.96 7.44 21.97 8.29 21.97C6.76 20.91 6.55 18.92 6.41 15.23C6.33 13.04 6.4 5.36 6.41 5.04L6.45 2.94L14.5 11V13.5L8.09 7.11C8.08 8.38 8.06 10.03 8.06 11.54C8.06 13 8.08 14.34 8.12 15.05C8.36 19.07 8.74 20.96 10.83 21.7C11.5 21.93 12.07 22 13.07 22C13.89 22 19.63 22 20.45 21.96C21.33 21.91 21.93 21.27 21.97 20.44C22 19.63 22 4.45 21.97 3.62C21.91 2.8 21.29 2.18 20.45 2.13C19.54 2.08 16.57 2.03 15.71 2.03C17.24 3.09 17.44 5.08 17.59 8.78C17.67 10.97 17.6 18.64 17.59 18.97L17.55 21.06L9.53 13V10.5L15.91 16.89C15.92 15.62 15.94 13.97 15.94 12.46C15.94 11 15.92 9.66 15.88 8.96C15.64 4.93 15.26 3.04 13.17 2.3C12.53 2.07 11.93 2 10.93 2H7.24Z" />
    </g>
    <g id="mdi-nfc-search-variant" transform="translate(648 324) scale(1.5)" fill="#555">
      <path d="M16.5,12C19,12 21,14 21,16.5C21,17.38 20.76,18.21 20.32,18.9L23.4,22L22,23.39L18.89,20.32C18.2,20.75 17.38,21 16.5,21C14,21 12,19 12,16.5C12,14 14,12 16.5,12M16.5,14A2.5,2.5 0 0,0 14,16.5A2.5,2.5 0 0,0 16.5,19C17.89,19 19,17.88 19,16.5A2.5,2.5 0 0,0 16.5,14M18,6V10.18C17.33,10 16.66,9.97 16,10V8H13V10.28L13.53,10.72C12.34,11.33 11.35,12.3 10.72,13.53C10.28,13.17 10,12.62 10,12C10,11.26 10.41,10.62 11,10.28V8A2,2 0 0,1 13,6H18M6,18V6H8L10,6V8H8V16H10C9.96,16.68 10,17.35 10.17,18H6M20,4H4V20H11C11.53,20.8 12.21,21.5 13.03,22H4C2.89,22 2,21.1 2,20V4A2,2 0 0,1 4,2H20A2,2 0 0,1 22,4V13.04C21.5,12.24 20.82,11.54 20,11V4Z" />
    </g>
    <g id="mdi-nfc-search-variant" transform="translate(684 324) scale(1.5)" fill="#fff">
      <path d="M16.5,12C19,12 21,14 21,16.5C21,17.38 20.76,18.21 20.32,18.9L23.4,22L22,23.39L18.89,20.32C18.2,20.75 17.38,21 16.5,21C14,21 12,19 12,16.5C12,14 14,12 16.5,12M16.5,14A2.5,2.5 0 0,0 14,16.5A2.5,2.5 0 0,0 16.5,19C17.89,19 19,17.88 19,16.5A2.5,2.5 0 0,0 16.5,14M18,6V10.18C17.33,10 16.66,9.97 16,10V8H13V10.28L13.53,10.72C12.34,11.33 11.35,12.3 10.72,13.53C10.28,13.17 10,12.62 10,12C10,11.26 10.41,10.62 11,10.28V8A2,2 0 0,1 13,6H18M6,18V6H8L10,6V8H8V16H10C9.96,16.68 10,17.35 10.17,18H6M20,4H4V20H11C11.53,20.8 12.21,21.5 13.03,22H4C2.89,22 2,21.1 2,20V4A2,2 0 0,1 4,2H20A2,2 0 0,1 22,4V13.04C21.5,12.24 20.82,11.54 20,11V4Z" />
    </g>
  </svg>