<?xml version="1.0" encoding="UTF-8"?>
<!DOCTYPE svg PUBLIC "-//W3C//DTD SVG 1.1//EN" "http://www.w3.org/Graphics/SVG/1.1/DTD/svg11.dtd"><svg
  xmlns="http://www.w3.org/2000/svg" xmlns:xlink="http://www.w3.org/1999/xlink" version="1.1"
  width="720" height="900" viewBox="0 0 720 900">
    <g id="mdi-alphabet-tengwar" transform="translate(0 0) scale(1.5)" fill="#555">
      <path d="M10 7L12.5 3H15L11 7H10M12.5 9C11.96 9 11.46 9.13 11 9.35V9H8V11H9V21H11V12.5C11 11.67 11.67 11 12.5 11C13.33 11 14 11.67 14 12.5V14.5C14 15.33 13.33 16 12.5 16H12V18H12.5C14.43 18 16 16.43 16 14.5V12.5C16 10.57 14.43 9 12.5 9Z" />
    </g>
    <g id="mdi-alphabet-tengwar" transform="translate(36 0) scale(1.5)" fill="#fff">
      <path d="M10 7L12.5 3H15L11 7H10M12.5 9C11.96 9 11.46 9.13 11 9.35V9H8V11H9V21H11V12.5C11 11.67 11.67 11 12.5 11C13.33 11 14 11.67 14 12.5V14.5C14 15.33 13.33 16 12.5 16H12V18H12.5C14.43 18 16 16.43 16 14.5V12.5C16 10.57 14.43 9 12.5 9Z" />
    </g>
    <g id="mdi-alphabetical" transform="translate(72 0) scale(1.5)" fill="#555">
      <path d="M6,11A2,2 0 0,1 8,13V17H4A2,2 0 0,1 2,15V13A2,2 0 0,1 4,11H6M4,13V15H6V13H4M20,13V15H22V17H20A2,2 0 0,1 18,15V13A2,2 0 0,1 20,11H22V13H20M12,7V11H14A2,2 0 0,1 16,13V15A2,2 0 0,1 14,17H12A2,2 0 0,1 10,15V7H12M12,15H14V13H12V15Z" />
    </g>
    <g id="mdi-alphabetical" transform="translate(108 0) scale(1.5)" fill="#fff">
      <path d="M6,11A2,2 0 0,1 8,13V17H4A2,2 0 0,1 2,15V13A2,2 0 0,1 4,11H6M4,13V15H6V13H4M20,13V15H22V17H20A2,2 0 0,1 18,15V13A2,2 0 0,1 20,11H22V13H20M12,7V11H14A2,2 0 0,1 16,13V15A2,2 0 0,1 14,17H12A2,2 0 0,1 10,15V7H12M12,15H14V13H12V15Z" />
    </g>
    <g id="mdi-alphabetical-off" transform="translate(144 0) scale(1.5)" fill="#555">
      <path d="M22.11 21.46L16 15.31L14 13.31L13.65 13L10 9.34L2.39 1.73L1.11 3L10 11.89V15A2 2 0 0 0 12 17H14A1.92 1.92 0 0 0 14.89 16.78L20.84 22.73M12 15V13.89L13.11 15M16 12.78L14.22 11A2 2 0 0 1 16 12.78M20.2 17L18 14.8V13A2 2 0 0 1 20 11H22V13H20V15H22V17M6 11H4A2 2 0 0 0 2 13V15A2 2 0 0 0 4 17H8V13A2 2 0 0 0 6 11M6 15H4V13H6M12 8.8L10.2 7H12Z" />
    </g>
    <g id="mdi-alphabetical-off" transform="translate(180 0) scale(1.5)" fill="#fff">
      <path d="M22.11 21.46L16 15.31L14 13.31L13.65 13L10 9.34L2.39 1.73L1.11 3L10 11.89V15A2 2 0 0 0 12 17H14A1.92 1.92 0 0 0 14.89 16.78L20.84 22.73M12 15V13.89L13.11 15M16 12.78L14.22 11A2 2 0 0 1 16 12.78M20.2 17L18 14.8V13A2 2 0 0 1 20 11H22V13H20V15H22V17M6 11H4A2 2 0 0 0 2 13V15A2 2 0 0 0 4 17H8V13A2 2 0 0 0 6 11M6 15H4V13H6M12 8.8L10.2 7H12Z" />
    </g>
    <g id="mdi-alphabetical-variant" transform="translate(216 0) scale(1.5)" fill="#555">
      <path d="M3 7A2 2 0 0 0 1 9V17H3V13H5V17H7V9A2 2 0 0 0 5 7H3M3 9H5V11H3M15 10.5V9A2 2 0 0 0 13 7H9V17H13A2 2 0 0 0 15 15V13.5A1.54 1.54 0 0 0 13.5 12A1.54 1.54 0 0 0 15 10.5M13 15H11V13H13V15M13 11H11V9H13M19 7A2 2 0 0 0 17 9V15A2 2 0 0 0 19 17H21A2 2 0 0 0 23 15V14H21V15H19V9H21V10H23V9A2 2 0 0 0 21 7Z" />
    </g>
    <g id="mdi-alphabetical-variant" transform="translate(252 0) scale(1.5)" fill="#fff">
      <path d="M3 7A2 2 0 0 0 1 9V17H3V13H5V17H7V9A2 2 0 0 0 5 7H3M3 9H5V11H3M15 10.5V9A2 2 0 0 0 13 7H9V17H13A2 2 0 0 0 15 15V13.5A1.54 1.54 0 0 0 13.5 12A1.54 1.54 0 0 0 15 10.5M13 15H11V13H13V15M13 11H11V9H13M19 7A2 2 0 0 0 17 9V15A2 2 0 0 0 19 17H21A2 2 0 0 0 23 15V14H21V15H19V9H21V10H23V9A2 2 0 0 0 21 7Z" />
    </g>
    <g id="mdi-alphabetical-variant-off" transform="translate(288 0) scale(1.5)" fill="#555">
      <path d="M12.2 9L10.2 7H13A2 2 0 0 1 15 9V10.5A1.47 1.47 0 0 1 14.64 11.44L13 9.8V9M23 10V9A2 2 0 0 0 21 7H19A2 2 0 0 0 17 9V13.8L20.2 17H21A2 2 0 0 0 23 15V14H21V15H19V9H21V10M15 14.35L22.11 21.46L20.84 22.73L14.46 16.35A2 2 0 0 1 13 17H9V10.89L7 8.89V17H5V13H3V17H1V9A2 2 0 0 1 3 7H5.12L1.12 3L2.39 1.73L9 8.34L11 10.34L11.66 11L15 14.34M5 9H3V11H5M13 14.89L11.11 13H11V15H13Z" />
    </g>
    <g id="mdi-alphabetical-variant-off" transform="translate(324 0) scale(1.5)" fill="#fff">
      <path d="M12.2 9L10.2 7H13A2 2 0 0 1 15 9V10.5A1.47 1.47 0 0 1 14.64 11.44L13 9.8V9M23 10V9A2 2 0 0 0 21 7H19A2 2 0 0 0 17 9V13.8L20.2 17H21A2 2 0 0 0 23 15V14H21V15H19V9H21V10M15 14.35L22.11 21.46L20.84 22.73L14.46 16.35A2 2 0 0 1 13 17H9V10.89L7 8.89V17H5V13H3V17H1V9A2 2 0 0 1 3 7H5.12L1.12 3L2.39 1.73L9 8.34L11 10.34L11.66 11L15 14.34M5 9H3V11H5M13 14.89L11.11 13H11V15H13Z" />
    </g>
    <g id="mdi-altimeter" transform="translate(360 0) scale(1.5)" fill="#555">
      <path d="M7,3V5H17V3H7M9,7V9H15V7H9M2,7.96V16.04L6.03,12L2,7.96M22.03,7.96L18,12L22.03,16.04V7.96M7,11V13H17V11H7M9,15V17H15V15H9M7,19V21H17V19H7Z" />
    </g>
    <g id="mdi-altimeter" transform="translate(396 0) scale(1.5)" fill="#fff">
      <path d="M7,3V5H17V3H7M9,7V9H15V7H9M2,7.96V16.04L6.03,12L2,7.96M22.03,7.96L18,12L22.03,16.04V7.96M7,11V13H17V11H7M9,15V17H15V15H9M7,19V21H17V19H7Z" />
    </g>
    <g id="mdi-amazon" transform="translate(432 0) scale(1.5)" fill="#555">
      <path d="M15.93,17.09C15.75,17.25 15.5,17.26 15.3,17.15C14.41,16.41 14.25,16.07 13.76,15.36C12.29,16.86 11.25,17.31 9.34,17.31C7.09,17.31 5.33,15.92 5.33,13.14C5.33,10.96 6.5,9.5 8.19,8.76C9.65,8.12 11.68,8 13.23,7.83V7.5C13.23,6.84 13.28,6.09 12.9,5.54C12.58,5.05 11.95,4.84 11.4,4.84C10.38,4.84 9.47,5.37 9.25,6.45C9.2,6.69 9,6.93 8.78,6.94L6.18,6.66C5.96,6.61 5.72,6.44 5.78,6.1C6.38,2.95 9.23,2 11.78,2C13.08,2 14.78,2.35 15.81,3.33C17.11,4.55 17,6.18 17,7.95V12.12C17,13.37 17.5,13.93 18,14.6C18.17,14.85 18.21,15.14 18,15.31L15.94,17.09H15.93M13.23,10.56V10C11.29,10 9.24,10.39 9.24,12.67C9.24,13.83 9.85,14.62 10.87,14.62C11.63,14.62 12.3,14.15 12.73,13.4C13.25,12.47 13.23,11.6 13.23,10.56M20.16,19.54C18,21.14 14.82,22 12.1,22C8.29,22 4.85,20.59 2.25,18.24C2.05,18.06 2.23,17.81 2.5,17.95C5.28,19.58 8.75,20.56 12.33,20.56C14.74,20.56 17.4,20.06 19.84,19.03C20.21,18.87 20.5,19.27 20.16,19.54M21.07,18.5C20.79,18.14 19.22,18.33 18.5,18.42C18.31,18.44 18.28,18.26 18.47,18.12C19.71,17.24 21.76,17.5 22,17.79C22.24,18.09 21.93,20.14 20.76,21.11C20.58,21.27 20.41,21.18 20.5,21C20.76,20.33 21.35,18.86 21.07,18.5Z" />
    </g>
    <g id="mdi-amazon" transform="translate(468 0) scale(1.5)" fill="#fff">
      <path d="M15.93,17.09C15.75,17.25 15.5,17.26 15.3,17.15C14.41,16.41 14.25,16.07 13.76,15.36C12.29,16.86 11.25,17.31 9.34,17.31C7.09,17.31 5.33,15.92 5.33,13.14C5.33,10.96 6.5,9.5 8.19,8.76C9.65,8.12 11.68,8 13.23,7.83V7.5C13.23,6.84 13.28,6.09 12.9,5.54C12.58,5.05 11.95,4.84 11.4,4.84C10.38,4.84 9.47,5.37 9.25,6.45C9.2,6.69 9,6.93 8.78,6.94L6.18,6.66C5.96,6.61 5.72,6.44 5.78,6.1C6.38,2.95 9.23,2 11.78,2C13.08,2 14.78,2.35 15.81,3.33C17.11,4.55 17,6.18 17,7.95V12.12C17,13.37 17.5,13.93 18,14.6C18.17,14.85 18.21,15.14 18,15.31L15.94,17.09H15.93M13.23,10.56V10C11.29,10 9.24,10.39 9.24,12.67C9.24,13.83 9.85,14.62 10.87,14.62C11.63,14.62 12.3,14.15 12.73,13.4C13.25,12.47 13.23,11.6 13.23,10.56M20.16,19.54C18,21.14 14.82,22 12.1,22C8.29,22 4.85,20.59 2.25,18.24C2.05,18.06 2.23,17.81 2.5,17.95C5.28,19.58 8.75,20.56 12.33,20.56C14.74,20.56 17.4,20.06 19.84,19.03C20.21,18.87 20.5,19.27 20.16,19.54M21.07,18.5C20.79,18.14 19.22,18.33 18.5,18.42C18.31,18.44 18.28,18.26 18.47,18.12C19.71,17.24 21.76,17.5 22,17.79C22.24,18.09 21.93,20.14 20.76,21.11C20.58,21.27 20.41,21.18 20.5,21C20.76,20.33 21.35,18.86 21.07,18.5Z" />
    </g>
    <g id="mdi-amazon-alexa" transform="translate(504 0) scale(1.5)" fill="#555">
      <path d="M12,2A10,10 0 0,0 2,12A10,10 0 0,0 12,22A10,10 0 0,0 22,12A10,10 0 0,0 12,2M10.43,21.87V19.91C10.43,19.22 10,18.57 9.35,18.3C6.91,17.26 5.17,14.83 5.17,12C5.17,8.26 8.22,5.17 12,5.17C15.78,5.17 18.83,8.26 18.83,12C18.83,16.43 15.39,20.61 10.43,21.87Z" />
    </g>
    <g id="mdi-amazon-alexa" transform="translate(540 0) scale(1.5)" fill="#fff">
      <path d="M12,2A10,10 0 0,0 2,12A10,10 0 0,0 12,22A10,10 0 0,0 22,12A10,10 0 0,0 12,2M10.43,21.87V19.91C10.43,19.22 10,18.57 9.35,18.3C6.91,17.26 5.17,14.83 5.17,12C5.17,8.26 8.22,5.17 12,5.17C15.78,5.17 18.83,8.26 18.83,12C18.83,16.43 15.39,20.61 10.43,21.87Z" />
    </g>
    <g id="mdi-ambulance" transform="translate(576 0) scale(1.5)" fill="#555">
      <path d="M18,18.5A1.5,1.5 0 0,0 19.5,17A1.5,1.5 0 0,0 18,15.5A1.5,1.5 0 0,0 16.5,17A1.5,1.5 0 0,0 18,18.5M19.5,9.5H17V12H21.46L19.5,9.5M6,18.5A1.5,1.5 0 0,0 7.5,17A1.5,1.5 0 0,0 6,15.5A1.5,1.5 0 0,0 4.5,17A1.5,1.5 0 0,0 6,18.5M20,8L23,12V17H21A3,3 0 0,1 18,20A3,3 0 0,1 15,17H9A3,3 0 0,1 6,20A3,3 0 0,1 3,17H1V6C1,4.89 1.89,4 3,4H17V8H20M8,6V9H5V11H8V14H10V11H13V9H10V6H8Z" />
    </g>
    <g id="mdi-ambulance" transform="translate(612 0) scale(1.5)" fill="#fff">
      <path d="M18,18.5A1.5,1.5 0 0,0 19.5,17A1.5,1.5 0 0,0 18,15.5A1.5,1.5 0 0,0 16.5,17A1.5,1.5 0 0,0 18,18.5M19.5,9.5H17V12H21.46L19.5,9.5M6,18.5A1.5,1.5 0 0,0 7.5,17A1.5,1.5 0 0,0 6,15.5A1.5,1.5 0 0,0 4.5,17A1.5,1.5 0 0,0 6,18.5M20,8L23,12V17H21A3,3 0 0,1 18,20A3,3 0 0,1 15,17H9A3,3 0 0,1 6,20A3,3 0 0,1 3,17H1V6C1,4.89 1.89,4 3,4H17V8H20M8,6V9H5V11H8V14H10V11H13V9H10V6H8Z" />
    </g>
    <g id="mdi-ammunition" transform="translate(648 0) scale(1.5)" fill="#555">
      <path d="M14,22H10V21H14V22M13,10V7H11V10L10,11.5V20H14V11.5L13,10M12,2C12,2 11,3 11,5V6H13V5C13,5 13,3 12,2M8,22H4V21H8V22M7,10V7H5V10L4,11.5V20H8V11.5L7,10M6,2C6,2 5,3 5,5V6H7V5C7,5 7,3 6,2M20,22H16V21H20V22M19,10V7H17V10L16,11.5V20H20V11.5L19,10M18,2C18,2 17,3 17,5V6H19V5C19,5 19,3 18,2Z" />
    </g>
    <g id="mdi-ammunition" transform="translate(684 0) scale(1.5)" fill="#fff">
      <path d="M14,22H10V21H14V22M13,10V7H11V10L10,11.5V20H14V11.5L13,10M12,2C12,2 11,3 11,5V6H13V5C13,5 13,3 12,2M8,22H4V21H8V22M7,10V7H5V10L4,11.5V20H8V11.5L7,10M6,2C6,2 5,3 5,5V6H7V5C7,5 7,3 6,2M20,22H16V21H20V22M19,10V7H17V10L16,11.5V20H20V11.5L19,10M18,2C18,2 17,3 17,5V6H19V5C19,5 19,3 18,2Z" />
    </g>
    <g id="mdi-ampersand" transform="translate(0 36) scale(1.5)" fill="#555">
      <path d="M4.4,16.5C4.4,15.6 4.7,14.7 5.2,13.9C5.7,13.1 6.7,12.2 8.2,11.2C7.3,10.1 6.8,9.3 6.5,8.7C6.1,8 6,7.4 6,6.7C6,5.2 6.4,4.1 7.3,3.2C8.2,2.3 9.4,2 10.9,2C12.2,2 13.3,2.4 14.2,3.2C15.1,4 15.5,5 15.5,6.1C15.5,6.9 15.3,7.6 14.9,8.3C14.5,9 13.8,9.7 12.8,10.4L11.4,11.5L15.7,16.7C16.3,15.5 16.6,14.3 16.6,12.8H18.8C18.8,15.1 18.3,17 17.2,18.5L20,21.8H17L15.7,20.3C15,20.9 14.3,21.3 13.4,21.6C12.5,21.9 11.6,22.1 10.7,22.1C8.8,22.1 7.3,21.6 6.1,20.6C5,19.5 4.4,18.2 4.4,16.5M10.7,20C12,20 13.2,19.5 14.3,18.5L9.6,12.8L9.2,13.1C7.7,14.2 7,15.3 7,16.5C7,17.6 7.3,18.4 8,19C8.7,19.6 9.5,20 10.7,20M8.5,6.7C8.5,7.6 9,8.6 10.1,9.9L11.7,8.8C12.3,8.4 12.7,8 12.9,7.6C13.1,7.2 13.2,6.7 13.2,6.2C13.2,5.6 13,5.1 12.5,4.7C12.1,4.3 11.5,4.1 10.8,4.1C10.1,4.1 9.5,4.3 9.1,4.8C8.7,5.3 8.5,5.9 8.5,6.7Z" />
    </g>
    <g id="mdi-ampersand" transform="translate(36 36) scale(1.5)" fill="#fff">
      <path d="M4.4,16.5C4.4,15.6 4.7,14.7 5.2,13.9C5.7,13.1 6.7,12.2 8.2,11.2C7.3,10.1 6.8,9.3 6.5,8.7C6.1,8 6,7.4 6,6.7C6,5.2 6.4,4.1 7.3,3.2C8.2,2.3 9.4,2 10.9,2C12.2,2 13.3,2.4 14.2,3.2C15.1,4 15.5,5 15.5,6.1C15.5,6.9 15.3,7.6 14.9,8.3C14.5,9 13.8,9.7 12.8,10.4L11.4,11.5L15.7,16.7C16.3,15.5 16.6,14.3 16.6,12.8H18.8C18.8,15.1 18.3,17 17.2,18.5L20,21.8H17L15.7,20.3C15,20.9 14.3,21.3 13.4,21.6C12.5,21.9 11.6,22.1 10.7,22.1C8.8,22.1 7.3,21.6 6.1,20.6C5,19.5 4.4,18.2 4.4,16.5M10.7,20C12,20 13.2,19.5 14.3,18.5L9.6,12.8L9.2,13.1C7.7,14.2 7,15.3 7,16.5C7,17.6 7.3,18.4 8,19C8.7,19.6 9.5,20 10.7,20M8.5,6.7C8.5,7.6 9,8.6 10.1,9.9L11.7,8.8C12.3,8.4 12.7,8 12.9,7.6C13.1,7.2 13.2,6.7 13.2,6.2C13.2,5.6 13,5.1 12.5,4.7C12.1,4.3 11.5,4.1 10.8,4.1C10.1,4.1 9.5,4.3 9.1,4.8C8.7,5.3 8.5,5.9 8.5,6.7Z" />
    </g>
    <g id="mdi-amplifier" transform="translate(72 36) scale(1.5)" fill="#555">
      <path d="M10,2H14A1,1 0 0,1 15,3H21V21H19A1,1 0 0,1 18,22A1,1 0 0,1 17,21H7A1,1 0 0,1 6,22A1,1 0 0,1 5,21H3V3H9A1,1 0 0,1 10,2M5,5V9H19V5H5M7,6A1,1 0 0,1 8,7A1,1 0 0,1 7,8A1,1 0 0,1 6,7A1,1 0 0,1 7,6M12,6H14V7H12V6M15,6H16V8H15V6M17,6H18V8H17V6M12,11A4,4 0 0,0 8,15A4,4 0 0,0 12,19A4,4 0 0,0 16,15A4,4 0 0,0 12,11M10,6A1,1 0 0,1 11,7A1,1 0 0,1 10,8A1,1 0 0,1 9,7A1,1 0 0,1 10,6Z" />
    </g>
    <g id="mdi-amplifier" transform="translate(108 36) scale(1.5)" fill="#fff">
      <path d="M10,2H14A1,1 0 0,1 15,3H21V21H19A1,1 0 0,1 18,22A1,1 0 0,1 17,21H7A1,1 0 0,1 6,22A1,1 0 0,1 5,21H3V3H9A1,1 0 0,1 10,2M5,5V9H19V5H5M7,6A1,1 0 0,1 8,7A1,1 0 0,1 7,8A1,1 0 0,1 6,7A1,1 0 0,1 7,6M12,6H14V7H12V6M15,6H16V8H15V6M17,6H18V8H17V6M12,11A4,4 0 0,0 8,15A4,4 0 0,0 12,19A4,4 0 0,0 16,15A4,4 0 0,0 12,11M10,6A1,1 0 0,1 11,7A1,1 0 0,1 10,8A1,1 0 0,1 9,7A1,1 0 0,1 10,6Z" />
    </g>
    <g id="mdi-amplifier-off" transform="translate(144 36) scale(1.5)" fill="#555">
      <path d="M22.1 21.5L2.4 1.7L1.1 3L3 4.9V21H5C5 21.6 5.4 22 6 22S7 21.6 7 21H17C17 21.6 17.4 22 18 22S19 21.6 19 21H19.1L20.8 22.7L22.1 21.5M5 9V6.9L7.1 9H5M12 19C9.8 19 8 17.2 8 15C8 13.6 8.7 12.4 9.8 11.7L15.3 17.2C14.6 18.3 13.4 19 12 19M14 6V7H12V6H14M10 6C10.6 6 11 6.4 11 7C11 7.2 10.9 7.4 10.8 7.6L9.4 6.2C9.6 6.1 9.8 6 10 6M8.2 5L6.2 3H9C9 2.4 9.4 2 10 2H14C14.6 2 15 2.4 15 3H21V17.8L12.2 9H19V5H8.2M16 6V8H15V6H16M18 6V8H17V6H18Z" />
    </g>
    <g id="mdi-amplifier-off" transform="translate(180 36) scale(1.5)" fill="#fff">
      <path d="M22.1 21.5L2.4 1.7L1.1 3L3 4.9V21H5C5 21.6 5.4 22 6 22S7 21.6 7 21H17C17 21.6 17.4 22 18 22S19 21.6 19 21H19.1L20.8 22.7L22.1 21.5M5 9V6.9L7.1 9H5M12 19C9.8 19 8 17.2 8 15C8 13.6 8.7 12.4 9.8 11.7L15.3 17.2C14.6 18.3 13.4 19 12 19M14 6V7H12V6H14M10 6C10.6 6 11 6.4 11 7C11 7.2 10.9 7.4 10.8 7.6L9.4 6.2C9.6 6.1 9.8 6 10 6M8.2 5L6.2 3H9C9 2.4 9.4 2 10 2H14C14.6 2 15 2.4 15 3H21V17.8L12.2 9H19V5H8.2M16 6V8H15V6H16M18 6V8H17V6H18Z" />
    </g>
    <g id="mdi-anchor" transform="translate(216 36) scale(1.5)" fill="#555">
      <path d="M12 2A3 3 0 0 0 9 5A3 3 0 0 0 11 7.83V9H8V11H11V19.92C10.26 19.79 9.5 19.58 8.79 19.27C8.05 18.95 7.4 18.56 6.82 18.09C6.24 17.62 5.78 17.11 5.44 16.55L7 15L3 12V15C3 15.97 3.27 16.88 3.82 17.72C4.37 18.56 5.09 19.31 6 19.95C6.87 20.59 7.84 21.09 8.88 21.45C9.93 21.81 10.97 22 12 22C13.03 22 14.07 21.8 15.12 21.44C16.16 21.08 17.13 20.58 18 19.95C18.92 19.31 19.63 18.57 20.18 17.72C20.73 16.88 21 15.97 21 15V12L17 15L18.56 16.55C18.22 17.11 17.76 17.62 17.18 18.09C16.6 18.56 15.95 18.95 15.21 19.27C14.5 19.58 13.74 19.79 13 19.92V11H16V9H13V7.82A3 3 0 0 0 15 5A3 3 0 0 0 12 2M12 4A1 1 0 0 1 13 5A1 1 0 0 1 12 6A1 1 0 0 1 11 5A1 1 0 0 1 12 4Z" />
    </g>
    <g id="mdi-anchor" transform="translate(252 36) scale(1.5)" fill="#fff">
      <path d="M12 2A3 3 0 0 0 9 5A3 3 0 0 0 11 7.83V9H8V11H11V19.92C10.26 19.79 9.5 19.58 8.79 19.27C8.05 18.95 7.4 18.56 6.82 18.09C6.24 17.62 5.78 17.11 5.44 16.55L7 15L3 12V15C3 15.97 3.27 16.88 3.82 17.72C4.37 18.56 5.09 19.31 6 19.95C6.87 20.59 7.84 21.09 8.88 21.45C9.93 21.81 10.97 22 12 22C13.03 22 14.07 21.8 15.12 21.44C16.16 21.08 17.13 20.58 18 19.95C18.92 19.31 19.63 18.57 20.18 17.72C20.73 16.88 21 15.97 21 15V12L17 15L18.56 16.55C18.22 17.11 17.76 17.62 17.18 18.09C16.6 18.56 15.95 18.95 15.21 19.27C14.5 19.58 13.74 19.79 13 19.92V11H16V9H13V7.82A3 3 0 0 0 15 5A3 3 0 0 0 12 2M12 4A1 1 0 0 1 13 5A1 1 0 0 1 12 6A1 1 0 0 1 11 5A1 1 0 0 1 12 4Z" />
    </g>
    <g id="mdi-android" transform="translate(288 36) scale(1.5)" fill="#555">
      <path d="M16.61 15.15C16.15 15.15 15.77 14.78 15.77 14.32S16.15 13.5 16.61 13.5H16.61C17.07 13.5 17.45 13.86 17.45 14.32C17.45 14.78 17.07 15.15 16.61 15.15M7.41 15.15C6.95 15.15 6.57 14.78 6.57 14.32C6.57 13.86 6.95 13.5 7.41 13.5H7.41C7.87 13.5 8.24 13.86 8.24 14.32C8.24 14.78 7.87 15.15 7.41 15.15M16.91 10.14L18.58 7.26C18.67 7.09 18.61 6.88 18.45 6.79C18.28 6.69 18.07 6.75 18 6.92L16.29 9.83C14.95 9.22 13.5 8.9 12 8.91C10.47 8.91 9 9.24 7.73 9.82L6.04 6.91C5.95 6.74 5.74 6.68 5.57 6.78C5.4 6.87 5.35 7.08 5.44 7.25L7.1 10.13C4.25 11.69 2.29 14.58 2 18H22C21.72 14.59 19.77 11.7 16.91 10.14H16.91Z" />
    </g>
    <g id="mdi-android" transform="translate(324 36) scale(1.5)" fill="#fff">
      <path d="M16.61 15.15C16.15 15.15 15.77 14.78 15.77 14.32S16.15 13.5 16.61 13.5H16.61C17.07 13.5 17.45 13.86 17.45 14.32C17.45 14.78 17.07 15.15 16.61 15.15M7.41 15.15C6.95 15.15 6.57 14.78 6.57 14.32C6.57 13.86 6.95 13.5 7.41 13.5H7.41C7.87 13.5 8.24 13.86 8.24 14.32C8.24 14.78 7.87 15.15 7.41 15.15M16.91 10.14L18.58 7.26C18.67 7.09 18.61 6.88 18.45 6.79C18.28 6.69 18.07 6.75 18 6.92L16.29 9.83C14.95 9.22 13.5 8.9 12 8.91C10.47 8.91 9 9.24 7.73 9.82L6.04 6.91C5.95 6.74 5.74 6.68 5.57 6.78C5.4 6.87 5.35 7.08 5.44 7.25L7.1 10.13C4.25 11.69 2.29 14.58 2 18H22C21.72 14.59 19.77 11.7 16.91 10.14H16.91Z" />
    </g>
    <g id="mdi-android-auto" transform="translate(360 36) scale(1.5)" fill="#555">
      <path d="M22.78,17.91C22.94,18.16 23,18.42 23,18.7C23,19.08 22.87,19.39 22.57,19.64C22.27,19.89 21.94,20 21.56,20H19.08L12.42,8H11.58L4.92,20H2.39C1.92,20 1.53,19.8 1.22,19.38C0.91,18.96 0.89,18.5 1.17,18L10.78,1.69C11.09,1.22 11.5,1 12,1C12.53,1 12.92,1.22 13.17,1.69L22.78,17.91M4.78,22.31L12,9.38L19.22,22.31L18.5,23L12,20.34L5.44,23L4.78,22.31Z" />
    </g>
    <g id="mdi-android-auto" transform="translate(396 36) scale(1.5)" fill="#fff">
      <path d="M22.78,17.91C22.94,18.16 23,18.42 23,18.7C23,19.08 22.87,19.39 22.57,19.64C22.27,19.89 21.94,20 21.56,20H19.08L12.42,8H11.58L4.92,20H2.39C1.92,20 1.53,19.8 1.22,19.38C0.91,18.96 0.89,18.5 1.17,18L10.78,1.69C11.09,1.22 11.5,1 12,1C12.53,1 12.92,1.22 13.17,1.69L22.78,17.91M4.78,22.31L12,9.38L19.22,22.31L18.5,23L12,20.34L5.44,23L4.78,22.31Z" />
    </g>
    <g id="mdi-android-debug-bridge" transform="translate(432 36) scale(1.5)" fill="#555">
      <path d="M15,9A1,1 0 0,1 14,8A1,1 0 0,1 15,7A1,1 0 0,1 16,8A1,1 0 0,1 15,9M9,9A1,1 0 0,1 8,8A1,1 0 0,1 9,7A1,1 0 0,1 10,8A1,1 0 0,1 9,9M16.12,4.37L18.22,2.27L17.4,1.44L15.09,3.75C14.16,3.28 13.11,3 12,3C10.88,3 9.84,3.28 8.91,3.75L6.6,1.44L5.78,2.27L7.88,4.37C6.14,5.64 5,7.68 5,10V11H19V10C19,7.68 17.86,5.64 16.12,4.37M5,16C5,19.86 8.13,23 12,23A7,7 0 0,0 19,16V12H5V16Z" />
    </g>
    <g id="mdi-android-debug-bridge" transform="translate(468 36) scale(1.5)" fill="#fff">
      <path d="M15,9A1,1 0 0,1 14,8A1,1 0 0,1 15,7A1,1 0 0,1 16,8A1,1 0 0,1 15,9M9,9A1,1 0 0,1 8,8A1,1 0 0,1 9,7A1,1 0 0,1 10,8A1,1 0 0,1 9,9M16.12,4.37L18.22,2.27L17.4,1.44L15.09,3.75C14.16,3.28 13.11,3 12,3C10.88,3 9.84,3.28 8.91,3.75L6.6,1.44L5.78,2.27L7.88,4.37C6.14,5.64 5,7.68 5,10V11H19V10C19,7.68 17.86,5.64 16.12,4.37M5,16C5,19.86 8.13,23 12,23A7,7 0 0,0 19,16V12H5V16Z" />
    </g>
    <g id="mdi-android-messages" transform="translate(504 36) scale(1.5)" fill="#555">
      <path d="M20,20H7A2,2 0 0,1 5,18V8.94L2.23,5.64C2.09,5.47 2,5.24 2,5A1,1 0 0,1 3,4H20A2,2 0 0,1 22,6V18A2,2 0 0,1 20,20M8.5,7A0.5,0.5 0 0,0 8,7.5V8.5A0.5,0.5 0 0,0 8.5,9H18.5A0.5,0.5 0 0,0 19,8.5V7.5A0.5,0.5 0 0,0 18.5,7H8.5M8.5,11A0.5,0.5 0 0,0 8,11.5V12.5A0.5,0.5 0 0,0 8.5,13H18.5A0.5,0.5 0 0,0 19,12.5V11.5A0.5,0.5 0 0,0 18.5,11H8.5M8.5,15A0.5,0.5 0 0,0 8,15.5V16.5A0.5,0.5 0 0,0 8.5,17H13.5A0.5,0.5 0 0,0 14,16.5V15.5A0.5,0.5 0 0,0 13.5,15H8.5Z" />
    </g>
    <g id="mdi-android-messages" transform="translate(540 36) scale(1.5)" fill="#fff">
      <path d="M20,20H7A2,2 0 0,1 5,18V8.94L2.23,5.64C2.09,5.47 2,5.24 2,5A1,1 0 0,1 3,4H20A2,2 0 0,1 22,6V18A2,2 0 0,1 20,20M8.5,7A0.5,0.5 0 0,0 8,7.5V8.5A0.5,0.5 0 0,0 8.5,9H18.5A0.5,0.5 0 0,0 19,8.5V7.5A0.5,0.5 0 0,0 18.5,7H8.5M8.5,11A0.5,0.5 0 0,0 8,11.5V12.5A0.5,0.5 0 0,0 8.5,13H18.5A0.5,0.5 0 0,0 19,12.5V11.5A0.5,0.5 0 0,0 18.5,11H8.5M8.5,15A0.5,0.5 0 0,0 8,15.5V16.5A0.5,0.5 0 0,0 8.5,17H13.5A0.5,0.5 0 0,0 14,16.5V15.5A0.5,0.5 0 0,0 13.5,15H8.5Z" />
    </g>
    <g id="mdi-android-studio" transform="translate(576 36) scale(1.5)" fill="#555">
      <path d="M11,2H13V4H13.5A1.5,1.5 0 0,1 15,5.5V9L14.56,9.44L16.2,12.28C17.31,11.19 18,9.68 18,8H20C20,10.42 18.93,12.59 17.23,14.06L20.37,19.5L20.5,21.72L18.63,20.5L15.56,15.17C14.5,15.7 13.28,16 12,16C10.72,16 9.5,15.7 8.44,15.17L5.37,20.5L3.5,21.72L3.63,19.5L9.44,9.44L9,9V5.5A1.5,1.5 0 0,1 10.5,4H11V2M9.44,13.43C10.22,13.8 11.09,14 12,14C12.91,14 13.78,13.8 14.56,13.43L13.1,10.9H13.09C12.47,11.5 11.53,11.5 10.91,10.9H10.9L9.44,13.43M12,6A1,1 0 0,0 11,7A1,1 0 0,0 12,8A1,1 0 0,0 13,7A1,1 0 0,0 12,6Z" />
    </g>
    <g id="mdi-android-studio" transform="translate(612 36) scale(1.5)" fill="#fff">
      <path d="M11,2H13V4H13.5A1.5,1.5 0 0,1 15,5.5V9L14.56,9.44L16.2,12.28C17.31,11.19 18,9.68 18,8H20C20,10.42 18.93,12.59 17.23,14.06L20.37,19.5L20.5,21.72L18.63,20.5L15.56,15.17C14.5,15.7 13.28,16 12,16C10.72,16 9.5,15.7 8.44,15.17L5.37,20.5L3.5,21.72L3.63,19.5L9.44,9.44L9,9V5.5A1.5,1.5 0 0,1 10.5,4H11V2M9.44,13.43C10.22,13.8 11.09,14 12,14C12.91,14 13.78,13.8 14.56,13.43L13.1,10.9H13.09C12.47,11.5 11.53,11.5 10.91,10.9H10.9L9.44,13.43M12,6A1,1 0 0,0 11,7A1,1 0 0,0 12,8A1,1 0 0,0 13,7A1,1 0 0,0 12,6Z" />
    </g>
    <g id="mdi-angle-acute" transform="translate(648 36) scale(1.5)" fill="#555">
      <path d="M20,19H4.09L14.18,4.43L15.82,5.57L11.28,12.13C12.89,12.96 14,14.62 14,16.54C14,16.7 14,16.85 13.97,17H20V19M7.91,17H11.96C12,16.85 12,16.7 12,16.54C12,15.28 11.24,14.22 10.14,13.78L7.91,17Z" />
    </g>
    <g id="mdi-angle-acute" transform="translate(684 36) scale(1.5)" fill="#fff">
      <path d="M20,19H4.09L14.18,4.43L15.82,5.57L11.28,12.13C12.89,12.96 14,14.62 14,16.54C14,16.7 14,16.85 13.97,17H20V19M7.91,17H11.96C12,16.85 12,16.7 12,16.54C12,15.28 11.24,14.22 10.14,13.78L7.91,17Z" />
    </g>
    <g id="mdi-angle-obtuse" transform="translate(0 72) scale(1.5)" fill="#555">
      <path d="M21,19H9.31L4.07,5.36L5.93,4.64L8.96,12.5C9.5,12.29 10.09,12.17 10.71,12.17V12.17C13.38,12.17 15.56,14.34 15.58,17H21V19M10.69,17H13.58C13.56,15.42 12.3,14.17 10.71,14.17C10.34,14.17 10,14.24 9.67,14.36L10.69,17Z" />
    </g>
    <g id="mdi-angle-obtuse" transform="translate(36 72) scale(1.5)" fill="#fff">
      <path d="M21,19H9.31L4.07,5.36L5.93,4.64L8.96,12.5C9.5,12.29 10.09,12.17 10.71,12.17V12.17C13.38,12.17 15.56,14.34 15.58,17H21V19M10.69,17H13.58C13.56,15.42 12.3,14.17 10.71,14.17C10.34,14.17 10,14.24 9.67,14.36L10.69,17Z" />
    </g>
    <g id="mdi-angle-right" transform="translate(72 72) scale(1.5)" fill="#555">
      <path d="M5,4H7V11H13V17H20V19H5V4M7,17H11V13H7V17Z" />
    </g>
    <g id="mdi-angle-right" transform="translate(108 72) scale(1.5)" fill="#fff">
      <path d="M5,4H7V11H13V17H20V19H5V4M7,17H11V13H7V17Z" />
    </g>
    <g id="mdi-angular" transform="translate(144 72) scale(1.5)" fill="#555">
      <path d="M12,2.5L20.84,5.65L19.5,17.35L12,21.5L4.5,17.35L3.16,5.65L12,2.5M12,4.6L6.47,17H8.53L9.64,14.22H14.34L15.45,17H17.5L12,4.6M13.62,12.5H10.39L12,8.63L13.62,12.5Z" />
    </g>
    <g id="mdi-angular" transform="translate(180 72) scale(1.5)" fill="#fff">
      <path d="M12,2.5L20.84,5.65L19.5,17.35L12,21.5L4.5,17.35L3.16,5.65L12,2.5M12,4.6L6.47,17H8.53L9.64,14.22H14.34L15.45,17H17.5L12,4.6M13.62,12.5H10.39L12,8.63L13.62,12.5Z" />
    </g>
    <g id="mdi-angularjs" transform="translate(216 72) scale(1.5)" fill="#555">
      <path d="M12,2.5L20.84,5.65L19.5,17.35L12,21.5L4.5,17.35L3.16,5.65L12,2.5M12,4.5L5,7L6.08,16.22L12,19.5L17.92,16.22L19,7L12,4.5M12,5.72L16.58,16H14.87L13.94,13.72H10.04L9.12,16H7.41L12,5.72M13.34,12.3L12,9.07L10.66,12.3H13.34Z" />
    </g>
    <g id="mdi-angularjs" transform="translate(252 72) scale(1.5)" fill="#fff">
      <path d="M12,2.5L20.84,5.65L19.5,17.35L12,21.5L4.5,17.35L3.16,5.65L12,2.5M12,4.5L5,7L6.08,16.22L12,19.5L17.92,16.22L19,7L12,4.5M12,5.72L16.58,16H14.87L13.94,13.72H10.04L9.12,16H7.41L12,5.72M13.34,12.3L12,9.07L10.66,12.3H13.34Z" />
    </g>
    <g id="mdi-animation" transform="translate(288 72) scale(1.5)" fill="#555">
      <path d="M4,2C2.89,2 2,2.89 2,4V14H4V4H14V2H4M8,6C6.89,6 6,6.89 6,8V18H8V8H18V6H8M12,10C10.89,10 10,10.89 10,12V20C10,21.11 10.89,22 12,22H20C21.11,22 22,21.11 22,20V12C22,10.89 21.11,10 20,10H12Z" />
    </g>
    <g id="mdi-animation" transform="translate(324 72) scale(1.5)" fill="#fff">
      <path d="M4,2C2.89,2 2,2.89 2,4V14H4V4H14V2H4M8,6C6.89,6 6,6.89 6,8V18H8V8H18V6H8M12,10C10.89,10 10,10.89 10,12V20C10,21.11 10.89,22 12,22H20C21.11,22 22,21.11 22,20V12C22,10.89 21.11,10 20,10H12Z" />
    </g>
    <g id="mdi-animation-outline" transform="translate(360 72) scale(1.5)" fill="#555">
      <path d="M4,2A2,2 0 0,0 2,4V14H4V4H14V2H4M8,6A2,2 0 0,0 6,8V18H8V8H18V6H8M20,12V20H12V12H20M20,10H12A2,2 0 0,0 10,12V20A2,2 0 0,0 12,22H20A2,2 0 0,0 22,20V12A2,2 0 0,0 20,10Z" />
    </g>
    <g id="mdi-animation-outline" transform="translate(396 72) scale(1.5)" fill="#fff">
      <path d="M4,2A2,2 0 0,0 2,4V14H4V4H14V2H4M8,6A2,2 0 0,0 6,8V18H8V8H18V6H8M20,12V20H12V12H20M20,10H12A2,2 0 0,0 10,12V20A2,2 0 0,0 12,22H20A2,2 0 0,0 22,20V12A2,2 0 0,0 20,10Z" />
    </g>
    <g id="mdi-animation-play" transform="translate(432 72) scale(1.5)" fill="#555">
      <path d="M4,2H14V4H4V14H2V4C2,2.89 2.89,2 4,2M8,6H18V8H8V18H6V8C6,6.89 6.89,6 8,6M12,10H20C21.11,10 22,10.89 22,12V20C22,21.11 21.11,22 20,22H12C10.89,22 10,21.11 10,20V12C10,10.89 10.89,10 12,10M14,12V20L20,16L14,12Z" />
    </g>
    <g id="mdi-animation-play" transform="translate(468 72) scale(1.5)" fill="#fff">
      <path d="M4,2H14V4H4V14H2V4C2,2.89 2.89,2 4,2M8,6H18V8H8V18H6V8C6,6.89 6.89,6 8,6M12,10H20C21.11,10 22,10.89 22,12V20C22,21.11 21.11,22 20,22H12C10.89,22 10,21.11 10,20V12C10,10.89 10.89,10 12,10M14,12V20L20,16L14,12Z" />
    </g>
    <g id="mdi-animation-play-outline" transform="translate(504 72) scale(1.5)" fill="#555">
      <path d="M4,2A2,2 0 0,0 2,4V14H4V4H14V2H4M8,6A2,2 0 0,0 6,8V18H8V8H18V6H8M20,12V20H12V12H20M20,10H12A2,2 0 0,0 10,12V20A2,2 0 0,0 12,22H20A2,2 0 0,0 22,20V12A2,2 0 0,0 20,10M14,13V19L18,16L14,13Z" />
    </g>
    <g id="mdi-animation-play-outline" transform="translate(540 72) scale(1.5)" fill="#fff">
      <path d="M4,2A2,2 0 0,0 2,4V14H4V4H14V2H4M8,6A2,2 0 0,0 6,8V18H8V8H18V6H8M20,12V20H12V12H20M20,10H12A2,2 0 0,0 10,12V20A2,2 0 0,0 12,22H20A2,2 0 0,0 22,20V12A2,2 0 0,0 20,10M14,13V19L18,16L14,13Z" />
    </g>
    <g id="mdi-ansible" transform="translate(576 72) scale(1.5)" fill="#555">
      <path d="M12 2C6.5 2 2 6.5 2 12C2 17.5 6.5 22 12 22C17.5 22 22 17.5 22 12C22 6.5 17.5 2 12 2M16.1 17C15.91 17 15.76 16.9 15.55 16.73L10.39 12.56L8.66 16.9H7.17L11.54 6.39C11.65 6.11 11.89 5.97 12.17 5.97C12.45 5.97 12.67 6.11 12.79 6.39L16.77 15.97C16.81 16.08 16.84 16.19 16.84 16.26C16.83 16.68 16.5 17 16.1 17M12.17 8.11L14.76 14.5L10.85 11.42L12.17 8.11Z" />
    </g>
    <g id="mdi-ansible" transform="translate(612 72) scale(1.5)" fill="#fff">
      <path d="M12 2C6.5 2 2 6.5 2 12C2 17.5 6.5 22 12 22C17.5 22 22 17.5 22 12C22 6.5 17.5 2 12 2M16.1 17C15.91 17 15.76 16.9 15.55 16.73L10.39 12.56L8.66 16.9H7.17L11.54 6.39C11.65 6.11 11.89 5.97 12.17 5.97C12.45 5.97 12.67 6.11 12.79 6.39L16.77 15.97C16.81 16.08 16.84 16.19 16.84 16.26C16.83 16.68 16.5 17 16.1 17M12.17 8.11L14.76 14.5L10.85 11.42L12.17 8.11Z" />
    </g>
    <g id="mdi-antenna" transform="translate(648 72) scale(1.5)" fill="#555">
      <path d="M12 7.5C12.69 7.5 13.27 7.73 13.76 8.2S14.5 9.27 14.5 10C14.5 11.05 14 11.81 13 12.28V21H11V12.28C10 11.81 9.5 11.05 9.5 10C9.5 9.27 9.76 8.67 10.24 8.2S11.31 7.5 12 7.5M16.69 5.3C17.94 6.55 18.61 8.11 18.7 10C18.7 11.8 18.03 13.38 16.69 14.72L15.5 13.5C16.5 12.59 17 11.42 17 10C17 8.67 16.5 7.5 15.5 6.5L16.69 5.3M6.09 4.08C4.5 5.67 3.7 7.64 3.7 10S4.5 14.3 6.09 15.89L4.92 17.11C3 15.08 2 12.7 2 10C2 7.3 3 4.94 4.92 2.91L6.09 4.08M19.08 2.91C21 4.94 22 7.3 22 10C22 12.8 21 15.17 19.08 17.11L17.91 15.89C19.5 14.3 20.3 12.33 20.3 10S19.5 5.67 17.91 4.08L19.08 2.91M7.31 5.3L8.5 6.5C7.5 7.42 7 8.58 7 10C7 11.33 7.5 12.5 8.5 13.5L7.31 14.72C5.97 13.38 5.3 11.8 5.3 10C5.3 8.2 5.97 6.64 7.31 5.3Z" />
    </g>
    <g id="mdi-antenna" transform="translate(684 72) scale(1.5)" fill="#fff">
      <path d="M12 7.5C12.69 7.5 13.27 7.73 13.76 8.2S14.5 9.27 14.5 10C14.5 11.05 14 11.81 13 12.28V21H11V12.28C10 11.81 9.5 11.05 9.5 10C9.5 9.27 9.76 8.67 10.24 8.2S11.31 7.5 12 7.5M16.69 5.3C17.94 6.55 18.61 8.11 18.7 10C18.7 11.8 18.03 13.38 16.69 14.72L15.5 13.5C16.5 12.59 17 11.42 17 10C17 8.67 16.5 7.5 15.5 6.5L16.69 5.3M6.09 4.08C4.5 5.67 3.7 7.64 3.7 10S4.5 14.3 6.09 15.89L4.92 17.11C3 15.08 2 12.7 2 10C2 7.3 3 4.94 4.92 2.91L6.09 4.08M19.08 2.91C21 4.94 22 7.3 22 10C22 12.8 21 15.17 19.08 17.11L17.91 15.89C19.5 14.3 20.3 12.33 20.3 10S19.5 5.67 17.91 4.08L19.08 2.91M7.31 5.3L8.5 6.5C7.5 7.42 7 8.58 7 10C7 11.33 7.5 12.5 8.5 13.5L7.31 14.72C5.97 13.38 5.3 11.8 5.3 10C5.3 8.2 5.97 6.64 7.31 5.3Z" />
    </g>
    <g id="mdi-anvil" transform="translate(0 108) scale(1.5)" fill="#555">
      <path d="M9,5V10C13.03,12.47 8.44,14.97 6,16V19H21V16C14.59,13.27 17.47,9 22,8V5H9M2,6C2.81,8.13 4.42,9.5 7,10V6H2Z" />
    </g>
    <g id="mdi-anvil" transform="translate(36 108) scale(1.5)" fill="#fff">
      <path d="M9,5V10C13.03,12.47 8.44,14.97 6,16V19H21V16C14.59,13.27 17.47,9 22,8V5H9M2,6C2.81,8.13 4.42,9.5 7,10V6H2Z" />
    </g>
    <g id="mdi-apache-kafka" transform="translate(72 108) scale(1.5)" fill="#555">
      <path d="M15.54 12.97C14.86 12.97 14.24 13.22 13.76 13.64L12.47 12.89C12.56 12.6 12.6 12.29 12.6 11.97C12.6 11.65 12.56 11.34 12.5 11.05L13.73 10.32C14.21 10.76 14.85 11 15.54 11C17.03 11 18.24 9.81 18.24 8.32S17.03 5.63 15.54 5.63 12.84 6.84 12.84 8.33C12.84 8.5 12.86 8.7 12.89 8.88L11.64 9.6C11.21 9.15 10.64 8.82 10 8.65V7.26C11.09 6.91 11.88 5.89 11.88 4.69C11.88 3.2 10.67 2 9.18 2C7.69 2 6.5 3.2 6.5 4.69C6.5 5.89 7.26 6.9 8.34 7.26V8.66C6.86 9.04 5.76 10.37 5.76 11.97C5.76 13.57 6.86 14.91 8.34 15.28V16.73C7.26 17.09 6.5 18.1 6.5 19.3C6.5 20.79 7.69 22 9.18 22C10.67 22 11.88 20.79 11.88 19.3C11.88 18.1 11.09 17.08 10 16.73V15.29C10.64 15.13 11.2 14.8 11.64 14.35L12.9 15.08C12.86 15.27 12.84 15.46 12.84 15.66C12.84 17.15 14.05 18.36 15.54 18.36S18.24 17.15 18.24 15.66 17.03 12.97 15.54 12.97M15.54 7C16.28 7 16.87 7.59 16.87 8.32S16.28 9.66 15.54 9.66 14.21 9.06 14.21 8.32 14.8 7 15.54 7M7.85 4.69C7.85 3.95 8.44 3.35 9.18 3.35C9.92 3.35 10.5 3.95 10.5 4.69S9.92 6.03 9.18 6.03C8.44 6.03 7.85 5.43 7.85 4.69M10.5 19.3C10.5 20.04 9.92 20.64 9.18 20.64C8.44 20.64 7.85 20.04 7.85 19.3C7.85 18.56 8.44 17.96 9.18 17.96C9.92 17.96 10.5 18.56 10.5 19.3M9.18 13.89C8.12 13.89 7.26 13.03 7.26 11.97C7.26 10.91 8.12 10.05 9.18 10.05S11.1 10.91 11.1 11.97C11.1 13.03 10.24 13.89 9.18 13.89M15.54 17C14.8 17 14.21 16.4 14.21 15.66S14.8 14.33 15.54 14.33 16.87 14.93 16.87 15.66 16.28 17 15.54 17Z" />
    </g>
    <g id="mdi-apache-kafka" transform="translate(108 108) scale(1.5)" fill="#fff">
      <path d="M15.54 12.97C14.86 12.97 14.24 13.22 13.76 13.64L12.47 12.89C12.56 12.6 12.6 12.29 12.6 11.97C12.6 11.65 12.56 11.34 12.5 11.05L13.73 10.32C14.21 10.76 14.85 11 15.54 11C17.03 11 18.24 9.81 18.24 8.32S17.03 5.63 15.54 5.63 12.84 6.84 12.84 8.33C12.84 8.5 12.86 8.7 12.89 8.88L11.64 9.6C11.21 9.15 10.64 8.82 10 8.65V7.26C11.09 6.91 11.88 5.89 11.88 4.69C11.88 3.2 10.67 2 9.18 2C7.69 2 6.5 3.2 6.5 4.69C6.5 5.89 7.26 6.9 8.34 7.26V8.66C6.86 9.04 5.76 10.37 5.76 11.97C5.76 13.57 6.86 14.91 8.34 15.28V16.73C7.26 17.09 6.5 18.1 6.5 19.3C6.5 20.79 7.69 22 9.18 22C10.67 22 11.88 20.79 11.88 19.3C11.88 18.1 11.09 17.08 10 16.73V15.29C10.64 15.13 11.2 14.8 11.64 14.35L12.9 15.08C12.86 15.27 12.84 15.46 12.84 15.66C12.84 17.15 14.05 18.36 15.54 18.36S18.24 17.15 18.24 15.66 17.03 12.97 15.54 12.97M15.54 7C16.28 7 16.87 7.59 16.87 8.32S16.28 9.66 15.54 9.66 14.21 9.06 14.21 8.32 14.8 7 15.54 7M7.85 4.69C7.85 3.95 8.44 3.35 9.18 3.35C9.92 3.35 10.5 3.95 10.5 4.69S9.92 6.03 9.18 6.03C8.44 6.03 7.85 5.43 7.85 4.69M10.5 19.3C10.5 20.04 9.92 20.64 9.18 20.64C8.44 20.64 7.85 20.04 7.85 19.3C7.85 18.56 8.44 17.96 9.18 17.96C9.92 17.96 10.5 18.56 10.5 19.3M9.18 13.89C8.12 13.89 7.26 13.03 7.26 11.97C7.26 10.91 8.12 10.05 9.18 10.05S11.1 10.91 11.1 11.97C11.1 13.03 10.24 13.89 9.18 13.89M15.54 17C14.8 17 14.21 16.4 14.21 15.66S14.8 14.33 15.54 14.33 16.87 14.93 16.87 15.66 16.28 17 15.54 17Z" />
    </g>
    <g id="mdi-api" transform="translate(144 108) scale(1.5)" fill="#555">
      <path d="M7 7H5A2 2 0 0 0 3 9V17H5V13H7V17H9V9A2 2 0 0 0 7 7M7 11H5V9H7M14 7H10V17H12V13H14A2 2 0 0 0 16 11V9A2 2 0 0 0 14 7M14 11H12V9H14M20 9V15H21V17H17V15H18V9H17V7H21V9Z" />
    </g>
    <g id="mdi-api" transform="translate(180 108) scale(1.5)" fill="#fff">
      <path d="M7 7H5A2 2 0 0 0 3 9V17H5V13H7V17H9V9A2 2 0 0 0 7 7M7 11H5V9H7M14 7H10V17H12V13H14A2 2 0 0 0 16 11V9A2 2 0 0 0 14 7M14 11H12V9H14M20 9V15H21V17H17V15H18V9H17V7H21V9Z" />
    </g>
    <g id="mdi-api-off" transform="translate(216 108) scale(1.5)" fill="#555">
      <path d="M7 11H5V9H7M14 7H11.38L13.29 9H14V9.75L15.87 11.71C15.95 11.5 16 11.25 16 11V9C16 7.9 15.11 7 14 7M4.45 2.62L3 4L5.86 7H5C3.9 7 3 7.9 3 9V17H5V13H7V17H9V10.3L10 11.34V17H12V13.45L19.55 21.38L21 20M20.9 17H21V15H20V9H21V7H17V9H18V13.95Z" />
    </g>
    <g id="mdi-api-off" transform="translate(252 108) scale(1.5)" fill="#fff">
      <path d="M7 11H5V9H7M14 7H11.38L13.29 9H14V9.75L15.87 11.71C15.95 11.5 16 11.25 16 11V9C16 7.9 15.11 7 14 7M4.45 2.62L3 4L5.86 7H5C3.9 7 3 7.9 3 9V17H5V13H7V17H9V10.3L10 11.34V17H12V13.45L19.55 21.38L21 20M20.9 17H21V15H20V9H21V7H17V9H18V13.95Z" />
    </g>
    <g id="mdi-apple" transform="translate(288 108) scale(1.5)" fill="#555">
      <path d="M18.71,19.5C17.88,20.74 17,21.95 15.66,21.97C14.32,22 13.89,21.18 12.37,21.18C10.84,21.18 10.37,21.95 9.1,22C7.79,22.05 6.8,20.68 5.96,19.47C4.25,17 2.94,12.45 4.7,9.39C5.57,7.87 7.13,6.91 8.82,6.88C10.1,6.86 11.32,7.75 12.11,7.75C12.89,7.75 14.37,6.68 15.92,6.84C16.57,6.87 18.39,7.1 19.56,8.82C19.47,8.88 17.39,10.1 17.41,12.63C17.44,15.65 20.06,16.66 20.09,16.67C20.06,16.74 19.67,18.11 18.71,19.5M13,3.5C13.73,2.67 14.94,2.04 15.94,2C16.07,3.17 15.6,4.35 14.9,5.19C14.21,6.04 13.07,6.7 11.95,6.61C11.8,5.46 12.36,4.26 13,3.5Z" />
    </g>
    <g id="mdi-apple" transform="translate(324 108) scale(1.5)" fill="#fff">
      <path d="M18.71,19.5C17.88,20.74 17,21.95 15.66,21.97C14.32,22 13.89,21.18 12.37,21.18C10.84,21.18 10.37,21.95 9.1,22C7.79,22.05 6.8,20.68 5.96,19.47C4.25,17 2.94,12.45 4.7,9.39C5.57,7.87 7.13,6.91 8.82,6.88C10.1,6.86 11.32,7.75 12.11,7.75C12.89,7.75 14.37,6.68 15.92,6.84C16.57,6.87 18.39,7.1 19.56,8.82C19.47,8.88 17.39,10.1 17.41,12.63C17.44,15.65 20.06,16.66 20.09,16.67C20.06,16.74 19.67,18.11 18.71,19.5M13,3.5C13.73,2.67 14.94,2.04 15.94,2C16.07,3.17 15.6,4.35 14.9,5.19C14.21,6.04 13.07,6.7 11.95,6.61C11.8,5.46 12.36,4.26 13,3.5Z" />
    </g>
    <g id="mdi-apple-airplay" transform="translate(360 108) scale(1.5)" fill="#555">
      <path d="M6,22H18L12,16M21,3H3A2,2 0 0,0 1,5V17A2,2 0 0,0 3,19H7V17H3V5H21V17H17V19H21A2,2 0 0,0 23,17V5A2,2 0 0,0 21,3Z" />
    </g>
    <g id="mdi-apple-airplay" transform="translate(396 108) scale(1.5)" fill="#fff">
      <path d="M6,22H18L12,16M21,3H3A2,2 0 0,0 1,5V17A2,2 0 0,0 3,19H7V17H3V5H21V17H17V19H21A2,2 0 0,0 23,17V5A2,2 0 0,0 21,3Z" />
    </g>
    <g id="mdi-apple-finder" transform="translate(432 108) scale(1.5)" fill="#555">
      <path d="M8 11C7.45 11 7 10.55 7 10V8C7 7.45 7.45 7 8 7C8.55 7 9 7.45 9 8V10C9 10.55 8.55 11 8 11M17 10V8C17 7.45 16.55 7 16 7C15.45 7 15 7.45 15 8V10C15 10.55 15.45 11 16 11C16.55 11 17 10.55 17 10M22 5V20C22 21.1 21.1 22 20 22H4C2.9 22 2 21.1 2 20V5C2 3.9 2.9 3 4 3H20C21.1 3 22 3.9 22 5M4 20L13.06 20C12.96 19.35 12.89 18.64 12.83 17.94C12.56 17.96 12.3 18 12 18C8.24 18 6.31 15.73 6.23 15.63C5.88 15.21 5.94 14.58 6.36 14.22C6.78 13.87 7.41 13.93 7.77 14.35C7.83 14.43 9.23 16 12 16C12.27 16 12.5 15.97 12.74 15.95C12.71 14.75 12.73 13.74 12.74 13.26H10.93C10.28 13.26 9.75 12.7 9.75 12C9.77 11.75 10.07 7.82 11 5H4L4 20M20 20L20 5H12.6C11.74 7.19 11.37 10.73 11.27 11.76H13.08C13.72 11.76 14.25 12.32 14.25 13C14.25 13.04 14.21 14.15 14.24 15.6C15.54 15.11 16.22 14.35 16.23 14.34C16.58 13.92 17.21 13.85 17.63 14.2C18.06 14.55 18.12 15.18 17.77 15.61C17.71 15.68 16.55 17.05 14.32 17.68C14.38 18.5 14.46 19.29 14.58 20H20Z" />
    </g>
    <g id="mdi-apple-finder" transform="translate(468 108) scale(1.5)" fill="#fff">
      <path d="M8 11C7.45 11 7 10.55 7 10V8C7 7.45 7.45 7 8 7C8.55 7 9 7.45 9 8V10C9 10.55 8.55 11 8 11M17 10V8C17 7.45 16.55 7 16 7C15.45 7 15 7.45 15 8V10C15 10.55 15.45 11 16 11C16.55 11 17 10.55 17 10M22 5V20C22 21.1 21.1 22 20 22H4C2.9 22 2 21.1 2 20V5C2 3.9 2.9 3 4 3H20C21.1 3 22 3.9 22 5M4 20L13.06 20C12.96 19.35 12.89 18.64 12.83 17.94C12.56 17.96 12.3 18 12 18C8.24 18 6.31 15.73 6.23 15.63C5.88 15.21 5.94 14.58 6.36 14.22C6.78 13.87 7.41 13.93 7.77 14.35C7.83 14.43 9.23 16 12 16C12.27 16 12.5 15.97 12.74 15.95C12.71 14.75 12.73 13.74 12.74 13.26H10.93C10.28 13.26 9.75 12.7 9.75 12C9.77 11.75 10.07 7.82 11 5H4L4 20M20 20L20 5H12.6C11.74 7.19 11.37 10.73 11.27 11.76H13.08C13.72 11.76 14.25 12.32 14.25 13C14.25 13.04 14.21 14.15 14.24 15.6C15.54 15.11 16.22 14.35 16.23 14.34C16.58 13.92 17.21 13.85 17.63 14.2C18.06 14.55 18.12 15.18 17.77 15.61C17.71 15.68 16.55 17.05 14.32 17.68C14.38 18.5 14.46 19.29 14.58 20H20Z" />
    </g>
    <g id="mdi-apple-icloud" transform="translate(504 108) scale(1.5)" fill="#555">
      <path d="M22,15.04C22,17.23 20.24,19 18.07,19H5.93C3.76,19 2,17.23 2,15.04C2,13.07 3.43,11.44 5.31,11.14C5.28,11 5.27,10.86 5.27,10.71C5.27,9.33 6.38,8.2 7.76,8.2C8.37,8.2 8.94,8.43 9.37,8.8C10.14,7.05 11.13,5.44 13.91,5.44C17.28,5.44 18.87,8.06 18.87,10.83C18.87,10.94 18.87,11.06 18.86,11.17C20.65,11.54 22,13.13 22,15.04Z" />
    </g>
    <g id="mdi-apple-icloud" transform="translate(540 108) scale(1.5)" fill="#fff">
      <path d="M22,15.04C22,17.23 20.24,19 18.07,19H5.93C3.76,19 2,17.23 2,15.04C2,13.07 3.43,11.44 5.31,11.14C5.28,11 5.27,10.86 5.27,10.71C5.27,9.33 6.38,8.2 7.76,8.2C8.37,8.2 8.94,8.43 9.37,8.8C10.14,7.05 11.13,5.44 13.91,5.44C17.28,5.44 18.87,8.06 18.87,10.83C18.87,10.94 18.87,11.06 18.86,11.17C20.65,11.54 22,13.13 22,15.04Z" />
    </g>
    <g id="mdi-apple-ios" transform="translate(576 108) scale(1.5)" fill="#555">
      <path d="M2.09 16.8H3.75V9.76H2.09M2.92 8.84C3.44 8.84 3.84 8.44 3.84 7.94C3.84 7.44 3.44 7.04 2.92 7.04C2.4 7.04 2 7.44 2 7.94C2 8.44 2.4 8.84 2.92 8.84M9.25 7.06C6.46 7.06 4.7 8.96 4.7 12C4.7 15.06 6.46 16.96 9.25 16.96C12.04 16.96 13.8 15.06 13.8 12C13.8 8.96 12.04 7.06 9.25 7.06M9.25 8.5C10.96 8.5 12.05 9.87 12.05 12C12.05 14.15 10.96 15.5 9.25 15.5C7.54 15.5 6.46 14.15 6.46 12C6.46 9.87 7.54 8.5 9.25 8.5M14.5 14.11C14.57 15.87 16 16.96 18.22 16.96C20.54 16.96 22 15.82 22 14C22 12.57 21.18 11.77 19.23 11.32L18.13 11.07C16.95 10.79 16.47 10.42 16.47 9.78C16.47 9 17.2 8.45 18.28 8.45C19.38 8.45 20.13 9 20.21 9.89H21.84C21.8 8.2 20.41 7.06 18.29 7.06C16.21 7.06 14.73 8.21 14.73 9.91C14.73 11.28 15.56 12.13 17.33 12.53L18.57 12.82C19.78 13.11 20.27 13.5 20.27 14.2C20.27 15 19.47 15.57 18.31 15.57C17.15 15.57 16.26 15 16.16 14.11H14.5Z" />
    </g>
    <g id="mdi-apple-ios" transform="translate(612 108) scale(1.5)" fill="#fff">
      <path d="M2.09 16.8H3.75V9.76H2.09M2.92 8.84C3.44 8.84 3.84 8.44 3.84 7.94C3.84 7.44 3.44 7.04 2.92 7.04C2.4 7.04 2 7.44 2 7.94C2 8.44 2.4 8.84 2.92 8.84M9.25 7.06C6.46 7.06 4.7 8.96 4.7 12C4.7 15.06 6.46 16.96 9.25 16.96C12.04 16.96 13.8 15.06 13.8 12C13.8 8.96 12.04 7.06 9.25 7.06M9.25 8.5C10.96 8.5 12.05 9.87 12.05 12C12.05 14.15 10.96 15.5 9.25 15.5C7.54 15.5 6.46 14.15 6.46 12C6.46 9.87 7.54 8.5 9.25 8.5M14.5 14.11C14.57 15.87 16 16.96 18.22 16.96C20.54 16.96 22 15.82 22 14C22 12.57 21.18 11.77 19.23 11.32L18.13 11.07C16.95 10.79 16.47 10.42 16.47 9.78C16.47 9 17.2 8.45 18.28 8.45C19.38 8.45 20.13 9 20.21 9.89H21.84C21.8 8.2 20.41 7.06 18.29 7.06C16.21 7.06 14.73 8.21 14.73 9.91C14.73 11.28 15.56 12.13 17.33 12.53L18.57 12.82C19.78 13.11 20.27 13.5 20.27 14.2C20.27 15 19.47 15.57 18.31 15.57C17.15 15.57 16.26 15 16.16 14.11H14.5Z" />
    </g>
    <g id="mdi-apple-keyboard-caps" transform="translate(648 108) scale(1.5)" fill="#555">
      <path d="M15,14V8H17.17L12,2.83L6.83,8H9V14H15M12,0L22,10H17V16H7V10H2L12,0M7,18H17V24H7V18M15,20H9V22H15V20Z" />
    </g>
    <g id="mdi-apple-keyboard-caps" transform="translate(684 108) scale(1.5)" fill="#fff">
      <path d="M15,14V8H17.17L12,2.83L6.83,8H9V14H15M12,0L22,10H17V16H7V10H2L12,0M7,18H17V24H7V18M15,20H9V22H15V20Z" />
    </g>
    <g id="mdi-apple-keyboard-command" transform="translate(0 144) scale(1.5)" fill="#555">
      <path d="M6,2A4,4 0 0,1 10,6V8H14V6A4,4 0 0,1 18,2A4,4 0 0,1 22,6A4,4 0 0,1 18,10H16V14H18A4,4 0 0,1 22,18A4,4 0 0,1 18,22A4,4 0 0,1 14,18V16H10V18A4,4 0 0,1 6,22A4,4 0 0,1 2,18A4,4 0 0,1 6,14H8V10H6A4,4 0 0,1 2,6A4,4 0 0,1 6,2M16,18A2,2 0 0,0 18,20A2,2 0 0,0 20,18A2,2 0 0,0 18,16H16V18M14,10H10V14H14V10M6,16A2,2 0 0,0 4,18A2,2 0 0,0 6,20A2,2 0 0,0 8,18V16H6M8,6A2,2 0 0,0 6,4A2,2 0 0,0 4,6A2,2 0 0,0 6,8H8V6M18,8A2,2 0 0,0 20,6A2,2 0 0,0 18,4A2,2 0 0,0 16,6V8H18Z" />
    </g>
    <g id="mdi-apple-keyboard-command" transform="translate(36 144) scale(1.5)" fill="#fff">
      <path d="M6,2A4,4 0 0,1 10,6V8H14V6A4,4 0 0,1 18,2A4,4 0 0,1 22,6A4,4 0 0,1 18,10H16V14H18A4,4 0 0,1 22,18A4,4 0 0,1 18,22A4,4 0 0,1 14,18V16H10V18A4,4 0 0,1 6,22A4,4 0 0,1 2,18A4,4 0 0,1 6,14H8V10H6A4,4 0 0,1 2,6A4,4 0 0,1 6,2M16,18A2,2 0 0,0 18,20A2,2 0 0,0 20,18A2,2 0 0,0 18,16H16V18M14,10H10V14H14V10M6,16A2,2 0 0,0 4,18A2,2 0 0,0 6,20A2,2 0 0,0 8,18V16H6M8,6A2,2 0 0,0 6,4A2,2 0 0,0 4,6A2,2 0 0,0 6,8H8V6M18,8A2,2 0 0,0 20,6A2,2 0 0,0 18,4A2,2 0 0,0 16,6V8H18Z" />
    </g>
    <g id="mdi-apple-keyboard-control" transform="translate(72 144) scale(1.5)" fill="#555">
      <path d="M19.78,11.78L18.36,13.19L12,6.83L5.64,13.19L4.22,11.78L12,4L19.78,11.78Z" />
    </g>
    <g id="mdi-apple-keyboard-control" transform="translate(108 144) scale(1.5)" fill="#fff">
      <path d="M19.78,11.78L18.36,13.19L12,6.83L5.64,13.19L4.22,11.78L12,4L19.78,11.78Z" />
    </g>
    <g id="mdi-apple-keyboard-option" transform="translate(144 144) scale(1.5)" fill="#555">
      <path d="M3,4H9.11L16.15,18H21V20H14.88L7.84,6H3V4M14,4H21V6H14V4Z" />
    </g>
    <g id="mdi-apple-keyboard-option" transform="translate(180 144) scale(1.5)" fill="#fff">
      <path d="M3,4H9.11L16.15,18H21V20H14.88L7.84,6H3V4M14,4H21V6H14V4Z" />
    </g>
    <g id="mdi-apple-keyboard-shift" transform="translate(216 144) scale(1.5)" fill="#555">
      <path d="M15,18V12H17.17L12,6.83L6.83,12H9V18H15M12,4L22,14H17V20H7V14H2L12,4Z" />
    </g>
    <g id="mdi-apple-keyboard-shift" transform="translate(252 144) scale(1.5)" fill="#fff">
      <path d="M15,18V12H17.17L12,6.83L6.83,12H9V18H15M12,4L22,14H17V20H7V14H2L12,4Z" />
    </g>
    <g id="mdi-apple-safari" transform="translate(288 144) scale(1.5)" fill="#555">
      <path d="M12,2A10,10 0 0,1 22,12A10,10 0 0,1 12,22A10,10 0 0,1 2,12A10,10 0 0,1 12,2M12,4A8,8 0 0,0 4,12C4,14.09 4.8,16 6.11,17.41L9.88,9.88L17.41,6.11C16,4.8 14.09,4 12,4M12,20A8,8 0 0,0 20,12C20,9.91 19.2,8 17.89,6.59L14.12,14.12L6.59,17.89C8,19.2 9.91,20 12,20M12,12L11.23,11.23L9.7,14.3L12.77,12.77L12,12M12,17.5H13V19H12V17.5M15.88,15.89L16.59,15.18L17.65,16.24L16.94,16.95L15.88,15.89M17.5,12V11H19V12H17.5M12,6.5H11V5H12V6.5M8.12,8.11L7.41,8.82L6.35,7.76L7.06,7.05L8.12,8.11M6.5,12V13H5V12H6.5Z" />
    </g>
    <g id="mdi-apple-safari" transform="translate(324 144) scale(1.5)" fill="#fff">
      <path d="M12,2A10,10 0 0,1 22,12A10,10 0 0,1 12,22A10,10 0 0,1 2,12A10,10 0 0,1 12,2M12,4A8,8 0 0,0 4,12C4,14.09 4.8,16 6.11,17.41L9.88,9.88L17.41,6.11C16,4.8 14.09,4 12,4M12,20A8,8 0 0,0 20,12C20,9.91 19.2,8 17.89,6.59L14.12,14.12L6.59,17.89C8,19.2 9.91,20 12,20M12,12L11.23,11.23L9.7,14.3L12.77,12.77L12,12M12,17.5H13V19H12V17.5M15.88,15.89L16.59,15.18L17.65,16.24L16.94,16.95L15.88,15.89M17.5,12V11H19V12H17.5M12,6.5H11V5H12V6.5M8.12,8.11L7.41,8.82L6.35,7.76L7.06,7.05L8.12,8.11M6.5,12V13H5V12H6.5Z" />
    </g>
    <g id="mdi-application" transform="translate(360 144) scale(1.5)" fill="#555">
      <path d="M19,4C20.11,4 21,4.9 21,6V18A2,2 0 0,1 19,20H5C3.89,20 3,19.1 3,18V6A2,2 0 0,1 5,4H19M19,18V8H5V18H19Z" />
    </g>
    <g id="mdi-application" transform="translate(396 144) scale(1.5)" fill="#fff">
      <path d="M19,4C20.11,4 21,4.9 21,6V18A2,2 0 0,1 19,20H5C3.89,20 3,19.1 3,18V6A2,2 0 0,1 5,4H19M19,18V8H5V18H19Z" />
    </g>
    <g id="mdi-application-cog" transform="translate(432 144) scale(1.5)" fill="#555">
      <path d="M21.7 18.6V17.6L22.8 16.8C22.9 16.7 23 16.6 22.9 16.5L21.9 14.8C21.9 14.7 21.7 14.7 21.6 14.7L20.4 15.2C20.1 15 19.8 14.8 19.5 14.7L19.3 13.4C19.3 13.3 19.2 13.2 19.1 13.2H17.1C16.9 13.2 16.8 13.3 16.8 13.4L16.6 14.7C16.3 14.9 16.1 15 15.8 15.2L14.6 14.7C14.5 14.7 14.4 14.7 14.3 14.8L13.3 16.5C13.3 16.6 13.3 16.7 13.4 16.8L14.5 17.6V18.6L13.4 19.4C13.3 19.5 13.2 19.6 13.3 19.7L14.3 21.4C14.4 21.5 14.5 21.5 14.6 21.5L15.8 21C16 21.2 16.3 21.4 16.6 21.5L16.8 22.8C16.9 22.9 17 23 17.1 23H19.1C19.2 23 19.3 22.9 19.3 22.8L19.5 21.5C19.8 21.3 20 21.2 20.3 21L21.5 21.4C21.6 21.4 21.7 21.4 21.8 21.3L22.8 19.6C22.9 19.5 22.9 19.4 22.8 19.4L21.7 18.6M18 19.5C17.2 19.5 16.5 18.8 16.5 18S17.2 16.5 18 16.5 19.5 17.2 19.5 18 18.8 19.5 18 19.5M11.29 20H5C3.89 20 3 19.1 3 18V6C3 4.89 3.9 4 5 4H19C20.11 4 21 4.9 21 6V11.68C20.38 11.39 19.71 11.18 19 11.08V8H5V18H11C11 18.7 11.11 19.37 11.29 20Z" />
    </g>
    <g id="mdi-application-cog" transform="translate(468 144) scale(1.5)" fill="#fff">
      <path d="M21.7 18.6V17.6L22.8 16.8C22.9 16.7 23 16.6 22.9 16.5L21.9 14.8C21.9 14.7 21.7 14.7 21.6 14.7L20.4 15.2C20.1 15 19.8 14.8 19.5 14.7L19.3 13.4C19.3 13.3 19.2 13.2 19.1 13.2H17.1C16.9 13.2 16.8 13.3 16.8 13.4L16.6 14.7C16.3 14.9 16.1 15 15.8 15.2L14.6 14.7C14.5 14.7 14.4 14.7 14.3 14.8L13.3 16.5C13.3 16.6 13.3 16.7 13.4 16.8L14.5 17.6V18.6L13.4 19.4C13.3 19.5 13.2 19.6 13.3 19.7L14.3 21.4C14.4 21.5 14.5 21.5 14.6 21.5L15.8 21C16 21.2 16.3 21.4 16.6 21.5L16.8 22.8C16.9 22.9 17 23 17.1 23H19.1C19.2 23 19.3 22.9 19.3 22.8L19.5 21.5C19.8 21.3 20 21.2 20.3 21L21.5 21.4C21.6 21.4 21.7 21.4 21.8 21.3L22.8 19.6C22.9 19.5 22.9 19.4 22.8 19.4L21.7 18.6M18 19.5C17.2 19.5 16.5 18.8 16.5 18S17.2 16.5 18 16.5 19.5 17.2 19.5 18 18.8 19.5 18 19.5M11.29 20H5C3.89 20 3 19.1 3 18V6C3 4.89 3.9 4 5 4H19C20.11 4 21 4.9 21 6V11.68C20.38 11.39 19.71 11.18 19 11.08V8H5V18H11C11 18.7 11.11 19.37 11.29 20Z" />
    </g>
    <g id="mdi-application-export" transform="translate(504 144) scale(1.5)" fill="#555">
      <path d="M8,12H17.76L15.26,9.5L16.67,8.08L21.59,13L16.67,17.92L15.26,16.5L17.76,14H8V12M19,3C20.11,3 21,3.9 21,5V9.67L19,7.67V7H5V19H19V18.33L21,16.33V19A2,2 0 0,1 19,21H5C3.89,21 3,20.1 3,19V5A2,2 0 0,1 5,3H19Z" />
    </g>
    <g id="mdi-application-export" transform="translate(540 144) scale(1.5)" fill="#fff">
      <path d="M8,12H17.76L15.26,9.5L16.67,8.08L21.59,13L16.67,17.92L15.26,16.5L17.76,14H8V12M19,3C20.11,3 21,3.9 21,5V9.67L19,7.67V7H5V19H19V18.33L21,16.33V19A2,2 0 0,1 19,21H5C3.89,21 3,20.1 3,19V5A2,2 0 0,1 5,3H19Z" />
    </g>
    <g id="mdi-application-import" transform="translate(576 144) scale(1.5)" fill="#555">
      <path d="M1,12H10.76L8.26,9.5L9.67,8.08L14.59,13L9.67,17.92L8.26,16.5L10.76,14H1V12M19,3C20.11,3 21,3.9 21,5V19A2,2 0 0,1 19,21H5C3.89,21 3,20.1 3,19V16H5V19H19V7H5V10H3V5A2,2 0 0,1 5,3H19Z" />
    </g>
    <g id="mdi-application-import" transform="translate(612 144) scale(1.5)" fill="#fff">
      <path d="M1,12H10.76L8.26,9.5L9.67,8.08L14.59,13L9.67,17.92L8.26,16.5L10.76,14H1V12M19,3C20.11,3 21,3.9 21,5V19A2,2 0 0,1 19,21H5C3.89,21 3,20.1 3,19V16H5V19H19V7H5V10H3V5A2,2 0 0,1 5,3H19Z" />
    </g>
    <g id="mdi-application-settings" transform="translate(648 144) scale(1.5)" fill="#555">
      <path d="M7 22H9V24H7V22M11 22H13V24H11V22M15 22H17V24H15V22M5 4H19A2 2 0 0 1 21 6V18A2 2 0 0 1 19 20H5A2 2 0 0 1 3 18V6A2 2 0 0 1 5 4M5 8V18H19V8H5" />
    </g>
    <g id="mdi-application-settings" transform="translate(684 144) scale(1.5)" fill="#fff">
      <path d="M7 22H9V24H7V22M11 22H13V24H11V22M15 22H17V24H15V22M5 4H19A2 2 0 0 1 21 6V18A2 2 0 0 1 19 20H5A2 2 0 0 1 3 18V6A2 2 0 0 1 5 4M5 8V18H19V8H5" />
    </g>
    <g id="mdi-approximately-equal" transform="translate(0 180) scale(1.5)" fill="#555">
      <path d="M18.9 9.2C18.1 10.1 16.6 11 15 11C13.5 11 12.6 10.5 11.8 10.1C11 9.8 10.2 9.3 8.9 9.3C7.7 9.3 6.6 10 6 10.6L5 9.1C5.9 8.2 7.3 7.2 8.9 7.2C10.4 7.2 11.3 7.8 12.1 8.1C12.9 8.4 13.7 9 15 9C16.2 9 17.3 8.2 17.9 7.6L18.9 9.2M19 14.1C18.1 15 16.7 16 15.1 16C13.6 16 12.7 15.5 11.9 15.1C11.1 14.8 10.3 14.2 9 14.2C7.8 14.2 6.7 15 6.1 15.6L5.1 14C6 13.1 7.4 12.1 9 12.1C10.5 12.1 11.4 12.6 12.2 13C13 13.3 13.8 13.8 15.1 13.8C16.3 13.8 17.4 13 18 12.4L19 14.1Z" />
    </g>
    <g id="mdi-approximately-equal" transform="translate(36 180) scale(1.5)" fill="#fff">
      <path d="M18.9 9.2C18.1 10.1 16.6 11 15 11C13.5 11 12.6 10.5 11.8 10.1C11 9.8 10.2 9.3 8.9 9.3C7.7 9.3 6.6 10 6 10.6L5 9.1C5.9 8.2 7.3 7.2 8.9 7.2C10.4 7.2 11.3 7.8 12.1 8.1C12.9 8.4 13.7 9 15 9C16.2 9 17.3 8.2 17.9 7.6L18.9 9.2M19 14.1C18.1 15 16.7 16 15.1 16C13.6 16 12.7 15.5 11.9 15.1C11.1 14.8 10.3 14.2 9 14.2C7.8 14.2 6.7 15 6.1 15.6L5.1 14C6 13.1 7.4 12.1 9 12.1C10.5 12.1 11.4 12.6 12.2 13C13 13.3 13.8 13.8 15.1 13.8C16.3 13.8 17.4 13 18 12.4L19 14.1Z" />
    </g>
    <g id="mdi-approximately-equal-box" transform="translate(72 180) scale(1.5)" fill="#555">
      <path d="M19 3H5C3.9 3 3 3.9 3 5V19C3 20.1 3.9 21 5 21H19C20.1 21 21 20.1 21 19V5C21 3.9 20.1 3 19 3M9.3 8.2C10.6 8.2 11.4 8.7 12.1 9C12.7 9.3 13.4 9.7 14.5 9.7C15.5 9.7 16.5 9 17 8.5L17.8 9.8C17.1 10.6 15.8 11.4 14.4 11.4C13.1 11.4 12.3 10.9 11.7 10.6C11.1 10.3 10.3 9.9 9.2 9.9C8.2 9.9 7.2 10.6 6.7 11.1L6 9.8C6.7 9 8 8.2 9.3 8.2M14.6 15.8C13.3 15.8 12.5 15.3 11.8 15C11.2 14.7 10.4 14.3 9.3 14.3C8.3 14.3 7.3 15 6.8 15.5L6 14.1C6.7 13.3 8 12.5 9.3 12.5C10.6 12.5 11.4 13 12.1 13.3C12.7 13.6 13.4 14 14.6 14C15.6 14 16.6 13.3 17.1 12.8L17.9 14.1C17.3 15 16 15.8 14.6 15.8Z" />
    </g>
    <g id="mdi-approximately-equal-box" transform="translate(108 180) scale(1.5)" fill="#fff">
      <path d="M19 3H5C3.9 3 3 3.9 3 5V19C3 20.1 3.9 21 5 21H19C20.1 21 21 20.1 21 19V5C21 3.9 20.1 3 19 3M9.3 8.2C10.6 8.2 11.4 8.7 12.1 9C12.7 9.3 13.4 9.7 14.5 9.7C15.5 9.7 16.5 9 17 8.5L17.8 9.8C17.1 10.6 15.8 11.4 14.4 11.4C13.1 11.4 12.3 10.9 11.7 10.6C11.1 10.3 10.3 9.9 9.2 9.9C8.2 9.9 7.2 10.6 6.7 11.1L6 9.8C6.7 9 8 8.2 9.3 8.2M14.6 15.8C13.3 15.8 12.5 15.3 11.8 15C11.2 14.7 10.4 14.3 9.3 14.3C8.3 14.3 7.3 15 6.8 15.5L6 14.1C6.7 13.3 8 12.5 9.3 12.5C10.6 12.5 11.4 13 12.1 13.3C12.7 13.6 13.4 14 14.6 14C15.6 14 16.6 13.3 17.1 12.8L17.9 14.1C17.3 15 16 15.8 14.6 15.8Z" />
    </g>
    <g id="mdi-apps" transform="translate(144 180) scale(1.5)" fill="#555">
      <path d="M16,20H20V16H16M16,14H20V10H16M10,8H14V4H10M16,8H20V4H16M10,14H14V10H10M4,14H8V10H4M4,20H8V16H4M10,20H14V16H10M4,8H8V4H4V8Z" />
    </g>
    <g id="mdi-apps" transform="translate(180 180) scale(1.5)" fill="#fff">
      <path d="M16,20H20V16H16M16,14H20V10H16M10,8H14V4H10M16,8H20V4H16M10,14H14V10H10M4,14H8V10H4M4,20H8V16H4M10,20H14V16H10M4,8H8V4H4V8Z" />
    </g>
    <g id="mdi-apps-box" transform="translate(216 180) scale(1.5)" fill="#555">
      <path d="M5,3H19A2,2 0 0,1 21,5V19A2,2 0 0,1 19,21H5A2,2 0 0,1 3,19V5A2,2 0 0,1 5,3M7,7V9H9V7H7M11,7V9H13V7H11M15,7V9H17V7H15M7,11V13H9V11H7M11,11V13H13V11H11M15,11V13H17V11H15M7,15V17H9V15H7M11,15V17H13V15H11M15,15V17H17V15H15Z" />
    </g>
    <g id="mdi-apps-box" transform="translate(252 180) scale(1.5)" fill="#fff">
      <path d="M5,3H19A2,2 0 0,1 21,5V19A2,2 0 0,1 19,21H5A2,2 0 0,1 3,19V5A2,2 0 0,1 5,3M7,7V9H9V7H7M11,7V9H13V7H11M15,7V9H17V7H15M7,11V13H9V11H7M11,11V13H13V11H11M15,11V13H17V11H15M7,15V17H9V15H7M11,15V17H13V15H11M15,15V17H17V15H15Z" />
    </g>
    <g id="mdi-arch" transform="translate(288 180) scale(1.5)" fill="#555">
      <path d="M12,2C11.11,4.18 10.57,5.61 9.58,7.73C10.19,8.37 10.93,9.12 12.14,9.97C10.84,9.43 9.95,8.9 9.29,8.34C8,11 6.03,14.75 2,22C5.17,20.17 7.63,19.04 9.92,18.61C9.82,18.19 9.76,17.73 9.77,17.25V17.15C9.82,15.12 10.88,13.56 12.13,13.67C13.38,13.77 14.35,15.5 14.3,17.54C14.29,17.92 14.25,18.29 14.18,18.63C16.44,19.07 18.87,20.19 22,22C21.38,20.86 20.83,19.84 20.31,18.87C19.5,18.23 18.61,17.39 16.85,16.5C18.06,16.8 18.93,17.16 19.61,17.57C14.26,7.62 13.83,6.3 12,2Z" />
    </g>
    <g id="mdi-arch" transform="translate(324 180) scale(1.5)" fill="#fff">
      <path d="M12,2C11.11,4.18 10.57,5.61 9.58,7.73C10.19,8.37 10.93,9.12 12.14,9.97C10.84,9.43 9.95,8.9 9.29,8.34C8,11 6.03,14.75 2,22C5.17,20.17 7.63,19.04 9.92,18.61C9.82,18.19 9.76,17.73 9.77,17.25V17.15C9.82,15.12 10.88,13.56 12.13,13.67C13.38,13.77 14.35,15.5 14.3,17.54C14.29,17.92 14.25,18.29 14.18,18.63C16.44,19.07 18.87,20.19 22,22C21.38,20.86 20.83,19.84 20.31,18.87C19.5,18.23 18.61,17.39 16.85,16.5C18.06,16.8 18.93,17.16 19.61,17.57C14.26,7.62 13.83,6.3 12,2Z" />
    </g>
    <g id="mdi-archive" transform="translate(360 180) scale(1.5)" fill="#555">
      <path d="M3,3H21V7H3V3M4,8H20V21H4V8M9.5,11A0.5,0.5 0 0,0 9,11.5V13H15V11.5A0.5,0.5 0 0,0 14.5,11H9.5Z" />
    </g>
    <g id="mdi-archive" transform="translate(396 180) scale(1.5)" fill="#fff">
      <path d="M3,3H21V7H3V3M4,8H20V21H4V8M9.5,11A0.5,0.5 0 0,0 9,11.5V13H15V11.5A0.5,0.5 0 0,0 14.5,11H9.5Z" />
    </g>
    <g id="mdi-archive-alert" transform="translate(432 180) scale(1.5)" fill="#555">
      <path d="M2 4H18V7H2V4M3 8H17V20H3V8M7.5 11C7.22 11 7 11.22 7 11.5V13H13V11.5C13 11.22 12.78 11 12.5 11H7.5M20 13V7H22V13H20M20 17V15H22V17H20Z" />
    </g>
    <g id="mdi-archive-alert" transform="translate(468 180) scale(1.5)" fill="#fff">
      <path d="M2 4H18V7H2V4M3 8H17V20H3V8M7.5 11C7.22 11 7 11.22 7 11.5V13H13V11.5C13 11.22 12.78 11 12.5 11H7.5M20 13V7H22V13H20M20 17V15H22V17H20Z" />
    </g>
    <g id="mdi-archive-alert-outline" transform="translate(504 180) scale(1.5)" fill="#555">
      <path d="M2 4H18V7H2V4M7.5 11H12.5C12.78 11 13 11.22 13 11.5V13H7V11.5C7 11.22 7.22 11 7.5 11M20 13V7H22V13H20M20 17V15H22V17H20M3 8H5V18H15V8H17V20H3V8Z" />
    </g>
    <g id="mdi-archive-alert-outline" transform="translate(540 180) scale(1.5)" fill="#fff">
      <path d="M2 4H18V7H2V4M7.5 11H12.5C12.78 11 13 11.22 13 11.5V13H7V11.5C7 11.22 7.22 11 7.5 11M20 13V7H22V13H20M20 17V15H22V17H20M3 8H5V18H15V8H17V20H3V8Z" />
    </g>
    <g id="mdi-archive-arrow-down" transform="translate(576 180) scale(1.5)" fill="#555">
      <path d="M3 3H21V7H3V3M4 21V8H20V21H4M14 14V11H10V14H7L12 19L17 14H14Z" />
    </g>
    <g id="mdi-archive-arrow-down" transform="translate(612 180) scale(1.5)" fill="#fff">
      <path d="M3 3H21V7H3V3M4 21V8H20V21H4M14 14V11H10V14H7L12 19L17 14H14Z" />
    </g>
    <g id="mdi-archive-arrow-down-outline" transform="translate(648 180) scale(1.5)" fill="#555">
      <path d="M20 21H4V10H6V19H18V10H20V21M3 3H21V9H3V3M5 5V7H19V5M10.5 11V14H8L12 18L16 14H13.5V11" />
    </g>
    <g id="mdi-archive-arrow-down-outline" transform="translate(684 180) scale(1.5)" fill="#fff">
      <path d="M20 21H4V10H6V19H18V10H20V21M3 3H21V9H3V3M5 5V7H19V5M10.5 11V14H8L12 18L16 14H13.5V11" />
    </g>
    <g id="mdi-archive-arrow-up" transform="translate(0 216) scale(1.5)" fill="#555">
      <path d="M4 21H20V8H4M14 15V18H10V15H7L12 10L17 15M3 3H21V7H3" />
    </g>
    <g id="mdi-archive-arrow-up" transform="translate(36 216) scale(1.5)" fill="#fff">
      <path d="M4 21H20V8H4M14 15V18H10V15H7L12 10L17 15M3 3H21V7H3" />
    </g>
    <g id="mdi-archive-arrow-up-outline" transform="translate(72 216) scale(1.5)" fill="#555">
      <path d="M20 21H4V10H6V19H18V10H20V21M3 3H21V9H3V3M5 5V7H19V5M10.5 17V14H8L12 10L16 14H13.5V17" />
    </g>
    <g id="mdi-archive-arrow-up-outline" transform="translate(108 216) scale(1.5)" fill="#fff">
      <path d="M20 21H4V10H6V19H18V10H20V21M3 3H21V9H3V3M5 5V7H19V5M10.5 17V14H8L12 10L16 14H13.5V17" />
    </g>
    <g id="mdi-archive-outline" transform="translate(144 216) scale(1.5)" fill="#555">
      <path d="M20 21H4V10H6V19H18V10H20V21M3 3H21V9H3V3M9.5 11H14.5C14.78 11 15 11.22 15 11.5V13H9V11.5C9 11.22 9.22 11 9.5 11M5 5V7H19V5H5Z" />
    </g>
    <g id="mdi-archive-outline" transform="translate(180 216) scale(1.5)" fill="#fff">
      <path d="M20 21H4V10H6V19H18V10H20V21M3 3H21V9H3V3M9.5 11H14.5C14.78 11 15 11.22 15 11.5V13H9V11.5C9 11.22 9.22 11 9.5 11M5 5V7H19V5H5Z" />
    </g>
    <g id="mdi-arm-flex" transform="translate(216 216) scale(1.5)" fill="#555">
      <path d="M3 18.34C3 18.34 4 7.09 7 3L12 4L11 7.09H9V14.25H10C12 11.18 16.14 10.06 18.64 11.18C21.94 12.71 21.64 17.32 18.64 19.36C16.24 21 9 22.43 3 18.34Z" />
    </g>
    <g id="mdi-arm-flex" transform="translate(252 216) scale(1.5)" fill="#fff">
      <path d="M3 18.34C3 18.34 4 7.09 7 3L12 4L11 7.09H9V14.25H10C12 11.18 16.14 10.06 18.64 11.18C21.94 12.71 21.64 17.32 18.64 19.36C16.24 21 9 22.43 3 18.34Z" />
    </g>
    <g id="mdi-arm-flex-outline" transform="translate(288 216) scale(1.5)" fill="#555">
      <path d="M7 7.76V16.25H11.08L11.68 15.34C12.84 13.55 14.93 12.75 16.47 12.75C17 12.75 17.45 12.84 17.79 13C18.7 13.41 18.95 14.18 19 14.74C19.08 15.87 18.5 17.03 17.5 17.71C16.6 18.33 14.44 19 11.87 19C10.12 19 7.61 18.69 5.12 17.3C5.41 14.85 6 10.88 7 7.76M7 3C4 7.09 3 18.34 3 18.34C5.9 20.31 9.08 21 11.87 21C14.86 21 17.39 20.21 18.64 19.36C21.64 17.32 21.94 12.71 18.64 11.18C18 10.89 17.26 10.75 16.47 10.75C14.17 10.75 11.5 11.96 10 14.25H9V7.09H11L12 4L7 3Z" />
    </g>
    <g id="mdi-arm-flex-outline" transform="translate(324 216) scale(1.5)" fill="#fff">
      <path d="M7 7.76V16.25H11.08L11.68 15.34C12.84 13.55 14.93 12.75 16.47 12.75C17 12.75 17.45 12.84 17.79 13C18.7 13.41 18.95 14.18 19 14.74C19.08 15.87 18.5 17.03 17.5 17.71C16.6 18.33 14.44 19 11.87 19C10.12 19 7.61 18.69 5.12 17.3C5.41 14.85 6 10.88 7 7.76M7 3C4 7.09 3 18.34 3 18.34C5.9 20.31 9.08 21 11.87 21C14.86 21 17.39 20.21 18.64 19.36C21.64 17.32 21.94 12.71 18.64 11.18C18 10.89 17.26 10.75 16.47 10.75C14.17 10.75 11.5 11.96 10 14.25H9V7.09H11L12 4L7 3Z" />
    </g>
    <g id="mdi-arrange-bring-forward" transform="translate(360 216) scale(1.5)" fill="#555">
      <path d="M2,2H16V16H2V2M22,8V22H8V18H10V20H20V10H18V8H22Z" />
    </g>
    <g id="mdi-arrange-bring-forward" transform="translate(396 216) scale(1.5)" fill="#fff">
      <path d="M2,2H16V16H2V2M22,8V22H8V18H10V20H20V10H18V8H22Z" />
    </g>
    <g id="mdi-arrange-bring-to-front" transform="translate(432 216) scale(1.5)" fill="#555">
      <path d="M2,2H11V6H9V4H4V9H6V11H2V2M22,13V22H13V18H15V20H20V15H18V13H22M8,8H16V16H8V8Z" />
    </g>
    <g id="mdi-arrange-bring-to-front" transform="translate(468 216) scale(1.5)" fill="#fff">
      <path d="M2,2H11V6H9V4H4V9H6V11H2V2M22,13V22H13V18H15V20H20V15H18V13H22M8,8H16V16H8V8Z" />
    </g>
    <g id="mdi-arrange-send-backward" transform="translate(504 216) scale(1.5)" fill="#555">
      <path d="M2,2H16V16H2V2M22,8V22H8V18H18V8H22M4,4V14H14V4H4Z" />
    </g>
    <g id="mdi-arrange-send-backward" transform="translate(540 216) scale(1.5)" fill="#fff">
      <path d="M2,2H16V16H2V2M22,8V22H8V18H18V8H22M4,4V14H14V4H4Z" />
    </g>
    <g id="mdi-arrange-send-to-back" transform="translate(576 216) scale(1.5)" fill="#555">
      <path d="M2,2H11V11H2V2M9,4H4V9H9V4M22,13V22H13V13H22M15,20H20V15H15V20M16,8V11H13V8H16M11,16H8V13H11V16Z" />
    </g>
    <g id="mdi-arrange-send-to-back" transform="translate(612 216) scale(1.5)" fill="#fff">
      <path d="M2,2H11V11H2V2M9,4H4V9H9V4M22,13V22H13V13H22M15,20H20V15H15V20M16,8V11H13V8H16M11,16H8V13H11V16Z" />
    </g>
    <g id="mdi-arrow-all" transform="translate(648 216) scale(1.5)" fill="#555">
      <path d="M13,11H18L16.5,9.5L17.92,8.08L21.84,12L17.92,15.92L16.5,14.5L18,13H13V18L14.5,16.5L15.92,17.92L12,21.84L8.08,17.92L9.5,16.5L11,18V13H6L7.5,14.5L6.08,15.92L2.16,12L6.08,8.08L7.5,9.5L6,11H11V6L9.5,7.5L8.08,6.08L12,2.16L15.92,6.08L14.5,7.5L13,6V11Z" />
    </g>
    <g id="mdi-arrow-all" transform="translate(684 216) scale(1.5)" fill="#fff">
      <path d="M13,11H18L16.5,9.5L17.92,8.08L21.84,12L17.92,15.92L16.5,14.5L18,13H13V18L14.5,16.5L15.92,17.92L12,21.84L8.08,17.92L9.5,16.5L11,18V13H6L7.5,14.5L6.08,15.92L2.16,12L6.08,8.08L7.5,9.5L6,11H11V6L9.5,7.5L8.08,6.08L12,2.16L15.92,6.08L14.5,7.5L13,6V11Z" />
    </g>
    <g id="mdi-arrow-bottom-left" transform="translate(0 252) scale(1.5)" fill="#555">
      <path d="M19,6.41L17.59,5L7,15.59V9H5V19H15V17H8.41L19,6.41Z" />
    </g>
    <g id="mdi-arrow-bottom-left" transform="translate(36 252) scale(1.5)" fill="#fff">
      <path d="M19,6.41L17.59,5L7,15.59V9H5V19H15V17H8.41L19,6.41Z" />
    </g>
    <g id="mdi-arrow-bottom-left-bold-outline" transform="translate(72 252) scale(1.5)" fill="#555">
      <path d="M18.36,19.78H4.22V5.64L8.47,9.88L14.12,4.22L19.78,9.88L14.12,15.54L18.36,19.78M6.34,17.66H13.41L11.29,15.54L16.95,9.88L14.12,7.05L8.46,12.71L6.34,10.59V17.66Z" />
    </g>
    <g id="mdi-arrow-bottom-left-bold-outline" transform="translate(108 252) scale(1.5)" fill="#fff">
      <path d="M18.36,19.78H4.22V5.64L8.47,9.88L14.12,4.22L19.78,9.88L14.12,15.54L18.36,19.78M6.34,17.66H13.41L11.29,15.54L16.95,9.88L14.12,7.05L8.46,12.71L6.34,10.59V17.66Z" />
    </g>
    <g id="mdi-arrow-bottom-left-thick" transform="translate(144 252) scale(1.5)" fill="#555">
      <path d="M15.5,5.69L18.31,8.5L11.94,14.89H16.89V18.31H5.69V7.11H9.12V12.06L15.5,5.69Z" />
    </g>
    <g id="mdi-arrow-bottom-left-thick" transform="translate(180 252) scale(1.5)" fill="#fff">
      <path d="M15.5,5.69L18.31,8.5L11.94,14.89H16.89V18.31H5.69V7.11H9.12V12.06L15.5,5.69Z" />
    </g>
    <g id="mdi-arrow-bottom-left-thin-circle-outline" transform="translate(216 252) scale(1.5)" fill="#555">
      <path d="M12 20.03C16.41 20.03 20.03 16.41 20.03 12C20.03 7.59 16.41 3.97 12 3.97C7.59 3.97 3.97 7.59 3.97 12C3.97 16.41 7.59 20.03 12 20.03M12 22C6.46 22 2 17.54 2 12C2 6.46 6.46 2 12 2C17.54 2 22 6.46 22 12C22 17.54 17.54 22 12 22M10.12 12.47L8 10.36V16H13.64L11.53 13.88L16.5 8.9L15.1 7.5" />
    </g>
    <g id="mdi-arrow-bottom-left-thin-circle-outline" transform="translate(252 252) scale(1.5)" fill="#fff">
      <path d="M12 20.03C16.41 20.03 20.03 16.41 20.03 12C20.03 7.59 16.41 3.97 12 3.97C7.59 3.97 3.97 7.59 3.97 12C3.97 16.41 7.59 20.03 12 20.03M12 22C6.46 22 2 17.54 2 12C2 6.46 6.46 2 12 2C17.54 2 22 6.46 22 12C22 17.54 17.54 22 12 22M10.12 12.47L8 10.36V16H13.64L11.53 13.88L16.5 8.9L15.1 7.5" />
    </g>
    <g id="mdi-arrow-bottom-right" transform="translate(288 252) scale(1.5)" fill="#555">
      <path d="M5,6.41L6.41,5L17,15.59V9H19V19H9V17H15.59L5,6.41Z" />
    </g>
    <g id="mdi-arrow-bottom-right" transform="translate(324 252) scale(1.5)" fill="#fff">
      <path d="M5,6.41L6.41,5L17,15.59V9H19V19H9V17H15.59L5,6.41Z" />
    </g>
    <g id="mdi-arrow-bottom-right-bold-outline" transform="translate(360 252) scale(1.5)" fill="#555">
      <path d="M9.88,15.54L4.22,9.88L9.88,4.22L15.54,9.88L19.78,5.64V19.78H5.64L9.88,15.54M17.66,10.59L15.54,12.71L9.88,7.05L7.05,9.88L12.71,15.54L10.59,17.66H17.66V10.59Z" />
    </g>
    <g id="mdi-arrow-bottom-right-bold-outline" transform="translate(396 252) scale(1.5)" fill="#fff">
      <path d="M9.88,15.54L4.22,9.88L9.88,4.22L15.54,9.88L19.78,5.64V19.78H5.64L9.88,15.54M17.66,10.59L15.54,12.71L9.88,7.05L7.05,9.88L12.71,15.54L10.59,17.66H17.66V10.59Z" />
    </g>
    <g id="mdi-arrow-bottom-right-thick" transform="translate(432 252) scale(1.5)" fill="#555">
      <path d="M14.89,12.06V7.11H18.31V18.31H7.11V14.89H12.06L5.69,8.5L8.5,5.69L14.89,12.06Z" />
    </g>
    <g id="mdi-arrow-bottom-right-thick" transform="translate(468 252) scale(1.5)" fill="#fff">
      <path d="M14.89,12.06V7.11H18.31V18.31H7.11V14.89H12.06L5.69,8.5L8.5,5.69L14.89,12.06Z" />
    </g>
    <g id="mdi-arrow-bottom-right-thin-circle-outline" transform="translate(504 252) scale(1.5)" fill="#555">
      <path d="M12 20.03C7.59 20.03 3.97 16.41 3.97 12C3.97 7.59 7.59 3.97 12 3.97C16.41 3.97 20.03 7.59 20.03 12C20.03 16.41 16.41 20.03 12 20.03M12 22C17.54 22 22 17.54 22 12C22 6.46 17.54 2 12 2C6.46 2 2 6.46 2 12C2 17.54 6.46 22 12 22M13.88 12.47L16 10.36V16H10.36L12.47 13.88L7.5 8.9L8.9 7.5" />
    </g>
    <g id="mdi-arrow-bottom-right-thin-circle-outline" transform="translate(540 252) scale(1.5)" fill="#fff">
      <path d="M12 20.03C7.59 20.03 3.97 16.41 3.97 12C3.97 7.59 7.59 3.97 12 3.97C16.41 3.97 20.03 7.59 20.03 12C20.03 16.41 16.41 20.03 12 20.03M12 22C17.54 22 22 17.54 22 12C22 6.46 17.54 2 12 2C6.46 2 2 6.46 2 12C2 17.54 6.46 22 12 22M13.88 12.47L16 10.36V16H10.36L12.47 13.88L7.5 8.9L8.9 7.5" />
    </g>
    <g id="mdi-arrow-collapse" transform="translate(576 252) scale(1.5)" fill="#555">
      <path d="M19.5,3.09L15,7.59V4H13V11H20V9H16.41L20.91,4.5L19.5,3.09M4,13V15H7.59L3.09,19.5L4.5,20.91L9,16.41V20H11V13H4Z" />
    </g>
    <g id="mdi-arrow-collapse" transform="translate(612 252) scale(1.5)" fill="#fff">
      <path d="M19.5,3.09L15,7.59V4H13V11H20V9H16.41L20.91,4.5L19.5,3.09M4,13V15H7.59L3.09,19.5L4.5,20.91L9,16.41V20H11V13H4Z" />
    </g>
    <g id="mdi-arrow-collapse-all" transform="translate(648 252) scale(1.5)" fill="#555">
      <path d="M19.5,3.09L20.91,4.5L16.41,9H20V11H13V4H15V7.59L19.5,3.09M20.91,19.5L19.5,20.91L15,16.41V20H13V13H20V15H16.41L20.91,19.5M4.5,3.09L9,7.59V4H11V11H4V9H7.59L3.09,4.5L4.5,3.09M3.09,19.5L7.59,15H4V13H11V20H9V16.41L4.5,20.91L3.09,19.5Z" />
    </g>
    <g id="mdi-arrow-collapse-all" transform="translate(684 252) scale(1.5)" fill="#fff">
      <path d="M19.5,3.09L20.91,4.5L16.41,9H20V11H13V4H15V7.59L19.5,3.09M20.91,19.5L19.5,20.91L15,16.41V20H13V13H20V15H16.41L20.91,19.5M4.5,3.09L9,7.59V4H11V11H4V9H7.59L3.09,4.5L4.5,3.09M3.09,19.5L7.59,15H4V13H11V20H9V16.41L4.5,20.91L3.09,19.5Z" />
    </g>
    <g id="mdi-arrow-collapse-down" transform="translate(0 288) scale(1.5)" fill="#555">
      <path d="M19.92,12.08L12,20L4.08,12.08L5.5,10.67L11,16.17V2H13V16.17L18.5,10.66L19.92,12.08M12,20H2V22H22V20H12Z" />
    </g>
    <g id="mdi-arrow-collapse-down" transform="translate(36 288) scale(1.5)" fill="#fff">
      <path d="M19.92,12.08L12,20L4.08,12.08L5.5,10.67L11,16.17V2H13V16.17L18.5,10.66L19.92,12.08M12,20H2V22H22V20H12Z" />
    </g>
    <g id="mdi-arrow-collapse-horizontal" transform="translate(72 288) scale(1.5)" fill="#555">
      <path d="M13,20V4H15.03V20H13M10,20V4H12.03V20H10M5,8L9.03,12L5,16V13H2V11H5V8M20,16L16,12L20,8V11H23V13H20V16Z" />
    </g>
    <g id="mdi-arrow-collapse-horizontal" transform="translate(108 288) scale(1.5)" fill="#fff">
      <path d="M13,20V4H15.03V20H13M10,20V4H12.03V20H10M5,8L9.03,12L5,16V13H2V11H5V8M20,16L16,12L20,8V11H23V13H20V16Z" />
    </g>
    <g id="mdi-arrow-collapse-left" transform="translate(144 288) scale(1.5)" fill="#555">
      <path d="M11.92,19.92L4,12L11.92,4.08L13.33,5.5L7.83,11H22V13H7.83L13.34,18.5L11.92,19.92M4,12V2H2V22H4V12Z" />
    </g>
    <g id="mdi-arrow-collapse-left" transform="translate(180 288) scale(1.5)" fill="#fff">
      <path d="M11.92,19.92L4,12L11.92,4.08L13.33,5.5L7.83,11H22V13H7.83L13.34,18.5L11.92,19.92M4,12V2H2V22H4V12Z" />
    </g>
    <g id="mdi-arrow-collapse-right" transform="translate(216 288) scale(1.5)" fill="#555">
      <path d="M12.08,4.08L20,12L12.08,19.92L10.67,18.5L16.17,13H2V11H16.17L10.67,5.5L12.08,4.08M20,12V22H22V2H20V12Z" />
    </g>
    <g id="mdi-arrow-collapse-right" transform="translate(252 288) scale(1.5)" fill="#fff">
      <path d="M12.08,4.08L20,12L12.08,19.92L10.67,18.5L16.17,13H2V11H16.17L10.67,5.5L12.08,4.08M20,12V22H22V2H20V12Z" />
    </g>
    <g id="mdi-arrow-collapse-up" transform="translate(288 288) scale(1.5)" fill="#555">
      <path d="M4.08,11.92L12,4L19.92,11.92L18.5,13.33L13,7.83V22H11V7.83L5.5,13.33L4.08,11.92M12,4H22V2H2V4H12Z" />
    </g>
    <g id="mdi-arrow-collapse-up" transform="translate(324 288) scale(1.5)" fill="#fff">
      <path d="M4.08,11.92L12,4L19.92,11.92L18.5,13.33L13,7.83V22H11V7.83L5.5,13.33L4.08,11.92M12,4H22V2H2V4H12Z" />
    </g>
    <g id="mdi-arrow-collapse-vertical" transform="translate(360 288) scale(1.5)" fill="#555">
      <path d="M4,12H20V14H4V12M4,9H20V11H4V9M16,4L12,8L8,4H11V1H13V4H16M8,19L12,15L16,19H13V22H11V19H8Z" />
    </g>
    <g id="mdi-arrow-collapse-vertical" transform="translate(396 288) scale(1.5)" fill="#fff">
      <path d="M4,12H20V14H4V12M4,9H20V11H4V9M16,4L12,8L8,4H11V1H13V4H16M8,19L12,15L16,19H13V22H11V19H8Z" />
    </g>
    <g id="mdi-arrow-decision" transform="translate(432 288) scale(1.5)" fill="#555">
      <path d="M11,5H8L12,1L16,5H13V9.43C12.25,9.89 11.58,10.46 11,11.12V5M22,11L18,7V10C14.39,9.85 11.31,12.57 11,16.17C9.44,16.72 8.62,18.44 9.17,20C9.72,21.56 11.44,22.38 13,21.83C14.56,21.27 15.38,19.56 14.83,18C14.53,17.14 13.85,16.47 13,16.17C13.47,12.17 17.47,11.97 17.95,11.97V14.97L22,11M10.63,11.59C9.3,10.57 7.67,10 6,10V7L2,11L6,15V12C7.34,12.03 8.63,12.5 9.64,13.4C9.89,12.76 10.22,12.15 10.63,11.59Z" />
    </g>
    <g id="mdi-arrow-decision" transform="translate(468 288) scale(1.5)" fill="#fff">
      <path d="M11,5H8L12,1L16,5H13V9.43C12.25,9.89 11.58,10.46 11,11.12V5M22,11L18,7V10C14.39,9.85 11.31,12.57 11,16.17C9.44,16.72 8.62,18.44 9.17,20C9.72,21.56 11.44,22.38 13,21.83C14.56,21.27 15.38,19.56 14.83,18C14.53,17.14 13.85,16.47 13,16.17C13.47,12.17 17.47,11.97 17.95,11.97V14.97L22,11M10.63,11.59C9.3,10.57 7.67,10 6,10V7L2,11L6,15V12C7.34,12.03 8.63,12.5 9.64,13.4C9.89,12.76 10.22,12.15 10.63,11.59Z" />
    </g>
    <g id="mdi-arrow-decision-auto" transform="translate(504 288) scale(1.5)" fill="#555">
      <path d="M12,5H9L13,1L17,5H14V9.43C13.25,9.89 12.58,10.46 12,11.12V5M10.4,15H8.5L7.8,13H4.6L3.9,15H2L5.2,6H7.2L10.4,15M7.35,11.65L6.2,8L5.05,11.65H7.35M23,11L19,7V10C15.39,9.85 12.31,12.57 12,16.17C10.44,16.72 9.62,18.44 10.17,20C10.72,21.56 12.44,22.38 14,21.83C15.56,21.27 16.38,19.56 15.83,18C15.53,17.14 14.85,16.47 14,16.17C14.47,12.17 18.47,11.97 18.95,11.97V14.97L23,11Z" />
    </g>
    <g id="mdi-arrow-decision-auto" transform="translate(540 288) scale(1.5)" fill="#fff">
      <path d="M12,5H9L13,1L17,5H14V9.43C13.25,9.89 12.58,10.46 12,11.12V5M10.4,15H8.5L7.8,13H4.6L3.9,15H2L5.2,6H7.2L10.4,15M7.35,11.65L6.2,8L5.05,11.65H7.35M23,11L19,7V10C15.39,9.85 12.31,12.57 12,16.17C10.44,16.72 9.62,18.44 10.17,20C10.72,21.56 12.44,22.38 14,21.83C15.56,21.27 16.38,19.56 15.83,18C15.53,17.14 14.85,16.47 14,16.17C14.47,12.17 18.47,11.97 18.95,11.97V14.97L23,11Z" />
    </g>
    <g id="mdi-arrow-decision-auto-outline" transform="translate(576 288) scale(1.5)" fill="#555">
      <path d="M19,15V12C18.5,12 14.5,12.16 14.05,16.2C15.61,16.75 16.43,18.47 15.88,20.03C15.33,21.59 13.61,22.41 12.05,21.86C10.5,21.3 9.67,19.59 10.22,18.03C10.5,17.17 11.2,16.5 12.05,16.2C12.34,12.61 15.4,9.88 19,10V7L23,11L19,15M14,19A1,1 0 0,0 13,18A1,1 0 0,0 12,19A1,1 0 0,0 13,20A1,1 0 0,0 14,19M12,11.12C12.58,10.46 13.25,9.89 14,9.43V5H17L13,1L9,5H12V11.12M7.2,6H5.2L2,15H3.9L4.6,13H7.8L8.5,15H10.4L7.2,6M5.05,11.65L6.2,8L7.35,11.65H5.05Z" />
    </g>
    <g id="mdi-arrow-decision-auto-outline" transform="translate(612 288) scale(1.5)" fill="#fff">
      <path d="M19,15V12C18.5,12 14.5,12.16 14.05,16.2C15.61,16.75 16.43,18.47 15.88,20.03C15.33,21.59 13.61,22.41 12.05,21.86C10.5,21.3 9.67,19.59 10.22,18.03C10.5,17.17 11.2,16.5 12.05,16.2C12.34,12.61 15.4,9.88 19,10V7L23,11L19,15M14,19A1,1 0 0,0 13,18A1,1 0 0,0 12,19A1,1 0 0,0 13,20A1,1 0 0,0 14,19M12,11.12C12.58,10.46 13.25,9.89 14,9.43V5H17L13,1L9,5H12V11.12M7.2,6H5.2L2,15H3.9L4.6,13H7.8L8.5,15H10.4L7.2,6M5.05,11.65L6.2,8L7.35,11.65H5.05Z" />
    </g>
    <g id="mdi-arrow-decision-outline" transform="translate(648 288) scale(1.5)" fill="#555">
      <path d="M9.64,13.4C8.63,12.5 7.34,12.03 6,12V15L2,11L6,7V10C7.67,10 9.3,10.57 10.63,11.59C10.22,12.15 9.89,12.76 9.64,13.4M18,15V12C17.5,12 13.5,12.16 13.05,16.2C14.61,16.75 15.43,18.47 14.88,20.03C14.33,21.59 12.61,22.41 11.05,21.86C9.5,21.3 8.67,19.59 9.22,18.03C9.5,17.17 10.2,16.5 11.05,16.2C11.34,12.61 14.4,9.88 18,10V7L22,11L18,15M13,19A1,1 0 0,0 12,18A1,1 0 0,0 11,19A1,1 0 0,0 12,20A1,1 0 0,0 13,19M11,11.12C11.58,10.46 12.25,9.89 13,9.43V5H16L12,1L8,5H11V11.12Z" />
    </g>
    <g id="mdi-arrow-decision-outline" transform="translate(684 288) scale(1.5)" fill="#fff">
      <path d="M9.64,13.4C8.63,12.5 7.34,12.03 6,12V15L2,11L6,7V10C7.67,10 9.3,10.57 10.63,11.59C10.22,12.15 9.89,12.76 9.64,13.4M18,15V12C17.5,12 13.5,12.16 13.05,16.2C14.61,16.75 15.43,18.47 14.88,20.03C14.33,21.59 12.61,22.41 11.05,21.86C9.5,21.3 8.67,19.59 9.22,18.03C9.5,17.17 10.2,16.5 11.05,16.2C11.34,12.61 14.4,9.88 18,10V7L22,11L18,15M13,19A1,1 0 0,0 12,18A1,1 0 0,0 11,19A1,1 0 0,0 12,20A1,1 0 0,0 13,19M11,11.12C11.58,10.46 12.25,9.89 13,9.43V5H16L12,1L8,5H11V11.12Z" />
    </g>
    <g id="mdi-arrow-down" transform="translate(0 324) scale(1.5)" fill="#555">
      <path d="M11,4H13V16L18.5,10.5L19.92,11.92L12,19.84L4.08,11.92L5.5,10.5L11,16V4Z" />
    </g>
    <g id="mdi-arrow-down" transform="translate(36 324) scale(1.5)" fill="#fff">
      <path d="M11,4H13V16L18.5,10.5L19.92,11.92L12,19.84L4.08,11.92L5.5,10.5L11,16V4Z" />
    </g>
    <g id="mdi-arrow-down-bold" transform="translate(72 324) scale(1.5)" fill="#555">
      <path d="M9,4H15V12H19.84L12,19.84L4.16,12H9V4Z" />
    </g>
    <g id="mdi-arrow-down-bold" transform="translate(108 324) scale(1.5)" fill="#fff">
      <path d="M9,4H15V12H19.84L12,19.84L4.16,12H9V4Z" />
    </g>
    <g id="mdi-arrow-down-bold-box" transform="translate(144 324) scale(1.5)" fill="#555">
      <path d="M5,3H19A2,2 0 0,1 21,5V19A2,2 0 0,1 19,21H5A2,2 0 0,1 3,19V5A2,2 0 0,1 5,3M12,17L17,12H14V8H10V12H7L12,17Z" />
    </g>
    <g id="mdi-arrow-down-bold-box" transform="translate(180 324) scale(1.5)" fill="#fff">
      <path d="M5,3H19A2,2 0 0,1 21,5V19A2,2 0 0,1 19,21H5A2,2 0 0,1 3,19V5A2,2 0 0,1 5,3M12,17L17,12H14V8H10V12H7L12,17Z" />
    </g>
    <g id="mdi-arrow-down-bold-box-outline" transform="translate(216 324) scale(1.5)" fill="#555">
      <path d="M12,17L7,12H10V8H14V12H17L12,17M5,3H19A2,2 0 0,1 21,5V19A2,2 0 0,1 19,21H5A2,2 0 0,1 3,19V5A2,2 0 0,1 5,3M5,5V19H19V5H5Z" />
    </g>
    <g id="mdi-arrow-down-bold-box-outline" transform="translate(252 324) scale(1.5)" fill="#fff">
      <path d="M12,17L7,12H10V8H14V12H17L12,17M5,3H19A2,2 0 0,1 21,5V19A2,2 0 0,1 19,21H5A2,2 0 0,1 3,19V5A2,2 0 0,1 5,3M5,5V19H19V5H5Z" />
    </g>
    <g id="mdi-arrow-down-bold-circle" transform="translate(288 324) scale(1.5)" fill="#555">
      <path d="M12,2A10,10 0 0,1 22,12A10,10 0 0,1 12,22A10,10 0 0,1 2,12A10,10 0 0,1 12,2M12,17L17,12H14V8H10V12H7L12,17Z" />
    </g>
    <g id="mdi-arrow-down-bold-circle" transform="translate(324 324) scale(1.5)" fill="#fff">
      <path d="M12,2A10,10 0 0,1 22,12A10,10 0 0,1 12,22A10,10 0 0,1 2,12A10,10 0 0,1 12,2M12,17L17,12H14V8H10V12H7L12,17Z" />
    </g>
    <g id="mdi-arrow-down-bold-circle-outline" transform="translate(360 324) scale(1.5)" fill="#555">
      <path d="M12,17L7,12H10V8H14V12H17L12,17M12,2A10,10 0 0,1 22,12A10,10 0 0,1 12,22A10,10 0 0,1 2,12A10,10 0 0,1 12,2M12,4A8,8 0 0,0 4,12A8,8 0 0,0 12,20A8,8 0 0,0 20,12A8,8 0 0,0 12,4Z" />
    </g>
    <g id="mdi-arrow-down-bold-circle-outline" transform="translate(396 324) scale(1.5)" fill="#fff">
      <path d="M12,17L7,12H10V8H14V12H17L12,17M12,2A10,10 0 0,1 22,12A10,10 0 0,1 12,22A10,10 0 0,1 2,12A10,10 0 0,1 12,2M12,4A8,8 0 0,0 4,12A8,8 0 0,0 12,20A8,8 0 0,0 20,12A8,8 0 0,0 12,4Z" />
    </g>
    <g id="mdi-arrow-down-bold-hexagon-outline" transform="translate(432 324) scale(1.5)" fill="#555">
      <path d="M12,17L7,12H10V8H14V12H17L12,17M21,16.5C21,16.88 20.79,17.21 20.47,17.38L12.57,21.82C12.41,21.94 12.21,22 12,22C11.79,22 11.59,21.94 11.43,21.82L3.53,17.38C3.21,17.21 3,16.88 3,16.5V7.5C3,7.12 3.21,6.79 3.53,6.62L11.43,2.18C11.59,2.06 11.79,2 12,2C12.21,2 12.41,2.06 12.57,2.18L20.47,6.62C20.79,6.79 21,7.12 21,7.5V16.5M12,4.15L5,8.09V15.91L12,19.85L19,15.91V8.09L12,4.15Z" />
    </g>
    <g id="mdi-arrow-down-bold-hexagon-outline" transform="translate(468 324) scale(1.5)" fill="#fff">
      <path d="M12,17L7,12H10V8H14V12H17L12,17M21,16.5C21,16.88 20.79,17.21 20.47,17.38L12.57,21.82C12.41,21.94 12.21,22 12,22C11.79,22 11.59,21.94 11.43,21.82L3.53,17.38C3.21,17.21 3,16.88 3,16.5V7.5C3,7.12 3.21,6.79 3.53,6.62L11.43,2.18C11.59,2.06 11.79,2 12,2C12.21,2 12.41,2.06 12.57,2.18L20.47,6.62C20.79,6.79 21,7.12 21,7.5V16.5M12,4.15L5,8.09V15.91L12,19.85L19,15.91V8.09L12,4.15Z" />
    </g>
    <g id="mdi-arrow-down-bold-outline" transform="translate(504 324) scale(1.5)" fill="#555">
      <path d="M22,11L12,21L2,11H8V3H16V11H22M12,18L17,13H14V5H10V13H7L12,18Z" />
    </g>
    <g id="mdi-arrow-down-bold-outline" transform="translate(540 324) scale(1.5)" fill="#fff">
      <path d="M22,11L12,21L2,11H8V3H16V11H22M12,18L17,13H14V5H10V13H7L12,18Z" />
    </g>
    <g id="mdi-arrow-down-box" transform="translate(576 324) scale(1.5)" fill="#555">
      <path d="M3,5A2,2 0 0,1 5,3H19A2,2 0 0,1 21,5V19A2,2 0 0,1 19,21H5C3.89,21 3,20.1 3,19V5M11,6V14.5L7.5,11L6.08,12.42L12,18.34L17.92,12.42L16.5,11L13,14.5V6H11Z" />
    </g>
    <g id="mdi-arrow-down-box" transform="translate(612 324) scale(1.5)" fill="#fff">
      <path d="M3,5A2,2 0 0,1 5,3H19A2,2 0 0,1 21,5V19A2,2 0 0,1 19,21H5C3.89,21 3,20.1 3,19V5M11,6V14.5L7.5,11L6.08,12.42L12,18.34L17.92,12.42L16.5,11L13,14.5V6H11Z" />
    </g>
    <g id="mdi-arrow-down-circle" transform="translate(648 324) scale(1.5)" fill="#555">
      <path d="M11,6V14L7.5,10.5L6.08,11.92L12,17.84L17.92,11.92L16.5,10.5L13,14V6H11M12,22A10,10 0 0,1 2,12A10,10 0 0,1 12,2A10,10 0 0,1 22,12A10,10 0 0,1 12,22Z" />
    </g>
    <g id="mdi-arrow-down-circle" transform="translate(684 324) scale(1.5)" fill="#fff">
      <path d="M11,6V14L7.5,10.5L6.08,11.92L12,17.84L17.92,11.92L16.5,10.5L13,14V6H11M12,22A10,10 0 0,1 2,12A10,10 0 0,1 12,2A10,10 0 0,1 22,12A10,10 0 0,1 12,22Z" />
    </g>
  </svg>