<?xml version="1.0" encoding="UTF-8"?>
<!DOCTYPE svg PUBLIC "-//W3C//DTD SVG 1.1//EN" "http://www.w3.org/Graphics/SVG/1.1/DTD/svg11.dtd"><svg
  xmlns="http://www.w3.org/2000/svg" xmlns:xlink="http://www.w3.org/1999/xlink" version="1.1"
  width="720" height="900" viewBox="0 0 720 900">
    <g id="mdi-arrow-top-left-bold-outline" transform="translate(0 0) scale(1.5)" fill="#555">
      <path d="M14.12,8.46L19.78,14.12L14.12,19.78L8.46,14.12L4.22,18.36V4.22H18.36L14.12,8.46M6.34,13.41L8.46,11.29L14.12,16.95L16.95,14.12L11.29,8.47L13.41,6.34H6.34V13.41Z" />
    </g>
    <g id="mdi-arrow-top-left-bold-outline" transform="translate(36 0) scale(1.5)" fill="#fff">
      <path d="M14.12,8.46L19.78,14.12L14.12,19.78L8.46,14.12L4.22,18.36V4.22H18.36L14.12,8.46M6.34,13.41L8.46,11.29L14.12,16.95L16.95,14.12L11.29,8.47L13.41,6.34H6.34V13.41Z" />
    </g>
    <g id="mdi-arrow-top-left-bottom-right" transform="translate(72 0) scale(1.5)" fill="#555">
      <path d="M13,21H21V13H19V17.59L6.41,5H11V3H3V11H5V6.41L17.59,19H13V21Z" />
    </g>
    <g id="mdi-arrow-top-left-bottom-right" transform="translate(108 0) scale(1.5)" fill="#fff">
      <path d="M13,21H21V13H19V17.59L6.41,5H11V3H3V11H5V6.41L17.59,19H13V21Z" />
    </g>
    <g id="mdi-arrow-top-left-bottom-right-bold" transform="translate(144 0) scale(1.5)" fill="#555">
      <path d="M5.83,8.66L3,11.5V3H11.5L8.66,5.83L18.17,15.34L21,12.5V21H12.5L15.34,18.17L5.83,8.66Z" />
    </g>
    <g id="mdi-arrow-top-left-bottom-right-bold" transform="translate(180 0) scale(1.5)" fill="#fff">
      <path d="M5.83,8.66L3,11.5V3H11.5L8.66,5.83L18.17,15.34L21,12.5V21H12.5L15.34,18.17L5.83,8.66Z" />
    </g>
    <g id="mdi-arrow-top-left-thick" transform="translate(216 0) scale(1.5)" fill="#555">
      <path d="M9.12,11.94V16.89H5.69V5.69H16.89V9.12H11.94L18.31,15.5L15.5,18.31L9.12,11.94Z" />
    </g>
    <g id="mdi-arrow-top-left-thick" transform="translate(252 0) scale(1.5)" fill="#fff">
      <path d="M9.12,11.94V16.89H5.69V5.69H16.89V9.12H11.94L18.31,15.5L15.5,18.31L9.12,11.94Z" />
    </g>
    <g id="mdi-arrow-top-right" transform="translate(288 0) scale(1.5)" fill="#555">
      <path d="M5,17.59L15.59,7H9V5H19V15H17V8.41L6.41,19L5,17.59Z" />
    </g>
    <g id="mdi-arrow-top-right" transform="translate(324 0) scale(1.5)" fill="#fff">
      <path d="M5,17.59L15.59,7H9V5H19V15H17V8.41L6.41,19L5,17.59Z" />
    </g>
    <g id="mdi-arrow-top-right-bold-outline" transform="translate(360 0) scale(1.5)" fill="#555">
      <path d="M5.64,4.22H19.78V18.36L15.54,14.12L9.88,19.78L4.22,14.12L9.88,8.46L5.64,4.22M17.66,6.34H10.59L12.71,8.46L7.05,14.12L9.88,16.95L15.54,11.29L17.66,13.41V6.34H17.66Z" />
    </g>
    <g id="mdi-arrow-top-right-bold-outline" transform="translate(396 0) scale(1.5)" fill="#fff">
      <path d="M5.64,4.22H19.78V18.36L15.54,14.12L9.88,19.78L4.22,14.12L9.88,8.46L5.64,4.22M17.66,6.34H10.59L12.71,8.46L7.05,14.12L9.88,16.95L15.54,11.29L17.66,13.41V6.34H17.66Z" />
    </g>
    <g id="mdi-arrow-top-right-bottom-left" transform="translate(432 0) scale(1.5)" fill="#555">
      <path d="M11,21H3V13H5V17.59L17.59,5H13V3H21V11H19V6.41L6.41,19H11V21Z" />
    </g>
    <g id="mdi-arrow-top-right-bottom-left" transform="translate(468 0) scale(1.5)" fill="#fff">
      <path d="M11,21H3V13H5V17.59L17.59,5H13V3H21V11H19V6.41L6.41,19H11V21Z" />
    </g>
    <g id="mdi-arrow-top-right-bottom-left-bold" transform="translate(504 0) scale(1.5)" fill="#555">
      <path d="M18.17,8.66L21,11.5V3H12.5L15.34,5.83L5.83,15.34L3,12.5V21H11.5L8.66,18.17L18.17,8.66Z" />
    </g>
    <g id="mdi-arrow-top-right-bottom-left-bold" transform="translate(540 0) scale(1.5)" fill="#fff">
      <path d="M18.17,8.66L21,11.5V3H12.5L15.34,5.83L5.83,15.34L3,12.5V21H11.5L8.66,18.17L18.17,8.66Z" />
    </g>
    <g id="mdi-arrow-top-right-thick" transform="translate(576 0) scale(1.5)" fill="#555">
      <path d="M8.5,18.31L5.69,15.5L12.06,9.12H7.11V5.69H18.31V16.89H14.89V11.94L8.5,18.31Z" />
    </g>
    <g id="mdi-arrow-top-right-thick" transform="translate(612 0) scale(1.5)" fill="#fff">
      <path d="M8.5,18.31L5.69,15.5L12.06,9.12H7.11V5.69H18.31V16.89H14.89V11.94L8.5,18.31Z" />
    </g>
    <g id="mdi-arrow-up" transform="translate(648 0) scale(1.5)" fill="#555">
      <path d="M13,20H11V8L5.5,13.5L4.08,12.08L12,4.16L19.92,12.08L18.5,13.5L13,8V20Z" />
    </g>
    <g id="mdi-arrow-up" transform="translate(684 0) scale(1.5)" fill="#fff">
      <path d="M13,20H11V8L5.5,13.5L4.08,12.08L12,4.16L19.92,12.08L18.5,13.5L13,8V20Z" />
    </g>
    <g id="mdi-arrow-up-bold" transform="translate(0 36) scale(1.5)" fill="#555">
      <path d="M15,20H9V12H4.16L12,4.16L19.84,12H15V20Z" />
    </g>
    <g id="mdi-arrow-up-bold" transform="translate(36 36) scale(1.5)" fill="#fff">
      <path d="M15,20H9V12H4.16L12,4.16L19.84,12H15V20Z" />
    </g>
    <g id="mdi-arrow-up-bold-box" transform="translate(72 36) scale(1.5)" fill="#555">
      <path d="M19,21H5A2,2 0 0,1 3,19V5A2,2 0 0,1 5,3H19A2,2 0 0,1 21,5V19A2,2 0 0,1 19,21M12,7L7,12H10V16H14V12H17L12,7Z" />
    </g>
    <g id="mdi-arrow-up-bold-box" transform="translate(108 36) scale(1.5)" fill="#fff">
      <path d="M19,21H5A2,2 0 0,1 3,19V5A2,2 0 0,1 5,3H19A2,2 0 0,1 21,5V19A2,2 0 0,1 19,21M12,7L7,12H10V16H14V12H17L12,7Z" />
    </g>
    <g id="mdi-arrow-up-bold-box-outline" transform="translate(144 36) scale(1.5)" fill="#555">
      <path d="M12,7L17,12H14V16H10V12H7L12,7M19,21H5A2,2 0 0,1 3,19V5A2,2 0 0,1 5,3H19A2,2 0 0,1 21,5V19A2,2 0 0,1 19,21M19,19V5H5V19H19Z" />
    </g>
    <g id="mdi-arrow-up-bold-box-outline" transform="translate(180 36) scale(1.5)" fill="#fff">
      <path d="M12,7L17,12H14V16H10V12H7L12,7M19,21H5A2,2 0 0,1 3,19V5A2,2 0 0,1 5,3H19A2,2 0 0,1 21,5V19A2,2 0 0,1 19,21M19,19V5H5V19H19Z" />
    </g>
    <g id="mdi-arrow-up-bold-circle" transform="translate(216 36) scale(1.5)" fill="#555">
      <path d="M12,22A10,10 0 0,1 2,12A10,10 0 0,1 12,2A10,10 0 0,1 22,12A10,10 0 0,1 12,22M12,7L7,12H10V16H14V12H17L12,7Z" />
    </g>
    <g id="mdi-arrow-up-bold-circle" transform="translate(252 36) scale(1.5)" fill="#fff">
      <path d="M12,22A10,10 0 0,1 2,12A10,10 0 0,1 12,2A10,10 0 0,1 22,12A10,10 0 0,1 12,22M12,7L7,12H10V16H14V12H17L12,7Z" />
    </g>
    <g id="mdi-arrow-up-bold-circle-outline" transform="translate(288 36) scale(1.5)" fill="#555">
      <path d="M12,7L17,12H14V16H10V12H7L12,7M12,22A10,10 0 0,1 2,12A10,10 0 0,1 12,2A10,10 0 0,1 22,12A10,10 0 0,1 12,22M12,20A8,8 0 0,0 20,12A8,8 0 0,0 12,4A8,8 0 0,0 4,12A8,8 0 0,0 12,20Z" />
    </g>
    <g id="mdi-arrow-up-bold-circle-outline" transform="translate(324 36) scale(1.5)" fill="#fff">
      <path d="M12,7L17,12H14V16H10V12H7L12,7M12,22A10,10 0 0,1 2,12A10,10 0 0,1 12,2A10,10 0 0,1 22,12A10,10 0 0,1 12,22M12,20A8,8 0 0,0 20,12A8,8 0 0,0 12,4A8,8 0 0,0 4,12A8,8 0 0,0 12,20Z" />
    </g>
    <g id="mdi-arrow-up-bold-hexagon-outline" transform="translate(360 36) scale(1.5)" fill="#555">
      <path d="M12,7L17,12H14V16H10V12H7L12,7M21,16.5C21,16.88 20.79,17.21 20.47,17.38L12.57,21.82C12.41,21.94 12.21,22 12,22C11.79,22 11.59,21.94 11.43,21.82L3.53,17.38C3.21,17.21 3,16.88 3,16.5V7.5C3,7.12 3.21,6.79 3.53,6.62L11.43,2.18C11.59,2.06 11.79,2 12,2C12.21,2 12.41,2.06 12.57,2.18L20.47,6.62C20.79,6.79 21,7.12 21,7.5V16.5M12,4.15L5,8.09V15.91L12,19.85L19,15.91V8.09L12,4.15Z" />
    </g>
    <g id="mdi-arrow-up-bold-hexagon-outline" transform="translate(396 36) scale(1.5)" fill="#fff">
      <path d="M12,7L17,12H14V16H10V12H7L12,7M21,16.5C21,16.88 20.79,17.21 20.47,17.38L12.57,21.82C12.41,21.94 12.21,22 12,22C11.79,22 11.59,21.94 11.43,21.82L3.53,17.38C3.21,17.21 3,16.88 3,16.5V7.5C3,7.12 3.21,6.79 3.53,6.62L11.43,2.18C11.59,2.06 11.79,2 12,2C12.21,2 12.41,2.06 12.57,2.18L20.47,6.62C20.79,6.79 21,7.12 21,7.5V16.5M12,4.15L5,8.09V15.91L12,19.85L19,15.91V8.09L12,4.15Z" />
    </g>
    <g id="mdi-arrow-up-bold-outline" transform="translate(432 36) scale(1.5)" fill="#555">
      <path d="M16,13V21H8V13H2L12,3L22,13H16M7,11H10V19H14V11H17L12,6L7,11Z" />
    </g>
    <g id="mdi-arrow-up-bold-outline" transform="translate(468 36) scale(1.5)" fill="#fff">
      <path d="M16,13V21H8V13H2L12,3L22,13H16M7,11H10V19H14V11H17L12,6L7,11Z" />
    </g>
    <g id="mdi-arrow-up-box" transform="translate(504 36) scale(1.5)" fill="#555">
      <path d="M21,19A2,2 0 0,1 19,21H5A2,2 0 0,1 3,19V5A2,2 0 0,1 5,3H19C20.11,3 21,3.9 21,5V19M13,18V9.5L16.5,13L17.92,11.58L12,5.66L6.08,11.58L7.5,13L11,9.5V18H13Z" />
    </g>
    <g id="mdi-arrow-up-box" transform="translate(540 36) scale(1.5)" fill="#fff">
      <path d="M21,19A2,2 0 0,1 19,21H5A2,2 0 0,1 3,19V5A2,2 0 0,1 5,3H19C20.11,3 21,3.9 21,5V19M13,18V9.5L16.5,13L17.92,11.58L12,5.66L6.08,11.58L7.5,13L11,9.5V18H13Z" />
    </g>
    <g id="mdi-arrow-up-circle" transform="translate(576 36) scale(1.5)" fill="#555">
      <path d="M13,18V10L16.5,13.5L17.92,12.08L12,6.16L6.08,12.08L7.5,13.5L11,10V18H13M12,2A10,10 0 0,1 22,12A10,10 0 0,1 12,22A10,10 0 0,1 2,12A10,10 0 0,1 12,2Z" />
    </g>
    <g id="mdi-arrow-up-circle" transform="translate(612 36) scale(1.5)" fill="#fff">
      <path d="M13,18V10L16.5,13.5L17.92,12.08L12,6.16L6.08,12.08L7.5,13.5L11,10V18H13M12,2A10,10 0 0,1 22,12A10,10 0 0,1 12,22A10,10 0 0,1 2,12A10,10 0 0,1 12,2Z" />
    </g>
    <g id="mdi-arrow-up-circle-outline" transform="translate(648 36) scale(1.5)" fill="#555">
      <path d="M13,18H11V10L7.5,13.5L6.08,12.08L12,6.16L17.92,12.08L16.5,13.5L13,10V18M12,2A10,10 0 0,1 22,12A10,10 0 0,1 12,22A10,10 0 0,1 2,12A10,10 0 0,1 12,2M12,4A8,8 0 0,0 4,12A8,8 0 0,0 12,20A8,8 0 0,0 20,12A8,8 0 0,0 12,4Z" />
    </g>
    <g id="mdi-arrow-up-circle-outline" transform="translate(684 36) scale(1.5)" fill="#fff">
      <path d="M13,18H11V10L7.5,13.5L6.08,12.08L12,6.16L17.92,12.08L16.5,13.5L13,10V18M12,2A10,10 0 0,1 22,12A10,10 0 0,1 12,22A10,10 0 0,1 2,12A10,10 0 0,1 12,2M12,4A8,8 0 0,0 4,12A8,8 0 0,0 12,20A8,8 0 0,0 20,12A8,8 0 0,0 12,4Z" />
    </g>
    <g id="mdi-arrow-up-down" transform="translate(0 72) scale(1.5)" fill="#555">
      <path d="M17.45,17.55L12,23L6.55,17.55L7.96,16.14L11,19.17V4.83L7.96,7.86L6.55,6.45L12,1L17.45,6.45L16.04,7.86L13,4.83V19.17L16.04,16.14L17.45,17.55Z" />
    </g>
    <g id="mdi-arrow-up-down" transform="translate(36 72) scale(1.5)" fill="#fff">
      <path d="M17.45,17.55L12,23L6.55,17.55L7.96,16.14L11,19.17V4.83L7.96,7.86L6.55,6.45L12,1L17.45,6.45L16.04,7.86L13,4.83V19.17L16.04,16.14L17.45,17.55Z" />
    </g>
    <g id="mdi-arrow-up-down-bold" transform="translate(72 72) scale(1.5)" fill="#555">
      <path d="M10,8H6L12,2L18,8H14V16H18L12,22L6,16H10V8Z" />
    </g>
    <g id="mdi-arrow-up-down-bold" transform="translate(108 72) scale(1.5)" fill="#fff">
      <path d="M10,8H6L12,2L18,8H14V16H18L12,22L6,16H10V8Z" />
    </g>
    <g id="mdi-arrow-up-down-bold-outline" transform="translate(144 72) scale(1.5)" fill="#555">
      <path d="M16,10H22L12,0L2,10H8V14H2L12,24L22,14H16V10M14,16H17L12,21L7,16H10V8H7L12,3L17,8H14V16Z" />
    </g>
    <g id="mdi-arrow-up-down-bold-outline" transform="translate(180 72) scale(1.5)" fill="#fff">
      <path d="M16,10H22L12,0L2,10H8V14H2L12,24L22,14H16V10M14,16H17L12,21L7,16H10V8H7L12,3L17,8H14V16Z" />
    </g>
    <g id="mdi-arrow-up-drop-circle" transform="translate(216 72) scale(1.5)" fill="#555">
      <path d="M12,22A10,10 0 0,1 2,12A10,10 0 0,1 12,2A10,10 0 0,1 22,12A10,10 0 0,1 12,22M17,14L12,9L7,14H17Z" />
    </g>
    <g id="mdi-arrow-up-drop-circle" transform="translate(252 72) scale(1.5)" fill="#fff">
      <path d="M12,22A10,10 0 0,1 2,12A10,10 0 0,1 12,2A10,10 0 0,1 22,12A10,10 0 0,1 12,22M17,14L12,9L7,14H17Z" />
    </g>
    <g id="mdi-arrow-up-drop-circle-outline" transform="translate(288 72) scale(1.5)" fill="#555">
      <path d="M12,22A10,10 0 0,0 22,12A10,10 0 0,0 12,2A10,10 0 0,0 2,12A10,10 0 0,0 12,22M12,20A8,8 0 0,1 4,12A8,8 0 0,1 12,4A8,8 0 0,1 20,12A8,8 0 0,1 12,20M17,14L12,9L7,14H17Z" />
    </g>
    <g id="mdi-arrow-up-drop-circle-outline" transform="translate(324 72) scale(1.5)" fill="#fff">
      <path d="M12,22A10,10 0 0,0 22,12A10,10 0 0,0 12,2A10,10 0 0,0 2,12A10,10 0 0,0 12,22M12,20A8,8 0 0,1 4,12A8,8 0 0,1 12,4A8,8 0 0,1 20,12A8,8 0 0,1 12,20M17,14L12,9L7,14H17Z" />
    </g>
    <g id="mdi-arrow-up-thick" transform="translate(360 72) scale(1.5)" fill="#555">
      <path d="M14,20H10V11L6.5,14.5L4.08,12.08L12,4.16L19.92,12.08L17.5,14.5L14,11V20Z" />
    </g>
    <g id="mdi-arrow-up-thick" transform="translate(396 72) scale(1.5)" fill="#fff">
      <path d="M14,20H10V11L6.5,14.5L4.08,12.08L12,4.16L19.92,12.08L17.5,14.5L14,11V20Z" />
    </g>
    <g id="mdi-arrow-vertical-lock" transform="translate(432 72) scale(1.5)" fill="#555">
      <path d="M18.8 11V9.5C18.8 8.1 17.4 7 16 7S13.2 8.1 13.2 9.5V11C12.6 11 12 11.6 12 12.2V15.7C12 16.4 12.6 17 13.2 17H18.7C19.4 17 20 16.4 20 15.8V12.3C20 11.6 19.4 11 18.8 11M17.5 11H14.5V9.5C14.5 8.7 15.2 8.2 16 8.2C16.8 8.2 17.5 8.7 17.5 9.5V11M9 6H12L8 2L4 6H7V18H4L8 22L12 18H9V6Z" />
    </g>
    <g id="mdi-arrow-vertical-lock" transform="translate(468 72) scale(1.5)" fill="#fff">
      <path d="M18.8 11V9.5C18.8 8.1 17.4 7 16 7S13.2 8.1 13.2 9.5V11C12.6 11 12 11.6 12 12.2V15.7C12 16.4 12.6 17 13.2 17H18.7C19.4 17 20 16.4 20 15.8V12.3C20 11.6 19.4 11 18.8 11M17.5 11H14.5V9.5C14.5 8.7 15.2 8.2 16 8.2C16.8 8.2 17.5 8.7 17.5 9.5V11M9 6H12L8 2L4 6H7V18H4L8 22L12 18H9V6Z" />
    </g>
    <g id="mdi-artist" transform="translate(504 72) scale(1.5)" fill="#555">
      <path d="M11,14C12,14 13.05,14.16 14.2,14.44C13.39,15.31 13,16.33 13,17.5C13,18.39 13.25,19.23 13.78,20H3V18C3,16.81 3.91,15.85 5.74,15.12C7.57,14.38 9.33,14 11,14M11,12C9.92,12 9,11.61 8.18,10.83C7.38,10.05 7,9.11 7,8C7,6.92 7.38,6 8.18,5.18C9,4.38 9.92,4 11,4C12.11,4 13.05,4.38 13.83,5.18C14.61,6 15,6.92 15,8C15,9.11 14.61,10.05 13.83,10.83C13.05,11.61 12.11,12 11,12M18.5,10H20L22,10V12H20V17.5A2.5,2.5 0 0,1 17.5,20A2.5,2.5 0 0,1 15,17.5A2.5,2.5 0 0,1 17.5,15C17.86,15 18.19,15.07 18.5,15.21V10Z" />
    </g>
    <g id="mdi-artist" transform="translate(540 72) scale(1.5)" fill="#fff">
      <path d="M11,14C12,14 13.05,14.16 14.2,14.44C13.39,15.31 13,16.33 13,17.5C13,18.39 13.25,19.23 13.78,20H3V18C3,16.81 3.91,15.85 5.74,15.12C7.57,14.38 9.33,14 11,14M11,12C9.92,12 9,11.61 8.18,10.83C7.38,10.05 7,9.11 7,8C7,6.92 7.38,6 8.18,5.18C9,4.38 9.92,4 11,4C12.11,4 13.05,4.38 13.83,5.18C14.61,6 15,6.92 15,8C15,9.11 14.61,10.05 13.83,10.83C13.05,11.61 12.11,12 11,12M18.5,10H20L22,10V12H20V17.5A2.5,2.5 0 0,1 17.5,20A2.5,2.5 0 0,1 15,17.5A2.5,2.5 0 0,1 17.5,15C17.86,15 18.19,15.07 18.5,15.21V10Z" />
    </g>
    <g id="mdi-artist-outline" transform="translate(576 72) scale(1.5)" fill="#555">
      <path d="M11,4A4,4 0 0,1 15,8A4,4 0 0,1 11,12A4,4 0 0,1 7,8A4,4 0 0,1 11,4M11,6A2,2 0 0,0 9,8A2,2 0 0,0 11,10A2,2 0 0,0 13,8A2,2 0 0,0 11,6M11,13C12.1,13 13.66,13.23 15.11,13.69C14.5,14.07 14,14.6 13.61,15.23C12.79,15.03 11.89,14.9 11,14.9C8.03,14.9 4.9,16.36 4.9,17V18.1H13.04C13.13,18.8 13.38,19.44 13.76,20H3V17C3,14.34 8.33,13 11,13M18.5,10H20L22,10V12H20V17.5A2.5,2.5 0 0,1 17.5,20A2.5,2.5 0 0,1 15,17.5A2.5,2.5 0 0,1 17.5,15C17.86,15 18.19,15.07 18.5,15.21V10Z" />
    </g>
    <g id="mdi-artist-outline" transform="translate(612 72) scale(1.5)" fill="#fff">
      <path d="M11,4A4,4 0 0,1 15,8A4,4 0 0,1 11,12A4,4 0 0,1 7,8A4,4 0 0,1 11,4M11,6A2,2 0 0,0 9,8A2,2 0 0,0 11,10A2,2 0 0,0 13,8A2,2 0 0,0 11,6M11,13C12.1,13 13.66,13.23 15.11,13.69C14.5,14.07 14,14.6 13.61,15.23C12.79,15.03 11.89,14.9 11,14.9C8.03,14.9 4.9,16.36 4.9,17V18.1H13.04C13.13,18.8 13.38,19.44 13.76,20H3V17C3,14.34 8.33,13 11,13M18.5,10H20L22,10V12H20V17.5A2.5,2.5 0 0,1 17.5,20A2.5,2.5 0 0,1 15,17.5A2.5,2.5 0 0,1 17.5,15C17.86,15 18.19,15.07 18.5,15.21V10Z" />
    </g>
    <g id="mdi-artstation" transform="translate(648 72) scale(1.5)" fill="#555">
      <path d="M1.77,16.88L3.5,19.86C3.84,20.54 4.54,21 5.33,21H16.79L14.43,16.88H1.77M22.23,16.9C22.23,16.5 22.11,16.11 21.9,15.78L15.17,4.1C14.82,3.44 14.15,3 13.35,3H9.8L20.18,21L21.82,18.14C22.13,17.6 22.23,17.36 22.23,16.9M12.73,13.94L8.1,5.92L3.45,13.94H12.73Z" />
    </g>
    <g id="mdi-artstation" transform="translate(684 72) scale(1.5)" fill="#fff">
      <path d="M1.77,16.88L3.5,19.86C3.84,20.54 4.54,21 5.33,21H16.79L14.43,16.88H1.77M22.23,16.9C22.23,16.5 22.11,16.11 21.9,15.78L15.17,4.1C14.82,3.44 14.15,3 13.35,3H9.8L20.18,21L21.82,18.14C22.13,17.6 22.23,17.36 22.23,16.9M12.73,13.94L8.1,5.92L3.45,13.94H12.73Z" />
    </g>
    <g id="mdi-aspect-ratio" transform="translate(0 108) scale(1.5)" fill="#555">
      <path d="M19,12H17V15H14V17H19V12M7,9H10V7H5V12H7V9M21,3H3A2,2 0 0,0 1,5V19A2,2 0 0,0 3,21H21A2,2 0 0,0 23,19V5A2,2 0 0,0 21,3M21,19H3V5H21V19Z" />
    </g>
    <g id="mdi-aspect-ratio" transform="translate(36 108) scale(1.5)" fill="#fff">
      <path d="M19,12H17V15H14V17H19V12M7,9H10V7H5V12H7V9M21,3H3A2,2 0 0,0 1,5V19A2,2 0 0,0 3,21H21A2,2 0 0,0 23,19V5A2,2 0 0,0 21,3M21,19H3V5H21V19Z" />
    </g>
    <g id="mdi-assistant" transform="translate(72 108) scale(1.5)" fill="#555">
      <path d="M19,2H5A2,2 0 0,0 3,4V18A2,2 0 0,0 5,20H9L12,23L15,20H19A2,2 0 0,0 21,18V4A2,2 0 0,0 19,2M13.88,12.88L12,17L10.12,12.88L6,11L10.12,9.12L12,5L13.88,9.12L18,11" />
    </g>
    <g id="mdi-assistant" transform="translate(108 108) scale(1.5)" fill="#fff">
      <path d="M19,2H5A2,2 0 0,0 3,4V18A2,2 0 0,0 5,20H9L12,23L15,20H19A2,2 0 0,0 21,18V4A2,2 0 0,0 19,2M13.88,12.88L12,17L10.12,12.88L6,11L10.12,9.12L12,5L13.88,9.12L18,11" />
    </g>
    <g id="mdi-asterisk" transform="translate(144 108) scale(1.5)" fill="#555">
      <path d="M10,2H14L13.21,9.91L19.66,5.27L21.66,8.73L14.42,12L21.66,15.27L19.66,18.73L13.21,14.09L14,22H10L10.79,14.09L4.34,18.73L2.34,15.27L9.58,12L2.34,8.73L4.34,5.27L10.79,9.91L10,2Z" />
    </g>
    <g id="mdi-asterisk" transform="translate(180 108) scale(1.5)" fill="#fff">
      <path d="M10,2H14L13.21,9.91L19.66,5.27L21.66,8.73L14.42,12L21.66,15.27L19.66,18.73L13.21,14.09L14,22H10L10.79,14.09L4.34,18.73L2.34,15.27L9.58,12L2.34,8.73L4.34,5.27L10.79,9.91L10,2Z" />
    </g>
    <g id="mdi-at" transform="translate(216 108) scale(1.5)" fill="#555">
      <path d="M12,15C12.81,15 13.5,14.7 14.11,14.11C14.7,13.5 15,12.81 15,12C15,11.19 14.7,10.5 14.11,9.89C13.5,9.3 12.81,9 12,9C11.19,9 10.5,9.3 9.89,9.89C9.3,10.5 9,11.19 9,12C9,12.81 9.3,13.5 9.89,14.11C10.5,14.7 11.19,15 12,15M12,2C14.75,2 17.1,3 19.05,4.95C21,6.9 22,9.25 22,12V13.45C22,14.45 21.65,15.3 21,16C20.3,16.67 19.5,17 18.5,17C17.3,17 16.31,16.5 15.56,15.5C14.56,16.5 13.38,17 12,17C10.63,17 9.45,16.5 8.46,15.54C7.5,14.55 7,13.38 7,12C7,10.63 7.5,9.45 8.46,8.46C9.45,7.5 10.63,7 12,7C13.38,7 14.55,7.5 15.54,8.46C16.5,9.45 17,10.63 17,12V13.45C17,13.86 17.16,14.22 17.46,14.53C17.76,14.84 18.11,15 18.5,15C18.92,15 19.27,14.84 19.57,14.53C19.87,14.22 20,13.86 20,13.45V12C20,9.81 19.23,7.93 17.65,6.35C16.07,4.77 14.19,4 12,4C9.81,4 7.93,4.77 6.35,6.35C4.77,7.93 4,9.81 4,12C4,14.19 4.77,16.07 6.35,17.65C7.93,19.23 9.81,20 12,20H17V22H12C9.25,22 6.9,21 4.95,19.05C3,17.1 2,14.75 2,12C2,9.25 3,6.9 4.95,4.95C6.9,3 9.25,2 12,2Z" />
    </g>
    <g id="mdi-at" transform="translate(252 108) scale(1.5)" fill="#fff">
      <path d="M12,15C12.81,15 13.5,14.7 14.11,14.11C14.7,13.5 15,12.81 15,12C15,11.19 14.7,10.5 14.11,9.89C13.5,9.3 12.81,9 12,9C11.19,9 10.5,9.3 9.89,9.89C9.3,10.5 9,11.19 9,12C9,12.81 9.3,13.5 9.89,14.11C10.5,14.7 11.19,15 12,15M12,2C14.75,2 17.1,3 19.05,4.95C21,6.9 22,9.25 22,12V13.45C22,14.45 21.65,15.3 21,16C20.3,16.67 19.5,17 18.5,17C17.3,17 16.31,16.5 15.56,15.5C14.56,16.5 13.38,17 12,17C10.63,17 9.45,16.5 8.46,15.54C7.5,14.55 7,13.38 7,12C7,10.63 7.5,9.45 8.46,8.46C9.45,7.5 10.63,7 12,7C13.38,7 14.55,7.5 15.54,8.46C16.5,9.45 17,10.63 17,12V13.45C17,13.86 17.16,14.22 17.46,14.53C17.76,14.84 18.11,15 18.5,15C18.92,15 19.27,14.84 19.57,14.53C19.87,14.22 20,13.86 20,13.45V12C20,9.81 19.23,7.93 17.65,6.35C16.07,4.77 14.19,4 12,4C9.81,4 7.93,4.77 6.35,6.35C4.77,7.93 4,9.81 4,12C4,14.19 4.77,16.07 6.35,17.65C7.93,19.23 9.81,20 12,20H17V22H12C9.25,22 6.9,21 4.95,19.05C3,17.1 2,14.75 2,12C2,9.25 3,6.9 4.95,4.95C6.9,3 9.25,2 12,2Z" />
    </g>
    <g id="mdi-atlassian" transform="translate(288 108) scale(1.5)" fill="#555">
      <path d="M7.93,11.24C7.74,11 7.38,10.94 7.13,11.13C7.06,11.19 7,11.26 6.96,11.34L2.06,21.15C1.91,21.44 2.03,21.79 2.32,21.94C2.4,22 2.5,22 2.59,22H9.41C9.63,22 9.84,21.88 9.94,21.68C11.41,18.63 10.5,14 7.93,11.24M11.53,2.31C9.05,6.14 8.76,11 10.77,15.09L14.06,21.68C14.17,21.88 14.37,22 14.59,22H21.41A0.59,0.59 0 0,0 22,21.41C22,21.32 22,21.23 21.94,21.15C21.94,21.15 12.76,2.77 12.5,2.31C12.39,2.04 12.06,1.92 11.78,2.06C11.67,2.11 11.58,2.2 11.53,2.31Z" />
    </g>
    <g id="mdi-atlassian" transform="translate(324 108) scale(1.5)" fill="#fff">
      <path d="M7.93,11.24C7.74,11 7.38,10.94 7.13,11.13C7.06,11.19 7,11.26 6.96,11.34L2.06,21.15C1.91,21.44 2.03,21.79 2.32,21.94C2.4,22 2.5,22 2.59,22H9.41C9.63,22 9.84,21.88 9.94,21.68C11.41,18.63 10.5,14 7.93,11.24M11.53,2.31C9.05,6.14 8.76,11 10.77,15.09L14.06,21.68C14.17,21.88 14.37,22 14.59,22H21.41A0.59,0.59 0 0,0 22,21.41C22,21.32 22,21.23 21.94,21.15C21.94,21.15 12.76,2.77 12.5,2.31C12.39,2.04 12.06,1.92 11.78,2.06C11.67,2.11 11.58,2.2 11.53,2.31Z" />
    </g>
    <g id="mdi-atm" transform="translate(360 108) scale(1.5)" fill="#555">
      <path d="M8,9V10.5H10.25V15H11.75V10.5H14V9H8M6,9H3A1,1 0 0,0 2,10V15H3.5V13.5H5.5V15H7V10A1,1 0 0,0 6,9M5.5,12H3.5V10.5H5.5V12M21,9H16.5A1,1 0 0,0 15.5,10V15H17V10.5H18V14H19.5V10.5H20.5V15H22V10A1,1 0 0,0 21,9Z" />
    </g>
    <g id="mdi-atm" transform="translate(396 108) scale(1.5)" fill="#fff">
      <path d="M8,9V10.5H10.25V15H11.75V10.5H14V9H8M6,9H3A1,1 0 0,0 2,10V15H3.5V13.5H5.5V15H7V10A1,1 0 0,0 6,9M5.5,12H3.5V10.5H5.5V12M21,9H16.5A1,1 0 0,0 15.5,10V15H17V10.5H18V14H19.5V10.5H20.5V15H22V10A1,1 0 0,0 21,9Z" />
    </g>
    <g id="mdi-atom" transform="translate(432 108) scale(1.5)" fill="#555">
      <path d="M12,11A1,1 0 0,1 13,12A1,1 0 0,1 12,13A1,1 0 0,1 11,12A1,1 0 0,1 12,11M4.22,4.22C5.65,2.79 8.75,3.43 12,5.56C15.25,3.43 18.35,2.79 19.78,4.22C21.21,5.65 20.57,8.75 18.44,12C20.57,15.25 21.21,18.35 19.78,19.78C18.35,21.21 15.25,20.57 12,18.44C8.75,20.57 5.65,21.21 4.22,19.78C2.79,18.35 3.43,15.25 5.56,12C3.43,8.75 2.79,5.65 4.22,4.22M15.54,8.46C16.15,9.08 16.71,9.71 17.23,10.34C18.61,8.21 19.11,6.38 18.36,5.64C17.62,4.89 15.79,5.39 13.66,6.77C14.29,7.29 14.92,7.85 15.54,8.46M8.46,15.54C7.85,14.92 7.29,14.29 6.77,13.66C5.39,15.79 4.89,17.62 5.64,18.36C6.38,19.11 8.21,18.61 10.34,17.23C9.71,16.71 9.08,16.15 8.46,15.54M5.64,5.64C4.89,6.38 5.39,8.21 6.77,10.34C7.29,9.71 7.85,9.08 8.46,8.46C9.08,7.85 9.71,7.29 10.34,6.77C8.21,5.39 6.38,4.89 5.64,5.64M9.88,14.12C10.58,14.82 11.3,15.46 12,16.03C12.7,15.46 13.42,14.82 14.12,14.12C14.82,13.42 15.46,12.7 16.03,12C15.46,11.3 14.82,10.58 14.12,9.88C13.42,9.18 12.7,8.54 12,7.97C11.3,8.54 10.58,9.18 9.88,9.88C9.18,10.58 8.54,11.3 7.97,12C8.54,12.7 9.18,13.42 9.88,14.12M18.36,18.36C19.11,17.62 18.61,15.79 17.23,13.66C16.71,14.29 16.15,14.92 15.54,15.54C14.92,16.15 14.29,16.71 13.66,17.23C15.79,18.61 17.62,19.11 18.36,18.36Z" />
    </g>
    <g id="mdi-atom" transform="translate(468 108) scale(1.5)" fill="#fff">
      <path d="M12,11A1,1 0 0,1 13,12A1,1 0 0,1 12,13A1,1 0 0,1 11,12A1,1 0 0,1 12,11M4.22,4.22C5.65,2.79 8.75,3.43 12,5.56C15.25,3.43 18.35,2.79 19.78,4.22C21.21,5.65 20.57,8.75 18.44,12C20.57,15.25 21.21,18.35 19.78,19.78C18.35,21.21 15.25,20.57 12,18.44C8.75,20.57 5.65,21.21 4.22,19.78C2.79,18.35 3.43,15.25 5.56,12C3.43,8.75 2.79,5.65 4.22,4.22M15.54,8.46C16.15,9.08 16.71,9.71 17.23,10.34C18.61,8.21 19.11,6.38 18.36,5.64C17.62,4.89 15.79,5.39 13.66,6.77C14.29,7.29 14.92,7.85 15.54,8.46M8.46,15.54C7.85,14.92 7.29,14.29 6.77,13.66C5.39,15.79 4.89,17.62 5.64,18.36C6.38,19.11 8.21,18.61 10.34,17.23C9.71,16.71 9.08,16.15 8.46,15.54M5.64,5.64C4.89,6.38 5.39,8.21 6.77,10.34C7.29,9.71 7.85,9.08 8.46,8.46C9.08,7.85 9.71,7.29 10.34,6.77C8.21,5.39 6.38,4.89 5.64,5.64M9.88,14.12C10.58,14.82 11.3,15.46 12,16.03C12.7,15.46 13.42,14.82 14.12,14.12C14.82,13.42 15.46,12.7 16.03,12C15.46,11.3 14.82,10.58 14.12,9.88C13.42,9.18 12.7,8.54 12,7.97C11.3,8.54 10.58,9.18 9.88,9.88C9.18,10.58 8.54,11.3 7.97,12C8.54,12.7 9.18,13.42 9.88,14.12M18.36,18.36C19.11,17.62 18.61,15.79 17.23,13.66C16.71,14.29 16.15,14.92 15.54,15.54C14.92,16.15 14.29,16.71 13.66,17.23C15.79,18.61 17.62,19.11 18.36,18.36Z" />
    </g>
    <g id="mdi-atom-variant" transform="translate(504 108) scale(1.5)" fill="#555">
      <path d="M18.36,2.64C20,2.64 21.36,4 21.36,5.64C21.36,7.29 20,8.64 18.36,8.64C16.71,8.64 15.36,7.29 15.36,5.64C15.36,5.34 15.41,5.06 15.5,4.8C14.43,4.29 13.25,4 12,4A8,8 0 0,0 4,12L4.04,12.84L2.05,13.05L2,12A10,10 0 0,1 12,2C13.69,2 15.28,2.42 16.67,3.16C17.16,2.83 17.74,2.64 18.36,2.64M18.36,4.64A1,1 0 0,0 17.36,5.64A1,1 0 0,0 18.36,6.64C18.92,6.64 19.36,6.19 19.36,5.64C19.36,5.08 18.92,4.64 18.36,4.64M5.64,15.36C7.29,15.36 8.64,16.71 8.64,18.36C8.64,18.66 8.59,18.94 8.5,19.2C9.57,19.71 10.75,20 12,20A8,8 0 0,0 20,12L19.96,11.16L21.95,10.95L22,12A10,10 0 0,1 12,22C10.31,22 8.72,21.58 7.33,20.84C6.84,21.17 6.26,21.36 5.64,21.36C4,21.36 2.64,20 2.64,18.36C2.64,16.71 4,15.36 5.64,15.36M5.64,17.36C5.08,17.36 4.64,17.81 4.64,18.36C4.64,18.92 5.08,19.36 5.64,19.36A1,1 0 0,0 6.64,18.36A1,1 0 0,0 5.64,17.36M12,8A4,4 0 0,1 16,12A4,4 0 0,1 12,16A4,4 0 0,1 8,12A4,4 0 0,1 12,8Z" />
    </g>
    <g id="mdi-atom-variant" transform="translate(540 108) scale(1.5)" fill="#fff">
      <path d="M18.36,2.64C20,2.64 21.36,4 21.36,5.64C21.36,7.29 20,8.64 18.36,8.64C16.71,8.64 15.36,7.29 15.36,5.64C15.36,5.34 15.41,5.06 15.5,4.8C14.43,4.29 13.25,4 12,4A8,8 0 0,0 4,12L4.04,12.84L2.05,13.05L2,12A10,10 0 0,1 12,2C13.69,2 15.28,2.42 16.67,3.16C17.16,2.83 17.74,2.64 18.36,2.64M18.36,4.64A1,1 0 0,0 17.36,5.64A1,1 0 0,0 18.36,6.64C18.92,6.64 19.36,6.19 19.36,5.64C19.36,5.08 18.92,4.64 18.36,4.64M5.64,15.36C7.29,15.36 8.64,16.71 8.64,18.36C8.64,18.66 8.59,18.94 8.5,19.2C9.57,19.71 10.75,20 12,20A8,8 0 0,0 20,12L19.96,11.16L21.95,10.95L22,12A10,10 0 0,1 12,22C10.31,22 8.72,21.58 7.33,20.84C6.84,21.17 6.26,21.36 5.64,21.36C4,21.36 2.64,20 2.64,18.36C2.64,16.71 4,15.36 5.64,15.36M5.64,17.36C5.08,17.36 4.64,17.81 4.64,18.36C4.64,18.92 5.08,19.36 5.64,19.36A1,1 0 0,0 6.64,18.36A1,1 0 0,0 5.64,17.36M12,8A4,4 0 0,1 16,12A4,4 0 0,1 12,16A4,4 0 0,1 8,12A4,4 0 0,1 12,8Z" />
    </g>
    <g id="mdi-attachment" transform="translate(576 108) scale(1.5)" fill="#555">
      <path d="M7.5,18A5.5,5.5 0 0,1 2,12.5A5.5,5.5 0 0,1 7.5,7H18A4,4 0 0,1 22,11A4,4 0 0,1 18,15H9.5A2.5,2.5 0 0,1 7,12.5A2.5,2.5 0 0,1 9.5,10H17V11.5H9.5A1,1 0 0,0 8.5,12.5A1,1 0 0,0 9.5,13.5H18A2.5,2.5 0 0,0 20.5,11A2.5,2.5 0 0,0 18,8.5H7.5A4,4 0 0,0 3.5,12.5A4,4 0 0,0 7.5,16.5H17V18H7.5Z" />
    </g>
    <g id="mdi-attachment" transform="translate(612 108) scale(1.5)" fill="#fff">
      <path d="M7.5,18A5.5,5.5 0 0,1 2,12.5A5.5,5.5 0 0,1 7.5,7H18A4,4 0 0,1 22,11A4,4 0 0,1 18,15H9.5A2.5,2.5 0 0,1 7,12.5A2.5,2.5 0 0,1 9.5,10H17V11.5H9.5A1,1 0 0,0 8.5,12.5A1,1 0 0,0 9.5,13.5H18A2.5,2.5 0 0,0 20.5,11A2.5,2.5 0 0,0 18,8.5H7.5A4,4 0 0,0 3.5,12.5A4,4 0 0,0 7.5,16.5H17V18H7.5Z" />
    </g>
    <g id="mdi-audio-video" transform="translate(648 108) scale(1.5)" fill="#555">
      <path d="M20,7H4A2,2 0 0,0 2,9V15A2,2 0 0,0 4,17H5V18C5,18.6 5.4,19 6,19H8C8.6,19 9,18.6 9,18V17H15V18C15,18.6 15.4,19 16,19H18C18.6,19 19,18.6 19,18V17H20A2,2 0 0,0 22,15V9A2,2 0 0,0 20,7M14,12H4V10H14V12M18,13A2,2 0 0,1 16,11A2,2 0 0,1 18,9A2,2 0 0,1 20,11A2,2 0 0,1 18,13M6,15H4V14H6V15M10,15H8V14H10V15M14,15H12V14H14V15Z" />
    </g>
    <g id="mdi-audio-video" transform="translate(684 108) scale(1.5)" fill="#fff">
      <path d="M20,7H4A2,2 0 0,0 2,9V15A2,2 0 0,0 4,17H5V18C5,18.6 5.4,19 6,19H8C8.6,19 9,18.6 9,18V17H15V18C15,18.6 15.4,19 16,19H18C18.6,19 19,18.6 19,18V17H20A2,2 0 0,0 22,15V9A2,2 0 0,0 20,7M14,12H4V10H14V12M18,13A2,2 0 0,1 16,11A2,2 0 0,1 18,9A2,2 0 0,1 20,11A2,2 0 0,1 18,13M6,15H4V14H6V15M10,15H8V14H10V15M14,15H12V14H14V15Z" />
    </g>
    <g id="mdi-audio-video-off" transform="translate(0 144) scale(1.5)" fill="#555">
      <path d="M22.1 21.5L2.4 1.7L1.1 3L5.1 7H4C2.9 7 2 7.9 2 9V15C2 16.1 2.9 17 4 17H5V18C5 18.6 5.4 19 6 19H8C8.6 19 9 18.6 9 18V17H15V18C15 18.6 15.4 19 16 19H17.1L20.8 22.7L22.1 21.5M6 15H4V14H6V15M4 12V10H8.1L10.1 12H4M10 15H8V14H10V15M12 15V14H12.1L13.1 15H12M14 10V10.8L20.2 17C21.2 16.9 22 16.1 22 15V9C22 7.9 21.1 7 20 7H10.2L13.2 10H14M18 9C19.1 9 20 9.9 20 11S19.1 13 18 13 16 12.1 16 11 16.9 9 18 9Z" />
    </g>
    <g id="mdi-audio-video-off" transform="translate(36 144) scale(1.5)" fill="#fff">
      <path d="M22.1 21.5L2.4 1.7L1.1 3L5.1 7H4C2.9 7 2 7.9 2 9V15C2 16.1 2.9 17 4 17H5V18C5 18.6 5.4 19 6 19H8C8.6 19 9 18.6 9 18V17H15V18C15 18.6 15.4 19 16 19H17.1L20.8 22.7L22.1 21.5M6 15H4V14H6V15M4 12V10H8.1L10.1 12H4M10 15H8V14H10V15M12 15V14H12.1L13.1 15H12M14 10V10.8L20.2 17C21.2 16.9 22 16.1 22 15V9C22 7.9 21.1 7 20 7H10.2L13.2 10H14M18 9C19.1 9 20 9.9 20 11S19.1 13 18 13 16 12.1 16 11 16.9 9 18 9Z" />
    </g>
    <g id="mdi-audiobook" transform="translate(72 144) scale(1.5)" fill="#555">
      <path d="M18,22H6A2,2 0 0,1 4,20V4C4,2.89 4.9,2 6,2H7V9L9.5,7.5L12,9V2H18A2,2 0 0,1 20,4V20A2,2 0 0,1 18,22M13,15A2,2 0 0,0 11,17A2,2 0 0,0 13,19A2,2 0 0,0 15,17V12H18V10H14V15.27C13.71,15.1 13.36,15 13,15Z" />
    </g>
    <g id="mdi-audiobook" transform="translate(108 144) scale(1.5)" fill="#fff">
      <path d="M18,22H6A2,2 0 0,1 4,20V4C4,2.89 4.9,2 6,2H7V9L9.5,7.5L12,9V2H18A2,2 0 0,1 20,4V20A2,2 0 0,1 18,22M13,15A2,2 0 0,0 11,17A2,2 0 0,0 13,19A2,2 0 0,0 15,17V12H18V10H14V15.27C13.71,15.1 13.36,15 13,15Z" />
    </g>
    <g id="mdi-augmented-reality" transform="translate(144 144) scale(1.5)" fill="#555">
      <path d="M5,3C3.89,3 3,3.9 3,5V19A2,2 0 0,0 5,21H19A2,2 0 0,0 21,19V5A2,2 0 0,0 19,3H5M7,9H10C10.6,9 11,9.5 11,10V15H9.5V13.5H7.5V15H6V10C6,9.5 6.4,9 7,9M13,9H16.5C17.35,9 18,9.65 18,10.5V11.5C18,12.1 17.6,12.65 17.1,12.9L18,15H16.5L15.65,13H14.5V15H13V9M7.5,10.5V12H9.5V10.5H7.5M14.5,10.5V11.5H16.5V10.5H14.5" />
    </g>
    <g id="mdi-augmented-reality" transform="translate(180 144) scale(1.5)" fill="#fff">
      <path d="M5,3C3.89,3 3,3.9 3,5V19A2,2 0 0,0 5,21H19A2,2 0 0,0 21,19V5A2,2 0 0,0 19,3H5M7,9H10C10.6,9 11,9.5 11,10V15H9.5V13.5H7.5V15H6V10C6,9.5 6.4,9 7,9M13,9H16.5C17.35,9 18,9.65 18,10.5V11.5C18,12.1 17.6,12.65 17.1,12.9L18,15H16.5L15.65,13H14.5V15H13V9M7.5,10.5V12H9.5V10.5H7.5M14.5,10.5V11.5H16.5V10.5H14.5" />
    </g>
    <g id="mdi-auto-fix" transform="translate(216 144) scale(1.5)" fill="#555">
      <path d="M7.5,5.6L5,7L6.4,4.5L5,2L7.5,3.4L10,2L8.6,4.5L10,7L7.5,5.6M19.5,15.4L22,14L20.6,16.5L22,19L19.5,17.6L17,19L18.4,16.5L17,14L19.5,15.4M22,2L20.6,4.5L22,7L19.5,5.6L17,7L18.4,4.5L17,2L19.5,3.4L22,2M13.34,12.78L15.78,10.34L13.66,8.22L11.22,10.66L13.34,12.78M14.37,7.29L16.71,9.63C17.1,10 17.1,10.65 16.71,11.04L5.04,22.71C4.65,23.1 4,23.1 3.63,22.71L1.29,20.37C0.9,20 0.9,19.35 1.29,18.96L12.96,7.29C13.35,6.9 14,6.9 14.37,7.29Z" />
    </g>
    <g id="mdi-auto-fix" transform="translate(252 144) scale(1.5)" fill="#fff">
      <path d="M7.5,5.6L5,7L6.4,4.5L5,2L7.5,3.4L10,2L8.6,4.5L10,7L7.5,5.6M19.5,15.4L22,14L20.6,16.5L22,19L19.5,17.6L17,19L18.4,16.5L17,14L19.5,15.4M22,2L20.6,4.5L22,7L19.5,5.6L17,7L18.4,4.5L17,2L19.5,3.4L22,2M13.34,12.78L15.78,10.34L13.66,8.22L11.22,10.66L13.34,12.78M14.37,7.29L16.71,9.63C17.1,10 17.1,10.65 16.71,11.04L5.04,22.71C4.65,23.1 4,23.1 3.63,22.71L1.29,20.37C0.9,20 0.9,19.35 1.29,18.96L12.96,7.29C13.35,6.9 14,6.9 14.37,7.29Z" />
    </g>
    <g id="mdi-auto-upload" transform="translate(288 144) scale(1.5)" fill="#555">
      <path d="M5.35,12.65L6.5,9L7.65,12.65M5.5,7L2.3,16H4.2L4.9,14H8.1L8.8,16H10.7L7.5,7M11,20H22V18H11M14,16H19V11H22L16.5,5.5L11,11H14V16Z" />
    </g>
    <g id="mdi-auto-upload" transform="translate(324 144) scale(1.5)" fill="#fff">
      <path d="M5.35,12.65L6.5,9L7.65,12.65M5.5,7L2.3,16H4.2L4.9,14H8.1L8.8,16H10.7L7.5,7M11,20H22V18H11M14,16H19V11H22L16.5,5.5L11,11H14V16Z" />
    </g>
    <g id="mdi-autorenew" transform="translate(360 144) scale(1.5)" fill="#555">
      <path d="M12,6V9L16,5L12,1V4A8,8 0 0,0 4,12C4,13.57 4.46,15.03 5.24,16.26L6.7,14.8C6.25,13.97 6,13 6,12A6,6 0 0,1 12,6M18.76,7.74L17.3,9.2C17.74,10.04 18,11 18,12A6,6 0 0,1 12,18V15L8,19L12,23V20A8,8 0 0,0 20,12C20,10.43 19.54,8.97 18.76,7.74Z" />
    </g>
    <g id="mdi-autorenew" transform="translate(396 144) scale(1.5)" fill="#fff">
      <path d="M12,6V9L16,5L12,1V4A8,8 0 0,0 4,12C4,13.57 4.46,15.03 5.24,16.26L6.7,14.8C6.25,13.97 6,13 6,12A6,6 0 0,1 12,6M18.76,7.74L17.3,9.2C17.74,10.04 18,11 18,12A6,6 0 0,1 12,18V15L8,19L12,23V20A8,8 0 0,0 20,12C20,10.43 19.54,8.97 18.76,7.74Z" />
    </g>
    <g id="mdi-av-timer" transform="translate(432 144) scale(1.5)" fill="#555">
      <path d="M11,17A1,1 0 0,0 12,18A1,1 0 0,0 13,17A1,1 0 0,0 12,16A1,1 0 0,0 11,17M11,3V7H13V5.08C16.39,5.57 19,8.47 19,12A7,7 0 0,1 12,19A7,7 0 0,1 5,12C5,10.32 5.59,8.78 6.58,7.58L12,13L13.41,11.59L6.61,4.79V4.81C4.42,6.45 3,9.05 3,12A9,9 0 0,0 12,21A9,9 0 0,0 21,12A9,9 0 0,0 12,3M18,12A1,1 0 0,0 17,11A1,1 0 0,0 16,12A1,1 0 0,0 17,13A1,1 0 0,0 18,12M6,12A1,1 0 0,0 7,13A1,1 0 0,0 8,12A1,1 0 0,0 7,11A1,1 0 0,0 6,12Z" />
    </g>
    <g id="mdi-av-timer" transform="translate(468 144) scale(1.5)" fill="#fff">
      <path d="M11,17A1,1 0 0,0 12,18A1,1 0 0,0 13,17A1,1 0 0,0 12,16A1,1 0 0,0 11,17M11,3V7H13V5.08C16.39,5.57 19,8.47 19,12A7,7 0 0,1 12,19A7,7 0 0,1 5,12C5,10.32 5.59,8.78 6.58,7.58L12,13L13.41,11.59L6.61,4.79V4.81C4.42,6.45 3,9.05 3,12A9,9 0 0,0 12,21A9,9 0 0,0 21,12A9,9 0 0,0 12,3M18,12A1,1 0 0,0 17,11A1,1 0 0,0 16,12A1,1 0 0,0 17,13A1,1 0 0,0 18,12M6,12A1,1 0 0,0 7,13A1,1 0 0,0 8,12A1,1 0 0,0 7,11A1,1 0 0,0 6,12Z" />
    </g>
    <g id="mdi-aws" transform="translate(504 144) scale(1.5)" fill="#555">
      <path d="M7.64,10.38C7.64,10.63 7.66,10.83 7.71,11C7.76,11.12 7.83,11.28 7.92,11.46C7.96,11.5 7.97,11.56 7.97,11.61C7.97,11.68 7.93,11.74 7.84,11.81L7.42,12.09C7.36,12.13 7.3,12.15 7.25,12.15C7.18,12.15 7.12,12.11 7.05,12.05C6.96,11.95 6.88,11.85 6.81,11.74C6.75,11.63 6.68,11.5 6.61,11.35C6.09,11.96 5.44,12.27 4.65,12.27C4.09,12.27 3.65,12.11 3.32,11.79C3,11.47 2.83,11.04 2.83,10.5C2.83,9.95 3.03,9.5 3.43,9.14C3.84,8.8 4.38,8.62 5.06,8.62C5.29,8.62 5.5,8.64 5.77,8.68C6,8.71 6.27,8.76 6.53,8.82V8.34C6.53,7.83 6.43,7.5 6.22,7.27C6,7.06 5.65,6.97 5.14,6.97C4.9,6.97 4.66,7 4.42,7.05C4.17,7.11 3.93,7.18 3.7,7.28C3.59,7.32 3.5,7.35 3.47,7.36C3.42,7.38 3.39,7.38 3.36,7.38C3.27,7.38 3.22,7.32 3.22,7.18V6.85C3.22,6.75 3.23,6.67 3.27,6.62C3.3,6.57 3.36,6.53 3.45,6.5C3.69,6.36 3.96,6.26 4.29,6.18C4.62,6.09 4.96,6.05 5.33,6.05C6.12,6.05 6.7,6.23 7.07,6.59C7.44,6.95 7.62,7.5 7.62,8.23V10.38H7.64M4.94,11.4C5.16,11.4 5.38,11.36 5.62,11.28C5.86,11.2 6.07,11.05 6.25,10.85C6.36,10.72 6.44,10.58 6.5,10.42C6.5,10.26 6.55,10.07 6.55,9.84V9.57C6.35,9.5 6.15,9.5 5.93,9.45C5.72,9.43 5.5,9.41 5.31,9.41C4.86,9.41 4.54,9.5 4.32,9.68C4.1,9.86 4,10.11 4,10.44C4,10.76 4.07,11 4.24,11.15C4.4,11.32 4.63,11.4 4.94,11.4M10.28,12.11C10.16,12.11 10.08,12.09 10,12.05C9.97,12 9.92,11.91 9.88,11.79L8.32,6.65C8.28,6.5 8.26,6.43 8.26,6.38C8.26,6.27 8.31,6.21 8.42,6.21H9.07C9.2,6.21 9.29,6.23 9.33,6.28C9.39,6.32 9.43,6.41 9.47,6.54L10.58,10.94L11.62,6.54C11.65,6.41 11.69,6.32 11.75,6.28C11.8,6.24 11.89,6.21 12,6.21H12.55C12.67,6.21 12.76,6.23 12.81,6.28C12.86,6.32 12.91,6.41 12.94,6.54L14,11L15.14,6.54C15.18,6.41 15.23,6.32 15.27,6.28C15.33,6.24 15.41,6.21 15.53,6.21H16.15C16.26,6.21 16.32,6.27 16.32,6.38C16.32,6.41 16.31,6.45 16.3,6.5C16.3,6.5 16.28,6.58 16.26,6.65L14.65,11.79C14.61,11.93 14.57,12 14.5,12.05C14.46,12.09 14.37,12.12 14.26,12.12H13.69C13.56,12.12 13.5,12.1 13.42,12.05C13.37,12 13.32,11.92 13.3,11.79L12.27,7.5L11.24,11.78C11.21,11.91 11.17,12 11.12,12.05C11.06,12.09 10.97,12.11 10.85,12.11H10.28M18.83,12.29C18.5,12.29 18.13,12.25 17.8,12.17C17.47,12.09 17.21,12 17.04,11.91C16.93,11.85 16.86,11.78 16.83,11.72C16.8,11.66 16.79,11.6 16.79,11.54V11.2C16.79,11.06 16.84,11 16.94,11C17,11 17,11 17.06,11C17.1,11 17.16,11.05 17.23,11.08C17.45,11.18 17.7,11.26 17.96,11.31C18.23,11.36 18.5,11.39 18.75,11.39C19.17,11.39 19.5,11.32 19.72,11.17C19.95,11 20.07,10.81 20.07,10.54C20.07,10.35 20,10.2 19.89,10.07C19.77,9.95 19.54,9.83 19.22,9.73L18.25,9.43C17.77,9.27 17.41,9.05 17.19,8.75C16.97,8.46 16.86,8.13 16.86,7.78C16.86,7.5 16.92,7.26 17.04,7.05C17.16,6.83 17.32,6.65 17.5,6.5C17.72,6.35 17.94,6.24 18.21,6.16C18.47,6.08 18.75,6.04 19.05,6.04C19.19,6.04 19.34,6.05 19.5,6.07C19.64,6.09 19.78,6.12 19.92,6.14C20.06,6.18 20.18,6.21 20.3,6.25C20.42,6.29 20.5,6.33 20.58,6.37C20.67,6.42 20.74,6.47 20.78,6.53C20.82,6.59 20.84,6.66 20.84,6.75V7.07C20.84,7.21 20.79,7.28 20.69,7.28C20.64,7.28 20.55,7.25 20.43,7.2C20.06,7.03 19.63,6.94 19.16,6.94C18.78,6.94 18.5,7 18.27,7.13C18.07,7.25 17.96,7.45 17.96,7.72C17.96,7.91 18.03,8.07 18.16,8.19C18.29,8.32 18.54,8.44 18.89,8.56L19.84,8.86C20.32,9 20.66,9.22 20.87,9.5C21.07,9.77 21.17,10.08 21.17,10.43C21.17,10.71 21.11,10.97 21,11.2C20.88,11.42 20.72,11.62 20.5,11.78C20.31,11.95 20.06,12.07 19.78,12.16C19.5,12.25 19.16,12.29 18.83,12.29M20.08,15.53C17.89,17.14 14.71,18 12,18C8.15,18 4.7,16.58 2.09,14.23C1.88,14.04 2.07,13.79 2.32,13.94C5.14,15.57 8.61,16.56 12.21,16.56C14.64,16.56 17.31,16.06 19.76,15C20.13,14.85 20.44,15.26 20.08,15.53M21,14.5C20.71,14.13 19.14,14.32 18.43,14.4C18.22,14.43 18.19,14.24 18.38,14.1C19.63,13.23 21.69,13.5 21.92,13.77C22.16,14.07 21.86,16.13 20.69,17.11C20.5,17.26 20.33,17.18 20.41,17C20.68,16.32 21.27,14.84 21,14.5Z" />
    </g>
    <g id="mdi-aws" transform="translate(540 144) scale(1.5)" fill="#fff">
      <path d="M7.64,10.38C7.64,10.63 7.66,10.83 7.71,11C7.76,11.12 7.83,11.28 7.92,11.46C7.96,11.5 7.97,11.56 7.97,11.61C7.97,11.68 7.93,11.74 7.84,11.81L7.42,12.09C7.36,12.13 7.3,12.15 7.25,12.15C7.18,12.15 7.12,12.11 7.05,12.05C6.96,11.95 6.88,11.85 6.81,11.74C6.75,11.63 6.68,11.5 6.61,11.35C6.09,11.96 5.44,12.27 4.65,12.27C4.09,12.27 3.65,12.11 3.32,11.79C3,11.47 2.83,11.04 2.83,10.5C2.83,9.95 3.03,9.5 3.43,9.14C3.84,8.8 4.38,8.62 5.06,8.62C5.29,8.62 5.5,8.64 5.77,8.68C6,8.71 6.27,8.76 6.53,8.82V8.34C6.53,7.83 6.43,7.5 6.22,7.27C6,7.06 5.65,6.97 5.14,6.97C4.9,6.97 4.66,7 4.42,7.05C4.17,7.11 3.93,7.18 3.7,7.28C3.59,7.32 3.5,7.35 3.47,7.36C3.42,7.38 3.39,7.38 3.36,7.38C3.27,7.38 3.22,7.32 3.22,7.18V6.85C3.22,6.75 3.23,6.67 3.27,6.62C3.3,6.57 3.36,6.53 3.45,6.5C3.69,6.36 3.96,6.26 4.29,6.18C4.62,6.09 4.96,6.05 5.33,6.05C6.12,6.05 6.7,6.23 7.07,6.59C7.44,6.95 7.62,7.5 7.62,8.23V10.38H7.64M4.94,11.4C5.16,11.4 5.38,11.36 5.62,11.28C5.86,11.2 6.07,11.05 6.25,10.85C6.36,10.72 6.44,10.58 6.5,10.42C6.5,10.26 6.55,10.07 6.55,9.84V9.57C6.35,9.5 6.15,9.5 5.93,9.45C5.72,9.43 5.5,9.41 5.31,9.41C4.86,9.41 4.54,9.5 4.32,9.68C4.1,9.86 4,10.11 4,10.44C4,10.76 4.07,11 4.24,11.15C4.4,11.32 4.63,11.4 4.94,11.4M10.28,12.11C10.16,12.11 10.08,12.09 10,12.05C9.97,12 9.92,11.91 9.88,11.79L8.32,6.65C8.28,6.5 8.26,6.43 8.26,6.38C8.26,6.27 8.31,6.21 8.42,6.21H9.07C9.2,6.21 9.29,6.23 9.33,6.28C9.39,6.32 9.43,6.41 9.47,6.54L10.58,10.94L11.62,6.54C11.65,6.41 11.69,6.32 11.75,6.28C11.8,6.24 11.89,6.21 12,6.21H12.55C12.67,6.21 12.76,6.23 12.81,6.28C12.86,6.32 12.91,6.41 12.94,6.54L14,11L15.14,6.54C15.18,6.41 15.23,6.32 15.27,6.28C15.33,6.24 15.41,6.21 15.53,6.21H16.15C16.26,6.21 16.32,6.27 16.32,6.38C16.32,6.41 16.31,6.45 16.3,6.5C16.3,6.5 16.28,6.58 16.26,6.65L14.65,11.79C14.61,11.93 14.57,12 14.5,12.05C14.46,12.09 14.37,12.12 14.26,12.12H13.69C13.56,12.12 13.5,12.1 13.42,12.05C13.37,12 13.32,11.92 13.3,11.79L12.27,7.5L11.24,11.78C11.21,11.91 11.17,12 11.12,12.05C11.06,12.09 10.97,12.11 10.85,12.11H10.28M18.83,12.29C18.5,12.29 18.13,12.25 17.8,12.17C17.47,12.09 17.21,12 17.04,11.91C16.93,11.85 16.86,11.78 16.83,11.72C16.8,11.66 16.79,11.6 16.79,11.54V11.2C16.79,11.06 16.84,11 16.94,11C17,11 17,11 17.06,11C17.1,11 17.16,11.05 17.23,11.08C17.45,11.18 17.7,11.26 17.96,11.31C18.23,11.36 18.5,11.39 18.75,11.39C19.17,11.39 19.5,11.32 19.72,11.17C19.95,11 20.07,10.81 20.07,10.54C20.07,10.35 20,10.2 19.89,10.07C19.77,9.95 19.54,9.83 19.22,9.73L18.25,9.43C17.77,9.27 17.41,9.05 17.19,8.75C16.97,8.46 16.86,8.13 16.86,7.78C16.86,7.5 16.92,7.26 17.04,7.05C17.16,6.83 17.32,6.65 17.5,6.5C17.72,6.35 17.94,6.24 18.21,6.16C18.47,6.08 18.75,6.04 19.05,6.04C19.19,6.04 19.34,6.05 19.5,6.07C19.64,6.09 19.78,6.12 19.92,6.14C20.06,6.18 20.18,6.21 20.3,6.25C20.42,6.29 20.5,6.33 20.58,6.37C20.67,6.42 20.74,6.47 20.78,6.53C20.82,6.59 20.84,6.66 20.84,6.75V7.07C20.84,7.21 20.79,7.28 20.69,7.28C20.64,7.28 20.55,7.25 20.43,7.2C20.06,7.03 19.63,6.94 19.16,6.94C18.78,6.94 18.5,7 18.27,7.13C18.07,7.25 17.96,7.45 17.96,7.72C17.96,7.91 18.03,8.07 18.16,8.19C18.29,8.32 18.54,8.44 18.89,8.56L19.84,8.86C20.32,9 20.66,9.22 20.87,9.5C21.07,9.77 21.17,10.08 21.17,10.43C21.17,10.71 21.11,10.97 21,11.2C20.88,11.42 20.72,11.62 20.5,11.78C20.31,11.95 20.06,12.07 19.78,12.16C19.5,12.25 19.16,12.29 18.83,12.29M20.08,15.53C17.89,17.14 14.71,18 12,18C8.15,18 4.7,16.58 2.09,14.23C1.88,14.04 2.07,13.79 2.32,13.94C5.14,15.57 8.61,16.56 12.21,16.56C14.64,16.56 17.31,16.06 19.76,15C20.13,14.85 20.44,15.26 20.08,15.53M21,14.5C20.71,14.13 19.14,14.32 18.43,14.4C18.22,14.43 18.19,14.24 18.38,14.1C19.63,13.23 21.69,13.5 21.92,13.77C22.16,14.07 21.86,16.13 20.69,17.11C20.5,17.26 20.33,17.18 20.41,17C20.68,16.32 21.27,14.84 21,14.5Z" />
    </g>
    <g id="mdi-axe" transform="translate(576 144) scale(1.5)" fill="#555">
      <path d="M12,2L22,8C22,12 20,14 16,15L13,10L9,6L12,2M4.11,19.84L2.12,18.33L9.19,9L11,10.81L4.11,19.84Z" />
    </g>
    <g id="mdi-axe" transform="translate(612 144) scale(1.5)" fill="#fff">
      <path d="M12,2L22,8C22,12 20,14 16,15L13,10L9,6L12,2M4.11,19.84L2.12,18.33L9.19,9L11,10.81L4.11,19.84Z" />
    </g>
    <g id="mdi-axis" transform="translate(648 144) scale(1.5)" fill="#555">
      <path d="M2.61,21L1.61,19.27L11,13.85V3H13V13.85L22.39,19.27L21.39,21L12,15.58L2.61,21Z" />
    </g>
    <g id="mdi-axis" transform="translate(684 144) scale(1.5)" fill="#fff">
      <path d="M2.61,21L1.61,19.27L11,13.85V3H13V13.85L22.39,19.27L21.39,21L12,15.58L2.61,21Z" />
    </g>
    <g id="mdi-axis-arrow" transform="translate(0 180) scale(1.5)" fill="#555">
      <path d="M12,2L16,6H13V13.85L19.53,17.61L21,15.03L22.5,20.5L17,21.96L18.53,19.35L12,15.58L5.47,19.35L7,21.96L1.5,20.5L3,15.03L4.47,17.61L11,13.85V6H8L12,2Z" />
    </g>
    <g id="mdi-axis-arrow" transform="translate(36 180) scale(1.5)" fill="#fff">
      <path d="M12,2L16,6H13V13.85L19.53,17.61L21,15.03L22.5,20.5L17,21.96L18.53,19.35L12,15.58L5.47,19.35L7,21.96L1.5,20.5L3,15.03L4.47,17.61L11,13.85V6H8L12,2Z" />
    </g>
    <g id="mdi-axis-arrow-lock" transform="translate(72 180) scale(1.5)" fill="#555">
      <path d="M21.8,5C22.4,5 23,5.6 23,6.3V9.8C23,10.4 22.4,11 21.7,11H16.2C15.6,11 15,10.4 15,9.7V6.2C15,5.6 15.6,5 16.2,5V3.5C16.2,2.1 17.6,1 19,1C20.4,1 21.8,2.1 21.8,3.5V5M20.5,5V3.5C20.5,2.7 19.8,2.2 19,2.2C18.2,2.2 17.5,2.7 17.5,3.5V5H20.5M1.74,19.25L3.21,13.79L4.68,16.34L9,13.85V6H6L10,2L14,6H11V13.85L18.03,17.86L19.5,15.28L21,20.74L15.5,22.21L17.03,19.6L10,15.58L5.68,18.07L7.21,20.71L1.74,19.25Z" />
    </g>
    <g id="mdi-axis-arrow-lock" transform="translate(108 180) scale(1.5)" fill="#fff">
      <path d="M21.8,5C22.4,5 23,5.6 23,6.3V9.8C23,10.4 22.4,11 21.7,11H16.2C15.6,11 15,10.4 15,9.7V6.2C15,5.6 15.6,5 16.2,5V3.5C16.2,2.1 17.6,1 19,1C20.4,1 21.8,2.1 21.8,3.5V5M20.5,5V3.5C20.5,2.7 19.8,2.2 19,2.2C18.2,2.2 17.5,2.7 17.5,3.5V5H20.5M1.74,19.25L3.21,13.79L4.68,16.34L9,13.85V6H6L10,2L14,6H11V13.85L18.03,17.86L19.5,15.28L21,20.74L15.5,22.21L17.03,19.6L10,15.58L5.68,18.07L7.21,20.71L1.74,19.25Z" />
    </g>
    <g id="mdi-axis-lock" transform="translate(144 180) scale(1.5)" fill="#555">
      <path d="M21.8,5C22.4,5 23,5.6 23,6.3V9.8C23,10.4 22.4,11 21.7,11H16.2C15.6,11 15,10.4 15,9.7V6.2C15,5.6 15.6,5 16.2,5V3.5C16.2,2.1 17.6,1 19,1C20.4,1 21.8,2.1 21.8,3.5V5M20.5,5V3.5C20.5,2.7 19.8,2.2 19,2.2C18.2,2.2 17.5,2.7 17.5,3.5V5H20.5M11,13.82L20.39,19.25L19.39,21L10,15.56L3.17,19.5L2.17,17.77L9,13.82V3H11V13.82Z" />
    </g>
    <g id="mdi-axis-lock" transform="translate(180 180) scale(1.5)" fill="#fff">
      <path d="M21.8,5C22.4,5 23,5.6 23,6.3V9.8C23,10.4 22.4,11 21.7,11H16.2C15.6,11 15,10.4 15,9.7V6.2C15,5.6 15.6,5 16.2,5V3.5C16.2,2.1 17.6,1 19,1C20.4,1 21.8,2.1 21.8,3.5V5M20.5,5V3.5C20.5,2.7 19.8,2.2 19,2.2C18.2,2.2 17.5,2.7 17.5,3.5V5H20.5M11,13.82L20.39,19.25L19.39,21L10,15.56L3.17,19.5L2.17,17.77L9,13.82V3H11V13.82Z" />
    </g>
    <g id="mdi-axis-x-arrow" transform="translate(216 180) scale(1.5)" fill="#555">
      <path d="M1.5,20.5L3,15.03L4.46,17.6L11,13.82V3H13V13.82L22.39,19.25L21.39,21L12,15.56L5.46,19.33L7,21.96L1.5,20.5Z" />
    </g>
    <g id="mdi-axis-x-arrow" transform="translate(252 180) scale(1.5)" fill="#fff">
      <path d="M1.5,20.5L3,15.03L4.46,17.6L11,13.82V3H13V13.82L22.39,19.25L21.39,21L12,15.56L5.46,19.33L7,21.96L1.5,20.5Z" />
    </g>
    <g id="mdi-axis-x-arrow-lock" transform="translate(288 180) scale(1.5)" fill="#555">
      <path d="M21.8,5C22.4,5 23,5.6 23,6.3V9.8C23,10.4 22.4,11 21.7,11H16.2C15.6,11 15,10.4 15,9.7V6.2C15,5.6 15.6,5 16.2,5V3.5C16.2,2.1 17.6,1 19,1C20.4,1 21.8,2.1 21.8,3.5V5M20.5,5V3.5C20.5,2.7 19.8,2.2 19,2.2C18.31,2.2 17.69,2.58 17.54,3.2C17.5,3.29 17.5,3.39 17.5,3.5V5H20.5M1.74,19.25L3.21,13.79L4.67,16.32L9,13.82V3H11V13.82L20.39,19.25L19.39,21L10,15.56L5.67,18.06L7.21,20.71L1.74,19.25Z" />
    </g>
    <g id="mdi-axis-x-arrow-lock" transform="translate(324 180) scale(1.5)" fill="#fff">
      <path d="M21.8,5C22.4,5 23,5.6 23,6.3V9.8C23,10.4 22.4,11 21.7,11H16.2C15.6,11 15,10.4 15,9.7V6.2C15,5.6 15.6,5 16.2,5V3.5C16.2,2.1 17.6,1 19,1C20.4,1 21.8,2.1 21.8,3.5V5M20.5,5V3.5C20.5,2.7 19.8,2.2 19,2.2C18.31,2.2 17.69,2.58 17.54,3.2C17.5,3.29 17.5,3.39 17.5,3.5V5H20.5M1.74,19.25L3.21,13.79L4.67,16.32L9,13.82V3H11V13.82L20.39,19.25L19.39,21L10,15.56L5.67,18.06L7.21,20.71L1.74,19.25Z" />
    </g>
    <g id="mdi-axis-x-rotate-clockwise" transform="translate(360 180) scale(1.5)" fill="#555">
      <path d="M12,10H14.91C14.57,6.55 13.4,4 12,4C10.42,4 9.12,7.27 9,11.42L7,12.57V12C7,6.5 9.24,2 12,2C14.42,2 16.44,5.44 16.9,10H20L16,14L12,10M12,22C10.12,22 8.47,19.92 7.62,16.84L9.37,15.83C9.87,18.31 10.86,20 12,20C13.27,20 14.36,17.89 14.79,14.92L16,16.12L16.7,15.42C16,19.26 14.16,22 12,22M2.11,18.87L1.11,17.13L1.06,17.06L11.12,11.25L12.72,12.84L2.15,18.94L2.11,18.87M21.89,5.13L22.89,6.87L19.2,9H17.77L17.5,7.66L21.89,5.13Z" />
    </g>
    <g id="mdi-axis-x-rotate-clockwise" transform="translate(396 180) scale(1.5)" fill="#fff">
      <path d="M12,10H14.91C14.57,6.55 13.4,4 12,4C10.42,4 9.12,7.27 9,11.42L7,12.57V12C7,6.5 9.24,2 12,2C14.42,2 16.44,5.44 16.9,10H20L16,14L12,10M12,22C10.12,22 8.47,19.92 7.62,16.84L9.37,15.83C9.87,18.31 10.86,20 12,20C13.27,20 14.36,17.89 14.79,14.92L16,16.12L16.7,15.42C16,19.26 14.16,22 12,22M2.11,18.87L1.11,17.13L1.06,17.06L11.12,11.25L12.72,12.84L2.15,18.94L2.11,18.87M21.89,5.13L22.89,6.87L19.2,9H17.77L17.5,7.66L21.89,5.13Z" />
    </g>
    <g id="mdi-axis-x-rotate-counterclockwise" transform="translate(432 180) scale(1.5)" fill="#555">
      <path d="M12,14L16,10L20,14H16.9C16.44,18.56 14.42,22 12,22C10.12,22 8.47,19.92 7.62,16.84L9.37,15.83C9.87,18.31 10.86,20 12,20C13.4,20 14.57,17.45 14.91,14H12M1.11,17.13L13.89,9.75L13.96,10.54L10.5,14H10.54L2.11,18.87L1.11,17.13M21.89,5.13L22.89,6.87L17.88,9.76C17.79,9.03 17.67,8.33 17.5,7.66L21.89,5.13M12,2C14.3,2 16.23,5.1 16.82,9.32L16,8.5L14.87,9.63C14.5,6.37 13.35,4 12,4C10.42,4 9.12,7.27 9,11.42L7,12.57V12C7,6.5 9.24,2 12,2Z" />
    </g>
    <g id="mdi-axis-x-rotate-counterclockwise" transform="translate(468 180) scale(1.5)" fill="#fff">
      <path d="M12,14L16,10L20,14H16.9C16.44,18.56 14.42,22 12,22C10.12,22 8.47,19.92 7.62,16.84L9.37,15.83C9.87,18.31 10.86,20 12,20C13.4,20 14.57,17.45 14.91,14H12M1.11,17.13L13.89,9.75L13.96,10.54L10.5,14H10.54L2.11,18.87L1.11,17.13M21.89,5.13L22.89,6.87L17.88,9.76C17.79,9.03 17.67,8.33 17.5,7.66L21.89,5.13M12,2C14.3,2 16.23,5.1 16.82,9.32L16,8.5L14.87,9.63C14.5,6.37 13.35,4 12,4C10.42,4 9.12,7.27 9,11.42L7,12.57V12C7,6.5 9.24,2 12,2Z" />
    </g>
    <g id="mdi-axis-x-y-arrow-lock" transform="translate(504 180) scale(1.5)" fill="#555">
      <path d="M21.8,5C22.4,5 23,5.6 23,6.3V9.8C23,10.4 22.4,11 21.7,11H16.2C15.6,11 15,10.4 15,9.7V6.2C15,5.6 15.6,5 16.2,5V3.5C16.2,2.1 17.6,1 19,1C20.4,1 21.8,2.1 21.8,3.5V5M20.5,5V3.5C20.5,2.7 19.8,2.2 19,2.2C18.2,2.2 17.5,2.7 17.5,3.5V5H20.5M1.74,19.25L3.21,13.79L4.68,16.34L9,13.85V3H11V13.85L17.53,17.61L19,15.03L20.5,20.5L15,21.96L16.53,19.35L10,15.58L5.68,18.07L7.21,20.71L1.74,19.25Z" />
    </g>
    <g id="mdi-axis-x-y-arrow-lock" transform="translate(540 180) scale(1.5)" fill="#fff">
      <path d="M21.8,5C22.4,5 23,5.6 23,6.3V9.8C23,10.4 22.4,11 21.7,11H16.2C15.6,11 15,10.4 15,9.7V6.2C15,5.6 15.6,5 16.2,5V3.5C16.2,2.1 17.6,1 19,1C20.4,1 21.8,2.1 21.8,3.5V5M20.5,5V3.5C20.5,2.7 19.8,2.2 19,2.2C18.2,2.2 17.5,2.7 17.5,3.5V5H20.5M1.74,19.25L3.21,13.79L4.68,16.34L9,13.85V3H11V13.85L17.53,17.61L19,15.03L20.5,20.5L15,21.96L16.53,19.35L10,15.58L5.68,18.07L7.21,20.71L1.74,19.25Z" />
    </g>
    <g id="mdi-axis-y-arrow" transform="translate(576 180) scale(1.5)" fill="#555">
      <path d="M22.5,20.5L17,21.96L18.53,19.35L12,15.58L2.61,21L1.61,19.27L11,13.85V3H13V13.85L19.53,17.61L21,15.03L22.5,20.5Z" />
    </g>
    <g id="mdi-axis-y-arrow" transform="translate(612 180) scale(1.5)" fill="#fff">
      <path d="M22.5,20.5L17,21.96L18.53,19.35L12,15.58L2.61,21L1.61,19.27L11,13.85V3H13V13.85L19.53,17.61L21,15.03L22.5,20.5Z" />
    </g>
    <g id="mdi-axis-y-arrow-lock" transform="translate(648 180) scale(1.5)" fill="#555">
      <path d="M11,13.82L18,17.88L19.5,15.28L21,20.74L15.5,22.21L17,19.61L10,15.56L3.17,19.5L2.17,17.77L9,13.82V3H11V13.82M21.8,5C22.4,5 23,5.6 23,6.3V9.8C23,10.4 22.4,11 21.7,11H16.2C15.6,11 15,10.4 15,9.7V6.2C15,5.6 15.6,5 16.2,5V3.5C16.2,2.1 17.6,1 19,1C20.4,1 21.8,2.1 21.8,3.5V5M20.5,5V3.5C20.5,2.7 19.8,2.2 19,2.2C18.2,2.2 17.5,2.7 17.5,3.5V5H20.5Z" />
    </g>
    <g id="mdi-axis-y-arrow-lock" transform="translate(684 180) scale(1.5)" fill="#fff">
      <path d="M11,13.82L18,17.88L19.5,15.28L21,20.74L15.5,22.21L17,19.61L10,15.56L3.17,19.5L2.17,17.77L9,13.82V3H11V13.82M21.8,5C22.4,5 23,5.6 23,6.3V9.8C23,10.4 22.4,11 21.7,11H16.2C15.6,11 15,10.4 15,9.7V6.2C15,5.6 15.6,5 16.2,5V3.5C16.2,2.1 17.6,1 19,1C20.4,1 21.8,2.1 21.8,3.5V5M20.5,5V3.5C20.5,2.7 19.8,2.2 19,2.2C18.2,2.2 17.5,2.7 17.5,3.5V5H20.5Z" />
    </g>
    <g id="mdi-axis-y-rotate-clockwise" transform="translate(0 216) scale(1.5)" fill="#555">
      <path d="M12,10L16,14L20,10H16.9C16.44,5.44 14.42,2 12,2C10.12,2 8.47,4.08 7.62,7.16L9.37,8.17C9.87,5.69 10.86,4 12,4C13.4,4 14.57,6.55 14.91,10H12M1.11,6.87L13.89,14.25L13.96,13.46L10.5,10H10.54L2.11,5.13L1.11,6.87M21.89,18.87L22.89,17.13L17.88,14.24C17.79,14.97 17.67,15.67 17.5,16.34L21.89,18.87M12,22C14.3,22 16.23,18.9 16.82,14.68L16,15.5L14.87,14.37C14.5,17.63 13.35,20 12,20C10.42,20 9.12,16.73 9,12.58L7,11.43V12C7,17.5 9.24,22 12,22Z" />
    </g>
    <g id="mdi-axis-y-rotate-clockwise" transform="translate(36 216) scale(1.5)" fill="#fff">
      <path d="M12,10L16,14L20,10H16.9C16.44,5.44 14.42,2 12,2C10.12,2 8.47,4.08 7.62,7.16L9.37,8.17C9.87,5.69 10.86,4 12,4C13.4,4 14.57,6.55 14.91,10H12M1.11,6.87L13.89,14.25L13.96,13.46L10.5,10H10.54L2.11,5.13L1.11,6.87M21.89,18.87L22.89,17.13L17.88,14.24C17.79,14.97 17.67,15.67 17.5,16.34L21.89,18.87M12,22C14.3,22 16.23,18.9 16.82,14.68L16,15.5L14.87,14.37C14.5,17.63 13.35,20 12,20C10.42,20 9.12,16.73 9,12.58L7,11.43V12C7,17.5 9.24,22 12,22Z" />
    </g>
    <g id="mdi-axis-y-rotate-counterclockwise" transform="translate(72 216) scale(1.5)" fill="#555">
      <path d="M12,14H14.91C14.57,17.45 13.4,20 12,20C10.42,20 9.12,16.73 9,12.58L7,11.43V12C7,17.5 9.24,22 12,22C14.42,22 16.44,18.56 16.9,14H20L16,10L12,14M12,2C10.12,2 8.47,4.08 7.62,7.16L9.37,8.17C9.87,5.69 10.86,4 12,4C13.27,4 14.36,6.11 14.79,9.08L16,7.88L16.7,8.58C16,4.74 14.16,2 12,2M2.11,5.13L1.11,6.87L1.06,6.94L11.12,12.75L12.72,11.16L2.15,5.06L2.11,5.13M21.89,18.87L22.89,17.13L19.2,15H17.77L17.5,16.34L21.89,18.87Z" />
    </g>
    <g id="mdi-axis-y-rotate-counterclockwise" transform="translate(108 216) scale(1.5)" fill="#fff">
      <path d="M12,14H14.91C14.57,17.45 13.4,20 12,20C10.42,20 9.12,16.73 9,12.58L7,11.43V12C7,17.5 9.24,22 12,22C14.42,22 16.44,18.56 16.9,14H20L16,10L12,14M12,2C10.12,2 8.47,4.08 7.62,7.16L9.37,8.17C9.87,5.69 10.86,4 12,4C13.27,4 14.36,6.11 14.79,9.08L16,7.88L16.7,8.58C16,4.74 14.16,2 12,2M2.11,5.13L1.11,6.87L1.06,6.94L11.12,12.75L12.72,11.16L2.15,5.06L2.11,5.13M21.89,18.87L22.89,17.13L19.2,15H17.77L17.5,16.34L21.89,18.87Z" />
    </g>
    <g id="mdi-axis-z-arrow" transform="translate(144 216) scale(1.5)" fill="#555">
      <path d="M12,2L16,6H13V13.82L22.39,19.25L21.39,21L12,15.56L2.61,21L1.61,19.25L11,13.82V6H8L12,2Z" />
    </g>
    <g id="mdi-axis-z-arrow" transform="translate(180 216) scale(1.5)" fill="#fff">
      <path d="M12,2L16,6H13V13.82L22.39,19.25L21.39,21L12,15.56L2.61,21L1.61,19.25L11,13.82V6H8L12,2Z" />
    </g>
    <g id="mdi-axis-z-arrow-lock" transform="translate(216 216) scale(1.5)" fill="#555">
      <path d="M21.8,5C22.4,5 23,5.6 23,6.3V9.8C23,10.4 22.4,11 21.7,11H16.2C15.6,11 15,10.4 15,9.7V6.2C15,5.6 15.6,5 16.2,5V3.5C16.2,2.1 17.6,1 19,1C20.4,1 21.8,2.1 21.8,3.5V5M20.5,5V3.5C20.5,2.7 19.8,2.2 19,2.2C18.2,2.2 17.5,2.7 17.5,3.5V5H20.5M10,2L14,6H11V13.82L20.39,19.25L19.39,21L10,15.56L3.17,19.5L2.17,17.77L9,13.82V6H6L10,2Z" />
    </g>
    <g id="mdi-axis-z-arrow-lock" transform="translate(252 216) scale(1.5)" fill="#fff">
      <path d="M21.8,5C22.4,5 23,5.6 23,6.3V9.8C23,10.4 22.4,11 21.7,11H16.2C15.6,11 15,10.4 15,9.7V6.2C15,5.6 15.6,5 16.2,5V3.5C16.2,2.1 17.6,1 19,1C20.4,1 21.8,2.1 21.8,3.5V5M20.5,5V3.5C20.5,2.7 19.8,2.2 19,2.2C18.2,2.2 17.5,2.7 17.5,3.5V5H20.5M10,2L14,6H11V13.82L20.39,19.25L19.39,21L10,15.56L3.17,19.5L2.17,17.77L9,13.82V6H6L10,2Z" />
    </g>
    <g id="mdi-axis-z-rotate-clockwise" transform="translate(288 216) scale(1.5)" fill="#555">
      <path d="M14,12L10,16L14,20V16.9C18.56,16.44 22,14.42 22,12C22,9.58 18.56,7.56 14,7.1V9.09C17.45,9.43 20,10.6 20,12C20,13.4 17.45,14.57 14,14.91V12M4,12C4,10.6 6.55,9.43 10,9.09V7.1C5.44,7.56 2,9.58 2,12C2,14.16 4.74,16 8.58,16.7L7.88,16L9.08,14.79C6.11,14.36 4,13.27 4,12M13,2H11V13L13,11V2M13,22V21L11,19V22H13Z" />
    </g>
    <g id="mdi-axis-z-rotate-clockwise" transform="translate(324 216) scale(1.5)" fill="#fff">
      <path d="M14,12L10,16L14,20V16.9C18.56,16.44 22,14.42 22,12C22,9.58 18.56,7.56 14,7.1V9.09C17.45,9.43 20,10.6 20,12C20,13.4 17.45,14.57 14,14.91V12M4,12C4,10.6 6.55,9.43 10,9.09V7.1C5.44,7.56 2,9.58 2,12C2,14.16 4.74,16 8.58,16.7L7.88,16L9.08,14.79C6.11,14.36 4,13.27 4,12M13,2H11V13L13,11V2M13,22V21L11,19V22H13Z" />
    </g>
    <g id="mdi-axis-z-rotate-counterclockwise" transform="translate(360 216) scale(1.5)" fill="#555">
      <path d="M10,12L14,16L10,20V16.9C5.44,16.44 2,14.42 2,12C2,9.58 5.44,7.56 10,7.1V9.09C6.55,9.43 4,10.6 4,12C4,13.4 6.55,14.57 10,14.91V12M20,12C20,10.6 17.45,9.43 14,9.09V7.1C18.56,7.56 22,9.58 22,12C22,14.16 19.26,16 15.42,16.7L16.12,16L14.92,14.79C17.89,14.36 20,13.27 20,12M11,2H13V13L11,11V2M11,22V21L13,19V22H11Z" />
    </g>
    <g id="mdi-axis-z-rotate-counterclockwise" transform="translate(396 216) scale(1.5)" fill="#fff">
      <path d="M10,12L14,16L10,20V16.9C5.44,16.44 2,14.42 2,12C2,9.58 5.44,7.56 10,7.1V9.09C6.55,9.43 4,10.6 4,12C4,13.4 6.55,14.57 10,14.91V12M20,12C20,10.6 17.45,9.43 14,9.09V7.1C18.56,7.56 22,9.58 22,12C22,14.16 19.26,16 15.42,16.7L16.12,16L14.92,14.79C17.89,14.36 20,13.27 20,12M11,2H13V13L11,11V2M11,22V21L13,19V22H11Z" />
    </g>
    <g id="mdi-azure" transform="translate(432 216) scale(1.5)" fill="#555">
      <path d="M13.05,4.24L6.56,18.05L2,18L7.09,9.24L13.05,4.24M13.75,5.33L22,19.76H6.74L16.04,18.1L11.17,12.31L13.75,5.33Z" />
    </g>
    <g id="mdi-azure" transform="translate(468 216) scale(1.5)" fill="#fff">
      <path d="M13.05,4.24L6.56,18.05L2,18L7.09,9.24L13.05,4.24M13.75,5.33L22,19.76H6.74L16.04,18.1L11.17,12.31L13.75,5.33Z" />
    </g>
    <g id="mdi-azure-devops" transform="translate(504 216) scale(1.5)" fill="#555">
      <path d="M22 18L17 22L9 19V22L4.81 16.25L17.72 17.3V6.34L22 5.65V18M4.81 16.25V8.96L17.72 6.34L10.6 2V4.84L3.97 6.76L2 9.38V15.07L4.81 16.25Z" />
    </g>
    <g id="mdi-azure-devops" transform="translate(540 216) scale(1.5)" fill="#fff">
      <path d="M22 18L17 22L9 19V22L4.81 16.25L17.72 17.3V6.34L22 5.65V18M4.81 16.25V8.96L17.72 6.34L10.6 2V4.84L3.97 6.76L2 9.38V15.07L4.81 16.25Z" />
    </g>
    <g id="mdi-babel" transform="translate(576 216) scale(1.5)" fill="#555">
      <path d="M18.23,11.5C18.2,11.34 17.76,10.79 16.91,9.85C16.89,9.66 17.2,9.4 17.81,9.05L19.55,7.5C19.94,7 20.17,6.22 20.24,5.12L20.22,4.86C20.15,4.08 19.59,3.46 18.53,2.97C17.9,2.55 16.77,2.32 15.15,2.29C13.8,2.4 12.04,2.88 9.87,3.72C9.27,4.15 8.59,4.58 7.83,5L7.84,5.14L8.05,5.06C8.13,5.05 8.18,5.09 8.19,5.17L8.32,5.1L8.39,5.09L8.4,5.15C8.4,5.22 7.93,5.59 6.64,6.5L6.58,6.62C6.27,6.64 5.97,6.87 5.67,7.29L5.75,7.41L6,7.32L6.18,7.56C6.5,7.23 6.84,6.94 7.21,6.69C7.4,6.74 7.5,6.8 7.65,6.85C8.67,6.1 9.68,5.55 10.69,5.21L10.7,5.35C10.5,5.62 10.38,5.77 10.32,5.77L10.42,6C10.43,6.19 7.87,13 3.76,20.44L3.84,20.63C4.19,20.55 4.42,20.46 4.59,20.37L4.6,20.5L5,20.47L4.33,22.23L4.47,22.29C5.04,21.65 5.47,21 5.77,20.41C7.44,19.92 8.71,19.44 9.59,18.97C10.47,18.89 11.15,18.66 11.61,18.27L12.53,17.8C13.8,16.82 14.75,16.13 15.4,15.72C16.73,14.74 17.6,13.79 18,12.87L18.23,11.5M14.77,13.81L13,15.2C11.71,16.05 11,16.5 10.91,16.5C8.84,17.63 7.55,18.22 7.05,18.26L7,18.27C7.04,18.04 7.96,16.15 9.75,12.6C10.53,12.54 11.77,12.17 13.46,11.5L13.87,11.47C14.72,11.39 15.36,11.56 15.78,11.96L15.81,12.22C15.5,13.12 15.14,13.66 14.77,13.81M15.86,8.03C15.68,8.25 15.18,8.62 14.36,9.14C14.09,9.17 13.09,9.56 11.35,10.32L11.07,10.27L11.06,10.15C11.04,9.9 11.15,9.58 11.4,9.2C11.53,8.5 11.68,8.08 11.84,8L13.29,4.72C13.27,4.5 13.58,4.37 14.22,4.26L14.43,4.24L14.44,4.42L15.6,4.26C16.75,4.16 17.35,4.4 17.4,4.96L17.53,4.94L17.5,4.62L17.65,4.6C18,4.79 18.17,5 18.19,5.28C18.21,5.46 18.11,5.69 17.9,5.96C17.81,5.97 17.76,5.9 17.75,5.78L17.61,5.79L17.58,6.19C17,7.06 16.57,7.5 16.31,7.53L15.86,8.03Z" />
    </g>
    <g id="mdi-babel" transform="translate(612 216) scale(1.5)" fill="#fff">
      <path d="M18.23,11.5C18.2,11.34 17.76,10.79 16.91,9.85C16.89,9.66 17.2,9.4 17.81,9.05L19.55,7.5C19.94,7 20.17,6.22 20.24,5.12L20.22,4.86C20.15,4.08 19.59,3.46 18.53,2.97C17.9,2.55 16.77,2.32 15.15,2.29C13.8,2.4 12.04,2.88 9.87,3.72C9.27,4.15 8.59,4.58 7.83,5L7.84,5.14L8.05,5.06C8.13,5.05 8.18,5.09 8.19,5.17L8.32,5.1L8.39,5.09L8.4,5.15C8.4,5.22 7.93,5.59 6.64,6.5L6.58,6.62C6.27,6.64 5.97,6.87 5.67,7.29L5.75,7.41L6,7.32L6.18,7.56C6.5,7.23 6.84,6.94 7.21,6.69C7.4,6.74 7.5,6.8 7.65,6.85C8.67,6.1 9.68,5.55 10.69,5.21L10.7,5.35C10.5,5.62 10.38,5.77 10.32,5.77L10.42,6C10.43,6.19 7.87,13 3.76,20.44L3.84,20.63C4.19,20.55 4.42,20.46 4.59,20.37L4.6,20.5L5,20.47L4.33,22.23L4.47,22.29C5.04,21.65 5.47,21 5.77,20.41C7.44,19.92 8.71,19.44 9.59,18.97C10.47,18.89 11.15,18.66 11.61,18.27L12.53,17.8C13.8,16.82 14.75,16.13 15.4,15.72C16.73,14.74 17.6,13.79 18,12.87L18.23,11.5M14.77,13.81L13,15.2C11.71,16.05 11,16.5 10.91,16.5C8.84,17.63 7.55,18.22 7.05,18.26L7,18.27C7.04,18.04 7.96,16.15 9.75,12.6C10.53,12.54 11.77,12.17 13.46,11.5L13.87,11.47C14.72,11.39 15.36,11.56 15.78,11.96L15.81,12.22C15.5,13.12 15.14,13.66 14.77,13.81M15.86,8.03C15.68,8.25 15.18,8.62 14.36,9.14C14.09,9.17 13.09,9.56 11.35,10.32L11.07,10.27L11.06,10.15C11.04,9.9 11.15,9.58 11.4,9.2C11.53,8.5 11.68,8.08 11.84,8L13.29,4.72C13.27,4.5 13.58,4.37 14.22,4.26L14.43,4.24L14.44,4.42L15.6,4.26C16.75,4.16 17.35,4.4 17.4,4.96L17.53,4.94L17.5,4.62L17.65,4.6C18,4.79 18.17,5 18.19,5.28C18.21,5.46 18.11,5.69 17.9,5.96C17.81,5.97 17.76,5.9 17.75,5.78L17.61,5.79L17.58,6.19C17,7.06 16.57,7.5 16.31,7.53L15.86,8.03Z" />
    </g>
    <g id="mdi-baby" transform="translate(648 216) scale(1.5)" fill="#555">
      <path d="M18.5,4A2.5,2.5 0 0,1 21,6.5A2.5,2.5 0 0,1 18.5,9A2.5,2.5 0 0,1 16,6.5A2.5,2.5 0 0,1 18.5,4M4.5,20A1.5,1.5 0 0,1 3,18.5A1.5,1.5 0 0,1 4.5,17H11.5A1.5,1.5 0 0,1 13,18.5A1.5,1.5 0 0,1 11.5,20H4.5M16.09,19L14.69,15H11L6.75,10.75C6.75,10.75 9,8.25 12.5,8.25C15.5,8.25 15.85,9.25 16.06,9.87L18.92,18C19.2,18.78 18.78,19.64 18,19.92C17.22,20.19 16.36,19.78 16.09,19Z" />
    </g>
    <g id="mdi-baby" transform="translate(684 216) scale(1.5)" fill="#fff">
      <path d="M18.5,4A2.5,2.5 0 0,1 21,6.5A2.5,2.5 0 0,1 18.5,9A2.5,2.5 0 0,1 16,6.5A2.5,2.5 0 0,1 18.5,4M4.5,20A1.5,1.5 0 0,1 3,18.5A1.5,1.5 0 0,1 4.5,17H11.5A1.5,1.5 0 0,1 13,18.5A1.5,1.5 0 0,1 11.5,20H4.5M16.09,19L14.69,15H11L6.75,10.75C6.75,10.75 9,8.25 12.5,8.25C15.5,8.25 15.85,9.25 16.06,9.87L18.92,18C19.2,18.78 18.78,19.64 18,19.92C17.22,20.19 16.36,19.78 16.09,19Z" />
    </g>
    <g id="mdi-baby-bottle" transform="translate(0 252) scale(1.5)" fill="#555">
      <path d="M11.28 2.8L10.78 3.3A5.5 5.5 0 0 0 6.41 2.87L6.33 2.8A2.5 2.5 0 0 0 2.8 6.33L2.87 6.41A5.5 5.5 0 0 0 3.3 10.78L2.8 11.28A1.5 1.5 0 0 0 2.8 13.4L4.21 14.82A1.5 1.5 0 0 0 6.33 14.82L6.68 14.46L13.76 21.53A1.5 1.5 0 0 0 15.88 21.53L21.53 15.88A1.5 1.5 0 0 0 21.53 13.76L14.46 6.68L14.82 6.33A1.5 1.5 0 0 0 14.82 4.21L13.4 2.8A1.5 1.5 0 0 0 11.28 2.8M13.76 5.27L5.27 13.76L3.86 12.34L12.34 3.86M14.82 11.63L11.63 14.82L10.57 13.76L13.76 10.57M16.94 13.76L13.76 16.94L12.69 15.88L15.88 12.69Z" />
    </g>
    <g id="mdi-baby-bottle" transform="translate(36 252) scale(1.5)" fill="#fff">
      <path d="M11.28 2.8L10.78 3.3A5.5 5.5 0 0 0 6.41 2.87L6.33 2.8A2.5 2.5 0 0 0 2.8 6.33L2.87 6.41A5.5 5.5 0 0 0 3.3 10.78L2.8 11.28A1.5 1.5 0 0 0 2.8 13.4L4.21 14.82A1.5 1.5 0 0 0 6.33 14.82L6.68 14.46L13.76 21.53A1.5 1.5 0 0 0 15.88 21.53L21.53 15.88A1.5 1.5 0 0 0 21.53 13.76L14.46 6.68L14.82 6.33A1.5 1.5 0 0 0 14.82 4.21L13.4 2.8A1.5 1.5 0 0 0 11.28 2.8M13.76 5.27L5.27 13.76L3.86 12.34L12.34 3.86M14.82 11.63L11.63 14.82L10.57 13.76L13.76 10.57M16.94 13.76L13.76 16.94L12.69 15.88L15.88 12.69Z" />
    </g>
    <g id="mdi-baby-bottle-outline" transform="translate(72 252) scale(1.5)" fill="#555">
      <path d="M11.28 2.8L10.78 3.3C9.44 2.55 7.84 2.4 6.41 2.87L6.33 2.8C5.36 1.82 3.77 1.82 2.8 2.8S1.82 5.36 2.8 6.33L2.87 6.41C2.4 7.84 2.55 9.44 3.3 10.78L2.8 11.28C2.21 11.87 2.21 12.81 2.8 13.4L4.21 14.82C4.8 15.4 5.74 15.4 6.33 14.82L6.68 14.46L13.76 21.53C14.34 22.12 15.29 22.12 15.88 21.53L21.53 15.88C22.12 15.29 22.12 14.34 21.53 13.75L14.46 6.68L14.82 6.33C15.4 5.74 15.4 4.8 14.82 4.21L13.4 2.79C12.82 2.21 11.87 2.21 11.28 2.8M4.25 7.05C4.33 6.71 4.47 6.38 4.66 6.07L3.86 5.27C3.75 5.16 3.67 5.04 3.63 4.9C3.5 4.56 3.57 4.14 3.86 3.86S4.56 3.5 4.9 3.63C5.04 3.67 5.16 3.75 5.27 3.86L6.07 4.66C6.38 4.47 6.71 4.33 7.05 4.25C7.91 4 8.83 4.06 9.65 4.42L4.42 9.65C4.06 8.83 4 7.91 4.25 7.05M20.47 14.82L14.82 20.47L7.75 13.4L13.4 7.75L20.47 14.82M13.76 5.27L5.27 13.76L3.86 12.34L12.34 3.86L13.76 5.27M14.82 11.63L11.63 14.82L10.57 13.76L13.76 10.57L14.82 11.63M16.94 13.76L13.76 16.94L12.69 15.88L15.88 12.69L16.94 13.76Z" />
    </g>
    <g id="mdi-baby-bottle-outline" transform="translate(108 252) scale(1.5)" fill="#fff">
      <path d="M11.28 2.8L10.78 3.3C9.44 2.55 7.84 2.4 6.41 2.87L6.33 2.8C5.36 1.82 3.77 1.82 2.8 2.8S1.82 5.36 2.8 6.33L2.87 6.41C2.4 7.84 2.55 9.44 3.3 10.78L2.8 11.28C2.21 11.87 2.21 12.81 2.8 13.4L4.21 14.82C4.8 15.4 5.74 15.4 6.33 14.82L6.68 14.46L13.76 21.53C14.34 22.12 15.29 22.12 15.88 21.53L21.53 15.88C22.12 15.29 22.12 14.34 21.53 13.75L14.46 6.68L14.82 6.33C15.4 5.74 15.4 4.8 14.82 4.21L13.4 2.79C12.82 2.21 11.87 2.21 11.28 2.8M4.25 7.05C4.33 6.71 4.47 6.38 4.66 6.07L3.86 5.27C3.75 5.16 3.67 5.04 3.63 4.9C3.5 4.56 3.57 4.14 3.86 3.86S4.56 3.5 4.9 3.63C5.04 3.67 5.16 3.75 5.27 3.86L6.07 4.66C6.38 4.47 6.71 4.33 7.05 4.25C7.91 4 8.83 4.06 9.65 4.42L4.42 9.65C4.06 8.83 4 7.91 4.25 7.05M20.47 14.82L14.82 20.47L7.75 13.4L13.4 7.75L20.47 14.82M13.76 5.27L5.27 13.76L3.86 12.34L12.34 3.86L13.76 5.27M14.82 11.63L11.63 14.82L10.57 13.76L13.76 10.57L14.82 11.63M16.94 13.76L13.76 16.94L12.69 15.88L15.88 12.69L16.94 13.76Z" />
    </g>
    <g id="mdi-baby-carriage" transform="translate(144 252) scale(1.5)" fill="#555">
      <path d="M13,2V10H21A8,8 0 0,0 13,2M19.32,15.89C20.37,14.54 21,12.84 21,11H6.44L5.5,9H2V11H4.22C4.22,11 6.11,15.07 6.34,15.42C5.24,16 4.5,17.17 4.5,18.5A3.5,3.5 0 0,0 8,22C9.76,22 11.22,20.7 11.46,19H13.54C13.78,20.7 15.24,22 17,22A3.5,3.5 0 0,0 20.5,18.5C20.5,17.46 20.04,16.53 19.32,15.89M8,20A1.5,1.5 0 0,1 6.5,18.5A1.5,1.5 0 0,1 8,17A1.5,1.5 0 0,1 9.5,18.5A1.5,1.5 0 0,1 8,20M17,20A1.5,1.5 0 0,1 15.5,18.5A1.5,1.5 0 0,1 17,17A1.5,1.5 0 0,1 18.5,18.5A1.5,1.5 0 0,1 17,20Z" />
    </g>
    <g id="mdi-baby-carriage" transform="translate(180 252) scale(1.5)" fill="#fff">
      <path d="M13,2V10H21A8,8 0 0,0 13,2M19.32,15.89C20.37,14.54 21,12.84 21,11H6.44L5.5,9H2V11H4.22C4.22,11 6.11,15.07 6.34,15.42C5.24,16 4.5,17.17 4.5,18.5A3.5,3.5 0 0,0 8,22C9.76,22 11.22,20.7 11.46,19H13.54C13.78,20.7 15.24,22 17,22A3.5,3.5 0 0,0 20.5,18.5C20.5,17.46 20.04,16.53 19.32,15.89M8,20A1.5,1.5 0 0,1 6.5,18.5A1.5,1.5 0 0,1 8,17A1.5,1.5 0 0,1 9.5,18.5A1.5,1.5 0 0,1 8,20M17,20A1.5,1.5 0 0,1 15.5,18.5A1.5,1.5 0 0,1 17,17A1.5,1.5 0 0,1 18.5,18.5A1.5,1.5 0 0,1 17,20Z" />
    </g>
    <g id="mdi-baby-carriage-off" transform="translate(216 252) scale(1.5)" fill="#555">
      <path d="M22 10C22 5.6 18.4 2 14 2V10H22M14.2 11H22C22 12.8 21.4 14.5 20.3 15.9C21 16.5 21.4 17.4 21.5 18.3L14.2 11M20.8 22.7L22.1 21.4L2.4 1.7L1.1 3L9.1 11H7.4L6.5 9H3V11H5.2C5.2 11 7.1 15.1 7.3 15.4C6.3 15.9 5.6 16.9 5.5 18C5.2 19.9 6.6 21.7 8.5 22C10.4 22.3 12.2 20.9 12.5 19H14.6C14.7 19.4 14.8 19.8 15 20.2C15.9 21.9 18.1 22.5 19.7 21.6L20.8 22.7M10.5 18.5C10.5 19.3 9.8 20 9 20S7.5 19.3 7.5 18.5 8.2 17 9 17 10.5 17.7 10.5 18.5M18.1 20C17.2 20 16.5 19.3 16.5 18.5V18.4L18.1 20Z" />
    </g>
    <g id="mdi-baby-carriage-off" transform="translate(252 252) scale(1.5)" fill="#fff">
      <path d="M22 10C22 5.6 18.4 2 14 2V10H22M14.2 11H22C22 12.8 21.4 14.5 20.3 15.9C21 16.5 21.4 17.4 21.5 18.3L14.2 11M20.8 22.7L22.1 21.4L2.4 1.7L1.1 3L9.1 11H7.4L6.5 9H3V11H5.2C5.2 11 7.1 15.1 7.3 15.4C6.3 15.9 5.6 16.9 5.5 18C5.2 19.9 6.6 21.7 8.5 22C10.4 22.3 12.2 20.9 12.5 19H14.6C14.7 19.4 14.8 19.8 15 20.2C15.9 21.9 18.1 22.5 19.7 21.6L20.8 22.7M10.5 18.5C10.5 19.3 9.8 20 9 20S7.5 19.3 7.5 18.5 8.2 17 9 17 10.5 17.7 10.5 18.5M18.1 20C17.2 20 16.5 19.3 16.5 18.5V18.4L18.1 20Z" />
    </g>
    <g id="mdi-baby-face" transform="translate(288 252) scale(1.5)" fill="#555">
      <path d="M1,12C1,10.19 2.2,8.66 3.86,8.17C5.29,5.11 8.4,3 12,3C15.6,3 18.71,5.11 20.15,8.17C21.8,8.66 23,10.19 23,12C23,13.81 21.8,15.34 20.15,15.83C18.71,18.89 15.6,21 12,21C8.4,21 5.29,18.89 3.86,15.83C2.2,15.34 1,13.81 1,12M14.5,9.25A1.25,1.25 0 0,0 13.25,10.5A1.25,1.25 0 0,0 14.5,11.75A1.25,1.25 0 0,0 15.75,10.5A1.25,1.25 0 0,0 14.5,9.25M9.5,9.25A1.25,1.25 0 0,0 8.25,10.5A1.25,1.25 0 0,0 9.5,11.75A1.25,1.25 0 0,0 10.75,10.5A1.25,1.25 0 0,0 9.5,9.25M7.5,14C8.26,15.77 10,17 12,17C14,17 15.74,15.77 16.5,14H7.5M3,12C3,12.82 3.5,13.53 4.21,13.84C4.07,13.25 4,12.63 4,12C4,11.37 4.07,10.75 4.21,10.16C3.5,10.47 3,11.18 3,12M21,12C21,11.18 20.5,10.47 19.79,10.16C19.93,10.75 20,11.37 20,12C20,12.63 19.93,13.25 19.79,13.84C20.5,13.53 21,12.82 21,12Z" />
    </g>
    <g id="mdi-baby-face" transform="translate(324 252) scale(1.5)" fill="#fff">
      <path d="M1,12C1,10.19 2.2,8.66 3.86,8.17C5.29,5.11 8.4,3 12,3C15.6,3 18.71,5.11 20.15,8.17C21.8,8.66 23,10.19 23,12C23,13.81 21.8,15.34 20.15,15.83C18.71,18.89 15.6,21 12,21C8.4,21 5.29,18.89 3.86,15.83C2.2,15.34 1,13.81 1,12M14.5,9.25A1.25,1.25 0 0,0 13.25,10.5A1.25,1.25 0 0,0 14.5,11.75A1.25,1.25 0 0,0 15.75,10.5A1.25,1.25 0 0,0 14.5,9.25M9.5,9.25A1.25,1.25 0 0,0 8.25,10.5A1.25,1.25 0 0,0 9.5,11.75A1.25,1.25 0 0,0 10.75,10.5A1.25,1.25 0 0,0 9.5,9.25M7.5,14C8.26,15.77 10,17 12,17C14,17 15.74,15.77 16.5,14H7.5M3,12C3,12.82 3.5,13.53 4.21,13.84C4.07,13.25 4,12.63 4,12C4,11.37 4.07,10.75 4.21,10.16C3.5,10.47 3,11.18 3,12M21,12C21,11.18 20.5,10.47 19.79,10.16C19.93,10.75 20,11.37 20,12C20,12.63 19.93,13.25 19.79,13.84C20.5,13.53 21,12.82 21,12Z" />
    </g>
    <g id="mdi-baby-face-outline" transform="translate(360 252) scale(1.5)" fill="#555">
      <path d="M14.5,9.25A1.25,1.25 0 0,1 15.75,10.5A1.25,1.25 0 0,1 14.5,11.75A1.25,1.25 0 0,1 13.25,10.5A1.25,1.25 0 0,1 14.5,9.25M9.5,9.25A1.25,1.25 0 0,1 10.75,10.5A1.25,1.25 0 0,1 9.5,11.75A1.25,1.25 0 0,1 8.25,10.5A1.25,1.25 0 0,1 9.5,9.25M7.5,14H16.5C15.74,15.77 14,17 12,17C10,17 8.26,15.77 7.5,14M1,12C1,10.19 2.2,8.66 3.86,8.17C5.29,5.11 8.4,3 12,3C15.6,3 18.71,5.11 20.15,8.17C21.8,8.66 23,10.19 23,12C23,13.81 21.8,15.34 20.15,15.83C18.71,18.89 15.6,21 12,21C8.4,21 5.29,18.89 3.86,15.83C2.2,15.34 1,13.81 1,12M12,5C8.82,5 6.14,7.12 5.28,10H5A2,2 0 0,0 3,12A2,2 0 0,0 5,14H5.28C6.14,16.88 8.82,19 12,19C15.18,19 17.86,16.88 18.72,14H19A2,2 0 0,0 21,12A2,2 0 0,0 19,10H18.72C17.86,7.12 15.18,5 12,5Z" />
    </g>
    <g id="mdi-baby-face-outline" transform="translate(396 252) scale(1.5)" fill="#fff">
      <path d="M14.5,9.25A1.25,1.25 0 0,1 15.75,10.5A1.25,1.25 0 0,1 14.5,11.75A1.25,1.25 0 0,1 13.25,10.5A1.25,1.25 0 0,1 14.5,9.25M9.5,9.25A1.25,1.25 0 0,1 10.75,10.5A1.25,1.25 0 0,1 9.5,11.75A1.25,1.25 0 0,1 8.25,10.5A1.25,1.25 0 0,1 9.5,9.25M7.5,14H16.5C15.74,15.77 14,17 12,17C10,17 8.26,15.77 7.5,14M1,12C1,10.19 2.2,8.66 3.86,8.17C5.29,5.11 8.4,3 12,3C15.6,3 18.71,5.11 20.15,8.17C21.8,8.66 23,10.19 23,12C23,13.81 21.8,15.34 20.15,15.83C18.71,18.89 15.6,21 12,21C8.4,21 5.29,18.89 3.86,15.83C2.2,15.34 1,13.81 1,12M12,5C8.82,5 6.14,7.12 5.28,10H5A2,2 0 0,0 3,12A2,2 0 0,0 5,14H5.28C6.14,16.88 8.82,19 12,19C15.18,19 17.86,16.88 18.72,14H19A2,2 0 0,0 21,12A2,2 0 0,0 19,10H18.72C17.86,7.12 15.18,5 12,5Z" />
    </g>
    <g id="mdi-backburger" transform="translate(432 252) scale(1.5)" fill="#555">
      <path d="M5,13L9,17L7.6,18.42L1.18,12L7.6,5.58L9,7L5,11H21V13H5M21,6V8H11V6H21M21,16V18H11V16H21Z" />
    </g>
    <g id="mdi-backburger" transform="translate(468 252) scale(1.5)" fill="#fff">
      <path d="M5,13L9,17L7.6,18.42L1.18,12L7.6,5.58L9,7L5,11H21V13H5M21,6V8H11V6H21M21,16V18H11V16H21Z" />
    </g>
    <g id="mdi-backspace" transform="translate(504 252) scale(1.5)" fill="#555">
      <path d="M22,3H7C6.31,3 5.77,3.35 5.41,3.88L0,12L5.41,20.11C5.77,20.64 6.31,21 7,21H22A2,2 0 0,0 24,19V5A2,2 0 0,0 22,3M19,15.59L17.59,17L14,13.41L10.41,17L9,15.59L12.59,12L9,8.41L10.41,7L14,10.59L17.59,7L19,8.41L15.41,12" />
    </g>
    <g id="mdi-backspace" transform="translate(540 252) scale(1.5)" fill="#fff">
      <path d="M22,3H7C6.31,3 5.77,3.35 5.41,3.88L0,12L5.41,20.11C5.77,20.64 6.31,21 7,21H22A2,2 0 0,0 24,19V5A2,2 0 0,0 22,3M19,15.59L17.59,17L14,13.41L10.41,17L9,15.59L12.59,12L9,8.41L10.41,7L14,10.59L17.59,7L19,8.41L15.41,12" />
    </g>
    <g id="mdi-backspace-outline" transform="translate(576 252) scale(1.5)" fill="#555">
      <path d="M19,15.59L17.59,17L14,13.41L10.41,17L9,15.59L12.59,12L9,8.41L10.41,7L14,10.59L17.59,7L19,8.41L15.41,12L19,15.59M22,3A2,2 0 0,1 24,5V19A2,2 0 0,1 22,21H7C6.31,21 5.77,20.64 5.41,20.11L0,12L5.41,3.88C5.77,3.35 6.31,3 7,3H22M22,5H7L2.28,12L7,19H22V5Z" />
    </g>
    <g id="mdi-backspace-outline" transform="translate(612 252) scale(1.5)" fill="#fff">
      <path d="M19,15.59L17.59,17L14,13.41L10.41,17L9,15.59L12.59,12L9,8.41L10.41,7L14,10.59L17.59,7L19,8.41L15.41,12L19,15.59M22,3A2,2 0 0,1 24,5V19A2,2 0 0,1 22,21H7C6.31,21 5.77,20.64 5.41,20.11L0,12L5.41,3.88C5.77,3.35 6.31,3 7,3H22M22,5H7L2.28,12L7,19H22V5Z" />
    </g>
    <g id="mdi-backspace-reverse" transform="translate(648 252) scale(1.5)" fill="#555">
      <path d="M2,21H17C17.7,21 18.2,20.6 18.6,20.1L24,12L18.6,3.9C18.2,3.4 17.7,3 17,3H2A2,2 0 0,0 0,5V19A2,2 0 0,0 2,21M5,8.4L6.4,7L10,10.6L13.6,7L15,8.4L11.4,12L15,15.6L13.6,17L10,13.4L6.4,17L5,15.6L8.6,12" />
    </g>
    <g id="mdi-backspace-reverse" transform="translate(684 252) scale(1.5)" fill="#fff">
      <path d="M2,21H17C17.7,21 18.2,20.6 18.6,20.1L24,12L18.6,3.9C18.2,3.4 17.7,3 17,3H2A2,2 0 0,0 0,5V19A2,2 0 0,0 2,21M5,8.4L6.4,7L10,10.6L13.6,7L15,8.4L11.4,12L15,15.6L13.6,17L10,13.4L6.4,17L5,15.6L8.6,12" />
    </g>
    <g id="mdi-backspace-reverse-outline" transform="translate(0 288) scale(1.5)" fill="#555">
      <path d="M5,15.59L6.41,17L10,13.41L13.59,17L15,15.59L11.41,12L15,8.41L13.59,7L10,10.59L6.41,7L5,8.41L8.59,12L5,15.59M2,3A2,2 0 0,0 0,5V19A2,2 0 0,0 2,21H17C17.69,21 18.23,20.64 18.59,20.11L24,12L18.59,3.88C18.23,3.35 17.69,3 17,3H2M2,5H17L21.72,12L17,19H2V5Z" />
    </g>
    <g id="mdi-backspace-reverse-outline" transform="translate(36 288) scale(1.5)" fill="#fff">
      <path d="M5,15.59L6.41,17L10,13.41L13.59,17L15,15.59L11.41,12L15,8.41L13.59,7L10,10.59L6.41,7L5,8.41L8.59,12L5,15.59M2,3A2,2 0 0,0 0,5V19A2,2 0 0,0 2,21H17C17.69,21 18.23,20.64 18.59,20.11L24,12L18.59,3.88C18.23,3.35 17.69,3 17,3H2M2,5H17L21.72,12L17,19H2V5Z" />
    </g>
    <g id="mdi-backup-restore" transform="translate(72 288) scale(1.5)" fill="#555">
      <path d="M12,3A9,9 0 0,0 3,12H0L4,16L8,12H5A7,7 0 0,1 12,5A7,7 0 0,1 19,12A7,7 0 0,1 12,19C10.5,19 9.09,18.5 7.94,17.7L6.5,19.14C8.04,20.3 9.94,21 12,21A9,9 0 0,0 21,12A9,9 0 0,0 12,3M14,12A2,2 0 0,0 12,10A2,2 0 0,0 10,12A2,2 0 0,0 12,14A2,2 0 0,0 14,12Z" />
    </g>
    <g id="mdi-backup-restore" transform="translate(108 288) scale(1.5)" fill="#fff">
      <path d="M12,3A9,9 0 0,0 3,12H0L4,16L8,12H5A7,7 0 0,1 12,5A7,7 0 0,1 19,12A7,7 0 0,1 12,19C10.5,19 9.09,18.5 7.94,17.7L6.5,19.14C8.04,20.3 9.94,21 12,21A9,9 0 0,0 21,12A9,9 0 0,0 12,3M14,12A2,2 0 0,0 12,10A2,2 0 0,0 10,12A2,2 0 0,0 12,14A2,2 0 0,0 14,12Z" />
    </g>
    <g id="mdi-bacteria" transform="translate(144 288) scale(1.5)" fill="#555">
      <path d="M21,16C21,15.5 20.95,15.08 20.88,14.68L22.45,13.9L21.55,12.1L20.18,12.79C19.63,11.96 18.91,11.5 18.29,11.28L18.95,9.32L17.05,8.68L16.29,10.96C14.96,10.83 14.17,10.32 13.7,9.77L15.45,8.9L14.55,7.1L13,7.89C12.97,7.59 12.86,6.72 12.28,5.87L13.83,3.55L12.17,2.44L10.76,4.56C10.28,4.33 9.7,4.15 9,4.06V2H7V4.1C6.29,4.25 5.73,4.54 5.32,4.91L2.7,2.29L1.29,3.71L4.24,6.65C4,7.39 4,8 4,8H2V10H4.04C4.1,10.63 4.21,11.36 4.4,12.15L1.68,13.05L2.31,14.95L5,14.05C5.24,14.56 5.5,15.08 5.82,15.58L3.44,17.17L4.55,18.83L7.07,17.15C7.63,17.71 8.29,18.21 9.06,18.64L8.1,20.55L9.89,21.45L10.89,19.45L10.73,19.36C11.68,19.68 12.76,19.9 14,19.97V22H16V19.93C16.76,19.84 17.81,19.64 18.77,19.19L20.29,20.71L21.7,19.29L20.37,17.95C20.75,17.44 21,16.8 21,16M8.5,11A1.5,1.5 0 0,1 7,9.5A1.5,1.5 0 0,1 8.5,8A1.5,1.5 0 0,1 10,9.5A1.5,1.5 0 0,1 8.5,11M11,14A1,1 0 0,1 10,13A1,1 0 0,1 11,12A1,1 0 0,1 12,13A1,1 0 0,1 11,14M15.5,17A1.5,1.5 0 0,1 14,15.5A1.5,1.5 0 0,1 15.5,14A1.5,1.5 0 0,1 17,15.5A1.5,1.5 0 0,1 15.5,17Z" />
    </g>
    <g id="mdi-bacteria" transform="translate(180 288) scale(1.5)" fill="#fff">
      <path d="M21,16C21,15.5 20.95,15.08 20.88,14.68L22.45,13.9L21.55,12.1L20.18,12.79C19.63,11.96 18.91,11.5 18.29,11.28L18.95,9.32L17.05,8.68L16.29,10.96C14.96,10.83 14.17,10.32 13.7,9.77L15.45,8.9L14.55,7.1L13,7.89C12.97,7.59 12.86,6.72 12.28,5.87L13.83,3.55L12.17,2.44L10.76,4.56C10.28,4.33 9.7,4.15 9,4.06V2H7V4.1C6.29,4.25 5.73,4.54 5.32,4.91L2.7,2.29L1.29,3.71L4.24,6.65C4,7.39 4,8 4,8H2V10H4.04C4.1,10.63 4.21,11.36 4.4,12.15L1.68,13.05L2.31,14.95L5,14.05C5.24,14.56 5.5,15.08 5.82,15.58L3.44,17.17L4.55,18.83L7.07,17.15C7.63,17.71 8.29,18.21 9.06,18.64L8.1,20.55L9.89,21.45L10.89,19.45L10.73,19.36C11.68,19.68 12.76,19.9 14,19.97V22H16V19.93C16.76,19.84 17.81,19.64 18.77,19.19L20.29,20.71L21.7,19.29L20.37,17.95C20.75,17.44 21,16.8 21,16M8.5,11A1.5,1.5 0 0,1 7,9.5A1.5,1.5 0 0,1 8.5,8A1.5,1.5 0 0,1 10,9.5A1.5,1.5 0 0,1 8.5,11M11,14A1,1 0 0,1 10,13A1,1 0 0,1 11,12A1,1 0 0,1 12,13A1,1 0 0,1 11,14M15.5,17A1.5,1.5 0 0,1 14,15.5A1.5,1.5 0 0,1 15.5,14A1.5,1.5 0 0,1 17,15.5A1.5,1.5 0 0,1 15.5,17Z" />
    </g>
    <g id="mdi-bacteria-outline" transform="translate(216 288) scale(1.5)" fill="#555">
      <path d="M9,2H7V4.1C6.29,4.25 5.73,4.54 5.32,4.91L2.7,2.29L1.29,3.71L4.24,6.65C4,7.39 4,8 4,8H2V10H4.04C4.1,10.63 4.21,11.36 4.4,12.15L1.68,13.05L2.31,14.95L5,14.05C5.24,14.56 5.5,15.08 5.82,15.58L3.44,17.17L4.55,18.83L7.07,17.15C7.63,17.71 8.29,18.21 9.06,18.64L8.1,20.55L9.89,21.45L10.89,19.45L10.73,19.36C11.68,19.68 12.76,19.9 14,19.97V22H16V19.93C16.76,19.84 17.81,19.64 18.77,19.19L20.29,20.71L21.7,19.29L20.37,17.95C20.75,17.44 21,16.8 21,16C21,15.5 20.95,15.08 20.88,14.68L22.45,13.9L21.55,12.1L20.18,12.79C19.63,11.96 18.91,11.5 18.29,11.28L18.95,9.32L17.05,8.68L16.29,10.96C14.96,10.83 14.17,10.32 13.7,9.77L15.45,8.9L14.55,7.1L13,7.89C12.97,7.59 12.86,6.72 12.28,5.87L13.83,3.55L12.17,2.44L10.76,4.56C10.28,4.33 9.7,4.15 9,4.06M15,18C12.06,18 9.81,17.18 8.31,15.56C5.68,12.72 6,8.2 6,8.17V8.11L6,8.03C6,7.1 6.39,6 8,6C10.63,6 10.97,7.43 11,8C11,10 12.6,13 17,13C17.33,13 19,13.15 19,16C19,17.89 15.03,18 15,18M8.5,8A1.5,1.5 0 0,0 7,9.5A1.5,1.5 0 0,0 8.5,11A1.5,1.5 0 0,0 10,9.5A1.5,1.5 0 0,0 8.5,8M11,12A1,1 0 0,0 10,13A1,1 0 0,0 11,14A1,1 0 0,0 12,13A1,1 0 0,0 11,12M15.5,14A1.5,1.5 0 0,0 14,15.5A1.5,1.5 0 0,0 15.5,17A1.5,1.5 0 0,0 17,15.5A1.5,1.5 0 0,0 15.5,14Z" />
    </g>
    <g id="mdi-bacteria-outline" transform="translate(252 288) scale(1.5)" fill="#fff">
      <path d="M9,2H7V4.1C6.29,4.25 5.73,4.54 5.32,4.91L2.7,2.29L1.29,3.71L4.24,6.65C4,7.39 4,8 4,8H2V10H4.04C4.1,10.63 4.21,11.36 4.4,12.15L1.68,13.05L2.31,14.95L5,14.05C5.24,14.56 5.5,15.08 5.82,15.58L3.44,17.17L4.55,18.83L7.07,17.15C7.63,17.71 8.29,18.21 9.06,18.64L8.1,20.55L9.89,21.45L10.89,19.45L10.73,19.36C11.68,19.68 12.76,19.9 14,19.97V22H16V19.93C16.76,19.84 17.81,19.64 18.77,19.19L20.29,20.71L21.7,19.29L20.37,17.95C20.75,17.44 21,16.8 21,16C21,15.5 20.95,15.08 20.88,14.68L22.45,13.9L21.55,12.1L20.18,12.79C19.63,11.96 18.91,11.5 18.29,11.28L18.95,9.32L17.05,8.68L16.29,10.96C14.96,10.83 14.17,10.32 13.7,9.77L15.45,8.9L14.55,7.1L13,7.89C12.97,7.59 12.86,6.72 12.28,5.87L13.83,3.55L12.17,2.44L10.76,4.56C10.28,4.33 9.7,4.15 9,4.06M15,18C12.06,18 9.81,17.18 8.31,15.56C5.68,12.72 6,8.2 6,8.17V8.11L6,8.03C6,7.1 6.39,6 8,6C10.63,6 10.97,7.43 11,8C11,10 12.6,13 17,13C17.33,13 19,13.15 19,16C19,17.89 15.03,18 15,18M8.5,8A1.5,1.5 0 0,0 7,9.5A1.5,1.5 0 0,0 8.5,11A1.5,1.5 0 0,0 10,9.5A1.5,1.5 0 0,0 8.5,8M11,12A1,1 0 0,0 10,13A1,1 0 0,0 11,14A1,1 0 0,0 12,13A1,1 0 0,0 11,12M15.5,14A1.5,1.5 0 0,0 14,15.5A1.5,1.5 0 0,0 15.5,17A1.5,1.5 0 0,0 17,15.5A1.5,1.5 0 0,0 15.5,14Z" />
    </g>
    <g id="mdi-badminton" transform="translate(288 288) scale(1.5)" fill="#555">
      <path d="M12.3,2C11.33,2.03 10.58,2.84 10.61,3.8C10.62,4.04 10.67,4.27 10.77,4.5L11.06,5.14V5.14C11.1,5.27 11.03,5.41 10.89,5.45C10.8,5.5 10.7,5.45 10.63,5.37L10.21,4.82C9.88,4.4 9.38,4.14 8.85,4.13C7.88,4.11 7.08,4.88 7.06,5.84C7.05,6.26 7.19,6.66 7.45,7L7.87,7.5H7.88C7.96,7.63 7.93,7.79 7.82,7.87C7.73,7.94 7.61,7.94 7.53,7.87L7,7.45C6.66,7.19 6.25,7.05 5.84,7.06C4.88,7.08 4.11,7.88 4.13,8.85C4.14,9.38 4.4,9.88 4.82,10.21L5.39,10.65C5.5,10.75 5.5,10.91 5.38,11C5.31,11.07 5.21,11.09 5.12,11.05H5.11L4.5,10.77C4.27,10.68 4.04,10.62 3.8,10.61C2.84,10.58 2.03,11.34 2,12.31C2,13.03 2.4,13.69 3.06,13.97L14.45,19.04L19.04,14.45L13.97,3.06C13.69,2.39 13,1.97 12.3,2M13.13,6.1C13.55,6.09 13.93,6.33 14.09,6.71L17.14,13.55L13.19,9.61L12.26,7.5C11.96,6.87 12.42,6.12 13.13,6.1M9.85,8.85C10.12,8.85 10.37,8.95 10.56,9.15L15.37,13.96C15.77,14.34 15.78,14.97 15.4,15.37C15,15.77 14.38,15.78 13.96,15.37L9.15,10.56C8.75,10.18 8.74,9.54 9.13,9.15C9.32,8.95 9.58,8.85 9.85,8.85M7.13,12.17C7.26,12.17 7.4,12.21 7.5,12.26L9.63,13.2L13.57,17.14L6.71,14.09C5.69,13.65 6.03,12.14 7.13,12.17M20.28,16.04L16.04,20.28L16.89,21.13C17.65,21.88 18.75,22.17 19.78,21.9C20.81,21.62 21.62,20.81 21.9,19.78C22.17,18.75 21.88,17.65 21.13,16.89L20.28,16.04Z" />
    </g>
    <g id="mdi-badminton" transform="translate(324 288) scale(1.5)" fill="#fff">
      <path d="M12.3,2C11.33,2.03 10.58,2.84 10.61,3.8C10.62,4.04 10.67,4.27 10.77,4.5L11.06,5.14V5.14C11.1,5.27 11.03,5.41 10.89,5.45C10.8,5.5 10.7,5.45 10.63,5.37L10.21,4.82C9.88,4.4 9.38,4.14 8.85,4.13C7.88,4.11 7.08,4.88 7.06,5.84C7.05,6.26 7.19,6.66 7.45,7L7.87,7.5H7.88C7.96,7.63 7.93,7.79 7.82,7.87C7.73,7.94 7.61,7.94 7.53,7.87L7,7.45C6.66,7.19 6.25,7.05 5.84,7.06C4.88,7.08 4.11,7.88 4.13,8.85C4.14,9.38 4.4,9.88 4.82,10.21L5.39,10.65C5.5,10.75 5.5,10.91 5.38,11C5.31,11.07 5.21,11.09 5.12,11.05H5.11L4.5,10.77C4.27,10.68 4.04,10.62 3.8,10.61C2.84,10.58 2.03,11.34 2,12.31C2,13.03 2.4,13.69 3.06,13.97L14.45,19.04L19.04,14.45L13.97,3.06C13.69,2.39 13,1.97 12.3,2M13.13,6.1C13.55,6.09 13.93,6.33 14.09,6.71L17.14,13.55L13.19,9.61L12.26,7.5C11.96,6.87 12.42,6.12 13.13,6.1M9.85,8.85C10.12,8.85 10.37,8.95 10.56,9.15L15.37,13.96C15.77,14.34 15.78,14.97 15.4,15.37C15,15.77 14.38,15.78 13.96,15.37L9.15,10.56C8.75,10.18 8.74,9.54 9.13,9.15C9.32,8.95 9.58,8.85 9.85,8.85M7.13,12.17C7.26,12.17 7.4,12.21 7.5,12.26L9.63,13.2L13.57,17.14L6.71,14.09C5.69,13.65 6.03,12.14 7.13,12.17M20.28,16.04L16.04,20.28L16.89,21.13C17.65,21.88 18.75,22.17 19.78,21.9C20.81,21.62 21.62,20.81 21.9,19.78C22.17,18.75 21.88,17.65 21.13,16.89L20.28,16.04Z" />
    </g>
    <g id="mdi-bag-carry-on" transform="translate(360 288) scale(1.5)" fill="#555">
      <path d="M14.6 21.4C15 21.8 15.4 22 16 22S17 21.8 17.4 21.4 18 20.6 18 20 17.8 19 17.4 18.6 16.5 18 16 18 15 18.2 14.6 18.6 14 19.4 14 20 14.2 21 14.6 21.4M6 19C6 19.5 6.2 20 6.6 20.4C7 20.8 7.5 21 8 21V7C7.5 7 7 7.2 6.6 7.6C6.2 8 6 8.5 6 9V19M16 2H12C12 2.5 12.2 3 12.6 3.4C13 3.8 13.5 4 14 4V7H9V21H13.2C13 20.5 13 20.2 13 20C13 19.2 13.3 18.5 13.9 17.9C14.5 17.3 15.2 17 16 17V2Z" />
    </g>
    <g id="mdi-bag-carry-on" transform="translate(396 288) scale(1.5)" fill="#fff">
      <path d="M14.6 21.4C15 21.8 15.4 22 16 22S17 21.8 17.4 21.4 18 20.6 18 20 17.8 19 17.4 18.6 16.5 18 16 18 15 18.2 14.6 18.6 14 19.4 14 20 14.2 21 14.6 21.4M6 19C6 19.5 6.2 20 6.6 20.4C7 20.8 7.5 21 8 21V7C7.5 7 7 7.2 6.6 7.6C6.2 8 6 8.5 6 9V19M16 2H12C12 2.5 12.2 3 12.6 3.4C13 3.8 13.5 4 14 4V7H9V21H13.2C13 20.5 13 20.2 13 20C13 19.2 13.3 18.5 13.9 17.9C14.5 17.3 15.2 17 16 17V2Z" />
    </g>
    <g id="mdi-bag-carry-on-check" transform="translate(432 288) scale(1.5)" fill="#555">
      <path d="M15.28,16.69L18.14,13.88L18.84,14.58L15.28,18.14L13.17,16L13.88,15.28L15.28,16.69M8,21A2,2 0 0,1 6,19V9A2,2 0 0,1 8,7V21M9,7H14V4A2,2 0 0,1 12,2H16V10A6,6 0 0,1 22,16A6,6 0 0,1 16,22C14.77,22 13.63,21.63 12.68,21H9V7M16,12A4,4 0 0,0 12,16A4,4 0 0,0 16,20A4,4 0 0,0 20,16A4,4 0 0,0 16,12Z" />
    </g>
    <g id="mdi-bag-carry-on-check" transform="translate(468 288) scale(1.5)" fill="#fff">
      <path d="M15.28,16.69L18.14,13.88L18.84,14.58L15.28,18.14L13.17,16L13.88,15.28L15.28,16.69M8,21A2,2 0 0,1 6,19V9A2,2 0 0,1 8,7V21M9,7H14V4A2,2 0 0,1 12,2H16V10A6,6 0 0,1 22,16A6,6 0 0,1 16,22C14.77,22 13.63,21.63 12.68,21H9V7M16,12A4,4 0 0,0 12,16A4,4 0 0,0 16,20A4,4 0 0,0 20,16A4,4 0 0,0 16,12Z" />
    </g>
    <g id="mdi-bag-carry-on-off" transform="translate(504 288) scale(1.5)" fill="#555">
      <path d="M2.1 4.9L6 8.9V19C6 19.5 6.2 20 6.6 20.4C7 20.8 7.5 21 8 21V10.8L9 11.8V21H13.2C13.1 20.6 13 20.2 13 20C13 18.8 13.5 18 14.6 17.4L15.4 18.2C14.5 18.5 14.1 19.2 14.1 20.1C14.1 20.6 14.3 21.1 14.7 21.5C15 21.8 15.5 22 16 22C16.9 22 17.6 21.6 17.9 20.7L19.1 21.9L20.5 20.5L3.5 3.5L2.1 4.9M12 2C12 2.5 12.2 3 12.6 3.4S13.5 4 14 4V7H9.8L16 13.2V2H12Z" />
    </g>
    <g id="mdi-bag-carry-on-off" transform="translate(540 288) scale(1.5)" fill="#fff">
      <path d="M2.1 4.9L6 8.9V19C6 19.5 6.2 20 6.6 20.4C7 20.8 7.5 21 8 21V10.8L9 11.8V21H13.2C13.1 20.6 13 20.2 13 20C13 18.8 13.5 18 14.6 17.4L15.4 18.2C14.5 18.5 14.1 19.2 14.1 20.1C14.1 20.6 14.3 21.1 14.7 21.5C15 21.8 15.5 22 16 22C16.9 22 17.6 21.6 17.9 20.7L19.1 21.9L20.5 20.5L3.5 3.5L2.1 4.9M12 2C12 2.5 12.2 3 12.6 3.4S13.5 4 14 4V7H9.8L16 13.2V2H12Z" />
    </g>
    <g id="mdi-bag-checked" transform="translate(576 288) scale(1.5)" fill="#555">
      <path d="M22 19H2V21H22V19M4 15C4 15.5 4.2 16 4.6 16.4C5 16.8 5.5 17 6 17V6C5.5 6 5 6.2 4.6 6.6C4.2 7 4 7.5 4 8V15M13.5 6H10.5C10.5 5.6 10.6 5.2 10.9 4.9C11.2 4.6 11.5 4.5 12 4.5C12.4 4.5 12.8 4.6 13.1 4.9C13.3 5.2 13.5 5.6 13.5 6M7 6V17H17V6H15C15 5.2 14.7 4.5 14.1 3.9S12.8 3 12 3C11.2 3 10.5 3.3 9.9 3.9C9.3 4.5 9 5.2 9 6H7M18 17C18.5 17 19 16.8 19.4 16.4C19.8 16 20 15.5 20 15V8C20 7.5 19.8 7 19.4 6.6C19 6.2 18.5 6 18 6V17Z" />
    </g>
    <g id="mdi-bag-checked" transform="translate(612 288) scale(1.5)" fill="#fff">
      <path d="M22 19H2V21H22V19M4 15C4 15.5 4.2 16 4.6 16.4C5 16.8 5.5 17 6 17V6C5.5 6 5 6.2 4.6 6.6C4.2 7 4 7.5 4 8V15M13.5 6H10.5C10.5 5.6 10.6 5.2 10.9 4.9C11.2 4.6 11.5 4.5 12 4.5C12.4 4.5 12.8 4.6 13.1 4.9C13.3 5.2 13.5 5.6 13.5 6M7 6V17H17V6H15C15 5.2 14.7 4.5 14.1 3.9S12.8 3 12 3C11.2 3 10.5 3.3 9.9 3.9C9.3 4.5 9 5.2 9 6H7M18 17C18.5 17 19 16.8 19.4 16.4C19.8 16 20 15.5 20 15V8C20 7.5 19.8 7 19.4 6.6C19 6.2 18.5 6 18 6V17Z" />
    </g>
    <g id="mdi-bag-personal" transform="translate(648 288) scale(1.5)" fill="#555">
      <path d="M16,5V4A2,2 0 0,0 14,2H10A2,2 0 0,0 8,4V5A4,4 0 0,0 4,9V20A2,2 0 0,0 6,22H18A2,2 0 0,0 20,20V9A4,4 0 0,0 16,5M10,4H14V5H10V4M12,9L14,11L12,13L10,11L12,9M18,16H9V18H8V16H6V15H18V16Z" />
    </g>
    <g id="mdi-bag-personal" transform="translate(684 288) scale(1.5)" fill="#fff">
      <path d="M16,5V4A2,2 0 0,0 14,2H10A2,2 0 0,0 8,4V5A4,4 0 0,0 4,9V20A2,2 0 0,0 6,22H18A2,2 0 0,0 20,20V9A4,4 0 0,0 16,5M10,4H14V5H10V4M12,9L14,11L12,13L10,11L12,9M18,16H9V18H8V16H6V15H18V16Z" />
    </g>
    <g id="mdi-bag-personal-off" transform="translate(0 324) scale(1.5)" fill="#555">
      <path d="M20,19.35L2.38,1.73L1.11,3L4.77,6.66C4.27,7.34 4,8.16 4,9V20A2,2 0 0,0 6,22H18C18.56,22 19.08,21.76 19.46,21.35L20.84,22.73L22.11,21.46L20,19.35M9,16V18H8V16H6V15H13.11L14.11,16H9M20,9A4,4 0 0,0 16,5V4A2,2 0 0,0 14,2H10A2,2 0 0,0 8,4V4.8L20,16.8V9M14,5H10V4H14V5Z" />
    </g>
    <g id="mdi-bag-personal-off" transform="translate(36 324) scale(1.5)" fill="#fff">
      <path d="M20,19.35L2.38,1.73L1.11,3L4.77,6.66C4.27,7.34 4,8.16 4,9V20A2,2 0 0,0 6,22H18C18.56,22 19.08,21.76 19.46,21.35L20.84,22.73L22.11,21.46L20,19.35M9,16V18H8V16H6V15H13.11L14.11,16H9M20,9A4,4 0 0,0 16,5V4A2,2 0 0,0 14,2H10A2,2 0 0,0 8,4V4.8L20,16.8V9M14,5H10V4H14V5Z" />
    </g>
    <g id="mdi-bag-personal-off-outline" transform="translate(72 324) scale(1.5)" fill="#555">
      <path d="M20,19.35L2.38,1.73L1.11,3L4.77,6.66C4.27,7.34 4,8.16 4,9V20A2,2 0 0,0 6,22H18C18.56,22 19.08,21.76 19.46,21.35L20.84,22.73L22.11,21.46L20,19.35M6,9C6,8.69 6.08,8.38 6.22,8.11L13.11,15H6V9M18,20H6V16H8V18H9V16H14.11L18,19.89V20M16,7A2,2 0 0,1 18,9V14.8L20,16.8V9A4,4 0 0,0 16,5V4A2,2 0 0,0 14,2H10A2,2 0 0,0 8,4V4.8L10.2,7H16M10,4H14V5H10V4Z" />
    </g>
    <g id="mdi-bag-personal-off-outline" transform="translate(108 324) scale(1.5)" fill="#fff">
      <path d="M20,19.35L2.38,1.73L1.11,3L4.77,6.66C4.27,7.34 4,8.16 4,9V20A2,2 0 0,0 6,22H18C18.56,22 19.08,21.76 19.46,21.35L20.84,22.73L22.11,21.46L20,19.35M6,9C6,8.69 6.08,8.38 6.22,8.11L13.11,15H6V9M18,20H6V16H8V18H9V16H14.11L18,19.89V20M16,7A2,2 0 0,1 18,9V14.8L20,16.8V9A4,4 0 0,0 16,5V4A2,2 0 0,0 14,2H10A2,2 0 0,0 8,4V4.8L10.2,7H16M10,4H14V5H10V4Z" />
    </g>
    <g id="mdi-bag-personal-outline" transform="translate(144 324) scale(1.5)" fill="#555">
      <path d="M16,5V4A2,2 0 0,0 14,2H10A2,2 0 0,0 8,4V5A4,4 0 0,0 4,9V20A2,2 0 0,0 6,22H18A2,2 0 0,0 20,20V9A4,4 0 0,0 16,5M10,4H14V5H10V4M12,9L14,11L12,13L10,11L12,9M18,20H6V16H8V18H9V16H18V20M18,15H6V9A2,2 0 0,1 8,7H16A2,2 0 0,1 18,9V15Z" />
    </g>
    <g id="mdi-bag-personal-outline" transform="translate(180 324) scale(1.5)" fill="#fff">
      <path d="M16,5V4A2,2 0 0,0 14,2H10A2,2 0 0,0 8,4V5A4,4 0 0,0 4,9V20A2,2 0 0,0 6,22H18A2,2 0 0,0 20,20V9A4,4 0 0,0 16,5M10,4H14V5H10V4M12,9L14,11L12,13L10,11L12,9M18,20H6V16H8V18H9V16H18V20M18,15H6V9A2,2 0 0,1 8,7H16A2,2 0 0,1 18,9V15Z" />
    </g>
    <g id="mdi-baguette" transform="translate(216 324) scale(1.5)" fill="#555">
      <path d="M5 22C3.68 22 3.15 19.64 3.04 18.7A5.56 5.56 0 0 1 3.36 16A2.5 2.5 0 0 1 5.23 14.38C6.4 14.18 7.23 14.88 8.29 15.12A1.21 1.21 0 0 0 9.85 13.75C9.41 12.03 6.28 12 5 12C5 10.14 7.04 9.9 8.5 10.04A10.8 10.8 0 0 1 11.04 10.6C11.54 10.77 12.12 11.2 12.67 11.16C13.5 11.09 13.67 10.23 13.31 9.6C12.44 8.12 9.97 8 8.5 8C8.5 6 10.23 5.62 11.89 5.92A11.58 11.58 0 0 1 14.38 6.71C14.89 6.93 15.5 7.35 16.06 7.16C17.5 6.72 16 5.18 15.36 4.81A6.6 6.6 0 0 0 13.94 4.23C13.4 4.07 12.74 4.13 13.23 3.5A5.13 5.13 0 0 1 15.96 2.26C17.85 1.82 20.46 1.74 20.92 4.12A5.3 5.3 0 0 1 20.07 7.7A38.96 38.96 0 0 1 13.22 16.33A36.6 36.6 0 0 1 8.62 20.32C7.62 21.04 6.3 22 5 22Z" />
    </g>
    <g id="mdi-baguette" transform="translate(252 324) scale(1.5)" fill="#fff">
      <path d="M5 22C3.68 22 3.15 19.64 3.04 18.7A5.56 5.56 0 0 1 3.36 16A2.5 2.5 0 0 1 5.23 14.38C6.4 14.18 7.23 14.88 8.29 15.12A1.21 1.21 0 0 0 9.85 13.75C9.41 12.03 6.28 12 5 12C5 10.14 7.04 9.9 8.5 10.04A10.8 10.8 0 0 1 11.04 10.6C11.54 10.77 12.12 11.2 12.67 11.16C13.5 11.09 13.67 10.23 13.31 9.6C12.44 8.12 9.97 8 8.5 8C8.5 6 10.23 5.62 11.89 5.92A11.58 11.58 0 0 1 14.38 6.71C14.89 6.93 15.5 7.35 16.06 7.16C17.5 6.72 16 5.18 15.36 4.81A6.6 6.6 0 0 0 13.94 4.23C13.4 4.07 12.74 4.13 13.23 3.5A5.13 5.13 0 0 1 15.96 2.26C17.85 1.82 20.46 1.74 20.92 4.12A5.3 5.3 0 0 1 20.07 7.7A38.96 38.96 0 0 1 13.22 16.33A36.6 36.6 0 0 1 8.62 20.32C7.62 21.04 6.3 22 5 22Z" />
    </g>
    <g id="mdi-balloon" transform="translate(288 324) scale(1.5)" fill="#555">
      <path d="M13.16,12.74L14,14H12.5C12.35,16.71 12,19.41 11.5,22.08L10.5,21.92C11,19.3 11.34,16.66 11.5,14H10L10.84,12.74C8.64,11.79 7,8.36 7,6A5,5 0 0,1 12,1A5,5 0 0,1 17,6C17,8.36 15.36,11.79 13.16,12.74Z" />
    </g>
    <g id="mdi-balloon" transform="translate(324 324) scale(1.5)" fill="#fff">
      <path d="M13.16,12.74L14,14H12.5C12.35,16.71 12,19.41 11.5,22.08L10.5,21.92C11,19.3 11.34,16.66 11.5,14H10L10.84,12.74C8.64,11.79 7,8.36 7,6A5,5 0 0,1 12,1A5,5 0 0,1 17,6C17,8.36 15.36,11.79 13.16,12.74Z" />
    </g>
    <g id="mdi-ballot" transform="translate(360 324) scale(1.5)" fill="#555">
      <path d="M13,9.5H18V7.5H13V9.5M13,16.5H18V14.5H13V16.5M19,21H5A2,2 0 0,1 3,19V5A2,2 0 0,1 5,3H19A2,2 0 0,1 21,5V19A2,2 0 0,1 19,21M6,11H11V6H6V11M7,7H10V10H7V7M6,18H11V13H6V18M7,14H10V17H7V14Z" />
    </g>
    <g id="mdi-ballot" transform="translate(396 324) scale(1.5)" fill="#fff">
      <path d="M13,9.5H18V7.5H13V9.5M13,16.5H18V14.5H13V16.5M19,21H5A2,2 0 0,1 3,19V5A2,2 0 0,1 5,3H19A2,2 0 0,1 21,5V19A2,2 0 0,1 19,21M6,11H11V6H6V11M7,7H10V10H7V7M6,18H11V13H6V18M7,14H10V17H7V14Z" />
    </g>
    <g id="mdi-ballot-outline" transform="translate(432 324) scale(1.5)" fill="#555">
      <path d="M13,7.5H18V9.5H13V7.5M13,14.5H18V16.5H13V14.5M19,3A2,2 0 0,1 21,5V19A2,2 0 0,1 19,21H5A2,2 0 0,1 3,19V5A2,2 0 0,1 5,3H19M19,19V5H5V19H19M11,6V11H6V6H11M10,10V7H7V10H10M11,13V18H6V13H11M10,17V14H7V17H10Z" />
    </g>
    <g id="mdi-ballot-outline" transform="translate(468 324) scale(1.5)" fill="#fff">
      <path d="M13,7.5H18V9.5H13V7.5M13,14.5H18V16.5H13V14.5M19,3A2,2 0 0,1 21,5V19A2,2 0 0,1 19,21H5A2,2 0 0,1 3,19V5A2,2 0 0,1 5,3H19M19,19V5H5V19H19M11,6V11H6V6H11M10,10V7H7V10H10M11,13V18H6V13H11M10,17V14H7V17H10Z" />
    </g>
    <g id="mdi-ballot-recount" transform="translate(504 324) scale(1.5)" fill="#555">
      <path d="M19,12V13.5A4,4 0 0,1 23,17.5C23,18.32 22.75,19.08 22.33,19.71L21.24,18.62C21.41,18.28 21.5,17.9 21.5,17.5A2.5,2.5 0 0,0 19,15V16.5L16.75,14.25L19,12M19,23V21.5A4,4 0 0,1 15,17.5C15,16.68 15.25,15.92 15.67,15.29L16.76,16.38C16.59,16.72 16.5,17.1 16.5,17.5A2.5,2.5 0 0,0 19,20V18.5L21.25,20.75L19,23M10,17H7V14H10V17M10,7V10H7V7H10M5,21A2,2 0 0,1 3,19V5A2,2 0 0,1 5,3H19A2,2 0 0,1 21,5V11.17C20.5,11.06 20,11 19.5,11A6.5,6.5 0 0,0 13,17.5C13,18.79 13.38,20 14,21H5M13,9.5H18V7.5H13V9.5M11,13H6V18H11V13M11,6H6V11H11V6Z" />
    </g>
    <g id="mdi-ballot-recount" transform="translate(540 324) scale(1.5)" fill="#fff">
      <path d="M19,12V13.5A4,4 0 0,1 23,17.5C23,18.32 22.75,19.08 22.33,19.71L21.24,18.62C21.41,18.28 21.5,17.9 21.5,17.5A2.5,2.5 0 0,0 19,15V16.5L16.75,14.25L19,12M19,23V21.5A4,4 0 0,1 15,17.5C15,16.68 15.25,15.92 15.67,15.29L16.76,16.38C16.59,16.72 16.5,17.1 16.5,17.5A2.5,2.5 0 0,0 19,20V18.5L21.25,20.75L19,23M10,17H7V14H10V17M10,7V10H7V7H10M5,21A2,2 0 0,1 3,19V5A2,2 0 0,1 5,3H19A2,2 0 0,1 21,5V11.17C20.5,11.06 20,11 19.5,11A6.5,6.5 0 0,0 13,17.5C13,18.79 13.38,20 14,21H5M13,9.5H18V7.5H13V9.5M11,13H6V18H11V13M11,6H6V11H11V6Z" />
    </g>
    <g id="mdi-ballot-recount-outline" transform="translate(576 324) scale(1.5)" fill="#555">
      <path d="M6,18V13H11V18H6M7,14V17H10V14H7M13,7.5H18V9.5H13V7.5M5,21A2,2 0 0,1 3,19V5A2,2 0 0,1 5,3H19A2,2 0 0,1 21,5V11.17C20.5,11.06 20,11 19.5,11H19V5H5V19H13.17C13.34,19.72 13.63,20.39 14,21H5M11,6V11H6V6H11M10,10V7H7V10H10M19,12V13.5A4,4 0 0,1 23,17.5C23,18.32 22.75,19.08 22.33,19.71L21.24,18.62C21.41,18.28 21.5,17.9 21.5,17.5A2.5,2.5 0 0,0 19,15V16.5L16.75,14.25L19,12M19,23V21.5A4,4 0 0,1 15,17.5C15,16.68 15.25,15.92 15.67,15.29L16.76,16.38C16.59,16.72 16.5,17.1 16.5,17.5A2.5,2.5 0 0,0 19,20V18.5L21.25,20.75L19,23Z" />
    </g>
    <g id="mdi-ballot-recount-outline" transform="translate(612 324) scale(1.5)" fill="#fff">
      <path d="M6,18V13H11V18H6M7,14V17H10V14H7M13,7.5H18V9.5H13V7.5M5,21A2,2 0 0,1 3,19V5A2,2 0 0,1 5,3H19A2,2 0 0,1 21,5V11.17C20.5,11.06 20,11 19.5,11H19V5H5V19H13.17C13.34,19.72 13.63,20.39 14,21H5M11,6V11H6V6H11M10,10V7H7V10H10M19,12V13.5A4,4 0 0,1 23,17.5C23,18.32 22.75,19.08 22.33,19.71L21.24,18.62C21.41,18.28 21.5,17.9 21.5,17.5A2.5,2.5 0 0,0 19,15V16.5L16.75,14.25L19,12M19,23V21.5A4,4 0 0,1 15,17.5C15,16.68 15.25,15.92 15.67,15.29L16.76,16.38C16.59,16.72 16.5,17.1 16.5,17.5A2.5,2.5 0 0,0 19,20V18.5L21.25,20.75L19,23Z" />
    </g>
    <g id="mdi-bandage" transform="translate(648 324) scale(1.5)" fill="#555">
      <path d="M17.73,12L21.71,8.04C22.1,7.65 22.1,7 21.71,6.63L17.37,2.29C17,1.9 16.35,1.9 15.96,2.29L12,6.27L8,2.29C7.8,2.1 7.55,2 7.29,2C7.04,2 6.78,2.1 6.59,2.29L2.25,6.63C1.86,7 1.86,7.65 2.25,8.04L6.23,12L2.25,16C1.86,16.39 1.86,17 2.25,17.41L6.59,21.75C7,22.14 7.61,22.14 8,21.75L12,17.77L15.96,21.75C16.16,21.95 16.41,22.04 16.67,22.04C16.93,22.04 17.18,21.94 17.38,21.75L21.72,17.41C22.11,17 22.11,16.39 21.72,16L17.73,12M12,9A1,1 0 0,1 13,10A1,1 0 0,1 12,11A1,1 0 0,1 11,10A1,1 0 0,1 12,9M7.29,10.96L3.66,7.34L7.29,3.71L10.91,7.33L7.29,10.96M10,13A1,1 0 0,1 9,12A1,1 0 0,1 10,11A1,1 0 0,1 11,12A1,1 0 0,1 10,13M12,15A1,1 0 0,1 11,14A1,1 0 0,1 12,13A1,1 0 0,1 13,14A1,1 0 0,1 12,15M14,11A1,1 0 0,1 15,12A1,1 0 0,1 14,13A1,1 0 0,1 13,12A1,1 0 0,1 14,11M16.66,20.34L13.03,16.72L16.66,13.09L20.28,16.71L16.66,20.34Z" />
    </g>
    <g id="mdi-bandage" transform="translate(684 324) scale(1.5)" fill="#fff">
      <path d="M17.73,12L21.71,8.04C22.1,7.65 22.1,7 21.71,6.63L17.37,2.29C17,1.9 16.35,1.9 15.96,2.29L12,6.27L8,2.29C7.8,2.1 7.55,2 7.29,2C7.04,2 6.78,2.1 6.59,2.29L2.25,6.63C1.86,7 1.86,7.65 2.25,8.04L6.23,12L2.25,16C1.86,16.39 1.86,17 2.25,17.41L6.59,21.75C7,22.14 7.61,22.14 8,21.75L12,17.77L15.96,21.75C16.16,21.95 16.41,22.04 16.67,22.04C16.93,22.04 17.18,21.94 17.38,21.75L21.72,17.41C22.11,17 22.11,16.39 21.72,16L17.73,12M12,9A1,1 0 0,1 13,10A1,1 0 0,1 12,11A1,1 0 0,1 11,10A1,1 0 0,1 12,9M7.29,10.96L3.66,7.34L7.29,3.71L10.91,7.33L7.29,10.96M10,13A1,1 0 0,1 9,12A1,1 0 0,1 10,11A1,1 0 0,1 11,12A1,1 0 0,1 10,13M12,15A1,1 0 0,1 11,14A1,1 0 0,1 12,13A1,1 0 0,1 13,14A1,1 0 0,1 12,15M14,11A1,1 0 0,1 15,12A1,1 0 0,1 14,13A1,1 0 0,1 13,12A1,1 0 0,1 14,11M16.66,20.34L13.03,16.72L16.66,13.09L20.28,16.71L16.66,20.34Z" />
    </g>
  </svg>