<?xml version="1.0" encoding="UTF-8"?>
<!DOCTYPE svg PUBLIC "-//W3C//DTD SVG 1.1//EN" "http://www.w3.org/Graphics/SVG/1.1/DTD/svg11.dtd"><svg
  xmlns="http://www.w3.org/2000/svg" xmlns:xlink="http://www.w3.org/1999/xlink" version="1.1"
  width="720" height="900" viewBox="0 0 720 900">
    <g id="mdi-map-marker-minus" transform="translate(0 0) scale(1.5)" fill="#555">
      <path d="M9,11.5A2.5,2.5 0 0,0 11.5,9A2.5,2.5 0 0,0 9,6.5A2.5,2.5 0 0,0 6.5,9A2.5,2.5 0 0,0 9,11.5M9,2C12.86,2 16,5.13 16,9C16,14.25 9,22 9,22C9,22 2,14.25 2,9A7,7 0 0,1 9,2M15,17H23V19H15V17Z" />
    </g>
    <g id="mdi-map-marker-minus" transform="translate(36 0) scale(1.5)" fill="#fff">
      <path d="M9,11.5A2.5,2.5 0 0,0 11.5,9A2.5,2.5 0 0,0 9,6.5A2.5,2.5 0 0,0 6.5,9A2.5,2.5 0 0,0 9,11.5M9,2C12.86,2 16,5.13 16,9C16,14.25 9,22 9,22C9,22 2,14.25 2,9A7,7 0 0,1 9,2M15,17H23V19H15V17Z" />
    </g>
    <g id="mdi-map-marker-minus-outline" transform="translate(72 0) scale(1.5)" fill="#555">
      <path d="M15 17H23V19H15V17M9 6.5C10.4 6.5 11.5 7.6 11.5 9S10.4 11.5 9 11.5 6.5 10.4 6.5 9 7.6 6.5 9 6.5M9 2C12.9 2 16 5.1 16 9C16 14.2 9 22 9 22S2 14.2 2 9C2 5.1 5.1 2 9 2M9 4C6.2 4 4 6.2 4 9C4 10 4 12 9 18.7C14 12 14 10 14 9C14 6.2 11.8 4 9 4Z" />
    </g>
    <g id="mdi-map-marker-minus-outline" transform="translate(108 0) scale(1.5)" fill="#fff">
      <path d="M15 17H23V19H15V17M9 6.5C10.4 6.5 11.5 7.6 11.5 9S10.4 11.5 9 11.5 6.5 10.4 6.5 9 7.6 6.5 9 6.5M9 2C12.9 2 16 5.1 16 9C16 14.2 9 22 9 22S2 14.2 2 9C2 5.1 5.1 2 9 2M9 4C6.2 4 4 6.2 4 9C4 10 4 12 9 18.7C14 12 14 10 14 9C14 6.2 11.8 4 9 4Z" />
    </g>
    <g id="mdi-map-marker-multiple" transform="translate(144 0) scale(1.5)" fill="#555">
      <path d="M14,11.5A2.5,2.5 0 0,0 16.5,9A2.5,2.5 0 0,0 14,6.5A2.5,2.5 0 0,0 11.5,9A2.5,2.5 0 0,0 14,11.5M14,2C17.86,2 21,5.13 21,9C21,14.25 14,22 14,22C14,22 7,14.25 7,9A7,7 0 0,1 14,2M5,9C5,13.5 10.08,19.66 11,20.81L10,22C10,22 3,14.25 3,9C3,5.83 5.11,3.15 8,2.29C6.16,3.94 5,6.33 5,9Z" />
    </g>
    <g id="mdi-map-marker-multiple" transform="translate(180 0) scale(1.5)" fill="#fff">
      <path d="M14,11.5A2.5,2.5 0 0,0 16.5,9A2.5,2.5 0 0,0 14,6.5A2.5,2.5 0 0,0 11.5,9A2.5,2.5 0 0,0 14,11.5M14,2C17.86,2 21,5.13 21,9C21,14.25 14,22 14,22C14,22 7,14.25 7,9A7,7 0 0,1 14,2M5,9C5,13.5 10.08,19.66 11,20.81L10,22C10,22 3,14.25 3,9C3,5.83 5.11,3.15 8,2.29C6.16,3.94 5,6.33 5,9Z" />
    </g>
    <g id="mdi-map-marker-multiple-outline" transform="translate(216 0) scale(1.5)" fill="#555">
      <path d="M11.5 9C11.5 7.62 12.62 6.5 14 6.5C15.1 6.5 16.03 7.21 16.37 8.19C16.45 8.45 16.5 8.72 16.5 9C16.5 10.38 15.38 11.5 14 11.5C12.91 11.5 12 10.81 11.64 9.84C11.55 9.58 11.5 9.29 11.5 9M5 9C5 13.5 10.08 19.66 11 20.81L10 22C10 22 3 14.25 3 9C3 5.83 5.11 3.15 8 2.29C6.16 3.94 5 6.33 5 9M14 2C17.86 2 21 5.13 21 9C21 14.25 14 22 14 22C14 22 7 14.25 7 9C7 5.13 10.14 2 14 2M14 4C11.24 4 9 6.24 9 9C9 10 9 12 14 18.71C19 12 19 10 19 9C19 6.24 16.76 4 14 4Z" />
    </g>
    <g id="mdi-map-marker-multiple-outline" transform="translate(252 0) scale(1.5)" fill="#fff">
      <path d="M11.5 9C11.5 7.62 12.62 6.5 14 6.5C15.1 6.5 16.03 7.21 16.37 8.19C16.45 8.45 16.5 8.72 16.5 9C16.5 10.38 15.38 11.5 14 11.5C12.91 11.5 12 10.81 11.64 9.84C11.55 9.58 11.5 9.29 11.5 9M5 9C5 13.5 10.08 19.66 11 20.81L10 22C10 22 3 14.25 3 9C3 5.83 5.11 3.15 8 2.29C6.16 3.94 5 6.33 5 9M14 2C17.86 2 21 5.13 21 9C21 14.25 14 22 14 22C14 22 7 14.25 7 9C7 5.13 10.14 2 14 2M14 4C11.24 4 9 6.24 9 9C9 10 9 12 14 18.71C19 12 19 10 19 9C19 6.24 16.76 4 14 4Z" />
    </g>
    <g id="mdi-map-marker-off" transform="translate(288 0) scale(1.5)" fill="#555">
      <path d="M16.37,16.1L11.75,11.47L11.64,11.36L3.27,3L2,4.27L5.18,7.45C5.06,7.95 5,8.46 5,9C5,14.25 12,22 12,22C12,22 13.67,20.15 15.37,17.65L18.73,21L20,19.72M12,6.5A2.5,2.5 0 0,1 14.5,9C14.5,9.73 14.17,10.39 13.67,10.85L17.3,14.5C18.28,12.62 19,10.68 19,9A7,7 0 0,0 12,2C10,2 8.24,2.82 6.96,4.14L10.15,7.33C10.61,6.82 11.26,6.5 12,6.5Z" />
    </g>
    <g id="mdi-map-marker-off" transform="translate(324 0) scale(1.5)" fill="#fff">
      <path d="M16.37,16.1L11.75,11.47L11.64,11.36L3.27,3L2,4.27L5.18,7.45C5.06,7.95 5,8.46 5,9C5,14.25 12,22 12,22C12,22 13.67,20.15 15.37,17.65L18.73,21L20,19.72M12,6.5A2.5,2.5 0 0,1 14.5,9C14.5,9.73 14.17,10.39 13.67,10.85L17.3,14.5C18.28,12.62 19,10.68 19,9A7,7 0 0,0 12,2C10,2 8.24,2.82 6.96,4.14L10.15,7.33C10.61,6.82 11.26,6.5 12,6.5Z" />
    </g>
    <g id="mdi-map-marker-off-outline" transform="translate(360 0) scale(1.5)" fill="#555">
      <path d="M20 19.7L3.3 3L2 4.3L5.2 7.5C5.1 8 5 8.5 5 9C5 14.2 12 22 12 22S13.7 20.1 15.4 17.6L18.8 21L20 19.7M12 18.7C7.4 12.5 7 10.4 7 9.3L13.8 16.1C13.3 16.9 12.7 17.7 12 18.7M8.4 5.6L7 4.2C8.2 2.8 10 2 12 2C15.9 2 19 5.1 19 9C19 10.7 18.3 12.6 17.3 14.5L15.8 13C17 10.6 17 9.6 17 9C17 6.2 14.8 4 12 4C10.6 4 9.3 4.6 8.4 5.6M12 6.5C13.4 6.5 14.5 7.6 14.5 9C14.5 9.7 14.2 10.4 13.7 10.9L10.2 7.4C10.6 6.8 11.3 6.5 12 6.5Z" />
    </g>
    <g id="mdi-map-marker-off-outline" transform="translate(396 0) scale(1.5)" fill="#fff">
      <path d="M20 19.7L3.3 3L2 4.3L5.2 7.5C5.1 8 5 8.5 5 9C5 14.2 12 22 12 22S13.7 20.1 15.4 17.6L18.8 21L20 19.7M12 18.7C7.4 12.5 7 10.4 7 9.3L13.8 16.1C13.3 16.9 12.7 17.7 12 18.7M8.4 5.6L7 4.2C8.2 2.8 10 2 12 2C15.9 2 19 5.1 19 9C19 10.7 18.3 12.6 17.3 14.5L15.8 13C17 10.6 17 9.6 17 9C17 6.2 14.8 4 12 4C10.6 4 9.3 4.6 8.4 5.6M12 6.5C13.4 6.5 14.5 7.6 14.5 9C14.5 9.7 14.2 10.4 13.7 10.9L10.2 7.4C10.6 6.8 11.3 6.5 12 6.5Z" />
    </g>
    <g id="mdi-map-marker-outline" transform="translate(432 0) scale(1.5)" fill="#555">
      <path d="M12,6.5A2.5,2.5 0 0,1 14.5,9A2.5,2.5 0 0,1 12,11.5A2.5,2.5 0 0,1 9.5,9A2.5,2.5 0 0,1 12,6.5M12,2A7,7 0 0,1 19,9C19,14.25 12,22 12,22C12,22 5,14.25 5,9A7,7 0 0,1 12,2M12,4A5,5 0 0,0 7,9C7,10 7,12 12,18.71C17,12 17,10 17,9A5,5 0 0,0 12,4Z" />
    </g>
    <g id="mdi-map-marker-outline" transform="translate(468 0) scale(1.5)" fill="#fff">
      <path d="M12,6.5A2.5,2.5 0 0,1 14.5,9A2.5,2.5 0 0,1 12,11.5A2.5,2.5 0 0,1 9.5,9A2.5,2.5 0 0,1 12,6.5M12,2A7,7 0 0,1 19,9C19,14.25 12,22 12,22C12,22 5,14.25 5,9A7,7 0 0,1 12,2M12,4A5,5 0 0,0 7,9C7,10 7,12 12,18.71C17,12 17,10 17,9A5,5 0 0,0 12,4Z" />
    </g>
    <g id="mdi-map-marker-path" transform="translate(504 0) scale(1.5)" fill="#555">
      <path d="M18,15A3,3 0 0,1 21,18A3,3 0 0,1 18,21C16.69,21 15.58,20.17 15.17,19H14V17H15.17C15.58,15.83 16.69,15 18,15M18,17A1,1 0 0,0 17,18A1,1 0 0,0 18,19A1,1 0 0,0 19,18A1,1 0 0,0 18,17M18,8A1.43,1.43 0 0,0 19.43,6.57C19.43,5.78 18.79,5.14 18,5.14C17.21,5.14 16.57,5.78 16.57,6.57A1.43,1.43 0 0,0 18,8M18,2.57A4,4 0 0,1 22,6.57C22,9.56 18,14 18,14C18,14 14,9.56 14,6.57A4,4 0 0,1 18,2.57M8.83,17H10V19H8.83C8.42,20.17 7.31,21 6,21A3,3 0 0,1 3,18C3,16.69 3.83,15.58 5,15.17V14H7V15.17C7.85,15.47 8.53,16.15 8.83,17M6,17A1,1 0 0,0 5,18A1,1 0 0,0 6,19A1,1 0 0,0 7,18A1,1 0 0,0 6,17M6,3A3,3 0 0,1 9,6C9,7.31 8.17,8.42 7,8.83V10H5V8.83C3.83,8.42 3,7.31 3,6A3,3 0 0,1 6,3M6,5A1,1 0 0,0 5,6A1,1 0 0,0 6,7A1,1 0 0,0 7,6A1,1 0 0,0 6,5M11,19V17H13V19H11M7,13H5V11H7V13Z" />
    </g>
    <g id="mdi-map-marker-path" transform="translate(540 0) scale(1.5)" fill="#fff">
      <path d="M18,15A3,3 0 0,1 21,18A3,3 0 0,1 18,21C16.69,21 15.58,20.17 15.17,19H14V17H15.17C15.58,15.83 16.69,15 18,15M18,17A1,1 0 0,0 17,18A1,1 0 0,0 18,19A1,1 0 0,0 19,18A1,1 0 0,0 18,17M18,8A1.43,1.43 0 0,0 19.43,6.57C19.43,5.78 18.79,5.14 18,5.14C17.21,5.14 16.57,5.78 16.57,6.57A1.43,1.43 0 0,0 18,8M18,2.57A4,4 0 0,1 22,6.57C22,9.56 18,14 18,14C18,14 14,9.56 14,6.57A4,4 0 0,1 18,2.57M8.83,17H10V19H8.83C8.42,20.17 7.31,21 6,21A3,3 0 0,1 3,18C3,16.69 3.83,15.58 5,15.17V14H7V15.17C7.85,15.47 8.53,16.15 8.83,17M6,17A1,1 0 0,0 5,18A1,1 0 0,0 6,19A1,1 0 0,0 7,18A1,1 0 0,0 6,17M6,3A3,3 0 0,1 9,6C9,7.31 8.17,8.42 7,8.83V10H5V8.83C3.83,8.42 3,7.31 3,6A3,3 0 0,1 6,3M6,5A1,1 0 0,0 5,6A1,1 0 0,0 6,7A1,1 0 0,0 7,6A1,1 0 0,0 6,5M11,19V17H13V19H11M7,13H5V11H7V13Z" />
    </g>
    <g id="mdi-map-marker-plus" transform="translate(576 0) scale(1.5)" fill="#555">
      <path d="M9,11.5A2.5,2.5 0 0,0 11.5,9A2.5,2.5 0 0,0 9,6.5A2.5,2.5 0 0,0 6.5,9A2.5,2.5 0 0,0 9,11.5M9,2C12.86,2 16,5.13 16,9C16,14.25 9,22 9,22C9,22 2,14.25 2,9A7,7 0 0,1 9,2M15,17H18V14H20V17H23V19H20V22H18V19H15V17Z" />
    </g>
    <g id="mdi-map-marker-plus" transform="translate(612 0) scale(1.5)" fill="#fff">
      <path d="M9,11.5A2.5,2.5 0 0,0 11.5,9A2.5,2.5 0 0,0 9,6.5A2.5,2.5 0 0,0 6.5,9A2.5,2.5 0 0,0 9,11.5M9,2C12.86,2 16,5.13 16,9C16,14.25 9,22 9,22C9,22 2,14.25 2,9A7,7 0 0,1 9,2M15,17H18V14H20V17H23V19H20V22H18V19H15V17Z" />
    </g>
    <g id="mdi-map-marker-plus-outline" transform="translate(648 0) scale(1.5)" fill="#555">
      <path d="M15 17H18V14H20V17H23V19H20V22H18V19H15V17M9 6.5C10.4 6.5 11.5 7.6 11.5 9S10.4 11.5 9 11.5 6.5 10.4 6.5 9 7.6 6.5 9 6.5M9 2C12.9 2 16 5.1 16 9C16 14.2 9 22 9 22S2 14.2 2 9C2 5.1 5.1 2 9 2M9 4C6.2 4 4 6.2 4 9C4 10 4 12 9 18.7C14 12 14 10 14 9C14 6.2 11.8 4 9 4Z" />
    </g>
    <g id="mdi-map-marker-plus-outline" transform="translate(684 0) scale(1.5)" fill="#fff">
      <path d="M15 17H18V14H20V17H23V19H20V22H18V19H15V17M9 6.5C10.4 6.5 11.5 7.6 11.5 9S10.4 11.5 9 11.5 6.5 10.4 6.5 9 7.6 6.5 9 6.5M9 2C12.9 2 16 5.1 16 9C16 14.2 9 22 9 22S2 14.2 2 9C2 5.1 5.1 2 9 2M9 4C6.2 4 4 6.2 4 9C4 10 4 12 9 18.7C14 12 14 10 14 9C14 6.2 11.8 4 9 4Z" />
    </g>
    <g id="mdi-map-marker-question" transform="translate(0 36) scale(1.5)" fill="#555">
      <path d="M12,2C8.14,2 5,5.14 5,9C5,14.25 12,22 12,22C12,22 19,14.25 19,9C19,5.14 15.86,2 12,2M12.88,15.75H11.13V14H12.88M12.88,12.88H11.13C11.13,10.04 13.75,10.26 13.75,8.5A1.75,1.75 0 0,0 12,6.75A1.75,1.75 0 0,0 10.25,8.5H8.5A3.5,3.5 0 0,1 12,5A3.5,3.5 0 0,1 15.5,8.5C15.5,10.69 12.88,10.91 12.88,12.88Z" />
    </g>
    <g id="mdi-map-marker-question" transform="translate(36 36) scale(1.5)" fill="#fff">
      <path d="M12,2C8.14,2 5,5.14 5,9C5,14.25 12,22 12,22C12,22 19,14.25 19,9C19,5.14 15.86,2 12,2M12.88,15.75H11.13V14H12.88M12.88,12.88H11.13C11.13,10.04 13.75,10.26 13.75,8.5A1.75,1.75 0 0,0 12,6.75A1.75,1.75 0 0,0 10.25,8.5H8.5A3.5,3.5 0 0,1 12,5A3.5,3.5 0 0,1 15.5,8.5C15.5,10.69 12.88,10.91 12.88,12.88Z" />
    </g>
    <g id="mdi-map-marker-question-outline" transform="translate(72 36) scale(1.5)" fill="#555">
      <path d="M12,1C7.59,1 4,4.59 4,9C4,14.57 10.96,22.34 11.26,22.67L12,23.5L12.74,22.67C13.04,22.34 20,14.57 20,9C20,4.59 16.41,1 12,1M12,20.47C9.82,17.86 6,12.54 6,9A6,6 0 0,1 12,3A6,6 0 0,1 18,9C18,12.83 13.75,18.36 12,20.47M11.13,14H12.88V15.75H11.13M12,5A3.5,3.5 0 0,0 8.5,8.5H10.25A1.75,1.75 0 0,1 12,6.75A1.75,1.75 0 0,1 13.75,8.5C13.75,10.26 11.13,10.04 11.13,12.88H12.88C12.88,10.91 15.5,10.69 15.5,8.5A3.5,3.5 0 0,0 12,5Z" />
    </g>
    <g id="mdi-map-marker-question-outline" transform="translate(108 36) scale(1.5)" fill="#fff">
      <path d="M12,1C7.59,1 4,4.59 4,9C4,14.57 10.96,22.34 11.26,22.67L12,23.5L12.74,22.67C13.04,22.34 20,14.57 20,9C20,4.59 16.41,1 12,1M12,20.47C9.82,17.86 6,12.54 6,9A6,6 0 0,1 12,3A6,6 0 0,1 18,9C18,12.83 13.75,18.36 12,20.47M11.13,14H12.88V15.75H11.13M12,5A3.5,3.5 0 0,0 8.5,8.5H10.25A1.75,1.75 0 0,1 12,6.75A1.75,1.75 0 0,1 13.75,8.5C13.75,10.26 11.13,10.04 11.13,12.88H12.88C12.88,10.91 15.5,10.69 15.5,8.5A3.5,3.5 0 0,0 12,5Z" />
    </g>
    <g id="mdi-map-marker-radius" transform="translate(144 36) scale(1.5)" fill="#555">
      <path d="M12,2C15.31,2 18,4.66 18,7.95C18,12.41 12,19 12,19C12,19 6,12.41 6,7.95C6,4.66 8.69,2 12,2M12,6A2,2 0 0,0 10,8A2,2 0 0,0 12,10A2,2 0 0,0 14,8A2,2 0 0,0 12,6M20,19C20,21.21 16.42,23 12,23C7.58,23 4,21.21 4,19C4,17.71 5.22,16.56 7.11,15.83L7.75,16.74C6.67,17.19 6,17.81 6,18.5C6,19.88 8.69,21 12,21C15.31,21 18,19.88 18,18.5C18,17.81 17.33,17.19 16.25,16.74L16.89,15.83C18.78,16.56 20,17.71 20,19Z" />
    </g>
    <g id="mdi-map-marker-radius" transform="translate(180 36) scale(1.5)" fill="#fff">
      <path d="M12,2C15.31,2 18,4.66 18,7.95C18,12.41 12,19 12,19C12,19 6,12.41 6,7.95C6,4.66 8.69,2 12,2M12,6A2,2 0 0,0 10,8A2,2 0 0,0 12,10A2,2 0 0,0 14,8A2,2 0 0,0 12,6M20,19C20,21.21 16.42,23 12,23C7.58,23 4,21.21 4,19C4,17.71 5.22,16.56 7.11,15.83L7.75,16.74C6.67,17.19 6,17.81 6,18.5C6,19.88 8.69,21 12,21C15.31,21 18,19.88 18,18.5C18,17.81 17.33,17.19 16.25,16.74L16.89,15.83C18.78,16.56 20,17.71 20,19Z" />
    </g>
    <g id="mdi-map-marker-radius-outline" transform="translate(216 36) scale(1.5)" fill="#555">
      <path d="M12 4C14.2 4 16 5.8 16 8C16 10.1 13.9 13.5 12 15.9C10.1 13.4 8 10.1 8 8C8 5.8 9.8 4 12 4M12 2C8.7 2 6 4.7 6 8C6 12.5 12 19 12 19S18 12.4 18 8C18 4.7 15.3 2 12 2M12 6C10.9 6 10 6.9 10 8S10.9 10 12 10 14 9.1 14 8 13.1 6 12 6M20 19C20 21.2 16.4 23 12 23S4 21.2 4 19C4 17.7 5.2 16.6 7.1 15.8L7.7 16.7C6.7 17.2 6 17.8 6 18.5C6 19.9 8.7 21 12 21S18 19.9 18 18.5C18 17.8 17.3 17.2 16.2 16.7L16.8 15.8C18.8 16.6 20 17.7 20 19Z" />
    </g>
    <g id="mdi-map-marker-radius-outline" transform="translate(252 36) scale(1.5)" fill="#fff">
      <path d="M12 4C14.2 4 16 5.8 16 8C16 10.1 13.9 13.5 12 15.9C10.1 13.4 8 10.1 8 8C8 5.8 9.8 4 12 4M12 2C8.7 2 6 4.7 6 8C6 12.5 12 19 12 19S18 12.4 18 8C18 4.7 15.3 2 12 2M12 6C10.9 6 10 6.9 10 8S10.9 10 12 10 14 9.1 14 8 13.1 6 12 6M20 19C20 21.2 16.4 23 12 23S4 21.2 4 19C4 17.7 5.2 16.6 7.1 15.8L7.7 16.7C6.7 17.2 6 17.8 6 18.5C6 19.9 8.7 21 12 21S18 19.9 18 18.5C18 17.8 17.3 17.2 16.2 16.7L16.8 15.8C18.8 16.6 20 17.7 20 19Z" />
    </g>
    <g id="mdi-map-marker-remove" transform="translate(288 36) scale(1.5)" fill="#555">
      <path d="M9,2C5.14,2 2,5.14 2,9C2,14.25 9,22 9,22C9,22 16,14.25 16,9A7,7 0 0,0 9,2M9,6.5A2.5,2.5 0 0,1 11.5,9A2.5,2.5 0 0,1 9,11.5A2.5,2.5 0 0,1 6.5,9A2.5,2.5 0 0,1 9,6.5M16.58,14.16L15.17,15.58L17.58,18L15.17,20.41L16.58,21.82L19,19.41L21.41,21.82L22.83,20.41L20.41,18L22.83,15.58L21.41,14.16L19,16.58" />
    </g>
    <g id="mdi-map-marker-remove" transform="translate(324 36) scale(1.5)" fill="#fff">
      <path d="M9,2C5.14,2 2,5.14 2,9C2,14.25 9,22 9,22C9,22 16,14.25 16,9A7,7 0 0,0 9,2M9,6.5A2.5,2.5 0 0,1 11.5,9A2.5,2.5 0 0,1 9,11.5A2.5,2.5 0 0,1 6.5,9A2.5,2.5 0 0,1 9,6.5M16.58,14.16L15.17,15.58L17.58,18L15.17,20.41L16.58,21.82L19,19.41L21.41,21.82L22.83,20.41L20.41,18L22.83,15.58L21.41,14.16L19,16.58" />
    </g>
    <g id="mdi-map-marker-remove-outline" transform="translate(360 36) scale(1.5)" fill="#555">
      <path d="M16.6 14.2L15.2 15.6L17.6 18L15.2 20.4L16.6 21.8L19 19.4L21.4 21.8L22.8 20.4L20.4 18L22.8 15.6L21.4 14.2L19 16.6M9 6.5C10.4 6.5 11.5 7.6 11.5 9S10.4 11.5 9 11.5 6.5 10.4 6.5 9 7.6 6.5 9 6.5M9 2C12.9 2 16 5.1 16 9C16 14.2 9 22 9 22S2 14.2 2 9C2 5.1 5.1 2 9 2M9 4C6.2 4 4 6.2 4 9C4 10 4 12 9 18.7C14 12 14 10 14 9C14 6.2 11.8 4 9 4Z" />
    </g>
    <g id="mdi-map-marker-remove-outline" transform="translate(396 36) scale(1.5)" fill="#fff">
      <path d="M16.6 14.2L15.2 15.6L17.6 18L15.2 20.4L16.6 21.8L19 19.4L21.4 21.8L22.8 20.4L20.4 18L22.8 15.6L21.4 14.2L19 16.6M9 6.5C10.4 6.5 11.5 7.6 11.5 9S10.4 11.5 9 11.5 6.5 10.4 6.5 9 7.6 6.5 9 6.5M9 2C12.9 2 16 5.1 16 9C16 14.2 9 22 9 22S2 14.2 2 9C2 5.1 5.1 2 9 2M9 4C6.2 4 4 6.2 4 9C4 10 4 12 9 18.7C14 12 14 10 14 9C14 6.2 11.8 4 9 4Z" />
    </g>
    <g id="mdi-map-marker-remove-variant" transform="translate(432 36) scale(1.5)" fill="#555">
      <path d="M12,2C8.14,2 5,5.14 5,9C5,14.25 12,22 12,22C12,22 19,14.25 19,9C19,5.14 15.86,2 12,2M9.59,5.17L12,7.58L14.41,5.17L15.83,6.58L13.41,9L15.83,11.41L14.41,12.83L12,10.41L9.59,12.83L8.17,11.41L10.59,9L8.17,6.58" />
    </g>
    <g id="mdi-map-marker-remove-variant" transform="translate(468 36) scale(1.5)" fill="#fff">
      <path d="M12,2C8.14,2 5,5.14 5,9C5,14.25 12,22 12,22C12,22 19,14.25 19,9C19,5.14 15.86,2 12,2M9.59,5.17L12,7.58L14.41,5.17L15.83,6.58L13.41,9L15.83,11.41L14.41,12.83L12,10.41L9.59,12.83L8.17,11.41L10.59,9L8.17,6.58" />
    </g>
    <g id="mdi-map-marker-right" transform="translate(504 36) scale(1.5)" fill="#555">
      <path d="M9 11.5C7.62 11.5 6.5 10.38 6.5 9S7.62 6.5 9 6.5 11.5 7.62 11.5 9 10.38 11.5 9 11.5M9 2C5.13 2 2 5.13 2 9C2 14.25 9 22 9 22S16 14.25 16 9C16 5.13 12.87 2 9 2M18 17L23 12L18 7V17Z" />
    </g>
    <g id="mdi-map-marker-right" transform="translate(540 36) scale(1.5)" fill="#fff">
      <path d="M9 11.5C7.62 11.5 6.5 10.38 6.5 9S7.62 6.5 9 6.5 11.5 7.62 11.5 9 10.38 11.5 9 11.5M9 2C5.13 2 2 5.13 2 9C2 14.25 9 22 9 22S16 14.25 16 9C16 5.13 12.87 2 9 2M18 17L23 12L18 7V17Z" />
    </g>
    <g id="mdi-map-marker-right-outline" transform="translate(576 36) scale(1.5)" fill="#555">
      <path d="M9 6.5C10.38 6.5 11.5 7.62 11.5 9S10.38 11.5 9 11.5 6.5 10.38 6.5 9 7.62 6.5 9 6.5M9 2C12.87 2 16 5.13 16 9C16 14.25 9 22 9 22S2 14.25 2 9C2 5.13 5.13 2 9 2M9 4C6.24 4 4 6.24 4 9C4 10 4 12 9 18.71C14 12 14 10 14 9C14 6.24 11.76 4 9 4M18 17L23 12L18 7V17Z" />
    </g>
    <g id="mdi-map-marker-right-outline" transform="translate(612 36) scale(1.5)" fill="#fff">
      <path d="M9 6.5C10.38 6.5 11.5 7.62 11.5 9S10.38 11.5 9 11.5 6.5 10.38 6.5 9 7.62 6.5 9 6.5M9 2C12.87 2 16 5.13 16 9C16 14.25 9 22 9 22S2 14.25 2 9C2 5.13 5.13 2 9 2M9 4C6.24 4 4 6.24 4 9C4 10 4 12 9 18.71C14 12 14 10 14 9C14 6.24 11.76 4 9 4M18 17L23 12L18 7V17Z" />
    </g>
    <g id="mdi-map-marker-star" transform="translate(648 36) scale(1.5)" fill="#555">
      <path d="M12 2C8.1 2 5 5.1 5 9C5 14.2 12 22 12 22S19 14.2 19 9C19 5.1 15.9 2 12 2M14.5 13L12 11.5L9.5 13L10.2 10.2L8 8.3L10.9 8.1L12 5.4L13.1 8L16 8.3L13.8 10.2L14.5 13Z" />
    </g>
    <g id="mdi-map-marker-star" transform="translate(684 36) scale(1.5)" fill="#fff">
      <path d="M12 2C8.1 2 5 5.1 5 9C5 14.2 12 22 12 22S19 14.2 19 9C19 5.1 15.9 2 12 2M14.5 13L12 11.5L9.5 13L10.2 10.2L8 8.3L10.9 8.1L12 5.4L13.1 8L16 8.3L13.8 10.2L14.5 13Z" />
    </g>
    <g id="mdi-map-marker-star-outline" transform="translate(0 72) scale(1.5)" fill="#555">
      <path d="M12 2C15.9 2 19 5.1 19 9C19 14.2 12 22 12 22S5 14.2 5 9C5 5.1 8.1 2 12 2M12 4C9.2 4 7 6.2 7 9C7 10 7 12 12 18.7C17 12 17 10 17 9C17 6.2 14.8 4 12 4M12 11.5L14.4 13L13.8 10.2L16 8.3L13.1 8.1L12 5.4L10.9 8L8 8.3L10.2 10.2L9.5 13L12 11.5Z" />
    </g>
    <g id="mdi-map-marker-star-outline" transform="translate(36 72) scale(1.5)" fill="#fff">
      <path d="M12 2C15.9 2 19 5.1 19 9C19 14.2 12 22 12 22S5 14.2 5 9C5 5.1 8.1 2 12 2M12 4C9.2 4 7 6.2 7 9C7 10 7 12 12 18.7C17 12 17 10 17 9C17 6.2 14.8 4 12 4M12 11.5L14.4 13L13.8 10.2L16 8.3L13.1 8.1L12 5.4L10.9 8L8 8.3L10.2 10.2L9.5 13L12 11.5Z" />
    </g>
    <g id="mdi-map-marker-up" transform="translate(72 72) scale(1.5)" fill="#555">
      <path d="M12 2A7 7 0 0 0 5 9C5 14.25 12 22 12 22S19 14.25 19 9A7 7 0 0 0 12 2M16.5 9H14V14H10V9H7.5L12 4.5Z" />
    </g>
    <g id="mdi-map-marker-up" transform="translate(108 72) scale(1.5)" fill="#fff">
      <path d="M12 2A7 7 0 0 0 5 9C5 14.25 12 22 12 22S19 14.25 19 9A7 7 0 0 0 12 2M16.5 9H14V14H10V9H7.5L12 4.5Z" />
    </g>
    <g id="mdi-map-minus" transform="translate(144 72) scale(1.5)" fill="#555">
      <path d="M15 18V20H23V18H15M13.16 20.36L9 18.9L3.66 20.97C3.6 21 3.55 21 3.5 21C3.22 21 3 20.78 3 20.5V5.38C3 5.15 3.16 4.97 3.36 4.9L9 3L15 5.1L20.34 3H20.5C20.78 3 21 3.22 21 3.5V13.35C20.37 13.13 19.7 13 19 13C17.46 13 16.06 13.58 15 14.54V7.1L9 5V16.9L13.04 18.32C13 18.54 13 18.77 13 19C13 19.47 13.06 19.92 13.16 20.36Z" />
    </g>
    <g id="mdi-map-minus" transform="translate(180 72) scale(1.5)" fill="#fff">
      <path d="M15 18V20H23V18H15M13.16 20.36L9 18.9L3.66 20.97C3.6 21 3.55 21 3.5 21C3.22 21 3 20.78 3 20.5V5.38C3 5.15 3.16 4.97 3.36 4.9L9 3L15 5.1L20.34 3H20.5C20.78 3 21 3.22 21 3.5V13.35C20.37 13.13 19.7 13 19 13C17.46 13 16.06 13.58 15 14.54V7.1L9 5V16.9L13.04 18.32C13 18.54 13 18.77 13 19C13 19.47 13.06 19.92 13.16 20.36Z" />
    </g>
    <g id="mdi-map-outline" transform="translate(216 72) scale(1.5)" fill="#555">
      <path d="M20.5,3L20.34,3.03L15,5.1L9,3L3.36,4.9C3.15,4.97 3,5.15 3,5.38V20.5A0.5,0.5 0 0,0 3.5,21L3.66,20.97L9,18.9L15,21L20.64,19.1C20.85,19.03 21,18.85 21,18.62V3.5A0.5,0.5 0 0,0 20.5,3M10,5.47L14,6.87V18.53L10,17.13V5.47M5,6.46L8,5.45V17.15L5,18.31V6.46M19,17.54L16,18.55V6.86L19,5.7V17.54Z" />
    </g>
    <g id="mdi-map-outline" transform="translate(252 72) scale(1.5)" fill="#fff">
      <path d="M20.5,3L20.34,3.03L15,5.1L9,3L3.36,4.9C3.15,4.97 3,5.15 3,5.38V20.5A0.5,0.5 0 0,0 3.5,21L3.66,20.97L9,18.9L15,21L20.64,19.1C20.85,19.03 21,18.85 21,18.62V3.5A0.5,0.5 0 0,0 20.5,3M10,5.47L14,6.87V18.53L10,17.13V5.47M5,6.46L8,5.45V17.15L5,18.31V6.46M19,17.54L16,18.55V6.86L19,5.7V17.54Z" />
    </g>
    <g id="mdi-map-plus" transform="translate(288 72) scale(1.5)" fill="#555">
      <path d="M9,3L3.36,4.9C3.16,4.97 3,5.15 3,5.38V20.5A0.5,0.5 0 0,0 3.5,21C3.55,21 3.6,21 3.66,20.97L9,18.9L13.16,20.36C13.06,19.92 13,19.46 13,19C13,18.77 13,18.54 13.04,18.3L9,16.9V5L15,7.1V14.56C16.07,13.6 17.47,13 19,13C19.7,13 20.37,13.13 21,13.36V3.5A0.5,0.5 0 0,0 20.5,3H20.34L15,5.1L9,3M18,15V18H15V20H18V23H20V20H23V18H20V15H18Z" />
    </g>
    <g id="mdi-map-plus" transform="translate(324 72) scale(1.5)" fill="#fff">
      <path d="M9,3L3.36,4.9C3.16,4.97 3,5.15 3,5.38V20.5A0.5,0.5 0 0,0 3.5,21C3.55,21 3.6,21 3.66,20.97L9,18.9L13.16,20.36C13.06,19.92 13,19.46 13,19C13,18.77 13,18.54 13.04,18.3L9,16.9V5L15,7.1V14.56C16.07,13.6 17.47,13 19,13C19.7,13 20.37,13.13 21,13.36V3.5A0.5,0.5 0 0,0 20.5,3H20.34L15,5.1L9,3M18,15V18H15V20H18V23H20V20H23V18H20V15H18Z" />
    </g>
    <g id="mdi-map-search" transform="translate(360 72) scale(1.5)" fill="#555">
      <path d="M15.5,12C18,12 20,14 20,16.5C20,17.38 19.75,18.21 19.31,18.9L22.39,22L21,23.39L17.88,20.32C17.19,20.75 16.37,21 15.5,21C13,21 11,19 11,16.5C11,14 13,12 15.5,12M15.5,14A2.5,2.5 0 0,0 13,16.5A2.5,2.5 0 0,0 15.5,19A2.5,2.5 0 0,0 18,16.5A2.5,2.5 0 0,0 15.5,14M14,6.11L8,4V15.89L9,16.24V16.5C9,17.14 9.09,17.76 9.26,18.34L8,17.9L2.66,19.97L2.5,20A0.5,0.5 0 0,1 2,19.5V4.38C2,4.15 2.15,3.97 2.36,3.9L8,2L14,4.1L19.34,2H19.5A0.5,0.5 0 0,1 20,2.5V11.81C18.83,10.69 17.25,10 15.5,10C15,10 14.5,10.06 14,10.17V6.11Z" />
    </g>
    <g id="mdi-map-search" transform="translate(396 72) scale(1.5)" fill="#fff">
      <path d="M15.5,12C18,12 20,14 20,16.5C20,17.38 19.75,18.21 19.31,18.9L22.39,22L21,23.39L17.88,20.32C17.19,20.75 16.37,21 15.5,21C13,21 11,19 11,16.5C11,14 13,12 15.5,12M15.5,14A2.5,2.5 0 0,0 13,16.5A2.5,2.5 0 0,0 15.5,19A2.5,2.5 0 0,0 18,16.5A2.5,2.5 0 0,0 15.5,14M14,6.11L8,4V15.89L9,16.24V16.5C9,17.14 9.09,17.76 9.26,18.34L8,17.9L2.66,19.97L2.5,20A0.5,0.5 0 0,1 2,19.5V4.38C2,4.15 2.15,3.97 2.36,3.9L8,2L14,4.1L19.34,2H19.5A0.5,0.5 0 0,1 20,2.5V11.81C18.83,10.69 17.25,10 15.5,10C15,10 14.5,10.06 14,10.17V6.11Z" />
    </g>
    <g id="mdi-map-search-outline" transform="translate(432 72) scale(1.5)" fill="#555">
      <path d="M15.5,12C18,12 20,14 20,16.5C20,17.38 19.75,18.2 19.31,18.9L22.39,22L21,23.39L17.88,20.32C17.19,20.75 16.37,21 15.5,21C13,21 11,19 11,16.5C11,14 13,12 15.5,12M15.5,14A2.5,2.5 0 0,0 13,16.5A2.5,2.5 0 0,0 15.5,19A2.5,2.5 0 0,0 18,16.5A2.5,2.5 0 0,0 15.5,14M19.5,2A0.5,0.5 0 0,1 20,2.5V11.81C19.42,11.26 18.75,10.81 18,10.5V4.7L15,5.86V10C14.3,10.07 13.62,10.24 13,10.5V5.87L9,4.47V16.13H9V16.5C9,17.14 9.09,17.76 9.26,18.34L8,17.9L2.66,19.97L2.5,20A0.5,0.5 0 0,1 2,19.5V4.38C2,4.15 2.15,3.97 2.36,3.9L8,2L14,4.1L19.34,2.03L19.5,2M4,5.46V17.31L7,16.15V4.45L4,5.46Z" />
    </g>
    <g id="mdi-map-search-outline" transform="translate(468 72) scale(1.5)" fill="#fff">
      <path d="M15.5,12C18,12 20,14 20,16.5C20,17.38 19.75,18.2 19.31,18.9L22.39,22L21,23.39L17.88,20.32C17.19,20.75 16.37,21 15.5,21C13,21 11,19 11,16.5C11,14 13,12 15.5,12M15.5,14A2.5,2.5 0 0,0 13,16.5A2.5,2.5 0 0,0 15.5,19A2.5,2.5 0 0,0 18,16.5A2.5,2.5 0 0,0 15.5,14M19.5,2A0.5,0.5 0 0,1 20,2.5V11.81C19.42,11.26 18.75,10.81 18,10.5V4.7L15,5.86V10C14.3,10.07 13.62,10.24 13,10.5V5.87L9,4.47V16.13H9V16.5C9,17.14 9.09,17.76 9.26,18.34L8,17.9L2.66,19.97L2.5,20A0.5,0.5 0 0,1 2,19.5V4.38C2,4.15 2.15,3.97 2.36,3.9L8,2L14,4.1L19.34,2.03L19.5,2M4,5.46V17.31L7,16.15V4.45L4,5.46Z" />
    </g>
    <g id="mdi-mapbox" transform="translate(504 72) scale(1.5)" fill="#555">
      <path d="M12,2A10,10 0 0,1 22,12A10,10 0 0,1 12,22A10,10 0 0,1 2,12A10,10 0 0,1 12,2M16.75,14.45C18.65,12.55 18.58,9.39 16.59,7.41C14.6,5.43 11.45,5.35 9.55,7.25C6.12,10.68 7.22,16.78 7.22,16.78C7.22,16.78 13.33,17.87 16.75,14.45M13.15,7.86L14.13,9.87L16.14,10.85L14.13,11.83L13.15,13.84L12.17,11.83L10.16,10.85L12.17,9.87L13.15,7.86Z" />
    </g>
    <g id="mdi-mapbox" transform="translate(540 72) scale(1.5)" fill="#fff">
      <path d="M12,2A10,10 0 0,1 22,12A10,10 0 0,1 12,22A10,10 0 0,1 2,12A10,10 0 0,1 12,2M16.75,14.45C18.65,12.55 18.58,9.39 16.59,7.41C14.6,5.43 11.45,5.35 9.55,7.25C6.12,10.68 7.22,16.78 7.22,16.78C7.22,16.78 13.33,17.87 16.75,14.45M13.15,7.86L14.13,9.87L16.14,10.85L14.13,11.83L13.15,13.84L12.17,11.83L10.16,10.85L12.17,9.87L13.15,7.86Z" />
    </g>
    <g id="mdi-margin" transform="translate(576 72) scale(1.5)" fill="#555">
      <path d="M20,4V9L18.5,7.5L5.5,20.5L3.5,18.5L16.5,5.5L15,4H20M17,20A3,3 0 0,1 14,17V15A3,3 0 0,1 17,12A3,3 0 0,1 20,15V17A3,3 0 0,1 17,20M17,14A1,1 0 0,0 16,15V17A1,1 0 0,0 17,18A1,1 0 0,0 18,17V15A1,1 0 0,0 17,14M7,12A3,3 0 0,1 4,9V7A3,3 0 0,1 7,4A3,3 0 0,1 10,7V9A3,3 0 0,1 7,12M7,6A1,1 0 0,0 6,7V9A1,1 0 0,0 7,10A1,1 0 0,0 8,9V7A1,1 0 0,0 7,6Z" />
    </g>
    <g id="mdi-margin" transform="translate(612 72) scale(1.5)" fill="#fff">
      <path d="M20,4V9L18.5,7.5L5.5,20.5L3.5,18.5L16.5,5.5L15,4H20M17,20A3,3 0 0,1 14,17V15A3,3 0 0,1 17,12A3,3 0 0,1 20,15V17A3,3 0 0,1 17,20M17,14A1,1 0 0,0 16,15V17A1,1 0 0,0 17,18A1,1 0 0,0 18,17V15A1,1 0 0,0 17,14M7,12A3,3 0 0,1 4,9V7A3,3 0 0,1 7,4A3,3 0 0,1 10,7V9A3,3 0 0,1 7,12M7,6A1,1 0 0,0 6,7V9A1,1 0 0,0 7,10A1,1 0 0,0 8,9V7A1,1 0 0,0 7,6Z" />
    </g>
    <g id="mdi-marker" transform="translate(648 72) scale(1.5)" fill="#555">
      <path d="M18.5,1.15C17.97,1.15 17.46,1.34 17.07,1.73L11.26,7.55L16.91,13.2L22.73,7.39C23.5,6.61 23.5,5.35 22.73,4.56L19.89,1.73C19.5,1.34 19,1.15 18.5,1.15M10.3,8.5L4.34,14.46C3.56,15.24 3.56,16.5 4.36,17.31C3.14,18.54 1.9,19.77 0.67,21H6.33L7.19,20.14C7.97,20.9 9.22,20.89 10,20.12L15.95,14.16" />
    </g>
    <g id="mdi-marker" transform="translate(684 72) scale(1.5)" fill="#fff">
      <path d="M18.5,1.15C17.97,1.15 17.46,1.34 17.07,1.73L11.26,7.55L16.91,13.2L22.73,7.39C23.5,6.61 23.5,5.35 22.73,4.56L19.89,1.73C19.5,1.34 19,1.15 18.5,1.15M10.3,8.5L4.34,14.46C3.56,15.24 3.56,16.5 4.36,17.31C3.14,18.54 1.9,19.77 0.67,21H6.33L7.19,20.14C7.97,20.9 9.22,20.89 10,20.12L15.95,14.16" />
    </g>
    <g id="mdi-marker-cancel" transform="translate(0 108) scale(1.5)" fill="#555">
      <path d="M17.5,13C20,13 22,15 22,17.5C22,20 20,22 17.5,22C15,22 13,20 13,17.5C13,15 15,13 17.5,13M17.5,14.5C16.94,14.5 16.42,14.65 16,14.92L20.08,19C20.35,18.58 20.5,18.06 20.5,17.5A3,3 0 0,0 17.5,14.5M14.5,17.5A3,3 0 0,0 17.5,20.5C18.06,20.5 18.58,20.35 19,20.08L14.92,16C14.65,16.42 14.5,16.94 14.5,17.5M18.5,1.15C19,1.15 19.5,1.34 19.89,1.73L22.73,4.56C23.5,5.35 23.5,6.61 22.73,7.39L18.95,11.16C18.5,11.06 18,11 17.5,11C16.67,11 15.88,11.16 15.15,11.44L11.26,7.55L17.07,1.73C17.46,1.34 17.97,1.15 18.5,1.15M10.3,8.5L13.89,12.1C12.15,13.26 11,15.25 11,17.5C11,18 11.06,18.5 11.16,18.95L10,20.12C9.22,20.89 7.97,20.9 7.19,20.14L6.33,21H0.67L4.36,17.31C3.56,16.5 3.56,15.24 4.34,14.46L10.3,8.5Z" />
    </g>
    <g id="mdi-marker-cancel" transform="translate(36 108) scale(1.5)" fill="#fff">
      <path d="M17.5,13C20,13 22,15 22,17.5C22,20 20,22 17.5,22C15,22 13,20 13,17.5C13,15 15,13 17.5,13M17.5,14.5C16.94,14.5 16.42,14.65 16,14.92L20.08,19C20.35,18.58 20.5,18.06 20.5,17.5A3,3 0 0,0 17.5,14.5M14.5,17.5A3,3 0 0,0 17.5,20.5C18.06,20.5 18.58,20.35 19,20.08L14.92,16C14.65,16.42 14.5,16.94 14.5,17.5M18.5,1.15C19,1.15 19.5,1.34 19.89,1.73L22.73,4.56C23.5,5.35 23.5,6.61 22.73,7.39L18.95,11.16C18.5,11.06 18,11 17.5,11C16.67,11 15.88,11.16 15.15,11.44L11.26,7.55L17.07,1.73C17.46,1.34 17.97,1.15 18.5,1.15M10.3,8.5L13.89,12.1C12.15,13.26 11,15.25 11,17.5C11,18 11.06,18.5 11.16,18.95L10,20.12C9.22,20.89 7.97,20.9 7.19,20.14L6.33,21H0.67L4.36,17.31C3.56,16.5 3.56,15.24 4.34,14.46L10.3,8.5Z" />
    </g>
    <g id="mdi-marker-check" transform="translate(72 108) scale(1.5)" fill="#555">
      <path d="M10,16L5,11L6.41,9.58L10,13.17L17.59,5.58L19,7M19,1H5C3.89,1 3,1.89 3,3V15.93C3,16.62 3.35,17.23 3.88,17.59L12,23L20.11,17.59C20.64,17.23 21,16.62 21,15.93V3C21,1.89 20.1,1 19,1Z" />
    </g>
    <g id="mdi-marker-check" transform="translate(108 108) scale(1.5)" fill="#fff">
      <path d="M10,16L5,11L6.41,9.58L10,13.17L17.59,5.58L19,7M19,1H5C3.89,1 3,1.89 3,3V15.93C3,16.62 3.35,17.23 3.88,17.59L12,23L20.11,17.59C20.64,17.23 21,16.62 21,15.93V3C21,1.89 20.1,1 19,1Z" />
    </g>
    <g id="mdi-mastodon" transform="translate(144 108) scale(1.5)" fill="#555">
      <path d="M20.94,14C20.66,15.41 18.5,16.96 15.97,17.26C14.66,17.41 13.37,17.56 12,17.5C9.75,17.39 8,16.96 8,16.96V17.58C8.32,19.8 10.22,19.93 12.03,20C13.85,20.05 15.47,19.54 15.47,19.54L15.55,21.19C15.55,21.19 14.27,21.87 12,22C10.75,22.07 9.19,21.97 7.38,21.5C3.46,20.45 2.78,16.26 2.68,12L2.67,8.57C2.67,4.23 5.5,2.96 5.5,2.96C6.95,2.3 9.41,2 11.97,2H12.03C14.59,2 17.05,2.3 18.5,2.96C18.5,2.96 21.33,4.23 21.33,8.57C21.33,8.57 21.37,11.78 20.94,14M18,8.91C18,7.83 17.7,7 17.15,6.35C16.59,5.72 15.85,5.39 14.92,5.39C13.86,5.39 13.05,5.8 12.5,6.62L12,7.5L11.5,6.62C10.94,5.8 10.14,5.39 9.07,5.39C8.15,5.39 7.41,5.72 6.84,6.35C6.29,7 6,7.83 6,8.91V14.17H8.1V9.06C8.1,8 8.55,7.44 9.46,7.44C10.46,7.44 10.96,8.09 10.96,9.37V12.16H13.03V9.37C13.03,8.09 13.53,7.44 14.54,7.44C15.44,7.44 15.89,8 15.89,9.06V14.17H18V8.91Z" />
    </g>
    <g id="mdi-mastodon" transform="translate(180 108) scale(1.5)" fill="#fff">
      <path d="M20.94,14C20.66,15.41 18.5,16.96 15.97,17.26C14.66,17.41 13.37,17.56 12,17.5C9.75,17.39 8,16.96 8,16.96V17.58C8.32,19.8 10.22,19.93 12.03,20C13.85,20.05 15.47,19.54 15.47,19.54L15.55,21.19C15.55,21.19 14.27,21.87 12,22C10.75,22.07 9.19,21.97 7.38,21.5C3.46,20.45 2.78,16.26 2.68,12L2.67,8.57C2.67,4.23 5.5,2.96 5.5,2.96C6.95,2.3 9.41,2 11.97,2H12.03C14.59,2 17.05,2.3 18.5,2.96C18.5,2.96 21.33,4.23 21.33,8.57C21.33,8.57 21.37,11.78 20.94,14M18,8.91C18,7.83 17.7,7 17.15,6.35C16.59,5.72 15.85,5.39 14.92,5.39C13.86,5.39 13.05,5.8 12.5,6.62L12,7.5L11.5,6.62C10.94,5.8 10.14,5.39 9.07,5.39C8.15,5.39 7.41,5.72 6.84,6.35C6.29,7 6,7.83 6,8.91V14.17H8.1V9.06C8.1,8 8.55,7.44 9.46,7.44C10.46,7.44 10.96,8.09 10.96,9.37V12.16H13.03V9.37C13.03,8.09 13.53,7.44 14.54,7.44C15.44,7.44 15.89,8 15.89,9.06V14.17H18V8.91Z" />
    </g>
    <g id="mdi-material-design" transform="translate(216 108) scale(1.5)" fill="#555">
      <path d="M21,12C21,9.97 20.33,8.09 19,6.38V17.63C20.33,15.97 21,14.09 21,12M17.63,19H6.38C7.06,19.55 7.95,20 9.05,20.41C10.14,20.8 11.13,21 12,21C12.88,21 13.86,20.8 14.95,20.41C16.05,20 16.94,19.55 17.63,19M11,17L7,9V17H11M17,9L13,17H17V9M12,14.53L15.75,7H8.25L12,14.53M17.63,5C15.97,3.67 14.09,3 12,3C9.91,3 8.03,3.67 6.38,5H17.63M5,17.63V6.38C3.67,8.09 3,9.97 3,12C3,14.09 3.67,15.97 5,17.63M23,12C23,15.03 21.94,17.63 19.78,19.78C17.63,21.94 15.03,23 12,23C8.97,23 6.38,21.94 4.22,19.78C2.06,17.63 1,15.03 1,12C1,8.97 2.06,6.38 4.22,4.22C6.38,2.06 8.97,1 12,1C15.03,1 17.63,2.06 19.78,4.22C21.94,6.38 23,8.97 23,12Z" />
    </g>
    <g id="mdi-material-design" transform="translate(252 108) scale(1.5)" fill="#fff">
      <path d="M21,12C21,9.97 20.33,8.09 19,6.38V17.63C20.33,15.97 21,14.09 21,12M17.63,19H6.38C7.06,19.55 7.95,20 9.05,20.41C10.14,20.8 11.13,21 12,21C12.88,21 13.86,20.8 14.95,20.41C16.05,20 16.94,19.55 17.63,19M11,17L7,9V17H11M17,9L13,17H17V9M12,14.53L15.75,7H8.25L12,14.53M17.63,5C15.97,3.67 14.09,3 12,3C9.91,3 8.03,3.67 6.38,5H17.63M5,17.63V6.38C3.67,8.09 3,9.97 3,12C3,14.09 3.67,15.97 5,17.63M23,12C23,15.03 21.94,17.63 19.78,19.78C17.63,21.94 15.03,23 12,23C8.97,23 6.38,21.94 4.22,19.78C2.06,17.63 1,15.03 1,12C1,8.97 2.06,6.38 4.22,4.22C6.38,2.06 8.97,1 12,1C15.03,1 17.63,2.06 19.78,4.22C21.94,6.38 23,8.97 23,12Z" />
    </g>
    <g id="mdi-material-ui" transform="translate(288 108) scale(1.5)" fill="#555">
      <path d="M8,16.61V15.37L14,11.91V7.23L9,10.12L4,7.23V13L3,13.58L2,13V5L3.07,4.38L9,7.81L12.93,5.54L14.93,4.38L16,5V13.06L10.92,16L14.97,18.33L20,15.43V11L21,10.42L22,11V16.58L14.97,20.64L8,16.61M22,9.75L21,10.33L20,9.75V8.58L21,8L22,8.58V9.75Z" />
    </g>
    <g id="mdi-material-ui" transform="translate(324 108) scale(1.5)" fill="#fff">
      <path d="M8,16.61V15.37L14,11.91V7.23L9,10.12L4,7.23V13L3,13.58L2,13V5L3.07,4.38L9,7.81L12.93,5.54L14.93,4.38L16,5V13.06L10.92,16L14.97,18.33L20,15.43V11L21,10.42L22,11V16.58L14.97,20.64L8,16.61M22,9.75L21,10.33L20,9.75V8.58L21,8L22,8.58V9.75Z" />
    </g>
    <g id="mdi-math-compass" transform="translate(360 108) scale(1.5)" fill="#555">
      <path d="M20,19.88V22L18.2,20.83L13.41,11.83C14.07,11.62 14.67,11.28 15.19,10.83L20,19.88M15,7A3,3 0 0,1 12,10C11.85,10 11.71,10 11.56,10L5.8,20.83L4,22V19.88L9.79,9C8.69,7.77 8.79,5.87 10.03,4.76C10.57,4.28 11.27,4 12,4V2A1,1 0 0,1 13,3V4.18C14.2,4.6 15,5.73 15,7M13,7A1,1 0 0,0 12,6A1,1 0 0,0 11,7A1,1 0 0,0 12,8A1,1 0 0,0 13,7Z" />
    </g>
    <g id="mdi-math-compass" transform="translate(396 108) scale(1.5)" fill="#fff">
      <path d="M20,19.88V22L18.2,20.83L13.41,11.83C14.07,11.62 14.67,11.28 15.19,10.83L20,19.88M15,7A3,3 0 0,1 12,10C11.85,10 11.71,10 11.56,10L5.8,20.83L4,22V19.88L9.79,9C8.69,7.77 8.79,5.87 10.03,4.76C10.57,4.28 11.27,4 12,4V2A1,1 0 0,1 13,3V4.18C14.2,4.6 15,5.73 15,7M13,7A1,1 0 0,0 12,6A1,1 0 0,0 11,7A1,1 0 0,0 12,8A1,1 0 0,0 13,7Z" />
    </g>
    <g id="mdi-math-cos" transform="translate(432 108) scale(1.5)" fill="#555">
      <path d="M4,7A2,2 0 0,0 2,9V15A2,2 0 0,0 4,17H6A2,2 0 0,0 8,15V14H6V15H4V9H6V10H8V9A2,2 0 0,0 6,7H4M11,7A2,2 0 0,0 9,9V15A2,2 0 0,0 11,17H13A2,2 0 0,0 15,15V9A2,2 0 0,0 13,7H11M11,9H13V15H11V9M18,7A2,2 0 0,0 16,9V11A2,2 0 0,0 18,13H20V15H16V17H20A2,2 0 0,0 22,15V13A2,2 0 0,0 20,11H18V9H22V7H18Z" />
    </g>
    <g id="mdi-math-cos" transform="translate(468 108) scale(1.5)" fill="#fff">
      <path d="M4,7A2,2 0 0,0 2,9V15A2,2 0 0,0 4,17H6A2,2 0 0,0 8,15V14H6V15H4V9H6V10H8V9A2,2 0 0,0 6,7H4M11,7A2,2 0 0,0 9,9V15A2,2 0 0,0 11,17H13A2,2 0 0,0 15,15V9A2,2 0 0,0 13,7H11M11,9H13V15H11V9M18,7A2,2 0 0,0 16,9V11A2,2 0 0,0 18,13H20V15H16V17H20A2,2 0 0,0 22,15V13A2,2 0 0,0 20,11H18V9H22V7H18Z" />
    </g>
    <g id="mdi-math-integral" transform="translate(504 108) scale(1.5)" fill="#555">
      <path d="M11.5 19.1C11.3 20.2 10.9 21 10.2 21.5C9.5 22 8.6 22.1 7.5 21.9C7.1 21.8 6.3 21.7 6 21.5L6.5 20C6.8 20.1 7.4 20.3 7.7 20.3C8.8 20.5 9.4 20 9.6 18.8L12 5.2C12.2 4 12.7 3.2 13.4 2.6C14.1 2.1 15.1 1.9 16.2 2.1C16.6 2.2 17.4 2.3 18 2.6L17.5 4C17.3 3.9 16.6 3.8 16.3 3.7C15 3.5 14.3 4.1 14 5.6L11.5 19.1Z" />
    </g>
    <g id="mdi-math-integral" transform="translate(540 108) scale(1.5)" fill="#fff">
      <path d="M11.5 19.1C11.3 20.2 10.9 21 10.2 21.5C9.5 22 8.6 22.1 7.5 21.9C7.1 21.8 6.3 21.7 6 21.5L6.5 20C6.8 20.1 7.4 20.3 7.7 20.3C8.8 20.5 9.4 20 9.6 18.8L12 5.2C12.2 4 12.7 3.2 13.4 2.6C14.1 2.1 15.1 1.9 16.2 2.1C16.6 2.2 17.4 2.3 18 2.6L17.5 4C17.3 3.9 16.6 3.8 16.3 3.7C15 3.5 14.3 4.1 14 5.6L11.5 19.1Z" />
    </g>
    <g id="mdi-math-integral-box" transform="translate(576 108) scale(1.5)" fill="#555">
      <path d="M19 3H5C3.9 3 3 3.9 3 5V19C3 20.1 3.9 21 5 21H19C20.1 21 21 20.1 21 19V5C21 3.9 20.1 3 19 3M15.9 6.9C15.9 6.9 15.2 6.6 14.9 6.6C14.3 6.5 13.9 6.7 13.7 7.7L12 16.8C11.8 17.6 11.5 18.2 11 18.6C10.6 18.9 10.2 19 9.7 19C8.9 19 7.7 18.5 7.7 18.5L8.2 17.1C8.2 17.1 9 17.4 9.2 17.4C9.5 17.5 9.7 17.4 9.9 17.3C10.1 17.2 10.2 16.9 10.3 16.6L11.9 7.4C12 6.6 12.4 6 12.9 5.5C13.5 5.1 14.2 5 15 5.1C15.7 5.2 16.5 5.6 16.5 5.6L15.9 6.9Z" />
    </g>
    <g id="mdi-math-integral-box" transform="translate(612 108) scale(1.5)" fill="#fff">
      <path d="M19 3H5C3.9 3 3 3.9 3 5V19C3 20.1 3.9 21 5 21H19C20.1 21 21 20.1 21 19V5C21 3.9 20.1 3 19 3M15.9 6.9C15.9 6.9 15.2 6.6 14.9 6.6C14.3 6.5 13.9 6.7 13.7 7.7L12 16.8C11.8 17.6 11.5 18.2 11 18.6C10.6 18.9 10.2 19 9.7 19C8.9 19 7.7 18.5 7.7 18.5L8.2 17.1C8.2 17.1 9 17.4 9.2 17.4C9.5 17.5 9.7 17.4 9.9 17.3C10.1 17.2 10.2 16.9 10.3 16.6L11.9 7.4C12 6.6 12.4 6 12.9 5.5C13.5 5.1 14.2 5 15 5.1C15.7 5.2 16.5 5.6 16.5 5.6L15.9 6.9Z" />
    </g>
    <g id="mdi-math-log" transform="translate(648 108) scale(1.5)" fill="#555">
      <path d="M18 7C16.9 7 16 7.9 16 9V15C16 16.1 16.9 17 18 17H20C21.1 17 22 16.1 22 15V11H20V15H18V9H22V7H18M2 7V17H8V15H4V7H2M11 7C9.9 7 9 7.9 9 9V15C9 16.1 9.9 17 11 17H13C14.1 17 15 16.1 15 15V9C15 7.9 14.1 7 13 7H11M11 9H13V15H11V9Z" />
    </g>
    <g id="mdi-math-log" transform="translate(684 108) scale(1.5)" fill="#fff">
      <path d="M18 7C16.9 7 16 7.9 16 9V15C16 16.1 16.9 17 18 17H20C21.1 17 22 16.1 22 15V11H20V15H18V9H22V7H18M2 7V17H8V15H4V7H2M11 7C9.9 7 9 7.9 9 9V15C9 16.1 9.9 17 11 17H13C14.1 17 15 16.1 15 15V9C15 7.9 14.1 7 13 7H11M11 9H13V15H11V9Z" />
    </g>
    <g id="mdi-math-norm" transform="translate(0 144) scale(1.5)" fill="#555">
      <path d="M14 21V3H16V21H14M8 21V3H10V21H8Z" />
    </g>
    <g id="mdi-math-norm" transform="translate(36 144) scale(1.5)" fill="#fff">
      <path d="M14 21V3H16V21H14M8 21V3H10V21H8Z" />
    </g>
    <g id="mdi-math-norm-box" transform="translate(72 144) scale(1.5)" fill="#555">
      <path d="M19 3H5C3.9 3 3 3.9 3 5V19C3 20.1 3.9 21 5 21H19C20.1 21 21 20.1 21 19V5C21 3.9 20.1 3 19 3M10 18H8V6H10V18M16 18H14V6H16V18Z" />
    </g>
    <g id="mdi-math-norm-box" transform="translate(108 144) scale(1.5)" fill="#fff">
      <path d="M19 3H5C3.9 3 3 3.9 3 5V19C3 20.1 3.9 21 5 21H19C20.1 21 21 20.1 21 19V5C21 3.9 20.1 3 19 3M10 18H8V6H10V18M16 18H14V6H16V18Z" />
    </g>
    <g id="mdi-math-sin" transform="translate(144 144) scale(1.5)" fill="#555">
      <path d="M4,7A2,2 0 0,0 2,9V11A2,2 0 0,0 4,13H6V15H2V17H6A2,2 0 0,0 8,15V13A2,2 0 0,0 6,11H4V9H8V7H4M14,7V9H13V15H14V17H10V15H11V9H10V7H14M16,7V17H18V12L20,17H22V7H20V12L18,7H16Z" />
    </g>
    <g id="mdi-math-sin" transform="translate(180 144) scale(1.5)" fill="#fff">
      <path d="M4,7A2,2 0 0,0 2,9V11A2,2 0 0,0 4,13H6V15H2V17H6A2,2 0 0,0 8,15V13A2,2 0 0,0 6,11H4V9H8V7H4M14,7V9H13V15H14V17H10V15H11V9H10V7H14M16,7V17H18V12L20,17H22V7H20V12L18,7H16Z" />
    </g>
    <g id="mdi-math-tan" transform="translate(216 144) scale(1.5)" fill="#555">
      <path d="M2,7V9H4V17H6V9H8V7H2M11,7A2,2 0 0,0 9,9V17H11V13H13V17H15V9A2,2 0 0,0 13,7H11M11,9H13V11H11V9M16,7V17H18V12L20,17H22V7H20V12L18,7H16Z" />
    </g>
    <g id="mdi-math-tan" transform="translate(252 144) scale(1.5)" fill="#fff">
      <path d="M2,7V9H4V17H6V9H8V7H2M11,7A2,2 0 0,0 9,9V17H11V13H13V17H15V9A2,2 0 0,0 13,7H11M11,9H13V11H11V9M16,7V17H18V12L20,17H22V7H20V12L18,7H16Z" />
    </g>
    <g id="mdi-matrix" transform="translate(288 144) scale(1.5)" fill="#555">
      <path d="M2,2H6V4H4V20H6V22H2V2M20,4H18V2H22V22H18V20H20V4M9,5H10V10H11V11H8V10H9V6L8,6.5V5.5L9,5M15,13H16V18H17V19H14V18H15V14L14,14.5V13.5L15,13M9,13C10.1,13 11,14.34 11,16C11,17.66 10.1,19 9,19C7.9,19 7,17.66 7,16C7,14.34 7.9,13 9,13M9,14C8.45,14 8,14.9 8,16C8,17.1 8.45,18 9,18C9.55,18 10,17.1 10,16C10,14.9 9.55,14 9,14M15,5C16.1,5 17,6.34 17,8C17,9.66 16.1,11 15,11C13.9,11 13,9.66 13,8C13,6.34 13.9,5 15,5M15,6C14.45,6 14,6.9 14,8C14,9.1 14.45,10 15,10C15.55,10 16,9.1 16,8C16,6.9 15.55,6 15,6Z" />
    </g>
    <g id="mdi-matrix" transform="translate(324 144) scale(1.5)" fill="#fff">
      <path d="M2,2H6V4H4V20H6V22H2V2M20,4H18V2H22V22H18V20H20V4M9,5H10V10H11V11H8V10H9V6L8,6.5V5.5L9,5M15,13H16V18H17V19H14V18H15V14L14,14.5V13.5L15,13M9,13C10.1,13 11,14.34 11,16C11,17.66 10.1,19 9,19C7.9,19 7,17.66 7,16C7,14.34 7.9,13 9,13M9,14C8.45,14 8,14.9 8,16C8,17.1 8.45,18 9,18C9.55,18 10,17.1 10,16C10,14.9 9.55,14 9,14M15,5C16.1,5 17,6.34 17,8C17,9.66 16.1,11 15,11C13.9,11 13,9.66 13,8C13,6.34 13.9,5 15,5M15,6C14.45,6 14,6.9 14,8C14,9.1 14.45,10 15,10C15.55,10 16,9.1 16,8C16,6.9 15.55,6 15,6Z" />
    </g>
    <g id="mdi-medal" transform="translate(360 144) scale(1.5)" fill="#555">
      <path d="M20,2H4V4L9.81,8.36C6.14,9.57 4.14,13.53 5.35,17.2C6.56,20.87 10.5,22.87 14.19,21.66C17.86,20.45 19.86,16.5 18.65,12.82C17.95,10.71 16.3,9.05 14.19,8.36L20,4V2M14.94,19.5L12,17.78L9.06,19.5L9.84,16.17L7.25,13.93L10.66,13.64L12,10.5L13.34,13.64L16.75,13.93L14.16,16.17L14.94,19.5Z" />
    </g>
    <g id="mdi-medal" transform="translate(396 144) scale(1.5)" fill="#fff">
      <path d="M20,2H4V4L9.81,8.36C6.14,9.57 4.14,13.53 5.35,17.2C6.56,20.87 10.5,22.87 14.19,21.66C17.86,20.45 19.86,16.5 18.65,12.82C17.95,10.71 16.3,9.05 14.19,8.36L20,4V2M14.94,19.5L12,17.78L9.06,19.5L9.84,16.17L7.25,13.93L10.66,13.64L12,10.5L13.34,13.64L16.75,13.93L14.16,16.17L14.94,19.5Z" />
    </g>
    <g id="mdi-medal-outline" transform="translate(432 144) scale(1.5)" fill="#555">
      <path d="M14.94 19.5L12 17.77L9.06 19.5L9.84 16.16L7.25 13.92L10.66 13.63L12 10.5L13.34 13.63L16.75 13.92L14.16 16.16M20 2H4V4L8.86 7.64A8 8 0 1 0 15.14 7.64L20 4M18 15A6 6 0 1 1 10.82 9.12A5.86 5.86 0 0 1 13.18 9.12A6 6 0 0 1 18 15M12.63 7H11.37L7.37 4H16.71Z" />
    </g>
    <g id="mdi-medal-outline" transform="translate(468 144) scale(1.5)" fill="#fff">
      <path d="M14.94 19.5L12 17.77L9.06 19.5L9.84 16.16L7.25 13.92L10.66 13.63L12 10.5L13.34 13.63L16.75 13.92L14.16 16.16M20 2H4V4L8.86 7.64A8 8 0 1 0 15.14 7.64L20 4M18 15A6 6 0 1 1 10.82 9.12A5.86 5.86 0 0 1 13.18 9.12A6 6 0 0 1 18 15M12.63 7H11.37L7.37 4H16.71Z" />
    </g>
    <g id="mdi-medical-bag" transform="translate(504 144) scale(1.5)" fill="#555">
      <path d="M10,3L8,5V7H5C3.85,7 3.12,8 3,9L2,19C1.88,20 2.54,21 4,21H20C21.46,21 22.12,20 22,19L21,9C20.88,8 20.06,7 19,7H16V5L14,3H10M10,5H14V7H10V5M11,10H13V13H16V15H13V18H11V15H8V13H11V10Z" />
    </g>
    <g id="mdi-medical-bag" transform="translate(540 144) scale(1.5)" fill="#fff">
      <path d="M10,3L8,5V7H5C3.85,7 3.12,8 3,9L2,19C1.88,20 2.54,21 4,21H20C21.46,21 22.12,20 22,19L21,9C20.88,8 20.06,7 19,7H16V5L14,3H10M10,5H14V7H10V5M11,10H13V13H16V15H13V18H11V15H8V13H11V10Z" />
    </g>
    <g id="mdi-meditation" transform="translate(576 144) scale(1.5)" fill="#555">
      <path d="M12 4C13.11 4 14 4.89 14 6S13.11 8 12 8 10 7.11 10 6 10.9 4 12 4M21 16V14C18.76 14 16.84 13.04 15.4 11.32L14.06 9.72C13.68 9.26 13.12 9 12.53 9H11.5C10.89 9 10.33 9.26 9.95 9.72L8.61 11.32C7.16 13.04 5.24 14 3 14V16C5.77 16 8.19 14.83 10 12.75V15L6.12 16.55C5.45 16.82 5 17.5 5 18.21C5 19.2 5.8 20 6.79 20H9V19.5C9 18.12 10.12 17 11.5 17H14.5C14.78 17 15 17.22 15 17.5S14.78 18 14.5 18H11.5C10.67 18 10 18.67 10 19.5V20H17.21C18.2 20 19 19.2 19 18.21C19 17.5 18.55 16.82 17.88 16.55L14 15V12.75C15.81 14.83 18.23 16 21 16Z" />
    </g>
    <g id="mdi-meditation" transform="translate(612 144) scale(1.5)" fill="#fff">
      <path d="M12 4C13.11 4 14 4.89 14 6S13.11 8 12 8 10 7.11 10 6 10.9 4 12 4M21 16V14C18.76 14 16.84 13.04 15.4 11.32L14.06 9.72C13.68 9.26 13.12 9 12.53 9H11.5C10.89 9 10.33 9.26 9.95 9.72L8.61 11.32C7.16 13.04 5.24 14 3 14V16C5.77 16 8.19 14.83 10 12.75V15L6.12 16.55C5.45 16.82 5 17.5 5 18.21C5 19.2 5.8 20 6.79 20H9V19.5C9 18.12 10.12 17 11.5 17H14.5C14.78 17 15 17.22 15 17.5S14.78 18 14.5 18H11.5C10.67 18 10 18.67 10 19.5V20H17.21C18.2 20 19 19.2 19 18.21C19 17.5 18.55 16.82 17.88 16.55L14 15V12.75C15.81 14.83 18.23 16 21 16Z" />
    </g>
    <g id="mdi-memory" transform="translate(648 144) scale(1.5)" fill="#555">
      <path d="M17,17H7V7H17M21,11V9H19V7C19,5.89 18.1,5 17,5H15V3H13V5H11V3H9V5H7C5.89,5 5,5.89 5,7V9H3V11H5V13H3V15H5V17A2,2 0 0,0 7,19H9V21H11V19H13V21H15V19H17A2,2 0 0,0 19,17V15H21V13H19V11M13,13H11V11H13M15,9H9V15H15V9Z" />
    </g>
    <g id="mdi-memory" transform="translate(684 144) scale(1.5)" fill="#fff">
      <path d="M17,17H7V7H17M21,11V9H19V7C19,5.89 18.1,5 17,5H15V3H13V5H11V3H9V5H7C5.89,5 5,5.89 5,7V9H3V11H5V13H3V15H5V17A2,2 0 0,0 7,19H9V21H11V19H13V21H15V19H17A2,2 0 0,0 19,17V15H21V13H19V11M13,13H11V11H13M15,9H9V15H15V9Z" />
    </g>
    <g id="mdi-menu" transform="translate(0 180) scale(1.5)" fill="#555">
      <path d="M3,6H21V8H3V6M3,11H21V13H3V11M3,16H21V18H3V16Z" />
    </g>
    <g id="mdi-menu" transform="translate(36 180) scale(1.5)" fill="#fff">
      <path d="M3,6H21V8H3V6M3,11H21V13H3V11M3,16H21V18H3V16Z" />
    </g>
    <g id="mdi-menu-down" transform="translate(72 180) scale(1.5)" fill="#555">
      <path d="M7,10L12,15L17,10H7Z" />
    </g>
    <g id="mdi-menu-down" transform="translate(108 180) scale(1.5)" fill="#fff">
      <path d="M7,10L12,15L17,10H7Z" />
    </g>
    <g id="mdi-menu-down-outline" transform="translate(144 180) scale(1.5)" fill="#555">
      <path d="M18,9V10.5L12,16.5L6,10.5V9H18M12,13.67L14.67,11H9.33L12,13.67Z" />
    </g>
    <g id="mdi-menu-down-outline" transform="translate(180 180) scale(1.5)" fill="#fff">
      <path d="M18,9V10.5L12,16.5L6,10.5V9H18M12,13.67L14.67,11H9.33L12,13.67Z" />
    </g>
    <g id="mdi-menu-left" transform="translate(216 180) scale(1.5)" fill="#555">
      <path d="M14,7L9,12L14,17V7Z" />
    </g>
    <g id="mdi-menu-left" transform="translate(252 180) scale(1.5)" fill="#fff">
      <path d="M14,7L9,12L14,17V7Z" />
    </g>
    <g id="mdi-menu-left-outline" transform="translate(288 180) scale(1.5)" fill="#555">
      <path d="M15,18H13.5L7.5,12L13.5,6H15V18M10.33,12L13,14.67V9.33L10.33,12Z" />
    </g>
    <g id="mdi-menu-left-outline" transform="translate(324 180) scale(1.5)" fill="#fff">
      <path d="M15,18H13.5L7.5,12L13.5,6H15V18M10.33,12L13,14.67V9.33L10.33,12Z" />
    </g>
    <g id="mdi-menu-open" transform="translate(360 180) scale(1.5)" fill="#555">
      <path d="M21,15.61L19.59,17L14.58,12L19.59,7L21,8.39L17.44,12L21,15.61M3,6H16V8H3V6M3,13V11H13V13H3M3,18V16H16V18H3Z" />
    </g>
    <g id="mdi-menu-open" transform="translate(396 180) scale(1.5)" fill="#fff">
      <path d="M21,15.61L19.59,17L14.58,12L19.59,7L21,8.39L17.44,12L21,15.61M3,6H16V8H3V6M3,13V11H13V13H3M3,18V16H16V18H3Z" />
    </g>
    <g id="mdi-menu-right" transform="translate(432 180) scale(1.5)" fill="#555">
      <path d="M10,17L15,12L10,7V17Z" />
    </g>
    <g id="mdi-menu-right" transform="translate(468 180) scale(1.5)" fill="#fff">
      <path d="M10,17L15,12L10,7V17Z" />
    </g>
    <g id="mdi-menu-right-outline" transform="translate(504 180) scale(1.5)" fill="#555">
      <path d="M9,6H10.5L16.5,12L10.5,18H9V6M13.67,12L11,9.33V14.67L13.67,12Z" />
    </g>
    <g id="mdi-menu-right-outline" transform="translate(540 180) scale(1.5)" fill="#fff">
      <path d="M9,6H10.5L16.5,12L10.5,18H9V6M13.67,12L11,9.33V14.67L13.67,12Z" />
    </g>
    <g id="mdi-menu-swap" transform="translate(576 180) scale(1.5)" fill="#555">
      <path d="M12,6L7,11H17L12,6M7,13L12,18L17,13H7Z" />
    </g>
    <g id="mdi-menu-swap" transform="translate(612 180) scale(1.5)" fill="#fff">
      <path d="M12,6L7,11H17L12,6M7,13L12,18L17,13H7Z" />
    </g>
    <g id="mdi-menu-swap-outline" transform="translate(648 180) scale(1.5)" fill="#555">
      <path d="M12,3.5L6,9.5V11H18V9.5L12,3.5M12,6.33L14.67,9H9.33L12,6.33M6,13V14.5L12,20.5L18,14.5V13H6M9.33,15H14.67L12,17.67L9.33,15Z" />
    </g>
    <g id="mdi-menu-swap-outline" transform="translate(684 180) scale(1.5)" fill="#fff">
      <path d="M12,3.5L6,9.5V11H18V9.5L12,3.5M12,6.33L14.67,9H9.33L12,6.33M6,13V14.5L12,20.5L18,14.5V13H6M9.33,15H14.67L12,17.67L9.33,15Z" />
    </g>
    <g id="mdi-menu-up" transform="translate(0 216) scale(1.5)" fill="#555">
      <path d="M7,15L12,10L17,15H7Z" />
    </g>
    <g id="mdi-menu-up" transform="translate(36 216) scale(1.5)" fill="#fff">
      <path d="M7,15L12,10L17,15H7Z" />
    </g>
    <g id="mdi-menu-up-outline" transform="translate(72 216) scale(1.5)" fill="#555">
      <path d="M18,16V14.5L12,8.5L6,14.5V16H18M12,11.33L14.67,14H9.33L12,11.33Z" />
    </g>
    <g id="mdi-menu-up-outline" transform="translate(108 216) scale(1.5)" fill="#fff">
      <path d="M18,16V14.5L12,8.5L6,14.5V16H18M12,11.33L14.67,14H9.33L12,11.33Z" />
    </g>
    <g id="mdi-merge" transform="translate(144 216) scale(1.5)" fill="#555">
      <path d="M8 17L12 13H15.2C15.6 14.2 16.7 15 18 15C19.7 15 21 13.7 21 12S19.7 9 18 9C16.7 9 15.6 9.8 15.2 11H12L8 7V3H3V8H6L10.2 12L6 16H3V21H8V17Z" />
    </g>
    <g id="mdi-merge" transform="translate(180 216) scale(1.5)" fill="#fff">
      <path d="M8 17L12 13H15.2C15.6 14.2 16.7 15 18 15C19.7 15 21 13.7 21 12S19.7 9 18 9C16.7 9 15.6 9.8 15.2 11H12L8 7V3H3V8H6L10.2 12L6 16H3V21H8V17Z" />
    </g>
    <g id="mdi-message" transform="translate(216 216) scale(1.5)" fill="#555">
      <path d="M20,2H4A2,2 0 0,0 2,4V22L6,18H20A2,2 0 0,0 22,16V4C22,2.89 21.1,2 20,2Z" />
    </g>
    <g id="mdi-message" transform="translate(252 216) scale(1.5)" fill="#fff">
      <path d="M20,2H4A2,2 0 0,0 2,4V22L6,18H20A2,2 0 0,0 22,16V4C22,2.89 21.1,2 20,2Z" />
    </g>
    <g id="mdi-message-alert" transform="translate(288 216) scale(1.5)" fill="#555">
      <path d="M13 11H11V5H13M13 15H11V13H13M20 2H4C2.9 2 2 2.9 2 4V22L6 18H20C21.1 18 22 17.1 22 16V4C22 2.9 21.1 2 20 2Z" />
    </g>
    <g id="mdi-message-alert" transform="translate(324 216) scale(1.5)" fill="#fff">
      <path d="M13 11H11V5H13M13 15H11V13H13M20 2H4C2.9 2 2 2.9 2 4V22L6 18H20C21.1 18 22 17.1 22 16V4C22 2.9 21.1 2 20 2Z" />
    </g>
    <g id="mdi-message-alert-outline" transform="translate(360 216) scale(1.5)" fill="#555">
      <path d="M13,10H11V6H13V10M13,12H11V14H13V12M22,4V16A2,2 0 0,1 20,18H6L2,22V4A2,2 0 0,1 4,2H20A2,2 0 0,1 22,4M20,4H4V17.2L5.2,16H20V4Z" />
    </g>
    <g id="mdi-message-alert-outline" transform="translate(396 216) scale(1.5)" fill="#fff">
      <path d="M13,10H11V6H13V10M13,12H11V14H13V12M22,4V16A2,2 0 0,1 20,18H6L2,22V4A2,2 0 0,1 4,2H20A2,2 0 0,1 22,4M20,4H4V17.2L5.2,16H20V4Z" />
    </g>
    <g id="mdi-message-arrow-left" transform="translate(432 216) scale(1.5)" fill="#555">
      <path d="M20 2H4C2.9 2 2 2.9 2 4V22L6 18H20C21.1 18 22 17.1 22 16V4C22 2.9 21.1 2 20 2M16 11H11.5L13.3 12.8L12 14L8 10L12 6L13.2 7.2L11.5 9H16V11Z" />
    </g>
    <g id="mdi-message-arrow-left" transform="translate(468 216) scale(1.5)" fill="#fff">
      <path d="M20 2H4C2.9 2 2 2.9 2 4V22L6 18H20C21.1 18 22 17.1 22 16V4C22 2.9 21.1 2 20 2M16 11H11.5L13.3 12.8L12 14L8 10L12 6L13.2 7.2L11.5 9H16V11Z" />
    </g>
    <g id="mdi-message-arrow-left-outline" transform="translate(504 216) scale(1.5)" fill="#555">
      <path d="M20 2H4C2.9 2 2 2.9 2 4V22L6 18H20C21.1 18 22 17.1 22 16V4C22 2.9 21.1 2 20 2M20 16H5.2L4 17.2V4H20V16M16 11V9H11.5L13.3 7.2L12 6L8 10L12 14L13.2 12.8L11.5 11H16Z" />
    </g>
    <g id="mdi-message-arrow-left-outline" transform="translate(540 216) scale(1.5)" fill="#fff">
      <path d="M20 2H4C2.9 2 2 2.9 2 4V22L6 18H20C21.1 18 22 17.1 22 16V4C22 2.9 21.1 2 20 2M20 16H5.2L4 17.2V4H20V16M16 11V9H11.5L13.3 7.2L12 6L8 10L12 14L13.2 12.8L11.5 11H16Z" />
    </g>
    <g id="mdi-message-arrow-right" transform="translate(576 216) scale(1.5)" fill="#555">
      <path d="M20 2H4C2.9 2 2 2.9 2 4V22L6 18H20C21.1 18 22 17.1 22 16V4C22 2.9 21.1 2 20 2M12 14L10.8 12.8L12.6 11H8V9H12.5L10.7 7.2L12 6L16 10L12 14Z" />
    </g>
    <g id="mdi-message-arrow-right" transform="translate(612 216) scale(1.5)" fill="#fff">
      <path d="M20 2H4C2.9 2 2 2.9 2 4V22L6 18H20C21.1 18 22 17.1 22 16V4C22 2.9 21.1 2 20 2M12 14L10.8 12.8L12.6 11H8V9H12.5L10.7 7.2L12 6L16 10L12 14Z" />
    </g>
    <g id="mdi-message-arrow-right-outline" transform="translate(648 216) scale(1.5)" fill="#555">
      <path d="M20 2H4C2.9 2 2 2.9 2 4V22L6 18H20C21.1 18 22 17.1 22 16V4C22 2.9 21.1 2 20 2M20 16H5.2L4 17.2V4H20V16M8 9V11H12.5L10.7 12.8L12 14L16 10L12 6L10.8 7.2L12.5 9H8Z" />
    </g>
    <g id="mdi-message-arrow-right-outline" transform="translate(684 216) scale(1.5)" fill="#fff">
      <path d="M20 2H4C2.9 2 2 2.9 2 4V22L6 18H20C21.1 18 22 17.1 22 16V4C22 2.9 21.1 2 20 2M20 16H5.2L4 17.2V4H20V16M8 9V11H12.5L10.7 12.8L12 14L16 10L12 6L10.8 7.2L12.5 9H8Z" />
    </g>
    <g id="mdi-message-bookmark" transform="translate(0 252) scale(1.5)" fill="#555">
      <path d="M20 2H4C2.9 2 2 2.9 2 4V22L6 18H20C21.1 18 22 17.1 22 16V4C22 2.9 21.1 2 20 2M19 13L16.5 11.5L14 13V5H19V13Z" />
    </g>
    <g id="mdi-message-bookmark" transform="translate(36 252) scale(1.5)" fill="#fff">
      <path d="M20 2H4C2.9 2 2 2.9 2 4V22L6 18H20C21.1 18 22 17.1 22 16V4C22 2.9 21.1 2 20 2M19 13L16.5 11.5L14 13V5H19V13Z" />
    </g>
    <g id="mdi-message-bookmark-outline" transform="translate(72 252) scale(1.5)" fill="#555">
      <path d="M20 2H4C2.9 2 2 2.9 2 4V22L6 18H20C21.1 18 22 17.1 22 16V4C22 2.9 21.1 2 20 2M20 16H5.2L4 17.2V4H20V16M18 14V6H13V14L15.5 12.5L18 14" />
    </g>
    <g id="mdi-message-bookmark-outline" transform="translate(108 252) scale(1.5)" fill="#fff">
      <path d="M20 2H4C2.9 2 2 2.9 2 4V22L6 18H20C21.1 18 22 17.1 22 16V4C22 2.9 21.1 2 20 2M20 16H5.2L4 17.2V4H20V16M18 14V6H13V14L15.5 12.5L18 14" />
    </g>
    <g id="mdi-message-bulleted" transform="translate(144 252) scale(1.5)" fill="#555">
      <path d="M20,2H4A2,2 0 0,0 2,4V22L6,18H20A2,2 0 0,0 22,16V4A2,2 0 0,0 20,2M8,14H6V12H8V14M8,11H6V9H8V11M8,8H6V6H8V8M15,14H10V12H15V14M18,11H10V9H18V11M18,8H10V6H18V8Z" />
    </g>
    <g id="mdi-message-bulleted" transform="translate(180 252) scale(1.5)" fill="#fff">
      <path d="M20,2H4A2,2 0 0,0 2,4V22L6,18H20A2,2 0 0,0 22,16V4A2,2 0 0,0 20,2M8,14H6V12H8V14M8,11H6V9H8V11M8,8H6V6H8V8M15,14H10V12H15V14M18,11H10V9H18V11M18,8H10V6H18V8Z" />
    </g>
    <g id="mdi-message-bulleted-off" transform="translate(216 252) scale(1.5)" fill="#555">
      <path d="M1.27,1.73L0,3L2,5V22L6,18H15L20.73,23.73L22,22.46L1.27,1.73M8,14H6V12H8V14M6,11V9L8,11H6M20,2H4.08L10,7.92V6H18V8H10.08L11.08,9H18V11H13.08L20.07,18C21.14,17.95 22,17.08 22,16V4A2,2 0 0,0 20,2Z" />
    </g>
    <g id="mdi-message-bulleted-off" transform="translate(252 252) scale(1.5)" fill="#fff">
      <path d="M1.27,1.73L0,3L2,5V22L6,18H15L20.73,23.73L22,22.46L1.27,1.73M8,14H6V12H8V14M6,11V9L8,11H6M20,2H4.08L10,7.92V6H18V8H10.08L11.08,9H18V11H13.08L20.07,18C21.14,17.95 22,17.08 22,16V4A2,2 0 0,0 20,2Z" />
    </g>
    <g id="mdi-message-cog" transform="translate(288 252) scale(1.5)" fill="#555">
      <path d="M13.5,10A1.5,1.5 0 0,1 12,11.5C11.16,11.5 10.5,10.83 10.5,10A1.5,1.5 0 0,1 12,8.5A1.5,1.5 0 0,1 13.5,10M22,4V16A2,2 0 0,1 20,18H6L2,22V4A2,2 0 0,1 4,2H20A2,2 0 0,1 22,4M16.77,11.32L15.7,10.5C15.71,10.33 15.71,10.16 15.7,10C15.72,9.84 15.72,9.67 15.7,9.5L16.76,8.68C16.85,8.6 16.88,8.47 16.82,8.36L15.82,6.63C15.76,6.5 15.63,6.47 15.5,6.5L14.27,7C14,6.8 13.73,6.63 13.42,6.5L13.23,5.19C13.21,5.08 13.11,5 13,5H11C10.88,5 10.77,5.09 10.75,5.21L10.56,6.53C10.26,6.65 9.97,6.81 9.7,7L8.46,6.5C8.34,6.46 8.21,6.5 8.15,6.61L7.15,8.34C7.09,8.45 7.11,8.58 7.21,8.66L8.27,9.5C8.23,9.82 8.23,10.16 8.27,10.5L7.21,11.32C7.12,11.4 7.09,11.53 7.15,11.64L8.15,13.37C8.21,13.5 8.34,13.53 8.46,13.5L9.7,13C9.96,13.2 10.24,13.37 10.55,13.5L10.74,14.81C10.77,14.93 10.88,15 11,15H13C13.12,15 13.23,14.91 13.25,14.79L13.44,13.47C13.74,13.34 14,13.18 14.28,13L15.53,13.5C15.65,13.5 15.78,13.5 15.84,13.37L16.84,11.64C16.9,11.53 16.87,11.4 16.77,11.32Z" />
    </g>
    <g id="mdi-message-cog" transform="translate(324 252) scale(1.5)" fill="#fff">
      <path d="M13.5,10A1.5,1.5 0 0,1 12,11.5C11.16,11.5 10.5,10.83 10.5,10A1.5,1.5 0 0,1 12,8.5A1.5,1.5 0 0,1 13.5,10M22,4V16A2,2 0 0,1 20,18H6L2,22V4A2,2 0 0,1 4,2H20A2,2 0 0,1 22,4M16.77,11.32L15.7,10.5C15.71,10.33 15.71,10.16 15.7,10C15.72,9.84 15.72,9.67 15.7,9.5L16.76,8.68C16.85,8.6 16.88,8.47 16.82,8.36L15.82,6.63C15.76,6.5 15.63,6.47 15.5,6.5L14.27,7C14,6.8 13.73,6.63 13.42,6.5L13.23,5.19C13.21,5.08 13.11,5 13,5H11C10.88,5 10.77,5.09 10.75,5.21L10.56,6.53C10.26,6.65 9.97,6.81 9.7,7L8.46,6.5C8.34,6.46 8.21,6.5 8.15,6.61L7.15,8.34C7.09,8.45 7.11,8.58 7.21,8.66L8.27,9.5C8.23,9.82 8.23,10.16 8.27,10.5L7.21,11.32C7.12,11.4 7.09,11.53 7.15,11.64L8.15,13.37C8.21,13.5 8.34,13.53 8.46,13.5L9.7,13C9.96,13.2 10.24,13.37 10.55,13.5L10.74,14.81C10.77,14.93 10.88,15 11,15H13C13.12,15 13.23,14.91 13.25,14.79L13.44,13.47C13.74,13.34 14,13.18 14.28,13L15.53,13.5C15.65,13.5 15.78,13.5 15.84,13.37L16.84,11.64C16.9,11.53 16.87,11.4 16.77,11.32Z" />
    </g>
    <g id="mdi-message-cog-outline" transform="translate(360 252) scale(1.5)" fill="#555">
      <path d="M20 2H4C2.9 2 2 2.9 2 4V22L6 18H20C21.1 18 22 17.1 22 16V4C22 2.9 21.1 2 20 2M20 16H5.2L4 17.2V4H20V16M16.8 11.3L15.7 10.5V10 9.5L16.8 8.7C16.9 8.6 16.9 8.5 16.9 8.4L15.9 6.7C15.8 6.6 15.7 6.5 15.6 6.6L14.3 7C14 6.8 13.8 6.6 13.4 6.5L13.2 5.2C13.2 5.1 13.1 5 13 5H11C10.9 5 10.8 5.1 10.8 5.2L10.6 6.5C10.3 6.7 10 6.8 9.7 7L8.5 6.5C8.4 6.5 8.3 6.5 8.2 6.6L7.2 8.3C7.1 8.4 7.2 8.5 7.3 8.6L8.4 9.4V10.4L7.3 11.2C7.2 11.3 7.2 11.4 7.2 11.5L8.2 13.2C8.3 13.3 8.4 13.4 8.5 13.3L9.7 13C10 13.2 10.2 13.4 10.5 13.5L10.7 14.8C10.7 14.9 10.8 15 11 15H13C13.1 15 13.2 14.9 13.2 14.8L13.4 13.5C13.7 13.4 14 13.2 14.2 13L15.4 13.5C15.5 13.5 15.6 13.5 15.7 13.4L16.7 11.7C16.9 11.5 16.9 11.4 16.8 11.3M12 11.5C11.2 11.5 10.5 10.8 10.5 10S11.2 8.5 12 8.5 13.5 9.2 13.5 10 12.8 11.5 12 11.5Z" />
    </g>
    <g id="mdi-message-cog-outline" transform="translate(396 252) scale(1.5)" fill="#fff">
      <path d="M20 2H4C2.9 2 2 2.9 2 4V22L6 18H20C21.1 18 22 17.1 22 16V4C22 2.9 21.1 2 20 2M20 16H5.2L4 17.2V4H20V16M16.8 11.3L15.7 10.5V10 9.5L16.8 8.7C16.9 8.6 16.9 8.5 16.9 8.4L15.9 6.7C15.8 6.6 15.7 6.5 15.6 6.6L14.3 7C14 6.8 13.8 6.6 13.4 6.5L13.2 5.2C13.2 5.1 13.1 5 13 5H11C10.9 5 10.8 5.1 10.8 5.2L10.6 6.5C10.3 6.7 10 6.8 9.7 7L8.5 6.5C8.4 6.5 8.3 6.5 8.2 6.6L7.2 8.3C7.1 8.4 7.2 8.5 7.3 8.6L8.4 9.4V10.4L7.3 11.2C7.2 11.3 7.2 11.4 7.2 11.5L8.2 13.2C8.3 13.3 8.4 13.4 8.5 13.3L9.7 13C10 13.2 10.2 13.4 10.5 13.5L10.7 14.8C10.7 14.9 10.8 15 11 15H13C13.1 15 13.2 14.9 13.2 14.8L13.4 13.5C13.7 13.4 14 13.2 14.2 13L15.4 13.5C15.5 13.5 15.6 13.5 15.7 13.4L16.7 11.7C16.9 11.5 16.9 11.4 16.8 11.3M12 11.5C11.2 11.5 10.5 10.8 10.5 10S11.2 8.5 12 8.5 13.5 9.2 13.5 10 12.8 11.5 12 11.5Z" />
    </g>
    <g id="mdi-message-draw" transform="translate(432 252) scale(1.5)" fill="#555">
      <path d="M18,14H10.5L12.5,12H18M6,14V11.5L12.88,4.64C13.07,4.45 13.39,4.45 13.59,4.64L15.35,6.41C15.55,6.61 15.55,6.92 15.35,7.12L8.47,14M20,2H4A2,2 0 0,0 2,4V22L6,18H20A2,2 0 0,0 22,16V4C22,2.89 21.1,2 20,2Z" />
    </g>
    <g id="mdi-message-draw" transform="translate(468 252) scale(1.5)" fill="#fff">
      <path d="M18,14H10.5L12.5,12H18M6,14V11.5L12.88,4.64C13.07,4.45 13.39,4.45 13.59,4.64L15.35,6.41C15.55,6.61 15.55,6.92 15.35,7.12L8.47,14M20,2H4A2,2 0 0,0 2,4V22L6,18H20A2,2 0 0,0 22,16V4C22,2.89 21.1,2 20,2Z" />
    </g>
    <g id="mdi-message-flash" transform="translate(504 252) scale(1.5)" fill="#555">
      <path d="M22 4C22 2.9 21.1 2 20 2H4C2.9 2 2 2.9 2 4V22L6 18H15V10H22V4M22.5 16H20.3L22 12H17V18H19V23L22.5 16Z" />
    </g>
    <g id="mdi-message-flash" transform="translate(540 252) scale(1.5)" fill="#fff">
      <path d="M22 4C22 2.9 21.1 2 20 2H4C2.9 2 2 2.9 2 4V22L6 18H15V10H22V4M22.5 16H20.3L22 12H17V18H19V23L22.5 16Z" />
    </g>
    <g id="mdi-message-flash-outline" transform="translate(576 252) scale(1.5)" fill="#555">
      <path d="M4 17.2V4H20V10H22V4C22 2.9 21.1 2 20 2H4C2.9 2 2 2.9 2 4V22L6 18H15V16H5.2L4 17.2M22.5 16H20.3L22 12H17V18H19V23L22.5 16Z" />
    </g>
    <g id="mdi-message-flash-outline" transform="translate(612 252) scale(1.5)" fill="#fff">
      <path d="M4 17.2V4H20V10H22V4C22 2.9 21.1 2 20 2H4C2.9 2 2 2.9 2 4V22L6 18H15V16H5.2L4 17.2M22.5 16H20.3L22 12H17V18H19V23L22.5 16Z" />
    </g>
    <g id="mdi-message-image" transform="translate(648 252) scale(1.5)" fill="#555">
      <path d="M5,14L8.5,9.5L11,12.5L14.5,8L19,14M20,2H4A2,2 0 0,0 2,4V22L6,18H20A2,2 0 0,0 22,16V4C22,2.89 21.1,2 20,2Z" />
    </g>
    <g id="mdi-message-image" transform="translate(684 252) scale(1.5)" fill="#fff">
      <path d="M5,14L8.5,9.5L11,12.5L14.5,8L19,14M20,2H4A2,2 0 0,0 2,4V22L6,18H20A2,2 0 0,0 22,16V4C22,2.89 21.1,2 20,2Z" />
    </g>
    <g id="mdi-message-image-outline" transform="translate(0 288) scale(1.5)" fill="#555">
      <path d="M20 2H4C2.9 2 2 2.9 2 4V22L6 18H20C21.1 18 22 17.1 22 16V4C22 2.9 21.1 2 20 2M20 16H5.2L4 17.2V4H20V16M5 14L8.5 9.5L11 12.5L14.5 8L19 14" />
    </g>
    <g id="mdi-message-image-outline" transform="translate(36 288) scale(1.5)" fill="#fff">
      <path d="M20 2H4C2.9 2 2 2.9 2 4V22L6 18H20C21.1 18 22 17.1 22 16V4C22 2.9 21.1 2 20 2M20 16H5.2L4 17.2V4H20V16M5 14L8.5 9.5L11 12.5L14.5 8L19 14" />
    </g>
    <g id="mdi-message-lock" transform="translate(72 288) scale(1.5)" fill="#555">
      <path d="M20.5 0A2.5 2.5 0 0 0 18 2.5V3A1 1 0 0 0 17 4V8A1 1 0 0 0 18 9H23A1 1 0 0 0 24 8V4A1 1 0 0 0 23 3V2.5A2.5 2.5 0 0 0 20.5 0M20.5 1A1.5 1.5 0 0 1 22 2.5V3H19V2.5A1.5 1.5 0 0 1 20.5 1M4 2A2 2 0 0 0 2 4V22L6 18H20A2 2 0 0 0 22 16V11H17C15.89 11 15 10.11 15 9V2H4Z" />
    </g>
    <g id="mdi-message-lock" transform="translate(108 288) scale(1.5)" fill="#fff">
      <path d="M20.5 0A2.5 2.5 0 0 0 18 2.5V3A1 1 0 0 0 17 4V8A1 1 0 0 0 18 9H23A1 1 0 0 0 24 8V4A1 1 0 0 0 23 3V2.5A2.5 2.5 0 0 0 20.5 0M20.5 1A1.5 1.5 0 0 1 22 2.5V3H19V2.5A1.5 1.5 0 0 1 20.5 1M4 2A2 2 0 0 0 2 4V22L6 18H20A2 2 0 0 0 22 16V11H17C15.89 11 15 10.11 15 9V2H4Z" />
    </g>
    <g id="mdi-message-lock-outline" transform="translate(144 288) scale(1.5)" fill="#555">
      <path d="M23 3V2.5C23 1.1 21.9 0 20.5 0S18 1.1 18 2.5V3C17.5 3 17 3.5 17 4V8C17 8.5 17.5 9 18 9H23C23.5 9 24 8.5 24 8V4C24 3.5 23.5 3 23 3M22 3H19V2.5C19 1.7 19.7 1 20.5 1S22 1.7 22 2.5V3M22 11V16C22 17.1 21.1 18 20 18H6L2 22V4C2 2.9 2.9 2 4 2H15V4H4V17.2L5.2 16H20V11H22Z" />
    </g>
    <g id="mdi-message-lock-outline" transform="translate(180 288) scale(1.5)" fill="#fff">
      <path d="M23 3V2.5C23 1.1 21.9 0 20.5 0S18 1.1 18 2.5V3C17.5 3 17 3.5 17 4V8C17 8.5 17.5 9 18 9H23C23.5 9 24 8.5 24 8V4C24 3.5 23.5 3 23 3M22 3H19V2.5C19 1.7 19.7 1 20.5 1S22 1.7 22 2.5V3M22 11V16C22 17.1 21.1 18 20 18H6L2 22V4C2 2.9 2.9 2 4 2H15V4H4V17.2L5.2 16H20V11H22Z" />
    </g>
    <g id="mdi-message-minus" transform="translate(216 288) scale(1.5)" fill="#555">
      <path d="M20 2C21.11 2 22 2.9 22 4V16C22 17.11 21.11 18 20 18H6L2 22V4C2 2.89 2.9 2 4 2H20M8 9V11H16V9H8Z" />
    </g>
    <g id="mdi-message-minus" transform="translate(252 288) scale(1.5)" fill="#fff">
      <path d="M20 2C21.11 2 22 2.9 22 4V16C22 17.11 21.11 18 20 18H6L2 22V4C2 2.89 2.9 2 4 2H20M8 9V11H16V9H8Z" />
    </g>
    <g id="mdi-message-minus-outline" transform="translate(288 288) scale(1.5)" fill="#555">
      <path d="M20 2H4C2.9 2 2 2.9 2 4V22L6 18H20C21.1 18 22 17.1 22 16V4C22 2.9 21.1 2 20 2M20 16H5.2L4 17.2V4H20V16M8 9V11H16V9H8Z" />
    </g>
    <g id="mdi-message-minus-outline" transform="translate(324 288) scale(1.5)" fill="#fff">
      <path d="M20 2H4C2.9 2 2 2.9 2 4V22L6 18H20C21.1 18 22 17.1 22 16V4C22 2.9 21.1 2 20 2M20 16H5.2L4 17.2V4H20V16M8 9V11H16V9H8Z" />
    </g>
    <g id="mdi-message-off" transform="translate(360 288) scale(1.5)" fill="#555">
      <path d="M20.95 17.75L5.2 2H20C21.1 2 22 2.89 22 4V16C22 16.76 21.57 17.41 20.95 17.75M2.39 1.73L1.11 3L2 3.9C2 3.93 2 3.97 2 4V22L6 18H16.11L20.84 22.73L22.11 21.46L2.39 1.73Z" />
    </g>
    <g id="mdi-message-off" transform="translate(396 288) scale(1.5)" fill="#fff">
      <path d="M20.95 17.75L5.2 2H20C21.1 2 22 2.89 22 4V16C22 16.76 21.57 17.41 20.95 17.75M2.39 1.73L1.11 3L2 3.9C2 3.93 2 3.97 2 4V22L6 18H16.11L20.84 22.73L22.11 21.46L2.39 1.73Z" />
    </g>
    <g id="mdi-message-off-outline" transform="translate(432 288) scale(1.5)" fill="#555">
      <path d="M7.2 4L5.2 2H20C21.11 2 22 2.9 22 4V16C22 16.76 21.57 17.41 20.95 17.75L19.2 16H20V4H7.2M22.11 21.46L20.84 22.73L16.11 18H6L2 22V4C2 3.97 2 3.93 2 3.9L1.11 3L2.39 1.73L6.1 5.44L16.65 16H16.66L18.66 18H18.65L22.11 21.46M14.11 16L4 5.89V18L6 16H14.11Z" />
    </g>
    <g id="mdi-message-off-outline" transform="translate(468 288) scale(1.5)" fill="#fff">
      <path d="M7.2 4L5.2 2H20C21.11 2 22 2.9 22 4V16C22 16.76 21.57 17.41 20.95 17.75L19.2 16H20V4H7.2M22.11 21.46L20.84 22.73L16.11 18H6L2 22V4C2 3.97 2 3.93 2 3.9L1.11 3L2.39 1.73L6.1 5.44L16.65 16H16.66L18.66 18H18.65L22.11 21.46M14.11 16L4 5.89V18L6 16H14.11Z" />
    </g>
    <g id="mdi-message-outline" transform="translate(504 288) scale(1.5)" fill="#555">
      <path d="M20 2H4C2.9 2 2 2.9 2 4V22L6 18H20C21.1 18 22 17.1 22 16V4C22 2.9 21.1 2 20 2M20 16H5.2L4 17.2V4H20V16Z" />
    </g>
    <g id="mdi-message-outline" transform="translate(540 288) scale(1.5)" fill="#fff">
      <path d="M20 2H4C2.9 2 2 2.9 2 4V22L6 18H20C21.1 18 22 17.1 22 16V4C22 2.9 21.1 2 20 2M20 16H5.2L4 17.2V4H20V16Z" />
    </g>
    <g id="mdi-message-plus" transform="translate(576 288) scale(1.5)" fill="#555">
      <path d="M20,2A2,2 0 0,1 22,4V16A2,2 0 0,1 20,18H6L2,22V4C2,2.89 2.9,2 4,2H20M11,6V9H8V11H11V14H13V11H16V9H13V6H11Z" />
    </g>
    <g id="mdi-message-plus" transform="translate(612 288) scale(1.5)" fill="#fff">
      <path d="M20,2A2,2 0 0,1 22,4V16A2,2 0 0,1 20,18H6L2,22V4C2,2.89 2.9,2 4,2H20M11,6V9H8V11H11V14H13V11H16V9H13V6H11Z" />
    </g>
    <g id="mdi-message-plus-outline" transform="translate(648 288) scale(1.5)" fill="#555">
      <path d="M20 2H4C2.9 2 2 2.9 2 4V22L6 18H20C21.1 18 22 17.1 22 16V4C22 2.9 21.1 2 20 2M20 16H5.2L4 17.2V4H20V16M16 9V11H13V14H11V11H8V9H11V6H13V9H16Z" />
    </g>
    <g id="mdi-message-plus-outline" transform="translate(684 288) scale(1.5)" fill="#fff">
      <path d="M20 2H4C2.9 2 2 2.9 2 4V22L6 18H20C21.1 18 22 17.1 22 16V4C22 2.9 21.1 2 20 2M20 16H5.2L4 17.2V4H20V16M16 9V11H13V14H11V11H8V9H11V6H13V9H16Z" />
    </g>
    <g id="mdi-message-processing" transform="translate(0 324) scale(1.5)" fill="#555">
      <path d="M17,11H15V9H17M13,11H11V9H13M9,11H7V9H9M20,2H4A2,2 0 0,0 2,4V22L6,18H20A2,2 0 0,0 22,16V4C22,2.89 21.1,2 20,2Z" />
    </g>
    <g id="mdi-message-processing" transform="translate(36 324) scale(1.5)" fill="#fff">
      <path d="M17,11H15V9H17M13,11H11V9H13M9,11H7V9H9M20,2H4A2,2 0 0,0 2,4V22L6,18H20A2,2 0 0,0 22,16V4C22,2.89 21.1,2 20,2Z" />
    </g>
    <g id="mdi-message-processing-outline" transform="translate(72 324) scale(1.5)" fill="#555">
      <path d="M20 2H4C2.9 2 2 2.9 2 4V22L6 18H20C21.1 18 22 17.1 22 16V4C22 2.9 21.1 2 20 2M20 16H5.2L4 17.2V4H20V16M17 11H15V9H17M13 11H11V9H13M9 11H7V9H9" />
    </g>
    <g id="mdi-message-processing-outline" transform="translate(108 324) scale(1.5)" fill="#fff">
      <path d="M20 2H4C2.9 2 2 2.9 2 4V22L6 18H20C21.1 18 22 17.1 22 16V4C22 2.9 21.1 2 20 2M20 16H5.2L4 17.2V4H20V16M17 11H15V9H17M13 11H11V9H13M9 11H7V9H9" />
    </g>
    <g id="mdi-message-reply" transform="translate(144 324) scale(1.5)" fill="#555">
      <path d="M22,4C22,2.89 21.1,2 20,2H4A2,2 0 0,0 2,4V16A2,2 0 0,0 4,18H18L22,22V4Z" />
    </g>
    <g id="mdi-message-reply" transform="translate(180 324) scale(1.5)" fill="#fff">
      <path d="M22,4C22,2.89 21.1,2 20,2H4A2,2 0 0,0 2,4V16A2,2 0 0,0 4,18H18L22,22V4Z" />
    </g>
    <g id="mdi-message-reply-text" transform="translate(216 324) scale(1.5)" fill="#555">
      <path d="M18,8H6V6H18V8M18,11H6V9H18V11M18,14H6V12H18V14M22,4A2,2 0 0,0 20,2H4A2,2 0 0,0 2,4V16A2,2 0 0,0 4,18H18L22,22V4Z" />
    </g>
    <g id="mdi-message-reply-text" transform="translate(252 324) scale(1.5)" fill="#fff">
      <path d="M18,8H6V6H18V8M18,11H6V9H18V11M18,14H6V12H18V14M22,4A2,2 0 0,0 20,2H4A2,2 0 0,0 2,4V16A2,2 0 0,0 4,18H18L22,22V4Z" />
    </g>
    <g id="mdi-message-settings" transform="translate(288 324) scale(1.5)" fill="#555">
      <path d="M20,2H4A2,2 0 0,0 2,4V22L6,18H20A2,2 0 0,0 22,16V4A2,2 0 0,0 20,2M11,24H13V22H11V24M7,24H9V22H7V24M15,24H17V22H15V24Z" />
    </g>
    <g id="mdi-message-settings" transform="translate(324 324) scale(1.5)" fill="#fff">
      <path d="M20,2H4A2,2 0 0,0 2,4V22L6,18H20A2,2 0 0,0 22,16V4A2,2 0 0,0 20,2M11,24H13V22H11V24M7,24H9V22H7V24M15,24H17V22H15V24Z" />
    </g>
    <g id="mdi-message-settings-outline" transform="translate(360 324) scale(1.5)" fill="#555">
      <path d="M20 2H4C2.9 2 2 2.9 2 4V22L6 18H20C21.1 18 22 17.1 22 16V4C22 2.9 21.1 2 20 2M20 16H5.2L4 17.2V4H20V16M11 24H13V22H11V24M7 24H9V22H7V24M15 24H17V22H15V24" />
    </g>
    <g id="mdi-message-settings-outline" transform="translate(396 324) scale(1.5)" fill="#fff">
      <path d="M20 2H4C2.9 2 2 2.9 2 4V22L6 18H20C21.1 18 22 17.1 22 16V4C22 2.9 21.1 2 20 2M20 16H5.2L4 17.2V4H20V16M11 24H13V22H11V24M7 24H9V22H7V24M15 24H17V22H15V24" />
    </g>
    <g id="mdi-message-text" transform="translate(432 324) scale(1.5)" fill="#555">
      <path d="M20,2H4A2,2 0 0,0 2,4V22L6,18H20A2,2 0 0,0 22,16V4A2,2 0 0,0 20,2M6,9H18V11H6M14,14H6V12H14M18,8H6V6H18" />
    </g>
    <g id="mdi-message-text" transform="translate(468 324) scale(1.5)" fill="#fff">
      <path d="M20,2H4A2,2 0 0,0 2,4V22L6,18H20A2,2 0 0,0 22,16V4A2,2 0 0,0 20,2M6,9H18V11H6M14,14H6V12H14M18,8H6V6H18" />
    </g>
    <g id="mdi-message-text-clock" transform="translate(504 324) scale(1.5)" fill="#555">
      <path d="M22 12.41V4C22 2.9 21.11 2 20 2H4C2.9 2 2 2.9 2 4V22L6 18H9.29C10.15 20.89 12.83 23 16 23C19.86 23 23 19.87 23 16C23 14.69 22.63 13.46 22 12.41M6 6H18V8H6V6M16 9C14.1 9 12.37 9.77 11.11 11H6V9H16M6 12H10.26C9.84 12.6 9.5 13.28 9.3 14H6V12M16 20.85C13.32 20.85 11.15 18.68 11.15 16S13.32 11.15 16 11.15C18.67 11.15 20.85 13.32 20.85 16S18.67 20.85 16 20.85M16.5 15.82L18.94 17.23L18.19 18.53L15 16.69V13H16.5V15.82Z" />
    </g>
    <g id="mdi-message-text-clock" transform="translate(540 324) scale(1.5)" fill="#fff">
      <path d="M22 12.41V4C22 2.9 21.11 2 20 2H4C2.9 2 2 2.9 2 4V22L6 18H9.29C10.15 20.89 12.83 23 16 23C19.86 23 23 19.87 23 16C23 14.69 22.63 13.46 22 12.41M6 6H18V8H6V6M16 9C14.1 9 12.37 9.77 11.11 11H6V9H16M6 12H10.26C9.84 12.6 9.5 13.28 9.3 14H6V12M16 20.85C13.32 20.85 11.15 18.68 11.15 16S13.32 11.15 16 11.15C18.67 11.15 20.85 13.32 20.85 16S18.67 20.85 16 20.85M16.5 15.82L18.94 17.23L18.19 18.53L15 16.69V13H16.5V15.82Z" />
    </g>
    <g id="mdi-message-text-clock-outline" transform="translate(576 324) scale(1.5)" fill="#555">
      <path d="M22 12.41V4C22 2.9 21.11 2 20 2H4C2.9 2 2 2.89 2 4V22L6 18H9.29C10.15 20.89 12.83 23 16 23C19.86 23 23 19.87 23 16C23 14.69 22.63 13.46 22 12.41M5.17 16L4 17.17V4H20V10.26C18.86 9.47 17.5 9 16 9C14.1 9 12.37 9.77 11.11 11H6V13H9.69C9.25 13.91 9 14.93 9 16H5.17M16 20.85C13.32 20.85 11.15 18.68 11.15 16S13.32 11.15 16 11.15C18.67 11.15 20.85 13.32 20.85 16S18.67 20.85 16 20.85M18 9H6V7H18V9M16.5 15.82L18.94 17.23L18.19 18.53L15 16.69V13H16.5V15.82Z" />
    </g>
    <g id="mdi-message-text-clock-outline" transform="translate(612 324) scale(1.5)" fill="#fff">
      <path d="M22 12.41V4C22 2.9 21.11 2 20 2H4C2.9 2 2 2.89 2 4V22L6 18H9.29C10.15 20.89 12.83 23 16 23C19.86 23 23 19.87 23 16C23 14.69 22.63 13.46 22 12.41M5.17 16L4 17.17V4H20V10.26C18.86 9.47 17.5 9 16 9C14.1 9 12.37 9.77 11.11 11H6V13H9.69C9.25 13.91 9 14.93 9 16H5.17M16 20.85C13.32 20.85 11.15 18.68 11.15 16S13.32 11.15 16 11.15C18.67 11.15 20.85 13.32 20.85 16S18.67 20.85 16 20.85M18 9H6V7H18V9M16.5 15.82L18.94 17.23L18.19 18.53L15 16.69V13H16.5V15.82Z" />
    </g>
    <g id="mdi-message-text-lock" transform="translate(648 324) scale(1.5)" fill="#555">
      <path d="M20.5 0A2.5 2.5 0 0 0 18 2.5V3A1 1 0 0 0 17 4V8A1 1 0 0 0 18 9H23A1 1 0 0 0 24 8V4A1 1 0 0 0 23 3V2.5A2.5 2.5 0 0 0 20.5 0M20.5 1A1.5 1.5 0 0 1 22 2.5V3H19V2.5A1.5 1.5 0 0 1 20.5 1M4 2A2 2 0 0 0 2 4V22L6 18H20A2 2 0 0 0 22 16V11H17C15.89 11 15 10.11 15 9V2H4M6 6H13V8H6V6M6 9H13V11H6V9M6 12H14V14H6V12Z" />
    </g>
    <g id="mdi-message-text-lock" transform="translate(684 324) scale(1.5)" fill="#fff">
      <path d="M20.5 0A2.5 2.5 0 0 0 18 2.5V3A1 1 0 0 0 17 4V8A1 1 0 0 0 18 9H23A1 1 0 0 0 24 8V4A1 1 0 0 0 23 3V2.5A2.5 2.5 0 0 0 20.5 0M20.5 1A1.5 1.5 0 0 1 22 2.5V3H19V2.5A1.5 1.5 0 0 1 20.5 1M4 2A2 2 0 0 0 2 4V22L6 18H20A2 2 0 0 0 22 16V11H17C15.89 11 15 10.11 15 9V2H4M6 6H13V8H6V6M6 9H13V11H6V9M6 12H14V14H6V12Z" />
    </g>
  </svg>